<?xml version="1.0" encoding="UTF-8" standalone="no"?>
<!DOCTYPE svg PUBLIC "-//W3C//DTD SVG 1.1//EN"
 "http://www.w3.org/Graphics/SVG/1.1/DTD/svg11.dtd">
<!-- Generated by graphviz version 9.0.0 (0)
 -->
<!-- Title: ForwardedMessage.h Pages: 1 -->
<svg width="1029pt" height="308pt"
 viewBox="0.00 0.00 1028.50 308.00" xmlns="http://www.w3.org/2000/svg" xmlns:xlink="http://www.w3.org/1999/xlink">
<g id="graph0" class="graph" transform="scale(1 1) rotate(0) translate(4 304)">
<title>ForwardedMessage.h</title>
<!-- Node1 -->
<g id="Node000001" class="node">
<title>Node1</title>
<g id="a_Node000001"><a xlink:title=" ">
<polygon fill="#999999" stroke="#666666" points="940.88,-300 831.12,-300 831.12,-280 940.88,-280 940.88,-300"/>
<text text-anchor="middle" x="886" y="-286.5" font-family="Helvetica,sans-Serif" font-size="10.00">ForwardedMessage.h</text>
</a>
</g>
</g>
<!-- Node2 -->
<g id="Node000002" class="node">
<title>Node2</title>
<g id="a_Node000002"><a xlink:href="a00092.html" target="_top" xlink:title=" ">
<polygon fill="white" stroke="#666666" points="291.75,-244 202.25,-244 202.25,-224 291.75,-224 291.75,-244"/>
<text text-anchor="middle" x="247" y="-230.5" font-family="Helvetica,sans-Serif" font-size="10.00">MessageChain.h</text>
</a>
</g>
</g>
<!-- Node1&#45;&gt;Node2 -->
<g id="edge1_Node000001_Node000002" class="edge">
<title>Node1&#45;&gt;Node2</title>
<g id="a_edge1_Node000001_Node000002"><a xlink:title=" ">
<path fill="none" stroke="#63b8ff" d="M830.69,-284.33C710.12,-274.14 424.72,-250.02 303.28,-239.76"/>
<polygon fill="#63b8ff" stroke="#63b8ff" points="303.82,-236.29 293.56,-238.93 303.23,-243.26 303.82,-236.29"/>
</a>
</g>
</g>
<!-- Node8 -->
<g id="Node000008" class="node">
<title>Node8</title>
<g id="a_Node000008"><a xlink:title=" ">
<polygon fill="#e0e0e0" stroke="#999999" points="786,-76 746,-76 746,-56 786,-56 786,-76"/>
<text text-anchor="middle" x="766" y="-62.5" font-family="Helvetica,sans-Serif" font-size="10.00">string</text>
</a>
</g>
</g>
<!-- Node1&#45;&gt;Node8 -->
<g id="edge21_Node000001_Node000008" class="edge">
<title>Node1&#45;&gt;Node8</title>
<g id="a_edge21_Node000001_Node000008"><a xlink:title=" ">
<path fill="none" stroke="#63b8ff" d="M887.93,-279.81C893.29,-251.59 905.56,-164.97 867,-112 850.67,-89.56 820.57,-78.12 797.46,-72.4"/>
<polygon fill="#63b8ff" stroke="#63b8ff" points="798.45,-69.04 787.93,-70.3 796.94,-75.87 798.45,-69.04"/>
</a>
</g>
</g>
<!-- Node15 -->
<g id="Node000015" class="node">
<title>Node15</title>
<g id="a_Node000015"><a xlink:title=" ">
<polygon fill="#e0e0e0" stroke="#999999" points="857.62,-132 818.38,-132 818.38,-112 857.62,-112 857.62,-132"/>
<text text-anchor="middle" x="838" y="-118.5" font-family="Helvetica,sans-Serif" font-size="10.00">utility</text>
</a>
</g>
</g>
<!-- Node1&#45;&gt;Node15 -->
<g id="edge22_Node000001_Node000015" class="edge">
<title>Node1&#45;&gt;Node15</title>
<g id="a_edge22_Node000001_Node000015"><a xlink:title=" ">
<path fill="none" stroke="#63b8ff" d="M883.03,-279.71C880.14,-270.63 875.67,-256.4 872,-244 861.56,-208.72 850.12,-167.42 843.53,-143.34"/>
<polygon fill="#63b8ff" stroke="#63b8ff" points="846.96,-142.63 840.95,-133.9 840.21,-144.47 846.96,-142.63"/>
</a>
</g>
</g>
<!-- Node17 -->
<g id="Node000017" class="node">
<title>Node17</title>
<g id="a_Node000017"><a xlink:title=" ">
<polygon fill="#e0e0e0" stroke="#999999" points="959.62,-244 914.38,-244 914.38,-224 959.62,-224 959.62,-244"/>
<text text-anchor="middle" x="937" y="-230.5" font-family="Helvetica,sans-Serif" font-size="10.00">variant</text>
</a>
</g>
</g>
<!-- Node1&#45;&gt;Node17 -->
<g id="edge23_Node000001_Node000017" class="edge">
<title>Node1&#45;&gt;Node17</title>
<g id="a_edge23_Node000001_Node000017"><a xlink:title=" ">
<path fill="none" stroke="#63b8ff" d="M894.88,-279.59C901.9,-272.16 911.9,-261.58 920.39,-252.58"/>
<polygon fill="#63b8ff" stroke="#63b8ff" points="922.86,-255.07 927.18,-245.4 917.77,-250.27 922.86,-255.07"/>
</a>
</g>
</g>
<!-- Node18 -->
<g id="Node000018" class="node">
<title>Node18</title>
<g id="a_Node000018"><a xlink:title=" ">
<polygon fill="#e0e0e0" stroke="#999999" points="1020.5,-244 977.5,-244 977.5,-224 1020.5,-224 1020.5,-244"/>
<text text-anchor="middle" x="999" y="-230.5" font-family="Helvetica,sans-Serif" font-size="10.00">vector</text>
</a>
</g>
</g>
<!-- Node1&#45;&gt;Node18 -->
<g id="edge24_Node000001_Node000018" class="edge">
<title>Node1&#45;&gt;Node18</title>
<g id="a_edge24_Node000001_Node000018"><a xlink:title=" ">
<path fill="none" stroke="#63b8ff" d="M905.68,-279.59C923.16,-271.24 948.95,-258.92 969,-249.34"/>
<polygon fill="#63b8ff" stroke="#63b8ff" points="970.28,-252.6 977.8,-245.13 967.27,-246.29 970.28,-252.6"/>
</a>
</g>
</g>
<!-- Node3 -->
<g id="Node000003" class="node">
<title>Node3</title>
<g id="a_Node000003"><a xlink:href="a00041.html" target="_top" xlink:title=" ">
<polygon fill="white" stroke="#666666" points="414.88,-76 323.12,-76 323.12,-56 414.88,-56 414.88,-76"/>
<text text-anchor="middle" x="369" y="-62.5" font-family="Helvetica,sans-Serif" font-size="10.00">MiraiCPMacros.h</text>
</a>
</g>
</g>
<!-- Node2&#45;&gt;Node3 -->
<g id="edge2_Node000002_Node000003" class="edge">
<title>Node2&#45;&gt;Node3</title>
<g id="a_edge2_Node000002_Node000003"><a xlink:title=" ">
<path fill="none" stroke="#63b8ff" d="M227.75,-223.56C189.04,-203.35 108.3,-154.29 143,-112 153.7,-98.96 248.36,-83.58 311.73,-74.59"/>
<polygon fill="#63b8ff" stroke="#63b8ff" points="311.86,-78.11 321.28,-73.25 310.89,-71.17 311.86,-78.11"/>
</a>
</g>
</g>
<!-- Node5 -->
<g id="Node000005" class="node">
<title>Node5</title>
<g id="a_Node000005"><a xlink:href="a00089.html" target="_top" xlink:title=" ">
<polygon fill="white" stroke="#666666" points="452.5,-188 361.5,-188 361.5,-168 452.5,-168 452.5,-188"/>
<text text-anchor="middle" x="407" y="-174.5" font-family="Helvetica,sans-Serif" font-size="10.00">SingleMessage.h</text>
</a>
</g>
</g>
<!-- Node2&#45;&gt;Node5 -->
<g id="edge4_Node000002_Node000005" class="edge">
<title>Node2&#45;&gt;Node5</title>
<g id="a_edge4_Node000002_Node000005"><a xlink:title=" ">
<path fill="none" stroke="#63b8ff" d="M274.87,-223.59C300.75,-214.86 339.53,-201.77 368.39,-192.03"/>
<polygon fill="#63b8ff" stroke="#63b8ff" points="369.12,-195.48 377.48,-188.96 366.88,-188.85 369.12,-195.48"/>
</a>
</g>
</g>
<!-- Node16 -->
<g id="Node000016" class="node">
<title>Node16</title>
<g id="a_Node000016"><a xlink:title=" ">
<polygon fill="#e0e0e0" stroke="#999999" points="58,-188 0,-188 0,-168 58,-168 58,-188"/>
<text text-anchor="middle" x="29" y="-174.5" font-family="Helvetica,sans-Serif" font-size="10.00">functional</text>
</a>
</g>
</g>
<!-- Node2&#45;&gt;Node16 -->
<g id="edge20_Node000002_Node000016" class="edge">
<title>Node2&#45;&gt;Node16</title>
<g id="a_edge20_Node000002_Node000016"><a xlink:title=" ">
<path fill="none" stroke="#63b8ff" d="M208.78,-223.53C169.77,-213.87 109.45,-198.93 69.6,-189.06"/>
<polygon fill="#63b8ff" stroke="#63b8ff" points="70.45,-185.66 59.9,-186.66 68.77,-192.46 70.45,-185.66"/>
</a>
</g>
</g>
<!-- Node4 -->
<g id="Node000004" class="node">
<title>Node4</title>
<g id="a_Node000004"><a xlink:title=" ">
<polygon fill="#e0e0e0" stroke="#999999" points="393.12,-20 344.88,-20 344.88,0 393.12,0 393.12,-20"/>
<text text-anchor="middle" x="369" y="-6.5" font-family="Helvetica,sans-Serif" font-size="10.00">cassert</text>
</a>
</g>
</g>
<!-- Node3&#45;&gt;Node4 -->
<g id="edge3_Node000003_Node000004" class="edge">
<title>Node3&#45;&gt;Node4</title>
<g id="a_edge3_Node000003_Node000004"><a xlink:title=" ">
<path fill="none" stroke="#63b8ff" d="M369,-55.59C369,-49.01 369,-39.96 369,-31.73"/>
<polygon fill="#63b8ff" stroke="#63b8ff" points="372.5,-31.81 369,-21.81 365.5,-31.81 372.5,-31.81"/>
</a>
</g>
</g>
<!-- Node5&#45;&gt;Node3 -->
<g id="edge5_Node000005_Node000003" class="edge">
<title>Node5&#45;&gt;Node3</title>
<g id="a_edge5_Node000005_Node000003"><a xlink:title=" ">
<path fill="none" stroke="#63b8ff" d="M387.85,-167.52C374.82,-159.9 358.6,-147.86 351,-132 343.96,-117.32 349.88,-99.4 356.76,-86.11"/>
<polygon fill="#63b8ff" stroke="#63b8ff" points="359.76,-87.91 361.74,-77.5 353.7,-84.4 359.76,-87.91"/>
</a>
</g>
</g>
<!-- Node6 -->
<g id="Node000006" class="node">
<title>Node6</title>
<g id="a_Node000006"><a xlink:href="a00086.html" target="_top" xlink:title=" ">
<polygon fill="white" stroke="#666666" points="454.38,-132 359.62,-132 359.62,-112 454.38,-112 454.38,-132"/>
<text text-anchor="middle" x="407" y="-118.5" font-family="Helvetica,sans-Serif" font-size="10.00">MessageSource.h</text>
</a>
</g>
</g>
<!-- Node5&#45;&gt;Node6 -->
<g id="edge6_Node000005_Node000006" class="edge">
<title>Node5&#45;&gt;Node6</title>
<g id="a_edge6_Node000005_Node000006"><a xlink:title=" ">
<path fill="none" stroke="#63b8ff" d="M407,-167.59C407,-161.01 407,-151.96 407,-143.73"/>
<polygon fill="#63b8ff" stroke="#63b8ff" points="410.5,-143.81 407,-133.81 403.5,-143.81 410.5,-143.81"/>
</a>
</g>
</g>
<!-- Node7 -->
<g id="Node000007" class="node">
<title>Node7</title>
<g id="a_Node000007"><a xlink:href="a00062.html" target="_top" xlink:title=" ">
<polygon fill="white" stroke="#666666" points="249.25,-76 186.75,-76 186.75,-56 249.25,-56 249.25,-76"/>
<text text-anchor="middle" x="218" y="-62.5" font-family="Helvetica,sans-Serif" font-size="10.00">SdkType.h</text>
</a>
</g>
</g>
<!-- Node5&#45;&gt;Node7 -->
<g id="edge13_Node000005_Node000007" class="edge">
<title>Node5&#45;&gt;Node7</title>
<g id="a_edge13_Node000005_Node000007"><a xlink:title=" ">
<path fill="none" stroke="#63b8ff" d="M361.26,-176.03C293.22,-173.51 170.4,-164.47 143,-132 126.32,-112.24 154.97,-93.31 181.54,-81.03"/>
<polygon fill="#63b8ff" stroke="#63b8ff" points="182.75,-84.32 190.51,-77.11 179.95,-77.9 182.75,-84.32"/>
</a>
</g>
</g>
<!-- Node9 -->
<g id="Node000009" class="node">
<title>Node9</title>
<g id="a_Node000009"><a xlink:href="a00068.html" target="_top" xlink:title=" ">
<polygon fill="white" stroke="#666666" points="800.25,-132 731.75,-132 731.75,-112 800.25,-112 800.25,-132"/>
<text text-anchor="middle" x="766" y="-118.5" font-family="Helvetica,sans-Serif" font-size="10.00">MiraiCode.h</text>
</a>
</g>
</g>
<!-- Node5&#45;&gt;Node9 -->
<g id="edge10_Node000005_Node000009" class="edge">
<title>Node5&#45;&gt;Node9</title>
<g id="a_edge10_Node000005_Node000009"><a xlink:title=" ">
<path fill="none" stroke="#63b8ff" d="M452.94,-171.41C512.34,-163.97 619.27,-149.87 720,-132.44"/>
<polygon fill="#63b8ff" stroke="#63b8ff" points="720.56,-135.89 729.81,-130.72 719.36,-129 720.56,-135.89"/>
</a>
</g>
</g>
<!-- Node10 -->
<g id="Node000010" class="node">
<title>Node10</title>
<g id="a_Node000010"><a xlink:title=" ">
<polygon fill="#e0e0e0" stroke="#999999" points="509.88,-132 472.12,-132 472.12,-112 509.88,-112 509.88,-132"/>
<text text-anchor="middle" x="491" y="-118.5" font-family="Helvetica,sans-Serif" font-size="10.00">array</text>
</a>
</g>
</g>
<!-- Node5&#45;&gt;Node10 -->
<g id="edge14_Node000005_Node000010" class="edge">
<title>Node5&#45;&gt;Node10</title>
<g id="a_edge14_Node000005_Node000010"><a xlink:title=" ">
<path fill="none" stroke="#63b8ff" d="M421.63,-167.59C434.08,-159.59 452.22,-147.93 466.82,-138.54"/>
<polygon fill="#63b8ff" stroke="#63b8ff" points="468.46,-141.65 474.98,-133.3 464.68,-135.76 468.46,-141.65"/>
</a>
</g>
</g>
<!-- Node11 -->
<g id="Node000011" class="node">
<title>Node11</title>
<g id="a_Node000011"><a xlink:title=" ">
<polygon fill="#e0e0e0" stroke="#999999" points="646.38,-132 527.62,-132 527.62,-112 646.38,-112 646.38,-132"/>
<text text-anchor="middle" x="587" y="-118.5" font-family="Helvetica,sans-Serif" font-size="10.00">nlohmann/json_fwd.hpp</text>
</a>
</g>
</g>
<!-- Node5&#45;&gt;Node11 -->
<g id="edge15_Node000005_Node000011" class="edge">
<title>Node5&#45;&gt;Node11</title>
<g id="a_edge15_Node000005_Node000011"><a xlink:title=" ">
<path fill="none" stroke="#63b8ff" d="M438.35,-167.59C467.73,-158.78 511.86,-145.54 544.41,-135.78"/>
<polygon fill="#63b8ff" stroke="#63b8ff" points="545.38,-139.14 553.95,-132.91 543.37,-132.44 545.38,-139.14"/>
</a>
</g>
</g>
<!-- Node12 -->
<g id="Node000012" class="node">
<title>Node12</title>
<g id="a_Node000012"><a xlink:title=" ">
<polygon fill="#e0e0e0" stroke="#999999" points="713.88,-132 664.12,-132 664.12,-112 713.88,-112 713.88,-132"/>
<text text-anchor="middle" x="689" y="-118.5" font-family="Helvetica,sans-Serif" font-size="10.00">optional</text>
</a>
</g>
</g>
<!-- Node5&#45;&gt;Node12 -->
<g id="edge16_Node000005_Node000012" class="edge">
<title>Node5&#45;&gt;Node12</title>
<g id="a_edge16_Node000005_Node000012"><a xlink:title=" ">
<path fill="none" stroke="#63b8ff" d="M452.93,-169.79C500.53,-162.06 577.33,-148.91 652.7,-132.37"/>
<polygon fill="#63b8ff" stroke="#63b8ff" points="653.32,-135.82 662.33,-130.24 651.81,-128.98 653.32,-135.82"/>
</a>
</g>
</g>
<!-- Node13 -->
<g id="Node000013" class="node">
<title>Node13</title>
<g id="a_Node000013"><a xlink:title=" ">
<polygon fill="#e0e0e0" stroke="#999999" points="203.62,-132 152.38,-132 152.38,-112 203.62,-112 203.62,-132"/>
<text text-anchor="middle" x="178" y="-118.5" font-family="Helvetica,sans-Serif" font-size="10.00">sstream</text>
</a>
</g>
</g>
<!-- Node5&#45;&gt;Node13 -->
<g id="edge17_Node000005_Node000013" class="edge">
<title>Node5&#45;&gt;Node13</title>
<g id="a_edge17_Node000005_Node000013"><a xlink:title=" ">
<path fill="none" stroke="#63b8ff" d="M364.93,-167.54C327.97,-159.17 272.46,-146.43 215.09,-132.47"/>
<polygon fill="#63b8ff" stroke="#63b8ff" points="215.99,-129.08 205.45,-130.11 214.33,-135.89 215.99,-129.08"/>
</a>
</g>
</g>
<!-- Node14 -->
<g id="Node000014" class="node">
<title>Node14</title>
<g id="a_Node000014"><a xlink:title=" ">
<polygon fill="#e0e0e0" stroke="#999999" points="304.38,-132 221.62,-132 221.62,-112 304.38,-112 304.38,-132"/>
<text text-anchor="middle" x="263" y="-118.5" font-family="Helvetica,sans-Serif" font-size="10.00">unordered_map</text>
</a>
</g>
</g>
<!-- Node5&#45;&gt;Node14 -->
<g id="edge18_Node000005_Node000014" class="edge">
<title>Node5&#45;&gt;Node14</title>
<g id="a_edge18_Node000005_Node000014"><a xlink:title=" ">
<path fill="none" stroke="#63b8ff" d="M381.92,-167.59C358.93,-158.97 324.65,-146.12 298.79,-136.42"/>
<polygon fill="#63b8ff" stroke="#63b8ff" points="300.29,-133.25 289.7,-133.01 297.83,-139.8 300.29,-133.25"/>
</a>
</g>
</g>
<!-- Node5&#45;&gt;Node15 -->
<g id="edge19_Node000005_Node000015" class="edge">
<title>Node5&#45;&gt;Node15</title>
<g id="a_edge19_Node000005_Node000015"><a xlink:title=" ">
<path fill="none" stroke="#63b8ff" d="M452.96,-174.69C526.05,-170.41 673.32,-159.27 806.93,-132.04"/>
<polygon fill="#63b8ff" stroke="#63b8ff" points="807.6,-135.47 816.68,-130.01 806.18,-128.62 807.6,-135.47"/>
</a>
</g>
</g>
<!-- Node6&#45;&gt;Node3 -->
<g id="edge7_Node000006_Node000003" class="edge">
<title>Node6&#45;&gt;Node3</title>
<g id="a_edge7_Node000006_Node000003"><a xlink:title=" ">
<path fill="none" stroke="#63b8ff" d="M400.38,-111.59C395.31,-104.39 388.16,-94.23 381.97,-85.43"/>
<polygon fill="#63b8ff" stroke="#63b8ff" points="385.03,-83.7 376.41,-77.54 379.31,-87.73 385.03,-83.7"/>
</a>
</g>
</g>
<!-- Node6&#45;&gt;Node7 -->
<g id="edge8_Node000006_Node000007" class="edge">
<title>Node6&#45;&gt;Node7</title>
<g id="a_edge8_Node000006_Node000007"><a xlink:title=" ">
<path fill="none" stroke="#63b8ff" d="M374.08,-111.59C342.49,-102.57 294.64,-88.9 260.26,-79.07"/>
<polygon fill="#63b8ff" stroke="#63b8ff" points="261.63,-75.83 251.06,-76.44 259.71,-82.56 261.63,-75.83"/>
</a>
</g>
</g>
<!-- Node6&#45;&gt;Node8 -->
<g id="edge9_Node000006_Node000008" class="edge">
<title>Node6&#45;&gt;Node8</title>
<g id="a_edge9_Node000006_Node000008"><a xlink:title=" ">
<path fill="none" stroke="#63b8ff" d="M454.65,-113.3C457.48,-112.86 460.28,-112.42 463,-112 562.15,-96.67 679.72,-79.5 734.71,-71.52"/>
<polygon fill="#63b8ff" stroke="#63b8ff" points="734.88,-75.03 744.28,-70.14 733.88,-68.11 734.88,-75.03"/>
</a>
</g>
</g>
<!-- Node9&#45;&gt;Node3 -->
<g id="edge12_Node000009_Node000003" class="edge">
<title>Node9&#45;&gt;Node3</title>
<g id="a_edge12_Node000009_Node000003"><a xlink:title=" ">
<path fill="none" stroke="#63b8ff" d="M731.31,-113.49C728.5,-112.96 725.71,-112.45 723,-112 618.97,-94.53 496.72,-80.39 426.51,-72.88"/>
<polygon fill="#63b8ff" stroke="#63b8ff" points="427.1,-69.42 416.78,-71.85 426.36,-76.39 427.1,-69.42"/>
</a>
</g>
</g>
<!-- Node9&#45;&gt;Node8 -->
<g id="edge11_Node000009_Node000008" class="edge">
<title>Node9&#45;&gt;Node8</title>
<g id="a_edge11_Node000009_Node000008"><a xlink:title=" ">
<path fill="none" stroke="#63b8ff" d="M766,-111.59C766,-105.01 766,-95.96 766,-87.73"/>
<polygon fill="#63b8ff" stroke="#63b8ff" points="769.5,-87.81 766,-77.81 762.5,-87.81 769.5,-87.81"/>
</a>
</g>
</g>
</g>
</svg>
