<?xml version="1.0" encoding="UTF-8" standalone="no"?>
<!DOCTYPE svg PUBLIC "-//W3C//DTD SVG 1.1//EN"
 "http://www.w3.org/Graphics/SVG/1.1/DTD/svg11.dtd">
<!-- Generated by graphviz version 9.0.0 (0)
 -->
<!-- Title: Contact.h Pages: 1 -->
<svg width="2459pt" height="252pt"
 viewBox="0.00 0.00 2458.88 252.00" xmlns="http://www.w3.org/2000/svg" xmlns:xlink="http://www.w3.org/1999/xlink">
<g id="graph0" class="graph" transform="scale(1 1) rotate(0) translate(4 248)">
<title>Contact.h</title>
<!-- Node1 -->
<g id="Node000001" class="node">
<title>Node1</title>
<g id="a_Node000001"><a xlink:title=" ">
<polygon fill="#999999" stroke="#666666" points="1702.25,-244 1643.5,-244 1643.5,-224 1702.25,-224 1702.25,-244"/>
<text text-anchor="middle" x="1672.88" y="-230.5" font-family="Helvetica,sans-Serif" font-size="10.00">Contact.h</text>
</a>
</g>
</g>
<!-- Node2 -->
<g id="Node000002" class="node">
<title>Node2</title>
<g id="a_Node000002"><a xlink:href="a00170.html" target="_top" xlink:title=" ">
<polygon fill="white" stroke="#666666" points="1104.5,-188 1065.25,-188 1065.25,-168 1104.5,-168 1104.5,-188"/>
<text text-anchor="middle" x="1084.88" y="-174.5" font-family="Helvetica,sans-Serif" font-size="10.00">Bot.h</text>
</a>
</g>
</g>
<!-- Node1&#45;&gt;Node2 -->
<g id="edge1_Node000001_Node000002" class="edge">
<title>Node1&#45;&gt;Node2</title>
<g id="a_edge1_Node000001_Node000002"><a xlink:title=" ">
<path fill="none" stroke="#63b8ff" d="M1632.17,-229.26C1516.55,-218.64 1189.12,-188.57 1104.85,-180.83"/>
<polygon fill="#63b8ff" stroke="#63b8ff" points="1631.53,-232.72 1641.81,-230.15 1632.17,-225.75 1631.53,-232.72"/>
</a>
</g>
</g>
<!-- Node21 -->
<g id="Node000021" class="node">
<title>Node21</title>
<g id="a_Node000021"><a xlink:href="a00380.html" target="_top" xlink:title=" ">
<polygon fill="white" stroke="#666666" points="2283.5,-76 2214.25,-76 2214.25,-56 2283.5,-56 2283.5,-76"/>
<text text-anchor="middle" x="2248.88" y="-62.5" font-family="Helvetica,sans-Serif" font-size="10.00">Contact.cpp</text>
</a>
</g>
</g>
<!-- Node1&#45;&gt;Node21 -->
<g id="edge34_Node000001_Node000021" class="edge">
<title>Node1&#45;&gt;Node21</title>
<g id="a_edge34_Node000001_Node000021"><a xlink:title=" ">
<path fill="none" stroke="#63b8ff" d="M1697.16,-217.66C1721.34,-203 1759.94,-181.23 1795.88,-168 1815.84,-160.65 2111.32,-96.65 2214.02,-74.51"/>
<polygon fill="#63b8ff" stroke="#63b8ff" points="1695.4,-214.64 1688.71,-222.86 1699.07,-220.6 1695.4,-214.64"/>
</a>
</g>
</g>
<!-- Node22 -->
<g id="Node000022" class="node">
<title>Node22</title>
<g id="a_Node000022"><a xlink:href="a01476.html" target="_top" xlink:title=" ">
<polygon fill="white" stroke="#666666" points="1925,-188 1804.75,-188 1804.75,-168 1925,-168 1925,-188"/>
<text text-anchor="middle" x="1864.88" y="-174.5" font-family="Helvetica,sans-Serif" font-size="10.00">ForwardedMessage.cpp</text>
</a>
</g>
</g>
<!-- Node1&#45;&gt;Node22 -->
<g id="edge35_Node000001_Node000022" class="edge">
<title>Node1&#45;&gt;Node22</title>
<g id="a_edge35_Node000001_Node000022"><a xlink:title=" ">
<path fill="none" stroke="#63b8ff" d="M1713.27,-221.64C1748.34,-211.78 1798.51,-197.66 1831.39,-188.42"/>
<polygon fill="#63b8ff" stroke="#63b8ff" points="1712.59,-218.19 1703.91,-224.27 1714.49,-224.93 1712.59,-218.19"/>
</a>
</g>
</g>
<!-- Node23 -->
<g id="Node000023" class="node">
<title>Node23</title>
<g id="a_Node000023"><a xlink:href="a00071.html" target="_top" xlink:title=" ">
<polygon fill="white" stroke="#666666" points="498.5,-132 447.25,-132 447.25,-112 498.5,-112 498.5,-132"/>
<text text-anchor="middle" x="472.88" y="-118.5" font-family="Helvetica,sans-Serif" font-size="10.00">Friend.h</text>
</a>
</g>
</g>
<!-- Node1&#45;&gt;Node23 -->
<g id="edge36_Node000001_Node000023" class="edge">
<title>Node1&#45;&gt;Node23</title>
<g id="a_edge36_Node000001_Node000023"><a xlink:title=" ">
<path fill="none" stroke="#63b8ff" d="M1631.91,-227.59C1539.59,-215.53 1308.19,-186.11 1113.88,-168 875.34,-145.77 585.93,-129.17 498.86,-124.4"/>
<polygon fill="#63b8ff" stroke="#63b8ff" points="1631.36,-231.04 1641.73,-228.87 1632.27,-224.1 1631.36,-231.04"/>
</a>
</g>
</g>
<!-- Node25 -->
<g id="Node000025" class="node">
<title>Node25</title>
<g id="a_Node000025"><a xlink:href="a00056.html" target="_top" xlink:title=" ">
<polygon fill="white" stroke="#666666" points="1607.12,-132 1556.62,-132 1556.62,-112 1607.12,-112 1607.12,-132"/>
<text text-anchor="middle" x="1581.88" y="-118.5" font-family="Helvetica,sans-Serif" font-size="10.00">Group.h</text>
</a>
</g>
</g>
<!-- Node1&#45;&gt;Node25 -->
<g id="edge44_Node000001_Node000025" class="edge">
<title>Node1&#45;&gt;Node25</title>
<g id="a_edge44_Node000001_Node000025"><a xlink:title=" ">
<path fill="none" stroke="#63b8ff" d="M1657.9,-214.9C1638.31,-191.22 1604.71,-150.6 1589.61,-132.35"/>
<polygon fill="#63b8ff" stroke="#63b8ff" points="1655.08,-216.98 1664.15,-222.46 1660.47,-212.52 1655.08,-216.98"/>
</a>
</g>
</g>
<!-- Node28 -->
<g id="Node000028" class="node">
<title>Node28</title>
<g id="a_Node000028"><a xlink:href="a00065.html" target="_top" xlink:title=" ">
<polygon fill="white" stroke="#666666" points="1748.62,-132 1689.12,-132 1689.12,-112 1748.62,-112 1748.62,-132"/>
<text text-anchor="middle" x="1718.88" y="-118.5" font-family="Helvetica,sans-Serif" font-size="10.00">Member.h</text>
</a>
</g>
</g>
<!-- Node1&#45;&gt;Node28 -->
<g id="edge58_Node000001_Node000028" class="edge">
<title>Node1&#45;&gt;Node28</title>
<g id="a_edge58_Node000001_Node000028"><a xlink:title=" ">
<path fill="none" stroke="#63b8ff" d="M1681.11,-213.3C1691.1,-189.43 1707.5,-150.2 1714.96,-132.35"/>
<polygon fill="#63b8ff" stroke="#63b8ff" points="1678.01,-211.65 1677.38,-222.23 1684.47,-214.35 1678.01,-211.65"/>
</a>
</g>
</g>
<!-- Node3 -->
<g id="Node000003" class="node">
<title>Node3</title>
<g id="a_Node000003"><a xlink:href="a00407.html" target="_top" xlink:title=" ">
<polygon fill="white" stroke="#666666" points="49.75,-76 0,-76 0,-56 49.75,-56 49.75,-76"/>
<text text-anchor="middle" x="24.88" y="-62.5" font-family="Helvetica,sans-Serif" font-size="10.00">Bot.cpp</text>
</a>
</g>
</g>
<!-- Node2&#45;&gt;Node3 -->
<g id="edge2_Node000002_Node000003" class="edge">
<title>Node2&#45;&gt;Node3</title>
<g id="a_edge2_Node000002_Node000003"><a xlink:title=" ">
<path fill="none" stroke="#63b8ff" d="M1053.54,-175.68C959.86,-171.55 673.83,-157.6 437.88,-132 268.6,-113.63 225.66,-110.28 58.88,-76 56,-75.41 53.01,-74.72 50.05,-74"/>
<polygon fill="#63b8ff" stroke="#63b8ff" points="1053.32,-179.17 1063.46,-176.11 1053.62,-172.18 1053.32,-179.17"/>
</a>
</g>
</g>
<!-- Node4 -->
<g id="Node000004" class="node">
<title>Node4</title>
<g id="a_Node000004"><a xlink:href="a00164.html" target="_top" xlink:title=" ">
<polygon fill="white" stroke="#666666" points="1117.25,-132 1052.5,-132 1052.5,-112 1117.25,-112 1117.25,-132"/>
<text text-anchor="middle" x="1084.88" y="-118.5" font-family="Helvetica,sans-Serif" font-size="10.00">BotEvent.h</text>
</a>
</g>
</g>
<!-- Node2&#45;&gt;Node4 -->
<g id="edge3_Node000002_Node000004" class="edge">
<title>Node2&#45;&gt;Node4</title>
<g id="a_edge3_Node000002_Node000004"><a xlink:title=" ">
<path fill="none" stroke="#63b8ff" d="M1084.88,-156.13C1084.88,-147.9 1084.88,-138.85 1084.88,-132.3"/>
<polygon fill="#63b8ff" stroke="#63b8ff" points="1081.38,-156.08 1084.88,-166.08 1088.38,-156.08 1081.38,-156.08"/>
</a>
</g>
</g>
<!-- Node5 -->
<g id="Node000005" class="node">
<title>Node5</title>
<g id="a_Node000005"><a xlink:href="a00152.html" target="_top" xlink:title=" ">
<polygon fill="white" stroke="#666666" points="1139.38,-76 1030.38,-76 1030.38,-56 1139.38,-56 1139.38,-76"/>
<text text-anchor="middle" x="1084.88" y="-62.5" font-family="Helvetica,sans-Serif" font-size="10.00">BotJoinGroupEvent.h</text>
</a>
</g>
</g>
<!-- Node4&#45;&gt;Node5 -->
<g id="edge4_Node000004_Node000005" class="edge">
<title>Node4&#45;&gt;Node5</title>
<g id="a_edge4_Node000004_Node000005"><a xlink:title=" ">
<path fill="none" stroke="#63b8ff" d="M1084.88,-100.13C1084.88,-91.9 1084.88,-82.85 1084.88,-76.3"/>
<polygon fill="#63b8ff" stroke="#63b8ff" points="1081.38,-100.08 1084.88,-110.08 1088.38,-100.08 1081.38,-100.08"/>
</a>
</g>
</g>
<!-- Node7 -->
<g id="Node000007" class="node">
<title>Node7</title>
<g id="a_Node000007"><a xlink:href="a00146.html" target="_top" xlink:title=" ">
<polygon fill="white" stroke="#666666" points="1248.38,-76 1157.38,-76 1157.38,-56 1248.38,-56 1248.38,-76"/>
<text text-anchor="middle" x="1202.88" y="-62.5" font-family="Helvetica,sans-Serif" font-size="10.00">BotLeaveEvent.h</text>
</a>
</g>
</g>
<!-- Node4&#45;&gt;Node7 -->
<g id="edge6_Node000004_Node000007" class="edge">
<title>Node4&#45;&gt;Node7</title>
<g id="a_edge6_Node000004_Node000007"><a xlink:title=" ">
<path fill="none" stroke="#63b8ff" d="M1115.74,-106.88C1136.67,-97.3 1163.78,-84.89 1182.16,-76.48"/>
<polygon fill="#63b8ff" stroke="#63b8ff" points="1114.44,-103.62 1106.81,-110.96 1117.35,-109.99 1114.44,-103.62"/>
</a>
</g>
</g>
<!-- Node8 -->
<g id="Node000008" class="node">
<title>Node8</title>
<g id="a_Node000008"><a xlink:href="a00143.html" target="_top" xlink:title=" ">
<polygon fill="white" stroke="#666666" points="916.12,-76 823.62,-76 823.62,-56 916.12,-56 916.12,-76"/>
<text text-anchor="middle" x="869.88" y="-62.5" font-family="Helvetica,sans-Serif" font-size="10.00">BotOnlineEvent.h</text>
</a>
</g>
</g>
<!-- Node4&#45;&gt;Node8 -->
<g id="edge8_Node000004_Node000008" class="edge">
<title>Node4&#45;&gt;Node8</title>
<g id="a_edge8_Node000004_Node000008"><a xlink:title=" ">
<path fill="none" stroke="#63b8ff" d="M1041.15,-110.02C1001.88,-100.16 944.84,-85.83 907.55,-76.46"/>
<polygon fill="#63b8ff" stroke="#63b8ff" points="1040.2,-113.39 1050.75,-112.43 1041.91,-106.6 1040.2,-113.39"/>
</a>
</g>
</g>
<!-- Node9 -->
<g id="Node000009" class="node">
<title>Node9</title>
<g id="a_Node000009"><a xlink:href="a00110.html" target="_top" xlink:title=" ">
<polygon fill="white" stroke="#666666" points="390.12,-76 285.62,-76 285.62,-56 390.12,-56 390.12,-76"/>
<text text-anchor="middle" x="337.88" y="-62.5" font-family="Helvetica,sans-Serif" font-size="10.00">FriendRecallEvent.h</text>
</a>
</g>
</g>
<!-- Node4&#45;&gt;Node9 -->
<g id="edge10_Node000004_Node000009" class="edge">
<title>Node4&#45;&gt;Node9</title>
<g id="a_edge10_Node000004_Node000009"><a xlink:title=" ">
<path fill="none" stroke="#63b8ff" d="M1040.82,-119.35C931.75,-114.99 640.53,-101.71 398.88,-76 396.11,-75.71 393.27,-75.38 390.41,-75.03"/>
<polygon fill="#63b8ff" stroke="#63b8ff" points="1040.66,-122.84 1050.79,-119.74 1040.93,-115.85 1040.66,-122.84"/>
</a>
</g>
</g>
<!-- Node10 -->
<g id="Node000010" class="node">
<title>Node10</title>
<g id="a_Node000010"><a xlink:href="a00134.html" target="_top" xlink:title=" ">
<polygon fill="white" stroke="#666666" points="653.88,-76 553.88,-76 553.88,-56 653.88,-56 653.88,-76"/>
<text text-anchor="middle" x="603.88" y="-62.5" font-family="Helvetica,sans-Serif" font-size="10.00">GroupInviteEvent.h</text>
</a>
</g>
</g>
<!-- Node4&#45;&gt;Node10 -->
<g id="edge12_Node000004_Node000010" class="edge">
<title>Node4&#45;&gt;Node10</title>
<g id="a_edge12_Node000004_Node000010"><a xlink:title=" ">
<path fill="none" stroke="#63b8ff" d="M1041.14,-116.99C964.43,-109.82 800.66,-93.85 662.88,-76 660,-75.63 657.04,-75.23 654.07,-74.81"/>
<polygon fill="#63b8ff" stroke="#63b8ff" points="1040.47,-120.44 1050.75,-117.89 1041.11,-113.48 1040.47,-120.44"/>
</a>
</g>
</g>
<!-- Node11 -->
<g id="Node000011" class="node">
<title>Node11</title>
<g id="a_Node000011"><a xlink:href="a00119.html" target="_top" xlink:title=" ">
<polygon fill="white" stroke="#666666" points="1630.75,-76 1515,-76 1515,-56 1630.75,-56 1630.75,-76"/>
<text text-anchor="middle" x="1572.88" y="-62.5" font-family="Helvetica,sans-Serif" font-size="10.00">GroupMessageEvent.h</text>
</a>
</g>
</g>
<!-- Node4&#45;&gt;Node11 -->
<g id="edge14_Node000004_Node000011" class="edge">
<title>Node4&#45;&gt;Node11</title>
<g id="a_edge14_Node000004_Node000011"><a xlink:title=" ">
<path fill="none" stroke="#63b8ff" d="M1128.76,-116.7C1205.37,-109.12 1368.43,-92.57 1505.88,-76 1508.79,-75.65 1511.77,-75.28 1514.78,-74.9"/>
<polygon fill="#63b8ff" stroke="#63b8ff" points="1128.78,-113.19 1119.17,-117.65 1129.46,-120.15 1128.78,-113.19"/>
</a>
</g>
</g>
<!-- Node12 -->
<g id="Node000012" class="node">
<title>Node12</title>
<g id="a_Node000012"><a xlink:href="a00122.html" target="_top" xlink:title=" ">
<polygon fill="white" stroke="#666666" points="1788.75,-76 1649,-76 1649,-56 1788.75,-56 1788.75,-76"/>
<text text-anchor="middle" x="1718.88" y="-62.5" font-family="Helvetica,sans-Serif" font-size="10.00">GroupTempMessageEvent.h</text>
</a>
</g>
</g>
<!-- Node4&#45;&gt;Node12 -->
<g id="edge16_Node000004_Node000012" class="edge">
<title>Node4&#45;&gt;Node12</title>
<g id="a_edge16_Node000004_Node000012"><a xlink:title=" ">
<path fill="none" stroke="#63b8ff" d="M1129.08,-117.91C1223.13,-111.22 1450.03,-94.51 1639.88,-76 1642.76,-75.72 1645.7,-75.42 1648.68,-75.12"/>
<polygon fill="#63b8ff" stroke="#63b8ff" points="1128.99,-114.4 1119.26,-118.6 1129.48,-121.39 1128.99,-114.4"/>
</a>
</g>
</g>
<!-- Node13 -->
<g id="Node000013" class="node">
<title>Node13</title>
<g id="a_Node000013"><a xlink:href="a00155.html" target="_top" xlink:title=" ">
<polygon fill="white" stroke="#666666" points="1909.38,-76 1806.38,-76 1806.38,-56 1909.38,-56 1909.38,-76"/>
<text text-anchor="middle" x="1857.88" y="-62.5" font-family="Helvetica,sans-Serif" font-size="10.00">MemberJoinEvent.h</text>
</a>
</g>
</g>
<!-- Node4&#45;&gt;Node13 -->
<g id="edge18_Node000004_Node000013" class="edge">
<title>Node4&#45;&gt;Node13</title>
<g id="a_edge18_Node000004_Node000013"><a xlink:title=" ">
<path fill="none" stroke="#63b8ff" d="M1129.13,-119.53C1241.27,-115.51 1545.6,-102.83 1797.88,-76 1800.49,-75.72 1803.17,-75.41 1805.88,-75.08"/>
<polygon fill="#63b8ff" stroke="#63b8ff" points="1129.03,-116.03 1119.16,-119.88 1129.28,-123.03 1129.03,-116.03"/>
</a>
</g>
</g>
<!-- Node14 -->
<g id="Node000014" class="node">
<title>Node14</title>
<g id="a_Node000014"><a xlink:href="a00137.html" target="_top" xlink:title=" ">
<polygon fill="white" stroke="#666666" points="2066.75,-76 1927,-76 1927,-56 2066.75,-56 2066.75,-76"/>
<text text-anchor="middle" x="1996.88" y="-62.5" font-family="Helvetica,sans-Serif" font-size="10.00">MemberJoinRequestEvent.h</text>
</a>
</g>
</g>
<!-- Node4&#45;&gt;Node14 -->
<g id="edge20_Node000004_Node000014" class="edge">
<title>Node4&#45;&gt;Node14</title>
<g id="a_edge20_Node000004_Node000014"><a xlink:title=" ">
<path fill="none" stroke="#63b8ff" d="M1128.77,-119.58C1252.93,-115.34 1617.24,-101.52 1918.88,-76 1921.46,-75.78 1924.08,-75.55 1926.74,-75.3"/>
<polygon fill="#63b8ff" stroke="#63b8ff" points="1128.9,-116.07 1119.02,-119.9 1129.14,-123.06 1128.9,-116.07"/>
</a>
</g>
</g>
<!-- Node15 -->
<g id="Node000015" class="node">
<title>Node15</title>
<g id="a_Node000015"><a xlink:href="a00161.html" target="_top" xlink:title=" ">
<polygon fill="white" stroke="#666666" points="2196.5,-76 2085.25,-76 2085.25,-56 2196.5,-56 2196.5,-76"/>
<text text-anchor="middle" x="2140.88" y="-62.5" font-family="Helvetica,sans-Serif" font-size="10.00">MemberLeaveEvent.h</text>
</a>
</g>
</g>
<!-- Node4&#45;&gt;Node15 -->
<g id="edge22_Node000004_Node000015" class="edge">
<title>Node4&#45;&gt;Node15</title>
<g id="a_edge22_Node000004_Node000015"><a xlink:title=" ">
<path fill="none" stroke="#63b8ff" d="M1128.84,-120.45C1267.95,-118.39 1710.91,-109.48 2075.88,-76 2078.82,-75.73 2081.85,-75.42 2084.89,-75.09"/>
<polygon fill="#63b8ff" stroke="#63b8ff" points="1128.92,-116.95 1118.97,-120.59 1129.02,-123.95 1128.92,-116.95"/>
</a>
</g>
</g>
<!-- Node16 -->
<g id="Node000016" class="node">
<title>Node16</title>
<g id="a_Node000016"><a xlink:href="a00128.html" target="_top" xlink:title=" ">
<polygon fill="white" stroke="#666666" points="1379.25,-76 1266.5,-76 1266.5,-56 1379.25,-56 1379.25,-76"/>
<text text-anchor="middle" x="1322.88" y="-62.5" font-family="Helvetica,sans-Serif" font-size="10.00">MemberRecallEvent.h</text>
</a>
</g>
</g>
<!-- Node4&#45;&gt;Node16 -->
<g id="edge24_Node000004_Node000016" class="edge">
<title>Node4&#45;&gt;Node16</title>
<g id="a_edge24_Node000004_Node000016"><a xlink:title=" ">
<path fill="none" stroke="#63b8ff" d="M1128.54,-111.09C1172.02,-101.23 1238.27,-86.2 1281.08,-76.48"/>
<polygon fill="#63b8ff" stroke="#63b8ff" points="1127.92,-107.64 1118.94,-113.27 1129.47,-114.47 1127.92,-107.64"/>
</a>
</g>
</g>
<!-- Node17 -->
<g id="Node000017" class="node">
<title>Node17</title>
<g id="a_Node000017"><a xlink:href="a00116.html" target="_top" xlink:title=" ">
<polygon fill="white" stroke="#666666" points="535.38,-76 408.38,-76 408.38,-56 535.38,-56 535.38,-76"/>
<text text-anchor="middle" x="471.88" y="-62.5" font-family="Helvetica,sans-Serif" font-size="10.00">MessagePreSendEvent.h</text>
</a>
</g>
</g>
<!-- Node4&#45;&gt;Node17 -->
<g id="edge26_Node000004_Node000017" class="edge">
<title>Node4&#45;&gt;Node17</title>
<g id="a_edge26_Node000004_Node000017"><a xlink:title=" ">
<path fill="none" stroke="#63b8ff" d="M1040.91,-117.93C948.8,-111.36 728.88,-95 544.88,-76 541.83,-75.69 538.71,-75.35 535.56,-75"/>
<polygon fill="#63b8ff" stroke="#63b8ff" points="1040.54,-121.41 1050.76,-118.63 1041.03,-114.43 1040.54,-121.41"/>
</a>
</g>
</g>
<!-- Node18 -->
<g id="Node000018" class="node">
<title>Node18</title>
<g id="a_Node000018"><a xlink:href="a00113.html" target="_top" xlink:title=" ">
<polygon fill="white" stroke="#666666" points="805.75,-76 672,-76 672,-56 805.75,-56 805.75,-76"/>
<text text-anchor="middle" x="738.88" y="-62.5" font-family="Helvetica,sans-Serif" font-size="10.00">NewFriendRequestEvent.h</text>
</a>
</g>
</g>
<!-- Node4&#45;&gt;Node18 -->
<g id="edge28_Node000004_Node000018" class="edge">
<title>Node4&#45;&gt;Node18</title>
<g id="a_edge28_Node000004_Node000018"><a xlink:title=" ">
<path fill="none" stroke="#63b8ff" d="M1040.82,-114.12C979.57,-104.57 868.48,-87.23 799.47,-76.46"/>
<polygon fill="#63b8ff" stroke="#63b8ff" points="1040.1,-117.55 1050.52,-115.64 1041.18,-110.64 1040.1,-117.55"/>
</a>
</g>
</g>
<!-- Node19 -->
<g id="Node000019" class="node">
<title>Node19</title>
<g id="a_Node000019"><a xlink:href="a00125.html" target="_top" xlink:title=" ">
<polygon fill="white" stroke="#666666" points="1012,-76 933.75,-76 933.75,-56 1012,-56 1012,-76"/>
<text text-anchor="middle" x="972.88" y="-62.5" font-family="Helvetica,sans-Serif" font-size="10.00">NudgeEvent.h</text>
</a>
</g>
</g>
<!-- Node4&#45;&gt;Node19 -->
<g id="edge30_Node000004_Node000019" class="edge">
<title>Node4&#45;&gt;Node19</title>
<g id="a_edge30_Node000004_Node000019"><a xlink:title=" ">
<path fill="none" stroke="#63b8ff" d="M1055.04,-106.61C1035.24,-97.07 1009.82,-84.81 992.54,-76.48"/>
<polygon fill="#63b8ff" stroke="#63b8ff" points="1053.47,-109.75 1064,-110.94 1056.52,-103.44 1053.47,-109.75"/>
</a>
</g>
</g>
<!-- Node20 -->
<g id="Node000020" class="node">
<title>Node20</title>
<g id="a_Node000020"><a xlink:href="a00140.html" target="_top" xlink:title=" ">
<polygon fill="white" stroke="#666666" points="268,-76 147.75,-76 147.75,-56 268,-56 268,-76"/>
<text text-anchor="middle" x="207.88" y="-62.5" font-family="Helvetica,sans-Serif" font-size="10.00">PrivateMessageEvent.h</text>
</a>
</g>
</g>
<!-- Node4&#45;&gt;Node20 -->
<g id="edge32_Node000004_Node000020" class="edge">
<title>Node4&#45;&gt;Node20</title>
<g id="a_edge32_Node000004_Node000020"><a xlink:title=" ">
<path fill="none" stroke="#63b8ff" d="M1040.7,-119.69C918.82,-115.83 567.61,-103.02 276.88,-76 274.11,-75.74 271.28,-75.46 268.43,-75.16"/>
<polygon fill="#63b8ff" stroke="#63b8ff" points="1040.48,-123.18 1050.59,-120 1040.7,-116.19 1040.48,-123.18"/>
</a>
</g>
</g>
<!-- Node6 -->
<g id="Node000006" class="node">
<title>Node6</title>
<g id="a_Node000006"><a xlink:href="a00353.html" target="_top" xlink:title=" ">
<polygon fill="white" stroke="#666666" points="1115,-20 1054.75,-20 1054.75,0 1115,0 1115,-20"/>
<text text-anchor="middle" x="1084.88" y="-6.5" font-family="Helvetica,sans-Serif" font-size="10.00">Event.cpp</text>
</a>
</g>
</g>
<!-- Node5&#45;&gt;Node6 -->
<g id="edge5_Node000005_Node000006" class="edge">
<title>Node5&#45;&gt;Node6</title>
<g id="a_edge5_Node000005_Node000006"><a xlink:title=" ">
<path fill="none" stroke="#63b8ff" d="M1084.88,-44.13C1084.88,-35.9 1084.88,-26.85 1084.88,-20.3"/>
<polygon fill="#63b8ff" stroke="#63b8ff" points="1081.38,-44.08 1084.88,-54.08 1088.38,-44.08 1081.38,-44.08"/>
</a>
</g>
</g>
<!-- Node7&#45;&gt;Node6 -->
<g id="edge7_Node000007_Node000006" class="edge">
<title>Node7&#45;&gt;Node6</title>
<g id="a_edge7_Node000007_Node000006"><a xlink:title=" ">
<path fill="none" stroke="#63b8ff" d="M1172.01,-50.88C1151.08,-41.3 1123.97,-28.89 1105.59,-20.48"/>
<polygon fill="#63b8ff" stroke="#63b8ff" points="1170.4,-53.99 1180.94,-54.96 1173.31,-47.62 1170.4,-53.99"/>
</a>
</g>
</g>
<!-- Node8&#45;&gt;Node6 -->
<g id="edge9_Node000008_Node000006" class="edge">
<title>Node8&#45;&gt;Node6</title>
<g id="a_edge9_Node000008_Node000006"><a xlink:title=" ">
<path fill="none" stroke="#63b8ff" d="M918.34,-52.83C960.08,-42.34 1019.03,-27.54 1054.45,-18.64"/>
<polygon fill="#63b8ff" stroke="#63b8ff" points="917.64,-49.39 908.79,-55.23 919.34,-56.18 917.64,-49.39"/>
</a>
</g>
</g>
<!-- Node9&#45;&gt;Node6 -->
<g id="edge11_Node000009_Node000006" class="edge">
<title>Node9&#45;&gt;Node6</title>
<g id="a_edge11_Node000009_Node000006"><a xlink:title=" ">
<path fill="none" stroke="#63b8ff" d="M401.53,-55.8C660.01,-28.76 959.34,-15.79 1054.37,-12.12"/>
<polygon fill="#63b8ff" stroke="#63b8ff" points="401.5,-52.28 391.92,-56.81 402.23,-59.24 401.5,-52.28"/>
</a>
</g>
</g>
<!-- Node10&#45;&gt;Node6 -->
<g id="edge13_Node000010_Node000006" class="edge">
<title>Node10&#45;&gt;Node6</title>
<g id="a_edge13_Node000010_Node000006"><a xlink:title=" ">
<path fill="none" stroke="#63b8ff" d="M665.46,-55.72C817.71,-36.23 986.52,-20.05 1054.37,-13.78"/>
<polygon fill="#63b8ff" stroke="#63b8ff" points="665.04,-52.24 655.57,-56.99 665.93,-59.19 665.04,-52.24"/>
</a>
</g>
</g>
<!-- Node11&#45;&gt;Node6 -->
<g id="edge15_Node000011_Node000006" class="edge">
<title>Node11&#45;&gt;Node6</title>
<g id="a_edge15_Node000011_Node000006"><a xlink:title=" ">
<path fill="none" stroke="#63b8ff" d="M1503.39,-55.73C1351.25,-37.53 1182.93,-20.62 1115.29,-13.97"/>
<polygon fill="#63b8ff" stroke="#63b8ff" points="1502.93,-59.2 1513.28,-56.92 1503.77,-52.25 1502.93,-59.2"/>
</a>
</g>
</g>
<!-- Node12&#45;&gt;Node6 -->
<g id="edge17_Node000012_Node000006" class="edge">
<title>Node12&#45;&gt;Node6</title>
<g id="a_edge17_Node000012_Node000006"><a xlink:title=" ">
<path fill="none" stroke="#63b8ff" d="M1637.34,-55.78C1431.33,-35.89 1197.51,-18.91 1115.29,-13.12"/>
<polygon fill="#63b8ff" stroke="#63b8ff" points="1636.88,-59.25 1647.17,-56.74 1637.55,-52.29 1636.88,-59.25"/>
</a>
</g>
</g>
<!-- Node13&#45;&gt;Node6 -->
<g id="edge19_Node000013_Node000006" class="edge">
<title>Node13&#45;&gt;Node6</title>
<g id="a_edge19_Node000013_Node000006"><a xlink:title=" ">
<path fill="none" stroke="#63b8ff" d="M1794.71,-55.74C1525.52,-27.62 1212.43,-15.33 1115.18,-11.98"/>
<polygon fill="#63b8ff" stroke="#63b8ff" points="1794.06,-59.19 1804.37,-56.76 1794.79,-52.23 1794.06,-59.19"/>
</a>
</g>
</g>
<!-- Node14&#45;&gt;Node6 -->
<g id="edge21_Node000014_Node000006" class="edge">
<title>Node14&#45;&gt;Node6</title>
<g id="a_edge21_Node000014_Node000006"><a xlink:title=" ">
<path fill="none" stroke="#63b8ff" d="M1915.41,-55.75C1596.44,-29.15 1222.82,-15.54 1115.22,-11.97"/>
<polygon fill="#63b8ff" stroke="#63b8ff" points="1914.97,-59.23 1925.23,-56.58 1915.56,-52.25 1914.97,-59.23"/>
</a>
</g>
</g>
<!-- Node15&#45;&gt;Node6 -->
<g id="edge23_Node000015_Node000006" class="edge">
<title>Node15&#45;&gt;Node6</title>
<g id="a_edge23_Node000015_Node000006"><a xlink:title=" ">
<path fill="none" stroke="#63b8ff" d="M2073.54,-55.88C1689.16,-21.18 1235.64,-13 1115.36,-11.36"/>
<polygon fill="#63b8ff" stroke="#63b8ff" points="2073.11,-59.36 2083.39,-56.78 2073.74,-52.38 2073.11,-59.36"/>
</a>
</g>
</g>
<!-- Node16&#45;&gt;Node6 -->
<g id="edge25_Node000016_Node000006" class="edge">
<title>Node16&#45;&gt;Node6</title>
<g id="a_edge25_Node000016_Node000006"><a xlink:title=" ">
<path fill="none" stroke="#63b8ff" d="M1270.13,-53.03C1222.54,-42.24 1154.21,-26.73 1115.22,-17.88"/>
<polygon fill="#63b8ff" stroke="#63b8ff" points="1269.14,-56.4 1279.67,-55.2 1270.69,-49.57 1269.14,-56.4"/>
</a>
</g>
</g>
<!-- Node17&#45;&gt;Node6 -->
<g id="edge27_Node000017_Node000006" class="edge">
<title>Node17&#45;&gt;Node6</title>
<g id="a_edge27_Node000017_Node000006"><a xlink:title=" ">
<path fill="none" stroke="#63b8ff" d="M546.89,-55.83C747.19,-35.37 973.62,-18.81 1054.39,-13.12"/>
<polygon fill="#63b8ff" stroke="#63b8ff" points="546.65,-52.34 537.07,-56.84 547.37,-59.3 546.65,-52.34"/>
</a>
</g>
</g>
<!-- Node18&#45;&gt;Node6 -->
<g id="edge29_Node000018_Node000006" class="edge">
<title>Node18&#45;&gt;Node6</title>
<g id="a_edge29_Node000018_Node000006"><a xlink:title=" ">
<path fill="none" stroke="#63b8ff" d="M810.81,-53.77C886.08,-42.03 1000.67,-24.14 1054.69,-15.71"/>
<polygon fill="#63b8ff" stroke="#63b8ff" points="810.38,-50.3 801.03,-55.3 811.46,-57.21 810.38,-50.3"/>
</a>
</g>
</g>
<!-- Node19&#45;&gt;Node6 -->
<g id="edge31_Node000019_Node000006" class="edge">
<title>Node19&#45;&gt;Node6</title>
<g id="a_edge31_Node000019_Node000006"><a xlink:title=" ">
<path fill="none" stroke="#63b8ff" d="M1002.71,-50.61C1022.51,-41.07 1047.93,-28.81 1065.21,-20.48"/>
<polygon fill="#63b8ff" stroke="#63b8ff" points="1001.23,-47.44 993.75,-54.94 1004.28,-53.75 1001.23,-47.44"/>
</a>
</g>
</g>
<!-- Node20&#45;&gt;Node6 -->
<g id="edge33_Node000020_Node000006" class="edge">
<title>Node20&#45;&gt;Node6</title>
<g id="a_edge33_Node000020_Node000006"><a xlink:title=" ">
<path fill="none" stroke="#63b8ff" d="M279.84,-55.79C588.34,-27.58 948.69,-15.12 1054.36,-11.88"/>
<polygon fill="#63b8ff" stroke="#63b8ff" points="279.57,-52.3 269.94,-56.7 280.22,-59.27 279.57,-52.3"/>
</a>
</g>
</g>
<!-- Node23&#45;&gt;Node3 -->
<g id="edge37_Node000023_Node000003" class="edge">
<title>Node23&#45;&gt;Node3</title>
<g id="a_edge37_Node000023_Node000003"><a xlink:title=" ">
<path fill="none" stroke="#63b8ff" d="M435.73,-118.84C362.94,-114.2 196.58,-101.56 58.88,-76 55.99,-75.47 53,-74.81 50.03,-74.11"/>
<polygon fill="#63b8ff" stroke="#63b8ff" points="435.29,-122.32 445.49,-119.45 435.73,-115.34 435.29,-122.32"/>
</a>
</g>
</g>
<!-- Node23&#45;&gt;Node9 -->
<g id="edge40_Node000023_Node000009" class="edge">
<title>Node23&#45;&gt;Node9</title>
<g id="a_edge40_Node000023_Node000009"><a xlink:title=" ">
<path fill="none" stroke="#63b8ff" d="M438.88,-107.4C414.76,-97.75 382.99,-85.05 361.57,-76.48"/>
<polygon fill="#63b8ff" stroke="#63b8ff" points="437.37,-110.57 447.95,-111.03 439.97,-104.07 437.37,-110.57"/>
</a>
</g>
</g>
<!-- Node23&#45;&gt;Node10 -->
<g id="edge41_Node000023_Node000010" class="edge">
<title>Node23&#45;&gt;Node10</title>
<g id="a_edge41_Node000023_Node000010"><a xlink:title=" ">
<path fill="none" stroke="#63b8ff" d="M506.18,-107.27C529.55,-97.64 560.19,-85.01 580.88,-76.48"/>
<polygon fill="#63b8ff" stroke="#63b8ff" points="505,-103.97 497.09,-111.02 507.67,-110.44 505,-103.97"/>
</a>
</g>
</g>
<!-- Node23&#45;&gt;Node18 -->
<g id="edge42_Node000023_Node000018" class="edge">
<title>Node23&#45;&gt;Node18</title>
<g id="a_edge42_Node000023_Node000018"><a xlink:title=" ">
<path fill="none" stroke="#63b8ff" d="M509.9,-113.48C557.58,-103.8 640.46,-86.98 692.35,-76.45"/>
<polygon fill="#63b8ff" stroke="#63b8ff" points="509.45,-110 500.35,-115.42 510.84,-116.86 509.45,-110"/>
</a>
</g>
</g>
<!-- Node23&#45;&gt;Node20 -->
<g id="edge43_Node000023_Node000020" class="edge">
<title>Node23&#45;&gt;Node20</title>
<g id="a_edge43_Node000023_Node000020"><a xlink:title=" ">
<path fill="none" stroke="#63b8ff" d="M435.99,-113.48C388.49,-103.8 305.92,-86.98 254.23,-76.45"/>
<polygon fill="#63b8ff" stroke="#63b8ff" points="435,-116.85 445.5,-115.42 436.4,-110 435,-116.85"/>
</a>
</g>
</g>
<!-- Node23&#45;&gt;Node21 -->
<g id="edge38_Node000023_Node000021" class="edge">
<title>Node23&#45;&gt;Node21</title>
<g id="a_edge38_Node000023_Node000021"><a xlink:title=" ">
<path fill="none" stroke="#63b8ff" d="M510.11,-120.44C746.36,-116.81 2032.24,-96.26 2205.88,-76 2208.45,-75.7 2211.1,-75.32 2213.76,-74.89"/>
<polygon fill="#63b8ff" stroke="#63b8ff" points="510.21,-116.93 500.27,-120.59 510.32,-123.93 510.21,-116.93"/>
</a>
</g>
</g>
<!-- Node24 -->
<g id="Node000024" class="node">
<title>Node24</title>
<g id="a_Node000024"><a xlink:href="a00344.html" target="_top" xlink:title=" ">
<polygon fill="white" stroke="#666666" points="129.75,-76 68,-76 68,-56 129.75,-56 129.75,-76"/>
<text text-anchor="middle" x="98.88" y="-62.5" font-family="Helvetica,sans-Serif" font-size="10.00">Friend.cpp</text>
</a>
</g>
</g>
<!-- Node23&#45;&gt;Node24 -->
<g id="edge39_Node000023_Node000024" class="edge">
<title>Node23&#45;&gt;Node24</title>
<g id="a_edge39_Node000023_Node000024"><a xlink:title=" ">
<path fill="none" stroke="#63b8ff" d="M435.65,-117.06C373.79,-110.27 246,-95.23 138.88,-76 135.93,-75.47 132.88,-74.87 129.83,-74.25"/>
<polygon fill="#63b8ff" stroke="#63b8ff" points="434.95,-120.5 445.26,-118.11 435.7,-113.55 434.95,-120.5"/>
</a>
</g>
</g>
<!-- Node25&#45;&gt;Node3 -->
<g id="edge45_Node000025_Node000003" class="edge">
<title>Node25&#45;&gt;Node3</title>
<g id="a_edge45_Node000025_Node000003"><a xlink:title=" ">
<path fill="none" stroke="#63b8ff" d="M1544.75,-120.14C1318.72,-114.9 134.62,-87 58.88,-76 55.97,-75.58 52.97,-75 49.99,-74.34"/>
<polygon fill="#63b8ff" stroke="#63b8ff" points="1544.65,-123.64 1554.73,-120.37 1544.81,-116.64 1544.65,-123.64"/>
</a>
</g>
</g>
<!-- Node25&#45;&gt;Node5 -->
<g id="edge46_Node000025_Node000005" class="edge">
<title>Node25&#45;&gt;Node5</title>
<g id="a_edge46_Node000025_Node000005"><a xlink:title=" ">
<path fill="none" stroke="#63b8ff" d="M1545.37,-117.66C1470.79,-110.72 1295.57,-93.93 1148.88,-76 1145.87,-75.63 1142.78,-75.24 1139.67,-74.84"/>
<polygon fill="#63b8ff" stroke="#63b8ff" points="1544.67,-121.11 1554.95,-118.54 1545.32,-114.14 1544.67,-121.11"/>
</a>
</g>
</g>
<!-- Node25&#45;&gt;Node7 -->
<g id="edge47_Node000025_Node000007" class="edge">
<title>Node25&#45;&gt;Node7</title>
<g id="a_edge47_Node000025_Node000007"><a xlink:title=" ">
<path fill="none" stroke="#63b8ff" d="M1545.06,-116.18C1484.91,-108.24 1361.84,-91.72 1257.88,-76 1254.91,-75.55 1251.86,-75.08 1248.78,-74.6"/>
<polygon fill="#63b8ff" stroke="#63b8ff" points="1544.35,-119.62 1554.72,-117.45 1545.27,-112.68 1544.35,-119.62"/>
</a>
</g>
</g>
<!-- Node25&#45;&gt;Node10 -->
<g id="edge50_Node000025_Node000010" class="edge">
<title>Node25&#45;&gt;Node10</title>
<g id="a_edge50_Node000025_Node000010"><a xlink:title=" ">
<path fill="none" stroke="#63b8ff" d="M1544.74,-120.55C1419.94,-118.73 1004.35,-110.31 662.88,-76 660.09,-75.72 657.24,-75.4 654.36,-75.05"/>
<polygon fill="#63b8ff" stroke="#63b8ff" points="1544.66,-124.04 1554.71,-120.68 1544.76,-117.05 1544.66,-124.04"/>
</a>
</g>
</g>
<!-- Node25&#45;&gt;Node11 -->
<g id="edge51_Node000025_Node000011" class="edge">
<title>Node25&#45;&gt;Node11</title>
<g id="a_edge51_Node000025_Node000011"><a xlink:title=" ">
<path fill="none" stroke="#63b8ff" d="M1578.45,-100.43C1577.06,-92.11 1575.53,-82.93 1574.42,-76.3"/>
<polygon fill="#63b8ff" stroke="#63b8ff" points="1574.96,-100.81 1580.06,-110.1 1581.87,-99.66 1574.96,-100.81"/>
</a>
</g>
</g>
<!-- Node25&#45;&gt;Node12 -->
<g id="edge52_Node000025_Node000012" class="edge">
<title>Node25&#45;&gt;Node12</title>
<g id="a_edge52_Node000025_Node000012"><a xlink:title=" ">
<path fill="none" stroke="#63b8ff" d="M1616.37,-107.4C1640.85,-97.75 1673.09,-85.05 1694.83,-76.48"/>
<polygon fill="#63b8ff" stroke="#63b8ff" points="1615.17,-104.12 1607.15,-111.04 1617.73,-110.63 1615.17,-104.12"/>
</a>
</g>
</g>
<!-- Node25&#45;&gt;Node13 -->
<g id="edge53_Node000025_Node000013" class="edge">
<title>Node25&#45;&gt;Node13</title>
<g id="a_edge53_Node000025_Node000013"><a xlink:title=" ">
<path fill="none" stroke="#63b8ff" d="M1618.38,-113.86C1667.49,-104.25 1754.94,-87.14 1809.48,-76.47"/>
<polygon fill="#63b8ff" stroke="#63b8ff" points="1617.97,-110.37 1608.83,-115.73 1619.32,-117.24 1617.97,-110.37"/>
</a>
</g>
</g>
<!-- Node25&#45;&gt;Node14 -->
<g id="edge54_Node000025_Node000014" class="edge">
<title>Node25&#45;&gt;Node14</title>
<g id="a_edge54_Node000025_Node000014"><a xlink:title=" ">
<path fill="none" stroke="#63b8ff" d="M1618.67,-116.21C1687.74,-107.22 1837.86,-87.69 1926.8,-76.12"/>
<polygon fill="#63b8ff" stroke="#63b8ff" points="1618.49,-112.71 1609.02,-117.47 1619.39,-119.65 1618.49,-112.71"/>
</a>
</g>
</g>
<!-- Node25&#45;&gt;Node15 -->
<g id="edge55_Node000025_Node000015" class="edge">
<title>Node25&#45;&gt;Node15</title>
<g id="a_edge55_Node000025_Node000015"><a xlink:title=" ">
<path fill="none" stroke="#63b8ff" d="M1618.66,-117.61C1637.05,-115.92 1659.64,-113.85 1679.88,-112 1855.87,-95.92 1900.3,-96.12 2075.88,-76 2078.82,-75.66 2081.83,-75.3 2084.88,-74.92"/>
<polygon fill="#63b8ff" stroke="#63b8ff" points="1618.4,-114.12 1608.76,-118.52 1619.04,-121.09 1618.4,-114.12"/>
</a>
</g>
</g>
<!-- Node25&#45;&gt;Node18 -->
<g id="edge57_Node000025_Node000018" class="edge">
<title>Node25&#45;&gt;Node18</title>
<g id="a_edge57_Node000025_Node000018"><a xlink:title=" ">
<path fill="none" stroke="#63b8ff" d="M1544.85,-119.61C1433.99,-115.27 1095.03,-100.78 814.88,-76 811.96,-75.74 808.99,-75.46 805.99,-75.17"/>
<polygon fill="#63b8ff" stroke="#63b8ff" points="1544.7,-123.1 1554.83,-119.99 1544.98,-116.11 1544.7,-123.1"/>
</a>
</g>
</g>
<!-- Node25&#45;&gt;Node21 -->
<g id="edge48_Node000025_Node000021" class="edge">
<title>Node25&#45;&gt;Node21</title>
<g id="a_edge48_Node000025_Node000021"><a xlink:title=" ">
<path fill="none" stroke="#63b8ff" d="M1618.65,-117.42C1637.03,-115.68 1659.62,-113.62 1679.88,-112 1913.45,-93.28 1973.76,-108.08 2205.88,-76 2208.59,-75.62 2211.4,-75.18 2214.21,-74.68"/>
<polygon fill="#63b8ff" stroke="#63b8ff" points="1618.37,-113.93 1608.75,-118.36 1619.04,-120.9 1618.37,-113.93"/>
</a>
</g>
</g>
<!-- Node26 -->
<g id="Node000026" class="node">
<title>Node26</title>
<g id="a_Node000026"><a xlink:href="a01482.html" target="_top" xlink:title=" ">
<polygon fill="white" stroke="#666666" points="2362.38,-76 2301.38,-76 2301.38,-56 2362.38,-56 2362.38,-76"/>
<text text-anchor="middle" x="2331.88" y="-62.5" font-family="Helvetica,sans-Serif" font-size="10.00">Group.cpp</text>
</a>
</g>
</g>
<!-- Node25&#45;&gt;Node26 -->
<g id="edge49_Node000025_Node000026" class="edge">
<title>Node25&#45;&gt;Node26</title>
<g id="a_edge49_Node000025_Node000026"><a xlink:title=" ">
<path fill="none" stroke="#63b8ff" d="M1618.64,-117.33C1637.02,-115.58 1659.61,-113.53 1679.88,-112 1952.02,-91.52 2022.74,-114.82 2292.88,-76 2295.49,-75.62 2298.19,-75.16 2300.88,-74.65"/>
<polygon fill="#63b8ff" stroke="#63b8ff" points="1618.36,-113.85 1608.74,-118.29 1619.03,-120.81 1618.36,-113.85"/>
</a>
</g>
</g>
<!-- Node27 -->
<g id="Node000027" class="node">
<title>Node27</title>
<g id="a_Node000027"><a xlink:href="a00365.html" target="_top" xlink:title=" ">
<polygon fill="white" stroke="#666666" points="1496.88,-76 1396.88,-76 1396.88,-56 1496.88,-56 1496.88,-76"/>
<text text-anchor="middle" x="1446.88" y="-62.5" font-family="Helvetica,sans-Serif" font-size="10.00">MessageChain.cpp</text>
</a>
</g>
</g>
<!-- Node25&#45;&gt;Node27 -->
<g id="edge56_Node000025_Node000027" class="edge">
<title>Node25&#45;&gt;Node27</title>
<g id="a_edge56_Node000025_Node000027"><a xlink:title=" ">
<path fill="none" stroke="#63b8ff" d="M1547.88,-107.4C1523.76,-97.75 1491.99,-85.05 1470.57,-76.48"/>
<polygon fill="#63b8ff" stroke="#63b8ff" points="1546.37,-110.57 1556.95,-111.03 1548.97,-104.07 1546.37,-110.57"/>
</a>
</g>
</g>
<!-- Node28&#45;&gt;Node5 -->
<g id="edge59_Node000028_Node000005" class="edge">
<title>Node28&#45;&gt;Node5</title>
<g id="a_edge59_Node000028_Node000005"><a xlink:title=" ">
<path fill="none" stroke="#63b8ff" d="M1677.25,-117.27C1658.5,-115.61 1636.08,-113.66 1615.88,-112 1408.4,-94.94 1355.83,-98.51 1148.88,-76 1145.86,-75.67 1142.77,-75.31 1139.66,-74.93"/>
<polygon fill="#63b8ff" stroke="#63b8ff" points="1676.91,-120.75 1687.18,-118.15 1677.53,-113.78 1676.91,-120.75"/>
</a>
</g>
</g>
<!-- Node28&#45;&gt;Node7 -->
<g id="edge60_Node000028_Node000007" class="edge">
<title>Node28&#45;&gt;Node7</title>
<g id="a_edge60_Node000028_Node000007"><a xlink:title=" ">
<path fill="none" stroke="#63b8ff" d="M1677.19,-117.28C1579.62,-108.52 1338.54,-86.53 1257.88,-76 1254.9,-75.61 1251.84,-75.19 1248.76,-74.74"/>
<polygon fill="#63b8ff" stroke="#63b8ff" points="1676.85,-120.76 1687.13,-118.17 1677.48,-113.79 1676.85,-120.76"/>
</a>
</g>
</g>
<!-- Node28&#45;&gt;Node11 -->
<g id="edge63_Node000028_Node000011" class="edge">
<title>Node28&#45;&gt;Node11</title>
<g id="a_edge63_Node000028_Node000011"><a xlink:title=" ">
<path fill="none" stroke="#63b8ff" d="M1682.81,-107.66C1656.64,-97.98 1621.87,-85.12 1598.5,-76.48"/>
<polygon fill="#63b8ff" stroke="#63b8ff" points="1681.43,-110.88 1692.02,-111.07 1683.86,-104.32 1681.43,-110.88"/>
</a>
</g>
</g>
<!-- Node28&#45;&gt;Node12 -->
<g id="edge64_Node000028_Node000012" class="edge">
<title>Node28&#45;&gt;Node12</title>
<g id="a_edge64_Node000028_Node000012"><a xlink:title=" ">
<path fill="none" stroke="#63b8ff" d="M1718.88,-100.13C1718.88,-91.9 1718.88,-82.85 1718.88,-76.3"/>
<polygon fill="#63b8ff" stroke="#63b8ff" points="1715.38,-100.08 1718.88,-110.08 1722.38,-100.08 1715.38,-100.08"/>
</a>
</g>
</g>
<!-- Node28&#45;&gt;Node13 -->
<g id="edge66_Node000028_Node000013" class="edge">
<title>Node28&#45;&gt;Node13</title>
<g id="a_edge66_Node000028_Node000013"><a xlink:title=" ">
<path fill="none" stroke="#63b8ff" d="M1753.54,-107.53C1778.42,-97.87 1811.32,-85.08 1833.47,-76.48"/>
<polygon fill="#63b8ff" stroke="#63b8ff" points="1752.55,-104.16 1744.5,-111.05 1755.09,-110.69 1752.55,-104.16"/>
</a>
</g>
</g>
<!-- Node28&#45;&gt;Node14 -->
<g id="edge67_Node000028_Node000014" class="edge">
<title>Node28&#45;&gt;Node14</title>
<g id="a_edge67_Node000028_Node000014"><a xlink:title=" ">
<path fill="none" stroke="#63b8ff" d="M1759.83,-112.61C1760.85,-112.4 1761.87,-112.2 1762.88,-112 1826.18,-99.44 1899.22,-85.48 1946.63,-76.49"/>
<polygon fill="#63b8ff" stroke="#63b8ff" points="1759.28,-109.15 1750.17,-114.55 1760.67,-116.01 1759.28,-109.15"/>
</a>
</g>
</g>
<!-- Node28&#45;&gt;Node15 -->
<g id="edge68_Node000028_Node000015" class="edge">
<title>Node28&#45;&gt;Node15</title>
<g id="a_edge68_Node000028_Node000015"><a xlink:title=" ">
<path fill="none" stroke="#63b8ff" d="M1760.34,-112.41C1761.19,-112.27 1762.04,-112.13 1762.88,-112 1901.16,-89.95 1936.96,-93.6 2075.88,-76 2078.81,-75.63 2081.83,-75.24 2084.87,-74.84"/>
<polygon fill="#63b8ff" stroke="#63b8ff" points="1759.81,-108.95 1750.6,-114.18 1761.06,-115.84 1759.81,-108.95"/>
</a>
</g>
</g>
<!-- Node28&#45;&gt;Node16 -->
<g id="edge69_Node000028_Node000016" class="edge">
<title>Node28&#45;&gt;Node16</title>
<g id="a_edge69_Node000028_Node000016"><a xlink:title=" ">
<path fill="none" stroke="#63b8ff" d="M1677.4,-115.39C1614.7,-106.91 1492.05,-90.29 1387.88,-76 1385.17,-75.63 1382.39,-75.25 1379.59,-74.86"/>
<polygon fill="#63b8ff" stroke="#63b8ff" points="1676.87,-118.86 1687.25,-116.73 1677.81,-111.92 1676.87,-118.86"/>
</a>
</g>
</g>
<!-- Node28&#45;&gt;Node21 -->
<g id="edge61_Node000028_Node000021" class="edge">
<title>Node28&#45;&gt;Node21</title>
<g id="a_edge61_Node000028_Node000021"><a xlink:title=" ">
<path fill="none" stroke="#63b8ff" d="M1760.33,-112.38C1761.19,-112.25 1762.04,-112.12 1762.88,-112 1958.44,-84.16 2010.37,-104.29 2205.88,-76 2208.59,-75.61 2211.4,-75.15 2214.21,-74.64"/>
<polygon fill="#63b8ff" stroke="#63b8ff" points="1759.84,-108.91 1750.58,-114.06 1761.03,-115.81 1759.84,-108.91"/>
</a>
</g>
</g>
<!-- Node28&#45;&gt;Node26 -->
<g id="edge62_Node000028_Node000026" class="edge">
<title>Node28&#45;&gt;Node26</title>
<g id="a_edge62_Node000028_Node000026"><a xlink:title=" ">
<path fill="none" stroke="#63b8ff" d="M1760.28,-119.86C1855.06,-116.8 2094.86,-106.44 2292.88,-76 2295.48,-75.6 2298.18,-75.12 2300.88,-74.59"/>
<polygon fill="#63b8ff" stroke="#63b8ff" points="1760.33,-116.36 1750.45,-120.17 1760.55,-123.36 1760.33,-116.36"/>
</a>
</g>
</g>
<!-- Node29 -->
<g id="Node000029" class="node">
<title>Node29</title>
<g id="a_Node000029"><a xlink:href="a01494.html" target="_top" xlink:title=" ">
<polygon fill="white" stroke="#666666" points="2450.88,-76 2380.88,-76 2380.88,-56 2450.88,-56 2450.88,-76"/>
<text text-anchor="middle" x="2415.88" y="-62.5" font-family="Helvetica,sans-Serif" font-size="10.00">Member.cpp</text>
</a>
</g>
</g>
<!-- Node28&#45;&gt;Node29 -->
<g id="edge65_Node000028_Node000029" class="edge">
<title>Node28&#45;&gt;Node29</title>
<g id="a_edge65_Node000028_Node000029"><a xlink:title=" ">
<path fill="none" stroke="#63b8ff" d="M1760.44,-120.05C1864.1,-117.27 2142.26,-107.25 2371.88,-76 2374.66,-75.62 2377.53,-75.17 2380.4,-74.68"/>
<polygon fill="#63b8ff" stroke="#63b8ff" points="1760.38,-116.55 1750.47,-120.31 1760.56,-123.55 1760.38,-116.55"/>
</a>
</g>
</g>
</g>
</svg>
