<?xml version="1.0" encoding="UTF-8" standalone="no"?>
<!DOCTYPE svg PUBLIC "-//W3C//DTD SVG 1.1//EN"
 "http://www.w3.org/Graphics/SVG/1.1/DTD/svg11.dtd">
<!-- Generated by graphviz version 2.50.0 (20211204.2007)
 -->
<!-- Title: PluginListManager.h Pages: 1 -->
<svg width="835pt" height="84pt"
 viewBox="0.00 0.00 835.00 84.00" xmlns="http://www.w3.org/2000/svg" xmlns:xlink="http://www.w3.org/1999/xlink">
<g id="graph0" class="graph" transform="scale(1 1) rotate(0) translate(4 80)">
<title>PluginListManager.h</title>
<polygon fill="white" stroke="transparent" points="-4,4 -4,-80 831,-80 831,4 -4,4"/>
<!-- Node1 -->
<g id="node1" class="node">
<title>Node1</title>
<g id="a_node1"><a xlink:title=" ">
<polygon fill="#bfbfbf" stroke="black" points="386,-56.5 386,-75.5 491,-75.5 491,-56.5 386,-56.5"/>
<text text-anchor="middle" x="438.5" y="-63.5" font-family="Helvetica,sans-Serif" font-size="10.00">PluginListManager.h</text>
</a>
</g>
</g>
<!-- Node2 -->
<g id="node2" class="node">
<title>Node2</title>
<g id="a_node2"><a xlink:href="a00221.html" target="_top" xlink:title=" ">
<polygon fill="white" stroke="black" points="0,-0.5 0,-19.5 115,-19.5 115,-0.5 0,-0.5"/>
<text text-anchor="middle" x="57.5" y="-7.5" font-family="Helvetica,sans-Serif" font-size="10.00">PlatformException.cpp</text>
</a>
</g>
</g>
<!-- Node1&#45;&gt;Node2 -->
<g id="edge1" class="edge">
<title>Node1&#45;&gt;Node2</title>
<path fill="none" stroke="midnightblue" d="M375.58,-56.08C303.17,-45.82 185.24,-29.11 115.14,-19.17"/>
<polygon fill="midnightblue" stroke="midnightblue" points="375.53,-59.61 385.92,-57.55 376.51,-52.68 375.53,-59.61"/>
</g>
<!-- Node3 -->
<g id="node3" class="node">
<title>Node3</title>
<g id="a_node3"><a xlink:href="a00224.html" target="_top" xlink:title=" ">
<polygon fill="white" stroke="black" points="133.5,-0.5 133.5,-19.5 195.5,-19.5 195.5,-0.5 133.5,-0.5"/>
<text text-anchor="middle" x="164.5" y="-7.5" font-family="Helvetica,sans-Serif" font-size="10.00">Plugin.cpp</text>
</a>
</g>
</g>
<!-- Node1&#45;&gt;Node3 -->
<g id="edge2" class="edge">
<title>Node1&#45;&gt;Node3</title>
<path fill="none" stroke="midnightblue" d="M381.72,-54.6C334.27,-45.78 264.87,-32.59 204.5,-20 201.71,-19.42 198.82,-18.8 195.92,-18.17"/>
<polygon fill="midnightblue" stroke="midnightblue" points="381.33,-58.08 391.8,-56.46 382.6,-51.2 381.33,-58.08"/>
</g>
<!-- Node4 -->
<g id="node4" class="node">
<title>Node4</title>
<g id="a_node4"><a xlink:href="a00227.html" target="_top" xlink:title=" ">
<polygon fill="white" stroke="black" points="213.5,-0.5 213.5,-19.5 329.5,-19.5 329.5,-0.5 213.5,-0.5"/>
<text text-anchor="middle" x="271.5" y="-7.5" font-family="Helvetica,sans-Serif" font-size="10.00">PluginListManager.cpp</text>
</a>
</g>
</g>
<!-- Node1&#45;&gt;Node4 -->
<g id="edge3" class="edge">
<title>Node1&#45;&gt;Node4</title>
<path fill="none" stroke="midnightblue" d="M402.33,-53.3C370.86,-43.13 326.01,-28.62 297.84,-19.52"/>
<polygon fill="midnightblue" stroke="midnightblue" points="401.45,-56.7 412.04,-56.44 403.6,-50.04 401.45,-56.7"/>
</g>
<!-- Node5 -->
<g id="node5" class="node">
<title>Node5</title>
<g id="a_node5"><a xlink:href="a00230.html" target="_top" xlink:title=" ">
<polygon fill="white" stroke="black" points="348,-0.5 348,-19.5 427,-19.5 427,-0.5 348,-0.5"/>
<text text-anchor="middle" x="387.5" y="-7.5" font-family="Helvetica,sans-Serif" font-size="10.00">Scheduler.cpp</text>
</a>
</g>
</g>
<!-- Node1&#45;&gt;Node5 -->
<g id="edge4" class="edge">
<title>Node1&#45;&gt;Node5</title>
<path fill="none" stroke="midnightblue" d="M423.12,-48.72C414.13,-39.2 403.14,-27.56 395.76,-19.75"/>
<polygon fill="midnightblue" stroke="midnightblue" points="420.67,-51.22 430.08,-56.08 425.76,-46.41 420.67,-51.22"/>
</g>
<!-- Node6 -->
<g id="node6" class="node">
<title>Node6</title>
<g id="a_node6"><a xlink:href="a00191.html" target="_top" xlink:title=" ">
<polygon fill="white" stroke="black" points="445.5,-0.5 445.5,-19.5 533.5,-19.5 533.5,-0.5 445.5,-0.5"/>
<text text-anchor="middle" x="489.5" y="-7.5" font-family="Helvetica,sans-Serif" font-size="10.00">eventHandle.cpp</text>
</a>
</g>
</g>
<!-- Node1&#45;&gt;Node6 -->
<g id="edge5" class="edge">
<title>Node1&#45;&gt;Node6</title>
<path fill="none" stroke="midnightblue" d="M453.88,-48.72C462.87,-39.2 473.86,-27.56 481.24,-19.75"/>
<polygon fill="midnightblue" stroke="midnightblue" points="451.24,-46.41 446.92,-56.08 456.33,-51.22 451.24,-46.41"/>
</g>
<!-- Node7 -->
<g id="node7" class="node">
<title>Node7</title>
<g id="a_node7"><a xlink:href="a00200.html" target="_top" xlink:title=" ">
<polygon fill="white" stroke="black" points="551.5,-0.5 551.5,-19.5 631.5,-19.5 631.5,-0.5 551.5,-0.5"/>
<text text-anchor="middle" x="591.5" y="-7.5" font-family="Helvetica,sans-Serif" font-size="10.00">ktInterface.cpp</text>
</a>
</g>
</g>
<!-- Node1&#45;&gt;Node7 -->
<g id="edge6" class="edge">
<title>Node1&#45;&gt;Node7</title>
<path fill="none" stroke="midnightblue" d="M472.39,-53.04C501.18,-42.88 541.79,-28.55 567.37,-19.52"/>
<polygon fill="midnightblue" stroke="midnightblue" points="471.01,-49.81 462.74,-56.44 473.34,-56.42 471.01,-49.81"/>
</g>
<!-- Node8 -->
<g id="node8" class="node">
<title>Node8</title>
<g id="a_node8"><a xlink:href="a01265.html" target="_top" xlink:title=" ">
<polygon fill="white" stroke="black" points="649.5,-0.5 649.5,-19.5 725.5,-19.5 725.5,-0.5 649.5,-0.5"/>
<text text-anchor="middle" x="687.5" y="-7.5" font-family="Helvetica,sans-Serif" font-size="10.00">loaderApi.cpp</text>
</a>
</g>
</g>
<!-- Node1&#45;&gt;Node8 -->
<g id="edge7" class="edge">
<title>Node1&#45;&gt;Node8</title>
<path fill="none" stroke="midnightblue" d="M488.02,-54.26C535.51,-43.96 606.22,-28.63 649.45,-19.25"/>
<polygon fill="midnightblue" stroke="midnightblue" points="486.99,-50.9 477.95,-56.44 488.47,-57.74 486.99,-50.9"/>
</g>
<!-- Node9 -->
<g id="node9" class="node">
<title>Node9</title>
<g id="a_node9"><a xlink:href="a00215.html" target="_top" xlink:title=" ">
<polygon fill="white" stroke="black" points="744,-0.5 744,-19.5 827,-19.5 827,-0.5 744,-0.5"/>
<text text-anchor="middle" x="785.5" y="-7.5" font-family="Helvetica,sans-Serif" font-size="10.00">loaderMain.cpp</text>
</a>
</g>
</g>
<!-- Node1&#45;&gt;Node9 -->
<g id="edge8" class="edge">
<title>Node1&#45;&gt;Node9</title>
<path fill="none" stroke="midnightblue" d="M501.29,-55.9C561.26,-47.1 654.13,-33.2 734.5,-20 737.52,-19.5 740.63,-18.98 743.77,-18.45"/>
<polygon fill="midnightblue" stroke="midnightblue" points="500.61,-52.46 491.23,-57.37 501.63,-59.38 500.61,-52.46"/>
</g>
</g>
</svg>
