<?xml version="1.0" encoding="UTF-8" standalone="no"?>
<!DOCTYPE svg PUBLIC "-//W3C//DTD SVG 1.1//EN"
 "http://www.w3.org/Graphics/SVG/1.1/DTD/svg11.dtd">
<!-- Generated by graphviz version 9.0.0 (0)
 -->
<!-- Title: func Pages: 1 -->
<svg width="2048pt" height="489pt"
 viewBox="0.00 0.00 2048.25 489.00" xmlns="http://www.w3.org/2000/svg" xmlns:xlink="http://www.w3.org/1999/xlink">
<g id="graph0" class="graph" transform="scale(1 1) rotate(0) translate(4 485)">
<title>func</title>
<!-- Node1 -->
<g id="Node000001" class="node">
<title>Node1</title>
<g id="a_Node000001"><a xlink:title=" ">
<polygon fill="#999999" stroke="#666666" points="2040.25,-180 2005.5,-180 2005.5,-160 2040.25,-160 2040.25,-180"/>
<text text-anchor="middle" x="2022.88" y="-166.5" font-family="Helvetica,sans-Serif" font-size="10.00">func</text>
</a>
</g>
</g>
<!-- Node2 -->
<g id="Node000002" class="node">
<title>Node2</title>
<g id="a_Node000002"><a xlink:href="a00419.html#ad89a78a5c9164f1e56e895c48ee1ec22" target="_top" xlink:title="提交一个任务到线程池，参数与构造 std::thread 以及 MiraiCPNewThread 用的参数相同。 任务在线程池可用时会被立刻执行。与 promiseTask 不同，不会给出任务返回值">
<polygon fill="white" stroke="#666666" points="1574.12,-320 1465.88,-320 1465.88,-288 1574.12,-288 1574.12,-320"/>
<text text-anchor="start" x="1473.88" y="-306.5" font-family="Helvetica,sans-Serif" font-size="10.00">MiraiCP::ThreadTask</text>
<text text-anchor="middle" x="1520" y="-294.5" font-family="Helvetica,sans-Serif" font-size="10.00">::addTask</text>
</a>
</g>
</g>
<!-- Node1&#45;&gt;Node2 -->
<g id="edge1_Node000001_Node000002" class="edge">
<title>Node1&#45;&gt;Node2</title>
<g id="a_edge1_Node000001_Node000002"><a xlink:title=" ">
<path fill="none" stroke="#63b8ff" d="M2019.9,-191.23C2015.93,-220.69 2004.12,-273.25 1969.5,-299 1850.31,-387.64 1659.73,-346.96 1570.33,-320.47"/>
<polygon fill="#63b8ff" stroke="#63b8ff" points="2023.33,-192 2021,-181.67 2016.38,-191.2 2023.33,-192"/>
</a>
</g>
</g>
<!-- Node3 -->
<g id="Node000003" class="node">
<title>Node3</title>
<g id="a_Node000003"><a xlink:href="a00652.html#a1b12e12453ebf790ba3f8bba7fb4003a" target="_top" xlink:title=" ">
<polygon fill="white" stroke="#666666" points="1953,-120 1830.5,-120 1830.5,-88 1953,-88 1953,-120"/>
<text text-anchor="start" x="1838.5" y="-106.5" font-family="Helvetica,sans-Serif" font-size="10.00">MiraiCP::MessageChain</text>
<text text-anchor="middle" x="1891.75" y="-94.5" font-family="Helvetica,sans-Serif" font-size="10.00">::filter</text>
</a>
</g>
</g>
<!-- Node1&#45;&gt;Node3 -->
<g id="edge2_Node000001_Node000003" class="edge">
<title>Node1&#45;&gt;Node3</title>
<g id="a_edge2_Node000001_Node000003"><a xlink:title=" ">
<path fill="none" stroke="#63b8ff" d="M1999.58,-153C1990.54,-146.56 1979.81,-139.46 1969.5,-134 1960.15,-129.04 1949.79,-124.44 1939.79,-120.41"/>
<polygon fill="#63b8ff" stroke="#63b8ff" points="1997.28,-155.65 2007.41,-158.74 2001.41,-150 1997.28,-155.65"/>
</a>
</g>
</g>
<!-- Node4 -->
<g id="Node000004" class="node">
<title>Node4</title>
<g id="a_Node000004"><a xlink:href="a00419.html#ab84de57ea7f15a70da47472adc87061a" target="_top" xlink:title="提交一个任务到线程池，参数与构造 std::thread 以及 MiraiCPNewThread 用的参数相同。 任务在线程池可用时会被立刻执行">
<polygon fill="white" stroke="#666666" points="1945.88,-70 1837.62,-70 1837.62,-38 1945.88,-38 1945.88,-70"/>
<text text-anchor="start" x="1845.62" y="-56.5" font-family="Helvetica,sans-Serif" font-size="10.00">MiraiCP::ThreadTask</text>
<text text-anchor="middle" x="1891.75" y="-44.5" font-family="Helvetica,sans-Serif" font-size="10.00">::promiseTask</text>
</a>
</g>
</g>
<!-- Node1&#45;&gt;Node4 -->
<g id="edge3_Node000001_Node000004" class="edge">
<title>Node1&#45;&gt;Node4</title>
<g id="a_edge3_Node000001_Node000004"><a xlink:title=" ">
<path fill="none" stroke="#63b8ff" d="M2014.81,-148.83C2006.88,-128.2 1992.1,-97.34 1969.5,-79 1962.64,-73.44 1954.52,-69.1 1946.15,-65.72"/>
<polygon fill="#63b8ff" stroke="#63b8ff" points="2011.5,-149.97 2018.18,-158.2 2018.09,-147.6 2011.5,-149.97"/>
</a>
</g>
</g>
<!-- Node5 -->
<g id="Node000005" class="node">
<title>Node5</title>
<g id="a_Node000005"><a xlink:href="a00420.html#ac0e1bc3b94e5ebafbad6fde1a0eb55fc" target="_top" xlink:title=" ">
<polygon fill="white" stroke="#666666" points="1758.12,-158 1649.88,-158 1649.88,-126 1758.12,-126 1758.12,-158"/>
<text text-anchor="start" x="1657.88" y="-144.5" font-family="Helvetica,sans-Serif" font-size="10.00">MiraiCP::ThreadTask</text>
<text text-anchor="middle" x="1704" y="-132.5" font-family="Helvetica,sans-Serif" font-size="10.00">::internal::push_task</text>
</a>
</g>
</g>
<!-- Node1&#45;&gt;Node5 -->
<g id="edge4_Node000001_Node000005" class="edge">
<title>Node1&#45;&gt;Node5</title>
<g id="a_edge4_Node000001_Node000005"><a xlink:title=" ">
<path fill="none" stroke="#63b8ff" d="M1993.85,-167.52C1941.12,-162.86 1826.32,-152.72 1758.4,-146.72"/>
<polygon fill="#63b8ff" stroke="#63b8ff" points="1993.51,-171.01 2003.78,-168.4 1994.12,-164.03 1993.51,-171.01"/>
</a>
</g>
</g>
<!-- Node6 -->
<g id="Node000006" class="node">
<title>Node6</title>
<g id="a_Node000006"><a xlink:href="a00426.html#a4dc4ecd3d86eb509647b3130a5239ecf" target="_top" xlink:title=" ">
<polygon fill="white" stroke="#666666" points="1945.5,-258 1838,-258 1838,-226 1945.5,-226 1945.5,-258"/>
<text text-anchor="start" x="1846" y="-244.5" font-family="Helvetica,sans-Serif" font-size="10.00">LibLoader::LoaderApi</text>
<text text-anchor="middle" x="1891.75" y="-232.5" font-family="Helvetica,sans-Serif" font-size="10.00">::pushTask</text>
</a>
</g>
</g>
<!-- Node1&#45;&gt;Node6 -->
<g id="edge5_Node000001_Node000006" class="edge">
<title>Node1&#45;&gt;Node6</title>
<g id="a_edge5_Node000001_Node000006"><a xlink:title=" ">
<path fill="none" stroke="#63b8ff" d="M2004.93,-188.56C1995.33,-198.16 1982.63,-209.43 1969.5,-217 1962.09,-221.27 1953.86,-224.93 1945.61,-228.02"/>
<polygon fill="#63b8ff" stroke="#63b8ff" points="2007.36,-191.09 2011.76,-181.45 2002.31,-186.24 2007.36,-191.09"/>
</a>
</g>
</g>
<!-- Node32 -->
<g id="Node000032" class="node">
<title>Node32</title>
<g id="a_Node000032"><a xlink:href="a00420.html#a1edad20e665438fe0258357bcee61978" target="_top" xlink:title=" ">
<polygon fill="white" stroke="#666666" points="1766.75,-308 1641.25,-308 1641.25,-276 1766.75,-276 1766.75,-308"/>
<text text-anchor="start" x="1649.25" y="-294.5" font-family="Helvetica,sans-Serif" font-size="10.00">MiraiCP::ThreadTask</text>
<text text-anchor="middle" x="1704" y="-282.5" font-family="Helvetica,sans-Serif" font-size="10.00">::internal::raw_push_task</text>
</a>
</g>
</g>
<!-- Node1&#45;&gt;Node32 -->
<g id="edge41_Node000001_Node000032" class="edge">
<title>Node1&#45;&gt;Node32</title>
<g id="a_edge41_Node000001_Node000032"><a xlink:title=" ">
<path fill="none" stroke="#63b8ff" d="M2016.74,-191.32C2010.03,-214.18 1995.87,-249.53 1969.5,-267 1909.51,-306.73 1824.41,-307.32 1767.09,-301.72"/>
<polygon fill="#63b8ff" stroke="#63b8ff" points="2020.07,-192.41 2019.28,-181.85 2013.31,-190.6 2020.07,-192.41"/>
</a>
</g>
</g>
<!-- Node33 -->
<g id="Node000033" class="node">
<title>Node33</title>
<g id="a_Node000033"><a xlink:href="a00426.html#ae86871d4f062f45edee7501e0596cd3d" target="_top" xlink:title=" ">
<polygon fill="white" stroke="#666666" points="1945.5,-208 1838,-208 1838,-176 1945.5,-176 1945.5,-208"/>
<text text-anchor="start" x="1846" y="-194.5" font-family="Helvetica,sans-Serif" font-size="10.00">LibLoader::LoaderApi</text>
<text text-anchor="middle" x="1891.75" y="-182.5" font-family="Helvetica,sans-Serif" font-size="10.00">::pushTaskWithId</text>
</a>
</g>
</g>
<!-- Node1&#45;&gt;Node33 -->
<g id="edge37_Node000001_Node000033" class="edge">
<title>Node1&#45;&gt;Node33</title>
<g id="a_edge37_Node000001_Node000033"><a xlink:title=" ">
<path fill="none" stroke="#63b8ff" d="M1993.91,-174.76C1979.86,-177.16 1962.36,-180.14 1945.88,-182.95"/>
<polygon fill="#63b8ff" stroke="#63b8ff" points="1994.5,-178.22 2003.77,-173.09 1993.32,-171.31 1994.5,-178.22"/>
</a>
</g>
</g>
<!-- Node35 -->
<g id="Node000035" class="node">
<title>Node35</title>
<g id="a_Node000035"><a xlink:href="a00484.html#aedef6da8603e38047a3de9006052568b" target="_top" xlink:title="返回true代表block之后的回调">
<polygon fill="white" stroke="#666666" points="1969.5,-20 1814,-20 1814,0 1969.5,0 1969.5,-20"/>
<text text-anchor="middle" x="1891.75" y="-6.5" font-family="Helvetica,sans-Serif" font-size="10.00">MiraiCP::Event::eventNode::run</text>
</a>
</g>
</g>
<!-- Node1&#45;&gt;Node35 -->
<g id="edge42_Node000001_Node000035" class="edge">
<title>Node1&#45;&gt;Node35</title>
<g id="a_edge42_Node000001_Node000035"><a xlink:title=" ">
<path fill="none" stroke="#63b8ff" d="M2020.05,-148.47C2016.23,-117.41 2004.59,-60.34 1969.5,-29 1965.71,-25.62 1961.42,-22.82 1956.84,-20.5"/>
<polygon fill="#63b8ff" stroke="#63b8ff" points="2016.54,-148.6 2021.06,-158.18 2023.51,-147.87 2016.54,-148.6"/>
</a>
</g>
</g>
<!-- Node7 -->
<g id="Node000007" class="node">
<title>Node7</title>
<g id="a_Node000007"><a xlink:href="a00431.html#ababc50641714b47061367e940ce3ceef" target="_top" xlink:title=" ">
<polygon fill="white" stroke="#666666" points="1772.75,-258 1635.25,-258 1635.25,-226 1772.75,-226 1772.75,-258"/>
<text text-anchor="start" x="1643.25" y="-244.5" font-family="Helvetica,sans-Serif" font-size="10.00">LibLoader::MessageHandler</text>
<text text-anchor="middle" x="1704" y="-232.5" font-family="Helvetica,sans-Serif" font-size="10.00">::push_task_message</text>
</a>
</g>
</g>
<!-- Node6&#45;&gt;Node7 -->
<g id="edge6_Node000006_Node000007" class="edge">
<title>Node6&#45;&gt;Node7</title>
<g id="a_edge6_Node000006_Node000007"><a xlink:title=" ">
<path fill="none" stroke="#63b8ff" d="M1826.45,-242C1809.24,-242 1790.58,-242 1773.17,-242"/>
<polygon fill="#63b8ff" stroke="#63b8ff" points="1826.01,-245.5 1836.01,-242 1826.01,-238.5 1826.01,-245.5"/>
</a>
</g>
</g>
<!-- Node6&#45;&gt;Node32 -->
<g id="edge35_Node000006_Node000032" class="edge">
<title>Node6&#45;&gt;Node32</title>
<g id="a_edge35_Node000006_Node000032"><a xlink:title=" ">
<path fill="none" stroke="#63b8ff" d="M1826.55,-259.28C1806.95,-264.56 1785.47,-270.34 1766.09,-275.55"/>
<polygon fill="#63b8ff" stroke="#63b8ff" points="1827.31,-262.7 1836.06,-256.72 1825.49,-255.94 1827.31,-262.7"/>
</a>
</g>
</g>
<!-- Node8 -->
<g id="Node000008" class="node">
<title>Node8</title>
<g id="a_Node000008"><a xlink:href="a00892.html#ac44a2bba9059176d3ccb04ed1eb065a3" target="_top" xlink:title=" ">
<polygon fill="white" stroke="#666666" points="1594,-245 1446,-245 1446,-213 1594,-213 1594,-245"/>
<text text-anchor="start" x="1454" y="-231.5" font-family="Helvetica,sans-Serif" font-size="10.00">LibLoader::MessageProcessor</text>
<text text-anchor="middle" x="1520" y="-219.5" font-family="Helvetica,sans-Serif" font-size="10.00">::registerDefaultHandlers</text>
</a>
</g>
</g>
<!-- Node7&#45;&gt;Node8 -->
<g id="edge7_Node000007_Node000008" class="edge">
<title>Node7&#45;&gt;Node8</title>
<g id="a_edge7_Node000007_Node000008"><a xlink:title=" ">
<path fill="none" stroke="#63b8ff" d="M1623.67,-236.33C1613.96,-235.64 1604.06,-234.93 1594.43,-234.25"/>
<polygon fill="#63b8ff" stroke="#63b8ff" points="1623.24,-239.81 1633.46,-237.03 1623.74,-232.83 1623.24,-239.81"/>
</a>
</g>
</g>
<!-- Node9 -->
<g id="Node000009" class="node">
<title>Node9</title>
<g id="a_Node000009"><a xlink:href="a00884.html#ac95c9bf6b208cbeab2e9b1cdfcb7c3d6" target="_top" xlink:title=" ">
<polygon fill="white" stroke="#666666" points="1410,-280 1268.75,-280 1268.75,-248 1410,-248 1410,-280"/>
<text text-anchor="start" x="1276.75" y="-266.5" font-family="Helvetica,sans-Serif" font-size="10.00">LibLoader::MessageManager</text>
<text text-anchor="middle" x="1339.38" y="-254.5" font-family="Helvetica,sans-Serif" font-size="10.00">::init</text>
</a>
</g>
</g>
<!-- Node8&#45;&gt;Node9 -->
<g id="edge8_Node000008_Node000009" class="edge">
<title>Node8&#45;&gt;Node9</title>
<g id="a_edge8_Node000008_Node000009"><a xlink:title=" ">
<path fill="none" stroke="#63b8ff" d="M1434.3,-245.6C1426.28,-247.17 1418.21,-248.75 1410.35,-250.29"/>
<polygon fill="#63b8ff" stroke="#63b8ff" points="1434.95,-249.04 1444.09,-243.68 1433.6,-242.17 1434.95,-249.04"/>
</a>
</g>
</g>
<!-- Node10 -->
<g id="Node000010" class="node">
<title>Node10</title>
<g id="a_Node000010"><a xlink:href="a00880.html#a79cbc18aabed7afe2c7ea30f989ffc8c" target="_top" xlink:title="LoaderMain实现开始">
<polygon fill="white" stroke="#666666" points="1232.75,-292 1118.5,-292 1118.5,-260 1232.75,-260 1232.75,-292"/>
<text text-anchor="start" x="1126.5" y="-278.5" font-family="Helvetica,sans-Serif" font-size="10.00">LibLoader::LoaderMain</text>
<text text-anchor="middle" x="1175.62" y="-266.5" font-family="Helvetica,sans-Serif" font-size="10.00">::loaderMain</text>
</a>
</g>
</g>
<!-- Node9&#45;&gt;Node10 -->
<g id="edge9_Node000009_Node000010" class="edge">
<title>Node9&#45;&gt;Node10</title>
<g id="a_edge9_Node000009_Node000010"><a xlink:title=" ">
<path fill="none" stroke="#63b8ff" d="M1256.98,-270.04C1248.91,-270.64 1240.84,-271.24 1233.11,-271.81"/>
<polygon fill="#63b8ff" stroke="#63b8ff" points="1257.15,-273.54 1266.86,-269.31 1256.63,-266.56 1257.15,-273.54"/>
</a>
</g>
</g>
<!-- Node11 -->
<g id="Node000011" class="node">
<title>Node11</title>
<g id="a_Node000011"><a xlink:href="a00880.html#a22eacbd6aa585f32d0fccce0a69ab642" target="_top" xlink:title=" ">
<polygon fill="white" stroke="#666666" points="1082.5,-368 948.75,-368 948.75,-348 1082.5,-348 1082.5,-368"/>
<text text-anchor="middle" x="1015.62" y="-354.5" font-family="Helvetica,sans-Serif" font-size="10.00">LibLoader::LoaderMain::get</text>
</a>
</g>
</g>
<!-- Node10&#45;&gt;Node11 -->
<g id="edge10_Node000010_Node000011" class="edge">
<title>Node10&#45;&gt;Node11</title>
<g id="a_edge10_Node000010_Node000011"><a xlink:title=" ">
<path fill="none" stroke="#63b8ff" d="M1132.91,-297.65C1101.83,-313.78 1060.75,-335.1 1036.66,-347.6"/>
<polygon fill="#63b8ff" stroke="#63b8ff" points="1134.42,-300.81 1141.69,-293.09 1131.2,-294.59 1134.42,-300.81"/>
</a>
</g>
</g>
<!-- Node30 -->
<g id="Node000030" class="node">
<title>Node30</title>
<g id="a_Node000030"><a xlink:href="a00314.html#aafbc26593c69471626589f38c751ef09" target="_top" xlink:title=" ">
<polygon fill="white" stroke="#666666" points="877.88,-425 818.38,-425 818.38,-405 877.88,-405 877.88,-425"/>
<text text-anchor="middle" x="848.12" y="-411.5" font-family="Helvetica,sans-Serif" font-size="10.00">VerifyImpl</text>
</a>
</g>
</g>
<!-- Node10&#45;&gt;Node30 -->
<g id="edge34_Node000010_Node000030" class="edge">
<title>Node10&#45;&gt;Node30</title>
<g id="a_edge34_Node000010_Node000030"><a xlink:title=" ">
<path fill="none" stroke="#63b8ff" d="M1158.53,-301.84C1142.36,-325.45 1115.19,-359.3 1082.5,-377 1016.08,-412.97 924.58,-416.86 878.36,-416.21"/>
<polygon fill="#63b8ff" stroke="#63b8ff" points="1161.33,-303.95 1163.94,-293.69 1155.5,-300.09 1161.33,-303.95"/>
</a>
</g>
</g>
<!-- Node12 -->
<g id="Node000012" class="node">
<title>Node12</title>
<g id="a_Node000012"><a xlink:href="a00425.html#a46f4ab12479d61956e7dc81cfb19fef5" target="_top" xlink:title=" ">
<polygon fill="white" stroke="#666666" points="912.75,-349 783.5,-349 783.5,-329 912.75,-329 912.75,-349"/>
<text text-anchor="middle" x="848.12" y="-335.5" font-family="Helvetica,sans-Serif" font-size="10.00">LibLoader::loaderWakeCV</text>
</a>
</g>
</g>
<!-- Node11&#45;&gt;Node12 -->
<g id="edge11_Node000011_Node000012" class="edge">
<title>Node11&#45;&gt;Node12</title>
<g id="a_edge11_Node000011_Node000012"><a xlink:title=" ">
<path fill="none" stroke="#63b8ff" d="M937.01,-349.09C929,-348.17 920.92,-347.24 913.08,-346.34"/>
<polygon fill="#63b8ff" stroke="#63b8ff" points="936.43,-352.55 946.76,-350.21 937.22,-345.59 936.43,-352.55"/>
</a>
</g>
</g>
<!-- Node20 -->
<g id="Node000020" class="node">
<title>Node20</title>
<g id="a_Node000020"><a xlink:href="a00314.html#a2e0217581c8df7fd1fc867cc3a8317d3" target="_top" xlink:title=" ">
<polygon fill="white" stroke="#666666" points="736.62,-443 641.88,-443 641.88,-423 736.62,-423 736.62,-443"/>
<text text-anchor="middle" x="689.25" y="-429.5" font-family="Helvetica,sans-Serif" font-size="10.00">PluginDisableImpl</text>
</a>
</g>
</g>
<!-- Node11&#45;&gt;Node20 -->
<g id="edge31_Node000011_Node000020" class="edge">
<title>Node11&#45;&gt;Node20</title>
<g id="a_edge31_Node000011_Node000020"><a xlink:title=" ">
<path fill="none" stroke="#63b8ff" d="M937.08,-364.86C891.55,-370.33 833.34,-379.85 783.5,-396 766.48,-401.51 764.03,-407.17 747.5,-414 740.14,-417.04 732.11,-419.95 724.45,-422.54"/>
<polygon fill="#63b8ff" stroke="#63b8ff" points="937.34,-368.36 946.87,-363.73 936.54,-361.4 937.34,-368.36"/>
</a>
</g>
</g>
<!-- Node11&#45;&gt;Node30 -->
<g id="edge32_Node000011_Node000030" class="edge">
<title>Node11&#45;&gt;Node30</title>
<g id="a_edge32_Node000011_Node000030"><a xlink:title=" ">
<path fill="none" stroke="#63b8ff" d="M973.43,-372.19C943.8,-382.39 904.57,-395.9 878.18,-404.99"/>
<polygon fill="#63b8ff" stroke="#63b8ff" points="974.52,-375.51 982.84,-368.95 972.24,-368.89 974.52,-375.51"/>
</a>
</g>
</g>
<!-- Node13 -->
<g id="Node000013" class="node">
<title>Node13</title>
<g id="a_Node000013"><a xlink:href="a00880.html#a9ca8ba2c9fcbfade9adf4a0a2bb47eaa" target="_top" xlink:title=" ">
<polygon fill="white" stroke="#666666" points="746.38,-267 632.12,-267 632.12,-235 746.38,-235 746.38,-267"/>
<text text-anchor="start" x="640.12" y="-253.5" font-family="Helvetica,sans-Serif" font-size="10.00">LibLoader::LoaderMain</text>
<text text-anchor="middle" x="689.25" y="-241.5" font-family="Helvetica,sans-Serif" font-size="10.00">::mainloop</text>
</a>
</g>
</g>
<!-- Node12&#45;&gt;Node13 -->
<g id="edge12_Node000012_Node000013" class="edge">
<title>Node12&#45;&gt;Node13</title>
<g id="a_edge12_Node000012_Node000013"><a xlink:title=" ">
<path fill="none" stroke="#63b8ff" d="M822.9,-322.22C803.1,-308.86 774.13,-290.13 747.5,-276 741.94,-273.05 735.97,-270.16 730.04,-267.44"/>
<polygon fill="#63b8ff" stroke="#63b8ff" points="820.87,-325.07 831.11,-327.81 824.82,-319.28 820.87,-325.07"/>
</a>
</g>
</g>
<!-- Node14 -->
<g id="Node000014" class="node">
<title>Node14</title>
<g id="a_Node000014"><a xlink:href="a00281.html#a36a04ab86ecc081ee51d32866ef7a332" target="_top" xlink:title=" ">
<polygon fill="white" stroke="#666666" points="739.62,-405 638.88,-405 638.88,-373 739.62,-373 739.62,-405"/>
<text text-anchor="start" x="646.88" y="-391.5" font-family="Helvetica,sans-Serif" font-size="10.00">plugin_raw_API_try</text>
<text text-anchor="middle" x="689.25" y="-379.5" font-family="Helvetica,sans-Serif" font-size="10.00">_wake_loader</text>
</a>
</g>
</g>
<!-- Node12&#45;&gt;Node14 -->
<g id="edge14_Node000012_Node000014" class="edge">
<title>Node12&#45;&gt;Node14</title>
<g id="a_edge14_Node000012_Node000014"><a xlink:title=" ">
<path fill="none" stroke="#63b8ff" d="M803.43,-352.93C783.76,-359.19 760.44,-366.63 740.1,-373.11"/>
<polygon fill="#63b8ff" stroke="#63b8ff" points="804.33,-356.31 812.8,-349.94 802.21,-349.64 804.33,-356.31"/>
</a>
</g>
</g>
<!-- Node12&#45;&gt;Node20 -->
<g id="edge20_Node000012_Node000020" class="edge">
<title>Node12&#45;&gt;Node20</title>
<g id="a_edge20_Node000012_Node000020"><a xlink:title=" ">
<path fill="none" stroke="#63b8ff" d="M798.29,-353.9C793.05,-356.5 788,-359.52 783.5,-363 761.55,-379.98 769.78,-397.47 747.5,-414 742.87,-417.43 737.59,-420.27 732.15,-422.6"/>
<polygon fill="#63b8ff" stroke="#63b8ff" points="799.41,-357.23 807.13,-349.98 796.57,-350.83 799.41,-357.23"/>
</a>
</g>
</g>
<!-- Node22 -->
<g id="Node000022" class="node">
<title>Node22</title>
<g id="a_Node000022"><a xlink:href="a00432.html#a746efd674de5c56de789a0c03be7948e" target="_top" xlink:title="新增一个计时器，对接libLoader API">
<polygon fill="white" stroke="#666666" points="743,-355 635.5,-355 635.5,-323 743,-323 743,-355"/>
<text text-anchor="start" x="643.5" y="-341.5" font-family="Helvetica,sans-Serif" font-size="10.00">LibLoader::Scheduler</text>
<text text-anchor="middle" x="689.25" y="-329.5" font-family="Helvetica,sans-Serif" font-size="10.00">::timer</text>
</a>
</g>
</g>
<!-- Node12&#45;&gt;Node22 -->
<g id="edge22_Node000012_Node000022" class="edge">
<title>Node12&#45;&gt;Node22</title>
<g id="a_edge22_Node000012_Node000022"><a xlink:title=" ">
<path fill="none" stroke="#63b8ff" d="M772.05,-339C762.4,-339 752.67,-339 743.47,-339"/>
<polygon fill="#63b8ff" stroke="#63b8ff" points="771.8,-342.5 781.8,-339 771.8,-335.5 771.8,-342.5"/>
</a>
</g>
</g>
<!-- Node27 -->
<g id="Node000027" class="node">
<title>Node27</title>
<g id="a_Node000027"><a xlink:href="a00425.html#a4bd4ee75c4f2ea14034626c7cbf73bb4" target="_top" xlink:title=" ">
<polygon fill="white" stroke="#666666" points="747.5,-305 631,-305 631,-285 747.5,-285 747.5,-305"/>
<text text-anchor="middle" x="689.25" y="-291.5" font-family="Helvetica,sans-Serif" font-size="10.00">LibLoader::wakeLoader</text>
</a>
</g>
</g>
<!-- Node12&#45;&gt;Node27 -->
<g id="edge28_Node000012_Node000027" class="edge">
<title>Node12&#45;&gt;Node27</title>
<g id="a_edge28_Node000012_Node000027"><a xlink:title=" ">
<path fill="none" stroke="#63b8ff" d="M799.02,-325.51C775.99,-319.05 748.85,-311.43 727.43,-305.43"/>
<polygon fill="#63b8ff" stroke="#63b8ff" points="797.92,-328.83 808.49,-328.16 799.81,-322.09 797.92,-328.83"/>
</a>
</g>
</g>
<!-- Node13&#45;&gt;Node10 -->
<g id="edge13_Node000013_Node000010" class="edge">
<title>Node13&#45;&gt;Node10</title>
<g id="a_edge13_Node000013_Node000010"><a xlink:title=" ">
<path fill="none" stroke="#63b8ff" d="M758.11,-254.5C854.3,-259.47 1028.54,-268.46 1118.11,-273.08"/>
<polygon fill="#63b8ff" stroke="#63b8ff" points="758.45,-251.02 748.29,-254 758.09,-258.01 758.45,-251.02"/>
</a>
</g>
</g>
<!-- Node15 -->
<g id="Node000015" class="node">
<title>Node15</title>
<g id="a_Node000015"><a xlink:href="a00916.html#a14895bee64bb1c12e16b97d038b699b7" target="_top" xlink:title="这部分是一些工具函数、对象">
<polygon fill="white" stroke="#666666" points="565.75,-405 468.75,-405 468.75,-373 565.75,-373 565.75,-405"/>
<text text-anchor="start" x="476.75" y="-391.5" font-family="Helvetica,sans-Serif" font-size="10.00">LibLoader::Plugin::</text>
<text text-anchor="middle" x="517.25" y="-379.5" font-family="Helvetica,sans-Serif" font-size="10.00">callEntrance</text>
</a>
</g>
</g>
<!-- Node14&#45;&gt;Node15 -->
<g id="edge15_Node000014_Node000015" class="edge">
<title>Node14&#45;&gt;Node15</title>
<g id="a_edge15_Node000014_Node000015"><a xlink:title=" ">
<path fill="none" stroke="#63b8ff" d="M627.37,-389C607.26,-389 585.18,-389 566.18,-389"/>
<polygon fill="#63b8ff" stroke="#63b8ff" points="627.11,-392.5 637.11,-389 627.11,-385.5 627.11,-392.5"/>
</a>
</g>
</g>
<!-- Node16 -->
<g id="Node000016" class="node">
<title>Node16</title>
<g id="a_Node000016"><a xlink:href="a00916.html#a450c1c6820ab6c5417691359d88d8220" target="_top" xlink:title=" ">
<polygon fill="white" stroke="#666666" points="383.25,-405 286.25,-405 286.25,-373 383.25,-373 383.25,-405"/>
<text text-anchor="start" x="294.25" y="-391.5" font-family="Helvetica,sans-Serif" font-size="10.00">LibLoader::Plugin::</text>
<text text-anchor="middle" x="334.75" y="-379.5" font-family="Helvetica,sans-Serif" font-size="10.00">enableInternal</text>
</a>
</g>
</g>
<!-- Node15&#45;&gt;Node16 -->
<g id="edge16_Node000015_Node000016" class="edge">
<title>Node15&#45;&gt;Node16</title>
<g id="a_edge16_Node000015_Node000016"><a xlink:title=" ">
<path fill="none" stroke="#63b8ff" d="M456.96,-389C433.15,-389 406.07,-389 383.56,-389"/>
<polygon fill="#63b8ff" stroke="#63b8ff" points="456.84,-392.5 466.84,-389 456.84,-385.5 456.84,-392.5"/>
</a>
</g>
</g>
<!-- Node17 -->
<g id="Node000017" class="node">
<title>Node17</title>
<g id="a_Node000017"><a xlink:href="a00916.html#a549e3729f8aeb27208ef5aecb434eef1" target="_top" xlink:title=" ">
<polygon fill="white" stroke="#666666" points="230,-402 133,-402 133,-370 230,-370 230,-402"/>
<text text-anchor="start" x="141" y="-388.5" font-family="Helvetica,sans-Serif" font-size="10.00">LibLoader::Plugin::</text>
<text text-anchor="middle" x="181.5" y="-376.5" font-family="Helvetica,sans-Serif" font-size="10.00">enablePlugin</text>
</a>
</g>
</g>
<!-- Node16&#45;&gt;Node17 -->
<g id="edge17_Node000016_Node000017" class="edge">
<title>Node16&#45;&gt;Node17</title>
<g id="a_edge17_Node000016_Node000017"><a xlink:title=" ">
<path fill="none" stroke="#63b8ff" d="M274.39,-387.82C259.77,-387.53 244.3,-387.23 230.3,-386.95"/>
<polygon fill="#63b8ff" stroke="#63b8ff" points="274.31,-391.32 284.38,-388.02 274.45,-384.32 274.31,-391.32"/>
</a>
</g>
</g>
<!-- Node18 -->
<g id="Node000018" class="node">
<title>Node18</title>
<g id="a_Node000018"><a xlink:href="a00916.html#a8636d0418d741a19bbd9183316cd5c59" target="_top" xlink:title=" ">
<polygon fill="white" stroke="#666666" points="230,-452 133,-452 133,-420 230,-420 230,-452"/>
<text text-anchor="start" x="141" y="-438.5" font-family="Helvetica,sans-Serif" font-size="10.00">LibLoader::Plugin::</text>
<text text-anchor="middle" x="181.5" y="-426.5" font-family="Helvetica,sans-Serif" font-size="10.00">loadInternal</text>
</a>
</g>
</g>
<!-- Node16&#45;&gt;Node18 -->
<g id="edge18_Node000016_Node000018" class="edge">
<title>Node16&#45;&gt;Node18</title>
<g id="a_edge18_Node000016_Node000018"><a xlink:title=" ">
<path fill="none" stroke="#63b8ff" d="M275.26,-407.17C260.39,-411.8 244.58,-416.71 230.3,-421.15"/>
<polygon fill="#63b8ff" stroke="#63b8ff" points="275.94,-410.63 284.45,-404.32 273.86,-403.95 275.94,-410.63"/>
</a>
</g>
</g>
<!-- Node19 -->
<g id="Node000019" class="node">
<title>Node19</title>
<g id="a_Node000019"><a xlink:href="a00916.html#a891ce42f23fe1312ef6cad2accf4ab92" target="_top" xlink:title=" ">
<polygon fill="white" stroke="#666666" points="97,-452 0,-452 0,-420 97,-420 97,-452"/>
<text text-anchor="start" x="8" y="-438.5" font-family="Helvetica,sans-Serif" font-size="10.00">LibLoader::Plugin::</text>
<text text-anchor="middle" x="48.5" y="-426.5" font-family="Helvetica,sans-Serif" font-size="10.00">loadPlugin</text>
</a>
</g>
</g>
<!-- Node18&#45;&gt;Node19 -->
<g id="edge19_Node000018_Node000019" class="edge">
<title>Node18&#45;&gt;Node19</title>
<g id="a_edge19_Node000018_Node000019"><a xlink:title=" ">
<path fill="none" stroke="#63b8ff" d="M121.53,-436C113.44,-436 105.21,-436 97.35,-436"/>
<polygon fill="#63b8ff" stroke="#63b8ff" points="121.32,-439.5 131.32,-436 121.32,-432.5 121.32,-439.5"/>
</a>
</g>
</g>
<!-- Node21 -->
<g id="Node000021" class="node">
<title>Node21</title>
<g id="a_Node000021"><a xlink:href="a00314.html#a054b75b2be22897678d22ce9a72d91df" target="_top" xlink:title=" ">
<polygon fill="white" stroke="#666666" points="555.25,-443 479.25,-443 479.25,-423 555.25,-423 555.25,-443"/>
<text text-anchor="middle" x="517.25" y="-429.5" font-family="Helvetica,sans-Serif" font-size="10.00">PluginDisable</text>
</a>
</g>
</g>
<!-- Node20&#45;&gt;Node21 -->
<g id="edge21_Node000020_Node000021" class="edge">
<title>Node20&#45;&gt;Node21</title>
<g id="a_edge21_Node000020_Node000021"><a xlink:title=" ">
<path fill="none" stroke="#63b8ff" d="M630.33,-433C605.58,-433 577.41,-433 555.5,-433"/>
<polygon fill="#63b8ff" stroke="#63b8ff" points="630.28,-436.5 640.28,-433 630.28,-429.5 630.28,-436.5"/>
</a>
</g>
</g>
<!-- Node23 -->
<g id="Node000023" class="node">
<title>Node23</title>
<g id="a_Node000023"><a xlink:href="a00426.html#a05f1524120bb7a5a65abbde063d9e557" target="_top" xlink:title=" ">
<polygon fill="white" stroke="#666666" points="571,-355 463.5,-355 463.5,-323 571,-323 571,-355"/>
<text text-anchor="start" x="471.5" y="-341.5" font-family="Helvetica,sans-Serif" font-size="10.00">LibLoader::LoaderApi</text>
<text text-anchor="middle" x="517.25" y="-329.5" font-family="Helvetica,sans-Serif" font-size="10.00">::timer</text>
</a>
</g>
</g>
<!-- Node22&#45;&gt;Node23 -->
<g id="edge23_Node000022_Node000023" class="edge">
<title>Node22&#45;&gt;Node23</title>
<g id="a_edge23_Node000022_Node000023"><a xlink:title=" ">
<path fill="none" stroke="#63b8ff" d="M624.17,-339C606.76,-339 588.1,-339 571.37,-339"/>
<polygon fill="#63b8ff" stroke="#63b8ff" points="623.88,-342.5 633.88,-339 623.88,-335.5 623.88,-342.5"/>
</a>
</g>
</g>
<!-- Node24 -->
<g id="Node000024" class="node">
<title>Node24</title>
<g id="a_Node000024"><a xlink:href="a00412.html#a0edd1fee858de73bb144b4f7832a573d" target="_top" xlink:title="定时任务, 在一定时间后广播**一次**TimeOutEvent">
<polygon fill="white" stroke="#666666" points="382.88,-349 286.62,-349 286.62,-329 382.88,-329 382.88,-349"/>
<text text-anchor="middle" x="334.75" y="-335.5" font-family="Helvetica,sans-Serif" font-size="10.00">MiraiCP::schedule</text>
</a>
</g>
</g>
<!-- Node23&#45;&gt;Node24 -->
<g id="edge24_Node000023_Node000024" class="edge">
<title>Node23&#45;&gt;Node24</title>
<g id="a_edge24_Node000023_Node000024"><a xlink:title=" ">
<path fill="none" stroke="#63b8ff" d="M451.85,-339C429.25,-339 404.3,-339 383.33,-339"/>
<polygon fill="#63b8ff" stroke="#63b8ff" points="451.56,-342.5 461.56,-339 451.56,-335.5 451.56,-342.5"/>
</a>
</g>
</g>
<!-- Node26 -->
<g id="Node000026" class="node">
<title>Node26</title>
<g id="a_Node000026"><a xlink:href="a00431.html#ac6360f8f60a063ca92ee816f65a8a2a1" target="_top" xlink:title=" ">
<polygon fill="white" stroke="#666666" points="403.5,-267 266,-267 266,-235 403.5,-235 403.5,-267"/>
<text text-anchor="start" x="274" y="-253.5" font-family="Helvetica,sans-Serif" font-size="10.00">LibLoader::MessageHandler</text>
<text text-anchor="middle" x="334.75" y="-241.5" font-family="Helvetica,sans-Serif" font-size="10.00">::timer_message</text>
</a>
</g>
</g>
<!-- Node23&#45;&gt;Node26 -->
<g id="edge26_Node000023_Node000026" class="edge">
<title>Node23&#45;&gt;Node26</title>
<g id="a_edge26_Node000023_Node000026"><a xlink:title=" ">
<path fill="none" stroke="#63b8ff" d="M452.64,-319.56C448.15,-317.8 443.73,-315.94 439.5,-314 410.58,-300.73 379.68,-281.19 359.2,-267.4"/>
<polygon fill="#63b8ff" stroke="#63b8ff" points="451.19,-322.75 461.78,-322.97 453.64,-316.2 451.19,-322.75"/>
</a>
</g>
</g>
<!-- Node25 -->
<g id="Node000025" class="node">
<title>Node25</title>
<g id="a_Node000025"><a xlink:href="a00412.html#a9d9b304caa9cf25c6f148b99ee9651f6" target="_top" xlink:title="定时任务, 在一定时间后广播**一次**TimeOutEvent，chrono重载">
<polygon fill="white" stroke="#666666" points="229.62,-349 133.38,-349 133.38,-329 229.62,-329 229.62,-349"/>
<text text-anchor="middle" x="181.5" y="-335.5" font-family="Helvetica,sans-Serif" font-size="10.00">MiraiCP::schedule</text>
</a>
</g>
</g>
<!-- Node24&#45;&gt;Node25 -->
<g id="edge25_Node000024_Node000025" class="edge">
<title>Node24&#45;&gt;Node25</title>
<g id="a_edge25_Node000024_Node000025"><a xlink:title=" ">
<path fill="none" stroke="#63b8ff" d="M275.12,-339C260.19,-339 244.33,-339 230.03,-339"/>
<polygon fill="#63b8ff" stroke="#63b8ff" points="274.8,-342.5 284.79,-339 274.79,-335.5 274.8,-342.5"/>
</a>
</g>
</g>
<!-- Node26&#45;&gt;Node8 -->
<g id="edge27_Node000026_Node000008" class="edge">
<title>Node26&#45;&gt;Node8</title>
<g id="a_edge27_Node000026_Node000008"><a xlink:title=" ">
<path fill="none" stroke="#63b8ff" d="M414.78,-235.44C485.99,-222.78 593.71,-207 688.25,-207 1176.62,-207 1176.62,-207 1176.62,-207 1269.54,-207 1376.35,-215.17 1445.62,-221.55"/>
<polygon fill="#63b8ff" stroke="#63b8ff" points="414.38,-231.95 405.16,-237.17 415.62,-238.84 414.38,-231.95"/>
</a>
</g>
</g>
<!-- Node28 -->
<g id="Node000028" class="node">
<title>Node28</title>
<g id="a_Node000028"><a xlink:href="a00425.html#afbf560680f6b525ee0240f614a0177b6" target="_top" xlink:title=" ">
<polygon fill="white" stroke="#666666" points="595,-267 439.5,-267 439.5,-247 595,-247 595,-267"/>
<text text-anchor="middle" x="517.25" y="-253.5" font-family="Helvetica,sans-Serif" font-size="10.00">LibLoader::sendPluginException</text>
</a>
</g>
</g>
<!-- Node27&#45;&gt;Node28 -->
<g id="edge29_Node000027_Node000028" class="edge">
<title>Node27&#45;&gt;Node28</title>
<g id="a_edge29_Node000027_Node000028"><a xlink:title=" ">
<path fill="none" stroke="#63b8ff" d="M630.16,-282.02C608.9,-277.26 585.14,-271.95 565,-267.45"/>
<polygon fill="#63b8ff" stroke="#63b8ff" points="629.35,-285.42 639.87,-284.19 630.87,-278.59 629.35,-285.42"/>
</a>
</g>
</g>
<!-- Node29 -->
<g id="Node000029" class="node">
<title>Node29</title>
<g id="a_Node000029"><a xlink:href="a00425.html#a7ee448e1b260709b6a8d73fa41ec5c15" target="_top" xlink:title=" ">
<polygon fill="white" stroke="#666666" points="587.88,-305 446.62,-305 446.62,-285 587.88,-285 587.88,-305"/>
<text text-anchor="middle" x="517.25" y="-291.5" font-family="Helvetica,sans-Serif" font-size="10.00">LibLoader::sendThreadReset</text>
</a>
</g>
</g>
<!-- Node27&#45;&gt;Node29 -->
<g id="edge30_Node000027_Node000029" class="edge">
<title>Node27&#45;&gt;Node29</title>
<g id="a_edge30_Node000027_Node000029"><a xlink:title=" ">
<path fill="none" stroke="#63b8ff" d="M619.27,-295C609,-295 598.41,-295 588.12,-295"/>
<polygon fill="#63b8ff" stroke="#63b8ff" points="619.18,-298.5 629.18,-295 619.18,-291.5 619.18,-298.5"/>
</a>
</g>
</g>
<!-- Node31 -->
<g id="Node000031" class="node">
<title>Node31</title>
<g id="a_Node000031"><a xlink:href="a00314.html#a3712cdeefe60fa2a92efa90cd6200b02" target="_top" xlink:title=" ">
<polygon fill="white" stroke="#666666" points="709.62,-481 668.88,-481 668.88,-461 709.62,-461 709.62,-481"/>
<text text-anchor="middle" x="689.25" y="-467.5" font-family="Helvetica,sans-Serif" font-size="10.00">Verify</text>
</a>
</g>
</g>
<!-- Node30&#45;&gt;Node31 -->
<g id="edge33_Node000030_Node000031" class="edge">
<title>Node30&#45;&gt;Node31</title>
<g id="a_edge33_Node000030_Node000031"><a xlink:title=" ">
<path fill="none" stroke="#63b8ff" d="M809.07,-429.49C790.55,-436.45 767.92,-444.82 747.5,-452 735.05,-456.38 720.99,-461.05 709.92,-464.66"/>
<polygon fill="#63b8ff" stroke="#63b8ff" points="810.2,-432.81 818.32,-426 807.73,-426.26 810.2,-432.81"/>
</a>
</g>
</g>
<!-- Node32&#45;&gt;Node2 -->
<g id="edge36_Node000032_Node000002" class="edge">
<title>Node32&#45;&gt;Node2</title>
<g id="a_edge36_Node000032_Node000002"><a xlink:title=" ">
<path fill="none" stroke="#63b8ff" d="M1629.54,-296.84C1611.08,-298.06 1591.61,-299.34 1574.35,-300.48"/>
<polygon fill="#63b8ff" stroke="#63b8ff" points="1629.62,-300.35 1639.36,-296.2 1629.16,-293.36 1629.62,-300.35"/>
</a>
</g>
</g>
<!-- Node33&#45;&gt;Node5 -->
<g id="edge38_Node000033_Node000005" class="edge">
<title>Node33&#45;&gt;Node5</title>
<g id="a_edge38_Node000033_Node000005"><a xlink:title=" ">
<path fill="none" stroke="#63b8ff" d="M1826.52,-174.71C1804.36,-168.74 1779.78,-162.13 1758.56,-156.42"/>
<polygon fill="#63b8ff" stroke="#63b8ff" points="1825.49,-178.06 1836.06,-177.28 1827.31,-171.3 1825.49,-178.06"/>
</a>
</g>
</g>
<!-- Node34 -->
<g id="Node000034" class="node">
<title>Node34</title>
<g id="a_Node000034"><a xlink:href="a00431.html#a10d399d863aead5a382694135edb5697" target="_top" xlink:title=" ">
<polygon fill="white" stroke="#666666" points="1778,-208 1630,-208 1630,-176 1778,-176 1778,-208"/>
<text text-anchor="start" x="1638" y="-194.5" font-family="Helvetica,sans-Serif" font-size="10.00">LibLoader::MessageHandler</text>
<text text-anchor="middle" x="1704" y="-182.5" font-family="Helvetica,sans-Serif" font-size="10.00">::push_task_with_id_message</text>
</a>
</g>
</g>
<!-- Node33&#45;&gt;Node34 -->
<g id="edge39_Node000033_Node000034" class="edge">
<title>Node33&#45;&gt;Node34</title>
<g id="a_edge39_Node000033_Node000034"><a xlink:title=" ">
<path fill="none" stroke="#63b8ff" d="M1826.45,-192C1810.92,-192 1794.22,-192 1778.31,-192"/>
<polygon fill="#63b8ff" stroke="#63b8ff" points="1826.01,-195.5 1836.01,-192 1826.01,-188.5 1826.01,-195.5"/>
</a>
</g>
</g>
<!-- Node34&#45;&gt;Node8 -->
<g id="edge40_Node000034_Node000008" class="edge">
<title>Node34&#45;&gt;Node8</title>
<g id="a_edge40_Node000034_Node000008"><a xlink:title=" ">
<path fill="none" stroke="#63b8ff" d="M1618.74,-209.13C1610.61,-210.78 1602.4,-212.45 1594.39,-214.08"/>
<polygon fill="#63b8ff" stroke="#63b8ff" points="1619.17,-212.61 1628.28,-207.19 1617.78,-205.75 1619.17,-212.61"/>
</a>
</g>
</g>
</g>
</svg>
