<?xml version="1.0" encoding="UTF-8" standalone="no"?>
<!DOCTYPE svg PUBLIC "-//W3C//DTD SVG 1.1//EN"
 "http://www.w3.org/Graphics/SVG/1.1/DTD/svg11.dtd">
<!-- Generated by graphviz version 2.50.0 (20211204.2007)
 -->
<!-- Title: EventBase.h Pages: 1 -->
<svg width="290pt" height="84pt"
 viewBox="0.00 0.00 290.00 84.00" xmlns="http://www.w3.org/2000/svg" xmlns:xlink="http://www.w3.org/1999/xlink">
<g id="graph0" class="graph" transform="scale(1 1) rotate(0) translate(4 80)">
<title>EventBase.h</title>
<polygon fill="white" stroke="transparent" points="-4,4 -4,-80 286,-80 286,4 -4,4"/>
<!-- Node1 -->
<g id="node1" class="node">
<title>Node1</title>
<g id="a_node1"><a xlink:title=" ">
<polygon fill="#bfbfbf" stroke="black" points="116.5,-56.5 116.5,-75.5 187.5,-75.5 187.5,-56.5 116.5,-56.5"/>
<text text-anchor="middle" x="152" y="-63.5" font-family="Helvetica,sans-Serif" font-size="10.00">EventBase.h</text>
</a>
</g>
</g>
<!-- Node2 -->
<g id="node2" class="node">
<title>Node2</title>
<g id="a_node2"><a xlink:href="a00158.html" target="_top" xlink:title=" ">
<polygon fill="white" stroke="black" points="0,-0.5 0,-19.5 72,-19.5 72,-0.5 0,-0.5"/>
<text text-anchor="middle" x="36" y="-7.5" font-family="Helvetica,sans-Serif" font-size="10.00">../SdkType.h</text>
</a>
</g>
</g>
<!-- Node1&#45;&gt;Node2 -->
<g id="edge1" class="edge">
<title>Node1&#45;&gt;Node2</title>
<path fill="none" stroke="midnightblue" d="M133.62,-56.44C114.78,-47.68 85.27,-33.94 63.62,-23.86"/>
<polygon fill="midnightblue" stroke="midnightblue" points="64.84,-20.56 54.29,-19.52 61.88,-26.91 64.84,-20.56"/>
</g>
<!-- Node3 -->
<g id="node3" class="node">
<title>Node3</title>
<g id="a_node3"><a xlink:title=" ">
<polygon fill="white" stroke="#bfbfbf" points="90.5,-0.5 90.5,-19.5 143.5,-19.5 143.5,-0.5 90.5,-0.5"/>
<text text-anchor="middle" x="117" y="-7.5" font-family="Helvetica,sans-Serif" font-size="10.00">json.hpp</text>
</a>
</g>
</g>
<!-- Node1&#45;&gt;Node3 -->
<g id="edge2" class="edge">
<title>Node1&#45;&gt;Node3</title>
<path fill="none" stroke="midnightblue" d="M146.22,-56.08C141.33,-48.53 134.17,-37.49 128.17,-28.23"/>
<polygon fill="midnightblue" stroke="midnightblue" points="131.05,-26.24 122.67,-19.75 125.17,-30.05 131.05,-26.24"/>
</g>
<!-- Node4 -->
<g id="node4" class="node">
<title>Node4</title>
<g id="a_node4"><a xlink:title=" ">
<polygon fill="white" stroke="#bfbfbf" points="162,-0.5 162,-19.5 214,-19.5 214,-0.5 162,-0.5"/>
<text text-anchor="middle" x="188" y="-7.5" font-family="Helvetica,sans-Serif" font-size="10.00">memory</text>
</a>
</g>
</g>
<!-- Node1&#45;&gt;Node4 -->
<g id="edge3" class="edge">
<title>Node1&#45;&gt;Node4</title>
<path fill="none" stroke="midnightblue" d="M157.94,-56.08C162.98,-48.53 170.34,-37.49 176.51,-28.23"/>
<polygon fill="midnightblue" stroke="midnightblue" points="179.53,-30.01 182.17,-19.75 173.71,-26.13 179.53,-30.01"/>
</g>
<!-- Node5 -->
<g id="node5" class="node">
<title>Node5</title>
<g id="a_node5"><a xlink:title=" ">
<polygon fill="white" stroke="#bfbfbf" points="232,-0.5 232,-19.5 282,-19.5 282,-0.5 232,-0.5"/>
<text text-anchor="middle" x="257" y="-7.5" font-family="Helvetica,sans-Serif" font-size="10.00">optional</text>
</a>
</g>
</g>
<!-- Node1&#45;&gt;Node5 -->
<g id="edge4" class="edge">
<title>Node1&#45;&gt;Node5</title>
<path fill="none" stroke="midnightblue" d="M168.87,-56.32C185.71,-47.66 211.81,-34.24 231.24,-24.25"/>
<polygon fill="midnightblue" stroke="midnightblue" points="232.88,-27.34 240.17,-19.65 229.68,-21.12 232.88,-27.34"/>
</g>
</g>
</svg>
