<?xml version="1.0" encoding="UTF-8" standalone="no"?>
<!DOCTYPE svg PUBLIC "-//W3C//DTD SVG 1.1//EN"
 "http://www.w3.org/Graphics/SVG/1.1/DTD/svg11.dtd">
<!-- Generated by graphviz version 2.50.0 (20211204.2007)
 -->
<!-- Title: Bot.h Pages: 1 -->
<svg width="1915pt" height="196pt"
 viewBox="0.00 0.00 1914.50 196.00" xmlns="http://www.w3.org/2000/svg" xmlns:xlink="http://www.w3.org/1999/xlink">
<g id="graph0" class="graph" transform="scale(1 1) rotate(0) translate(4 192)">
<title>Bot.h</title>
<polygon fill="white" stroke="transparent" points="-4,4 -4,-192 1910.5,-192 1910.5,4 -4,4"/>
<!-- Node1 -->
<g id="node1" class="node">
<title>Node1</title>
<g id="a_node1"><a xlink:title=" ">
<polygon fill="#bfbfbf" stroke="black" points="861.5,-168.5 861.5,-187.5 901.5,-187.5 901.5,-168.5 861.5,-168.5"/>
<text text-anchor="middle" x="881.5" y="-175.5" font-family="Helvetica,sans-Serif" font-size="10.00">Bot.h</text>
</a>
</g>
</g>
<!-- Node2 -->
<g id="node2" class="node">
<title>Node2</title>
<g id="a_node2"><a xlink:href="a00290.html" target="_top" xlink:title=" ">
<polygon fill="white" stroke="black" points="819.5,-112.5 819.5,-131.5 869.5,-131.5 869.5,-112.5 819.5,-112.5"/>
<text text-anchor="middle" x="844.5" y="-119.5" font-family="Helvetica,sans-Serif" font-size="10.00">Bot.cpp</text>
</a>
</g>
</g>
<!-- Node1&#45;&gt;Node2 -->
<g id="edge1" class="edge">
<title>Node1&#45;&gt;Node2</title>
<path fill="none" stroke="midnightblue" d="M869.55,-159.57C863.19,-150.27 855.63,-139.25 850.5,-131.75"/>
<polygon fill="midnightblue" stroke="midnightblue" points="866.85,-161.81 875.39,-168.08 872.63,-157.86 866.85,-161.81"/>
</g>
<!-- Node3 -->
<g id="node3" class="node">
<title>Node3</title>
<g id="a_node3"><a xlink:href="a00065.html" target="_top" xlink:title=" ">
<polygon fill="white" stroke="black" points="887.5,-112.5 887.5,-131.5 951.5,-131.5 951.5,-112.5 887.5,-112.5"/>
<text text-anchor="middle" x="919.5" y="-119.5" font-family="Helvetica,sans-Serif" font-size="10.00">BotEvent.h</text>
</a>
</g>
</g>
<!-- Node1&#45;&gt;Node3 -->
<g id="edge2" class="edge">
<title>Node1&#45;&gt;Node3</title>
<path fill="none" stroke="midnightblue" d="M893.56,-159.86C900.14,-150.5 908.01,-139.33 913.34,-131.75"/>
<polygon fill="midnightblue" stroke="midnightblue" points="890.67,-157.89 887.77,-168.08 896.39,-161.92 890.67,-157.89"/>
</g>
<!-- Node4 -->
<g id="node4" class="node">
<title>Node4</title>
<g id="a_node4"><a xlink:href="a00068.html" target="_top" xlink:title=" ">
<polygon fill="white" stroke="black" points="0,-56.5 0,-75.5 107,-75.5 107,-56.5 0,-56.5"/>
<text text-anchor="middle" x="53.5" y="-63.5" font-family="Helvetica,sans-Serif" font-size="10.00">BotJoinGroupEvent.h</text>
</a>
</g>
</g>
<!-- Node3&#45;&gt;Node4 -->
<g id="edge3" class="edge">
<title>Node3&#45;&gt;Node4</title>
<path fill="none" stroke="midnightblue" d="M877.32,-112.09C540.2,-68.24 450.14,-108.11 115.5,-76 112.79,-75.74 110.02,-75.45 107.23,-75.12"/>
<polygon fill="midnightblue" stroke="midnightblue" points="876.99,-115.57 887.36,-113.41 877.9,-108.63 876.99,-115.57"/>
</g>
<!-- Node6 -->
<g id="node6" class="node">
<title>Node6</title>
<g id="a_node6"><a xlink:href="a00071.html" target="_top" xlink:title=" ">
<polygon fill="white" stroke="black" points="125,-56.5 125,-75.5 214,-75.5 214,-56.5 125,-56.5"/>
<text text-anchor="middle" x="169.5" y="-63.5" font-family="Helvetica,sans-Serif" font-size="10.00">BotLeaveEvent.h</text>
</a>
</g>
</g>
<!-- Node3&#45;&gt;Node6 -->
<g id="edge5" class="edge">
<title>Node3&#45;&gt;Node6</title>
<path fill="none" stroke="midnightblue" d="M877.41,-112.09C587.88,-73.4 510.03,-107.65 223.5,-76 220.48,-75.67 217.37,-75.27 214.24,-74.85"/>
<polygon fill="midnightblue" stroke="midnightblue" points="876.98,-115.56 887.36,-113.43 877.92,-108.62 876.98,-115.56"/>
</g>
<!-- Node7 -->
<g id="node7" class="node">
<title>Node7</title>
<g id="a_node7"><a xlink:href="a00074.html" target="_top" xlink:title=" ">
<polygon fill="white" stroke="black" points="232.5,-56.5 232.5,-75.5 324.5,-75.5 324.5,-56.5 232.5,-56.5"/>
<text text-anchor="middle" x="278.5" y="-63.5" font-family="Helvetica,sans-Serif" font-size="10.00">BotOnlineEvent.h</text>
</a>
</g>
</g>
<!-- Node3&#45;&gt;Node7 -->
<g id="edge7" class="edge">
<title>Node3&#45;&gt;Node7</title>
<path fill="none" stroke="midnightblue" d="M877.24,-112.04C636.39,-78.57 571.37,-103.25 333.5,-76 330.62,-75.67 327.65,-75.29 324.67,-74.89"/>
<polygon fill="midnightblue" stroke="midnightblue" points="876.96,-115.54 887.35,-113.47 877.94,-108.6 876.96,-115.54"/>
</g>
<!-- Node8 -->
<g id="node8" class="node">
<title>Node8</title>
<g id="a_node8"><a xlink:href="a00080.html" target="_top" xlink:title=" ">
<polygon fill="white" stroke="black" points="343,-56.5 343,-75.5 446,-75.5 446,-56.5 343,-56.5"/>
<text text-anchor="middle" x="394.5" y="-63.5" font-family="Helvetica,sans-Serif" font-size="10.00">FriendRecallEvent.h</text>
</a>
</g>
</g>
<!-- Node3&#45;&gt;Node8 -->
<g id="edge9" class="edge">
<title>Node3&#45;&gt;Node8</title>
<path fill="none" stroke="midnightblue" d="M877.43,-112.03C689.79,-84.14 639.12,-97.66 454.5,-76 451.78,-75.68 448.99,-75.33 446.18,-74.97"/>
<polygon fill="midnightblue" stroke="midnightblue" points="876.94,-115.5 887.35,-113.52 877.98,-108.57 876.94,-115.5"/>
</g>
<!-- Node9 -->
<g id="node9" class="node">
<title>Node9</title>
<g id="a_node9"><a xlink:href="a00083.html" target="_top" xlink:title=" ">
<polygon fill="white" stroke="black" points="464,-56.5 464,-75.5 561,-75.5 561,-56.5 464,-56.5"/>
<text text-anchor="middle" x="512.5" y="-63.5" font-family="Helvetica,sans-Serif" font-size="10.00">GroupInviteEvent.h</text>
</a>
</g>
</g>
<!-- Node3&#45;&gt;Node9 -->
<g id="edge11" class="edge">
<title>Node3&#45;&gt;Node9</title>
<path fill="none" stroke="midnightblue" d="M877.3,-111.95C740.41,-89.4 703.27,-94.35 569.5,-76 566.82,-75.63 564.07,-75.24 561.3,-74.84"/>
<polygon fill="midnightblue" stroke="midnightblue" points="876.89,-115.43 887.33,-113.62 878.04,-108.52 876.89,-115.43"/>
</g>
<!-- Node10 -->
<g id="node10" class="node">
<title>Node10</title>
<g id="a_node10"><a xlink:href="a00086.html" target="_top" xlink:title=" ">
<polygon fill="white" stroke="black" points="579,-56.5 579,-75.5 694,-75.5 694,-56.5 579,-56.5"/>
<text text-anchor="middle" x="636.5" y="-63.5" font-family="Helvetica,sans-Serif" font-size="10.00">GroupMessageEvent.h</text>
</a>
</g>
</g>
<!-- Node3&#45;&gt;Node10 -->
<g id="edge13" class="edge">
<title>Node3&#45;&gt;Node10</title>
<path fill="none" stroke="midnightblue" d="M877.07,-111.76C804.56,-97.16 731.51,-83.84 684.8,-75.51"/>
<polygon fill="midnightblue" stroke="midnightblue" points="876.8,-115.27 887.29,-113.83 878.18,-108.41 876.8,-115.27"/>
</g>
<!-- Node11 -->
<g id="node11" class="node">
<title>Node11</title>
<g id="a_node11"><a xlink:href="a00089.html" target="_top" xlink:title=" ">
<polygon fill="white" stroke="black" points="712,-56.5 712,-75.5 851,-75.5 851,-56.5 712,-56.5"/>
<text text-anchor="middle" x="781.5" y="-63.5" font-family="Helvetica,sans-Serif" font-size="10.00">GroupTempMessageEvent.h</text>
</a>
</g>
</g>
<!-- Node3&#45;&gt;Node11 -->
<g id="edge15" class="edge">
<title>Node3&#45;&gt;Node11</title>
<path fill="none" stroke="midnightblue" d="M888.25,-108.77C862.33,-98.63 826.14,-84.47 803.26,-75.52"/>
<polygon fill="midnightblue" stroke="midnightblue" points="887.05,-112.06 897.63,-112.44 889.6,-105.54 887.05,-112.06"/>
</g>
<!-- Node12 -->
<g id="node12" class="node">
<title>Node12</title>
<g id="a_node12"><a xlink:href="a00092.html" target="_top" xlink:title=" ">
<polygon fill="white" stroke="black" points="869,-56.5 869,-75.5 970,-75.5 970,-56.5 869,-56.5"/>
<text text-anchor="middle" x="919.5" y="-63.5" font-family="Helvetica,sans-Serif" font-size="10.00">MemberJoinEvent.h</text>
</a>
</g>
</g>
<!-- Node3&#45;&gt;Node12 -->
<g id="edge17" class="edge">
<title>Node3&#45;&gt;Node12</title>
<path fill="none" stroke="midnightblue" d="M919.5,-101.8C919.5,-92.91 919.5,-82.78 919.5,-75.75"/>
<polygon fill="midnightblue" stroke="midnightblue" points="916,-102.08 919.5,-112.08 923,-102.08 916,-102.08"/>
</g>
<!-- Node13 -->
<g id="node13" class="node">
<title>Node13</title>
<g id="a_node13"><a xlink:href="a00095.html" target="_top" xlink:title=" ">
<polygon fill="white" stroke="black" points="988,-56.5 988,-75.5 1125,-75.5 1125,-56.5 988,-56.5"/>
<text text-anchor="middle" x="1056.5" y="-63.5" font-family="Helvetica,sans-Serif" font-size="10.00">MemberJoinRequestEvent.h</text>
</a>
</g>
</g>
<!-- Node3&#45;&gt;Node13 -->
<g id="edge19" class="edge">
<title>Node3&#45;&gt;Node13</title>
<path fill="none" stroke="midnightblue" d="M950.52,-108.77C976.26,-98.63 1012.19,-84.47 1034.89,-75.52"/>
<polygon fill="midnightblue" stroke="midnightblue" points="949.23,-105.52 941.21,-112.44 951.79,-112.03 949.23,-105.52"/>
</g>
<!-- Node14 -->
<g id="node14" class="node">
<title>Node14</title>
<g id="a_node14"><a xlink:href="a00098.html" target="_top" xlink:title=" ">
<polygon fill="white" stroke="black" points="1143,-56.5 1143,-75.5 1252,-75.5 1252,-56.5 1143,-56.5"/>
<text text-anchor="middle" x="1197.5" y="-63.5" font-family="Helvetica,sans-Serif" font-size="10.00">MemberLeaveEvent.h</text>
</a>
</g>
</g>
<!-- Node3&#45;&gt;Node14 -->
<g id="edge21" class="edge">
<title>Node3&#45;&gt;Node14</title>
<path fill="none" stroke="midnightblue" d="M961.51,-112.84C1013.21,-102.8 1100.61,-85.82 1153.3,-75.59"/>
<polygon fill="midnightblue" stroke="midnightblue" points="960.81,-109.41 951.66,-114.75 962.15,-116.28 960.81,-109.41"/>
</g>
<!-- Node15 -->
<g id="node15" class="node">
<title>Node15</title>
<g id="a_node15"><a xlink:href="a00101.html" target="_top" xlink:title=" ">
<polygon fill="white" stroke="black" points="1270,-56.5 1270,-75.5 1381,-75.5 1381,-56.5 1270,-56.5"/>
<text text-anchor="middle" x="1325.5" y="-63.5" font-family="Helvetica,sans-Serif" font-size="10.00">MemberRecallEvent.h</text>
</a>
</g>
</g>
<!-- Node3&#45;&gt;Node15 -->
<g id="edge23" class="edge">
<title>Node3&#45;&gt;Node15</title>
<path fill="none" stroke="midnightblue" d="M961.77,-115.56C1026.38,-107.22 1153.58,-90.69 1261.5,-76 1264.17,-75.64 1266.9,-75.26 1269.66,-74.88"/>
<polygon fill="midnightblue" stroke="midnightblue" points="961.05,-112.13 951.58,-116.88 961.94,-119.07 961.05,-112.13"/>
</g>
<!-- Node16 -->
<g id="node16" class="node">
<title>Node16</title>
<g id="a_node16"><a xlink:href="a00104.html" target="_top" xlink:title=" ">
<polygon fill="white" stroke="black" points="1399.5,-56.5 1399.5,-75.5 1525.5,-75.5 1525.5,-56.5 1399.5,-56.5"/>
<text text-anchor="middle" x="1462.5" y="-63.5" font-family="Helvetica,sans-Serif" font-size="10.00">MessagePreSendEvent.h</text>
</a>
</g>
</g>
<!-- Node3&#45;&gt;Node16 -->
<g id="edge25" class="edge">
<title>Node3&#45;&gt;Node16</title>
<path fill="none" stroke="midnightblue" d="M961.49,-117.4C1043.85,-110.25 1232.33,-93.44 1390.5,-76 1393.38,-75.68 1396.32,-75.35 1399.3,-75.01"/>
<polygon fill="midnightblue" stroke="midnightblue" points="961.17,-113.92 951.51,-118.27 961.78,-120.89 961.17,-113.92"/>
</g>
<!-- Node17 -->
<g id="node17" class="node">
<title>Node17</title>
<g id="a_node17"><a xlink:href="a00110.html" target="_top" xlink:title=" ">
<polygon fill="white" stroke="black" points="1544,-56.5 1544,-75.5 1675,-75.5 1675,-56.5 1544,-56.5"/>
<text text-anchor="middle" x="1609.5" y="-63.5" font-family="Helvetica,sans-Serif" font-size="10.00">NewFriendRequestEvent.h</text>
</a>
</g>
</g>
<!-- Node3&#45;&gt;Node17 -->
<g id="edge27" class="edge">
<title>Node3&#45;&gt;Node17</title>
<path fill="none" stroke="midnightblue" d="M961.83,-118.58C1061.67,-112.73 1319.62,-96.74 1534.5,-76 1537.5,-75.71 1540.57,-75.4 1543.67,-75.07"/>
<polygon fill="midnightblue" stroke="midnightblue" points="961.34,-115.1 951.56,-119.18 961.74,-122.09 961.34,-115.1"/>
</g>
<!-- Node18 -->
<g id="node18" class="node">
<title>Node18</title>
<g id="a_node18"><a xlink:href="a00113.html" target="_top" xlink:title=" ">
<polygon fill="white" stroke="black" points="1693,-56.5 1693,-75.5 1770,-75.5 1770,-56.5 1693,-56.5"/>
<text text-anchor="middle" x="1731.5" y="-63.5" font-family="Helvetica,sans-Serif" font-size="10.00">NudgeEvent.h</text>
</a>
</g>
</g>
<!-- Node3&#45;&gt;Node18 -->
<g id="edge29" class="edge">
<title>Node3&#45;&gt;Node18</title>
<path fill="none" stroke="midnightblue" d="M961.94,-120.44C1078.04,-118.5 1410.53,-110.14 1684.5,-76 1687.22,-75.66 1690.02,-75.26 1692.83,-74.82"/>
<polygon fill="midnightblue" stroke="midnightblue" points="961.65,-116.95 951.7,-120.61 961.76,-123.95 961.65,-116.95"/>
</g>
<!-- Node19 -->
<g id="node19" class="node">
<title>Node19</title>
<g id="a_node19"><a xlink:href="a00116.html" target="_top" xlink:title=" ">
<polygon fill="white" stroke="black" points="1788.5,-56.5 1788.5,-75.5 1906.5,-75.5 1906.5,-56.5 1788.5,-56.5"/>
<text text-anchor="middle" x="1847.5" y="-63.5" font-family="Helvetica,sans-Serif" font-size="10.00">PrivateMessageEvent.h</text>
</a>
</g>
</g>
<!-- Node3&#45;&gt;Node19 -->
<g id="edge31" class="edge">
<title>Node3&#45;&gt;Node19</title>
<path fill="none" stroke="midnightblue" d="M961.88,-119.97C1087.11,-116.68 1466.31,-104.87 1779.5,-76 1782.35,-75.74 1785.26,-75.45 1788.19,-75.13"/>
<polygon fill="midnightblue" stroke="midnightblue" points="961.49,-116.48 951.58,-120.24 961.67,-123.48 961.49,-116.48"/>
</g>
<!-- Node5 -->
<g id="node5" class="node">
<title>Node5</title>
<g id="a_node5"><a xlink:href="a00308.html" target="_top" xlink:title=" ">
<polygon fill="white" stroke="black" points="890,-0.5 890,-19.5 949,-19.5 949,-0.5 890,-0.5"/>
<text text-anchor="middle" x="919.5" y="-7.5" font-family="Helvetica,sans-Serif" font-size="10.00">Event.cpp</text>
</a>
</g>
</g>
<!-- Node4&#45;&gt;Node5 -->
<g id="edge4" class="edge">
<title>Node4&#45;&gt;Node5</title>
<path fill="none" stroke="midnightblue" d="M117.24,-55.91C424.87,-25.5 785.45,-14.43 889.86,-11.72"/>
<polygon fill="midnightblue" stroke="midnightblue" points="116.84,-52.43 107.23,-56.9 117.53,-59.39 116.84,-52.43"/>
</g>
<!-- Node6&#45;&gt;Node5 -->
<g id="edge6" class="edge">
<title>Node6&#45;&gt;Node5</title>
<path fill="none" stroke="midnightblue" d="M224.41,-56.02C488.53,-26.05 794.81,-14.8 889.89,-11.85"/>
<polygon fill="midnightblue" stroke="midnightblue" points="223.78,-52.57 214.24,-57.19 224.57,-59.53 223.78,-52.57"/>
</g>
<!-- Node7&#45;&gt;Node5 -->
<g id="edge8" class="edge">
<title>Node7&#45;&gt;Node5</title>
<path fill="none" stroke="midnightblue" d="M334.75,-55.95C553.76,-30.08 804.97,-16.51 889.84,-12.38"/>
<polygon fill="midnightblue" stroke="midnightblue" points="334.19,-52.49 324.67,-57.15 335.02,-59.44 334.19,-52.49"/>
</g>
<!-- Node8&#45;&gt;Node5 -->
<g id="edge10" class="edge">
<title>Node8&#45;&gt;Node5</title>
<path fill="none" stroke="midnightblue" d="M456.31,-55.83C626.18,-35.14 817.45,-19.12 889.79,-13.33"/>
<polygon fill="midnightblue" stroke="midnightblue" points="455.69,-52.38 446.19,-57.07 456.54,-59.33 455.69,-52.38"/>
</g>
<!-- Node9&#45;&gt;Node5 -->
<g id="edge12" class="edge">
<title>Node9&#45;&gt;Node5</title>
<path fill="none" stroke="midnightblue" d="M571.36,-55.76C695.47,-38.12 831.25,-21.54 889.96,-14.51"/>
<polygon fill="midnightblue" stroke="midnightblue" points="570.71,-52.32 561.3,-57.2 571.7,-59.25 570.71,-52.32"/>
</g>
<!-- Node10&#45;&gt;Node5 -->
<g id="edge14" class="edge">
<title>Node10&#45;&gt;Node5</title>
<path fill="none" stroke="midnightblue" d="M691.27,-54.55C750.44,-43.26 842.56,-25.68 889.63,-16.7"/>
<polygon fill="midnightblue" stroke="midnightblue" points="690.51,-51.13 681.34,-56.44 691.82,-58.01 690.51,-51.13"/>
</g>
<!-- Node11&#45;&gt;Node5 -->
<g id="edge16" class="edge">
<title>Node11&#45;&gt;Node5</title>
<path fill="none" stroke="midnightblue" d="M812.75,-52.77C838.67,-42.63 874.86,-28.47 897.74,-19.52"/>
<polygon fill="midnightblue" stroke="midnightblue" points="811.4,-49.54 803.37,-56.44 813.95,-56.06 811.4,-49.54"/>
</g>
<!-- Node12&#45;&gt;Node5 -->
<g id="edge18" class="edge">
<title>Node12&#45;&gt;Node5</title>
<path fill="none" stroke="midnightblue" d="M919.5,-45.8C919.5,-36.91 919.5,-26.78 919.5,-19.75"/>
<polygon fill="midnightblue" stroke="midnightblue" points="916,-46.08 919.5,-56.08 923,-46.08 916,-46.08"/>
</g>
<!-- Node13&#45;&gt;Node5 -->
<g id="edge20" class="edge">
<title>Node13&#45;&gt;Node5</title>
<path fill="none" stroke="midnightblue" d="M1025.48,-52.77C999.74,-42.63 963.81,-28.47 941.11,-19.52"/>
<polygon fill="midnightblue" stroke="midnightblue" points="1024.21,-56.03 1034.79,-56.44 1026.77,-49.52 1024.21,-56.03"/>
</g>
<!-- Node14&#45;&gt;Node5 -->
<g id="edge22" class="edge">
<title>Node14&#45;&gt;Node5</title>
<path fill="none" stroke="midnightblue" d="M1143.37,-54.49C1085.39,-43.22 995.5,-25.76 949.24,-16.78"/>
<polygon fill="midnightblue" stroke="midnightblue" points="1142.97,-57.97 1153.45,-56.44 1144.3,-51.1 1142.97,-57.97"/>
</g>
<!-- Node15&#45;&gt;Node5 -->
<g id="edge24" class="edge">
<title>Node15&#45;&gt;Node5</title>
<path fill="none" stroke="midnightblue" d="M1259.49,-55.74C1138.63,-39.33 1007.01,-22.27 949.25,-14.82"/>
<polygon fill="midnightblue" stroke="midnightblue" points="1259.28,-59.24 1269.66,-57.12 1260.22,-52.3 1259.28,-59.24"/>
</g>
<!-- Node16&#45;&gt;Node5 -->
<g id="edge26" class="edge">
<title>Node16&#45;&gt;Node5</title>
<path fill="none" stroke="midnightblue" d="M1389.24,-55.89C1216.14,-36.94 1021.84,-19.8 949.02,-13.52"/>
<polygon fill="midnightblue" stroke="midnightblue" points="1388.97,-59.38 1399.3,-56.99 1389.74,-52.42 1388.97,-59.38"/>
</g>
<!-- Node17&#45;&gt;Node5 -->
<g id="edge28" class="edge">
<title>Node17&#45;&gt;Node5</title>
<path fill="none" stroke="midnightblue" d="M1533.37,-55.94C1302,-33.84 1037,-17.76 949.3,-12.69"/>
<polygon fill="midnightblue" stroke="midnightblue" points="1533.38,-59.45 1543.67,-56.93 1534.05,-52.48 1533.38,-59.45"/>
</g>
<!-- Node18&#45;&gt;Node5 -->
<g id="edge30" class="edge">
<title>Node18&#45;&gt;Node5</title>
<path fill="none" stroke="midnightblue" d="M1682.51,-55.9C1391.54,-20.33 1050.38,-12.86 949.16,-11.36"/>
<polygon fill="midnightblue" stroke="midnightblue" points="1682.48,-59.43 1692.83,-57.18 1683.34,-52.48 1682.48,-59.43"/>
</g>
<!-- Node19&#45;&gt;Node5 -->
<g id="edge32" class="edge">
<title>Node19&#45;&gt;Node5</title>
<path fill="none" stroke="midnightblue" d="M1777.92,-55.93C1446.87,-25.84 1058.38,-14.46 949.27,-11.7"/>
<polygon fill="midnightblue" stroke="midnightblue" points="1777.92,-59.44 1788.19,-56.87 1778.55,-52.47 1777.92,-59.44"/>
</g>
</g>
</svg>
