<?xml version="1.0" encoding="UTF-8" standalone="no"?>
<!DOCTYPE svg PUBLIC "-//W3C//DTD SVG 1.1//EN"
 "http://www.w3.org/Graphics/SVG/1.1/DTD/svg11.dtd">
<!-- Generated by graphviz version 2.50.0 (20211204.2007)
 -->
<!-- Title: JsonTools.h Pages: 1 -->
<svg width="633pt" height="84pt"
 viewBox="0.00 0.00 632.50 84.00" xmlns="http://www.w3.org/2000/svg" xmlns:xlink="http://www.w3.org/1999/xlink">
<g id="graph0" class="graph" transform="scale(1 1) rotate(0) translate(4 80)">
<title>JsonTools.h</title>
<polygon fill="white" stroke="transparent" points="-4,4 -4,-80 628.5,-80 628.5,4 -4,4"/>
<!-- Node1 -->
<g id="node1" class="node">
<title>Node1</title>
<g id="a_node1"><a xlink:title=" ">
<polygon fill="#bfbfbf" stroke="black" points="241.5,-56.5 241.5,-75.5 309.5,-75.5 309.5,-56.5 241.5,-56.5"/>
<text text-anchor="middle" x="275.5" y="-63.5" font-family="Helvetica,sans-Serif" font-size="10.00">JsonTools.h</text>
</a>
</g>
</g>
<!-- Node2 -->
<g id="node2" class="node">
<title>Node2</title>
<g id="a_node2"><a xlink:href="a00299.html" target="_top" xlink:title=" ">
<polygon fill="white" stroke="black" points="0,-0.5 0,-19.5 69,-19.5 69,-0.5 0,-0.5"/>
<text text-anchor="middle" x="34.5" y="-7.5" font-family="Helvetica,sans-Serif" font-size="10.00">Contact.cpp</text>
</a>
</g>
</g>
<!-- Node1&#45;&gt;Node2 -->
<g id="edge1" class="edge">
<title>Node1&#45;&gt;Node2</title>
<path fill="none" stroke="midnightblue" d="M231.65,-55.17C184.94,-44.71 111.96,-28.36 69.13,-18.76"/>
<polygon fill="midnightblue" stroke="midnightblue" points="230.96,-58.61 241.48,-57.38 232.49,-51.78 230.96,-58.61"/>
</g>
<!-- Node3 -->
<g id="node3" class="node">
<title>Node3</title>
<g id="a_node3"><a xlink:href="a00311.html" target="_top" xlink:title=" ">
<polygon fill="white" stroke="black" points="87,-0.5 87,-19.5 146,-19.5 146,-0.5 87,-0.5"/>
<text text-anchor="middle" x="116.5" y="-7.5" font-family="Helvetica,sans-Serif" font-size="10.00">Event.cpp</text>
</a>
</g>
</g>
<!-- Node1&#45;&gt;Node3 -->
<g id="edge2" class="edge">
<title>Node1&#45;&gt;Node3</title>
<path fill="none" stroke="midnightblue" d="M240.67,-53.17C210.73,-43 168.28,-28.59 141.58,-19.52"/>
<polygon fill="midnightblue" stroke="midnightblue" points="239.71,-56.54 250.31,-56.44 241.96,-49.91 239.71,-56.54"/>
</g>
<!-- Node4 -->
<g id="node4" class="node">
<title>Node4</title>
<g id="a_node4"><a xlink:href="a00341.html" target="_top" xlink:title=" ">
<polygon fill="white" stroke="black" points="164.5,-0.5 164.5,-19.5 226.5,-19.5 226.5,-0.5 164.5,-0.5"/>
<text text-anchor="middle" x="195.5" y="-7.5" font-family="Helvetica,sans-Serif" font-size="10.00">Friend.cpp</text>
</a>
</g>
</g>
<!-- Node1&#45;&gt;Node4 -->
<g id="edge3" class="edge">
<title>Node1&#45;&gt;Node4</title>
<path fill="none" stroke="midnightblue" d="M254.2,-50.62C239.58,-40.76 220.67,-27.99 208.32,-19.65"/>
<polygon fill="midnightblue" stroke="midnightblue" points="252.4,-53.63 262.65,-56.32 256.32,-47.83 252.4,-53.63"/>
</g>
<!-- Node5 -->
<g id="node5" class="node">
<title>Node5</title>
<g id="a_node5"><a xlink:href="a01391.html" target="_top" xlink:title=" ">
<polygon fill="white" stroke="black" points="244.5,-0.5 244.5,-19.5 306.5,-19.5 306.5,-0.5 244.5,-0.5"/>
<text text-anchor="middle" x="275.5" y="-7.5" font-family="Helvetica,sans-Serif" font-size="10.00">Group.cpp</text>
</a>
</g>
</g>
<!-- Node1&#45;&gt;Node5 -->
<g id="edge4" class="edge">
<title>Node1&#45;&gt;Node5</title>
<path fill="none" stroke="midnightblue" d="M275.5,-45.8C275.5,-36.91 275.5,-26.78 275.5,-19.75"/>
<polygon fill="midnightblue" stroke="midnightblue" points="272,-46.08 275.5,-56.08 279,-46.08 272,-46.08"/>
</g>
<!-- Node6 -->
<g id="node6" class="node">
<title>Node6</title>
<g id="a_node6"><a xlink:href="a00359.html" target="_top" xlink:title=" ">
<polygon fill="white" stroke="black" points="324.5,-0.5 324.5,-19.5 414.5,-19.5 414.5,-0.5 324.5,-0.5"/>
<text text-anchor="middle" x="369.5" y="-7.5" font-family="Helvetica,sans-Serif" font-size="10.00">LowLevelAPI.cpp</text>
</a>
</g>
</g>
<!-- Node1&#45;&gt;Node6 -->
<g id="edge5" class="edge">
<title>Node1&#45;&gt;Node6</title>
<path fill="none" stroke="midnightblue" d="M299.56,-51.18C316.86,-41.24 339.65,-28.15 354.43,-19.65"/>
<polygon fill="midnightblue" stroke="midnightblue" points="297.53,-48.31 290.6,-56.32 301.02,-54.38 297.53,-48.31"/>
</g>
<!-- Node7 -->
<g id="node7" class="node">
<title>Node7</title>
<g id="a_node7"><a xlink:href="a01403.html" target="_top" xlink:title=" ">
<polygon fill="white" stroke="black" points="433,-0.5 433,-19.5 504,-19.5 504,-0.5 433,-0.5"/>
<text text-anchor="middle" x="468.5" y="-7.5" font-family="Helvetica,sans-Serif" font-size="10.00">Member.cpp</text>
</a>
</g>
</g>
<!-- Node1&#45;&gt;Node7 -->
<g id="edge6" class="edge">
<title>Node1&#45;&gt;Node7</title>
<path fill="none" stroke="midnightblue" d="M315.89,-53.7C352.32,-43.51 405.09,-28.74 438.06,-19.52"/>
<polygon fill="midnightblue" stroke="midnightblue" points="314.77,-50.38 306.08,-56.44 316.65,-57.12 314.77,-50.38"/>
</g>
<!-- Node8 -->
<g id="node8" class="node">
<title>Node8</title>
<g id="a_node8"><a xlink:href="a00383.html" target="_top" xlink:title=" ">
<polygon fill="white" stroke="black" points="522.5,-0.5 522.5,-19.5 624.5,-19.5 624.5,-0.5 522.5,-0.5"/>
<text text-anchor="middle" x="573.5" y="-7.5" font-family="Helvetica,sans-Serif" font-size="10.00">SingleMessage.cpp</text>
</a>
</g>
</g>
<!-- Node1&#45;&gt;Node8 -->
<g id="edge7" class="edge">
<title>Node1&#45;&gt;Node8</title>
<path fill="none" stroke="midnightblue" d="M319.56,-57.02C374.99,-46.97 469.77,-29.8 526.53,-19.51"/>
<polygon fill="midnightblue" stroke="midnightblue" points="318.9,-53.58 309.68,-58.81 320.15,-60.47 318.9,-53.58"/>
</g>
</g>
</svg>
