<?xml version="1.0" encoding="UTF-8" standalone="no"?>
<!DOCTYPE svg PUBLIC "-//W3C//DTD SVG 1.1//EN"
 "http://www.w3.org/Graphics/SVG/1.1/DTD/svg11.dtd">
<!-- Generated by graphviz version 2.50.0 (20211204.2007)
 -->
<!-- Title: Group.h Pages: 1 -->
<svg width="1111pt" height="588pt"
 viewBox="0.00 0.00 1111.24 588.00" xmlns="http://www.w3.org/2000/svg" xmlns:xlink="http://www.w3.org/1999/xlink">
<g id="graph0" class="graph" transform="scale(1 1) rotate(0) translate(4 584)">
<title>Group.h</title>
<polygon fill="white" stroke="transparent" points="-4,4 -4,-584 1107.24,-584 1107.24,4 -4,4"/>
<!-- Node1 -->
<g id="node1" class="node">
<title>Node1</title>
<g id="a_node1"><a xlink:title=" ">
<polygon fill="#bfbfbf" stroke="black" points="252.74,-560.5 252.74,-579.5 303.74,-579.5 303.74,-560.5 252.74,-560.5"/>
<text text-anchor="middle" x="278.24" y="-567.5" font-family="Helvetica,sans-Serif" font-size="10.00">Group.h</text>
</a>
</g>
</g>
<!-- Node2 -->
<g id="node2" class="node">
<title>Node2</title>
<g id="a_node2"><a xlink:href="a00077.html" target="_top" xlink:title=" ">
<polygon fill="white" stroke="black" points="248.74,-504.5 248.74,-523.5 307.74,-523.5 307.74,-504.5 248.74,-504.5"/>
<text text-anchor="middle" x="278.24" y="-511.5" font-family="Helvetica,sans-Serif" font-size="10.00">Contact.h</text>
</a>
</g>
</g>
<!-- Node1&#45;&gt;Node2 -->
<g id="edge1" class="edge">
<title>Node1&#45;&gt;Node2</title>
<path fill="none" stroke="midnightblue" d="M278.24,-560.08C278.24,-553.01 278.24,-542.86 278.24,-533.99"/>
<polygon fill="midnightblue" stroke="midnightblue" points="281.74,-533.75 278.24,-523.75 274.74,-533.75 281.74,-533.75"/>
</g>
<!-- Node4 -->
<g id="node4" class="node">
<title>Node4</title>
<g id="a_node4"><a xlink:title=" ">
<polygon fill="white" stroke="#bfbfbf" points="123.74,-336.5 123.74,-355.5 196.74,-355.5 196.74,-336.5 123.74,-336.5"/>
<text text-anchor="middle" x="160.24" y="-343.5" font-family="Helvetica,sans-Serif" font-size="10.00">json_fwd.hpp</text>
</a>
</g>
</g>
<!-- Node1&#45;&gt;Node4 -->
<g id="edge54" class="edge">
<title>Node1&#45;&gt;Node4</title>
<path fill="none" stroke="midnightblue" d="M252.48,-568.38C196.67,-565.47 65,-549.84 8.24,-468 -26.85,-417.41 65.38,-377.44 121.2,-358.67"/>
<polygon fill="midnightblue" stroke="midnightblue" points="122.41,-361.96 130.83,-355.53 120.24,-355.31 122.41,-361.96"/>
</g>
<!-- Node24 -->
<g id="node24" class="node">
<title>Node24</title>
<g id="a_node24"><a xlink:title=" ">
<polygon fill="white" stroke="#bfbfbf" points="741.24,-280.5 741.24,-299.5 781.24,-299.5 781.24,-280.5 741.24,-280.5"/>
<text text-anchor="middle" x="761.24" y="-287.5" font-family="Helvetica,sans-Serif" font-size="10.00">utility</text>
</a>
</g>
</g>
<!-- Node1&#45;&gt;Node24 -->
<g id="edge55" class="edge">
<title>Node1&#45;&gt;Node24</title>
<path fill="none" stroke="midnightblue" d="M303.97,-568.18C439.61,-563.51 1065.24,-537.72 1065.24,-459 1065.24,-459 1065.24,-459 1065.24,-401 1065.24,-343.24 868.74,-307.25 791.7,-295.36"/>
<polygon fill="midnightblue" stroke="midnightblue" points="792.07,-291.88 781.66,-293.85 791.02,-298.8 792.07,-291.88"/>
</g>
<!-- Node3 -->
<g id="node3" class="node">
<title>Node3</title>
<g id="a_node3"><a xlink:href="a00098.html" target="_top" xlink:title=" ">
<polygon fill="white" stroke="black" points="195.24,-448.5 195.24,-467.5 263.24,-467.5 263.24,-448.5 195.24,-448.5"/>
<text text-anchor="middle" x="229.24" y="-455.5" font-family="Helvetica,sans-Serif" font-size="10.00">IMiraiData.h</text>
</a>
</g>
</g>
<!-- Node2&#45;&gt;Node3 -->
<g id="edge2" class="edge">
<title>Node2&#45;&gt;Node3</title>
<path fill="none" stroke="midnightblue" d="M270.15,-504.08C263.08,-496.3 252.65,-484.8 244.09,-475.37"/>
<polygon fill="midnightblue" stroke="midnightblue" points="246.49,-472.8 237.18,-467.75 241.31,-477.51 246.49,-472.8"/>
</g>
<!-- Node2&#45;&gt;Node4 -->
<g id="edge52" class="edge">
<title>Node2&#45;&gt;Node4</title>
<path fill="none" stroke="midnightblue" d="M248.45,-505.27C208.69,-493.1 140.24,-465.17 114.24,-412 105.13,-393.39 122.46,-374.29 138.38,-361.65"/>
<polygon fill="midnightblue" stroke="midnightblue" points="140.5,-364.44 146.44,-355.67 136.32,-358.82 140.5,-364.44"/>
</g>
<!-- Node7 -->
<g id="node7" class="node">
<title>Node7</title>
<g id="a_node7"><a xlink:href="a00101.html" target="_top" xlink:title=" ">
<polygon fill="white" stroke="black" points="285.74,-448.5 285.74,-467.5 362.74,-467.5 362.74,-448.5 285.74,-448.5"/>
<text text-anchor="middle" x="324.24" y="-455.5" font-family="Helvetica,sans-Serif" font-size="10.00">KtOperation.h</text>
</a>
</g>
</g>
<!-- Node2&#45;&gt;Node7 -->
<g id="edge6" class="edge">
<title>Node2&#45;&gt;Node7</title>
<path fill="none" stroke="midnightblue" d="M285.83,-504.08C292.46,-496.3 302.26,-484.8 310.3,-475.37"/>
<polygon fill="midnightblue" stroke="midnightblue" points="312.96,-477.63 316.78,-467.75 307.63,-473.09 312.96,-477.63"/>
</g>
<!-- Node8 -->
<g id="node8" class="node">
<title>Node8</title>
<g id="a_node8"><a xlink:href="a00110.html" target="_top" xlink:title=" ">
<polygon fill="white" stroke="black" points="17.24,-448.5 17.24,-467.5 97.24,-467.5 97.24,-448.5 17.24,-448.5"/>
<text text-anchor="middle" x="57.24" y="-455.5" font-family="Helvetica,sans-Serif" font-size="10.00">LowLevelAPI.h</text>
</a>
</g>
</g>
<!-- Node2&#45;&gt;Node8 -->
<g id="edge8" class="edge">
<title>Node2&#45;&gt;Node8</title>
<path fill="none" stroke="midnightblue" d="M248.43,-505.72C210.83,-496.53 145.82,-480.64 102.18,-469.98"/>
<polygon fill="midnightblue" stroke="midnightblue" points="102.94,-466.56 92.39,-467.59 101.28,-473.36 102.94,-466.56"/>
</g>
<!-- Node9 -->
<g id="node9" class="node">
<title>Node9</title>
<g id="a_node9"><a xlink:href="a00116.html" target="_top" xlink:title=" ">
<polygon fill="white" stroke="black" points="398.74,-448.5 398.74,-467.5 487.74,-467.5 487.74,-448.5 398.74,-448.5"/>
<text text-anchor="middle" x="443.24" y="-455.5" font-family="Helvetica,sans-Serif" font-size="10.00">MessageChain.h</text>
</a>
</g>
</g>
<!-- Node2&#45;&gt;Node9 -->
<g id="edge10" class="edge">
<title>Node2&#45;&gt;Node9</title>
<path fill="none" stroke="midnightblue" d="M304.38,-504.44C332.26,-495.32 376.59,-480.81 407.64,-470.65"/>
<polygon fill="midnightblue" stroke="midnightblue" points="408.8,-473.95 417.22,-467.52 406.62,-467.3 408.8,-473.95"/>
</g>
<!-- Node16 -->
<g id="node16" class="node">
<title>Node16</title>
<g id="a_node16"><a xlink:title=" ">
<polygon fill="white" stroke="#bfbfbf" points="826.74,-56.5 826.74,-75.5 867.74,-75.5 867.74,-56.5 826.74,-56.5"/>
<text text-anchor="middle" x="847.24" y="-63.5" font-family="Helvetica,sans-Serif" font-size="10.00">string</text>
</a>
</g>
</g>
<!-- Node2&#45;&gt;Node16 -->
<g id="edge53" class="edge">
<title>Node2&#45;&gt;Node16</title>
<path fill="none" stroke="midnightblue" d="M308.09,-513.48C455.99,-515.08 1103.24,-512.64 1103.24,-347 1103.24,-347 1103.24,-347 1103.24,-177 1103.24,-79.89 945.8,-67.44 877.85,-66.59"/>
<polygon fill="midnightblue" stroke="midnightblue" points="877.77,-63.09 867.75,-66.54 877.74,-70.09 877.77,-63.09"/>
</g>
<!-- Node3&#45;&gt;Node4 -->
<g id="edge3" class="edge">
<title>Node3&#45;&gt;Node4</title>
<path fill="none" stroke="midnightblue" d="M242.75,-448.41C260.55,-436 288.06,-412.31 274.24,-392 259.14,-369.81 231.25,-358.56 206.83,-352.86"/>
<polygon fill="midnightblue" stroke="midnightblue" points="207.49,-349.42 196.98,-350.81 206.06,-356.28 207.49,-349.42"/>
</g>
<!-- Node5 -->
<g id="node5" class="node">
<title>Node5</title>
<g id="a_node5"><a xlink:title=" ">
<polygon fill="white" stroke="#bfbfbf" points="123.24,-392.5 123.24,-411.5 169.24,-411.5 169.24,-392.5 123.24,-392.5"/>
<text text-anchor="middle" x="146.24" y="-399.5" font-family="Helvetica,sans-Serif" font-size="10.00">atomic</text>
</a>
</g>
</g>
<!-- Node3&#45;&gt;Node5 -->
<g id="edge4" class="edge">
<title>Node3&#45;&gt;Node5</title>
<path fill="none" stroke="midnightblue" d="M215.9,-448.32C203.08,-439.98 183.45,-427.21 168.3,-417.35"/>
<polygon fill="midnightblue" stroke="midnightblue" points="169.83,-414.17 159.54,-411.65 166.01,-420.04 169.83,-414.17"/>
</g>
<!-- Node6 -->
<g id="node6" class="node">
<title>Node6</title>
<g id="a_node6"><a xlink:title=" ">
<polygon fill="white" stroke="#bfbfbf" points="187.24,-392.5 187.24,-411.5 265.24,-411.5 265.24,-392.5 187.24,-392.5"/>
<text text-anchor="middle" x="226.24" y="-399.5" font-family="Helvetica,sans-Serif" font-size="10.00">shared_mutex</text>
</a>
</g>
</g>
<!-- Node3&#45;&gt;Node6 -->
<g id="edge5" class="edge">
<title>Node3&#45;&gt;Node6</title>
<path fill="none" stroke="midnightblue" d="M228.74,-448.08C228.35,-441.01 227.79,-430.86 227.29,-421.99"/>
<polygon fill="midnightblue" stroke="midnightblue" points="230.77,-421.54 226.72,-411.75 223.78,-421.93 230.77,-421.54"/>
</g>
<!-- Node7&#45;&gt;Node4 -->
<g id="edge7" class="edge">
<title>Node7&#45;&gt;Node4</title>
<path fill="none" stroke="midnightblue" d="M321.9,-448.1C317.79,-434.18 307.99,-407.29 290.24,-392 266.81,-371.82 233.83,-360.54 206.95,-354.32"/>
<polygon fill="midnightblue" stroke="midnightblue" points="207.5,-350.86 196.98,-352.18 206.02,-357.7 207.5,-350.86"/>
</g>
<!-- Node8&#45;&gt;Node4 -->
<g id="edge9" class="edge">
<title>Node8&#45;&gt;Node4</title>
<path fill="none" stroke="midnightblue" d="M58.47,-448.47C60.79,-435.07 66.92,-408.88 81.24,-392 93.33,-377.74 111.14,-367.05 126.79,-359.67"/>
<polygon fill="midnightblue" stroke="midnightblue" points="128.46,-362.76 136.18,-355.5 125.62,-356.36 128.46,-362.76"/>
</g>
<!-- Node10 -->
<g id="node10" class="node">
<title>Node10</title>
<g id="a_node10"><a xlink:href="a00011.html" target="_top" xlink:title=" ">
<polygon fill="white" stroke="black" points="400.24,-56.5 400.24,-75.5 492.24,-75.5 492.24,-56.5 400.24,-56.5"/>
<text text-anchor="middle" x="446.24" y="-63.5" font-family="Helvetica,sans-Serif" font-size="10.00">MiraiCPMacros.h</text>
</a>
</g>
</g>
<!-- Node9&#45;&gt;Node10 -->
<g id="edge11" class="edge">
<title>Node9&#45;&gt;Node10</title>
<path fill="none" stroke="midnightblue" d="M420.95,-448.41C373.59,-428.53 267.24,-374.58 267.24,-291 267.24,-291 267.24,-291 267.24,-177 267.24,-118.4 337.73,-90.03 390.24,-77.03"/>
<polygon fill="midnightblue" stroke="midnightblue" points="391.21,-80.39 400.14,-74.7 389.61,-73.58 391.21,-80.39"/>
</g>
<!-- Node12 -->
<g id="node12" class="node">
<title>Node12</title>
<g id="a_node12"><a xlink:href="a00086.html" target="_top" xlink:title=" ">
<polygon fill="white" stroke="black" points="815.24,-392.5 815.24,-411.5 883.24,-411.5 883.24,-392.5 815.24,-392.5"/>
<text text-anchor="middle" x="849.24" y="-399.5" font-family="Helvetica,sans-Serif" font-size="10.00">Exception.h</text>
</a>
</g>
</g>
<!-- Node9&#45;&gt;Node12 -->
<g id="edge13" class="edge">
<title>Node9&#45;&gt;Node12</title>
<path fill="none" stroke="midnightblue" d="M487.85,-451.07C566.11,-440.66 727.23,-419.23 805.13,-408.87"/>
<polygon fill="midnightblue" stroke="midnightblue" points="805.66,-412.33 815.11,-407.54 804.73,-405.39 805.66,-412.33"/>
</g>
<!-- Node27 -->
<g id="node27" class="node">
<title>Node27</title>
<g id="a_node27"><a xlink:href="a00134.html" target="_top" xlink:title=" ">
<polygon fill="white" stroke="black" points="397.24,-392.5 397.24,-411.5 489.24,-411.5 489.24,-392.5 397.24,-392.5"/>
<text text-anchor="middle" x="443.24" y="-399.5" font-family="Helvetica,sans-Serif" font-size="10.00">SingleMessage.h</text>
</a>
</g>
</g>
<!-- Node9&#45;&gt;Node27 -->
<g id="edge36" class="edge">
<title>Node9&#45;&gt;Node27</title>
<path fill="none" stroke="midnightblue" d="M443.24,-448.08C443.24,-441.01 443.24,-430.86 443.24,-421.99"/>
<polygon fill="midnightblue" stroke="midnightblue" points="446.74,-421.75 443.24,-411.75 439.74,-421.75 446.74,-421.75"/>
</g>
<!-- Node32 -->
<g id="node32" class="node">
<title>Node32</title>
<g id="a_node32"><a xlink:href="a00002.html" target="_top" xlink:title=" ">
<polygon fill="white" stroke="black" points="875.24,-280.5 875.24,-299.5 961.24,-299.5 961.24,-280.5 875.24,-280.5"/>
<text text-anchor="middle" x="918.24" y="-287.5" font-family="Helvetica,sans-Serif" font-size="10.00">commonTools.h</text>
</a>
</g>
</g>
<!-- Node9&#45;&gt;Node32 -->
<g id="edge49" class="edge">
<title>Node9&#45;&gt;Node32</title>
<path fill="none" stroke="midnightblue" d="M487.84,-455.62C586.32,-452.09 819.4,-440.85 892.24,-412 930.26,-396.94 947.15,-392.67 965.24,-356 974.47,-337.28 956.78,-318.2 940.53,-305.6"/>
<polygon fill="midnightblue" stroke="midnightblue" points="942.46,-302.68 932.31,-299.64 938.35,-308.34 942.46,-302.68"/>
</g>
<!-- Node11 -->
<g id="node11" class="node">
<title>Node11</title>
<g id="a_node11"><a xlink:title=" ">
<polygon fill="white" stroke="#bfbfbf" points="458.74,-0.5 458.74,-19.5 507.74,-19.5 507.74,-0.5 458.74,-0.5"/>
<text text-anchor="middle" x="483.24" y="-7.5" font-family="Helvetica,sans-Serif" font-size="10.00">cassert</text>
</a>
</g>
</g>
<!-- Node10&#45;&gt;Node11 -->
<g id="edge12" class="edge">
<title>Node10&#45;&gt;Node11</title>
<path fill="none" stroke="midnightblue" d="M452.35,-56.08C457.52,-48.53 465.08,-37.49 471.43,-28.23"/>
<polygon fill="midnightblue" stroke="midnightblue" points="474.48,-29.98 477.24,-19.75 468.7,-26.02 474.48,-29.98"/>
</g>
<!-- Node12&#45;&gt;Node10 -->
<g id="edge14" class="edge">
<title>Node12&#45;&gt;Node10</title>
<path fill="none" stroke="midnightblue" d="M878.01,-392.42C907.77,-381.94 947.84,-362.28 932.24,-336 915.18,-307.27 891.22,-322.19 866.24,-300 835.26,-272.49 840.9,-253.93 812.24,-224 756.16,-165.44 741.92,-145.84 668.24,-112 615.08,-87.59 548.74,-76.35 502.49,-71.22"/>
<polygon fill="midnightblue" stroke="midnightblue" points="502.67,-67.72 492.36,-70.16 501.94,-74.68 502.67,-67.72"/>
</g>
<!-- Node13 -->
<g id="node13" class="node">
<title>Node13</title>
<g id="a_node13"><a xlink:href="a00080.html" target="_top" xlink:title=" ">
<polygon fill="white" stroke="black" points="851.24,-336.5 851.24,-355.5 923.24,-355.5 923.24,-336.5 851.24,-336.5"/>
<text text-anchor="middle" x="887.24" y="-343.5" font-family="Helvetica,sans-Serif" font-size="10.00">CPPPlugin.h</text>
</a>
</g>
</g>
<!-- Node12&#45;&gt;Node13 -->
<g id="edge15" class="edge">
<title>Node12&#45;&gt;Node13</title>
<path fill="none" stroke="midnightblue" d="M855.51,-392.08C860.88,-384.46 868.76,-373.26 875.32,-363.94"/>
<polygon fill="midnightblue" stroke="midnightblue" points="878.19,-365.94 881.08,-355.75 872.46,-361.91 878.19,-365.94"/>
</g>
<!-- Node12&#45;&gt;Node16 -->
<g id="edge34" class="edge">
<title>Node12&#45;&gt;Node16</title>
<path fill="none" stroke="midnightblue" d="M883.36,-395.55C908.97,-389.8 943.27,-378.33 965.24,-356 986.83,-334.05 989.24,-321.8 989.24,-291 989.24,-291 989.24,-291 989.24,-177 989.24,-120.97 919.28,-89.4 877.57,-75.56"/>
<polygon fill="midnightblue" stroke="midnightblue" points="878.48,-72.17 867.89,-72.49 876.36,-78.85 878.48,-72.17"/>
</g>
<!-- Node25 -->
<g id="node25" class="node">
<title>Node25</title>
<g id="a_node25"><a xlink:title=" ">
<polygon fill="white" stroke="#bfbfbf" points="711.74,-336.5 711.74,-355.5 770.74,-355.5 770.74,-336.5 711.74,-336.5"/>
<text text-anchor="middle" x="741.24" y="-343.5" font-family="Helvetica,sans-Serif" font-size="10.00">exception</text>
</a>
</g>
</g>
<!-- Node12&#45;&gt;Node25 -->
<g id="edge33" class="edge">
<title>Node12&#45;&gt;Node25</title>
<path fill="none" stroke="midnightblue" d="M831.89,-392.32C814.57,-383.66 787.72,-370.24 767.74,-360.25"/>
<polygon fill="midnightblue" stroke="midnightblue" points="769.06,-357 758.55,-355.65 765.93,-363.26 769.06,-357"/>
</g>
<!-- Node26 -->
<g id="node26" class="node">
<title>Node26</title>
<g id="a_node26"><a xlink:title=" ">
<polygon fill="white" stroke="#bfbfbf" points="789.24,-336.5 789.24,-355.5 833.24,-355.5 833.24,-336.5 789.24,-336.5"/>
<text text-anchor="middle" x="811.24" y="-343.5" font-family="Helvetica,sans-Serif" font-size="10.00">thread</text>
</a>
</g>
</g>
<!-- Node12&#45;&gt;Node26 -->
<g id="edge35" class="edge">
<title>Node12&#45;&gt;Node26</title>
<path fill="none" stroke="midnightblue" d="M842.96,-392.08C837.6,-384.46 829.72,-373.26 823.16,-363.94"/>
<polygon fill="midnightblue" stroke="midnightblue" points="826.01,-361.91 817.4,-355.75 820.29,-365.94 826.01,-361.91"/>
</g>
<!-- Node14 -->
<g id="node14" class="node">
<title>Node14</title>
<g id="a_node14"><a xlink:href="a00107.html" target="_top" xlink:title=" ">
<polygon fill="white" stroke="black" points="601.24,-280.5 601.24,-299.5 655.24,-299.5 655.24,-280.5 601.24,-280.5"/>
<text text-anchor="middle" x="628.24" y="-287.5" font-family="Helvetica,sans-Serif" font-size="10.00">Logger.h</text>
</a>
</g>
</g>
<!-- Node13&#45;&gt;Node14 -->
<g id="edge16" class="edge">
<title>Node13&#45;&gt;Node14</title>
<path fill="none" stroke="midnightblue" d="M851.22,-337.49C802.17,-327.26 714.8,-309.05 665.24,-298.72"/>
<polygon fill="midnightblue" stroke="midnightblue" points="665.77,-295.25 655.27,-296.64 664.34,-302.1 665.77,-295.25"/>
</g>
<!-- Node18 -->
<g id="node18" class="node">
<title>Node18</title>
<g id="a_node18"><a xlink:href="a00020.html" target="_top" xlink:title=" ">
<polygon fill="white" stroke="black" points="589.74,-168.5 589.74,-187.5 668.74,-187.5 668.74,-168.5 589.74,-168.5"/>
<text text-anchor="middle" x="629.24" y="-175.5" font-family="Helvetica,sans-Serif" font-size="10.00">PluginConfig.h</text>
</a>
</g>
</g>
<!-- Node13&#45;&gt;Node18 -->
<g id="edge31" class="edge">
<title>Node13&#45;&gt;Node18</title>
<path fill="none" stroke="midnightblue" d="M874.54,-336.46C862.82,-328.13 845.44,-314.62 833.24,-300 808.37,-270.2 820.8,-247.92 790.24,-224 758.34,-199.03 713.38,-187.91 679.07,-182.96"/>
<polygon fill="midnightblue" stroke="midnightblue" points="679.16,-179.45 668.79,-181.62 678.25,-186.39 679.16,-179.45"/>
</g>
<!-- Node13&#45;&gt;Node24 -->
<g id="edge32" class="edge">
<title>Node13&#45;&gt;Node24</title>
<path fill="none" stroke="midnightblue" d="M867.27,-336.44C846.63,-327.6 814.17,-313.69 790.61,-303.59"/>
<polygon fill="midnightblue" stroke="midnightblue" points="791.68,-300.24 781.11,-299.52 788.92,-306.67 791.68,-300.24"/>
</g>
<!-- Node15 -->
<g id="node15" class="node">
<title>Node15</title>
<g id="a_node15"><a xlink:href="a00122.html" target="_top" xlink:title=" ">
<polygon fill="white" stroke="black" points="637.24,-224.5 637.24,-243.5 705.24,-243.5 705.24,-224.5 637.24,-224.5"/>
<text text-anchor="middle" x="671.24" y="-231.5" font-family="Helvetica,sans-Serif" font-size="10.00">MiraiCode.h</text>
</a>
</g>
</g>
<!-- Node14&#45;&gt;Node15 -->
<g id="edge17" class="edge">
<title>Node14&#45;&gt;Node15</title>
<path fill="none" stroke="midnightblue" d="M635.34,-280.08C641.47,-272.38 650.51,-261.03 657.98,-251.65"/>
<polygon fill="midnightblue" stroke="midnightblue" points="660.78,-253.75 664.27,-243.75 655.3,-249.39 660.78,-253.75"/>
</g>
<!-- Node17 -->
<g id="node17" class="node">
<title>Node17</title>
<g id="a_node17"><a xlink:href="a00005.html" target="_top" xlink:title=" ">
<polygon fill="white" stroke="black" points="421.74,-224.5 421.74,-243.5 510.74,-243.5 510.74,-224.5 421.74,-224.5"/>
<text text-anchor="middle" x="466.24" y="-231.5" font-family="Helvetica,sans-Serif" font-size="10.00">commonTypes.h</text>
</a>
</g>
</g>
<!-- Node14&#45;&gt;Node17 -->
<g id="edge19" class="edge">
<title>Node14&#45;&gt;Node17</title>
<path fill="none" stroke="midnightblue" d="M602.57,-280.44C575.31,-271.36 532.05,-256.94 501.59,-246.78"/>
<polygon fill="midnightblue" stroke="midnightblue" points="502.38,-243.36 491.79,-243.52 500.17,-250 502.38,-243.36"/>
</g>
<!-- Node22 -->
<g id="node22" class="node">
<title>Node22</title>
<g id="a_node22"><a xlink:title=" ">
<polygon fill="white" stroke="#bfbfbf" points="723.24,-224.5 723.24,-243.5 781.24,-243.5 781.24,-224.5 723.24,-224.5"/>
<text text-anchor="middle" x="752.24" y="-231.5" font-family="Helvetica,sans-Serif" font-size="10.00">functional</text>
</a>
</g>
</g>
<!-- Node14&#45;&gt;Node22 -->
<g id="edge29" class="edge">
<title>Node14&#45;&gt;Node22</title>
<path fill="none" stroke="midnightblue" d="M647.89,-280.44C668.2,-271.6 700.14,-257.69 723.34,-247.59"/>
<polygon fill="midnightblue" stroke="midnightblue" points="724.91,-250.72 732.68,-243.52 722.12,-244.3 724.91,-250.72"/>
</g>
<!-- Node23 -->
<g id="node23" class="node">
<title>Node23</title>
<g id="a_node23"><a xlink:title=" ">
<polygon fill="white" stroke="#bfbfbf" points="567.24,-224.5 567.24,-243.5 619.24,-243.5 619.24,-224.5 567.24,-224.5"/>
<text text-anchor="middle" x="593.24" y="-231.5" font-family="Helvetica,sans-Serif" font-size="10.00">sstream</text>
</a>
</g>
</g>
<!-- Node14&#45;&gt;Node23 -->
<g id="edge30" class="edge">
<title>Node14&#45;&gt;Node23</title>
<path fill="none" stroke="midnightblue" d="M622.46,-280.08C617.57,-272.53 610.41,-261.49 604.4,-252.23"/>
<polygon fill="midnightblue" stroke="midnightblue" points="607.29,-250.24 598.91,-243.75 601.41,-254.05 607.29,-250.24"/>
</g>
<!-- Node15&#45;&gt;Node16 -->
<g id="edge18" class="edge">
<title>Node15&#45;&gt;Node16</title>
<path fill="none" stroke="midnightblue" d="M705.54,-225.02C740.03,-216.37 790.08,-201.94 804.24,-188 832.6,-160.06 842.32,-112.23 845.6,-85.84"/>
<polygon fill="midnightblue" stroke="midnightblue" points="849.1,-85.99 846.67,-75.67 842.14,-85.25 849.1,-85.99"/>
</g>
<!-- Node17&#45;&gt;Node10 -->
<g id="edge20" class="edge">
<title>Node17&#45;&gt;Node10</title>
<path fill="none" stroke="midnightblue" d="M465.16,-224.08C462.01,-197.95 452.77,-121.21 448.48,-85.58"/>
<polygon fill="midnightblue" stroke="midnightblue" points="451.94,-85.08 447.27,-75.57 444.99,-85.92 451.94,-85.08"/>
</g>
<!-- Node17&#45;&gt;Node18 -->
<g id="edge21" class="edge">
<title>Node17&#45;&gt;Node18</title>
<path fill="none" stroke="midnightblue" d="M492.07,-224.44C519.49,-215.36 563.01,-200.94 593.67,-190.78"/>
<polygon fill="midnightblue" stroke="midnightblue" points="595.14,-193.98 603.53,-187.52 592.94,-187.34 595.14,-193.98"/>
</g>
<!-- Node21 -->
<g id="node21" class="node">
<title>Node21</title>
<g id="a_node21"><a xlink:href="a00008.html" target="_top" xlink:title=" ">
<polygon fill="white" stroke="black" points="473.74,-168.5 473.74,-187.5 570.74,-187.5 570.74,-168.5 473.74,-168.5"/>
<text text-anchor="middle" x="522.24" y="-175.5" font-family="Helvetica,sans-Serif" font-size="10.00">loaderApiInternal.h</text>
</a>
</g>
</g>
<!-- Node17&#45;&gt;Node21 -->
<g id="edge27" class="edge">
<title>Node17&#45;&gt;Node21</title>
<path fill="none" stroke="midnightblue" d="M475.23,-224.32C483.43,-216.42 495.74,-204.55 505.71,-194.94"/>
<polygon fill="midnightblue" stroke="midnightblue" points="508.31,-197.29 513.08,-187.83 503.45,-192.26 508.31,-197.29"/>
</g>
<!-- Node19 -->
<g id="node19" class="node">
<title>Node19</title>
<g id="a_node19"><a xlink:href="a00014.html" target="_top" xlink:title=" ">
<polygon fill="white" stroke="black" points="471.24,-112.5 471.24,-131.5 587.24,-131.5 587.24,-112.5 471.24,-112.5"/>
<text text-anchor="middle" x="529.24" y="-119.5" font-family="Helvetica,sans-Serif" font-size="10.00">MiraiCPStringInternal.h</text>
</a>
</g>
</g>
<!-- Node18&#45;&gt;Node19 -->
<g id="edge22" class="edge">
<title>Node18&#45;&gt;Node19</title>
<path fill="none" stroke="midnightblue" d="M613.17,-168.32C597.28,-159.74 572.73,-146.49 554.28,-136.52"/>
<polygon fill="midnightblue" stroke="midnightblue" points="555.73,-133.33 545.26,-131.65 552.4,-139.49 555.73,-133.33"/>
</g>
<!-- Node20 -->
<g id="node20" class="node">
<title>Node20</title>
<g id="a_node20"><a xlink:title=" ">
<polygon fill="white" stroke="#bfbfbf" points="605.74,-112.5 605.74,-131.5 658.74,-131.5 658.74,-112.5 605.74,-112.5"/>
<text text-anchor="middle" x="632.24" y="-119.5" font-family="Helvetica,sans-Serif" font-size="10.00">json.hpp</text>
</a>
</g>
</g>
<!-- Node18&#45;&gt;Node20 -->
<g id="edge26" class="edge">
<title>Node18&#45;&gt;Node20</title>
<path fill="none" stroke="midnightblue" d="M629.73,-168.08C630.13,-161.01 630.69,-150.86 631.18,-141.99"/>
<polygon fill="midnightblue" stroke="midnightblue" points="634.69,-141.93 631.75,-131.75 627.7,-141.54 634.69,-141.93"/>
</g>
<!-- Node19&#45;&gt;Node10 -->
<g id="edge23" class="edge">
<title>Node19&#45;&gt;Node10</title>
<path fill="none" stroke="midnightblue" d="M515.9,-112.32C503.08,-103.98 483.45,-91.21 468.3,-81.35"/>
<polygon fill="midnightblue" stroke="midnightblue" points="469.83,-78.17 459.54,-75.65 466.01,-84.04 469.83,-78.17"/>
</g>
<!-- Node19&#45;&gt;Node11 -->
<g id="edge24" class="edge">
<title>Node19&#45;&gt;Node11</title>
<path fill="none" stroke="midnightblue" d="M525.63,-112.37C518.14,-94.46 500.77,-52.92 490.74,-28.95"/>
<polygon fill="midnightblue" stroke="midnightblue" points="493.92,-27.47 486.83,-19.59 487.46,-30.17 493.92,-27.47"/>
</g>
<!-- Node19&#45;&gt;Node16 -->
<g id="edge25" class="edge">
<title>Node19&#45;&gt;Node16</title>
<path fill="none" stroke="midnightblue" d="M579.63,-112.44C646.28,-101.12 761.73,-81.52 816.59,-72.2"/>
<polygon fill="midnightblue" stroke="midnightblue" points="817.45,-75.61 826.72,-70.48 816.27,-68.71 817.45,-75.61"/>
</g>
<!-- Node21&#45;&gt;Node19 -->
<g id="edge28" class="edge">
<title>Node21&#45;&gt;Node19</title>
<path fill="none" stroke="midnightblue" d="M523.39,-168.08C524.32,-160.93 525.66,-150.64 526.81,-141.69"/>
<polygon fill="midnightblue" stroke="midnightblue" points="530.29,-142.12 528.1,-131.75 523.35,-141.22 530.29,-142.12"/>
</g>
<!-- Node27&#45;&gt;Node4 -->
<g id="edge44" class="edge">
<title>Node27&#45;&gt;Node4</title>
<path fill="none" stroke="midnightblue" d="M398.4,-392.44C345.98,-382.44 259.66,-365.97 206.6,-355.85"/>
<polygon fill="midnightblue" stroke="midnightblue" points="207.25,-352.41 196.77,-353.97 205.94,-359.28 207.25,-352.41"/>
</g>
<!-- Node27&#45;&gt;Node10 -->
<g id="edge37" class="edge">
<title>Node27&#45;&gt;Node10</title>
<path fill="none" stroke="midnightblue" d="M414.64,-392.49C374.22,-378.48 305.24,-346.46 305.24,-291 305.24,-291 305.24,-291 305.24,-177 305.24,-125.26 364.98,-94.27 406.69,-78.94"/>
<polygon fill="midnightblue" stroke="midnightblue" points="408.06,-82.17 416.34,-75.55 405.74,-75.56 408.06,-82.17"/>
</g>
<!-- Node27&#45;&gt;Node15 -->
<g id="edge42" class="edge">
<title>Node27&#45;&gt;Node15</title>
<path fill="none" stroke="midnightblue" d="M489.37,-398.07C547.31,-393.35 641.87,-381.82 664.24,-356 688.95,-327.47 682.47,-279.52 676.37,-253.36"/>
<polygon fill="midnightblue" stroke="midnightblue" points="679.75,-252.43 673.88,-243.61 672.97,-254.17 679.75,-252.43"/>
</g>
<!-- Node27&#45;&gt;Node23 -->
<g id="edge46" class="edge">
<title>Node27&#45;&gt;Node23</title>
<path fill="none" stroke="midnightblue" d="M437.18,-392.48C428.8,-379.54 415.81,-354.49 426.24,-336 454.16,-286.48 517.22,-258.49 557.36,-245.07"/>
<polygon fill="midnightblue" stroke="midnightblue" points="558.58,-248.36 567.04,-241.97 556.44,-241.69 558.58,-248.36"/>
</g>
<!-- Node27&#45;&gt;Node24 -->
<g id="edge48" class="edge">
<title>Node27&#45;&gt;Node24</title>
<path fill="none" stroke="midnightblue" d="M439.03,-392.2C433.13,-378.42 424.57,-351.71 438.24,-336 447.82,-324.99 651.71,-302.5 730.52,-294.18"/>
<polygon fill="midnightblue" stroke="midnightblue" points="731.2,-297.63 740.78,-293.11 730.47,-290.67 731.2,-297.63"/>
</g>
<!-- Node28 -->
<g id="node28" class="node">
<title>Node28</title>
<g id="a_node28"><a xlink:href="a00119.html" target="_top" xlink:title=" ">
<polygon fill="white" stroke="black" points="333.74,-280.5 333.74,-299.5 428.74,-299.5 428.74,-280.5 333.74,-280.5"/>
<text text-anchor="middle" x="381.24" y="-287.5" font-family="Helvetica,sans-Serif" font-size="10.00">MessageSource.h</text>
</a>
</g>
</g>
<!-- Node27&#45;&gt;Node28 -->
<g id="edge38" class="edge">
<title>Node27&#45;&gt;Node28</title>
<path fill="none" stroke="midnightblue" d="M415.22,-392.4C398.06,-385.51 377.49,-373.98 367.24,-356 358.87,-341.31 364.65,-322.16 371.14,-308.45"/>
<polygon fill="midnightblue" stroke="midnightblue" points="374.25,-310.06 375.8,-299.58 368.05,-306.81 374.25,-310.06"/>
</g>
<!-- Node29 -->
<g id="node29" class="node">
<title>Node29</title>
<g id="a_node29"><a xlink:title=" ">
<polygon fill="white" stroke="#bfbfbf" points="447.24,-336.5 447.24,-355.5 485.24,-355.5 485.24,-336.5 447.24,-336.5"/>
<text text-anchor="middle" x="466.24" y="-343.5" font-family="Helvetica,sans-Serif" font-size="10.00">array</text>
</a>
</g>
</g>
<!-- Node27&#45;&gt;Node29 -->
<g id="edge43" class="edge">
<title>Node27&#45;&gt;Node29</title>
<path fill="none" stroke="midnightblue" d="M447.04,-392.08C450.15,-384.77 454.66,-374.18 458.53,-365.1"/>
<polygon fill="midnightblue" stroke="midnightblue" points="461.81,-366.32 462.51,-355.75 455.37,-363.58 461.81,-366.32"/>
</g>
<!-- Node30 -->
<g id="node30" class="node">
<title>Node30</title>
<g id="a_node30"><a xlink:title=" ">
<polygon fill="white" stroke="#bfbfbf" points="503.24,-336.5 503.24,-355.5 553.24,-355.5 553.24,-336.5 503.24,-336.5"/>
<text text-anchor="middle" x="528.24" y="-343.5" font-family="Helvetica,sans-Serif" font-size="10.00">optional</text>
</a>
</g>
</g>
<!-- Node27&#45;&gt;Node30 -->
<g id="edge45" class="edge">
<title>Node27&#45;&gt;Node30</title>
<path fill="none" stroke="midnightblue" d="M456.89,-392.32C470.15,-383.9 490.51,-370.97 506.08,-361.07"/>
<polygon fill="midnightblue" stroke="midnightblue" points="508.05,-363.97 514.61,-355.65 504.3,-358.06 508.05,-363.97"/>
</g>
<!-- Node31 -->
<g id="node31" class="node">
<title>Node31</title>
<g id="a_node31"><a xlink:title=" ">
<polygon fill="white" stroke="#bfbfbf" points="571.74,-336.5 571.74,-355.5 654.74,-355.5 654.74,-336.5 571.74,-336.5"/>
<text text-anchor="middle" x="613.24" y="-343.5" font-family="Helvetica,sans-Serif" font-size="10.00">unordered_map</text>
</a>
</g>
</g>
<!-- Node27&#45;&gt;Node31 -->
<g id="edge47" class="edge">
<title>Node27&#45;&gt;Node31</title>
<path fill="none" stroke="midnightblue" d="M470.17,-392.44C498.9,-383.32 544.57,-368.81 576.56,-358.65"/>
<polygon fill="midnightblue" stroke="midnightblue" points="577.96,-361.88 586.43,-355.52 575.84,-355.21 577.96,-361.88"/>
</g>
<!-- Node28&#45;&gt;Node10 -->
<g id="edge39" class="edge">
<title>Node28&#45;&gt;Node10</title>
<path fill="none" stroke="midnightblue" d="M383.79,-280.3C393.37,-247.56 427.39,-131.38 440.77,-85.67"/>
<polygon fill="midnightblue" stroke="midnightblue" points="444.19,-86.46 443.64,-75.88 437.47,-84.5 444.19,-86.46"/>
</g>
<!-- Node28&#45;&gt;Node16 -->
<g id="edge41" class="edge">
<title>Node28&#45;&gt;Node16</title>
<path fill="none" stroke="midnightblue" d="M412.71,-280.48C441.25,-272.37 484.24,-259.17 520.24,-244 537.83,-236.59 540.57,-231.22 558.24,-224 609.78,-202.94 628.26,-212.54 678.24,-188 738.67,-158.33 800.79,-107.63 830.03,-82.32"/>
<polygon fill="midnightblue" stroke="midnightblue" points="832.47,-84.83 837.69,-75.61 827.86,-79.56 832.47,-84.83"/>
</g>
<!-- Node28&#45;&gt;Node17 -->
<g id="edge40" class="edge">
<title>Node28&#45;&gt;Node17</title>
<path fill="none" stroke="midnightblue" d="M394.89,-280.32C408.15,-271.9 428.51,-258.97 444.08,-249.07"/>
<polygon fill="midnightblue" stroke="midnightblue" points="446.05,-251.97 452.61,-243.65 442.3,-246.06 446.05,-251.97"/>
</g>
<!-- Node32&#45;&gt;Node10 -->
<g id="edge50" class="edge">
<title>Node32&#45;&gt;Node10</title>
<path fill="none" stroke="midnightblue" d="M913.07,-280.4C894.79,-250.88 829.83,-153.18 747.24,-112 705.41,-91.15 577.62,-77.62 502.67,-71.26"/>
<polygon fill="midnightblue" stroke="midnightblue" points="502.72,-67.75 492.46,-70.41 502.14,-74.73 502.72,-67.75"/>
</g>
<!-- Node32&#45;&gt;Node22 -->
<g id="edge51" class="edge">
<title>Node32&#45;&gt;Node22</title>
<path fill="none" stroke="midnightblue" d="M891.93,-280.44C863.89,-271.32 819.29,-256.81 788.05,-246.65"/>
<polygon fill="midnightblue" stroke="midnightblue" points="789.01,-243.28 778.42,-243.52 786.84,-249.94 789.01,-243.28"/>
</g>
</g>
</svg>
