<?xml version="1.0" encoding="UTF-8" standalone="no"?>
<!DOCTYPE svg PUBLIC "-//W3C//DTD SVG 1.1//EN"
 "http://www.w3.org/Graphics/SVG/1.1/DTD/svg11.dtd">
<!-- Generated by graphviz version 2.50.0 (20211204.2007)
 -->
<!-- Title: Contact.h Pages: 1 -->
<svg width="2348pt" height="252pt"
 viewBox="0.00 0.00 2348.00 252.00" xmlns="http://www.w3.org/2000/svg" xmlns:xlink="http://www.w3.org/1999/xlink">
<g id="graph0" class="graph" transform="scale(1 1) rotate(0) translate(4 248)">
<title>Contact.h</title>
<polygon fill="white" stroke="transparent" points="-4,4 -4,-248 2344,-248 2344,4 -4,4"/>
<!-- Node1 -->
<g id="node1" class="node">
<title>Node1</title>
<g id="a_node1"><a xlink:title=" ">
<polygon fill="#bfbfbf" stroke="black" points="1936,-224.5 1936,-243.5 1995,-243.5 1995,-224.5 1936,-224.5"/>
<text text-anchor="middle" x="1965.5" y="-231.5" font-family="Helvetica,sans-Serif" font-size="10.00">Contact.h</text>
</a>
</g>
</g>
<!-- Node2 -->
<g id="node2" class="node">
<title>Node2</title>
<g id="a_node2"><a xlink:href="a00050.html" target="_top" xlink:title=" ">
<polygon fill="white" stroke="black" points="1878.5,-168.5 1878.5,-187.5 1918.5,-187.5 1918.5,-168.5 1878.5,-168.5"/>
<text text-anchor="middle" x="1898.5" y="-175.5" font-family="Helvetica,sans-Serif" font-size="10.00">Bot.h</text>
</a>
</g>
</g>
<!-- Node1&#45;&gt;Node2 -->
<g id="edge1" class="edge">
<title>Node1&#45;&gt;Node2</title>
<path fill="none" stroke="midnightblue" d="M1946.67,-217.82C1934.66,-208.15 1919.53,-195.95 1909.46,-187.83"/>
<polygon fill="midnightblue" stroke="midnightblue" points="1944.75,-220.77 1954.74,-224.32 1949.15,-215.32 1944.75,-220.77"/>
</g>
<!-- Node21 -->
<g id="node21" class="node">
<title>Node21</title>
<g id="a_node21"><a xlink:href="a00299.html" target="_top" xlink:title=" ">
<polygon fill="white" stroke="black" points="2271,-56.5 2271,-75.5 2340,-75.5 2340,-56.5 2271,-56.5"/>
<text text-anchor="middle" x="2305.5" y="-63.5" font-family="Helvetica,sans-Serif" font-size="10.00">Contact.cpp</text>
</a>
</g>
</g>
<!-- Node1&#45;&gt;Node21 -->
<g id="edge34" class="edge">
<title>Node1&#45;&gt;Node21</title>
<path fill="none" stroke="midnightblue" d="M1991.97,-219.62C2018.2,-206.39 2059.54,-185.64 2095.5,-168 2166.33,-133.26 2251.1,-92.84 2287.48,-75.55"/>
<polygon fill="midnightblue" stroke="midnightblue" points="1990.05,-216.66 1982.7,-224.29 1993.21,-222.91 1990.05,-216.66"/>
</g>
<!-- Node22 -->
<g id="node22" class="node">
<title>Node22</title>
<g id="a_node22"><a xlink:href="a01385.html" target="_top" xlink:title=" ">
<polygon fill="white" stroke="black" points="2104.5,-168.5 2104.5,-187.5 2224.5,-187.5 2224.5,-168.5 2104.5,-168.5"/>
<text text-anchor="middle" x="2164.5" y="-175.5" font-family="Helvetica,sans-Serif" font-size="10.00">ForwardedMessage.cpp</text>
</a>
</g>
</g>
<!-- Node1&#45;&gt;Node22 -->
<g id="edge35" class="edge">
<title>Node1&#45;&gt;Node22</title>
<path fill="none" stroke="midnightblue" d="M2005.36,-222.18C2042.87,-212 2098.3,-196.97 2132.86,-187.59"/>
<polygon fill="midnightblue" stroke="midnightblue" points="2004.03,-218.92 1995.29,-224.92 2005.86,-225.67 2004.03,-218.92"/>
</g>
<!-- Node23 -->
<g id="node23" class="node">
<title>Node23</title>
<g id="a_node23"><a xlink:href="a00128.html" target="_top" xlink:title=" ">
<polygon fill="white" stroke="black" points="1958.5,-112.5 1958.5,-131.5 2010.5,-131.5 2010.5,-112.5 1958.5,-112.5"/>
<text text-anchor="middle" x="1984.5" y="-119.5" font-family="Helvetica,sans-Serif" font-size="10.00">Friend.h</text>
</a>
</g>
</g>
<!-- Node1&#45;&gt;Node23 -->
<g id="edge36" class="edge">
<title>Node1&#45;&gt;Node23</title>
<path fill="none" stroke="midnightblue" d="M1968.72,-214.35C1972.88,-190.25 1979.96,-149.31 1983.02,-131.59"/>
<polygon fill="midnightblue" stroke="midnightblue" points="1965.24,-213.92 1966.99,-224.37 1972.14,-215.11 1965.24,-213.92"/>
</g>
<!-- Node25 -->
<g id="node25" class="node">
<title>Node25</title>
<g id="a_node25"><a xlink:href="a00131.html" target="_top" xlink:title=" ">
<polygon fill="white" stroke="black" points="1212,-112.5 1212,-131.5 1263,-131.5 1263,-112.5 1212,-112.5"/>
<text text-anchor="middle" x="1237.5" y="-119.5" font-family="Helvetica,sans-Serif" font-size="10.00">Group.h</text>
</a>
</g>
</g>
<!-- Node1&#45;&gt;Node25 -->
<g id="edge44" class="edge">
<title>Node1&#45;&gt;Node25</title>
<path fill="none" stroke="midnightblue" d="M1960.07,-214.49C1954.53,-199.2 1944.32,-178.39 1927.5,-168 1870.12,-132.55 1381.67,-124.66 1263.27,-123.26"/>
<polygon fill="midnightblue" stroke="midnightblue" points="1956.88,-215.99 1963.31,-224.41 1963.54,-213.82 1956.88,-215.99"/>
</g>
<!-- Node28 -->
<g id="node28" class="node">
<title>Node28</title>
<g id="a_node28"><a xlink:href="a01364.html" target="_top" xlink:title=" ">
<polygon fill="white" stroke="black" points="553.5,-112.5 553.5,-131.5 613.5,-131.5 613.5,-112.5 553.5,-112.5"/>
<text text-anchor="middle" x="583.5" y="-119.5" font-family="Helvetica,sans-Serif" font-size="10.00">Member.h</text>
</a>
</g>
</g>
<!-- Node1&#45;&gt;Node28 -->
<g id="edge58" class="edge">
<title>Node1&#45;&gt;Node28</title>
<path fill="none" stroke="midnightblue" d="M1925.74,-229.84C1721.51,-213.58 793.14,-139.69 613.61,-125.4"/>
<polygon fill="midnightblue" stroke="midnightblue" points="1925.75,-233.35 1936,-230.65 1926.3,-226.37 1925.75,-233.35"/>
</g>
<!-- Node3 -->
<g id="node3" class="node">
<title>Node3</title>
<g id="a_node3"><a xlink:href="a00293.html" target="_top" xlink:title=" ">
<polygon fill="white" stroke="black" points="2122.5,-56.5 2122.5,-75.5 2172.5,-75.5 2172.5,-56.5 2122.5,-56.5"/>
<text text-anchor="middle" x="2147.5" y="-63.5" font-family="Helvetica,sans-Serif" font-size="10.00">Bot.cpp</text>
</a>
</g>
</g>
<!-- Node2&#45;&gt;Node3 -->
<g id="edge2" class="edge">
<title>Node2&#45;&gt;Node3</title>
<path fill="none" stroke="midnightblue" d="M1928.45,-166.93C1953.17,-158.37 1989.01,-145.36 2019.5,-132 2061.05,-113.8 2108.21,-88.62 2132.01,-75.59"/>
<polygon fill="midnightblue" stroke="midnightblue" points="1927.23,-163.65 1918.91,-170.21 1929.5,-170.27 1927.23,-163.65"/>
</g>
<!-- Node4 -->
<g id="node4" class="node">
<title>Node4</title>
<g id="a_node4"><a xlink:href="a00065.html" target="_top" xlink:title=" ">
<polygon fill="white" stroke="black" points="999.5,-112.5 999.5,-131.5 1063.5,-131.5 1063.5,-112.5 999.5,-112.5"/>
<text text-anchor="middle" x="1031.5" y="-119.5" font-family="Helvetica,sans-Serif" font-size="10.00">BotEvent.h</text>
</a>
</g>
</g>
<!-- Node2&#45;&gt;Node4 -->
<g id="edge3" class="edge">
<title>Node2&#45;&gt;Node4</title>
<path fill="none" stroke="midnightblue" d="M1868.05,-175.1C1734.53,-166.79 1201.4,-133.58 1063.96,-125.02"/>
<polygon fill="midnightblue" stroke="midnightblue" points="1868.15,-178.62 1878.35,-175.74 1868.58,-171.63 1868.15,-178.62"/>
</g>
<!-- Node5 -->
<g id="node5" class="node">
<title>Node5</title>
<g id="a_node5"><a xlink:href="a00068.html" target="_top" xlink:title=" ">
<polygon fill="white" stroke="black" points="530,-56.5 530,-75.5 637,-75.5 637,-56.5 530,-56.5"/>
<text text-anchor="middle" x="583.5" y="-63.5" font-family="Helvetica,sans-Serif" font-size="10.00">BotJoinGroupEvent.h</text>
</a>
</g>
</g>
<!-- Node4&#45;&gt;Node5 -->
<g id="edge4" class="edge">
<title>Node4&#45;&gt;Node5</title>
<path fill="none" stroke="midnightblue" d="M989.1,-116.45C918,-108.73 770.22,-92.32 645.5,-76 642.8,-75.65 640.04,-75.28 637.26,-74.9"/>
<polygon fill="midnightblue" stroke="midnightblue" points="989.12,-119.97 999.44,-117.57 989.87,-113.01 989.12,-119.97"/>
</g>
<!-- Node7 -->
<g id="node7" class="node">
<title>Node7</title>
<g id="a_node7"><a xlink:href="a00071.html" target="_top" xlink:title=" ">
<polygon fill="white" stroke="black" points="655,-56.5 655,-75.5 744,-75.5 744,-56.5 655,-56.5"/>
<text text-anchor="middle" x="699.5" y="-63.5" font-family="Helvetica,sans-Serif" font-size="10.00">BotLeaveEvent.h</text>
</a>
</g>
</g>
<!-- Node4&#45;&gt;Node7 -->
<g id="edge6" class="edge">
<title>Node4&#45;&gt;Node7</title>
<path fill="none" stroke="midnightblue" d="M989.25,-114.3C934.59,-105.6 836.4,-89.89 752.5,-76 749.74,-75.54 746.89,-75.07 744.03,-74.59"/>
<polygon fill="midnightblue" stroke="midnightblue" points="988.84,-117.78 999.27,-115.89 989.94,-110.86 988.84,-117.78"/>
</g>
<!-- Node8 -->
<g id="node8" class="node">
<title>Node8</title>
<g id="a_node8"><a xlink:href="a00074.html" target="_top" xlink:title=" ">
<polygon fill="white" stroke="black" points="1052.5,-56.5 1052.5,-75.5 1144.5,-75.5 1144.5,-56.5 1052.5,-56.5"/>
<text text-anchor="middle" x="1098.5" y="-63.5" font-family="Helvetica,sans-Serif" font-size="10.00">BotOnlineEvent.h</text>
</a>
</g>
</g>
<!-- Node4&#45;&gt;Node8 -->
<g id="edge8" class="edge">
<title>Node4&#45;&gt;Node8</title>
<path fill="none" stroke="midnightblue" d="M1050.33,-105.82C1062.34,-96.15 1077.47,-83.95 1087.54,-75.83"/>
<polygon fill="midnightblue" stroke="midnightblue" points="1047.85,-103.32 1042.26,-112.32 1052.25,-108.77 1047.85,-103.32"/>
</g>
<!-- Node9 -->
<g id="node9" class="node">
<title>Node9</title>
<g id="a_node9"><a xlink:href="a00080.html" target="_top" xlink:title=" ">
<polygon fill="white" stroke="black" points="2001,-56.5 2001,-75.5 2104,-75.5 2104,-56.5 2001,-56.5"/>
<text text-anchor="middle" x="2052.5" y="-63.5" font-family="Helvetica,sans-Serif" font-size="10.00">FriendRecallEvent.h</text>
</a>
</g>
</g>
<!-- Node4&#45;&gt;Node9 -->
<g id="edge10" class="edge">
<title>Node4&#45;&gt;Node9</title>
<path fill="none" stroke="midnightblue" d="M1073.86,-118.69C1108.46,-116.82 1158.64,-114.15 1202.5,-112 1553.55,-94.76 1642.68,-110.11 1992.5,-76 1995.23,-75.73 1998.02,-75.43 2000.83,-75.1"/>
<polygon fill="midnightblue" stroke="midnightblue" points="1073.44,-115.2 1063.64,-119.24 1073.82,-122.19 1073.44,-115.2"/>
</g>
<!-- Node10 -->
<g id="node10" class="node">
<title>Node10</title>
<g id="a_node10"><a xlink:href="a00083.html" target="_top" xlink:title=" ">
<polygon fill="white" stroke="black" points="1737,-56.5 1737,-75.5 1834,-75.5 1834,-56.5 1737,-56.5"/>
<text text-anchor="middle" x="1785.5" y="-63.5" font-family="Helvetica,sans-Serif" font-size="10.00">GroupInviteEvent.h</text>
</a>
</g>
</g>
<!-- Node4&#45;&gt;Node10 -->
<g id="edge12" class="edge">
<title>Node4&#45;&gt;Node10</title>
<path fill="none" stroke="midnightblue" d="M1073.89,-118.76C1204.49,-111.77 1599.62,-90.03 1727.5,-76 1730.54,-75.67 1733.66,-75.29 1736.81,-74.88"/>
<polygon fill="midnightblue" stroke="midnightblue" points="1073.67,-115.26 1063.87,-119.29 1074.04,-122.25 1073.67,-115.26"/>
</g>
<!-- Node11 -->
<g id="node11" class="node">
<title>Node11</title>
<g id="a_node11"><a xlink:href="a00086.html" target="_top" xlink:title=" ">
<polygon fill="white" stroke="black" points="762,-56.5 762,-75.5 877,-75.5 877,-56.5 762,-56.5"/>
<text text-anchor="middle" x="819.5" y="-63.5" font-family="Helvetica,sans-Serif" font-size="10.00">GroupMessageEvent.h</text>
</a>
</g>
</g>
<!-- Node4&#45;&gt;Node11 -->
<g id="edge14" class="edge">
<title>Node4&#45;&gt;Node11</title>
<path fill="none" stroke="midnightblue" d="M989.57,-110.32C949.55,-100.13 890.03,-84.96 853.05,-75.55"/>
<polygon fill="midnightblue" stroke="midnightblue" points="988.75,-113.72 999.3,-112.8 990.48,-106.94 988.75,-113.72"/>
</g>
<!-- Node12 -->
<g id="node12" class="node">
<title>Node12</title>
<g id="a_node12"><a xlink:href="a00089.html" target="_top" xlink:title=" ">
<polygon fill="white" stroke="black" points="895,-56.5 895,-75.5 1034,-75.5 1034,-56.5 895,-56.5"/>
<text text-anchor="middle" x="964.5" y="-63.5" font-family="Helvetica,sans-Serif" font-size="10.00">GroupTempMessageEvent.h</text>
</a>
</g>
</g>
<!-- Node4&#45;&gt;Node12 -->
<g id="edge16" class="edge">
<title>Node4&#45;&gt;Node12</title>
<path fill="none" stroke="midnightblue" d="M1012.67,-105.82C1000.66,-96.15 985.53,-83.95 975.46,-75.83"/>
<polygon fill="midnightblue" stroke="midnightblue" points="1010.75,-108.77 1020.74,-112.32 1015.15,-103.32 1010.75,-108.77"/>
</g>
<!-- Node13 -->
<g id="node13" class="node">
<title>Node13</title>
<g id="a_node13"><a xlink:href="a00092.html" target="_top" xlink:title=" ">
<polygon fill="white" stroke="black" points="129,-56.5 129,-75.5 230,-75.5 230,-56.5 129,-56.5"/>
<text text-anchor="middle" x="179.5" y="-63.5" font-family="Helvetica,sans-Serif" font-size="10.00">MemberJoinEvent.h</text>
</a>
</g>
</g>
<!-- Node4&#45;&gt;Node13 -->
<g id="edge18" class="edge">
<title>Node4&#45;&gt;Node13</title>
<path fill="none" stroke="midnightblue" d="M989.19,-120.01C870.5,-116.93 524.4,-105.85 238.5,-76 235.82,-75.72 233.08,-75.4 230.31,-75.06"/>
<polygon fill="midnightblue" stroke="midnightblue" points="989.22,-123.51 999.31,-120.27 989.4,-116.51 989.22,-123.51"/>
</g>
<!-- Node14 -->
<g id="node14" class="node">
<title>Node14</title>
<g id="a_node14"><a xlink:href="a00095.html" target="_top" xlink:title=" ">
<polygon fill="white" stroke="black" points="248,-56.5 248,-75.5 385,-75.5 385,-56.5 248,-56.5"/>
<text text-anchor="middle" x="316.5" y="-63.5" font-family="Helvetica,sans-Serif" font-size="10.00">MemberJoinRequestEvent.h</text>
</a>
</g>
</g>
<!-- Node4&#45;&gt;Node14 -->
<g id="edge20" class="edge">
<title>Node4&#45;&gt;Node14</title>
<path fill="none" stroke="midnightblue" d="M989.01,-118.68C886.49,-112.93 617.46,-96.98 393.5,-76 390.82,-75.75 388.09,-75.48 385.33,-75.2"/>
<polygon fill="midnightblue" stroke="midnightblue" points="989.08,-122.19 999.26,-119.25 989.47,-115.2 989.08,-122.19"/>
</g>
<!-- Node15 -->
<g id="node15" class="node">
<title>Node15</title>
<g id="a_node15"><a xlink:href="a00098.html" target="_top" xlink:title=" ">
<polygon fill="white" stroke="black" points="403,-56.5 403,-75.5 512,-75.5 512,-56.5 403,-56.5"/>
<text text-anchor="middle" x="457.5" y="-63.5" font-family="Helvetica,sans-Serif" font-size="10.00">MemberLeaveEvent.h</text>
</a>
</g>
</g>
<!-- Node4&#45;&gt;Node15 -->
<g id="edge22" class="edge">
<title>Node4&#45;&gt;Node15</title>
<path fill="none" stroke="midnightblue" d="M989.39,-118.07C901.9,-111.8 694.14,-96.03 520.5,-76 517.76,-75.68 514.95,-75.34 512.11,-74.99"/>
<polygon fill="midnightblue" stroke="midnightblue" points="989.23,-121.56 999.45,-118.78 989.72,-114.58 989.23,-121.56"/>
</g>
<!-- Node16 -->
<g id="node16" class="node">
<title>Node16</title>
<g id="a_node16"><a xlink:href="a00101.html" target="_top" xlink:title=" ">
<polygon fill="white" stroke="black" points="0,-56.5 0,-75.5 111,-75.5 111,-56.5 0,-56.5"/>
<text text-anchor="middle" x="55.5" y="-63.5" font-family="Helvetica,sans-Serif" font-size="10.00">MemberRecallEvent.h</text>
</a>
</g>
</g>
<!-- Node4&#45;&gt;Node16 -->
<g id="edge24" class="edge">
<title>Node4&#45;&gt;Node16</title>
<path fill="none" stroke="midnightblue" d="M988.76,-120.26C858.24,-117.72 453.37,-107.65 119.5,-76 116.82,-75.75 114.08,-75.46 111.31,-75.15"/>
<polygon fill="midnightblue" stroke="midnightblue" points="989.05,-123.77 999.11,-120.46 989.18,-116.77 989.05,-123.77"/>
</g>
<!-- Node17 -->
<g id="node17" class="node">
<title>Node17</title>
<g id="a_node17"><a xlink:href="a00104.html" target="_top" xlink:title=" ">
<polygon fill="white" stroke="black" points="1258.5,-56.5 1258.5,-75.5 1384.5,-75.5 1384.5,-56.5 1258.5,-56.5"/>
<text text-anchor="middle" x="1321.5" y="-63.5" font-family="Helvetica,sans-Serif" font-size="10.00">MessagePreSendEvent.h</text>
</a>
</g>
</g>
<!-- Node4&#45;&gt;Node17 -->
<g id="edge26" class="edge">
<title>Node4&#45;&gt;Node17</title>
<path fill="none" stroke="midnightblue" d="M1073.53,-113.17C1127.3,-103.16 1220.09,-85.88 1275.64,-75.54"/>
<polygon fill="midnightblue" stroke="midnightblue" points="1072.83,-109.74 1063.64,-115.01 1074.11,-116.62 1072.83,-109.74"/>
</g>
<!-- Node18 -->
<g id="node18" class="node">
<title>Node18</title>
<g id="a_node18"><a xlink:href="a00110.html" target="_top" xlink:title=" ">
<polygon fill="white" stroke="black" points="1852,-56.5 1852,-75.5 1983,-75.5 1983,-56.5 1852,-56.5"/>
<text text-anchor="middle" x="1917.5" y="-63.5" font-family="Helvetica,sans-Serif" font-size="10.00">NewFriendRequestEvent.h</text>
</a>
</g>
</g>
<!-- Node4&#45;&gt;Node18 -->
<g id="edge28" class="edge">
<title>Node4&#45;&gt;Node18</title>
<path fill="none" stroke="midnightblue" d="M1073.52,-118.74C1234.37,-110.1 1803.93,-79.38 1842.5,-76 1845.5,-75.74 1848.57,-75.45 1851.67,-75.14"/>
<polygon fill="midnightblue" stroke="midnightblue" points="1073.32,-115.25 1063.52,-119.28 1073.7,-122.24 1073.32,-115.25"/>
</g>
<!-- Node19 -->
<g id="node19" class="node">
<title>Node19</title>
<g id="a_node19"><a xlink:href="a00113.html" target="_top" xlink:title=" ">
<polygon fill="white" stroke="black" points="1163,-56.5 1163,-75.5 1240,-75.5 1240,-56.5 1163,-56.5"/>
<text text-anchor="middle" x="1201.5" y="-63.5" font-family="Helvetica,sans-Serif" font-size="10.00">NudgeEvent.h</text>
</a>
</g>
</g>
<!-- Node4&#45;&gt;Node19 -->
<g id="edge30" class="edge">
<title>Node4&#45;&gt;Node19</title>
<path fill="none" stroke="midnightblue" d="M1068.32,-109.3C1100.35,-99.13 1146.02,-84.62 1174.69,-75.52"/>
<polygon fill="midnightblue" stroke="midnightblue" points="1066.91,-106.08 1058.44,-112.44 1069.03,-112.75 1066.91,-106.08"/>
</g>
<!-- Node20 -->
<g id="node20" class="node">
<title>Node20</title>
<g id="a_node20"><a xlink:href="a00116.html" target="_top" xlink:title=" ">
<polygon fill="white" stroke="black" points="1600.5,-56.5 1600.5,-75.5 1718.5,-75.5 1718.5,-56.5 1600.5,-56.5"/>
<text text-anchor="middle" x="1659.5" y="-63.5" font-family="Helvetica,sans-Serif" font-size="10.00">PrivateMessageEvent.h</text>
</a>
</g>
</g>
<!-- Node4&#45;&gt;Node20 -->
<g id="edge32" class="edge">
<title>Node4&#45;&gt;Node20</title>
<path fill="none" stroke="midnightblue" d="M1073.95,-118.34C1167.54,-112.3 1398.65,-96.5 1591.5,-76 1594.34,-75.7 1597.25,-75.37 1600.18,-75.03"/>
<polygon fill="midnightblue" stroke="midnightblue" points="1073.51,-114.86 1063.75,-118.99 1073.95,-121.84 1073.51,-114.86"/>
</g>
<!-- Node6 -->
<g id="node6" class="node">
<title>Node6</title>
<g id="a_node6"><a xlink:href="a00311.html" target="_top" xlink:title=" ">
<polygon fill="white" stroke="black" points="935,-0.5 935,-19.5 994,-19.5 994,-0.5 935,-0.5"/>
<text text-anchor="middle" x="964.5" y="-7.5" font-family="Helvetica,sans-Serif" font-size="10.00">Event.cpp</text>
</a>
</g>
</g>
<!-- Node5&#45;&gt;Node6 -->
<g id="edge5" class="edge">
<title>Node5&#45;&gt;Node6</title>
<path fill="none" stroke="midnightblue" d="M647.36,-55.74C759.14,-39.76 879.74,-22.85 934.59,-15.18"/>
<polygon fill="midnightblue" stroke="midnightblue" points="646.67,-52.3 637.27,-57.18 647.66,-59.23 646.67,-52.3"/>
</g>
<!-- Node7&#45;&gt;Node6 -->
<g id="edge7" class="edge">
<title>Node7&#45;&gt;Node6</title>
<path fill="none" stroke="midnightblue" d="M751.33,-54.44C805.98,-43.3 890.17,-26.15 934.63,-17.09"/>
<polygon fill="midnightblue" stroke="midnightblue" points="750.59,-51.02 741.49,-56.44 751.99,-57.88 750.59,-51.02"/>
</g>
<!-- Node8&#45;&gt;Node6 -->
<g id="edge9" class="edge">
<title>Node8&#45;&gt;Node6</title>
<path fill="none" stroke="midnightblue" d="M1067.82,-52.64C1042.68,-42.5 1007.75,-28.43 985.63,-19.52"/>
<polygon fill="midnightblue" stroke="midnightblue" points="1066.68,-55.95 1077.27,-56.44 1069.3,-49.46 1066.68,-55.95"/>
</g>
<!-- Node9&#45;&gt;Node6 -->
<g id="edge11" class="edge">
<title>Node9&#45;&gt;Node6</title>
<path fill="none" stroke="midnightblue" d="M1990.8,-55.93C1590.66,-17.85 1115.73,-12.05 994.02,-11.16"/>
<polygon fill="midnightblue" stroke="midnightblue" points="1990.54,-59.43 2000.83,-56.9 1991.21,-52.46 1990.54,-59.43"/>
</g>
<!-- Node10&#45;&gt;Node6 -->
<g id="edge13" class="edge">
<title>Node10&#45;&gt;Node6</title>
<path fill="none" stroke="midnightblue" d="M1726.45,-56C1434.74,-25.33 1094.86,-14.44 994.04,-11.73"/>
<polygon fill="midnightblue" stroke="midnightblue" points="1726.5,-59.53 1736.81,-57.1 1727.24,-52.56 1726.5,-59.53"/>
</g>
<!-- Node11&#45;&gt;Node6 -->
<g id="edge15" class="edge">
<title>Node11&#45;&gt;Node6</title>
<path fill="none" stroke="midnightblue" d="M851.98,-52.91C879.24,-42.75 917.49,-28.51 941.63,-19.52"/>
<polygon fill="midnightblue" stroke="midnightblue" points="850.63,-49.67 842.48,-56.44 853.07,-56.23 850.63,-49.67"/>
</g>
<!-- Node12&#45;&gt;Node6 -->
<g id="edge17" class="edge">
<title>Node12&#45;&gt;Node6</title>
<path fill="none" stroke="midnightblue" d="M964.5,-45.8C964.5,-36.91 964.5,-26.78 964.5,-19.75"/>
<polygon fill="midnightblue" stroke="midnightblue" points="961,-46.08 964.5,-56.08 968,-46.08 961,-46.08"/>
</g>
<!-- Node13&#45;&gt;Node6 -->
<g id="edge19" class="edge">
<title>Node13&#45;&gt;Node6</title>
<path fill="none" stroke="midnightblue" d="M240.5,-55.87C515.81,-26.87 836.73,-15.02 934.68,-11.89"/>
<polygon fill="midnightblue" stroke="midnightblue" points="239.89,-52.42 230.31,-56.95 240.63,-59.38 239.89,-52.42"/>
</g>
<!-- Node14&#45;&gt;Node6 -->
<g id="edge21" class="edge">
<title>Node14&#45;&gt;Node6</title>
<path fill="none" stroke="midnightblue" d="M395.44,-55.84C608.1,-35.23 851.36,-18.49 934.74,-12.95"/>
<polygon fill="midnightblue" stroke="midnightblue" points="394.95,-52.37 385.33,-56.82 395.63,-59.34 394.95,-52.37"/>
</g>
<!-- Node15&#45;&gt;Node6 -->
<g id="edge23" class="edge">
<title>Node15&#45;&gt;Node6</title>
<path fill="none" stroke="midnightblue" d="M522.24,-55.83C683.87,-36.3 864.87,-19.77 934.84,-13.58"/>
<polygon fill="midnightblue" stroke="midnightblue" points="521.62,-52.38 512.12,-57.06 522.47,-59.33 521.62,-52.38"/>
</g>
<!-- Node16&#45;&gt;Node6 -->
<g id="edge25" class="edge">
<title>Node16&#45;&gt;Node6</title>
<path fill="none" stroke="midnightblue" d="M121.38,-55.89C445.84,-24.97 827.12,-14.21 934.87,-11.65"/>
<polygon fill="midnightblue" stroke="midnightblue" points="120.93,-52.42 111.31,-56.86 121.6,-59.39 120.93,-52.42"/>
</g>
<!-- Node17&#45;&gt;Node6 -->
<g id="edge27" class="edge">
<title>Node17&#45;&gt;Node6</title>
<path fill="none" stroke="midnightblue" d="M1254.71,-54.9C1176.62,-43.09 1050.84,-24.06 994.03,-15.47"/>
<polygon fill="midnightblue" stroke="midnightblue" points="1254.52,-58.41 1264.93,-56.44 1255.57,-51.49 1254.52,-58.41"/>
</g>
<!-- Node18&#45;&gt;Node6 -->
<g id="edge29" class="edge">
<title>Node18&#45;&gt;Node6</title>
<path fill="none" stroke="midnightblue" d="M1841.65,-55.99C1502.34,-27.33 1104.45,-14.86 994.11,-11.78"/>
<polygon fill="midnightblue" stroke="midnightblue" points="1841.42,-59.48 1851.68,-56.84 1842.01,-52.51 1841.42,-59.48"/>
</g>
<!-- Node19&#45;&gt;Node6 -->
<g id="edge31" class="edge">
<title>Node19&#45;&gt;Node6</title>
<path fill="none" stroke="midnightblue" d="M1154.15,-54.21C1106.39,-43.33 1034.15,-26.87 994.02,-17.73"/>
<polygon fill="midnightblue" stroke="midnightblue" points="1153.42,-57.63 1163.95,-56.44 1154.97,-50.81 1153.42,-57.63"/>
</g>
<!-- Node20&#45;&gt;Node6 -->
<g id="edge33" class="edge">
<title>Node20&#45;&gt;Node6</title>
<path fill="none" stroke="midnightblue" d="M1590.05,-55.91C1354.31,-32.18 1083.08,-17.11 994.25,-12.5"/>
<polygon fill="midnightblue" stroke="midnightblue" points="1589.88,-59.41 1600.19,-56.94 1590.59,-52.45 1589.88,-59.41"/>
</g>
<!-- Node23&#45;&gt;Node3 -->
<g id="edge37" class="edge">
<title>Node23&#45;&gt;Node3</title>
<path fill="none" stroke="midnightblue" d="M2019.86,-109.28C2050.77,-99.04 2094.89,-84.43 2122.33,-75.34"/>
<polygon fill="midnightblue" stroke="midnightblue" points="2018.72,-105.98 2010.33,-112.44 2020.92,-112.62 2018.72,-105.98"/>
</g>
<!-- Node23&#45;&gt;Node9 -->
<g id="edge40" class="edge">
<title>Node23&#45;&gt;Node9</title>
<path fill="none" stroke="midnightblue" d="M2003.26,-106.1C2015.5,-96.38 2031.06,-84.03 2041.38,-75.83"/>
<polygon fill="midnightblue" stroke="midnightblue" points="2001.08,-103.36 1995.43,-112.32 2005.43,-108.85 2001.08,-103.36"/>
</g>
<!-- Node23&#45;&gt;Node10 -->
<g id="edge41" class="edge">
<title>Node23&#45;&gt;Node10</title>
<path fill="none" stroke="midnightblue" d="M1948.49,-111.23C1911.01,-101.06 1852.87,-85.28 1817.1,-75.58"/>
<polygon fill="midnightblue" stroke="midnightblue" points="1947.92,-114.7 1958.48,-113.94 1949.75,-107.94 1947.92,-114.7"/>
</g>
<!-- Node23&#45;&gt;Node18 -->
<g id="edge42" class="edge">
<title>Node23&#45;&gt;Node18</title>
<path fill="none" stroke="midnightblue" d="M1965.67,-105.82C1953.66,-96.15 1938.53,-83.95 1928.46,-75.83"/>
<polygon fill="midnightblue" stroke="midnightblue" points="1963.75,-108.77 1973.74,-112.32 1968.15,-103.32 1963.75,-108.77"/>
</g>
<!-- Node23&#45;&gt;Node20 -->
<g id="edge43" class="edge">
<title>Node23&#45;&gt;Node20</title>
<path fill="none" stroke="midnightblue" d="M1948.33,-114.99C1890.53,-105.39 1777.12,-86.54 1710.91,-75.54"/>
<polygon fill="midnightblue" stroke="midnightblue" points="1948.01,-118.49 1958.45,-116.67 1949.16,-111.58 1948.01,-118.49"/>
</g>
<!-- Node23&#45;&gt;Node21 -->
<g id="edge38" class="edge">
<title>Node23&#45;&gt;Node21</title>
<path fill="none" stroke="midnightblue" d="M2020.44,-115.64C2073.34,-107.64 2175.24,-91.82 2261.5,-76 2264.57,-75.44 2267.75,-74.83 2270.94,-74.21"/>
<polygon fill="midnightblue" stroke="midnightblue" points="2019.9,-112.18 2010.53,-117.13 2020.94,-119.1 2019.9,-112.18"/>
</g>
<!-- Node24 -->
<g id="node24" class="node">
<title>Node24</title>
<g id="a_node24"><a xlink:href="a00341.html" target="_top" xlink:title=" ">
<polygon fill="white" stroke="black" points="2190.5,-56.5 2190.5,-75.5 2252.5,-75.5 2252.5,-56.5 2190.5,-56.5"/>
<text text-anchor="middle" x="2221.5" y="-63.5" font-family="Helvetica,sans-Serif" font-size="10.00">Friend.cpp</text>
</a>
</g>
</g>
<!-- Node23&#45;&gt;Node24 -->
<g id="edge39" class="edge">
<title>Node23&#45;&gt;Node24</title>
<path fill="none" stroke="midnightblue" d="M2020.68,-112.76C2066.98,-102.21 2146.44,-84.1 2190.24,-74.12"/>
<polygon fill="midnightblue" stroke="midnightblue" points="2019.74,-109.38 2010.77,-115.01 2021.3,-116.21 2019.74,-109.38"/>
</g>
<!-- Node25&#45;&gt;Node3 -->
<g id="edge45" class="edge">
<title>Node25&#45;&gt;Node3</title>
<path fill="none" stroke="midnightblue" d="M1273.35,-120.15C1416.51,-116.61 1947.45,-101.95 2113.5,-76 2116.4,-75.55 2119.4,-74.95 2122.37,-74.27"/>
<polygon fill="midnightblue" stroke="midnightblue" points="1273.26,-116.65 1263.35,-120.4 1273.43,-123.65 1273.26,-116.65"/>
</g>
<!-- Node25&#45;&gt;Node5 -->
<g id="edge46" class="edge">
<title>Node25&#45;&gt;Node5</title>
<path fill="none" stroke="midnightblue" d="M1201.56,-119.13C1109.12,-114.12 855.66,-99.21 645.5,-76 642.8,-75.7 640.03,-75.38 637.24,-75.03"/>
<polygon fill="midnightblue" stroke="midnightblue" points="1201.59,-122.63 1211.77,-119.67 1201.97,-115.64 1201.59,-122.63"/>
</g>
<!-- Node25&#45;&gt;Node7 -->
<g id="edge47" class="edge">
<title>Node25&#45;&gt;Node7</title>
<path fill="none" stroke="midnightblue" d="M1201.84,-118.62C1121.44,-113.05 920.01,-97.96 752.5,-76 749.82,-75.65 747.06,-75.26 744.28,-74.85"/>
<polygon fill="midnightblue" stroke="midnightblue" points="1201.7,-122.12 1211.92,-119.31 1202.18,-115.14 1201.7,-122.12"/>
</g>
<!-- Node25&#45;&gt;Node10 -->
<g id="edge50" class="edge">
<title>Node25&#45;&gt;Node10</title>
<path fill="none" stroke="midnightblue" d="M1273.22,-118.49C1354.2,-112.62 1557.91,-96.92 1727.5,-76 1730.53,-75.63 1733.65,-75.22 1736.8,-74.78"/>
<polygon fill="midnightblue" stroke="midnightblue" points="1272.79,-115.01 1263.07,-119.22 1273.29,-121.99 1272.79,-115.01"/>
</g>
<!-- Node25&#45;&gt;Node11 -->
<g id="edge51" class="edge">
<title>Node25&#45;&gt;Node11</title>
<path fill="none" stroke="midnightblue" d="M1201.57,-116.51C1137.88,-108.52 1000.98,-91.25 885.5,-76 882.75,-75.64 879.93,-75.26 877.09,-74.88"/>
<polygon fill="midnightblue" stroke="midnightblue" points="1201.52,-120.03 1211.87,-117.8 1202.39,-113.08 1201.52,-120.03"/>
</g>
<!-- Node25&#45;&gt;Node12 -->
<g id="edge52" class="edge">
<title>Node25&#45;&gt;Node12</title>
<path fill="none" stroke="midnightblue" d="M1201.81,-113.94C1151.89,-104.07 1061.34,-86.15 1007.68,-75.54"/>
<polygon fill="midnightblue" stroke="midnightblue" points="1201.33,-117.41 1211.82,-115.92 1202.69,-110.55 1201.33,-117.41"/>
</g>
<!-- Node25&#45;&gt;Node13 -->
<g id="edge53" class="edge">
<title>Node25&#45;&gt;Node13</title>
<path fill="none" stroke="midnightblue" d="M1201.59,-118.92C1168.17,-117.02 1116.97,-114.17 1072.5,-112 701.93,-93.9 607.76,-112.03 238.5,-76 235.82,-75.74 233.07,-75.44 230.3,-75.11"/>
<polygon fill="midnightblue" stroke="midnightblue" points="1201.6,-122.43 1211.78,-119.51 1202,-115.44 1201.6,-122.43"/>
</g>
<!-- Node25&#45;&gt;Node14 -->
<g id="edge54" class="edge">
<title>Node25&#45;&gt;Node14</title>
<path fill="none" stroke="midnightblue" d="M1201.58,-119.03C1168.16,-117.19 1116.96,-114.39 1072.5,-112 770.73,-95.77 694.62,-101.55 393.5,-76 390.82,-75.77 388.08,-75.53 385.33,-75.26"/>
<polygon fill="midnightblue" stroke="midnightblue" points="1201.6,-122.53 1211.78,-119.58 1201.99,-115.54 1201.6,-122.53"/>
</g>
<!-- Node25&#45;&gt;Node15 -->
<g id="edge55" class="edge">
<title>Node25&#45;&gt;Node15</title>
<path fill="none" stroke="midnightblue" d="M1201.73,-118.92C1066.21,-111.03 588.53,-82.98 520.5,-76 517.75,-75.72 514.94,-75.41 512.1,-75.07"/>
<polygon fill="midnightblue" stroke="midnightblue" points="1201.79,-122.43 1211.97,-119.52 1202.19,-115.44 1201.79,-122.43"/>
</g>
<!-- Node25&#45;&gt;Node18 -->
<g id="edge57" class="edge">
<title>Node25&#45;&gt;Node18</title>
<path fill="none" stroke="midnightblue" d="M1273.26,-118.91C1366.85,-113.3 1626.74,-96.96 1842.5,-76 1845.5,-75.71 1848.57,-75.4 1851.67,-75.07"/>
<polygon fill="midnightblue" stroke="midnightblue" points="1272.96,-115.42 1263.19,-119.51 1273.38,-122.41 1272.96,-115.42"/>
</g>
<!-- Node25&#45;&gt;Node21 -->
<g id="edge48" class="edge">
<title>Node25&#45;&gt;Node21</title>
<path fill="none" stroke="midnightblue" d="M1273.71,-121.47C1406.23,-122.75 1877.14,-123.45 2261.5,-76 2264.6,-75.62 2267.8,-75.14 2271,-74.59"/>
<polygon fill="midnightblue" stroke="midnightblue" points="1273.38,-117.96 1263.34,-121.36 1273.31,-124.96 1273.38,-117.96"/>
</g>
<!-- Node26 -->
<g id="node26" class="node">
<title>Node26</title>
<g id="a_node26"><a xlink:href="a01391.html" target="_top" xlink:title=" ">
<polygon fill="white" stroke="black" points="1402.5,-56.5 1402.5,-75.5 1464.5,-75.5 1464.5,-56.5 1402.5,-56.5"/>
<text text-anchor="middle" x="1433.5" y="-63.5" font-family="Helvetica,sans-Serif" font-size="10.00">Group.cpp</text>
</a>
</g>
</g>
<!-- Node25&#45;&gt;Node26 -->
<g id="edge49" class="edge">
<title>Node25&#45;&gt;Node26</title>
<path fill="none" stroke="midnightblue" d="M1272.96,-111.23C1309.88,-101.06 1367.15,-85.28 1402.37,-75.58"/>
<polygon fill="midnightblue" stroke="midnightblue" points="1271.83,-107.91 1263.12,-113.94 1273.69,-114.66 1271.83,-107.91"/>
</g>
<!-- Node27 -->
<g id="node27" class="node">
<title>Node27</title>
<g id="a_node27"><a xlink:href="a00368.html" target="_top" xlink:title=" ">
<polygon fill="white" stroke="black" points="1482.5,-56.5 1482.5,-75.5 1582.5,-75.5 1582.5,-56.5 1482.5,-56.5"/>
<text text-anchor="middle" x="1532.5" y="-63.5" font-family="Helvetica,sans-Serif" font-size="10.00">MessageChain.cpp</text>
</a>
</g>
</g>
<!-- Node25&#45;&gt;Node27 -->
<g id="edge56" class="edge">
<title>Node25&#45;&gt;Node27</title>
<path fill="none" stroke="midnightblue" d="M1273.16,-114.47C1326.42,-104.72 1426.79,-86.35 1485.83,-75.54"/>
<polygon fill="midnightblue" stroke="midnightblue" points="1272.37,-111.06 1263.16,-116.3 1273.63,-117.94 1272.37,-111.06"/>
</g>
<!-- Node28&#45;&gt;Node5 -->
<g id="edge59" class="edge">
<title>Node28&#45;&gt;Node5</title>
<path fill="none" stroke="midnightblue" d="M583.5,-101.8C583.5,-92.91 583.5,-82.78 583.5,-75.75"/>
<polygon fill="midnightblue" stroke="midnightblue" points="580,-102.08 583.5,-112.08 587,-102.08 580,-102.08"/>
</g>
<!-- Node28&#45;&gt;Node7 -->
<g id="edge60" class="edge">
<title>Node28&#45;&gt;Node7</title>
<path fill="none" stroke="midnightblue" d="M611.22,-108.1C632.89,-98.01 662.4,-84.27 681.21,-75.52"/>
<polygon fill="midnightblue" stroke="midnightblue" points="609.47,-105.05 601.88,-112.44 612.42,-111.4 609.47,-105.05"/>
</g>
<!-- Node28&#45;&gt;Node11 -->
<g id="edge61" class="edge">
<title>Node28&#45;&gt;Node11</title>
<path fill="none" stroke="midnightblue" d="M623.74,-111.79C668.16,-101.63 739.07,-85.4 782.25,-75.52"/>
<polygon fill="midnightblue" stroke="midnightblue" points="622.84,-108.41 613.87,-114.05 624.4,-115.23 622.84,-108.41"/>
</g>
<!-- Node28&#45;&gt;Node12 -->
<g id="edge62" class="edge">
<title>Node28&#45;&gt;Node12</title>
<path fill="none" stroke="midnightblue" d="M623.89,-115.27C691.07,-105.75 826.09,-86.62 904.45,-75.51"/>
<polygon fill="midnightblue" stroke="midnightblue" points="623.12,-111.85 613.71,-116.72 624.11,-118.78 623.12,-111.85"/>
</g>
<!-- Node28&#45;&gt;Node13 -->
<g id="edge63" class="edge">
<title>Node28&#45;&gt;Node13</title>
<path fill="none" stroke="midnightblue" d="M543.35,-116.05C478.97,-108.05 348.69,-91.59 238.5,-76 235.73,-75.61 232.89,-75.2 230.02,-74.78"/>
<polygon fill="midnightblue" stroke="midnightblue" points="543.12,-119.55 553.47,-117.31 543.98,-112.6 543.12,-119.55"/>
</g>
<!-- Node28&#45;&gt;Node14 -->
<g id="edge64" class="edge">
<title>Node28&#45;&gt;Node14</title>
<path fill="none" stroke="midnightblue" d="M543.34,-112.88C493.64,-102.83 409.41,-85.79 358.77,-75.55"/>
<polygon fill="midnightblue" stroke="midnightblue" points="542.9,-116.36 553.39,-114.91 544.28,-109.5 542.9,-116.36"/>
</g>
<!-- Node28&#45;&gt;Node15 -->
<g id="edge65" class="edge">
<title>Node28&#45;&gt;Node15</title>
<path fill="none" stroke="midnightblue" d="M554.34,-108.5C530.72,-98.38 498.07,-84.39 477.37,-75.52"/>
<polygon fill="midnightblue" stroke="midnightblue" points="552.96,-111.72 563.53,-112.44 555.72,-105.29 552.96,-111.72"/>
</g>
<!-- Node28&#45;&gt;Node16 -->
<g id="edge66" class="edge">
<title>Node28&#45;&gt;Node16</title>
<path fill="none" stroke="midnightblue" d="M543.12,-117.67C462.48,-110.9 275.83,-94.56 119.5,-76 116.83,-75.68 114.09,-75.35 111.33,-75"/>
<polygon fill="midnightblue" stroke="midnightblue" points="543.07,-121.18 553.32,-118.53 543.65,-114.2 543.07,-121.18"/>
</g>
</g>
</svg>
