<?xml version="1.0" encoding="UTF-8" standalone="no"?>
<!DOCTYPE svg PUBLIC "-//W3C//DTD SVG 1.1//EN"
 "http://www.w3.org/Graphics/SVG/1.1/DTD/svg11.dtd">
<!-- Generated by graphviz version 2.50.0 (20211204.2007)
 -->
<!-- Title: Contact.h Pages: 1 -->
<svg width="772pt" height="308pt"
 viewBox="0.00 0.00 771.67 308.00" xmlns="http://www.w3.org/2000/svg" xmlns:xlink="http://www.w3.org/1999/xlink">
<g id="graph0" class="graph" transform="scale(1 1) rotate(0) translate(4 304)">
<title>Contact.h</title>
<polygon fill="white" stroke="transparent" points="-4,4 -4,-304 767.67,-304 767.67,4 -4,4"/>
<!-- Node1 -->
<g id="node1" class="node">
<title>Node1</title>
<g id="a_node1"><a xlink:title=" ">
<polygon fill="#bfbfbf" stroke="black" points="652.67,-280.5 652.67,-299.5 711.67,-299.5 711.67,-280.5 652.67,-280.5"/>
<text text-anchor="middle" x="682.17" y="-287.5" font-family="Helvetica,sans-Serif" font-size="10.00">Contact.h</text>
</a>
</g>
</g>
<!-- Node2 -->
<g id="node2" class="node">
<title>Node2</title>
<g id="a_node2"><a xlink:href="a00143.html" target="_top" xlink:title=" ">
<polygon fill="white" stroke="black" points="340.67,-224.5 340.67,-243.5 429.67,-243.5 429.67,-224.5 340.67,-224.5"/>
<text text-anchor="middle" x="385.17" y="-231.5" font-family="Helvetica,sans-Serif" font-size="10.00">MessageChain.h</text>
</a>
</g>
</g>
<!-- Node1&#45;&gt;Node2 -->
<g id="edge1" class="edge">
<title>Node1&#45;&gt;Node2</title>
<path fill="none" stroke="midnightblue" d="M652.6,-283.62C603.05,-274.62 502.52,-256.34 439.82,-244.94"/>
<polygon fill="midnightblue" stroke="midnightblue" points="440.18,-241.44 429.71,-243.1 438.92,-248.33 440.18,-241.44"/>
</g>
<!-- Node8 -->
<g id="node8" class="node">
<title>Node8</title>
<g id="a_node8"><a xlink:title=" ">
<polygon fill="white" stroke="#bfbfbf" points="529.67,-56.5 529.67,-75.5 570.67,-75.5 570.67,-56.5 529.67,-56.5"/>
<text text-anchor="middle" x="550.17" y="-63.5" font-family="Helvetica,sans-Serif" font-size="10.00">string</text>
</a>
</g>
</g>
<!-- Node1&#45;&gt;Node8 -->
<g id="edge22" class="edge">
<title>Node1&#45;&gt;Node8</title>
<path fill="none" stroke="midnightblue" d="M684.11,-280.13C689.69,-252.15 702.97,-164.43 663.17,-112 643.64,-86.28 607.12,-75.23 580.87,-70.5"/>
<polygon fill="midnightblue" stroke="midnightblue" points="581.11,-67 570.68,-68.89 580.01,-73.91 581.11,-67"/>
</g>
<!-- Node17 -->
<g id="node17" class="node">
<title>Node17</title>
<g id="a_node17"><a xlink:title=" ">
<polygon fill="white" stroke="#bfbfbf" points="710.67,-224.5 710.67,-243.5 763.67,-243.5 763.67,-224.5 710.67,-224.5"/>
<text text-anchor="middle" x="737.17" y="-231.5" font-family="Helvetica,sans-Serif" font-size="10.00">json.hpp</text>
</a>
</g>
</g>
<!-- Node1&#45;&gt;Node17 -->
<g id="edge21" class="edge">
<title>Node1&#45;&gt;Node17</title>
<path fill="none" stroke="midnightblue" d="M691.25,-280.08C699.34,-272.14 711.36,-260.34 721.08,-250.8"/>
<polygon fill="midnightblue" stroke="midnightblue" points="723.57,-253.25 728.25,-243.75 718.66,-248.26 723.57,-253.25"/>
</g>
<!-- Node3 -->
<g id="node3" class="node">
<title>Node3</title>
<g id="a_node3"><a xlink:href="a00044.html" target="_top" xlink:title=" ">
<polygon fill="white" stroke="black" points="178.17,-56.5 178.17,-75.5 270.17,-75.5 270.17,-56.5 178.17,-56.5"/>
<text text-anchor="middle" x="224.17" y="-63.5" font-family="Helvetica,sans-Serif" font-size="10.00">MiraiCPMacros.h</text>
</a>
</g>
</g>
<!-- Node2&#45;&gt;Node3 -->
<g id="edge2" class="edge">
<title>Node2&#45;&gt;Node3</title>
<path fill="none" stroke="midnightblue" d="M340.33,-227.89C248.73,-216.43 45.27,-185.42 4.17,-132 -1.26,-124.96 -1.46,-118.89 4.17,-112 24.45,-87.14 109.62,-75.64 167.83,-70.61"/>
<polygon fill="midnightblue" stroke="midnightblue" points="168.33,-74.08 178.01,-69.77 167.76,-67.1 168.33,-74.08"/>
</g>
<!-- Node5 -->
<g id="node5" class="node">
<title>Node5</title>
<g id="a_node5"><a xlink:href="a00161.html" target="_top" xlink:title=" ">
<polygon fill="white" stroke="black" points="292.17,-168.5 292.17,-187.5 384.17,-187.5 384.17,-168.5 292.17,-168.5"/>
<text text-anchor="middle" x="338.17" y="-175.5" font-family="Helvetica,sans-Serif" font-size="10.00">SingleMessage.h</text>
</a>
</g>
</g>
<!-- Node2&#45;&gt;Node5 -->
<g id="edge4" class="edge">
<title>Node2&#45;&gt;Node5</title>
<path fill="none" stroke="midnightblue" d="M377.4,-224.08C370.63,-216.3 360.62,-204.8 352.41,-195.37"/>
<polygon fill="midnightblue" stroke="midnightblue" points="354.99,-193 345.78,-187.75 349.71,-197.59 354.99,-193"/>
</g>
<!-- Node16 -->
<g id="node16" class="node">
<title>Node16</title>
<g id="a_node16"><a xlink:title=" ">
<polygon fill="white" stroke="#bfbfbf" points="402.17,-168.5 402.17,-187.5 460.17,-187.5 460.17,-168.5 402.17,-168.5"/>
<text text-anchor="middle" x="431.17" y="-175.5" font-family="Helvetica,sans-Serif" font-size="10.00">functional</text>
</a>
</g>
</g>
<!-- Node2&#45;&gt;Node16 -->
<g id="edge20" class="edge">
<title>Node2&#45;&gt;Node16</title>
<path fill="none" stroke="midnightblue" d="M392.76,-224.08C399.39,-216.3 409.19,-204.8 417.22,-195.37"/>
<polygon fill="midnightblue" stroke="midnightblue" points="419.89,-197.63 423.71,-187.75 414.56,-193.09 419.89,-197.63"/>
</g>
<!-- Node4 -->
<g id="node4" class="node">
<title>Node4</title>
<g id="a_node4"><a xlink:title=" ">
<polygon fill="white" stroke="#bfbfbf" points="199.67,-0.5 199.67,-19.5 248.67,-19.5 248.67,-0.5 199.67,-0.5"/>
<text text-anchor="middle" x="224.17" y="-7.5" font-family="Helvetica,sans-Serif" font-size="10.00">cassert</text>
</a>
</g>
</g>
<!-- Node3&#45;&gt;Node4 -->
<g id="edge3" class="edge">
<title>Node3&#45;&gt;Node4</title>
<path fill="none" stroke="midnightblue" d="M224.17,-56.08C224.17,-49.01 224.17,-38.86 224.17,-29.99"/>
<polygon fill="midnightblue" stroke="midnightblue" points="227.67,-29.75 224.17,-19.75 220.67,-29.75 227.67,-29.75"/>
</g>
<!-- Node5&#45;&gt;Node3 -->
<g id="edge5" class="edge">
<title>Node5&#45;&gt;Node3</title>
<path fill="none" stroke="midnightblue" d="M292.15,-177.61C212.07,-177.59 52.25,-172.34 17.17,-132 -27.16,-81.03 92.17,-69.57 167.64,-67.28"/>
<polygon fill="midnightblue" stroke="midnightblue" points="168.07,-70.77 177.98,-67.02 167.89,-63.78 168.07,-70.77"/>
</g>
<!-- Node6 -->
<g id="node6" class="node">
<title>Node6</title>
<g id="a_node6"><a xlink:href="a00146.html" target="_top" xlink:title=" ">
<polygon fill="white" stroke="black" points="502.67,-112.5 502.67,-131.5 597.67,-131.5 597.67,-112.5 502.67,-112.5"/>
<text text-anchor="middle" x="550.17" y="-119.5" font-family="Helvetica,sans-Serif" font-size="10.00">MessageSource.h</text>
</a>
</g>
</g>
<!-- Node5&#45;&gt;Node6 -->
<g id="edge6" class="edge">
<title>Node5&#45;&gt;Node6</title>
<path fill="none" stroke="midnightblue" d="M371.76,-168.44C408.35,-159.12 467,-144.18 506.99,-134"/>
<polygon fill="midnightblue" stroke="midnightblue" points="507.9,-137.38 516.73,-131.52 506.18,-130.59 507.9,-137.38"/>
</g>
<!-- Node7 -->
<g id="node7" class="node">
<title>Node7</title>
<g id="a_node7"><a xlink:href="a00158.html" target="_top" xlink:title=" ">
<polygon fill="white" stroke="black" points="638.67,-56.5 638.67,-75.5 701.67,-75.5 701.67,-56.5 638.67,-56.5"/>
<text text-anchor="middle" x="670.17" y="-63.5" font-family="Helvetica,sans-Serif" font-size="10.00">SdkType.h</text>
</a>
</g>
</g>
<!-- Node5&#45;&gt;Node7 -->
<g id="edge13" class="edge">
<title>Node5&#45;&gt;Node7</title>
<path fill="none" stroke="midnightblue" d="M384.36,-169.34C387.34,-168.88 390.29,-168.43 393.17,-168 453.04,-159.11 620.91,-175.34 663.17,-132 674.91,-119.96 675.4,-100.07 673.73,-85.46"/>
<polygon fill="midnightblue" stroke="midnightblue" points="677.18,-84.87 672.19,-75.53 670.27,-85.95 677.18,-84.87"/>
</g>
<!-- Node9 -->
<g id="node9" class="node">
<title>Node9</title>
<g id="a_node9"><a xlink:href="a00149.html" target="_top" xlink:title=" ">
<polygon fill="white" stroke="black" points="416.17,-112.5 416.17,-131.5 484.17,-131.5 484.17,-112.5 416.17,-112.5"/>
<text text-anchor="middle" x="450.17" y="-119.5" font-family="Helvetica,sans-Serif" font-size="10.00">MiraiCode.h</text>
</a>
</g>
</g>
<!-- Node5&#45;&gt;Node9 -->
<g id="edge10" class="edge">
<title>Node5&#45;&gt;Node9</title>
<path fill="none" stroke="midnightblue" d="M356.16,-168.32C374.2,-159.62 402.21,-146.12 422.97,-136.11"/>
<polygon fill="midnightblue" stroke="midnightblue" points="424.73,-139.15 432.22,-131.65 421.69,-132.84 424.73,-139.15"/>
</g>
<!-- Node10 -->
<g id="node10" class="node">
<title>Node10</title>
<g id="a_node10"><a xlink:title=" ">
<polygon fill="white" stroke="#bfbfbf" points="616.17,-112.5 616.17,-131.5 654.17,-131.5 654.17,-112.5 616.17,-112.5"/>
<text text-anchor="middle" x="635.17" y="-119.5" font-family="Helvetica,sans-Serif" font-size="10.00">array</text>
</a>
</g>
</g>
<!-- Node5&#45;&gt;Node10 -->
<g id="edge14" class="edge">
<title>Node5&#45;&gt;Node10</title>
<path fill="none" stroke="midnightblue" d="M384.18,-169.39C450.76,-158.37 569.36,-138.69 606.03,-131.65"/>
<polygon fill="midnightblue" stroke="midnightblue" points="606.92,-135.04 615.99,-129.57 605.49,-128.19 606.92,-135.04"/>
</g>
<!-- Node11 -->
<g id="node11" class="node">
<title>Node11</title>
<g id="a_node11"><a xlink:title=" ">
<polygon fill="white" stroke="#bfbfbf" points="26.67,-112.5 26.67,-131.5 99.67,-131.5 99.67,-112.5 26.67,-112.5"/>
<text text-anchor="middle" x="63.17" y="-119.5" font-family="Helvetica,sans-Serif" font-size="10.00">json_fwd.hpp</text>
</a>
</g>
</g>
<!-- Node5&#45;&gt;Node11 -->
<g id="edge15" class="edge">
<title>Node5&#45;&gt;Node11</title>
<path fill="none" stroke="midnightblue" d="M294.59,-168.44C244.19,-158.55 161.53,-142.31 109.84,-132.17"/>
<polygon fill="midnightblue" stroke="midnightblue" points="110.42,-128.71 99.94,-130.22 109.07,-135.58 110.42,-128.71"/>
</g>
<!-- Node12 -->
<g id="node12" class="node">
<title>Node12</title>
<g id="a_node12"><a xlink:title=" ">
<polygon fill="white" stroke="#bfbfbf" points="118.17,-112.5 118.17,-131.5 168.17,-131.5 168.17,-112.5 118.17,-112.5"/>
<text text-anchor="middle" x="143.17" y="-119.5" font-family="Helvetica,sans-Serif" font-size="10.00">optional</text>
</a>
</g>
</g>
<!-- Node5&#45;&gt;Node12 -->
<g id="edge16" class="edge">
<title>Node5&#45;&gt;Node12</title>
<path fill="none" stroke="midnightblue" d="M307.27,-168.44C272.12,-158.71 214.87,-142.86 178.12,-132.68"/>
<polygon fill="midnightblue" stroke="midnightblue" points="178.91,-129.27 168.34,-129.97 177.04,-136.01 178.91,-129.27"/>
</g>
<!-- Node13 -->
<g id="node13" class="node">
<title>Node13</title>
<g id="a_node13"><a xlink:title=" ">
<polygon fill="white" stroke="#bfbfbf" points="186.17,-112.5 186.17,-131.5 238.17,-131.5 238.17,-112.5 186.17,-112.5"/>
<text text-anchor="middle" x="212.17" y="-119.5" font-family="Helvetica,sans-Serif" font-size="10.00">sstream</text>
</a>
</g>
</g>
<!-- Node5&#45;&gt;Node13 -->
<g id="edge17" class="edge">
<title>Node5&#45;&gt;Node13</title>
<path fill="none" stroke="midnightblue" d="M318.2,-168.44C297.56,-159.6 265.1,-145.69 241.53,-135.59"/>
<polygon fill="midnightblue" stroke="midnightblue" points="242.61,-132.24 232.04,-131.52 239.85,-138.67 242.61,-132.24"/>
</g>
<!-- Node14 -->
<g id="node14" class="node">
<title>Node14</title>
<g id="a_node14"><a xlink:title=" ">
<polygon fill="white" stroke="#bfbfbf" points="256.67,-112.5 256.67,-131.5 339.67,-131.5 339.67,-112.5 256.67,-112.5"/>
<text text-anchor="middle" x="298.17" y="-119.5" font-family="Helvetica,sans-Serif" font-size="10.00">unordered_map</text>
</a>
</g>
</g>
<!-- Node5&#45;&gt;Node14 -->
<g id="edge18" class="edge">
<title>Node5&#45;&gt;Node14</title>
<path fill="none" stroke="midnightblue" d="M331.56,-168.08C325.91,-160.46 317.62,-149.26 310.71,-139.94"/>
<polygon fill="midnightblue" stroke="midnightblue" points="313.41,-137.7 304.65,-131.75 307.79,-141.87 313.41,-137.7"/>
</g>
<!-- Node15 -->
<g id="node15" class="node">
<title>Node15</title>
<g id="a_node15"><a xlink:title=" ">
<polygon fill="white" stroke="#bfbfbf" points="358.17,-112.5 358.17,-131.5 398.17,-131.5 398.17,-112.5 358.17,-112.5"/>
<text text-anchor="middle" x="378.17" y="-119.5" font-family="Helvetica,sans-Serif" font-size="10.00">utility</text>
</a>
</g>
</g>
<!-- Node5&#45;&gt;Node15 -->
<g id="edge19" class="edge">
<title>Node5&#45;&gt;Node15</title>
<path fill="none" stroke="midnightblue" d="M344.77,-168.08C350.42,-160.46 358.71,-149.26 365.62,-139.94"/>
<polygon fill="midnightblue" stroke="midnightblue" points="368.54,-141.87 371.68,-131.75 362.92,-137.7 368.54,-141.87"/>
</g>
<!-- Node6&#45;&gt;Node3 -->
<g id="edge7" class="edge">
<title>Node6&#45;&gt;Node3</title>
<path fill="none" stroke="midnightblue" d="M502.41,-113.09C443.36,-103.31 342.99,-86.68 280.3,-76.3"/>
<polygon fill="midnightblue" stroke="midnightblue" points="280.64,-72.81 270.2,-74.63 279.49,-79.71 280.64,-72.81"/>
</g>
<!-- Node6&#45;&gt;Node7 -->
<g id="edge8" class="edge">
<title>Node6&#45;&gt;Node7</title>
<path fill="none" stroke="midnightblue" d="M569.18,-112.44C588.75,-103.64 619.47,-89.81 641.89,-79.72"/>
<polygon fill="midnightblue" stroke="midnightblue" points="643.56,-82.81 651.24,-75.52 640.68,-76.43 643.56,-82.81"/>
</g>
<!-- Node6&#45;&gt;Node8 -->
<g id="edge9" class="edge">
<title>Node6&#45;&gt;Node8</title>
<path fill="none" stroke="midnightblue" d="M550.17,-112.08C550.17,-105.01 550.17,-94.86 550.17,-85.99"/>
<polygon fill="midnightblue" stroke="midnightblue" points="553.67,-85.75 550.17,-75.75 546.67,-85.75 553.67,-85.75"/>
</g>
<!-- Node9&#45;&gt;Node3 -->
<g id="edge12" class="edge">
<title>Node9&#45;&gt;Node3</title>
<path fill="none" stroke="midnightblue" d="M415.84,-112.8C376.86,-103.48 313.08,-88.24 269.9,-77.93"/>
<polygon fill="midnightblue" stroke="midnightblue" points="270.47,-74.47 259.93,-75.55 268.85,-81.27 270.47,-74.47"/>
</g>
<!-- Node9&#45;&gt;Node8 -->
<g id="edge11" class="edge">
<title>Node9&#45;&gt;Node8</title>
<path fill="none" stroke="midnightblue" d="M466.23,-112.32C482.12,-103.74 506.67,-90.49 525.12,-80.52"/>
<polygon fill="midnightblue" stroke="midnightblue" points="527,-83.49 534.14,-75.65 523.68,-77.33 527,-83.49"/>
</g>
</g>
</svg>
