<?xml version="1.0" encoding="UTF-8" standalone="no"?>
<!DOCTYPE svg PUBLIC "-//W3C//DTD SVG 1.1//EN"
 "http://www.w3.org/Graphics/SVG/1.1/DTD/svg11.dtd">
<!-- Generated by graphviz version 2.50.0 (20211204.2007)
 -->
<!-- Title: MessageSource.h Pages: 1 -->
<svg width="1054pt" height="476pt"
 viewBox="0.00 0.00 1053.50 476.00" xmlns="http://www.w3.org/2000/svg" xmlns:xlink="http://www.w3.org/1999/xlink">
<g id="graph0" class="graph" transform="scale(1 1) rotate(0) translate(4 472)">
<title>MessageSource.h</title>
<polygon fill="white" stroke="transparent" points="-4,4 -4,-472 1049.5,-472 1049.5,4 -4,4"/>
<!-- Node1 -->
<g id="node1" class="node">
<title>Node1</title>
<g id="a_node1"><a xlink:title=" ">
<polygon fill="#bfbfbf" stroke="black" points="778,-448.5 778,-467.5 873,-467.5 873,-448.5 778,-448.5"/>
<text text-anchor="middle" x="825.5" y="-455.5" font-family="Helvetica,sans-Serif" font-size="10.00">MessageSource.h</text>
</a>
</g>
</g>
<!-- Node2 -->
<g id="node2" class="node">
<title>Node2</title>
<g id="a_node2"><a xlink:href="a00281.html" target="_top" xlink:title=" ">
<polygon fill="white" stroke="black" points="655.5,-392.5 655.5,-411.5 761.5,-411.5 761.5,-392.5 655.5,-392.5"/>
<text text-anchor="middle" x="708.5" y="-399.5" font-family="Helvetica,sans-Serif" font-size="10.00">MessageSource.cpp</text>
</a>
</g>
</g>
<!-- Node1&#45;&gt;Node2 -->
<g id="edge1" class="edge">
<title>Node1&#45;&gt;Node2</title>
<path fill="none" stroke="midnightblue" d="M797.84,-444.23C775.95,-434.13 746,-420.31 726.95,-411.52"/>
<polygon fill="midnightblue" stroke="midnightblue" points="796.41,-447.43 806.96,-448.44 799.35,-441.08 796.41,-447.43"/>
</g>
<!-- Node3 -->
<g id="node3" class="node">
<title>Node3</title>
<g id="a_node3"><a xlink:href="a00161.html" target="_top" xlink:title=" ">
<polygon fill="white" stroke="black" points="512.5,-56.5 512.5,-75.5 582.5,-75.5 582.5,-56.5 512.5,-56.5"/>
<text text-anchor="middle" x="547.5" y="-63.5" font-family="Helvetica,sans-Serif" font-size="10.00">MiraiCP.hpp</text>
</a>
</g>
</g>
<!-- Node1&#45;&gt;Node3 -->
<g id="edge2" class="edge">
<title>Node1&#45;&gt;Node3</title>
<path fill="none" stroke="midnightblue" d="M850,-443.15C878.44,-425.04 921.5,-390.46 921.5,-347 921.5,-347 921.5,-347 921.5,-177 921.5,-136.46 893.67,-130.31 857.5,-112 809.95,-87.93 653.49,-74.34 582.77,-69.29"/>
<polygon fill="midnightblue" stroke="midnightblue" points="848.06,-440.23 841.35,-448.44 851.71,-446.21 848.06,-440.23"/>
</g>
<!-- Node15 -->
<g id="node15" class="node">
<title>Node15</title>
<g id="a_node15"><a xlink:href="a00170.html" target="_top" xlink:title=" ">
<polygon fill="white" stroke="black" points="779.5,-392.5 779.5,-411.5 871.5,-411.5 871.5,-392.5 779.5,-392.5"/>
<text text-anchor="middle" x="825.5" y="-399.5" font-family="Helvetica,sans-Serif" font-size="10.00">SingleMessage.h</text>
</a>
</g>
</g>
<!-- Node1&#45;&gt;Node15 -->
<g id="edge14" class="edge">
<title>Node1&#45;&gt;Node15</title>
<path fill="none" stroke="midnightblue" d="M825.5,-437.8C825.5,-428.91 825.5,-418.78 825.5,-411.75"/>
<polygon fill="midnightblue" stroke="midnightblue" points="822,-438.08 825.5,-448.08 829,-438.08 822,-438.08"/>
</g>
<!-- Node4 -->
<g id="node4" class="node">
<title>Node4</title>
<g id="a_node4"><a xlink:href="a00002.html" target="_top" xlink:title=" ">
<polygon fill="white" stroke="black" points="0,-0.5 0,-19.5 101,-19.5 101,-0.5 0,-0.5"/>
<text text-anchor="middle" x="50.5" y="-7.5" font-family="Helvetica,sans-Serif" font-size="10.00">callbackHandle.cpp</text>
</a>
</g>
</g>
<!-- Node3&#45;&gt;Node4 -->
<g id="edge3" class="edge">
<title>Node3&#45;&gt;Node4</title>
<path fill="none" stroke="midnightblue" d="M502.17,-61.03C422.71,-53.91 253.16,-38.03 110.5,-20 107.47,-19.62 104.36,-19.21 101.22,-18.78"/>
<polygon fill="midnightblue" stroke="midnightblue" points="502.05,-64.53 512.32,-61.93 502.67,-57.56 502.05,-64.53"/>
</g>
<!-- Node5 -->
<g id="node5" class="node">
<title>Node5</title>
<g id="a_node5"><a xlink:href="a01239.html" target="_top" xlink:title=" ">
<polygon fill="white" stroke="black" points="119.5,-0.5 119.5,-19.5 197.5,-19.5 197.5,-0.5 119.5,-0.5"/>
<text text-anchor="middle" x="158.5" y="-7.5" font-family="Helvetica,sans-Serif" font-size="10.00">command.cpp</text>
</a>
</g>
</g>
<!-- Node3&#45;&gt;Node5 -->
<g id="edge4" class="edge">
<title>Node3&#45;&gt;Node5</title>
<path fill="none" stroke="midnightblue" d="M502.08,-59.8C436.61,-52.12 312.01,-36.84 206.5,-20 203.57,-19.53 200.54,-19.02 197.5,-18.5"/>
<polygon fill="midnightblue" stroke="midnightblue" points="501.73,-63.28 512.06,-60.96 502.54,-56.33 501.73,-63.28"/>
</g>
<!-- Node6 -->
<g id="node6" class="node">
<title>Node6</title>
<g id="a_node6"><a xlink:href="a01245.html" target="_top" xlink:title=" ">
<polygon fill="white" stroke="black" points="215.5,-0.5 215.5,-19.5 331.5,-19.5 331.5,-0.5 215.5,-0.5"/>
<text text-anchor="middle" x="273.5" y="-7.5" font-family="Helvetica,sans-Serif" font-size="10.00">forwardedMessage.cpp</text>
</a>
</g>
</g>
<!-- Node3&#45;&gt;Node6 -->
<g id="edge5" class="edge">
<title>Node3&#45;&gt;Node6</title>
<path fill="none" stroke="midnightblue" d="M502.4,-56.11C450.95,-45.97 367.41,-29.51 316.74,-19.52"/>
<polygon fill="midnightblue" stroke="midnightblue" points="501.75,-59.55 512.24,-58.05 503.11,-52.68 501.75,-59.55"/>
</g>
<!-- Node7 -->
<g id="node7" class="node">
<title>Node7</title>
<g id="a_node7"><a xlink:href="a01251.html" target="_top" xlink:title=" ">
<polygon fill="white" stroke="black" points="350,-0.5 350,-19.5 409,-19.5 409,-0.5 350,-0.5"/>
<text text-anchor="middle" x="379.5" y="-7.5" font-family="Helvetica,sans-Serif" font-size="10.00">group.cpp</text>
</a>
</g>
</g>
<!-- Node3&#45;&gt;Node7 -->
<g id="edge6" class="edge">
<title>Node3&#45;&gt;Node7</title>
<path fill="none" stroke="midnightblue" d="M511.11,-53.3C479.46,-43.13 434.33,-28.62 406,-19.52"/>
<polygon fill="midnightblue" stroke="midnightblue" points="510.29,-56.72 520.88,-56.44 512.43,-50.05 510.29,-56.72"/>
</g>
<!-- Node8 -->
<g id="node8" class="node">
<title>Node8</title>
<g id="a_node8"><a xlink:href="a00017.html" target="_top" xlink:title=" ">
<polygon fill="white" stroke="black" points="427,-0.5 427,-19.5 498,-19.5 498,-0.5 427,-0.5"/>
<text text-anchor="middle" x="462.5" y="-7.5" font-family="Helvetica,sans-Serif" font-size="10.00">lightApp.cpp</text>
</a>
</g>
</g>
<!-- Node3&#45;&gt;Node8 -->
<g id="edge7" class="edge">
<title>Node3&#45;&gt;Node8</title>
<path fill="none" stroke="midnightblue" d="M525.31,-50.9C509.72,-41 489.37,-28.07 476.12,-19.65"/>
<polygon fill="midnightblue" stroke="midnightblue" points="523.53,-53.92 533.84,-56.32 527.28,-48.01 523.53,-53.92"/>
</g>
<!-- Node9 -->
<g id="node9" class="node">
<title>Node9</title>
<g id="a_node9"><a xlink:href="a01257.html" target="_top" xlink:title=" ">
<polygon fill="white" stroke="black" points="516.5,-0.5 516.5,-19.5 578.5,-19.5 578.5,-0.5 516.5,-0.5"/>
<text text-anchor="middle" x="547.5" y="-7.5" font-family="Helvetica,sans-Serif" font-size="10.00">logger.cpp</text>
</a>
</g>
</g>
<!-- Node3&#45;&gt;Node9 -->
<g id="edge8" class="edge">
<title>Node3&#45;&gt;Node9</title>
<path fill="none" stroke="midnightblue" d="M547.5,-45.8C547.5,-36.91 547.5,-26.78 547.5,-19.75"/>
<polygon fill="midnightblue" stroke="midnightblue" points="544,-46.08 547.5,-56.08 551,-46.08 544,-46.08"/>
</g>
<!-- Node10 -->
<g id="node10" class="node">
<title>Node10</title>
<g id="a_node10"><a xlink:href="a01263.html" target="_top" xlink:title=" ">
<polygon fill="white" stroke="black" points="597,-0.5 597,-19.5 668,-19.5 668,-0.5 597,-0.5"/>
<text text-anchor="middle" x="632.5" y="-7.5" font-family="Helvetica,sans-Serif" font-size="10.00">member.cpp</text>
</a>
</g>
</g>
<!-- Node3&#45;&gt;Node10 -->
<g id="edge9" class="edge">
<title>Node3&#45;&gt;Node10</title>
<path fill="none" stroke="midnightblue" d="M569.69,-50.9C585.28,-41 605.63,-28.07 618.88,-19.65"/>
<polygon fill="midnightblue" stroke="midnightblue" points="567.72,-48.01 561.16,-56.32 571.47,-53.92 567.72,-48.01"/>
</g>
<!-- Node11 -->
<g id="node11" class="node">
<title>Node11</title>
<g id="a_node11"><a xlink:href="a00026.html" target="_top" xlink:title=" ">
<polygon fill="white" stroke="black" points="686,-0.5 686,-19.5 761,-19.5 761,-0.5 686,-0.5"/>
<text text-anchor="middle" x="723.5" y="-7.5" font-family="Helvetica,sans-Serif" font-size="10.00">message.cpp</text>
</a>
</g>
</g>
<!-- Node3&#45;&gt;Node11 -->
<g id="edge10" class="edge">
<title>Node3&#45;&gt;Node11</title>
<path fill="none" stroke="midnightblue" d="M585.19,-53.44C618.37,-43.26 665.93,-28.66 695.74,-19.52"/>
<polygon fill="midnightblue" stroke="midnightblue" points="583.92,-50.16 575.39,-56.44 585.97,-56.86 583.92,-50.16"/>
</g>
<!-- Node12 -->
<g id="node12" class="node">
<title>Node12</title>
<g id="a_node12"><a xlink:href="a00029.html" target="_top" xlink:title=" ">
<polygon fill="white" stroke="black" points="779.5,-0.5 779.5,-19.5 873.5,-19.5 873.5,-0.5 779.5,-0.5"/>
<text text-anchor="middle" x="826.5" y="-7.5" font-family="Helvetica,sans-Serif" font-size="10.00">nextMessage.cpp</text>
</a>
</g>
</g>
<!-- Node3&#45;&gt;Node12 -->
<g id="edge11" class="edge">
<title>Node3&#45;&gt;Node12</title>
<path fill="none" stroke="midnightblue" d="M592.53,-56.28C644.74,-46.18 730.26,-29.63 782.17,-19.58"/>
<polygon fill="midnightblue" stroke="midnightblue" points="591.71,-52.88 582.55,-58.22 593.04,-59.75 591.71,-52.88"/>
</g>
<!-- Node13 -->
<g id="node13" class="node">
<title>Node13</title>
<g id="a_node13"><a xlink:href="a01269.html" target="_top" xlink:title=" ">
<polygon fill="white" stroke="black" points="891.5,-0.5 891.5,-19.5 965.5,-19.5 965.5,-0.5 891.5,-0.5"/>
<text text-anchor="middle" x="928.5" y="-7.5" font-family="Helvetica,sans-Serif" font-size="10.00">schedule.cpp</text>
</a>
</g>
</g>
<!-- Node3&#45;&gt;Node13 -->
<g id="edge12" class="edge">
<title>Node3&#45;&gt;Node13</title>
<path fill="none" stroke="midnightblue" d="M593.05,-59.76C657.62,-52.12 779.39,-37 882.5,-20 885.39,-19.52 888.38,-19 891.38,-18.46"/>
<polygon fill="midnightblue" stroke="midnightblue" points="592.33,-56.32 582.81,-60.96 593.15,-63.27 592.33,-56.32"/>
</g>
<!-- Node14 -->
<g id="node14" class="node">
<title>Node14</title>
<g id="a_node14"><a xlink:href="a00035.html" target="_top" xlink:title=" ">
<polygon fill="white" stroke="black" points="983.5,-0.5 983.5,-19.5 1045.5,-19.5 1045.5,-0.5 983.5,-0.5"/>
<text text-anchor="middle" x="1014.5" y="-7.5" font-family="Helvetica,sans-Serif" font-size="10.00">thread.cpp</text>
</a>
</g>
</g>
<!-- Node3&#45;&gt;Node14 -->
<g id="edge13" class="edge">
<title>Node3&#45;&gt;Node14</title>
<path fill="none" stroke="midnightblue" d="M592.54,-61.99C670.66,-56.37 836.18,-42.77 974.5,-20 977.31,-19.54 980.22,-19 983.12,-18.42"/>
<polygon fill="midnightblue" stroke="midnightblue" points="592.28,-58.49 582.55,-62.69 592.78,-65.48 592.28,-58.49"/>
</g>
<!-- Node15&#45;&gt;Node3 -->
<g id="edge55" class="edge">
<title>Node15&#45;&gt;Node3</title>
<path fill="none" stroke="midnightblue" d="M842.39,-385C850.07,-376.93 858.71,-366.62 864.5,-356 878.91,-329.58 883.5,-321.1 883.5,-291 883.5,-291 883.5,-291 883.5,-177 883.5,-138.58 860.12,-130.6 826.5,-112 785.13,-89.11 647.89,-75.18 582.6,-69.69"/>
<polygon fill="midnightblue" stroke="midnightblue" points="839.74,-382.69 835.17,-392.25 844.71,-387.63 839.74,-382.69"/>
</g>
<!-- Node16 -->
<g id="node16" class="node">
<title>Node16</title>
<g id="a_node16"><a xlink:href="a00152.html" target="_top" xlink:title=" ">
<polygon fill="white" stroke="black" points="241,-336.5 241,-355.5 330,-355.5 330,-336.5 241,-336.5"/>
<text text-anchor="middle" x="285.5" y="-343.5" font-family="Helvetica,sans-Serif" font-size="10.00">MessageChain.h</text>
</a>
</g>
</g>
<!-- Node15&#45;&gt;Node16 -->
<g id="edge15" class="edge">
<title>Node15&#45;&gt;Node16</title>
<path fill="none" stroke="midnightblue" d="M769.31,-391.93C601.32,-370.71 413.99,-356.14 330.08,-350.09"/>
<polygon fill="midnightblue" stroke="midnightblue" points="768.96,-395.41 779.32,-393.2 769.84,-388.47 768.96,-395.41"/>
</g>
<!-- Node35 -->
<g id="node35" class="node">
<title>Node35</title>
<g id="a_node35"><a xlink:href="a00290.html" target="_top" xlink:title=" ">
<polygon fill="white" stroke="black" points="753.5,-336.5 753.5,-355.5 855.5,-355.5 855.5,-336.5 753.5,-336.5"/>
<text text-anchor="middle" x="804.5" y="-343.5" font-family="Helvetica,sans-Serif" font-size="10.00">SingleMessage.cpp</text>
</a>
</g>
</g>
<!-- Node15&#45;&gt;Node35 -->
<g id="edge56" class="edge">
<title>Node15&#45;&gt;Node35</title>
<path fill="none" stroke="midnightblue" d="M818.38,-382.69C814.84,-373.59 810.73,-363.01 807.9,-355.75"/>
<polygon fill="midnightblue" stroke="midnightblue" points="815.15,-384.03 822.03,-392.08 821.67,-381.49 815.15,-384.03"/>
</g>
<!-- Node16&#45;&gt;Node3 -->
<g id="edge54" class="edge">
<title>Node16&#45;&gt;Node3</title>
<path fill="none" stroke="midnightblue" d="M231,-338.76C190.52,-332.65 134.71,-321.09 89.5,-300 46.08,-279.75 3.5,-282.91 3.5,-235 3.5,-235 3.5,-235 3.5,-177 3.5,-72.82 391.68,-66.15 512.23,-66.6"/>
<polygon fill="midnightblue" stroke="midnightblue" points="230.55,-342.23 240.95,-340.2 231.55,-335.3 230.55,-342.23"/>
</g>
<!-- Node17 -->
<g id="node17" class="node">
<title>Node17</title>
<g id="a_node17"><a xlink:href="a00113.html" target="_top" xlink:title=" ">
<polygon fill="white" stroke="black" points="403,-280.5 403,-299.5 462,-299.5 462,-280.5 403,-280.5"/>
<text text-anchor="middle" x="432.5" y="-287.5" font-family="Helvetica,sans-Serif" font-size="10.00">Contact.h</text>
</a>
</g>
</g>
<!-- Node16&#45;&gt;Node17 -->
<g id="edge16" class="edge">
<title>Node16&#45;&gt;Node17</title>
<path fill="none" stroke="midnightblue" d="M318.42,-332.91C346.06,-322.75 384.84,-308.51 409.32,-299.52"/>
<polygon fill="midnightblue" stroke="midnightblue" points="316.97,-329.71 308.79,-336.44 319.39,-336.28 316.97,-329.71"/>
</g>
<!-- Node31 -->
<g id="node31" class="node">
<title>Node31</title>
<g id="a_node31"><a xlink:href="a00278.html" target="_top" xlink:title=" ">
<polygon fill="white" stroke="black" points="69.5,-168.5 69.5,-187.5 169.5,-187.5 169.5,-168.5 69.5,-168.5"/>
<text text-anchor="middle" x="119.5" y="-175.5" font-family="Helvetica,sans-Serif" font-size="10.00">MessageChain.cpp</text>
</a>
</g>
</g>
<!-- Node16&#45;&gt;Node31 -->
<g id="edge53" class="edge">
<title>Node16&#45;&gt;Node31</title>
<path fill="none" stroke="midnightblue" d="M288.17,-326.36C290.8,-300.22 291.39,-252.68 266.5,-224 253.12,-208.58 203.22,-195.52 165.24,-187.5"/>
<polygon fill="midnightblue" stroke="midnightblue" points="284.68,-326.08 286.94,-336.43 291.62,-326.92 284.68,-326.08"/>
</g>
<!-- Node34 -->
<g id="node34" class="node">
<title>Node34</title>
<g id="a_node34"><a xlink:href="a00125.html" target="_top" xlink:title=" ">
<polygon fill="white" stroke="black" points="98.5,-280.5 98.5,-299.5 208.5,-299.5 208.5,-280.5 98.5,-280.5"/>
<text text-anchor="middle" x="153.5" y="-287.5" font-family="Helvetica,sans-Serif" font-size="10.00">ForwardedMessage.h</text>
</a>
</g>
</g>
<!-- Node16&#45;&gt;Node34 -->
<g id="edge49" class="edge">
<title>Node16&#45;&gt;Node34</title>
<path fill="none" stroke="midnightblue" d="M255.28,-332.64C230.51,-322.5 196.1,-308.43 174.32,-299.52"/>
<polygon fill="midnightblue" stroke="midnightblue" points="254,-335.9 264.58,-336.44 256.65,-329.42 254,-335.9"/>
</g>
<!-- Node17&#45;&gt;Node3 -->
<g id="edge48" class="edge">
<title>Node17&#45;&gt;Node3</title>
<path fill="none" stroke="midnightblue" d="M472.26,-285.19C563.92,-275.47 785.41,-246.28 826.5,-188 889.09,-99.22 670.85,-74.99 582.76,-68.89"/>
<polygon fill="midnightblue" stroke="midnightblue" points="471.84,-281.71 462.25,-286.23 472.56,-288.68 471.84,-281.71"/>
</g>
<!-- Node18 -->
<g id="node18" class="node">
<title>Node18</title>
<g id="a_node18"><a xlink:href="a00107.html" target="_top" xlink:title=" ">
<polygon fill="white" stroke="black" points="313.5,-224.5 313.5,-243.5 353.5,-243.5 353.5,-224.5 313.5,-224.5"/>
<text text-anchor="middle" x="333.5" y="-231.5" font-family="Helvetica,sans-Serif" font-size="10.00">Bot.h</text>
</a>
</g>
</g>
<!-- Node17&#45;&gt;Node18 -->
<g id="edge17" class="edge">
<title>Node17&#45;&gt;Node18</title>
<path fill="none" stroke="midnightblue" d="M407.66,-275.45C389.39,-265.48 365.08,-252.23 349.37,-243.65"/>
<polygon fill="midnightblue" stroke="midnightblue" points="406.14,-278.61 416.59,-280.32 409.49,-272.46 406.14,-278.61"/>
</g>
<!-- Node25 -->
<g id="node25" class="node">
<title>Node25</title>
<g id="a_node25"><a xlink:href="a00242.html" target="_top" xlink:title=" ">
<polygon fill="white" stroke="black" points="540,-168.5 540,-187.5 609,-187.5 609,-168.5 540,-168.5"/>
<text text-anchor="middle" x="574.5" y="-175.5" font-family="Helvetica,sans-Serif" font-size="10.00">Contact.cpp</text>
</a>
</g>
</g>
<!-- Node17&#45;&gt;Node25 -->
<g id="edge27" class="edge">
<title>Node17&#45;&gt;Node25</title>
<path fill="none" stroke="midnightblue" d="M456.36,-275C470.21,-266.55 487.77,-255.27 502.5,-244 526.58,-225.59 552.39,-200.93 565.6,-187.92"/>
<polygon fill="midnightblue" stroke="midnightblue" points="454.21,-272.21 447.45,-280.36 457.82,-278.2 454.21,-272.21"/>
</g>
<!-- Node26 -->
<g id="node26" class="node">
<title>Node26</title>
<g id="a_node26"><a xlink:href="a01248.html" target="_top" xlink:title=" ">
<polygon fill="white" stroke="black" points="137.5,-224.5 137.5,-243.5 257.5,-243.5 257.5,-224.5 137.5,-224.5"/>
<text text-anchor="middle" x="197.5" y="-231.5" font-family="Helvetica,sans-Serif" font-size="10.00">ForwardedMessage.cpp</text>
</a>
</g>
</g>
<!-- Node17&#45;&gt;Node26 -->
<g id="edge28" class="edge">
<title>Node17&#45;&gt;Node26</title>
<path fill="none" stroke="midnightblue" d="M392.93,-279.91C348.8,-269.77 277.94,-253.48 234.76,-243.56"/>
<polygon fill="midnightblue" stroke="midnightblue" points="392.21,-283.33 402.74,-282.16 393.77,-276.51 392.21,-283.33"/>
</g>
<!-- Node27 -->
<g id="node27" class="node">
<title>Node27</title>
<g id="a_node27"><a xlink:href="a00128.html" target="_top" xlink:title=" ">
<polygon fill="white" stroke="black" points="371.5,-224.5 371.5,-243.5 423.5,-243.5 423.5,-224.5 371.5,-224.5"/>
<text text-anchor="middle" x="397.5" y="-231.5" font-family="Helvetica,sans-Serif" font-size="10.00">Friend.h</text>
</a>
</g>
</g>
<!-- Node17&#45;&gt;Node27 -->
<g id="edge29" class="edge">
<title>Node17&#45;&gt;Node27</title>
<path fill="none" stroke="midnightblue" d="M421.2,-271.57C415.18,-262.27 408.03,-251.25 403.17,-243.75"/>
<polygon fill="midnightblue" stroke="midnightblue" points="418.34,-273.6 426.72,-280.08 424.22,-269.79 418.34,-273.6"/>
</g>
<!-- Node29 -->
<g id="node29" class="node">
<title>Node29</title>
<g id="a_node29"><a xlink:href="a00131.html" target="_top" xlink:title=" ">
<polygon fill="white" stroke="black" points="442,-224.5 442,-243.5 493,-243.5 493,-224.5 442,-224.5"/>
<text text-anchor="middle" x="467.5" y="-231.5" font-family="Helvetica,sans-Serif" font-size="10.00">Group.h</text>
</a>
</g>
</g>
<!-- Node17&#45;&gt;Node29 -->
<g id="edge35" class="edge">
<title>Node17&#45;&gt;Node29</title>
<path fill="none" stroke="midnightblue" d="M443.8,-271.57C449.82,-262.27 456.97,-251.25 461.83,-243.75"/>
<polygon fill="midnightblue" stroke="midnightblue" points="440.78,-269.79 438.28,-280.08 446.66,-273.6 440.78,-269.79"/>
</g>
<!-- Node32 -->
<g id="node32" class="node">
<title>Node32</title>
<g id="a_node32"><a xlink:href="a00149.html" target="_top" xlink:title=" ">
<polygon fill="white" stroke="black" points="600.5,-224.5 600.5,-243.5 660.5,-243.5 660.5,-224.5 600.5,-224.5"/>
<text text-anchor="middle" x="630.5" y="-231.5" font-family="Helvetica,sans-Serif" font-size="10.00">Member.h</text>
</a>
</g>
</g>
<!-- Node17&#45;&gt;Node32 -->
<g id="edge42" class="edge">
<title>Node17&#45;&gt;Node32</title>
<path fill="none" stroke="midnightblue" d="M471.8,-278.28C509.6,-267.97 565.94,-252.61 600.33,-243.23"/>
<polygon fill="midnightblue" stroke="midnightblue" points="470.87,-274.91 462.14,-280.92 472.71,-281.66 470.87,-274.91"/>
</g>
<!-- Node18&#45;&gt;Node3 -->
<g id="edge26" class="edge">
<title>Node18&#45;&gt;Node3</title>
<path fill="none" stroke="midnightblue" d="M304,-223.05C287.07,-215.87 266.8,-204.5 254.5,-188 234.02,-160.52 219.1,-137.93 241.5,-112 276.16,-71.87 439.47,-66.88 512.3,-66.69"/>
<polygon fill="midnightblue" stroke="midnightblue" points="302.9,-226.38 313.49,-226.8 305.48,-219.87 302.9,-226.38"/>
</g>
<!-- Node19 -->
<g id="node19" class="node">
<title>Node19</title>
<g id="a_node19"><a xlink:href="a00236.html" target="_top" xlink:title=" ">
<polygon fill="white" stroke="black" points="285.5,-168.5 285.5,-187.5 335.5,-187.5 335.5,-168.5 285.5,-168.5"/>
<text text-anchor="middle" x="310.5" y="-175.5" font-family="Helvetica,sans-Serif" font-size="10.00">Bot.cpp</text>
</a>
</g>
</g>
<!-- Node18&#45;&gt;Node19 -->
<g id="edge18" class="edge">
<title>Node18&#45;&gt;Node19</title>
<path fill="none" stroke="midnightblue" d="M325.7,-214.69C321.82,-205.59 317.32,-195.01 314.23,-187.75"/>
<polygon fill="midnightblue" stroke="midnightblue" points="322.56,-216.25 329.7,-224.08 329,-213.51 322.56,-216.25"/>
</g>
<!-- Node20 -->
<g id="node20" class="node">
<title>Node20</title>
<g id="a_node20"><a xlink:href="a00119.html" target="_top" xlink:title=" ">
<polygon fill="white" stroke="black" points="434,-168.5 434,-187.5 483,-187.5 483,-168.5 434,-168.5"/>
<text text-anchor="middle" x="458.5" y="-175.5" font-family="Helvetica,sans-Serif" font-size="10.00">Event.h</text>
</a>
</g>
</g>
<!-- Node18&#45;&gt;Node20 -->
<g id="edge19" class="edge">
<title>Node18&#45;&gt;Node20</title>
<path fill="none" stroke="midnightblue" d="M362.74,-220.37C386.15,-210.26 418.34,-196.35 438.79,-187.52"/>
<polygon fill="midnightblue" stroke="midnightblue" points="361.1,-217.26 353.31,-224.44 363.87,-223.69 361.1,-217.26"/>
</g>
<!-- Node20&#45;&gt;Node3 -->
<g id="edge21" class="edge">
<title>Node20&#45;&gt;Node3</title>
<path fill="none" stroke="midnightblue" d="M488.76,-163.74C502.67,-156.25 518.31,-145.63 528.5,-132 541.31,-114.86 545.51,-89.24 546.87,-75.86"/>
<polygon fill="midnightblue" stroke="midnightblue" points="486.84,-160.79 479.49,-168.42 490,-167.03 486.84,-160.79"/>
</g>
<!-- Node21 -->
<g id="node21" class="node">
<title>Node21</title>
<g id="a_node21"><a xlink:href="a00248.html" target="_top" xlink:title=" ">
<polygon fill="white" stroke="black" points="335,-112.5 335,-131.5 394,-131.5 394,-112.5 335,-112.5"/>
<text text-anchor="middle" x="364.5" y="-119.5" font-family="Helvetica,sans-Serif" font-size="10.00">Event.cpp</text>
</a>
</g>
</g>
<!-- Node20&#45;&gt;Node21 -->
<g id="edge20" class="edge">
<title>Node20&#45;&gt;Node21</title>
<path fill="none" stroke="midnightblue" d="M434.44,-163.18C417.14,-153.24 394.35,-140.15 379.57,-131.65"/>
<polygon fill="midnightblue" stroke="midnightblue" points="432.98,-166.38 443.4,-168.32 436.47,-160.31 432.98,-166.38"/>
</g>
<!-- Node22 -->
<g id="node22" class="node">
<title>Node22</title>
<g id="a_node22"><a xlink:href="a00164.html" target="_top" xlink:title=" ">
<polygon fill="white" stroke="black" points="412,-112.5 412,-131.5 519,-131.5 519,-112.5 412,-112.5"/>
<text text-anchor="middle" x="465.5" y="-119.5" font-family="Helvetica,sans-Serif" font-size="10.00">MiraiCPNewThread.h</text>
</a>
</g>
</g>
<!-- Node20&#45;&gt;Node22 -->
<g id="edge22" class="edge">
<title>Node20&#45;&gt;Node22</title>
<path fill="none" stroke="midnightblue" d="M460.95,-158.1C462.11,-149.14 463.44,-138.86 464.37,-131.75"/>
<polygon fill="midnightblue" stroke="midnightblue" points="457.47,-157.72 459.66,-168.08 464.41,-158.62 457.47,-157.72"/>
</g>
<!-- Node23 -->
<g id="node23" class="node">
<title>Node23</title>
<g id="a_node23"><a xlink:href="a01272.html" target="_top" xlink:title=" ">
<polygon fill="white" stroke="black" points="575.5,-112.5 575.5,-131.5 651.5,-131.5 651.5,-112.5 575.5,-112.5"/>
<text text-anchor="middle" x="613.5" y="-119.5" font-family="Helvetica,sans-Serif" font-size="10.00">Schedule.cpp</text>
</a>
</g>
</g>
<!-- Node20&#45;&gt;Node23 -->
<g id="edge24" class="edge">
<title>Node20&#45;&gt;Node23</title>
<path fill="none" stroke="midnightblue" d="M492.83,-165.04C522,-154.88 563.14,-140.55 589.05,-131.52"/>
<polygon fill="midnightblue" stroke="midnightblue" points="491.35,-161.85 483.06,-168.44 493.66,-168.46 491.35,-161.85"/>
</g>
<!-- Node24 -->
<g id="node24" class="node">
<title>Node24</title>
<g id="a_node24"><a xlink:href="a00299.html" target="_top" xlink:title=" ">
<polygon fill="white" stroke="black" points="264,-112.5 264,-131.5 317,-131.5 317,-112.5 264,-112.5"/>
<text text-anchor="middle" x="290.5" y="-119.5" font-family="Helvetica,sans-Serif" font-size="10.00">utils.cpp</text>
</a>
</g>
</g>
<!-- Node20&#45;&gt;Node24 -->
<g id="edge25" class="edge">
<title>Node20&#45;&gt;Node24</title>
<path fill="none" stroke="midnightblue" d="M423.97,-165.9C392.27,-155.71 345.96,-140.83 317.06,-131.54"/>
<polygon fill="midnightblue" stroke="midnightblue" points="423.12,-169.3 433.71,-169.03 425.26,-162.64 423.12,-169.3"/>
</g>
<!-- Node22&#45;&gt;Node3 -->
<g id="edge23" class="edge">
<title>Node22&#45;&gt;Node3</title>
<path fill="none" stroke="midnightblue" d="M487.33,-106.62C502.31,-96.76 521.7,-83.99 534.36,-75.65"/>
<polygon fill="midnightblue" stroke="midnightblue" points="485.1,-103.9 478.67,-112.32 488.95,-109.75 485.1,-103.9"/>
</g>
<!-- Node27&#45;&gt;Node3 -->
<g id="edge34" class="edge">
<title>Node27&#45;&gt;Node3</title>
<path fill="none" stroke="midnightblue" d="M361.72,-223.28C330.67,-214.21 288.82,-200.28 276.5,-188 251.69,-163.25 232.69,-138.6 255.5,-112 288.23,-73.84 442.01,-67.74 512.29,-66.97"/>
<polygon fill="midnightblue" stroke="midnightblue" points="360.8,-226.65 371.37,-226.04 362.73,-219.92 360.8,-226.65"/>
</g>
<!-- Node27&#45;&gt;Node19 -->
<g id="edge30" class="edge">
<title>Node27&#45;&gt;Node19</title>
<path fill="none" stroke="midnightblue" d="M374.78,-218.9C358.83,-209 338,-196.07 324.44,-187.65"/>
<polygon fill="midnightblue" stroke="midnightblue" points="373.18,-222.02 383.52,-224.32 376.87,-216.08 373.18,-222.02"/>
</g>
<!-- Node27&#45;&gt;Node20 -->
<g id="edge32" class="edge">
<title>Node27&#45;&gt;Node20</title>
<path fill="none" stroke="midnightblue" d="M414.97,-217.54C425.84,-207.91 439.44,-195.87 448.52,-187.83"/>
<polygon fill="midnightblue" stroke="midnightblue" points="412.47,-215.07 407.3,-224.32 417.11,-220.32 412.47,-215.07"/>
</g>
<!-- Node27&#45;&gt;Node25 -->
<g id="edge31" class="edge">
<title>Node27&#45;&gt;Node25</title>
<path fill="none" stroke="midnightblue" d="M433.45,-222.03C466.86,-211.84 515.94,-196.87 546.52,-187.54"/>
<polygon fill="midnightblue" stroke="midnightblue" points="432.16,-218.77 423.62,-225.03 434.2,-225.46 432.16,-218.77"/>
</g>
<!-- Node28 -->
<g id="node28" class="node">
<title>Node28</title>
<g id="a_node28"><a xlink:href="a00257.html" target="_top" xlink:title=" ">
<polygon fill="white" stroke="black" points="353.5,-168.5 353.5,-187.5 415.5,-187.5 415.5,-168.5 353.5,-168.5"/>
<text text-anchor="middle" x="384.5" y="-175.5" font-family="Helvetica,sans-Serif" font-size="10.00">Friend.cpp</text>
</a>
</g>
</g>
<!-- Node27&#45;&gt;Node28 -->
<g id="edge33" class="edge">
<title>Node27&#45;&gt;Node28</title>
<path fill="none" stroke="midnightblue" d="M392.95,-214.1C390.79,-205.14 388.32,-194.86 386.61,-187.75"/>
<polygon fill="midnightblue" stroke="midnightblue" points="389.61,-215.18 395.35,-224.08 396.42,-213.54 389.61,-215.18"/>
</g>
<!-- Node29&#45;&gt;Node3 -->
<g id="edge41" class="edge">
<title>Node29&#45;&gt;Node3</title>
<path fill="none" stroke="midnightblue" d="M479.87,-216.17C491.59,-201.4 510.49,-180.39 531.5,-168 582.78,-137.77 624.51,-179.41 660.5,-132 684.24,-100.72 623.9,-81.99 582.54,-73.16"/>
<polygon fill="midnightblue" stroke="midnightblue" points="476.85,-214.37 473.55,-224.43 482.41,-218.62 476.85,-214.37"/>
</g>
<!-- Node29&#45;&gt;Node19 -->
<g id="edge36" class="edge">
<title>Node29&#45;&gt;Node19</title>
<path fill="none" stroke="midnightblue" d="M433.11,-221.17C403.55,-211 361.63,-196.59 335.26,-187.52"/>
<polygon fill="midnightblue" stroke="midnightblue" points="432.03,-224.5 442.62,-224.44 434.3,-217.88 432.03,-224.5"/>
</g>
<!-- Node29&#45;&gt;Node20 -->
<g id="edge38" class="edge">
<title>Node29&#45;&gt;Node20</title>
<path fill="none" stroke="midnightblue" d="M464.35,-214.1C462.86,-205.14 461.14,-194.86 459.96,-187.75"/>
<polygon fill="midnightblue" stroke="midnightblue" points="460.92,-214.79 466.01,-224.08 467.82,-213.64 460.92,-214.79"/>
</g>
<!-- Node29&#45;&gt;Node25 -->
<g id="edge37" class="edge">
<title>Node29&#45;&gt;Node25</title>
<path fill="none" stroke="midnightblue" d="M493.8,-219.73C513.61,-209.73 540.21,-196.31 557.35,-187.65"/>
<polygon fill="midnightblue" stroke="midnightblue" points="492.04,-216.69 484.69,-224.32 495.2,-222.94 492.04,-216.69"/>
</g>
<!-- Node30 -->
<g id="node30" class="node">
<title>Node30</title>
<g id="a_node30"><a xlink:href="a01254.html" target="_top" xlink:title=" ">
<polygon fill="white" stroke="black" points="627.5,-168.5 627.5,-187.5 689.5,-187.5 689.5,-168.5 627.5,-168.5"/>
<text text-anchor="middle" x="658.5" y="-175.5" font-family="Helvetica,sans-Serif" font-size="10.00">Group.cpp</text>
</a>
</g>
</g>
<!-- Node29&#45;&gt;Node30 -->
<g id="edge39" class="edge">
<title>Node29&#45;&gt;Node30</title>
<path fill="none" stroke="midnightblue" d="M503.33,-222.87C539.32,-212.69 594.19,-197.18 628.12,-187.59"/>
<polygon fill="midnightblue" stroke="midnightblue" points="501.93,-219.63 493.26,-225.72 503.83,-226.36 501.93,-219.63"/>
</g>
<!-- Node29&#45;&gt;Node31 -->
<g id="edge40" class="edge">
<title>Node29&#45;&gt;Node31</title>
<path fill="none" stroke="midnightblue" d="M432.12,-224.13C333.48,-204.71 229.71,-191.47 169.66,-184.5"/>
<polygon fill="midnightblue" stroke="midnightblue" points="431.47,-227.57 441.96,-226.09 432.84,-220.7 431.47,-227.57"/>
</g>
<!-- Node32&#45;&gt;Node3 -->
<g id="edge47" class="edge">
<title>Node32&#45;&gt;Node3</title>
<path fill="none" stroke="midnightblue" d="M663.09,-219.9C676.6,-212.65 690.88,-202.18 698.5,-188 711.34,-164.1 682.55,-117.82 676.5,-112 650.95,-87.42 611.24,-76.2 582.63,-71.12"/>
<polygon fill="midnightblue" stroke="midnightblue" points="661.37,-216.84 653.95,-224.41 664.47,-223.12 661.37,-216.84"/>
</g>
<!-- Node32&#45;&gt;Node20 -->
<g id="edge44" class="edge">
<title>Node32&#45;&gt;Node20</title>
<path fill="none" stroke="midnightblue" d="M593.4,-221.35C560.03,-210.88 511.96,-195.78 483.12,-186.73"/>
<polygon fill="midnightblue" stroke="midnightblue" points="592.66,-224.79 603.25,-224.44 594.75,-218.11 592.66,-224.79"/>
</g>
<!-- Node32&#45;&gt;Node25 -->
<g id="edge43" class="edge">
<title>Node32&#45;&gt;Node25</title>
<path fill="none" stroke="midnightblue" d="M614.17,-217.25C604.24,-207.67 591.91,-195.79 583.66,-187.83"/>
<polygon fill="midnightblue" stroke="midnightblue" points="611.87,-219.9 621.5,-224.32 616.73,-214.86 611.87,-219.9"/>
</g>
<!-- Node32&#45;&gt;Node30 -->
<g id="edge45" class="edge">
<title>Node32&#45;&gt;Node30</title>
<path fill="none" stroke="midnightblue" d="M639.84,-214.98C644.59,-205.82 650.16,-195.09 653.96,-187.75"/>
<polygon fill="midnightblue" stroke="midnightblue" points="636.62,-213.59 635.12,-224.08 642.83,-216.82 636.62,-213.59"/>
</g>
<!-- Node33 -->
<g id="node33" class="node">
<title>Node33</title>
<g id="a_node33"><a xlink:href="a01266.html" target="_top" xlink:title=" ">
<polygon fill="white" stroke="black" points="746,-168.5 746,-187.5 817,-187.5 817,-168.5 746,-168.5"/>
<text text-anchor="middle" x="781.5" y="-175.5" font-family="Helvetica,sans-Serif" font-size="10.00">Member.cpp</text>
</a>
</g>
</g>
<!-- Node32&#45;&gt;Node33 -->
<g id="edge46" class="edge">
<title>Node32&#45;&gt;Node33</title>
<path fill="none" stroke="midnightblue" d="M663.95,-221.04C692.36,-210.88 732.44,-196.55 757.69,-187.52"/>
<polygon fill="midnightblue" stroke="midnightblue" points="662.66,-217.78 654.43,-224.44 665.02,-224.37 662.66,-217.78"/>
</g>
<!-- Node34&#45;&gt;Node3 -->
<g id="edge52" class="edge">
<title>Node34&#45;&gt;Node3</title>
<path fill="none" stroke="midnightblue" d="M129.04,-275.2C92.8,-252.97 32.01,-207.68 60.5,-168 113.57,-94.09 409.31,-73.42 512.21,-68.42"/>
<polygon fill="midnightblue" stroke="midnightblue" points="127.28,-278.23 137.66,-280.34 130.86,-272.21 127.28,-278.23"/>
</g>
<!-- Node34&#45;&gt;Node26 -->
<g id="edge50" class="edge">
<title>Node34&#45;&gt;Node26</title>
<path fill="none" stroke="midnightblue" d="M167.23,-272.14C174.9,-262.74 184.13,-251.4 190.37,-243.75"/>
<polygon fill="midnightblue" stroke="midnightblue" points="164.37,-270.12 160.77,-280.08 169.8,-274.54 164.37,-270.12"/>
</g>
<!-- Node34&#45;&gt;Node31 -->
<g id="edge51" class="edge">
<title>Node34&#45;&gt;Node31</title>
<path fill="none" stroke="midnightblue" d="M142.07,-271.96C137.13,-263.82 131.76,-253.75 128.5,-244 122,-224.55 120.19,-200.32 119.69,-187.64"/>
<polygon fill="midnightblue" stroke="midnightblue" points="139.17,-273.93 147.5,-280.48 145.08,-270.17 139.17,-273.93"/>
</g>
</g>
</svg>
