<?xml version="1.0" encoding="UTF-8" standalone="no"?>
<!DOCTYPE svg PUBLIC "-//W3C//DTD SVG 1.1//EN"
 "http://www.w3.org/Graphics/SVG/1.1/DTD/svg11.dtd">
<!-- Generated by graphviz version 9.0.0 (0)
 -->
<!-- Title: MemberJoinEvent.h Pages: 1 -->
<svg width="1251pt" height="476pt"
 viewBox="0.00 0.00 1250.79 476.00" xmlns="http://www.w3.org/2000/svg" xmlns:xlink="http://www.w3.org/1999/xlink">
<g id="graph0" class="graph" transform="scale(1 1) rotate(0) translate(4 472)">
<title>MemberJoinEvent.h</title>
<!-- Node1 -->
<g id="Node000001" class="node">
<title>Node1</title>
<g id="a_Node000001"><a xlink:title=" ">
<polygon fill="#999999" stroke="#666666" points="318.55,-468 215.55,-468 215.55,-448 318.55,-448 318.55,-468"/>
<text text-anchor="middle" x="267.05" y="-454.5" font-family="Helvetica,sans-Serif" font-size="10.00">MemberJoinEvent.h</text>
</a>
</g>
</g>
<!-- Node2 -->
<g id="Node000002" class="node">
<title>Node2</title>
<g id="a_Node000002"><a xlink:href="a00056.html" target="_top" xlink:title=" ">
<polygon fill="white" stroke="#666666" points="234.8,-356 175.3,-356 175.3,-336 234.8,-336 234.8,-356"/>
<text text-anchor="middle" x="205.05" y="-342.5" font-family="Helvetica,sans-Serif" font-size="10.00">../Group.h</text>
</a>
</g>
</g>
<!-- Node1&#45;&gt;Node2 -->
<g id="edge1_Node000001_Node000002" class="edge">
<title>Node1&#45;&gt;Node2</title>
<g id="a_edge1_Node000001_Node000002"><a xlink:title=" ">
<path fill="none" stroke="#63b8ff" d="M255.59,-447.8C245.88,-439.42 232.26,-426.22 224.05,-412 216.12,-398.27 211.27,-380.96 208.46,-367.66"/>
<polygon fill="#63b8ff" stroke="#63b8ff" points="211.91,-367.05 206.63,-357.87 205.02,-368.34 211.91,-367.05"/>
</a>
</g>
</g>
<!-- Node20 -->
<g id="Node000020" class="node">
<title>Node20</title>
<g id="a_Node000020"><a xlink:href="a00065.html" target="_top" xlink:title=" ">
<polygon fill="white" stroke="#666666" points="301.3,-412 232.8,-412 232.8,-392 301.3,-392 301.3,-412"/>
<text text-anchor="middle" x="267.05" y="-398.5" font-family="Helvetica,sans-Serif" font-size="10.00">../Member.h</text>
</a>
</g>
</g>
<!-- Node1&#45;&gt;Node20 -->
<g id="edge27_Node000001_Node000020" class="edge">
<title>Node1&#45;&gt;Node20</title>
<g id="a_edge27_Node000001_Node000020"><a xlink:title=" ">
<path fill="none" stroke="#63b8ff" d="M267.05,-447.59C267.05,-441.01 267.05,-431.96 267.05,-423.73"/>
<polygon fill="#63b8ff" stroke="#63b8ff" points="270.55,-423.81 267.05,-413.81 263.55,-423.81 270.55,-423.81"/>
</a>
</g>
</g>
<!-- Node21 -->
<g id="Node000021" class="node">
<title>Node21</title>
<g id="a_Node000021"><a xlink:href="a00164.html" target="_top" xlink:title=" ">
<polygon fill="white" stroke="#666666" points="994.42,-412 929.67,-412 929.67,-392 994.42,-392 994.42,-412"/>
<text text-anchor="middle" x="962.05" y="-398.5" font-family="Helvetica,sans-Serif" font-size="10.00">BotEvent.h</text>
</a>
</g>
</g>
<!-- Node1&#45;&gt;Node21 -->
<g id="edge29_Node000001_Node000021" class="edge">
<title>Node1&#45;&gt;Node21</title>
<g id="a_edge29_Node000001_Node000021"><a xlink:title=" ">
<path fill="none" stroke="#63b8ff" d="M319,-452.96C450.73,-442.73 796,-415.9 918.32,-406.4"/>
<polygon fill="#63b8ff" stroke="#63b8ff" points="918.23,-409.91 927.93,-405.65 917.69,-402.94 918.23,-409.91"/>
</a>
</g>
</g>
<!-- Node3 -->
<g id="Node000003" class="node">
<title>Node3</title>
<g id="a_Node000003"><a xlink:href="a00095.html" target="_top" xlink:title=" ">
<polygon fill="white" stroke="#666666" points="291.42,-300 232.67,-300 232.67,-280 291.42,-280 291.42,-300"/>
<text text-anchor="middle" x="262.05" y="-286.5" font-family="Helvetica,sans-Serif" font-size="10.00">Contact.h</text>
</a>
</g>
</g>
<!-- Node2&#45;&gt;Node3 -->
<g id="edge2_Node000002_Node000003" class="edge">
<title>Node2&#45;&gt;Node3</title>
<g id="a_edge2_Node000002_Node000003"><a xlink:title=" ">
<path fill="none" stroke="#63b8ff" d="M214.98,-335.59C222.99,-328.01 234.46,-317.13 244.08,-308.02"/>
<polygon fill="#63b8ff" stroke="#63b8ff" points="246.28,-310.76 251.13,-301.34 241.47,-305.68 246.28,-310.76"/>
</a>
</g>
</g>
<!-- Node13 -->
<g id="Node000013" class="node">
<title>Node13</title>
<g id="a_Node000013"><a xlink:title=" ">
<polygon fill="#e0e0e0" stroke="#999999" points="175.42,-132 56.67,-132 56.67,-112 175.42,-112 175.42,-132"/>
<text text-anchor="middle" x="116.05" y="-118.5" font-family="Helvetica,sans-Serif" font-size="10.00">nlohmann/json_fwd.hpp</text>
</a>
</g>
</g>
<!-- Node2&#45;&gt;Node13 -->
<g id="edge25_Node000002_Node000013" class="edge">
<title>Node2&#45;&gt;Node13</title>
<g id="a_edge25_Node000002_Node000013"><a xlink:title=" ">
<path fill="none" stroke="#63b8ff" d="M201.34,-335.74C188.02,-302.53 142.45,-188.87 123.95,-142.72"/>
<polygon fill="#63b8ff" stroke="#63b8ff" points="127.31,-141.68 120.34,-133.7 120.81,-144.29 127.31,-141.68"/>
</a>
</g>
</g>
<!-- Node17 -->
<g id="Node000017" class="node">
<title>Node17</title>
<g id="a_Node000017"><a xlink:title=" ">
<polygon fill="#e0e0e0" stroke="#999999" points="232.67,-132 193.42,-132 193.42,-112 232.67,-112 232.67,-132"/>
<text text-anchor="middle" x="213.05" y="-118.5" font-family="Helvetica,sans-Serif" font-size="10.00">utility</text>
</a>
</g>
</g>
<!-- Node2&#45;&gt;Node17 -->
<g id="edge26_Node000002_Node000017" class="edge">
<title>Node2&#45;&gt;Node17</title>
<g id="a_edge26_Node000002_Node000017"><a xlink:title=" ">
<path fill="none" stroke="#63b8ff" d="M205.38,-335.74C206.57,-302.74 210.62,-190.31 212.3,-143.61"/>
<polygon fill="#63b8ff" stroke="#63b8ff" points="215.8,-143.93 212.66,-133.81 208.8,-143.68 215.8,-143.93"/>
</a>
</g>
</g>
<!-- Node4 -->
<g id="Node000004" class="node">
<title>Node4</title>
<g id="a_Node000004"><a xlink:href="a00092.html" target="_top" xlink:title=" ">
<polygon fill="white" stroke="#666666" points="730.8,-244 641.3,-244 641.3,-224 730.8,-224 730.8,-244"/>
<text text-anchor="middle" x="686.05" y="-230.5" font-family="Helvetica,sans-Serif" font-size="10.00">MessageChain.h</text>
</a>
</g>
</g>
<!-- Node3&#45;&gt;Node4 -->
<g id="edge3_Node000003_Node000004" class="edge">
<title>Node3&#45;&gt;Node4</title>
<g id="a_edge3_Node000003_Node000004"><a xlink:title=" ">
<path fill="none" stroke="#63b8ff" d="M291.86,-285.2C362.09,-276.26 538.83,-253.75 629.89,-242.15"/>
<polygon fill="#63b8ff" stroke="#63b8ff" points="630.11,-245.65 639.59,-240.92 629.23,-238.71 630.11,-245.65"/>
</a>
</g>
</g>
<!-- Node10 -->
<g id="Node000010" class="node">
<title>Node10</title>
<g id="a_Node000010"><a xlink:title=" ">
<polygon fill="#e0e0e0" stroke="#999999" points="256.05,-76 216.05,-76 216.05,-56 256.05,-56 256.05,-76"/>
<text text-anchor="middle" x="236.05" y="-62.5" font-family="Helvetica,sans-Serif" font-size="10.00">string</text>
</a>
</g>
</g>
<!-- Node3&#45;&gt;Node10 -->
<g id="edge24_Node000003_Node000010" class="edge">
<title>Node3&#45;&gt;Node10</title>
<g id="a_edge24_Node000003_Node000010"><a xlink:title=" ">
<path fill="none" stroke="#63b8ff" d="M232.46,-287.26C177.99,-282.25 63.07,-262.88 15.05,-188 -3.19,-159.57 -6.32,-138.16 15.05,-112 38.64,-83.11 149.52,-72.3 204.7,-68.66"/>
<polygon fill="#63b8ff" stroke="#63b8ff" points="204.61,-72.17 214.38,-68.06 204.18,-65.18 204.61,-72.17"/>
</a>
</g>
</g>
<!-- Node19 -->
<g id="Node000019" class="node">
<title>Node19</title>
<g id="a_Node000019"><a xlink:title=" ">
<polygon fill="#e0e0e0" stroke="#999999" points="1216.92,-132 1119.17,-132 1119.17,-112 1216.92,-112 1216.92,-132"/>
<text text-anchor="middle" x="1168.05" y="-118.5" font-family="Helvetica,sans-Serif" font-size="10.00">nlohmann/json.hpp</text>
</a>
</g>
</g>
<!-- Node3&#45;&gt;Node19 -->
<g id="edge23_Node000003_Node000019" class="edge">
<title>Node3&#45;&gt;Node19</title>
<g id="a_edge23_Node000003_Node000019"><a xlink:title=" ">
<path fill="none" stroke="#63b8ff" d="M291.72,-289.35C428.46,-290.43 997.04,-288.7 1136.05,-188 1150.69,-177.39 1158.98,-158.2 1163.43,-143.41"/>
<polygon fill="#63b8ff" stroke="#63b8ff" points="1166.81,-144.33 1165.94,-133.78 1160.03,-142.57 1166.81,-144.33"/>
</a>
</g>
</g>
<!-- Node5 -->
<g id="Node000005" class="node">
<title>Node5</title>
<g id="a_Node000005"><a xlink:href="a00041.html" target="_top" xlink:title=" ">
<polygon fill="white" stroke="#666666" points="662.92,-76 571.17,-76 571.17,-56 662.92,-56 662.92,-76"/>
<text text-anchor="middle" x="617.05" y="-62.5" font-family="Helvetica,sans-Serif" font-size="10.00">MiraiCPMacros.h</text>
</a>
</g>
</g>
<!-- Node4&#45;&gt;Node5 -->
<g id="edge4_Node000004_Node000005" class="edge">
<title>Node4&#45;&gt;Node5</title>
<g id="a_edge4_Node000004_Node000005"><a xlink:title=" ">
<path fill="none" stroke="#63b8ff" d="M710.37,-223.55C756.49,-204.26 848.87,-158.28 812.05,-112 795.06,-90.64 725.47,-78.55 674.25,-72.39"/>
<polygon fill="#63b8ff" stroke="#63b8ff" points="674.81,-68.94 664.47,-71.27 674.01,-75.89 674.81,-68.94"/>
</a>
</g>
</g>
<!-- Node7 -->
<g id="Node000007" class="node">
<title>Node7</title>
<g id="a_Node000007"><a xlink:href="a00089.html" target="_top" xlink:title=" ">
<polygon fill="white" stroke="#666666" points="587.55,-188 496.55,-188 496.55,-168 587.55,-168 587.55,-188"/>
<text text-anchor="middle" x="542.05" y="-174.5" font-family="Helvetica,sans-Serif" font-size="10.00">SingleMessage.h</text>
</a>
</g>
</g>
<!-- Node4&#45;&gt;Node7 -->
<g id="edge6_Node000004_Node000007" class="edge">
<title>Node4&#45;&gt;Node7</title>
<g id="a_edge6_Node000004_Node000007"><a xlink:title=" ">
<path fill="none" stroke="#63b8ff" d="M660.96,-223.59C637.98,-214.97 603.69,-202.12 577.84,-192.42"/>
<polygon fill="#63b8ff" stroke="#63b8ff" points="579.34,-189.25 568.74,-189.01 576.88,-195.8 579.34,-189.25"/>
</a>
</g>
</g>
<!-- Node18 -->
<g id="Node000018" class="node">
<title>Node18</title>
<g id="a_Node000018"><a xlink:title=" ">
<polygon fill="#e0e0e0" stroke="#999999" points="917.05,-132 859.05,-132 859.05,-112 917.05,-112 917.05,-132"/>
<text text-anchor="middle" x="888.05" y="-118.5" font-family="Helvetica,sans-Serif" font-size="10.00">functional</text>
</a>
</g>
</g>
<!-- Node4&#45;&gt;Node18 -->
<g id="edge22_Node000004_Node000018" class="edge">
<title>Node4&#45;&gt;Node18</title>
<g id="a_edge22_Node000004_Node000018"><a xlink:title=" ">
<path fill="none" stroke="#63b8ff" d="M731.21,-228.75C765.23,-223.64 811.58,-212.46 845.05,-188 860.91,-176.41 872.61,-157.06 879.77,-142.48"/>
<polygon fill="#63b8ff" stroke="#63b8ff" points="882.93,-143.97 883.9,-133.42 876.56,-141.07 882.93,-143.97"/>
</a>
</g>
</g>
<!-- Node6 -->
<g id="Node000006" class="node">
<title>Node6</title>
<g id="a_Node000006"><a xlink:title=" ">
<polygon fill="#e0e0e0" stroke="#999999" points="641.17,-20 592.92,-20 592.92,0 641.17,0 641.17,-20"/>
<text text-anchor="middle" x="617.05" y="-6.5" font-family="Helvetica,sans-Serif" font-size="10.00">cassert</text>
</a>
</g>
</g>
<!-- Node5&#45;&gt;Node6 -->
<g id="edge5_Node000005_Node000006" class="edge">
<title>Node5&#45;&gt;Node6</title>
<g id="a_edge5_Node000005_Node000006"><a xlink:title=" ">
<path fill="none" stroke="#63b8ff" d="M617.05,-55.59C617.05,-49.01 617.05,-39.96 617.05,-31.73"/>
<polygon fill="#63b8ff" stroke="#63b8ff" points="620.55,-31.81 617.05,-21.81 613.55,-31.81 620.55,-31.81"/>
</a>
</g>
</g>
<!-- Node7&#45;&gt;Node5 -->
<g id="edge7_Node000007_Node000005" class="edge">
<title>Node7&#45;&gt;Node5</title>
<g id="a_edge7_Node000007_Node000005"><a xlink:title=" ">
<path fill="none" stroke="#63b8ff" d="M558.58,-167.6C571.14,-159.65 587.93,-147.14 598.05,-132 607.05,-118.53 611.87,-100.72 614.39,-87.16"/>
<polygon fill="#63b8ff" stroke="#63b8ff" points="617.8,-88.05 615.89,-77.63 610.88,-86.96 617.8,-88.05"/>
</a>
</g>
</g>
<!-- Node8 -->
<g id="Node000008" class="node">
<title>Node8</title>
<g id="a_Node000008"><a xlink:href="a00086.html" target="_top" xlink:title=" ">
<polygon fill="white" stroke="#666666" points="589.42,-132 494.67,-132 494.67,-112 589.42,-112 589.42,-132"/>
<text text-anchor="middle" x="542.05" y="-118.5" font-family="Helvetica,sans-Serif" font-size="10.00">MessageSource.h</text>
</a>
</g>
</g>
<!-- Node7&#45;&gt;Node8 -->
<g id="edge8_Node000007_Node000008" class="edge">
<title>Node7&#45;&gt;Node8</title>
<g id="a_edge8_Node000007_Node000008"><a xlink:title=" ">
<path fill="none" stroke="#63b8ff" d="M542.05,-167.59C542.05,-161.01 542.05,-151.96 542.05,-143.73"/>
<polygon fill="#63b8ff" stroke="#63b8ff" points="545.55,-143.81 542.05,-133.81 538.55,-143.81 545.55,-143.81"/>
</a>
</g>
</g>
<!-- Node9 -->
<g id="Node000009" class="node">
<title>Node9</title>
<g id="a_Node000009"><a xlink:href="a00062.html" target="_top" xlink:title=" ">
<polygon fill="white" stroke="#666666" points="1014.3,-76 951.8,-76 951.8,-56 1014.3,-56 1014.3,-76"/>
<text text-anchor="middle" x="983.05" y="-62.5" font-family="Helvetica,sans-Serif" font-size="10.00">SdkType.h</text>
</a>
</g>
</g>
<!-- Node7&#45;&gt;Node9 -->
<g id="edge15_Node000007_Node000009" class="edge">
<title>Node7&#45;&gt;Node9</title>
<g id="a_edge15_Node000007_Node000009"><a xlink:title=" ">
<path fill="none" stroke="#63b8ff" d="M557.24,-167.54C581.13,-153.12 629.4,-125.86 674.05,-112 766.27,-83.36 879.75,-72.79 940.26,-69.01"/>
<polygon fill="#63b8ff" stroke="#63b8ff" points="940.35,-72.51 950.13,-68.43 939.94,-65.52 940.35,-72.51"/>
</a>
</g>
</g>
<!-- Node11 -->
<g id="Node000011" class="node">
<title>Node11</title>
<g id="a_Node000011"><a xlink:href="a00068.html" target="_top" xlink:title=" ">
<polygon fill="white" stroke="#666666" points="476.3,-132 407.8,-132 407.8,-112 476.3,-112 476.3,-132"/>
<text text-anchor="middle" x="442.05" y="-118.5" font-family="Helvetica,sans-Serif" font-size="10.00">MiraiCode.h</text>
</a>
</g>
</g>
<!-- Node7&#45;&gt;Node11 -->
<g id="edge12_Node000007_Node000011" class="edge">
<title>Node7&#45;&gt;Node11</title>
<g id="a_edge12_Node000007_Node000011"><a xlink:title=" ">
<path fill="none" stroke="#63b8ff" d="M524.63,-167.59C509.38,-159.36 486.97,-147.26 469.34,-137.74"/>
<polygon fill="#63b8ff" stroke="#63b8ff" points="471.4,-134.87 460.93,-133.2 468.07,-141.03 471.4,-134.87"/>
</a>
</g>
</g>
<!-- Node12 -->
<g id="Node000012" class="node">
<title>Node12</title>
<g id="a_Node000012"><a xlink:title=" ">
<polygon fill="#e0e0e0" stroke="#999999" points="288.92,-132 251.17,-132 251.17,-112 288.92,-112 288.92,-132"/>
<text text-anchor="middle" x="270.05" y="-118.5" font-family="Helvetica,sans-Serif" font-size="10.00">array</text>
</a>
</g>
</g>
<!-- Node7&#45;&gt;Node12 -->
<g id="edge16_Node000007_Node000012" class="edge">
<title>Node7&#45;&gt;Node12</title>
<g id="a_edge16_Node000007_Node000012"><a xlink:title=" ">
<path fill="none" stroke="#63b8ff" d="M496.25,-170.36C449.24,-163.14 373.83,-150.46 300.1,-132.25"/>
<polygon fill="#63b8ff" stroke="#63b8ff" points="301.25,-128.93 290.7,-129.89 299.55,-135.72 301.25,-128.93"/>
</a>
</g>
</g>
<!-- Node7&#45;&gt;Node13 -->
<g id="edge17_Node000007_Node000013" class="edge">
<title>Node7&#45;&gt;Node13</title>
<g id="a_edge17_Node000007_Node000013"><a xlink:title=" ">
<path fill="none" stroke="#63b8ff" d="M496.26,-171.34C430.29,-163.17 304.37,-147.49 187.07,-132.38"/>
<polygon fill="#63b8ff" stroke="#63b8ff" points="187.62,-128.92 177.25,-131.12 186.72,-135.87 187.62,-128.92"/>
</a>
</g>
</g>
<!-- Node14 -->
<g id="Node000014" class="node">
<title>Node14</title>
<g id="a_Node000014"><a xlink:title=" ">
<polygon fill="#e0e0e0" stroke="#999999" points="802.92,-132 753.17,-132 753.17,-112 802.92,-112 802.92,-132"/>
<text text-anchor="middle" x="778.05" y="-118.5" font-family="Helvetica,sans-Serif" font-size="10.00">optional</text>
</a>
</g>
</g>
<!-- Node7&#45;&gt;Node14 -->
<g id="edge18_Node000007_Node000014" class="edge">
<title>Node7&#45;&gt;Node14</title>
<g id="a_edge18_Node000007_Node000014"><a xlink:title=" ">
<path fill="none" stroke="#63b8ff" d="M586.7,-167.58C625.3,-159.32 682.87,-146.73 741.81,-132.47"/>
<polygon fill="#63b8ff" stroke="#63b8ff" points="742.46,-135.92 751.35,-130.15 740.81,-129.12 742.46,-135.92"/>
</a>
</g>
</g>
<!-- Node15 -->
<g id="Node000015" class="node">
<title>Node15</title>
<g id="a_Node000015"><a xlink:title=" ">
<polygon fill="#e0e0e0" stroke="#999999" points="734.67,-132 683.42,-132 683.42,-112 734.67,-112 734.67,-132"/>
<text text-anchor="middle" x="709.05" y="-118.5" font-family="Helvetica,sans-Serif" font-size="10.00">sstream</text>
</a>
</g>
</g>
<!-- Node7&#45;&gt;Node15 -->
<g id="edge19_Node000007_Node000015" class="edge">
<title>Node7&#45;&gt;Node15</title>
<g id="a_edge19_Node000007_Node000015"><a xlink:title=" ">
<path fill="none" stroke="#63b8ff" d="M571.14,-167.59C599.27,-158.5 641.99,-144.68 672.43,-134.84"/>
<polygon fill="#63b8ff" stroke="#63b8ff" points="673.16,-138.28 681.59,-131.88 671,-131.62 673.16,-138.28"/>
</a>
</g>
</g>
<!-- Node16 -->
<g id="Node000016" class="node">
<title>Node16</title>
<g id="a_Node000016"><a xlink:title=" ">
<polygon fill="#e0e0e0" stroke="#999999" points="389.42,-132 306.67,-132 306.67,-112 389.42,-112 389.42,-132"/>
<text text-anchor="middle" x="348.05" y="-118.5" font-family="Helvetica,sans-Serif" font-size="10.00">unordered_map</text>
</a>
</g>
</g>
<!-- Node7&#45;&gt;Node16 -->
<g id="edge20_Node000007_Node000016" class="edge">
<title>Node7&#45;&gt;Node16</title>
<g id="a_edge20_Node000007_Node000016"><a xlink:title=" ">
<path fill="none" stroke="#63b8ff" d="M508.26,-167.59C476.32,-158.71 428.2,-145.31 393.03,-135.52"/>
<polygon fill="#63b8ff" stroke="#63b8ff" points="394.13,-132.2 383.56,-132.89 392.26,-138.94 394.13,-132.2"/>
</a>
</g>
</g>
<!-- Node7&#45;&gt;Node17 -->
<g id="edge21_Node000007_Node000017" class="edge">
<title>Node7&#45;&gt;Node17</title>
<g id="a_edge21_Node000007_Node000017"><a xlink:title=" ">
<path fill="none" stroke="#63b8ff" d="M496.16,-172.31C439.15,-166.01 338.79,-153.33 243.86,-132.09"/>
<polygon fill="#63b8ff" stroke="#63b8ff" points="244.91,-128.74 234.38,-129.94 243.36,-135.57 244.91,-128.74"/>
</a>
</g>
</g>
<!-- Node8&#45;&gt;Node5 -->
<g id="edge9_Node000008_Node000005" class="edge">
<title>Node8&#45;&gt;Node5</title>
<g id="a_edge9_Node000008_Node000005"><a xlink:title=" ">
<path fill="none" stroke="#63b8ff" d="M555.11,-111.59C566.01,-103.74 581.8,-92.38 594.7,-83.09"/>
<polygon fill="#63b8ff" stroke="#63b8ff" points="596.58,-86.05 602.65,-77.36 592.49,-80.37 596.58,-86.05"/>
</a>
</g>
</g>
<!-- Node8&#45;&gt;Node9 -->
<g id="edge10_Node000008_Node000009" class="edge">
<title>Node8&#45;&gt;Node9</title>
<g id="a_edge10_Node000008_Node000009"><a xlink:title=" ">
<path fill="none" stroke="#63b8ff" d="M589.66,-115.17C676.04,-104.59 857.28,-82.4 940.11,-72.26"/>
<polygon fill="#63b8ff" stroke="#63b8ff" points="940.35,-75.75 949.85,-71.06 939.5,-68.81 940.35,-75.75"/>
</a>
</g>
</g>
<!-- Node8&#45;&gt;Node10 -->
<g id="edge11_Node000008_Node000010" class="edge">
<title>Node8&#45;&gt;Node10</title>
<g id="a_edge11_Node000008_Node000010"><a xlink:title=" ">
<path fill="none" stroke="#63b8ff" d="M494.23,-112.56C430.94,-101.39 321.11,-82.01 267.42,-72.54"/>
<polygon fill="#63b8ff" stroke="#63b8ff" points="268.19,-69.12 257.73,-70.83 266.97,-76.01 268.19,-69.12"/>
</a>
</g>
</g>
<!-- Node11&#45;&gt;Node5 -->
<g id="edge14_Node000011_Node000005" class="edge">
<title>Node11&#45;&gt;Node5</title>
<g id="a_edge14_Node000011_Node000005"><a xlink:title=" ">
<path fill="none" stroke="#63b8ff" d="M472.53,-111.59C501.09,-102.78 544,-89.54 575.64,-79.78"/>
<polygon fill="#63b8ff" stroke="#63b8ff" points="576.36,-83.22 584.88,-76.93 574.29,-76.53 576.36,-83.22"/>
</a>
</g>
</g>
<!-- Node11&#45;&gt;Node10 -->
<g id="edge13_Node000011_Node000010" class="edge">
<title>Node11&#45;&gt;Node10</title>
<g id="a_edge13_Node000011_Node000010"><a xlink:title=" ">
<path fill="none" stroke="#63b8ff" d="M407.57,-111.96C368.44,-101.7 305.15,-85.12 267.38,-75.21"/>
<polygon fill="#63b8ff" stroke="#63b8ff" points="268.55,-71.9 257.99,-72.75 266.78,-78.67 268.55,-71.9"/>
</a>
</g>
</g>
<!-- Node20&#45;&gt;Node3 -->
<g id="edge28_Node000020_Node000003" class="edge">
<title>Node20&#45;&gt;Node3</title>
<g id="a_edge28_Node000020_Node000003"><a xlink:title=" ">
<path fill="none" stroke="#63b8ff" d="M266.62,-391.62C265.82,-374.01 264.07,-335.59 262.99,-311.65"/>
<polygon fill="#63b8ff" stroke="#63b8ff" points="266.49,-311.7 262.54,-301.87 259.5,-312.02 266.49,-311.7"/>
</a>
</g>
</g>
<!-- Node22 -->
<g id="Node000022" class="node">
<title>Node22</title>
<g id="a_Node000022"><a xlink:href="a00170.html" target="_top" xlink:title=" ">
<polygon fill="white" stroke="#666666" points="1012.17,-356 963.92,-356 963.92,-336 1012.17,-336 1012.17,-356"/>
<text text-anchor="middle" x="988.05" y="-342.5" font-family="Helvetica,sans-Serif" font-size="10.00">../Bot.h</text>
</a>
</g>
</g>
<!-- Node21&#45;&gt;Node22 -->
<g id="edge30_Node000021_Node000022" class="edge">
<title>Node21&#45;&gt;Node22</title>
<g id="a_edge30_Node000021_Node000022"><a xlink:title=" ">
<path fill="none" stroke="#63b8ff" d="M966.58,-391.59C969.89,-384.7 974.52,-375.1 978.62,-366.57"/>
<polygon fill="#63b8ff" stroke="#63b8ff" points="981.73,-368.19 982.91,-357.66 975.42,-365.15 981.73,-368.19"/>
</a>
</g>
</g>
<!-- Node24 -->
<g id="Node000024" class="node">
<title>Node24</title>
<g id="a_Node000024"><a xlink:href="a00167.html" target="_top" xlink:title=" ">
<polygon fill="white" stroke="#666666" points="967.3,-188 904.8,-188 904.8,-168 967.3,-168 967.3,-188"/>
<text text-anchor="middle" x="936.05" y="-174.5" font-family="Helvetica,sans-Serif" font-size="10.00">../Logger.h</text>
</a>
</g>
</g>
<!-- Node21&#45;&gt;Node24 -->
<g id="edge35_Node000021_Node000024" class="edge">
<title>Node21&#45;&gt;Node24</title>
<g id="a_edge35_Node000021_Node000024"><a xlink:title=" ">
<path fill="none" stroke="#63b8ff" d="M960.47,-391.71C958.96,-382.62 956.67,-368.39 955.05,-356 947.62,-299.46 941.03,-232.48 937.93,-199.47"/>
<polygon fill="#63b8ff" stroke="#63b8ff" points="941.43,-199.37 937.02,-189.74 934.46,-200.02 941.43,-199.37"/>
</a>
</g>
</g>
<!-- Node26 -->
<g id="Node000026" class="node">
<title>Node26</title>
<g id="a_Node000026"><a xlink:href="a00149.html" target="_top" xlink:title=" ">
<polygon fill="white" stroke="#666666" points="1127.17,-188 1054.92,-188 1054.92,-168 1127.17,-168 1127.17,-188"/>
<text text-anchor="middle" x="1091.05" y="-174.5" font-family="Helvetica,sans-Serif" font-size="10.00">EventBase.h</text>
</a>
</g>
</g>
<!-- Node21&#45;&gt;Node26 -->
<g id="edge42_Node000021_Node000026" class="edge">
<title>Node21&#45;&gt;Node26</title>
<g id="a_edge42_Node000021_Node000026"><a xlink:title=" ">
<path fill="none" stroke="#63b8ff" d="M982.97,-391.6C1012.73,-376.92 1066.11,-345.45 1088.05,-300 1103.68,-267.62 1099.75,-224.48 1095.43,-199.42"/>
<polygon fill="#63b8ff" stroke="#63b8ff" points="1098.93,-199.04 1093.59,-189.89 1092.05,-200.37 1098.93,-199.04"/>
</a>
</g>
</g>
<!-- Node22&#45;&gt;Node3 -->
<g id="edge31_Node000022_Node000003" class="edge">
<title>Node22&#45;&gt;Node3</title>
<g id="a_edge31_Node000022_Node000003"><a xlink:title=" ">
<path fill="none" stroke="#63b8ff" d="M963.73,-344.63C875.08,-343.03 561.12,-335.06 305.05,-300 304.23,-299.89 303.4,-299.77 302.56,-299.64"/>
<polygon fill="#63b8ff" stroke="#63b8ff" points="303.5,-296.25 293.05,-298 302.31,-303.15 303.5,-296.25"/>
</a>
</g>
</g>
<!-- Node22&#45;&gt;Node9 -->
<g id="edge32_Node000022_Node000009" class="edge">
<title>Node22&#45;&gt;Node9</title>
<g id="a_edge32_Node000022_Node000009"><a xlink:title=" ">
<path fill="none" stroke="#63b8ff" d="M992.05,-335.8C998.18,-322.43 1010.91,-297.34 1027.05,-280 1105.9,-195.27 1300.07,-200.99 1226.05,-112 1201.06,-81.96 1088.59,-71.88 1025.8,-68.57"/>
<polygon fill="#63b8ff" stroke="#63b8ff" points="1026.35,-65.1 1016.19,-68.1 1026.01,-72.09 1026.35,-65.1"/>
</a>
</g>
</g>
<!-- Node22&#45;&gt;Node10 -->
<g id="edge33_Node000022_Node000010" class="edge">
<title>Node22&#45;&gt;Node10</title>
<g id="a_edge33_Node000022_Node000010"><a xlink:title=" ">
<path fill="none" stroke="#63b8ff" d="M963.77,-343.45C828.32,-334.25 167.88,-282.03 48.05,-132 5.53,-78.77 140.19,-68.98 204.2,-67.29"/>
<polygon fill="#63b8ff" stroke="#63b8ff" points="204.2,-70.79 214.12,-67.08 204.05,-63.79 204.2,-70.79"/>
</a>
</g>
</g>
<!-- Node23 -->
<g id="Node000023" class="node">
<title>Node23</title>
<g id="a_Node000023"><a xlink:title=" ">
<polygon fill="#e0e0e0" stroke="#999999" points="1078.55,-300 1035.55,-300 1035.55,-280 1078.55,-280 1078.55,-300"/>
<text text-anchor="middle" x="1057.05" y="-286.5" font-family="Helvetica,sans-Serif" font-size="10.00">vector</text>
</a>
</g>
</g>
<!-- Node22&#45;&gt;Node23 -->
<g id="edge34_Node000022_Node000023" class="edge">
<title>Node22&#45;&gt;Node23</title>
<g id="a_edge34_Node000022_Node000023"><a xlink:title=" ">
<path fill="none" stroke="#63b8ff" d="M1000.07,-335.59C1010.06,-327.77 1024.51,-316.46 1036.36,-307.19"/>
<polygon fill="#63b8ff" stroke="#63b8ff" points="1038.26,-310.15 1043.97,-301.23 1033.94,-304.64 1038.26,-310.15"/>
</a>
</g>
</g>
<!-- Node24&#45;&gt;Node5 -->
<g id="edge36_Node000024_Node000005" class="edge">
<title>Node24&#45;&gt;Node5</title>
<g id="a_edge36_Node000024_Node000005"><a xlink:title=" ">
<path fill="none" stroke="#63b8ff" d="M937.72,-167.51C939.63,-153.31 940.8,-126.63 926.05,-112 891.57,-77.79 753.97,-69.43 674.5,-67.48"/>
<polygon fill="#63b8ff" stroke="#63b8ff" points="674.8,-63.99 664.73,-67.27 674.65,-70.99 674.8,-63.99"/>
</a>
</g>
</g>
<!-- Node24&#45;&gt;Node9 -->
<g id="edge38_Node000024_Node000009" class="edge">
<title>Node24&#45;&gt;Node9</title>
<g id="a_edge38_Node000024_Node000009"><a xlink:title=" ">
<path fill="none" stroke="#63b8ff" d="M941.32,-167.5C946.21,-158.5 953.55,-144.54 959.05,-132 965.55,-117.15 971.86,-99.93 976.37,-86.94"/>
<polygon fill="#63b8ff" stroke="#63b8ff" points="979.57,-88.42 979.48,-77.83 972.94,-86.16 979.57,-88.42"/>
</a>
</g>
</g>
<!-- Node24&#45;&gt;Node11 -->
<g id="edge37_Node000024_Node000011" class="edge">
<title>Node24&#45;&gt;Node11</title>
<g id="a_edge37_Node000024_Node000011"><a xlink:title=" ">
<path fill="none" stroke="#63b8ff" d="M904.54,-174.96C832.62,-170.07 650.69,-156.36 487.77,-132.1"/>
<polygon fill="#63b8ff" stroke="#63b8ff" points="488.48,-128.67 478.07,-130.64 487.44,-135.59 488.48,-128.67"/>
</a>
</g>
</g>
<!-- Node24&#45;&gt;Node15 -->
<g id="edge41_Node000024_Node000015" class="edge">
<title>Node24&#45;&gt;Node15</title>
<g id="a_edge41_Node000024_Node000015"><a xlink:title=" ">
<path fill="none" stroke="#63b8ff" d="M904.4,-169.8C868.46,-161.58 807.78,-147.55 746.13,-132.47"/>
<polygon fill="#63b8ff" stroke="#63b8ff" points="747.04,-129.09 736.5,-130.11 745.37,-135.89 747.04,-129.09"/>
</a>
</g>
</g>
<!-- Node24&#45;&gt;Node18 -->
<g id="edge39_Node000024_Node000018" class="edge">
<title>Node24&#45;&gt;Node18</title>
<g id="a_edge39_Node000024_Node000018"><a xlink:title=" ">
<path fill="none" stroke="#63b8ff" d="M927.69,-167.59C921.15,-160.24 911.87,-149.8 903.93,-140.87"/>
<polygon fill="#63b8ff" stroke="#63b8ff" points="906.58,-138.58 897.32,-133.43 901.35,-143.23 906.58,-138.58"/>
</a>
</g>
</g>
<!-- Node25 -->
<g id="Node000025" class="node">
<title>Node25</title>
<g id="a_Node000025"><a xlink:title=" ">
<polygon fill="#e0e0e0" stroke="#999999" points="1062.67,-132 1011.42,-132 1011.42,-112 1062.67,-112 1062.67,-132"/>
<text text-anchor="middle" x="1037.05" y="-118.5" font-family="Helvetica,sans-Serif" font-size="10.00">memory</text>
</a>
</g>
</g>
<!-- Node24&#45;&gt;Node25 -->
<g id="edge40_Node000024_Node000025" class="edge">
<title>Node24&#45;&gt;Node25</title>
<g id="a_edge40_Node000024_Node000025"><a xlink:title=" ">
<path fill="none" stroke="#63b8ff" d="M953.64,-167.59C968.97,-159.4 991.47,-147.37 1009.23,-137.87"/>
<polygon fill="#63b8ff" stroke="#63b8ff" points="1010.81,-140.99 1017.98,-133.19 1007.51,-134.82 1010.81,-140.99"/>
</a>
</g>
</g>
<!-- Node26&#45;&gt;Node9 -->
<g id="edge43_Node000026_Node000009" class="edge">
<title>Node26&#45;&gt;Node9</title>
<g id="a_edge43_Node000026_Node000009"><a xlink:title=" ">
<path fill="none" stroke="#63b8ff" d="M1090.59,-167.52C1089.47,-153.8 1085.58,-128.27 1072.05,-112 1059.97,-97.47 1042.02,-87.16 1025.4,-80.1"/>
<polygon fill="#63b8ff" stroke="#63b8ff" points="1026.74,-76.86 1016.16,-76.47 1024.19,-83.38 1026.74,-76.86"/>
</a>
</g>
</g>
<!-- Node26&#45;&gt;Node14 -->
<g id="edge46_Node000026_Node000014" class="edge">
<title>Node26&#45;&gt;Node14</title>
<g id="a_edge46_Node000026_Node000014"><a xlink:title=" ">
<path fill="none" stroke="#63b8ff" d="M1054.53,-170.7C994.21,-160.29 874.45,-139.63 814.3,-129.25"/>
<polygon fill="#63b8ff" stroke="#63b8ff" points="815.04,-125.83 804.59,-127.58 813.85,-132.73 815.04,-125.83"/>
</a>
</g>
</g>
<!-- Node26&#45;&gt;Node19 -->
<g id="edge44_Node000026_Node000019" class="edge">
<title>Node26&#45;&gt;Node19</title>
<g id="a_edge44_Node000026_Node000019"><a xlink:title=" ">
<path fill="none" stroke="#63b8ff" d="M1104.46,-167.59C1115.65,-159.74 1131.86,-148.38 1145.11,-139.09"/>
<polygon fill="#63b8ff" stroke="#63b8ff" points="1147.11,-141.96 1153.29,-133.35 1143.09,-136.22 1147.11,-141.96"/>
</a>
</g>
</g>
<!-- Node26&#45;&gt;Node25 -->
<g id="edge45_Node000026_Node000025" class="edge">
<title>Node26&#45;&gt;Node25</title>
<g id="a_edge45_Node000026_Node000025"><a xlink:title=" ">
<path fill="none" stroke="#63b8ff" d="M1081.64,-167.59C1074.13,-160.08 1063.4,-149.35 1054.35,-140.3"/>
<polygon fill="#63b8ff" stroke="#63b8ff" points="1056.96,-137.96 1047.42,-133.37 1052.01,-142.91 1056.96,-137.96"/>
</a>
</g>
</g>
</g>
</svg>
