<?xml version="1.0" encoding="UTF-8" standalone="no"?>
<!DOCTYPE svg PUBLIC "-//W3C//DTD SVG 1.1//EN"
 "http://www.w3.org/Graphics/SVG/1.1/DTD/svg11.dtd">
<!-- Generated by graphviz version 2.50.0 (20211204.2007)
 -->
<!-- Title: Contact.h Pages: 1 -->
<svg width="1151pt" height="308pt"
 viewBox="0.00 0.00 1151.00 308.00" xmlns="http://www.w3.org/2000/svg" xmlns:xlink="http://www.w3.org/1999/xlink">
<g id="graph0" class="graph" transform="scale(1 1) rotate(0) translate(4 304)">
<title>Contact.h</title>
<polygon fill="white" stroke="transparent" points="-4,4 -4,-304 1147,-304 1147,4 -4,4"/>
<!-- Node1 -->
<g id="node1" class="node">
<title>Node1</title>
<g id="a_node1"><a xlink:title=" ">
<polygon fill="#bfbfbf" stroke="black" points="704,-280.5 704,-299.5 763,-299.5 763,-280.5 704,-280.5"/>
<text text-anchor="middle" x="733.5" y="-287.5" font-family="Helvetica,sans-Serif" font-size="10.00">Contact.h</text>
</a>
</g>
</g>
<!-- Node2 -->
<g id="node2" class="node">
<title>Node2</title>
<g id="a_node2"><a xlink:href="a00107.html" target="_top" xlink:title=" ">
<polygon fill="white" stroke="black" points="546.5,-224.5 546.5,-243.5 586.5,-243.5 586.5,-224.5 546.5,-224.5"/>
<text text-anchor="middle" x="566.5" y="-231.5" font-family="Helvetica,sans-Serif" font-size="10.00">Bot.h</text>
</a>
</g>
</g>
<!-- Node1&#45;&gt;Node2 -->
<g id="edge1" class="edge">
<title>Node1&#45;&gt;Node2</title>
<path fill="none" stroke="midnightblue" d="M697.48,-277.35C663.55,-266.38 613.95,-250.34 586.55,-241.48"/>
<polygon fill="midnightblue" stroke="midnightblue" points="696.45,-280.7 707.04,-280.44 698.6,-274.04 696.45,-280.7"/>
</g>
<!-- Node6 -->
<g id="node6" class="node">
<title>Node6</title>
<g id="a_node6"><a xlink:href="a00161.html" target="_top" xlink:title=" ">
<polygon fill="white" stroke="black" points="512.5,-56.5 512.5,-75.5 582.5,-75.5 582.5,-56.5 512.5,-56.5"/>
<text text-anchor="middle" x="547.5" y="-63.5" font-family="Helvetica,sans-Serif" font-size="10.00">MiraiCP.hpp</text>
</a>
</g>
</g>
<!-- Node1&#45;&gt;Node6 -->
<g id="edge43" class="edge">
<title>Node1&#45;&gt;Node6</title>
<path fill="none" stroke="midnightblue" d="M693.89,-283.26C653.6,-276.65 589.83,-264.06 537.5,-244 489.57,-225.63 462.55,-232.23 436.5,-188 428.77,-174.88 422.31,-136.34 439.5,-112 456.19,-88.35 487.77,-77.09 512.48,-71.75"/>
<polygon fill="midnightblue" stroke="midnightblue" points="693.42,-286.73 703.85,-284.85 694.53,-279.82 693.42,-286.73"/>
</g>
<!-- Node21 -->
<g id="node21" class="node">
<title>Node21</title>
<g id="a_node21"><a xlink:href="a00242.html" target="_top" xlink:title=" ">
<polygon fill="white" stroke="black" points="866,-168.5 866,-187.5 935,-187.5 935,-168.5 866,-168.5"/>
<text text-anchor="middle" x="900.5" y="-175.5" font-family="Helvetica,sans-Serif" font-size="10.00">Contact.cpp</text>
</a>
</g>
</g>
<!-- Node1&#45;&gt;Node21 -->
<g id="edge22" class="edge">
<title>Node1&#45;&gt;Node21</title>
<path fill="none" stroke="midnightblue" d="M755.19,-274.71C790.38,-251.53 858.86,-206.43 887.46,-187.59"/>
<polygon fill="midnightblue" stroke="midnightblue" points="753.03,-271.94 746.6,-280.37 756.88,-277.79 753.03,-271.94"/>
</g>
<!-- Node22 -->
<g id="node22" class="node">
<title>Node22</title>
<g id="a_node22"><a xlink:href="a01248.html" target="_top" xlink:title=" ">
<polygon fill="white" stroke="black" points="948.5,-224.5 948.5,-243.5 1068.5,-243.5 1068.5,-224.5 948.5,-224.5"/>
<text text-anchor="middle" x="1008.5" y="-231.5" font-family="Helvetica,sans-Serif" font-size="10.00">ForwardedMessage.cpp</text>
</a>
</g>
</g>
<!-- Node1&#45;&gt;Node22 -->
<g id="edge23" class="edge">
<title>Node1&#45;&gt;Node22</title>
<path fill="none" stroke="midnightblue" d="M773.17,-281.21C824.11,-271.21 912.22,-253.91 964.96,-243.55"/>
<polygon fill="midnightblue" stroke="midnightblue" points="772.33,-277.81 763.19,-283.17 773.68,-284.68 772.33,-277.81"/>
</g>
<!-- Node23 -->
<g id="node23" class="node">
<title>Node23</title>
<g id="a_node23"><a xlink:href="a00128.html" target="_top" xlink:title=" ">
<polygon fill="white" stroke="black" points="625.5,-224.5 625.5,-243.5 677.5,-243.5 677.5,-224.5 625.5,-224.5"/>
<text text-anchor="middle" x="651.5" y="-231.5" font-family="Helvetica,sans-Serif" font-size="10.00">Friend.h</text>
</a>
</g>
</g>
<!-- Node1&#45;&gt;Node23 -->
<g id="edge24" class="edge">
<title>Node1&#45;&gt;Node23</title>
<path fill="none" stroke="midnightblue" d="M711.67,-274.62C696.69,-264.76 677.3,-251.99 664.64,-243.65"/>
<polygon fill="midnightblue" stroke="midnightblue" points="710.05,-277.75 720.33,-280.32 713.9,-271.9 710.05,-277.75"/>
</g>
<!-- Node25 -->
<g id="node25" class="node">
<title>Node25</title>
<g id="a_node25"><a xlink:href="a00131.html" target="_top" xlink:title=" ">
<polygon fill="white" stroke="black" points="708,-224.5 708,-243.5 759,-243.5 759,-224.5 708,-224.5"/>
<text text-anchor="middle" x="733.5" y="-231.5" font-family="Helvetica,sans-Serif" font-size="10.00">Group.h</text>
</a>
</g>
</g>
<!-- Node1&#45;&gt;Node25 -->
<g id="edge30" class="edge">
<title>Node1&#45;&gt;Node25</title>
<path fill="none" stroke="midnightblue" d="M733.5,-269.8C733.5,-260.91 733.5,-250.78 733.5,-243.75"/>
<polygon fill="midnightblue" stroke="midnightblue" points="730,-270.08 733.5,-280.08 737,-270.08 730,-270.08"/>
</g>
<!-- Node28 -->
<g id="node28" class="node">
<title>Node28</title>
<g id="a_node28"><a xlink:href="a00149.html" target="_top" xlink:title=" ">
<polygon fill="white" stroke="black" points="870.5,-224.5 870.5,-243.5 930.5,-243.5 930.5,-224.5 870.5,-224.5"/>
<text text-anchor="middle" x="900.5" y="-231.5" font-family="Helvetica,sans-Serif" font-size="10.00">Member.h</text>
</a>
</g>
</g>
<!-- Node1&#45;&gt;Node28 -->
<g id="edge37" class="edge">
<title>Node1&#45;&gt;Node28</title>
<path fill="none" stroke="midnightblue" d="M769.67,-277.3C801.14,-267.13 845.99,-252.62 874.16,-243.52"/>
<polygon fill="midnightblue" stroke="midnightblue" points="768.4,-274.04 759.96,-280.44 770.55,-280.7 768.4,-274.04"/>
</g>
<!-- Node3 -->
<g id="node3" class="node">
<title>Node3</title>
<g id="a_node3"><a xlink:href="a00236.html" target="_top" xlink:title=" ">
<polygon fill="white" stroke="black" points="535.5,-168.5 535.5,-187.5 585.5,-187.5 585.5,-168.5 535.5,-168.5"/>
<text text-anchor="middle" x="560.5" y="-175.5" font-family="Helvetica,sans-Serif" font-size="10.00">Bot.cpp</text>
</a>
</g>
</g>
<!-- Node2&#45;&gt;Node3 -->
<g id="edge2" class="edge">
<title>Node2&#45;&gt;Node3</title>
<path fill="none" stroke="midnightblue" d="M564.4,-214.1C563.4,-205.14 562.26,-194.86 561.47,-187.75"/>
<polygon fill="midnightblue" stroke="midnightblue" points="560.93,-214.53 565.51,-224.08 567.88,-213.76 560.93,-214.53"/>
</g>
<!-- Node4 -->
<g id="node4" class="node">
<title>Node4</title>
<g id="a_node4"><a xlink:href="a00119.html" target="_top" xlink:title=" ">
<polygon fill="white" stroke="black" points="642,-168.5 642,-187.5 691,-187.5 691,-168.5 642,-168.5"/>
<text text-anchor="middle" x="666.5" y="-175.5" font-family="Helvetica,sans-Serif" font-size="10.00">Event.h</text>
</a>
</g>
</g>
<!-- Node2&#45;&gt;Node4 -->
<g id="edge3" class="edge">
<title>Node2&#45;&gt;Node4</title>
<path fill="none" stroke="midnightblue" d="M591.59,-219.45C610.05,-209.48 634.6,-196.23 650.47,-187.65"/>
<polygon fill="midnightblue" stroke="midnightblue" points="589.7,-216.49 582.57,-224.32 593.03,-222.65 589.7,-216.49"/>
</g>
<!-- Node2&#45;&gt;Node6 -->
<g id="edge21" class="edge">
<title>Node2&#45;&gt;Node6</title>
<path fill="none" stroke="midnightblue" d="M535.92,-230.96C507.46,-227.24 466.5,-216.86 446.5,-188 437.54,-175.07 433.76,-137.33 451.5,-112 465.54,-91.94 490.9,-80.58 512.03,-74.29"/>
<polygon fill="midnightblue" stroke="midnightblue" points="535.83,-234.47 546.15,-232.08 536.59,-227.51 535.83,-234.47"/>
</g>
<!-- Node5 -->
<g id="node5" class="node">
<title>Node5</title>
<g id="a_node5"><a xlink:href="a00248.html" target="_top" xlink:title=" ">
<polygon fill="white" stroke="black" points="619,-112.5 619,-131.5 678,-131.5 678,-112.5 619,-112.5"/>
<text text-anchor="middle" x="648.5" y="-119.5" font-family="Helvetica,sans-Serif" font-size="10.00">Event.cpp</text>
</a>
</g>
</g>
<!-- Node4&#45;&gt;Node5 -->
<g id="edge4" class="edge">
<title>Node4&#45;&gt;Node5</title>
<path fill="none" stroke="midnightblue" d="M660.3,-158.4C657.29,-149.36 653.81,-138.94 651.42,-131.75"/>
<polygon fill="midnightblue" stroke="midnightblue" points="657.04,-159.7 663.53,-168.08 663.69,-157.49 657.04,-159.7"/>
</g>
<!-- Node4&#45;&gt;Node6 -->
<g id="edge5" class="edge">
<title>Node4&#45;&gt;Node6</title>
<path fill="none" stroke="midnightblue" d="M700.74,-168.99C754.14,-156.47 851.31,-133.51 852.5,-132 858,-125.01 858.31,-118.73 852.5,-112 817.96,-71.99 655.18,-66.93 582.59,-66.71"/>
<polygon fill="midnightblue" stroke="midnightblue" points="699.94,-165.59 691,-171.28 701.54,-172.4 699.94,-165.59"/>
</g>
<!-- Node18 -->
<g id="node18" class="node">
<title>Node18</title>
<g id="a_node18"><a xlink:href="a00164.html" target="_top" xlink:title=" ">
<polygon fill="white" stroke="black" points="494,-112.5 494,-131.5 601,-131.5 601,-112.5 494,-112.5"/>
<text text-anchor="middle" x="547.5" y="-119.5" font-family="Helvetica,sans-Serif" font-size="10.00">MiraiCPNewThread.h</text>
</a>
</g>
</g>
<!-- Node4&#45;&gt;Node18 -->
<g id="edge17" class="edge">
<title>Node4&#45;&gt;Node18</title>
<path fill="none" stroke="midnightblue" d="M638.36,-164.23C616.1,-154.13 585.64,-140.31 566.27,-131.52"/>
<polygon fill="midnightblue" stroke="midnightblue" points="637.09,-167.5 647.64,-168.44 639.98,-161.12 637.09,-167.5"/>
</g>
<!-- Node19 -->
<g id="node19" class="node">
<title>Node19</title>
<g id="a_node19"><a xlink:href="a01272.html" target="_top" xlink:title=" ">
<polygon fill="white" stroke="black" points="696.5,-112.5 696.5,-131.5 772.5,-131.5 772.5,-112.5 696.5,-112.5"/>
<text text-anchor="middle" x="734.5" y="-119.5" font-family="Helvetica,sans-Serif" font-size="10.00">Schedule.cpp</text>
</a>
</g>
</g>
<!-- Node4&#45;&gt;Node19 -->
<g id="edge19" class="edge">
<title>Node4&#45;&gt;Node19</title>
<path fill="none" stroke="midnightblue" d="M685.26,-162.1C697.5,-152.38 713.06,-140.03 723.38,-131.83"/>
<polygon fill="midnightblue" stroke="midnightblue" points="683.08,-159.36 677.43,-168.32 687.43,-164.85 683.08,-159.36"/>
</g>
<!-- Node20 -->
<g id="node20" class="node">
<title>Node20</title>
<g id="a_node20"><a xlink:href="a00299.html" target="_top" xlink:title=" ">
<polygon fill="white" stroke="black" points="791,-112.5 791,-131.5 844,-131.5 844,-112.5 791,-112.5"/>
<text text-anchor="middle" x="817.5" y="-119.5" font-family="Helvetica,sans-Serif" font-size="10.00">utils.cpp</text>
</a>
</g>
</g>
<!-- Node4&#45;&gt;Node20 -->
<g id="edge20" class="edge">
<title>Node4&#45;&gt;Node20</title>
<path fill="none" stroke="midnightblue" d="M699.95,-165.04C728.36,-154.88 768.44,-140.55 793.69,-131.52"/>
<polygon fill="midnightblue" stroke="midnightblue" points="698.66,-161.78 690.43,-168.44 701.02,-168.37 698.66,-161.78"/>
</g>
<!-- Node7 -->
<g id="node7" class="node">
<title>Node7</title>
<g id="a_node7"><a xlink:href="a00002.html" target="_top" xlink:title=" ">
<polygon fill="white" stroke="black" points="0,-0.5 0,-19.5 101,-19.5 101,-0.5 0,-0.5"/>
<text text-anchor="middle" x="50.5" y="-7.5" font-family="Helvetica,sans-Serif" font-size="10.00">callbackHandle.cpp</text>
</a>
</g>
</g>
<!-- Node6&#45;&gt;Node7 -->
<g id="edge6" class="edge">
<title>Node6&#45;&gt;Node7</title>
<path fill="none" stroke="midnightblue" d="M502.17,-61.03C422.71,-53.91 253.16,-38.03 110.5,-20 107.47,-19.62 104.36,-19.21 101.22,-18.78"/>
<polygon fill="midnightblue" stroke="midnightblue" points="502.05,-64.53 512.32,-61.93 502.67,-57.56 502.05,-64.53"/>
</g>
<!-- Node8 -->
<g id="node8" class="node">
<title>Node8</title>
<g id="a_node8"><a xlink:href="a01239.html" target="_top" xlink:title=" ">
<polygon fill="white" stroke="black" points="119.5,-0.5 119.5,-19.5 197.5,-19.5 197.5,-0.5 119.5,-0.5"/>
<text text-anchor="middle" x="158.5" y="-7.5" font-family="Helvetica,sans-Serif" font-size="10.00">command.cpp</text>
</a>
</g>
</g>
<!-- Node6&#45;&gt;Node8 -->
<g id="edge7" class="edge">
<title>Node6&#45;&gt;Node8</title>
<path fill="none" stroke="midnightblue" d="M502.08,-59.8C436.61,-52.12 312.01,-36.84 206.5,-20 203.57,-19.53 200.54,-19.02 197.5,-18.5"/>
<polygon fill="midnightblue" stroke="midnightblue" points="501.73,-63.28 512.06,-60.96 502.54,-56.33 501.73,-63.28"/>
</g>
<!-- Node9 -->
<g id="node9" class="node">
<title>Node9</title>
<g id="a_node9"><a xlink:href="a01245.html" target="_top" xlink:title=" ">
<polygon fill="white" stroke="black" points="215.5,-0.5 215.5,-19.5 331.5,-19.5 331.5,-0.5 215.5,-0.5"/>
<text text-anchor="middle" x="273.5" y="-7.5" font-family="Helvetica,sans-Serif" font-size="10.00">forwardedMessage.cpp</text>
</a>
</g>
</g>
<!-- Node6&#45;&gt;Node9 -->
<g id="edge8" class="edge">
<title>Node6&#45;&gt;Node9</title>
<path fill="none" stroke="midnightblue" d="M502.4,-56.11C450.95,-45.97 367.41,-29.51 316.74,-19.52"/>
<polygon fill="midnightblue" stroke="midnightblue" points="501.75,-59.55 512.24,-58.05 503.11,-52.68 501.75,-59.55"/>
</g>
<!-- Node10 -->
<g id="node10" class="node">
<title>Node10</title>
<g id="a_node10"><a xlink:href="a01251.html" target="_top" xlink:title=" ">
<polygon fill="white" stroke="black" points="350,-0.5 350,-19.5 409,-19.5 409,-0.5 350,-0.5"/>
<text text-anchor="middle" x="379.5" y="-7.5" font-family="Helvetica,sans-Serif" font-size="10.00">group.cpp</text>
</a>
</g>
</g>
<!-- Node6&#45;&gt;Node10 -->
<g id="edge9" class="edge">
<title>Node6&#45;&gt;Node10</title>
<path fill="none" stroke="midnightblue" d="M511.11,-53.3C479.46,-43.13 434.33,-28.62 406,-19.52"/>
<polygon fill="midnightblue" stroke="midnightblue" points="510.29,-56.72 520.88,-56.44 512.43,-50.05 510.29,-56.72"/>
</g>
<!-- Node11 -->
<g id="node11" class="node">
<title>Node11</title>
<g id="a_node11"><a xlink:href="a00017.html" target="_top" xlink:title=" ">
<polygon fill="white" stroke="black" points="427,-0.5 427,-19.5 498,-19.5 498,-0.5 427,-0.5"/>
<text text-anchor="middle" x="462.5" y="-7.5" font-family="Helvetica,sans-Serif" font-size="10.00">lightApp.cpp</text>
</a>
</g>
</g>
<!-- Node6&#45;&gt;Node11 -->
<g id="edge10" class="edge">
<title>Node6&#45;&gt;Node11</title>
<path fill="none" stroke="midnightblue" d="M525.31,-50.9C509.72,-41 489.37,-28.07 476.12,-19.65"/>
<polygon fill="midnightblue" stroke="midnightblue" points="523.53,-53.92 533.84,-56.32 527.28,-48.01 523.53,-53.92"/>
</g>
<!-- Node12 -->
<g id="node12" class="node">
<title>Node12</title>
<g id="a_node12"><a xlink:href="a01257.html" target="_top" xlink:title=" ">
<polygon fill="white" stroke="black" points="516.5,-0.5 516.5,-19.5 578.5,-19.5 578.5,-0.5 516.5,-0.5"/>
<text text-anchor="middle" x="547.5" y="-7.5" font-family="Helvetica,sans-Serif" font-size="10.00">logger.cpp</text>
</a>
</g>
</g>
<!-- Node6&#45;&gt;Node12 -->
<g id="edge11" class="edge">
<title>Node6&#45;&gt;Node12</title>
<path fill="none" stroke="midnightblue" d="M547.5,-45.8C547.5,-36.91 547.5,-26.78 547.5,-19.75"/>
<polygon fill="midnightblue" stroke="midnightblue" points="544,-46.08 547.5,-56.08 551,-46.08 544,-46.08"/>
</g>
<!-- Node13 -->
<g id="node13" class="node">
<title>Node13</title>
<g id="a_node13"><a xlink:href="a01263.html" target="_top" xlink:title=" ">
<polygon fill="white" stroke="black" points="597,-0.5 597,-19.5 668,-19.5 668,-0.5 597,-0.5"/>
<text text-anchor="middle" x="632.5" y="-7.5" font-family="Helvetica,sans-Serif" font-size="10.00">member.cpp</text>
</a>
</g>
</g>
<!-- Node6&#45;&gt;Node13 -->
<g id="edge12" class="edge">
<title>Node6&#45;&gt;Node13</title>
<path fill="none" stroke="midnightblue" d="M569.69,-50.9C585.28,-41 605.63,-28.07 618.88,-19.65"/>
<polygon fill="midnightblue" stroke="midnightblue" points="567.72,-48.01 561.16,-56.32 571.47,-53.92 567.72,-48.01"/>
</g>
<!-- Node14 -->
<g id="node14" class="node">
<title>Node14</title>
<g id="a_node14"><a xlink:href="a00026.html" target="_top" xlink:title=" ">
<polygon fill="white" stroke="black" points="686,-0.5 686,-19.5 761,-19.5 761,-0.5 686,-0.5"/>
<text text-anchor="middle" x="723.5" y="-7.5" font-family="Helvetica,sans-Serif" font-size="10.00">message.cpp</text>
</a>
</g>
</g>
<!-- Node6&#45;&gt;Node14 -->
<g id="edge13" class="edge">
<title>Node6&#45;&gt;Node14</title>
<path fill="none" stroke="midnightblue" d="M585.19,-53.44C618.37,-43.26 665.93,-28.66 695.74,-19.52"/>
<polygon fill="midnightblue" stroke="midnightblue" points="583.92,-50.16 575.39,-56.44 585.97,-56.86 583.92,-50.16"/>
</g>
<!-- Node15 -->
<g id="node15" class="node">
<title>Node15</title>
<g id="a_node15"><a xlink:href="a00029.html" target="_top" xlink:title=" ">
<polygon fill="white" stroke="black" points="779.5,-0.5 779.5,-19.5 873.5,-19.5 873.5,-0.5 779.5,-0.5"/>
<text text-anchor="middle" x="826.5" y="-7.5" font-family="Helvetica,sans-Serif" font-size="10.00">nextMessage.cpp</text>
</a>
</g>
</g>
<!-- Node6&#45;&gt;Node15 -->
<g id="edge14" class="edge">
<title>Node6&#45;&gt;Node15</title>
<path fill="none" stroke="midnightblue" d="M592.53,-56.28C644.74,-46.18 730.26,-29.63 782.17,-19.58"/>
<polygon fill="midnightblue" stroke="midnightblue" points="591.71,-52.88 582.55,-58.22 593.04,-59.75 591.71,-52.88"/>
</g>
<!-- Node16 -->
<g id="node16" class="node">
<title>Node16</title>
<g id="a_node16"><a xlink:href="a01269.html" target="_top" xlink:title=" ">
<polygon fill="white" stroke="black" points="891.5,-0.5 891.5,-19.5 965.5,-19.5 965.5,-0.5 891.5,-0.5"/>
<text text-anchor="middle" x="928.5" y="-7.5" font-family="Helvetica,sans-Serif" font-size="10.00">schedule.cpp</text>
</a>
</g>
</g>
<!-- Node6&#45;&gt;Node16 -->
<g id="edge15" class="edge">
<title>Node6&#45;&gt;Node16</title>
<path fill="none" stroke="midnightblue" d="M593.05,-59.76C657.62,-52.12 779.39,-37 882.5,-20 885.39,-19.52 888.38,-19 891.38,-18.46"/>
<polygon fill="midnightblue" stroke="midnightblue" points="592.33,-56.32 582.81,-60.96 593.15,-63.27 592.33,-56.32"/>
</g>
<!-- Node17 -->
<g id="node17" class="node">
<title>Node17</title>
<g id="a_node17"><a xlink:href="a00035.html" target="_top" xlink:title=" ">
<polygon fill="white" stroke="black" points="983.5,-0.5 983.5,-19.5 1045.5,-19.5 1045.5,-0.5 983.5,-0.5"/>
<text text-anchor="middle" x="1014.5" y="-7.5" font-family="Helvetica,sans-Serif" font-size="10.00">thread.cpp</text>
</a>
</g>
</g>
<!-- Node6&#45;&gt;Node17 -->
<g id="edge16" class="edge">
<title>Node6&#45;&gt;Node17</title>
<path fill="none" stroke="midnightblue" d="M592.54,-61.99C670.66,-56.37 836.18,-42.77 974.5,-20 977.31,-19.54 980.22,-19 983.12,-18.42"/>
<polygon fill="midnightblue" stroke="midnightblue" points="592.28,-58.49 582.55,-62.69 592.78,-65.48 592.28,-58.49"/>
</g>
<!-- Node18&#45;&gt;Node6 -->
<g id="edge18" class="edge">
<title>Node18&#45;&gt;Node6</title>
<path fill="none" stroke="midnightblue" d="M547.5,-101.8C547.5,-92.91 547.5,-82.78 547.5,-75.75"/>
<polygon fill="midnightblue" stroke="midnightblue" points="544,-102.08 547.5,-112.08 551,-102.08 544,-102.08"/>
</g>
<!-- Node23&#45;&gt;Node3 -->
<g id="edge25" class="edge">
<title>Node23&#45;&gt;Node3</title>
<path fill="none" stroke="midnightblue" d="M628.21,-219.18C611.46,-209.24 589.4,-196.15 575.08,-187.65"/>
<polygon fill="midnightblue" stroke="midnightblue" points="626.49,-222.23 636.88,-224.32 630.07,-216.21 626.49,-222.23"/>
</g>
<!-- Node23&#45;&gt;Node4 -->
<g id="edge27" class="edge">
<title>Node23&#45;&gt;Node4</title>
<path fill="none" stroke="midnightblue" d="M656.67,-214.4C659.18,-205.36 662.07,-194.94 664.07,-187.75"/>
<polygon fill="midnightblue" stroke="midnightblue" points="653.28,-213.51 653.98,-224.08 660.03,-215.38 653.28,-213.51"/>
</g>
<!-- Node23&#45;&gt;Node6 -->
<g id="edge29" class="edge">
<title>Node23&#45;&gt;Node6</title>
<path fill="none" stroke="midnightblue" d="M640.13,-215.45C629.83,-200.84 613.4,-180.48 594.5,-168 551.57,-139.66 514.69,-173.65 484.5,-132 468.27,-109.61 504.13,-87.28 528.13,-75.51"/>
<polygon fill="midnightblue" stroke="midnightblue" points="637.47,-217.76 645.98,-224.08 643.27,-213.84 637.47,-217.76"/>
</g>
<!-- Node23&#45;&gt;Node21 -->
<g id="edge26" class="edge">
<title>Node23&#45;&gt;Node21</title>
<path fill="none" stroke="midnightblue" d="M687.58,-225.17C735.35,-214.82 819,-196.68 865.97,-186.49"/>
<polygon fill="midnightblue" stroke="midnightblue" points="686.71,-221.78 677.68,-227.32 688.19,-228.62 686.71,-221.78"/>
</g>
<!-- Node24 -->
<g id="node24" class="node">
<title>Node24</title>
<g id="a_node24"><a xlink:href="a00257.html" target="_top" xlink:title=" ">
<polygon fill="white" stroke="black" points="455.5,-168.5 455.5,-187.5 517.5,-187.5 517.5,-168.5 455.5,-168.5"/>
<text text-anchor="middle" x="486.5" y="-175.5" font-family="Helvetica,sans-Serif" font-size="10.00">Friend.cpp</text>
</a>
</g>
</g>
<!-- Node23&#45;&gt;Node24 -->
<g id="edge28" class="edge">
<title>Node23&#45;&gt;Node24</title>
<path fill="none" stroke="midnightblue" d="M615.76,-221.3C584.67,-211.13 540.35,-196.62 512.52,-187.52"/>
<polygon fill="midnightblue" stroke="midnightblue" points="614.76,-224.66 625.36,-224.44 616.94,-218.01 614.76,-224.66"/>
</g>
<!-- Node25&#45;&gt;Node3 -->
<g id="edge31" class="edge">
<title>Node25&#45;&gt;Node3</title>
<path fill="none" stroke="midnightblue" d="M698.13,-221.96C664.63,-211.5 615.18,-196.07 585.57,-186.83"/>
<polygon fill="midnightblue" stroke="midnightblue" points="697.38,-225.39 707.97,-225.03 699.47,-218.71 697.38,-225.39"/>
</g>
<!-- Node25&#45;&gt;Node4 -->
<g id="edge33" class="edge">
<title>Node25&#45;&gt;Node4</title>
<path fill="none" stroke="midnightblue" d="M714.67,-217.82C702.66,-208.15 687.53,-195.95 677.46,-187.83"/>
<polygon fill="midnightblue" stroke="midnightblue" points="712.75,-220.77 722.74,-224.32 717.15,-215.32 712.75,-220.77"/>
</g>
<!-- Node25&#45;&gt;Node6 -->
<g id="edge36" class="edge">
<title>Node25&#45;&gt;Node6</title>
<path fill="none" stroke="midnightblue" d="M729.62,-214.13C727.84,-199.88 728.04,-180.68 738.5,-168 778.79,-119.15 911.06,-159.77 869.5,-112 832.59,-69.57 658.07,-65.93 582.51,-66.4"/>
<polygon fill="midnightblue" stroke="midnightblue" points="726.22,-214.99 731.32,-224.28 733.12,-213.84 726.22,-214.99"/>
</g>
<!-- Node25&#45;&gt;Node21 -->
<g id="edge32" class="edge">
<title>Node25&#45;&gt;Node21</title>
<path fill="none" stroke="midnightblue" d="M768.93,-221.54C800.44,-211.35 845.81,-196.69 874.19,-187.51"/>
<polygon fill="midnightblue" stroke="midnightblue" points="767.67,-218.27 759.23,-224.68 769.82,-224.93 767.67,-218.27"/>
</g>
<!-- Node26 -->
<g id="node26" class="node">
<title>Node26</title>
<g id="a_node26"><a xlink:href="a01254.html" target="_top" xlink:title=" ">
<polygon fill="white" stroke="black" points="953.5,-168.5 953.5,-187.5 1015.5,-187.5 1015.5,-168.5 953.5,-168.5"/>
<text text-anchor="middle" x="984.5" y="-175.5" font-family="Helvetica,sans-Serif" font-size="10.00">Group.cpp</text>
</a>
</g>
</g>
<!-- Node25&#45;&gt;Node26 -->
<g id="edge34" class="edge">
<title>Node25&#45;&gt;Node26</title>
<path fill="none" stroke="midnightblue" d="M769,-225.45C810.77,-216.55 882.19,-201.3 943.5,-188 946.63,-187.32 949.9,-186.61 953.16,-185.9"/>
<polygon fill="midnightblue" stroke="midnightblue" points="768.1,-222.06 759.05,-227.57 769.56,-228.91 768.1,-222.06"/>
</g>
<!-- Node27 -->
<g id="node27" class="node">
<title>Node27</title>
<g id="a_node27"><a xlink:href="a00278.html" target="_top" xlink:title=" ">
<polygon fill="white" stroke="black" points="747.5,-168.5 747.5,-187.5 847.5,-187.5 847.5,-168.5 747.5,-168.5"/>
<text text-anchor="middle" x="797.5" y="-175.5" font-family="Helvetica,sans-Serif" font-size="10.00">MessageChain.cpp</text>
</a>
</g>
</g>
<!-- Node25&#45;&gt;Node27 -->
<g id="edge35" class="edge">
<title>Node25&#45;&gt;Node27</title>
<path fill="none" stroke="midnightblue" d="M751.49,-217.82C762.96,-208.15 777.41,-195.95 787.03,-187.83"/>
<polygon fill="midnightblue" stroke="midnightblue" points="749.17,-215.2 743.78,-224.32 753.68,-220.55 749.17,-215.2"/>
</g>
<!-- Node28&#45;&gt;Node4 -->
<g id="edge39" class="edge">
<title>Node28&#45;&gt;Node4</title>
<path fill="none" stroke="midnightblue" d="M860.53,-223.78C811.96,-212.57 731.49,-194 691.16,-184.69"/>
<polygon fill="midnightblue" stroke="midnightblue" points="859.86,-227.21 870.39,-226.05 861.43,-220.39 859.86,-227.21"/>
</g>
<!-- Node28&#45;&gt;Node6 -->
<g id="edge42" class="edge">
<title>Node28&#45;&gt;Node6</title>
<path fill="none" stroke="midnightblue" d="M939.18,-221.41C973.61,-210.71 1019.33,-195.38 1024.5,-188 1029.6,-180.72 1029.46,-175.38 1024.5,-168 974.83,-94.04 684.33,-73.42 582.64,-68.43"/>
<polygon fill="midnightblue" stroke="midnightblue" points="937.89,-218.15 929.36,-224.43 939.95,-224.84 937.89,-218.15"/>
</g>
<!-- Node28&#45;&gt;Node21 -->
<g id="edge38" class="edge">
<title>Node28&#45;&gt;Node21</title>
<path fill="none" stroke="midnightblue" d="M900.5,-213.8C900.5,-204.91 900.5,-194.78 900.5,-187.75"/>
<polygon fill="midnightblue" stroke="midnightblue" points="897,-214.08 900.5,-224.08 904,-214.08 897,-214.08"/>
</g>
<!-- Node28&#45;&gt;Node26 -->
<g id="edge40" class="edge">
<title>Node28&#45;&gt;Node26</title>
<path fill="none" stroke="midnightblue" d="M922.43,-218.9C937.84,-209 957.95,-196.07 971.04,-187.65"/>
<polygon fill="midnightblue" stroke="midnightblue" points="920.52,-215.97 914,-224.32 924.3,-221.86 920.52,-215.97"/>
</g>
<!-- Node29 -->
<g id="node29" class="node">
<title>Node29</title>
<g id="a_node29"><a xlink:href="a01266.html" target="_top" xlink:title=" ">
<polygon fill="white" stroke="black" points="1072,-168.5 1072,-187.5 1143,-187.5 1143,-168.5 1072,-168.5"/>
<text text-anchor="middle" x="1107.5" y="-175.5" font-family="Helvetica,sans-Serif" font-size="10.00">Member.cpp</text>
</a>
</g>
</g>
<!-- Node28&#45;&gt;Node29 -->
<g id="edge41" class="edge">
<title>Node28&#45;&gt;Node29</title>
<path fill="none" stroke="midnightblue" d="M940.57,-222.55C979.61,-212.36 1038.25,-197.07 1074.63,-187.58"/>
<polygon fill="midnightblue" stroke="midnightblue" points="939.39,-219.24 930.6,-225.15 941.16,-226.01 939.39,-219.24"/>
</g>
</g>
</svg>
