<?xml version="1.0" encoding="UTF-8" standalone="no"?>
<!DOCTYPE svg PUBLIC "-//W3C//DTD SVG 1.1//EN"
 "http://www.w3.org/Graphics/SVG/1.1/DTD/svg11.dtd">
<!-- Generated by graphviz version 2.50.0 (20211204.2007)
 -->
<!-- Title: redirectCout.cpp Pages: 1 -->
<svg width="449pt" height="252pt"
 viewBox="0.00 0.00 448.60 252.00" xmlns="http://www.w3.org/2000/svg" xmlns:xlink="http://www.w3.org/1999/xlink">
<g id="graph0" class="graph" transform="scale(1 1) rotate(0) translate(4 248)">
<title>redirectCout.cpp</title>
<polygon fill="white" stroke="transparent" points="-4,4 -4,-248 444.6,-248 444.6,4 -4,4"/>
<!-- Node1 -->
<g id="node1" class="node">
<title>Node1</title>
<g id="a_node1"><a xlink:title=" ">
<polygon fill="#bfbfbf" stroke="black" points="106.6,-224.5 106.6,-243.5 194.6,-243.5 194.6,-224.5 106.6,-224.5"/>
<text text-anchor="middle" x="150.6" y="-231.5" font-family="Helvetica,sans-Serif" font-size="10.00">redirectCout.cpp</text>
</a>
</g>
</g>
<!-- Node2 -->
<g id="node2" class="node">
<title>Node2</title>
<g id="a_node2"><a xlink:href="a00044.html" target="_top" xlink:title=" ">
<polygon fill="white" stroke="black" points="5.6,-56.5 5.6,-75.5 97.6,-75.5 97.6,-56.5 5.6,-56.5"/>
<text text-anchor="middle" x="51.6" y="-63.5" font-family="Helvetica,sans-Serif" font-size="10.00">MiraiCPMacros.h</text>
</a>
</g>
</g>
<!-- Node1&#45;&gt;Node2 -->
<g id="edge1" class="edge">
<title>Node1&#45;&gt;Node2</title>
<path fill="none" stroke="midnightblue" d="M106.49,-232.06C73.66,-228.75 30.83,-218.36 8.6,-188 -15.31,-155.33 16.33,-108.13 36.75,-83.45"/>
<polygon fill="midnightblue" stroke="midnightblue" points="39.53,-85.58 43.4,-75.72 34.22,-81.02 39.53,-85.58"/>
</g>
<!-- Node4 -->
<g id="node4" class="node">
<title>Node4</title>
<g id="a_node4"><a xlink:href="a00188.html" target="_top" xlink:title=" ">
<polygon fill="white" stroke="black" points="18.1,-168.5 18.1,-187.5 95.1,-187.5 95.1,-168.5 18.1,-168.5"/>
<text text-anchor="middle" x="56.6" y="-175.5" font-family="Helvetica,sans-Serif" font-size="10.00">redirectCout.h</text>
</a>
</g>
</g>
<!-- Node1&#45;&gt;Node4 -->
<g id="edge3" class="edge">
<title>Node1&#45;&gt;Node4</title>
<path fill="none" stroke="midnightblue" d="M135.5,-224.32C120.7,-215.82 97.91,-202.73 80.62,-192.8"/>
<polygon fill="midnightblue" stroke="midnightblue" points="82.08,-189.6 71.67,-187.65 78.59,-195.67 82.08,-189.6"/>
</g>
<!-- Node5 -->
<g id="node5" class="node">
<title>Node5</title>
<g id="a_node5"><a xlink:title=" ">
<polygon fill="white" stroke="#bfbfbf" points="36.6,-112.5 36.6,-131.5 88.6,-131.5 88.6,-112.5 36.6,-112.5"/>
<text text-anchor="middle" x="62.6" y="-119.5" font-family="Helvetica,sans-Serif" font-size="10.00">sstream</text>
</a>
</g>
</g>
<!-- Node1&#45;&gt;Node5 -->
<g id="edge8" class="edge">
<title>Node1&#45;&gt;Node5</title>
<path fill="none" stroke="midnightblue" d="M145,-224.32C136.67,-211.59 120.31,-187.3 104.6,-168 96.42,-157.95 86.56,-147.33 78.46,-138.93"/>
<polygon fill="midnightblue" stroke="midnightblue" points="80.83,-136.34 71.33,-131.64 75.83,-141.24 80.83,-136.34"/>
</g>
<!-- Node6 -->
<g id="node6" class="node">
<title>Node6</title>
<g id="a_node6"><a xlink:title=" ">
<polygon fill="white" stroke="#bfbfbf" points="261.6,-168.5 261.6,-187.5 315.6,-187.5 315.6,-168.5 261.6,-168.5"/>
<text text-anchor="middle" x="288.6" y="-175.5" font-family="Helvetica,sans-Serif" font-size="10.00">iostream</text>
</a>
</g>
</g>
<!-- Node1&#45;&gt;Node6 -->
<g id="edge6" class="edge">
<title>Node1&#45;&gt;Node6</title>
<path fill="none" stroke="midnightblue" d="M172.47,-224.44C195.38,-215.48 231.58,-201.31 257.47,-191.18"/>
<polygon fill="midnightblue" stroke="midnightblue" points="258.8,-194.42 266.84,-187.52 256.25,-187.9 258.8,-194.42"/>
</g>
<!-- Node7 -->
<g id="node7" class="node">
<title>Node7</title>
<g id="a_node7"><a xlink:title=" ">
<polygon fill="white" stroke="#bfbfbf" points="388.6,-112.5 388.6,-131.5 440.6,-131.5 440.6,-112.5 388.6,-112.5"/>
<text text-anchor="middle" x="414.6" y="-119.5" font-family="Helvetica,sans-Serif" font-size="10.00">memory</text>
</a>
</g>
</g>
<!-- Node1&#45;&gt;Node7 -->
<g id="edge7" class="edge">
<title>Node1&#45;&gt;Node7</title>
<path fill="none" stroke="midnightblue" d="M161.6,-224.42C179.65,-210.71 217.12,-183.81 252.6,-168 264.16,-162.85 334.45,-144.01 378.56,-132.41"/>
<polygon fill="midnightblue" stroke="midnightblue" points="379.57,-135.76 388.35,-129.83 377.79,-128.99 379.57,-135.76"/>
</g>
<!-- Node8 -->
<g id="node8" class="node">
<title>Node8</title>
<g id="a_node8"><a xlink:href="a00137.html" target="_top" xlink:title=" ">
<polygon fill="white" stroke="black" points="151.6,-168.5 151.6,-187.5 205.6,-187.5 205.6,-168.5 151.6,-168.5"/>
<text text-anchor="middle" x="178.6" y="-175.5" font-family="Helvetica,sans-Serif" font-size="10.00">Logger.h</text>
</a>
</g>
</g>
<!-- Node1&#45;&gt;Node8 -->
<g id="edge9" class="edge">
<title>Node1&#45;&gt;Node8</title>
<path fill="none" stroke="midnightblue" d="M155.22,-224.08C159.06,-216.69 164.62,-205.95 169.36,-196.81"/>
<polygon fill="midnightblue" stroke="midnightblue" points="172.57,-198.24 174.06,-187.75 166.35,-195.02 172.57,-198.24"/>
</g>
<!-- Node3 -->
<g id="node3" class="node">
<title>Node3</title>
<g id="a_node3"><a xlink:title=" ">
<polygon fill="white" stroke="#bfbfbf" points="27.1,-0.5 27.1,-19.5 76.1,-19.5 76.1,-0.5 27.1,-0.5"/>
<text text-anchor="middle" x="51.6" y="-7.5" font-family="Helvetica,sans-Serif" font-size="10.00">cassert</text>
</a>
</g>
</g>
<!-- Node2&#45;&gt;Node3 -->
<g id="edge2" class="edge">
<title>Node2&#45;&gt;Node3</title>
<path fill="none" stroke="midnightblue" d="M51.6,-56.08C51.6,-49.01 51.6,-38.86 51.6,-29.99"/>
<polygon fill="midnightblue" stroke="midnightblue" points="55.1,-29.75 51.6,-19.75 48.1,-29.75 55.1,-29.75"/>
</g>
<!-- Node4&#45;&gt;Node2 -->
<g id="edge4" class="edge">
<title>Node4&#45;&gt;Node2</title>
<path fill="none" stroke="midnightblue" d="M48.93,-168.46C41.82,-159.93 31.75,-146.09 27.6,-132 22.74,-115.47 30.83,-97.09 38.9,-84.1"/>
<polygon fill="midnightblue" stroke="midnightblue" points="41.88,-85.95 44.59,-75.7 36.08,-82.02 41.88,-85.95"/>
</g>
<!-- Node4&#45;&gt;Node5 -->
<g id="edge5" class="edge">
<title>Node4&#45;&gt;Node5</title>
<path fill="none" stroke="midnightblue" d="M57.59,-168.08C58.39,-160.93 59.53,-150.64 60.52,-141.69"/>
<polygon fill="midnightblue" stroke="midnightblue" points="64,-142.08 61.63,-131.75 57.04,-141.3 64,-142.08"/>
</g>
<!-- Node8&#45;&gt;Node2 -->
<g id="edge10" class="edge">
<title>Node8&#45;&gt;Node2</title>
<path fill="none" stroke="midnightblue" d="M168.63,-168.37C147.21,-149.81 96.53,-105.91 69.42,-82.44"/>
<polygon fill="midnightblue" stroke="midnightblue" points="71.37,-79.49 61.52,-75.59 66.79,-84.78 71.37,-79.49"/>
</g>
<!-- Node8&#45;&gt;Node5 -->
<g id="edge17" class="edge">
<title>Node8&#45;&gt;Node5</title>
<path fill="none" stroke="midnightblue" d="M160.22,-168.44C141.38,-159.68 111.87,-145.94 90.22,-135.86"/>
<polygon fill="midnightblue" stroke="midnightblue" points="91.44,-132.56 80.89,-131.52 88.48,-138.91 91.44,-132.56"/>
</g>
<!-- Node8&#45;&gt;Node7 -->
<g id="edge16" class="edge">
<title>Node8&#45;&gt;Node7</title>
<path fill="none" stroke="midnightblue" d="M205.95,-170.99C249.46,-161.41 333.42,-142.85 378.47,-132.21"/>
<polygon fill="midnightblue" stroke="midnightblue" points="379.33,-135.6 388.25,-129.87 377.71,-128.79 379.33,-135.6"/>
</g>
<!-- Node9 -->
<g id="node9" class="node">
<title>Node9</title>
<g id="a_node9"><a xlink:href="a00149.html" target="_top" xlink:title=" ">
<polygon fill="white" stroke="black" points="144.6,-112.5 144.6,-131.5 212.6,-131.5 212.6,-112.5 144.6,-112.5"/>
<text text-anchor="middle" x="178.6" y="-119.5" font-family="Helvetica,sans-Serif" font-size="10.00">MiraiCode.h</text>
</a>
</g>
</g>
<!-- Node8&#45;&gt;Node9 -->
<g id="edge11" class="edge">
<title>Node8&#45;&gt;Node9</title>
<path fill="none" stroke="midnightblue" d="M178.6,-168.08C178.6,-161.01 178.6,-150.86 178.6,-141.99"/>
<polygon fill="midnightblue" stroke="midnightblue" points="182.1,-141.75 178.6,-131.75 175.1,-141.75 182.1,-141.75"/>
</g>
<!-- Node11 -->
<g id="node11" class="node">
<title>Node11</title>
<g id="a_node11"><a xlink:href="a00158.html" target="_top" xlink:title=" ">
<polygon fill="white" stroke="black" points="231.1,-112.5 231.1,-131.5 294.1,-131.5 294.1,-112.5 231.1,-112.5"/>
<text text-anchor="middle" x="262.6" y="-119.5" font-family="Helvetica,sans-Serif" font-size="10.00">SdkType.h</text>
</a>
</g>
</g>
<!-- Node8&#45;&gt;Node11 -->
<g id="edge14" class="edge">
<title>Node8&#45;&gt;Node11</title>
<path fill="none" stroke="midnightblue" d="M192.1,-168.32C205.2,-159.9 225.31,-146.97 240.71,-137.07"/>
<polygon fill="midnightblue" stroke="midnightblue" points="242.62,-140.01 249.14,-131.65 238.83,-134.12 242.62,-140.01"/>
</g>
<!-- Node12 -->
<g id="node12" class="node">
<title>Node12</title>
<g id="a_node12"><a xlink:title=" ">
<polygon fill="white" stroke="#bfbfbf" points="312.6,-112.5 312.6,-131.5 370.6,-131.5 370.6,-112.5 312.6,-112.5"/>
<text text-anchor="middle" x="341.6" y="-119.5" font-family="Helvetica,sans-Serif" font-size="10.00">functional</text>
</a>
</g>
</g>
<!-- Node8&#45;&gt;Node12 -->
<g id="edge15" class="edge">
<title>Node8&#45;&gt;Node12</title>
<path fill="none" stroke="midnightblue" d="M204.43,-168.44C231.85,-159.36 275.38,-144.94 306.03,-134.78"/>
<polygon fill="midnightblue" stroke="midnightblue" points="307.5,-137.98 315.89,-131.52 305.3,-131.34 307.5,-137.98"/>
</g>
<!-- Node9&#45;&gt;Node2 -->
<g id="edge13" class="edge">
<title>Node9&#45;&gt;Node2</title>
<path fill="none" stroke="midnightblue" d="M158.48,-112.44C137.58,-103.56 104.67,-89.56 80.88,-79.45"/>
<polygon fill="midnightblue" stroke="midnightblue" points="82.2,-76.21 71.63,-75.52 79.46,-82.65 82.2,-76.21"/>
</g>
<!-- Node10 -->
<g id="node10" class="node">
<title>Node10</title>
<g id="a_node10"><a xlink:title=" ">
<polygon fill="white" stroke="#bfbfbf" points="158.1,-56.5 158.1,-75.5 199.1,-75.5 199.1,-56.5 158.1,-56.5"/>
<text text-anchor="middle" x="178.6" y="-63.5" font-family="Helvetica,sans-Serif" font-size="10.00">string</text>
</a>
</g>
</g>
<!-- Node9&#45;&gt;Node10 -->
<g id="edge12" class="edge">
<title>Node9&#45;&gt;Node10</title>
<path fill="none" stroke="midnightblue" d="M178.6,-112.08C178.6,-105.01 178.6,-94.86 178.6,-85.99"/>
<polygon fill="midnightblue" stroke="midnightblue" points="182.1,-85.75 178.6,-75.75 175.1,-85.75 182.1,-85.75"/>
</g>
</g>
</svg>
