<?xml version="1.0" encoding="UTF-8" standalone="no"?>
<!DOCTYPE svg PUBLIC "-//W3C//DTD SVG 1.1//EN"
 "http://www.w3.org/Graphics/SVG/1.1/DTD/svg11.dtd">
<!-- Generated by graphviz version 9.0.0 (0)
 -->
<!-- Title: EventBase.h Pages: 1 -->
<svg width="2402pt" height="196pt"
 viewBox="0.00 0.00 2402.00 196.00" xmlns="http://www.w3.org/2000/svg" xmlns:xlink="http://www.w3.org/1999/xlink">
<g id="graph0" class="graph" transform="scale(1 1) rotate(0) translate(4 192)">
<title>EventBase.h</title>
<!-- Node1 -->
<g id="Node000001" class="node">
<title>Node1</title>
<g id="a_Node000001"><a xlink:title=" ">
<polygon fill="#999999" stroke="#666666" points="2054.75,-188 1982.5,-188 1982.5,-168 2054.75,-168 2054.75,-188"/>
<text text-anchor="middle" x="2018.62" y="-174.5" font-family="Helvetica,sans-Serif" font-size="10.00">EventBase.h</text>
</a>
</g>
</g>
<!-- Node2 -->
<g id="Node000002" class="node">
<title>Node2</title>
<g id="a_Node000002"><a xlink:href="a00164.html" target="_top" xlink:title=" ">
<polygon fill="white" stroke="#666666" points="1051,-132 986.25,-132 986.25,-112 1051,-112 1051,-132"/>
<text text-anchor="middle" x="1018.62" y="-118.5" font-family="Helvetica,sans-Serif" font-size="10.00">BotEvent.h</text>
</a>
</g>
</g>
<!-- Node1&#45;&gt;Node2 -->
<g id="edge1_Node000001_Node000002" class="edge">
<title>Node1&#45;&gt;Node2</title>
<g id="a_edge1_Node000001_Node000002"><a xlink:title=" ">
<path fill="none" stroke="#63b8ff" d="M1970.82,-174.42C1796.61,-165.01 1198.27,-132.7 1051.38,-124.77"/>
<polygon fill="#63b8ff" stroke="#63b8ff" points="1970.46,-177.9 1980.64,-174.95 1970.84,-170.91 1970.46,-177.9"/>
</a>
</g>
</g>
<!-- Node19 -->
<g id="Node000019" class="node">
<title>Node19</title>
<g id="a_Node000019"><a xlink:href="a00173.html" target="_top" xlink:title=" ">
<polygon fill="white" stroke="#666666" points="2087.5,-132 2037.75,-132 2037.75,-112 2087.5,-112 2087.5,-132"/>
<text text-anchor="middle" x="2062.62" y="-118.5" font-family="Helvetica,sans-Serif" font-size="10.00">Event.h</text>
</a>
</g>
</g>
<!-- Node1&#45;&gt;Node19 -->
<g id="edge32_Node000001_Node000019" class="edge">
<title>Node1&#45;&gt;Node19</title>
<g id="a_edge32_Node000001_Node000019"><a xlink:title=" ">
<path fill="none" stroke="#63b8ff" d="M2033.52,-158.72C2040.76,-149.84 2049.14,-139.55 2055.05,-132.3"/>
<polygon fill="#63b8ff" stroke="#63b8ff" points="2030.85,-156.46 2027.25,-166.42 2036.28,-160.88 2030.85,-156.46"/>
</a>
</g>
</g>
<!-- Node23 -->
<g id="Node000023" class="node">
<title>Node23</title>
<g id="a_Node000023"><a xlink:href="a00131.html" target="_top" xlink:title=" ">
<polygon fill="white" stroke="#666666" points="2242.88,-132 2114.38,-132 2114.38,-112 2242.88,-112 2242.88,-132"/>
<text text-anchor="middle" x="2178.62" y="-118.5" font-family="Helvetica,sans-Serif" font-size="10.00">MiraiCPExceptionEvent.h</text>
</a>
</g>
</g>
<!-- Node1&#45;&gt;Node23 -->
<g id="edge37_Node000001_Node000023" class="edge">
<title>Node1&#45;&gt;Node23</title>
<g id="a_edge37_Node000001_Node000023"><a xlink:title=" ">
<path fill="none" stroke="#63b8ff" d="M2057.38,-163.92C2086.14,-154.21 2124.7,-141.2 2150.54,-132.48"/>
<polygon fill="#63b8ff" stroke="#63b8ff" points="2056.28,-160.6 2047.93,-167.11 2058.52,-167.23 2056.28,-160.6"/>
</a>
</g>
</g>
<!-- Node24 -->
<g id="Node000024" class="node">
<title>Node24</title>
<g id="a_Node000024"><a xlink:href="a00158.html" target="_top" xlink:title=" ">
<polygon fill="white" stroke="#666666" points="2010.25,-132 1923,-132 1923,-112 2010.25,-112 2010.25,-132"/>
<text text-anchor="middle" x="1966.62" y="-118.5" font-family="Helvetica,sans-Serif" font-size="10.00">TimeOutEvent.h</text>
</a>
</g>
</g>
<!-- Node1&#45;&gt;Node24 -->
<g id="edge40_Node000001_Node000024" class="edge">
<title>Node1&#45;&gt;Node24</title>
<g id="a_edge40_Node000001_Node000024"><a xlink:title=" ">
<path fill="none" stroke="#63b8ff" d="M2001.84,-159.57C1993.11,-150.5 1982.78,-139.78 1975.58,-132.3"/>
<polygon fill="#63b8ff" stroke="#63b8ff" points="1999.06,-161.73 2008.52,-166.5 2004.1,-156.87 1999.06,-161.73"/>
</a>
</g>
</g>
<!-- Node3 -->
<g id="Node000003" class="node">
<title>Node3</title>
<g id="a_Node000003"><a xlink:href="a00152.html" target="_top" xlink:title=" ">
<polygon fill="white" stroke="#666666" points="900.12,-76 791.12,-76 791.12,-56 900.12,-56 900.12,-76"/>
<text text-anchor="middle" x="845.62" y="-62.5" font-family="Helvetica,sans-Serif" font-size="10.00">BotJoinGroupEvent.h</text>
</a>
</g>
</g>
<!-- Node2&#45;&gt;Node3 -->
<g id="edge2_Node000002_Node000003" class="edge">
<title>Node2&#45;&gt;Node3</title>
<g id="a_edge2_Node000002_Node000003"><a xlink:title=" ">
<path fill="none" stroke="#63b8ff" d="M977.55,-108.18C946.36,-98.44 904.18,-85.28 875.99,-76.48"/>
<polygon fill="#63b8ff" stroke="#63b8ff" points="976.46,-111.5 987.05,-111.14 978.54,-104.82 976.46,-111.5"/>
</a>
</g>
</g>
<!-- Node5 -->
<g id="Node000005" class="node">
<title>Node5</title>
<g id="a_Node000005"><a xlink:href="a00146.html" target="_top" xlink:title=" ">
<polygon fill="white" stroke="#666666" points="1009.12,-76 918.12,-76 918.12,-56 1009.12,-56 1009.12,-76"/>
<text text-anchor="middle" x="963.62" y="-62.5" font-family="Helvetica,sans-Serif" font-size="10.00">BotLeaveEvent.h</text>
</a>
</g>
</g>
<!-- Node2&#45;&gt;Node5 -->
<g id="edge4_Node000002_Node000005" class="edge">
<title>Node2&#45;&gt;Node5</title>
<g id="a_edge4_Node000002_Node000005"><a xlink:title=" ">
<path fill="none" stroke="#63b8ff" d="M1000.87,-103.57C991.63,-94.5 980.71,-83.78 973.1,-76.3"/>
<polygon fill="#63b8ff" stroke="#63b8ff" points="998.38,-106.03 1007.96,-110.53 1003.28,-101.03 998.38,-106.03"/>
</a>
</g>
</g>
<!-- Node6 -->
<g id="Node000006" class="node">
<title>Node6</title>
<g id="a_Node000006"><a xlink:href="a00143.html" target="_top" xlink:title=" ">
<polygon fill="white" stroke="#666666" points="1119.88,-76 1027.38,-76 1027.38,-56 1119.88,-56 1119.88,-76"/>
<text text-anchor="middle" x="1073.62" y="-62.5" font-family="Helvetica,sans-Serif" font-size="10.00">BotOnlineEvent.h</text>
</a>
</g>
</g>
<!-- Node2&#45;&gt;Node6 -->
<g id="edge6_Node000002_Node000006" class="edge">
<title>Node2&#45;&gt;Node6</title>
<g id="a_edge6_Node000002_Node000006"><a xlink:title=" ">
<path fill="none" stroke="#63b8ff" d="M1036.38,-103.57C1045.62,-94.5 1056.54,-83.78 1064.15,-76.3"/>
<polygon fill="#63b8ff" stroke="#63b8ff" points="1033.97,-101.03 1029.29,-110.53 1038.87,-106.03 1033.97,-101.03"/>
</a>
</g>
</g>
<!-- Node7 -->
<g id="Node000007" class="node">
<title>Node7</title>
<g id="a_Node000007"><a xlink:href="a00110.html" target="_top" xlink:title=" ">
<polygon fill="white" stroke="#666666" points="1242.88,-76 1138.38,-76 1138.38,-56 1242.88,-56 1242.88,-76"/>
<text text-anchor="middle" x="1190.62" y="-62.5" font-family="Helvetica,sans-Serif" font-size="10.00">FriendRecallEvent.h</text>
</a>
</g>
</g>
<!-- Node2&#45;&gt;Node7 -->
<g id="edge8_Node000002_Node000007" class="edge">
<title>Node2&#45;&gt;Node7</title>
<g id="a_edge8_Node000002_Node000007"><a xlink:title=" ">
<path fill="none" stroke="#63b8ff" d="M1059.47,-108.18C1090.47,-98.44 1132.41,-85.28 1160.43,-76.48"/>
<polygon fill="#63b8ff" stroke="#63b8ff" points="1058.52,-104.81 1050.03,-111.14 1060.62,-111.48 1058.52,-104.81"/>
</a>
</g>
</g>
<!-- Node8 -->
<g id="Node000008" class="node">
<title>Node8</title>
<g id="a_Node000008"><a xlink:href="a00134.html" target="_top" xlink:title=" ">
<polygon fill="white" stroke="#666666" points="1360.62,-76 1260.62,-76 1260.62,-56 1360.62,-56 1360.62,-76"/>
<text text-anchor="middle" x="1310.62" y="-62.5" font-family="Helvetica,sans-Serif" font-size="10.00">GroupInviteEvent.h</text>
</a>
</g>
</g>
<!-- Node2&#45;&gt;Node8 -->
<g id="edge10_Node000002_Node000008" class="edge">
<title>Node2&#45;&gt;Node8</title>
<g id="a_edge10_Node000002_Node000008"><a xlink:title=" ">
<path fill="none" stroke="#63b8ff" d="M1062.32,-112.92C1115.27,-103.13 1204.31,-86.66 1260.14,-76.34"/>
<polygon fill="#63b8ff" stroke="#63b8ff" points="1061.96,-109.43 1052.76,-114.69 1063.23,-116.31 1061.96,-109.43"/>
</a>
</g>
</g>
<!-- Node9 -->
<g id="Node000009" class="node">
<title>Node9</title>
<g id="a_Node000009"><a xlink:href="a00119.html" target="_top" xlink:title=" ">
<polygon fill="white" stroke="#666666" points="1494.5,-76 1378.75,-76 1378.75,-56 1494.5,-56 1494.5,-76"/>
<text text-anchor="middle" x="1436.62" y="-62.5" font-family="Helvetica,sans-Serif" font-size="10.00">GroupMessageEvent.h</text>
</a>
</g>
</g>
<!-- Node2&#45;&gt;Node9 -->
<g id="edge12_Node000002_Node000009" class="edge">
<title>Node2&#45;&gt;Node9</title>
<g id="a_edge12_Node000002_Node000009"><a xlink:title=" ">
<path fill="none" stroke="#63b8ff" d="M1062.31,-115.49C1128.7,-107.08 1259.01,-90.52 1369.62,-76 1372.53,-75.62 1375.51,-75.23 1378.52,-74.83"/>
<polygon fill="#63b8ff" stroke="#63b8ff" points="1062.04,-111.99 1052.56,-116.72 1062.92,-118.94 1062.04,-111.99"/>
</a>
</g>
</g>
<!-- Node10 -->
<g id="Node000010" class="node">
<title>Node10</title>
<g id="a_Node000010"><a xlink:href="a00122.html" target="_top" xlink:title=" ">
<polygon fill="white" stroke="#666666" points="1652.5,-76 1512.75,-76 1512.75,-56 1652.5,-56 1652.5,-76"/>
<text text-anchor="middle" x="1582.62" y="-62.5" font-family="Helvetica,sans-Serif" font-size="10.00">GroupTempMessageEvent.h</text>
</a>
</g>
</g>
<!-- Node2&#45;&gt;Node10 -->
<g id="edge14_Node000002_Node000010" class="edge">
<title>Node2&#45;&gt;Node10</title>
<g id="a_edge14_Node000002_Node000010"><a xlink:title=" ">
<path fill="none" stroke="#63b8ff" d="M1062.57,-117.23C1147.73,-109.86 1341.14,-92.79 1503.62,-76 1506.51,-75.7 1509.45,-75.39 1512.42,-75.07"/>
<polygon fill="#63b8ff" stroke="#63b8ff" points="1062.46,-113.73 1052.8,-118.08 1063.06,-120.7 1062.46,-113.73"/>
</a>
</g>
</g>
<!-- Node11 -->
<g id="Node000011" class="node">
<title>Node11</title>
<g id="a_Node000011"><a xlink:href="a00155.html" target="_top" xlink:title=" ">
<polygon fill="white" stroke="#666666" points="1773.12,-76 1670.12,-76 1670.12,-56 1773.12,-56 1773.12,-76"/>
<text text-anchor="middle" x="1721.62" y="-62.5" font-family="Helvetica,sans-Serif" font-size="10.00">MemberJoinEvent.h</text>
</a>
</g>
</g>
<!-- Node2&#45;&gt;Node11 -->
<g id="edge16_Node000002_Node000011" class="edge">
<title>Node2&#45;&gt;Node11</title>
<g id="a_edge16_Node000002_Node000011"><a xlink:title=" ">
<path fill="none" stroke="#63b8ff" d="M1062.82,-119.11C1167.22,-114.39 1437.23,-100.64 1661.62,-76 1664.35,-75.7 1667.14,-75.37 1669.95,-75.02"/>
<polygon fill="#63b8ff" stroke="#63b8ff" points="1062.84,-115.61 1053.01,-119.55 1063.15,-122.6 1062.84,-115.61"/>
</a>
</g>
</g>
<!-- Node12 -->
<g id="Node000012" class="node">
<title>Node12</title>
<g id="a_Node000012"><a xlink:href="a00137.html" target="_top" xlink:title=" ">
<polygon fill="white" stroke="#666666" points="1930.5,-76 1790.75,-76 1790.75,-56 1930.5,-56 1930.5,-76"/>
<text text-anchor="middle" x="1860.62" y="-62.5" font-family="Helvetica,sans-Serif" font-size="10.00">MemberJoinRequestEvent.h</text>
</a>
</g>
</g>
<!-- Node2&#45;&gt;Node12 -->
<g id="edge18_Node000002_Node000012" class="edge">
<title>Node2&#45;&gt;Node12</title>
<g id="a_edge18_Node000002_Node000012"><a xlink:title=" ">
<path fill="none" stroke="#63b8ff" d="M1062.7,-119.24C1179.87,-114.39 1508.74,-99.57 1781.62,-76 1784.51,-75.75 1787.46,-75.48 1790.43,-75.2"/>
<polygon fill="#63b8ff" stroke="#63b8ff" points="1062.75,-115.74 1052.9,-119.64 1063.04,-122.73 1062.75,-115.74"/>
</a>
</g>
</g>
<!-- Node13 -->
<g id="Node000013" class="node">
<title>Node13</title>
<g id="a_Node000013"><a xlink:href="a00161.html" target="_top" xlink:title=" ">
<polygon fill="white" stroke="#666666" points="111.25,-76 0,-76 0,-56 111.25,-56 111.25,-76"/>
<text text-anchor="middle" x="55.62" y="-62.5" font-family="Helvetica,sans-Serif" font-size="10.00">MemberLeaveEvent.h</text>
</a>
</g>
</g>
<!-- Node2&#45;&gt;Node13 -->
<g id="edge20_Node000002_Node000013" class="edge">
<title>Node2&#45;&gt;Node13</title>
<g id="a_edge20_Node000002_Node000013"><a xlink:title=" ">
<path fill="none" stroke="#63b8ff" d="M974.48,-120.16C843.81,-117.36 447.66,-106.78 120.62,-76 117.68,-75.72 114.66,-75.41 111.61,-75.07"/>
<polygon fill="#63b8ff" stroke="#63b8ff" points="974.35,-123.65 984.42,-120.36 974.49,-116.65 974.35,-123.65"/>
</a>
</g>
</g>
<!-- Node14 -->
<g id="Node000014" class="node">
<title>Node14</title>
<g id="a_Node000014"><a xlink:href="a00128.html" target="_top" xlink:title=" ">
<polygon fill="white" stroke="#666666" points="242,-76 129.25,-76 129.25,-56 242,-56 242,-76"/>
<text text-anchor="middle" x="185.62" y="-62.5" font-family="Helvetica,sans-Serif" font-size="10.00">MemberRecallEvent.h</text>
</a>
</g>
</g>
<!-- Node2&#45;&gt;Node14 -->
<g id="edge22_Node000002_Node000014" class="edge">
<title>Node2&#45;&gt;Node14</title>
<g id="a_edge22_Node000002_Node000014"><a xlink:title=" ">
<path fill="none" stroke="#63b8ff" d="M974.64,-119.64C856.98,-115.74 525.31,-103.02 250.62,-76 247.9,-75.73 245.12,-75.44 242.31,-75.12"/>
<polygon fill="#63b8ff" stroke="#63b8ff" points="974.37,-123.13 984.48,-119.96 974.6,-116.14 974.37,-123.13"/>
</a>
</g>
</g>
<!-- Node15 -->
<g id="Node000015" class="node">
<title>Node15</title>
<g id="a_Node000015"><a xlink:href="a00116.html" target="_top" xlink:title=" ">
<polygon fill="white" stroke="#666666" points="387.12,-76 260.12,-76 260.12,-56 387.12,-56 387.12,-76"/>
<text text-anchor="middle" x="323.62" y="-62.5" font-family="Helvetica,sans-Serif" font-size="10.00">MessagePreSendEvent.h</text>
</a>
</g>
</g>
<!-- Node2&#45;&gt;Node15 -->
<g id="edge24_Node000002_Node000015" class="edge">
<title>Node2&#45;&gt;Node15</title>
<g id="a_edge24_Node000002_Node000015"><a xlink:title=" ">
<path fill="none" stroke="#63b8ff" d="M974.44,-118.6C872.37,-112.9 612.33,-97.36 395.62,-76 392.99,-75.74 390.31,-75.46 387.6,-75.17"/>
<polygon fill="#63b8ff" stroke="#63b8ff" points="974.12,-122.09 984.3,-119.15 974.51,-115.1 974.12,-122.09"/>
</a>
</g>
</g>
<!-- Node16 -->
<g id="Node000016" class="node">
<title>Node16</title>
<g id="a_Node000016"><a xlink:href="a00113.html" target="_top" xlink:title=" ">
<polygon fill="white" stroke="#666666" points="538.5,-76 404.75,-76 404.75,-56 538.5,-56 538.5,-76"/>
<text text-anchor="middle" x="471.62" y="-62.5" font-family="Helvetica,sans-Serif" font-size="10.00">NewFriendRequestEvent.h</text>
</a>
</g>
</g>
<!-- Node2&#45;&gt;Node16 -->
<g id="edge26_Node000002_Node000016" class="edge">
<title>Node2&#45;&gt;Node16</title>
<g id="a_edge26_Node000002_Node000016"><a xlink:title=" ">
<path fill="none" stroke="#63b8ff" d="M974.45,-117.12C891,-109.7 704.46,-92.78 547.62,-76 544.72,-75.69 541.75,-75.37 538.75,-75.03"/>
<polygon fill="#63b8ff" stroke="#63b8ff" points="973.99,-120.59 984.26,-117.98 974.61,-113.62 973.99,-120.59"/>
</a>
</g>
</g>
<!-- Node17 -->
<g id="Node000017" class="node">
<title>Node17</title>
<g id="a_Node000017"><a xlink:href="a00125.html" target="_top" xlink:title=" ">
<polygon fill="white" stroke="#666666" points="634.75,-76 556.5,-76 556.5,-56 634.75,-56 634.75,-76"/>
<text text-anchor="middle" x="595.62" y="-62.5" font-family="Helvetica,sans-Serif" font-size="10.00">NudgeEvent.h</text>
</a>
</g>
</g>
<!-- Node2&#45;&gt;Node17 -->
<g id="edge28_Node000002_Node000017" class="edge">
<title>Node2&#45;&gt;Node17</title>
<g id="a_edge28_Node000002_Node000017"><a xlink:title=" ">
<path fill="none" stroke="#63b8ff" d="M974.9,-116.7C904.8,-109.59 763.04,-94.34 643.62,-76 640.86,-75.58 638.01,-75.11 635.14,-74.62"/>
<polygon fill="#63b8ff" stroke="#63b8ff" points="974.12,-120.14 984.42,-117.66 974.82,-113.17 974.12,-120.14"/>
</a>
</g>
</g>
<!-- Node18 -->
<g id="Node000018" class="node">
<title>Node18</title>
<g id="a_Node000018"><a xlink:href="a00140.html" target="_top" xlink:title=" ">
<polygon fill="white" stroke="#666666" points="772.75,-76 652.5,-76 652.5,-56 772.75,-56 772.75,-76"/>
<text text-anchor="middle" x="712.62" y="-62.5" font-family="Helvetica,sans-Serif" font-size="10.00">PrivateMessageEvent.h</text>
</a>
</g>
</g>
<!-- Node2&#45;&gt;Node18 -->
<g id="edge30_Node000002_Node000018" class="edge">
<title>Node2&#45;&gt;Node18</title>
<g id="a_edge30_Node000002_Node000018"><a xlink:title=" ">
<path fill="none" stroke="#63b8ff" d="M974.77,-113.26C919.81,-103.56 825.64,-86.94 766.39,-76.49"/>
<polygon fill="#63b8ff" stroke="#63b8ff" points="973.93,-116.67 984.39,-114.96 975.15,-109.77 973.93,-116.67"/>
</a>
</g>
</g>
<!-- Node4 -->
<g id="Node000004" class="node">
<title>Node4</title>
<g id="a_Node000004"><a xlink:href="a00353.html" target="_top" xlink:title=" ">
<polygon fill="white" stroke="#666666" points="1103.75,-20 1043.5,-20 1043.5,0 1103.75,0 1103.75,-20"/>
<text text-anchor="middle" x="1073.62" y="-6.5" font-family="Helvetica,sans-Serif" font-size="10.00">Event.cpp</text>
</a>
</g>
</g>
<!-- Node3&#45;&gt;Node4 -->
<g id="edge3_Node000003_Node000004" class="edge">
<title>Node3&#45;&gt;Node4</title>
<g id="a_edge3_Node000003_Node000004"><a xlink:title=" ">
<path fill="none" stroke="#63b8ff" d="M896.6,-52.93C941.62,-42.27 1005.74,-27.08 1043.19,-18.21"/>
<polygon fill="#63b8ff" stroke="#63b8ff" points="896,-49.47 887.07,-55.18 897.61,-56.28 896,-49.47"/>
</a>
</g>
</g>
<!-- Node5&#45;&gt;Node4 -->
<g id="edge5_Node000005_Node000004" class="edge">
<title>Node5&#45;&gt;Node4</title>
<g id="a_edge5_Node000005_Node000004"><a xlink:title=" ">
<path fill="none" stroke="#63b8ff" d="M992.93,-50.61C1012.37,-41.07 1037.34,-28.81 1054.31,-20.48"/>
<polygon fill="#63b8ff" stroke="#63b8ff" points="991.58,-47.38 984.14,-54.93 994.66,-53.66 991.58,-47.38"/>
</a>
</g>
</g>
<!-- Node6&#45;&gt;Node4 -->
<g id="edge7_Node000006_Node000004" class="edge">
<title>Node6&#45;&gt;Node4</title>
<g id="a_edge7_Node000006_Node000004"><a xlink:title=" ">
<path fill="none" stroke="#63b8ff" d="M1073.62,-44.13C1073.62,-35.9 1073.62,-26.85 1073.62,-20.3"/>
<polygon fill="#63b8ff" stroke="#63b8ff" points="1070.13,-44.08 1073.63,-54.08 1077.13,-44.08 1070.13,-44.08"/>
</a>
</g>
</g>
<!-- Node7&#45;&gt;Node4 -->
<g id="edge9_Node000007_Node000004" class="edge">
<title>Node7&#45;&gt;Node4</title>
<g id="a_edge9_Node000007_Node000004"><a xlink:title=" ">
<path fill="none" stroke="#63b8ff" d="M1160.03,-50.88C1139.27,-41.3 1112.39,-28.89 1094.16,-20.48"/>
<polygon fill="#63b8ff" stroke="#63b8ff" points="1158.32,-53.95 1168.87,-54.96 1161.26,-47.59 1158.32,-53.95"/>
</a>
</g>
</g>
<!-- Node8&#45;&gt;Node4 -->
<g id="edge11_Node000008_Node000004" class="edge">
<title>Node8&#45;&gt;Node4</title>
<g id="a_edge11_Node000008_Node000004"><a xlink:title=" ">
<path fill="none" stroke="#63b8ff" d="M1258.13,-53.04C1210.89,-42.27 1143.09,-26.83 1104.19,-17.96"/>
<polygon fill="#63b8ff" stroke="#63b8ff" points="1257.07,-56.39 1267.6,-55.2 1258.62,-49.56 1257.07,-56.39"/>
</a>
</g>
</g>
<!-- Node9&#45;&gt;Node4 -->
<g id="edge13_Node000009_Node000004" class="edge">
<title>Node9&#45;&gt;Node4</title>
<g id="a_edge13_Node000009_Node000004"><a xlink:title=" ">
<path fill="none" stroke="#63b8ff" d="M1366.94,-54.63C1287.57,-42.83 1161.45,-24.06 1103.96,-15.51"/>
<polygon fill="#63b8ff" stroke="#63b8ff" points="1366.4,-58.09 1376.81,-56.1 1367.43,-51.17 1366.4,-58.09"/>
</a>
</g>
</g>
<!-- Node10&#45;&gt;Node4 -->
<g id="edge15_Node000010_Node000004" class="edge">
<title>Node10&#45;&gt;Node4</title>
<g id="a_edge15_Node000010_Node000004"><a xlink:title=" ">
<path fill="none" stroke="#63b8ff" d="M1501.23,-55.75C1345.49,-38.78 1172.9,-21.09 1104.13,-14.1"/>
<polygon fill="#63b8ff" stroke="#63b8ff" points="1500.59,-59.2 1510.91,-56.8 1501.35,-52.24 1500.59,-59.2"/>
</a>
</g>
</g>
<!-- Node11&#45;&gt;Node4 -->
<g id="edge17_Node000011_Node000004" class="edge">
<title>Node11&#45;&gt;Node4</title>
<g id="a_edge17_Node000011_Node000004"><a xlink:title=" ">
<path fill="none" stroke="#63b8ff" d="M1658.57,-55.73C1439.99,-31.42 1189.54,-17.06 1103.99,-12.54"/>
<polygon fill="#63b8ff" stroke="#63b8ff" points="1658.11,-59.2 1668.44,-56.84 1658.89,-52.24 1658.11,-59.2"/>
</a>
</g>
</g>
<!-- Node12&#45;&gt;Node4 -->
<g id="edge19_Node000012_Node000004" class="edge">
<title>Node12&#45;&gt;Node4</title>
<g id="a_edge19_Node000012_Node000004"><a xlink:title=" ">
<path fill="none" stroke="#63b8ff" d="M1779.3,-55.84C1511.06,-32.34 1200.88,-16.93 1104.03,-12.39"/>
<polygon fill="#63b8ff" stroke="#63b8ff" points="1778.66,-59.29 1788.92,-56.69 1779.27,-52.32 1778.66,-59.29"/>
</a>
</g>
</g>
<!-- Node13&#45;&gt;Node4 -->
<g id="edge21_Node000013_Node000004" class="edge">
<title>Node13&#45;&gt;Node4</title>
<g id="a_edge21_Node000013_Node000004"><a xlink:title=" ">
<path fill="none" stroke="#63b8ff" d="M123.04,-55.87C491.67,-22.27 925.69,-13.33 1043.11,-11.44"/>
<polygon fill="#63b8ff" stroke="#63b8ff" points="122.75,-52.38 113.11,-56.78 123.39,-59.35 122.75,-52.38"/>
</a>
</g>
</g>
<!-- Node14&#45;&gt;Node4 -->
<g id="edge23_Node000014_Node000004" class="edge">
<title>Node14&#45;&gt;Node4</title>
<g id="a_edge23_Node000014_Node000004"><a xlink:title=" ">
<path fill="none" stroke="#63b8ff" d="M253.48,-55.8C568.13,-25.97 936.54,-14.58 1043.29,-11.75"/>
<polygon fill="#63b8ff" stroke="#63b8ff" points="253.44,-52.29 243.82,-56.72 254.11,-59.26 253.44,-52.29"/>
</a>
</g>
</g>
<!-- Node15&#45;&gt;Node4 -->
<g id="edge25_Node000015_Node000004" class="edge">
<title>Node15&#45;&gt;Node4</title>
<g id="a_edge25_Node000015_Node000004"><a xlink:title=" ">
<path fill="none" stroke="#63b8ff" d="M398.94,-55.73C653.98,-31.7 948.99,-16.82 1043.16,-12.39"/>
<polygon fill="#63b8ff" stroke="#63b8ff" points="398.72,-52.24 389.1,-56.67 399.39,-59.2 398.72,-52.24"/>
</a>
</g>
</g>
<!-- Node16&#45;&gt;Node4 -->
<g id="edge27_Node000016_Node000004" class="edge">
<title>Node16&#45;&gt;Node4</title>
<g id="a_edge27_Node000016_Node000004"><a xlink:title=" ">
<path fill="none" stroke="#63b8ff" d="M550.03,-55.79C744.26,-36.16 963.68,-19.22 1043.06,-13.27"/>
<polygon fill="#63b8ff" stroke="#63b8ff" points="549.85,-52.29 540.25,-56.78 550.56,-59.25 549.85,-52.29"/>
</a>
</g>
</g>
<!-- Node17&#45;&gt;Node4 -->
<g id="edge29_Node000017_Node000004" class="edge">
<title>Node17&#45;&gt;Node4</title>
<g id="a_edge29_Node000017_Node000004"><a xlink:title=" ">
<path fill="none" stroke="#63b8ff" d="M646.25,-55.72C801.09,-33.54 974.06,-18.81 1043.02,-13.34"/>
<polygon fill="#63b8ff" stroke="#63b8ff" points="646.03,-52.22 636.63,-57.11 647.03,-59.14 646.03,-52.22"/>
</a>
</g>
</g>
<!-- Node18&#45;&gt;Node4 -->
<g id="edge31_Node000018_Node000004" class="edge">
<title>Node18&#45;&gt;Node4</title>
<g id="a_edge31_Node000018_Node000004"><a xlink:title=" ">
<path fill="none" stroke="#63b8ff" d="M784.38,-54.27C863.43,-42.44 986.85,-23.98 1043.44,-15.52"/>
<polygon fill="#63b8ff" stroke="#63b8ff" points="783.92,-50.8 774.55,-55.74 784.95,-57.72 783.92,-50.8"/>
</a>
</g>
</g>
<!-- Node19&#45;&gt;Node4 -->
<g id="edge33_Node000019_Node000004" class="edge">
<title>Node19&#45;&gt;Node4</title>
<g id="a_edge33_Node000019_Node000004"><a xlink:title=" ">
<path fill="none" stroke="#63b8ff" d="M2043.22,-104.23C2023.78,-88.56 1992.28,-66.11 1960.62,-56 1877.63,-29.5 1249.88,-14.72 1103.89,-11.62"/>
<polygon fill="#63b8ff" stroke="#63b8ff" points="2040.88,-106.84 2050.81,-110.53 2045.35,-101.45 2040.88,-106.84"/>
</a>
</g>
</g>
<!-- Node20 -->
<g id="Node000020" class="node">
<title>Node20</title>
<g id="a_Node000020"><a xlink:href="a00341.html" target="_top" xlink:title=" ">
<polygon fill="white" stroke="#666666" points="2238.75,-76 2118.5,-76 2118.5,-56 2238.75,-56 2238.75,-76"/>
<text text-anchor="middle" x="2178.62" y="-62.5" font-family="Helvetica,sans-Serif" font-size="10.00">MiraiCPNewThread.cpp</text>
</a>
</g>
</g>
<!-- Node19&#45;&gt;Node20 -->
<g id="edge34_Node000019_Node000020" class="edge">
<title>Node19&#45;&gt;Node20</title>
<g id="a_edge34_Node000019_Node000020"><a xlink:title=" ">
<path fill="none" stroke="#63b8ff" d="M2093.25,-106.75C2113.79,-97.18 2140.27,-84.85 2158.26,-76.48"/>
<polygon fill="#63b8ff" stroke="#63b8ff" points="2091.79,-103.56 2084.2,-110.96 2094.75,-109.91 2091.79,-103.56"/>
</a>
</g>
</g>
<!-- Node21 -->
<g id="Node000021" class="node">
<title>Node21</title>
<g id="a_Node000021"><a xlink:href="a00359.html" target="_top" xlink:title=" ">
<polygon fill="white" stroke="#666666" points="2394,-76 2257.25,-76 2257.25,-56 2394,-56 2394,-76"/>
<text text-anchor="middle" x="2325.62" y="-62.5" font-family="Helvetica,sans-Serif" font-size="10.00">PluginAbstractInterface.cpp</text>
</a>
</g>
</g>
<!-- Node19&#45;&gt;Node21 -->
<g id="edge35_Node000019_Node000021" class="edge">
<title>Node19&#45;&gt;Node21</title>
<g id="a_edge35_Node000019_Node000021"><a xlink:title=" ">
<path fill="none" stroke="#63b8ff" d="M2098.64,-113.45C2101.01,-112.96 2103.35,-112.47 2105.62,-112 2165.56,-99.6 2234.73,-85.48 2279.26,-76.42"/>
<polygon fill="#63b8ff" stroke="#63b8ff" points="2098.19,-109.97 2089.11,-115.44 2099.62,-116.82 2098.19,-109.97"/>
</a>
</g>
</g>
<!-- Node22 -->
<g id="Node000022" class="node">
<title>Node22</title>
<g id="a_Node000022"><a xlink:href="a01500.html" target="_top" xlink:title=" ">
<polygon fill="white" stroke="#666666" points="2100.25,-76 2025,-76 2025,-56 2100.25,-56 2100.25,-76"/>
<text text-anchor="middle" x="2062.62" y="-62.5" font-family="Helvetica,sans-Serif" font-size="10.00">Schedule.cpp</text>
</a>
</g>
</g>
<!-- Node19&#45;&gt;Node22 -->
<g id="edge36_Node000019_Node000022" class="edge">
<title>Node19&#45;&gt;Node22</title>
<g id="a_edge36_Node000019_Node000022"><a xlink:title=" ">
<path fill="none" stroke="#63b8ff" d="M2062.62,-100.13C2062.62,-91.9 2062.62,-82.85 2062.62,-76.3"/>
<polygon fill="#63b8ff" stroke="#63b8ff" points="2059.13,-100.08 2062.63,-110.08 2066.13,-100.08 2059.13,-100.08"/>
</a>
</g>
</g>
<!-- Node23&#45;&gt;Node20 -->
<g id="edge38_Node000023_Node000020" class="edge">
<title>Node23&#45;&gt;Node20</title>
<g id="a_edge38_Node000023_Node000020"><a xlink:title=" ">
<path fill="none" stroke="#63b8ff" d="M2178.62,-100.13C2178.62,-91.9 2178.62,-82.85 2178.62,-76.3"/>
<polygon fill="#63b8ff" stroke="#63b8ff" points="2175.13,-100.08 2178.63,-110.08 2182.13,-100.08 2175.13,-100.08"/>
</a>
</g>
</g>
<!-- Node23&#45;&gt;Node21 -->
<g id="edge39_Node000023_Node000021" class="edge">
<title>Node23&#45;&gt;Node21</title>
<g id="a_edge39_Node000023_Node000021"><a xlink:title=" ">
<path fill="none" stroke="#63b8ff" d="M2214.93,-107.66C2241.28,-97.98 2276.29,-85.12 2299.82,-76.48"/>
<polygon fill="#63b8ff" stroke="#63b8ff" points="2213.83,-104.34 2205.65,-111.07 2216.24,-110.91 2213.83,-104.34"/>
</a>
</g>
</g>
<!-- Node24&#45;&gt;Node4 -->
<g id="edge41_Node000024_Node000004" class="edge">
<title>Node24&#45;&gt;Node4</title>
<g id="a_edge41_Node000024_Node000004"><a xlink:title=" ">
<path fill="none" stroke="#63b8ff" d="M1963.88,-100.31C1960.72,-85.38 1953.98,-66.13 1939.62,-56 1870.2,-7.01 1249.79,-9.43 1104.13,-10.68"/>
<polygon fill="#63b8ff" stroke="#63b8ff" points="1960.41,-100.77 1965.53,-110.05 1967.31,-99.61 1960.41,-100.77"/>
</a>
</g>
</g>
</g>
</svg>
