<?xml version="1.0" encoding="UTF-8" standalone="no"?>
<!DOCTYPE svg PUBLIC "-//W3C//DTD SVG 1.1//EN"
 "http://www.w3.org/Graphics/SVG/1.1/DTD/svg11.dtd">
<!-- Generated by graphviz version 2.50.0 (20211204.2007)
 -->
<!-- Title: eventHandle.cpp Pages: 1 -->
<svg width="890pt" height="420pt"
 viewBox="0.00 0.00 890.00 420.00" xmlns="http://www.w3.org/2000/svg" xmlns:xlink="http://www.w3.org/1999/xlink">
<g id="graph0" class="graph" transform="scale(1 1) rotate(0) translate(4 416)">
<title>eventHandle.cpp</title>
<polygon fill="white" stroke="transparent" points="-4,4 -4,-416 886,-416 886,4 -4,4"/>
<!-- Node1 -->
<g id="node1" class="node">
<title>Node1</title>
<g id="a_node1"><a xlink:title=" ">
<polygon fill="#bfbfbf" stroke="black" points="347.5,-392.5 347.5,-411.5 435.5,-411.5 435.5,-392.5 347.5,-392.5"/>
<text text-anchor="middle" x="391.5" y="-399.5" font-family="Helvetica,sans-Serif" font-size="10.00">eventHandle.cpp</text>
</a>
</g>
</g>
<!-- Node2 -->
<g id="node2" class="node">
<title>Node2</title>
<g id="a_node2"><a xlink:href="a00197.html" target="_top" xlink:title=" ">
<polygon fill="white" stroke="black" points="0,-112.5 0,-131.5 77,-131.5 77,-112.5 0,-112.5"/>
<text text-anchor="middle" x="38.5" y="-119.5" font-family="Helvetica,sans-Serif" font-size="10.00">eventHandle.h</text>
</a>
</g>
</g>
<!-- Node1&#45;&gt;Node2 -->
<g id="edge1" class="edge">
<title>Node1&#45;&gt;Node2</title>
<path fill="none" stroke="midnightblue" d="M347.31,-396.03C255.69,-384.49 53.5,-352.09 53.5,-291 53.5,-291 53.5,-291 53.5,-233 53.5,-200.5 46.99,-163.1 42.55,-141.34"/>
<polygon fill="midnightblue" stroke="midnightblue" points="45.96,-140.56 40.46,-131.5 39.11,-142.01 45.96,-140.56"/>
</g>
<!-- Node4 -->
<g id="node4" class="node">
<title>Node4</title>
<g id="a_node4"><a xlink:href="a00236.html" target="_top" xlink:title=" ">
<polygon fill="white" stroke="black" points="130,-224.5 130,-243.5 213,-243.5 213,-224.5 130,-224.5"/>
<text text-anchor="middle" x="171.5" y="-231.5" font-family="Helvetica,sans-Serif" font-size="10.00">LoaderLogger.h</text>
</a>
</g>
</g>
<!-- Node1&#45;&gt;Node4 -->
<g id="edge3" class="edge">
<title>Node1&#45;&gt;Node4</title>
<path fill="none" stroke="midnightblue" d="M373.1,-392.5C340.83,-377.04 272.84,-342 224.5,-300 208.09,-285.74 192.79,-266.01 182.89,-252.03"/>
<polygon fill="midnightblue" stroke="midnightblue" points="185.77,-250.04 177.21,-243.8 180.01,-254.02 185.77,-250.04"/>
</g>
<!-- Node8 -->
<g id="node8" class="node">
<title>Node8</title>
<g id="a_node8"><a xlink:href="a00263.html" target="_top" xlink:title=" ">
<polygon fill="white" stroke="black" points="365.5,-336.5 365.5,-355.5 417.5,-355.5 417.5,-336.5 365.5,-336.5"/>
<text text-anchor="middle" x="391.5" y="-343.5" font-family="Helvetica,sans-Serif" font-size="10.00">Plugin.h</text>
</a>
</g>
</g>
<!-- Node1&#45;&gt;Node8 -->
<g id="edge8" class="edge">
<title>Node1&#45;&gt;Node8</title>
<path fill="none" stroke="midnightblue" d="M391.5,-392.08C391.5,-385.01 391.5,-374.86 391.5,-365.99"/>
<polygon fill="midnightblue" stroke="midnightblue" points="395,-365.75 391.5,-355.75 388,-365.75 395,-365.75"/>
</g>
<!-- Node17 -->
<g id="node17" class="node">
<title>Node17</title>
<g id="a_node17"><a xlink:href="a00272.html" target="_top" xlink:title=" ">
<polygon fill="white" stroke="black" points="572,-336.5 572,-355.5 677,-355.5 677,-336.5 572,-336.5"/>
<text text-anchor="middle" x="624.5" y="-343.5" font-family="Helvetica,sans-Serif" font-size="10.00">PluginListManager.h</text>
</a>
</g>
</g>
<!-- Node1&#45;&gt;Node17 -->
<g id="edge25" class="edge">
<title>Node1&#45;&gt;Node17</title>
<path fill="none" stroke="midnightblue" d="M428.42,-392.44C468.9,-383.06 533.92,-367.99 577.88,-357.8"/>
<polygon fill="midnightblue" stroke="midnightblue" points="578.8,-361.18 587.75,-355.52 577.22,-354.36 578.8,-361.18"/>
</g>
<!-- Node21 -->
<g id="node21" class="node">
<title>Node21</title>
<g id="a_node21"><a xlink:title=" ">
<polygon fill="white" stroke="#bfbfbf" points="695,-336.5 695,-355.5 748,-355.5 748,-336.5 695,-336.5"/>
<text text-anchor="middle" x="721.5" y="-343.5" font-family="Helvetica,sans-Serif" font-size="10.00">json.hpp</text>
</a>
</g>
</g>
<!-- Node1&#45;&gt;Node21 -->
<g id="edge31" class="edge">
<title>Node1&#45;&gt;Node21</title>
<path fill="none" stroke="midnightblue" d="M435.73,-395.66C491.66,-388.6 591.09,-375.01 684.88,-356.18"/>
<polygon fill="midnightblue" stroke="midnightblue" points="685.71,-359.58 694.81,-354.16 684.31,-352.72 685.71,-359.58"/>
</g>
<!-- Node3 -->
<g id="node3" class="node">
<title>Node3</title>
<g id="a_node3"><a xlink:title=" ">
<polygon fill="white" stroke="#bfbfbf" points="221,-56.5 221,-75.5 262,-75.5 262,-56.5 221,-56.5"/>
<text text-anchor="middle" x="241.5" y="-63.5" font-family="Helvetica,sans-Serif" font-size="10.00">string</text>
</a>
</g>
</g>
<!-- Node2&#45;&gt;Node3 -->
<g id="edge2" class="edge">
<title>Node2&#45;&gt;Node3</title>
<path fill="none" stroke="midnightblue" d="M70.67,-112.44C109.19,-102.2 173.25,-85.16 211.01,-75.11"/>
<polygon fill="midnightblue" stroke="midnightblue" points="212.16,-78.43 220.92,-72.47 210.36,-71.66 212.16,-78.43"/>
</g>
<!-- Node4&#45;&gt;Node3 -->
<g id="edge6" class="edge">
<title>Node4&#45;&gt;Node3</title>
<path fill="none" stroke="midnightblue" d="M159.29,-224.24C149.15,-216.14 135.46,-203.11 129.5,-188 117.11,-156.58 110.58,-139.98 129.5,-112 147.53,-85.33 184.24,-74.47 210.73,-70.04"/>
<polygon fill="midnightblue" stroke="midnightblue" points="211.28,-73.5 220.67,-68.59 210.27,-66.57 211.28,-73.5"/>
</g>
<!-- Node5 -->
<g id="node5" class="node">
<title>Node5</title>
<g id="a_node5"><a xlink:href="a00044.html" target="_top" xlink:title=" ">
<polygon fill="white" stroke="black" points="311.5,-56.5 311.5,-75.5 403.5,-75.5 403.5,-56.5 311.5,-56.5"/>
<text text-anchor="middle" x="357.5" y="-63.5" font-family="Helvetica,sans-Serif" font-size="10.00">MiraiCPMacros.h</text>
</a>
</g>
</g>
<!-- Node4&#45;&gt;Node5 -->
<g id="edge4" class="edge">
<title>Node4&#45;&gt;Node5</title>
<path fill="none" stroke="midnightblue" d="M166.98,-224.29C160.82,-211.09 151.73,-185.71 162.5,-168 193.23,-117.47 258.32,-91.09 304.84,-78.15"/>
<polygon fill="midnightblue" stroke="midnightblue" points="305.99,-81.47 314.76,-75.52 304.19,-74.7 305.99,-81.47"/>
</g>
<!-- Node7 -->
<g id="node7" class="node">
<title>Node7</title>
<g id="a_node7"><a xlink:title=" ">
<polygon fill="white" stroke="#bfbfbf" points="171.5,-168.5 171.5,-187.5 213.5,-187.5 213.5,-168.5 171.5,-168.5"/>
<text text-anchor="middle" x="192.5" y="-175.5" font-family="Helvetica,sans-Serif" font-size="10.00">vector</text>
</a>
</g>
</g>
<!-- Node4&#45;&gt;Node7 -->
<g id="edge7" class="edge">
<title>Node4&#45;&gt;Node7</title>
<path fill="none" stroke="midnightblue" d="M174.97,-224.08C177.81,-216.77 181.93,-206.18 185.46,-197.1"/>
<polygon fill="midnightblue" stroke="midnightblue" points="188.73,-198.34 189.1,-187.75 182.21,-195.8 188.73,-198.34"/>
</g>
<!-- Node6 -->
<g id="node6" class="node">
<title>Node6</title>
<g id="a_node6"><a xlink:title=" ">
<polygon fill="white" stroke="#bfbfbf" points="378,-0.5 378,-19.5 427,-19.5 427,-0.5 378,-0.5"/>
<text text-anchor="middle" x="402.5" y="-7.5" font-family="Helvetica,sans-Serif" font-size="10.00">cassert</text>
</a>
</g>
</g>
<!-- Node5&#45;&gt;Node6 -->
<g id="edge5" class="edge">
<title>Node5&#45;&gt;Node6</title>
<path fill="none" stroke="midnightblue" d="M364.93,-56.08C371.35,-48.38 380.81,-37.03 388.62,-27.65"/>
<polygon fill="midnightblue" stroke="midnightblue" points="391.49,-29.67 395.21,-19.75 386.12,-25.19 391.49,-29.67"/>
</g>
<!-- Node8&#45;&gt;Node3 -->
<g id="edge24" class="edge">
<title>Node8&#45;&gt;Node3</title>
<path fill="none" stroke="midnightblue" d="M365.48,-344.4C334.32,-342.13 283.15,-333.21 257.5,-300 207.67,-235.49 226.24,-128.61 236.51,-85.69"/>
<polygon fill="midnightblue" stroke="midnightblue" points="239.95,-86.34 239,-75.79 233.16,-84.63 239.95,-86.34"/>
</g>
<!-- Node9 -->
<g id="node9" class="node">
<title>Node9</title>
<g id="a_node9"><a xlink:href="a00266.html" target="_top" xlink:title=" ">
<polygon fill="white" stroke="black" points="266.5,-280.5 266.5,-299.5 338.5,-299.5 338.5,-280.5 266.5,-280.5"/>
<text text-anchor="middle" x="302.5" y="-287.5" font-family="Helvetica,sans-Serif" font-size="10.00">PluginData.h</text>
</a>
</g>
</g>
<!-- Node8&#45;&gt;Node9 -->
<g id="edge9" class="edge">
<title>Node8&#45;&gt;Node9</title>
<path fill="none" stroke="midnightblue" d="M377.2,-336.32C363.32,-327.9 342.01,-314.97 325.7,-305.07"/>
<polygon fill="midnightblue" stroke="midnightblue" points="327.13,-301.85 316.76,-299.65 323.5,-307.83 327.13,-301.85"/>
</g>
<!-- Node10 -->
<g id="node10" class="node">
<title>Node10</title>
<g id="a_node10"><a xlink:href="a00173.html" target="_top" xlink:title=" ">
<polygon fill="white" stroke="black" points="319,-224.5 319,-243.5 408,-243.5 408,-224.5 319,-224.5"/>
<text text-anchor="middle" x="363.5" y="-231.5" font-family="Helvetica,sans-Serif" font-size="10.00">commonTypes.h</text>
</a>
</g>
</g>
<!-- Node8&#45;&gt;Node10 -->
<g id="edge20" class="edge">
<title>Node8&#45;&gt;Node10</title>
<path fill="none" stroke="midnightblue" d="M389.3,-336.37C384.78,-318.62 374.36,-277.67 368.23,-253.6"/>
<polygon fill="midnightblue" stroke="midnightblue" points="371.55,-252.42 365.69,-243.59 364.76,-254.15 371.55,-252.42"/>
</g>
<!-- Node14 -->
<g id="node14" class="node">
<title>Node14</title>
<g id="a_node14"><a xlink:title=" ">
<polygon fill="white" stroke="#bfbfbf" points="394.5,-280.5 394.5,-299.5 440.5,-299.5 440.5,-280.5 394.5,-280.5"/>
<text text-anchor="middle" x="417.5" y="-287.5" font-family="Helvetica,sans-Serif" font-size="10.00">atomic</text>
</a>
</g>
</g>
<!-- Node8&#45;&gt;Node14 -->
<g id="edge21" class="edge">
<title>Node8&#45;&gt;Node14</title>
<path fill="none" stroke="midnightblue" d="M395.79,-336.08C399.35,-328.69 404.52,-317.95 408.92,-308.81"/>
<polygon fill="midnightblue" stroke="midnightblue" points="412.1,-310.28 413.29,-299.75 405.79,-307.24 412.1,-310.28"/>
</g>
<!-- Node15 -->
<g id="node15" class="node">
<title>Node15</title>
<g id="a_node15"><a xlink:title=" ">
<polygon fill="white" stroke="#bfbfbf" points="459,-280.5 459,-299.5 500,-299.5 500,-280.5 459,-280.5"/>
<text text-anchor="middle" x="479.5" y="-287.5" font-family="Helvetica,sans-Serif" font-size="10.00">future</text>
</a>
</g>
</g>
<!-- Node8&#45;&gt;Node15 -->
<g id="edge22" class="edge">
<title>Node8&#45;&gt;Node15</title>
<path fill="none" stroke="midnightblue" d="M405.64,-336.32C419.37,-327.9 440.44,-314.97 456.56,-305.07"/>
<polygon fill="midnightblue" stroke="midnightblue" points="458.7,-307.87 465.4,-299.65 455.04,-301.9 458.7,-307.87"/>
</g>
<!-- Node16 -->
<g id="node16" class="node">
<title>Node16</title>
<g id="a_node16"><a xlink:title=" ">
<polygon fill="white" stroke="#bfbfbf" points="518.5,-280.5 518.5,-299.5 596.5,-299.5 596.5,-280.5 518.5,-280.5"/>
<text text-anchor="middle" x="557.5" y="-287.5" font-family="Helvetica,sans-Serif" font-size="10.00">shared_mutex</text>
</a>
</g>
</g>
<!-- Node8&#45;&gt;Node16 -->
<g id="edge23" class="edge">
<title>Node8&#45;&gt;Node16</title>
<path fill="none" stroke="midnightblue" d="M417.8,-336.44C445.85,-327.32 490.44,-312.81 521.68,-302.65"/>
<polygon fill="midnightblue" stroke="midnightblue" points="522.89,-305.94 531.32,-299.52 520.73,-299.28 522.89,-305.94"/>
</g>
<!-- Node9&#45;&gt;Node4 -->
<g id="edge10" class="edge">
<title>Node9&#45;&gt;Node4</title>
<path fill="none" stroke="midnightblue" d="M281.74,-280.44C260.18,-271.56 226.24,-257.56 201.71,-247.45"/>
<polygon fill="midnightblue" stroke="midnightblue" points="202.74,-244.09 192.16,-243.52 200.07,-250.56 202.74,-244.09"/>
</g>
<!-- Node9&#45;&gt;Node10 -->
<g id="edge11" class="edge">
<title>Node9&#45;&gt;Node10</title>
<path fill="none" stroke="midnightblue" d="M312.3,-280.32C321.32,-272.34 334.91,-260.31 345.82,-250.65"/>
<polygon fill="midnightblue" stroke="midnightblue" points="348.35,-253.08 353.52,-243.83 343.71,-247.84 348.35,-253.08"/>
</g>
<!-- Node10&#45;&gt;Node5 -->
<g id="edge12" class="edge">
<title>Node10&#45;&gt;Node5</title>
<path fill="none" stroke="midnightblue" d="M355.58,-224.4C341.05,-207.95 310.61,-170.28 299.5,-132 297.02,-123.46 295.59,-119.98 299.5,-112 306.02,-98.68 318.6,-88.18 330.37,-80.68"/>
<polygon fill="midnightblue" stroke="midnightblue" points="332.27,-83.62 339.11,-75.53 328.72,-77.59 332.27,-83.62"/>
</g>
<!-- Node11 -->
<g id="node11" class="node">
<title>Node11</title>
<g id="a_node11"><a xlink:href="a00047.html" target="_top" xlink:title=" ">
<polygon fill="white" stroke="black" points="308,-112.5 308,-131.5 387,-131.5 387,-112.5 308,-112.5"/>
<text text-anchor="middle" x="347.5" y="-119.5" font-family="Helvetica,sans-Serif" font-size="10.00">PluginConfig.h</text>
</a>
</g>
</g>
<!-- Node10&#45;&gt;Node11 -->
<g id="edge13" class="edge">
<title>Node10&#45;&gt;Node11</title>
<path fill="none" stroke="midnightblue" d="M362.24,-224.37C359.66,-206.62 353.71,-165.67 350.21,-141.6"/>
<polygon fill="midnightblue" stroke="midnightblue" points="353.65,-140.98 348.75,-131.59 346.73,-141.99 353.65,-140.98"/>
</g>
<!-- Node12 -->
<g id="node12" class="node">
<title>Node12</title>
<g id="a_node12"><a xlink:href="a00176.html" target="_top" xlink:title=" ">
<polygon fill="white" stroke="black" points="405,-168.5 405,-187.5 502,-187.5 502,-168.5 405,-168.5"/>
<text text-anchor="middle" x="453.5" y="-175.5" font-family="Helvetica,sans-Serif" font-size="10.00">loaderApiInternal.h</text>
</a>
</g>
</g>
<!-- Node10&#45;&gt;Node12 -->
<g id="edge15" class="edge">
<title>Node10&#45;&gt;Node12</title>
<path fill="none" stroke="midnightblue" d="M377.96,-224.32C392,-215.9 413.55,-202.97 430.04,-193.07"/>
<polygon fill="midnightblue" stroke="midnightblue" points="432.3,-195.8 439.08,-187.65 428.7,-189.8 432.3,-195.8"/>
</g>
<!-- Node11&#45;&gt;Node3 -->
<g id="edge14" class="edge">
<title>Node11&#45;&gt;Node3</title>
<path fill="none" stroke="midnightblue" d="M330.47,-112.32C313.47,-103.66 287.12,-90.24 267.51,-80.25"/>
<polygon fill="midnightblue" stroke="midnightblue" points="268.99,-77.08 258.49,-75.65 265.81,-83.31 268.99,-77.08"/>
</g>
<!-- Node13 -->
<g id="node13" class="node">
<title>Node13</title>
<g id="a_node13"><a xlink:href="a00182.html" target="_top" xlink:title=" ">
<polygon fill="white" stroke="black" points="405.5,-112.5 405.5,-131.5 521.5,-131.5 521.5,-112.5 405.5,-112.5"/>
<text text-anchor="middle" x="463.5" y="-119.5" font-family="Helvetica,sans-Serif" font-size="10.00">MiraiCPStringInternal.h</text>
</a>
</g>
</g>
<!-- Node12&#45;&gt;Node13 -->
<g id="edge16" class="edge">
<title>Node12&#45;&gt;Node13</title>
<path fill="none" stroke="midnightblue" d="M455.15,-168.08C456.48,-160.93 458.38,-150.64 460.04,-141.69"/>
<polygon fill="midnightblue" stroke="midnightblue" points="463.5,-142.22 461.88,-131.75 456.62,-140.95 463.5,-142.22"/>
</g>
<!-- Node13&#45;&gt;Node3 -->
<g id="edge19" class="edge">
<title>Node13&#45;&gt;Node3</title>
<path fill="none" stroke="midnightblue" d="M428.32,-112.44C385.25,-101.97 312.99,-84.39 272.11,-74.45"/>
<polygon fill="midnightblue" stroke="midnightblue" points="272.73,-70.99 262.19,-72.03 271.07,-77.8 272.73,-70.99"/>
</g>
<!-- Node13&#45;&gt;Node5 -->
<g id="edge17" class="edge">
<title>Node13&#45;&gt;Node5</title>
<path fill="none" stroke="midnightblue" d="M446.47,-112.32C429.47,-103.66 403.12,-90.24 383.51,-80.25"/>
<polygon fill="midnightblue" stroke="midnightblue" points="384.99,-77.08 374.49,-75.65 381.81,-83.31 384.99,-77.08"/>
</g>
<!-- Node13&#45;&gt;Node6 -->
<g id="edge18" class="edge">
<title>Node13&#45;&gt;Node6</title>
<path fill="none" stroke="midnightblue" d="M458.71,-112.37C448.74,-94.38 425.54,-52.55 412.27,-28.63"/>
<polygon fill="midnightblue" stroke="midnightblue" points="415.17,-26.64 407.26,-19.59 409.05,-30.03 415.17,-26.64"/>
</g>
<!-- Node17&#45;&gt;Node10 -->
<g id="edge26" class="edge">
<title>Node17&#45;&gt;Node10</title>
<path fill="none" stroke="midnightblue" d="M624.65,-336.37C624.4,-322.33 621.72,-294.67 605.5,-280 578.59,-255.67 480.91,-243.82 418.19,-238.59"/>
<polygon fill="midnightblue" stroke="midnightblue" points="418.3,-235.09 408.05,-237.78 417.74,-242.07 418.3,-235.09"/>
</g>
<!-- Node17&#45;&gt;Node16 -->
<g id="edge29" class="edge">
<title>Node17&#45;&gt;Node16</title>
<path fill="none" stroke="midnightblue" d="M613.74,-336.32C603.73,-328.26 588.61,-316.08 576.57,-306.37"/>
<polygon fill="midnightblue" stroke="midnightblue" points="578.44,-303.38 568.46,-299.83 574.05,-308.83 578.44,-303.38"/>
</g>
<!-- Node18 -->
<g id="node18" class="node">
<title>Node18</title>
<g id="a_node18"><a xlink:title=" ">
<polygon fill="white" stroke="#bfbfbf" points="652.5,-280.5 652.5,-299.5 710.5,-299.5 710.5,-280.5 652.5,-280.5"/>
<text text-anchor="middle" x="681.5" y="-287.5" font-family="Helvetica,sans-Serif" font-size="10.00">functional</text>
</a>
</g>
</g>
<!-- Node17&#45;&gt;Node18 -->
<g id="edge27" class="edge">
<title>Node17&#45;&gt;Node18</title>
<path fill="none" stroke="midnightblue" d="M633.66,-336.32C642,-328.42 654.53,-316.55 664.68,-306.94"/>
<polygon fill="midnightblue" stroke="midnightblue" points="667.32,-309.25 672.18,-299.83 662.51,-304.17 667.32,-309.25"/>
</g>
<!-- Node19 -->
<g id="node19" class="node">
<title>Node19</title>
<g id="a_node19"><a xlink:title=" ">
<polygon fill="white" stroke="#bfbfbf" points="728.5,-280.5 728.5,-299.5 780.5,-299.5 780.5,-280.5 728.5,-280.5"/>
<text text-anchor="middle" x="754.5" y="-287.5" font-family="Helvetica,sans-Serif" font-size="10.00">memory</text>
</a>
</g>
</g>
<!-- Node17&#45;&gt;Node19 -->
<g id="edge28" class="edge">
<title>Node17&#45;&gt;Node19</title>
<path fill="none" stroke="midnightblue" d="M645.1,-336.44C666.49,-327.56 700.18,-313.56 724.52,-303.45"/>
<polygon fill="midnightblue" stroke="midnightblue" points="726.11,-306.58 734,-299.52 723.42,-300.12 726.11,-306.58"/>
</g>
<!-- Node20 -->
<g id="node20" class="node">
<title>Node20</title>
<g id="a_node20"><a xlink:title=" ">
<polygon fill="white" stroke="#bfbfbf" points="799,-280.5 799,-299.5 882,-299.5 882,-280.5 799,-280.5"/>
<text text-anchor="middle" x="840.5" y="-287.5" font-family="Helvetica,sans-Serif" font-size="10.00">unordered_map</text>
</a>
</g>
</g>
<!-- Node17&#45;&gt;Node20 -->
<g id="edge30" class="edge">
<title>Node17&#45;&gt;Node20</title>
<path fill="none" stroke="midnightblue" d="M658.73,-336.44C696.01,-327.12 755.77,-312.18 796.51,-302"/>
<polygon fill="midnightblue" stroke="midnightblue" points="797.58,-305.34 806.43,-299.52 795.88,-298.55 797.58,-305.34"/>
</g>
</g>
</svg>
