<?xml version="1.0" encoding="UTF-8" standalone="no"?>
<!DOCTYPE svg PUBLIC "-//W3C//DTD SVG 1.1//EN"
 "http://www.w3.org/Graphics/SVG/1.1/DTD/svg11.dtd">
<!-- Generated by graphviz version 2.50.0 (20211204.2007)
 -->
<!-- Title: MessageChain.h Pages: 1 -->
<svg width="684pt" height="252pt"
 viewBox="0.00 0.00 683.57 252.00" xmlns="http://www.w3.org/2000/svg" xmlns:xlink="http://www.w3.org/1999/xlink">
<g id="graph0" class="graph" transform="scale(1 1) rotate(0) translate(4 248)">
<title>MessageChain.h</title>
<polygon fill="white" stroke="transparent" points="-4,4 -4,-248 679.57,-248 679.57,4 -4,4"/>
<!-- Node1 -->
<g id="node1" class="node">
<title>Node1</title>
<g id="a_node1"><a xlink:title=" ">
<polygon fill="#bfbfbf" stroke="black" points="223.57,-224.5 223.57,-243.5 312.57,-243.5 312.57,-224.5 223.57,-224.5"/>
<text text-anchor="middle" x="268.07" y="-231.5" font-family="Helvetica,sans-Serif" font-size="10.00">MessageChain.h</text>
</a>
</g>
</g>
<!-- Node2 -->
<g id="node2" class="node">
<title>Node2</title>
<g id="a_node2"><a xlink:href="a00044.html" target="_top" xlink:title=" ">
<polygon fill="white" stroke="black" points="179.07,-56.5 179.07,-75.5 271.07,-75.5 271.07,-56.5 179.07,-56.5"/>
<text text-anchor="middle" x="225.07" y="-63.5" font-family="Helvetica,sans-Serif" font-size="10.00">MiraiCPMacros.h</text>
</a>
</g>
</g>
<!-- Node1&#45;&gt;Node2 -->
<g id="edge1" class="edge">
<title>Node1&#45;&gt;Node2</title>
<path fill="none" stroke="midnightblue" d="M223.53,-230.65C162.18,-224.74 53.66,-204.06 4.07,-132 -0.97,-124.68 -1.55,-118.88 4.07,-112 24.46,-87.04 110.01,-75.57 168.49,-70.57"/>
<polygon fill="midnightblue" stroke="midnightblue" points="169.03,-74.04 178.71,-69.73 168.46,-67.06 169.03,-74.04"/>
</g>
<!-- Node4 -->
<g id="node4" class="node">
<title>Node4</title>
<g id="a_node4"><a xlink:href="a00161.html" target="_top" xlink:title=" ">
<polygon fill="white" stroke="black" points="222.07,-168.5 222.07,-187.5 314.07,-187.5 314.07,-168.5 222.07,-168.5"/>
<text text-anchor="middle" x="268.07" y="-175.5" font-family="Helvetica,sans-Serif" font-size="10.00">SingleMessage.h</text>
</a>
</g>
</g>
<!-- Node1&#45;&gt;Node4 -->
<g id="edge3" class="edge">
<title>Node1&#45;&gt;Node4</title>
<path fill="none" stroke="midnightblue" d="M268.07,-224.08C268.07,-217.01 268.07,-206.86 268.07,-197.99"/>
<polygon fill="midnightblue" stroke="midnightblue" points="271.57,-197.75 268.07,-187.75 264.57,-197.75 271.57,-197.75"/>
</g>
<!-- Node15 -->
<g id="node15" class="node">
<title>Node15</title>
<g id="a_node15"><a xlink:title=" ">
<polygon fill="white" stroke="#bfbfbf" points="332.07,-168.5 332.07,-187.5 390.07,-187.5 390.07,-168.5 332.07,-168.5"/>
<text text-anchor="middle" x="361.07" y="-175.5" font-family="Helvetica,sans-Serif" font-size="10.00">functional</text>
</a>
</g>
</g>
<!-- Node1&#45;&gt;Node15 -->
<g id="edge19" class="edge">
<title>Node1&#45;&gt;Node15</title>
<path fill="none" stroke="midnightblue" d="M283.01,-224.32C297.66,-215.82 320.21,-202.73 337.31,-192.8"/>
<polygon fill="midnightblue" stroke="midnightblue" points="339.28,-195.7 346.17,-187.65 335.76,-189.65 339.28,-195.7"/>
</g>
<!-- Node3 -->
<g id="node3" class="node">
<title>Node3</title>
<g id="a_node3"><a xlink:title=" ">
<polygon fill="white" stroke="#bfbfbf" points="200.57,-0.5 200.57,-19.5 249.57,-19.5 249.57,-0.5 200.57,-0.5"/>
<text text-anchor="middle" x="225.07" y="-7.5" font-family="Helvetica,sans-Serif" font-size="10.00">cassert</text>
</a>
</g>
</g>
<!-- Node2&#45;&gt;Node3 -->
<g id="edge2" class="edge">
<title>Node2&#45;&gt;Node3</title>
<path fill="none" stroke="midnightblue" d="M225.07,-56.08C225.07,-49.01 225.07,-38.86 225.07,-29.99"/>
<polygon fill="midnightblue" stroke="midnightblue" points="228.57,-29.75 225.07,-19.75 221.57,-29.75 228.57,-29.75"/>
</g>
<!-- Node4&#45;&gt;Node2 -->
<g id="edge4" class="edge">
<title>Node4&#45;&gt;Node2</title>
<path fill="none" stroke="midnightblue" d="M221.87,-175.55C156.66,-172.42 42.67,-162.6 17.07,-132 -26.46,-79.97 93.04,-68.94 168.54,-67"/>
<polygon fill="midnightblue" stroke="midnightblue" points="168.96,-70.49 178.88,-66.78 168.81,-63.49 168.96,-70.49"/>
</g>
<!-- Node5 -->
<g id="node5" class="node">
<title>Node5</title>
<g id="a_node5"><a xlink:href="a00146.html" target="_top" xlink:title=" ">
<polygon fill="white" stroke="black" points="558.57,-112.5 558.57,-131.5 653.57,-131.5 653.57,-112.5 558.57,-112.5"/>
<text text-anchor="middle" x="606.07" y="-119.5" font-family="Helvetica,sans-Serif" font-size="10.00">MessageSource.h</text>
</a>
</g>
</g>
<!-- Node4&#45;&gt;Node5 -->
<g id="edge5" class="edge">
<title>Node4&#45;&gt;Node5</title>
<path fill="none" stroke="midnightblue" d="M314.28,-169.42C317.26,-168.94 320.21,-168.46 323.07,-168 365.32,-161.18 478.59,-143.21 548.35,-132.15"/>
<polygon fill="midnightblue" stroke="midnightblue" points="548.98,-135.59 558.31,-130.57 547.89,-128.68 548.98,-135.59"/>
</g>
<!-- Node6 -->
<g id="node6" class="node">
<title>Node6</title>
<g id="a_node6"><a xlink:href="a00158.html" target="_top" xlink:title=" ">
<polygon fill="white" stroke="black" points="612.57,-56.5 612.57,-75.5 675.57,-75.5 675.57,-56.5 612.57,-56.5"/>
<text text-anchor="middle" x="644.07" y="-63.5" font-family="Helvetica,sans-Serif" font-size="10.00">SdkType.h</text>
</a>
</g>
</g>
<!-- Node4&#45;&gt;Node6 -->
<g id="edge12" class="edge">
<title>Node4&#45;&gt;Node6</title>
<path fill="none" stroke="midnightblue" d="M314.26,-169.25C317.24,-168.81 320.19,-168.39 323.07,-168 398.37,-157.86 612.25,-188.48 663.07,-132 674.94,-118.81 666.21,-98.58 657.04,-84.19"/>
<polygon fill="midnightblue" stroke="midnightblue" points="659.74,-81.94 651.17,-75.72 653.99,-85.93 659.74,-81.94"/>
</g>
<!-- Node8 -->
<g id="node8" class="node">
<title>Node8</title>
<g id="a_node8"><a xlink:href="a00149.html" target="_top" xlink:title=" ">
<polygon fill="white" stroke="black" points="472.07,-112.5 472.07,-131.5 540.07,-131.5 540.07,-112.5 472.07,-112.5"/>
<text text-anchor="middle" x="506.07" y="-119.5" font-family="Helvetica,sans-Serif" font-size="10.00">MiraiCode.h</text>
</a>
</g>
</g>
<!-- Node4&#45;&gt;Node8 -->
<g id="edge9" class="edge">
<title>Node4&#45;&gt;Node8</title>
<path fill="none" stroke="midnightblue" d="M305.78,-168.44C348.22,-158.81 417.08,-143.19 461.98,-133"/>
<polygon fill="midnightblue" stroke="midnightblue" points="463.03,-136.36 472.01,-130.73 461.48,-129.53 463.03,-136.36"/>
</g>
<!-- Node9 -->
<g id="node9" class="node">
<title>Node9</title>
<g id="a_node9"><a xlink:title=" ">
<polygon fill="white" stroke="#bfbfbf" points="26.07,-112.5 26.07,-131.5 64.07,-131.5 64.07,-112.5 26.07,-112.5"/>
<text text-anchor="middle" x="45.07" y="-119.5" font-family="Helvetica,sans-Serif" font-size="10.00">array</text>
</a>
</g>
</g>
<!-- Node4&#45;&gt;Node9 -->
<g id="edge13" class="edge">
<title>Node4&#45;&gt;Node9</title>
<path fill="none" stroke="midnightblue" d="M226.35,-168.44C188.79,-160.49 131.89,-147.87 73.97,-132.08"/>
<polygon fill="midnightblue" stroke="midnightblue" points="74.86,-128.69 64.29,-129.41 73,-135.44 74.86,-128.69"/>
</g>
<!-- Node10 -->
<g id="node10" class="node">
<title>Node10</title>
<g id="a_node10"><a xlink:title=" ">
<polygon fill="white" stroke="#bfbfbf" points="82.57,-112.5 82.57,-131.5 155.57,-131.5 155.57,-112.5 82.57,-112.5"/>
<text text-anchor="middle" x="119.07" y="-119.5" font-family="Helvetica,sans-Serif" font-size="10.00">json_fwd.hpp</text>
</a>
</g>
</g>
<!-- Node4&#45;&gt;Node10 -->
<g id="edge14" class="edge">
<title>Node4&#45;&gt;Node10</title>
<path fill="none" stroke="midnightblue" d="M244.46,-168.44C219.61,-159.44 180.3,-145.19 152.32,-135.05"/>
<polygon fill="midnightblue" stroke="midnightblue" points="153.16,-131.63 142.57,-131.52 150.78,-138.21 153.16,-131.63"/>
</g>
<!-- Node11 -->
<g id="node11" class="node">
<title>Node11</title>
<g id="a_node11"><a xlink:title=" ">
<polygon fill="white" stroke="#bfbfbf" points="174.07,-112.5 174.07,-131.5 224.07,-131.5 224.07,-112.5 174.07,-112.5"/>
<text text-anchor="middle" x="199.07" y="-119.5" font-family="Helvetica,sans-Serif" font-size="10.00">optional</text>
</a>
</g>
</g>
<!-- Node4&#45;&gt;Node11 -->
<g id="edge15" class="edge">
<title>Node4&#45;&gt;Node11</title>
<path fill="none" stroke="midnightblue" d="M256.99,-168.32C246.59,-160.18 230.81,-147.84 218.35,-138.09"/>
<polygon fill="midnightblue" stroke="midnightblue" points="220.39,-135.24 210.36,-131.83 216.08,-140.75 220.39,-135.24"/>
</g>
<!-- Node12 -->
<g id="node12" class="node">
<title>Node12</title>
<g id="a_node12"><a xlink:title=" ">
<polygon fill="white" stroke="#bfbfbf" points="242.07,-112.5 242.07,-131.5 294.07,-131.5 294.07,-112.5 242.07,-112.5"/>
<text text-anchor="middle" x="268.07" y="-119.5" font-family="Helvetica,sans-Serif" font-size="10.00">sstream</text>
</a>
</g>
</g>
<!-- Node4&#45;&gt;Node12 -->
<g id="edge16" class="edge">
<title>Node4&#45;&gt;Node12</title>
<path fill="none" stroke="midnightblue" d="M268.07,-168.08C268.07,-161.01 268.07,-150.86 268.07,-141.99"/>
<polygon fill="midnightblue" stroke="midnightblue" points="271.57,-141.75 268.07,-131.75 264.57,-141.75 271.57,-141.75"/>
</g>
<!-- Node13 -->
<g id="node13" class="node">
<title>Node13</title>
<g id="a_node13"><a xlink:title=" ">
<polygon fill="white" stroke="#bfbfbf" points="312.57,-112.5 312.57,-131.5 395.57,-131.5 395.57,-112.5 312.57,-112.5"/>
<text text-anchor="middle" x="354.07" y="-119.5" font-family="Helvetica,sans-Serif" font-size="10.00">unordered_map</text>
</a>
</g>
</g>
<!-- Node4&#45;&gt;Node13 -->
<g id="edge17" class="edge">
<title>Node4&#45;&gt;Node13</title>
<path fill="none" stroke="midnightblue" d="M281.89,-168.32C295.3,-159.9 315.9,-146.97 331.66,-137.07"/>
<polygon fill="midnightblue" stroke="midnightblue" points="333.68,-139.94 340.29,-131.65 329.96,-134.01 333.68,-139.94"/>
</g>
<!-- Node14 -->
<g id="node14" class="node">
<title>Node14</title>
<g id="a_node14"><a xlink:title=" ">
<polygon fill="white" stroke="#bfbfbf" points="414.07,-112.5 414.07,-131.5 454.07,-131.5 454.07,-112.5 414.07,-112.5"/>
<text text-anchor="middle" x="434.07" y="-119.5" font-family="Helvetica,sans-Serif" font-size="10.00">utility</text>
</a>
</g>
</g>
<!-- Node4&#45;&gt;Node14 -->
<g id="edge18" class="edge">
<title>Node4&#45;&gt;Node14</title>
<path fill="none" stroke="midnightblue" d="M294.37,-168.44C324.11,-158.77 372.44,-143.05 403.74,-132.87"/>
<polygon fill="midnightblue" stroke="midnightblue" points="405.22,-136.07 413.65,-129.64 403.06,-129.41 405.22,-136.07"/>
</g>
<!-- Node5&#45;&gt;Node2 -->
<g id="edge6" class="edge">
<title>Node5&#45;&gt;Node2</title>
<path fill="none" stroke="midnightblue" d="M558.5,-113.42C555.31,-112.93 552.14,-112.46 549.07,-112 455.22,-98.08 345.88,-83.16 281.24,-74.48"/>
<polygon fill="midnightblue" stroke="midnightblue" points="281.63,-71 271.25,-73.14 280.7,-77.94 281.63,-71"/>
</g>
<!-- Node5&#45;&gt;Node6 -->
<g id="edge7" class="edge">
<title>Node5&#45;&gt;Node6</title>
<path fill="none" stroke="midnightblue" d="M612.35,-112.08C617.71,-104.46 625.59,-93.26 632.15,-83.94"/>
<polygon fill="midnightblue" stroke="midnightblue" points="635.02,-85.94 637.91,-75.75 629.3,-81.91 635.02,-85.94"/>
</g>
<!-- Node7 -->
<g id="node7" class="node">
<title>Node7</title>
<g id="a_node7"><a xlink:title=" ">
<polygon fill="white" stroke="#bfbfbf" points="500.57,-56.5 500.57,-75.5 541.57,-75.5 541.57,-56.5 500.57,-56.5"/>
<text text-anchor="middle" x="521.07" y="-63.5" font-family="Helvetica,sans-Serif" font-size="10.00">string</text>
</a>
</g>
</g>
<!-- Node5&#45;&gt;Node7 -->
<g id="edge8" class="edge">
<title>Node5&#45;&gt;Node7</title>
<path fill="none" stroke="midnightblue" d="M592.41,-112.32C579.16,-103.9 558.8,-90.97 543.23,-81.07"/>
<polygon fill="midnightblue" stroke="midnightblue" points="545.01,-78.06 534.69,-75.65 541.26,-83.97 545.01,-78.06"/>
</g>
<!-- Node8&#45;&gt;Node2 -->
<g id="edge11" class="edge">
<title>Node8&#45;&gt;Node2</title>
<path fill="none" stroke="midnightblue" d="M471.82,-113.77C468.86,-113.16 465.91,-112.57 463.07,-112 400.89,-99.62 329.4,-86.21 281.13,-77.28"/>
<polygon fill="midnightblue" stroke="midnightblue" points="281.66,-73.82 271.19,-75.45 280.39,-80.7 281.66,-73.82"/>
</g>
<!-- Node8&#45;&gt;Node7 -->
<g id="edge10" class="edge">
<title>Node8&#45;&gt;Node7</title>
<path fill="none" stroke="midnightblue" d="M508.55,-112.08C510.56,-104.85 513.46,-94.41 515.96,-85.4"/>
<polygon fill="midnightblue" stroke="midnightblue" points="519.34,-86.32 518.64,-75.75 512.59,-84.45 519.34,-86.32"/>
</g>
</g>
</svg>
