<?xml version="1.0" encoding="UTF-8" standalone="no"?>
<!DOCTYPE svg PUBLIC "-//W3C//DTD SVG 1.1//EN"
 "http://www.w3.org/Graphics/SVG/1.1/DTD/svg11.dtd">
<!-- Generated by graphviz version 2.50.0 (20211204.2007)
 -->
<!-- Title: Logger.h Pages: 1 -->
<svg width="387pt" height="308pt"
 viewBox="0.00 0.00 387.00 308.00" xmlns="http://www.w3.org/2000/svg" xmlns:xlink="http://www.w3.org/1999/xlink">
<g id="graph0" class="graph" transform="scale(1 1) rotate(0) translate(4 304)">
<title>Logger.h</title>
<polygon fill="white" stroke="transparent" points="-4,4 -4,-304 383,-304 383,4 -4,4"/>
<!-- Node1 -->
<g id="node1" class="node">
<title>Node1</title>
<g id="a_node1"><a xlink:title=" ">
<polygon fill="#bfbfbf" stroke="black" points="207,-280.5 207,-299.5 261,-299.5 261,-280.5 207,-280.5"/>
<text text-anchor="middle" x="234" y="-287.5" font-family="Helvetica,sans-Serif" font-size="10.00">Logger.h</text>
</a>
</g>
</g>
<!-- Node2 -->
<g id="node2" class="node">
<title>Node2</title>
<g id="a_node2"><a xlink:href="a00122.html" target="_top" xlink:title=" ">
<polygon fill="white" stroke="black" points="0,-168.5 0,-187.5 68,-187.5 68,-168.5 0,-168.5"/>
<text text-anchor="middle" x="34" y="-175.5" font-family="Helvetica,sans-Serif" font-size="10.00">MiraiCode.h</text>
</a>
</g>
</g>
<!-- Node1&#45;&gt;Node2 -->
<g id="edge1" class="edge">
<title>Node1&#45;&gt;Node2</title>
<path fill="none" stroke="midnightblue" d="M212.47,-280.44C191.9,-272 160.24,-258.32 134,-244 105.31,-228.34 73.99,-207.29 54.18,-193.44"/>
<polygon fill="midnightblue" stroke="midnightblue" points="56.13,-190.53 45.94,-187.63 52.1,-196.25 56.13,-190.53"/>
</g>
<!-- Node4 -->
<g id="node4" class="node">
<title>Node4</title>
<g id="a_node4"><a xlink:href="a00005.html" target="_top" xlink:title=" ">
<polygon fill="white" stroke="black" points="143.5,-224.5 143.5,-243.5 232.5,-243.5 232.5,-224.5 143.5,-224.5"/>
<text text-anchor="middle" x="188" y="-231.5" font-family="Helvetica,sans-Serif" font-size="10.00">commonTypes.h</text>
</a>
</g>
</g>
<!-- Node1&#45;&gt;Node4 -->
<g id="edge3" class="edge">
<title>Node1&#45;&gt;Node4</title>
<path fill="none" stroke="midnightblue" d="M226.4,-280.08C219.77,-272.3 209.98,-260.8 201.94,-251.37"/>
<polygon fill="midnightblue" stroke="midnightblue" points="204.6,-249.09 195.45,-243.75 199.27,-253.63 204.6,-249.09"/>
</g>
<!-- Node11 -->
<g id="node11" class="node">
<title>Node11</title>
<g id="a_node11"><a xlink:title=" ">
<polygon fill="white" stroke="#bfbfbf" points="251,-224.5 251,-243.5 309,-243.5 309,-224.5 251,-224.5"/>
<text text-anchor="middle" x="280" y="-231.5" font-family="Helvetica,sans-Serif" font-size="10.00">functional</text>
</a>
</g>
</g>
<!-- Node1&#45;&gt;Node11 -->
<g id="edge14" class="edge">
<title>Node1&#45;&gt;Node11</title>
<path fill="none" stroke="midnightblue" d="M241.6,-280.08C248.23,-272.3 258.02,-260.8 266.06,-251.37"/>
<polygon fill="midnightblue" stroke="midnightblue" points="268.73,-253.63 272.55,-243.75 263.4,-249.09 268.73,-253.63"/>
</g>
<!-- Node12 -->
<g id="node12" class="node">
<title>Node12</title>
<g id="a_node12"><a xlink:title=" ">
<polygon fill="white" stroke="#bfbfbf" points="327,-224.5 327,-243.5 379,-243.5 379,-224.5 327,-224.5"/>
<text text-anchor="middle" x="353" y="-231.5" font-family="Helvetica,sans-Serif" font-size="10.00">sstream</text>
</a>
</g>
</g>
<!-- Node1&#45;&gt;Node12 -->
<g id="edge15" class="edge">
<title>Node1&#45;&gt;Node12</title>
<path fill="none" stroke="midnightblue" d="M252.86,-280.44C272.27,-271.64 302.73,-257.81 324.96,-247.72"/>
<polygon fill="midnightblue" stroke="midnightblue" points="326.57,-250.84 334.23,-243.52 323.68,-244.46 326.57,-250.84"/>
</g>
<!-- Node3 -->
<g id="node3" class="node">
<title>Node3</title>
<g id="a_node3"><a xlink:title=" ">
<polygon fill="white" stroke="#bfbfbf" points="44.5,-56.5 44.5,-75.5 85.5,-75.5 85.5,-56.5 44.5,-56.5"/>
<text text-anchor="middle" x="65" y="-63.5" font-family="Helvetica,sans-Serif" font-size="10.00">string</text>
</a>
</g>
</g>
<!-- Node2&#45;&gt;Node3 -->
<g id="edge2" class="edge">
<title>Node2&#45;&gt;Node3</title>
<path fill="none" stroke="midnightblue" d="M36.43,-168.37C41.46,-150.54 53.08,-109.3 59.85,-85.27"/>
<polygon fill="midnightblue" stroke="midnightblue" points="63.23,-86.17 62.58,-75.59 56.5,-84.27 63.23,-86.17"/>
</g>
<!-- Node5 -->
<g id="node5" class="node">
<title>Node5</title>
<g id="a_node5"><a xlink:href="a00011.html" target="_top" xlink:title=" ">
<polygon fill="white" stroke="black" points="164,-56.5 164,-75.5 256,-75.5 256,-56.5 164,-56.5"/>
<text text-anchor="middle" x="210" y="-63.5" font-family="Helvetica,sans-Serif" font-size="10.00">MiraiCPMacros.h</text>
</a>
</g>
</g>
<!-- Node4&#45;&gt;Node5 -->
<g id="edge4" class="edge">
<title>Node4&#45;&gt;Node5</title>
<path fill="none" stroke="midnightblue" d="M232.51,-225.02C253.72,-218.75 277.21,-207.62 290,-188 301.05,-171.04 289.43,-130.02 277,-112 267.63,-98.41 252.69,-87.8 239.3,-80.3"/>
<polygon fill="midnightblue" stroke="midnightblue" points="240.84,-77.16 230.36,-75.61 237.59,-83.36 240.84,-77.16"/>
</g>
<!-- Node7 -->
<g id="node7" class="node">
<title>Node7</title>
<g id="a_node7"><a xlink:href="a00020.html" target="_top" xlink:title=" ">
<polygon fill="white" stroke="black" points="201.5,-168.5 201.5,-187.5 280.5,-187.5 280.5,-168.5 201.5,-168.5"/>
<text text-anchor="middle" x="241" y="-175.5" font-family="Helvetica,sans-Serif" font-size="10.00">PluginConfig.h</text>
</a>
</g>
</g>
<!-- Node4&#45;&gt;Node7 -->
<g id="edge6" class="edge">
<title>Node4&#45;&gt;Node7</title>
<path fill="none" stroke="midnightblue" d="M196.75,-224.08C204.47,-216.22 215.9,-204.57 225.22,-195.08"/>
<polygon fill="midnightblue" stroke="midnightblue" points="227.9,-197.34 232.41,-187.75 222.91,-192.44 227.9,-197.34"/>
</g>
<!-- Node10 -->
<g id="node10" class="node">
<title>Node10</title>
<g id="a_node10"><a xlink:href="a00008.html" target="_top" xlink:title=" ">
<polygon fill="white" stroke="black" points="86.5,-168.5 86.5,-187.5 183.5,-187.5 183.5,-168.5 86.5,-168.5"/>
<text text-anchor="middle" x="135" y="-175.5" font-family="Helvetica,sans-Serif" font-size="10.00">loaderApiInternal.h</text>
</a>
</g>
</g>
<!-- Node4&#45;&gt;Node10 -->
<g id="edge12" class="edge">
<title>Node4&#45;&gt;Node10</title>
<path fill="none" stroke="midnightblue" d="M179.25,-224.08C171.53,-216.22 160.1,-204.57 150.78,-195.08"/>
<polygon fill="midnightblue" stroke="midnightblue" points="153.09,-192.44 143.59,-187.75 148.1,-197.34 153.09,-192.44"/>
</g>
<!-- Node6 -->
<g id="node6" class="node">
<title>Node6</title>
<g id="a_node6"><a xlink:title=" ">
<polygon fill="white" stroke="#bfbfbf" points="148.5,-0.5 148.5,-19.5 197.5,-19.5 197.5,-0.5 148.5,-0.5"/>
<text text-anchor="middle" x="173" y="-7.5" font-family="Helvetica,sans-Serif" font-size="10.00">cassert</text>
</a>
</g>
</g>
<!-- Node5&#45;&gt;Node6 -->
<g id="edge5" class="edge">
<title>Node5&#45;&gt;Node6</title>
<path fill="none" stroke="midnightblue" d="M203.89,-56.08C198.72,-48.53 191.15,-37.49 184.81,-28.23"/>
<polygon fill="midnightblue" stroke="midnightblue" points="187.54,-26.02 179,-19.75 181.76,-29.98 187.54,-26.02"/>
</g>
<!-- Node8 -->
<g id="node8" class="node">
<title>Node8</title>
<g id="a_node8"><a xlink:href="a00014.html" target="_top" xlink:title=" ">
<polygon fill="white" stroke="black" points="78,-112.5 78,-131.5 194,-131.5 194,-112.5 78,-112.5"/>
<text text-anchor="middle" x="136" y="-119.5" font-family="Helvetica,sans-Serif" font-size="10.00">MiraiCPStringInternal.h</text>
</a>
</g>
</g>
<!-- Node7&#45;&gt;Node8 -->
<g id="edge7" class="edge">
<title>Node7&#45;&gt;Node8</title>
<path fill="none" stroke="midnightblue" d="M224.13,-168.32C207.29,-159.66 181.19,-146.24 161.76,-136.25"/>
<polygon fill="midnightblue" stroke="midnightblue" points="163.32,-133.12 152.83,-131.65 160.12,-139.34 163.32,-133.12"/>
</g>
<!-- Node9 -->
<g id="node9" class="node">
<title>Node9</title>
<g id="a_node9"><a xlink:title=" ">
<polygon fill="white" stroke="#bfbfbf" points="214.5,-112.5 214.5,-131.5 267.5,-131.5 267.5,-112.5 214.5,-112.5"/>
<text text-anchor="middle" x="241" y="-119.5" font-family="Helvetica,sans-Serif" font-size="10.00">json.hpp</text>
</a>
</g>
</g>
<!-- Node7&#45;&gt;Node9 -->
<g id="edge11" class="edge">
<title>Node7&#45;&gt;Node9</title>
<path fill="none" stroke="midnightblue" d="M241,-168.08C241,-161.01 241,-150.86 241,-141.99"/>
<polygon fill="midnightblue" stroke="midnightblue" points="244.5,-141.75 241,-131.75 237.5,-141.75 244.5,-141.75"/>
</g>
<!-- Node8&#45;&gt;Node3 -->
<g id="edge10" class="edge">
<title>Node8&#45;&gt;Node3</title>
<path fill="none" stroke="midnightblue" d="M124.59,-112.32C113.89,-104.18 97.66,-91.84 84.84,-82.09"/>
<polygon fill="midnightblue" stroke="midnightblue" points="86.69,-79.1 76.61,-75.83 82.46,-84.67 86.69,-79.1"/>
</g>
<!-- Node8&#45;&gt;Node5 -->
<g id="edge8" class="edge">
<title>Node8&#45;&gt;Node5</title>
<path fill="none" stroke="midnightblue" d="M147.89,-112.32C159.15,-104.11 176.29,-91.6 189.71,-81.81"/>
<polygon fill="midnightblue" stroke="midnightblue" points="191.88,-84.56 197.89,-75.83 187.75,-78.9 191.88,-84.56"/>
</g>
<!-- Node8&#45;&gt;Node6 -->
<g id="edge9" class="edge">
<title>Node8&#45;&gt;Node6</title>
<path fill="none" stroke="midnightblue" d="M138.31,-112.08C141.65,-99.48 148.17,-75.78 155,-56 158.13,-46.94 162.04,-37.03 165.41,-28.83"/>
<polygon fill="midnightblue" stroke="midnightblue" points="168.67,-30.11 169.3,-19.53 162.21,-27.41 168.67,-30.11"/>
</g>
<!-- Node10&#45;&gt;Node8 -->
<g id="edge13" class="edge">
<title>Node10&#45;&gt;Node8</title>
<path fill="none" stroke="midnightblue" d="M135.17,-168.08C135.3,-161.01 135.48,-150.86 135.65,-141.99"/>
<polygon fill="midnightblue" stroke="midnightblue" points="139.15,-141.81 135.84,-131.75 132.15,-141.68 139.15,-141.81"/>
</g>
</g>
</svg>
