<?xml version="1.0" encoding="UTF-8" standalone="no"?>
<!DOCTYPE svg PUBLIC "-//W3C//DTD SVG 1.1//EN"
 "http://www.w3.org/Graphics/SVG/1.1/DTD/svg11.dtd">
<!-- Generated by graphviz version 2.50.0 (20211204.2007)
 -->
<!-- Title: utils.h Pages: 1 -->
<svg width="368pt" height="420pt"
 viewBox="0.00 0.00 368.00 420.00" xmlns="http://www.w3.org/2000/svg" xmlns:xlink="http://www.w3.org/1999/xlink">
<g id="graph0" class="graph" transform="scale(1 1) rotate(0) translate(4 416)">
<title>utils.h</title>
<polygon fill="white" stroke="transparent" points="-4,4 -4,-416 364,-416 364,4 -4,4"/>
<!-- Node1 -->
<g id="node1" class="node">
<title>Node1</title>
<g id="a_node1"><a xlink:title=" ">
<polygon fill="#bfbfbf" stroke="black" points="200,-392.5 200,-411.5 243,-411.5 243,-392.5 200,-392.5"/>
<text text-anchor="middle" x="221.5" y="-399.5" font-family="Helvetica,sans-Serif" font-size="10.00">utils.h</text>
</a>
</g>
</g>
<!-- Node2 -->
<g id="node2" class="node">
<title>Node2</title>
<g id="a_node2"><a xlink:href="a00080.html" target="_top" xlink:title=" ">
<polygon fill="white" stroke="black" points="129.5,-336.5 129.5,-355.5 201.5,-355.5 201.5,-336.5 129.5,-336.5"/>
<text text-anchor="middle" x="165.5" y="-343.5" font-family="Helvetica,sans-Serif" font-size="10.00">CPPPlugin.h</text>
</a>
</g>
</g>
<!-- Node1&#45;&gt;Node2 -->
<g id="edge1" class="edge">
<title>Node1&#45;&gt;Node2</title>
<path fill="none" stroke="midnightblue" d="M212.5,-392.32C204.31,-384.42 191.99,-372.55 182.03,-362.94"/>
<polygon fill="midnightblue" stroke="midnightblue" points="184.29,-360.26 174.66,-355.83 179.43,-365.29 184.29,-360.26"/>
</g>
<!-- Node6 -->
<g id="node6" class="node">
<title>Node6</title>
<g id="a_node6"><a xlink:href="a00005.html" target="_top" xlink:title=" ">
<polygon fill="white" stroke="black" points="259,-224.5 259,-243.5 348,-243.5 348,-224.5 259,-224.5"/>
<text text-anchor="middle" x="303.5" y="-231.5" font-family="Helvetica,sans-Serif" font-size="10.00">commonTypes.h</text>
</a>
</g>
</g>
<!-- Node1&#45;&gt;Node6 -->
<g id="edge23" class="edge">
<title>Node1&#45;&gt;Node6</title>
<path fill="none" stroke="midnightblue" d="M225.04,-392.33C233.33,-372.24 254.94,-321.06 276.5,-280 281.37,-270.72 287.31,-260.7 292.38,-252.47"/>
<polygon fill="midnightblue" stroke="midnightblue" points="295.48,-254.13 297.82,-243.79 289.54,-250.41 295.48,-254.13"/>
</g>
<!-- Node9 -->
<g id="node9" class="node">
<title>Node9</title>
<g id="a_node9"><a xlink:href="a00020.html" target="_top" xlink:title=" ">
<polygon fill="white" stroke="black" points="0,-168.5 0,-187.5 79,-187.5 79,-168.5 0,-168.5"/>
<text text-anchor="middle" x="39.5" y="-175.5" font-family="Helvetica,sans-Serif" font-size="10.00">PluginConfig.h</text>
</a>
</g>
</g>
<!-- Node1&#45;&gt;Node9 -->
<g id="edge22" class="edge">
<title>Node1&#45;&gt;Node9</title>
<path fill="none" stroke="midnightblue" d="M199.62,-395.51C177.56,-389.07 143.56,-376.58 120.5,-356 77.4,-317.53 75.91,-297.66 54.5,-244 48.52,-229.02 44.61,-211.11 42.29,-197.89"/>
<polygon fill="midnightblue" stroke="midnightblue" points="45.69,-196.98 40.64,-187.67 38.77,-198.09 45.69,-196.98"/>
</g>
<!-- Node16 -->
<g id="node16" class="node">
<title>Node16</title>
<g id="a_node16"><a xlink:href="a00101.html" target="_top" xlink:title=" ">
<polygon fill="white" stroke="black" points="283,-336.5 283,-355.5 360,-355.5 360,-336.5 283,-336.5"/>
<text text-anchor="middle" x="321.5" y="-343.5" font-family="Helvetica,sans-Serif" font-size="10.00">KtOperation.h</text>
</a>
</g>
</g>
<!-- Node1&#45;&gt;Node16 -->
<g id="edge20" class="edge">
<title>Node1&#45;&gt;Node16</title>
<path fill="none" stroke="midnightblue" d="M237.57,-392.32C253.46,-383.74 278.01,-370.49 296.46,-360.52"/>
<polygon fill="midnightblue" stroke="midnightblue" points="298.34,-363.49 305.47,-355.65 295.01,-357.33 298.34,-363.49"/>
</g>
<!-- Node3 -->
<g id="node3" class="node">
<title>Node3</title>
<g id="a_node3"><a xlink:href="a00107.html" target="_top" xlink:title=" ">
<polygon fill="white" stroke="black" points="114.5,-280.5 114.5,-299.5 168.5,-299.5 168.5,-280.5 114.5,-280.5"/>
<text text-anchor="middle" x="141.5" y="-287.5" font-family="Helvetica,sans-Serif" font-size="10.00">Logger.h</text>
</a>
</g>
</g>
<!-- Node2&#45;&gt;Node3 -->
<g id="edge2" class="edge">
<title>Node2&#45;&gt;Node3</title>
<path fill="none" stroke="midnightblue" d="M161.54,-336.08C158.29,-328.77 153.58,-318.18 149.55,-309.1"/>
<polygon fill="midnightblue" stroke="midnightblue" points="152.65,-307.47 145.39,-299.75 146.25,-310.31 152.65,-307.47"/>
</g>
<!-- Node2&#45;&gt;Node9 -->
<g id="edge18" class="edge">
<title>Node2&#45;&gt;Node9</title>
<path fill="none" stroke="midnightblue" d="M150.76,-336.48C137.67,-328.37 118.62,-315.16 105.5,-300 77.69,-267.86 56.7,-222.07 46.45,-197.04"/>
<polygon fill="midnightblue" stroke="midnightblue" points="49.68,-195.69 42.73,-187.69 43.17,-198.27 49.68,-195.69"/>
</g>
<!-- Node15 -->
<g id="node15" class="node">
<title>Node15</title>
<g id="a_node15"><a xlink:title=" ">
<polygon fill="white" stroke="#bfbfbf" points="186.5,-280.5 186.5,-299.5 226.5,-299.5 226.5,-280.5 186.5,-280.5"/>
<text text-anchor="middle" x="206.5" y="-287.5" font-family="Helvetica,sans-Serif" font-size="10.00">utility</text>
</a>
</g>
</g>
<!-- Node2&#45;&gt;Node15 -->
<g id="edge19" class="edge">
<title>Node2&#45;&gt;Node15</title>
<path fill="none" stroke="midnightblue" d="M172.27,-336.08C178.06,-328.46 186.56,-317.26 193.64,-307.94"/>
<polygon fill="midnightblue" stroke="midnightblue" points="196.6,-309.83 199.86,-299.75 191.02,-305.6 196.6,-309.83"/>
</g>
<!-- Node4 -->
<g id="node4" class="node">
<title>Node4</title>
<g id="a_node4"><a xlink:href="a00122.html" target="_top" xlink:title=" ">
<polygon fill="white" stroke="black" points="97.5,-168.5 97.5,-187.5 165.5,-187.5 165.5,-168.5 97.5,-168.5"/>
<text text-anchor="middle" x="131.5" y="-175.5" font-family="Helvetica,sans-Serif" font-size="10.00">MiraiCode.h</text>
</a>
</g>
</g>
<!-- Node3&#45;&gt;Node4 -->
<g id="edge3" class="edge">
<title>Node3&#45;&gt;Node4</title>
<path fill="none" stroke="midnightblue" d="M130.79,-280.3C121.56,-272.07 108.91,-258.79 103.5,-244 97.4,-227.31 107.13,-208.73 116.75,-195.73"/>
<polygon fill="midnightblue" stroke="midnightblue" points="119.66,-197.69 123.19,-187.71 114.2,-193.31 119.66,-197.69"/>
</g>
<!-- Node3&#45;&gt;Node6 -->
<g id="edge5" class="edge">
<title>Node3&#45;&gt;Node6</title>
<path fill="none" stroke="midnightblue" d="M167.17,-280.44C194.42,-271.36 237.68,-256.94 268.15,-246.78"/>
<polygon fill="midnightblue" stroke="midnightblue" points="269.57,-250 277.95,-243.52 267.36,-243.36 269.57,-250"/>
</g>
<!-- Node13 -->
<g id="node13" class="node">
<title>Node13</title>
<g id="a_node13"><a xlink:title=" ">
<polygon fill="white" stroke="#bfbfbf" points="112.5,-224.5 112.5,-243.5 170.5,-243.5 170.5,-224.5 112.5,-224.5"/>
<text text-anchor="middle" x="141.5" y="-231.5" font-family="Helvetica,sans-Serif" font-size="10.00">functional</text>
</a>
</g>
</g>
<!-- Node3&#45;&gt;Node13 -->
<g id="edge16" class="edge">
<title>Node3&#45;&gt;Node13</title>
<path fill="none" stroke="midnightblue" d="M141.5,-280.08C141.5,-273.01 141.5,-262.86 141.5,-253.99"/>
<polygon fill="midnightblue" stroke="midnightblue" points="145,-253.75 141.5,-243.75 138,-253.75 145,-253.75"/>
</g>
<!-- Node14 -->
<g id="node14" class="node">
<title>Node14</title>
<g id="a_node14"><a xlink:title=" ">
<polygon fill="white" stroke="#bfbfbf" points="188.5,-224.5 188.5,-243.5 240.5,-243.5 240.5,-224.5 188.5,-224.5"/>
<text text-anchor="middle" x="214.5" y="-231.5" font-family="Helvetica,sans-Serif" font-size="10.00">sstream</text>
</a>
</g>
</g>
<!-- Node3&#45;&gt;Node14 -->
<g id="edge17" class="edge">
<title>Node3&#45;&gt;Node14</title>
<path fill="none" stroke="midnightblue" d="M153.23,-280.32C164.34,-272.11 181.24,-259.6 194.48,-249.81"/>
<polygon fill="midnightblue" stroke="midnightblue" points="196.6,-252.59 202.56,-243.83 192.44,-246.97 196.6,-252.59"/>
</g>
<!-- Node5 -->
<g id="node5" class="node">
<title>Node5</title>
<g id="a_node5"><a xlink:title=" ">
<polygon fill="white" stroke="#bfbfbf" points="132,-56.5 132,-75.5 173,-75.5 173,-56.5 132,-56.5"/>
<text text-anchor="middle" x="152.5" y="-63.5" font-family="Helvetica,sans-Serif" font-size="10.00">string</text>
</a>
</g>
</g>
<!-- Node4&#45;&gt;Node5 -->
<g id="edge4" class="edge">
<title>Node4&#45;&gt;Node5</title>
<path fill="none" stroke="midnightblue" d="M133.15,-168.37C136.54,-150.62 144.35,-109.67 148.95,-85.6"/>
<polygon fill="midnightblue" stroke="midnightblue" points="152.42,-86.07 150.86,-75.59 145.55,-84.76 152.42,-86.07"/>
</g>
<!-- Node7 -->
<g id="node7" class="node">
<title>Node7</title>
<g id="a_node7"><a xlink:href="a00011.html" target="_top" xlink:title=" ">
<polygon fill="white" stroke="black" points="249.5,-56.5 249.5,-75.5 341.5,-75.5 341.5,-56.5 249.5,-56.5"/>
<text text-anchor="middle" x="295.5" y="-63.5" font-family="Helvetica,sans-Serif" font-size="10.00">MiraiCPMacros.h</text>
</a>
</g>
</g>
<!-- Node6&#45;&gt;Node7 -->
<g id="edge6" class="edge">
<title>Node6&#45;&gt;Node7</title>
<path fill="none" stroke="midnightblue" d="M303.07,-224.08C301.81,-197.95 298.11,-121.21 296.4,-85.58"/>
<polygon fill="midnightblue" stroke="midnightblue" points="299.89,-85.39 295.91,-75.57 292.9,-85.73 299.89,-85.39"/>
</g>
<!-- Node6&#45;&gt;Node9 -->
<g id="edge8" class="edge">
<title>Node6&#45;&gt;Node9</title>
<path fill="none" stroke="midnightblue" d="M261.67,-224.44C214.88,-214.87 139.13,-199.38 89.32,-189.19"/>
<polygon fill="midnightblue" stroke="midnightblue" points="89.91,-185.74 79.41,-187.16 88.5,-192.6 89.91,-185.74"/>
</g>
<!-- Node12 -->
<g id="node12" class="node">
<title>Node12</title>
<g id="a_node12"><a xlink:href="a00008.html" target="_top" xlink:title=" ">
<polygon fill="white" stroke="black" points="184,-168.5 184,-187.5 281,-187.5 281,-168.5 184,-168.5"/>
<text text-anchor="middle" x="232.5" y="-175.5" font-family="Helvetica,sans-Serif" font-size="10.00">loaderApiInternal.h</text>
</a>
</g>
</g>
<!-- Node6&#45;&gt;Node12 -->
<g id="edge14" class="edge">
<title>Node6&#45;&gt;Node12</title>
<path fill="none" stroke="midnightblue" d="M292.09,-224.32C281.39,-216.18 265.16,-203.84 252.34,-194.09"/>
<polygon fill="midnightblue" stroke="midnightblue" points="254.19,-191.1 244.11,-187.83 249.96,-196.67 254.19,-191.1"/>
</g>
<!-- Node8 -->
<g id="node8" class="node">
<title>Node8</title>
<g id="a_node8"><a xlink:title=" ">
<polygon fill="white" stroke="#bfbfbf" points="234,-0.5 234,-19.5 283,-19.5 283,-0.5 234,-0.5"/>
<text text-anchor="middle" x="258.5" y="-7.5" font-family="Helvetica,sans-Serif" font-size="10.00">cassert</text>
</a>
</g>
</g>
<!-- Node7&#45;&gt;Node8 -->
<g id="edge7" class="edge">
<title>Node7&#45;&gt;Node8</title>
<path fill="none" stroke="midnightblue" d="M289.39,-56.08C284.22,-48.53 276.65,-37.49 270.31,-28.23"/>
<polygon fill="midnightblue" stroke="midnightblue" points="273.04,-26.02 264.5,-19.75 267.26,-29.98 273.04,-26.02"/>
</g>
<!-- Node10 -->
<g id="node10" class="node">
<title>Node10</title>
<g id="a_node10"><a xlink:href="a00014.html" target="_top" xlink:title=" ">
<polygon fill="white" stroke="black" points="163.5,-112.5 163.5,-131.5 279.5,-131.5 279.5,-112.5 163.5,-112.5"/>
<text text-anchor="middle" x="221.5" y="-119.5" font-family="Helvetica,sans-Serif" font-size="10.00">MiraiCPStringInternal.h</text>
</a>
</g>
</g>
<!-- Node9&#45;&gt;Node10 -->
<g id="edge9" class="edge">
<title>Node9&#45;&gt;Node10</title>
<path fill="none" stroke="midnightblue" d="M68.34,-168.44C99.36,-159.24 148.83,-144.56 183.12,-134.39"/>
<polygon fill="midnightblue" stroke="midnightblue" points="184.21,-137.72 192.8,-131.52 182.21,-131.01 184.21,-137.72"/>
</g>
<!-- Node11 -->
<g id="node11" class="node">
<title>Node11</title>
<g id="a_node11"><a xlink:title=" ">
<polygon fill="white" stroke="#bfbfbf" points="13,-112.5 13,-131.5 66,-131.5 66,-112.5 13,-112.5"/>
<text text-anchor="middle" x="39.5" y="-119.5" font-family="Helvetica,sans-Serif" font-size="10.00">json.hpp</text>
</a>
</g>
</g>
<!-- Node9&#45;&gt;Node11 -->
<g id="edge13" class="edge">
<title>Node9&#45;&gt;Node11</title>
<path fill="none" stroke="midnightblue" d="M39.5,-168.08C39.5,-161.01 39.5,-150.86 39.5,-141.99"/>
<polygon fill="midnightblue" stroke="midnightblue" points="43,-141.75 39.5,-131.75 36,-141.75 43,-141.75"/>
</g>
<!-- Node10&#45;&gt;Node5 -->
<g id="edge12" class="edge">
<title>Node10&#45;&gt;Node5</title>
<path fill="none" stroke="midnightblue" d="M210.41,-112.32C200.01,-104.18 184.24,-91.84 171.78,-82.09"/>
<polygon fill="midnightblue" stroke="midnightblue" points="173.82,-79.24 163.79,-75.83 169.51,-84.75 173.82,-79.24"/>
</g>
<!-- Node10&#45;&gt;Node7 -->
<g id="edge10" class="edge">
<title>Node10&#45;&gt;Node7</title>
<path fill="none" stroke="midnightblue" d="M233.39,-112.32C244.65,-104.11 261.79,-91.6 275.21,-81.81"/>
<polygon fill="midnightblue" stroke="midnightblue" points="277.38,-84.56 283.39,-75.83 273.25,-78.9 277.38,-84.56"/>
</g>
<!-- Node10&#45;&gt;Node8 -->
<g id="edge11" class="edge">
<title>Node10&#45;&gt;Node8</title>
<path fill="none" stroke="midnightblue" d="M223.81,-112.08C227.15,-99.48 233.67,-75.78 240.5,-56 243.63,-46.94 247.54,-37.03 250.91,-28.83"/>
<polygon fill="midnightblue" stroke="midnightblue" points="254.17,-30.11 254.8,-19.53 247.71,-27.41 254.17,-30.11"/>
</g>
<!-- Node12&#45;&gt;Node10 -->
<g id="edge15" class="edge">
<title>Node12&#45;&gt;Node10</title>
<path fill="none" stroke="midnightblue" d="M230.68,-168.08C229.23,-160.93 227.13,-150.64 225.31,-141.69"/>
<polygon fill="midnightblue" stroke="midnightblue" points="228.71,-140.85 223.28,-131.75 221.85,-142.25 228.71,-140.85"/>
</g>
<!-- Node17 -->
<g id="node17" class="node">
<title>Node17</title>
<g id="a_node17"><a xlink:title=" ">
<polygon fill="white" stroke="#bfbfbf" points="285,-280.5 285,-299.5 358,-299.5 358,-280.5 285,-280.5"/>
<text text-anchor="middle" x="321.5" y="-287.5" font-family="Helvetica,sans-Serif" font-size="10.00">json_fwd.hpp</text>
</a>
</g>
</g>
<!-- Node16&#45;&gt;Node17 -->
<g id="edge21" class="edge">
<title>Node16&#45;&gt;Node17</title>
<path fill="none" stroke="midnightblue" d="M321.5,-336.08C321.5,-329.01 321.5,-318.86 321.5,-309.99"/>
<polygon fill="midnightblue" stroke="midnightblue" points="325,-309.75 321.5,-299.75 318,-309.75 325,-309.75"/>
</g>
</g>
</svg>
