<?xml version="1.0" encoding="UTF-8" standalone="no"?>
<!DOCTYPE svg PUBLIC "-//W3C//DTD SVG 1.1//EN"
 "http://www.w3.org/Graphics/SVG/1.1/DTD/svg11.dtd">
<!-- Generated by graphviz version 2.50.0 (20211204.2007)
 -->
<!-- Title: Tools.h Pages: 1 -->
<svg width="828pt" height="84pt"
 viewBox="0.00 0.00 827.50 84.00" xmlns="http://www.w3.org/2000/svg" xmlns:xlink="http://www.w3.org/1999/xlink">
<g id="graph0" class="graph" transform="scale(1 1) rotate(0) translate(4 80)">
<title>Tools.h</title>
<polygon fill="white" stroke="transparent" points="-4,4 -4,-80 823.5,-80 823.5,4 -4,4"/>
<!-- Node1 -->
<g id="node1" class="node">
<title>Node1</title>
<g id="a_node1"><a xlink:title=" ">
<polygon fill="#bfbfbf" stroke="black" points="346,-56.5 346,-75.5 394,-75.5 394,-56.5 346,-56.5"/>
<text text-anchor="middle" x="370" y="-63.5" font-family="Helvetica,sans-Serif" font-size="10.00">Tools.h</text>
</a>
</g>
</g>
<!-- Node2 -->
<g id="node2" class="node">
<title>Node2</title>
<g id="a_node2"><a xlink:href="a00290.html" target="_top" xlink:title=" ">
<polygon fill="white" stroke="black" points="0,-0.5 0,-19.5 50,-19.5 50,-0.5 0,-0.5"/>
<text text-anchor="middle" x="25" y="-7.5" font-family="Helvetica,sans-Serif" font-size="10.00">Bot.cpp</text>
</a>
</g>
</g>
<!-- Node1&#45;&gt;Node2 -->
<g id="edge1" class="edge">
<title>Node1&#45;&gt;Node2</title>
<path fill="none" stroke="midnightblue" d="M335.63,-61.34C278.06,-54.91 158.64,-40.33 59,-20 56.13,-19.41 53.14,-18.73 50.17,-18.01"/>
<polygon fill="midnightblue" stroke="midnightblue" points="335.32,-64.82 345.64,-62.44 336.08,-57.87 335.32,-64.82"/>
</g>
<!-- Node3 -->
<g id="node3" class="node">
<title>Node3</title>
<g id="a_node3"><a xlink:href="a00308.html" target="_top" xlink:title=" ">
<polygon fill="white" stroke="black" points="68.5,-0.5 68.5,-19.5 127.5,-19.5 127.5,-0.5 68.5,-0.5"/>
<text text-anchor="middle" x="98" y="-7.5" font-family="Helvetica,sans-Serif" font-size="10.00">Event.cpp</text>
</a>
</g>
</g>
<!-- Node1&#45;&gt;Node3 -->
<g id="edge2" class="edge">
<title>Node1&#45;&gt;Node3</title>
<path fill="none" stroke="midnightblue" d="M335.87,-58.81C290.4,-50.46 207.48,-34.93 137,-20 134.01,-19.37 130.89,-18.68 127.79,-17.99"/>
<polygon fill="midnightblue" stroke="midnightblue" points="335.32,-62.26 345.79,-60.62 336.58,-55.38 335.32,-62.26"/>
</g>
<!-- Node4 -->
<g id="node4" class="node">
<title>Node4</title>
<g id="a_node4"><a xlink:href="a01388.html" target="_top" xlink:title=" ">
<polygon fill="white" stroke="black" points="146,-0.5 146,-19.5 208,-19.5 208,-0.5 146,-0.5"/>
<text text-anchor="middle" x="177" y="-7.5" font-family="Helvetica,sans-Serif" font-size="10.00">Group.cpp</text>
</a>
</g>
</g>
<!-- Node1&#45;&gt;Node4 -->
<g id="edge3" class="edge">
<title>Node1&#45;&gt;Node4</title>
<path fill="none" stroke="midnightblue" d="M336.28,-55.56C299.89,-45.38 242.45,-29.31 207.4,-19.51"/>
<polygon fill="midnightblue" stroke="midnightblue" points="335.37,-58.95 345.95,-58.27 337.26,-52.2 335.37,-58.95"/>
</g>
<!-- Node5 -->
<g id="node5" class="node">
<title>Node5</title>
<g id="a_node5"><a xlink:href="a00356.html" target="_top" xlink:title=" ">
<polygon fill="white" stroke="black" points="226,-0.5 226,-19.5 316,-19.5 316,-0.5 226,-0.5"/>
<text text-anchor="middle" x="271" y="-7.5" font-family="Helvetica,sans-Serif" font-size="10.00">LowLevelAPI.cpp</text>
</a>
</g>
</g>
<!-- Node1&#45;&gt;Node5 -->
<g id="edge4" class="edge">
<title>Node1&#45;&gt;Node5</title>
<path fill="none" stroke="midnightblue" d="M345.16,-51.45C326.89,-41.48 302.58,-28.23 286.87,-19.65"/>
<polygon fill="midnightblue" stroke="midnightblue" points="343.64,-54.61 354.09,-56.32 346.99,-48.46 343.64,-54.61"/>
</g>
<!-- Node6 -->
<g id="node6" class="node">
<title>Node6</title>
<g id="a_node6"><a xlink:href="a01400.html" target="_top" xlink:title=" ">
<polygon fill="white" stroke="black" points="334.5,-0.5 334.5,-19.5 405.5,-19.5 405.5,-0.5 334.5,-0.5"/>
<text text-anchor="middle" x="370" y="-7.5" font-family="Helvetica,sans-Serif" font-size="10.00">Member.cpp</text>
</a>
</g>
</g>
<!-- Node1&#45;&gt;Node6 -->
<g id="edge5" class="edge">
<title>Node1&#45;&gt;Node6</title>
<path fill="none" stroke="midnightblue" d="M370,-45.8C370,-36.91 370,-26.78 370,-19.75"/>
<polygon fill="midnightblue" stroke="midnightblue" points="366.5,-46.08 370,-56.08 373.5,-46.08 366.5,-46.08"/>
</g>
<!-- Node7 -->
<g id="node7" class="node">
<title>Node7</title>
<g id="a_node7"><a xlink:href="a00365.html" target="_top" xlink:title=" ">
<polygon fill="white" stroke="black" points="424,-0.5 424,-19.5 524,-19.5 524,-0.5 424,-0.5"/>
<text text-anchor="middle" x="474" y="-7.5" font-family="Helvetica,sans-Serif" font-size="10.00">MessageChain.cpp</text>
</a>
</g>
</g>
<!-- Node1&#45;&gt;Node7 -->
<g id="edge6" class="edge">
<title>Node1&#45;&gt;Node7</title>
<path fill="none" stroke="midnightblue" d="M395.83,-51.59C415.06,-41.61 440.74,-28.27 457.33,-19.65"/>
<polygon fill="midnightblue" stroke="midnightblue" points="393.97,-48.61 386.71,-56.32 397.2,-54.82 393.97,-48.61"/>
</g>
<!-- Node8 -->
<g id="node8" class="node">
<title>Node8</title>
<g id="a_node8"><a xlink:href="a00371.html" target="_top" xlink:title=" ">
<polygon fill="white" stroke="black" points="542.5,-0.5 542.5,-19.5 621.5,-19.5 621.5,-0.5 542.5,-0.5"/>
<text text-anchor="middle" x="582" y="-7.5" font-family="Helvetica,sans-Serif" font-size="10.00">MiraiCode.cpp</text>
</a>
</g>
</g>
<!-- Node1&#45;&gt;Node8 -->
<g id="edge7" class="edge">
<title>Node1&#45;&gt;Node8</title>
<path fill="none" stroke="midnightblue" d="M404.09,-56.32C443.84,-46.19 509.13,-29.56 548.59,-19.51"/>
<polygon fill="midnightblue" stroke="midnightblue" points="403.15,-52.95 394.32,-58.81 404.87,-59.73 403.15,-52.95"/>
</g>
<!-- Node9 -->
<g id="node9" class="node">
<title>Node9</title>
<g id="a_node9"><a xlink:href="a00380.html" target="_top" xlink:title=" ">
<polygon fill="white" stroke="black" points="640,-0.5 640,-19.5 742,-19.5 742,-0.5 640,-0.5"/>
<text text-anchor="middle" x="691" y="-7.5" font-family="Helvetica,sans-Serif" font-size="10.00">SingleMessage.cpp</text>
</a>
</g>
</g>
<!-- Node1&#45;&gt;Node9 -->
<g id="edge8" class="edge">
<title>Node1&#45;&gt;Node9</title>
<path fill="none" stroke="midnightblue" d="M404.01,-59.28C460.61,-49.76 574.43,-30.61 640.46,-19.5"/>
<polygon fill="midnightblue" stroke="midnightblue" points="403.41,-55.83 394.13,-60.94 404.57,-62.73 403.41,-55.83"/>
</g>
<!-- Node10 -->
<g id="node10" class="node">
<title>Node10</title>
<g id="a_node10"><a xlink:href="a00386.html" target="_top" xlink:title=" ">
<polygon fill="white" stroke="black" points="760.5,-0.5 760.5,-19.5 819.5,-19.5 819.5,-0.5 760.5,-0.5"/>
<text text-anchor="middle" x="790" y="-7.5" font-family="Helvetica,sans-Serif" font-size="10.00">Tools.cpp</text>
</a>
</g>
</g>
<!-- Node1&#45;&gt;Node10 -->
<g id="edge9" class="edge">
<title>Node1&#45;&gt;Node10</title>
<path fill="none" stroke="midnightblue" d="M404.19,-62.22C471.1,-56.51 623.93,-42.1 751,-20 754.01,-19.48 757.14,-18.87 760.26,-18.22"/>
<polygon fill="midnightblue" stroke="midnightblue" points="403.87,-58.74 394.2,-63.07 404.46,-65.71 403.87,-58.74"/>
</g>
</g>
</svg>
