<?xml version="1.0" encoding="UTF-8" standalone="no"?>
<!DOCTYPE svg PUBLIC "-//W3C//DTD SVG 1.1//EN"
 "http://www.w3.org/Graphics/SVG/1.1/DTD/svg11.dtd">
<!-- Generated by graphviz version 2.50.0 (20211204.2007)
 -->
<!-- Title: KtOperation.h Pages: 1 -->
<svg width="1553pt" height="364pt"
 viewBox="0.00 0.00 1553.05 364.00" xmlns="http://www.w3.org/2000/svg" xmlns:xlink="http://www.w3.org/1999/xlink">
<g id="graph0" class="graph" transform="scale(1 1) rotate(0) translate(4 360)">
<title>KtOperation.h</title>
<polygon fill="white" stroke="transparent" points="-4,4 -4,-360 1549.05,-360 1549.05,4 -4,4"/>
<!-- Node1 -->
<g id="node1" class="node">
<title>Node1</title>
<g id="a_node1"><a xlink:title=" ">
<polygon fill="#bfbfbf" stroke="black" points="894,-336.5 894,-355.5 971,-355.5 971,-336.5 894,-336.5"/>
<text text-anchor="middle" x="932.5" y="-343.5" font-family="Helvetica,sans-Serif" font-size="10.00">KtOperation.h</text>
</a>
</g>
</g>
<!-- Node2 -->
<g id="node2" class="node">
<title>Node2</title>
<g id="a_node2"><a xlink:href="a00233.html" target="_top" xlink:title=" ">
<polygon fill="white" stroke="black" points="268.5,-168.5 268.5,-187.5 318.5,-187.5 318.5,-168.5 268.5,-168.5"/>
<text text-anchor="middle" x="293.5" y="-175.5" font-family="Helvetica,sans-Serif" font-size="10.00">Bot.cpp</text>
</a>
</g>
</g>
<!-- Node1&#45;&gt;Node2 -->
<g id="edge1" class="edge">
<title>Node1&#45;&gt;Node2</title>
<path fill="none" stroke="midnightblue" d="M883.7,-342.31C805.16,-337.42 646.1,-325.15 513.5,-300 421.13,-282.48 375.09,-311.36 309.5,-244 294.58,-228.68 292.84,-201.8 293.04,-187.9"/>
<polygon fill="midnightblue" stroke="midnightblue" points="883.58,-345.81 893.78,-342.93 884.01,-338.83 883.58,-345.81"/>
</g>
<!-- Node3 -->
<g id="node3" class="node">
<title>Node3</title>
<g id="a_node3"><a xlink:href="a00074.html" target="_top" xlink:title=" ">
<polygon fill="white" stroke="black" points="105,-168.5 105,-187.5 174,-187.5 174,-168.5 105,-168.5"/>
<text text-anchor="middle" x="139.5" y="-175.5" font-family="Helvetica,sans-Serif" font-size="10.00">Command.h</text>
</a>
</g>
</g>
<!-- Node1&#45;&gt;Node3 -->
<g id="edge2" class="edge">
<title>Node1&#45;&gt;Node3</title>
<path fill="none" stroke="midnightblue" d="M883.71,-345.03C727.21,-344.71 244.74,-340.42 188.5,-300 150.41,-272.62 141.88,-210.41 140.01,-187.59"/>
<polygon fill="midnightblue" stroke="midnightblue" points="883.97,-348.53 893.97,-345.04 883.98,-341.53 883.97,-348.53"/>
</g>
<!-- Node5 -->
<g id="node5" class="node">
<title>Node5</title>
<g id="a_node5"><a xlink:href="a00245.html" target="_top" xlink:title=" ">
<polygon fill="white" stroke="black" points="168,-112.5 168,-131.5 227,-131.5 227,-112.5 168,-112.5"/>
<text text-anchor="middle" x="197.5" y="-119.5" font-family="Helvetica,sans-Serif" font-size="10.00">Event.cpp</text>
</a>
</g>
</g>
<!-- Node1&#45;&gt;Node5 -->
<g id="edge51" class="edge">
<title>Node1&#45;&gt;Node5</title>
<path fill="none" stroke="midnightblue" d="M883.89,-345.19C762.82,-345.04 450.84,-340.59 356.5,-300 274.16,-264.58 217.17,-162.03 201.71,-131.61"/>
<polygon fill="midnightblue" stroke="midnightblue" points="883.97,-348.69 893.97,-345.19 883.98,-341.69 883.97,-348.69"/>
</g>
<!-- Node6 -->
<g id="node6" class="node">
<title>Node6</title>
<g id="a_node6"><a xlink:href="a00125.html" target="_top" xlink:title=" ">
<polygon fill="white" stroke="black" points="512.5,-56.5 512.5,-75.5 582.5,-75.5 582.5,-56.5 512.5,-56.5"/>
<text text-anchor="middle" x="547.5" y="-63.5" font-family="Helvetica,sans-Serif" font-size="10.00">MiraiCP.hpp</text>
</a>
</g>
</g>
<!-- Node1&#45;&gt;Node6 -->
<g id="edge60" class="edge">
<title>Node1&#45;&gt;Node6</title>
<path fill="none" stroke="midnightblue" d="M948.74,-328.9C980.24,-295.72 1043.11,-218.61 1002.5,-168 949.58,-102.05 679.8,-76.46 582.53,-69.29"/>
<polygon fill="midnightblue" stroke="midnightblue" points="945.96,-326.74 941.49,-336.34 950.97,-331.62 945.96,-326.74"/>
</g>
<!-- Node18 -->
<g id="node18" class="node">
<title>Node18</title>
<g id="a_node18"><a xlink:href="a00239.html" target="_top" xlink:title=" ">
<polygon fill="white" stroke="black" points="442,-168.5 442,-187.5 511,-187.5 511,-168.5 442,-168.5"/>
<text text-anchor="middle" x="476.5" y="-175.5" font-family="Helvetica,sans-Serif" font-size="10.00">Contact.cpp</text>
</a>
</g>
</g>
<!-- Node1&#45;&gt;Node18 -->
<g id="edge17" class="edge">
<title>Node1&#45;&gt;Node18</title>
<path fill="none" stroke="midnightblue" d="M883.71,-343.42C793.69,-339.83 605.37,-329.01 547.5,-300 516.86,-284.64 511.35,-273.84 494.5,-244 484.02,-225.44 479.34,-200.42 477.52,-187.5"/>
<polygon fill="midnightblue" stroke="midnightblue" points="883.8,-346.92 893.93,-343.81 884.07,-339.93 883.8,-346.92"/>
</g>
<!-- Node19 -->
<g id="node19" class="node">
<title>Node19</title>
<g id="a_node19"><a xlink:href="a00077.html" target="_top" xlink:title=" ">
<polygon fill="white" stroke="black" points="556,-280.5 556,-299.5 615,-299.5 615,-280.5 556,-280.5"/>
<text text-anchor="middle" x="585.5" y="-287.5" font-family="Helvetica,sans-Serif" font-size="10.00">Contact.h</text>
</a>
</g>
</g>
<!-- Node1&#45;&gt;Node19 -->
<g id="edge18" class="edge">
<title>Node1&#45;&gt;Node19</title>
<path fill="none" stroke="midnightblue" d="M883.82,-337.42C810.72,-326.05 674.79,-304.9 615.01,-295.59"/>
<polygon fill="midnightblue" stroke="midnightblue" points="883.29,-340.88 893.7,-338.96 884.36,-333.97 883.29,-340.88"/>
</g>
<!-- Node24 -->
<g id="node24" class="node">
<title>Node24</title>
<g id="a_node24"><a xlink:href="a00296.html" target="_top" xlink:title=" ">
<polygon fill="white" stroke="black" points="1088,-112.5 1088,-131.5 1141,-131.5 1141,-112.5 1088,-112.5"/>
<text text-anchor="middle" x="1114.5" y="-119.5" font-family="Helvetica,sans-Serif" font-size="10.00">utils.cpp</text>
</a>
</g>
</g>
<!-- Node1&#45;&gt;Node24 -->
<g id="edge62" class="edge">
<title>Node1&#45;&gt;Node24</title>
<path fill="none" stroke="midnightblue" d="M981.15,-344.99C1115.98,-344.48 1486.94,-339.45 1523.5,-300 1639.99,-174.3 1248.71,-133.61 1141.13,-124.93"/>
<polygon fill="midnightblue" stroke="midnightblue" points="981.09,-341.49 971.1,-345.03 981.11,-348.49 981.09,-341.49"/>
</g>
<!-- Node25 -->
<g id="node25" class="node">
<title>Node25</title>
<g id="a_node25"><a xlink:href="a01238.html" target="_top" xlink:title=" ">
<polygon fill="white" stroke="black" points="708.5,-224.5 708.5,-243.5 828.5,-243.5 828.5,-224.5 708.5,-224.5"/>
<text text-anchor="middle" x="768.5" y="-231.5" font-family="Helvetica,sans-Serif" font-size="10.00">ForwardedMessage.cpp</text>
</a>
</g>
</g>
<!-- Node1&#45;&gt;Node25 -->
<g id="edge52" class="edge">
<title>Node1&#45;&gt;Node25</title>
<path fill="none" stroke="midnightblue" d="M902.22,-332.23C884.24,-324.07 861.33,-312.67 842.5,-300 816.68,-282.63 790.17,-257.1 777,-243.8"/>
<polygon fill="midnightblue" stroke="midnightblue" points="901.09,-335.56 911.65,-336.41 903.93,-329.16 901.09,-335.56"/>
</g>
<!-- Node27 -->
<g id="node27" class="node">
<title>Node27</title>
<g id="a_node27"><a xlink:href="a00254.html" target="_top" xlink:title=" ">
<polygon fill="white" stroke="black" points="567.5,-168.5 567.5,-187.5 629.5,-187.5 629.5,-168.5 567.5,-168.5"/>
<text text-anchor="middle" x="598.5" y="-175.5" font-family="Helvetica,sans-Serif" font-size="10.00">Friend.cpp</text>
</a>
</g>
</g>
<!-- Node1&#45;&gt;Node27 -->
<g id="edge53" class="edge">
<title>Node1&#45;&gt;Node27</title>
<path fill="none" stroke="midnightblue" d="M921.27,-327.82C901.21,-297.65 859.28,-237.12 837.5,-224 760.51,-177.63 726.59,-205.87 638.5,-188 635.71,-187.43 632.81,-186.83 629.92,-186.2"/>
<polygon fill="midnightblue" stroke="midnightblue" points="918.54,-330.03 926.96,-336.45 924.38,-326.17 918.54,-330.03"/>
</g>
<!-- Node29 -->
<g id="node29" class="node">
<title>Node29</title>
<g id="a_node29"><a xlink:href="a01244.html" target="_top" xlink:title=" ">
<polygon fill="white" stroke="black" points="647.5,-168.5 647.5,-187.5 709.5,-187.5 709.5,-168.5 647.5,-168.5"/>
<text text-anchor="middle" x="678.5" y="-175.5" font-family="Helvetica,sans-Serif" font-size="10.00">Group.cpp</text>
</a>
</g>
</g>
<!-- Node1&#45;&gt;Node29 -->
<g id="edge54" class="edge">
<title>Node1&#45;&gt;Node29</title>
<path fill="none" stroke="midnightblue" d="M928.23,-326.37C921.07,-299.5 904.01,-250.21 870.5,-224 823.31,-187.09 750.91,-179.61 709.83,-178.58"/>
<polygon fill="midnightblue" stroke="midnightblue" points="924.91,-327.52 930.71,-336.38 931.7,-325.84 924.91,-327.52"/>
</g>
<!-- Node30 -->
<g id="node30" class="node">
<title>Node30</title>
<g id="a_node30"><a xlink:href="a00275.html" target="_top" xlink:title=" ">
<polygon fill="white" stroke="black" points="803.5,-168.5 803.5,-187.5 903.5,-187.5 903.5,-168.5 803.5,-168.5"/>
<text text-anchor="middle" x="853.5" y="-175.5" font-family="Helvetica,sans-Serif" font-size="10.00">MessageChain.cpp</text>
</a>
</g>
</g>
<!-- Node1&#45;&gt;Node30 -->
<g id="edge58" class="edge">
<title>Node1&#45;&gt;Node30</title>
<path fill="none" stroke="midnightblue" d="M932.61,-326.08C931.93,-301.01 927.81,-256.18 908.5,-224 898.98,-208.13 881.73,-195.41 869.08,-187.59"/>
<polygon fill="midnightblue" stroke="midnightblue" points="929.11,-326.42 932.72,-336.38 936.11,-326.35 929.11,-326.42"/>
</g>
<!-- Node32 -->
<g id="node32" class="node">
<title>Node32</title>
<g id="a_node32"><a xlink:href="a01256.html" target="_top" xlink:title=" ">
<polygon fill="white" stroke="black" points="922,-168.5 922,-187.5 993,-187.5 993,-168.5 922,-168.5"/>
<text text-anchor="middle" x="957.5" y="-175.5" font-family="Helvetica,sans-Serif" font-size="10.00">Member.cpp</text>
</a>
</g>
</g>
<!-- Node1&#45;&gt;Node32 -->
<g id="edge57" class="edge">
<title>Node1&#45;&gt;Node32</title>
<path fill="none" stroke="midnightblue" d="M939.16,-326.67C941.85,-318.59 944.73,-308.93 946.5,-300 954.76,-258.41 956.83,-207.54 957.34,-187.6"/>
<polygon fill="midnightblue" stroke="midnightblue" points="935.84,-325.58 935.85,-336.18 942.45,-327.89 935.84,-325.58"/>
</g>
<!-- Node33 -->
<g id="node33" class="node">
<title>Node33</title>
<g id="a_node33"><a xlink:href="a00263.html" target="_top" xlink:title=" ">
<polygon fill="white" stroke="black" points="1075,-280.5 1075,-299.5 1162,-299.5 1162,-280.5 1075,-280.5"/>
<text text-anchor="middle" x="1118.5" y="-287.5" font-family="Helvetica,sans-Serif" font-size="10.00">KtOperation.cpp</text>
</a>
</g>
</g>
<!-- Node1&#45;&gt;Node33 -->
<g id="edge55" class="edge">
<title>Node1&#45;&gt;Node33</title>
<path fill="none" stroke="midnightblue" d="M971.88,-333.57C1006.97,-323.38 1057.52,-308.7 1089.17,-299.52"/>
<polygon fill="midnightblue" stroke="midnightblue" points="970.6,-330.29 961.97,-336.44 972.55,-337.02 970.6,-330.29"/>
</g>
<!-- Node34 -->
<g id="node34" class="node">
<title>Node34</title>
<g id="a_node34"><a xlink:href="a00269.html" target="_top" xlink:title=" ">
<polygon fill="white" stroke="black" points="1180.5,-280.5 1180.5,-299.5 1270.5,-299.5 1270.5,-280.5 1180.5,-280.5"/>
<text text-anchor="middle" x="1225.5" y="-287.5" font-family="Helvetica,sans-Serif" font-size="10.00">LowLevelAPI.cpp</text>
</a>
</g>
</g>
<!-- Node1&#45;&gt;Node34 -->
<g id="edge56" class="edge">
<title>Node1&#45;&gt;Node34</title>
<path fill="none" stroke="midnightblue" d="M981.02,-336.06C1036.34,-325.86 1126.07,-309.32 1180.07,-299.37"/>
<polygon fill="midnightblue" stroke="midnightblue" points="980.31,-332.63 971.11,-337.88 981.57,-339.51 980.31,-332.63"/>
</g>
<!-- Node35 -->
<g id="node35" class="node">
<title>Node35</title>
<g id="a_node35"><a xlink:href="a00278.html" target="_top" xlink:title=" ">
<polygon fill="white" stroke="black" points="1288.5,-280.5 1288.5,-299.5 1394.5,-299.5 1394.5,-280.5 1288.5,-280.5"/>
<text text-anchor="middle" x="1341.5" y="-287.5" font-family="Helvetica,sans-Serif" font-size="10.00">MessageSource.cpp</text>
</a>
</g>
</g>
<!-- Node1&#45;&gt;Node35 -->
<g id="edge59" class="edge">
<title>Node1&#45;&gt;Node35</title>
<path fill="none" stroke="midnightblue" d="M981.31,-338.91C1048.5,-330.47 1173.25,-314.6 1279.5,-300 1282.41,-299.6 1285.39,-299.18 1288.41,-298.76"/>
<polygon fill="midnightblue" stroke="midnightblue" points="980.52,-335.48 971.04,-340.2 981.39,-342.42 980.52,-335.48"/>
</g>
<!-- Node36 -->
<g id="node36" class="node">
<title>Node36</title>
<g id="a_node36"><a xlink:href="a00287.html" target="_top" xlink:title=" ">
<polygon fill="white" stroke="black" points="1412.5,-280.5 1412.5,-299.5 1514.5,-299.5 1514.5,-280.5 1412.5,-280.5"/>
<text text-anchor="middle" x="1463.5" y="-287.5" font-family="Helvetica,sans-Serif" font-size="10.00">SingleMessage.cpp</text>
</a>
</g>
</g>
<!-- Node1&#45;&gt;Node36 -->
<g id="edge61" class="edge">
<title>Node1&#45;&gt;Node36</title>
<path fill="none" stroke="midnightblue" d="M981.23,-341.21C1066.83,-334.36 1249.7,-318.87 1403.5,-300 1406.43,-299.64 1409.43,-299.25 1412.46,-298.85"/>
<polygon fill="midnightblue" stroke="midnightblue" points="980.73,-337.74 971.04,-342.02 981.29,-344.72 980.73,-337.74"/>
</g>
<!-- Node37 -->
<g id="node37" class="node">
<title>Node37</title>
<g id="a_node37"><a xlink:href="a00143.html" target="_top" xlink:title=" ">
<polygon fill="white" stroke="black" points="1050,-168.5 1050,-187.5 1093,-187.5 1093,-168.5 1050,-168.5"/>
<text text-anchor="middle" x="1071.5" y="-175.5" font-family="Helvetica,sans-Serif" font-size="10.00">utils.h</text>
</a>
</g>
</g>
<!-- Node1&#45;&gt;Node37 -->
<g id="edge63" class="edge">
<title>Node1&#45;&gt;Node37</title>
<path fill="none" stroke="midnightblue" d="M971.27,-332.78C988.83,-325.6 1008.7,-314.94 1022.5,-300 1053.88,-266.04 1066.36,-209.37 1070.14,-187.75"/>
<polygon fill="midnightblue" stroke="midnightblue" points="969.89,-329.56 961.81,-336.42 972.4,-336.1 969.89,-329.56"/>
</g>
<!-- Node4 -->
<g id="node4" class="node">
<title>Node4</title>
<g id="a_node4"><a xlink:href="a01232.html" target="_top" xlink:title=" ">
<polygon fill="white" stroke="black" points="31.5,-112.5 31.5,-131.5 111.5,-131.5 111.5,-112.5 31.5,-112.5"/>
<text text-anchor="middle" x="71.5" y="-119.5" font-family="Helvetica,sans-Serif" font-size="10.00">Command.cpp</text>
</a>
</g>
</g>
<!-- Node3&#45;&gt;Node4 -->
<g id="edge3" class="edge">
<title>Node3&#45;&gt;Node4</title>
<path fill="none" stroke="midnightblue" d="M120.74,-162.1C108.5,-152.38 92.94,-140.03 82.62,-131.83"/>
<polygon fill="midnightblue" stroke="midnightblue" points="118.57,-164.85 128.57,-168.32 122.92,-159.36 118.57,-164.85"/>
</g>
<!-- Node3&#45;&gt;Node5 -->
<g id="edge4" class="edge">
<title>Node3&#45;&gt;Node5</title>
<path fill="none" stroke="midnightblue" d="M156.41,-161.25C166.7,-151.67 179.47,-139.79 188.01,-131.83"/>
<polygon fill="midnightblue" stroke="midnightblue" points="153.75,-158.95 148.82,-168.32 158.52,-164.07 153.75,-158.95"/>
</g>
<!-- Node3&#45;&gt;Node6 -->
<g id="edge5" class="edge">
<title>Node3&#45;&gt;Node6</title>
<path fill="none" stroke="midnightblue" d="M139.68,-158.11C140.92,-143.25 145.18,-123.24 158.5,-112 211.5,-67.28 427.05,-65.26 512.43,-66.28"/>
<polygon fill="midnightblue" stroke="midnightblue" points="136.18,-158.1 139.24,-168.24 143.18,-158.41 136.18,-158.1"/>
</g>
<!-- Node7 -->
<g id="node7" class="node">
<title>Node7</title>
<g id="a_node7"><a xlink:href="a00146.html" target="_top" xlink:title=" ">
<polygon fill="white" stroke="black" points="0,-0.5 0,-19.5 101,-19.5 101,-0.5 0,-0.5"/>
<text text-anchor="middle" x="50.5" y="-7.5" font-family="Helvetica,sans-Serif" font-size="10.00">callbackHandle.cpp</text>
</a>
</g>
</g>
<!-- Node6&#45;&gt;Node7 -->
<g id="edge6" class="edge">
<title>Node6&#45;&gt;Node7</title>
<path fill="none" stroke="midnightblue" d="M502.17,-61.03C422.71,-53.91 253.16,-38.03 110.5,-20 107.47,-19.62 104.36,-19.21 101.22,-18.78"/>
<polygon fill="midnightblue" stroke="midnightblue" points="502.05,-64.53 512.32,-61.93 502.67,-57.56 502.05,-64.53"/>
</g>
<!-- Node8 -->
<g id="node8" class="node">
<title>Node8</title>
<g id="a_node8"><a xlink:href="a01229.html" target="_top" xlink:title=" ">
<polygon fill="white" stroke="black" points="119.5,-0.5 119.5,-19.5 197.5,-19.5 197.5,-0.5 119.5,-0.5"/>
<text text-anchor="middle" x="158.5" y="-7.5" font-family="Helvetica,sans-Serif" font-size="10.00">command.cpp</text>
</a>
</g>
</g>
<!-- Node6&#45;&gt;Node8 -->
<g id="edge7" class="edge">
<title>Node6&#45;&gt;Node8</title>
<path fill="none" stroke="midnightblue" d="M502.08,-59.8C436.61,-52.12 312.01,-36.84 206.5,-20 203.57,-19.53 200.54,-19.02 197.5,-18.5"/>
<polygon fill="midnightblue" stroke="midnightblue" points="501.73,-63.28 512.06,-60.96 502.54,-56.33 501.73,-63.28"/>
</g>
<!-- Node9 -->
<g id="node9" class="node">
<title>Node9</title>
<g id="a_node9"><a xlink:href="a01235.html" target="_top" xlink:title=" ">
<polygon fill="white" stroke="black" points="215.5,-0.5 215.5,-19.5 331.5,-19.5 331.5,-0.5 215.5,-0.5"/>
<text text-anchor="middle" x="273.5" y="-7.5" font-family="Helvetica,sans-Serif" font-size="10.00">forwardedMessage.cpp</text>
</a>
</g>
</g>
<!-- Node6&#45;&gt;Node9 -->
<g id="edge8" class="edge">
<title>Node6&#45;&gt;Node9</title>
<path fill="none" stroke="midnightblue" d="M502.4,-56.11C450.95,-45.97 367.41,-29.51 316.74,-19.52"/>
<polygon fill="midnightblue" stroke="midnightblue" points="501.75,-59.55 512.24,-58.05 503.11,-52.68 501.75,-59.55"/>
</g>
<!-- Node10 -->
<g id="node10" class="node">
<title>Node10</title>
<g id="a_node10"><a xlink:href="a01241.html" target="_top" xlink:title=" ">
<polygon fill="white" stroke="black" points="350,-0.5 350,-19.5 409,-19.5 409,-0.5 350,-0.5"/>
<text text-anchor="middle" x="379.5" y="-7.5" font-family="Helvetica,sans-Serif" font-size="10.00">group.cpp</text>
</a>
</g>
</g>
<!-- Node6&#45;&gt;Node10 -->
<g id="edge9" class="edge">
<title>Node6&#45;&gt;Node10</title>
<path fill="none" stroke="midnightblue" d="M511.11,-53.3C479.46,-43.13 434.33,-28.62 406,-19.52"/>
<polygon fill="midnightblue" stroke="midnightblue" points="510.29,-56.72 520.88,-56.44 512.43,-50.05 510.29,-56.72"/>
</g>
<!-- Node11 -->
<g id="node11" class="node">
<title>Node11</title>
<g id="a_node11"><a xlink:href="a00161.html" target="_top" xlink:title=" ">
<polygon fill="white" stroke="black" points="427,-0.5 427,-19.5 498,-19.5 498,-0.5 427,-0.5"/>
<text text-anchor="middle" x="462.5" y="-7.5" font-family="Helvetica,sans-Serif" font-size="10.00">lightApp.cpp</text>
</a>
</g>
</g>
<!-- Node6&#45;&gt;Node11 -->
<g id="edge10" class="edge">
<title>Node6&#45;&gt;Node11</title>
<path fill="none" stroke="midnightblue" d="M525.31,-50.9C509.72,-41 489.37,-28.07 476.12,-19.65"/>
<polygon fill="midnightblue" stroke="midnightblue" points="523.53,-53.92 533.84,-56.32 527.28,-48.01 523.53,-53.92"/>
</g>
<!-- Node12 -->
<g id="node12" class="node">
<title>Node12</title>
<g id="a_node12"><a xlink:href="a01247.html" target="_top" xlink:title=" ">
<polygon fill="white" stroke="black" points="516.5,-0.5 516.5,-19.5 578.5,-19.5 578.5,-0.5 516.5,-0.5"/>
<text text-anchor="middle" x="547.5" y="-7.5" font-family="Helvetica,sans-Serif" font-size="10.00">logger.cpp</text>
</a>
</g>
</g>
<!-- Node6&#45;&gt;Node12 -->
<g id="edge11" class="edge">
<title>Node6&#45;&gt;Node12</title>
<path fill="none" stroke="midnightblue" d="M547.5,-45.8C547.5,-36.91 547.5,-26.78 547.5,-19.75"/>
<polygon fill="midnightblue" stroke="midnightblue" points="544,-46.08 547.5,-56.08 551,-46.08 544,-46.08"/>
</g>
<!-- Node13 -->
<g id="node13" class="node">
<title>Node13</title>
<g id="a_node13"><a xlink:href="a01253.html" target="_top" xlink:title=" ">
<polygon fill="white" stroke="black" points="597,-0.5 597,-19.5 668,-19.5 668,-0.5 597,-0.5"/>
<text text-anchor="middle" x="632.5" y="-7.5" font-family="Helvetica,sans-Serif" font-size="10.00">member.cpp</text>
</a>
</g>
</g>
<!-- Node6&#45;&gt;Node13 -->
<g id="edge12" class="edge">
<title>Node6&#45;&gt;Node13</title>
<path fill="none" stroke="midnightblue" d="M569.69,-50.9C585.28,-41 605.63,-28.07 618.88,-19.65"/>
<polygon fill="midnightblue" stroke="midnightblue" points="567.72,-48.01 561.16,-56.32 571.47,-53.92 567.72,-48.01"/>
</g>
<!-- Node14 -->
<g id="node14" class="node">
<title>Node14</title>
<g id="a_node14"><a xlink:href="a00170.html" target="_top" xlink:title=" ">
<polygon fill="white" stroke="black" points="686,-0.5 686,-19.5 761,-19.5 761,-0.5 686,-0.5"/>
<text text-anchor="middle" x="723.5" y="-7.5" font-family="Helvetica,sans-Serif" font-size="10.00">message.cpp</text>
</a>
</g>
</g>
<!-- Node6&#45;&gt;Node14 -->
<g id="edge13" class="edge">
<title>Node6&#45;&gt;Node14</title>
<path fill="none" stroke="midnightblue" d="M585.19,-53.44C618.37,-43.26 665.93,-28.66 695.74,-19.52"/>
<polygon fill="midnightblue" stroke="midnightblue" points="583.92,-50.16 575.39,-56.44 585.97,-56.86 583.92,-50.16"/>
</g>
<!-- Node15 -->
<g id="node15" class="node">
<title>Node15</title>
<g id="a_node15"><a xlink:href="a00173.html" target="_top" xlink:title=" ">
<polygon fill="white" stroke="black" points="779.5,-0.5 779.5,-19.5 873.5,-19.5 873.5,-0.5 779.5,-0.5"/>
<text text-anchor="middle" x="826.5" y="-7.5" font-family="Helvetica,sans-Serif" font-size="10.00">nextMessage.cpp</text>
</a>
</g>
</g>
<!-- Node6&#45;&gt;Node15 -->
<g id="edge14" class="edge">
<title>Node6&#45;&gt;Node15</title>
<path fill="none" stroke="midnightblue" d="M592.53,-56.28C644.74,-46.18 730.26,-29.63 782.17,-19.58"/>
<polygon fill="midnightblue" stroke="midnightblue" points="591.71,-52.88 582.55,-58.22 593.04,-59.75 591.71,-52.88"/>
</g>
<!-- Node16 -->
<g id="node16" class="node">
<title>Node16</title>
<g id="a_node16"><a xlink:href="a01259.html" target="_top" xlink:title=" ">
<polygon fill="white" stroke="black" points="891.5,-0.5 891.5,-19.5 965.5,-19.5 965.5,-0.5 891.5,-0.5"/>
<text text-anchor="middle" x="928.5" y="-7.5" font-family="Helvetica,sans-Serif" font-size="10.00">schedule.cpp</text>
</a>
</g>
</g>
<!-- Node6&#45;&gt;Node16 -->
<g id="edge15" class="edge">
<title>Node6&#45;&gt;Node16</title>
<path fill="none" stroke="midnightblue" d="M593.05,-59.76C657.62,-52.12 779.39,-37 882.5,-20 885.39,-19.52 888.38,-19 891.38,-18.46"/>
<polygon fill="midnightblue" stroke="midnightblue" points="592.33,-56.32 582.81,-60.96 593.15,-63.27 592.33,-56.32"/>
</g>
<!-- Node17 -->
<g id="node17" class="node">
<title>Node17</title>
<g id="a_node17"><a xlink:href="a00179.html" target="_top" xlink:title=" ">
<polygon fill="white" stroke="black" points="983.5,-0.5 983.5,-19.5 1045.5,-19.5 1045.5,-0.5 983.5,-0.5"/>
<text text-anchor="middle" x="1014.5" y="-7.5" font-family="Helvetica,sans-Serif" font-size="10.00">thread.cpp</text>
</a>
</g>
</g>
<!-- Node6&#45;&gt;Node17 -->
<g id="edge16" class="edge">
<title>Node6&#45;&gt;Node17</title>
<path fill="none" stroke="midnightblue" d="M592.54,-61.99C670.66,-56.37 836.18,-42.77 974.5,-20 977.31,-19.54 980.22,-19 983.12,-18.42"/>
<polygon fill="midnightblue" stroke="midnightblue" points="592.28,-58.49 582.55,-62.69 592.78,-65.48 592.28,-58.49"/>
</g>
<!-- Node19&#45;&gt;Node6 -->
<g id="edge50" class="edge">
<title>Node19&#45;&gt;Node6</title>
<path fill="none" stroke="midnightblue" d="M610.06,-275.51C625.18,-266.94 644.81,-255.36 661.5,-244 699.96,-217.81 748.95,-211.89 733.5,-168 722.9,-137.88 714.83,-130.07 688.5,-112 656.4,-89.97 612.91,-78.26 582.76,-72.36"/>
<polygon fill="midnightblue" stroke="midnightblue" points="608.3,-272.48 601.29,-280.42 611.72,-278.59 608.3,-272.48"/>
</g>
<!-- Node19&#45;&gt;Node18 -->
<g id="edge29" class="edge">
<title>Node19&#45;&gt;Node18</title>
<path fill="none" stroke="midnightblue" d="M558.03,-275.65C543.85,-267.82 526.97,-256.92 514.5,-244 497.98,-226.88 485.74,-201.25 480.05,-187.86"/>
<polygon fill="midnightblue" stroke="midnightblue" points="556.41,-278.75 566.88,-280.35 559.69,-272.57 556.41,-278.75"/>
</g>
<!-- Node20 -->
<g id="node20" class="node">
<title>Node20</title>
<g id="a_node20"><a xlink:href="a00071.html" target="_top" xlink:title=" ">
<polygon fill="white" stroke="black" points="318.5,-224.5 318.5,-243.5 358.5,-243.5 358.5,-224.5 318.5,-224.5"/>
<text text-anchor="middle" x="338.5" y="-231.5" font-family="Helvetica,sans-Serif" font-size="10.00">Bot.h</text>
</a>
</g>
</g>
<!-- Node19&#45;&gt;Node20 -->
<g id="edge19" class="edge">
<title>Node19&#45;&gt;Node20</title>
<path fill="none" stroke="midnightblue" d="M545.68,-281.99C501.77,-273.97 429.17,-259.89 367.5,-244 364.64,-243.26 361.65,-242.42 358.71,-241.55"/>
<polygon fill="midnightblue" stroke="midnightblue" points="545.21,-285.46 555.67,-283.79 546.45,-278.57 545.21,-285.46"/>
</g>
<!-- Node19&#45;&gt;Node25 -->
<g id="edge30" class="edge">
<title>Node19&#45;&gt;Node25</title>
<path fill="none" stroke="midnightblue" d="M624.24,-277.57C658.76,-267.38 708.51,-252.7 739.64,-243.52"/>
<polygon fill="midnightblue" stroke="midnightblue" points="623.1,-274.26 614.5,-280.44 625.08,-280.97 623.1,-274.26"/>
</g>
<!-- Node26 -->
<g id="node26" class="node">
<title>Node26</title>
<g id="a_node26"><a xlink:href="a00092.html" target="_top" xlink:title=" ">
<polygon fill="white" stroke="black" points="376.5,-224.5 376.5,-243.5 428.5,-243.5 428.5,-224.5 376.5,-224.5"/>
<text text-anchor="middle" x="402.5" y="-231.5" font-family="Helvetica,sans-Serif" font-size="10.00">Friend.h</text>
</a>
</g>
</g>
<!-- Node19&#45;&gt;Node26 -->
<g id="edge31" class="edge">
<title>Node19&#45;&gt;Node26</title>
<path fill="none" stroke="midnightblue" d="M546.49,-277.49C510.97,-267.01 459.51,-251.82 428.69,-242.73"/>
<polygon fill="midnightblue" stroke="midnightblue" points="545.92,-280.97 556.5,-280.44 547.9,-274.26 545.92,-280.97"/>
</g>
<!-- Node28 -->
<g id="node28" class="node">
<title>Node28</title>
<g id="a_node28"><a xlink:href="a00095.html" target="_top" xlink:title=" ">
<polygon fill="white" stroke="black" points="523,-224.5 523,-243.5 574,-243.5 574,-224.5 523,-224.5"/>
<text text-anchor="middle" x="548.5" y="-231.5" font-family="Helvetica,sans-Serif" font-size="10.00">Group.h</text>
</a>
</g>
</g>
<!-- Node19&#45;&gt;Node28 -->
<g id="edge37" class="edge">
<title>Node19&#45;&gt;Node28</title>
<path fill="none" stroke="midnightblue" d="M573.55,-271.57C567.19,-262.27 559.63,-251.25 554.5,-243.75"/>
<polygon fill="midnightblue" stroke="midnightblue" points="570.85,-273.81 579.39,-280.08 576.63,-269.86 570.85,-273.81"/>
</g>
<!-- Node31 -->
<g id="node31" class="node">
<title>Node31</title>
<g id="a_node31"><a xlink:href="a00113.html" target="_top" xlink:title=" ">
<polygon fill="white" stroke="black" points="592.5,-224.5 592.5,-243.5 652.5,-243.5 652.5,-224.5 592.5,-224.5"/>
<text text-anchor="middle" x="622.5" y="-231.5" font-family="Helvetica,sans-Serif" font-size="10.00">Member.h</text>
</a>
</g>
</g>
<!-- Node19&#45;&gt;Node31 -->
<g id="edge44" class="edge">
<title>Node19&#45;&gt;Node31</title>
<path fill="none" stroke="midnightblue" d="M597.45,-271.57C603.81,-262.27 611.37,-251.25 616.5,-243.75"/>
<polygon fill="midnightblue" stroke="midnightblue" points="594.37,-269.86 591.61,-280.08 600.15,-273.81 594.37,-269.86"/>
</g>
<!-- Node20&#45;&gt;Node2 -->
<g id="edge20" class="edge">
<title>Node20&#45;&gt;Node2</title>
<path fill="none" stroke="midnightblue" d="M324.45,-216.14C316.61,-206.74 307.17,-195.4 300.79,-187.75"/>
<polygon fill="midnightblue" stroke="midnightblue" points="321.98,-218.64 331.07,-224.08 327.36,-214.16 321.98,-218.64"/>
</g>
<!-- Node20&#45;&gt;Node6 -->
<g id="edge28" class="edge">
<title>Node20&#45;&gt;Node6</title>
<path fill="none" stroke="midnightblue" d="M308.67,-223.39C281.61,-212.84 247.64,-193.88 259.5,-168 275.39,-133.34 290.25,-128.76 324.5,-112 386.05,-81.88 466.6,-71.92 512.12,-68.62"/>
<polygon fill="midnightblue" stroke="midnightblue" points="307.63,-226.74 318.22,-226.9 310.04,-220.17 307.63,-226.74"/>
</g>
<!-- Node21 -->
<g id="node21" class="node">
<title>Node21</title>
<g id="a_node21"><a xlink:href="a00083.html" target="_top" xlink:title=" ">
<polygon fill="white" stroke="black" points="375,-168.5 375,-187.5 424,-187.5 424,-168.5 375,-168.5"/>
<text text-anchor="middle" x="399.5" y="-175.5" font-family="Helvetica,sans-Serif" font-size="10.00">Event.h</text>
</a>
</g>
</g>
<!-- Node20&#45;&gt;Node21 -->
<g id="edge21" class="edge">
<title>Node20&#45;&gt;Node21</title>
<path fill="none" stroke="midnightblue" d="M355.97,-217.54C366.84,-207.91 380.44,-195.87 389.52,-187.83"/>
<polygon fill="midnightblue" stroke="midnightblue" points="353.47,-215.07 348.3,-224.32 358.11,-220.32 353.47,-215.07"/>
</g>
<!-- Node21&#45;&gt;Node5 -->
<g id="edge22" class="edge">
<title>Node21&#45;&gt;Node5</title>
<path fill="none" stroke="midnightblue" d="M364.92,-167.76C326.08,-157.37 263.71,-140.7 227.06,-130.9"/>
<polygon fill="midnightblue" stroke="midnightblue" points="364.17,-171.18 374.73,-170.38 365.97,-164.41 364.17,-171.18"/>
</g>
<!-- Node21&#45;&gt;Node6 -->
<g id="edge23" class="edge">
<title>Node21&#45;&gt;Node6</title>
<path fill="none" stroke="midnightblue" d="M419.95,-162.65C432.33,-153.89 448.41,-142.42 462.5,-132 489.39,-112.12 520.49,-88.06 536.58,-75.53"/>
<polygon fill="midnightblue" stroke="midnightblue" points="417.82,-159.87 411.66,-168.49 421.85,-165.59 417.82,-159.87"/>
</g>
<!-- Node22 -->
<g id="node22" class="node">
<title>Node22</title>
<g id="a_node22"><a xlink:href="a00128.html" target="_top" xlink:title=" ">
<polygon fill="white" stroke="black" points="346,-112.5 346,-131.5 453,-131.5 453,-112.5 346,-112.5"/>
<text text-anchor="middle" x="399.5" y="-119.5" font-family="Helvetica,sans-Serif" font-size="10.00">MiraiCPNewThread.h</text>
</a>
</g>
</g>
<!-- Node21&#45;&gt;Node22 -->
<g id="edge24" class="edge">
<title>Node21&#45;&gt;Node22</title>
<path fill="none" stroke="midnightblue" d="M399.5,-157.8C399.5,-148.91 399.5,-138.78 399.5,-131.75"/>
<polygon fill="midnightblue" stroke="midnightblue" points="396,-158.08 399.5,-168.08 403,-158.08 396,-158.08"/>
</g>
<!-- Node23 -->
<g id="node23" class="node">
<title>Node23</title>
<g id="a_node23"><a xlink:href="a01262.html" target="_top" xlink:title=" ">
<polygon fill="white" stroke="black" points="509.5,-112.5 509.5,-131.5 585.5,-131.5 585.5,-112.5 509.5,-112.5"/>
<text text-anchor="middle" x="547.5" y="-119.5" font-family="Helvetica,sans-Serif" font-size="10.00">Schedule.cpp</text>
</a>
</g>
</g>
<!-- Node21&#45;&gt;Node23 -->
<g id="edge26" class="edge">
<title>Node21&#45;&gt;Node23</title>
<path fill="none" stroke="midnightblue" d="M432.65,-164.91C460.47,-154.75 499.52,-140.51 524.16,-131.52"/>
<polygon fill="midnightblue" stroke="midnightblue" points="431.15,-161.73 422.95,-168.44 433.54,-168.3 431.15,-161.73"/>
</g>
<!-- Node21&#45;&gt;Node24 -->
<g id="edge27" class="edge">
<title>Node21&#45;&gt;Node24</title>
<path fill="none" stroke="midnightblue" d="M434.25,-168.23C693.63,-126.58 997.68,-123.04 1088,-122.92"/>
<polygon fill="midnightblue" stroke="midnightblue" points="433.57,-164.79 424.26,-169.85 434.7,-171.7 433.57,-164.79"/>
</g>
<!-- Node22&#45;&gt;Node6 -->
<g id="edge25" class="edge">
<title>Node22&#45;&gt;Node6</title>
<path fill="none" stroke="midnightblue" d="M432.65,-108.91C460.47,-98.75 499.52,-84.51 524.16,-75.52"/>
<polygon fill="midnightblue" stroke="midnightblue" points="431.15,-105.73 422.95,-112.44 433.54,-112.3 431.15,-105.73"/>
</g>
<!-- Node26&#45;&gt;Node2 -->
<g id="edge32" class="edge">
<title>Node26&#45;&gt;Node2</title>
<path fill="none" stroke="midnightblue" d="M375.98,-219.86C355.77,-209.85 328.51,-196.35 310.97,-187.65"/>
<polygon fill="midnightblue" stroke="midnightblue" points="374.47,-223.02 384.99,-224.32 377.58,-216.75 374.47,-223.02"/>
</g>
<!-- Node26&#45;&gt;Node6 -->
<g id="edge36" class="edge">
<title>Node26&#45;&gt;Node6</title>
<path fill="none" stroke="midnightblue" d="M383.19,-217.78C355,-193.74 308.81,-146.22 336.5,-112 358.24,-85.14 458.24,-73.62 512.4,-69.28"/>
<polygon fill="midnightblue" stroke="midnightblue" points="381.32,-220.77 391.26,-224.44 385.77,-215.38 381.32,-220.77"/>
</g>
<!-- Node26&#45;&gt;Node18 -->
<g id="edge33" class="edge">
<title>Node26&#45;&gt;Node18</title>
<path fill="none" stroke="midnightblue" d="M422.53,-218.38C435.91,-208.62 453.06,-196.11 464.39,-187.83"/>
<polygon fill="midnightblue" stroke="midnightblue" points="420.4,-215.6 414.39,-224.32 424.53,-221.26 420.4,-215.6"/>
</g>
<!-- Node26&#45;&gt;Node21 -->
<g id="edge34" class="edge">
<title>Node26&#45;&gt;Node21</title>
<path fill="none" stroke="midnightblue" d="M401.43,-213.8C400.94,-204.91 400.38,-194.78 399.99,-187.75"/>
<polygon fill="midnightblue" stroke="midnightblue" points="397.96,-214.29 402,-224.08 404.94,-213.9 397.96,-214.29"/>
</g>
<!-- Node26&#45;&gt;Node27 -->
<g id="edge35" class="edge">
<title>Node26&#45;&gt;Node27</title>
<path fill="none" stroke="midnightblue" d="M438.39,-223.11C475.38,-212.92 532.44,-197.2 567.51,-187.54"/>
<polygon fill="midnightblue" stroke="midnightblue" points="437.24,-219.8 428.53,-225.83 439.1,-226.55 437.24,-219.8"/>
</g>
<!-- Node28&#45;&gt;Node2 -->
<g id="edge38" class="edge">
<title>Node28&#45;&gt;Node2</title>
<path fill="none" stroke="midnightblue" d="M512.79,-225.44C460.46,-214.36 364.22,-193.98 318.67,-184.33"/>
<polygon fill="midnightblue" stroke="midnightblue" points="512.14,-228.88 522.65,-227.53 513.59,-222.03 512.14,-228.88"/>
</g>
<!-- Node28&#45;&gt;Node6 -->
<g id="edge43" class="edge">
<title>Node28&#45;&gt;Node6</title>
<path fill="none" stroke="midnightblue" d="M548.32,-214.47C548.89,-200.93 551.16,-182.48 558.5,-168 568.73,-147.82 585.84,-152.91 594.5,-132 597.9,-123.79 597.99,-120.17 594.5,-112 587.85,-96.42 572.85,-83.65 561.58,-75.74"/>
<polygon fill="midnightblue" stroke="midnightblue" points="544.82,-214.44 548.17,-224.49 551.82,-214.55 544.82,-214.44"/>
</g>
<!-- Node28&#45;&gt;Node18 -->
<g id="edge39" class="edge">
<title>Node28&#45;&gt;Node18</title>
<path fill="none" stroke="midnightblue" d="M528.63,-218.1C515.68,-208.38 499.2,-196.03 488.28,-187.83"/>
<polygon fill="midnightblue" stroke="midnightblue" points="526.83,-221.12 536.93,-224.32 531.03,-215.52 526.83,-221.12"/>
</g>
<!-- Node28&#45;&gt;Node21 -->
<g id="edge40" class="edge">
<title>Node28&#45;&gt;Node21</title>
<path fill="none" stroke="midnightblue" d="M515.13,-220.91C487.12,-210.75 447.8,-196.51 423,-187.52"/>
<polygon fill="midnightblue" stroke="midnightblue" points="514.3,-224.33 524.89,-224.44 516.68,-217.75 514.3,-224.33"/>
</g>
<!-- Node28&#45;&gt;Node29 -->
<g id="edge41" class="edge">
<title>Node28&#45;&gt;Node29</title>
<path fill="none" stroke="midnightblue" d="M578.59,-220.5C602.96,-210.38 636.64,-196.39 658,-187.52"/>
<polygon fill="midnightblue" stroke="midnightblue" points="576.99,-217.38 569.1,-224.44 579.68,-223.84 576.99,-217.38"/>
</g>
<!-- Node28&#45;&gt;Node30 -->
<g id="edge42" class="edge">
<title>Node28&#45;&gt;Node30</title>
<path fill="none" stroke="midnightblue" d="M583.86,-224.09C666.51,-206.82 751.18,-193.64 803.49,-186.01"/>
<polygon fill="midnightblue" stroke="midnightblue" points="583.12,-220.67 574.05,-226.16 584.56,-227.52 583.12,-220.67"/>
</g>
<!-- Node31&#45;&gt;Node6 -->
<g id="edge49" class="edge">
<title>Node31&#45;&gt;Node6</title>
<path fill="none" stroke="midnightblue" d="M662.49,-223.37C695.3,-213.31 734.01,-195.17 718.5,-168 688.85,-116.05 620.84,-88.12 580.09,-75.52"/>
<polygon fill="midnightblue" stroke="midnightblue" points="661.2,-220.09 652.57,-226.23 663.14,-226.82 661.2,-220.09"/>
</g>
<!-- Node31&#45;&gt;Node18 -->
<g id="edge45" class="edge">
<title>Node31&#45;&gt;Node18</title>
<path fill="none" stroke="midnightblue" d="M589.8,-220.91C562.35,-210.75 523.83,-196.51 499.53,-187.52"/>
<polygon fill="midnightblue" stroke="midnightblue" points="588.77,-224.26 599.37,-224.44 591.2,-217.69 588.77,-224.26"/>
</g>
<!-- Node31&#45;&gt;Node21 -->
<g id="edge46" class="edge">
<title>Node31&#45;&gt;Node21</title>
<path fill="none" stroke="midnightblue" d="M582.66,-223.64C535.96,-212.64 461.39,-195.01 433.5,-188 430.54,-187.26 427.44,-186.46 424.36,-185.66"/>
<polygon fill="midnightblue" stroke="midnightblue" points="581.93,-227.06 592.46,-225.94 583.53,-220.25 581.93,-227.06"/>
</g>
<!-- Node31&#45;&gt;Node29 -->
<g id="edge47" class="edge">
<title>Node31&#45;&gt;Node29</title>
<path fill="none" stroke="midnightblue" d="M638.83,-217.25C648.76,-207.67 661.09,-195.79 669.34,-187.83"/>
<polygon fill="midnightblue" stroke="midnightblue" points="636.27,-214.86 631.5,-224.32 641.13,-219.9 636.27,-214.86"/>
</g>
<!-- Node31&#45;&gt;Node32 -->
<g id="edge48" class="edge">
<title>Node31&#45;&gt;Node32</title>
<path fill="none" stroke="midnightblue" d="M662.86,-227.3C718.96,-219.25 823.66,-203.77 912.5,-188 915.48,-187.47 918.57,-186.9 921.67,-186.31"/>
<polygon fill="midnightblue" stroke="midnightblue" points="662.03,-223.89 652.63,-228.76 663.02,-230.81 662.03,-223.89"/>
</g>
<!-- Node37&#45;&gt;Node6 -->
<g id="edge64" class="edge">
<title>Node37&#45;&gt;Node6</title>
<path fill="none" stroke="midnightblue" d="M1066.56,-158.63C1061.44,-143.43 1051.84,-122.67 1035.5,-112 997.79,-87.37 688.59,-72.7 582.82,-68.36"/>
<polygon fill="midnightblue" stroke="midnightblue" points="1063.29,-159.92 1069.53,-168.48 1070,-157.9 1063.29,-159.92"/>
</g>
<!-- Node37&#45;&gt;Node24 -->
<g id="edge65" class="edge">
<title>Node37&#45;&gt;Node24</title>
<path fill="none" stroke="midnightblue" d="M1084.92,-160.14C1092.41,-150.74 1101.44,-139.4 1107.53,-131.75"/>
<polygon fill="midnightblue" stroke="midnightblue" points="1082.09,-158.08 1078.6,-168.08 1087.57,-162.44 1082.09,-158.08"/>
</g>
</g>
</svg>
