<?xml version="1.0" encoding="UTF-8" standalone="no"?>
<!DOCTYPE svg PUBLIC "-//W3C//DTD SVG 1.1//EN"
 "http://www.w3.org/Graphics/SVG/1.1/DTD/svg11.dtd">
<!-- Generated by graphviz version 9.0.0 (0)
 -->
<!-- Title: MiraiCPStringInternal.cpp Pages: 1 -->
<svg width="257pt" height="196pt"
 viewBox="0.00 0.00 256.50 196.00" xmlns="http://www.w3.org/2000/svg" xmlns:xlink="http://www.w3.org/1999/xlink">
<g id="graph0" class="graph" transform="scale(1 1) rotate(0) translate(4 192)">
<title>MiraiCPStringInternal.cpp</title>
<!-- Node1 -->
<g id="Node000001" class="node">
<title>Node1</title>
<g id="a_Node000001"><a xlink:title=" ">
<polygon fill="#999999" stroke="#666666" points="190.75,-188 63,-188 63,-168 190.75,-168 190.75,-188"/>
<text text-anchor="middle" x="126.88" y="-174.5" font-family="Helvetica,sans-Serif" font-size="10.00">MiraiCPStringInternal.cpp</text>
</a>
</g>
</g>
<!-- Node2 -->
<g id="Node000002" class="node">
<title>Node2</title>
<g id="a_Node000002"><a xlink:href="a00041.html" target="_top" xlink:title=" ">
<polygon fill="white" stroke="#666666" points="91.75,-76 0,-76 0,-56 91.75,-56 91.75,-76"/>
<text text-anchor="middle" x="45.88" y="-62.5" font-family="Helvetica,sans-Serif" font-size="10.00">MiraiCPMacros.h</text>
</a>
</g>
</g>
<!-- Node1&#45;&gt;Node2 -->
<g id="edge1_Node000001_Node000002" class="edge">
<title>Node1&#45;&gt;Node2</title>
<g id="a_edge1_Node000001_Node000002"><a xlink:title=" ">
<path fill="none" stroke="#63b8ff" d="M104.13,-167.63C88.96,-160.19 69.85,-148.33 58.88,-132 50.03,-118.84 46.94,-101.01 45.97,-87.35"/>
<polygon fill="#63b8ff" stroke="#63b8ff" points="49.48,-87.62 45.63,-77.75 42.49,-87.87 49.48,-87.62"/>
</a>
</g>
</g>
<!-- Node4 -->
<g id="Node000004" class="node">
<title>Node4</title>
<g id="a_Node000004"><a xlink:href="a00191.html" target="_top" xlink:title=" ">
<polygon fill="white" stroke="#666666" points="185.5,-132 68.25,-132 68.25,-112 185.5,-112 185.5,-132"/>
<text text-anchor="middle" x="126.88" y="-118.5" font-family="Helvetica,sans-Serif" font-size="10.00">MiraiCPStringInternal.h</text>
</a>
</g>
</g>
<!-- Node1&#45;&gt;Node4 -->
<g id="edge3_Node000001_Node000004" class="edge">
<title>Node1&#45;&gt;Node4</title>
<g id="a_edge3_Node000001_Node000004"><a xlink:title=" ">
<path fill="none" stroke="#63b8ff" d="M126.88,-167.59C126.88,-161.01 126.88,-151.96 126.88,-143.73"/>
<polygon fill="#63b8ff" stroke="#63b8ff" points="130.38,-143.81 126.88,-133.81 123.38,-143.81 130.38,-143.81"/>
</a>
</g>
</g>
<!-- Node6 -->
<g id="Node000006" class="node">
<title>Node6</title>
<g id="a_Node000006"><a xlink:title=" ">
<polygon fill="#e0e0e0" stroke="#999999" points="248.5,-132 203.25,-132 203.25,-112 248.5,-112 248.5,-132"/>
<text text-anchor="middle" x="225.88" y="-118.5" font-family="Helvetica,sans-Serif" font-size="10.00">cstring</text>
</a>
</g>
</g>
<!-- Node1&#45;&gt;Node6 -->
<g id="edge7_Node000001_Node000006" class="edge">
<title>Node1&#45;&gt;Node6</title>
<g id="a_edge7_Node000001_Node000006"><a xlink:title=" ">
<path fill="none" stroke="#63b8ff" d="M144.12,-167.59C159.22,-159.36 181.4,-147.26 198.86,-137.74"/>
<polygon fill="#63b8ff" stroke="#63b8ff" points="200.06,-141.07 207.17,-133.2 196.71,-134.92 200.06,-141.07"/>
</a>
</g>
</g>
<!-- Node3 -->
<g id="Node000003" class="node">
<title>Node3</title>
<g id="a_Node000003"><a xlink:title=" ">
<polygon fill="#e0e0e0" stroke="#999999" points="107,-20 58.75,-20 58.75,0 107,0 107,-20"/>
<text text-anchor="middle" x="82.88" y="-6.5" font-family="Helvetica,sans-Serif" font-size="10.00">cassert</text>
</a>
</g>
</g>
<!-- Node2&#45;&gt;Node3 -->
<g id="edge2_Node000002_Node000003" class="edge">
<title>Node2&#45;&gt;Node3</title>
<g id="a_edge2_Node000002_Node000003"><a xlink:title=" ">
<path fill="none" stroke="#63b8ff" d="M52.32,-55.59C57.2,-48.47 64.07,-38.45 70.05,-29.72"/>
<polygon fill="#63b8ff" stroke="#63b8ff" points="72.88,-31.77 75.65,-21.55 67.11,-27.82 72.88,-31.77"/>
</a>
</g>
</g>
<!-- Node4&#45;&gt;Node2 -->
<g id="edge4_Node000004_Node000002" class="edge">
<title>Node4&#45;&gt;Node2</title>
<g id="a_edge4_Node000004_Node000002"><a xlink:title=" ">
<path fill="none" stroke="#63b8ff" d="M112.77,-111.59C100.88,-103.67 83.61,-92.16 69.6,-82.82"/>
<polygon fill="#63b8ff" stroke="#63b8ff" points="71.62,-79.95 61.35,-77.32 67.73,-85.78 71.62,-79.95"/>
</a>
</g>
</g>
<!-- Node4&#45;&gt;Node3 -->
<g id="edge5_Node000004_Node000003" class="edge">
<title>Node4&#45;&gt;Node3</title>
<g id="a_edge5_Node000004_Node000003"><a xlink:title=" ">
<path fill="none" stroke="#63b8ff" d="M123.12,-111.62C116.01,-93.84 100.43,-54.88 90.87,-31"/>
<polygon fill="#63b8ff" stroke="#63b8ff" points="94.14,-29.74 87.18,-21.76 87.64,-32.34 94.14,-29.74"/>
</a>
</g>
</g>
<!-- Node5 -->
<g id="Node000005" class="node">
<title>Node5</title>
<g id="a_Node000005"><a xlink:title=" ">
<polygon fill="#e0e0e0" stroke="#999999" points="187.88,-76 147.88,-76 147.88,-56 187.88,-56 187.88,-76"/>
<text text-anchor="middle" x="167.88" y="-62.5" font-family="Helvetica,sans-Serif" font-size="10.00">string</text>
</a>
</g>
</g>
<!-- Node4&#45;&gt;Node5 -->
<g id="edge6_Node000004_Node000005" class="edge">
<title>Node4&#45;&gt;Node5</title>
<g id="a_edge6_Node000004_Node000005"><a xlink:title=" ">
<path fill="none" stroke="#63b8ff" d="M134.02,-111.59C139.48,-104.39 147.2,-94.23 153.88,-85.43"/>
<polygon fill="#63b8ff" stroke="#63b8ff" points="156.64,-87.58 159.9,-77.5 151.07,-83.35 156.64,-87.58"/>
</a>
</g>
</g>
</g>
</svg>
