<?xml version="1.0" encoding="UTF-8" standalone="no"?>
<!DOCTYPE svg PUBLIC "-//W3C//DTD SVG 1.1//EN"
 "http://www.w3.org/Graphics/SVG/1.1/DTD/svg11.dtd">
<!-- Generated by graphviz version 2.50.0 (20211204.2007)
 -->
<!-- Title: LoaderExceptions.cpp Pages: 1 -->
<svg width="327pt" height="252pt"
 viewBox="0.00 0.00 326.50 252.00" xmlns="http://www.w3.org/2000/svg" xmlns:xlink="http://www.w3.org/1999/xlink">
<g id="graph0" class="graph" transform="scale(1 1) rotate(0) translate(4 248)">
<title>LoaderExceptions.cpp</title>
<polygon fill="white" stroke="transparent" points="-4,4 -4,-248 322.5,-248 322.5,4 -4,4"/>
<!-- Node1 -->
<g id="node1" class="node">
<title>Node1</title>
<g id="a_node1"><a xlink:title=" ">
<polygon fill="#bfbfbf" stroke="black" points="102,-224.5 102,-243.5 215,-243.5 215,-224.5 102,-224.5"/>
<text text-anchor="middle" x="158.5" y="-231.5" font-family="Helvetica,sans-Serif" font-size="10.00">LoaderExceptions.cpp</text>
</a>
</g>
</g>
<!-- Node2 -->
<g id="node2" class="node">
<title>Node2</title>
<g id="a_node2"><a xlink:href="a00230.html" target="_top" xlink:title=" ">
<polygon fill="white" stroke="black" points="51,-168.5 51,-187.5 154,-187.5 154,-168.5 51,-168.5"/>
<text text-anchor="middle" x="102.5" y="-175.5" font-family="Helvetica,sans-Serif" font-size="10.00">LoaderExceptions.h</text>
</a>
</g>
</g>
<!-- Node1&#45;&gt;Node2 -->
<g id="edge1" class="edge">
<title>Node1&#45;&gt;Node2</title>
<path fill="none" stroke="midnightblue" d="M149.5,-224.32C141.31,-216.42 128.99,-204.55 119.03,-194.94"/>
<polygon fill="midnightblue" stroke="midnightblue" points="121.29,-192.26 111.66,-187.83 116.43,-197.29 121.29,-192.26"/>
</g>
<!-- Node9 -->
<g id="node9" class="node">
<title>Node9</title>
<g id="a_node9"><a xlink:href="a00038.html" target="_top" xlink:title=" ">
<polygon fill="white" stroke="black" points="189.5,-168.5 189.5,-187.5 275.5,-187.5 275.5,-168.5 189.5,-168.5"/>
<text text-anchor="middle" x="232.5" y="-175.5" font-family="Helvetica,sans-Serif" font-size="10.00">commonTools.h</text>
</a>
</g>
</g>
<!-- Node1&#45;&gt;Node9 -->
<g id="edge9" class="edge">
<title>Node1&#45;&gt;Node9</title>
<path fill="none" stroke="midnightblue" d="M170.39,-224.32C181.65,-216.11 198.79,-203.6 212.21,-193.81"/>
<polygon fill="midnightblue" stroke="midnightblue" points="214.38,-196.56 220.39,-187.83 210.25,-190.9 214.38,-196.56"/>
</g>
<!-- Node3 -->
<g id="node3" class="node">
<title>Node3</title>
<g id="a_node3"><a xlink:href="a00236.html" target="_top" xlink:title=" ">
<polygon fill="white" stroke="black" points="44,-112.5 44,-131.5 127,-131.5 127,-112.5 44,-112.5"/>
<text text-anchor="middle" x="85.5" y="-119.5" font-family="Helvetica,sans-Serif" font-size="10.00">LoaderLogger.h</text>
</a>
</g>
</g>
<!-- Node2&#45;&gt;Node3 -->
<g id="edge2" class="edge">
<title>Node2&#45;&gt;Node3</title>
<path fill="none" stroke="midnightblue" d="M99.69,-168.08C97.42,-160.85 94.13,-150.41 91.29,-141.4"/>
<polygon fill="midnightblue" stroke="midnightblue" points="94.6,-140.24 88.25,-131.75 87.92,-142.34 94.6,-140.24"/>
</g>
<!-- Node6 -->
<g id="node6" class="node">
<title>Node6</title>
<g id="a_node6"><a xlink:title=" ">
<polygon fill="white" stroke="#bfbfbf" points="0,-56.5 0,-75.5 41,-75.5 41,-56.5 0,-56.5"/>
<text text-anchor="middle" x="20.5" y="-63.5" font-family="Helvetica,sans-Serif" font-size="10.00">string</text>
</a>
</g>
</g>
<!-- Node2&#45;&gt;Node6 -->
<g id="edge8" class="edge">
<title>Node2&#45;&gt;Node6</title>
<path fill="none" stroke="midnightblue" d="M81.44,-168.36C66.08,-160.97 46,-148.83 34.5,-132 25.24,-118.45 21.95,-99.9 20.85,-86.08"/>
<polygon fill="midnightblue" stroke="midnightblue" points="24.33,-85.63 20.36,-75.8 17.34,-85.96 24.33,-85.63"/>
</g>
<!-- Node8 -->
<g id="node8" class="node">
<title>Node8</title>
<g id="a_node8"><a xlink:title=" ">
<polygon fill="white" stroke="#bfbfbf" points="145,-112.5 145,-131.5 204,-131.5 204,-112.5 145,-112.5"/>
<text text-anchor="middle" x="174.5" y="-119.5" font-family="Helvetica,sans-Serif" font-size="10.00">exception</text>
</a>
</g>
</g>
<!-- Node2&#45;&gt;Node8 -->
<g id="edge7" class="edge">
<title>Node2&#45;&gt;Node8</title>
<path fill="none" stroke="midnightblue" d="M114.07,-168.32C124.92,-160.18 141.38,-147.84 154.38,-138.09"/>
<polygon fill="midnightblue" stroke="midnightblue" points="156.82,-140.63 162.72,-131.83 152.62,-135.03 156.82,-140.63"/>
</g>
<!-- Node4 -->
<g id="node4" class="node">
<title>Node4</title>
<g id="a_node4"><a xlink:href="a00044.html" target="_top" xlink:title=" ">
<polygon fill="white" stroke="black" points="155.5,-56.5 155.5,-75.5 247.5,-75.5 247.5,-56.5 155.5,-56.5"/>
<text text-anchor="middle" x="201.5" y="-63.5" font-family="Helvetica,sans-Serif" font-size="10.00">MiraiCPMacros.h</text>
</a>
</g>
</g>
<!-- Node3&#45;&gt;Node4 -->
<g id="edge3" class="edge">
<title>Node3&#45;&gt;Node4</title>
<path fill="none" stroke="midnightblue" d="M103.88,-112.44C122.72,-103.68 152.23,-89.94 173.88,-79.86"/>
<polygon fill="midnightblue" stroke="midnightblue" points="175.62,-82.91 183.21,-75.52 172.66,-76.56 175.62,-82.91"/>
</g>
<!-- Node3&#45;&gt;Node6 -->
<g id="edge5" class="edge">
<title>Node3&#45;&gt;Node6</title>
<path fill="none" stroke="midnightblue" d="M75.06,-112.32C65.35,-104.26 50.68,-92.08 39,-82.37"/>
<polygon fill="midnightblue" stroke="midnightblue" points="41.06,-79.53 31.13,-75.83 36.59,-84.92 41.06,-79.53"/>
</g>
<!-- Node7 -->
<g id="node7" class="node">
<title>Node7</title>
<g id="a_node7"><a xlink:title=" ">
<polygon fill="white" stroke="#bfbfbf" points="64.5,-56.5 64.5,-75.5 106.5,-75.5 106.5,-56.5 64.5,-56.5"/>
<text text-anchor="middle" x="85.5" y="-63.5" font-family="Helvetica,sans-Serif" font-size="10.00">vector</text>
</a>
</g>
</g>
<!-- Node3&#45;&gt;Node7 -->
<g id="edge6" class="edge">
<title>Node3&#45;&gt;Node7</title>
<path fill="none" stroke="midnightblue" d="M85.5,-112.08C85.5,-105.01 85.5,-94.86 85.5,-85.99"/>
<polygon fill="midnightblue" stroke="midnightblue" points="89,-85.75 85.5,-75.75 82,-85.75 89,-85.75"/>
</g>
<!-- Node5 -->
<g id="node5" class="node">
<title>Node5</title>
<g id="a_node5"><a xlink:title=" ">
<polygon fill="white" stroke="#bfbfbf" points="177,-0.5 177,-19.5 226,-19.5 226,-0.5 177,-0.5"/>
<text text-anchor="middle" x="201.5" y="-7.5" font-family="Helvetica,sans-Serif" font-size="10.00">cassert</text>
</a>
</g>
</g>
<!-- Node4&#45;&gt;Node5 -->
<g id="edge4" class="edge">
<title>Node4&#45;&gt;Node5</title>
<path fill="none" stroke="midnightblue" d="M201.5,-56.08C201.5,-49.01 201.5,-38.86 201.5,-29.99"/>
<polygon fill="midnightblue" stroke="midnightblue" points="205,-29.75 201.5,-19.75 198,-29.75 205,-29.75"/>
</g>
<!-- Node9&#45;&gt;Node4 -->
<g id="edge10" class="edge">
<title>Node9&#45;&gt;Node4</title>
<path fill="none" stroke="midnightblue" d="M230.07,-168.37C225.04,-150.54 213.42,-109.3 206.65,-85.27"/>
<polygon fill="midnightblue" stroke="midnightblue" points="210,-84.27 203.92,-75.59 203.27,-86.17 210,-84.27"/>
</g>
<!-- Node10 -->
<g id="node10" class="node">
<title>Node10</title>
<g id="a_node10"><a xlink:title=" ">
<polygon fill="white" stroke="#bfbfbf" points="260.5,-112.5 260.5,-131.5 318.5,-131.5 318.5,-112.5 260.5,-112.5"/>
<text text-anchor="middle" x="289.5" y="-119.5" font-family="Helvetica,sans-Serif" font-size="10.00">functional</text>
</a>
</g>
</g>
<!-- Node9&#45;&gt;Node10 -->
<g id="edge11" class="edge">
<title>Node9&#45;&gt;Node10</title>
<path fill="none" stroke="midnightblue" d="M241.66,-168.32C250,-160.42 262.53,-148.55 272.68,-138.94"/>
<polygon fill="midnightblue" stroke="midnightblue" points="275.32,-141.25 280.18,-131.83 270.51,-136.17 275.32,-141.25"/>
</g>
</g>
</svg>
