<?xml version="1.0" encoding="UTF-8" standalone="no"?>
<!DOCTYPE svg PUBLIC "-//W3C//DTD SVG 1.1//EN"
 "http://www.w3.org/Graphics/SVG/1.1/DTD/svg11.dtd">
<!-- Generated by graphviz version 2.50.0 (20211204.2007)
 -->
<!-- Title: MessageSource.cpp Pages: 1 -->
<svg width="617pt" height="476pt"
 viewBox="0.00 0.00 617.00 476.00" xmlns="http://www.w3.org/2000/svg" xmlns:xlink="http://www.w3.org/1999/xlink">
<g id="graph0" class="graph" transform="scale(1 1) rotate(0) translate(4 472)">
<title>MessageSource.cpp</title>
<polygon fill="white" stroke="transparent" points="-4,4 -4,-472 613,-472 613,4 -4,4"/>
<!-- Node1 -->
<g id="node1" class="node">
<title>Node1</title>
<g id="a_node1"><a xlink:title=" ">
<polygon fill="#bfbfbf" stroke="black" points="273,-448.5 273,-467.5 379,-467.5 379,-448.5 273,-448.5"/>
<text text-anchor="middle" x="326" y="-455.5" font-family="Helvetica,sans-Serif" font-size="10.00">MessageSource.cpp</text>
</a>
</g>
</g>
<!-- Node2 -->
<g id="node2" class="node">
<title>Node2</title>
<g id="a_node2"><a xlink:href="a00119.html" target="_top" xlink:title=" ">
<polygon fill="white" stroke="black" points="71.5,-280.5 71.5,-299.5 166.5,-299.5 166.5,-280.5 71.5,-280.5"/>
<text text-anchor="middle" x="119" y="-287.5" font-family="Helvetica,sans-Serif" font-size="10.00">MessageSource.h</text>
</a>
</g>
</g>
<!-- Node1&#45;&gt;Node2 -->
<g id="edge1" class="edge">
<title>Node1&#45;&gt;Node2</title>
<path fill="none" stroke="midnightblue" d="M299.31,-448.5C278.16,-440.97 248.53,-428.6 226,-412 184.98,-381.79 148.29,-333.51 130.44,-308.03"/>
<polygon fill="midnightblue" stroke="midnightblue" points="133.3,-306.01 124.75,-299.75 127.53,-309.97 133.3,-306.01"/>
</g>
<!-- Node11 -->
<g id="node11" class="node">
<title>Node11</title>
<g id="a_node11"><a xlink:href="a00086.html" target="_top" xlink:title=" ">
<polygon fill="white" stroke="black" points="292,-392.5 292,-411.5 360,-411.5 360,-392.5 292,-392.5"/>
<text text-anchor="middle" x="326" y="-399.5" font-family="Helvetica,sans-Serif" font-size="10.00">Exception.h</text>
</a>
</g>
</g>
<!-- Node1&#45;&gt;Node11 -->
<g id="edge15" class="edge">
<title>Node1&#45;&gt;Node11</title>
<path fill="none" stroke="midnightblue" d="M326,-448.08C326,-441.01 326,-430.86 326,-421.99"/>
<polygon fill="midnightblue" stroke="midnightblue" points="329.5,-421.75 326,-411.75 322.5,-421.75 329.5,-421.75"/>
</g>
<!-- Node13 -->
<g id="node13" class="node">
<title>Node13</title>
<g id="a_node13"><a xlink:href="a00107.html" target="_top" xlink:title=" ">
<polygon fill="white" stroke="black" points="231,-280.5 231,-299.5 285,-299.5 285,-280.5 231,-280.5"/>
<text text-anchor="middle" x="258" y="-287.5" font-family="Helvetica,sans-Serif" font-size="10.00">Logger.h</text>
</a>
</g>
</g>
<!-- Node1&#45;&gt;Node13 -->
<g id="edge31" class="edge">
<title>Node1&#45;&gt;Node13</title>
<path fill="none" stroke="midnightblue" d="M307.44,-448.43C278.77,-434.03 224.73,-401.96 203,-356 193.51,-335.93 214.09,-317.03 232.72,-304.84"/>
<polygon fill="midnightblue" stroke="midnightblue" points="234.61,-307.79 241.3,-299.58 230.95,-301.82 234.61,-307.79"/>
</g>
<!-- Node20 -->
<g id="node20" class="node">
<title>Node20</title>
<g id="a_node20"><a xlink:href="a00101.html" target="_top" xlink:title=" ">
<polygon fill="white" stroke="black" points="427.5,-392.5 427.5,-411.5 504.5,-411.5 504.5,-392.5 427.5,-392.5"/>
<text text-anchor="middle" x="466" y="-399.5" font-family="Helvetica,sans-Serif" font-size="10.00">KtOperation.h</text>
</a>
</g>
</g>
<!-- Node1&#45;&gt;Node20 -->
<g id="edge29" class="edge">
<title>Node1&#45;&gt;Node20</title>
<path fill="none" stroke="midnightblue" d="M348.18,-448.44C371.43,-439.48 408.15,-425.31 434.42,-415.18"/>
<polygon fill="midnightblue" stroke="midnightblue" points="435.85,-418.38 443.92,-411.52 433.33,-411.85 435.85,-418.38"/>
</g>
<!-- Node22 -->
<g id="node22" class="node">
<title>Node22</title>
<g id="a_node22"><a xlink:href="a00002.html" target="_top" xlink:title=" ">
<polygon fill="white" stroke="black" points="523,-280.5 523,-299.5 609,-299.5 609,-280.5 523,-280.5"/>
<text text-anchor="middle" x="566" y="-287.5" font-family="Helvetica,sans-Serif" font-size="10.00">commonTools.h</text>
</a>
</g>
</g>
<!-- Node1&#45;&gt;Node22 -->
<g id="edge32" class="edge">
<title>Node1&#45;&gt;Node22</title>
<path fill="none" stroke="midnightblue" d="M379.13,-452.99C418.7,-448.03 472.78,-436.9 514,-412 542.31,-394.9 550.66,-386.68 563,-356 568.87,-341.41 569.24,-323.46 568.36,-310.13"/>
<polygon fill="midnightblue" stroke="midnightblue" points="571.81,-309.42 567.37,-299.8 564.84,-310.09 571.81,-309.42"/>
</g>
<!-- Node3 -->
<g id="node3" class="node">
<title>Node3</title>
<g id="a_node3"><a xlink:href="a00011.html" target="_top" xlink:title=" ">
<polygon fill="white" stroke="black" points="246,-56.5 246,-75.5 338,-75.5 338,-56.5 246,-56.5"/>
<text text-anchor="middle" x="292" y="-63.5" font-family="Helvetica,sans-Serif" font-size="10.00">MiraiCPMacros.h</text>
</a>
</g>
</g>
<!-- Node2&#45;&gt;Node3 -->
<g id="edge2" class="edge">
<title>Node2&#45;&gt;Node3</title>
<path fill="none" stroke="midnightblue" d="M121.44,-280.28C127.85,-258.72 147.08,-202.17 181,-168 205.37,-143.45 224.43,-155.3 250,-132 264.7,-118.6 276.45,-98.96 283.74,-84.78"/>
<polygon fill="midnightblue" stroke="midnightblue" points="286.99,-86.1 288.24,-75.58 280.7,-83.02 286.99,-86.1"/>
</g>
<!-- Node5 -->
<g id="node5" class="node">
<title>Node5</title>
<g id="a_node5"><a xlink:href="a00005.html" target="_top" xlink:title=" ">
<polygon fill="white" stroke="black" points="195.5,-224.5 195.5,-243.5 284.5,-243.5 284.5,-224.5 195.5,-224.5"/>
<text text-anchor="middle" x="240" y="-231.5" font-family="Helvetica,sans-Serif" font-size="10.00">commonTypes.h</text>
</a>
</g>
</g>
<!-- Node2&#45;&gt;Node5 -->
<g id="edge4" class="edge">
<title>Node2&#45;&gt;Node5</title>
<path fill="none" stroke="midnightblue" d="M138.17,-280.44C157.91,-271.64 188.89,-257.81 211.49,-247.72"/>
<polygon fill="midnightblue" stroke="midnightblue" points="213.21,-250.79 220.92,-243.52 210.36,-244.4 213.21,-250.79"/>
</g>
<!-- Node8 -->
<g id="node8" class="node">
<title>Node8</title>
<g id="a_node8"><a xlink:title=" ">
<polygon fill="white" stroke="#bfbfbf" points="42.5,-56.5 42.5,-75.5 83.5,-75.5 83.5,-56.5 42.5,-56.5"/>
<text text-anchor="middle" x="63" y="-63.5" font-family="Helvetica,sans-Serif" font-size="10.00">string</text>
</a>
</g>
</g>
<!-- Node2&#45;&gt;Node8 -->
<g id="edge14" class="edge">
<title>Node2&#45;&gt;Node8</title>
<path fill="none" stroke="midnightblue" d="M111.33,-280.35C97.24,-263.82 67.74,-226.02 57,-188 47.08,-152.88 53.36,-109.78 58.44,-85.65"/>
<polygon fill="midnightblue" stroke="midnightblue" points="61.9,-86.25 60.7,-75.72 55.07,-84.7 61.9,-86.25"/>
</g>
<!-- Node4 -->
<g id="node4" class="node">
<title>Node4</title>
<g id="a_node4"><a xlink:title=" ">
<polygon fill="white" stroke="#bfbfbf" points="227.5,-0.5 227.5,-19.5 276.5,-19.5 276.5,-0.5 227.5,-0.5"/>
<text text-anchor="middle" x="252" y="-7.5" font-family="Helvetica,sans-Serif" font-size="10.00">cassert</text>
</a>
</g>
</g>
<!-- Node3&#45;&gt;Node4 -->
<g id="edge3" class="edge">
<title>Node3&#45;&gt;Node4</title>
<path fill="none" stroke="midnightblue" d="M285.39,-56.08C279.74,-48.46 271.46,-37.26 264.55,-27.94"/>
<polygon fill="midnightblue" stroke="midnightblue" points="267.25,-25.7 258.48,-19.75 261.62,-29.87 267.25,-25.7"/>
</g>
<!-- Node5&#45;&gt;Node3 -->
<g id="edge5" class="edge">
<title>Node5&#45;&gt;Node3</title>
<path fill="none" stroke="midnightblue" d="M257.5,-224.46C270.79,-216.92 288.08,-204.53 296,-188 311.91,-154.8 304.18,-110.38 297.7,-85.64"/>
<polygon fill="midnightblue" stroke="midnightblue" points="301,-84.44 294.91,-75.77 294.27,-86.34 301,-84.44"/>
</g>
<!-- Node6 -->
<g id="node6" class="node">
<title>Node6</title>
<g id="a_node6"><a xlink:href="a00020.html" target="_top" xlink:title=" ">
<polygon fill="white" stroke="black" points="344.5,-168.5 344.5,-187.5 423.5,-187.5 423.5,-168.5 344.5,-168.5"/>
<text text-anchor="middle" x="384" y="-175.5" font-family="Helvetica,sans-Serif" font-size="10.00">PluginConfig.h</text>
</a>
</g>
</g>
<!-- Node5&#45;&gt;Node6 -->
<g id="edge6" class="edge">
<title>Node5&#45;&gt;Node6</title>
<path fill="none" stroke="midnightblue" d="M262.82,-224.44C286.83,-215.44 324.83,-201.19 351.87,-191.05"/>
<polygon fill="midnightblue" stroke="midnightblue" points="353.16,-194.3 361.29,-187.52 350.7,-187.75 353.16,-194.3"/>
</g>
<!-- Node10 -->
<g id="node10" class="node">
<title>Node10</title>
<g id="a_node10"><a xlink:href="a00008.html" target="_top" xlink:title=" ">
<polygon fill="white" stroke="black" points="190.5,-168.5 190.5,-187.5 287.5,-187.5 287.5,-168.5 190.5,-168.5"/>
<text text-anchor="middle" x="239" y="-175.5" font-family="Helvetica,sans-Serif" font-size="10.00">loaderApiInternal.h</text>
</a>
</g>
</g>
<!-- Node5&#45;&gt;Node10 -->
<g id="edge12" class="edge">
<title>Node5&#45;&gt;Node10</title>
<path fill="none" stroke="midnightblue" d="M239.83,-224.08C239.7,-217.01 239.52,-206.86 239.35,-197.99"/>
<polygon fill="midnightblue" stroke="midnightblue" points="242.85,-197.68 239.16,-187.75 235.85,-197.81 242.85,-197.68"/>
</g>
<!-- Node7 -->
<g id="node7" class="node">
<title>Node7</title>
<g id="a_node7"><a xlink:href="a00014.html" target="_top" xlink:title=" ">
<polygon fill="white" stroke="black" points="125,-112.5 125,-131.5 241,-131.5 241,-112.5 125,-112.5"/>
<text text-anchor="middle" x="183" y="-119.5" font-family="Helvetica,sans-Serif" font-size="10.00">MiraiCPStringInternal.h</text>
</a>
</g>
</g>
<!-- Node6&#45;&gt;Node7 -->
<g id="edge7" class="edge">
<title>Node6&#45;&gt;Node7</title>
<path fill="none" stroke="midnightblue" d="M352.15,-168.44C317.6,-159.16 262.32,-144.31 224.42,-134.13"/>
<polygon fill="midnightblue" stroke="midnightblue" points="225.27,-130.73 214.7,-131.52 223.45,-137.49 225.27,-130.73"/>
</g>
<!-- Node9 -->
<g id="node9" class="node">
<title>Node9</title>
<g id="a_node9"><a xlink:title=" ">
<polygon fill="white" stroke="#bfbfbf" points="357.5,-112.5 357.5,-131.5 410.5,-131.5 410.5,-112.5 357.5,-112.5"/>
<text text-anchor="middle" x="384" y="-119.5" font-family="Helvetica,sans-Serif" font-size="10.00">json.hpp</text>
</a>
</g>
</g>
<!-- Node6&#45;&gt;Node9 -->
<g id="edge11" class="edge">
<title>Node6&#45;&gt;Node9</title>
<path fill="none" stroke="midnightblue" d="M384,-168.08C384,-161.01 384,-150.86 384,-141.99"/>
<polygon fill="midnightblue" stroke="midnightblue" points="387.5,-141.75 384,-131.75 380.5,-141.75 387.5,-141.75"/>
</g>
<!-- Node7&#45;&gt;Node3 -->
<g id="edge8" class="edge">
<title>Node7&#45;&gt;Node3</title>
<path fill="none" stroke="midnightblue" d="M200.51,-112.32C218.07,-103.62 245.33,-90.12 265.53,-80.11"/>
<polygon fill="midnightblue" stroke="midnightblue" points="267.12,-83.23 274.53,-75.65 264.02,-76.96 267.12,-83.23"/>
</g>
<!-- Node7&#45;&gt;Node4 -->
<g id="edge9" class="edge">
<title>Node7&#45;&gt;Node4</title>
<path fill="none" stroke="midnightblue" d="M188.41,-112.37C199.75,-94.3 226.17,-52.18 241.14,-28.31"/>
<polygon fill="midnightblue" stroke="midnightblue" points="244.26,-29.92 246.61,-19.59 238.33,-26.2 244.26,-29.92"/>
</g>
<!-- Node7&#45;&gt;Node8 -->
<g id="edge10" class="edge">
<title>Node7&#45;&gt;Node8</title>
<path fill="none" stroke="midnightblue" d="M163.99,-112.44C144.41,-103.64 113.69,-89.81 91.27,-79.72"/>
<polygon fill="midnightblue" stroke="midnightblue" points="92.48,-76.43 81.93,-75.52 89.61,-82.81 92.48,-76.43"/>
</g>
<!-- Node10&#45;&gt;Node7 -->
<g id="edge13" class="edge">
<title>Node10&#45;&gt;Node7</title>
<path fill="none" stroke="midnightblue" d="M230,-168.32C221.81,-160.42 209.49,-148.55 199.53,-138.94"/>
<polygon fill="midnightblue" stroke="midnightblue" points="201.79,-136.26 192.16,-131.83 196.93,-141.29 201.79,-136.26"/>
</g>
<!-- Node11&#45;&gt;Node3 -->
<g id="edge16" class="edge">
<title>Node11&#45;&gt;Node3</title>
<path fill="none" stroke="midnightblue" d="M360.18,-394.69C383.76,-388.62 414.15,-377.13 433,-356 453.04,-333.54 452,-321.1 452,-291 452,-291 452,-291 452,-177 452,-144.8 444.09,-133.37 420,-112 399.94,-94.21 372.42,-83.34 348.03,-76.76"/>
<polygon fill="midnightblue" stroke="midnightblue" points="348.71,-73.32 338.16,-74.27 347,-80.11 348.71,-73.32"/>
</g>
<!-- Node11&#45;&gt;Node8 -->
<g id="edge27" class="edge">
<title>Node11&#45;&gt;Node8</title>
<path fill="none" stroke="midnightblue" d="M291.73,-396.85C208.03,-385.77 0,-352.08 0,-291 0,-291 0,-291 0,-177 0,-139.48 27.95,-103.14 46.61,-83.05"/>
<polygon fill="midnightblue" stroke="midnightblue" points="49.27,-85.34 53.7,-75.72 44.24,-80.48 49.27,-85.34"/>
</g>
<!-- Node12 -->
<g id="node12" class="node">
<title>Node12</title>
<g id="a_node12"><a xlink:href="a00080.html" target="_top" xlink:title=" ">
<polygon fill="white" stroke="black" points="290,-336.5 290,-355.5 362,-355.5 362,-336.5 290,-336.5"/>
<text text-anchor="middle" x="326" y="-343.5" font-family="Helvetica,sans-Serif" font-size="10.00">CPPPlugin.h</text>
</a>
</g>
</g>
<!-- Node11&#45;&gt;Node12 -->
<g id="edge17" class="edge">
<title>Node11&#45;&gt;Node12</title>
<path fill="none" stroke="midnightblue" d="M326,-392.08C326,-385.01 326,-374.86 326,-365.99"/>
<polygon fill="midnightblue" stroke="midnightblue" points="329.5,-365.75 326,-355.75 322.5,-365.75 329.5,-365.75"/>
</g>
<!-- Node18 -->
<g id="node18" class="node">
<title>Node18</title>
<g id="a_node18"><a xlink:title=" ">
<polygon fill="white" stroke="#bfbfbf" points="212.5,-336.5 212.5,-355.5 271.5,-355.5 271.5,-336.5 212.5,-336.5"/>
<text text-anchor="middle" x="242" y="-343.5" font-family="Helvetica,sans-Serif" font-size="10.00">exception</text>
</a>
</g>
</g>
<!-- Node11&#45;&gt;Node18 -->
<g id="edge26" class="edge">
<title>Node11&#45;&gt;Node18</title>
<path fill="none" stroke="midnightblue" d="M312.5,-392.32C299.4,-383.9 279.29,-370.97 263.89,-361.07"/>
<polygon fill="midnightblue" stroke="midnightblue" points="265.77,-358.12 255.46,-355.65 261.98,-364.01 265.77,-358.12"/>
</g>
<!-- Node19 -->
<g id="node19" class="node">
<title>Node19</title>
<g id="a_node19"><a xlink:title=" ">
<polygon fill="white" stroke="#bfbfbf" points="380,-336.5 380,-355.5 424,-355.5 424,-336.5 380,-336.5"/>
<text text-anchor="middle" x="402" y="-343.5" font-family="Helvetica,sans-Serif" font-size="10.00">thread</text>
</a>
</g>
</g>
<!-- Node11&#45;&gt;Node19 -->
<g id="edge28" class="edge">
<title>Node11&#45;&gt;Node19</title>
<path fill="none" stroke="midnightblue" d="M338.21,-392.32C349.78,-384.11 367.38,-371.6 381.16,-361.81"/>
<polygon fill="midnightblue" stroke="midnightblue" points="383.44,-364.48 389.57,-355.83 379.39,-358.77 383.44,-364.48"/>
</g>
<!-- Node12&#45;&gt;Node6 -->
<g id="edge24" class="edge">
<title>Node12&#45;&gt;Node6</title>
<path fill="none" stroke="midnightblue" d="M332.96,-336.2C339.54,-327.48 349.23,-313.5 355,-300 369.8,-265.36 377.89,-221.77 381.55,-197.49"/>
<polygon fill="midnightblue" stroke="midnightblue" points="385.03,-197.92 382.96,-187.52 378.09,-196.93 385.03,-197.92"/>
</g>
<!-- Node12&#45;&gt;Node13 -->
<g id="edge18" class="edge">
<title>Node12&#45;&gt;Node13</title>
<path fill="none" stroke="midnightblue" d="M315.07,-336.32C304.83,-328.18 289.28,-315.84 277,-306.09"/>
<polygon fill="midnightblue" stroke="midnightblue" points="279.13,-303.31 269.12,-299.83 274.78,-308.79 279.13,-303.31"/>
</g>
<!-- Node17 -->
<g id="node17" class="node">
<title>Node17</title>
<g id="a_node17"><a xlink:title=" ">
<polygon fill="white" stroke="#bfbfbf" points="306,-280.5 306,-299.5 346,-299.5 346,-280.5 306,-280.5"/>
<text text-anchor="middle" x="326" y="-287.5" font-family="Helvetica,sans-Serif" font-size="10.00">utility</text>
</a>
</g>
</g>
<!-- Node12&#45;&gt;Node17 -->
<g id="edge25" class="edge">
<title>Node12&#45;&gt;Node17</title>
<path fill="none" stroke="midnightblue" d="M326,-336.08C326,-329.01 326,-318.86 326,-309.99"/>
<polygon fill="midnightblue" stroke="midnightblue" points="329.5,-309.75 326,-299.75 322.5,-309.75 329.5,-309.75"/>
</g>
<!-- Node13&#45;&gt;Node5 -->
<g id="edge21" class="edge">
<title>Node13&#45;&gt;Node5</title>
<path fill="none" stroke="midnightblue" d="M255.03,-280.08C252.62,-272.85 249.14,-262.41 246.13,-253.4"/>
<polygon fill="midnightblue" stroke="midnightblue" points="249.4,-252.13 242.92,-243.75 242.76,-254.34 249.4,-252.13"/>
</g>
<!-- Node14 -->
<g id="node14" class="node">
<title>Node14</title>
<g id="a_node14"><a xlink:href="a00122.html" target="_top" xlink:title=" ">
<polygon fill="white" stroke="black" points="66,-168.5 66,-187.5 134,-187.5 134,-168.5 66,-168.5"/>
<text text-anchor="middle" x="100" y="-175.5" font-family="Helvetica,sans-Serif" font-size="10.00">MiraiCode.h</text>
</a>
</g>
</g>
<!-- Node13&#45;&gt;Node14 -->
<g id="edge19" class="edge">
<title>Node13&#45;&gt;Node14</title>
<path fill="none" stroke="midnightblue" d="M243.41,-280.4C228.7,-271.61 205.43,-257.37 186,-244 162.24,-227.64 135.92,-207.42 118.73,-193.92"/>
<polygon fill="midnightblue" stroke="midnightblue" points="120.65,-190.97 110.63,-187.52 116.31,-196.47 120.65,-190.97"/>
</g>
<!-- Node15 -->
<g id="node15" class="node">
<title>Node15</title>
<g id="a_node15"><a xlink:title=" ">
<polygon fill="white" stroke="#bfbfbf" points="480,-224.5 480,-243.5 538,-243.5 538,-224.5 480,-224.5"/>
<text text-anchor="middle" x="509" y="-231.5" font-family="Helvetica,sans-Serif" font-size="10.00">functional</text>
</a>
</g>
</g>
<!-- Node13&#45;&gt;Node15 -->
<g id="edge22" class="edge">
<title>Node13&#45;&gt;Node15</title>
<path fill="none" stroke="midnightblue" d="M285.26,-282.64C289.2,-281.75 293.2,-280.84 297,-280 357.24,-266.66 427.29,-251.94 469.87,-243.09"/>
<polygon fill="midnightblue" stroke="midnightblue" points="470.74,-246.49 479.82,-241.02 469.31,-239.63 470.74,-246.49"/>
</g>
<!-- Node16 -->
<g id="node16" class="node">
<title>Node16</title>
<g id="a_node16"><a xlink:title=" ">
<polygon fill="white" stroke="#bfbfbf" points="303,-224.5 303,-243.5 355,-243.5 355,-224.5 303,-224.5"/>
<text text-anchor="middle" x="329" y="-231.5" font-family="Helvetica,sans-Serif" font-size="10.00">sstream</text>
</a>
</g>
</g>
<!-- Node13&#45;&gt;Node16 -->
<g id="edge23" class="edge">
<title>Node13&#45;&gt;Node16</title>
<path fill="none" stroke="midnightblue" d="M269.41,-280.32C280.11,-272.18 296.34,-259.84 309.16,-250.09"/>
<polygon fill="midnightblue" stroke="midnightblue" points="311.54,-252.67 317.39,-243.83 307.31,-247.1 311.54,-252.67"/>
</g>
<!-- Node14&#45;&gt;Node8 -->
<g id="edge20" class="edge">
<title>Node14&#45;&gt;Node8</title>
<path fill="none" stroke="midnightblue" d="M97.1,-168.37C91.1,-150.54 77.23,-109.3 69.15,-85.27"/>
<polygon fill="midnightblue" stroke="midnightblue" points="72.4,-83.95 65.89,-75.59 65.76,-86.19 72.4,-83.95"/>
</g>
<!-- Node21 -->
<g id="node21" class="node">
<title>Node21</title>
<g id="a_node21"><a xlink:title=" ">
<polygon fill="white" stroke="#bfbfbf" points="480.5,-336.5 480.5,-355.5 553.5,-355.5 553.5,-336.5 480.5,-336.5"/>
<text text-anchor="middle" x="517" y="-343.5" font-family="Helvetica,sans-Serif" font-size="10.00">json_fwd.hpp</text>
</a>
</g>
</g>
<!-- Node20&#45;&gt;Node21 -->
<g id="edge30" class="edge">
<title>Node20&#45;&gt;Node21</title>
<path fill="none" stroke="midnightblue" d="M474.42,-392.08C481.85,-384.22 492.85,-372.57 501.81,-363.08"/>
<polygon fill="midnightblue" stroke="midnightblue" points="504.41,-365.42 508.74,-355.75 499.32,-360.62 504.41,-365.42"/>
</g>
<!-- Node22&#45;&gt;Node3 -->
<g id="edge33" class="edge">
<title>Node22&#45;&gt;Node3</title>
<path fill="none" stroke="midnightblue" d="M564.43,-280.24C561.92,-267.42 556.31,-243.01 547,-224 519.99,-168.83 516.74,-146.63 466,-112 431.02,-88.13 384.21,-76.92 347.96,-71.66"/>
<polygon fill="midnightblue" stroke="midnightblue" points="348.41,-68.18 338.03,-70.32 347.48,-75.12 348.41,-68.18"/>
</g>
<!-- Node22&#45;&gt;Node15 -->
<g id="edge34" class="edge">
<title>Node22&#45;&gt;Node15</title>
<path fill="none" stroke="midnightblue" d="M556.84,-280.32C548.5,-272.42 535.97,-260.55 525.82,-250.94"/>
<polygon fill="midnightblue" stroke="midnightblue" points="527.99,-248.17 518.32,-243.83 523.18,-253.25 527.99,-248.17"/>
</g>
</g>
</svg>
