<?xml version="1.0" encoding="UTF-8" standalone="no"?>
<!DOCTYPE svg PUBLIC "-//W3C//DTD SVG 1.1//EN"
 "http://www.w3.org/Graphics/SVG/1.1/DTD/svg11.dtd">
<!-- Generated by graphviz version 2.50.0 (20211204.2007)
 -->
<!-- Title: MessageChain.cpp Pages: 1 -->
<svg width="1405pt" height="644pt"
 viewBox="0.00 0.00 1405.23 644.00" xmlns="http://www.w3.org/2000/svg" xmlns:xlink="http://www.w3.org/1999/xlink">
<g id="graph0" class="graph" transform="scale(1 1) rotate(0) translate(4 640)">
<title>MessageChain.cpp</title>
<polygon fill="white" stroke="transparent" points="-4,4 -4,-640 1401.23,-640 1401.23,4 -4,4"/>
<!-- Node1 -->
<g id="node1" class="node">
<title>Node1</title>
<g id="a_node1"><a xlink:title=" ">
<polygon fill="#bfbfbf" stroke="black" points="854.5,-616.5 854.5,-635.5 954.5,-635.5 954.5,-616.5 854.5,-616.5"/>
<text text-anchor="middle" x="904.5" y="-623.5" font-family="Helvetica,sans-Serif" font-size="10.00">MessageChain.cpp</text>
</a>
</g>
</g>
<!-- Node2 -->
<g id="node2" class="node">
<title>Node2</title>
<g id="a_node2"><a xlink:href="a00122.html" target="_top" xlink:title=" ">
<polygon fill="white" stroke="black" points="103.5,-392.5 103.5,-411.5 171.5,-411.5 171.5,-392.5 103.5,-392.5"/>
<text text-anchor="middle" x="137.5" y="-399.5" font-family="Helvetica,sans-Serif" font-size="10.00">Exception.h</text>
</a>
</g>
</g>
<!-- Node1&#45;&gt;Node2 -->
<g id="edge1" class="edge">
<title>Node1&#45;&gt;Node2</title>
<path fill="none" stroke="midnightblue" d="M874.9,-616.43C755.9,-581.99 312.28,-453.59 176.95,-414.42"/>
<polygon fill="midnightblue" stroke="midnightblue" points="177.59,-410.96 167.01,-411.54 175.64,-417.68 177.59,-410.96"/>
</g>
<!-- Node6 -->
<g id="node6" class="node">
<title>Node6</title>
<g id="a_node6"><a xlink:href="a00143.html" target="_top" xlink:title=" ">
<polygon fill="white" stroke="black" points="661.5,-280.5 661.5,-299.5 715.5,-299.5 715.5,-280.5 661.5,-280.5"/>
<text text-anchor="middle" x="688.5" y="-287.5" font-family="Helvetica,sans-Serif" font-size="10.00">Logger.h</text>
</a>
</g>
</g>
<!-- Node1&#45;&gt;Node6 -->
<g id="edge63" class="edge">
<title>Node1&#45;&gt;Node6</title>
<path fill="none" stroke="midnightblue" d="M904.97,-616.27C906.06,-586.32 905.03,-487.41 847.5,-448 733.85,-370.14 625.5,-472.2 551.5,-356 546.73,-348.5 546.29,-343.2 551.5,-336 557.57,-327.62 612.88,-311.31 651.33,-300.8"/>
<polygon fill="midnightblue" stroke="midnightblue" points="652.46,-304.12 661.19,-298.13 650.63,-297.37 652.46,-304.12"/>
</g>
<!-- Node19 -->
<g id="node19" class="node">
<title>Node19</title>
<g id="a_node19"><a xlink:href="a00125.html" target="_top" xlink:title=" ">
<polygon fill="white" stroke="black" points="764.5,-504.5 764.5,-523.5 874.5,-523.5 874.5,-504.5 764.5,-504.5"/>
<text text-anchor="middle" x="819.5" y="-511.5" font-family="Helvetica,sans-Serif" font-size="10.00">ForwardedMessage.h</text>
</a>
</g>
</g>
<!-- Node1&#45;&gt;Node19 -->
<g id="edge25" class="edge">
<title>Node1&#45;&gt;Node19</title>
<path fill="none" stroke="midnightblue" d="M897.83,-616.37C883.74,-598.14 850.74,-555.43 832.39,-531.68"/>
<polygon fill="midnightblue" stroke="midnightblue" points="835.02,-529.36 826.14,-523.59 829.48,-533.64 835.02,-529.36"/>
</g>
<!-- Node20 -->
<g id="node20" class="node">
<title>Node20</title>
<g id="a_node20"><a xlink:href="a00152.html" target="_top" xlink:title=" ">
<polygon fill="white" stroke="black" points="682,-448.5 682,-467.5 771,-467.5 771,-448.5 682,-448.5"/>
<text text-anchor="middle" x="726.5" y="-455.5" font-family="Helvetica,sans-Serif" font-size="10.00">MessageChain.h</text>
</a>
</g>
</g>
<!-- Node1&#45;&gt;Node20 -->
<g id="edge70" class="edge">
<title>Node1&#45;&gt;Node20</title>
<path fill="none" stroke="midnightblue" d="M885.54,-616.47C854.57,-601.68 792.83,-568.56 755.5,-524 744.1,-510.4 736.37,-491.6 731.77,-477.72"/>
<polygon fill="midnightblue" stroke="midnightblue" points="735.02,-476.37 728.75,-467.83 728.33,-478.42 735.02,-476.37"/>
</g>
<!-- Node29 -->
<g id="node29" class="node">
<title>Node29</title>
<g id="a_node29"><a xlink:href="a00131.html" target="_top" xlink:title=" ">
<polygon fill="white" stroke="black" points="1007,-560.5 1007,-579.5 1058,-579.5 1058,-560.5 1007,-560.5"/>
<text text-anchor="middle" x="1032.5" y="-567.5" font-family="Helvetica,sans-Serif" font-size="10.00">Group.h</text>
</a>
</g>
</g>
<!-- Node1&#45;&gt;Node29 -->
<g id="edge47" class="edge">
<title>Node1&#45;&gt;Node29</title>
<path fill="none" stroke="midnightblue" d="M924.78,-616.44C945.85,-607.56 979.02,-593.56 1002.99,-583.45"/>
<polygon fill="midnightblue" stroke="midnightblue" points="1004.46,-586.63 1012.31,-579.52 1001.74,-580.18 1004.46,-586.63"/>
</g>
<!-- Node34 -->
<g id="node34" class="node">
<title>Node34</title>
<g id="a_node34"><a xlink:href="a00137.html" target="_top" xlink:title=" ">
<polygon fill="white" stroke="black" points="1215,-448.5 1215,-467.5 1292,-467.5 1292,-448.5 1215,-448.5"/>
<text text-anchor="middle" x="1253.5" y="-455.5" font-family="Helvetica,sans-Serif" font-size="10.00">KtOperation.h</text>
</a>
</g>
</g>
<!-- Node1&#45;&gt;Node34 -->
<g id="edge62" class="edge">
<title>Node1&#45;&gt;Node34</title>
<path fill="none" stroke="midnightblue" d="M949.72,-616.44C983.17,-609.17 1029.35,-597.18 1067.5,-580 1133.32,-550.36 1202.44,-499.28 1234.76,-474.03"/>
<polygon fill="midnightblue" stroke="midnightblue" points="1237.19,-476.58 1242.87,-467.63 1232.85,-471.08 1237.19,-476.58"/>
</g>
<!-- Node36 -->
<g id="node36" class="node">
<title>Node36</title>
<g id="a_node36"><a xlink:href="a00176.html" target="_top" xlink:title=" ">
<polygon fill="white" stroke="black" points="920.5,-280.5 920.5,-299.5 968.5,-299.5 968.5,-280.5 920.5,-280.5"/>
<text text-anchor="middle" x="944.5" y="-287.5" font-family="Helvetica,sans-Serif" font-size="10.00">Tools.h</text>
</a>
</g>
</g>
<!-- Node1&#45;&gt;Node36 -->
<g id="edge64" class="edge">
<title>Node1&#45;&gt;Node36</title>
<path fill="none" stroke="midnightblue" d="M910.62,-616.35C922.71,-598.38 948.5,-555.31 948.5,-515 948.5,-515 948.5,-515 948.5,-401 948.5,-368.93 946.78,-331.63 945.6,-309.74"/>
<polygon fill="midnightblue" stroke="midnightblue" points="949.08,-309.34 945.02,-299.55 942.09,-309.73 949.08,-309.34"/>
</g>
<!-- Node3 -->
<g id="node3" class="node">
<title>Node3</title>
<g id="a_node3"><a xlink:href="a00047.html" target="_top" xlink:title=" ">
<polygon fill="white" stroke="black" points="359.5,-56.5 359.5,-75.5 451.5,-75.5 451.5,-56.5 359.5,-56.5"/>
<text text-anchor="middle" x="405.5" y="-63.5" font-family="Helvetica,sans-Serif" font-size="10.00">MiraiCPMacros.h</text>
</a>
</g>
</g>
<!-- Node2&#45;&gt;Node3 -->
<g id="edge2" class="edge">
<title>Node2&#45;&gt;Node3</title>
<path fill="none" stroke="midnightblue" d="M139.07,-392.48C142.32,-374.04 149.5,-329.04 149.5,-291 149.5,-291 149.5,-291 149.5,-177 149.5,-146.2 150.03,-131.94 173.5,-112 199.47,-89.93 289.45,-77.55 349.41,-71.58"/>
<polygon fill="midnightblue" stroke="midnightblue" points="349.88,-75.05 359.5,-70.61 349.21,-68.09 349.88,-75.05"/>
</g>
<!-- Node5 -->
<g id="node5" class="node">
<title>Node5</title>
<g id="a_node5"><a xlink:href="a00116.html" target="_top" xlink:title=" ">
<polygon fill="white" stroke="black" points="394.5,-336.5 394.5,-355.5 466.5,-355.5 466.5,-336.5 394.5,-336.5"/>
<text text-anchor="middle" x="430.5" y="-343.5" font-family="Helvetica,sans-Serif" font-size="10.00">CPPPlugin.h</text>
</a>
</g>
</g>
<!-- Node2&#45;&gt;Node5 -->
<g id="edge4" class="edge">
<title>Node2&#45;&gt;Node5</title>
<path fill="none" stroke="midnightblue" d="M171.68,-394.7C224.23,-385.02 324.96,-366.45 384.07,-355.56"/>
<polygon fill="midnightblue" stroke="midnightblue" points="385.05,-358.94 394.25,-353.68 383.78,-352.05 385.05,-358.94"/>
</g>
<!-- Node8 -->
<g id="node8" class="node">
<title>Node8</title>
<g id="a_node8"><a xlink:title=" ">
<polygon fill="white" stroke="#bfbfbf" points="771,-56.5 771,-75.5 812,-75.5 812,-56.5 771,-56.5"/>
<text text-anchor="middle" x="791.5" y="-63.5" font-family="Helvetica,sans-Serif" font-size="10.00">string</text>
</a>
</g>
</g>
<!-- Node2&#45;&gt;Node8 -->
<g id="edge23" class="edge">
<title>Node2&#45;&gt;Node8</title>
<path fill="none" stroke="midnightblue" d="M156.81,-392.48C190.33,-377.12 260.5,-342.4 310.5,-300 393.31,-229.78 371.63,-164.8 466.5,-112 516.68,-84.07 689.46,-72.22 760.56,-68.45"/>
<polygon fill="midnightblue" stroke="midnightblue" points="760.87,-71.94 770.67,-67.93 760.51,-64.95 760.87,-71.94"/>
</g>
<!-- Node17 -->
<g id="node17" class="node">
<title>Node17</title>
<g id="a_node17"><a xlink:title=" ">
<polygon fill="white" stroke="#bfbfbf" points="0,-336.5 0,-355.5 59,-355.5 59,-336.5 0,-336.5"/>
<text text-anchor="middle" x="29.5" y="-343.5" font-family="Helvetica,sans-Serif" font-size="10.00">exception</text>
</a>
</g>
</g>
<!-- Node2&#45;&gt;Node17 -->
<g id="edge22" class="edge">
<title>Node2&#45;&gt;Node17</title>
<path fill="none" stroke="midnightblue" d="M120.15,-392.32C102.83,-383.66 75.98,-370.24 56,-360.25"/>
<polygon fill="midnightblue" stroke="midnightblue" points="57.32,-357 46.81,-355.65 54.19,-363.26 57.32,-357"/>
</g>
<!-- Node18 -->
<g id="node18" class="node">
<title>Node18</title>
<g id="a_node18"><a xlink:title=" ">
<polygon fill="white" stroke="#bfbfbf" points="77.5,-336.5 77.5,-355.5 121.5,-355.5 121.5,-336.5 77.5,-336.5"/>
<text text-anchor="middle" x="99.5" y="-343.5" font-family="Helvetica,sans-Serif" font-size="10.00">thread</text>
</a>
</g>
</g>
<!-- Node2&#45;&gt;Node18 -->
<g id="edge24" class="edge">
<title>Node2&#45;&gt;Node18</title>
<path fill="none" stroke="midnightblue" d="M131.23,-392.08C125.86,-384.46 117.98,-373.26 111.42,-363.94"/>
<polygon fill="midnightblue" stroke="midnightblue" points="114.28,-361.91 105.66,-355.75 108.55,-365.94 114.28,-361.91"/>
</g>
<!-- Node4 -->
<g id="node4" class="node">
<title>Node4</title>
<g id="a_node4"><a xlink:title=" ">
<polygon fill="white" stroke="#bfbfbf" points="481,-0.5 481,-19.5 530,-19.5 530,-0.5 481,-0.5"/>
<text text-anchor="middle" x="505.5" y="-7.5" font-family="Helvetica,sans-Serif" font-size="10.00">cassert</text>
</a>
</g>
</g>
<!-- Node3&#45;&gt;Node4 -->
<g id="edge3" class="edge">
<title>Node3&#45;&gt;Node4</title>
<path fill="none" stroke="midnightblue" d="M421.57,-56.32C437.46,-47.74 462.01,-34.49 480.46,-24.52"/>
<polygon fill="midnightblue" stroke="midnightblue" points="482.34,-27.49 489.47,-19.65 479.01,-21.33 482.34,-27.49"/>
</g>
<!-- Node5&#45;&gt;Node6 -->
<g id="edge5" class="edge">
<title>Node5&#45;&gt;Node6</title>
<path fill="none" stroke="midnightblue" d="M466.57,-338.09C510.4,-329.59 586.54,-314.51 651.5,-300 651.6,-299.98 651.7,-299.95 651.8,-299.93"/>
<polygon fill="midnightblue" stroke="midnightblue" points="652.49,-303.36 661.45,-297.7 650.92,-296.54 652.49,-303.36"/>
</g>
<!-- Node10 -->
<g id="node10" class="node">
<title>Node10</title>
<g id="a_node10"><a xlink:href="a00056.html" target="_top" xlink:title=" ">
<polygon fill="white" stroke="black" points="472,-168.5 472,-187.5 551,-187.5 551,-168.5 472,-168.5"/>
<text text-anchor="middle" x="511.5" y="-175.5" font-family="Helvetica,sans-Serif" font-size="10.00">PluginConfig.h</text>
</a>
</g>
</g>
<!-- Node5&#45;&gt;Node10 -->
<g id="edge20" class="edge">
<title>Node5&#45;&gt;Node10</title>
<path fill="none" stroke="midnightblue" d="M438.54,-336.33C453.4,-319.78 485.05,-281.94 500.5,-244 506.51,-229.24 509.24,-211.31 510.47,-198.03"/>
<polygon fill="midnightblue" stroke="midnightblue" points="513.99,-197.97 511.22,-187.74 507.01,-197.46 513.99,-197.97"/>
</g>
<!-- Node16 -->
<g id="node16" class="node">
<title>Node16</title>
<g id="a_node16"><a xlink:title=" ">
<polygon fill="white" stroke="#bfbfbf" points="862.5,-280.5 862.5,-299.5 902.5,-299.5 902.5,-280.5 862.5,-280.5"/>
<text text-anchor="middle" x="882.5" y="-287.5" font-family="Helvetica,sans-Serif" font-size="10.00">utility</text>
</a>
</g>
</g>
<!-- Node5&#45;&gt;Node16 -->
<g id="edge21" class="edge">
<title>Node5&#45;&gt;Node16</title>
<path fill="none" stroke="midnightblue" d="M466.72,-340.67C553.54,-330.3 772.19,-304.18 852.4,-294.6"/>
<polygon fill="midnightblue" stroke="midnightblue" points="852.82,-298.07 862.34,-293.41 851.99,-291.12 852.82,-298.07"/>
</g>
<!-- Node7 -->
<g id="node7" class="node">
<title>Node7</title>
<g id="a_node7"><a xlink:href="a00158.html" target="_top" xlink:title=" ">
<polygon fill="white" stroke="black" points="722.5,-224.5 722.5,-243.5 790.5,-243.5 790.5,-224.5 722.5,-224.5"/>
<text text-anchor="middle" x="756.5" y="-231.5" font-family="Helvetica,sans-Serif" font-size="10.00">MiraiCode.h</text>
</a>
</g>
</g>
<!-- Node6&#45;&gt;Node7 -->
<g id="edge6" class="edge">
<title>Node6&#45;&gt;Node7</title>
<path fill="none" stroke="midnightblue" d="M699.43,-280.32C709.67,-272.18 725.22,-259.84 737.5,-250.09"/>
<polygon fill="midnightblue" stroke="midnightblue" points="739.72,-252.79 745.38,-243.83 735.37,-247.31 739.72,-252.79"/>
</g>
<!-- Node9 -->
<g id="node9" class="node">
<title>Node9</title>
<g id="a_node9"><a xlink:href="a00041.html" target="_top" xlink:title=" ">
<polygon fill="white" stroke="black" points="562,-224.5 562,-243.5 651,-243.5 651,-224.5 562,-224.5"/>
<text text-anchor="middle" x="606.5" y="-231.5" font-family="Helvetica,sans-Serif" font-size="10.00">commonTypes.h</text>
</a>
</g>
</g>
<!-- Node6&#45;&gt;Node9 -->
<g id="edge8" class="edge">
<title>Node6&#45;&gt;Node9</title>
<path fill="none" stroke="midnightblue" d="M675.33,-280.32C662.65,-271.98 643.27,-259.21 628.29,-249.35"/>
<polygon fill="midnightblue" stroke="midnightblue" points="629.92,-246.23 619.64,-243.65 626.07,-252.08 629.92,-246.23"/>
</g>
<!-- Node14 -->
<g id="node14" class="node">
<title>Node14</title>
<g id="a_node14"><a xlink:title=" ">
<polygon fill="white" stroke="#bfbfbf" points="433.5,-224.5 433.5,-243.5 491.5,-243.5 491.5,-224.5 433.5,-224.5"/>
<text text-anchor="middle" x="462.5" y="-231.5" font-family="Helvetica,sans-Serif" font-size="10.00">functional</text>
</a>
</g>
</g>
<!-- Node6&#45;&gt;Node14 -->
<g id="edge18" class="edge">
<title>Node6&#45;&gt;Node14</title>
<path fill="none" stroke="midnightblue" d="M661.43,-282.4C658.08,-281.59 654.71,-280.77 651.5,-280 599.79,-267.56 540.08,-253.37 501.84,-244.31"/>
<polygon fill="midnightblue" stroke="midnightblue" points="502.19,-240.79 491.65,-241.89 500.57,-247.6 502.19,-240.79"/>
</g>
<!-- Node15 -->
<g id="node15" class="node">
<title>Node15</title>
<g id="a_node15"><a xlink:title=" ">
<polygon fill="white" stroke="#bfbfbf" points="808.5,-224.5 808.5,-243.5 860.5,-243.5 860.5,-224.5 808.5,-224.5"/>
<text text-anchor="middle" x="834.5" y="-231.5" font-family="Helvetica,sans-Serif" font-size="10.00">sstream</text>
</a>
</g>
</g>
<!-- Node6&#45;&gt;Node15 -->
<g id="edge19" class="edge">
<title>Node6&#45;&gt;Node15</title>
<path fill="none" stroke="midnightblue" d="M711.63,-280.44C735.98,-271.44 774.51,-257.19 801.92,-247.05"/>
<polygon fill="midnightblue" stroke="midnightblue" points="803.31,-250.27 811.47,-243.52 800.88,-243.7 803.31,-250.27"/>
</g>
<!-- Node7&#45;&gt;Node8 -->
<g id="edge7" class="edge">
<title>Node7&#45;&gt;Node8</title>
<path fill="none" stroke="midnightblue" d="M758.38,-224.08C763.89,-197.95 780.07,-121.21 787.58,-85.58"/>
<polygon fill="midnightblue" stroke="midnightblue" points="791.06,-86.08 789.69,-75.57 784.21,-84.63 791.06,-86.08"/>
</g>
<!-- Node9&#45;&gt;Node3 -->
<g id="edge9" class="edge">
<title>Node9&#45;&gt;Node3</title>
<path fill="none" stroke="midnightblue" d="M561.96,-228.55C530.91,-223.37 490.25,-212.17 462.5,-188 446.13,-173.73 423.25,-115.73 412.12,-85.51"/>
<polygon fill="midnightblue" stroke="midnightblue" points="415.28,-83.97 408.58,-75.76 408.7,-86.36 415.28,-83.97"/>
</g>
<!-- Node9&#45;&gt;Node10 -->
<g id="edge10" class="edge">
<title>Node9&#45;&gt;Node10</title>
<path fill="none" stroke="midnightblue" d="M591.24,-224.32C576.28,-215.82 553.25,-202.73 535.77,-192.8"/>
<polygon fill="midnightblue" stroke="midnightblue" points="537.15,-189.55 526.73,-187.65 533.69,-195.64 537.15,-189.55"/>
</g>
<!-- Node13 -->
<g id="node13" class="node">
<title>Node13</title>
<g id="a_node13"><a xlink:href="a00044.html" target="_top" xlink:title=" ">
<polygon fill="white" stroke="black" points="569,-168.5 569,-187.5 666,-187.5 666,-168.5 569,-168.5"/>
<text text-anchor="middle" x="617.5" y="-175.5" font-family="Helvetica,sans-Serif" font-size="10.00">loaderApiInternal.h</text>
</a>
</g>
</g>
<!-- Node9&#45;&gt;Node13 -->
<g id="edge16" class="edge">
<title>Node9&#45;&gt;Node13</title>
<path fill="none" stroke="midnightblue" d="M608.32,-224.08C609.77,-216.93 611.87,-206.64 613.69,-197.69"/>
<polygon fill="midnightblue" stroke="midnightblue" points="617.15,-198.25 615.72,-187.75 610.29,-196.85 617.15,-198.25"/>
</g>
<!-- Node11 -->
<g id="node11" class="node">
<title>Node11</title>
<g id="a_node11"><a xlink:href="a00050.html" target="_top" xlink:title=" ">
<polygon fill="white" stroke="black" points="547.5,-112.5 547.5,-131.5 663.5,-131.5 663.5,-112.5 547.5,-112.5"/>
<text text-anchor="middle" x="605.5" y="-119.5" font-family="Helvetica,sans-Serif" font-size="10.00">MiraiCPStringInternal.h</text>
</a>
</g>
</g>
<!-- Node10&#45;&gt;Node11 -->
<g id="edge11" class="edge">
<title>Node10&#45;&gt;Node11</title>
<path fill="none" stroke="midnightblue" d="M526.6,-168.32C541.4,-159.82 564.19,-146.73 581.48,-136.8"/>
<polygon fill="midnightblue" stroke="midnightblue" points="583.51,-139.67 590.43,-131.65 580.02,-133.6 583.51,-139.67"/>
</g>
<!-- Node12 -->
<g id="node12" class="node">
<title>Node12</title>
<g id="a_node12"><a xlink:title=" ">
<polygon fill="white" stroke="#bfbfbf" points="476,-112.5 476,-131.5 529,-131.5 529,-112.5 476,-112.5"/>
<text text-anchor="middle" x="502.5" y="-119.5" font-family="Helvetica,sans-Serif" font-size="10.00">json.hpp</text>
</a>
</g>
</g>
<!-- Node10&#45;&gt;Node12 -->
<g id="edge15" class="edge">
<title>Node10&#45;&gt;Node12</title>
<path fill="none" stroke="midnightblue" d="M510.01,-168.08C508.82,-160.93 507.11,-150.64 505.62,-141.69"/>
<polygon fill="midnightblue" stroke="midnightblue" points="509.05,-141.04 503.96,-131.75 502.15,-142.19 509.05,-141.04"/>
</g>
<!-- Node11&#45;&gt;Node3 -->
<g id="edge12" class="edge">
<title>Node11&#45;&gt;Node3</title>
<path fill="none" stroke="midnightblue" d="M573.81,-112.44C539.43,-103.16 484.42,-88.31 446.71,-78.13"/>
<polygon fill="midnightblue" stroke="midnightblue" points="447.61,-74.74 437.04,-75.52 445.78,-81.5 447.61,-74.74"/>
</g>
<!-- Node11&#45;&gt;Node4 -->
<g id="edge13" class="edge">
<title>Node11&#45;&gt;Node4</title>
<path fill="none" stroke="midnightblue" d="M597.65,-112.37C580.93,-93.97 541.56,-50.67 520.09,-27.05"/>
<polygon fill="midnightblue" stroke="midnightblue" points="522.63,-24.64 513.31,-19.59 517.45,-29.35 522.63,-24.64"/>
</g>
<!-- Node11&#45;&gt;Node8 -->
<g id="edge14" class="edge">
<title>Node11&#45;&gt;Node8</title>
<path fill="none" stroke="midnightblue" d="M634.97,-112.44C669.47,-102.43 726.3,-85.93 761.16,-75.81"/>
<polygon fill="midnightblue" stroke="midnightblue" points="762.18,-79.16 770.8,-73.01 760.23,-72.44 762.18,-79.16"/>
</g>
<!-- Node13&#45;&gt;Node11 -->
<g id="edge17" class="edge">
<title>Node13&#45;&gt;Node11</title>
<path fill="none" stroke="midnightblue" d="M615.52,-168.08C613.93,-160.93 611.64,-150.64 609.65,-141.69"/>
<polygon fill="midnightblue" stroke="midnightblue" points="613.03,-140.75 607.44,-131.75 606.2,-142.27 613.03,-140.75"/>
</g>
<!-- Node19&#45;&gt;Node16 -->
<g id="edge45" class="edge">
<title>Node19&#45;&gt;Node16</title>
<path fill="none" stroke="midnightblue" d="M826.3,-504.2C832.71,-495.48 842.11,-481.5 847.5,-468 869.41,-413.08 878.04,-342.93 881.06,-309.86"/>
<polygon fill="midnightblue" stroke="midnightblue" points="884.55,-310.05 881.91,-299.79 877.58,-309.46 884.55,-310.05"/>
</g>
<!-- Node19&#45;&gt;Node20 -->
<g id="edge26" class="edge">
<title>Node19&#45;&gt;Node20</title>
<path fill="none" stroke="midnightblue" d="M804.56,-504.32C789.91,-495.82 767.37,-482.73 750.26,-472.8"/>
<polygon fill="midnightblue" stroke="midnightblue" points="751.81,-469.65 741.4,-467.65 748.3,-475.7 751.81,-469.65"/>
</g>
<!-- Node28 -->
<g id="node28" class="node">
<title>Node28</title>
<g id="a_node28"><a xlink:title=" ">
<polygon fill="white" stroke="#bfbfbf" points="794.5,-448.5 794.5,-467.5 838.5,-467.5 838.5,-448.5 794.5,-448.5"/>
<text text-anchor="middle" x="816.5" y="-455.5" font-family="Helvetica,sans-Serif" font-size="10.00">variant</text>
</a>
</g>
</g>
<!-- Node19&#45;&gt;Node28 -->
<g id="edge46" class="edge">
<title>Node19&#45;&gt;Node28</title>
<path fill="none" stroke="midnightblue" d="M819,-504.08C818.61,-497.01 818.05,-486.86 817.55,-477.99"/>
<polygon fill="midnightblue" stroke="midnightblue" points="821.04,-477.54 816.99,-467.75 814.05,-477.93 821.04,-477.54"/>
</g>
<!-- Node20&#45;&gt;Node2 -->
<g id="edge28" class="edge">
<title>Node20&#45;&gt;Node2</title>
<path fill="none" stroke="midnightblue" d="M681.8,-454.83C589,-449.99 368.8,-436.74 185.5,-412 184.22,-411.83 182.93,-411.64 181.63,-411.45"/>
<polygon fill="midnightblue" stroke="midnightblue" points="181.95,-407.96 171.52,-409.82 180.83,-414.87 181.95,-407.96"/>
</g>
<!-- Node20&#45;&gt;Node3 -->
<g id="edge27" class="edge">
<title>Node20&#45;&gt;Node3</title>
<path fill="none" stroke="midnightblue" d="M681.82,-453.07C626.13,-447.43 528.42,-435.08 447.5,-412 313.07,-373.65 187.5,-374.79 187.5,-235 187.5,-235 187.5,-235 187.5,-177 187.5,-104.57 284.61,-79.82 349.2,-71.37"/>
<polygon fill="midnightblue" stroke="midnightblue" points="349.76,-74.83 359.27,-70.15 348.92,-67.88 349.76,-74.83"/>
</g>
<!-- Node21 -->
<g id="node21" class="node">
<title>Node21</title>
<g id="a_node21"><a xlink:href="a00170.html" target="_top" xlink:title=" ">
<polygon fill="white" stroke="black" points="680.5,-392.5 680.5,-411.5 772.5,-411.5 772.5,-392.5 680.5,-392.5"/>
<text text-anchor="middle" x="726.5" y="-399.5" font-family="Helvetica,sans-Serif" font-size="10.00">SingleMessage.h</text>
</a>
</g>
</g>
<!-- Node20&#45;&gt;Node21 -->
<g id="edge29" class="edge">
<title>Node20&#45;&gt;Node21</title>
<path fill="none" stroke="midnightblue" d="M726.5,-448.08C726.5,-441.01 726.5,-430.86 726.5,-421.99"/>
<polygon fill="midnightblue" stroke="midnightblue" points="730,-421.75 726.5,-411.75 723,-421.75 730,-421.75"/>
</g>
<!-- Node27 -->
<g id="node27" class="node">
<title>Node27</title>
<g id="a_node27"><a xlink:href="a00038.html" target="_top" xlink:title=" ">
<polygon fill="white" stroke="black" points="215.5,-280.5 215.5,-299.5 301.5,-299.5 301.5,-280.5 215.5,-280.5"/>
<text text-anchor="middle" x="258.5" y="-287.5" font-family="Helvetica,sans-Serif" font-size="10.00">commonTools.h</text>
</a>
</g>
</g>
<!-- Node20&#45;&gt;Node27 -->
<g id="edge42" class="edge">
<title>Node20&#45;&gt;Node27</title>
<path fill="none" stroke="midnightblue" d="M681.91,-450.04C610.03,-437.71 465.22,-408.29 352.5,-356 323.89,-342.72 294.56,-320.87 276.44,-306.21"/>
<polygon fill="midnightblue" stroke="midnightblue" points="278.44,-303.32 268.5,-299.66 273.99,-308.72 278.44,-303.32"/>
</g>
<!-- Node21&#45;&gt;Node3 -->
<g id="edge30" class="edge">
<title>Node21&#45;&gt;Node3</title>
<path fill="none" stroke="midnightblue" d="M680.23,-398.24C591.54,-392.47 404.64,-377.83 385.5,-356 316.32,-277.09 373.2,-134.82 396.6,-84.9"/>
<polygon fill="midnightblue" stroke="midnightblue" points="399.85,-86.23 401.03,-75.7 393.54,-83.19 399.85,-86.23"/>
</g>
<!-- Node21&#45;&gt;Node7 -->
<g id="edge35" class="edge">
<title>Node21&#45;&gt;Node7</title>
<path fill="none" stroke="midnightblue" d="M741.45,-392.47C753.43,-384.7 769.37,-372 776.5,-356 791.81,-321.62 776.45,-277.04 765.47,-252.72"/>
<polygon fill="midnightblue" stroke="midnightblue" points="768.59,-251.15 761.13,-243.64 762.28,-254.17 768.59,-251.15"/>
</g>
<!-- Node21&#45;&gt;Node15 -->
<g id="edge39" class="edge">
<title>Node21&#45;&gt;Node15</title>
<path fill="none" stroke="midnightblue" d="M745.79,-392.37C760.75,-384.77 780.98,-372.36 793.5,-356 817.34,-324.84 827.81,-278.96 832,-253.59"/>
<polygon fill="midnightblue" stroke="midnightblue" points="835.5,-253.91 833.52,-243.5 828.57,-252.87 835.5,-253.91"/>
</g>
<!-- Node21&#45;&gt;Node16 -->
<g id="edge41" class="edge">
<title>Node21&#45;&gt;Node16</title>
<path fill="none" stroke="midnightblue" d="M772.7,-392.42C797.48,-385.89 827.22,-374.71 848.5,-356 862.52,-343.67 871.64,-324.14 876.86,-309.71"/>
<polygon fill="midnightblue" stroke="midnightblue" points="880.3,-310.45 880.12,-299.86 873.66,-308.26 880.3,-310.45"/>
</g>
<!-- Node22 -->
<g id="node22" class="node">
<title>Node22</title>
<g id="a_node22"><a xlink:href="a00155.html" target="_top" xlink:title=" ">
<polygon fill="white" stroke="black" points="548,-280.5 548,-299.5 643,-299.5 643,-280.5 548,-280.5"/>
<text text-anchor="middle" x="595.5" y="-287.5" font-family="Helvetica,sans-Serif" font-size="10.00">MessageSource.h</text>
</a>
</g>
</g>
<!-- Node21&#45;&gt;Node22 -->
<g id="edge31" class="edge">
<title>Node21&#45;&gt;Node22</title>
<path fill="none" stroke="midnightblue" d="M680.2,-395.5C633.83,-388.92 567.17,-376.2 551.5,-356 538.7,-339.49 557,-319.45 573.75,-306.02"/>
<polygon fill="midnightblue" stroke="midnightblue" points="576.32,-308.47 582.19,-299.66 572.1,-302.88 576.32,-308.47"/>
</g>
<!-- Node23 -->
<g id="node23" class="node">
<title>Node23</title>
<g id="a_node23"><a xlink:title=" ">
<polygon fill="white" stroke="#bfbfbf" points="560.5,-336.5 560.5,-355.5 598.5,-355.5 598.5,-336.5 560.5,-336.5"/>
<text text-anchor="middle" x="579.5" y="-343.5" font-family="Helvetica,sans-Serif" font-size="10.00">array</text>
</a>
</g>
</g>
<!-- Node21&#45;&gt;Node23 -->
<g id="edge36" class="edge">
<title>Node21&#45;&gt;Node23</title>
<path fill="none" stroke="midnightblue" d="M703.21,-392.44C677.54,-383.01 636.22,-367.84 608.48,-357.65"/>
<polygon fill="midnightblue" stroke="midnightblue" points="609.52,-354.3 598.93,-354.14 607.11,-360.87 609.52,-354.3"/>
</g>
<!-- Node24 -->
<g id="node24" class="node">
<title>Node24</title>
<g id="a_node24"><a xlink:title=" ">
<polygon fill="white" stroke="#bfbfbf" points="1258,-336.5 1258,-355.5 1331,-355.5 1331,-336.5 1258,-336.5"/>
<text text-anchor="middle" x="1294.5" y="-343.5" font-family="Helvetica,sans-Serif" font-size="10.00">json_fwd.hpp</text>
</a>
</g>
</g>
<!-- Node21&#45;&gt;Node24 -->
<g id="edge37" class="edge">
<title>Node21&#45;&gt;Node24</title>
<path fill="none" stroke="midnightblue" d="M772.5,-396.63C878.83,-386.52 1140.69,-361.62 1247.75,-351.44"/>
<polygon fill="midnightblue" stroke="midnightblue" points="1248.29,-354.91 1257.91,-350.48 1247.63,-347.94 1248.29,-354.91"/>
</g>
<!-- Node25 -->
<g id="node25" class="node">
<title>Node25</title>
<g id="a_node25"><a xlink:title=" ">
<polygon fill="white" stroke="#bfbfbf" points="616.5,-336.5 616.5,-355.5 666.5,-355.5 666.5,-336.5 616.5,-336.5"/>
<text text-anchor="middle" x="641.5" y="-343.5" font-family="Helvetica,sans-Serif" font-size="10.00">optional</text>
</a>
</g>
</g>
<!-- Node21&#45;&gt;Node25 -->
<g id="edge38" class="edge">
<title>Node21&#45;&gt;Node25</title>
<path fill="none" stroke="midnightblue" d="M712.84,-392.32C699.58,-383.9 679.23,-370.97 663.65,-361.07"/>
<polygon fill="midnightblue" stroke="midnightblue" points="665.44,-358.06 655.12,-355.65 661.69,-363.97 665.44,-358.06"/>
</g>
<!-- Node26 -->
<g id="node26" class="node">
<title>Node26</title>
<g id="a_node26"><a xlink:title=" ">
<polygon fill="white" stroke="#bfbfbf" points="685,-336.5 685,-355.5 768,-355.5 768,-336.5 685,-336.5"/>
<text text-anchor="middle" x="726.5" y="-343.5" font-family="Helvetica,sans-Serif" font-size="10.00">unordered_map</text>
</a>
</g>
</g>
<!-- Node21&#45;&gt;Node26 -->
<g id="edge40" class="edge">
<title>Node21&#45;&gt;Node26</title>
<path fill="none" stroke="midnightblue" d="M726.5,-392.08C726.5,-385.01 726.5,-374.86 726.5,-365.99"/>
<polygon fill="midnightblue" stroke="midnightblue" points="730,-365.75 726.5,-355.75 723,-365.75 730,-365.75"/>
</g>
<!-- Node22&#45;&gt;Node3 -->
<g id="edge32" class="edge">
<title>Node22&#45;&gt;Node3</title>
<path fill="none" stroke="midnightblue" d="M547.73,-282.55C502.91,-275.46 440.46,-262.56 424.5,-244 385.59,-198.75 394.57,-121.06 401.33,-85.61"/>
<polygon fill="midnightblue" stroke="midnightblue" points="404.79,-86.18 403.38,-75.68 397.93,-84.76 404.79,-86.18"/>
</g>
<!-- Node22&#45;&gt;Node8 -->
<g id="edge34" class="edge">
<title>Node22&#45;&gt;Node8</title>
<path fill="none" stroke="midnightblue" d="M610.48,-280.37C624.13,-272.08 644.41,-258.68 659.5,-244 712.53,-192.43 760.61,-118.05 781.07,-84.54"/>
<polygon fill="midnightblue" stroke="midnightblue" points="784.13,-86.24 786.31,-75.87 778.14,-82.62 784.13,-86.24"/>
</g>
<!-- Node22&#45;&gt;Node9 -->
<g id="edge33" class="edge">
<title>Node22&#45;&gt;Node9</title>
<path fill="none" stroke="midnightblue" d="M597.32,-280.08C598.77,-272.93 600.87,-262.64 602.69,-253.69"/>
<polygon fill="midnightblue" stroke="midnightblue" points="606.15,-254.25 604.72,-243.75 599.29,-252.85 606.15,-254.25"/>
</g>
<!-- Node27&#45;&gt;Node3 -->
<g id="edge43" class="edge">
<title>Node27&#45;&gt;Node3</title>
<path fill="none" stroke="midnightblue" d="M258.99,-280.11C260.99,-252.06 270.71,-164.18 315.5,-112 328.56,-96.79 347.99,-86.17 365.46,-79.09"/>
<polygon fill="midnightblue" stroke="midnightblue" points="366.8,-82.32 374.91,-75.51 364.32,-75.78 366.8,-82.32"/>
</g>
<!-- Node27&#45;&gt;Node14 -->
<g id="edge44" class="edge">
<title>Node27&#45;&gt;Node14</title>
<path fill="none" stroke="midnightblue" d="M290.82,-280.44C326.82,-270.92 384.98,-255.52 423.48,-245.33"/>
<polygon fill="midnightblue" stroke="midnightblue" points="424.53,-248.67 433.3,-242.73 422.74,-241.9 424.53,-248.67"/>
</g>
<!-- Node29&#45;&gt;Node16 -->
<g id="edge61" class="edge">
<title>Node29&#45;&gt;Node16</title>
<path fill="none" stroke="midnightblue" d="M1026.1,-560.39C1013.46,-542.5 986.5,-499.57 986.5,-459 986.5,-459 986.5,-459 986.5,-401 986.5,-356.22 940.44,-322.32 909.62,-304.66"/>
<polygon fill="midnightblue" stroke="midnightblue" points="911.06,-301.46 900.62,-299.7 907.69,-307.59 911.06,-301.46"/>
</g>
<!-- Node29&#45;&gt;Node24 -->
<g id="edge60" class="edge">
<title>Node29&#45;&gt;Node24</title>
<path fill="none" stroke="midnightblue" d="M1058.22,-567.6C1128.6,-562.18 1323.77,-536.08 1393.5,-412 1408.33,-385.6 1373.34,-368.07 1340.94,-357.93"/>
<polygon fill="midnightblue" stroke="midnightblue" points="1341.6,-354.48 1331.02,-355.02 1339.63,-361.2 1341.6,-354.48"/>
</g>
<!-- Node30 -->
<g id="node30" class="node">
<title>Node30</title>
<g id="a_node30"><a xlink:href="a00113.html" target="_top" xlink:title=" ">
<polygon fill="white" stroke="black" points="1033,-504.5 1033,-523.5 1092,-523.5 1092,-504.5 1033,-504.5"/>
<text text-anchor="middle" x="1062.5" y="-511.5" font-family="Helvetica,sans-Serif" font-size="10.00">Contact.h</text>
</a>
</g>
</g>
<!-- Node29&#45;&gt;Node30 -->
<g id="edge48" class="edge">
<title>Node29&#45;&gt;Node30</title>
<path fill="none" stroke="midnightblue" d="M1037.45,-560.08C1041.6,-552.61 1047.65,-541.72 1052.77,-532.52"/>
<polygon fill="midnightblue" stroke="midnightblue" points="1055.84,-534.19 1057.64,-523.75 1049.72,-530.79 1055.84,-534.19"/>
</g>
<!-- Node30&#45;&gt;Node8 -->
<g id="edge59" class="edge">
<title>Node30&#45;&gt;Node8</title>
<path fill="none" stroke="midnightblue" d="M1057.22,-504.23C1046.77,-486.04 1024.5,-442.6 1024.5,-403 1024.5,-403 1024.5,-403 1024.5,-177 1024.5,-88.62 885.72,-71.14 822.37,-67.76"/>
<polygon fill="midnightblue" stroke="midnightblue" points="822.32,-64.26 812.18,-67.31 822.01,-71.25 822.32,-64.26"/>
</g>
<!-- Node30&#45;&gt;Node20 -->
<g id="edge57" class="edge">
<title>Node30&#45;&gt;Node20</title>
<path fill="none" stroke="midnightblue" d="M1032.98,-508.26C976.66,-499.2 853.1,-479.35 781.25,-467.8"/>
<polygon fill="midnightblue" stroke="midnightblue" points="781.47,-464.29 771.04,-466.16 780.36,-471.2 781.47,-464.29"/>
</g>
<!-- Node30&#45;&gt;Node24 -->
<g id="edge58" class="edge">
<title>Node30&#45;&gt;Node24</title>
<path fill="none" stroke="midnightblue" d="M1060.89,-504.27C1057.36,-482.19 1051.49,-423.62 1081.5,-392 1103.85,-368.45 1192.14,-356.24 1247.79,-350.76"/>
<polygon fill="midnightblue" stroke="midnightblue" points="1248.15,-354.24 1257.78,-349.81 1247.49,-347.27 1248.15,-354.24"/>
</g>
<!-- Node31 -->
<g id="node31" class="node">
<title>Node31</title>
<g id="a_node31"><a xlink:href="a00134.html" target="_top" xlink:title=" ">
<polygon fill="white" stroke="black" points="1090.5,-448.5 1090.5,-467.5 1158.5,-467.5 1158.5,-448.5 1090.5,-448.5"/>
<text text-anchor="middle" x="1124.5" y="-455.5" font-family="Helvetica,sans-Serif" font-size="10.00">IMiraiData.h</text>
</a>
</g>
</g>
<!-- Node30&#45;&gt;Node31 -->
<g id="edge49" class="edge">
<title>Node30&#45;&gt;Node31</title>
<path fill="none" stroke="midnightblue" d="M1072.46,-504.32C1081.63,-496.34 1095.44,-484.31 1106.53,-474.65"/>
<polygon fill="midnightblue" stroke="midnightblue" points="1109.12,-477.04 1114.36,-467.83 1104.52,-471.76 1109.12,-477.04"/>
</g>
<!-- Node30&#45;&gt;Node34 -->
<g id="edge53" class="edge">
<title>Node30&#45;&gt;Node34</title>
<path fill="none" stroke="midnightblue" d="M1092.34,-504.56C1124.95,-495.34 1177.35,-480.53 1213.5,-470.31"/>
<polygon fill="midnightblue" stroke="midnightblue" points="1214.56,-473.65 1223.24,-467.56 1212.66,-466.91 1214.56,-473.65"/>
</g>
<!-- Node35 -->
<g id="node35" class="node">
<title>Node35</title>
<g id="a_node35"><a xlink:href="a00146.html" target="_top" xlink:title=" ">
<polygon fill="white" stroke="black" points="1288.5,-392.5 1288.5,-411.5 1368.5,-411.5 1368.5,-392.5 1288.5,-392.5"/>
<text text-anchor="middle" x="1328.5" y="-399.5" font-family="Helvetica,sans-Serif" font-size="10.00">LowLevelAPI.h</text>
</a>
</g>
</g>
<!-- Node30&#45;&gt;Node35 -->
<g id="edge55" class="edge">
<title>Node30&#45;&gt;Node35</title>
<path fill="none" stroke="midnightblue" d="M1083.61,-504.46C1104.95,-495.7 1138.78,-481.5 1167.5,-468 1185.13,-459.71 1188.66,-455.83 1206.5,-448 1235.02,-435.48 1268.24,-423.38 1292.81,-414.89"/>
<polygon fill="midnightblue" stroke="midnightblue" points="1294.11,-418.14 1302.44,-411.59 1291.84,-411.52 1294.11,-418.14"/>
</g>
<!-- Node31&#45;&gt;Node24 -->
<g id="edge50" class="edge">
<title>Node31&#45;&gt;Node24</title>
<path fill="none" stroke="midnightblue" d="M1158.55,-448.96C1183.21,-441.99 1216.47,-430.13 1241.5,-412 1259.3,-399.11 1274.53,-378.82 1284.04,-364.34"/>
<polygon fill="midnightblue" stroke="midnightblue" points="1287.05,-366.13 1289.43,-355.8 1281.13,-362.39 1287.05,-366.13"/>
</g>
<!-- Node32 -->
<g id="node32" class="node">
<title>Node32</title>
<g id="a_node32"><a xlink:title=" ">
<polygon fill="white" stroke="#bfbfbf" points="1090.5,-392.5 1090.5,-411.5 1136.5,-411.5 1136.5,-392.5 1090.5,-392.5"/>
<text text-anchor="middle" x="1113.5" y="-399.5" font-family="Helvetica,sans-Serif" font-size="10.00">atomic</text>
</a>
</g>
</g>
<!-- Node31&#45;&gt;Node32 -->
<g id="edge51" class="edge">
<title>Node31&#45;&gt;Node32</title>
<path fill="none" stroke="midnightblue" d="M1122.68,-448.08C1121.23,-440.93 1119.13,-430.64 1117.31,-421.69"/>
<polygon fill="midnightblue" stroke="midnightblue" points="1120.71,-420.85 1115.28,-411.75 1113.85,-422.25 1120.71,-420.85"/>
</g>
<!-- Node33 -->
<g id="node33" class="node">
<title>Node33</title>
<g id="a_node33"><a xlink:title=" ">
<polygon fill="white" stroke="#bfbfbf" points="1154.5,-392.5 1154.5,-411.5 1232.5,-411.5 1232.5,-392.5 1154.5,-392.5"/>
<text text-anchor="middle" x="1193.5" y="-399.5" font-family="Helvetica,sans-Serif" font-size="10.00">shared_mutex</text>
</a>
</g>
</g>
<!-- Node31&#45;&gt;Node33 -->
<g id="edge52" class="edge">
<title>Node31&#45;&gt;Node33</title>
<path fill="none" stroke="midnightblue" d="M1135.59,-448.32C1145.99,-440.18 1161.76,-427.84 1174.22,-418.09"/>
<polygon fill="midnightblue" stroke="midnightblue" points="1176.49,-420.75 1182.21,-411.83 1172.18,-415.24 1176.49,-420.75"/>
</g>
<!-- Node34&#45;&gt;Node24 -->
<g id="edge54" class="edge">
<title>Node34&#45;&gt;Node24</title>
<path fill="none" stroke="midnightblue" d="M1292.17,-454.34C1320.93,-450.09 1358.37,-439.29 1377.5,-412 1393.5,-389.18 1361.09,-370.51 1332.21,-359.12"/>
<polygon fill="midnightblue" stroke="midnightblue" points="1333.22,-355.76 1322.62,-355.55 1330.77,-362.32 1333.22,-355.76"/>
</g>
<!-- Node35&#45;&gt;Node24 -->
<g id="edge56" class="edge">
<title>Node35&#45;&gt;Node24</title>
<path fill="none" stroke="midnightblue" d="M1322.89,-392.08C1318.13,-384.53 1311.18,-373.49 1305.35,-364.23"/>
<polygon fill="midnightblue" stroke="midnightblue" points="1308.3,-362.35 1300.01,-355.75 1302.38,-366.08 1308.3,-362.35"/>
</g>
<!-- Node36&#45;&gt;Node3 -->
<g id="edge65" class="edge">
<title>Node36&#45;&gt;Node3</title>
<path fill="none" stroke="midnightblue" d="M935.74,-280.39C922.21,-267.32 895.1,-242.11 869.5,-224 787.27,-165.85 767.38,-145.77 672.5,-112 602.4,-87.05 516.9,-75.75 461.85,-70.76"/>
<polygon fill="midnightblue" stroke="midnightblue" points="461.87,-67.24 451.6,-69.87 461.26,-74.22 461.87,-67.24"/>
</g>
<!-- Node36&#45;&gt;Node8 -->
<g id="edge68" class="edge">
<title>Node36&#45;&gt;Node8</title>
<path fill="none" stroke="midnightblue" d="M938.91,-280.09C930.97,-267.5 915.9,-243.81 902.5,-224 867.58,-172.35 824.52,-112.49 803.8,-83.9"/>
<polygon fill="midnightblue" stroke="midnightblue" points="806.6,-81.8 797.89,-75.76 800.93,-85.91 806.6,-81.8"/>
</g>
<!-- Node36&#45;&gt;Node9 -->
<g id="edge66" class="edge">
<title>Node36&#45;&gt;Node9</title>
<path fill="none" stroke="midnightblue" d="M920.43,-282.08C917.44,-281.32 914.41,-280.61 911.5,-280 824.83,-261.86 722.81,-248.37 661.47,-241.1"/>
<polygon fill="midnightblue" stroke="midnightblue" points="661.59,-237.59 651.25,-239.9 660.77,-244.54 661.59,-237.59"/>
</g>
<!-- Node36&#45;&gt;Node15 -->
<g id="edge67" class="edge">
<title>Node36&#45;&gt;Node15</title>
<path fill="none" stroke="midnightblue" d="M926.83,-280.32C909.11,-271.62 881.6,-258.12 861.21,-248.11"/>
<polygon fill="midnightblue" stroke="midnightblue" points="862.65,-244.92 852.13,-243.65 859.56,-251.2 862.65,-244.92"/>
</g>
<!-- Node37 -->
<g id="node37" class="node">
<title>Node37</title>
<g id="a_node37"><a xlink:title=" ">
<polygon fill="white" stroke="#bfbfbf" points="954.5,-224.5 954.5,-243.5 996.5,-243.5 996.5,-224.5 954.5,-224.5"/>
<text text-anchor="middle" x="975.5" y="-231.5" font-family="Helvetica,sans-Serif" font-size="10.00">vector</text>
</a>
</g>
</g>
<!-- Node36&#45;&gt;Node37 -->
<g id="edge69" class="edge">
<title>Node36&#45;&gt;Node37</title>
<path fill="none" stroke="midnightblue" d="M949.62,-280.08C953.91,-272.61 960.16,-261.72 965.44,-252.52"/>
<polygon fill="midnightblue" stroke="midnightblue" points="968.53,-254.17 970.48,-243.75 962.46,-250.68 968.53,-254.17"/>
</g>
</g>
</svg>
