<?xml version="1.0" encoding="UTF-8" standalone="no"?>
<!DOCTYPE svg PUBLIC "-//W3C//DTD SVG 1.1//EN"
 "http://www.w3.org/Graphics/SVG/1.1/DTD/svg11.dtd">
<!-- Generated by graphviz version 9.0.0 (0)
 -->
<!-- Title: LoaderLogger.h Pages: 1 -->
<svg width="219pt" height="140pt"
 viewBox="0.00 0.00 219.38 140.00" xmlns="http://www.w3.org/2000/svg" xmlns:xlink="http://www.w3.org/1999/xlink">
<g id="graph0" class="graph" transform="scale(1 1) rotate(0) translate(4 136)">
<title>LoaderLogger.h</title>
<!-- Node1 -->
<g id="Node000001" class="node">
<title>Node1</title>
<g id="a_Node000001"><a xlink:title=" ">
<polygon fill="#999999" stroke="#666666" points="171.25,-132 88.5,-132 88.5,-112 171.25,-112 171.25,-132"/>
<text text-anchor="middle" x="129.88" y="-118.5" font-family="Helvetica,sans-Serif" font-size="10.00">LoaderLogger.h</text>
</a>
</g>
</g>
<!-- Node2 -->
<g id="Node000002" class="node">
<title>Node2</title>
<g id="a_Node000002"><a xlink:href="a00041.html" target="_top" xlink:title=" ">
<polygon fill="white" stroke="#666666" points="91.75,-76 0,-76 0,-56 91.75,-56 91.75,-76"/>
<text text-anchor="middle" x="45.88" y="-62.5" font-family="Helvetica,sans-Serif" font-size="10.00">MiraiCPMacros.h</text>
</a>
</g>
</g>
<!-- Node1&#45;&gt;Node2 -->
<g id="edge1_Node000001_Node000002" class="edge">
<title>Node1&#45;&gt;Node2</title>
<g id="a_edge1_Node000001_Node000002"><a xlink:title=" ">
<path fill="none" stroke="#63b8ff" d="M115.24,-111.59C102.79,-103.59 84.66,-91.93 70.05,-82.54"/>
<polygon fill="#63b8ff" stroke="#63b8ff" points="72.2,-79.76 61.89,-77.3 68.41,-85.65 72.2,-79.76"/>
</a>
</g>
</g>
<!-- Node4 -->
<g id="Node000004" class="node">
<title>Node4</title>
<g id="a_Node000004"><a xlink:title=" ">
<polygon fill="#e0e0e0" stroke="#999999" points="149.88,-76 109.88,-76 109.88,-56 149.88,-56 149.88,-76"/>
<text text-anchor="middle" x="129.88" y="-62.5" font-family="Helvetica,sans-Serif" font-size="10.00">string</text>
</a>
</g>
</g>
<!-- Node1&#45;&gt;Node4 -->
<g id="edge3_Node000001_Node000004" class="edge">
<title>Node1&#45;&gt;Node4</title>
<g id="a_edge3_Node000001_Node000004"><a xlink:title=" ">
<path fill="none" stroke="#63b8ff" d="M129.88,-111.59C129.88,-105.01 129.88,-95.96 129.88,-87.73"/>
<polygon fill="#63b8ff" stroke="#63b8ff" points="133.38,-87.81 129.88,-77.81 126.38,-87.81 133.38,-87.81"/>
</a>
</g>
</g>
<!-- Node5 -->
<g id="Node000005" class="node">
<title>Node5</title>
<g id="a_Node000005"><a xlink:title=" ">
<polygon fill="#e0e0e0" stroke="#999999" points="211.38,-76 168.38,-76 168.38,-56 211.38,-56 211.38,-76"/>
<text text-anchor="middle" x="189.88" y="-62.5" font-family="Helvetica,sans-Serif" font-size="10.00">vector</text>
</a>
</g>
</g>
<!-- Node1&#45;&gt;Node5 -->
<g id="edge4_Node000001_Node000005" class="edge">
<title>Node1&#45;&gt;Node5</title>
<g id="a_edge4_Node000001_Node000005"><a xlink:title=" ">
<path fill="none" stroke="#63b8ff" d="M140.33,-111.59C148.84,-103.93 161.09,-92.91 171.27,-83.75"/>
<polygon fill="#63b8ff" stroke="#63b8ff" points="173.33,-86.6 178.42,-77.31 168.64,-81.4 173.33,-86.6"/>
</a>
</g>
</g>
<!-- Node3 -->
<g id="Node000003" class="node">
<title>Node3</title>
<g id="a_Node000003"><a xlink:title=" ">
<polygon fill="#e0e0e0" stroke="#999999" points="70,-20 21.75,-20 21.75,0 70,0 70,-20"/>
<text text-anchor="middle" x="45.88" y="-6.5" font-family="Helvetica,sans-Serif" font-size="10.00">cassert</text>
</a>
</g>
</g>
<!-- Node2&#45;&gt;Node3 -->
<g id="edge2_Node000002_Node000003" class="edge">
<title>Node2&#45;&gt;Node3</title>
<g id="a_edge2_Node000002_Node000003"><a xlink:title=" ">
<path fill="none" stroke="#63b8ff" d="M45.88,-55.59C45.88,-49.01 45.88,-39.96 45.88,-31.73"/>
<polygon fill="#63b8ff" stroke="#63b8ff" points="49.38,-31.81 45.88,-21.81 42.38,-31.81 49.38,-31.81"/>
</a>
</g>
</g>
</g>
</svg>
