<?xml version="1.0" encoding="UTF-8" standalone="no"?>
<!DOCTYPE svg PUBLIC "-//W3C//DTD SVG 1.1//EN"
 "http://www.w3.org/Graphics/SVG/1.1/DTD/svg11.dtd">
<!-- Generated by graphviz version 9.0.0 (0)
 -->
<!-- Title: JNIEnvs.h Pages: 1 -->
<svg width="350pt" height="196pt"
 viewBox="0.00 0.00 350.38 196.00" xmlns="http://www.w3.org/2000/svg" xmlns:xlink="http://www.w3.org/1999/xlink">
<g id="graph0" class="graph" transform="scale(1 1) rotate(0) translate(4 192)">
<title>JNIEnvs.h</title>
<!-- Node1 -->
<g id="Node000001" class="node">
<title>Node1</title>
<g id="a_Node000001"><a xlink:title=" ">
<polygon fill="#999999" stroke="#666666" points="234.12,-188 171.62,-188 171.62,-168 234.12,-168 234.12,-188"/>
<text text-anchor="middle" x="202.88" y="-174.5" font-family="Helvetica,sans-Serif" font-size="10.00">JNIEnvs.h</text>
</a>
</g>
</g>
<!-- Node2 -->
<g id="Node000002" class="node">
<title>Node2</title>
<g id="a_Node000002"><a xlink:href="a00233.html" target="_top" xlink:title=" ">
<polygon fill="white" stroke="#666666" points="250.25,-132 155.5,-132 155.5,-112 250.25,-112 250.25,-132"/>
<text text-anchor="middle" x="202.88" y="-118.5" font-family="Helvetica,sans-Serif" font-size="10.00">JNIEnvManager.h</text>
</a>
</g>
</g>
<!-- Node1&#45;&gt;Node2 -->
<g id="edge1_Node000001_Node000002" class="edge">
<title>Node1&#45;&gt;Node2</title>
<g id="a_edge1_Node000001_Node000002"><a xlink:title=" ">
<path fill="none" stroke="#63b8ff" d="M202.88,-167.59C202.88,-161.01 202.88,-151.96 202.88,-143.73"/>
<polygon fill="#63b8ff" stroke="#63b8ff" points="206.38,-143.81 202.88,-133.81 199.38,-143.81 206.38,-143.81"/>
</a>
</g>
</g>
<!-- Node3 -->
<g id="Node000003" class="node">
<title>Node3</title>
<g id="a_Node000003"><a xlink:href="a00041.html" target="_top" xlink:title=" ">
<polygon fill="white" stroke="#666666" points="91.75,-76 0,-76 0,-56 91.75,-56 91.75,-76"/>
<text text-anchor="middle" x="45.88" y="-62.5" font-family="Helvetica,sans-Serif" font-size="10.00">MiraiCPMacros.h</text>
</a>
</g>
</g>
<!-- Node2&#45;&gt;Node3 -->
<g id="edge2_Node000002_Node000003" class="edge">
<title>Node2&#45;&gt;Node3</title>
<g id="a_edge2_Node000002_Node000003"><a xlink:title=" ">
<path fill="none" stroke="#63b8ff" d="M175.53,-111.59C150.24,-102.9 112.42,-89.89 84.14,-80.16"/>
<polygon fill="#63b8ff" stroke="#63b8ff" points="85.46,-76.91 74.87,-76.97 83.18,-83.53 85.46,-76.91"/>
</a>
</g>
</g>
<!-- Node5 -->
<g id="Node000005" class="node">
<title>Node5</title>
<g id="a_Node000005"><a xlink:title=" ">
<polygon fill="#e0e0e0" stroke="#999999" points="167.88,-76 109.88,-76 109.88,-56 167.88,-56 167.88,-76"/>
<text text-anchor="middle" x="138.88" y="-62.5" font-family="Helvetica,sans-Serif" font-size="10.00">functional</text>
</a>
</g>
</g>
<!-- Node2&#45;&gt;Node5 -->
<g id="edge4_Node000002_Node000005" class="edge">
<title>Node2&#45;&gt;Node5</title>
<g id="a_edge4_Node000002_Node000005"><a xlink:title=" ">
<path fill="none" stroke="#63b8ff" d="M191.73,-111.59C182.55,-103.85 169.32,-92.69 158.39,-83.47"/>
<polygon fill="#63b8ff" stroke="#63b8ff" points="160.95,-81.05 151.05,-77.27 156.44,-86.4 160.95,-81.05"/>
</a>
</g>
</g>
<!-- Node6 -->
<g id="Node000006" class="node">
<title>Node6</title>
<g id="a_Node000006"><a xlink:title=" ">
<polygon fill="#e0e0e0" stroke="#999999" points="219.88,-76 185.88,-76 185.88,-56 219.88,-56 219.88,-76"/>
<text text-anchor="middle" x="202.88" y="-62.5" font-family="Helvetica,sans-Serif" font-size="10.00">jni.h</text>
</a>
</g>
</g>
<!-- Node2&#45;&gt;Node6 -->
<g id="edge5_Node000002_Node000006" class="edge">
<title>Node2&#45;&gt;Node6</title>
<g id="a_edge5_Node000002_Node000006"><a xlink:title=" ">
<path fill="none" stroke="#63b8ff" d="M202.88,-111.59C202.88,-105.01 202.88,-95.96 202.88,-87.73"/>
<polygon fill="#63b8ff" stroke="#63b8ff" points="206.38,-87.81 202.88,-77.81 199.38,-87.81 206.38,-87.81"/>
</a>
</g>
</g>
<!-- Node7 -->
<g id="Node000007" class="node">
<title>Node7</title>
<g id="a_Node000007"><a xlink:title=" ">
<polygon fill="#e0e0e0" stroke="#999999" points="281.38,-76 238.38,-76 238.38,-56 281.38,-56 281.38,-76"/>
<text text-anchor="middle" x="259.88" y="-62.5" font-family="Helvetica,sans-Serif" font-size="10.00">mutex</text>
</a>
</g>
</g>
<!-- Node2&#45;&gt;Node7 -->
<g id="edge6_Node000002_Node000007" class="edge">
<title>Node2&#45;&gt;Node7</title>
<g id="a_edge6_Node000002_Node000007"><a xlink:title=" ">
<path fill="none" stroke="#63b8ff" d="M212.8,-111.59C220.81,-104.01 232.29,-93.13 241.91,-84.02"/>
<polygon fill="#63b8ff" stroke="#63b8ff" points="244.11,-86.76 248.96,-77.34 239.29,-81.68 244.11,-86.76"/>
</a>
</g>
</g>
<!-- Node8 -->
<g id="Node000008" class="node">
<title>Node8</title>
<g id="a_Node000008"><a xlink:title=" ">
<polygon fill="#e0e0e0" stroke="#999999" points="342.38,-76 299.38,-76 299.38,-56 342.38,-56 342.38,-76"/>
<text text-anchor="middle" x="320.88" y="-62.5" font-family="Helvetica,sans-Serif" font-size="10.00">thread</text>
</a>
</g>
</g>
<!-- Node2&#45;&gt;Node8 -->
<g id="edge7_Node000002_Node000008" class="edge">
<title>Node2&#45;&gt;Node8</title>
<g id="a_edge7_Node000002_Node000008"><a xlink:title=" ">
<path fill="none" stroke="#63b8ff" d="M223.43,-111.59C241.76,-103.21 268.86,-90.8 289.83,-81.21"/>
<polygon fill="#63b8ff" stroke="#63b8ff" points="291.15,-84.45 298.78,-77.11 288.23,-78.09 291.15,-84.45"/>
</a>
</g>
</g>
<!-- Node4 -->
<g id="Node000004" class="node">
<title>Node4</title>
<g id="a_Node000004"><a xlink:title=" ">
<polygon fill="#e0e0e0" stroke="#999999" points="70,-20 21.75,-20 21.75,0 70,0 70,-20"/>
<text text-anchor="middle" x="45.88" y="-6.5" font-family="Helvetica,sans-Serif" font-size="10.00">cassert</text>
</a>
</g>
</g>
<!-- Node3&#45;&gt;Node4 -->
<g id="edge3_Node000003_Node000004" class="edge">
<title>Node3&#45;&gt;Node4</title>
<g id="a_edge3_Node000003_Node000004"><a xlink:title=" ">
<path fill="none" stroke="#63b8ff" d="M45.88,-55.59C45.88,-49.01 45.88,-39.96 45.88,-31.73"/>
<polygon fill="#63b8ff" stroke="#63b8ff" points="49.38,-31.81 45.88,-21.81 42.38,-31.81 49.38,-31.81"/>
</a>
</g>
</g>
</g>
</svg>
