<?xml version="1.0" encoding="UTF-8" standalone="no"?>
<!DOCTYPE svg PUBLIC "-//W3C//DTD SVG 1.1//EN"
 "http://www.w3.org/Graphics/SVG/1.1/DTD/svg11.dtd">
<!-- Generated by graphviz version 9.0.0 (0)
 -->
<!-- Title: MessageHandler.cpp Pages: 1 -->
<svg width="748pt" height="420pt"
 viewBox="0.00 0.00 748.00 420.00" xmlns="http://www.w3.org/2000/svg" xmlns:xlink="http://www.w3.org/1999/xlink">
<g id="graph0" class="graph" transform="scale(1 1) rotate(0) translate(4 416)">
<title>MessageHandler.cpp</title>
<!-- Node1 -->
<g id="Node000001" class="node">
<title>Node1</title>
<g id="a_Node000001"><a xlink:title=" ">
<polygon fill="#999999" stroke="#666666" points="196.88,-412 88.62,-412 88.62,-392 196.88,-392 196.88,-412"/>
<text text-anchor="middle" x="142.75" y="-398.5" font-family="Helvetica,sans-Serif" font-size="10.00">MessageHandler.cpp</text>
</a>
</g>
</g>
<!-- Node2 -->
<g id="Node000002" class="node">
<title>Node2</title>
<g id="a_Node000002"><a xlink:href="a00290.html" target="_top" xlink:title=" ">
<polygon fill="white" stroke="#666666" points="230.62,-356 132.88,-356 132.88,-336 230.62,-336 230.62,-356"/>
<text text-anchor="middle" x="181.75" y="-342.5" font-family="Helvetica,sans-Serif" font-size="10.00">MessageHandler.h</text>
</a>
</g>
</g>
<!-- Node1&#45;&gt;Node2 -->
<g id="edge1_Node000001_Node000002" class="edge">
<title>Node1&#45;&gt;Node2</title>
<g id="a_edge1_Node000001_Node000002"><a xlink:title=" ">
<path fill="none" stroke="#63b8ff" d="M149.54,-391.59C154.74,-384.39 162.08,-374.23 168.44,-365.43"/>
<polygon fill="#63b8ff" stroke="#63b8ff" points="171.13,-367.68 174.15,-357.53 165.46,-363.58 171.13,-367.68"/>
</a>
</g>
</g>
<!-- Node4 -->
<g id="Node000004" class="node">
<title>Node4</title>
<g id="a_Node000004"><a xlink:href="a00176.html" target="_top" xlink:title=" ">
<polygon fill="white" stroke="#666666" points="71.5,-244 0,-244 0,-224 71.5,-224 71.5,-244"/>
<text text-anchor="middle" x="35.75" y="-230.5" font-family="Helvetica,sans-Serif" font-size="10.00">MsgDefine.h</text>
</a>
</g>
</g>
<!-- Node1&#45;&gt;Node4 -->
<g id="edge20_Node000001_Node000004" class="edge">
<title>Node1&#45;&gt;Node4</title>
<g id="a_edge20_Node000001_Node000004"><a xlink:title=" ">
<path fill="none" stroke="#63b8ff" d="M126.63,-391.51C114.06,-383.43 96.92,-370.79 85.75,-356 62.08,-324.68 47.59,-280.54 40.66,-255.13"/>
<polygon fill="#63b8ff" stroke="#63b8ff" points="44.14,-254.58 38.25,-245.77 37.36,-256.33 44.14,-254.58"/>
</a>
</g>
</g>
<!-- Node12 -->
<g id="Node000012" class="node">
<title>Node12</title>
<g id="a_Node000012"><a xlink:href="a00179.html" target="_top" xlink:title=" ">
<polygon fill="white" stroke="#666666" points="236.25,-188 139.25,-188 139.25,-168 236.25,-168 236.25,-188"/>
<text text-anchor="middle" x="187.75" y="-174.5" font-family="Helvetica,sans-Serif" font-size="10.00">loaderApiInternal.h</text>
</a>
</g>
</g>
<!-- Node1&#45;&gt;Node12 -->
<g id="edge35_Node000001_Node000012" class="edge">
<title>Node1&#45;&gt;Node12</title>
<g id="a_edge35_Node000001_Node000012"><a xlink:title=" ">
<path fill="none" stroke="#63b8ff" d="M137.57,-391.69C132.95,-382.82 126.49,-368.94 123.75,-356 116.75,-322.95 113.65,-312.53 122.75,-280 131.83,-247.53 155.37,-215.79 171.48,-196.81"/>
<polygon fill="#63b8ff" stroke="#63b8ff" points="173.95,-199.3 177.91,-189.47 168.69,-194.69 173.95,-199.3"/>
</a>
</g>
</g>
<!-- Node15 -->
<g id="Node000015" class="node">
<title>Node15</title>
<g id="a_Node000015"><a xlink:href="a00320.html" target="_top" xlink:title=" ">
<polygon fill="white" stroke="#666666" points="457.38,-356 406.12,-356 406.12,-336 457.38,-336 457.38,-356"/>
<text text-anchor="middle" x="431.75" y="-342.5" font-family="Helvetica,sans-Serif" font-size="10.00">Plugin.h</text>
</a>
</g>
</g>
<!-- Node1&#45;&gt;Node15 -->
<g id="edge21_Node000001_Node000015" class="edge">
<title>Node1&#45;&gt;Node15</title>
<g id="a_edge21_Node000001_Node000015"><a xlink:title=" ">
<path fill="none" stroke="#63b8ff" d="M193.42,-391.53C250.94,-380.78 343.41,-363.51 394.61,-353.94"/>
<polygon fill="#63b8ff" stroke="#63b8ff" points="395.12,-357.41 404.31,-352.13 393.83,-350.52 395.12,-357.41"/>
</a>
</g>
</g>
<!-- Node3 -->
<g id="Node000003" class="node">
<title>Node3</title>
<g id="a_Node000003"><a xlink:href="a00215.html" target="_top" xlink:title=" ">
<polygon fill="white" stroke="#666666" points="239.88,-300 131.62,-300 131.62,-280 239.88,-280 239.88,-300"/>
<text text-anchor="middle" x="185.75" y="-286.5" font-family="Helvetica,sans-Serif" font-size="10.00">MessageProcessor.h</text>
</a>
</g>
</g>
<!-- Node2&#45;&gt;Node3 -->
<g id="edge2_Node000002_Node000003" class="edge">
<title>Node2&#45;&gt;Node3</title>
<g id="a_edge2_Node000002_Node000003"><a xlink:title=" ">
<path fill="none" stroke="#63b8ff" d="M182.45,-335.59C182.93,-329.01 183.6,-319.96 184.21,-311.73"/>
<polygon fill="#63b8ff" stroke="#63b8ff" points="187.7,-312.04 184.95,-301.81 180.72,-311.52 187.7,-312.04"/>
</a>
</g>
</g>
<!-- Node3&#45;&gt;Node4 -->
<g id="edge3_Node000003_Node000004" class="edge">
<title>Node3&#45;&gt;Node4</title>
<g id="a_edge3_Node000003_Node000004"><a xlink:title=" ">
<path fill="none" stroke="#63b8ff" d="M159.62,-279.59C135.57,-270.94 99.65,-258 72.67,-248.29"/>
<polygon fill="#63b8ff" stroke="#63b8ff" points="74.1,-245.09 63.51,-244.99 71.73,-251.67 74.1,-245.09"/>
</a>
</g>
</g>
<!-- Node9 -->
<g id="Node000009" class="node">
<title>Node9</title>
<g id="a_Node000009"><a xlink:title=" ">
<polygon fill="#e0e0e0" stroke="#999999" points="121.12,-188 38.38,-188 38.38,-168 121.12,-168 121.12,-188"/>
<text text-anchor="middle" x="79.75" y="-174.5" font-family="Helvetica,sans-Serif" font-size="10.00">polym/Msg.hpp</text>
</a>
</g>
</g>
<!-- Node3&#45;&gt;Node9 -->
<g id="edge18_Node000003_Node000009" class="edge">
<title>Node3&#45;&gt;Node9</title>
<g id="a_edge18_Node000003_Node000009"><a xlink:title=" ">
<path fill="none" stroke="#63b8ff" d="M176.71,-279.62C158.95,-261.19 119.27,-220.01 96.56,-196.44"/>
<polygon fill="#63b8ff" stroke="#63b8ff" points="99.27,-194.22 89.81,-189.44 94.23,-199.07 99.27,-194.22"/>
</a>
</g>
</g>
<!-- Node10 -->
<g id="Node000010" class="node">
<title>Node10</title>
<g id="a_Node000010"><a xlink:href="a00182.html" target="_top" xlink:title=" ">
<polygon fill="white" stroke="#666666" points="380.75,-244 292.75,-244 292.75,-224 380.75,-224 380.75,-244"/>
<text text-anchor="middle" x="336.75" y="-230.5" font-family="Helvetica,sans-Serif" font-size="10.00">commonTypes.h</text>
</a>
</g>
</g>
<!-- Node3&#45;&gt;Node10 -->
<g id="edge10_Node000003_Node000010" class="edge">
<title>Node3&#45;&gt;Node10</title>
<g id="a_edge10_Node000003_Node000010"><a xlink:title=" ">
<path fill="none" stroke="#63b8ff" d="M212.05,-279.59C236.26,-270.94 272.43,-258 299.59,-248.29"/>
<polygon fill="#63b8ff" stroke="#63b8ff" points="300.58,-251.65 308.82,-244.99 298.22,-245.06 300.58,-251.65"/>
</a>
</g>
</g>
<!-- Node13 -->
<g id="Node000013" class="node">
<title>Node13</title>
<g id="a_Node000013"><a xlink:title=" ">
<polygon fill="#e0e0e0" stroke="#999999" points="274.38,-244 223.12,-244 223.12,-224 274.38,-224 274.38,-244"/>
<text text-anchor="middle" x="248.75" y="-230.5" font-family="Helvetica,sans-Serif" font-size="10.00">memory</text>
</a>
</g>
</g>
<!-- Node3&#45;&gt;Node13 -->
<g id="edge17_Node000003_Node000013" class="edge">
<title>Node3&#45;&gt;Node13</title>
<g id="a_edge17_Node000003_Node000013"><a xlink:title=" ">
<path fill="none" stroke="#63b8ff" d="M196.72,-279.59C205.67,-271.93 218.52,-260.91 229.21,-251.75"/>
<polygon fill="#63b8ff" stroke="#63b8ff" points="231.44,-254.45 236.75,-245.28 226.88,-249.13 231.44,-254.45"/>
</a>
</g>
</g>
<!-- Node14 -->
<g id="Node000014" class="node">
<title>Node14</title>
<g id="a_Node000014"><a xlink:title=" ">
<polygon fill="#e0e0e0" stroke="#999999" points="205.38,-244 166.12,-244 166.12,-224 205.38,-224 205.38,-244"/>
<text text-anchor="middle" x="185.75" y="-230.5" font-family="Helvetica,sans-Serif" font-size="10.00">utility</text>
</a>
</g>
</g>
<!-- Node3&#45;&gt;Node14 -->
<g id="edge19_Node000003_Node000014" class="edge">
<title>Node3&#45;&gt;Node14</title>
<g id="a_edge19_Node000003_Node000014"><a xlink:title=" ">
<path fill="none" stroke="#63b8ff" d="M185.75,-279.59C185.75,-273.01 185.75,-263.96 185.75,-255.73"/>
<polygon fill="#63b8ff" stroke="#63b8ff" points="189.25,-255.81 185.75,-245.81 182.25,-255.81 189.25,-255.81"/>
</a>
</g>
</g>
<!-- Node5 -->
<g id="Node000005" class="node">
<title>Node5</title>
<g id="a_Node000005"><a xlink:href="a00191.html" target="_top" xlink:title=" ">
<polygon fill="white" stroke="#666666" points="236.38,-132 119.12,-132 119.12,-112 236.38,-112 236.38,-132"/>
<text text-anchor="middle" x="177.75" y="-118.5" font-family="Helvetica,sans-Serif" font-size="10.00">MiraiCPStringInternal.h</text>
</a>
</g>
</g>
<!-- Node4&#45;&gt;Node5 -->
<g id="edge4_Node000004_Node000005" class="edge">
<title>Node4&#45;&gt;Node5</title>
<g id="a_edge4_Node000004_Node000005"><a xlink:title=" ">
<path fill="none" stroke="#63b8ff" d="M31.27,-223.55C25.5,-209.87 17.6,-184.39 29.75,-168 47.75,-143.71 78.53,-132.09 107.38,-126.68"/>
<polygon fill="#63b8ff" stroke="#63b8ff" points="107.92,-130.14 117.23,-125.08 106.8,-123.23 107.92,-130.14"/>
</a>
</g>
</g>
<!-- Node4&#45;&gt;Node9 -->
<g id="edge9_Node000004_Node000009" class="edge">
<title>Node4&#45;&gt;Node9</title>
<g id="a_edge9_Node000004_Node000009"><a xlink:title=" ">
<path fill="none" stroke="#63b8ff" d="M43.41,-223.59C49.34,-216.32 57.74,-206.02 64.96,-197.15"/>
<polygon fill="#63b8ff" stroke="#63b8ff" points="67.61,-199.43 71.22,-189.47 62.19,-195.01 67.61,-199.43"/>
</a>
</g>
</g>
<!-- Node6 -->
<g id="Node000006" class="node">
<title>Node6</title>
<g id="a_Node000006"><a xlink:href="a00041.html" target="_top" xlink:title=" ">
<polygon fill="white" stroke="#666666" points="304.62,-76 212.88,-76 212.88,-56 304.62,-56 304.62,-76"/>
<text text-anchor="middle" x="258.75" y="-62.5" font-family="Helvetica,sans-Serif" font-size="10.00">MiraiCPMacros.h</text>
</a>
</g>
</g>
<!-- Node5&#45;&gt;Node6 -->
<g id="edge5_Node000005_Node000006" class="edge">
<title>Node5&#45;&gt;Node6</title>
<g id="a_edge5_Node000005_Node000006"><a xlink:title=" ">
<path fill="none" stroke="#63b8ff" d="M191.86,-111.59C203.75,-103.67 221.02,-92.16 235.03,-82.82"/>
<polygon fill="#63b8ff" stroke="#63b8ff" points="236.89,-85.78 243.27,-77.32 233.01,-79.95 236.89,-85.78"/>
</a>
</g>
</g>
<!-- Node7 -->
<g id="Node000007" class="node">
<title>Node7</title>
<g id="a_Node000007"><a xlink:title=" ">
<polygon fill="#e0e0e0" stroke="#999999" points="242.88,-20 194.62,-20 194.62,0 242.88,0 242.88,-20"/>
<text text-anchor="middle" x="218.75" y="-6.5" font-family="Helvetica,sans-Serif" font-size="10.00">cassert</text>
</a>
</g>
</g>
<!-- Node5&#45;&gt;Node7 -->
<g id="edge7_Node000005_Node000007" class="edge">
<title>Node5&#45;&gt;Node7</title>
<g id="a_edge7_Node000005_Node000007"><a xlink:title=" ">
<path fill="none" stroke="#63b8ff" d="M181.25,-111.62C187.87,-93.84 202.39,-54.88 211.3,-31"/>
<polygon fill="#63b8ff" stroke="#63b8ff" points="214.52,-32.37 214.73,-21.77 207.96,-29.92 214.52,-32.37"/>
</a>
</g>
</g>
<!-- Node8 -->
<g id="Node000008" class="node">
<title>Node8</title>
<g id="a_Node000008"><a xlink:title=" ">
<polygon fill="#e0e0e0" stroke="#999999" points="377.75,-76 337.75,-76 337.75,-56 377.75,-56 377.75,-76"/>
<text text-anchor="middle" x="357.75" y="-62.5" font-family="Helvetica,sans-Serif" font-size="10.00">string</text>
</a>
</g>
</g>
<!-- Node5&#45;&gt;Node8 -->
<g id="edge8_Node000005_Node000008" class="edge">
<title>Node5&#45;&gt;Node8</title>
<g id="a_edge8_Node000005_Node000008"><a xlink:title=" ">
<path fill="none" stroke="#63b8ff" d="M209.1,-111.59C242.08,-101.7 293.66,-86.23 326.57,-76.35"/>
<polygon fill="#63b8ff" stroke="#63b8ff" points="327.35,-79.77 335.93,-73.55 325.34,-73.07 327.35,-79.77"/>
</a>
</g>
</g>
<!-- Node6&#45;&gt;Node7 -->
<g id="edge6_Node000006_Node000007" class="edge">
<title>Node6&#45;&gt;Node7</title>
<g id="a_edge6_Node000006_Node000007"><a xlink:title=" ">
<path fill="none" stroke="#63b8ff" d="M251.78,-55.59C246.45,-48.39 238.92,-38.23 232.4,-29.43"/>
<polygon fill="#63b8ff" stroke="#63b8ff" points="235.3,-27.47 226.54,-21.51 229.68,-31.63 235.3,-27.47"/>
</a>
</g>
</g>
<!-- Node10&#45;&gt;Node6 -->
<g id="edge11_Node000010_Node000006" class="edge">
<title>Node10&#45;&gt;Node6</title>
<g id="a_edge11_Node000010_Node000006"><a xlink:title=" ">
<path fill="none" stroke="#63b8ff" d="M331.41,-223.71C321.4,-206.13 299.43,-166.63 283.75,-132 277.03,-117.16 270.46,-99.93 265.74,-86.94"/>
<polygon fill="#63b8ff" stroke="#63b8ff" points="269.14,-86.06 262.49,-77.82 262.55,-88.42 269.14,-86.06"/>
</a>
</g>
</g>
<!-- Node10&#45;&gt;Node9 -->
<g id="edge16_Node000010_Node000009" class="edge">
<title>Node10&#45;&gt;Node9</title>
<g id="a_edge16_Node000010_Node000009"><a xlink:title=" ">
<path fill="none" stroke="#63b8ff" d="M292.28,-223.66C247.95,-214.34 179.86,-200.04 132.75,-190.14"/>
<polygon fill="#63b8ff" stroke="#63b8ff" points="133.54,-186.73 123.03,-188.09 132.1,-193.58 133.54,-186.73"/>
</a>
</g>
</g>
<!-- Node11 -->
<g id="Node000011" class="node">
<title>Node11</title>
<g id="a_Node000011"><a xlink:href="a00044.html" target="_top" xlink:title=" ">
<polygon fill="white" stroke="#666666" points="372.62,-132 292.88,-132 292.88,-112 372.62,-112 372.62,-132"/>
<text text-anchor="middle" x="332.75" y="-118.5" font-family="Helvetica,sans-Serif" font-size="10.00">PluginConfig.h</text>
</a>
</g>
</g>
<!-- Node10&#45;&gt;Node11 -->
<g id="edge12_Node000010_Node000011" class="edge">
<title>Node10&#45;&gt;Node11</title>
<g id="a_edge12_Node000010_Node000011"><a xlink:title=" ">
<path fill="none" stroke="#63b8ff" d="M336.41,-223.62C335.77,-206.01 334.37,-167.59 333.5,-143.65"/>
<polygon fill="#63b8ff" stroke="#63b8ff" points="337.01,-143.73 333.15,-133.87 330.01,-143.99 337.01,-143.73"/>
</a>
</g>
</g>
<!-- Node10&#45;&gt;Node12 -->
<g id="edge14_Node000010_Node000012" class="edge">
<title>Node10&#45;&gt;Node12</title>
<g id="a_edge14_Node000010_Node000012"><a xlink:title=" ">
<path fill="none" stroke="#63b8ff" d="M310.8,-223.59C286.91,-214.94 251.22,-202 224.42,-192.29"/>
<polygon fill="#63b8ff" stroke="#63b8ff" points="225.92,-189.11 215.33,-189 223.54,-195.69 225.92,-189.11"/>
</a>
</g>
</g>
<!-- Node11&#45;&gt;Node8 -->
<g id="edge13_Node000011_Node000008" class="edge">
<title>Node11&#45;&gt;Node8</title>
<g id="a_edge13_Node000011_Node000008"><a xlink:title=" ">
<path fill="none" stroke="#63b8ff" d="M337.1,-111.59C340.3,-104.7 344.74,-95.1 348.69,-86.57"/>
<polygon fill="#63b8ff" stroke="#63b8ff" points="351.78,-88.22 352.81,-77.67 345.43,-85.28 351.78,-88.22"/>
</a>
</g>
</g>
<!-- Node12&#45;&gt;Node5 -->
<g id="edge15_Node000012_Node000005" class="edge">
<title>Node12&#45;&gt;Node5</title>
<g id="a_edge15_Node000012_Node000005"><a xlink:title=" ">
<path fill="none" stroke="#63b8ff" d="M186.01,-167.59C184.77,-160.93 183.07,-151.75 181.54,-143.44"/>
<polygon fill="#63b8ff" stroke="#63b8ff" points="185.01,-142.98 179.75,-133.79 178.13,-144.26 185.01,-142.98"/>
</a>
</g>
</g>
<!-- Node15&#45;&gt;Node3 -->
<g id="edge22_Node000015_Node000003" class="edge">
<title>Node15&#45;&gt;Node3</title>
<g id="a_edge22_Node000015_Node000003"><a xlink:title=" ">
<path fill="none" stroke="#63b8ff" d="M405.89,-339.32C366.7,-330.72 291.39,-314.19 239.87,-302.88"/>
<polygon fill="#63b8ff" stroke="#63b8ff" points="240.93,-299.53 230.42,-300.8 239.43,-306.37 240.93,-299.53"/>
</a>
</g>
</g>
<!-- Node15&#45;&gt;Node8 -->
<g id="edge34_Node000015_Node000008" class="edge">
<title>Node15&#45;&gt;Node8</title>
<g id="a_edge34_Node000015_Node000008"><a xlink:title=" ">
<path fill="none" stroke="#63b8ff" d="M445.56,-335.75C456.24,-327.71 470.27,-315.01 476.75,-300 509.88,-223.26 529.72,-180.45 481.75,-112 470.84,-96.44 421.98,-82.15 388.94,-74.01"/>
<polygon fill="#63b8ff" stroke="#63b8ff" points="390.02,-70.67 379.48,-71.75 388.39,-77.48 390.02,-70.67"/>
</a>
</g>
</g>
<!-- Node15&#45;&gt;Node10 -->
<g id="edge29_Node000015_Node000010" class="edge">
<title>Node15&#45;&gt;Node10</title>
<g id="a_edge29_Node000015_Node000010"><a xlink:title=" ">
<path fill="none" stroke="#63b8ff" d="M421.72,-335.69C412.34,-326.83 398.12,-312.95 386.75,-300 373.43,-284.82 359.52,-266.51 349.76,-253.2"/>
<polygon fill="#63b8ff" stroke="#63b8ff" points="352.78,-251.39 344.08,-245.35 347.11,-255.5 352.78,-251.39"/>
</a>
</g>
</g>
<!-- Node16 -->
<g id="Node000016" class="node">
<title>Node16</title>
<g id="a_Node000016"><a xlink:href="a00293.html" target="_top" xlink:title=" ">
<polygon fill="white" stroke="#666666" points="467.88,-300 395.62,-300 395.62,-280 467.88,-280 467.88,-300"/>
<text text-anchor="middle" x="431.75" y="-286.5" font-family="Helvetica,sans-Serif" font-size="10.00">PluginData.h</text>
</a>
</g>
</g>
<!-- Node15&#45;&gt;Node16 -->
<g id="edge23_Node000015_Node000016" class="edge">
<title>Node15&#45;&gt;Node16</title>
<g id="a_edge23_Node000015_Node000016"><a xlink:title=" ">
<path fill="none" stroke="#63b8ff" d="M431.75,-335.59C431.75,-329.01 431.75,-319.96 431.75,-311.73"/>
<polygon fill="#63b8ff" stroke="#63b8ff" points="435.25,-311.81 431.75,-301.81 428.25,-311.81 435.25,-311.81"/>
</a>
</g>
</g>
<!-- Node19 -->
<g id="Node000019" class="node">
<title>Node19</title>
<g id="a_Node000019"><a xlink:title=" ">
<polygon fill="#e0e0e0" stroke="#999999" points="570.38,-300 525.12,-300 525.12,-280 570.38,-280 570.38,-300"/>
<text text-anchor="middle" x="547.75" y="-286.5" font-family="Helvetica,sans-Serif" font-size="10.00">atomic</text>
</a>
</g>
</g>
<!-- Node15&#45;&gt;Node19 -->
<g id="edge30_Node000015_Node000019" class="edge">
<title>Node15&#45;&gt;Node19</title>
<g id="a_edge30_Node000015_Node000019"><a xlink:title=" ">
<path fill="none" stroke="#63b8ff" d="M451.96,-335.59C469.98,-327.21 496.62,-314.8 517.23,-305.21"/>
<polygon fill="#63b8ff" stroke="#63b8ff" points="518.43,-308.51 526.01,-301.12 515.47,-302.17 518.43,-308.51"/>
</a>
</g>
</g>
<!-- Node20 -->
<g id="Node000020" class="node">
<title>Node20</title>
<g id="a_Node000020"><a xlink:title=" ">
<polygon fill="#e0e0e0" stroke="#999999" points="629.12,-300 588.38,-300 588.38,-280 629.12,-280 629.12,-300"/>
<text text-anchor="middle" x="608.75" y="-286.5" font-family="Helvetica,sans-Serif" font-size="10.00">future</text>
</a>
</g>
</g>
<!-- Node15&#45;&gt;Node20 -->
<g id="edge31_Node000015_Node000020" class="edge">
<title>Node15&#45;&gt;Node20</title>
<g id="a_edge31_Node000015_Node000020"><a xlink:title=" ">
<path fill="none" stroke="#63b8ff" d="M457.7,-337.16C485.18,-328.85 530.11,-315.22 577.4,-300.71"/>
<polygon fill="#63b8ff" stroke="#63b8ff" points="578.18,-304.13 586.71,-297.85 576.13,-297.44 578.18,-304.13"/>
</a>
</g>
</g>
<!-- Node21 -->
<g id="Node000021" class="node">
<title>Node21</title>
<g id="a_Node000021"><a xlink:title=" ">
<polygon fill="#e0e0e0" stroke="#999999" points="740,-300 647.5,-300 647.5,-280 740,-280 740,-300"/>
<text text-anchor="middle" x="693.75" y="-286.5" font-family="Helvetica,sans-Serif" font-size="10.00">polym/Queue.hpp</text>
</a>
</g>
</g>
<!-- Node15&#45;&gt;Node21 -->
<g id="edge32_Node000015_Node000021" class="edge">
<title>Node15&#45;&gt;Node21</title>
<g id="a_edge32_Node000015_Node000021"><a xlink:title=" ">
<path fill="none" stroke="#63b8ff" d="M457.83,-339.62C499.36,-331.06 581.51,-314.13 637.04,-302.69"/>
<polygon fill="#63b8ff" stroke="#63b8ff" points="637.55,-306.16 646.64,-300.71 636.13,-299.3 637.55,-306.16"/>
</a>
</g>
</g>
<!-- Node22 -->
<g id="Node000022" class="node">
<title>Node22</title>
<g id="a_Node000022"><a xlink:title=" ">
<polygon fill="#e0e0e0" stroke="#999999" points="339.5,-300 262,-300 262,-280 339.5,-280 339.5,-300"/>
<text text-anchor="middle" x="300.75" y="-286.5" font-family="Helvetica,sans-Serif" font-size="10.00">shared_mutex</text>
</a>
</g>
</g>
<!-- Node15&#45;&gt;Node22 -->
<g id="edge33_Node000015_Node000022" class="edge">
<title>Node15&#45;&gt;Node22</title>
<g id="a_edge33_Node000015_Node000022"><a xlink:title=" ">
<path fill="none" stroke="#63b8ff" d="M408.93,-335.59C388.3,-327.09 357.67,-314.46 334.26,-304.81"/>
<polygon fill="#63b8ff" stroke="#63b8ff" points="335.73,-301.63 325.15,-301.06 333.06,-308.1 335.73,-301.63"/>
</a>
</g>
</g>
<!-- Node16&#45;&gt;Node10 -->
<g id="edge28_Node000016_Node000010" class="edge">
<title>Node16&#45;&gt;Node10</title>
<g id="a_edge28_Node000016_Node000010"><a xlink:title=" ">
<path fill="none" stroke="#63b8ff" d="M415.2,-279.59C400.85,-271.44 379.82,-259.48 363.15,-250"/>
<polygon fill="#63b8ff" stroke="#63b8ff" points="365.17,-247.13 354.74,-245.23 361.71,-253.21 365.17,-247.13"/>
</a>
</g>
</g>
<!-- Node17 -->
<g id="Node000017" class="node">
<title>Node17</title>
<g id="a_Node000017"><a xlink:href="a00251.html" target="_top" xlink:title=" ">
<polygon fill="white" stroke="#666666" points="473.12,-132 390.38,-132 390.38,-112 473.12,-112 473.12,-132"/>
<text text-anchor="middle" x="431.75" y="-118.5" font-family="Helvetica,sans-Serif" font-size="10.00">LoaderLogger.h</text>
</a>
</g>
</g>
<!-- Node16&#45;&gt;Node17 -->
<g id="edge24_Node000016_Node000017" class="edge">
<title>Node16&#45;&gt;Node17</title>
<g id="a_edge24_Node000016_Node000017"><a xlink:title=" ">
<path fill="none" stroke="#63b8ff" d="M431.75,-279.6C431.75,-253.46 431.75,-179.48 431.75,-143.36"/>
<polygon fill="#63b8ff" stroke="#63b8ff" points="435.25,-143.81 431.75,-133.81 428.25,-143.81 435.25,-143.81"/>
</a>
</g>
</g>
<!-- Node17&#45;&gt;Node6 -->
<g id="edge25_Node000017_Node000006" class="edge">
<title>Node17&#45;&gt;Node6</title>
<g id="a_edge25_Node000017_Node000006"><a xlink:title=" ">
<path fill="none" stroke="#63b8ff" d="M401.62,-111.59C373.51,-102.82 331.34,-89.66 300.09,-79.9"/>
<polygon fill="#63b8ff" stroke="#63b8ff" points="301.15,-76.57 290.56,-76.93 299.07,-83.25 301.15,-76.57"/>
</a>
</g>
</g>
<!-- Node17&#45;&gt;Node8 -->
<g id="edge26_Node000017_Node000008" class="edge">
<title>Node17&#45;&gt;Node8</title>
<g id="a_edge26_Node000017_Node000008"><a xlink:title=" ">
<path fill="none" stroke="#63b8ff" d="M418.86,-111.59C408.04,-103.7 392.34,-92.24 379.56,-82.92"/>
<polygon fill="#63b8ff" stroke="#63b8ff" points="381.86,-80.26 371.71,-77.19 377.73,-85.91 381.86,-80.26"/>
</a>
</g>
</g>
<!-- Node18 -->
<g id="Node000018" class="node">
<title>Node18</title>
<g id="a_Node000018"><a xlink:title=" ">
<polygon fill="#e0e0e0" stroke="#999999" points="453.25,-76 410.25,-76 410.25,-56 453.25,-56 453.25,-76"/>
<text text-anchor="middle" x="431.75" y="-62.5" font-family="Helvetica,sans-Serif" font-size="10.00">vector</text>
</a>
</g>
</g>
<!-- Node17&#45;&gt;Node18 -->
<g id="edge27_Node000017_Node000018" class="edge">
<title>Node17&#45;&gt;Node18</title>
<g id="a_edge27_Node000017_Node000018"><a xlink:title=" ">
<path fill="none" stroke="#63b8ff" d="M431.75,-111.59C431.75,-105.01 431.75,-95.96 431.75,-87.73"/>
<polygon fill="#63b8ff" stroke="#63b8ff" points="435.25,-87.81 431.75,-77.81 428.25,-87.81 435.25,-87.81"/>
</a>
</g>
</g>
</g>
</svg>
