<?xml version="1.0" encoding="UTF-8" standalone="no"?>
<!DOCTYPE svg PUBLIC "-//W3C//DTD SVG 1.1//EN"
 "http://www.w3.org/Graphics/SVG/1.1/DTD/svg11.dtd">
<!-- Generated by graphviz version 2.50.0 (20211204.2007)
 -->
<!-- Title: ktInterface.cpp Pages: 1 -->
<svg width="1198pt" height="420pt"
 viewBox="0.00 0.00 1197.55 420.00" xmlns="http://www.w3.org/2000/svg" xmlns:xlink="http://www.w3.org/1999/xlink">
<g id="graph0" class="graph" transform="scale(1 1) rotate(0) translate(4 416)">
<title>ktInterface.cpp</title>
<polygon fill="white" stroke="transparent" points="-4,4 -4,-416 1193.55,-416 1193.55,4 -4,4"/>
<!-- Node1 -->
<g id="node1" class="node">
<title>Node1</title>
<g id="a_node1"><a xlink:title=" ">
<polygon fill="#bfbfbf" stroke="black" points="646.5,-392.5 646.5,-411.5 726.5,-411.5 726.5,-392.5 646.5,-392.5"/>
<text text-anchor="middle" x="686.5" y="-399.5" font-family="Helvetica,sans-Serif" font-size="10.00">ktInterface.cpp</text>
</a>
</g>
</g>
<!-- Node2 -->
<g id="node2" class="node">
<title>Node2</title>
<g id="a_node2"><a xlink:href="a00011.html" target="_top" xlink:title=" ">
<polygon fill="white" stroke="black" points="504.5,-56.5 504.5,-75.5 596.5,-75.5 596.5,-56.5 504.5,-56.5"/>
<text text-anchor="middle" x="550.5" y="-63.5" font-family="Helvetica,sans-Serif" font-size="10.00">MiraiCPMacros.h</text>
</a>
</g>
</g>
<!-- Node1&#45;&gt;Node2 -->
<g id="edge1" class="edge">
<title>Node1&#45;&gt;Node2</title>
<path fill="none" stroke="midnightblue" d="M726.72,-399.81C836.54,-396.22 1135.63,-383.93 1169.5,-356 1192.72,-336.85 1188.5,-321.1 1188.5,-291 1188.5,-291 1188.5,-291 1188.5,-177 1188.5,-118.25 762.97,-82.09 606.96,-70.81"/>
<polygon fill="midnightblue" stroke="midnightblue" points="606.86,-67.3 596.64,-70.07 606.36,-74.28 606.86,-67.3"/>
</g>
<!-- Node4 -->
<g id="node4" class="node">
<title>Node4</title>
<g id="a_node4"><a xlink:href="a00044.html" target="_top" xlink:title=" ">
<polygon fill="white" stroke="black" points="113,-224.5 113,-243.5 196,-243.5 196,-224.5 113,-224.5"/>
<text text-anchor="middle" x="154.5" y="-231.5" font-family="Helvetica,sans-Serif" font-size="10.00">LoaderLogger.h</text>
</a>
</g>
</g>
<!-- Node1&#45;&gt;Node4 -->
<g id="edge3" class="edge">
<title>Node1&#45;&gt;Node4</title>
<path fill="none" stroke="midnightblue" d="M646.24,-401.21C538.53,-401.21 246.16,-397.29 160.5,-356 123.4,-338.12 91.33,-317.87 107.5,-280 112.65,-267.95 122.78,-257.58 132.33,-249.84"/>
<polygon fill="midnightblue" stroke="midnightblue" points="134.54,-252.55 140.42,-243.74 130.33,-246.96 134.54,-252.55"/>
</g>
<!-- Node7 -->
<g id="node7" class="node">
<title>Node7</title>
<g id="a_node7"><a xlink:href="a00065.html" target="_top" xlink:title=" ">
<polygon fill="white" stroke="black" points="170,-336.5 170,-355.5 275,-355.5 275,-336.5 170,-336.5"/>
<text text-anchor="middle" x="222.5" y="-343.5" font-family="Helvetica,sans-Serif" font-size="10.00">PluginListManager.h</text>
</a>
</g>
</g>
<!-- Node1&#45;&gt;Node7 -->
<g id="edge7" class="edge">
<title>Node1&#45;&gt;Node7</title>
<path fill="none" stroke="midnightblue" d="M646.13,-396.3C565,-386.86 381.67,-365.52 284.94,-354.27"/>
<polygon fill="midnightblue" stroke="midnightblue" points="285.35,-350.79 275.01,-353.11 284.54,-357.74 285.35,-350.79"/>
</g>
<!-- Node14 -->
<g id="node14" class="node">
<title>Node14</title>
<g id="a_node14"><a xlink:href="a00026.html" target="_top" xlink:title=" ">
<polygon fill="white" stroke="black" points="0,-112.5 0,-131.5 77,-131.5 77,-112.5 0,-112.5"/>
<text text-anchor="middle" x="38.5" y="-119.5" font-family="Helvetica,sans-Serif" font-size="10.00">eventHandle.h</text>
</a>
</g>
</g>
<!-- Node1&#45;&gt;Node14 -->
<g id="edge19" class="edge">
<title>Node1&#45;&gt;Node14</title>
<path fill="none" stroke="midnightblue" d="M646.44,-400.99C533.98,-400.46 217.41,-395.41 122.5,-356 81.45,-338.95 46.5,-335.45 46.5,-291 46.5,-291 46.5,-291 46.5,-233 46.5,-200.86 43.06,-163.58 40.69,-141.72"/>
<polygon fill="midnightblue" stroke="midnightblue" points="44.14,-141.09 39.55,-131.54 37.19,-141.87 44.14,-141.09"/>
</g>
<!-- Node15 -->
<g id="node15" class="node">
<title>Node15</title>
<g id="a_node15"><a xlink:href="a00035.html" target="_top" xlink:title=" ">
<polygon fill="white" stroke="black" points="740.5,-336.5 740.5,-355.5 810.5,-355.5 810.5,-336.5 740.5,-336.5"/>
<text text-anchor="middle" x="775.5" y="-343.5" font-family="Helvetica,sans-Serif" font-size="10.00">ktInterface.h</text>
</a>
</g>
</g>
<!-- Node1&#45;&gt;Node15 -->
<g id="edge21" class="edge">
<title>Node1&#45;&gt;Node15</title>
<path fill="none" stroke="midnightblue" d="M700.8,-392.32C714.68,-383.9 735.99,-370.97 752.3,-361.07"/>
<polygon fill="midnightblue" stroke="midnightblue" points="754.5,-363.83 761.24,-355.65 750.87,-357.85 754.5,-363.83"/>
</g>
<!-- Node16 -->
<g id="node16" class="node">
<title>Node16</title>
<g id="a_node16"><a xlink:href="a00047.html" target="_top" xlink:title=" ">
<polygon fill="white" stroke="black" points="735,-280.5 735,-299.5 816,-299.5 816,-280.5 735,-280.5"/>
<text text-anchor="middle" x="775.5" y="-287.5" font-family="Helvetica,sans-Serif" font-size="10.00">LoaderMacro.h</text>
</a>
</g>
</g>
<!-- Node1&#45;&gt;Node16 -->
<g id="edge39" class="edge">
<title>Node1&#45;&gt;Node16</title>
<path fill="none" stroke="midnightblue" d="M672.84,-392.31C654.87,-379.78 627.16,-355.95 641.5,-336 651.64,-321.9 691.52,-309.64 725.16,-301.49"/>
<polygon fill="midnightblue" stroke="midnightblue" points="725.98,-304.89 734.91,-299.2 724.37,-298.08 725.98,-304.89"/>
</g>
<!-- Node18 -->
<g id="node18" class="node">
<title>Node18</title>
<g id="a_node18"><a xlink:href="a00050.html" target="_top" xlink:title=" ">
<polygon fill="white" stroke="black" points="650.5,-336.5 650.5,-355.5 722.5,-355.5 722.5,-336.5 650.5,-336.5"/>
<text text-anchor="middle" x="686.5" y="-343.5" font-family="Helvetica,sans-Serif" font-size="10.00">loaderMain.h</text>
</a>
</g>
</g>
<!-- Node1&#45;&gt;Node18 -->
<g id="edge25" class="edge">
<title>Node1&#45;&gt;Node18</title>
<path fill="none" stroke="midnightblue" d="M686.5,-392.08C686.5,-385.01 686.5,-374.86 686.5,-365.99"/>
<polygon fill="midnightblue" stroke="midnightblue" points="690,-365.75 686.5,-355.75 683,-365.75 690,-365.75"/>
</g>
<!-- Node19 -->
<g id="node19" class="node">
<title>Node19</title>
<g id="a_node19"><a xlink:href="a00023.html" target="_top" xlink:title=" ">
<polygon fill="white" stroke="black" points="420,-336.5 420,-355.5 497,-355.5 497,-336.5 420,-336.5"/>
<text text-anchor="middle" x="458.5" y="-343.5" font-family="Helvetica,sans-Serif" font-size="10.00">redirectCout.h</text>
</a>
</g>
</g>
<!-- Node1&#45;&gt;Node19 -->
<g id="edge26" class="edge">
<title>Node1&#45;&gt;Node19</title>
<path fill="none" stroke="midnightblue" d="M650.37,-392.44C610.85,-383.08 547.4,-368.06 504.39,-357.87"/>
<polygon fill="midnightblue" stroke="midnightblue" points="505,-354.42 494.46,-355.52 503.38,-361.23 505,-354.42"/>
</g>
<!-- Node21 -->
<g id="node21" class="node">
<title>Node21</title>
<g id="a_node21"><a xlink:title=" ">
<polygon fill="white" stroke="#bfbfbf" points="774.5,-224.5 774.5,-243.5 818.5,-243.5 818.5,-224.5 774.5,-224.5"/>
<text text-anchor="middle" x="796.5" y="-231.5" font-family="Helvetica,sans-Serif" font-size="10.00">thread</text>
</a>
</g>
</g>
<!-- Node1&#45;&gt;Node21 -->
<g id="edge29" class="edge">
<title>Node1&#45;&gt;Node21</title>
<path fill="none" stroke="midnightblue" d="M726.74,-398.6C757.11,-394.5 797.24,-383.77 819.5,-356 840.69,-329.56 835.07,-312.5 825.5,-280 822.49,-269.76 816.35,-259.66 810.49,-251.63"/>
<polygon fill="midnightblue" stroke="midnightblue" points="813.09,-249.27 804.17,-243.54 807.57,-253.58 813.09,-249.27"/>
</g>
<!-- Node22 -->
<g id="node22" class="node">
<title>Node22</title>
<g id="a_node22"><a xlink:title=" ">
<polygon fill="white" stroke="#bfbfbf" points="867,-336.5 867,-355.5 960,-355.5 960,-336.5 867,-336.5"/>
<text text-anchor="middle" x="913.5" y="-343.5" font-family="Helvetica,sans-Serif" font-size="10.00">condition_variable</text>
</a>
</g>
</g>
<!-- Node1&#45;&gt;Node22 -->
<g id="edge30" class="edge">
<title>Node1&#45;&gt;Node22</title>
<path fill="none" stroke="midnightblue" d="M722.47,-392.44C761.82,-383.08 824.99,-368.06 867.81,-357.87"/>
<polygon fill="midnightblue" stroke="midnightblue" points="868.78,-361.24 877.7,-355.52 867.16,-354.43 868.78,-361.24"/>
</g>
<!-- Node23 -->
<g id="node23" class="node">
<title>Node23</title>
<g id="a_node23"><a xlink:title=" ">
<polygon fill="white" stroke="#bfbfbf" points="978.5,-336.5 978.5,-355.5 1082.5,-355.5 1082.5,-336.5 978.5,-336.5"/>
<text text-anchor="middle" x="1030.5" y="-343.5" font-family="Helvetica,sans-Serif" font-size="10.00">BS_thread_pool.hpp</text>
</a>
</g>
</g>
<!-- Node1&#45;&gt;Node23 -->
<g id="edge31" class="edge">
<title>Node1&#45;&gt;Node23</title>
<path fill="none" stroke="midnightblue" d="M726.63,-394.7C786.1,-385.37 898.11,-367.78 968.26,-356.77"/>
<polygon fill="midnightblue" stroke="midnightblue" points="968.96,-360.2 978.3,-355.19 967.88,-353.29 968.96,-360.2"/>
</g>
<!-- Node24 -->
<g id="node24" class="node">
<title>Node24</title>
<g id="a_node24"><a xlink:href="a00032.html" target="_top" xlink:title=" ">
<polygon fill="white" stroke="black" points="1101,-336.5 1101,-355.5 1160,-355.5 1160,-336.5 1101,-336.5"/>
<text text-anchor="middle" x="1130.5" y="-343.5" font-family="Helvetica,sans-Serif" font-size="10.00">JNIEnvs.h</text>
</a>
</g>
</g>
<!-- Node1&#45;&gt;Node24 -->
<g id="edge32" class="edge">
<title>Node1&#45;&gt;Node24</title>
<path fill="none" stroke="midnightblue" d="M726.67,-398.09C797.96,-392.6 951.41,-379.25 1090.75,-355.93"/>
<polygon fill="midnightblue" stroke="midnightblue" points="1091.49,-359.36 1100.76,-354.24 1090.32,-352.46 1091.49,-359.36"/>
</g>
<!-- Node28 -->
<g id="node28" class="node">
<title>Node28</title>
<g id="a_node28"><a xlink:href="a00056.html" target="_top" xlink:title=" ">
<polygon fill="white" stroke="black" points="520.5,-336.5 520.5,-355.5 594.5,-355.5 594.5,-336.5 520.5,-336.5"/>
<text text-anchor="middle" x="557.5" y="-343.5" font-family="Helvetica,sans-Serif" font-size="10.00">loaderTools.h</text>
</a>
</g>
</g>
<!-- Node1&#45;&gt;Node28 -->
<g id="edge40" class="edge">
<title>Node1&#45;&gt;Node28</title>
<path fill="none" stroke="midnightblue" d="M666.06,-392.44C644.83,-383.56 611.4,-369.56 587.25,-359.45"/>
<polygon fill="midnightblue" stroke="midnightblue" points="588.42,-356.15 577.84,-355.52 585.72,-362.61 588.42,-356.15"/>
</g>
<!-- Node3 -->
<g id="node3" class="node">
<title>Node3</title>
<g id="a_node3"><a xlink:title=" ">
<polygon fill="white" stroke="#bfbfbf" points="444,-0.5 444,-19.5 493,-19.5 493,-0.5 444,-0.5"/>
<text text-anchor="middle" x="468.5" y="-7.5" font-family="Helvetica,sans-Serif" font-size="10.00">cassert</text>
</a>
</g>
</g>
<!-- Node2&#45;&gt;Node3 -->
<g id="edge2" class="edge">
<title>Node2&#45;&gt;Node3</title>
<path fill="none" stroke="midnightblue" d="M537.33,-56.32C524.65,-47.98 505.27,-35.21 490.29,-25.35"/>
<polygon fill="midnightblue" stroke="midnightblue" points="491.92,-22.23 481.64,-19.65 488.07,-28.08 491.92,-22.23"/>
</g>
<!-- Node4&#45;&gt;Node2 -->
<g id="edge4" class="edge">
<title>Node4&#45;&gt;Node2</title>
<path fill="none" stroke="midnightblue" d="M196.17,-230.98C235.78,-227.28 295.52,-216.91 338.5,-188 373.1,-164.73 359.37,-135.95 393.5,-112 423.24,-91.13 462.54,-79.88 494.38,-73.85"/>
<polygon fill="midnightblue" stroke="midnightblue" points="495.2,-77.26 504.44,-72.07 493.98,-70.37 495.2,-77.26"/>
</g>
<!-- Node5 -->
<g id="node5" class="node">
<title>Node5</title>
<g id="a_node5"><a xlink:title=" ">
<polygon fill="white" stroke="#bfbfbf" points="132,-56.5 132,-75.5 173,-75.5 173,-56.5 132,-56.5"/>
<text text-anchor="middle" x="152.5" y="-63.5" font-family="Helvetica,sans-Serif" font-size="10.00">string</text>
</a>
</g>
</g>
<!-- Node4&#45;&gt;Node5 -->
<g id="edge5" class="edge">
<title>Node4&#45;&gt;Node5</title>
<path fill="none" stroke="midnightblue" d="M146.29,-224.18C138.96,-215.66 128.74,-202.02 124.5,-188 113.51,-151.7 130.84,-108.17 142.76,-84.47"/>
<polygon fill="midnightblue" stroke="midnightblue" points="145.86,-86.09 147.44,-75.61 139.67,-82.82 145.86,-86.09"/>
</g>
<!-- Node6 -->
<g id="node6" class="node">
<title>Node6</title>
<g id="a_node6"><a xlink:title=" ">
<polygon fill="white" stroke="#bfbfbf" points="133.5,-168.5 133.5,-187.5 175.5,-187.5 175.5,-168.5 133.5,-168.5"/>
<text text-anchor="middle" x="154.5" y="-175.5" font-family="Helvetica,sans-Serif" font-size="10.00">vector</text>
</a>
</g>
</g>
<!-- Node4&#45;&gt;Node6 -->
<g id="edge6" class="edge">
<title>Node4&#45;&gt;Node6</title>
<path fill="none" stroke="midnightblue" d="M154.5,-224.08C154.5,-217.01 154.5,-206.86 154.5,-197.99"/>
<polygon fill="midnightblue" stroke="midnightblue" points="158,-197.75 154.5,-187.75 151,-197.75 158,-197.75"/>
</g>
<!-- Node8 -->
<g id="node8" class="node">
<title>Node8</title>
<g id="a_node8"><a xlink:href="a00005.html" target="_top" xlink:title=" ">
<polygon fill="white" stroke="black" points="350,-224.5 350,-243.5 439,-243.5 439,-224.5 350,-224.5"/>
<text text-anchor="middle" x="394.5" y="-231.5" font-family="Helvetica,sans-Serif" font-size="10.00">commonTypes.h</text>
</a>
</g>
</g>
<!-- Node7&#45;&gt;Node8 -->
<g id="edge8" class="edge">
<title>Node7&#45;&gt;Node8</title>
<path fill="none" stroke="midnightblue" d="M222.54,-336.1C223.09,-322.19 226.22,-295.31 241.5,-280 267.27,-254.19 307.04,-243.02 339.57,-238.27"/>
<polygon fill="midnightblue" stroke="midnightblue" points="340.38,-241.69 349.85,-236.94 339.48,-234.75 340.38,-241.69"/>
</g>
<!-- Node13 -->
<g id="node13" class="node">
<title>Node13</title>
<g id="a_node13"><a xlink:title=" ">
<polygon fill="white" stroke="#bfbfbf" points="116.5,-280.5 116.5,-299.5 194.5,-299.5 194.5,-280.5 116.5,-280.5"/>
<text text-anchor="middle" x="155.5" y="-287.5" font-family="Helvetica,sans-Serif" font-size="10.00">shared_mutex</text>
</a>
</g>
</g>
<!-- Node7&#45;&gt;Node13 -->
<g id="edge18" class="edge">
<title>Node7&#45;&gt;Node13</title>
<path fill="none" stroke="midnightblue" d="M211.74,-336.32C201.73,-328.26 186.61,-316.08 174.57,-306.37"/>
<polygon fill="midnightblue" stroke="midnightblue" points="176.44,-303.38 166.46,-299.83 172.05,-308.83 176.44,-303.38"/>
</g>
<!-- Node8&#45;&gt;Node2 -->
<g id="edge9" class="edge">
<title>Node8&#45;&gt;Node2</title>
<path fill="none" stroke="midnightblue" d="M416.64,-224.47C434,-216.93 457.92,-204.54 474.5,-188 501.98,-160.59 496.43,-144.59 517.5,-112 523.68,-102.44 531.14,-92.18 537.4,-83.87"/>
<polygon fill="midnightblue" stroke="midnightblue" points="540.32,-85.82 543.61,-75.75 534.75,-81.57 540.32,-85.82"/>
</g>
<!-- Node9 -->
<g id="node9" class="node">
<title>Node9</title>
<g id="a_node9"><a xlink:href="a00020.html" target="_top" xlink:title=" ">
<polygon fill="white" stroke="black" points="386,-168.5 386,-187.5 465,-187.5 465,-168.5 386,-168.5"/>
<text text-anchor="middle" x="425.5" y="-175.5" font-family="Helvetica,sans-Serif" font-size="10.00">PluginConfig.h</text>
</a>
</g>
</g>
<!-- Node8&#45;&gt;Node9 -->
<g id="edge10" class="edge">
<title>Node8&#45;&gt;Node9</title>
<path fill="none" stroke="midnightblue" d="M399.62,-224.08C403.91,-216.61 410.16,-205.72 415.44,-196.52"/>
<polygon fill="midnightblue" stroke="midnightblue" points="418.53,-198.17 420.48,-187.75 412.46,-194.68 418.53,-198.17"/>
</g>
<!-- Node12 -->
<g id="node12" class="node">
<title>Node12</title>
<g id="a_node12"><a xlink:href="a00008.html" target="_top" xlink:title=" ">
<polygon fill="white" stroke="black" points="232,-168.5 232,-187.5 329,-187.5 329,-168.5 232,-168.5"/>
<text text-anchor="middle" x="280.5" y="-175.5" font-family="Helvetica,sans-Serif" font-size="10.00">loaderApiInternal.h</text>
</a>
</g>
</g>
<!-- Node8&#45;&gt;Node12 -->
<g id="edge16" class="edge">
<title>Node8&#45;&gt;Node12</title>
<path fill="none" stroke="midnightblue" d="M376.44,-224.44C357.93,-215.68 328.92,-201.94 307.64,-191.86"/>
<polygon fill="midnightblue" stroke="midnightblue" points="309.01,-188.63 298.48,-187.52 306.02,-194.96 309.01,-188.63"/>
</g>
<!-- Node10 -->
<g id="node10" class="node">
<title>Node10</title>
<g id="a_node10"><a xlink:href="a00014.html" target="_top" xlink:title=" ">
<polygon fill="white" stroke="black" points="229.5,-112.5 229.5,-131.5 345.5,-131.5 345.5,-112.5 229.5,-112.5"/>
<text text-anchor="middle" x="287.5" y="-119.5" font-family="Helvetica,sans-Serif" font-size="10.00">MiraiCPStringInternal.h</text>
</a>
</g>
</g>
<!-- Node9&#45;&gt;Node10 -->
<g id="edge11" class="edge">
<title>Node9&#45;&gt;Node10</title>
<path fill="none" stroke="midnightblue" d="M403.63,-168.44C380.72,-159.48 344.52,-145.31 318.63,-135.18"/>
<polygon fill="midnightblue" stroke="midnightblue" points="319.85,-131.9 309.26,-131.52 317.3,-138.42 319.85,-131.9"/>
</g>
<!-- Node11 -->
<g id="node11" class="node">
<title>Node11</title>
<g id="a_node11"><a xlink:title=" ">
<polygon fill="white" stroke="#bfbfbf" points="402,-112.5 402,-131.5 455,-131.5 455,-112.5 402,-112.5"/>
<text text-anchor="middle" x="428.5" y="-119.5" font-family="Helvetica,sans-Serif" font-size="10.00">json.hpp</text>
</a>
</g>
</g>
<!-- Node9&#45;&gt;Node11 -->
<g id="edge15" class="edge">
<title>Node9&#45;&gt;Node11</title>
<path fill="none" stroke="midnightblue" d="M426,-168.08C426.39,-161.01 426.95,-150.86 427.45,-141.99"/>
<polygon fill="midnightblue" stroke="midnightblue" points="430.95,-141.93 428.01,-131.75 423.96,-141.54 430.95,-141.93"/>
</g>
<!-- Node10&#45;&gt;Node2 -->
<g id="edge12" class="edge">
<title>Node10&#45;&gt;Node2</title>
<path fill="none" stroke="midnightblue" d="M329.17,-112.44C375.25,-102.98 449.5,-87.74 499.13,-77.55"/>
<polygon fill="midnightblue" stroke="midnightblue" points="499.93,-80.96 509.02,-75.52 498.52,-74.1 499.93,-80.96"/>
</g>
<!-- Node10&#45;&gt;Node3 -->
<g id="edge13" class="edge">
<title>Node10&#45;&gt;Node3</title>
<path fill="none" stroke="midnightblue" d="M301.7,-112.37C332.89,-93.41 407.62,-48 445.56,-24.94"/>
<polygon fill="midnightblue" stroke="midnightblue" points="447.64,-27.78 454.36,-19.59 444,-21.79 447.64,-27.78"/>
</g>
<!-- Node10&#45;&gt;Node5 -->
<g id="edge14" class="edge">
<title>Node10&#45;&gt;Node5</title>
<path fill="none" stroke="midnightblue" d="M266.11,-112.44C243.66,-103.46 208.18,-89.27 182.85,-79.14"/>
<polygon fill="midnightblue" stroke="midnightblue" points="183.93,-75.8 173.35,-75.34 181.33,-82.3 183.93,-75.8"/>
</g>
<!-- Node12&#45;&gt;Node10 -->
<g id="edge17" class="edge">
<title>Node12&#45;&gt;Node10</title>
<path fill="none" stroke="midnightblue" d="M281.66,-168.08C282.58,-160.93 283.92,-150.64 285.08,-141.69"/>
<polygon fill="midnightblue" stroke="midnightblue" points="288.55,-142.12 286.37,-131.75 281.61,-141.22 288.55,-142.12"/>
</g>
<!-- Node14&#45;&gt;Node5 -->
<g id="edge20" class="edge">
<title>Node14&#45;&gt;Node5</title>
<path fill="none" stroke="midnightblue" d="M56.56,-112.44C75.07,-103.68 104.08,-89.94 125.36,-79.86"/>
<polygon fill="midnightblue" stroke="midnightblue" points="126.98,-82.96 134.52,-75.52 123.99,-76.63 126.98,-82.96"/>
</g>
<!-- Node15&#45;&gt;Node16 -->
<g id="edge22" class="edge">
<title>Node15&#45;&gt;Node16</title>
<path fill="none" stroke="midnightblue" d="M775.5,-336.08C775.5,-329.01 775.5,-318.86 775.5,-309.99"/>
<polygon fill="midnightblue" stroke="midnightblue" points="779,-309.75 775.5,-299.75 772,-309.75 779,-309.75"/>
</g>
<!-- Node16&#45;&gt;Node2 -->
<g id="edge23" class="edge">
<title>Node16&#45;&gt;Node2</title>
<path fill="none" stroke="midnightblue" d="M768.84,-280.29C758.96,-267.54 739.63,-243.2 721.5,-224 671.42,-170.95 655.52,-161.03 601.5,-112 590.43,-101.96 577.84,-90.85 567.94,-82.18"/>
<polygon fill="midnightblue" stroke="midnightblue" points="570.18,-79.49 560.35,-75.55 565.58,-84.76 570.18,-79.49"/>
</g>
<!-- Node17 -->
<g id="node17" class="node">
<title>Node17</title>
<g id="a_node17"><a xlink:title=" ">
<polygon fill="white" stroke="#bfbfbf" points="837,-224.5 837,-243.5 872,-243.5 872,-224.5 837,-224.5"/>
<text text-anchor="middle" x="854.5" y="-231.5" font-family="Helvetica,sans-Serif" font-size="10.00">jni.h</text>
</a>
</g>
</g>
<!-- Node16&#45;&gt;Node17 -->
<g id="edge24" class="edge">
<title>Node16&#45;&gt;Node17</title>
<path fill="none" stroke="midnightblue" d="M788.19,-280.32C800.4,-271.98 819.08,-259.21 833.5,-249.35"/>
<polygon fill="midnightblue" stroke="midnightblue" points="835.56,-252.19 841.84,-243.65 831.61,-246.41 835.56,-252.19"/>
</g>
<!-- Node19&#45;&gt;Node2 -->
<g id="edge27" class="edge">
<title>Node19&#45;&gt;Node2</title>
<path fill="none" stroke="midnightblue" d="M461.14,-336.14C464.9,-323.61 472.04,-300 478.5,-280 501.75,-207.96 531.1,-122.83 543.96,-85.78"/>
<polygon fill="midnightblue" stroke="midnightblue" points="547.42,-86.49 547.39,-75.9 540.8,-84.2 547.42,-86.49"/>
</g>
<!-- Node20 -->
<g id="node20" class="node">
<title>Node20</title>
<g id="a_node20"><a xlink:title=" ">
<polygon fill="white" stroke="#bfbfbf" points="250.5,-280.5 250.5,-299.5 302.5,-299.5 302.5,-280.5 250.5,-280.5"/>
<text text-anchor="middle" x="276.5" y="-287.5" font-family="Helvetica,sans-Serif" font-size="10.00">sstream</text>
</a>
</g>
</g>
<!-- Node19&#45;&gt;Node20 -->
<g id="edge28" class="edge">
<title>Node19&#45;&gt;Node20</title>
<path fill="none" stroke="midnightblue" d="M429.66,-336.44C397.82,-327 346.54,-311.78 312.19,-301.59"/>
<polygon fill="midnightblue" stroke="midnightblue" points="313.13,-298.22 302.55,-298.73 311.14,-304.93 313.13,-298.22"/>
</g>
<!-- Node25 -->
<g id="node25" class="node">
<title>Node25</title>
<g id="a_node25"><a xlink:href="a00029.html" target="_top" xlink:title=" ">
<polygon fill="white" stroke="black" points="872.5,-280.5 872.5,-299.5 964.5,-299.5 964.5,-280.5 872.5,-280.5"/>
<text text-anchor="middle" x="918.5" y="-287.5" font-family="Helvetica,sans-Serif" font-size="10.00">JNIEnvManager.h</text>
</a>
</g>
</g>
<!-- Node24&#45;&gt;Node25 -->
<g id="edge33" class="edge">
<title>Node24&#45;&gt;Node25</title>
<path fill="none" stroke="midnightblue" d="M1100.58,-337.38C1064.41,-328.17 1003.27,-312.59 961.92,-302.06"/>
<polygon fill="midnightblue" stroke="midnightblue" points="962.67,-298.64 952.12,-299.56 960.95,-305.42 962.67,-298.64"/>
</g>
<!-- Node25&#45;&gt;Node2 -->
<g id="edge34" class="edge">
<title>Node25&#45;&gt;Node2</title>
<path fill="none" stroke="midnightblue" d="M926.65,-280.41C938,-267.39 955.84,-242.22 943.5,-224 867.3,-111.51 696.11,-79.61 606.93,-70.57"/>
<polygon fill="midnightblue" stroke="midnightblue" points="607.02,-67.07 596.74,-69.6 606.36,-74.03 607.02,-67.07"/>
</g>
<!-- Node25&#45;&gt;Node17 -->
<g id="edge36" class="edge">
<title>Node25&#45;&gt;Node17</title>
<path fill="none" stroke="midnightblue" d="M908.22,-280.32C898.66,-272.26 884.22,-260.08 872.72,-250.37"/>
<polygon fill="midnightblue" stroke="midnightblue" points="874.87,-247.61 864.97,-243.83 870.36,-252.96 874.87,-247.61"/>
</g>
<!-- Node25&#45;&gt;Node21 -->
<g id="edge38" class="edge">
<title>Node25&#45;&gt;Node21</title>
<path fill="none" stroke="midnightblue" d="M899.17,-280.44C879.18,-271.6 847.76,-257.69 824.94,-247.59"/>
<polygon fill="midnightblue" stroke="midnightblue" points="826.3,-244.36 815.74,-243.52 823.47,-250.76 826.3,-244.36"/>
</g>
<!-- Node26 -->
<g id="node26" class="node">
<title>Node26</title>
<g id="a_node26"><a xlink:title=" ">
<polygon fill="white" stroke="#bfbfbf" points="654.5,-224.5 654.5,-243.5 712.5,-243.5 712.5,-224.5 654.5,-224.5"/>
<text text-anchor="middle" x="683.5" y="-231.5" font-family="Helvetica,sans-Serif" font-size="10.00">functional</text>
</a>
</g>
</g>
<!-- Node25&#45;&gt;Node26 -->
<g id="edge35" class="edge">
<title>Node25&#45;&gt;Node26</title>
<path fill="none" stroke="midnightblue" d="M881.26,-280.44C837.92,-270.48 766.66,-254.11 722.55,-243.97"/>
<polygon fill="midnightblue" stroke="midnightblue" points="723.3,-240.55 712.77,-241.73 721.73,-247.38 723.3,-240.55"/>
</g>
<!-- Node27 -->
<g id="node27" class="node">
<title>Node27</title>
<g id="a_node27"><a xlink:title=" ">
<polygon fill="white" stroke="#bfbfbf" points="890.5,-224.5 890.5,-243.5 934.5,-243.5 934.5,-224.5 890.5,-224.5"/>
<text text-anchor="middle" x="912.5" y="-231.5" font-family="Helvetica,sans-Serif" font-size="10.00">mutex</text>
</a>
</g>
</g>
<!-- Node25&#45;&gt;Node27 -->
<g id="edge37" class="edge">
<title>Node25&#45;&gt;Node27</title>
<path fill="none" stroke="midnightblue" d="M917.51,-280.08C916.71,-272.93 915.57,-262.64 914.58,-253.69"/>
<polygon fill="midnightblue" stroke="midnightblue" points="918.06,-253.3 913.47,-243.75 911.1,-254.08 918.06,-253.3"/>
</g>
<!-- Node28&#45;&gt;Node2 -->
<g id="edge41" class="edge">
<title>Node28&#45;&gt;Node2</title>
<path fill="none" stroke="midnightblue" d="M557.28,-336.38C556.31,-297.78 552.35,-140.45 550.97,-85.81"/>
<polygon fill="midnightblue" stroke="midnightblue" points="554.47,-85.43 550.71,-75.52 547.47,-85.61 554.47,-85.43"/>
</g>
<!-- Node28&#45;&gt;Node5 -->
<g id="edge50" class="edge">
<title>Node28&#45;&gt;Node5</title>
<path fill="none" stroke="midnightblue" d="M520.09,-337.97C464.39,-327.34 364.59,-307.62 349.5,-300 282.33,-266.06 270.19,-246.22 222.5,-188 195.18,-154.65 172.07,-109.33 160.48,-84.7"/>
<polygon fill="midnightblue" stroke="midnightblue" points="163.61,-83.12 156.24,-75.51 157.26,-86.06 163.61,-83.12"/>
</g>
<!-- Node28&#45;&gt;Node16 -->
<g id="edge42" class="edge">
<title>Node28&#45;&gt;Node16</title>
<path fill="none" stroke="midnightblue" d="M592.04,-336.44C629.75,-327.1 690.24,-312.12 731.36,-301.93"/>
<polygon fill="midnightblue" stroke="midnightblue" points="732.25,-305.32 741.12,-299.52 730.57,-298.52 732.25,-305.32"/>
</g>
<!-- Node28&#45;&gt;Node21 -->
<g id="edge51" class="edge">
<title>Node28&#45;&gt;Node21</title>
<path fill="none" stroke="midnightblue" d="M587.61,-336.49C614.4,-328.48 654.37,-315.41 687.5,-300 719.49,-285.12 754.1,-263.42 775.55,-249.26"/>
<polygon fill="midnightblue" stroke="midnightblue" points="777.51,-252.16 783.88,-243.69 773.62,-246.34 777.51,-252.16"/>
</g>
<!-- Node29 -->
<g id="node29" class="node">
<title>Node29</title>
<g id="a_node29"><a xlink:href="a00062.html" target="_top" xlink:title=" ">
<polygon fill="white" stroke="black" points="358.5,-280.5 358.5,-299.5 430.5,-299.5 430.5,-280.5 358.5,-280.5"/>
<text text-anchor="middle" x="394.5" y="-287.5" font-family="Helvetica,sans-Serif" font-size="10.00">PluginData.h</text>
</a>
</g>
</g>
<!-- Node28&#45;&gt;Node29 -->
<g id="edge43" class="edge">
<title>Node28&#45;&gt;Node29</title>
<path fill="none" stroke="midnightblue" d="M531.67,-336.44C504.25,-327.36 460.72,-312.94 430.07,-302.78"/>
<polygon fill="midnightblue" stroke="midnightblue" points="430.8,-299.34 420.21,-299.52 428.6,-305.98 430.8,-299.34"/>
</g>
<!-- Node30 -->
<g id="node30" class="node">
<title>Node30</title>
<g id="a_node30"><a xlink:href="a00002.html" target="_top" xlink:title=" ">
<polygon fill="white" stroke="black" points="592.5,-280.5 592.5,-299.5 678.5,-299.5 678.5,-280.5 592.5,-280.5"/>
<text text-anchor="middle" x="635.5" y="-287.5" font-family="Helvetica,sans-Serif" font-size="10.00">commonTools.h</text>
</a>
</g>
</g>
<!-- Node28&#45;&gt;Node30 -->
<g id="edge46" class="edge">
<title>Node28&#45;&gt;Node30</title>
<path fill="none" stroke="midnightblue" d="M570.03,-336.32C582.09,-327.98 600.53,-315.21 614.77,-305.35"/>
<polygon fill="midnightblue" stroke="midnightblue" points="616.77,-308.22 623,-299.65 612.78,-302.47 616.77,-308.22"/>
</g>
<!-- Node31 -->
<g id="node31" class="node">
<title>Node31</title>
<g id="a_node31"><a xlink:title=" ">
<polygon fill="white" stroke="#bfbfbf" points="487,-280.5 487,-299.5 536,-299.5 536,-280.5 487,-280.5"/>
<text text-anchor="middle" x="511.5" y="-287.5" font-family="Helvetica,sans-Serif" font-size="10.00">fstream</text>
</a>
</g>
</g>
<!-- Node28&#45;&gt;Node31 -->
<g id="edge49" class="edge">
<title>Node28&#45;&gt;Node31</title>
<path fill="none" stroke="midnightblue" d="M549.9,-336.08C543.27,-328.3 533.48,-316.8 525.44,-307.37"/>
<polygon fill="midnightblue" stroke="midnightblue" points="528.1,-305.09 518.95,-299.75 522.77,-309.63 528.1,-305.09"/>
</g>
<!-- Node29&#45;&gt;Node4 -->
<g id="edge44" class="edge">
<title>Node29&#45;&gt;Node4</title>
<path fill="none" stroke="midnightblue" d="M358.31,-280.86C316.8,-271.52 248.55,-256.16 202.6,-245.82"/>
<polygon fill="midnightblue" stroke="midnightblue" points="203.1,-242.35 192.57,-243.57 201.56,-249.18 203.1,-242.35"/>
</g>
<!-- Node29&#45;&gt;Node8 -->
<g id="edge45" class="edge">
<title>Node29&#45;&gt;Node8</title>
<path fill="none" stroke="midnightblue" d="M394.5,-280.08C394.5,-273.01 394.5,-262.86 394.5,-253.99"/>
<polygon fill="midnightblue" stroke="midnightblue" points="398,-253.75 394.5,-243.75 391,-253.75 398,-253.75"/>
</g>
<!-- Node30&#45;&gt;Node2 -->
<g id="edge47" class="edge">
<title>Node30&#45;&gt;Node2</title>
<path fill="none" stroke="midnightblue" d="M634.02,-280.13C629.36,-253.54 613.46,-172.58 583.5,-112 578.52,-101.92 571.27,-91.74 564.84,-83.61"/>
<polygon fill="midnightblue" stroke="midnightblue" points="567.38,-81.19 558.32,-75.7 561.98,-85.65 567.38,-81.19"/>
</g>
<!-- Node30&#45;&gt;Node26 -->
<g id="edge48" class="edge">
<title>Node30&#45;&gt;Node26</title>
<path fill="none" stroke="midnightblue" d="M643.43,-280.08C650.35,-272.3 660.57,-260.8 668.95,-251.37"/>
<polygon fill="midnightblue" stroke="midnightblue" points="671.69,-253.55 675.72,-243.75 666.46,-248.9 671.69,-253.55"/>
</g>
</g>
</svg>
