<?xml version="1.0" encoding="UTF-8" standalone="no"?>
<!DOCTYPE svg PUBLIC "-//W3C//DTD SVG 1.1//EN"
 "http://www.w3.org/Graphics/SVG/1.1/DTD/svg11.dtd">
<!-- Generated by graphviz version 2.50.0 (20211204.2007)
 -->
<!-- Title: Bot.cpp Pages: 1 -->
<svg width="1412pt" height="431pt"
 viewBox="0.00 0.00 1412.00 431.00" xmlns="http://www.w3.org/2000/svg" xmlns:xlink="http://www.w3.org/1999/xlink">
<g id="graph0" class="graph" transform="scale(1 1) rotate(0) translate(4 427)">
<title>Bot.cpp</title>
<polygon fill="white" stroke="transparent" points="-4,4 -4,-427 1408,-427 1408,4 -4,4"/>
<!-- Node1 -->
<g id="node1" class="node">
<title>Node1</title>
<g id="a_node1"><a xlink:title=" ">
<polygon fill="#bfbfbf" stroke="black" points="941,-403.5 941,-422.5 991,-422.5 991,-403.5 941,-403.5"/>
<text text-anchor="middle" x="966" y="-410.5" font-family="Helvetica,sans-Serif" font-size="10.00">Bot.cpp</text>
</a>
</g>
</g>
<!-- Node2 -->
<g id="node2" class="node">
<title>Node2</title>
<g id="a_node2"><a xlink:href="a00050.html" target="_top" xlink:title=" ">
<polygon fill="white" stroke="black" points="709,-342 709,-361 749,-361 749,-342 709,-342"/>
<text text-anchor="middle" x="729" y="-349" font-family="Helvetica,sans-Serif" font-size="10.00">Bot.h</text>
</a>
</g>
</g>
<!-- Node1&#45;&gt;Node2 -->
<g id="edge1" class="edge">
<title>Node1&#45;&gt;Node2</title>
<path fill="none" stroke="midnightblue" d="M940.8,-406.15C905.13,-397.81 837.93,-381.86 781,-367 773.93,-365.16 766.35,-363.09 759.22,-361.11"/>
<polygon fill="midnightblue" stroke="midnightblue" points="759.78,-357.63 749.21,-358.3 757.89,-364.37 759.78,-357.63"/>
</g>
<!-- Node21 -->
<g id="node21" class="node">
<title>Node21</title>
<g id="a_node21"><a xlink:href="a00302.html" target="_top" xlink:title=" ">
<polygon fill="white" stroke="black" points="947.5,-336.5 947.5,-366.5 1078.5,-366.5 1078.5,-336.5 947.5,-336.5"/>
<text text-anchor="start" x="955.5" y="-354.5" font-family="Helvetica,sans-Serif" font-size="10.00">ContactDataType/IContact</text>
<text text-anchor="middle" x="1013" y="-343.5" font-family="Helvetica,sans-Serif" font-size="10.00">Data.h</text>
</a>
</g>
</g>
<!-- Node1&#45;&gt;Node21 -->
<g id="edge28" class="edge">
<title>Node1&#45;&gt;Node21</title>
<path fill="none" stroke="midnightblue" d="M972.73,-403.48C978.68,-395.94 987.62,-384.63 995.57,-374.57"/>
<polygon fill="midnightblue" stroke="midnightblue" points="998.47,-376.54 1001.92,-366.52 992.98,-372.2 998.47,-376.54"/>
</g>
<!-- Node23 -->
<g id="node23" class="node">
<title>Node23</title>
<g id="a_node23"><a xlink:title=" ">
<polygon fill="white" stroke="#bfbfbf" points="909,-224.5 909,-243.5 955,-243.5 955,-224.5 909,-224.5"/>
<text text-anchor="middle" x="932" y="-231.5" font-family="Helvetica,sans-Serif" font-size="10.00">atomic</text>
</a>
</g>
</g>
<!-- Node1&#45;&gt;Node23 -->
<g id="edge51" class="edge">
<title>Node1&#45;&gt;Node23</title>
<path fill="none" stroke="midnightblue" d="M958.73,-403.37C951.97,-394.77 942.31,-380.88 938,-367 925.91,-328.07 927.72,-279.58 929.95,-253.56"/>
<polygon fill="midnightblue" stroke="midnightblue" points="933.43,-253.89 930.92,-243.59 926.47,-253.21 933.43,-253.89"/>
</g>
<!-- Node25 -->
<g id="node25" class="node">
<title>Node25</title>
<g id="a_node25"><a xlink:href="a00128.html" target="_top" xlink:title=" ">
<polygon fill="white" stroke="black" points="635,-342 635,-361 687,-361 687,-342 635,-342"/>
<text text-anchor="middle" x="661" y="-349" font-family="Helvetica,sans-Serif" font-size="10.00">Friend.h</text>
</a>
</g>
</g>
<!-- Node1&#45;&gt;Node25 -->
<g id="edge34" class="edge">
<title>Node1&#45;&gt;Node25</title>
<path fill="none" stroke="midnightblue" d="M940.72,-409.33C893.06,-403.95 786.86,-390.27 700,-367 697.19,-366.25 694.29,-365.37 691.41,-364.43"/>
<polygon fill="midnightblue" stroke="midnightblue" points="692.41,-361.07 681.81,-361.06 690.09,-367.68 692.41,-361.07"/>
</g>
<!-- Node26 -->
<g id="node26" class="node">
<title>Node26</title>
<g id="a_node26"><a xlink:href="a00131.html" target="_top" xlink:title=" ">
<polygon fill="white" stroke="black" points="790.5,-342 790.5,-361 841.5,-361 841.5,-342 790.5,-342"/>
<text text-anchor="middle" x="816" y="-349" font-family="Helvetica,sans-Serif" font-size="10.00">Group.h</text>
</a>
</g>
</g>
<!-- Node1&#45;&gt;Node26 -->
<g id="edge36" class="edge">
<title>Node1&#45;&gt;Node26</title>
<path fill="none" stroke="midnightblue" d="M944.51,-403.48C918.89,-393.31 875.89,-376.26 846.76,-364.7"/>
<polygon fill="midnightblue" stroke="midnightblue" points="848.04,-361.44 837.45,-361.01 845.46,-367.95 848.04,-361.44"/>
</g>
<!-- Node27 -->
<g id="node27" class="node">
<title>Node27</title>
<g id="a_node27"><a xlink:href="a00350.html" target="_top" xlink:title=" ">
<polygon fill="white" stroke="black" points="1096.5,-342 1096.5,-361 1173.5,-361 1173.5,-342 1096.5,-342"/>
<text text-anchor="middle" x="1135" y="-349" font-family="Helvetica,sans-Serif" font-size="10.00">KtOperation.h</text>
</a>
</g>
</g>
<!-- Node1&#45;&gt;Node27 -->
<g id="edge40" class="edge">
<title>Node1&#45;&gt;Node27</title>
<path fill="none" stroke="midnightblue" d="M990.21,-403.48C1019.33,-393.22 1068.37,-375.96 1101.2,-364.4"/>
<polygon fill="midnightblue" stroke="midnightblue" points="1102.56,-367.63 1110.83,-361.01 1100.24,-361.03 1102.56,-367.63"/>
</g>
<!-- Node29 -->
<g id="node29" class="node">
<title>Node29</title>
<g id="a_node29"><a xlink:href="a00359.html" target="_top" xlink:title=" ">
<polygon fill="white" stroke="black" points="1192,-342 1192,-361 1272,-361 1272,-342 1192,-342"/>
<text text-anchor="middle" x="1232" y="-349" font-family="Helvetica,sans-Serif" font-size="10.00">LowLevelAPI.h</text>
</a>
</g>
</g>
<!-- Node1&#45;&gt;Node29 -->
<g id="edge42" class="edge">
<title>Node1&#45;&gt;Node29</title>
<path fill="none" stroke="midnightblue" d="M991.22,-407.48C1031.83,-400.03 1114.15,-384.29 1183,-367 1186.86,-366.03 1190.87,-364.96 1194.86,-363.84"/>
<polygon fill="midnightblue" stroke="midnightblue" points="1195.99,-367.16 1204.64,-361.03 1194.06,-360.43 1195.99,-367.16"/>
</g>
<!-- Node30 -->
<g id="node30" class="node">
<title>Node30</title>
<g id="a_node30"><a xlink:href="a00167.html" target="_top" xlink:title=" ">
<polygon fill="white" stroke="black" points="818,-168.5 818,-187.5 866,-187.5 866,-168.5 818,-168.5"/>
<text text-anchor="middle" x="842" y="-175.5" font-family="Helvetica,sans-Serif" font-size="10.00">Tools.h</text>
</a>
</g>
</g>
<!-- Node1&#45;&gt;Node30 -->
<g id="edge44" class="edge">
<title>Node1&#45;&gt;Node30</title>
<path fill="none" stroke="midnightblue" d="M957.36,-403.26C949.1,-394.59 936.65,-380.64 928,-367 891.06,-308.74 861.11,-231.99 848.48,-197.36"/>
<polygon fill="midnightblue" stroke="midnightblue" points="851.67,-195.89 845,-187.67 845.08,-198.26 851.67,-195.89"/>
</g>
<!-- Node31 -->
<g id="node31" class="node">
<title>Node31</title>
<g id="a_node31"><a xlink:title=" ">
<polygon fill="white" stroke="#bfbfbf" points="1290,-342 1290,-361 1342,-361 1342,-342 1290,-342"/>
<text text-anchor="middle" x="1316" y="-349" font-family="Helvetica,sans-Serif" font-size="10.00">memory</text>
</a>
</g>
</g>
<!-- Node1&#45;&gt;Node31 -->
<g id="edge52" class="edge">
<title>Node1&#45;&gt;Node31</title>
<path fill="none" stroke="midnightblue" d="M991.34,-410.54C1045.42,-406.96 1175.77,-395.82 1281,-367 1283.44,-366.33 1285.94,-365.54 1288.43,-364.67"/>
<polygon fill="midnightblue" stroke="midnightblue" points="1289.7,-367.92 1297.78,-361.06 1287.19,-361.39 1289.7,-367.92"/>
</g>
<!-- Node32 -->
<g id="node32" class="node">
<title>Node32</title>
<g id="a_node32"><a xlink:title=" ">
<polygon fill="white" stroke="#bfbfbf" points="1360,-342 1360,-361 1404,-361 1404,-342 1360,-342"/>
<text text-anchor="middle" x="1382" y="-349" font-family="Helvetica,sans-Serif" font-size="10.00">mutex</text>
</a>
</g>
</g>
<!-- Node1&#45;&gt;Node32 -->
<g id="edge53" class="edge">
<title>Node1&#45;&gt;Node32</title>
<path fill="none" stroke="midnightblue" d="M991.31,-411.82C1053.69,-410.79 1219.27,-404.44 1351,-367 1352.93,-366.45 1354.89,-365.8 1356.84,-365.07"/>
<polygon fill="midnightblue" stroke="midnightblue" points="1358.46,-368.18 1366.29,-361.04 1355.72,-361.74 1358.46,-368.18"/>
</g>
<!-- Node3 -->
<g id="node3" class="node">
<title>Node3</title>
<g id="a_node3"><a xlink:href="a00056.html" target="_top" xlink:title=" ">
<polygon fill="white" stroke="black" points="629.5,-280.5 629.5,-299.5 688.5,-299.5 688.5,-280.5 629.5,-280.5"/>
<text text-anchor="middle" x="659" y="-287.5" font-family="Helvetica,sans-Serif" font-size="10.00">Contact.h</text>
</a>
</g>
</g>
<!-- Node2&#45;&gt;Node3 -->
<g id="edge2" class="edge">
<title>Node2&#45;&gt;Node3</title>
<path fill="none" stroke="midnightblue" d="M718.97,-341.98C707.95,-332.61 690.04,-317.38 676.66,-306.01"/>
<polygon fill="midnightblue" stroke="midnightblue" points="678.9,-303.32 669.01,-299.51 674.36,-308.65 678.9,-303.32"/>
</g>
<!-- Node9 -->
<g id="node9" class="node">
<title>Node9</title>
<g id="a_node9"><a xlink:href="a00158.html" target="_top" xlink:title=" ">
<polygon fill="white" stroke="black" points="848.5,-56.5 848.5,-75.5 911.5,-75.5 911.5,-56.5 848.5,-56.5"/>
<text text-anchor="middle" x="880" y="-63.5" font-family="Helvetica,sans-Serif" font-size="10.00">SdkType.h</text>
</a>
</g>
</g>
<!-- Node2&#45;&gt;Node9 -->
<g id="edge25" class="edge">
<title>Node2&#45;&gt;Node9</title>
<path fill="none" stroke="midnightblue" d="M741.01,-341.98C770.44,-320.3 845.83,-259.66 875,-188 888.82,-154.04 886.14,-110.2 883.02,-85.7"/>
<polygon fill="midnightblue" stroke="midnightblue" points="886.45,-85.03 881.56,-75.63 879.53,-86.03 886.45,-85.03"/>
</g>
<!-- Node10 -->
<g id="node10" class="node">
<title>Node10</title>
<g id="a_node10"><a xlink:title=" ">
<polygon fill="white" stroke="#bfbfbf" points="79.5,-56.5 79.5,-75.5 120.5,-75.5 120.5,-56.5 79.5,-56.5"/>
<text text-anchor="middle" x="100" y="-63.5" font-family="Helvetica,sans-Serif" font-size="10.00">string</text>
</a>
</g>
</g>
<!-- Node2&#45;&gt;Node10 -->
<g id="edge26" class="edge">
<title>Node2&#45;&gt;Node10</title>
<path fill="none" stroke="midnightblue" d="M711.86,-341.92C706.85,-339.7 701.29,-337.52 696,-336 545.76,-292.95 0,-391.29 0,-235 0,-235 0,-235 0,-177 0,-132.98 44.38,-98.8 74.01,-80.87"/>
<polygon fill="midnightblue" stroke="midnightblue" points="76.14,-83.68 83.04,-75.64 72.63,-77.63 76.14,-83.68"/>
</g>
<!-- Node20 -->
<g id="node20" class="node">
<title>Node20</title>
<g id="a_node20"><a xlink:title=" ">
<polygon fill="white" stroke="#bfbfbf" points="772,-112.5 772,-131.5 814,-131.5 814,-112.5 772,-112.5"/>
<text text-anchor="middle" x="793" y="-119.5" font-family="Helvetica,sans-Serif" font-size="10.00">vector</text>
</a>
</g>
</g>
<!-- Node2&#45;&gt;Node20 -->
<g id="edge27" class="edge">
<title>Node2&#45;&gt;Node20</title>
<path fill="none" stroke="midnightblue" d="M730.07,-341.78C732.75,-321.06 740.42,-267.37 753,-224 761.64,-194.21 775.68,-161.02 784.63,-141.09"/>
<polygon fill="midnightblue" stroke="midnightblue" points="787.93,-142.27 788.89,-131.72 781.56,-139.37 787.93,-142.27"/>
</g>
<!-- Node4 -->
<g id="node4" class="node">
<title>Node4</title>
<g id="a_node4"><a xlink:href="a00143.html" target="_top" xlink:title=" ">
<polygon fill="white" stroke="black" points="611.5,-224.5 611.5,-243.5 700.5,-243.5 700.5,-224.5 611.5,-224.5"/>
<text text-anchor="middle" x="656" y="-231.5" font-family="Helvetica,sans-Serif" font-size="10.00">MessageChain.h</text>
</a>
</g>
</g>
<!-- Node3&#45;&gt;Node4 -->
<g id="edge3" class="edge">
<title>Node3&#45;&gt;Node4</title>
<path fill="none" stroke="midnightblue" d="M658.5,-280.08C658.11,-273.01 657.55,-262.86 657.05,-253.99"/>
<polygon fill="midnightblue" stroke="midnightblue" points="660.54,-253.54 656.49,-243.75 653.55,-253.93 660.54,-253.54"/>
</g>
<!-- Node3&#45;&gt;Node10 -->
<g id="edge24" class="edge">
<title>Node3&#45;&gt;Node10</title>
<path fill="none" stroke="midnightblue" d="M629.44,-285.97C518.46,-273.95 129.31,-225.59 57,-132 44.32,-115.59 62.24,-95.53 78.66,-82.07"/>
<polygon fill="midnightblue" stroke="midnightblue" points="81.16,-84.57 86.94,-75.69 76.89,-79.02 81.16,-84.57"/>
</g>
<!-- Node19 -->
<g id="node19" class="node">
<title>Node19</title>
<g id="a_node19"><a xlink:title=" ">
<polygon fill="white" stroke="#bfbfbf" points="540.5,-224.5 540.5,-243.5 593.5,-243.5 593.5,-224.5 540.5,-224.5"/>
<text text-anchor="middle" x="567" y="-231.5" font-family="Helvetica,sans-Serif" font-size="10.00">json.hpp</text>
</a>
</g>
</g>
<!-- Node3&#45;&gt;Node19 -->
<g id="edge23" class="edge">
<title>Node3&#45;&gt;Node19</title>
<path fill="none" stroke="midnightblue" d="M644.22,-280.32C629.73,-271.82 607.43,-258.73 590.51,-248.8"/>
<polygon fill="midnightblue" stroke="midnightblue" points="592.14,-245.7 581.74,-243.65 588.6,-251.74 592.14,-245.7"/>
</g>
<!-- Node5 -->
<g id="node5" class="node">
<title>Node5</title>
<g id="a_node5"><a xlink:href="a00044.html" target="_top" xlink:title=" ">
<polygon fill="white" stroke="black" points="456,-56.5 456,-75.5 548,-75.5 548,-56.5 456,-56.5"/>
<text text-anchor="middle" x="502" y="-63.5" font-family="Helvetica,sans-Serif" font-size="10.00">MiraiCPMacros.h</text>
</a>
</g>
</g>
<!-- Node4&#45;&gt;Node5 -->
<g id="edge4" class="edge">
<title>Node4&#45;&gt;Node5</title>
<path fill="none" stroke="midnightblue" d="M611.13,-225.03C495.36,-204.26 194.69,-148.91 181,-132 175.41,-125.09 175.17,-118.71 181,-112 214.64,-73.31 363.01,-66.9 445.75,-66.42"/>
<polygon fill="midnightblue" stroke="midnightblue" points="446,-69.92 455.99,-66.39 445.98,-62.92 446,-69.92"/>
</g>
<!-- Node7 -->
<g id="node7" class="node">
<title>Node7</title>
<g id="a_node7"><a xlink:href="a00161.html" target="_top" xlink:title=" ">
<polygon fill="white" stroke="black" points="524,-168.5 524,-187.5 616,-187.5 616,-168.5 524,-168.5"/>
<text text-anchor="middle" x="570" y="-175.5" font-family="Helvetica,sans-Serif" font-size="10.00">SingleMessage.h</text>
</a>
</g>
</g>
<!-- Node4&#45;&gt;Node7 -->
<g id="edge6" class="edge">
<title>Node4&#45;&gt;Node7</title>
<path fill="none" stroke="midnightblue" d="M642.18,-224.32C628.77,-215.9 608.18,-202.97 592.41,-193.07"/>
<polygon fill="midnightblue" stroke="midnightblue" points="594.11,-190.01 583.78,-187.65 590.39,-195.94 594.11,-190.01"/>
</g>
<!-- Node18 -->
<g id="node18" class="node">
<title>Node18</title>
<g id="a_node18"><a xlink:title=" ">
<polygon fill="white" stroke="#bfbfbf" points="634,-168.5 634,-187.5 692,-187.5 692,-168.5 634,-168.5"/>
<text text-anchor="middle" x="663" y="-175.5" font-family="Helvetica,sans-Serif" font-size="10.00">functional</text>
</a>
</g>
</g>
<!-- Node4&#45;&gt;Node18 -->
<g id="edge22" class="edge">
<title>Node4&#45;&gt;Node18</title>
<path fill="none" stroke="midnightblue" d="M657.16,-224.08C658.08,-216.93 659.42,-206.64 660.58,-197.69"/>
<polygon fill="midnightblue" stroke="midnightblue" points="664.05,-198.12 661.87,-187.75 657.11,-197.22 664.05,-198.12"/>
</g>
<!-- Node6 -->
<g id="node6" class="node">
<title>Node6</title>
<g id="a_node6"><a xlink:title=" ">
<polygon fill="white" stroke="#bfbfbf" points="477.5,-0.5 477.5,-19.5 526.5,-19.5 526.5,-0.5 477.5,-0.5"/>
<text text-anchor="middle" x="502" y="-7.5" font-family="Helvetica,sans-Serif" font-size="10.00">cassert</text>
</a>
</g>
</g>
<!-- Node5&#45;&gt;Node6 -->
<g id="edge5" class="edge">
<title>Node5&#45;&gt;Node6</title>
<path fill="none" stroke="midnightblue" d="M502,-56.08C502,-49.01 502,-38.86 502,-29.99"/>
<polygon fill="midnightblue" stroke="midnightblue" points="505.5,-29.75 502,-19.75 498.5,-29.75 505.5,-29.75"/>
</g>
<!-- Node7&#45;&gt;Node5 -->
<g id="edge7" class="edge">
<title>Node7&#45;&gt;Node5</title>
<path fill="none" stroke="midnightblue" d="M570.26,-168.34C570.25,-155.22 568.71,-129.93 558,-112 550.48,-99.41 538.06,-88.89 526.82,-81.2"/>
<polygon fill="midnightblue" stroke="midnightblue" points="528.48,-78.11 518.18,-75.65 524.7,-84 528.48,-78.11"/>
</g>
<!-- Node8 -->
<g id="node8" class="node">
<title>Node8</title>
<g id="a_node8"><a xlink:href="a00146.html" target="_top" xlink:title=" ">
<polygon fill="white" stroke="black" points="454.5,-112.5 454.5,-131.5 549.5,-131.5 549.5,-112.5 454.5,-112.5"/>
<text text-anchor="middle" x="502" y="-119.5" font-family="Helvetica,sans-Serif" font-size="10.00">MessageSource.h</text>
</a>
</g>
</g>
<!-- Node7&#45;&gt;Node8 -->
<g id="edge8" class="edge">
<title>Node7&#45;&gt;Node8</title>
<path fill="none" stroke="midnightblue" d="M559.07,-168.32C548.83,-160.18 533.28,-147.84 521,-138.09"/>
<polygon fill="midnightblue" stroke="midnightblue" points="523.13,-135.31 513.12,-131.83 518.78,-140.79 523.13,-135.31"/>
</g>
<!-- Node7&#45;&gt;Node9 -->
<g id="edge15" class="edge">
<title>Node7&#45;&gt;Node9</title>
<path fill="none" stroke="midnightblue" d="M576.03,-168.17C586.31,-153.86 608.72,-125.8 635,-112 700.24,-77.74 787.16,-69.15 838.01,-67.24"/>
<polygon fill="midnightblue" stroke="midnightblue" points="838.4,-70.73 848.29,-66.92 838.19,-63.73 838.4,-70.73"/>
</g>
<!-- Node11 -->
<g id="node11" class="node">
<title>Node11</title>
<g id="a_node11"><a xlink:href="a00149.html" target="_top" xlink:title=" ">
<polygon fill="white" stroke="black" points="66,-112.5 66,-131.5 134,-131.5 134,-112.5 66,-112.5"/>
<text text-anchor="middle" x="100" y="-119.5" font-family="Helvetica,sans-Serif" font-size="10.00">MiraiCode.h</text>
</a>
</g>
</g>
<!-- Node7&#45;&gt;Node11 -->
<g id="edge12" class="edge">
<title>Node7&#45;&gt;Node11</title>
<path fill="none" stroke="midnightblue" d="M523.65,-171.67C432.98,-161.26 233.27,-138.31 144.29,-128.09"/>
<polygon fill="midnightblue" stroke="midnightblue" points="144.59,-124.6 134.25,-126.94 143.79,-131.55 144.59,-124.6"/>
</g>
<!-- Node12 -->
<g id="node12" class="node">
<title>Node12</title>
<g id="a_node12"><a xlink:title=" ">
<polygon fill="white" stroke="#bfbfbf" points="190,-112.5 190,-131.5 228,-131.5 228,-112.5 190,-112.5"/>
<text text-anchor="middle" x="209" y="-119.5" font-family="Helvetica,sans-Serif" font-size="10.00">array</text>
</a>
</g>
</g>
<!-- Node7&#45;&gt;Node12 -->
<g id="edge16" class="edge">
<title>Node7&#45;&gt;Node12</title>
<path fill="none" stroke="midnightblue" d="M523.76,-173.35C460.99,-167.83 345.27,-155.63 238.16,-131.91"/>
<polygon fill="midnightblue" stroke="midnightblue" points="238.68,-128.44 228.16,-129.65 237.14,-135.26 238.68,-128.44"/>
</g>
<!-- Node13 -->
<g id="node13" class="node">
<title>Node13</title>
<g id="a_node13"><a xlink:title=" ">
<polygon fill="white" stroke="#bfbfbf" points="946.5,-112.5 946.5,-131.5 1019.5,-131.5 1019.5,-112.5 946.5,-112.5"/>
<text text-anchor="middle" x="983" y="-119.5" font-family="Helvetica,sans-Serif" font-size="10.00">json_fwd.hpp</text>
</a>
</g>
</g>
<!-- Node7&#45;&gt;Node13 -->
<g id="edge17" class="edge">
<title>Node7&#45;&gt;Node13</title>
<path fill="none" stroke="midnightblue" d="M616.19,-169.31C619.17,-168.86 622.13,-168.42 625,-168 736.45,-151.88 867.91,-136.21 936.32,-128.31"/>
<polygon fill="midnightblue" stroke="midnightblue" points="936.81,-131.77 946.35,-127.15 936.01,-124.82 936.81,-131.77"/>
</g>
<!-- Node14 -->
<g id="node14" class="node">
<title>Node14</title>
<g id="a_node14"><a xlink:title=" ">
<polygon fill="white" stroke="#bfbfbf" points="246,-112.5 246,-131.5 296,-131.5 296,-112.5 246,-112.5"/>
<text text-anchor="middle" x="271" y="-119.5" font-family="Helvetica,sans-Serif" font-size="10.00">optional</text>
</a>
</g>
</g>
<!-- Node7&#45;&gt;Node14 -->
<g id="edge18" class="edge">
<title>Node7&#45;&gt;Node14</title>
<path fill="none" stroke="midnightblue" d="M523.8,-170.45C472.8,-162.94 388.1,-149.6 306.17,-132.1"/>
<polygon fill="midnightblue" stroke="midnightblue" points="306.7,-128.63 296.19,-129.94 305.22,-135.47 306.7,-128.63"/>
</g>
<!-- Node15 -->
<g id="node15" class="node">
<title>Node15</title>
<g id="a_node15"><a xlink:title=" ">
<polygon fill="white" stroke="#bfbfbf" points="702,-112.5 702,-131.5 754,-131.5 754,-112.5 702,-112.5"/>
<text text-anchor="middle" x="728" y="-119.5" font-family="Helvetica,sans-Serif" font-size="10.00">sstream</text>
</a>
</g>
</g>
<!-- Node7&#45;&gt;Node15 -->
<g id="edge19" class="edge">
<title>Node7&#45;&gt;Node15</title>
<path fill="none" stroke="midnightblue" d="M595.04,-168.44C621.62,-159.36 663.81,-144.94 693.52,-134.78"/>
<polygon fill="midnightblue" stroke="midnightblue" points="694.75,-138.06 703.08,-131.52 692.49,-131.44 694.75,-138.06"/>
</g>
<!-- Node16 -->
<g id="node16" class="node">
<title>Node16</title>
<g id="a_node16"><a xlink:title=" ">
<polygon fill="white" stroke="#bfbfbf" points="314.5,-112.5 314.5,-131.5 397.5,-131.5 397.5,-112.5 314.5,-112.5"/>
<text text-anchor="middle" x="356" y="-119.5" font-family="Helvetica,sans-Serif" font-size="10.00">unordered_map</text>
</a>
</g>
</g>
<!-- Node7&#45;&gt;Node16 -->
<g id="edge20" class="edge">
<title>Node7&#45;&gt;Node16</title>
<path fill="none" stroke="midnightblue" d="M536.09,-168.44C499.15,-159.12 439.95,-144.18 399.58,-134"/>
<polygon fill="midnightblue" stroke="midnightblue" points="400.3,-130.57 389.75,-131.52 398.59,-137.36 400.3,-130.57"/>
</g>
<!-- Node17 -->
<g id="node17" class="node">
<title>Node17</title>
<g id="a_node17"><a xlink:title=" ">
<polygon fill="white" stroke="#bfbfbf" points="644,-112.5 644,-131.5 684,-131.5 684,-112.5 644,-112.5"/>
<text text-anchor="middle" x="664" y="-119.5" font-family="Helvetica,sans-Serif" font-size="10.00">utility</text>
</a>
</g>
</g>
<!-- Node7&#45;&gt;Node17 -->
<g id="edge21" class="edge">
<title>Node7&#45;&gt;Node17</title>
<path fill="none" stroke="midnightblue" d="M585.1,-168.32C599.9,-159.82 622.69,-146.73 639.98,-136.8"/>
<polygon fill="midnightblue" stroke="midnightblue" points="642.01,-139.67 648.93,-131.65 638.52,-133.6 642.01,-139.67"/>
</g>
<!-- Node8&#45;&gt;Node5 -->
<g id="edge9" class="edge">
<title>Node8&#45;&gt;Node5</title>
<path fill="none" stroke="midnightblue" d="M502,-112.08C502,-105.01 502,-94.86 502,-85.99"/>
<polygon fill="midnightblue" stroke="midnightblue" points="505.5,-85.75 502,-75.75 498.5,-85.75 505.5,-85.75"/>
</g>
<!-- Node8&#45;&gt;Node9 -->
<g id="edge10" class="edge">
<title>Node8&#45;&gt;Node9</title>
<path fill="none" stroke="midnightblue" d="M549.87,-114.16C624.51,-103.5 767.38,-83.09 838.15,-72.98"/>
<polygon fill="midnightblue" stroke="midnightblue" points="839.05,-76.39 848.45,-71.51 838.06,-69.46 839.05,-76.39"/>
</g>
<!-- Node8&#45;&gt;Node10 -->
<g id="edge11" class="edge">
<title>Node8&#45;&gt;Node10</title>
<path fill="none" stroke="midnightblue" d="M454.28,-114.01C449.46,-113.32 444.63,-112.64 440,-112 326.18,-96.21 190.75,-78.65 130.97,-70.97"/>
<polygon fill="midnightblue" stroke="midnightblue" points="131.07,-67.45 120.71,-69.65 130.18,-74.39 131.07,-67.45"/>
</g>
<!-- Node11&#45;&gt;Node5 -->
<g id="edge14" class="edge">
<title>Node11&#45;&gt;Node5</title>
<path fill="none" stroke="midnightblue" d="M134.05,-114.36C138.73,-113.52 143.48,-112.71 148,-112 252.64,-95.55 375.41,-81 445.42,-73.15"/>
<polygon fill="midnightblue" stroke="midnightblue" points="446.22,-76.58 455.77,-72 445.44,-69.63 446.22,-76.58"/>
</g>
<!-- Node11&#45;&gt;Node10 -->
<g id="edge13" class="edge">
<title>Node11&#45;&gt;Node10</title>
<path fill="none" stroke="midnightblue" d="M100,-112.08C100,-105.01 100,-94.86 100,-85.99"/>
<polygon fill="midnightblue" stroke="midnightblue" points="103.5,-85.75 100,-75.75 96.5,-85.75 103.5,-85.75"/>
</g>
<!-- Node21&#45;&gt;Node9 -->
<g id="edge33" class="edge">
<title>Node21&#45;&gt;Node9</title>
<path fill="none" stroke="midnightblue" d="M1039.24,-336.35C1070.05,-317.6 1117,-281.41 1117,-235 1117,-235 1117,-235 1117,-177 1117,-92 990.02,-72.5 921.96,-68.15"/>
<polygon fill="midnightblue" stroke="midnightblue" points="922.14,-64.66 911.96,-67.6 921.75,-71.65 922.14,-64.66"/>
</g>
<!-- Node22 -->
<g id="node22" class="node">
<title>Node22</title>
<g id="a_node22"><a xlink:href="a00305.html" target="_top" xlink:title=" ">
<polygon fill="white" stroke="black" points="964,-280.5 964,-299.5 1032,-299.5 1032,-280.5 964,-280.5"/>
<text text-anchor="middle" x="998" y="-287.5" font-family="Helvetica,sans-Serif" font-size="10.00">IMiraiData.h</text>
</a>
</g>
</g>
<!-- Node21&#45;&gt;Node22 -->
<g id="edge29" class="edge">
<title>Node21&#45;&gt;Node22</title>
<path fill="none" stroke="midnightblue" d="M1009.45,-336.4C1007.42,-328.38 1004.87,-318.23 1002.68,-309.57"/>
<polygon fill="midnightblue" stroke="midnightblue" points="1006.02,-308.5 1000.18,-299.66 999.23,-310.21 1006.02,-308.5"/>
</g>
<!-- Node22&#45;&gt;Node13 -->
<g id="edge30" class="edge">
<title>Node22&#45;&gt;Node13</title>
<path fill="none" stroke="midnightblue" d="M997.19,-280.08C994.83,-253.95 987.9,-177.21 984.68,-141.58"/>
<polygon fill="midnightblue" stroke="midnightblue" points="988.16,-141.21 983.77,-131.57 981.19,-141.84 988.16,-141.21"/>
</g>
<!-- Node22&#45;&gt;Node23 -->
<g id="edge31" class="edge">
<title>Node22&#45;&gt;Node23</title>
<path fill="none" stroke="midnightblue" d="M987.4,-280.32C977.54,-272.26 962.65,-260.08 950.78,-250.37"/>
<polygon fill="midnightblue" stroke="midnightblue" points="952.75,-247.46 942.8,-243.83 948.32,-252.88 952.75,-247.46"/>
</g>
<!-- Node24 -->
<g id="node24" class="node">
<title>Node24</title>
<g id="a_node24"><a xlink:title=" ">
<polygon fill="white" stroke="#bfbfbf" points="1011,-224.5 1011,-243.5 1089,-243.5 1089,-224.5 1011,-224.5"/>
<text text-anchor="middle" x="1050" y="-231.5" font-family="Helvetica,sans-Serif" font-size="10.00">shared_mutex</text>
</a>
</g>
</g>
<!-- Node22&#45;&gt;Node24 -->
<g id="edge32" class="edge">
<title>Node22&#45;&gt;Node24</title>
<path fill="none" stroke="midnightblue" d="M1006.59,-280.08C1014.16,-272.22 1025.38,-260.57 1034.51,-251.08"/>
<polygon fill="midnightblue" stroke="midnightblue" points="1037.16,-253.38 1041.57,-243.75 1032.12,-248.53 1037.16,-253.38"/>
</g>
<!-- Node25&#45;&gt;Node3 -->
<g id="edge35" class="edge">
<title>Node25&#45;&gt;Node3</title>
<path fill="none" stroke="midnightblue" d="M660.71,-341.98C660.43,-333.58 659.99,-320.48 659.63,-309.66"/>
<polygon fill="midnightblue" stroke="midnightblue" points="663.12,-309.39 659.29,-299.51 656.12,-309.62 663.12,-309.39"/>
</g>
<!-- Node26&#45;&gt;Node3 -->
<g id="edge37" class="edge">
<title>Node26&#45;&gt;Node3</title>
<path fill="none" stroke="midnightblue" d="M793.51,-341.98C766.69,-331.81 721.68,-314.76 691.19,-303.2"/>
<polygon fill="midnightblue" stroke="midnightblue" points="692.04,-299.78 681.45,-299.51 689.56,-306.33 692.04,-299.78"/>
</g>
<!-- Node26&#45;&gt;Node13 -->
<g id="edge38" class="edge">
<title>Node26&#45;&gt;Node13</title>
<path fill="none" stroke="midnightblue" d="M821.41,-341.7C834.34,-320.82 868.32,-266.81 900,-224 922.81,-193.17 951.68,-159.03 968.66,-139.39"/>
<polygon fill="midnightblue" stroke="midnightblue" points="971.44,-141.52 975.36,-131.67 966.16,-136.93 971.44,-141.52"/>
</g>
<!-- Node26&#45;&gt;Node17 -->
<g id="edge39" class="edge">
<title>Node26&#45;&gt;Node17</title>
<path fill="none" stroke="midnightblue" d="M811.09,-341.88C795.84,-315.29 747.47,-232.38 701,-168 693.97,-158.26 685.5,-147.87 678.44,-139.54"/>
<polygon fill="midnightblue" stroke="midnightblue" points="680.88,-137.01 671.71,-131.7 675.57,-141.57 680.88,-137.01"/>
</g>
<!-- Node28 -->
<g id="node28" class="node">
<title>Node28</title>
<g id="a_node28"><a xlink:title=" ">
<polygon fill="white" stroke="#bfbfbf" points="1159,-280.5 1159,-299.5 1277,-299.5 1277,-280.5 1159,-280.5"/>
<text text-anchor="middle" x="1218" y="-287.5" font-family="Helvetica,sans-Serif" font-size="10.00">nlohmann/json_fwd.hpp</text>
</a>
</g>
</g>
<!-- Node27&#45;&gt;Node28 -->
<g id="edge41" class="edge">
<title>Node27&#45;&gt;Node28</title>
<path fill="none" stroke="midnightblue" d="M1146.89,-341.98C1160.2,-332.43 1182,-316.81 1197.96,-305.37"/>
<polygon fill="midnightblue" stroke="midnightblue" points="1200.04,-308.18 1206.13,-299.51 1195.96,-302.49 1200.04,-308.18"/>
</g>
<!-- Node29&#45;&gt;Node28 -->
<g id="edge43" class="edge">
<title>Node29&#45;&gt;Node28</title>
<path fill="none" stroke="midnightblue" d="M1229.99,-341.98C1228,-333.49 1224.87,-320.2 1222.31,-309.32"/>
<polygon fill="midnightblue" stroke="midnightblue" points="1225.7,-308.44 1220,-299.51 1218.89,-310.04 1225.7,-308.44"/>
</g>
<!-- Node30&#45;&gt;Node5 -->
<g id="edge45" class="edge">
<title>Node30&#45;&gt;Node5</title>
<path fill="none" stroke="midnightblue" d="M842.23,-168.29C842.08,-154.13 839.54,-126.3 823,-112 784.42,-78.65 639.56,-69.97 558.26,-67.74"/>
<polygon fill="midnightblue" stroke="midnightblue" points="558.27,-64.24 548.19,-67.49 558.1,-71.24 558.27,-64.24"/>
</g>
<!-- Node30&#45;&gt;Node9 -->
<g id="edge46" class="edge">
<title>Node30&#45;&gt;Node9</title>
<path fill="none" stroke="midnightblue" d="M844.98,-168.37C851.14,-150.54 865.39,-109.3 873.69,-85.27"/>
<polygon fill="midnightblue" stroke="midnightblue" points="877.07,-86.19 877.03,-75.59 870.46,-83.9 877.07,-86.19"/>
</g>
<!-- Node30&#45;&gt;Node10 -->
<g id="edge49" class="edge">
<title>Node30&#45;&gt;Node10</title>
<path fill="none" stroke="midnightblue" d="M817.88,-175.41C743.06,-170.29 515.63,-153.34 445,-132 426.35,-126.37 424.55,-117.94 406,-112 308.68,-80.83 186.94,-71.14 130.88,-68.21"/>
<polygon fill="midnightblue" stroke="midnightblue" points="130.73,-64.7 120.57,-67.71 130.39,-71.69 130.73,-64.7"/>
</g>
<!-- Node30&#45;&gt;Node13 -->
<g id="edge47" class="edge">
<title>Node30&#45;&gt;Node13</title>
<path fill="none" stroke="midnightblue" d="M864.34,-168.44C887.75,-159.48 924.74,-145.31 951.19,-135.18"/>
<polygon fill="midnightblue" stroke="midnightblue" points="952.68,-138.36 960.76,-131.52 950.17,-131.82 952.68,-138.36"/>
</g>
<!-- Node30&#45;&gt;Node15 -->
<g id="edge48" class="edge">
<title>Node30&#45;&gt;Node15</title>
<path fill="none" stroke="midnightblue" d="M823.94,-168.44C805.43,-159.68 776.42,-145.94 755.14,-135.86"/>
<polygon fill="midnightblue" stroke="midnightblue" points="756.51,-132.63 745.98,-131.52 753.52,-138.96 756.51,-132.63"/>
</g>
<!-- Node30&#45;&gt;Node20 -->
<g id="edge50" class="edge">
<title>Node30&#45;&gt;Node20</title>
<path fill="none" stroke="midnightblue" d="M833.91,-168.08C826.84,-160.3 816.41,-148.8 807.85,-139.37"/>
<polygon fill="midnightblue" stroke="midnightblue" points="810.25,-136.8 800.94,-131.75 805.07,-141.51 810.25,-136.8"/>
</g>
</g>
</svg>
