<?xml version="1.0" encoding="UTF-8" standalone="no"?>
<!DOCTYPE svg PUBLIC "-//W3C//DTD SVG 1.1//EN"
 "http://www.w3.org/Graphics/SVG/1.1/DTD/svg11.dtd">
<!-- Generated by graphviz version 2.50.0 (20211204.2007)
 -->
<!-- Title: Event.cpp Pages: 1 -->
<svg width="1358pt" height="700pt"
 viewBox="0.00 0.00 1358.00 700.00" xmlns="http://www.w3.org/2000/svg" xmlns:xlink="http://www.w3.org/1999/xlink">
<g id="graph0" class="graph" transform="scale(1 1) rotate(0) translate(4 696)">
<title>Event.cpp</title>
<polygon fill="white" stroke="transparent" points="-4,4 -4,-696 1354,-696 1354,4 -4,4"/>
<!-- Node1 -->
<g id="node1" class="node">
<title>Node1</title>
<g id="a_node1"><a xlink:title=" ">
<polygon fill="#bfbfbf" stroke="black" points="862.5,-672.5 862.5,-691.5 921.5,-691.5 921.5,-672.5 862.5,-672.5"/>
<text text-anchor="middle" x="892" y="-679.5" font-family="Helvetica,sans-Serif" font-size="10.00">Event.cpp</text>
</a>
</g>
</g>
<!-- Node2 -->
<g id="node2" class="node">
<title>Node2</title>
<g id="a_node2"><a xlink:href="a00083.html" target="_top" xlink:title=" ">
<polygon fill="white" stroke="black" points="407.5,-616.5 407.5,-635.5 456.5,-635.5 456.5,-616.5 407.5,-616.5"/>
<text text-anchor="middle" x="432" y="-623.5" font-family="Helvetica,sans-Serif" font-size="10.00">Event.h</text>
</a>
</g>
</g>
<!-- Node1&#45;&gt;Node2 -->
<g id="edge1" class="edge">
<title>Node1&#45;&gt;Node2</title>
<path fill="none" stroke="midnightblue" d="M862.17,-677.5C780.57,-667.92 553.91,-641.31 466.76,-631.08"/>
<polygon fill="midnightblue" stroke="midnightblue" points="466.94,-627.58 456.6,-629.89 466.13,-634.53 466.94,-627.58"/>
</g>
<!-- Node9 -->
<g id="node9" class="node">
<title>Node9</title>
<g id="a_node9"><a xlink:href="a00101.html" target="_top" xlink:title=" ">
<polygon fill="white" stroke="black" points="378.5,-392.5 378.5,-411.5 455.5,-411.5 455.5,-392.5 378.5,-392.5"/>
<text text-anchor="middle" x="417" y="-399.5" font-family="Helvetica,sans-Serif" font-size="10.00">KtOperation.h</text>
</a>
</g>
</g>
<!-- Node1&#45;&gt;Node9 -->
<g id="edge77" class="edge">
<title>Node1&#45;&gt;Node9</title>
<path fill="none" stroke="midnightblue" d="M862.06,-678.92C797.93,-673.16 644.87,-652.25 543,-580 482.79,-537.3 441.01,-456.46 424.66,-420.74"/>
<polygon fill="midnightblue" stroke="midnightblue" points="427.84,-419.26 420.57,-411.56 421.44,-422.11 427.84,-419.26"/>
</g>
<!-- Node14 -->
<g id="node14" class="node">
<title>Node14</title>
<g id="a_node14"><a xlink:href="a00086.html" target="_top" xlink:title=" ">
<polygon fill="white" stroke="black" points="1053,-392.5 1053,-411.5 1121,-411.5 1121,-392.5 1053,-392.5"/>
<text text-anchor="middle" x="1087" y="-399.5" font-family="Helvetica,sans-Serif" font-size="10.00">Exception.h</text>
</a>
</g>
</g>
<!-- Node1&#45;&gt;Node14 -->
<g id="edge76" class="edge">
<title>Node1&#45;&gt;Node14</title>
<path fill="none" stroke="midnightblue" d="M921.62,-676.83C998.41,-665.2 1198,-629.36 1198,-571 1198,-571 1198,-571 1198,-513 1198,-466.82 1148.94,-433.43 1116.05,-416.23"/>
<polygon fill="midnightblue" stroke="midnightblue" points="1117.35,-412.96 1106.84,-411.61 1114.21,-419.22 1117.35,-412.96"/>
</g>
<!-- Node39 -->
<g id="node39" class="node">
<title>Node39</title>
<g id="a_node39"><a xlink:href="a00074.html" target="_top" xlink:title=" ">
<polygon fill="white" stroke="black" points="857.5,-448.5 857.5,-467.5 926.5,-467.5 926.5,-448.5 857.5,-448.5"/>
<text text-anchor="middle" x="892" y="-455.5" font-family="Helvetica,sans-Serif" font-size="10.00">Command.h</text>
</a>
</g>
</g>
<!-- Node1&#45;&gt;Node39 -->
<g id="edge69" class="edge">
<title>Node1&#45;&gt;Node39</title>
<path fill="none" stroke="midnightblue" d="M892,-672.3C892,-639.63 892,-523.87 892,-477.96"/>
<polygon fill="midnightblue" stroke="midnightblue" points="895.5,-477.88 892,-467.88 888.5,-477.88 895.5,-477.88"/>
</g>
<!-- Node40 -->
<g id="node40" class="node">
<title>Node40</title>
<g id="a_node40"><a xlink:href="a00140.html" target="_top" xlink:title=" ">
<polygon fill="white" stroke="black" points="1122,-280.5 1122,-299.5 1170,-299.5 1170,-280.5 1122,-280.5"/>
<text text-anchor="middle" x="1146" y="-287.5" font-family="Helvetica,sans-Serif" font-size="10.00">Tools.h</text>
</a>
</g>
</g>
<!-- Node1&#45;&gt;Node40 -->
<g id="edge78" class="edge">
<title>Node1&#45;&gt;Node40</title>
<path fill="none" stroke="midnightblue" d="M921.53,-679.64C1017.13,-674.44 1312,-651.84 1312,-571 1312,-571 1312,-571 1312,-401 1312,-338.22 1228.48,-309.16 1179.93,-297.57"/>
<polygon fill="midnightblue" stroke="midnightblue" points="1180.66,-294.15 1170.14,-295.35 1179.12,-300.97 1180.66,-294.15"/>
</g>
<!-- Node3 -->
<g id="node3" class="node">
<title>Node3</title>
<g id="a_node3"><a xlink:href="a00071.html" target="_top" xlink:title=" ">
<polygon fill="white" stroke="black" points="552,-560.5 552,-579.5 592,-579.5 592,-560.5 552,-560.5"/>
<text text-anchor="middle" x="572" y="-567.5" font-family="Helvetica,sans-Serif" font-size="10.00">Bot.h</text>
</a>
</g>
</g>
<!-- Node2&#45;&gt;Node3 -->
<g id="edge2" class="edge">
<title>Node2&#45;&gt;Node3</title>
<path fill="none" stroke="midnightblue" d="M454.18,-616.44C477.98,-607.27 515.88,-592.64 542.25,-582.47"/>
<polygon fill="midnightblue" stroke="midnightblue" points="543.67,-585.68 551.74,-578.82 541.15,-579.15 543.67,-585.68"/>
</g>
<!-- Node16 -->
<g id="node16" class="node">
<title>Node16</title>
<g id="a_node16"><a xlink:href="a00107.html" target="_top" xlink:title=" ">
<polygon fill="white" stroke="black" points="865,-280.5 865,-299.5 919,-299.5 919,-280.5 865,-280.5"/>
<text text-anchor="middle" x="892" y="-287.5" font-family="Helvetica,sans-Serif" font-size="10.00">Logger.h</text>
</a>
</g>
</g>
<!-- Node2&#45;&gt;Node16 -->
<g id="edge65" class="edge">
<title>Node2&#45;&gt;Node16</title>
<path fill="none" stroke="midnightblue" d="M446.2,-616.29C467.15,-603.53 507.68,-579.19 543,-560 622.99,-516.53 652.57,-521.81 726,-468 782.03,-426.94 787.86,-407.02 835,-356 850.04,-339.72 866.69,-320.6 878.09,-307.33"/>
<polygon fill="midnightblue" stroke="midnightblue" points="880.92,-309.41 884.76,-299.54 875.6,-304.86 880.92,-309.41"/>
</g>
<!-- Node26 -->
<g id="node26" class="node">
<title>Node26</title>
<g id="a_node26"><a xlink:title=" ">
<polygon fill="white" stroke="#bfbfbf" points="328,-280.5 328,-299.5 368,-299.5 368,-280.5 328,-280.5"/>
<text text-anchor="middle" x="348" y="-287.5" font-family="Helvetica,sans-Serif" font-size="10.00">utility</text>
</a>
</g>
</g>
<!-- Node2&#45;&gt;Node26 -->
<g id="edge68" class="edge">
<title>Node2&#45;&gt;Node26</title>
<path fill="none" stroke="midnightblue" d="M407.22,-624.07C315.43,-619.95 0,-599.65 0,-515 0,-515 0,-515 0,-401 0,-334.62 233.14,-303.21 317.77,-293.99"/>
<polygon fill="midnightblue" stroke="midnightblue" points="318.21,-297.47 327.79,-292.93 317.47,-290.51 318.21,-297.47"/>
</g>
<!-- Node36 -->
<g id="node36" class="node">
<title>Node36</title>
<g id="a_node36"><a xlink:href="a00092.html" target="_top" xlink:title=" ">
<polygon fill="white" stroke="black" points="336,-560.5 336,-579.5 388,-579.5 388,-560.5 336,-560.5"/>
<text text-anchor="middle" x="362" y="-567.5" font-family="Helvetica,sans-Serif" font-size="10.00">Friend.h</text>
</a>
</g>
</g>
<!-- Node2&#45;&gt;Node36 -->
<g id="edge59" class="edge">
<title>Node2&#45;&gt;Node36</title>
<path fill="none" stroke="midnightblue" d="M420.75,-616.32C410.2,-608.18 394.2,-595.84 381.56,-586.09"/>
<polygon fill="midnightblue" stroke="midnightblue" points="383.51,-583.17 373.45,-579.83 379.23,-588.71 383.51,-583.17"/>
</g>
<!-- Node37 -->
<g id="node37" class="node">
<title>Node37</title>
<g id="a_node37"><a xlink:href="a00095.html" target="_top" xlink:title=" ">
<polygon fill="white" stroke="black" points="406.5,-560.5 406.5,-579.5 457.5,-579.5 457.5,-560.5 406.5,-560.5"/>
<text text-anchor="middle" x="432" y="-567.5" font-family="Helvetica,sans-Serif" font-size="10.00">Group.h</text>
</a>
</g>
</g>
<!-- Node2&#45;&gt;Node37 -->
<g id="edge61" class="edge">
<title>Node2&#45;&gt;Node37</title>
<path fill="none" stroke="midnightblue" d="M432,-616.08C432,-609.01 432,-598.86 432,-589.99"/>
<polygon fill="midnightblue" stroke="midnightblue" points="435.5,-589.75 432,-579.75 428.5,-589.75 435.5,-589.75"/>
</g>
<!-- Node38 -->
<g id="node38" class="node">
<title>Node38</title>
<g id="a_node38"><a xlink:href="a00113.html" target="_top" xlink:title=" ">
<polygon fill="white" stroke="black" points="258,-560.5 258,-579.5 318,-579.5 318,-560.5 258,-560.5"/>
<text text-anchor="middle" x="288" y="-567.5" font-family="Helvetica,sans-Serif" font-size="10.00">Member.h</text>
</a>
</g>
</g>
<!-- Node2&#45;&gt;Node38 -->
<g id="edge66" class="edge">
<title>Node2&#45;&gt;Node38</title>
<path fill="none" stroke="midnightblue" d="M409.18,-616.44C385.17,-607.44 347.17,-593.19 320.13,-583.05"/>
<polygon fill="midnightblue" stroke="midnightblue" points="321.3,-579.75 310.71,-579.52 318.84,-586.3 321.3,-579.75"/>
</g>
<!-- Node4 -->
<g id="node4" class="node">
<title>Node4</title>
<g id="a_node4"><a xlink:href="a00077.html" target="_top" xlink:title=" ">
<polygon fill="white" stroke="black" points="274.5,-504.5 274.5,-523.5 333.5,-523.5 333.5,-504.5 274.5,-504.5"/>
<text text-anchor="middle" x="304" y="-511.5" font-family="Helvetica,sans-Serif" font-size="10.00">Contact.h</text>
</a>
</g>
</g>
<!-- Node3&#45;&gt;Node4 -->
<g id="edge3" class="edge">
<title>Node3&#45;&gt;Node4</title>
<path fill="none" stroke="midnightblue" d="M551.86,-564.94C507.64,-556.03 401.44,-534.63 343.44,-522.95"/>
<polygon fill="midnightblue" stroke="midnightblue" points="344.03,-519.5 333.53,-520.95 342.65,-526.36 344.03,-519.5"/>
</g>
<!-- Node18 -->
<g id="node18" class="node">
<title>Node18</title>
<g id="a_node18"><a xlink:title=" ">
<polygon fill="white" stroke="#bfbfbf" points="559.5,-56.5 559.5,-75.5 600.5,-75.5 600.5,-56.5 559.5,-56.5"/>
<text text-anchor="middle" x="580" y="-63.5" font-family="Helvetica,sans-Serif" font-size="10.00">string</text>
</a>
</g>
</g>
<!-- Node3&#45;&gt;Node18 -->
<g id="edge57" class="edge">
<title>Node3&#45;&gt;Node18</title>
<path fill="none" stroke="midnightblue" d="M569.13,-560.17C559.4,-531.51 524.81,-440.24 465,-392 393.9,-334.66 286,-382.35 286,-291 286,-291 286,-291 286,-177 286,-121.29 473.51,-84.41 549.03,-71.81"/>
<polygon fill="midnightblue" stroke="midnightblue" points="550.02,-75.19 559.33,-70.13 548.89,-68.29 550.02,-75.19"/>
</g>
<!-- Node19 -->
<g id="node19" class="node">
<title>Node19</title>
<g id="a_node19"><a xlink:href="a00005.html" target="_top" xlink:title=" ">
<polygon fill="white" stroke="black" points="912.5,-224.5 912.5,-243.5 1001.5,-243.5 1001.5,-224.5 912.5,-224.5"/>
<text text-anchor="middle" x="957" y="-231.5" font-family="Helvetica,sans-Serif" font-size="10.00">commonTypes.h</text>
</a>
</g>
</g>
<!-- Node3&#45;&gt;Node19 -->
<g id="edge56" class="edge">
<title>Node3&#45;&gt;Node19</title>
<path fill="none" stroke="midnightblue" d="M592.15,-565.99C694.32,-550.26 1152.83,-473.63 1217,-356 1221.26,-348.2 1222.16,-343.24 1217,-336 1188.63,-296.16 1158.71,-317.41 1113,-300 1068.22,-282.94 1017.08,-261.19 985.93,-247.68"/>
<polygon fill="midnightblue" stroke="midnightblue" points="987.11,-244.38 976.54,-243.6 984.32,-250.8 987.11,-244.38"/>
</g>
<!-- Node35 -->
<g id="node35" class="node">
<title>Node35</title>
<g id="a_node35"><a xlink:title=" ">
<polygon fill="white" stroke="#bfbfbf" points="1166,-224.5 1166,-243.5 1208,-243.5 1208,-224.5 1166,-224.5"/>
<text text-anchor="middle" x="1187" y="-231.5" font-family="Helvetica,sans-Serif" font-size="10.00">vector</text>
</a>
</g>
</g>
<!-- Node3&#45;&gt;Node35 -->
<g id="edge58" class="edge">
<title>Node3&#45;&gt;Node35</title>
<path fill="none" stroke="midnightblue" d="M592.01,-568.34C713.79,-564.06 1350,-537.95 1350,-459 1350,-459 1350,-459 1350,-401 1350,-325.24 1262.49,-271.38 1215.71,-248"/>
<polygon fill="midnightblue" stroke="midnightblue" points="1217.19,-244.83 1206.66,-243.6 1214.13,-251.12 1217.19,-244.83"/>
</g>
<!-- Node5 -->
<g id="node5" class="node">
<title>Node5</title>
<g id="a_node5"><a xlink:href="a00098.html" target="_top" xlink:title=" ">
<polygon fill="white" stroke="black" points="173,-448.5 173,-467.5 241,-467.5 241,-448.5 173,-448.5"/>
<text text-anchor="middle" x="207" y="-455.5" font-family="Helvetica,sans-Serif" font-size="10.00">IMiraiData.h</text>
</a>
</g>
</g>
<!-- Node4&#45;&gt;Node5 -->
<g id="edge4" class="edge">
<title>Node4&#45;&gt;Node5</title>
<path fill="none" stroke="midnightblue" d="M288.42,-504.32C273,-495.74 249.19,-482.49 231.29,-472.52"/>
<polygon fill="midnightblue" stroke="midnightblue" points="232.99,-469.46 222.55,-467.65 229.58,-475.58 232.99,-469.46"/>
</g>
<!-- Node6 -->
<g id="node6" class="node">
<title>Node6</title>
<g id="a_node6"><a xlink:title=" ">
<polygon fill="white" stroke="#bfbfbf" points="184.5,-336.5 184.5,-355.5 257.5,-355.5 257.5,-336.5 184.5,-336.5"/>
<text text-anchor="middle" x="221" y="-343.5" font-family="Helvetica,sans-Serif" font-size="10.00">json_fwd.hpp</text>
</a>
</g>
</g>
<!-- Node4&#45;&gt;Node6 -->
<g id="edge54" class="edge">
<title>Node4&#45;&gt;Node6</title>
<path fill="none" stroke="midnightblue" d="M274.49,-509.89C225.02,-502.81 127.58,-480.4 95,-412 78,-376.31 131.93,-359.81 174.48,-352.48"/>
<polygon fill="midnightblue" stroke="midnightblue" points="175.13,-355.92 184.46,-350.89 174.03,-349.01 175.13,-355.92"/>
</g>
<!-- Node4&#45;&gt;Node9 -->
<g id="edge8" class="edge">
<title>Node4&#45;&gt;Node9</title>
<path fill="none" stroke="midnightblue" d="M312.87,-504.37C331.85,-485.89 376.64,-442.29 400.83,-418.74"/>
<polygon fill="midnightblue" stroke="midnightblue" points="403.45,-421.07 408.17,-411.59 398.57,-416.06 403.45,-421.07"/>
</g>
<!-- Node10 -->
<g id="node10" class="node">
<title>Node10</title>
<g id="a_node10"><a xlink:href="a00110.html" target="_top" xlink:title=" ">
<polygon fill="white" stroke="black" points="259,-448.5 259,-467.5 339,-467.5 339,-448.5 259,-448.5"/>
<text text-anchor="middle" x="299" y="-455.5" font-family="Helvetica,sans-Serif" font-size="10.00">LowLevelAPI.h</text>
</a>
</g>
</g>
<!-- Node4&#45;&gt;Node10 -->
<g id="edge10" class="edge">
<title>Node4&#45;&gt;Node10</title>
<path fill="none" stroke="midnightblue" d="M303.17,-504.08C302.52,-497.01 301.58,-486.86 300.76,-477.99"/>
<polygon fill="midnightblue" stroke="midnightblue" points="304.22,-477.39 299.81,-467.75 297.25,-478.03 304.22,-477.39"/>
</g>
<!-- Node11 -->
<g id="node11" class="node">
<title>Node11</title>
<g id="a_node11"><a xlink:href="a00116.html" target="_top" xlink:title=" ">
<polygon fill="white" stroke="black" points="627.5,-448.5 627.5,-467.5 716.5,-467.5 716.5,-448.5 627.5,-448.5"/>
<text text-anchor="middle" x="672" y="-455.5" font-family="Helvetica,sans-Serif" font-size="10.00">MessageChain.h</text>
</a>
</g>
</g>
<!-- Node4&#45;&gt;Node11 -->
<g id="edge12" class="edge">
<title>Node4&#45;&gt;Node11</title>
<path fill="none" stroke="midnightblue" d="M333.8,-508.63C395.54,-499.57 538.21,-478.63 617.09,-467.06"/>
<polygon fill="midnightblue" stroke="midnightblue" points="617.93,-470.47 627.32,-465.56 616.91,-463.55 617.93,-470.47"/>
</g>
<!-- Node4&#45;&gt;Node18 -->
<g id="edge55" class="edge">
<title>Node4&#45;&gt;Node18</title>
<path fill="none" stroke="midnightblue" d="M274.26,-513.85C204.85,-514.15 38,-504.32 38,-403 38,-403 38,-403 38,-177 38,-71.89 434.42,-66.11 549.21,-66.64"/>
<polygon fill="midnightblue" stroke="midnightblue" points="549.39,-70.14 559.41,-66.71 549.44,-63.14 549.39,-70.14"/>
</g>
<!-- Node5&#45;&gt;Node6 -->
<g id="edge5" class="edge">
<title>Node5&#45;&gt;Node6</title>
<path fill="none" stroke="midnightblue" d="M221.37,-448.33C232.88,-440.47 248.19,-427.72 255,-412 262.46,-394.77 250.06,-375.84 238.19,-362.87"/>
<polygon fill="midnightblue" stroke="midnightblue" points="240.57,-360.29 231.06,-355.63 235.59,-365.21 240.57,-360.29"/>
</g>
<!-- Node7 -->
<g id="node7" class="node">
<title>Node7</title>
<g id="a_node7"><a xlink:title=" ">
<polygon fill="white" stroke="#bfbfbf" points="104,-392.5 104,-411.5 150,-411.5 150,-392.5 104,-392.5"/>
<text text-anchor="middle" x="127" y="-399.5" font-family="Helvetica,sans-Serif" font-size="10.00">atomic</text>
</a>
</g>
</g>
<!-- Node5&#45;&gt;Node7 -->
<g id="edge6" class="edge">
<title>Node5&#45;&gt;Node7</title>
<path fill="none" stroke="midnightblue" d="M194.15,-448.32C181.78,-439.98 162.87,-427.21 148.26,-417.35"/>
<polygon fill="midnightblue" stroke="midnightblue" points="150.07,-414.35 139.82,-411.65 146.15,-420.15 150.07,-414.35"/>
</g>
<!-- Node8 -->
<g id="node8" class="node">
<title>Node8</title>
<g id="a_node8"><a xlink:title=" ">
<polygon fill="white" stroke="#bfbfbf" points="168,-392.5 168,-411.5 246,-411.5 246,-392.5 168,-392.5"/>
<text text-anchor="middle" x="207" y="-399.5" font-family="Helvetica,sans-Serif" font-size="10.00">shared_mutex</text>
</a>
</g>
</g>
<!-- Node5&#45;&gt;Node8 -->
<g id="edge7" class="edge">
<title>Node5&#45;&gt;Node8</title>
<path fill="none" stroke="midnightblue" d="M207,-448.08C207,-441.01 207,-430.86 207,-421.99"/>
<polygon fill="midnightblue" stroke="midnightblue" points="210.5,-421.75 207,-411.75 203.5,-421.75 210.5,-421.75"/>
</g>
<!-- Node9&#45;&gt;Node6 -->
<g id="edge9" class="edge">
<title>Node9&#45;&gt;Node6</title>
<path fill="none" stroke="midnightblue" d="M385.94,-392.44C352.4,-383.2 298.8,-368.44 261.86,-358.26"/>
<polygon fill="midnightblue" stroke="midnightblue" points="262.48,-354.8 251.91,-355.52 260.62,-361.55 262.48,-354.8"/>
</g>
<!-- Node10&#45;&gt;Node6 -->
<g id="edge11" class="edge">
<title>Node10&#45;&gt;Node6</title>
<path fill="none" stroke="midnightblue" d="M296.6,-448.4C292.69,-435.36 284.04,-410.17 271,-392 262.89,-380.7 251.5,-370.17 241.64,-362.15"/>
<polygon fill="midnightblue" stroke="midnightblue" points="243.53,-359.18 233.49,-355.78 239.22,-364.69 243.53,-359.18"/>
</g>
<!-- Node12 -->
<g id="node12" class="node">
<title>Node12</title>
<g id="a_node12"><a xlink:href="a00011.html" target="_top" xlink:title=" ">
<polygon fill="white" stroke="black" points="836,-56.5 836,-75.5 928,-75.5 928,-56.5 836,-56.5"/>
<text text-anchor="middle" x="882" y="-63.5" font-family="Helvetica,sans-Serif" font-size="10.00">MiraiCPMacros.h</text>
</a>
</g>
</g>
<!-- Node11&#45;&gt;Node12 -->
<g id="edge13" class="edge">
<title>Node11&#45;&gt;Node12</title>
<path fill="none" stroke="midnightblue" d="M674.15,-448.36C684.78,-407.05 734.98,-226.8 829,-112 838.32,-100.62 850.78,-89.88 861.28,-81.74"/>
<polygon fill="midnightblue" stroke="midnightblue" points="863.61,-84.36 869.52,-75.57 859.42,-78.76 863.61,-84.36"/>
</g>
<!-- Node11&#45;&gt;Node14 -->
<g id="edge15" class="edge">
<title>Node11&#45;&gt;Node14</title>
<path fill="none" stroke="midnightblue" d="M716.81,-451.17C796.74,-440.77 962.99,-419.14 1042.62,-408.78"/>
<polygon fill="midnightblue" stroke="midnightblue" points="1043.34,-412.21 1052.8,-407.45 1042.43,-405.27 1043.34,-412.21"/>
</g>
<!-- Node29 -->
<g id="node29" class="node">
<title>Node29</title>
<g id="a_node29"><a xlink:href="a00134.html" target="_top" xlink:title=" ">
<polygon fill="white" stroke="black" points="550,-392.5 550,-411.5 642,-411.5 642,-392.5 550,-392.5"/>
<text text-anchor="middle" x="596" y="-399.5" font-family="Helvetica,sans-Serif" font-size="10.00">SingleMessage.h</text>
</a>
</g>
</g>
<!-- Node11&#45;&gt;Node29 -->
<g id="edge38" class="edge">
<title>Node11&#45;&gt;Node29</title>
<path fill="none" stroke="midnightblue" d="M659.79,-448.32C648.22,-440.11 630.62,-427.6 616.84,-417.81"/>
<polygon fill="midnightblue" stroke="midnightblue" points="618.61,-414.77 608.43,-411.83 614.56,-420.48 618.61,-414.77"/>
</g>
<!-- Node34 -->
<g id="node34" class="node">
<title>Node34</title>
<g id="a_node34"><a xlink:href="a00002.html" target="_top" xlink:title=" ">
<polygon fill="white" stroke="black" points="760,-280.5 760,-299.5 846,-299.5 846,-280.5 760,-280.5"/>
<text text-anchor="middle" x="803" y="-287.5" font-family="Helvetica,sans-Serif" font-size="10.00">commonTools.h</text>
</a>
</g>
</g>
<!-- Node11&#45;&gt;Node34 -->
<g id="edge51" class="edge">
<title>Node11&#45;&gt;Node34</title>
<path fill="none" stroke="midnightblue" d="M678.65,-448.47C694.11,-428.67 733.66,-378.07 767,-336 774.47,-326.57 782.87,-316.07 789.67,-307.59"/>
<polygon fill="midnightblue" stroke="midnightblue" points="792.55,-309.6 796.08,-299.61 787.09,-305.22 792.55,-309.6"/>
</g>
<!-- Node13 -->
<g id="node13" class="node">
<title>Node13</title>
<g id="a_node13"><a xlink:title=" ">
<polygon fill="white" stroke="#bfbfbf" points="897.5,-0.5 897.5,-19.5 946.5,-19.5 946.5,-0.5 897.5,-0.5"/>
<text text-anchor="middle" x="922" y="-7.5" font-family="Helvetica,sans-Serif" font-size="10.00">cassert</text>
</a>
</g>
</g>
<!-- Node12&#45;&gt;Node13 -->
<g id="edge14" class="edge">
<title>Node12&#45;&gt;Node13</title>
<path fill="none" stroke="midnightblue" d="M888.61,-56.08C894.26,-48.46 902.54,-37.26 909.45,-27.94"/>
<polygon fill="midnightblue" stroke="midnightblue" points="912.38,-29.87 915.52,-19.75 906.75,-25.7 912.38,-29.87"/>
</g>
<!-- Node14&#45;&gt;Node12 -->
<g id="edge16" class="edge">
<title>Node14&#45;&gt;Node12</title>
<path fill="none" stroke="midnightblue" d="M1121.3,-396.54C1175.28,-387.38 1274,-361.06 1274,-291 1274,-291 1274,-291 1274,-177 1274,-108.1 1046.65,-80.34 938.23,-71.03"/>
<polygon fill="midnightblue" stroke="midnightblue" points="938.38,-67.53 928.12,-70.18 937.79,-74.5 938.38,-67.53"/>
</g>
<!-- Node15 -->
<g id="node15" class="node">
<title>Node15</title>
<g id="a_node15"><a xlink:href="a00080.html" target="_top" xlink:title=" ">
<polygon fill="white" stroke="black" points="958,-336.5 958,-355.5 1030,-355.5 1030,-336.5 958,-336.5"/>
<text text-anchor="middle" x="994" y="-343.5" font-family="Helvetica,sans-Serif" font-size="10.00">CPPPlugin.h</text>
</a>
</g>
</g>
<!-- Node14&#45;&gt;Node15 -->
<g id="edge17" class="edge">
<title>Node14&#45;&gt;Node15</title>
<path fill="none" stroke="midnightblue" d="M1072.06,-392.32C1057.41,-383.82 1034.87,-370.73 1017.76,-360.8"/>
<polygon fill="midnightblue" stroke="midnightblue" points="1019.31,-357.65 1008.9,-355.65 1015.8,-363.7 1019.31,-357.65"/>
</g>
<!-- Node14&#45;&gt;Node18 -->
<g id="edge36" class="edge">
<title>Node14&#45;&gt;Node18</title>
<path fill="none" stroke="midnightblue" d="M1081.95,-392.22C1074.03,-378.95 1057.62,-353.47 1039,-336 971.92,-273.09 944.61,-270.05 865,-224 787.92,-179.41 764.66,-175.59 687,-132 657.12,-115.23 623.46,-94.46 602.01,-80.98"/>
<polygon fill="midnightblue" stroke="midnightblue" points="603.66,-77.89 593.34,-75.51 599.93,-83.81 603.66,-77.89"/>
</g>
<!-- Node27 -->
<g id="node27" class="node">
<title>Node27</title>
<g id="a_node27"><a xlink:title=" ">
<polygon fill="white" stroke="#bfbfbf" points="1086.5,-336.5 1086.5,-355.5 1145.5,-355.5 1145.5,-336.5 1086.5,-336.5"/>
<text text-anchor="middle" x="1116" y="-343.5" font-family="Helvetica,sans-Serif" font-size="10.00">exception</text>
</a>
</g>
</g>
<!-- Node14&#45;&gt;Node27 -->
<g id="edge35" class="edge">
<title>Node14&#45;&gt;Node27</title>
<path fill="none" stroke="midnightblue" d="M1091.79,-392.08C1095.76,-384.69 1101.53,-373.95 1106.43,-364.81"/>
<polygon fill="midnightblue" stroke="midnightblue" points="1109.65,-366.22 1111.3,-355.75 1103.49,-362.91 1109.65,-366.22"/>
</g>
<!-- Node28 -->
<g id="node28" class="node">
<title>Node28</title>
<g id="a_node28"><a xlink:title=" ">
<polygon fill="white" stroke="#bfbfbf" points="1164,-336.5 1164,-355.5 1208,-355.5 1208,-336.5 1164,-336.5"/>
<text text-anchor="middle" x="1186" y="-343.5" font-family="Helvetica,sans-Serif" font-size="10.00">thread</text>
</a>
</g>
</g>
<!-- Node14&#45;&gt;Node28 -->
<g id="edge37" class="edge">
<title>Node14&#45;&gt;Node28</title>
<path fill="none" stroke="midnightblue" d="M1102.91,-392.32C1118.64,-383.74 1142.94,-370.49 1161.21,-360.52"/>
<polygon fill="midnightblue" stroke="midnightblue" points="1163.03,-363.52 1170.13,-355.65 1159.68,-357.37 1163.03,-363.52"/>
</g>
<!-- Node15&#45;&gt;Node16 -->
<g id="edge18" class="edge">
<title>Node15&#45;&gt;Node16</title>
<path fill="none" stroke="midnightblue" d="M977.61,-336.32C961.33,-327.7 936.13,-314.36 917.28,-304.39"/>
<polygon fill="midnightblue" stroke="midnightblue" points="918.82,-301.24 908.35,-299.65 915.55,-307.43 918.82,-301.24"/>
</g>
<!-- Node20 -->
<g id="node20" class="node">
<title>Node20</title>
<g id="a_node20"><a xlink:href="a00020.html" target="_top" xlink:title=" ">
<polygon fill="white" stroke="black" points="1029.5,-168.5 1029.5,-187.5 1108.5,-187.5 1108.5,-168.5 1029.5,-168.5"/>
<text text-anchor="middle" x="1069" y="-175.5" font-family="Helvetica,sans-Serif" font-size="10.00">PluginConfig.h</text>
</a>
</g>
</g>
<!-- Node15&#45;&gt;Node20 -->
<g id="edge33" class="edge">
<title>Node15&#45;&gt;Node20</title>
<path fill="none" stroke="midnightblue" d="M1030.31,-339.35C1077.07,-331.55 1155.17,-316.54 1179,-300 1203.71,-282.85 1208.17,-272.75 1217,-244 1230.43,-200.3 1166.83,-185.89 1118.8,-181.2"/>
<polygon fill="midnightblue" stroke="midnightblue" points="1119.09,-177.71 1108.82,-180.34 1118.48,-184.68 1119.09,-177.71"/>
</g>
<!-- Node15&#45;&gt;Node26 -->
<g id="edge34" class="edge">
<title>Node15&#45;&gt;Node26</title>
<path fill="none" stroke="midnightblue" d="M957.88,-341.98C842.54,-332.34 484.38,-302.4 378.05,-293.51"/>
<polygon fill="midnightblue" stroke="midnightblue" points="378.27,-290.02 368.01,-292.67 377.68,-296.99 378.27,-290.02"/>
</g>
<!-- Node17 -->
<g id="node17" class="node">
<title>Node17</title>
<g id="a_node17"><a xlink:href="a00122.html" target="_top" xlink:title=" ">
<polygon fill="white" stroke="black" points="560,-224.5 560,-243.5 628,-243.5 628,-224.5 560,-224.5"/>
<text text-anchor="middle" x="594" y="-231.5" font-family="Helvetica,sans-Serif" font-size="10.00">MiraiCode.h</text>
</a>
</g>
</g>
<!-- Node16&#45;&gt;Node17 -->
<g id="edge19" class="edge">
<title>Node16&#45;&gt;Node17</title>
<path fill="none" stroke="midnightblue" d="M864.97,-282.2C861.62,-281.42 858.24,-280.67 855,-280 779.24,-264.27 690.3,-249.78 638.25,-241.69"/>
<polygon fill="midnightblue" stroke="midnightblue" points="638.76,-238.23 628.34,-240.16 637.69,-245.15 638.76,-238.23"/>
</g>
<!-- Node16&#45;&gt;Node19 -->
<g id="edge21" class="edge">
<title>Node16&#45;&gt;Node19</title>
<path fill="none" stroke="midnightblue" d="M902.44,-280.32C912.15,-272.26 926.82,-260.08 938.5,-250.37"/>
<polygon fill="midnightblue" stroke="midnightblue" points="940.91,-252.92 946.37,-243.83 936.44,-247.53 940.91,-252.92"/>
</g>
<!-- Node24 -->
<g id="node24" class="node">
<title>Node24</title>
<g id="a_node24"><a xlink:title=" ">
<polygon fill="white" stroke="#bfbfbf" points="798,-224.5 798,-243.5 856,-243.5 856,-224.5 798,-224.5"/>
<text text-anchor="middle" x="827" y="-231.5" font-family="Helvetica,sans-Serif" font-size="10.00">functional</text>
</a>
</g>
</g>
<!-- Node16&#45;&gt;Node24 -->
<g id="edge31" class="edge">
<title>Node16&#45;&gt;Node24</title>
<path fill="none" stroke="midnightblue" d="M881.56,-280.32C871.85,-272.26 857.18,-260.08 845.5,-250.37"/>
<polygon fill="midnightblue" stroke="midnightblue" points="847.56,-247.53 837.63,-243.83 843.09,-252.92 847.56,-247.53"/>
</g>
<!-- Node25 -->
<g id="node25" class="node">
<title>Node25</title>
<g id="a_node25"><a xlink:title=" ">
<polygon fill="white" stroke="#bfbfbf" points="1020,-224.5 1020,-243.5 1072,-243.5 1072,-224.5 1020,-224.5"/>
<text text-anchor="middle" x="1046" y="-231.5" font-family="Helvetica,sans-Serif" font-size="10.00">sstream</text>
</a>
</g>
</g>
<!-- Node16&#45;&gt;Node25 -->
<g id="edge32" class="edge">
<title>Node16&#45;&gt;Node25</title>
<path fill="none" stroke="midnightblue" d="M916.4,-280.44C942.2,-271.4 983.08,-257.06 1012.02,-246.92"/>
<polygon fill="midnightblue" stroke="midnightblue" points="1013.43,-250.13 1021.71,-243.52 1011.12,-243.52 1013.43,-250.13"/>
</g>
<!-- Node17&#45;&gt;Node18 -->
<g id="edge20" class="edge">
<title>Node17&#45;&gt;Node18</title>
<path fill="none" stroke="midnightblue" d="M593.25,-224.08C591.04,-197.95 584.57,-121.21 581.57,-85.58"/>
<polygon fill="midnightblue" stroke="midnightblue" points="585.05,-85.24 580.72,-75.57 578.08,-85.83 585.05,-85.24"/>
</g>
<!-- Node19&#45;&gt;Node12 -->
<g id="edge22" class="edge">
<title>Node19&#45;&gt;Node12</title>
<path fill="none" stroke="midnightblue" d="M942.23,-224.23C930.26,-216.3 913.94,-203.52 905,-188 886.29,-155.53 882.42,-110.81 881.84,-85.83"/>
<polygon fill="midnightblue" stroke="midnightblue" points="885.34,-85.55 881.76,-75.57 878.34,-85.6 885.34,-85.55"/>
</g>
<!-- Node19&#45;&gt;Node20 -->
<g id="edge23" class="edge">
<title>Node19&#45;&gt;Node20</title>
<path fill="none" stroke="midnightblue" d="M974.99,-224.32C993.04,-215.62 1021.05,-202.12 1041.8,-192.11"/>
<polygon fill="midnightblue" stroke="midnightblue" points="1043.56,-195.15 1051.05,-187.65 1040.52,-188.84 1043.56,-195.15"/>
</g>
<!-- Node23 -->
<g id="node23" class="node">
<title>Node23</title>
<g id="a_node23"><a xlink:href="a00008.html" target="_top" xlink:title=" ">
<polygon fill="white" stroke="black" points="913.5,-168.5 913.5,-187.5 1010.5,-187.5 1010.5,-168.5 913.5,-168.5"/>
<text text-anchor="middle" x="962" y="-175.5" font-family="Helvetica,sans-Serif" font-size="10.00">loaderApiInternal.h</text>
</a>
</g>
</g>
<!-- Node19&#45;&gt;Node23 -->
<g id="edge29" class="edge">
<title>Node19&#45;&gt;Node23</title>
<path fill="none" stroke="midnightblue" d="M957.83,-224.08C958.48,-217.01 959.42,-206.86 960.24,-197.99"/>
<polygon fill="midnightblue" stroke="midnightblue" points="963.75,-198.03 961.19,-187.75 956.78,-197.39 963.75,-198.03"/>
</g>
<!-- Node21 -->
<g id="node21" class="node">
<title>Node21</title>
<g id="a_node21"><a xlink:href="a00014.html" target="_top" xlink:title=" ">
<polygon fill="white" stroke="black" points="910,-112.5 910,-131.5 1026,-131.5 1026,-112.5 910,-112.5"/>
<text text-anchor="middle" x="968" y="-119.5" font-family="Helvetica,sans-Serif" font-size="10.00">MiraiCPStringInternal.h</text>
</a>
</g>
</g>
<!-- Node20&#45;&gt;Node21 -->
<g id="edge24" class="edge">
<title>Node20&#45;&gt;Node21</title>
<path fill="none" stroke="midnightblue" d="M1052.77,-168.32C1036.65,-159.7 1011.7,-146.36 993.04,-136.39"/>
<polygon fill="midnightblue" stroke="midnightblue" points="994.66,-133.28 984.19,-131.65 991.36,-139.46 994.66,-133.28"/>
</g>
<!-- Node22 -->
<g id="node22" class="node">
<title>Node22</title>
<g id="a_node22"><a xlink:title=" ">
<polygon fill="white" stroke="#bfbfbf" points="1044.5,-112.5 1044.5,-131.5 1097.5,-131.5 1097.5,-112.5 1044.5,-112.5"/>
<text text-anchor="middle" x="1071" y="-119.5" font-family="Helvetica,sans-Serif" font-size="10.00">json.hpp</text>
</a>
</g>
</g>
<!-- Node20&#45;&gt;Node22 -->
<g id="edge28" class="edge">
<title>Node20&#45;&gt;Node22</title>
<path fill="none" stroke="midnightblue" d="M1069.33,-168.08C1069.59,-161.01 1069.97,-150.86 1070.3,-141.99"/>
<polygon fill="midnightblue" stroke="midnightblue" points="1073.8,-141.87 1070.68,-131.75 1066.81,-141.61 1073.8,-141.87"/>
</g>
<!-- Node21&#45;&gt;Node12 -->
<g id="edge25" class="edge">
<title>Node21&#45;&gt;Node12</title>
<path fill="none" stroke="midnightblue" d="M954.18,-112.32C940.77,-103.9 920.18,-90.97 904.41,-81.07"/>
<polygon fill="midnightblue" stroke="midnightblue" points="906.11,-78.01 895.78,-75.65 902.39,-83.94 906.11,-78.01"/>
</g>
<!-- Node21&#45;&gt;Node13 -->
<g id="edge26" class="edge">
<title>Node21&#45;&gt;Node13</title>
<path fill="none" stroke="midnightblue" d="M964.39,-112.37C956.9,-94.46 939.53,-52.92 929.51,-28.95"/>
<polygon fill="midnightblue" stroke="midnightblue" points="932.68,-27.47 925.59,-19.59 926.22,-30.17 932.68,-27.47"/>
</g>
<!-- Node21&#45;&gt;Node18 -->
<g id="edge27" class="edge">
<title>Node21&#45;&gt;Node18</title>
<path fill="none" stroke="midnightblue" d="M909.91,-112.92C826.41,-101.29 675.38,-80.27 610.72,-71.28"/>
<polygon fill="midnightblue" stroke="midnightblue" points="611.14,-67.8 600.75,-69.89 610.18,-74.73 611.14,-67.8"/>
</g>
<!-- Node23&#45;&gt;Node21 -->
<g id="edge30" class="edge">
<title>Node23&#45;&gt;Node21</title>
<path fill="none" stroke="midnightblue" d="M962.99,-168.08C963.79,-160.93 964.93,-150.64 965.92,-141.69"/>
<polygon fill="midnightblue" stroke="midnightblue" points="969.4,-142.08 967.03,-131.75 962.44,-141.3 969.4,-142.08"/>
</g>
<!-- Node29&#45;&gt;Node6 -->
<g id="edge46" class="edge">
<title>Node29&#45;&gt;Node6</title>
<path fill="none" stroke="midnightblue" d="M549.64,-394.32C477.73,-383.97 340.09,-364.15 267.87,-353.75"/>
<polygon fill="midnightblue" stroke="midnightblue" points="268.1,-350.25 257.7,-352.29 267.1,-357.18 268.1,-350.25"/>
</g>
<!-- Node29&#45;&gt;Node12 -->
<g id="edge39" class="edge">
<title>Node29&#45;&gt;Node12</title>
<path fill="none" stroke="midnightblue" d="M604.02,-392.37C619.31,-375.59 653.08,-336.95 675,-300 721.41,-221.75 689.65,-174.25 756,-112 775.21,-93.98 802.12,-83.1 826.14,-76.56"/>
<polygon fill="midnightblue" stroke="midnightblue" points="827.04,-79.94 835.87,-74.1 825.32,-73.16 827.04,-79.94"/>
</g>
<!-- Node29&#45;&gt;Node17 -->
<g id="edge44" class="edge">
<title>Node29&#45;&gt;Node17</title>
<path fill="none" stroke="midnightblue" d="M590.12,-392.43C577.23,-372.55 548.66,-321.78 562,-280 565.34,-269.54 572.1,-259.43 578.55,-251.45"/>
<polygon fill="midnightblue" stroke="midnightblue" points="581.35,-253.56 585.25,-243.71 576.06,-248.98 581.35,-253.56"/>
</g>
<!-- Node29&#45;&gt;Node25 -->
<g id="edge48" class="edge">
<title>Node29&#45;&gt;Node25</title>
<path fill="none" stroke="midnightblue" d="M615.69,-392.45C647.18,-379.03 711.03,-352.8 767,-336 837.23,-314.92 859.42,-325.95 928,-300 963.57,-286.54 1001.56,-263.96 1024.54,-249.27"/>
<polygon fill="midnightblue" stroke="midnightblue" points="1026.66,-252.07 1033.14,-243.69 1022.85,-246.2 1026.66,-252.07"/>
</g>
<!-- Node29&#45;&gt;Node26 -->
<g id="edge50" class="edge">
<title>Node29&#45;&gt;Node26</title>
<path fill="none" stroke="midnightblue" d="M549.78,-393.51C490.67,-383.6 394.3,-366.19 381,-356 365.96,-344.48 357.23,-324.21 352.57,-309.36"/>
<polygon fill="midnightblue" stroke="midnightblue" points="355.93,-308.4 349.86,-299.71 349.19,-310.28 355.93,-308.4"/>
</g>
<!-- Node30 -->
<g id="node30" class="node">
<title>Node30</title>
<g id="a_node30"><a xlink:href="a00119.html" target="_top" xlink:title=" ">
<polygon fill="white" stroke="black" points="570.5,-280.5 570.5,-299.5 665.5,-299.5 665.5,-280.5 570.5,-280.5"/>
<text text-anchor="middle" x="618" y="-287.5" font-family="Helvetica,sans-Serif" font-size="10.00">MessageSource.h</text>
</a>
</g>
</g>
<!-- Node29&#45;&gt;Node30 -->
<g id="edge40" class="edge">
<title>Node29&#45;&gt;Node30</title>
<path fill="none" stroke="midnightblue" d="M597.73,-392.37C601.28,-374.62 609.47,-333.67 614.28,-309.6"/>
<polygon fill="midnightblue" stroke="midnightblue" points="617.75,-310.08 616.28,-299.59 610.89,-308.71 617.75,-310.08"/>
</g>
<!-- Node31 -->
<g id="node31" class="node">
<title>Node31</title>
<g id="a_node31"><a xlink:title=" ">
<polygon fill="white" stroke="#bfbfbf" points="390,-336.5 390,-355.5 428,-355.5 428,-336.5 390,-336.5"/>
<text text-anchor="middle" x="409" y="-343.5" font-family="Helvetica,sans-Serif" font-size="10.00">array</text>
</a>
</g>
</g>
<!-- Node29&#45;&gt;Node31 -->
<g id="edge45" class="edge">
<title>Node29&#45;&gt;Node31</title>
<path fill="none" stroke="midnightblue" d="M565.06,-392.42C533.16,-383.52 482.01,-369.1 438,-356 437.9,-355.97 437.8,-355.94 437.7,-355.91"/>
<polygon fill="midnightblue" stroke="midnightblue" points="438.6,-352.53 428.01,-352.97 436.56,-359.22 438.6,-352.53"/>
</g>
<!-- Node32 -->
<g id="node32" class="node">
<title>Node32</title>
<g id="a_node32"><a xlink:title=" ">
<polygon fill="white" stroke="#bfbfbf" points="776,-336.5 776,-355.5 826,-355.5 826,-336.5 776,-336.5"/>
<text text-anchor="middle" x="801" y="-343.5" font-family="Helvetica,sans-Serif" font-size="10.00">optional</text>
</a>
</g>
</g>
<!-- Node29&#45;&gt;Node32 -->
<g id="edge47" class="edge">
<title>Node29&#45;&gt;Node32</title>
<path fill="none" stroke="midnightblue" d="M628.48,-392.44C666,-382.56 727.49,-366.36 766.03,-356.21"/>
<polygon fill="midnightblue" stroke="midnightblue" points="767,-359.58 775.78,-353.64 765.22,-352.81 767,-359.58"/>
</g>
<!-- Node33 -->
<g id="node33" class="node">
<title>Node33</title>
<g id="a_node33"><a xlink:title=" ">
<polygon fill="white" stroke="#bfbfbf" points="446.5,-336.5 446.5,-355.5 529.5,-355.5 529.5,-336.5 446.5,-336.5"/>
<text text-anchor="middle" x="488" y="-343.5" font-family="Helvetica,sans-Serif" font-size="10.00">unordered_map</text>
</a>
</g>
</g>
<!-- Node29&#45;&gt;Node33 -->
<g id="edge49" class="edge">
<title>Node29&#45;&gt;Node33</title>
<path fill="none" stroke="midnightblue" d="M578.65,-392.32C561.33,-383.66 534.48,-370.24 514.5,-360.25"/>
<polygon fill="midnightblue" stroke="midnightblue" points="515.82,-357 505.31,-355.65 512.69,-363.26 515.82,-357"/>
</g>
<!-- Node30&#45;&gt;Node12 -->
<g id="edge41" class="edge">
<title>Node30&#45;&gt;Node12</title>
<path fill="none" stroke="midnightblue" d="M621.69,-280.39C635.73,-248.04 686.57,-134.49 718,-112 749.55,-89.42 791.92,-78.16 825.69,-72.56"/>
<polygon fill="midnightblue" stroke="midnightblue" points="826.52,-75.97 835.87,-70.99 825.46,-69.05 826.52,-75.97"/>
</g>
<!-- Node30&#45;&gt;Node18 -->
<g id="edge43" class="edge">
<title>Node30&#45;&gt;Node18</title>
<path fill="none" stroke="midnightblue" d="M595.21,-280.47C579.67,-273.32 560.29,-261.44 551,-244 522.86,-191.2 553.29,-117.96 570.23,-84.7"/>
<polygon fill="midnightblue" stroke="midnightblue" points="573.39,-86.2 574.97,-75.73 567.2,-82.93 573.39,-86.2"/>
</g>
<!-- Node30&#45;&gt;Node19 -->
<g id="edge42" class="edge">
<title>Node30&#45;&gt;Node19</title>
<path fill="none" stroke="midnightblue" d="M665.85,-281.38C728.13,-271.46 836.73,-254.16 902.23,-243.72"/>
<polygon fill="midnightblue" stroke="midnightblue" points="903.04,-247.14 912.36,-242.11 901.93,-240.23 903.04,-247.14"/>
</g>
<!-- Node34&#45;&gt;Node12 -->
<g id="edge52" class="edge">
<title>Node34&#45;&gt;Node12</title>
<path fill="none" stroke="midnightblue" d="M798.38,-280.09C792.46,-267.5 783.57,-243.82 789,-224 804.48,-167.48 846.15,-110.67 868.07,-83.5"/>
<polygon fill="midnightblue" stroke="midnightblue" points="870.79,-85.7 874.44,-75.75 865.39,-81.25 870.79,-85.7"/>
</g>
<!-- Node34&#45;&gt;Node24 -->
<g id="edge53" class="edge">
<title>Node34&#45;&gt;Node24</title>
<path fill="none" stroke="midnightblue" d="M806.96,-280.08C810.21,-272.77 814.92,-262.18 818.95,-253.1"/>
<polygon fill="midnightblue" stroke="midnightblue" points="822.25,-254.31 823.11,-243.75 815.85,-251.47 822.25,-254.31"/>
</g>
<!-- Node36&#45;&gt;Node4 -->
<g id="edge60" class="edge">
<title>Node36&#45;&gt;Node4</title>
<path fill="none" stroke="midnightblue" d="M352.68,-560.32C344.11,-552.34 331.19,-540.31 320.81,-530.65"/>
<polygon fill="midnightblue" stroke="midnightblue" points="323.19,-528.09 313.49,-523.83 318.42,-533.21 323.19,-528.09"/>
</g>
<!-- Node37&#45;&gt;Node4 -->
<g id="edge62" class="edge">
<title>Node37&#45;&gt;Node4</title>
<path fill="none" stroke="midnightblue" d="M411.72,-560.44C390.65,-551.56 357.48,-537.56 333.51,-527.45"/>
<polygon fill="midnightblue" stroke="midnightblue" points="334.76,-524.18 324.19,-523.52 332.04,-530.63 334.76,-524.18"/>
</g>
<!-- Node37&#45;&gt;Node6 -->
<g id="edge63" class="edge">
<title>Node37&#45;&gt;Node6</title>
<path fill="none" stroke="midnightblue" d="M426.81,-560.39C414.35,-540 381.3,-487.49 348,-448 325.11,-420.85 318.75,-414.16 291,-392 276.6,-380.5 259.17,-369.29 245.31,-360.93"/>
<polygon fill="midnightblue" stroke="midnightblue" points="246.75,-357.72 236.36,-355.63 243.18,-363.74 246.75,-357.72"/>
</g>
<!-- Node37&#45;&gt;Node26 -->
<g id="edge64" class="edge">
<title>Node37&#45;&gt;Node26</title>
<path fill="none" stroke="midnightblue" d="M437.76,-560.28C455.16,-532.73 503.7,-446.18 465,-392 436.33,-351.86 392.21,-393.36 360,-356 349.12,-343.38 346.72,-324.17 346.68,-309.9"/>
<polygon fill="midnightblue" stroke="midnightblue" points="350.19,-309.85 347.04,-299.74 343.19,-309.61 350.19,-309.85"/>
</g>
<!-- Node38&#45;&gt;Node4 -->
<g id="edge67" class="edge">
<title>Node38&#45;&gt;Node4</title>
<path fill="none" stroke="midnightblue" d="M290.64,-560.08C292.79,-552.85 295.88,-542.41 298.55,-533.4"/>
<polygon fill="midnightblue" stroke="midnightblue" points="301.92,-534.33 301.41,-523.75 295.21,-532.34 301.92,-534.33"/>
</g>
<!-- Node39&#45;&gt;Node9 -->
<g id="edge72" class="edge">
<title>Node39&#45;&gt;Node9</title>
<path fill="none" stroke="midnightblue" d="M857.46,-453.07C774.14,-443.6 561.91,-419.47 465.72,-408.54"/>
<polygon fill="midnightblue" stroke="midnightblue" points="466.01,-405.05 455.68,-407.4 465.22,-412 466.01,-405.05"/>
</g>
<!-- Node39&#45;&gt;Node14 -->
<g id="edge71" class="edge">
<title>Node39&#45;&gt;Node14</title>
<path fill="none" stroke="midnightblue" d="M922.9,-448.44C956.27,-439.2 1009.59,-424.44 1046.35,-414.26"/>
<polygon fill="midnightblue" stroke="midnightblue" points="1047.54,-417.56 1056.25,-411.52 1045.67,-410.81 1047.54,-417.56"/>
</g>
<!-- Node39&#45;&gt;Node15 -->
<g id="edge70" class="edge">
<title>Node39&#45;&gt;Node15</title>
<path fill="none" stroke="midnightblue" d="M903.33,-448.3C914.28,-439.64 931.05,-425.72 944,-412 958.29,-396.86 972.57,-377.8 982.19,-364.25"/>
<polygon fill="midnightblue" stroke="midnightblue" points="985.19,-366.06 988.05,-355.86 979.45,-362.05 985.19,-366.06"/>
</g>
<!-- Node39&#45;&gt;Node16 -->
<g id="edge73" class="edge">
<title>Node39&#45;&gt;Node16</title>
<path fill="none" stroke="midnightblue" d="M894.55,-448.46C900.11,-428.65 912.39,-378.02 906,-336 904.63,-327 901.81,-317.33 899.05,-309.26"/>
<polygon fill="midnightblue" stroke="midnightblue" points="902.31,-307.98 895.6,-299.78 895.73,-310.37 902.31,-307.98"/>
</g>
<!-- Node39&#45;&gt;Node32 -->
<g id="edge75" class="edge">
<title>Node39&#45;&gt;Node32</title>
<path fill="none" stroke="midnightblue" d="M879.88,-448.29C868.67,-439.85 851.98,-426.26 840,-412 827.72,-397.39 816.84,-378.47 809.71,-364.82"/>
<polygon fill="midnightblue" stroke="midnightblue" points="812.66,-362.9 805.03,-355.56 806.42,-366.06 812.66,-362.9"/>
</g>
<!-- Node39&#45;&gt;Node34 -->
<g id="edge74" class="edge">
<title>Node39&#45;&gt;Node34</title>
<path fill="none" stroke="midnightblue" d="M888.5,-448.22C880.26,-427.91 858.56,-376.29 835,-336 829.31,-326.28 822.11,-316 815.97,-307.72"/>
<polygon fill="midnightblue" stroke="midnightblue" points="818.69,-305.51 809.86,-299.65 813.11,-309.74 818.69,-305.51"/>
</g>
<!-- Node40&#45;&gt;Node12 -->
<g id="edge79" class="edge">
<title>Node40&#45;&gt;Node12</title>
<path fill="none" stroke="midnightblue" d="M1147.04,-280.48C1149.98,-252.02 1155.3,-159.37 1107,-112 1083.56,-89.01 997,-76.97 938.34,-71.31"/>
<polygon fill="midnightblue" stroke="midnightblue" points="938.38,-67.8 928.1,-70.36 937.73,-74.77 938.38,-67.8"/>
</g>
<!-- Node40&#45;&gt;Node18 -->
<g id="edge82" class="edge">
<title>Node40&#45;&gt;Node18</title>
<path fill="none" stroke="midnightblue" d="M1139.94,-280.23C1129.61,-266 1107.14,-238.06 1081,-224 1010.69,-186.17 981.75,-209.99 905,-188 793.34,-156 665.41,-103.52 609.14,-79.59"/>
<polygon fill="midnightblue" stroke="midnightblue" points="610.37,-76.31 599.8,-75.6 607.62,-82.75 610.37,-76.31"/>
</g>
<!-- Node40&#45;&gt;Node19 -->
<g id="edge80" class="edge">
<title>Node40&#45;&gt;Node19</title>
<path fill="none" stroke="midnightblue" d="M1121.68,-282.05C1090.01,-273 1034.26,-257.07 996.49,-246.28"/>
<polygon fill="midnightblue" stroke="midnightblue" points="997.41,-242.9 986.83,-243.52 995.48,-249.64 997.41,-242.9"/>
</g>
<!-- Node40&#45;&gt;Node25 -->
<g id="edge81" class="edge">
<title>Node40&#45;&gt;Node25</title>
<path fill="none" stroke="midnightblue" d="M1129.93,-280.32C1114.04,-271.74 1089.49,-258.49 1071.04,-248.52"/>
<polygon fill="midnightblue" stroke="midnightblue" points="1072.49,-245.33 1062.03,-243.65 1069.16,-251.49 1072.49,-245.33"/>
</g>
<!-- Node40&#45;&gt;Node35 -->
<g id="edge83" class="edge">
<title>Node40&#45;&gt;Node35</title>
<path fill="none" stroke="midnightblue" d="M1152.77,-280.08C1158.56,-272.46 1167.06,-261.26 1174.14,-251.94"/>
<polygon fill="midnightblue" stroke="midnightblue" points="1177.1,-253.83 1180.36,-243.75 1171.52,-249.6 1177.1,-253.83"/>
</g>
</g>
</svg>
