<?xml version="1.0" encoding="UTF-8" standalone="no"?>
<!DOCTYPE svg PUBLIC "-//W3C//DTD SVG 1.1//EN"
 "http://www.w3.org/Graphics/SVG/1.1/DTD/svg11.dtd">
<!-- Generated by graphviz version 2.50.0 (20211204.2007)
 -->
<!-- Title: PluginListManager.h Pages: 1 -->
<svg width="552pt" height="308pt"
 viewBox="0.00 0.00 552.00 308.00" xmlns="http://www.w3.org/2000/svg" xmlns:xlink="http://www.w3.org/1999/xlink">
<g id="graph0" class="graph" transform="scale(1 1) rotate(0) translate(4 304)">
<title>PluginListManager.h</title>
<polygon fill="white" stroke="transparent" points="-4,4 -4,-304 548,-304 548,4 -4,4"/>
<!-- Node1 -->
<g id="node1" class="node">
<title>Node1</title>
<g id="a_node1"><a xlink:title=" ">
<polygon fill="#bfbfbf" stroke="black" points="268,-280.5 268,-299.5 373,-299.5 373,-280.5 268,-280.5"/>
<text text-anchor="middle" x="320.5" y="-287.5" font-family="Helvetica,sans-Serif" font-size="10.00">PluginListManager.h</text>
</a>
</g>
</g>
<!-- Node2 -->
<g id="node2" class="node">
<title>Node2</title>
<g id="a_node2"><a xlink:href="a00173.html" target="_top" xlink:title=" ">
<polygon fill="white" stroke="black" points="111,-224.5 111,-243.5 200,-243.5 200,-224.5 111,-224.5"/>
<text text-anchor="middle" x="155.5" y="-231.5" font-family="Helvetica,sans-Serif" font-size="10.00">commonTypes.h</text>
</a>
</g>
</g>
<!-- Node1&#45;&gt;Node2 -->
<g id="edge1" class="edge">
<title>Node1&#45;&gt;Node2</title>
<path fill="none" stroke="midnightblue" d="M294.36,-280.44C266.48,-271.32 222.15,-256.81 191.1,-246.65"/>
<polygon fill="midnightblue" stroke="midnightblue" points="192.12,-243.3 181.52,-243.52 189.94,-249.95 192.12,-243.3"/>
</g>
<!-- Node9 -->
<g id="node9" class="node">
<title>Node9</title>
<g id="a_node9"><a xlink:title=" ">
<polygon fill="white" stroke="#bfbfbf" points="218.5,-224.5 218.5,-243.5 276.5,-243.5 276.5,-224.5 218.5,-224.5"/>
<text text-anchor="middle" x="247.5" y="-231.5" font-family="Helvetica,sans-Serif" font-size="10.00">functional</text>
</a>
</g>
</g>
<!-- Node1&#45;&gt;Node9 -->
<g id="edge11" class="edge">
<title>Node1&#45;&gt;Node9</title>
<path fill="none" stroke="midnightblue" d="M308.77,-280.32C297.66,-272.11 280.76,-259.6 267.52,-249.81"/>
<polygon fill="midnightblue" stroke="midnightblue" points="269.56,-246.97 259.44,-243.83 265.4,-252.59 269.56,-246.97"/>
</g>
<!-- Node10 -->
<g id="node10" class="node">
<title>Node10</title>
<g id="a_node10"><a xlink:title=" ">
<polygon fill="white" stroke="#bfbfbf" points="294.5,-224.5 294.5,-243.5 346.5,-243.5 346.5,-224.5 294.5,-224.5"/>
<text text-anchor="middle" x="320.5" y="-231.5" font-family="Helvetica,sans-Serif" font-size="10.00">memory</text>
</a>
</g>
</g>
<!-- Node1&#45;&gt;Node10 -->
<g id="edge12" class="edge">
<title>Node1&#45;&gt;Node10</title>
<path fill="none" stroke="midnightblue" d="M320.5,-280.08C320.5,-273.01 320.5,-262.86 320.5,-253.99"/>
<polygon fill="midnightblue" stroke="midnightblue" points="324,-253.75 320.5,-243.75 317,-253.75 324,-253.75"/>
</g>
<!-- Node11 -->
<g id="node11" class="node">
<title>Node11</title>
<g id="a_node11"><a xlink:title=" ">
<polygon fill="white" stroke="#bfbfbf" points="364.5,-224.5 364.5,-243.5 442.5,-243.5 442.5,-224.5 364.5,-224.5"/>
<text text-anchor="middle" x="403.5" y="-231.5" font-family="Helvetica,sans-Serif" font-size="10.00">shared_mutex</text>
</a>
</g>
</g>
<!-- Node1&#45;&gt;Node11 -->
<g id="edge13" class="edge">
<title>Node1&#45;&gt;Node11</title>
<path fill="none" stroke="midnightblue" d="M333.84,-280.32C346.66,-271.98 366.28,-259.21 381.44,-249.35"/>
<polygon fill="midnightblue" stroke="midnightblue" points="383.72,-252.04 390.2,-243.65 379.91,-246.17 383.72,-252.04"/>
</g>
<!-- Node12 -->
<g id="node12" class="node">
<title>Node12</title>
<g id="a_node12"><a xlink:title=" ">
<polygon fill="white" stroke="#bfbfbf" points="461,-224.5 461,-243.5 544,-243.5 544,-224.5 461,-224.5"/>
<text text-anchor="middle" x="502.5" y="-231.5" font-family="Helvetica,sans-Serif" font-size="10.00">unordered_map</text>
</a>
</g>
</g>
<!-- Node1&#45;&gt;Node12 -->
<g id="edge14" class="edge">
<title>Node1&#45;&gt;Node12</title>
<path fill="none" stroke="midnightblue" d="M349.34,-280.44C380.36,-271.24 429.83,-256.56 464.12,-246.39"/>
<polygon fill="midnightblue" stroke="midnightblue" points="465.21,-249.72 473.8,-243.52 463.21,-243.01 465.21,-249.72"/>
</g>
<!-- Node3 -->
<g id="node3" class="node">
<title>Node3</title>
<g id="a_node3"><a xlink:href="a00044.html" target="_top" xlink:title=" ">
<polygon fill="white" stroke="black" points="183.5,-56.5 183.5,-75.5 275.5,-75.5 275.5,-56.5 183.5,-56.5"/>
<text text-anchor="middle" x="229.5" y="-63.5" font-family="Helvetica,sans-Serif" font-size="10.00">MiraiCPMacros.h</text>
</a>
</g>
</g>
<!-- Node2&#45;&gt;Node3 -->
<g id="edge2" class="edge">
<title>Node2&#45;&gt;Node3</title>
<path fill="none" stroke="midnightblue" d="M172.62,-224.39C186,-216.73 203.88,-204.23 213.5,-188 232.52,-155.91 232.95,-110.74 231.36,-85.65"/>
<polygon fill="midnightblue" stroke="midnightblue" points="234.85,-85.34 230.55,-75.65 227.87,-85.9 234.85,-85.34"/>
</g>
<!-- Node5 -->
<g id="node5" class="node">
<title>Node5</title>
<g id="a_node5"><a xlink:href="a00047.html" target="_top" xlink:title=" ">
<polygon fill="white" stroke="black" points="0,-112.5 0,-131.5 79,-131.5 79,-112.5 0,-112.5"/>
<text text-anchor="middle" x="39.5" y="-119.5" font-family="Helvetica,sans-Serif" font-size="10.00">PluginConfig.h</text>
</a>
</g>
</g>
<!-- Node2&#45;&gt;Node5 -->
<g id="edge4" class="edge">
<title>Node2&#45;&gt;Node5</title>
<path fill="none" stroke="midnightblue" d="M143.24,-224.24C131.36,-215.55 113.06,-201.59 98.5,-188 82.05,-172.64 64.95,-153.38 53.42,-139.82"/>
<polygon fill="midnightblue" stroke="midnightblue" points="55.82,-137.24 46.71,-131.84 50.46,-141.74 55.82,-137.24"/>
</g>
<!-- Node7 -->
<g id="node7" class="node">
<title>Node7</title>
<g id="a_node7"><a xlink:href="a00176.html" target="_top" xlink:title=" ">
<polygon fill="white" stroke="black" points="107,-168.5 107,-187.5 204,-187.5 204,-168.5 107,-168.5"/>
<text text-anchor="middle" x="155.5" y="-175.5" font-family="Helvetica,sans-Serif" font-size="10.00">loaderApiInternal.h</text>
</a>
</g>
</g>
<!-- Node2&#45;&gt;Node7 -->
<g id="edge6" class="edge">
<title>Node2&#45;&gt;Node7</title>
<path fill="none" stroke="midnightblue" d="M155.5,-224.08C155.5,-217.01 155.5,-206.86 155.5,-197.99"/>
<polygon fill="midnightblue" stroke="midnightblue" points="159,-197.75 155.5,-187.75 152,-197.75 159,-197.75"/>
</g>
<!-- Node4 -->
<g id="node4" class="node">
<title>Node4</title>
<g id="a_node4"><a xlink:title=" ">
<polygon fill="white" stroke="#bfbfbf" points="168,-0.5 168,-19.5 217,-19.5 217,-0.5 168,-0.5"/>
<text text-anchor="middle" x="192.5" y="-7.5" font-family="Helvetica,sans-Serif" font-size="10.00">cassert</text>
</a>
</g>
</g>
<!-- Node3&#45;&gt;Node4 -->
<g id="edge3" class="edge">
<title>Node3&#45;&gt;Node4</title>
<path fill="none" stroke="midnightblue" d="M223.39,-56.08C218.22,-48.53 210.65,-37.49 204.31,-28.23"/>
<polygon fill="midnightblue" stroke="midnightblue" points="207.04,-26.02 198.5,-19.75 201.26,-29.98 207.04,-26.02"/>
</g>
<!-- Node6 -->
<g id="node6" class="node">
<title>Node6</title>
<g id="a_node6"><a xlink:title=" ">
<polygon fill="white" stroke="#bfbfbf" points="53,-56.5 53,-75.5 94,-75.5 94,-56.5 53,-56.5"/>
<text text-anchor="middle" x="73.5" y="-63.5" font-family="Helvetica,sans-Serif" font-size="10.00">string</text>
</a>
</g>
</g>
<!-- Node5&#45;&gt;Node6 -->
<g id="edge5" class="edge">
<title>Node5&#45;&gt;Node6</title>
<path fill="none" stroke="midnightblue" d="M45.11,-112.08C49.87,-104.53 56.82,-93.49 62.65,-84.23"/>
<polygon fill="midnightblue" stroke="midnightblue" points="65.62,-86.08 67.99,-75.75 59.7,-82.35 65.62,-86.08"/>
</g>
<!-- Node8 -->
<g id="node8" class="node">
<title>Node8</title>
<g id="a_node8"><a xlink:href="a00182.html" target="_top" xlink:title=" ">
<polygon fill="white" stroke="black" points="97.5,-112.5 97.5,-131.5 213.5,-131.5 213.5,-112.5 97.5,-112.5"/>
<text text-anchor="middle" x="155.5" y="-119.5" font-family="Helvetica,sans-Serif" font-size="10.00">MiraiCPStringInternal.h</text>
</a>
</g>
</g>
<!-- Node7&#45;&gt;Node8 -->
<g id="edge7" class="edge">
<title>Node7&#45;&gt;Node8</title>
<path fill="none" stroke="midnightblue" d="M155.5,-168.08C155.5,-161.01 155.5,-150.86 155.5,-141.99"/>
<polygon fill="midnightblue" stroke="midnightblue" points="159,-141.75 155.5,-131.75 152,-141.75 159,-141.75"/>
</g>
<!-- Node8&#45;&gt;Node3 -->
<g id="edge8" class="edge">
<title>Node8&#45;&gt;Node3</title>
<path fill="none" stroke="midnightblue" d="M167.39,-112.32C178.65,-104.11 195.79,-91.6 209.21,-81.81"/>
<polygon fill="midnightblue" stroke="midnightblue" points="211.38,-84.56 217.39,-75.83 207.25,-78.9 211.38,-84.56"/>
</g>
<!-- Node8&#45;&gt;Node4 -->
<g id="edge9" class="edge">
<title>Node8&#45;&gt;Node4</title>
<path fill="none" stroke="midnightblue" d="M157.81,-112.08C161.15,-99.48 167.67,-75.78 174.5,-56 177.63,-46.94 181.54,-37.03 184.91,-28.83"/>
<polygon fill="midnightblue" stroke="midnightblue" points="188.17,-30.11 188.8,-19.53 181.71,-27.41 188.17,-30.11"/>
</g>
<!-- Node8&#45;&gt;Node6 -->
<g id="edge10" class="edge">
<title>Node8&#45;&gt;Node6</title>
<path fill="none" stroke="midnightblue" d="M142.33,-112.32C129.65,-103.98 110.27,-91.21 95.29,-81.35"/>
<polygon fill="midnightblue" stroke="midnightblue" points="96.92,-78.23 86.64,-75.65 93.07,-84.08 96.92,-78.23"/>
</g>
</g>
</svg>
