<?xml version="1.0" encoding="UTF-8" standalone="no"?>
<!DOCTYPE svg PUBLIC "-//W3C//DTD SVG 1.1//EN"
 "http://www.w3.org/Graphics/SVG/1.1/DTD/svg11.dtd">
<!-- Generated by graphviz version 9.0.0 (0)
 -->
<!-- Title: outTarget Pages: 1 -->
<svg width="375pt" height="90pt"
 viewBox="0.00 0.00 375.00 90.00" xmlns="http://www.w3.org/2000/svg" xmlns:xlink="http://www.w3.org/1999/xlink">
<g id="graph0" class="graph" transform="scale(1 1) rotate(0) translate(4 86)">
<title>outTarget</title>
<!-- Node1 -->
<g id="Node000001" class="node">
<title>Node1</title>
<g id="a_Node000001"><a xlink:title=" ">
<polygon fill="#999999" stroke="#666666" points="367,-51 310.5,-51 310.5,-31 367,-31 367,-51"/>
<text text-anchor="middle" x="338.75" y="-37.5" font-family="Helvetica,sans-Serif" font-size="10.00">outTarget</text>
</a>
</g>
</g>
<!-- Node2 -->
<g id="Node000002" class="node">
<title>Node2</title>
<g id="a_Node000002"><a xlink:href="a00428.html#a46ebe1f3f5d7f68b71a86572066a0f66" target="_top" xlink:title=" ">
<polygon fill="white" stroke="#666666" points="274.5,-82 172.25,-82 172.25,-50 274.5,-50 274.5,-82"/>
<text text-anchor="start" x="180.25" y="-68.5" font-family="Helvetica,sans-Serif" font-size="10.00">MiraiCP::Redirector</text>
<text text-anchor="middle" x="223.38" y="-56.5" font-family="Helvetica,sans-Serif" font-size="10.00">::SetCoutRecorder</text>
</a>
</g>
</g>
<!-- Node1&#45;&gt;Node2 -->
<g id="edge1_Node000001_Node000002" class="edge">
<title>Node1&#45;&gt;Node2</title>
<g id="a_edge1_Node000001_Node000002"><a xlink:title=" ">
<path fill="none" stroke="#63b8ff" d="M299.04,-49.54C291.25,-51.25 282.95,-53.08 274.83,-54.87"/>
<polygon fill="#63b8ff" stroke="#63b8ff" points="299.53,-53.01 308.54,-47.44 298.02,-46.18 299.53,-53.01"/>
</a>
</g>
</g>
<!-- Node3 -->
<g id="Node000003" class="node">
<title>Node3</title>
<g id="a_Node000003"><a xlink:href="a00428.html#a2c77251c039e439f1dd5018eab3dc0b8" target="_top" xlink:title="start redirecting cout and cerr">
<polygon fill="white" stroke="#666666" points="274.5,-32 172.25,-32 172.25,0 274.5,0 274.5,-32"/>
<text text-anchor="start" x="180.25" y="-18.5" font-family="Helvetica,sans-Serif" font-size="10.00">MiraiCP::Redirector</text>
<text text-anchor="middle" x="223.38" y="-6.5" font-family="Helvetica,sans-Serif" font-size="10.00">::start</text>
</a>
</g>
</g>
<!-- Node1&#45;&gt;Node3 -->
<g id="edge2_Node000001_Node000003" class="edge">
<title>Node1&#45;&gt;Node3</title>
<g id="a_edge2_Node000001_Node000003"><a xlink:title=" ">
<path fill="none" stroke="#63b8ff" d="M299.04,-32.46C291.25,-30.75 282.95,-28.92 274.83,-27.13"/>
<polygon fill="#63b8ff" stroke="#63b8ff" points="298.02,-35.82 308.54,-34.56 299.53,-28.99 298.02,-35.82"/>
</a>
</g>
</g>
<!-- Node4 -->
<g id="Node000004" class="node">
<title>Node4</title>
<g id="a_Node000004"><a xlink:href="a00314.html#aafbc26593c69471626589f38c751ef09" target="_top" xlink:title=" ">
<polygon fill="white" stroke="#666666" points="136.25,-26 76.75,-26 76.75,-6 136.25,-6 136.25,-26"/>
<text text-anchor="middle" x="106.5" y="-12.5" font-family="Helvetica,sans-Serif" font-size="10.00">VerifyImpl</text>
</a>
</g>
</g>
<!-- Node3&#45;&gt;Node4 -->
<g id="edge3_Node000003_Node000004" class="edge">
<title>Node3&#45;&gt;Node4</title>
<g id="a_edge3_Node000003_Node000004"><a xlink:title=" ">
<path fill="none" stroke="#63b8ff" d="M160.63,-16C152.3,-16 144.1,-16 136.72,-16"/>
<polygon fill="#63b8ff" stroke="#63b8ff" points="160.48,-19.5 170.48,-16 160.48,-12.5 160.48,-19.5"/>
</a>
</g>
</g>
<!-- Node5 -->
<g id="Node000005" class="node">
<title>Node5</title>
<g id="a_Node000005"><a xlink:href="a00314.html#a3712cdeefe60fa2a92efa90cd6200b02" target="_top" xlink:title=" ">
<polygon fill="white" stroke="#666666" points="40.75,-26 0,-26 0,-6 40.75,-6 40.75,-26"/>
<text text-anchor="middle" x="20.38" y="-12.5" font-family="Helvetica,sans-Serif" font-size="10.00">Verify</text>
</a>
</g>
</g>
<!-- Node4&#45;&gt;Node5 -->
<g id="edge4_Node000004_Node000005" class="edge">
<title>Node4&#45;&gt;Node5</title>
<g id="a_edge4_Node000004_Node000005"><a xlink:title=" ">
<path fill="none" stroke="#63b8ff" d="M65.27,-16C56.87,-16 48.37,-16 41.11,-16"/>
<polygon fill="#63b8ff" stroke="#63b8ff" points="65.04,-19.5 75.04,-16 65.04,-12.5 65.04,-19.5"/>
</a>
</g>
</g>
</g>
</svg>
