<?xml version="1.0" encoding="UTF-8" standalone="no"?>
<!DOCTYPE svg PUBLIC "-//W3C//DTD SVG 1.1//EN"
 "http://www.w3.org/Graphics/SVG/1.1/DTD/svg11.dtd">
<!-- Generated by graphviz version 2.50.0 (20211204.2007)
 -->
<!-- Title: Friend.cpp Pages: 1 -->
<svg width="1312pt" height="644pt"
 viewBox="0.00 0.00 1311.50 644.00" xmlns="http://www.w3.org/2000/svg" xmlns:xlink="http://www.w3.org/1999/xlink">
<g id="graph0" class="graph" transform="scale(1 1) rotate(0) translate(4 640)">
<title>Friend.cpp</title>
<polygon fill="white" stroke="transparent" points="-4,4 -4,-640 1307.5,-640 1307.5,4 -4,4"/>
<!-- Node1 -->
<g id="node1" class="node">
<title>Node1</title>
<g id="a_node1"><a xlink:title=" ">
<polygon fill="#bfbfbf" stroke="black" points="1014.5,-616.5 1014.5,-635.5 1076.5,-635.5 1076.5,-616.5 1014.5,-616.5"/>
<text text-anchor="middle" x="1045.5" y="-623.5" font-family="Helvetica,sans-Serif" font-size="10.00">Friend.cpp</text>
</a>
</g>
</g>
<!-- Node2 -->
<g id="node2" class="node">
<title>Node2</title>
<g id="a_node2"><a xlink:href="a00095.html" target="_top" xlink:title=" ">
<polygon fill="white" stroke="black" points="1019.5,-560.5 1019.5,-579.5 1071.5,-579.5 1071.5,-560.5 1019.5,-560.5"/>
<text text-anchor="middle" x="1045.5" y="-567.5" font-family="Helvetica,sans-Serif" font-size="10.00">Friend.h</text>
</a>
</g>
</g>
<!-- Node1&#45;&gt;Node2 -->
<g id="edge1" class="edge">
<title>Node1&#45;&gt;Node2</title>
<path fill="none" stroke="midnightblue" d="M1045.5,-616.08C1045.5,-609.01 1045.5,-598.86 1045.5,-589.99"/>
<polygon fill="midnightblue" stroke="midnightblue" points="1049,-589.75 1045.5,-579.75 1042,-589.75 1049,-589.75"/>
</g>
<!-- Node8 -->
<g id="node8" class="node">
<title>Node8</title>
<g id="a_node8"><a xlink:href="a00104.html" target="_top" xlink:title=" ">
<polygon fill="white" stroke="black" points="1090,-448.5 1090,-467.5 1167,-467.5 1167,-448.5 1090,-448.5"/>
<text text-anchor="middle" x="1128.5" y="-455.5" font-family="Helvetica,sans-Serif" font-size="10.00">KtOperation.h</text>
</a>
</g>
</g>
<!-- Node1&#45;&gt;Node8 -->
<g id="edge56" class="edge">
<title>Node1&#45;&gt;Node8</title>
<path fill="none" stroke="midnightblue" d="M1053.55,-616.23C1061.23,-607.54 1072.74,-593.58 1080.5,-580 1100.15,-545.63 1115.38,-501.64 1123.04,-477.29"/>
<polygon fill="midnightblue" stroke="midnightblue" points="1126.43,-478.18 1126.02,-467.59 1119.74,-476.12 1126.43,-478.18"/>
</g>
<!-- Node9 -->
<g id="node9" class="node">
<title>Node9</title>
<g id="a_node9"><a xlink:href="a00113.html" target="_top" xlink:title=" ">
<polygon fill="white" stroke="black" points="1223.5,-448.5 1223.5,-467.5 1303.5,-467.5 1303.5,-448.5 1223.5,-448.5"/>
<text text-anchor="middle" x="1263.5" y="-455.5" font-family="Helvetica,sans-Serif" font-size="10.00">LowLevelAPI.h</text>
</a>
</g>
</g>
<!-- Node1&#45;&gt;Node9 -->
<g id="edge57" class="edge">
<title>Node1&#45;&gt;Node9</title>
<path fill="none" stroke="midnightblue" d="M1056.91,-616.31C1092.23,-589.42 1200,-507.35 1244.24,-473.67"/>
<polygon fill="midnightblue" stroke="midnightblue" points="1246.36,-476.45 1252.2,-467.61 1242.12,-470.88 1246.36,-476.45"/>
</g>
<!-- Node13 -->
<g id="node13" class="node">
<title>Node13</title>
<g id="a_node13"><a xlink:href="a00089.html" target="_top" xlink:title=" ">
<polygon fill="white" stroke="black" points="171.5,-392.5 171.5,-411.5 239.5,-411.5 239.5,-392.5 171.5,-392.5"/>
<text text-anchor="middle" x="205.5" y="-399.5" font-family="Helvetica,sans-Serif" font-size="10.00">Exception.h</text>
</a>
</g>
</g>
<!-- Node1&#45;&gt;Node13 -->
<g id="edge55" class="edge">
<title>Node1&#45;&gt;Node13</title>
<path fill="none" stroke="midnightblue" d="M1014.28,-625.34C874.85,-626.6 313.4,-628.58 253.5,-580 205.52,-541.09 202.7,-459.5 204.14,-422.27"/>
<polygon fill="midnightblue" stroke="midnightblue" points="207.66,-422.02 204.71,-411.85 200.67,-421.64 207.66,-422.02"/>
</g>
<!-- Node34 -->
<g id="node34" class="node">
<title>Node34</title>
<g id="a_node34"><a xlink:href="a00143.html" target="_top" xlink:title=" ">
<polygon fill="white" stroke="black" points="298.5,-280.5 298.5,-299.5 346.5,-299.5 346.5,-280.5 298.5,-280.5"/>
<text text-anchor="middle" x="322.5" y="-287.5" font-family="Helvetica,sans-Serif" font-size="10.00">Tools.h</text>
</a>
</g>
</g>
<!-- Node1&#45;&gt;Node34 -->
<g id="edge58" class="edge">
<title>Node1&#45;&gt;Node34</title>
<path fill="none" stroke="midnightblue" d="M1014.04,-623.93C868.49,-618.56 267.5,-591.73 267.5,-515 267.5,-515 267.5,-515 267.5,-401 267.5,-364.57 291.93,-327.84 308.23,-307.39"/>
<polygon fill="midnightblue" stroke="midnightblue" points="310.94,-309.6 314.62,-299.67 305.55,-305.14 310.94,-309.6"/>
</g>
<!-- Node3 -->
<g id="node3" class="node">
<title>Node3</title>
<g id="a_node3"><a xlink:href="a00080.html" target="_top" xlink:title=" ">
<polygon fill="white" stroke="black" points="1016,-504.5 1016,-523.5 1075,-523.5 1075,-504.5 1016,-504.5"/>
<text text-anchor="middle" x="1045.5" y="-511.5" font-family="Helvetica,sans-Serif" font-size="10.00">Contact.h</text>
</a>
</g>
</g>
<!-- Node2&#45;&gt;Node3 -->
<g id="edge2" class="edge">
<title>Node2&#45;&gt;Node3</title>
<path fill="none" stroke="midnightblue" d="M1045.5,-560.08C1045.5,-553.01 1045.5,-542.86 1045.5,-533.99"/>
<polygon fill="midnightblue" stroke="midnightblue" points="1049,-533.75 1045.5,-523.75 1042,-533.75 1049,-533.75"/>
</g>
<!-- Node4 -->
<g id="node4" class="node">
<title>Node4</title>
<g id="a_node4"><a xlink:href="a00101.html" target="_top" xlink:title=" ">
<polygon fill="white" stroke="black" points="1003.5,-448.5 1003.5,-467.5 1071.5,-467.5 1071.5,-448.5 1003.5,-448.5"/>
<text text-anchor="middle" x="1037.5" y="-455.5" font-family="Helvetica,sans-Serif" font-size="10.00">IMiraiData.h</text>
</a>
</g>
</g>
<!-- Node3&#45;&gt;Node4 -->
<g id="edge3" class="edge">
<title>Node3&#45;&gt;Node4</title>
<path fill="none" stroke="midnightblue" d="M1044.18,-504.08C1043.12,-496.93 1041.59,-486.64 1040.27,-477.69"/>
<polygon fill="midnightblue" stroke="midnightblue" points="1043.72,-477.13 1038.8,-467.75 1036.8,-478.16 1043.72,-477.13"/>
</g>
<!-- Node5 -->
<g id="node5" class="node">
<title>Node5</title>
<g id="a_node5"><a xlink:title=" ">
<polygon fill="white" stroke="#bfbfbf" points="1094,-280.5 1094,-299.5 1167,-299.5 1167,-280.5 1094,-280.5"/>
<text text-anchor="middle" x="1130.5" y="-287.5" font-family="Helvetica,sans-Serif" font-size="10.00">json_fwd.hpp</text>
</a>
</g>
</g>
<!-- Node3&#45;&gt;Node5 -->
<g id="edge53" class="edge">
<title>Node3&#45;&gt;Node5</title>
<path fill="none" stroke="midnightblue" d="M1027.4,-504.45C990.46,-485.77 912.13,-439.2 940.5,-392 958.23,-362.49 1048.91,-323.12 1098.31,-303.39"/>
<polygon fill="midnightblue" stroke="midnightblue" points="1099.88,-306.53 1107.9,-299.6 1097.31,-300.02 1099.88,-306.53"/>
</g>
<!-- Node3&#45;&gt;Node8 -->
<g id="edge7" class="edge">
<title>Node3&#45;&gt;Node8</title>
<path fill="none" stroke="midnightblue" d="M1058.84,-504.32C1071.66,-495.98 1091.28,-483.21 1106.44,-473.35"/>
<polygon fill="midnightblue" stroke="midnightblue" points="1108.72,-476.04 1115.2,-467.65 1104.91,-470.17 1108.72,-476.04"/>
</g>
<!-- Node3&#45;&gt;Node9 -->
<g id="edge9" class="edge">
<title>Node3&#45;&gt;Node9</title>
<path fill="none" stroke="midnightblue" d="M1075.35,-505.6C1112.49,-496.41 1176.22,-480.62 1219.1,-470"/>
<polygon fill="midnightblue" stroke="midnightblue" points="1220.11,-473.35 1228.98,-467.55 1218.43,-466.56 1220.11,-473.35"/>
</g>
<!-- Node10 -->
<g id="node10" class="node">
<title>Node10</title>
<g id="a_node10"><a xlink:href="a00119.html" target="_top" xlink:title=" ">
<polygon fill="white" stroke="black" points="366,-448.5 366,-467.5 455,-467.5 455,-448.5 366,-448.5"/>
<text text-anchor="middle" x="410.5" y="-455.5" font-family="Helvetica,sans-Serif" font-size="10.00">MessageChain.h</text>
</a>
</g>
</g>
<!-- Node3&#45;&gt;Node10 -->
<g id="edge11" class="edge">
<title>Node3&#45;&gt;Node10</title>
<path fill="none" stroke="midnightblue" d="M1015.72,-510.47C916.29,-502.01 594.7,-474.66 465.24,-463.66"/>
<polygon fill="midnightblue" stroke="midnightblue" points="465.42,-460.16 455.15,-462.8 464.82,-467.13 465.42,-460.16"/>
</g>
<!-- Node17 -->
<g id="node17" class="node">
<title>Node17</title>
<g id="a_node17"><a xlink:title=" ">
<polygon fill="white" stroke="#bfbfbf" points="808,-56.5 808,-75.5 849,-75.5 849,-56.5 808,-56.5"/>
<text text-anchor="middle" x="828.5" y="-63.5" font-family="Helvetica,sans-Serif" font-size="10.00">string</text>
</a>
</g>
</g>
<!-- Node3&#45;&gt;Node17 -->
<g id="edge54" class="edge">
<title>Node3&#45;&gt;Node17</title>
<path fill="none" stroke="midnightblue" d="M1075.19,-510.58C1104.85,-506.58 1149.77,-496.01 1176.5,-468 1197.28,-446.23 1195.5,-433.1 1195.5,-403 1195.5,-403 1195.5,-403 1195.5,-177 1195.5,-107 947.43,-77.75 859.19,-69.56"/>
<polygon fill="midnightblue" stroke="midnightblue" points="859.29,-66.05 849.02,-68.64 858.66,-73.02 859.29,-66.05"/>
</g>
<!-- Node4&#45;&gt;Node5 -->
<g id="edge4" class="edge">
<title>Node4&#45;&gt;Node5</title>
<path fill="none" stroke="midnightblue" d="M1056,-448.36C1070.27,-440.75 1089.4,-428.34 1100.5,-412 1121.91,-380.49 1128.06,-335.1 1129.81,-309.82"/>
<polygon fill="midnightblue" stroke="midnightblue" points="1133.31,-309.91 1130.35,-299.74 1126.32,-309.54 1133.31,-309.91"/>
</g>
<!-- Node6 -->
<g id="node6" class="node">
<title>Node6</title>
<g id="a_node6"><a xlink:title=" ">
<polygon fill="white" stroke="#bfbfbf" points="1045.5,-392.5 1045.5,-411.5 1091.5,-411.5 1091.5,-392.5 1045.5,-392.5"/>
<text text-anchor="middle" x="1068.5" y="-399.5" font-family="Helvetica,sans-Serif" font-size="10.00">atomic</text>
</a>
</g>
</g>
<!-- Node4&#45;&gt;Node6 -->
<g id="edge5" class="edge">
<title>Node4&#45;&gt;Node6</title>
<path fill="none" stroke="midnightblue" d="M1042.62,-448.08C1046.91,-440.61 1053.16,-429.72 1058.44,-420.52"/>
<polygon fill="midnightblue" stroke="midnightblue" points="1061.53,-422.17 1063.48,-411.75 1055.46,-418.68 1061.53,-422.17"/>
</g>
<!-- Node7 -->
<g id="node7" class="node">
<title>Node7</title>
<g id="a_node7"><a xlink:title=" ">
<polygon fill="white" stroke="#bfbfbf" points="949.5,-392.5 949.5,-411.5 1027.5,-411.5 1027.5,-392.5 949.5,-392.5"/>
<text text-anchor="middle" x="988.5" y="-399.5" font-family="Helvetica,sans-Serif" font-size="10.00">shared_mutex</text>
</a>
</g>
</g>
<!-- Node4&#45;&gt;Node7 -->
<g id="edge6" class="edge">
<title>Node4&#45;&gt;Node7</title>
<path fill="none" stroke="midnightblue" d="M1029.41,-448.08C1022.34,-440.3 1011.91,-428.8 1003.35,-419.37"/>
<polygon fill="midnightblue" stroke="midnightblue" points="1005.75,-416.8 996.44,-411.75 1000.57,-421.51 1005.75,-416.8"/>
</g>
<!-- Node8&#45;&gt;Node5 -->
<g id="edge8" class="edge">
<title>Node8&#45;&gt;Node5</title>
<path fill="none" stroke="midnightblue" d="M1129.74,-448.4C1130.98,-439.36 1132.8,-424.71 1133.5,-412 1135.37,-378.27 1134.62,-369.76 1133.5,-336 1133.21,-327.38 1132.62,-317.85 1132.03,-309.79"/>
<polygon fill="midnightblue" stroke="midnightblue" points="1135.51,-309.32 1131.25,-299.62 1128.53,-309.86 1135.51,-309.32"/>
</g>
<!-- Node9&#45;&gt;Node5 -->
<g id="edge10" class="edge">
<title>Node9&#45;&gt;Node5</title>
<path fill="none" stroke="midnightblue" d="M1256.35,-448.08C1235.05,-421.49 1171.79,-342.54 1143.93,-307.76"/>
<polygon fill="midnightblue" stroke="midnightblue" points="1146.35,-305.18 1137.36,-299.57 1140.89,-309.56 1146.35,-305.18"/>
</g>
<!-- Node11 -->
<g id="node11" class="node">
<title>Node11</title>
<g id="a_node11"><a xlink:href="a00011.html" target="_top" xlink:title=" ">
<polygon fill="white" stroke="black" points="418.5,-56.5 418.5,-75.5 510.5,-75.5 510.5,-56.5 418.5,-56.5"/>
<text text-anchor="middle" x="464.5" y="-63.5" font-family="Helvetica,sans-Serif" font-size="10.00">MiraiCPMacros.h</text>
</a>
</g>
</g>
<!-- Node10&#45;&gt;Node11 -->
<g id="edge12" class="edge">
<title>Node10&#45;&gt;Node11</title>
<path fill="none" stroke="midnightblue" d="M399.69,-448.32C349.2,-406.81 143.17,-225.8 241.5,-112 262.81,-87.33 349.38,-75.77 408.17,-70.66"/>
<polygon fill="midnightblue" stroke="midnightblue" points="408.76,-74.12 418.44,-69.81 408.18,-67.15 408.76,-74.12"/>
</g>
<!-- Node10&#45;&gt;Node13 -->
<g id="edge14" class="edge">
<title>Node10&#45;&gt;Node13</title>
<path fill="none" stroke="midnightblue" d="M378.02,-448.44C342.78,-439.16 286.4,-424.31 247.74,-414.13"/>
<polygon fill="midnightblue" stroke="midnightblue" points="248.39,-410.68 237.83,-411.52 246.61,-417.45 248.39,-410.68"/>
</g>
<!-- Node28 -->
<g id="node28" class="node">
<title>Node28</title>
<g id="a_node28"><a xlink:href="a00137.html" target="_top" xlink:title=" ">
<polygon fill="white" stroke="black" points="721.5,-336.5 721.5,-355.5 813.5,-355.5 813.5,-336.5 721.5,-336.5"/>
<text text-anchor="middle" x="767.5" y="-343.5" font-family="Helvetica,sans-Serif" font-size="10.00">SingleMessage.h</text>
</a>
</g>
</g>
<!-- Node10&#45;&gt;Node28 -->
<g id="edge37" class="edge">
<title>Node10&#45;&gt;Node28</title>
<path fill="none" stroke="midnightblue" d="M438.22,-448.46C501.74,-428.89 657.91,-380.77 729.97,-358.57"/>
<polygon fill="midnightblue" stroke="midnightblue" points="731.03,-361.9 739.56,-355.61 728.97,-355.21 731.03,-361.9"/>
</g>
<!-- Node33 -->
<g id="node33" class="node">
<title>Node33</title>
<g id="a_node33"><a xlink:href="a00002.html" target="_top" xlink:title=" ">
<polygon fill="white" stroke="black" points="367.5,-280.5 367.5,-299.5 453.5,-299.5 453.5,-280.5 367.5,-280.5"/>
<text text-anchor="middle" x="410.5" y="-287.5" font-family="Helvetica,sans-Serif" font-size="10.00">commonTools.h</text>
</a>
</g>
</g>
<!-- Node10&#45;&gt;Node33 -->
<g id="edge50" class="edge">
<title>Node10&#45;&gt;Node33</title>
<path fill="none" stroke="midnightblue" d="M410.5,-448.08C410.5,-421.95 410.5,-345.21 410.5,-309.58"/>
<polygon fill="midnightblue" stroke="midnightblue" points="414,-309.57 410.5,-299.57 407,-309.57 414,-309.57"/>
</g>
<!-- Node12 -->
<g id="node12" class="node">
<title>Node12</title>
<g id="a_node12"><a xlink:title=" ">
<polygon fill="white" stroke="#bfbfbf" points="403,-0.5 403,-19.5 452,-19.5 452,-0.5 403,-0.5"/>
<text text-anchor="middle" x="427.5" y="-7.5" font-family="Helvetica,sans-Serif" font-size="10.00">cassert</text>
</a>
</g>
</g>
<!-- Node11&#45;&gt;Node12 -->
<g id="edge13" class="edge">
<title>Node11&#45;&gt;Node12</title>
<path fill="none" stroke="midnightblue" d="M458.39,-56.08C453.22,-48.53 445.65,-37.49 439.31,-28.23"/>
<polygon fill="midnightblue" stroke="midnightblue" points="442.04,-26.02 433.5,-19.75 436.26,-29.98 442.04,-26.02"/>
</g>
<!-- Node13&#45;&gt;Node11 -->
<g id="edge15" class="edge">
<title>Node13&#45;&gt;Node11</title>
<path fill="none" stroke="midnightblue" d="M197.48,-392.36C181.99,-374.74 149.5,-332.79 149.5,-291 149.5,-291 149.5,-291 149.5,-177 149.5,-146.2 149.66,-131.49 173.5,-112 208.47,-83.42 333.79,-72.85 408.08,-69.05"/>
<polygon fill="midnightblue" stroke="midnightblue" points="408.4,-72.54 418.21,-68.56 408.06,-65.55 408.4,-72.54"/>
</g>
<!-- Node14 -->
<g id="node14" class="node">
<title>Node14</title>
<g id="a_node14"><a xlink:href="a00083.html" target="_top" xlink:title=" ">
<polygon fill="white" stroke="black" points="450.5,-336.5 450.5,-355.5 522.5,-355.5 522.5,-336.5 450.5,-336.5"/>
<text text-anchor="middle" x="486.5" y="-343.5" font-family="Helvetica,sans-Serif" font-size="10.00">CPPPlugin.h</text>
</a>
</g>
</g>
<!-- Node13&#45;&gt;Node14 -->
<g id="edge16" class="edge">
<title>Node13&#45;&gt;Node14</title>
<path fill="none" stroke="midnightblue" d="M239.68,-394.43C289.93,-384.77 383.9,-366.72 440.28,-355.88"/>
<polygon fill="midnightblue" stroke="midnightblue" points="441.19,-359.27 450.35,-353.95 439.87,-352.4 441.19,-359.27"/>
</g>
<!-- Node13&#45;&gt;Node17 -->
<g id="edge35" class="edge">
<title>Node13&#45;&gt;Node17</title>
<path fill="none" stroke="midnightblue" d="M239.56,-400.84C333.27,-399.9 602.6,-393.83 822.5,-356 941.4,-335.55 1065.5,-355.65 1065.5,-235 1065.5,-235 1065.5,-235 1065.5,-177 1065.5,-87.16 923.66,-70.49 859.44,-67.55"/>
<polygon fill="midnightblue" stroke="midnightblue" points="859.24,-64.04 849.12,-67.16 858.98,-71.03 859.24,-64.04"/>
</g>
<!-- Node26 -->
<g id="node26" class="node">
<title>Node26</title>
<g id="a_node26"><a xlink:title=" ">
<polygon fill="white" stroke="#bfbfbf" points="0,-336.5 0,-355.5 59,-355.5 59,-336.5 0,-336.5"/>
<text text-anchor="middle" x="29.5" y="-343.5" font-family="Helvetica,sans-Serif" font-size="10.00">exception</text>
</a>
</g>
</g>
<!-- Node13&#45;&gt;Node26 -->
<g id="edge34" class="edge">
<title>Node13&#45;&gt;Node26</title>
<path fill="none" stroke="midnightblue" d="M177.61,-392.44C147.75,-383.28 100.19,-368.69 67.04,-358.52"/>
<polygon fill="midnightblue" stroke="midnightblue" points="67.84,-355.1 57.26,-355.52 65.79,-361.8 67.84,-355.1"/>
</g>
<!-- Node27 -->
<g id="node27" class="node">
<title>Node27</title>
<g id="a_node27"><a xlink:title=" ">
<polygon fill="white" stroke="#bfbfbf" points="77.5,-336.5 77.5,-355.5 121.5,-355.5 121.5,-336.5 77.5,-336.5"/>
<text text-anchor="middle" x="99.5" y="-343.5" font-family="Helvetica,sans-Serif" font-size="10.00">thread</text>
</a>
</g>
</g>
<!-- Node13&#45;&gt;Node27 -->
<g id="edge36" class="edge">
<title>Node13&#45;&gt;Node27</title>
<path fill="none" stroke="midnightblue" d="M188.47,-392.32C171.47,-383.66 145.12,-370.24 125.51,-360.25"/>
<polygon fill="midnightblue" stroke="midnightblue" points="126.99,-357.08 116.49,-355.65 123.81,-363.31 126.99,-357.08"/>
</g>
<!-- Node15 -->
<g id="node15" class="node">
<title>Node15</title>
<g id="a_node15"><a xlink:href="a00110.html" target="_top" xlink:title=" ">
<polygon fill="white" stroke="black" points="471.5,-280.5 471.5,-299.5 525.5,-299.5 525.5,-280.5 471.5,-280.5"/>
<text text-anchor="middle" x="498.5" y="-287.5" font-family="Helvetica,sans-Serif" font-size="10.00">Logger.h</text>
</a>
</g>
</g>
<!-- Node14&#45;&gt;Node15 -->
<g id="edge17" class="edge">
<title>Node14&#45;&gt;Node15</title>
<path fill="none" stroke="midnightblue" d="M488.48,-336.08C490.07,-328.93 492.36,-318.64 494.35,-309.69"/>
<polygon fill="midnightblue" stroke="midnightblue" points="497.8,-310.27 496.56,-299.75 490.97,-308.75 497.8,-310.27"/>
</g>
<!-- Node19 -->
<g id="node19" class="node">
<title>Node19</title>
<g id="a_node19"><a xlink:href="a00020.html" target="_top" xlink:title=" ">
<polygon fill="white" stroke="black" points="254,-168.5 254,-187.5 333,-187.5 333,-168.5 254,-168.5"/>
<text text-anchor="middle" x="293.5" y="-175.5" font-family="Helvetica,sans-Serif" font-size="10.00">PluginConfig.h</text>
</a>
</g>
</g>
<!-- Node14&#45;&gt;Node19 -->
<g id="edge32" class="edge">
<title>Node14&#45;&gt;Node19</title>
<path fill="none" stroke="midnightblue" d="M450.32,-341.65C399.47,-336.15 310.68,-323.42 289.5,-300 264.1,-271.91 276.43,-223.43 285.97,-197.17"/>
<polygon fill="midnightblue" stroke="midnightblue" points="289.29,-198.28 289.65,-187.69 282.77,-195.75 289.29,-198.28"/>
</g>
<!-- Node25 -->
<g id="node25" class="node">
<title>Node25</title>
<g id="a_node25"><a xlink:title=" ">
<polygon fill="white" stroke="#bfbfbf" points="543.5,-280.5 543.5,-299.5 583.5,-299.5 583.5,-280.5 543.5,-280.5"/>
<text text-anchor="middle" x="563.5" y="-287.5" font-family="Helvetica,sans-Serif" font-size="10.00">utility</text>
</a>
</g>
</g>
<!-- Node14&#45;&gt;Node25 -->
<g id="edge33" class="edge">
<title>Node14&#45;&gt;Node25</title>
<path fill="none" stroke="midnightblue" d="M498.87,-336.32C510.66,-328.06 528.63,-315.45 542.64,-305.63"/>
<polygon fill="midnightblue" stroke="midnightblue" points="544.98,-308.26 551.16,-299.65 540.96,-302.53 544.98,-308.26"/>
</g>
<!-- Node16 -->
<g id="node16" class="node">
<title>Node16</title>
<g id="a_node16"><a xlink:href="a00125.html" target="_top" xlink:title=" ">
<polygon fill="white" stroke="black" points="757.5,-224.5 757.5,-243.5 825.5,-243.5 825.5,-224.5 757.5,-224.5"/>
<text text-anchor="middle" x="791.5" y="-231.5" font-family="Helvetica,sans-Serif" font-size="10.00">MiraiCode.h</text>
</a>
</g>
</g>
<!-- Node15&#45;&gt;Node16 -->
<g id="edge18" class="edge">
<title>Node15&#45;&gt;Node16</title>
<path fill="none" stroke="midnightblue" d="M525.58,-282.01C528.58,-281.3 531.6,-280.62 534.5,-280 608.7,-264.25 695.8,-249.85 747.17,-241.77"/>
<polygon fill="midnightblue" stroke="midnightblue" points="747.92,-245.2 757.26,-240.2 746.84,-238.28 747.92,-245.2"/>
</g>
<!-- Node18 -->
<g id="node18" class="node">
<title>Node18</title>
<g id="a_node18"><a xlink:href="a00005.html" target="_top" xlink:title=" ">
<polygon fill="white" stroke="black" points="352,-224.5 352,-243.5 441,-243.5 441,-224.5 352,-224.5"/>
<text text-anchor="middle" x="396.5" y="-231.5" font-family="Helvetica,sans-Serif" font-size="10.00">commonTypes.h</text>
</a>
</g>
</g>
<!-- Node15&#45;&gt;Node18 -->
<g id="edge20" class="edge">
<title>Node15&#45;&gt;Node18</title>
<path fill="none" stroke="midnightblue" d="M482.11,-280.32C465.83,-271.7 440.63,-258.36 421.78,-248.39"/>
<polygon fill="midnightblue" stroke="midnightblue" points="423.32,-245.24 412.85,-243.65 420.05,-251.43 423.32,-245.24"/>
</g>
<!-- Node23 -->
<g id="node23" class="node">
<title>Node23</title>
<g id="a_node23"><a xlink:title=" ">
<polygon fill="white" stroke="#bfbfbf" points="535.5,-224.5 535.5,-243.5 593.5,-243.5 593.5,-224.5 535.5,-224.5"/>
<text text-anchor="middle" x="564.5" y="-231.5" font-family="Helvetica,sans-Serif" font-size="10.00">functional</text>
</a>
</g>
</g>
<!-- Node15&#45;&gt;Node23 -->
<g id="edge30" class="edge">
<title>Node15&#45;&gt;Node23</title>
<path fill="none" stroke="midnightblue" d="M509.1,-280.32C518.96,-272.26 533.85,-260.08 545.72,-250.37"/>
<polygon fill="midnightblue" stroke="midnightblue" points="548.18,-252.88 553.7,-243.83 543.75,-247.46 548.18,-252.88"/>
</g>
<!-- Node24 -->
<g id="node24" class="node">
<title>Node24</title>
<g id="a_node24"><a xlink:title=" ">
<polygon fill="white" stroke="#bfbfbf" points="611.5,-224.5 611.5,-243.5 663.5,-243.5 663.5,-224.5 611.5,-224.5"/>
<text text-anchor="middle" x="637.5" y="-231.5" font-family="Helvetica,sans-Serif" font-size="10.00">sstream</text>
</a>
</g>
</g>
<!-- Node15&#45;&gt;Node24 -->
<g id="edge31" class="edge">
<title>Node15&#45;&gt;Node24</title>
<path fill="none" stroke="midnightblue" d="M520.52,-280.44C543.6,-271.48 580.06,-257.31 606.14,-247.18"/>
<polygon fill="midnightblue" stroke="midnightblue" points="607.52,-250.4 615.58,-243.52 604.99,-243.88 607.52,-250.4"/>
</g>
<!-- Node16&#45;&gt;Node17 -->
<g id="edge19" class="edge">
<title>Node16&#45;&gt;Node17</title>
<path fill="none" stroke="midnightblue" d="M793.49,-224.08C799.31,-197.95 816.42,-121.21 824.36,-85.58"/>
<polygon fill="midnightblue" stroke="midnightblue" points="827.83,-86.09 826.59,-75.57 821,-84.57 827.83,-86.09"/>
</g>
<!-- Node18&#45;&gt;Node11 -->
<g id="edge21" class="edge">
<title>Node18&#45;&gt;Node11</title>
<path fill="none" stroke="midnightblue" d="M415.83,-224.42C430.05,-216.99 448.41,-204.78 457.5,-188 475.15,-155.43 471.83,-110.44 468.04,-85.51"/>
<polygon fill="midnightblue" stroke="midnightblue" points="471.48,-84.85 466.34,-75.58 464.58,-86.03 471.48,-84.85"/>
</g>
<!-- Node18&#45;&gt;Node19 -->
<g id="edge22" class="edge">
<title>Node18&#45;&gt;Node19</title>
<path fill="none" stroke="midnightblue" d="M379.95,-224.32C363.51,-215.7 338.07,-202.36 319.03,-192.39"/>
<polygon fill="midnightblue" stroke="midnightblue" points="320.49,-189.2 310.01,-187.65 317.24,-195.4 320.49,-189.2"/>
</g>
<!-- Node22 -->
<g id="node22" class="node">
<title>Node22</title>
<g id="a_node22"><a xlink:href="a00008.html" target="_top" xlink:title=" ">
<polygon fill="white" stroke="black" points="351,-168.5 351,-187.5 448,-187.5 448,-168.5 351,-168.5"/>
<text text-anchor="middle" x="399.5" y="-175.5" font-family="Helvetica,sans-Serif" font-size="10.00">loaderApiInternal.h</text>
</a>
</g>
</g>
<!-- Node18&#45;&gt;Node22 -->
<g id="edge28" class="edge">
<title>Node18&#45;&gt;Node22</title>
<path fill="none" stroke="midnightblue" d="M397,-224.08C397.39,-217.01 397.95,-206.86 398.45,-197.99"/>
<polygon fill="midnightblue" stroke="midnightblue" points="401.95,-197.93 399.01,-187.75 394.96,-197.54 401.95,-197.93"/>
</g>
<!-- Node20 -->
<g id="node20" class="node">
<title>Node20</title>
<g id="a_node20"><a xlink:href="a00014.html" target="_top" xlink:title=" ">
<polygon fill="white" stroke="black" points="332.5,-112.5 332.5,-131.5 448.5,-131.5 448.5,-112.5 332.5,-112.5"/>
<text text-anchor="middle" x="390.5" y="-119.5" font-family="Helvetica,sans-Serif" font-size="10.00">MiraiCPStringInternal.h</text>
</a>
</g>
</g>
<!-- Node19&#45;&gt;Node20 -->
<g id="edge23" class="edge">
<title>Node19&#45;&gt;Node20</title>
<path fill="none" stroke="midnightblue" d="M309.08,-168.32C324.5,-159.74 348.31,-146.49 366.21,-136.52"/>
<polygon fill="midnightblue" stroke="midnightblue" points="367.92,-139.58 374.95,-131.65 364.51,-133.46 367.92,-139.58"/>
</g>
<!-- Node21 -->
<g id="node21" class="node">
<title>Node21</title>
<g id="a_node21"><a xlink:title=" ">
<polygon fill="white" stroke="#bfbfbf" points="261,-112.5 261,-131.5 314,-131.5 314,-112.5 261,-112.5"/>
<text text-anchor="middle" x="287.5" y="-119.5" font-family="Helvetica,sans-Serif" font-size="10.00">json.hpp</text>
</a>
</g>
</g>
<!-- Node19&#45;&gt;Node21 -->
<g id="edge27" class="edge">
<title>Node19&#45;&gt;Node21</title>
<path fill="none" stroke="midnightblue" d="M292.51,-168.08C291.71,-160.93 290.57,-150.64 289.58,-141.69"/>
<polygon fill="midnightblue" stroke="midnightblue" points="293.06,-141.3 288.47,-131.75 286.1,-142.08 293.06,-141.3"/>
</g>
<!-- Node20&#45;&gt;Node11 -->
<g id="edge24" class="edge">
<title>Node20&#45;&gt;Node11</title>
<path fill="none" stroke="midnightblue" d="M402.39,-112.32C413.65,-104.11 430.79,-91.6 444.21,-81.81"/>
<polygon fill="midnightblue" stroke="midnightblue" points="446.38,-84.56 452.39,-75.83 442.25,-78.9 446.38,-84.56"/>
</g>
<!-- Node20&#45;&gt;Node12 -->
<g id="edge25" class="edge">
<title>Node20&#45;&gt;Node12</title>
<path fill="none" stroke="midnightblue" d="M392.81,-112.08C396.15,-99.48 402.67,-75.78 409.5,-56 412.63,-46.94 416.54,-37.03 419.91,-28.83"/>
<polygon fill="midnightblue" stroke="midnightblue" points="423.17,-30.11 423.8,-19.53 416.71,-27.41 423.17,-30.11"/>
</g>
<!-- Node20&#45;&gt;Node17 -->
<g id="edge26" class="edge">
<title>Node20&#45;&gt;Node17</title>
<path fill="none" stroke="midnightblue" d="M448.66,-113.83C542.73,-102.23 725.04,-79.76 797.61,-70.81"/>
<polygon fill="midnightblue" stroke="midnightblue" points="798.4,-74.24 807.89,-69.54 797.54,-67.29 798.4,-74.24"/>
</g>
<!-- Node22&#45;&gt;Node20 -->
<g id="edge29" class="edge">
<title>Node22&#45;&gt;Node20</title>
<path fill="none" stroke="midnightblue" d="M398.01,-168.08C396.82,-160.93 395.11,-150.64 393.62,-141.69"/>
<polygon fill="midnightblue" stroke="midnightblue" points="397.05,-141.04 391.96,-131.75 390.15,-142.19 397.05,-141.04"/>
</g>
<!-- Node28&#45;&gt;Node5 -->
<g id="edge45" class="edge">
<title>Node28&#45;&gt;Node5</title>
<path fill="none" stroke="midnightblue" d="M813.84,-338.11C883.29,-327.77 1013.64,-308.38 1083.48,-297.99"/>
<polygon fill="midnightblue" stroke="midnightblue" points="1084.37,-301.4 1093.74,-296.47 1083.34,-294.48 1084.37,-301.4"/>
</g>
<!-- Node28&#45;&gt;Node11 -->
<g id="edge38" class="edge">
<title>Node28&#45;&gt;Node11</title>
<path fill="none" stroke="midnightblue" d="M724.43,-336.49C704.1,-330.07 681.68,-318.99 669.5,-300 651.25,-271.54 687.57,-254.26 672.5,-224 635.42,-149.55 544.33,-101.07 495.93,-79.65"/>
<polygon fill="midnightblue" stroke="midnightblue" points="497.13,-76.35 486.56,-75.6 494.36,-82.78 497.13,-76.35"/>
</g>
<!-- Node28&#45;&gt;Node16 -->
<g id="edge43" class="edge">
<title>Node28&#45;&gt;Node16</title>
<path fill="none" stroke="midnightblue" d="M813.72,-343.16C876.64,-339.57 984.23,-329.22 1008.5,-300 1056.44,-242.28 912.41,-234.49 835.92,-234.27"/>
<polygon fill="midnightblue" stroke="midnightblue" points="835.59,-230.77 825.6,-234.28 835.6,-237.77 835.59,-230.77"/>
</g>
<!-- Node28&#45;&gt;Node24 -->
<g id="edge47" class="edge">
<title>Node28&#45;&gt;Node24</title>
<path fill="none" stroke="midnightblue" d="M721.29,-342.4C691.52,-338.05 654.87,-327.07 635.5,-300 625.96,-286.67 627.89,-267.55 631.34,-253.5"/>
<polygon fill="midnightblue" stroke="midnightblue" points="634.81,-254.1 634.25,-243.52 628.09,-252.15 634.81,-254.1"/>
</g>
<!-- Node28&#45;&gt;Node25 -->
<g id="edge49" class="edge">
<title>Node28&#45;&gt;Node25</title>
<path fill="none" stroke="midnightblue" d="M735.18,-336.44C696.25,-326.14 631.41,-308.98 593.54,-298.95"/>
<polygon fill="midnightblue" stroke="midnightblue" points="594.18,-295.5 583.61,-296.32 592.39,-302.27 594.18,-295.5"/>
</g>
<!-- Node29 -->
<g id="node29" class="node">
<title>Node29</title>
<g id="a_node29"><a xlink:href="a00122.html" target="_top" xlink:title=" ">
<polygon fill="white" stroke="black" points="678,-280.5 678,-299.5 773,-299.5 773,-280.5 678,-280.5"/>
<text text-anchor="middle" x="725.5" y="-287.5" font-family="Helvetica,sans-Serif" font-size="10.00">MessageSource.h</text>
</a>
</g>
</g>
<!-- Node28&#45;&gt;Node29 -->
<g id="edge39" class="edge">
<title>Node28&#45;&gt;Node29</title>
<path fill="none" stroke="midnightblue" d="M760.56,-336.08C754.57,-328.38 745.75,-317.03 738.45,-307.65"/>
<polygon fill="midnightblue" stroke="midnightblue" points="741.21,-305.5 732.31,-299.75 735.68,-309.79 741.21,-305.5"/>
</g>
<!-- Node30 -->
<g id="node30" class="node">
<title>Node30</title>
<g id="a_node30"><a xlink:title=" ">
<polygon fill="white" stroke="#bfbfbf" points="791.5,-280.5 791.5,-299.5 829.5,-299.5 829.5,-280.5 791.5,-280.5"/>
<text text-anchor="middle" x="810.5" y="-287.5" font-family="Helvetica,sans-Serif" font-size="10.00">array</text>
</a>
</g>
</g>
<!-- Node28&#45;&gt;Node30 -->
<g id="edge44" class="edge">
<title>Node28&#45;&gt;Node30</title>
<path fill="none" stroke="midnightblue" d="M774.6,-336.08C780.74,-328.38 789.77,-317.03 797.24,-307.65"/>
<polygon fill="midnightblue" stroke="midnightblue" points="800.04,-309.75 803.53,-299.75 794.56,-305.39 800.04,-309.75"/>
</g>
<!-- Node31 -->
<g id="node31" class="node">
<title>Node31</title>
<g id="a_node31"><a xlink:title=" ">
<polygon fill="white" stroke="#bfbfbf" points="847.5,-280.5 847.5,-299.5 897.5,-299.5 897.5,-280.5 847.5,-280.5"/>
<text text-anchor="middle" x="872.5" y="-287.5" font-family="Helvetica,sans-Serif" font-size="10.00">optional</text>
</a>
</g>
</g>
<!-- Node28&#45;&gt;Node31 -->
<g id="edge46" class="edge">
<title>Node28&#45;&gt;Node31</title>
<path fill="none" stroke="midnightblue" d="M784.37,-336.32C801.21,-327.66 827.31,-314.24 846.74,-304.25"/>
<polygon fill="midnightblue" stroke="midnightblue" points="848.38,-307.34 855.67,-299.65 845.18,-301.12 848.38,-307.34"/>
</g>
<!-- Node32 -->
<g id="node32" class="node">
<title>Node32</title>
<g id="a_node32"><a xlink:title=" ">
<polygon fill="white" stroke="#bfbfbf" points="916,-280.5 916,-299.5 999,-299.5 999,-280.5 916,-280.5"/>
<text text-anchor="middle" x="957.5" y="-287.5" font-family="Helvetica,sans-Serif" font-size="10.00">unordered_map</text>
</a>
</g>
</g>
<!-- Node28&#45;&gt;Node32 -->
<g id="edge48" class="edge">
<title>Node28&#45;&gt;Node32</title>
<path fill="none" stroke="midnightblue" d="M797.61,-336.44C830.13,-327.2 882.08,-312.44 917.89,-302.26"/>
<polygon fill="midnightblue" stroke="midnightblue" points="918.87,-305.62 927.53,-299.52 916.96,-298.88 918.87,-305.62"/>
</g>
<!-- Node29&#45;&gt;Node11 -->
<g id="edge40" class="edge">
<title>Node29&#45;&gt;Node11</title>
<path fill="none" stroke="midnightblue" d="M725.5,-280.41C724.99,-251.71 719.26,-158.41 667.5,-112 646.14,-92.85 573.08,-80.14 520.74,-73.25"/>
<polygon fill="midnightblue" stroke="midnightblue" points="520.93,-69.74 510.57,-71.95 520.04,-76.69 520.93,-69.74"/>
</g>
<!-- Node29&#45;&gt;Node17 -->
<g id="edge42" class="edge">
<title>Node29&#45;&gt;Node17</title>
<path fill="none" stroke="midnightblue" d="M773.26,-281.76C795.83,-275.68 820.78,-264.5 834.5,-244 867.36,-194.88 847.5,-119.75 835.56,-85.35"/>
<polygon fill="midnightblue" stroke="midnightblue" points="838.75,-83.89 832.03,-75.7 832.17,-86.29 838.75,-83.89"/>
</g>
<!-- Node29&#45;&gt;Node18 -->
<g id="edge41" class="edge">
<title>Node29&#45;&gt;Node18</title>
<path fill="none" stroke="midnightblue" d="M677.66,-281.15C617.56,-271.28 514.66,-254.39 451.41,-244.01"/>
<polygon fill="midnightblue" stroke="midnightblue" points="451.66,-240.51 441.23,-242.34 450.53,-247.42 451.66,-240.51"/>
</g>
<!-- Node33&#45;&gt;Node11 -->
<g id="edge51" class="edge">
<title>Node33&#45;&gt;Node11</title>
<path fill="none" stroke="midnightblue" d="M419.71,-280.39C428.48,-271.82 441.65,-257.94 450.5,-244 465.02,-221.14 466.74,-213.94 474.5,-188 484.27,-155.36 491.57,-145.33 484.5,-112 482.5,-102.59 478.4,-92.76 474.43,-84.7"/>
<polygon fill="midnightblue" stroke="midnightblue" points="477.39,-82.81 469.63,-75.59 471.19,-86.07 477.39,-82.81"/>
</g>
<!-- Node33&#45;&gt;Node23 -->
<g id="edge52" class="edge">
<title>Node33&#45;&gt;Node23</title>
<path fill="none" stroke="midnightblue" d="M434.9,-280.44C460.7,-271.4 501.58,-257.06 530.52,-246.92"/>
<polygon fill="midnightblue" stroke="midnightblue" points="531.93,-250.13 540.21,-243.52 529.62,-243.52 531.93,-250.13"/>
</g>
<!-- Node34&#45;&gt;Node11 -->
<g id="edge59" class="edge">
<title>Node34&#45;&gt;Node11</title>
<path fill="none" stroke="midnightblue" d="M312.09,-280.35C293.84,-264.38 256.86,-228.24 244.5,-188 238.47,-168.37 244.92,-119.16 251.5,-112 272.27,-89.41 352.4,-77.37 408.22,-71.59"/>
<polygon fill="midnightblue" stroke="midnightblue" points="408.74,-75.05 418.34,-70.58 408.04,-68.09 408.74,-75.05"/>
</g>
<!-- Node34&#45;&gt;Node17 -->
<g id="edge62" class="edge">
<title>Node34&#45;&gt;Node17</title>
<path fill="none" stroke="midnightblue" d="M346.83,-281.25C372.78,-272.8 414.96,-258.53 450.5,-244 585.52,-188.81 741.91,-110.98 802.59,-80.23"/>
<polygon fill="midnightblue" stroke="midnightblue" points="804.48,-83.2 811.81,-75.55 801.31,-76.96 804.48,-83.2"/>
</g>
<!-- Node34&#45;&gt;Node18 -->
<g id="edge60" class="edge">
<title>Node34&#45;&gt;Node18</title>
<path fill="none" stroke="midnightblue" d="M334.39,-280.32C345.65,-272.11 362.79,-259.6 376.21,-249.81"/>
<polygon fill="midnightblue" stroke="midnightblue" points="378.38,-252.56 384.39,-243.83 374.25,-246.9 378.38,-252.56"/>
</g>
<!-- Node34&#45;&gt;Node24 -->
<g id="edge61" class="edge">
<title>Node34&#45;&gt;Node24</title>
<path fill="none" stroke="midnightblue" d="M346.83,-282.57C350.72,-281.65 354.71,-280.75 358.5,-280 462.88,-259.31 493.28,-265.29 601.21,-244.08"/>
<polygon fill="midnightblue" stroke="midnightblue" points="602.08,-247.47 611.2,-242.08 600.7,-240.61 602.08,-247.47"/>
</g>
<!-- Node35 -->
<g id="node35" class="node">
<title>Node35</title>
<g id="a_node35"><a xlink:title=" ">
<polygon fill="white" stroke="#bfbfbf" points="291.5,-224.5 291.5,-243.5 333.5,-243.5 333.5,-224.5 291.5,-224.5"/>
<text text-anchor="middle" x="312.5" y="-231.5" font-family="Helvetica,sans-Serif" font-size="10.00">vector</text>
</a>
</g>
</g>
<!-- Node34&#45;&gt;Node35 -->
<g id="edge63" class="edge">
<title>Node34&#45;&gt;Node35</title>
<path fill="none" stroke="midnightblue" d="M320.85,-280.08C319.52,-272.93 317.62,-262.64 315.96,-253.69"/>
<polygon fill="midnightblue" stroke="midnightblue" points="319.38,-252.95 314.12,-243.75 312.5,-254.22 319.38,-252.95"/>
</g>
</g>
</svg>
