<?xml version="1.0" encoding="UTF-8" standalone="no"?>
<!DOCTYPE svg PUBLIC "-//W3C//DTD SVG 1.1//EN"
 "http://www.w3.org/Graphics/SVG/1.1/DTD/svg11.dtd">
<!-- Generated by graphviz version 2.50.0 (20211204.2007)
 -->
<!-- Title: PluginListManager.cpp Pages: 1 -->
<svg width="1114pt" height="420pt"
 viewBox="0.00 0.00 1114.00 420.00" xmlns="http://www.w3.org/2000/svg" xmlns:xlink="http://www.w3.org/1999/xlink">
<g id="graph0" class="graph" transform="scale(1 1) rotate(0) translate(4 416)">
<title>PluginListManager.cpp</title>
<polygon fill="white" stroke="transparent" points="-4,4 -4,-416 1110,-416 1110,4 -4,4"/>
<!-- Node1 -->
<g id="node1" class="node">
<title>Node1</title>
<g id="a_node1"><a xlink:title=" ">
<polygon fill="#bfbfbf" stroke="black" points="599,-392.5 599,-411.5 715,-411.5 715,-392.5 599,-392.5"/>
<text text-anchor="middle" x="657" y="-399.5" font-family="Helvetica,sans-Serif" font-size="10.00">PluginListManager.cpp</text>
</a>
</g>
</g>
<!-- Node2 -->
<g id="node2" class="node">
<title>Node2</title>
<g id="a_node2"><a xlink:href="a00101.html" target="_top" xlink:title=" ">
<polygon fill="white" stroke="black" points="476.5,-336.5 476.5,-355.5 581.5,-355.5 581.5,-336.5 476.5,-336.5"/>
<text text-anchor="middle" x="529" y="-343.5" font-family="Helvetica,sans-Serif" font-size="10.00">PluginListManager.h</text>
</a>
</g>
</g>
<!-- Node1&#45;&gt;Node2 -->
<g id="edge1" class="edge">
<title>Node1&#45;&gt;Node2</title>
<path fill="none" stroke="midnightblue" d="M636.72,-392.44C615.65,-383.56 582.48,-369.56 558.51,-359.45"/>
<polygon fill="midnightblue" stroke="midnightblue" points="559.76,-356.18 549.19,-355.52 557.04,-362.63 559.76,-356.18"/>
</g>
<!-- Node6 -->
<g id="node6" class="node">
<title>Node6</title>
<g id="a_node6"><a xlink:href="a00053.html" target="_top" xlink:title=" ">
<polygon fill="white" stroke="black" points="636.5,-168.5 636.5,-187.5 715.5,-187.5 715.5,-168.5 636.5,-168.5"/>
<text text-anchor="middle" x="676" y="-175.5" font-family="Helvetica,sans-Serif" font-size="10.00">PluginConfig.h</text>
</a>
</g>
</g>
<!-- Node1&#45;&gt;Node6 -->
<g id="edge32" class="edge">
<title>Node1&#45;&gt;Node6</title>
<path fill="none" stroke="midnightblue" d="M659.35,-392.45C661.72,-383.46 665.26,-368.85 667,-356 674.77,-298.7 675.98,-230.15 676.08,-197.74"/>
<polygon fill="midnightblue" stroke="midnightblue" points="679.58,-197.52 676.07,-187.52 672.58,-197.52 679.58,-197.52"/>
</g>
<!-- Node8 -->
<g id="node8" class="node">
<title>Node8</title>
<g id="a_node8"><a xlink:title=" ">
<polygon fill="white" stroke="#bfbfbf" points="216.5,-56.5 216.5,-75.5 257.5,-75.5 257.5,-56.5 216.5,-56.5"/>
<text text-anchor="middle" x="237" y="-63.5" font-family="Helvetica,sans-Serif" font-size="10.00">string</text>
</a>
</g>
</g>
<!-- Node1&#45;&gt;Node8 -->
<g id="edge49" class="edge">
<title>Node1&#45;&gt;Node8</title>
<path fill="none" stroke="midnightblue" d="M598.73,-398.47C482.39,-393.01 225.2,-378.73 140,-356 73.72,-338.31 0,-359.6 0,-291 0,-291 0,-291 0,-177 0,-87.16 141.84,-70.49 206.06,-67.55"/>
<polygon fill="midnightblue" stroke="midnightblue" points="206.52,-71.03 216.38,-67.16 206.26,-64.04 206.52,-71.03"/>
</g>
<!-- Node12 -->
<g id="node12" class="node">
<title>Node12</title>
<g id="a_node12"><a xlink:title=" ">
<polygon fill="white" stroke="#bfbfbf" points="844,-336.5 844,-355.5 948,-355.5 948,-336.5 844,-336.5"/>
<text text-anchor="middle" x="896" y="-343.5" font-family="Helvetica,sans-Serif" font-size="10.00">BS_thread_pool.hpp</text>
</a>
</g>
</g>
<!-- Node1&#45;&gt;Node12 -->
<g id="edge14" class="edge">
<title>Node1&#45;&gt;Node12</title>
<path fill="none" stroke="midnightblue" d="M694.87,-392.44C736.48,-383.04 803.37,-367.93 848.47,-357.74"/>
<polygon fill="midnightblue" stroke="midnightblue" points="849.32,-361.13 858.31,-355.52 847.78,-354.31 849.32,-361.13"/>
</g>
<!-- Node13 -->
<g id="node13" class="node">
<title>Node13</title>
<g id="a_node13"><a xlink:href="a00077.html" target="_top" xlink:title=" ">
<polygon fill="white" stroke="black" points="54.5,-280.5 54.5,-299.5 157.5,-299.5 157.5,-280.5 54.5,-280.5"/>
<text text-anchor="middle" x="106" y="-287.5" font-family="Helvetica,sans-Serif" font-size="10.00">LoaderExceptions.h</text>
</a>
</g>
</g>
<!-- Node1&#45;&gt;Node13 -->
<g id="edge15" class="edge">
<title>Node1&#45;&gt;Node13</title>
<path fill="none" stroke="midnightblue" d="M598.96,-400.45C487.17,-398.61 246.48,-390.62 172,-356 149.08,-345.35 129.43,-323.28 117.67,-307.82"/>
<polygon fill="midnightblue" stroke="midnightblue" points="120.41,-305.64 111.69,-299.62 114.76,-309.77 120.41,-305.64"/>
</g>
<!-- Node14 -->
<g id="node14" class="node">
<title>Node14</title>
<g id="a_node14"><a xlink:href="a00080.html" target="_top" xlink:title=" ">
<polygon fill="white" stroke="black" points="144.5,-224.5 144.5,-243.5 227.5,-243.5 227.5,-224.5 144.5,-224.5"/>
<text text-anchor="middle" x="186" y="-231.5" font-family="Helvetica,sans-Serif" font-size="10.00">LoaderLogger.h</text>
</a>
</g>
</g>
<!-- Node1&#45;&gt;Node14 -->
<g id="edge22" class="edge">
<title>Node1&#45;&gt;Node14</title>
<path fill="none" stroke="midnightblue" d="M598.95,-396.5C536.79,-390.75 435.67,-378.71 351,-356 285.87,-338.53 257.09,-348.26 210,-300 197.8,-287.5 191.72,-268.27 188.74,-253.97"/>
<polygon fill="midnightblue" stroke="midnightblue" points="192.13,-253.02 186.96,-243.77 185.23,-254.23 192.13,-253.02"/>
</g>
<!-- Node17 -->
<g id="node17" class="node">
<title>Node17</title>
<g id="a_node17"><a xlink:href="a00095.html" target="_top" xlink:title=" ">
<polygon fill="white" stroke="black" points="360,-336.5 360,-355.5 412,-355.5 412,-336.5 360,-336.5"/>
<text text-anchor="middle" x="386" y="-343.5" font-family="Helvetica,sans-Serif" font-size="10.00">Plugin.h</text>
</a>
</g>
</g>
<!-- Node1&#45;&gt;Node17 -->
<g id="edge23" class="edge">
<title>Node1&#45;&gt;Node17</title>
<path fill="none" stroke="midnightblue" d="M614.06,-392.44C561.11,-381.89 472.04,-364.15 422.33,-354.24"/>
<polygon fill="midnightblue" stroke="midnightblue" points="422.84,-350.77 412.35,-352.25 421.47,-357.64 422.84,-350.77"/>
</g>
<!-- Node21 -->
<g id="node21" class="node">
<title>Node21</title>
<g id="a_node21"><a xlink:href="a00038.html" target="_top" xlink:title=" ">
<polygon fill="white" stroke="black" points="714,-280.5 714,-299.5 800,-299.5 800,-280.5 714,-280.5"/>
<text text-anchor="middle" x="757" y="-287.5" font-family="Helvetica,sans-Serif" font-size="10.00">commonTools.h</text>
</a>
</g>
</g>
<!-- Node1&#45;&gt;Node21 -->
<g id="edge33" class="edge">
<title>Node1&#45;&gt;Node21</title>
<path fill="none" stroke="midnightblue" d="M665.35,-392.48C674.1,-383.5 688.18,-368.91 700,-356 714.96,-339.65 731.63,-320.54 743.05,-307.29"/>
<polygon fill="midnightblue" stroke="midnightblue" points="745.87,-309.38 749.74,-299.52 740.56,-304.82 745.87,-309.38"/>
</g>
<!-- Node23 -->
<g id="node23" class="node">
<title>Node23</title>
<g id="a_node23"><a xlink:href="a00074.html" target="_top" xlink:title=" ">
<polygon fill="white" stroke="black" points="600,-336.5 600,-355.5 658,-355.5 658,-336.5 600,-336.5"/>
<text text-anchor="middle" x="629" y="-343.5" font-family="Helvetica,sans-Serif" font-size="10.00">libOpen.h</text>
</a>
</g>
</g>
<!-- Node1&#45;&gt;Node23 -->
<g id="edge36" class="edge">
<title>Node1&#45;&gt;Node23</title>
<path fill="none" stroke="midnightblue" d="M652.38,-392.08C648.54,-384.69 642.98,-373.95 638.24,-364.81"/>
<polygon fill="midnightblue" stroke="midnightblue" points="641.25,-363.02 633.54,-355.75 635.03,-366.24 641.25,-363.02"/>
</g>
<!-- Node24 -->
<g id="node24" class="node">
<title>Node24</title>
<g id="a_node24"><a xlink:href="a00092.html" target="_top" xlink:title=" ">
<polygon fill="white" stroke="black" points="752,-336.5 752,-355.5 826,-355.5 826,-336.5 752,-336.5"/>
<text text-anchor="middle" x="789" y="-343.5" font-family="Helvetica,sans-Serif" font-size="10.00">loaderTools.h</text>
</a>
</g>
</g>
<!-- Node1&#45;&gt;Node24 -->
<g id="edge38" class="edge">
<title>Node1&#45;&gt;Node24</title>
<path fill="none" stroke="midnightblue" d="M677.92,-392.44C699.74,-383.52 734.15,-369.44 758.89,-359.32"/>
<polygon fill="midnightblue" stroke="midnightblue" points="760.25,-362.54 768.18,-355.52 757.6,-356.06 760.25,-362.54"/>
</g>
<!-- Node29 -->
<g id="node29" class="node">
<title>Node29</title>
<g id="a_node29"><a xlink:title=" ">
<polygon fill="white" stroke="#bfbfbf" points="966,-336.5 966,-355.5 1018,-355.5 1018,-336.5 966,-336.5"/>
<text text-anchor="middle" x="992" y="-343.5" font-family="Helvetica,sans-Serif" font-size="10.00">sstream</text>
</a>
</g>
</g>
<!-- Node1&#45;&gt;Node29 -->
<g id="edge48" class="edge">
<title>Node1&#45;&gt;Node29</title>
<path fill="none" stroke="midnightblue" d="M715.1,-394.08C773.57,-386.72 866.5,-373.92 955.68,-356.1"/>
<polygon fill="midnightblue" stroke="midnightblue" points="956.59,-359.49 965.69,-354.07 955.2,-352.63 956.59,-359.49"/>
</g>
<!-- Node30 -->
<g id="node30" class="node">
<title>Node30</title>
<g id="a_node30"><a xlink:title=" ">
<polygon fill="white" stroke="#bfbfbf" points="1036,-336.5 1036,-355.5 1076,-355.5 1076,-336.5 1036,-336.5"/>
<text text-anchor="middle" x="1056" y="-343.5" font-family="Helvetica,sans-Serif" font-size="10.00">utility</text>
</a>
</g>
</g>
<!-- Node1&#45;&gt;Node30 -->
<g id="edge50" class="edge">
<title>Node1&#45;&gt;Node30</title>
<path fill="none" stroke="midnightblue" d="M715.21,-397.17C786.48,-391.77 910.87,-380 1025.82,-355.9"/>
<polygon fill="midnightblue" stroke="midnightblue" points="1026.79,-359.27 1035.84,-353.76 1025.33,-352.43 1026.79,-359.27"/>
</g>
<!-- Node3 -->
<g id="node3" class="node">
<title>Node3</title>
<g id="a_node3"><a xlink:href="a00041.html" target="_top" xlink:title=" ">
<polygon fill="white" stroke="black" points="558.5,-224.5 558.5,-243.5 647.5,-243.5 647.5,-224.5 558.5,-224.5"/>
<text text-anchor="middle" x="603" y="-231.5" font-family="Helvetica,sans-Serif" font-size="10.00">commonTypes.h</text>
</a>
</g>
</g>
<!-- Node2&#45;&gt;Node3 -->
<g id="edge2" class="edge">
<title>Node2&#45;&gt;Node3</title>
<path fill="none" stroke="midnightblue" d="M547.48,-336.47C561.67,-328.92 580.57,-316.54 591,-300 599.71,-286.2 602.44,-267.68 603.16,-253.94"/>
<polygon fill="midnightblue" stroke="midnightblue" points="606.66,-253.8 603.36,-243.73 599.66,-253.65 606.66,-253.8"/>
</g>
<!-- Node11 -->
<g id="node11" class="node">
<title>Node11</title>
<g id="a_node11"><a xlink:title=" ">
<polygon fill="white" stroke="#bfbfbf" points="414,-280.5 414,-299.5 492,-299.5 492,-280.5 414,-280.5"/>
<text text-anchor="middle" x="453" y="-287.5" font-family="Helvetica,sans-Serif" font-size="10.00">shared_mutex</text>
</a>
</g>
</g>
<!-- Node2&#45;&gt;Node11 -->
<g id="edge13" class="edge">
<title>Node2&#45;&gt;Node11</title>
<path fill="none" stroke="midnightblue" d="M516.79,-336.32C505.22,-328.11 487.62,-315.6 473.84,-305.81"/>
<polygon fill="midnightblue" stroke="midnightblue" points="475.61,-302.77 465.43,-299.83 471.56,-308.48 475.61,-302.77"/>
</g>
<!-- Node4 -->
<g id="node4" class="node">
<title>Node4</title>
<g id="a_node4"><a xlink:href="a00047.html" target="_top" xlink:title=" ">
<polygon fill="white" stroke="black" points="698,-56.5 698,-75.5 790,-75.5 790,-56.5 698,-56.5"/>
<text text-anchor="middle" x="744" y="-63.5" font-family="Helvetica,sans-Serif" font-size="10.00">MiraiCPMacros.h</text>
</a>
</g>
</g>
<!-- Node3&#45;&gt;Node4 -->
<g id="edge3" class="edge">
<title>Node3&#45;&gt;Node4</title>
<path fill="none" stroke="midnightblue" d="M647.55,-227.84C674.02,-222.38 706.04,-211.13 725,-188 748.95,-158.77 748.81,-111.82 746.48,-85.83"/>
<polygon fill="midnightblue" stroke="midnightblue" points="749.95,-85.35 745.37,-75.8 742.99,-86.12 749.95,-85.35"/>
</g>
<!-- Node3&#45;&gt;Node6 -->
<g id="edge5" class="edge">
<title>Node3&#45;&gt;Node6</title>
<path fill="none" stroke="midnightblue" d="M614.73,-224.32C625.84,-216.11 642.74,-203.6 655.98,-193.81"/>
<polygon fill="midnightblue" stroke="midnightblue" points="658.1,-196.59 664.06,-187.83 653.94,-190.97 658.1,-196.59"/>
</g>
<!-- Node10 -->
<g id="node10" class="node">
<title>Node10</title>
<g id="a_node10"><a xlink:href="a00044.html" target="_top" xlink:title=" ">
<polygon fill="white" stroke="black" points="521.5,-168.5 521.5,-187.5 618.5,-187.5 618.5,-168.5 521.5,-168.5"/>
<text text-anchor="middle" x="570" y="-175.5" font-family="Helvetica,sans-Serif" font-size="10.00">loaderApiInternal.h</text>
</a>
</g>
</g>
<!-- Node3&#45;&gt;Node10 -->
<g id="edge11" class="edge">
<title>Node3&#45;&gt;Node10</title>
<path fill="none" stroke="midnightblue" d="M597.55,-224.08C592.99,-216.61 586.33,-205.72 580.71,-196.52"/>
<polygon fill="midnightblue" stroke="midnightblue" points="583.55,-194.46 575.35,-187.75 577.58,-198.11 583.55,-194.46"/>
</g>
<!-- Node5 -->
<g id="node5" class="node">
<title>Node5</title>
<g id="a_node5"><a xlink:title=" ">
<polygon fill="white" stroke="#bfbfbf" points="676.5,-0.5 676.5,-19.5 725.5,-19.5 725.5,-0.5 676.5,-0.5"/>
<text text-anchor="middle" x="701" y="-7.5" font-family="Helvetica,sans-Serif" font-size="10.00">cassert</text>
</a>
</g>
</g>
<!-- Node4&#45;&gt;Node5 -->
<g id="edge4" class="edge">
<title>Node4&#45;&gt;Node5</title>
<path fill="none" stroke="midnightblue" d="M736.9,-56.08C730.76,-48.38 721.73,-37.03 714.26,-27.65"/>
<polygon fill="midnightblue" stroke="midnightblue" points="716.94,-25.39 707.97,-19.75 711.46,-29.75 716.94,-25.39"/>
</g>
<!-- Node7 -->
<g id="node7" class="node">
<title>Node7</title>
<g id="a_node7"><a xlink:href="a00050.html" target="_top" xlink:title=" ">
<polygon fill="white" stroke="black" points="391,-112.5 391,-131.5 507,-131.5 507,-112.5 391,-112.5"/>
<text text-anchor="middle" x="449" y="-119.5" font-family="Helvetica,sans-Serif" font-size="10.00">MiraiCPStringInternal.h</text>
</a>
</g>
</g>
<!-- Node6&#45;&gt;Node7 -->
<g id="edge6" class="edge">
<title>Node6&#45;&gt;Node7</title>
<path fill="none" stroke="midnightblue" d="M640.03,-168.44C600.68,-159.08 537.51,-144.06 494.69,-133.87"/>
<polygon fill="midnightblue" stroke="midnightblue" points="495.34,-130.43 484.8,-131.52 493.72,-137.24 495.34,-130.43"/>
</g>
<!-- Node9 -->
<g id="node9" class="node">
<title>Node9</title>
<g id="a_node9"><a xlink:title=" ">
<polygon fill="white" stroke="#bfbfbf" points="649.5,-112.5 649.5,-131.5 702.5,-131.5 702.5,-112.5 649.5,-112.5"/>
<text text-anchor="middle" x="676" y="-119.5" font-family="Helvetica,sans-Serif" font-size="10.00">json.hpp</text>
</a>
</g>
</g>
<!-- Node6&#45;&gt;Node9 -->
<g id="edge10" class="edge">
<title>Node6&#45;&gt;Node9</title>
<path fill="none" stroke="midnightblue" d="M676,-168.08C676,-161.01 676,-150.86 676,-141.99"/>
<polygon fill="midnightblue" stroke="midnightblue" points="679.5,-141.75 676,-131.75 672.5,-141.75 679.5,-141.75"/>
</g>
<!-- Node7&#45;&gt;Node4 -->
<g id="edge7" class="edge">
<title>Node7&#45;&gt;Node4</title>
<path fill="none" stroke="midnightblue" d="M495.74,-112.44C547.9,-102.9 632.25,-87.46 687.91,-77.27"/>
<polygon fill="midnightblue" stroke="midnightblue" points="688.75,-80.67 697.96,-75.43 687.49,-73.79 688.75,-80.67"/>
</g>
<!-- Node7&#45;&gt;Node5 -->
<g id="edge8" class="edge">
<title>Node7&#45;&gt;Node5</title>
<path fill="none" stroke="midnightblue" d="M468.77,-112.37C513.03,-93.05 620.22,-46.26 672.02,-23.65"/>
<polygon fill="midnightblue" stroke="midnightblue" points="673.55,-26.8 681.32,-19.59 670.75,-20.38 673.55,-26.8"/>
</g>
<!-- Node7&#45;&gt;Node8 -->
<g id="edge9" class="edge">
<title>Node7&#45;&gt;Node8</title>
<path fill="none" stroke="midnightblue" d="M415.41,-112.44C374.68,-102.07 306.64,-84.74 267.4,-74.74"/>
<polygon fill="midnightblue" stroke="midnightblue" points="268.17,-71.33 257.61,-72.25 266.44,-78.11 268.17,-71.33"/>
</g>
<!-- Node10&#45;&gt;Node7 -->
<g id="edge12" class="edge">
<title>Node10&#45;&gt;Node7</title>
<path fill="none" stroke="midnightblue" d="M550.83,-168.44C531.09,-159.64 500.11,-145.81 477.51,-135.72"/>
<polygon fill="midnightblue" stroke="midnightblue" points="478.64,-132.4 468.08,-131.52 475.79,-138.79 478.64,-132.4"/>
</g>
<!-- Node13&#45;&gt;Node8 -->
<g id="edge21" class="edge">
<title>Node13&#45;&gt;Node8</title>
<path fill="none" stroke="midnightblue" d="M106.88,-280.22C109.26,-259.46 117.21,-206.21 139,-168 159.3,-132.4 195.07,-100.09 217.32,-82.04"/>
<polygon fill="midnightblue" stroke="midnightblue" points="219.74,-84.59 225.4,-75.64 215.39,-79.11 219.74,-84.59"/>
</g>
<!-- Node13&#45;&gt;Node14 -->
<g id="edge16" class="edge">
<title>Node13&#45;&gt;Node14</title>
<path fill="none" stroke="midnightblue" d="M118.85,-280.32C131.22,-271.98 150.13,-259.21 164.74,-249.35"/>
<polygon fill="midnightblue" stroke="midnightblue" points="166.85,-252.15 173.18,-243.65 162.93,-246.35 166.85,-252.15"/>
</g>
<!-- Node16 -->
<g id="node16" class="node">
<title>Node16</title>
<g id="a_node16"><a xlink:title=" ">
<polygon fill="white" stroke="#bfbfbf" points="28.5,-224.5 28.5,-243.5 87.5,-243.5 87.5,-224.5 28.5,-224.5"/>
<text text-anchor="middle" x="58" y="-231.5" font-family="Helvetica,sans-Serif" font-size="10.00">exception</text>
</a>
</g>
</g>
<!-- Node13&#45;&gt;Node16 -->
<g id="edge20" class="edge">
<title>Node13&#45;&gt;Node16</title>
<path fill="none" stroke="midnightblue" d="M98.07,-280.08C91.15,-272.3 80.93,-260.8 72.55,-251.37"/>
<polygon fill="midnightblue" stroke="midnightblue" points="75.04,-248.9 65.78,-243.75 69.81,-253.55 75.04,-248.9"/>
</g>
<!-- Node14&#45;&gt;Node4 -->
<g id="edge17" class="edge">
<title>Node14&#45;&gt;Node4</title>
<path fill="none" stroke="midnightblue" d="M214.83,-224.42C307.9,-196.74 600.45,-109.71 705.75,-78.38"/>
<polygon fill="midnightblue" stroke="midnightblue" points="706.76,-81.73 715.35,-75.52 704.76,-75.02 706.76,-81.73"/>
</g>
<!-- Node14&#45;&gt;Node8 -->
<g id="edge18" class="edge">
<title>Node14&#45;&gt;Node8</title>
<path fill="none" stroke="midnightblue" d="M188.74,-224.08C196.77,-197.95 220.34,-121.21 231.29,-85.58"/>
<polygon fill="midnightblue" stroke="midnightblue" points="234.78,-86.16 234.37,-75.57 228.09,-84.1 234.78,-86.16"/>
</g>
<!-- Node15 -->
<g id="node15" class="node">
<title>Node15</title>
<g id="a_node15"><a xlink:title=" ">
<polygon fill="white" stroke="#bfbfbf" points="148,-168.5 148,-187.5 190,-187.5 190,-168.5 148,-168.5"/>
<text text-anchor="middle" x="169" y="-175.5" font-family="Helvetica,sans-Serif" font-size="10.00">vector</text>
</a>
</g>
</g>
<!-- Node14&#45;&gt;Node15 -->
<g id="edge19" class="edge">
<title>Node14&#45;&gt;Node15</title>
<path fill="none" stroke="midnightblue" d="M183.19,-224.08C180.92,-216.85 177.63,-206.41 174.79,-197.4"/>
<polygon fill="midnightblue" stroke="midnightblue" points="178.1,-196.24 171.75,-187.75 171.42,-198.34 178.1,-196.24"/>
</g>
<!-- Node17&#45;&gt;Node3 -->
<g id="edge27" class="edge">
<title>Node17&#45;&gt;Node3</title>
<path fill="none" stroke="midnightblue" d="M385.91,-336.44C386.26,-322.51 389.07,-294.98 405,-280 425.46,-260.75 497.18,-248.03 548.41,-241.17"/>
<polygon fill="midnightblue" stroke="midnightblue" points="548.9,-244.63 558.37,-239.87 548,-237.69 548.9,-244.63"/>
</g>
<!-- Node17&#45;&gt;Node8 -->
<g id="edge31" class="edge">
<title>Node17&#45;&gt;Node8</title>
<path fill="none" stroke="midnightblue" d="M359.71,-340.46C322.43,-333.44 257.14,-318.76 243,-300 236.6,-291.51 236.67,-140.04 236.89,-85.98"/>
<polygon fill="midnightblue" stroke="midnightblue" points="240.39,-85.76 236.94,-75.75 233.39,-85.73 240.39,-85.76"/>
</g>
<!-- Node17&#45;&gt;Node11 -->
<g id="edge30" class="edge">
<title>Node17&#45;&gt;Node11</title>
<path fill="none" stroke="midnightblue" d="M396.76,-336.32C406.77,-328.26 421.89,-316.08 433.93,-306.37"/>
<polygon fill="midnightblue" stroke="midnightblue" points="436.45,-308.83 442.04,-299.83 432.06,-303.38 436.45,-308.83"/>
</g>
<!-- Node18 -->
<g id="node18" class="node">
<title>Node18</title>
<g id="a_node18"><a xlink:href="a00098.html" target="_top" xlink:title=" ">
<polygon fill="white" stroke="black" points="510,-280.5 510,-299.5 582,-299.5 582,-280.5 510,-280.5"/>
<text text-anchor="middle" x="546" y="-287.5" font-family="Helvetica,sans-Serif" font-size="10.00">PluginData.h</text>
</a>
</g>
</g>
<!-- Node17&#45;&gt;Node18 -->
<g id="edge24" class="edge">
<title>Node17&#45;&gt;Node18</title>
<path fill="none" stroke="midnightblue" d="M411.35,-336.44C438.27,-327.36 481,-312.94 511.09,-302.78"/>
<polygon fill="midnightblue" stroke="midnightblue" points="512.41,-306.03 520.77,-299.52 510.17,-299.4 512.41,-306.03"/>
</g>
<!-- Node19 -->
<g id="node19" class="node">
<title>Node19</title>
<g id="a_node19"><a xlink:title=" ">
<polygon fill="white" stroke="#bfbfbf" points="252,-280.5 252,-299.5 298,-299.5 298,-280.5 252,-280.5"/>
<text text-anchor="middle" x="275" y="-287.5" font-family="Helvetica,sans-Serif" font-size="10.00">atomic</text>
</a>
</g>
</g>
<!-- Node17&#45;&gt;Node19 -->
<g id="edge28" class="edge">
<title>Node17&#45;&gt;Node19</title>
<path fill="none" stroke="midnightblue" d="M368.17,-336.32C350.28,-327.62 322.52,-314.12 301.95,-304.11"/>
<polygon fill="midnightblue" stroke="midnightblue" points="303.31,-300.88 292.79,-299.65 300.25,-307.18 303.31,-300.88"/>
</g>
<!-- Node20 -->
<g id="node20" class="node">
<title>Node20</title>
<g id="a_node20"><a xlink:title=" ">
<polygon fill="white" stroke="#bfbfbf" points="316.5,-280.5 316.5,-299.5 357.5,-299.5 357.5,-280.5 316.5,-280.5"/>
<text text-anchor="middle" x="337" y="-287.5" font-family="Helvetica,sans-Serif" font-size="10.00">future</text>
</a>
</g>
</g>
<!-- Node17&#45;&gt;Node20 -->
<g id="edge29" class="edge">
<title>Node17&#45;&gt;Node20</title>
<path fill="none" stroke="midnightblue" d="M377.91,-336.08C370.84,-328.3 360.41,-316.8 351.85,-307.37"/>
<polygon fill="midnightblue" stroke="midnightblue" points="354.25,-304.8 344.94,-299.75 349.07,-309.51 354.25,-304.8"/>
</g>
<!-- Node18&#45;&gt;Node3 -->
<g id="edge26" class="edge">
<title>Node18&#45;&gt;Node3</title>
<path fill="none" stroke="midnightblue" d="M555.16,-280.32C563.5,-272.42 576.03,-260.55 586.18,-250.94"/>
<polygon fill="midnightblue" stroke="midnightblue" points="588.82,-253.25 593.68,-243.83 584.01,-248.17 588.82,-253.25"/>
</g>
<!-- Node18&#45;&gt;Node14 -->
<g id="edge25" class="edge">
<title>Node18&#45;&gt;Node14</title>
<path fill="none" stroke="midnightblue" d="M509.68,-281.56C506.75,-281.01 503.83,-280.48 501,-280 408.55,-264.16 300.16,-249.54 237.65,-241.48"/>
<polygon fill="midnightblue" stroke="midnightblue" points="238.01,-238 227.64,-240.2 237.12,-244.94 238.01,-238"/>
</g>
<!-- Node21&#45;&gt;Node4 -->
<g id="edge34" class="edge">
<title>Node21&#45;&gt;Node4</title>
<path fill="none" stroke="midnightblue" d="M760.6,-280.22C764.06,-271.28 769.03,-256.94 771,-244 776.51,-207.74 775.47,-181.27 760,-112 757.99,-103 754.7,-93.32 751.63,-85.26"/>
<polygon fill="midnightblue" stroke="midnightblue" points="754.8,-83.76 747.84,-75.78 748.3,-86.36 754.8,-83.76"/>
</g>
<!-- Node22 -->
<g id="node22" class="node">
<title>Node22</title>
<g id="a_node22"><a xlink:title=" ">
<polygon fill="white" stroke="#bfbfbf" points="704,-224.5 704,-243.5 762,-243.5 762,-224.5 704,-224.5"/>
<text text-anchor="middle" x="733" y="-231.5" font-family="Helvetica,sans-Serif" font-size="10.00">functional</text>
</a>
</g>
</g>
<!-- Node21&#45;&gt;Node22 -->
<g id="edge35" class="edge">
<title>Node21&#45;&gt;Node22</title>
<path fill="none" stroke="midnightblue" d="M753.04,-280.08C749.79,-272.77 745.08,-262.18 741.05,-253.1"/>
<polygon fill="midnightblue" stroke="midnightblue" points="744.15,-251.47 736.89,-243.75 737.75,-254.31 744.15,-251.47"/>
</g>
<!-- Node23&#45;&gt;Node3 -->
<g id="edge37" class="edge">
<title>Node23&#45;&gt;Node3</title>
<path fill="none" stroke="midnightblue" d="M629.31,-336.43C629.54,-323.83 629.17,-299.7 624,-280 621.51,-270.51 617.09,-260.57 612.94,-252.46"/>
<polygon fill="midnightblue" stroke="midnightblue" points="616,-250.75 608.17,-243.61 609.84,-254.07 616,-250.75"/>
</g>
<!-- Node24&#45;&gt;Node4 -->
<g id="edge39" class="edge">
<title>Node24&#45;&gt;Node4</title>
<path fill="none" stroke="midnightblue" d="M826.06,-336.44C869.97,-325.99 938.3,-308.64 947,-300 968.36,-278.79 966,-265.1 966,-235 966,-235 966,-235 966,-177 966,-103.2 866.28,-78.91 800.51,-70.92"/>
<polygon fill="midnightblue" stroke="midnightblue" points="800.6,-67.41 790.27,-69.77 799.82,-74.36 800.6,-67.41"/>
</g>
<!-- Node24&#45;&gt;Node8 -->
<g id="edge46" class="edge">
<title>Node24&#45;&gt;Node8</title>
<path fill="none" stroke="midnightblue" d="M794.42,-336.25C805.14,-318.1 828,-274.71 828,-235 828,-235 828,-235 828,-177 828,-117.9 768.41,-129.61 712,-112 628.43,-85.91 359.02,-72.22 267.64,-68.25"/>
<polygon fill="midnightblue" stroke="midnightblue" points="267.79,-64.75 257.65,-67.82 267.49,-71.74 267.79,-64.75"/>
</g>
<!-- Node24&#45;&gt;Node18 -->
<g id="edge43" class="edge">
<title>Node24&#45;&gt;Node18</title>
<path fill="none" stroke="midnightblue" d="M751.83,-336.74C708.97,-327.22 638.49,-311.55 592.16,-301.26"/>
<polygon fill="midnightblue" stroke="midnightblue" points="592.89,-297.84 582.37,-299.08 591.37,-304.67 592.89,-297.84"/>
</g>
<!-- Node24&#45;&gt;Node21 -->
<g id="edge44" class="edge">
<title>Node24&#45;&gt;Node21</title>
<path fill="none" stroke="midnightblue" d="M783.72,-336.08C779.29,-328.61 772.84,-317.72 767.38,-308.52"/>
<polygon fill="midnightblue" stroke="midnightblue" points="770.29,-306.57 762.19,-299.75 764.27,-310.14 770.29,-306.57"/>
</g>
<!-- Node25 -->
<g id="node25" class="node">
<title>Node25</title>
<g id="a_node25"><a xlink:href="a00083.html" target="_top" xlink:title=" ">
<polygon fill="white" stroke="black" points="856.5,-280.5 856.5,-299.5 937.5,-299.5 937.5,-280.5 856.5,-280.5"/>
<text text-anchor="middle" x="897" y="-287.5" font-family="Helvetica,sans-Serif" font-size="10.00">LoaderMacro.h</text>
</a>
</g>
</g>
<!-- Node24&#45;&gt;Node25 -->
<g id="edge40" class="edge">
<title>Node24&#45;&gt;Node25</title>
<path fill="none" stroke="midnightblue" d="M806.35,-336.32C823.67,-327.66 850.52,-314.24 870.5,-304.25"/>
<polygon fill="midnightblue" stroke="midnightblue" points="872.31,-307.26 879.69,-299.65 869.18,-301 872.31,-307.26"/>
</g>
<!-- Node27 -->
<g id="node27" class="node">
<title>Node27</title>
<g id="a_node27"><a xlink:title=" ">
<polygon fill="white" stroke="#bfbfbf" points="994.5,-280.5 994.5,-299.5 1043.5,-299.5 1043.5,-280.5 994.5,-280.5"/>
<text text-anchor="middle" x="1019" y="-287.5" font-family="Helvetica,sans-Serif" font-size="10.00">fstream</text>
</a>
</g>
</g>
<!-- Node24&#45;&gt;Node27 -->
<g id="edge45" class="edge">
<title>Node24&#45;&gt;Node27</title>
<path fill="none" stroke="midnightblue" d="M825.44,-336.44C869.09,-326.2 941.66,-309.16 984.45,-299.11"/>
<polygon fill="midnightblue" stroke="midnightblue" points="985.46,-302.47 994.4,-296.78 983.86,-295.66 985.46,-302.47"/>
</g>
<!-- Node28 -->
<g id="node28" class="node">
<title>Node28</title>
<g id="a_node28"><a xlink:title=" ">
<polygon fill="white" stroke="#bfbfbf" points="1062,-280.5 1062,-299.5 1106,-299.5 1106,-280.5 1062,-280.5"/>
<text text-anchor="middle" x="1084" y="-287.5" font-family="Helvetica,sans-Serif" font-size="10.00">thread</text>
</a>
</g>
</g>
<!-- Node24&#45;&gt;Node28 -->
<g id="edge47" class="edge">
<title>Node24&#45;&gt;Node28</title>
<path fill="none" stroke="midnightblue" d="M826.14,-337.64C829.14,-337.07 832.12,-336.52 835,-336 928.53,-319.13 955.51,-321.55 1051.87,-300.04"/>
<polygon fill="midnightblue" stroke="midnightblue" points="1052.75,-303.43 1061.73,-297.81 1051.21,-296.6 1052.75,-303.43"/>
</g>
<!-- Node25&#45;&gt;Node4 -->
<g id="edge41" class="edge">
<title>Node25&#45;&gt;Node4</title>
<path fill="none" stroke="midnightblue" d="M899.14,-280.44C901.92,-267.87 905.89,-243.76 901,-224 887.49,-169.38 882.85,-150.69 842,-112 826.03,-96.87 804.07,-86.15 784.98,-78.98"/>
<polygon fill="midnightblue" stroke="midnightblue" points="785.91,-75.59 775.31,-75.55 783.57,-82.19 785.91,-75.59"/>
</g>
<!-- Node26 -->
<g id="node26" class="node">
<title>Node26</title>
<g id="a_node26"><a xlink:title=" ">
<polygon fill="white" stroke="#bfbfbf" points="856.5,-224.5 856.5,-243.5 891.5,-243.5 891.5,-224.5 856.5,-224.5"/>
<text text-anchor="middle" x="874" y="-231.5" font-family="Helvetica,sans-Serif" font-size="10.00">jni.h</text>
</a>
</g>
</g>
<!-- Node25&#45;&gt;Node26 -->
<g id="edge42" class="edge">
<title>Node25&#45;&gt;Node26</title>
<path fill="none" stroke="midnightblue" d="M893.2,-280.08C890.09,-272.77 885.58,-262.18 881.71,-253.1"/>
<polygon fill="midnightblue" stroke="midnightblue" points="884.87,-251.58 877.73,-243.75 878.43,-254.32 884.87,-251.58"/>
</g>
</g>
</svg>
