<?xml version="1.0" encoding="UTF-8" standalone="no"?>
<!DOCTYPE svg PUBLIC "-//W3C//DTD SVG 1.1//EN"
 "http://www.w3.org/Graphics/SVG/1.1/DTD/svg11.dtd">
<!-- Generated by graphviz version 2.50.0 (20211204.2007)
 -->
<!-- Title: Contact.cpp Pages: 1 -->
<svg width="1068pt" height="644pt"
 viewBox="0.00 0.00 1068.00 644.00" xmlns="http://www.w3.org/2000/svg" xmlns:xlink="http://www.w3.org/1999/xlink">
<g id="graph0" class="graph" transform="scale(1 1) rotate(0) translate(4 640)">
<title>Contact.cpp</title>
<polygon fill="white" stroke="transparent" points="-4,4 -4,-640 1064,-640 1064,4 -4,4"/>
<!-- Node1 -->
<g id="node1" class="node">
<title>Node1</title>
<g id="a_node1"><a xlink:title=" ">
<polygon fill="#bfbfbf" stroke="black" points="416.5,-616.5 416.5,-635.5 485.5,-635.5 485.5,-616.5 416.5,-616.5"/>
<text text-anchor="middle" x="451" y="-623.5" font-family="Helvetica,sans-Serif" font-size="10.00">Contact.cpp</text>
</a>
</g>
</g>
<!-- Node2 -->
<g id="node2" class="node">
<title>Node2</title>
<g id="a_node2"><a xlink:href="a00113.html" target="_top" xlink:title=" ">
<polygon fill="white" stroke="black" points="266.5,-504.5 266.5,-523.5 325.5,-523.5 325.5,-504.5 266.5,-504.5"/>
<text text-anchor="middle" x="296" y="-511.5" font-family="Helvetica,sans-Serif" font-size="10.00">Contact.h</text>
</a>
</g>
</g>
<!-- Node1&#45;&gt;Node2 -->
<g id="edge1" class="edge">
<title>Node1&#45;&gt;Node2</title>
<path fill="none" stroke="midnightblue" d="M446.85,-616.23C439.95,-602.5 424.89,-575.86 405,-560 384.6,-543.73 357.49,-532.5 335.41,-525.33"/>
<polygon fill="midnightblue" stroke="midnightblue" points="336.25,-521.93 325.66,-522.32 334.18,-528.62 336.25,-521.93"/>
</g>
<!-- Node3 -->
<g id="node3" class="node">
<title>Node3</title>
<g id="a_node3"><a xlink:href="a00134.html" target="_top" xlink:title=" ">
<polygon fill="white" stroke="black" points="112,-448.5 112,-467.5 180,-467.5 180,-448.5 112,-448.5"/>
<text text-anchor="middle" x="146" y="-455.5" font-family="Helvetica,sans-Serif" font-size="10.00">IMiraiData.h</text>
</a>
</g>
</g>
<!-- Node1&#45;&gt;Node3 -->
<g id="edge61" class="edge">
<title>Node1&#45;&gt;Node3</title>
<path fill="none" stroke="midnightblue" d="M416.34,-624.65C372.38,-622.7 295.72,-614.16 241,-580 199.62,-554.16 168.92,-503.59 154.73,-476.74"/>
<polygon fill="midnightblue" stroke="midnightblue" points="157.79,-475.02 150.12,-467.71 151.55,-478.21 157.79,-475.02"/>
</g>
<!-- Node7 -->
<g id="node7" class="node">
<title>Node7</title>
<g id="a_node7"><a xlink:href="a00137.html" target="_top" xlink:title=" ">
<polygon fill="white" stroke="black" points="372.5,-448.5 372.5,-467.5 449.5,-467.5 449.5,-448.5 372.5,-448.5"/>
<text text-anchor="middle" x="411" y="-455.5" font-family="Helvetica,sans-Serif" font-size="10.00">KtOperation.h</text>
</a>
</g>
</g>
<!-- Node1&#45;&gt;Node7 -->
<g id="edge62" class="edge">
<title>Node1&#45;&gt;Node7</title>
<path fill="none" stroke="midnightblue" d="M471.22,-616.49C485.77,-609.17 504.3,-597.06 513,-580 517.04,-572.08 516.42,-568.2 513,-560 497.02,-521.69 458.66,-490.48 433.81,-473.35"/>
<polygon fill="midnightblue" stroke="midnightblue" points="435.59,-470.33 425.33,-467.68 431.7,-476.15 435.59,-470.33"/>
</g>
<!-- Node8 -->
<g id="node8" class="node">
<title>Node8</title>
<g id="a_node8"><a xlink:href="a00146.html" target="_top" xlink:title=" ">
<polygon fill="white" stroke="black" points="198,-448.5 198,-467.5 278,-467.5 278,-448.5 198,-448.5"/>
<text text-anchor="middle" x="238" y="-455.5" font-family="Helvetica,sans-Serif" font-size="10.00">LowLevelAPI.h</text>
</a>
</g>
</g>
<!-- Node1&#45;&gt;Node8 -->
<g id="edge64" class="edge">
<title>Node1&#45;&gt;Node8</title>
<path fill="none" stroke="midnightblue" d="M416.29,-621.57C366.47,-615.92 278.31,-602.91 257,-580 231.14,-552.2 232.11,-504.31 235.06,-477.88"/>
<polygon fill="midnightblue" stroke="midnightblue" points="238.57,-478.07 236.43,-467.69 231.63,-477.14 238.57,-478.07"/>
</g>
<!-- Node12 -->
<g id="node12" class="node">
<title>Node12</title>
<g id="a_node12"><a xlink:href="a00122.html" target="_top" xlink:title=" ">
<polygon fill="white" stroke="black" points="746,-392.5 746,-411.5 814,-411.5 814,-392.5 746,-392.5"/>
<text text-anchor="middle" x="780" y="-399.5" font-family="Helvetica,sans-Serif" font-size="10.00">Exception.h</text>
</a>
</g>
</g>
<!-- Node1&#45;&gt;Node12 -->
<g id="edge54" class="edge">
<title>Node1&#45;&gt;Node12</title>
<path fill="none" stroke="midnightblue" d="M485.66,-623.94C552.2,-621.2 694.42,-611.7 730,-580 776.26,-538.79 781.12,-458.39 780.76,-421.86"/>
<polygon fill="midnightblue" stroke="midnightblue" points="784.26,-421.56 780.51,-411.65 777.26,-421.74 784.26,-421.56"/>
</g>
<!-- Node14 -->
<g id="node14" class="node">
<title>Node14</title>
<g id="a_node14"><a xlink:href="a00143.html" target="_top" xlink:title=" ">
<polygon fill="white" stroke="black" points="542,-280.5 542,-299.5 596,-299.5 596,-280.5 542,-280.5"/>
<text text-anchor="middle" x="569" y="-287.5" font-family="Helvetica,sans-Serif" font-size="10.00">Logger.h</text>
</a>
</g>
</g>
<!-- Node1&#45;&gt;Node14 -->
<g id="edge63" class="edge">
<title>Node1&#45;&gt;Node14</title>
<path fill="none" stroke="midnightblue" d="M473.1,-616.44C507.52,-601.5 570,-567.19 570,-515 570,-515 570,-515 570,-401 570,-368.95 569.57,-331.64 569.27,-309.75"/>
<polygon fill="midnightblue" stroke="midnightblue" points="572.77,-309.51 569.13,-299.56 565.77,-309.61 572.77,-309.51"/>
</g>
<!-- Node33 -->
<g id="node33" class="node">
<title>Node33</title>
<g id="a_node33"><a xlink:href="a00128.html" target="_top" xlink:title=" ">
<polygon fill="white" stroke="black" points="266,-560.5 266,-579.5 318,-579.5 318,-560.5 266,-560.5"/>
<text text-anchor="middle" x="292" y="-567.5" font-family="Helvetica,sans-Serif" font-size="10.00">Friend.h</text>
</a>
</g>
</g>
<!-- Node1&#45;&gt;Node33 -->
<g id="edge55" class="edge">
<title>Node1&#45;&gt;Node33</title>
<path fill="none" stroke="midnightblue" d="M425.81,-616.44C399.06,-607.36 356.6,-592.94 326.69,-582.78"/>
<polygon fill="midnightblue" stroke="midnightblue" points="327.67,-579.42 317.08,-579.52 325.42,-586.05 327.67,-579.42"/>
</g>
<!-- Node34 -->
<g id="node34" class="node">
<title>Node34</title>
<g id="a_node34"><a xlink:href="a00131.html" target="_top" xlink:title=" ">
<polygon fill="white" stroke="black" points="452.5,-560.5 452.5,-579.5 503.5,-579.5 503.5,-560.5 452.5,-560.5"/>
<text text-anchor="middle" x="478" y="-567.5" font-family="Helvetica,sans-Serif" font-size="10.00">Group.h</text>
</a>
</g>
</g>
<!-- Node1&#45;&gt;Node34 -->
<g id="edge57" class="edge">
<title>Node1&#45;&gt;Node34</title>
<path fill="none" stroke="midnightblue" d="M455.46,-616.08C459.15,-608.69 464.52,-597.95 469.09,-588.81"/>
<polygon fill="midnightblue" stroke="midnightblue" points="472.28,-590.26 473.62,-579.75 466.02,-587.13 472.28,-590.26"/>
</g>
<!-- Node35 -->
<g id="node35" class="node">
<title>Node35</title>
<g id="a_node35"><a xlink:href="a00149.html" target="_top" xlink:title=" ">
<polygon fill="white" stroke="black" points="336,-560.5 336,-579.5 396,-579.5 396,-560.5 336,-560.5"/>
<text text-anchor="middle" x="366" y="-567.5" font-family="Helvetica,sans-Serif" font-size="10.00">Member.h</text>
</a>
</g>
</g>
<!-- Node1&#45;&gt;Node35 -->
<g id="edge65" class="edge">
<title>Node1&#45;&gt;Node35</title>
<path fill="none" stroke="midnightblue" d="M437.34,-616.32C424.08,-607.9 403.73,-594.97 388.15,-585.07"/>
<polygon fill="midnightblue" stroke="midnightblue" points="389.94,-582.06 379.62,-579.65 386.19,-587.97 389.94,-582.06"/>
</g>
<!-- Node36 -->
<g id="node36" class="node">
<title>Node36</title>
<g id="a_node36"><a xlink:href="a00176.html" target="_top" xlink:title=" ">
<polygon fill="white" stroke="black" points="718,-280.5 718,-299.5 766,-299.5 766,-280.5 718,-280.5"/>
<text text-anchor="middle" x="742" y="-287.5" font-family="Helvetica,sans-Serif" font-size="10.00">Tools.h</text>
</a>
</g>
</g>
<!-- Node1&#45;&gt;Node36 -->
<g id="edge67" class="edge">
<title>Node1&#45;&gt;Node36</title>
<path fill="none" stroke="midnightblue" d="M485.64,-625.81C557.48,-625.49 716,-613.63 716,-515 716,-515 716,-515 716,-401 716,-367.93 727.27,-330.73 734.97,-309.17"/>
<polygon fill="midnightblue" stroke="midnightblue" points="738.29,-310.27 738.49,-299.68 731.73,-307.83 738.29,-310.27"/>
</g>
<!-- Node2&#45;&gt;Node3 -->
<g id="edge2" class="edge">
<title>Node2&#45;&gt;Node3</title>
<path fill="none" stroke="midnightblue" d="M272.23,-504.44C247.11,-495.4 207.29,-481.06 179.1,-470.92"/>
<polygon fill="midnightblue" stroke="midnightblue" points="180.25,-467.61 169.66,-467.52 177.88,-474.2 180.25,-467.61"/>
</g>
<!-- Node4 -->
<g id="node4" class="node">
<title>Node4</title>
<g id="a_node4"><a xlink:title=" ">
<polygon fill="white" stroke="#bfbfbf" points="52.5,-336.5 52.5,-355.5 125.5,-355.5 125.5,-336.5 52.5,-336.5"/>
<text text-anchor="middle" x="89" y="-343.5" font-family="Helvetica,sans-Serif" font-size="10.00">json_fwd.hpp</text>
</a>
</g>
</g>
<!-- Node2&#45;&gt;Node4 -->
<g id="edge52" class="edge">
<title>Node2&#45;&gt;Node4</title>
<path fill="none" stroke="midnightblue" d="M296.73,-504.37C297.44,-491.3 297.18,-466.06 287,-448 255.95,-392.92 183.54,-366.97 135.43,-355.43"/>
<polygon fill="midnightblue" stroke="midnightblue" points="136.08,-351.99 125.56,-353.18 134.53,-358.81 136.08,-351.99"/>
</g>
<!-- Node2&#45;&gt;Node7 -->
<g id="edge6" class="edge">
<title>Node2&#45;&gt;Node7</title>
<path fill="none" stroke="midnightblue" d="M314.22,-504.44C332.9,-495.68 362.16,-481.94 383.62,-471.86"/>
<polygon fill="midnightblue" stroke="midnightblue" points="385.3,-474.93 392.86,-467.52 382.32,-468.6 385.3,-474.93"/>
</g>
<!-- Node2&#45;&gt;Node8 -->
<g id="edge8" class="edge">
<title>Node2&#45;&gt;Node8</title>
<path fill="none" stroke="midnightblue" d="M286.68,-504.32C278.11,-496.34 265.19,-484.31 254.81,-474.65"/>
<polygon fill="midnightblue" stroke="midnightblue" points="257.19,-472.09 247.49,-467.83 252.42,-477.21 257.19,-472.09"/>
</g>
<!-- Node9 -->
<g id="node9" class="node">
<title>Node9</title>
<g id="a_node9"><a xlink:href="a00152.html" target="_top" xlink:title=" ">
<polygon fill="white" stroke="black" points="598.5,-448.5 598.5,-467.5 687.5,-467.5 687.5,-448.5 598.5,-448.5"/>
<text text-anchor="middle" x="643" y="-455.5" font-family="Helvetica,sans-Serif" font-size="10.00">MessageChain.h</text>
</a>
</g>
</g>
<!-- Node2&#45;&gt;Node9 -->
<g id="edge10" class="edge">
<title>Node2&#45;&gt;Node9</title>
<path fill="none" stroke="midnightblue" d="M325.59,-508.4C383.82,-499.33 514.08,-479.06 588.36,-467.5"/>
<polygon fill="midnightblue" stroke="midnightblue" points="589.11,-470.93 598.46,-465.93 588.04,-464.01 589.11,-470.93"/>
</g>
<!-- Node16 -->
<g id="node16" class="node">
<title>Node16</title>
<g id="a_node16"><a xlink:title=" ">
<polygon fill="white" stroke="#bfbfbf" points="302.5,-56.5 302.5,-75.5 343.5,-75.5 343.5,-56.5 302.5,-56.5"/>
<text text-anchor="middle" x="323" y="-63.5" font-family="Helvetica,sans-Serif" font-size="10.00">string</text>
</a>
</g>
</g>
<!-- Node2&#45;&gt;Node16 -->
<g id="edge53" class="edge">
<title>Node2&#45;&gt;Node16</title>
<path fill="none" stroke="midnightblue" d="M266.26,-508.47C191.2,-496.2 0,-459.4 0,-403 0,-403 0,-403 0,-177 0,-115.63 211.59,-81.54 292.26,-70.78"/>
<polygon fill="midnightblue" stroke="midnightblue" points="292.84,-74.23 302.3,-69.47 291.93,-67.29 292.84,-74.23"/>
</g>
<!-- Node3&#45;&gt;Node4 -->
<g id="edge3" class="edge">
<title>Node3&#45;&gt;Node4</title>
<path fill="none" stroke="midnightblue" d="M156.17,-448.34C169.8,-435.64 190.98,-411.38 179,-392 169.25,-376.22 152.11,-365.79 135.38,-358.99"/>
<polygon fill="midnightblue" stroke="midnightblue" points="136.24,-355.57 125.64,-355.39 133.81,-362.14 136.24,-355.57"/>
</g>
<!-- Node5 -->
<g id="node5" class="node">
<title>Node5</title>
<g id="a_node5"><a xlink:title=" ">
<polygon fill="white" stroke="#bfbfbf" points="124,-392.5 124,-411.5 170,-411.5 170,-392.5 124,-392.5"/>
<text text-anchor="middle" x="147" y="-399.5" font-family="Helvetica,sans-Serif" font-size="10.00">atomic</text>
</a>
</g>
</g>
<!-- Node3&#45;&gt;Node5 -->
<g id="edge4" class="edge">
<title>Node3&#45;&gt;Node5</title>
<path fill="none" stroke="midnightblue" d="M146.17,-448.08C146.3,-441.01 146.48,-430.86 146.65,-421.99"/>
<polygon fill="midnightblue" stroke="midnightblue" points="150.15,-421.81 146.84,-411.75 143.15,-421.68 150.15,-421.81"/>
</g>
<!-- Node6 -->
<g id="node6" class="node">
<title>Node6</title>
<g id="a_node6"><a xlink:title=" ">
<polygon fill="white" stroke="#bfbfbf" points="28,-392.5 28,-411.5 106,-411.5 106,-392.5 28,-392.5"/>
<text text-anchor="middle" x="67" y="-399.5" font-family="Helvetica,sans-Serif" font-size="10.00">shared_mutex</text>
</a>
</g>
</g>
<!-- Node3&#45;&gt;Node6 -->
<g id="edge5" class="edge">
<title>Node3&#45;&gt;Node6</title>
<path fill="none" stroke="midnightblue" d="M133.31,-448.32C121.1,-439.98 102.42,-427.21 88,-417.35"/>
<polygon fill="midnightblue" stroke="midnightblue" points="89.89,-414.41 79.66,-411.65 85.94,-420.19 89.89,-414.41"/>
</g>
<!-- Node7&#45;&gt;Node4 -->
<g id="edge7" class="edge">
<title>Node7&#45;&gt;Node4</title>
<path fill="none" stroke="midnightblue" d="M406.54,-448.12C398.79,-433.74 381.43,-405.58 358,-392 273.03,-342.76 236.8,-372.53 140,-356 138.56,-355.75 137.1,-355.5 135.62,-355.25"/>
<polygon fill="midnightblue" stroke="midnightblue" points="136.21,-351.8 125.76,-353.54 135.02,-358.7 136.21,-351.8"/>
</g>
<!-- Node8&#45;&gt;Node4 -->
<g id="edge9" class="edge">
<title>Node8&#45;&gt;Node4</title>
<path fill="none" stroke="midnightblue" d="M234.25,-448.25C227.98,-434.54 214.14,-407.92 195,-392 176.69,-376.77 152.47,-365.97 131.8,-358.77"/>
<polygon fill="midnightblue" stroke="midnightblue" points="132.88,-355.44 122.28,-355.62 130.68,-362.09 132.88,-355.44"/>
</g>
<!-- Node10 -->
<g id="node10" class="node">
<title>Node10</title>
<g id="a_node10"><a xlink:href="a00047.html" target="_top" xlink:title=" ">
<polygon fill="white" stroke="black" points="724,-56.5 724,-75.5 816,-75.5 816,-56.5 724,-56.5"/>
<text text-anchor="middle" x="770" y="-63.5" font-family="Helvetica,sans-Serif" font-size="10.00">MiraiCPMacros.h</text>
</a>
</g>
</g>
<!-- Node9&#45;&gt;Node10 -->
<g id="edge11" class="edge">
<title>Node9&#45;&gt;Node10</title>
<path fill="none" stroke="midnightblue" d="M687.63,-454.68C795.2,-447.88 1060,-423.37 1060,-347 1060,-347 1060,-347 1060,-177 1060,-140.82 1041.75,-131.06 1011,-112 980.82,-93.3 887.61,-79.86 826.35,-72.77"/>
<polygon fill="midnightblue" stroke="midnightblue" points="826.38,-69.25 816.05,-71.6 825.59,-76.2 826.38,-69.25"/>
</g>
<!-- Node9&#45;&gt;Node12 -->
<g id="edge13" class="edge">
<title>Node9&#45;&gt;Node12</title>
<path fill="none" stroke="midnightblue" d="M664.71,-448.44C687.35,-439.52 723.07,-425.44 748.75,-415.32"/>
<polygon fill="midnightblue" stroke="midnightblue" points="750.37,-418.44 758.39,-411.52 747.81,-411.93 750.37,-418.44"/>
</g>
<!-- Node27 -->
<g id="node27" class="node">
<title>Node27</title>
<g id="a_node27"><a xlink:href="a00170.html" target="_top" xlink:title=" ">
<polygon fill="white" stroke="black" points="410,-392.5 410,-411.5 502,-411.5 502,-392.5 410,-392.5"/>
<text text-anchor="middle" x="456" y="-399.5" font-family="Helvetica,sans-Serif" font-size="10.00">SingleMessage.h</text>
</a>
</g>
</g>
<!-- Node9&#45;&gt;Node27 -->
<g id="edge36" class="edge">
<title>Node9&#45;&gt;Node27</title>
<path fill="none" stroke="midnightblue" d="M613.37,-448.44C581.5,-439.24 530.67,-424.56 495.44,-414.39"/>
<polygon fill="midnightblue" stroke="midnightblue" points="496.07,-410.93 485.49,-411.52 494.13,-417.65 496.07,-410.93"/>
</g>
<!-- Node32 -->
<g id="node32" class="node">
<title>Node32</title>
<g id="a_node32"><a xlink:href="a00038.html" target="_top" xlink:title=" ">
<polygon fill="white" stroke="black" points="614,-280.5 614,-299.5 700,-299.5 700,-280.5 614,-280.5"/>
<text text-anchor="middle" x="657" y="-287.5" font-family="Helvetica,sans-Serif" font-size="10.00">commonTools.h</text>
</a>
</g>
</g>
<!-- Node9&#45;&gt;Node32 -->
<g id="edge49" class="edge">
<title>Node9&#45;&gt;Node32</title>
<path fill="none" stroke="midnightblue" d="M643.75,-448.08C645.96,-421.95 652.43,-345.21 655.43,-309.58"/>
<polygon fill="midnightblue" stroke="midnightblue" points="658.92,-309.83 656.28,-299.57 651.95,-309.24 658.92,-309.83"/>
</g>
<!-- Node11 -->
<g id="node11" class="node">
<title>Node11</title>
<g id="a_node11"><a xlink:title=" ">
<polygon fill="white" stroke="#bfbfbf" points="695.5,-0.5 695.5,-19.5 744.5,-19.5 744.5,-0.5 695.5,-0.5"/>
<text text-anchor="middle" x="720" y="-7.5" font-family="Helvetica,sans-Serif" font-size="10.00">cassert</text>
</a>
</g>
</g>
<!-- Node10&#45;&gt;Node11 -->
<g id="edge12" class="edge">
<title>Node10&#45;&gt;Node11</title>
<path fill="none" stroke="midnightblue" d="M761.74,-56.08C754.54,-48.3 743.89,-36.8 735.15,-27.37"/>
<polygon fill="midnightblue" stroke="midnightblue" points="737.47,-24.71 728.1,-19.75 732.33,-29.47 737.47,-24.71"/>
</g>
<!-- Node12&#45;&gt;Node10 -->
<g id="edge14" class="edge">
<title>Node12&#45;&gt;Node10</title>
<path fill="none" stroke="midnightblue" d="M814.39,-398.36C869.92,-393.41 975.87,-380.91 1003,-356 1025.17,-335.64 1022,-321.1 1022,-291 1022,-291 1022,-291 1022,-177 1022,-92.2 900.65,-72.12 826.37,-67.77"/>
<polygon fill="midnightblue" stroke="midnightblue" points="826.38,-64.27 816.22,-67.26 826.03,-71.26 826.38,-64.27"/>
</g>
<!-- Node13 -->
<g id="node13" class="node">
<title>Node13</title>
<g id="a_node13"><a xlink:href="a00116.html" target="_top" xlink:title=" ">
<polygon fill="white" stroke="black" points="744,-336.5 744,-355.5 816,-355.5 816,-336.5 744,-336.5"/>
<text text-anchor="middle" x="780" y="-343.5" font-family="Helvetica,sans-Serif" font-size="10.00">CPPPlugin.h</text>
</a>
</g>
</g>
<!-- Node12&#45;&gt;Node13 -->
<g id="edge15" class="edge">
<title>Node12&#45;&gt;Node13</title>
<path fill="none" stroke="midnightblue" d="M780,-392.08C780,-385.01 780,-374.86 780,-365.99"/>
<polygon fill="midnightblue" stroke="midnightblue" points="783.5,-365.75 780,-355.75 776.5,-365.75 783.5,-365.75"/>
</g>
<!-- Node12&#45;&gt;Node16 -->
<g id="edge34" class="edge">
<title>Node12&#45;&gt;Node16</title>
<path fill="none" stroke="midnightblue" d="M745.98,-394.44C642.86,-374.41 339.81,-314.59 324,-300 301.78,-279.5 304,-265.23 304,-235 304,-235 304,-235 304,-177 304,-144.49 312.16,-107.35 317.78,-85.61"/>
<polygon fill="midnightblue" stroke="midnightblue" points="321.22,-86.32 320.44,-75.75 314.46,-84.5 321.22,-86.32"/>
</g>
<!-- Node25 -->
<g id="node25" class="node">
<title>Node25</title>
<g id="a_node25"><a xlink:title=" ">
<polygon fill="white" stroke="#bfbfbf" points="872.5,-336.5 872.5,-355.5 931.5,-355.5 931.5,-336.5 872.5,-336.5"/>
<text text-anchor="middle" x="902" y="-343.5" font-family="Helvetica,sans-Serif" font-size="10.00">exception</text>
</a>
</g>
</g>
<!-- Node12&#45;&gt;Node25 -->
<g id="edge33" class="edge">
<title>Node12&#45;&gt;Node25</title>
<path fill="none" stroke="midnightblue" d="M799.33,-392.44C819.32,-383.6 850.74,-369.69 873.56,-359.59"/>
<polygon fill="midnightblue" stroke="midnightblue" points="875.03,-362.76 882.76,-355.52 872.2,-356.36 875.03,-362.76"/>
</g>
<!-- Node26 -->
<g id="node26" class="node">
<title>Node26</title>
<g id="a_node26"><a xlink:title=" ">
<polygon fill="white" stroke="#bfbfbf" points="950,-336.5 950,-355.5 994,-355.5 994,-336.5 950,-336.5"/>
<text text-anchor="middle" x="972" y="-343.5" font-family="Helvetica,sans-Serif" font-size="10.00">thread</text>
</a>
</g>
</g>
<!-- Node12&#45;&gt;Node26 -->
<g id="edge35" class="edge">
<title>Node12&#45;&gt;Node26</title>
<path fill="none" stroke="midnightblue" d="M810.89,-392.46C841.36,-384.02 889.5,-370.63 940.17,-356.22"/>
<polygon fill="midnightblue" stroke="midnightblue" points="941.33,-359.52 949.99,-353.42 939.42,-352.79 941.33,-359.52"/>
</g>
<!-- Node13&#45;&gt;Node14 -->
<g id="edge16" class="edge">
<title>Node13&#45;&gt;Node14</title>
<path fill="none" stroke="midnightblue" d="M746.57,-336.44C708.3,-326.65 645.79,-310.65 606.06,-300.49"/>
<polygon fill="midnightblue" stroke="midnightblue" points="606.79,-297.06 596.24,-297.97 605.06,-303.84 606.79,-297.06"/>
</g>
<!-- Node18 -->
<g id="node18" class="node">
<title>Node18</title>
<g id="a_node18"><a xlink:href="a00056.html" target="_top" xlink:title=" ">
<polygon fill="white" stroke="black" points="624.5,-168.5 624.5,-187.5 703.5,-187.5 703.5,-168.5 624.5,-168.5"/>
<text text-anchor="middle" x="664" y="-175.5" font-family="Helvetica,sans-Serif" font-size="10.00">PluginConfig.h</text>
</a>
</g>
</g>
<!-- Node13&#45;&gt;Node18 -->
<g id="edge31" class="edge">
<title>Node13&#45;&gt;Node18</title>
<path fill="none" stroke="midnightblue" d="M784.02,-336.4C793.32,-315.12 813.71,-259.16 789,-224 772.01,-199.82 740.71,-188.57 713.69,-183.37"/>
<polygon fill="midnightblue" stroke="midnightblue" points="714.02,-179.88 703.58,-181.66 712.85,-186.78 714.02,-179.88"/>
</g>
<!-- Node24 -->
<g id="node24" class="node">
<title>Node24</title>
<g id="a_node24"><a xlink:title=" ">
<polygon fill="white" stroke="#bfbfbf" points="484,-280.5 484,-299.5 524,-299.5 524,-280.5 484,-280.5"/>
<text text-anchor="middle" x="504" y="-287.5" font-family="Helvetica,sans-Serif" font-size="10.00">utility</text>
</a>
</g>
</g>
<!-- Node13&#45;&gt;Node24 -->
<g id="edge32" class="edge">
<title>Node13&#45;&gt;Node24</title>
<path fill="none" stroke="midnightblue" d="M743.71,-339.79C697.19,-332.81 613.91,-319.28 533.93,-299.99"/>
<polygon fill="midnightblue" stroke="midnightblue" points="534.74,-296.59 524.19,-297.61 533.08,-303.38 534.74,-296.59"/>
</g>
<!-- Node15 -->
<g id="node15" class="node">
<title>Node15</title>
<g id="a_node15"><a xlink:href="a00158.html" target="_top" xlink:title=" ">
<polygon fill="white" stroke="black" points="208,-224.5 208,-243.5 276,-243.5 276,-224.5 208,-224.5"/>
<text text-anchor="middle" x="242" y="-231.5" font-family="Helvetica,sans-Serif" font-size="10.00">MiraiCode.h</text>
</a>
</g>
</g>
<!-- Node14&#45;&gt;Node15 -->
<g id="edge17" class="edge">
<title>Node14&#45;&gt;Node15</title>
<path fill="none" stroke="midnightblue" d="M541.93,-281.95C538.93,-281.25 535.9,-280.59 533,-280 446.2,-262.48 343.63,-248.06 286.38,-240.58"/>
<polygon fill="midnightblue" stroke="midnightblue" points="286.59,-237.08 276.23,-239.26 285.69,-244.02 286.59,-237.08"/>
</g>
<!-- Node17 -->
<g id="node17" class="node">
<title>Node17</title>
<g id="a_node17"><a xlink:href="a00041.html" target="_top" xlink:title=" ">
<polygon fill="white" stroke="black" points="592.5,-224.5 592.5,-243.5 681.5,-243.5 681.5,-224.5 592.5,-224.5"/>
<text text-anchor="middle" x="637" y="-231.5" font-family="Helvetica,sans-Serif" font-size="10.00">commonTypes.h</text>
</a>
</g>
</g>
<!-- Node14&#45;&gt;Node17 -->
<g id="edge19" class="edge">
<title>Node14&#45;&gt;Node17</title>
<path fill="none" stroke="midnightblue" d="M579.93,-280.32C590.17,-272.18 605.72,-259.84 618,-250.09"/>
<polygon fill="midnightblue" stroke="midnightblue" points="620.22,-252.79 625.88,-243.83 615.87,-247.31 620.22,-252.79"/>
</g>
<!-- Node22 -->
<g id="node22" class="node">
<title>Node22</title>
<g id="a_node22"><a xlink:title=" ">
<polygon fill="white" stroke="#bfbfbf" points="478,-224.5 478,-243.5 536,-243.5 536,-224.5 478,-224.5"/>
<text text-anchor="middle" x="507" y="-231.5" font-family="Helvetica,sans-Serif" font-size="10.00">functional</text>
</a>
</g>
</g>
<!-- Node14&#45;&gt;Node22 -->
<g id="edge29" class="edge">
<title>Node14&#45;&gt;Node22</title>
<path fill="none" stroke="midnightblue" d="M559.04,-280.32C549.87,-272.34 536.06,-260.31 524.97,-250.65"/>
<polygon fill="midnightblue" stroke="midnightblue" points="526.98,-247.76 517.14,-243.83 522.38,-253.04 526.98,-247.76"/>
</g>
<!-- Node23 -->
<g id="node23" class="node">
<title>Node23</title>
<g id="a_node23"><a xlink:title=" ">
<polygon fill="white" stroke="#bfbfbf" points="408,-224.5 408,-243.5 460,-243.5 460,-224.5 408,-224.5"/>
<text text-anchor="middle" x="434" y="-231.5" font-family="Helvetica,sans-Serif" font-size="10.00">sstream</text>
</a>
</g>
</g>
<!-- Node14&#45;&gt;Node23 -->
<g id="edge30" class="edge">
<title>Node14&#45;&gt;Node23</title>
<path fill="none" stroke="midnightblue" d="M547.61,-280.44C525.29,-271.52 490.1,-257.44 464.79,-247.32"/>
<polygon fill="midnightblue" stroke="midnightblue" points="465.88,-243.98 455.29,-243.52 463.28,-250.48 465.88,-243.98"/>
</g>
<!-- Node15&#45;&gt;Node16 -->
<g id="edge18" class="edge">
<title>Node15&#45;&gt;Node16</title>
<path fill="none" stroke="midnightblue" d="M244.56,-224.45C250.79,-204.19 267.91,-151.95 290,-112 295.51,-102.04 302.91,-91.74 309.31,-83.52"/>
<polygon fill="midnightblue" stroke="midnightblue" points="312.2,-85.51 315.72,-75.52 306.74,-81.13 312.2,-85.51"/>
</g>
<!-- Node17&#45;&gt;Node10 -->
<g id="edge20" class="edge">
<title>Node17&#45;&gt;Node10</title>
<path fill="none" stroke="midnightblue" d="M658.69,-224.39C675.33,-216.87 697.93,-204.56 713,-188 727.61,-171.94 751.3,-114.76 763,-85.12"/>
<polygon fill="midnightblue" stroke="midnightblue" points="766.35,-86.16 766.73,-75.57 759.83,-83.61 766.35,-86.16"/>
</g>
<!-- Node17&#45;&gt;Node18 -->
<g id="edge21" class="edge">
<title>Node17&#45;&gt;Node18</title>
<path fill="none" stroke="midnightblue" d="M641.46,-224.08C645.15,-216.69 650.52,-205.95 655.09,-196.81"/>
<polygon fill="midnightblue" stroke="midnightblue" points="658.28,-198.26 659.62,-187.75 652.02,-195.13 658.28,-198.26"/>
</g>
<!-- Node21 -->
<g id="node21" class="node">
<title>Node21</title>
<g id="a_node21"><a xlink:href="a00044.html" target="_top" xlink:title=" ">
<polygon fill="white" stroke="black" points="509.5,-168.5 509.5,-187.5 606.5,-187.5 606.5,-168.5 509.5,-168.5"/>
<text text-anchor="middle" x="558" y="-175.5" font-family="Helvetica,sans-Serif" font-size="10.00">loaderApiInternal.h</text>
</a>
</g>
</g>
<!-- Node17&#45;&gt;Node21 -->
<g id="edge27" class="edge">
<title>Node17&#45;&gt;Node21</title>
<path fill="none" stroke="midnightblue" d="M624.31,-224.32C612.1,-215.98 593.42,-203.21 579,-193.35"/>
<polygon fill="midnightblue" stroke="midnightblue" points="580.89,-190.41 570.66,-187.65 576.94,-196.19 580.89,-190.41"/>
</g>
<!-- Node19 -->
<g id="node19" class="node">
<title>Node19</title>
<g id="a_node19"><a xlink:href="a00050.html" target="_top" xlink:title=" ">
<polygon fill="white" stroke="black" points="513,-112.5 513,-131.5 629,-131.5 629,-112.5 513,-112.5"/>
<text text-anchor="middle" x="571" y="-119.5" font-family="Helvetica,sans-Serif" font-size="10.00">MiraiCPStringInternal.h</text>
</a>
</g>
</g>
<!-- Node18&#45;&gt;Node19 -->
<g id="edge22" class="edge">
<title>Node18&#45;&gt;Node19</title>
<path fill="none" stroke="midnightblue" d="M649.06,-168.32C634.41,-159.82 611.87,-146.73 594.76,-136.8"/>
<polygon fill="midnightblue" stroke="midnightblue" points="596.31,-133.65 585.9,-131.65 592.8,-139.7 596.31,-133.65"/>
</g>
<!-- Node20 -->
<g id="node20" class="node">
<title>Node20</title>
<g id="a_node20"><a xlink:title=" ">
<polygon fill="white" stroke="#bfbfbf" points="647.5,-112.5 647.5,-131.5 700.5,-131.5 700.5,-112.5 647.5,-112.5"/>
<text text-anchor="middle" x="674" y="-119.5" font-family="Helvetica,sans-Serif" font-size="10.00">json.hpp</text>
</a>
</g>
</g>
<!-- Node18&#45;&gt;Node20 -->
<g id="edge26" class="edge">
<title>Node18&#45;&gt;Node20</title>
<path fill="none" stroke="midnightblue" d="M665.65,-168.08C666.98,-160.93 668.88,-150.64 670.54,-141.69"/>
<polygon fill="midnightblue" stroke="midnightblue" points="674,-142.22 672.38,-131.75 667.12,-140.95 674,-142.22"/>
</g>
<!-- Node19&#45;&gt;Node10 -->
<g id="edge23" class="edge">
<title>Node19&#45;&gt;Node10</title>
<path fill="none" stroke="midnightblue" d="M602.53,-112.44C636.59,-103.2 691.01,-88.44 728.52,-78.26"/>
<polygon fill="midnightblue" stroke="midnightblue" points="729.88,-81.51 738.62,-75.52 728.05,-74.76 729.88,-81.51"/>
</g>
<!-- Node19&#45;&gt;Node11 -->
<g id="edge24" class="edge">
<title>Node19&#45;&gt;Node11</title>
<path fill="none" stroke="midnightblue" d="M582.69,-112.37C608.15,-93.57 668.84,-48.77 700.31,-25.53"/>
<polygon fill="midnightblue" stroke="midnightblue" points="702.4,-28.35 708.36,-19.59 698.24,-22.72 702.4,-28.35"/>
</g>
<!-- Node19&#45;&gt;Node16 -->
<g id="edge25" class="edge">
<title>Node19&#45;&gt;Node16</title>
<path fill="none" stroke="midnightblue" d="M531.7,-112.44C482.26,-101.68 398.41,-83.42 353.52,-73.65"/>
<polygon fill="midnightblue" stroke="midnightblue" points="354.03,-70.17 343.51,-71.47 352.54,-77.01 354.03,-70.17"/>
</g>
<!-- Node21&#45;&gt;Node19 -->
<g id="edge28" class="edge">
<title>Node21&#45;&gt;Node19</title>
<path fill="none" stroke="midnightblue" d="M560.15,-168.08C561.87,-160.93 564.35,-150.64 566.5,-141.69"/>
<polygon fill="midnightblue" stroke="midnightblue" points="569.96,-142.29 568.89,-131.75 563.15,-140.65 569.96,-142.29"/>
</g>
<!-- Node27&#45;&gt;Node4 -->
<g id="edge44" class="edge">
<title>Node27&#45;&gt;Node4</title>
<path fill="none" stroke="midnightblue" d="M409.82,-394.03C405.15,-393.34 400.48,-392.65 396,-392 282.3,-375.48 253.48,-373.99 140,-356 138.56,-355.77 137.09,-355.54 135.61,-355.29"/>
<polygon fill="midnightblue" stroke="midnightblue" points="136.19,-351.84 125.75,-353.64 135.03,-358.75 136.19,-351.84"/>
</g>
<!-- Node27&#45;&gt;Node10 -->
<g id="edge37" class="edge">
<title>Node27&#45;&gt;Node10</title>
<path fill="none" stroke="midnightblue" d="M502.15,-400.74C589.35,-399.41 774.15,-392.24 825,-356 873.72,-321.27 884,-294.83 884,-235 884,-235 884,-235 884,-177 884,-130.11 833.45,-96.89 799.67,-79.93"/>
<polygon fill="midnightblue" stroke="midnightblue" points="801.17,-76.77 790.64,-75.58 798.13,-83.07 801.17,-76.77"/>
</g>
<!-- Node27&#45;&gt;Node15 -->
<g id="edge42" class="edge">
<title>Node27&#45;&gt;Node15</title>
<path fill="none" stroke="midnightblue" d="M409.98,-394.46C338.12,-384.04 206.73,-364.01 200,-356 173.91,-324.92 206.36,-276.67 227.14,-251.52"/>
<polygon fill="midnightblue" stroke="midnightblue" points="230.04,-253.52 233.89,-243.65 224.73,-248.96 230.04,-253.52"/>
</g>
<!-- Node27&#45;&gt;Node23 -->
<g id="edge46" class="edge">
<title>Node27&#45;&gt;Node23</title>
<path fill="none" stroke="midnightblue" d="M454.82,-392.08C451.35,-365.95 441.18,-289.21 436.46,-253.58"/>
<polygon fill="midnightblue" stroke="midnightblue" points="439.92,-253.02 435.14,-243.57 432.98,-253.94 439.92,-253.02"/>
</g>
<!-- Node27&#45;&gt;Node24 -->
<g id="edge48" class="edge">
<title>Node27&#45;&gt;Node24</title>
<path fill="none" stroke="midnightblue" d="M459.77,-392.37C467.58,-374.46 485.71,-332.92 496.17,-308.95"/>
<polygon fill="midnightblue" stroke="midnightblue" points="499.46,-310.16 500.25,-299.59 493.04,-307.36 499.46,-310.16"/>
</g>
<!-- Node28 -->
<g id="node28" class="node">
<title>Node28</title>
<g id="a_node28"><a xlink:href="a00155.html" target="_top" xlink:title=" ">
<polygon fill="white" stroke="black" points="332.5,-280.5 332.5,-299.5 427.5,-299.5 427.5,-280.5 332.5,-280.5"/>
<text text-anchor="middle" x="380" y="-287.5" font-family="Helvetica,sans-Serif" font-size="10.00">MessageSource.h</text>
</a>
</g>
</g>
<!-- Node27&#45;&gt;Node28 -->
<g id="edge38" class="edge">
<title>Node27&#45;&gt;Node28</title>
<path fill="none" stroke="midnightblue" d="M409.99,-394.09C340.81,-383.49 217.36,-363.63 211,-356 177.12,-315.33 260.92,-300.04 322.25,-294.34"/>
<polygon fill="midnightblue" stroke="midnightblue" points="322.6,-297.82 332.26,-293.47 321.99,-290.85 322.6,-297.82"/>
</g>
<!-- Node29 -->
<g id="node29" class="node">
<title>Node29</title>
<g id="a_node29"><a xlink:title=" ">
<polygon fill="white" stroke="#bfbfbf" points="220,-336.5 220,-355.5 258,-355.5 258,-336.5 220,-336.5"/>
<text text-anchor="middle" x="239" y="-343.5" font-family="Helvetica,sans-Serif" font-size="10.00">array</text>
</a>
</g>
</g>
<!-- Node27&#45;&gt;Node29 -->
<g id="edge43" class="edge">
<title>Node27&#45;&gt;Node29</title>
<path fill="none" stroke="midnightblue" d="M416.32,-392.49C380.01,-384.49 324.64,-371.78 268.05,-356.14"/>
<polygon fill="midnightblue" stroke="midnightblue" points="268.79,-352.71 258.22,-353.39 266.91,-359.45 268.79,-352.71"/>
</g>
<!-- Node30 -->
<g id="node30" class="node">
<title>Node30</title>
<g id="a_node30"><a xlink:title=" ">
<polygon fill="white" stroke="#bfbfbf" points="276,-336.5 276,-355.5 326,-355.5 326,-336.5 276,-336.5"/>
<text text-anchor="middle" x="301" y="-343.5" font-family="Helvetica,sans-Serif" font-size="10.00">optional</text>
</a>
</g>
</g>
<!-- Node27&#45;&gt;Node30 -->
<g id="edge45" class="edge">
<title>Node27&#45;&gt;Node30</title>
<path fill="none" stroke="midnightblue" d="M431.44,-392.44C405.48,-383.4 364.33,-369.06 335.2,-358.92"/>
<polygon fill="midnightblue" stroke="midnightblue" points="336.04,-355.5 325.45,-355.52 333.74,-362.11 336.04,-355.5"/>
</g>
<!-- Node31 -->
<g id="node31" class="node">
<title>Node31</title>
<g id="a_node31"><a xlink:title=" ">
<polygon fill="white" stroke="#bfbfbf" points="344.5,-336.5 344.5,-355.5 427.5,-355.5 427.5,-336.5 344.5,-336.5"/>
<text text-anchor="middle" x="386" y="-343.5" font-family="Helvetica,sans-Serif" font-size="10.00">unordered_map</text>
</a>
</g>
</g>
<!-- Node27&#45;&gt;Node31 -->
<g id="edge47" class="edge">
<title>Node27&#45;&gt;Node31</title>
<path fill="none" stroke="midnightblue" d="M444.75,-392.32C434.2,-384.18 418.2,-371.84 405.56,-362.09"/>
<polygon fill="midnightblue" stroke="midnightblue" points="407.51,-359.17 397.45,-355.83 403.23,-364.71 407.51,-359.17"/>
</g>
<!-- Node28&#45;&gt;Node10 -->
<g id="edge39" class="edge">
<title>Node28&#45;&gt;Node10</title>
<path fill="none" stroke="midnightblue" d="M381.26,-280.07C383.38,-267.05 388.51,-242.38 399,-224 432.83,-164.75 443.88,-144.27 504,-112 570.04,-76.55 657.47,-67.84 713.73,-66.29"/>
<polygon fill="midnightblue" stroke="midnightblue" points="713.94,-69.78 723.86,-66.07 713.79,-62.78 713.94,-69.78"/>
</g>
<!-- Node28&#45;&gt;Node16 -->
<g id="edge41" class="edge">
<title>Node28&#45;&gt;Node16</title>
<path fill="none" stroke="midnightblue" d="M377.15,-280.42C374.2,-271.4 369.54,-256.77 366,-244 350.08,-186.47 334.26,-117.56 327.05,-85.32"/>
<polygon fill="midnightblue" stroke="midnightblue" points="330.46,-84.53 324.87,-75.52 323.62,-86.04 330.46,-84.53"/>
</g>
<!-- Node28&#45;&gt;Node17 -->
<g id="edge40" class="edge">
<title>Node28&#45;&gt;Node17</title>
<path fill="none" stroke="midnightblue" d="M420.72,-280.44C465.65,-271 538,-255.8 586.5,-245.61"/>
<polygon fill="midnightblue" stroke="midnightblue" points="587.4,-249 596.47,-243.52 585.96,-242.15 587.4,-249"/>
</g>
<!-- Node32&#45;&gt;Node10 -->
<g id="edge50" class="edge">
<title>Node32&#45;&gt;Node10</title>
<path fill="none" stroke="midnightblue" d="M663.53,-280.38C670.38,-271.33 681.46,-256.67 691,-244 709.71,-219.14 717.63,-215.05 733,-188 746.29,-164.6 748.02,-157.7 756,-132 760.76,-116.65 764.49,-98.77 766.89,-85.66"/>
<polygon fill="midnightblue" stroke="midnightblue" points="770.39,-85.99 768.66,-75.54 763.49,-84.79 770.39,-85.99"/>
</g>
<!-- Node32&#45;&gt;Node22 -->
<g id="edge51" class="edge">
<title>Node32&#45;&gt;Node22</title>
<path fill="none" stroke="midnightblue" d="M633.23,-280.44C608.11,-271.4 568.29,-257.06 540.1,-246.92"/>
<polygon fill="midnightblue" stroke="midnightblue" points="541.25,-243.61 530.66,-243.52 538.88,-250.2 541.25,-243.61"/>
</g>
<!-- Node33&#45;&gt;Node2 -->
<g id="edge56" class="edge">
<title>Node33&#45;&gt;Node2</title>
<path fill="none" stroke="midnightblue" d="M292.66,-560.08C293.18,-553.01 293.94,-542.86 294.59,-533.99"/>
<polygon fill="midnightblue" stroke="midnightblue" points="298.1,-533.98 295.35,-523.75 291.12,-533.47 298.1,-533.98"/>
</g>
<!-- Node34&#45;&gt;Node2 -->
<g id="edge58" class="edge">
<title>Node34&#45;&gt;Node2</title>
<path fill="none" stroke="midnightblue" d="M452.31,-561.38C421.72,-552.3 370.32,-537.05 334.86,-526.53"/>
<polygon fill="midnightblue" stroke="midnightblue" points="335.45,-523.05 324.86,-523.56 333.45,-529.76 335.45,-523.05"/>
</g>
<!-- Node34&#45;&gt;Node4 -->
<g id="edge59" class="edge">
<title>Node34&#45;&gt;Node4</title>
<path fill="none" stroke="midnightblue" d="M468.49,-560.5C432.62,-528.56 305.03,-416.31 257,-392 218.38,-372.45 170.33,-360.69 135.53,-354.12"/>
<polygon fill="midnightblue" stroke="midnightblue" points="136.09,-350.66 125.63,-352.32 134.84,-357.55 136.09,-350.66"/>
</g>
<!-- Node34&#45;&gt;Node24 -->
<g id="edge60" class="edge">
<title>Node34&#45;&gt;Node24</title>
<path fill="none" stroke="midnightblue" d="M480.51,-560.25C487.14,-536.6 505.04,-469.35 511,-412 511.92,-403.16 511.31,-400.88 511,-392 510,-363.23 507.42,-329.94 505.68,-309.68"/>
<polygon fill="midnightblue" stroke="midnightblue" points="509.16,-309.29 504.8,-299.64 502.19,-309.9 509.16,-309.29"/>
</g>
<!-- Node35&#45;&gt;Node2 -->
<g id="edge66" class="edge">
<title>Node35&#45;&gt;Node2</title>
<path fill="none" stroke="midnightblue" d="M354.75,-560.32C344.2,-552.18 328.2,-539.84 315.56,-530.09"/>
<polygon fill="midnightblue" stroke="midnightblue" points="317.51,-527.17 307.45,-523.83 313.23,-532.71 317.51,-527.17"/>
</g>
<!-- Node36&#45;&gt;Node10 -->
<g id="edge68" class="edge">
<title>Node36&#45;&gt;Node10</title>
<path fill="none" stroke="midnightblue" d="M756.08,-280.26C767.35,-272.35 782.35,-259.58 789,-244 812.12,-189.86 790.32,-118.3 777.64,-85.21"/>
<polygon fill="midnightblue" stroke="midnightblue" points="780.74,-83.53 773.77,-75.55 774.24,-86.13 780.74,-83.53"/>
</g>
<!-- Node36&#45;&gt;Node16 -->
<g id="edge71" class="edge">
<title>Node36&#45;&gt;Node16</title>
<path fill="none" stroke="midnightblue" d="M717.81,-282.33C675.09,-270.51 590.17,-246.87 584,-244 532.84,-220.2 394.86,-119.98 343.04,-81.83"/>
<polygon fill="midnightblue" stroke="midnightblue" points="344.79,-78.78 334.67,-75.66 340.64,-84.41 344.79,-78.78"/>
</g>
<!-- Node36&#45;&gt;Node17 -->
<g id="edge69" class="edge">
<title>Node36&#45;&gt;Node17</title>
<path fill="none" stroke="midnightblue" d="M725.13,-280.32C708.29,-271.66 682.19,-258.24 662.76,-248.25"/>
<polygon fill="midnightblue" stroke="midnightblue" points="664.32,-245.12 653.83,-243.65 661.12,-251.34 664.32,-245.12"/>
</g>
<!-- Node36&#45;&gt;Node23 -->
<g id="edge70" class="edge">
<title>Node36&#45;&gt;Node23</title>
<path fill="none" stroke="midnightblue" d="M717.93,-282.08C714.93,-281.33 711.91,-280.61 709,-280 606.55,-258.42 576.45,-265.03 470.14,-244.05"/>
<polygon fill="midnightblue" stroke="midnightblue" points="470.8,-240.61 460.31,-242.07 469.42,-247.48 470.8,-240.61"/>
</g>
<!-- Node37 -->
<g id="node37" class="node">
<title>Node37</title>
<g id="a_node37"><a xlink:title=" ">
<polygon fill="white" stroke="#bfbfbf" points="738,-224.5 738,-243.5 780,-243.5 780,-224.5 738,-224.5"/>
<text text-anchor="middle" x="759" y="-231.5" font-family="Helvetica,sans-Serif" font-size="10.00">vector</text>
</a>
</g>
</g>
<!-- Node36&#45;&gt;Node37 -->
<g id="edge72" class="edge">
<title>Node36&#45;&gt;Node37</title>
<path fill="none" stroke="midnightblue" d="M744.81,-280.08C747.08,-272.85 750.37,-262.41 753.21,-253.4"/>
<polygon fill="midnightblue" stroke="midnightblue" points="756.58,-254.34 756.25,-243.75 749.9,-252.24 756.58,-254.34"/>
</g>
</g>
</svg>
