<?xml version="1.0" encoding="UTF-8" standalone="no"?>
<!DOCTYPE svg PUBLIC "-//W3C//DTD SVG 1.1//EN"
 "http://www.w3.org/Graphics/SVG/1.1/DTD/svg11.dtd">
<!-- Generated by graphviz version 9.0.0 (0)
 -->
<!-- Title: LoaderTaskQueue.h Pages: 1 -->
<svg width="317pt" height="84pt"
 viewBox="0.00 0.00 316.50 84.00" xmlns="http://www.w3.org/2000/svg" xmlns:xlink="http://www.w3.org/1999/xlink">
<g id="graph0" class="graph" transform="scale(1 1) rotate(0) translate(4 80)">
<title>LoaderTaskQueue.h</title>
<!-- Node1 -->
<g id="Node000001" class="node">
<title>Node1</title>
<g id="a_Node000001"><a xlink:title=" ">
<polygon fill="#999999" stroke="#666666" points="222,-76 119,-76 119,-56 222,-56 222,-76"/>
<text text-anchor="middle" x="170.5" y="-62.5" font-family="Helvetica,sans-Serif" font-size="10.00">LoaderTaskQueue.h</text>
</a>
</g>
</g>
<!-- Node2 -->
<g id="Node000002" class="node">
<title>Node2</title>
<g id="a_Node000002"><a xlink:href="a00257.html" target="_top" xlink:title=" ">
<polygon fill="white" stroke="#666666" points="115,-20 0,-20 0,0 115,0 115,-20"/>
<text text-anchor="middle" x="57.5" y="-6.5" font-family="Helvetica,sans-Serif" font-size="10.00">PlatformException.cpp</text>
</a>
</g>
</g>
<!-- Node1&#45;&gt;Node2 -->
<g id="edge1_Node000001_Node000002" class="edge">
<title>Node1&#45;&gt;Node2</title>
<g id="a_edge1_Node000001_Node000002"><a xlink:title=" ">
<path fill="none" stroke="#63b8ff" d="M140.67,-50.75C120.66,-41.18 94.86,-28.85 77.34,-20.48"/>
<polygon fill="#63b8ff" stroke="#63b8ff" points="138.92,-53.79 149.45,-54.94 141.94,-47.47 138.92,-53.79"/>
</a>
</g>
</g>
<!-- Node3 -->
<g id="Node000003" class="node">
<title>Node3</title>
<g id="a_Node000003"><a xlink:href="a01461.html" target="_top" xlink:title=" ">
<polygon fill="white" stroke="#666666" points="208.12,-20 132.88,-20 132.88,0 208.12,0 208.12,-20"/>
<text text-anchor="middle" x="170.5" y="-6.5" font-family="Helvetica,sans-Serif" font-size="10.00">loaderApi.cpp</text>
</a>
</g>
</g>
<!-- Node1&#45;&gt;Node3 -->
<g id="edge2_Node000001_Node000003" class="edge">
<title>Node1&#45;&gt;Node3</title>
<g id="a_edge2_Node000001_Node000003"><a xlink:title=" ">
<path fill="none" stroke="#63b8ff" d="M170.5,-44.13C170.5,-35.9 170.5,-26.85 170.5,-20.3"/>
<polygon fill="#63b8ff" stroke="#63b8ff" points="167,-44.08 170.5,-54.08 174,-44.08 167,-44.08"/>
</a>
</g>
</g>
<!-- Node4 -->
<g id="Node000004" class="node">
<title>Node4</title>
<g id="a_Node000004"><a xlink:href="a00281.html" target="_top" xlink:title=" ">
<polygon fill="white" stroke="#666666" points="308.5,-20 226.5,-20 226.5,0 308.5,0 308.5,-20"/>
<text text-anchor="middle" x="267.5" y="-6.5" font-family="Helvetica,sans-Serif" font-size="10.00">loaderMain.cpp</text>
</a>
</g>
</g>
<!-- Node1&#45;&gt;Node4 -->
<g id="edge3_Node000001_Node000004" class="edge">
<title>Node1&#45;&gt;Node4</title>
<g id="a_edge3_Node000001_Node000004"><a xlink:title=" ">
<path fill="none" stroke="#63b8ff" d="M197.3,-50.08C214.3,-40.62 235.78,-28.66 250.47,-20.48"/>
<polygon fill="#63b8ff" stroke="#63b8ff" points="195.75,-46.94 188.72,-54.86 199.16,-53.05 195.75,-46.94"/>
</a>
</g>
</g>
</g>
</svg>
