<?xml version="1.0" encoding="UTF-8" standalone="no"?>
<!DOCTYPE svg PUBLIC "-//W3C//DTD SVG 1.1//EN"
 "http://www.w3.org/Graphics/SVG/1.1/DTD/svg11.dtd">
<!-- Generated by graphviz version 2.50.0 (20211204.2007)
 -->
<!-- Title: LoaderLogger.h Pages: 1 -->
<svg width="1284pt" height="196pt"
 viewBox="0.00 0.00 1284.00 196.00" xmlns="http://www.w3.org/2000/svg" xmlns:xlink="http://www.w3.org/1999/xlink">
<g id="graph0" class="graph" transform="scale(1 1) rotate(0) translate(4 192)">
<title>LoaderLogger.h</title>
<polygon fill="white" stroke="transparent" points="-4,4 -4,-192 1280,-192 1280,4 -4,4"/>
<!-- Node1 -->
<g id="node1" class="node">
<title>Node1</title>
<g id="a_node1"><a xlink:title=" ">
<polygon fill="#bfbfbf" stroke="black" points="641,-168.5 641,-187.5 724,-187.5 724,-168.5 641,-168.5"/>
<text text-anchor="middle" x="682.5" y="-175.5" font-family="Helvetica,sans-Serif" font-size="10.00">LoaderLogger.h</text>
</a>
</g>
</g>
<!-- Node2 -->
<g id="node2" class="node">
<title>Node2</title>
<g id="a_node2"><a xlink:href="a00206.html" target="_top" xlink:title=" ">
<polygon fill="white" stroke="black" points="186.5,-112.5 186.5,-131.5 256.5,-131.5 256.5,-112.5 186.5,-112.5"/>
<text text-anchor="middle" x="221.5" y="-119.5" font-family="Helvetica,sans-Serif" font-size="10.00">JNIEnvs.cpp</text>
</a>
</g>
</g>
<!-- Node1&#45;&gt;Node2 -->
<g id="edge1" class="edge">
<title>Node1&#45;&gt;Node2</title>
<path fill="none" stroke="midnightblue" d="M630.78,-172.57C552.57,-165.6 399.62,-150.88 270.5,-132 265.96,-131.34 261.21,-130.56 256.51,-129.75"/>
<polygon fill="midnightblue" stroke="midnightblue" points="630.58,-176.07 640.85,-173.46 631.2,-169.09 630.58,-176.07"/>
</g>
<!-- Node3 -->
<g id="node3" class="node">
<title>Node3</title>
<g id="a_node3"><a xlink:href="a00230.html" target="_top" xlink:title=" ">
<polygon fill="white" stroke="black" points="313,-56.5 313,-75.5 416,-75.5 416,-56.5 313,-56.5"/>
<text text-anchor="middle" x="364.5" y="-63.5" font-family="Helvetica,sans-Serif" font-size="10.00">LoaderExceptions.h</text>
</a>
</g>
</g>
<!-- Node1&#45;&gt;Node3 -->
<g id="edge2" class="edge">
<title>Node1&#45;&gt;Node3</title>
<path fill="none" stroke="midnightblue" d="M630.65,-176.6C577.6,-174.22 494.16,-164.92 430.5,-132 403.93,-118.26 381.13,-90.17 370.65,-75.84"/>
<polygon fill="midnightblue" stroke="midnightblue" points="630.72,-180.1 640.84,-176.99 630.98,-173.11 630.72,-180.1"/>
</g>
<!-- Node5 -->
<g id="node5" class="node">
<title>Node5</title>
<g id="a_node5"><a xlink:href="a00260.html" target="_top" xlink:title=" ">
<polygon fill="white" stroke="black" points="464.5,-0.5 464.5,-19.5 526.5,-19.5 526.5,-0.5 464.5,-0.5"/>
<text text-anchor="middle" x="495.5" y="-7.5" font-family="Helvetica,sans-Serif" font-size="10.00">Plugin.cpp</text>
</a>
</g>
</g>
<!-- Node1&#45;&gt;Node5 -->
<g id="edge10" class="edge">
<title>Node1&#45;&gt;Node5</title>
<path fill="none" stroke="midnightblue" d="M664.89,-161.37C626.26,-127.07 535.1,-46.16 505.19,-19.61"/>
<polygon fill="midnightblue" stroke="midnightblue" points="662.91,-164.29 672.71,-168.31 667.55,-159.05 662.91,-164.29"/>
</g>
<!-- Node6 -->
<g id="node6" class="node">
<title>Node6</title>
<g id="a_node6"><a xlink:href="a00269.html" target="_top" xlink:title=" ">
<polygon fill="white" stroke="black" points="228.5,-0.5 228.5,-19.5 344.5,-19.5 344.5,-0.5 228.5,-0.5"/>
<text text-anchor="middle" x="286.5" y="-7.5" font-family="Helvetica,sans-Serif" font-size="10.00">PluginListManager.cpp</text>
</a>
</g>
</g>
<!-- Node1&#45;&gt;Node6 -->
<g id="edge23" class="edge">
<title>Node1&#45;&gt;Node6</title>
<path fill="none" stroke="midnightblue" d="M630.39,-174.37C572.71,-170.17 477.7,-159.39 400.5,-132 353.58,-115.36 333.69,-115.58 303.5,-76 290.63,-59.12 287.47,-33.39 286.71,-19.92"/>
<polygon fill="midnightblue" stroke="midnightblue" points="630.49,-177.88 640.71,-175.08 630.97,-170.9 630.49,-177.88"/>
</g>
<!-- Node8 -->
<g id="node8" class="node">
<title>Node8</title>
<g id="a_node8"><a xlink:href="a00242.html" target="_top" xlink:title=" ">
<polygon fill="white" stroke="black" points="363,-0.5 363,-19.5 446,-19.5 446,-0.5 363,-0.5"/>
<text text-anchor="middle" x="404.5" y="-7.5" font-family="Helvetica,sans-Serif" font-size="10.00">loaderMain.cpp</text>
</a>
</g>
</g>
<!-- Node1&#45;&gt;Node8 -->
<g id="edge34" class="edge">
<title>Node1&#45;&gt;Node8</title>
<path fill="none" stroke="midnightblue" d="M645.62,-165.14C600.03,-149.38 521.41,-118.48 463.5,-76 440.89,-59.41 420.3,-33.09 410.51,-19.6"/>
<polygon fill="midnightblue" stroke="midnightblue" points="644.77,-168.55 655.37,-168.46 647.03,-161.93 644.77,-168.55"/>
</g>
<!-- Node9 -->
<g id="node9" class="node">
<title>Node9</title>
<g id="a_node9"><a xlink:href="a00233.html" target="_top" xlink:title=" ">
<polygon fill="white" stroke="black" points="980.5,-0.5 980.5,-19.5 1074.5,-19.5 1074.5,-0.5 980.5,-0.5"/>
<text text-anchor="middle" x="1027.5" y="-7.5" font-family="Helvetica,sans-Serif" font-size="10.00">LoaderLogger.cpp</text>
</a>
</g>
</g>
<!-- Node1&#45;&gt;Node9 -->
<g id="edge8" class="edge">
<title>Node1&#45;&gt;Node9</title>
<path fill="none" stroke="midnightblue" d="M734.3,-169.77C797.62,-158.75 905.49,-132.73 979.5,-76 999.99,-60.3 1015.82,-33.59 1023.11,-19.81"/>
<polygon fill="midnightblue" stroke="midnightblue" points="733.43,-166.37 724.15,-171.47 734.59,-173.27 733.43,-166.37"/>
</g>
<!-- Node10 -->
<g id="node10" class="node">
<title>Node10</title>
<g id="a_node10"><a xlink:href="a00257.html" target="_top" xlink:title=" ">
<polygon fill="white" stroke="black" points="753,-0.5 753,-19.5 868,-19.5 868,-0.5 753,-0.5"/>
<text text-anchor="middle" x="810.5" y="-7.5" font-family="Helvetica,sans-Serif" font-size="10.00">PlatformException.cpp</text>
</a>
</g>
</g>
<!-- Node1&#45;&gt;Node10 -->
<g id="edge9" class="edge">
<title>Node1&#45;&gt;Node10</title>
<path fill="none" stroke="midnightblue" d="M733.81,-167.36C754.75,-160.83 777.33,-149.98 791.5,-132 818.35,-97.93 814.47,-41.32 811.79,-19.73"/>
<polygon fill="midnightblue" stroke="midnightblue" points="732.68,-164.04 724.02,-170.15 734.6,-170.78 732.68,-164.04"/>
</g>
<!-- Node11 -->
<g id="node11" class="node">
<title>Node11</title>
<g id="a_node11"><a xlink:href="a00266.html" target="_top" xlink:title=" ">
<polygon fill="white" stroke="black" points="710.5,-112.5 710.5,-131.5 782.5,-131.5 782.5,-112.5 710.5,-112.5"/>
<text text-anchor="middle" x="746.5" y="-119.5" font-family="Helvetica,sans-Serif" font-size="10.00">PluginData.h</text>
</a>
</g>
</g>
<!-- Node1&#45;&gt;Node11 -->
<g id="edge11" class="edge">
<title>Node1&#45;&gt;Node11</title>
<path fill="none" stroke="midnightblue" d="M700.49,-161.82C711.96,-152.15 726.41,-139.95 736.03,-131.83"/>
<polygon fill="midnightblue" stroke="midnightblue" points="698.17,-159.2 692.78,-168.32 702.68,-164.55 698.17,-159.2"/>
</g>
<!-- Node13 -->
<g id="node13" class="node">
<title>Node13</title>
<g id="a_node13"><a xlink:href="a00194.html" target="_top" xlink:title=" ">
<polygon fill="white" stroke="black" points="646.5,-0.5 646.5,-19.5 734.5,-19.5 734.5,-0.5 646.5,-0.5"/>
<text text-anchor="middle" x="690.5" y="-7.5" font-family="Helvetica,sans-Serif" font-size="10.00">eventHandle.cpp</text>
</a>
</g>
</g>
<!-- Node1&#45;&gt;Node13 -->
<g id="edge31" class="edge">
<title>Node1&#45;&gt;Node13</title>
<path fill="none" stroke="midnightblue" d="M683.42,-157.93C685.15,-121.92 688.85,-45.23 690.09,-19.57"/>
<polygon fill="midnightblue" stroke="midnightblue" points="679.92,-157.92 682.93,-168.08 686.91,-158.26 679.92,-157.92"/>
</g>
<!-- Node15 -->
<g id="node15" class="node">
<title>Node15</title>
<g id="a_node15"><a xlink:href="a00212.html" target="_top" xlink:title=" ">
<polygon fill="white" stroke="black" points="1092.5,-0.5 1092.5,-19.5 1172.5,-19.5 1172.5,-0.5 1092.5,-0.5"/>
<text text-anchor="middle" x="1132.5" y="-7.5" font-family="Helvetica,sans-Serif" font-size="10.00">ktInterface.cpp</text>
</a>
</g>
</g>
<!-- Node1&#45;&gt;Node15 -->
<g id="edge32" class="edge">
<title>Node1&#45;&gt;Node15</title>
<path fill="none" stroke="midnightblue" d="M734.05,-171.46C781.28,-165.32 852.58,-153.34 911.5,-132 996.22,-101.31 1087.7,-41.66 1120.2,-19.53"/>
<polygon fill="midnightblue" stroke="midnightblue" points="733.55,-167.99 724.06,-172.72 734.42,-174.94 733.55,-167.99"/>
</g>
<!-- Node16 -->
<g id="node16" class="node">
<title>Node16</title>
<g id="a_node16"><a xlink:href="a01370.html" target="_top" xlink:title=" ">
<polygon fill="white" stroke="black" points="886.5,-0.5 886.5,-19.5 962.5,-19.5 962.5,-0.5 886.5,-0.5"/>
<text text-anchor="middle" x="924.5" y="-7.5" font-family="Helvetica,sans-Serif" font-size="10.00">loaderApi.cpp</text>
</a>
</g>
</g>
<!-- Node1&#45;&gt;Node16 -->
<g id="edge33" class="edge">
<title>Node1&#45;&gt;Node16</title>
<path fill="none" stroke="midnightblue" d="M731.99,-165.8C757.13,-158.65 787.38,-147.72 811.5,-132 836.78,-115.52 896.63,-44.66 917.31,-19.72"/>
<polygon fill="midnightblue" stroke="midnightblue" points="731,-162.44 722.27,-168.45 732.84,-169.19 731,-162.44"/>
</g>
<!-- Node17 -->
<g id="node17" class="node">
<title>Node17</title>
<g id="a_node17"><a xlink:href="a00251.html" target="_top" xlink:title=" ">
<polygon fill="white" stroke="black" points="1191,-0.5 1191,-19.5 1276,-19.5 1276,-0.5 1191,-0.5"/>
<text text-anchor="middle" x="1233.5" y="-7.5" font-family="Helvetica,sans-Serif" font-size="10.00">loaderTools.cpp</text>
</a>
</g>
</g>
<!-- Node1&#45;&gt;Node17 -->
<g id="edge35" class="edge">
<title>Node1&#45;&gt;Node17</title>
<path fill="none" stroke="midnightblue" d="M734.04,-171.83C788.03,-165.6 874.91,-153.21 947.5,-132 1053.85,-100.93 1173.75,-41.77 1216.92,-19.64"/>
<polygon fill="midnightblue" stroke="midnightblue" points="733.57,-168.37 724.03,-172.97 734.36,-175.32 733.57,-168.37"/>
</g>
<!-- Node18 -->
<g id="node18" class="node">
<title>Node18</title>
<g id="a_node18"><a xlink:href="a00290.html" target="_top" xlink:title=" ">
<polygon fill="white" stroke="black" points="580.5,-56.5 580.5,-75.5 654.5,-75.5 654.5,-56.5 580.5,-56.5"/>
<text text-anchor="middle" x="617.5" y="-63.5" font-family="Helvetica,sans-Serif" font-size="10.00">ThreadPool.h</text>
</a>
</g>
</g>
<!-- Node1&#45;&gt;Node18 -->
<g id="edge24" class="edge">
<title>Node1&#45;&gt;Node18</title>
<path fill="none" stroke="midnightblue" d="M672.24,-159.64C658.12,-135.74 633.24,-93.63 622.58,-75.59"/>
<polygon fill="midnightblue" stroke="midnightblue" points="669.3,-161.54 677.4,-168.37 675.33,-157.98 669.3,-161.54"/>
</g>
<!-- Node4 -->
<g id="node4" class="node">
<title>Node4</title>
<g id="a_node4"><a xlink:href="a00227.html" target="_top" xlink:title=" ">
<polygon fill="white" stroke="black" points="0,-0.5 0,-19.5 113,-19.5 113,-0.5 0,-0.5"/>
<text text-anchor="middle" x="56.5" y="-7.5" font-family="Helvetica,sans-Serif" font-size="10.00">LoaderExceptions.cpp</text>
</a>
</g>
</g>
<!-- Node3&#45;&gt;Node4 -->
<g id="edge3" class="edge">
<title>Node3&#45;&gt;Node4</title>
<path fill="none" stroke="midnightblue" d="M305.55,-54.66C247.34,-44.46 159.39,-29.04 105.08,-19.52"/>
<polygon fill="midnightblue" stroke="midnightblue" points="305.24,-58.16 315.7,-56.44 306.45,-51.27 305.24,-58.16"/>
</g>
<!-- Node3&#45;&gt;Node5 -->
<g id="edge4" class="edge">
<title>Node3&#45;&gt;Node5</title>
<path fill="none" stroke="midnightblue" d="M394.82,-52.5C419.38,-42.38 453.32,-28.39 474.84,-19.52"/>
<polygon fill="midnightblue" stroke="midnightblue" points="393.17,-49.4 385.26,-56.44 395.84,-55.87 393.17,-49.4"/>
</g>
<!-- Node3&#45;&gt;Node6 -->
<g id="edge5" class="edge">
<title>Node3&#45;&gt;Node6</title>
<path fill="none" stroke="midnightblue" d="M343.73,-50.62C329.48,-40.76 311.04,-27.99 299,-19.65"/>
<polygon fill="midnightblue" stroke="midnightblue" points="341.75,-53.51 351.97,-56.32 345.74,-47.75 341.75,-53.51"/>
</g>
<!-- Node7 -->
<g id="node7" class="node">
<title>Node7</title>
<g id="a_node7"><a xlink:href="a00275.html" target="_top" xlink:title=" ">
<polygon fill="white" stroke="black" points="131,-0.5 131,-19.5 210,-19.5 210,-0.5 131,-0.5"/>
<text text-anchor="middle" x="170.5" y="-7.5" font-family="Helvetica,sans-Serif" font-size="10.00">Scheduler.cpp</text>
</a>
</g>
</g>
<!-- Node3&#45;&gt;Node7 -->
<g id="edge6" class="edge">
<title>Node3&#45;&gt;Node7</title>
<path fill="none" stroke="midnightblue" d="M323.9,-53.7C287.28,-43.51 234.24,-28.74 201.1,-19.52"/>
<polygon fill="midnightblue" stroke="midnightblue" points="323.19,-57.13 333.76,-56.44 325.06,-50.39 323.19,-57.13"/>
</g>
<!-- Node3&#45;&gt;Node8 -->
<g id="edge7" class="edge">
<title>Node3&#45;&gt;Node8</title>
<path fill="none" stroke="midnightblue" d="M377.2,-47.86C384.13,-38.5 392.41,-27.33 398.02,-19.75"/>
<polygon fill="midnightblue" stroke="midnightblue" points="374.25,-45.96 371.11,-56.08 379.87,-50.13 374.25,-45.96"/>
</g>
<!-- Node12 -->
<g id="node12" class="node">
<title>Node12</title>
<g id="a_node12"><a xlink:href="a00263.html" target="_top" xlink:title=" ">
<polygon fill="white" stroke="black" points="472.5,-56.5 472.5,-75.5 524.5,-75.5 524.5,-56.5 472.5,-56.5"/>
<text text-anchor="middle" x="498.5" y="-63.5" font-family="Helvetica,sans-Serif" font-size="10.00">Plugin.h</text>
</a>
</g>
</g>
<!-- Node11&#45;&gt;Node12 -->
<g id="edge12" class="edge">
<title>Node11&#45;&gt;Node12</title>
<path fill="none" stroke="midnightblue" d="M700.52,-110.99C648.78,-99.72 566.52,-81.81 524.73,-72.71"/>
<polygon fill="midnightblue" stroke="midnightblue" points="699.92,-114.44 710.44,-113.15 701.41,-107.6 699.92,-114.44"/>
</g>
<!-- Node14 -->
<g id="node14" class="node">
<title>Node14</title>
<g id="a_node14"><a xlink:href="a00254.html" target="_top" xlink:title=" ">
<polygon fill="white" stroke="black" points="896.5,-56.5 896.5,-75.5 970.5,-75.5 970.5,-56.5 896.5,-56.5"/>
<text text-anchor="middle" x="933.5" y="-63.5" font-family="Helvetica,sans-Serif" font-size="10.00">loaderTools.h</text>
</a>
</g>
</g>
<!-- Node11&#45;&gt;Node14 -->
<g id="edge17" class="edge">
<title>Node11&#45;&gt;Node14</title>
<path fill="none" stroke="midnightblue" d="M786.09,-109.57C821.37,-99.38 872.19,-84.7 904.01,-75.52"/>
<polygon fill="midnightblue" stroke="midnightblue" points="784.77,-106.31 776.13,-112.44 786.71,-113.03 784.77,-106.31"/>
</g>
<!-- Node12&#45;&gt;Node5 -->
<g id="edge13" class="edge">
<title>Node12&#45;&gt;Node5</title>
<path fill="none" stroke="midnightblue" d="M497.43,-45.8C496.94,-36.91 496.38,-26.78 495.99,-19.75"/>
<polygon fill="midnightblue" stroke="midnightblue" points="493.96,-46.29 498,-56.08 500.94,-45.9 493.96,-46.29"/>
</g>
<!-- Node12&#45;&gt;Node6 -->
<g id="edge14" class="edge">
<title>Node12&#45;&gt;Node6</title>
<path fill="none" stroke="midnightblue" d="M462.22,-55.76C422.29,-45.59 358.64,-29.38 319.9,-19.51"/>
<polygon fill="midnightblue" stroke="midnightblue" points="461.52,-59.19 472.08,-58.27 463.25,-52.41 461.52,-59.19"/>
</g>
<!-- Node12&#45;&gt;Node8 -->
<g id="edge16" class="edge">
<title>Node12&#45;&gt;Node8</title>
<path fill="none" stroke="midnightblue" d="M474.44,-51.18C457.14,-41.24 434.35,-28.15 419.57,-19.65"/>
<polygon fill="midnightblue" stroke="midnightblue" points="472.98,-54.38 483.4,-56.32 476.47,-48.31 472.98,-54.38"/>
</g>
<!-- Node12&#45;&gt;Node13 -->
<g id="edge15" class="edge">
<title>Node12&#45;&gt;Node13</title>
<path fill="none" stroke="midnightblue" d="M534.47,-54.88C570.71,-44.69 625.99,-29.14 660.1,-19.55"/>
<polygon fill="midnightblue" stroke="midnightblue" points="533.47,-51.53 524.79,-57.6 535.37,-58.27 533.47,-51.53"/>
</g>
<!-- Node14&#45;&gt;Node5 -->
<g id="edge19" class="edge">
<title>Node14&#45;&gt;Node5</title>
<path fill="none" stroke="midnightblue" d="M886.23,-61.33C811.45,-55.15 661.41,-41.22 535.5,-20 532.69,-19.53 529.79,-18.98 526.88,-18.4"/>
<polygon fill="midnightblue" stroke="midnightblue" points="886.02,-64.82 896.27,-62.15 886.59,-57.85 886.02,-64.82"/>
</g>
<!-- Node14&#45;&gt;Node9 -->
<g id="edge18" class="edge">
<title>Node14&#45;&gt;Node9</title>
<path fill="none" stroke="midnightblue" d="M957.56,-51.18C974.86,-41.24 997.65,-28.15 1012.43,-19.65"/>
<polygon fill="midnightblue" stroke="midnightblue" points="955.53,-48.31 948.6,-56.32 959.02,-54.38 955.53,-48.31"/>
</g>
<!-- Node14&#45;&gt;Node15 -->
<g id="edge20" class="edge">
<title>Node14&#45;&gt;Node15</title>
<path fill="none" stroke="midnightblue" d="M975.15,-53.7C1012.71,-43.51 1067.11,-28.74 1101.12,-19.52"/>
<polygon fill="midnightblue" stroke="midnightblue" points="973.77,-50.45 965.03,-56.44 975.6,-57.2 973.77,-50.45"/>
</g>
<!-- Node14&#45;&gt;Node16 -->
<g id="edge21" class="edge">
<title>Node14&#45;&gt;Node16</title>
<path fill="none" stroke="midnightblue" d="M930.35,-46.1C928.86,-37.14 927.14,-26.86 925.96,-19.75"/>
<polygon fill="midnightblue" stroke="midnightblue" points="926.92,-46.79 932.01,-56.08 933.82,-45.64 926.92,-46.79"/>
</g>
<!-- Node14&#45;&gt;Node17 -->
<g id="edge22" class="edge">
<title>Node14&#45;&gt;Node17</title>
<path fill="none" stroke="midnightblue" d="M980.53,-56.53C1038.18,-46.16 1135.04,-28.72 1190.69,-18.71"/>
<polygon fill="midnightblue" stroke="midnightblue" points="979.81,-53.11 970.59,-58.32 981.05,-60 979.81,-53.11"/>
</g>
<!-- Node18&#45;&gt;Node5 -->
<g id="edge26" class="edge">
<title>Node18&#45;&gt;Node5</title>
<path fill="none" stroke="midnightblue" d="M588.96,-52.37C566.11,-42.26 534.69,-28.35 514.74,-19.52"/>
<polygon fill="midnightblue" stroke="midnightblue" points="587.61,-55.6 598.17,-56.44 590.44,-49.2 587.61,-55.6"/>
</g>
<!-- Node18&#45;&gt;Node6 -->
<g id="edge27" class="edge">
<title>Node18&#45;&gt;Node6</title>
<path fill="none" stroke="midnightblue" d="M570.33,-57.3C509.05,-47.31 402.39,-29.91 338.73,-19.52"/>
<polygon fill="midnightblue" stroke="midnightblue" points="570.06,-60.81 580.49,-58.96 571.19,-53.9 570.06,-60.81"/>
</g>
<!-- Node18&#45;&gt;Node8 -->
<g id="edge30" class="edge">
<title>Node18&#45;&gt;Node8</title>
<path fill="none" stroke="midnightblue" d="M573.95,-53.96C533.72,-43.76 474.8,-28.82 438.09,-19.52"/>
<polygon fill="midnightblue" stroke="midnightblue" points="573.2,-57.38 583.75,-56.44 574.92,-50.59 573.2,-57.38"/>
</g>
<!-- Node18&#45;&gt;Node10 -->
<g id="edge25" class="edge">
<title>Node18&#45;&gt;Node10</title>
<path fill="none" stroke="midnightblue" d="M657.89,-53.7C694.32,-43.51 747.09,-28.74 780.06,-19.52"/>
<polygon fill="midnightblue" stroke="midnightblue" points="656.77,-50.38 648.08,-56.44 658.65,-57.12 656.77,-50.38"/>
</g>
<!-- Node18&#45;&gt;Node16 -->
<g id="edge29" class="edge">
<title>Node18&#45;&gt;Node16</title>
<path fill="none" stroke="midnightblue" d="M664.77,-56.98C716.71,-48.13 802.61,-33.35 876.5,-20 879.67,-19.43 882.96,-18.83 886.26,-18.22"/>
<polygon fill="midnightblue" stroke="midnightblue" points="664.11,-53.54 654.84,-58.67 665.29,-60.44 664.11,-53.54"/>
</g>
<!-- Node19 -->
<g id="node19" class="node">
<title>Node19</title>
<g id="a_node19"><a xlink:href="a00287.html" target="_top" xlink:title=" ">
<polygon fill="white" stroke="black" points="544.5,-0.5 544.5,-19.5 628.5,-19.5 628.5,-0.5 544.5,-0.5"/>
<text text-anchor="middle" x="586.5" y="-7.5" font-family="Helvetica,sans-Serif" font-size="10.00">ThreadPool.cpp</text>
</a>
</g>
</g>
<!-- Node18&#45;&gt;Node19 -->
<g id="edge28" class="edge">
<title>Node18&#45;&gt;Node19</title>
<path fill="none" stroke="midnightblue" d="M607.32,-47.27C602.03,-38.05 595.78,-27.17 591.52,-19.75"/>
<polygon fill="midnightblue" stroke="midnightblue" points="604.37,-49.15 612.38,-56.08 610.44,-45.67 604.37,-49.15"/>
</g>
</g>
</svg>
