<?xml version="1.0" encoding="UTF-8" standalone="no"?>
<!DOCTYPE svg PUBLIC "-//W3C//DTD SVG 1.1//EN"
 "http://www.w3.org/Graphics/SVG/1.1/DTD/svg11.dtd">
<!-- Generated by graphviz version 9.0.0 (0)
 -->
<!-- Title: ThreadPool.h Pages: 1 -->
<svg width="617pt" height="84pt"
 viewBox="0.00 0.00 616.50 84.00" xmlns="http://www.w3.org/2000/svg" xmlns:xlink="http://www.w3.org/1999/xlink">
<g id="graph0" class="graph" transform="scale(1 1) rotate(0) translate(4 80)">
<title>ThreadPool.h</title>
<!-- Node1 -->
<g id="Node000001" class="node">
<title>Node1</title>
<g id="a_Node000001"><a xlink:title=" ">
<polygon fill="#999999" stroke="#666666" points="354.38,-76 280.62,-76 280.62,-56 354.38,-56 354.38,-76"/>
<text text-anchor="middle" x="317.5" y="-62.5" font-family="Helvetica,sans-Serif" font-size="10.00">ThreadPool.h</text>
</a>
</g>
</g>
<!-- Node2 -->
<g id="Node000002" class="node">
<title>Node2</title>
<g id="a_Node000002"><a xlink:href="a00257.html" target="_top" xlink:title=" ">
<polygon fill="white" stroke="#666666" points="115,-20 0,-20 0,0 115,0 115,-20"/>
<text text-anchor="middle" x="57.5" y="-6.5" font-family="Helvetica,sans-Serif" font-size="10.00">PlatformException.cpp</text>
</a>
</g>
</g>
<!-- Node1&#45;&gt;Node2 -->
<g id="edge1_Node000001_Node000002" class="edge">
<title>Node1&#45;&gt;Node2</title>
<g id="a_edge1_Node000001_Node000002"><a xlink:title=" ">
<path fill="none" stroke="#63b8ff" d="M269.01,-54.93C221.45,-45.05 149.5,-30.11 103,-20.45"/>
<polygon fill="#63b8ff" stroke="#63b8ff" points="268.26,-58.35 278.77,-56.96 269.69,-51.49 268.26,-58.35"/>
</a>
</g>
</g>
<!-- Node3 -->
<g id="Node000003" class="node">
<title>Node3</title>
<g id="a_Node000003"><a xlink:href="a00224.html" target="_top" xlink:title=" ">
<polygon fill="white" stroke="#666666" points="194.38,-20 132.62,-20 132.62,0 194.38,0 194.38,-20"/>
<text text-anchor="middle" x="163.5" y="-6.5" font-family="Helvetica,sans-Serif" font-size="10.00">Plugin.cpp</text>
</a>
</g>
</g>
<!-- Node1&#45;&gt;Node3 -->
<g id="edge2_Node000001_Node000003" class="edge">
<title>Node1&#45;&gt;Node3</title>
<g id="a_edge2_Node000001_Node000003"><a xlink:title=" ">
<path fill="none" stroke="#63b8ff" d="M279.83,-51.79C252.19,-42.1 215.29,-29.16 190.53,-20.48"/>
<polygon fill="#63b8ff" stroke="#63b8ff" points="278.65,-55.09 289.25,-55.09 280.97,-48.48 278.65,-55.09"/>
</a>
</g>
</g>
<!-- Node4 -->
<g id="Node000004" class="node">
<title>Node4</title>
<g id="a_Node000004"><a xlink:href="a00263.html" target="_top" xlink:title=" ">
<polygon fill="white" stroke="#666666" points="312.12,-20 212.88,-20 212.88,0 312.12,0 312.12,-20"/>
<text text-anchor="middle" x="262.5" y="-6.5" font-family="Helvetica,sans-Serif" font-size="10.00">PluginManager.cpp</text>
</a>
</g>
</g>
<!-- Node1&#45;&gt;Node4 -->
<g id="edge3_Node000001_Node000004" class="edge">
<title>Node1&#45;&gt;Node4</title>
<g id="a_edge3_Node000001_Node000004"><a xlink:title=" ">
<path fill="none" stroke="#63b8ff" d="M299.74,-47.57C290.51,-38.5 279.59,-27.78 271.97,-20.3"/>
<polygon fill="#63b8ff" stroke="#63b8ff" points="297.25,-50.03 306.84,-54.53 302.16,-45.03 297.25,-50.03"/>
</a>
</g>
</g>
<!-- Node5 -->
<g id="Node000005" class="node">
<title>Node5</title>
<g id="a_Node000005"><a xlink:href="a00218.html" target="_top" xlink:title=" ">
<polygon fill="white" stroke="#666666" points="414.62,-20 330.38,-20 330.38,0 414.62,0 414.62,-20"/>
<text text-anchor="middle" x="372.5" y="-6.5" font-family="Helvetica,sans-Serif" font-size="10.00">ThreadPool.cpp</text>
</a>
</g>
</g>
<!-- Node1&#45;&gt;Node5 -->
<g id="edge4_Node000001_Node000005" class="edge">
<title>Node1&#45;&gt;Node5</title>
<g id="a_edge4_Node000001_Node000005"><a xlink:title=" ">
<path fill="none" stroke="#63b8ff" d="M335.26,-47.57C344.49,-38.5 355.41,-27.78 363.03,-20.3"/>
<polygon fill="#63b8ff" stroke="#63b8ff" points="332.84,-45.03 328.16,-54.53 337.75,-50.03 332.84,-45.03"/>
</a>
</g>
</g>
<!-- Node6 -->
<g id="Node000006" class="node">
<title>Node6</title>
<g id="a_Node000006"><a xlink:href="a01461.html" target="_top" xlink:title=" ">
<polygon fill="white" stroke="#666666" points="508.12,-20 432.88,-20 432.88,0 508.12,0 508.12,-20"/>
<text text-anchor="middle" x="470.5" y="-6.5" font-family="Helvetica,sans-Serif" font-size="10.00">loaderApi.cpp</text>
</a>
</g>
</g>
<!-- Node1&#45;&gt;Node6 -->
<g id="edge5_Node000001_Node000006" class="edge">
<title>Node1&#45;&gt;Node6</title>
<g id="a_edge5_Node000001_Node000006"><a xlink:title=" ">
<path fill="none" stroke="#63b8ff" d="M354.92,-51.79C382.39,-42.1 419.04,-29.16 443.64,-20.48"/>
<polygon fill="#63b8ff" stroke="#63b8ff" points="353.84,-48.46 345.58,-55.09 356.17,-55.06 353.84,-48.46"/>
</a>
</g>
</g>
<!-- Node7 -->
<g id="Node000007" class="node">
<title>Node7</title>
<g id="a_Node000007"><a xlink:href="a00281.html" target="_top" xlink:title=" ">
<polygon fill="white" stroke="#666666" points="608.5,-20 526.5,-20 526.5,0 608.5,0 608.5,-20"/>
<text text-anchor="middle" x="567.5" y="-6.5" font-family="Helvetica,sans-Serif" font-size="10.00">loaderMain.cpp</text>
</a>
</g>
</g>
<!-- Node1&#45;&gt;Node7 -->
<g id="edge6_Node000001_Node000007" class="edge">
<title>Node1&#45;&gt;Node7</title>
<g id="a_edge6_Node000001_Node000007"><a xlink:title=" ">
<path fill="none" stroke="#63b8ff" d="M365.69,-54.59C412.34,-44.51 482.3,-29.4 526.39,-19.88"/>
<polygon fill="#63b8ff" stroke="#63b8ff" points="365.17,-51.12 356.14,-56.65 366.65,-57.96 365.17,-51.12"/>
</a>
</g>
</g>
</g>
</svg>
