<?xml version="1.0" encoding="UTF-8" standalone="no"?>
<!DOCTYPE svg PUBLIC "-//W3C//DTD SVG 1.1//EN"
 "http://www.w3.org/Graphics/SVG/1.1/DTD/svg11.dtd">
<!-- Generated by graphviz version 9.0.0 (0)
 -->
<!-- Title: redirectCout.cpp Pages: 1 -->
<svg width="447pt" height="252pt"
 viewBox="0.00 0.00 447.34 252.00" xmlns="http://www.w3.org/2000/svg" xmlns:xlink="http://www.w3.org/1999/xlink">
<g id="graph0" class="graph" transform="scale(1 1) rotate(0) translate(4 248)">
<title>redirectCout.cpp</title>
<!-- Node1 -->
<g id="Node000001" class="node">
<title>Node1</title>
<g id="a_Node000001"><a xlink:title=" ">
<polygon fill="#999999" stroke="#666666" points="194.72,-244 106.72,-244 106.72,-224 194.72,-224 194.72,-244"/>
<text text-anchor="middle" x="150.72" y="-230.5" font-family="Helvetica,sans-Serif" font-size="10.00">redirectCout.cpp</text>
</a>
</g>
</g>
<!-- Node2 -->
<g id="Node000002" class="node">
<title>Node2</title>
<g id="a_Node000002"><a xlink:href="a00041.html" target="_top" xlink:title=" ">
<polygon fill="white" stroke="#666666" points="97.59,-76 5.84,-76 5.84,-56 97.59,-56 97.59,-76"/>
<text text-anchor="middle" x="51.72" y="-62.5" font-family="Helvetica,sans-Serif" font-size="10.00">MiraiCPMacros.h</text>
</a>
</g>
</g>
<!-- Node1&#45;&gt;Node2 -->
<g id="edge1_Node000001_Node000002" class="edge">
<title>Node1&#45;&gt;Node2</title>
<g id="a_edge1_Node000001_Node000002"><a xlink:title=" ">
<path fill="none" stroke="#63b8ff" d="M106.27,-232.02C73.48,-228.67 30.87,-218.26 8.72,-188 -14.75,-155.94 15.3,-109.87 35.73,-84.84"/>
<polygon fill="#63b8ff" stroke="#63b8ff" points="38.16,-87.39 41.97,-77.5 32.82,-82.85 38.16,-87.39"/>
</a>
</g>
</g>
<!-- Node4 -->
<g id="Node000004" class="node">
<title>Node4</title>
<g id="a_Node000004"><a xlink:href="a00188.html" target="_top" xlink:title=" ">
<polygon fill="white" stroke="#666666" points="95.47,-188 17.97,-188 17.97,-168 95.47,-168 95.47,-188"/>
<text text-anchor="middle" x="56.72" y="-174.5" font-family="Helvetica,sans-Serif" font-size="10.00">redirectCout.h</text>
</a>
</g>
</g>
<!-- Node1&#45;&gt;Node4 -->
<g id="edge3_Node000001_Node000004" class="edge">
<title>Node1&#45;&gt;Node4</title>
<g id="a_edge3_Node000001_Node000004"><a xlink:title=" ">
<path fill="none" stroke="#63b8ff" d="M134.35,-223.59C120.14,-215.44 99.34,-203.48 82.84,-194"/>
<polygon fill="#63b8ff" stroke="#63b8ff" points="84.95,-191.18 74.53,-189.23 81.46,-197.25 84.95,-191.18"/>
</a>
</g>
</g>
<!-- Node5 -->
<g id="Node000005" class="node">
<title>Node5</title>
<g id="a_Node000005"><a xlink:title=" ">
<polygon fill="#e0e0e0" stroke="#999999" points="88.34,-132 37.09,-132 37.09,-112 88.34,-112 88.34,-132"/>
<text text-anchor="middle" x="62.72" y="-118.5" font-family="Helvetica,sans-Serif" font-size="10.00">sstream</text>
</a>
</g>
</g>
<!-- Node1&#45;&gt;Node5 -->
<g id="edge8_Node000001_Node000005" class="edge">
<title>Node1&#45;&gt;Node5</title>
<g id="a_edge8_Node000001_Node000005"><a xlink:title=" ">
<path fill="none" stroke="#63b8ff" d="M144.84,-223.89C136.43,-211.05 120.26,-187.08 104.72,-168 96.99,-158.51 87.77,-148.5 79.93,-140.34"/>
<polygon fill="#63b8ff" stroke="#63b8ff" points="82.66,-138.12 73.18,-133.4 77.65,-143.01 82.66,-138.12"/>
</a>
</g>
</g>
<!-- Node6 -->
<g id="Node000006" class="node">
<title>Node6</title>
<g id="a_Node000006"><a xlink:title=" ">
<polygon fill="#e0e0e0" stroke="#999999" points="315.47,-188 261.97,-188 261.97,-168 315.47,-168 315.47,-188"/>
<text text-anchor="middle" x="288.72" y="-174.5" font-family="Helvetica,sans-Serif" font-size="10.00">iostream</text>
</a>
</g>
</g>
<!-- Node1&#45;&gt;Node6 -->
<g id="edge6_Node000001_Node000006" class="edge">
<title>Node1&#45;&gt;Node6</title>
<g id="a_edge6_Node000001_Node000006"><a xlink:title=" ">
<path fill="none" stroke="#63b8ff" d="M174.76,-223.59C196.69,-215.01 229.35,-202.23 254.09,-192.55"/>
<polygon fill="#63b8ff" stroke="#63b8ff" points="255.05,-195.93 263.08,-189.03 252.5,-189.42 255.05,-195.93"/>
</a>
</g>
</g>
<!-- Node7 -->
<g id="Node000007" class="node">
<title>Node7</title>
<g id="a_Node000007"><a xlink:title=" ">
<polygon fill="#e0e0e0" stroke="#999999" points="439.34,-132 388.09,-132 388.09,-112 439.34,-112 439.34,-132"/>
<text text-anchor="middle" x="413.72" y="-118.5" font-family="Helvetica,sans-Serif" font-size="10.00">memory</text>
</a>
</g>
</g>
<!-- Node1&#45;&gt;Node7 -->
<g id="edge7_Node000001_Node000007" class="edge">
<title>Node1&#45;&gt;Node7</title>
<g id="a_edge7_Node000001_Node000007"><a xlink:title=" ">
<path fill="none" stroke="#63b8ff" d="M162.92,-223.52C181.4,-209.57 218.01,-183.5 252.72,-168 264.09,-162.92 332.6,-144.42 376.51,-132.78"/>
<polygon fill="#63b8ff" stroke="#63b8ff" points="377.4,-136.17 386.17,-130.23 375.61,-129.4 377.4,-136.17"/>
</a>
</g>
</g>
<!-- Node8 -->
<g id="Node000008" class="node">
<title>Node8</title>
<g id="a_Node000008"><a xlink:href="a00167.html" target="_top" xlink:title=" ">
<polygon fill="white" stroke="#666666" points="205.47,-188 151.97,-188 151.97,-168 205.47,-168 205.47,-188"/>
<text text-anchor="middle" x="178.72" y="-174.5" font-family="Helvetica,sans-Serif" font-size="10.00">Logger.h</text>
</a>
</g>
</g>
<!-- Node1&#45;&gt;Node8 -->
<g id="edge9_Node000001_Node000008" class="edge">
<title>Node1&#45;&gt;Node8</title>
<g id="a_edge9_Node000001_Node000008"><a xlink:title=" ">
<path fill="none" stroke="#63b8ff" d="M155.6,-223.59C159.21,-216.63 164.26,-206.89 168.72,-198.29"/>
<polygon fill="#63b8ff" stroke="#63b8ff" points="171.7,-200.13 173.2,-189.64 165.49,-196.91 171.7,-200.13"/>
</a>
</g>
</g>
<!-- Node3 -->
<g id="Node000003" class="node">
<title>Node3</title>
<g id="a_Node000003"><a xlink:title=" ">
<polygon fill="#e0e0e0" stroke="#999999" points="75.84,-20 27.59,-20 27.59,0 75.84,0 75.84,-20"/>
<text text-anchor="middle" x="51.72" y="-6.5" font-family="Helvetica,sans-Serif" font-size="10.00">cassert</text>
</a>
</g>
</g>
<!-- Node2&#45;&gt;Node3 -->
<g id="edge2_Node000002_Node000003" class="edge">
<title>Node2&#45;&gt;Node3</title>
<g id="a_edge2_Node000002_Node000003"><a xlink:title=" ">
<path fill="none" stroke="#63b8ff" d="M51.72,-55.59C51.72,-49.01 51.72,-39.96 51.72,-31.73"/>
<polygon fill="#63b8ff" stroke="#63b8ff" points="55.22,-31.81 51.72,-21.81 48.22,-31.81 55.22,-31.81"/>
</a>
</g>
</g>
<!-- Node4&#45;&gt;Node2 -->
<g id="edge4_Node000004_Node000002" class="edge">
<title>Node4&#45;&gt;Node2</title>
<g id="a_edge4_Node000004_Node000002"><a xlink:title=" ">
<path fill="none" stroke="#63b8ff" d="M48.5,-167.8C41.43,-159.23 31.76,-145.73 27.72,-132 23.05,-116.13 30.32,-98.56 38.05,-85.69"/>
<polygon fill="#63b8ff" stroke="#63b8ff" points="40.95,-87.65 43.56,-77.39 35.12,-83.78 40.95,-87.65"/>
</a>
</g>
</g>
<!-- Node4&#45;&gt;Node5 -->
<g id="edge5_Node000004_Node000005" class="edge">
<title>Node4&#45;&gt;Node5</title>
<g id="a_edge5_Node000004_Node000005"><a xlink:title=" ">
<path fill="none" stroke="#63b8ff" d="M57.76,-167.59C58.5,-161.01 59.5,-151.96 60.42,-143.73"/>
<polygon fill="#63b8ff" stroke="#63b8ff" points="63.89,-144.13 61.52,-133.8 56.94,-143.35 63.89,-144.13"/>
</a>
</g>
</g>
<!-- Node8&#45;&gt;Node2 -->
<g id="edge10_Node000008_Node000002" class="edge">
<title>Node8&#45;&gt;Node2</title>
<g id="a_edge10_Node000008_Node000002"><a xlink:title=" ">
<path fill="none" stroke="#63b8ff" d="M167.89,-167.62C146.43,-149.03 98.23,-107.28 71.14,-83.82"/>
<polygon fill="#63b8ff" stroke="#63b8ff" points="73.51,-81.25 63.66,-77.35 68.93,-86.54 73.51,-81.25"/>
</a>
</g>
</g>
<!-- Node8&#45;&gt;Node5 -->
<g id="edge17_Node000008_Node000005" class="edge">
<title>Node8&#45;&gt;Node5</title>
<g id="a_edge17_Node000008_Node000005"><a xlink:title=" ">
<path fill="none" stroke="#63b8ff" d="M158.51,-167.59C140.49,-159.21 113.85,-146.8 93.24,-137.21"/>
<polygon fill="#63b8ff" stroke="#63b8ff" points="95,-134.17 84.45,-133.12 92.04,-140.51 95,-134.17"/>
</a>
</g>
</g>
<!-- Node8&#45;&gt;Node7 -->
<g id="edge16_Node000008_Node000007" class="edge">
<title>Node8&#45;&gt;Node7</title>
<g id="a_edge16_Node000008_Node000007"><a xlink:title=" ">
<path fill="none" stroke="#63b8ff" d="M205.93,-170.99C248.86,-161.48 331.36,-143.14 376.78,-132.39"/>
<polygon fill="#63b8ff" stroke="#63b8ff" points="377.36,-135.85 386.28,-130.12 375.74,-129.05 377.36,-135.85"/>
</a>
</g>
</g>
<!-- Node9 -->
<g id="Node000009" class="node">
<title>Node9</title>
<g id="a_Node000009"><a xlink:href="a00068.html" target="_top" xlink:title=" ">
<polygon fill="white" stroke="#666666" points="212.97,-132 144.47,-132 144.47,-112 212.97,-112 212.97,-132"/>
<text text-anchor="middle" x="178.72" y="-118.5" font-family="Helvetica,sans-Serif" font-size="10.00">MiraiCode.h</text>
</a>
</g>
</g>
<!-- Node8&#45;&gt;Node9 -->
<g id="edge11_Node000008_Node000009" class="edge">
<title>Node8&#45;&gt;Node9</title>
<g id="a_edge11_Node000008_Node000009"><a xlink:title=" ">
<path fill="none" stroke="#63b8ff" d="M178.72,-167.59C178.72,-161.01 178.72,-151.96 178.72,-143.73"/>
<polygon fill="#63b8ff" stroke="#63b8ff" points="182.22,-143.81 178.72,-133.81 175.22,-143.81 182.22,-143.81"/>
</a>
</g>
</g>
<!-- Node11 -->
<g id="Node000011" class="node">
<title>Node11</title>
<g id="a_Node000011"><a xlink:href="a00062.html" target="_top" xlink:title=" ">
<polygon fill="white" stroke="#666666" points="293.97,-132 231.47,-132 231.47,-112 293.97,-112 293.97,-132"/>
<text text-anchor="middle" x="262.72" y="-118.5" font-family="Helvetica,sans-Serif" font-size="10.00">SdkType.h</text>
</a>
</g>
</g>
<!-- Node8&#45;&gt;Node11 -->
<g id="edge14_Node000008_Node000011" class="edge">
<title>Node8&#45;&gt;Node11</title>
<g id="a_edge14_Node000008_Node000011"><a xlink:title=" ">
<path fill="none" stroke="#63b8ff" d="M193.35,-167.59C205.8,-159.59 223.93,-147.93 238.54,-138.54"/>
<polygon fill="#63b8ff" stroke="#63b8ff" points="240.18,-141.65 246.7,-133.3 236.4,-135.76 240.18,-141.65"/>
</a>
</g>
</g>
<!-- Node12 -->
<g id="Node000012" class="node">
<title>Node12</title>
<g id="a_Node000012"><a xlink:title=" ">
<polygon fill="#e0e0e0" stroke="#999999" points="369.72,-132 311.72,-132 311.72,-112 369.72,-112 369.72,-132"/>
<text text-anchor="middle" x="340.72" y="-118.5" font-family="Helvetica,sans-Serif" font-size="10.00">functional</text>
</a>
</g>
</g>
<!-- Node8&#45;&gt;Node12 -->
<g id="edge15_Node000008_Node000012" class="edge">
<title>Node8&#45;&gt;Node12</title>
<g id="a_edge15_Node000008_Node000012"><a xlink:title=" ">
<path fill="none" stroke="#63b8ff" d="M205.83,-167.96C232.03,-159.23 271.99,-145.91 301.62,-136.03"/>
<polygon fill="#63b8ff" stroke="#63b8ff" points="302.61,-139.39 310.99,-132.91 300.4,-132.75 302.61,-139.39"/>
</a>
</g>
</g>
<!-- Node9&#45;&gt;Node2 -->
<g id="edge13_Node000009_Node000002" class="edge">
<title>Node9&#45;&gt;Node2</title>
<g id="a_edge13_Node000009_Node000002"><a xlink:title=" ">
<path fill="none" stroke="#63b8ff" d="M156.6,-111.59C136.69,-103.13 107.16,-90.58 84.51,-80.94"/>
<polygon fill="#63b8ff" stroke="#63b8ff" points="85.98,-77.76 75.41,-77.07 83.24,-84.21 85.98,-77.76"/>
</a>
</g>
</g>
<!-- Node10 -->
<g id="Node000010" class="node">
<title>Node10</title>
<g id="a_Node000010"><a xlink:title=" ">
<polygon fill="#e0e0e0" stroke="#999999" points="198.72,-76 158.72,-76 158.72,-56 198.72,-56 198.72,-76"/>
<text text-anchor="middle" x="178.72" y="-62.5" font-family="Helvetica,sans-Serif" font-size="10.00">string</text>
</a>
</g>
</g>
<!-- Node9&#45;&gt;Node10 -->
<g id="edge12_Node000009_Node000010" class="edge">
<title>Node9&#45;&gt;Node10</title>
<g id="a_edge12_Node000009_Node000010"><a xlink:title=" ">
<path fill="none" stroke="#63b8ff" d="M178.72,-111.59C178.72,-105.01 178.72,-95.96 178.72,-87.73"/>
<polygon fill="#63b8ff" stroke="#63b8ff" points="182.22,-87.81 178.72,-77.81 175.22,-87.81 182.22,-87.81"/>
</a>
</g>
</g>
</g>
</svg>
