<?xml version="1.0" encoding="UTF-8" standalone="no"?>
<!DOCTYPE svg PUBLIC "-//W3C//DTD SVG 1.1//EN"
 "http://www.w3.org/Graphics/SVG/1.1/DTD/svg11.dtd">
<!-- Generated by graphviz version 2.50.0 (20211204.2007)
 -->
<!-- Title: PluginData.h Pages: 1 -->
<svg width="330pt" height="308pt"
 viewBox="0.00 0.00 329.50 308.00" xmlns="http://www.w3.org/2000/svg" xmlns:xlink="http://www.w3.org/1999/xlink">
<g id="graph0" class="graph" transform="scale(1 1) rotate(0) translate(4 304)">
<title>PluginData.h</title>
<polygon fill="white" stroke="transparent" points="-4,4 -4,-304 325.5,-304 325.5,4 -4,4"/>
<!-- Node1 -->
<g id="node1" class="node">
<title>Node1</title>
<g id="a_node1"><a xlink:title=" ">
<polygon fill="#bfbfbf" stroke="black" points="176,-280.5 176,-299.5 248,-299.5 248,-280.5 176,-280.5"/>
<text text-anchor="middle" x="212" y="-287.5" font-family="Helvetica,sans-Serif" font-size="10.00">PluginData.h</text>
</a>
</g>
</g>
<!-- Node2 -->
<g id="node2" class="node">
<title>Node2</title>
<g id="a_node2"><a xlink:href="a00239.html" target="_top" xlink:title=" ">
<polygon fill="white" stroke="black" points="238.5,-112.5 238.5,-131.5 321.5,-131.5 321.5,-112.5 238.5,-112.5"/>
<text text-anchor="middle" x="280" y="-119.5" font-family="Helvetica,sans-Serif" font-size="10.00">LoaderLogger.h</text>
</a>
</g>
</g>
<!-- Node1&#45;&gt;Node2 -->
<g id="edge1" class="edge">
<title>Node1&#45;&gt;Node2</title>
<path fill="none" stroke="midnightblue" d="M216.84,-280.3C226.27,-263.09 247.4,-223.28 261,-188 266.95,-172.57 272.09,-154.48 275.53,-141.31"/>
<polygon fill="midnightblue" stroke="midnightblue" points="278.93,-142.12 277.98,-131.56 272.14,-140.4 278.93,-142.12"/>
</g>
<!-- Node7 -->
<g id="node7" class="node">
<title>Node7</title>
<g id="a_node7"><a xlink:href="a00173.html" target="_top" xlink:title=" ">
<polygon fill="white" stroke="black" points="131.5,-224.5 131.5,-243.5 220.5,-243.5 220.5,-224.5 131.5,-224.5"/>
<text text-anchor="middle" x="176" y="-231.5" font-family="Helvetica,sans-Serif" font-size="10.00">commonTypes.h</text>
</a>
</g>
</g>
<!-- Node1&#45;&gt;Node7 -->
<g id="edge6" class="edge">
<title>Node1&#45;&gt;Node7</title>
<path fill="none" stroke="midnightblue" d="M206.06,-280.08C201.02,-272.53 193.66,-261.49 187.49,-252.23"/>
<polygon fill="midnightblue" stroke="midnightblue" points="190.29,-250.13 181.83,-243.75 184.47,-254.01 190.29,-250.13"/>
</g>
<!-- Node3 -->
<g id="node3" class="node">
<title>Node3</title>
<g id="a_node3"><a xlink:href="a00044.html" target="_top" xlink:title=" ">
<polygon fill="white" stroke="black" points="86,-56.5 86,-75.5 178,-75.5 178,-56.5 86,-56.5"/>
<text text-anchor="middle" x="132" y="-63.5" font-family="Helvetica,sans-Serif" font-size="10.00">MiraiCPMacros.h</text>
</a>
</g>
</g>
<!-- Node2&#45;&gt;Node3 -->
<g id="edge2" class="edge">
<title>Node2&#45;&gt;Node3</title>
<path fill="none" stroke="midnightblue" d="M256.55,-112.44C231.87,-103.44 192.81,-89.19 165.02,-79.05"/>
<polygon fill="midnightblue" stroke="midnightblue" points="165.94,-75.66 155.34,-75.52 163.54,-82.23 165.94,-75.66"/>
</g>
<!-- Node5 -->
<g id="node5" class="node">
<title>Node5</title>
<g id="a_node5"><a xlink:title=" ">
<polygon fill="white" stroke="#bfbfbf" points="196.5,-56.5 196.5,-75.5 237.5,-75.5 237.5,-56.5 196.5,-56.5"/>
<text text-anchor="middle" x="217" y="-63.5" font-family="Helvetica,sans-Serif" font-size="10.00">string</text>
</a>
</g>
</g>
<!-- Node2&#45;&gt;Node5 -->
<g id="edge4" class="edge">
<title>Node2&#45;&gt;Node5</title>
<path fill="none" stroke="midnightblue" d="M269.88,-112.32C260.47,-104.26 246.26,-92.08 234.93,-82.37"/>
<polygon fill="midnightblue" stroke="midnightblue" points="237.18,-79.68 227.31,-75.83 232.62,-85 237.18,-79.68"/>
</g>
<!-- Node6 -->
<g id="node6" class="node">
<title>Node6</title>
<g id="a_node6"><a xlink:title=" ">
<polygon fill="white" stroke="#bfbfbf" points="259,-56.5 259,-75.5 301,-75.5 301,-56.5 259,-56.5"/>
<text text-anchor="middle" x="280" y="-63.5" font-family="Helvetica,sans-Serif" font-size="10.00">vector</text>
</a>
</g>
</g>
<!-- Node2&#45;&gt;Node6 -->
<g id="edge5" class="edge">
<title>Node2&#45;&gt;Node6</title>
<path fill="none" stroke="midnightblue" d="M280,-112.08C280,-105.01 280,-94.86 280,-85.99"/>
<polygon fill="midnightblue" stroke="midnightblue" points="283.5,-85.75 280,-75.75 276.5,-85.75 283.5,-85.75"/>
</g>
<!-- Node4 -->
<g id="node4" class="node">
<title>Node4</title>
<g id="a_node4"><a xlink:title=" ">
<polygon fill="white" stroke="#bfbfbf" points="70.5,-0.5 70.5,-19.5 119.5,-19.5 119.5,-0.5 70.5,-0.5"/>
<text text-anchor="middle" x="95" y="-7.5" font-family="Helvetica,sans-Serif" font-size="10.00">cassert</text>
</a>
</g>
</g>
<!-- Node3&#45;&gt;Node4 -->
<g id="edge3" class="edge">
<title>Node3&#45;&gt;Node4</title>
<path fill="none" stroke="midnightblue" d="M125.89,-56.08C120.72,-48.53 113.15,-37.49 106.81,-28.23"/>
<polygon fill="midnightblue" stroke="midnightblue" points="109.54,-26.02 101,-19.75 103.76,-29.98 109.54,-26.02"/>
</g>
<!-- Node7&#45;&gt;Node3 -->
<g id="edge7" class="edge">
<title>Node7&#45;&gt;Node3</title>
<path fill="none" stroke="midnightblue" d="M173.69,-224.37C171.27,-215.32 167.36,-200.66 164,-188 154.32,-151.56 143.06,-108.93 136.81,-85.24"/>
<polygon fill="midnightblue" stroke="midnightblue" points="140.18,-84.29 134.24,-75.51 133.41,-86.07 140.18,-84.29"/>
</g>
<!-- Node8 -->
<g id="node8" class="node">
<title>Node8</title>
<g id="a_node8"><a xlink:href="a00047.html" target="_top" xlink:title=" ">
<polygon fill="white" stroke="black" points="172.5,-168.5 172.5,-187.5 251.5,-187.5 251.5,-168.5 172.5,-168.5"/>
<text text-anchor="middle" x="212" y="-175.5" font-family="Helvetica,sans-Serif" font-size="10.00">PluginConfig.h</text>
</a>
</g>
</g>
<!-- Node7&#45;&gt;Node8 -->
<g id="edge8" class="edge">
<title>Node7&#45;&gt;Node8</title>
<path fill="none" stroke="midnightblue" d="M181.94,-224.08C186.98,-216.53 194.34,-205.49 200.51,-196.23"/>
<polygon fill="midnightblue" stroke="midnightblue" points="203.53,-198.01 206.17,-187.75 197.71,-194.13 203.53,-198.01"/>
</g>
<!-- Node9 -->
<g id="node9" class="node">
<title>Node9</title>
<g id="a_node9"><a xlink:href="a00176.html" target="_top" xlink:title=" ">
<polygon fill="white" stroke="black" points="14.5,-168.5 14.5,-187.5 111.5,-187.5 111.5,-168.5 14.5,-168.5"/>
<text text-anchor="middle" x="63" y="-175.5" font-family="Helvetica,sans-Serif" font-size="10.00">loaderApiInternal.h</text>
</a>
</g>
</g>
<!-- Node7&#45;&gt;Node9 -->
<g id="edge10" class="edge">
<title>Node7&#45;&gt;Node9</title>
<path fill="none" stroke="midnightblue" d="M158.09,-224.44C139.75,-215.68 110.99,-201.94 89.91,-191.86"/>
<polygon fill="midnightblue" stroke="midnightblue" points="91.35,-188.67 80.82,-187.52 88.33,-194.99 91.35,-188.67"/>
</g>
<!-- Node8&#45;&gt;Node5 -->
<g id="edge9" class="edge">
<title>Node8&#45;&gt;Node5</title>
<path fill="none" stroke="midnightblue" d="M212.39,-168.37C213.2,-150.62 215.06,-109.67 216.15,-85.6"/>
<polygon fill="midnightblue" stroke="midnightblue" points="219.65,-85.74 216.61,-75.59 212.66,-85.42 219.65,-85.74"/>
</g>
<!-- Node10 -->
<g id="node10" class="node">
<title>Node10</title>
<g id="a_node10"><a xlink:href="a00182.html" target="_top" xlink:title=" ">
<polygon fill="white" stroke="black" points="0,-112.5 0,-131.5 116,-131.5 116,-112.5 0,-112.5"/>
<text text-anchor="middle" x="58" y="-119.5" font-family="Helvetica,sans-Serif" font-size="10.00">MiraiCPStringInternal.h</text>
</a>
</g>
</g>
<!-- Node9&#45;&gt;Node10 -->
<g id="edge11" class="edge">
<title>Node9&#45;&gt;Node10</title>
<path fill="none" stroke="midnightblue" d="M62.17,-168.08C61.52,-161.01 60.58,-150.86 59.76,-141.99"/>
<polygon fill="midnightblue" stroke="midnightblue" points="63.22,-141.39 58.81,-131.75 56.25,-142.03 63.22,-141.39"/>
</g>
<!-- Node10&#45;&gt;Node3 -->
<g id="edge12" class="edge">
<title>Node10&#45;&gt;Node3</title>
<path fill="none" stroke="midnightblue" d="M69.89,-112.32C81.15,-104.11 98.29,-91.6 111.71,-81.81"/>
<polygon fill="midnightblue" stroke="midnightblue" points="113.88,-84.56 119.89,-75.83 109.75,-78.9 113.88,-84.56"/>
</g>
<!-- Node10&#45;&gt;Node4 -->
<g id="edge13" class="edge">
<title>Node10&#45;&gt;Node4</title>
<path fill="none" stroke="midnightblue" d="M60.31,-112.08C63.65,-99.48 70.17,-75.78 77,-56 80.13,-46.94 84.04,-37.03 87.41,-28.83"/>
<polygon fill="midnightblue" stroke="midnightblue" points="90.67,-30.11 91.3,-19.53 84.21,-27.41 90.67,-30.11"/>
</g>
<!-- Node10&#45;&gt;Node5 -->
<g id="edge14" class="edge">
<title>Node10&#45;&gt;Node5</title>
<path fill="none" stroke="midnightblue" d="M83.19,-112.44C111.36,-102.88 156.94,-87.4 186.94,-77.21"/>
<polygon fill="midnightblue" stroke="midnightblue" points="188.13,-80.5 196.47,-73.97 185.88,-73.87 188.13,-80.5"/>
</g>
</g>
</svg>
