<?xml version="1.0" encoding="UTF-8" standalone="no"?>
<!DOCTYPE svg PUBLIC "-//W3C//DTD SVG 1.1//EN"
 "http://www.w3.org/Graphics/SVG/1.1/DTD/svg11.dtd">
<!-- Generated by graphviz version 2.50.0 (20211204.2007)
 -->
<!-- Title: MiraiCP::enrollPlugin Pages: 1 -->
<svg width="695pt" height="101pt"
 viewBox="0.00 0.00 695.00 101.00" xmlns="http://www.w3.org/2000/svg" xmlns:xlink="http://www.w3.org/1999/xlink">
<g id="graph0" class="graph" transform="scale(1 1) rotate(0) translate(4 97)">
<title>MiraiCP::enrollPlugin</title>
<polygon fill="white" stroke="transparent" points="-4,4 -4,-97 691,-97 691,4 -4,4"/>
<!-- Node1 -->
<g id="node1" class="node">
<title>Node1</title>
<g id="a_node1"><a xlink:title="注册插件函数, 需要被插件实现, 类似onStart();">
<polygon fill="#bfbfbf" stroke="black" points="580,-37 580,-56 687,-56 687,-37 580,-37"/>
<text text-anchor="middle" x="633.5" y="-44" font-family="Helvetica,sans-Serif" font-size="10.00">MiraiCP::enrollPlugin</text>
</a>
</g>
</g>
<!-- Node2 -->
<g id="node2" class="node">
<title>Node2</title>
<g id="a_node2"><a xlink:href="a00392.html#ae08b4f2d8c45198531034f3896118b5e" target="_top" xlink:title="安全检查">
<polygon fill="white" stroke="black" points="414,-62.5 414,-92.5 544,-92.5 544,-62.5 414,-62.5"/>
<text text-anchor="start" x="422" y="-80.5" font-family="Helvetica,sans-Serif" font-size="10.00">_unused_MiraiCP_internal</text>
<text text-anchor="middle" x="479" y="-69.5" font-family="Helvetica,sans-Serif" font-size="10.00">_safety_check</text>
</a>
</g>
</g>
<!-- Node1&#45;&gt;Node2 -->
<g id="edge1" class="edge">
<title>Node1&#45;&gt;Node2</title>
<path fill="none" stroke="midnightblue" d="M575.5,-58.09C565.3,-60.16 554.61,-62.33 544.23,-64.44"/>
<polygon fill="midnightblue" stroke="midnightblue" points="576.4,-61.48 585.5,-56.05 575,-54.62 576.4,-61.48"/>
</g>
<!-- Node3 -->
<g id="node3" class="node">
<title>Node3</title>
<g id="a_node3"><a xlink:href="a00392.html#ada5aac13445cc76c802c817d248d8da8" target="_top" xlink:title="插件开启入口">
<polygon fill="white" stroke="black" points="428.5,-6 428.5,-25 529.5,-25 529.5,-6 428.5,-6"/>
<text text-anchor="middle" x="479" y="-13" font-family="Helvetica,sans-Serif" font-size="10.00">FUNC_ENTRANCE</text>
</a>
</g>
</g>
<!-- Node1&#45;&gt;Node3 -->
<g id="edge2" class="edge">
<title>Node1&#45;&gt;Node3</title>
<path fill="none" stroke="midnightblue" d="M575.67,-34.95C559.59,-31.68 542.27,-28.16 526.84,-25.02"/>
<polygon fill="midnightblue" stroke="midnightblue" points="575,-38.38 585.5,-36.95 576.4,-31.52 575,-38.38"/>
</g>
<!-- Node3&#45;&gt;Node3 -->
<g id="edge3" class="edge">
<title>Node3&#45;&gt;Node3</title>
<path fill="none" stroke="midnightblue" d="M507.75,-34.15C506.54,-39.44 496.96,-43.5 479,-43.5 451.63,-43.5 443.72,-34.07 455.26,-25.26"/>
<polygon fill="midnightblue" stroke="midnightblue" points="510.69,-32.25 502.74,-25.26 504.59,-35.69 510.69,-32.25"/>
</g>
<!-- Node4 -->
<g id="node4" class="node">
<title>Node4</title>
<g id="a_node4"><a xlink:href="a00824.html#a331c05a9c7aeaee822c53df717efb60d" target="_top" xlink:title=" ">
<polygon fill="white" stroke="black" points="268,-0.5 268,-30.5 378,-30.5 378,-0.5 268,-0.5"/>
<text text-anchor="start" x="276" y="-18.5" font-family="Helvetica,sans-Serif" font-size="10.00">LibLoader::Plugin::</text>
<text text-anchor="middle" x="323" y="-7.5" font-family="Helvetica,sans-Serif" font-size="10.00">testSymbolExistance</text>
</a>
</g>
</g>
<!-- Node3&#45;&gt;Node4 -->
<g id="edge4" class="edge">
<title>Node3&#45;&gt;Node4</title>
<path fill="none" stroke="midnightblue" d="M418.42,-15.5C405.11,-15.5 391.08,-15.5 378.01,-15.5"/>
<polygon fill="midnightblue" stroke="midnightblue" points="418.43,-19 428.43,-15.5 418.43,-12 418.43,-19"/>
</g>
<!-- Node5 -->
<g id="node5" class="node">
<title>Node5</title>
<g id="a_node5"><a xlink:href="a00824.html#a8636d0418d741a19bbd9183316cd5c59" target="_top" xlink:title=" ">
<polygon fill="white" stroke="black" points="134,-0.5 134,-30.5 232,-30.5 232,-0.5 134,-0.5"/>
<text text-anchor="start" x="142" y="-18.5" font-family="Helvetica,sans-Serif" font-size="10.00">LibLoader::Plugin::</text>
<text text-anchor="middle" x="183" y="-7.5" font-family="Helvetica,sans-Serif" font-size="10.00">loadInternal</text>
</a>
</g>
</g>
<!-- Node4&#45;&gt;Node5 -->
<g id="edge5" class="edge">
<title>Node4&#45;&gt;Node5</title>
<path fill="none" stroke="midnightblue" d="M257.8,-15.5C249.18,-15.5 240.45,-15.5 232.16,-15.5"/>
<polygon fill="midnightblue" stroke="midnightblue" points="257.85,-19 267.85,-15.5 257.85,-12 257.85,-19"/>
</g>
<!-- Node6 -->
<g id="node6" class="node">
<title>Node6</title>
<g id="a_node6"><a xlink:href="a00824.html#a891ce42f23fe1312ef6cad2accf4ab92" target="_top" xlink:title=" ">
<polygon fill="white" stroke="black" points="0,-0.5 0,-30.5 98,-30.5 98,-0.5 0,-0.5"/>
<text text-anchor="start" x="8" y="-18.5" font-family="Helvetica,sans-Serif" font-size="10.00">LibLoader::Plugin::</text>
<text text-anchor="middle" x="49" y="-7.5" font-family="Helvetica,sans-Serif" font-size="10.00">loadPlugin</text>
</a>
</g>
</g>
<!-- Node5&#45;&gt;Node6 -->
<g id="edge6" class="edge">
<title>Node5&#45;&gt;Node6</title>
<path fill="none" stroke="midnightblue" d="M123.71,-15.5C115.19,-15.5 106.5,-15.5 98.21,-15.5"/>
<polygon fill="midnightblue" stroke="midnightblue" points="123.97,-19 133.97,-15.5 123.97,-12 123.97,-19"/>
</g>
</g>
</svg>
