<?xml version="1.0" encoding="UTF-8" standalone="no"?>
<!DOCTYPE svg PUBLIC "-//W3C//DTD SVG 1.1//EN"
 "http://www.w3.org/Graphics/SVG/1.1/DTD/svg11.dtd">
<!-- Generated by graphviz version 2.50.0 (20211204.2007)
 -->
<!-- Title: LibLoader::Plugin::unloadPlugin Pages: 1 -->
<svg width="1490pt" height="411pt"
 viewBox="0.00 0.00 1490.00 411.00" xmlns="http://www.w3.org/2000/svg" xmlns:xlink="http://www.w3.org/1999/xlink">
<g id="graph0" class="graph" transform="scale(1 1) rotate(0) translate(4 407)">
<title>LibLoader::Plugin::unloadPlugin</title>
<polygon fill="white" stroke="transparent" points="-4,4 -4,-407 1486,-407 1486,4 -4,4"/>
<!-- Node1 -->
<g id="node1" class="node">
<title>Node1</title>
<g id="a_node1"><a xlink:title=" ">
<polygon fill="#bfbfbf" stroke="black" points="0,-110.5 0,-140.5 98,-140.5 98,-110.5 0,-110.5"/>
<text text-anchor="start" x="8" y="-128.5" font-family="Helvetica,sans-Serif" font-size="10.00">LibLoader::Plugin::</text>
<text text-anchor="middle" x="49" y="-117.5" font-family="Helvetica,sans-Serif" font-size="10.00">unloadPlugin</text>
</a>
</g>
</g>
<!-- Node2 -->
<g id="node2" class="node">
<title>Node2</title>
<g id="a_node2"><a xlink:href="a00389.html#ac03a32a4b96ba4618fee0628d3998aef" target="_top" xlink:title=" ">
<polygon fill="white" stroke="black" points="134,-110.5 134,-140.5 232,-140.5 232,-110.5 134,-110.5"/>
<text text-anchor="start" x="142" y="-128.5" font-family="Helvetica,sans-Serif" font-size="10.00">LibLoader::Plugin::</text>
<text text-anchor="middle" x="183" y="-117.5" font-family="Helvetica,sans-Serif" font-size="10.00">unloadInternal</text>
</a>
</g>
</g>
<!-- Node1&#45;&gt;Node2 -->
<g id="edge1" class="edge">
<title>Node1&#45;&gt;Node2</title>
<path fill="none" stroke="midnightblue" d="M98.03,-125.5C106.31,-125.5 115,-125.5 123.52,-125.5"/>
<polygon fill="midnightblue" stroke="midnightblue" points="123.79,-129 133.79,-125.5 123.79,-122 123.79,-129"/>
</g>
<!-- Node3 -->
<g id="node3" class="node">
<title>Node3</title>
<g id="a_node3"><a xlink:href="a00397.html#a06be765d6cf55aa951f7eecb7ba578e8" target="_top" xlink:title=" ">
<polygon fill="white" stroke="black" points="268,-298.5 268,-328.5 380,-328.5 380,-298.5 268,-298.5"/>
<text text-anchor="start" x="276" y="-316.5" font-family="Helvetica,sans-Serif" font-size="10.00">LibLoader::PluginData</text>
<text text-anchor="middle" x="324" y="-305.5" font-family="Helvetica,sans-Serif" font-size="10.00">::_unload</text>
</a>
</g>
</g>
<!-- Node2&#45;&gt;Node3 -->
<g id="edge2" class="edge">
<title>Node2&#45;&gt;Node3</title>
<path fill="none" stroke="midnightblue" d="M195.14,-140.57C219.34,-173.29 276.84,-251.07 305.76,-290.19"/>
<polygon fill="midnightblue" stroke="midnightblue" points="303.05,-292.4 311.81,-298.36 308.68,-288.24 303.05,-292.4"/>
</g>
<!-- Node5 -->
<g id="node5" class="node">
<title>Node5</title>
<g id="a_node5"><a xlink:href="a00389.html#a006c0eaa142f9aa1760ec307cd3c0cee" target="_top" xlink:title=" ">
<polygon fill="white" stroke="black" points="275,-176.5 275,-206.5 373,-206.5 373,-176.5 275,-176.5"/>
<text text-anchor="start" x="283" y="-194.5" font-family="Helvetica,sans-Serif" font-size="10.00">LibLoader::Plugin::</text>
<text text-anchor="middle" x="324" y="-183.5" font-family="Helvetica,sans-Serif" font-size="10.00">disableInternal</text>
</a>
</g>
</g>
<!-- Node2&#45;&gt;Node5 -->
<g id="edge4" class="edge">
<title>Node2&#45;&gt;Node5</title>
<path fill="none" stroke="midnightblue" d="M215.89,-140.64C235.58,-149.99 261.03,-162.08 282.18,-172.12"/>
<polygon fill="midnightblue" stroke="midnightblue" points="280.72,-175.3 291.26,-176.43 283.73,-168.98 280.72,-175.3"/>
</g>
<!-- Node16 -->
<g id="node16" class="node">
<title>Node16</title>
<g id="a_node16"><a xlink:href="a00381.html#af50d0545fe7d683e54fcd03453a423e3" target="_top" xlink:title=" ">
<polygon fill="white" stroke="black" points="960,-136.5 960,-166.5 1083,-166.5 1083,-136.5 960,-136.5"/>
<text text-anchor="start" x="968" y="-154.5" font-family="Helvetica,sans-Serif" font-size="10.00">LibLoader::LoaderLogger</text>
<text text-anchor="middle" x="1021.5" y="-143.5" font-family="Helvetica,sans-Serif" font-size="10.00">::warning</text>
</a>
</g>
</g>
<!-- Node2&#45;&gt;Node16 -->
<g id="edge23" class="edge">
<title>Node2&#45;&gt;Node16</title>
<path fill="none" stroke="midnightblue" d="M226.17,-110.36C284.29,-90.87 392.68,-59.5 488,-59.5 488,-59.5 488,-59.5 671.5,-59.5 784.15,-59.5 818.46,-42.11 924,-81.5 952.08,-91.98 979.27,-113.01 997.6,-129.29"/>
<polygon fill="midnightblue" stroke="midnightblue" points="995.62,-132.22 1005.36,-136.38 1000.34,-127.05 995.62,-132.22"/>
</g>
<!-- Node20 -->
<g id="node20" class="node">
<title>Node20</title>
<g id="a_node20"><a xlink:href="a00306.html#a830b51c74068e1461e1baf677dd10ac2" target="_top" xlink:title=" ">
<polygon fill="white" stroke="black" points="270,-0.5 270,-30.5 378,-30.5 378,-0.5 270,-0.5"/>
<text text-anchor="start" x="278" y="-18.5" font-family="Helvetica,sans-Serif" font-size="10.00">LibLoader::LoaderApi</text>
<text text-anchor="middle" x="324" y="-7.5" font-family="Helvetica,sans-Serif" font-size="10.00">::libClose</text>
</a>
</g>
</g>
<!-- Node2&#45;&gt;Node20 -->
<g id="edge22" class="edge">
<title>Node2&#45;&gt;Node20</title>
<path fill="none" stroke="midnightblue" d="M197.55,-110.4C213.36,-93.32 240.83,-65.32 268,-45.5 272.73,-42.05 277.9,-38.73 283.12,-35.63"/>
<polygon fill="midnightblue" stroke="midnightblue" points="284.92,-38.63 291.88,-30.64 281.45,-32.55 284.92,-38.63"/>
</g>
<!-- Node4 -->
<g id="node4" class="node">
<title>Node4</title>
<g id="a_node4"><a xlink:href="a00393.html#a81c7f6972e7ed7429f2ce9ba82c9ba31" target="_top" xlink:title=" ">
<polygon fill="white" stroke="black" points="422,-372.5 422,-402.5 556,-402.5 556,-372.5 422,-372.5"/>
<text text-anchor="start" x="430" y="-390.5" font-family="Helvetica,sans-Serif" font-size="10.00">LibLoader::PluginFuncAddr</text>
<text text-anchor="middle" x="489" y="-379.5" font-family="Helvetica,sans-Serif" font-size="10.00">Data::_resetAddrData</text>
</a>
</g>
</g>
<!-- Node3&#45;&gt;Node4 -->
<g id="edge3" class="edge">
<title>Node3&#45;&gt;Node4</title>
<path fill="none" stroke="midnightblue" d="M349.49,-328.54C367.47,-339.19 392.71,-353.32 416,-363.5 420.3,-365.38 424.8,-367.2 429.36,-368.94"/>
<polygon fill="midnightblue" stroke="midnightblue" points="428.16,-372.23 438.75,-372.41 430.58,-365.66 428.16,-372.23"/>
</g>
<!-- Node6 -->
<g id="node6" class="node">
<title>Node6</title>
<g id="a_node6"><a xlink:href="a00397.html#af4e8baa9d706f75b1bf21d95069d3f42" target="_top" xlink:title=" ">
<polygon fill="white" stroke="black" points="433,-323.5 433,-353.5 545,-353.5 545,-323.5 433,-323.5"/>
<text text-anchor="start" x="441" y="-341.5" font-family="Helvetica,sans-Serif" font-size="10.00">LibLoader::PluginData</text>
<text text-anchor="middle" x="489" y="-330.5" font-family="Helvetica,sans-Serif" font-size="10.00">::_disable</text>
</a>
</g>
</g>
<!-- Node5&#45;&gt;Node6 -->
<g id="edge5" class="edge">
<title>Node5&#45;&gt;Node6</title>
<path fill="none" stroke="midnightblue" d="M332.3,-206.72C345.45,-232.58 375.58,-285.17 416,-314.5 418.48,-316.3 421.1,-317.97 423.82,-319.52"/>
<polygon fill="midnightblue" stroke="midnightblue" points="422.28,-322.66 432.78,-324.07 425.45,-316.42 422.28,-322.66"/>
</g>
<!-- Node7 -->
<g id="node7" class="node">
<title>Node7</title>
<g id="a_node7"><a xlink:href="a00397.html#a0c7449a3e94c1e4659337e62fc513fd8" target="_top" xlink:title=" ">
<polygon fill="white" stroke="black" points="433,-274.5 433,-304.5 545,-304.5 545,-274.5 433,-274.5"/>
<text text-anchor="start" x="441" y="-292.5" font-family="Helvetica,sans-Serif" font-size="10.00">LibLoader::PluginData</text>
<text text-anchor="middle" x="489" y="-281.5" font-family="Helvetica,sans-Serif" font-size="10.00">::_getId</text>
</a>
</g>
</g>
<!-- Node5&#45;&gt;Node7 -->
<g id="edge6" class="edge">
<title>Node5&#45;&gt;Node7</title>
<path fill="none" stroke="midnightblue" d="M340.16,-206.77C357.26,-223.26 386.55,-249.33 416,-265.5 419.1,-267.2 422.33,-268.81 425.65,-270.32"/>
<polygon fill="midnightblue" stroke="midnightblue" points="424.57,-273.67 435.15,-274.35 427.31,-267.22 424.57,-273.67"/>
</g>
<!-- Node8 -->
<g id="node8" class="node">
<title>Node8</title>
<g id="a_node8"><a xlink:href="a00389.html#ae42c2fb572d9814de8f0a10ca2c0d2f3" target="_top" xlink:title=" ">
<polygon fill="white" stroke="black" points="440,-225.5 440,-255.5 538,-255.5 538,-225.5 440,-225.5"/>
<text text-anchor="start" x="448" y="-243.5" font-family="Helvetica,sans-Serif" font-size="10.00">LibLoader::Plugin::</text>
<text text-anchor="middle" x="489" y="-232.5" font-family="Helvetica,sans-Serif" font-size="10.00">checkValid</text>
</a>
</g>
</g>
<!-- Node5&#45;&gt;Node8 -->
<g id="edge7" class="edge">
<title>Node5&#45;&gt;Node8</title>
<path fill="none" stroke="midnightblue" d="M373.02,-205.94C390.94,-211.32 411.46,-217.49 430.16,-223.11"/>
<polygon fill="midnightblue" stroke="midnightblue" points="429.17,-226.47 439.76,-226 431.19,-219.77 429.17,-226.47"/>
</g>
<!-- Node9 -->
<g id="node9" class="node">
<title>Node9</title>
<g id="a_node9"><a xlink:href="a00381.html#ae735f16b20f681d29d4e5d28ad248dbe" target="_top" xlink:title=" ">
<polygon fill="white" stroke="black" points="427.5,-176.5 427.5,-206.5 550.5,-206.5 550.5,-176.5 427.5,-176.5"/>
<text text-anchor="start" x="435.5" y="-194.5" font-family="Helvetica,sans-Serif" font-size="10.00">LibLoader::LoaderLogger</text>
<text text-anchor="middle" x="489" y="-183.5" font-family="Helvetica,sans-Serif" font-size="10.00">::error</text>
</a>
</g>
</g>
<!-- Node5&#45;&gt;Node9 -->
<g id="edge8" class="edge">
<title>Node5&#45;&gt;Node9</title>
<path fill="none" stroke="midnightblue" d="M373.02,-191.5C386.83,-191.5 402.2,-191.5 417.08,-191.5"/>
<polygon fill="midnightblue" stroke="midnightblue" points="417.28,-195 427.28,-191.5 417.28,-188 417.28,-195"/>
</g>
<!-- Node17 -->
<g id="node17" class="node">
<title>Node17</title>
<g id="a_node17"><a xlink:href="a00401.html#a514f9ddd7ffcea8a5166b23e21207939" target="_top" xlink:title=" ">
<polygon fill="white" stroke="black" points="598,-91.5 598,-121.5 743,-121.5 743,-91.5 598,-91.5"/>
<text text-anchor="start" x="606" y="-109.5" font-family="Helvetica,sans-Serif" font-size="10.00">LibLoader::PluginListManager</text>
<text text-anchor="middle" x="670.5" y="-98.5" font-family="Helvetica,sans-Serif" font-size="10.00">::setThreadRunningPluginId</text>
</a>
</g>
</g>
<!-- Node5&#45;&gt;Node17 -->
<g id="edge18" class="edge">
<title>Node5&#45;&gt;Node17</title>
<path fill="none" stroke="midnightblue" d="M373.12,-178.6C386.95,-174.95 402.06,-171.02 416,-167.5 476.28,-152.3 544.85,-135.85 595.46,-123.87"/>
<polygon fill="midnightblue" stroke="midnightblue" points="596.41,-127.24 605.33,-121.53 594.79,-120.43 596.41,-127.24"/>
</g>
<!-- Node19 -->
<g id="node19" class="node">
<title>Node19</title>
<g id="a_node19"><a xlink:href="a00401.html#a899e8d987ae7fb84107024415e5bcda3" target="_top" xlink:title=" ">
<polygon fill="white" stroke="black" points="416,-88.5 416,-118.5 562,-118.5 562,-88.5 416,-88.5"/>
<text text-anchor="start" x="424" y="-106.5" font-family="Helvetica,sans-Serif" font-size="10.00">LibLoader::PluginListManager</text>
<text text-anchor="middle" x="489" y="-95.5" font-family="Helvetica,sans-Serif" font-size="10.00">::unsetThreadRunningPluginId</text>
</a>
</g>
</g>
<!-- Node5&#45;&gt;Node19 -->
<g id="edge20" class="edge">
<title>Node5&#45;&gt;Node19</title>
<path fill="none" stroke="midnightblue" d="M346.43,-176.34C364.49,-163.95 391.25,-146.42 416,-133.5 423.25,-129.71 431.1,-126.04 438.84,-122.64"/>
<polygon fill="midnightblue" stroke="midnightblue" points="440.38,-125.79 448.2,-118.64 437.63,-119.36 440.38,-125.79"/>
</g>
<!-- Node10 -->
<g id="node10" class="node">
<title>Node10</title>
<g id="a_node10"><a xlink:href="a00381.html#af4d7d5164450e25f7401d1cc15f15b8d" target="_top" xlink:title="实际暴露的接口">
<polygon fill="white" stroke="black" points="609,-175.5 609,-205.5 732,-205.5 732,-175.5 609,-175.5"/>
<text text-anchor="start" x="617" y="-193.5" font-family="Helvetica,sans-Serif" font-size="10.00">LibLoader::LoaderLogger</text>
<text text-anchor="middle" x="670.5" y="-182.5" font-family="Helvetica,sans-Serif" font-size="10.00">::call_logger</text>
</a>
</g>
</g>
<!-- Node9&#45;&gt;Node10 -->
<g id="edge9" class="edge">
<title>Node9&#45;&gt;Node10</title>
<path fill="none" stroke="midnightblue" d="M550.77,-191.16C566.12,-191.08 582.74,-190.98 598.55,-190.9"/>
<polygon fill="midnightblue" stroke="midnightblue" points="598.81,-194.39 608.79,-190.84 598.77,-187.39 598.81,-194.39"/>
</g>
<!-- Node11 -->
<g id="node11" class="node">
<title>Node11</title>
<g id="a_node11"><a xlink:href="a00309.html#a076c5f4ff8083c7cfc6523498d0ba30f" target="_top" xlink:title=" ">
<polygon fill="white" stroke="black" points="972,-198.5 972,-228.5 1071,-228.5 1071,-198.5 972,-198.5"/>
<text text-anchor="start" x="980" y="-216.5" font-family="Helvetica,sans-Serif" font-size="10.00">LibLoader::JNIEnvs</text>
<text text-anchor="middle" x="1021.5" y="-205.5" font-family="Helvetica,sans-Serif" font-size="10.00">::getEnv</text>
</a>
</g>
</g>
<!-- Node10&#45;&gt;Node11 -->
<g id="edge10" class="edge">
<title>Node10&#45;&gt;Node11</title>
<path fill="none" stroke="midnightblue" d="M732.13,-202.23C747.37,-204.75 763.74,-207.07 779,-208.5 841.17,-214.32 912.73,-215.06 961.71,-214.66"/>
<polygon fill="midnightblue" stroke="midnightblue" points="961.85,-218.16 971.81,-214.56 961.78,-211.16 961.85,-218.16"/>
</g>
<!-- Node15 -->
<g id="node15" class="node">
<title>Node15</title>
<g id="a_node15"><a xlink:href="a00304.html#a6a6fcd695791253a9b3a053d313b2b93" target="_top" xlink:title=" ">
<polygon fill="white" stroke="black" points="798,-180 798,-199 905,-199 905,-180 798,-180"/>
<text text-anchor="middle" x="851.5" y="-187" font-family="Helvetica,sans-Serif" font-size="10.00">LibLoader::str2jstring</text>
</a>
</g>
</g>
<!-- Node10&#45;&gt;Node15 -->
<g id="edge14" class="edge">
<title>Node10&#45;&gt;Node15</title>
<path fill="none" stroke="midnightblue" d="M732.1,-190.16C749.99,-190.06 769.6,-189.95 787.63,-189.85"/>
<polygon fill="midnightblue" stroke="midnightblue" points="787.77,-193.35 797.75,-189.79 787.73,-186.35 787.77,-193.35"/>
</g>
<!-- Node12 -->
<g id="node12" class="node">
<title>Node12</title>
<g id="a_node12"><a xlink:href="a00349.html#aea7d58ff9f04d6d4849c25a2506603a5" target="_top" xlink:title="取env,如果不存在重新获取">
<polygon fill="white" stroke="black" points="1119,-204 1119,-223 1238,-223 1238,-204 1119,-204"/>
<text text-anchor="middle" x="1178.5" y="-211" font-family="Helvetica,sans-Serif" font-size="10.00">JNIEnvManager::getEnv</text>
</a>
</g>
</g>
<!-- Node11&#45;&gt;Node12 -->
<g id="edge11" class="edge">
<title>Node11&#45;&gt;Node12</title>
<path fill="none" stroke="midnightblue" d="M1071.12,-213.5C1083.1,-213.5 1096.15,-213.5 1108.88,-213.5"/>
<polygon fill="midnightblue" stroke="midnightblue" points="1108.99,-217 1118.99,-213.5 1108.99,-210 1108.99,-217"/>
</g>
<!-- Node13 -->
<g id="node13" class="node">
<title>Node13</title>
<g id="a_node13"><a xlink:href="a00197.html#a3d31403b7971274d47d308245206bd24" target="_top" xlink:title="为当前线程创建一个env.">
<polygon fill="white" stroke="black" points="1274,-204 1274,-223 1324,-223 1324,-204 1274,-204"/>
<text text-anchor="middle" x="1299" y="-211" font-family="Helvetica,sans-Serif" font-size="10.00">newEnv</text>
</a>
</g>
</g>
<!-- Node12&#45;&gt;Node13 -->
<g id="edge12" class="edge">
<title>Node12&#45;&gt;Node13</title>
<path fill="none" stroke="midnightblue" d="M1238.06,-213.5C1246.89,-213.5 1255.75,-213.5 1263.85,-213.5"/>
<polygon fill="midnightblue" stroke="midnightblue" points="1263.98,-217 1273.98,-213.5 1263.98,-210 1263.98,-217"/>
</g>
<!-- Node14 -->
<g id="node14" class="node">
<title>Node14</title>
<g id="a_node14"><a xlink:href="a00349.html#ae0e482c6a813848a8f5d34957d1b6307" target="_top" xlink:title="获取全局JavaVM对象.">
<polygon fill="white" stroke="black" points="1360,-204 1360,-223 1482,-223 1482,-204 1360,-204"/>
<text text-anchor="middle" x="1421" y="-211" font-family="Helvetica,sans-Serif" font-size="10.00">JNIEnvManager::getGvm</text>
</a>
</g>
</g>
<!-- Node13&#45;&gt;Node14 -->
<g id="edge13" class="edge">
<title>Node13&#45;&gt;Node14</title>
<path fill="none" stroke="midnightblue" d="M1324.28,-213.5C1331.75,-213.5 1340.37,-213.5 1349.32,-213.5"/>
<polygon fill="midnightblue" stroke="midnightblue" points="1349.52,-217 1359.52,-213.5 1349.52,-210 1349.52,-217"/>
</g>
<!-- Node15&#45;&gt;Node11 -->
<g id="edge15" class="edge">
<title>Node15&#45;&gt;Node11</title>
<path fill="none" stroke="midnightblue" d="M905.2,-197.03C923.22,-199.6 943.49,-202.5 961.95,-205.14"/>
<polygon fill="midnightblue" stroke="midnightblue" points="961.6,-208.62 971.99,-206.57 962.59,-201.69 961.6,-208.62"/>
</g>
<!-- Node15&#45;&gt;Node16 -->
<g id="edge16" class="edge">
<title>Node15&#45;&gt;Node16</title>
<path fill="none" stroke="midnightblue" d="M894.89,-179.91C911.54,-176.15 931.1,-171.72 949.76,-167.5"/>
<polygon fill="midnightblue" stroke="midnightblue" points="950.73,-170.87 959.71,-165.25 949.19,-164.04 950.73,-170.87"/>
</g>
<!-- Node16&#45;&gt;Node10 -->
<g id="edge17" class="edge">
<title>Node16&#45;&gt;Node10</title>
<path fill="none" stroke="midnightblue" d="M959.77,-154.5C910.82,-157.35 840.29,-162.41 779,-170.5 767.09,-172.07 754.5,-174.09 742.29,-176.23"/>
<polygon fill="midnightblue" stroke="midnightblue" points="741.37,-172.84 732.15,-178.06 742.61,-179.73 741.37,-172.84"/>
</g>
<!-- Node18 -->
<g id="node18" class="node">
<title>Node18</title>
<g id="a_node18"><a xlink:href="a00401.html#a412429fcc7161bafeb4650c98f582ec2" target="_top" xlink:title=" ">
<polygon fill="white" stroke="black" points="779,-91.5 779,-121.5 924,-121.5 924,-91.5 779,-91.5"/>
<text text-anchor="start" x="787" y="-109.5" font-family="Helvetica,sans-Serif" font-size="10.00">LibLoader::PluginListManager</text>
<text text-anchor="middle" x="851.5" y="-98.5" font-family="Helvetica,sans-Serif" font-size="10.00">::threadRunningPluginId</text>
</a>
</g>
</g>
<!-- Node17&#45;&gt;Node18 -->
<g id="edge19" class="edge">
<title>Node17&#45;&gt;Node18</title>
<path fill="none" stroke="midnightblue" d="M743.02,-106.5C751.49,-106.5 760.18,-106.5 768.78,-106.5"/>
<polygon fill="midnightblue" stroke="midnightblue" points="768.8,-110 778.8,-106.5 768.8,-103 768.8,-110"/>
</g>
<!-- Node19&#45;&gt;Node17 -->
<g id="edge21" class="edge">
<title>Node19&#45;&gt;Node17</title>
<path fill="none" stroke="midnightblue" d="M562.23,-104.71C570.71,-104.85 579.4,-104.99 587.98,-105.14"/>
<polygon fill="midnightblue" stroke="midnightblue" points="587.94,-108.64 598,-105.3 588.06,-101.64 587.94,-108.64"/>
</g>
</g>
</svg>
