<?xml version="1.0" encoding="UTF-8" standalone="no"?>
<!DOCTYPE svg PUBLIC "-//W3C//DTD SVG 1.1//EN"
 "http://www.w3.org/Graphics/SVG/1.1/DTD/svg11.dtd">
<!-- Generated by graphviz version 2.50.0 (20211204.2007)
 -->
<!-- Title: FUNC_EXIT Pages: 1 -->
<svg width="220pt" height="176pt"
 viewBox="0.00 0.00 220.00 175.50" xmlns="http://www.w3.org/2000/svg" xmlns:xlink="http://www.w3.org/1999/xlink">
<g id="graph0" class="graph" transform="scale(1 1) rotate(0) translate(4 171.5)">
<title>FUNC_EXIT</title>
<polygon fill="white" stroke="transparent" points="-4,4 -4,-171.5 216,-171.5 216,4 -4,4"/>
<!-- Node1 -->
<g id="node1" class="node">
<title>Node1</title>
<g id="a_node1"><a xlink:title="插件结束(也可能是暂时的disable)">
<polygon fill="#bfbfbf" stroke="black" points="0,-79 0,-98 68,-98 68,-79 0,-79"/>
<text text-anchor="middle" x="34" y="-86" font-family="Helvetica,sans-Serif" font-size="10.00">FUNC_EXIT</text>
</a>
</g>
</g>
<!-- Node2 -->
<g id="node2" class="node">
<title>Node2</title>
<g id="a_node2"><a xlink:href="a00299.html#ae240c3745dfa2fe5cd18fc56d89a7d56" target="_top" xlink:title="插件结束(也可能是暂时的disable)">
<polygon fill="white" stroke="black" points="124,-148 124,-167 192,-167 192,-148 124,-148"/>
<text text-anchor="middle" x="158" y="-155" font-family="Helvetica,sans-Serif" font-size="10.00">FUNC_EXIT</text>
</a>
</g>
</g>
<!-- Node1&#45;&gt;Node2 -->
<g id="edge1" class="edge">
<title>Node1&#45;&gt;Node2</title>
<path fill="none" stroke="midnightblue" d="M46.06,-98.05C59.17,-108.99 82.02,-126.9 104,-138.5 107.95,-140.58 112.17,-142.53 116.45,-144.32"/>
<polygon fill="midnightblue" stroke="midnightblue" points="115.23,-147.6 125.82,-147.98 117.78,-141.08 115.23,-147.6"/>
</g>
<!-- Node3 -->
<g id="node3" class="node">
<title>Node3</title>
<g id="a_node3"><a xlink:href="a00309.html#adbbf9fc9fc8afe6108ac756d7da23ddb" target="_top" xlink:title="这个函数是给本cpp以外的文件使用的，大概率用不到">
<polygon fill="white" stroke="black" points="104,-98.5 104,-128.5 212,-128.5 212,-98.5 104,-98.5"/>
<text text-anchor="start" x="112" y="-116.5" font-family="Helvetica,sans-Serif" font-size="10.00">LibLoader::LoaderApi</text>
<text text-anchor="middle" x="158" y="-105.5" font-family="Helvetica,sans-Serif" font-size="10.00">::get_loader_apis</text>
</a>
</g>
</g>
<!-- Node1&#45;&gt;Node3 -->
<g id="edge2" class="edge">
<title>Node1&#45;&gt;Node3</title>
<path fill="none" stroke="midnightblue" d="M68.01,-95.27C76.01,-96.9 84.83,-98.71 93.71,-100.53"/>
<polygon fill="midnightblue" stroke="midnightblue" points="93.23,-104.01 103.73,-102.58 94.64,-97.15 93.23,-104.01"/>
</g>
<!-- Node4 -->
<g id="node4" class="node">
<title>Node4</title>
<g id="a_node4"><a xlink:href="a00310.html#a19380dd08a77bc8a50fadd4e0401e871" target="_top" xlink:title="reset all redirecting">
<polygon fill="white" stroke="black" points="107.5,-49.5 107.5,-79.5 208.5,-79.5 208.5,-49.5 107.5,-49.5"/>
<text text-anchor="start" x="115.5" y="-67.5" font-family="Helvetica,sans-Serif" font-size="10.00">MiraiCP::Redirector</text>
<text text-anchor="middle" x="158" y="-56.5" font-family="Helvetica,sans-Serif" font-size="10.00">::reset</text>
</a>
</g>
</g>
<!-- Node1&#45;&gt;Node4 -->
<g id="edge3" class="edge">
<title>Node1&#45;&gt;Node4</title>
<path fill="none" stroke="midnightblue" d="M68.01,-82.01C77.12,-80.21 87.28,-78.21 97.4,-76.23"/>
<polygon fill="midnightblue" stroke="midnightblue" points="98.32,-79.61 107.45,-74.25 96.96,-72.74 98.32,-79.61"/>
</g>
<!-- Node5 -->
<g id="node5" class="node">
<title>Node5</title>
<g id="a_node5"><a xlink:href="a00309.html#afec97d6c5d05f3dda23d2c5bc0bfed4e" target="_top" xlink:title=" ">
<polygon fill="white" stroke="black" points="104,-0.5 104,-30.5 212,-30.5 212,-0.5 104,-0.5"/>
<text text-anchor="start" x="112" y="-18.5" font-family="Helvetica,sans-Serif" font-size="10.00">LibLoader::LoaderApi</text>
<text text-anchor="middle" x="158" y="-7.5" font-family="Helvetica,sans-Serif" font-size="10.00">::reset_loader_apis</text>
</a>
</g>
</g>
<!-- Node1&#45;&gt;Node5 -->
<g id="edge4" class="edge">
<title>Node1&#45;&gt;Node5</title>
<path fill="none" stroke="midnightblue" d="M47.3,-79C60.79,-68.81 83.28,-52.48 104,-40.5 107.18,-38.66 110.52,-36.84 113.91,-35.08"/>
<polygon fill="midnightblue" stroke="midnightblue" points="115.56,-38.16 122.92,-30.54 112.42,-31.91 115.56,-38.16"/>
</g>
</g>
</svg>
