<?xml version="1.0" encoding="UTF-8" standalone="no"?>
<!DOCTYPE svg PUBLIC "-//W3C//DTD SVG 1.1//EN"
 "http://www.w3.org/Graphics/SVG/1.1/DTD/svg11.dtd">
<!-- Generated by graphviz version 2.50.0 (20211204.2007)
 -->
<!-- Title: LibLoader::LoaderApi::get_loader_apis Pages: 1 -->
<svg width="408pt" height="128pt"
 viewBox="0.00 0.00 408.00 127.50" xmlns="http://www.w3.org/2000/svg" xmlns:xlink="http://www.w3.org/1999/xlink">
<g id="graph0" class="graph" transform="scale(1 1) rotate(0) translate(4 123.5)">
<title>LibLoader::LoaderApi::get_loader_apis</title>
<polygon fill="white" stroke="transparent" points="-4,4 -4,-123.5 404,-123.5 404,4 -4,4"/>
<!-- Node1 -->
<g id="node1" class="node">
<title>Node1</title>
<g id="a_node1"><a xlink:title="这个函数是给本cpp以外的文件使用的，大概率用不到">
<polygon fill="#bfbfbf" stroke="black" points="292,-51 292,-81 400,-81 400,-51 292,-51"/>
<text text-anchor="start" x="300" y="-69" font-family="Helvetica,sans-Serif" font-size="10.00">LibLoader::LoaderApi</text>
<text text-anchor="middle" x="346" y="-58" font-family="Helvetica,sans-Serif" font-size="10.00">::get_loader_apis</text>
</a>
</g>
</g>
<!-- Node2 -->
<g id="node2" class="node">
<title>Node2</title>
<g id="a_node2"><a xlink:href="a00308.html#a0a223033909ab4ca1f424c337fda2b85" target="_top" xlink:title="判断目前是否可以安全地call LoaderApi">
<polygon fill="white" stroke="black" points="137,-94.5 137,-113.5 256,-113.5 256,-94.5 137,-94.5"/>
<text text-anchor="middle" x="196.5" y="-101.5" font-family="Helvetica,sans-Serif" font-size="10.00">MiraiCP::checkSafeCall</text>
</a>
</g>
</g>
<!-- Node1&#45;&gt;Node2 -->
<g id="edge1" class="edge">
<title>Node1&#45;&gt;Node2</title>
<path fill="none" stroke="midnightblue" d="M281.82,-82.28C265.68,-86.44 248.85,-90.77 234.51,-94.47"/>
<polygon fill="midnightblue" stroke="midnightblue" points="282.94,-85.6 291.75,-79.72 281.19,-78.82 282.94,-85.6"/>
</g>
<!-- Node4 -->
<g id="node4" class="node">
<title>Node4</title>
<g id="a_node4"><a xlink:href="a00302.html#ada5aac13445cc76c802c817d248d8da8" target="_top" xlink:title="插件开启入口">
<polygon fill="white" stroke="black" points="146,-56.5 146,-75.5 247,-75.5 247,-56.5 146,-56.5"/>
<text text-anchor="middle" x="196.5" y="-63.5" font-family="Helvetica,sans-Serif" font-size="10.00">FUNC_ENTRANCE</text>
</a>
</g>
</g>
<!-- Node1&#45;&gt;Node4 -->
<g id="edge3" class="edge">
<title>Node1&#45;&gt;Node4</title>
<path fill="none" stroke="midnightblue" d="M281.73,-66C270.19,-66 258.31,-66 247.23,-66"/>
<polygon fill="midnightblue" stroke="midnightblue" points="281.75,-69.5 291.75,-66 281.75,-62.5 281.75,-69.5"/>
</g>
<!-- Node5 -->
<g id="node5" class="node">
<title>Node5</title>
<g id="a_node5"><a xlink:href="a00302.html#ae240c3745dfa2fe5cd18fc56d89a7d56" target="_top" xlink:title="插件结束(也可能是暂时的disable)">
<polygon fill="white" stroke="black" points="162.5,-0.5 162.5,-19.5 230.5,-19.5 230.5,-0.5 162.5,-0.5"/>
<text text-anchor="middle" x="196.5" y="-7.5" font-family="Helvetica,sans-Serif" font-size="10.00">FUNC_EXIT</text>
</a>
</g>
</g>
<!-- Node1&#45;&gt;Node5 -->
<g id="edge4" class="edge">
<title>Node1&#45;&gt;Node5</title>
<path fill="none" stroke="midnightblue" d="M295.96,-47.38C271.43,-38.07 242.79,-27.2 222.75,-19.58"/>
<polygon fill="midnightblue" stroke="midnightblue" points="294.88,-50.72 305.47,-50.99 297.37,-44.17 294.88,-50.72"/>
</g>
<!-- Node3 -->
<g id="node3" class="node">
<title>Node3</title>
<g id="a_node3"><a xlink:href="a00680.html#a0af5afb339c80a734ac9752d4f179069" target="_top" xlink:title="请求一次刷新数据, 但不保证会进行">
<polygon fill="white" stroke="black" points="0,-89 0,-119 101,-119 101,-89 0,-89"/>
<text text-anchor="start" x="8" y="-107" font-family="Helvetica,sans-Serif" font-size="10.00">MiraiCP::IMiraiData</text>
<text text-anchor="middle" x="50.5" y="-96" font-family="Helvetica,sans-Serif" font-size="10.00">::requestRefresh</text>
</a>
</g>
</g>
<!-- Node2&#45;&gt;Node3 -->
<g id="edge2" class="edge">
<title>Node2&#45;&gt;Node3</title>
<path fill="none" stroke="midnightblue" d="M126.85,-104C118.22,-104 109.52,-104 101.26,-104"/>
<polygon fill="midnightblue" stroke="midnightblue" points="126.93,-107.5 136.93,-104 126.93,-100.5 126.93,-107.5"/>
</g>
<!-- Node5&#45;&gt;Node5 -->
<g id="edge5" class="edge">
<title>Node5&#45;&gt;Node5</title>
<path fill="none" stroke="midnightblue" d="M223.75,-28.65C222.61,-33.94 213.53,-38 196.5,-38 170.55,-38 163.05,-28.57 174,-19.76"/>
<polygon fill="midnightblue" stroke="midnightblue" points="226.8,-26.93 219,-19.76 220.62,-30.23 226.8,-26.93"/>
</g>
</g>
</svg>
