<?xml version="1.0" encoding="UTF-8" standalone="no"?>
<!DOCTYPE svg PUBLIC "-//W3C//DTD SVG 1.1//EN"
 "http://www.w3.org/Graphics/SVG/1.1/DTD/svg11.dtd">
<!-- Generated by graphviz version 2.50.0 (20211204.2007)
 -->
<!-- Title: LibLoader::loader_reloadPluginById Pages: 1 -->
<svg width="1511pt" height="124pt"
 viewBox="0.00 0.00 1511.00 123.50" xmlns="http://www.w3.org/2000/svg" xmlns:xlink="http://www.w3.org/1999/xlink">
<g id="graph0" class="graph" transform="scale(1 1) rotate(0) translate(4 119.5)">
<title>LibLoader::loader_reloadPluginById</title>
<polygon fill="white" stroke="transparent" points="-4,4 -4,-119.5 1507,-119.5 1507,4 -4,4"/>
<!-- Node1 -->
<g id="node1" class="node">
<title>Node1</title>
<g id="a_node1"><a xlink:title=" ">
<polygon fill="#bfbfbf" stroke="black" points="0,-23 0,-53 122,-53 122,-23 0,-23"/>
<text text-anchor="start" x="8" y="-41" font-family="Helvetica,sans-Serif" font-size="10.00">LibLoader::loader_reload</text>
<text text-anchor="middle" x="61" y="-30" font-family="Helvetica,sans-Serif" font-size="10.00">PluginById</text>
</a>
</g>
</g>
<!-- Node2 -->
<g id="node2" class="node">
<title>Node2</title>
<g id="a_node2"><a xlink:href="a00413.html#aeabb1d1eb9380ac1fef5843904522dad" target="_top" xlink:title=" ">
<polygon fill="white" stroke="black" points="158,-23 158,-53 303,-53 303,-23 158,-23"/>
<text text-anchor="start" x="166" y="-41" font-family="Helvetica,sans-Serif" font-size="10.00">LibLoader::PluginListManager</text>
<text text-anchor="middle" x="230.5" y="-30" font-family="Helvetica,sans-Serif" font-size="10.00">::reloadById</text>
</a>
</g>
</g>
<!-- Node1&#45;&gt;Node2 -->
<g id="edge1" class="edge">
<title>Node1&#45;&gt;Node2</title>
<path fill="none" stroke="midnightblue" d="M122.47,-38C130.76,-38 139.37,-38 147.95,-38"/>
<polygon fill="midnightblue" stroke="midnightblue" points="147.99,-41.5 157.99,-38 147.99,-34.5 147.99,-41.5"/>
</g>
<!-- Node3 -->
<g id="node3" class="node">
<title>Node3</title>
<g id="a_node3"><a xlink:href="a00413.html#ae46706b7c026ab0f7a38f8707c52e4f6" target="_top" xlink:title=" ">
<polygon fill="white" stroke="black" points="339,-67 339,-97 484,-97 484,-67 339,-67"/>
<text text-anchor="start" x="347" y="-85" font-family="Helvetica,sans-Serif" font-size="10.00">LibLoader::PluginListManager</text>
<text text-anchor="middle" x="411.5" y="-74" font-family="Helvetica,sans-Serif" font-size="10.00">::changeKeyInternal</text>
</a>
</g>
</g>
<!-- Node2&#45;&gt;Node3 -->
<g id="edge2" class="edge">
<title>Node2&#45;&gt;Node3</title>
<path fill="none" stroke="midnightblue" d="M292.6,-53.02C307.64,-56.72 323.87,-60.71 339.34,-64.51"/>
<polygon fill="midnightblue" stroke="midnightblue" points="338.82,-67.99 349.37,-66.97 340.5,-61.19 338.82,-67.99"/>
</g>
<!-- Node4 -->
<g id="node4" class="node">
<title>Node4</title>
<g id="a_node4"><a xlink:href="a00393.html#ae735f16b20f681d29d4e5d28ad248dbe" target="_top" xlink:title=" ">
<polygon fill="white" stroke="black" points="520,-61 520,-91 643,-91 643,-61 520,-61"/>
<text text-anchor="start" x="528" y="-79" font-family="Helvetica,sans-Serif" font-size="10.00">LibLoader::LoaderLogger</text>
<text text-anchor="middle" x="581.5" y="-68" font-family="Helvetica,sans-Serif" font-size="10.00">::error</text>
</a>
</g>
</g>
<!-- Node2&#45;&gt;Node4 -->
<g id="edge13" class="edge">
<title>Node2&#45;&gt;Node4</title>
<path fill="none" stroke="midnightblue" d="M303.27,-41.67C353.92,-44.75 423.3,-49.96 484,-58 492.38,-59.11 501.13,-60.47 509.8,-61.93"/>
<polygon fill="midnightblue" stroke="midnightblue" points="509.46,-65.42 519.91,-63.69 510.66,-58.53 509.46,-65.42"/>
</g>
<!-- Node11 -->
<g id="node11" class="node">
<title>Node11</title>
<g id="a_node11"><a xlink:href="a00393.html#af50d0545fe7d683e54fcd03453a423e3" target="_top" xlink:title=" ">
<polygon fill="white" stroke="black" points="981,-23 981,-53 1104,-53 1104,-23 981,-23"/>
<text text-anchor="start" x="989" y="-41" font-family="Helvetica,sans-Serif" font-size="10.00">LibLoader::LoaderLogger</text>
<text text-anchor="middle" x="1042.5" y="-30" font-family="Helvetica,sans-Serif" font-size="10.00">::warning</text>
</a>
</g>
</g>
<!-- Node2&#45;&gt;Node11 -->
<g id="edge14" class="edge">
<title>Node2&#45;&gt;Node11</title>
<path fill="none" stroke="midnightblue" d="M303.11,-25.61C373.48,-14.52 484.05,0 580.5,0 580.5,0 580.5,0 741.5,0 820.57,0 910.45,-13.15 971.04,-23.98"/>
<polygon fill="midnightblue" stroke="midnightblue" points="970.42,-27.43 980.88,-25.77 971.66,-20.54 970.42,-27.43"/>
</g>
<!-- Node3&#45;&gt;Node4 -->
<g id="edge3" class="edge">
<title>Node3&#45;&gt;Node4</title>
<path fill="none" stroke="midnightblue" d="M484.23,-79.44C492.67,-79.14 501.27,-78.83 509.69,-78.53"/>
<polygon fill="midnightblue" stroke="midnightblue" points="509.98,-82.02 519.85,-78.17 509.73,-75.03 509.98,-82.02"/>
</g>
<!-- Node5 -->
<g id="node5" class="node">
<title>Node5</title>
<g id="a_node5"><a xlink:href="a00393.html#af4d7d5164450e25f7401d1cc15f15b8d" target="_top" xlink:title="实际暴露的接口">
<polygon fill="white" stroke="black" points="679,-61 679,-91 802,-91 802,-61 679,-61"/>
<text text-anchor="start" x="687" y="-79" font-family="Helvetica,sans-Serif" font-size="10.00">LibLoader::LoaderLogger</text>
<text text-anchor="middle" x="740.5" y="-68" font-family="Helvetica,sans-Serif" font-size="10.00">::call_logger</text>
</a>
</g>
</g>
<!-- Node4&#45;&gt;Node5 -->
<g id="edge4" class="edge">
<title>Node4&#45;&gt;Node5</title>
<path fill="none" stroke="midnightblue" d="M643.2,-76C651.64,-76 660.36,-76 668.95,-76"/>
<polygon fill="midnightblue" stroke="midnightblue" points="668.96,-79.5 678.96,-76 668.96,-72.5 668.96,-79.5"/>
</g>
<!-- Node6 -->
<g id="node6" class="node">
<title>Node6</title>
<g id="a_node6"><a xlink:href="a00309.html#a076c5f4ff8083c7cfc6523498d0ba30f" target="_top" xlink:title=" ">
<polygon fill="white" stroke="black" points="993,-85 993,-115 1092,-115 1092,-85 993,-85"/>
<text text-anchor="start" x="1001" y="-103" font-family="Helvetica,sans-Serif" font-size="10.00">LibLoader::JNIEnvs</text>
<text text-anchor="middle" x="1042.5" y="-92" font-family="Helvetica,sans-Serif" font-size="10.00">::getEnv</text>
</a>
</g>
</g>
<!-- Node5&#45;&gt;Node6 -->
<g id="edge5" class="edge">
<title>Node5&#45;&gt;Node6</title>
<path fill="none" stroke="midnightblue" d="M802,-89.54C813.88,-91.74 826.29,-93.71 838,-95 886.58,-100.34 942.05,-101.37 982.8,-101.19"/>
<polygon fill="midnightblue" stroke="midnightblue" points="982.85,-104.69 992.83,-101.12 982.8,-97.69 982.85,-104.69"/>
</g>
<!-- Node10 -->
<g id="node10" class="node">
<title>Node10</title>
<g id="a_node10"><a xlink:href="a00304.html#a6a6fcd695791253a9b3a053d313b2b93" target="_top" xlink:title=" ">
<polygon fill="white" stroke="black" points="838,-66.5 838,-85.5 945,-85.5 945,-66.5 838,-66.5"/>
<text text-anchor="middle" x="891.5" y="-73.5" font-family="Helvetica,sans-Serif" font-size="10.00">LibLoader::str2jstring</text>
</a>
</g>
</g>
<!-- Node5&#45;&gt;Node10 -->
<g id="edge9" class="edge">
<title>Node5&#45;&gt;Node10</title>
<path fill="none" stroke="midnightblue" d="M802.1,-76C810.47,-76 819.07,-76 827.48,-76"/>
<polygon fill="midnightblue" stroke="midnightblue" points="827.6,-79.5 837.6,-76 827.6,-72.5 827.6,-79.5"/>
</g>
<!-- Node7 -->
<g id="node7" class="node">
<title>Node7</title>
<g id="a_node7"><a xlink:href="a00361.html#aea7d58ff9f04d6d4849c25a2506603a5" target="_top" xlink:title="取env,如果不存在重新获取">
<polygon fill="white" stroke="black" points="1140,-90.5 1140,-109.5 1259,-109.5 1259,-90.5 1140,-90.5"/>
<text text-anchor="middle" x="1199.5" y="-97.5" font-family="Helvetica,sans-Serif" font-size="10.00">JNIEnvManager::getEnv</text>
</a>
</g>
</g>
<!-- Node6&#45;&gt;Node7 -->
<g id="edge6" class="edge">
<title>Node6&#45;&gt;Node7</title>
<path fill="none" stroke="midnightblue" d="M1092.12,-100C1104.1,-100 1117.15,-100 1129.88,-100"/>
<polygon fill="midnightblue" stroke="midnightblue" points="1129.99,-103.5 1139.99,-100 1129.99,-96.5 1129.99,-103.5"/>
</g>
<!-- Node8 -->
<g id="node8" class="node">
<title>Node8</title>
<g id="a_node8"><a xlink:href="a00197.html#a3d31403b7971274d47d308245206bd24" target="_top" xlink:title="为当前线程创建一个env.">
<polygon fill="white" stroke="black" points="1295,-90.5 1295,-109.5 1345,-109.5 1345,-90.5 1295,-90.5"/>
<text text-anchor="middle" x="1320" y="-97.5" font-family="Helvetica,sans-Serif" font-size="10.00">newEnv</text>
</a>
</g>
</g>
<!-- Node7&#45;&gt;Node8 -->
<g id="edge7" class="edge">
<title>Node7&#45;&gt;Node8</title>
<path fill="none" stroke="midnightblue" d="M1259.06,-100C1267.89,-100 1276.75,-100 1284.85,-100"/>
<polygon fill="midnightblue" stroke="midnightblue" points="1284.98,-103.5 1294.98,-100 1284.98,-96.5 1284.98,-103.5"/>
</g>
<!-- Node9 -->
<g id="node9" class="node">
<title>Node9</title>
<g id="a_node9"><a xlink:href="a00361.html#ae0e482c6a813848a8f5d34957d1b6307" target="_top" xlink:title="获取全局JavaVM对象.">
<polygon fill="white" stroke="black" points="1381,-90.5 1381,-109.5 1503,-109.5 1503,-90.5 1381,-90.5"/>
<text text-anchor="middle" x="1442" y="-97.5" font-family="Helvetica,sans-Serif" font-size="10.00">JNIEnvManager::getGvm</text>
</a>
</g>
</g>
<!-- Node8&#45;&gt;Node9 -->
<g id="edge8" class="edge">
<title>Node8&#45;&gt;Node9</title>
<path fill="none" stroke="midnightblue" d="M1345.28,-100C1352.75,-100 1361.37,-100 1370.32,-100"/>
<polygon fill="midnightblue" stroke="midnightblue" points="1370.52,-103.5 1380.52,-100 1370.52,-96.5 1370.52,-103.5"/>
</g>
<!-- Node10&#45;&gt;Node6 -->
<g id="edge10" class="edge">
<title>Node10&#45;&gt;Node6</title>
<path fill="none" stroke="midnightblue" d="M945.03,-84.46C957.33,-86.44 970.5,-88.56 983.04,-90.58"/>
<polygon fill="midnightblue" stroke="midnightblue" points="982.5,-94.04 992.93,-92.18 983.61,-87.13 982.5,-94.04"/>
</g>
<!-- Node10&#45;&gt;Node11 -->
<g id="edge11" class="edge">
<title>Node10&#45;&gt;Node11</title>
<path fill="none" stroke="midnightblue" d="M930.1,-66.41C942.99,-63.12 957.85,-59.33 972.43,-55.62"/>
<polygon fill="midnightblue" stroke="midnightblue" points="973.63,-58.92 982.45,-53.06 971.9,-52.14 973.63,-58.92"/>
</g>
<!-- Node11&#45;&gt;Node5 -->
<g id="edge12" class="edge">
<title>Node11&#45;&gt;Node5</title>
<path fill="none" stroke="midnightblue" d="M980.76,-42.05C940.21,-45.16 885.76,-50.09 838,-57 829.62,-58.21 820.86,-59.67 812.19,-61.23"/>
<polygon fill="midnightblue" stroke="midnightblue" points="811.28,-57.84 802.08,-63.1 812.55,-64.72 811.28,-57.84"/>
</g>
</g>
</svg>
