<?xml version="1.0" encoding="UTF-8" standalone="no"?>
<!DOCTYPE svg PUBLIC "-//W3C//DTD SVG 1.1//EN"
 "http://www.w3.org/Graphics/SVG/1.1/DTD/svg11.dtd">
<!-- Generated by graphviz version 9.0.0 (0)
 -->
<!-- Title: Plugin.h Pages: 1 -->
<svg width="835pt" height="364pt"
 viewBox="0.00 0.00 834.50 364.00" xmlns="http://www.w3.org/2000/svg" xmlns:xlink="http://www.w3.org/1999/xlink">
<g id="graph0" class="graph" transform="scale(1 1) rotate(0) translate(4 360)">
<title>Plugin.h</title>
<!-- Node1 -->
<g id="Node000001" class="node">
<title>Node1</title>
<g id="a_Node000001"><a xlink:title=" ">
<polygon fill="#999999" stroke="#666666" points="538.38,-356 487.12,-356 487.12,-336 538.38,-336 538.38,-356"/>
<text text-anchor="middle" x="512.75" y="-342.5" font-family="Helvetica,sans-Serif" font-size="10.00">Plugin.h</text>
</a>
</g>
</g>
<!-- Node2 -->
<g id="Node000002" class="node">
<title>Node2</title>
<g id="a_Node000002"><a xlink:href="a00215.html" target="_top" xlink:title=" ">
<polygon fill="white" stroke="#666666" points="264.88,-300 156.62,-300 156.62,-280 264.88,-280 264.88,-300"/>
<text text-anchor="middle" x="210.75" y="-286.5" font-family="Helvetica,sans-Serif" font-size="10.00">MessageProcessor.h</text>
</a>
</g>
</g>
<!-- Node1&#45;&gt;Node2 -->
<g id="edge1_Node000001_Node000002" class="edge">
<title>Node1&#45;&gt;Node2</title>
<g id="a_edge1_Node000001_Node000002"><a xlink:title=" ">
<path fill="none" stroke="#63b8ff" d="M486.74,-340.35C440.01,-331.99 340.59,-314.22 274.72,-302.44"/>
<polygon fill="#63b8ff" stroke="#63b8ff" points="275.59,-299.04 265.13,-300.72 274.36,-305.93 275.59,-299.04"/>
</a>
</g>
</g>
<!-- Node7 -->
<g id="Node000007" class="node">
<title>Node7</title>
<g id="a_Node000007"><a xlink:title=" ">
<polygon fill="#e0e0e0" stroke="#999999" points="364.75,-76 324.75,-76 324.75,-56 364.75,-56 364.75,-76"/>
<text text-anchor="middle" x="344.75" y="-62.5" font-family="Helvetica,sans-Serif" font-size="10.00">string</text>
</a>
</g>
</g>
<!-- Node1&#45;&gt;Node7 -->
<g id="edge30_Node000001_Node000007" class="edge">
<title>Node1&#45;&gt;Node7</title>
<g id="a_edge30_Node000001_Node000007"><a xlink:title=" ">
<path fill="none" stroke="#63b8ff" d="M509.17,-335.74C502.26,-317.02 487.75,-273.19 487.75,-235 487.75,-235 487.75,-235 487.75,-177 487.75,-146.9 489.34,-133.95 468.75,-112 455.85,-98.26 408.28,-83.58 375.95,-74.86"/>
<polygon fill="#63b8ff" stroke="#63b8ff" points="377.26,-71.58 366.7,-72.42 375.48,-78.35 377.26,-71.58"/>
</a>
</g>
</g>
<!-- Node9 -->
<g id="Node000009" class="node">
<title>Node9</title>
<g id="a_Node000009"><a xlink:href="a00182.html" target="_top" xlink:title=" ">
<polygon fill="white" stroke="#666666" points="341.75,-244 253.75,-244 253.75,-224 341.75,-224 341.75,-244"/>
<text text-anchor="middle" x="297.75" y="-230.5" font-family="Helvetica,sans-Serif" font-size="10.00">commonTypes.h</text>
</a>
</g>
</g>
<!-- Node1&#45;&gt;Node9 -->
<g id="edge25_Node000001_Node000009" class="edge">
<title>Node1&#45;&gt;Node9</title>
<g id="a_edge25_Node000001_Node000009"><a xlink:title=" ">
<path fill="none" stroke="#63b8ff" d="M486.65,-339.79C457.74,-333.3 410.38,-320.5 373.75,-300 350.92,-287.22 328.63,-266.96 314.15,-252.45"/>
<polygon fill="#63b8ff" stroke="#63b8ff" points="316.75,-250.1 307.27,-245.37 311.73,-254.98 316.75,-250.1"/>
</a>
</g>
</g>
<!-- Node14 -->
<g id="Node000014" class="node">
<title>Node14</title>
<g id="a_Node000014"><a xlink:href="a00293.html" target="_top" xlink:title=" ">
<polygon fill="white" stroke="#666666" points="454.88,-300 382.62,-300 382.62,-280 454.88,-280 454.88,-300"/>
<text text-anchor="middle" x="418.75" y="-286.5" font-family="Helvetica,sans-Serif" font-size="10.00">PluginData.h</text>
</a>
</g>
</g>
<!-- Node1&#45;&gt;Node14 -->
<g id="edge19_Node000001_Node000014" class="edge">
<title>Node1&#45;&gt;Node14</title>
<g id="a_edge19_Node000001_Node000014"><a xlink:title=" ">
<path fill="none" stroke="#63b8ff" d="M496.38,-335.59C482.18,-327.44 461.37,-315.48 444.87,-306"/>
<polygon fill="#63b8ff" stroke="#63b8ff" points="446.98,-303.18 436.56,-301.23 443.49,-309.25 446.98,-303.18"/>
</a>
</g>
</g>
<!-- Node17 -->
<g id="Node000017" class="node">
<title>Node17</title>
<g id="a_Node000017"><a xlink:title=" ">
<polygon fill="#e0e0e0" stroke="#999999" points="561.38,-300 516.12,-300 516.12,-280 561.38,-280 561.38,-300"/>
<text text-anchor="middle" x="538.75" y="-286.5" font-family="Helvetica,sans-Serif" font-size="10.00">atomic</text>
</a>
</g>
</g>
<!-- Node1&#45;&gt;Node17 -->
<g id="edge26_Node000001_Node000017" class="edge">
<title>Node1&#45;&gt;Node17</title>
<g id="a_edge26_Node000001_Node000017"><a xlink:title=" ">
<path fill="none" stroke="#63b8ff" d="M517.28,-335.59C520.6,-328.7 525.22,-319.1 529.33,-310.57"/>
<polygon fill="#63b8ff" stroke="#63b8ff" points="532.43,-312.19 533.62,-301.66 526.12,-309.15 532.43,-312.19"/>
</a>
</g>
</g>
<!-- Node18 -->
<g id="Node000018" class="node">
<title>Node18</title>
<g id="a_Node000018"><a xlink:title=" ">
<polygon fill="#e0e0e0" stroke="#999999" points="620.12,-300 579.38,-300 579.38,-280 620.12,-280 620.12,-300"/>
<text text-anchor="middle" x="599.75" y="-286.5" font-family="Helvetica,sans-Serif" font-size="10.00">future</text>
</a>
</g>
</g>
<!-- Node1&#45;&gt;Node18 -->
<g id="edge27_Node000001_Node000018" class="edge">
<title>Node1&#45;&gt;Node18</title>
<g id="a_edge27_Node000001_Node000018"><a xlink:title=" ">
<path fill="none" stroke="#63b8ff" d="M527.9,-335.59C540.8,-327.59 559.58,-315.93 574.71,-306.54"/>
<polygon fill="#63b8ff" stroke="#63b8ff" points="576.54,-309.53 583.19,-301.28 572.85,-303.58 576.54,-309.53"/>
</a>
</g>
</g>
<!-- Node19 -->
<g id="Node000019" class="node">
<title>Node19</title>
<g id="a_Node000019"><a xlink:title=" ">
<polygon fill="#e0e0e0" stroke="#999999" points="731,-300 638.5,-300 638.5,-280 731,-280 731,-300"/>
<text text-anchor="middle" x="684.75" y="-286.5" font-family="Helvetica,sans-Serif" font-size="10.00">polym/Queue.hpp</text>
</a>
</g>
</g>
<!-- Node1&#45;&gt;Node19 -->
<g id="edge28_Node000001_Node000019" class="edge">
<title>Node1&#45;&gt;Node19</title>
<g id="a_edge28_Node000001_Node000019"><a xlink:title=" ">
<path fill="none" stroke="#63b8ff" d="M538.87,-336.8C566.7,-328.06 611.13,-314.11 643.65,-303.9"/>
<polygon fill="#63b8ff" stroke="#63b8ff" points="644.67,-307.25 653.17,-300.92 642.58,-300.57 644.67,-307.25"/>
</a>
</g>
</g>
<!-- Node20 -->
<g id="Node000020" class="node">
<title>Node20</title>
<g id="a_Node000020"><a xlink:title=" ">
<polygon fill="#e0e0e0" stroke="#999999" points="826.5,-300 749,-300 749,-280 826.5,-280 826.5,-300"/>
<text text-anchor="middle" x="787.75" y="-286.5" font-family="Helvetica,sans-Serif" font-size="10.00">shared_mutex</text>
</a>
</g>
</g>
<!-- Node1&#45;&gt;Node20 -->
<g id="edge29_Node000001_Node000020" class="edge">
<title>Node1&#45;&gt;Node20</title>
<g id="a_edge29_Node000001_Node000020"><a xlink:title=" ">
<path fill="none" stroke="#63b8ff" d="M538.62,-339.92C584,-331.01 678.68,-312.42 737.36,-300.89"/>
<polygon fill="#63b8ff" stroke="#63b8ff" points="737.97,-304.34 747.11,-298.98 736.62,-297.47 737.97,-304.34"/>
</a>
</g>
</g>
<!-- Node3 -->
<g id="Node000003" class="node">
<title>Node3</title>
<g id="a_Node000003"><a xlink:href="a00176.html" target="_top" xlink:title=" ">
<polygon fill="white" stroke="#666666" points="71.5,-244 0,-244 0,-224 71.5,-224 71.5,-244"/>
<text text-anchor="middle" x="35.75" y="-230.5" font-family="Helvetica,sans-Serif" font-size="10.00">MsgDefine.h</text>
</a>
</g>
</g>
<!-- Node2&#45;&gt;Node3 -->
<g id="edge2_Node000002_Node000003" class="edge">
<title>Node2&#45;&gt;Node3</title>
<g id="a_edge2_Node000002_Node000003"><a xlink:title=" ">
<path fill="none" stroke="#63b8ff" d="M180.27,-279.59C151.71,-270.78 108.8,-257.54 77.15,-247.78"/>
<polygon fill="#63b8ff" stroke="#63b8ff" points="78.5,-244.53 67.92,-244.93 76.44,-251.22 78.5,-244.53"/>
</a>
</g>
</g>
<!-- Node8 -->
<g id="Node000008" class="node">
<title>Node8</title>
<g id="a_Node000008"><a xlink:title=" ">
<polygon fill="#e0e0e0" stroke="#999999" points="116.12,-188 33.38,-188 33.38,-168 116.12,-168 116.12,-188"/>
<text text-anchor="middle" x="74.75" y="-174.5" font-family="Helvetica,sans-Serif" font-size="10.00">polym/Msg.hpp</text>
</a>
</g>
</g>
<!-- Node2&#45;&gt;Node8 -->
<g id="edge17_Node000002_Node000008" class="edge">
<title>Node2&#45;&gt;Node8</title>
<g id="a_edge17_Node000002_Node000008"><a xlink:title=" ">
<path fill="none" stroke="#63b8ff" d="M213.07,-279.95C215.99,-266.31 219.23,-240.36 206.75,-224 196.73,-210.87 159.91,-198.96 127.69,-190.69"/>
<polygon fill="#63b8ff" stroke="#63b8ff" points="128.56,-187.3 118.01,-188.29 126.87,-194.09 128.56,-187.3"/>
</a>
</g>
</g>
<!-- Node2&#45;&gt;Node9 -->
<g id="edge9_Node000002_Node000009" class="edge">
<title>Node2&#45;&gt;Node9</title>
<g id="a_edge9_Node000002_Node000009"><a xlink:title=" ">
<path fill="none" stroke="#63b8ff" d="M225.9,-279.59C238.8,-271.59 257.58,-259.93 272.71,-250.54"/>
<polygon fill="#63b8ff" stroke="#63b8ff" points="274.54,-253.53 281.19,-245.28 270.85,-247.58 274.54,-253.53"/>
</a>
</g>
</g>
<!-- Node12 -->
<g id="Node000012" class="node">
<title>Node12</title>
<g id="a_Node000012"><a xlink:title=" ">
<polygon fill="#e0e0e0" stroke="#999999" points="140.38,-244 89.12,-244 89.12,-224 140.38,-224 140.38,-244"/>
<text text-anchor="middle" x="114.75" y="-230.5" font-family="Helvetica,sans-Serif" font-size="10.00">memory</text>
</a>
</g>
</g>
<!-- Node2&#45;&gt;Node12 -->
<g id="edge16_Node000002_Node000012" class="edge">
<title>Node2&#45;&gt;Node12</title>
<g id="a_edge16_Node000002_Node000012"><a xlink:title=" ">
<path fill="none" stroke="#63b8ff" d="M194.03,-279.59C179.53,-271.44 158.28,-259.48 141.43,-250"/>
<polygon fill="#63b8ff" stroke="#63b8ff" points="143.35,-247.07 132.92,-245.22 139.92,-253.17 143.35,-247.07"/>
</a>
</g>
</g>
<!-- Node13 -->
<g id="Node000013" class="node">
<title>Node13</title>
<g id="a_Node000013"><a xlink:title=" ">
<polygon fill="#e0e0e0" stroke="#999999" points="197.38,-244 158.12,-244 158.12,-224 197.38,-224 197.38,-244"/>
<text text-anchor="middle" x="177.75" y="-230.5" font-family="Helvetica,sans-Serif" font-size="10.00">utility</text>
</a>
</g>
</g>
<!-- Node2&#45;&gt;Node13 -->
<g id="edge18_Node000002_Node000013" class="edge">
<title>Node2&#45;&gt;Node13</title>
<g id="a_edge18_Node000002_Node000013"><a xlink:title=" ">
<path fill="none" stroke="#63b8ff" d="M205,-279.59C200.7,-272.55 194.66,-262.67 189.36,-254"/>
<polygon fill="#63b8ff" stroke="#63b8ff" points="192.42,-252.3 184.22,-245.59 186.45,-255.95 192.42,-252.3"/>
</a>
</g>
</g>
<!-- Node4 -->
<g id="Node000004" class="node">
<title>Node4</title>
<g id="a_Node000004"><a xlink:href="a00191.html" target="_top" xlink:title=" ">
<polygon fill="white" stroke="#666666" points="223.38,-132 106.12,-132 106.12,-112 223.38,-112 223.38,-132"/>
<text text-anchor="middle" x="164.75" y="-118.5" font-family="Helvetica,sans-Serif" font-size="10.00">MiraiCPStringInternal.h</text>
</a>
</g>
</g>
<!-- Node3&#45;&gt;Node4 -->
<g id="edge3_Node000003_Node000004" class="edge">
<title>Node3&#45;&gt;Node4</title>
<g id="a_edge3_Node000003_Node000004"><a xlink:title=" ">
<path fill="none" stroke="#63b8ff" d="M30.21,-223.62C22.98,-210.02 12.61,-184.65 24.75,-168 40.94,-145.8 68.26,-134.31 94.49,-128.45"/>
<polygon fill="#63b8ff" stroke="#63b8ff" points="95,-131.92 104.14,-126.56 93.66,-125.05 95,-131.92"/>
</a>
</g>
</g>
<!-- Node3&#45;&gt;Node8 -->
<g id="edge8_Node000003_Node000008" class="edge">
<title>Node3&#45;&gt;Node8</title>
<g id="a_edge8_Node000003_Node000008"><a xlink:title=" ">
<path fill="none" stroke="#63b8ff" d="M42.54,-223.59C47.74,-216.39 55.08,-206.23 61.44,-197.43"/>
<polygon fill="#63b8ff" stroke="#63b8ff" points="64.13,-199.68 67.15,-189.53 58.46,-195.58 64.13,-199.68"/>
</a>
</g>
</g>
<!-- Node5 -->
<g id="Node000005" class="node">
<title>Node5</title>
<g id="a_Node000005"><a xlink:href="a00041.html" target="_top" xlink:title=" ">
<polygon fill="white" stroke="#666666" points="291.62,-76 199.88,-76 199.88,-56 291.62,-56 291.62,-76"/>
<text text-anchor="middle" x="245.75" y="-62.5" font-family="Helvetica,sans-Serif" font-size="10.00">MiraiCPMacros.h</text>
</a>
</g>
</g>
<!-- Node4&#45;&gt;Node5 -->
<g id="edge4_Node000004_Node000005" class="edge">
<title>Node4&#45;&gt;Node5</title>
<g id="a_edge4_Node000004_Node000005"><a xlink:title=" ">
<path fill="none" stroke="#63b8ff" d="M178.86,-111.59C190.75,-103.67 208.02,-92.16 222.03,-82.82"/>
<polygon fill="#63b8ff" stroke="#63b8ff" points="223.89,-85.78 230.27,-77.32 220.01,-79.95 223.89,-85.78"/>
</a>
</g>
</g>
<!-- Node6 -->
<g id="Node000006" class="node">
<title>Node6</title>
<g id="a_Node000006"><a xlink:title=" ">
<polygon fill="#e0e0e0" stroke="#999999" points="229.88,-20 181.62,-20 181.62,0 229.88,0 229.88,-20"/>
<text text-anchor="middle" x="205.75" y="-6.5" font-family="Helvetica,sans-Serif" font-size="10.00">cassert</text>
</a>
</g>
</g>
<!-- Node4&#45;&gt;Node6 -->
<g id="edge6_Node000004_Node000006" class="edge">
<title>Node4&#45;&gt;Node6</title>
<g id="a_edge6_Node000004_Node000006"><a xlink:title=" ">
<path fill="none" stroke="#63b8ff" d="M168.25,-111.62C174.87,-93.84 189.39,-54.88 198.3,-31"/>
<polygon fill="#63b8ff" stroke="#63b8ff" points="201.52,-32.37 201.73,-21.77 194.96,-29.92 201.52,-32.37"/>
</a>
</g>
</g>
<!-- Node4&#45;&gt;Node7 -->
<g id="edge7_Node000004_Node000007" class="edge">
<title>Node4&#45;&gt;Node7</title>
<g id="a_edge7_Node000004_Node000007"><a xlink:title=" ">
<path fill="none" stroke="#63b8ff" d="M196.1,-111.59C229.08,-101.7 280.66,-86.23 313.57,-76.35"/>
<polygon fill="#63b8ff" stroke="#63b8ff" points="314.35,-79.77 322.93,-73.55 312.34,-73.07 314.35,-79.77"/>
</a>
</g>
</g>
<!-- Node5&#45;&gt;Node6 -->
<g id="edge5_Node000005_Node000006" class="edge">
<title>Node5&#45;&gt;Node6</title>
<g id="a_edge5_Node000005_Node000006"><a xlink:title=" ">
<path fill="none" stroke="#63b8ff" d="M238.78,-55.59C233.45,-48.39 225.92,-38.23 219.4,-29.43"/>
<polygon fill="#63b8ff" stroke="#63b8ff" points="222.3,-27.47 213.54,-21.51 216.68,-31.63 222.3,-27.47"/>
</a>
</g>
</g>
<!-- Node9&#45;&gt;Node5 -->
<g id="edge10_Node000009_Node000005" class="edge">
<title>Node9&#45;&gt;Node5</title>
<g id="a_edge10_Node000009_Node000005"><a xlink:title=" ">
<path fill="none" stroke="#63b8ff" d="M294.81,-223.6C286.58,-197.35 263.24,-122.84 251.98,-86.89"/>
<polygon fill="#63b8ff" stroke="#63b8ff" points="255.44,-86.24 249.11,-77.74 248.76,-88.33 255.44,-86.24"/>
</a>
</g>
</g>
<!-- Node9&#45;&gt;Node8 -->
<g id="edge15_Node000009_Node000008" class="edge">
<title>Node9&#45;&gt;Node8</title>
<g id="a_edge15_Node000009_Node000008"><a xlink:title=" ">
<path fill="none" stroke="#63b8ff" d="M258.65,-223.53C221.43,-214.52 165.24,-200.91 124.77,-191.11"/>
<polygon fill="#63b8ff" stroke="#63b8ff" points="125.82,-187.77 115.27,-188.81 124.17,-194.57 125.82,-187.77"/>
</a>
</g>
</g>
<!-- Node10 -->
<g id="Node000010" class="node">
<title>Node10</title>
<g id="a_Node000010"><a xlink:href="a00044.html" target="_top" xlink:title=" ">
<polygon fill="white" stroke="#666666" points="359.62,-132 279.88,-132 279.88,-112 359.62,-112 359.62,-132"/>
<text text-anchor="middle" x="319.75" y="-118.5" font-family="Helvetica,sans-Serif" font-size="10.00">PluginConfig.h</text>
</a>
</g>
</g>
<!-- Node9&#45;&gt;Node10 -->
<g id="edge11_Node000009_Node000010" class="edge">
<title>Node9&#45;&gt;Node10</title>
<g id="a_edge11_Node000009_Node000010"><a xlink:title=" ">
<path fill="none" stroke="#63b8ff" d="M299.63,-223.62C303.17,-205.92 310.9,-167.24 315.69,-143.32"/>
<polygon fill="#63b8ff" stroke="#63b8ff" points="319.05,-144.33 317.58,-133.84 312.19,-142.96 319.05,-144.33"/>
</a>
</g>
</g>
<!-- Node11 -->
<g id="Node000011" class="node">
<title>Node11</title>
<g id="a_Node000011"><a xlink:href="a00179.html" target="_top" xlink:title=" ">
<polygon fill="white" stroke="#666666" points="231.25,-188 134.25,-188 134.25,-168 231.25,-168 231.25,-188"/>
<text text-anchor="middle" x="182.75" y="-174.5" font-family="Helvetica,sans-Serif" font-size="10.00">loaderApiInternal.h</text>
</a>
</g>
</g>
<!-- Node9&#45;&gt;Node11 -->
<g id="edge13_Node000009_Node000011" class="edge">
<title>Node9&#45;&gt;Node11</title>
<g id="a_edge13_Node000009_Node000011"><a xlink:title=" ">
<path fill="none" stroke="#63b8ff" d="M277.72,-223.59C259.94,-215.24 233.68,-202.92 213.29,-193.34"/>
<polygon fill="#63b8ff" stroke="#63b8ff" points="214.85,-190.21 204.31,-189.12 211.87,-196.54 214.85,-190.21"/>
</a>
</g>
</g>
<!-- Node10&#45;&gt;Node7 -->
<g id="edge12_Node000010_Node000007" class="edge">
<title>Node10&#45;&gt;Node7</title>
<g id="a_edge12_Node000010_Node000007"><a xlink:title=" ">
<path fill="none" stroke="#63b8ff" d="M324.1,-111.59C327.3,-104.7 331.74,-95.1 335.69,-86.57"/>
<polygon fill="#63b8ff" stroke="#63b8ff" points="338.78,-88.22 339.81,-77.67 332.43,-85.28 338.78,-88.22"/>
</a>
</g>
</g>
<!-- Node11&#45;&gt;Node4 -->
<g id="edge14_Node000011_Node000004" class="edge">
<title>Node11&#45;&gt;Node4</title>
<g id="a_edge14_Node000011_Node000004"><a xlink:title=" ">
<path fill="none" stroke="#63b8ff" d="M179.61,-167.59C177.37,-160.86 174.26,-151.53 171.47,-143.15"/>
<polygon fill="#63b8ff" stroke="#63b8ff" points="174.81,-142.11 168.33,-133.73 168.17,-144.33 174.81,-142.11"/>
</a>
</g>
</g>
<!-- Node14&#45;&gt;Node9 -->
<g id="edge24_Node000014_Node000009" class="edge">
<title>Node14&#45;&gt;Node9</title>
<g id="a_edge24_Node000014_Node000009"><a xlink:title=" ">
<path fill="none" stroke="#63b8ff" d="M397.67,-279.59C378.79,-271.17 350.83,-258.69 329.29,-249.07"/>
<polygon fill="#63b8ff" stroke="#63b8ff" points="330.93,-245.98 320.37,-245.1 328.08,-252.37 330.93,-245.98"/>
</a>
</g>
</g>
<!-- Node15 -->
<g id="Node000015" class="node">
<title>Node15</title>
<g id="a_Node000015"><a xlink:href="a00251.html" target="_top" xlink:title=" ">
<polygon fill="white" stroke="#666666" points="460.12,-132 377.38,-132 377.38,-112 460.12,-112 460.12,-132"/>
<text text-anchor="middle" x="418.75" y="-118.5" font-family="Helvetica,sans-Serif" font-size="10.00">LoaderLogger.h</text>
</a>
</g>
</g>
<!-- Node14&#45;&gt;Node15 -->
<g id="edge20_Node000014_Node000015" class="edge">
<title>Node14&#45;&gt;Node15</title>
<g id="a_edge20_Node000014_Node000015"><a xlink:title=" ">
<path fill="none" stroke="#63b8ff" d="M418.75,-279.6C418.75,-253.46 418.75,-179.48 418.75,-143.36"/>
<polygon fill="#63b8ff" stroke="#63b8ff" points="422.25,-143.81 418.75,-133.81 415.25,-143.81 422.25,-143.81"/>
</a>
</g>
</g>
<!-- Node15&#45;&gt;Node5 -->
<g id="edge21_Node000015_Node000005" class="edge">
<title>Node15&#45;&gt;Node5</title>
<g id="a_edge21_Node000015_Node000005"><a xlink:title=" ">
<path fill="none" stroke="#63b8ff" d="M388.62,-111.59C360.51,-102.82 318.34,-89.66 287.09,-79.9"/>
<polygon fill="#63b8ff" stroke="#63b8ff" points="288.15,-76.57 277.56,-76.93 286.07,-83.25 288.15,-76.57"/>
</a>
</g>
</g>
<!-- Node15&#45;&gt;Node7 -->
<g id="edge22_Node000015_Node000007" class="edge">
<title>Node15&#45;&gt;Node7</title>
<g id="a_edge22_Node000015_Node000007"><a xlink:title=" ">
<path fill="none" stroke="#63b8ff" d="M405.86,-111.59C395.04,-103.7 379.34,-92.24 366.56,-82.92"/>
<polygon fill="#63b8ff" stroke="#63b8ff" points="368.86,-80.26 358.71,-77.19 364.73,-85.91 368.86,-80.26"/>
</a>
</g>
</g>
<!-- Node16 -->
<g id="Node000016" class="node">
<title>Node16</title>
<g id="a_Node000016"><a xlink:title=" ">
<polygon fill="#e0e0e0" stroke="#999999" points="440.25,-76 397.25,-76 397.25,-56 440.25,-56 440.25,-76"/>
<text text-anchor="middle" x="418.75" y="-62.5" font-family="Helvetica,sans-Serif" font-size="10.00">vector</text>
</a>
</g>
</g>
<!-- Node15&#45;&gt;Node16 -->
<g id="edge23_Node000015_Node000016" class="edge">
<title>Node15&#45;&gt;Node16</title>
<g id="a_edge23_Node000015_Node000016"><a xlink:title=" ">
<path fill="none" stroke="#63b8ff" d="M418.75,-111.59C418.75,-105.01 418.75,-95.96 418.75,-87.73"/>
<polygon fill="#63b8ff" stroke="#63b8ff" points="422.25,-87.81 418.75,-77.81 415.25,-87.81 422.25,-87.81"/>
</a>
</g>
</g>
</g>
</svg>
