<?xml version="1.0" encoding="UTF-8" standalone="no"?>
<!DOCTYPE svg PUBLIC "-//W3C//DTD SVG 1.1//EN"
 "http://www.w3.org/Graphics/SVG/1.1/DTD/svg11.dtd">
<!-- Generated by graphviz version 9.0.0 (0)
 -->
<!-- Title: IContactData.h Pages: 1 -->
<svg width="328pt" height="140pt"
 viewBox="0.00 0.00 327.88 140.00" xmlns="http://www.w3.org/2000/svg" xmlns:xlink="http://www.w3.org/1999/xlink">
<g id="graph0" class="graph" transform="scale(1 1) rotate(0) translate(4 136)">
<title>IContactData.h</title>
<!-- Node1 -->
<g id="Node000001" class="node">
<title>Node1</title>
<g id="a_Node000001"><a xlink:title=" ">
<polygon fill="#999999" stroke="#666666" points="140.25,-132 57.5,-132 57.5,-112 140.25,-112 140.25,-132"/>
<text text-anchor="middle" x="98.88" y="-118.5" font-family="Helvetica,sans-Serif" font-size="10.00">IContactData.h</text>
</a>
</g>
</g>
<!-- Node2 -->
<g id="Node000002" class="node">
<title>Node2</title>
<g id="a_Node000002"><a xlink:href="a00407.html" target="_top" xlink:title=" ">
<polygon fill="white" stroke="#666666" points="49.75,-76 0,-76 0,-56 49.75,-56 49.75,-76"/>
<text text-anchor="middle" x="24.88" y="-62.5" font-family="Helvetica,sans-Serif" font-size="10.00">Bot.cpp</text>
</a>
</g>
</g>
<!-- Node1&#45;&gt;Node2 -->
<g id="edge1_Node000001_Node000002" class="edge">
<title>Node1&#45;&gt;Node2</title>
<g id="a_edge1_Node000001_Node000002"><a xlink:title=" ">
<path fill="none" stroke="#63b8ff" d="M76.89,-104.95C64.09,-95.61 48.4,-84.16 37.62,-76.3"/>
<polygon fill="#63b8ff" stroke="#63b8ff" points="74.62,-107.63 84.76,-110.7 78.75,-101.98 74.62,-107.63"/>
</a>
</g>
</g>
<!-- Node3 -->
<g id="Node000003" class="node">
<title>Node3</title>
<g id="a_Node000003"><a xlink:href="a00344.html" target="_top" xlink:title=" ">
<polygon fill="white" stroke="#666666" points="129.75,-76 68,-76 68,-56 129.75,-56 129.75,-76"/>
<text text-anchor="middle" x="98.88" y="-62.5" font-family="Helvetica,sans-Serif" font-size="10.00">Friend.cpp</text>
</a>
</g>
</g>
<!-- Node1&#45;&gt;Node3 -->
<g id="edge2_Node000001_Node000003" class="edge">
<title>Node1&#45;&gt;Node3</title>
<g id="a_edge2_Node000001_Node000003"><a xlink:title=" ">
<path fill="none" stroke="#63b8ff" d="M98.88,-100.13C98.88,-91.9 98.88,-82.85 98.88,-76.3"/>
<polygon fill="#63b8ff" stroke="#63b8ff" points="95.38,-100.08 98.88,-110.08 102.38,-100.08 95.38,-100.08"/>
</a>
</g>
</g>
<!-- Node4 -->
<g id="Node000004" class="node">
<title>Node4</title>
<g id="a_Node000004"><a xlink:href="a00329.html" target="_top" xlink:title=" ">
<polygon fill="white" stroke="#666666" points="253.5,-76 148.25,-76 148.25,-56 253.5,-56 253.5,-76"/>
<text text-anchor="middle" x="200.88" y="-62.5" font-family="Helvetica,sans-Serif" font-size="10.00">GroupRelatedData.h</text>
</a>
</g>
</g>
<!-- Node1&#45;&gt;Node4 -->
<g id="edge3_Node000001_Node000004" class="edge">
<title>Node1&#45;&gt;Node4</title>
<g id="a_edge3_Node000001_Node000004"><a xlink:title=" ">
<path fill="none" stroke="#63b8ff" d="M126.8,-106.21C144.72,-96.73 167.44,-84.7 182.97,-76.48"/>
<polygon fill="#63b8ff" stroke="#63b8ff" points="125.18,-103.11 117.98,-110.89 128.46,-109.3 125.18,-103.11"/>
</a>
</g>
</g>
<!-- Node5 -->
<g id="Node000005" class="node">
<title>Node5</title>
<g id="a_Node000005"><a xlink:href="a00380.html" target="_top" xlink:title=" ">
<polygon fill="white" stroke="#666666" points="152.5,-20 83.25,-20 83.25,0 152.5,0 152.5,-20"/>
<text text-anchor="middle" x="117.88" y="-6.5" font-family="Helvetica,sans-Serif" font-size="10.00">Contact.cpp</text>
</a>
</g>
</g>
<!-- Node4&#45;&gt;Node5 -->
<g id="edge4_Node000004_Node000005" class="edge">
<title>Node4&#45;&gt;Node5</title>
<g id="a_edge4_Node000004_Node000005"><a xlink:title=" ">
<path fill="none" stroke="#63b8ff" d="M177.12,-49.54C162.71,-40.17 144.78,-28.51 132.45,-20.48"/>
<polygon fill="#63b8ff" stroke="#63b8ff" points="174.86,-52.25 185.15,-54.77 178.68,-46.38 174.86,-52.25"/>
</a>
</g>
</g>
<!-- Node6 -->
<g id="Node000006" class="node">
<title>Node6</title>
<g id="a_Node000006"><a xlink:href="a01482.html" target="_top" xlink:title=" ">
<polygon fill="white" stroke="#666666" points="231.38,-20 170.38,-20 170.38,0 231.38,0 231.38,-20"/>
<text text-anchor="middle" x="200.88" y="-6.5" font-family="Helvetica,sans-Serif" font-size="10.00">Group.cpp</text>
</a>
</g>
</g>
<!-- Node4&#45;&gt;Node6 -->
<g id="edge5_Node000004_Node000006" class="edge">
<title>Node4&#45;&gt;Node6</title>
<g id="a_edge5_Node000004_Node000006"><a xlink:title=" ">
<path fill="none" stroke="#63b8ff" d="M200.88,-44.13C200.88,-35.9 200.88,-26.85 200.88,-20.3"/>
<polygon fill="#63b8ff" stroke="#63b8ff" points="197.38,-44.08 200.88,-54.08 204.38,-44.08 197.38,-44.08"/>
</a>
</g>
</g>
<!-- Node7 -->
<g id="Node000007" class="node">
<title>Node7</title>
<g id="a_Node000007"><a xlink:href="a01494.html" target="_top" xlink:title=" ">
<polygon fill="white" stroke="#666666" points="319.88,-20 249.88,-20 249.88,0 319.88,0 319.88,-20"/>
<text text-anchor="middle" x="284.88" y="-6.5" font-family="Helvetica,sans-Serif" font-size="10.00">Member.cpp</text>
</a>
</g>
</g>
<!-- Node4&#45;&gt;Node7 -->
<g id="edge6_Node000004_Node000007" class="edge">
<title>Node4&#45;&gt;Node7</title>
<g id="a_edge6_Node000004_Node000007"><a xlink:title=" ">
<path fill="none" stroke="#63b8ff" d="M224.92,-49.54C239.5,-40.17 257.64,-28.51 270.13,-20.48"/>
<polygon fill="#63b8ff" stroke="#63b8ff" points="223.3,-46.42 216.78,-54.78 227.08,-52.31 223.3,-46.42"/>
</a>
</g>
</g>
</g>
</svg>
