<?xml version="1.0" encoding="UTF-8" standalone="no"?>
<!DOCTYPE svg PUBLIC "-//W3C//DTD SVG 1.1//EN"
 "http://www.w3.org/Graphics/SVG/1.1/DTD/svg11.dtd">
<!-- Generated by graphviz version 2.50.0 (20211204.2007)
 -->
<!-- Title: MiraiCP::Redirector::reset Pages: 1 -->
<svg width="583pt" height="145pt"
 viewBox="0.00 0.00 583.00 144.50" xmlns="http://www.w3.org/2000/svg" xmlns:xlink="http://www.w3.org/1999/xlink">
<g id="graph0" class="graph" transform="scale(1 1) rotate(0) translate(4 140.5)">
<title>MiraiCP::Redirector::reset</title>
<polygon fill="white" stroke="transparent" points="-4,4 -4,-140.5 579,-140.5 579,4 -4,4"/>
<!-- Node1 -->
<g id="node1" class="node">
<title>Node1</title>
<g id="a_node1"><a xlink:title="reset all redirecting">
<polygon fill="#bfbfbf" stroke="black" points="474,-49.5 474,-79.5 575,-79.5 575,-49.5 474,-49.5"/>
<text text-anchor="start" x="482" y="-67.5" font-family="Helvetica,sans-Serif" font-size="10.00">MiraiCP::Redirector</text>
<text text-anchor="middle" x="524.5" y="-56.5" font-family="Helvetica,sans-Serif" font-size="10.00">::reset</text>
</a>
</g>
</g>
<!-- Node2 -->
<g id="node2" class="node">
<title>Node2</title>
<g id="a_node2"><a xlink:href="a00299.html#ae240c3745dfa2fe5cd18fc56d89a7d56" target="_top" xlink:title="插件结束(也可能是暂时的disable)">
<polygon fill="white" stroke="black" points="346.5,-99 346.5,-118 414.5,-118 414.5,-99 346.5,-99"/>
<text text-anchor="middle" x="380.5" y="-106" font-family="Helvetica,sans-Serif" font-size="10.00">FUNC_EXIT</text>
</a>
</g>
</g>
<!-- Node1&#45;&gt;Node2 -->
<g id="edge1" class="edge">
<title>Node1&#45;&gt;Node2</title>
<path fill="none" stroke="midnightblue" d="M465.38,-82.51C447.24,-88.13 427.92,-94.11 412.41,-98.92"/>
<polygon fill="midnightblue" stroke="midnightblue" points="466.51,-85.82 475.03,-79.52 464.44,-79.14 466.51,-85.82"/>
</g>
<!-- Node3 -->
<g id="node3" class="node">
<title>Node3</title>
<g id="a_node3"><a xlink:href="a00717.html#a578443155b3d0c2c6cee9bb31b8928b8" target="_top" xlink:title=" ">
<polygon fill="white" stroke="black" points="329.5,-49.5 329.5,-79.5 431.5,-79.5 431.5,-49.5 329.5,-49.5"/>
<text text-anchor="start" x="337.5" y="-67.5" font-family="Helvetica,sans-Serif" font-size="10.00">MiraiCP::internal::</text>
<text text-anchor="middle" x="380.5" y="-56.5" font-family="Helvetica,sans-Serif" font-size="10.00">Message::Message</text>
</a>
</g>
</g>
<!-- Node1&#45;&gt;Node3 -->
<g id="edge3" class="edge">
<title>Node1&#45;&gt;Node3</title>
<path fill="none" stroke="midnightblue" d="M463.79,-64.5C453.16,-64.5 442.19,-64.5 431.86,-64.5"/>
<polygon fill="midnightblue" stroke="midnightblue" points="463.84,-68 473.84,-64.5 463.84,-61 463.84,-68"/>
</g>
<!-- Node4 -->
<g id="node4" class="node">
<title>Node4</title>
<g id="a_node4"><a xlink:href="a00397.html#a6d477440277d3907b96261db3a222d96" target="_top" xlink:title=" ">
<polygon fill="white" stroke="black" points="323,-0.5 323,-30.5 438,-30.5 438,-0.5 323,-0.5"/>
<text text-anchor="start" x="331" y="-18.5" font-family="Helvetica,sans-Serif" font-size="10.00">LibLoader::LoaderMain</text>
<text text-anchor="middle" x="380.5" y="-7.5" font-family="Helvetica,sans-Serif" font-size="10.00">::shutdownLoader</text>
</a>
</g>
</g>
<!-- Node1&#45;&gt;Node4 -->
<g id="edge4" class="edge">
<title>Node1&#45;&gt;Node4</title>
<path fill="none" stroke="midnightblue" d="M470.21,-46.11C455.42,-41.01 439.54,-35.53 425.36,-30.64"/>
<polygon fill="midnightblue" stroke="midnightblue" points="469.14,-49.45 479.74,-49.4 471.43,-42.83 469.14,-49.45"/>
</g>
<!-- Node2&#45;&gt;Node2 -->
<g id="edge2" class="edge">
<title>Node2&#45;&gt;Node2</title>
<path fill="none" stroke="midnightblue" d="M407.38,-127.15C406.26,-132.44 397.3,-136.5 380.5,-136.5 354.91,-136.5 347.51,-127.07 358.31,-118.26"/>
<polygon fill="midnightblue" stroke="midnightblue" points="410.45,-125.47 402.69,-118.26 404.26,-128.74 410.45,-125.47"/>
</g>
<!-- Node5 -->
<g id="node5" class="node">
<title>Node5</title>
<g id="a_node5"><a xlink:href="a00397.html#a79cbc18aabed7afe2c7ea30f989ffc8c" target="_top" xlink:title="LoaderMain实现开始">
<polygon fill="white" stroke="black" points="172,-0.5 172,-30.5 287,-30.5 287,-0.5 172,-0.5"/>
<text text-anchor="start" x="180" y="-18.5" font-family="Helvetica,sans-Serif" font-size="10.00">LibLoader::LoaderMain</text>
<text text-anchor="middle" x="229.5" y="-7.5" font-family="Helvetica,sans-Serif" font-size="10.00">::loaderMain</text>
</a>
</g>
</g>
<!-- Node4&#45;&gt;Node5 -->
<g id="edge5" class="edge">
<title>Node4&#45;&gt;Node5</title>
<path fill="none" stroke="midnightblue" d="M312.49,-15.5C304.01,-15.5 295.4,-15.5 287.1,-15.5"/>
<polygon fill="midnightblue" stroke="midnightblue" points="312.74,-19 322.74,-15.5 312.74,-12 312.74,-19"/>
</g>
<!-- Node6 -->
<g id="node6" class="node">
<title>Node6</title>
<g id="a_node6"><a xlink:href="a00203.html#aafbc26593c69471626589f38c751ef09" target="_top" xlink:title=" ">
<polygon fill="white" stroke="black" points="77,-6 77,-25 136,-25 136,-6 77,-6"/>
<text text-anchor="middle" x="106.5" y="-13" font-family="Helvetica,sans-Serif" font-size="10.00">VerifyImpl</text>
</a>
</g>
</g>
<!-- Node5&#45;&gt;Node6 -->
<g id="edge6" class="edge">
<title>Node5&#45;&gt;Node6</title>
<path fill="none" stroke="midnightblue" d="M161.7,-15.5C152.7,-15.5 143.89,-15.5 136.07,-15.5"/>
<polygon fill="midnightblue" stroke="midnightblue" points="161.9,-19 171.9,-15.5 161.9,-12 161.9,-19"/>
</g>
<!-- Node7 -->
<g id="node7" class="node">
<title>Node7</title>
<g id="a_node7"><a xlink:href="a00203.html#a3712cdeefe60fa2a92efa90cd6200b02" target="_top" xlink:title=" ">
<polygon fill="white" stroke="black" points="0,-6 0,-25 41,-25 41,-6 0,-6"/>
<text text-anchor="middle" x="20.5" y="-13" font-family="Helvetica,sans-Serif" font-size="10.00">Verify</text>
</a>
</g>
</g>
<!-- Node6&#45;&gt;Node7 -->
<g id="edge7" class="edge">
<title>Node6&#45;&gt;Node7</title>
<path fill="none" stroke="midnightblue" d="M66.48,-15.5C57.72,-15.5 48.78,-15.5 41.21,-15.5"/>
<polygon fill="midnightblue" stroke="midnightblue" points="66.59,-19 76.59,-15.5 66.59,-12 66.59,-19"/>
</g>
</g>
</svg>
