<?xml version="1.0" encoding="UTF-8" standalone="no"?>
<!DOCTYPE svg PUBLIC "-//W3C//DTD SVG 1.1//EN"
 "http://www.w3.org/Graphics/SVG/1.1/DTD/svg11.dtd">
<!-- Generated by graphviz version 2.50.0 (20211204.2007)
 -->
<!-- Title: LibLoader::Plugin::loadPlugin Pages: 1 -->
<svg width="1490pt" height="551pt"
 viewBox="0.00 0.00 1490.00 551.00" xmlns="http://www.w3.org/2000/svg" xmlns:xlink="http://www.w3.org/1999/xlink">
<g id="graph0" class="graph" transform="scale(1 1) rotate(0) translate(4 547)">
<title>LibLoader::Plugin::loadPlugin</title>
<polygon fill="white" stroke="transparent" points="-4,4 -4,-547 1486,-547 1486,4 -4,4"/>
<!-- Node1 -->
<g id="node1" class="node">
<title>Node1</title>
<g id="a_node1"><a xlink:title=" ">
<polygon fill="#bfbfbf" stroke="black" points="0,-213.5 0,-243.5 98,-243.5 98,-213.5 0,-213.5"/>
<text text-anchor="start" x="8" y="-231.5" font-family="Helvetica,sans-Serif" font-size="10.00">LibLoader::Plugin::</text>
<text text-anchor="middle" x="49" y="-220.5" font-family="Helvetica,sans-Serif" font-size="10.00">loadPlugin</text>
</a>
</g>
</g>
<!-- Node2 -->
<g id="node2" class="node">
<title>Node2</title>
<g id="a_node2"><a xlink:href="a00389.html#a8636d0418d741a19bbd9183316cd5c59" target="_top" xlink:title=" ">
<polygon fill="white" stroke="black" points="134,-213.5 134,-243.5 232,-243.5 232,-213.5 134,-213.5"/>
<text text-anchor="start" x="142" y="-231.5" font-family="Helvetica,sans-Serif" font-size="10.00">LibLoader::Plugin::</text>
<text text-anchor="middle" x="183" y="-220.5" font-family="Helvetica,sans-Serif" font-size="10.00">loadInternal</text>
</a>
</g>
</g>
<!-- Node1&#45;&gt;Node2 -->
<g id="edge1" class="edge">
<title>Node1&#45;&gt;Node2</title>
<path fill="none" stroke="midnightblue" d="M98.03,-228.5C106.31,-228.5 115,-228.5 123.52,-228.5"/>
<polygon fill="midnightblue" stroke="midnightblue" points="123.79,-232 133.79,-228.5 123.79,-225 123.79,-232"/>
</g>
<!-- Node3 -->
<g id="node3" class="node">
<title>Node3</title>
<g id="a_node3"><a xlink:href="a00397.html#af4e8baa9d706f75b1bf21d95069d3f42" target="_top" xlink:title=" ">
<polygon fill="white" stroke="black" points="268,-389.5 268,-419.5 380,-419.5 380,-389.5 268,-389.5"/>
<text text-anchor="start" x="276" y="-407.5" font-family="Helvetica,sans-Serif" font-size="10.00">LibLoader::PluginData</text>
<text text-anchor="middle" x="324" y="-396.5" font-family="Helvetica,sans-Serif" font-size="10.00">::_disable</text>
</a>
</g>
</g>
<!-- Node2&#45;&gt;Node3 -->
<g id="edge2" class="edge">
<title>Node2&#45;&gt;Node3</title>
<path fill="none" stroke="midnightblue" d="M189.42,-243.51C200.39,-272.1 227.64,-335.05 268,-374.5 271.51,-377.93 275.49,-381.08 279.67,-383.95"/>
<polygon fill="midnightblue" stroke="midnightblue" points="278.1,-387.1 288.43,-389.43 281.81,-381.16 278.1,-387.1"/>
</g>
<!-- Node4 -->
<g id="node4" class="node">
<title>Node4</title>
<g id="a_node4"><a xlink:href="a00397.html#a0c7449a3e94c1e4659337e62fc513fd8" target="_top" xlink:title=" ">
<polygon fill="white" stroke="black" points="433,-512.5 433,-542.5 545,-542.5 545,-512.5 433,-512.5"/>
<text text-anchor="start" x="441" y="-530.5" font-family="Helvetica,sans-Serif" font-size="10.00">LibLoader::PluginData</text>
<text text-anchor="middle" x="489" y="-519.5" font-family="Helvetica,sans-Serif" font-size="10.00">::_getId</text>
</a>
</g>
</g>
<!-- Node2&#45;&gt;Node4 -->
<g id="edge3" class="edge">
<title>Node2&#45;&gt;Node4</title>
<path fill="none" stroke="midnightblue" d="M191.39,-243.58C203.91,-267.64 231.55,-314.74 268,-341.5 310.49,-372.69 343.68,-342.3 380,-380.5 419.25,-421.78 376.48,-462.48 416,-503.5 418.45,-506.04 421.18,-508.32 424.1,-510.35"/>
<polygon fill="midnightblue" stroke="midnightblue" points="422.37,-513.4 432.76,-515.47 425.93,-507.37 422.37,-513.4"/>
</g>
<!-- Node5 -->
<g id="node5" class="node">
<title>Node5</title>
<g id="a_node5"><a xlink:href="a00397.html#af60692dd94aac398ccf9ddf27c304298" target="_top" xlink:title=" ">
<polygon fill="white" stroke="black" points="268,-142.5 268,-172.5 380,-172.5 380,-142.5 268,-142.5"/>
<text text-anchor="start" x="276" y="-160.5" font-family="Helvetica,sans-Serif" font-size="10.00">LibLoader::PluginData</text>
<text text-anchor="middle" x="324" y="-149.5" font-family="Helvetica,sans-Serif" font-size="10.00">::_load</text>
</a>
</g>
</g>
<!-- Node2&#45;&gt;Node5 -->
<g id="edge4" class="edge">
<title>Node2&#45;&gt;Node5</title>
<path fill="none" stroke="midnightblue" d="M209.38,-213.44C225.87,-203.87 247.94,-191.46 268,-181.5 271.13,-179.95 274.38,-178.39 277.67,-176.86"/>
<polygon fill="midnightblue" stroke="midnightblue" points="279.32,-179.95 286.97,-172.62 276.42,-173.58 279.32,-179.95"/>
</g>
<!-- Node6 -->
<g id="node6" class="node">
<title>Node6</title>
<g id="a_node6"><a xlink:href="a00389.html#a450c1c6820ab6c5417691359d88d8220" target="_top" xlink:title=" ">
<polygon fill="white" stroke="black" points="275,-301.5 275,-331.5 373,-331.5 373,-301.5 275,-301.5"/>
<text text-anchor="start" x="283" y="-319.5" font-family="Helvetica,sans-Serif" font-size="10.00">LibLoader::Plugin::</text>
<text text-anchor="middle" x="324" y="-308.5" font-family="Helvetica,sans-Serif" font-size="10.00">enableInternal</text>
</a>
</g>
</g>
<!-- Node2&#45;&gt;Node6 -->
<g id="edge5" class="edge">
<title>Node2&#45;&gt;Node6</title>
<path fill="none" stroke="midnightblue" d="M207.89,-243.63C230.67,-258.05 265.14,-279.87 290.43,-295.88"/>
<polygon fill="midnightblue" stroke="midnightblue" points="288.63,-298.88 298.95,-301.28 292.37,-292.97 288.63,-298.88"/>
</g>
<!-- Node10 -->
<g id="node10" class="node">
<title>Node10</title>
<g id="a_node10"><a xlink:href="a00381.html#ae735f16b20f681d29d4e5d28ad248dbe" target="_top" xlink:title=" ">
<polygon fill="white" stroke="black" points="427.5,-189.5 427.5,-219.5 550.5,-219.5 550.5,-189.5 427.5,-189.5"/>
<text text-anchor="start" x="435.5" y="-207.5" font-family="Helvetica,sans-Serif" font-size="10.00">LibLoader::LoaderLogger</text>
<text text-anchor="middle" x="489" y="-196.5" font-family="Helvetica,sans-Serif" font-size="10.00">::error</text>
</a>
</g>
</g>
<!-- Node2&#45;&gt;Node10 -->
<g id="edge25" class="edge">
<title>Node2&#45;&gt;Node10</title>
<path fill="none" stroke="midnightblue" d="M232.41,-229.85C244.07,-230.12 256.48,-230.36 268,-230.5 317.77,-231.09 330.57,-236.37 380,-230.5 395.32,-228.68 411.61,-225.46 426.76,-221.89"/>
<polygon fill="midnightblue" stroke="midnightblue" points="427.65,-225.28 436.54,-219.51 425.99,-218.48 427.65,-225.28"/>
</g>
<!-- Node21 -->
<g id="node21" class="node">
<title>Node21</title>
<g id="a_node21"><a xlink:href="a00306.html#a56d03468b20e6187b1af71750a9f815d" target="_top" xlink:title=" ">
<polygon fill="white" stroke="black" points="270,-93.5 270,-123.5 378,-123.5 378,-93.5 270,-93.5"/>
<text text-anchor="start" x="278" y="-111.5" font-family="Helvetica,sans-Serif" font-size="10.00">LibLoader::LoaderApi</text>
<text text-anchor="middle" x="324" y="-100.5" font-family="Helvetica,sans-Serif" font-size="10.00">::libError</text>
</a>
</g>
</g>
<!-- Node2&#45;&gt;Node21 -->
<g id="edge26" class="edge">
<title>Node2&#45;&gt;Node21</title>
<path fill="none" stroke="midnightblue" d="M194.02,-213.33C208.32,-192.68 236.37,-155.65 268,-132.5 269.84,-131.15 271.78,-129.86 273.77,-128.62"/>
<polygon fill="midnightblue" stroke="midnightblue" points="275.79,-131.5 282.79,-123.54 272.36,-125.39 275.79,-131.5"/>
</g>
<!-- Node22 -->
<g id="node22" class="node">
<title>Node22</title>
<g id="a_node22"><a xlink:href="a00389.html#a7062e1d55334d7692b5461049aff475c" target="_top" xlink:title=" ">
<polygon fill="white" stroke="black" points="275,-191.5 275,-221.5 373,-221.5 373,-191.5 275,-191.5"/>
<text text-anchor="start" x="283" y="-209.5" font-family="Helvetica,sans-Serif" font-size="10.00">LibLoader::Plugin::</text>
<text text-anchor="middle" x="324" y="-198.5" font-family="Helvetica,sans-Serif" font-size="10.00">loadNewPlugin</text>
</a>
</g>
</g>
<!-- Node2&#45;&gt;Node22 -->
<g id="edge27" class="edge">
<title>Node2&#45;&gt;Node22</title>
<path fill="none" stroke="midnightblue" d="M232.23,-220.87C242.68,-219.21 253.85,-217.44 264.65,-215.73"/>
<polygon fill="midnightblue" stroke="midnightblue" points="265.53,-219.14 274.86,-214.12 264.44,-212.23 265.53,-219.14"/>
</g>
<!-- Node24 -->
<g id="node24" class="node">
<title>Node24</title>
<g id="a_node24"><a xlink:href="a00389.html#a331c05a9c7aeaee822c53df717efb60d" target="_top" xlink:title=" ">
<polygon fill="white" stroke="black" points="269,-44.5 269,-74.5 379,-74.5 379,-44.5 269,-44.5"/>
<text text-anchor="start" x="277" y="-62.5" font-family="Helvetica,sans-Serif" font-size="10.00">LibLoader::Plugin::</text>
<text text-anchor="middle" x="324" y="-51.5" font-family="Helvetica,sans-Serif" font-size="10.00">testSymbolExistance</text>
</a>
</g>
</g>
<!-- Node2&#45;&gt;Node24 -->
<g id="edge30" class="edge">
<title>Node2&#45;&gt;Node24</title>
<path fill="none" stroke="midnightblue" d="M189.15,-213.27C199.64,-184.31 226.11,-120.89 268,-83.5 269.31,-82.33 270.68,-81.21 272.11,-80.14"/>
<polygon fill="midnightblue" stroke="midnightblue" points="274.27,-82.92 280.74,-74.53 270.45,-77.05 274.27,-82.92"/>
</g>
<!-- Node6&#45;&gt;Node4 -->
<g id="edge7" class="edge">
<title>Node6&#45;&gt;Node4</title>
<path fill="none" stroke="midnightblue" d="M362.91,-331.56C369.38,-335.58 375.47,-340.52 380,-346.5 423.23,-403.56 367.88,-450.5 416,-503.5 418.42,-506.17 421.14,-508.54 424.08,-510.64"/>
<polygon fill="midnightblue" stroke="midnightblue" points="422.46,-513.75 432.84,-515.91 426.07,-507.76 422.46,-513.75"/>
</g>
<!-- Node7 -->
<g id="node7" class="node">
<title>Node7</title>
<g id="a_node7"><a xlink:href="a00397.html#a07ae911aa0c0f4dae33405e0a8400642" target="_top" xlink:title=" ">
<polygon fill="white" stroke="black" points="433,-463.5 433,-493.5 545,-493.5 545,-463.5 433,-463.5"/>
<text text-anchor="start" x="441" y="-481.5" font-family="Helvetica,sans-Serif" font-size="10.00">LibLoader::PluginData</text>
<text text-anchor="middle" x="489" y="-470.5" font-family="Helvetica,sans-Serif" font-size="10.00">::_enable</text>
</a>
</g>
</g>
<!-- Node6&#45;&gt;Node7 -->
<g id="edge6" class="edge">
<title>Node6&#45;&gt;Node7</title>
<path fill="none" stroke="midnightblue" d="M361.89,-331.58C368.61,-335.63 375.05,-340.58 380,-346.5 412.46,-385.31 380.22,-418.72 416,-454.5 418.5,-457 421.26,-459.24 424.21,-461.24"/>
<polygon fill="midnightblue" stroke="midnightblue" points="422.53,-464.31 432.93,-466.3 426.04,-458.26 422.53,-464.31"/>
</g>
<!-- Node8 -->
<g id="node8" class="node">
<title>Node8</title>
<g id="a_node8"><a xlink:href="a00389.html#a11196964f462f60959081e18ba44921c" target="_top" xlink:title=" ">
<polygon fill="white" stroke="black" points="429,-414.5 429,-444.5 549,-444.5 549,-414.5 429,-414.5"/>
<text text-anchor="start" x="437" y="-432.5" font-family="Helvetica,sans-Serif" font-size="10.00">LibLoader::Plugin::</text>
<text text-anchor="middle" x="489" y="-421.5" font-family="Helvetica,sans-Serif" font-size="10.00">callEntranceFuncAdmin</text>
</a>
</g>
</g>
<!-- Node6&#45;&gt;Node8 -->
<g id="edge8" class="edge">
<title>Node6&#45;&gt;Node8</title>
<path fill="none" stroke="midnightblue" d="M359.17,-331.52C366.54,-335.71 373.94,-340.72 380,-346.5 402.24,-367.69 391.97,-386.37 416,-405.5 417.76,-406.9 419.6,-408.22 421.51,-409.46"/>
<polygon fill="midnightblue" stroke="midnightblue" points="419.83,-412.54 430.25,-414.45 423.3,-406.46 419.83,-412.54"/>
</g>
<!-- Node9 -->
<g id="node9" class="node">
<title>Node9</title>
<g id="a_node9"><a xlink:href="a00389.html#aaf10a5d83ab51a4f5e71305173d49541" target="_top" xlink:title=" ">
<polygon fill="white" stroke="black" points="427.5,-365.5 427.5,-395.5 550.5,-395.5 550.5,-365.5 427.5,-365.5"/>
<text text-anchor="start" x="435.5" y="-383.5" font-family="Helvetica,sans-Serif" font-size="10.00">LibLoader::Plugin::</text>
<text text-anchor="middle" x="489" y="-372.5" font-family="Helvetica,sans-Serif" font-size="10.00">callEntranceFuncNormal</text>
</a>
</g>
</g>
<!-- Node6&#45;&gt;Node9 -->
<g id="edge9" class="edge">
<title>Node6&#45;&gt;Node9</title>
<path fill="none" stroke="midnightblue" d="M363.22,-331.51C386.23,-340.54 415.72,-352.12 440.26,-361.75"/>
<polygon fill="midnightblue" stroke="midnightblue" points="439.15,-365.08 449.74,-365.48 441.71,-358.57 439.15,-365.08"/>
</g>
<!-- Node6&#45;&gt;Node10 -->
<g id="edge10" class="edge">
<title>Node6&#45;&gt;Node10</title>
<path fill="none" stroke="midnightblue" d="M341.37,-301.2C365.28,-278.94 407.82,-239.67 416,-234.5 422.14,-230.62 428.86,-227.05 435.66,-223.82"/>
<polygon fill="midnightblue" stroke="midnightblue" points="437.24,-226.95 444.93,-219.65 434.37,-220.57 437.24,-226.95"/>
</g>
<!-- Node17 -->
<g id="node17" class="node">
<title>Node17</title>
<g id="a_node17"><a xlink:href="a00381.html#af50d0545fe7d683e54fcd03453a423e3" target="_top" xlink:title=" ">
<polygon fill="white" stroke="black" points="960,-195.5 960,-225.5 1083,-225.5 1083,-195.5 960,-195.5"/>
<text text-anchor="start" x="968" y="-213.5" font-family="Helvetica,sans-Serif" font-size="10.00">LibLoader::LoaderLogger</text>
<text text-anchor="middle" x="1021.5" y="-202.5" font-family="Helvetica,sans-Serif" font-size="10.00">::warning</text>
</a>
</g>
</g>
<!-- Node6&#45;&gt;Node17 -->
<g id="edge24" class="edge">
<title>Node6&#45;&gt;Node17</title>
<path fill="none" stroke="midnightblue" d="M347.08,-301.34C364.85,-289.96 390.93,-275.09 416,-267.5 514.18,-237.78 812.48,-220.3 949.86,-213.63"/>
<polygon fill="midnightblue" stroke="midnightblue" points="950.05,-217.13 959.87,-213.15 949.71,-210.14 950.05,-217.13"/>
</g>
<!-- Node18 -->
<g id="node18" class="node">
<title>Node18</title>
<g id="a_node18"><a xlink:href="a00401.html#a514f9ddd7ffcea8a5166b23e21207939" target="_top" xlink:title=" ">
<polygon fill="white" stroke="black" points="598,-299.5 598,-329.5 743,-329.5 743,-299.5 598,-299.5"/>
<text text-anchor="start" x="606" y="-317.5" font-family="Helvetica,sans-Serif" font-size="10.00">LibLoader::PluginListManager</text>
<text text-anchor="middle" x="670.5" y="-306.5" font-family="Helvetica,sans-Serif" font-size="10.00">::setThreadRunningPluginId</text>
</a>
</g>
</g>
<!-- Node6&#45;&gt;Node18 -->
<g id="edge20" class="edge">
<title>Node6&#45;&gt;Node18</title>
<path fill="none" stroke="midnightblue" d="M373.17,-317.13C387,-317.28 402.1,-317.42 416,-317.5 480.89,-317.86 497.12,-318.41 562,-317.5 570.32,-317.38 579,-317.22 587.66,-317.02"/>
<polygon fill="midnightblue" stroke="midnightblue" points="587.89,-320.52 597.8,-316.78 587.72,-313.52 587.89,-320.52"/>
</g>
<!-- Node20 -->
<g id="node20" class="node">
<title>Node20</title>
<g id="a_node20"><a xlink:href="a00401.html#a899e8d987ae7fb84107024415e5bcda3" target="_top" xlink:title=" ">
<polygon fill="white" stroke="black" points="416,-277.5 416,-307.5 562,-307.5 562,-277.5 416,-277.5"/>
<text text-anchor="start" x="424" y="-295.5" font-family="Helvetica,sans-Serif" font-size="10.00">LibLoader::PluginListManager</text>
<text text-anchor="middle" x="489" y="-284.5" font-family="Helvetica,sans-Serif" font-size="10.00">::unsetThreadRunningPluginId</text>
</a>
</g>
</g>
<!-- Node6&#45;&gt;Node20 -->
<g id="edge22" class="edge">
<title>Node6&#45;&gt;Node20</title>
<path fill="none" stroke="midnightblue" d="M373.02,-309.43C383.31,-307.92 394.45,-306.27 405.61,-304.63"/>
<polygon fill="midnightblue" stroke="midnightblue" points="406.46,-308.04 415.85,-303.12 405.44,-301.12 406.46,-308.04"/>
</g>
<!-- Node11 -->
<g id="node11" class="node">
<title>Node11</title>
<g id="a_node11"><a xlink:href="a00381.html#af4d7d5164450e25f7401d1cc15f15b8d" target="_top" xlink:title="实际暴露的接口">
<polygon fill="white" stroke="black" points="609,-173.5 609,-203.5 732,-203.5 732,-173.5 609,-173.5"/>
<text text-anchor="start" x="617" y="-191.5" font-family="Helvetica,sans-Serif" font-size="10.00">LibLoader::LoaderLogger</text>
<text text-anchor="middle" x="670.5" y="-180.5" font-family="Helvetica,sans-Serif" font-size="10.00">::call_logger</text>
</a>
</g>
</g>
<!-- Node10&#45;&gt;Node11 -->
<g id="edge11" class="edge">
<title>Node10&#45;&gt;Node11</title>
<path fill="none" stroke="midnightblue" d="M550.77,-199.08C566.12,-197.71 582.74,-196.23 598.55,-194.82"/>
<polygon fill="midnightblue" stroke="midnightblue" points="599.14,-198.29 608.79,-193.91 598.52,-191.31 599.14,-198.29"/>
</g>
<!-- Node12 -->
<g id="node12" class="node">
<title>Node12</title>
<g id="a_node12"><a xlink:href="a00309.html#a076c5f4ff8083c7cfc6523498d0ba30f" target="_top" xlink:title=" ">
<polygon fill="white" stroke="black" points="972,-133.5 972,-163.5 1071,-163.5 1071,-133.5 972,-133.5"/>
<text text-anchor="start" x="980" y="-151.5" font-family="Helvetica,sans-Serif" font-size="10.00">LibLoader::JNIEnvs</text>
<text text-anchor="middle" x="1021.5" y="-140.5" font-family="Helvetica,sans-Serif" font-size="10.00">::getEnv</text>
</a>
</g>
</g>
<!-- Node11&#45;&gt;Node12 -->
<g id="edge12" class="edge">
<title>Node11&#45;&gt;Node12</title>
<path fill="none" stroke="midnightblue" d="M708.63,-173.42C729.03,-165.9 755,-157.56 779,-153.5 840.76,-143.04 912.67,-143.09 961.86,-144.94"/>
<polygon fill="midnightblue" stroke="midnightblue" points="961.86,-148.44 972,-145.36 962.15,-141.45 961.86,-148.44"/>
</g>
<!-- Node16 -->
<g id="node16" class="node">
<title>Node16</title>
<g id="a_node16"><a xlink:href="a00304.html#a6a6fcd695791253a9b3a053d313b2b93" target="_top" xlink:title=" ">
<polygon fill="white" stroke="black" points="798,-163 798,-182 905,-182 905,-163 798,-163"/>
<text text-anchor="middle" x="851.5" y="-170" font-family="Helvetica,sans-Serif" font-size="10.00">LibLoader::str2jstring</text>
</a>
</g>
</g>
<!-- Node11&#45;&gt;Node16 -->
<g id="edge16" class="edge">
<title>Node11&#45;&gt;Node16</title>
<path fill="none" stroke="midnightblue" d="M732.1,-183.08C749.99,-181.48 769.6,-179.73 787.63,-178.12"/>
<polygon fill="midnightblue" stroke="midnightblue" points="788.1,-181.59 797.75,-177.22 787.48,-174.62 788.1,-181.59"/>
</g>
<!-- Node13 -->
<g id="node13" class="node">
<title>Node13</title>
<g id="a_node13"><a xlink:href="a00349.html#aea7d58ff9f04d6d4849c25a2506603a5" target="_top" xlink:title="取env,如果不存在重新获取">
<polygon fill="white" stroke="black" points="1119,-139 1119,-158 1238,-158 1238,-139 1119,-139"/>
<text text-anchor="middle" x="1178.5" y="-146" font-family="Helvetica,sans-Serif" font-size="10.00">JNIEnvManager::getEnv</text>
</a>
</g>
</g>
<!-- Node12&#45;&gt;Node13 -->
<g id="edge13" class="edge">
<title>Node12&#45;&gt;Node13</title>
<path fill="none" stroke="midnightblue" d="M1071.12,-148.5C1083.1,-148.5 1096.15,-148.5 1108.88,-148.5"/>
<polygon fill="midnightblue" stroke="midnightblue" points="1108.99,-152 1118.99,-148.5 1108.99,-145 1108.99,-152"/>
</g>
<!-- Node14 -->
<g id="node14" class="node">
<title>Node14</title>
<g id="a_node14"><a xlink:href="a00197.html#a3d31403b7971274d47d308245206bd24" target="_top" xlink:title="为当前线程创建一个env.">
<polygon fill="white" stroke="black" points="1274,-139 1274,-158 1324,-158 1324,-139 1274,-139"/>
<text text-anchor="middle" x="1299" y="-146" font-family="Helvetica,sans-Serif" font-size="10.00">newEnv</text>
</a>
</g>
</g>
<!-- Node13&#45;&gt;Node14 -->
<g id="edge14" class="edge">
<title>Node13&#45;&gt;Node14</title>
<path fill="none" stroke="midnightblue" d="M1238.06,-148.5C1246.89,-148.5 1255.75,-148.5 1263.85,-148.5"/>
<polygon fill="midnightblue" stroke="midnightblue" points="1263.98,-152 1273.98,-148.5 1263.98,-145 1263.98,-152"/>
</g>
<!-- Node15 -->
<g id="node15" class="node">
<title>Node15</title>
<g id="a_node15"><a xlink:href="a00349.html#ae0e482c6a813848a8f5d34957d1b6307" target="_top" xlink:title="获取全局JavaVM对象.">
<polygon fill="white" stroke="black" points="1360,-139 1360,-158 1482,-158 1482,-139 1360,-139"/>
<text text-anchor="middle" x="1421" y="-146" font-family="Helvetica,sans-Serif" font-size="10.00">JNIEnvManager::getGvm</text>
</a>
</g>
</g>
<!-- Node14&#45;&gt;Node15 -->
<g id="edge15" class="edge">
<title>Node14&#45;&gt;Node15</title>
<path fill="none" stroke="midnightblue" d="M1324.28,-148.5C1331.75,-148.5 1340.37,-148.5 1349.32,-148.5"/>
<polygon fill="midnightblue" stroke="midnightblue" points="1349.52,-152 1359.52,-148.5 1349.52,-145 1349.52,-152"/>
</g>
<!-- Node16&#45;&gt;Node12 -->
<g id="edge17" class="edge">
<title>Node16&#45;&gt;Node12</title>
<path fill="none" stroke="midnightblue" d="M905.2,-164.97C923.22,-162.4 943.49,-159.5 961.95,-156.86"/>
<polygon fill="midnightblue" stroke="midnightblue" points="962.59,-160.31 971.99,-155.43 961.6,-153.38 962.59,-160.31"/>
</g>
<!-- Node16&#45;&gt;Node17 -->
<g id="edge18" class="edge">
<title>Node16&#45;&gt;Node17</title>
<path fill="none" stroke="midnightblue" d="M894.89,-182.09C911.54,-185.85 931.1,-190.28 949.76,-194.5"/>
<polygon fill="midnightblue" stroke="midnightblue" points="949.19,-197.96 959.71,-196.75 950.73,-191.13 949.19,-197.96"/>
</g>
<!-- Node17&#45;&gt;Node11 -->
<g id="edge19" class="edge">
<title>Node17&#45;&gt;Node11</title>
<path fill="none" stroke="midnightblue" d="M959.82,-206.67C899.24,-202.86 806.2,-196.99 742.29,-192.96"/>
<polygon fill="midnightblue" stroke="midnightblue" points="742.49,-189.47 732.29,-192.33 742.05,-196.45 742.49,-189.47"/>
</g>
<!-- Node19 -->
<g id="node19" class="node">
<title>Node19</title>
<g id="a_node19"><a xlink:href="a00401.html#a412429fcc7161bafeb4650c98f582ec2" target="_top" xlink:title=" ">
<polygon fill="white" stroke="black" points="779,-299.5 779,-329.5 924,-329.5 924,-299.5 779,-299.5"/>
<text text-anchor="start" x="787" y="-317.5" font-family="Helvetica,sans-Serif" font-size="10.00">LibLoader::PluginListManager</text>
<text text-anchor="middle" x="851.5" y="-306.5" font-family="Helvetica,sans-Serif" font-size="10.00">::threadRunningPluginId</text>
</a>
</g>
</g>
<!-- Node18&#45;&gt;Node19 -->
<g id="edge21" class="edge">
<title>Node18&#45;&gt;Node19</title>
<path fill="none" stroke="midnightblue" d="M743.02,-314.5C751.49,-314.5 760.18,-314.5 768.78,-314.5"/>
<polygon fill="midnightblue" stroke="midnightblue" points="768.8,-318 778.8,-314.5 768.8,-311 768.8,-318"/>
</g>
<!-- Node20&#45;&gt;Node18 -->
<g id="edge23" class="edge">
<title>Node20&#45;&gt;Node18</title>
<path fill="none" stroke="midnightblue" d="M562.23,-301.35C570.71,-302.39 579.4,-303.46 587.98,-304.51"/>
<polygon fill="midnightblue" stroke="midnightblue" points="587.65,-307.99 598,-305.74 588.5,-301.05 587.65,-307.99"/>
</g>
<!-- Node22&#45;&gt;Node10 -->
<g id="edge28" class="edge">
<title>Node22&#45;&gt;Node10</title>
<path fill="none" stroke="midnightblue" d="M373.02,-205.91C386.83,-205.74 402.2,-205.55 417.08,-205.37"/>
<polygon fill="midnightblue" stroke="midnightblue" points="417.33,-208.87 427.28,-205.24 417.24,-201.87 417.33,-208.87"/>
</g>
<!-- Node23 -->
<g id="node23" class="node">
<title>Node23</title>
<g id="a_node23"><a xlink:href="a00306.html#a7765f4c313a98cf08466f0a6ed291aac" target="_top" xlink:title=" ">
<polygon fill="white" stroke="black" points="435,-140.5 435,-170.5 543,-170.5 543,-140.5 435,-140.5"/>
<text text-anchor="start" x="443" y="-158.5" font-family="Helvetica,sans-Serif" font-size="10.00">LibLoader::LoaderApi</text>
<text text-anchor="middle" x="489" y="-147.5" font-family="Helvetica,sans-Serif" font-size="10.00">::libOpen</text>
</a>
</g>
</g>
<!-- Node22&#45;&gt;Node23 -->
<g id="edge29" class="edge">
<title>Node22&#45;&gt;Node23</title>
<path fill="none" stroke="midnightblue" d="M373.02,-191.47C391.02,-185.84 411.64,-179.39 430.42,-173.52"/>
<polygon fill="midnightblue" stroke="midnightblue" points="431.54,-176.83 440.04,-170.51 429.45,-170.15 431.54,-176.83"/>
</g>
<!-- Node25 -->
<g id="node25" class="node">
<title>Node25</title>
<g id="a_node25"><a xlink:href="a00304.html#aa09e6340966a9de13ad8ce1e88175fa6" target="_top" xlink:title=" ">
<polygon fill="white" stroke="black" points="422.5,-88.5 422.5,-118.5 555.5,-118.5 555.5,-88.5 422.5,-88.5"/>
<text text-anchor="start" x="430.5" y="-106.5" font-family="Helvetica,sans-Serif" font-size="10.00">LibLoader::checkPluginInfo</text>
<text text-anchor="middle" x="489" y="-95.5" font-family="Helvetica,sans-Serif" font-size="10.00">Valid</text>
</a>
</g>
</g>
<!-- Node24&#45;&gt;Node25 -->
<g id="edge31" class="edge">
<title>Node24&#45;&gt;Node25</title>
<path fill="none" stroke="midnightblue" d="M379.28,-74.15C393.12,-77.89 408.15,-81.95 422.49,-85.82"/>
<polygon fill="midnightblue" stroke="midnightblue" points="421.72,-89.23 432.29,-88.46 423.55,-82.48 421.72,-89.23"/>
</g>
<!-- Node26 -->
<g id="node26" class="node">
<title>Node26</title>
<g id="a_node26"><a xlink:href="a00071.html#a73d4a4e502a17765df566b528d6a9484" target="_top" xlink:title=" ">
<polygon fill="white" stroke="black" points="468.5,-50 468.5,-69 509.5,-69 509.5,-50 468.5,-50"/>
<text text-anchor="middle" x="489" y="-57" font-family="Helvetica,sans-Serif" font-size="10.00">Event</text>
</a>
</g>
</g>
<!-- Node24&#45;&gt;Node26 -->
<g id="edge32" class="edge">
<title>Node24&#45;&gt;Node26</title>
<path fill="none" stroke="midnightblue" d="M379.28,-59.5C405.54,-59.5 436.07,-59.5 458.07,-59.5"/>
<polygon fill="midnightblue" stroke="midnightblue" points="458.14,-63 468.14,-59.5 458.14,-56 458.14,-63"/>
</g>
<!-- Node27 -->
<g id="node27" class="node">
<title>Node27</title>
<g id="a_node27"><a xlink:href="a00306.html#a96701ab7dcebb86755310b5c9c434842" target="_top" xlink:title=" ">
<polygon fill="white" stroke="black" points="435,-0.5 435,-30.5 543,-30.5 543,-0.5 435,-0.5"/>
<text text-anchor="start" x="443" y="-18.5" font-family="Helvetica,sans-Serif" font-size="10.00">LibLoader::LoaderApi</text>
<text text-anchor="middle" x="489" y="-7.5" font-family="Helvetica,sans-Serif" font-size="10.00">::libSymbolLookup</text>
</a>
</g>
</g>
<!-- Node24&#45;&gt;Node27 -->
<g id="edge33" class="edge">
<title>Node24&#45;&gt;Node27</title>
<path fill="none" stroke="midnightblue" d="M379.28,-44.85C393.94,-40.89 409.93,-36.57 425.02,-32.5"/>
<polygon fill="midnightblue" stroke="midnightblue" points="426.05,-35.85 434.79,-29.86 424.22,-29.09 426.05,-35.85"/>
</g>
</g>
</svg>
