<?xml version="1.0" encoding="UTF-8" standalone="no"?>
<!DOCTYPE svg PUBLIC "-//W3C//DTD SVG 1.1//EN"
 "http://www.w3.org/Graphics/SVG/1.1/DTD/svg11.dtd">
<!-- Generated by graphviz version 2.50.0 (20211204.2007)
 -->
<!-- Title: MiraiCP::newFriendRequestInternal Pages: 1 -->
<svg width="1622pt" height="254pt"
 viewBox="0.00 0.00 1622.00 253.98" xmlns="http://www.w3.org/2000/svg" xmlns:xlink="http://www.w3.org/1999/xlink">
<g id="graph0" class="graph" transform="scale(1 1) rotate(0) translate(4 249.98)">
<title>MiraiCP::newFriendRequestInternal</title>
<polygon fill="white" stroke="transparent" points="-4,4 -4,-249.98 1618,-249.98 1618,4 -4,4"/>
<!-- Node1 -->
<g id="node1" class="node">
<title>Node1</title>
<g id="a_node1"><a xlink:title=" ">
<polygon fill="#bfbfbf" stroke="black" points="0,-141.48 0,-171.48 137,-171.48 137,-141.48 0,-141.48"/>
<text text-anchor="start" x="8" y="-159.48" font-family="Helvetica,sans-Serif" font-size="10.00">MiraiCP::newFriendRequest</text>
<text text-anchor="middle" x="68.5" y="-148.48" font-family="Helvetica,sans-Serif" font-size="10.00">Internal</text>
</a>
</g>
</g>
<!-- Node2 -->
<g id="node2" class="node">
<title>Node2</title>
<g id="a_node2"><a xlink:href="a00609.html#af14d39efa300da183070784bc86d3f23" target="_top" xlink:title="发送错误(error级日志)">
<polygon fill="white" stroke="black" points="173,-166.48 173,-196.48 301,-196.48 301,-166.48 173,-166.48"/>
<text text-anchor="start" x="181" y="-184.48" font-family="Helvetica,sans-Serif" font-size="10.00">MiraiCP::Logger_interface</text>
<text text-anchor="middle" x="237" y="-173.48" font-family="Helvetica,sans-Serif" font-size="10.00">::error</text>
</a>
</g>
</g>
<!-- Node1&#45;&gt;Node2 -->
<g id="edge1" class="edge">
<title>Node1&#45;&gt;Node2</title>
<path fill="none" stroke="midnightblue" d="M137.22,-166.65C145.7,-167.92 154.4,-169.23 162.95,-170.51"/>
<polygon fill="midnightblue" stroke="midnightblue" points="162.5,-173.99 172.91,-172.01 163.54,-167.06 162.5,-173.99"/>
</g>
<!-- Node5 -->
<g id="node5" class="node">
<title>Node5</title>
<g id="a_node5"><a xlink:href="a00412.html#a309e8d7f316e8b5e947ea3bcddeb84a8" target="_top" xlink:title="调用 Mirai 操作">
<polygon fill="white" stroke="black" points="182.5,-117.48 182.5,-147.48 291.5,-147.48 291.5,-117.48 182.5,-117.48"/>
<text text-anchor="start" x="190.5" y="-135.48" font-family="Helvetica,sans-Serif" font-size="10.00">MiraiCP::KtOperation</text>
<text text-anchor="middle" x="237" y="-124.48" font-family="Helvetica,sans-Serif" font-size="10.00">::ktOperation</text>
</a>
</g>
</g>
<!-- Node1&#45;&gt;Node5 -->
<g id="edge4" class="edge">
<title>Node1&#45;&gt;Node5</title>
<path fill="none" stroke="midnightblue" d="M137.22,-146.72C148.85,-145.04 160.9,-143.31 172.41,-141.65"/>
<polygon fill="midnightblue" stroke="midnightblue" points="172.97,-145.1 182.37,-140.21 171.98,-138.18 172.97,-145.1"/>
</g>
<!-- Node3 -->
<g id="node3" class="node">
<title>Node3</title>
<g id="a_node3"><a xlink:href="a00609.html#a98af60f864a0446e23a7a27a3419d9b8" target="_top" xlink:title=" ">
<polygon fill="white" stroke="black" points="337,-215.48 337,-245.48 465,-245.48 465,-215.48 337,-215.48"/>
<text text-anchor="start" x="345" y="-233.48" font-family="Helvetica,sans-Serif" font-size="10.00">MiraiCP::Logger_interface</text>
<text text-anchor="middle" x="401" y="-222.48" font-family="Helvetica,sans-Serif" font-size="10.00">::constructString</text>
</a>
</g>
</g>
<!-- Node2&#45;&gt;Node3 -->
<g id="edge2" class="edge">
<title>Node2&#45;&gt;Node3</title>
<path fill="none" stroke="midnightblue" d="M287.93,-196.58C304.48,-201.59 323.07,-207.22 340.29,-212.42"/>
<polygon fill="midnightblue" stroke="midnightblue" points="339.65,-215.89 350.24,-215.43 341.68,-209.19 339.65,-215.89"/>
</g>
<!-- Node4 -->
<g id="node4" class="node">
<title>Node4</title>
<g id="a_node4"><a xlink:href="a00609.html#a86ea9d57475a3004be2a32b2c4c76371" target="_top" xlink:title="日志底层实现封装">
<polygon fill="white" stroke="black" points="337,-166.48 337,-196.48 465,-196.48 465,-166.48 337,-166.48"/>
<text text-anchor="start" x="345" y="-184.48" font-family="Helvetica,sans-Serif" font-size="10.00">MiraiCP::Logger_interface</text>
<text text-anchor="middle" x="401" y="-173.48" font-family="Helvetica,sans-Serif" font-size="10.00">::log_interface</text>
</a>
</g>
</g>
<!-- Node2&#45;&gt;Node4 -->
<g id="edge3" class="edge">
<title>Node2&#45;&gt;Node4</title>
<path fill="none" stroke="midnightblue" d="M301.1,-181.48C309.43,-181.48 318.04,-181.48 326.53,-181.48"/>
<polygon fill="midnightblue" stroke="midnightblue" points="326.81,-184.98 336.81,-181.48 326.81,-177.98 326.81,-184.98"/>
</g>
<!-- Node6 -->
<g id="node6" class="node">
<title>Node6</title>
<g id="a_node6"><a xlink:href="a00412.html#a1e1e498928eeaa1d7107033ff5fa881a" target="_top" xlink:title="调用 Mirai 操作">
<polygon fill="white" stroke="black" points="346.5,-117.48 346.5,-147.48 455.5,-147.48 455.5,-117.48 346.5,-117.48"/>
<text text-anchor="start" x="354.5" y="-135.48" font-family="Helvetica,sans-Serif" font-size="10.00">MiraiCP::KtOperation</text>
<text text-anchor="middle" x="401" y="-124.48" font-family="Helvetica,sans-Serif" font-size="10.00">::ktOperationStr</text>
</a>
</g>
</g>
<!-- Node5&#45;&gt;Node6 -->
<g id="edge5" class="edge">
<title>Node5&#45;&gt;Node6</title>
<path fill="none" stroke="midnightblue" d="M291.94,-132.48C306.15,-132.48 321.62,-132.48 336.29,-132.48"/>
<polygon fill="midnightblue" stroke="midnightblue" points="336.29,-135.98 346.29,-132.48 336.29,-128.98 336.29,-135.98"/>
</g>
<!-- Node7 -->
<g id="node7" class="node">
<title>Node7</title>
<g id="a_node7"><a xlink:href="a00405.html#a89b345ec37278655b8f02d07dbb3c882" target="_top" xlink:title="interfaces for plugins">
<polygon fill="white" stroke="black" points="501,-117.48 501,-147.48 609,-147.48 609,-117.48 501,-117.48"/>
<text text-anchor="start" x="509" y="-135.48" font-family="Helvetica,sans-Serif" font-size="10.00">LibLoader::LoaderApi</text>
<text text-anchor="middle" x="555" y="-124.48" font-family="Helvetica,sans-Serif" font-size="10.00">::pluginOperation</text>
</a>
</g>
</g>
<!-- Node6&#45;&gt;Node7 -->
<g id="edge6" class="edge">
<title>Node6&#45;&gt;Node7</title>
<path fill="none" stroke="midnightblue" d="M455.59,-132.48C466.96,-132.48 479.07,-132.48 490.76,-132.48"/>
<polygon fill="midnightblue" stroke="midnightblue" points="490.89,-135.98 500.89,-132.48 490.89,-128.98 490.89,-135.98"/>
</g>
<!-- Node8 -->
<g id="node8" class="node">
<title>Node8</title>
<g id="a_node8"><a xlink:href="a00737.html#ab263deade385e7b5de856d061c6027e9" target="_top" xlink:title=" ">
<polygon fill="white" stroke="black" points="645,-180.48 645,-210.48 762,-210.48 762,-180.48 645,-180.48"/>
<text text-anchor="start" x="653" y="-198.48" font-family="Helvetica,sans-Serif" font-size="10.00">MiraiCP::MiraiCPString</text>
<text text-anchor="middle" x="703.5" y="-187.48" font-family="Helvetica,sans-Serif" font-size="10.00">::copyToCharPtr</text>
</a>
</g>
</g>
<!-- Node7&#45;&gt;Node8 -->
<g id="edge7" class="edge">
<title>Node7&#45;&gt;Node8</title>
<path fill="none" stroke="midnightblue" d="M591.09,-147.57C611.22,-156.23 636.69,-167.18 658.19,-176.43"/>
<polygon fill="midnightblue" stroke="midnightblue" points="656.87,-179.67 667.44,-180.41 659.64,-173.24 656.87,-179.67"/>
</g>
<!-- Node9 -->
<g id="node9" class="node">
<title>Node9</title>
<g id="a_node9"><a xlink:href="a00773.html#aea7d58ff9f04d6d4849c25a2506603a5" target="_top" xlink:title="取env,如果不存在重新获取">
<polygon fill="white" stroke="black" points="1251,-103.98 1251,-122.98 1370,-122.98 1370,-103.98 1251,-103.98"/>
<text text-anchor="middle" x="1310.5" y="-110.98" font-family="Helvetica,sans-Serif" font-size="10.00">JNIEnvManager::getEnv</text>
</a>
</g>
</g>
<!-- Node7&#45;&gt;Node9 -->
<g id="edge8" class="edge">
<title>Node7&#45;&gt;Node9</title>
<path fill="none" stroke="midnightblue" d="M609.21,-137.85C669.58,-143.47 771.02,-151.48 858.5,-151.48 858.5,-151.48 858.5,-151.48 1019.5,-151.48 1101.89,-151.48 1196.34,-136.22 1254.46,-125.04"/>
<polygon fill="midnightblue" stroke="midnightblue" points="1255.39,-128.42 1264.53,-123.07 1254.05,-121.55 1255.39,-128.42"/>
</g>
<!-- Node12 -->
<g id="node12" class="node">
<title>Node12</title>
<g id="a_node12"><a xlink:href="a00404.html#aa5f8d0ecd9dd392b491070aace643ae3" target="_top" xlink:title=" ">
<polygon fill="white" stroke="black" points="806,-103.98 806,-122.98 913,-122.98 913,-103.98 806,-103.98"/>
<text text-anchor="middle" x="859.5" y="-110.98" font-family="Helvetica,sans-Serif" font-size="10.00">LibLoader::jstring2str</text>
</a>
</g>
</g>
<!-- Node7&#45;&gt;Node12 -->
<g id="edge11" class="edge">
<title>Node7&#45;&gt;Node12</title>
<path fill="none" stroke="midnightblue" d="M609.04,-129.15C661.12,-125.88 740.57,-120.89 795.77,-117.42"/>
<polygon fill="midnightblue" stroke="midnightblue" points="796.02,-120.91 805.78,-116.79 795.58,-113.93 796.02,-120.91"/>
</g>
<!-- Node14 -->
<g id="node14" class="node">
<title>Node14</title>
<g id="a_node14"><a xlink:href="a00404.html#a6a6fcd695791253a9b3a053d313b2b93" target="_top" xlink:title=" ">
<polygon fill="white" stroke="black" points="650,-43.98 650,-62.98 757,-62.98 757,-43.98 650,-43.98"/>
<text text-anchor="middle" x="703.5" y="-50.98" font-family="Helvetica,sans-Serif" font-size="10.00">LibLoader::str2jstring</text>
</a>
</g>
</g>
<!-- Node7&#45;&gt;Node14 -->
<g id="edge14" class="edge">
<title>Node7&#45;&gt;Node14</title>
<path fill="none" stroke="midnightblue" d="M583.9,-117.44C610.37,-103.16 649.87,-81.87 675.9,-67.83"/>
<polygon fill="midnightblue" stroke="midnightblue" points="677.69,-70.84 684.83,-63.01 674.37,-64.68 677.69,-70.84"/>
</g>
<!-- Node10 -->
<g id="node10" class="node">
<title>Node10</title>
<g id="a_node10"><a xlink:href="a00203.html#a3d31403b7971274d47d308245206bd24" target="_top" xlink:title="为当前线程创建一个env.">
<polygon fill="white" stroke="black" points="1406,-103.98 1406,-122.98 1456,-122.98 1456,-103.98 1406,-103.98"/>
<text text-anchor="middle" x="1431" y="-110.98" font-family="Helvetica,sans-Serif" font-size="10.00">newEnv</text>
</a>
</g>
</g>
<!-- Node9&#45;&gt;Node10 -->
<g id="edge9" class="edge">
<title>Node9&#45;&gt;Node10</title>
<path fill="none" stroke="midnightblue" d="M1370.06,-113.48C1378.89,-113.48 1387.75,-113.48 1395.85,-113.48"/>
<polygon fill="midnightblue" stroke="midnightblue" points="1395.98,-116.98 1405.98,-113.48 1395.98,-109.98 1395.98,-116.98"/>
</g>
<!-- Node11 -->
<g id="node11" class="node">
<title>Node11</title>
<g id="a_node11"><a xlink:href="a00773.html#ae0e482c6a813848a8f5d34957d1b6307" target="_top" xlink:title="获取全局JavaVM对象.">
<polygon fill="white" stroke="black" points="1492,-103.98 1492,-122.98 1614,-122.98 1614,-103.98 1492,-103.98"/>
<text text-anchor="middle" x="1553" y="-110.98" font-family="Helvetica,sans-Serif" font-size="10.00">JNIEnvManager::getGvm</text>
</a>
</g>
</g>
<!-- Node10&#45;&gt;Node11 -->
<g id="edge10" class="edge">
<title>Node10&#45;&gt;Node11</title>
<path fill="none" stroke="midnightblue" d="M1456.28,-113.48C1463.75,-113.48 1472.37,-113.48 1481.32,-113.48"/>
<polygon fill="midnightblue" stroke="midnightblue" points="1481.52,-116.98 1491.52,-113.48 1481.52,-109.98 1481.52,-116.98"/>
</g>
<!-- Node13 -->
<g id="node13" class="node">
<title>Node13</title>
<g id="a_node13"><a xlink:href="a00409.html#a076c5f4ff8083c7cfc6523498d0ba30f" target="_top" xlink:title=" ">
<polygon fill="white" stroke="black" points="1116,-76.48 1116,-106.48 1215,-106.48 1215,-76.48 1116,-76.48"/>
<text text-anchor="start" x="1124" y="-94.48" font-family="Helvetica,sans-Serif" font-size="10.00">LibLoader::JNIEnvs</text>
<text text-anchor="middle" x="1165.5" y="-83.48" font-family="Helvetica,sans-Serif" font-size="10.00">::getEnv</text>
</a>
</g>
</g>
<!-- Node12&#45;&gt;Node13 -->
<g id="edge12" class="edge">
<title>Node12&#45;&gt;Node13</title>
<path fill="none" stroke="midnightblue" d="M913.11,-109.68C966.7,-105.8 1049.65,-99.79 1105.46,-95.76"/>
<polygon fill="midnightblue" stroke="midnightblue" points="1105.83,-99.24 1115.55,-95.03 1105.32,-92.26 1105.83,-99.24"/>
</g>
<!-- Node13&#45;&gt;Node9 -->
<g id="edge13" class="edge">
<title>Node13&#45;&gt;Node9</title>
<path fill="none" stroke="midnightblue" d="M1215.31,-98.99C1223.51,-100.25 1232.16,-101.58 1240.75,-102.91"/>
<polygon fill="midnightblue" stroke="midnightblue" points="1240.36,-106.39 1250.78,-104.45 1241.43,-99.47 1240.36,-106.39"/>
</g>
<!-- Node14&#45;&gt;Node13 -->
<g id="edge15" class="edge">
<title>Node14&#45;&gt;Node13</title>
<path fill="none" stroke="midnightblue" d="M757.27,-57.84C843.84,-64.99 1015.43,-79.17 1105.75,-86.63"/>
<polygon fill="midnightblue" stroke="midnightblue" points="1105.57,-90.13 1115.82,-87.46 1106.14,-83.15 1105.57,-90.13"/>
</g>
<!-- Node15 -->
<g id="node15" class="node">
<title>Node15</title>
<g id="a_node15"><a xlink:href="a00805.html#af50d0545fe7d683e54fcd03453a423e3" target="_top" xlink:title=" ">
<polygon fill="white" stroke="black" points="798,-16.48 798,-46.48 921,-46.48 921,-16.48 798,-16.48"/>
<text text-anchor="start" x="806" y="-34.48" font-family="Helvetica,sans-Serif" font-size="10.00">LibLoader::LoaderLogger</text>
<text text-anchor="middle" x="859.5" y="-23.48" font-family="Helvetica,sans-Serif" font-size="10.00">::warning</text>
</a>
</g>
</g>
<!-- Node14&#45;&gt;Node15 -->
<g id="edge16" class="edge">
<title>Node14&#45;&gt;Node15</title>
<path fill="none" stroke="midnightblue" d="M757.07,-45.97C767.04,-44.55 777.62,-43.04 788.04,-41.55"/>
<polygon fill="midnightblue" stroke="midnightblue" points="788.55,-45.01 797.95,-40.13 787.56,-38.08 788.55,-45.01"/>
</g>
<!-- Node16 -->
<g id="node16" class="node">
<title>Node16</title>
<g id="a_node16"><a xlink:href="a00805.html#af4d7d5164450e25f7401d1cc15f15b8d" target="_top" xlink:title="实际暴露的接口">
<polygon fill="white" stroke="black" points="957,-16.48 957,-46.48 1080,-46.48 1080,-16.48 957,-16.48"/>
<text text-anchor="start" x="965" y="-34.48" font-family="Helvetica,sans-Serif" font-size="10.00">LibLoader::LoaderLogger</text>
<text text-anchor="middle" x="1018.5" y="-23.48" font-family="Helvetica,sans-Serif" font-size="10.00">::call_logger</text>
</a>
</g>
</g>
<!-- Node15&#45;&gt;Node16 -->
<g id="edge17" class="edge">
<title>Node15&#45;&gt;Node16</title>
<path fill="none" stroke="midnightblue" d="M921.2,-31.48C929.64,-31.48 938.36,-31.48 946.95,-31.48"/>
<polygon fill="midnightblue" stroke="midnightblue" points="946.96,-34.98 956.96,-31.48 946.96,-27.98 946.96,-34.98"/>
</g>
<!-- Node16&#45;&gt;Node13 -->
<g id="edge18" class="edge">
<title>Node16&#45;&gt;Node13</title>
<path fill="none" stroke="midnightblue" d="M1056.09,-46.62C1075.14,-54.51 1098.61,-64.22 1118.84,-72.59"/>
<polygon fill="midnightblue" stroke="midnightblue" points="1117.6,-75.86 1128.17,-76.45 1120.27,-69.39 1117.6,-75.86"/>
</g>
<!-- Node16&#45;&gt;Node14 -->
<g id="edge19" class="edge">
<title>Node16&#45;&gt;Node14</title>
<path fill="none" stroke="midnightblue" d="M968.97,-16.47C924.11,-4.82 855.84,7.24 798,-6.48 771.99,-12.65 744.99,-27.26 726.73,-38.56"/>
<polygon fill="midnightblue" stroke="midnightblue" points="724.83,-35.63 718.27,-43.95 728.59,-41.53 724.83,-35.63"/>
</g>
</g>
</svg>
