<?xml version="1.0" encoding="UTF-8" standalone="no"?>
<!DOCTYPE svg PUBLIC "-//W3C//DTD SVG 1.1//EN"
 "http://www.w3.org/Graphics/SVG/1.1/DTD/svg11.dtd">
<!-- Generated by graphviz version 9.0.0 (0)
 -->
<!-- Title: Contact.cpp Pages: 1 -->
<svg width="1375pt" height="432pt"
 viewBox="0.00 0.00 1375.38 432.00" xmlns="http://www.w3.org/2000/svg" xmlns:xlink="http://www.w3.org/1999/xlink">
<g id="graph0" class="graph" transform="scale(1 1) rotate(0) translate(4 428)">
<title>Contact.cpp</title>
<!-- Node1 -->
<g id="Node000001" class="node">
<title>Node1</title>
<g id="a_Node000001"><a xlink:title=" ">
<polygon fill="#999999" stroke="#666666" points="562.62,-424 493.38,-424 493.38,-404 562.62,-404 562.62,-424"/>
<text text-anchor="middle" x="528" y="-410.5" font-family="Helvetica,sans-Serif" font-size="10.00">Contact.cpp</text>
</a>
</g>
</g>
<!-- Node2 -->
<g id="Node000002" class="node">
<title>Node2</title>
<g id="a_Node000002"><a xlink:href="a00095.html" target="_top" xlink:title=" ">
<polygon fill="white" stroke="#666666" points="483.38,-300 424.62,-300 424.62,-280 483.38,-280 483.38,-300"/>
<text text-anchor="middle" x="454" y="-286.5" font-family="Helvetica,sans-Serif" font-size="10.00">Contact.h</text>
</a>
</g>
</g>
<!-- Node1&#45;&gt;Node2 -->
<g id="edge1_Node000001_Node000002" class="edge">
<title>Node1&#45;&gt;Node2</title>
<g id="a_edge1_Node000001_Node000002"><a xlink:title=" ">
<path fill="none" stroke="#63b8ff" d="M524.17,-403.65C517.91,-388.8 504.72,-359.14 490,-336 483.98,-326.53 476.33,-316.73 469.63,-308.7"/>
<polygon fill="#63b8ff" stroke="#63b8ff" points="472.5,-306.67 463.34,-301.36 467.19,-311.23 472.5,-306.67"/>
</a>
</g>
</g>
<!-- Node19 -->
<g id="Node000019" class="node">
<title>Node19</title>
<g id="a_Node000019"><a xlink:href="a00329.html" target="_top" xlink:title=" ">
<polygon fill="white" stroke="#666666" points="882.75,-368 727.25,-368 727.25,-336 882.75,-336 882.75,-368"/>
<text text-anchor="start" x="735.25" y="-354.5" font-family="Helvetica,sans-Serif" font-size="10.00">ContactDataType/GroupRelated</text>
<text text-anchor="middle" x="805" y="-342.5" font-family="Helvetica,sans-Serif" font-size="10.00">Data.h</text>
</a>
</g>
</g>
<!-- Node1&#45;&gt;Node19 -->
<g id="edge24_Node000001_Node000019" class="edge">
<title>Node1&#45;&gt;Node19</title>
<g id="a_edge24_Node000001_Node000019"><a xlink:title=" ">
<path fill="none" stroke="#63b8ff" d="M563.08,-405.4C602.9,-396.78 669.23,-382.41 722.37,-370.9"/>
<polygon fill="#63b8ff" stroke="#63b8ff" points="722.98,-374.35 732.01,-368.81 721.5,-367.51 722.98,-374.35"/>
</a>
</g>
</g>
<!-- Node24 -->
<g id="Node000024" class="node">
<title>Node24</title>
<g id="a_Node000024"><a xlink:href="a00059.html" target="_top" xlink:title=" ">
<polygon fill="white" stroke="#666666" points="343.88,-244 276.12,-244 276.12,-224 343.88,-224 343.88,-244"/>
<text text-anchor="middle" x="310" y="-230.5" font-family="Helvetica,sans-Serif" font-size="10.00">Exception.h</text>
</a>
</g>
</g>
<!-- Node1&#45;&gt;Node24 -->
<g id="edge31_Node000001_Node000024" class="edge">
<title>Node1&#45;&gt;Node24</title>
<g id="a_edge31_Node000001_Node000024"><a xlink:title=" ">
<path fill="none" stroke="#63b8ff" d="M493.15,-408.85C445.6,-402.48 363.91,-388.81 343,-368 312.74,-337.88 308.69,-284.64 308.97,-255.49"/>
<polygon fill="#63b8ff" stroke="#63b8ff" points="312.46,-255.9 309.26,-245.79 305.46,-255.68 312.46,-255.9"/>
</a>
</g>
</g>
<!-- Node30 -->
<g id="Node000030" class="node">
<title>Node30</title>
<g id="a_Node000030"><a xlink:href="a00389.html" target="_top" xlink:title=" ">
<polygon fill="white" stroke="#666666" points="224.25,-132 125.75,-132 125.75,-112 224.25,-112 224.25,-132"/>
<text text-anchor="middle" x="175" y="-118.5" font-family="Helvetica,sans-Serif" font-size="10.00">ExceptionHandle.h</text>
</a>
</g>
</g>
<!-- Node1&#45;&gt;Node30 -->
<g id="edge44_Node000001_Node000030" class="edge">
<title>Node1&#45;&gt;Node30</title>
<g id="a_edge44_Node000001_Node000030"><a xlink:title=" ">
<path fill="none" stroke="#63b8ff" d="M492.95,-412.43C375.02,-409.57 0,-392.49 0,-291 0,-291 0,-291 0,-233 0,-177.5 63.87,-148.91 114.43,-134.98"/>
<polygon fill="#63b8ff" stroke="#63b8ff" points="115.06,-138.43 123.86,-132.52 113.3,-131.66 115.06,-138.43"/>
</a>
</g>
</g>
<!-- Node31 -->
<g id="Node000031" class="node">
<title>Node31</title>
<g id="a_Node000031"><a xlink:href="a00071.html" target="_top" xlink:title=" ">
<polygon fill="white" stroke="#666666" points="403.62,-362 352.38,-362 352.38,-342 403.62,-342 403.62,-362"/>
<text text-anchor="middle" x="378" y="-348.5" font-family="Helvetica,sans-Serif" font-size="10.00">Friend.h</text>
</a>
</g>
</g>
<!-- Node1&#45;&gt;Node31 -->
<g id="edge47_Node000001_Node000031" class="edge">
<title>Node1&#45;&gt;Node31</title>
<g id="a_edge47_Node000001_Node000031"><a xlink:title=" ">
<path fill="none" stroke="#63b8ff" d="M502.98,-403.67C479.4,-394.79 443.13,-380.9 412,-368 411.06,-367.61 410.11,-367.21 409.15,-366.81"/>
<polygon fill="#63b8ff" stroke="#63b8ff" points="410.75,-363.69 400.18,-362.95 407.99,-370.12 410.75,-363.69"/>
</a>
</g>
</g>
<!-- Node32 -->
<g id="Node000032" class="node">
<title>Node32</title>
<g id="a_Node000032"><a xlink:href="a00056.html" target="_top" xlink:title=" ">
<polygon fill="white" stroke="#666666" points="625.25,-362 574.75,-362 574.75,-342 625.25,-342 625.25,-362"/>
<text text-anchor="middle" x="600" y="-348.5" font-family="Helvetica,sans-Serif" font-size="10.00">Group.h</text>
</a>
</g>
</g>
<!-- Node1&#45;&gt;Node32 -->
<g id="edge49_Node000001_Node000032" class="edge">
<title>Node1&#45;&gt;Node32</title>
<g id="a_edge49_Node000001_Node000032"><a xlink:title=" ">
<path fill="none" stroke="#63b8ff" d="M539.25,-403.62C550.2,-394.5 567.07,-380.45 580.25,-369.46"/>
<polygon fill="#63b8ff" stroke="#63b8ff" points="582.46,-372.17 587.9,-363.08 577.98,-366.79 582.46,-372.17"/>
</a>
</g>
</g>
<!-- Node33 -->
<g id="Node000033" class="node">
<title>Node33</title>
<g id="a_Node000033"><a xlink:href="a00050.html" target="_top" xlink:title=" ">
<polygon fill="white" stroke="#666666" points="570.25,-300 501.75,-300 501.75,-280 570.25,-280 570.25,-300"/>
<text text-anchor="middle" x="536" y="-286.5" font-family="Helvetica,sans-Serif" font-size="10.00">JsonTools.h</text>
</a>
</g>
</g>
<!-- Node1&#45;&gt;Node33 -->
<g id="edge53_Node000001_Node000033" class="edge">
<title>Node1&#45;&gt;Node33</title>
<g id="a_edge53_Node000001_Node000033"><a xlink:title=" ">
<path fill="none" stroke="#63b8ff" d="M528.6,-403.83C529.88,-384.31 532.9,-338.25 534.66,-311.4"/>
<polygon fill="#63b8ff" stroke="#63b8ff" points="538.13,-311.99 535.29,-301.79 531.15,-311.54 538.13,-311.99"/>
</a>
</g>
</g>
<!-- Node34 -->
<g id="Node000034" class="node">
<title>Node34</title>
<g id="a_Node000034"><a xlink:href="a00362.html" target="_top" xlink:title=" ">
<polygon fill="white" stroke="#666666" points="1292,-300 1216,-300 1216,-280 1292,-280 1292,-300"/>
<text text-anchor="middle" x="1254" y="-286.5" font-family="Helvetica,sans-Serif" font-size="10.00">KtOperation.h</text>
</a>
</g>
</g>
<!-- Node1&#45;&gt;Node34 -->
<g id="edge55_Node000001_Node000034" class="edge">
<title>Node1&#45;&gt;Node34</title>
<g id="a_edge55_Node000001_Node000034"><a xlink:title=" ">
<path fill="none" stroke="#63b8ff" d="M563.03,-409.69C628.09,-403.31 771.9,-388.16 892,-368 1004.55,-349.11 1135.18,-319.37 1204.62,-302.92"/>
<polygon fill="#63b8ff" stroke="#63b8ff" points="1205.24,-306.37 1214.16,-300.66 1203.62,-299.56 1205.24,-306.37"/>
</a>
</g>
</g>
<!-- Node35 -->
<g id="Node000035" class="node">
<title>Node35</title>
<g id="a_Node000035"><a xlink:href="a00374.html" target="_top" xlink:title=" ">
<polygon fill="white" stroke="#666666" points="1363,-244 1281,-244 1281,-224 1363,-224 1363,-244"/>
<text text-anchor="middle" x="1322" y="-230.5" font-family="Helvetica,sans-Serif" font-size="10.00">LowLevelAPI.h</text>
</a>
</g>
</g>
<!-- Node1&#45;&gt;Node35 -->
<g id="edge57_Node000001_Node000035" class="edge">
<title>Node1&#45;&gt;Node35</title>
<g id="a_edge57_Node000001_Node000035"><a xlink:title=" ">
<path fill="none" stroke="#63b8ff" d="M562.99,-412.86C699,-411.6 1190.34,-400.06 1301,-300 1313.52,-288.68 1318.61,-269.86 1320.66,-255.37"/>
<polygon fill="#63b8ff" stroke="#63b8ff" points="1324.13,-255.86 1321.64,-245.57 1317.16,-255.17 1324.13,-255.86"/>
</a>
</g>
</g>
<!-- Node36 -->
<g id="Node000036" class="node">
<title>Node36</title>
<g id="a_Node000036"><a xlink:href="a00065.html" target="_top" xlink:title=" ">
<polygon fill="white" stroke="#666666" points="480.75,-362 421.25,-362 421.25,-342 480.75,-342 480.75,-362"/>
<text text-anchor="middle" x="451" y="-348.5" font-family="Helvetica,sans-Serif" font-size="10.00">Member.h</text>
</a>
</g>
</g>
<!-- Node1&#45;&gt;Node36 -->
<g id="edge59_Node000001_Node000036" class="edge">
<title>Node1&#45;&gt;Node36</title>
<g id="a_edge59_Node000001_Node000036"><a xlink:title=" ">
<path fill="none" stroke="#63b8ff" d="M515.97,-403.62C504.22,-394.47 486.08,-380.34 471.96,-369.33"/>
<polygon fill="#63b8ff" stroke="#63b8ff" points="474.18,-366.63 464.14,-363.24 469.88,-372.15 474.18,-366.63"/>
</a>
</g>
</g>
<!-- Node3 -->
<g id="Node000003" class="node">
<title>Node3</title>
<g id="a_Node000003"><a xlink:href="a00092.html" target="_top" xlink:title=" ">
<polygon fill="white" stroke="#666666" points="754.75,-244 665.25,-244 665.25,-224 754.75,-224 754.75,-244"/>
<text text-anchor="middle" x="710" y="-230.5" font-family="Helvetica,sans-Serif" font-size="10.00">MessageChain.h</text>
</a>
</g>
</g>
<!-- Node2&#45;&gt;Node3 -->
<g id="edge2_Node000002_Node000003" class="edge">
<title>Node2&#45;&gt;Node3</title>
<g id="a_edge2_Node000002_Node000003"><a xlink:title=" ">
<path fill="none" stroke="#63b8ff" d="M483.8,-282.05C486.9,-281.35 490.01,-280.65 493,-280 547.63,-268.03 610.18,-255.15 654.04,-246.25"/>
<polygon fill="#63b8ff" stroke="#63b8ff" points="654.46,-249.73 663.57,-244.32 653.07,-242.87 654.46,-249.73"/>
</a>
</g>
</g>
<!-- Node9 -->
<g id="Node000009" class="node">
<title>Node9</title>
<g id="a_Node000009"><a xlink:title=" ">
<polygon fill="#e0e0e0" stroke="#999999" points="142,-76 102,-76 102,-56 142,-56 142,-76"/>
<text text-anchor="middle" x="122" y="-62.5" font-family="Helvetica,sans-Serif" font-size="10.00">string</text>
</a>
</g>
</g>
<!-- Node2&#45;&gt;Node9 -->
<g id="edge23_Node000002_Node000009" class="edge">
<title>Node2&#45;&gt;Node9</title>
<g id="a_edge23_Node000002_Node000009"><a xlink:title=" ">
<path fill="none" stroke="#63b8ff" d="M424.25,-288.78C352.81,-286.83 168.65,-273.27 49,-188 18.41,-166.2 -8.94,-143.19 12,-112 29.35,-86.15 64.47,-75.14 90.37,-70.46"/>
<polygon fill="#63b8ff" stroke="#63b8ff" points="90.69,-73.95 100.04,-68.95 89.62,-67.03 90.69,-73.95"/>
</a>
</g>
</g>
<!-- Node18 -->
<g id="Node000018" class="node">
<title>Node18</title>
<g id="a_Node000018"><a xlink:title=" ">
<polygon fill="#e0e0e0" stroke="#999999" points="523.88,-188 426.12,-188 426.12,-168 523.88,-168 523.88,-188"/>
<text text-anchor="middle" x="475" y="-174.5" font-family="Helvetica,sans-Serif" font-size="10.00">nlohmann/json.hpp</text>
</a>
</g>
</g>
<!-- Node2&#45;&gt;Node18 -->
<g id="edge22_Node000002_Node000018" class="edge">
<title>Node2&#45;&gt;Node18</title>
<g id="a_edge22_Node000002_Node000018"><a xlink:title=" ">
<path fill="none" stroke="#63b8ff" d="M455.79,-279.62C459.15,-262.01 466.49,-223.59 471.06,-199.65"/>
<polygon fill="#63b8ff" stroke="#63b8ff" points="474.49,-200.32 472.93,-189.84 467.62,-199.01 474.49,-200.32"/>
</a>
</g>
</g>
<!-- Node4 -->
<g id="Node000004" class="node">
<title>Node4</title>
<g id="a_Node000004"><a xlink:href="a00041.html" target="_top" xlink:title=" ">
<polygon fill="white" stroke="#666666" points="594.88,-76 503.12,-76 503.12,-56 594.88,-56 594.88,-76"/>
<text text-anchor="middle" x="549" y="-62.5" font-family="Helvetica,sans-Serif" font-size="10.00">MiraiCPMacros.h</text>
</a>
</g>
</g>
<!-- Node3&#45;&gt;Node4 -->
<g id="edge3_Node000003_Node000004" class="edge">
<title>Node3&#45;&gt;Node4</title>
<g id="a_edge3_Node000003_Node000004"><a xlink:title=" ">
<path fill="none" stroke="#63b8ff" d="M755,-228.2C844.73,-216.97 1031.92,-184.28 967,-112 943.35,-85.67 715.65,-73.41 606.63,-69.01"/>
<polygon fill="#63b8ff" stroke="#63b8ff" points="606.84,-65.52 596.71,-68.62 606.56,-72.51 606.84,-65.52"/>
</a>
</g>
</g>
<!-- Node6 -->
<g id="Node000006" class="node">
<title>Node6</title>
<g id="a_Node000006"><a xlink:href="a00089.html" target="_top" xlink:title=" ">
<polygon fill="white" stroke="#666666" points="793.5,-188 702.5,-188 702.5,-168 793.5,-168 793.5,-188"/>
<text text-anchor="middle" x="748" y="-174.5" font-family="Helvetica,sans-Serif" font-size="10.00">SingleMessage.h</text>
</a>
</g>
</g>
<!-- Node3&#45;&gt;Node6 -->
<g id="edge5_Node000003_Node000006" class="edge">
<title>Node3&#45;&gt;Node6</title>
<g id="a_edge5_Node000003_Node000006"><a xlink:title=" ">
<path fill="none" stroke="#63b8ff" d="M716.62,-223.59C721.69,-216.39 728.84,-206.23 735.03,-197.43"/>
<polygon fill="#63b8ff" stroke="#63b8ff" points="737.69,-199.73 740.59,-189.54 731.97,-195.7 737.69,-199.73"/>
</a>
</g>
</g>
<!-- Node17 -->
<g id="Node000017" class="node">
<title>Node17</title>
<g id="a_Node000017"><a xlink:title=" ">
<polygon fill="#e0e0e0" stroke="#999999" points="684,-188 626,-188 626,-168 684,-168 684,-188"/>
<text text-anchor="middle" x="655" y="-174.5" font-family="Helvetica,sans-Serif" font-size="10.00">functional</text>
</a>
</g>
</g>
<!-- Node3&#45;&gt;Node17 -->
<g id="edge21_Node000003_Node000017" class="edge">
<title>Node3&#45;&gt;Node17</title>
<g id="a_edge21_Node000003_Node000017"><a xlink:title=" ">
<path fill="none" stroke="#63b8ff" d="M700.42,-223.59C692.77,-216.08 681.84,-205.35 672.62,-196.3"/>
<polygon fill="#63b8ff" stroke="#63b8ff" points="675.14,-193.87 665.55,-189.36 670.23,-198.86 675.14,-193.87"/>
</a>
</g>
</g>
<!-- Node5 -->
<g id="Node000005" class="node">
<title>Node5</title>
<g id="a_Node000005"><a xlink:title=" ">
<polygon fill="#e0e0e0" stroke="#999999" points="573.12,-20 524.88,-20 524.88,0 573.12,0 573.12,-20"/>
<text text-anchor="middle" x="549" y="-6.5" font-family="Helvetica,sans-Serif" font-size="10.00">cassert</text>
</a>
</g>
</g>
<!-- Node4&#45;&gt;Node5 -->
<g id="edge4_Node000004_Node000005" class="edge">
<title>Node4&#45;&gt;Node5</title>
<g id="a_edge4_Node000004_Node000005"><a xlink:title=" ">
<path fill="none" stroke="#63b8ff" d="M549,-55.59C549,-49.01 549,-39.96 549,-31.73"/>
<polygon fill="#63b8ff" stroke="#63b8ff" points="552.5,-31.81 549,-21.81 545.5,-31.81 552.5,-31.81"/>
</a>
</g>
</g>
<!-- Node6&#45;&gt;Node4 -->
<g id="edge6_Node000006_Node000004" class="edge">
<title>Node6&#45;&gt;Node4</title>
<g id="a_edge6_Node000006_Node000004"><a xlink:title=" ">
<path fill="none" stroke="#63b8ff" d="M715.23,-167.55C690.84,-159.8 657.2,-147.59 630,-132 606.2,-118.36 582.08,-97.98 566.43,-83.68"/>
<polygon fill="#63b8ff" stroke="#63b8ff" points="569.06,-81.35 559.36,-77.1 564.29,-86.48 569.06,-81.35"/>
</a>
</g>
</g>
<!-- Node7 -->
<g id="Node000007" class="node">
<title>Node7</title>
<g id="a_Node000007"><a xlink:href="a00086.html" target="_top" xlink:title=" ">
<polygon fill="white" stroke="#666666" points="902.38,-132 807.62,-132 807.62,-112 902.38,-112 902.38,-132"/>
<text text-anchor="middle" x="855" y="-118.5" font-family="Helvetica,sans-Serif" font-size="10.00">MessageSource.h</text>
</a>
</g>
</g>
<!-- Node6&#45;&gt;Node7 -->
<g id="edge7_Node000006_Node000007" class="edge">
<title>Node6&#45;&gt;Node7</title>
<g id="a_edge7_Node000006_Node000007"><a xlink:title=" ">
<path fill="none" stroke="#63b8ff" d="M766.64,-167.59C783.03,-159.32 807.16,-147.14 826.06,-137.6"/>
<polygon fill="#63b8ff" stroke="#63b8ff" points="827.51,-140.79 834.87,-133.16 824.36,-134.54 827.51,-140.79"/>
</a>
</g>
</g>
<!-- Node8 -->
<g id="Node000008" class="node">
<title>Node8</title>
<g id="a_Node000008"><a xlink:href="a00062.html" target="_top" xlink:title=" ">
<polygon fill="white" stroke="#666666" points="1055.25,-76 992.75,-76 992.75,-56 1055.25,-56 1055.25,-76"/>
<text text-anchor="middle" x="1024" y="-62.5" font-family="Helvetica,sans-Serif" font-size="10.00">SdkType.h</text>
</a>
</g>
</g>
<!-- Node6&#45;&gt;Node8 -->
<g id="edge14_Node000006_Node000008" class="edge">
<title>Node6&#45;&gt;Node8</title>
<g id="a_edge14_Node000006_Node000008"><a xlink:title=" ">
<path fill="none" stroke="#63b8ff" d="M793.77,-175.99C840.29,-173.12 912.98,-163.42 967,-132 986.4,-120.72 1002.58,-100.45 1012.68,-85.53"/>
<polygon fill="#63b8ff" stroke="#63b8ff" points="1015.38,-87.81 1017.85,-77.51 1009.49,-84.02 1015.38,-87.81"/>
</a>
</g>
</g>
<!-- Node10 -->
<g id="Node000010" class="node">
<title>Node10</title>
<g id="a_Node000010"><a xlink:href="a00068.html" target="_top" xlink:title=" ">
<polygon fill="white" stroke="#666666" points="583.25,-132 514.75,-132 514.75,-112 583.25,-112 583.25,-132"/>
<text text-anchor="middle" x="549" y="-118.5" font-family="Helvetica,sans-Serif" font-size="10.00">MiraiCode.h</text>
</a>
</g>
</g>
<!-- Node6&#45;&gt;Node10 -->
<g id="edge11_Node000006_Node000010" class="edge">
<title>Node6&#45;&gt;Node10</title>
<g id="a_edge11_Node000006_Node000010"><a xlink:title=" ">
<path fill="none" stroke="#63b8ff" d="M713.34,-167.59C680.34,-158.64 630.48,-145.11 594.34,-135.3"/>
<polygon fill="#63b8ff" stroke="#63b8ff" points="595.63,-132.03 585.06,-132.79 593.79,-138.78 595.63,-132.03"/>
</a>
</g>
</g>
<!-- Node11 -->
<g id="Node000011" class="node">
<title>Node11</title>
<g id="a_Node000011"><a xlink:title=" ">
<polygon fill="#e0e0e0" stroke="#999999" points="957.88,-132 920.12,-132 920.12,-112 957.88,-112 957.88,-132"/>
<text text-anchor="middle" x="939" y="-118.5" font-family="Helvetica,sans-Serif" font-size="10.00">array</text>
</a>
</g>
</g>
<!-- Node6&#45;&gt;Node11 -->
<g id="edge15_Node000006_Node000011" class="edge">
<title>Node6&#45;&gt;Node11</title>
<g id="a_edge15_Node000006_Node000011"><a xlink:title=" ">
<path fill="none" stroke="#63b8ff" d="M784.06,-167.51C814.84,-159.3 860.54,-146.88 908.77,-132.58"/>
<polygon fill="#63b8ff" stroke="#63b8ff" points="909.72,-135.95 918.3,-129.74 907.72,-129.24 909.72,-135.95"/>
</a>
</g>
</g>
<!-- Node12 -->
<g id="Node000012" class="node">
<title>Node12</title>
<g id="a_Node000012"><a xlink:title=" ">
<polygon fill="#e0e0e0" stroke="#999999" points="1367.38,-132 1248.62,-132 1248.62,-112 1367.38,-112 1367.38,-132"/>
<text text-anchor="middle" x="1308" y="-118.5" font-family="Helvetica,sans-Serif" font-size="10.00">nlohmann/json_fwd.hpp</text>
</a>
</g>
</g>
<!-- Node6&#45;&gt;Node12 -->
<g id="edge16_Node000006_Node000012" class="edge">
<title>Node6&#45;&gt;Node12</title>
<g id="a_edge16_Node000006_Node000012"><a xlink:title=" ">
<path fill="none" stroke="#63b8ff" d="M793.85,-173.43C879,-166.66 1067.6,-151.04 1236.93,-132.31"/>
<polygon fill="#63b8ff" stroke="#63b8ff" points="1237.26,-135.79 1246.81,-131.21 1236.48,-128.83 1237.26,-135.79"/>
</a>
</g>
</g>
<!-- Node13 -->
<g id="Node000013" class="node">
<title>Node13</title>
<g id="a_Node000013"><a xlink:title=" ">
<polygon fill="#e0e0e0" stroke="#999999" points="688.88,-132 639.12,-132 639.12,-112 688.88,-112 688.88,-132"/>
<text text-anchor="middle" x="664" y="-118.5" font-family="Helvetica,sans-Serif" font-size="10.00">optional</text>
</a>
</g>
</g>
<!-- Node6&#45;&gt;Node13 -->
<g id="edge17_Node000006_Node000013" class="edge">
<title>Node6&#45;&gt;Node13</title>
<g id="a_edge17_Node000006_Node000013"><a xlink:title=" ">
<path fill="none" stroke="#63b8ff" d="M733.37,-167.59C720.92,-159.59 702.78,-147.93 688.18,-138.54"/>
<polygon fill="#63b8ff" stroke="#63b8ff" points="690.32,-135.76 680.02,-133.3 686.54,-141.65 690.32,-135.76"/>
</a>
</g>
</g>
<!-- Node14 -->
<g id="Node000014" class="node">
<title>Node14</title>
<g id="a_Node000014"><a xlink:title=" ">
<polygon fill="#e0e0e0" stroke="#999999" points="496.62,-132 445.38,-132 445.38,-112 496.62,-112 496.62,-132"/>
<text text-anchor="middle" x="471" y="-118.5" font-family="Helvetica,sans-Serif" font-size="10.00">sstream</text>
</a>
</g>
</g>
<!-- Node6&#45;&gt;Node14 -->
<g id="edge18_Node000006_Node000014" class="edge">
<title>Node6&#45;&gt;Node14</title>
<g id="a_edge18_Node000006_Node000014"><a xlink:title=" ">
<path fill="none" stroke="#63b8ff" d="M702.32,-169.46C655.81,-161.57 581.4,-148.36 507.8,-132.27"/>
<polygon fill="#63b8ff" stroke="#63b8ff" points="508.94,-128.94 498.42,-130.21 507.44,-135.78 508.94,-128.94"/>
</a>
</g>
</g>
<!-- Node15 -->
<g id="Node000015" class="node">
<title>Node15</title>
<g id="a_Node000015"><a xlink:title=" ">
<polygon fill="#e0e0e0" stroke="#999999" points="789.38,-132 706.62,-132 706.62,-112 789.38,-112 789.38,-132"/>
<text text-anchor="middle" x="748" y="-118.5" font-family="Helvetica,sans-Serif" font-size="10.00">unordered_map</text>
</a>
</g>
</g>
<!-- Node6&#45;&gt;Node15 -->
<g id="edge19_Node000006_Node000015" class="edge">
<title>Node6&#45;&gt;Node15</title>
<g id="a_edge19_Node000006_Node000015"><a xlink:title=" ">
<path fill="none" stroke="#63b8ff" d="M748,-167.59C748,-161.01 748,-151.96 748,-143.73"/>
<polygon fill="#63b8ff" stroke="#63b8ff" points="751.5,-143.81 748,-133.81 744.5,-143.81 751.5,-143.81"/>
</a>
</g>
</g>
<!-- Node16 -->
<g id="Node000016" class="node">
<title>Node16</title>
<g id="a_Node000016"><a xlink:title=" ">
<polygon fill="#e0e0e0" stroke="#999999" points="427.62,-132 388.38,-132 388.38,-112 427.62,-112 427.62,-132"/>
<text text-anchor="middle" x="408" y="-118.5" font-family="Helvetica,sans-Serif" font-size="10.00">utility</text>
</a>
</g>
</g>
<!-- Node6&#45;&gt;Node16 -->
<g id="edge20_Node000006_Node000016" class="edge">
<title>Node6&#45;&gt;Node16</title>
<g id="a_edge20_Node000006_Node000016"><a xlink:title=" ">
<path fill="none" stroke="#63b8ff" d="M702.1,-169.41C699.02,-168.92 695.97,-168.45 693,-168 582.53,-151.23 550.42,-157.32 439.1,-132.42"/>
<polygon fill="#63b8ff" stroke="#63b8ff" points="440.08,-129.05 429.55,-130.24 438.52,-135.88 440.08,-129.05"/>
</a>
</g>
</g>
<!-- Node7&#45;&gt;Node4 -->
<g id="edge8_Node000007_Node000004" class="edge">
<title>Node7&#45;&gt;Node4</title>
<g id="a_edge8_Node000007_Node000004"><a xlink:title=" ">
<path fill="none" stroke="#63b8ff" d="M807.19,-112.56C752.82,-102.97 664.11,-87.31 606.14,-77.08"/>
<polygon fill="#63b8ff" stroke="#63b8ff" points="606.92,-73.67 596.47,-75.38 605.71,-80.56 606.92,-73.67"/>
</a>
</g>
</g>
<!-- Node7&#45;&gt;Node8 -->
<g id="edge9_Node000007_Node000008" class="edge">
<title>Node7&#45;&gt;Node8</title>
<g id="a_edge9_Node000007_Node000008"><a xlink:title=" ">
<path fill="none" stroke="#63b8ff" d="M884.44,-111.59C911.9,-102.82 953.09,-89.66 983.62,-79.9"/>
<polygon fill="#63b8ff" stroke="#63b8ff" points="984.43,-83.32 992.89,-76.94 982.3,-76.65 984.43,-83.32"/>
</a>
</g>
</g>
<!-- Node7&#45;&gt;Node9 -->
<g id="edge10_Node000007_Node000009" class="edge">
<title>Node7&#45;&gt;Node9</title>
<g id="a_edge10_Node000007_Node000009"><a xlink:title=" ">
<path fill="none" stroke="#63b8ff" d="M807.15,-113.12C804.06,-112.71 800.99,-112.33 798,-112 550.55,-84.29 250.09,-71.64 153.5,-68.09"/>
<polygon fill="#63b8ff" stroke="#63b8ff" points="153.88,-64.6 143.76,-67.74 153.62,-71.59 153.88,-64.6"/>
</a>
</g>
</g>
<!-- Node10&#45;&gt;Node4 -->
<g id="edge13_Node000010_Node000004" class="edge">
<title>Node10&#45;&gt;Node4</title>
<g id="a_edge13_Node000010_Node000004"><a xlink:title=" ">
<path fill="none" stroke="#63b8ff" d="M549,-111.59C549,-105.01 549,-95.96 549,-87.73"/>
<polygon fill="#63b8ff" stroke="#63b8ff" points="552.5,-87.81 549,-77.81 545.5,-87.81 552.5,-87.81"/>
</a>
</g>
</g>
<!-- Node10&#45;&gt;Node9 -->
<g id="edge12_Node000010_Node000009" class="edge">
<title>Node10&#45;&gt;Node9</title>
<g id="a_edge12_Node000010_Node000009"><a xlink:title=" ">
<path fill="none" stroke="#63b8ff" d="M514.32,-113.46C511.51,-112.94 508.71,-112.44 506,-112 375.96,-90.82 219.59,-75.66 153.71,-69.75"/>
<polygon fill="#63b8ff" stroke="#63b8ff" points="154.27,-66.28 144,-68.88 153.65,-73.25 154.27,-66.28"/>
</a>
</g>
</g>
<!-- Node20 -->
<g id="Node000020" class="node">
<title>Node20</title>
<g id="a_Node000020"><a xlink:href="a00332.html" target="_top" xlink:title=" ">
<polygon fill="white" stroke="#666666" points="1103.38,-244 1020.62,-244 1020.62,-224 1103.38,-224 1103.38,-244"/>
<text text-anchor="middle" x="1062" y="-230.5" font-family="Helvetica,sans-Serif" font-size="10.00">IContactData.h</text>
</a>
</g>
</g>
<!-- Node19&#45;&gt;Node20 -->
<g id="edge25_Node000019_Node000020" class="edge">
<title>Node19&#45;&gt;Node20</title>
<g id="a_edge25_Node000019_Node000020"><a xlink:title=" ">
<path fill="none" stroke="#63b8ff" d="M839.13,-335.6C889.29,-312.95 982.22,-271.01 1030.71,-249.12"/>
<polygon fill="#63b8ff" stroke="#63b8ff" points="1032.14,-252.32 1039.81,-245.02 1029.26,-245.94 1032.14,-252.32"/>
</a>
</g>
</g>
<!-- Node20&#45;&gt;Node8 -->
<g id="edge30_Node000020_Node000008" class="edge">
<title>Node20&#45;&gt;Node8</title>
<g id="a_edge30_Node000020_Node000008"><a xlink:title=" ">
<path fill="none" stroke="#63b8ff" d="M1059.85,-223.6C1053.87,-197.46 1036.93,-123.48 1028.66,-87.36"/>
<polygon fill="#63b8ff" stroke="#63b8ff" points="1032.11,-86.74 1026.47,-77.77 1025.29,-88.3 1032.11,-86.74"/>
</a>
</g>
</g>
<!-- Node21 -->
<g id="Node000021" class="node">
<title>Node21</title>
<g id="a_Node000021"><a xlink:href="a00335.html" target="_top" xlink:title=" ">
<polygon fill="white" stroke="#666666" points="1159.62,-188 1090.38,-188 1090.38,-168 1159.62,-168 1159.62,-188"/>
<text text-anchor="middle" x="1125" y="-174.5" font-family="Helvetica,sans-Serif" font-size="10.00">IMiraiData.h</text>
</a>
</g>
</g>
<!-- Node20&#45;&gt;Node21 -->
<g id="edge26_Node000020_Node000021" class="edge">
<title>Node20&#45;&gt;Node21</title>
<g id="a_edge26_Node000020_Node000021"><a xlink:title=" ">
<path fill="none" stroke="#63b8ff" d="M1072.97,-223.59C1081.92,-215.93 1094.77,-204.91 1105.46,-195.75"/>
<polygon fill="#63b8ff" stroke="#63b8ff" points="1107.69,-198.45 1113,-189.28 1103.13,-193.13 1107.69,-198.45"/>
</a>
</g>
</g>
<!-- Node21&#45;&gt;Node12 -->
<g id="edge27_Node000021_Node000012" class="edge">
<title>Node21&#45;&gt;Node12</title>
<g id="a_edge27_Node000021_Node000012"><a xlink:title=" ">
<path fill="none" stroke="#63b8ff" d="M1156.88,-167.59C1186.87,-158.74 1232,-145.43 1265.14,-135.65"/>
<polygon fill="#63b8ff" stroke="#63b8ff" points="1265.82,-139.09 1274.42,-132.91 1263.84,-132.38 1265.82,-139.09"/>
</a>
</g>
</g>
<!-- Node22 -->
<g id="Node000022" class="node">
<title>Node22</title>
<g id="a_Node000022"><a xlink:title=" ">
<polygon fill="#e0e0e0" stroke="#999999" points="1135.62,-132 1090.38,-132 1090.38,-112 1135.62,-112 1135.62,-132"/>
<text text-anchor="middle" x="1113" y="-118.5" font-family="Helvetica,sans-Serif" font-size="10.00">atomic</text>
</a>
</g>
</g>
<!-- Node21&#45;&gt;Node22 -->
<g id="edge28_Node000021_Node000022" class="edge">
<title>Node21&#45;&gt;Node22</title>
<g id="a_edge28_Node000021_Node000022"><a xlink:title=" ">
<path fill="none" stroke="#63b8ff" d="M1122.91,-167.59C1121.43,-160.93 1119.39,-151.75 1117.54,-143.44"/>
<polygon fill="#63b8ff" stroke="#63b8ff" points="1120.98,-142.78 1115.39,-133.78 1114.15,-144.3 1120.98,-142.78"/>
</a>
</g>
</g>
<!-- Node23 -->
<g id="Node000023" class="node">
<title>Node23</title>
<g id="a_Node000023"><a xlink:title=" ">
<polygon fill="#e0e0e0" stroke="#999999" points="1230.75,-132 1153.25,-132 1153.25,-112 1230.75,-112 1230.75,-132"/>
<text text-anchor="middle" x="1192" y="-118.5" font-family="Helvetica,sans-Serif" font-size="10.00">shared_mutex</text>
</a>
</g>
</g>
<!-- Node21&#45;&gt;Node23 -->
<g id="edge29_Node000021_Node000023" class="edge">
<title>Node21&#45;&gt;Node23</title>
<g id="a_edge29_Node000021_Node000023"><a xlink:title=" ">
<path fill="none" stroke="#63b8ff" d="M1136.67,-167.59C1146.28,-159.85 1160.13,-148.69 1171.57,-139.47"/>
<polygon fill="#63b8ff" stroke="#63b8ff" points="1173.7,-142.25 1179.28,-133.25 1169.3,-136.8 1173.7,-142.25"/>
</a>
</g>
</g>
<!-- Node24&#45;&gt;Node4 -->
<g id="edge32_Node000024_Node000004" class="edge">
<title>Node24&#45;&gt;Node4</title>
<g id="a_edge32_Node000024_Node000004"><a xlink:title=" ">
<path fill="none" stroke="#63b8ff" d="M317.05,-223.6C323.61,-214.67 333.47,-200.74 341,-188 360.2,-155.48 349.71,-135.83 379,-112 410.73,-86.18 455.82,-75.06 491.59,-70.33"/>
<polygon fill="#63b8ff" stroke="#63b8ff" points="491.82,-73.83 501.35,-69.18 491.01,-66.87 491.82,-73.83"/>
</a>
</g>
</g>
<!-- Node24&#45;&gt;Node9 -->
<g id="edge42_Node000024_Node000009" class="edge">
<title>Node24&#45;&gt;Node9</title>
<g id="a_edge42_Node000024_Node000009"><a xlink:title=" ">
<path fill="none" stroke="#63b8ff" d="M275.83,-233.97C210.58,-233.66 70.19,-222.08 19,-132 0.99,-100.32 53.92,-81.83 90.43,-73.14"/>
<polygon fill="#63b8ff" stroke="#63b8ff" points="91.11,-76.57 100.11,-70.98 89.59,-69.74 91.11,-76.57"/>
</a>
</g>
</g>
<!-- Node24&#45;&gt;Node14 -->
<g id="edge41_Node000024_Node000014" class="edge">
<title>Node24&#45;&gt;Node14</title>
<g id="a_edge41_Node000024_Node000014"><a xlink:title=" ">
<path fill="none" stroke="#63b8ff" d="M323.73,-223.62C351.41,-204.71 414.19,-161.82 448.15,-138.61"/>
<polygon fill="#63b8ff" stroke="#63b8ff" points="449.78,-141.74 456.06,-133.21 445.83,-135.96 449.78,-141.74"/>
</a>
</g>
</g>
<!-- Node24&#45;&gt;Node18 -->
<g id="edge39_Node000024_Node000018" class="edge">
<title>Node24&#45;&gt;Node18</title>
<g id="a_edge39_Node000024_Node000018"><a xlink:title=" ">
<path fill="none" stroke="#63b8ff" d="M338.74,-223.59C365.43,-214.86 405.42,-201.77 435.18,-192.03"/>
<polygon fill="#63b8ff" stroke="#63b8ff" points="436.18,-195.39 444.6,-188.95 434,-188.73 436.18,-195.39"/>
</a>
</g>
</g>
<!-- Node25 -->
<g id="Node000025" class="node">
<title>Node25</title>
<g id="a_Node000025"><a xlink:href="a00101.html" target="_top" xlink:title=" ">
<polygon fill="white" stroke="#666666" points="332.12,-188 259.88,-188 259.88,-168 332.12,-168 332.12,-188"/>
<text text-anchor="middle" x="296" y="-174.5" font-family="Helvetica,sans-Serif" font-size="10.00">CPPPlugin.h</text>
</a>
</g>
</g>
<!-- Node24&#45;&gt;Node25 -->
<g id="edge33_Node000024_Node000025" class="edge">
<title>Node24&#45;&gt;Node25</title>
<g id="a_edge33_Node000024_Node000025"><a xlink:title=" ">
<path fill="none" stroke="#63b8ff" d="M307.56,-223.59C305.83,-216.93 303.45,-207.75 301.3,-199.44"/>
<polygon fill="#63b8ff" stroke="#63b8ff" points="304.69,-198.56 298.79,-189.76 297.91,-200.32 304.69,-198.56"/>
</a>
</g>
</g>
<!-- Node28 -->
<g id="Node000028" class="node">
<title>Node28</title>
<g id="a_Node000028"><a xlink:title=" ">
<polygon fill="#e0e0e0" stroke="#999999" points="180,-188 122,-188 122,-168 180,-168 180,-188"/>
<text text-anchor="middle" x="151" y="-174.5" font-family="Helvetica,sans-Serif" font-size="10.00">exception</text>
</a>
</g>
</g>
<!-- Node24&#45;&gt;Node28 -->
<g id="edge40_Node000024_Node000028" class="edge">
<title>Node24&#45;&gt;Node28</title>
<g id="a_edge40_Node000024_Node000028"><a xlink:title=" ">
<path fill="none" stroke="#63b8ff" d="M282.3,-223.59C256.7,-214.9 218.39,-201.89 189.75,-192.16"/>
<polygon fill="#63b8ff" stroke="#63b8ff" points="190.94,-188.87 180.34,-188.97 188.69,-195.5 190.94,-188.87"/>
</a>
</g>
</g>
<!-- Node29 -->
<g id="Node000029" class="node">
<title>Node29</title>
<g id="a_Node000029"><a xlink:title=" ">
<polygon fill="#e0e0e0" stroke="#999999" points="241.5,-188 198.5,-188 198.5,-168 241.5,-168 241.5,-188"/>
<text text-anchor="middle" x="220" y="-174.5" font-family="Helvetica,sans-Serif" font-size="10.00">thread</text>
</a>
</g>
</g>
<!-- Node24&#45;&gt;Node29 -->
<g id="edge43_Node000024_Node000029" class="edge">
<title>Node24&#45;&gt;Node29</title>
<g id="a_edge43_Node000024_Node000029"><a xlink:title=" ">
<path fill="none" stroke="#63b8ff" d="M294.32,-223.59C280.86,-215.51 261.18,-203.71 245.46,-194.27"/>
<polygon fill="#63b8ff" stroke="#63b8ff" points="247.47,-191.4 237.1,-189.26 243.87,-197.4 247.47,-191.4"/>
</a>
</g>
</g>
<!-- Node25&#45;&gt;Node4 -->
<g id="edge34_Node000025_Node000004" class="edge">
<title>Node25&#45;&gt;Node4</title>
<g id="a_edge34_Node000025_Node000004"><a xlink:title=" ">
<path fill="none" stroke="#63b8ff" d="M300.4,-167.8C307.74,-153.49 323.9,-126.06 346,-112 389.8,-84.13 448.45,-73.37 491.45,-69.3"/>
<polygon fill="#63b8ff" stroke="#63b8ff" points="491.68,-72.79 501.35,-68.46 491.09,-65.81 491.68,-72.79"/>
</a>
</g>
</g>
<!-- Node25&#45;&gt;Node16 -->
<g id="edge38_Node000025_Node000016" class="edge">
<title>Node25&#45;&gt;Node16</title>
<g id="a_edge38_Node000025_Node000016"><a xlink:title=" ">
<path fill="none" stroke="#63b8ff" d="M315.51,-167.59C332.75,-159.28 358.16,-147.03 377.99,-137.47"/>
<polygon fill="#63b8ff" stroke="#63b8ff" points="379.49,-140.63 386.98,-133.14 376.45,-134.33 379.49,-140.63"/>
</a>
</g>
</g>
<!-- Node26 -->
<g id="Node000026" class="node">
<title>Node26</title>
<g id="a_Node000026"><a xlink:href="a00044.html" target="_top" xlink:title=" ">
<polygon fill="white" stroke="#666666" points="107.88,-132 28.12,-132 28.12,-112 107.88,-112 107.88,-132"/>
<text text-anchor="middle" x="68" y="-118.5" font-family="Helvetica,sans-Serif" font-size="10.00">PluginConfig.h</text>
</a>
</g>
</g>
<!-- Node25&#45;&gt;Node26 -->
<g id="edge35_Node000025_Node000026" class="edge">
<title>Node25&#45;&gt;Node26</title>
<g id="a_edge35_Node000025_Node000026"><a xlink:title=" ">
<path fill="none" stroke="#63b8ff" d="M259.62,-168.38C221.65,-159.39 161.8,-145.22 119.1,-135.1"/>
<polygon fill="#63b8ff" stroke="#63b8ff" points="120.1,-131.74 109.56,-132.84 118.48,-138.55 120.1,-131.74"/>
</a>
</g>
</g>
<!-- Node27 -->
<g id="Node000027" class="node">
<title>Node27</title>
<g id="a_Node000027"><a xlink:title=" ">
<polygon fill="#e0e0e0" stroke="#999999" points="293.62,-132 242.38,-132 242.38,-112 293.62,-112 293.62,-132"/>
<text text-anchor="middle" x="268" y="-118.5" font-family="Helvetica,sans-Serif" font-size="10.00">memory</text>
</a>
</g>
</g>
<!-- Node25&#45;&gt;Node27 -->
<g id="edge37_Node000025_Node000027" class="edge">
<title>Node25&#45;&gt;Node27</title>
<g id="a_edge37_Node000025_Node000027"><a xlink:title=" ">
<path fill="none" stroke="#63b8ff" d="M291.12,-167.59C287.51,-160.63 282.46,-150.89 278,-142.29"/>
<polygon fill="#63b8ff" stroke="#63b8ff" points="281.23,-140.91 273.52,-133.64 275.01,-144.13 281.23,-140.91"/>
</a>
</g>
</g>
<!-- Node26&#45;&gt;Node9 -->
<g id="edge36_Node000026_Node000009" class="edge">
<title>Node26&#45;&gt;Node9</title>
<g id="a_edge36_Node000026_Node000009"><a xlink:title=" ">
<path fill="none" stroke="#63b8ff" d="M77.41,-111.59C84.92,-104.08 95.65,-93.35 104.7,-84.3"/>
<polygon fill="#63b8ff" stroke="#63b8ff" points="107.04,-86.91 111.63,-77.37 102.09,-81.96 107.04,-86.91"/>
</a>
</g>
</g>
<!-- Node30&#45;&gt;Node4 -->
<g id="edge45_Node000030_Node000004" class="edge">
<title>Node30&#45;&gt;Node4</title>
<g id="a_edge45_Node000030_Node000004"><a xlink:title=" ">
<path fill="none" stroke="#63b8ff" d="M224.67,-113.25C227.49,-112.82 230.28,-112.4 233,-112 323.17,-98.58 427.95,-83.83 491.32,-74.99"/>
<polygon fill="#63b8ff" stroke="#63b8ff" points="491.74,-78.47 501.16,-73.62 490.77,-71.54 491.74,-78.47"/>
</a>
</g>
</g>
<!-- Node30&#45;&gt;Node9 -->
<g id="edge46_Node000030_Node000009" class="edge">
<title>Node30&#45;&gt;Node9</title>
<g id="a_edge46_Node000030_Node000009"><a xlink:title=" ">
<path fill="none" stroke="#63b8ff" d="M165.77,-111.59C158.4,-104.08 147.87,-93.35 138.98,-84.3"/>
<polygon fill="#63b8ff" stroke="#63b8ff" points="141.69,-82.06 132.19,-77.38 136.69,-86.97 141.69,-82.06"/>
</a>
</g>
</g>
<!-- Node31&#45;&gt;Node2 -->
<g id="edge48_Node000031_Node000002" class="edge">
<title>Node31&#45;&gt;Node2</title>
<g id="a_edge48_Node000031_Node000002"><a xlink:title=" ">
<path fill="none" stroke="#63b8ff" d="M389.88,-341.62C401.54,-332.41 419.58,-318.17 433.56,-307.14"/>
<polygon fill="#63b8ff" stroke="#63b8ff" points="435.59,-309.99 441.27,-301.05 431.25,-304.5 435.59,-309.99"/>
</a>
</g>
</g>
<!-- Node32&#45;&gt;Node2 -->
<g id="edge50_Node000032_Node000002" class="edge">
<title>Node32&#45;&gt;Node2</title>
<g id="a_edge50_Node000032_Node000002"><a xlink:title=" ">
<path fill="none" stroke="#63b8ff" d="M577.19,-341.62C552.97,-331.67 514.48,-315.85 486.97,-304.55"/>
<polygon fill="#63b8ff" stroke="#63b8ff" points="488.63,-301.45 478.05,-300.88 485.97,-307.92 488.63,-301.45"/>
</a>
</g>
</g>
<!-- Node32&#45;&gt;Node12 -->
<g id="edge51_Node000032_Node000012" class="edge">
<title>Node32&#45;&gt;Node12</title>
<g id="a_edge51_Node000032_Node000012"><a xlink:title=" ">
<path fill="none" stroke="#63b8ff" d="M625.66,-346.85C716.23,-332 1020.48,-280.5 1112,-244 1180.97,-216.49 1252.99,-165.24 1287.37,-139.15"/>
<polygon fill="#63b8ff" stroke="#63b8ff" points="1289.4,-142 1295.2,-133.13 1285.14,-136.45 1289.4,-142"/>
</a>
</g>
</g>
<!-- Node32&#45;&gt;Node16 -->
<g id="edge52_Node000032_Node000016" class="edge">
<title>Node32&#45;&gt;Node16</title>
<g id="a_edge52_Node000032_Node000016"><a xlink:title=" ">
<path fill="none" stroke="#63b8ff" d="M599.41,-341.88C596.98,-312.3 585.31,-218.05 533,-168 529.44,-164.59 474.87,-145.66 439.02,-133.46"/>
<polygon fill="#63b8ff" stroke="#63b8ff" points="440.15,-130.15 429.56,-130.25 437.9,-136.78 440.15,-130.15"/>
</a>
</g>
</g>
<!-- Node33&#45;&gt;Node18 -->
<g id="edge54_Node000033_Node000018" class="edge">
<title>Node33&#45;&gt;Node18</title>
<g id="a_edge54_Node000033_Node000018"><a xlink:title=" ">
<path fill="none" stroke="#63b8ff" d="M530.8,-279.62C520.85,-261.68 498.94,-222.17 485.73,-198.35"/>
<polygon fill="#63b8ff" stroke="#63b8ff" points="488.83,-196.73 480.92,-189.68 482.71,-200.12 488.83,-196.73"/>
</a>
</g>
</g>
<!-- Node34&#45;&gt;Node12 -->
<g id="edge56_Node000034_Node000012" class="edge">
<title>Node34&#45;&gt;Node12</title>
<g id="a_edge56_Node000034_Node000012"><a xlink:title=" ">
<path fill="none" stroke="#63b8ff" d="M1256.35,-279.68C1259.61,-267 1265.79,-243.65 1272,-224 1280.97,-195.65 1292.76,-163.35 1300.36,-143.07"/>
<polygon fill="#63b8ff" stroke="#63b8ff" points="1303.6,-144.4 1303.86,-133.81 1297.05,-141.93 1303.6,-144.4"/>
</a>
</g>
</g>
<!-- Node35&#45;&gt;Node12 -->
<g id="edge58_Node000035_Node000012" class="edge">
<title>Node35&#45;&gt;Node12</title>
<g id="a_edge58_Node000035_Node000012"><a xlink:title=" ">
<path fill="none" stroke="#63b8ff" d="M1320.81,-223.62C1318.56,-206.01 1313.68,-167.59 1310.63,-143.65"/>
<polygon fill="#63b8ff" stroke="#63b8ff" points="1314.12,-143.33 1309.38,-133.86 1307.17,-144.22 1314.12,-143.33"/>
</a>
</g>
</g>
<!-- Node36&#45;&gt;Node2 -->
<g id="edge60_Node000036_Node000002" class="edge">
<title>Node36&#45;&gt;Node2</title>
<g id="a_edge60_Node000036_Node000002"><a xlink:title=" ">
<path fill="none" stroke="#63b8ff" d="M451.47,-341.62C451.87,-333.56 452.47,-321.65 452.98,-311.41"/>
<polygon fill="#63b8ff" stroke="#63b8ff" points="456.46,-311.79 453.47,-301.62 449.47,-311.44 456.46,-311.79"/>
</a>
</g>
</g>
</g>
</svg>
