<?xml version="1.0" encoding="UTF-8" standalone="no"?>
<!DOCTYPE svg PUBLIC "-//W3C//DTD SVG 1.1//EN"
 "http://www.w3.org/Graphics/SVG/1.1/DTD/svg11.dtd">
<!-- Generated by graphviz version 2.50.0 (20211204.2007)
 -->
<!-- Title: LibLoader::tick Pages: 1 -->
<svg width="1576pt" height="95pt"
 viewBox="0.00 0.00 1576.00 95.00" xmlns="http://www.w3.org/2000/svg" xmlns:xlink="http://www.w3.org/1999/xlink">
<g id="graph0" class="graph" transform="scale(1 1) rotate(0) translate(4 91)">
<title>LibLoader::tick</title>
<polygon fill="white" stroke="transparent" points="-4,4 -4,-91 1572,-91 1572,4 -4,4"/>
<!-- Node1 -->
<g id="node1" class="node">
<title>Node1</title>
<g id="a_node1"><a xlink:title=" ">
<polygon fill="#bfbfbf" stroke="black" points="0,-31 0,-50 80,-50 80,-31 0,-31"/>
<text text-anchor="middle" x="40" y="-38" font-family="Helvetica,sans-Serif" font-size="10.00">LibLoader::tick</text>
</a>
</g>
</g>
<!-- Node2 -->
<g id="node2" class="node">
<title>Node2</title>
<g id="a_node2"><a xlink:href="a00310.html#a60264799b74fbe2b0466d1de609cf95b" target="_top" xlink:title="libLoader线程tick调用，弹出所有计时器">
<polygon fill="white" stroke="black" points="116,-25.5 116,-55.5 224,-55.5 224,-25.5 116,-25.5"/>
<text text-anchor="start" x="124" y="-43.5" font-family="Helvetica,sans-Serif" font-size="10.00">LibLoader::Scheduler</text>
<text text-anchor="middle" x="170" y="-32.5" font-family="Helvetica,sans-Serif" font-size="10.00">::popSchedule</text>
</a>
</g>
</g>
<!-- Node1&#45;&gt;Node2 -->
<g id="edge1" class="edge">
<title>Node1&#45;&gt;Node2</title>
<path fill="none" stroke="midnightblue" d="M80.1,-40.5C88.24,-40.5 97.01,-40.5 105.77,-40.5"/>
<polygon fill="midnightblue" stroke="midnightblue" points="106,-44 116,-40.5 106,-37 106,-44"/>
</g>
<!-- Node3 -->
<g id="node3" class="node">
<title>Node3</title>
<g id="a_node3"><a xlink:href="a00310.html#ac881189d7d1fb1cc7c41315fef6f46ad" target="_top" xlink:title=" ">
<polygon fill="white" stroke="black" points="260,-25.5 260,-55.5 368,-55.5 368,-25.5 260,-25.5"/>
<text text-anchor="start" x="268" y="-43.5" font-family="Helvetica,sans-Serif" font-size="10.00">LibLoader::Scheduler</text>
<text text-anchor="middle" x="314" y="-32.5" font-family="Helvetica,sans-Serif" font-size="10.00">::sendTimeoutEvent</text>
</a>
</g>
</g>
<!-- Node2&#45;&gt;Node3 -->
<g id="edge2" class="edge">
<title>Node2&#45;&gt;Node3</title>
<path fill="none" stroke="midnightblue" d="M224.28,-40.5C232.56,-40.5 241.18,-40.5 249.66,-40.5"/>
<polygon fill="midnightblue" stroke="midnightblue" points="249.89,-44 259.89,-40.5 249.89,-37 249.89,-44"/>
</g>
<!-- Node4 -->
<g id="node4" class="node">
<title>Node4</title>
<g id="a_node4"><a xlink:href="a00413.html#a7c0a6244c87ea973c8ce52269f72ec8a" target="_top" xlink:title=" ">
<polygon fill="white" stroke="black" points="404,-25.5 404,-55.5 549,-55.5 549,-25.5 404,-25.5"/>
<text text-anchor="start" x="412" y="-43.5" font-family="Helvetica,sans-Serif" font-size="10.00">LibLoader::PluginListManager</text>
<text text-anchor="middle" x="476.5" y="-32.5" font-family="Helvetica,sans-Serif" font-size="10.00">::broadcastToOnePlugin</text>
</a>
</g>
</g>
<!-- Node3&#45;&gt;Node4 -->
<g id="edge3" class="edge">
<title>Node3&#45;&gt;Node4</title>
<path fill="none" stroke="midnightblue" d="M368.44,-40.5C376.57,-40.5 385.11,-40.5 393.68,-40.5"/>
<polygon fill="midnightblue" stroke="midnightblue" points="393.72,-44 403.72,-40.5 393.72,-37 393.72,-44"/>
</g>
<!-- Node5 -->
<g id="node5" class="node">
<title>Node5</title>
<g id="a_node5"><a xlink:href="a00393.html#ae735f16b20f681d29d4e5d28ad248dbe" target="_top" xlink:title=" ">
<polygon fill="white" stroke="black" points="585,-25.5 585,-55.5 708,-55.5 708,-25.5 585,-25.5"/>
<text text-anchor="start" x="593" y="-43.5" font-family="Helvetica,sans-Serif" font-size="10.00">LibLoader::LoaderLogger</text>
<text text-anchor="middle" x="646.5" y="-32.5" font-family="Helvetica,sans-Serif" font-size="10.00">::error</text>
</a>
</g>
</g>
<!-- Node4&#45;&gt;Node5 -->
<g id="edge4" class="edge">
<title>Node4&#45;&gt;Node5</title>
<path fill="none" stroke="midnightblue" d="M549.23,-40.5C557.67,-40.5 566.27,-40.5 574.69,-40.5"/>
<polygon fill="midnightblue" stroke="midnightblue" points="574.85,-44 584.85,-40.5 574.85,-37 574.85,-44"/>
</g>
<!-- Node6 -->
<g id="node6" class="node">
<title>Node6</title>
<g id="a_node6"><a xlink:href="a00393.html#af4d7d5164450e25f7401d1cc15f15b8d" target="_top" xlink:title="实际暴露的接口">
<polygon fill="white" stroke="black" points="744,-25.5 744,-55.5 867,-55.5 867,-25.5 744,-25.5"/>
<text text-anchor="start" x="752" y="-43.5" font-family="Helvetica,sans-Serif" font-size="10.00">LibLoader::LoaderLogger</text>
<text text-anchor="middle" x="805.5" y="-32.5" font-family="Helvetica,sans-Serif" font-size="10.00">::call_logger</text>
</a>
</g>
</g>
<!-- Node5&#45;&gt;Node6 -->
<g id="edge5" class="edge">
<title>Node5&#45;&gt;Node6</title>
<path fill="none" stroke="midnightblue" d="M708.2,-40.5C716.64,-40.5 725.36,-40.5 733.95,-40.5"/>
<polygon fill="midnightblue" stroke="midnightblue" points="733.96,-44 743.96,-40.5 733.96,-37 733.96,-44"/>
</g>
<!-- Node7 -->
<g id="node7" class="node">
<title>Node7</title>
<g id="a_node7"><a xlink:href="a00309.html#a076c5f4ff8083c7cfc6523498d0ba30f" target="_top" xlink:title=" ">
<polygon fill="white" stroke="black" points="1058,-56.5 1058,-86.5 1157,-86.5 1157,-56.5 1058,-56.5"/>
<text text-anchor="start" x="1066" y="-74.5" font-family="Helvetica,sans-Serif" font-size="10.00">LibLoader::JNIEnvs</text>
<text text-anchor="middle" x="1107.5" y="-63.5" font-family="Helvetica,sans-Serif" font-size="10.00">::getEnv</text>
</a>
</g>
</g>
<!-- Node6&#45;&gt;Node7 -->
<g id="edge6" class="edge">
<title>Node6&#45;&gt;Node7</title>
<path fill="none" stroke="midnightblue" d="M867.04,-53.72C878.91,-55.95 891.31,-58.01 903,-59.5 951.55,-65.68 1007.02,-68.69 1047.78,-70.14"/>
<polygon fill="midnightblue" stroke="midnightblue" points="1047.7,-73.64 1057.81,-70.48 1047.93,-66.65 1047.7,-73.64"/>
</g>
<!-- Node11 -->
<g id="node11" class="node">
<title>Node11</title>
<g id="a_node11"><a xlink:href="a00304.html#a6a6fcd695791253a9b3a053d313b2b93" target="_top" xlink:title=" ">
<polygon fill="white" stroke="black" points="903,-31 903,-50 1010,-50 1010,-31 903,-31"/>
<text text-anchor="middle" x="956.5" y="-38" font-family="Helvetica,sans-Serif" font-size="10.00">LibLoader::str2jstring</text>
</a>
</g>
</g>
<!-- Node6&#45;&gt;Node11 -->
<g id="edge10" class="edge">
<title>Node6&#45;&gt;Node11</title>
<path fill="none" stroke="midnightblue" d="M867.1,-40.5C875.47,-40.5 884.07,-40.5 892.48,-40.5"/>
<polygon fill="midnightblue" stroke="midnightblue" points="892.6,-44 902.6,-40.5 892.6,-37 892.6,-44"/>
</g>
<!-- Node8 -->
<g id="node8" class="node">
<title>Node8</title>
<g id="a_node8"><a xlink:href="a00361.html#aea7d58ff9f04d6d4849c25a2506603a5" target="_top" xlink:title="取env,如果不存在重新获取">
<polygon fill="white" stroke="black" points="1205,-62 1205,-81 1324,-81 1324,-62 1205,-62"/>
<text text-anchor="middle" x="1264.5" y="-69" font-family="Helvetica,sans-Serif" font-size="10.00">JNIEnvManager::getEnv</text>
</a>
</g>
</g>
<!-- Node7&#45;&gt;Node8 -->
<g id="edge7" class="edge">
<title>Node7&#45;&gt;Node8</title>
<path fill="none" stroke="midnightblue" d="M1157.12,-71.5C1169.1,-71.5 1182.15,-71.5 1194.88,-71.5"/>
<polygon fill="midnightblue" stroke="midnightblue" points="1194.99,-75 1204.99,-71.5 1194.99,-68 1194.99,-75"/>
</g>
<!-- Node9 -->
<g id="node9" class="node">
<title>Node9</title>
<g id="a_node9"><a xlink:href="a00197.html#a3d31403b7971274d47d308245206bd24" target="_top" xlink:title="为当前线程创建一个env.">
<polygon fill="white" stroke="black" points="1360,-62 1360,-81 1410,-81 1410,-62 1360,-62"/>
<text text-anchor="middle" x="1385" y="-69" font-family="Helvetica,sans-Serif" font-size="10.00">newEnv</text>
</a>
</g>
</g>
<!-- Node8&#45;&gt;Node9 -->
<g id="edge8" class="edge">
<title>Node8&#45;&gt;Node9</title>
<path fill="none" stroke="midnightblue" d="M1324.06,-71.5C1332.89,-71.5 1341.75,-71.5 1349.85,-71.5"/>
<polygon fill="midnightblue" stroke="midnightblue" points="1349.98,-75 1359.98,-71.5 1349.98,-68 1349.98,-75"/>
</g>
<!-- Node10 -->
<g id="node10" class="node">
<title>Node10</title>
<g id="a_node10"><a xlink:href="a00361.html#ae0e482c6a813848a8f5d34957d1b6307" target="_top" xlink:title="获取全局JavaVM对象.">
<polygon fill="white" stroke="black" points="1446,-62 1446,-81 1568,-81 1568,-62 1446,-62"/>
<text text-anchor="middle" x="1507" y="-69" font-family="Helvetica,sans-Serif" font-size="10.00">JNIEnvManager::getGvm</text>
</a>
</g>
</g>
<!-- Node9&#45;&gt;Node10 -->
<g id="edge9" class="edge">
<title>Node9&#45;&gt;Node10</title>
<path fill="none" stroke="midnightblue" d="M1410.28,-71.5C1417.75,-71.5 1426.37,-71.5 1435.32,-71.5"/>
<polygon fill="midnightblue" stroke="midnightblue" points="1435.52,-75 1445.52,-71.5 1435.52,-68 1435.52,-75"/>
</g>
<!-- Node11&#45;&gt;Node7 -->
<g id="edge11" class="edge">
<title>Node11&#45;&gt;Node7</title>
<path fill="none" stroke="midnightblue" d="M1003.42,-50.05C1017.45,-52.97 1033.08,-56.23 1047.84,-59.3"/>
<polygon fill="midnightblue" stroke="midnightblue" points="1047.39,-62.78 1057.89,-61.39 1048.81,-55.92 1047.39,-62.78"/>
</g>
<!-- Node12 -->
<g id="node12" class="node">
<title>Node12</title>
<g id="a_node12"><a xlink:href="a00393.html#af50d0545fe7d683e54fcd03453a423e3" target="_top" xlink:title=" ">
<polygon fill="white" stroke="black" points="1046,-0.5 1046,-30.5 1169,-30.5 1169,-0.5 1046,-0.5"/>
<text text-anchor="start" x="1054" y="-18.5" font-family="Helvetica,sans-Serif" font-size="10.00">LibLoader::LoaderLogger</text>
<text text-anchor="middle" x="1107.5" y="-7.5" font-family="Helvetica,sans-Serif" font-size="10.00">::warning</text>
</a>
</g>
</g>
<!-- Node11&#45;&gt;Node12 -->
<g id="edge12" class="edge">
<title>Node11&#45;&gt;Node12</title>
<path fill="none" stroke="midnightblue" d="M1010.03,-31.69C1018.34,-30.29 1027.05,-28.83 1035.7,-27.38"/>
<polygon fill="midnightblue" stroke="midnightblue" points="1036.5,-30.79 1045.79,-25.69 1035.35,-23.89 1036.5,-30.79"/>
</g>
<!-- Node12&#45;&gt;Node6 -->
<g id="edge13" class="edge">
<title>Node12&#45;&gt;Node6</title>
<path fill="none" stroke="midnightblue" d="M1045.76,-14.68C1005.22,-14.77 950.77,-16.13 903,-21.5 894.58,-22.45 885.81,-23.74 877.13,-25.21"/>
<polygon fill="midnightblue" stroke="midnightblue" points="876.24,-21.81 867.01,-27 877.46,-28.7 876.24,-21.81"/>
</g>
</g>
</svg>
