<?xml version="1.0" encoding="UTF-8" standalone="no"?>
<!DOCTYPE svg PUBLIC "-//W3C//DTD SVG 1.1//EN"
 "http://www.w3.org/Graphics/SVG/1.1/DTD/svg11.dtd">
<!-- Generated by graphviz version 2.50.0 (20211204.2007)
 -->
<!-- Title: MiraiCP::newFriendRequestInternal Pages: 1 -->
<svg width="1640pt" height="255pt"
 viewBox="0.00 0.00 1640.00 254.76" xmlns="http://www.w3.org/2000/svg" xmlns:xlink="http://www.w3.org/1999/xlink">
<g id="graph0" class="graph" transform="scale(1 1) rotate(0) translate(4 250.76)">
<title>MiraiCP::newFriendRequestInternal</title>
<polygon fill="white" stroke="transparent" points="-4,4 -4,-250.76 1636,-250.76 1636,4 -4,4"/>
<!-- Node1 -->
<g id="node1" class="node">
<title>Node1</title>
<g id="a_node1"><a xlink:title=" ">
<polygon fill="#bfbfbf" stroke="black" points="0,-142.26 0,-172.26 137,-172.26 137,-142.26 0,-142.26"/>
<text text-anchor="start" x="8" y="-160.26" font-family="Helvetica,sans-Serif" font-size="10.00">MiraiCP::newFriendRequest</text>
<text text-anchor="middle" x="68.5" y="-149.26" font-family="Helvetica,sans-Serif" font-size="10.00">Internal</text>
</a>
</g>
</g>
<!-- Node2 -->
<g id="node2" class="node">
<title>Node2</title>
<g id="a_node2"><a xlink:href="a00612.html#af14d39efa300da183070784bc86d3f23" target="_top" xlink:title="发送错误(error级日志)">
<polygon fill="white" stroke="black" points="173,-167.26 173,-197.26 301,-197.26 301,-167.26 173,-167.26"/>
<text text-anchor="start" x="181" y="-185.26" font-family="Helvetica,sans-Serif" font-size="10.00">MiraiCP::Logger_interface</text>
<text text-anchor="middle" x="237" y="-174.26" font-family="Helvetica,sans-Serif" font-size="10.00">::error</text>
</a>
</g>
</g>
<!-- Node1&#45;&gt;Node2 -->
<g id="edge1" class="edge">
<title>Node1&#45;&gt;Node2</title>
<path fill="none" stroke="midnightblue" d="M137.22,-167.43C145.7,-168.7 154.4,-170.01 162.95,-171.29"/>
<polygon fill="midnightblue" stroke="midnightblue" points="162.5,-174.76 172.91,-172.79 163.54,-167.84 162.5,-174.76"/>
</g>
<!-- Node5 -->
<g id="node5" class="node">
<title>Node5</title>
<g id="a_node5"><a xlink:href="a00415.html#a309e8d7f316e8b5e947ea3bcddeb84a8" target="_top" xlink:title="调用 Mirai 操作">
<polygon fill="white" stroke="black" points="182.5,-118.26 182.5,-148.26 291.5,-148.26 291.5,-118.26 182.5,-118.26"/>
<text text-anchor="start" x="190.5" y="-136.26" font-family="Helvetica,sans-Serif" font-size="10.00">MiraiCP::KtOperation</text>
<text text-anchor="middle" x="237" y="-125.26" font-family="Helvetica,sans-Serif" font-size="10.00">::ktOperation</text>
</a>
</g>
</g>
<!-- Node1&#45;&gt;Node5 -->
<g id="edge4" class="edge">
<title>Node1&#45;&gt;Node5</title>
<path fill="none" stroke="midnightblue" d="M137.22,-147.5C148.85,-145.82 160.9,-144.09 172.41,-142.43"/>
<polygon fill="midnightblue" stroke="midnightblue" points="172.97,-145.88 182.37,-140.99 171.98,-138.95 172.97,-145.88"/>
</g>
<!-- Node3 -->
<g id="node3" class="node">
<title>Node3</title>
<g id="a_node3"><a xlink:href="a00612.html#a98af60f864a0446e23a7a27a3419d9b8" target="_top" xlink:title=" ">
<polygon fill="white" stroke="black" points="337,-216.26 337,-246.26 465,-246.26 465,-216.26 337,-216.26"/>
<text text-anchor="start" x="345" y="-234.26" font-family="Helvetica,sans-Serif" font-size="10.00">MiraiCP::Logger_interface</text>
<text text-anchor="middle" x="401" y="-223.26" font-family="Helvetica,sans-Serif" font-size="10.00">::constructString</text>
</a>
</g>
</g>
<!-- Node2&#45;&gt;Node3 -->
<g id="edge2" class="edge">
<title>Node2&#45;&gt;Node3</title>
<path fill="none" stroke="midnightblue" d="M287.93,-197.36C304.48,-202.37 323.07,-207.99 340.29,-213.2"/>
<polygon fill="midnightblue" stroke="midnightblue" points="339.65,-216.66 350.24,-216.21 341.68,-209.96 339.65,-216.66"/>
</g>
<!-- Node4 -->
<g id="node4" class="node">
<title>Node4</title>
<g id="a_node4"><a xlink:href="a00612.html#a86ea9d57475a3004be2a32b2c4c76371" target="_top" xlink:title="日志底层实现封装">
<polygon fill="white" stroke="black" points="337,-167.26 337,-197.26 465,-197.26 465,-167.26 337,-167.26"/>
<text text-anchor="start" x="345" y="-185.26" font-family="Helvetica,sans-Serif" font-size="10.00">MiraiCP::Logger_interface</text>
<text text-anchor="middle" x="401" y="-174.26" font-family="Helvetica,sans-Serif" font-size="10.00">::log_interface</text>
</a>
</g>
</g>
<!-- Node2&#45;&gt;Node4 -->
<g id="edge3" class="edge">
<title>Node2&#45;&gt;Node4</title>
<path fill="none" stroke="midnightblue" d="M301.1,-182.26C309.43,-182.26 318.04,-182.26 326.53,-182.26"/>
<polygon fill="midnightblue" stroke="midnightblue" points="326.81,-185.76 336.81,-182.26 326.81,-178.76 326.81,-185.76"/>
</g>
<!-- Node6 -->
<g id="node6" class="node">
<title>Node6</title>
<g id="a_node6"><a xlink:href="a00415.html#a1e1e498928eeaa1d7107033ff5fa881a" target="_top" xlink:title="调用 Mirai 操作">
<polygon fill="white" stroke="black" points="346.5,-118.26 346.5,-148.26 455.5,-148.26 455.5,-118.26 346.5,-118.26"/>
<text text-anchor="start" x="354.5" y="-136.26" font-family="Helvetica,sans-Serif" font-size="10.00">MiraiCP::KtOperation</text>
<text text-anchor="middle" x="401" y="-125.26" font-family="Helvetica,sans-Serif" font-size="10.00">::ktOperationStr</text>
</a>
</g>
</g>
<!-- Node5&#45;&gt;Node6 -->
<g id="edge5" class="edge">
<title>Node5&#45;&gt;Node6</title>
<path fill="none" stroke="midnightblue" d="M291.94,-133.26C306.15,-133.26 321.62,-133.26 336.29,-133.26"/>
<polygon fill="midnightblue" stroke="midnightblue" points="336.29,-136.76 346.29,-133.26 336.29,-129.76 336.29,-136.76"/>
</g>
<!-- Node7 -->
<g id="node7" class="node">
<title>Node7</title>
<g id="a_node7"><a xlink:href="a00408.html#a4c6ac4cf4ba5ff0adb7656708bbb67d0" target="_top" xlink:title="interfaces for plugins">
<polygon fill="white" stroke="black" points="501,-118.26 501,-148.26 609,-148.26 609,-118.26 501,-118.26"/>
<text text-anchor="start" x="509" y="-136.26" font-family="Helvetica,sans-Serif" font-size="10.00">LibLoader::LoaderApi</text>
<text text-anchor="middle" x="555" y="-125.26" font-family="Helvetica,sans-Serif" font-size="10.00">::pluginOperation</text>
</a>
</g>
</g>
<!-- Node6&#45;&gt;Node7 -->
<g id="edge6" class="edge">
<title>Node6&#45;&gt;Node7</title>
<path fill="none" stroke="midnightblue" d="M455.59,-133.26C466.96,-133.26 479.07,-133.26 490.76,-133.26"/>
<polygon fill="midnightblue" stroke="midnightblue" points="490.89,-136.76 500.89,-133.26 490.89,-129.76 490.89,-136.76"/>
</g>
<!-- Node8 -->
<g id="node8" class="node">
<title>Node8</title>
<g id="a_node8"><a xlink:href="a00740.html#acc90fdac094544c4ddd9d6fd13baa5da" target="_top" xlink:title=" ">
<polygon fill="white" stroke="black" points="645,-181.26 645,-211.26 780,-211.26 780,-181.26 645,-181.26"/>
<text text-anchor="start" x="653" y="-199.26" font-family="Helvetica,sans-Serif" font-size="10.00">MiraiCP::MiraiCPStringview</text>
<text text-anchor="middle" x="712.5" y="-188.26" font-family="Helvetica,sans-Serif" font-size="10.00">::c_str</text>
</a>
</g>
</g>
<!-- Node7&#45;&gt;Node8 -->
<g id="edge7" class="edge">
<title>Node7&#45;&gt;Node8</title>
<path fill="none" stroke="midnightblue" d="M593.25,-148.35C614.71,-157.05 641.89,-168.06 664.77,-177.33"/>
<polygon fill="midnightblue" stroke="midnightblue" points="663.71,-180.67 674.29,-181.19 666.33,-174.19 663.71,-180.67"/>
</g>
<!-- Node9 -->
<g id="node9" class="node">
<title>Node9</title>
<g id="a_node9"><a xlink:href="a00768.html#aea7d58ff9f04d6d4849c25a2506603a5" target="_top" xlink:title="取env,如果不存在重新获取">
<polygon fill="white" stroke="black" points="1269,-104.76 1269,-123.76 1388,-123.76 1388,-104.76 1269,-104.76"/>
<text text-anchor="middle" x="1328.5" y="-111.76" font-family="Helvetica,sans-Serif" font-size="10.00">JNIEnvManager::getEnv</text>
</a>
</g>
</g>
<!-- Node7&#45;&gt;Node9 -->
<g id="edge8" class="edge">
<title>Node7&#45;&gt;Node9</title>
<path fill="none" stroke="midnightblue" d="M609.25,-138.35C672.8,-143.98 782.3,-152.26 876.5,-152.26 876.5,-152.26 876.5,-152.26 1037.5,-152.26 1119.89,-152.26 1214.34,-137 1272.46,-125.82"/>
<polygon fill="midnightblue" stroke="midnightblue" points="1273.39,-129.2 1282.53,-123.85 1272.05,-122.33 1273.39,-129.2"/>
</g>
<!-- Node12 -->
<g id="node12" class="node">
<title>Node12</title>
<g id="a_node12"><a xlink:href="a00407.html#aa5f8d0ecd9dd392b491070aace643ae3" target="_top" xlink:title=" ">
<polygon fill="white" stroke="black" points="824,-104.76 824,-123.76 931,-123.76 931,-104.76 824,-104.76"/>
<text text-anchor="middle" x="877.5" y="-111.76" font-family="Helvetica,sans-Serif" font-size="10.00">LibLoader::jstring2str</text>
</a>
</g>
</g>
<!-- Node7&#45;&gt;Node12 -->
<g id="edge11" class="edge">
<title>Node7&#45;&gt;Node12</title>
<path fill="none" stroke="midnightblue" d="M609.28,-130.1C665.57,-126.77 754.25,-121.51 813.85,-117.98"/>
<polygon fill="midnightblue" stroke="midnightblue" points="814.11,-121.47 823.89,-117.38 813.7,-114.48 814.11,-121.47"/>
</g>
<!-- Node14 -->
<g id="node14" class="node">
<title>Node14</title>
<g id="a_node14"><a xlink:href="a00407.html#a6a6fcd695791253a9b3a053d313b2b93" target="_top" xlink:title=" ">
<polygon fill="white" stroke="black" points="659,-44.76 659,-63.76 766,-63.76 766,-44.76 659,-44.76"/>
<text text-anchor="middle" x="712.5" y="-51.76" font-family="Helvetica,sans-Serif" font-size="10.00">LibLoader::str2jstring</text>
</a>
</g>
</g>
<!-- Node7&#45;&gt;Node14 -->
<g id="edge14" class="edge">
<title>Node7&#45;&gt;Node14</title>
<path fill="none" stroke="midnightblue" d="M585.61,-118.22C613.83,-103.88 656,-82.46 683.63,-68.42"/>
<polygon fill="midnightblue" stroke="midnightblue" points="685.42,-71.44 692.75,-63.79 682.25,-65.2 685.42,-71.44"/>
</g>
<!-- Node10 -->
<g id="node10" class="node">
<title>Node10</title>
<g id="a_node10"><a xlink:href="a00200.html#a3d31403b7971274d47d308245206bd24" target="_top" xlink:title="为当前线程创建一个env.">
<polygon fill="white" stroke="black" points="1424,-104.76 1424,-123.76 1474,-123.76 1474,-104.76 1424,-104.76"/>
<text text-anchor="middle" x="1449" y="-111.76" font-family="Helvetica,sans-Serif" font-size="10.00">newEnv</text>
</a>
</g>
</g>
<!-- Node9&#45;&gt;Node10 -->
<g id="edge9" class="edge">
<title>Node9&#45;&gt;Node10</title>
<path fill="none" stroke="midnightblue" d="M1388.06,-114.26C1396.89,-114.26 1405.75,-114.26 1413.85,-114.26"/>
<polygon fill="midnightblue" stroke="midnightblue" points="1413.98,-117.76 1423.98,-114.26 1413.98,-110.76 1413.98,-117.76"/>
</g>
<!-- Node11 -->
<g id="node11" class="node">
<title>Node11</title>
<g id="a_node11"><a xlink:href="a00768.html#ae0e482c6a813848a8f5d34957d1b6307" target="_top" xlink:title="获取全局JavaVM对象.">
<polygon fill="white" stroke="black" points="1510,-104.76 1510,-123.76 1632,-123.76 1632,-104.76 1510,-104.76"/>
<text text-anchor="middle" x="1571" y="-111.76" font-family="Helvetica,sans-Serif" font-size="10.00">JNIEnvManager::getGvm</text>
</a>
</g>
</g>
<!-- Node10&#45;&gt;Node11 -->
<g id="edge10" class="edge">
<title>Node10&#45;&gt;Node11</title>
<path fill="none" stroke="midnightblue" d="M1474.28,-114.26C1481.75,-114.26 1490.37,-114.26 1499.32,-114.26"/>
<polygon fill="midnightblue" stroke="midnightblue" points="1499.52,-117.76 1509.52,-114.26 1499.52,-110.76 1499.52,-117.76"/>
</g>
<!-- Node13 -->
<g id="node13" class="node">
<title>Node13</title>
<g id="a_node13"><a xlink:href="a00411.html#a076c5f4ff8083c7cfc6523498d0ba30f" target="_top" xlink:title=" ">
<polygon fill="white" stroke="black" points="1134,-77.26 1134,-107.26 1233,-107.26 1233,-77.26 1134,-77.26"/>
<text text-anchor="start" x="1142" y="-95.26" font-family="Helvetica,sans-Serif" font-size="10.00">LibLoader::JNIEnvs</text>
<text text-anchor="middle" x="1183.5" y="-84.26" font-family="Helvetica,sans-Serif" font-size="10.00">::getEnv</text>
</a>
</g>
</g>
<!-- Node12&#45;&gt;Node13 -->
<g id="edge12" class="edge">
<title>Node12&#45;&gt;Node13</title>
<path fill="none" stroke="midnightblue" d="M931.11,-110.45C984.7,-106.58 1067.65,-100.57 1123.46,-96.53"/>
<polygon fill="midnightblue" stroke="midnightblue" points="1123.83,-100.02 1133.55,-95.8 1123.32,-93.03 1123.83,-100.02"/>
</g>
<!-- Node13&#45;&gt;Node9 -->
<g id="edge13" class="edge">
<title>Node13&#45;&gt;Node9</title>
<path fill="none" stroke="midnightblue" d="M1233.31,-99.77C1241.51,-101.03 1250.16,-102.36 1258.75,-103.68"/>
<polygon fill="midnightblue" stroke="midnightblue" points="1258.36,-107.17 1268.78,-105.23 1259.43,-100.25 1258.36,-107.17"/>
</g>
<!-- Node14&#45;&gt;Node13 -->
<g id="edge15" class="edge">
<title>Node14&#45;&gt;Node13</title>
<path fill="none" stroke="midnightblue" d="M766.39,-58.55C854.71,-65.7 1031.59,-80.03 1123.7,-87.5"/>
<polygon fill="midnightblue" stroke="midnightblue" points="1123.44,-90.99 1133.69,-88.31 1124.01,-84.01 1123.44,-90.99"/>
</g>
<!-- Node15 -->
<g id="node15" class="node">
<title>Node15</title>
<g id="a_node15"><a xlink:href="a00800.html#af50d0545fe7d683e54fcd03453a423e3" target="_top" xlink:title=" ">
<polygon fill="white" stroke="black" points="816,-17.26 816,-47.26 939,-47.26 939,-17.26 816,-17.26"/>
<text text-anchor="start" x="824" y="-35.26" font-family="Helvetica,sans-Serif" font-size="10.00">LibLoader::LoaderLogger</text>
<text text-anchor="middle" x="877.5" y="-24.26" font-family="Helvetica,sans-Serif" font-size="10.00">::warning</text>
</a>
</g>
</g>
<!-- Node14&#45;&gt;Node15 -->
<g id="edge16" class="edge">
<title>Node14&#45;&gt;Node15</title>
<path fill="none" stroke="midnightblue" d="M766.42,-47.12C779.01,-45.42 792.65,-43.58 805.89,-41.79"/>
<polygon fill="midnightblue" stroke="midnightblue" points="806.48,-45.24 815.92,-40.44 805.54,-38.31 806.48,-45.24"/>
</g>
<!-- Node16 -->
<g id="node16" class="node">
<title>Node16</title>
<g id="a_node16"><a xlink:href="a00800.html#af4d7d5164450e25f7401d1cc15f15b8d" target="_top" xlink:title="实际暴露的接口">
<polygon fill="white" stroke="black" points="975,-17.26 975,-47.26 1098,-47.26 1098,-17.26 975,-17.26"/>
<text text-anchor="start" x="983" y="-35.26" font-family="Helvetica,sans-Serif" font-size="10.00">LibLoader::LoaderLogger</text>
<text text-anchor="middle" x="1036.5" y="-24.26" font-family="Helvetica,sans-Serif" font-size="10.00">::call_logger</text>
</a>
</g>
</g>
<!-- Node15&#45;&gt;Node16 -->
<g id="edge17" class="edge">
<title>Node15&#45;&gt;Node16</title>
<path fill="none" stroke="midnightblue" d="M939.2,-32.26C947.64,-32.26 956.36,-32.26 964.95,-32.26"/>
<polygon fill="midnightblue" stroke="midnightblue" points="964.96,-35.76 974.96,-32.26 964.96,-28.76 964.96,-35.76"/>
</g>
<!-- Node16&#45;&gt;Node13 -->
<g id="edge18" class="edge">
<title>Node16&#45;&gt;Node13</title>
<path fill="none" stroke="midnightblue" d="M1074.09,-47.4C1093.14,-55.28 1116.61,-65 1136.84,-73.37"/>
<polygon fill="midnightblue" stroke="midnightblue" points="1135.6,-76.64 1146.17,-77.23 1138.27,-70.17 1135.6,-76.64"/>
</g>
<!-- Node16&#45;&gt;Node14 -->
<g id="edge19" class="edge">
<title>Node16&#45;&gt;Node14</title>
<path fill="none" stroke="midnightblue" d="M987.37,-17.24C972.07,-13.15 954.97,-9.3 939,-7.26 884.77,-0.35 869.41,4.4 816,-7.26 787.6,-13.46 757.66,-28.28 737.52,-39.64"/>
<polygon fill="midnightblue" stroke="midnightblue" points="735.64,-36.68 728.74,-44.72 739.15,-42.74 735.64,-36.68"/>
</g>
</g>
</svg>
