<?xml version="1.0" encoding="UTF-8" standalone="no"?>
<!DOCTYPE svg PUBLIC "-//W3C//DTD SVG 1.1//EN"
 "http://www.w3.org/Graphics/SVG/1.1/DTD/svg11.dtd">
<!-- Generated by graphviz version 2.50.0 (20211204.2007)
 -->
<!-- Title: LibLoader::Plugin::testSymbolExistance Pages: 1 -->
<svg width="287pt" height="127pt"
 viewBox="0.00 0.00 287.00 127.00" xmlns="http://www.w3.org/2000/svg" xmlns:xlink="http://www.w3.org/1999/xlink">
<g id="graph0" class="graph" transform="scale(1 1) rotate(0) translate(4 123)">
<title>LibLoader::Plugin::testSymbolExistance</title>
<polygon fill="white" stroke="transparent" points="-4,4 -4,-123 283,-123 283,4 -4,4"/>
<!-- Node1 -->
<g id="node1" class="node">
<title>Node1</title>
<g id="a_node1"><a xlink:title=" ">
<polygon fill="#bfbfbf" stroke="black" points="0,-44.5 0,-74.5 110,-74.5 110,-44.5 0,-44.5"/>
<text text-anchor="start" x="8" y="-62.5" font-family="Helvetica,sans-Serif" font-size="10.00">LibLoader::Plugin::</text>
<text text-anchor="middle" x="55" y="-51.5" font-family="Helvetica,sans-Serif" font-size="10.00">testSymbolExistance</text>
</a>
</g>
</g>
<!-- Node2 -->
<g id="node2" class="node">
<title>Node2</title>
<g id="a_node2"><a xlink:href="a00301.html#aa09e6340966a9de13ad8ce1e88175fa6" target="_top" xlink:title=" ">
<polygon fill="white" stroke="black" points="146,-88.5 146,-118.5 279,-118.5 279,-88.5 146,-88.5"/>
<text text-anchor="start" x="154" y="-106.5" font-family="Helvetica,sans-Serif" font-size="10.00">LibLoader::checkPluginInfo</text>
<text text-anchor="middle" x="212.5" y="-95.5" font-family="Helvetica,sans-Serif" font-size="10.00">Valid</text>
</a>
</g>
</g>
<!-- Node1&#45;&gt;Node2 -->
<g id="edge1" class="edge">
<title>Node1&#45;&gt;Node2</title>
<path fill="none" stroke="midnightblue" d="M109.08,-74.52C121.77,-78.11 135.44,-81.98 148.53,-85.68"/>
<polygon fill="midnightblue" stroke="midnightblue" points="147.82,-89.12 158.4,-88.47 149.73,-82.38 147.82,-89.12"/>
</g>
<!-- Node3 -->
<g id="node3" class="node">
<title>Node3</title>
<g id="a_node3"><a xlink:href="a00035.html#a73d4a4e502a17765df566b528d6a9484" target="_top" xlink:title=" ">
<polygon fill="white" stroke="black" points="192,-50 192,-69 233,-69 233,-50 192,-50"/>
<text text-anchor="middle" x="212.5" y="-57" font-family="Helvetica,sans-Serif" font-size="10.00">Event</text>
</a>
</g>
</g>
<!-- Node1&#45;&gt;Node3 -->
<g id="edge2" class="edge">
<title>Node1&#45;&gt;Node3</title>
<path fill="none" stroke="midnightblue" d="M110.39,-59.5C134.29,-59.5 161.44,-59.5 181.59,-59.5"/>
<polygon fill="midnightblue" stroke="midnightblue" points="181.71,-63 191.71,-59.5 181.71,-56 181.71,-63"/>
</g>
<!-- Node4 -->
<g id="node4" class="node">
<title>Node4</title>
<g id="a_node4"><a xlink:href="a00303.html#a96701ab7dcebb86755310b5c9c434842" target="_top" xlink:title=" ">
<polygon fill="white" stroke="black" points="158.5,-0.5 158.5,-30.5 266.5,-30.5 266.5,-0.5 158.5,-0.5"/>
<text text-anchor="start" x="166.5" y="-18.5" font-family="Helvetica,sans-Serif" font-size="10.00">LibLoader::LoaderApi</text>
<text text-anchor="middle" x="212.5" y="-7.5" font-family="Helvetica,sans-Serif" font-size="10.00">::libSymbolLookup</text>
</a>
</g>
</g>
<!-- Node1&#45;&gt;Node4 -->
<g id="edge3" class="edge">
<title>Node1&#45;&gt;Node4</title>
<path fill="none" stroke="midnightblue" d="M109.08,-44.48C121.77,-40.89 135.44,-37.02 148.53,-33.32"/>
<polygon fill="midnightblue" stroke="midnightblue" points="149.73,-36.62 158.4,-30.53 147.82,-29.88 149.73,-36.62"/>
</g>
</g>
</svg>
