<?xml version="1.0" encoding="UTF-8" standalone="no"?>
<!DOCTYPE svg PUBLIC "-//W3C//DTD SVG 1.1//EN"
 "http://www.w3.org/Graphics/SVG/1.1/DTD/svg11.dtd">
<!-- Generated by graphviz version 2.50.0 (20211204.2007)
 -->
<!-- Title: ExceptionHandle.h Pages: 1 -->
<svg width="679pt" height="84pt"
 viewBox="0.00 0.00 679.00 84.00" xmlns="http://www.w3.org/2000/svg" xmlns:xlink="http://www.w3.org/1999/xlink">
<g id="graph0" class="graph" transform="scale(1 1) rotate(0) translate(4 80)">
<title>ExceptionHandle.h</title>
<polygon fill="white" stroke="transparent" points="-4,4 -4,-80 675,-80 675,4 -4,4"/>
<!-- Node1 -->
<g id="node1" class="node">
<title>Node1</title>
<g id="a_node1"><a xlink:title=" ">
<polygon fill="#bfbfbf" stroke="black" points="287.5,-56.5 287.5,-75.5 385.5,-75.5 385.5,-56.5 287.5,-56.5"/>
<text text-anchor="middle" x="336.5" y="-63.5" font-family="Helvetica,sans-Serif" font-size="10.00">ExceptionHandle.h</text>
</a>
</g>
</g>
<!-- Node2 -->
<g id="node2" class="node">
<title>Node2</title>
<g id="a_node2"><a xlink:href="a00296.html" target="_top" xlink:title=" ">
<polygon fill="white" stroke="black" points="0,-0.5 0,-19.5 69,-19.5 69,-0.5 0,-0.5"/>
<text text-anchor="middle" x="34.5" y="-7.5" font-family="Helvetica,sans-Serif" font-size="10.00">Contact.cpp</text>
</a>
</g>
</g>
<!-- Node1&#45;&gt;Node2 -->
<g id="edge1" class="edge">
<title>Node1&#45;&gt;Node2</title>
<path fill="none" stroke="midnightblue" d="M277.33,-55.18C224.98,-46.38 146.56,-32.89 78.5,-20 75.44,-19.42 72.25,-18.8 69.07,-18.17"/>
<polygon fill="midnightblue" stroke="midnightblue" points="277,-58.68 287.44,-56.88 278.16,-51.77 277,-58.68"/>
</g>
<!-- Node3 -->
<g id="node3" class="node">
<title>Node3</title>
<g id="a_node3"><a xlink:href="a01382.html" target="_top" xlink:title=" ">
<polygon fill="white" stroke="black" points="87.5,-0.5 87.5,-19.5 207.5,-19.5 207.5,-0.5 87.5,-0.5"/>
<text text-anchor="middle" x="147.5" y="-7.5" font-family="Helvetica,sans-Serif" font-size="10.00">ForwardedMessage.cpp</text>
</a>
</g>
</g>
<!-- Node1&#45;&gt;Node3 -->
<g id="edge2" class="edge">
<title>Node1&#45;&gt;Node3</title>
<path fill="none" stroke="midnightblue" d="M296.49,-53.57C260.83,-43.38 209.46,-28.7 177.31,-19.52"/>
<polygon fill="midnightblue" stroke="midnightblue" points="295.98,-57.06 306.55,-56.44 297.9,-50.33 295.98,-57.06"/>
</g>
<!-- Node4 -->
<g id="node4" class="node">
<title>Node4</title>
<g id="a_node4"><a xlink:href="a00338.html" target="_top" xlink:title=" ">
<polygon fill="white" stroke="black" points="225.5,-0.5 225.5,-19.5 287.5,-19.5 287.5,-0.5 225.5,-0.5"/>
<text text-anchor="middle" x="256.5" y="-7.5" font-family="Helvetica,sans-Serif" font-size="10.00">Friend.cpp</text>
</a>
</g>
</g>
<!-- Node1&#45;&gt;Node4 -->
<g id="edge3" class="edge">
<title>Node1&#45;&gt;Node4</title>
<path fill="none" stroke="midnightblue" d="M315.2,-50.62C300.58,-40.76 281.67,-27.99 269.32,-19.65"/>
<polygon fill="midnightblue" stroke="midnightblue" points="313.4,-53.63 323.65,-56.32 317.32,-47.83 313.4,-53.63"/>
</g>
<!-- Node5 -->
<g id="node5" class="node">
<title>Node5</title>
<g id="a_node5"><a xlink:href="a01388.html" target="_top" xlink:title=" ">
<polygon fill="white" stroke="black" points="305.5,-0.5 305.5,-19.5 367.5,-19.5 367.5,-0.5 305.5,-0.5"/>
<text text-anchor="middle" x="336.5" y="-7.5" font-family="Helvetica,sans-Serif" font-size="10.00">Group.cpp</text>
</a>
</g>
</g>
<!-- Node1&#45;&gt;Node5 -->
<g id="edge4" class="edge">
<title>Node1&#45;&gt;Node5</title>
<path fill="none" stroke="midnightblue" d="M336.5,-45.8C336.5,-36.91 336.5,-26.78 336.5,-19.75"/>
<polygon fill="midnightblue" stroke="midnightblue" points="333,-46.08 336.5,-56.08 340,-46.08 333,-46.08"/>
</g>
<!-- Node6 -->
<g id="node6" class="node">
<title>Node6</title>
<g id="a_node6"><a xlink:href="a00347.html" target="_top" xlink:title=" ">
<polygon fill="white" stroke="black" points="386,-0.5 386,-19.5 473,-19.5 473,-0.5 386,-0.5"/>
<text text-anchor="middle" x="429.5" y="-7.5" font-family="Helvetica,sans-Serif" font-size="10.00">KtOperation.cpp</text>
</a>
</g>
</g>
<!-- Node1&#45;&gt;Node6 -->
<g id="edge5" class="edge">
<title>Node1&#45;&gt;Node6</title>
<path fill="none" stroke="midnightblue" d="M360.31,-51.18C377.42,-41.24 399.97,-28.15 414.6,-19.65"/>
<polygon fill="midnightblue" stroke="midnightblue" points="358.33,-48.28 351.44,-56.32 361.85,-54.33 358.33,-48.28"/>
</g>
<!-- Node7 -->
<g id="node7" class="node">
<title>Node7</title>
<g id="a_node7"><a xlink:href="a00356.html" target="_top" xlink:title=" ">
<polygon fill="white" stroke="black" points="491.5,-0.5 491.5,-19.5 581.5,-19.5 581.5,-0.5 491.5,-0.5"/>
<text text-anchor="middle" x="536.5" y="-7.5" font-family="Helvetica,sans-Serif" font-size="10.00">LowLevelAPI.cpp</text>
</a>
</g>
</g>
<!-- Node1&#45;&gt;Node7 -->
<g id="edge6" class="edge">
<title>Node1&#45;&gt;Node7</title>
<path fill="none" stroke="midnightblue" d="M377.87,-53.83C415.64,-43.63 470.64,-28.78 504.96,-19.52"/>
<polygon fill="midnightblue" stroke="midnightblue" points="376.93,-50.46 368.19,-56.44 378.76,-57.22 376.93,-50.46"/>
</g>
<!-- Node8 -->
<g id="node8" class="node">
<title>Node8</title>
<g id="a_node8"><a xlink:href="a01400.html" target="_top" xlink:title=" ">
<polygon fill="white" stroke="black" points="600,-0.5 600,-19.5 671,-19.5 671,-0.5 600,-0.5"/>
<text text-anchor="middle" x="635.5" y="-7.5" font-family="Helvetica,sans-Serif" font-size="10.00">Member.cpp</text>
</a>
</g>
</g>
<!-- Node1&#45;&gt;Node8 -->
<g id="edge7" class="edge">
<title>Node1&#45;&gt;Node8</title>
<path fill="none" stroke="midnightblue" d="M395.69,-54.89C447.21,-46.01 523.87,-32.56 590.5,-20 593.48,-19.44 596.56,-18.85 599.65,-18.24"/>
<polygon fill="midnightblue" stroke="midnightblue" points="394.99,-51.46 385.73,-56.61 396.18,-58.36 394.99,-51.46"/>
</g>
</g>
</svg>
