<?xml version="1.0" encoding="UTF-8" standalone="no"?>
<!DOCTYPE svg PUBLIC "-//W3C//DTD SVG 1.1//EN"
 "http://www.w3.org/Graphics/SVG/1.1/DTD/svg11.dtd">
<!-- Generated by graphviz version 2.50.0 (20211204.2007)
 -->
<!-- Title: LibLoader::LoaderApi::libClose Pages: 1 -->
<svg width="448pt" height="88pt"
 viewBox="0.00 0.00 448.00 88.00" xmlns="http://www.w3.org/2000/svg" xmlns:xlink="http://www.w3.org/1999/xlink">
<g id="graph0" class="graph" transform="scale(1 1) rotate(0) translate(4 84)">
<title>LibLoader::LoaderApi::libClose</title>
<polygon fill="white" stroke="transparent" points="-4,4 -4,-84 444,-84 444,4 -4,4"/>
<!-- Node1 -->
<g id="node1" class="node">
<title>Node1</title>
<g id="a_node1"><a xlink:title=" ">
<polygon fill="#bfbfbf" stroke="black" points="332,-24.5 332,-54.5 440,-54.5 440,-24.5 332,-24.5"/>
<text text-anchor="start" x="340" y="-42.5" font-family="Helvetica,sans-Serif" font-size="10.00">LibLoader::LoaderApi</text>
<text text-anchor="middle" x="386" y="-31.5" font-family="Helvetica,sans-Serif" font-size="10.00">::libClose</text>
</a>
</g>
</g>
<!-- Node2 -->
<g id="node2" class="node">
<title>Node2</title>
<g id="a_node2"><a xlink:href="a00401.html#ac03a32a4b96ba4618fee0628d3998aef" target="_top" xlink:title=" ">
<polygon fill="white" stroke="black" points="174,-49.5 174,-79.5 272,-79.5 272,-49.5 174,-49.5"/>
<text text-anchor="start" x="182" y="-67.5" font-family="Helvetica,sans-Serif" font-size="10.00">LibLoader::Plugin::</text>
<text text-anchor="middle" x="223" y="-56.5" font-family="Helvetica,sans-Serif" font-size="10.00">unloadInternal</text>
</a>
</g>
</g>
<!-- Node1&#45;&gt;Node2 -->
<g id="edge1" class="edge">
<title>Node1&#45;&gt;Node2</title>
<path fill="none" stroke="midnightblue" d="M321.74,-49.32C305.26,-51.88 287.78,-54.6 272.22,-57.01"/>
<polygon fill="midnightblue" stroke="midnightblue" points="322.49,-52.75 331.84,-47.76 321.42,-45.83 322.49,-52.75"/>
</g>
<!-- Node4 -->
<g id="node4" class="node">
<title>Node4</title>
<g id="a_node4"><a xlink:href="a00401.html#a5323911e69fbf08d1cb4fd23318c6ae3" target="_top" xlink:title=" ">
<polygon fill="white" stroke="black" points="150,-0.5 150,-30.5 296,-30.5 296,-0.5 150,-0.5"/>
<text text-anchor="start" x="158" y="-18.5" font-family="Helvetica,sans-Serif" font-size="10.00">LibLoader::Plugin::</text>
<text text-anchor="middle" x="223" y="-7.5" font-family="Helvetica,sans-Serif" font-size="10.00">unloadWhenExceptionInternal</text>
</a>
</g>
</g>
<!-- Node1&#45;&gt;Node4 -->
<g id="edge3" class="edge">
<title>Node1&#45;&gt;Node4</title>
<path fill="none" stroke="midnightblue" d="M321.72,-30.07C313.31,-28.81 304.62,-27.52 296.07,-26.24"/>
<polygon fill="midnightblue" stroke="midnightblue" points="321.43,-33.56 331.84,-31.57 322.46,-26.64 321.43,-33.56"/>
</g>
<!-- Node3 -->
<g id="node3" class="node">
<title>Node3</title>
<g id="a_node3"><a xlink:href="a00401.html#abc57e6dfaed7b6445c8ba8d94b09ec13" target="_top" xlink:title=" ">
<polygon fill="white" stroke="black" points="8,-49.5 8,-79.5 106,-79.5 106,-49.5 8,-49.5"/>
<text text-anchor="start" x="16" y="-67.5" font-family="Helvetica,sans-Serif" font-size="10.00">LibLoader::Plugin::</text>
<text text-anchor="middle" x="57" y="-56.5" font-family="Helvetica,sans-Serif" font-size="10.00">unloadPlugin</text>
</a>
</g>
</g>
<!-- Node2&#45;&gt;Node3 -->
<g id="edge2" class="edge">
<title>Node2&#45;&gt;Node3</title>
<path fill="none" stroke="midnightblue" d="M163.48,-64.5C144.73,-64.5 124.19,-64.5 106.26,-64.5"/>
<polygon fill="midnightblue" stroke="midnightblue" points="163.68,-68 173.68,-64.5 163.68,-61 163.68,-68"/>
</g>
<!-- Node5 -->
<g id="node5" class="node">
<title>Node5</title>
<g id="a_node5"><a xlink:href="a00401.html#acf1144a526e0a7749a80ce05bbac9abc" target="_top" xlink:title=" ">
<polygon fill="white" stroke="black" points="0,-0.5 0,-30.5 114,-30.5 114,-0.5 0,-0.5"/>
<text text-anchor="start" x="8" y="-18.5" font-family="Helvetica,sans-Serif" font-size="10.00">LibLoader::Plugin::</text>
<text text-anchor="middle" x="57" y="-7.5" font-family="Helvetica,sans-Serif" font-size="10.00">unloadWhenException</text>
</a>
</g>
</g>
<!-- Node4&#45;&gt;Node5 -->
<g id="edge4" class="edge">
<title>Node4&#45;&gt;Node5</title>
<path fill="none" stroke="midnightblue" d="M139.56,-15.5C130.99,-15.5 122.44,-15.5 114.26,-15.5"/>
<polygon fill="midnightblue" stroke="midnightblue" points="139.59,-19 149.59,-15.5 139.59,-12 139.59,-19"/>
</g>
</g>
</svg>
