<?xml version="1.0" encoding="UTF-8" standalone="no"?>
<!DOCTYPE svg PUBLIC "-//W3C//DTD SVG 1.1//EN"
 "http://www.w3.org/Graphics/SVG/1.1/DTD/svg11.dtd">
<!-- Generated by graphviz version 2.50.0 (20211204.2007)
 -->
<!-- Title: MiraiCP::MiraiCPString::construction Pages: 1 -->
<svg width="1144pt" height="95pt"
 viewBox="0.00 0.00 1144.00 95.00" xmlns="http://www.w3.org/2000/svg" xmlns:xlink="http://www.w3.org/1999/xlink">
<g id="graph0" class="graph" transform="scale(1 1) rotate(0) translate(4 91)">
<title>MiraiCP::MiraiCPString::construction</title>
<polygon fill="white" stroke="transparent" points="-4,4 -4,-91 1140,-91 1140,4 -4,4"/>
<!-- Node1 -->
<g id="node1" class="node">
<title>Node1</title>
<g id="a_node1"><a xlink:title=" ">
<polygon fill="#bfbfbf" stroke="black" points="0,-25.5 0,-55.5 117,-55.5 117,-25.5 0,-25.5"/>
<text text-anchor="start" x="8" y="-43.5" font-family="Helvetica,sans-Serif" font-size="10.00">MiraiCP::MiraiCPString</text>
<text text-anchor="middle" x="58.5" y="-32.5" font-family="Helvetica,sans-Serif" font-size="10.00">::construction</text>
</a>
</g>
</g>
<!-- Node2 -->
<g id="node2" class="node">
<title>Node2</title>
<g id="a_node2"><a xlink:href="a00381.html#ae735f16b20f681d29d4e5d28ad248dbe" target="_top" xlink:title=" ">
<polygon fill="white" stroke="black" points="153,-25.5 153,-55.5 276,-55.5 276,-25.5 153,-25.5"/>
<text text-anchor="start" x="161" y="-43.5" font-family="Helvetica,sans-Serif" font-size="10.00">LibLoader::LoaderLogger</text>
<text text-anchor="middle" x="214.5" y="-32.5" font-family="Helvetica,sans-Serif" font-size="10.00">::error</text>
</a>
</g>
</g>
<!-- Node1&#45;&gt;Node2 -->
<g id="edge1" class="edge">
<title>Node1&#45;&gt;Node2</title>
<path fill="none" stroke="midnightblue" d="M117.28,-40.5C125.53,-40.5 134.1,-40.5 142.57,-40.5"/>
<polygon fill="midnightblue" stroke="midnightblue" points="142.82,-44 152.82,-40.5 142.82,-37 142.82,-44"/>
</g>
<!-- Node3 -->
<g id="node3" class="node">
<title>Node3</title>
<g id="a_node3"><a xlink:href="a00381.html#af4d7d5164450e25f7401d1cc15f15b8d" target="_top" xlink:title="实际暴露的接口">
<polygon fill="white" stroke="black" points="312,-25.5 312,-55.5 435,-55.5 435,-25.5 312,-25.5"/>
<text text-anchor="start" x="320" y="-43.5" font-family="Helvetica,sans-Serif" font-size="10.00">LibLoader::LoaderLogger</text>
<text text-anchor="middle" x="373.5" y="-32.5" font-family="Helvetica,sans-Serif" font-size="10.00">::call_logger</text>
</a>
</g>
</g>
<!-- Node2&#45;&gt;Node3 -->
<g id="edge2" class="edge">
<title>Node2&#45;&gt;Node3</title>
<path fill="none" stroke="midnightblue" d="M276.2,-40.5C284.64,-40.5 293.36,-40.5 301.95,-40.5"/>
<polygon fill="midnightblue" stroke="midnightblue" points="301.96,-44 311.96,-40.5 301.96,-37 301.96,-44"/>
</g>
<!-- Node4 -->
<g id="node4" class="node">
<title>Node4</title>
<g id="a_node4"><a xlink:href="a00309.html#a076c5f4ff8083c7cfc6523498d0ba30f" target="_top" xlink:title=" ">
<polygon fill="white" stroke="black" points="626,-56.5 626,-86.5 725,-86.5 725,-56.5 626,-56.5"/>
<text text-anchor="start" x="634" y="-74.5" font-family="Helvetica,sans-Serif" font-size="10.00">LibLoader::JNIEnvs</text>
<text text-anchor="middle" x="675.5" y="-63.5" font-family="Helvetica,sans-Serif" font-size="10.00">::getEnv</text>
</a>
</g>
</g>
<!-- Node3&#45;&gt;Node4 -->
<g id="edge3" class="edge">
<title>Node3&#45;&gt;Node4</title>
<path fill="none" stroke="midnightblue" d="M435.04,-53.72C446.91,-55.95 459.31,-58.01 471,-59.5 519.55,-65.68 575.02,-68.69 615.78,-70.14"/>
<polygon fill="midnightblue" stroke="midnightblue" points="615.7,-73.64 625.81,-70.48 615.93,-66.65 615.7,-73.64"/>
</g>
<!-- Node8 -->
<g id="node8" class="node">
<title>Node8</title>
<g id="a_node8"><a xlink:href="a00304.html#a6a6fcd695791253a9b3a053d313b2b93" target="_top" xlink:title=" ">
<polygon fill="white" stroke="black" points="471,-31 471,-50 578,-50 578,-31 471,-31"/>
<text text-anchor="middle" x="524.5" y="-38" font-family="Helvetica,sans-Serif" font-size="10.00">LibLoader::str2jstring</text>
</a>
</g>
</g>
<!-- Node3&#45;&gt;Node8 -->
<g id="edge7" class="edge">
<title>Node3&#45;&gt;Node8</title>
<path fill="none" stroke="midnightblue" d="M435.1,-40.5C443.47,-40.5 452.07,-40.5 460.48,-40.5"/>
<polygon fill="midnightblue" stroke="midnightblue" points="460.6,-44 470.6,-40.5 460.6,-37 460.6,-44"/>
</g>
<!-- Node5 -->
<g id="node5" class="node">
<title>Node5</title>
<g id="a_node5"><a xlink:href="a00349.html#aea7d58ff9f04d6d4849c25a2506603a5" target="_top" xlink:title="取env,如果不存在重新获取">
<polygon fill="white" stroke="black" points="773,-62 773,-81 892,-81 892,-62 773,-62"/>
<text text-anchor="middle" x="832.5" y="-69" font-family="Helvetica,sans-Serif" font-size="10.00">JNIEnvManager::getEnv</text>
</a>
</g>
</g>
<!-- Node4&#45;&gt;Node5 -->
<g id="edge4" class="edge">
<title>Node4&#45;&gt;Node5</title>
<path fill="none" stroke="midnightblue" d="M725.12,-71.5C737.1,-71.5 750.15,-71.5 762.88,-71.5"/>
<polygon fill="midnightblue" stroke="midnightblue" points="762.99,-75 772.99,-71.5 762.99,-68 762.99,-75"/>
</g>
<!-- Node6 -->
<g id="node6" class="node">
<title>Node6</title>
<g id="a_node6"><a xlink:href="a00197.html#a3d31403b7971274d47d308245206bd24" target="_top" xlink:title="为当前线程创建一个env.">
<polygon fill="white" stroke="black" points="928,-62 928,-81 978,-81 978,-62 928,-62"/>
<text text-anchor="middle" x="953" y="-69" font-family="Helvetica,sans-Serif" font-size="10.00">newEnv</text>
</a>
</g>
</g>
<!-- Node5&#45;&gt;Node6 -->
<g id="edge5" class="edge">
<title>Node5&#45;&gt;Node6</title>
<path fill="none" stroke="midnightblue" d="M892.06,-71.5C900.89,-71.5 909.75,-71.5 917.85,-71.5"/>
<polygon fill="midnightblue" stroke="midnightblue" points="917.98,-75 927.98,-71.5 917.98,-68 917.98,-75"/>
</g>
<!-- Node7 -->
<g id="node7" class="node">
<title>Node7</title>
<g id="a_node7"><a xlink:href="a00349.html#ae0e482c6a813848a8f5d34957d1b6307" target="_top" xlink:title="获取全局JavaVM对象.">
<polygon fill="white" stroke="black" points="1014,-62 1014,-81 1136,-81 1136,-62 1014,-62"/>
<text text-anchor="middle" x="1075" y="-69" font-family="Helvetica,sans-Serif" font-size="10.00">JNIEnvManager::getGvm</text>
</a>
</g>
</g>
<!-- Node6&#45;&gt;Node7 -->
<g id="edge6" class="edge">
<title>Node6&#45;&gt;Node7</title>
<path fill="none" stroke="midnightblue" d="M978.28,-71.5C985.75,-71.5 994.37,-71.5 1003.32,-71.5"/>
<polygon fill="midnightblue" stroke="midnightblue" points="1003.52,-75 1013.52,-71.5 1003.52,-68 1003.52,-75"/>
</g>
<!-- Node8&#45;&gt;Node4 -->
<g id="edge8" class="edge">
<title>Node8&#45;&gt;Node4</title>
<path fill="none" stroke="midnightblue" d="M571.42,-50.05C585.45,-52.97 601.08,-56.23 615.84,-59.3"/>
<polygon fill="midnightblue" stroke="midnightblue" points="615.39,-62.78 625.89,-61.39 616.81,-55.92 615.39,-62.78"/>
</g>
<!-- Node9 -->
<g id="node9" class="node">
<title>Node9</title>
<g id="a_node9"><a xlink:href="a00381.html#af50d0545fe7d683e54fcd03453a423e3" target="_top" xlink:title=" ">
<polygon fill="white" stroke="black" points="614,-0.5 614,-30.5 737,-30.5 737,-0.5 614,-0.5"/>
<text text-anchor="start" x="622" y="-18.5" font-family="Helvetica,sans-Serif" font-size="10.00">LibLoader::LoaderLogger</text>
<text text-anchor="middle" x="675.5" y="-7.5" font-family="Helvetica,sans-Serif" font-size="10.00">::warning</text>
</a>
</g>
</g>
<!-- Node8&#45;&gt;Node9 -->
<g id="edge9" class="edge">
<title>Node8&#45;&gt;Node9</title>
<path fill="none" stroke="midnightblue" d="M578.03,-31.69C586.34,-30.29 595.05,-28.83 603.7,-27.38"/>
<polygon fill="midnightblue" stroke="midnightblue" points="604.5,-30.79 613.79,-25.69 603.35,-23.89 604.5,-30.79"/>
</g>
<!-- Node9&#45;&gt;Node3 -->
<g id="edge10" class="edge">
<title>Node9&#45;&gt;Node3</title>
<path fill="none" stroke="midnightblue" d="M613.76,-14.68C573.22,-14.77 518.77,-16.13 471,-21.5 462.58,-22.45 453.81,-23.74 445.13,-25.21"/>
<polygon fill="midnightblue" stroke="midnightblue" points="444.24,-21.81 435.01,-27 445.46,-28.7 444.24,-21.81"/>
</g>
</g>
</svg>
