<?xml version="1.0" encoding="UTF-8" standalone="no"?>
<!DOCTYPE svg PUBLIC "-//W3C//DTD SVG 1.1//EN"
 "http://www.w3.org/Graphics/SVG/1.1/DTD/svg11.dtd">
<!-- Generated by graphviz version 2.50.0 (20211204.2007)
 -->
<!-- Title: LibLoader::loader_loadNewPlugin Pages: 1 -->
<svg width="2035pt" height="368pt"
 viewBox="0.00 0.00 2035.00 368.00" xmlns="http://www.w3.org/2000/svg" xmlns:xlink="http://www.w3.org/1999/xlink">
<g id="graph0" class="graph" transform="scale(1 1) rotate(0) translate(4 364)">
<title>LibLoader::loader_loadNewPlugin</title>
<polygon fill="white" stroke="transparent" points="-4,4 -4,-364 2031,-364 2031,4 -4,4"/>
<!-- Node1 -->
<g id="node1" class="node">
<title>Node1</title>
<g id="a_node1"><a xlink:title=" ">
<polygon fill="#bfbfbf" stroke="black" points="0,-183.5 0,-213.5 133,-213.5 133,-183.5 0,-183.5"/>
<text text-anchor="start" x="8" y="-201.5" font-family="Helvetica,sans-Serif" font-size="10.00">LibLoader::loader_loadNew</text>
<text text-anchor="middle" x="66.5" y="-190.5" font-family="Helvetica,sans-Serif" font-size="10.00">Plugin</text>
</a>
</g>
</g>
<!-- Node2 -->
<g id="node2" class="node">
<title>Node2</title>
<g id="a_node2"><a xlink:href="a00401.html#a5ed72227269472f7a225be5177805dbb" target="_top" xlink:title=" ">
<polygon fill="white" stroke="black" points="169,-183.5 169,-213.5 314,-213.5 314,-183.5 169,-183.5"/>
<text text-anchor="start" x="177" y="-201.5" font-family="Helvetica,sans-Serif" font-size="10.00">LibLoader::PluginListManager</text>
<text text-anchor="middle" x="241.5" y="-190.5" font-family="Helvetica,sans-Serif" font-size="10.00">::loadNewPluginByPath</text>
</a>
</g>
</g>
<!-- Node1&#45;&gt;Node2 -->
<g id="edge1" class="edge">
<title>Node1&#45;&gt;Node2</title>
<path fill="none" stroke="midnightblue" d="M133.4,-198.5C141.61,-198.5 150.09,-198.5 158.51,-198.5"/>
<polygon fill="midnightblue" stroke="midnightblue" points="158.73,-202 168.73,-198.5 158.73,-195 158.73,-202"/>
</g>
<!-- Node3 -->
<g id="node3" class="node">
<title>Node3</title>
<g id="a_node3"><a xlink:href="a00401.html#a9f575adc3e4404ac758db99eb49ce9bb" target="_top" xlink:title=" ">
<polygon fill="white" stroke="black" points="350,-183.5 350,-213.5 495,-213.5 495,-183.5 350,-183.5"/>
<text text-anchor="start" x="358" y="-201.5" font-family="Helvetica,sans-Serif" font-size="10.00">LibLoader::PluginListManager</text>
<text text-anchor="middle" x="422.5" y="-190.5" font-family="Helvetica,sans-Serif" font-size="10.00">::addNewPlugin</text>
</a>
</g>
</g>
<!-- Node2&#45;&gt;Node3 -->
<g id="edge2" class="edge">
<title>Node2&#45;&gt;Node3</title>
<path fill="none" stroke="midnightblue" d="M314.02,-198.5C322.49,-198.5 331.18,-198.5 339.78,-198.5"/>
<polygon fill="midnightblue" stroke="midnightblue" points="339.8,-202 349.8,-198.5 339.8,-195 339.8,-202"/>
</g>
<!-- Node4 -->
<g id="node4" class="node">
<title>Node4</title>
<g id="a_node4"><a xlink:href="a00381.html#ae735f16b20f681d29d4e5d28ad248dbe" target="_top" xlink:title=" ">
<polygon fill="white" stroke="black" points="972.5,-273.5 972.5,-303.5 1095.5,-303.5 1095.5,-273.5 972.5,-273.5"/>
<text text-anchor="start" x="980.5" y="-291.5" font-family="Helvetica,sans-Serif" font-size="10.00">LibLoader::LoaderLogger</text>
<text text-anchor="middle" x="1034" y="-280.5" font-family="Helvetica,sans-Serif" font-size="10.00">::error</text>
</a>
</g>
</g>
<!-- Node3&#45;&gt;Node4 -->
<g id="edge3" class="edge">
<title>Node3&#45;&gt;Node4</title>
<path fill="none" stroke="midnightblue" d="M451.83,-213.57C473.02,-224.1 503.04,-237.48 531,-244.5 681.39,-282.24 864.15,-288.81 962.38,-289.29"/>
<polygon fill="midnightblue" stroke="midnightblue" points="962.47,-292.79 972.48,-289.31 962.49,-285.79 962.47,-292.79"/>
</g>
<!-- Node12 -->
<g id="node12" class="node">
<title>Node12</title>
<g id="a_node12"><a xlink:href="a00389.html#aa3969cacef7e9a28baa578a90d01aa23" target="_top" xlink:title="安全、带锁地获取id">
<polygon fill="white" stroke="black" points="820,-49.5 820,-79.5 918,-79.5 918,-49.5 820,-49.5"/>
<text text-anchor="start" x="828" y="-67.5" font-family="Helvetica,sans-Serif" font-size="10.00">LibLoader::Plugin::</text>
<text text-anchor="middle" x="869" y="-56.5" font-family="Helvetica,sans-Serif" font-size="10.00">getIdSafe</text>
</a>
</g>
</g>
<!-- Node3&#45;&gt;Node12 -->
<g id="edge13" class="edge">
<title>Node3&#45;&gt;Node12</title>
<path fill="none" stroke="midnightblue" d="M495.04,-188.51C538.37,-181.54 594.46,-170.91 643,-156.5 709.34,-136.81 783,-104.6 827.39,-83.99"/>
<polygon fill="midnightblue" stroke="midnightblue" points="829.1,-87.05 836.68,-79.64 826.13,-80.71 829.1,-87.05"/>
</g>
<!-- Node15 -->
<g id="node15" class="node">
<title>Node15</title>
<g id="a_node15"><a xlink:href="a00397.html#a5907aa03cd2b359eb901423314467338" target="_top" xlink:title=" ">
<polygon fill="white" stroke="black" points="531,-117.5 531,-147.5 643,-147.5 643,-117.5 531,-117.5"/>
<text text-anchor="start" x="539" y="-135.5" font-family="Helvetica,sans-Serif" font-size="10.00">LibLoader::PluginData</text>
<text text-anchor="middle" x="587" y="-124.5" font-family="Helvetica,sans-Serif" font-size="10.00">::isLoaded</text>
</a>
</g>
</g>
<!-- Node3&#45;&gt;Node15 -->
<g id="edge16" class="edge">
<title>Node3&#45;&gt;Node15</title>
<path fill="none" stroke="midnightblue" d="M460.78,-183.36C484.21,-173.84 514.62,-161.49 539.61,-151.34"/>
<polygon fill="midnightblue" stroke="midnightblue" points="540.94,-154.58 548.89,-147.57 538.31,-148.09 540.94,-154.58"/>
</g>
<!-- Node16 -->
<g id="node16" class="node">
<title>Node16</title>
<g id="a_node16"><a xlink:href="a00389.html#abc57e6dfaed7b6445c8ba8d94b09ec13" target="_top" xlink:title=" ">
<polygon fill="white" stroke="black" points="538,-205.5 538,-235.5 636,-235.5 636,-205.5 538,-205.5"/>
<text text-anchor="start" x="546" y="-223.5" font-family="Helvetica,sans-Serif" font-size="10.00">LibLoader::Plugin::</text>
<text text-anchor="middle" x="587" y="-212.5" font-family="Helvetica,sans-Serif" font-size="10.00">unloadPlugin</text>
</a>
</g>
</g>
<!-- Node3&#45;&gt;Node16 -->
<g id="edge17" class="edge">
<title>Node3&#45;&gt;Node16</title>
<path fill="none" stroke="midnightblue" d="M495.25,-208.21C506.2,-209.7 517.39,-211.21 528,-212.65"/>
<polygon fill="midnightblue" stroke="midnightblue" points="527.59,-216.12 537.97,-214 528.53,-209.19 527.59,-216.12"/>
</g>
<!-- Node5 -->
<g id="node5" class="node">
<title>Node5</title>
<g id="a_node5"><a xlink:href="a00381.html#af4d7d5164450e25f7401d1cc15f15b8d" target="_top" xlink:title="实际暴露的接口">
<polygon fill="white" stroke="black" points="1154,-289.5 1154,-319.5 1277,-319.5 1277,-289.5 1154,-289.5"/>
<text text-anchor="start" x="1162" y="-307.5" font-family="Helvetica,sans-Serif" font-size="10.00">LibLoader::LoaderLogger</text>
<text text-anchor="middle" x="1215.5" y="-296.5" font-family="Helvetica,sans-Serif" font-size="10.00">::call_logger</text>
</a>
</g>
</g>
<!-- Node4&#45;&gt;Node5 -->
<g id="edge4" class="edge">
<title>Node4&#45;&gt;Node5</title>
<path fill="none" stroke="midnightblue" d="M1095.77,-293.92C1111.12,-295.29 1127.74,-296.77 1143.55,-298.18"/>
<polygon fill="midnightblue" stroke="midnightblue" points="1143.52,-301.69 1153.79,-299.09 1144.14,-294.71 1143.52,-301.69"/>
</g>
<!-- Node6 -->
<g id="node6" class="node">
<title>Node6</title>
<g id="a_node6"><a xlink:href="a00309.html#a076c5f4ff8083c7cfc6523498d0ba30f" target="_top" xlink:title=" ">
<polygon fill="white" stroke="black" points="1517,-329.5 1517,-359.5 1616,-359.5 1616,-329.5 1517,-329.5"/>
<text text-anchor="start" x="1525" y="-347.5" font-family="Helvetica,sans-Serif" font-size="10.00">LibLoader::JNIEnvs</text>
<text text-anchor="middle" x="1566.5" y="-336.5" font-family="Helvetica,sans-Serif" font-size="10.00">::getEnv</text>
</a>
</g>
</g>
<!-- Node5&#45;&gt;Node6 -->
<g id="edge5" class="edge">
<title>Node5&#45;&gt;Node6</title>
<path fill="none" stroke="midnightblue" d="M1253.63,-319.58C1274.03,-327.1 1300,-335.44 1324,-339.5 1385.76,-349.96 1457.67,-349.91 1506.86,-348.06"/>
<polygon fill="midnightblue" stroke="midnightblue" points="1507.15,-351.55 1517,-347.64 1506.86,-344.56 1507.15,-351.55"/>
</g>
<!-- Node10 -->
<g id="node10" class="node">
<title>Node10</title>
<g id="a_node10"><a xlink:href="a00304.html#a6a6fcd695791253a9b3a053d313b2b93" target="_top" xlink:title=" ">
<polygon fill="white" stroke="black" points="1343,-311 1343,-330 1450,-330 1450,-311 1343,-311"/>
<text text-anchor="middle" x="1396.5" y="-318" font-family="Helvetica,sans-Serif" font-size="10.00">LibLoader::str2jstring</text>
</a>
</g>
</g>
<!-- Node5&#45;&gt;Node10 -->
<g id="edge9" class="edge">
<title>Node5&#45;&gt;Node10</title>
<path fill="none" stroke="midnightblue" d="M1277.1,-309.92C1294.99,-311.52 1314.6,-313.27 1332.63,-314.88"/>
<polygon fill="midnightblue" stroke="midnightblue" points="1332.48,-318.38 1342.75,-315.78 1333.1,-311.41 1332.48,-318.38"/>
</g>
<!-- Node7 -->
<g id="node7" class="node">
<title>Node7</title>
<g id="a_node7"><a xlink:href="a00349.html#aea7d58ff9f04d6d4849c25a2506603a5" target="_top" xlink:title="取env,如果不存在重新获取">
<polygon fill="white" stroke="black" points="1664,-335 1664,-354 1783,-354 1783,-335 1664,-335"/>
<text text-anchor="middle" x="1723.5" y="-342" font-family="Helvetica,sans-Serif" font-size="10.00">JNIEnvManager::getEnv</text>
</a>
</g>
</g>
<!-- Node6&#45;&gt;Node7 -->
<g id="edge6" class="edge">
<title>Node6&#45;&gt;Node7</title>
<path fill="none" stroke="midnightblue" d="M1616.12,-344.5C1628.1,-344.5 1641.15,-344.5 1653.88,-344.5"/>
<polygon fill="midnightblue" stroke="midnightblue" points="1653.99,-348 1663.99,-344.5 1653.99,-341 1653.99,-348"/>
</g>
<!-- Node8 -->
<g id="node8" class="node">
<title>Node8</title>
<g id="a_node8"><a xlink:href="a00197.html#a3d31403b7971274d47d308245206bd24" target="_top" xlink:title="为当前线程创建一个env.">
<polygon fill="white" stroke="black" points="1819,-335 1819,-354 1869,-354 1869,-335 1819,-335"/>
<text text-anchor="middle" x="1844" y="-342" font-family="Helvetica,sans-Serif" font-size="10.00">newEnv</text>
</a>
</g>
</g>
<!-- Node7&#45;&gt;Node8 -->
<g id="edge7" class="edge">
<title>Node7&#45;&gt;Node8</title>
<path fill="none" stroke="midnightblue" d="M1783.06,-344.5C1791.89,-344.5 1800.75,-344.5 1808.85,-344.5"/>
<polygon fill="midnightblue" stroke="midnightblue" points="1808.98,-348 1818.98,-344.5 1808.98,-341 1808.98,-348"/>
</g>
<!-- Node9 -->
<g id="node9" class="node">
<title>Node9</title>
<g id="a_node9"><a xlink:href="a00349.html#ae0e482c6a813848a8f5d34957d1b6307" target="_top" xlink:title="获取全局JavaVM对象.">
<polygon fill="white" stroke="black" points="1905,-335 1905,-354 2027,-354 2027,-335 1905,-335"/>
<text text-anchor="middle" x="1966" y="-342" font-family="Helvetica,sans-Serif" font-size="10.00">JNIEnvManager::getGvm</text>
</a>
</g>
</g>
<!-- Node8&#45;&gt;Node9 -->
<g id="edge8" class="edge">
<title>Node8&#45;&gt;Node9</title>
<path fill="none" stroke="midnightblue" d="M1869.28,-344.5C1876.75,-344.5 1885.37,-344.5 1894.32,-344.5"/>
<polygon fill="midnightblue" stroke="midnightblue" points="1894.52,-348 1904.52,-344.5 1894.52,-341 1894.52,-348"/>
</g>
<!-- Node10&#45;&gt;Node6 -->
<g id="edge10" class="edge">
<title>Node10&#45;&gt;Node6</title>
<path fill="none" stroke="midnightblue" d="M1450.2,-328.03C1468.22,-330.6 1488.49,-333.5 1506.95,-336.14"/>
<polygon fill="midnightblue" stroke="midnightblue" points="1506.6,-339.62 1516.99,-337.57 1507.59,-332.69 1506.6,-339.62"/>
</g>
<!-- Node11 -->
<g id="node11" class="node">
<title>Node11</title>
<g id="a_node11"><a xlink:href="a00381.html#af50d0545fe7d683e54fcd03453a423e3" target="_top" xlink:title=" ">
<polygon fill="white" stroke="black" points="1505,-267.5 1505,-297.5 1628,-297.5 1628,-267.5 1505,-267.5"/>
<text text-anchor="start" x="1513" y="-285.5" font-family="Helvetica,sans-Serif" font-size="10.00">LibLoader::LoaderLogger</text>
<text text-anchor="middle" x="1566.5" y="-274.5" font-family="Helvetica,sans-Serif" font-size="10.00">::warning</text>
</a>
</g>
</g>
<!-- Node10&#45;&gt;Node11 -->
<g id="edge11" class="edge">
<title>Node10&#45;&gt;Node11</title>
<path fill="none" stroke="midnightblue" d="M1439.89,-310.91C1456.54,-307.15 1476.1,-302.72 1494.76,-298.5"/>
<polygon fill="midnightblue" stroke="midnightblue" points="1495.73,-301.87 1504.71,-296.25 1494.19,-295.04 1495.73,-301.87"/>
</g>
<!-- Node11&#45;&gt;Node5 -->
<g id="edge12" class="edge">
<title>Node11&#45;&gt;Node5</title>
<path fill="none" stroke="midnightblue" d="M1504.82,-286.33C1444.24,-290.14 1351.2,-296.01 1287.29,-300.04"/>
<polygon fill="midnightblue" stroke="midnightblue" points="1287.05,-296.55 1277.29,-300.67 1287.49,-303.53 1287.05,-296.55"/>
</g>
<!-- Node13 -->
<g id="node13" class="node">
<title>Node13</title>
<g id="a_node13"><a xlink:href="a00397.html#a0c7449a3e94c1e4659337e62fc513fd8" target="_top" xlink:title=" ">
<polygon fill="white" stroke="black" points="978,-0.5 978,-30.5 1090,-30.5 1090,-0.5 978,-0.5"/>
<text text-anchor="start" x="986" y="-18.5" font-family="Helvetica,sans-Serif" font-size="10.00">LibLoader::PluginData</text>
<text text-anchor="middle" x="1034" y="-7.5" font-family="Helvetica,sans-Serif" font-size="10.00">::_getId</text>
</a>
</g>
</g>
<!-- Node12&#45;&gt;Node13 -->
<g id="edge14" class="edge">
<title>Node12&#45;&gt;Node13</title>
<path fill="none" stroke="midnightblue" d="M918.02,-50.06C935.38,-44.85 955.18,-38.89 973.41,-33.41"/>
<polygon fill="midnightblue" stroke="midnightblue" points="974.49,-36.74 983.06,-30.51 972.47,-30.04 974.49,-36.74"/>
</g>
<!-- Node14 -->
<g id="node14" class="node">
<title>Node14</title>
<g id="a_node14"><a xlink:href="a00389.html#ae42c2fb572d9814de8f0a10ca2c0d2f3" target="_top" xlink:title=" ">
<polygon fill="white" stroke="black" points="985,-49.5 985,-79.5 1083,-79.5 1083,-49.5 985,-49.5"/>
<text text-anchor="start" x="993" y="-67.5" font-family="Helvetica,sans-Serif" font-size="10.00">LibLoader::Plugin::</text>
<text text-anchor="middle" x="1034" y="-56.5" font-family="Helvetica,sans-Serif" font-size="10.00">checkValid</text>
</a>
</g>
</g>
<!-- Node12&#45;&gt;Node14 -->
<g id="edge15" class="edge">
<title>Node12&#45;&gt;Node14</title>
<path fill="none" stroke="midnightblue" d="M918.02,-64.5C935.77,-64.5 956.08,-64.5 974.65,-64.5"/>
<polygon fill="midnightblue" stroke="midnightblue" points="974.76,-68 984.76,-64.5 974.76,-61 974.76,-68"/>
</g>
<!-- Node17 -->
<g id="node17" class="node">
<title>Node17</title>
<g id="a_node17"><a xlink:href="a00389.html#ac03a32a4b96ba4618fee0628d3998aef" target="_top" xlink:title=" ">
<polygon fill="white" stroke="black" points="679,-205.5 679,-235.5 777,-235.5 777,-205.5 679,-205.5"/>
<text text-anchor="start" x="687" y="-223.5" font-family="Helvetica,sans-Serif" font-size="10.00">LibLoader::Plugin::</text>
<text text-anchor="middle" x="728" y="-212.5" font-family="Helvetica,sans-Serif" font-size="10.00">unloadInternal</text>
</a>
</g>
</g>
<!-- Node16&#45;&gt;Node17 -->
<g id="edge18" class="edge">
<title>Node16&#45;&gt;Node17</title>
<path fill="none" stroke="midnightblue" d="M636.23,-220.5C646.68,-220.5 657.85,-220.5 668.65,-220.5"/>
<polygon fill="midnightblue" stroke="midnightblue" points="668.86,-224 678.86,-220.5 668.86,-217 668.86,-224"/>
</g>
<!-- Node17&#45;&gt;Node11 -->
<g id="edge31" class="edge">
<title>Node17&#45;&gt;Node11</title>
<path fill="none" stroke="midnightblue" d="M777.08,-226.65C836.93,-233.76 942.34,-244.5 1033,-244.5 1033,-244.5 1033,-244.5 1216.5,-244.5 1313.37,-244.5 1424.47,-259.15 1494.8,-270.25"/>
<polygon fill="midnightblue" stroke="midnightblue" points="1494.45,-273.74 1504.88,-271.86 1495.56,-266.83 1494.45,-273.74"/>
</g>
<!-- Node18 -->
<g id="node18" class="node">
<title>Node18</title>
<g id="a_node18"><a xlink:href="a00397.html#a06be765d6cf55aa951f7eecb7ba578e8" target="_top" xlink:title=" ">
<polygon fill="white" stroke="black" points="813,-318.5 813,-348.5 925,-348.5 925,-318.5 813,-318.5"/>
<text text-anchor="start" x="821" y="-336.5" font-family="Helvetica,sans-Serif" font-size="10.00">LibLoader::PluginData</text>
<text text-anchor="middle" x="869" y="-325.5" font-family="Helvetica,sans-Serif" font-size="10.00">::_unload</text>
</a>
</g>
</g>
<!-- Node17&#45;&gt;Node18 -->
<g id="edge19" class="edge">
<title>Node17&#45;&gt;Node18</title>
<path fill="none" stroke="midnightblue" d="M747.46,-235.51C771.55,-255.09 813.88,-289.51 841.43,-311.9"/>
<polygon fill="midnightblue" stroke="midnightblue" points="839.5,-314.84 849.47,-318.43 843.91,-309.41 839.5,-314.84"/>
</g>
<!-- Node20 -->
<g id="node20" class="node">
<title>Node20</title>
<g id="a_node20"><a xlink:href="a00389.html#a006c0eaa142f9aa1760ec307cd3c0cee" target="_top" xlink:title=" ">
<polygon fill="white" stroke="black" points="820,-136.5 820,-166.5 918,-166.5 918,-136.5 820,-136.5"/>
<text text-anchor="start" x="828" y="-154.5" font-family="Helvetica,sans-Serif" font-size="10.00">LibLoader::Plugin::</text>
<text text-anchor="middle" x="869" y="-143.5" font-family="Helvetica,sans-Serif" font-size="10.00">disableInternal</text>
</a>
</g>
</g>
<!-- Node17&#45;&gt;Node20 -->
<g id="edge21" class="edge">
<title>Node17&#45;&gt;Node20</title>
<path fill="none" stroke="midnightblue" d="M755.95,-205.35C772.29,-196.34 793.65,-184.89 813,-175.5 816.29,-173.91 819.7,-172.3 823.16,-170.71"/>
<polygon fill="midnightblue" stroke="midnightblue" points="824.63,-173.88 832.31,-166.58 821.75,-167.5 824.63,-173.88"/>
</g>
<!-- Node25 -->
<g id="node25" class="node">
<title>Node25</title>
<g id="a_node25"><a xlink:href="a00306.html#a830b51c74068e1461e1baf677dd10ac2" target="_top" xlink:title=" ">
<polygon fill="white" stroke="black" points="815,-185.5 815,-215.5 923,-215.5 923,-185.5 815,-185.5"/>
<text text-anchor="start" x="823" y="-203.5" font-family="Helvetica,sans-Serif" font-size="10.00">LibLoader::LoaderApi</text>
<text text-anchor="middle" x="869" y="-192.5" font-family="Helvetica,sans-Serif" font-size="10.00">::libClose</text>
</a>
</g>
</g>
<!-- Node17&#45;&gt;Node25 -->
<g id="edge30" class="edge">
<title>Node17&#45;&gt;Node25</title>
<path fill="none" stroke="midnightblue" d="M777.23,-213.56C786.09,-212.29 795.47,-210.94 804.7,-209.61"/>
<polygon fill="midnightblue" stroke="midnightblue" points="805.23,-213.07 814.63,-208.18 804.24,-206.14 805.23,-213.07"/>
</g>
<!-- Node19 -->
<g id="node19" class="node">
<title>Node19</title>
<g id="a_node19"><a xlink:href="a00393.html#a81c7f6972e7ed7429f2ce9ba82c9ba31" target="_top" xlink:title=" ">
<polygon fill="white" stroke="black" points="967,-322.5 967,-352.5 1101,-352.5 1101,-322.5 967,-322.5"/>
<text text-anchor="start" x="975" y="-340.5" font-family="Helvetica,sans-Serif" font-size="10.00">LibLoader::PluginFuncAddr</text>
<text text-anchor="middle" x="1034" y="-329.5" font-family="Helvetica,sans-Serif" font-size="10.00">Data::_resetAddrData</text>
</a>
</g>
</g>
<!-- Node18&#45;&gt;Node19 -->
<g id="edge20" class="edge">
<title>Node18&#45;&gt;Node19</title>
<path fill="none" stroke="midnightblue" d="M925.18,-334.85C935.33,-335.1 946.09,-335.37 956.73,-335.63"/>
<polygon fill="midnightblue" stroke="midnightblue" points="956.79,-339.13 966.87,-335.88 956.96,-332.13 956.79,-339.13"/>
</g>
<!-- Node20&#45;&gt;Node4 -->
<g id="edge25" class="edge">
<title>Node20&#45;&gt;Node4</title>
<path fill="none" stroke="midnightblue" d="M910.64,-166.51C915.69,-169.15 920.62,-172.14 925,-175.5 945.33,-191.08 943.65,-201.66 961,-220.5 975.94,-236.72 993.98,-253.75 1008.27,-266.72"/>
<polygon fill="midnightblue" stroke="midnightblue" points="1006,-269.38 1015.77,-273.47 1010.68,-264.18 1006,-269.38"/>
</g>
<!-- Node20&#45;&gt;Node13 -->
<g id="edge23" class="edge">
<title>Node20&#45;&gt;Node13</title>
<path fill="none" stroke="midnightblue" d="M883.93,-136.28C895.28,-123.7 911.56,-105.27 925,-88.5 941.9,-67.41 939.16,-55.41 961,-39.5 963.48,-37.7 966.1,-36.02 968.81,-34.47"/>
<polygon fill="midnightblue" stroke="midnightblue" points="970.45,-37.57 977.77,-29.91 967.27,-31.33 970.45,-37.57"/>
</g>
<!-- Node20&#45;&gt;Node14 -->
<g id="edge24" class="edge">
<title>Node20&#45;&gt;Node14</title>
<path fill="none" stroke="midnightblue" d="M888.54,-136.31C906.26,-122.37 934.19,-101.91 961,-88.5 965.6,-86.2 970.46,-84.05 975.41,-82.04"/>
<polygon fill="midnightblue" stroke="midnightblue" points="976.89,-85.23 984.98,-78.39 974.39,-78.69 976.89,-85.23"/>
</g>
<!-- Node21 -->
<g id="node21" class="node">
<title>Node21</title>
<g id="a_node21"><a xlink:href="a00397.html#af4e8baa9d706f75b1bf21d95069d3f42" target="_top" xlink:title=" ">
<polygon fill="white" stroke="black" points="978,-147.5 978,-177.5 1090,-177.5 1090,-147.5 978,-147.5"/>
<text text-anchor="start" x="986" y="-165.5" font-family="Helvetica,sans-Serif" font-size="10.00">LibLoader::PluginData</text>
<text text-anchor="middle" x="1034" y="-154.5" font-family="Helvetica,sans-Serif" font-size="10.00">::_disable</text>
</a>
</g>
</g>
<!-- Node20&#45;&gt;Node21 -->
<g id="edge22" class="edge">
<title>Node20&#45;&gt;Node21</title>
<path fill="none" stroke="midnightblue" d="M918.02,-154.74C933.58,-155.79 951.1,-156.97 967.69,-158.09"/>
<polygon fill="midnightblue" stroke="midnightblue" points="967.66,-161.6 977.87,-158.78 968.13,-154.61 967.66,-161.6"/>
</g>
<!-- Node22 -->
<g id="node22" class="node">
<title>Node22</title>
<g id="a_node22"><a xlink:href="a00401.html#a514f9ddd7ffcea8a5166b23e21207939" target="_top" xlink:title=" ">
<polygon fill="white" stroke="black" points="1143,-142.5 1143,-172.5 1288,-172.5 1288,-142.5 1143,-142.5"/>
<text text-anchor="start" x="1151" y="-160.5" font-family="Helvetica,sans-Serif" font-size="10.00">LibLoader::PluginListManager</text>
<text text-anchor="middle" x="1215.5" y="-149.5" font-family="Helvetica,sans-Serif" font-size="10.00">::setThreadRunningPluginId</text>
</a>
</g>
</g>
<!-- Node20&#45;&gt;Node22 -->
<g id="edge26" class="edge">
<title>Node20&#45;&gt;Node22</title>
<path fill="none" stroke="midnightblue" d="M905.17,-166.55C925.8,-175.08 949.93,-184.45 961,-186.5 1024.8,-198.35 1042.67,-195.02 1107,-186.5 1124.22,-184.22 1142.59,-179.97 1159.19,-175.41"/>
<polygon fill="midnightblue" stroke="midnightblue" points="1160.61,-178.64 1169.27,-172.54 1158.69,-171.91 1160.61,-178.64"/>
</g>
<!-- Node24 -->
<g id="node24" class="node">
<title>Node24</title>
<g id="a_node24"><a xlink:href="a00401.html#a899e8d987ae7fb84107024415e5bcda3" target="_top" xlink:title=" ">
<polygon fill="white" stroke="black" points="961,-98.5 961,-128.5 1107,-128.5 1107,-98.5 961,-98.5"/>
<text text-anchor="start" x="969" y="-116.5" font-family="Helvetica,sans-Serif" font-size="10.00">LibLoader::PluginListManager</text>
<text text-anchor="middle" x="1034" y="-105.5" font-family="Helvetica,sans-Serif" font-size="10.00">::unsetThreadRunningPluginId</text>
</a>
</g>
</g>
<!-- Node20&#45;&gt;Node24 -->
<g id="edge28" class="edge">
<title>Node20&#45;&gt;Node24</title>
<path fill="none" stroke="midnightblue" d="M918.02,-140.3C930.72,-137.34 944.73,-134.08 958.47,-130.88"/>
<polygon fill="midnightblue" stroke="midnightblue" points="959.46,-134.24 968.4,-128.56 957.87,-127.42 959.46,-134.24"/>
</g>
<!-- Node23 -->
<g id="node23" class="node">
<title>Node23</title>
<g id="a_node23"><a xlink:href="a00401.html#a412429fcc7161bafeb4650c98f582ec2" target="_top" xlink:title=" ">
<polygon fill="white" stroke="black" points="1324,-142.5 1324,-172.5 1469,-172.5 1469,-142.5 1324,-142.5"/>
<text text-anchor="start" x="1332" y="-160.5" font-family="Helvetica,sans-Serif" font-size="10.00">LibLoader::PluginListManager</text>
<text text-anchor="middle" x="1396.5" y="-149.5" font-family="Helvetica,sans-Serif" font-size="10.00">::threadRunningPluginId</text>
</a>
</g>
</g>
<!-- Node22&#45;&gt;Node23 -->
<g id="edge27" class="edge">
<title>Node22&#45;&gt;Node23</title>
<path fill="none" stroke="midnightblue" d="M1288.02,-157.5C1296.49,-157.5 1305.18,-157.5 1313.78,-157.5"/>
<polygon fill="midnightblue" stroke="midnightblue" points="1313.8,-161 1323.8,-157.5 1313.8,-154 1313.8,-161"/>
</g>
<!-- Node24&#45;&gt;Node22 -->
<g id="edge29" class="edge">
<title>Node24&#45;&gt;Node22</title>
<path fill="none" stroke="midnightblue" d="M1096.27,-128.52C1111.35,-132.22 1127.63,-136.21 1143.14,-140.01"/>
<polygon fill="midnightblue" stroke="midnightblue" points="1142.65,-143.49 1153.2,-142.47 1144.32,-136.69 1142.65,-143.49"/>
</g>
</g>
</svg>
