<?xml version="1.0" encoding="UTF-8" standalone="no"?>
<!DOCTYPE svg PUBLIC "-//W3C//DTD SVG 1.1//EN"
 "http://www.w3.org/Graphics/SVG/1.1/DTD/svg11.dtd">
<!-- Generated by graphviz version 2.50.0 (20211204.2007)
 -->
<!-- Title: LibLoader::PluginFuncAddrData Pages: 1 -->
<svg width="217pt" height="540pt"
 viewBox="0.00 0.00 216.50 540.00" xmlns="http://www.w3.org/2000/svg" xmlns:xlink="http://www.w3.org/1999/xlink">
<g id="graph0" class="graph" transform="scale(1 1) rotate(0) translate(4 536)">
<title>LibLoader::PluginFuncAddrData</title>
<polygon fill="white" stroke="transparent" points="-4,4 -4,-536 212.5,-536 212.5,4 -4,4"/>
<!-- Node1 -->
<g id="node1" class="node">
<title>Node1</title>
<g id="a_node1"><a xlink:title=" ">
<polygon fill="#bfbfbf" stroke="black" points="0,-0.5 0,-57.5 154,-57.5 154,-0.5 0,-0.5"/>
<text text-anchor="middle" x="77" y="-45.5" font-family="Helvetica,sans-Serif" font-size="10.00">LibLoader::PluginFuncAddrData</text>
<polyline fill="none" stroke="black" points="0,-38.5 154,-38.5 "/>
<text text-anchor="middle" x="77" y="-26.5" font-family="Helvetica,sans-Serif" font-size="10.00"> </text>
<polyline fill="none" stroke="black" points="0,-19.5 154,-19.5 "/>
<text text-anchor="start" x="8" y="-7.5" font-family="Helvetica,sans-Serif" font-size="10.00">+ void _resetAddrData()</text>
</a>
</g>
</g>
<!-- Node2 -->
<g id="node2" class="node">
<title>Node2</title>
<g id="a_node2"><a xlink:title=" ">
<polygon fill="white" stroke="#bfbfbf" points="18.5,-215.5 18.5,-272.5 47.5,-272.5 47.5,-215.5 18.5,-215.5"/>
<text text-anchor="middle" x="33" y="-260.5" font-family="Helvetica,sans-Serif" font-size="10.00">int</text>
<polyline fill="none" stroke="#bfbfbf" points="18.5,-253.5 47.5,-253.5 "/>
<text text-anchor="middle" x="33" y="-241.5" font-family="Helvetica,sans-Serif" font-size="10.00"> </text>
<polyline fill="none" stroke="#bfbfbf" points="18.5,-234.5 47.5,-234.5 "/>
<text text-anchor="middle" x="33" y="-222.5" font-family="Helvetica,sans-Serif" font-size="10.00"> </text>
</a>
</g>
</g>
<!-- Node2&#45;&gt;Node1 -->
<g id="edge1" class="edge">
<title>Node2&#45;&gt;Node1</title>
<path fill="none" stroke="#404040" d="M31.92,-215.33C31.43,-181.55 33.32,-123.12 49,-76 49.84,-73.48 50.84,-70.95 51.95,-68.44"/>
<polygon fill="none" stroke="#404040" points="51.96,-68.42 51.12,-61.26 57.41,-57.73 58.25,-64.89 51.96,-68.42"/>
<text text-anchor="middle" x="74.5" y="-101" font-family="Helvetica,sans-Serif" font-size="10.00"> +entrance</text>
<text text-anchor="middle" x="74.5" y="-90" font-family="Helvetica,sans-Serif" font-size="10.00">+eventFunc</text>
<text text-anchor="middle" x="74.5" y="-79" font-family="Helvetica,sans-Serif" font-size="10.00">+exit</text>
</g>
<!-- Node3 -->
<g id="node3" class="node">
<title>Node3</title>
<g id="a_node3"><a xlink:href="a00332.html" target="_top" xlink:title=" ">
<polygon fill="white" stroke="black" points="65.5,-127.5 65.5,-360.5 208.5,-360.5 208.5,-127.5 65.5,-127.5"/>
<text text-anchor="middle" x="137" y="-348.5" font-family="Helvetica,sans-Serif" font-size="10.00">MiraiCP::PluginConfig</text>
<polyline fill="none" stroke="black" points="65.5,-341.5 208.5,-341.5 "/>
<text text-anchor="middle" x="137" y="-329.5" font-family="Helvetica,sans-Serif" font-size="10.00"> </text>
<polyline fill="none" stroke="black" points="65.5,-322.5 208.5,-322.5 "/>
<text text-anchor="start" x="73.5" y="-310.5" font-family="Helvetica,sans-Serif" font-size="10.00">+ std::string getId()</text>
<text text-anchor="start" x="73.5" y="-299.5" font-family="Helvetica,sans-Serif" font-size="10.00"> const</text>
<text text-anchor="start" x="73.5" y="-288.5" font-family="Helvetica,sans-Serif" font-size="10.00">+ std::string getName</text>
<text text-anchor="start" x="73.5" y="-277.5" font-family="Helvetica,sans-Serif" font-size="10.00">() const</text>
<text text-anchor="start" x="73.5" y="-266.5" font-family="Helvetica,sans-Serif" font-size="10.00">+ std::string getVersion</text>
<text text-anchor="start" x="73.5" y="-255.5" font-family="Helvetica,sans-Serif" font-size="10.00">() const</text>
<text text-anchor="start" x="73.5" y="-244.5" font-family="Helvetica,sans-Serif" font-size="10.00">+ std::string getAuthor</text>
<text text-anchor="start" x="73.5" y="-233.5" font-family="Helvetica,sans-Serif" font-size="10.00">() const</text>
<text text-anchor="start" x="73.5" y="-222.5" font-family="Helvetica,sans-Serif" font-size="10.00">+ std::string getDescription</text>
<text text-anchor="start" x="73.5" y="-211.5" font-family="Helvetica,sans-Serif" font-size="10.00">() const</text>
<text text-anchor="start" x="73.5" y="-200.5" font-family="Helvetica,sans-Serif" font-size="10.00">+ std::string getTime</text>
<text text-anchor="start" x="73.5" y="-189.5" font-family="Helvetica,sans-Serif" font-size="10.00">() const</text>
<text text-anchor="start" x="73.5" y="-178.5" font-family="Helvetica,sans-Serif" font-size="10.00">+ std::string getMVersion</text>
<text text-anchor="start" x="73.5" y="-167.5" font-family="Helvetica,sans-Serif" font-size="10.00">() const</text>
<text text-anchor="start" x="73.5" y="-156.5" font-family="Helvetica,sans-Serif" font-size="10.00">+ bool isValid() const</text>
<text text-anchor="start" x="73.5" y="-145.5" font-family="Helvetica,sans-Serif" font-size="10.00">+ nlohmann::json serialize()</text>
<text text-anchor="start" x="73.5" y="-134.5" font-family="Helvetica,sans-Serif" font-size="10.00">+ std::string serialize2string()</text>
</a>
</g>
</g>
<!-- Node3&#45;&gt;Node1 -->
<g id="edge2" class="edge">
<title>Node3&#45;&gt;Node1</title>
<path fill="none" stroke="#404040" d="M115.28,-127.41C110.89,-109.98 105.81,-92.37 100,-76 99.16,-73.63 98.23,-71.23 97.23,-68.83"/>
<polygon fill="none" stroke="#404040" points="97.17,-68.68 91.05,-64.85 92.23,-57.74 98.35,-61.57 97.17,-68.68"/>
<text text-anchor="middle" x="132" y="-90" font-family="Helvetica,sans-Serif" font-size="10.00"> +infoFunc</text>
</g>
<!-- Node4 -->
<g id="node4" class="node">
<title>Node4</title>
<g id="a_node4"><a xlink:title=" ">
<polygon fill="white" stroke="#bfbfbf" points="102.5,-474.5 102.5,-531.5 171.5,-531.5 171.5,-474.5 102.5,-474.5"/>
<text text-anchor="middle" x="137" y="-519.5" font-family="Helvetica,sans-Serif" font-size="10.00">const char *</text>
<polyline fill="none" stroke="#bfbfbf" points="102.5,-512.5 171.5,-512.5 "/>
<text text-anchor="middle" x="137" y="-500.5" font-family="Helvetica,sans-Serif" font-size="10.00"> </text>
<polyline fill="none" stroke="#bfbfbf" points="102.5,-493.5 171.5,-493.5 "/>
<text text-anchor="middle" x="137" y="-481.5" font-family="Helvetica,sans-Serif" font-size="10.00"> </text>
</a>
</g>
</g>
<!-- Node4&#45;&gt;Node3 -->
<g id="edge3" class="edge">
<title>Node4&#45;&gt;Node3</title>
<path fill="none" stroke="#404040" d="M137,-474.5C137,-449.73 137,-411.43 137,-373.17"/>
<polygon fill="none" stroke="#404040" points="137,-372.77 133,-366.77 137,-360.77 141,-366.77 137,-372.77"/>
<text text-anchor="middle" x="164" y="-448" font-family="Helvetica,sans-Serif" font-size="10.00"> +author</text>
<text text-anchor="middle" x="164" y="-437" font-family="Helvetica,sans-Serif" font-size="10.00">+description</text>
<text text-anchor="middle" x="164" y="-426" font-family="Helvetica,sans-Serif" font-size="10.00">+id</text>
<text text-anchor="middle" x="164" y="-415" font-family="Helvetica,sans-Serif" font-size="10.00">+mversion</text>
<text text-anchor="middle" x="164" y="-404" font-family="Helvetica,sans-Serif" font-size="10.00">+name</text>
<text text-anchor="middle" x="164" y="-393" font-family="Helvetica,sans-Serif" font-size="10.00">+time</text>
<text text-anchor="middle" x="164" y="-382" font-family="Helvetica,sans-Serif" font-size="10.00">+version</text>
</g>
</g>
</svg>
