<?xml version="1.0" encoding="UTF-8" standalone="no"?>
<!DOCTYPE svg PUBLIC "-//W3C//DTD SVG 1.1//EN"
 "http://www.w3.org/Graphics/SVG/1.1/DTD/svg11.dtd">
<!-- Generated by graphviz version 2.50.0 (20211204.2007)
 -->
<!-- Title: LibLoader::LoaderLogger::error Pages: 1 -->
<svg width="991pt" height="95pt"
 viewBox="0.00 0.00 991.00 95.00" xmlns="http://www.w3.org/2000/svg" xmlns:xlink="http://www.w3.org/1999/xlink">
<g id="graph0" class="graph" transform="scale(1 1) rotate(0) translate(4 91)">
<title>LibLoader::LoaderLogger::error</title>
<polygon fill="white" stroke="transparent" points="-4,4 -4,-91 987,-91 987,4 -4,4"/>
<!-- Node1 -->
<g id="node1" class="node">
<title>Node1</title>
<g id="a_node1"><a xlink:title=" ">
<polygon fill="#bfbfbf" stroke="black" points="0,-25.5 0,-55.5 123,-55.5 123,-25.5 0,-25.5"/>
<text text-anchor="start" x="8" y="-43.5" font-family="Helvetica,sans-Serif" font-size="10.00">LibLoader::LoaderLogger</text>
<text text-anchor="middle" x="61.5" y="-32.5" font-family="Helvetica,sans-Serif" font-size="10.00">::error</text>
</a>
</g>
</g>
<!-- Node2 -->
<g id="node2" class="node">
<title>Node2</title>
<g id="a_node2"><a xlink:href="a00393.html#af4d7d5164450e25f7401d1cc15f15b8d" target="_top" xlink:title="实际暴露的接口">
<polygon fill="white" stroke="black" points="159,-25.5 159,-55.5 282,-55.5 282,-25.5 159,-25.5"/>
<text text-anchor="start" x="167" y="-43.5" font-family="Helvetica,sans-Serif" font-size="10.00">LibLoader::LoaderLogger</text>
<text text-anchor="middle" x="220.5" y="-32.5" font-family="Helvetica,sans-Serif" font-size="10.00">::call_logger</text>
</a>
</g>
</g>
<!-- Node1&#45;&gt;Node2 -->
<g id="edge1" class="edge">
<title>Node1&#45;&gt;Node2</title>
<path fill="none" stroke="midnightblue" d="M123.2,-40.5C131.64,-40.5 140.36,-40.5 148.95,-40.5"/>
<polygon fill="midnightblue" stroke="midnightblue" points="148.96,-44 158.96,-40.5 148.96,-37 148.96,-44"/>
</g>
<!-- Node3 -->
<g id="node3" class="node">
<title>Node3</title>
<g id="a_node3"><a xlink:href="a00309.html#a076c5f4ff8083c7cfc6523498d0ba30f" target="_top" xlink:title=" ">
<polygon fill="white" stroke="black" points="473,-56.5 473,-86.5 572,-86.5 572,-56.5 473,-56.5"/>
<text text-anchor="start" x="481" y="-74.5" font-family="Helvetica,sans-Serif" font-size="10.00">LibLoader::JNIEnvs</text>
<text text-anchor="middle" x="522.5" y="-63.5" font-family="Helvetica,sans-Serif" font-size="10.00">::getEnv</text>
</a>
</g>
</g>
<!-- Node2&#45;&gt;Node3 -->
<g id="edge2" class="edge">
<title>Node2&#45;&gt;Node3</title>
<path fill="none" stroke="midnightblue" d="M282.04,-53.72C293.91,-55.95 306.31,-58.01 318,-59.5 366.55,-65.68 422.02,-68.69 462.78,-70.14"/>
<polygon fill="midnightblue" stroke="midnightblue" points="462.7,-73.64 472.81,-70.48 462.93,-66.65 462.7,-73.64"/>
</g>
<!-- Node7 -->
<g id="node7" class="node">
<title>Node7</title>
<g id="a_node7"><a xlink:href="a00304.html#a6a6fcd695791253a9b3a053d313b2b93" target="_top" xlink:title=" ">
<polygon fill="white" stroke="black" points="318,-31 318,-50 425,-50 425,-31 318,-31"/>
<text text-anchor="middle" x="371.5" y="-38" font-family="Helvetica,sans-Serif" font-size="10.00">LibLoader::str2jstring</text>
</a>
</g>
</g>
<!-- Node2&#45;&gt;Node7 -->
<g id="edge6" class="edge">
<title>Node2&#45;&gt;Node7</title>
<path fill="none" stroke="midnightblue" d="M282.1,-40.5C290.47,-40.5 299.07,-40.5 307.48,-40.5"/>
<polygon fill="midnightblue" stroke="midnightblue" points="307.6,-44 317.6,-40.5 307.6,-37 307.6,-44"/>
</g>
<!-- Node4 -->
<g id="node4" class="node">
<title>Node4</title>
<g id="a_node4"><a xlink:href="a00361.html#aea7d58ff9f04d6d4849c25a2506603a5" target="_top" xlink:title="取env,如果不存在重新获取">
<polygon fill="white" stroke="black" points="620,-62 620,-81 739,-81 739,-62 620,-62"/>
<text text-anchor="middle" x="679.5" y="-69" font-family="Helvetica,sans-Serif" font-size="10.00">JNIEnvManager::getEnv</text>
</a>
</g>
</g>
<!-- Node3&#45;&gt;Node4 -->
<g id="edge3" class="edge">
<title>Node3&#45;&gt;Node4</title>
<path fill="none" stroke="midnightblue" d="M572.12,-71.5C584.1,-71.5 597.15,-71.5 609.88,-71.5"/>
<polygon fill="midnightblue" stroke="midnightblue" points="609.99,-75 619.99,-71.5 609.99,-68 609.99,-75"/>
</g>
<!-- Node5 -->
<g id="node5" class="node">
<title>Node5</title>
<g id="a_node5"><a xlink:href="a00197.html#a3d31403b7971274d47d308245206bd24" target="_top" xlink:title="为当前线程创建一个env.">
<polygon fill="white" stroke="black" points="775,-62 775,-81 825,-81 825,-62 775,-62"/>
<text text-anchor="middle" x="800" y="-69" font-family="Helvetica,sans-Serif" font-size="10.00">newEnv</text>
</a>
</g>
</g>
<!-- Node4&#45;&gt;Node5 -->
<g id="edge4" class="edge">
<title>Node4&#45;&gt;Node5</title>
<path fill="none" stroke="midnightblue" d="M739.06,-71.5C747.89,-71.5 756.75,-71.5 764.85,-71.5"/>
<polygon fill="midnightblue" stroke="midnightblue" points="764.98,-75 774.98,-71.5 764.98,-68 764.98,-75"/>
</g>
<!-- Node6 -->
<g id="node6" class="node">
<title>Node6</title>
<g id="a_node6"><a xlink:href="a00361.html#ae0e482c6a813848a8f5d34957d1b6307" target="_top" xlink:title="获取全局JavaVM对象.">
<polygon fill="white" stroke="black" points="861,-62 861,-81 983,-81 983,-62 861,-62"/>
<text text-anchor="middle" x="922" y="-69" font-family="Helvetica,sans-Serif" font-size="10.00">JNIEnvManager::getGvm</text>
</a>
</g>
</g>
<!-- Node5&#45;&gt;Node6 -->
<g id="edge5" class="edge">
<title>Node5&#45;&gt;Node6</title>
<path fill="none" stroke="midnightblue" d="M825.28,-71.5C832.75,-71.5 841.37,-71.5 850.32,-71.5"/>
<polygon fill="midnightblue" stroke="midnightblue" points="850.52,-75 860.52,-71.5 850.52,-68 850.52,-75"/>
</g>
<!-- Node7&#45;&gt;Node3 -->
<g id="edge7" class="edge">
<title>Node7&#45;&gt;Node3</title>
<path fill="none" stroke="midnightblue" d="M418.42,-50.05C432.45,-52.97 448.08,-56.23 462.84,-59.3"/>
<polygon fill="midnightblue" stroke="midnightblue" points="462.39,-62.78 472.89,-61.39 463.81,-55.92 462.39,-62.78"/>
</g>
<!-- Node8 -->
<g id="node8" class="node">
<title>Node8</title>
<g id="a_node8"><a xlink:href="a00393.html#af50d0545fe7d683e54fcd03453a423e3" target="_top" xlink:title=" ">
<polygon fill="white" stroke="black" points="461,-0.5 461,-30.5 584,-30.5 584,-0.5 461,-0.5"/>
<text text-anchor="start" x="469" y="-18.5" font-family="Helvetica,sans-Serif" font-size="10.00">LibLoader::LoaderLogger</text>
<text text-anchor="middle" x="522.5" y="-7.5" font-family="Helvetica,sans-Serif" font-size="10.00">::warning</text>
</a>
</g>
</g>
<!-- Node7&#45;&gt;Node8 -->
<g id="edge8" class="edge">
<title>Node7&#45;&gt;Node8</title>
<path fill="none" stroke="midnightblue" d="M425.03,-31.69C433.34,-30.29 442.05,-28.83 450.7,-27.38"/>
<polygon fill="midnightblue" stroke="midnightblue" points="451.5,-30.79 460.79,-25.69 450.35,-23.89 451.5,-30.79"/>
</g>
<!-- Node8&#45;&gt;Node2 -->
<g id="edge9" class="edge">
<title>Node8&#45;&gt;Node2</title>
<path fill="none" stroke="midnightblue" d="M460.76,-14.68C420.22,-14.77 365.77,-16.13 318,-21.5 309.58,-22.45 300.81,-23.74 292.13,-25.21"/>
<polygon fill="midnightblue" stroke="midnightblue" points="291.24,-21.81 282.01,-27 292.46,-28.7 291.24,-21.81"/>
</g>
</g>
</svg>
