<?xml version="1.0" encoding="UTF-8" standalone="no"?>
<!DOCTYPE svg PUBLIC "-//W3C//DTD SVG 1.1//EN"
 "http://www.w3.org/Graphics/SVG/1.1/DTD/svg11.dtd">
<!-- Generated by graphviz version 2.50.0 (20211204.2007)
 -->
<!-- Title: LibLoader::str2jstring Pages: 1 -->
<svg width="967pt" height="76pt"
 viewBox="0.00 0.00 967.00 75.98" xmlns="http://www.w3.org/2000/svg" xmlns:xlink="http://www.w3.org/1999/xlink">
<g id="graph0" class="graph" transform="scale(1 1) rotate(0) translate(4 71.98)">
<title>LibLoader::str2jstring</title>
<polygon fill="white" stroke="transparent" points="-4,4 -4,-71.98 963,-71.98 963,4 -4,4"/>
<!-- Node1 -->
<g id="node1" class="node">
<title>Node1</title>
<g id="a_node1"><a xlink:title=" ">
<polygon fill="#bfbfbf" stroke="black" points="0,-20.98 0,-39.98 107,-39.98 107,-20.98 0,-20.98"/>
<text text-anchor="middle" x="53.5" y="-27.98" font-family="Helvetica,sans-Serif" font-size="10.00">LibLoader::str2jstring</text>
</a>
</g>
</g>
<!-- Node2 -->
<g id="node2" class="node">
<title>Node2</title>
<g id="a_node2"><a xlink:href="a00309.html#a076c5f4ff8083c7cfc6523498d0ba30f" target="_top" xlink:title=" ">
<polygon fill="white" stroke="black" points="461,-37.48 461,-67.48 560,-67.48 560,-37.48 461,-37.48"/>
<text text-anchor="start" x="469" y="-55.48" font-family="Helvetica,sans-Serif" font-size="10.00">LibLoader::JNIEnvs</text>
<text text-anchor="middle" x="510.5" y="-44.48" font-family="Helvetica,sans-Serif" font-size="10.00">::getEnv</text>
</a>
</g>
</g>
<!-- Node1&#45;&gt;Node2 -->
<g id="edge1" class="edge">
<title>Node1&#45;&gt;Node2</title>
<path fill="none" stroke="midnightblue" d="M81.2,-40.1C98.55,-45.83 121.81,-52.54 143,-55.48 250.68,-70.4 377.87,-64.07 450.57,-58.2"/>
<polygon fill="midnightblue" stroke="midnightblue" points="451.22,-61.66 460.89,-57.35 450.63,-54.69 451.22,-61.66"/>
</g>
<!-- Node6 -->
<g id="node6" class="node">
<title>Node6</title>
<g id="a_node6"><a xlink:href="a00393.html#af50d0545fe7d683e54fcd03453a423e3" target="_top" xlink:title=" ">
<polygon fill="white" stroke="black" points="143,-15.48 143,-45.48 266,-45.48 266,-15.48 143,-15.48"/>
<text text-anchor="start" x="151" y="-33.48" font-family="Helvetica,sans-Serif" font-size="10.00">LibLoader::LoaderLogger</text>
<text text-anchor="middle" x="204.5" y="-22.48" font-family="Helvetica,sans-Serif" font-size="10.00">::warning</text>
</a>
</g>
</g>
<!-- Node1&#45;&gt;Node6 -->
<g id="edge5" class="edge">
<title>Node1&#45;&gt;Node6</title>
<path fill="none" stroke="midnightblue" d="M107.03,-30.48C115.34,-30.48 124.05,-30.48 132.7,-30.48"/>
<polygon fill="midnightblue" stroke="midnightblue" points="132.79,-33.98 142.79,-30.48 132.79,-26.98 132.79,-33.98"/>
</g>
<!-- Node3 -->
<g id="node3" class="node">
<title>Node3</title>
<g id="a_node3"><a xlink:href="a00361.html#aea7d58ff9f04d6d4849c25a2506603a5" target="_top" xlink:title="取env,如果不存在重新获取">
<polygon fill="white" stroke="black" points="596,-42.98 596,-61.98 715,-61.98 715,-42.98 596,-42.98"/>
<text text-anchor="middle" x="655.5" y="-49.98" font-family="Helvetica,sans-Serif" font-size="10.00">JNIEnvManager::getEnv</text>
</a>
</g>
</g>
<!-- Node2&#45;&gt;Node3 -->
<g id="edge2" class="edge">
<title>Node2&#45;&gt;Node3</title>
<path fill="none" stroke="midnightblue" d="M560.31,-52.48C568.51,-52.48 577.16,-52.48 585.75,-52.48"/>
<polygon fill="midnightblue" stroke="midnightblue" points="585.78,-55.98 595.78,-52.48 585.78,-48.98 585.78,-55.98"/>
</g>
<!-- Node4 -->
<g id="node4" class="node">
<title>Node4</title>
<g id="a_node4"><a xlink:href="a00197.html#a3d31403b7971274d47d308245206bd24" target="_top" xlink:title="为当前线程创建一个env.">
<polygon fill="white" stroke="black" points="751,-42.98 751,-61.98 801,-61.98 801,-42.98 751,-42.98"/>
<text text-anchor="middle" x="776" y="-49.98" font-family="Helvetica,sans-Serif" font-size="10.00">newEnv</text>
</a>
</g>
</g>
<!-- Node3&#45;&gt;Node4 -->
<g id="edge3" class="edge">
<title>Node3&#45;&gt;Node4</title>
<path fill="none" stroke="midnightblue" d="M715.06,-52.48C723.89,-52.48 732.75,-52.48 740.85,-52.48"/>
<polygon fill="midnightblue" stroke="midnightblue" points="740.98,-55.98 750.98,-52.48 740.98,-48.98 740.98,-55.98"/>
</g>
<!-- Node5 -->
<g id="node5" class="node">
<title>Node5</title>
<g id="a_node5"><a xlink:href="a00361.html#ae0e482c6a813848a8f5d34957d1b6307" target="_top" xlink:title="获取全局JavaVM对象.">
<polygon fill="white" stroke="black" points="837,-42.98 837,-61.98 959,-61.98 959,-42.98 837,-42.98"/>
<text text-anchor="middle" x="898" y="-49.98" font-family="Helvetica,sans-Serif" font-size="10.00">JNIEnvManager::getGvm</text>
</a>
</g>
</g>
<!-- Node4&#45;&gt;Node5 -->
<g id="edge4" class="edge">
<title>Node4&#45;&gt;Node5</title>
<path fill="none" stroke="midnightblue" d="M801.28,-52.48C808.75,-52.48 817.37,-52.48 826.32,-52.48"/>
<polygon fill="midnightblue" stroke="midnightblue" points="826.52,-55.98 836.52,-52.48 826.52,-48.98 826.52,-55.98"/>
</g>
<!-- Node7 -->
<g id="node7" class="node">
<title>Node7</title>
<g id="a_node7"><a xlink:href="a00393.html#af4d7d5164450e25f7401d1cc15f15b8d" target="_top" xlink:title="实际暴露的接口">
<polygon fill="white" stroke="black" points="302,-15.48 302,-45.48 425,-45.48 425,-15.48 302,-15.48"/>
<text text-anchor="start" x="310" y="-33.48" font-family="Helvetica,sans-Serif" font-size="10.00">LibLoader::LoaderLogger</text>
<text text-anchor="middle" x="363.5" y="-22.48" font-family="Helvetica,sans-Serif" font-size="10.00">::call_logger</text>
</a>
</g>
</g>
<!-- Node6&#45;&gt;Node7 -->
<g id="edge6" class="edge">
<title>Node6&#45;&gt;Node7</title>
<path fill="none" stroke="midnightblue" d="M266.2,-30.48C274.64,-30.48 283.36,-30.48 291.95,-30.48"/>
<polygon fill="midnightblue" stroke="midnightblue" points="291.96,-33.98 301.96,-30.48 291.96,-26.98 291.96,-33.98"/>
</g>
<!-- Node7&#45;&gt;Node1 -->
<g id="edge8" class="edge">
<title>Node7&#45;&gt;Node1</title>
<path fill="none" stroke="midnightblue" d="M314.37,-15.45C299.07,-11.37 281.97,-7.51 266,-5.48 211.77,1.43 197.15,2.02 143,-5.48 125.62,-7.89 106.84,-12.84 91.08,-17.7"/>
<polygon fill="midnightblue" stroke="midnightblue" points="89.66,-14.48 81.2,-20.86 91.79,-21.15 89.66,-14.48"/>
</g>
<!-- Node7&#45;&gt;Node2 -->
<g id="edge7" class="edge">
<title>Node7&#45;&gt;Node2</title>
<path fill="none" stroke="midnightblue" d="M425.15,-39.68C433.65,-40.97 442.37,-42.29 450.83,-43.58"/>
<polygon fill="midnightblue" stroke="midnightblue" points="450.57,-47.08 460.98,-45.12 451.62,-40.16 450.57,-47.08"/>
</g>
</g>
</svg>
