<?xml version="1.0" encoding="UTF-8" standalone="no"?>
<!DOCTYPE svg PUBLIC "-//W3C//DTD SVG 1.1//EN"
 "http://www.w3.org/Graphics/SVG/1.1/DTD/svg11.dtd">
<!-- Generated by graphviz version 9.0.0 (0)
 -->
<!-- Title: MiraiCPNewThread.cpp Pages: 1 -->
<svg width="1118pt" height="308pt"
 viewBox="0.00 0.00 1118.38 308.00" xmlns="http://www.w3.org/2000/svg" xmlns:xlink="http://www.w3.org/1999/xlink">
<g id="graph0" class="graph" transform="scale(1 1) rotate(0) translate(4 304)">
<title>MiraiCPNewThread.cpp</title>
<!-- Node1 -->
<g id="Node000001" class="node">
<title>Node1</title>
<g id="a_Node000001"><a xlink:title=" ">
<polygon fill="#999999" stroke="#666666" points="531,-300 410.75,-300 410.75,-280 531,-280 531,-300"/>
<text text-anchor="middle" x="470.88" y="-286.5" font-family="Helvetica,sans-Serif" font-size="10.00">MiraiCPNewThread.cpp</text>
</a>
</g>
</g>
<!-- Node2 -->
<g id="Node000002" class="node">
<title>Node2</title>
<g id="a_Node000002"><a xlink:href="a00053.html" target="_top" xlink:title=" ">
<polygon fill="white" stroke="#666666" points="172.75,-244 63,-244 63,-224 172.75,-224 172.75,-244"/>
<text text-anchor="middle" x="117.88" y="-230.5" font-family="Helvetica,sans-Serif" font-size="10.00">MiraiCPNewThread.h</text>
</a>
</g>
</g>
<!-- Node1&#45;&gt;Node2 -->
<g id="edge1_Node000001_Node000002" class="edge">
<title>Node1&#45;&gt;Node2</title>
<g id="a_edge1_Node000001_Node000002"><a xlink:title=" ">
<path fill="none" stroke="#63b8ff" d="M410.59,-279.78C347.71,-270.16 249.4,-255.12 184.32,-245.16"/>
<polygon fill="#63b8ff" stroke="#63b8ff" points="184.88,-241.71 174.47,-243.66 183.82,-248.63 184.88,-241.71"/>
</a>
</g>
</g>
<!-- Node13 -->
<g id="Node000013" class="node">
<title>Node13</title>
<g id="a_Node000013"><a xlink:title=" ">
<polygon fill="#e0e0e0" stroke="#999999" points="375.5,-132 324.25,-132 324.25,-112 375.5,-112 375.5,-132"/>
<text text-anchor="middle" x="349.88" y="-118.5" font-family="Helvetica,sans-Serif" font-size="10.00">sstream</text>
</a>
</g>
</g>
<!-- Node1&#45;&gt;Node13 -->
<g id="edge34_Node000001_Node000013" class="edge">
<title>Node1&#45;&gt;Node13</title>
<g id="a_edge34_Node000001_Node000013"><a xlink:title=" ">
<path fill="none" stroke="#63b8ff" d="M460.47,-279.54C451.13,-270.79 437.33,-257.18 426.88,-244 400.04,-210.16 374.22,-166.64 360.36,-142.08"/>
<polygon fill="#63b8ff" stroke="#63b8ff" points="363.54,-140.59 355.61,-133.56 357.42,-144 363.54,-140.59"/>
</a>
</g>
</g>
<!-- Node15 -->
<g id="Node000015" class="node">
<title>Node15</title>
<g id="a_Node000015"><a xlink:href="a00173.html" target="_top" xlink:title=" ">
<polygon fill="white" stroke="#666666" points="885.75,-244 836,-244 836,-224 885.75,-224 885.75,-244"/>
<text text-anchor="middle" x="860.88" y="-230.5" font-family="Helvetica,sans-Serif" font-size="10.00">Event.h</text>
</a>
</g>
</g>
<!-- Node1&#45;&gt;Node15 -->
<g id="edge19_Node000001_Node000015" class="edge">
<title>Node1&#45;&gt;Node15</title>
<g id="a_edge19_Node000001_Node000015"><a xlink:title=" ">
<path fill="none" stroke="#63b8ff" d="M531.38,-280.62C613.33,-269.28 757.05,-249.38 824.27,-240.07"/>
<polygon fill="#63b8ff" stroke="#63b8ff" points="824.6,-243.56 834.03,-238.72 823.64,-236.62 824.6,-243.56"/>
</a>
</g>
</g>
<!-- Node24 -->
<g id="Node000024" class="node">
<title>Node24</title>
<g id="a_Node000024"><a xlink:href="a00131.html" target="_top" xlink:title=" ">
<polygon fill="white" stroke="#666666" points="598,-244 435.75,-244 435.75,-224 598,-224 598,-244"/>
<text text-anchor="middle" x="516.88" y="-230.5" font-family="Helvetica,sans-Serif" font-size="10.00">Events/MiraiCPExceptionEvent.h</text>
</a>
</g>
</g>
<!-- Node1&#45;&gt;Node24 -->
<g id="edge32_Node000001_Node000024" class="edge">
<title>Node1&#45;&gt;Node24</title>
<g id="a_edge32_Node000001_Node000024"><a xlink:title=" ">
<path fill="none" stroke="#63b8ff" d="M478.89,-279.59C485.15,-272.24 494.05,-261.8 501.66,-252.87"/>
<polygon fill="#63b8ff" stroke="#63b8ff" points="504.15,-255.33 507.97,-245.45 498.82,-250.79 504.15,-255.33"/>
</a>
</g>
</g>
<!-- Node3 -->
<g id="Node000003" class="node">
<title>Node3</title>
<g id="a_Node000003"><a xlink:href="a00041.html" target="_top" xlink:title=" ">
<polygon fill="white" stroke="#666666" points="247.75,-76 156,-76 156,-56 247.75,-56 247.75,-76"/>
<text text-anchor="middle" x="201.88" y="-62.5" font-family="Helvetica,sans-Serif" font-size="10.00">MiraiCPMacros.h</text>
</a>
</g>
</g>
<!-- Node2&#45;&gt;Node3 -->
<g id="edge2_Node000002_Node000003" class="edge">
<title>Node2&#45;&gt;Node3</title>
<g id="a_edge2_Node000002_Node000003"><a xlink:title=" ">
<path fill="none" stroke="#63b8ff" d="M97.98,-223.58C58.43,-203.62 -23.42,-155.31 10.88,-112 19.32,-101.34 91.51,-86.48 144.66,-76.8"/>
<polygon fill="#63b8ff" stroke="#63b8ff" points="144.97,-80.3 154.19,-75.08 143.73,-73.41 144.97,-80.3"/>
</a>
</g>
</g>
<!-- Node5 -->
<g id="Node000005" class="node">
<title>Node5</title>
<g id="a_Node000005"><a xlink:href="a00101.html" target="_top" xlink:title=" ">
<polygon fill="white" stroke="#666666" points="154,-132 81.75,-132 81.75,-112 154,-112 154,-132"/>
<text text-anchor="middle" x="117.88" y="-118.5" font-family="Helvetica,sans-Serif" font-size="10.00">CPPPlugin.h</text>
</a>
</g>
</g>
<!-- Node2&#45;&gt;Node5 -->
<g id="edge4_Node000002_Node000005" class="edge">
<title>Node2&#45;&gt;Node5</title>
<g id="a_edge4_Node000002_Node000005"><a xlink:title=" ">
<path fill="none" stroke="#63b8ff" d="M117.88,-223.62C117.88,-206.01 117.88,-167.59 117.88,-143.65"/>
<polygon fill="#63b8ff" stroke="#63b8ff" points="121.38,-143.87 117.88,-133.87 114.38,-143.87 121.38,-143.87"/>
</a>
</g>
</g>
<!-- Node10 -->
<g id="Node000010" class="node">
<title>Node10</title>
<g id="a_Node000010"><a xlink:href="a00059.html" target="_top" xlink:title=" ">
<polygon fill="white" stroke="#666666" points="244.75,-188 177,-188 177,-168 244.75,-168 244.75,-188"/>
<text text-anchor="middle" x="210.88" y="-174.5" font-family="Helvetica,sans-Serif" font-size="10.00">Exception.h</text>
</a>
</g>
</g>
<!-- Node2&#45;&gt;Node10 -->
<g id="edge10_Node000002_Node000010" class="edge">
<title>Node2&#45;&gt;Node10</title>
<g id="a_edge10_Node000002_Node000010"><a xlink:title=" ">
<path fill="none" stroke="#63b8ff" d="M134.07,-223.59C148.12,-215.44 168.71,-203.48 185.03,-194"/>
<polygon fill="#63b8ff" stroke="#63b8ff" points="186.35,-197.29 193.24,-189.24 182.83,-191.23 186.35,-197.29"/>
</a>
</g>
</g>
<!-- Node14 -->
<g id="Node000014" class="node">
<title>Node14</title>
<g id="a_Node000014"><a xlink:title=" ">
<polygon fill="#e0e0e0" stroke="#999999" points="63.38,-132 20.38,-132 20.38,-112 63.38,-112 63.38,-132"/>
<text text-anchor="middle" x="41.88" y="-118.5" font-family="Helvetica,sans-Serif" font-size="10.00">thread</text>
</a>
</g>
</g>
<!-- Node2&#45;&gt;Node14 -->
<g id="edge18_Node000002_Node000014" class="edge">
<title>Node2&#45;&gt;Node14</title>
<g id="a_edge18_Node000002_Node000014"><a xlink:title=" ">
<path fill="none" stroke="#63b8ff" d="M111.4,-223.62C98.89,-205.52 71.21,-165.45 54.8,-141.7"/>
<polygon fill="#63b8ff" stroke="#63b8ff" points="57.76,-139.84 49.2,-133.6 52,-143.82 57.76,-139.84"/>
</a>
</g>
</g>
<!-- Node4 -->
<g id="Node000004" class="node">
<title>Node4</title>
<g id="a_Node000004"><a xlink:title=" ">
<polygon fill="#e0e0e0" stroke="#999999" points="226,-20 177.75,-20 177.75,0 226,0 226,-20"/>
<text text-anchor="middle" x="201.88" y="-6.5" font-family="Helvetica,sans-Serif" font-size="10.00">cassert</text>
</a>
</g>
</g>
<!-- Node3&#45;&gt;Node4 -->
<g id="edge3_Node000003_Node000004" class="edge">
<title>Node3&#45;&gt;Node4</title>
<g id="a_edge3_Node000003_Node000004"><a xlink:title=" ">
<path fill="none" stroke="#63b8ff" d="M201.88,-55.59C201.88,-49.01 201.88,-39.96 201.88,-31.73"/>
<polygon fill="#63b8ff" stroke="#63b8ff" points="205.38,-31.81 201.88,-21.81 198.38,-31.81 205.38,-31.81"/>
</a>
</g>
</g>
<!-- Node5&#45;&gt;Node3 -->
<g id="edge5_Node000005_Node000003" class="edge">
<title>Node5&#45;&gt;Node3</title>
<g id="a_edge5_Node000005_Node000003"><a xlink:title=" ">
<path fill="none" stroke="#63b8ff" d="M132.51,-111.59C144.96,-103.59 163.09,-91.93 177.7,-82.54"/>
<polygon fill="#63b8ff" stroke="#63b8ff" points="179.34,-85.65 185.86,-77.3 175.55,-79.76 179.34,-85.65"/>
</a>
</g>
</g>
<!-- Node6 -->
<g id="Node000006" class="node">
<title>Node6</title>
<g id="a_Node000006"><a xlink:href="a00044.html" target="_top" xlink:title=" ">
<polygon fill="white" stroke="#666666" points="79.75,-76 0,-76 0,-56 79.75,-56 79.75,-76"/>
<text text-anchor="middle" x="39.88" y="-62.5" font-family="Helvetica,sans-Serif" font-size="10.00">PluginConfig.h</text>
</a>
</g>
</g>
<!-- Node5&#45;&gt;Node6 -->
<g id="edge6_Node000005_Node000006" class="edge">
<title>Node5&#45;&gt;Node6</title>
<g id="a_edge6_Node000005_Node000006"><a xlink:title=" ">
<path fill="none" stroke="#63b8ff" d="M104.29,-111.59C92.84,-103.67 76.21,-92.16 62.72,-82.82"/>
<polygon fill="#63b8ff" stroke="#63b8ff" points="65.03,-80.16 54.81,-77.34 61.04,-85.91 65.03,-80.16"/>
</a>
</g>
</g>
<!-- Node8 -->
<g id="Node000008" class="node">
<title>Node8</title>
<g id="a_Node000008"><a xlink:title=" ">
<polygon fill="#e0e0e0" stroke="#999999" points="703.5,-76 652.25,-76 652.25,-56 703.5,-56 703.5,-76"/>
<text text-anchor="middle" x="677.88" y="-62.5" font-family="Helvetica,sans-Serif" font-size="10.00">memory</text>
</a>
</g>
</g>
<!-- Node5&#45;&gt;Node8 -->
<g id="edge8_Node000005_Node000008" class="edge">
<title>Node5&#45;&gt;Node8</title>
<g id="a_edge8_Node000005_Node000008"><a xlink:title=" ">
<path fill="none" stroke="#63b8ff" d="M154.23,-116.95C168.73,-115.36 185.59,-113.55 200.88,-112 364.74,-95.39 560.49,-77.55 640.76,-70.32"/>
<polygon fill="#63b8ff" stroke="#63b8ff" points="640.6,-73.85 650.24,-69.47 639.97,-66.88 640.6,-73.85"/>
</a>
</g>
</g>
<!-- Node9 -->
<g id="Node000009" class="node">
<title>Node9</title>
<g id="a_Node000009"><a xlink:title=" ">
<polygon fill="#e0e0e0" stroke="#999999" points="137.5,-76 98.25,-76 98.25,-56 137.5,-56 137.5,-76"/>
<text text-anchor="middle" x="117.88" y="-62.5" font-family="Helvetica,sans-Serif" font-size="10.00">utility</text>
</a>
</g>
</g>
<!-- Node5&#45;&gt;Node9 -->
<g id="edge9_Node000005_Node000009" class="edge">
<title>Node5&#45;&gt;Node9</title>
<g id="a_edge9_Node000005_Node000009"><a xlink:title=" ">
<path fill="none" stroke="#63b8ff" d="M117.88,-111.59C117.88,-105.01 117.88,-95.96 117.88,-87.73"/>
<polygon fill="#63b8ff" stroke="#63b8ff" points="121.38,-87.81 117.88,-77.81 114.38,-87.81 121.38,-87.81"/>
</a>
</g>
</g>
<!-- Node7 -->
<g id="Node000007" class="node">
<title>Node7</title>
<g id="a_Node000007"><a xlink:title=" ">
<polygon fill="#e0e0e0" stroke="#999999" points="109.88,-20 69.88,-20 69.88,0 109.88,0 109.88,-20"/>
<text text-anchor="middle" x="89.88" y="-6.5" font-family="Helvetica,sans-Serif" font-size="10.00">string</text>
</a>
</g>
</g>
<!-- Node6&#45;&gt;Node7 -->
<g id="edge7_Node000006_Node000007" class="edge">
<title>Node6&#45;&gt;Node7</title>
<g id="a_edge7_Node000006_Node000007"><a xlink:title=" ">
<path fill="none" stroke="#63b8ff" d="M48.58,-55.59C55.47,-48.16 65.27,-37.58 73.59,-28.58"/>
<polygon fill="#63b8ff" stroke="#63b8ff" points="76.01,-31.12 80.24,-21.41 70.87,-26.37 76.01,-31.12"/>
</a>
</g>
</g>
<!-- Node10&#45;&gt;Node3 -->
<g id="edge11_Node000010_Node000003" class="edge">
<title>Node10&#45;&gt;Node3</title>
<g id="a_edge11_Node000010_Node000003"><a xlink:title=" ">
<path fill="none" stroke="#63b8ff" d="M208.21,-167.79C205.74,-158.76 202.25,-144.57 200.88,-132 199.25,-117.19 199.57,-100.37 200.25,-87.55"/>
<polygon fill="#63b8ff" stroke="#63b8ff" points="203.73,-88.01 200.91,-77.8 196.75,-87.55 203.73,-88.01"/>
</a>
</g>
</g>
<!-- Node10&#45;&gt;Node5 -->
<g id="edge12_Node000010_Node000005" class="edge">
<title>Node10&#45;&gt;Node5</title>
<g id="a_edge12_Node000010_Node000005"><a xlink:title=" ">
<path fill="none" stroke="#63b8ff" d="M194.68,-167.59C180.63,-159.44 160.04,-147.48 143.72,-138"/>
<polygon fill="#63b8ff" stroke="#63b8ff" points="145.92,-135.23 135.51,-133.24 142.4,-141.29 145.92,-135.23"/>
</a>
</g>
</g>
<!-- Node10&#45;&gt;Node7 -->
<g id="edge16_Node000010_Node000007" class="edge">
<title>Node10&#45;&gt;Node7</title>
<g id="a_edge16_Node000010_Node000007"><a xlink:title=" ">
<path fill="none" stroke="#63b8ff" d="M234.98,-167.6C249.99,-160.33 268.06,-148.68 276.88,-132 289.08,-108.9 263.52,-62.14 256.88,-56 237.21,-37.85 163.97,-23.16 121.29,-15.91"/>
<polygon fill="#63b8ff" stroke="#63b8ff" points="122.07,-12.49 111.63,-14.31 120.93,-19.4 122.07,-12.49"/>
</a>
</g>
</g>
<!-- Node11 -->
<g id="Node000011" class="node">
<title>Node11</title>
<g id="a_Node000011"><a xlink:title=" ">
<polygon fill="#e0e0e0" stroke="#999999" points="491.75,-132 394,-132 394,-112 491.75,-112 491.75,-132"/>
<text text-anchor="middle" x="442.88" y="-118.5" font-family="Helvetica,sans-Serif" font-size="10.00">nlohmann/json.hpp</text>
</a>
</g>
</g>
<!-- Node10&#45;&gt;Node11 -->
<g id="edge13_Node000010_Node000011" class="edge">
<title>Node10&#45;&gt;Node11</title>
<g id="a_edge13_Node000010_Node000011"><a xlink:title=" ">
<path fill="none" stroke="#63b8ff" d="M245.11,-169.03C283.6,-160.07 346.54,-145.42 391.07,-135.06"/>
<polygon fill="#63b8ff" stroke="#63b8ff" points="391.83,-138.48 400.77,-132.8 390.24,-131.66 391.83,-138.48"/>
</a>
</g>
</g>
<!-- Node12 -->
<g id="Node000012" class="node">
<title>Node12</title>
<g id="a_Node000012"><a xlink:title=" ">
<polygon fill="#e0e0e0" stroke="#999999" points="267.88,-132 209.88,-132 209.88,-112 267.88,-112 267.88,-132"/>
<text text-anchor="middle" x="238.88" y="-118.5" font-family="Helvetica,sans-Serif" font-size="10.00">exception</text>
</a>
</g>
</g>
<!-- Node10&#45;&gt;Node12 -->
<g id="edge14_Node000010_Node000012" class="edge">
<title>Node10&#45;&gt;Node12</title>
<g id="a_edge14_Node000010_Node000012"><a xlink:title=" ">
<path fill="none" stroke="#63b8ff" d="M215.75,-167.59C219.37,-160.63 224.42,-150.89 228.87,-142.29"/>
<polygon fill="#63b8ff" stroke="#63b8ff" points="231.86,-144.13 233.36,-133.64 225.65,-140.91 231.86,-144.13"/>
</a>
</g>
</g>
<!-- Node10&#45;&gt;Node13 -->
<g id="edge15_Node000010_Node000013" class="edge">
<title>Node10&#45;&gt;Node13</title>
<g id="a_edge15_Node000010_Node000013"><a xlink:title=" ">
<path fill="none" stroke="#63b8ff" d="M235.09,-167.59C257.18,-159.01 290.07,-146.23 315,-136.55"/>
<polygon fill="#63b8ff" stroke="#63b8ff" points="316.01,-139.91 324.06,-133.03 313.47,-133.39 316.01,-139.91"/>
</a>
</g>
</g>
<!-- Node10&#45;&gt;Node14 -->
<g id="edge17_Node000010_Node000014" class="edge">
<title>Node10&#45;&gt;Node14</title>
<g id="a_edge17_Node000010_Node000014"><a xlink:title=" ">
<path fill="none" stroke="#63b8ff" d="M181.44,-167.59C151.54,-158.04 105.35,-143.28 74.38,-133.39"/>
<polygon fill="#63b8ff" stroke="#63b8ff" points="75.76,-130.15 65.17,-130.44 73.63,-136.82 75.76,-130.15"/>
</a>
</g>
</g>
<!-- Node15&#45;&gt;Node3 -->
<g id="edge20_Node000015_Node000003" class="edge">
<title>Node15&#45;&gt;Node3</title>
<g id="a_edge20_Node000015_Node000003"><a xlink:title=" ">
<path fill="none" stroke="#63b8ff" d="M835.74,-227.51C809.2,-220.95 766.87,-208.25 734.88,-188 694.51,-162.46 702.06,-132.42 658.88,-112 589.5,-79.19 365.98,-70.28 259.42,-67.88"/>
<polygon fill="#63b8ff" stroke="#63b8ff" points="259.53,-64.38 249.46,-67.66 259.38,-71.38 259.53,-64.38"/>
</a>
</g>
</g>
<!-- Node15&#45;&gt;Node8 -->
<g id="edge28_Node000015_Node000008" class="edge">
<title>Node15&#45;&gt;Node8</title>
<g id="a_edge28_Node000015_Node000008"><a xlink:title=" ">
<path fill="none" stroke="#63b8ff" d="M871.07,-223.81C884.15,-210.88 903.79,-186.8 891.88,-168 852.88,-106.48 765.26,-81.73 715.07,-72.33"/>
<polygon fill="#63b8ff" stroke="#63b8ff" points="715.71,-68.88 705.25,-70.61 714.5,-75.78 715.71,-68.88"/>
</a>
</g>
</g>
<!-- Node16 -->
<g id="Node000016" class="node">
<title>Node16</title>
<g id="a_Node000016"><a xlink:href="a00149.html" target="_top" xlink:title=" ">
<polygon fill="white" stroke="#666666" points="626.88,-188 520.88,-188 520.88,-168 626.88,-168 626.88,-188"/>
<text text-anchor="middle" x="573.88" y="-174.5" font-family="Helvetica,sans-Serif" font-size="10.00">Events/EventBase.h</text>
</a>
</g>
</g>
<!-- Node15&#45;&gt;Node16 -->
<g id="edge21_Node000015_Node000016" class="edge">
<title>Node15&#45;&gt;Node16</title>
<g id="a_edge21_Node000015_Node000016"><a xlink:title=" ">
<path fill="none" stroke="#63b8ff" d="M835.66,-228.26C791.23,-219.9 697.83,-202.32 635.46,-190.59"/>
<polygon fill="#63b8ff" stroke="#63b8ff" points="636.16,-187.16 625.68,-188.75 634.86,-194.04 636.16,-187.16"/>
</a>
</g>
</g>
<!-- Node19 -->
<g id="Node000019" class="node">
<title>Node19</title>
<g id="a_Node000019"><a xlink:title=" ">
<polygon fill="#e0e0e0" stroke="#999999" points="996.88,-188 938.88,-188 938.88,-168 996.88,-168 996.88,-188"/>
<text text-anchor="middle" x="967.88" y="-174.5" font-family="Helvetica,sans-Serif" font-size="10.00">functional</text>
</a>
</g>
</g>
<!-- Node15&#45;&gt;Node19 -->
<g id="edge26_Node000015_Node000019" class="edge">
<title>Node15&#45;&gt;Node19</title>
<g id="a_edge26_Node000015_Node000019"><a xlink:title=" ">
<path fill="none" stroke="#63b8ff" d="M879.51,-223.59C895.91,-215.32 920.03,-203.14 938.94,-193.6"/>
<polygon fill="#63b8ff" stroke="#63b8ff" points="940.39,-196.79 947.74,-189.16 937.24,-190.54 940.39,-196.79"/>
</a>
</g>
</g>
<!-- Node20 -->
<g id="Node000020" class="node">
<title>Node20</title>
<g id="a_Node000020"><a xlink:title=" ">
<polygon fill="#e0e0e0" stroke="#999999" points="1049.25,-188 1014.5,-188 1014.5,-168 1049.25,-168 1049.25,-188"/>
<text text-anchor="middle" x="1031.88" y="-174.5" font-family="Helvetica,sans-Serif" font-size="10.00">map</text>
</a>
</g>
</g>
<!-- Node15&#45;&gt;Node20 -->
<g id="edge27_Node000015_Node000020" class="edge">
<title>Node15&#45;&gt;Node20</title>
<g id="a_edge27_Node000015_Node000020"><a xlink:title=" ">
<path fill="none" stroke="#63b8ff" d="M886.1,-225.44C912.99,-217.32 957.08,-203.86 1003.42,-188.74"/>
<polygon fill="#63b8ff" stroke="#63b8ff" points="1004.43,-192.09 1012.84,-185.65 1002.25,-185.44 1004.43,-192.09"/>
</a>
</g>
</g>
<!-- Node21 -->
<g id="Node000021" class="node">
<title>Node21</title>
<g id="a_Node000021"><a xlink:title=" ">
<polygon fill="#e0e0e0" stroke="#999999" points="1110.38,-188 1067.38,-188 1067.38,-168 1110.38,-168 1110.38,-188"/>
<text text-anchor="middle" x="1088.88" y="-174.5" font-family="Helvetica,sans-Serif" font-size="10.00">mutex</text>
</a>
</g>
</g>
<!-- Node15&#45;&gt;Node21 -->
<g id="edge29_Node000015_Node000021" class="edge">
<title>Node15&#45;&gt;Node21</title>
<g id="a_edge29_Node000015_Node000021"><a xlink:title=" ">
<path fill="none" stroke="#63b8ff" d="M886.18,-227.71C921.8,-220.16 989,-205.54 1055.76,-188.43"/>
<polygon fill="#63b8ff" stroke="#63b8ff" points="1056.63,-191.82 1065.44,-185.93 1054.88,-185.04 1056.63,-191.82"/>
</a>
</g>
</g>
<!-- Node22 -->
<g id="Node000022" class="node">
<title>Node22</title>
<g id="a_Node000022"><a xlink:title=" ">
<polygon fill="#e0e0e0" stroke="#999999" points="821.62,-188 744.12,-188 744.12,-168 821.62,-168 821.62,-188"/>
<text text-anchor="middle" x="782.88" y="-174.5" font-family="Helvetica,sans-Serif" font-size="10.00">shared_mutex</text>
</a>
</g>
</g>
<!-- Node15&#45;&gt;Node22 -->
<g id="edge30_Node000015_Node000022" class="edge">
<title>Node15&#45;&gt;Node22</title>
<g id="a_edge30_Node000015_Node000022"><a xlink:title=" ">
<path fill="none" stroke="#63b8ff" d="M847.29,-223.59C835.84,-215.67 819.21,-204.16 805.72,-194.82"/>
<polygon fill="#63b8ff" stroke="#63b8ff" points="808.03,-192.16 797.81,-189.34 804.04,-197.91 808.03,-192.16"/>
</a>
</g>
</g>
<!-- Node23 -->
<g id="Node000023" class="node">
<title>Node23</title>
<g id="a_Node000023"><a xlink:title=" ">
<polygon fill="#e0e0e0" stroke="#999999" points="882.38,-188 839.38,-188 839.38,-168 882.38,-168 882.38,-188"/>
<text text-anchor="middle" x="860.88" y="-174.5" font-family="Helvetica,sans-Serif" font-size="10.00">vector</text>
</a>
</g>
</g>
<!-- Node15&#45;&gt;Node23 -->
<g id="edge31_Node000015_Node000023" class="edge">
<title>Node15&#45;&gt;Node23</title>
<g id="a_edge31_Node000015_Node000023"><a xlink:title=" ">
<path fill="none" stroke="#63b8ff" d="M860.88,-223.59C860.88,-217.01 860.88,-207.96 860.88,-199.73"/>
<polygon fill="#63b8ff" stroke="#63b8ff" points="864.38,-199.81 860.88,-189.81 857.38,-199.81 864.38,-199.81"/>
</a>
</g>
</g>
<!-- Node16&#45;&gt;Node8 -->
<g id="edge24_Node000016_Node000008" class="edge">
<title>Node16&#45;&gt;Node8</title>
<g id="a_edge24_Node000016_Node000008"><a xlink:title=" ">
<path fill="none" stroke="#63b8ff" d="M604.58,-167.58C622.78,-160.51 644.95,-149.08 658.88,-132 669.12,-119.44 673.84,-101.57 676.01,-87.74"/>
<polygon fill="#63b8ff" stroke="#63b8ff" points="679.47,-88.3 677.2,-77.95 672.52,-87.46 679.47,-88.3"/>
</a>
</g>
</g>
<!-- Node16&#45;&gt;Node11 -->
<g id="edge23_Node000016_Node000011" class="edge">
<title>Node16&#45;&gt;Node11</title>
<g id="a_edge23_Node000016_Node000011"><a xlink:title=" ">
<path fill="none" stroke="#63b8ff" d="M551.06,-167.59C530.43,-159.09 499.79,-146.46 476.38,-136.81"/>
<polygon fill="#63b8ff" stroke="#63b8ff" points="477.85,-133.63 467.27,-133.06 475.18,-140.1 477.85,-133.63"/>
</a>
</g>
</g>
<!-- Node17 -->
<g id="Node000017" class="node">
<title>Node17</title>
<g id="a_Node000017"><a xlink:href="a00062.html" target="_top" xlink:title=" ">
<polygon fill="white" stroke="#666666" points="649.62,-132 578.12,-132 578.12,-112 649.62,-112 649.62,-132"/>
<text text-anchor="middle" x="613.88" y="-118.5" font-family="Helvetica,sans-Serif" font-size="10.00">../SdkType.h</text>
</a>
</g>
</g>
<!-- Node16&#45;&gt;Node17 -->
<g id="edge22_Node000016_Node000017" class="edge">
<title>Node16&#45;&gt;Node17</title>
<g id="a_edge22_Node000016_Node000017"><a xlink:title=" ">
<path fill="none" stroke="#63b8ff" d="M580.84,-167.59C586.18,-160.39 593.7,-150.23 600.22,-141.43"/>
<polygon fill="#63b8ff" stroke="#63b8ff" points="602.95,-143.63 606.09,-133.51 597.32,-139.47 602.95,-143.63"/>
</a>
</g>
</g>
<!-- Node18 -->
<g id="Node000018" class="node">
<title>Node18</title>
<g id="a_Node000018"><a xlink:title=" ">
<polygon fill="#e0e0e0" stroke="#999999" points="559.75,-132 510,-132 510,-112 559.75,-112 559.75,-132"/>
<text text-anchor="middle" x="534.88" y="-118.5" font-family="Helvetica,sans-Serif" font-size="10.00">optional</text>
</a>
</g>
</g>
<!-- Node16&#45;&gt;Node18 -->
<g id="edge25_Node000016_Node000018" class="edge">
<title>Node16&#45;&gt;Node18</title>
<g id="a_edge25_Node000016_Node000018"><a xlink:title=" ">
<path fill="none" stroke="#63b8ff" d="M567.08,-167.59C561.88,-160.39 554.54,-150.23 548.19,-141.43"/>
<polygon fill="#63b8ff" stroke="#63b8ff" points="551.17,-139.58 542.48,-133.53 545.49,-143.68 551.17,-139.58"/>
</a>
</g>
</g>
<!-- Node24&#45;&gt;Node16 -->
<g id="edge33_Node000024_Node000016" class="edge">
<title>Node24&#45;&gt;Node16</title>
<g id="a_edge33_Node000024_Node000016"><a xlink:title=" ">
<path fill="none" stroke="#63b8ff" d="M526.8,-223.59C534.81,-216.01 546.29,-205.13 555.91,-196.02"/>
<polygon fill="#63b8ff" stroke="#63b8ff" points="558.11,-198.76 562.96,-189.34 553.29,-193.68 558.11,-198.76"/>
</a>
</g>
</g>
</g>
</svg>
