<?xml version="1.0" encoding="UTF-8" standalone="no"?>
<!DOCTYPE svg PUBLIC "-//W3C//DTD SVG 1.1//EN"
 "http://www.w3.org/Graphics/SVG/1.1/DTD/svg11.dtd">
<!-- Generated by graphviz version 9.0.0 (0)
 -->
<!-- Title: MessageProcessor.cpp Pages: 1 -->
<svg width="868pt" height="420pt"
 viewBox="0.00 0.00 867.75 420.00" xmlns="http://www.w3.org/2000/svg" xmlns:xlink="http://www.w3.org/1999/xlink">
<g id="graph0" class="graph" transform="scale(1 1) rotate(0) translate(4 416)">
<title>MessageProcessor.cpp</title>
<!-- Node1 -->
<g id="Node000001" class="node">
<title>Node1</title>
<g id="a_Node000001"><a xlink:title=" ">
<polygon fill="#999999" stroke="#666666" points="483.12,-412 364.38,-412 364.38,-392 483.12,-392 483.12,-412"/>
<text text-anchor="middle" x="423.75" y="-398.5" font-family="Helvetica,sans-Serif" font-size="10.00">MessageProcessor.cpp</text>
</a>
</g>
</g>
<!-- Node2 -->
<g id="Node000002" class="node">
<title>Node2</title>
<g id="a_Node000002"><a xlink:href="a00215.html" target="_top" xlink:title=" ">
<polygon fill="white" stroke="#666666" points="222.88,-300 114.62,-300 114.62,-280 222.88,-280 222.88,-300"/>
<text text-anchor="middle" x="168.75" y="-286.5" font-family="Helvetica,sans-Serif" font-size="10.00">MessageProcessor.h</text>
</a>
</g>
</g>
<!-- Node1&#45;&gt;Node2 -->
<g id="edge1_Node000001_Node000002" class="edge">
<title>Node1&#45;&gt;Node2</title>
<g id="a_edge1_Node000001_Node000002"><a xlink:title=" ">
<path fill="none" stroke="#63b8ff" d="M402.01,-391.62C357.03,-372.22 253.58,-327.59 200.87,-304.86"/>
<polygon fill="#63b8ff" stroke="#63b8ff" points="202.39,-301.7 191.83,-300.95 199.62,-308.13 202.39,-301.7"/>
</a>
</g>
</g>
<!-- Node14 -->
<g id="Node000014" class="node">
<title>Node14</title>
<g id="a_Node000014"><a xlink:href="a00251.html" target="_top" xlink:title=" ">
<polygon fill="white" stroke="#666666" points="560.12,-244 477.38,-244 477.38,-224 560.12,-224 560.12,-244"/>
<text text-anchor="middle" x="518.75" y="-230.5" font-family="Helvetica,sans-Serif" font-size="10.00">LoaderLogger.h</text>
</a>
</g>
</g>
<!-- Node1&#45;&gt;Node14 -->
<g id="edge19_Node000001_Node000014" class="edge">
<title>Node1&#45;&gt;Node14</title>
<g id="a_edge19_Node000001_Node000014"><a xlink:title=" ">
<path fill="none" stroke="#63b8ff" d="M483.44,-400.43C554.74,-396.14 671.31,-376.92 726.75,-300 766.8,-244.43 646.15,-234.95 572.08,-234.16"/>
<polygon fill="#63b8ff" stroke="#63b8ff" points="572.15,-230.66 562.14,-234.11 572.12,-237.66 572.15,-230.66"/>
</a>
</g>
</g>
<!-- Node16 -->
<g id="Node000016" class="node">
<title>Node16</title>
<g id="a_Node000016"><a xlink:href="a00290.html" target="_top" xlink:title=" ">
<polygon fill="white" stroke="#666666" points="263.62,-356 165.88,-356 165.88,-336 263.62,-336 263.62,-356"/>
<text text-anchor="middle" x="214.75" y="-342.5" font-family="Helvetica,sans-Serif" font-size="10.00">MessageHandler.h</text>
</a>
</g>
</g>
<!-- Node1&#45;&gt;Node16 -->
<g id="edge23_Node000001_Node000016" class="edge">
<title>Node1&#45;&gt;Node16</title>
<g id="a_edge23_Node000001_Node000016"><a xlink:title=" ">
<path fill="none" stroke="#63b8ff" d="M387.34,-391.59C352.64,-382.63 300.2,-369.08 262.23,-359.27"/>
<polygon fill="#63b8ff" stroke="#63b8ff" points="263.46,-355.97 252.9,-356.86 261.71,-362.75 263.46,-355.97"/>
</a>
</g>
</g>
<!-- Node17 -->
<g id="Node000017" class="node">
<title>Node17</title>
<g id="a_Node000017"><a xlink:href="a00320.html" target="_top" xlink:title=" ">
<polygon fill="white" stroke="#666666" points="449.38,-356 398.12,-356 398.12,-336 449.38,-336 449.38,-356"/>
<text text-anchor="middle" x="423.75" y="-342.5" font-family="Helvetica,sans-Serif" font-size="10.00">Plugin.h</text>
</a>
</g>
</g>
<!-- Node1&#45;&gt;Node17 -->
<g id="edge25_Node000001_Node000017" class="edge">
<title>Node1&#45;&gt;Node17</title>
<g id="a_edge25_Node000001_Node000017"><a xlink:title=" ">
<path fill="none" stroke="#63b8ff" d="M423.75,-391.59C423.75,-385.01 423.75,-375.96 423.75,-367.73"/>
<polygon fill="#63b8ff" stroke="#63b8ff" points="427.25,-367.81 423.75,-357.81 420.25,-367.81 427.25,-367.81"/>
</a>
</g>
</g>
<!-- Node23 -->
<g id="Node000023" class="node">
<title>Node23</title>
<g id="a_Node000023"><a xlink:href="a00047.html" target="_top" xlink:title=" ">
<polygon fill="white" stroke="#666666" points="859.25,-356 774.25,-356 774.25,-336 859.25,-336 859.25,-356"/>
<text text-anchor="middle" x="816.75" y="-342.5" font-family="Helvetica,sans-Serif" font-size="10.00">commonTools.h</text>
</a>
</g>
</g>
<!-- Node1&#45;&gt;Node23 -->
<g id="edge36_Node000001_Node000023" class="edge">
<title>Node1&#45;&gt;Node23</title>
<g id="a_edge36_Node000001_Node000023"><a xlink:title=" ">
<path fill="none" stroke="#63b8ff" d="M483.59,-393.42C550.84,-384.79 663.22,-370.08 759.75,-356 760.75,-355.85 761.75,-355.71 762.77,-355.56"/>
<polygon fill="#63b8ff" stroke="#63b8ff" points="762.95,-359.07 772.32,-354.12 761.91,-352.15 762.95,-359.07"/>
</a>
</g>
</g>
<!-- Node3 -->
<g id="Node000003" class="node">
<title>Node3</title>
<g id="a_Node000003"><a xlink:href="a00176.html" target="_top" xlink:title=" ">
<polygon fill="white" stroke="#666666" points="71.5,-244 0,-244 0,-224 71.5,-224 71.5,-244"/>
<text text-anchor="middle" x="35.75" y="-230.5" font-family="Helvetica,sans-Serif" font-size="10.00">MsgDefine.h</text>
</a>
</g>
</g>
<!-- Node2&#45;&gt;Node3 -->
<g id="edge2_Node000002_Node000003" class="edge">
<title>Node2&#45;&gt;Node3</title>
<g id="a_edge2_Node000002_Node000003"><a xlink:title=" ">
<path fill="none" stroke="#63b8ff" d="M145.58,-279.59C124.54,-271.05 93.25,-258.35 69.45,-248.68"/>
<polygon fill="#63b8ff" stroke="#63b8ff" points="71.08,-245.57 60.5,-245.05 68.45,-252.05 71.08,-245.57"/>
</a>
</g>
</g>
<!-- Node8 -->
<g id="Node000008" class="node">
<title>Node8</title>
<g id="a_Node000008"><a xlink:title=" ">
<polygon fill="#e0e0e0" stroke="#999999" points="163.12,-188 80.38,-188 80.38,-168 163.12,-168 163.12,-188"/>
<text text-anchor="middle" x="121.75" y="-174.5" font-family="Helvetica,sans-Serif" font-size="10.00">polym/Msg.hpp</text>
</a>
</g>
</g>
<!-- Node2&#45;&gt;Node8 -->
<g id="edge17_Node000002_Node000008" class="edge">
<title>Node2&#45;&gt;Node8</title>
<g id="a_edge17_Node000002_Node000008"><a xlink:title=" ">
<path fill="none" stroke="#63b8ff" d="M181.04,-279.7C196.21,-267.04 218.62,-243.71 206.75,-224 198.07,-209.59 183.06,-199.55 168.04,-192.68"/>
<polygon fill="#63b8ff" stroke="#63b8ff" points="169.7,-189.57 159.12,-188.99 167.02,-196.04 169.7,-189.57"/>
</a>
</g>
</g>
<!-- Node9 -->
<g id="Node000009" class="node">
<title>Node9</title>
<g id="a_Node000009"><a xlink:href="a00182.html" target="_top" xlink:title=" ">
<polygon fill="white" stroke="#666666" points="341.75,-244 253.75,-244 253.75,-224 341.75,-224 341.75,-244"/>
<text text-anchor="middle" x="297.75" y="-230.5" font-family="Helvetica,sans-Serif" font-size="10.00">commonTypes.h</text>
</a>
</g>
</g>
<!-- Node2&#45;&gt;Node9 -->
<g id="edge9_Node000002_Node000009" class="edge">
<title>Node2&#45;&gt;Node9</title>
<g id="a_edge9_Node000002_Node000009"><a xlink:title=" ">
<path fill="none" stroke="#63b8ff" d="M191.22,-279.59C211.54,-271.09 241.7,-258.46 264.76,-248.81"/>
<polygon fill="#63b8ff" stroke="#63b8ff" points="265.84,-252.15 273.71,-245.06 263.13,-245.7 265.84,-252.15"/>
</a>
</g>
</g>
<!-- Node12 -->
<g id="Node000012" class="node">
<title>Node12</title>
<g id="a_Node000012"><a xlink:title=" ">
<polygon fill="#e0e0e0" stroke="#999999" points="140.38,-244 89.12,-244 89.12,-224 140.38,-224 140.38,-244"/>
<text text-anchor="middle" x="114.75" y="-230.5" font-family="Helvetica,sans-Serif" font-size="10.00">memory</text>
</a>
</g>
</g>
<!-- Node2&#45;&gt;Node12 -->
<g id="edge16_Node000002_Node000012" class="edge">
<title>Node2&#45;&gt;Node12</title>
<g id="a_edge16_Node000002_Node000012"><a xlink:title=" ">
<path fill="none" stroke="#63b8ff" d="M159.34,-279.59C151.83,-272.08 141.1,-261.35 132.05,-252.3"/>
<polygon fill="#63b8ff" stroke="#63b8ff" points="134.66,-249.96 125.12,-245.37 129.71,-254.91 134.66,-249.96"/>
</a>
</g>
</g>
<!-- Node13 -->
<g id="Node000013" class="node">
<title>Node13</title>
<g id="a_Node000013"><a xlink:title=" ">
<polygon fill="#e0e0e0" stroke="#999999" points="197.38,-244 158.12,-244 158.12,-224 197.38,-224 197.38,-244"/>
<text text-anchor="middle" x="177.75" y="-230.5" font-family="Helvetica,sans-Serif" font-size="10.00">utility</text>
</a>
</g>
</g>
<!-- Node2&#45;&gt;Node13 -->
<g id="edge18_Node000002_Node000013" class="edge">
<title>Node2&#45;&gt;Node13</title>
<g id="a_edge18_Node000002_Node000013"><a xlink:title=" ">
<path fill="none" stroke="#63b8ff" d="M170.32,-279.59C171.43,-272.93 172.96,-263.75 174.34,-255.44"/>
<polygon fill="#63b8ff" stroke="#63b8ff" points="177.76,-256.23 175.95,-245.79 170.86,-255.08 177.76,-256.23"/>
</a>
</g>
</g>
<!-- Node4 -->
<g id="Node000004" class="node">
<title>Node4</title>
<g id="a_Node000004"><a xlink:href="a00191.html" target="_top" xlink:title=" ">
<polygon fill="white" stroke="#666666" points="278.38,-132 161.12,-132 161.12,-112 278.38,-112 278.38,-132"/>
<text text-anchor="middle" x="219.75" y="-118.5" font-family="Helvetica,sans-Serif" font-size="10.00">MiraiCPStringInternal.h</text>
</a>
</g>
</g>
<!-- Node3&#45;&gt;Node4 -->
<g id="edge3_Node000003_Node000004" class="edge">
<title>Node3&#45;&gt;Node4</title>
<g id="a_edge3_Node000003_Node000004"><a xlink:title=" ">
<path fill="none" stroke="#63b8ff" d="M38.46,-223.55C43,-209.39 53.5,-182.76 71.75,-168 93.86,-150.12 122.99,-139.33 149.56,-132.83"/>
<polygon fill="#63b8ff" stroke="#63b8ff" points="150.31,-136.25 159.29,-130.63 148.76,-129.42 150.31,-136.25"/>
</a>
</g>
</g>
<!-- Node3&#45;&gt;Node8 -->
<g id="edge8_Node000003_Node000008" class="edge">
<title>Node3&#45;&gt;Node8</title>
<g id="a_edge8_Node000003_Node000008"><a xlink:title=" ">
<path fill="none" stroke="#63b8ff" d="M50.73,-223.59C63.48,-215.59 82.04,-203.93 96.99,-194.54"/>
<polygon fill="#63b8ff" stroke="#63b8ff" points="98.76,-197.57 105.37,-189.28 95.04,-191.64 98.76,-197.57"/>
</a>
</g>
</g>
<!-- Node5 -->
<g id="Node000005" class="node">
<title>Node5</title>
<g id="a_Node000005"><a xlink:href="a00041.html" target="_top" xlink:title=" ">
<polygon fill="white" stroke="#666666" points="504.62,-76 412.88,-76 412.88,-56 504.62,-56 504.62,-76"/>
<text text-anchor="middle" x="458.75" y="-62.5" font-family="Helvetica,sans-Serif" font-size="10.00">MiraiCPMacros.h</text>
</a>
</g>
</g>
<!-- Node4&#45;&gt;Node5 -->
<g id="edge4_Node000004_Node000005" class="edge">
<title>Node4&#45;&gt;Node5</title>
<g id="a_edge4_Node000004_Node000005"><a xlink:title=" ">
<path fill="none" stroke="#63b8ff" d="M261.65,-111.53C301.72,-102.48 362.28,-88.8 405.69,-78.99"/>
<polygon fill="#63b8ff" stroke="#63b8ff" points="406.43,-82.41 415.42,-76.79 404.89,-75.58 406.43,-82.41"/>
</a>
</g>
</g>
<!-- Node6 -->
<g id="Node000006" class="node">
<title>Node6</title>
<g id="a_Node000006"><a xlink:title=" ">
<polygon fill="#e0e0e0" stroke="#999999" points="363.88,-20 315.62,-20 315.62,0 363.88,0 363.88,-20"/>
<text text-anchor="middle" x="339.75" y="-6.5" font-family="Helvetica,sans-Serif" font-size="10.00">cassert</text>
</a>
</g>
</g>
<!-- Node4&#45;&gt;Node6 -->
<g id="edge6_Node000004_Node000006" class="edge">
<title>Node4&#45;&gt;Node6</title>
<g id="a_edge6_Node000004_Node000006"><a xlink:title=" ">
<path fill="none" stroke="#63b8ff" d="M229.98,-111.62C250.17,-93.11 295.41,-51.65 321.06,-28.13"/>
<polygon fill="#63b8ff" stroke="#63b8ff" points="323.42,-30.71 328.43,-21.38 318.69,-25.55 323.42,-30.71"/>
</a>
</g>
</g>
<!-- Node7 -->
<g id="Node000007" class="node">
<title>Node7</title>
<g id="a_Node000007"><a xlink:title=" ">
<polygon fill="#e0e0e0" stroke="#999999" points="394.75,-76 354.75,-76 354.75,-56 394.75,-56 394.75,-76"/>
<text text-anchor="middle" x="374.75" y="-62.5" font-family="Helvetica,sans-Serif" font-size="10.00">string</text>
</a>
</g>
</g>
<!-- Node4&#45;&gt;Node7 -->
<g id="edge7_Node000004_Node000007" class="edge">
<title>Node4&#45;&gt;Node7</title>
<g id="a_edge7_Node000004_Node000007"><a xlink:title=" ">
<path fill="none" stroke="#63b8ff" d="M246.75,-111.59C273.86,-102.15 315.56,-87.62 343.94,-77.73"/>
<polygon fill="#63b8ff" stroke="#63b8ff" points="344.76,-81.16 353.05,-74.56 342.45,-74.55 344.76,-81.16"/>
</a>
</g>
</g>
<!-- Node5&#45;&gt;Node6 -->
<g id="edge5_Node000005_Node000006" class="edge">
<title>Node5&#45;&gt;Node6</title>
<g id="a_edge5_Node000005_Node000006"><a xlink:title=" ">
<path fill="none" stroke="#63b8ff" d="M438.02,-55.59C419.54,-47.21 392.21,-34.8 371.06,-25.21"/>
<polygon fill="#63b8ff" stroke="#63b8ff" points="372.57,-22.05 362.02,-21.1 369.68,-28.42 372.57,-22.05"/>
</a>
</g>
</g>
<!-- Node9&#45;&gt;Node5 -->
<g id="edge10_Node000009_Node000005" class="edge">
<title>Node9&#45;&gt;Node5</title>
<g id="a_edge10_Node000009_Node000005"><a xlink:title=" ">
<path fill="none" stroke="#63b8ff" d="M297.08,-223.76C295.98,-201.52 296.37,-144.44 325.75,-112 336.87,-99.72 373.7,-87.79 405.79,-79.3"/>
<polygon fill="#63b8ff" stroke="#63b8ff" points="406.61,-82.7 415.43,-76.82 404.87,-75.92 406.61,-82.7"/>
</a>
</g>
</g>
<!-- Node9&#45;&gt;Node8 -->
<g id="edge15_Node000009_Node000008" class="edge">
<title>Node9&#45;&gt;Node8</title>
<g id="a_edge15_Node000009_Node000008"><a xlink:title=" ">
<path fill="none" stroke="#63b8ff" d="M267.09,-223.59C238.37,-214.78 195.22,-201.54 163.39,-191.78"/>
<polygon fill="#63b8ff" stroke="#63b8ff" points="164.68,-188.51 154.09,-188.92 162.63,-195.2 164.68,-188.51"/>
</a>
</g>
</g>
<!-- Node10 -->
<g id="Node000010" class="node">
<title>Node10</title>
<g id="a_Node000010"><a xlink:href="a00044.html" target="_top" xlink:title=" ">
<polygon fill="white" stroke="#666666" points="414.62,-132 334.88,-132 334.88,-112 414.62,-112 414.62,-132"/>
<text text-anchor="middle" x="374.75" y="-118.5" font-family="Helvetica,sans-Serif" font-size="10.00">PluginConfig.h</text>
</a>
</g>
</g>
<!-- Node9&#45;&gt;Node10 -->
<g id="edge11_Node000009_Node000010" class="edge">
<title>Node9&#45;&gt;Node10</title>
<g id="a_edge11_Node000009_Node000010"><a xlink:title=" ">
<path fill="none" stroke="#63b8ff" d="M304.31,-223.62C316.99,-205.52 345.03,-165.45 361.66,-141.7"/>
<polygon fill="#63b8ff" stroke="#63b8ff" points="364.47,-143.79 367.33,-133.59 358.73,-139.78 364.47,-143.79"/>
</a>
</g>
</g>
<!-- Node11 -->
<g id="Node000011" class="node">
<title>Node11</title>
<g id="a_Node000011"><a xlink:href="a00179.html" target="_top" xlink:title=" ">
<polygon fill="white" stroke="#666666" points="278.25,-188 181.25,-188 181.25,-168 278.25,-168 278.25,-188"/>
<text text-anchor="middle" x="229.75" y="-174.5" font-family="Helvetica,sans-Serif" font-size="10.00">loaderApiInternal.h</text>
</a>
</g>
</g>
<!-- Node9&#45;&gt;Node11 -->
<g id="edge13_Node000009_Node000011" class="edge">
<title>Node9&#45;&gt;Node11</title>
<g id="a_edge13_Node000009_Node000011"><a xlink:title=" ">
<path fill="none" stroke="#63b8ff" d="M285.91,-223.59C276.06,-215.77 261.82,-204.46 250.14,-195.19"/>
<polygon fill="#63b8ff" stroke="#63b8ff" points="252.65,-192.72 242.64,-189.24 248.3,-198.2 252.65,-192.72"/>
</a>
</g>
</g>
<!-- Node10&#45;&gt;Node7 -->
<g id="edge12_Node000010_Node000007" class="edge">
<title>Node10&#45;&gt;Node7</title>
<g id="a_edge12_Node000010_Node000007"><a xlink:title=" ">
<path fill="none" stroke="#63b8ff" d="M374.75,-111.59C374.75,-105.01 374.75,-95.96 374.75,-87.73"/>
<polygon fill="#63b8ff" stroke="#63b8ff" points="378.25,-87.81 374.75,-77.81 371.25,-87.81 378.25,-87.81"/>
</a>
</g>
</g>
<!-- Node11&#45;&gt;Node4 -->
<g id="edge14_Node000011_Node000004" class="edge">
<title>Node11&#45;&gt;Node4</title>
<g id="a_edge14_Node000011_Node000004"><a xlink:title=" ">
<path fill="none" stroke="#63b8ff" d="M228.01,-167.59C226.77,-160.93 225.07,-151.75 223.54,-143.44"/>
<polygon fill="#63b8ff" stroke="#63b8ff" points="227.01,-142.98 221.75,-133.79 220.13,-144.26 227.01,-142.98"/>
</a>
</g>
</g>
<!-- Node14&#45;&gt;Node5 -->
<g id="edge20_Node000014_Node000005" class="edge">
<title>Node14&#45;&gt;Node5</title>
<g id="a_edge20_Node000014_Node000005"><a xlink:title=" ">
<path fill="none" stroke="#63b8ff" d="M515.35,-223.6C505.86,-197.35 478.93,-122.84 465.94,-86.89"/>
<polygon fill="#63b8ff" stroke="#63b8ff" points="469.32,-85.94 462.63,-77.72 462.73,-88.32 469.32,-85.94"/>
</a>
</g>
</g>
<!-- Node14&#45;&gt;Node7 -->
<g id="edge21_Node000014_Node000007" class="edge">
<title>Node14&#45;&gt;Node7</title>
<g id="a_edge21_Node000014_Node000007"><a xlink:title=" ">
<path fill="none" stroke="#63b8ff" d="M516.07,-223.68C509.37,-201.76 489.98,-146.19 456.75,-112 442.45,-97.29 422.3,-86.14 405.55,-78.62"/>
<polygon fill="#63b8ff" stroke="#63b8ff" points="407.09,-75.47 396.52,-74.79 404.36,-81.92 407.09,-75.47"/>
</a>
</g>
</g>
<!-- Node15 -->
<g id="Node000015" class="node">
<title>Node15</title>
<g id="a_Node000015"><a xlink:title=" ">
<polygon fill="#e0e0e0" stroke="#999999" points="590.25,-188 547.25,-188 547.25,-168 590.25,-168 590.25,-188"/>
<text text-anchor="middle" x="568.75" y="-174.5" font-family="Helvetica,sans-Serif" font-size="10.00">vector</text>
</a>
</g>
</g>
<!-- Node14&#45;&gt;Node15 -->
<g id="edge22_Node000014_Node000015" class="edge">
<title>Node14&#45;&gt;Node15</title>
<g id="a_edge22_Node000014_Node000015"><a xlink:title=" ">
<path fill="none" stroke="#63b8ff" d="M527.46,-223.59C534.34,-216.16 544.14,-205.58 552.47,-196.58"/>
<polygon fill="#63b8ff" stroke="#63b8ff" points="554.89,-199.12 559.11,-189.41 549.75,-194.37 554.89,-199.12"/>
</a>
</g>
</g>
<!-- Node16&#45;&gt;Node2 -->
<g id="edge24_Node000016_Node000002" class="edge">
<title>Node16&#45;&gt;Node2</title>
<g id="a_edge24_Node000016_Node000002"><a xlink:title=" ">
<path fill="none" stroke="#63b8ff" d="M206.74,-335.59C200.47,-328.24 191.58,-317.8 183.97,-308.87"/>
<polygon fill="#63b8ff" stroke="#63b8ff" points="186.8,-306.79 177.65,-301.45 181.47,-311.33 186.8,-306.79"/>
</a>
</g>
</g>
<!-- Node17&#45;&gt;Node2 -->
<g id="edge26_Node000017_Node000002" class="edge">
<title>Node17&#45;&gt;Node2</title>
<g id="a_edge26_Node000017_Node000002"><a xlink:title=" ">
<path fill="none" stroke="#63b8ff" d="M397.9,-339.53C357.47,-330.96 278.35,-314.21 224.52,-302.81"/>
<polygon fill="#63b8ff" stroke="#63b8ff" points="225.43,-299.42 214.92,-300.78 223.98,-306.27 225.43,-299.42"/>
</a>
</g>
</g>
<!-- Node17&#45;&gt;Node7 -->
<g id="edge35_Node000017_Node000007" class="edge">
<title>Node17&#45;&gt;Node7</title>
<g id="a_edge35_Node000017_Node000007"><a xlink:title=" ">
<path fill="none" stroke="#63b8ff" d="M426.47,-335.68C431.73,-316.83 442.75,-272.79 442.75,-235 442.75,-235 442.75,-235 442.75,-177 442.75,-146.9 439.64,-137.56 423.75,-112 416.89,-100.96 406.6,-90.94 397.21,-83.16"/>
<polygon fill="#63b8ff" stroke="#63b8ff" points="399.52,-80.52 389.48,-77.12 395.2,-86.04 399.52,-80.52"/>
</a>
</g>
</g>
<!-- Node17&#45;&gt;Node9 -->
<g id="edge30_Node000017_Node000009" class="edge">
<title>Node17&#45;&gt;Node9</title>
<g id="a_edge30_Node000017_Node000009"><a xlink:title=" ">
<path fill="none" stroke="#63b8ff" d="M420.39,-335.94C414.95,-322.3 403.04,-296.34 385.75,-280 371.53,-266.56 352.52,-256.17 335.81,-248.77"/>
<polygon fill="#63b8ff" stroke="#63b8ff" points="337.2,-245.56 326.63,-244.92 334.5,-252.02 337.2,-245.56"/>
</a>
</g>
</g>
<!-- Node18 -->
<g id="Node000018" class="node">
<title>Node18</title>
<g id="a_Node000018"><a xlink:href="a00293.html" target="_top" xlink:title=" ">
<polygon fill="white" stroke="#666666" points="312.88,-300 240.62,-300 240.62,-280 312.88,-280 312.88,-300"/>
<text text-anchor="middle" x="276.75" y="-286.5" font-family="Helvetica,sans-Serif" font-size="10.00">PluginData.h</text>
</a>
</g>
</g>
<!-- Node17&#45;&gt;Node18 -->
<g id="edge27_Node000017_Node000018" class="edge">
<title>Node17&#45;&gt;Node18</title>
<g id="a_edge27_Node000017_Node000018"><a xlink:title=" ">
<path fill="none" stroke="#63b8ff" d="M398.14,-335.59C374.68,-326.97 339.68,-314.12 313.28,-304.42"/>
<polygon fill="#63b8ff" stroke="#63b8ff" points="314.57,-301.16 303.98,-301 312.16,-307.73 314.57,-301.16"/>
</a>
</g>
</g>
<!-- Node19 -->
<g id="Node000019" class="node">
<title>Node19</title>
<g id="a_Node000019"><a xlink:title=" ">
<polygon fill="#e0e0e0" stroke="#999999" points="376.38,-300 331.12,-300 331.12,-280 376.38,-280 376.38,-300"/>
<text text-anchor="middle" x="353.75" y="-286.5" font-family="Helvetica,sans-Serif" font-size="10.00">atomic</text>
</a>
</g>
</g>
<!-- Node17&#45;&gt;Node19 -->
<g id="edge31_Node000017_Node000019" class="edge">
<title>Node17&#45;&gt;Node19</title>
<g id="a_edge31_Node000017_Node000019"><a xlink:title=" ">
<path fill="none" stroke="#63b8ff" d="M411.56,-335.59C401.42,-327.77 386.76,-316.46 374.74,-307.19"/>
<polygon fill="#63b8ff" stroke="#63b8ff" points="377.06,-304.56 367,-301.22 372.78,-310.1 377.06,-304.56"/>
</a>
</g>
</g>
<!-- Node20 -->
<g id="Node000020" class="node">
<title>Node20</title>
<g id="a_Node000020"><a xlink:title=" ">
<polygon fill="#e0e0e0" stroke="#999999" points="511.12,-300 470.38,-300 470.38,-280 511.12,-280 511.12,-300"/>
<text text-anchor="middle" x="490.75" y="-286.5" font-family="Helvetica,sans-Serif" font-size="10.00">future</text>
</a>
</g>
</g>
<!-- Node17&#45;&gt;Node20 -->
<g id="edge32_Node000017_Node000020" class="edge">
<title>Node17&#45;&gt;Node20</title>
<g id="a_edge32_Node000017_Node000020"><a xlink:title=" ">
<path fill="none" stroke="#63b8ff" d="M435.42,-335.59C445.03,-327.85 458.88,-316.69 470.32,-307.47"/>
<polygon fill="#63b8ff" stroke="#63b8ff" points="472.45,-310.25 478.03,-301.25 468.05,-304.8 472.45,-310.25"/>
</a>
</g>
</g>
<!-- Node21 -->
<g id="Node000021" class="node">
<title>Node21</title>
<g id="a_Node000021"><a xlink:title=" ">
<polygon fill="#e0e0e0" stroke="#999999" points="622,-300 529.5,-300 529.5,-280 622,-280 622,-300"/>
<text text-anchor="middle" x="575.75" y="-286.5" font-family="Helvetica,sans-Serif" font-size="10.00">polym/Queue.hpp</text>
</a>
</g>
</g>
<!-- Node17&#45;&gt;Node21 -->
<g id="edge33_Node000017_Node000021" class="edge">
<title>Node17&#45;&gt;Node21</title>
<g id="a_edge33_Node000017_Node000021"><a xlink:title=" ">
<path fill="none" stroke="#63b8ff" d="M449.53,-335.84C473.88,-327.19 510.66,-314.12 538.25,-304.32"/>
<polygon fill="#63b8ff" stroke="#63b8ff" points="539.39,-307.63 547.64,-300.98 537.05,-301.03 539.39,-307.63"/>
</a>
</g>
</g>
<!-- Node22 -->
<g id="Node000022" class="node">
<title>Node22</title>
<g id="a_Node000022"><a xlink:title=" ">
<polygon fill="#e0e0e0" stroke="#999999" points="717.5,-300 640,-300 640,-280 717.5,-280 717.5,-300"/>
<text text-anchor="middle" x="678.75" y="-286.5" font-family="Helvetica,sans-Serif" font-size="10.00">shared_mutex</text>
</a>
</g>
</g>
<!-- Node17&#45;&gt;Node22 -->
<g id="edge34_Node000017_Node000022" class="edge">
<title>Node17&#45;&gt;Node22</title>
<g id="a_edge34_Node000017_Node000022"><a xlink:title=" ">
<path fill="none" stroke="#63b8ff" d="M449.6,-339.53C491.45,-330.66 574.75,-313.02 628.55,-301.63"/>
<polygon fill="#63b8ff" stroke="#63b8ff" points="629.02,-305.11 638.08,-299.61 627.57,-298.26 629.02,-305.11"/>
</a>
</g>
</g>
<!-- Node18&#45;&gt;Node9 -->
<g id="edge29_Node000018_Node000009" class="edge">
<title>Node18&#45;&gt;Node9</title>
<g id="a_edge29_Node000018_Node000009"><a xlink:title=" ">
<path fill="none" stroke="#63b8ff" d="M280.41,-279.59C283.06,-272.78 286.74,-263.32 290.03,-254.86"/>
<polygon fill="#63b8ff" stroke="#63b8ff" points="293.22,-256.3 293.59,-245.71 286.7,-253.76 293.22,-256.3"/>
</a>
</g>
</g>
<!-- Node18&#45;&gt;Node14 -->
<g id="edge28_Node000018_Node000014" class="edge">
<title>Node18&#45;&gt;Node14</title>
<g id="a_edge28_Node000018_Node000014"><a xlink:title=" ">
<path fill="none" stroke="#63b8ff" d="M313.24,-280.86C353.86,-271.79 419.86,-257.07 466.08,-246.75"/>
<polygon fill="#63b8ff" stroke="#63b8ff" points="466.61,-250.22 475.6,-244.63 465.08,-243.39 466.61,-250.22"/>
</a>
</g>
</g>
<!-- Node23&#45;&gt;Node5 -->
<g id="edge37_Node000023_Node000005" class="edge">
<title>Node23&#45;&gt;Node5</title>
<g id="a_edge37_Node000023_Node000005"><a xlink:title=" ">
<path fill="none" stroke="#63b8ff" d="M823.09,-335.77C835.06,-317.44 859.75,-274.78 859.75,-235 859.75,-235 859.75,-235 859.75,-177 859.75,-106.58 626.86,-79.61 516.04,-70.76"/>
<polygon fill="#63b8ff" stroke="#63b8ff" points="516.5,-67.28 506.26,-70 515.96,-74.26 516.5,-67.28"/>
</a>
</g>
</g>
<!-- Node24 -->
<g id="Node000024" class="node">
<title>Node24</title>
<g id="a_Node000024"><a xlink:title=" ">
<polygon fill="#e0e0e0" stroke="#999999" points="831.75,-300 773.75,-300 773.75,-280 831.75,-280 831.75,-300"/>
<text text-anchor="middle" x="802.75" y="-286.5" font-family="Helvetica,sans-Serif" font-size="10.00">functional</text>
</a>
</g>
</g>
<!-- Node23&#45;&gt;Node24 -->
<g id="edge38_Node000023_Node000024" class="edge">
<title>Node23&#45;&gt;Node24</title>
<g id="a_edge38_Node000023_Node000024"><a xlink:title=" ">
<path fill="none" stroke="#63b8ff" d="M814.31,-335.59C812.58,-328.93 810.2,-319.75 808.05,-311.44"/>
<polygon fill="#63b8ff" stroke="#63b8ff" points="811.44,-310.56 805.54,-301.76 804.66,-312.32 811.44,-310.56"/>
</a>
</g>
</g>
</g>
</svg>
