<?xml version="1.0" encoding="UTF-8" standalone="no"?>
<!DOCTYPE svg PUBLIC "-//W3C//DTD SVG 1.1//EN"
 "http://www.w3.org/Graphics/SVG/1.1/DTD/svg11.dtd">
<!-- Generated by graphviz version 9.0.0 (0)
 -->
<!-- Title: loaderTools.h Pages: 1 -->
<svg width="577pt" height="84pt"
 viewBox="0.00 0.00 576.75 84.00" xmlns="http://www.w3.org/2000/svg" xmlns:xlink="http://www.w3.org/1999/xlink">
<g id="graph0" class="graph" transform="scale(1 1) rotate(0) translate(4 80)">
<title>loaderTools.h</title>
<!-- Node1 -->
<g id="Node000001" class="node">
<title>Node1</title>
<g id="a_Node000001"><a xlink:title=" ">
<polygon fill="#999999" stroke="#666666" points="317.5,-76 243.75,-76 243.75,-56 317.5,-56 317.5,-76"/>
<text text-anchor="middle" x="280.62" y="-62.5" font-family="Helvetica,sans-Serif" font-size="10.00">loaderTools.h</text>
</a>
</g>
</g>
<!-- Node2 -->
<g id="Node000002" class="node">
<title>Node2</title>
<g id="a_Node000002"><a xlink:href="a00221.html" target="_top" xlink:title=" ">
<polygon fill="white" stroke="#666666" points="93.25,-20 0,-20 0,0 93.25,0 93.25,-20"/>
<text text-anchor="middle" x="46.62" y="-6.5" font-family="Helvetica,sans-Serif" font-size="10.00">LoaderLogger.cpp</text>
</a>
</g>
</g>
<!-- Node1&#45;&gt;Node2 -->
<g id="edge1_Node000001_Node000002" class="edge">
<title>Node1&#45;&gt;Node2</title>
<g id="a_edge1_Node000001_Node000002"><a xlink:title=" ">
<path fill="none" stroke="#63b8ff" d="M232.33,-53.86C189.67,-44.01 128.13,-29.81 87.77,-20.49"/>
<polygon fill="#63b8ff" stroke="#63b8ff" points="231.28,-57.21 241.81,-56.04 232.86,-50.38 231.28,-57.21"/>
</a>
</g>
</g>
<!-- Node3 -->
<g id="Node000003" class="node">
<title>Node3</title>
<g id="a_Node000003"><a xlink:href="a00224.html" target="_top" xlink:title=" ">
<polygon fill="white" stroke="#666666" points="173.5,-20 111.75,-20 111.75,0 173.5,0 173.5,-20"/>
<text text-anchor="middle" x="142.62" y="-6.5" font-family="Helvetica,sans-Serif" font-size="10.00">Plugin.cpp</text>
</a>
</g>
</g>
<!-- Node1&#45;&gt;Node3 -->
<g id="edge2_Node000001_Node000003" class="edge">
<title>Node1&#45;&gt;Node3</title>
<g id="a_edge2_Node000001_Node000003"><a xlink:title=" ">
<path fill="none" stroke="#63b8ff" d="M245.87,-51.4C221.22,-41.75 188.74,-29.05 166.85,-20.48"/>
<polygon fill="#63b8ff" stroke="#63b8ff" points="244.59,-54.66 255.18,-55.04 247.14,-48.14 244.59,-54.66"/>
</a>
</g>
</g>
<!-- Node4 -->
<g id="Node000004" class="node">
<title>Node4</title>
<g id="a_Node000004"><a xlink:href="a00314.html" target="_top" xlink:title=" ">
<polygon fill="white" stroke="#666666" points="273.25,-20 192,-20 192,0 273.25,0 273.25,-20"/>
<text text-anchor="middle" x="232.62" y="-6.5" font-family="Helvetica,sans-Serif" font-size="10.00">ktInterface.cpp</text>
</a>
</g>
</g>
<!-- Node1&#45;&gt;Node4 -->
<g id="edge3_Node000001_Node000004" class="edge">
<title>Node1&#45;&gt;Node4</title>
<g id="a_edge3_Node000001_Node000004"><a xlink:title=" ">
<path fill="none" stroke="#63b8ff" d="M264.63,-47C256.68,-38.06 247.4,-27.62 240.89,-20.3"/>
<polygon fill="#63b8ff" stroke="#63b8ff" points="262,-49.31 271.26,-54.46 267.23,-44.66 262,-49.31"/>
</a>
</g>
</g>
<!-- Node5 -->
<g id="Node000005" class="node">
<title>Node5</title>
<g id="a_Node000005"><a xlink:href="a01461.html" target="_top" xlink:title=" ">
<polygon fill="white" stroke="#666666" points="366.25,-20 291,-20 291,0 366.25,0 366.25,-20"/>
<text text-anchor="middle" x="328.62" y="-6.5" font-family="Helvetica,sans-Serif" font-size="10.00">loaderApi.cpp</text>
</a>
</g>
</g>
<!-- Node1&#45;&gt;Node5 -->
<g id="edge4_Node000001_Node000005" class="edge">
<title>Node1&#45;&gt;Node5</title>
<g id="a_edge4_Node000001_Node000005"><a xlink:title=" ">
<path fill="none" stroke="#63b8ff" d="M296.62,-47C304.57,-38.06 313.85,-27.62 320.36,-20.3"/>
<polygon fill="#63b8ff" stroke="#63b8ff" points="294.02,-44.66 289.99,-54.46 299.25,-49.31 294.02,-44.66"/>
</a>
</g>
</g>
<!-- Node6 -->
<g id="Node000006" class="node">
<title>Node6</title>
<g id="a_Node000006"><a xlink:href="a00281.html" target="_top" xlink:title=" ">
<polygon fill="white" stroke="#666666" points="466.62,-20 384.62,-20 384.62,0 466.62,0 466.62,-20"/>
<text text-anchor="middle" x="425.62" y="-6.5" font-family="Helvetica,sans-Serif" font-size="10.00">loaderMain.cpp</text>
</a>
</g>
</g>
<!-- Node1&#45;&gt;Node6 -->
<g id="edge5_Node000001_Node000006" class="edge">
<title>Node1&#45;&gt;Node6</title>
<g id="a_edge5_Node000001_Node000006"><a xlink:title=" ">
<path fill="none" stroke="#63b8ff" d="M316.44,-51.66C342.43,-41.98 376.96,-29.12 400.17,-20.48"/>
<polygon fill="#63b8ff" stroke="#63b8ff" points="315.45,-48.3 307.3,-55.07 317.89,-54.86 315.45,-48.3"/>
</a>
</g>
</g>
<!-- Node7 -->
<g id="Node000007" class="node">
<title>Node7</title>
<g id="a_Node000007"><a xlink:href="a00230.html" target="_top" xlink:title=" ">
<polygon fill="white" stroke="#666666" points="568.75,-20 484.5,-20 484.5,0 568.75,0 568.75,-20"/>
<text text-anchor="middle" x="526.62" y="-6.5" font-family="Helvetica,sans-Serif" font-size="10.00">loaderTools.cpp</text>
</a>
</g>
</g>
<!-- Node1&#45;&gt;Node7 -->
<g id="edge6_Node000001_Node000007" class="edge">
<title>Node1&#45;&gt;Node7</title>
<g id="a_edge6_Node000001_Node000007"><a xlink:title=" ">
<path fill="none" stroke="#63b8ff" d="M329,-54.38C374.26,-44.45 441.2,-29.75 484.36,-20.28"/>
<polygon fill="#63b8ff" stroke="#63b8ff" points="328.48,-50.91 319.47,-56.47 329.98,-57.75 328.48,-50.91"/>
</a>
</g>
</g>
</g>
</svg>
