<?xml version="1.0" encoding="UTF-8" standalone="no"?>
<!DOCTYPE svg PUBLIC "-//W3C//DTD SVG 1.1//EN"
 "http://www.w3.org/Graphics/SVG/1.1/DTD/svg11.dtd">
<!-- Generated by graphviz version 2.50.0 (20211204.2007)
 -->
<!-- Title: MiraiCP::Tools::escapeFromMiraiCode Pages: 1 -->
<svg width="285pt" height="39pt"
 viewBox="0.00 0.00 285.00 39.00" xmlns="http://www.w3.org/2000/svg" xmlns:xlink="http://www.w3.org/1999/xlink">
<g id="graph0" class="graph" transform="scale(1 1) rotate(0) translate(4 35)">
<title>MiraiCP::Tools::escapeFromMiraiCode</title>
<polygon fill="white" stroke="transparent" points="-4,4 -4,-35 281,-35 281,4 -4,4"/>
<!-- Node1 -->
<g id="node1" class="node">
<title>Node1</title>
<g id="a_node1"><a xlink:title="从miraicode转义到正常">
<polygon fill="#bfbfbf" stroke="black" points="137,-0.5 137,-30.5 277,-30.5 277,-0.5 137,-0.5"/>
<text text-anchor="start" x="145" y="-18.5" font-family="Helvetica,sans-Serif" font-size="10.00">MiraiCP::Tools::escapeFrom</text>
<text text-anchor="middle" x="207" y="-7.5" font-family="Helvetica,sans-Serif" font-size="10.00">MiraiCode</text>
</a>
</g>
</g>
<!-- Node2 -->
<g id="node2" class="node">
<title>Node2</title>
<g id="a_node2"><a xlink:href="a00717.html#a9b46bf5804f88f2504d97c87d3e1b7fc" target="_top" xlink:title="输出当前内容, 会自动转码">
<polygon fill="white" stroke="black" points="0,-0.5 0,-30.5 101,-30.5 101,-0.5 0,-0.5"/>
<text text-anchor="start" x="8" y="-18.5" font-family="Helvetica,sans-Serif" font-size="10.00">MiraiCP::MiraiCode</text>
<text text-anchor="middle" x="50.5" y="-7.5" font-family="Helvetica,sans-Serif" font-size="10.00">::toString</text>
</a>
</g>
</g>
<!-- Node1&#45;&gt;Node2 -->
<g id="edge1" class="edge">
<title>Node1&#45;&gt;Node2</title>
<path fill="none" stroke="midnightblue" d="M126.68,-15.5C117.98,-15.5 109.31,-15.5 101.12,-15.5"/>
<polygon fill="midnightblue" stroke="midnightblue" points="126.88,-19 136.88,-15.5 126.88,-12 126.88,-19"/>
</g>
</g>
</svg>
