<?xml version="1.0" encoding="UTF-8" standalone="no"?>
<!DOCTYPE svg PUBLIC "-//W3C//DTD SVG 1.1//EN"
 "http://www.w3.org/Graphics/SVG/1.1/DTD/svg11.dtd">
<!-- Generated by graphviz version 9.0.0 (0)
 -->
<!-- Title: GroupRelatedData.h Pages: 1 -->
<svg width="245pt" height="84pt"
 viewBox="0.00 0.00 244.62 84.00" xmlns="http://www.w3.org/2000/svg" xmlns:xlink="http://www.w3.org/1999/xlink">
<g id="graph0" class="graph" transform="scale(1 1) rotate(0) translate(4 80)">
<title>GroupRelatedData.h</title>
<!-- Node1 -->
<g id="Node000001" class="node">
<title>Node1</title>
<g id="a_Node000001"><a xlink:title=" ">
<polygon fill="#999999" stroke="#666666" points="170.25,-76 65,-76 65,-56 170.25,-56 170.25,-76"/>
<text text-anchor="middle" x="117.62" y="-62.5" font-family="Helvetica,sans-Serif" font-size="10.00">GroupRelatedData.h</text>
</a>
</g>
</g>
<!-- Node2 -->
<g id="Node000002" class="node">
<title>Node2</title>
<g id="a_Node000002"><a xlink:href="a00380.html" target="_top" xlink:title=" ">
<polygon fill="white" stroke="#666666" points="69.25,-20 0,-20 0,0 69.25,0 69.25,-20"/>
<text text-anchor="middle" x="34.62" y="-6.5" font-family="Helvetica,sans-Serif" font-size="10.00">Contact.cpp</text>
</a>
</g>
</g>
<!-- Node1&#45;&gt;Node2 -->
<g id="edge1_Node000001_Node000002" class="edge">
<title>Node1&#45;&gt;Node2</title>
<g id="a_edge1_Node000001_Node000002"><a xlink:title=" ">
<path fill="none" stroke="#63b8ff" d="M93.87,-49.54C79.46,-40.17 61.53,-28.51 49.2,-20.48"/>
<polygon fill="#63b8ff" stroke="#63b8ff" points="91.61,-52.25 101.9,-54.77 95.43,-46.38 91.61,-52.25"/>
</a>
</g>
</g>
<!-- Node3 -->
<g id="Node000003" class="node">
<title>Node3</title>
<g id="a_Node000003"><a xlink:href="a01482.html" target="_top" xlink:title=" ">
<polygon fill="white" stroke="#666666" points="148.12,-20 87.12,-20 87.12,0 148.12,0 148.12,-20"/>
<text text-anchor="middle" x="117.62" y="-6.5" font-family="Helvetica,sans-Serif" font-size="10.00">Group.cpp</text>
</a>
</g>
</g>
<!-- Node1&#45;&gt;Node3 -->
<g id="edge2_Node000001_Node000003" class="edge">
<title>Node1&#45;&gt;Node3</title>
<g id="a_edge2_Node000001_Node000003"><a xlink:title=" ">
<path fill="none" stroke="#63b8ff" d="M117.62,-44.13C117.62,-35.9 117.62,-26.85 117.62,-20.3"/>
<polygon fill="#63b8ff" stroke="#63b8ff" points="114.13,-44.08 117.63,-54.08 121.13,-44.08 114.13,-44.08"/>
</a>
</g>
</g>
<!-- Node4 -->
<g id="Node000004" class="node">
<title>Node4</title>
<g id="a_Node000004"><a xlink:href="a01494.html" target="_top" xlink:title=" ">
<polygon fill="white" stroke="#666666" points="236.62,-20 166.62,-20 166.62,0 236.62,0 236.62,-20"/>
<text text-anchor="middle" x="201.62" y="-6.5" font-family="Helvetica,sans-Serif" font-size="10.00">Member.cpp</text>
</a>
</g>
</g>
<!-- Node1&#45;&gt;Node4 -->
<g id="edge3_Node000001_Node000004" class="edge">
<title>Node1&#45;&gt;Node4</title>
<g id="a_edge3_Node000001_Node000004"><a xlink:title=" ">
<path fill="none" stroke="#63b8ff" d="M141.67,-49.54C156.25,-40.17 174.39,-28.51 186.88,-20.48"/>
<polygon fill="#63b8ff" stroke="#63b8ff" points="140.05,-46.42 133.53,-54.78 143.83,-52.31 140.05,-46.42"/>
</a>
</g>
</g>
</g>
</svg>
