<?xml version="1.0" encoding="UTF-8" standalone="no"?>
<!DOCTYPE svg PUBLIC "-//W3C//DTD SVG 1.1//EN"
 "http://www.w3.org/Graphics/SVG/1.1/DTD/svg11.dtd">
<!-- Generated by graphviz version 2.50.0 (20211204.2007)
 -->
<!-- Title: LibLoader::loader_loadNewPlugin Pages: 1 -->
<svg width="1522pt" height="95pt"
 viewBox="0.00 0.00 1522.00 95.00" xmlns="http://www.w3.org/2000/svg" xmlns:xlink="http://www.w3.org/1999/xlink">
<g id="graph0" class="graph" transform="scale(1 1) rotate(0) translate(4 91)">
<title>LibLoader::loader_loadNewPlugin</title>
<polygon fill="white" stroke="transparent" points="-4,4 -4,-91 1518,-91 1518,4 -4,4"/>
<!-- Node1 -->
<g id="node1" class="node">
<title>Node1</title>
<g id="a_node1"><a xlink:title=" ">
<polygon fill="#bfbfbf" stroke="black" points="0,-25.5 0,-55.5 133,-55.5 133,-25.5 0,-25.5"/>
<text text-anchor="start" x="8" y="-43.5" font-family="Helvetica,sans-Serif" font-size="10.00">LibLoader::loader_loadNew</text>
<text text-anchor="middle" x="66.5" y="-32.5" font-family="Helvetica,sans-Serif" font-size="10.00">Plugin</text>
</a>
</g>
</g>
<!-- Node2 -->
<g id="node2" class="node">
<title>Node2</title>
<g id="a_node2"><a xlink:href="a00416.html#a5ed72227269472f7a225be5177805dbb" target="_top" xlink:title=" ">
<polygon fill="white" stroke="black" points="169,-25.5 169,-55.5 314,-55.5 314,-25.5 169,-25.5"/>
<text text-anchor="start" x="177" y="-43.5" font-family="Helvetica,sans-Serif" font-size="10.00">LibLoader::PluginListManager</text>
<text text-anchor="middle" x="241.5" y="-32.5" font-family="Helvetica,sans-Serif" font-size="10.00">::loadNewPluginByPath</text>
</a>
</g>
</g>
<!-- Node1&#45;&gt;Node2 -->
<g id="edge1" class="edge">
<title>Node1&#45;&gt;Node2</title>
<path fill="none" stroke="midnightblue" d="M133.4,-40.5C141.61,-40.5 150.09,-40.5 158.51,-40.5"/>
<polygon fill="midnightblue" stroke="midnightblue" points="158.73,-44 168.73,-40.5 158.73,-37 158.73,-44"/>
</g>
<!-- Node3 -->
<g id="node3" class="node">
<title>Node3</title>
<g id="a_node3"><a xlink:href="a00416.html#a9f575adc3e4404ac758db99eb49ce9bb" target="_top" xlink:title=" ">
<polygon fill="white" stroke="black" points="350,-25.5 350,-55.5 495,-55.5 495,-25.5 350,-25.5"/>
<text text-anchor="start" x="358" y="-43.5" font-family="Helvetica,sans-Serif" font-size="10.00">LibLoader::PluginListManager</text>
<text text-anchor="middle" x="422.5" y="-32.5" font-family="Helvetica,sans-Serif" font-size="10.00">::addNewPlugin</text>
</a>
</g>
</g>
<!-- Node2&#45;&gt;Node3 -->
<g id="edge2" class="edge">
<title>Node2&#45;&gt;Node3</title>
<path fill="none" stroke="midnightblue" d="M314.02,-40.5C322.49,-40.5 331.18,-40.5 339.78,-40.5"/>
<polygon fill="midnightblue" stroke="midnightblue" points="339.8,-44 349.8,-40.5 339.8,-37 339.8,-44"/>
</g>
<!-- Node4 -->
<g id="node4" class="node">
<title>Node4</title>
<g id="a_node4"><a xlink:href="a00396.html#ae735f16b20f681d29d4e5d28ad248dbe" target="_top" xlink:title=" ">
<polygon fill="white" stroke="black" points="531,-25.5 531,-55.5 654,-55.5 654,-25.5 531,-25.5"/>
<text text-anchor="start" x="539" y="-43.5" font-family="Helvetica,sans-Serif" font-size="10.00">LibLoader::LoaderLogger</text>
<text text-anchor="middle" x="592.5" y="-32.5" font-family="Helvetica,sans-Serif" font-size="10.00">::error</text>
</a>
</g>
</g>
<!-- Node3&#45;&gt;Node4 -->
<g id="edge3" class="edge">
<title>Node3&#45;&gt;Node4</title>
<path fill="none" stroke="midnightblue" d="M495.23,-40.5C503.67,-40.5 512.27,-40.5 520.69,-40.5"/>
<polygon fill="midnightblue" stroke="midnightblue" points="520.85,-44 530.85,-40.5 520.85,-37 520.85,-44"/>
</g>
<!-- Node5 -->
<g id="node5" class="node">
<title>Node5</title>
<g id="a_node5"><a xlink:href="a00396.html#af4d7d5164450e25f7401d1cc15f15b8d" target="_top" xlink:title="实际暴露的接口">
<polygon fill="white" stroke="black" points="690,-25.5 690,-55.5 813,-55.5 813,-25.5 690,-25.5"/>
<text text-anchor="start" x="698" y="-43.5" font-family="Helvetica,sans-Serif" font-size="10.00">LibLoader::LoaderLogger</text>
<text text-anchor="middle" x="751.5" y="-32.5" font-family="Helvetica,sans-Serif" font-size="10.00">::call_logger</text>
</a>
</g>
</g>
<!-- Node4&#45;&gt;Node5 -->
<g id="edge4" class="edge">
<title>Node4&#45;&gt;Node5</title>
<path fill="none" stroke="midnightblue" d="M654.2,-40.5C662.64,-40.5 671.36,-40.5 679.95,-40.5"/>
<polygon fill="midnightblue" stroke="midnightblue" points="679.96,-44 689.96,-40.5 679.96,-37 679.96,-44"/>
</g>
<!-- Node6 -->
<g id="node6" class="node">
<title>Node6</title>
<g id="a_node6"><a xlink:href="a00312.html#a076c5f4ff8083c7cfc6523498d0ba30f" target="_top" xlink:title=" ">
<polygon fill="white" stroke="black" points="1004,-56.5 1004,-86.5 1103,-86.5 1103,-56.5 1004,-56.5"/>
<text text-anchor="start" x="1012" y="-74.5" font-family="Helvetica,sans-Serif" font-size="10.00">LibLoader::JNIEnvs</text>
<text text-anchor="middle" x="1053.5" y="-63.5" font-family="Helvetica,sans-Serif" font-size="10.00">::getEnv</text>
</a>
</g>
</g>
<!-- Node5&#45;&gt;Node6 -->
<g id="edge5" class="edge">
<title>Node5&#45;&gt;Node6</title>
<path fill="none" stroke="midnightblue" d="M813.04,-53.72C824.91,-55.95 837.31,-58.01 849,-59.5 897.55,-65.68 953.02,-68.69 993.78,-70.14"/>
<polygon fill="midnightblue" stroke="midnightblue" points="993.7,-73.64 1003.81,-70.48 993.93,-66.65 993.7,-73.64"/>
</g>
<!-- Node10 -->
<g id="node10" class="node">
<title>Node10</title>
<g id="a_node10"><a xlink:href="a00307.html#a6a6fcd695791253a9b3a053d313b2b93" target="_top" xlink:title=" ">
<polygon fill="white" stroke="black" points="849,-31 849,-50 956,-50 956,-31 849,-31"/>
<text text-anchor="middle" x="902.5" y="-38" font-family="Helvetica,sans-Serif" font-size="10.00">LibLoader::str2jstring</text>
</a>
</g>
</g>
<!-- Node5&#45;&gt;Node10 -->
<g id="edge9" class="edge">
<title>Node5&#45;&gt;Node10</title>
<path fill="none" stroke="midnightblue" d="M813.1,-40.5C821.47,-40.5 830.07,-40.5 838.48,-40.5"/>
<polygon fill="midnightblue" stroke="midnightblue" points="838.6,-44 848.6,-40.5 838.6,-37 838.6,-44"/>
</g>
<!-- Node7 -->
<g id="node7" class="node">
<title>Node7</title>
<g id="a_node7"><a xlink:href="a00364.html#aea7d58ff9f04d6d4849c25a2506603a5" target="_top" xlink:title="取env,如果不存在重新获取">
<polygon fill="white" stroke="black" points="1151,-62 1151,-81 1270,-81 1270,-62 1151,-62"/>
<text text-anchor="middle" x="1210.5" y="-69" font-family="Helvetica,sans-Serif" font-size="10.00">JNIEnvManager::getEnv</text>
</a>
</g>
</g>
<!-- Node6&#45;&gt;Node7 -->
<g id="edge6" class="edge">
<title>Node6&#45;&gt;Node7</title>
<path fill="none" stroke="midnightblue" d="M1103.12,-71.5C1115.1,-71.5 1128.15,-71.5 1140.88,-71.5"/>
<polygon fill="midnightblue" stroke="midnightblue" points="1140.99,-75 1150.99,-71.5 1140.99,-68 1140.99,-75"/>
</g>
<!-- Node8 -->
<g id="node8" class="node">
<title>Node8</title>
<g id="a_node8"><a xlink:href="a00197.html#a3d31403b7971274d47d308245206bd24" target="_top" xlink:title="为当前线程创建一个env.">
<polygon fill="white" stroke="black" points="1306,-62 1306,-81 1356,-81 1356,-62 1306,-62"/>
<text text-anchor="middle" x="1331" y="-69" font-family="Helvetica,sans-Serif" font-size="10.00">newEnv</text>
</a>
</g>
</g>
<!-- Node7&#45;&gt;Node8 -->
<g id="edge7" class="edge">
<title>Node7&#45;&gt;Node8</title>
<path fill="none" stroke="midnightblue" d="M1270.06,-71.5C1278.89,-71.5 1287.75,-71.5 1295.85,-71.5"/>
<polygon fill="midnightblue" stroke="midnightblue" points="1295.98,-75 1305.98,-71.5 1295.98,-68 1295.98,-75"/>
</g>
<!-- Node9 -->
<g id="node9" class="node">
<title>Node9</title>
<g id="a_node9"><a xlink:href="a00364.html#ae0e482c6a813848a8f5d34957d1b6307" target="_top" xlink:title="获取全局JavaVM对象.">
<polygon fill="white" stroke="black" points="1392,-62 1392,-81 1514,-81 1514,-62 1392,-62"/>
<text text-anchor="middle" x="1453" y="-69" font-family="Helvetica,sans-Serif" font-size="10.00">JNIEnvManager::getGvm</text>
</a>
</g>
</g>
<!-- Node8&#45;&gt;Node9 -->
<g id="edge8" class="edge">
<title>Node8&#45;&gt;Node9</title>
<path fill="none" stroke="midnightblue" d="M1356.28,-71.5C1363.75,-71.5 1372.37,-71.5 1381.32,-71.5"/>
<polygon fill="midnightblue" stroke="midnightblue" points="1381.52,-75 1391.52,-71.5 1381.52,-68 1381.52,-75"/>
</g>
<!-- Node10&#45;&gt;Node6 -->
<g id="edge10" class="edge">
<title>Node10&#45;&gt;Node6</title>
<path fill="none" stroke="midnightblue" d="M949.42,-50.05C963.45,-52.97 979.08,-56.23 993.84,-59.3"/>
<polygon fill="midnightblue" stroke="midnightblue" points="993.39,-62.78 1003.89,-61.39 994.81,-55.92 993.39,-62.78"/>
</g>
<!-- Node11 -->
<g id="node11" class="node">
<title>Node11</title>
<g id="a_node11"><a xlink:href="a00396.html#af50d0545fe7d683e54fcd03453a423e3" target="_top" xlink:title=" ">
<polygon fill="white" stroke="black" points="992,-0.5 992,-30.5 1115,-30.5 1115,-0.5 992,-0.5"/>
<text text-anchor="start" x="1000" y="-18.5" font-family="Helvetica,sans-Serif" font-size="10.00">LibLoader::LoaderLogger</text>
<text text-anchor="middle" x="1053.5" y="-7.5" font-family="Helvetica,sans-Serif" font-size="10.00">::warning</text>
</a>
</g>
</g>
<!-- Node10&#45;&gt;Node11 -->
<g id="edge11" class="edge">
<title>Node10&#45;&gt;Node11</title>
<path fill="none" stroke="midnightblue" d="M956.03,-31.69C964.34,-30.29 973.05,-28.83 981.7,-27.38"/>
<polygon fill="midnightblue" stroke="midnightblue" points="982.5,-30.79 991.79,-25.69 981.35,-23.89 982.5,-30.79"/>
</g>
<!-- Node11&#45;&gt;Node5 -->
<g id="edge12" class="edge">
<title>Node11&#45;&gt;Node5</title>
<path fill="none" stroke="midnightblue" d="M991.76,-14.68C951.22,-14.77 896.77,-16.13 849,-21.5 840.58,-22.45 831.81,-23.74 823.13,-25.21"/>
<polygon fill="midnightblue" stroke="midnightblue" points="822.24,-21.81 813.01,-27 823.46,-28.7 822.24,-21.81"/>
</g>
</g>
</svg>
