<?xml version="1.0" encoding="UTF-8" standalone="no"?>
<!DOCTYPE svg PUBLIC "-//W3C//DTD SVG 1.1//EN"
 "http://www.w3.org/Graphics/SVG/1.1/DTD/svg11.dtd">
<!-- Generated by graphviz version 2.50.0 (20211204.2007)
 -->
<!-- Title: MiraiCP::Tools::json_stringmover Pages: 1 -->
<svg width="468pt" height="441pt"
 viewBox="0.00 0.00 468.00 440.50" xmlns="http://www.w3.org/2000/svg" xmlns:xlink="http://www.w3.org/1999/xlink">
<g id="graph0" class="graph" transform="scale(1 1) rotate(0) translate(4 436.5)">
<title>MiraiCP::Tools::json_stringmover</title>
<polygon fill="white" stroke="transparent" points="-4,4 -4,-436.5 464,-436.5 464,4 -4,4"/>
<!-- Node1 -->
<g id="node1" class="node">
<title>Node1</title>
<g id="a_node1"><a xlink:title=" ">
<polygon fill="#bfbfbf" stroke="black" points="356,-189 356,-219 460,-219 460,-189 356,-189"/>
<text text-anchor="start" x="364" y="-207" font-family="Helvetica,sans-Serif" font-size="10.00">MiraiCP::Tools::json</text>
<text text-anchor="middle" x="408" y="-196" font-family="Helvetica,sans-Serif" font-size="10.00">_stringmover</text>
</a>
</g>
</g>
<!-- Node2 -->
<g id="node2" class="node">
<title>Node2</title>
<g id="a_node2"><a xlink:href="a00421.html#ab9cf06d58e4562680e5dcabec8556758" target="_top" xlink:title="读入json数据, 由子类实现, 无锁">
<polygon fill="white" stroke="black" points="190,-378 190,-408 303,-408 303,-378 190,-378"/>
<text text-anchor="start" x="198" y="-396" font-family="Helvetica,sans-Serif" font-size="10.00">MiraiCP::IContactData</text>
<text text-anchor="middle" x="246.5" y="-385" font-family="Helvetica,sans-Serif" font-size="10.00">::deserialize</text>
</a>
</g>
</g>
<!-- Node1&#45;&gt;Node2 -->
<g id="edge1" class="edge">
<title>Node1&#45;&gt;Node2</title>
<path fill="none" stroke="midnightblue" d="M400.25,-228.68C389.25,-264.38 364.14,-330.25 320,-368 315.04,-372.24 309.33,-375.77 303.32,-378.71"/>
<polygon fill="midnightblue" stroke="midnightblue" points="403.61,-229.63 403.09,-219.05 396.9,-227.65 403.61,-229.63"/>
</g>
<!-- Node5 -->
<g id="node5" class="node">
<title>Node5</title>
<g id="a_node5"><a xlink:href="a00637.html#a6a761113b704cd93a836df23ca742bd2" target="_top" xlink:title="构建好友对象，一般为内部调用">
<polygon fill="white" stroke="black" points="188,-339.5 188,-358.5 305,-358.5 305,-339.5 188,-339.5"/>
<text text-anchor="middle" x="246.5" y="-346.5" font-family="Helvetica,sans-Serif" font-size="10.00">MiraiCP::Friend::Friend</text>
</a>
</g>
</g>
<!-- Node1&#45;&gt;Node5 -->
<g id="edge4" class="edge">
<title>Node1&#45;&gt;Node5</title>
<path fill="none" stroke="midnightblue" d="M396.66,-228.34C383.22,-257.03 357,-304.07 320,-330 314.46,-333.88 308.18,-336.97 301.69,-339.43"/>
<polygon fill="midnightblue" stroke="midnightblue" points="399.94,-229.58 400.88,-219.03 393.57,-226.69 399.94,-229.58"/>
</g>
<!-- Node6 -->
<g id="node6" class="node">
<title>Node6</title>
<g id="a_node6"><a xlink:href="a00649.html#ac37320efdba19e1071762cbd6443dfbe" target="_top" xlink:title="构建群对象，一般为内部调用">
<polygon fill="white" stroke="black" points="188.5,-301.5 188.5,-320.5 304.5,-320.5 304.5,-301.5 188.5,-301.5"/>
<text text-anchor="middle" x="246.5" y="-308.5" font-family="Helvetica,sans-Serif" font-size="10.00">MiraiCP::Group::Group</text>
</a>
</g>
</g>
<!-- Node1&#45;&gt;Node6 -->
<g id="edge5" class="edge">
<title>Node1&#45;&gt;Node6</title>
<path fill="none" stroke="midnightblue" d="M388.07,-227C371.75,-245.51 346.66,-270.99 320,-287 309.88,-293.07 298.04,-297.83 286.89,-301.44"/>
<polygon fill="midnightblue" stroke="midnightblue" points="390.84,-229.16 394.72,-219.3 385.54,-224.58 390.84,-229.16"/>
</g>
<!-- Node7 -->
<g id="node7" class="node">
<title>Node7</title>
<g id="a_node7"><a xlink:href="a00305.html#a564fdee0439f73ca716a26f8d4591dd9" target="_top" xlink:title=" ">
<polygon fill="white" stroke="black" points="7,-241.5 7,-260.5 130,-260.5 130,-241.5 7,-241.5"/>
<text text-anchor="middle" x="68.5" y="-248.5" font-family="Helvetica,sans-Serif" font-size="10.00">MiraiCP::IMPL_GETTER</text>
</a>
</g>
</g>
<!-- Node1&#45;&gt;Node7 -->
<g id="edge6" class="edge">
<title>Node1&#45;&gt;Node7</title>
<path fill="none" stroke="midnightblue" d="M379.11,-225.06C362.81,-236.03 341.3,-248.31 320,-254 256.13,-271.05 179.79,-266.79 128.31,-260.52"/>
<polygon fill="midnightblue" stroke="midnightblue" points="381.38,-227.74 387.59,-219.15 377.38,-221.99 381.38,-227.74"/>
</g>
<!-- Node8 -->
<g id="node8" class="node">
<title>Node8</title>
<g id="a_node8"><a xlink:href="a00537.html#aca8d122b5ac259f28f372f02cdd38930" target="_top" xlink:title=" ">
<polygon fill="white" stroke="black" points="183.5,-214 183.5,-244 309.5,-244 309.5,-214 183.5,-214"/>
<text text-anchor="start" x="191.5" y="-232" font-family="Helvetica,sans-Serif" font-size="10.00">MiraiCP::Event::incoming</text>
<text text-anchor="middle" x="246.5" y="-221" font-family="Helvetica,sans-Serif" font-size="10.00">Event</text>
</a>
</g>
</g>
<!-- Node1&#45;&gt;Node8 -->
<g id="edge7" class="edge">
<title>Node1&#45;&gt;Node8</title>
<path fill="none" stroke="midnightblue" d="M345.49,-213.64C333.73,-215.48 321.41,-217.42 309.63,-219.26"/>
<polygon fill="midnightblue" stroke="midnightblue" points="346.32,-217.05 355.66,-212.05 345.23,-210.14 346.32,-217.05"/>
</g>
<!-- Node9 -->
<g id="node9" class="node">
<title>Node9</title>
<g id="a_node9"><a xlink:href="a00689.html#a39064f9c2b148b3a3061f818bf237215" target="_top" xlink:title=" ">
<polygon fill="white" stroke="black" points="190.5,-165 190.5,-195 302.5,-195 302.5,-165 190.5,-165"/>
<text text-anchor="start" x="198.5" y="-183" font-family="Helvetica,sans-Serif" font-size="10.00">MiraiCP::LowLevelAPI</text>
<text text-anchor="middle" x="246.5" y="-172" font-family="Helvetica,sans-Serif" font-size="10.00">::info0</text>
</a>
</g>
</g>
<!-- Node1&#45;&gt;Node9 -->
<g id="edge8" class="edge">
<title>Node1&#45;&gt;Node9</title>
<path fill="none" stroke="midnightblue" d="M345.53,-194.75C331.4,-192.62 316.45,-190.37 302.6,-188.29"/>
<polygon fill="midnightblue" stroke="midnightblue" points="345.25,-198.25 355.66,-196.27 346.29,-191.33 345.25,-198.25"/>
</g>
<!-- Node11 -->
<g id="node11" class="node">
<title>Node11</title>
<g id="a_node11"><a xlink:href="a00697.html#a904da5608fbac3b2258168b2f62e8c4b" target="_top" xlink:title="刷新数据">
<polygon fill="white" stroke="black" points="12,-121 12,-151 125,-151 125,-121 12,-121"/>
<text text-anchor="start" x="20" y="-139" font-family="Helvetica,sans-Serif" font-size="10.00">MiraiCP::MemberData</text>
<text text-anchor="middle" x="68.5" y="-128" font-family="Helvetica,sans-Serif" font-size="10.00">::refreshInfo</text>
</a>
</g>
</g>
<!-- Node1&#45;&gt;Node11 -->
<g id="edge16" class="edge">
<title>Node1&#45;&gt;Node11</title>
<path fill="none" stroke="midnightblue" d="M377.15,-183.38C360.98,-173.31 340.21,-162.07 320,-156 255.24,-136.54 177.07,-133.31 125.47,-133.8"/>
<polygon fill="midnightblue" stroke="midnightblue" points="375.32,-186.36 385.63,-188.81 379.1,-180.47 375.32,-186.36"/>
</g>
<!-- Node12 -->
<g id="node12" class="node">
<title>Node12</title>
<g id="a_node12"><a xlink:href="a00701.html#a69e77e737f0547520c2c206fce997eac" target="_top" xlink:title="构建群成员对象，一般为内部调用">
<polygon fill="white" stroke="black" points="179.5,-88.5 179.5,-107.5 313.5,-107.5 313.5,-88.5 179.5,-88.5"/>
<text text-anchor="middle" x="246.5" y="-95.5" font-family="Helvetica,sans-Serif" font-size="10.00">MiraiCP::Member::Member</text>
</a>
</g>
</g>
<!-- Node1&#45;&gt;Node12 -->
<g id="edge12" class="edge">
<title>Node1&#45;&gt;Node12</title>
<path fill="none" stroke="midnightblue" d="M387.79,-181.04C371.44,-162.78 346.43,-137.76 320,-122 309.87,-115.96 298.01,-111.21 286.87,-107.6"/>
<polygon fill="midnightblue" stroke="midnightblue" points="385.46,-183.68 394.68,-188.9 390.72,-179.07 385.46,-183.68"/>
</g>
<!-- Node13 -->
<g id="node13" class="node">
<title>Node13</title>
<g id="a_node13"><a xlink:href="a00465.html#addb043788194a8bffd2eeddff17080ef" target="_top" xlink:title="取群聊下一个消息(群聊与本事件一样)">
<polygon fill="white" stroke="black" points="173,-39 173,-69 320,-69 320,-39 173,-39"/>
<text text-anchor="start" x="181" y="-57" font-family="Helvetica,sans-Serif" font-size="10.00">MiraiCP::GroupMessageEvent</text>
<text text-anchor="middle" x="246.5" y="-46" font-family="Helvetica,sans-Serif" font-size="10.00">::nextMessage</text>
</a>
</g>
</g>
<!-- Node1&#45;&gt;Node13 -->
<g id="edge13" class="edge">
<title>Node1&#45;&gt;Node13</title>
<path fill="none" stroke="midnightblue" d="M396.05,-179.87C382.16,-151.83 355.66,-105.96 320,-79 314.9,-75.15 309.17,-71.86 303.21,-69.06"/>
<polygon fill="midnightblue" stroke="midnightblue" points="392.95,-181.49 400.43,-188.99 399.26,-178.46 392.95,-181.49"/>
</g>
<!-- Node14 -->
<g id="node14" class="node">
<title>Node14</title>
<g id="a_node14"><a xlink:href="a00749.html#a009add34e1e1b451542d06382da4ea0a" target="_top" xlink:title="刷新信息(获取图片下载Url,md5, size)">
<polygon fill="white" stroke="black" points="179.5,-0.5 179.5,-19.5 313.5,-19.5 313.5,-0.5 179.5,-0.5"/>
<text text-anchor="middle" x="246.5" y="-7.5" font-family="Helvetica,sans-Serif" font-size="10.00">MiraiCP::Image::refreshInfo</text>
</a>
</g>
</g>
<!-- Node1&#45;&gt;Node14 -->
<g id="edge14" class="edge">
<title>Node1&#45;&gt;Node14</title>
<path fill="none" stroke="midnightblue" d="M401.6,-179.15C392,-140.98 368.24,-68.24 320,-29 315.26,-25.14 309.81,-22.06 304.08,-19.6"/>
<polygon fill="midnightblue" stroke="midnightblue" points="398.22,-180.03 403.95,-188.94 405.02,-178.4 398.22,-180.03"/>
</g>
<!-- Node3 -->
<g id="node3" class="node">
<title>Node3</title>
<g id="a_node3"><a xlink:href="a00641.html#a8a0e56e1504a3da673550f0b6ea5990f" target="_top" xlink:title="读入json数据, 由子类实现, 无锁">
<polygon fill="white" stroke="black" points="16.5,-402 16.5,-432 120.5,-432 120.5,-402 16.5,-402"/>
<text text-anchor="start" x="24.5" y="-420" font-family="Helvetica,sans-Serif" font-size="10.00">MiraiCP::GroupData</text>
<text text-anchor="middle" x="68.5" y="-409" font-family="Helvetica,sans-Serif" font-size="10.00">::deserialize</text>
</a>
</g>
</g>
<!-- Node2&#45;&gt;Node3 -->
<g id="edge2" class="edge">
<title>Node2&#45;&gt;Node3</title>
<path fill="none" stroke="midnightblue" d="M179.76,-401.96C160.22,-404.63 139.11,-407.51 120.64,-410.03"/>
<polygon fill="midnightblue" stroke="midnightblue" points="180.38,-405.41 189.81,-400.59 179.43,-398.48 180.38,-405.41"/>
</g>
<!-- Node4 -->
<g id="node4" class="node">
<title>Node4</title>
<g id="a_node4"><a xlink:href="a00697.html#a1681ff4e1859f24abec68681fcf8b40e" target="_top" xlink:title="读入json数据, 由子类实现, 无锁">
<polygon fill="white" stroke="black" points="12,-353 12,-383 125,-383 125,-353 12,-353"/>
<text text-anchor="start" x="20" y="-371" font-family="Helvetica,sans-Serif" font-size="10.00">MiraiCP::MemberData</text>
<text text-anchor="middle" x="68.5" y="-360" font-family="Helvetica,sans-Serif" font-size="10.00">::deserialize</text>
</a>
</g>
</g>
<!-- Node2&#45;&gt;Node4 -->
<g id="edge3" class="edge">
<title>Node2&#45;&gt;Node4</title>
<path fill="none" stroke="midnightblue" d="M179.7,-383.65C161.74,-381.1 142.46,-378.36 125.13,-375.9"/>
<polygon fill="midnightblue" stroke="midnightblue" points="179.42,-387.15 189.81,-385.09 180.4,-380.22 179.42,-387.15"/>
</g>
<!-- Node9&#45;&gt;Node7 -->
<g id="edge9" class="edge">
<title>Node9&#45;&gt;Node7</title>
<path fill="none" stroke="midnightblue" d="M190.23,-198.5C184.39,-200.62 178.56,-202.81 173,-205 143.54,-216.6 110.2,-231.8 89.51,-241.49"/>
<polygon fill="midnightblue" stroke="midnightblue" points="191.79,-201.66 200.03,-195.01 189.44,-195.07 191.79,-201.66"/>
</g>
<!-- Node10 -->
<g id="node10" class="node">
<title>Node10</title>
<g id="a_node10"><a xlink:href="a00421.html#a1632df966247f52553c17e25e5d47280" target="_top" xlink:title="刷新数据">
<polygon fill="white" stroke="black" points="12,-170 12,-200 125,-200 125,-170 12,-170"/>
<text text-anchor="start" x="20" y="-188" font-family="Helvetica,sans-Serif" font-size="10.00">MiraiCP::IContactData</text>
<text text-anchor="middle" x="68.5" y="-177" font-family="Helvetica,sans-Serif" font-size="10.00">::refreshInfo</text>
</a>
</g>
</g>
<!-- Node9&#45;&gt;Node10 -->
<g id="edge10" class="edge">
<title>Node9&#45;&gt;Node10</title>
<path fill="none" stroke="midnightblue" d="M180.12,-181.86C162.04,-182.37 142.59,-182.92 125.11,-183.42"/>
<polygon fill="midnightblue" stroke="midnightblue" points="180.4,-185.35 190.3,-181.57 180.2,-178.35 180.4,-185.35"/>
</g>
<!-- Node9&#45;&gt;Node11 -->
<g id="edge11" class="edge">
<title>Node9&#45;&gt;Node11</title>
<path fill="none" stroke="midnightblue" d="M180.37,-163.72C162.22,-159.18 142.67,-154.29 125.11,-149.9"/>
<polygon fill="midnightblue" stroke="midnightblue" points="179.75,-167.17 190.3,-166.2 181.44,-160.38 179.75,-167.17"/>
</g>
<!-- Node15 -->
<g id="node15" class="node">
<title>Node15</title>
<g id="a_node15"><a xlink:href="a00749.html#a831b882bbbc4666b6c4acf47815eafb0" target="_top" xlink:title="图片是否已经上传(如果已经上传即表明可以直接用ImageId发送, 如果没有需要手动上传)">
<polygon fill="white" stroke="black" points="0,-0.5 0,-19.5 137,-19.5 137,-0.5 0,-0.5"/>
<text text-anchor="middle" x="68.5" y="-7.5" font-family="Helvetica,sans-Serif" font-size="10.00">MiraiCP::Image::isUploaded</text>
</a>
</g>
</g>
<!-- Node14&#45;&gt;Node15 -->
<g id="edge15" class="edge">
<title>Node14&#45;&gt;Node15</title>
<path fill="none" stroke="midnightblue" d="M169.28,-10C158.57,-10 147.62,-10 137.08,-10"/>
<polygon fill="midnightblue" stroke="midnightblue" points="169.46,-13.5 179.46,-10 169.46,-6.5 169.46,-13.5"/>
</g>
</g>
</svg>
