<?xml version="1.0" encoding="UTF-8" standalone="no"?>
<!DOCTYPE svg PUBLIC "-//W3C//DTD SVG 1.1//EN"
 "http://www.w3.org/Graphics/SVG/1.1/DTD/svg11.dtd">
<!-- Generated by graphviz version 9.0.0 (0)
 -->
<!-- Title: LibLoader::LoaderApi::disablePluginById Pages: 1 -->
<svg width="1492pt" height="109pt"
 viewBox="0.00 0.00 1491.75 109.00" xmlns="http://www.w3.org/2000/svg" xmlns:xlink="http://www.w3.org/1999/xlink">
<g id="graph0" class="graph" transform="scale(1 1) rotate(0) translate(4 105)">
<title>LibLoader::LoaderApi::disablePluginById</title>
<!-- Node1 -->
<g id="Node000001" class="node">
<title>Node1</title>
<g id="a_Node000001"><a xlink:title=" ">
<polygon fill="#999999" stroke="#666666" points="107.5,-48 0,-48 0,-16 107.5,-16 107.5,-48"/>
<text text-anchor="start" x="8" y="-34.5" font-family="Helvetica,sans-Serif" font-size="10.00">LibLoader::LoaderApi</text>
<text text-anchor="middle" x="53.75" y="-22.5" font-family="Helvetica,sans-Serif" font-size="10.00">::disablePluginById</text>
</a>
</g>
</g>
<!-- Node2 -->
<g id="Node000002" class="node">
<title>Node2</title>
<g id="a_Node000002"><a xlink:href="a00425.html#a04edf8e3eda892a478591ac18c05d9b5" target="_top" xlink:title=" ">
<polygon fill="white" stroke="#666666" points="269.75,-48 143.5,-48 143.5,-16 269.75,-16 269.75,-48"/>
<text text-anchor="start" x="151.5" y="-34.5" font-family="Helvetica,sans-Serif" font-size="10.00">LibLoader::loader_disable</text>
<text text-anchor="middle" x="206.62" y="-22.5" font-family="Helvetica,sans-Serif" font-size="10.00">PluginById</text>
</a>
</g>
</g>
<!-- Node1&#45;&gt;Node2 -->
<g id="edge1_Node000001_Node000002" class="edge">
<title>Node1&#45;&gt;Node2</title>
<g id="a_edge1_Node000001_Node000002"><a xlink:title=" ">
<path fill="none" stroke="#63b8ff" d="M107.94,-32C115.67,-32 123.74,-32 131.78,-32"/>
<polygon fill="#63b8ff" stroke="#63b8ff" points="131.59,-35.5 141.59,-32 131.59,-28.5 131.59,-35.5"/>
</a>
</g>
</g>
<!-- Node3 -->
<g id="Node000003" class="node">
<title>Node3</title>
<g id="a_Node000003"><a xlink:href="a00928.html#acb2f10794477e280867ec8b58d2169d9" target="_top" xlink:title=" ">
<polygon fill="white" stroke="#666666" points="445.12,-70 316.62,-70 316.62,-38 445.12,-38 445.12,-70"/>
<text text-anchor="start" x="324.62" y="-56.5" font-family="Helvetica,sans-Serif" font-size="10.00">LibLoader::PluginManager</text>
<text text-anchor="middle" x="380.88" y="-44.5" font-family="Helvetica,sans-Serif" font-size="10.00">::disableById</text>
</a>
</g>
</g>
<!-- Node2&#45;&gt;Node3 -->
<g id="edge2_Node000002_Node000003" class="edge">
<title>Node2&#45;&gt;Node3</title>
<g id="a_edge2_Node000002_Node000003"><a xlink:title=" ">
<path fill="none" stroke="#63b8ff" d="M269.81,-39.94C281.28,-41.41 293.36,-42.95 305.15,-44.46"/>
<polygon fill="#63b8ff" stroke="#63b8ff" points="304.47,-47.9 314.83,-45.69 305.35,-40.95 304.47,-47.9"/>
</a>
</g>
</g>
<!-- Node12 -->
<g id="Node000012" class="node">
<title>Node12</title>
<g id="a_Node000012"><a xlink:href="a00928.html#a39ce5601eee168a69cab158349412c3e" target="_top" xlink:title=" ">
<polygon fill="white" stroke="#666666" points="456,-20 305.75,-20 305.75,0 456,0 456,-20"/>
<text text-anchor="middle" x="380.88" y="-6.5" font-family="Helvetica,sans-Serif" font-size="10.00">LibLoader::PluginManager::Get</text>
</a>
</g>
</g>
<!-- Node2&#45;&gt;Node12 -->
<g id="edge13_Node000002_Node000012" class="edge">
<title>Node2&#45;&gt;Node12</title>
<g id="a_edge13_Node000002_Node000012"><a xlink:title=" ">
<path fill="none" stroke="#63b8ff" d="M269.81,-24.06C277.76,-23.04 286.01,-21.99 294.25,-20.94"/>
<polygon fill="#63b8ff" stroke="#63b8ff" points="294.47,-24.44 303.95,-19.7 293.59,-17.49 294.47,-24.44"/>
</a>
</g>
</g>
<!-- Node4 -->
<g id="Node000004" class="node">
<title>Node4</title>
<g id="a_Node000004"><a xlink:href="a00872.html#ae735f16b20f681d29d4e5d28ad248dbe" target="_top" xlink:title=" ">
<polygon fill="white" stroke="#666666" points="614.5,-70 492,-70 492,-38 614.5,-38 614.5,-70"/>
<text text-anchor="start" x="500" y="-56.5" font-family="Helvetica,sans-Serif" font-size="10.00">LibLoader::LoaderLogger</text>
<text text-anchor="middle" x="553.25" y="-44.5" font-family="Helvetica,sans-Serif" font-size="10.00">::error</text>
</a>
</g>
</g>
<!-- Node3&#45;&gt;Node4 -->
<g id="edge3_Node000003_Node000004" class="edge">
<title>Node3&#45;&gt;Node4</title>
<g id="a_edge3_Node000003_Node000004"><a xlink:title=" ">
<path fill="none" stroke="#63b8ff" d="M445.32,-54C456.67,-54 468.57,-54 480.15,-54"/>
<polygon fill="#63b8ff" stroke="#63b8ff" points="480.07,-57.5 490.07,-54 480.07,-50.5 480.07,-57.5"/>
</a>
</g>
</g>
<!-- Node5 -->
<g id="Node000005" class="node">
<title>Node5</title>
<g id="a_Node000005"><a xlink:href="a00872.html#af4d7d5164450e25f7401d1cc15f15b8d" target="_top" xlink:title="实际暴露的接口">
<polygon fill="white" stroke="#666666" points="773,-70 650.5,-70 650.5,-38 773,-38 773,-70"/>
<text text-anchor="start" x="658.5" y="-56.5" font-family="Helvetica,sans-Serif" font-size="10.00">LibLoader::LoaderLogger</text>
<text text-anchor="middle" x="711.75" y="-44.5" font-family="Helvetica,sans-Serif" font-size="10.00">::call_logger</text>
</a>
</g>
</g>
<!-- Node4&#45;&gt;Node5 -->
<g id="edge4_Node000004_Node000005" class="edge">
<title>Node4&#45;&gt;Node5</title>
<g id="a_edge4_Node000004_Node000005"><a xlink:title=" ">
<path fill="none" stroke="#63b8ff" d="M614.76,-54C622.65,-54 630.8,-54 638.85,-54"/>
<polygon fill="#63b8ff" stroke="#63b8ff" points="638.63,-57.5 648.63,-54 638.63,-50.5 638.63,-57.5"/>
</a>
</g>
</g>
<!-- Node6 -->
<g id="Node000006" class="node">
<title>Node6</title>
<g id="a_Node000006"><a xlink:href="a00430.html#a076c5f4ff8083c7cfc6523498d0ba30f" target="_top" xlink:title=" ">
<polygon fill="white" stroke="#666666" points="1064.12,-101 961.88,-101 961.88,-69 1064.12,-69 1064.12,-101"/>
<text text-anchor="start" x="969.88" y="-87.5" font-family="Helvetica,sans-Serif" font-size="10.00">LibLoader::JNIEnvs</text>
<text text-anchor="middle" x="1013" y="-75.5" font-family="Helvetica,sans-Serif" font-size="10.00">::getEnv</text>
</a>
</g>
</g>
<!-- Node5&#45;&gt;Node6 -->
<g id="edge5_Node000005_Node000006" class="edge">
<title>Node5&#45;&gt;Node6</title>
<g id="a_edge5_Node000005_Node000006"><a xlink:title=" ">
<path fill="none" stroke="#63b8ff" d="M773.39,-67.27C785.16,-69.48 797.43,-71.52 809,-73 856.27,-79.03 910.14,-82.04 950.5,-83.54"/>
<polygon fill="#63b8ff" stroke="#63b8ff" points="950.14,-87.03 960.26,-83.88 950.38,-80.03 950.14,-87.03"/>
</a>
</g>
</g>
<!-- Node10 -->
<g id="Node000010" class="node">
<title>Node10</title>
<g id="a_Node000010"><a xlink:href="a00425.html#a6a6fcd695791253a9b3a053d313b2b93" target="_top" xlink:title=" ">
<polygon fill="white" stroke="#666666" points="915.75,-64 809,-64 809,-44 915.75,-44 915.75,-64"/>
<text text-anchor="middle" x="862.38" y="-50.5" font-family="Helvetica,sans-Serif" font-size="10.00">LibLoader::str2jstring</text>
</a>
</g>
</g>
<!-- Node5&#45;&gt;Node10 -->
<g id="edge9_Node000005_Node000010" class="edge">
<title>Node5&#45;&gt;Node10</title>
<g id="a_edge9_Node000005_Node000010"><a xlink:title=" ">
<path fill="none" stroke="#63b8ff" d="M773.2,-54C781.08,-54 789.18,-54 797.13,-54"/>
<polygon fill="#63b8ff" stroke="#63b8ff" points="797.1,-57.5 807.1,-54 797.1,-50.5 797.1,-57.5"/>
</a>
</g>
</g>
<!-- Node7 -->
<g id="Node000007" class="node">
<title>Node7</title>
<g id="a_Node000007"><a xlink:href="a00840.html#aea7d58ff9f04d6d4849c25a2506603a5" target="_top" xlink:title="取env,如果不存在重新获取">
<polygon fill="white" stroke="#666666" points="1233.5,-95 1110.25,-95 1110.25,-75 1233.5,-75 1233.5,-95"/>
<text text-anchor="middle" x="1171.88" y="-81.5" font-family="Helvetica,sans-Serif" font-size="10.00">JNIEnvManager::getEnv</text>
</a>
</g>
</g>
<!-- Node6&#45;&gt;Node7 -->
<g id="edge6_Node000006_Node000007" class="edge">
<title>Node6&#45;&gt;Node7</title>
<g id="a_edge6_Node000006_Node000007"><a xlink:title=" ">
<path fill="none" stroke="#63b8ff" d="M1064.5,-85C1075.32,-85 1086.95,-85 1098.41,-85"/>
<polygon fill="#63b8ff" stroke="#63b8ff" points="1098.26,-88.5 1108.26,-85 1098.26,-81.5 1098.26,-88.5"/>
</a>
</g>
</g>
<!-- Node8 -->
<g id="Node000008" class="node">
<title>Node8</title>
<g id="a_Node000008"><a xlink:href="a00260.html#a3d31403b7971274d47d308245206bd24" target="_top" xlink:title="为当前线程创建一个env.">
<polygon fill="white" stroke="#666666" points="1320.75,-95 1269.5,-95 1269.5,-75 1320.75,-75 1320.75,-95"/>
<text text-anchor="middle" x="1295.12" y="-81.5" font-family="Helvetica,sans-Serif" font-size="10.00">newEnv</text>
</a>
</g>
</g>
<!-- Node7&#45;&gt;Node8 -->
<g id="edge7_Node000007_Node000008" class="edge">
<title>Node7&#45;&gt;Node8</title>
<g id="a_edge7_Node000007_Node000008"><a xlink:title=" ">
<path fill="none" stroke="#63b8ff" d="M1233.86,-85C1242.06,-85 1250.26,-85 1257.84,-85"/>
<polygon fill="#63b8ff" stroke="#63b8ff" points="1257.66,-88.5 1267.66,-85 1257.66,-81.5 1257.66,-88.5"/>
</a>
</g>
</g>
<!-- Node9 -->
<g id="Node000009" class="node">
<title>Node9</title>
<g id="a_Node000009"><a xlink:href="a00840.html#ae0e482c6a813848a8f5d34957d1b6307" target="_top" xlink:title="获取全局JavaVM对象.">
<polygon fill="white" stroke="#666666" points="1483.75,-95 1356.75,-95 1356.75,-75 1483.75,-75 1483.75,-95"/>
<text text-anchor="middle" x="1420.25" y="-81.5" font-family="Helvetica,sans-Serif" font-size="10.00">JNIEnvManager::getGvm</text>
</a>
</g>
</g>
<!-- Node8&#45;&gt;Node9 -->
<g id="edge8_Node000008_Node000009" class="edge">
<title>Node8&#45;&gt;Node9</title>
<g id="a_edge8_Node000008_Node000009"><a xlink:title=" ">
<path fill="none" stroke="#63b8ff" d="M1321.04,-85C1328.22,-85 1336.45,-85 1345.02,-85"/>
<polygon fill="#63b8ff" stroke="#63b8ff" points="1344.91,-88.5 1354.91,-85 1344.91,-81.5 1344.91,-88.5"/>
</a>
</g>
</g>
<!-- Node10&#45;&gt;Node6 -->
<g id="edge10_Node000010_Node000006" class="edge">
<title>Node10&#45;&gt;Node6</title>
<g id="a_edge10_Node000010_Node000006"><a xlink:title=" ">
<path fill="none" stroke="#63b8ff" d="M913.69,-64.5C925.49,-66.96 938.19,-69.61 950.42,-72.16"/>
<polygon fill="#63b8ff" stroke="#63b8ff" points="949.5,-75.54 960,-74.15 950.93,-68.69 949.5,-75.54"/>
</a>
</g>
</g>
<!-- Node11 -->
<g id="Node000011" class="node">
<title>Node11</title>
<g id="a_Node000011"><a xlink:href="a00872.html#af50d0545fe7d683e54fcd03453a423e3" target="_top" xlink:title=" ">
<polygon fill="white" stroke="#666666" points="1074.25,-45 951.75,-45 951.75,-13 1074.25,-13 1074.25,-45"/>
<text text-anchor="start" x="959.75" y="-31.5" font-family="Helvetica,sans-Serif" font-size="10.00">LibLoader::LoaderLogger</text>
<text text-anchor="middle" x="1013" y="-19.5" font-family="Helvetica,sans-Serif" font-size="10.00">::warning</text>
</a>
</g>
</g>
<!-- Node10&#45;&gt;Node11 -->
<g id="edge11_Node000010_Node000011" class="edge">
<title>Node10&#45;&gt;Node11</title>
<g id="a_edge11_Node000010_Node000011"><a xlink:title=" ">
<path fill="none" stroke="#63b8ff" d="M916.19,-45.12C923.96,-43.81 932.07,-42.44 940.15,-41.09"/>
<polygon fill="#63b8ff" stroke="#63b8ff" points="940.72,-44.54 950,-39.43 939.56,-37.64 940.72,-44.54"/>
</a>
</g>
</g>
<!-- Node11&#45;&gt;Node5 -->
<g id="edge12_Node000011_Node000005" class="edge">
<title>Node11&#45;&gt;Node5</title>
<g id="a_edge12_Node000011_Node000005"><a xlink:title=" ">
<path fill="none" stroke="#63b8ff" d="M951.41,-28.18C910.96,-28.27 856.65,-29.63 809,-35 801.03,-35.9 792.73,-37.11 784.5,-38.49"/>
<polygon fill="#63b8ff" stroke="#63b8ff" points="784.08,-35.01 774.85,-40.19 785.3,-41.9 784.08,-35.01"/>
</a>
</g>
</g>
</g>
</svg>
