<?xml version="1.0" encoding="UTF-8" standalone="no"?>
<!DOCTYPE svg PUBLIC "-//W3C//DTD SVG 1.1//EN"
 "http://www.w3.org/Graphics/SVG/1.1/DTD/svg11.dtd">
<!-- Generated by graphviz version 2.50.0 (20211204.2007)
 -->
<!-- Title: MiraiCP::ContactDataHelper::nickOrNameCard Pages: 1 -->
<svg width="740pt" height="110pt"
 viewBox="0.00 0.00 740.00 110.00" xmlns="http://www.w3.org/2000/svg" xmlns:xlink="http://www.w3.org/1999/xlink">
<g id="graph0" class="graph" transform="scale(1 1) rotate(0) translate(4 106)">
<title>MiraiCP::ContactDataHelper::nickOrNameCard</title>
<polygon fill="white" stroke="transparent" points="-4,4 -4,-106 736,-106 736,4 -4,4"/>
<!-- Node1 -->
<g id="node1" class="node">
<title>Node1</title>
<g id="a_node1"><a xlink:title="群名称，群成员群名片，或好友昵称">
<polygon fill="#bfbfbf" stroke="black" points="0,-46.5 0,-76.5 139,-76.5 139,-46.5 0,-46.5"/>
<text text-anchor="start" x="8" y="-64.5" font-family="Helvetica,sans-Serif" font-size="10.00">MiraiCP::ContactDataHelper</text>
<text text-anchor="middle" x="69.5" y="-53.5" font-family="Helvetica,sans-Serif" font-size="10.00">::nickOrNameCard</text>
</a>
</g>
</g>
<!-- Node2 -->
<g id="node2" class="node">
<title>Node2</title>
<g id="a_node2"><a xlink:href="a00398.html#a57589d1f65b956985a6b26c9842e2861" target="_top" xlink:title=" ">
<polygon fill="white" stroke="black" points="175,-46.5 175,-76.5 296,-76.5 296,-46.5 175,-46.5"/>
<text text-anchor="start" x="183" y="-64.5" font-family="Helvetica,sans-Serif" font-size="10.00">MiraiCP::internal::</text>
<text text-anchor="middle" x="235.5" y="-53.5" font-family="Helvetica,sans-Serif" font-size="10.00">getNickFromIContactPtr</text>
</a>
</g>
</g>
<!-- Node1&#45;&gt;Node2 -->
<g id="edge1" class="edge">
<title>Node1&#45;&gt;Node2</title>
<path fill="none" stroke="midnightblue" d="M139.1,-61.5C147.52,-61.5 156.14,-61.5 164.59,-61.5"/>
<polygon fill="midnightblue" stroke="midnightblue" points="164.77,-65 174.77,-61.5 164.77,-58 164.77,-65"/>
</g>
<!-- Node3 -->
<g id="node3" class="node">
<title>Node3</title>
<g id="a_node3"><a xlink:href="a00872.html#ad6440ea1909386acbfd77fe1e17d30f8" target="_top" xlink:title="获取锁">
<polygon fill="white" stroke="black" points="332,-71.5 332,-101.5 433,-101.5 433,-71.5 332,-71.5"/>
<text text-anchor="start" x="340" y="-89.5" font-family="Helvetica,sans-Serif" font-size="10.00">MiraiCP::IMiraiData</text>
<text text-anchor="middle" x="382.5" y="-78.5" font-family="Helvetica,sans-Serif" font-size="10.00">::getMutex</text>
</a>
</g>
</g>
<!-- Node2&#45;&gt;Node3 -->
<g id="edge2" class="edge">
<title>Node2&#45;&gt;Node3</title>
<path fill="none" stroke="midnightblue" d="M296.31,-71.81C304.74,-73.27 313.41,-74.76 321.84,-76.21"/>
<polygon fill="midnightblue" stroke="midnightblue" points="321.52,-79.71 331.97,-77.96 322.71,-72.81 321.52,-79.71"/>
</g>
<!-- Node4 -->
<g id="node4" class="node">
<title>Node4</title>
<g id="a_node4"><a xlink:href="a00872.html#a0af5afb339c80a734ac9752d4f179069" target="_top" xlink:title="请求一次刷新数据, 但不保证会进行">
<polygon fill="white" stroke="black" points="332,-22.5 332,-52.5 433,-52.5 433,-22.5 332,-22.5"/>
<text text-anchor="start" x="340" y="-40.5" font-family="Helvetica,sans-Serif" font-size="10.00">MiraiCP::IMiraiData</text>
<text text-anchor="middle" x="382.5" y="-29.5" font-family="Helvetica,sans-Serif" font-size="10.00">::requestRefresh</text>
</a>
</g>
</g>
<!-- Node2&#45;&gt;Node4 -->
<g id="edge3" class="edge">
<title>Node2&#45;&gt;Node4</title>
<path fill="none" stroke="midnightblue" d="M296.31,-51.6C304.74,-50.2 313.41,-48.77 321.84,-47.38"/>
<polygon fill="midnightblue" stroke="midnightblue" points="322.67,-50.78 331.97,-45.7 321.53,-43.88 322.67,-50.78"/>
</g>
<!-- Node5 -->
<g id="node5" class="node">
<title>Node5</title>
<g id="a_node5"><a xlink:href="a00397.html#a0a223033909ab4ca1f424c337fda2b85" target="_top" xlink:title="判断目前是否可以安全地call LoaderApi">
<polygon fill="white" stroke="black" points="469,-50 469,-69 588,-69 588,-50 469,-50"/>
<text text-anchor="middle" x="528.5" y="-57" font-family="Helvetica,sans-Serif" font-size="10.00">MiraiCP::checkSafeCall</text>
</a>
</g>
</g>
<!-- Node4&#45;&gt;Node5 -->
<g id="edge4" class="edge">
<title>Node4&#45;&gt;Node5</title>
<path fill="none" stroke="midnightblue" d="M433.06,-45.07C441.36,-46.34 450.11,-47.68 458.79,-49"/>
<polygon fill="midnightblue" stroke="midnightblue" points="458.51,-52.5 468.92,-50.55 459.56,-45.58 458.51,-52.5"/>
</g>
<!-- Node7 -->
<g id="node7" class="node">
<title>Node7</title>
<g id="a_node7"><a xlink:href="a00872.html#a628b8885f118d1f20b2f4afd1add0e8b" target="_top" xlink:title="刷新数据, 由子类实现">
<polygon fill="white" stroke="black" points="478,-0.5 478,-30.5 579,-30.5 579,-0.5 478,-0.5"/>
<text text-anchor="start" x="486" y="-18.5" font-family="Helvetica,sans-Serif" font-size="10.00">MiraiCP::IMiraiData</text>
<text text-anchor="middle" x="528.5" y="-7.5" font-family="Helvetica,sans-Serif" font-size="10.00">::refreshInfo</text>
</a>
</g>
</g>
<!-- Node4&#45;&gt;Node7 -->
<g id="edge6" class="edge">
<title>Node4&#45;&gt;Node7</title>
<path fill="none" stroke="midnightblue" d="M433.06,-29.93C444.26,-28.22 456.26,-26.38 467.83,-24.62"/>
<polygon fill="midnightblue" stroke="midnightblue" points="468.5,-28.06 477.85,-23.09 467.44,-21.14 468.5,-28.06"/>
</g>
<!-- Node6 -->
<g id="node6" class="node">
<title>Node6</title>
<g id="a_node6"><a xlink:href="a00408.html#adbbf9fc9fc8afe6108ac756d7da23ddb" target="_top" xlink:title="这个函数是给本cpp以外的文件使用的，大概率用不到">
<polygon fill="white" stroke="black" points="624,-44.5 624,-74.5 732,-74.5 732,-44.5 624,-44.5"/>
<text text-anchor="start" x="632" y="-62.5" font-family="Helvetica,sans-Serif" font-size="10.00">LibLoader::LoaderApi</text>
<text text-anchor="middle" x="678" y="-51.5" font-family="Helvetica,sans-Serif" font-size="10.00">::get_loader_apis</text>
</a>
</g>
</g>
<!-- Node5&#45;&gt;Node6 -->
<g id="edge5" class="edge">
<title>Node5&#45;&gt;Node6</title>
<path fill="none" stroke="midnightblue" d="M588.22,-59.5C596.56,-59.5 605.17,-59.5 613.59,-59.5"/>
<polygon fill="midnightblue" stroke="midnightblue" points="613.74,-63 623.74,-59.5 613.74,-56 613.74,-63"/>
</g>
</g>
</svg>
