<?xml version="1.0" encoding="UTF-8" standalone="no"?>
<!DOCTYPE svg PUBLIC "-//W3C//DTD SVG 1.1//EN"
 "http://www.w3.org/Graphics/SVG/1.1/DTD/svg11.dtd">
<!-- Generated by graphviz version 9.0.0 (0)
 -->
<!-- Title: MiraiCP::ThreadTask::internal::logerror Pages: 1 -->
<svg width="261pt" height="90pt"
 viewBox="0.00 0.00 260.50 90.00" xmlns="http://www.w3.org/2000/svg" xmlns:xlink="http://www.w3.org/1999/xlink">
<g id="graph0" class="graph" transform="scale(1 1) rotate(0) translate(4 86)">
<title>MiraiCP::ThreadTask::internal::logerror</title>
<!-- Node1 -->
<g id="Node000001" class="node">
<title>Node1</title>
<g id="a_Node000001"><a xlink:title=" ">
<polygon fill="#999999" stroke="#666666" points="252.5,-57 144.25,-57 144.25,-25 252.5,-25 252.5,-57"/>
<text text-anchor="start" x="152.25" y="-43.5" font-family="Helvetica,sans-Serif" font-size="10.00">MiraiCP::ThreadTask</text>
<text text-anchor="middle" x="198.38" y="-31.5" font-family="Helvetica,sans-Serif" font-size="10.00">::internal::logerror</text>
</a>
</g>
</g>
<!-- Node2 -->
<g id="Node000002" class="node">
<title>Node2</title>
<g id="a_Node000002"><a xlink:href="a00419.html#ad89a78a5c9164f1e56e895c48ee1ec22" target="_top" xlink:title="提交一个任务到线程池，参数与构造 std::thread 以及 MiraiCPNewThread 用的参数相同。 任务在线程池可用时会被立刻执行。与 promiseTask 不同，不会给出任务返回值">
<polygon fill="white" stroke="#666666" points="108.25,-82 0,-82 0,-50 108.25,-50 108.25,-82"/>
<text text-anchor="start" x="8" y="-68.5" font-family="Helvetica,sans-Serif" font-size="10.00">MiraiCP::ThreadTask</text>
<text text-anchor="middle" x="54.12" y="-56.5" font-family="Helvetica,sans-Serif" font-size="10.00">::addTask</text>
</a>
</g>
</g>
<!-- Node1&#45;&gt;Node2 -->
<g id="edge1_Node000001_Node000002" class="edge">
<title>Node1&#45;&gt;Node2</title>
<g id="a_edge1_Node000001_Node000002"><a xlink:title=" ">
<path fill="none" stroke="#63b8ff" d="M132.91,-52.33C124.68,-53.78 116.34,-55.24 108.32,-56.65"/>
<polygon fill="#63b8ff" stroke="#63b8ff" points="133.27,-55.82 142.51,-50.64 132.06,-48.93 133.27,-55.82"/>
</a>
</g>
</g>
<!-- Node3 -->
<g id="Node000003" class="node">
<title>Node3</title>
<g id="a_Node000003"><a xlink:href="a00419.html#ab84de57ea7f15a70da47472adc87061a" target="_top" xlink:title="提交一个任务到线程池，参数与构造 std::thread 以及 MiraiCPNewThread 用的参数相同。 任务在线程池可用时会被立刻执行">
<polygon fill="white" stroke="#666666" points="108.25,-32 0,-32 0,0 108.25,0 108.25,-32"/>
<text text-anchor="start" x="8" y="-18.5" font-family="Helvetica,sans-Serif" font-size="10.00">MiraiCP::ThreadTask</text>
<text text-anchor="middle" x="54.12" y="-6.5" font-family="Helvetica,sans-Serif" font-size="10.00">::promiseTask</text>
</a>
</g>
</g>
<!-- Node1&#45;&gt;Node3 -->
<g id="edge2_Node000001_Node000003" class="edge">
<title>Node1&#45;&gt;Node3</title>
<g id="a_edge2_Node000001_Node000003"><a xlink:title=" ">
<path fill="none" stroke="#63b8ff" d="M132.91,-29.67C124.68,-28.22 116.34,-26.76 108.32,-25.35"/>
<polygon fill="#63b8ff" stroke="#63b8ff" points="132.06,-33.07 142.51,-31.36 133.27,-26.18 132.06,-33.07"/>
</a>
</g>
</g>
</g>
</svg>
