<?xml version="1.0" encoding="UTF-8" standalone="no"?>
<!DOCTYPE svg PUBLIC "-//W3C//DTD SVG 1.1//EN"
 "http://www.w3.org/Graphics/SVG/1.1/DTD/svg11.dtd">
<!-- Generated by graphviz version 9.0.0 (0)
 -->
<!-- Title: Bot.cpp Pages: 1 -->
<svg width="1333pt" height="432pt"
 viewBox="0.00 0.00 1333.12 432.00" xmlns="http://www.w3.org/2000/svg" xmlns:xlink="http://www.w3.org/1999/xlink">
<g id="graph0" class="graph" transform="scale(1 1) rotate(0) translate(4 428)">
<title>Bot.cpp</title>
<!-- Node1 -->
<g id="Node000001" class="node">
<title>Node1</title>
<g id="a_Node000001"><a xlink:title=" ">
<polygon fill="#999999" stroke="#666666" points="981.5,-424 931.75,-424 931.75,-404 981.5,-404 981.5,-424"/>
<text text-anchor="middle" x="956.62" y="-410.5" font-family="Helvetica,sans-Serif" font-size="10.00">Bot.cpp</text>
</a>
</g>
</g>
<!-- Node2 -->
<g id="Node000002" class="node">
<title>Node2</title>
<g id="a_Node000002"><a xlink:href="a00170.html" target="_top" xlink:title=" ">
<polygon fill="white" stroke="#666666" points="808.25,-362 769,-362 769,-342 808.25,-342 808.25,-362"/>
<text text-anchor="middle" x="788.62" y="-348.5" font-family="Helvetica,sans-Serif" font-size="10.00">Bot.h</text>
</a>
</g>
</g>
<!-- Node1&#45;&gt;Node2 -->
<g id="edge1_Node000001_Node000002" class="edge">
<title>Node1&#45;&gt;Node2</title>
<g id="a_edge1_Node000001_Node000002"><a xlink:title=" ">
<path fill="none" stroke="#63b8ff" d="M931.47,-404.02C901.5,-393.31 851.45,-375.44 819.26,-363.94"/>
<polygon fill="#63b8ff" stroke="#63b8ff" points="820.69,-360.74 810.1,-360.67 818.34,-367.33 820.69,-360.74"/>
</a>
</g>
</g>
<!-- Node21 -->
<g id="Node000021" class="node">
<title>Node21</title>
<g id="a_Node000021"><a xlink:href="a00332.html" target="_top" xlink:title=" ">
<polygon fill="white" stroke="#666666" points="1156.12,-368 1023.12,-368 1023.12,-336 1156.12,-336 1156.12,-368"/>
<text text-anchor="start" x="1031.12" y="-354.5" font-family="Helvetica,sans-Serif" font-size="10.00">ContactDataType/IContact</text>
<text text-anchor="middle" x="1089.62" y="-342.5" font-family="Helvetica,sans-Serif" font-size="10.00">Data.h</text>
</a>
</g>
</g>
<!-- Node1&#45;&gt;Node21 -->
<g id="edge28_Node000001_Node000021" class="edge">
<title>Node1&#45;&gt;Node21</title>
<g id="a_edge28_Node000001_Node000021"><a xlink:title=" ">
<path fill="none" stroke="#63b8ff" d="M977.41,-403.62C995.46,-395.48 1022.24,-383.4 1045.1,-373.09"/>
<polygon fill="#63b8ff" stroke="#63b8ff" points="1046.23,-376.42 1053.91,-369.11 1043.35,-370.03 1046.23,-376.42"/>
</a>
</g>
</g>
<!-- Node23 -->
<g id="Node000023" class="node">
<title>Node23</title>
<g id="a_Node000023"><a xlink:title=" ">
<polygon fill="#e0e0e0" stroke="#999999" points="1213.25,-244 1168,-244 1168,-224 1213.25,-224 1213.25,-244"/>
<text text-anchor="middle" x="1190.62" y="-230.5" font-family="Helvetica,sans-Serif" font-size="10.00">atomic</text>
</a>
</g>
</g>
<!-- Node1&#45;&gt;Node23 -->
<g id="edge51_Node000001_Node000023" class="edge">
<title>Node1&#45;&gt;Node23</title>
<g id="a_edge51_Node000001_Node000023"><a xlink:title=" ">
<path fill="none" stroke="#63b8ff" d="M981.88,-411C1031.77,-406.53 1140.31,-393.99 1165.62,-368 1195.04,-337.8 1195.5,-284.59 1193.15,-255.47"/>
<polygon fill="#63b8ff" stroke="#63b8ff" points="1196.66,-255.37 1192.16,-245.78 1189.69,-256.08 1196.66,-255.37"/>
</a>
</g>
</g>
<!-- Node25 -->
<g id="Node000025" class="node">
<title>Node25</title>
<g id="a_Node000025"><a xlink:href="a00071.html" target="_top" xlink:title=" ">
<polygon fill="white" stroke="#666666" points="751.25,-362 700,-362 700,-342 751.25,-342 751.25,-362"/>
<text text-anchor="middle" x="725.62" y="-348.5" font-family="Helvetica,sans-Serif" font-size="10.00">Friend.h</text>
</a>
</g>
</g>
<!-- Node1&#45;&gt;Node25 -->
<g id="edge34_Node000001_Node000025" class="edge">
<title>Node1&#45;&gt;Node25</title>
<g id="a_edge34_Node000001_Node000025"><a xlink:title=" ">
<path fill="none" stroke="#63b8ff" d="M931.33,-408.82C893.42,-402.2 819.9,-387.98 759.62,-368 758.28,-367.55 756.92,-367.08 755.55,-366.57"/>
<polygon fill="#63b8ff" stroke="#63b8ff" points="757.14,-363.44 746.55,-362.94 754.52,-369.93 757.14,-363.44"/>
</a>
</g>
</g>
<!-- Node26 -->
<g id="Node000026" class="node">
<title>Node26</title>
<g id="a_Node000026"><a xlink:href="a00056.html" target="_top" xlink:title=" ">
<polygon fill="white" stroke="#666666" points="681.88,-362 631.38,-362 631.38,-342 681.88,-342 681.88,-362"/>
<text text-anchor="middle" x="656.62" y="-348.5" font-family="Helvetica,sans-Serif" font-size="10.00">Group.h</text>
</a>
</g>
</g>
<!-- Node1&#45;&gt;Node26 -->
<g id="edge36_Node000001_Node000026" class="edge">
<title>Node1&#45;&gt;Node26</title>
<g id="a_edge36_Node000001_Node000026"><a xlink:title=" ">
<path fill="none" stroke="#63b8ff" d="M931.59,-410.85C883.87,-406.3 776.98,-393.91 690.62,-368 689.23,-367.58 687.83,-367.12 686.41,-366.63"/>
<polygon fill="#63b8ff" stroke="#63b8ff" points="687.72,-363.39 677.14,-362.97 685.16,-369.9 687.72,-363.39"/>
</a>
</g>
</g>
<!-- Node27 -->
<g id="Node000027" class="node">
<title>Node27</title>
<g id="a_Node000027"><a xlink:href="a00362.html" target="_top" xlink:title=" ">
<polygon fill="white" stroke="#666666" points="968.62,-300 892.62,-300 892.62,-280 968.62,-280 968.62,-300"/>
<text text-anchor="middle" x="930.62" y="-286.5" font-family="Helvetica,sans-Serif" font-size="10.00">KtOperation.h</text>
</a>
</g>
</g>
<!-- Node1&#45;&gt;Node27 -->
<g id="edge40_Node000001_Node000027" class="edge">
<title>Node1&#45;&gt;Node27</title>
<g id="a_edge40_Node000001_Node000027"><a xlink:title=" ">
<path fill="none" stroke="#63b8ff" d="M954.67,-403.83C950.51,-384.31 940.7,-338.25 934.97,-311.4"/>
<polygon fill="#63b8ff" stroke="#63b8ff" points="938.42,-310.81 932.92,-301.76 931.58,-312.27 938.42,-310.81"/>
</a>
</g>
</g>
<!-- Node28 -->
<g id="Node000028" class="node">
<title>Node28</title>
<g id="a_Node000028"><a xlink:href="a00374.html" target="_top" xlink:title=" ">
<polygon fill="white" stroke="#666666" points="1068.62,-300 986.62,-300 986.62,-280 1068.62,-280 1068.62,-300"/>
<text text-anchor="middle" x="1027.62" y="-286.5" font-family="Helvetica,sans-Serif" font-size="10.00">LowLevelAPI.h</text>
</a>
</g>
</g>
<!-- Node1&#45;&gt;Node28 -->
<g id="edge42_Node000001_Node000028" class="edge">
<title>Node1&#45;&gt;Node28</title>
<g id="a_edge42_Node000001_Node000028"><a xlink:title=" ">
<path fill="none" stroke="#63b8ff" d="M961.96,-403.83C973.53,-383.96 1001.1,-336.58 1016.59,-309.97"/>
<polygon fill="#63b8ff" stroke="#63b8ff" points="1019.46,-311.99 1021.47,-301.58 1013.41,-308.47 1019.46,-311.99"/>
</a>
</g>
</g>
<!-- Node29 -->
<g id="Node000029" class="node">
<title>Node29</title>
<g id="a_Node000029"><a xlink:href="a00083.html" target="_top" xlink:title=" ">
<polygon fill="white" stroke="#666666" points="864.38,-188 816.88,-188 816.88,-168 864.38,-168 864.38,-188"/>
<text text-anchor="middle" x="840.62" y="-174.5" font-family="Helvetica,sans-Serif" font-size="10.00">Tools.h</text>
</a>
</g>
</g>
<!-- Node1&#45;&gt;Node29 -->
<g id="edge44_Node000001_Node000029" class="edge">
<title>Node1&#45;&gt;Node29</title>
<g id="a_edge44_Node000001_Node000029"><a xlink:title=" ">
<path fill="none" stroke="#63b8ff" d="M949.59,-403.77C935.57,-385.04 903.74,-340.86 883.62,-300 866.86,-265.95 853.38,-223.68 846.22,-199.18"/>
<polygon fill="#63b8ff" stroke="#63b8ff" points="849.68,-198.52 843.57,-189.86 842.94,-200.44 849.68,-198.52"/>
</a>
</g>
</g>
<!-- Node30 -->
<g id="Node000030" class="node">
<title>Node30</title>
<g id="a_Node000030"><a xlink:title=" ">
<polygon fill="#e0e0e0" stroke="#999999" points="1264.25,-362 1213,-362 1213,-342 1264.25,-342 1264.25,-362"/>
<text text-anchor="middle" x="1238.62" y="-348.5" font-family="Helvetica,sans-Serif" font-size="10.00">memory</text>
</a>
</g>
</g>
<!-- Node1&#45;&gt;Node30 -->
<g id="edge52_Node000001_Node000030" class="edge">
<title>Node1&#45;&gt;Node30</title>
<g id="a_edge52_Node000001_Node000030"><a xlink:title=" ">
<path fill="none" stroke="#63b8ff" d="M981.69,-409.81C1025.99,-403.86 1120.81,-389.65 1198.62,-368 1200.63,-367.44 1202.67,-366.83 1204.72,-366.17"/>
<polygon fill="#63b8ff" stroke="#63b8ff" points="1205.85,-369.49 1214.16,-362.92 1203.56,-362.87 1205.85,-369.49"/>
</a>
</g>
</g>
<!-- Node31 -->
<g id="Node000031" class="node">
<title>Node31</title>
<g id="a_Node000031"><a xlink:title=" ">
<polygon fill="#e0e0e0" stroke="#999999" points="1325.12,-362 1282.12,-362 1282.12,-342 1325.12,-342 1325.12,-362"/>
<text text-anchor="middle" x="1303.62" y="-348.5" font-family="Helvetica,sans-Serif" font-size="10.00">mutex</text>
</a>
</g>
</g>
<!-- Node1&#45;&gt;Node31 -->
<g id="edge53_Node000001_Node000031" class="edge">
<title>Node1&#45;&gt;Node31</title>
<g id="a_edge53_Node000001_Node000031"><a xlink:title=" ">
<path fill="none" stroke="#63b8ff" d="M981.89,-412.16C1036.38,-409.77 1168.56,-400.77 1273.62,-368 1274.76,-367.64 1275.91,-367.25 1277.06,-366.82"/>
<polygon fill="#63b8ff" stroke="#63b8ff" points="1278.05,-370.21 1285.82,-363 1275.25,-363.8 1278.05,-370.21"/>
</a>
</g>
</g>
<!-- Node3 -->
<g id="Node000003" class="node">
<title>Node3</title>
<g id="a_Node000003"><a xlink:href="a00095.html" target="_top" xlink:title=" ">
<polygon fill="white" stroke="#666666" points="685,-300 626.25,-300 626.25,-280 685,-280 685,-300"/>
<text text-anchor="middle" x="655.62" y="-286.5" font-family="Helvetica,sans-Serif" font-size="10.00">Contact.h</text>
</a>
</g>
</g>
<!-- Node2&#45;&gt;Node3 -->
<g id="edge2_Node000002_Node000003" class="edge">
<title>Node2&#45;&gt;Node3</title>
<g id="a_edge2_Node000002_Node000003"><a xlink:title=" ">
<path fill="none" stroke="#63b8ff" d="M771.57,-341.56C767.98,-339.66 764.2,-337.72 760.62,-336 737.29,-324.78 710.46,-313.3 689.75,-304.74"/>
<polygon fill="#63b8ff" stroke="#63b8ff" points="691.22,-301.56 680.64,-301.01 688.57,-308.04 691.22,-301.56"/>
</a>
</g>
</g>
<!-- Node9 -->
<g id="Node000009" class="node">
<title>Node9</title>
<g id="a_Node000009"><a xlink:href="a00062.html" target="_top" xlink:title=" ">
<polygon fill="white" stroke="#666666" points="919.88,-76 857.38,-76 857.38,-56 919.88,-56 919.88,-76"/>
<text text-anchor="middle" x="888.62" y="-62.5" font-family="Helvetica,sans-Serif" font-size="10.00">SdkType.h</text>
</a>
</g>
</g>
<!-- Node2&#45;&gt;Node9 -->
<g id="edge25_Node000002_Node000009" class="edge">
<title>Node2&#45;&gt;Node9</title>
<g id="a_edge25_Node000002_Node000009"><a xlink:title=" ">
<path fill="none" stroke="#63b8ff" d="M794.89,-341.54C810.7,-317.2 852.51,-249.92 873.62,-188 881.79,-164.07 880.43,-157.08 883.62,-132 885.51,-117.18 886.78,-100.36 887.57,-87.55"/>
<polygon fill="#63b8ff" stroke="#63b8ff" points="891.05,-87.98 888.12,-77.8 884.06,-87.59 891.05,-87.98"/>
</a>
</g>
</g>
<!-- Node10 -->
<g id="Node000010" class="node">
<title>Node10</title>
<g id="a_Node000010"><a xlink:title=" ">
<polygon fill="#e0e0e0" stroke="#999999" points="624.62,-76 584.62,-76 584.62,-56 624.62,-56 624.62,-76"/>
<text text-anchor="middle" x="604.62" y="-62.5" font-family="Helvetica,sans-Serif" font-size="10.00">string</text>
</a>
</g>
</g>
<!-- Node2&#45;&gt;Node10 -->
<g id="edge26_Node000002_Node000010" class="edge">
<title>Node2&#45;&gt;Node10</title>
<g id="a_edge26_Node000002_Node000010"><a xlink:title=" ">
<path fill="none" stroke="#63b8ff" d="M783.34,-341.72C772.9,-322.47 750.62,-276.54 750.62,-235 750.62,-235 750.62,-235 750.62,-177 750.62,-146.9 752.3,-133.87 731.62,-112 706.48,-85.41 664.64,-74.51 635.9,-70.06"/>
<polygon fill="#63b8ff" stroke="#63b8ff" points="636.72,-66.64 626.34,-68.76 635.78,-73.57 636.72,-66.64"/>
</a>
</g>
</g>
<!-- Node20 -->
<g id="Node000020" class="node">
<title>Node20</title>
<g id="a_Node000020"><a xlink:title=" ">
<polygon fill="#e0e0e0" stroke="#999999" points="822.12,-132 779.12,-132 779.12,-112 822.12,-112 822.12,-132"/>
<text text-anchor="middle" x="800.62" y="-118.5" font-family="Helvetica,sans-Serif" font-size="10.00">vector</text>
</a>
</g>
</g>
<!-- Node2&#45;&gt;Node20 -->
<g id="edge27_Node000002_Node000020" class="edge">
<title>Node2&#45;&gt;Node20</title>
<g id="a_edge27_Node000002_Node000020"><a xlink:title=" ">
<path fill="none" stroke="#63b8ff" d="M789.11,-341.78C790.89,-308.05 797.05,-190.86 799.56,-143.29"/>
<polygon fill="#63b8ff" stroke="#63b8ff" points="803.04,-143.77 800.07,-133.6 796.05,-143.4 803.04,-143.77"/>
</a>
</g>
</g>
<!-- Node4 -->
<g id="Node000004" class="node">
<title>Node4</title>
<g id="a_Node000004"><a xlink:href="a00092.html" target="_top" xlink:title=" ">
<polygon fill="white" stroke="#666666" points="455.38,-244 365.88,-244 365.88,-224 455.38,-224 455.38,-244"/>
<text text-anchor="middle" x="410.62" y="-230.5" font-family="Helvetica,sans-Serif" font-size="10.00">MessageChain.h</text>
</a>
</g>
</g>
<!-- Node3&#45;&gt;Node4 -->
<g id="edge3_Node000003_Node000004" class="edge">
<title>Node3&#45;&gt;Node4</title>
<g id="a_edge3_Node000003_Node000004"><a xlink:title=" ">
<path fill="none" stroke="#63b8ff" d="M626.07,-282.49C586.16,-273.69 514.33,-257.86 464.64,-246.91"/>
<polygon fill="#63b8ff" stroke="#63b8ff" points="465.45,-243.5 454.93,-244.77 463.95,-250.34 465.45,-243.5"/>
</a>
</g>
</g>
<!-- Node3&#45;&gt;Node10 -->
<g id="edge24_Node000003_Node000010" class="edge">
<title>Node3&#45;&gt;Node10</title>
<g id="a_edge24_Node000003_Node000010"><a xlink:title=" ">
<path fill="none" stroke="#63b8ff" d="M643.83,-279.69C634.35,-271.44 621.65,-258.48 615.62,-244 593.6,-191.07 597.8,-121.49 601.72,-87.49"/>
<polygon fill="#63b8ff" stroke="#63b8ff" points="605.16,-88.17 602.96,-77.81 598.22,-87.28 605.16,-88.17"/>
</a>
</g>
</g>
<!-- Node19 -->
<g id="Node000019" class="node">
<title>Node19</title>
<g id="a_Node000019"><a xlink:title=" ">
<polygon fill="#e0e0e0" stroke="#999999" points="722.5,-244 624.75,-244 624.75,-224 722.5,-224 722.5,-244"/>
<text text-anchor="middle" x="673.62" y="-230.5" font-family="Helvetica,sans-Serif" font-size="10.00">nlohmann/json.hpp</text>
</a>
</g>
</g>
<!-- Node3&#45;&gt;Node19 -->
<g id="edge23_Node000003_Node000019" class="edge">
<title>Node3&#45;&gt;Node19</title>
<g id="a_edge23_Node000003_Node000019"><a xlink:title=" ">
<path fill="none" stroke="#63b8ff" d="M658.76,-279.59C661.01,-272.86 664.11,-263.53 666.91,-255.15"/>
<polygon fill="#63b8ff" stroke="#63b8ff" points="670.2,-256.33 670.05,-245.73 663.56,-254.11 670.2,-256.33"/>
</a>
</g>
</g>
<!-- Node5 -->
<g id="Node000005" class="node">
<title>Node5</title>
<g id="a_Node000005"><a xlink:href="a00041.html" target="_top" xlink:title=" ">
<polygon fill="white" stroke="#666666" points="413.5,-76 321.75,-76 321.75,-56 413.5,-56 413.5,-76"/>
<text text-anchor="middle" x="367.62" y="-62.5" font-family="Helvetica,sans-Serif" font-size="10.00">MiraiCPMacros.h</text>
</a>
</g>
</g>
<!-- Node4&#45;&gt;Node5 -->
<g id="edge4_Node000004_Node000005" class="edge">
<title>Node4&#45;&gt;Node5</title>
<g id="a_edge4_Node000004_Node000005"><a xlink:title=" ">
<path fill="none" stroke="#63b8ff" d="M365.43,-232.6C298.21,-229.27 173.69,-211.95 116.62,-132 111.46,-124.77 110.92,-118.82 116.62,-112 140.83,-83.07 244.01,-72.72 310.31,-69.03"/>
<polygon fill="#63b8ff" stroke="#63b8ff" points="310.11,-72.54 319.91,-68.53 309.75,-65.55 310.11,-72.54"/>
</a>
</g>
</g>
<!-- Node7 -->
<g id="Node000007" class="node">
<title>Node7</title>
<g id="a_Node000007"><a xlink:href="a00089.html" target="_top" xlink:title=" ">
<polygon fill="white" stroke="#666666" points="410.12,-188 319.12,-188 319.12,-168 410.12,-168 410.12,-188"/>
<text text-anchor="middle" x="364.62" y="-174.5" font-family="Helvetica,sans-Serif" font-size="10.00">SingleMessage.h</text>
</a>
</g>
</g>
<!-- Node4&#45;&gt;Node7 -->
<g id="edge6_Node000004_Node000007" class="edge">
<title>Node4&#45;&gt;Node7</title>
<g id="a_edge6_Node000004_Node000007"><a xlink:title=" ">
<path fill="none" stroke="#63b8ff" d="M402.61,-223.59C396.35,-216.24 387.45,-205.8 379.84,-196.87"/>
<polygon fill="#63b8ff" stroke="#63b8ff" points="382.68,-194.79 373.53,-189.45 377.35,-199.33 382.68,-194.79"/>
</a>
</g>
</g>
<!-- Node18 -->
<g id="Node000018" class="node">
<title>Node18</title>
<g id="a_Node000018"><a xlink:title=" ">
<polygon fill="#e0e0e0" stroke="#999999" points="486.62,-188 428.62,-188 428.62,-168 486.62,-168 486.62,-188"/>
<text text-anchor="middle" x="457.62" y="-174.5" font-family="Helvetica,sans-Serif" font-size="10.00">functional</text>
</a>
</g>
</g>
<!-- Node4&#45;&gt;Node18 -->
<g id="edge22_Node000004_Node000018" class="edge">
<title>Node4&#45;&gt;Node18</title>
<g id="a_edge22_Node000004_Node000018"><a xlink:title=" ">
<path fill="none" stroke="#63b8ff" d="M418.81,-223.59C425.21,-216.24 434.3,-205.8 442.08,-196.87"/>
<polygon fill="#63b8ff" stroke="#63b8ff" points="444.61,-199.28 448.54,-189.44 439.33,-194.69 444.61,-199.28"/>
</a>
</g>
</g>
<!-- Node6 -->
<g id="Node000006" class="node">
<title>Node6</title>
<g id="a_Node000006"><a xlink:title=" ">
<polygon fill="#e0e0e0" stroke="#999999" points="391.75,-20 343.5,-20 343.5,0 391.75,0 391.75,-20"/>
<text text-anchor="middle" x="367.62" y="-6.5" font-family="Helvetica,sans-Serif" font-size="10.00">cassert</text>
</a>
</g>
</g>
<!-- Node5&#45;&gt;Node6 -->
<g id="edge5_Node000005_Node000006" class="edge">
<title>Node5&#45;&gt;Node6</title>
<g id="a_edge5_Node000005_Node000006"><a xlink:title=" ">
<path fill="none" stroke="#63b8ff" d="M367.62,-55.59C367.62,-49.01 367.62,-39.96 367.62,-31.73"/>
<polygon fill="#63b8ff" stroke="#63b8ff" points="371.13,-31.81 367.63,-21.81 364.13,-31.81 371.13,-31.81"/>
</a>
</g>
</g>
<!-- Node7&#45;&gt;Node5 -->
<g id="edge7_Node000007_Node000005" class="edge">
<title>Node7&#45;&gt;Node5</title>
<g id="a_edge7_Node000007_Node000005"><a xlink:title=" ">
<path fill="none" stroke="#63b8ff" d="M318.86,-175.14C256.24,-171.54 148.82,-161.16 124.62,-132 118.95,-125.16 118.94,-118.83 124.62,-112 147.76,-84.19 245.85,-73.49 310.11,-69.43"/>
<polygon fill="#63b8ff" stroke="#63b8ff" points="310.01,-72.94 319.79,-68.86 309.6,-65.95 310.01,-72.94"/>
</a>
</g>
</g>
<!-- Node8 -->
<g id="Node000008" class="node">
<title>Node8</title>
<g id="a_Node000008"><a xlink:href="a00086.html" target="_top" xlink:title=" ">
<polygon fill="white" stroke="#666666" points="577,-132 482.25,-132 482.25,-112 577,-112 577,-132"/>
<text text-anchor="middle" x="529.62" y="-118.5" font-family="Helvetica,sans-Serif" font-size="10.00">MessageSource.h</text>
</a>
</g>
</g>
<!-- Node7&#45;&gt;Node8 -->
<g id="edge8_Node000007_Node000008" class="edge">
<title>Node7&#45;&gt;Node8</title>
<g id="a_edge8_Node000007_Node000008"><a xlink:title=" ">
<path fill="none" stroke="#63b8ff" d="M393.37,-167.59C420.06,-158.86 460.04,-145.77 489.8,-136.03"/>
<polygon fill="#63b8ff" stroke="#63b8ff" points="490.81,-139.39 499.22,-132.95 488.63,-132.73 490.81,-139.39"/>
</a>
</g>
</g>
<!-- Node7&#45;&gt;Node9 -->
<g id="edge15_Node000007_Node000009" class="edge">
<title>Node7&#45;&gt;Node9</title>
<g id="a_edge15_Node000007_Node000009"><a xlink:title=" ">
<path fill="none" stroke="#63b8ff" d="M410.5,-168.44C455.31,-159.9 525.38,-146.05 585.62,-132 619.64,-124.07 627.59,-119.84 661.62,-112 725.37,-97.31 799.86,-83.1 845.64,-74.71"/>
<polygon fill="#63b8ff" stroke="#63b8ff" points="846.21,-78.16 855.42,-72.92 844.96,-71.27 846.21,-78.16"/>
</a>
</g>
</g>
<!-- Node11 -->
<g id="Node000011" class="node">
<title>Node11</title>
<g id="a_Node000011"><a xlink:href="a00068.html" target="_top" xlink:title=" ">
<polygon fill="white" stroke="#666666" points="463.88,-132 395.38,-132 395.38,-112 463.88,-112 463.88,-132"/>
<text text-anchor="middle" x="429.62" y="-118.5" font-family="Helvetica,sans-Serif" font-size="10.00">MiraiCode.h</text>
</a>
</g>
</g>
<!-- Node7&#45;&gt;Node11 -->
<g id="edge12_Node000007_Node000011" class="edge">
<title>Node7&#45;&gt;Node11</title>
<g id="a_edge12_Node000007_Node000011"><a xlink:title=" ">
<path fill="none" stroke="#63b8ff" d="M375.95,-167.59C385.27,-159.85 398.7,-148.69 409.8,-139.47"/>
<polygon fill="#63b8ff" stroke="#63b8ff" points="411.81,-142.35 417.27,-133.27 407.34,-136.96 411.81,-142.35"/>
</a>
</g>
</g>
<!-- Node12 -->
<g id="Node000012" class="node">
<title>Node12</title>
<g id="a_Node000012"><a xlink:title=" ">
<polygon fill="#e0e0e0" stroke="#999999" points="171.5,-132 133.75,-132 133.75,-112 171.5,-112 171.5,-132"/>
<text text-anchor="middle" x="152.62" y="-118.5" font-family="Helvetica,sans-Serif" font-size="10.00">array</text>
</a>
</g>
</g>
<!-- Node7&#45;&gt;Node12 -->
<g id="edge16_Node000007_Node000012" class="edge">
<title>Node7&#45;&gt;Node12</title>
<g id="a_edge16_Node000007_Node000012"><a xlink:title=" ">
<path fill="none" stroke="#63b8ff" d="M322.38,-167.57C287.36,-159.55 236.03,-147.34 182.86,-132.49"/>
<polygon fill="#63b8ff" stroke="#63b8ff" points="183.88,-129.14 173.31,-129.79 181.98,-135.87 183.88,-129.14"/>
</a>
</g>
</g>
<!-- Node13 -->
<g id="Node000013" class="node">
<title>Node13</title>
<g id="a_Node000013"><a xlink:title=" ">
<polygon fill="#e0e0e0" stroke="#999999" points="1073,-132 954.25,-132 954.25,-112 1073,-112 1073,-132"/>
<text text-anchor="middle" x="1013.62" y="-118.5" font-family="Helvetica,sans-Serif" font-size="10.00">nlohmann/json_fwd.hpp</text>
</a>
</g>
</g>
<!-- Node7&#45;&gt;Node13 -->
<g id="edge17_Node000007_Node000013" class="edge">
<title>Node7&#45;&gt;Node13</title>
<g id="a_edge17_Node000007_Node000013"><a xlink:title=" ">
<path fill="none" stroke="#63b8ff" d="M410.5,-169.19C413.58,-168.76 416.65,-168.36 419.62,-168 607.82,-145.52 830.98,-132.16 942.6,-126.39"/>
<polygon fill="#63b8ff" stroke="#63b8ff" points="942.7,-129.89 952.51,-125.88 942.34,-122.9 942.7,-129.89"/>
</a>
</g>
</g>
<!-- Node14 -->
<g id="Node000014" class="node">
<title>Node14</title>
<g id="a_Node000014"><a xlink:title=" ">
<polygon fill="#e0e0e0" stroke="#999999" points="239.5,-132 189.75,-132 189.75,-112 239.5,-112 239.5,-132"/>
<text text-anchor="middle" x="214.62" y="-118.5" font-family="Helvetica,sans-Serif" font-size="10.00">optional</text>
</a>
</g>
</g>
<!-- Node7&#45;&gt;Node14 -->
<g id="edge18_Node000007_Node000014" class="edge">
<title>Node7&#45;&gt;Node14</title>
<g id="a_edge18_Node000007_Node000014"><a xlink:title=" ">
<path fill="none" stroke="#63b8ff" d="M338.5,-167.59C314.15,-158.83 277.64,-145.68 250.55,-135.93"/>
<polygon fill="#63b8ff" stroke="#63b8ff" points="251.97,-132.73 241.38,-132.63 249.6,-139.31 251.97,-132.73"/>
</a>
</g>
</g>
<!-- Node15 -->
<g id="Node000015" class="node">
<title>Node15</title>
<g id="a_Node000015"><a xlink:title=" ">
<polygon fill="#e0e0e0" stroke="#999999" points="722.25,-132 671,-132 671,-112 722.25,-112 722.25,-132"/>
<text text-anchor="middle" x="696.62" y="-118.5" font-family="Helvetica,sans-Serif" font-size="10.00">sstream</text>
</a>
</g>
</g>
<!-- Node7&#45;&gt;Node15 -->
<g id="edge19_Node000007_Node000015" class="edge">
<title>Node7&#45;&gt;Node15</title>
<g id="a_edge19_Node000007_Node000015"><a xlink:title=" ">
<path fill="none" stroke="#63b8ff" d="M410.53,-169.45C413.61,-168.95 416.66,-168.47 419.62,-168 524.86,-151.4 551.92,-151.71 656.62,-132 657.63,-131.81 658.66,-131.61 659.69,-131.41"/>
<polygon fill="#63b8ff" stroke="#63b8ff" points="660.3,-134.86 669.38,-129.39 658.87,-128 660.3,-134.86"/>
</a>
</g>
</g>
<!-- Node16 -->
<g id="Node000016" class="node">
<title>Node16</title>
<g id="a_Node000016"><a xlink:title=" ">
<polygon fill="#e0e0e0" stroke="#999999" points="340,-132 257.25,-132 257.25,-112 340,-112 340,-132"/>
<text text-anchor="middle" x="298.62" y="-118.5" font-family="Helvetica,sans-Serif" font-size="10.00">unordered_map</text>
</a>
</g>
</g>
<!-- Node7&#45;&gt;Node16 -->
<g id="edge20_Node000007_Node000016" class="edge">
<title>Node7&#45;&gt;Node16</title>
<g id="a_edge20_Node000007_Node000016"><a xlink:title=" ">
<path fill="none" stroke="#63b8ff" d="M353.13,-167.59C343.66,-159.85 330.02,-148.69 318.75,-139.47"/>
<polygon fill="#63b8ff" stroke="#63b8ff" points="321.12,-136.88 311.16,-133.26 316.68,-142.3 321.12,-136.88"/>
</a>
</g>
</g>
<!-- Node17 -->
<g id="Node000017" class="node">
<title>Node17</title>
<g id="a_Node000017"><a xlink:title=" ">
<polygon fill="#e0e0e0" stroke="#999999" points="39.25,-132 0,-132 0,-112 39.25,-112 39.25,-132"/>
<text text-anchor="middle" x="19.62" y="-118.5" font-family="Helvetica,sans-Serif" font-size="10.00">utility</text>
</a>
</g>
</g>
<!-- Node7&#45;&gt;Node17 -->
<g id="edge21_Node000007_Node000017" class="edge">
<title>Node7&#45;&gt;Node17</title>
<g id="a_edge21_Node000007_Node000017"><a xlink:title=" ">
<path fill="none" stroke="#63b8ff" d="M318.81,-169.83C247.5,-158.67 111.81,-137.43 50.75,-127.87"/>
<polygon fill="#63b8ff" stroke="#63b8ff" points="51.5,-124.45 41.08,-126.36 50.41,-131.36 51.5,-124.45"/>
</a>
</g>
</g>
<!-- Node8&#45;&gt;Node5 -->
<g id="edge9_Node000008_Node000005" class="edge">
<title>Node8&#45;&gt;Node5</title>
<g id="a_edge9_Node000008_Node000005"><a xlink:title=" ">
<path fill="none" stroke="#63b8ff" d="M501.41,-111.59C475.2,-102.86 435.94,-89.77 406.72,-80.03"/>
<polygon fill="#63b8ff" stroke="#63b8ff" points="408.09,-76.8 397.5,-76.96 405.88,-83.44 408.09,-76.8"/>
</a>
</g>
</g>
<!-- Node8&#45;&gt;Node9 -->
<g id="edge10_Node000008_Node000009" class="edge">
<title>Node8&#45;&gt;Node9</title>
<g id="a_edge10_Node000008_Node000009"><a xlink:title=" ">
<path fill="none" stroke="#63b8ff" d="M577.3,-113.83C647.8,-103.23 778.76,-83.53 846.14,-73.39"/>
<polygon fill="#63b8ff" stroke="#63b8ff" points="846.31,-76.9 855.68,-71.96 845.27,-69.98 846.31,-76.9"/>
</a>
</g>
</g>
<!-- Node8&#45;&gt;Node10 -->
<g id="edge11_Node000008_Node000010" class="edge">
<title>Node8&#45;&gt;Node10</title>
<g id="a_edge11_Node000008_Node000010"><a xlink:title=" ">
<path fill="none" stroke="#63b8ff" d="M542.69,-111.59C553.59,-103.74 569.38,-92.38 582.28,-83.09"/>
<polygon fill="#63b8ff" stroke="#63b8ff" points="584.16,-86.05 590.23,-77.36 580.07,-80.37 584.16,-86.05"/>
</a>
</g>
</g>
<!-- Node11&#45;&gt;Node5 -->
<g id="edge14_Node000011_Node000005" class="edge">
<title>Node11&#45;&gt;Node5</title>
<g id="a_edge14_Node000011_Node000005"><a xlink:title=" ">
<path fill="none" stroke="#63b8ff" d="M418.83,-111.59C410.02,-103.93 397.37,-92.91 386.85,-83.75"/>
<polygon fill="#63b8ff" stroke="#63b8ff" points="389.28,-81.22 379.44,-77.29 384.68,-86.5 389.28,-81.22"/>
</a>
</g>
</g>
<!-- Node11&#45;&gt;Node10 -->
<g id="edge13_Node000011_Node000010" class="edge">
<title>Node11&#45;&gt;Node10</title>
<g id="a_edge13_Node000011_Node000010"><a xlink:title=" ">
<path fill="none" stroke="#63b8ff" d="M460.11,-111.59C491.85,-101.8 541.34,-86.53 573.37,-76.64"/>
<polygon fill="#63b8ff" stroke="#63b8ff" points="574.35,-80.01 582.87,-73.71 572.28,-73.32 574.35,-80.01"/>
</a>
</g>
</g>
<!-- Node21&#45;&gt;Node9 -->
<g id="edge33_Node000021_Node000009" class="edge">
<title>Node21&#45;&gt;Node9</title>
<g id="a_edge33_Node000021_Node000009"><a xlink:title=" ">
<path fill="none" stroke="#63b8ff" d="M1140.66,-335.6C1184.82,-318.74 1241.62,-286.95 1241.62,-235 1241.62,-235 1241.62,-235 1241.62,-177 1241.62,-112.75 1025.77,-81.72 931.64,-71.24"/>
<polygon fill="#63b8ff" stroke="#63b8ff" points="932.09,-67.77 921.77,-70.17 931.33,-74.73 932.09,-67.77"/>
</a>
</g>
</g>
<!-- Node22 -->
<g id="Node000022" class="node">
<title>Node22</title>
<g id="a_Node000022"><a xlink:href="a00335.html" target="_top" xlink:title=" ">
<polygon fill="white" stroke="#666666" points="1156.25,-300 1087,-300 1087,-280 1156.25,-280 1156.25,-300"/>
<text text-anchor="middle" x="1121.62" y="-286.5" font-family="Helvetica,sans-Serif" font-size="10.00">IMiraiData.h</text>
</a>
</g>
</g>
<!-- Node21&#45;&gt;Node22 -->
<g id="edge29_Node000021_Node000022" class="edge">
<title>Node21&#45;&gt;Node22</title>
<g id="a_edge29_Node000021_Node000022"><a xlink:title=" ">
<path fill="none" stroke="#63b8ff" d="M1097.87,-335.55C1101.94,-327.91 1106.9,-318.61 1111.23,-310.49"/>
<polygon fill="#63b8ff" stroke="#63b8ff" points="1114.28,-312.21 1115.9,-301.74 1108.1,-308.92 1114.28,-312.21"/>
</a>
</g>
</g>
<!-- Node22&#45;&gt;Node13 -->
<g id="edge30_Node000022_Node000013" class="edge">
<title>Node22&#45;&gt;Node13</title>
<g id="a_edge30_Node000022_Node000013"><a xlink:title=" ">
<path fill="none" stroke="#63b8ff" d="M1105.21,-279.58C1092.42,-271.52 1074.98,-258.9 1063.62,-244 1057.18,-235.55 1033.46,-174.86 1021.15,-142.77"/>
<polygon fill="#63b8ff" stroke="#63b8ff" points="1024.57,-141.9 1017.73,-133.81 1018.03,-144.4 1024.57,-141.9"/>
</a>
</g>
</g>
<!-- Node22&#45;&gt;Node23 -->
<g id="edge31_Node000022_Node000023" class="edge">
<title>Node22&#45;&gt;Node23</title>
<g id="a_edge31_Node000022_Node000023"><a xlink:title=" ">
<path fill="none" stroke="#63b8ff" d="M1133.64,-279.59C1143.64,-271.77 1158.09,-260.46 1169.93,-251.19"/>
<polygon fill="#63b8ff" stroke="#63b8ff" points="1171.83,-254.15 1177.55,-245.23 1167.52,-248.64 1171.83,-254.15"/>
</a>
</g>
</g>
<!-- Node24 -->
<g id="Node000024" class="node">
<title>Node24</title>
<g id="a_Node000024"><a xlink:title=" ">
<polygon fill="#e0e0e0" stroke="#999999" points="1150.38,-244 1072.88,-244 1072.88,-224 1150.38,-224 1150.38,-244"/>
<text text-anchor="middle" x="1111.62" y="-230.5" font-family="Helvetica,sans-Serif" font-size="10.00">shared_mutex</text>
</a>
</g>
</g>
<!-- Node22&#45;&gt;Node24 -->
<g id="edge32_Node000022_Node000024" class="edge">
<title>Node22&#45;&gt;Node24</title>
<g id="a_edge32_Node000022_Node000024"><a xlink:title=" ">
<path fill="none" stroke="#63b8ff" d="M1119.88,-279.59C1118.65,-272.93 1116.95,-263.75 1115.41,-255.44"/>
<polygon fill="#63b8ff" stroke="#63b8ff" points="1118.88,-254.98 1113.62,-245.79 1112,-256.26 1118.88,-254.98"/>
</a>
</g>
</g>
<!-- Node25&#45;&gt;Node3 -->
<g id="edge35_Node000025_Node000003" class="edge">
<title>Node25&#45;&gt;Node3</title>
<g id="a_edge35_Node000025_Node000003"><a xlink:title=" ">
<path fill="none" stroke="#63b8ff" d="M714.69,-341.62C704.04,-332.5 687.64,-318.45 674.83,-307.46"/>
<polygon fill="#63b8ff" stroke="#63b8ff" points="677.28,-304.95 667.41,-301.1 672.72,-310.26 677.28,-304.95"/>
</a>
</g>
</g>
<!-- Node26&#45;&gt;Node3 -->
<g id="edge37_Node000026_Node000003" class="edge">
<title>Node26&#45;&gt;Node3</title>
<g id="a_edge37_Node000026_Node000003"><a xlink:title=" ">
<path fill="none" stroke="#63b8ff" d="M656.47,-341.62C656.33,-333.56 656.14,-321.65 655.97,-311.41"/>
<polygon fill="#63b8ff" stroke="#63b8ff" points="659.47,-311.57 655.8,-301.63 652.47,-311.68 659.47,-311.57"/>
</a>
</g>
</g>
<!-- Node26&#45;&gt;Node13 -->
<g id="edge38_Node000026_Node000013" class="edge">
<title>Node26&#45;&gt;Node13</title>
<g id="a_edge38_Node000026_Node000013"><a xlink:title=" ">
<path fill="none" stroke="#63b8ff" d="M671.06,-341.78C725.78,-306.83 920.77,-182.3 989.46,-138.43"/>
<polygon fill="#63b8ff" stroke="#63b8ff" points="991.19,-141.48 997.73,-133.15 987.42,-135.58 991.19,-141.48"/>
</a>
</g>
</g>
<!-- Node26&#45;&gt;Node17 -->
<g id="edge39_Node000026_Node000017" class="edge">
<title>Node26&#45;&gt;Node17</title>
<g id="a_edge39_Node000026_Node000017"><a xlink:title=" ">
<path fill="none" stroke="#63b8ff" d="M631.08,-344.28C555.94,-324.19 329.62,-261.43 149.62,-188 112.87,-173 72.19,-151.89 46.3,-137.84"/>
<polygon fill="#63b8ff" stroke="#63b8ff" points="48.26,-134.93 37.81,-133.2 44.9,-141.07 48.26,-134.93"/>
</a>
</g>
</g>
<!-- Node27&#45;&gt;Node13 -->
<g id="edge41_Node000027_Node000013" class="edge">
<title>Node27&#45;&gt;Node13</title>
<g id="a_edge41_Node000027_Node000013"><a xlink:title=" ">
<path fill="none" stroke="#63b8ff" d="M935.33,-279.6C948.51,-253.23 986.03,-178.19 1003.92,-142.42"/>
<polygon fill="#63b8ff" stroke="#63b8ff" points="1006.96,-144.16 1008.3,-133.65 1000.7,-141.03 1006.96,-144.16"/>
</a>
</g>
</g>
<!-- Node28&#45;&gt;Node13 -->
<g id="edge43_Node000028_Node000013" class="edge">
<title>Node28&#45;&gt;Node13</title>
<g id="a_edge43_Node000028_Node000013"><a xlink:title=" ">
<path fill="none" stroke="#63b8ff" d="M1026.83,-279.6C1024.63,-253.46 1018.39,-179.48 1015.34,-143.36"/>
<polygon fill="#63b8ff" stroke="#63b8ff" points="1018.86,-143.48 1014.54,-133.81 1011.89,-144.06 1018.86,-143.48"/>
</a>
</g>
</g>
<!-- Node29&#45;&gt;Node5 -->
<g id="edge45_Node000029_Node000005" class="edge">
<title>Node29&#45;&gt;Node5</title>
<g id="a_edge45_Node000029_Node000005"><a xlink:title=" ">
<path fill="none" stroke="#63b8ff" d="M816.4,-176.16C727.11,-172.88 419.92,-159.63 386.62,-132 373.75,-121.32 369.32,-102.42 367.92,-87.75"/>
<polygon fill="#63b8ff" stroke="#63b8ff" points="371.42,-87.58 367.41,-77.77 364.42,-87.93 371.42,-87.58"/>
</a>
</g>
</g>
<!-- Node29&#45;&gt;Node9 -->
<g id="edge46_Node000029_Node000009" class="edge">
<title>Node29&#45;&gt;Node9</title>
<g id="a_edge46_Node000029_Node000009"><a xlink:title=" ">
<path fill="none" stroke="#63b8ff" d="M846.16,-167.53C851.29,-158.56 858.97,-144.6 864.62,-132 871.26,-117.21 877.56,-99.98 882.04,-86.98"/>
<polygon fill="#63b8ff" stroke="#63b8ff" points="885.24,-88.45 885.11,-77.85 878.61,-86.21 885.24,-88.45"/>
</a>
</g>
</g>
<!-- Node29&#45;&gt;Node10 -->
<g id="edge49_Node000029_Node000010" class="edge">
<title>Node29&#45;&gt;Node10</title>
<g id="a_edge49_Node000029_Node000010"><a xlink:title=" ">
<path fill="none" stroke="#63b8ff" d="M842.2,-167.61C843.99,-153.53 844.99,-127.01 830.62,-112 804.27,-84.47 691.97,-72.99 636.25,-68.92"/>
<polygon fill="#63b8ff" stroke="#63b8ff" points="636.68,-65.44 626.46,-68.25 636.2,-72.43 636.68,-65.44"/>
</a>
</g>
</g>
<!-- Node29&#45;&gt;Node13 -->
<g id="edge47_Node000029_Node000013" class="edge">
<title>Node29&#45;&gt;Node13</title>
<g id="a_edge47_Node000029_Node000013"><a xlink:title=" ">
<path fill="none" stroke="#63b8ff" d="M864.68,-169.49C892.54,-160.8 938.91,-146.32 972.52,-135.83"/>
<polygon fill="#63b8ff" stroke="#63b8ff" points="973.43,-139.21 981.93,-132.89 971.35,-132.53 973.43,-139.21"/>
</a>
</g>
</g>
<!-- Node29&#45;&gt;Node15 -->
<g id="edge48_Node000029_Node000015" class="edge">
<title>Node29&#45;&gt;Node15</title>
<g id="a_edge48_Node000029_Node000015"><a xlink:title=" ">
<path fill="none" stroke="#63b8ff" d="M816.52,-167.96C793.54,-159.34 758.65,-146.26 732.43,-136.43"/>
<polygon fill="#63b8ff" stroke="#63b8ff" points="733.78,-133.2 723.19,-132.96 731.33,-139.75 733.78,-133.2"/>
</a>
</g>
</g>
<!-- Node29&#45;&gt;Node20 -->
<g id="edge50_Node000029_Node000020" class="edge">
<title>Node29&#45;&gt;Node20</title>
<g id="a_edge50_Node000029_Node000020"><a xlink:title=" ">
<path fill="none" stroke="#63b8ff" d="M833.66,-167.59C828.32,-160.39 820.8,-150.23 814.28,-141.43"/>
<polygon fill="#63b8ff" stroke="#63b8ff" points="817.18,-139.47 808.41,-133.51 811.55,-143.63 817.18,-139.47"/>
</a>
</g>
</g>
</g>
</svg>
