<?xml version="1.0" encoding="UTF-8" standalone="no"?>
<!DOCTYPE svg PUBLIC "-//W3C//DTD SVG 1.1//EN"
 "http://www.w3.org/Graphics/SVG/1.1/DTD/svg11.dtd">
<!-- Generated by graphviz version 9.0.0 (0)
 -->
<!-- Title: MiraiCP::Contact::unpackMsg Pages: 1 -->
<svg width="1860pt" height="220pt"
 viewBox="0.00 0.00 1859.75 220.17" xmlns="http://www.w3.org/2000/svg" xmlns:xlink="http://www.w3.org/1999/xlink">
<g id="graph0" class="graph" transform="scale(1 1) rotate(0) translate(4 216.17)">
<title>MiraiCP::Contact::unpackMsg</title>
<!-- Node1 -->
<g id="Node000001" class="node">
<title>Node1</title>
<g id="a_Node000001"><a xlink:title=" ">
<polygon fill="#999999" stroke="#666666" points="148,-99.17 0,-99.17 0,-79.17 148,-79.17 148,-99.17"/>
<text text-anchor="middle" x="74" y="-85.67" font-family="Helvetica,sans-Serif" font-size="10.00">MiraiCP::Contact::unpackMsg</text>
</a>
</g>
</g>
<!-- Node2 -->
<g id="Node000002" class="node">
<title>Node2</title>
<g id="a_Node000002"><a xlink:href="a00460.html#aa448a5ef12e3572c0cf751a3f37f7519" target="_top" xlink:title=" ">
<polygon fill="white" stroke="#666666" points="340.25,-132.17 184,-132.17 184,-112.17 340.25,-112.17 340.25,-132.17"/>
<text text-anchor="middle" x="262.12" y="-118.67" font-family="Helvetica,sans-Serif" font-size="10.00">MiraiCP::Contact::sendMsgImpl</text>
</a>
</g>
</g>
<!-- Node1&#45;&gt;Node2 -->
<g id="edge1_Node000001_Node000002" class="edge">
<title>Node1&#45;&gt;Node2</title>
<g id="a_edge1_Node000001_Node000002"><a xlink:title=" ">
<path fill="none" stroke="#63b8ff" d="M134.15,-99.65C152.21,-102.86 172.26,-106.41 190.98,-109.73"/>
<polygon fill="#63b8ff" stroke="#63b8ff" points="190.18,-113.14 200.64,-111.44 191.41,-106.25 190.18,-113.14"/>
</a>
</g>
</g>
<!-- Node18 -->
<g id="Node000018" class="node">
<title>Node18</title>
<g id="a_Node000018"><a xlink:href="a00652.html#a281c3d583cd554e89ad2aa2286435bca" target="_top" xlink:title=" ">
<polygon fill="white" stroke="#666666" points="323.38,-83.17 200.88,-83.17 200.88,-51.17 323.38,-51.17 323.38,-83.17"/>
<text text-anchor="start" x="208.88" y="-69.67" font-family="Helvetica,sans-Serif" font-size="10.00">MiraiCP::MessageChain</text>
<text text-anchor="middle" x="262.12" y="-57.67" font-family="Helvetica,sans-Serif" font-size="10.00">::toString</text>
</a>
</g>
</g>
<!-- Node1&#45;&gt;Node18 -->
<g id="edge21_Node000001_Node000018" class="edge">
<title>Node1&#45;&gt;Node18</title>
<g id="a_edge21_Node000001_Node000018"><a xlink:title=" ">
<path fill="none" stroke="#63b8ff" d="M148.29,-80.5C161.81,-78.91 175.9,-77.24 189.36,-75.65"/>
<polygon fill="#63b8ff" stroke="#63b8ff" points="189.48,-79.16 199,-74.51 188.65,-72.21 189.48,-79.16"/>
</a>
</g>
</g>
<!-- Node3 -->
<g id="Node000003" class="node">
<title>Node3</title>
<g id="a_Node000003"><a xlink:href="a00656.html#a1f98db6bbdf6b7d178bf92f55fd2e4dc" target="_top" xlink:title="从json字符串反序列化到MessageSource对象">
<polygon fill="white" stroke="#666666" points="504,-199.17 376.25,-199.17 376.25,-167.17 504,-167.17 504,-199.17"/>
<text text-anchor="start" x="384.25" y="-185.67" font-family="Helvetica,sans-Serif" font-size="10.00">MiraiCP::MessageSource</text>
<text text-anchor="middle" x="440.12" y="-173.67" font-family="Helvetica,sans-Serif" font-size="10.00">::deserializeFromString</text>
</a>
</g>
</g>
<!-- Node2&#45;&gt;Node3 -->
<g id="edge2_Node000002_Node000003" class="edge">
<title>Node2&#45;&gt;Node3</title>
<g id="a_edge2_Node000002_Node000003"><a xlink:title=" ">
<path fill="none" stroke="#63b8ff" d="M293.38,-132.65C317.45,-141 351.84,-152.92 381.18,-163.08"/>
<polygon fill="#63b8ff" stroke="#63b8ff" points="379.7,-166.28 390.29,-166.24 381.99,-159.66 379.7,-166.28"/>
</a>
</g>
</g>
<!-- Node5 -->
<g id="Node000005" class="node">
<title>Node5</title>
<g id="a_Node000005"><a xlink:href="a00435.html#a309e8d7f316e8b5e947ea3bcddeb84a8" target="_top" xlink:title="调用 Mirai 操作">
<polygon fill="white" stroke="#666666" points="494.62,-149.17 385.62,-149.17 385.62,-117.17 494.62,-117.17 494.62,-149.17"/>
<text text-anchor="start" x="393.62" y="-135.67" font-family="Helvetica,sans-Serif" font-size="10.00">MiraiCP::KtOperation</text>
<text text-anchor="middle" x="440.12" y="-123.67" font-family="Helvetica,sans-Serif" font-size="10.00">::ktOperation</text>
</a>
</g>
</g>
<!-- Node2&#45;&gt;Node5 -->
<g id="edge4_Node000002_Node000005" class="edge">
<title>Node2&#45;&gt;Node5</title>
<g id="a_edge4_Node000002_Node000005"><a xlink:title=" ">
<path fill="none" stroke="#63b8ff" d="M340.58,-127.01C351.62,-127.7 362.88,-128.4 373.66,-129.08"/>
<polygon fill="#63b8ff" stroke="#63b8ff" points="373.43,-132.57 383.63,-129.7 373.86,-125.58 373.43,-132.57"/>
</a>
</g>
</g>
<!-- Node17 -->
<g id="Node000017" class="node">
<title>Node17</title>
<g id="a_Node000017"><a xlink:href="a00460.html#a89fb588a12ff2d4de10722788945ea55" target="_top" xlink:title="序列化到json对象">
<polygon fill="white" stroke="#666666" points="503.62,-99.17 376.62,-99.17 376.62,-79.17 503.62,-79.17 503.62,-99.17"/>
<text text-anchor="middle" x="440.12" y="-85.67" font-family="Helvetica,sans-Serif" font-size="10.00">MiraiCP::Contact::toJson</text>
</a>
</g>
</g>
<!-- Node2&#45;&gt;Node17 -->
<g id="edge20_Node000002_Node000017" class="edge">
<title>Node2&#45;&gt;Node17</title>
<g id="a_edge20_Node000002_Node000017"><a xlink:title=" ">
<path fill="none" stroke="#63b8ff" d="M318.81,-111.73C335.75,-108.55 354.53,-105.03 372.13,-101.73"/>
<polygon fill="#63b8ff" stroke="#63b8ff" points="372.52,-105.22 381.71,-99.93 371.23,-98.34 372.52,-105.22"/>
</a>
</g>
</g>
<!-- Node4 -->
<g id="Node000004" class="node">
<title>Node4</title>
<g id="a_Node000004"><a xlink:href="a00628.html#af14d39efa300da183070784bc86d3f23" target="_top" xlink:title="发送错误(error级日志)">
<polygon fill="white" stroke="#666666" points="669.25,-199.17 540,-199.17 540,-167.17 669.25,-167.17 669.25,-199.17"/>
<text text-anchor="start" x="548" y="-185.67" font-family="Helvetica,sans-Serif" font-size="10.00">MiraiCP::Logger_interface</text>
<text text-anchor="middle" x="604.62" y="-173.67" font-family="Helvetica,sans-Serif" font-size="10.00">::error</text>
</a>
</g>
</g>
<!-- Node3&#45;&gt;Node4 -->
<g id="edge3_Node000003_Node000004" class="edge">
<title>Node3&#45;&gt;Node4</title>
<g id="a_edge3_Node000003_Node000004"><a xlink:title=" ">
<path fill="none" stroke="#63b8ff" d="M504.42,-183.17C512.29,-183.17 520.4,-183.17 528.43,-183.17"/>
<polygon fill="#63b8ff" stroke="#63b8ff" points="528.19,-186.67 538.19,-183.17 528.19,-179.67 528.19,-186.67"/>
</a>
</g>
</g>
<!-- Node6 -->
<g id="Node000006" class="node">
<title>Node6</title>
<g id="a_Node000006"><a xlink:href="a00435.html#a1e1e498928eeaa1d7107033ff5fa881a" target="_top" xlink:title="调用 Mirai 操作">
<polygon fill="white" stroke="#666666" points="659.12,-149.17 550.12,-149.17 550.12,-117.17 659.12,-117.17 659.12,-149.17"/>
<text text-anchor="start" x="558.12" y="-135.67" font-family="Helvetica,sans-Serif" font-size="10.00">MiraiCP::KtOperation</text>
<text text-anchor="middle" x="604.62" y="-123.67" font-family="Helvetica,sans-Serif" font-size="10.00">::ktOperationStr</text>
</a>
</g>
</g>
<!-- Node5&#45;&gt;Node6 -->
<g id="edge5_Node000005_Node000006" class="edge">
<title>Node5&#45;&gt;Node6</title>
<g id="a_edge5_Node000005_Node000006"><a xlink:title=" ">
<path fill="none" stroke="#63b8ff" d="M494.78,-133.17C508.72,-133.17 523.88,-133.17 538.34,-133.17"/>
<polygon fill="#63b8ff" stroke="#63b8ff" points="538.23,-136.67 548.23,-133.17 538.23,-129.67 538.23,-136.67"/>
</a>
</g>
</g>
<!-- Node7 -->
<g id="Node000007" class="node">
<title>Node7</title>
<g id="a_Node000007"><a xlink:href="a00426.html#a4c6ac4cf4ba5ff0adb7656708bbb67d0" target="_top" xlink:title="interfaces for plugins">
<polygon fill="white" stroke="#666666" points="812.75,-149.17 705.25,-149.17 705.25,-117.17 812.75,-117.17 812.75,-149.17"/>
<text text-anchor="start" x="713.25" y="-135.67" font-family="Helvetica,sans-Serif" font-size="10.00">LibLoader::LoaderApi</text>
<text text-anchor="middle" x="759" y="-123.67" font-family="Helvetica,sans-Serif" font-size="10.00">::pluginOperation</text>
</a>
</g>
</g>
<!-- Node6&#45;&gt;Node7 -->
<g id="edge6_Node000006_Node000007" class="edge">
<title>Node6&#45;&gt;Node7</title>
<g id="a_edge6_Node000006_Node000007"><a xlink:title=" ">
<path fill="none" stroke="#63b8ff" d="M659.35,-133.17C670.4,-133.17 682.15,-133.17 693.53,-133.17"/>
<polygon fill="#63b8ff" stroke="#63b8ff" points="693.25,-136.67 703.25,-133.17 693.25,-129.67 693.25,-136.67"/>
</a>
</g>
</g>
<!-- Node8 -->
<g id="Node000008" class="node">
<title>Node8</title>
<g id="a_Node000008"><a xlink:href="a00780.html#acc90fdac094544c4ddd9d6fd13baa5da" target="_top" xlink:title=" ">
<polygon fill="white" stroke="#666666" points="987,-212.17 848.75,-212.17 848.75,-180.17 987,-180.17 987,-212.17"/>
<text text-anchor="start" x="856.75" y="-198.67" font-family="Helvetica,sans-Serif" font-size="10.00">MiraiCP::MiraiCPStringview</text>
<text text-anchor="middle" x="917.88" y="-186.67" font-family="Helvetica,sans-Serif" font-size="10.00">::c_str</text>
</a>
</g>
</g>
<!-- Node7&#45;&gt;Node8 -->
<g id="edge7_Node000007_Node000008" class="edge">
<title>Node7&#45;&gt;Node8</title>
<g id="a_edge7_Node000007_Node000008"><a xlink:title=" ">
<path fill="none" stroke="#63b8ff" d="M800.81,-149.56C820.52,-157.47 844.39,-167.06 865.34,-175.47"/>
<polygon fill="#63b8ff" stroke="#63b8ff" points="864.01,-178.71 874.6,-179.19 866.62,-172.21 864.01,-178.71"/>
</a>
</g>
</g>
<!-- Node9 -->
<g id="Node000009" class="node">
<title>Node9</title>
<g id="a_Node000009"><a xlink:href="a00840.html#aea7d58ff9f04d6d4849c25a2506603a5" target="_top" xlink:title="取env,如果不存在重新获取">
<polygon fill="white" stroke="#666666" points="1601.5,-124.17 1478.25,-124.17 1478.25,-104.17 1601.5,-104.17 1601.5,-124.17"/>
<text text-anchor="middle" x="1539.88" y="-110.67" font-family="Helvetica,sans-Serif" font-size="10.00">JNIEnvManager::getEnv</text>
</a>
</g>
</g>
<!-- Node7&#45;&gt;Node9 -->
<g id="edge8_Node000007_Node000009" class="edge">
<title>Node7&#45;&gt;Node9</title>
<g id="a_edge8_Node000007_Node000009"><a xlink:title=" ">
<path fill="none" stroke="#63b8ff" d="M813.14,-138.21C877.15,-143.84 987.96,-152.17 1083.25,-152.17 1083.25,-152.17 1083.25,-152.17 1243.75,-152.17 1325.04,-152.17 1417.9,-137.81 1477.4,-126.75"/>
<polygon fill="#63b8ff" stroke="#63b8ff" points="1477.81,-130.23 1486.99,-124.93 1476.51,-123.35 1477.81,-130.23"/>
</a>
</g>
</g>
<!-- Node12 -->
<g id="Node000012" class="node">
<title>Node12</title>
<g id="a_Node000012"><a xlink:href="a00425.html#aa5f8d0ecd9dd392b491070aace643ae3" target="_top" xlink:title=" ">
<polygon fill="white" stroke="#666666" points="1137.62,-124.17 1030.88,-124.17 1030.88,-104.17 1137.62,-104.17 1137.62,-124.17"/>
<text text-anchor="middle" x="1084.25" y="-110.67" font-family="Helvetica,sans-Serif" font-size="10.00">LibLoader::jstring2str</text>
</a>
</g>
</g>
<!-- Node7&#45;&gt;Node12 -->
<g id="edge11_Node000007_Node000012" class="edge">
<title>Node7&#45;&gt;Node12</title>
<g id="a_edge11_Node000007_Node000012"><a xlink:title=" ">
<path fill="none" stroke="#63b8ff" d="M813.02,-130.05C869.47,-126.73 958.83,-121.48 1019.18,-117.93"/>
<polygon fill="#63b8ff" stroke="#63b8ff" points="1019.19,-121.44 1028.96,-117.36 1018.77,-114.45 1019.19,-121.44"/>
</a>
</g>
</g>
<!-- Node14 -->
<g id="Node000014" class="node">
<title>Node14</title>
<g id="a_Node000014"><a xlink:href="a00425.html#a6a6fcd695791253a9b3a053d313b2b93" target="_top" xlink:title=" ">
<polygon fill="white" stroke="#666666" points="971.25,-64.17 864.5,-64.17 864.5,-44.17 971.25,-44.17 971.25,-64.17"/>
<text text-anchor="middle" x="917.88" y="-50.67" font-family="Helvetica,sans-Serif" font-size="10.00">LibLoader::str2jstring</text>
</a>
</g>
</g>
<!-- Node7&#45;&gt;Node14 -->
<g id="edge14_Node000007_Node000014" class="edge">
<title>Node7&#45;&gt;Node14</title>
<g id="a_edge14_Node000007_Node000014"><a xlink:title=" ">
<path fill="none" stroke="#63b8ff" d="M792.5,-116.8C820.08,-102.91 859.34,-83.14 886.34,-69.55"/>
<polygon fill="#63b8ff" stroke="#63b8ff" points="887.67,-72.79 895.03,-65.17 884.52,-66.54 887.67,-72.79"/>
</a>
</g>
</g>
<!-- Node10 -->
<g id="Node000010" class="node">
<title>Node10</title>
<g id="a_Node000010"><a xlink:href="a00260.html#a3d31403b7971274d47d308245206bd24" target="_top" xlink:title="为当前线程创建一个env.">
<polygon fill="white" stroke="#666666" points="1688.75,-124.17 1637.5,-124.17 1637.5,-104.17 1688.75,-104.17 1688.75,-124.17"/>
<text text-anchor="middle" x="1663.12" y="-110.67" font-family="Helvetica,sans-Serif" font-size="10.00">newEnv</text>
</a>
</g>
</g>
<!-- Node9&#45;&gt;Node10 -->
<g id="edge9_Node000009_Node000010" class="edge">
<title>Node9&#45;&gt;Node10</title>
<g id="a_edge9_Node000009_Node000010"><a xlink:title=" ">
<path fill="none" stroke="#63b8ff" d="M1601.86,-114.17C1610.06,-114.17 1618.26,-114.17 1625.84,-114.17"/>
<polygon fill="#63b8ff" stroke="#63b8ff" points="1625.66,-117.67 1635.66,-114.17 1625.66,-110.67 1625.66,-117.67"/>
</a>
</g>
</g>
<!-- Node11 -->
<g id="Node000011" class="node">
<title>Node11</title>
<g id="a_Node000011"><a xlink:href="a00840.html#ae0e482c6a813848a8f5d34957d1b6307" target="_top" xlink:title="获取全局JavaVM对象.">
<polygon fill="white" stroke="#666666" points="1851.75,-124.17 1724.75,-124.17 1724.75,-104.17 1851.75,-104.17 1851.75,-124.17"/>
<text text-anchor="middle" x="1788.25" y="-110.67" font-family="Helvetica,sans-Serif" font-size="10.00">JNIEnvManager::getGvm</text>
</a>
</g>
</g>
<!-- Node10&#45;&gt;Node11 -->
<g id="edge10_Node000010_Node000011" class="edge">
<title>Node10&#45;&gt;Node11</title>
<g id="a_edge10_Node000010_Node000011"><a xlink:title=" ">
<path fill="none" stroke="#63b8ff" d="M1689.04,-114.17C1696.22,-114.17 1704.45,-114.17 1713.02,-114.17"/>
<polygon fill="#63b8ff" stroke="#63b8ff" points="1712.91,-117.67 1722.91,-114.17 1712.91,-110.67 1712.91,-117.67"/>
</a>
</g>
</g>
<!-- Node13 -->
<g id="Node000013" class="node">
<title>Node13</title>
<g id="a_Node000013"><a xlink:href="a00430.html#a076c5f4ff8083c7cfc6523498d0ba30f" target="_top" xlink:title=" ">
<polygon fill="white" stroke="#666666" points="1442.25,-108.17 1340,-108.17 1340,-76.17 1442.25,-76.17 1442.25,-108.17"/>
<text text-anchor="start" x="1348" y="-94.67" font-family="Helvetica,sans-Serif" font-size="10.00">LibLoader::JNIEnvs</text>
<text text-anchor="middle" x="1391.12" y="-82.67" font-family="Helvetica,sans-Serif" font-size="10.00">::getEnv</text>
</a>
</g>
</g>
<!-- Node12&#45;&gt;Node13 -->
<g id="edge12_Node000012_Node000013" class="edge">
<title>Node12&#45;&gt;Node13</title>
<g id="a_edge12_Node000012_Node000013"><a xlink:title=" ">
<path fill="none" stroke="#63b8ff" d="M1138.01,-110.36C1190.94,-106.54 1272.44,-100.66 1328.36,-96.63"/>
<polygon fill="#63b8ff" stroke="#63b8ff" points="1328.3,-100.14 1338.02,-95.93 1327.8,-93.16 1328.3,-100.14"/>
</a>
</g>
</g>
<!-- Node13&#45;&gt;Node9 -->
<g id="edge13_Node000013_Node000009" class="edge">
<title>Node13&#45;&gt;Node9</title>
<g id="a_edge13_Node000013_Node000009"><a xlink:title=" ">
<path fill="none" stroke="#63b8ff" d="M1442.63,-99.74C1450.35,-100.9 1458.44,-102.11 1466.52,-103.32"/>
<polygon fill="#63b8ff" stroke="#63b8ff" points="1465.99,-106.78 1476.4,-104.8 1467.03,-99.86 1465.99,-106.78"/>
</a>
</g>
</g>
<!-- Node14&#45;&gt;Node13 -->
<g id="edge15_Node000014_Node000013" class="edge">
<title>Node14&#45;&gt;Node13</title>
<g id="a_edge15_Node000014_Node000013"><a xlink:title=" ">
<path fill="none" stroke="#63b8ff" d="M971.56,-58.42C1059.29,-65.49 1234.87,-79.65 1328.31,-87.18"/>
<polygon fill="#63b8ff" stroke="#63b8ff" points="1327.8,-90.65 1338.05,-87.97 1328.37,-83.68 1327.8,-90.65"/>
</a>
</g>
</g>
<!-- Node15 -->
<g id="Node000015" class="node">
<title>Node15</title>
<g id="a_Node000015"><a xlink:href="a00872.html#af50d0545fe7d683e54fcd03453a423e3" target="_top" xlink:title=" ">
<polygon fill="white" stroke="#666666" points="1145.5,-48.17 1023,-48.17 1023,-16.17 1145.5,-16.17 1145.5,-48.17"/>
<text text-anchor="start" x="1031" y="-34.67" font-family="Helvetica,sans-Serif" font-size="10.00">LibLoader::LoaderLogger</text>
<text text-anchor="middle" x="1084.25" y="-22.67" font-family="Helvetica,sans-Serif" font-size="10.00">::warning</text>
</a>
</g>
</g>
<!-- Node14&#45;&gt;Node15 -->
<g id="edge16_Node000014_Node000015" class="edge">
<title>Node14&#45;&gt;Node15</title>
<g id="a_edge16_Node000014_Node000015"><a xlink:title=" ">
<path fill="none" stroke="#63b8ff" d="M971.34,-47.15C984.11,-45.44 997.99,-43.58 1011.49,-41.77"/>
<polygon fill="#63b8ff" stroke="#63b8ff" points="1011.75,-45.27 1021.2,-40.47 1010.83,-38.33 1011.75,-45.27"/>
</a>
</g>
</g>
<!-- Node16 -->
<g id="Node000016" class="node">
<title>Node16</title>
<g id="a_Node000016"><a xlink:href="a00872.html#af4d7d5164450e25f7401d1cc15f15b8d" target="_top" xlink:title="实际暴露的接口">
<polygon fill="white" stroke="#666666" points="1304,-48.17 1181.5,-48.17 1181.5,-16.17 1304,-16.17 1304,-48.17"/>
<text text-anchor="start" x="1189.5" y="-34.67" font-family="Helvetica,sans-Serif" font-size="10.00">LibLoader::LoaderLogger</text>
<text text-anchor="middle" x="1242.75" y="-22.67" font-family="Helvetica,sans-Serif" font-size="10.00">::call_logger</text>
</a>
</g>
</g>
<!-- Node15&#45;&gt;Node16 -->
<g id="edge17_Node000015_Node000016" class="edge">
<title>Node15&#45;&gt;Node16</title>
<g id="a_edge17_Node000015_Node000016"><a xlink:title=" ">
<path fill="none" stroke="#63b8ff" d="M1145.76,-32.17C1153.65,-32.17 1161.8,-32.17 1169.85,-32.17"/>
<polygon fill="#63b8ff" stroke="#63b8ff" points="1169.63,-35.67 1179.63,-32.17 1169.63,-28.67 1169.63,-35.67"/>
</a>
</g>
</g>
<!-- Node16&#45;&gt;Node13 -->
<g id="edge18_Node000016_Node000013" class="edge">
<title>Node16&#45;&gt;Node13</title>
<g id="a_edge18_Node000016_Node000013"><a xlink:title=" ">
<path fill="none" stroke="#63b8ff" d="M1283.75,-48.56C1300.94,-55.61 1321.24,-63.93 1339.47,-71.4"/>
<polygon fill="#63b8ff" stroke="#63b8ff" points="1337.94,-74.56 1348.52,-75.11 1340.6,-68.08 1337.94,-74.56"/>
</a>
</g>
</g>
<!-- Node16&#45;&gt;Node14 -->
<g id="edge19_Node000016_Node000014" class="edge">
<title>Node16&#45;&gt;Node14</title>
<g id="a_edge19_Node000016_Node000014"><a xlink:title=" ">
<path fill="none" stroke="#63b8ff" d="M1188.26,-15.71C1174.46,-12.17 1159.54,-8.96 1145.5,-7.17 1091.49,-0.27 1076.23,4.29 1023,-7.17 995.26,-13.14 966.01,-27.11 945.59,-38.28"/>
<polygon fill="#63b8ff" stroke="#63b8ff" points="944.09,-35.11 937.1,-43.07 947.53,-41.21 944.09,-35.11"/>
</a>
</g>
</g>
<!-- Node19 -->
<g id="Node000019" class="node">
<title>Node19</title>
<g id="a_Node000019"><a xlink:href="a00652.html#a49c9f029880bf1948cdf22cee341a09a" target="_top" xlink:title=" ">
<polygon fill="white" stroke="#666666" points="501.38,-61.17 378.88,-61.17 378.88,-29.17 501.38,-29.17 501.38,-61.17"/>
<text text-anchor="start" x="386.88" y="-47.67" font-family="Helvetica,sans-Serif" font-size="10.00">MiraiCP::MessageChain</text>
<text text-anchor="middle" x="440.12" y="-35.67" font-family="Helvetica,sans-Serif" font-size="10.00">::toJson</text>
</a>
</g>
</g>
<!-- Node18&#45;&gt;Node19 -->
<g id="edge22_Node000018_Node000019" class="edge">
<title>Node18&#45;&gt;Node19</title>
<g id="a_edge22_Node000018_Node000019"><a xlink:title=" ">
<path fill="none" stroke="#63b8ff" d="M323.69,-59.6C337.66,-57.85 352.65,-55.98 367.05,-54.18"/>
<polygon fill="#63b8ff" stroke="#63b8ff" points="367.45,-57.65 376.94,-52.94 366.59,-50.71 367.45,-57.65"/>
</a>
</g>
</g>
</g>
</svg>
