<?xml version="1.0" encoding="UTF-8" standalone="no"?>
<!DOCTYPE svg PUBLIC "-//W3C//DTD SVG 1.1//EN"
 "http://www.w3.org/Graphics/SVG/1.1/DTD/svg11.dtd">
<!-- Generated by graphviz version 2.50.0 (20211204.2007)
 -->
<!-- Title: MiraiCP::Event::eventNode Pages: 1 -->
<svg width="259pt" height="535pt"
 viewBox="0.00 0.00 259.00 535.00" xmlns="http://www.w3.org/2000/svg" xmlns:xlink="http://www.w3.org/1999/xlink">
<g id="graph0" class="graph" transform="scale(1 1) rotate(0) translate(4 531)">
<title>MiraiCP::Event::eventNode</title>
<polygon fill="white" stroke="transparent" points="-4,4 -4,-531 255,-531 255,4 -4,4"/>
<!-- Node1 -->
<g id="node1" class="node">
<title>Node1</title>
<g id="a_node1"><a xlink:title=" ">
<polygon fill="#bfbfbf" stroke="black" points="0,-0.5 0,-112.5 137,-112.5 137,-0.5 0,-0.5"/>
<text text-anchor="middle" x="68.5" y="-100.5" font-family="Helvetica,sans-Serif" font-size="10.00">MiraiCP::Event::eventNode</text>
<polyline fill="none" stroke="black" points="0,-93.5 137,-93.5 "/>
<text text-anchor="middle" x="68.5" y="-81.5" font-family="Helvetica,sans-Serif" font-size="10.00"> </text>
<polyline fill="none" stroke="black" points="0,-74.5 137,-74.5 "/>
<text text-anchor="start" x="8" y="-62.5" font-family="Helvetica,sans-Serif" font-size="10.00">+ eventNode()</text>
<text text-anchor="start" x="8" y="-51.5" font-family="Helvetica,sans-Serif" font-size="10.00">+ eventNode(std::function</text>
<text text-anchor="start" x="8" y="-40.5" font-family="Helvetica,sans-Serif" font-size="10.00">&lt; bool(MiraiCPEvent *)&gt; f)</text>
<text text-anchor="start" x="8" y="-29.5" font-family="Helvetica,sans-Serif" font-size="10.00">+ bool run(MiraiCPEvent</text>
<text text-anchor="start" x="8" y="-18.5" font-family="Helvetica,sans-Serif" font-size="10.00"> *a) const</text>
<text text-anchor="start" x="8" y="-7.5" font-family="Helvetica,sans-Serif" font-size="10.00">+ NodeHandle * getHandle()</text>
</a>
</g>
</g>
<!-- Node2 -->
<g id="node2" class="node">
<title>Node2</title>
<g id="a_node2"><a xlink:title=" ">
<polygon fill="white" stroke="#bfbfbf" points="15.5,-204.5 15.5,-261.5 71.5,-261.5 71.5,-204.5 15.5,-204.5"/>
<text text-anchor="middle" x="43.5" y="-249.5" font-family="Helvetica,sans-Serif" font-size="10.00">function&lt;</text>
<polyline fill="none" stroke="#bfbfbf" points="15.5,-242.5 71.5,-242.5 "/>
<text text-anchor="middle" x="43.5" y="-230.5" font-family="Helvetica,sans-Serif" font-size="10.00"> </text>
<polyline fill="none" stroke="#bfbfbf" points="15.5,-223.5 71.5,-223.5 "/>
<text text-anchor="middle" x="43.5" y="-211.5" font-family="Helvetica,sans-Serif" font-size="10.00"> </text>
</a>
</g>
</g>
<!-- Node2&#45;&gt;Node1 -->
<g id="edge1" class="edge">
<title>Node2&#45;&gt;Node1</title>
<path fill="none" stroke="#404040" d="M47.46,-204.35C50.52,-183 54.88,-152.54 58.85,-124.88"/>
<polygon fill="none" stroke="#404040" points="58.87,-124.71 55.76,-118.2 60.57,-112.83 63.68,-119.34 58.87,-124.71"/>
<text text-anchor="middle" x="71.5" y="-134" font-family="Helvetica,sans-Serif" font-size="10.00"> +func</text>
</g>
<!-- Node3 -->
<g id="node3" class="node">
<title>Node3</title>
<g id="a_node3"><a xlink:href="a00464.html" target="_top" xlink:title="事件监听操控, 可用于stop停止监听和resume继续监听">
<polygon fill="white" stroke="black" points="90,-160.5 90,-305.5 251,-305.5 251,-160.5 90,-160.5"/>
<text text-anchor="middle" x="170.5" y="-293.5" font-family="Helvetica,sans-Serif" font-size="10.00">MiraiCP::NodeHandle</text>
<polyline fill="none" stroke="black" points="90,-286.5 251,-286.5 "/>
<text text-anchor="middle" x="170.5" y="-274.5" font-family="Helvetica,sans-Serif" font-size="10.00"> </text>
<polyline fill="none" stroke="black" points="90,-267.5 251,-267.5 "/>
<text text-anchor="start" x="98" y="-255.5" font-family="Helvetica,sans-Serif" font-size="10.00">+ NodeHandle(bool a)</text>
<text text-anchor="start" x="98" y="-244.5" font-family="Helvetica,sans-Serif" font-size="10.00">+ NodeHandle(NodeHandle</text>
<text text-anchor="start" x="98" y="-233.5" font-family="Helvetica,sans-Serif" font-size="10.00"> &amp;&amp;)=delete</text>
<text text-anchor="start" x="98" y="-222.5" font-family="Helvetica,sans-Serif" font-size="10.00">+ NodeHandle(const NodeHandle</text>
<text text-anchor="start" x="98" y="-211.5" font-family="Helvetica,sans-Serif" font-size="10.00"> &amp;)=delete</text>
<text text-anchor="start" x="98" y="-200.5" font-family="Helvetica,sans-Serif" font-size="10.00">+ ~NodeHandle()</text>
<text text-anchor="start" x="98" y="-189.5" font-family="Helvetica,sans-Serif" font-size="10.00">+ bool isEnable() const</text>
<text text-anchor="start" x="98" y="-178.5" font-family="Helvetica,sans-Serif" font-size="10.00">+ void stop()</text>
<text text-anchor="start" x="98" y="-167.5" font-family="Helvetica,sans-Serif" font-size="10.00">+ void resume()</text>
</a>
</g>
</g>
<!-- Node3&#45;&gt;Node1 -->
<g id="edge2" class="edge">
<title>Node3&#45;&gt;Node1</title>
<path fill="none" stroke="#404040" d="M128.57,-160.27C121.39,-147.98 113.96,-135.27 106.88,-123.15"/>
<polygon fill="none" stroke="#404040" points="106.81,-123.04 100.33,-119.88 100.75,-112.68 107.24,-115.84 106.81,-123.04"/>
<text text-anchor="middle" x="135.5" y="-134" font-family="Helvetica,sans-Serif" font-size="10.00"> &#45;_handle</text>
</g>
<!-- Node4 -->
<g id="node4" class="node">
<title>Node4</title>
<g id="a_node4"><a xlink:title=" ">
<polygon fill="white" stroke="#bfbfbf" points="115.5,-353.5 115.5,-421.5 225.5,-421.5 225.5,-353.5 115.5,-353.5"/>
<text text-anchor="start" x="123.5" y="-409.5" font-family="Helvetica,sans-Serif" font-size="10.00">MiraiCP::NodeHandle</text>
<text text-anchor="middle" x="170.5" y="-398.5" font-family="Helvetica,sans-Serif" font-size="10.00">::NodeHandleInternal</text>
<polyline fill="none" stroke="#bfbfbf" points="115.5,-391.5 225.5,-391.5 "/>
<text text-anchor="middle" x="170.5" y="-379.5" font-family="Helvetica,sans-Serif" font-size="10.00"> </text>
<polyline fill="none" stroke="#bfbfbf" points="115.5,-372.5 225.5,-372.5 "/>
<text text-anchor="middle" x="170.5" y="-360.5" font-family="Helvetica,sans-Serif" font-size="10.00"> </text>
</a>
</g>
</g>
<!-- Node4&#45;&gt;Node3 -->
<g id="edge3" class="edge">
<title>Node4&#45;&gt;Node3</title>
<path fill="none" stroke="#404040" d="M170.5,-353.41C170.5,-342.72 170.5,-330.35 170.5,-317.7"/>
<polygon fill="none" stroke="#404040" points="170.5,-317.53 166.5,-311.53 170.5,-305.53 174.5,-311.53 170.5,-317.53"/>
<text text-anchor="middle" x="188" y="-327" font-family="Helvetica,sans-Serif" font-size="10.00"> &#45;handle</text>
</g>
<!-- Node5 -->
<g id="node5" class="node">
<title>Node5</title>
<g id="a_node5"><a xlink:title=" ">
<polygon fill="white" stroke="#bfbfbf" points="144.5,-469.5 144.5,-526.5 196.5,-526.5 196.5,-469.5 144.5,-469.5"/>
<text text-anchor="middle" x="170.5" y="-514.5" font-family="Helvetica,sans-Serif" font-size="10.00">atomic&lt;</text>
<polyline fill="none" stroke="#bfbfbf" points="144.5,-507.5 196.5,-507.5 "/>
<text text-anchor="middle" x="170.5" y="-495.5" font-family="Helvetica,sans-Serif" font-size="10.00"> </text>
<polyline fill="none" stroke="#bfbfbf" points="144.5,-488.5 196.5,-488.5 "/>
<text text-anchor="middle" x="170.5" y="-476.5" font-family="Helvetica,sans-Serif" font-size="10.00"> </text>
</a>
</g>
</g>
<!-- Node5&#45;&gt;Node4 -->
<g id="edge4" class="edge">
<title>Node5&#45;&gt;Node4</title>
<path fill="none" stroke="#404040" d="M170.5,-469.34C170.5,-458.53 170.5,-445.85 170.5,-433.77"/>
<polygon fill="none" stroke="#404040" points="170.5,-433.52 166.5,-427.52 170.5,-421.52 174.5,-427.52 170.5,-433.52"/>
<text text-anchor="middle" x="183" y="-443" font-family="Helvetica,sans-Serif" font-size="10.00"> +flag</text>
</g>
</g>
</svg>
