<?xml version="1.0" encoding="UTF-8" standalone="no"?>
<!DOCTYPE svg PUBLIC "-//W3C//DTD SVG 1.1//EN"
 "http://www.w3.org/Graphics/SVG/1.1/DTD/svg11.dtd">
<!-- Generated by graphviz version 9.0.0 (0)
 -->
<!-- Title: LibLoader::loader_disablePluginById Pages: 1 -->
<svg width="2088pt" height="282pt"
 viewBox="0.00 0.00 2088.00 282.00" xmlns="http://www.w3.org/2000/svg" xmlns:xlink="http://www.w3.org/1999/xlink">
<g id="graph0" class="graph" transform="scale(1 1) rotate(0) translate(4 278)">
<title>LibLoader::loader_disablePluginById</title>
<!-- Node1 -->
<g id="Node000001" class="node">
<title>Node1</title>
<g id="a_Node000001"><a xlink:title=" ">
<polygon fill="#999999" stroke="#666666" points="2080,-124 1953.75,-124 1953.75,-92 2080,-92 2080,-124"/>
<text text-anchor="start" x="1961.75" y="-110.5" font-family="Helvetica,sans-Serif" font-size="10.00">LibLoader::loader_disable</text>
<text text-anchor="middle" x="2016.88" y="-98.5" font-family="Helvetica,sans-Serif" font-size="10.00">PluginById</text>
</a>
</g>
</g>
<!-- Node2 -->
<g id="Node000002" class="node">
<title>Node2</title>
<g id="a_Node000002"><a xlink:href="a00426.html#a08a6725cb4a33402962f2b67130e8bac" target="_top" xlink:title=" ">
<polygon fill="white" stroke="#666666" points="1914.38,-149 1806.88,-149 1806.88,-117 1914.38,-117 1914.38,-149"/>
<text text-anchor="start" x="1814.88" y="-135.5" font-family="Helvetica,sans-Serif" font-size="10.00">LibLoader::LoaderApi</text>
<text text-anchor="middle" x="1860.62" y="-123.5" font-family="Helvetica,sans-Serif" font-size="10.00">::disablePluginById</text>
</a>
</g>
</g>
<!-- Node1&#45;&gt;Node2 -->
<g id="edge1_Node000001_Node000002" class="edge">
<title>Node1&#45;&gt;Node2</title>
<g id="a_edge1_Node000001_Node000002"><a xlink:title=" ">
<path fill="none" stroke="#63b8ff" d="M1942.31,-119.92C1933.01,-121.43 1923.64,-122.95 1914.74,-124.39"/>
<polygon fill="#63b8ff" stroke="#63b8ff" points="1942.77,-123.39 1952.09,-118.34 1941.66,-116.48 1942.77,-123.39"/>
</a>
</g>
</g>
<!-- Node29 -->
<g id="Node000029" class="node">
<title>Node29</title>
<g id="a_Node000029"><a xlink:href="a00880.html#adb67a1dbb48fb151a7f581fcd2afa2e5" target="_top" xlink:title=" ">
<polygon fill="white" stroke="#666666" points="1917.75,-99 1803.5,-99 1803.5,-67 1917.75,-67 1917.75,-99"/>
<text text-anchor="start" x="1811.5" y="-85.5" font-family="Helvetica,sans-Serif" font-size="10.00">LibLoader::LoaderMain</text>
<text text-anchor="middle" x="1860.62" y="-73.5" font-family="Helvetica,sans-Serif" font-size="10.00">::process_task_queue</text>
</a>
</g>
</g>
<!-- Node1&#45;&gt;Node29 -->
<g id="edge32_Node000001_Node000029" class="edge">
<title>Node1&#45;&gt;Node29</title>
<g id="a_edge32_Node000001_Node000029"><a xlink:title=" ">
<path fill="none" stroke="#63b8ff" d="M1942.22,-96.06C1934.14,-94.75 1926.01,-93.43 1918.18,-92.17"/>
<polygon fill="#63b8ff" stroke="#63b8ff" points="1941.66,-99.52 1952.09,-97.66 1942.77,-92.61 1941.66,-99.52"/>
</a>
</g>
</g>
<!-- Node3 -->
<g id="Node000003" class="node">
<title>Node3</title>
<g id="a_Node000003"><a xlink:href="a00431.html#a23c30511bf483a1559577dcb67c05e55" target="_top" xlink:title=" ">
<polygon fill="white" stroke="#666666" points="1767.5,-149 1630,-149 1630,-117 1767.5,-117 1767.5,-149"/>
<text text-anchor="start" x="1638" y="-135.5" font-family="Helvetica,sans-Serif" font-size="10.00">LibLoader::MessageHandler</text>
<text text-anchor="middle" x="1698.75" y="-123.5" font-family="Helvetica,sans-Serif" font-size="10.00">::admin_message</text>
</a>
</g>
</g>
<!-- Node2&#45;&gt;Node3 -->
<g id="edge2_Node000002_Node000003" class="edge">
<title>Node2&#45;&gt;Node3</title>
<g id="a_edge2_Node000002_Node000003"><a xlink:title=" ">
<path fill="none" stroke="#63b8ff" d="M1795.17,-133C1786.17,-133 1776.89,-133 1767.83,-133"/>
<polygon fill="#63b8ff" stroke="#63b8ff" points="1794.88,-136.5 1804.88,-133 1794.88,-129.5 1794.88,-136.5"/>
</a>
</g>
</g>
<!-- Node28 -->
<g id="Node000028" class="node">
<title>Node28</title>
<g id="a_Node000028"><a xlink:href="a00417.html#a5c00ba2c6c7b08c0ff508ed5e0cd518d" target="_top" xlink:title="禁用一个已经启用的插件，仅限有管理权限的插件使用，否则没有任何效果">
<polygon fill="white" stroke="#666666" points="1749.12,-199 1648.38,-199 1648.38,-167 1749.12,-167 1749.12,-199"/>
<text text-anchor="start" x="1656.38" y="-185.5" font-family="Helvetica,sans-Serif" font-size="10.00">MiraiCP::LoaderApi</text>
<text text-anchor="middle" x="1698.75" y="-173.5" font-family="Helvetica,sans-Serif" font-size="10.00">::disablePluginById</text>
</a>
</g>
</g>
<!-- Node2&#45;&gt;Node28 -->
<g id="edge31_Node000002_Node000028" class="edge">
<title>Node2&#45;&gt;Node28</title>
<g id="a_edge31_Node000002_Node000028"><a xlink:title=" ">
<path fill="none" stroke="#63b8ff" d="M1796.62,-152.7C1780.97,-157.6 1764.41,-162.78 1749.5,-167.44"/>
<polygon fill="#63b8ff" stroke="#63b8ff" points="1797.33,-156.15 1805.83,-149.82 1795.24,-149.47 1797.33,-156.15"/>
</a>
</g>
</g>
<!-- Node4 -->
<g id="Node000004" class="node">
<title>Node4</title>
<g id="a_Node000004"><a xlink:href="a00892.html#ac44a2bba9059176d3ccb04ed1eb065a3" target="_top" xlink:title=" ">
<polygon fill="white" stroke="#666666" points="1594,-207 1446,-207 1446,-175 1594,-175 1594,-207"/>
<text text-anchor="start" x="1454" y="-193.5" font-family="Helvetica,sans-Serif" font-size="10.00">LibLoader::MessageProcessor</text>
<text text-anchor="middle" x="1520" y="-181.5" font-family="Helvetica,sans-Serif" font-size="10.00">::registerDefaultHandlers</text>
</a>
</g>
</g>
<!-- Node3&#45;&gt;Node4 -->
<g id="edge3_Node000003_Node000004" class="edge">
<title>Node3&#45;&gt;Node4</title>
<g id="a_edge3_Node000003_Node000004"><a xlink:title=" ">
<path fill="none" stroke="#63b8ff" d="M1636.91,-152.96C1615.41,-160.02 1591.49,-167.87 1571,-174.59"/>
<polygon fill="#63b8ff" stroke="#63b8ff" points="1637.72,-156.38 1646.14,-149.94 1635.54,-149.73 1637.72,-156.38"/>
</a>
</g>
</g>
<!-- Node5 -->
<g id="Node000005" class="node">
<title>Node5</title>
<g id="a_Node000005"><a xlink:href="a00884.html#ac95c9bf6b208cbeab2e9b1cdfcb7c3d6" target="_top" xlink:title=" ">
<polygon fill="white" stroke="#666666" points="1410,-207 1268.75,-207 1268.75,-175 1410,-175 1410,-207"/>
<text text-anchor="start" x="1276.75" y="-193.5" font-family="Helvetica,sans-Serif" font-size="10.00">LibLoader::MessageManager</text>
<text text-anchor="middle" x="1339.38" y="-181.5" font-family="Helvetica,sans-Serif" font-size="10.00">::init</text>
</a>
</g>
</g>
<!-- Node4&#45;&gt;Node5 -->
<g id="edge4_Node000004_Node000005" class="edge">
<title>Node4&#45;&gt;Node5</title>
<g id="a_edge4_Node000004_Node000005"><a xlink:title=" ">
<path fill="none" stroke="#63b8ff" d="M1434.3,-191C1426.28,-191 1418.21,-191 1410.35,-191"/>
<polygon fill="#63b8ff" stroke="#63b8ff" points="1434.06,-194.5 1444.06,-191 1434.06,-187.5 1434.06,-194.5"/>
</a>
</g>
</g>
<!-- Node6 -->
<g id="Node000006" class="node">
<title>Node6</title>
<g id="a_Node000006"><a xlink:href="a00880.html#a79cbc18aabed7afe2c7ea30f989ffc8c" target="_top" xlink:title="LoaderMain实现开始">
<polygon fill="white" stroke="#666666" points="1232.75,-207 1118.5,-207 1118.5,-175 1232.75,-175 1232.75,-207"/>
<text text-anchor="start" x="1126.5" y="-193.5" font-family="Helvetica,sans-Serif" font-size="10.00">LibLoader::LoaderMain</text>
<text text-anchor="middle" x="1175.62" y="-181.5" font-family="Helvetica,sans-Serif" font-size="10.00">::loaderMain</text>
</a>
</g>
</g>
<!-- Node5&#45;&gt;Node6 -->
<g id="edge5_Node000005_Node000006" class="edge">
<title>Node5&#45;&gt;Node6</title>
<g id="a_edge5_Node000005_Node000006"><a xlink:title=" ">
<path fill="none" stroke="#63b8ff" d="M1256.98,-191C1248.91,-191 1240.84,-191 1233.11,-191"/>
<polygon fill="#63b8ff" stroke="#63b8ff" points="1256.86,-194.5 1266.86,-191 1256.86,-187.5 1256.86,-194.5"/>
</a>
</g>
</g>
<!-- Node7 -->
<g id="Node000007" class="node">
<title>Node7</title>
<g id="a_Node000007"><a xlink:href="a00880.html#a22eacbd6aa585f32d0fccce0a69ab642" target="_top" xlink:title=" ">
<polygon fill="white" stroke="#666666" points="1082.5,-201 948.75,-201 948.75,-181 1082.5,-181 1082.5,-201"/>
<text text-anchor="middle" x="1015.62" y="-187.5" font-family="Helvetica,sans-Serif" font-size="10.00">LibLoader::LoaderMain::get</text>
</a>
</g>
</g>
<!-- Node6&#45;&gt;Node7 -->
<g id="edge6_Node000006_Node000007" class="edge">
<title>Node6&#45;&gt;Node7</title>
<g id="a_edge6_Node000006_Node000007"><a xlink:title=" ">
<path fill="none" stroke="#63b8ff" d="M1106.6,-191C1098.71,-191 1090.66,-191 1082.79,-191"/>
<polygon fill="#63b8ff" stroke="#63b8ff" points="1106.52,-194.5 1116.52,-191 1106.52,-187.5 1106.52,-194.5"/>
</a>
</g>
</g>
<!-- Node26 -->
<g id="Node000026" class="node">
<title>Node26</title>
<g id="a_Node000026"><a xlink:href="a00314.html#aafbc26593c69471626589f38c751ef09" target="_top" xlink:title=" ">
<polygon fill="white" stroke="#666666" points="877.88,-239 818.38,-239 818.38,-219 877.88,-219 877.88,-239"/>
<text text-anchor="middle" x="848.12" y="-225.5" font-family="Helvetica,sans-Serif" font-size="10.00">VerifyImpl</text>
</a>
</g>
</g>
<!-- Node6&#45;&gt;Node26 -->
<g id="edge30_Node000006_Node000026" class="edge">
<title>Node6&#45;&gt;Node26</title>
<g id="a_edge30_Node000006_Node000026"><a xlink:title=" ">
<path fill="none" stroke="#63b8ff" d="M1107.12,-205.91C1098.85,-207.44 1090.5,-208.85 1082.5,-210 1009.47,-220.46 922.68,-225.64 878.36,-227.77"/>
<polygon fill="#63b8ff" stroke="#63b8ff" points="1107.66,-209.37 1116.81,-204.04 1106.33,-202.49 1107.66,-209.37"/>
</a>
</g>
</g>
<!-- Node8 -->
<g id="Node000008" class="node">
<title>Node8</title>
<g id="a_Node000008"><a xlink:href="a00425.html#a46f4ab12479d61956e7dc81cfb19fef5" target="_top" xlink:title=" ">
<polygon fill="white" stroke="#666666" points="912.75,-156 783.5,-156 783.5,-136 912.75,-136 912.75,-156"/>
<text text-anchor="middle" x="848.12" y="-142.5" font-family="Helvetica,sans-Serif" font-size="10.00">LibLoader::loaderWakeCV</text>
</a>
</g>
</g>
<!-- Node7&#45;&gt;Node8 -->
<g id="edge7_Node000007_Node000008" class="edge">
<title>Node7&#45;&gt;Node8</title>
<g id="a_edge7_Node000007_Node000008"><a xlink:title=" ">
<path fill="none" stroke="#63b8ff" d="M965.2,-177.56C940.36,-170.81 910.71,-162.74 887.59,-156.46"/>
<polygon fill="#63b8ff" stroke="#63b8ff" points="964.21,-180.92 974.78,-180.17 966.05,-174.16 964.21,-180.92"/>
</a>
</g>
</g>
<!-- Node16 -->
<g id="Node000016" class="node">
<title>Node16</title>
<g id="a_Node000016"><a xlink:href="a00314.html#a2e0217581c8df7fd1fc867cc3a8317d3" target="_top" xlink:title=" ">
<polygon fill="white" stroke="#666666" points="736.62,-208 641.88,-208 641.88,-188 736.62,-188 736.62,-208"/>
<text text-anchor="middle" x="689.25" y="-194.5" font-family="Helvetica,sans-Serif" font-size="10.00">PluginDisableImpl</text>
</a>
</g>
</g>
<!-- Node7&#45;&gt;Node16 -->
<g id="edge27_Node000007_Node000016" class="edge">
<title>Node7&#45;&gt;Node16</title>
<g id="a_edge27_Node000007_Node000016"><a xlink:title=" ">
<path fill="none" stroke="#63b8ff" d="M937.22,-192.67C874.81,-194.02 789.1,-195.87 736.8,-197"/>
<polygon fill="#63b8ff" stroke="#63b8ff" points="937.16,-196.17 947.08,-192.46 937.01,-189.17 937.16,-196.17"/>
</a>
</g>
</g>
<!-- Node7&#45;&gt;Node26 -->
<g id="edge28_Node000007_Node000026" class="edge">
<title>Node7&#45;&gt;Node26</title>
<g id="a_edge28_Node000007_Node000026"><a xlink:title=" ">
<path fill="none" stroke="#63b8ff" d="M958.09,-203.98C931.14,-210.17 900.04,-217.31 877.99,-222.37"/>
<polygon fill="#63b8ff" stroke="#63b8ff" points="958.53,-207.47 967.49,-201.82 956.96,-200.65 958.53,-207.47"/>
</a>
</g>
</g>
<!-- Node9 -->
<g id="Node000009" class="node">
<title>Node9</title>
<g id="a_Node000009"><a xlink:href="a00880.html#a9ca8ba2c9fcbfade9adf4a0a2bb47eaa" target="_top" xlink:title=" ">
<polygon fill="white" stroke="#666666" points="746.38,-32 632.12,-32 632.12,0 746.38,0 746.38,-32"/>
<text text-anchor="start" x="640.12" y="-18.5" font-family="Helvetica,sans-Serif" font-size="10.00">LibLoader::LoaderMain</text>
<text text-anchor="middle" x="689.25" y="-6.5" font-family="Helvetica,sans-Serif" font-size="10.00">::mainloop</text>
</a>
</g>
</g>
<!-- Node8&#45;&gt;Node9 -->
<g id="edge8_Node000008_Node000009" class="edge">
<title>Node8&#45;&gt;Node9</title>
<g id="a_edge8_Node000008_Node000009"><a xlink:title=" ">
<path fill="none" stroke="#63b8ff" d="M814,-130.1C803.39,-123.91 792.16,-116.11 783.5,-107 760.48,-82.78 772.14,-63.57 747.5,-41 743.98,-37.78 739.98,-34.92 735.77,-32.41"/>
<polygon fill="#63b8ff" stroke="#63b8ff" points="812.1,-133.05 822.56,-134.79 815.47,-126.91 812.1,-133.05"/>
</a>
</g>
</g>
<!-- Node10 -->
<g id="Node000010" class="node">
<title>Node10</title>
<g id="a_Node000010"><a xlink:href="a00281.html#a36a04ab86ecc081ee51d32866ef7a332" target="_top" xlink:title=" ">
<polygon fill="white" stroke="#666666" points="739.62,-120 638.88,-120 638.88,-88 739.62,-88 739.62,-120"/>
<text text-anchor="start" x="646.88" y="-106.5" font-family="Helvetica,sans-Serif" font-size="10.00">plugin_raw_API_try</text>
<text text-anchor="middle" x="689.25" y="-94.5" font-family="Helvetica,sans-Serif" font-size="10.00">_wake_loader</text>
</a>
</g>
</g>
<!-- Node8&#45;&gt;Node10 -->
<g id="edge10_Node000008_Node000010" class="edge">
<title>Node8&#45;&gt;Node10</title>
<g id="a_edge10_Node000008_Node000010"><a xlink:title=" ">
<path fill="none" stroke="#63b8ff" d="M796.93,-132.56C778.69,-127.68 758.1,-122.16 739.9,-117.29"/>
<polygon fill="#63b8ff" stroke="#63b8ff" points="795.92,-135.91 806.48,-135.12 797.73,-129.15 795.92,-135.91"/>
</a>
</g>
</g>
<!-- Node8&#45;&gt;Node16 -->
<g id="edge16_Node000008_Node000016" class="edge">
<title>Node8&#45;&gt;Node16</title>
<g id="a_edge16_Node000008_Node000016"><a xlink:title=" ">
<path fill="none" stroke="#63b8ff" d="M805.01,-159.96C778.84,-168.63 745.75,-179.6 721.83,-187.53"/>
<polygon fill="#63b8ff" stroke="#63b8ff" points="805.93,-163.34 814.32,-156.87 803.73,-156.7 805.93,-163.34"/>
</a>
</g>
</g>
<!-- Node18 -->
<g id="Node000018" class="node">
<title>Node18</title>
<g id="a_Node000018"><a xlink:href="a00432.html#a746efd674de5c56de789a0c03be7948e" target="_top" xlink:title="新增一个计时器，对接libLoader API">
<polygon fill="white" stroke="#666666" points="743,-170 635.5,-170 635.5,-138 743,-138 743,-170"/>
<text text-anchor="start" x="643.5" y="-156.5" font-family="Helvetica,sans-Serif" font-size="10.00">LibLoader::Scheduler</text>
<text text-anchor="middle" x="689.25" y="-144.5" font-family="Helvetica,sans-Serif" font-size="10.00">::timer</text>
</a>
</g>
</g>
<!-- Node8&#45;&gt;Node18 -->
<g id="edge18_Node000008_Node000018" class="edge">
<title>Node8&#45;&gt;Node18</title>
<g id="a_edge18_Node000008_Node000018"><a xlink:title=" ">
<path fill="none" stroke="#63b8ff" d="M772.05,-149.83C762.4,-150.32 752.67,-150.82 743.47,-151.29"/>
<polygon fill="#63b8ff" stroke="#63b8ff" points="772,-153.34 781.81,-149.33 771.64,-146.34 772,-153.34"/>
</a>
</g>
</g>
<!-- Node23 -->
<g id="Node000023" class="node">
<title>Node23</title>
<g id="a_Node000023"><a xlink:href="a00425.html#a4bd4ee75c4f2ea14034626c7cbf73bb4" target="_top" xlink:title=" ">
<polygon fill="white" stroke="#666666" points="747.5,-70 631,-70 631,-50 747.5,-50 747.5,-70"/>
<text text-anchor="middle" x="689.25" y="-56.5" font-family="Helvetica,sans-Serif" font-size="10.00">LibLoader::wakeLoader</text>
</a>
</g>
</g>
<!-- Node8&#45;&gt;Node23 -->
<g id="edge24_Node000008_Node000023" class="edge">
<title>Node8&#45;&gt;Node23</title>
<g id="a_edge24_Node000008_Node000023"><a xlink:title=" ">
<path fill="none" stroke="#63b8ff" d="M819.2,-129.8C807.93,-123.03 794.92,-114.9 783.5,-107 766.83,-95.46 765.38,-88.55 747.5,-79 741.4,-75.74 734.65,-72.9 727.97,-70.48"/>
<polygon fill="#63b8ff" stroke="#63b8ff" points="817.27,-132.73 827.66,-134.82 820.85,-126.71 817.27,-132.73"/>
</a>
</g>
</g>
<!-- Node9&#45;&gt;Node6 -->
<g id="edge9_Node000009_Node000006" class="edge">
<title>Node9&#45;&gt;Node6</title>
<g id="a_edge9_Node000009_Node000006"><a xlink:title=" ">
<path fill="none" stroke="#63b8ff" d="M746.44,-36.3C843.35,-71.31 1040.05,-142.38 1129.06,-174.54"/>
<polygon fill="#63b8ff" stroke="#63b8ff" points="747.71,-33.04 737.12,-32.93 745.34,-39.62 747.71,-33.04"/>
</a>
</g>
</g>
<!-- Node11 -->
<g id="Node000011" class="node">
<title>Node11</title>
<g id="a_Node000011"><a xlink:href="a00916.html#a14895bee64bb1c12e16b97d038b699b7" target="_top" xlink:title="这部分是一些工具函数、对象">
<polygon fill="white" stroke="#666666" points="565.75,-120 468.75,-120 468.75,-88 565.75,-88 565.75,-120"/>
<text text-anchor="start" x="476.75" y="-106.5" font-family="Helvetica,sans-Serif" font-size="10.00">LibLoader::Plugin::</text>
<text text-anchor="middle" x="517.25" y="-94.5" font-family="Helvetica,sans-Serif" font-size="10.00">callEntrance</text>
</a>
</g>
</g>
<!-- Node10&#45;&gt;Node11 -->
<g id="edge11_Node000010_Node000011" class="edge">
<title>Node10&#45;&gt;Node11</title>
<g id="a_edge11_Node000010_Node000011"><a xlink:title=" ">
<path fill="none" stroke="#63b8ff" d="M627.37,-104C607.26,-104 585.18,-104 566.18,-104"/>
<polygon fill="#63b8ff" stroke="#63b8ff" points="627.11,-107.5 637.11,-104 627.11,-100.5 627.11,-107.5"/>
</a>
</g>
</g>
<!-- Node12 -->
<g id="Node000012" class="node">
<title>Node12</title>
<g id="a_Node000012"><a xlink:href="a00916.html#a450c1c6820ab6c5417691359d88d8220" target="_top" xlink:title=" ">
<polygon fill="white" stroke="#666666" points="383.25,-120 286.25,-120 286.25,-88 383.25,-88 383.25,-120"/>
<text text-anchor="start" x="294.25" y="-106.5" font-family="Helvetica,sans-Serif" font-size="10.00">LibLoader::Plugin::</text>
<text text-anchor="middle" x="334.75" y="-94.5" font-family="Helvetica,sans-Serif" font-size="10.00">enableInternal</text>
</a>
</g>
</g>
<!-- Node11&#45;&gt;Node12 -->
<g id="edge12_Node000011_Node000012" class="edge">
<title>Node11&#45;&gt;Node12</title>
<g id="a_edge12_Node000011_Node000012"><a xlink:title=" ">
<path fill="none" stroke="#63b8ff" d="M456.96,-104C433.15,-104 406.07,-104 383.56,-104"/>
<polygon fill="#63b8ff" stroke="#63b8ff" points="456.84,-107.5 466.84,-104 456.84,-100.5 456.84,-107.5"/>
</a>
</g>
</g>
<!-- Node13 -->
<g id="Node000013" class="node">
<title>Node13</title>
<g id="a_Node000013"><a xlink:href="a00916.html#a549e3729f8aeb27208ef5aecb434eef1" target="_top" xlink:title=" ">
<polygon fill="white" stroke="#666666" points="230,-73 133,-73 133,-41 230,-41 230,-73"/>
<text text-anchor="start" x="141" y="-59.5" font-family="Helvetica,sans-Serif" font-size="10.00">LibLoader::Plugin::</text>
<text text-anchor="middle" x="181.5" y="-47.5" font-family="Helvetica,sans-Serif" font-size="10.00">enablePlugin</text>
</a>
</g>
</g>
<!-- Node12&#45;&gt;Node13 -->
<g id="edge13_Node000012_Node000013" class="edge">
<title>Node12&#45;&gt;Node13</title>
<g id="a_edge13_Node000012_Node000013"><a xlink:title=" ">
<path fill="none" stroke="#63b8ff" d="M275.26,-85.83C260.39,-81.2 244.58,-76.29 230.3,-71.85"/>
<polygon fill="#63b8ff" stroke="#63b8ff" points="273.86,-89.05 284.45,-88.68 275.94,-82.37 273.86,-89.05"/>
</a>
</g>
</g>
<!-- Node14 -->
<g id="Node000014" class="node">
<title>Node14</title>
<g id="a_Node000014"><a xlink:href="a00916.html#a8636d0418d741a19bbd9183316cd5c59" target="_top" xlink:title=" ">
<polygon fill="white" stroke="#666666" points="230,-123 133,-123 133,-91 230,-91 230,-123"/>
<text text-anchor="start" x="141" y="-109.5" font-family="Helvetica,sans-Serif" font-size="10.00">LibLoader::Plugin::</text>
<text text-anchor="middle" x="181.5" y="-97.5" font-family="Helvetica,sans-Serif" font-size="10.00">loadInternal</text>
</a>
</g>
</g>
<!-- Node12&#45;&gt;Node14 -->
<g id="edge14_Node000012_Node000014" class="edge">
<title>Node12&#45;&gt;Node14</title>
<g id="a_edge14_Node000012_Node000014"><a xlink:title=" ">
<path fill="none" stroke="#63b8ff" d="M274.39,-105.18C259.77,-105.47 244.3,-105.77 230.3,-106.05"/>
<polygon fill="#63b8ff" stroke="#63b8ff" points="274.45,-108.68 284.38,-104.98 274.31,-101.68 274.45,-108.68"/>
</a>
</g>
</g>
<!-- Node15 -->
<g id="Node000015" class="node">
<title>Node15</title>
<g id="a_Node000015"><a xlink:href="a00916.html#a891ce42f23fe1312ef6cad2accf4ab92" target="_top" xlink:title=" ">
<polygon fill="white" stroke="#666666" points="97,-123 0,-123 0,-91 97,-91 97,-123"/>
<text text-anchor="start" x="8" y="-109.5" font-family="Helvetica,sans-Serif" font-size="10.00">LibLoader::Plugin::</text>
<text text-anchor="middle" x="48.5" y="-97.5" font-family="Helvetica,sans-Serif" font-size="10.00">loadPlugin</text>
</a>
</g>
</g>
<!-- Node14&#45;&gt;Node15 -->
<g id="edge15_Node000014_Node000015" class="edge">
<title>Node14&#45;&gt;Node15</title>
<g id="a_edge15_Node000014_Node000015"><a xlink:title=" ">
<path fill="none" stroke="#63b8ff" d="M121.53,-107C113.44,-107 105.21,-107 97.35,-107"/>
<polygon fill="#63b8ff" stroke="#63b8ff" points="121.32,-110.5 131.32,-107 121.32,-103.5 121.32,-110.5"/>
</a>
</g>
</g>
<!-- Node17 -->
<g id="Node000017" class="node">
<title>Node17</title>
<g id="a_Node000017"><a xlink:href="a00314.html#a054b75b2be22897678d22ce9a72d91df" target="_top" xlink:title=" ">
<polygon fill="white" stroke="#666666" points="555.25,-208 479.25,-208 479.25,-188 555.25,-188 555.25,-208"/>
<text text-anchor="middle" x="517.25" y="-194.5" font-family="Helvetica,sans-Serif" font-size="10.00">PluginDisable</text>
</a>
</g>
</g>
<!-- Node16&#45;&gt;Node17 -->
<g id="edge17_Node000016_Node000017" class="edge">
<title>Node16&#45;&gt;Node17</title>
<g id="a_edge17_Node000016_Node000017"><a xlink:title=" ">
<path fill="none" stroke="#63b8ff" d="M630.33,-198C605.58,-198 577.41,-198 555.5,-198"/>
<polygon fill="#63b8ff" stroke="#63b8ff" points="630.28,-201.5 640.28,-198 630.28,-194.5 630.28,-201.5"/>
</a>
</g>
</g>
<!-- Node19 -->
<g id="Node000019" class="node">
<title>Node19</title>
<g id="a_Node000019"><a xlink:href="a00426.html#a05f1524120bb7a5a65abbde063d9e557" target="_top" xlink:title=" ">
<polygon fill="white" stroke="#666666" points="571,-170 463.5,-170 463.5,-138 571,-138 571,-170"/>
<text text-anchor="start" x="471.5" y="-156.5" font-family="Helvetica,sans-Serif" font-size="10.00">LibLoader::LoaderApi</text>
<text text-anchor="middle" x="517.25" y="-144.5" font-family="Helvetica,sans-Serif" font-size="10.00">::timer</text>
</a>
</g>
</g>
<!-- Node18&#45;&gt;Node19 -->
<g id="edge19_Node000018_Node000019" class="edge">
<title>Node18&#45;&gt;Node19</title>
<g id="a_edge19_Node000018_Node000019"><a xlink:title=" ">
<path fill="none" stroke="#63b8ff" d="M624.17,-154C606.76,-154 588.1,-154 571.37,-154"/>
<polygon fill="#63b8ff" stroke="#63b8ff" points="623.88,-157.5 633.88,-154 623.88,-150.5 623.88,-157.5"/>
</a>
</g>
</g>
<!-- Node20 -->
<g id="Node000020" class="node">
<title>Node20</title>
<g id="a_Node000020"><a xlink:href="a00412.html#a0edd1fee858de73bb144b4f7832a573d" target="_top" xlink:title="定时任务, 在一定时间后广播**一次**TimeOutEvent">
<polygon fill="white" stroke="#666666" points="382.88,-164 286.62,-164 286.62,-144 382.88,-144 382.88,-164"/>
<text text-anchor="middle" x="334.75" y="-150.5" font-family="Helvetica,sans-Serif" font-size="10.00">MiraiCP::schedule</text>
</a>
</g>
</g>
<!-- Node19&#45;&gt;Node20 -->
<g id="edge20_Node000019_Node000020" class="edge">
<title>Node19&#45;&gt;Node20</title>
<g id="a_edge20_Node000019_Node000020"><a xlink:title=" ">
<path fill="none" stroke="#63b8ff" d="M451.85,-154C429.25,-154 404.3,-154 383.33,-154"/>
<polygon fill="#63b8ff" stroke="#63b8ff" points="451.56,-157.5 461.56,-154 451.56,-150.5 451.56,-157.5"/>
</a>
</g>
</g>
<!-- Node22 -->
<g id="Node000022" class="node">
<title>Node22</title>
<g id="a_Node000022"><a xlink:href="a00431.html#ac6360f8f60a063ca92ee816f65a8a2a1" target="_top" xlink:title=" ">
<polygon fill="white" stroke="#666666" points="403.5,-252 266,-252 266,-220 403.5,-220 403.5,-252"/>
<text text-anchor="start" x="274" y="-238.5" font-family="Helvetica,sans-Serif" font-size="10.00">LibLoader::MessageHandler</text>
<text text-anchor="middle" x="334.75" y="-226.5" font-family="Helvetica,sans-Serif" font-size="10.00">::timer_message</text>
</a>
</g>
</g>
<!-- Node19&#45;&gt;Node22 -->
<g id="edge22_Node000019_Node000022" class="edge">
<title>Node19&#45;&gt;Node22</title>
<g id="a_edge22_Node000019_Node000022"><a xlink:title=" ">
<path fill="none" stroke="#63b8ff" d="M452.73,-173.65C448.22,-175.36 443.77,-177.15 439.5,-179 412.34,-190.76 382.91,-207.32 362.35,-219.57"/>
<polygon fill="#63b8ff" stroke="#63b8ff" points="453.71,-177.02 461.91,-170.31 451.31,-170.44 453.71,-177.02"/>
</a>
</g>
</g>
<!-- Node21 -->
<g id="Node000021" class="node">
<title>Node21</title>
<g id="a_Node000021"><a xlink:href="a00412.html#a9d9b304caa9cf25c6f148b99ee9651f6" target="_top" xlink:title="定时任务, 在一定时间后广播**一次**TimeOutEvent，chrono重载">
<polygon fill="white" stroke="#666666" points="229.62,-164 133.38,-164 133.38,-144 229.62,-144 229.62,-164"/>
<text text-anchor="middle" x="181.5" y="-150.5" font-family="Helvetica,sans-Serif" font-size="10.00">MiraiCP::schedule</text>
</a>
</g>
</g>
<!-- Node20&#45;&gt;Node21 -->
<g id="edge21_Node000020_Node000021" class="edge">
<title>Node20&#45;&gt;Node21</title>
<g id="a_edge21_Node000020_Node000021"><a xlink:title=" ">
<path fill="none" stroke="#63b8ff" d="M275.12,-154C260.19,-154 244.33,-154 230.03,-154"/>
<polygon fill="#63b8ff" stroke="#63b8ff" points="274.8,-157.5 284.79,-154 274.79,-150.5 274.8,-157.5"/>
</a>
</g>
</g>
<!-- Node22&#45;&gt;Node4 -->
<g id="edge23_Node000022_Node000004" class="edge">
<title>Node22&#45;&gt;Node4</title>
<g id="a_edge23_Node000022_Node000004"><a xlink:title=" ">
<path fill="none" stroke="#63b8ff" d="M414.87,-249.44C486.14,-260.37 593.89,-274 688.25,-274 1176.62,-274 1176.62,-274 1176.62,-274 1288.4,-274 1415.07,-231.7 1478.4,-207.5"/>
<polygon fill="#63b8ff" stroke="#63b8ff" points="415.67,-246.02 405.25,-247.94 414.59,-252.94 415.67,-246.02"/>
</a>
</g>
</g>
<!-- Node24 -->
<g id="Node000024" class="node">
<title>Node24</title>
<g id="a_Node000024"><a xlink:href="a00425.html#afbf560680f6b525ee0240f614a0177b6" target="_top" xlink:title=" ">
<polygon fill="white" stroke="#666666" points="595,-70 439.5,-70 439.5,-50 595,-50 595,-70"/>
<text text-anchor="middle" x="517.25" y="-56.5" font-family="Helvetica,sans-Serif" font-size="10.00">LibLoader::sendPluginException</text>
</a>
</g>
</g>
<!-- Node23&#45;&gt;Node24 -->
<g id="edge25_Node000023_Node000024" class="edge">
<title>Node23&#45;&gt;Node24</title>
<g id="a_edge25_Node000023_Node000024"><a xlink:title=" ">
<path fill="none" stroke="#63b8ff" d="M619.3,-60C611.41,-60 603.33,-60 595.34,-60"/>
<polygon fill="#63b8ff" stroke="#63b8ff" points="619.18,-63.5 629.18,-60 619.18,-56.5 619.18,-63.5"/>
</a>
</g>
</g>
<!-- Node25 -->
<g id="Node000025" class="node">
<title>Node25</title>
<g id="a_Node000025"><a xlink:href="a00425.html#a7ee448e1b260709b6a8d73fa41ec5c15" target="_top" xlink:title=" ">
<polygon fill="white" stroke="#666666" points="587.88,-32 446.62,-32 446.62,-12 587.88,-12 587.88,-32"/>
<text text-anchor="middle" x="517.25" y="-18.5" font-family="Helvetica,sans-Serif" font-size="10.00">LibLoader::sendThreadReset</text>
</a>
</g>
</g>
<!-- Node23&#45;&gt;Node25 -->
<g id="edge26_Node000023_Node000025" class="edge">
<title>Node23&#45;&gt;Node25</title>
<g id="a_edge26_Node000023_Node000025"><a xlink:title=" ">
<path fill="none" stroke="#63b8ff" d="M630.16,-47.02C608.9,-42.26 585.14,-36.95 565,-32.45"/>
<polygon fill="#63b8ff" stroke="#63b8ff" points="629.35,-50.42 639.87,-49.19 630.87,-43.59 629.35,-50.42"/>
</a>
</g>
</g>
<!-- Node27 -->
<g id="Node000027" class="node">
<title>Node27</title>
<g id="a_Node000027"><a xlink:href="a00314.html#a3712cdeefe60fa2a92efa90cd6200b02" target="_top" xlink:title=" ">
<polygon fill="white" stroke="#666666" points="709.62,-246 668.88,-246 668.88,-226 709.62,-226 709.62,-246"/>
<text text-anchor="middle" x="689.25" y="-232.5" font-family="Helvetica,sans-Serif" font-size="10.00">Verify</text>
</a>
</g>
</g>
<!-- Node26&#45;&gt;Node27 -->
<g id="edge29_Node000026_Node000027" class="edge">
<title>Node26&#45;&gt;Node27</title>
<g id="a_edge29_Node000026_Node000027"><a xlink:title=" ">
<path fill="none" stroke="#63b8ff" d="M806.64,-230.81C775.53,-232.19 733.93,-234.05 709.81,-235.13"/>
<polygon fill="#63b8ff" stroke="#63b8ff" points="806.64,-234.31 816.47,-230.37 806.33,-227.32 806.64,-234.31"/>
</a>
</g>
</g>
<!-- Node30 -->
<g id="Node000030" class="node">
<title>Node30</title>
<g id="a_Node000030"><a xlink:href="a00880.html#aa2dac3324ec614040340dcb2a5c76110" target="_top" xlink:title=" ">
<polygon fill="white" stroke="#666666" points="1577.12,-99 1462.88,-99 1462.88,-67 1577.12,-67 1577.12,-99"/>
<text text-anchor="start" x="1470.88" y="-85.5" font-family="Helvetica,sans-Serif" font-size="10.00">LibLoader::LoaderMain</text>
<text text-anchor="middle" x="1520" y="-73.5" font-family="Helvetica,sans-Serif" font-size="10.00">::tick</text>
</a>
</g>
</g>
<!-- Node29&#45;&gt;Node30 -->
<g id="edge33_Node000029_Node000030" class="edge">
<title>Node29&#45;&gt;Node30</title>
<g id="a_edge33_Node000029_Node000030"><a xlink:title=" ">
<path fill="none" stroke="#63b8ff" d="M1791.94,-83C1729.04,-83 1636.44,-83 1577.43,-83"/>
<polygon fill="#63b8ff" stroke="#63b8ff" points="1791.81,-86.5 1801.81,-83 1791.81,-79.5 1791.81,-86.5"/>
</a>
</g>
</g>
<!-- Node30&#45;&gt;Node9 -->
<g id="edge34_Node000030_Node000009" class="edge">
<title>Node30&#45;&gt;Node9</title>
<g id="a_edge34_Node000030_Node000009"><a xlink:title=" ">
<path fill="none" stroke="#63b8ff" d="M1451.5,-64.36C1382.87,-47.07 1273.18,-24 1176.62,-24 1176.62,-24 1176.62,-24 1014.62,-24 920.69,-24 811.5,-20.61 746.79,-18.24"/>
<polygon fill="#63b8ff" stroke="#63b8ff" points="1450.55,-67.73 1461.1,-66.81 1452.28,-60.95 1450.55,-67.73"/>
</a>
</g>
</g>
</g>
</svg>
