<?xml version="1.0" encoding="UTF-8" standalone="no"?>
<!DOCTYPE svg PUBLIC "-//W3C//DTD SVG 1.1//EN"
 "http://www.w3.org/Graphics/SVG/1.1/DTD/svg11.dtd">
<!-- Generated by graphviz version 9.0.0 (0)
 -->
<!-- Title: MiraiCP::Contact::unpackMsg Pages: 1 -->
<svg width="1988pt" height="413pt"
 viewBox="0.00 0.00 1988.00 413.17" xmlns="http://www.w3.org/2000/svg" xmlns:xlink="http://www.w3.org/1999/xlink">
<g id="graph0" class="graph" transform="scale(1 1) rotate(0) translate(4 409.17)">
<title>MiraiCP::Contact::unpackMsg</title>
<!-- Node1 -->
<g id="Node000001" class="node">
<title>Node1</title>
<g id="a_Node000001"><a xlink:title=" ">
<polygon fill="#999999" stroke="#666666" points="148,-124.17 0,-124.17 0,-104.17 148,-104.17 148,-124.17"/>
<text text-anchor="middle" x="74" y="-110.67" font-family="Helvetica,sans-Serif" font-size="10.00">MiraiCP::Contact::unpackMsg</text>
</a>
</g>
</g>
<!-- Node2 -->
<g id="Node000002" class="node">
<title>Node2</title>
<g id="a_Node000002"><a xlink:href="a00652.html#a682d6d47c049ff53477d495a8ec3a97c" target="_top" xlink:title="从miraicode string构建MessageChain">
<polygon fill="white" stroke="#666666" points="337.62,-231.17 186.62,-231.17 186.62,-199.17 337.62,-199.17 337.62,-231.17"/>
<text text-anchor="start" x="194.62" y="-217.67" font-family="Helvetica,sans-Serif" font-size="10.00">MiraiCP::MessageChain</text>
<text text-anchor="middle" x="262.12" y="-205.67" font-family="Helvetica,sans-Serif" font-size="10.00">::deserializationFromMiraiCode</text>
</a>
</g>
</g>
<!-- Node1&#45;&gt;Node2 -->
<g id="edge1_Node000001_Node000002" class="edge">
<title>Node1&#45;&gt;Node2</title>
<g id="a_edge1_Node000001_Node000002"><a xlink:title=" ">
<path fill="none" stroke="#63b8ff" d="M94.22,-124.6C123.97,-140.74 181.84,-172.14 220.99,-193.39"/>
<polygon fill="#63b8ff" stroke="#63b8ff" points="219.21,-196.41 229.67,-198.1 222.55,-190.25 219.21,-196.41"/>
</a>
</g>
</g>
<!-- Node23 -->
<g id="Node000023" class="node">
<title>Node23</title>
<g id="a_Node000023"><a xlink:href="a00460.html#aa448a5ef12e3572c0cf751a3f37f7519" target="_top" xlink:title=" ">
<polygon fill="white" stroke="#666666" points="340.25,-146.17 184,-146.17 184,-126.17 340.25,-126.17 340.25,-146.17"/>
<text text-anchor="middle" x="262.12" y="-132.67" font-family="Helvetica,sans-Serif" font-size="10.00">MiraiCP::Contact::sendMsgImpl</text>
</a>
</g>
</g>
<!-- Node1&#45;&gt;Node23 -->
<g id="edge28_Node000001_Node000023" class="edge">
<title>Node1&#45;&gt;Node23</title>
<g id="a_edge28_Node000001_Node000023"><a xlink:title=" ">
<path fill="none" stroke="#63b8ff" d="M148.29,-122.83C156.18,-123.76 164.26,-124.72 172.3,-125.67"/>
<polygon fill="#63b8ff" stroke="#63b8ff" points="171.76,-129.13 182.1,-126.83 172.58,-122.18 171.76,-129.13"/>
</a>
</g>
</g>
<!-- Node26 -->
<g id="Node000026" class="node">
<title>Node26</title>
<g id="a_Node000026"><a xlink:href="a00660.html#a96bdd3af5e564960b2b7f562032b1a15" target="_top" xlink:title="返回MiraiCode">
<polygon fill="white" stroke="#666666" points="321.88,-108.17 202.38,-108.17 202.38,-76.17 321.88,-76.17 321.88,-108.17"/>
<text text-anchor="start" x="210.38" y="-94.67" font-family="Helvetica,sans-Serif" font-size="10.00">MiraiCP::MiraiCodeable</text>
<text text-anchor="middle" x="262.12" y="-82.67" font-family="Helvetica,sans-Serif" font-size="10.00">::toMiraiCode</text>
</a>
</g>
</g>
<!-- Node1&#45;&gt;Node26 -->
<g id="edge33_Node000001_Node000026" class="edge">
<title>Node1&#45;&gt;Node26</title>
<g id="a_edge33_Node000001_Node000026"><a xlink:title=" ">
<path fill="none" stroke="#63b8ff" d="M148.29,-105.5C162.2,-103.86 176.73,-102.14 190.55,-100.51"/>
<polygon fill="#63b8ff" stroke="#63b8ff" points="190.94,-103.99 200.46,-99.34 190.12,-97.04 190.94,-103.99"/>
</a>
</g>
</g>
<!-- Node27 -->
<g id="Node000027" class="node">
<title>Node27</title>
<g id="a_Node000027"><a xlink:href="a00652.html#a281c3d583cd554e89ad2aa2286435bca" target="_top" xlink:title=" ">
<polygon fill="white" stroke="#666666" points="323.38,-58.17 200.88,-58.17 200.88,-26.17 323.38,-26.17 323.38,-58.17"/>
<text text-anchor="start" x="208.88" y="-44.67" font-family="Helvetica,sans-Serif" font-size="10.00">MiraiCP::MessageChain</text>
<text text-anchor="middle" x="262.12" y="-32.67" font-family="Helvetica,sans-Serif" font-size="10.00">::toString</text>
</a>
</g>
</g>
<!-- Node1&#45;&gt;Node27 -->
<g id="edge34_Node000001_Node000027" class="edge">
<title>Node1&#45;&gt;Node27</title>
<g id="a_edge34_Node000001_Node000027"><a xlink:title=" ">
<path fill="none" stroke="#63b8ff" d="M97.29,-103.82C119.15,-93.86 153.53,-78.65 184,-67.17 188.37,-65.52 192.91,-63.88 197.49,-62.27"/>
<polygon fill="#63b8ff" stroke="#63b8ff" points="198.45,-65.64 206.78,-59.09 196.18,-59.02 198.45,-65.64"/>
</a>
</g>
</g>
<!-- Node3 -->
<g id="Node000003" class="node">
<title>Node3</title>
<g id="a_Node000003"><a xlink:href="a00652.html#ad76190cce563a29637e62105e7db52d9" target="_top" xlink:title=" ">
<polygon fill="white" stroke="#666666" points="543.75,-275.17 376.25,-275.17 376.25,-243.17 543.75,-243.17 543.75,-275.17"/>
<text text-anchor="start" x="384.25" y="-261.67" font-family="Helvetica,sans-Serif" font-size="10.00">MiraiCP::MessageChain</text>
<text text-anchor="middle" x="460" y="-249.67" font-family="Helvetica,sans-Serif" font-size="10.00">::deserializationFromMessageJson</text>
</a>
</g>
</g>
<!-- Node2&#45;&gt;Node3 -->
<g id="edge2_Node000002_Node000003" class="edge">
<title>Node2&#45;&gt;Node3</title>
<g id="a_edge2_Node000002_Node000003"><a xlink:title=" ">
<path fill="none" stroke="#63b8ff" d="M336.34,-231.61C348.78,-234.41 361.79,-237.33 374.49,-240.18"/>
<polygon fill="#63b8ff" stroke="#63b8ff" points="373.55,-243.56 384.07,-242.34 375.08,-236.73 373.55,-243.56"/>
</a>
</g>
</g>
<!-- Node12 -->
<g id="Node000012" class="node">
<title>Node12</title>
<g id="a_Node000012"><a xlink:href="a00435.html#a1e1e498928eeaa1d7107033ff5fa881a" target="_top" xlink:title="调用 Mirai 操作">
<polygon fill="white" stroke="#666666" points="718,-149.17 609,-149.17 609,-117.17 718,-117.17 718,-149.17"/>
<text text-anchor="start" x="617" y="-135.67" font-family="Helvetica,sans-Serif" font-size="10.00">MiraiCP::KtOperation</text>
<text text-anchor="middle" x="663.5" y="-123.67" font-family="Helvetica,sans-Serif" font-size="10.00">::ktOperationStr</text>
</a>
</g>
</g>
<!-- Node2&#45;&gt;Node12 -->
<g id="edge13_Node000002_Node000012" class="edge">
<title>Node2&#45;&gt;Node12</title>
<g id="a_edge13_Node000002_Node000012"><a xlink:title=" ">
<path fill="none" stroke="#63b8ff" d="M337.9,-200.13C394.45,-188.72 474.01,-172.59 543.75,-158.17 561.18,-154.56 580.04,-150.61 597.49,-146.94"/>
<polygon fill="#63b8ff" stroke="#63b8ff" points="598.18,-150.37 607.24,-144.89 596.73,-143.52 598.18,-150.37"/>
</a>
</g>
</g>
<!-- Node4 -->
<g id="Node000004" class="node">
<title>Node4</title>
<g id="a_Node000004"><a xlink:href="a00652.html#a784cfbcfd8efea6f6c5a2a3b9131bb1f" target="_top" xlink:title="使用emplace_back构造Message添加元素">
<polygon fill="white" stroke="#666666" points="735.62,-305.17 591.38,-305.17 591.38,-285.17 735.62,-285.17 735.62,-305.17"/>
<text text-anchor="middle" x="663.5" y="-291.67" font-family="Helvetica,sans-Serif" font-size="10.00">MiraiCP::MessageChain::add</text>
</a>
</g>
</g>
<!-- Node3&#45;&gt;Node4 -->
<g id="edge3_Node000003_Node000004" class="edge">
<title>Node3&#45;&gt;Node4</title>
<g id="a_edge3_Node000003_Node000004"><a xlink:title=" ">
<path fill="none" stroke="#63b8ff" d="M544.12,-274.02C560.26,-276.9 577.02,-279.9 592.68,-282.69"/>
<polygon fill="#63b8ff" stroke="#63b8ff" points="591.91,-286.11 602.37,-284.43 593.14,-279.22 591.91,-286.11"/>
</a>
</g>
</g>
<!-- Node5 -->
<g id="Node000005" class="node">
<title>Node5</title>
<g id="a_Node000005"><a xlink:href="a00600.html#ac802edcd83cf04abe4cc602c901a933f" target="_top" xlink:title=" ">
<polygon fill="white" stroke="#666666" points="747.25,-249.17 579.75,-249.17 579.75,-217.17 747.25,-217.17 747.25,-249.17"/>
<text text-anchor="start" x="587.75" y="-235.67" font-family="Helvetica,sans-Serif" font-size="10.00">MiraiCP::ForwardedMessage</text>
<text text-anchor="middle" x="663.5" y="-223.67" font-family="Helvetica,sans-Serif" font-size="10.00">::deserializationFromMessageJson</text>
</a>
</g>
</g>
<!-- Node3&#45;&gt;Node5 -->
<g id="edge4_Node000003_Node000005" class="edge">
<title>Node3&#45;&gt;Node5</title>
<g id="a_edge4_Node000003_Node000005"><a xlink:title=" ">
<path fill="none" stroke="#63b8ff" d="M537.75,-242.69C547.8,-241.24 558.18,-239.85 568.47,-238.56"/>
<polygon fill="#63b8ff" stroke="#63b8ff" points="568.58,-242.08 578.08,-237.39 567.73,-235.13 568.58,-242.08"/>
</a>
</g>
</g>
<!-- Node8 -->
<g id="Node000008" class="node">
<title>Node8</title>
<g id="a_Node000008"><a xlink:href="a00656.html#a1f98db6bbdf6b7d178bf92f55fd2e4dc" target="_top" xlink:title="从json字符串反序列化到MessageSource对象">
<polygon fill="white" stroke="#666666" points="727.38,-199.17 599.62,-199.17 599.62,-167.17 727.38,-167.17 727.38,-199.17"/>
<text text-anchor="start" x="607.62" y="-185.67" font-family="Helvetica,sans-Serif" font-size="10.00">MiraiCP::MessageSource</text>
<text text-anchor="middle" x="663.5" y="-173.67" font-family="Helvetica,sans-Serif" font-size="10.00">::deserializeFromString</text>
</a>
</g>
</g>
<!-- Node3&#45;&gt;Node8 -->
<g id="edge9_Node000003_Node000008" class="edge">
<title>Node3&#45;&gt;Node8</title>
<g id="a_edge9_Node000003_Node000008"><a xlink:title=" ">
<path fill="none" stroke="#63b8ff" d="M511.04,-242.67C521.97,-238.62 533.37,-234.03 543.75,-229.17 560.53,-221.31 562.77,-215.56 579.75,-208.17 583.55,-206.51 587.5,-204.92 591.51,-203.41"/>
<polygon fill="#63b8ff" stroke="#63b8ff" points="592.58,-206.74 600.81,-200.07 590.22,-200.15 592.58,-206.74"/>
</a>
</g>
</g>
<!-- Node10 -->
<g id="Node000010" class="node">
<title>Node10</title>
<g id="a_Node000010"><a xlink:href="a00676.html#a02de0179d4a665d29ca9350be9f1e63e" target="_top" xlink:title="找对应类型的index key">
<polygon fill="white" stroke="#666666" points="725.5,-405.17 601.5,-405.17 601.5,-373.17 725.5,-373.17 725.5,-405.17"/>
<text text-anchor="start" x="609.5" y="-391.67" font-family="Helvetica,sans-Serif" font-size="10.00">MiraiCP::SingleMessage</text>
<text text-anchor="middle" x="663.5" y="-379.67" font-family="Helvetica,sans-Serif" font-size="10.00">::getKey</text>
</a>
</g>
</g>
<!-- Node3&#45;&gt;Node10 -->
<g id="edge11_Node000003_Node000010" class="edge">
<title>Node3&#45;&gt;Node10</title>
<g id="a_edge11_Node000003_Node000010"><a xlink:title=" ">
<path fill="none" stroke="#63b8ff" d="M475.09,-275.44C495.81,-298.4 536.73,-340.18 579.75,-364.17 583.2,-366.09 586.81,-367.88 590.52,-369.55"/>
<polygon fill="#63b8ff" stroke="#63b8ff" points="589.17,-372.78 599.75,-373.35 591.84,-366.31 589.17,-372.78"/>
</a>
</g>
</g>
<!-- Node11 -->
<g id="Node000011" class="node">
<title>Node11</title>
<g id="a_Node000011"><a xlink:href="a00628.html#a279a66d53b8b825f4a9ebc8fe30f20d6" target="_top" xlink:title="发送警告(warning级日志)">
<polygon fill="white" stroke="#666666" points="728.12,-355.17 598.88,-355.17 598.88,-323.17 728.12,-323.17 728.12,-355.17"/>
<text text-anchor="start" x="606.88" y="-341.67" font-family="Helvetica,sans-Serif" font-size="10.00">MiraiCP::Logger_interface</text>
<text text-anchor="middle" x="663.5" y="-329.67" font-family="Helvetica,sans-Serif" font-size="10.00">::warning</text>
</a>
</g>
</g>
<!-- Node3&#45;&gt;Node11 -->
<g id="edge12_Node000003_Node000011" class="edge">
<title>Node3&#45;&gt;Node11</title>
<g id="a_edge12_Node000003_Node000011"><a xlink:title=" ">
<path fill="none" stroke="#63b8ff" d="M493.23,-275.6C516.83,-287.25 549.81,-302.78 579.75,-314.17 584.17,-315.85 588.75,-317.5 593.39,-319.09"/>
<polygon fill="#63b8ff" stroke="#63b8ff" points="592.25,-322.4 602.84,-322.23 594.46,-315.75 592.25,-322.4"/>
</a>
</g>
</g>
<!-- Node5&#45;&gt;Node3 -->
<g id="edge7_Node000005_Node000003" class="edge">
<title>Node5&#45;&gt;Node3</title>
<g id="a_edge7_Node000005_Node000003"><a xlink:title=" ">
<path fill="none" stroke="#63b8ff" d="M585.71,-249.65C575.83,-251.07 565.62,-252.44 555.49,-253.71"/>
<polygon fill="#63b8ff" stroke="#63b8ff" points="555.13,-250.23 545.62,-254.92 555.97,-257.18 555.13,-250.23"/>
</a>
</g>
</g>
<!-- Node5&#45;&gt;Node5 -->
<g id="edge6_Node000005_Node000005" class="edge">
<title>Node5&#45;&gt;Node5</title>
<g id="a_edge6_Node000005_Node000005"><a xlink:title=" ">
<path fill="none" stroke="#63b8ff" d="M628.04,-249.61C621.42,-258.75 633.24,-267.17 663.5,-267.17 680.05,-267.17 691.08,-264.65 696.6,-260.87"/>
<polygon fill="#63b8ff" stroke="#63b8ff" points="700.02,-261.6 698.65,-251.09 693.17,-260.16 700.02,-261.6"/>
</a>
</g>
</g>
<!-- Node6 -->
<g id="Node000006" class="node">
<title>Node6</title>
<g id="a_Node000006"><a xlink:href="a00592.html#ae41f2b998365484dba1ff3f32563dfbb" target="_top" xlink:title=" ">
<polygon fill="white" stroke="#666666" points="941,-299.17 783.25,-299.17 783.25,-267.17 941,-267.17 941,-299.17"/>
<text text-anchor="start" x="791.25" y="-285.67" font-family="Helvetica,sans-Serif" font-size="10.00">MiraiCP::ForwardedMessage</text>
<text text-anchor="middle" x="862.12" y="-273.67" font-family="Helvetica,sans-Serif" font-size="10.00">DisplayStrategy::defaultStrategy</text>
</a>
</g>
</g>
<!-- Node5&#45;&gt;Node6 -->
<g id="edge5_Node000005_Node000006" class="edge">
<title>Node5&#45;&gt;Node6</title>
<g id="a_edge5_Node000005_Node000006"><a xlink:title=" ">
<path fill="none" stroke="#63b8ff" d="M729.15,-249.61C747.13,-254.18 766.81,-259.18 785.36,-263.9"/>
<polygon fill="#63b8ff" stroke="#63b8ff" points="784.41,-267.27 794.96,-266.34 786.14,-260.49 784.41,-267.27"/>
</a>
</g>
</g>
<!-- Node7 -->
<g id="Node000007" class="node">
<title>Node7</title>
<g id="a_Node000007"><a xlink:href="a00592.html#ae93025f6346a4d8c257da1f453097d6a" target="_top" xlink:title=" ">
<polygon fill="white" stroke="#666666" points="933.5,-249.17 790.75,-249.17 790.75,-217.17 933.5,-217.17 933.5,-249.17"/>
<text text-anchor="start" x="798.75" y="-235.67" font-family="Helvetica,sans-Serif" font-size="10.00">MiraiCP::ForwardedMessage</text>
<text text-anchor="middle" x="862.12" y="-223.67" font-family="Helvetica,sans-Serif" font-size="10.00">DisplayStrategy::fromJson</text>
</a>
</g>
</g>
<!-- Node5&#45;&gt;Node7 -->
<g id="edge8_Node000005_Node000007" class="edge">
<title>Node5&#45;&gt;Node7</title>
<g id="a_edge8_Node000005_Node000007"><a xlink:title=" ">
<path fill="none" stroke="#63b8ff" d="M747.6,-233.17C758.07,-233.17 768.77,-233.17 779.22,-233.17"/>
<polygon fill="#63b8ff" stroke="#63b8ff" points="778.92,-236.67 788.92,-233.17 778.92,-229.67 778.92,-236.67"/>
</a>
</g>
</g>
<!-- Node9 -->
<g id="Node000009" class="node">
<title>Node9</title>
<g id="a_Node000009"><a xlink:href="a00628.html#af14d39efa300da183070784bc86d3f23" target="_top" xlink:title="发送错误(error级日志)">
<polygon fill="white" stroke="#666666" points="926.75,-199.17 797.5,-199.17 797.5,-167.17 926.75,-167.17 926.75,-199.17"/>
<text text-anchor="start" x="805.5" y="-185.67" font-family="Helvetica,sans-Serif" font-size="10.00">MiraiCP::Logger_interface</text>
<text text-anchor="middle" x="862.12" y="-173.67" font-family="Helvetica,sans-Serif" font-size="10.00">::error</text>
</a>
</g>
</g>
<!-- Node8&#45;&gt;Node9 -->
<g id="edge10_Node000008_Node000009" class="edge">
<title>Node8&#45;&gt;Node9</title>
<g id="a_edge10_Node000008_Node000009"><a xlink:title=" ">
<path fill="none" stroke="#63b8ff" d="M727.8,-183.17C746.29,-183.17 766.69,-183.17 785.85,-183.17"/>
<polygon fill="#63b8ff" stroke="#63b8ff" points="785.76,-186.67 795.76,-183.17 785.76,-179.67 785.76,-186.67"/>
</a>
</g>
</g>
<!-- Node13 -->
<g id="Node000013" class="node">
<title>Node13</title>
<g id="a_Node000013"><a xlink:href="a00426.html#a4c6ac4cf4ba5ff0adb7656708bbb67d0" target="_top" xlink:title="interfaces for plugins">
<polygon fill="white" stroke="#666666" points="915.88,-149.17 808.38,-149.17 808.38,-117.17 915.88,-117.17 915.88,-149.17"/>
<text text-anchor="start" x="816.38" y="-135.67" font-family="Helvetica,sans-Serif" font-size="10.00">LibLoader::LoaderApi</text>
<text text-anchor="middle" x="862.12" y="-123.67" font-family="Helvetica,sans-Serif" font-size="10.00">::pluginOperation</text>
</a>
</g>
</g>
<!-- Node12&#45;&gt;Node13 -->
<g id="edge14_Node000012_Node000013" class="edge">
<title>Node12&#45;&gt;Node13</title>
<g id="a_edge14_Node000012_Node000013"><a xlink:title=" ">
<path fill="none" stroke="#63b8ff" d="M718.49,-133.17C742.64,-133.17 771.31,-133.17 796.59,-133.17"/>
<polygon fill="#63b8ff" stroke="#63b8ff" points="796.42,-136.67 806.42,-133.17 796.42,-129.67 796.42,-136.67"/>
</a>
</g>
</g>
<!-- Node14 -->
<g id="Node000014" class="node">
<title>Node14</title>
<g id="a_Node000014"><a xlink:href="a00780.html#acc90fdac094544c4ddd9d6fd13baa5da" target="_top" xlink:title=" ">
<polygon fill="white" stroke="#666666" points="1115.25,-212.17 977,-212.17 977,-180.17 1115.25,-180.17 1115.25,-212.17"/>
<text text-anchor="start" x="985" y="-198.67" font-family="Helvetica,sans-Serif" font-size="10.00">MiraiCP::MiraiCPStringview</text>
<text text-anchor="middle" x="1046.12" y="-186.67" font-family="Helvetica,sans-Serif" font-size="10.00">::c_str</text>
</a>
</g>
</g>
<!-- Node13&#45;&gt;Node14 -->
<g id="edge15_Node000013_Node000014" class="edge">
<title>Node13&#45;&gt;Node14</title>
<g id="a_edge15_Node000013_Node000014"><a xlink:title=" ">
<path fill="none" stroke="#63b8ff" d="M915.16,-149.56C923.81,-152.37 932.67,-155.31 941,-158.17 957.12,-163.7 974.55,-169.95 990.45,-175.76"/>
<polygon fill="#63b8ff" stroke="#63b8ff" points="989.17,-179.01 999.76,-179.18 991.58,-172.44 989.17,-179.01"/>
</a>
</g>
</g>
<!-- Node15 -->
<g id="Node000015" class="node">
<title>Node15</title>
<g id="a_Node000015"><a xlink:href="a00840.html#aea7d58ff9f04d6d4849c25a2506603a5" target="_top" xlink:title="取env,如果不存在重新获取">
<polygon fill="white" stroke="#666666" points="1729.75,-124.17 1606.5,-124.17 1606.5,-104.17 1729.75,-104.17 1729.75,-124.17"/>
<text text-anchor="middle" x="1668.12" y="-110.67" font-family="Helvetica,sans-Serif" font-size="10.00">JNIEnvManager::getEnv</text>
</a>
</g>
</g>
<!-- Node13&#45;&gt;Node15 -->
<g id="edge16_Node000013_Node000015" class="edge">
<title>Node13&#45;&gt;Node15</title>
<g id="a_edge16_Node000013_Node000015"><a xlink:title=" ">
<path fill="none" stroke="#63b8ff" d="M916.19,-137.86C984.45,-143.49 1106.71,-152.17 1211.5,-152.17 1211.5,-152.17 1211.5,-152.17 1372,-152.17 1453.29,-152.17 1546.15,-137.81 1605.65,-126.75"/>
<polygon fill="#63b8ff" stroke="#63b8ff" points="1606.06,-130.23 1615.24,-124.93 1604.76,-123.35 1606.06,-130.23"/>
</a>
</g>
</g>
<!-- Node18 -->
<g id="Node000018" class="node">
<title>Node18</title>
<g id="a_Node000018"><a xlink:href="a00425.html#aa5f8d0ecd9dd392b491070aace643ae3" target="_top" xlink:title=" ">
<polygon fill="white" stroke="#666666" points="1265.88,-124.17 1159.12,-124.17 1159.12,-104.17 1265.88,-104.17 1265.88,-124.17"/>
<text text-anchor="middle" x="1212.5" y="-110.67" font-family="Helvetica,sans-Serif" font-size="10.00">LibLoader::jstring2str</text>
</a>
</g>
</g>
<!-- Node13&#45;&gt;Node18 -->
<g id="edge19_Node000013_Node000018" class="edge">
<title>Node13&#45;&gt;Node18</title>
<g id="a_edge19_Node000013_Node000018"><a xlink:title=" ">
<path fill="none" stroke="#63b8ff" d="M916.04,-130.28C978.11,-126.9 1080.99,-121.29 1147.5,-117.66"/>
<polygon fill="#63b8ff" stroke="#63b8ff" points="1147.36,-121.17 1157.15,-117.13 1146.98,-114.18 1147.36,-121.17"/>
</a>
</g>
</g>
<!-- Node20 -->
<g id="Node000020" class="node">
<title>Node20</title>
<g id="a_Node000020"><a xlink:href="a00425.html#a6a6fcd695791253a9b3a053d313b2b93" target="_top" xlink:title=" ">
<polygon fill="white" stroke="#666666" points="1099.5,-64.17 992.75,-64.17 992.75,-44.17 1099.5,-44.17 1099.5,-64.17"/>
<text text-anchor="middle" x="1046.12" y="-50.67" font-family="Helvetica,sans-Serif" font-size="10.00">LibLoader::str2jstring</text>
</a>
</g>
</g>
<!-- Node13&#45;&gt;Node20 -->
<g id="edge22_Node000013_Node000020" class="edge">
<title>Node13&#45;&gt;Node20</title>
<g id="a_edge22_Node000013_Node000020"><a xlink:title=" ">
<path fill="none" stroke="#63b8ff" d="M900.84,-116.8C933.15,-102.77 979.32,-82.73 1010.66,-69.13"/>
<polygon fill="#63b8ff" stroke="#63b8ff" points="1011.92,-72.4 1019.7,-65.21 1009.13,-65.98 1011.92,-72.4"/>
</a>
</g>
</g>
<!-- Node16 -->
<g id="Node000016" class="node">
<title>Node16</title>
<g id="a_Node000016"><a xlink:href="a00260.html#a3d31403b7971274d47d308245206bd24" target="_top" xlink:title="为当前线程创建一个env.">
<polygon fill="white" stroke="#666666" points="1817,-124.17 1765.75,-124.17 1765.75,-104.17 1817,-104.17 1817,-124.17"/>
<text text-anchor="middle" x="1791.38" y="-110.67" font-family="Helvetica,sans-Serif" font-size="10.00">newEnv</text>
</a>
</g>
</g>
<!-- Node15&#45;&gt;Node16 -->
<g id="edge17_Node000015_Node000016" class="edge">
<title>Node15&#45;&gt;Node16</title>
<g id="a_edge17_Node000015_Node000016"><a xlink:title=" ">
<path fill="none" stroke="#63b8ff" d="M1730.11,-114.17C1738.31,-114.17 1746.51,-114.17 1754.09,-114.17"/>
<polygon fill="#63b8ff" stroke="#63b8ff" points="1753.91,-117.67 1763.91,-114.17 1753.91,-110.67 1753.91,-117.67"/>
</a>
</g>
</g>
<!-- Node17 -->
<g id="Node000017" class="node">
<title>Node17</title>
<g id="a_Node000017"><a xlink:href="a00840.html#ae0e482c6a813848a8f5d34957d1b6307" target="_top" xlink:title="获取全局JavaVM对象.">
<polygon fill="white" stroke="#666666" points="1980,-124.17 1853,-124.17 1853,-104.17 1980,-104.17 1980,-124.17"/>
<text text-anchor="middle" x="1916.5" y="-110.67" font-family="Helvetica,sans-Serif" font-size="10.00">JNIEnvManager::getGvm</text>
</a>
</g>
</g>
<!-- Node16&#45;&gt;Node17 -->
<g id="edge18_Node000016_Node000017" class="edge">
<title>Node16&#45;&gt;Node17</title>
<g id="a_edge18_Node000016_Node000017"><a xlink:title=" ">
<path fill="none" stroke="#63b8ff" d="M1817.29,-114.17C1824.47,-114.17 1832.7,-114.17 1841.27,-114.17"/>
<polygon fill="#63b8ff" stroke="#63b8ff" points="1841.16,-117.67 1851.16,-114.17 1841.16,-110.67 1841.16,-117.67"/>
</a>
</g>
</g>
<!-- Node19 -->
<g id="Node000019" class="node">
<title>Node19</title>
<g id="a_Node000019"><a xlink:href="a00430.html#a076c5f4ff8083c7cfc6523498d0ba30f" target="_top" xlink:title=" ">
<polygon fill="white" stroke="#666666" points="1570.5,-108.17 1468.25,-108.17 1468.25,-76.17 1570.5,-76.17 1570.5,-108.17"/>
<text text-anchor="start" x="1476.25" y="-94.67" font-family="Helvetica,sans-Serif" font-size="10.00">LibLoader::JNIEnvs</text>
<text text-anchor="middle" x="1519.38" y="-82.67" font-family="Helvetica,sans-Serif" font-size="10.00">::getEnv</text>
</a>
</g>
</g>
<!-- Node18&#45;&gt;Node19 -->
<g id="edge20_Node000018_Node000019" class="edge">
<title>Node18&#45;&gt;Node19</title>
<g id="a_edge20_Node000018_Node000019"><a xlink:title=" ">
<path fill="none" stroke="#63b8ff" d="M1266.26,-110.36C1319.19,-106.54 1400.69,-100.66 1456.61,-96.63"/>
<polygon fill="#63b8ff" stroke="#63b8ff" points="1456.55,-100.14 1466.27,-95.93 1456.05,-93.16 1456.55,-100.14"/>
</a>
</g>
</g>
<!-- Node19&#45;&gt;Node15 -->
<g id="edge21_Node000019_Node000015" class="edge">
<title>Node19&#45;&gt;Node15</title>
<g id="a_edge21_Node000019_Node000015"><a xlink:title=" ">
<path fill="none" stroke="#63b8ff" d="M1570.88,-99.74C1578.6,-100.9 1586.69,-102.11 1594.77,-103.32"/>
<polygon fill="#63b8ff" stroke="#63b8ff" points="1594.24,-106.78 1604.65,-104.8 1595.28,-99.86 1594.24,-106.78"/>
</a>
</g>
</g>
<!-- Node20&#45;&gt;Node19 -->
<g id="edge23_Node000020_Node000019" class="edge">
<title>Node20&#45;&gt;Node19</title>
<g id="a_edge23_Node000020_Node000019"><a xlink:title=" ">
<path fill="none" stroke="#63b8ff" d="M1099.81,-58.42C1187.54,-65.49 1363.12,-79.65 1456.56,-87.18"/>
<polygon fill="#63b8ff" stroke="#63b8ff" points="1456.05,-90.65 1466.3,-87.97 1456.62,-83.68 1456.05,-90.65"/>
</a>
</g>
</g>
<!-- Node21 -->
<g id="Node000021" class="node">
<title>Node21</title>
<g id="a_Node000021"><a xlink:href="a00872.html#af50d0545fe7d683e54fcd03453a423e3" target="_top" xlink:title=" ">
<polygon fill="white" stroke="#666666" points="1273.75,-48.17 1151.25,-48.17 1151.25,-16.17 1273.75,-16.17 1273.75,-48.17"/>
<text text-anchor="start" x="1159.25" y="-34.67" font-family="Helvetica,sans-Serif" font-size="10.00">LibLoader::LoaderLogger</text>
<text text-anchor="middle" x="1212.5" y="-22.67" font-family="Helvetica,sans-Serif" font-size="10.00">::warning</text>
</a>
</g>
</g>
<!-- Node20&#45;&gt;Node21 -->
<g id="edge24_Node000020_Node000021" class="edge">
<title>Node20&#45;&gt;Node21</title>
<g id="a_edge24_Node000020_Node000021"><a xlink:title=" ">
<path fill="none" stroke="#63b8ff" d="M1099.59,-47.15C1112.36,-45.44 1126.24,-43.58 1139.74,-41.77"/>
<polygon fill="#63b8ff" stroke="#63b8ff" points="1140,-45.27 1149.45,-40.47 1139.08,-38.33 1140,-45.27"/>
</a>
</g>
</g>
<!-- Node22 -->
<g id="Node000022" class="node">
<title>Node22</title>
<g id="a_Node000022"><a xlink:href="a00872.html#af4d7d5164450e25f7401d1cc15f15b8d" target="_top" xlink:title="实际暴露的接口">
<polygon fill="white" stroke="#666666" points="1432.25,-48.17 1309.75,-48.17 1309.75,-16.17 1432.25,-16.17 1432.25,-48.17"/>
<text text-anchor="start" x="1317.75" y="-34.67" font-family="Helvetica,sans-Serif" font-size="10.00">LibLoader::LoaderLogger</text>
<text text-anchor="middle" x="1371" y="-22.67" font-family="Helvetica,sans-Serif" font-size="10.00">::call_logger</text>
</a>
</g>
</g>
<!-- Node21&#45;&gt;Node22 -->
<g id="edge25_Node000021_Node000022" class="edge">
<title>Node21&#45;&gt;Node22</title>
<g id="a_edge25_Node000021_Node000022"><a xlink:title=" ">
<path fill="none" stroke="#63b8ff" d="M1274.01,-32.17C1281.9,-32.17 1290.05,-32.17 1298.1,-32.17"/>
<polygon fill="#63b8ff" stroke="#63b8ff" points="1297.88,-35.67 1307.88,-32.17 1297.88,-28.67 1297.88,-35.67"/>
</a>
</g>
</g>
<!-- Node22&#45;&gt;Node19 -->
<g id="edge26_Node000022_Node000019" class="edge">
<title>Node22&#45;&gt;Node19</title>
<g id="a_edge26_Node000022_Node000019"><a xlink:title=" ">
<path fill="none" stroke="#63b8ff" d="M1412,-48.56C1429.19,-55.61 1449.49,-63.93 1467.72,-71.4"/>
<polygon fill="#63b8ff" stroke="#63b8ff" points="1466.19,-74.56 1476.77,-75.11 1468.85,-68.08 1466.19,-74.56"/>
</a>
</g>
</g>
<!-- Node22&#45;&gt;Node20 -->
<g id="edge27_Node000022_Node000020" class="edge">
<title>Node22&#45;&gt;Node20</title>
<g id="a_edge27_Node000022_Node000020"><a xlink:title=" ">
<path fill="none" stroke="#63b8ff" d="M1316.51,-15.71C1302.71,-12.17 1287.79,-8.96 1273.75,-7.17 1219.74,-0.27 1204.48,4.29 1151.25,-7.17 1123.51,-13.14 1094.26,-27.11 1073.84,-38.28"/>
<polygon fill="#63b8ff" stroke="#63b8ff" points="1072.34,-35.11 1065.35,-43.07 1075.78,-41.21 1072.34,-35.11"/>
</a>
</g>
</g>
<!-- Node23&#45;&gt;Node8 -->
<g id="edge29_Node000023_Node000008" class="edge">
<title>Node23&#45;&gt;Node8</title>
<g id="a_edge29_Node000023_Node000008"><a xlink:title=" ">
<path fill="none" stroke="#63b8ff" d="M311.1,-146.65C331.16,-150.74 354.75,-155.15 376.25,-158.17 447.8,-168.22 530.02,-174.9 587.93,-178.81"/>
<polygon fill="#63b8ff" stroke="#63b8ff" points="587.46,-182.28 597.67,-179.45 587.92,-175.3 587.46,-182.28"/>
</a>
</g>
</g>
<!-- Node24 -->
<g id="Node000024" class="node">
<title>Node24</title>
<g id="a_Node000024"><a xlink:href="a00435.html#a309e8d7f316e8b5e947ea3bcddeb84a8" target="_top" xlink:title="调用 Mirai 操作">
<polygon fill="white" stroke="#666666" points="514.5,-149.17 405.5,-149.17 405.5,-117.17 514.5,-117.17 514.5,-149.17"/>
<text text-anchor="start" x="413.5" y="-135.67" font-family="Helvetica,sans-Serif" font-size="10.00">MiraiCP::KtOperation</text>
<text text-anchor="middle" x="460" y="-123.67" font-family="Helvetica,sans-Serif" font-size="10.00">::ktOperation</text>
</a>
</g>
</g>
<!-- Node23&#45;&gt;Node24 -->
<g id="edge30_Node000023_Node000024" class="edge">
<title>Node23&#45;&gt;Node24</title>
<g id="a_edge30_Node000023_Node000024"><a xlink:title=" ">
<path fill="none" stroke="#63b8ff" d="M340.54,-134.98C358.09,-134.71 376.56,-134.43 393.56,-134.17"/>
<polygon fill="#63b8ff" stroke="#63b8ff" points="393.6,-137.67 403.55,-134.02 393.5,-130.67 393.6,-137.67"/>
</a>
</g>
</g>
<!-- Node25 -->
<g id="Node000025" class="node">
<title>Node25</title>
<g id="a_Node000025"><a xlink:href="a00460.html#a89fb588a12ff2d4de10722788945ea55" target="_top" xlink:title="序列化到json对象">
<polygon fill="white" stroke="#666666" points="523.5,-99.17 396.5,-99.17 396.5,-79.17 523.5,-79.17 523.5,-99.17"/>
<text text-anchor="middle" x="460" y="-85.67" font-family="Helvetica,sans-Serif" font-size="10.00">MiraiCP::Contact::toJson</text>
</a>
</g>
</g>
<!-- Node23&#45;&gt;Node25 -->
<g id="edge32_Node000023_Node000025" class="edge">
<title>Node23&#45;&gt;Node25</title>
<g id="a_edge32_Node000023_Node000025"><a xlink:title=" ">
<path fill="none" stroke="#63b8ff" d="M305.56,-125.74C316.84,-122.96 329.01,-119.96 340.25,-117.17 356.26,-113.2 360.21,-112.01 376.25,-108.17 384.42,-106.21 393.06,-104.18 401.55,-102.21"/>
<polygon fill="#63b8ff" stroke="#63b8ff" points="402.14,-105.66 411.1,-100 400.57,-98.84 402.14,-105.66"/>
</a>
</g>
</g>
<!-- Node24&#45;&gt;Node12 -->
<g id="edge31_Node000024_Node000012" class="edge">
<title>Node24&#45;&gt;Node12</title>
<g id="a_edge31_Node000024_Node000012"><a xlink:title=" ">
<path fill="none" stroke="#63b8ff" d="M515,-133.17C540.4,-133.17 570.89,-133.17 597.54,-133.17"/>
<polygon fill="#63b8ff" stroke="#63b8ff" points="597.19,-136.67 607.19,-133.17 597.19,-129.67 597.19,-136.67"/>
</a>
</g>
</g>
<!-- Node28 -->
<g id="Node000028" class="node">
<title>Node28</title>
<g id="a_Node000028"><a xlink:href="a00652.html#a49c9f029880bf1948cdf22cee341a09a" target="_top" xlink:title=" ">
<polygon fill="white" stroke="#666666" points="521.25,-58.17 398.75,-58.17 398.75,-26.17 521.25,-26.17 521.25,-58.17"/>
<text text-anchor="start" x="406.75" y="-44.67" font-family="Helvetica,sans-Serif" font-size="10.00">MiraiCP::MessageChain</text>
<text text-anchor="middle" x="460" y="-32.67" font-family="Helvetica,sans-Serif" font-size="10.00">::toJson</text>
</a>
</g>
</g>
<!-- Node27&#45;&gt;Node28 -->
<g id="edge35_Node000027_Node000028" class="edge">
<title>Node27&#45;&gt;Node28</title>
<g id="a_edge35_Node000027_Node000028"><a xlink:title=" ">
<path fill="none" stroke="#63b8ff" d="M323.76,-42.17C343.76,-42.17 366.21,-42.17 386.97,-42.17"/>
<polygon fill="#63b8ff" stroke="#63b8ff" points="386.8,-45.67 396.8,-42.17 386.8,-38.67 386.8,-45.67"/>
</a>
</g>
</g>
</g>
</svg>
