<?xml version="1.0" encoding="UTF-8" standalone="no"?>
<!DOCTYPE svg PUBLIC "-//W3C//DTD SVG 1.1//EN"
 "http://www.w3.org/Graphics/SVG/1.1/DTD/svg11.dtd">
<!-- Generated by graphviz version 2.50.0 (20211204.2007)
 -->
<!-- Title: MiraiCP::Contact::id Pages: 1 -->
<svg width="680pt" height="439pt"
 viewBox="0.00 0.00 680.00 439.00" xmlns="http://www.w3.org/2000/svg" xmlns:xlink="http://www.w3.org/1999/xlink">
<g id="graph0" class="graph" transform="scale(1 1) rotate(0) translate(4 435)">
<title>MiraiCP::Contact::id</title>
<polygon fill="white" stroke="transparent" points="-4,4 -4,-435 676,-435 676,4 -4,4"/>
<!-- Node1 -->
<g id="node1" class="node">
<title>Node1</title>
<g id="a_node1"><a xlink:title="id 在全部情况存在">
<polygon fill="#bfbfbf" stroke="black" points="568,-205 568,-224 672,-224 672,-205 568,-205"/>
<text text-anchor="middle" x="620" y="-212" font-family="Helvetica,sans-Serif" font-size="10.00">MiraiCP::Contact::id</text>
</a>
</g>
</g>
<!-- Node2 -->
<g id="node2" class="node">
<title>Node2</title>
<g id="a_node2"><a xlink:href="a00469.html#a3847df3907111c8443c1e1b71ee35d1d" target="_top" xlink:title=" ">
<polygon fill="white" stroke="black" points="376.5,-400.5 376.5,-430.5 505.5,-430.5 505.5,-400.5 376.5,-400.5"/>
<text text-anchor="start" x="384.5" y="-418.5" font-family="Helvetica,sans-Serif" font-size="10.00">MiraiCP::GroupInviteEvent</text>
<text text-anchor="middle" x="441" y="-407.5" font-family="Helvetica,sans-Serif" font-size="10.00">::accept</text>
</a>
</g>
</g>
<!-- Node1&#45;&gt;Node2 -->
<g id="edge1" class="edge">
<title>Node1&#45;&gt;Node2</title>
<path fill="none" stroke="midnightblue" d="M614.26,-234.28C604.75,-269.7 580.05,-344.12 532,-385.5 524.39,-392.06 515.29,-397.19 505.85,-401.21"/>
<polygon fill="midnightblue" stroke="midnightblue" points="617.74,-234.8 616.82,-224.24 610.95,-233.07 617.74,-234.8"/>
</g>
<!-- Node4 -->
<g id="node4" class="node">
<title>Node4</title>
<g id="a_node4"><a xlink:href="a00469.html#a749d773136fff280e951e66e21959a6c" target="_top" xlink:title=" ">
<polygon fill="white" stroke="black" points="5,-368.5 5,-398.5 134,-398.5 134,-368.5 5,-368.5"/>
<text text-anchor="start" x="13" y="-386.5" font-family="Helvetica,sans-Serif" font-size="10.00">MiraiCP::GroupInviteEvent</text>
<text text-anchor="middle" x="69.5" y="-375.5" font-family="Helvetica,sans-Serif" font-size="10.00">::reject</text>
</a>
</g>
</g>
<!-- Node1&#45;&gt;Node4 -->
<g id="edge14" class="edge">
<title>Node1&#45;&gt;Node4</title>
<path fill="none" stroke="midnightblue" d="M613.2,-233.73C602.69,-264.86 577.26,-325.51 532,-352.5 466.56,-391.52 244.59,-389.73 134.08,-386.19"/>
<polygon fill="midnightblue" stroke="midnightblue" points="616.58,-234.64 616.31,-224.05 609.92,-232.51 616.58,-234.64"/>
</g>
<!-- Node5 -->
<g id="node5" class="node">
<title>Node5</title>
<g id="a_node5"><a xlink:href="a00473.html#a460bb7fc7e69cf313e3902ae0101b459" target="_top" xlink:title="接受申请">
<polygon fill="white" stroke="black" points="371.5,-312.5 371.5,-342.5 510.5,-342.5 510.5,-312.5 371.5,-312.5"/>
<text text-anchor="start" x="379.5" y="-330.5" font-family="Helvetica,sans-Serif" font-size="10.00">MiraiCP::NewFriendRequest</text>
<text text-anchor="middle" x="441" y="-319.5" font-family="Helvetica,sans-Serif" font-size="10.00">Event::accept</text>
</a>
</g>
</g>
<!-- Node1&#45;&gt;Node5 -->
<g id="edge5" class="edge">
<title>Node1&#45;&gt;Node5</title>
<path fill="none" stroke="midnightblue" d="M604.95,-231.85C589.04,-250.48 561.47,-279.76 532,-297.5 522.12,-303.45 510.92,-308.38 499.85,-312.42"/>
<polygon fill="midnightblue" stroke="midnightblue" points="607.68,-234.05 611.41,-224.13 602.31,-229.56 607.68,-234.05"/>
</g>
<!-- Node7 -->
<g id="node7" class="node">
<title>Node7</title>
<g id="a_node7"><a xlink:href="a00473.html#a887c0777813d171d8fd4241e5d6c7357" target="_top" xlink:title="拒绝好友申请">
<polygon fill="white" stroke="black" points="0,-300.5 0,-330.5 139,-330.5 139,-300.5 0,-300.5"/>
<text text-anchor="start" x="8" y="-318.5" font-family="Helvetica,sans-Serif" font-size="10.00">MiraiCP::NewFriendRequest</text>
<text text-anchor="middle" x="69.5" y="-307.5" font-family="Helvetica,sans-Serif" font-size="10.00">Event::reject</text>
</a>
</g>
</g>
<!-- Node1&#45;&gt;Node7 -->
<g id="edge15" class="edge">
<title>Node1&#45;&gt;Node7</title>
<path fill="none" stroke="midnightblue" d="M597.36,-229.98C580.42,-241.26 555.81,-255.85 532,-263.5 380.04,-312.32 333.53,-283.98 175,-302.5 163.38,-303.86 151.04,-305.35 139.06,-306.82"/>
<polygon fill="midnightblue" stroke="midnightblue" points="599.65,-232.65 605.93,-224.12 595.7,-226.88 599.65,-232.65"/>
</g>
<!-- Node8 -->
<g id="node8" class="node">
<title>Node8</title>
<g id="a_node8"><a xlink:href="a00517.html#ace031723d310c72ed25b83485f66a034" target="_top" xlink:title="通过">
<polygon fill="white" stroke="black" points="368,-224.5 368,-254.5 514,-254.5 514,-224.5 368,-224.5"/>
<text text-anchor="start" x="376" y="-242.5" font-family="Helvetica,sans-Serif" font-size="10.00">MiraiCP::MemberJoinRequest</text>
<text text-anchor="middle" x="441" y="-231.5" font-family="Helvetica,sans-Serif" font-size="10.00">Event::accept</text>
</a>
</g>
</g>
<!-- Node1&#45;&gt;Node8 -->
<g id="edge9" class="edge">
<title>Node1&#45;&gt;Node8</title>
<path fill="none" stroke="midnightblue" d="M557.77,-223.15C543.7,-225.14 528.62,-227.27 514.14,-229.31"/>
<polygon fill="midnightblue" stroke="midnightblue" points="558.39,-226.6 567.8,-221.73 557.41,-219.66 558.39,-226.6"/>
</g>
<!-- Node9 -->
<g id="node9" class="node">
<title>Node9</title>
<g id="a_node9"><a xlink:href="a00645.html#aaabcfcb9b04545fb6dfdb3ce86e7f622" target="_top" xlink:title="群文件的简短描述">
<polygon fill="white" stroke="black" points="383.5,-175.5 383.5,-205.5 498.5,-205.5 498.5,-175.5 383.5,-175.5"/>
<text text-anchor="start" x="391.5" y="-193.5" font-family="Helvetica,sans-Serif" font-size="10.00">MiraiCP::Group::DECL</text>
<text text-anchor="middle" x="441" y="-182.5" font-family="Helvetica,sans-Serif" font-size="10.00">_GETTER</text>
</a>
</g>
</g>
<!-- Node1&#45;&gt;Node9 -->
<g id="edge10" class="edge">
<title>Node1&#45;&gt;Node9</title>
<path fill="none" stroke="midnightblue" d="M557.68,-206.19C538.53,-203.59 517.49,-200.74 498.67,-198.18"/>
<polygon fill="midnightblue" stroke="midnightblue" points="557.42,-209.68 567.8,-207.56 558.37,-202.75 557.42,-209.68"/>
</g>
<!-- Node10 -->
<g id="node10" class="node">
<title>Node10</title>
<g id="a_node10"><a xlink:href="a00401.html#a2eccb558dd0dfe6adbd2245fd8ca5ca4" target="_top" xlink:title=" ">
<polygon fill="white" stroke="black" points="378.5,-137 378.5,-156 503.5,-156 503.5,-137 378.5,-137"/>
<text text-anchor="middle" x="441" y="-144" font-family="Helvetica,sans-Serif" font-size="10.00">MiraiCP::Bot::operator==</text>
</a>
</g>
</g>
<!-- Node1&#45;&gt;Node10 -->
<g id="edge11" class="edge">
<title>Node1&#45;&gt;Node10</title>
<path fill="none" stroke="midnightblue" d="M596.52,-199.31C579.49,-188.43 555.13,-174.22 532,-165.5 521.99,-161.73 511.05,-158.63 500.36,-156.11"/>
<polygon fill="midnightblue" stroke="midnightblue" points="594.9,-202.42 605.18,-204.95 598.72,-196.56 594.9,-202.42"/>
</g>
<!-- Node11 -->
<g id="node11" class="node">
<title>Node11</title>
<g id="a_node11"><a xlink:href="a00425.html#acd114e9348802cffec7ca9e1687d4e0c" target="_top" xlink:title=" ">
<polygon fill="white" stroke="black" points="369,-99 369,-118 513,-118 513,-99 369,-99"/>
<text text-anchor="middle" x="441" y="-106" font-family="Helvetica,sans-Serif" font-size="10.00">MiraiCP::Contact::operator==</text>
</a>
</g>
</g>
<!-- Node1&#45;&gt;Node11 -->
<g id="edge12" class="edge">
<title>Node1&#45;&gt;Node11</title>
<path fill="none" stroke="midnightblue" d="M606.24,-196.56C590.95,-176.48 563.43,-144.54 532,-127.5 524.84,-123.62 516.96,-120.53 508.93,-118.07"/>
<polygon fill="midnightblue" stroke="midnightblue" points="603.61,-198.9 612.37,-204.86 609.24,-194.73 603.61,-198.9"/>
</g>
<!-- Node12 -->
<g id="node12" class="node">
<title>Node12</title>
<g id="a_node12"><a xlink:href="a00657.html#ac5e2613306079cce18866fa1f2809357" target="_top" xlink:title="发布群公告">
<polygon fill="white" stroke="black" points="350,-49.5 350,-79.5 532,-79.5 532,-49.5 350,-49.5"/>
<text text-anchor="start" x="358" y="-67.5" font-family="Helvetica,sans-Serif" font-size="10.00">MiraiCP::Group::OfflineAnnouncement</text>
<text text-anchor="middle" x="441" y="-56.5" font-family="Helvetica,sans-Serif" font-size="10.00">::publishTo</text>
</a>
</g>
</g>
<!-- Node1&#45;&gt;Node12 -->
<g id="edge13" class="edge">
<title>Node1&#45;&gt;Node12</title>
<path fill="none" stroke="midnightblue" d="M611,-195.68C598.33,-168.15 571.01,-117.17 532,-89.5 526.58,-85.65 520.58,-82.4 514.34,-79.64"/>
<polygon fill="midnightblue" stroke="midnightblue" points="607.88,-197.27 615.14,-204.98 614.28,-194.43 607.88,-197.27"/>
</g>
<!-- Node13 -->
<g id="node13" class="node">
<title>Node13</title>
<g id="a_node13"><a xlink:href="a00517.html#a855d60c9e71eda3fd438e45728a8799d" target="_top" xlink:title="拒绝">
<polygon fill="white" stroke="black" points="368,-0.5 368,-30.5 514,-30.5 514,-0.5 368,-0.5"/>
<text text-anchor="start" x="376" y="-18.5" font-family="Helvetica,sans-Serif" font-size="10.00">MiraiCP::MemberJoinRequest</text>
<text text-anchor="middle" x="441" y="-7.5" font-family="Helvetica,sans-Serif" font-size="10.00">Event::reject</text>
</a>
</g>
</g>
<!-- Node1&#45;&gt;Node13 -->
<g id="edge16" class="edge">
<title>Node1&#45;&gt;Node13</title>
<path fill="none" stroke="midnightblue" d="M614.88,-194.96C606.19,-158.65 582.48,-80.74 532,-39.5 526.62,-35.1 520.5,-31.5 514.05,-28.56"/>
<polygon fill="midnightblue" stroke="midnightblue" points="611.49,-195.82 617.11,-204.8 618.32,-194.28 611.49,-195.82"/>
</g>
<!-- Node3 -->
<g id="node3" class="node">
<title>Node3</title>
<g id="a_node3"><a xlink:href="a00469.html#a542b23744671466b1b1ebc591a777caa" target="_top" xlink:title=" ">
<polygon fill="white" stroke="black" points="180,-400.5 180,-430.5 309,-430.5 309,-400.5 180,-400.5"/>
<text text-anchor="start" x="188" y="-418.5" font-family="Helvetica,sans-Serif" font-size="10.00">MiraiCP::GroupInviteEvent</text>
<text text-anchor="middle" x="244.5" y="-407.5" font-family="Helvetica,sans-Serif" font-size="10.00">::operation0</text>
</a>
</g>
</g>
<!-- Node2&#45;&gt;Node3 -->
<g id="edge2" class="edge">
<title>Node2&#45;&gt;Node3</title>
<path fill="none" stroke="midnightblue" d="M366.07,-408.93C347.39,-408.64 327.47,-408.7 309.33,-409.12"/>
<polygon fill="midnightblue" stroke="midnightblue" points="366.25,-412.43 376.31,-409.12 366.38,-405.43 366.25,-412.43"/>
</g>
<!-- Node3&#45;&gt;Node2 -->
<g id="edge3" class="edge">
<title>Node3&#45;&gt;Node2</title>
<path fill="none" stroke="midnightblue" d="M319.57,-422.08C338.27,-422.36 358.18,-422.3 376.31,-421.88"/>
<polygon fill="midnightblue" stroke="midnightblue" points="319.39,-418.57 309.33,-421.88 319.26,-425.57 319.39,-418.57"/>
</g>
<!-- Node3&#45;&gt;Node4 -->
<g id="edge4" class="edge">
<title>Node3&#45;&gt;Node4</title>
<path fill="none" stroke="midnightblue" d="M169.73,-401.85C157.89,-399.67 145.74,-397.42 134.16,-395.28"/>
<polygon fill="midnightblue" stroke="midnightblue" points="169.1,-405.3 179.57,-403.68 170.38,-398.41 169.1,-405.3"/>
</g>
<!-- Node6 -->
<g id="node6" class="node">
<title>Node6</title>
<g id="a_node6"><a xlink:href="a00473.html#a06f295884411dbb526f1f80bc2dafdcd" target="_top" xlink:title="接受好友申请">
<polygon fill="white" stroke="black" points="175,-312.5 175,-342.5 314,-342.5 314,-312.5 175,-312.5"/>
<text text-anchor="start" x="183" y="-330.5" font-family="Helvetica,sans-Serif" font-size="10.00">MiraiCP::NewFriendRequest</text>
<text text-anchor="middle" x="244.5" y="-319.5" font-family="Helvetica,sans-Serif" font-size="10.00">Event::operation0</text>
</a>
</g>
</g>
<!-- Node5&#45;&gt;Node6 -->
<g id="edge6" class="edge">
<title>Node5&#45;&gt;Node6</title>
<path fill="none" stroke="midnightblue" d="M361.27,-320.86C345.65,-320.67 329.36,-320.72 314.11,-321.02"/>
<polygon fill="midnightblue" stroke="midnightblue" points="361.37,-324.36 371.43,-321.02 361.48,-317.36 361.37,-324.36"/>
</g>
<!-- Node6&#45;&gt;Node5 -->
<g id="edge7" class="edge">
<title>Node6&#45;&gt;Node5</title>
<path fill="none" stroke="midnightblue" d="M324.26,-334.14C339.89,-334.33 356.17,-334.27 371.43,-333.98"/>
<polygon fill="midnightblue" stroke="midnightblue" points="324.16,-330.64 314.11,-333.98 324.05,-337.64 324.16,-330.64"/>
</g>
<!-- Node6&#45;&gt;Node7 -->
<g id="edge8" class="edge">
<title>Node6&#45;&gt;Node7</title>
<path fill="none" stroke="midnightblue" d="M164.41,-322.01C155.97,-321.43 147.44,-320.84 139.13,-320.26"/>
<polygon fill="midnightblue" stroke="midnightblue" points="164.41,-325.52 174.63,-322.72 164.89,-318.54 164.41,-325.52"/>
</g>
</g>
</svg>
