<?xml version="1.0" encoding="UTF-8" standalone="no"?>
<!DOCTYPE svg PUBLIC "-//W3C//DTD SVG 1.1//EN"
 "http://www.w3.org/Graphics/SVG/1.1/DTD/svg11.dtd">
<!-- Generated by graphviz version 2.50.0 (20211204.2007)
 -->
<!-- Title: LibLoader::PluginListManager::enableById Pages: 1 -->
<svg width="788pt" height="39pt"
 viewBox="0.00 0.00 788.00 39.00" xmlns="http://www.w3.org/2000/svg" xmlns:xlink="http://www.w3.org/1999/xlink">
<g id="graph0" class="graph" transform="scale(1 1) rotate(0) translate(4 35)">
<title>LibLoader::PluginListManager::enableById</title>
<polygon fill="white" stroke="transparent" points="-4,4 -4,-35 784,-35 784,4 -4,4"/>
<!-- Node1 -->
<g id="node1" class="node">
<title>Node1</title>
<g id="a_node1"><a xlink:title=" ">
<polygon fill="#bfbfbf" stroke="black" points="635,-0.5 635,-30.5 780,-30.5 780,-0.5 635,-0.5"/>
<text text-anchor="start" x="643" y="-18.5" font-family="Helvetica,sans-Serif" font-size="10.00">LibLoader::PluginListManager</text>
<text text-anchor="middle" x="707.5" y="-7.5" font-family="Helvetica,sans-Serif" font-size="10.00">::enableById</text>
</a>
</g>
</g>
<!-- Node2 -->
<g id="node2" class="node">
<title>Node2</title>
<g id="a_node2"><a xlink:href="a00304.html#a3f1b6298effea4f44e85e20b0a915c1d" target="_top" xlink:title=" ">
<polygon fill="white" stroke="black" points="474,-0.5 474,-30.5 599,-30.5 599,-0.5 474,-0.5"/>
<text text-anchor="start" x="482" y="-18.5" font-family="Helvetica,sans-Serif" font-size="10.00">LibLoader::loader_enable</text>
<text text-anchor="middle" x="536.5" y="-7.5" font-family="Helvetica,sans-Serif" font-size="10.00">PluginById</text>
</a>
</g>
</g>
<!-- Node1&#45;&gt;Node2 -->
<g id="edge1" class="edge">
<title>Node1&#45;&gt;Node2</title>
<path fill="none" stroke="midnightblue" d="M624.75,-15.5C616.13,-15.5 607.47,-15.5 599.13,-15.5"/>
<polygon fill="midnightblue" stroke="midnightblue" points="624.83,-19 634.83,-15.5 624.83,-12 624.83,-19"/>
</g>
<!-- Node3 -->
<g id="node3" class="node">
<title>Node3</title>
<g id="a_node3"><a xlink:href="a00397.html#a0fbfe44fb362bf323c41e3ae73717edd" target="_top" xlink:title=" ">
<polygon fill="white" stroke="black" points="323,-0.5 323,-30.5 438,-30.5 438,-0.5 323,-0.5"/>
<text text-anchor="start" x="331" y="-18.5" font-family="Helvetica,sans-Serif" font-size="10.00">LibLoader::LoaderMain</text>
<text text-anchor="middle" x="380.5" y="-7.5" font-family="Helvetica,sans-Serif" font-size="10.00">::mainloop</text>
</a>
</g>
</g>
<!-- Node2&#45;&gt;Node3 -->
<g id="edge2" class="edge">
<title>Node2&#45;&gt;Node3</title>
<path fill="none" stroke="midnightblue" d="M463.5,-15.5C455.03,-15.5 446.49,-15.5 438.28,-15.5"/>
<polygon fill="midnightblue" stroke="midnightblue" points="463.75,-19 473.75,-15.5 463.75,-12 463.75,-19"/>
</g>
<!-- Node4 -->
<g id="node4" class="node">
<title>Node4</title>
<g id="a_node4"><a xlink:href="a00397.html#a79cbc18aabed7afe2c7ea30f989ffc8c" target="_top" xlink:title="LoaderMain实现开始">
<polygon fill="white" stroke="black" points="172,-0.5 172,-30.5 287,-30.5 287,-0.5 172,-0.5"/>
<text text-anchor="start" x="180" y="-18.5" font-family="Helvetica,sans-Serif" font-size="10.00">LibLoader::LoaderMain</text>
<text text-anchor="middle" x="229.5" y="-7.5" font-family="Helvetica,sans-Serif" font-size="10.00">::loaderMain</text>
</a>
</g>
</g>
<!-- Node3&#45;&gt;Node4 -->
<g id="edge3" class="edge">
<title>Node3&#45;&gt;Node4</title>
<path fill="none" stroke="midnightblue" d="M312.49,-15.5C304.01,-15.5 295.4,-15.5 287.1,-15.5"/>
<polygon fill="midnightblue" stroke="midnightblue" points="312.74,-19 322.74,-15.5 312.74,-12 312.74,-19"/>
</g>
<!-- Node5 -->
<g id="node5" class="node">
<title>Node5</title>
<g id="a_node5"><a xlink:href="a00203.html#aafbc26593c69471626589f38c751ef09" target="_top" xlink:title=" ">
<polygon fill="white" stroke="black" points="77,-6 77,-25 136,-25 136,-6 77,-6"/>
<text text-anchor="middle" x="106.5" y="-13" font-family="Helvetica,sans-Serif" font-size="10.00">VerifyImpl</text>
</a>
</g>
</g>
<!-- Node4&#45;&gt;Node5 -->
<g id="edge4" class="edge">
<title>Node4&#45;&gt;Node5</title>
<path fill="none" stroke="midnightblue" d="M161.7,-15.5C152.7,-15.5 143.89,-15.5 136.07,-15.5"/>
<polygon fill="midnightblue" stroke="midnightblue" points="161.9,-19 171.9,-15.5 161.9,-12 161.9,-19"/>
</g>
<!-- Node6 -->
<g id="node6" class="node">
<title>Node6</title>
<g id="a_node6"><a xlink:href="a00203.html#a3712cdeefe60fa2a92efa90cd6200b02" target="_top" xlink:title=" ">
<polygon fill="white" stroke="black" points="0,-6 0,-25 41,-25 41,-6 0,-6"/>
<text text-anchor="middle" x="20.5" y="-13" font-family="Helvetica,sans-Serif" font-size="10.00">Verify</text>
</a>
</g>
</g>
<!-- Node5&#45;&gt;Node6 -->
<g id="edge5" class="edge">
<title>Node5&#45;&gt;Node6</title>
<path fill="none" stroke="midnightblue" d="M66.48,-15.5C57.72,-15.5 48.78,-15.5 41.21,-15.5"/>
<polygon fill="midnightblue" stroke="midnightblue" points="66.59,-19 76.59,-15.5 66.59,-12 66.59,-19"/>
</g>
</g>
</svg>
