<?xml version="1.0" encoding="UTF-8" standalone="no"?>
<!DOCTYPE svg PUBLIC "-//W3C//DTD SVG 1.1//EN"
 "http://www.w3.org/Graphics/SVG/1.1/DTD/svg11.dtd">
<!-- Generated by graphviz version 9.0.0 (0)
 -->
<!-- Title: ThreadIdentify::setThreadWorkingName Pages: 1 -->
<svg width="2987pt" height="408pt"
 viewBox="0.00 0.00 2987.25 408.00" xmlns="http://www.w3.org/2000/svg" xmlns:xlink="http://www.w3.org/1999/xlink">
<g id="graph0" class="graph" transform="scale(1 1) rotate(0) translate(4 404)">
<title>ThreadIdentify::setThreadWorkingName</title>
<!-- Node1 -->
<g id="Node000001" class="node">
<title>Node1</title>
<g id="a_Node000001"><a xlink:title=" ">
<polygon fill="#999999" stroke="#666666" points="2979.25,-76 2851.5,-76 2851.5,-44 2979.25,-44 2979.25,-76"/>
<text text-anchor="start" x="2859.5" y="-62.5" font-family="Helvetica,sans-Serif" font-size="10.00">ThreadIdentify::setThread</text>
<text text-anchor="middle" x="2915.38" y="-50.5" font-family="Helvetica,sans-Serif" font-size="10.00">WorkingName</text>
</a>
</g>
</g>
<!-- Node2 -->
<g id="Node000002" class="node">
<title>Node2</title>
<g id="a_Node000002"><a xlink:href="a00916.html#a006c0eaa142f9aa1760ec307cd3c0cee" target="_top" xlink:title=" ">
<polygon fill="white" stroke="#666666" points="2815.5,-123 2718.5,-123 2718.5,-91 2815.5,-91 2815.5,-123"/>
<text text-anchor="start" x="2726.5" y="-109.5" font-family="Helvetica,sans-Serif" font-size="10.00">LibLoader::Plugin::</text>
<text text-anchor="middle" x="2767" y="-97.5" font-family="Helvetica,sans-Serif" font-size="10.00">disableInternal</text>
</a>
</g>
</g>
<!-- Node1&#45;&gt;Node2 -->
<g id="edge1_Node000001_Node000002" class="edge">
<title>Node1&#45;&gt;Node2</title>
<g id="a_edge1_Node000001_Node000002"><a xlink:title=" ">
<path fill="none" stroke="#63b8ff" d="M2852.57,-79.84C2840.34,-83.77 2827.67,-87.84 2815.97,-91.6"/>
<polygon fill="#63b8ff" stroke="#63b8ff" points="2853.29,-83.29 2861.74,-76.9 2851.15,-76.63 2853.29,-83.29"/>
</a>
</g>
</g>
<!-- Node19 -->
<g id="Node000019" class="node">
<title>Node19</title>
<g id="a_Node000019"><a xlink:href="a00916.html#a450c1c6820ab6c5417691359d88d8220" target="_top" xlink:title=" ">
<polygon fill="white" stroke="#666666" points="383.25,-125 286.25,-125 286.25,-93 383.25,-93 383.25,-125"/>
<text text-anchor="start" x="294.25" y="-111.5" font-family="Helvetica,sans-Serif" font-size="10.00">LibLoader::Plugin::</text>
<text text-anchor="middle" x="334.75" y="-99.5" font-family="Helvetica,sans-Serif" font-size="10.00">enableInternal</text>
</a>
</g>
</g>
<!-- Node1&#45;&gt;Node19 -->
<g id="edge45_Node000001_Node000019" class="edge">
<title>Node1&#45;&gt;Node19</title>
<g id="a_edge45_Node000001_Node000019"><a xlink:title=" ">
<path fill="none" stroke="#63b8ff" d="M2839.83,-60C2783.56,-60 2704.43,-60 2635,-60 2635,-60 2635,-60 688.25,-60 578.42,-60 451.17,-83.62 383.64,-98.06"/>
<polygon fill="#63b8ff" stroke="#63b8ff" points="2839.62,-63.5 2849.62,-60 2839.62,-56.5 2839.62,-63.5"/>
</a>
</g>
</g>
<!-- Node41 -->
<g id="Node000041" class="node">
<title>Node41</title>
<g id="a_Node000041"><a xlink:href="a00916.html#a1c759dca151608bfd6d159e3822401c5" target="_top" xlink:title="只应被线程池worker调用">
<polygon fill="white" stroke="#666666" points="2815.5,-32 2718.5,-32 2718.5,0 2815.5,0 2815.5,-32"/>
<text text-anchor="start" x="2726.5" y="-18.5" font-family="Helvetica,sans-Serif" font-size="10.00">LibLoader::Plugin::</text>
<text text-anchor="middle" x="2767" y="-6.5" font-family="Helvetica,sans-Serif" font-size="10.00">pushEvent_worker</text>
</a>
</g>
</g>
<!-- Node1&#45;&gt;Node41 -->
<g id="edge46_Node000001_Node000041" class="edge">
<title>Node1&#45;&gt;Node41</title>
<g id="a_edge46_Node000001_Node000041"><a xlink:title=" ">
<path fill="none" stroke="#63b8ff" d="M2848.86,-40.31C2837.74,-36.96 2826.37,-33.55 2815.81,-30.37"/>
<polygon fill="#63b8ff" stroke="#63b8ff" points="2847.84,-43.65 2858.42,-43.18 2849.85,-36.95 2847.84,-43.65"/>
</a>
</g>
</g>
<!-- Node3 -->
<g id="Node000003" class="node">
<title>Node3</title>
<g id="a_Node000003"><a xlink:href="a00916.html#a147550def7f276f07a60b5078d4670b8" target="_top" xlink:title=" ">
<polygon fill="white" stroke="#666666" points="2682.5,-173 2585.5,-173 2585.5,-141 2682.5,-141 2682.5,-173"/>
<text text-anchor="start" x="2593.5" y="-159.5" font-family="Helvetica,sans-Serif" font-size="10.00">LibLoader::Plugin::</text>
<text text-anchor="middle" x="2634" y="-147.5" font-family="Helvetica,sans-Serif" font-size="10.00">disablePlugin</text>
</a>
</g>
</g>
<!-- Node2&#45;&gt;Node3 -->
<g id="edge2_Node000002_Node000003" class="edge">
<title>Node2&#45;&gt;Node3</title>
<g id="a_edge2_Node000002_Node000003"><a xlink:title=" ">
<path fill="none" stroke="#63b8ff" d="M2712.69,-127.35C2701.15,-131.75 2689.08,-136.36 2677.99,-140.59"/>
<polygon fill="#63b8ff" stroke="#63b8ff" points="2713.6,-130.75 2721.69,-123.91 2711.1,-124.21 2713.6,-130.75"/>
</a>
</g>
</g>
<!-- Node4 -->
<g id="Node000004" class="node">
<title>Node4</title>
<g id="a_Node000004"><a xlink:href="a00916.html#ac03a32a4b96ba4618fee0628d3998aef" target="_top" xlink:title=" ">
<polygon fill="white" stroke="#666666" points="2682.5,-123 2585.5,-123 2585.5,-91 2682.5,-91 2682.5,-123"/>
<text text-anchor="start" x="2593.5" y="-109.5" font-family="Helvetica,sans-Serif" font-size="10.00">LibLoader::Plugin::</text>
<text text-anchor="middle" x="2634" y="-97.5" font-family="Helvetica,sans-Serif" font-size="10.00">unloadInternal</text>
</a>
</g>
</g>
<!-- Node2&#45;&gt;Node4 -->
<g id="edge3_Node000002_Node000004" class="edge">
<title>Node2&#45;&gt;Node4</title>
<g id="a_edge3_Node000002_Node000004"><a xlink:title=" ">
<path fill="none" stroke="#63b8ff" d="M2707.03,-107C2698.94,-107 2690.71,-107 2682.85,-107"/>
<polygon fill="#63b8ff" stroke="#63b8ff" points="2706.82,-110.5 2716.82,-107 2706.82,-103.5 2706.82,-110.5"/>
</a>
</g>
</g>
<!-- Node5 -->
<g id="Node000005" class="node">
<title>Node5</title>
<g id="a_Node000005"><a xlink:href="a00916.html#abc57e6dfaed7b6445c8ba8d94b09ec13" target="_top" xlink:title=" ">
<polygon fill="white" stroke="#666666" points="2549.5,-126 2452.5,-126 2452.5,-94 2549.5,-94 2549.5,-126"/>
<text text-anchor="start" x="2460.5" y="-112.5" font-family="Helvetica,sans-Serif" font-size="10.00">LibLoader::Plugin::</text>
<text text-anchor="middle" x="2501" y="-100.5" font-family="Helvetica,sans-Serif" font-size="10.00">unloadPlugin</text>
</a>
</g>
</g>
<!-- Node4&#45;&gt;Node5 -->
<g id="edge4_Node000004_Node000005" class="edge">
<title>Node4&#45;&gt;Node5</title>
<g id="a_edge4_Node000004_Node000005"><a xlink:title=" ">
<path fill="none" stroke="#63b8ff" d="M2574.03,-108.35C2565.94,-108.54 2557.71,-108.72 2549.85,-108.9"/>
<polygon fill="#63b8ff" stroke="#63b8ff" points="2573.91,-111.85 2583.82,-108.13 2573.74,-104.86 2573.91,-111.85"/>
</a>
</g>
</g>
<!-- Node6 -->
<g id="Node000006" class="node">
<title>Node6</title>
<g id="a_Node000006"><a xlink:href="a00928.html#ad25e53978364d19bf050d66799e579af" target="_top" xlink:title=" ">
<polygon fill="white" stroke="#666666" points="2416.5,-200 2288,-200 2288,-168 2416.5,-168 2416.5,-200"/>
<text text-anchor="start" x="2296" y="-186.5" font-family="Helvetica,sans-Serif" font-size="10.00">LibLoader::PluginManager</text>
<text text-anchor="middle" x="2352.25" y="-174.5" font-family="Helvetica,sans-Serif" font-size="10.00">::addNewPlugin</text>
</a>
</g>
</g>
<!-- Node5&#45;&gt;Node6 -->
<g id="edge5_Node000005_Node000006" class="edge">
<title>Node5&#45;&gt;Node6</title>
<g id="a_edge5_Node000005_Node000006"><a xlink:title=" ">
<path fill="none" stroke="#63b8ff" d="M2457.32,-131.52C2434.48,-143.04 2406.8,-157 2385.73,-167.62"/>
<polygon fill="#63b8ff" stroke="#63b8ff" points="2458.73,-134.73 2466.08,-127.1 2455.58,-128.48 2458.73,-134.73"/>
</a>
</g>
</g>
<!-- Node40 -->
<g id="Node000040" class="node">
<title>Node40</title>
<g id="a_Node000040"><a xlink:href="a00916.html#a1c3116fa19213eba6451fb1602a31bbf" target="_top" xlink:title=" ">
<polygon fill="white" stroke="#666666" points="2400.75,-126 2303.75,-126 2303.75,-94 2400.75,-94 2400.75,-126"/>
<text text-anchor="start" x="2311.75" y="-112.5" font-family="Helvetica,sans-Serif" font-size="10.00">LibLoader::Plugin::</text>
<text text-anchor="middle" x="2352.25" y="-100.5" font-family="Helvetica,sans-Serif" font-size="10.00">~Plugin</text>
</a>
</g>
</g>
<!-- Node5&#45;&gt;Node40 -->
<g id="edge44_Node000005_Node000040" class="edge">
<title>Node5&#45;&gt;Node40</title>
<g id="a_edge44_Node000005_Node000040"><a xlink:title=" ">
<path fill="none" stroke="#63b8ff" d="M2440.95,-110C2427.73,-110 2413.86,-110 2401.16,-110"/>
<polygon fill="#63b8ff" stroke="#63b8ff" points="2440.84,-113.5 2450.84,-110 2440.84,-106.5 2440.84,-113.5"/>
</a>
</g>
</g>
<!-- Node7 -->
<g id="Node000007" class="node">
<title>Node7</title>
<g id="a_Node000007"><a xlink:href="a00928.html#a7908686a60d87cd6c670cbc581331024" target="_top" xlink:title=" ">
<polygon fill="white" stroke="#666666" points="2252,-252 2123.5,-252 2123.5,-220 2252,-220 2252,-252"/>
<text text-anchor="start" x="2131.5" y="-238.5" font-family="Helvetica,sans-Serif" font-size="10.00">LibLoader::PluginManager</text>
<text text-anchor="middle" x="2187.75" y="-226.5" font-family="Helvetica,sans-Serif" font-size="10.00">::loadNewPluginByPath</text>
</a>
</g>
</g>
<!-- Node6&#45;&gt;Node7 -->
<g id="edge6_Node000006_Node000007" class="edge">
<title>Node6&#45;&gt;Node7</title>
<g id="a_edge6_Node000006_Node000007"><a xlink:title=" ">
<path fill="none" stroke="#63b8ff" d="M2288.88,-203.96C2272.76,-209.12 2255.59,-214.61 2240.11,-219.56"/>
<polygon fill="#63b8ff" stroke="#63b8ff" points="2289.93,-207.3 2298.39,-200.91 2287.8,-200.63 2289.93,-207.3"/>
</a>
</g>
</g>
<!-- Node39 -->
<g id="Node000039" class="node">
<title>Node39</title>
<g id="a_Node000039"><a xlink:href="a00916.html#a6db0416218955157f2c4091fc29aa17e" target="_top" xlink:title=" ">
<polygon fill="white" stroke="#666666" points="2236.25,-200 2139.25,-200 2139.25,-168 2236.25,-168 2236.25,-200"/>
<text text-anchor="start" x="2147.25" y="-186.5" font-family="Helvetica,sans-Serif" font-size="10.00">LibLoader::Plugin::</text>
<text text-anchor="middle" x="2187.75" y="-174.5" font-family="Helvetica,sans-Serif" font-size="10.00">loadsAll</text>
</a>
</g>
</g>
<!-- Node6&#45;&gt;Node39 -->
<g id="edge43_Node000006_Node000039" class="edge">
<title>Node6&#45;&gt;Node39</title>
<g id="a_edge43_Node000006_Node000039"><a xlink:title=" ">
<path fill="none" stroke="#63b8ff" d="M2276.6,-184C2262.97,-184 2249.1,-184 2236.52,-184"/>
<polygon fill="#63b8ff" stroke="#63b8ff" points="2276.44,-187.5 2286.44,-184 2276.44,-180.5 2276.44,-187.5"/>
</a>
</g>
</g>
<!-- Node8 -->
<g id="Node000008" class="node">
<title>Node8</title>
<g id="a_Node000008"><a xlink:href="a00425.html#a8eada9f54700edf5a2aa262e5d006691" target="_top" xlink:title=" ">
<polygon fill="white" stroke="#666666" points="2087.5,-314 1953.75,-314 1953.75,-282 2087.5,-282 2087.5,-314"/>
<text text-anchor="start" x="1961.75" y="-300.5" font-family="Helvetica,sans-Serif" font-size="10.00">LibLoader::loader_loadNew</text>
<text text-anchor="middle" x="2020.62" y="-288.5" font-family="Helvetica,sans-Serif" font-size="10.00">Plugin</text>
</a>
</g>
</g>
<!-- Node7&#45;&gt;Node8 -->
<g id="edge7_Node000007_Node000008" class="edge">
<title>Node7&#45;&gt;Node8</title>
<g id="a_edge7_Node000007_Node000008"><a xlink:title=" ">
<path fill="none" stroke="#63b8ff" d="M2132.22,-256.48C2110.51,-264.63 2085.86,-273.88 2065.36,-281.58"/>
<polygon fill="#63b8ff" stroke="#63b8ff" points="2133.38,-259.78 2141.52,-252.98 2130.92,-253.22 2133.38,-259.78"/>
</a>
</g>
</g>
<!-- Node38 -->
<g id="Node000038" class="node">
<title>Node38</title>
<g id="a_Node000038"><a xlink:href="a00928.html#a829ac187511de83d8c78431d071e4864" target="_top" xlink:title=" ">
<polygon fill="white" stroke="#666666" points="2084.88,-252 1956.38,-252 1956.38,-220 2084.88,-220 2084.88,-252"/>
<text text-anchor="start" x="1964.38" y="-238.5" font-family="Helvetica,sans-Serif" font-size="10.00">LibLoader::PluginManager</text>
<text text-anchor="middle" x="2020.62" y="-226.5" font-family="Helvetica,sans-Serif" font-size="10.00">::reloadAllPlugin</text>
</a>
</g>
</g>
<!-- Node7&#45;&gt;Node38 -->
<g id="edge42_Node000007_Node000038" class="edge">
<title>Node7&#45;&gt;Node38</title>
<g id="a_edge42_Node000007_Node000038"><a xlink:title=" ">
<path fill="none" stroke="#63b8ff" d="M2112.15,-236C2103.21,-236 2094.14,-236 2085.37,-236"/>
<polygon fill="#63b8ff" stroke="#63b8ff" points="2111.87,-239.5 2121.87,-236 2111.87,-232.5 2111.87,-239.5"/>
</a>
</g>
</g>
<!-- Node9 -->
<g id="Node000009" class="node">
<title>Node9</title>
<g id="a_Node000009"><a xlink:href="a00426.html#aff28b2ad21b60cabc3c735a4b9562df9" target="_top" xlink:title=" ">
<polygon fill="white" stroke="#666666" points="1914.38,-314 1806.88,-314 1806.88,-282 1914.38,-282 1914.38,-314"/>
<text text-anchor="start" x="1814.88" y="-300.5" font-family="Helvetica,sans-Serif" font-size="10.00">LibLoader::LoaderApi</text>
<text text-anchor="middle" x="1860.62" y="-288.5" font-family="Helvetica,sans-Serif" font-size="10.00">::loadNewPlugin</text>
</a>
</g>
</g>
<!-- Node8&#45;&gt;Node9 -->
<g id="edge8_Node000008_Node000009" class="edge">
<title>Node8&#45;&gt;Node9</title>
<g id="a_edge8_Node000008_Node000009"><a xlink:title=" ">
<path fill="none" stroke="#63b8ff" d="M1942.16,-298C1932.79,-298 1923.39,-298 1914.49,-298"/>
<polygon fill="#63b8ff" stroke="#63b8ff" points="1942.02,-301.5 1952.02,-298 1942.02,-294.5 1942.02,-301.5"/>
</a>
</g>
</g>
<!-- Node36 -->
<g id="Node000036" class="node">
<title>Node36</title>
<g id="a_Node000036"><a xlink:href="a00880.html#adb67a1dbb48fb151a7f581fcd2afa2e5" target="_top" xlink:title=" ">
<polygon fill="white" stroke="#666666" points="1917.75,-375 1803.5,-375 1803.5,-343 1917.75,-343 1917.75,-375"/>
<text text-anchor="start" x="1811.5" y="-361.5" font-family="Helvetica,sans-Serif" font-size="10.00">LibLoader::LoaderMain</text>
<text text-anchor="middle" x="1860.62" y="-349.5" font-family="Helvetica,sans-Serif" font-size="10.00">::process_task_queue</text>
</a>
</g>
</g>
<!-- Node8&#45;&gt;Node36 -->
<g id="edge39_Node000008_Node000036" class="edge">
<title>Node8&#45;&gt;Node36</title>
<g id="a_edge39_Node000008_Node000036"><a xlink:title=" ">
<path fill="none" stroke="#63b8ff" d="M1966.64,-318.45C1946.38,-326.28 1923.55,-335.09 1904.36,-342.5"/>
<polygon fill="#63b8ff" stroke="#63b8ff" points="1967.8,-321.76 1975.87,-314.89 1965.28,-315.23 1967.8,-321.76"/>
</a>
</g>
</g>
<!-- Node10 -->
<g id="Node000010" class="node">
<title>Node10</title>
<g id="a_Node000010"><a xlink:href="a00431.html#a23c30511bf483a1559577dcb67c05e55" target="_top" xlink:title=" ">
<polygon fill="white" stroke="#666666" points="1767.5,-292 1630,-292 1630,-260 1767.5,-260 1767.5,-292"/>
<text text-anchor="start" x="1638" y="-278.5" font-family="Helvetica,sans-Serif" font-size="10.00">LibLoader::MessageHandler</text>
<text text-anchor="middle" x="1698.75" y="-266.5" font-family="Helvetica,sans-Serif" font-size="10.00">::admin_message</text>
</a>
</g>
</g>
<!-- Node9&#45;&gt;Node10 -->
<g id="edge9_Node000009_Node000010" class="edge">
<title>Node9&#45;&gt;Node10</title>
<g id="a_edge9_Node000009_Node000010"><a xlink:title=" ">
<path fill="none" stroke="#63b8ff" d="M1795.17,-289.13C1786.17,-287.89 1776.89,-286.62 1767.83,-285.37"/>
<polygon fill="#63b8ff" stroke="#63b8ff" points="1794.51,-292.57 1804.89,-290.47 1795.46,-285.64 1794.51,-292.57"/>
</a>
</g>
</g>
<!-- Node35 -->
<g id="Node000035" class="node">
<title>Node35</title>
<g id="a_Node000035"><a xlink:href="a00417.html#a5f62240a571dd6678c453ae47f79bed8" target="_top" xlink:title="加载新的插件，仅限有管理权限的插件使用，否则没有任何效果">
<polygon fill="white" stroke="#666666" points="1749.12,-342 1648.38,-342 1648.38,-310 1749.12,-310 1749.12,-342"/>
<text text-anchor="start" x="1656.38" y="-328.5" font-family="Helvetica,sans-Serif" font-size="10.00">MiraiCP::LoaderApi</text>
<text text-anchor="middle" x="1698.75" y="-316.5" font-family="Helvetica,sans-Serif" font-size="10.00">::loadNewPlugin</text>
</a>
</g>
</g>
<!-- Node9&#45;&gt;Node35 -->
<g id="edge38_Node000009_Node000035" class="edge">
<title>Node9&#45;&gt;Node35</title>
<g id="a_edge38_Node000009_Node000035"><a xlink:title=" ">
<path fill="none" stroke="#63b8ff" d="M1795.43,-309.24C1780.14,-311.92 1764.04,-314.74 1749.51,-317.29"/>
<polygon fill="#63b8ff" stroke="#63b8ff" points="1795.65,-312.76 1804.9,-307.58 1794.44,-305.86 1795.65,-312.76"/>
</a>
</g>
</g>
<!-- Node11 -->
<g id="Node000011" class="node">
<title>Node11</title>
<g id="a_Node000011"><a xlink:href="a00892.html#ac44a2bba9059176d3ccb04ed1eb065a3" target="_top" xlink:title=" ">
<polygon fill="white" stroke="#666666" points="1594,-292 1446,-292 1446,-260 1594,-260 1594,-292"/>
<text text-anchor="start" x="1454" y="-278.5" font-family="Helvetica,sans-Serif" font-size="10.00">LibLoader::MessageProcessor</text>
<text text-anchor="middle" x="1520" y="-266.5" font-family="Helvetica,sans-Serif" font-size="10.00">::registerDefaultHandlers</text>
</a>
</g>
</g>
<!-- Node10&#45;&gt;Node11 -->
<g id="edge10_Node000010_Node000011" class="edge">
<title>Node10&#45;&gt;Node11</title>
<g id="a_edge10_Node000010_Node000011"><a xlink:title=" ">
<path fill="none" stroke="#63b8ff" d="M1618.42,-276C1610.4,-276 1602.28,-276 1594.33,-276"/>
<polygon fill="#63b8ff" stroke="#63b8ff" points="1618.15,-279.5 1628.15,-276 1618.15,-272.5 1618.15,-279.5"/>
</a>
</g>
</g>
<!-- Node12 -->
<g id="Node000012" class="node">
<title>Node12</title>
<g id="a_Node000012"><a xlink:href="a00884.html#ac95c9bf6b208cbeab2e9b1cdfcb7c3d6" target="_top" xlink:title=" ">
<polygon fill="white" stroke="#666666" points="1410,-288 1268.75,-288 1268.75,-256 1410,-256 1410,-288"/>
<text text-anchor="start" x="1276.75" y="-274.5" font-family="Helvetica,sans-Serif" font-size="10.00">LibLoader::MessageManager</text>
<text text-anchor="middle" x="1339.38" y="-262.5" font-family="Helvetica,sans-Serif" font-size="10.00">::init</text>
</a>
</g>
</g>
<!-- Node11&#45;&gt;Node12 -->
<g id="edge11_Node000011_Node000012" class="edge">
<title>Node11&#45;&gt;Node12</title>
<g id="a_edge11_Node000011_Node000012"><a xlink:title=" ">
<path fill="none" stroke="#63b8ff" d="M1434.3,-274.1C1426.28,-273.92 1418.21,-273.74 1410.35,-273.57"/>
<polygon fill="#63b8ff" stroke="#63b8ff" points="1433.98,-277.6 1444.06,-274.32 1434.14,-270.6 1433.98,-277.6"/>
</a>
</g>
</g>
<!-- Node13 -->
<g id="Node000013" class="node">
<title>Node13</title>
<g id="a_Node000013"><a xlink:href="a00880.html#a79cbc18aabed7afe2c7ea30f989ffc8c" target="_top" xlink:title="LoaderMain实现开始">
<polygon fill="white" stroke="#666666" points="1232.75,-280 1118.5,-280 1118.5,-248 1232.75,-248 1232.75,-280"/>
<text text-anchor="start" x="1126.5" y="-266.5" font-family="Helvetica,sans-Serif" font-size="10.00">LibLoader::LoaderMain</text>
<text text-anchor="middle" x="1175.62" y="-254.5" font-family="Helvetica,sans-Serif" font-size="10.00">::loaderMain</text>
</a>
</g>
</g>
<!-- Node12&#45;&gt;Node13 -->
<g id="edge12_Node000012_Node000013" class="edge">
<title>Node12&#45;&gt;Node13</title>
<g id="a_edge12_Node000012_Node000013"><a xlink:title=" ">
<path fill="none" stroke="#63b8ff" d="M1256.98,-267.97C1248.91,-267.58 1240.84,-267.18 1233.11,-266.79"/>
<polygon fill="#63b8ff" stroke="#63b8ff" points="1256.7,-271.46 1266.86,-268.46 1257.04,-264.47 1256.7,-271.46"/>
</a>
</g>
</g>
<!-- Node14 -->
<g id="Node000014" class="node">
<title>Node14</title>
<g id="a_Node000014"><a xlink:href="a00880.html#a22eacbd6aa585f32d0fccce0a69ab642" target="_top" xlink:title=" ">
<polygon fill="white" stroke="#666666" points="1082.5,-231 948.75,-231 948.75,-211 1082.5,-211 1082.5,-231"/>
<text text-anchor="middle" x="1015.62" y="-217.5" font-family="Helvetica,sans-Serif" font-size="10.00">LibLoader::LoaderMain::get</text>
</a>
</g>
</g>
<!-- Node13&#45;&gt;Node14 -->
<g id="edge13_Node000013_Node000014" class="edge">
<title>Node13&#45;&gt;Node14</title>
<g id="a_edge13_Node000013_Node000014"><a xlink:title=" ">
<path fill="none" stroke="#63b8ff" d="M1107.09,-245.62C1089.29,-240.78 1070.7,-235.72 1055.04,-231.45"/>
<polygon fill="#63b8ff" stroke="#63b8ff" points="1106,-248.95 1116.57,-248.2 1107.84,-242.2 1106,-248.95"/>
</a>
</g>
</g>
<!-- Node33 -->
<g id="Node000033" class="node">
<title>Node33</title>
<g id="a_Node000033"><a xlink:href="a00314.html#aafbc26593c69471626589f38c751ef09" target="_top" xlink:title=" ">
<polygon fill="white" stroke="#666666" points="877.88,-164 818.38,-164 818.38,-144 877.88,-144 877.88,-164"/>
<text text-anchor="middle" x="848.12" y="-150.5" font-family="Helvetica,sans-Serif" font-size="10.00">VerifyImpl</text>
</a>
</g>
</g>
<!-- Node13&#45;&gt;Node33 -->
<g id="edge37_Node000013_Node000033" class="edge">
<title>Node13&#45;&gt;Node33</title>
<g id="a_edge37_Node000013_Node000033"><a xlink:title=" ">
<path fill="none" stroke="#63b8ff" d="M1146.07,-240.5C1128.68,-227.32 1105.45,-211.64 1082.5,-202 1012.71,-172.69 923.44,-160.76 878.21,-156.33"/>
<polygon fill="#63b8ff" stroke="#63b8ff" points="1143.85,-243.21 1153.9,-246.58 1148.15,-237.69 1143.85,-243.21"/>
</a>
</g>
</g>
<!-- Node15 -->
<g id="Node000015" class="node">
<title>Node15</title>
<g id="a_Node000015"><a xlink:href="a00425.html#a46f4ab12479d61956e7dc81cfb19fef5" target="_top" xlink:title=" ">
<polygon fill="white" stroke="#666666" points="912.75,-240 783.5,-240 783.5,-220 912.75,-220 912.75,-240"/>
<text text-anchor="middle" x="848.12" y="-226.5" font-family="Helvetica,sans-Serif" font-size="10.00">LibLoader::loaderWakeCV</text>
</a>
</g>
</g>
<!-- Node14&#45;&gt;Node15 -->
<g id="edge14_Node000014_Node000015" class="edge">
<title>Node14&#45;&gt;Node15</title>
<g id="a_edge14_Node000014_Node000015"><a xlink:title=" ">
<path fill="none" stroke="#63b8ff" d="M937.01,-225.22C929,-225.66 920.92,-226.1 913.08,-226.52"/>
<polygon fill="#63b8ff" stroke="#63b8ff" points="936.96,-228.73 946.75,-224.69 936.58,-221.74 936.96,-228.73"/>
</a>
</g>
</g>
<!-- Node23 -->
<g id="Node000023" class="node">
<title>Node23</title>
<g id="a_Node000023"><a xlink:href="a00314.html#a2e0217581c8df7fd1fc867cc3a8317d3" target="_top" xlink:title=" ">
<polygon fill="white" stroke="#666666" points="736.62,-146 641.88,-146 641.88,-126 736.62,-126 736.62,-146"/>
<text text-anchor="middle" x="689.25" y="-132.5" font-family="Helvetica,sans-Serif" font-size="10.00">PluginDisableImpl</text>
</a>
</g>
</g>
<!-- Node14&#45;&gt;Node23 -->
<g id="edge34_Node000014_Node000023" class="edge">
<title>Node14&#45;&gt;Node23</title>
<g id="a_edge34_Node000014_Node000023"><a xlink:title=" ">
<path fill="none" stroke="#63b8ff" d="M937.11,-210.05C891.59,-202.36 833.38,-190.32 783.5,-173 766.6,-167.13 764.03,-161.83 747.5,-155 740.14,-151.96 732.11,-149.05 724.45,-146.46"/>
<polygon fill="#63b8ff" stroke="#63b8ff" points="936.47,-213.5 946.91,-211.67 937.61,-206.59 936.47,-213.5"/>
</a>
</g>
</g>
<!-- Node14&#45;&gt;Node33 -->
<g id="edge35_Node000014_Node000033" class="edge">
<title>Node14&#45;&gt;Node33</title>
<g id="a_edge35_Node000014_Node000033"><a xlink:title=" ">
<path fill="none" stroke="#63b8ff" d="M980.53,-206.22C960.8,-197.77 935.46,-187.07 912.75,-178 901.24,-173.4 888.47,-168.54 877.4,-164.4"/>
<polygon fill="#63b8ff" stroke="#63b8ff" points="978.9,-209.33 989.46,-210.06 981.66,-202.9 978.9,-209.33"/>
</a>
</g>
</g>
<!-- Node16 -->
<g id="Node000016" class="node">
<title>Node16</title>
<g id="a_Node000016"><a xlink:href="a00880.html#a9ca8ba2c9fcbfade9adf4a0a2bb47eaa" target="_top" xlink:title=" ">
<polygon fill="white" stroke="#666666" points="746.38,-334 632.12,-334 632.12,-302 746.38,-302 746.38,-334"/>
<text text-anchor="start" x="640.12" y="-320.5" font-family="Helvetica,sans-Serif" font-size="10.00">LibLoader::LoaderMain</text>
<text text-anchor="middle" x="689.25" y="-308.5" font-family="Helvetica,sans-Serif" font-size="10.00">::mainloop</text>
</a>
</g>
</g>
<!-- Node15&#45;&gt;Node16 -->
<g id="edge15_Node000015_Node000016" class="edge">
<title>Node15&#45;&gt;Node16</title>
<g id="a_edge15_Node000015_Node000016"><a xlink:title=" ">
<path fill="none" stroke="#63b8ff" d="M819.96,-246.34C808.63,-253.23 795.37,-261.41 783.5,-269 767.3,-279.36 764.38,-283.78 747.5,-293 742.07,-295.96 736.23,-298.85 730.41,-301.54"/>
<polygon fill="#63b8ff" stroke="#63b8ff" points="821.7,-249.38 828.44,-241.2 818.07,-243.39 821.7,-249.38"/>
</a>
</g>
</g>
<!-- Node17 -->
<g id="Node000017" class="node">
<title>Node17</title>
<g id="a_Node000017"><a xlink:href="a00281.html#a36a04ab86ecc081ee51d32866ef7a332" target="_top" xlink:title=" ">
<polygon fill="white" stroke="#666666" points="739.62,-196 638.88,-196 638.88,-164 739.62,-164 739.62,-196"/>
<text text-anchor="start" x="646.88" y="-182.5" font-family="Helvetica,sans-Serif" font-size="10.00">plugin_raw_API_try</text>
<text text-anchor="middle" x="689.25" y="-170.5" font-family="Helvetica,sans-Serif" font-size="10.00">_wake_loader</text>
</a>
</g>
</g>
<!-- Node15&#45;&gt;Node17 -->
<g id="edge17_Node000015_Node000017" class="edge">
<title>Node15&#45;&gt;Node17</title>
<g id="a_edge17_Node000015_Node000017"><a xlink:title=" ">
<path fill="none" stroke="#63b8ff" d="M803.43,-216.07C783.76,-209.81 760.44,-202.37 740.1,-195.89"/>
<polygon fill="#63b8ff" stroke="#63b8ff" points="802.21,-219.36 812.8,-219.06 804.33,-212.69 802.21,-219.36"/>
</a>
</g>
</g>
<!-- Node15&#45;&gt;Node23 -->
<g id="edge23_Node000015_Node000023" class="edge">
<title>Node15&#45;&gt;Node23</title>
<g id="a_edge23_Node000015_Node000023"><a xlink:title=" ">
<path fill="none" stroke="#63b8ff" d="M798.29,-215.1C793.05,-212.5 788,-209.48 783.5,-206 761.55,-189.02 769.78,-171.53 747.5,-155 742.87,-151.57 737.59,-148.73 732.15,-146.4"/>
<polygon fill="#63b8ff" stroke="#63b8ff" points="796.57,-218.17 807.13,-219.02 799.41,-211.77 796.57,-218.17"/>
</a>
</g>
</g>
<!-- Node25 -->
<g id="Node000025" class="node">
<title>Node25</title>
<g id="a_Node000025"><a xlink:href="a00432.html#a746efd674de5c56de789a0c03be7948e" target="_top" xlink:title="新增一个计时器，对接libLoader API">
<polygon fill="white" stroke="#666666" points="743,-246 635.5,-246 635.5,-214 743,-214 743,-246"/>
<text text-anchor="start" x="643.5" y="-232.5" font-family="Helvetica,sans-Serif" font-size="10.00">LibLoader::Scheduler</text>
<text text-anchor="middle" x="689.25" y="-220.5" font-family="Helvetica,sans-Serif" font-size="10.00">::timer</text>
</a>
</g>
</g>
<!-- Node15&#45;&gt;Node25 -->
<g id="edge25_Node000015_Node000025" class="edge">
<title>Node15&#45;&gt;Node25</title>
<g id="a_edge25_Node000015_Node000025"><a xlink:title=" ">
<path fill="none" stroke="#63b8ff" d="M772.05,-230C762.4,-230 752.67,-230 743.47,-230"/>
<polygon fill="#63b8ff" stroke="#63b8ff" points="771.8,-233.5 781.8,-230 771.8,-226.5 771.8,-233.5"/>
</a>
</g>
</g>
<!-- Node30 -->
<g id="Node000030" class="node">
<title>Node30</title>
<g id="a_Node000030"><a xlink:href="a00425.html#a4bd4ee75c4f2ea14034626c7cbf73bb4" target="_top" xlink:title=" ">
<polygon fill="white" stroke="#666666" points="747.5,-284 631,-284 631,-264 747.5,-264 747.5,-284"/>
<text text-anchor="middle" x="689.25" y="-270.5" font-family="Helvetica,sans-Serif" font-size="10.00">LibLoader::wakeLoader</text>
</a>
</g>
</g>
<!-- Node15&#45;&gt;Node30 -->
<g id="edge31_Node000015_Node000030" class="edge">
<title>Node15&#45;&gt;Node30</title>
<g id="a_edge31_Node000015_Node000030"><a xlink:title=" ">
<path fill="none" stroke="#63b8ff" d="M799.02,-243.49C775.99,-249.95 748.85,-257.57 727.43,-263.57"/>
<polygon fill="#63b8ff" stroke="#63b8ff" points="799.81,-246.91 808.49,-240.84 797.92,-240.17 799.81,-246.91"/>
</a>
</g>
</g>
<!-- Node16&#45;&gt;Node13 -->
<g id="edge16_Node000016_Node000013" class="edge">
<title>Node16&#45;&gt;Node13</title>
<g id="a_edge16_Node000016_Node000013"><a xlink:title=" ">
<path fill="none" stroke="#63b8ff" d="M758.11,-310.43C854.3,-299.71 1028.54,-280.29 1118.11,-270.3"/>
<polygon fill="#63b8ff" stroke="#63b8ff" points="757.83,-306.94 748.28,-311.53 758.61,-313.9 757.83,-306.94"/>
</a>
</g>
</g>
<!-- Node18 -->
<g id="Node000018" class="node">
<title>Node18</title>
<g id="a_Node000018"><a xlink:href="a00916.html#a14895bee64bb1c12e16b97d038b699b7" target="_top" xlink:title="这部分是一些工具函数、对象">
<polygon fill="white" stroke="#666666" points="565.75,-196 468.75,-196 468.75,-164 565.75,-164 565.75,-196"/>
<text text-anchor="start" x="476.75" y="-182.5" font-family="Helvetica,sans-Serif" font-size="10.00">LibLoader::Plugin::</text>
<text text-anchor="middle" x="517.25" y="-170.5" font-family="Helvetica,sans-Serif" font-size="10.00">callEntrance</text>
</a>
</g>
</g>
<!-- Node17&#45;&gt;Node18 -->
<g id="edge18_Node000017_Node000018" class="edge">
<title>Node17&#45;&gt;Node18</title>
<g id="a_edge18_Node000017_Node000018"><a xlink:title=" ">
<path fill="none" stroke="#63b8ff" d="M627.37,-180C607.26,-180 585.18,-180 566.18,-180"/>
<polygon fill="#63b8ff" stroke="#63b8ff" points="627.11,-183.5 637.11,-180 627.11,-176.5 627.11,-183.5"/>
</a>
</g>
</g>
<!-- Node18&#45;&gt;Node19 -->
<g id="edge19_Node000018_Node000019" class="edge">
<title>Node18&#45;&gt;Node19</title>
<g id="a_edge19_Node000018_Node000019"><a xlink:title=" ">
<path fill="none" stroke="#63b8ff" d="M457.98,-161.72C451.71,-159.54 445.45,-157.28 439.5,-155 416.14,-146.04 390.42,-134.65 370.43,-125.45"/>
<polygon fill="#63b8ff" stroke="#63b8ff" points="456.46,-164.9 467.06,-164.8 458.71,-158.27 456.46,-164.9"/>
</a>
</g>
</g>
<!-- Node20 -->
<g id="Node000020" class="node">
<title>Node20</title>
<g id="a_Node000020"><a xlink:href="a00916.html#a549e3729f8aeb27208ef5aecb434eef1" target="_top" xlink:title=" ">
<polygon fill="white" stroke="#666666" points="230,-103 133,-103 133,-71 230,-71 230,-103"/>
<text text-anchor="start" x="141" y="-89.5" font-family="Helvetica,sans-Serif" font-size="10.00">LibLoader::Plugin::</text>
<text text-anchor="middle" x="181.5" y="-77.5" font-family="Helvetica,sans-Serif" font-size="10.00">enablePlugin</text>
</a>
</g>
</g>
<!-- Node19&#45;&gt;Node20 -->
<g id="edge20_Node000019_Node000020" class="edge">
<title>Node19&#45;&gt;Node20</title>
<g id="a_edge20_Node000019_Node000020"><a xlink:title=" ">
<path fill="none" stroke="#63b8ff" d="M274.83,-100.43C260.08,-98.28 244.44,-96.01 230.3,-93.95"/>
<polygon fill="#63b8ff" stroke="#63b8ff" points="274,-103.85 284.4,-101.82 275,-96.92 274,-103.85"/>
</a>
</g>
</g>
<!-- Node21 -->
<g id="Node000021" class="node">
<title>Node21</title>
<g id="a_Node000021"><a xlink:href="a00916.html#a8636d0418d741a19bbd9183316cd5c59" target="_top" xlink:title=" ">
<polygon fill="white" stroke="#666666" points="230,-153 133,-153 133,-121 230,-121 230,-153"/>
<text text-anchor="start" x="141" y="-139.5" font-family="Helvetica,sans-Serif" font-size="10.00">LibLoader::Plugin::</text>
<text text-anchor="middle" x="181.5" y="-127.5" font-family="Helvetica,sans-Serif" font-size="10.00">loadInternal</text>
</a>
</g>
</g>
<!-- Node19&#45;&gt;Node21 -->
<g id="edge21_Node000019_Node000021" class="edge">
<title>Node19&#45;&gt;Node21</title>
<g id="a_edge21_Node000019_Node000021"><a xlink:title=" ">
<path fill="none" stroke="#63b8ff" d="M274.83,-119.91C260.08,-122.64 244.44,-125.53 230.3,-128.15"/>
<polygon fill="#63b8ff" stroke="#63b8ff" points="275.21,-123.4 284.41,-118.13 273.94,-116.51 275.21,-123.4"/>
</a>
</g>
</g>
<!-- Node22 -->
<g id="Node000022" class="node">
<title>Node22</title>
<g id="a_Node000022"><a xlink:href="a00916.html#a891ce42f23fe1312ef6cad2accf4ab92" target="_top" xlink:title=" ">
<polygon fill="white" stroke="#666666" points="97,-153 0,-153 0,-121 97,-121 97,-153"/>
<text text-anchor="start" x="8" y="-139.5" font-family="Helvetica,sans-Serif" font-size="10.00">LibLoader::Plugin::</text>
<text text-anchor="middle" x="48.5" y="-127.5" font-family="Helvetica,sans-Serif" font-size="10.00">loadPlugin</text>
</a>
</g>
</g>
<!-- Node21&#45;&gt;Node22 -->
<g id="edge22_Node000021_Node000022" class="edge">
<title>Node21&#45;&gt;Node22</title>
<g id="a_edge22_Node000021_Node000022"><a xlink:title=" ">
<path fill="none" stroke="#63b8ff" d="M121.53,-137C113.44,-137 105.21,-137 97.35,-137"/>
<polygon fill="#63b8ff" stroke="#63b8ff" points="121.32,-140.5 131.32,-137 121.32,-133.5 121.32,-140.5"/>
</a>
</g>
</g>
<!-- Node24 -->
<g id="Node000024" class="node">
<title>Node24</title>
<g id="a_Node000024"><a xlink:href="a00314.html#a054b75b2be22897678d22ce9a72d91df" target="_top" xlink:title=" ">
<polygon fill="white" stroke="#666666" points="555.25,-146 479.25,-146 479.25,-126 555.25,-126 555.25,-146"/>
<text text-anchor="middle" x="517.25" y="-132.5" font-family="Helvetica,sans-Serif" font-size="10.00">PluginDisable</text>
</a>
</g>
</g>
<!-- Node23&#45;&gt;Node24 -->
<g id="edge24_Node000023_Node000024" class="edge">
<title>Node23&#45;&gt;Node24</title>
<g id="a_edge24_Node000023_Node000024"><a xlink:title=" ">
<path fill="none" stroke="#63b8ff" d="M630.33,-136C605.58,-136 577.41,-136 555.5,-136"/>
<polygon fill="#63b8ff" stroke="#63b8ff" points="630.28,-139.5 640.28,-136 630.28,-132.5 630.28,-139.5"/>
</a>
</g>
</g>
<!-- Node26 -->
<g id="Node000026" class="node">
<title>Node26</title>
<g id="a_Node000026"><a xlink:href="a00426.html#a05f1524120bb7a5a65abbde063d9e557" target="_top" xlink:title=" ">
<polygon fill="white" stroke="#666666" points="571,-246 463.5,-246 463.5,-214 571,-214 571,-246"/>
<text text-anchor="start" x="471.5" y="-232.5" font-family="Helvetica,sans-Serif" font-size="10.00">LibLoader::LoaderApi</text>
<text text-anchor="middle" x="517.25" y="-220.5" font-family="Helvetica,sans-Serif" font-size="10.00">::timer</text>
</a>
</g>
</g>
<!-- Node25&#45;&gt;Node26 -->
<g id="edge26_Node000025_Node000026" class="edge">
<title>Node25&#45;&gt;Node26</title>
<g id="a_edge26_Node000025_Node000026"><a xlink:title=" ">
<path fill="none" stroke="#63b8ff" d="M624.17,-230C606.76,-230 588.1,-230 571.37,-230"/>
<polygon fill="#63b8ff" stroke="#63b8ff" points="623.88,-233.5 633.88,-230 623.88,-226.5 623.88,-233.5"/>
</a>
</g>
</g>
<!-- Node27 -->
<g id="Node000027" class="node">
<title>Node27</title>
<g id="a_Node000027"><a xlink:href="a00412.html#a0edd1fee858de73bb144b4f7832a573d" target="_top" xlink:title="定时任务, 在一定时间后广播**一次**TimeOutEvent">
<polygon fill="white" stroke="#666666" points="382.88,-240 286.62,-240 286.62,-220 382.88,-220 382.88,-240"/>
<text text-anchor="middle" x="334.75" y="-226.5" font-family="Helvetica,sans-Serif" font-size="10.00">MiraiCP::schedule</text>
</a>
</g>
</g>
<!-- Node26&#45;&gt;Node27 -->
<g id="edge27_Node000026_Node000027" class="edge">
<title>Node26&#45;&gt;Node27</title>
<g id="a_edge27_Node000026_Node000027"><a xlink:title=" ">
<path fill="none" stroke="#63b8ff" d="M451.85,-230C429.25,-230 404.3,-230 383.33,-230"/>
<polygon fill="#63b8ff" stroke="#63b8ff" points="451.56,-233.5 461.56,-230 451.56,-226.5 451.56,-233.5"/>
</a>
</g>
</g>
<!-- Node29 -->
<g id="Node000029" class="node">
<title>Node29</title>
<g id="a_Node000029"><a xlink:href="a00431.html#ac6360f8f60a063ca92ee816f65a8a2a1" target="_top" xlink:title=" ">
<polygon fill="white" stroke="#666666" points="403.5,-334 266,-334 266,-302 403.5,-302 403.5,-334"/>
<text text-anchor="start" x="274" y="-320.5" font-family="Helvetica,sans-Serif" font-size="10.00">LibLoader::MessageHandler</text>
<text text-anchor="middle" x="334.75" y="-308.5" font-family="Helvetica,sans-Serif" font-size="10.00">::timer_message</text>
</a>
</g>
</g>
<!-- Node26&#45;&gt;Node29 -->
<g id="edge29_Node000026_Node000029" class="edge">
<title>Node26&#45;&gt;Node29</title>
<g id="a_edge29_Node000026_Node000029"><a xlink:title=" ">
<path fill="none" stroke="#63b8ff" d="M452.64,-249.44C448.15,-251.2 443.73,-253.06 439.5,-255 410.58,-268.27 379.68,-287.81 359.2,-301.6"/>
<polygon fill="#63b8ff" stroke="#63b8ff" points="453.64,-252.8 461.78,-246.03 451.19,-246.25 453.64,-252.8"/>
</a>
</g>
</g>
<!-- Node28 -->
<g id="Node000028" class="node">
<title>Node28</title>
<g id="a_Node000028"><a xlink:href="a00412.html#a9d9b304caa9cf25c6f148b99ee9651f6" target="_top" xlink:title="定时任务, 在一定时间后广播**一次**TimeOutEvent，chrono重载">
<polygon fill="white" stroke="#666666" points="229.62,-240 133.38,-240 133.38,-220 229.62,-220 229.62,-240"/>
<text text-anchor="middle" x="181.5" y="-226.5" font-family="Helvetica,sans-Serif" font-size="10.00">MiraiCP::schedule</text>
</a>
</g>
</g>
<!-- Node27&#45;&gt;Node28 -->
<g id="edge28_Node000027_Node000028" class="edge">
<title>Node27&#45;&gt;Node28</title>
<g id="a_edge28_Node000027_Node000028"><a xlink:title=" ">
<path fill="none" stroke="#63b8ff" d="M275.12,-230C260.19,-230 244.33,-230 230.03,-230"/>
<polygon fill="#63b8ff" stroke="#63b8ff" points="274.8,-233.5 284.79,-230 274.79,-226.5 274.8,-233.5"/>
</a>
</g>
</g>
<!-- Node29&#45;&gt;Node11 -->
<g id="edge30_Node000029_Node000011" class="edge">
<title>Node29&#45;&gt;Node11</title>
<g id="a_edge30_Node000029_Node000011"><a xlink:title=" ">
<path fill="none" stroke="#63b8ff" d="M414.78,-333.56C485.99,-346.22 593.71,-362 688.25,-362 1176.62,-362 1176.62,-362 1176.62,-362 1289.55,-362 1417.27,-317.45 1480,-292.48"/>
<polygon fill="#63b8ff" stroke="#63b8ff" points="415.62,-330.16 405.16,-331.83 414.38,-337.05 415.62,-330.16"/>
</a>
</g>
</g>
<!-- Node31 -->
<g id="Node000031" class="node">
<title>Node31</title>
<g id="a_Node000031"><a xlink:href="a00425.html#afbf560680f6b525ee0240f614a0177b6" target="_top" xlink:title=" ">
<polygon fill="white" stroke="#666666" points="595,-284 439.5,-284 439.5,-264 595,-264 595,-284"/>
<text text-anchor="middle" x="517.25" y="-270.5" font-family="Helvetica,sans-Serif" font-size="10.00">LibLoader::sendPluginException</text>
</a>
</g>
</g>
<!-- Node30&#45;&gt;Node31 -->
<g id="edge32_Node000030_Node000031" class="edge">
<title>Node30&#45;&gt;Node31</title>
<g id="a_edge32_Node000030_Node000031"><a xlink:title=" ">
<path fill="none" stroke="#63b8ff" d="M619.3,-274C611.41,-274 603.33,-274 595.34,-274"/>
<polygon fill="#63b8ff" stroke="#63b8ff" points="619.18,-277.5 629.18,-274 619.18,-270.5 619.18,-277.5"/>
</a>
</g>
</g>
<!-- Node32 -->
<g id="Node000032" class="node">
<title>Node32</title>
<g id="a_Node000032"><a xlink:href="a00425.html#a7ee448e1b260709b6a8d73fa41ec5c15" target="_top" xlink:title=" ">
<polygon fill="white" stroke="#666666" points="587.88,-322 446.62,-322 446.62,-302 587.88,-302 587.88,-322"/>
<text text-anchor="middle" x="517.25" y="-308.5" font-family="Helvetica,sans-Serif" font-size="10.00">LibLoader::sendThreadReset</text>
</a>
</g>
</g>
<!-- Node30&#45;&gt;Node32 -->
<g id="edge33_Node000030_Node000032" class="edge">
<title>Node30&#45;&gt;Node32</title>
<g id="a_edge33_Node000030_Node000032"><a xlink:title=" ">
<path fill="none" stroke="#63b8ff" d="M630.16,-286.98C608.9,-291.74 585.14,-297.05 565,-301.55"/>
<polygon fill="#63b8ff" stroke="#63b8ff" points="630.87,-290.41 639.87,-284.81 629.35,-283.58 630.87,-290.41"/>
</a>
</g>
</g>
<!-- Node34 -->
<g id="Node000034" class="node">
<title>Node34</title>
<g id="a_Node000034"><a xlink:href="a00314.html#a3712cdeefe60fa2a92efa90cd6200b02" target="_top" xlink:title=" ">
<polygon fill="white" stroke="#666666" points="709.62,-108 668.88,-108 668.88,-88 709.62,-88 709.62,-108"/>
<text text-anchor="middle" x="689.25" y="-94.5" font-family="Helvetica,sans-Serif" font-size="10.00">Verify</text>
</a>
</g>
</g>
<!-- Node33&#45;&gt;Node34 -->
<g id="edge36_Node000033_Node000034" class="edge">
<title>Node33&#45;&gt;Node34</title>
<g id="a_edge36_Node000033_Node000034"><a xlink:title=" ">
<path fill="none" stroke="#63b8ff" d="M809.07,-139.51C790.55,-132.55 767.92,-124.18 747.5,-117 735.05,-112.62 720.99,-107.95 709.92,-104.34"/>
<polygon fill="#63b8ff" stroke="#63b8ff" points="807.73,-142.74 818.32,-143 810.2,-136.19 807.73,-142.74"/>
</a>
</g>
</g>
<!-- Node37 -->
<g id="Node000037" class="node">
<title>Node37</title>
<g id="a_Node000037"><a xlink:href="a00880.html#aa2dac3324ec614040340dcb2a5c76110" target="_top" xlink:title=" ">
<polygon fill="white" stroke="#666666" points="1577.12,-390 1462.88,-390 1462.88,-358 1577.12,-358 1577.12,-390"/>
<text text-anchor="start" x="1470.88" y="-376.5" font-family="Helvetica,sans-Serif" font-size="10.00">LibLoader::LoaderMain</text>
<text text-anchor="middle" x="1520" y="-364.5" font-family="Helvetica,sans-Serif" font-size="10.00">::tick</text>
</a>
</g>
</g>
<!-- Node36&#45;&gt;Node37 -->
<g id="edge40_Node000036_Node000037" class="edge">
<title>Node36&#45;&gt;Node37</title>
<g id="a_edge40_Node000036_Node000037"><a xlink:title=" ">
<path fill="none" stroke="#63b8ff" d="M1791.94,-362C1729.04,-364.78 1636.44,-368.89 1577.43,-371.5"/>
<polygon fill="#63b8ff" stroke="#63b8ff" points="1791.98,-365.5 1801.82,-361.56 1791.67,-358.51 1791.98,-365.5"/>
</a>
</g>
</g>
<!-- Node37&#45;&gt;Node16 -->
<g id="edge41_Node000037_Node000016" class="edge">
<title>Node37&#45;&gt;Node16</title>
<g id="a_edge41_Node000037_Node000016"><a xlink:title=" ">
<path fill="none" stroke="#63b8ff" d="M1451.33,-382.18C1382.34,-389.8 1272.2,-400 1176.62,-400 1176.62,-400 1176.62,-400 1014.62,-400 908.62,-400 788.9,-358.33 728.9,-334.4"/>
<polygon fill="#63b8ff" stroke="#63b8ff" points="1451.4,-385.69 1460.95,-381.1 1450.62,-378.74 1451.4,-385.69"/>
</a>
</g>
</g>
</g>
</svg>
