<?xml version="1.0" encoding="UTF-8" standalone="no"?>
<!DOCTYPE svg PUBLIC "-//W3C//DTD SVG 1.1//EN"
 "http://www.w3.org/Graphics/SVG/1.1/DTD/svg11.dtd">
<!-- Generated by graphviz version 2.50.0 (20211204.2007)
 -->
<!-- Title: MiraiCP::Tools::StringToVector Pages: 1 -->
<svg width="678pt" height="170pt"
 viewBox="0.00 0.00 678.00 170.00" xmlns="http://www.w3.org/2000/svg" xmlns:xlink="http://www.w3.org/1999/xlink">
<g id="graph0" class="graph" transform="scale(1 1) rotate(0) translate(4 166)">
<title>MiraiCP::Tools::StringToVector</title>
<polygon fill="white" stroke="transparent" points="-4,4 -4,-166 674,-166 674,4 -4,4"/>
<!-- Node1 -->
<g id="node1" class="node">
<title>Node1</title>
<g id="a_node1"><a xlink:title="从string格式化到vector">
<polygon fill="#bfbfbf" stroke="black" points="548,-87.5 548,-117.5 670,-117.5 670,-87.5 548,-87.5"/>
<text text-anchor="start" x="556" y="-105.5" font-family="Helvetica,sans-Serif" font-size="10.00">MiraiCP::Tools::StringTo</text>
<text text-anchor="middle" x="609" y="-94.5" font-family="Helvetica,sans-Serif" font-size="10.00">Vector</text>
</a>
</g>
</g>
<!-- Node2 -->
<g id="node2" class="node">
<title>Node2</title>
<g id="a_node2"><a xlink:href="a00589.html#aaf3faea866b044099784f19148d9ce01" target="_top" xlink:title=" ">
<polygon fill="white" stroke="black" points="358,-124 358,-143 512,-143 512,-124 358,-124"/>
<text text-anchor="middle" x="435" y="-131" font-family="Helvetica,sans-Serif" font-size="10.00">MiraiCP::Group::getMemberList</text>
</a>
</g>
</g>
<!-- Node1&#45;&gt;Node2 -->
<g id="edge1" class="edge">
<title>Node1&#45;&gt;Node2</title>
<path fill="none" stroke="midnightblue" d="M537.81,-115.15C521.49,-118.09 504.39,-121.17 488.96,-123.96"/>
<polygon fill="midnightblue" stroke="midnightblue" points="538.62,-118.56 547.84,-113.34 537.38,-111.67 538.62,-118.56"/>
</g>
<!-- Node4 -->
<g id="node4" class="node">
<title>Node4</title>
<g id="a_node4"><a xlink:href="a00394.html#af9ded1af6d3b5b7e3b556d52484d56b8" target="_top" xlink:title=" ">
<polygon fill="white" stroke="black" points="386.5,-74 386.5,-93 483.5,-93 483.5,-74 386.5,-74"/>
<text text-anchor="middle" x="435" y="-81" font-family="Helvetica,sans-Serif" font-size="10.00">MiraiCP::queryList</text>
</a>
</g>
</g>
<!-- Node1&#45;&gt;Node4 -->
<g id="edge3" class="edge">
<title>Node1&#45;&gt;Node4</title>
<path fill="none" stroke="midnightblue" d="M537.84,-94.75C519.63,-92.74 500.42,-90.62 483.67,-88.77"/>
<polygon fill="midnightblue" stroke="midnightblue" points="537.52,-98.24 547.84,-95.85 538.29,-91.28 537.52,-98.24"/>
</g>
<!-- Node3 -->
<g id="node3" class="node">
<title>Node3</title>
<g id="a_node3"><a xlink:href="a00589.html#a7e4a285e03aac96ef4152d852958329d" target="_top" xlink:title=" ">
<polygon fill="white" stroke="black" points="174.5,-131.5 174.5,-161.5 314.5,-161.5 314.5,-131.5 174.5,-131.5"/>
<text text-anchor="start" x="182.5" y="-149.5" font-family="Helvetica,sans-Serif" font-size="10.00">MiraiCP::Group::MemberList</text>
<text text-anchor="middle" x="244.5" y="-138.5" font-family="Helvetica,sans-Serif" font-size="10.00">ToString</text>
</a>
</g>
</g>
<!-- Node2&#45;&gt;Node3 -->
<g id="edge2" class="edge">
<title>Node2&#45;&gt;Node3</title>
<path fill="none" stroke="midnightblue" d="M347.74,-139.45C336.64,-140.21 325.38,-140.99 314.61,-141.73"/>
<polygon fill="midnightblue" stroke="midnightblue" points="348.14,-142.93 357.87,-138.75 347.66,-135.95 348.14,-142.93"/>
</g>
<!-- Node5 -->
<g id="node5" class="node">
<title>Node5</title>
<g id="a_node5"><a xlink:href="a00433.html#ae3c41bbf773ad22ee9a0b29f4ed769ea" target="_top" xlink:title="取好友列表">
<polygon fill="white" stroke="black" points="177.5,-93 177.5,-112 311.5,-112 311.5,-93 177.5,-93"/>
<text text-anchor="middle" x="244.5" y="-100" font-family="Helvetica,sans-Serif" font-size="10.00">MiraiCP::Bot::getFriendList</text>
</a>
</g>
</g>
<!-- Node4&#45;&gt;Node5 -->
<g id="edge4" class="edge">
<title>Node4&#45;&gt;Node5</title>
<path fill="none" stroke="midnightblue" d="M376.32,-89.31C355.85,-91.38 332.67,-93.71 311.56,-95.84"/>
<polygon fill="midnightblue" stroke="midnightblue" points="376.83,-92.78 386.43,-88.29 376.13,-85.82 376.83,-92.78"/>
</g>
<!-- Node7 -->
<g id="node7" class="node">
<title>Node7</title>
<g id="a_node7"><a xlink:href="a00433.html#a93687b7b6b881aa74a011dc0b979cae1" target="_top" xlink:title="取群列表">
<polygon fill="white" stroke="black" points="177.5,-55 177.5,-74 311.5,-74 311.5,-55 177.5,-55"/>
<text text-anchor="middle" x="244.5" y="-62" font-family="Helvetica,sans-Serif" font-size="10.00">MiraiCP::Bot::getGroupList</text>
</a>
</g>
</g>
<!-- Node4&#45;&gt;Node7 -->
<g id="edge6" class="edge">
<title>Node4&#45;&gt;Node7</title>
<path fill="none" stroke="midnightblue" d="M376.32,-77.69C355.85,-75.62 332.67,-73.29 311.56,-71.16"/>
<polygon fill="midnightblue" stroke="midnightblue" points="376.13,-81.18 386.43,-78.71 376.83,-74.22 376.13,-81.18"/>
</g>
<!-- Node9 -->
<g id="node9" class="node">
<title>Node9</title>
<g id="a_node9"><a xlink:href="a00433.html#aa3653efd4bf60ccebeb2025defe777a4" target="_top" xlink:title="取在线 Bot 列表">
<polygon fill="white" stroke="black" points="167,-12 167,-31 322,-31 322,-12 167,-12"/>
<text text-anchor="middle" x="244.5" y="-19" font-family="Helvetica,sans-Serif" font-size="10.00">MiraiCP::Bot::getOnlineBotsList</text>
</a>
</g>
</g>
<!-- Node4&#45;&gt;Node9 -->
<g id="edge8" class="edge">
<title>Node4&#45;&gt;Node9</title>
<path fill="none" stroke="midnightblue" d="M396.91,-70.68C375.14,-63.21 347.05,-53.68 322,-45.5 307.05,-40.62 290.39,-35.37 276.45,-31.03"/>
<polygon fill="midnightblue" stroke="midnightblue" points="395.85,-74.01 406.44,-73.95 398.12,-67.39 395.85,-74.01"/>
</g>
<!-- Node6 -->
<g id="node6" class="node">
<title>Node6</title>
<g id="a_node6"><a xlink:href="a00433.html#a6803e521b4209f73e70d3a20b1e20195" target="_top" xlink:title="好友列表string形式返回, 利于保存">
<polygon fill="white" stroke="black" points="5,-98.5 5,-128.5 126,-128.5 126,-98.5 5,-98.5"/>
<text text-anchor="start" x="13" y="-116.5" font-family="Helvetica,sans-Serif" font-size="10.00">MiraiCP::Bot::FriendList</text>
<text text-anchor="middle" x="65.5" y="-105.5" font-family="Helvetica,sans-Serif" font-size="10.00">ToString</text>
</a>
</g>
</g>
<!-- Node5&#45;&gt;Node6 -->
<g id="edge5" class="edge">
<title>Node5&#45;&gt;Node6</title>
<path fill="none" stroke="midnightblue" d="M166.99,-107.25C153.32,-108.1 139.27,-108.98 126.16,-109.79"/>
<polygon fill="midnightblue" stroke="midnightblue" points="167.58,-110.73 177.34,-106.61 167.14,-103.74 167.58,-110.73"/>
</g>
<!-- Node8 -->
<g id="node8" class="node">
<title>Node8</title>
<g id="a_node8"><a xlink:href="a00433.html#ac036f287d56751ca5e33bd4d0292e306" target="_top" xlink:title="群列表string形式返回, 利于保存">
<polygon fill="white" stroke="black" points="0,-49.5 0,-79.5 131,-79.5 131,-49.5 0,-49.5"/>
<text text-anchor="start" x="8" y="-67.5" font-family="Helvetica,sans-Serif" font-size="10.00">MiraiCP::Bot::GroupListTo</text>
<text text-anchor="middle" x="65.5" y="-56.5" font-family="Helvetica,sans-Serif" font-size="10.00">String</text>
</a>
</g>
</g>
<!-- Node7&#45;&gt;Node8 -->
<g id="edge7" class="edge">
<title>Node7&#45;&gt;Node8</title>
<path fill="none" stroke="midnightblue" d="M167.3,-64.5C155.24,-64.5 142.87,-64.5 131.11,-64.5"/>
<polygon fill="midnightblue" stroke="midnightblue" points="167.34,-68 177.34,-64.5 167.34,-61 167.34,-68"/>
</g>
<!-- Node10 -->
<g id="node10" class="node">
<title>Node10</title>
<g id="a_node10"><a xlink:href="a00433.html#a729a0670edf58101023d1e8de649939f" target="_top" xlink:title="在线 Bot 列表string形式返回, 利于保存">
<polygon fill="white" stroke="black" points="2.5,-0.5 2.5,-30.5 128.5,-30.5 128.5,-0.5 2.5,-0.5"/>
<text text-anchor="start" x="10.5" y="-18.5" font-family="Helvetica,sans-Serif" font-size="10.00">MiraiCP::Bot::OnlineBots</text>
<text text-anchor="middle" x="65.5" y="-7.5" font-family="Helvetica,sans-Serif" font-size="10.00">ListToString</text>
</a>
</g>
</g>
<!-- Node9&#45;&gt;Node10 -->
<g id="edge9" class="edge">
<title>Node9&#45;&gt;Node10</title>
<path fill="none" stroke="midnightblue" d="M156.64,-18.56C147.17,-18.23 137.67,-17.91 128.58,-17.6"/>
<polygon fill="midnightblue" stroke="midnightblue" points="156.78,-22.06 166.89,-18.9 157.02,-15.07 156.78,-22.06"/>
</g>
</g>
</svg>
