<?xml version="1.0" encoding="UTF-8" standalone="no"?>
<!DOCTYPE svg PUBLIC "-//W3C//DTD SVG 1.1//EN"
 "http://www.w3.org/Graphics/SVG/1.1/DTD/svg11.dtd">
<!-- Generated by graphviz version 9.0.0 (0)
 -->
<!-- Title: MiraiCP::Event::broadcast Pages: 1 -->
<svg width="318pt" height="140pt"
 viewBox="0.00 0.00 318.25 140.00" xmlns="http://www.w3.org/2000/svg" xmlns:xlink="http://www.w3.org/1999/xlink">
<g id="graph0" class="graph" transform="scale(1 1) rotate(0) translate(4 136)">
<title>MiraiCP::Event::broadcast</title>
<!-- Node1 -->
<g id="Node000001" class="node">
<title>Node1</title>
<g id="a_Node000001"><a xlink:title="广播一个事件, 必须为MiraiCPEvent的派生类">
<polygon fill="#999999" stroke="#666666" points="310.25,-76 178.75,-76 178.75,-56 310.25,-56 310.25,-76"/>
<text text-anchor="middle" x="244.5" y="-62.5" font-family="Helvetica,sans-Serif" font-size="10.00">MiraiCP::Event::broadcast</text>
</a>
</g>
</g>
<!-- Node2 -->
<g id="Node000002" class="node">
<title>Node2</title>
<g id="a_Node000002"><a xlink:href="a00480.html#aca8d122b5ac259f28f372f02cdd38930" target="_top" xlink:title=" ">
<polygon fill="white" stroke="#666666" points="135.25,-132 7.5,-132 7.5,-100 135.25,-100 135.25,-132"/>
<text text-anchor="start" x="15.5" y="-118.5" font-family="Helvetica,sans-Serif" font-size="10.00">MiraiCP::Event::incoming</text>
<text text-anchor="middle" x="71.38" y="-106.5" font-family="Helvetica,sans-Serif" font-size="10.00">Event</text>
</a>
</g>
</g>
<!-- Node1&#45;&gt;Node2 -->
<g id="edge1_Node000001_Node000002" class="edge">
<title>Node1&#45;&gt;Node2</title>
<g id="a_edge1_Node000001_Node000002"><a xlink:title=" ">
<path fill="none" stroke="#63b8ff" d="M196.73,-79.67C175.73,-85.8 150.77,-93.09 128.75,-99.53"/>
<polygon fill="#63b8ff" stroke="#63b8ff" points="197.56,-83.07 206.17,-76.91 195.59,-76.35 197.56,-83.07"/>
</a>
</g>
</g>
<!-- Node3 -->
<g id="Node000003" class="node">
<title>Node3</title>
<g id="a_Node000003"><a xlink:href="a00668.html#a0fc8daf263296676e2714fd681c401d2" target="_top" xlink:title=" ">
<polygon fill="white" stroke="#666666" points="142.75,-82 0,-82 0,-50 142.75,-50 142.75,-82"/>
<text text-anchor="start" x="8" y="-68.5" font-family="Helvetica,sans-Serif" font-size="10.00">MiraiCP::MiraiCPNewThread</text>
<text text-anchor="middle" x="71.38" y="-56.5" font-family="Helvetica,sans-Serif" font-size="10.00">::threadExceptionBroadcast</text>
</a>
</g>
</g>
<!-- Node1&#45;&gt;Node3 -->
<g id="edge2_Node000001_Node000003" class="edge">
<title>Node1&#45;&gt;Node3</title>
<g id="a_edge2_Node000001_Node000003"><a xlink:title=" ">
<path fill="none" stroke="#63b8ff" d="M166.84,-66C158.93,-66 150.92,-66 143.08,-66"/>
<polygon fill="#63b8ff" stroke="#63b8ff" points="166.8,-69.5 176.8,-66 166.8,-62.5 166.8,-69.5"/>
</a>
</g>
</g>
<!-- Node4 -->
<g id="Node000004" class="node">
<title>Node4</title>
<g id="a_Node000004"><a xlink:href="a00668.html#a18227b40882a2c115f0303ad61cd652a" target="_top" xlink:title=" ">
<polygon fill="white" stroke="#666666" points="142.75,-32 0,-32 0,0 142.75,0 142.75,-32"/>
<text text-anchor="start" x="8" y="-18.5" font-family="Helvetica,sans-Serif" font-size="10.00">MiraiCP::MiraiCPNewThread</text>
<text text-anchor="middle" x="71.38" y="-6.5" font-family="Helvetica,sans-Serif" font-size="10.00">::threadThrows</text>
</a>
</g>
</g>
<!-- Node1&#45;&gt;Node4 -->
<g id="edge3_Node000001_Node000004" class="edge">
<title>Node1&#45;&gt;Node4</title>
<g id="a_edge3_Node000001_Node000004"><a xlink:title=" ">
<path fill="none" stroke="#63b8ff" d="M196.73,-52.33C175.73,-46.2 150.77,-38.91 128.75,-32.47"/>
<polygon fill="#63b8ff" stroke="#63b8ff" points="195.59,-55.65 206.17,-55.09 197.56,-48.93 195.59,-55.65"/>
</a>
</g>
</g>
</g>
</svg>
