<?xml version="1.0" encoding="UTF-8" standalone="no"?>
<!DOCTYPE svg PUBLIC "-//W3C//DTD SVG 1.1//EN"
 "http://www.w3.org/Graphics/SVG/1.1/DTD/svg11.dtd">
<!-- Generated by graphviz version 2.50.0 (20211204.2007)
 -->
<!-- Title: MiraiCP::Contact::toJson Pages: 1 -->
<svg width="735pt" height="1111pt"
 viewBox="0.00 0.00 735.00 1111.00" xmlns="http://www.w3.org/2000/svg" xmlns:xlink="http://www.w3.org/1999/xlink">
<g id="graph0" class="graph" transform="scale(1 1) rotate(0) translate(4 1107)">
<title>MiraiCP::Contact::toJson</title>
<polygon fill="white" stroke="transparent" points="-4,4 -4,-1107 731,-1107 731,4 -4,4"/>
<!-- Node1 -->
<g id="node1" class="node">
<title>Node1</title>
<g id="a_node1"><a xlink:title="序列化到json对象">
<polygon fill="#bfbfbf" stroke="black" points="602,-559.5 602,-578.5 727,-578.5 727,-559.5 602,-559.5"/>
<text text-anchor="middle" x="664.5" y="-566.5" font-family="Helvetica,sans-Serif" font-size="10.00">MiraiCP::Contact::toJson</text>
</a>
</g>
</g>
<!-- Node2 -->
<g id="node2" class="node">
<title>Node2</title>
<g id="a_node2"><a xlink:href="a00701.html#afa172c24046945b1208344d3be9d5cfe" target="_top" xlink:title=" ">
<polygon fill="white" stroke="black" points="383.5,-1083.5 383.5,-1102.5 559.5,-1102.5 559.5,-1083.5 383.5,-1083.5"/>
<text text-anchor="middle" x="471.5" y="-1090.5" font-family="Helvetica,sans-Serif" font-size="10.00">MiraiCP::Member::changeNameCard</text>
</a>
</g>
</g>
<!-- Node1&#45;&gt;Node2 -->
<g id="edge1" class="edge">
<title>Node1&#45;&gt;Node2</title>
<path fill="none" stroke="midnightblue" d="M662.54,-588.76C658,-673.27 635.98,-1003.33 566,-1074 562.27,-1077.77 558.01,-1080.89 553.42,-1083.47"/>
<polygon fill="midnightblue" stroke="midnightblue" points="666.03,-588.87 663.05,-578.71 659.04,-588.51 666.03,-588.87"/>
</g>
<!-- Node3 -->
<g id="node3" class="node">
<title>Node3</title>
<g id="a_node3"><a xlink:href="a00701.html#a62b5b9e3c5e35214da533742f5644126" target="_top" xlink:title="是否是匿名群成员, 如果是匿名群成员一些功能会受限">
<polygon fill="white" stroke="black" points="390.5,-1034 390.5,-1064 552.5,-1064 552.5,-1034 390.5,-1034"/>
<text text-anchor="start" x="398.5" y="-1052" font-family="Helvetica,sans-Serif" font-size="10.00">MiraiCP::Member::changeSpecial</text>
<text text-anchor="middle" x="471.5" y="-1041" font-family="Helvetica,sans-Serif" font-size="10.00">Title</text>
</a>
</g>
</g>
<!-- Node1&#45;&gt;Node3 -->
<g id="edge2" class="edge">
<title>Node1&#45;&gt;Node3</title>
<path fill="none" stroke="midnightblue" d="M661.95,-588.94C655.39,-668.15 627.42,-959.42 566,-1024 562.06,-1028.14 557.52,-1031.62 552.61,-1034.55"/>
<polygon fill="midnightblue" stroke="midnightblue" points="665.45,-589.09 662.76,-578.84 658.47,-588.53 665.45,-589.09"/>
</g>
<!-- Node4 -->
<g id="node4" class="node">
<title>Node4</title>
<g id="a_node4"><a xlink:href="a00637.html#ad21c4f5d158162f49bb008e6c37f7df9" target="_top" xlink:title="删除好友">
<polygon fill="white" stroke="black" points="400,-995.5 400,-1014.5 543,-1014.5 543,-995.5 400,-995.5"/>
<text text-anchor="middle" x="471.5" y="-1002.5" font-family="Helvetica,sans-Serif" font-size="10.00">MiraiCP::Friend::deleteFriend</text>
</a>
</g>
</g>
<!-- Node1&#45;&gt;Node4 -->
<g id="edge3" class="edge">
<title>Node1&#45;&gt;Node4</title>
<path fill="none" stroke="midnightblue" d="M661.66,-588.81C654.3,-663.84 624.47,-929.22 566,-986 559.58,-992.23 551.71,-996.68 543.29,-999.82"/>
<polygon fill="midnightblue" stroke="midnightblue" points="665.15,-589.1 662.62,-578.81 658.18,-588.43 665.15,-589.1"/>
</g>
<!-- Node5 -->
<g id="node5" class="node">
<title>Node5</title>
<g id="a_node5"><a xlink:href="a00649.html#a4e01ea12b1be658a14fbd10b26e81fb8" target="_top" xlink:title="取群公告列表">
<polygon fill="white" stroke="black" points="377,-957.5 377,-976.5 566,-976.5 566,-957.5 377,-957.5"/>
<text text-anchor="middle" x="471.5" y="-964.5" font-family="Helvetica,sans-Serif" font-size="10.00">MiraiCP::Group::getAnnouncementsList</text>
</a>
</g>
</g>
<!-- Node1&#45;&gt;Node5 -->
<g id="edge4" class="edge">
<title>Node1&#45;&gt;Node5</title>
<path fill="none" stroke="midnightblue" d="M660.98,-588.89C651.75,-658.78 617.56,-891.63 566,-943 559.71,-949.27 552.01,-953.97 543.77,-957.49"/>
<polygon fill="midnightblue" stroke="midnightblue" points="664.48,-589.16 662.29,-578.79 657.53,-588.26 664.48,-589.16"/>
</g>
<!-- Node6 -->
<g id="node6" class="node">
<title>Node6</title>
<g id="a_node6"><a xlink:href="a00649.html#a65f239346553568ddc1d75099dbedb6a" target="_top" xlink:title=" ">
<polygon fill="white" stroke="black" points="208,-919.5 208,-938.5 327,-938.5 327,-919.5 208,-919.5"/>
<text text-anchor="middle" x="267.5" y="-926.5" font-family="Helvetica,sans-Serif" font-size="10.00">MiraiCP::Group::getFile</text>
</a>
</g>
</g>
<!-- Node1&#45;&gt;Node6 -->
<g id="edge5" class="edge">
<title>Node1&#45;&gt;Node6</title>
<path fill="none" stroke="midnightblue" d="M660.84,-588.75C651.45,-655.13 617.68,-868.38 566,-910 530.53,-938.57 403.22,-936.84 327.11,-932.96"/>
<polygon fill="midnightblue" stroke="midnightblue" points="664.31,-589.15 662.22,-578.77 657.38,-588.19 664.31,-589.15"/>
</g>
<!-- Node7 -->
<g id="node7" class="node">
<title>Node7</title>
<g id="a_node7"><a xlink:href="a00649.html#a0f975b9bfbedb9d5d4fee9b95c9dbe65" target="_top" xlink:title="取文件信息(根据id)">
<polygon fill="white" stroke="black" points="402.5,-881.5 402.5,-900.5 540.5,-900.5 540.5,-881.5 402.5,-881.5"/>
<text text-anchor="middle" x="471.5" y="-888.5" font-family="Helvetica,sans-Serif" font-size="10.00">MiraiCP::Group::getFileById</text>
</a>
</g>
</g>
<!-- Node1&#45;&gt;Node7 -->
<g id="edge6" class="edge">
<title>Node1&#45;&gt;Node7</title>
<path fill="none" stroke="midnightblue" d="M663.54,-588.73C662.51,-642.95 651.73,-795.28 566,-872 558.84,-878.41 550.13,-882.89 540.93,-885.98"/>
<polygon fill="midnightblue" stroke="midnightblue" points="667.04,-588.74 663.64,-578.71 660.04,-588.68 667.04,-588.74"/>
</g>
<!-- Node9 -->
<g id="node9" class="node">
<title>Node9</title>
<g id="a_node9"><a xlink:href="a00649.html#a2e01dc1b39b189302df6bc9ab9bb779d" target="_top" xlink:title=" ">
<polygon fill="white" stroke="black" points="404.5,-832 404.5,-862 538.5,-862 538.5,-832 404.5,-832"/>
<text text-anchor="start" x="412.5" y="-850" font-family="Helvetica,sans-Serif" font-size="10.00">MiraiCP::Group::getFileList</text>
<text text-anchor="middle" x="471.5" y="-839" font-family="Helvetica,sans-Serif" font-size="10.00">String</text>
</a>
</g>
</g>
<!-- Node1&#45;&gt;Node9 -->
<g id="edge9" class="edge">
<title>Node1&#45;&gt;Node9</title>
<path fill="none" stroke="midnightblue" d="M661.82,-588.98C656.69,-636.73 636.99,-758.19 566,-822 558.25,-828.96 548.77,-834.02 538.85,-837.69"/>
<polygon fill="midnightblue" stroke="midnightblue" points="665.33,-589.04 662.81,-578.75 658.36,-588.37 665.33,-589.04"/>
</g>
<!-- Node11 -->
<g id="node11" class="node">
<title>Node11</title>
<g id="a_node11"><a xlink:href="a00405.html#ae3c41bbf773ad22ee9a0b29f4ed769ea" target="_top" xlink:title="取好友列表">
<polygon fill="white" stroke="black" points="404.5,-793.5 404.5,-812.5 538.5,-812.5 538.5,-793.5 404.5,-793.5"/>
<text text-anchor="middle" x="471.5" y="-800.5" font-family="Helvetica,sans-Serif" font-size="10.00">MiraiCP::Bot::getFriendList</text>
</a>
</g>
</g>
<!-- Node1&#45;&gt;Node11 -->
<g id="edge11" class="edge">
<title>Node1&#45;&gt;Node11</title>
<path fill="none" stroke="midnightblue" d="M660.66,-588.54C653.37,-631.25 629.85,-733.12 566,-784 558.1,-790.3 548.65,-794.67 538.85,-797.68"/>
<polygon fill="midnightblue" stroke="midnightblue" points="664.13,-589.02 662.24,-578.59 657.22,-587.92 664.13,-589.02"/>
</g>
<!-- Node13 -->
<g id="node13" class="node">
<title>Node13</title>
<g id="a_node13"><a xlink:href="a00405.html#a93687b7b6b881aa74a011dc0b979cae1" target="_top" xlink:title="取群列表">
<polygon fill="white" stroke="black" points="404.5,-755.5 404.5,-774.5 538.5,-774.5 538.5,-755.5 404.5,-755.5"/>
<text text-anchor="middle" x="471.5" y="-762.5" font-family="Helvetica,sans-Serif" font-size="10.00">MiraiCP::Bot::getGroupList</text>
</a>
</g>
</g>
<!-- Node1&#45;&gt;Node13 -->
<g id="edge13" class="edge">
<title>Node1&#45;&gt;Node13</title>
<path fill="none" stroke="midnightblue" d="M658.61,-588.58C648.28,-625.63 620.56,-705.89 566,-746 557.99,-751.89 548.6,-756.06 538.92,-758.99"/>
<polygon fill="midnightblue" stroke="midnightblue" points="662.09,-589.12 661.27,-578.56 655.32,-587.33 662.09,-589.12"/>
</g>
<!-- Node15 -->
<g id="node15" class="node">
<title>Node15</title>
<g id="a_node15"><a xlink:href="a00649.html#aaf3faea866b044099784f19148d9ce01" target="_top" xlink:title="获取groupId">
<polygon fill="white" stroke="black" points="394.5,-717.5 394.5,-736.5 548.5,-736.5 548.5,-717.5 394.5,-717.5"/>
<text text-anchor="middle" x="471.5" y="-724.5" font-family="Helvetica,sans-Serif" font-size="10.00">MiraiCP::Group::getMemberList</text>
</a>
</g>
</g>
<!-- Node1&#45;&gt;Node15 -->
<g id="edge15" class="edge">
<title>Node1&#45;&gt;Node15</title>
<path fill="none" stroke="midnightblue" d="M655.72,-588.17C642.28,-618.73 611.66,-678.1 566,-708 560.18,-711.81 553.75,-714.88 547.07,-717.36"/>
<polygon fill="midnightblue" stroke="midnightblue" points="659.08,-589.23 659.76,-578.65 652.63,-586.49 659.08,-589.23"/>
</g>
<!-- Node17 -->
<g id="node17" class="node">
<title>Node17</title>
<g id="a_node17"><a xlink:href="a00649.html#a49e685a85945a1f7b414e230fa2c27e6" target="_top" xlink:title="取群主">
<polygon fill="white" stroke="black" points="406,-679.5 406,-698.5 537,-698.5 537,-679.5 406,-679.5"/>
<text text-anchor="middle" x="471.5" y="-686.5" font-family="Helvetica,sans-Serif" font-size="10.00">MiraiCP::Group::getOwner</text>
</a>
</g>
</g>
<!-- Node1&#45;&gt;Node17 -->
<g id="edge17" class="edge">
<title>Node1&#45;&gt;Node17</title>
<path fill="none" stroke="midnightblue" d="M651.57,-586.85C635.15,-609.91 603.35,-649.51 566,-670 557.14,-674.86 547.2,-678.48 537.18,-681.18"/>
<polygon fill="midnightblue" stroke="midnightblue" points="654.45,-588.84 657.27,-578.63 648.7,-584.85 654.45,-588.84"/>
</g>
<!-- Node18 -->
<g id="node18" class="node">
<title>Node18</title>
<g id="a_node18"><a xlink:href="a00701.html#a2d1bc8f2dcdc9048ded62a0f5f53041a" target="_top" xlink:title=" ">
<polygon fill="white" stroke="black" points="413.5,-641.5 413.5,-660.5 529.5,-660.5 529.5,-641.5 413.5,-641.5"/>
<text text-anchor="middle" x="471.5" y="-648.5" font-family="Helvetica,sans-Serif" font-size="10.00">MiraiCP::Member::kick</text>
</a>
</g>
</g>
<!-- Node1&#45;&gt;Node18 -->
<g id="edge18" class="edge">
<title>Node1&#45;&gt;Node18</title>
<path fill="none" stroke="midnightblue" d="M643.91,-584.83C625.05,-599.27 595.16,-620.11 566,-632 554.65,-636.63 542.05,-640.17 529.87,-642.86"/>
<polygon fill="midnightblue" stroke="midnightblue" points="646.27,-587.42 652,-578.51 641.96,-581.91 646.27,-587.42"/>
</g>
<!-- Node19 -->
<g id="node19" class="node">
<title>Node19</title>
<g id="a_node19"><a xlink:href="a00701.html#ab26f7832af43cee20fcdc76d0f876219" target="_top" xlink:title=" ">
<polygon fill="white" stroke="black" points="411.5,-603.5 411.5,-622.5 531.5,-622.5 531.5,-603.5 411.5,-603.5"/>
<text text-anchor="middle" x="471.5" y="-610.5" font-family="Helvetica,sans-Serif" font-size="10.00">MiraiCP::Member::mute</text>
</a>
</g>
</g>
<!-- Node1&#45;&gt;Node19 -->
<g id="edge19" class="edge">
<title>Node1&#45;&gt;Node19</title>
<path fill="none" stroke="midnightblue" d="M618.08,-581.15C601.71,-585.4 583.07,-590.08 566,-594 551.79,-597.26 536.31,-600.53 522.1,-603.41"/>
<polygon fill="midnightblue" stroke="midnightblue" points="619.16,-584.49 627.95,-578.58 617.39,-577.72 619.16,-584.49"/>
</g>
<!-- Node22 -->
<g id="node22" class="node">
<title>Node22</title>
<g id="a_node22"><a xlink:href="a00465.html#addb043788194a8bffd2eeddff17080ef" target="_top" xlink:title="取群聊下一个消息(群聊与本事件一样)">
<polygon fill="white" stroke="black" points="398,-554 398,-584 545,-584 545,-554 398,-554"/>
<text text-anchor="start" x="406" y="-572" font-family="Helvetica,sans-Serif" font-size="10.00">MiraiCP::GroupMessageEvent</text>
<text text-anchor="middle" x="471.5" y="-561" font-family="Helvetica,sans-Serif" font-size="10.00">::nextMessage</text>
</a>
</g>
</g>
<!-- Node1&#45;&gt;Node22 -->
<g id="edge22" class="edge">
<title>Node1&#45;&gt;Node22</title>
<path fill="none" stroke="midnightblue" d="M591.4,-569C576.22,-569 560.21,-569 545.01,-569"/>
<polygon fill="midnightblue" stroke="midnightblue" points="591.75,-572.5 601.75,-569 591.75,-565.5 591.75,-572.5"/>
</g>
<!-- Node23 -->
<g id="node23" class="node">
<title>Node23</title>
<g id="a_node23"><a xlink:href="a00469.html#a2fadddd37811d8dcbf7183d98eba3034" target="_top" xlink:title="取下一个消息(发送人和接收人和本事件一样)">
<polygon fill="white" stroke="black" points="396.5,-505 396.5,-535 546.5,-535 546.5,-505 396.5,-505"/>
<text text-anchor="start" x="404.5" y="-523" font-family="Helvetica,sans-Serif" font-size="10.00">MiraiCP::PrivateMessageEvent</text>
<text text-anchor="middle" x="471.5" y="-512" font-family="Helvetica,sans-Serif" font-size="10.00">::nextMessage</text>
</a>
</g>
</g>
<!-- Node1&#45;&gt;Node23 -->
<g id="edge23" class="edge">
<title>Node1&#45;&gt;Node23</title>
<path fill="none" stroke="midnightblue" d="M616.33,-556.9C590.58,-550.29 558.46,-542.05 531.11,-535.04"/>
<polygon fill="midnightblue" stroke="midnightblue" points="615.66,-560.34 626.22,-559.44 617.4,-553.56 615.66,-560.34"/>
</g>
<!-- Node24 -->
<g id="node24" class="node">
<title>Node24</title>
<g id="a_node24"><a xlink:href="a00649.html#a3eddcdf9f6c83da134e878d6815da796" target="_top" xlink:title="刷新群聊信息">
<polygon fill="white" stroke="black" points="419,-466.5 419,-485.5 524,-485.5 524,-466.5 419,-466.5"/>
<text text-anchor="middle" x="471.5" y="-473.5" font-family="Helvetica,sans-Serif" font-size="10.00">MiraiCP::Group::quit</text>
</a>
</g>
</g>
<!-- Node1&#45;&gt;Node24 -->
<g id="edge24" class="edge">
<title>Node1&#45;&gt;Node24</title>
<path fill="none" stroke="midnightblue" d="M646.09,-552.22C627.68,-535.42 597.05,-510.12 566,-496 553,-490.09 538.19,-485.9 524.24,-482.93"/>
<polygon fill="midnightblue" stroke="midnightblue" points="643.95,-555 653.65,-559.26 648.72,-549.88 643.95,-555"/>
</g>
<!-- Node25 -->
<g id="node25" class="node">
<title>Node25</title>
<g id="a_node25"><a xlink:href="a00429.html#a303e5a666bc44a0a432ae4114a8ebefa" target="_top" xlink:title=" ">
<polygon fill="white" stroke="black" points="402.5,-291 402.5,-321 540.5,-321 540.5,-291 402.5,-291"/>
<text text-anchor="start" x="410.5" y="-309" font-family="Helvetica,sans-Serif" font-size="10.00">MiraiCP::Contact::quoteAnd</text>
<text text-anchor="middle" x="471.5" y="-298" font-family="Helvetica,sans-Serif" font-size="10.00">Send0</text>
</a>
</g>
</g>
<!-- Node1&#45;&gt;Node25 -->
<g id="edge25" class="edge">
<title>Node1&#45;&gt;Node25</title>
<path fill="none" stroke="midnightblue" d="M661.26,-548.95C655.05,-503.16 633.37,-390.28 566,-331 558.68,-324.56 549.88,-319.76 540.65,-316.18"/>
<polygon fill="midnightblue" stroke="midnightblue" points="657.81,-549.59 662.52,-559.08 664.76,-548.72 657.81,-549.59"/>
</g>
<!-- Node28 -->
<g id="node28" class="node">
<title>Node28</title>
<g id="a_node28"><a xlink:href="a00465.html#a67d98fb7d7214cb2bc916da47e3e5ce3" target="_top" xlink:title="取群聊中同群成员的下一个消息(发送人和群与本事件一样)">
<polygon fill="white" stroke="black" points="398,-379 398,-409 545,-409 545,-379 398,-379"/>
<text text-anchor="start" x="406" y="-397" font-family="Helvetica,sans-Serif" font-size="10.00">MiraiCP::GroupMessageEvent</text>
<text text-anchor="middle" x="471.5" y="-386" font-family="Helvetica,sans-Serif" font-size="10.00">::senderNextMessage</text>
</a>
</g>
</g>
<!-- Node1&#45;&gt;Node28 -->
<g id="edge28" class="edge">
<title>Node1&#45;&gt;Node28</title>
<path fill="none" stroke="midnightblue" d="M656.29,-549.55C643.32,-517.34 612.97,-453.09 566,-419 559.74,-414.46 552.72,-410.74 545.4,-407.7"/>
<polygon fill="midnightblue" stroke="midnightblue" points="653.13,-551.1 660.02,-559.16 659.66,-548.57 653.13,-551.1"/>
</g>
<!-- Node29 -->
<g id="node29" class="node">
<title>Node29</title>
<g id="a_node29"><a xlink:href="a00649.html#aed703d0ece4a7a9e8a1fe8e5f80eadbc" target="_top" xlink:title="上传并发送远程(群)文件">
<polygon fill="white" stroke="black" points="408.5,-340.5 408.5,-359.5 534.5,-359.5 534.5,-340.5 408.5,-340.5"/>
<text text-anchor="middle" x="471.5" y="-347.5" font-family="Helvetica,sans-Serif" font-size="10.00">MiraiCP::Group::sendFile</text>
</a>
</g>
</g>
<!-- Node1&#45;&gt;Node29 -->
<g id="edge29" class="edge">
<title>Node1&#45;&gt;Node29</title>
<path fill="none" stroke="midnightblue" d="M659.81,-549.3C651.15,-508.9 625.59,-416.53 566,-370 556.97,-362.95 546.02,-358.25 534.83,-355.14"/>
<polygon fill="midnightblue" stroke="midnightblue" points="656.4,-550.13 661.82,-559.24 663.26,-548.74 656.4,-550.13"/>
</g>
<!-- Node30 -->
<g id="node30" class="node">
<title>Node30</title>
<g id="a_node30"><a xlink:href="a00429.html#aa448a5ef12e3572c0cf751a3f37f7519" target="_top" xlink:title=" ">
<polygon fill="white" stroke="black" points="394,-428.5 394,-447.5 549,-447.5 549,-428.5 394,-428.5"/>
<text text-anchor="middle" x="471.5" y="-435.5" font-family="Helvetica,sans-Serif" font-size="10.00">MiraiCP::Contact::sendMsgImpl</text>
</a>
</g>
</g>
<!-- Node1&#45;&gt;Node30 -->
<g id="edge30" class="edge">
<title>Node1&#45;&gt;Node30</title>
<path fill="none" stroke="midnightblue" d="M652.97,-550.68C637.38,-525.34 605.7,-480.13 566,-457 559.42,-453.16 552.18,-450.09 544.74,-447.64"/>
<polygon fill="midnightblue" stroke="midnightblue" points="650,-552.53 658.13,-559.32 656.01,-548.94 650,-552.53"/>
</g>
<!-- Node33 -->
<g id="node33" class="node">
<title>Node33</title>
<g id="a_node33"><a xlink:href="a00637.html#a0321140e76255aadcd1a23c92b0d5031" target="_top" xlink:title="发送戳一戳">
<polygon fill="white" stroke="black" points="402,-252.5 402,-271.5 541,-271.5 541,-252.5 402,-252.5"/>
<text text-anchor="middle" x="471.5" y="-259.5" font-family="Helvetica,sans-Serif" font-size="10.00">MiraiCP::Friend::sendNudge</text>
</a>
</g>
</g>
<!-- Node1&#45;&gt;Node33 -->
<g id="edge33" class="edge">
<title>Node1&#45;&gt;Node33</title>
<path fill="none" stroke="midnightblue" d="M663.08,-548.98C660.82,-496.52 647.15,-354.19 566,-282 558.93,-275.71 550.37,-271.23 541.34,-268.07"/>
<polygon fill="midnightblue" stroke="midnightblue" points="659.59,-549.39 663.42,-559.27 666.58,-549.16 659.59,-549.39"/>
</g>
<!-- Node34 -->
<g id="node34" class="node">
<title>Node34</title>
<g id="a_node34"><a xlink:href="a00701.html#aff2d2c3a907f051ca89d506b02caa5d0" target="_top" xlink:title="发送戳一戳">
<polygon fill="white" stroke="black" points="398,-214.5 398,-233.5 545,-233.5 545,-214.5 398,-214.5"/>
<text text-anchor="middle" x="471.5" y="-221.5" font-family="Helvetica,sans-Serif" font-size="10.00">MiraiCP::Member::sendNudge</text>
</a>
</g>
</g>
<!-- Node1&#45;&gt;Node34 -->
<g id="edge34" class="edge">
<title>Node1&#45;&gt;Node34</title>
<path fill="none" stroke="midnightblue" d="M664.06,-549.34C664.52,-492.49 657.6,-326.69 566,-243 560.01,-237.53 552.88,-233.45 545.28,-230.44"/>
<polygon fill="midnightblue" stroke="midnightblue" points="660.56,-549.41 663.88,-559.47 667.56,-549.53 660.56,-549.41"/>
</g>
<!-- Node35 -->
<g id="node35" class="node">
<title>Node35</title>
<g id="a_node35"><a xlink:href="a00633.html#ac80faf9f28a0031b30f30728dae3e39b" target="_top" xlink:title="发送给群或好友或群成员">
<polygon fill="white" stroke="black" points="400.5,-165 400.5,-195 542.5,-195 542.5,-165 400.5,-165"/>
<text text-anchor="start" x="408.5" y="-183" font-family="Helvetica,sans-Serif" font-size="10.00">MiraiCP::ForwardedMessage</text>
<text text-anchor="middle" x="471.5" y="-172" font-family="Helvetica,sans-Serif" font-size="10.00">::sendTo</text>
</a>
</g>
</g>
<!-- Node1&#45;&gt;Node35 -->
<g id="edge35" class="edge">
<title>Node1&#45;&gt;Node35</title>
<path fill="none" stroke="midnightblue" d="M660.83,-549.23C651.18,-480.74 616.08,-255.06 566,-205 559.46,-198.47 551.42,-193.59 542.82,-189.95"/>
<polygon fill="midnightblue" stroke="midnightblue" points="657.41,-550.05 662.24,-559.47 664.34,-549.09 657.41,-550.05"/>
</g>
<!-- Node36 -->
<g id="node36" class="node">
<title>Node36</title>
<g id="a_node36"><a xlink:href="a00429.html#a1a09f38d4bf01b99f04ffdbc9168727a" target="_top" xlink:title="发送语音">
<polygon fill="white" stroke="black" points="391,-88.5 391,-107.5 552,-107.5 552,-88.5 391,-88.5"/>
<text text-anchor="middle" x="471.5" y="-95.5" font-family="Helvetica,sans-Serif" font-size="10.00">MiraiCP::Contact::sendVoiceImpl</text>
</a>
</g>
</g>
<!-- Node1&#45;&gt;Node36 -->
<g id="edge36" class="edge">
<title>Node1&#45;&gt;Node36</title>
<path fill="none" stroke="midnightblue" d="M662.04,-549.08C655.83,-469.98 629,-179.25 566,-117 561.88,-112.93 557.13,-109.61 552.01,-106.92"/>
<polygon fill="midnightblue" stroke="midnightblue" points="658.56,-549.46 662.81,-559.17 665.54,-548.93 658.56,-549.46"/>
</g>
<!-- Node39 -->
<g id="node39" class="node">
<title>Node39</title>
<g id="a_node39"><a xlink:href="a00429.html#afdd2c14fc9c7c6fceaffe4478aed8b68" target="_top" xlink:title=" ">
<polygon fill="white" stroke="black" points="406,-126.5 406,-145.5 537,-145.5 537,-126.5 406,-126.5"/>
<text text-anchor="middle" x="471.5" y="-133.5" font-family="Helvetica,sans-Serif" font-size="10.00">MiraiCP::Contact::toString</text>
</a>
</g>
</g>
<!-- Node1&#45;&gt;Node39 -->
<g id="edge39" class="edge">
<title>Node1&#45;&gt;Node39</title>
<path fill="none" stroke="midnightblue" d="M661.57,-548.94C653.96,-474.07 623.59,-212.39 566,-156 558.05,-148.22 547.86,-143.14 537.14,-139.88"/>
<polygon fill="midnightblue" stroke="midnightblue" points="658.13,-549.69 662.6,-559.29 665.09,-548.99 658.13,-549.69"/>
</g>
<!-- Node41 -->
<g id="node41" class="node">
<title>Node41</title>
<g id="a_node41"><a xlink:href="a00429.html#a9303e08a1a3d8cbcd264d52076c752ed" target="_top" xlink:title=" ">
<polygon fill="white" stroke="black" points="409,-39 409,-69 534,-69 534,-39 409,-39"/>
<text text-anchor="start" x="417" y="-57" font-family="Helvetica,sans-Serif" font-size="10.00">MiraiCP::Contact::upload</text>
<text text-anchor="middle" x="471.5" y="-46" font-family="Helvetica,sans-Serif" font-size="10.00">FlashImg</text>
</a>
</g>
</g>
<!-- Node1&#45;&gt;Node41 -->
<g id="edge42" class="edge">
<title>Node1&#45;&gt;Node41</title>
<path fill="none" stroke="midnightblue" d="M662.29,-549.15C656.82,-466.31 631.85,-149.27 566,-79 557.5,-69.93 546.1,-64.01 534.19,-60.18"/>
<polygon fill="midnightblue" stroke="midnightblue" points="658.8,-549.47 662.93,-559.23 665.78,-549.03 658.8,-549.47"/>
</g>
<!-- Node42 -->
<g id="node42" class="node">
<title>Node42</title>
<g id="a_node42"><a xlink:href="a00429.html#adcdb311ac635604b435ccd8761bd5009" target="_top" xlink:title="上传本地图片，务必要用绝对路径 由于mirai要区分图片发送对象，所以使用本函数上传的图片只能发到群">
<polygon fill="white" stroke="black" points="401,-0.5 401,-19.5 542,-19.5 542,-0.5 401,-0.5"/>
<text text-anchor="middle" x="471.5" y="-7.5" font-family="Helvetica,sans-Serif" font-size="10.00">MiraiCP::Contact::uploadImg</text>
</a>
</g>
</g>
<!-- Node1&#45;&gt;Node42 -->
<g id="edge43" class="edge">
<title>Node1&#45;&gt;Node42</title>
<path fill="none" stroke="midnightblue" d="M662.81,-549.31C659.29,-461.33 640.6,-105.25 566,-29 559.4,-22.25 551.1,-17.57 542.19,-14.36"/>
<polygon fill="midnightblue" stroke="midnightblue" points="659.32,-549.63 663.19,-559.49 666.31,-549.36 659.32,-549.63"/>
</g>
<!-- Node7&#45;&gt;Node6 -->
<g id="edge7" class="edge">
<title>Node7&#45;&gt;Node6</title>
<path fill="none" stroke="midnightblue" d="M409.8,-902.42C380.9,-907.86 346.73,-914.28 319.23,-919.46"/>
<polygon fill="midnightblue" stroke="midnightblue" points="410.61,-905.83 419.79,-900.54 409.31,-898.95 410.61,-905.83"/>
</g>
<!-- Node8 -->
<g id="node8" class="node">
<title>Node8</title>
<g id="a_node8"><a xlink:href="a00649.html#a2a2d2d51902d818f7e52a72229446a57" target="_top" xlink:title=" ">
<polygon fill="white" stroke="black" points="194.5,-881.5 194.5,-900.5 340.5,-900.5 340.5,-881.5 194.5,-881.5"/>
<text text-anchor="middle" x="267.5" y="-888.5" font-family="Helvetica,sans-Serif" font-size="10.00">MiraiCP::Group::getFileByFile</text>
</a>
</g>
</g>
<!-- Node7&#45;&gt;Node8 -->
<g id="edge8" class="edge">
<title>Node7&#45;&gt;Node8</title>
<path fill="none" stroke="midnightblue" d="M392.03,-891C375.16,-891 357.42,-891 340.8,-891"/>
<polygon fill="midnightblue" stroke="midnightblue" points="392.39,-894.5 402.39,-891 392.39,-887.5 392.39,-894.5"/>
</g>
<!-- Node10 -->
<g id="node10" class="node">
<title>Node10</title>
<g id="a_node10"><a xlink:href="a00649.html#a970ea88f55047e041eaffc2fd7cb7a91" target="_top" xlink:title=" ">
<polygon fill="white" stroke="black" points="200.5,-840.5 200.5,-859.5 334.5,-859.5 334.5,-840.5 200.5,-840.5"/>
<text text-anchor="middle" x="267.5" y="-847.5" font-family="Helvetica,sans-Serif" font-size="10.00">MiraiCP::Group::getFileList</text>
</a>
</g>
</g>
<!-- Node9&#45;&gt;Node10 -->
<g id="edge10" class="edge">
<title>Node9&#45;&gt;Node10</title>
<path fill="none" stroke="midnightblue" d="M394.26,-848.13C374.7,-848.42 353.81,-848.73 334.79,-849.02"/>
<polygon fill="midnightblue" stroke="midnightblue" points="394.41,-851.63 404.36,-847.98 394.31,-844.63 394.41,-851.63"/>
</g>
<!-- Node12 -->
<g id="node12" class="node">
<title>Node12</title>
<g id="a_node12"><a xlink:href="a00405.html#a6803e521b4209f73e70d3a20b1e20195" target="_top" xlink:title="好友列表string形式返回，利于保存">
<polygon fill="white" stroke="black" points="207,-791 207,-821 328,-821 328,-791 207,-791"/>
<text text-anchor="start" x="215" y="-809" font-family="Helvetica,sans-Serif" font-size="10.00">MiraiCP::Bot::FriendList</text>
<text text-anchor="middle" x="267.5" y="-798" font-family="Helvetica,sans-Serif" font-size="10.00">ToString</text>
</a>
</g>
</g>
<!-- Node11&#45;&gt;Node12 -->
<g id="edge12" class="edge">
<title>Node11&#45;&gt;Node12</title>
<path fill="none" stroke="midnightblue" d="M394.15,-804.13C372.36,-804.46 348.95,-804.81 328.31,-805.11"/>
<polygon fill="midnightblue" stroke="midnightblue" points="394.41,-807.63 404.36,-803.98 394.31,-800.63 394.41,-807.63"/>
</g>
<!-- Node14 -->
<g id="node14" class="node">
<title>Node14</title>
<g id="a_node14"><a xlink:href="a00405.html#ac036f287d56751ca5e33bd4d0292e306" target="_top" xlink:title="群列表string形式返回，利于保存">
<polygon fill="white" stroke="black" points="202,-742 202,-772 333,-772 333,-742 202,-742"/>
<text text-anchor="start" x="210" y="-760" font-family="Helvetica,sans-Serif" font-size="10.00">MiraiCP::Bot::GroupListTo</text>
<text text-anchor="middle" x="267.5" y="-749" font-family="Helvetica,sans-Serif" font-size="10.00">String</text>
</a>
</g>
</g>
<!-- Node13&#45;&gt;Node14 -->
<g id="edge14" class="edge">
<title>Node13&#45;&gt;Node14</title>
<path fill="none" stroke="midnightblue" d="M394.28,-761.98C374.11,-761.18 352.55,-760.33 333.07,-759.56"/>
<polygon fill="midnightblue" stroke="midnightblue" points="394.23,-765.48 404.36,-762.38 394.5,-758.49 394.23,-765.48"/>
</g>
<!-- Node16 -->
<g id="node16" class="node">
<title>Node16</title>
<g id="a_node16"><a xlink:href="a00649.html#a7e4a285e03aac96ef4152d852958329d" target="_top" xlink:title=" ">
<polygon fill="white" stroke="black" points="197.5,-693 197.5,-723 337.5,-723 337.5,-693 197.5,-693"/>
<text text-anchor="start" x="205.5" y="-711" font-family="Helvetica,sans-Serif" font-size="10.00">MiraiCP::Group::MemberList</text>
<text text-anchor="middle" x="267.5" y="-700" font-family="Helvetica,sans-Serif" font-size="10.00">ToString</text>
</a>
</g>
</g>
<!-- Node15&#45;&gt;Node16 -->
<g id="edge16" class="edge">
<title>Node15&#45;&gt;Node16</title>
<path fill="none" stroke="midnightblue" d="M384.25,-718.89C368.65,-717.42 352.56,-715.91 337.53,-714.49"/>
<polygon fill="midnightblue" stroke="midnightblue" points="384.14,-722.39 394.42,-719.84 384.79,-715.42 384.14,-722.39"/>
</g>
<!-- Node20 -->
<g id="node20" class="node">
<title>Node20</title>
<g id="a_node20"><a xlink:href="a00701.html#a7298e2edbbe9c1866c730ad1fef8fb23" target="_top" xlink:title=" ">
<polygon fill="white" stroke="black" points="207.5,-584.5 207.5,-603.5 327.5,-603.5 327.5,-584.5 207.5,-584.5"/>
<text text-anchor="middle" x="267.5" y="-591.5" font-family="Helvetica,sans-Serif" font-size="10.00">MiraiCP::Member::mute</text>
</a>
</g>
</g>
<!-- Node19&#45;&gt;Node20 -->
<g id="edge20" class="edge">
<title>Node19&#45;&gt;Node20</title>
<path fill="none" stroke="midnightblue" d="M401.19,-606.48C377.3,-604.23 350.76,-601.74 327.74,-599.57"/>
<polygon fill="midnightblue" stroke="midnightblue" points="400.97,-609.98 411.26,-607.43 401.63,-603.01 400.97,-609.98"/>
</g>
<!-- Node21 -->
<g id="node21" class="node">
<title>Node21</title>
<g id="a_node21"><a xlink:href="a00701.html#ac815c8a919d5f2b8143c8ee552acdf72" target="_top" xlink:title=" ">
<polygon fill="white" stroke="black" points="202,-622.5 202,-641.5 333,-641.5 333,-622.5 202,-622.5"/>
<text text-anchor="middle" x="267.5" y="-629.5" font-family="Helvetica,sans-Serif" font-size="10.00">MiraiCP::Member::unMute</text>
</a>
</g>
</g>
<!-- Node19&#45;&gt;Node21 -->
<g id="edge21" class="edge">
<title>Node19&#45;&gt;Node21</title>
<path fill="none" stroke="midnightblue" d="M401.28,-619.51C379.17,-621.59 354.8,-623.88 333.04,-625.93"/>
<polygon fill="midnightblue" stroke="midnightblue" points="401.63,-622.99 411.26,-618.57 400.97,-616.02 401.63,-622.99"/>
</g>
<!-- Node26 -->
<g id="node26" class="node">
<title>Node26</title>
<g id="a_node26"><a xlink:href="a00429.html#a9d17ca04eb09cbb049b8779dbacdb866" target="_top" xlink:title=" ">
<polygon fill="white" stroke="black" points="198.5,-228 198.5,-258 336.5,-258 336.5,-228 198.5,-228"/>
<text text-anchor="start" x="206.5" y="-246" font-family="Helvetica,sans-Serif" font-size="10.00">MiraiCP::Contact::quoteAnd</text>
<text text-anchor="middle" x="267.5" y="-235" font-family="Helvetica,sans-Serif" font-size="10.00">Send1</text>
</a>
</g>
</g>
<!-- Node25&#45;&gt;Node26 -->
<g id="edge26" class="edge">
<title>Node25&#45;&gt;Node26</title>
<path fill="none" stroke="midnightblue" d="M401.7,-288.24C393.35,-285.9 384.96,-283.46 377,-281 354.4,-274.03 329.47,-265.37 309.22,-258.08"/>
<polygon fill="midnightblue" stroke="midnightblue" points="400.88,-291.64 411.45,-290.94 402.75,-284.9 400.88,-291.64"/>
</g>
<!-- Node27 -->
<g id="node27" class="node">
<title>Node27</title>
<g id="a_node27"><a xlink:href="a00429.html#ad15abe9685c16a0ca083a9af7846b363" target="_top" xlink:title="回复并发送">
<polygon fill="white" stroke="black" points="10,-228 10,-258 148,-258 148,-228 10,-228"/>
<text text-anchor="start" x="18" y="-246" font-family="Helvetica,sans-Serif" font-size="10.00">MiraiCP::Contact::quoteAnd</text>
<text text-anchor="middle" x="79" y="-235" font-family="Helvetica,sans-Serif" font-size="10.00">SendMessage</text>
</a>
</g>
</g>
<!-- Node26&#45;&gt;Node27 -->
<g id="edge27" class="edge">
<title>Node26&#45;&gt;Node27</title>
<path fill="none" stroke="midnightblue" d="M188.3,-243C175,-243 161.27,-243 148.25,-243"/>
<polygon fill="midnightblue" stroke="midnightblue" points="188.38,-246.5 198.38,-243 188.38,-239.5 188.38,-246.5"/>
</g>
<!-- Node31 -->
<g id="node31" class="node">
<title>Node31</title>
<g id="a_node31"><a xlink:href="a00429.html#a78985ac5a99e904025c0b884437a512e" target="_top" xlink:title=" ">
<polygon fill="white" stroke="black" points="194,-428.5 194,-447.5 341,-447.5 341,-428.5 194,-428.5"/>
<text text-anchor="middle" x="267.5" y="-435.5" font-family="Helvetica,sans-Serif" font-size="10.00">MiraiCP::Contact::unpackMsg</text>
</a>
</g>
</g>
<!-- Node30&#45;&gt;Node31 -->
<g id="edge31" class="edge">
<title>Node30&#45;&gt;Node31</title>
<path fill="none" stroke="midnightblue" d="M383.61,-438C369.44,-438 354.89,-438 341.11,-438"/>
<polygon fill="midnightblue" stroke="midnightblue" points="383.84,-441.5 393.84,-438 383.84,-434.5 383.84,-441.5"/>
</g>
<!-- Node32 -->
<g id="node32" class="node">
<title>Node32</title>
<g id="a_node32"><a xlink:href="a00429.html#a023127d01cc223f8ac142d8c8f6b3a7f" target="_top" xlink:title="发送一条Message @detail 支持">
<polygon fill="white" stroke="black" points="0,-428.5 0,-447.5 158,-447.5 158,-428.5 0,-428.5"/>
<text text-anchor="middle" x="79" y="-435.5" font-family="Helvetica,sans-Serif" font-size="10.00">MiraiCP::Contact::sendMessage</text>
</a>
</g>
</g>
<!-- Node31&#45;&gt;Node32 -->
<g id="edge32" class="edge">
<title>Node31&#45;&gt;Node32</title>
<path fill="none" stroke="midnightblue" d="M183.65,-438C175.23,-438 166.68,-438 158.3,-438"/>
<polygon fill="midnightblue" stroke="midnightblue" points="183.86,-441.5 193.86,-438 183.86,-434.5 183.86,-441.5"/>
</g>
<!-- Node37 -->
<g id="node37" class="node">
<title>Node37</title>
<g id="a_node37"><a xlink:href="a00649.html#aeee3b1999006e12a1ba98fc28448b68b" target="_top" xlink:title="发送语音">
<polygon fill="white" stroke="black" points="200,-50.5 200,-69.5 335,-69.5 335,-50.5 200,-50.5"/>
<text text-anchor="middle" x="267.5" y="-57.5" font-family="Helvetica,sans-Serif" font-size="10.00">MiraiCP::Group::sendVoice</text>
</a>
</g>
</g>
<!-- Node36&#45;&gt;Node37 -->
<g id="edge37" class="edge">
<title>Node36&#45;&gt;Node37</title>
<path fill="none" stroke="midnightblue" d="M409.8,-86.58C380.9,-81.14 346.73,-74.72 319.23,-69.54"/>
<polygon fill="midnightblue" stroke="midnightblue" points="409.31,-90.05 419.79,-88.46 410.61,-83.17 409.31,-90.05"/>
</g>
<!-- Node38 -->
<g id="node38" class="node">
<title>Node38</title>
<g id="a_node38"><a xlink:href="a00701.html#a855bd4e1c3e457d1b906c22f560190bf" target="_top" xlink:title="发送语音">
<polygon fill="white" stroke="black" points="195.5,-88.5 195.5,-107.5 339.5,-107.5 339.5,-88.5 195.5,-88.5"/>
<text text-anchor="middle" x="267.5" y="-95.5" font-family="Helvetica,sans-Serif" font-size="10.00">MiraiCP::Member::sendVoice</text>
</a>
</g>
</g>
<!-- Node36&#45;&gt;Node38 -->
<g id="edge38" class="edge">
<title>Node36&#45;&gt;Node38</title>
<path fill="none" stroke="midnightblue" d="M380.57,-98C366.91,-98 352.97,-98 339.77,-98"/>
<polygon fill="midnightblue" stroke="midnightblue" points="380.95,-101.5 390.95,-98 380.95,-94.5 380.95,-101.5"/>
</g>
<!-- Node39&#45;&gt;Node26 -->
<g id="edge40" class="edge">
<title>Node39&#45;&gt;Node26</title>
<path fill="none" stroke="midnightblue" d="M396.43,-148.45C389.72,-150.59 383.15,-153.08 377,-156 338.83,-174.12 302.14,-208.12 282.75,-227.83"/>
<polygon fill="midnightblue" stroke="midnightblue" points="397.69,-151.73 406.32,-145.57 395.74,-145.01 397.69,-151.73"/>
</g>
<!-- Node40 -->
<g id="node40" class="node">
<title>Node40</title>
<g id="a_node40"><a xlink:href="a00429.html#aa9f8b75ac817f93205454f2d37293307" target="_top" xlink:title=" ">
<polygon fill="white" stroke="black" points="194,-126.5 194,-145.5 341,-145.5 341,-126.5 194,-126.5"/>
<text text-anchor="middle" x="267.5" y="-133.5" font-family="Helvetica,sans-Serif" font-size="10.00">MiraiCP::Contact::unpackMsg</text>
</a>
</g>
</g>
<!-- Node39&#45;&gt;Node40 -->
<g id="edge41" class="edge">
<title>Node39&#45;&gt;Node40</title>
<path fill="none" stroke="midnightblue" d="M395.47,-136C377.76,-136 358.91,-136 341.3,-136"/>
<polygon fill="midnightblue" stroke="midnightblue" points="395.75,-139.5 405.75,-136 395.75,-132.5 395.75,-139.5"/>
</g>
</g>
</svg>
