<?xml version="1.0" encoding="UTF-8" standalone="no"?>
<!DOCTYPE svg PUBLIC "-//W3C//DTD SVG 1.1//EN"
 "http://www.w3.org/Graphics/SVG/1.1/DTD/svg11.dtd">
<!-- Generated by graphviz version 2.50.0 (20211204.2007)
 -->
<!-- Title: MiraiCP::Contact::sendMsgImpl Pages: 1 -->
<svg width="1660pt" height="254pt"
 viewBox="0.00 0.00 1660.00 253.98" xmlns="http://www.w3.org/2000/svg" xmlns:xlink="http://www.w3.org/1999/xlink">
<g id="graph0" class="graph" transform="scale(1 1) rotate(0) translate(4 249.98)">
<title>MiraiCP::Contact::sendMsgImpl</title>
<polygon fill="white" stroke="transparent" points="-4,4 -4,-249.98 1656,-249.98 1656,4 -4,4"/>
<!-- Node1 -->
<g id="node1" class="node">
<title>Node1</title>
<g id="a_node1"><a xlink:title=" ">
<polygon fill="#bfbfbf" stroke="black" points="0,-122.98 0,-141.98 155,-141.98 155,-122.98 0,-122.98"/>
<text text-anchor="middle" x="77.5" y="-129.98" font-family="Helvetica,sans-Serif" font-size="10.00">MiraiCP::Contact::sendMsgImpl</text>
</a>
</g>
</g>
<!-- Node2 -->
<g id="node2" class="node">
<title>Node2</title>
<g id="a_node2"><a xlink:href="a00709.html#a1f98db6bbdf6b7d178bf92f55fd2e4dc" target="_top" xlink:title="从json字符串反序列化到MessageSource对象">
<polygon fill="white" stroke="black" points="191,-166.48 191,-196.48 319,-196.48 319,-166.48 191,-166.48"/>
<text text-anchor="start" x="199" y="-184.48" font-family="Helvetica,sans-Serif" font-size="10.00">MiraiCP::MessageSource</text>
<text text-anchor="middle" x="255" y="-173.48" font-family="Helvetica,sans-Serif" font-size="10.00">::deserializeFromString</text>
</a>
</g>
</g>
<!-- Node1&#45;&gt;Node2 -->
<g id="edge1" class="edge">
<title>Node1&#45;&gt;Node2</title>
<path fill="none" stroke="midnightblue" d="M112.75,-142.05C134.78,-148.2 164.08,-156.38 190.28,-163.69"/>
<polygon fill="midnightblue" stroke="midnightblue" points="189.57,-167.13 200.14,-166.45 191.45,-160.39 189.57,-167.13"/>
</g>
<!-- Node6 -->
<g id="node6" class="node">
<title>Node6</title>
<g id="a_node6"><a xlink:href="a00309.html#a309e8d7f316e8b5e947ea3bcddeb84a8" target="_top" xlink:title="调用 Mirai 操作">
<polygon fill="white" stroke="black" points="200.5,-117.48 200.5,-147.48 309.5,-147.48 309.5,-117.48 200.5,-117.48"/>
<text text-anchor="start" x="208.5" y="-135.48" font-family="Helvetica,sans-Serif" font-size="10.00">MiraiCP::KtOperation</text>
<text text-anchor="middle" x="255" y="-124.48" font-family="Helvetica,sans-Serif" font-size="10.00">::ktOperation</text>
</a>
</g>
</g>
<!-- Node1&#45;&gt;Node6 -->
<g id="edge5" class="edge">
<title>Node1&#45;&gt;Node6</title>
<path fill="none" stroke="midnightblue" d="M155.22,-132.48C166.87,-132.48 178.79,-132.48 190.13,-132.48"/>
<polygon fill="midnightblue" stroke="midnightblue" points="190.36,-135.98 200.36,-132.48 190.36,-128.98 190.36,-135.98"/>
</g>
<!-- Node18 -->
<g id="node18" class="node">
<title>Node18</title>
<g id="a_node18"><a xlink:href="a00425.html#a89fb588a12ff2d4de10722788945ea55" target="_top" xlink:title="序列化到json对象">
<polygon fill="white" stroke="black" points="192.5,-78.98 192.5,-97.98 317.5,-97.98 317.5,-78.98 192.5,-78.98"/>
<text text-anchor="middle" x="255" y="-85.98" font-family="Helvetica,sans-Serif" font-size="10.00">MiraiCP::Contact::toJson</text>
</a>
</g>
</g>
<!-- Node1&#45;&gt;Node18 -->
<g id="edge21" class="edge">
<title>Node1&#45;&gt;Node18</title>
<path fill="none" stroke="midnightblue" d="M116.58,-122.94C142.8,-116.36 177.84,-107.58 205.97,-100.52"/>
<polygon fill="midnightblue" stroke="midnightblue" points="207.14,-103.84 215.99,-98.01 205.44,-97.05 207.14,-103.84"/>
</g>
<!-- Node3 -->
<g id="node3" class="node">
<title>Node3</title>
<g id="a_node3"><a xlink:href="a00669.html#af14d39efa300da183070784bc86d3f23" target="_top" xlink:title="发送错误(error级日志)">
<polygon fill="white" stroke="black" points="355,-166.48 355,-196.48 483,-196.48 483,-166.48 355,-166.48"/>
<text text-anchor="start" x="363" y="-184.48" font-family="Helvetica,sans-Serif" font-size="10.00">MiraiCP::Logger_interface</text>
<text text-anchor="middle" x="419" y="-173.48" font-family="Helvetica,sans-Serif" font-size="10.00">::error</text>
</a>
</g>
</g>
<!-- Node2&#45;&gt;Node3 -->
<g id="edge2" class="edge">
<title>Node2&#45;&gt;Node3</title>
<path fill="none" stroke="midnightblue" d="M319.1,-181.48C327.43,-181.48 336.04,-181.48 344.53,-181.48"/>
<polygon fill="midnightblue" stroke="midnightblue" points="344.81,-184.98 354.81,-181.48 344.81,-177.98 344.81,-184.98"/>
</g>
<!-- Node4 -->
<g id="node4" class="node">
<title>Node4</title>
<g id="a_node4"><a xlink:href="a00669.html#a98af60f864a0446e23a7a27a3419d9b8" target="_top" xlink:title=" ">
<polygon fill="white" stroke="black" points="519,-215.48 519,-245.48 647,-245.48 647,-215.48 519,-215.48"/>
<text text-anchor="start" x="527" y="-233.48" font-family="Helvetica,sans-Serif" font-size="10.00">MiraiCP::Logger_interface</text>
<text text-anchor="middle" x="583" y="-222.48" font-family="Helvetica,sans-Serif" font-size="10.00">::constructString</text>
</a>
</g>
</g>
<!-- Node3&#45;&gt;Node4 -->
<g id="edge3" class="edge">
<title>Node3&#45;&gt;Node4</title>
<path fill="none" stroke="midnightblue" d="M469.93,-196.58C486.48,-201.59 505.07,-207.22 522.29,-212.42"/>
<polygon fill="midnightblue" stroke="midnightblue" points="521.65,-215.89 532.24,-215.43 523.68,-209.19 521.65,-215.89"/>
</g>
<!-- Node5 -->
<g id="node5" class="node">
<title>Node5</title>
<g id="a_node5"><a xlink:href="a00669.html#a86ea9d57475a3004be2a32b2c4c76371" target="_top" xlink:title="日志底层实现封装">
<polygon fill="white" stroke="black" points="519,-166.48 519,-196.48 647,-196.48 647,-166.48 519,-166.48"/>
<text text-anchor="start" x="527" y="-184.48" font-family="Helvetica,sans-Serif" font-size="10.00">MiraiCP::Logger_interface</text>
<text text-anchor="middle" x="583" y="-173.48" font-family="Helvetica,sans-Serif" font-size="10.00">::log_interface</text>
</a>
</g>
</g>
<!-- Node3&#45;&gt;Node5 -->
<g id="edge4" class="edge">
<title>Node3&#45;&gt;Node5</title>
<path fill="none" stroke="midnightblue" d="M483.1,-181.48C491.43,-181.48 500.04,-181.48 508.53,-181.48"/>
<polygon fill="midnightblue" stroke="midnightblue" points="508.81,-184.98 518.81,-181.48 508.81,-177.98 508.81,-184.98"/>
</g>
<!-- Node7 -->
<g id="node7" class="node">
<title>Node7</title>
<g id="a_node7"><a xlink:href="a00309.html#a1e1e498928eeaa1d7107033ff5fa881a" target="_top" xlink:title="调用 Mirai 操作">
<polygon fill="white" stroke="black" points="364.5,-117.48 364.5,-147.48 473.5,-147.48 473.5,-117.48 364.5,-117.48"/>
<text text-anchor="start" x="372.5" y="-135.48" font-family="Helvetica,sans-Serif" font-size="10.00">MiraiCP::KtOperation</text>
<text text-anchor="middle" x="419" y="-124.48" font-family="Helvetica,sans-Serif" font-size="10.00">::ktOperationStr</text>
</a>
</g>
</g>
<!-- Node6&#45;&gt;Node7 -->
<g id="edge6" class="edge">
<title>Node6&#45;&gt;Node7</title>
<path fill="none" stroke="midnightblue" d="M309.94,-132.48C324.15,-132.48 339.62,-132.48 354.29,-132.48"/>
<polygon fill="midnightblue" stroke="midnightblue" points="354.29,-135.98 364.29,-132.48 354.29,-128.98 354.29,-135.98"/>
</g>
<!-- Node8 -->
<g id="node8" class="node">
<title>Node8</title>
<g id="a_node8"><a xlink:href="a00303.html#a89b345ec37278655b8f02d07dbb3c882" target="_top" xlink:title="interfaces for plugins">
<polygon fill="white" stroke="black" points="529,-117.48 529,-147.48 637,-147.48 637,-117.48 529,-117.48"/>
<text text-anchor="start" x="537" y="-135.48" font-family="Helvetica,sans-Serif" font-size="10.00">LibLoader::LoaderApi</text>
<text text-anchor="middle" x="583" y="-124.48" font-family="Helvetica,sans-Serif" font-size="10.00">::pluginOperation</text>
</a>
</g>
</g>
<!-- Node7&#45;&gt;Node8 -->
<g id="edge7" class="edge">
<title>Node7&#45;&gt;Node8</title>
<path fill="none" stroke="midnightblue" d="M473.94,-132.48C488.3,-132.48 503.94,-132.48 518.75,-132.48"/>
<polygon fill="midnightblue" stroke="midnightblue" points="518.84,-135.98 528.84,-132.48 518.84,-128.98 518.84,-135.98"/>
</g>
<!-- Node9 -->
<g id="node9" class="node">
<title>Node9</title>
<g id="a_node9"><a xlink:href="a00337.html#ab263deade385e7b5de856d061c6027e9" target="_top" xlink:title=" ">
<polygon fill="white" stroke="black" points="683,-180.48 683,-210.48 800,-210.48 800,-180.48 683,-180.48"/>
<text text-anchor="start" x="691" y="-198.48" font-family="Helvetica,sans-Serif" font-size="10.00">MiraiCP::MiraiCPString</text>
<text text-anchor="middle" x="741.5" y="-187.48" font-family="Helvetica,sans-Serif" font-size="10.00">::copyToCharPtr</text>
</a>
</g>
</g>
<!-- Node8&#45;&gt;Node9 -->
<g id="edge8" class="edge">
<title>Node8&#45;&gt;Node9</title>
<path fill="none" stroke="midnightblue" d="M622,-147.5C630.25,-150.78 638.92,-154.24 647,-157.48 662.34,-163.64 679.07,-170.42 694.08,-176.53"/>
<polygon fill="midnightblue" stroke="midnightblue" points="693.09,-179.9 703.67,-180.43 695.73,-173.42 693.09,-179.9"/>
</g>
<!-- Node10 -->
<g id="node10" class="node">
<title>Node10</title>
<g id="a_node10"><a xlink:href="a00345.html#aea7d58ff9f04d6d4849c25a2506603a5" target="_top" xlink:title="取env,如果不存在重新获取">
<polygon fill="white" stroke="black" points="1289,-103.98 1289,-122.98 1408,-122.98 1408,-103.98 1289,-103.98"/>
<text text-anchor="middle" x="1348.5" y="-110.98" font-family="Helvetica,sans-Serif" font-size="10.00">JNIEnvManager::getEnv</text>
</a>
</g>
</g>
<!-- Node8&#45;&gt;Node10 -->
<g id="edge9" class="edge">
<title>Node8&#45;&gt;Node10</title>
<path fill="none" stroke="midnightblue" d="M637.02,-137.67C699.14,-143.3 805.19,-151.48 896.5,-151.48 896.5,-151.48 896.5,-151.48 1057.5,-151.48 1139.89,-151.48 1234.34,-136.22 1292.46,-125.04"/>
<polygon fill="midnightblue" stroke="midnightblue" points="1293.39,-128.42 1302.53,-123.07 1292.05,-121.55 1293.39,-128.42"/>
</g>
<!-- Node13 -->
<g id="node13" class="node">
<title>Node13</title>
<g id="a_node13"><a xlink:href="a00301.html#aa5f8d0ecd9dd392b491070aace643ae3" target="_top" xlink:title=" ">
<polygon fill="white" stroke="black" points="844,-103.98 844,-122.98 951,-122.98 951,-103.98 844,-103.98"/>
<text text-anchor="middle" x="897.5" y="-110.98" font-family="Helvetica,sans-Serif" font-size="10.00">LibLoader::jstring2str</text>
</a>
</g>
</g>
<!-- Node8&#45;&gt;Node13 -->
<g id="edge12" class="edge">
<title>Node8&#45;&gt;Node13</title>
<path fill="none" stroke="midnightblue" d="M637.01,-129.26C691.39,-125.95 775.95,-120.81 833.66,-117.3"/>
<polygon fill="midnightblue" stroke="midnightblue" points="833.98,-120.79 843.75,-116.69 833.56,-113.8 833.98,-120.79"/>
</g>
<!-- Node15 -->
<g id="node15" class="node">
<title>Node15</title>
<g id="a_node15"><a xlink:href="a00301.html#a6a6fcd695791253a9b3a053d313b2b93" target="_top" xlink:title=" ">
<polygon fill="white" stroke="black" points="688,-43.98 688,-62.98 795,-62.98 795,-43.98 688,-43.98"/>
<text text-anchor="middle" x="741.5" y="-50.98" font-family="Helvetica,sans-Serif" font-size="10.00">LibLoader::str2jstring</text>
</a>
</g>
</g>
<!-- Node8&#45;&gt;Node15 -->
<g id="edge15" class="edge">
<title>Node8&#45;&gt;Node15</title>
<path fill="none" stroke="midnightblue" d="M613.8,-117.44C642.21,-103.1 684.64,-81.68 712.45,-67.64"/>
<polygon fill="midnightblue" stroke="midnightblue" points="714.28,-70.64 721.63,-63.01 711.12,-64.39 714.28,-70.64"/>
</g>
<!-- Node11 -->
<g id="node11" class="node">
<title>Node11</title>
<g id="a_node11"><a xlink:href="a00194.html#a3d31403b7971274d47d308245206bd24" target="_top" xlink:title="为当前线程创建一个env.">
<polygon fill="white" stroke="black" points="1444,-103.98 1444,-122.98 1494,-122.98 1494,-103.98 1444,-103.98"/>
<text text-anchor="middle" x="1469" y="-110.98" font-family="Helvetica,sans-Serif" font-size="10.00">newEnv</text>
</a>
</g>
</g>
<!-- Node10&#45;&gt;Node11 -->
<g id="edge10" class="edge">
<title>Node10&#45;&gt;Node11</title>
<path fill="none" stroke="midnightblue" d="M1408.06,-113.48C1416.89,-113.48 1425.75,-113.48 1433.85,-113.48"/>
<polygon fill="midnightblue" stroke="midnightblue" points="1433.98,-116.98 1443.98,-113.48 1433.98,-109.98 1433.98,-116.98"/>
</g>
<!-- Node12 -->
<g id="node12" class="node">
<title>Node12</title>
<g id="a_node12"><a xlink:href="a00345.html#ae0e482c6a813848a8f5d34957d1b6307" target="_top" xlink:title="获取全局JavaVM对象.">
<polygon fill="white" stroke="black" points="1530,-103.98 1530,-122.98 1652,-122.98 1652,-103.98 1530,-103.98"/>
<text text-anchor="middle" x="1591" y="-110.98" font-family="Helvetica,sans-Serif" font-size="10.00">JNIEnvManager::getGvm</text>
</a>
</g>
</g>
<!-- Node11&#45;&gt;Node12 -->
<g id="edge11" class="edge">
<title>Node11&#45;&gt;Node12</title>
<path fill="none" stroke="midnightblue" d="M1494.28,-113.48C1501.75,-113.48 1510.37,-113.48 1519.32,-113.48"/>
<polygon fill="midnightblue" stroke="midnightblue" points="1519.52,-116.98 1529.52,-113.48 1519.52,-109.98 1519.52,-116.98"/>
</g>
<!-- Node14 -->
<g id="node14" class="node">
<title>Node14</title>
<g id="a_node14"><a xlink:href="a00305.html#a076c5f4ff8083c7cfc6523498d0ba30f" target="_top" xlink:title=" ">
<polygon fill="white" stroke="black" points="1154,-76.48 1154,-106.48 1253,-106.48 1253,-76.48 1154,-76.48"/>
<text text-anchor="start" x="1162" y="-94.48" font-family="Helvetica,sans-Serif" font-size="10.00">LibLoader::JNIEnvs</text>
<text text-anchor="middle" x="1203.5" y="-83.48" font-family="Helvetica,sans-Serif" font-size="10.00">::getEnv</text>
</a>
</g>
</g>
<!-- Node13&#45;&gt;Node14 -->
<g id="edge13" class="edge">
<title>Node13&#45;&gt;Node14</title>
<path fill="none" stroke="midnightblue" d="M951.11,-109.68C1004.7,-105.8 1087.65,-99.79 1143.46,-95.76"/>
<polygon fill="midnightblue" stroke="midnightblue" points="1143.83,-99.24 1153.55,-95.03 1143.32,-92.26 1143.83,-99.24"/>
</g>
<!-- Node14&#45;&gt;Node10 -->
<g id="edge14" class="edge">
<title>Node14&#45;&gt;Node10</title>
<path fill="none" stroke="midnightblue" d="M1253.31,-98.99C1261.51,-100.25 1270.16,-101.58 1278.75,-102.91"/>
<polygon fill="midnightblue" stroke="midnightblue" points="1278.36,-106.39 1288.78,-104.45 1279.43,-99.47 1278.36,-106.39"/>
</g>
<!-- Node15&#45;&gt;Node14 -->
<g id="edge16" class="edge">
<title>Node15&#45;&gt;Node14</title>
<path fill="none" stroke="midnightblue" d="M795.27,-57.84C881.84,-64.99 1053.43,-79.17 1143.75,-86.63"/>
<polygon fill="midnightblue" stroke="midnightblue" points="1143.57,-90.13 1153.82,-87.46 1144.14,-83.15 1143.57,-90.13"/>
</g>
<!-- Node16 -->
<g id="node16" class="node">
<title>Node16</title>
<g id="a_node16"><a xlink:href="a00377.html#af50d0545fe7d683e54fcd03453a423e3" target="_top" xlink:title=" ">
<polygon fill="white" stroke="black" points="836,-16.48 836,-46.48 959,-46.48 959,-16.48 836,-16.48"/>
<text text-anchor="start" x="844" y="-34.48" font-family="Helvetica,sans-Serif" font-size="10.00">LibLoader::LoaderLogger</text>
<text text-anchor="middle" x="897.5" y="-23.48" font-family="Helvetica,sans-Serif" font-size="10.00">::warning</text>
</a>
</g>
</g>
<!-- Node15&#45;&gt;Node16 -->
<g id="edge17" class="edge">
<title>Node15&#45;&gt;Node16</title>
<path fill="none" stroke="midnightblue" d="M795.07,-45.97C805.04,-44.55 815.62,-43.04 826.04,-41.55"/>
<polygon fill="midnightblue" stroke="midnightblue" points="826.55,-45.01 835.95,-40.13 825.56,-38.08 826.55,-45.01"/>
</g>
<!-- Node17 -->
<g id="node17" class="node">
<title>Node17</title>
<g id="a_node17"><a xlink:href="a00377.html#af4d7d5164450e25f7401d1cc15f15b8d" target="_top" xlink:title="实际暴露的接口">
<polygon fill="white" stroke="black" points="995,-16.48 995,-46.48 1118,-46.48 1118,-16.48 995,-16.48"/>
<text text-anchor="start" x="1003" y="-34.48" font-family="Helvetica,sans-Serif" font-size="10.00">LibLoader::LoaderLogger</text>
<text text-anchor="middle" x="1056.5" y="-23.48" font-family="Helvetica,sans-Serif" font-size="10.00">::call_logger</text>
</a>
</g>
</g>
<!-- Node16&#45;&gt;Node17 -->
<g id="edge18" class="edge">
<title>Node16&#45;&gt;Node17</title>
<path fill="none" stroke="midnightblue" d="M959.2,-31.48C967.64,-31.48 976.36,-31.48 984.95,-31.48"/>
<polygon fill="midnightblue" stroke="midnightblue" points="984.96,-34.98 994.96,-31.48 984.96,-27.98 984.96,-34.98"/>
</g>
<!-- Node17&#45;&gt;Node14 -->
<g id="edge19" class="edge">
<title>Node17&#45;&gt;Node14</title>
<path fill="none" stroke="midnightblue" d="M1094.09,-46.62C1113.14,-54.51 1136.61,-64.22 1156.84,-72.59"/>
<polygon fill="midnightblue" stroke="midnightblue" points="1155.6,-75.86 1166.17,-76.45 1158.27,-69.39 1155.6,-75.86"/>
</g>
<!-- Node17&#45;&gt;Node15 -->
<g id="edge20" class="edge">
<title>Node17&#45;&gt;Node15</title>
<path fill="none" stroke="midnightblue" d="M1006.97,-16.47C962.11,-4.82 893.84,7.24 836,-6.48 809.99,-12.65 782.99,-27.26 764.73,-38.56"/>
<polygon fill="midnightblue" stroke="midnightblue" points="762.83,-35.63 756.27,-43.95 766.59,-41.53 762.83,-35.63"/>
</g>
</g>
</svg>
