<?xml version="1.0" encoding="UTF-8" standalone="no"?>
<!DOCTYPE svg PUBLIC "-//W3C//DTD SVG 1.1//EN"
 "http://www.w3.org/Graphics/SVG/1.1/DTD/svg11.dtd">
<!-- Generated by graphviz version 9.0.0 (0)
 -->
<!-- Title: MiraiCP::Contact::toJson Pages: 1 -->
<svg width="544pt" height="910pt"
 viewBox="0.00 0.00 544.25 910.00" xmlns="http://www.w3.org/2000/svg" xmlns:xlink="http://www.w3.org/1999/xlink">
<g id="graph0" class="graph" transform="scale(1 1) rotate(0) translate(4 906)">
<title>MiraiCP::Contact::toJson</title>
<!-- Node1 -->
<g id="Node000001" class="node">
<title>Node1</title>
<g id="a_Node000001"><a xlink:title="序列化到json对象">
<polygon fill="#999999" stroke="#666666" points="536.25,-479 409.25,-479 409.25,-459 536.25,-459 536.25,-479"/>
<text text-anchor="middle" x="472.75" y="-465.5" font-family="Helvetica,sans-Serif" font-size="10.00">MiraiCP::Contact::toJson</text>
</a>
</g>
</g>
<!-- Node2 -->
<g id="Node000002" class="node">
<title>Node2</title>
<g id="a_Node000002"><a xlink:href="a00644.html#afa172c24046945b1208344d3be9d5cfe" target="_top" xlink:title=" ">
<polygon fill="white" stroke="#666666" points="367.25,-902 190,-902 190,-882 367.25,-882 367.25,-902"/>
<text text-anchor="middle" x="278.62" y="-888.5" font-family="Helvetica,sans-Serif" font-size="10.00">MiraiCP::Member::changeNameCard</text>
</a>
</g>
</g>
<!-- Node1&#45;&gt;Node2 -->
<g id="edge1_Node000001_Node000002" class="edge">
<title>Node1&#45;&gt;Node2</title>
<g id="a_edge1_Node000001_Node000002"><a xlink:title=" ">
<path fill="none" stroke="#63b8ff" d="M469.51,-490.54C461.21,-566.29 429.69,-818.71 373.25,-873 369.78,-876.33 365.9,-879.16 361.74,-881.54"/>
<polygon fill="#63b8ff" stroke="#63b8ff" points="472.98,-491.07 470.56,-480.75 466.02,-490.32 472.98,-491.07"/>
</a>
</g>
</g>
<!-- Node3 -->
<g id="Node000003" class="node">
<title>Node3</title>
<g id="a_Node000003"><a xlink:href="a00644.html#a62b5b9e3c5e35214da533742f5644126" target="_top" xlink:title="更改群成员群头衔">
<polygon fill="white" stroke="#666666" points="359.75,-864 197.5,-864 197.5,-832 359.75,-832 359.75,-864"/>
<text text-anchor="start" x="205.5" y="-850.5" font-family="Helvetica,sans-Serif" font-size="10.00">MiraiCP::Member::changeSpecial</text>
<text text-anchor="middle" x="278.62" y="-838.5" font-family="Helvetica,sans-Serif" font-size="10.00">Title</text>
</a>
</g>
</g>
<!-- Node1&#45;&gt;Node3 -->
<g id="edge2_Node000001_Node000003" class="edge">
<title>Node1&#45;&gt;Node3</title>
<g id="a_edge2_Node000001_Node000003"><a xlink:title=" ">
<path fill="none" stroke="#63b8ff" d="M472.59,-490.82C473.71,-552.4 468.07,-729.16 373.25,-823 369.3,-826.91 364.82,-830.22 360,-833.03"/>
<polygon fill="#63b8ff" stroke="#63b8ff" points="476.09,-490.91 472.32,-481.01 469.1,-491.1 476.09,-490.91"/>
</a>
</g>
</g>
<!-- Node4 -->
<g id="Node000004" class="node">
<title>Node4</title>
<g id="a_Node000004"><a xlink:href="a00604.html#ad21c4f5d158162f49bb008e6c37f7df9" target="_top" xlink:title="删除好友">
<polygon fill="white" stroke="#666666" points="350.38,-814 206.88,-814 206.88,-794 350.38,-794 350.38,-814"/>
<text text-anchor="middle" x="278.62" y="-800.5" font-family="Helvetica,sans-Serif" font-size="10.00">MiraiCP::Friend::deleteFriend</text>
</a>
</g>
</g>
<!-- Node1&#45;&gt;Node4 -->
<g id="edge3_Node000001_Node000004" class="edge">
<title>Node1&#45;&gt;Node4</title>
<g id="a_edge3_Node000001_Node000004"><a xlink:title=" ">
<path fill="none" stroke="#63b8ff" d="M472.01,-490.66C471.44,-548.09 461.48,-705.34 373.25,-785 366.73,-790.89 358.89,-795.16 350.57,-798.22"/>
<polygon fill="#63b8ff" stroke="#63b8ff" points="475.51,-490.93 472.01,-480.93 468.51,-490.93 475.51,-490.93"/>
</a>
</g>
</g>
<!-- Node5 -->
<g id="Node000005" class="node">
<title>Node5</title>
<g id="a_Node000005"><a xlink:href="a00624.html#a4e01ea12b1be658a14fbd10b26e81fb8" target="_top" xlink:title="取群公告列表">
<polygon fill="white" stroke="#666666" points="373.25,-776 184,-776 184,-756 373.25,-756 373.25,-776"/>
<text text-anchor="middle" x="278.62" y="-762.5" font-family="Helvetica,sans-Serif" font-size="10.00">MiraiCP::Group::getAnnouncementsList</text>
</a>
</g>
</g>
<!-- Node1&#45;&gt;Node5 -->
<g id="edge4_Node000001_Node000005" class="edge">
<title>Node1&#45;&gt;Node5</title>
<g id="a_edge4_Node000001_Node000005"><a xlink:title=" ">
<path fill="none" stroke="#63b8ff" d="M470.96,-490.5C467.79,-543.03 451.99,-678.6 373.25,-747 369.37,-750.37 365.05,-753.21 360.47,-755.58"/>
<polygon fill="#63b8ff" stroke="#63b8ff" points="474.44,-490.96 471.44,-480.8 467.45,-490.61 474.44,-490.96"/>
</a>
</g>
</g>
<!-- Node6 -->
<g id="Node000006" class="node">
<title>Node6</title>
<g id="a_Node000006"><a xlink:href="a00448.html#ae3c41bbf773ad22ee9a0b29f4ed769ea" target="_top" xlink:title="取好友列表">
<polygon fill="white" stroke="#666666" points="345.88,-738 211.38,-738 211.38,-718 345.88,-718 345.88,-738"/>
<text text-anchor="middle" x="278.62" y="-724.5" font-family="Helvetica,sans-Serif" font-size="10.00">MiraiCP::Bot::getFriendList</text>
</a>
</g>
</g>
<!-- Node1&#45;&gt;Node6 -->
<g id="edge5_Node000001_Node000006" class="edge">
<title>Node1&#45;&gt;Node6</title>
<g id="a_edge5_Node000001_Node000006"><a xlink:title=" ">
<path fill="none" stroke="#63b8ff" d="M469.57,-490.74C463.58,-538.28 442.41,-651.83 373.25,-709 365.45,-715.45 356.05,-719.9 346.26,-722.94"/>
<polygon fill="#63b8ff" stroke="#63b8ff" points="473.03,-491.25 470.69,-480.92 466.08,-490.46 473.03,-491.25"/>
</a>
</g>
</g>
<!-- Node8 -->
<g id="Node000008" class="node">
<title>Node8</title>
<g id="a_Node000008"><a xlink:href="a00448.html#a93687b7b6b881aa74a011dc0b979cae1" target="_top" xlink:title="取群列表">
<polygon fill="white" stroke="#666666" points="345.5,-700 211.75,-700 211.75,-680 345.5,-680 345.5,-700"/>
<text text-anchor="middle" x="278.62" y="-686.5" font-family="Helvetica,sans-Serif" font-size="10.00">MiraiCP::Bot::getGroupList</text>
</a>
</g>
</g>
<!-- Node1&#45;&gt;Node8 -->
<g id="edge7_Node000001_Node000008" class="edge">
<title>Node1&#45;&gt;Node8</title>
<g id="a_edge7_Node000001_Node000008"><a xlink:title=" ">
<path fill="none" stroke="#63b8ff" d="M467.8,-490.42C458.9,-532.22 433.22,-624.59 373.25,-671 365.25,-677.19 355.75,-681.51 345.91,-684.5"/>
<polygon fill="#63b8ff" stroke="#63b8ff" points="471.18,-491.38 469.7,-480.88 464.31,-490.01 471.18,-491.38"/>
</a>
</g>
</g>
<!-- Node10 -->
<g id="Node000010" class="node">
<title>Node10</title>
<g id="a_Node000010"><a xlink:href="a00448.html#aa3653efd4bf60ccebeb2025defe777a4" target="_top" xlink:title="取在线 Bot 列表">
<polygon fill="white" stroke="#666666" points="356.38,-662 200.88,-662 200.88,-642 356.38,-642 356.38,-662"/>
<text text-anchor="middle" x="278.62" y="-648.5" font-family="Helvetica,sans-Serif" font-size="10.00">MiraiCP::Bot::getOnlineBotsList</text>
</a>
</g>
</g>
<!-- Node1&#45;&gt;Node10 -->
<g id="edge9_Node000001_Node000010" class="edge">
<title>Node1&#45;&gt;Node10</title>
<g id="a_edge9_Node000001_Node000010"><a xlink:title=" ">
<path fill="none" stroke="#63b8ff" d="M465.36,-490.02C453.42,-525.53 424.21,-597 373.25,-633 368.1,-636.64 362.42,-639.61 356.48,-642.04"/>
<polygon fill="#63b8ff" stroke="#63b8ff" points="468.68,-491.12 468.41,-480.53 462.02,-488.98 468.68,-491.12"/>
</a>
</g>
</g>
<!-- Node12 -->
<g id="Node000012" class="node">
<title>Node12</title>
<g id="a_Node000012"><a xlink:href="a00644.html#a2d1bc8f2dcdc9048ded62a0f5f53041a" target="_top" xlink:title=" ">
<polygon fill="white" stroke="#666666" points="336.88,-624 220.38,-624 220.38,-604 336.88,-604 336.88,-624"/>
<text text-anchor="middle" x="278.62" y="-610.5" font-family="Helvetica,sans-Serif" font-size="10.00">MiraiCP::Member::kick</text>
</a>
</g>
</g>
<!-- Node1&#45;&gt;Node12 -->
<g id="edge11_Node000001_Node000012" class="edge">
<title>Node1&#45;&gt;Node12</title>
<g id="a_edge11_Node000001_Node000012"><a xlink:title=" ">
<path fill="none" stroke="#63b8ff" d="M461.9,-489.15C446.91,-517.55 415.57,-568.83 373.25,-595 362.39,-601.72 349.59,-606.11 337,-608.97"/>
<polygon fill="#63b8ff" stroke="#63b8ff" points="464.89,-491 466.31,-480.5 458.65,-487.82 464.89,-491"/>
</a>
</g>
</g>
<!-- Node13 -->
<g id="Node000013" class="node">
<title>Node13</title>
<g id="a_Node000013"><a xlink:href="a00644.html#a7207187ce22e9e1910fd3188e7140cd5" target="_top" xlink:title="更改群成员权限">
<polygon fill="white" stroke="#666666" points="356.38,-586 200.88,-586 200.88,-566 356.38,-566 356.38,-586"/>
<text text-anchor="middle" x="278.62" y="-572.5" font-family="Helvetica,sans-Serif" font-size="10.00">MiraiCP::Member::modifyAdmin</text>
</a>
</g>
</g>
<!-- Node1&#45;&gt;Node13 -->
<g id="edge12_Node000001_Node000013" class="edge">
<title>Node1&#45;&gt;Node13</title>
<g id="a_edge12_Node000001_Node000013"><a xlink:title=" ">
<path fill="none" stroke="#63b8ff" d="M456.04,-488.07C438.17,-508.43 407.05,-540.06 373.25,-557 366.43,-560.42 359.04,-563.22 351.5,-565.52"/>
<polygon fill="#63b8ff" stroke="#63b8ff" points="458.68,-490.37 462.51,-480.49 453.36,-485.82 458.68,-490.37"/>
</a>
</g>
</g>
<!-- Node14 -->
<g id="Node000014" class="node">
<title>Node14</title>
<g id="a_Node000014"><a xlink:href="a00644.html#ab26f7832af43cee20fcdc76d0f876219" target="_top" xlink:title=" ">
<polygon fill="white" stroke="#666666" points="338.75,-548 218.5,-548 218.5,-528 338.75,-528 338.75,-548"/>
<text text-anchor="middle" x="278.62" y="-534.5" font-family="Helvetica,sans-Serif" font-size="10.00">MiraiCP::Member::mute</text>
</a>
</g>
</g>
<!-- Node1&#45;&gt;Node14 -->
<g id="edge13_Node000001_Node000014" class="edge">
<title>Node1&#45;&gt;Node14</title>
<g id="a_edge13_Node000001_Node000014"><a xlink:title=" ">
<path fill="none" stroke="#63b8ff" d="M445.05,-485.04C425.71,-496.03 398.62,-510.17 373.25,-519 362.44,-522.76 350.66,-525.88 339.21,-528.42"/>
<polygon fill="#63b8ff" stroke="#63b8ff" points="446.73,-488.12 453.63,-480.07 443.22,-482.06 446.73,-488.12"/>
</a>
</g>
</g>
<!-- Node15 -->
<g id="Node000015" class="node">
<title>Node15</title>
<g id="a_Node000015"><a xlink:href="a00528.html#addb043788194a8bffd2eeddff17080ef" target="_top" xlink:title="取群聊下一个消息(群聊与本事件一样)">
<polygon fill="white" stroke="#666666" points="353,-510 204.25,-510 204.25,-478 353,-478 353,-510"/>
<text text-anchor="start" x="212.25" y="-496.5" font-family="Helvetica,sans-Serif" font-size="10.00">MiraiCP::GroupMessageEvent</text>
<text text-anchor="middle" x="278.62" y="-484.5" font-family="Helvetica,sans-Serif" font-size="10.00">::nextMessage</text>
</a>
</g>
</g>
<!-- Node1&#45;&gt;Node15 -->
<g id="edge14_Node000001_Node000015" class="edge">
<title>Node1&#45;&gt;Node15</title>
<g id="a_edge14_Node000001_Node000015"><a xlink:title=" ">
<path fill="none" stroke="#63b8ff" d="M397.85,-478.62C383.26,-480.51 367.95,-482.51 353.36,-484.4"/>
<polygon fill="#63b8ff" stroke="#63b8ff" points="397.88,-482.14 407.34,-477.38 396.97,-475.2 397.88,-482.14"/>
</a>
</g>
</g>
<!-- Node16 -->
<g id="Node000016" class="node">
<title>Node16</title>
<g id="a_Node000016"><a xlink:href="a00568.html#a2fadddd37811d8dcbf7183d98eba3034" target="_top" xlink:title="取下一个消息(发送人和接收人和本事件一样)">
<polygon fill="white" stroke="#666666" points="355.25,-460 202,-460 202,-428 355.25,-428 355.25,-460"/>
<text text-anchor="start" x="210" y="-446.5" font-family="Helvetica,sans-Serif" font-size="10.00">MiraiCP::PrivateMessageEvent</text>
<text text-anchor="middle" x="278.62" y="-434.5" font-family="Helvetica,sans-Serif" font-size="10.00">::nextMessage</text>
</a>
</g>
</g>
<!-- Node1&#45;&gt;Node16 -->
<g id="edge15_Node000001_Node000016" class="edge">
<title>Node1&#45;&gt;Node16</title>
<g id="a_edge15_Node000001_Node000016"><a xlink:title=" ">
<path fill="none" stroke="#63b8ff" d="M397.51,-459.34C383.81,-457.56 369.49,-455.69 355.74,-453.9"/>
<polygon fill="#63b8ff" stroke="#63b8ff" points="396.97,-462.8 407.34,-460.62 397.88,-455.86 396.97,-462.8"/>
</a>
</g>
</g>
<!-- Node17 -->
<g id="Node000017" class="node">
<title>Node17</title>
<g id="a_Node000017"><a xlink:href="a00460.html#aee1b53cae7cec3e1d65daa3d23625223" target="_top" xlink:title=" ">
<polygon fill="white" stroke="#666666" points="348.12,-410 209.12,-410 209.12,-378 348.12,-378 348.12,-410"/>
<text text-anchor="start" x="217.12" y="-396.5" font-family="Helvetica,sans-Serif" font-size="10.00">MiraiCP::Contact::quoteAnd</text>
<text text-anchor="middle" x="278.62" y="-384.5" font-family="Helvetica,sans-Serif" font-size="10.00">SendImpl</text>
</a>
</g>
</g>
<!-- Node1&#45;&gt;Node17 -->
<g id="edge16_Node000001_Node000017" class="edge">
<title>Node1&#45;&gt;Node17</title>
<g id="a_edge16_Node000001_Node000017"><a xlink:title=" ">
<path fill="none" stroke="#63b8ff" d="M444.17,-453.04C424.81,-442.32 398.04,-428.48 373.25,-419 365.16,-415.9 356.53,-413.04 347.92,-410.45"/>
<polygon fill="#63b8ff" stroke="#63b8ff" points="442.36,-456.03 452.79,-457.88 445.79,-449.93 442.36,-456.03"/>
</a>
</g>
</g>
<!-- Node21 -->
<g id="Node000021" class="node">
<title>Node21</title>
<g id="a_Node000021"><a xlink:href="a00528.html#a67d98fb7d7214cb2bc916da47e3e5ce3" target="_top" xlink:title="取群聊中同群成员的下一个消息(发送人和群与本事件一样)">
<polygon fill="white" stroke="#666666" points="353,-360 204.25,-360 204.25,-328 353,-328 353,-360"/>
<text text-anchor="start" x="212.25" y="-346.5" font-family="Helvetica,sans-Serif" font-size="10.00">MiraiCP::GroupMessageEvent</text>
<text text-anchor="middle" x="278.62" y="-334.5" font-family="Helvetica,sans-Serif" font-size="10.00">::senderNextMessage</text>
</a>
</g>
</g>
<!-- Node1&#45;&gt;Node21 -->
<g id="edge20_Node000001_Node000021" class="edge">
<title>Node1&#45;&gt;Node21</title>
<g id="a_edge20_Node000001_Node000021"><a xlink:title=" ">
<path fill="none" stroke="#63b8ff" d="M457.95,-449.72C440.69,-427.04 409.03,-389.82 373.25,-369 367,-365.36 360.2,-362.24 353.23,-359.57"/>
<polygon fill="#63b8ff" stroke="#63b8ff" points="454.97,-451.58 463.73,-457.53 460.59,-447.41 454.97,-451.58"/>
</a>
</g>
</g>
<!-- Node22 -->
<g id="Node000022" class="node">
<title>Node22</title>
<g id="a_Node000022"><a xlink:href="a00460.html#aa448a5ef12e3572c0cf751a3f37f7519" target="_top" xlink:title=" ">
<polygon fill="white" stroke="#666666" points="356.75,-108 200.5,-108 200.5,-88 356.75,-88 356.75,-108"/>
<text text-anchor="middle" x="278.62" y="-94.5" font-family="Helvetica,sans-Serif" font-size="10.00">MiraiCP::Contact::sendMsgImpl</text>
</a>
</g>
</g>
<!-- Node1&#45;&gt;Node22 -->
<g id="edge21_Node000001_Node000022" class="edge">
<title>Node1&#45;&gt;Node22</title>
<g id="a_edge21_Node000001_Node000022"><a xlink:title=" ">
<path fill="none" stroke="#63b8ff" d="M468.71,-447.58C458.45,-378.49 423.01,-163.27 373.25,-117 368.51,-112.6 363.05,-109.09 357.18,-106.32"/>
<polygon fill="#63b8ff" stroke="#63b8ff" points="465.2,-447.82 470.11,-457.21 472.13,-446.81 465.2,-447.82"/>
</a>
</g>
</g>
<!-- Node26 -->
<g id="Node000026" class="node">
<title>Node26</title>
<g id="a_Node000026"><a xlink:href="a00604.html#a0321140e76255aadcd1a23c92b0d5031" target="_top" xlink:title="发送戳一戳">
<polygon fill="white" stroke="#666666" points="348.5,-272 208.75,-272 208.75,-252 348.5,-252 348.5,-272"/>
<text text-anchor="middle" x="278.62" y="-258.5" font-family="Helvetica,sans-Serif" font-size="10.00">MiraiCP::Friend::sendNudge</text>
</a>
</g>
</g>
<!-- Node1&#45;&gt;Node26 -->
<g id="edge25_Node000001_Node000026" class="edge">
<title>Node1&#45;&gt;Node26</title>
<g id="a_edge25_Node000001_Node000026"><a xlink:title=" ">
<path fill="none" stroke="#63b8ff" d="M467,-447.71C457,-408.17 429.88,-323.53 373.25,-281 365.96,-275.52 357.47,-271.52 348.65,-268.61"/>
<polygon fill="#63b8ff" stroke="#63b8ff" points="463.58,-448.47 469.31,-457.39 470.39,-446.85 463.58,-448.47"/>
</a>
</g>
</g>
<!-- Node27 -->
<g id="Node000027" class="node">
<title>Node27</title>
<g id="a_Node000027"><a xlink:href="a00644.html#aff2d2c3a907f051ca89d506b02caa5d0" target="_top" xlink:title="发送戳一戳">
<polygon fill="white" stroke="#666666" points="352.62,-234 204.62,-234 204.62,-214 352.62,-214 352.62,-234"/>
<text text-anchor="middle" x="278.62" y="-220.5" font-family="Helvetica,sans-Serif" font-size="10.00">MiraiCP::Member::sendNudge</text>
</a>
</g>
</g>
<!-- Node1&#45;&gt;Node27 -->
<g id="edge26_Node000001_Node000027" class="edge">
<title>Node1&#45;&gt;Node27</title>
<g id="a_edge26_Node000001_Node000027"><a xlink:title=" ">
<path fill="none" stroke="#63b8ff" d="M469.01,-447.61C462.02,-402.26 439.12,-296.27 373.25,-243 367.19,-238.1 360.2,-234.36 352.82,-231.51"/>
<polygon fill="#63b8ff" stroke="#63b8ff" points="465.54,-448.02 470.4,-457.43 472.47,-447.04 465.54,-448.02"/>
</a>
</g>
</g>
<!-- Node28 -->
<g id="Node000028" class="node">
<title>Node28</title>
<g id="a_Node000028"><a xlink:href="a00600.html#ac80faf9f28a0031b30f30728dae3e39b" target="_top" xlink:title="发送给群或好友或群成员">
<polygon fill="white" stroke="#666666" points="350,-196 207.25,-196 207.25,-164 350,-164 350,-196"/>
<text text-anchor="start" x="215.25" y="-182.5" font-family="Helvetica,sans-Serif" font-size="10.00">MiraiCP::ForwardedMessage</text>
<text text-anchor="middle" x="278.62" y="-170.5" font-family="Helvetica,sans-Serif" font-size="10.00">::sendTo</text>
</a>
</g>
</g>
<!-- Node1&#45;&gt;Node28 -->
<g id="edge27_Node000001_Node000028" class="edge">
<title>Node1&#45;&gt;Node28</title>
<g id="a_edge27_Node000001_Node000028"><a xlink:title=" ">
<path fill="none" stroke="#63b8ff" d="M470.18,-447.18C465.34,-396.73 446.21,-271.26 373.25,-205 366.65,-199.01 358.77,-194.42 350.42,-190.92"/>
<polygon fill="#63b8ff" stroke="#63b8ff" points="466.68,-447.39 471.01,-457.06 473.66,-446.8 466.68,-447.39"/>
</a>
</g>
</g>
<!-- Node29 -->
<g id="Node000029" class="node">
<title>Node29</title>
<g id="a_Node000029"><a xlink:href="a00460.html#a1a09f38d4bf01b99f04ffdbc9168727a" target="_top" xlink:title="发送语音">
<polygon fill="white" stroke="#666666" points="359.38,-146 197.88,-146 197.88,-126 359.38,-126 359.38,-146"/>
<text text-anchor="middle" x="278.62" y="-132.5" font-family="Helvetica,sans-Serif" font-size="10.00">MiraiCP::Contact::sendVoiceImpl</text>
</a>
</g>
</g>
<!-- Node1&#45;&gt;Node29 -->
<g id="edge28_Node000001_Node000029" class="edge">
<title>Node1&#45;&gt;Node29</title>
<g id="a_edge28_Node000001_Node000029"><a xlink:title=" ">
<path fill="none" stroke="#63b8ff" d="M471.96,-447.48C471.27,-390.39 461.04,-234.12 373.25,-155 369.18,-151.34 364.61,-148.3 359.73,-145.79"/>
<polygon fill="#63b8ff" stroke="#63b8ff" points="468.46,-447.14 471.98,-457.13 475.46,-447.13 468.46,-447.14"/>
</a>
</g>
</g>
<!-- Node30 -->
<g id="Node000030" class="node">
<title>Node30</title>
<g id="a_Node000030"><a xlink:href="a00460.html#afdd2c14fc9c7c6fceaffe4478aed8b68" target="_top" xlink:title=" ">
<polygon fill="white" stroke="#666666" points="344.38,-310 212.88,-310 212.88,-290 344.38,-290 344.38,-310"/>
<text text-anchor="middle" x="278.62" y="-296.5" font-family="Helvetica,sans-Serif" font-size="10.00">MiraiCP::Contact::toString</text>
</a>
</g>
</g>
<!-- Node1&#45;&gt;Node30 -->
<g id="edge29_Node000001_Node000030" class="edge">
<title>Node1&#45;&gt;Node30</title>
<g id="a_edge29_Node000001_Node000030"><a xlink:title=" ">
<path fill="none" stroke="#63b8ff" d="M464.1,-447.9C450.96,-414.81 420.82,-351.19 373.25,-319 364.73,-313.24 354.85,-309.15 344.76,-306.27"/>
<polygon fill="#63b8ff" stroke="#63b8ff" points="460.81,-449.08 467.64,-457.18 467.35,-446.58 460.81,-449.08"/>
</a>
</g>
</g>
<!-- Node31 -->
<g id="Node000031" class="node">
<title>Node31</title>
<g id="a_Node000031"><a xlink:href="a00460.html#a9303e08a1a3d8cbcd264d52076c752ed" target="_top" xlink:title=" ">
<polygon fill="white" stroke="#666666" points="341.75,-70 215.5,-70 215.5,-38 341.75,-38 341.75,-70"/>
<text text-anchor="start" x="223.5" y="-56.5" font-family="Helvetica,sans-Serif" font-size="10.00">MiraiCP::Contact::upload</text>
<text text-anchor="middle" x="278.62" y="-44.5" font-family="Helvetica,sans-Serif" font-size="10.00">FlashImg</text>
</a>
</g>
</g>
<!-- Node1&#45;&gt;Node31 -->
<g id="edge32_Node000001_Node000031" class="edge">
<title>Node1&#45;&gt;Node31</title>
<g id="a_edge32_Node000001_Node000031"><a xlink:title=" ">
<path fill="none" stroke="#63b8ff" d="M469.17,-447.37C459.94,-373.49 426.23,-132.7 373.25,-79 364.74,-70.38 353.62,-64.63 342.01,-60.82"/>
<polygon fill="#63b8ff" stroke="#63b8ff" points="465.7,-447.8 470.38,-457.3 472.64,-446.95 465.7,-447.8"/>
</a>
</g>
</g>
<!-- Node32 -->
<g id="Node000032" class="node">
<title>Node32</title>
<g id="a_Node000032"><a xlink:href="a00460.html#adcdb311ac635604b435ccd8761bd5009" target="_top" xlink:title="上传本地图片，务必要用绝对路径 由于mirai要区分图片发送对象，所以使用本函数上传的图片只能发到群">
<polygon fill="white" stroke="#666666" points="350,-20 207.25,-20 207.25,0 350,0 350,-20"/>
<text text-anchor="middle" x="278.62" y="-6.5" font-family="Helvetica,sans-Serif" font-size="10.00">MiraiCP::Contact::uploadImg</text>
</a>
</g>
</g>
<!-- Node1&#45;&gt;Node32 -->
<g id="edge33_Node000001_Node000032" class="edge">
<title>Node1&#45;&gt;Node32</title>
<g id="a_edge33_Node000001_Node000032"><a xlink:title=" ">
<path fill="none" stroke="#63b8ff" d="M469.99,-447.62C462.98,-367.82 434.41,-88.94 373.25,-29 366.74,-22.61 358.7,-18.1 350.09,-14.94"/>
<polygon fill="#63b8ff" stroke="#63b8ff" points="466.46,-447.48 470.8,-457.14 473.44,-446.88 466.46,-447.48"/>
</a>
</g>
</g>
<!-- Node7 -->
<g id="Node000007" class="node">
<title>Node7</title>
<g id="a_Node000007"><a xlink:href="a00448.html#a6803e521b4209f73e70d3a20b1e20195" target="_top" xlink:title="好友列表string形式返回, 利于保存">
<polygon fill="white" stroke="#666666" points="134.5,-756 13.5,-756 13.5,-724 134.5,-724 134.5,-756"/>
<text text-anchor="start" x="21.5" y="-742.5" font-family="Helvetica,sans-Serif" font-size="10.00">MiraiCP::Bot::FriendList</text>
<text text-anchor="middle" x="74" y="-730.5" font-family="Helvetica,sans-Serif" font-size="10.00">ToString</text>
</a>
</g>
</g>
<!-- Node6&#45;&gt;Node7 -->
<g id="edge6_Node000006_Node000007" class="edge">
<title>Node6&#45;&gt;Node7</title>
<g id="a_edge6_Node000006_Node000007"><a xlink:title=" ">
<path fill="none" stroke="#63b8ff" d="M199.58,-732.62C178.09,-733.89 155.12,-735.26 134.83,-736.46"/>
<polygon fill="#63b8ff" stroke="#63b8ff" points="199.71,-736.12 209.49,-732.04 199.3,-729.13 199.71,-736.12"/>
</a>
</g>
</g>
<!-- Node9 -->
<g id="Node000009" class="node">
<title>Node9</title>
<g id="a_Node000009"><a xlink:href="a00448.html#ac036f287d56751ca5e33bd4d0292e306" target="_top" xlink:title="群列表string形式返回, 利于保存">
<polygon fill="white" stroke="#666666" points="139.38,-706 8.62,-706 8.62,-674 139.38,-674 139.38,-706"/>
<text text-anchor="start" x="16.62" y="-692.5" font-family="Helvetica,sans-Serif" font-size="10.00">MiraiCP::Bot::GroupListTo</text>
<text text-anchor="middle" x="74" y="-680.5" font-family="Helvetica,sans-Serif" font-size="10.00">String</text>
</a>
</g>
</g>
<!-- Node8&#45;&gt;Node9 -->
<g id="edge8_Node000008_Node000009" class="edge">
<title>Node8&#45;&gt;Node9</title>
<g id="a_edge8_Node000008_Node000009"><a xlink:title=" ">
<path fill="none" stroke="#63b8ff" d="M199.78,-690C179.95,-690 158.86,-690 139.77,-690"/>
<polygon fill="#63b8ff" stroke="#63b8ff" points="199.76,-693.5 209.76,-690 199.76,-686.5 199.76,-693.5"/>
</a>
</g>
</g>
<!-- Node11 -->
<g id="Node000011" class="node">
<title>Node11</title>
<g id="a_Node000011"><a xlink:href="a00448.html#a729a0670edf58101023d1e8de649939f" target="_top" xlink:title="在线 Bot 列表string形式返回, 利于保存">
<polygon fill="white" stroke="#666666" points="137.12,-656 10.88,-656 10.88,-624 137.12,-624 137.12,-656"/>
<text text-anchor="start" x="18.88" y="-642.5" font-family="Helvetica,sans-Serif" font-size="10.00">MiraiCP::Bot::OnlineBots</text>
<text text-anchor="middle" x="74" y="-630.5" font-family="Helvetica,sans-Serif" font-size="10.00">ListToString</text>
</a>
</g>
</g>
<!-- Node10&#45;&gt;Node11 -->
<g id="edge10_Node000010_Node000011" class="edge">
<title>Node10&#45;&gt;Node11</title>
<g id="a_edge10_Node000010_Node000011"><a xlink:title=" ">
<path fill="none" stroke="#63b8ff" d="M189.11,-646.76C171.72,-645.73 153.82,-644.67 137.51,-643.7"/>
<polygon fill="#63b8ff" stroke="#63b8ff" points="188.74,-650.24 198.93,-647.34 189.16,-643.25 188.74,-650.24"/>
</a>
</g>
</g>
<!-- Node18 -->
<g id="Node000018" class="node">
<title>Node18</title>
<g id="a_Node000018"><a xlink:href="a00460.html#af046f3338d2215cdd8722cf4f78b8f2d" target="_top" xlink:title=" ">
<polygon fill="white" stroke="#666666" points="138.62,-388 9.38,-388 9.38,-356 138.62,-356 138.62,-388"/>
<text text-anchor="start" x="17.38" y="-374.5" font-family="Helvetica,sans-Serif" font-size="10.00">MiraiCP::Contact::unpack</text>
<text text-anchor="middle" x="74" y="-362.5" font-family="Helvetica,sans-Serif" font-size="10.00">Quote</text>
</a>
</g>
</g>
<!-- Node17&#45;&gt;Node18 -->
<g id="edge17_Node000017_Node000018" class="edge">
<title>Node17&#45;&gt;Node18</title>
<g id="a_edge17_Node000017_Node000018"><a xlink:title=" ">
<path fill="none" stroke="#63b8ff" d="M197.45,-385.29C178.01,-383.18 157.49,-380.96 138.91,-378.94"/>
<polygon fill="#63b8ff" stroke="#63b8ff" points="196.92,-388.76 207.24,-386.36 197.67,-381.8 196.92,-388.76"/>
</a>
</g>
</g>
<!-- Node19 -->
<g id="Node000019" class="node">
<title>Node19</title>
<g id="a_Node000019"><a xlink:href="a00460.html#a953a301e675c7fc368d1d9694b12763a" target="_top" xlink:title=" ">
<polygon fill="white" stroke="#666666" points="138.62,-327 9.38,-327 9.38,-295 138.62,-295 138.62,-327"/>
<text text-anchor="start" x="17.38" y="-313.5" font-family="Helvetica,sans-Serif" font-size="10.00">MiraiCP::Contact::unpack</text>
<text text-anchor="middle" x="74" y="-301.5" font-family="Helvetica,sans-Serif" font-size="10.00">Quote</text>
</a>
</g>
</g>
<!-- Node17&#45;&gt;Node19 -->
<g id="edge18_Node000017_Node000019" class="edge">
<title>Node17&#45;&gt;Node19</title>
<g id="a_edge18_Node000017_Node000019"><a xlink:title=" ">
<path fill="none" stroke="#63b8ff" d="M198.15,-374.51C193.31,-372.79 188.56,-370.95 184,-369 166.76,-361.62 164.43,-356.04 148,-347 135.75,-340.25 122.05,-333.34 109.86,-327.4"/>
<polygon fill="#63b8ff" stroke="#63b8ff" points="196.81,-377.75 207.4,-377.6 199.03,-371.11 196.81,-377.75"/>
</a>
</g>
</g>
<!-- Node20 -->
<g id="Node000020" class="node">
<title>Node20</title>
<g id="a_Node000020"><a xlink:href="a00460.html#ac74696b7487cbf97c225f3b7ea7e509f" target="_top" xlink:title=" ">
<polygon fill="white" stroke="#666666" points="138.62,-438 9.38,-438 9.38,-406 138.62,-406 138.62,-438"/>
<text text-anchor="start" x="17.38" y="-424.5" font-family="Helvetica,sans-Serif" font-size="10.00">MiraiCP::Contact::unpack</text>
<text text-anchor="middle" x="74" y="-412.5" font-family="Helvetica,sans-Serif" font-size="10.00">Quote</text>
</a>
</g>
</g>
<!-- Node17&#45;&gt;Node20 -->
<g id="edge19_Node000017_Node000020" class="edge">
<title>Node17&#45;&gt;Node20</title>
<g id="a_edge19_Node000017_Node000020"><a xlink:title=" ">
<path fill="none" stroke="#63b8ff" d="M197.45,-405.08C178.01,-407.77 157.49,-410.6 138.91,-413.17"/>
<polygon fill="#63b8ff" stroke="#63b8ff" points="197.82,-408.56 207.24,-403.73 196.86,-401.63 197.82,-408.56"/>
</a>
</g>
</g>
<!-- Node23 -->
<g id="Node000023" class="node">
<title>Node23</title>
<g id="a_Node000023"><a xlink:href="a00460.html#a78985ac5a99e904025c0b884437a512e" target="_top" xlink:title=" ">
<polygon fill="white" stroke="#666666" points="148,-89 0,-89 0,-69 148,-69 148,-89"/>
<text text-anchor="middle" x="74" y="-75.5" font-family="Helvetica,sans-Serif" font-size="10.00">MiraiCP::Contact::unpackMsg</text>
</a>
</g>
</g>
<!-- Node22&#45;&gt;Node23 -->
<g id="edge22_Node000022_Node000023" class="edge">
<title>Node22&#45;&gt;Node23</title>
<g id="a_edge22_Node000022_Node000023"><a xlink:title=" ">
<path fill="none" stroke="#63b8ff" d="M188.9,-89.68C175.38,-88.41 161.56,-87.12 148.43,-85.89"/>
<polygon fill="#63b8ff" stroke="#63b8ff" points="188.36,-93.15 198.65,-90.59 189.02,-86.18 188.36,-93.15"/>
</a>
</g>
</g>
<!-- Node24 -->
<g id="Node000024" class="node">
<title>Node24</title>
<g id="a_Node000024"><a xlink:href="a00460.html#a41f4d0ce7bdaaa02e29f59128053b47b" target="_top" xlink:title=" ">
<polygon fill="white" stroke="#666666" points="148,-127 0,-127 0,-107 148,-107 148,-127"/>
<text text-anchor="middle" x="74" y="-113.5" font-family="Helvetica,sans-Serif" font-size="10.00">MiraiCP::Contact::unpackMsg</text>
</a>
</g>
</g>
<!-- Node22&#45;&gt;Node24 -->
<g id="edge23_Node000022_Node000024" class="edge">
<title>Node22&#45;&gt;Node24</title>
<g id="a_edge23_Node000022_Node000024"><a xlink:title=" ">
<path fill="none" stroke="#63b8ff" d="M188.9,-106.32C175.38,-107.59 161.56,-108.88 148.43,-110.11"/>
<polygon fill="#63b8ff" stroke="#63b8ff" points="189.02,-109.82 198.65,-105.41 188.36,-102.85 189.02,-109.82"/>
</a>
</g>
</g>
<!-- Node25 -->
<g id="Node000025" class="node">
<title>Node25</title>
<g id="a_Node000025"><a xlink:href="a00460.html#aa9f8b75ac817f93205454f2d37293307" target="_top" xlink:title=" ">
<polygon fill="white" stroke="#666666" points="148,-205 0,-205 0,-185 148,-185 148,-205"/>
<text text-anchor="middle" x="74" y="-191.5" font-family="Helvetica,sans-Serif" font-size="10.00">MiraiCP::Contact::unpackMsg</text>
</a>
</g>
</g>
<!-- Node22&#45;&gt;Node25 -->
<g id="edge24_Node000022_Node000025" class="edge">
<title>Node22&#45;&gt;Node25</title>
<g id="a_edge24_Node000022_Node000025"><a xlink:title=" ">
<path fill="none" stroke="#63b8ff" d="M198.25,-111.62C193.36,-113.22 188.57,-115.01 184,-117 144.32,-134.28 104.76,-167.63 86.09,-184.57"/>
<polygon fill="#63b8ff" stroke="#63b8ff" points="199.04,-115.04 207.63,-108.84 197.05,-108.33 199.04,-115.04"/>
</a>
</g>
</g>
<!-- Node30&#45;&gt;Node19 -->
<g id="edge31_Node000030_Node000019" class="edge">
<title>Node30&#45;&gt;Node19</title>
<g id="a_edge31_Node000030_Node000019"><a xlink:title=" ">
<path fill="none" stroke="#63b8ff" d="M200.91,-304.16C180.52,-305.27 158.71,-306.46 139.07,-307.52"/>
<polygon fill="#63b8ff" stroke="#63b8ff" points="201.09,-307.66 210.89,-303.62 200.71,-300.67 201.09,-307.66"/>
</a>
</g>
</g>
<!-- Node30&#45;&gt;Node25 -->
<g id="edge30_Node000030_Node000025" class="edge">
<title>Node30&#45;&gt;Node25</title>
<g id="a_edge30_Node000030_Node000025"><a xlink:title=" ">
<path fill="none" stroke="#63b8ff" d="M201.46,-287.72C195.44,-285.8 189.55,-283.57 184,-281 142.45,-261.74 102.53,-223.7 84.71,-205.36"/>
<polygon fill="#63b8ff" stroke="#63b8ff" points="200.37,-291.05 210.94,-290.46 202.3,-284.32 200.37,-291.05"/>
</a>
</g>
</g>
</g>
</svg>
