<?xml version="1.0" encoding="UTF-8" standalone="no"?>
<!DOCTYPE svg PUBLIC "-//W3C//DTD SVG 1.1//EN"
 "http://www.w3.org/Graphics/SVG/1.1/DTD/svg11.dtd">
<!-- Generated by graphviz version 2.50.0 (20211204.2007)
 -->
<!-- Title: MiraiCP::Bot::GroupListToString Pages: 1 -->
<svg width="1764pt" height="219pt"
 viewBox="0.00 0.00 1764.00 218.98" xmlns="http://www.w3.org/2000/svg" xmlns:xlink="http://www.w3.org/1999/xlink">
<g id="graph0" class="graph" transform="scale(1 1) rotate(0) translate(4 214.98)">
<title>MiraiCP::Bot::GroupListToString</title>
<polygon fill="white" stroke="transparent" points="-4,4 -4,-214.98 1760,-214.98 1760,4 -4,4"/>
<!-- Node1 -->
<g id="node1" class="node">
<title>Node1</title>
<g id="a_node1"><a xlink:title="群列表string形式返回，利于保存">
<polygon fill="#bfbfbf" stroke="black" points="0,-46.48 0,-76.48 131,-76.48 131,-46.48 0,-46.48"/>
<text text-anchor="start" x="8" y="-64.48" font-family="Helvetica,sans-Serif" font-size="10.00">MiraiCP::Bot::GroupListTo</text>
<text text-anchor="middle" x="65.5" y="-53.48" font-family="Helvetica,sans-Serif" font-size="10.00">String</text>
</a>
</g>
</g>
<!-- Node2 -->
<g id="node2" class="node">
<title>Node2</title>
<g id="a_node2"><a xlink:href="a00405.html#a93687b7b6b881aa74a011dc0b979cae1" target="_top" xlink:title="取群列表">
<polygon fill="white" stroke="black" points="167,-73.98 167,-92.98 301,-92.98 301,-73.98 167,-73.98"/>
<text text-anchor="middle" x="234" y="-80.98" font-family="Helvetica,sans-Serif" font-size="10.00">MiraiCP::Bot::getGroupList</text>
</a>
</g>
</g>
<!-- Node1&#45;&gt;Node2 -->
<g id="edge1" class="edge">
<title>Node1&#45;&gt;Node2</title>
<path fill="none" stroke="midnightblue" d="M131.35,-70.05C139.75,-71.16 148.41,-72.31 156.97,-73.44"/>
<polygon fill="midnightblue" stroke="midnightblue" points="156.58,-76.92 166.96,-74.76 157.5,-69.98 156.58,-76.92"/>
</g>
<!-- Node18 -->
<g id="node18" class="node">
<title>Node18</title>
<g id="a_node18"><a xlink:href="a00319.html#a913031600a073d2166b905a535e599f2" target="_top" xlink:title="任意类型的vector格式化输出">
<polygon fill="white" stroke="black" points="171.5,-24.48 171.5,-54.48 296.5,-54.48 296.5,-24.48 171.5,-24.48"/>
<text text-anchor="start" x="179.5" y="-42.48" font-family="Helvetica,sans-Serif" font-size="10.00">MiraiCP::Tools::VectorTo</text>
<text text-anchor="middle" x="234" y="-31.48" font-family="Helvetica,sans-Serif" font-size="10.00">String</text>
</a>
</g>
</g>
<!-- Node1&#45;&gt;Node18 -->
<g id="edge21" class="edge">
<title>Node1&#45;&gt;Node18</title>
<path fill="none" stroke="midnightblue" d="M131.35,-52.91C141.11,-51.62 151.22,-50.29 161.12,-48.98"/>
<polygon fill="midnightblue" stroke="midnightblue" points="161.87,-52.41 171.33,-47.63 160.95,-45.47 161.87,-52.41"/>
</g>
<!-- Node3 -->
<g id="node3" class="node">
<title>Node3</title>
<g id="a_node3"><a xlink:href="a00313.html#a309e8d7f316e8b5e947ea3bcddeb84a8" target="_top" xlink:title="调用 Mirai 操作">
<polygon fill="white" stroke="black" points="345,-117.48 345,-147.48 454,-147.48 454,-117.48 345,-117.48"/>
<text text-anchor="start" x="353" y="-135.48" font-family="Helvetica,sans-Serif" font-size="10.00">MiraiCP::KtOperation</text>
<text text-anchor="middle" x="399.5" y="-124.48" font-family="Helvetica,sans-Serif" font-size="10.00">::ktOperation</text>
</a>
</g>
</g>
<!-- Node2&#45;&gt;Node3 -->
<g id="edge2" class="edge">
<title>Node2&#45;&gt;Node3</title>
<path fill="none" stroke="midnightblue" d="M266.91,-93.05C287.25,-99.14 314.24,-107.23 338.49,-114.5"/>
<polygon fill="midnightblue" stroke="midnightblue" points="337.74,-117.93 348.33,-117.45 339.75,-111.22 337.74,-117.93"/>
</g>
<!-- Node15 -->
<g id="node15" class="node">
<title>Node15</title>
<g id="a_node15"><a xlink:href="a00319.html#ab67b5a25139033a0e048a23f84b88b4d" target="_top" xlink:title="从string格式化到vector">
<polygon fill="white" stroke="black" points="338.5,-68.48 338.5,-98.48 460.5,-98.48 460.5,-68.48 338.5,-68.48"/>
<text text-anchor="start" x="346.5" y="-86.48" font-family="Helvetica,sans-Serif" font-size="10.00">MiraiCP::Tools::StringTo</text>
<text text-anchor="middle" x="399.5" y="-75.48" font-family="Helvetica,sans-Serif" font-size="10.00">Vector</text>
</a>
</g>
</g>
<!-- Node2&#45;&gt;Node15 -->
<g id="edge18" class="edge">
<title>Node2&#45;&gt;Node15</title>
<path fill="none" stroke="midnightblue" d="M301.03,-83.48C309.98,-83.48 319.19,-83.48 328.21,-83.48"/>
<polygon fill="midnightblue" stroke="midnightblue" points="328.3,-86.98 338.3,-83.48 328.3,-79.98 328.3,-86.98"/>
</g>
<!-- Node17 -->
<g id="node17" class="node">
<title>Node17</title>
<g id="a_node17"><a xlink:href="a00429.html#a89fb588a12ff2d4de10722788945ea55" target="_top" xlink:title="序列化到json对象">
<polygon fill="white" stroke="black" points="337,-29.98 337,-48.98 462,-48.98 462,-29.98 337,-29.98"/>
<text text-anchor="middle" x="399.5" y="-36.98" font-family="Helvetica,sans-Serif" font-size="10.00">MiraiCP::Contact::toJson</text>
</a>
</g>
</g>
<!-- Node2&#45;&gt;Node17 -->
<g id="edge20" class="edge">
<title>Node2&#45;&gt;Node17</title>
<path fill="none" stroke="midnightblue" d="M270.48,-73.94C294.79,-67.39 327.26,-58.65 353.41,-51.62"/>
<polygon fill="midnightblue" stroke="midnightblue" points="354.35,-54.99 363.09,-49.01 352.53,-48.23 354.35,-54.99"/>
</g>
<!-- Node4 -->
<g id="node4" class="node">
<title>Node4</title>
<g id="a_node4"><a xlink:href="a00313.html#a1e1e498928eeaa1d7107033ff5fa881a" target="_top" xlink:title="调用 Mirai 操作">
<polygon fill="white" stroke="black" points="498,-117.48 498,-147.48 607,-147.48 607,-117.48 498,-117.48"/>
<text text-anchor="start" x="506" y="-135.48" font-family="Helvetica,sans-Serif" font-size="10.00">MiraiCP::KtOperation</text>
<text text-anchor="middle" x="552.5" y="-124.48" font-family="Helvetica,sans-Serif" font-size="10.00">::ktOperationStr</text>
</a>
</g>
</g>
<!-- Node3&#45;&gt;Node4 -->
<g id="edge3" class="edge">
<title>Node3&#45;&gt;Node4</title>
<path fill="none" stroke="midnightblue" d="M454.16,-132.48C465,-132.48 476.5,-132.48 487.64,-132.48"/>
<polygon fill="midnightblue" stroke="midnightblue" points="487.76,-135.98 497.76,-132.48 487.76,-128.98 487.76,-135.98"/>
</g>
<!-- Node5 -->
<g id="node5" class="node">
<title>Node5</title>
<g id="a_node5"><a xlink:href="a00306.html#a89b345ec37278655b8f02d07dbb3c882" target="_top" xlink:title="interfaces for plugins">
<polygon fill="white" stroke="black" points="643,-117.48 643,-147.48 751,-147.48 751,-117.48 643,-117.48"/>
<text text-anchor="start" x="651" y="-135.48" font-family="Helvetica,sans-Serif" font-size="10.00">LibLoader::LoaderApi</text>
<text text-anchor="middle" x="697" y="-124.48" font-family="Helvetica,sans-Serif" font-size="10.00">::pluginOperation</text>
</a>
</g>
</g>
<!-- Node4&#45;&gt;Node5 -->
<g id="edge4" class="edge">
<title>Node4&#45;&gt;Node5</title>
<path fill="none" stroke="midnightblue" d="M607.37,-132.48C615.67,-132.48 624.29,-132.48 632.77,-132.48"/>
<polygon fill="midnightblue" stroke="midnightblue" points="633,-135.98 643,-132.48 633,-128.98 633,-135.98"/>
</g>
<!-- Node6 -->
<g id="node6" class="node">
<title>Node6</title>
<g id="a_node6"><a xlink:href="a00341.html#ab263deade385e7b5de856d061c6027e9" target="_top" xlink:title=" ">
<polygon fill="white" stroke="black" points="787,-180.48 787,-210.48 904,-210.48 904,-180.48 787,-180.48"/>
<text text-anchor="start" x="795" y="-198.48" font-family="Helvetica,sans-Serif" font-size="10.00">MiraiCP::MiraiCPString</text>
<text text-anchor="middle" x="845.5" y="-187.48" font-family="Helvetica,sans-Serif" font-size="10.00">::copyToCharPtr</text>
</a>
</g>
</g>
<!-- Node5&#45;&gt;Node6 -->
<g id="edge5" class="edge">
<title>Node5&#45;&gt;Node6</title>
<path fill="none" stroke="midnightblue" d="M733.09,-147.57C753.22,-156.23 778.69,-167.18 800.19,-176.43"/>
<polygon fill="midnightblue" stroke="midnightblue" points="798.87,-179.67 809.44,-180.41 801.64,-173.24 798.87,-179.67"/>
</g>
<!-- Node7 -->
<g id="node7" class="node">
<title>Node7</title>
<g id="a_node7"><a xlink:href="a00349.html#aea7d58ff9f04d6d4849c25a2506603a5" target="_top" xlink:title="取env,如果不存在重新获取">
<polygon fill="white" stroke="black" points="1393,-103.98 1393,-122.98 1512,-122.98 1512,-103.98 1393,-103.98"/>
<text text-anchor="middle" x="1452.5" y="-110.98" font-family="Helvetica,sans-Serif" font-size="10.00">JNIEnvManager::getEnv</text>
</a>
</g>
</g>
<!-- Node5&#45;&gt;Node7 -->
<g id="edge6" class="edge">
<title>Node5&#45;&gt;Node7</title>
<path fill="none" stroke="midnightblue" d="M751.21,-137.85C811.58,-143.47 913.02,-151.48 1000.5,-151.48 1000.5,-151.48 1000.5,-151.48 1161.5,-151.48 1243.89,-151.48 1338.34,-136.22 1396.46,-125.04"/>
<polygon fill="midnightblue" stroke="midnightblue" points="1397.39,-128.42 1406.53,-123.07 1396.05,-121.55 1397.39,-128.42"/>
</g>
<!-- Node10 -->
<g id="node10" class="node">
<title>Node10</title>
<g id="a_node10"><a xlink:href="a00304.html#aa5f8d0ecd9dd392b491070aace643ae3" target="_top" xlink:title=" ">
<polygon fill="white" stroke="black" points="948,-103.98 948,-122.98 1055,-122.98 1055,-103.98 948,-103.98"/>
<text text-anchor="middle" x="1001.5" y="-110.98" font-family="Helvetica,sans-Serif" font-size="10.00">LibLoader::jstring2str</text>
</a>
</g>
</g>
<!-- Node5&#45;&gt;Node10 -->
<g id="edge9" class="edge">
<title>Node5&#45;&gt;Node10</title>
<path fill="none" stroke="midnightblue" d="M751.04,-129.15C803.12,-125.88 882.57,-120.89 937.77,-117.42"/>
<polygon fill="midnightblue" stroke="midnightblue" points="938.02,-120.91 947.78,-116.79 937.58,-113.93 938.02,-120.91"/>
</g>
<!-- Node12 -->
<g id="node12" class="node">
<title>Node12</title>
<g id="a_node12"><a xlink:href="a00304.html#a6a6fcd695791253a9b3a053d313b2b93" target="_top" xlink:title=" ">
<polygon fill="white" stroke="black" points="792,-43.98 792,-62.98 899,-62.98 899,-43.98 792,-43.98"/>
<text text-anchor="middle" x="845.5" y="-50.98" font-family="Helvetica,sans-Serif" font-size="10.00">LibLoader::str2jstring</text>
</a>
</g>
</g>
<!-- Node5&#45;&gt;Node12 -->
<g id="edge12" class="edge">
<title>Node5&#45;&gt;Node12</title>
<path fill="none" stroke="midnightblue" d="M725.9,-117.44C752.37,-103.16 791.87,-81.87 817.9,-67.83"/>
<polygon fill="midnightblue" stroke="midnightblue" points="819.69,-70.84 826.83,-63.01 816.37,-64.68 819.69,-70.84"/>
</g>
<!-- Node8 -->
<g id="node8" class="node">
<title>Node8</title>
<g id="a_node8"><a xlink:href="a00197.html#a3d31403b7971274d47d308245206bd24" target="_top" xlink:title="为当前线程创建一个env.">
<polygon fill="white" stroke="black" points="1548,-103.98 1548,-122.98 1598,-122.98 1598,-103.98 1548,-103.98"/>
<text text-anchor="middle" x="1573" y="-110.98" font-family="Helvetica,sans-Serif" font-size="10.00">newEnv</text>
</a>
</g>
</g>
<!-- Node7&#45;&gt;Node8 -->
<g id="edge7" class="edge">
<title>Node7&#45;&gt;Node8</title>
<path fill="none" stroke="midnightblue" d="M1512.06,-113.48C1520.89,-113.48 1529.75,-113.48 1537.85,-113.48"/>
<polygon fill="midnightblue" stroke="midnightblue" points="1537.98,-116.98 1547.98,-113.48 1537.98,-109.98 1537.98,-116.98"/>
</g>
<!-- Node9 -->
<g id="node9" class="node">
<title>Node9</title>
<g id="a_node9"><a xlink:href="a00349.html#ae0e482c6a813848a8f5d34957d1b6307" target="_top" xlink:title="获取全局JavaVM对象.">
<polygon fill="white" stroke="black" points="1634,-103.98 1634,-122.98 1756,-122.98 1756,-103.98 1634,-103.98"/>
<text text-anchor="middle" x="1695" y="-110.98" font-family="Helvetica,sans-Serif" font-size="10.00">JNIEnvManager::getGvm</text>
</a>
</g>
</g>
<!-- Node8&#45;&gt;Node9 -->
<g id="edge8" class="edge">
<title>Node8&#45;&gt;Node9</title>
<path fill="none" stroke="midnightblue" d="M1598.28,-113.48C1605.75,-113.48 1614.37,-113.48 1623.32,-113.48"/>
<polygon fill="midnightblue" stroke="midnightblue" points="1623.52,-116.98 1633.52,-113.48 1623.52,-109.98 1623.52,-116.98"/>
</g>
<!-- Node11 -->
<g id="node11" class="node">
<title>Node11</title>
<g id="a_node11"><a xlink:href="a00309.html#a076c5f4ff8083c7cfc6523498d0ba30f" target="_top" xlink:title=" ">
<polygon fill="white" stroke="black" points="1258,-76.48 1258,-106.48 1357,-106.48 1357,-76.48 1258,-76.48"/>
<text text-anchor="start" x="1266" y="-94.48" font-family="Helvetica,sans-Serif" font-size="10.00">LibLoader::JNIEnvs</text>
<text text-anchor="middle" x="1307.5" y="-83.48" font-family="Helvetica,sans-Serif" font-size="10.00">::getEnv</text>
</a>
</g>
</g>
<!-- Node10&#45;&gt;Node11 -->
<g id="edge10" class="edge">
<title>Node10&#45;&gt;Node11</title>
<path fill="none" stroke="midnightblue" d="M1055.11,-109.68C1108.7,-105.8 1191.65,-99.79 1247.46,-95.76"/>
<polygon fill="midnightblue" stroke="midnightblue" points="1247.83,-99.24 1257.55,-95.03 1247.32,-92.26 1247.83,-99.24"/>
</g>
<!-- Node11&#45;&gt;Node7 -->
<g id="edge11" class="edge">
<title>Node11&#45;&gt;Node7</title>
<path fill="none" stroke="midnightblue" d="M1357.31,-98.99C1365.51,-100.25 1374.16,-101.58 1382.75,-102.91"/>
<polygon fill="midnightblue" stroke="midnightblue" points="1382.36,-106.39 1392.78,-104.45 1383.43,-99.47 1382.36,-106.39"/>
</g>
<!-- Node12&#45;&gt;Node11 -->
<g id="edge13" class="edge">
<title>Node12&#45;&gt;Node11</title>
<path fill="none" stroke="midnightblue" d="M899.27,-57.84C985.84,-64.99 1157.43,-79.17 1247.75,-86.63"/>
<polygon fill="midnightblue" stroke="midnightblue" points="1247.57,-90.13 1257.82,-87.46 1248.14,-83.15 1247.57,-90.13"/>
</g>
<!-- Node13 -->
<g id="node13" class="node">
<title>Node13</title>
<g id="a_node13"><a xlink:href="a00381.html#af50d0545fe7d683e54fcd03453a423e3" target="_top" xlink:title=" ">
<polygon fill="white" stroke="black" points="940,-16.48 940,-46.48 1063,-46.48 1063,-16.48 940,-16.48"/>
<text text-anchor="start" x="948" y="-34.48" font-family="Helvetica,sans-Serif" font-size="10.00">LibLoader::LoaderLogger</text>
<text text-anchor="middle" x="1001.5" y="-23.48" font-family="Helvetica,sans-Serif" font-size="10.00">::warning</text>
</a>
</g>
</g>
<!-- Node12&#45;&gt;Node13 -->
<g id="edge14" class="edge">
<title>Node12&#45;&gt;Node13</title>
<path fill="none" stroke="midnightblue" d="M899.07,-45.97C909.04,-44.55 919.62,-43.04 930.04,-41.55"/>
<polygon fill="midnightblue" stroke="midnightblue" points="930.55,-45.01 939.95,-40.13 929.56,-38.08 930.55,-45.01"/>
</g>
<!-- Node14 -->
<g id="node14" class="node">
<title>Node14</title>
<g id="a_node14"><a xlink:href="a00381.html#af4d7d5164450e25f7401d1cc15f15b8d" target="_top" xlink:title="实际暴露的接口">
<polygon fill="white" stroke="black" points="1099,-16.48 1099,-46.48 1222,-46.48 1222,-16.48 1099,-16.48"/>
<text text-anchor="start" x="1107" y="-34.48" font-family="Helvetica,sans-Serif" font-size="10.00">LibLoader::LoaderLogger</text>
<text text-anchor="middle" x="1160.5" y="-23.48" font-family="Helvetica,sans-Serif" font-size="10.00">::call_logger</text>
</a>
</g>
</g>
<!-- Node13&#45;&gt;Node14 -->
<g id="edge15" class="edge">
<title>Node13&#45;&gt;Node14</title>
<path fill="none" stroke="midnightblue" d="M1063.2,-31.48C1071.64,-31.48 1080.36,-31.48 1088.95,-31.48"/>
<polygon fill="midnightblue" stroke="midnightblue" points="1088.96,-34.98 1098.96,-31.48 1088.96,-27.98 1088.96,-34.98"/>
</g>
<!-- Node14&#45;&gt;Node11 -->
<g id="edge16" class="edge">
<title>Node14&#45;&gt;Node11</title>
<path fill="none" stroke="midnightblue" d="M1198.09,-46.62C1217.14,-54.51 1240.61,-64.22 1260.84,-72.59"/>
<polygon fill="midnightblue" stroke="midnightblue" points="1259.6,-75.86 1270.17,-76.45 1262.27,-69.39 1259.6,-75.86"/>
</g>
<!-- Node14&#45;&gt;Node12 -->
<g id="edge17" class="edge">
<title>Node14&#45;&gt;Node12</title>
<path fill="none" stroke="midnightblue" d="M1110.97,-16.47C1066.11,-4.82 997.84,7.24 940,-6.48 913.99,-12.65 886.99,-27.26 868.73,-38.56"/>
<polygon fill="midnightblue" stroke="midnightblue" points="866.83,-35.63 860.27,-43.95 870.59,-41.53 866.83,-35.63"/>
</g>
<!-- Node16 -->
<g id="node16" class="node">
<title>Node16</title>
<g id="a_node16"><a xlink:href="a00319.html#aa9d4bfd5269173c2f6aed44f79bf976e" target="_top" xlink:title="from https://www.zhihu.com/question/36642771, delim is regex(ignore last +)">
<polygon fill="white" stroke="black" points="500.5,-73.98 500.5,-92.98 604.5,-92.98 604.5,-73.98 500.5,-73.98"/>
<text text-anchor="middle" x="552.5" y="-80.98" font-family="Helvetica,sans-Serif" font-size="10.00">MiraiCP::Tools::split</text>
</a>
</g>
</g>
<!-- Node15&#45;&gt;Node16 -->
<g id="edge19" class="edge">
<title>Node15&#45;&gt;Node16</title>
<path fill="none" stroke="midnightblue" d="M460.61,-83.48C470.38,-83.48 480.5,-83.48 490.3,-83.48"/>
<polygon fill="midnightblue" stroke="midnightblue" points="490.35,-86.98 500.35,-83.48 490.35,-79.98 490.35,-86.98"/>
</g>
</g>
</svg>
