<?xml version="1.0" encoding="UTF-8" standalone="no"?>
<!DOCTYPE svg PUBLIC "-//W3C//DTD SVG 1.1//EN"
 "http://www.w3.org/Graphics/SVG/1.1/DTD/svg11.dtd">
<!-- Generated by graphviz version 9.0.0 (0)
 -->
<!-- Title: MiraiCP::CommandManager::registerCommand Pages: 1 -->
<svg width="1772pt" height="220pt"
 viewBox="0.00 0.00 1772.00 220.17" xmlns="http://www.w3.org/2000/svg" xmlns:xlink="http://www.w3.org/1999/xlink">
<g id="graph0" class="graph" transform="scale(1 1) rotate(0) translate(4 216.17)">
<title>MiraiCP::CommandManager::registerCommand</title>
<!-- Node1 -->
<g id="Node000001" class="node">
<title>Node1</title>
<g id="a_Node000001"><a xlink:title="注册一条指令">
<polygon fill="#999999" stroke="#666666" points="139.75,-174.17 0,-174.17 0,-142.17 139.75,-142.17 139.75,-174.17"/>
<text text-anchor="start" x="8" y="-160.67" font-family="Helvetica,sans-Serif" font-size="10.00">MiraiCP::CommandManager</text>
<text text-anchor="middle" x="69.88" y="-148.67" font-family="Helvetica,sans-Serif" font-size="10.00">::registerCommand</text>
</a>
</g>
</g>
<!-- Node2 -->
<g id="Node000002" class="node">
<title>Node2</title>
<g id="a_Node000002"><a xlink:href="a00413.html#a9c4f605303f4ffc836c1978d9b1e89c5" target="_top" xlink:title=" ">
<polygon fill="white" stroke="#666666" points="271.25,-174.17 175.75,-174.17 175.75,-142.17 271.25,-142.17 271.25,-174.17"/>
<text text-anchor="start" x="183.75" y="-160.67" font-family="Helvetica,sans-Serif" font-size="10.00">MiraiCP::internal::</text>
<text text-anchor="middle" x="223.5" y="-148.67" font-family="Helvetica,sans-Serif" font-size="10.00">commandRegister</text>
</a>
</g>
</g>
<!-- Node1&#45;&gt;Node2 -->
<g id="edge1_Node000001_Node000002" class="edge">
<title>Node1&#45;&gt;Node2</title>
<g id="a_edge1_Node000001_Node000002"><a xlink:title=" ">
<path fill="none" stroke="#63b8ff" d="M140.03,-158.17C148.11,-158.17 156.3,-158.17 164.21,-158.17"/>
<polygon fill="#63b8ff" stroke="#63b8ff" points="164.05,-161.67 174.05,-158.17 164.05,-154.67 164.05,-161.67"/>
</a>
</g>
</g>
<!-- Node3 -->
<g id="Node000003" class="node">
<title>Node3</title>
<g id="a_Node000003"><a xlink:href="a00628.html#af14d39efa300da183070784bc86d3f23" target="_top" xlink:title="发送错误(error级日志)">
<polygon fill="white" stroke="#666666" points="436.5,-199.17 307.25,-199.17 307.25,-167.17 436.5,-167.17 436.5,-199.17"/>
<text text-anchor="start" x="315.25" y="-185.67" font-family="Helvetica,sans-Serif" font-size="10.00">MiraiCP::Logger_interface</text>
<text text-anchor="middle" x="371.88" y="-173.67" font-family="Helvetica,sans-Serif" font-size="10.00">::error</text>
</a>
</g>
</g>
<!-- Node2&#45;&gt;Node3 -->
<g id="edge2_Node000002_Node000003" class="edge">
<title>Node2&#45;&gt;Node3</title>
<g id="a_edge2_Node000002_Node000003"><a xlink:title=" ">
<path fill="none" stroke="#63b8ff" d="M271.62,-166.22C279.32,-167.53 287.46,-168.92 295.64,-170.32"/>
<polygon fill="#63b8ff" stroke="#63b8ff" points="294.83,-173.73 305.28,-171.96 296.01,-166.83 294.83,-173.73"/>
</a>
</g>
</g>
<!-- Node4 -->
<g id="Node000004" class="node">
<title>Node4</title>
<g id="a_Node000004"><a xlink:href="a00435.html#a309e8d7f316e8b5e947ea3bcddeb84a8" target="_top" xlink:title="调用 Mirai 操作">
<polygon fill="white" stroke="#666666" points="426.38,-149.17 317.38,-149.17 317.38,-117.17 426.38,-117.17 426.38,-149.17"/>
<text text-anchor="start" x="325.38" y="-135.67" font-family="Helvetica,sans-Serif" font-size="10.00">MiraiCP::KtOperation</text>
<text text-anchor="middle" x="371.88" y="-123.67" font-family="Helvetica,sans-Serif" font-size="10.00">::ktOperation</text>
</a>
</g>
</g>
<!-- Node2&#45;&gt;Node4 -->
<g id="edge3_Node000002_Node000004" class="edge">
<title>Node2&#45;&gt;Node4</title>
<g id="a_edge3_Node000002_Node000004"><a xlink:title=" ">
<path fill="none" stroke="#63b8ff" d="M271.62,-150.12C282.46,-148.27 294.19,-146.27 305.64,-144.31"/>
<polygon fill="#63b8ff" stroke="#63b8ff" points="306.21,-147.76 315.48,-142.63 305.03,-140.86 306.21,-147.76"/>
</a>
</g>
</g>
<!-- Node5 -->
<g id="Node000005" class="node">
<title>Node5</title>
<g id="a_Node000005"><a xlink:href="a00435.html#a1e1e498928eeaa1d7107033ff5fa881a" target="_top" xlink:title="调用 Mirai 操作">
<polygon fill="white" stroke="#666666" points="581.5,-149.17 472.5,-149.17 472.5,-117.17 581.5,-117.17 581.5,-149.17"/>
<text text-anchor="start" x="480.5" y="-135.67" font-family="Helvetica,sans-Serif" font-size="10.00">MiraiCP::KtOperation</text>
<text text-anchor="middle" x="527" y="-123.67" font-family="Helvetica,sans-Serif" font-size="10.00">::ktOperationStr</text>
</a>
</g>
</g>
<!-- Node4&#45;&gt;Node5 -->
<g id="edge4_Node000004_Node000005" class="edge">
<title>Node4&#45;&gt;Node5</title>
<g id="a_edge4_Node000004_Node000005"><a xlink:title=" ">
<path fill="none" stroke="#63b8ff" d="M426.86,-133.17C437.9,-133.17 449.64,-133.17 461.02,-133.17"/>
<polygon fill="#63b8ff" stroke="#63b8ff" points="460.73,-136.67 470.73,-133.17 460.73,-129.67 460.73,-136.67"/>
</a>
</g>
</g>
<!-- Node6 -->
<g id="Node000006" class="node">
<title>Node6</title>
<g id="a_Node000006"><a xlink:href="a00426.html#a4c6ac4cf4ba5ff0adb7656708bbb67d0" target="_top" xlink:title="interfaces for plugins">
<polygon fill="white" stroke="#666666" points="725,-149.17 617.5,-149.17 617.5,-117.17 725,-117.17 725,-149.17"/>
<text text-anchor="start" x="625.5" y="-135.67" font-family="Helvetica,sans-Serif" font-size="10.00">LibLoader::LoaderApi</text>
<text text-anchor="middle" x="671.25" y="-123.67" font-family="Helvetica,sans-Serif" font-size="10.00">::pluginOperation</text>
</a>
</g>
</g>
<!-- Node5&#45;&gt;Node6 -->
<g id="edge5_Node000005_Node000006" class="edge">
<title>Node5&#45;&gt;Node6</title>
<g id="a_edge5_Node000005_Node000006"><a xlink:title=" ">
<path fill="none" stroke="#63b8ff" d="M581.78,-133.17C589.69,-133.17 597.91,-133.17 606.01,-133.17"/>
<polygon fill="#63b8ff" stroke="#63b8ff" points="605.82,-136.67 615.82,-133.17 605.82,-129.67 605.82,-136.67"/>
</a>
</g>
</g>
<!-- Node7 -->
<g id="Node000007" class="node">
<title>Node7</title>
<g id="a_Node000007"><a xlink:href="a00780.html#acc90fdac094544c4ddd9d6fd13baa5da" target="_top" xlink:title=" ">
<polygon fill="white" stroke="#666666" points="899.25,-212.17 761,-212.17 761,-180.17 899.25,-180.17 899.25,-212.17"/>
<text text-anchor="start" x="769" y="-198.67" font-family="Helvetica,sans-Serif" font-size="10.00">MiraiCP::MiraiCPStringview</text>
<text text-anchor="middle" x="830.12" y="-186.67" font-family="Helvetica,sans-Serif" font-size="10.00">::c_str</text>
</a>
</g>
</g>
<!-- Node6&#45;&gt;Node7 -->
<g id="edge6_Node000006_Node000007" class="edge">
<title>Node6&#45;&gt;Node7</title>
<g id="a_edge6_Node000006_Node000007"><a xlink:title=" ">
<path fill="none" stroke="#63b8ff" d="M713.06,-149.56C732.77,-157.47 756.64,-167.06 777.59,-175.47"/>
<polygon fill="#63b8ff" stroke="#63b8ff" points="776.26,-178.71 786.85,-179.19 778.87,-172.21 776.26,-178.71"/>
</a>
</g>
</g>
<!-- Node8 -->
<g id="Node000008" class="node">
<title>Node8</title>
<g id="a_Node000008"><a xlink:href="a00840.html#aea7d58ff9f04d6d4849c25a2506603a5" target="_top" xlink:title="取env,如果不存在重新获取">
<polygon fill="white" stroke="#666666" points="1513.75,-124.17 1390.5,-124.17 1390.5,-104.17 1513.75,-104.17 1513.75,-124.17"/>
<text text-anchor="middle" x="1452.12" y="-110.67" font-family="Helvetica,sans-Serif" font-size="10.00">JNIEnvManager::getEnv</text>
</a>
</g>
</g>
<!-- Node6&#45;&gt;Node8 -->
<g id="edge7_Node000006_Node000008" class="edge">
<title>Node6&#45;&gt;Node8</title>
<g id="a_edge7_Node000006_Node000008"><a xlink:title=" ">
<path fill="none" stroke="#63b8ff" d="M725.39,-138.21C789.4,-143.84 900.21,-152.17 995.5,-152.17 995.5,-152.17 995.5,-152.17 1156,-152.17 1237.29,-152.17 1330.15,-137.81 1389.65,-126.75"/>
<polygon fill="#63b8ff" stroke="#63b8ff" points="1390.06,-130.23 1399.24,-124.93 1388.76,-123.35 1390.06,-130.23"/>
</a>
</g>
</g>
<!-- Node11 -->
<g id="Node000011" class="node">
<title>Node11</title>
<g id="a_Node000011"><a xlink:href="a00425.html#aa5f8d0ecd9dd392b491070aace643ae3" target="_top" xlink:title=" ">
<polygon fill="white" stroke="#666666" points="1049.88,-124.17 943.12,-124.17 943.12,-104.17 1049.88,-104.17 1049.88,-124.17"/>
<text text-anchor="middle" x="996.5" y="-110.67" font-family="Helvetica,sans-Serif" font-size="10.00">LibLoader::jstring2str</text>
</a>
</g>
</g>
<!-- Node6&#45;&gt;Node11 -->
<g id="edge10_Node000006_Node000011" class="edge">
<title>Node6&#45;&gt;Node11</title>
<g id="a_edge10_Node000006_Node000011"><a xlink:title=" ">
<path fill="none" stroke="#63b8ff" d="M725.27,-130.05C781.72,-126.73 871.08,-121.48 931.43,-117.93"/>
<polygon fill="#63b8ff" stroke="#63b8ff" points="931.44,-121.44 941.21,-117.36 931.02,-114.45 931.44,-121.44"/>
</a>
</g>
</g>
<!-- Node13 -->
<g id="Node000013" class="node">
<title>Node13</title>
<g id="a_Node000013"><a xlink:href="a00425.html#a6a6fcd695791253a9b3a053d313b2b93" target="_top" xlink:title=" ">
<polygon fill="white" stroke="#666666" points="883.5,-64.17 776.75,-64.17 776.75,-44.17 883.5,-44.17 883.5,-64.17"/>
<text text-anchor="middle" x="830.12" y="-50.67" font-family="Helvetica,sans-Serif" font-size="10.00">LibLoader::str2jstring</text>
</a>
</g>
</g>
<!-- Node6&#45;&gt;Node13 -->
<g id="edge13_Node000006_Node000013" class="edge">
<title>Node6&#45;&gt;Node13</title>
<g id="a_edge13_Node000006_Node000013"><a xlink:title=" ">
<path fill="none" stroke="#63b8ff" d="M704.75,-116.8C732.33,-102.91 771.59,-83.14 798.59,-69.55"/>
<polygon fill="#63b8ff" stroke="#63b8ff" points="799.92,-72.79 807.28,-65.17 796.77,-66.54 799.92,-72.79"/>
</a>
</g>
</g>
<!-- Node9 -->
<g id="Node000009" class="node">
<title>Node9</title>
<g id="a_Node000009"><a xlink:href="a00260.html#a3d31403b7971274d47d308245206bd24" target="_top" xlink:title="为当前线程创建一个env.">
<polygon fill="white" stroke="#666666" points="1601,-124.17 1549.75,-124.17 1549.75,-104.17 1601,-104.17 1601,-124.17"/>
<text text-anchor="middle" x="1575.38" y="-110.67" font-family="Helvetica,sans-Serif" font-size="10.00">newEnv</text>
</a>
</g>
</g>
<!-- Node8&#45;&gt;Node9 -->
<g id="edge8_Node000008_Node000009" class="edge">
<title>Node8&#45;&gt;Node9</title>
<g id="a_edge8_Node000008_Node000009"><a xlink:title=" ">
<path fill="none" stroke="#63b8ff" d="M1514.11,-114.17C1522.31,-114.17 1530.51,-114.17 1538.09,-114.17"/>
<polygon fill="#63b8ff" stroke="#63b8ff" points="1537.91,-117.67 1547.91,-114.17 1537.91,-110.67 1537.91,-117.67"/>
</a>
</g>
</g>
<!-- Node10 -->
<g id="Node000010" class="node">
<title>Node10</title>
<g id="a_Node000010"><a xlink:href="a00840.html#ae0e482c6a813848a8f5d34957d1b6307" target="_top" xlink:title="获取全局JavaVM对象.">
<polygon fill="white" stroke="#666666" points="1764,-124.17 1637,-124.17 1637,-104.17 1764,-104.17 1764,-124.17"/>
<text text-anchor="middle" x="1700.5" y="-110.67" font-family="Helvetica,sans-Serif" font-size="10.00">JNIEnvManager::getGvm</text>
</a>
</g>
</g>
<!-- Node9&#45;&gt;Node10 -->
<g id="edge9_Node000009_Node000010" class="edge">
<title>Node9&#45;&gt;Node10</title>
<g id="a_edge9_Node000009_Node000010"><a xlink:title=" ">
<path fill="none" stroke="#63b8ff" d="M1601.29,-114.17C1608.47,-114.17 1616.7,-114.17 1625.27,-114.17"/>
<polygon fill="#63b8ff" stroke="#63b8ff" points="1625.16,-117.67 1635.16,-114.17 1625.16,-110.67 1625.16,-117.67"/>
</a>
</g>
</g>
<!-- Node12 -->
<g id="Node000012" class="node">
<title>Node12</title>
<g id="a_Node000012"><a xlink:href="a00430.html#a076c5f4ff8083c7cfc6523498d0ba30f" target="_top" xlink:title=" ">
<polygon fill="white" stroke="#666666" points="1354.5,-108.17 1252.25,-108.17 1252.25,-76.17 1354.5,-76.17 1354.5,-108.17"/>
<text text-anchor="start" x="1260.25" y="-94.67" font-family="Helvetica,sans-Serif" font-size="10.00">LibLoader::JNIEnvs</text>
<text text-anchor="middle" x="1303.38" y="-82.67" font-family="Helvetica,sans-Serif" font-size="10.00">::getEnv</text>
</a>
</g>
</g>
<!-- Node11&#45;&gt;Node12 -->
<g id="edge11_Node000011_Node000012" class="edge">
<title>Node11&#45;&gt;Node12</title>
<g id="a_edge11_Node000011_Node000012"><a xlink:title=" ">
<path fill="none" stroke="#63b8ff" d="M1050.26,-110.36C1103.19,-106.54 1184.69,-100.66 1240.61,-96.63"/>
<polygon fill="#63b8ff" stroke="#63b8ff" points="1240.55,-100.14 1250.27,-95.93 1240.05,-93.16 1240.55,-100.14"/>
</a>
</g>
</g>
<!-- Node12&#45;&gt;Node8 -->
<g id="edge12_Node000012_Node000008" class="edge">
<title>Node12&#45;&gt;Node8</title>
<g id="a_edge12_Node000012_Node000008"><a xlink:title=" ">
<path fill="none" stroke="#63b8ff" d="M1354.88,-99.74C1362.6,-100.9 1370.69,-102.11 1378.77,-103.32"/>
<polygon fill="#63b8ff" stroke="#63b8ff" points="1378.24,-106.78 1388.65,-104.8 1379.28,-99.86 1378.24,-106.78"/>
</a>
</g>
</g>
<!-- Node13&#45;&gt;Node12 -->
<g id="edge14_Node000013_Node000012" class="edge">
<title>Node13&#45;&gt;Node12</title>
<g id="a_edge14_Node000013_Node000012"><a xlink:title=" ">
<path fill="none" stroke="#63b8ff" d="M883.81,-58.42C971.54,-65.49 1147.12,-79.65 1240.56,-87.18"/>
<polygon fill="#63b8ff" stroke="#63b8ff" points="1240.05,-90.65 1250.3,-87.97 1240.62,-83.68 1240.05,-90.65"/>
</a>
</g>
</g>
<!-- Node14 -->
<g id="Node000014" class="node">
<title>Node14</title>
<g id="a_Node000014"><a xlink:href="a00872.html#af50d0545fe7d683e54fcd03453a423e3" target="_top" xlink:title=" ">
<polygon fill="white" stroke="#666666" points="1057.75,-48.17 935.25,-48.17 935.25,-16.17 1057.75,-16.17 1057.75,-48.17"/>
<text text-anchor="start" x="943.25" y="-34.67" font-family="Helvetica,sans-Serif" font-size="10.00">LibLoader::LoaderLogger</text>
<text text-anchor="middle" x="996.5" y="-22.67" font-family="Helvetica,sans-Serif" font-size="10.00">::warning</text>
</a>
</g>
</g>
<!-- Node13&#45;&gt;Node14 -->
<g id="edge15_Node000013_Node000014" class="edge">
<title>Node13&#45;&gt;Node14</title>
<g id="a_edge15_Node000013_Node000014"><a xlink:title=" ">
<path fill="none" stroke="#63b8ff" d="M883.59,-47.15C896.36,-45.44 910.24,-43.58 923.74,-41.77"/>
<polygon fill="#63b8ff" stroke="#63b8ff" points="924,-45.27 933.45,-40.47 923.08,-38.33 924,-45.27"/>
</a>
</g>
</g>
<!-- Node15 -->
<g id="Node000015" class="node">
<title>Node15</title>
<g id="a_Node000015"><a xlink:href="a00872.html#af4d7d5164450e25f7401d1cc15f15b8d" target="_top" xlink:title="实际暴露的接口">
<polygon fill="white" stroke="#666666" points="1216.25,-48.17 1093.75,-48.17 1093.75,-16.17 1216.25,-16.17 1216.25,-48.17"/>
<text text-anchor="start" x="1101.75" y="-34.67" font-family="Helvetica,sans-Serif" font-size="10.00">LibLoader::LoaderLogger</text>
<text text-anchor="middle" x="1155" y="-22.67" font-family="Helvetica,sans-Serif" font-size="10.00">::call_logger</text>
</a>
</g>
</g>
<!-- Node14&#45;&gt;Node15 -->
<g id="edge16_Node000014_Node000015" class="edge">
<title>Node14&#45;&gt;Node15</title>
<g id="a_edge16_Node000014_Node000015"><a xlink:title=" ">
<path fill="none" stroke="#63b8ff" d="M1058.01,-32.17C1065.9,-32.17 1074.05,-32.17 1082.1,-32.17"/>
<polygon fill="#63b8ff" stroke="#63b8ff" points="1081.88,-35.67 1091.88,-32.17 1081.88,-28.67 1081.88,-35.67"/>
</a>
</g>
</g>
<!-- Node15&#45;&gt;Node12 -->
<g id="edge17_Node000015_Node000012" class="edge">
<title>Node15&#45;&gt;Node12</title>
<g id="a_edge17_Node000015_Node000012"><a xlink:title=" ">
<path fill="none" stroke="#63b8ff" d="M1196,-48.56C1213.19,-55.61 1233.49,-63.93 1251.72,-71.4"/>
<polygon fill="#63b8ff" stroke="#63b8ff" points="1250.19,-74.56 1260.77,-75.11 1252.85,-68.08 1250.19,-74.56"/>
</a>
</g>
</g>
<!-- Node15&#45;&gt;Node13 -->
<g id="edge18_Node000015_Node000013" class="edge">
<title>Node15&#45;&gt;Node13</title>
<g id="a_edge18_Node000015_Node000013"><a xlink:title=" ">
<path fill="none" stroke="#63b8ff" d="M1100.51,-15.71C1086.71,-12.17 1071.79,-8.96 1057.75,-7.17 1003.74,-0.27 988.48,4.29 935.25,-7.17 907.51,-13.14 878.26,-27.11 857.84,-38.28"/>
<polygon fill="#63b8ff" stroke="#63b8ff" points="856.34,-35.11 849.35,-43.07 859.78,-41.21 856.34,-35.11"/>
</a>
</g>
</g>
</g>
</svg>
