<?xml version="1.0" encoding="UTF-8" standalone="no"?>
<!DOCTYPE svg PUBLIC "-//W3C//DTD SVG 1.1//EN"
 "http://www.w3.org/Graphics/SVG/1.1/DTD/svg11.dtd">
<!-- Generated by graphviz version 9.0.0 (0)
 -->
<!-- Title: MiraiCP::Contact::forceRefreshNow Pages: 1 -->
<svg width="372pt" height="78pt"
 viewBox="0.00 0.00 372.25 78.00" xmlns="http://www.w3.org/2000/svg" xmlns:xlink="http://www.w3.org/1999/xlink">
<g id="graph0" class="graph" transform="scale(1 1) rotate(0) translate(4 74)">
<title>MiraiCP::Contact::forceRefreshNow</title>
<!-- Node1 -->
<g id="Node000001" class="node">
<title>Node1</title>
<g id="a_Node000001"><a xlink:title="强制数据刷新">
<polygon fill="#999999" stroke="#666666" points="174.25,-42 0,-42 0,-22 174.25,-22 174.25,-42"/>
<text text-anchor="middle" x="87.12" y="-28.5" font-family="Helvetica,sans-Serif" font-size="10.00">MiraiCP::Contact::forceRefreshNow</text>
</a>
</g>
</g>
<!-- Node2 -->
<g id="Node000002" class="node">
<title>Node2</title>
<g id="a_Node000002"><a xlink:href="a00460.html#aa6f2fbe2c5897a59431fe891e3ed1072" target="_top" xlink:title="强制下次 refreshInfo() 调用时刷新数据">
<polygon fill="white" stroke="#666666" points="364.25,-70 210.25,-70 210.25,-38 364.25,-38 364.25,-70"/>
<text text-anchor="start" x="218.25" y="-56.5" font-family="Helvetica,sans-Serif" font-size="10.00">MiraiCP::Contact::forceRefresh</text>
<text text-anchor="middle" x="287.25" y="-44.5" font-family="Helvetica,sans-Serif" font-size="10.00">NextTime</text>
</a>
</g>
</g>
<!-- Node1&#45;&gt;Node2 -->
<g id="edge1_Node000001_Node000002" class="edge">
<title>Node1&#45;&gt;Node2</title>
<g id="a_edge1_Node000001_Node000002"><a xlink:title=" ">
<path fill="none" stroke="#63b8ff" d="M174.74,-41.62C182.57,-42.49 190.51,-43.37 198.36,-44.24"/>
<polygon fill="#63b8ff" stroke="#63b8ff" points="197.94,-47.71 208.26,-45.34 198.71,-40.76 197.94,-47.71"/>
</a>
</g>
</g>
<!-- Node3 -->
<g id="Node000003" class="node">
<title>Node3</title>
<g id="a_Node000003"><a xlink:href="a00460.html#a6b03b38226c3f85050dac7135f06cec6" target="_top" xlink:title="尝试一次数据刷新">
<polygon fill="white" stroke="#666666" points="359.38,-20 215.12,-20 215.12,0 359.38,0 359.38,-20"/>
<text text-anchor="middle" x="287.25" y="-6.5" font-family="Helvetica,sans-Serif" font-size="10.00">MiraiCP::Contact::refreshInfo</text>
</a>
</g>
</g>
<!-- Node1&#45;&gt;Node3 -->
<g id="edge2_Node000001_Node000003" class="edge">
<title>Node1&#45;&gt;Node3</title>
<g id="a_edge2_Node000001_Node000003"><a xlink:title=" ">
<path fill="none" stroke="#63b8ff" d="M174.74,-22.38C184.21,-21.33 193.84,-20.26 203.27,-19.21"/>
<polygon fill="#63b8ff" stroke="#63b8ff" points="203.6,-22.7 213.15,-18.12 202.82,-15.74 203.6,-22.7"/>
</a>
</g>
</g>
</g>
</svg>
