<?xml version="1.0" encoding="UTF-8" standalone="no"?>
<!DOCTYPE svg PUBLIC "-//W3C//DTD SVG 1.1//EN"
 "http://www.w3.org/Graphics/SVG/1.1/DTD/svg11.dtd">
<!-- Generated by graphviz version 9.0.0 (0)
 -->
<!-- Title: LibLoader::MessageHandler::plugin_id_message Pages: 1 -->
<svg width="475pt" height="40pt"
 viewBox="0.00 0.00 475.25 40.00" xmlns="http://www.w3.org/2000/svg" xmlns:xlink="http://www.w3.org/1999/xlink">
<g id="graph0" class="graph" transform="scale(1 1) rotate(0) translate(4 36)">
<title>LibLoader::MessageHandler::plugin_id_message</title>
<!-- Node1 -->
<g id="Node000001" class="node">
<title>Node1</title>
<g id="a_Node000001"><a xlink:title=" ">
<polygon fill="#999999" stroke="#666666" points="137.5,-32 0,-32 0,0 137.5,0 137.5,-32"/>
<text text-anchor="start" x="8" y="-18.5" font-family="Helvetica,sans-Serif" font-size="10.00">LibLoader::MessageHandler</text>
<text text-anchor="middle" x="68.75" y="-6.5" font-family="Helvetica,sans-Serif" font-size="10.00">::plugin_id_message</text>
</a>
</g>
</g>
<!-- Node2 -->
<g id="Node000002" class="node">
<title>Node2</title>
<g id="a_Node000002"><a xlink:href="a00426.html#a1dc2ed7eb6845af70bc796bb347b74ef" target="_top" xlink:title=" ">
<polygon fill="white" stroke="#666666" points="281,-32 173.5,-32 173.5,0 281,0 281,-32"/>
<text text-anchor="start" x="181.5" y="-18.5" font-family="Helvetica,sans-Serif" font-size="10.00">LibLoader::LoaderApi</text>
<text text-anchor="middle" x="227.25" y="-6.5" font-family="Helvetica,sans-Serif" font-size="10.00">::showAllPluginId</text>
</a>
</g>
</g>
<!-- Node1&#45;&gt;Node2 -->
<g id="edge1_Node000001_Node000002" class="edge">
<title>Node1&#45;&gt;Node2</title>
<g id="a_edge1_Node000001_Node000002"><a xlink:title=" ">
<path fill="none" stroke="#63b8ff" d="M137.94,-16C145.91,-16 154.02,-16 161.93,-16"/>
<polygon fill="#63b8ff" stroke="#63b8ff" points="161.83,-19.5 171.83,-16 161.83,-12.5 161.83,-19.5"/>
</a>
</g>
</g>
<!-- Node3 -->
<g id="Node000003" class="node">
<title>Node3</title>
<g id="a_Node000003"><a xlink:href="a00928.html#a39ce5601eee168a69cab158349412c3e" target="_top" xlink:title=" ">
<polygon fill="white" stroke="#666666" points="467.25,-26 317,-26 317,-6 467.25,-6 467.25,-26"/>
<text text-anchor="middle" x="392.12" y="-12.5" font-family="Helvetica,sans-Serif" font-size="10.00">LibLoader::PluginManager::Get</text>
</a>
</g>
</g>
<!-- Node2&#45;&gt;Node3 -->
<g id="edge2_Node000002_Node000003" class="edge">
<title>Node2&#45;&gt;Node3</title>
<g id="a_edge2_Node000002_Node000003"><a xlink:title=" ">
<path fill="none" stroke="#63b8ff" d="M281.13,-16C288.92,-16 297.11,-16 305.36,-16"/>
<polygon fill="#63b8ff" stroke="#63b8ff" points="305.1,-19.5 315.1,-16 305.1,-12.5 305.1,-19.5"/>
</a>
</g>
</g>
</g>
</svg>
