<?xml version="1.0" encoding="UTF-8" standalone="no"?>
<!DOCTYPE svg PUBLIC "-//W3C//DTD SVG 1.1//EN"
 "http://www.w3.org/Graphics/SVG/1.1/DTD/svg11.dtd">
<!-- Generated by graphviz version 2.50.0 (20211204.2007)
 -->
<!-- Title: MiraiCP::Contact::toString Pages: 1 -->
<svg width="322pt" height="78pt"
 viewBox="0.00 0.00 322.00 77.50" xmlns="http://www.w3.org/2000/svg" xmlns:xlink="http://www.w3.org/1999/xlink">
<g id="graph0" class="graph" transform="scale(1 1) rotate(0) translate(4 73.5)">
<title>MiraiCP::Contact::toString</title>
<polygon fill="white" stroke="transparent" points="-4,4 -4,-73.5 318,-73.5 318,4 -4,4"/>
<!-- Node1 -->
<g id="node1" class="node">
<title>Node1</title>
<g id="a_node1"><a xlink:title=" ">
<polygon fill="#bfbfbf" stroke="black" points="183,-28 183,-47 314,-47 314,-28 183,-28"/>
<text text-anchor="middle" x="248.5" y="-35" font-family="Helvetica,sans-Serif" font-size="10.00">MiraiCP::Contact::toString</text>
</a>
</g>
</g>
<!-- Node2 -->
<g id="node2" class="node">
<title>Node2</title>
<g id="a_node2"><a xlink:href="a00445.html#aa9f8b75ac817f93205454f2d37293307" target="_top" xlink:title=" ">
<polygon fill="white" stroke="black" points="0,-50 0,-69 147,-69 147,-50 0,-50"/>
<text text-anchor="middle" x="73.5" y="-57" font-family="Helvetica,sans-Serif" font-size="10.00">MiraiCP::Contact::unpackMsg</text>
</a>
</g>
</g>
<!-- Node1&#45;&gt;Node2 -->
<g id="edge1" class="edge">
<title>Node1&#45;&gt;Node2</title>
<path fill="none" stroke="midnightblue" d="M172.41,-47.05C163.99,-48.12 155.42,-49.21 147.03,-50.28"/>
<polygon fill="midnightblue" stroke="midnightblue" points="173.11,-50.49 182.59,-45.75 172.23,-43.54 173.11,-50.49"/>
</g>
<!-- Node3 -->
<g id="node3" class="node">
<title>Node3</title>
<g id="a_node3"><a xlink:href="a00445.html#a953a301e675c7fc368d1d9694b12763a" target="_top" xlink:title=" ">
<polygon fill="white" stroke="black" points="9.5,-0.5 9.5,-30.5 137.5,-30.5 137.5,-0.5 9.5,-0.5"/>
<text text-anchor="start" x="17.5" y="-18.5" font-family="Helvetica,sans-Serif" font-size="10.00">MiraiCP::Contact::unpack</text>
<text text-anchor="middle" x="73.5" y="-7.5" font-family="Helvetica,sans-Serif" font-size="10.00">Quote</text>
</a>
</g>
</g>
<!-- Node1&#45;&gt;Node3 -->
<g id="edge2" class="edge">
<title>Node1&#45;&gt;Node3</title>
<path fill="none" stroke="midnightblue" d="M172.5,-27.96C160.92,-26.49 149.06,-24.98 137.77,-23.55"/>
<polygon fill="midnightblue" stroke="midnightblue" points="172.23,-31.46 182.59,-29.25 173.11,-24.51 172.23,-31.46"/>
</g>
</g>
</svg>
