<?xml version="1.0" encoding="UTF-8" standalone="no"?>
<!DOCTYPE svg PUBLIC "-//W3C//DTD SVG 1.1//EN"
 "http://www.w3.org/Graphics/SVG/1.1/DTD/svg11.dtd">
<!-- Generated by graphviz version 9.0.0 (0)
 -->
<!-- Title: MiraiCP::BotEvent&lt; T &gt; Pages: 1 -->
<svg width="558pt" height="1620pt"
 viewBox="0.00 0.00 557.50 1620.00" xmlns="http://www.w3.org/2000/svg" xmlns:xlink="http://www.w3.org/1999/xlink">
<g id="graph0" class="graph" transform="scale(1 1) rotate(0) translate(4 1616)">
<title>MiraiCP::BotEvent&lt; T &gt;</title>
<!-- Node1 -->
<g id="Node000001" class="node">
<title>Node1</title>
<g id="a_Node000001"><a xlink:title="所有事件处理timeoutevent都是机器人事件，指都有机器人实例">
<polygon fill="#999999" stroke="none" points="280,-108 138,-108 138,0 280,0 280,-108"/>
<text text-anchor="start" x="156.5" y="-94.5" font-family="Helvetica,sans-Serif" font-size="10.00">MiraiCP::BotEvent&lt; T &gt;</text>
<text text-anchor="start" x="207.5" y="-78.5" font-family="Helvetica,sans-Serif" font-size="10.00"> </text>
<text text-anchor="start" x="142" y="-62.5" font-family="Helvetica,sans-Serif" font-size="10.00">+</text>
<text text-anchor="start" x="152" y="-62.5" font-family="Helvetica,sans-Serif" font-size="10.00">eventTypes::Types getEvent</text>
<text text-anchor="start" x="152" y="-50.5" font-family="Helvetica,sans-Serif" font-size="10.00">Type() const override</text>
<text text-anchor="start" x="142" y="-34.5" font-family="Helvetica,sans-Serif" font-size="10.00">+</text>
<text text-anchor="start" x="152" y="-34.5" font-family="Helvetica,sans-Serif" font-size="10.00">BotEvent(QQID botid)</text>
<text text-anchor="start" x="142" y="-18.5" font-family="Helvetica,sans-Serif" font-size="10.00">+</text>
<text text-anchor="start" x="152" y="-18.5" font-family="Helvetica,sans-Serif" font-size="10.00">~BotEvent() override</text>
<text text-anchor="start" x="152" y="-6.5" font-family="Helvetica,sans-Serif" font-size="10.00">=default</text>
<polygon fill="#666666" stroke="#666666" points="138,-90 138,-90 280,-90 280,-90 138,-90"/>
<polygon fill="#666666" stroke="#666666" points="138,-74 138,-74 280,-74 280,-74 138,-74"/>
<polygon fill="none" stroke="#666666" points="138,0 138,-108 280,-108 280,0 138,0"/>
</a>
</g>
</g>
<!-- Node2 -->
<g id="Node000002" class="node">
<title>Node2</title>
<g id="a_Node000002"><a xlink:href="a00512.html" target="_top" xlink:title="Event抽象父类">
<polygon fill="white" stroke="none" points="120,-404 0,-404 0,-256 120,-256 120,-404"/>
<text text-anchor="start" x="9" y="-390.5" font-family="Helvetica,sans-Serif" font-size="10.00">MiraiCP::MiraiCPEvent</text>
<text text-anchor="start" x="58.5" y="-374.5" font-family="Helvetica,sans-Serif" font-size="10.00"> </text>
<text text-anchor="start" x="4" y="-358.5" font-family="Helvetica,sans-Serif" font-size="10.00">+</text>
<text text-anchor="start" x="14" y="-358.5" font-family="Helvetica,sans-Serif" font-size="10.00">MiraiCPEvent()=default</text>
<text text-anchor="start" x="4" y="-342.5" font-family="Helvetica,sans-Serif" font-size="10.00">+</text>
<text text-anchor="start" x="14" y="-342.5" font-family="Helvetica,sans-Serif" font-size="10.00">virtual ~MiraiCPEvent</text>
<text text-anchor="start" x="14" y="-330.5" font-family="Helvetica,sans-Serif" font-size="10.00">()=default</text>
<text text-anchor="start" x="4" y="-314.5" font-family="Helvetica,sans-Serif" font-size="10.00">+</text>
<text text-anchor="start" x="14" y="-314.5" font-family="Helvetica,sans-Serif" font-size="10.00">virtual eventTypes</text>
<text text-anchor="start" x="14" y="-302.5" font-family="Helvetica,sans-Serif" font-size="10.00">::Types getEventType</text>
<text text-anchor="start" x="14" y="-290.5" font-family="Helvetica,sans-Serif" font-size="10.00">() const =0</text>
<text text-anchor="start" x="4" y="-274.5" font-family="Helvetica,sans-Serif" font-size="10.00">+</text>
<text text-anchor="start" x="14" y="-274.5" font-family="Helvetica,sans-Serif" font-size="10.00">static eventTypes::</text>
<text text-anchor="start" x="14" y="-262.5" font-family="Helvetica,sans-Serif" font-size="10.00">Types get_event_type()</text>
<polygon fill="#666666" stroke="#666666" points="0,-386 0,-386 120,-386 120,-386 0,-386"/>
<polygon fill="#666666" stroke="#666666" points="0,-370 0,-370 120,-370 120,-370 0,-370"/>
<polygon fill="none" stroke="#666666" points="0,-256 0,-404 120,-404 120,-256 0,-256"/>
</a>
</g>
</g>
<!-- Node2&#45;&gt;Node1 -->
<g id="edge1_Node000001_Node000002" class="edge">
<title>Node2&#45;&gt;Node1</title>
<g id="a_edge1_Node000001_Node000002"><a xlink:title=" ">
<path fill="none" stroke="#63b8ff" d="M87.68,-245.53C98.8,-216.34 112.84,-183.92 129,-156 138.52,-139.54 150.54,-122.88 162.35,-107.96"/>
<polygon fill="none" stroke="#63b8ff" points="84.47,-244.11 84.24,-254.7 91.03,-246.56 84.47,-244.11"/>
</a>
</g>
</g>
<!-- Node3 -->
<g id="Node000003" class="node">
<title>Node3</title>
<g id="a_Node000003"><a xlink:href="a00448.html" target="_top" xlink:title="forward declaration">
<polygon fill="white" stroke="none" points="280,-504 138,-504 138,-156 280,-156 280,-504"/>
<text text-anchor="start" x="180.88" y="-490.5" font-family="Helvetica,sans-Serif" font-size="10.00">MiraiCP::Bot</text>
<text text-anchor="start" x="207.5" y="-474.5" font-family="Helvetica,sans-Serif" font-size="10.00"> </text>
<text text-anchor="start" x="142" y="-458.5" font-family="Helvetica,sans-Serif" font-size="10.00">+</text>
<text text-anchor="start" x="152" y="-458.5" font-family="Helvetica,sans-Serif" font-size="10.00">Bot(QQID in_id)</text>
<text text-anchor="start" x="142" y="-442.5" font-family="Helvetica,sans-Serif" font-size="10.00">+</text>
<text text-anchor="start" x="152" y="-442.5" font-family="Helvetica,sans-Serif" font-size="10.00">Friend getFriend(QQID</text>
<text text-anchor="start" x="152" y="-430.5" font-family="Helvetica,sans-Serif" font-size="10.00"> i) const</text>
<text text-anchor="start" x="142" y="-414.5" font-family="Helvetica,sans-Serif" font-size="10.00">+</text>
<text text-anchor="start" x="152" y="-414.5" font-family="Helvetica,sans-Serif" font-size="10.00">Group getGroup(QQID</text>
<text text-anchor="start" x="152" y="-402.5" font-family="Helvetica,sans-Serif" font-size="10.00"> groupid) const</text>
<text text-anchor="start" x="142" y="-386.5" font-family="Helvetica,sans-Serif" font-size="10.00">+</text>
<text text-anchor="start" x="152" y="-386.5" font-family="Helvetica,sans-Serif" font-size="10.00">std::string nick()</text>
<text text-anchor="start" x="142" y="-370.5" font-family="Helvetica,sans-Serif" font-size="10.00">+</text>
<text text-anchor="start" x="152" y="-370.5" font-family="Helvetica,sans-Serif" font-size="10.00">std::string avatarUrl()</text>
<text text-anchor="start" x="142" y="-354.5" font-family="Helvetica,sans-Serif" font-size="10.00">+</text>
<text text-anchor="start" x="152" y="-354.5" font-family="Helvetica,sans-Serif" font-size="10.00">std::vector&lt; QQID &gt;</text>
<text text-anchor="start" x="152" y="-342.5" font-family="Helvetica,sans-Serif" font-size="10.00"> getFriendList() const</text>
<text text-anchor="start" x="142" y="-326.5" font-family="Helvetica,sans-Serif" font-size="10.00">+</text>
<text text-anchor="start" x="152" y="-326.5" font-family="Helvetica,sans-Serif" font-size="10.00">std::string FriendListTo</text>
<text text-anchor="start" x="152" y="-314.5" font-family="Helvetica,sans-Serif" font-size="10.00">String() const</text>
<text text-anchor="start" x="142" y="-298.5" font-family="Helvetica,sans-Serif" font-size="10.00">+</text>
<text text-anchor="start" x="152" y="-298.5" font-family="Helvetica,sans-Serif" font-size="10.00">std::vector&lt; QQID &gt;</text>
<text text-anchor="start" x="152" y="-286.5" font-family="Helvetica,sans-Serif" font-size="10.00"> getGroupList() const</text>
<text text-anchor="start" x="142" y="-270.5" font-family="Helvetica,sans-Serif" font-size="10.00">+</text>
<text text-anchor="start" x="152" y="-270.5" font-family="Helvetica,sans-Serif" font-size="10.00">std::string GroupListToString</text>
<text text-anchor="start" x="152" y="-258.5" font-family="Helvetica,sans-Serif" font-size="10.00">() const</text>
<text text-anchor="start" x="142" y="-242.5" font-family="Helvetica,sans-Serif" font-size="10.00">+</text>
<text text-anchor="start" x="152" y="-242.5" font-family="Helvetica,sans-Serif" font-size="10.00">std::vector&lt; QQID &gt;</text>
<text text-anchor="start" x="152" y="-230.5" font-family="Helvetica,sans-Serif" font-size="10.00"> getOnlineBotsList()</text>
<text text-anchor="start" x="152" y="-218.5" font-family="Helvetica,sans-Serif" font-size="10.00"> const</text>
<text text-anchor="start" x="142" y="-202.5" font-family="Helvetica,sans-Serif" font-size="10.00">+</text>
<text text-anchor="start" x="152" y="-202.5" font-family="Helvetica,sans-Serif" font-size="10.00">std::string OnlineBotsList</text>
<text text-anchor="start" x="152" y="-190.5" font-family="Helvetica,sans-Serif" font-size="10.00">ToString() const</text>
<text text-anchor="start" x="142" y="-174.5" font-family="Helvetica,sans-Serif" font-size="10.00">+</text>
<text text-anchor="start" x="152" y="-174.5" font-family="Helvetica,sans-Serif" font-size="10.00">bool operator==(const</text>
<text text-anchor="start" x="152" y="-162.5" font-family="Helvetica,sans-Serif" font-size="10.00"> Bot &amp;b) const</text>
<polygon fill="#666666" stroke="#666666" points="138,-486 138,-486 280,-486 280,-486 138,-486"/>
<polygon fill="#666666" stroke="#666666" points="138,-470 138,-470 280,-470 280,-470 138,-470"/>
<polygon fill="none" stroke="#666666" points="138,-156 138,-504 280,-504 280,-156 138,-156"/>
</a>
</g>
</g>
<!-- Node3&#45;&gt;Node1 -->
<g id="edge2_Node000001_Node000003" class="edge">
<title>Node3&#45;&gt;Node1</title>
<g id="a_edge2_Node000001_Node000003"><a xlink:title=" ">
<path fill="none" stroke="#63b8ff" d="M209,-156.25C209,-143.94 209,-132.05 209,-121"/>
<polygon fill="none" stroke="#63b8ff" points="209,-120.89 205,-114.89 209,-108.89 213,-114.89 209,-120.89"/>
</a>
</g>
<text text-anchor="middle" x="220.25" y="-128.5" font-family="Helvetica,sans-Serif" font-size="10.00" fill="grey"> +bot</text>
</g>
<!-- Node4 -->
<g id="Node000004" class="node">
<title>Node4</title>
<g id="a_Node000004"><a xlink:href="a00460.html" target="_top" xlink:title="group, friend, member的父类">
<polygon fill="white" stroke="none" points="285,-1488 101,-1488 101,-552 285,-552 285,-1488"/>
<text text-anchor="start" x="155.12" y="-1474.5" font-family="Helvetica,sans-Serif" font-size="10.00">MiraiCP::Contact</text>
<text text-anchor="start" x="191.5" y="-1458.5" font-family="Helvetica,sans-Serif" font-size="10.00"> </text>
<text text-anchor="start" x="105" y="-1442.5" font-family="Helvetica,sans-Serif" font-size="10.00">+</text>
<text text-anchor="start" x="115" y="-1442.5" font-family="Helvetica,sans-Serif" font-size="10.00">Contact()=delete</text>
<text text-anchor="start" x="105" y="-1426.5" font-family="Helvetica,sans-Serif" font-size="10.00">+</text>
<text text-anchor="start" x="115" y="-1426.5" font-family="Helvetica,sans-Serif" font-size="10.00">virtual ~Contact()</text>
<text text-anchor="start" x="115" y="-1414.5" font-family="Helvetica,sans-Serif" font-size="10.00">=default</text>
<text text-anchor="start" x="105" y="-1398.5" font-family="Helvetica,sans-Serif" font-size="10.00">+</text>
<text text-anchor="start" x="115" y="-1398.5" font-family="Helvetica,sans-Serif" font-size="10.00">bool operator==(const</text>
<text text-anchor="start" x="115" y="-1386.5" font-family="Helvetica,sans-Serif" font-size="10.00"> Contact &amp;c) const</text>
<text text-anchor="start" x="105" y="-1370.5" font-family="Helvetica,sans-Serif" font-size="10.00">+</text>
<text text-anchor="start" x="115" y="-1370.5" font-family="Helvetica,sans-Serif" font-size="10.00">void SetInternalData</text>
<text text-anchor="start" x="115" y="-1358.5" font-family="Helvetica,sans-Serif" font-size="10.00">(std::shared_ptr&lt; IContactData</text>
<text text-anchor="start" x="115" y="-1346.5" font-family="Helvetica,sans-Serif" font-size="10.00"> &gt; Data)</text>
<text text-anchor="start" x="105" y="-1330.5" font-family="Helvetica,sans-Serif" font-size="10.00">+</text>
<text text-anchor="start" x="115" y="-1330.5" font-family="Helvetica,sans-Serif" font-size="10.00">void refreshInfo()</text>
<text text-anchor="start" x="105" y="-1314.5" font-family="Helvetica,sans-Serif" font-size="10.00">+</text>
<text text-anchor="start" x="115" y="-1314.5" font-family="Helvetica,sans-Serif" font-size="10.00">void forceRefreshNextTime()</text>
<text text-anchor="start" x="105" y="-1298.5" font-family="Helvetica,sans-Serif" font-size="10.00">+</text>
<text text-anchor="start" x="115" y="-1298.5" font-family="Helvetica,sans-Serif" font-size="10.00">void forceRefreshNow()</text>
<text text-anchor="start" x="105" y="-1282.5" font-family="Helvetica,sans-Serif" font-size="10.00">+</text>
<text text-anchor="start" x="115" y="-1282.5" font-family="Helvetica,sans-Serif" font-size="10.00">ContactType type()</text>
<text text-anchor="start" x="115" y="-1270.5" font-family="Helvetica,sans-Serif" font-size="10.00"> const</text>
<text text-anchor="start" x="105" y="-1254.5" font-family="Helvetica,sans-Serif" font-size="10.00">+</text>
<text text-anchor="start" x="115" y="-1254.5" font-family="Helvetica,sans-Serif" font-size="10.00">QQID id() const</text>
<text text-anchor="start" x="105" y="-1238.5" font-family="Helvetica,sans-Serif" font-size="10.00">+</text>
<text text-anchor="start" x="115" y="-1238.5" font-family="Helvetica,sans-Serif" font-size="10.00">QQID botid() const</text>
<text text-anchor="start" x="105" y="-1222.5" font-family="Helvetica,sans-Serif" font-size="10.00">+</text>
<text text-anchor="start" x="115" y="-1222.5" font-family="Helvetica,sans-Serif" font-size="10.00">MessageSource quoteAndSend</text>
<text text-anchor="start" x="115" y="-1210.5" font-family="Helvetica,sans-Serif" font-size="10.00">Message(const T &amp;s, MessageSource</text>
<text text-anchor="start" x="115" y="-1198.5" font-family="Helvetica,sans-Serif" font-size="10.00"> ms) const</text>
<text text-anchor="start" x="105" y="-1182.5" font-family="Helvetica,sans-Serif" font-size="10.00">+</text>
<text text-anchor="start" x="115" y="-1182.5" font-family="Helvetica,sans-Serif" font-size="10.00">MessageSource quoteAndSend</text>
<text text-anchor="start" x="115" y="-1170.5" font-family="Helvetica,sans-Serif" font-size="10.00">Message(const MessageSource</text>
<text text-anchor="start" x="115" y="-1158.5" font-family="Helvetica,sans-Serif" font-size="10.00"> &amp;ms, T &amp;&amp;...val) const</text>
<text text-anchor="start" x="105" y="-1142.5" font-family="Helvetica,sans-Serif" font-size="10.00">+</text>
<text text-anchor="start" x="115" y="-1142.5" font-family="Helvetica,sans-Serif" font-size="10.00">MessageSource sendMessage</text>
<text text-anchor="start" x="115" y="-1130.5" font-family="Helvetica,sans-Serif" font-size="10.00">(T &amp;&amp;...msg) const</text>
<text text-anchor="start" x="105" y="-1114.5" font-family="Helvetica,sans-Serif" font-size="10.00">+</text>
<text text-anchor="start" x="115" y="-1114.5" font-family="Helvetica,sans-Serif" font-size="10.00">MessageSource sendMessage</text>
<text text-anchor="start" x="115" y="-1102.5" font-family="Helvetica,sans-Serif" font-size="10.00">(T &amp;&amp;msg) const</text>
<text text-anchor="start" x="105" y="-1086.5" font-family="Helvetica,sans-Serif" font-size="10.00">+</text>
<text text-anchor="start" x="115" y="-1086.5" font-family="Helvetica,sans-Serif" font-size="10.00">nlohmann::json toJson</text>
<text text-anchor="start" x="115" y="-1074.5" font-family="Helvetica,sans-Serif" font-size="10.00">() const</text>
<text text-anchor="start" x="105" y="-1058.5" font-family="Helvetica,sans-Serif" font-size="10.00">+</text>
<text text-anchor="start" x="115" y="-1058.5" font-family="Helvetica,sans-Serif" font-size="10.00">void updateJson(nlohmann</text>
<text text-anchor="start" x="115" y="-1046.5" font-family="Helvetica,sans-Serif" font-size="10.00">::json &amp;j) const</text>
<text text-anchor="start" x="105" y="-1030.5" font-family="Helvetica,sans-Serif" font-size="10.00">+</text>
<text text-anchor="start" x="115" y="-1030.5" font-family="Helvetica,sans-Serif" font-size="10.00">std::string toString</text>
<text text-anchor="start" x="115" y="-1018.5" font-family="Helvetica,sans-Serif" font-size="10.00">() const</text>
<text text-anchor="start" x="105" y="-1002.5" font-family="Helvetica,sans-Serif" font-size="10.00">+</text>
<text text-anchor="start" x="115" y="-1002.5" font-family="Helvetica,sans-Serif" font-size="10.00">Image uploadImg(const</text>
<text text-anchor="start" x="115" y="-990.5" font-family="Helvetica,sans-Serif" font-size="10.00"> std::string &amp;path) const</text>
<text text-anchor="start" x="105" y="-974.5" font-family="Helvetica,sans-Serif" font-size="10.00">+</text>
<text text-anchor="start" x="115" y="-974.5" font-family="Helvetica,sans-Serif" font-size="10.00">FlashImage uploadFlashImg</text>
<text text-anchor="start" x="115" y="-962.5" font-family="Helvetica,sans-Serif" font-size="10.00">(const std::string &amp;path) const</text>
<text text-anchor="start" x="105" y="-946.5" font-family="Helvetica,sans-Serif" font-size="10.00">+</text>
<text text-anchor="start" x="115" y="-946.5" font-family="Helvetica,sans-Serif" font-size="10.00">static std::shared</text>
<text text-anchor="start" x="115" y="-934.5" font-family="Helvetica,sans-Serif" font-size="10.00">_ptr&lt; Contact &gt; deserialize</text>
<text text-anchor="start" x="115" y="-922.5" font-family="Helvetica,sans-Serif" font-size="10.00">ToPointer(nlohmann::json</text>
<text text-anchor="start" x="115" y="-910.5" font-family="Helvetica,sans-Serif" font-size="10.00"> source)</text>
<text text-anchor="start" x="105.38" y="-894.5" font-family="Helvetica,sans-Serif" font-size="10.00">#</text>
<text text-anchor="start" x="115" y="-894.5" font-family="Helvetica,sans-Serif" font-size="10.00">Contact(std::shared</text>
<text text-anchor="start" x="115" y="-882.5" font-family="Helvetica,sans-Serif" font-size="10.00">_ptr&lt; IContactData &gt; Data)</text>
<text text-anchor="start" x="105.38" y="-866.5" font-family="Helvetica,sans-Serif" font-size="10.00">#</text>
<text text-anchor="start" x="115" y="-866.5" font-family="Helvetica,sans-Serif" font-size="10.00">MessageSource quoteAndSend</text>
<text text-anchor="start" x="115" y="-854.5" font-family="Helvetica,sans-Serif" font-size="10.00">Impl(std::string msg, const</text>
<text text-anchor="start" x="115" y="-842.5" font-family="Helvetica,sans-Serif" font-size="10.00"> MessageSource &amp;ms) const</text>
<text text-anchor="start" x="105.38" y="-826.5" font-family="Helvetica,sans-Serif" font-size="10.00">#</text>
<text text-anchor="start" x="115" y="-826.5" font-family="Helvetica,sans-Serif" font-size="10.00">MessageSource unpackQuote</text>
<text text-anchor="start" x="115" y="-814.5" font-family="Helvetica,sans-Serif" font-size="10.00">(const SingleMessage &amp;s,</text>
<text text-anchor="start" x="115" y="-802.5" font-family="Helvetica,sans-Serif" font-size="10.00"> const MessageSource &amp;ms) const</text>
<text text-anchor="start" x="105.38" y="-786.5" font-family="Helvetica,sans-Serif" font-size="10.00">#</text>
<text text-anchor="start" x="115" y="-786.5" font-family="Helvetica,sans-Serif" font-size="10.00">MessageSource unpackQuote</text>
<text text-anchor="start" x="115" y="-774.5" font-family="Helvetica,sans-Serif" font-size="10.00">(const std::string &amp;s,</text>
<text text-anchor="start" x="115" y="-762.5" font-family="Helvetica,sans-Serif" font-size="10.00"> const MessageSource &amp;ms) const</text>
<text text-anchor="start" x="105.38" y="-746.5" font-family="Helvetica,sans-Serif" font-size="10.00">#</text>
<text text-anchor="start" x="115" y="-746.5" font-family="Helvetica,sans-Serif" font-size="10.00">MessageSource unpackQuote</text>
<text text-anchor="start" x="115" y="-734.5" font-family="Helvetica,sans-Serif" font-size="10.00">(const MessageChain &amp;mc,</text>
<text text-anchor="start" x="115" y="-722.5" font-family="Helvetica,sans-Serif" font-size="10.00"> const MessageSource &amp;ms) const</text>
<text text-anchor="start" x="105.38" y="-706.5" font-family="Helvetica,sans-Serif" font-size="10.00">#</text>
<text text-anchor="start" x="115" y="-706.5" font-family="Helvetica,sans-Serif" font-size="10.00">MessageSource sendVoiceImpl</text>
<text text-anchor="start" x="115" y="-694.5" font-family="Helvetica,sans-Serif" font-size="10.00">(std::string path) const</text>
<text text-anchor="start" x="105.38" y="-678.5" font-family="Helvetica,sans-Serif" font-size="10.00">#</text>
<text text-anchor="start" x="115" y="-678.5" font-family="Helvetica,sans-Serif" font-size="10.00">MessageSource sendMsgImpl</text>
<text text-anchor="start" x="115" y="-666.5" font-family="Helvetica,sans-Serif" font-size="10.00">(std::string msg) const</text>
<text text-anchor="start" x="105.38" y="-650.5" font-family="Helvetica,sans-Serif" font-size="10.00">#</text>
<text text-anchor="start" x="115" y="-650.5" font-family="Helvetica,sans-Serif" font-size="10.00">MessageSource unpackMsg</text>
<text text-anchor="start" x="115" y="-638.5" font-family="Helvetica,sans-Serif" font-size="10.00">(const MessageChain &amp;msg)</text>
<text text-anchor="start" x="115" y="-626.5" font-family="Helvetica,sans-Serif" font-size="10.00"> const</text>
<text text-anchor="start" x="105.38" y="-610.5" font-family="Helvetica,sans-Serif" font-size="10.00">#</text>
<text text-anchor="start" x="115" y="-610.5" font-family="Helvetica,sans-Serif" font-size="10.00">MessageSource unpackMsg</text>
<text text-anchor="start" x="115" y="-598.5" font-family="Helvetica,sans-Serif" font-size="10.00">(const MiraiCodeable &amp;msg)</text>
<text text-anchor="start" x="115" y="-586.5" font-family="Helvetica,sans-Serif" font-size="10.00"> const</text>
<text text-anchor="start" x="105.38" y="-570.5" font-family="Helvetica,sans-Serif" font-size="10.00">#</text>
<text text-anchor="start" x="115" y="-570.5" font-family="Helvetica,sans-Serif" font-size="10.00">MessageSource unpackMsg</text>
<text text-anchor="start" x="115" y="-558.5" font-family="Helvetica,sans-Serif" font-size="10.00">(std::string msg) const</text>
<polygon fill="#666666" stroke="#666666" points="101,-1470 101,-1470 285,-1470 285,-1470 101,-1470"/>
<polygon fill="#666666" stroke="#666666" points="101,-1454 101,-1454 285,-1454 285,-1454 101,-1454"/>
<polygon fill="none" stroke="#666666" points="101,-552 101,-1488 285,-1488 285,-552 101,-552"/>
</a>
</g>
</g>
<!-- Node4&#45;&gt;Node3 -->
<g id="edge3_Node000003_Node000004" class="edge">
<title>Node4&#45;&gt;Node3</title>
<g id="a_edge3_Node000003_Node000004"><a xlink:title=" ">
<path fill="none" stroke="#63b8ff" d="M204.12,-540.85C204.41,-528.24 204.7,-515.92 204.98,-503.97"/>
<polygon fill="none" stroke="#63b8ff" points="200.63,-540.41 203.9,-550.49 207.63,-540.57 200.63,-540.41"/>
</a>
</g>
</g>
<!-- Node5 -->
<g id="Node000005" class="node">
<title>Node5</title>
<g id="a_Node000005"><a xlink:title=" ">
<polygon fill="white" stroke="none" points="243,-1606 143,-1606 143,-1542 243,-1542 243,-1606"/>
<text text-anchor="start" x="148" y="-1592.5" font-family="Helvetica,sans-Serif" font-size="10.00">shared_ptr&lt; MiraiCP</text>
<text text-anchor="start" x="156.25" y="-1580.5" font-family="Helvetica,sans-Serif" font-size="10.00">::IContactData &gt;</text>
<text text-anchor="start" x="191.5" y="-1564.5" font-family="Helvetica,sans-Serif" font-size="10.00"> </text>
<text text-anchor="start" x="191.5" y="-1548.5" font-family="Helvetica,sans-Serif" font-size="10.00"> </text>
<polygon fill="#666666" stroke="#666666" points="143,-1576 143,-1576 243,-1576 243,-1576 143,-1576"/>
<polygon fill="#666666" stroke="#666666" points="143,-1560 143,-1560 243,-1560 243,-1560 143,-1560"/>
<polygon fill="none" stroke="#666666" points="143,-1542 143,-1606 243,-1606 243,-1542 143,-1542"/>
</a>
</g>
</g>
<!-- Node5&#45;&gt;Node4 -->
<g id="edge4_Node000004_Node000005" class="edge">
<title>Node5&#45;&gt;Node4</title>
<g id="a_edge4_Node000004_Node000005"><a xlink:title=" ">
<path fill="none" stroke="#63b8ff" d="M193,-1542.14C193,-1530.83 193,-1516.79 193,-1500.66"/>
<polygon fill="none" stroke="#63b8ff" points="193,-1500.83 189,-1494.83 193,-1488.83 197,-1494.83 193,-1500.83"/>
</a>
</g>
<text text-anchor="middle" x="223.75" y="-1508.5" font-family="Helvetica,sans-Serif" font-size="10.00" fill="grey"> #InternalData</text>
</g>
<!-- Node6 -->
<g id="Node000006" class="node">
<title>Node6</title>
<g id="a_Node000006"><a xlink:href="a00640.html" target="_top" xlink:title="带id(一般为bot账号)的logger">
<polygon fill="white" stroke="none" points="440,-382 304,-382 304,-278 440,-278 440,-382"/>
<text text-anchor="start" x="332.62" y="-368.5" font-family="Helvetica,sans-Serif" font-size="10.00">MiraiCP::IdLogger</text>
<text text-anchor="start" x="370.5" y="-352.5" font-family="Helvetica,sans-Serif" font-size="10.00"> </text>
<text text-anchor="start" x="308" y="-336.5" font-family="Helvetica,sans-Serif" font-size="10.00">+</text>
<text text-anchor="start" x="318" y="-336.5" font-family="Helvetica,sans-Serif" font-size="10.00">IdLogger(QQID inId,</text>
<text text-anchor="start" x="318" y="-324.5" font-family="Helvetica,sans-Serif" font-size="10.00"> Logger *l)</text>
<text text-anchor="start" x="308.38" y="-308.5" font-family="Helvetica,sans-Serif" font-size="10.00">#</text>
<text text-anchor="start" x="318" y="-308.5" font-family="Helvetica,sans-Serif" font-size="10.00">void log_interface</text>
<text text-anchor="start" x="318" y="-296.5" font-family="Helvetica,sans-Serif" font-size="10.00">(const std::string &amp;content,</text>
<text text-anchor="start" x="318" y="-284.5" font-family="Helvetica,sans-Serif" font-size="10.00"> int level) override</text>
<polygon fill="#666666" stroke="#666666" points="304,-364 304,-364 440,-364 440,-364 304,-364"/>
<polygon fill="#666666" stroke="#666666" points="304,-348 304,-348 440,-348 440,-348 304,-348"/>
<polygon fill="none" stroke="#666666" points="304,-278 304,-382 440,-382 440,-278 304,-278"/>
</a>
</g>
</g>
<!-- Node6&#45;&gt;Node1 -->
<g id="edge5_Node000001_Node000006" class="edge">
<title>Node6&#45;&gt;Node1</title>
<g id="a_edge5_Node000001_Node000006"><a xlink:title=" ">
<path fill="none" stroke="#63b8ff" d="M351.22,-278.23C335.9,-242.89 313.54,-195.27 289,-156 281.03,-143.26 271.74,-130.24 262.36,-117.98"/>
<polygon fill="none" stroke="#63b8ff" points="262.42,-118.06 255.58,-115.78 255.05,-108.59 261.89,-110.87 262.42,-118.06"/>
</a>
</g>
<text text-anchor="middle" x="300.38" y="-128.5" font-family="Helvetica,sans-Serif" font-size="10.00" fill="grey"> +botlogger</text>
</g>
<!-- Node7 -->
<g id="Node000007" class="node">
<title>Node7</title>
<g id="a_Node000007"><a xlink:href="a00628.html" target="_top" xlink:title=" ">
<polygon fill="white" stroke="none" points="440.5,-1212 303.5,-1212 303.5,-828 440.5,-828 440.5,-1212"/>
<text text-anchor="start" x="315.38" y="-1198.5" font-family="Helvetica,sans-Serif" font-size="10.00">MiraiCP::Logger_interface</text>
<text text-anchor="start" x="370.5" y="-1182.5" font-family="Helvetica,sans-Serif" font-size="10.00"> </text>
<text text-anchor="start" x="307.5" y="-1166.5" font-family="Helvetica,sans-Serif" font-size="10.00">+</text>
<text text-anchor="start" x="317.5" y="-1166.5" font-family="Helvetica,sans-Serif" font-size="10.00">void info(T &amp;&amp;...val)</text>
<text text-anchor="start" x="307.5" y="-1150.5" font-family="Helvetica,sans-Serif" font-size="10.00">+</text>
<text text-anchor="start" x="317.5" y="-1150.5" font-family="Helvetica,sans-Serif" font-size="10.00">void warning(T &amp;&amp;...val)</text>
<text text-anchor="start" x="307.5" y="-1134.5" font-family="Helvetica,sans-Serif" font-size="10.00">+</text>
<text text-anchor="start" x="317.5" y="-1134.5" font-family="Helvetica,sans-Serif" font-size="10.00">void error(T &amp;&amp;...val)</text>
<text text-anchor="start" x="307.5" y="-1118.5" font-family="Helvetica,sans-Serif" font-size="10.00">+</text>
<text text-anchor="start" x="317.5" y="-1118.5" font-family="Helvetica,sans-Serif" font-size="10.00">void registerHandle</text>
<text text-anchor="start" x="317.5" y="-1106.5" font-family="Helvetica,sans-Serif" font-size="10.00">(Action action)</text>
<text text-anchor="start" x="307.5" y="-1090.5" font-family="Helvetica,sans-Serif" font-size="10.00">+</text>
<text text-anchor="start" x="317.5" y="-1090.5" font-family="Helvetica,sans-Serif" font-size="10.00">void setHandleState</text>
<text text-anchor="start" x="317.5" y="-1078.5" font-family="Helvetica,sans-Serif" font-size="10.00">(bool state)</text>
<text text-anchor="start" x="307.88" y="-1062.5" font-family="Helvetica,sans-Serif" font-size="10.00">#</text>
<text text-anchor="start" x="317.5" y="-1062.5" font-family="Helvetica,sans-Serif" font-size="10.00">virtual void log_interface</text>
<text text-anchor="start" x="317.5" y="-1050.5" font-family="Helvetica,sans-Serif" font-size="10.00">(const string &amp;log, int</text>
<text text-anchor="start" x="317.5" y="-1038.5" font-family="Helvetica,sans-Serif" font-size="10.00"> level)=0</text>
<text text-anchor="start" x="307.88" y="-1022.5" font-family="Helvetica,sans-Serif" font-size="10.00">#</text>
<text text-anchor="start" x="317.5" y="-1022.5" font-family="Helvetica,sans-Serif" font-size="10.00">void handler_trigger</text>
<text text-anchor="start" x="317.5" y="-1010.5" font-family="Helvetica,sans-Serif" font-size="10.00">(string log, int level)</text>
<text text-anchor="start" x="309" y="-994.5" font-family="Helvetica,sans-Serif" font-size="10.00">&#45;</text>
<text text-anchor="start" x="317.5" y="-994.5" font-family="Helvetica,sans-Serif" font-size="10.00">void create_loggerhandler()</text>
<text text-anchor="start" x="309" y="-978.5" font-family="Helvetica,sans-Serif" font-size="10.00">&#45;</text>
<text text-anchor="start" x="317.5" y="-978.5" font-family="Helvetica,sans-Serif" font-size="10.00">static std::string</text>
<text text-anchor="start" x="317.5" y="-966.5" font-family="Helvetica,sans-Serif" font-size="10.00"> constructString()</text>
<text text-anchor="start" x="309" y="-950.5" font-family="Helvetica,sans-Serif" font-size="10.00">&#45;</text>
<text text-anchor="start" x="317.5" y="-950.5" font-family="Helvetica,sans-Serif" font-size="10.00">static std::string</text>
<text text-anchor="start" x="317.5" y="-938.5" font-family="Helvetica,sans-Serif" font-size="10.00"> constructString(T &amp;&amp;val,</text>
<text text-anchor="start" x="317.5" y="-926.5" font-family="Helvetica,sans-Serif" font-size="10.00"> T1 &amp;&amp;...val1)</text>
<text text-anchor="start" x="309" y="-910.5" font-family="Helvetica,sans-Serif" font-size="10.00">&#45;</text>
<text text-anchor="start" x="317.5" y="-910.5" font-family="Helvetica,sans-Serif" font-size="10.00">static std::string</text>
<text text-anchor="start" x="317.5" y="-898.5" font-family="Helvetica,sans-Serif" font-size="10.00"> constructString(const</text>
<text text-anchor="start" x="317.5" y="-886.5" font-family="Helvetica,sans-Serif" font-size="10.00"> std::string &amp;a, T &amp;&amp;...val1)</text>
<text text-anchor="start" x="309" y="-870.5" font-family="Helvetica,sans-Serif" font-size="10.00">&#45;</text>
<text text-anchor="start" x="317.5" y="-870.5" font-family="Helvetica,sans-Serif" font-size="10.00">static std::string</text>
<text text-anchor="start" x="317.5" y="-858.5" font-family="Helvetica,sans-Serif" font-size="10.00"> constructString(const</text>
<text text-anchor="start" x="317.5" y="-846.5" font-family="Helvetica,sans-Serif" font-size="10.00"> MiraiCodeable &amp;val, T</text>
<text text-anchor="start" x="317.5" y="-834.5" font-family="Helvetica,sans-Serif" font-size="10.00"> &amp;&amp;...val1)</text>
<polygon fill="#666666" stroke="#666666" points="303.5,-1194 303.5,-1194 440.5,-1194 440.5,-1194 303.5,-1194"/>
<polygon fill="#666666" stroke="#666666" points="303.5,-1178 303.5,-1178 440.5,-1178 440.5,-1178 303.5,-1178"/>
<polygon fill="none" stroke="#666666" points="303.5,-828 303.5,-1212 440.5,-1212 440.5,-828 303.5,-828"/>
</a>
</g>
</g>
<!-- Node7&#45;&gt;Node6 -->
<g id="edge6_Node000006_Node000007" class="edge">
<title>Node7&#45;&gt;Node6</title>
<g id="a_edge6_Node000006_Node000007"><a xlink:title=" ">
<path fill="none" stroke="#63b8ff" d="M372,-817.07C372,-666.77 372,-472.58 372,-381.88"/>
<polygon fill="none" stroke="#63b8ff" points="368.5,-816.75 372,-826.75 375.5,-816.75 368.5,-816.75"/>
</a>
</g>
</g>
<!-- Node8 -->
<g id="Node000008" class="node">
<title>Node8</title>
<g id="a_Node000008"><a xlink:title=" ">
<polygon fill="white" stroke="none" points="422,-1612 322,-1612 322,-1536 422,-1536 422,-1612"/>
<text text-anchor="start" x="327" y="-1598.5" font-family="Helvetica,sans-Serif" font-size="10.00">shared_ptr&lt; MiraiCP</text>
<text text-anchor="start" x="327" y="-1586.5" font-family="Helvetica,sans-Serif" font-size="10.00">::Logger_interface::</text>
<text text-anchor="start" x="350.62" y="-1574.5" font-family="Helvetica,sans-Serif" font-size="10.00">Handler &gt;</text>
<text text-anchor="start" x="370.5" y="-1558.5" font-family="Helvetica,sans-Serif" font-size="10.00"> </text>
<text text-anchor="start" x="370.5" y="-1542.5" font-family="Helvetica,sans-Serif" font-size="10.00"> </text>
<polygon fill="#666666" stroke="#666666" points="322,-1570 322,-1570 422,-1570 422,-1570 322,-1570"/>
<polygon fill="#666666" stroke="#666666" points="322,-1554 322,-1554 422,-1554 422,-1554 322,-1554"/>
<polygon fill="none" stroke="#666666" points="322,-1536 322,-1612 422,-1612 422,-1536 322,-1536"/>
</a>
</g>
</g>
<!-- Node8&#45;&gt;Node7 -->
<g id="edge7_Node000007_Node000008" class="edge">
<title>Node8&#45;&gt;Node7</title>
<g id="a_edge7_Node000007_Node000008"><a xlink:title=" ">
<path fill="none" stroke="#63b8ff" d="M372,-1536.35C372,-1473.28 372,-1339.87 372,-1224.59"/>
<polygon fill="none" stroke="#63b8ff" points="372,-1224.6 368,-1218.6 372,-1212.6 376,-1218.6 372,-1224.6"/>
</a>
</g>
<text text-anchor="middle" x="405.38" y="-1508.5" font-family="Helvetica,sans-Serif" font-size="10.00" fill="grey"> +loggerhandler</text>
</g>
<!-- Node9 -->
<g id="Node000009" class="node">
<title>Node9</title>
<g id="a_Node000009"><a xlink:title=" ">
<polygon fill="white" stroke="none" points="549.5,-1046 458.5,-1046 458.5,-994 549.5,-994 549.5,-1046"/>
<text text-anchor="start" x="463.5" y="-1032.5" font-family="Helvetica,sans-Serif" font-size="10.00">unsigned long long</text>
<text text-anchor="start" x="502.5" y="-1016.5" font-family="Helvetica,sans-Serif" font-size="10.00"> </text>
<text text-anchor="start" x="502.5" y="-1000.5" font-family="Helvetica,sans-Serif" font-size="10.00"> </text>
<polygon fill="#666666" stroke="#666666" points="458.5,-1028 458.5,-1028 549.5,-1028 549.5,-1028 458.5,-1028"/>
<polygon fill="#666666" stroke="#666666" points="458.5,-1012 458.5,-1012 549.5,-1012 549.5,-1012 458.5,-1012"/>
<polygon fill="none" stroke="#666666" points="458.5,-994 458.5,-1046 549.5,-1046 549.5,-994 458.5,-994"/>
</a>
</g>
</g>
<!-- Node9&#45;&gt;Node6 -->
<g id="edge8_Node000006_Node000009" class="edge">
<title>Node9&#45;&gt;Node6</title>
<g id="a_edge8_Node000006_Node000009"><a xlink:title=" ">
<path fill="none" stroke="#63b8ff" d="M502.98,-994.12C499.68,-923.82 487.23,-718.07 449,-552 436.42,-497.35 415.02,-437.39 397.97,-393.73"/>
<polygon fill="none" stroke="#63b8ff" points="398.03,-393.86 392.1,-389.75 393.62,-382.7 399.54,-386.81 398.03,-393.86"/>
</a>
</g>
<text text-anchor="middle" x="453.25" y="-524.5" font-family="Helvetica,sans-Serif" font-size="10.00" fill="grey"> +id</text>
</g>
</g>
</svg>
