<?xml version="1.0" encoding="UTF-8" standalone="no"?>
<!DOCTYPE svg PUBLIC "-//W3C//DTD SVG 1.1//EN"
 "http://www.w3.org/Graphics/SVG/1.1/DTD/svg11.dtd">
<!-- Generated by graphviz version 9.0.0 (0)
 -->
<!-- Title: MiraiCP::CPPPlugin Pages: 1 -->
<svg width="200pt" height="627pt"
 viewBox="0.00 0.00 200.00 627.00" xmlns="http://www.w3.org/2000/svg" xmlns:xlink="http://www.w3.org/1999/xlink">
<g id="graph0" class="graph" transform="scale(1 1) rotate(0) translate(4 623)">
<title>MiraiCP::CPPPlugin</title>
<!-- Node1 -->
<g id="Node000001" class="node">
<title>Node1</title>
<g id="a_Node000001"><a xlink:title="插件父类">
<polygon fill="#999999" stroke="none" points="192,-619 0,-619 0,-424 192,-424 192,-619"/>
<text text-anchor="start" x="51.38" y="-605.5" font-family="Helvetica,sans-Serif" font-size="10.00">MiraiCP::CPPPlugin</text>
<text text-anchor="start" x="4" y="-589.5" font-family="Helvetica,sans-Serif" font-size="10.00">+</text>
<text text-anchor="start" x="14" y="-589.5" font-family="Helvetica,sans-Serif" font-size="10.00">static const PluginConfig</text>
<text text-anchor="start" x="14" y="-577.5" font-family="Helvetica,sans-Serif" font-size="10.00"> config</text>
<text text-anchor="start" x="4" y="-561.5" font-family="Helvetica,sans-Serif" font-size="10.00">+</text>
<text text-anchor="start" x="14" y="-561.5" font-family="Helvetica,sans-Serif" font-size="10.00">static std::unique</text>
<text text-anchor="start" x="14" y="-549.5" font-family="Helvetica,sans-Serif" font-size="10.00">_ptr&lt; CPPPlugin &gt; plugin</text>
<text text-anchor="start" x="4" y="-533.5" font-family="Helvetica,sans-Serif" font-size="10.00">+</text>
<text text-anchor="start" x="14" y="-533.5" font-family="Helvetica,sans-Serif" font-size="10.00">ShouldNotUse(&quot;请改为初始化静态常量</text>
<text text-anchor="start" x="14" y="-521.5" font-family="Helvetica,sans-Serif" font-size="10.00"> CPPPlugin::config&quot;) explicit CPPPlugin</text>
<text text-anchor="start" x="14" y="-509.5" font-family="Helvetica,sans-Serif" font-size="10.00">(const PluginConfig &amp;)</text>
<text text-anchor="start" x="4" y="-490.5" font-family="Helvetica,sans-Serif" font-size="10.00">+</text>
<text text-anchor="start" x="14" y="-490.5" font-family="Helvetica,sans-Serif" font-size="10.00">CPPPlugin()=default</text>
<text text-anchor="start" x="4" y="-474.5" font-family="Helvetica,sans-Serif" font-size="10.00">+</text>
<text text-anchor="start" x="14" y="-474.5" font-family="Helvetica,sans-Serif" font-size="10.00">virtual ~CPPPlugin</text>
<text text-anchor="start" x="14" y="-462.5" font-family="Helvetica,sans-Serif" font-size="10.00">()=default</text>
<text text-anchor="start" x="4" y="-446.5" font-family="Helvetica,sans-Serif" font-size="10.00">+</text>
<text text-anchor="start" x="14" y="-446.5" font-family="Helvetica,sans-Serif" font-size="10.00">virtual void onEnable()</text>
<text text-anchor="start" x="4" y="-430.5" font-family="Helvetica,sans-Serif" font-size="10.00">+</text>
<text text-anchor="start" x="14" y="-430.5" font-family="Helvetica,sans-Serif" font-size="10.00">virtual void onDisable()</text>
<polygon fill="#666666" stroke="#666666" points="0,-601 0,-601 192,-601 192,-601 0,-601"/>
<polygon fill="#666666" stroke="#666666" points="0,-545 0,-545 12,-545 12,-545 0,-545"/>
<polygon fill="#666666" stroke="#666666" points="12,-545 12,-545 192,-545 192,-545 12,-545"/>
<polygon fill="none" stroke="#666666" points="0,-424 0,-619 192,-619 192,-424 0,-424"/>
</a>
</g>
</g>
<!-- Node2 -->
<g id="Node000002" class="node">
<title>Node2</title>
<g id="a_Node000002"><a xlink:title=" ">
<polygon fill="white" stroke="none" points="157.5,-388 34.5,-388 34.5,0 157.5,0 157.5,-388"/>
<text text-anchor="start" x="85.5" y="-374.5" font-family="Helvetica,sans-Serif" font-size="10.00">Main</text>
<text text-anchor="start" x="94.5" y="-358.5" font-family="Helvetica,sans-Serif" font-size="10.00"> </text>
<text text-anchor="start" x="38.5" y="-342.5" font-family="Helvetica,sans-Serif" font-size="10.00">+</text>
<text text-anchor="start" x="48.5" y="-342.5" font-family="Helvetica,sans-Serif" font-size="10.00">Main()</text>
<text text-anchor="start" x="38.5" y="-326.5" font-family="Helvetica,sans-Serif" font-size="10.00">+</text>
<text text-anchor="start" x="48.5" y="-326.5" font-family="Helvetica,sans-Serif" font-size="10.00">void onEnable() override</text>
<text text-anchor="start" x="38.5" y="-310.5" font-family="Helvetica,sans-Serif" font-size="10.00">+</text>
<text text-anchor="start" x="48.5" y="-310.5" font-family="Helvetica,sans-Serif" font-size="10.00">Main()</text>
<text text-anchor="start" x="38.5" y="-294.5" font-family="Helvetica,sans-Serif" font-size="10.00">+</text>
<text text-anchor="start" x="48.5" y="-294.5" font-family="Helvetica,sans-Serif" font-size="10.00">void onEnable() override</text>
<text text-anchor="start" x="38.5" y="-278.5" font-family="Helvetica,sans-Serif" font-size="10.00">+</text>
<text text-anchor="start" x="48.5" y="-278.5" font-family="Helvetica,sans-Serif" font-size="10.00">Main()</text>
<text text-anchor="start" x="38.5" y="-262.5" font-family="Helvetica,sans-Serif" font-size="10.00">+</text>
<text text-anchor="start" x="48.5" y="-262.5" font-family="Helvetica,sans-Serif" font-size="10.00">void onEnable() override</text>
<text text-anchor="start" x="38.5" y="-246.5" font-family="Helvetica,sans-Serif" font-size="10.00">+</text>
<text text-anchor="start" x="48.5" y="-246.5" font-family="Helvetica,sans-Serif" font-size="10.00">Main()</text>
<text text-anchor="start" x="38.5" y="-230.5" font-family="Helvetica,sans-Serif" font-size="10.00">+</text>
<text text-anchor="start" x="48.5" y="-230.5" font-family="Helvetica,sans-Serif" font-size="10.00">void onEnable() override</text>
<text text-anchor="start" x="38.5" y="-214.5" font-family="Helvetica,sans-Serif" font-size="10.00">+</text>
<text text-anchor="start" x="48.5" y="-214.5" font-family="Helvetica,sans-Serif" font-size="10.00">Main()</text>
<text text-anchor="start" x="38.5" y="-198.5" font-family="Helvetica,sans-Serif" font-size="10.00">+</text>
<text text-anchor="start" x="48.5" y="-198.5" font-family="Helvetica,sans-Serif" font-size="10.00">void onEnable() override</text>
<text text-anchor="start" x="38.5" y="-182.5" font-family="Helvetica,sans-Serif" font-size="10.00">+</text>
<text text-anchor="start" x="48.5" y="-182.5" font-family="Helvetica,sans-Serif" font-size="10.00">Main()</text>
<text text-anchor="start" x="38.5" y="-166.5" font-family="Helvetica,sans-Serif" font-size="10.00">+</text>
<text text-anchor="start" x="48.5" y="-166.5" font-family="Helvetica,sans-Serif" font-size="10.00">void onEnable() override</text>
<text text-anchor="start" x="38.5" y="-150.5" font-family="Helvetica,sans-Serif" font-size="10.00">+</text>
<text text-anchor="start" x="48.5" y="-150.5" font-family="Helvetica,sans-Serif" font-size="10.00">Main()</text>
<text text-anchor="start" x="38.5" y="-134.5" font-family="Helvetica,sans-Serif" font-size="10.00">+</text>
<text text-anchor="start" x="48.5" y="-134.5" font-family="Helvetica,sans-Serif" font-size="10.00">void onEnable() override</text>
<text text-anchor="start" x="38.5" y="-118.5" font-family="Helvetica,sans-Serif" font-size="10.00">+</text>
<text text-anchor="start" x="48.5" y="-118.5" font-family="Helvetica,sans-Serif" font-size="10.00">Main()</text>
<text text-anchor="start" x="38.5" y="-102.5" font-family="Helvetica,sans-Serif" font-size="10.00">+</text>
<text text-anchor="start" x="48.5" y="-102.5" font-family="Helvetica,sans-Serif" font-size="10.00">void onEnable() override</text>
<text text-anchor="start" x="38.5" y="-86.5" font-family="Helvetica,sans-Serif" font-size="10.00">+</text>
<text text-anchor="start" x="48.5" y="-86.5" font-family="Helvetica,sans-Serif" font-size="10.00">Main()</text>
<text text-anchor="start" x="38.5" y="-70.5" font-family="Helvetica,sans-Serif" font-size="10.00">+</text>
<text text-anchor="start" x="48.5" y="-70.5" font-family="Helvetica,sans-Serif" font-size="10.00">void onEnable() override</text>
<text text-anchor="start" x="38.5" y="-54.5" font-family="Helvetica,sans-Serif" font-size="10.00">+</text>
<text text-anchor="start" x="48.5" y="-54.5" font-family="Helvetica,sans-Serif" font-size="10.00">Main()</text>
<text text-anchor="start" x="38.5" y="-38.5" font-family="Helvetica,sans-Serif" font-size="10.00">+</text>
<text text-anchor="start" x="48.5" y="-38.5" font-family="Helvetica,sans-Serif" font-size="10.00">void onEnable() override</text>
<text text-anchor="start" x="38.5" y="-22.5" font-family="Helvetica,sans-Serif" font-size="10.00">+</text>
<text text-anchor="start" x="48.5" y="-22.5" font-family="Helvetica,sans-Serif" font-size="10.00">Main()</text>
<text text-anchor="start" x="38.5" y="-6.5" font-family="Helvetica,sans-Serif" font-size="10.00">+</text>
<text text-anchor="start" x="48.5" y="-6.5" font-family="Helvetica,sans-Serif" font-size="10.00">void onEnable() override</text>
<polygon fill="#666666" stroke="#666666" points="34.5,-370 34.5,-370 157.5,-370 157.5,-370 34.5,-370"/>
<polygon fill="#666666" stroke="#666666" points="34.5,-354 34.5,-354 157.5,-354 157.5,-354 34.5,-354"/>
<polygon fill="none" stroke="#666666" points="34.5,0 34.5,-388 157.5,-388 157.5,0 34.5,0"/>
</a>
</g>
</g>
<!-- Node1&#45;&gt;Node2 -->
<g id="edge1_Node000001_Node000002" class="edge">
<title>Node1&#45;&gt;Node2</title>
<g id="a_edge1_Node000001_Node000002"><a xlink:title=" ">
<path fill="none" stroke="#63b8ff" d="M32.06,-412.81C26.6,-372.06 27.42,-326.08 34.54,-286.9"/>
<polygon fill="none" stroke="#63b8ff" points="28.59,-413.3 33.54,-422.66 35.51,-412.25 28.59,-413.3"/>
</a>
</g>
</g>
<!-- Node1&#45;&gt;Node2 -->
<g id="edge2_Node000001_Node000002" class="edge">
<title>Node1&#45;&gt;Node2</title>
<g id="a_edge2_Node000001_Node000002"><a xlink:title=" ">
<path fill="none" stroke="#63b8ff" d="M44.85,-412.83C43.98,-404.72 43.31,-396.39 42.84,-387.96"/>
<polygon fill="none" stroke="#63b8ff" points="41.36,-413.15 46.03,-422.66 48.31,-412.31 41.36,-413.15"/>
</a>
</g>
</g>
<!-- Node1&#45;&gt;Node2 -->
<g id="edge3_Node000001_Node000002" class="edge">
<title>Node1&#45;&gt;Node2</title>
<g id="a_edge3_Node000001_Node000002"><a xlink:title=" ">
<path fill="none" stroke="#63b8ff" d="M57.64,-412.83C56.98,-404.72 56.48,-396.39 56.13,-387.96"/>
<polygon fill="none" stroke="#63b8ff" points="54.14,-413.01 58.52,-422.65 61.11,-412.38 54.14,-413.01"/>
</a>
</g>
</g>
<!-- Node1&#45;&gt;Node2 -->
<g id="edge4_Node000001_Node000002" class="edge">
<title>Node1&#45;&gt;Node2</title>
<g id="a_edge4_Node000001_Node000002"><a xlink:title=" ">
<path fill="none" stroke="#63b8ff" d="M70.42,-412.83C69.99,-404.72 69.65,-396.39 69.42,-387.96"/>
<polygon fill="none" stroke="#63b8ff" points="66.92,-412.88 71.02,-422.65 73.91,-412.46 66.92,-412.88"/>
</a>
</g>
</g>
<!-- Node1&#45;&gt;Node2 -->
<g id="edge5_Node000001_Node000002" class="edge">
<title>Node1&#45;&gt;Node2</title>
<g id="a_edge5_Node000001_Node000002"><a xlink:title=" ">
<path fill="none" stroke="#63b8ff" d="M83.21,-412.83C82.99,-404.72 82.83,-396.39 82.71,-387.96"/>
<polygon fill="none" stroke="#63b8ff" points="79.71,-412.76 83.51,-422.65 86.7,-412.55 79.71,-412.76"/>
</a>
</g>
</g>
<!-- Node1&#45;&gt;Node2 -->
<g id="edge6_Node000001_Node000002" class="edge">
<title>Node1&#45;&gt;Node2</title>
<g id="a_edge6_Node000001_Node000002"><a xlink:title=" ">
<path fill="none" stroke="#63b8ff" d="M96,-412.83C96,-404.72 96,-396.39 96,-387.96"/>
<polygon fill="none" stroke="#63b8ff" points="92.5,-412.65 96,-422.65 99.5,-412.65 92.5,-412.65"/>
</a>
</g>
</g>
<!-- Node1&#45;&gt;Node2 -->
<g id="edge7_Node000001_Node000002" class="edge">
<title>Node1&#45;&gt;Node2</title>
<g id="a_edge7_Node000001_Node000002"><a xlink:title=" ">
<path fill="none" stroke="#63b8ff" d="M108.79,-412.83C109.01,-404.72 109.17,-396.39 109.29,-387.96"/>
<polygon fill="none" stroke="#63b8ff" points="105.3,-412.55 108.49,-422.65 112.29,-412.76 105.3,-412.55"/>
</a>
</g>
</g>
<!-- Node1&#45;&gt;Node2 -->
<g id="edge8_Node000001_Node000002" class="edge">
<title>Node1&#45;&gt;Node2</title>
<g id="a_edge8_Node000001_Node000002"><a xlink:title=" ">
<path fill="none" stroke="#63b8ff" d="M121.58,-412.83C122.01,-404.72 122.35,-396.39 122.58,-387.96"/>
<polygon fill="none" stroke="#63b8ff" points="118.09,-412.46 120.98,-422.65 125.08,-412.88 118.09,-412.46"/>
</a>
</g>
</g>
<!-- Node1&#45;&gt;Node2 -->
<g id="edge9_Node000001_Node000002" class="edge">
<title>Node1&#45;&gt;Node2</title>
<g id="a_edge9_Node000001_Node000002"><a xlink:title=" ">
<path fill="none" stroke="#63b8ff" d="M134.36,-412.83C135.02,-404.72 135.52,-396.39 135.87,-387.96"/>
<polygon fill="none" stroke="#63b8ff" points="130.89,-412.38 133.48,-422.65 137.86,-413.01 130.89,-412.38"/>
</a>
</g>
</g>
<!-- Node1&#45;&gt;Node2 -->
<g id="edge10_Node000001_Node000002" class="edge">
<title>Node1&#45;&gt;Node2</title>
<g id="a_edge10_Node000001_Node000002"><a xlink:title=" ">
<path fill="none" stroke="#63b8ff" d="M147.15,-412.83C148.02,-404.72 148.69,-396.39 149.16,-387.96"/>
<polygon fill="none" stroke="#63b8ff" points="143.69,-412.31 145.97,-422.66 150.64,-413.15 143.69,-412.31"/>
</a>
</g>
</g>
<!-- Node1&#45;&gt;Node2 -->
<g id="edge11_Node000001_Node000002" class="edge">
<title>Node1&#45;&gt;Node2</title>
<g id="a_edge11_Node000001_Node000002"><a xlink:title=" ">
<path fill="none" stroke="#63b8ff" d="M159.94,-412.81C165.4,-372.06 164.58,-326.08 157.46,-286.9"/>
<polygon fill="none" stroke="#63b8ff" points="156.49,-412.25 158.46,-422.66 163.41,-413.3 156.49,-412.25"/>
</a>
</g>
</g>
</g>
</svg>
