<?xml version="1.0" encoding="UTF-8" standalone="no"?>
<!DOCTYPE svg PUBLIC "-//W3C//DTD SVG 1.1//EN"
 "http://www.w3.org/Graphics/SVG/1.1/DTD/svg11.dtd">
<!-- Generated by graphviz version 9.0.0 (0)
 -->
<!-- Title: MiraiCP::Bot::getFriendList Pages: 1 -->
<svg width="1792pt" height="220pt"
 viewBox="0.00 0.00 1791.50 220.17" xmlns="http://www.w3.org/2000/svg" xmlns:xlink="http://www.w3.org/1999/xlink">
<g id="graph0" class="graph" transform="scale(1 1) rotate(0) translate(4 216.17)">
<title>MiraiCP::Bot::getFriendList</title>
<!-- Node1 -->
<g id="Node000001" class="node">
<title>Node1</title>
<g id="a_Node000001"><a xlink:title="取好友列表">
<polygon fill="#999999" stroke="#666666" points="134.5,-99.17 0,-99.17 0,-79.17 134.5,-79.17 134.5,-99.17"/>
<text text-anchor="middle" x="67.25" y="-85.67" font-family="Helvetica,sans-Serif" font-size="10.00">MiraiCP::Bot::getFriendList</text>
</a>
</g>
</g>
<!-- Node2 -->
<g id="Node000002" class="node">
<title>Node2</title>
<g id="a_Node000002"><a xlink:href="a00412.html#af9ded1af6d3b5b7e3b556d52484d56b8" target="_top" xlink:title=" ">
<polygon fill="white" stroke="#666666" points="282.5,-118.17 185.5,-118.17 185.5,-98.17 282.5,-98.17 282.5,-118.17"/>
<text text-anchor="middle" x="234" y="-104.67" font-family="Helvetica,sans-Serif" font-size="10.00">MiraiCP::queryList</text>
</a>
</g>
</g>
<!-- Node1&#45;&gt;Node2 -->
<g id="edge1_Node000001_Node000002" class="edge">
<title>Node1&#45;&gt;Node2</title>
<g id="a_edge1_Node000001_Node000002"><a xlink:title=" ">
<path fill="none" stroke="#63b8ff" d="M134.79,-96.84C147.78,-98.34 161.31,-99.9 174.04,-101.37"/>
<polygon fill="#63b8ff" stroke="#63b8ff" points="173.62,-104.84 183.95,-102.51 174.42,-97.89 173.62,-104.84"/>
</a>
</g>
</g>
<!-- Node17 -->
<g id="Node000017" class="node">
<title>Node17</title>
<g id="a_Node000017"><a xlink:href="a00460.html#a89fb588a12ff2d4de10722788945ea55" target="_top" xlink:title="序列化到json对象">
<polygon fill="white" stroke="#666666" points="297.5,-80.17 170.5,-80.17 170.5,-60.17 297.5,-60.17 297.5,-80.17"/>
<text text-anchor="middle" x="234" y="-66.67" font-family="Helvetica,sans-Serif" font-size="10.00">MiraiCP::Contact::toJson</text>
</a>
</g>
</g>
<!-- Node1&#45;&gt;Node17 -->
<g id="edge20_Node000001_Node000017" class="edge">
<title>Node1&#45;&gt;Node17</title>
<g id="a_edge20_Node000001_Node000017"><a xlink:title=" ">
<path fill="none" stroke="#63b8ff" d="M134.79,-81.49C142.74,-80.58 150.89,-79.64 158.94,-78.71"/>
<polygon fill="#63b8ff" stroke="#63b8ff" points="159.18,-82.2 168.71,-77.58 158.38,-75.25 159.18,-82.2"/>
</a>
</g>
</g>
<!-- Node3 -->
<g id="Node000003" class="node">
<title>Node3</title>
<g id="a_Node000003"><a xlink:href="a00435.html#a309e8d7f316e8b5e947ea3bcddeb84a8" target="_top" xlink:title="调用 Mirai 操作">
<polygon fill="white" stroke="#666666" points="449.25,-149.17 340.25,-149.17 340.25,-117.17 449.25,-117.17 449.25,-149.17"/>
<text text-anchor="start" x="348.25" y="-135.67" font-family="Helvetica,sans-Serif" font-size="10.00">MiraiCP::KtOperation</text>
<text text-anchor="middle" x="394.75" y="-123.67" font-family="Helvetica,sans-Serif" font-size="10.00">::ktOperation</text>
</a>
</g>
</g>
<!-- Node2&#45;&gt;Node3 -->
<g id="edge2_Node000002_Node000003" class="edge">
<title>Node2&#45;&gt;Node3</title>
<g id="a_edge2_Node000002_Node000003"><a xlink:title=" ">
<path fill="none" stroke="#63b8ff" d="M282.63,-115.67C297.11,-117.95 313.27,-120.49 328.69,-122.92"/>
<polygon fill="#63b8ff" stroke="#63b8ff" points="327.84,-126.33 338.26,-124.43 328.92,-119.42 327.84,-126.33"/>
</a>
</g>
</g>
<!-- Node15 -->
<g id="Node000015" class="node">
<title>Node15</title>
<g id="a_Node000015"><a xlink:href="a00421.html#ab67b5a25139033a0e048a23f84b88b4d" target="_top" xlink:title="从string格式化到vector">
<polygon fill="white" stroke="#666666" points="456,-99.17 333.5,-99.17 333.5,-67.17 456,-67.17 456,-99.17"/>
<text text-anchor="start" x="341.5" y="-85.67" font-family="Helvetica,sans-Serif" font-size="10.00">MiraiCP::Tools::StringTo</text>
<text text-anchor="middle" x="394.75" y="-73.67" font-family="Helvetica,sans-Serif" font-size="10.00">Vector</text>
</a>
</g>
</g>
<!-- Node2&#45;&gt;Node15 -->
<g id="edge18_Node000002_Node000015" class="edge">
<title>Node2&#45;&gt;Node15</title>
<g id="a_edge18_Node000002_Node000015"><a xlink:title=" ">
<path fill="none" stroke="#63b8ff" d="M282.63,-100.67C295.05,-98.71 308.7,-96.56 322.06,-94.46"/>
<polygon fill="#63b8ff" stroke="#63b8ff" points="322.36,-97.95 331.69,-92.94 321.27,-91.04 322.36,-97.95"/>
</a>
</g>
</g>
<!-- Node4 -->
<g id="Node000004" class="node">
<title>Node4</title>
<g id="a_Node000004"><a xlink:href="a00435.html#a1e1e498928eeaa1d7107033ff5fa881a" target="_top" xlink:title="调用 Mirai 操作">
<polygon fill="white" stroke="#666666" points="601,-149.17 492,-149.17 492,-117.17 601,-117.17 601,-149.17"/>
<text text-anchor="start" x="500" y="-135.67" font-family="Helvetica,sans-Serif" font-size="10.00">MiraiCP::KtOperation</text>
<text text-anchor="middle" x="546.5" y="-123.67" font-family="Helvetica,sans-Serif" font-size="10.00">::ktOperationStr</text>
</a>
</g>
</g>
<!-- Node3&#45;&gt;Node4 -->
<g id="edge3_Node000003_Node000004" class="edge">
<title>Node3&#45;&gt;Node4</title>
<g id="a_edge3_Node000003_Node000004"><a xlink:title=" ">
<path fill="none" stroke="#63b8ff" d="M449.39,-133.17C459.39,-133.17 469.94,-133.17 480.25,-133.17"/>
<polygon fill="#63b8ff" stroke="#63b8ff" points="480.22,-136.67 490.22,-133.17 480.22,-129.67 480.22,-136.67"/>
</a>
</g>
</g>
<!-- Node5 -->
<g id="Node000005" class="node">
<title>Node5</title>
<g id="a_Node000005"><a xlink:href="a00426.html#a4c6ac4cf4ba5ff0adb7656708bbb67d0" target="_top" xlink:title="interfaces for plugins">
<polygon fill="white" stroke="#666666" points="744.5,-149.17 637,-149.17 637,-117.17 744.5,-117.17 744.5,-149.17"/>
<text text-anchor="start" x="645" y="-135.67" font-family="Helvetica,sans-Serif" font-size="10.00">LibLoader::LoaderApi</text>
<text text-anchor="middle" x="690.75" y="-123.67" font-family="Helvetica,sans-Serif" font-size="10.00">::pluginOperation</text>
</a>
</g>
</g>
<!-- Node4&#45;&gt;Node5 -->
<g id="edge4_Node000004_Node000005" class="edge">
<title>Node4&#45;&gt;Node5</title>
<g id="a_edge4_Node000004_Node000005"><a xlink:title=" ">
<path fill="none" stroke="#63b8ff" d="M601.28,-133.17C609.19,-133.17 617.41,-133.17 625.51,-133.17"/>
<polygon fill="#63b8ff" stroke="#63b8ff" points="625.32,-136.67 635.32,-133.17 625.32,-129.67 625.32,-136.67"/>
</a>
</g>
</g>
<!-- Node6 -->
<g id="Node000006" class="node">
<title>Node6</title>
<g id="a_Node000006"><a xlink:href="a00780.html#acc90fdac094544c4ddd9d6fd13baa5da" target="_top" xlink:title=" ">
<polygon fill="white" stroke="#666666" points="918.75,-212.17 780.5,-212.17 780.5,-180.17 918.75,-180.17 918.75,-212.17"/>
<text text-anchor="start" x="788.5" y="-198.67" font-family="Helvetica,sans-Serif" font-size="10.00">MiraiCP::MiraiCPStringview</text>
<text text-anchor="middle" x="849.62" y="-186.67" font-family="Helvetica,sans-Serif" font-size="10.00">::c_str</text>
</a>
</g>
</g>
<!-- Node5&#45;&gt;Node6 -->
<g id="edge5_Node000005_Node000006" class="edge">
<title>Node5&#45;&gt;Node6</title>
<g id="a_edge5_Node000005_Node000006"><a xlink:title=" ">
<path fill="none" stroke="#63b8ff" d="M732.56,-149.56C752.27,-157.47 776.14,-167.06 797.09,-175.47"/>
<polygon fill="#63b8ff" stroke="#63b8ff" points="795.76,-178.71 806.35,-179.19 798.37,-172.21 795.76,-178.71"/>
</a>
</g>
</g>
<!-- Node7 -->
<g id="Node000007" class="node">
<title>Node7</title>
<g id="a_Node000007"><a xlink:href="a00840.html#aea7d58ff9f04d6d4849c25a2506603a5" target="_top" xlink:title="取env,如果不存在重新获取">
<polygon fill="white" stroke="#666666" points="1533.25,-124.17 1410,-124.17 1410,-104.17 1533.25,-104.17 1533.25,-124.17"/>
<text text-anchor="middle" x="1471.62" y="-110.67" font-family="Helvetica,sans-Serif" font-size="10.00">JNIEnvManager::getEnv</text>
</a>
</g>
</g>
<!-- Node5&#45;&gt;Node7 -->
<g id="edge6_Node000005_Node000007" class="edge">
<title>Node5&#45;&gt;Node7</title>
<g id="a_edge6_Node000005_Node000007"><a xlink:title=" ">
<path fill="none" stroke="#63b8ff" d="M744.89,-138.21C808.9,-143.84 919.71,-152.17 1015,-152.17 1015,-152.17 1015,-152.17 1175.5,-152.17 1256.79,-152.17 1349.65,-137.81 1409.15,-126.75"/>
<polygon fill="#63b8ff" stroke="#63b8ff" points="1409.56,-130.23 1418.74,-124.93 1408.26,-123.35 1409.56,-130.23"/>
</a>
</g>
</g>
<!-- Node10 -->
<g id="Node000010" class="node">
<title>Node10</title>
<g id="a_Node000010"><a xlink:href="a00425.html#aa5f8d0ecd9dd392b491070aace643ae3" target="_top" xlink:title=" ">
<polygon fill="white" stroke="#666666" points="1069.38,-124.17 962.62,-124.17 962.62,-104.17 1069.38,-104.17 1069.38,-124.17"/>
<text text-anchor="middle" x="1016" y="-110.67" font-family="Helvetica,sans-Serif" font-size="10.00">LibLoader::jstring2str</text>
</a>
</g>
</g>
<!-- Node5&#45;&gt;Node10 -->
<g id="edge9_Node000005_Node000010" class="edge">
<title>Node5&#45;&gt;Node10</title>
<g id="a_edge9_Node000005_Node000010"><a xlink:title=" ">
<path fill="none" stroke="#63b8ff" d="M744.77,-130.05C801.22,-126.73 890.58,-121.48 950.93,-117.93"/>
<polygon fill="#63b8ff" stroke="#63b8ff" points="950.94,-121.44 960.71,-117.36 950.52,-114.45 950.94,-121.44"/>
</a>
</g>
</g>
<!-- Node12 -->
<g id="Node000012" class="node">
<title>Node12</title>
<g id="a_Node000012"><a xlink:href="a00425.html#a6a6fcd695791253a9b3a053d313b2b93" target="_top" xlink:title=" ">
<polygon fill="white" stroke="#666666" points="903,-64.17 796.25,-64.17 796.25,-44.17 903,-44.17 903,-64.17"/>
<text text-anchor="middle" x="849.62" y="-50.67" font-family="Helvetica,sans-Serif" font-size="10.00">LibLoader::str2jstring</text>
</a>
</g>
</g>
<!-- Node5&#45;&gt;Node12 -->
<g id="edge12_Node000005_Node000012" class="edge">
<title>Node5&#45;&gt;Node12</title>
<g id="a_edge12_Node000005_Node000012"><a xlink:title=" ">
<path fill="none" stroke="#63b8ff" d="M724.25,-116.8C751.83,-102.91 791.09,-83.14 818.09,-69.55"/>
<polygon fill="#63b8ff" stroke="#63b8ff" points="819.42,-72.79 826.78,-65.17 816.27,-66.54 819.42,-72.79"/>
</a>
</g>
</g>
<!-- Node8 -->
<g id="Node000008" class="node">
<title>Node8</title>
<g id="a_Node000008"><a xlink:href="a00260.html#a3d31403b7971274d47d308245206bd24" target="_top" xlink:title="为当前线程创建一个env.">
<polygon fill="white" stroke="#666666" points="1620.5,-124.17 1569.25,-124.17 1569.25,-104.17 1620.5,-104.17 1620.5,-124.17"/>
<text text-anchor="middle" x="1594.88" y="-110.67" font-family="Helvetica,sans-Serif" font-size="10.00">newEnv</text>
</a>
</g>
</g>
<!-- Node7&#45;&gt;Node8 -->
<g id="edge7_Node000007_Node000008" class="edge">
<title>Node7&#45;&gt;Node8</title>
<g id="a_edge7_Node000007_Node000008"><a xlink:title=" ">
<path fill="none" stroke="#63b8ff" d="M1533.61,-114.17C1541.81,-114.17 1550.01,-114.17 1557.59,-114.17"/>
<polygon fill="#63b8ff" stroke="#63b8ff" points="1557.41,-117.67 1567.41,-114.17 1557.41,-110.67 1557.41,-117.67"/>
</a>
</g>
</g>
<!-- Node9 -->
<g id="Node000009" class="node">
<title>Node9</title>
<g id="a_Node000009"><a xlink:href="a00840.html#ae0e482c6a813848a8f5d34957d1b6307" target="_top" xlink:title="获取全局JavaVM对象.">
<polygon fill="white" stroke="#666666" points="1783.5,-124.17 1656.5,-124.17 1656.5,-104.17 1783.5,-104.17 1783.5,-124.17"/>
<text text-anchor="middle" x="1720" y="-110.67" font-family="Helvetica,sans-Serif" font-size="10.00">JNIEnvManager::getGvm</text>
</a>
</g>
</g>
<!-- Node8&#45;&gt;Node9 -->
<g id="edge8_Node000008_Node000009" class="edge">
<title>Node8&#45;&gt;Node9</title>
<g id="a_edge8_Node000008_Node000009"><a xlink:title=" ">
<path fill="none" stroke="#63b8ff" d="M1620.79,-114.17C1627.97,-114.17 1636.2,-114.17 1644.77,-114.17"/>
<polygon fill="#63b8ff" stroke="#63b8ff" points="1644.66,-117.67 1654.66,-114.17 1644.66,-110.67 1644.66,-117.67"/>
</a>
</g>
</g>
<!-- Node11 -->
<g id="Node000011" class="node">
<title>Node11</title>
<g id="a_Node000011"><a xlink:href="a00430.html#a076c5f4ff8083c7cfc6523498d0ba30f" target="_top" xlink:title=" ">
<polygon fill="white" stroke="#666666" points="1374,-108.17 1271.75,-108.17 1271.75,-76.17 1374,-76.17 1374,-108.17"/>
<text text-anchor="start" x="1279.75" y="-94.67" font-family="Helvetica,sans-Serif" font-size="10.00">LibLoader::JNIEnvs</text>
<text text-anchor="middle" x="1322.88" y="-82.67" font-family="Helvetica,sans-Serif" font-size="10.00">::getEnv</text>
</a>
</g>
</g>
<!-- Node10&#45;&gt;Node11 -->
<g id="edge10_Node000010_Node000011" class="edge">
<title>Node10&#45;&gt;Node11</title>
<g id="a_edge10_Node000010_Node000011"><a xlink:title=" ">
<path fill="none" stroke="#63b8ff" d="M1069.76,-110.36C1122.69,-106.54 1204.19,-100.66 1260.11,-96.63"/>
<polygon fill="#63b8ff" stroke="#63b8ff" points="1260.05,-100.14 1269.77,-95.93 1259.55,-93.16 1260.05,-100.14"/>
</a>
</g>
</g>
<!-- Node11&#45;&gt;Node7 -->
<g id="edge11_Node000011_Node000007" class="edge">
<title>Node11&#45;&gt;Node7</title>
<g id="a_edge11_Node000011_Node000007"><a xlink:title=" ">
<path fill="none" stroke="#63b8ff" d="M1374.38,-99.74C1382.1,-100.9 1390.19,-102.11 1398.27,-103.32"/>
<polygon fill="#63b8ff" stroke="#63b8ff" points="1397.74,-106.78 1408.15,-104.8 1398.78,-99.86 1397.74,-106.78"/>
</a>
</g>
</g>
<!-- Node12&#45;&gt;Node11 -->
<g id="edge13_Node000012_Node000011" class="edge">
<title>Node12&#45;&gt;Node11</title>
<g id="a_edge13_Node000012_Node000011"><a xlink:title=" ">
<path fill="none" stroke="#63b8ff" d="M903.31,-58.42C991.04,-65.49 1166.62,-79.65 1260.06,-87.18"/>
<polygon fill="#63b8ff" stroke="#63b8ff" points="1259.55,-90.65 1269.8,-87.97 1260.12,-83.68 1259.55,-90.65"/>
</a>
</g>
</g>
<!-- Node13 -->
<g id="Node000013" class="node">
<title>Node13</title>
<g id="a_Node000013"><a xlink:href="a00872.html#af50d0545fe7d683e54fcd03453a423e3" target="_top" xlink:title=" ">
<polygon fill="white" stroke="#666666" points="1077.25,-48.17 954.75,-48.17 954.75,-16.17 1077.25,-16.17 1077.25,-48.17"/>
<text text-anchor="start" x="962.75" y="-34.67" font-family="Helvetica,sans-Serif" font-size="10.00">LibLoader::LoaderLogger</text>
<text text-anchor="middle" x="1016" y="-22.67" font-family="Helvetica,sans-Serif" font-size="10.00">::warning</text>
</a>
</g>
</g>
<!-- Node12&#45;&gt;Node13 -->
<g id="edge14_Node000012_Node000013" class="edge">
<title>Node12&#45;&gt;Node13</title>
<g id="a_edge14_Node000012_Node000013"><a xlink:title=" ">
<path fill="none" stroke="#63b8ff" d="M903.09,-47.15C915.86,-45.44 929.74,-43.58 943.24,-41.77"/>
<polygon fill="#63b8ff" stroke="#63b8ff" points="943.5,-45.27 952.95,-40.47 942.58,-38.33 943.5,-45.27"/>
</a>
</g>
</g>
<!-- Node14 -->
<g id="Node000014" class="node">
<title>Node14</title>
<g id="a_Node000014"><a xlink:href="a00872.html#af4d7d5164450e25f7401d1cc15f15b8d" target="_top" xlink:title="实际暴露的接口">
<polygon fill="white" stroke="#666666" points="1235.75,-48.17 1113.25,-48.17 1113.25,-16.17 1235.75,-16.17 1235.75,-48.17"/>
<text text-anchor="start" x="1121.25" y="-34.67" font-family="Helvetica,sans-Serif" font-size="10.00">LibLoader::LoaderLogger</text>
<text text-anchor="middle" x="1174.5" y="-22.67" font-family="Helvetica,sans-Serif" font-size="10.00">::call_logger</text>
</a>
</g>
</g>
<!-- Node13&#45;&gt;Node14 -->
<g id="edge15_Node000013_Node000014" class="edge">
<title>Node13&#45;&gt;Node14</title>
<g id="a_edge15_Node000013_Node000014"><a xlink:title=" ">
<path fill="none" stroke="#63b8ff" d="M1077.51,-32.17C1085.4,-32.17 1093.55,-32.17 1101.6,-32.17"/>
<polygon fill="#63b8ff" stroke="#63b8ff" points="1101.38,-35.67 1111.38,-32.17 1101.38,-28.67 1101.38,-35.67"/>
</a>
</g>
</g>
<!-- Node14&#45;&gt;Node11 -->
<g id="edge16_Node000014_Node000011" class="edge">
<title>Node14&#45;&gt;Node11</title>
<g id="a_edge16_Node000014_Node000011"><a xlink:title=" ">
<path fill="none" stroke="#63b8ff" d="M1215.5,-48.56C1232.69,-55.61 1252.99,-63.93 1271.22,-71.4"/>
<polygon fill="#63b8ff" stroke="#63b8ff" points="1269.69,-74.56 1280.27,-75.11 1272.35,-68.08 1269.69,-74.56"/>
</a>
</g>
</g>
<!-- Node14&#45;&gt;Node12 -->
<g id="edge17_Node000014_Node000012" class="edge">
<title>Node14&#45;&gt;Node12</title>
<g id="a_edge17_Node000014_Node000012"><a xlink:title=" ">
<path fill="none" stroke="#63b8ff" d="M1120.01,-15.71C1106.21,-12.17 1091.29,-8.96 1077.25,-7.17 1023.24,-0.27 1007.98,4.29 954.75,-7.17 927.01,-13.14 897.76,-27.11 877.34,-38.28"/>
<polygon fill="#63b8ff" stroke="#63b8ff" points="875.84,-35.11 868.85,-43.07 879.28,-41.21 875.84,-35.11"/>
</a>
</g>
</g>
<!-- Node16 -->
<g id="Node000016" class="node">
<title>Node16</title>
<g id="a_Node000016"><a xlink:href="a00421.html#aa9d4bfd5269173c2f6aed44f79bf976e" target="_top" xlink:title="from https://www.zhihu.com/question/36642771, delim is regex(ignore last +)">
<polygon fill="white" stroke="#666666" points="598.75,-93.17 494.25,-93.17 494.25,-73.17 598.75,-73.17 598.75,-93.17"/>
<text text-anchor="middle" x="546.5" y="-79.67" font-family="Helvetica,sans-Serif" font-size="10.00">MiraiCP::Tools::split</text>
</a>
</g>
</g>
<!-- Node15&#45;&gt;Node16 -->
<g id="edge19_Node000015_Node000016" class="edge">
<title>Node15&#45;&gt;Node16</title>
<g id="a_edge19_Node000015_Node000016"><a xlink:title=" ">
<path fill="none" stroke="#63b8ff" d="M456.23,-83.17C464.92,-83.17 473.88,-83.17 482.62,-83.17"/>
<polygon fill="#63b8ff" stroke="#63b8ff" points="482.42,-86.67 492.42,-83.17 482.42,-79.67 482.42,-86.67"/>
</a>
</g>
</g>
</g>
</svg>
