<?xml version="1.0" encoding="UTF-8" standalone="no"?>
<!DOCTYPE svg PUBLIC "-//W3C//DTD SVG 1.1//EN"
 "http://www.w3.org/Graphics/SVG/1.1/DTD/svg11.dtd">
<!-- Generated by graphviz version 2.50.0 (20211204.2007)
 -->
<!-- Title: MiraiCP::GroupRelatedData::internalToJson Pages: 1 -->
<svg width="294pt" height="39pt"
 viewBox="0.00 0.00 294.00 39.00" xmlns="http://www.w3.org/2000/svg" xmlns:xlink="http://www.w3.org/1999/xlink">
<g id="graph0" class="graph" transform="scale(1 1) rotate(0) translate(4 35)">
<title>MiraiCP::GroupRelatedData::internalToJson</title>
<polygon fill="white" stroke="transparent" points="-4,4 -4,-35 290,-35 290,4 -4,4"/>
<!-- Node1 -->
<g id="node1" class="node">
<title>Node1</title>
<g id="a_node1"><a xlink:title="转为json, 由子类实现, 无锁">
<polygon fill="#bfbfbf" stroke="black" points="149,-0.5 149,-30.5 286,-30.5 286,-0.5 149,-0.5"/>
<text text-anchor="start" x="157" y="-18.5" font-family="Helvetica,sans-Serif" font-size="10.00">MiraiCP::GroupRelatedData</text>
<text text-anchor="middle" x="217.5" y="-7.5" font-family="Helvetica,sans-Serif" font-size="10.00">::internalToJson</text>
</a>
</g>
</g>
<!-- Node2 -->
<g id="node2" class="node">
<title>Node2</title>
<g id="a_node2"><a xlink:href="a00684.html#a904da5608fbac3b2258168b2f62e8c4b" target="_top" xlink:title="刷新数据">
<polygon fill="white" stroke="black" points="0,-0.5 0,-30.5 113,-30.5 113,-0.5 0,-0.5"/>
<text text-anchor="start" x="8" y="-18.5" font-family="Helvetica,sans-Serif" font-size="10.00">MiraiCP::MemberData</text>
<text text-anchor="middle" x="56.5" y="-7.5" font-family="Helvetica,sans-Serif" font-size="10.00">::refreshInfo</text>
</a>
</g>
</g>
<!-- Node1&#45;&gt;Node2 -->
<g id="edge1" class="edge">
<title>Node1&#45;&gt;Node2</title>
<path fill="none" stroke="midnightblue" d="M138.58,-15.5C130.01,-15.5 121.41,-15.5 113.18,-15.5"/>
<polygon fill="midnightblue" stroke="midnightblue" points="138.61,-19 148.61,-15.5 138.61,-12 138.61,-19"/>
</g>
</g>
</svg>
