<?xml version="1.0" encoding="UTF-8" standalone="no"?>
<!DOCTYPE svg PUBLIC "-//W3C//DTD SVG 1.1//EN"
 "http://www.w3.org/Graphics/SVG/1.1/DTD/svg11.dtd">
<!-- Generated by graphviz version 2.50.0 (20211204.2007)
 -->
<!-- Title: MiraiCP::KtOperation::ktOperation Pages: 1 -->
<svg width="524pt" height="1533pt"
 viewBox="0.00 0.00 524.00 1532.50" xmlns="http://www.w3.org/2000/svg" xmlns:xlink="http://www.w3.org/1999/xlink">
<g id="graph0" class="graph" transform="scale(1 1) rotate(0) translate(4 1528.5)">
<title>MiraiCP::KtOperation::ktOperation</title>
<polygon fill="white" stroke="transparent" points="-4,4 -4,-1528.5 520,-1528.5 520,4 -4,4"/>
<!-- Node1 -->
<g id="node1" class="node">
<title>Node1</title>
<g id="a_node1"><a xlink:title="调用 Mirai 操作">
<polygon fill="#bfbfbf" stroke="black" points="407,-755.5 407,-785.5 516,-785.5 516,-755.5 407,-755.5"/>
<text text-anchor="start" x="415" y="-773.5" font-family="Helvetica,sans-Serif" font-size="10.00">MiraiCP::KtOperation</text>
<text text-anchor="middle" x="461.5" y="-762.5" font-family="Helvetica,sans-Serif" font-size="10.00">::ktOperation</text>
</a>
</g>
</g>
<!-- Node2 -->
<g id="node2" class="node">
<title>Node2</title>
<g id="a_node2"><a xlink:href="a00625.html#afa172c24046945b1208344d3be9d5cfe" target="_top" xlink:title=" ">
<polygon fill="white" stroke="black" points="188.5,-1505 188.5,-1524 364.5,-1524 364.5,-1505 188.5,-1505"/>
<text text-anchor="middle" x="276.5" y="-1512" font-family="Helvetica,sans-Serif" font-size="10.00">MiraiCP::Member::changeNameCard</text>
</a>
</g>
</g>
<!-- Node1&#45;&gt;Node2 -->
<g id="edge1" class="edge">
<title>Node1&#45;&gt;Node2</title>
<path fill="none" stroke="midnightblue" d="M459.1,-795.96C452.14,-918.39 419.65,-1442.92 371,-1495.5 367.63,-1499.15 363.76,-1502.2 359.56,-1504.75"/>
<polygon fill="midnightblue" stroke="midnightblue" points="462.61,-795.87 459.68,-785.69 455.62,-795.48 462.61,-795.87"/>
</g>
<!-- Node3 -->
<g id="node3" class="node">
<title>Node3</title>
<g id="a_node3"><a xlink:href="a00625.html#a62b5b9e3c5e35214da533742f5644126" target="_top" xlink:title="更改群成员群头衔">
<polygon fill="white" stroke="black" points="195.5,-1455.5 195.5,-1485.5 357.5,-1485.5 357.5,-1455.5 195.5,-1455.5"/>
<text text-anchor="start" x="203.5" y="-1473.5" font-family="Helvetica,sans-Serif" font-size="10.00">MiraiCP::Member::changeSpecial</text>
<text text-anchor="middle" x="276.5" y="-1462.5" font-family="Helvetica,sans-Serif" font-size="10.00">Title</text>
</a>
</g>
</g>
<!-- Node1&#45;&gt;Node3 -->
<g id="edge2" class="edge">
<title>Node1&#45;&gt;Node3</title>
<path fill="none" stroke="midnightblue" d="M460.79,-795.89C461.5,-906.79 458.72,-1347.6 371,-1446.5 367.11,-1450.89 362.53,-1454.52 357.53,-1457.53"/>
<polygon fill="midnightblue" stroke="midnightblue" points="464.28,-795.63 460.7,-785.65 457.28,-795.68 464.28,-795.63"/>
</g>
<!-- Node4 -->
<g id="node4" class="node">
<title>Node4</title>
<g id="a_node4"><a xlink:href="a00395.html#a9c4f605303f4ffc836c1978d9b1e89c5" target="_top" xlink:title=" ">
<polygon fill="white" stroke="black" points="229,-1406.5 229,-1436.5 324,-1436.5 324,-1406.5 229,-1406.5"/>
<text text-anchor="start" x="237" y="-1424.5" font-family="Helvetica,sans-Serif" font-size="10.00">MiraiCP::internal::</text>
<text text-anchor="middle" x="276.5" y="-1413.5" font-family="Helvetica,sans-Serif" font-size="10.00">commandRegister</text>
</a>
</g>
</g>
<!-- Node1&#45;&gt;Node4 -->
<g id="edge3" class="edge">
<title>Node1&#45;&gt;Node4</title>
<path fill="none" stroke="midnightblue" d="M460.46,-795.67C459.8,-901.02 451.93,-1305.29 371,-1396.5 359.18,-1409.82 341.12,-1416.4 324.01,-1419.53"/>
<polygon fill="midnightblue" stroke="midnightblue" points="463.96,-795.65 460.51,-785.64 456.96,-795.62 463.96,-795.65"/>
</g>
<!-- Node6 -->
<g id="node6" class="node">
<title>Node6</title>
<g id="a_node6"><a xlink:href="a00585.html#ad21c4f5d158162f49bb008e6c37f7df9" target="_top" xlink:title="删除好友">
<polygon fill="white" stroke="black" points="205,-1368 205,-1387 348,-1387 348,-1368 205,-1368"/>
<text text-anchor="middle" x="276.5" y="-1375" font-family="Helvetica,sans-Serif" font-size="10.00">MiraiCP::Friend::deleteFriend</text>
</a>
</g>
</g>
<!-- Node1&#45;&gt;Node6 -->
<g id="edge5" class="edge">
<title>Node1&#45;&gt;Node6</title>
<path fill="none" stroke="midnightblue" d="M460.35,-795.88C459.21,-897.8 449.65,-1275.86 371,-1358.5 364.72,-1365.1 356.82,-1369.74 348.29,-1372.96"/>
<polygon fill="midnightblue" stroke="midnightblue" points="463.85,-795.64 460.45,-785.61 456.85,-795.58 463.85,-795.64"/>
</g>
<!-- Node7 -->
<g id="node7" class="node">
<title>Node7</title>
<g id="a_node7"><a xlink:href="a00601.html#a04aaabd735ed542b313a8df2a3fd9ecb" target="_top" xlink:title=" ">
<polygon fill="white" stroke="black" points="185.5,-1318.5 185.5,-1348.5 367.5,-1348.5 367.5,-1318.5 185.5,-1318.5"/>
<text text-anchor="start" x="193.5" y="-1336.5" font-family="Helvetica,sans-Serif" font-size="10.00">MiraiCP::Group::OnlineAnnouncement</text>
<text text-anchor="middle" x="276.5" y="-1325.5" font-family="Helvetica,sans-Serif" font-size="10.00">::deleteThis</text>
</a>
</g>
</g>
<!-- Node1&#45;&gt;Node7 -->
<g id="edge6" class="edge">
<title>Node1&#45;&gt;Node7</title>
<path fill="none" stroke="midnightblue" d="M459.81,-795.74C456.69,-891.61 440.8,-1231.63 371,-1308.5 367.5,-1312.36 363.47,-1315.65 359.1,-1318.45"/>
<polygon fill="midnightblue" stroke="midnightblue" points="463.32,-795.63 460.13,-785.53 456.32,-795.42 463.32,-795.63"/>
</g>
<!-- Node8 -->
<g id="node8" class="node">
<title>Node8</title>
<g id="a_node8"><a xlink:href="a00589.html#a4e01ea12b1be658a14fbd10b26e81fb8" target="_top" xlink:title="取群公告列表">
<polygon fill="white" stroke="black" points="182,-1280 182,-1299 371,-1299 371,-1280 182,-1280"/>
<text text-anchor="middle" x="276.5" y="-1287" font-family="Helvetica,sans-Serif" font-size="10.00">MiraiCP::Group::getAnnouncementsList</text>
</a>
</g>
</g>
<!-- Node1&#45;&gt;Node8 -->
<g id="edge7" class="edge">
<title>Node1&#45;&gt;Node8</title>
<path fill="none" stroke="midnightblue" d="M459.43,-795.81C455.09,-886.84 435.73,-1195.91 371,-1265.5 365.29,-1271.64 358.25,-1276.29 350.61,-1279.81"/>
<polygon fill="midnightblue" stroke="midnightblue" points="462.93,-795.97 459.89,-785.82 455.94,-795.65 462.93,-795.97"/>
</g>
<!-- Node9 -->
<g id="node9" class="node">
<title>Node9</title>
<g id="a_node9"><a xlink:href="a00589.html#a8ebc1c344a0b0fd9de68aa0bb597d2a5" target="_top" xlink:title=" ">
<polygon fill="white" stroke="black" points="13.5,-1275 13.5,-1294 132.5,-1294 132.5,-1275 13.5,-1275"/>
<text text-anchor="middle" x="73" y="-1282" font-family="Helvetica,sans-Serif" font-size="10.00">MiraiCP::Group::getFile</text>
</a>
</g>
</g>
<!-- Node1&#45;&gt;Node9 -->
<g id="edge8" class="edge">
<title>Node1&#45;&gt;Node9</title>
<path fill="none" stroke="midnightblue" d="M459.26,-795.98C454.44,-883.61 434.02,-1170.6 371,-1232.5 362.53,-1240.82 216.78,-1263.48 132.67,-1275.97"/>
<polygon fill="midnightblue" stroke="midnightblue" points="462.76,-796.03 459.79,-785.86 455.77,-795.66 462.76,-796.03"/>
</g>
<!-- Node10 -->
<g id="node10" class="node">
<title>Node10</title>
<g id="a_node10"><a xlink:href="a00589.html#a0f975b9bfbedb9d5d4fee9b95c9dbe65" target="_top" xlink:title="取文件信息(根据id)">
<polygon fill="white" stroke="black" points="207.5,-1204 207.5,-1223 345.5,-1223 345.5,-1204 207.5,-1204"/>
<text text-anchor="middle" x="276.5" y="-1211" font-family="Helvetica,sans-Serif" font-size="10.00">MiraiCP::Group::getFileById</text>
</a>
</g>
</g>
<!-- Node1&#45;&gt;Node10 -->
<g id="edge9" class="edge">
<title>Node1&#45;&gt;Node10</title>
<path fill="none" stroke="midnightblue" d="M458.71,-795.98C452.37,-878.7 428.24,-1137.69 371,-1194.5 363.95,-1201.5 355.06,-1206.26 345.59,-1209.45"/>
<polygon fill="midnightblue" stroke="midnightblue" points="462.21,-796.17 459.46,-785.94 455.23,-795.65 462.21,-796.17"/>
</g>
<!-- Node12 -->
<g id="node12" class="node">
<title>Node12</title>
<g id="a_node12"><a xlink:href="a00589.html#a2e01dc1b39b189302df6bc9ab9bb779d" target="_top" xlink:title=" ">
<polygon fill="white" stroke="black" points="209.5,-1154.5 209.5,-1184.5 343.5,-1184.5 343.5,-1154.5 209.5,-1154.5"/>
<text text-anchor="start" x="217.5" y="-1172.5" font-family="Helvetica,sans-Serif" font-size="10.00">MiraiCP::Group::getFileList</text>
<text text-anchor="middle" x="276.5" y="-1161.5" font-family="Helvetica,sans-Serif" font-size="10.00">String</text>
</a>
</g>
</g>
<!-- Node1&#45;&gt;Node12 -->
<g id="edge12" class="edge">
<title>Node1&#45;&gt;Node12</title>
<path fill="none" stroke="midnightblue" d="M457.84,-795.88C449.37,-871.8 420.65,-1095 371,-1145.5 363.48,-1153.15 353.88,-1158.47 343.7,-1162.16"/>
<polygon fill="midnightblue" stroke="midnightblue" points="461.33,-796.1 458.94,-785.78 454.37,-795.34 461.33,-796.1"/>
</g>
<!-- Node14 -->
<g id="node14" class="node">
<title>Node14</title>
<g id="a_node14"><a xlink:href="a00933.html#ad104b6f94628a14cf351ae7da993c770" target="_top" xlink:title="取该联系人的一些信息">
<polygon fill="white" stroke="black" points="220.5,-1105.5 220.5,-1135.5 332.5,-1135.5 332.5,-1105.5 220.5,-1105.5"/>
<text text-anchor="start" x="228.5" y="-1123.5" font-family="Helvetica,sans-Serif" font-size="10.00">MiraiCP::LowLevelAPI</text>
<text text-anchor="middle" x="276.5" y="-1112.5" font-family="Helvetica,sans-Serif" font-size="10.00">::getInfoSource</text>
</a>
</g>
</g>
<!-- Node1&#45;&gt;Node14 -->
<g id="edge14" class="edge">
<title>Node1&#45;&gt;Node14</title>
<path fill="none" stroke="midnightblue" d="M461.42,-795.87C462.18,-856.68 455.27,-1011.86 371,-1095.5 360.74,-1105.68 346.83,-1111.84 332.87,-1115.54"/>
<polygon fill="midnightblue" stroke="midnightblue" points="464.92,-795.58 461.21,-785.66 457.92,-795.73 464.92,-795.58"/>
</g>
<!-- Node17 -->
<g id="node17" class="node">
<title>Node17</title>
<g id="a_node17"><a xlink:href="a00589.html#aaf3faea866b044099784f19148d9ce01" target="_top" xlink:title=" ">
<polygon fill="white" stroke="black" points="199.5,-1067 199.5,-1086 353.5,-1086 353.5,-1067 199.5,-1067"/>
<text text-anchor="middle" x="276.5" y="-1074" font-family="Helvetica,sans-Serif" font-size="10.00">MiraiCP::Group::getMemberList</text>
</a>
</g>
</g>
<!-- Node1&#45;&gt;Node17 -->
<g id="edge17" class="edge">
<title>Node1&#45;&gt;Node17</title>
<path fill="none" stroke="midnightblue" d="M460.64,-795.91C459.49,-852.15 448.35,-987.65 371,-1057.5 365.96,-1062.05 360.14,-1065.63 353.91,-1068.44"/>
<polygon fill="midnightblue" stroke="midnightblue" points="464.14,-795.8 460.76,-785.77 457.14,-795.72 464.14,-795.8"/>
</g>
<!-- Node19 -->
<g id="node19" class="node">
<title>Node19</title>
<g id="a_node19"><a xlink:href="a00589.html#a49e685a85945a1f7b414e230fa2c27e6" target="_top" xlink:title="取群主">
<polygon fill="white" stroke="black" points="211,-1029 211,-1048 342,-1048 342,-1029 211,-1029"/>
<text text-anchor="middle" x="276.5" y="-1036" font-family="Helvetica,sans-Serif" font-size="10.00">MiraiCP::Group::getOwner</text>
</a>
</g>
</g>
<!-- Node1&#45;&gt;Node19 -->
<g id="edge19" class="edge">
<title>Node1&#45;&gt;Node19</title>
<path fill="none" stroke="midnightblue" d="M459.26,-795.69C455.32,-846.35 438.97,-960.71 371,-1019.5 362.86,-1026.54 352.82,-1031.24 342.38,-1034.32"/>
<polygon fill="midnightblue" stroke="midnightblue" points="462.75,-795.83 459.94,-785.62 455.77,-795.36 462.75,-795.83"/>
</g>
<!-- Node20 -->
<g id="node20" class="node">
<title>Node20</title>
<g id="a_node20"><a xlink:href="a00394.html#ade37f70b66a7da09197985fe2d874348" target="_top" xlink:title=" ">
<polygon fill="white" stroke="black" points="209.5,-991 209.5,-1010 343.5,-1010 343.5,-991 209.5,-991"/>
<text text-anchor="middle" x="276.5" y="-998" font-family="Helvetica,sans-Serif" font-size="10.00">MiraiCP::groupInviteInternal</text>
</a>
</g>
</g>
<!-- Node1&#45;&gt;Node20 -->
<g id="edge20" class="edge">
<title>Node1&#45;&gt;Node20</title>
<path fill="none" stroke="midnightblue" d="M457.43,-795.59C450.56,-840.3 429.64,-933.59 371,-981.5 363.05,-988 353.46,-992.46 343.5,-995.5"/>
<polygon fill="midnightblue" stroke="midnightblue" points="460.91,-795.96 458.86,-785.57 453.98,-794.97 460.91,-795.96"/>
</g>
<!-- Node23 -->
<g id="node23" class="node">
<title>Node23</title>
<g id="a_node23"><a xlink:href="a00673.html#a831b882bbbc4666b6c4acf47815eafb0" target="_top" xlink:title="图片是否已经上传(如果已经上传即表明可以直接用ImageId发送, 如果没有需要手动上传)">
<polygon fill="white" stroke="black" points="4.5,-540 4.5,-559 141.5,-559 141.5,-540 4.5,-540"/>
<text text-anchor="middle" x="73" y="-547" font-family="Helvetica,sans-Serif" font-size="10.00">MiraiCP::Image::isUploaded</text>
</a>
</g>
</g>
<!-- Node1&#45;&gt;Node23 -->
<g id="edge23" class="edge">
<title>Node1&#45;&gt;Node23</title>
<path fill="none" stroke="midnightblue" d="M458.25,-745.28C450.94,-669.91 425.18,-448.98 371,-406.5 304.89,-354.68 257.19,-369.06 182,-406.5 123.79,-435.48 88.64,-512.45 77.7,-539.74"/>
<polygon fill="midnightblue" stroke="midnightblue" points="454.77,-745.67 459.19,-755.3 461.74,-745.02 454.77,-745.67"/>
</g>
<!-- Node24 -->
<g id="node24" class="node">
<title>Node24</title>
<g id="a_node24"><a xlink:href="a00625.html#a2d1bc8f2dcdc9048ded62a0f5f53041a" target="_top" xlink:title=" ">
<polygon fill="white" stroke="black" points="218.5,-903 218.5,-922 334.5,-922 334.5,-903 218.5,-903"/>
<text text-anchor="middle" x="276.5" y="-910" font-family="Helvetica,sans-Serif" font-size="10.00">MiraiCP::Member::kick</text>
</a>
</g>
</g>
<!-- Node1&#45;&gt;Node24 -->
<g id="edge24" class="edge">
<title>Node1&#45;&gt;Node24</title>
<path fill="none" stroke="midnightblue" d="M449.54,-795.07C435.55,-823.46 408.56,-869.36 371,-893.5 360.27,-900.39 347.54,-904.86 334.97,-907.74"/>
<polygon fill="midnightblue" stroke="midnightblue" points="452.81,-796.35 453.95,-785.82 446.49,-793.34 452.81,-796.35"/>
</g>
<!-- Node25 -->
<g id="node25" class="node">
<title>Node25</title>
<g id="a_node25"><a xlink:href="a00394.html#a007cb939b04fb94a0e76805f64422783" target="_top" xlink:title="底层通过MemberJoinRequest">
<polygon fill="white" stroke="black" points="203.5,-941.5 203.5,-971.5 349.5,-971.5 349.5,-941.5 203.5,-941.5"/>
<text text-anchor="start" x="211.5" y="-959.5" font-family="Helvetica,sans-Serif" font-size="10.00">MiraiCP::memberJoinRequest</text>
<text text-anchor="middle" x="276.5" y="-948.5" font-family="Helvetica,sans-Serif" font-size="10.00">Internal</text>
</a>
</g>
</g>
<!-- Node1&#45;&gt;Node25 -->
<g id="edge25" class="edge">
<title>Node1&#45;&gt;Node25</title>
<path fill="none" stroke="midnightblue" d="M453.56,-795.16C442.26,-830.73 416.45,-896.06 371,-931.5 364.64,-936.46 357.38,-940.44 349.78,-943.63"/>
<polygon fill="midnightblue" stroke="midnightblue" points="456.92,-796.14 456.49,-785.55 450.23,-794.1 456.92,-796.14"/>
</g>
<!-- Node28 -->
<g id="node28" class="node">
<title>Node28</title>
<g id="a_node28"><a xlink:href="a00625.html#a7207187ce22e9e1910fd3188e7140cd5" target="_top" xlink:title="更改群成员权限">
<polygon fill="white" stroke="black" points="199,-827 199,-846 354,-846 354,-827 199,-827"/>
<text text-anchor="middle" x="276.5" y="-834" font-family="Helvetica,sans-Serif" font-size="10.00">MiraiCP::Member::modifyAdmin</text>
</a>
</g>
</g>
<!-- Node1&#45;&gt;Node28 -->
<g id="edge28" class="edge">
<title>Node1&#45;&gt;Node28</title>
<path fill="none" stroke="midnightblue" d="M426.33,-790.76C410.03,-799.72 389.98,-809.73 371,-816.5 359.27,-820.68 346.39,-824.13 334.04,-826.92"/>
<polygon fill="midnightblue" stroke="midnightblue" points="428.45,-793.59 435.46,-785.65 425.02,-787.48 428.45,-793.59"/>
</g>
<!-- Node29 -->
<g id="node29" class="node">
<title>Node29</title>
<g id="a_node29"><a xlink:href="a00625.html#ab26f7832af43cee20fcdc76d0f876219" target="_top" xlink:title=" ">
<polygon fill="white" stroke="black" points="216.5,-865 216.5,-884 336.5,-884 336.5,-865 216.5,-865"/>
<text text-anchor="middle" x="276.5" y="-872" font-family="Helvetica,sans-Serif" font-size="10.00">MiraiCP::Member::mute</text>
</a>
</g>
</g>
<!-- Node1&#45;&gt;Node29 -->
<g id="edge29" class="edge">
<title>Node1&#45;&gt;Node29</title>
<path fill="none" stroke="midnightblue" d="M442.57,-793.64C426.11,-813.22 399.94,-840.43 371,-855.5 360.42,-861.01 348.4,-864.92 336.58,-867.7"/>
<polygon fill="midnightblue" stroke="midnightblue" points="445.39,-795.73 449.01,-785.78 439.97,-791.3 445.39,-795.73"/>
</g>
<!-- Node32 -->
<g id="node32" class="node">
<title>Node32</title>
<g id="a_node32"><a xlink:href="a00394.html#a94480131f138aabc9aba228b9d17023f" target="_top" xlink:title=" ">
<polygon fill="white" stroke="red" points="208,-777.5 208,-807.5 345,-807.5 345,-777.5 208,-777.5"/>
<text text-anchor="start" x="216" y="-795.5" font-family="Helvetica,sans-Serif" font-size="10.00">MiraiCP::newFriendRequest</text>
<text text-anchor="middle" x="276.5" y="-784.5" font-family="Helvetica,sans-Serif" font-size="10.00">Internal</text>
</a>
</g>
</g>
<!-- Node1&#45;&gt;Node32 -->
<g id="edge32" class="edge">
<title>Node1&#45;&gt;Node32</title>
<path fill="none" stroke="midnightblue" d="M396.42,-778.2C379.78,-780.2 361.81,-782.36 345,-784.39"/>
<polygon fill="midnightblue" stroke="midnightblue" points="397.07,-781.65 406.58,-776.98 396.24,-774.7 397.07,-781.65"/>
</g>
<!-- Node35 -->
<g id="node34" class="node">
<title>Node35</title>
<g id="a_node34"><a xlink:href="a00513.html#addb043788194a8bffd2eeddff17080ef" target="_top" xlink:title="取群聊下一个消息(群聊与本事件一样)">
<polygon fill="white" stroke="black" points="203,-689.5 203,-719.5 350,-719.5 350,-689.5 203,-689.5"/>
<text text-anchor="start" x="211" y="-707.5" font-family="Helvetica,sans-Serif" font-size="10.00">MiraiCP::GroupMessageEvent</text>
<text text-anchor="middle" x="276.5" y="-696.5" font-family="Helvetica,sans-Serif" font-size="10.00">::nextMessage</text>
</a>
</g>
</g>
<!-- Node1&#45;&gt;Node35 -->
<g id="edge34" class="edge">
<title>Node1&#45;&gt;Node35</title>
<path fill="none" stroke="midnightblue" d="M421.52,-750.91C406.04,-743.59 387.91,-735.59 371,-729.5 360.96,-725.89 350.15,-722.53 339.57,-719.52"/>
<polygon fill="midnightblue" stroke="midnightblue" points="420.25,-754.19 430.78,-755.36 423.28,-747.88 420.25,-754.19"/>
</g>
<!-- Node36 -->
<g id="node35" class="node">
<title>Node36</title>
<g id="a_node35"><a xlink:href="a00553.html#a2fadddd37811d8dcbf7183d98eba3034" target="_top" xlink:title="取下一个消息(发送人和接收人和本事件一样)">
<polygon fill="white" stroke="black" points="201.5,-640.5 201.5,-670.5 351.5,-670.5 351.5,-640.5 201.5,-640.5"/>
<text text-anchor="start" x="209.5" y="-658.5" font-family="Helvetica,sans-Serif" font-size="10.00">MiraiCP::PrivateMessageEvent</text>
<text text-anchor="middle" x="276.5" y="-647.5" font-family="Helvetica,sans-Serif" font-size="10.00">::nextMessage</text>
</a>
</g>
</g>
<!-- Node1&#45;&gt;Node36 -->
<g id="edge35" class="edge">
<title>Node1&#45;&gt;Node36</title>
<path fill="none" stroke="midnightblue" d="M443.78,-747.41C427.49,-726.6 400.87,-696.7 371,-679.5 365.05,-676.07 358.6,-673.12 351.97,-670.59"/>
<polygon fill="midnightblue" stroke="midnightblue" points="441.05,-749.62 449.9,-755.44 446.62,-745.37 441.05,-749.62"/>
</g>
<!-- Node37 -->
<g id="node36" class="node">
<title>Node37</title>
<g id="a_node36"><a xlink:href="a00605.html#ac5e2613306079cce18866fa1f2809357" target="_top" xlink:title="发布群公告">
<polygon fill="white" stroke="black" points="185.5,-591.5 185.5,-621.5 367.5,-621.5 367.5,-591.5 185.5,-591.5"/>
<text text-anchor="start" x="193.5" y="-609.5" font-family="Helvetica,sans-Serif" font-size="10.00">MiraiCP::Group::OfflineAnnouncement</text>
<text text-anchor="middle" x="276.5" y="-598.5" font-family="Helvetica,sans-Serif" font-size="10.00">::publishTo</text>
</a>
</g>
</g>
<!-- Node1&#45;&gt;Node37 -->
<g id="edge36" class="edge">
<title>Node1&#45;&gt;Node37</title>
<path fill="none" stroke="midnightblue" d="M451.38,-745.75C438.44,-714.13 411.69,-659.96 371,-630.5 366.25,-627.06 361.05,-624.11 355.61,-621.59"/>
<polygon fill="midnightblue" stroke="midnightblue" points="448.17,-747.15 455.1,-755.17 454.68,-744.58 448.17,-747.15"/>
</g>
<!-- Node38 -->
<g id="node37" class="node">
<title>Node38</title>
<g id="a_node37"><a xlink:href="a00589.html#a456df5afe8ff742a7124a2be62d67e2d" target="_top" xlink:title="查询目前拥有对应群荣耀的成员">
<polygon fill="white" stroke="black" points="204,-542.5 204,-572.5 349,-572.5 349,-542.5 204,-542.5"/>
<text text-anchor="start" x="212" y="-560.5" font-family="Helvetica,sans-Serif" font-size="10.00">MiraiCP::Group::queryCurrent</text>
<text text-anchor="middle" x="276.5" y="-549.5" font-family="Helvetica,sans-Serif" font-size="10.00">HonorMember</text>
</a>
</g>
</g>
<!-- Node1&#45;&gt;Node38 -->
<g id="edge37" class="edge">
<title>Node1&#45;&gt;Node38</title>
<path fill="none" stroke="midnightblue" d="M455.75,-745.4C446.7,-704.68 423.05,-624.45 371,-581.5 364.54,-576.17 357.03,-572 349.14,-568.75"/>
<polygon fill="midnightblue" stroke="midnightblue" points="452.35,-746.25 457.84,-755.32 459.2,-744.81 452.35,-746.25"/>
</g>
<!-- Node39 -->
<g id="node38" class="node">
<title>Node39</title>
<g id="a_node38"><a xlink:href="a00394.html#af9ded1af6d3b5b7e3b556d52484d56b8" target="_top" xlink:title=" ">
<polygon fill="white" stroke="red" points="228,-504 228,-523 325,-523 325,-504 228,-504"/>
<text text-anchor="middle" x="276.5" y="-511" font-family="Helvetica,sans-Serif" font-size="10.00">MiraiCP::queryList</text>
</a>
</g>
</g>
<!-- Node1&#45;&gt;Node39 -->
<g id="edge38" class="edge">
<title>Node1&#45;&gt;Node39</title>
<path fill="none" stroke="midnightblue" d="M458.79,-745.39C454.03,-696.42 436.28,-588.14 371,-532.5 358.39,-521.76 341.37,-516.51 325.3,-514.1"/>
<polygon fill="midnightblue" stroke="midnightblue" points="455.31,-745.77 459.66,-755.43 462.28,-745.17 455.31,-745.77"/>
</g>
<!-- Node46 -->
<g id="node39" class="node">
<title>Node46</title>
<g id="a_node39"><a xlink:href="a00589.html#a3eddcdf9f6c83da134e878d6815da796" target="_top" xlink:title="退群">
<polygon fill="white" stroke="black" points="224,-466 224,-485 329,-485 329,-466 224,-466"/>
<text text-anchor="middle" x="276.5" y="-473" font-family="Helvetica,sans-Serif" font-size="10.00">MiraiCP::Group::quit</text>
</a>
</g>
</g>
<!-- Node1&#45;&gt;Node46 -->
<g id="edge39" class="edge">
<title>Node1&#45;&gt;Node46</title>
<path fill="none" stroke="midnightblue" d="M460.28,-745.31C458.35,-690.75 445.7,-561.2 371,-494.5 359.63,-484.35 344.36,-479.04 329.46,-476.41"/>
<polygon fill="midnightblue" stroke="midnightblue" points="456.79,-745.57 460.54,-755.48 463.78,-745.39 456.79,-745.57"/>
</g>
<!-- Node47 -->
<g id="node40" class="node">
<title>Node47</title>
<g id="a_node40"><a xlink:href="a00445.html#aee1b53cae7cec3e1d65daa3d23625223" target="_top" xlink:title=" ">
<polygon fill="white" stroke="red" points="207.5,-416.5 207.5,-446.5 345.5,-446.5 345.5,-416.5 207.5,-416.5"/>
<text text-anchor="start" x="215.5" y="-434.5" font-family="Helvetica,sans-Serif" font-size="10.00">MiraiCP::Contact::quoteAnd</text>
<text text-anchor="middle" x="276.5" y="-423.5" font-family="Helvetica,sans-Serif" font-size="10.00">SendImpl</text>
</a>
</g>
</g>
<!-- Node1&#45;&gt;Node47 -->
<g id="edge40" class="edge">
<title>Node1&#45;&gt;Node47</title>
<path fill="none" stroke="midnightblue" d="M461.13,-745.18C461.16,-685.85 452.62,-536.79 371,-456.5 363.93,-449.55 355.16,-444.47 345.83,-440.78"/>
<polygon fill="midnightblue" stroke="midnightblue" points="457.63,-745.46 461.03,-755.49 464.63,-745.53 457.63,-745.46"/>
</g>
<!-- Node49 -->
<g id="node41" class="node">
<title>Node49</title>
<g id="a_node41"><a xlink:href="a00673.html#a009add34e1e1b451542d06382da4ea0a" target="_top" xlink:title="刷新信息(获取图片下载Url,md5, size)">
<polygon fill="white" stroke="black" points="209.5,-739 209.5,-758 343.5,-758 343.5,-739 209.5,-739"/>
<text text-anchor="middle" x="276.5" y="-746" font-family="Helvetica,sans-Serif" font-size="10.00">MiraiCP::Image::refreshInfo</text>
</a>
</g>
</g>
<!-- Node1&#45;&gt;Node49 -->
<g id="edge41" class="edge">
<title>Node1&#45;&gt;Node49</title>
<path fill="none" stroke="midnightblue" d="M396.19,-762.77C379.18,-760.72 360.78,-758.51 343.67,-756.46"/>
<polygon fill="midnightblue" stroke="midnightblue" points="396.24,-766.3 406.58,-764.02 397.07,-759.35 396.24,-766.3"/>
</g>
<!-- Node50 -->
<g id="node42" class="node">
<title>Node50</title>
<g id="a_node42"><a xlink:href="a00513.html#a67d98fb7d7214cb2bc916da47e3e5ce3" target="_top" xlink:title="取群聊中同群成员的下一个消息(发送人和群与本事件一样)">
<polygon fill="white" stroke="black" points="203,-328.5 203,-358.5 350,-358.5 350,-328.5 203,-328.5"/>
<text text-anchor="start" x="211" y="-346.5" font-family="Helvetica,sans-Serif" font-size="10.00">MiraiCP::GroupMessageEvent</text>
<text text-anchor="middle" x="276.5" y="-335.5" font-family="Helvetica,sans-Serif" font-size="10.00">::senderNextMessage</text>
</a>
</g>
</g>
<!-- Node1&#45;&gt;Node50 -->
<g id="edge43" class="edge">
<title>Node1&#45;&gt;Node50</title>
<path fill="none" stroke="midnightblue" d="M458.07,-745.34C450.02,-666.94 421.79,-429.01 371,-373.5 365.13,-367.09 357.89,-362.04 350.06,-358.06"/>
<polygon fill="midnightblue" stroke="midnightblue" points="454.59,-745.71 459.07,-755.31 461.55,-745.01 454.59,-745.71"/>
</g>
<!-- Node51 -->
<g id="node43" class="node">
<title>Node51</title>
<g id="a_node43"><a xlink:href="a00589.html#aed703d0ece4a7a9e8a1fe8e5f80eadbc" target="_top" xlink:title="上传并发送远程(群)文件">
<polygon fill="white" stroke="black" points="213.5,-290 213.5,-309 339.5,-309 339.5,-290 213.5,-290"/>
<text text-anchor="middle" x="276.5" y="-297" font-family="Helvetica,sans-Serif" font-size="10.00">MiraiCP::Group::sendFile</text>
</a>
</g>
</g>
<!-- Node1&#45;&gt;Node51 -->
<g id="edge44" class="edge">
<title>Node1&#45;&gt;Node51</title>
<path fill="none" stroke="midnightblue" d="M459.06,-744.79C453.67,-658.26 431.81,-379.62 371,-318.5 362.59,-310.05 351.51,-304.84 339.94,-301.73"/>
<polygon fill="midnightblue" stroke="midnightblue" points="455.58,-745.26 459.67,-755.03 462.57,-744.84 455.58,-745.26"/>
</g>
<!-- Node52 -->
<g id="node44" class="node">
<title>Node52</title>
<g id="a_node44"><a xlink:href="a00445.html#aa448a5ef12e3572c0cf751a3f37f7519" target="_top" xlink:title=" ">
<polygon fill="white" stroke="red" points="199,-252 199,-271 354,-271 354,-252 199,-252"/>
<text text-anchor="middle" x="276.5" y="-259" font-family="Helvetica,sans-Serif" font-size="10.00">MiraiCP::Contact::sendMsgImpl</text>
</a>
</g>
</g>
<!-- Node1&#45;&gt;Node52 -->
<g id="edge45" class="edge">
<title>Node1&#45;&gt;Node52</title>
<path fill="none" stroke="midnightblue" d="M459.5,-745.06C455.4,-654.2 436.82,-347.63 371,-280.5 366.13,-275.53 360.34,-271.68 354.07,-268.72"/>
<polygon fill="midnightblue" stroke="midnightblue" points="456.01,-745.43 459.94,-755.27 463.01,-745.12 456.01,-745.43"/>
</g>
<!-- Node54 -->
<g id="node45" class="node">
<title>Node54</title>
<g id="a_node45"><a xlink:href="a00585.html#a0321140e76255aadcd1a23c92b0d5031" target="_top" xlink:title="发送戳一戳">
<polygon fill="white" stroke="black" points="207,-214 207,-233 346,-233 346,-214 207,-214"/>
<text text-anchor="middle" x="276.5" y="-221" font-family="Helvetica,sans-Serif" font-size="10.00">MiraiCP::Friend::sendNudge</text>
</a>
</g>
</g>
<!-- Node1&#45;&gt;Node54 -->
<g id="edge46" class="edge">
<title>Node1&#45;&gt;Node54</title>
<path fill="none" stroke="midnightblue" d="M459.87,-745.28C456.98,-650.28 441.83,-315.68 371,-242.5 364.2,-235.48 355.57,-230.68 346.31,-227.46"/>
<polygon fill="midnightblue" stroke="midnightblue" points="456.38,-745.51 460.16,-755.41 463.37,-745.31 456.38,-745.51"/>
</g>
<!-- Node55 -->
<g id="node46" class="node">
<title>Node55</title>
<g id="a_node46"><a xlink:href="a00625.html#aff2d2c3a907f051ca89d506b02caa5d0" target="_top" xlink:title="发送戳一戳">
<polygon fill="white" stroke="black" points="203,-176 203,-195 350,-195 350,-176 203,-176"/>
<text text-anchor="middle" x="276.5" y="-183" font-family="Helvetica,sans-Serif" font-size="10.00">MiraiCP::Member::sendNudge</text>
</a>
</g>
</g>
<!-- Node1&#45;&gt;Node55 -->
<g id="edge47" class="edge">
<title>Node1&#45;&gt;Node55</title>
<path fill="none" stroke="midnightblue" d="M460.19,-745.42C458.43,-646.33 446.84,-283.73 371,-204.5 365.16,-198.4 357.93,-193.97 350.11,-190.8"/>
<polygon fill="midnightblue" stroke="midnightblue" points="456.69,-745.48 460.35,-755.42 463.69,-745.37 456.69,-745.48"/>
</g>
<!-- Node56 -->
<g id="node47" class="node">
<title>Node56</title>
<g id="a_node47"><a xlink:href="a00581.html#ac80faf9f28a0031b30f30728dae3e39b" target="_top" xlink:title="发送给群或好友或群成员">
<polygon fill="white" stroke="black" points="205.5,-126.5 205.5,-156.5 347.5,-156.5 347.5,-126.5 205.5,-126.5"/>
<text text-anchor="start" x="213.5" y="-144.5" font-family="Helvetica,sans-Serif" font-size="10.00">MiraiCP::ForwardedMessage</text>
<text text-anchor="middle" x="276.5" y="-133.5" font-family="Helvetica,sans-Serif" font-size="10.00">::sendTo</text>
</a>
</g>
</g>
<!-- Node1&#45;&gt;Node56 -->
<g id="edge48" class="edge">
<title>Node1&#45;&gt;Node56</title>
<path fill="none" stroke="midnightblue" d="M460.32,-745.23C459.06,-642.05 449.12,-254.09 371,-166.5 364.62,-159.35 356.45,-154.15 347.6,-150.38"/>
<polygon fill="midnightblue" stroke="midnightblue" points="456.82,-745.38 460.42,-755.34 463.82,-745.31 456.82,-745.38"/>
</g>
<!-- Node57 -->
<g id="node48" class="node">
<title>Node57</title>
<g id="a_node48"><a xlink:href="a00445.html#a1a09f38d4bf01b99f04ffdbc9168727a" target="_top" xlink:title="发送语音">
<polygon fill="white" stroke="red" points="196,-88 196,-107 357,-107 357,-88 196,-88"/>
<text text-anchor="middle" x="276.5" y="-95" font-family="Helvetica,sans-Serif" font-size="10.00">MiraiCP::Contact::sendVoiceImpl</text>
</a>
</g>
</g>
<!-- Node1&#45;&gt;Node57 -->
<g id="edge49" class="edge">
<title>Node1&#45;&gt;Node57</title>
<path fill="none" stroke="midnightblue" d="M460.78,-745.48C461.45,-637.13 458.43,-209.76 371,-116.5 367.03,-112.27 362.41,-108.84 357.37,-106.08"/>
<polygon fill="midnightblue" stroke="midnightblue" points="457.28,-745.46 460.7,-755.48 464.28,-745.51 457.28,-745.46"/>
</g>
<!-- Node60 -->
<g id="node49" class="node">
<title>Node60</title>
<g id="a_node49"><a xlink:href="a00589.html#ab17f2aa8e561dd42695a5bdc1b56b369" target="_top" xlink:title="更新群设置, 即覆盖服务器上的群设置">
<polygon fill="white" stroke="black" points="202,-50 202,-69 351,-69 351,-50 202,-50"/>
<text text-anchor="middle" x="276.5" y="-57" font-family="Helvetica,sans-Serif" font-size="10.00">MiraiCP::Group::updateSetting</text>
</a>
</g>
</g>
<!-- Node1&#45;&gt;Node60 -->
<g id="edge50" class="edge">
<title>Node1&#45;&gt;Node60</title>
<path fill="none" stroke="midnightblue" d="M460.99,-745.12C462.63,-632.32 463.35,-177.73 371,-78.5 365.47,-72.56 358.63,-68.2 351.19,-65.02"/>
<polygon fill="midnightblue" stroke="midnightblue" points="457.49,-745.17 460.83,-755.22 464.49,-745.28 457.49,-745.17"/>
</g>
<!-- Node61 -->
<g id="node50" class="node">
<title>Node61</title>
<g id="a_node50"><a xlink:href="a00933.html#ad74021eeded7e621fddaae159f2b8387" target="_top" xlink:title="上传图片">
<polygon fill="white" stroke="red" points="220.5,-0.5 220.5,-30.5 332.5,-30.5 332.5,-0.5 220.5,-0.5"/>
<text text-anchor="start" x="228.5" y="-18.5" font-family="Helvetica,sans-Serif" font-size="10.00">MiraiCP::LowLevelAPI</text>
<text text-anchor="middle" x="276.5" y="-7.5" font-family="Helvetica,sans-Serif" font-size="10.00">::uploadImg0</text>
</a>
</g>
</g>
<!-- Node1&#45;&gt;Node61 -->
<g id="edge51" class="edge">
<title>Node1&#45;&gt;Node61</title>
<path fill="none" stroke="midnightblue" d="M459.05,-744.93C451.83,-621.94 418.33,-94.93 371,-40.5 361.3,-29.34 347.22,-22.9 332.91,-19.25"/>
<polygon fill="midnightblue" stroke="midnightblue" points="455.57,-745.46 459.64,-755.24 462.56,-745.05 455.57,-745.46"/>
</g>
<!-- Node5 -->
<g id="node5" class="node">
<title>Node5</title>
<g id="a_node5"><a xlink:href="a00396.html#ade2058acff33a4c43d5c7820a1828faa" target="_top" xlink:title="注册一条指令">
<polygon fill="white" stroke="black" points="3.5,-1406.5 3.5,-1436.5 142.5,-1436.5 142.5,-1406.5 3.5,-1406.5"/>
<text text-anchor="start" x="11.5" y="-1424.5" font-family="Helvetica,sans-Serif" font-size="10.00">MiraiCP::CommandManager</text>
<text text-anchor="middle" x="73" y="-1413.5" font-family="Helvetica,sans-Serif" font-size="10.00">::registerCommand</text>
</a>
</g>
</g>
<!-- Node4&#45;&gt;Node5 -->
<g id="edge4" class="edge">
<title>Node4&#45;&gt;Node5</title>
<path fill="none" stroke="midnightblue" d="M218.57,-1421.5C194.96,-1421.5 167.36,-1421.5 142.64,-1421.5"/>
<polygon fill="midnightblue" stroke="midnightblue" points="218.77,-1425 228.77,-1421.5 218.77,-1418 218.77,-1425"/>
</g>
<!-- Node10&#45;&gt;Node9 -->
<g id="edge10" class="edge">
<title>Node10&#45;&gt;Node9</title>
<path fill="none" stroke="midnightblue" d="M213.01,-1225.73C202.39,-1228.88 191.68,-1232.75 182,-1237.5 163.8,-1246.43 164.17,-1256.51 146,-1265.5 138.35,-1269.28 129.86,-1272.38 121.47,-1274.89"/>
<polygon fill="midnightblue" stroke="midnightblue" points="214.01,-1229.09 222.71,-1223.05 212.14,-1222.34 214.01,-1229.09"/>
</g>
<!-- Node11 -->
<g id="node11" class="node">
<title>Node11</title>
<g id="a_node11"><a xlink:href="a00589.html#a2a2d2d51902d818f7e52a72229446a57" target="_top" xlink:title=" ">
<polygon fill="white" stroke="black" points="0,-1237 0,-1256 146,-1256 146,-1237 0,-1237"/>
<text text-anchor="middle" x="73" y="-1244" font-family="Helvetica,sans-Serif" font-size="10.00">MiraiCP::Group::getFileByFile</text>
</a>
</g>
</g>
<!-- Node10&#45;&gt;Node11 -->
<g id="edge11" class="edge">
<title>Node10&#45;&gt;Node11</title>
<path fill="none" stroke="midnightblue" d="M207.57,-1224.62C183.15,-1228.62 155.83,-1233.1 132.3,-1236.95"/>
<polygon fill="midnightblue" stroke="midnightblue" points="208.19,-1228.07 217.49,-1223 207.05,-1221.16 208.19,-1228.07"/>
</g>
<!-- Node13 -->
<g id="node13" class="node">
<title>Node13</title>
<g id="a_node13"><a xlink:href="a00589.html#a970ea88f55047e041eaffc2fd7cb7a91" target="_top" xlink:title=" ">
<polygon fill="white" stroke="black" points="6,-1199 6,-1218 140,-1218 140,-1199 6,-1199"/>
<text text-anchor="middle" x="73" y="-1206" font-family="Helvetica,sans-Serif" font-size="10.00">MiraiCP::Group::getFileList</text>
</a>
</g>
</g>
<!-- Node12&#45;&gt;Node13 -->
<g id="edge13" class="edge">
<title>Node12&#45;&gt;Node13</title>
<path fill="none" stroke="midnightblue" d="M199.25,-1184.26C173.83,-1189.18 146.2,-1194.53 123.37,-1198.95"/>
<polygon fill="midnightblue" stroke="midnightblue" points="200.09,-1187.66 209.24,-1182.32 198.76,-1180.79 200.09,-1187.66"/>
</g>
<!-- Node15 -->
<g id="node15" class="node">
<title>Node15</title>
<g id="a_node15"><a xlink:href="a00394.html#a564fdee0439f73ca716a26f8d4591dd9" target="_top" xlink:title=" ">
<polygon fill="white" stroke="black" points="11.5,-1111 11.5,-1130 134.5,-1130 134.5,-1111 11.5,-1111"/>
<text text-anchor="middle" x="73" y="-1118" font-family="Helvetica,sans-Serif" font-size="10.00">MiraiCP::IMPL_GETTER</text>
</a>
</g>
</g>
<!-- Node14&#45;&gt;Node15 -->
<g id="edge15" class="edge">
<title>Node14&#45;&gt;Node15</title>
<path fill="none" stroke="midnightblue" d="M210.24,-1120.5C185.96,-1120.5 158.52,-1120.5 134.66,-1120.5"/>
<polygon fill="midnightblue" stroke="midnightblue" points="210.44,-1124 220.44,-1120.5 210.44,-1117 210.44,-1124"/>
</g>
<!-- Node16 -->
<g id="node16" class="node">
<title>Node16</title>
<g id="a_node16"><a xlink:href="a00857.html#a1632df966247f52553c17e25e5d47280" target="_top" xlink:title="刷新数据">
<polygon fill="white" stroke="black" points="16.5,-1149.5 16.5,-1179.5 129.5,-1179.5 129.5,-1149.5 16.5,-1149.5"/>
<text text-anchor="start" x="24.5" y="-1167.5" font-family="Helvetica,sans-Serif" font-size="10.00">MiraiCP::IContactData</text>
<text text-anchor="middle" x="73" y="-1156.5" font-family="Helvetica,sans-Serif" font-size="10.00">::refreshInfo</text>
</a>
</g>
</g>
<!-- Node14&#45;&gt;Node16 -->
<g id="edge16" class="edge">
<title>Node14&#45;&gt;Node16</title>
<path fill="none" stroke="midnightblue" d="M210.64,-1134.66C184.56,-1140.36 154.78,-1146.86 129.69,-1152.34"/>
<polygon fill="midnightblue" stroke="midnightblue" points="211.42,-1138.08 220.44,-1132.52 209.92,-1131.24 211.42,-1138.08"/>
</g>
<!-- Node18 -->
<g id="node18" class="node">
<title>Node18</title>
<g id="a_node18"><a xlink:href="a00589.html#a7e4a285e03aac96ef4152d852958329d" target="_top" xlink:title=" ">
<polygon fill="white" stroke="black" points="3,-1061.5 3,-1091.5 143,-1091.5 143,-1061.5 3,-1061.5"/>
<text text-anchor="start" x="11" y="-1079.5" font-family="Helvetica,sans-Serif" font-size="10.00">MiraiCP::Group::MemberList</text>
<text text-anchor="middle" x="73" y="-1068.5" font-family="Helvetica,sans-Serif" font-size="10.00">ToString</text>
</a>
</g>
</g>
<!-- Node17&#45;&gt;Node18 -->
<g id="edge18" class="edge">
<title>Node17&#45;&gt;Node18</title>
<path fill="none" stroke="midnightblue" d="M189.31,-1076.5C173.95,-1076.5 158.14,-1076.5 143.33,-1076.5"/>
<polygon fill="midnightblue" stroke="midnightblue" points="189.32,-1080 199.32,-1076.5 189.32,-1073 189.32,-1080"/>
</g>
<!-- Node21 -->
<g id="node21" class="node">
<title>Node21</title>
<g id="a_node21"><a xlink:href="a00509.html#a3847df3907111c8443c1e1b71ee35d1d" target="_top" xlink:title=" ">
<polygon fill="white" stroke="black" points="8.5,-963.5 8.5,-993.5 137.5,-993.5 137.5,-963.5 8.5,-963.5"/>
<text text-anchor="start" x="16.5" y="-981.5" font-family="Helvetica,sans-Serif" font-size="10.00">MiraiCP::GroupInviteEvent</text>
<text text-anchor="middle" x="73" y="-970.5" font-family="Helvetica,sans-Serif" font-size="10.00">::accept</text>
</a>
</g>
</g>
<!-- Node20&#45;&gt;Node21 -->
<g id="edge21" class="edge">
<title>Node20&#45;&gt;Node21</title>
<path fill="none" stroke="midnightblue" d="M199.09,-992.16C178.79,-989.94 157.09,-987.57 137.56,-985.44"/>
<polygon fill="midnightblue" stroke="midnightblue" points="198.92,-995.66 209.24,-993.27 199.68,-988.7 198.92,-995.66"/>
</g>
<!-- Node22 -->
<g id="node22" class="node">
<title>Node22</title>
<g id="a_node22"><a xlink:href="a00509.html#a749d773136fff280e951e66e21959a6c" target="_top" xlink:title=" ">
<polygon fill="white" stroke="black" points="8.5,-1012.5 8.5,-1042.5 137.5,-1042.5 137.5,-1012.5 8.5,-1012.5"/>
<text text-anchor="start" x="16.5" y="-1030.5" font-family="Helvetica,sans-Serif" font-size="10.00">MiraiCP::GroupInviteEvent</text>
<text text-anchor="middle" x="73" y="-1019.5" font-family="Helvetica,sans-Serif" font-size="10.00">::reject</text>
</a>
</g>
</g>
<!-- Node20&#45;&gt;Node22 -->
<g id="edge22" class="edge">
<title>Node20&#45;&gt;Node22</title>
<path fill="none" stroke="midnightblue" d="M199.09,-1010.74C178.79,-1013.46 157.09,-1016.37 137.56,-1018.98"/>
<polygon fill="midnightblue" stroke="midnightblue" points="199.8,-1014.18 209.24,-1009.38 198.87,-1007.24 199.8,-1014.18"/>
</g>
<!-- Node26 -->
<g id="node26" class="node">
<title>Node26</title>
<g id="a_node26"><a xlink:href="a00525.html#ace031723d310c72ed25b83485f66a034" target="_top" xlink:title="通过">
<polygon fill="white" stroke="black" points="0,-865.5 0,-895.5 146,-895.5 146,-865.5 0,-865.5"/>
<text text-anchor="start" x="8" y="-883.5" font-family="Helvetica,sans-Serif" font-size="10.00">MiraiCP::MemberJoinRequest</text>
<text text-anchor="middle" x="73" y="-872.5" font-family="Helvetica,sans-Serif" font-size="10.00">Event::accept</text>
</a>
</g>
</g>
<!-- Node25&#45;&gt;Node26 -->
<g id="edge26" class="edge">
<title>Node25&#45;&gt;Node26</title>
<path fill="none" stroke="midnightblue" d="M197.72,-938.08C192.32,-936.08 187.03,-933.89 182,-931.5 164.17,-923.03 163.51,-914.61 146,-905.5 138.96,-901.83 131.26,-898.51 123.6,-895.58"/>
<polygon fill="midnightblue" stroke="midnightblue" points="196.94,-941.51 207.54,-941.48 199.24,-934.9 196.94,-941.51"/>
</g>
<!-- Node27 -->
<g id="node27" class="node">
<title>Node27</title>
<g id="a_node27"><a xlink:href="a00525.html#a83dc1fb94b0c26bf2ef1e4c8c5069520" target="_top" xlink:title="拒绝">
<polygon fill="white" stroke="black" points="0,-914.5 0,-944.5 146,-944.5 146,-914.5 0,-914.5"/>
<text text-anchor="start" x="8" y="-932.5" font-family="Helvetica,sans-Serif" font-size="10.00">MiraiCP::MemberJoinRequest</text>
<text text-anchor="middle" x="73" y="-921.5" font-family="Helvetica,sans-Serif" font-size="10.00">Event::reject</text>
</a>
</g>
</g>
<!-- Node25&#45;&gt;Node27 -->
<g id="edge27" class="edge">
<title>Node25&#45;&gt;Node27</title>
<path fill="none" stroke="midnightblue" d="M193.16,-945.47C177.53,-943.37 161.29,-941.2 146.01,-939.15"/>
<polygon fill="midnightblue" stroke="midnightblue" points="192.95,-948.97 203.32,-946.83 193.88,-942.03 192.95,-948.97"/>
</g>
<!-- Node30 -->
<g id="node30" class="node">
<title>Node30</title>
<g id="a_node30"><a xlink:href="a00625.html#a7298e2edbbe9c1866c730ad1fef8fb23" target="_top" xlink:title=" ">
<polygon fill="white" stroke="black" points="13,-789 13,-808 133,-808 133,-789 13,-789"/>
<text text-anchor="middle" x="73" y="-796" font-family="Helvetica,sans-Serif" font-size="10.00">MiraiCP::Member::mute</text>
</a>
</g>
</g>
<!-- Node29&#45;&gt;Node30 -->
<g id="edge30" class="edge">
<title>Node29&#45;&gt;Node30</title>
<path fill="none" stroke="midnightblue" d="M206.51,-865.54C197.96,-862.98 189.58,-859.7 182,-855.5 161.66,-844.22 166.01,-829.37 146,-817.5 139.44,-813.61 132.08,-810.5 124.63,-808.03"/>
<polygon fill="midnightblue" stroke="midnightblue" points="205.63,-868.93 216.19,-868.13 207.44,-862.16 205.63,-868.93"/>
</g>
<!-- Node31 -->
<g id="node31" class="node">
<title>Node31</title>
<g id="a_node31"><a xlink:href="a00625.html#ac815c8a919d5f2b8143c8ee552acdf72" target="_top" xlink:title=" ">
<polygon fill="white" stroke="black" points="7.5,-827 7.5,-846 138.5,-846 138.5,-827 7.5,-827"/>
<text text-anchor="middle" x="73" y="-834" font-family="Helvetica,sans-Serif" font-size="10.00">MiraiCP::Member::unMute</text>
</a>
</g>
</g>
<!-- Node29&#45;&gt;Node31 -->
<g id="edge31" class="edge">
<title>Node29&#45;&gt;Node31</title>
<path fill="none" stroke="midnightblue" d="M214.95,-863.08C186.12,-857.64 152.04,-851.22 124.61,-846.04"/>
<polygon fill="midnightblue" stroke="midnightblue" points="214.44,-866.55 224.91,-864.96 215.73,-859.67 214.44,-866.55"/>
</g>
<!-- Node33 -->
<g id="node33" class="node">
<title>Node33</title>
<g id="a_node33"><a xlink:href="a00545.html#a460bb7fc7e69cf313e3902ae0101b459" target="_top" xlink:title="接受好友申请">
<polygon fill="white" stroke="black" points="3.5,-739.5 3.5,-769.5 142.5,-769.5 142.5,-739.5 3.5,-739.5"/>
<text text-anchor="start" x="11.5" y="-757.5" font-family="Helvetica,sans-Serif" font-size="10.00">MiraiCP::NewFriendRequest</text>
<text text-anchor="middle" x="73" y="-746.5" font-family="Helvetica,sans-Serif" font-size="10.00">Event::accept</text>
</a>
</g>
</g>
<!-- Node32&#45;&gt;Node33 -->
<g id="edge33" class="edge">
<title>Node32&#45;&gt;Node33</title>
<path fill="none" stroke="midnightblue" d="M197.84,-777.85C179.61,-774.42 160.31,-770.78 142.51,-767.42"/>
<polygon fill="midnightblue" stroke="midnightblue" points="197.37,-781.33 207.84,-779.74 198.66,-774.45 197.37,-781.33"/>
</g>
<!-- Node49&#45;&gt;Node23 -->
<g id="edge42" class="edge">
<title>Node49&#45;&gt;Node23</title>
<path fill="none" stroke="midnightblue" d="M199.83,-738.1C193.5,-735.54 187.45,-732.38 182,-728.5 119.05,-683.62 86.09,-589.51 76.79,-559.16"/>
<polygon fill="midnightblue" stroke="midnightblue" points="198.67,-741.41 209.26,-741.45 201.01,-734.81 198.67,-741.41"/>
</g>
</g>
</svg>
