<?xml version="1.0" encoding="UTF-8" standalone="no"?>
<!DOCTYPE svg PUBLIC "-//W3C//DTD SVG 1.1//EN"
 "http://www.w3.org/Graphics/SVG/1.1/DTD/svg11.dtd">
<!-- Generated by graphviz version 2.50.0 (20211204.2007)
 -->
<!-- Title: MiraiCP::BotOnlineEvent Pages: 1 -->
<svg width="241pt" height="592pt"
 viewBox="0.00 0.00 241.00 592.00" xmlns="http://www.w3.org/2000/svg" xmlns:xlink="http://www.w3.org/1999/xlink">
<g id="graph0" class="graph" transform="scale(1 1) rotate(0) translate(4 588)">
<title>MiraiCP::BotOnlineEvent</title>
<polygon fill="white" stroke="transparent" points="-4,4 -4,-588 237,-588 237,4 -4,4"/>
<!-- Node1 -->
<g id="node1" class="node">
<title>Node1</title>
<g id="a_node1"><a xlink:title="机器人上线事件">
<polygon fill="#bfbfbf" stroke="black" points="11.5,-0.5 11.5,-90.5 135.5,-90.5 135.5,-0.5 11.5,-0.5"/>
<text text-anchor="middle" x="73.5" y="-78.5" font-family="Helvetica,sans-Serif" font-size="10.00">MiraiCP::BotOnlineEvent</text>
<polyline fill="none" stroke="black" points="11.5,-71.5 135.5,-71.5 "/>
<text text-anchor="middle" x="73.5" y="-59.5" font-family="Helvetica,sans-Serif" font-size="10.00"> </text>
<polyline fill="none" stroke="black" points="11.5,-52.5 135.5,-52.5 "/>
<text text-anchor="start" x="19.5" y="-40.5" font-family="Helvetica,sans-Serif" font-size="10.00">+ BotOnlineEvent(QQID</text>
<text text-anchor="start" x="19.5" y="-29.5" font-family="Helvetica,sans-Serif" font-size="10.00"> botid)</text>
<text text-anchor="start" x="19.5" y="-18.5" font-family="Helvetica,sans-Serif" font-size="10.00">+ static eventTypes::</text>
<text text-anchor="start" x="19.5" y="-7.5" font-family="Helvetica,sans-Serif" font-size="10.00">Types get_event_type()</text>
</a>
</g>
</g>
<!-- Node2 -->
<g id="node2" class="node">
<title>Node2</title>
<g id="a_node2"><a xlink:href="a00476.html" target="_top" xlink:title=" ">
<polygon fill="white" stroke="black" points="0,-128.5 0,-251.5 147,-251.5 147,-128.5 0,-128.5"/>
<text text-anchor="start" x="8" y="-239.5" font-family="Helvetica,sans-Serif" font-size="10.00">MiraiCP::BotEvent&lt;</text>
<text text-anchor="middle" x="73.5" y="-228.5" font-family="Helvetica,sans-Serif" font-size="10.00"> BotOnlineEvent &gt;</text>
<polyline fill="none" stroke="black" points="0,-221.5 147,-221.5 "/>
<text text-anchor="start" x="8" y="-209.5" font-family="Helvetica,sans-Serif" font-size="10.00">+ Bot bot</text>
<text text-anchor="start" x="8" y="-198.5" font-family="Helvetica,sans-Serif" font-size="10.00">+ IdLogger botlogger</text>
<polyline fill="none" stroke="black" points="0,-191.5 147,-191.5 "/>
<text text-anchor="start" x="8" y="-179.5" font-family="Helvetica,sans-Serif" font-size="10.00">+ eventTypes::Types getEvent</text>
<text text-anchor="start" x="8" y="-168.5" font-family="Helvetica,sans-Serif" font-size="10.00">Type() const override</text>
<text text-anchor="start" x="8" y="-157.5" font-family="Helvetica,sans-Serif" font-size="10.00">+ BotEvent(QQID botid)</text>
<text text-anchor="start" x="8" y="-146.5" font-family="Helvetica,sans-Serif" font-size="10.00">+ ~BotEvent() override</text>
<text text-anchor="start" x="8" y="-135.5" font-family="Helvetica,sans-Serif" font-size="10.00">=default</text>
</a>
</g>
</g>
<!-- Node2&#45;&gt;Node1 -->
<g id="edge1" class="edge">
<title>Node2&#45;&gt;Node1</title>
<path fill="none" stroke="midnightblue" d="M73.5,-118.08C73.5,-108.77 73.5,-99.46 73.5,-90.77"/>
<polygon fill="none" stroke="midnightblue" points="70,-118.15 73.5,-128.15 77,-118.15 70,-118.15"/>
</g>
<!-- Node3 -->
<g id="node3" class="node">
<title>Node3</title>
<g id="a_node3"><a xlink:href="a00500.html" target="_top" xlink:title="Event抽象父类">
<polygon fill="white" stroke="black" points="7,-449.5 7,-583.5 132,-583.5 132,-449.5 7,-449.5"/>
<text text-anchor="middle" x="69.5" y="-571.5" font-family="Helvetica,sans-Serif" font-size="10.00">MiraiCP::MiraiCPEvent</text>
<polyline fill="none" stroke="black" points="7,-564.5 132,-564.5 "/>
<text text-anchor="middle" x="69.5" y="-552.5" font-family="Helvetica,sans-Serif" font-size="10.00"> </text>
<polyline fill="none" stroke="black" points="7,-545.5 132,-545.5 "/>
<text text-anchor="start" x="15" y="-533.5" font-family="Helvetica,sans-Serif" font-size="10.00">+ MiraiCPEvent()=default</text>
<text text-anchor="start" x="15" y="-522.5" font-family="Helvetica,sans-Serif" font-size="10.00">+ virtual ~MiraiCPEvent</text>
<text text-anchor="start" x="15" y="-511.5" font-family="Helvetica,sans-Serif" font-size="10.00">()=default</text>
<text text-anchor="start" x="15" y="-500.5" font-family="Helvetica,sans-Serif" font-size="10.00">+ virtual eventTypes</text>
<text text-anchor="start" x="15" y="-489.5" font-family="Helvetica,sans-Serif" font-size="10.00">::Types getEventType</text>
<text text-anchor="start" x="15" y="-478.5" font-family="Helvetica,sans-Serif" font-size="10.00">() const =0</text>
<text text-anchor="start" x="15" y="-467.5" font-family="Helvetica,sans-Serif" font-size="10.00">+ static eventTypes::</text>
<text text-anchor="start" x="15" y="-456.5" font-family="Helvetica,sans-Serif" font-size="10.00">Types get_event_type()</text>
</a>
</g>
</g>
<!-- Node3&#45;&gt;Node2 -->
<g id="edge2" class="edge">
<title>Node3&#45;&gt;Node2</title>
<path fill="none" stroke="midnightblue" d="M70.44,-439.36C71.14,-382.16 72.1,-304.85 72.75,-251.76"/>
<polygon fill="none" stroke="midnightblue" points="66.94,-439.4 70.31,-449.44 73.94,-439.49 66.94,-439.4"/>
</g>
<!-- Node4 -->
<g id="node4" class="node">
<title>Node4</title>
<g id="a_node4"><a xlink:href="a00476.html" target="_top" xlink:title="所有事件处理timeoutevent都是机器人事件，指都有机器人实例">
<polygon fill="white" stroke="black" points="86,-299.5 86,-411.5 233,-411.5 233,-299.5 86,-299.5"/>
<text text-anchor="middle" x="159.5" y="-399.5" font-family="Helvetica,sans-Serif" font-size="10.00">MiraiCP::BotEvent&lt; T &gt;</text>
<polyline fill="none" stroke="black" points="86,-392.5 233,-392.5 "/>
<text text-anchor="start" x="94" y="-380.5" font-family="Helvetica,sans-Serif" font-size="10.00">+ Bot bot</text>
<text text-anchor="start" x="94" y="-369.5" font-family="Helvetica,sans-Serif" font-size="10.00">+ IdLogger botlogger</text>
<polyline fill="none" stroke="black" points="86,-362.5 233,-362.5 "/>
<text text-anchor="start" x="94" y="-350.5" font-family="Helvetica,sans-Serif" font-size="10.00">+ eventTypes::Types getEvent</text>
<text text-anchor="start" x="94" y="-339.5" font-family="Helvetica,sans-Serif" font-size="10.00">Type() const override</text>
<text text-anchor="start" x="94" y="-328.5" font-family="Helvetica,sans-Serif" font-size="10.00">+ BotEvent(QQID botid)</text>
<text text-anchor="start" x="94" y="-317.5" font-family="Helvetica,sans-Serif" font-size="10.00">+ ~BotEvent() override</text>
<text text-anchor="start" x="94" y="-306.5" font-family="Helvetica,sans-Serif" font-size="10.00">=default</text>
</a>
</g>
</g>
<!-- Node3&#45;&gt;Node4 -->
<g id="edge4" class="edge">
<title>Node3&#45;&gt;Node4</title>
<path fill="none" stroke="midnightblue" d="M111.88,-440.63C117.34,-430.99 122.85,-421.25 128.09,-411.99"/>
<polygon fill="none" stroke="midnightblue" points="108.77,-439.02 106.89,-449.45 114.86,-442.47 108.77,-439.02"/>
</g>
<!-- Node4&#45;&gt;Node2 -->
<g id="edge3" class="edge">
<title>Node4&#45;&gt;Node2</title>
<path fill="none" stroke="orange" d="M125.6,-290.05C118.94,-277.39 111.98,-264.15 105.39,-251.63"/>
<polygon fill="orange" stroke="orange" points="122.63,-291.93 130.38,-299.15 128.83,-288.67 122.63,-291.93"/>
<text text-anchor="middle" x="162.5" y="-273" font-family="Helvetica,sans-Serif" font-size="10.00"> &lt; BotOnlineEvent &gt;</text>
</g>
</g>
</svg>
