<?xml version="1.0" encoding="UTF-8" standalone="no"?>
<!DOCTYPE svg PUBLIC "-//W3C//DTD SVG 1.1//EN"
 "http://www.w3.org/Graphics/SVG/1.1/DTD/svg11.dtd">
<!-- Generated by graphviz version 2.50.0 (20211204.2007)
 -->
<!-- Title: MiraiCP::Contact::sendVoiceImpl Pages: 1 -->
<svg width="1684pt" height="255pt"
 viewBox="0.00 0.00 1684.00 254.76" xmlns="http://www.w3.org/2000/svg" xmlns:xlink="http://www.w3.org/1999/xlink">
<g id="graph0" class="graph" transform="scale(1 1) rotate(0) translate(4 250.76)">
<title>MiraiCP::Contact::sendVoiceImpl</title>
<polygon fill="white" stroke="transparent" points="-4,4 -4,-250.76 1680,-250.76 1680,4 -4,4"/>
<!-- Node1 -->
<g id="node1" class="node">
<title>Node1</title>
<g id="a_node1"><a xlink:title="发送语音">
<polygon fill="#bfbfbf" stroke="black" points="0,-123.76 0,-142.76 161,-142.76 161,-123.76 0,-123.76"/>
<text text-anchor="middle" x="80.5" y="-130.76" font-family="Helvetica,sans-Serif" font-size="10.00">MiraiCP::Contact::sendVoiceImpl</text>
</a>
</g>
</g>
<!-- Node2 -->
<g id="node2" class="node">
<title>Node2</title>
<g id="a_node2"><a xlink:href="a00640.html#a1f98db6bbdf6b7d178bf92f55fd2e4dc" target="_top" xlink:title="从json字符串反序列化到MessageSource对象">
<polygon fill="white" stroke="black" points="197,-167.26 197,-197.26 325,-197.26 325,-167.26 197,-167.26"/>
<text text-anchor="start" x="205" y="-185.26" font-family="Helvetica,sans-Serif" font-size="10.00">MiraiCP::MessageSource</text>
<text text-anchor="middle" x="261" y="-174.26" font-family="Helvetica,sans-Serif" font-size="10.00">::deserializeFromString</text>
</a>
</g>
</g>
<!-- Node1&#45;&gt;Node2 -->
<g id="edge1" class="edge">
<title>Node1&#45;&gt;Node2</title>
<path fill="none" stroke="midnightblue" d="M116.34,-142.83C138.84,-149 168.8,-157.23 195.54,-164.57"/>
<polygon fill="midnightblue" stroke="midnightblue" points="194.65,-167.95 205.22,-167.22 196.51,-161.2 194.65,-167.95"/>
</g>
<!-- Node6 -->
<g id="node6" class="node">
<title>Node6</title>
<g id="a_node6"><a xlink:href="a00415.html#a309e8d7f316e8b5e947ea3bcddeb84a8" target="_top" xlink:title="调用 Mirai 操作">
<polygon fill="white" stroke="black" points="206.5,-118.26 206.5,-148.26 315.5,-148.26 315.5,-118.26 206.5,-118.26"/>
<text text-anchor="start" x="214.5" y="-136.26" font-family="Helvetica,sans-Serif" font-size="10.00">MiraiCP::KtOperation</text>
<text text-anchor="middle" x="261" y="-125.26" font-family="Helvetica,sans-Serif" font-size="10.00">::ktOperation</text>
</a>
</g>
</g>
<!-- Node1&#45;&gt;Node6 -->
<g id="edge5" class="edge">
<title>Node1&#45;&gt;Node6</title>
<path fill="none" stroke="midnightblue" d="M161.09,-133.26C172.84,-133.26 184.81,-133.26 196.18,-133.26"/>
<polygon fill="midnightblue" stroke="midnightblue" points="196.43,-136.76 206.43,-133.26 196.43,-129.76 196.43,-136.76"/>
</g>
<!-- Node18 -->
<g id="node18" class="node">
<title>Node18</title>
<g id="a_node18"><a xlink:href="a00448.html#a89fb588a12ff2d4de10722788945ea55" target="_top" xlink:title="序列化到json对象">
<polygon fill="white" stroke="black" points="198.5,-79.76 198.5,-98.76 323.5,-98.76 323.5,-79.76 198.5,-79.76"/>
<text text-anchor="middle" x="261" y="-86.76" font-family="Helvetica,sans-Serif" font-size="10.00">MiraiCP::Contact::toJson</text>
</a>
</g>
</g>
<!-- Node1&#45;&gt;Node18 -->
<g id="edge21" class="edge">
<title>Node1&#45;&gt;Node18</title>
<path fill="none" stroke="midnightblue" d="M120.23,-123.71C147.01,-117.11 182.85,-108.28 211.52,-101.21"/>
<polygon fill="midnightblue" stroke="midnightblue" points="212.47,-104.58 221.34,-98.79 210.8,-97.79 212.47,-104.58"/>
</g>
<!-- Node3 -->
<g id="node3" class="node">
<title>Node3</title>
<g id="a_node3"><a xlink:href="a00612.html#af14d39efa300da183070784bc86d3f23" target="_top" xlink:title="发送错误(error级日志)">
<polygon fill="white" stroke="black" points="361,-167.26 361,-197.26 489,-197.26 489,-167.26 361,-167.26"/>
<text text-anchor="start" x="369" y="-185.26" font-family="Helvetica,sans-Serif" font-size="10.00">MiraiCP::Logger_interface</text>
<text text-anchor="middle" x="425" y="-174.26" font-family="Helvetica,sans-Serif" font-size="10.00">::error</text>
</a>
</g>
</g>
<!-- Node2&#45;&gt;Node3 -->
<g id="edge2" class="edge">
<title>Node2&#45;&gt;Node3</title>
<path fill="none" stroke="midnightblue" d="M325.1,-182.26C333.43,-182.26 342.04,-182.26 350.53,-182.26"/>
<polygon fill="midnightblue" stroke="midnightblue" points="350.81,-185.76 360.81,-182.26 350.81,-178.76 350.81,-185.76"/>
</g>
<!-- Node4 -->
<g id="node4" class="node">
<title>Node4</title>
<g id="a_node4"><a xlink:href="a00612.html#a98af60f864a0446e23a7a27a3419d9b8" target="_top" xlink:title=" ">
<polygon fill="white" stroke="black" points="525,-216.26 525,-246.26 653,-246.26 653,-216.26 525,-216.26"/>
<text text-anchor="start" x="533" y="-234.26" font-family="Helvetica,sans-Serif" font-size="10.00">MiraiCP::Logger_interface</text>
<text text-anchor="middle" x="589" y="-223.26" font-family="Helvetica,sans-Serif" font-size="10.00">::constructString</text>
</a>
</g>
</g>
<!-- Node3&#45;&gt;Node4 -->
<g id="edge3" class="edge">
<title>Node3&#45;&gt;Node4</title>
<path fill="none" stroke="midnightblue" d="M475.93,-197.36C492.48,-202.37 511.07,-207.99 528.29,-213.2"/>
<polygon fill="midnightblue" stroke="midnightblue" points="527.65,-216.66 538.24,-216.21 529.68,-209.96 527.65,-216.66"/>
</g>
<!-- Node5 -->
<g id="node5" class="node">
<title>Node5</title>
<g id="a_node5"><a xlink:href="a00612.html#a86ea9d57475a3004be2a32b2c4c76371" target="_top" xlink:title="日志底层实现封装">
<polygon fill="white" stroke="black" points="525,-167.26 525,-197.26 653,-197.26 653,-167.26 525,-167.26"/>
<text text-anchor="start" x="533" y="-185.26" font-family="Helvetica,sans-Serif" font-size="10.00">MiraiCP::Logger_interface</text>
<text text-anchor="middle" x="589" y="-174.26" font-family="Helvetica,sans-Serif" font-size="10.00">::log_interface</text>
</a>
</g>
</g>
<!-- Node3&#45;&gt;Node5 -->
<g id="edge4" class="edge">
<title>Node3&#45;&gt;Node5</title>
<path fill="none" stroke="midnightblue" d="M489.1,-182.26C497.43,-182.26 506.04,-182.26 514.53,-182.26"/>
<polygon fill="midnightblue" stroke="midnightblue" points="514.81,-185.76 524.81,-182.26 514.81,-178.76 514.81,-185.76"/>
</g>
<!-- Node7 -->
<g id="node7" class="node">
<title>Node7</title>
<g id="a_node7"><a xlink:href="a00415.html#a1e1e498928eeaa1d7107033ff5fa881a" target="_top" xlink:title="调用 Mirai 操作">
<polygon fill="white" stroke="black" points="370.5,-118.26 370.5,-148.26 479.5,-148.26 479.5,-118.26 370.5,-118.26"/>
<text text-anchor="start" x="378.5" y="-136.26" font-family="Helvetica,sans-Serif" font-size="10.00">MiraiCP::KtOperation</text>
<text text-anchor="middle" x="425" y="-125.26" font-family="Helvetica,sans-Serif" font-size="10.00">::ktOperationStr</text>
</a>
</g>
</g>
<!-- Node6&#45;&gt;Node7 -->
<g id="edge6" class="edge">
<title>Node6&#45;&gt;Node7</title>
<path fill="none" stroke="midnightblue" d="M315.94,-133.26C330.15,-133.26 345.62,-133.26 360.29,-133.26"/>
<polygon fill="midnightblue" stroke="midnightblue" points="360.29,-136.76 370.29,-133.26 360.29,-129.76 360.29,-136.76"/>
</g>
<!-- Node8 -->
<g id="node8" class="node">
<title>Node8</title>
<g id="a_node8"><a xlink:href="a00408.html#a4c6ac4cf4ba5ff0adb7656708bbb67d0" target="_top" xlink:title="interfaces for plugins">
<polygon fill="white" stroke="black" points="535,-118.26 535,-148.26 643,-148.26 643,-118.26 535,-118.26"/>
<text text-anchor="start" x="543" y="-136.26" font-family="Helvetica,sans-Serif" font-size="10.00">LibLoader::LoaderApi</text>
<text text-anchor="middle" x="589" y="-125.26" font-family="Helvetica,sans-Serif" font-size="10.00">::pluginOperation</text>
</a>
</g>
</g>
<!-- Node7&#45;&gt;Node8 -->
<g id="edge7" class="edge">
<title>Node7&#45;&gt;Node8</title>
<path fill="none" stroke="midnightblue" d="M479.94,-133.26C494.3,-133.26 509.94,-133.26 524.75,-133.26"/>
<polygon fill="midnightblue" stroke="midnightblue" points="524.84,-136.76 534.84,-133.26 524.84,-129.76 524.84,-136.76"/>
</g>
<!-- Node9 -->
<g id="node9" class="node">
<title>Node9</title>
<g id="a_node9"><a xlink:href="a00740.html#acc90fdac094544c4ddd9d6fd13baa5da" target="_top" xlink:title=" ">
<polygon fill="white" stroke="black" points="689,-181.26 689,-211.26 824,-211.26 824,-181.26 689,-181.26"/>
<text text-anchor="start" x="697" y="-199.26" font-family="Helvetica,sans-Serif" font-size="10.00">MiraiCP::MiraiCPStringview</text>
<text text-anchor="middle" x="756.5" y="-188.26" font-family="Helvetica,sans-Serif" font-size="10.00">::c_str</text>
</a>
</g>
</g>
<!-- Node8&#45;&gt;Node9 -->
<g id="edge8" class="edge">
<title>Node8&#45;&gt;Node9</title>
<path fill="none" stroke="midnightblue" d="M629.64,-148.35C652.69,-157.12 681.93,-168.25 706.42,-177.58"/>
<polygon fill="midnightblue" stroke="midnightblue" points="705.3,-180.9 715.9,-181.19 707.8,-174.36 705.3,-180.9"/>
</g>
<!-- Node10 -->
<g id="node10" class="node">
<title>Node10</title>
<g id="a_node10"><a xlink:href="a00768.html#aea7d58ff9f04d6d4849c25a2506603a5" target="_top" xlink:title="取env,如果不存在重新获取">
<polygon fill="white" stroke="black" points="1313,-104.76 1313,-123.76 1432,-123.76 1432,-104.76 1313,-104.76"/>
<text text-anchor="middle" x="1372.5" y="-111.76" font-family="Helvetica,sans-Serif" font-size="10.00">JNIEnvManager::getEnv</text>
</a>
</g>
</g>
<!-- Node8&#45;&gt;Node10 -->
<g id="edge9" class="edge">
<title>Node8&#45;&gt;Node10</title>
<path fill="none" stroke="midnightblue" d="M643.18,-138.2C708.44,-143.83 822.51,-152.26 920.5,-152.26 920.5,-152.26 920.5,-152.26 1081.5,-152.26 1163.89,-152.26 1258.34,-137 1316.46,-125.82"/>
<polygon fill="midnightblue" stroke="midnightblue" points="1317.39,-129.2 1326.53,-123.85 1316.05,-122.33 1317.39,-129.2"/>
</g>
<!-- Node13 -->
<g id="node13" class="node">
<title>Node13</title>
<g id="a_node13"><a xlink:href="a00407.html#aa5f8d0ecd9dd392b491070aace643ae3" target="_top" xlink:title=" ">
<polygon fill="white" stroke="black" points="868,-104.76 868,-123.76 975,-123.76 975,-104.76 868,-104.76"/>
<text text-anchor="middle" x="921.5" y="-111.76" font-family="Helvetica,sans-Serif" font-size="10.00">LibLoader::jstring2str</text>
</a>
</g>
</g>
<!-- Node8&#45;&gt;Node13 -->
<g id="edge12" class="edge">
<title>Node8&#45;&gt;Node13</title>
<path fill="none" stroke="midnightblue" d="M643.1,-130.21C701.61,-126.84 795.63,-121.44 857.74,-117.87"/>
<polygon fill="midnightblue" stroke="midnightblue" points="858.02,-121.36 867.8,-117.29 857.62,-114.37 858.02,-121.36"/>
</g>
<!-- Node15 -->
<g id="node15" class="node">
<title>Node15</title>
<g id="a_node15"><a xlink:href="a00407.html#a6a6fcd695791253a9b3a053d313b2b93" target="_top" xlink:title=" ">
<polygon fill="white" stroke="black" points="703,-44.76 703,-63.76 810,-63.76 810,-44.76 703,-44.76"/>
<text text-anchor="middle" x="756.5" y="-51.76" font-family="Helvetica,sans-Serif" font-size="10.00">LibLoader::str2jstring</text>
</a>
</g>
</g>
<!-- Node8&#45;&gt;Node15 -->
<g id="edge15" class="edge">
<title>Node8&#45;&gt;Node15</title>
<path fill="none" stroke="midnightblue" d="M621.52,-118.22C651.68,-103.82 696.82,-82.27 726.22,-68.24"/>
<polygon fill="midnightblue" stroke="midnightblue" points="728.02,-71.26 735.54,-63.79 725.01,-64.94 728.02,-71.26"/>
</g>
<!-- Node11 -->
<g id="node11" class="node">
<title>Node11</title>
<g id="a_node11"><a xlink:href="a00200.html#a3d31403b7971274d47d308245206bd24" target="_top" xlink:title="为当前线程创建一个env.">
<polygon fill="white" stroke="black" points="1468,-104.76 1468,-123.76 1518,-123.76 1518,-104.76 1468,-104.76"/>
<text text-anchor="middle" x="1493" y="-111.76" font-family="Helvetica,sans-Serif" font-size="10.00">newEnv</text>
</a>
</g>
</g>
<!-- Node10&#45;&gt;Node11 -->
<g id="edge10" class="edge">
<title>Node10&#45;&gt;Node11</title>
<path fill="none" stroke="midnightblue" d="M1432.06,-114.26C1440.89,-114.26 1449.75,-114.26 1457.85,-114.26"/>
<polygon fill="midnightblue" stroke="midnightblue" points="1457.98,-117.76 1467.98,-114.26 1457.98,-110.76 1457.98,-117.76"/>
</g>
<!-- Node12 -->
<g id="node12" class="node">
<title>Node12</title>
<g id="a_node12"><a xlink:href="a00768.html#ae0e482c6a813848a8f5d34957d1b6307" target="_top" xlink:title="获取全局JavaVM对象.">
<polygon fill="white" stroke="black" points="1554,-104.76 1554,-123.76 1676,-123.76 1676,-104.76 1554,-104.76"/>
<text text-anchor="middle" x="1615" y="-111.76" font-family="Helvetica,sans-Serif" font-size="10.00">JNIEnvManager::getGvm</text>
</a>
</g>
</g>
<!-- Node11&#45;&gt;Node12 -->
<g id="edge11" class="edge">
<title>Node11&#45;&gt;Node12</title>
<path fill="none" stroke="midnightblue" d="M1518.28,-114.26C1525.75,-114.26 1534.37,-114.26 1543.32,-114.26"/>
<polygon fill="midnightblue" stroke="midnightblue" points="1543.52,-117.76 1553.52,-114.26 1543.52,-110.76 1543.52,-117.76"/>
</g>
<!-- Node14 -->
<g id="node14" class="node">
<title>Node14</title>
<g id="a_node14"><a xlink:href="a00411.html#a076c5f4ff8083c7cfc6523498d0ba30f" target="_top" xlink:title=" ">
<polygon fill="white" stroke="black" points="1178,-77.26 1178,-107.26 1277,-107.26 1277,-77.26 1178,-77.26"/>
<text text-anchor="start" x="1186" y="-95.26" font-family="Helvetica,sans-Serif" font-size="10.00">LibLoader::JNIEnvs</text>
<text text-anchor="middle" x="1227.5" y="-84.26" font-family="Helvetica,sans-Serif" font-size="10.00">::getEnv</text>
</a>
</g>
</g>
<!-- Node13&#45;&gt;Node14 -->
<g id="edge13" class="edge">
<title>Node13&#45;&gt;Node14</title>
<path fill="none" stroke="midnightblue" d="M975.11,-110.45C1028.7,-106.58 1111.65,-100.57 1167.46,-96.53"/>
<polygon fill="midnightblue" stroke="midnightblue" points="1167.83,-100.02 1177.55,-95.8 1167.32,-93.03 1167.83,-100.02"/>
</g>
<!-- Node14&#45;&gt;Node10 -->
<g id="edge14" class="edge">
<title>Node14&#45;&gt;Node10</title>
<path fill="none" stroke="midnightblue" d="M1277.31,-99.77C1285.51,-101.03 1294.16,-102.36 1302.75,-103.68"/>
<polygon fill="midnightblue" stroke="midnightblue" points="1302.36,-107.17 1312.78,-105.23 1303.43,-100.25 1302.36,-107.17"/>
</g>
<!-- Node15&#45;&gt;Node14 -->
<g id="edge16" class="edge">
<title>Node15&#45;&gt;Node14</title>
<path fill="none" stroke="midnightblue" d="M810.39,-58.55C898.71,-65.7 1075.59,-80.03 1167.7,-87.5"/>
<polygon fill="midnightblue" stroke="midnightblue" points="1167.44,-90.99 1177.69,-88.31 1168.01,-84.01 1167.44,-90.99"/>
</g>
<!-- Node16 -->
<g id="node16" class="node">
<title>Node16</title>
<g id="a_node16"><a xlink:href="a00800.html#af50d0545fe7d683e54fcd03453a423e3" target="_top" xlink:title=" ">
<polygon fill="white" stroke="black" points="860,-17.26 860,-47.26 983,-47.26 983,-17.26 860,-17.26"/>
<text text-anchor="start" x="868" y="-35.26" font-family="Helvetica,sans-Serif" font-size="10.00">LibLoader::LoaderLogger</text>
<text text-anchor="middle" x="921.5" y="-24.26" font-family="Helvetica,sans-Serif" font-size="10.00">::warning</text>
</a>
</g>
</g>
<!-- Node15&#45;&gt;Node16 -->
<g id="edge17" class="edge">
<title>Node15&#45;&gt;Node16</title>
<path fill="none" stroke="midnightblue" d="M810.42,-47.12C823.01,-45.42 836.65,-43.58 849.89,-41.79"/>
<polygon fill="midnightblue" stroke="midnightblue" points="850.48,-45.24 859.92,-40.44 849.54,-38.31 850.48,-45.24"/>
</g>
<!-- Node17 -->
<g id="node17" class="node">
<title>Node17</title>
<g id="a_node17"><a xlink:href="a00800.html#af4d7d5164450e25f7401d1cc15f15b8d" target="_top" xlink:title="实际暴露的接口">
<polygon fill="white" stroke="black" points="1019,-17.26 1019,-47.26 1142,-47.26 1142,-17.26 1019,-17.26"/>
<text text-anchor="start" x="1027" y="-35.26" font-family="Helvetica,sans-Serif" font-size="10.00">LibLoader::LoaderLogger</text>
<text text-anchor="middle" x="1080.5" y="-24.26" font-family="Helvetica,sans-Serif" font-size="10.00">::call_logger</text>
</a>
</g>
</g>
<!-- Node16&#45;&gt;Node17 -->
<g id="edge18" class="edge">
<title>Node16&#45;&gt;Node17</title>
<path fill="none" stroke="midnightblue" d="M983.2,-32.26C991.64,-32.26 1000.36,-32.26 1008.95,-32.26"/>
<polygon fill="midnightblue" stroke="midnightblue" points="1008.96,-35.76 1018.96,-32.26 1008.96,-28.76 1008.96,-35.76"/>
</g>
<!-- Node17&#45;&gt;Node14 -->
<g id="edge19" class="edge">
<title>Node17&#45;&gt;Node14</title>
<path fill="none" stroke="midnightblue" d="M1118.09,-47.4C1137.14,-55.28 1160.61,-65 1180.84,-73.37"/>
<polygon fill="midnightblue" stroke="midnightblue" points="1179.6,-76.64 1190.17,-77.23 1182.27,-70.17 1179.6,-76.64"/>
</g>
<!-- Node17&#45;&gt;Node15 -->
<g id="edge20" class="edge">
<title>Node17&#45;&gt;Node15</title>
<path fill="none" stroke="midnightblue" d="M1031.37,-17.24C1016.07,-13.15 998.97,-9.3 983,-7.26 928.77,-0.35 913.41,4.4 860,-7.26 831.6,-13.46 801.66,-28.28 781.52,-39.64"/>
<polygon fill="midnightblue" stroke="midnightblue" points="779.64,-36.68 772.74,-44.72 783.15,-42.74 779.64,-36.68"/>
</g>
</g>
</svg>
