<?xml version="1.0" encoding="UTF-8" standalone="no"?>
<!DOCTYPE svg PUBLIC "-//W3C//DTD SVG 1.1//EN"
 "http://www.w3.org/Graphics/SVG/1.1/DTD/svg11.dtd">
<!-- Generated by graphviz version 2.50.0 (20211204.2007)
 -->
<!-- Title: MiraiCP::IContactData Pages: 1 -->
<svg width="389pt" height="953pt"
 viewBox="0.00 0.00 388.50 953.00" xmlns="http://www.w3.org/2000/svg" xmlns:xlink="http://www.w3.org/1999/xlink">
<g id="graph0" class="graph" transform="scale(1 1) rotate(0) translate(4 949)">
<title>MiraiCP::IContactData</title>
<polygon fill="white" stroke="transparent" points="-4,4 -4,-949 384.5,-949 384.5,4 -4,4"/>
<!-- Node1 -->
<g id="node1" class="node">
<title>Node1</title>
<g id="a_node1"><a xlink:title="Contact 内部储存数据抽象类">
<polygon fill="#bfbfbf" stroke="black" points="95,-0.5 95,-222.5 235,-222.5 235,-0.5 95,-0.5"/>
<text text-anchor="middle" x="165" y="-210.5" font-family="Helvetica,sans-Serif" font-size="10.00">MiraiCP::IContactData</text>
<polyline fill="none" stroke="black" points="95,-203.5 235,-203.5 "/>
<text text-anchor="middle" x="165" y="-191.5" font-family="Helvetica,sans-Serif" font-size="10.00"> </text>
<polyline fill="none" stroke="black" points="95,-184.5 235,-184.5 "/>
<text text-anchor="start" x="103" y="-172.5" font-family="Helvetica,sans-Serif" font-size="10.00">+ void deserialize(nlohmann</text>
<text text-anchor="start" x="103" y="-161.5" font-family="Helvetica,sans-Serif" font-size="10.00">::json inJson) override</text>
<text text-anchor="start" x="103" y="-150.5" font-family="Helvetica,sans-Serif" font-size="10.00">+ nlohmann::json internalTo</text>
<text text-anchor="start" x="103" y="-139.5" font-family="Helvetica,sans-Serif" font-size="10.00">Json() const override</text>
<text text-anchor="start" x="103" y="-128.5" font-family="Helvetica,sans-Serif" font-size="10.00">+ void refreshInfo()</text>
<text text-anchor="start" x="103" y="-117.5" font-family="Helvetica,sans-Serif" font-size="10.00"> override</text>
<text text-anchor="start" x="103" y="-106.5" font-family="Helvetica,sans-Serif" font-size="10.00">+ void updateJson(nlohmann</text>
<text text-anchor="start" x="103" y="-95.5" font-family="Helvetica,sans-Serif" font-size="10.00">::json &amp;jsonToUpdate) const</text>
<text text-anchor="start" x="103" y="-84.5" font-family="Helvetica,sans-Serif" font-size="10.00">+ void deserialize(nlohmann</text>
<text text-anchor="start" x="103" y="-73.5" font-family="Helvetica,sans-Serif" font-size="10.00">::json inJson) override</text>
<text text-anchor="start" x="103" y="-62.5" font-family="Helvetica,sans-Serif" font-size="10.00">+ nlohmann::json internalTo</text>
<text text-anchor="start" x="103" y="-51.5" font-family="Helvetica,sans-Serif" font-size="10.00">Json() const override</text>
<text text-anchor="start" x="103" y="-40.5" font-family="Helvetica,sans-Serif" font-size="10.00">+ void refreshInfo()</text>
<text text-anchor="start" x="103" y="-29.5" font-family="Helvetica,sans-Serif" font-size="10.00"> override</text>
<text text-anchor="start" x="103" y="-18.5" font-family="Helvetica,sans-Serif" font-size="10.00">+ void updateJson(nlohmann</text>
<text text-anchor="start" x="103" y="-7.5" font-family="Helvetica,sans-Serif" font-size="10.00">::json &amp;jsonToUpdate) const</text>
</a>
</g>
</g>
<!-- Node2 -->
<g id="node2" class="node">
<title>Node2</title>
<g id="a_node2"><a xlink:href="a00680.html" target="_top" xlink:title="声明 Contact 类数据安全锁接口以及部分实现的抽象类">
<polygon fill="white" stroke="black" points="7,-281.5 7,-723.5 153,-723.5 153,-281.5 7,-281.5"/>
<text text-anchor="middle" x="80" y="-711.5" font-family="Helvetica,sans-Serif" font-size="10.00">MiraiCP::IMiraiData</text>
<polyline fill="none" stroke="black" points="7,-704.5 153,-704.5 "/>
<text text-anchor="middle" x="80" y="-692.5" font-family="Helvetica,sans-Serif" font-size="10.00"> </text>
<polyline fill="none" stroke="black" points="7,-685.5 153,-685.5 "/>
<text text-anchor="start" x="15" y="-673.5" font-family="Helvetica,sans-Serif" font-size="10.00">+ IMiraiData()=default</text>
<text text-anchor="start" x="15" y="-662.5" font-family="Helvetica,sans-Serif" font-size="10.00">+ virtual ~IMiraiData</text>
<text text-anchor="start" x="15" y="-651.5" font-family="Helvetica,sans-Serif" font-size="10.00">()=default</text>
<text text-anchor="start" x="15" y="-640.5" font-family="Helvetica,sans-Serif" font-size="10.00">+ nlohmann::json toJson</text>
<text text-anchor="start" x="15" y="-629.5" font-family="Helvetica,sans-Serif" font-size="10.00">() const</text>
<text text-anchor="start" x="15" y="-618.5" font-family="Helvetica,sans-Serif" font-size="10.00">+ void requestRefresh()</text>
<text text-anchor="start" x="15" y="-607.5" font-family="Helvetica,sans-Serif" font-size="10.00">+ void forceRefreshNextTime()</text>
<text text-anchor="start" x="15" y="-596.5" font-family="Helvetica,sans-Serif" font-size="10.00">+ std::string toString</text>
<text text-anchor="start" x="15" y="-585.5" font-family="Helvetica,sans-Serif" font-size="10.00">() const</text>
<text text-anchor="start" x="15" y="-574.5" font-family="Helvetica,sans-Serif" font-size="10.00">+ std::shared_mutex &amp;</text>
<text text-anchor="start" x="15" y="-563.5" font-family="Helvetica,sans-Serif" font-size="10.00"> getMutex()</text>
<text text-anchor="start" x="15" y="-552.5" font-family="Helvetica,sans-Serif" font-size="10.00">+ IMiraiData()=default</text>
<text text-anchor="start" x="15" y="-541.5" font-family="Helvetica,sans-Serif" font-size="10.00">+ virtual ~IMiraiData</text>
<text text-anchor="start" x="15" y="-530.5" font-family="Helvetica,sans-Serif" font-size="10.00">()=default</text>
<text text-anchor="start" x="15" y="-519.5" font-family="Helvetica,sans-Serif" font-size="10.00">+ nlohmann::json toJson</text>
<text text-anchor="start" x="15" y="-508.5" font-family="Helvetica,sans-Serif" font-size="10.00">() const</text>
<text text-anchor="start" x="15" y="-497.5" font-family="Helvetica,sans-Serif" font-size="10.00">+ void requestRefresh()</text>
<text text-anchor="start" x="15" y="-486.5" font-family="Helvetica,sans-Serif" font-size="10.00">+ void forceRefreshNextTime()</text>
<text text-anchor="start" x="15" y="-475.5" font-family="Helvetica,sans-Serif" font-size="10.00">+ std::string toString</text>
<text text-anchor="start" x="15" y="-464.5" font-family="Helvetica,sans-Serif" font-size="10.00">() const</text>
<text text-anchor="start" x="15" y="-453.5" font-family="Helvetica,sans-Serif" font-size="10.00">+ std::shared_mutex &amp;</text>
<text text-anchor="start" x="15" y="-442.5" font-family="Helvetica,sans-Serif" font-size="10.00"> getMutex()</text>
<text text-anchor="start" x="15" y="-431.5" font-family="Helvetica,sans-Serif" font-size="10.00"># virtual void deserialize</text>
<text text-anchor="start" x="15" y="-420.5" font-family="Helvetica,sans-Serif" font-size="10.00">(nlohmann::json in_json)=0</text>
<text text-anchor="start" x="15" y="-409.5" font-family="Helvetica,sans-Serif" font-size="10.00"># virtual nlohmann::json</text>
<text text-anchor="start" x="15" y="-398.5" font-family="Helvetica,sans-Serif" font-size="10.00"> internalToJson() const =0</text>
<text text-anchor="start" x="15" y="-387.5" font-family="Helvetica,sans-Serif" font-size="10.00"># nlohmann::json internalTo</text>
<text text-anchor="start" x="15" y="-376.5" font-family="Helvetica,sans-Serif" font-size="10.00">String() const</text>
<text text-anchor="start" x="15" y="-365.5" font-family="Helvetica,sans-Serif" font-size="10.00"># virtual void deserialize</text>
<text text-anchor="start" x="15" y="-354.5" font-family="Helvetica,sans-Serif" font-size="10.00">(nlohmann::json in_json)=0</text>
<text text-anchor="start" x="15" y="-343.5" font-family="Helvetica,sans-Serif" font-size="10.00"># virtual nlohmann::json</text>
<text text-anchor="start" x="15" y="-332.5" font-family="Helvetica,sans-Serif" font-size="10.00"> internalToJson() const =0</text>
<text text-anchor="start" x="15" y="-321.5" font-family="Helvetica,sans-Serif" font-size="10.00"># nlohmann::json internalTo</text>
<text text-anchor="start" x="15" y="-310.5" font-family="Helvetica,sans-Serif" font-size="10.00">String() const</text>
<text text-anchor="start" x="15" y="-299.5" font-family="Helvetica,sans-Serif" font-size="10.00">&#45; virtual void refreshInfo()=0</text>
<text text-anchor="start" x="15" y="-288.5" font-family="Helvetica,sans-Serif" font-size="10.00">&#45; virtual void refreshInfo()=0</text>
</a>
</g>
</g>
<!-- Node2&#45;&gt;Node1 -->
<g id="edge1" class="edge">
<title>Node2&#45;&gt;Node1</title>
<path fill="none" stroke="midnightblue" d="M123.61,-271.47C127.39,-254.64 131.15,-238.18 134.79,-222.6"/>
<polygon fill="none" stroke="midnightblue" points="120.16,-270.9 121.39,-281.42 126.99,-272.43 120.16,-270.9"/>
</g>
<!-- Node2&#45;&gt;Node1 -->
<g id="edge5" class="edge">
<title>Node2&#45;&gt;Node1</title>
<path fill="none" stroke="midnightblue" d="M136.91,-271.47C140.49,-254.64 143.92,-238.18 147.09,-222.6"/>
<polygon fill="none" stroke="midnightblue" points="133.45,-270.91 134.79,-281.42 140.3,-272.38 133.45,-270.91"/>
</g>
<!-- Node3 -->
<g id="node3" class="node">
<title>Node3</title>
<g id="a_node3"><a xlink:href="a00684.html" target="_top" xlink:title="锁">
<polygon fill="white" stroke="black" points="29.5,-771.5 29.5,-839.5 130.5,-839.5 130.5,-771.5 29.5,-771.5"/>
<text text-anchor="start" x="37.5" y="-827.5" font-family="Helvetica,sans-Serif" font-size="10.00">MiraiCP::IMiraiData</text>
<text text-anchor="middle" x="80" y="-816.5" font-family="Helvetica,sans-Serif" font-size="10.00">::MiraiDataLocker</text>
<polyline fill="none" stroke="black" points="29.5,-809.5 130.5,-809.5 "/>
<text text-anchor="middle" x="80" y="-797.5" font-family="Helvetica,sans-Serif" font-size="10.00"> </text>
<polyline fill="none" stroke="black" points="29.5,-790.5 130.5,-790.5 "/>
<text text-anchor="middle" x="80" y="-778.5" font-family="Helvetica,sans-Serif" font-size="10.00"> </text>
</a>
</g>
</g>
<!-- Node3&#45;&gt;Node2 -->
<g id="edge2" class="edge">
<title>Node3&#45;&gt;Node2</title>
<path fill="none" stroke="#404040" d="M80,-771.43C80,-761.21 80,-749.09 80,-735.73"/>
<polygon fill="none" stroke="#404040" points="80,-735.7 76,-729.7 80,-723.7 84,-729.7 80,-735.7"/>
<text text-anchor="middle" x="99" y="-745" font-family="Helvetica,sans-Serif" font-size="10.00"> #Locker</text>
</g>
<!-- Node4 -->
<g id="node4" class="node">
<title>Node4</title>
<g id="a_node4"><a xlink:title=" ">
<polygon fill="white" stroke="#bfbfbf" points="0,-887.5 0,-944.5 78,-944.5 78,-887.5 0,-887.5"/>
<text text-anchor="middle" x="39" y="-932.5" font-family="Helvetica,sans-Serif" font-size="10.00">shared_mutex</text>
<polyline fill="none" stroke="#bfbfbf" points="0,-925.5 78,-925.5 "/>
<text text-anchor="middle" x="39" y="-913.5" font-family="Helvetica,sans-Serif" font-size="10.00"> </text>
<polyline fill="none" stroke="#bfbfbf" points="0,-906.5 78,-906.5 "/>
<text text-anchor="middle" x="39" y="-894.5" font-family="Helvetica,sans-Serif" font-size="10.00"> </text>
</a>
</g>
</g>
<!-- Node4&#45;&gt;Node3 -->
<g id="edge3" class="edge">
<title>Node4&#45;&gt;Node3</title>
<path fill="none" stroke="#404040" d="M49.45,-887.34C53.62,-876.3 58.53,-863.31 63.18,-851.01"/>
<polygon fill="none" stroke="#404040" points="63.28,-850.74 61.66,-843.72 67.52,-839.52 69.14,-846.55 63.28,-850.74"/>
<text text-anchor="middle" x="75.5" y="-861" font-family="Helvetica,sans-Serif" font-size="10.00"> +_mtx</text>
</g>
<!-- Node5 -->
<g id="node5" class="node">
<title>Node5</title>
<g id="a_node5"><a xlink:title=" ">
<polygon fill="white" stroke="#bfbfbf" points="96,-887.5 96,-944.5 148,-944.5 148,-887.5 96,-887.5"/>
<text text-anchor="middle" x="122" y="-932.5" font-family="Helvetica,sans-Serif" font-size="10.00">atomic&lt;</text>
<polyline fill="none" stroke="#bfbfbf" points="96,-925.5 148,-925.5 "/>
<text text-anchor="middle" x="122" y="-913.5" font-family="Helvetica,sans-Serif" font-size="10.00"> </text>
<polyline fill="none" stroke="#bfbfbf" points="96,-906.5 148,-906.5 "/>
<text text-anchor="middle" x="122" y="-894.5" font-family="Helvetica,sans-Serif" font-size="10.00"> </text>
</a>
</g>
</g>
<!-- Node5&#45;&gt;Node3 -->
<g id="edge4" class="edge">
<title>Node5&#45;&gt;Node3</title>
<path fill="none" stroke="#404040" d="M111.29,-887.34C107.02,-876.3 101.99,-863.31 97.23,-851.01"/>
<polygon fill="none" stroke="#404040" points="97.11,-850.71 91.22,-846.56 92.78,-839.52 98.68,-843.67 97.11,-850.71"/>
<text text-anchor="middle" x="123" y="-861" font-family="Helvetica,sans-Serif" font-size="10.00"> +_inited</text>
</g>
<!-- Node6 -->
<g id="node6" class="node">
<title>Node6</title>
<g id="a_node6"><a xlink:title=" ">
<polygon fill="white" stroke="#bfbfbf" points="171.5,-474 171.5,-531 212.5,-531 212.5,-474 171.5,-474"/>
<text text-anchor="middle" x="192" y="-519" font-family="Helvetica,sans-Serif" font-size="10.00">string</text>
<polyline fill="none" stroke="#bfbfbf" points="171.5,-512 212.5,-512 "/>
<text text-anchor="middle" x="192" y="-500" font-family="Helvetica,sans-Serif" font-size="10.00"> </text>
<polyline fill="none" stroke="#bfbfbf" points="171.5,-493 212.5,-493 "/>
<text text-anchor="middle" x="192" y="-481" font-family="Helvetica,sans-Serif" font-size="10.00"> </text>
</a>
</g>
</g>
<!-- Node6&#45;&gt;Node1 -->
<g id="edge6" class="edge">
<title>Node6&#45;&gt;Node1</title>
<path fill="none" stroke="#404040" d="M188.03,-473.67C181.91,-429.25 170.41,-339.51 166,-263 165.47,-253.83 165.07,-244.34 164.77,-234.79"/>
<polygon fill="none" stroke="#404040" points="164.76,-234.68 160.6,-228.79 164.44,-222.68 168.6,-228.57 164.76,-234.68"/>
<text text-anchor="middle" x="209" y="-255" font-family="Helvetica,sans-Serif" font-size="10.00"> +_avatarUrl</text>
<text text-anchor="middle" x="209" y="-244" font-family="Helvetica,sans-Serif" font-size="10.00">+_nickOrNameCard</text>
</g>
<!-- Node7 -->
<g id="node7" class="node">
<title>Node7</title>
<g id="a_node7"><a xlink:title=" ">
<polygon fill="white" stroke="#bfbfbf" points="256.5,-474 256.5,-531 291.5,-531 291.5,-474 256.5,-474"/>
<text text-anchor="middle" x="274" y="-519" font-family="Helvetica,sans-Serif" font-size="10.00">long</text>
<polyline fill="none" stroke="#bfbfbf" points="256.5,-512 291.5,-512 "/>
<text text-anchor="middle" x="274" y="-500" font-family="Helvetica,sans-Serif" font-size="10.00"> </text>
<polyline fill="none" stroke="#bfbfbf" points="256.5,-493 291.5,-493 "/>
<text text-anchor="middle" x="274" y="-481" font-family="Helvetica,sans-Serif" font-size="10.00"> </text>
</a>
</g>
</g>
<!-- Node7&#45;&gt;Node1 -->
<g id="edge7" class="edge">
<title>Node7&#45;&gt;Node1</title>
<path fill="none" stroke="#404040" d="M276.14,-473.93C278.95,-425.32 280.58,-321.88 252,-241 248.91,-232.25 245.07,-223.52 240.75,-214.98"/>
<polygon fill="none" stroke="#404040" points="240.68,-214.85 234.33,-211.44 235.03,-204.26 241.38,-207.68 240.68,-214.85"/>
<text text-anchor="middle" x="276" y="-255" font-family="Helvetica,sans-Serif" font-size="10.00"> +_botId</text>
<text text-anchor="middle" x="276" y="-244" font-family="Helvetica,sans-Serif" font-size="10.00">+_id</text>
</g>
<!-- Node8 -->
<g id="node8" class="node">
<title>Node8</title>
<g id="a_node8"><a xlink:title=" ">
<polygon fill="white" stroke="#bfbfbf" points="309.5,-474 309.5,-531 380.5,-531 380.5,-474 309.5,-474"/>
<text text-anchor="middle" x="345" y="-519" font-family="Helvetica,sans-Serif" font-size="10.00">ContactType</text>
<polyline fill="none" stroke="#bfbfbf" points="309.5,-512 380.5,-512 "/>
<text text-anchor="middle" x="345" y="-500" font-family="Helvetica,sans-Serif" font-size="10.00"> </text>
<polyline fill="none" stroke="#bfbfbf" points="309.5,-493 380.5,-493 "/>
<text text-anchor="middle" x="345" y="-481" font-family="Helvetica,sans-Serif" font-size="10.00"> </text>
</a>
</g>
</g>
<!-- Node8&#45;&gt;Node1 -->
<g id="edge8" class="edge">
<title>Node8&#45;&gt;Node1</title>
<path fill="none" stroke="#404040" d="M345.44,-473.84C345.1,-424.21 339.14,-318.02 298,-241 284.57,-215.85 264.45,-192.68 243.9,-173.15"/>
<polygon fill="none" stroke="#404040" points="243.9,-173.15 236.77,-172.02 235.08,-165.01 242.2,-166.14 243.9,-173.15"/>
<text text-anchor="middle" x="324" y="-249.5" font-family="Helvetica,sans-Serif" font-size="10.00"> +_type</text>
</g>
</g>
</svg>
