<?xml version="1.0" encoding="UTF-8" standalone="no"?>
<!DOCTYPE svg PUBLIC "-//W3C//DTD SVG 1.1//EN"
 "http://www.w3.org/Graphics/SVG/1.1/DTD/svg11.dtd">
<!-- Generated by graphviz version 2.50.0 (20211204.2007)
 -->
<!-- Title: MiraiCP::Event::broadcast Pages: 1 -->
<svg width="490pt" height="137pt"
 viewBox="0.00 0.00 490.00 137.00" xmlns="http://www.w3.org/2000/svg" xmlns:xlink="http://www.w3.org/1999/xlink">
<g id="graph0" class="graph" transform="scale(1 1) rotate(0) translate(4 133)">
<title>MiraiCP::Event::broadcast</title>
<polygon fill="white" stroke="transparent" points="-4,4 -4,-133 486,-133 486,4 -4,4"/>
<!-- Node1 -->
<g id="node1" class="node">
<title>Node1</title>
<g id="a_node1"><a xlink:title="广播一个事件, 必须为MiraiCPEvent的派生类">
<polygon fill="#bfbfbf" stroke="black" points="352,-55 352,-74 482,-74 482,-55 352,-55"/>
<text text-anchor="middle" x="417" y="-62" font-family="Helvetica,sans-Serif" font-size="10.00">MiraiCP::Event::broadcast</text>
</a>
</g>
</g>
<!-- Node2 -->
<g id="node2" class="node">
<title>Node2</title>
<g id="a_node2"><a xlink:href="a00465.html#aca8d122b5ac259f28f372f02cdd38930" target="_top" xlink:title=" ">
<polygon fill="white" stroke="black" points="183,-98.5 183,-128.5 309,-128.5 309,-98.5 183,-98.5"/>
<text text-anchor="start" x="191" y="-116.5" font-family="Helvetica,sans-Serif" font-size="10.00">MiraiCP::Event::incoming</text>
<text text-anchor="middle" x="246" y="-105.5" font-family="Helvetica,sans-Serif" font-size="10.00">Event</text>
</a>
</g>
</g>
<!-- Node1&#45;&gt;Node2 -->
<g id="edge1" class="edge">
<title>Node1&#45;&gt;Node2</title>
<path fill="none" stroke="midnightblue" d="M373.35,-76.87C350.72,-83.43 322.74,-91.54 298.86,-98.46"/>
<polygon fill="midnightblue" stroke="midnightblue" points="374.38,-80.21 383.01,-74.06 372.43,-73.49 374.38,-80.21"/>
</g>
<!-- Node3 -->
<g id="node3" class="node">
<title>Node3</title>
<g id="a_node3"><a xlink:href="a00649.html#a0fc8daf263296676e2714fd681c401d2" target="_top" xlink:title=" ">
<polygon fill="white" stroke="black" points="176,-49.5 176,-79.5 316,-79.5 316,-49.5 176,-49.5"/>
<text text-anchor="start" x="184" y="-67.5" font-family="Helvetica,sans-Serif" font-size="10.00">MiraiCP::MiraiCPNewThread</text>
<text text-anchor="middle" x="246" y="-56.5" font-family="Helvetica,sans-Serif" font-size="10.00">::threadExceptionBroadcast</text>
</a>
</g>
</g>
<!-- Node1&#45;&gt;Node3 -->
<g id="edge2" class="edge">
<title>Node1&#45;&gt;Node3</title>
<path fill="none" stroke="midnightblue" d="M341.48,-64.5C333.1,-64.5 324.58,-64.5 316.26,-64.5"/>
<polygon fill="midnightblue" stroke="midnightblue" points="341.63,-68 351.63,-64.5 341.63,-61 341.63,-68"/>
</g>
<!-- Node5 -->
<g id="node5" class="node">
<title>Node5</title>
<g id="a_node5"><a xlink:href="a00649.html#a18227b40882a2c115f0303ad61cd652a" target="_top" xlink:title=" ">
<polygon fill="white" stroke="black" points="176,-0.5 176,-30.5 316,-30.5 316,-0.5 176,-0.5"/>
<text text-anchor="start" x="184" y="-18.5" font-family="Helvetica,sans-Serif" font-size="10.00">MiraiCP::MiraiCPNewThread</text>
<text text-anchor="middle" x="246" y="-7.5" font-family="Helvetica,sans-Serif" font-size="10.00">::threadThrows</text>
</a>
</g>
</g>
<!-- Node1&#45;&gt;Node5 -->
<g id="edge4" class="edge">
<title>Node1&#45;&gt;Node5</title>
<path fill="none" stroke="midnightblue" d="M373.35,-52.13C350.72,-45.57 322.74,-37.46 298.86,-30.54"/>
<polygon fill="midnightblue" stroke="midnightblue" points="372.43,-55.51 383.01,-54.94 374.38,-48.79 372.43,-55.51"/>
</g>
<!-- Node4 -->
<g id="node4" class="node">
<title>Node4</title>
<g id="a_node4"><a xlink:href="a00649.html#ae04a775fb43599b61f29e831f98bfee0" target="_top" xlink:title=" ">
<polygon fill="white" stroke="black" points="0,-24.5 0,-54.5 140,-54.5 140,-24.5 0,-24.5"/>
<text text-anchor="start" x="8" y="-42.5" font-family="Helvetica,sans-Serif" font-size="10.00">MiraiCP::MiraiCPNewThread</text>
<text text-anchor="middle" x="70" y="-31.5" font-family="Helvetica,sans-Serif" font-size="10.00">::MiraiCPNewThread</text>
</a>
</g>
</g>
<!-- Node3&#45;&gt;Node4 -->
<g id="edge3" class="edge">
<title>Node3&#45;&gt;Node4</title>
<path fill="none" stroke="midnightblue" d="M165.97,-53.14C157.38,-51.91 148.68,-50.66 140.22,-49.45"/>
<polygon fill="midnightblue" stroke="midnightblue" points="165.58,-56.63 175.98,-54.58 166.58,-49.7 165.58,-56.63"/>
</g>
<!-- Node5&#45;&gt;Node4 -->
<g id="edge5" class="edge">
<title>Node5&#45;&gt;Node4</title>
<path fill="none" stroke="midnightblue" d="M165.97,-26.4C157.38,-27.59 148.68,-28.79 140.22,-29.95"/>
<polygon fill="midnightblue" stroke="midnightblue" points="166.55,-29.85 175.98,-25.02 165.6,-22.92 166.55,-29.85"/>
</g>
</g>
</svg>
