<?xml version="1.0" encoding="UTF-8" standalone="no"?>
<!DOCTYPE svg PUBLIC "-//W3C//DTD SVG 1.1//EN"
 "http://www.w3.org/Graphics/SVG/1.1/DTD/svg11.dtd">
<!-- Generated by graphviz version 2.50.0 (20211204.2007)
 -->
<!-- Title: ThreadIdentify::IAmPoolThread Pages: 1 -->
<svg width="493pt" height="88pt"
 viewBox="0.00 0.00 493.00 88.00" xmlns="http://www.w3.org/2000/svg" xmlns:xlink="http://www.w3.org/1999/xlink">
<g id="graph0" class="graph" transform="scale(1 1) rotate(0) translate(4 84)">
<title>ThreadIdentify::IAmPoolThread</title>
<polygon fill="white" stroke="transparent" points="-4,4 -4,-84 489,-84 489,4 -4,4"/>
<!-- Node1 -->
<g id="node1" class="node">
<title>Node1</title>
<g id="a_node1"><a xlink:title=" ">
<polygon fill="#bfbfbf" stroke="black" points="336,-30 336,-49 485,-49 485,-30 336,-30"/>
<text text-anchor="middle" x="410.5" y="-37" font-family="Helvetica,sans-Serif" font-size="10.00">ThreadIdentify::IAmPoolThread</text>
</a>
</g>
</g>
<!-- Node2 -->
<g id="node2" class="node">
<title>Node2</title>
<g id="a_node2"><a xlink:href="a00765.html#a6f36df0501ab738b10baee833e9ed960" target="_top" xlink:title="A worker function to be assigned to each thread in the pool. Waits until it is notified by push_task(...">
<polygon fill="white" stroke="black" points="179,-30 179,-49 300,-49 300,-30 179,-30"/>
<text text-anchor="middle" x="239.5" y="-37" font-family="Helvetica,sans-Serif" font-size="10.00">BS::thread_pool::worker</text>
</a>
</g>
</g>
<!-- Node1&#45;&gt;Node2 -->
<g id="edge1" class="edge">
<title>Node1&#45;&gt;Node2</title>
<path fill="none" stroke="midnightblue" d="M325.76,-39.5C317.13,-39.5 308.49,-39.5 300.2,-39.5"/>
<polygon fill="midnightblue" stroke="midnightblue" points="325.87,-43 335.87,-39.5 325.87,-36 325.87,-43"/>
</g>
<!-- Node3 -->
<g id="node3" class="node">
<title>Node3</title>
<g id="a_node3"><a xlink:href="a00765.html#a4b6564dcbe7b01efb736377917b489b8" target="_top" xlink:title="Create the threads in the pool and assign a worker to each thread.">
<polygon fill="white" stroke="black" points="12,-49.5 12,-79.5 131,-79.5 131,-49.5 12,-49.5"/>
<text text-anchor="start" x="20" y="-67.5" font-family="Helvetica,sans-Serif" font-size="10.00">BS::thread_pool::create</text>
<text text-anchor="middle" x="71.5" y="-56.5" font-family="Helvetica,sans-Serif" font-size="10.00">_threads</text>
</a>
</g>
</g>
<!-- Node2&#45;&gt;Node3 -->
<g id="edge2" class="edge">
<title>Node2&#45;&gt;Node3</title>
<path fill="none" stroke="midnightblue" d="M168.31,-50.07C155.96,-51.93 143.23,-53.85 131.23,-55.66"/>
<polygon fill="midnightblue" stroke="midnightblue" points="169.2,-53.48 178.57,-48.53 168.16,-46.55 169.2,-53.48"/>
</g>
<!-- Node4 -->
<g id="node4" class="node">
<title>Node4</title>
<g id="a_node4"><a xlink:href="a00765.html#ac43e9ad7abf11f7f874c356a483eb76d" target="_top" xlink:title="force reset a thread, only should be called when a deadly problem happen">
<polygon fill="white" stroke="black" points="0,-0.5 0,-30.5 143,-30.5 143,-0.5 0,-0.5"/>
<text text-anchor="start" x="8" y="-18.5" font-family="Helvetica,sans-Serif" font-size="10.00">BS::thread_pool::resetThread</text>
<text text-anchor="middle" x="71.5" y="-7.5" font-family="Helvetica,sans-Serif" font-size="10.00">ByIndex</text>
</a>
</g>
</g>
<!-- Node2&#45;&gt;Node4 -->
<g id="edge3" class="edge">
<title>Node2&#45;&gt;Node4</title>
<path fill="none" stroke="midnightblue" d="M168.45,-29.37C160.05,-28.16 151.48,-26.92 143.08,-25.7"/>
<polygon fill="midnightblue" stroke="midnightblue" points="168.17,-32.87 178.57,-30.84 169.17,-25.94 168.17,-32.87"/>
</g>
</g>
</svg>
