<?xml version="1.0" encoding="UTF-8" standalone="no"?>
<!DOCTYPE svg PUBLIC "-//W3C//DTD SVG 1.1//EN"
 "http://www.w3.org/Graphics/SVG/1.1/DTD/svg11.dtd">
<!-- Generated by graphviz version 9.0.0 (0)
 -->
<!-- Title: MiraiCP::queryList Pages: 1 -->
<svg width="463pt" height="140pt"
 viewBox="0.00 0.00 463.25 140.00" xmlns="http://www.w3.org/2000/svg" xmlns:xlink="http://www.w3.org/1999/xlink">
<g id="graph0" class="graph" transform="scale(1 1) rotate(0) translate(4 136)">
<title>MiraiCP::queryList</title>
<!-- Node1 -->
<g id="Node000001" class="node">
<title>Node1</title>
<g id="a_Node000001"><a xlink:title=" ">
<polygon fill="#999999" stroke="#666666" points="455.25,-76 358.25,-76 358.25,-56 455.25,-56 455.25,-76"/>
<text text-anchor="middle" x="406.75" y="-62.5" font-family="Helvetica,sans-Serif" font-size="10.00">MiraiCP::queryList</text>
</a>
</g>
</g>
<!-- Node2 -->
<g id="Node000002" class="node">
<title>Node2</title>
<g id="a_Node000002"><a xlink:href="a00448.html#ae3c41bbf773ad22ee9a0b29f4ed769ea" target="_top" xlink:title="取好友列表">
<polygon fill="white" stroke="#666666" points="311.75,-120 177.25,-120 177.25,-100 311.75,-100 311.75,-120"/>
<text text-anchor="middle" x="244.5" y="-106.5" font-family="Helvetica,sans-Serif" font-size="10.00">MiraiCP::Bot::getFriendList</text>
</a>
</g>
</g>
<!-- Node1&#45;&gt;Node2 -->
<g id="edge1_Node000001_Node000002" class="edge">
<title>Node1&#45;&gt;Node2</title>
<g id="a_edge1_Node000001_Node000002"><a xlink:title=" ">
<path fill="none" stroke="#63b8ff" d="M356.93,-79.4C333.34,-85.88 305.46,-93.54 283.48,-99.57"/>
<polygon fill="#63b8ff" stroke="#63b8ff" points="357.6,-82.85 366.31,-76.83 355.74,-76.1 357.6,-82.85"/>
</a>
</g>
</g>
<!-- Node4 -->
<g id="Node000004" class="node">
<title>Node4</title>
<g id="a_Node000004"><a xlink:href="a00448.html#a93687b7b6b881aa74a011dc0b979cae1" target="_top" xlink:title="取群列表">
<polygon fill="white" stroke="#666666" points="311.38,-76 177.62,-76 177.62,-56 311.38,-56 311.38,-76"/>
<text text-anchor="middle" x="244.5" y="-62.5" font-family="Helvetica,sans-Serif" font-size="10.00">MiraiCP::Bot::getGroupList</text>
</a>
</g>
</g>
<!-- Node1&#45;&gt;Node4 -->
<g id="edge3_Node000001_Node000004" class="edge">
<title>Node1&#45;&gt;Node4</title>
<g id="a_edge3_Node000001_Node000004"><a xlink:title=" ">
<path fill="none" stroke="#63b8ff" d="M346.89,-66C335.42,-66 323.33,-66 311.65,-66"/>
<polygon fill="#63b8ff" stroke="#63b8ff" points="346.59,-69.5 356.59,-66 346.59,-62.5 346.59,-69.5"/>
</a>
</g>
</g>
<!-- Node6 -->
<g id="Node000006" class="node">
<title>Node6</title>
<g id="a_Node000006"><a xlink:href="a00448.html#aa3653efd4bf60ccebeb2025defe777a4" target="_top" xlink:title="取在线 Bot 列表">
<polygon fill="white" stroke="#666666" points="322.25,-32 166.75,-32 166.75,-12 322.25,-12 322.25,-32"/>
<text text-anchor="middle" x="244.5" y="-18.5" font-family="Helvetica,sans-Serif" font-size="10.00">MiraiCP::Bot::getOnlineBotsList</text>
</a>
</g>
</g>
<!-- Node1&#45;&gt;Node6 -->
<g id="edge5_Node000001_Node000006" class="edge">
<title>Node1&#45;&gt;Node6</title>
<g id="a_edge5_Node000001_Node000006"><a xlink:title=" ">
<path fill="none" stroke="#63b8ff" d="M356.93,-52.6C333.34,-46.12 305.46,-38.46 283.48,-32.43"/>
<polygon fill="#63b8ff" stroke="#63b8ff" points="355.74,-55.9 366.31,-55.17 357.6,-49.15 355.74,-55.9"/>
</a>
</g>
</g>
<!-- Node3 -->
<g id="Node000003" class="node">
<title>Node3</title>
<g id="a_Node000003"><a xlink:href="a00448.html#a6803e521b4209f73e70d3a20b1e20195" target="_top" xlink:title="好友列表string形式返回, 利于保存">
<polygon fill="white" stroke="#666666" points="125.88,-132 4.88,-132 4.88,-100 125.88,-100 125.88,-132"/>
<text text-anchor="start" x="12.88" y="-118.5" font-family="Helvetica,sans-Serif" font-size="10.00">MiraiCP::Bot::FriendList</text>
<text text-anchor="middle" x="65.38" y="-106.5" font-family="Helvetica,sans-Serif" font-size="10.00">ToString</text>
</a>
</g>
</g>
<!-- Node2&#45;&gt;Node3 -->
<g id="edge2_Node000002_Node000003" class="edge">
<title>Node2&#45;&gt;Node3</title>
<g id="a_edge2_Node000002_Node000003"><a xlink:title=" ">
<path fill="none" stroke="#63b8ff" d="M165.39,-112.65C152.29,-113.09 138.88,-113.54 126.33,-113.97"/>
<polygon fill="#63b8ff" stroke="#63b8ff" points="165.4,-116.15 175.28,-112.31 165.16,-109.15 165.4,-116.15"/>
</a>
</g>
</g>
<!-- Node5 -->
<g id="Node000005" class="node">
<title>Node5</title>
<g id="a_Node000005"><a xlink:href="a00448.html#ac036f287d56751ca5e33bd4d0292e306" target="_top" xlink:title="群列表string形式返回, 利于保存">
<polygon fill="white" stroke="#666666" points="130.75,-82 0,-82 0,-50 130.75,-50 130.75,-82"/>
<text text-anchor="start" x="8" y="-68.5" font-family="Helvetica,sans-Serif" font-size="10.00">MiraiCP::Bot::GroupListTo</text>
<text text-anchor="middle" x="65.38" y="-56.5" font-family="Helvetica,sans-Serif" font-size="10.00">String</text>
</a>
</g>
</g>
<!-- Node4&#45;&gt;Node5 -->
<g id="edge4_Node000004_Node000005" class="edge">
<title>Node4&#45;&gt;Node5</title>
<g id="a_edge4_Node000004_Node000005"><a xlink:title=" ">
<path fill="none" stroke="#63b8ff" d="M165.8,-66C154.19,-66 142.33,-66 131.03,-66"/>
<polygon fill="#63b8ff" stroke="#63b8ff" points="165.78,-69.5 175.78,-66 165.78,-62.5 165.78,-69.5"/>
</a>
</g>
</g>
<!-- Node7 -->
<g id="Node000007" class="node">
<title>Node7</title>
<g id="a_Node000007"><a xlink:href="a00448.html#a729a0670edf58101023d1e8de649939f" target="_top" xlink:title="在线 Bot 列表string形式返回, 利于保存">
<polygon fill="white" stroke="#666666" points="128.5,-32 2.25,-32 2.25,0 128.5,0 128.5,-32"/>
<text text-anchor="start" x="10.25" y="-18.5" font-family="Helvetica,sans-Serif" font-size="10.00">MiraiCP::Bot::OnlineBots</text>
<text text-anchor="middle" x="65.38" y="-6.5" font-family="Helvetica,sans-Serif" font-size="10.00">ListToString</text>
</a>
</g>
</g>
<!-- Node6&#45;&gt;Node7 -->
<g id="edge6_Node000006_Node000007" class="edge">
<title>Node6&#45;&gt;Node7</title>
<g id="a_edge6_Node000006_Node000007"><a xlink:title=" ">
<path fill="none" stroke="#63b8ff" d="M154.85,-19C146.1,-18.7 137.35,-18.4 128.94,-18.12"/>
<polygon fill="#63b8ff" stroke="#63b8ff" points="154.7,-22.49 164.81,-19.33 154.94,-15.5 154.7,-22.49"/>
</a>
</g>
</g>
</g>
</svg>
