<?xml version="1.0" encoding="UTF-8" standalone="no"?>
<!DOCTYPE svg PUBLIC "-//W3C//DTD SVG 1.1//EN"
 "http://www.w3.org/Graphics/SVG/1.1/DTD/svg11.dtd">
<!-- Generated by graphviz version 2.50.0 (20211204.2007)
 -->
<!-- Title: MiraiCP::NewFriendRequestEvent::operation0 Pages: 1 -->
<svg width="322pt" height="88pt"
 viewBox="0.00 0.00 322.00 88.00" xmlns="http://www.w3.org/2000/svg" xmlns:xlink="http://www.w3.org/1999/xlink">
<g id="graph0" class="graph" transform="scale(1 1) rotate(0) translate(4 84)">
<title>MiraiCP::NewFriendRequestEvent::operation0</title>
<polygon fill="white" stroke="transparent" points="-4,4 -4,-84 318,-84 318,4 -4,4"/>
<!-- Node1 -->
<g id="node1" class="node">
<title>Node1</title>
<g id="a_node1"><a xlink:title="接受好友申请">
<polygon fill="#bfbfbf" stroke="black" points="175,-49.5 175,-79.5 314,-79.5 314,-49.5 175,-49.5"/>
<text text-anchor="start" x="183" y="-67.5" font-family="Helvetica,sans-Serif" font-size="10.00">MiraiCP::NewFriendRequest</text>
<text text-anchor="middle" x="244.5" y="-56.5" font-family="Helvetica,sans-Serif" font-size="10.00">Event::operation0</text>
</a>
</g>
</g>
<!-- Node2 -->
<g id="node2" class="node">
<title>Node2</title>
<g id="a_node2"><a xlink:href="a00489.html#a460bb7fc7e69cf313e3902ae0101b459" target="_top" xlink:title="接受申请">
<polygon fill="white" stroke="black" points="0,-49.5 0,-79.5 139,-79.5 139,-49.5 0,-49.5"/>
<text text-anchor="start" x="8" y="-67.5" font-family="Helvetica,sans-Serif" font-size="10.00">MiraiCP::NewFriendRequest</text>
<text text-anchor="middle" x="69.5" y="-56.5" font-family="Helvetica,sans-Serif" font-size="10.00">Event::accept</text>
</a>
</g>
</g>
<!-- Node1&#45;&gt;Node2 -->
<g id="edge1" class="edge">
<title>Node1&#45;&gt;Node2</title>
<path fill="none" stroke="midnightblue" d="M164.41,-57.77C155.97,-57.72 147.44,-57.76 139.13,-57.88"/>
<polygon fill="midnightblue" stroke="midnightblue" points="164.59,-61.27 174.63,-57.88 164.66,-54.27 164.59,-61.27"/>
</g>
<!-- Node3 -->
<g id="node3" class="node">
<title>Node3</title>
<g id="a_node3"><a xlink:href="a00489.html#a887c0777813d171d8fd4241e5d6c7357" target="_top" xlink:title="拒绝好友申请">
<polygon fill="white" stroke="black" points="0,-0.5 0,-30.5 139,-30.5 139,-0.5 0,-0.5"/>
<text text-anchor="start" x="8" y="-18.5" font-family="Helvetica,sans-Serif" font-size="10.00">MiraiCP::NewFriendRequest</text>
<text text-anchor="middle" x="69.5" y="-7.5" font-family="Helvetica,sans-Serif" font-size="10.00">Event::reject</text>
</a>
</g>
</g>
<!-- Node1&#45;&gt;Node3 -->
<g id="edge3" class="edge">
<title>Node1&#45;&gt;Node3</title>
<path fill="none" stroke="midnightblue" d="M180.32,-46.61C161.72,-41.34 141.55,-35.62 123.64,-30.55"/>
<polygon fill="midnightblue" stroke="midnightblue" points="179.61,-50.04 190.18,-49.4 181.51,-43.31 179.61,-50.04"/>
</g>
<!-- Node2&#45;&gt;Node1 -->
<g id="edge2" class="edge">
<title>Node2&#45;&gt;Node1</title>
<path fill="none" stroke="midnightblue" d="M149.35,-71.23C157.79,-71.28 166.32,-71.24 174.63,-71.12"/>
<polygon fill="midnightblue" stroke="midnightblue" points="149.17,-67.72 139.13,-71.12 149.1,-74.72 149.17,-67.72"/>
</g>
</g>
</svg>
