<?xml version="1.0" encoding="UTF-8" standalone="no"?>
<!DOCTYPE svg PUBLIC "-//W3C//DTD SVG 1.1//EN"
 "http://www.w3.org/Graphics/SVG/1.1/DTD/svg11.dtd">
<!-- Generated by graphviz version 2.50.0 (20211204.2007)
 -->
<!-- Title: MiraiCP::MemberLeaveEvent Pages: 1 -->
<svg width="976pt" height="1933pt"
 viewBox="0.00 0.00 976.00 1933.00" xmlns="http://www.w3.org/2000/svg" xmlns:xlink="http://www.w3.org/1999/xlink">
<g id="graph0" class="graph" transform="scale(1 1) rotate(0) translate(4 1929)">
<title>MiraiCP::MemberLeaveEvent</title>
<polygon fill="white" stroke="transparent" points="-4,4 -4,-1929 972,-1929 972,4 -4,4"/>
<!-- Node1 -->
<g id="node1" class="node">
<title>Node1</title>
<g id="a_node1"><a xlink:title="群成员离开">
<polygon fill="#bfbfbf" stroke="black" points="529,-0.5 529,-90.5 688,-90.5 688,-0.5 529,-0.5"/>
<text text-anchor="middle" x="608.5" y="-78.5" font-family="Helvetica,sans-Serif" font-size="10.00">MiraiCP::MemberLeaveEvent</text>
<polyline fill="none" stroke="black" points="529,-71.5 688,-71.5 "/>
<text text-anchor="middle" x="608.5" y="-59.5" font-family="Helvetica,sans-Serif" font-size="10.00"> </text>
<polyline fill="none" stroke="black" points="529,-52.5 688,-52.5 "/>
<text text-anchor="start" x="537" y="-40.5" font-family="Helvetica,sans-Serif" font-size="10.00">+ MemberLeaveEvent(BaseEvent</text>
<text text-anchor="start" x="537" y="-29.5" font-family="Helvetica,sans-Serif" font-size="10.00">Data j)</text>
<text text-anchor="start" x="537" y="-18.5" font-family="Helvetica,sans-Serif" font-size="10.00">+ static eventTypes::</text>
<text text-anchor="start" x="537" y="-7.5" font-family="Helvetica,sans-Serif" font-size="10.00">Types get_event_type()</text>
</a>
</g>
</g>
<!-- Node2 -->
<g id="node2" class="node">
<title>Node2</title>
<g id="a_node2"><a xlink:href="a00444.html" target="_top" xlink:title=" ">
<polygon fill="white" stroke="black" points="137,-138.5 137,-261.5 284,-261.5 284,-138.5 137,-138.5"/>
<text text-anchor="start" x="145" y="-249.5" font-family="Helvetica,sans-Serif" font-size="10.00">MiraiCP::BotEvent&lt;</text>
<text text-anchor="middle" x="210.5" y="-238.5" font-family="Helvetica,sans-Serif" font-size="10.00"> MemberLeaveEvent &gt;</text>
<polyline fill="none" stroke="black" points="137,-231.5 284,-231.5 "/>
<text text-anchor="start" x="145" y="-219.5" font-family="Helvetica,sans-Serif" font-size="10.00">+ Bot bot</text>
<text text-anchor="start" x="145" y="-208.5" font-family="Helvetica,sans-Serif" font-size="10.00">+ IdLogger botlogger</text>
<polyline fill="none" stroke="black" points="137,-201.5 284,-201.5 "/>
<text text-anchor="start" x="145" y="-189.5" font-family="Helvetica,sans-Serif" font-size="10.00">+ eventTypes::Types getEvent</text>
<text text-anchor="start" x="145" y="-178.5" font-family="Helvetica,sans-Serif" font-size="10.00">Type() const override</text>
<text text-anchor="start" x="145" y="-167.5" font-family="Helvetica,sans-Serif" font-size="10.00">+ BotEvent(QQID botid)</text>
<text text-anchor="start" x="145" y="-156.5" font-family="Helvetica,sans-Serif" font-size="10.00">+ virtual ~BotEvent()</text>
<text text-anchor="start" x="145" y="-145.5" font-family="Helvetica,sans-Serif" font-size="10.00">=default</text>
</a>
</g>
</g>
<!-- Node2&#45;&gt;Node1 -->
<g id="edge1" class="edge">
<title>Node2&#45;&gt;Node1</title>
<path fill="none" stroke="midnightblue" d="M293.99,-167.01C363.14,-140.51 460.75,-103.11 528.82,-77.03"/>
<polygon fill="none" stroke="midnightblue" points="292.51,-163.83 284.43,-170.67 295.02,-170.36 292.51,-163.83"/>
</g>
<!-- Node3 -->
<g id="node3" class="node">
<title>Node3</title>
<g id="a_node3"><a xlink:href="a00440.html" target="_top" xlink:title="Event抽象父类">
<polygon fill="white" stroke="black" points="0,-618 0,-752 125,-752 125,-618 0,-618"/>
<text text-anchor="middle" x="62.5" y="-740" font-family="Helvetica,sans-Serif" font-size="10.00">MiraiCP::MiraiCPEvent</text>
<polyline fill="none" stroke="black" points="0,-733 125,-733 "/>
<text text-anchor="middle" x="62.5" y="-721" font-family="Helvetica,sans-Serif" font-size="10.00"> </text>
<polyline fill="none" stroke="black" points="0,-714 125,-714 "/>
<text text-anchor="start" x="8" y="-702" font-family="Helvetica,sans-Serif" font-size="10.00">+ MiraiCPEvent()=default</text>
<text text-anchor="start" x="8" y="-691" font-family="Helvetica,sans-Serif" font-size="10.00">+ virtual ~MiraiCPEvent</text>
<text text-anchor="start" x="8" y="-680" font-family="Helvetica,sans-Serif" font-size="10.00">()=default</text>
<text text-anchor="start" x="8" y="-669" font-family="Helvetica,sans-Serif" font-size="10.00">+ virtual eventTypes</text>
<text text-anchor="start" x="8" y="-658" font-family="Helvetica,sans-Serif" font-size="10.00">::Types getEventType</text>
<text text-anchor="start" x="8" y="-647" font-family="Helvetica,sans-Serif" font-size="10.00">() const =0</text>
<text text-anchor="start" x="8" y="-636" font-family="Helvetica,sans-Serif" font-size="10.00">+ static eventTypes::</text>
<text text-anchor="start" x="8" y="-625" font-family="Helvetica,sans-Serif" font-size="10.00">Types get_event_type()</text>
</a>
</g>
</g>
<!-- Node3&#45;&gt;Node2 -->
<g id="edge2" class="edge">
<title>Node3&#45;&gt;Node2</title>
<path fill="none" stroke="midnightblue" d="M65.05,-607.68C70.07,-529.65 84.76,-406.43 127.5,-309 134.72,-292.54 144.97,-276.34 155.81,-261.69"/>
<polygon fill="none" stroke="midnightblue" points="61.54,-607.72 64.43,-617.91 68.53,-608.14 61.54,-607.72"/>
</g>
<!-- Node4 -->
<g id="node4" class="node">
<title>Node4</title>
<g id="a_node4"><a xlink:href="a00444.html" target="_top" xlink:title="所有事件处理timeoutevent都是机器人事件，指都有机器人实例">
<polygon fill="white" stroke="black" points="137,-309.5 137,-410.5 284,-410.5 284,-309.5 137,-309.5"/>
<text text-anchor="middle" x="210.5" y="-398.5" font-family="Helvetica,sans-Serif" font-size="10.00">MiraiCP::BotEvent&lt; T &gt;</text>
<polyline fill="none" stroke="black" points="137,-391.5 284,-391.5 "/>
<text text-anchor="middle" x="210.5" y="-379.5" font-family="Helvetica,sans-Serif" font-size="10.00"> </text>
<polyline fill="none" stroke="black" points="137,-372.5 284,-372.5 "/>
<text text-anchor="start" x="145" y="-360.5" font-family="Helvetica,sans-Serif" font-size="10.00">+ eventTypes::Types getEvent</text>
<text text-anchor="start" x="145" y="-349.5" font-family="Helvetica,sans-Serif" font-size="10.00">Type() const override</text>
<text text-anchor="start" x="145" y="-338.5" font-family="Helvetica,sans-Serif" font-size="10.00">+ BotEvent(QQID botid)</text>
<text text-anchor="start" x="145" y="-327.5" font-family="Helvetica,sans-Serif" font-size="10.00">+ virtual ~BotEvent()</text>
<text text-anchor="start" x="145" y="-316.5" font-family="Helvetica,sans-Serif" font-size="10.00">=default</text>
</a>
</g>
</g>
<!-- Node3&#45;&gt;Node4 -->
<g id="edge4" class="edge">
<title>Node3&#45;&gt;Node4</title>
<path fill="none" stroke="midnightblue" d="M78.97,-607.94C90.54,-562.74 108.45,-505.22 133.5,-458 142.21,-441.57 153.83,-425.17 165.39,-410.65"/>
<polygon fill="none" stroke="midnightblue" points="75.57,-607.13 76.53,-617.68 82.36,-608.83 75.57,-607.13"/>
</g>
<!-- Node4&#45;&gt;Node2 -->
<g id="edge3" class="edge">
<title>Node4&#45;&gt;Node2</title>
<path fill="none" stroke="orange" d="M210.5,-299.31C210.5,-287.03 210.5,-274.09 210.5,-261.77"/>
<polygon fill="orange" stroke="orange" points="207,-299.44 210.5,-309.44 214,-299.44 207,-299.44"/>
<text text-anchor="middle" x="263.5" y="-283" font-family="Helvetica,sans-Serif" font-size="10.00"> &lt; MemberLeaveEvent &gt;</text>
</g>
<!-- Node5 -->
<g id="node5" class="node">
<title>Node5</title>
<g id="a_node5"><a xlink:href="a00392.html" target="_top" xlink:title="当前bot账号信息">
<polygon fill="white" stroke="black" points="296.5,-568.5 296.5,-801.5 446.5,-801.5 446.5,-568.5 296.5,-568.5"/>
<text text-anchor="middle" x="371.5" y="-789.5" font-family="Helvetica,sans-Serif" font-size="10.00">MiraiCP::Bot</text>
<polyline fill="none" stroke="black" points="296.5,-782.5 446.5,-782.5 "/>
<text text-anchor="middle" x="371.5" y="-770.5" font-family="Helvetica,sans-Serif" font-size="10.00"> </text>
<polyline fill="none" stroke="black" points="296.5,-763.5 446.5,-763.5 "/>
<text text-anchor="start" x="304.5" y="-751.5" font-family="Helvetica,sans-Serif" font-size="10.00">+ Bot(QQID in_id)</text>
<text text-anchor="start" x="304.5" y="-740.5" font-family="Helvetica,sans-Serif" font-size="10.00">+ Friend getFriend(QQID</text>
<text text-anchor="start" x="304.5" y="-729.5" font-family="Helvetica,sans-Serif" font-size="10.00"> i) const</text>
<text text-anchor="start" x="304.5" y="-718.5" font-family="Helvetica,sans-Serif" font-size="10.00">+ Group getGroup(QQID</text>
<text text-anchor="start" x="304.5" y="-707.5" font-family="Helvetica,sans-Serif" font-size="10.00"> groupid) const</text>
<text text-anchor="start" x="304.5" y="-696.5" font-family="Helvetica,sans-Serif" font-size="10.00">+ std::string nick()</text>
<text text-anchor="start" x="304.5" y="-685.5" font-family="Helvetica,sans-Serif" font-size="10.00">+ std::string avatarUrl()</text>
<text text-anchor="start" x="304.5" y="-674.5" font-family="Helvetica,sans-Serif" font-size="10.00">+ std::vector&lt; QQID &gt;</text>
<text text-anchor="start" x="304.5" y="-663.5" font-family="Helvetica,sans-Serif" font-size="10.00"> getFriendList() const</text>
<text text-anchor="start" x="304.5" y="-652.5" font-family="Helvetica,sans-Serif" font-size="10.00">+ std::string FriendListTo</text>
<text text-anchor="start" x="304.5" y="-641.5" font-family="Helvetica,sans-Serif" font-size="10.00">String() const</text>
<text text-anchor="start" x="304.5" y="-630.5" font-family="Helvetica,sans-Serif" font-size="10.00">+ std::vector&lt; QQID &gt;</text>
<text text-anchor="start" x="304.5" y="-619.5" font-family="Helvetica,sans-Serif" font-size="10.00"> getGroupList() const</text>
<text text-anchor="start" x="304.5" y="-608.5" font-family="Helvetica,sans-Serif" font-size="10.00">+ std::string GroupListToString</text>
<text text-anchor="start" x="304.5" y="-597.5" font-family="Helvetica,sans-Serif" font-size="10.00">() const</text>
<text text-anchor="start" x="304.5" y="-586.5" font-family="Helvetica,sans-Serif" font-size="10.00">+ bool operator==(const</text>
<text text-anchor="start" x="304.5" y="-575.5" font-family="Helvetica,sans-Serif" font-size="10.00"> Bot &amp;b) const</text>
</a>
</g>
</g>
<!-- Node5&#45;&gt;Node4 -->
<g id="edge5" class="edge">
<title>Node5&#45;&gt;Node4</title>
<path fill="none" stroke="#404040" d="M335.66,-568.3C322.4,-531.94 305.81,-492.35 286.5,-458 279.33,-445.25 270.57,-432.4 261.59,-420.4"/>
<polygon fill="none" stroke="#404040" points="261.32,-420.06 254.5,-417.74 254.01,-410.54 260.84,-412.86 261.32,-420.06"/>
<text text-anchor="middle" x="286" y="-432" font-family="Helvetica,sans-Serif" font-size="10.00"> +bot</text>
</g>
<!-- Node6 -->
<g id="node6" class="node">
<title>Node6</title>
<g id="a_node6"><a xlink:href="a00416.html" target="_top" xlink:title="group, friend, member的父类">
<polygon fill="white" stroke="black" points="279,-959.5 279,-1753.5 482,-1753.5 482,-959.5 279,-959.5"/>
<text text-anchor="middle" x="380.5" y="-1741.5" font-family="Helvetica,sans-Serif" font-size="10.00">MiraiCP::Contact</text>
<polyline fill="none" stroke="black" points="279,-1734.5 482,-1734.5 "/>
<text text-anchor="middle" x="380.5" y="-1722.5" font-family="Helvetica,sans-Serif" font-size="10.00"> </text>
<polyline fill="none" stroke="black" points="279,-1715.5 482,-1715.5 "/>
<text text-anchor="start" x="287" y="-1703.5" font-family="Helvetica,sans-Serif" font-size="10.00">+ Contact()=delete</text>
<text text-anchor="start" x="287" y="-1692.5" font-family="Helvetica,sans-Serif" font-size="10.00">+ virtual ~Contact()</text>
<text text-anchor="start" x="287" y="-1681.5" font-family="Helvetica,sans-Serif" font-size="10.00">=default</text>
<text text-anchor="start" x="287" y="-1670.5" font-family="Helvetica,sans-Serif" font-size="10.00">+ bool operator==(const</text>
<text text-anchor="start" x="287" y="-1659.5" font-family="Helvetica,sans-Serif" font-size="10.00"> Contact &amp;c) const</text>
<text text-anchor="start" x="287" y="-1648.5" font-family="Helvetica,sans-Serif" font-size="10.00">+ void SetInternalData</text>
<text text-anchor="start" x="287" y="-1637.5" font-family="Helvetica,sans-Serif" font-size="10.00">(std::shared_ptr&lt; IContactData</text>
<text text-anchor="start" x="287" y="-1626.5" font-family="Helvetica,sans-Serif" font-size="10.00"> &gt; Data)</text>
<text text-anchor="start" x="287" y="-1615.5" font-family="Helvetica,sans-Serif" font-size="10.00">+ void refreshInfo()</text>
<text text-anchor="start" x="287" y="-1604.5" font-family="Helvetica,sans-Serif" font-size="10.00">+ void forceRefreshNextTime()</text>
<text text-anchor="start" x="287" y="-1593.5" font-family="Helvetica,sans-Serif" font-size="10.00">+ void forceRefreshNow()</text>
<text text-anchor="start" x="287" y="-1582.5" font-family="Helvetica,sans-Serif" font-size="10.00">+ ContactType type()</text>
<text text-anchor="start" x="287" y="-1571.5" font-family="Helvetica,sans-Serif" font-size="10.00"> const</text>
<text text-anchor="start" x="287" y="-1560.5" font-family="Helvetica,sans-Serif" font-size="10.00">+ QQID id() const</text>
<text text-anchor="start" x="287" y="-1549.5" font-family="Helvetica,sans-Serif" font-size="10.00">+ QQID botid() const</text>
<text text-anchor="start" x="287" y="-1538.5" font-family="Helvetica,sans-Serif" font-size="10.00">+ MessageSource quoteAndSend</text>
<text text-anchor="start" x="287" y="-1527.5" font-family="Helvetica,sans-Serif" font-size="10.00">Message(const T &amp;s, MessageSource ms)</text>
<text text-anchor="start" x="287" y="-1516.5" font-family="Helvetica,sans-Serif" font-size="10.00">+ MessageSource quoteAndSend</text>
<text text-anchor="start" x="287" y="-1505.5" font-family="Helvetica,sans-Serif" font-size="10.00">Message(const MessageSource</text>
<text text-anchor="start" x="287" y="-1494.5" font-family="Helvetica,sans-Serif" font-size="10.00"> &amp;ms, T &amp;&amp;...val)</text>
<text text-anchor="start" x="287" y="-1483.5" font-family="Helvetica,sans-Serif" font-size="10.00">+ MessageSource sendMessage</text>
<text text-anchor="start" x="287" y="-1472.5" font-family="Helvetica,sans-Serif" font-size="10.00">(T &amp;&amp;...msg)</text>
<text text-anchor="start" x="287" y="-1461.5" font-family="Helvetica,sans-Serif" font-size="10.00">+ MessageSource sendMessage</text>
<text text-anchor="start" x="287" y="-1450.5" font-family="Helvetica,sans-Serif" font-size="10.00">(T &amp;&amp;msg)</text>
<text text-anchor="start" x="287" y="-1439.5" font-family="Helvetica,sans-Serif" font-size="10.00">+ nlohmann::json toJson</text>
<text text-anchor="start" x="287" y="-1428.5" font-family="Helvetica,sans-Serif" font-size="10.00">() const</text>
<text text-anchor="start" x="287" y="-1417.5" font-family="Helvetica,sans-Serif" font-size="10.00">+ void updateJson(nlohmann</text>
<text text-anchor="start" x="287" y="-1406.5" font-family="Helvetica,sans-Serif" font-size="10.00">::json &amp;j) const</text>
<text text-anchor="start" x="287" y="-1395.5" font-family="Helvetica,sans-Serif" font-size="10.00">+ std::string toString</text>
<text text-anchor="start" x="287" y="-1384.5" font-family="Helvetica,sans-Serif" font-size="10.00">() const</text>
<text text-anchor="start" x="287" y="-1373.5" font-family="Helvetica,sans-Serif" font-size="10.00">+ Image uploadImg(const</text>
<text text-anchor="start" x="287" y="-1362.5" font-family="Helvetica,sans-Serif" font-size="10.00"> std::string &amp;path) const</text>
<text text-anchor="start" x="287" y="-1351.5" font-family="Helvetica,sans-Serif" font-size="10.00">+ FlashImage uploadFlashImg</text>
<text text-anchor="start" x="287" y="-1340.5" font-family="Helvetica,sans-Serif" font-size="10.00">(const std::string &amp;path) const</text>
<text text-anchor="start" x="287" y="-1329.5" font-family="Helvetica,sans-Serif" font-size="10.00">+ static std::shared</text>
<text text-anchor="start" x="287" y="-1318.5" font-family="Helvetica,sans-Serif" font-size="10.00">_ptr&lt; Contact &gt; deserialize</text>
<text text-anchor="start" x="287" y="-1307.5" font-family="Helvetica,sans-Serif" font-size="10.00">ToPointer(nlohmann::json</text>
<text text-anchor="start" x="287" y="-1296.5" font-family="Helvetica,sans-Serif" font-size="10.00"> source)</text>
<text text-anchor="start" x="287" y="-1285.5" font-family="Helvetica,sans-Serif" font-size="10.00">+ static T deserialize</text>
<text text-anchor="start" x="287" y="-1274.5" font-family="Helvetica,sans-Serif" font-size="10.00">(nlohmann::json source)</text>
<text text-anchor="start" x="287" y="-1263.5" font-family="Helvetica,sans-Serif" font-size="10.00"># Contact(std::shared</text>
<text text-anchor="start" x="287" y="-1252.5" font-family="Helvetica,sans-Serif" font-size="10.00">_ptr&lt; IContactData &gt; Data)</text>
<text text-anchor="start" x="287" y="-1241.5" font-family="Helvetica,sans-Serif" font-size="10.00"># MessageSource sendVoiceImpl</text>
<text text-anchor="start" x="287" y="-1230.5" font-family="Helvetica,sans-Serif" font-size="10.00">(std::string path) const</text>
<text text-anchor="start" x="287" y="-1219.5" font-family="Helvetica,sans-Serif" font-size="10.00"># MessageSource sendMsgImpl</text>
<text text-anchor="start" x="287" y="-1208.5" font-family="Helvetica,sans-Serif" font-size="10.00">(std::string msg) const</text>
<text text-anchor="start" x="287" y="-1197.5" font-family="Helvetica,sans-Serif" font-size="10.00"># MessageSource unpackMsg</text>
<text text-anchor="start" x="287" y="-1186.5" font-family="Helvetica,sans-Serif" font-size="10.00">(const MessageChain &amp;msg)</text>
<text text-anchor="start" x="287" y="-1175.5" font-family="Helvetica,sans-Serif" font-size="10.00"> const</text>
<text text-anchor="start" x="287" y="-1164.5" font-family="Helvetica,sans-Serif" font-size="10.00"># MessageSource unpackMsg</text>
<text text-anchor="start" x="287" y="-1153.5" font-family="Helvetica,sans-Serif" font-size="10.00">(const MiraiCodeable &amp;msg)</text>
<text text-anchor="start" x="287" y="-1142.5" font-family="Helvetica,sans-Serif" font-size="10.00"> const</text>
<text text-anchor="start" x="287" y="-1131.5" font-family="Helvetica,sans-Serif" font-size="10.00"># MessageSource unpackMsg</text>
<text text-anchor="start" x="287" y="-1120.5" font-family="Helvetica,sans-Serif" font-size="10.00">(std::string msg) const</text>
<text text-anchor="start" x="287" y="-1109.5" font-family="Helvetica,sans-Serif" font-size="10.00"># MessageSource unpackMsg</text>
<text text-anchor="start" x="287" y="-1098.5" font-family="Helvetica,sans-Serif" font-size="10.00">(const char *msg) const</text>
<text text-anchor="start" x="287" y="-1087.5" font-family="Helvetica,sans-Serif" font-size="10.00">&#45; MessageSource quoteAndSend0</text>
<text text-anchor="start" x="287" y="-1076.5" font-family="Helvetica,sans-Serif" font-size="10.00">(std::string msg, const</text>
<text text-anchor="start" x="287" y="-1065.5" font-family="Helvetica,sans-Serif" font-size="10.00"> MessageSource &amp;ms) const</text>
<text text-anchor="start" x="287" y="-1054.5" font-family="Helvetica,sans-Serif" font-size="10.00">&#45; MessageSource quoteAndSend1</text>
<text text-anchor="start" x="287" y="-1043.5" font-family="Helvetica,sans-Serif" font-size="10.00">(const SingleMessage &amp;s,</text>
<text text-anchor="start" x="287" y="-1032.5" font-family="Helvetica,sans-Serif" font-size="10.00"> const MessageSource &amp;ms)</text>
<text text-anchor="start" x="287" y="-1021.5" font-family="Helvetica,sans-Serif" font-size="10.00">&#45; MessageSource quoteAndSend1</text>
<text text-anchor="start" x="287" y="-1010.5" font-family="Helvetica,sans-Serif" font-size="10.00">(const std::string &amp;s, const</text>
<text text-anchor="start" x="287" y="-999.5" font-family="Helvetica,sans-Serif" font-size="10.00"> MessageSource &amp;ms)</text>
<text text-anchor="start" x="287" y="-988.5" font-family="Helvetica,sans-Serif" font-size="10.00">&#45; MessageSource quoteAndSend1</text>
<text text-anchor="start" x="287" y="-977.5" font-family="Helvetica,sans-Serif" font-size="10.00">(const MessageChain &amp;mc,</text>
<text text-anchor="start" x="287" y="-966.5" font-family="Helvetica,sans-Serif" font-size="10.00"> const MessageSource &amp;ms)</text>
</a>
</g>
</g>
<!-- Node6&#45;&gt;Node5 -->
<g id="edge6" class="edge">
<title>Node6&#45;&gt;Node5</title>
<path fill="none" stroke="midnightblue" d="M375.04,-949.2C374.32,-895.41 373.63,-844.21 373.05,-801.5"/>
<polygon fill="none" stroke="midnightblue" points="371.54,-949.32 375.17,-959.28 378.54,-949.23 371.54,-949.32"/>
</g>
<!-- Node11 -->
<g id="node11" class="node">
<title>Node11</title>
<g id="a_node11"><a xlink:href="a00688.html" target="_top" xlink:title="群成员类声明">
<polygon fill="white" stroke="black" points="656,-541 656,-829 823,-829 823,-541 656,-541"/>
<text text-anchor="middle" x="739.5" y="-817" font-family="Helvetica,sans-Serif" font-size="10.00">MiraiCP::Member</text>
<polyline fill="none" stroke="black" points="656,-810 823,-810 "/>
<text text-anchor="middle" x="739.5" y="-798" font-family="Helvetica,sans-Serif" font-size="10.00"> </text>
<polyline fill="none" stroke="black" points="656,-791 823,-791 "/>
<text text-anchor="start" x="664" y="-779" font-family="Helvetica,sans-Serif" font-size="10.00">+ Member(nlohmann::json</text>
<text text-anchor="start" x="664" y="-768" font-family="Helvetica,sans-Serif" font-size="10.00"> in_json)</text>
<text text-anchor="start" x="664" y="-757" font-family="Helvetica,sans-Serif" font-size="10.00">+ Member(QQID qqid,</text>
<text text-anchor="start" x="664" y="-746" font-family="Helvetica,sans-Serif" font-size="10.00"> QQID groupid, QQID</text>
<text text-anchor="start" x="664" y="-735" font-family="Helvetica,sans-Serif" font-size="10.00"> botid)</text>
<text text-anchor="start" x="664" y="-724" font-family="Helvetica,sans-Serif" font-size="10.00">+ Member(bool)=delete</text>
<text text-anchor="start" x="664" y="-713" font-family="Helvetica,sans-Serif" font-size="10.00">+ DECL_GETTER(anonymous)</text>
<text text-anchor="start" x="664" y="-702" font-family="Helvetica,sans-Serif" font-size="10.00"> DECL_GETTER(permission)</text>
<text text-anchor="start" x="664" y="-691" font-family="Helvetica,sans-Serif" font-size="10.00"> INLINE_GETTER(groupId)</text>
<text text-anchor="start" x="664" y="-680" font-family="Helvetica,sans-Serif" font-size="10.00"> public MessageSource sendVoice</text>
<text text-anchor="start" x="664" y="-669" font-family="Helvetica,sans-Serif" font-size="10.00">(std::string path)</text>
<text text-anchor="start" x="664" y="-658" font-family="Helvetica,sans-Serif" font-size="10.00">+ void mute(long long</text>
<text text-anchor="start" x="664" y="-647" font-family="Helvetica,sans-Serif" font-size="10.00"> sec) const</text>
<text text-anchor="start" x="664" y="-636" font-family="Helvetica,sans-Serif" font-size="10.00">+ void mute(std::chrono</text>
<text text-anchor="start" x="664" y="-625" font-family="Helvetica,sans-Serif" font-size="10.00">::seconds time) const</text>
<text text-anchor="start" x="664" y="-614" font-family="Helvetica,sans-Serif" font-size="10.00">+ void unMute() const</text>
<text text-anchor="start" x="664" y="-603" font-family="Helvetica,sans-Serif" font-size="10.00">+ void kick(std::string</text>
<text text-anchor="start" x="664" y="-592" font-family="Helvetica,sans-Serif" font-size="10.00"> reason)</text>
<text text-anchor="start" x="664" y="-581" font-family="Helvetica,sans-Serif" font-size="10.00">+ At at()</text>
<text text-anchor="start" x="664" y="-570" font-family="Helvetica,sans-Serif" font-size="10.00">+ void changeNameCard</text>
<text text-anchor="start" x="664" y="-559" font-family="Helvetica,sans-Serif" font-size="10.00">(std::string_view newName)</text>
<text text-anchor="start" x="664" y="-548" font-family="Helvetica,sans-Serif" font-size="10.00">+ void sendNudge() override</text>
</a>
</g>
</g>
<!-- Node6&#45;&gt;Node11 -->
<g id="edge13" class="edge">
<title>Node6&#45;&gt;Node11</title>
<path fill="none" stroke="midnightblue" d="M488.78,-961.82C489.68,-960.87 490.59,-959.93 491.5,-959 542.2,-907.3 593.95,-960.74 647.5,-912 672.01,-889.69 690.14,-859.9 703.49,-829.29"/>
<polygon fill="none" stroke="midnightblue" points="486.19,-959.47 482.02,-969.21 491.35,-964.19 486.19,-959.47"/>
</g>
<!-- Node15 -->
<g id="node15" class="node">
<title>Node15</title>
<g id="a_node15"><a xlink:href="a00636.html" target="_top" xlink:title="群聊类">
<polygon fill="white" stroke="black" points="465,-458.5 465,-911.5 638,-911.5 638,-458.5 465,-458.5"/>
<text text-anchor="middle" x="551.5" y="-899.5" font-family="Helvetica,sans-Serif" font-size="10.00">MiraiCP::Group</text>
<polyline fill="none" stroke="black" points="465,-892.5 638,-892.5 "/>
<text text-anchor="middle" x="551.5" y="-880.5" font-family="Helvetica,sans-Serif" font-size="10.00"> </text>
<polyline fill="none" stroke="black" points="465,-873.5 638,-873.5 "/>
<text text-anchor="start" x="473" y="-861.5" font-family="Helvetica,sans-Serif" font-size="10.00">+ DECL_GETTER(setting)</text>
<text text-anchor="start" x="473" y="-850.5" font-family="Helvetica,sans-Serif" font-size="10.00"> struct file_short_info</text>
<text text-anchor="start" x="473" y="-839.5" font-family="Helvetica,sans-Serif" font-size="10.00">+ Group(QQID groupId,</text>
<text text-anchor="start" x="473" y="-828.5" font-family="Helvetica,sans-Serif" font-size="10.00"> QQID botId)</text>
<text text-anchor="start" x="473" y="-817.5" font-family="Helvetica,sans-Serif" font-size="10.00">+ Group(nlohmann::json</text>
<text text-anchor="start" x="473" y="-806.5" font-family="Helvetica,sans-Serif" font-size="10.00"> in_json)</text>
<text text-anchor="start" x="473" y="-795.5" font-family="Helvetica,sans-Serif" font-size="10.00">+ Group(bool)=delete</text>
<text text-anchor="start" x="473" y="-784.5" font-family="Helvetica,sans-Serif" font-size="10.00">+ INLINE_GETTER(groupId)</text>
<text text-anchor="start" x="473" y="-773.5" font-family="Helvetica,sans-Serif" font-size="10.00"> void updateSetting(GroupData</text>
<text text-anchor="start" x="473" y="-762.5" font-family="Helvetica,sans-Serif" font-size="10.00"> std::vector&lt; unsigned long</text>
<text text-anchor="start" x="473" y="-751.5" font-family="Helvetica,sans-Serif" font-size="10.00"> long &gt; getMemberList()</text>
<text text-anchor="start" x="473" y="-740.5" font-family="Helvetica,sans-Serif" font-size="10.00">+ std::string MemberListTo</text>
<text text-anchor="start" x="473" y="-729.5" font-family="Helvetica,sans-Serif" font-size="10.00">String()</text>
<text text-anchor="start" x="473" y="-718.5" font-family="Helvetica,sans-Serif" font-size="10.00">+ Member getOwner()</text>
<text text-anchor="start" x="473" y="-707.5" font-family="Helvetica,sans-Serif" font-size="10.00">+ Member getMember(QQID</text>
<text text-anchor="start" x="473" y="-696.5" font-family="Helvetica,sans-Serif" font-size="10.00"> memberid)</text>
<text text-anchor="start" x="473" y="-685.5" font-family="Helvetica,sans-Serif" font-size="10.00">+ Member operator[](QQID id)</text>
<text text-anchor="start" x="473" y="-674.5" font-family="Helvetica,sans-Serif" font-size="10.00">+ std::vector&lt; OnlineAnnouncement</text>
<text text-anchor="start" x="473" y="-663.5" font-family="Helvetica,sans-Serif" font-size="10.00"> &gt; getAnnouncementsList()</text>
<text text-anchor="start" x="473" y="-652.5" font-family="Helvetica,sans-Serif" font-size="10.00">+ void quit()</text>
<text text-anchor="start" x="473" y="-641.5" font-family="Helvetica,sans-Serif" font-size="10.00">+ RemoteFile sendFile</text>
<text text-anchor="start" x="473" y="-630.5" font-family="Helvetica,sans-Serif" font-size="10.00">(const std::string &amp;path,</text>
<text text-anchor="start" x="473" y="-619.5" font-family="Helvetica,sans-Serif" font-size="10.00"> const std::string &amp;filepath)</text>
<text text-anchor="start" x="473" y="-608.5" font-family="Helvetica,sans-Serif" font-size="10.00">+ MessageSource sendVoice</text>
<text text-anchor="start" x="473" y="-597.5" font-family="Helvetica,sans-Serif" font-size="10.00">(std::string path)</text>
<text text-anchor="start" x="473" y="-586.5" font-family="Helvetica,sans-Serif" font-size="10.00">+ RemoteFile getFile</text>
<text text-anchor="start" x="473" y="-575.5" font-family="Helvetica,sans-Serif" font-size="10.00">(const std::string &amp;path,</text>
<text text-anchor="start" x="473" y="-564.5" font-family="Helvetica,sans-Serif" font-size="10.00"> const std::string &amp;id=&quot;&quot;)</text>
<text text-anchor="start" x="473" y="-553.5" font-family="Helvetica,sans-Serif" font-size="10.00">+ RemoteFile getFileById</text>
<text text-anchor="start" x="473" y="-542.5" font-family="Helvetica,sans-Serif" font-size="10.00">(const std::string &amp;id)</text>
<text text-anchor="start" x="473" y="-531.5" font-family="Helvetica,sans-Serif" font-size="10.00">+ RemoteFile getFileByFile</text>
<text text-anchor="start" x="473" y="-520.5" font-family="Helvetica,sans-Serif" font-size="10.00">(const RemoteFile &amp;file)</text>
<text text-anchor="start" x="473" y="-509.5" font-family="Helvetica,sans-Serif" font-size="10.00">+ std::vector&lt; file_short</text>
<text text-anchor="start" x="473" y="-498.5" font-family="Helvetica,sans-Serif" font-size="10.00">_info &gt; getFileList(const</text>
<text text-anchor="start" x="473" y="-487.5" font-family="Helvetica,sans-Serif" font-size="10.00"> std::string &amp;path)</text>
<text text-anchor="start" x="473" y="-476.5" font-family="Helvetica,sans-Serif" font-size="10.00">+ std::string getFileListString</text>
<text text-anchor="start" x="473" y="-465.5" font-family="Helvetica,sans-Serif" font-size="10.00">(const std::string &amp;path)</text>
</a>
</g>
</g>
<!-- Node6&#45;&gt;Node15 -->
<g id="edge18" class="edge">
<title>Node6&#45;&gt;Node15</title>
<path fill="none" stroke="midnightblue" d="M484.2,-949.5C487.46,-936.74 490.68,-924.13 493.84,-911.74"/>
<polygon fill="none" stroke="midnightblue" points="480.78,-948.72 481.7,-959.28 487.57,-950.45 480.78,-948.72"/>
</g>
<!-- Node7 -->
<g id="node7" class="node">
<title>Node7</title>
<g id="a_node7"><a xlink:title=" ">
<polygon fill="white" stroke="#bfbfbf" points="167.5,-1834.5 167.5,-1891.5 235.5,-1891.5 235.5,-1834.5 167.5,-1834.5"/>
<text text-anchor="middle" x="201.5" y="-1879.5" font-family="Helvetica,sans-Serif" font-size="10.00">shared_ptr&lt;</text>
<polyline fill="none" stroke="#bfbfbf" points="167.5,-1872.5 235.5,-1872.5 "/>
<text text-anchor="middle" x="201.5" y="-1860.5" font-family="Helvetica,sans-Serif" font-size="10.00"> </text>
<polyline fill="none" stroke="#bfbfbf" points="167.5,-1853.5 235.5,-1853.5 "/>
<text text-anchor="middle" x="201.5" y="-1841.5" font-family="Helvetica,sans-Serif" font-size="10.00"> </text>
</a>
</g>
</g>
<!-- Node7&#45;&gt;Node6 -->
<g id="edge7" class="edge">
<title>Node7&#45;&gt;Node6</title>
<path fill="none" stroke="#404040" d="M222.04,-1834.38C236.94,-1813.27 256.65,-1782.96 269.5,-1754 271.11,-1750.37 272.71,-1746.7 274.28,-1743.01"/>
<polygon fill="none" stroke="#404040" points="274.32,-1742.93 272.95,-1735.85 278.96,-1731.86 280.33,-1738.94 274.32,-1742.93"/>
<text text-anchor="middle" x="291" y="-1775" font-family="Helvetica,sans-Serif" font-size="10.00"> #InternalData</text>
</g>
<!-- Node9 -->
<g id="node9" class="node">
<title>Node9</title>
<g id="a_node9"><a xlink:href="a00660.html" target="_top" xlink:title=" ">
<polygon fill="white" stroke="black" points="6.5,-1196 6.5,-1517 144.5,-1517 144.5,-1196 6.5,-1196"/>
<text text-anchor="middle" x="75.5" y="-1505" font-family="Helvetica,sans-Serif" font-size="10.00">MiraiCP::Logger_interface</text>
<polyline fill="none" stroke="black" points="6.5,-1498 144.5,-1498 "/>
<text text-anchor="middle" x="75.5" y="-1486" font-family="Helvetica,sans-Serif" font-size="10.00"> </text>
<polyline fill="none" stroke="black" points="6.5,-1479 144.5,-1479 "/>
<text text-anchor="start" x="14.5" y="-1467" font-family="Helvetica,sans-Serif" font-size="10.00">+ void info(T &amp;&amp;...val)</text>
<text text-anchor="start" x="14.5" y="-1456" font-family="Helvetica,sans-Serif" font-size="10.00">+ void warning(T &amp;&amp;...val)</text>
<text text-anchor="start" x="14.5" y="-1445" font-family="Helvetica,sans-Serif" font-size="10.00">+ void error(T &amp;&amp;...val)</text>
<text text-anchor="start" x="14.5" y="-1434" font-family="Helvetica,sans-Serif" font-size="10.00">+ void registerHandle</text>
<text text-anchor="start" x="14.5" y="-1423" font-family="Helvetica,sans-Serif" font-size="10.00">(Action action)</text>
<text text-anchor="start" x="14.5" y="-1412" font-family="Helvetica,sans-Serif" font-size="10.00">+ void setHandleState</text>
<text text-anchor="start" x="14.5" y="-1401" font-family="Helvetica,sans-Serif" font-size="10.00">(bool state)</text>
<text text-anchor="start" x="14.5" y="-1390" font-family="Helvetica,sans-Serif" font-size="10.00"># virtual void log_interface</text>
<text text-anchor="start" x="14.5" y="-1379" font-family="Helvetica,sans-Serif" font-size="10.00">(const string &amp;log, int</text>
<text text-anchor="start" x="14.5" y="-1368" font-family="Helvetica,sans-Serif" font-size="10.00"> level)=0</text>
<text text-anchor="start" x="14.5" y="-1357" font-family="Helvetica,sans-Serif" font-size="10.00"># void handler_trigger</text>
<text text-anchor="start" x="14.5" y="-1346" font-family="Helvetica,sans-Serif" font-size="10.00">(string log, int level)</text>
<text text-anchor="start" x="14.5" y="-1335" font-family="Helvetica,sans-Serif" font-size="10.00">&#45; void create_loggerhandler()</text>
<text text-anchor="start" x="14.5" y="-1324" font-family="Helvetica,sans-Serif" font-size="10.00">&#45; static std::string</text>
<text text-anchor="start" x="14.5" y="-1313" font-family="Helvetica,sans-Serif" font-size="10.00"> constructString()</text>
<text text-anchor="start" x="14.5" y="-1302" font-family="Helvetica,sans-Serif" font-size="10.00">&#45; static std::string</text>
<text text-anchor="start" x="14.5" y="-1291" font-family="Helvetica,sans-Serif" font-size="10.00"> constructString(T &amp;&amp;val,</text>
<text text-anchor="start" x="14.5" y="-1280" font-family="Helvetica,sans-Serif" font-size="10.00"> T1 &amp;&amp;...val1)</text>
<text text-anchor="start" x="14.5" y="-1269" font-family="Helvetica,sans-Serif" font-size="10.00">&#45; static std::string</text>
<text text-anchor="start" x="14.5" y="-1258" font-family="Helvetica,sans-Serif" font-size="10.00"> constructString(const</text>
<text text-anchor="start" x="14.5" y="-1247" font-family="Helvetica,sans-Serif" font-size="10.00"> std::string &amp;a, T &amp;&amp;...val1)</text>
<text text-anchor="start" x="14.5" y="-1236" font-family="Helvetica,sans-Serif" font-size="10.00">&#45; static std::string</text>
<text text-anchor="start" x="14.5" y="-1225" font-family="Helvetica,sans-Serif" font-size="10.00"> constructString(const</text>
<text text-anchor="start" x="14.5" y="-1214" font-family="Helvetica,sans-Serif" font-size="10.00"> MiraiCodeable &amp;val, T</text>
<text text-anchor="start" x="14.5" y="-1203" font-family="Helvetica,sans-Serif" font-size="10.00"> &amp;&amp;...val1)</text>
</a>
</g>
</g>
<!-- Node7&#45;&gt;Node9 -->
<g id="edge10" class="edge">
<title>Node7&#45;&gt;Node9</title>
<path fill="none" stroke="#404040" d="M187.09,-1834.25C176.48,-1812.82 162.41,-1782.17 153.5,-1754 130.66,-1681.76 113.21,-1599.9 100.66,-1529.4"/>
<polygon fill="none" stroke="#404040" points="100.61,-1529.1 95.63,-1523.88 98.53,-1517.28 103.51,-1522.5 100.61,-1529.1"/>
<text text-anchor="middle" x="197" y="-1775" font-family="Helvetica,sans-Serif" font-size="10.00"> +loggerhandler</text>
</g>
<!-- Node8 -->
<g id="node8" class="node">
<title>Node8</title>
<g id="a_node8"><a xlink:href="a00672.html" target="_top" xlink:title="带id(一般为bot账号)的logger">
<polygon fill="white" stroke="black" points="143,-634.5 143,-735.5 278,-735.5 278,-634.5 143,-634.5"/>
<text text-anchor="middle" x="210.5" y="-723.5" font-family="Helvetica,sans-Serif" font-size="10.00">MiraiCP::IdLogger</text>
<polyline fill="none" stroke="black" points="143,-716.5 278,-716.5 "/>
<text text-anchor="middle" x="210.5" y="-704.5" font-family="Helvetica,sans-Serif" font-size="10.00"> </text>
<polyline fill="none" stroke="black" points="143,-697.5 278,-697.5 "/>
<text text-anchor="start" x="151" y="-685.5" font-family="Helvetica,sans-Serif" font-size="10.00">+ IdLogger(QQID id,</text>
<text text-anchor="start" x="151" y="-674.5" font-family="Helvetica,sans-Serif" font-size="10.00"> Logger *l)</text>
<text text-anchor="start" x="151" y="-663.5" font-family="Helvetica,sans-Serif" font-size="10.00"># void log_interface</text>
<text text-anchor="start" x="151" y="-652.5" font-family="Helvetica,sans-Serif" font-size="10.00">(const std::string &amp;content,</text>
<text text-anchor="start" x="151" y="-641.5" font-family="Helvetica,sans-Serif" font-size="10.00"> int level) override</text>
</a>
</g>
</g>
<!-- Node8&#45;&gt;Node4 -->
<g id="edge8" class="edge">
<title>Node8&#45;&gt;Node4</title>
<path fill="none" stroke="#404040" d="M210.5,-634.24C210.5,-577.37 210.5,-484.25 210.5,-422.78"/>
<polygon fill="none" stroke="#404040" points="210.5,-422.55 206.5,-416.55 210.5,-410.55 214.5,-416.55 210.5,-422.55"/>
<text text-anchor="middle" x="235" y="-432" font-family="Helvetica,sans-Serif" font-size="10.00"> +botlogger</text>
</g>
<!-- Node9&#45;&gt;Node8 -->
<g id="edge9" class="edge">
<title>Node9&#45;&gt;Node8</title>
<path fill="none" stroke="midnightblue" d="M108.41,-1185.94C122.16,-1115.68 138.42,-1033.37 153.5,-959 169.33,-880.94 188.35,-790.48 199.93,-735.78"/>
<polygon fill="none" stroke="midnightblue" points="104.97,-1185.28 106.48,-1195.77 111.84,-1186.63 104.97,-1185.28"/>
</g>
<!-- Node10 -->
<g id="node10" class="node">
<title>Node10</title>
<g id="a_node10"><a xlink:title=" ">
<polygon fill="white" stroke="#bfbfbf" points="162.5,-1328 162.5,-1385 260.5,-1385 260.5,-1328 162.5,-1328"/>
<text text-anchor="middle" x="211.5" y="-1373" font-family="Helvetica,sans-Serif" font-size="10.00">unsigned long long</text>
<polyline fill="none" stroke="#bfbfbf" points="162.5,-1366 260.5,-1366 "/>
<text text-anchor="middle" x="211.5" y="-1354" font-family="Helvetica,sans-Serif" font-size="10.00"> </text>
<polyline fill="none" stroke="#bfbfbf" points="162.5,-1347 260.5,-1347 "/>
<text text-anchor="middle" x="211.5" y="-1335" font-family="Helvetica,sans-Serif" font-size="10.00"> </text>
</a>
</g>
</g>
<!-- Node10&#45;&gt;Node8 -->
<g id="edge11" class="edge">
<title>Node10&#45;&gt;Node8</title>
<path fill="none" stroke="#404040" d="M211.46,-1327.58C211.31,-1228.01 210.8,-888.72 210.59,-747.97"/>
<polygon fill="none" stroke="#404040" points="210.59,-747.78 206.58,-741.78 210.57,-735.78 214.58,-741.77 210.59,-747.78"/>
<text text-anchor="middle" x="220" y="-933" font-family="Helvetica,sans-Serif" font-size="10.00"> +id</text>
</g>
<!-- Node11&#45;&gt;Node1 -->
<g id="edge12" class="edge">
<title>Node11&#45;&gt;Node1</title>
<path fill="none" stroke="#404040" d="M694.96,-540.83C671.39,-459.77 644,-356.07 627.5,-262 618.09,-208.35 613.24,-146.33 610.81,-102.63"/>
<polygon fill="none" stroke="#404040" points="610.8,-102.52 606.49,-96.74 610.17,-90.54 614.48,-96.32 610.8,-102.52"/>
<text text-anchor="middle" x="654" y="-283" font-family="Helvetica,sans-Serif" font-size="10.00"> +member</text>
</g>
<!-- Node12 -->
<g id="node12" class="node">
<title>Node12</title>
<g id="a_node12"><a xlink:href="a00424.html" target="_top" xlink:title=" ">
<polygon fill="white" stroke="black" points="829,-1328 829,-1385 968,-1385 968,-1328 829,-1328"/>
<text text-anchor="middle" x="898.5" y="-1373" font-family="Helvetica,sans-Serif" font-size="10.00">MiraiCP::INudgeSupport</text>
<polyline fill="none" stroke="black" points="829,-1366 968,-1366 "/>
<text text-anchor="middle" x="898.5" y="-1354" font-family="Helvetica,sans-Serif" font-size="10.00"> </text>
<polyline fill="none" stroke="black" points="829,-1347 968,-1347 "/>
<text text-anchor="start" x="837" y="-1335" font-family="Helvetica,sans-Serif" font-size="10.00">+ virtual void sendNudge()=0</text>
</a>
</g>
</g>
<!-- Node12&#45;&gt;Node11 -->
<g id="edge14" class="edge">
<title>Node12&#45;&gt;Node11</title>
<path fill="none" stroke="midnightblue" d="M892.12,-1317.71C879.91,-1246.91 851.59,-1089.64 819.5,-959 809.07,-916.55 796.3,-870.83 784.04,-829.16"/>
<polygon fill="none" stroke="midnightblue" points="888.73,-1318.65 893.87,-1327.92 895.63,-1317.47 888.73,-1318.65"/>
</g>
<!-- Node13 -->
<g id="node13" class="node">
<title>Node13</title>
<g id="a_node13"><a xlink:href="a00420.html" target="_top" xlink:title=" ">
<polygon fill="white" stroke="black" points="664.5,-1295 664.5,-1418 810.5,-1418 810.5,-1295 664.5,-1295"/>
<text text-anchor="start" x="672.5" y="-1406" font-family="Helvetica,sans-Serif" font-size="10.00">MiraiCP::ContactDataHelper</text>
<text text-anchor="middle" x="737.5" y="-1395" font-family="Helvetica,sans-Serif" font-size="10.00">&lt; Member, MemberData &gt;</text>
<polyline fill="none" stroke="black" points="664.5,-1388 810.5,-1388 "/>
<text text-anchor="middle" x="737.5" y="-1376" font-family="Helvetica,sans-Serif" font-size="10.00"> </text>
<polyline fill="none" stroke="black" points="664.5,-1369 810.5,-1369 "/>
<text text-anchor="start" x="672.5" y="-1357" font-family="Helvetica,sans-Serif" font-size="10.00">+ std::string nickOrNameCard</text>
<text text-anchor="start" x="672.5" y="-1346" font-family="Helvetica,sans-Serif" font-size="10.00">() const</text>
<text text-anchor="start" x="672.5" y="-1335" font-family="Helvetica,sans-Serif" font-size="10.00">+ std::string avatarUrl</text>
<text text-anchor="start" x="672.5" y="-1324" font-family="Helvetica,sans-Serif" font-size="10.00">() const</text>
<text text-anchor="start" x="672.5" y="-1313" font-family="Helvetica,sans-Serif" font-size="10.00"># DataType * GetDataInternal</text>
<text text-anchor="start" x="672.5" y="-1302" font-family="Helvetica,sans-Serif" font-size="10.00">() const</text>
</a>
</g>
</g>
<!-- Node13&#45;&gt;Node11 -->
<g id="edge15" class="edge">
<title>Node13&#45;&gt;Node11</title>
<path fill="none" stroke="midnightblue" d="M737.71,-1284.79C738.03,-1176.99 738.65,-969.29 739.07,-829.15"/>
<polygon fill="none" stroke="midnightblue" points="734.21,-1284.9 737.68,-1294.91 741.21,-1284.92 734.21,-1284.9"/>
</g>
<!-- Node14 -->
<g id="node14" class="node">
<title>Node14</title>
<g id="a_node14"><a xlink:href="a00420.html" target="_top" xlink:title="Contact类型的数据接口模板类">
<polygon fill="white" stroke="black" points="575,-1801.5 575,-1924.5 734,-1924.5 734,-1801.5 575,-1801.5"/>
<text text-anchor="start" x="583" y="-1912.5" font-family="Helvetica,sans-Serif" font-size="10.00">MiraiCP::ContactDataHelper</text>
<text text-anchor="middle" x="654.5" y="-1901.5" font-family="Helvetica,sans-Serif" font-size="10.00">&lt; ClassType, InternalDataType &gt;</text>
<polyline fill="none" stroke="black" points="575,-1894.5 734,-1894.5 "/>
<text text-anchor="middle" x="654.5" y="-1882.5" font-family="Helvetica,sans-Serif" font-size="10.00"> </text>
<polyline fill="none" stroke="black" points="575,-1875.5 734,-1875.5 "/>
<text text-anchor="start" x="583" y="-1863.5" font-family="Helvetica,sans-Serif" font-size="10.00">+ std::string nickOrNameCard</text>
<text text-anchor="start" x="583" y="-1852.5" font-family="Helvetica,sans-Serif" font-size="10.00">() const</text>
<text text-anchor="start" x="583" y="-1841.5" font-family="Helvetica,sans-Serif" font-size="10.00">+ std::string avatarUrl</text>
<text text-anchor="start" x="583" y="-1830.5" font-family="Helvetica,sans-Serif" font-size="10.00">() const</text>
<text text-anchor="start" x="583" y="-1819.5" font-family="Helvetica,sans-Serif" font-size="10.00"># DataType * GetDataInternal</text>
<text text-anchor="start" x="583" y="-1808.5" font-family="Helvetica,sans-Serif" font-size="10.00">() const</text>
</a>
</g>
</g>
<!-- Node14&#45;&gt;Node13 -->
<g id="edge16" class="edge">
<title>Node14&#45;&gt;Node13</title>
<path fill="none" stroke="orange" d="M701.02,-1792.23C702.31,-1789.16 703.48,-1786.08 704.5,-1783 745.92,-1658.37 745.8,-1502.34 741.81,-1418.14"/>
<polygon fill="orange" stroke="orange" points="697.83,-1790.79 696.85,-1801.34 704.19,-1793.71 697.83,-1790.79"/>
<text text-anchor="middle" x="766.5" y="-1775" font-family="Helvetica,sans-Serif" font-size="10.00"> &lt; Member, MemberData &gt;</text>
</g>
<!-- Node16 -->
<g id="node16" class="node">
<title>Node16</title>
<g id="a_node16"><a xlink:href="a00420.html" target="_top" xlink:title=" ">
<polygon fill="white" stroke="black" points="500.5,-1295 500.5,-1418 646.5,-1418 646.5,-1295 500.5,-1295"/>
<text text-anchor="start" x="508.5" y="-1406" font-family="Helvetica,sans-Serif" font-size="10.00">MiraiCP::ContactDataHelper</text>
<text text-anchor="middle" x="573.5" y="-1395" font-family="Helvetica,sans-Serif" font-size="10.00">&lt; Group, GroupData &gt;</text>
<polyline fill="none" stroke="black" points="500.5,-1388 646.5,-1388 "/>
<text text-anchor="middle" x="573.5" y="-1376" font-family="Helvetica,sans-Serif" font-size="10.00"> </text>
<polyline fill="none" stroke="black" points="500.5,-1369 646.5,-1369 "/>
<text text-anchor="start" x="508.5" y="-1357" font-family="Helvetica,sans-Serif" font-size="10.00">+ std::string nickOrNameCard</text>
<text text-anchor="start" x="508.5" y="-1346" font-family="Helvetica,sans-Serif" font-size="10.00">() const</text>
<text text-anchor="start" x="508.5" y="-1335" font-family="Helvetica,sans-Serif" font-size="10.00">+ std::string avatarUrl</text>
<text text-anchor="start" x="508.5" y="-1324" font-family="Helvetica,sans-Serif" font-size="10.00">() const</text>
<text text-anchor="start" x="508.5" y="-1313" font-family="Helvetica,sans-Serif" font-size="10.00"># DataType * GetDataInternal</text>
<text text-anchor="start" x="508.5" y="-1302" font-family="Helvetica,sans-Serif" font-size="10.00">() const</text>
</a>
</g>
</g>
<!-- Node14&#45;&gt;Node16 -->
<g id="edge20" class="edge">
<title>Node14&#45;&gt;Node16</title>
<path fill="none" stroke="orange" d="M607.96,-1792.23C606.68,-1789.17 605.52,-1786.08 604.5,-1783 563.39,-1658.32 564.35,-1502.31 568.83,-1418.13"/>
<polygon fill="orange" stroke="orange" points="604.79,-1793.71 612.12,-1801.35 611.15,-1790.8 604.79,-1793.71"/>
<text text-anchor="middle" x="654.5" y="-1775" font-family="Helvetica,sans-Serif" font-size="10.00"> &lt; Group, GroupData &gt;</text>
</g>
<!-- Node15&#45;&gt;Node1 -->
<g id="edge17" class="edge">
<title>Node15&#45;&gt;Node1</title>
<path fill="none" stroke="#404040" d="M542.79,-458.27C543.08,-400.03 545.62,-337.54 552.5,-280 559.87,-218.31 577.64,-149.32 591.2,-102.43"/>
<polygon fill="none" stroke="#404040" points="591.26,-102.22 589.11,-95.34 594.63,-90.7 596.79,-97.59 591.26,-102.22"/>
<text text-anchor="middle" x="569.5" y="-283" font-family="Helvetica,sans-Serif" font-size="10.00"> +group</text>
</g>
<!-- Node16&#45;&gt;Node15 -->
<g id="edge19" class="edge">
<title>Node16&#45;&gt;Node15</title>
<path fill="none" stroke="midnightblue" d="M571.18,-1284.76C568.28,-1196.67 563.2,-1041.91 558.92,-911.81"/>
<polygon fill="none" stroke="midnightblue" points="567.68,-1285.03 571.51,-1294.91 574.68,-1284.8 567.68,-1285.03"/>
</g>
<!-- Node17 -->
<g id="node17" class="node">
<title>Node17</title>
<g id="a_node17"><a xlink:title=" ">
<polygon fill="white" stroke="#bfbfbf" points="636.5,-171.5 636.5,-228.5 692.5,-228.5 692.5,-171.5 636.5,-171.5"/>
<text text-anchor="middle" x="664.5" y="-216.5" font-family="Helvetica,sans-Serif" font-size="10.00">optional&lt;</text>
<polyline fill="none" stroke="#bfbfbf" points="636.5,-209.5 692.5,-209.5 "/>
<text text-anchor="middle" x="664.5" y="-197.5" font-family="Helvetica,sans-Serif" font-size="10.00"> </text>
<polyline fill="none" stroke="#bfbfbf" points="636.5,-190.5 692.5,-190.5 "/>
<text text-anchor="middle" x="664.5" y="-178.5" font-family="Helvetica,sans-Serif" font-size="10.00"> </text>
</a>
</g>
</g>
<!-- Node17&#45;&gt;Node1 -->
<g id="edge21" class="edge">
<title>Node17&#45;&gt;Node1</title>
<path fill="none" stroke="#404040" d="M654.36,-171.38C647.26,-152.06 637.54,-125.58 628.87,-101.97"/>
<polygon fill="none" stroke="#404040" points="628.85,-101.93 623.03,-97.67 624.72,-90.66 630.54,-94.92 628.85,-101.93"/>
<text text-anchor="middle" x="657" y="-112" font-family="Helvetica,sans-Serif" font-size="10.00"> +operater</text>
</g>
<!-- Node18 -->
<g id="node18" class="node">
<title>Node18</title>
<g id="a_node18"><a xlink:title=" ">
<polygon fill="white" stroke="#bfbfbf" points="714,-171.5 714,-228.5 743,-228.5 743,-171.5 714,-171.5"/>
<text text-anchor="middle" x="728.5" y="-216.5" font-family="Helvetica,sans-Serif" font-size="10.00">int</text>
<polyline fill="none" stroke="#bfbfbf" points="714,-209.5 743,-209.5 "/>
<text text-anchor="middle" x="728.5" y="-197.5" font-family="Helvetica,sans-Serif" font-size="10.00"> </text>
<polyline fill="none" stroke="#bfbfbf" points="714,-190.5 743,-190.5 "/>
<text text-anchor="middle" x="728.5" y="-178.5" font-family="Helvetica,sans-Serif" font-size="10.00"> </text>
</a>
</g>
</g>
<!-- Node18&#45;&gt;Node1 -->
<g id="edge22" class="edge">
<title>Node18&#45;&gt;Node1</title>
<path fill="none" stroke="#404040" d="M717.2,-171.29C712.64,-160.71 707.13,-148.65 701.5,-138 694.41,-124.59 693.45,-120.45 683.5,-109 680.6,-105.67 677.52,-102.37 674.32,-99.13"/>
<polygon fill="none" stroke="#404040" points="674.24,-99.06 667.15,-97.76 665.62,-90.71 672.71,-92.01 674.24,-99.06"/>
<text text-anchor="middle" x="705.5" y="-112" font-family="Helvetica,sans-Serif" font-size="10.00"> +type</text>
</g>
</g>
</svg>
