<?xml version="1.0" encoding="UTF-8" standalone="no"?>
<!DOCTYPE svg PUBLIC "-//W3C//DTD SVG 1.1//EN"
 "http://www.w3.org/Graphics/SVG/1.1/DTD/svg11.dtd">
<!-- Generated by graphviz version 9.0.0 (0)
 -->
<!-- Title: MiraiCP::ThreadTask::internal::raw_push_task Pages: 1 -->
<svg width="348pt" height="62pt"
 viewBox="0.00 0.00 347.75 62.00" xmlns="http://www.w3.org/2000/svg" xmlns:xlink="http://www.w3.org/1999/xlink">
<g id="graph0" class="graph" transform="scale(1 1) rotate(0) translate(4 58)">
<title>MiraiCP::ThreadTask::internal::raw_push_task</title>
<!-- Node1 -->
<g id="Node000001" class="node">
<title>Node1</title>
<g id="a_Node000001"><a xlink:title=" ">
<polygon fill="#999999" stroke="#666666" points="125.5,-54 0,-54 0,-22 125.5,-22 125.5,-54"/>
<text text-anchor="start" x="8" y="-40.5" font-family="Helvetica,sans-Serif" font-size="10.00">MiraiCP::ThreadTask</text>
<text text-anchor="middle" x="62.75" y="-28.5" font-family="Helvetica,sans-Serif" font-size="10.00">::internal::raw_push_task</text>
</a>
</g>
</g>
<!-- Node2 -->
<g id="Node000002" class="node">
<title>Node2</title>
<g id="a_Node000002"><a xlink:href="a00029.html#a9a37a193bc61a8127790f891efc1af05" target="_top" xlink:title=" ">
<polygon fill="white" stroke="#666666" points="339.75,-48 305,-48 305,-28 339.75,-28 339.75,-48"/>
<text text-anchor="middle" x="322.38" y="-34.5" font-family="Helvetica,sans-Serif" font-size="10.00">func</text>
</a>
</g>
</g>
<!-- Node1&#45;&gt;Node2 -->
<g id="edge1_Node000001_Node000002" class="edge">
<title>Node1&#45;&gt;Node2</title>
<g id="a_edge1_Node000001_Node000002"><a xlink:title=" ">
<path fill="none" stroke="#63b8ff" d="M125.73,-40.3C166.46,-41.47 220.91,-42.38 269,-41 276.98,-40.77 285.64,-40.35 293.57,-39.89"/>
<polygon fill="#63b8ff" stroke="#63b8ff" points="293.6,-43.39 303.36,-39.28 293.16,-36.41 293.6,-43.39"/>
</a>
</g>
</g>
<!-- Node3 -->
<g id="Node000003" class="node">
<title>Node3</title>
<g id="a_Node000003"><a xlink:href="a00426.html#a4dc4ecd3d86eb509647b3130a5239ecf" target="_top" xlink:title=" ">
<polygon fill="white" stroke="#666666" points="269,-32 161.5,-32 161.5,0 269,0 269,-32"/>
<text text-anchor="start" x="169.5" y="-18.5" font-family="Helvetica,sans-Serif" font-size="10.00">LibLoader::LoaderApi</text>
<text text-anchor="middle" x="215.25" y="-6.5" font-family="Helvetica,sans-Serif" font-size="10.00">::pushTask</text>
</a>
</g>
</g>
<!-- Node1&#45;&gt;Node3 -->
<g id="edge2_Node000001_Node000003" class="edge">
<title>Node1&#45;&gt;Node3</title>
<g id="a_edge2_Node000001_Node000003"><a xlink:title=" ">
<path fill="none" stroke="#63b8ff" d="M125.83,-28.92C133.87,-27.75 142.11,-26.55 150.18,-25.37"/>
<polygon fill="#63b8ff" stroke="#63b8ff" points="150.54,-28.85 159.93,-23.94 149.53,-21.92 150.54,-28.85"/>
</a>
</g>
</g>
<!-- Node3&#45;&gt;Node2 -->
<g id="edge3_Node000003_Node000002" class="edge">
<title>Node3&#45;&gt;Node2</title>
<g id="a_edge3_Node000003_Node000002"><a xlink:title=" ">
<path fill="none" stroke="#63b8ff" d="M269.43,-27.13C277.75,-28.87 286.05,-30.61 293.5,-32.17"/>
<polygon fill="#63b8ff" stroke="#63b8ff" points="292.73,-35.58 303.24,-34.2 294.17,-28.73 292.73,-35.58"/>
</a>
</g>
</g>
</g>
</svg>
