<?xml version="1.0" encoding="UTF-8" standalone="no"?>
<!DOCTYPE svg PUBLIC "-//W3C//DTD SVG 1.1//EN"
 "http://www.w3.org/Graphics/SVG/1.1/DTD/svg11.dtd">
<!-- Generated by graphviz version 9.0.0 (0)
 -->
<!-- Title: LibLoader::loader_loadNewPlugin Pages: 1 -->
<svg width="1979pt" height="478pt"
 viewBox="0.00 0.00 1978.50 478.00" xmlns="http://www.w3.org/2000/svg" xmlns:xlink="http://www.w3.org/1999/xlink">
<g id="graph0" class="graph" transform="scale(1 1) rotate(0) translate(4 474)">
<title>LibLoader::loader_loadNewPlugin</title>
<!-- Node1 -->
<g id="Node000001" class="node">
<title>Node1</title>
<g id="a_Node000001"><a xlink:title=" ">
<polygon fill="#999999" stroke="#666666" points="133.75,-170 0,-170 0,-138 133.75,-138 133.75,-170"/>
<text text-anchor="start" x="8" y="-156.5" font-family="Helvetica,sans-Serif" font-size="10.00">LibLoader::loader_loadNew</text>
<text text-anchor="middle" x="66.88" y="-144.5" font-family="Helvetica,sans-Serif" font-size="10.00">Plugin</text>
</a>
</g>
</g>
<!-- Node2 -->
<g id="Node000002" class="node">
<title>Node2</title>
<g id="a_Node000002"><a xlink:href="a00928.html#a39ce5601eee168a69cab158349412c3e" target="_top" xlink:title=" ">
<polygon fill="white" stroke="#666666" points="320,-186 169.75,-186 169.75,-166 320,-166 320,-186"/>
<text text-anchor="middle" x="244.88" y="-172.5" font-family="Helvetica,sans-Serif" font-size="10.00">LibLoader::PluginManager::Get</text>
</a>
</g>
</g>
<!-- Node1&#45;&gt;Node2 -->
<g id="edge1_Node000001_Node000002" class="edge">
<title>Node1&#45;&gt;Node2</title>
<g id="a_edge1_Node000001_Node000002"><a xlink:title=" ">
<path fill="none" stroke="#63b8ff" d="M134.16,-162.29C141.98,-163.26 150.04,-164.27 158.07,-165.27"/>
<polygon fill="#63b8ff" stroke="#63b8ff" points="157.53,-168.73 167.88,-166.5 158.4,-161.79 157.53,-168.73"/>
</a>
</g>
</g>
<!-- Node3 -->
<g id="Node000003" class="node">
<title>Node3</title>
<g id="a_Node000003"><a xlink:href="a00928.html#a7908686a60d87cd6c670cbc581331024" target="_top" xlink:title=" ">
<polygon fill="white" stroke="#666666" points="309.12,-148 180.62,-148 180.62,-116 309.12,-116 309.12,-148"/>
<text text-anchor="start" x="188.62" y="-134.5" font-family="Helvetica,sans-Serif" font-size="10.00">LibLoader::PluginManager</text>
<text text-anchor="middle" x="244.88" y="-122.5" font-family="Helvetica,sans-Serif" font-size="10.00">::loadNewPluginByPath</text>
</a>
</g>
</g>
<!-- Node1&#45;&gt;Node3 -->
<g id="edge2_Node000001_Node000003" class="edge">
<title>Node1&#45;&gt;Node3</title>
<g id="a_edge2_Node000001_Node000003"><a xlink:title=" ">
<path fill="none" stroke="#63b8ff" d="M134.16,-145.71C145.49,-144.3 157.33,-142.82 168.86,-141.38"/>
<polygon fill="#63b8ff" stroke="#63b8ff" points="169.28,-144.85 178.77,-140.14 168.41,-137.91 169.28,-144.85"/>
</a>
</g>
</g>
<!-- Node4 -->
<g id="Node000004" class="node">
<title>Node4</title>
<g id="a_Node000004"><a xlink:href="a00928.html#ad25e53978364d19bf050d66799e579af" target="_top" xlink:title=" ">
<polygon fill="white" stroke="#666666" points="484.5,-148 356,-148 356,-116 484.5,-116 484.5,-148"/>
<text text-anchor="start" x="364" y="-134.5" font-family="Helvetica,sans-Serif" font-size="10.00">LibLoader::PluginManager</text>
<text text-anchor="middle" x="420.25" y="-122.5" font-family="Helvetica,sans-Serif" font-size="10.00">::addNewPlugin</text>
</a>
</g>
</g>
<!-- Node3&#45;&gt;Node4 -->
<g id="edge3_Node000003_Node000004" class="edge">
<title>Node3&#45;&gt;Node4</title>
<g id="a_edge3_Node000003_Node000004"><a xlink:title=" ">
<path fill="none" stroke="#63b8ff" d="M309.45,-132C320.76,-132 332.63,-132 344.22,-132"/>
<polygon fill="#63b8ff" stroke="#63b8ff" points="344.17,-135.5 354.17,-132 344.17,-128.5 344.17,-135.5"/>
</a>
</g>
</g>
<!-- Node5 -->
<g id="Node000005" class="node">
<title>Node5</title>
<g id="a_Node000005"><a xlink:href="a00872.html#ae735f16b20f681d29d4e5d28ad248dbe" target="_top" xlink:title=" ">
<polygon fill="white" stroke="#666666" points="1086.62,-470 964.12,-470 964.12,-438 1086.62,-438 1086.62,-470"/>
<text text-anchor="start" x="972.12" y="-456.5" font-family="Helvetica,sans-Serif" font-size="10.00">LibLoader::LoaderLogger</text>
<text text-anchor="middle" x="1025.38" y="-444.5" font-family="Helvetica,sans-Serif" font-size="10.00">::error</text>
</a>
</g>
</g>
<!-- Node4&#45;&gt;Node5 -->
<g id="edge4_Node000004_Node000005" class="edge">
<title>Node4&#45;&gt;Node5</title>
<g id="a_edge4_Node000004_Node000005"><a xlink:title=" ">
<path fill="none" stroke="#63b8ff" d="M446.46,-148.48C520.91,-196.63 747.27,-339.36 949.5,-429 953.05,-430.57 956.74,-432.11 960.48,-433.59"/>
<polygon fill="#63b8ff" stroke="#63b8ff" points="959.12,-436.82 969.71,-437.08 961.6,-430.27 959.12,-436.82"/>
</a>
</g>
</g>
<!-- Node13 -->
<g id="Node000013" class="node">
<title>Node13</title>
<g id="a_Node000013"><a xlink:href="a00916.html#aa3969cacef7e9a28baa578a90d01aa23" target="_top" xlink:title="安全、带锁地获取id">
<polygon fill="white" stroke="#666666" points="906,-170 809,-170 809,-138 906,-138 906,-170"/>
<text text-anchor="start" x="817" y="-156.5" font-family="Helvetica,sans-Serif" font-size="10.00">LibLoader::Plugin::</text>
<text text-anchor="middle" x="857.5" y="-144.5" font-family="Helvetica,sans-Serif" font-size="10.00">getIdSafe</text>
</a>
</g>
</g>
<!-- Node4&#45;&gt;Node13 -->
<g id="edge14_Node000004_Node000013" class="edge">
<title>Node4&#45;&gt;Node13</title>
<g id="a_edge14_Node000004_Node000013"><a xlink:title=" ">
<path fill="none" stroke="#63b8ff" d="M484.54,-135.2C568.45,-139.44 715.42,-146.87 797.24,-151"/>
<polygon fill="#63b8ff" stroke="#63b8ff" points="796.91,-154.49 807.07,-151.5 797.26,-147.5 796.91,-154.49"/>
</a>
</g>
</g>
<!-- Node16 -->
<g id="Node000016" class="node">
<title>Node16</title>
<g id="a_Node000016"><a xlink:href="a00924.html#a5907aa03cd2b359eb901423314467338" target="_top" xlink:title=" ">
<polygon fill="white" stroke="#666666" points="632.5,-76 520.5,-76 520.5,-44 632.5,-44 632.5,-76"/>
<text text-anchor="start" x="528.5" y="-62.5" font-family="Helvetica,sans-Serif" font-size="10.00">LibLoader::PluginData</text>
<text text-anchor="middle" x="576.5" y="-50.5" font-family="Helvetica,sans-Serif" font-size="10.00">::isLoaded</text>
</a>
</g>
</g>
<!-- Node4&#45;&gt;Node16 -->
<g id="edge17_Node000004_Node000016" class="edge">
<title>Node4&#45;&gt;Node16</title>
<g id="a_edge17_Node000004_Node000016"><a xlink:title=" ">
<path fill="none" stroke="#63b8ff" d="M455.64,-115.55C474.71,-106.47 498.88,-95.03 520.5,-85 523.22,-83.74 526.01,-82.45 528.83,-81.15"/>
<polygon fill="#63b8ff" stroke="#63b8ff" points="530.06,-84.44 537.7,-77.09 527.15,-78.07 530.06,-84.44"/>
</a>
</g>
</g>
<!-- Node17 -->
<g id="Node000017" class="node">
<title>Node17</title>
<g id="a_Node000017"><a xlink:href="a00916.html#abc57e6dfaed7b6445c8ba8d94b09ec13" target="_top" xlink:title=" ">
<polygon fill="white" stroke="#666666" points="625,-126 528,-126 528,-94 625,-94 625,-126"/>
<text text-anchor="start" x="536" y="-112.5" font-family="Helvetica,sans-Serif" font-size="10.00">LibLoader::Plugin::</text>
<text text-anchor="middle" x="576.5" y="-100.5" font-family="Helvetica,sans-Serif" font-size="10.00">unloadPlugin</text>
</a>
</g>
</g>
<!-- Node4&#45;&gt;Node17 -->
<g id="edge18_Node000004_Node000017" class="edge">
<title>Node4&#45;&gt;Node17</title>
<g id="a_edge18_Node000004_Node000017"><a xlink:title=" ">
<path fill="none" stroke="#63b8ff" d="M484.88,-122.92C495.25,-121.45 505.96,-119.92 516.22,-118.46"/>
<polygon fill="#63b8ff" stroke="#63b8ff" points="516.67,-121.93 526.07,-117.05 515.68,-115 516.67,-121.93"/>
</a>
</g>
</g>
<!-- Node6 -->
<g id="Node000006" class="node">
<title>Node6</title>
<g id="a_Node000006"><a xlink:href="a00872.html#af4d7d5164450e25f7401d1cc15f15b8d" target="_top" xlink:title="实际暴露的接口">
<polygon fill="white" stroke="#666666" points="1259.75,-407 1137.25,-407 1137.25,-375 1259.75,-375 1259.75,-407"/>
<text text-anchor="start" x="1145.25" y="-393.5" font-family="Helvetica,sans-Serif" font-size="10.00">LibLoader::LoaderLogger</text>
<text text-anchor="middle" x="1198.5" y="-381.5" font-family="Helvetica,sans-Serif" font-size="10.00">::call_logger</text>
</a>
</g>
</g>
<!-- Node5&#45;&gt;Node6 -->
<g id="edge5_Node000005_Node000006" class="edge">
<title>Node5&#45;&gt;Node6</title>
<g id="a_edge5_Node000005_Node000006"><a xlink:title=" ">
<path fill="none" stroke="#63b8ff" d="M1076.85,-437.56C1085.03,-434.78 1093.39,-431.86 1101.25,-429 1116.19,-423.56 1132.31,-417.34 1147,-411.53"/>
<polygon fill="#63b8ff" stroke="#63b8ff" points="1148.01,-414.89 1156,-407.94 1145.42,-408.39 1148.01,-414.89"/>
</a>
</g>
</g>
<!-- Node7 -->
<g id="Node000007" class="node">
<title>Node7</title>
<g id="a_Node000007"><a xlink:href="a00430.html#a076c5f4ff8083c7cfc6523498d0ba30f" target="_top" xlink:title=" ">
<polygon fill="white" stroke="#666666" points="1550.88,-413 1448.62,-413 1448.62,-381 1550.88,-381 1550.88,-413"/>
<text text-anchor="start" x="1456.62" y="-399.5" font-family="Helvetica,sans-Serif" font-size="10.00">LibLoader::JNIEnvs</text>
<text text-anchor="middle" x="1499.75" y="-387.5" font-family="Helvetica,sans-Serif" font-size="10.00">::getEnv</text>
</a>
</g>
</g>
<!-- Node6&#45;&gt;Node7 -->
<g id="edge6_Node000006_Node000007" class="edge">
<title>Node6&#45;&gt;Node7</title>
<g id="a_edge6_Node000006_Node000007"><a xlink:title=" ">
<path fill="none" stroke="#63b8ff" d="M1260.06,-392.21C1311.5,-393.25 1385.03,-394.72 1436.85,-395.76"/>
<polygon fill="#63b8ff" stroke="#63b8ff" points="1436.64,-399.26 1446.71,-395.96 1436.78,-392.26 1436.64,-399.26"/>
</a>
</g>
</g>
<!-- Node11 -->
<g id="Node000011" class="node">
<title>Node11</title>
<g id="a_Node000011"><a xlink:href="a00425.html#a6a6fcd695791253a9b3a053d313b2b93" target="_top" xlink:title=" ">
<polygon fill="white" stroke="#666666" points="1402.5,-382 1295.75,-382 1295.75,-362 1402.5,-362 1402.5,-382"/>
<text text-anchor="middle" x="1349.12" y="-368.5" font-family="Helvetica,sans-Serif" font-size="10.00">LibLoader::str2jstring</text>
</a>
</g>
</g>
<!-- Node6&#45;&gt;Node11 -->
<g id="edge10_Node000006_Node000011" class="edge">
<title>Node6&#45;&gt;Node11</title>
<g id="a_edge10_Node000006_Node000011"><a xlink:title=" ">
<path fill="none" stroke="#63b8ff" d="M1259.95,-383.27C1267.93,-382.25 1276.12,-381.2 1284.15,-380.18"/>
<polygon fill="#63b8ff" stroke="#63b8ff" points="1284.38,-383.68 1293.86,-378.94 1283.49,-376.73 1284.38,-383.68"/>
</a>
</g>
</g>
<!-- Node8 -->
<g id="Node000008" class="node">
<title>Node8</title>
<g id="a_Node000008"><a xlink:href="a00840.html#aea7d58ff9f04d6d4849c25a2506603a5" target="_top" xlink:title="取env,如果不存在重新获取">
<polygon fill="white" stroke="#666666" points="1720.25,-407 1597,-407 1597,-387 1720.25,-387 1720.25,-407"/>
<text text-anchor="middle" x="1658.62" y="-393.5" font-family="Helvetica,sans-Serif" font-size="10.00">JNIEnvManager::getEnv</text>
</a>
</g>
</g>
<!-- Node7&#45;&gt;Node8 -->
<g id="edge7_Node000007_Node000008" class="edge">
<title>Node7&#45;&gt;Node8</title>
<g id="a_edge7_Node000007_Node000008"><a xlink:title=" ">
<path fill="none" stroke="#63b8ff" d="M1551.25,-397C1562.07,-397 1573.7,-397 1585.16,-397"/>
<polygon fill="#63b8ff" stroke="#63b8ff" points="1585.01,-400.5 1595.01,-397 1585.01,-393.5 1585.01,-400.5"/>
</a>
</g>
</g>
<!-- Node9 -->
<g id="Node000009" class="node">
<title>Node9</title>
<g id="a_Node000009"><a xlink:href="a00260.html#a3d31403b7971274d47d308245206bd24" target="_top" xlink:title="为当前线程创建一个env.">
<polygon fill="white" stroke="#666666" points="1807.5,-407 1756.25,-407 1756.25,-387 1807.5,-387 1807.5,-407"/>
<text text-anchor="middle" x="1781.88" y="-393.5" font-family="Helvetica,sans-Serif" font-size="10.00">newEnv</text>
</a>
</g>
</g>
<!-- Node8&#45;&gt;Node9 -->
<g id="edge8_Node000008_Node000009" class="edge">
<title>Node8&#45;&gt;Node9</title>
<g id="a_edge8_Node000008_Node000009"><a xlink:title=" ">
<path fill="none" stroke="#63b8ff" d="M1720.61,-397C1728.81,-397 1737.01,-397 1744.59,-397"/>
<polygon fill="#63b8ff" stroke="#63b8ff" points="1744.41,-400.5 1754.41,-397 1744.41,-393.5 1744.41,-400.5"/>
</a>
</g>
</g>
<!-- Node10 -->
<g id="Node000010" class="node">
<title>Node10</title>
<g id="a_Node000010"><a xlink:href="a00840.html#ae0e482c6a813848a8f5d34957d1b6307" target="_top" xlink:title="获取全局JavaVM对象.">
<polygon fill="white" stroke="#666666" points="1970.5,-407 1843.5,-407 1843.5,-387 1970.5,-387 1970.5,-407"/>
<text text-anchor="middle" x="1907" y="-393.5" font-family="Helvetica,sans-Serif" font-size="10.00">JNIEnvManager::getGvm</text>
</a>
</g>
</g>
<!-- Node9&#45;&gt;Node10 -->
<g id="edge9_Node000009_Node000010" class="edge">
<title>Node9&#45;&gt;Node10</title>
<g id="a_edge9_Node000009_Node000010"><a xlink:title=" ">
<path fill="none" stroke="#63b8ff" d="M1807.79,-397C1814.97,-397 1823.2,-397 1831.77,-397"/>
<polygon fill="#63b8ff" stroke="#63b8ff" points="1831.66,-400.5 1841.66,-397 1831.66,-393.5 1831.66,-400.5"/>
</a>
</g>
</g>
<!-- Node11&#45;&gt;Node7 -->
<g id="edge11_Node000011_Node000007" class="edge">
<title>Node11&#45;&gt;Node7</title>
<g id="a_edge11_Node000011_Node000007"><a xlink:title=" ">
<path fill="none" stroke="#63b8ff" d="M1402.94,-380.88C1414.08,-382.76 1425.93,-384.75 1437.35,-386.67"/>
<polygon fill="#63b8ff" stroke="#63b8ff" points="1436.66,-390.1 1447.1,-388.31 1437.82,-383.2 1436.66,-390.1"/>
</a>
</g>
</g>
<!-- Node12 -->
<g id="Node000012" class="node">
<title>Node12</title>
<g id="a_Node000012"><a xlink:href="a00872.html#af50d0545fe7d683e54fcd03453a423e3" target="_top" xlink:title=" ">
<polygon fill="white" stroke="#666666" points="1561,-350 1438.5,-350 1438.5,-318 1561,-318 1561,-350"/>
<text text-anchor="start" x="1446.5" y="-336.5" font-family="Helvetica,sans-Serif" font-size="10.00">LibLoader::LoaderLogger</text>
<text text-anchor="middle" x="1499.75" y="-324.5" font-family="Helvetica,sans-Serif" font-size="10.00">::warning</text>
</a>
</g>
</g>
<!-- Node11&#45;&gt;Node12 -->
<g id="edge12_Node000011_Node000012" class="edge">
<title>Node11&#45;&gt;Node12</title>
<g id="a_edge12_Node000011_Node000012"><a xlink:title=" ">
<path fill="none" stroke="#63b8ff" d="M1391.13,-361.52C1402.36,-358.64 1414.87,-355.45 1427.28,-352.27"/>
<polygon fill="#63b8ff" stroke="#63b8ff" points="1427.83,-355.75 1436.65,-349.88 1426.1,-348.96 1427.83,-355.75"/>
</a>
</g>
</g>
<!-- Node12&#45;&gt;Node6 -->
<g id="edge13_Node000012_Node000006" class="edge">
<title>Node12&#45;&gt;Node6</title>
<g id="a_edge13_Node000012_Node000006"><a xlink:title=" ">
<path fill="none" stroke="#63b8ff" d="M1438.06,-335.21C1397.34,-337.11 1342.74,-341.77 1295.75,-353 1278.57,-357.11 1260.39,-363.66 1244.51,-370.18"/>
<polygon fill="#63b8ff" stroke="#63b8ff" points="1243.17,-366.95 1235.32,-374.07 1245.9,-373.4 1243.17,-366.95"/>
</a>
</g>
</g>
<!-- Node14 -->
<g id="Node000014" class="node">
<title>Node14</title>
<g id="a_Node000014"><a xlink:href="a00924.html#a0c7449a3e94c1e4659337e62fc513fd8" target="_top" xlink:title=" ">
<polygon fill="white" stroke="#666666" points="1081.38,-120 969.38,-120 969.38,-88 1081.38,-88 1081.38,-120"/>
<text text-anchor="start" x="977.38" y="-106.5" font-family="Helvetica,sans-Serif" font-size="10.00">LibLoader::PluginData</text>
<text text-anchor="middle" x="1025.38" y="-94.5" font-family="Helvetica,sans-Serif" font-size="10.00">::_getId</text>
</a>
</g>
</g>
<!-- Node13&#45;&gt;Node14 -->
<g id="edge15_Node000013_Node000014" class="edge">
<title>Node13&#45;&gt;Node14</title>
<g id="a_edge15_Node000013_Node000014"><a xlink:title=" ">
<path fill="none" stroke="#63b8ff" d="M906.48,-139.54C922.88,-134.59 941.51,-128.98 959.05,-123.69"/>
<polygon fill="#63b8ff" stroke="#63b8ff" points="959.78,-127.13 968.34,-120.89 957.76,-120.42 959.78,-127.13"/>
</a>
</g>
</g>
<!-- Node15 -->
<g id="Node000015" class="node">
<title>Node15</title>
<g id="a_Node000015"><a xlink:href="a00916.html#ae42c2fb572d9814de8f0a10ca2c0d2f3" target="_top" xlink:title=" ">
<polygon fill="white" stroke="#666666" points="1073.88,-170 976.88,-170 976.88,-138 1073.88,-138 1073.88,-170"/>
<text text-anchor="start" x="984.88" y="-156.5" font-family="Helvetica,sans-Serif" font-size="10.00">LibLoader::Plugin::</text>
<text text-anchor="middle" x="1025.38" y="-144.5" font-family="Helvetica,sans-Serif" font-size="10.00">checkValid</text>
</a>
</g>
</g>
<!-- Node13&#45;&gt;Node15 -->
<g id="edge16_Node000013_Node000015" class="edge">
<title>Node13&#45;&gt;Node15</title>
<g id="a_edge16_Node000013_Node000015"><a xlink:title=" ">
<path fill="none" stroke="#63b8ff" d="M906.48,-154C924.79,-154 945.88,-154 965.12,-154"/>
<polygon fill="#63b8ff" stroke="#63b8ff" points="964.99,-157.5 974.99,-154 964.99,-150.5 964.99,-157.5"/>
</a>
</g>
</g>
<!-- Node18 -->
<g id="Node000018" class="node">
<title>Node18</title>
<g id="a_Node000018"><a xlink:href="a00916.html#ac03a32a4b96ba4618fee0628d3998aef" target="_top" xlink:title=" ">
<polygon fill="white" stroke="#666666" points="765.5,-120 668.5,-120 668.5,-88 765.5,-88 765.5,-120"/>
<text text-anchor="start" x="676.5" y="-106.5" font-family="Helvetica,sans-Serif" font-size="10.00">LibLoader::Plugin::</text>
<text text-anchor="middle" x="717" y="-94.5" font-family="Helvetica,sans-Serif" font-size="10.00">unloadInternal</text>
</a>
</g>
</g>
<!-- Node17&#45;&gt;Node18 -->
<g id="edge19_Node000017_Node000018" class="edge">
<title>Node17&#45;&gt;Node18</title>
<g id="a_edge19_Node000017_Node000018"><a xlink:title=" ">
<path fill="none" stroke="#63b8ff" d="M625.16,-107.94C635.39,-107.49 646.32,-107.02 656.92,-106.56"/>
<polygon fill="#63b8ff" stroke="#63b8ff" points="656.9,-110.06 666.74,-106.13 656.59,-103.07 656.9,-110.06"/>
</a>
</g>
</g>
<!-- Node18&#45;&gt;Node12 -->
<g id="edge34_Node000018_Node000012" class="edge">
<title>Node18&#45;&gt;Node12</title>
<g id="a_edge34_Node000018_Node000012"><a xlink:title=" ">
<path fill="none" stroke="#63b8ff" d="M765.71,-87.88C777.31,-84.47 789.76,-81.23 801.5,-79 899.16,-60.42 924.96,-60 1024.38,-60 1024.38,-60 1024.38,-60 1199.5,-60 1345.26,-60 1450.9,-239.03 1486.05,-307.66"/>
<polygon fill="#63b8ff" stroke="#63b8ff" points="1482.78,-308.96 1490.4,-316.33 1489.04,-305.82 1482.78,-308.96"/>
</a>
</g>
</g>
<!-- Node19 -->
<g id="Node000019" class="node">
<title>Node19</title>
<g id="a_Node000019"><a xlink:href="a00924.html#a06be765d6cf55aa951f7eecb7ba578e8" target="_top" xlink:title=" ">
<polygon fill="white" stroke="#666666" points="913.5,-32 801.5,-32 801.5,0 913.5,0 913.5,-32"/>
<text text-anchor="start" x="809.5" y="-18.5" font-family="Helvetica,sans-Serif" font-size="10.00">LibLoader::PluginData</text>
<text text-anchor="middle" x="857.5" y="-6.5" font-family="Helvetica,sans-Serif" font-size="10.00">::_unload</text>
</a>
</g>
</g>
<!-- Node18&#45;&gt;Node19 -->
<g id="edge20_Node000018_Node000019" class="edge">
<title>Node18&#45;&gt;Node19</title>
<g id="a_edge20_Node000018_Node000019"><a xlink:title=" ">
<path fill="none" stroke="#63b8ff" d="M740.24,-87.57C756.82,-75.57 780.17,-59.17 801.5,-46 805.83,-43.32 810.42,-40.62 815.03,-38"/>
<polygon fill="#63b8ff" stroke="#63b8ff" points="816.7,-41.07 823.72,-33.14 813.28,-34.96 816.7,-41.07"/>
</a>
</g>
</g>
<!-- Node21 -->
<g id="Node000021" class="node">
<title>Node21</title>
<g id="a_Node000021"><a xlink:href="a00916.html#a006c0eaa142f9aa1760ec307cd3c0cee" target="_top" xlink:title=" ">
<polygon fill="white" stroke="#666666" points="906,-270 809,-270 809,-238 906,-238 906,-270"/>
<text text-anchor="start" x="817" y="-256.5" font-family="Helvetica,sans-Serif" font-size="10.00">LibLoader::Plugin::</text>
<text text-anchor="middle" x="857.5" y="-244.5" font-family="Helvetica,sans-Serif" font-size="10.00">disableInternal</text>
</a>
</g>
</g>
<!-- Node18&#45;&gt;Node21 -->
<g id="edge22_Node000018_Node000021" class="edge">
<title>Node18&#45;&gt;Node21</title>
<g id="a_edge22_Node000018_Node000021"><a xlink:title=" ">
<path fill="none" stroke="#63b8ff" d="M733.09,-120.34C757.44,-146.71 805.55,-198.82 833.97,-229.6"/>
<polygon fill="#63b8ff" stroke="#63b8ff" points="831.05,-231.6 840.41,-236.57 836.19,-226.85 831.05,-231.6"/>
</a>
</g>
</g>
<!-- Node28 -->
<g id="Node000028" class="node">
<title>Node28</title>
<g id="a_Node000028"><a xlink:href="a00426.html#a830b51c74068e1461e1baf677dd10ac2" target="_top" xlink:title=" ">
<polygon fill="white" stroke="#666666" points="911.25,-120 803.75,-120 803.75,-88 911.25,-88 911.25,-120"/>
<text text-anchor="start" x="811.75" y="-106.5" font-family="Helvetica,sans-Serif" font-size="10.00">LibLoader::LoaderApi</text>
<text text-anchor="middle" x="857.5" y="-94.5" font-family="Helvetica,sans-Serif" font-size="10.00">::libClose</text>
</a>
</g>
</g>
<!-- Node18&#45;&gt;Node28 -->
<g id="edge33_Node000018_Node000028" class="edge">
<title>Node18&#45;&gt;Node28</title>
<g id="a_edge33_Node000018_Node000028"><a xlink:title=" ">
<path fill="none" stroke="#63b8ff" d="M765.66,-104C774.25,-104 783.32,-104 792.28,-104"/>
<polygon fill="#63b8ff" stroke="#63b8ff" points="792.01,-107.5 802.01,-104 792.01,-100.5 792.01,-107.5"/>
</a>
</g>
</g>
<!-- Node20 -->
<g id="Node000020" class="node">
<title>Node20</title>
<g id="a_Node000020"><a xlink:href="a00920.html#a81c7f6972e7ed7429f2ce9ba82c9ba31" target="_top" xlink:title=" ">
<polygon fill="white" stroke="#666666" points="1091.88,-32 958.88,-32 958.88,0 1091.88,0 1091.88,-32"/>
<text text-anchor="start" x="966.88" y="-18.5" font-family="Helvetica,sans-Serif" font-size="10.00">LibLoader::PluginFuncAddr</text>
<text text-anchor="middle" x="1025.38" y="-6.5" font-family="Helvetica,sans-Serif" font-size="10.00">Data::_resetAddrData</text>
</a>
</g>
</g>
<!-- Node19&#45;&gt;Node20 -->
<g id="edge21_Node000019_Node000020" class="edge">
<title>Node19&#45;&gt;Node20</title>
<g id="a_edge21_Node000019_Node000020"><a xlink:title=" ">
<path fill="none" stroke="#63b8ff" d="M913.73,-16C924.48,-16 935.92,-16 947.22,-16"/>
<polygon fill="#63b8ff" stroke="#63b8ff" points="946.93,-19.5 956.93,-16 946.93,-12.5 946.93,-19.5"/>
</a>
</g>
</g>
<!-- Node21&#45;&gt;Node5 -->
<g id="edge27_Node000021_Node000005" class="edge">
<title>Node21&#45;&gt;Node5</title>
<g id="a_edge27_Node000021_Node000005"><a xlink:title=" ">
<path fill="none" stroke="#63b8ff" d="M866.86,-270.46C888.71,-313.48 946.13,-426.12 949.5,-429 950.97,-430.25 952.5,-431.45 954.09,-432.58"/>
<polygon fill="#63b8ff" stroke="#63b8ff" points="952.04,-435.43 962.4,-437.65 955.69,-429.45 952.04,-435.43"/>
</a>
</g>
</g>
<!-- Node21&#45;&gt;Node14 -->
<g id="edge24_Node000021_Node000014" class="edge">
<title>Node21&#45;&gt;Node14</title>
<g id="a_edge24_Node000021_Node000014"><a xlink:title=" ">
<path fill="none" stroke="#63b8ff" d="M870.56,-237.64C881.73,-222.47 898.79,-199.25 913.5,-179 929.6,-156.85 927.45,-145.23 949.5,-129 952.48,-126.81 955.66,-124.8 958.98,-122.96"/>
<polygon fill="#63b8ff" stroke="#63b8ff" points="960.42,-126.15 967.86,-118.6 957.34,-119.86 960.42,-126.15"/>
</a>
</g>
</g>
<!-- Node21&#45;&gt;Node15 -->
<g id="edge25_Node000021_Node000015" class="edge">
<title>Node21&#45;&gt;Node15</title>
<g id="a_edge25_Node000021_Node000015"><a xlink:title=" ">
<path fill="none" stroke="#63b8ff" d="M874.56,-237.59C891.75,-220.83 920.49,-195.07 949.5,-179 954.75,-176.1 960.38,-173.45 966.13,-171.07"/>
<polygon fill="#63b8ff" stroke="#63b8ff" points="967.04,-174.47 975.11,-167.6 964.52,-167.94 967.04,-174.47"/>
</a>
</g>
</g>
<!-- Node22 -->
<g id="Node000022" class="node">
<title>Node22</title>
<g id="a_Node000022"><a xlink:href="a00924.html#af4e8baa9d706f75b1bf21d95069d3f42" target="_top" xlink:title=" ">
<polygon fill="white" stroke="#666666" points="1081.38,-420 969.38,-420 969.38,-388 1081.38,-388 1081.38,-420"/>
<text text-anchor="start" x="977.38" y="-406.5" font-family="Helvetica,sans-Serif" font-size="10.00">LibLoader::PluginData</text>
<text text-anchor="middle" x="1025.38" y="-394.5" font-family="Helvetica,sans-Serif" font-size="10.00">::_disable</text>
</a>
</g>
</g>
<!-- Node21&#45;&gt;Node22 -->
<g id="edge23_Node000021_Node000022" class="edge">
<title>Node21&#45;&gt;Node22</title>
<g id="a_edge23_Node000021_Node000022"><a xlink:title=" ">
<path fill="none" stroke="#63b8ff" d="M866.15,-270.31C879.43,-296.89 909.21,-349.51 949.5,-379 952.49,-381.19 955.67,-383.19 958.99,-385.02"/>
<polygon fill="#63b8ff" stroke="#63b8ff" points="957.36,-388.12 967.88,-389.37 960.44,-381.83 957.36,-388.12"/>
</a>
</g>
</g>
<!-- Node23 -->
<g id="Node000023" class="node">
<title>Node23</title>
<g id="a_Node000023"><a xlink:href="a00772.html#a62b91390b919ca8df0b6036c7e07f326" target="_top" xlink:title=" ">
<polygon fill="white" stroke="#666666" points="1101.25,-370 949.5,-370 949.5,-338 1101.25,-338 1101.25,-370"/>
<text text-anchor="start" x="957.5" y="-356.5" font-family="Helvetica,sans-Serif" font-size="10.00">MiraiCP::PluginInterface</text>
<text text-anchor="middle" x="1025.38" y="-344.5" font-family="Helvetica,sans-Serif" font-size="10.00">::PluginMessageHandles::clear</text>
</a>
</g>
</g>
<!-- Node21&#45;&gt;Node23 -->
<g id="edge26_Node000021_Node000023" class="edge">
<title>Node21&#45;&gt;Node23</title>
<g id="a_edge26_Node000021_Node000023"><a xlink:title=" ">
<path fill="none" stroke="#63b8ff" d="M874.56,-270.41C891.75,-287.17 920.49,-312.93 949.5,-329 952.02,-330.39 954.63,-331.73 957.29,-333"/>
<polygon fill="#63b8ff" stroke="#63b8ff" points="955.86,-336.19 966.42,-337.01 958.67,-329.78 955.86,-336.19"/>
</a>
</g>
</g>
<!-- Node24 -->
<g id="Node000024" class="node">
<title>Node24</title>
<g id="a_Node000024"><a xlink:href="a00433.html#aae621af986af1d6d3203f63858d3ac26" target="_top" xlink:title=" ">
<polygon fill="white" stroke="#666666" points="1089.25,-320 961.5,-320 961.5,-288 1089.25,-288 1089.25,-320"/>
<text text-anchor="start" x="969.5" y="-306.5" font-family="Helvetica,sans-Serif" font-size="10.00">ThreadIdentify::setThread</text>
<text text-anchor="middle" x="1025.38" y="-294.5" font-family="Helvetica,sans-Serif" font-size="10.00">WorkingName</text>
</a>
</g>
</g>
<!-- Node21&#45;&gt;Node24 -->
<g id="edge28_Node000021_Node000024" class="edge">
<title>Node21&#45;&gt;Node24</title>
<g id="a_edge28_Node000021_Node000024"><a xlink:title=" ">
<path fill="none" stroke="#63b8ff" d="M906.48,-268.46C922.88,-273.41 941.51,-279.02 959.05,-284.31"/>
<polygon fill="#63b8ff" stroke="#63b8ff" points="957.76,-287.58 968.34,-287.11 959.78,-280.87 957.76,-287.58"/>
</a>
</g>
</g>
<!-- Node26 -->
<g id="Node000026" class="node">
<title>Node26</title>
<g id="a_Node000026"><a xlink:href="a00433.html#a2db790edad6d2f47d59c98f494d89b17" target="_top" xlink:title=" ">
<polygon fill="white" stroke="#666666" points="1094.5,-270 956.25,-270 956.25,-238 1094.5,-238 1094.5,-270"/>
<text text-anchor="start" x="964.25" y="-256.5" font-family="Helvetica,sans-Serif" font-size="10.00">ThreadIdentify::unsetThread</text>
<text text-anchor="middle" x="1025.38" y="-244.5" font-family="Helvetica,sans-Serif" font-size="10.00">WorkingName</text>
</a>
</g>
</g>
<!-- Node21&#45;&gt;Node26 -->
<g id="edge30_Node000021_Node000026" class="edge">
<title>Node21&#45;&gt;Node26</title>
<g id="a_edge30_Node000021_Node000026"><a xlink:title=" ">
<path fill="none" stroke="#63b8ff" d="M906.48,-254C918.39,-254 931.49,-254 944.48,-254"/>
<polygon fill="#63b8ff" stroke="#63b8ff" points="944.33,-257.5 954.33,-254 944.33,-250.5 944.33,-257.5"/>
</a>
</g>
</g>
<!-- Node27 -->
<g id="Node000027" class="node">
<title>Node27</title>
<g id="a_Node000027"><a xlink:href="a00916.html#a6ef15df69e979357df7bd10031bf2328" target="_top" xlink:title=" ">
<polygon fill="white" stroke="#666666" points="1073.88,-220 976.88,-220 976.88,-188 1073.88,-188 1073.88,-220"/>
<text text-anchor="start" x="984.88" y="-206.5" font-family="Helvetica,sans-Serif" font-size="10.00">LibLoader::Plugin::</text>
<text text-anchor="middle" x="1025.38" y="-194.5" font-family="Helvetica,sans-Serif" font-size="10.00">updateTimeStamp</text>
</a>
</g>
</g>
<!-- Node21&#45;&gt;Node27 -->
<g id="edge32_Node000021_Node000027" class="edge">
<title>Node21&#45;&gt;Node27</title>
<g id="a_edge32_Node000021_Node000027"><a xlink:title=" ">
<path fill="none" stroke="#63b8ff" d="M906.48,-239.54C924.96,-233.97 946.28,-227.54 965.66,-221.7"/>
<polygon fill="#63b8ff" stroke="#63b8ff" points="966.49,-225.1 975.06,-218.87 964.47,-218.4 966.49,-225.1"/>
</a>
</g>
</g>
<!-- Node25 -->
<g id="Node000025" class="node">
<title>Node25</title>
<g id="a_Node000025"><a xlink:href="a00433.html#a3faddb4b1d901c39b71cd3559fbd5e3b" target="_top" xlink:title=" ">
<polygon fill="white" stroke="#666666" points="1259.75,-295 1137.25,-295 1137.25,-263 1259.75,-263 1259.75,-295"/>
<text text-anchor="start" x="1145.25" y="-281.5" font-family="Helvetica,sans-Serif" font-size="10.00">ThreadIdentify::internal</text>
<text text-anchor="middle" x="1198.5" y="-269.5" font-family="Helvetica,sans-Serif" font-size="10.00">SetThreadWorkingName</text>
</a>
</g>
</g>
<!-- Node24&#45;&gt;Node25 -->
<g id="edge29_Node000024_Node000025" class="edge">
<title>Node24&#45;&gt;Node25</title>
<g id="a_edge29_Node000024_Node000025"><a xlink:title=" ">
<path fill="none" stroke="#63b8ff" d="M1089.61,-294.76C1101.3,-293.05 1113.58,-291.26 1125.51,-289.52"/>
<polygon fill="#63b8ff" stroke="#63b8ff" points="1125.91,-293 1135.3,-288.09 1124.9,-286.07 1125.91,-293"/>
</a>
</g>
</g>
<!-- Node26&#45;&gt;Node25 -->
<g id="edge31_Node000026_Node000025" class="edge">
<title>Node26&#45;&gt;Node25</title>
<g id="a_edge31_Node000026_Node000025"><a xlink:title=" ">
<path fill="none" stroke="#63b8ff" d="M1094.99,-264.02C1105.06,-265.5 1115.45,-267.01 1125.58,-268.49"/>
<polygon fill="#63b8ff" stroke="#63b8ff" points="1124.98,-271.94 1135.38,-269.92 1125.99,-265.02 1124.98,-271.94"/>
</a>
</g>
</g>
</g>
</svg>
