<?xml version="1.0" encoding="UTF-8" standalone="no"?>
<!DOCTYPE svg PUBLIC "-//W3C//DTD SVG 1.1//EN"
 "http://www.w3.org/Graphics/SVG/1.1/DTD/svg11.dtd">
<!-- Generated by graphviz version 9.0.0 (0)
 -->
<!-- Title: MiraiCP::json_stringmover Pages: 1 -->
<svg width="476pt" height="304pt"
 viewBox="0.00 0.00 476.00 304.00" xmlns="http://www.w3.org/2000/svg" xmlns:xlink="http://www.w3.org/1999/xlink">
<g id="graph0" class="graph" transform="scale(1 1) rotate(0) translate(4 300)">
<title>MiraiCP::json_stringmover</title>
<!-- Node1 -->
<g id="Node000001" class="node">
<title>Node1</title>
<g id="a_Node000001"><a xlink:title=" ">
<polygon fill="#999999" stroke="#666666" points="468,-164 336.5,-164 336.5,-144 468,-144 468,-164"/>
<text text-anchor="middle" x="402.25" y="-150.5" font-family="Helvetica,sans-Serif" font-size="10.00">MiraiCP::json_stringmover</text>
</a>
</g>
</g>
<!-- Node2 -->
<g id="Node000002" class="node">
<title>Node2</title>
<g id="a_Node000002"><a xlink:href="a00960.html#ab9cf06d58e4562680e5dcabec8556758" target="_top" xlink:title="读入json数据, 由子类实现, 无锁">
<polygon fill="white" stroke="#666666" points="284,-296 168.25,-296 168.25,-264 284,-264 284,-296"/>
<text text-anchor="start" x="176.25" y="-282.5" font-family="Helvetica,sans-Serif" font-size="10.00">MiraiCP::IContactData</text>
<text text-anchor="middle" x="226.12" y="-270.5" font-family="Helvetica,sans-Serif" font-size="10.00">::deserialize</text>
</a>
</g>
</g>
<!-- Node1&#45;&gt;Node2 -->
<g id="edge1_Node000001_Node000002" class="edge">
<title>Node1&#45;&gt;Node2</title>
<g id="a_edge1_Node000001_Node000002"><a xlink:title=" ">
<path fill="none" stroke="#63b8ff" d="M386.55,-173.4C368.55,-195.94 336.02,-232.86 300.5,-255 295.36,-258.2 289.76,-261.05 284.02,-263.58"/>
<polygon fill="#63b8ff" stroke="#63b8ff" points="389.23,-175.66 392.63,-165.62 383.71,-171.35 389.23,-175.66"/>
</a>
</g>
</g>
<!-- Node3 -->
<g id="Node000003" class="node">
<title>Node3</title>
<g id="a_Node000003"><a xlink:href="a00604.html#a6a761113b704cd93a836df23ca742bd2" target="_top" xlink:title="构建好友对象，一般为内部调用">
<polygon fill="white" stroke="#666666" points="284.75,-246 167.5,-246 167.5,-226 284.75,-226 284.75,-246"/>
<text text-anchor="middle" x="226.12" y="-232.5" font-family="Helvetica,sans-Serif" font-size="10.00">MiraiCP::Friend::Friend</text>
</a>
</g>
</g>
<!-- Node1&#45;&gt;Node3 -->
<g id="edge2_Node000001_Node000003" class="edge">
<title>Node1&#45;&gt;Node3</title>
<g id="a_edge2_Node000001_Node000003"><a xlink:title=" ">
<path fill="none" stroke="#63b8ff" d="M378.58,-171.01C358.85,-185.1 329.03,-204.73 300.5,-217 292.76,-220.33 284.31,-223.18 275.98,-225.58"/>
<polygon fill="#63b8ff" stroke="#63b8ff" points="380.4,-174.01 386.43,-165.3 376.29,-168.35 380.4,-174.01"/>
</a>
</g>
</g>
<!-- Node4 -->
<g id="Node000004" class="node">
<title>Node4</title>
<g id="a_Node000004"><a xlink:href="a00624.html#ac37320efdba19e1071762cbd6443dfbe" target="_top" xlink:title="构建群对象，一般为内部调用">
<polygon fill="white" stroke="#666666" points="284,-208 168.25,-208 168.25,-188 284,-188 284,-208"/>
<text text-anchor="middle" x="226.12" y="-194.5" font-family="Helvetica,sans-Serif" font-size="10.00">MiraiCP::Group::Group</text>
</a>
</g>
</g>
<!-- Node1&#45;&gt;Node4 -->
<g id="edge3_Node000001_Node000004" class="edge">
<title>Node1&#45;&gt;Node4</title>
<g id="a_edge3_Node000001_Node000004"><a xlink:title=" ">
<path fill="none" stroke="#63b8ff" d="M348.9,-167.23C323.12,-173.74 292.49,-181.48 268.4,-187.57"/>
<polygon fill="#63b8ff" stroke="#63b8ff" points="349.68,-170.64 358.52,-164.8 347.96,-163.85 349.68,-170.64"/>
</a>
</g>
</g>
<!-- Node5 -->
<g id="Node000005" class="node">
<title>Node5</title>
<g id="a_Node000005"><a xlink:href="a00480.html#aca8d122b5ac259f28f372f02cdd38930" target="_top" xlink:title=" ">
<polygon fill="white" stroke="#666666" points="290,-170 162.25,-170 162.25,-138 290,-138 290,-170"/>
<text text-anchor="start" x="170.25" y="-156.5" font-family="Helvetica,sans-Serif" font-size="10.00">MiraiCP::Event::incoming</text>
<text text-anchor="middle" x="226.12" y="-144.5" font-family="Helvetica,sans-Serif" font-size="10.00">Event</text>
</a>
</g>
</g>
<!-- Node1&#45;&gt;Node5 -->
<g id="edge4_Node000001_Node000005" class="edge">
<title>Node1&#45;&gt;Node5</title>
<g id="a_edge4_Node000001_Node000005"><a xlink:title=" ">
<path fill="none" stroke="#63b8ff" d="M324.95,-154C313.37,-154 301.54,-154 290.28,-154"/>
<polygon fill="#63b8ff" stroke="#63b8ff" points="324.9,-157.5 334.9,-154 324.9,-150.5 324.9,-157.5"/>
</a>
</g>
</g>
<!-- Node6 -->
<g id="Node000006" class="node">
<title>Node6</title>
<g id="a_Node000006"><a xlink:href="a00980.html#a39064f9c2b148b3a3061f818bf237215" target="_top" xlink:title=" ">
<polygon fill="white" stroke="#666666" points="283.62,-120 168.62,-120 168.62,-88 283.62,-88 283.62,-120"/>
<text text-anchor="start" x="176.62" y="-106.5" font-family="Helvetica,sans-Serif" font-size="10.00">MiraiCP::LowLevelAPI</text>
<text text-anchor="middle" x="226.12" y="-94.5" font-family="Helvetica,sans-Serif" font-size="10.00">::info0</text>
</a>
</g>
</g>
<!-- Node1&#45;&gt;Node6 -->
<g id="edge5_Node000001_Node000006" class="edge">
<title>Node1&#45;&gt;Node6</title>
<g id="a_edge5_Node000001_Node000006"><a xlink:title=" ">
<path fill="none" stroke="#63b8ff" d="M353.86,-140.39C332.23,-134.18 306.45,-126.78 283.81,-120.28"/>
<polygon fill="#63b8ff" stroke="#63b8ff" points="352.72,-143.7 363.29,-143.1 354.65,-136.98 352.72,-143.7"/>
</a>
</g>
</g>
<!-- Node8 -->
<g id="Node000008" class="node">
<title>Node8</title>
<g id="a_Node000008"><a xlink:href="a00644.html#a69e77e737f0547520c2c206fce997eac" target="_top" xlink:title="构建群成员对象，一般为内部调用">
<polygon fill="white" stroke="#666666" points="293,-70 159.25,-70 159.25,-50 293,-50 293,-70"/>
<text text-anchor="middle" x="226.12" y="-56.5" font-family="Helvetica,sans-Serif" font-size="10.00">MiraiCP::Member::Member</text>
</a>
</g>
</g>
<!-- Node1&#45;&gt;Node8 -->
<g id="edge7_Node000001_Node000008" class="edge">
<title>Node1&#45;&gt;Node8</title>
<g id="a_edge7_Node000001_Node000008"><a xlink:title=" ">
<path fill="none" stroke="#63b8ff" d="M381.97,-136.03C362.72,-119 331.6,-93.89 300.5,-79 293.5,-75.65 285.83,-72.83 278.16,-70.48"/>
<polygon fill="#63b8ff" stroke="#63b8ff" points="379.52,-138.53 389.29,-142.64 384.21,-133.34 379.52,-138.53"/>
</a>
</g>
</g>
<!-- Node9 -->
<g id="Node000009" class="node">
<title>Node9</title>
<g id="a_Node000009"><a xlink:href="a00528.html#addb043788194a8bffd2eeddff17080ef" target="_top" xlink:title="取群聊下一个消息(群聊与本事件一样)">
<polygon fill="white" stroke="#666666" points="300.5,-32 151.75,-32 151.75,0 300.5,0 300.5,-32"/>
<text text-anchor="start" x="159.75" y="-18.5" font-family="Helvetica,sans-Serif" font-size="10.00">MiraiCP::GroupMessageEvent</text>
<text text-anchor="middle" x="226.12" y="-6.5" font-family="Helvetica,sans-Serif" font-size="10.00">::nextMessage</text>
</a>
</g>
</g>
<!-- Node1&#45;&gt;Node9 -->
<g id="edge8_Node000001_Node000009" class="edge">
<title>Node1&#45;&gt;Node9</title>
<g id="a_edge8_Node000001_Node000009"><a xlink:title=" ">
<path fill="none" stroke="#63b8ff" d="M388.37,-134.1C371.18,-109.02 338.45,-66.16 300.5,-41 295.68,-37.8 290.4,-34.97 284.97,-32.48"/>
<polygon fill="#63b8ff" stroke="#63b8ff" points="385.45,-136.03 393.92,-142.4 391.27,-132.14 385.45,-136.03"/>
</a>
</g>
</g>
<!-- Node7 -->
<g id="Node000007" class="node">
<title>Node7</title>
<g id="a_Node000007"><a xlink:href="a00960.html#a1632df966247f52553c17e25e5d47280" target="_top" xlink:title="刷新数据">
<polygon fill="white" stroke="#666666" points="115.75,-120 0,-120 0,-88 115.75,-88 115.75,-120"/>
<text text-anchor="start" x="8" y="-106.5" font-family="Helvetica,sans-Serif" font-size="10.00">MiraiCP::IContactData</text>
<text text-anchor="middle" x="57.88" y="-94.5" font-family="Helvetica,sans-Serif" font-size="10.00">::refreshInfo</text>
</a>
</g>
</g>
<!-- Node6&#45;&gt;Node7 -->
<g id="edge6_Node000006_Node000007" class="edge">
<title>Node6&#45;&gt;Node7</title>
<g id="a_edge6_Node000006_Node000007"><a xlink:title=" ">
<path fill="none" stroke="#63b8ff" d="M157.13,-104C143.54,-104 129.4,-104 116.22,-104"/>
<polygon fill="#63b8ff" stroke="#63b8ff" points="156.86,-107.5 166.86,-104 156.86,-100.5 156.86,-107.5"/>
</a>
</g>
</g>
</g>
</svg>
