<?xml version="1.0" encoding="UTF-8" standalone="no"?>
<!DOCTYPE svg PUBLIC "-//W3C//DTD SVG 1.1//EN"
 "http://www.w3.org/Graphics/SVG/1.1/DTD/svg11.dtd">
<!-- Generated by graphviz version 9.0.0 (0)
 -->
<!-- Title: MiraiCP::IRawCommand Pages: 1 -->
<svg width="164pt" height="332pt"
 viewBox="0.00 0.00 164.00 332.00" xmlns="http://www.w3.org/2000/svg" xmlns:xlink="http://www.w3.org/1999/xlink">
<g id="graph0" class="graph" transform="scale(1 1) rotate(0) translate(4 328)">
<title>MiraiCP::IRawCommand</title>
<!-- Node1 -->
<g id="Node000001" class="node">
<title>Node1</title>
<g id="a_Node000001"><a xlink:title="forward declaration">
<polygon fill="#999999" stroke="none" points="156,-324 0,-324 0,-180 156,-180 156,-324"/>
<text text-anchor="start" x="23.25" y="-310.5" font-family="Helvetica,sans-Serif" font-size="10.00">MiraiCP::IRawCommand</text>
<text text-anchor="start" x="76.5" y="-294.5" font-family="Helvetica,sans-Serif" font-size="10.00"> </text>
<text text-anchor="start" x="4" y="-278.5" font-family="Helvetica,sans-Serif" font-size="10.00">+</text>
<text text-anchor="start" x="14" y="-278.5" font-family="Helvetica,sans-Serif" font-size="10.00">virtual IRawCommand</text>
<text text-anchor="start" x="14" y="-266.5" font-family="Helvetica,sans-Serif" font-size="10.00">::Config config()=0</text>
<text text-anchor="start" x="4" y="-250.5" font-family="Helvetica,sans-Serif" font-size="10.00">+</text>
<text text-anchor="start" x="14" y="-250.5" font-family="Helvetica,sans-Serif" font-size="10.00">virtual void onCommand</text>
<text text-anchor="start" x="14" y="-238.5" font-family="Helvetica,sans-Serif" font-size="10.00">(std::shared_ptr&lt; Contact</text>
<text text-anchor="start" x="14" y="-226.5" font-family="Helvetica,sans-Serif" font-size="10.00"> &gt; contact, const Bot &amp;bot,</text>
<text text-anchor="start" x="14" y="-214.5" font-family="Helvetica,sans-Serif" font-size="10.00"> const MessageChain &amp;msg)=0</text>
<text text-anchor="start" x="4" y="-198.5" font-family="Helvetica,sans-Serif" font-size="10.00">+</text>
<text text-anchor="start" x="14" y="-198.5" font-family="Helvetica,sans-Serif" font-size="10.00">virtual ~IRawCommand</text>
<text text-anchor="start" x="14" y="-186.5" font-family="Helvetica,sans-Serif" font-size="10.00">()=default</text>
<polygon fill="#666666" stroke="#666666" points="0,-306 0,-306 156,-306 156,-306 0,-306"/>
<polygon fill="#666666" stroke="#666666" points="0,-290 0,-290 156,-290 156,-290 0,-290"/>
<polygon fill="none" stroke="#666666" points="0,-180 0,-324 156,-324 156,-180 0,-180"/>
</a>
</g>
</g>
<!-- Node2 -->
<g id="Node000002" class="node">
<title>Node2</title>
<g id="a_Node000002"><a xlink:title=" ">
<polygon fill="white" stroke="none" points="147.5,-144 8.5,-144 8.5,0 147.5,0 147.5,-144"/>
<text text-anchor="start" x="46.12" y="-130.5" font-family="Helvetica,sans-Serif" font-size="10.00">TestCommand</text>
<text text-anchor="start" x="76.5" y="-114.5" font-family="Helvetica,sans-Serif" font-size="10.00"> </text>
<text text-anchor="start" x="12.5" y="-98.5" font-family="Helvetica,sans-Serif" font-size="10.00">+</text>
<text text-anchor="start" x="22.5" y="-98.5" font-family="Helvetica,sans-Serif" font-size="10.00">IRawCommand::Config</text>
<text text-anchor="start" x="22.5" y="-86.5" font-family="Helvetica,sans-Serif" font-size="10.00"> config() override</text>
<text text-anchor="start" x="12.5" y="-70.5" font-family="Helvetica,sans-Serif" font-size="10.00">+</text>
<text text-anchor="start" x="22.5" y="-70.5" font-family="Helvetica,sans-Serif" font-size="10.00">void onCommand(std</text>
<text text-anchor="start" x="22.5" y="-58.5" font-family="Helvetica,sans-Serif" font-size="10.00">::shared_ptr&lt; Contact</text>
<text text-anchor="start" x="22.5" y="-46.5" font-family="Helvetica,sans-Serif" font-size="10.00"> &gt; contact, const Bot</text>
<text text-anchor="start" x="22.5" y="-34.5" font-family="Helvetica,sans-Serif" font-size="10.00"> &amp;bot, const MessageChain</text>
<text text-anchor="start" x="22.5" y="-22.5" font-family="Helvetica,sans-Serif" font-size="10.00"> &amp;msg) override</text>
<text text-anchor="start" x="12.5" y="-6.5" font-family="Helvetica,sans-Serif" font-size="10.00">+</text>
<text text-anchor="start" x="22.5" y="-6.5" font-family="Helvetica,sans-Serif" font-size="10.00">TestCommand()=default</text>
<polygon fill="#666666" stroke="#666666" points="8.5,-126 8.5,-126 147.5,-126 147.5,-126 8.5,-126"/>
<polygon fill="#666666" stroke="#666666" points="8.5,-110 8.5,-110 147.5,-110 147.5,-110 8.5,-110"/>
<polygon fill="none" stroke="#666666" points="8.5,0 8.5,-144 147.5,-144 147.5,0 8.5,0"/>
</a>
</g>
</g>
<!-- Node1&#45;&gt;Node2 -->
<g id="edge1_Node000001_Node000002" class="edge">
<title>Node1&#45;&gt;Node2</title>
<g id="a_edge1_Node000001_Node000002"><a xlink:title=" ">
<path fill="none" stroke="#63b8ff" d="M78,-168.85C78,-160.52 78,-152.11 78,-143.91"/>
<polygon fill="none" stroke="#63b8ff" points="74.5,-168.62 78,-178.62 81.5,-168.62 74.5,-168.62"/>
</a>
</g>
</g>
</g>
</svg>
