<?xml version="1.0" encoding="UTF-8" standalone="no"?>
<!DOCTYPE svg PUBLIC "-//W3C//DTD SVG 1.1//EN"
 "http://www.w3.org/Graphics/SVG/1.1/DTD/svg11.dtd">
<!-- Generated by graphviz version 2.50.0 (20211204.2007)
 -->
<!-- Title: LibLoader::PluginListManager::setThreadRunningPluginId Pages: 1 -->
<svg width="1754pt" height="196pt"
 viewBox="0.00 0.00 1754.00 196.00" xmlns="http://www.w3.org/2000/svg" xmlns:xlink="http://www.w3.org/1999/xlink">
<g id="graph0" class="graph" transform="scale(1 1) rotate(0) translate(4 192)">
<title>LibLoader::PluginListManager::setThreadRunningPluginId</title>
<polygon fill="white" stroke="transparent" points="-4,4 -4,-192 1750,-192 1750,4 -4,4"/>
<!-- Node1 -->
<g id="node1" class="node">
<title>Node1</title>
<g id="a_node1"><a xlink:title=" ">
<polygon fill="#bfbfbf" stroke="black" points="1601,-46.5 1601,-76.5 1746,-76.5 1746,-46.5 1601,-46.5"/>
<text text-anchor="start" x="1609" y="-64.5" font-family="Helvetica,sans-Serif" font-size="10.00">LibLoader::PluginListManager</text>
<text text-anchor="middle" x="1673.5" y="-53.5" font-family="Helvetica,sans-Serif" font-size="10.00">::setThreadRunningPluginId</text>
</a>
</g>
</g>
<!-- Node2 -->
<g id="node2" class="node">
<title>Node2</title>
<g id="a_node2"><a xlink:href="a00389.html#a006c0eaa142f9aa1760ec307cd3c0cee" target="_top" xlink:title=" ">
<polygon fill="white" stroke="black" points="1285,-109.5 1285,-139.5 1383,-139.5 1383,-109.5 1285,-109.5"/>
<text text-anchor="start" x="1293" y="-127.5" font-family="Helvetica,sans-Serif" font-size="10.00">LibLoader::Plugin::</text>
<text text-anchor="middle" x="1334" y="-116.5" font-family="Helvetica,sans-Serif" font-size="10.00">disableInternal</text>
</a>
</g>
</g>
<!-- Node1&#45;&gt;Node2 -->
<g id="edge1" class="edge">
<title>Node1&#45;&gt;Node2</title>
<path fill="none" stroke="midnightblue" d="M1635.95,-81.22C1615.65,-91.2 1589.59,-102.46 1565,-108.5 1503.58,-123.58 1430.37,-126.14 1383.31,-125.89"/>
<polygon fill="midnightblue" stroke="midnightblue" points="1637.77,-84.22 1645.13,-76.6 1634.63,-77.97 1637.77,-84.22"/>
</g>
<!-- Node15 -->
<g id="node15" class="node">
<title>Node15</title>
<g id="a_node15"><a xlink:href="a00389.html#a450c1c6820ab6c5417691359d88d8220" target="_top" xlink:title=" ">
<polygon fill="white" stroke="black" points="1285,-56.5 1285,-86.5 1383,-86.5 1383,-56.5 1285,-56.5"/>
<text text-anchor="start" x="1293" y="-74.5" font-family="Helvetica,sans-Serif" font-size="10.00">LibLoader::Plugin::</text>
<text text-anchor="middle" x="1334" y="-63.5" font-family="Helvetica,sans-Serif" font-size="10.00">enableInternal</text>
</a>
</g>
</g>
<!-- Node1&#45;&gt;Node15 -->
<g id="edge14" class="edge">
<title>Node1&#45;&gt;Node15</title>
<path fill="none" stroke="midnightblue" d="M1590.78,-57.59C1541.06,-56.03 1476.29,-55.43 1419,-59.5 1407.39,-60.32 1394.95,-61.78 1383.29,-63.41"/>
<polygon fill="midnightblue" stroke="midnightblue" points="1590.72,-61.09 1600.83,-57.93 1590.96,-54.1 1590.72,-61.09"/>
</g>
<!-- Node19 -->
<g id="node19" class="node">
<title>Node19</title>
<g id="a_node19"><a xlink:href="a00389.html#a1c759dca151608bfd6d159e3822401c5" target="_top" xlink:title="只应被线程池worker调用">
<polygon fill="white" stroke="black" points="1285,-0.5 1285,-30.5 1383,-30.5 1383,-0.5 1285,-0.5"/>
<text text-anchor="start" x="1293" y="-18.5" font-family="Helvetica,sans-Serif" font-size="10.00">LibLoader::Plugin::</text>
<text text-anchor="middle" x="1334" y="-7.5" font-family="Helvetica,sans-Serif" font-size="10.00">pushEvent_worker</text>
</a>
</g>
</g>
<!-- Node1&#45;&gt;Node19 -->
<g id="edge18" class="edge">
<title>Node1&#45;&gt;Node19</title>
<path fill="none" stroke="midnightblue" d="M1590.71,-50.35C1525.75,-41.5 1437.13,-29.42 1383.1,-22.06"/>
<polygon fill="midnightblue" stroke="midnightblue" points="1590.54,-53.86 1600.92,-51.74 1591.49,-46.93 1590.54,-53.86"/>
</g>
<!-- Node20 -->
<g id="node20" class="node">
<title>Node20</title>
<g id="a_node20"><a xlink:href="a00401.html#a899e8d987ae7fb84107024415e5bcda3" target="_top" xlink:title=" ">
<polygon fill="white" stroke="black" points="1419,-68.5 1419,-98.5 1565,-98.5 1565,-68.5 1419,-68.5"/>
<text text-anchor="start" x="1427" y="-86.5" font-family="Helvetica,sans-Serif" font-size="10.00">LibLoader::PluginListManager</text>
<text text-anchor="middle" x="1492" y="-75.5" font-family="Helvetica,sans-Serif" font-size="10.00">::unsetThreadRunningPluginId</text>
</a>
</g>
</g>
<!-- Node1&#45;&gt;Node20 -->
<g id="edge19" class="edge">
<title>Node1&#45;&gt;Node20</title>
<path fill="none" stroke="midnightblue" d="M1590.81,-71.51C1582.27,-72.56 1573.62,-73.62 1565.19,-74.65"/>
<polygon fill="midnightblue" stroke="midnightblue" points="1591.28,-74.98 1600.78,-70.29 1590.43,-68.03 1591.28,-74.98"/>
</g>
<!-- Node3 -->
<g id="node3" class="node">
<title>Node3</title>
<g id="a_node3"><a xlink:href="a00389.html#a147550def7f276f07a60b5078d4670b8" target="_top" xlink:title=" ">
<polygon fill="white" stroke="black" points="1151,-157.5 1151,-187.5 1249,-187.5 1249,-157.5 1151,-157.5"/>
<text text-anchor="start" x="1159" y="-175.5" font-family="Helvetica,sans-Serif" font-size="10.00">LibLoader::Plugin::</text>
<text text-anchor="middle" x="1200" y="-164.5" font-family="Helvetica,sans-Serif" font-size="10.00">disablePlugin</text>
</a>
</g>
</g>
<!-- Node2&#45;&gt;Node3 -->
<g id="edge2" class="edge">
<title>Node2&#45;&gt;Node3</title>
<path fill="none" stroke="midnightblue" d="M1282.17,-142.99C1268.96,-147.79 1254.9,-152.9 1242.26,-157.5"/>
<polygon fill="midnightblue" stroke="midnightblue" points="1283.39,-146.26 1291.6,-139.56 1281,-139.68 1283.39,-146.26"/>
</g>
<!-- Node4 -->
<g id="node4" class="node">
<title>Node4</title>
<g id="a_node4"><a xlink:href="a00389.html#ac03a32a4b96ba4618fee0628d3998aef" target="_top" xlink:title=" ">
<polygon fill="white" stroke="black" points="1151,-108.5 1151,-138.5 1249,-138.5 1249,-108.5 1151,-108.5"/>
<text text-anchor="start" x="1159" y="-126.5" font-family="Helvetica,sans-Serif" font-size="10.00">LibLoader::Plugin::</text>
<text text-anchor="middle" x="1200" y="-115.5" font-family="Helvetica,sans-Serif" font-size="10.00">unloadInternal</text>
</a>
</g>
</g>
<!-- Node2&#45;&gt;Node4 -->
<g id="edge3" class="edge">
<title>Node2&#45;&gt;Node4</title>
<path fill="none" stroke="midnightblue" d="M1274.71,-124.06C1266.19,-123.99 1257.5,-123.93 1249.21,-123.87"/>
<polygon fill="midnightblue" stroke="midnightblue" points="1274.95,-127.56 1284.97,-124.14 1275,-120.56 1274.95,-127.56"/>
</g>
<!-- Node5 -->
<g id="node5" class="node">
<title>Node5</title>
<g id="a_node5"><a xlink:href="a00389.html#abc57e6dfaed7b6445c8ba8d94b09ec13" target="_top" xlink:title=" ">
<polygon fill="white" stroke="black" points="1017,-108.5 1017,-138.5 1115,-138.5 1115,-108.5 1017,-108.5"/>
<text text-anchor="start" x="1025" y="-126.5" font-family="Helvetica,sans-Serif" font-size="10.00">LibLoader::Plugin::</text>
<text text-anchor="middle" x="1066" y="-115.5" font-family="Helvetica,sans-Serif" font-size="10.00">unloadPlugin</text>
</a>
</g>
</g>
<!-- Node4&#45;&gt;Node5 -->
<g id="edge4" class="edge">
<title>Node4&#45;&gt;Node5</title>
<path fill="none" stroke="midnightblue" d="M1140.71,-123.5C1132.19,-123.5 1123.5,-123.5 1115.21,-123.5"/>
<polygon fill="midnightblue" stroke="midnightblue" points="1140.97,-127 1150.97,-123.5 1140.97,-120 1140.97,-127"/>
</g>
<!-- Node6 -->
<g id="node6" class="node">
<title>Node6</title>
<g id="a_node6"><a xlink:href="a00401.html#a9f575adc3e4404ac758db99eb49ce9bb" target="_top" xlink:title=" ">
<polygon fill="white" stroke="black" points="836,-108.5 836,-138.5 981,-138.5 981,-108.5 836,-108.5"/>
<text text-anchor="start" x="844" y="-126.5" font-family="Helvetica,sans-Serif" font-size="10.00">LibLoader::PluginListManager</text>
<text text-anchor="middle" x="908.5" y="-115.5" font-family="Helvetica,sans-Serif" font-size="10.00">::addNewPlugin</text>
</a>
</g>
</g>
<!-- Node5&#45;&gt;Node6 -->
<g id="edge5" class="edge">
<title>Node5&#45;&gt;Node6</title>
<path fill="none" stroke="midnightblue" d="M1006.42,-123.5C998.19,-123.5 989.66,-123.5 981.22,-123.5"/>
<polygon fill="midnightblue" stroke="midnightblue" points="1006.65,-127 1016.65,-123.5 1006.65,-120 1006.65,-127"/>
</g>
<!-- Node7 -->
<g id="node7" class="node">
<title>Node7</title>
<g id="a_node7"><a xlink:href="a00401.html#a5ed72227269472f7a225be5177805dbb" target="_top" xlink:title=" ">
<polygon fill="white" stroke="black" points="655,-133.5 655,-163.5 800,-163.5 800,-133.5 655,-133.5"/>
<text text-anchor="start" x="663" y="-151.5" font-family="Helvetica,sans-Serif" font-size="10.00">LibLoader::PluginListManager</text>
<text text-anchor="middle" x="727.5" y="-140.5" font-family="Helvetica,sans-Serif" font-size="10.00">::loadNewPluginByPath</text>
</a>
</g>
</g>
<!-- Node6&#45;&gt;Node7 -->
<g id="edge6" class="edge">
<title>Node6&#45;&gt;Node7</title>
<path fill="none" stroke="midnightblue" d="M825.96,-134.89C817.36,-136.09 808.67,-137.3 800.2,-138.49"/>
<polygon fill="midnightblue" stroke="midnightblue" points="826.56,-138.34 835.98,-133.49 825.59,-131.41 826.56,-138.34"/>
</g>
<!-- Node14 -->
<g id="node14" class="node">
<title>Node14</title>
<g id="a_node14"><a xlink:href="a00389.html#a6db0416218955157f2c4091fc29aa17e" target="_top" xlink:title=" ">
<polygon fill="white" stroke="black" points="678.5,-84.5 678.5,-114.5 776.5,-114.5 776.5,-84.5 678.5,-84.5"/>
<text text-anchor="start" x="686.5" y="-102.5" font-family="Helvetica,sans-Serif" font-size="10.00">LibLoader::Plugin::</text>
<text text-anchor="middle" x="727.5" y="-91.5" font-family="Helvetica,sans-Serif" font-size="10.00">loadsAll</text>
</a>
</g>
</g>
<!-- Node6&#45;&gt;Node14 -->
<g id="edge13" class="edge">
<title>Node6&#45;&gt;Node14</title>
<path fill="none" stroke="midnightblue" d="M825.6,-112.52C808.82,-110.27 791.67,-107.97 776.56,-105.94"/>
<polygon fill="midnightblue" stroke="midnightblue" points="825.61,-116.05 835.98,-113.91 826.54,-109.11 825.61,-116.05"/>
</g>
<!-- Node8 -->
<g id="node8" class="node">
<title>Node8</title>
<g id="a_node8"><a xlink:href="a00304.html#a8eada9f54700edf5a2aa262e5d006691" target="_top" xlink:title=" ">
<polygon fill="white" stroke="black" points="480,-157.5 480,-187.5 613,-187.5 613,-157.5 480,-157.5"/>
<text text-anchor="start" x="488" y="-175.5" font-family="Helvetica,sans-Serif" font-size="10.00">LibLoader::loader_loadNew</text>
<text text-anchor="middle" x="546.5" y="-164.5" font-family="Helvetica,sans-Serif" font-size="10.00">Plugin</text>
</a>
</g>
</g>
<!-- Node7&#45;&gt;Node8 -->
<g id="edge7" class="edge">
<title>Node7&#45;&gt;Node8</title>
<path fill="none" stroke="midnightblue" d="M644.85,-159.45C634.21,-160.87 623.43,-162.32 613.1,-163.7"/>
<polygon fill="midnightblue" stroke="midnightblue" points="645.54,-162.89 654.98,-158.09 644.61,-155.95 645.54,-162.89"/>
</g>
<!-- Node13 -->
<g id="node13" class="node">
<title>Node13</title>
<g id="a_node13"><a xlink:href="a00401.html#a5bf805b4eb2e1f55fb77f79c52e0f75d" target="_top" xlink:title=" ">
<polygon fill="white" stroke="black" points="474,-108.5 474,-138.5 619,-138.5 619,-108.5 474,-108.5"/>
<text text-anchor="start" x="482" y="-126.5" font-family="Helvetica,sans-Serif" font-size="10.00">LibLoader::PluginListManager</text>
<text text-anchor="middle" x="546.5" y="-115.5" font-family="Helvetica,sans-Serif" font-size="10.00">::reloadAllPlugin</text>
</a>
</g>
</g>
<!-- Node7&#45;&gt;Node13 -->
<g id="edge12" class="edge">
<title>Node7&#45;&gt;Node13</title>
<path fill="none" stroke="midnightblue" d="M644.96,-137.11C636.36,-135.91 627.67,-134.7 619.2,-133.51"/>
<polygon fill="midnightblue" stroke="midnightblue" points="644.59,-140.59 654.98,-138.51 645.56,-133.66 644.59,-140.59"/>
</g>
<!-- Node9 -->
<g id="node9" class="node">
<title>Node9</title>
<g id="a_node9"><a xlink:href="a00385.html#a0fbfe44fb362bf323c41e3ae73717edd" target="_top" xlink:title=" ">
<polygon fill="white" stroke="black" points="323,-157.5 323,-187.5 438,-187.5 438,-157.5 323,-157.5"/>
<text text-anchor="start" x="331" y="-175.5" font-family="Helvetica,sans-Serif" font-size="10.00">LibLoader::LoaderMain</text>
<text text-anchor="middle" x="380.5" y="-164.5" font-family="Helvetica,sans-Serif" font-size="10.00">::mainloop</text>
</a>
</g>
</g>
<!-- Node8&#45;&gt;Node9 -->
<g id="edge8" class="edge">
<title>Node8&#45;&gt;Node9</title>
<path fill="none" stroke="midnightblue" d="M469.61,-172.5C458.99,-172.5 448.22,-172.5 438.03,-172.5"/>
<polygon fill="midnightblue" stroke="midnightblue" points="469.74,-176 479.74,-172.5 469.74,-169 469.74,-176"/>
</g>
<!-- Node10 -->
<g id="node10" class="node">
<title>Node10</title>
<g id="a_node10"><a xlink:href="a00385.html#a79cbc18aabed7afe2c7ea30f989ffc8c" target="_top" xlink:title="LoaderMain实现开始">
<polygon fill="white" stroke="black" points="172,-157.5 172,-187.5 287,-187.5 287,-157.5 172,-157.5"/>
<text text-anchor="start" x="180" y="-175.5" font-family="Helvetica,sans-Serif" font-size="10.00">LibLoader::LoaderMain</text>
<text text-anchor="middle" x="229.5" y="-164.5" font-family="Helvetica,sans-Serif" font-size="10.00">::loaderMain</text>
</a>
</g>
</g>
<!-- Node9&#45;&gt;Node10 -->
<g id="edge9" class="edge">
<title>Node9&#45;&gt;Node10</title>
<path fill="none" stroke="midnightblue" d="M312.49,-172.5C304.01,-172.5 295.4,-172.5 287.1,-172.5"/>
<polygon fill="midnightblue" stroke="midnightblue" points="312.74,-176 322.74,-172.5 312.74,-169 312.74,-176"/>
</g>
<!-- Node11 -->
<g id="node11" class="node">
<title>Node11</title>
<g id="a_node11"><a xlink:href="a00203.html#aafbc26593c69471626589f38c751ef09" target="_top" xlink:title=" ">
<polygon fill="white" stroke="black" points="77,-163 77,-182 136,-182 136,-163 77,-163"/>
<text text-anchor="middle" x="106.5" y="-170" font-family="Helvetica,sans-Serif" font-size="10.00">VerifyImpl</text>
</a>
</g>
</g>
<!-- Node10&#45;&gt;Node11 -->
<g id="edge10" class="edge">
<title>Node10&#45;&gt;Node11</title>
<path fill="none" stroke="midnightblue" d="M161.7,-172.5C152.7,-172.5 143.89,-172.5 136.07,-172.5"/>
<polygon fill="midnightblue" stroke="midnightblue" points="161.9,-176 171.9,-172.5 161.9,-169 161.9,-176"/>
</g>
<!-- Node12 -->
<g id="node12" class="node">
<title>Node12</title>
<g id="a_node12"><a xlink:href="a00203.html#a3712cdeefe60fa2a92efa90cd6200b02" target="_top" xlink:title=" ">
<polygon fill="white" stroke="black" points="0,-163 0,-182 41,-182 41,-163 0,-163"/>
<text text-anchor="middle" x="20.5" y="-170" font-family="Helvetica,sans-Serif" font-size="10.00">Verify</text>
</a>
</g>
</g>
<!-- Node11&#45;&gt;Node12 -->
<g id="edge11" class="edge">
<title>Node11&#45;&gt;Node12</title>
<path fill="none" stroke="midnightblue" d="M66.48,-172.5C57.72,-172.5 48.78,-172.5 41.21,-172.5"/>
<polygon fill="midnightblue" stroke="midnightblue" points="66.59,-176 76.59,-172.5 66.59,-169 66.59,-176"/>
</g>
<!-- Node16 -->
<g id="node16" class="node">
<title>Node16</title>
<g id="a_node16"><a xlink:href="a00389.html#a549e3729f8aeb27208ef5aecb434eef1" target="_top" xlink:title=" ">
<polygon fill="white" stroke="black" points="1151,-57.5 1151,-87.5 1249,-87.5 1249,-57.5 1151,-57.5"/>
<text text-anchor="start" x="1159" y="-75.5" font-family="Helvetica,sans-Serif" font-size="10.00">LibLoader::Plugin::</text>
<text text-anchor="middle" x="1200" y="-64.5" font-family="Helvetica,sans-Serif" font-size="10.00">enablePlugin</text>
</a>
</g>
</g>
<!-- Node15&#45;&gt;Node16 -->
<g id="edge15" class="edge">
<title>Node15&#45;&gt;Node16</title>
<path fill="none" stroke="midnightblue" d="M1274.71,-71.94C1266.19,-72.01 1257.5,-72.07 1249.21,-72.13"/>
<polygon fill="midnightblue" stroke="midnightblue" points="1275,-75.44 1284.97,-71.86 1274.95,-68.44 1275,-75.44"/>
</g>
<!-- Node17 -->
<g id="node17" class="node">
<title>Node17</title>
<g id="a_node17"><a xlink:href="a00389.html#a8636d0418d741a19bbd9183316cd5c59" target="_top" xlink:title=" ">
<polygon fill="white" stroke="black" points="1151,-8.5 1151,-38.5 1249,-38.5 1249,-8.5 1151,-8.5"/>
<text text-anchor="start" x="1159" y="-26.5" font-family="Helvetica,sans-Serif" font-size="10.00">LibLoader::Plugin::</text>
<text text-anchor="middle" x="1200" y="-15.5" font-family="Helvetica,sans-Serif" font-size="10.00">loadInternal</text>
</a>
</g>
</g>
<!-- Node15&#45;&gt;Node17 -->
<g id="edge16" class="edge">
<title>Node15&#45;&gt;Node17</title>
<path fill="none" stroke="midnightblue" d="M1282.17,-53.01C1268.96,-48.21 1254.9,-43.1 1242.26,-38.5"/>
<polygon fill="midnightblue" stroke="midnightblue" points="1281,-56.32 1291.6,-56.44 1283.39,-49.74 1281,-56.32"/>
</g>
<!-- Node18 -->
<g id="node18" class="node">
<title>Node18</title>
<g id="a_node18"><a xlink:href="a00389.html#a891ce42f23fe1312ef6cad2accf4ab92" target="_top" xlink:title=" ">
<polygon fill="white" stroke="black" points="1017,-8.5 1017,-38.5 1115,-38.5 1115,-8.5 1017,-8.5"/>
<text text-anchor="start" x="1025" y="-26.5" font-family="Helvetica,sans-Serif" font-size="10.00">LibLoader::Plugin::</text>
<text text-anchor="middle" x="1066" y="-15.5" font-family="Helvetica,sans-Serif" font-size="10.00">loadPlugin</text>
</a>
</g>
</g>
<!-- Node17&#45;&gt;Node18 -->
<g id="edge17" class="edge">
<title>Node17&#45;&gt;Node18</title>
<path fill="none" stroke="midnightblue" d="M1140.71,-23.5C1132.19,-23.5 1123.5,-23.5 1115.21,-23.5"/>
<polygon fill="midnightblue" stroke="midnightblue" points="1140.97,-27 1150.97,-23.5 1140.97,-20 1140.97,-27"/>
</g>
<!-- Node20&#45;&gt;Node2 -->
<g id="edge20" class="edge">
<title>Node20&#45;&gt;Node2</title>
<path fill="none" stroke="midnightblue" d="M1423.93,-101.13C1410.25,-104.72 1396.1,-108.44 1383.22,-111.83"/>
<polygon fill="midnightblue" stroke="midnightblue" points="1425.02,-104.46 1433.8,-98.53 1423.24,-97.69 1425.02,-104.46"/>
</g>
<!-- Node20&#45;&gt;Node15 -->
<g id="edge21" class="edge">
<title>Node20&#45;&gt;Node15</title>
<path fill="none" stroke="midnightblue" d="M1408.96,-77.19C1400.13,-76.51 1391.37,-75.84 1383.14,-75.2"/>
<polygon fill="midnightblue" stroke="midnightblue" points="1408.7,-80.68 1418.94,-77.96 1409.23,-73.7 1408.7,-80.68"/>
</g>
<!-- Node20&#45;&gt;Node19 -->
<g id="edge22" class="edge">
<title>Node20&#45;&gt;Node19</title>
<path fill="none" stroke="midnightblue" d="M1446.94,-64.29C1422.41,-53.6 1392.33,-40.49 1369.52,-30.55"/>
<polygon fill="midnightblue" stroke="midnightblue" points="1445.81,-67.62 1456.38,-68.41 1448.61,-61.2 1445.81,-67.62"/>
</g>
</g>
</svg>
