<?xml version="1.0" encoding="UTF-8" standalone="no"?>
<!DOCTYPE svg PUBLIC "-//W3C//DTD SVG 1.1//EN"
 "http://www.w3.org/Graphics/SVG/1.1/DTD/svg11.dtd">
<!-- Generated by graphviz version 2.50.0 (20211204.2007)
 -->
<!-- Title: MiraiCP::KtOperation::ktOperation Pages: 1 -->
<svg width="1429pt" height="220pt"
 viewBox="0.00 0.00 1429.00 219.76" xmlns="http://www.w3.org/2000/svg" xmlns:xlink="http://www.w3.org/1999/xlink">
<g id="graph0" class="graph" transform="scale(1 1) rotate(0) translate(4 215.76)">
<title>MiraiCP::KtOperation::ktOperation</title>
<polygon fill="white" stroke="transparent" points="-4,4 -4,-215.76 1425,-215.76 1425,4 -4,4"/>
<!-- Node1 -->
<g id="node1" class="node">
<title>Node1</title>
<g id="a_node1"><a xlink:title="调用 Mirai 操作">
<polygon fill="#bfbfbf" stroke="black" points="0,-118.26 0,-148.26 109,-148.26 109,-118.26 0,-118.26"/>
<text text-anchor="start" x="8" y="-136.26" font-family="Helvetica,sans-Serif" font-size="10.00">MiraiCP::KtOperation</text>
<text text-anchor="middle" x="54.5" y="-125.26" font-family="Helvetica,sans-Serif" font-size="10.00">::ktOperation</text>
</a>
</g>
</g>
<!-- Node2 -->
<g id="node2" class="node">
<title>Node2</title>
<g id="a_node2"><a xlink:href="a00415.html#a1e1e498928eeaa1d7107033ff5fa881a" target="_top" xlink:title="调用 Mirai 操作">
<polygon fill="white" stroke="black" points="145,-118.26 145,-148.26 254,-148.26 254,-118.26 145,-118.26"/>
<text text-anchor="start" x="153" y="-136.26" font-family="Helvetica,sans-Serif" font-size="10.00">MiraiCP::KtOperation</text>
<text text-anchor="middle" x="199.5" y="-125.26" font-family="Helvetica,sans-Serif" font-size="10.00">::ktOperationStr</text>
</a>
</g>
</g>
<!-- Node1&#45;&gt;Node2 -->
<g id="edge1" class="edge">
<title>Node1&#45;&gt;Node2</title>
<path fill="none" stroke="midnightblue" d="M109.15,-133.26C117.38,-133.26 125.94,-133.26 134.37,-133.26"/>
<polygon fill="midnightblue" stroke="midnightblue" points="134.54,-136.76 144.54,-133.26 134.54,-129.76 134.54,-136.76"/>
</g>
<!-- Node3 -->
<g id="node3" class="node">
<title>Node3</title>
<g id="a_node3"><a xlink:href="a00408.html#a4c6ac4cf4ba5ff0adb7656708bbb67d0" target="_top" xlink:title="interfaces for plugins">
<polygon fill="white" stroke="black" points="290,-118.26 290,-148.26 398,-148.26 398,-118.26 290,-118.26"/>
<text text-anchor="start" x="298" y="-136.26" font-family="Helvetica,sans-Serif" font-size="10.00">LibLoader::LoaderApi</text>
<text text-anchor="middle" x="344" y="-125.26" font-family="Helvetica,sans-Serif" font-size="10.00">::pluginOperation</text>
</a>
</g>
</g>
<!-- Node2&#45;&gt;Node3 -->
<g id="edge2" class="edge">
<title>Node2&#45;&gt;Node3</title>
<path fill="none" stroke="midnightblue" d="M254.37,-133.26C262.67,-133.26 271.29,-133.26 279.77,-133.26"/>
<polygon fill="midnightblue" stroke="midnightblue" points="280,-136.76 290,-133.26 280,-129.76 280,-136.76"/>
</g>
<!-- Node4 -->
<g id="node4" class="node">
<title>Node4</title>
<g id="a_node4"><a xlink:href="a00740.html#acc90fdac094544c4ddd9d6fd13baa5da" target="_top" xlink:title=" ">
<polygon fill="white" stroke="black" points="434,-181.26 434,-211.26 569,-211.26 569,-181.26 434,-181.26"/>
<text text-anchor="start" x="442" y="-199.26" font-family="Helvetica,sans-Serif" font-size="10.00">MiraiCP::MiraiCPStringview</text>
<text text-anchor="middle" x="501.5" y="-188.26" font-family="Helvetica,sans-Serif" font-size="10.00">::c_str</text>
</a>
</g>
</g>
<!-- Node3&#45;&gt;Node4 -->
<g id="edge3" class="edge">
<title>Node3&#45;&gt;Node4</title>
<path fill="none" stroke="midnightblue" d="M382.25,-148.35C403.71,-157.05 430.89,-168.06 453.77,-177.33"/>
<polygon fill="midnightblue" stroke="midnightblue" points="452.71,-180.67 463.29,-181.19 455.33,-174.19 452.71,-180.67"/>
</g>
<!-- Node5 -->
<g id="node5" class="node">
<title>Node5</title>
<g id="a_node5"><a xlink:href="a00768.html#aea7d58ff9f04d6d4849c25a2506603a5" target="_top" xlink:title="取env,如果不存在重新获取">
<polygon fill="white" stroke="black" points="1058,-104.76 1058,-123.76 1177,-123.76 1177,-104.76 1058,-104.76"/>
<text text-anchor="middle" x="1117.5" y="-111.76" font-family="Helvetica,sans-Serif" font-size="10.00">JNIEnvManager::getEnv</text>
</a>
</g>
</g>
<!-- Node3&#45;&gt;Node5 -->
<g id="edge4" class="edge">
<title>Node3&#45;&gt;Node5</title>
<path fill="none" stroke="midnightblue" d="M398.25,-138.35C461.8,-143.98 571.3,-152.26 665.5,-152.26 665.5,-152.26 665.5,-152.26 826.5,-152.26 908.89,-152.26 1003.34,-137 1061.46,-125.82"/>
<polygon fill="midnightblue" stroke="midnightblue" points="1062.39,-129.2 1071.53,-123.85 1061.05,-122.33 1062.39,-129.2"/>
</g>
<!-- Node8 -->
<g id="node8" class="node">
<title>Node8</title>
<g id="a_node8"><a xlink:href="a00407.html#aa5f8d0ecd9dd392b491070aace643ae3" target="_top" xlink:title=" ">
<polygon fill="white" stroke="black" points="613,-104.76 613,-123.76 720,-123.76 720,-104.76 613,-104.76"/>
<text text-anchor="middle" x="666.5" y="-111.76" font-family="Helvetica,sans-Serif" font-size="10.00">LibLoader::jstring2str</text>
</a>
</g>
</g>
<!-- Node3&#45;&gt;Node8 -->
<g id="edge7" class="edge">
<title>Node3&#45;&gt;Node8</title>
<path fill="none" stroke="midnightblue" d="M398.28,-130.1C454.57,-126.77 543.25,-121.51 602.85,-117.98"/>
<polygon fill="midnightblue" stroke="midnightblue" points="603.11,-121.47 612.89,-117.38 602.7,-114.48 603.11,-121.47"/>
</g>
<!-- Node10 -->
<g id="node10" class="node">
<title>Node10</title>
<g id="a_node10"><a xlink:href="a00407.html#a6a6fcd695791253a9b3a053d313b2b93" target="_top" xlink:title=" ">
<polygon fill="white" stroke="black" points="448,-44.76 448,-63.76 555,-63.76 555,-44.76 448,-44.76"/>
<text text-anchor="middle" x="501.5" y="-51.76" font-family="Helvetica,sans-Serif" font-size="10.00">LibLoader::str2jstring</text>
</a>
</g>
</g>
<!-- Node3&#45;&gt;Node10 -->
<g id="edge10" class="edge">
<title>Node3&#45;&gt;Node10</title>
<path fill="none" stroke="midnightblue" d="M374.61,-118.22C402.83,-103.88 445,-82.46 472.63,-68.42"/>
<polygon fill="midnightblue" stroke="midnightblue" points="474.42,-71.44 481.75,-63.79 471.25,-65.2 474.42,-71.44"/>
</g>
<!-- Node6 -->
<g id="node6" class="node">
<title>Node6</title>
<g id="a_node6"><a xlink:href="a00200.html#a3d31403b7971274d47d308245206bd24" target="_top" xlink:title="为当前线程创建一个env.">
<polygon fill="white" stroke="black" points="1213,-104.76 1213,-123.76 1263,-123.76 1263,-104.76 1213,-104.76"/>
<text text-anchor="middle" x="1238" y="-111.76" font-family="Helvetica,sans-Serif" font-size="10.00">newEnv</text>
</a>
</g>
</g>
<!-- Node5&#45;&gt;Node6 -->
<g id="edge5" class="edge">
<title>Node5&#45;&gt;Node6</title>
<path fill="none" stroke="midnightblue" d="M1177.06,-114.26C1185.89,-114.26 1194.75,-114.26 1202.85,-114.26"/>
<polygon fill="midnightblue" stroke="midnightblue" points="1202.98,-117.76 1212.98,-114.26 1202.98,-110.76 1202.98,-117.76"/>
</g>
<!-- Node7 -->
<g id="node7" class="node">
<title>Node7</title>
<g id="a_node7"><a xlink:href="a00768.html#ae0e482c6a813848a8f5d34957d1b6307" target="_top" xlink:title="获取全局JavaVM对象.">
<polygon fill="white" stroke="black" points="1299,-104.76 1299,-123.76 1421,-123.76 1421,-104.76 1299,-104.76"/>
<text text-anchor="middle" x="1360" y="-111.76" font-family="Helvetica,sans-Serif" font-size="10.00">JNIEnvManager::getGvm</text>
</a>
</g>
</g>
<!-- Node6&#45;&gt;Node7 -->
<g id="edge6" class="edge">
<title>Node6&#45;&gt;Node7</title>
<path fill="none" stroke="midnightblue" d="M1263.28,-114.26C1270.75,-114.26 1279.37,-114.26 1288.32,-114.26"/>
<polygon fill="midnightblue" stroke="midnightblue" points="1288.52,-117.76 1298.52,-114.26 1288.52,-110.76 1288.52,-117.76"/>
</g>
<!-- Node9 -->
<g id="node9" class="node">
<title>Node9</title>
<g id="a_node9"><a xlink:href="a00411.html#a076c5f4ff8083c7cfc6523498d0ba30f" target="_top" xlink:title=" ">
<polygon fill="white" stroke="black" points="923,-77.26 923,-107.26 1022,-107.26 1022,-77.26 923,-77.26"/>
<text text-anchor="start" x="931" y="-95.26" font-family="Helvetica,sans-Serif" font-size="10.00">LibLoader::JNIEnvs</text>
<text text-anchor="middle" x="972.5" y="-84.26" font-family="Helvetica,sans-Serif" font-size="10.00">::getEnv</text>
</a>
</g>
</g>
<!-- Node8&#45;&gt;Node9 -->
<g id="edge8" class="edge">
<title>Node8&#45;&gt;Node9</title>
<path fill="none" stroke="midnightblue" d="M720.11,-110.45C773.7,-106.58 856.65,-100.57 912.46,-96.53"/>
<polygon fill="midnightblue" stroke="midnightblue" points="912.83,-100.02 922.55,-95.8 912.32,-93.03 912.83,-100.02"/>
</g>
<!-- Node9&#45;&gt;Node5 -->
<g id="edge9" class="edge">
<title>Node9&#45;&gt;Node5</title>
<path fill="none" stroke="midnightblue" d="M1022.31,-99.77C1030.51,-101.03 1039.16,-102.36 1047.75,-103.68"/>
<polygon fill="midnightblue" stroke="midnightblue" points="1047.36,-107.17 1057.78,-105.23 1048.43,-100.25 1047.36,-107.17"/>
</g>
<!-- Node10&#45;&gt;Node9 -->
<g id="edge11" class="edge">
<title>Node10&#45;&gt;Node9</title>
<path fill="none" stroke="midnightblue" d="M555.39,-58.55C643.71,-65.7 820.59,-80.03 912.7,-87.5"/>
<polygon fill="midnightblue" stroke="midnightblue" points="912.44,-90.99 922.69,-88.31 913.01,-84.01 912.44,-90.99"/>
</g>
<!-- Node11 -->
<g id="node11" class="node">
<title>Node11</title>
<g id="a_node11"><a xlink:href="a00800.html#af50d0545fe7d683e54fcd03453a423e3" target="_top" xlink:title=" ">
<polygon fill="white" stroke="black" points="605,-17.26 605,-47.26 728,-47.26 728,-17.26 605,-17.26"/>
<text text-anchor="start" x="613" y="-35.26" font-family="Helvetica,sans-Serif" font-size="10.00">LibLoader::LoaderLogger</text>
<text text-anchor="middle" x="666.5" y="-24.26" font-family="Helvetica,sans-Serif" font-size="10.00">::warning</text>
</a>
</g>
</g>
<!-- Node10&#45;&gt;Node11 -->
<g id="edge12" class="edge">
<title>Node10&#45;&gt;Node11</title>
<path fill="none" stroke="midnightblue" d="M555.42,-47.12C568.01,-45.42 581.65,-43.58 594.89,-41.79"/>
<polygon fill="midnightblue" stroke="midnightblue" points="595.48,-45.24 604.92,-40.44 594.54,-38.31 595.48,-45.24"/>
</g>
<!-- Node12 -->
<g id="node12" class="node">
<title>Node12</title>
<g id="a_node12"><a xlink:href="a00800.html#af4d7d5164450e25f7401d1cc15f15b8d" target="_top" xlink:title="实际暴露的接口">
<polygon fill="white" stroke="black" points="764,-17.26 764,-47.26 887,-47.26 887,-17.26 764,-17.26"/>
<text text-anchor="start" x="772" y="-35.26" font-family="Helvetica,sans-Serif" font-size="10.00">LibLoader::LoaderLogger</text>
<text text-anchor="middle" x="825.5" y="-24.26" font-family="Helvetica,sans-Serif" font-size="10.00">::call_logger</text>
</a>
</g>
</g>
<!-- Node11&#45;&gt;Node12 -->
<g id="edge13" class="edge">
<title>Node11&#45;&gt;Node12</title>
<path fill="none" stroke="midnightblue" d="M728.2,-32.26C736.64,-32.26 745.36,-32.26 753.95,-32.26"/>
<polygon fill="midnightblue" stroke="midnightblue" points="753.96,-35.76 763.96,-32.26 753.96,-28.76 753.96,-35.76"/>
</g>
<!-- Node12&#45;&gt;Node9 -->
<g id="edge14" class="edge">
<title>Node12&#45;&gt;Node9</title>
<path fill="none" stroke="midnightblue" d="M863.09,-47.4C882.14,-55.28 905.61,-65 925.84,-73.37"/>
<polygon fill="midnightblue" stroke="midnightblue" points="924.6,-76.64 935.17,-77.23 927.27,-70.17 924.6,-76.64"/>
</g>
<!-- Node12&#45;&gt;Node10 -->
<g id="edge15" class="edge">
<title>Node12&#45;&gt;Node10</title>
<path fill="none" stroke="midnightblue" d="M776.37,-17.24C761.07,-13.15 743.97,-9.3 728,-7.26 673.77,-0.35 658.41,4.4 605,-7.26 576.6,-13.46 546.66,-28.28 526.52,-39.64"/>
<polygon fill="midnightblue" stroke="midnightblue" points="524.64,-36.68 517.74,-44.72 528.15,-42.74 524.64,-36.68"/>
</g>
</g>
</svg>
