<?xml version="1.0" encoding="UTF-8" standalone="no"?>
<!DOCTYPE svg PUBLIC "-//W3C//DTD SVG 1.1//EN"
 "http://www.w3.org/Graphics/SVG/1.1/DTD/svg11.dtd">
<!-- Generated by graphviz version 9.0.0 (0)
 -->
<!-- Title: LibLoader::loader_pluginEndByException Pages: 1 -->
<svg width="1343pt" height="103pt"
 viewBox="0.00 0.00 1343.00 103.00" xmlns="http://www.w3.org/2000/svg" xmlns:xlink="http://www.w3.org/1999/xlink">
<g id="graph0" class="graph" transform="scale(1 1) rotate(0) translate(4 99)">
<title>LibLoader::loader_pluginEndByException</title>
<!-- Node1 -->
<g id="Node000001" class="node">
<title>Node1</title>
<g id="a_Node000001"><a xlink:title=" ">
<polygon fill="#999999" stroke="#666666" points="121,-79 0,-79 0,-47 121,-47 121,-79"/>
<text text-anchor="start" x="8" y="-65.5" font-family="Helvetica,sans-Serif" font-size="10.00">LibLoader::loader_plugin</text>
<text text-anchor="middle" x="60.5" y="-53.5" font-family="Helvetica,sans-Serif" font-size="10.00">EndByException</text>
</a>
</g>
</g>
<!-- Node2 -->
<g id="Node000002" class="node">
<title>Node2</title>
<g id="a_Node000002"><a xlink:href="a00928.html#a39ce5601eee168a69cab158349412c3e" target="_top" xlink:title=" ">
<polygon fill="white" stroke="#666666" points="307.25,-95 157,-95 157,-75 307.25,-75 307.25,-95"/>
<text text-anchor="middle" x="232.12" y="-81.5" font-family="Helvetica,sans-Serif" font-size="10.00">LibLoader::PluginManager::Get</text>
</a>
</g>
</g>
<!-- Node1&#45;&gt;Node2 -->
<g id="edge1_Node000001_Node000002" class="edge">
<title>Node1&#45;&gt;Node2</title>
<g id="a_edge1_Node000001_Node000002"><a xlink:title=" ">
<path fill="none" stroke="#63b8ff" d="M121.3,-70.76C129.17,-71.78 137.36,-72.84 145.55,-73.9"/>
<polygon fill="#63b8ff" stroke="#63b8ff" points="144.83,-77.34 155.2,-75.15 145.73,-70.4 144.83,-77.34"/>
</a>
</g>
</g>
<!-- Node3 -->
<g id="Node000003" class="node">
<title>Node3</title>
<g id="a_Node000003"><a xlink:href="a00928.html#a3201c3ce6f312c8638ecd3fcf0839895" target="_top" xlink:title="插件异常时的卸载函数，输入插件id，不会修改任何key">
<polygon fill="white" stroke="#666666" points="296.38,-57 167.88,-57 167.88,-25 296.38,-25 296.38,-57"/>
<text text-anchor="start" x="175.88" y="-43.5" font-family="Helvetica,sans-Serif" font-size="10.00">LibLoader::PluginManager</text>
<text text-anchor="middle" x="232.12" y="-31.5" font-family="Helvetica,sans-Serif" font-size="10.00">::unloadWhenException</text>
</a>
</g>
</g>
<!-- Node1&#45;&gt;Node3 -->
<g id="edge2_Node000001_Node000003" class="edge">
<title>Node1&#45;&gt;Node3</title>
<g id="a_edge2_Node000001_Node000003"><a xlink:title=" ">
<path fill="none" stroke="#63b8ff" d="M121.3,-55.24C132.65,-53.77 144.66,-52.21 156.4,-50.69"/>
<polygon fill="#63b8ff" stroke="#63b8ff" points="156.58,-54.2 166.05,-49.44 155.68,-47.26 156.58,-54.2"/>
</a>
</g>
</g>
<!-- Node4 -->
<g id="Node000004" class="node">
<title>Node4</title>
<g id="a_Node000004"><a xlink:href="a00872.html#ae735f16b20f681d29d4e5d28ad248dbe" target="_top" xlink:title=" ">
<polygon fill="white" stroke="#666666" points="465.75,-57 343.25,-57 343.25,-25 465.75,-25 465.75,-57"/>
<text text-anchor="start" x="351.25" y="-43.5" font-family="Helvetica,sans-Serif" font-size="10.00">LibLoader::LoaderLogger</text>
<text text-anchor="middle" x="404.5" y="-31.5" font-family="Helvetica,sans-Serif" font-size="10.00">::error</text>
</a>
</g>
</g>
<!-- Node3&#45;&gt;Node4 -->
<g id="edge3_Node000003_Node000004" class="edge">
<title>Node3&#45;&gt;Node4</title>
<g id="a_edge3_Node000003_Node000004"><a xlink:title=" ">
<path fill="none" stroke="#63b8ff" d="M296.57,-41C307.92,-41 319.82,-41 331.4,-41"/>
<polygon fill="#63b8ff" stroke="#63b8ff" points="331.32,-44.5 341.32,-41 331.32,-37.5 331.32,-44.5"/>
</a>
</g>
</g>
<!-- Node5 -->
<g id="Node000005" class="node">
<title>Node5</title>
<g id="a_Node000005"><a xlink:href="a00872.html#af4d7d5164450e25f7401d1cc15f15b8d" target="_top" xlink:title="实际暴露的接口">
<polygon fill="white" stroke="#666666" points="624.25,-57 501.75,-57 501.75,-25 624.25,-25 624.25,-57"/>
<text text-anchor="start" x="509.75" y="-43.5" font-family="Helvetica,sans-Serif" font-size="10.00">LibLoader::LoaderLogger</text>
<text text-anchor="middle" x="563" y="-31.5" font-family="Helvetica,sans-Serif" font-size="10.00">::call_logger</text>
</a>
</g>
</g>
<!-- Node4&#45;&gt;Node5 -->
<g id="edge4_Node000004_Node000005" class="edge">
<title>Node4&#45;&gt;Node5</title>
<g id="a_edge4_Node000004_Node000005"><a xlink:title=" ">
<path fill="none" stroke="#63b8ff" d="M466.01,-41C473.9,-41 482.05,-41 490.1,-41"/>
<polygon fill="#63b8ff" stroke="#63b8ff" points="489.88,-44.5 499.88,-41 489.88,-37.5 489.88,-44.5"/>
</a>
</g>
</g>
<!-- Node6 -->
<g id="Node000006" class="node">
<title>Node6</title>
<g id="a_Node000006"><a xlink:href="a00430.html#a076c5f4ff8083c7cfc6523498d0ba30f" target="_top" xlink:title=" ">
<polygon fill="white" stroke="#666666" points="915.38,-88 813.12,-88 813.12,-56 915.38,-56 915.38,-88"/>
<text text-anchor="start" x="821.12" y="-74.5" font-family="Helvetica,sans-Serif" font-size="10.00">LibLoader::JNIEnvs</text>
<text text-anchor="middle" x="864.25" y="-62.5" font-family="Helvetica,sans-Serif" font-size="10.00">::getEnv</text>
</a>
</g>
</g>
<!-- Node5&#45;&gt;Node6 -->
<g id="edge5_Node000005_Node000006" class="edge">
<title>Node5&#45;&gt;Node6</title>
<g id="a_edge5_Node000005_Node000006"><a xlink:title=" ">
<path fill="none" stroke="#63b8ff" d="M624.64,-54.27C636.41,-56.48 648.68,-58.52 660.25,-60 707.52,-66.03 761.39,-69.04 801.75,-70.54"/>
<polygon fill="#63b8ff" stroke="#63b8ff" points="801.39,-74.03 811.51,-70.88 801.63,-67.03 801.39,-74.03"/>
</a>
</g>
</g>
<!-- Node10 -->
<g id="Node000010" class="node">
<title>Node10</title>
<g id="a_Node000010"><a xlink:href="a00425.html#a6a6fcd695791253a9b3a053d313b2b93" target="_top" xlink:title=" ">
<polygon fill="white" stroke="#666666" points="767,-51 660.25,-51 660.25,-31 767,-31 767,-51"/>
<text text-anchor="middle" x="713.62" y="-37.5" font-family="Helvetica,sans-Serif" font-size="10.00">LibLoader::str2jstring</text>
</a>
</g>
</g>
<!-- Node5&#45;&gt;Node10 -->
<g id="edge9_Node000005_Node000010" class="edge">
<title>Node5&#45;&gt;Node10</title>
<g id="a_edge9_Node000005_Node000010"><a xlink:title=" ">
<path fill="none" stroke="#63b8ff" d="M624.45,-41C632.33,-41 640.43,-41 648.38,-41"/>
<polygon fill="#63b8ff" stroke="#63b8ff" points="648.35,-44.5 658.35,-41 648.35,-37.5 648.35,-44.5"/>
</a>
</g>
</g>
<!-- Node7 -->
<g id="Node000007" class="node">
<title>Node7</title>
<g id="a_Node000007"><a xlink:href="a00840.html#aea7d58ff9f04d6d4849c25a2506603a5" target="_top" xlink:title="取env,如果不存在重新获取">
<polygon fill="white" stroke="#666666" points="1084.75,-82 961.5,-82 961.5,-62 1084.75,-62 1084.75,-82"/>
<text text-anchor="middle" x="1023.12" y="-68.5" font-family="Helvetica,sans-Serif" font-size="10.00">JNIEnvManager::getEnv</text>
</a>
</g>
</g>
<!-- Node6&#45;&gt;Node7 -->
<g id="edge6_Node000006_Node000007" class="edge">
<title>Node6&#45;&gt;Node7</title>
<g id="a_edge6_Node000006_Node000007"><a xlink:title=" ">
<path fill="none" stroke="#63b8ff" d="M915.75,-72C926.57,-72 938.2,-72 949.66,-72"/>
<polygon fill="#63b8ff" stroke="#63b8ff" points="949.51,-75.5 959.51,-72 949.51,-68.5 949.51,-75.5"/>
</a>
</g>
</g>
<!-- Node8 -->
<g id="Node000008" class="node">
<title>Node8</title>
<g id="a_Node000008"><a xlink:href="a00260.html#a3d31403b7971274d47d308245206bd24" target="_top" xlink:title="为当前线程创建一个env.">
<polygon fill="white" stroke="#666666" points="1172,-82 1120.75,-82 1120.75,-62 1172,-62 1172,-82"/>
<text text-anchor="middle" x="1146.38" y="-68.5" font-family="Helvetica,sans-Serif" font-size="10.00">newEnv</text>
</a>
</g>
</g>
<!-- Node7&#45;&gt;Node8 -->
<g id="edge7_Node000007_Node000008" class="edge">
<title>Node7&#45;&gt;Node8</title>
<g id="a_edge7_Node000007_Node000008"><a xlink:title=" ">
<path fill="none" stroke="#63b8ff" d="M1085.11,-72C1093.31,-72 1101.51,-72 1109.09,-72"/>
<polygon fill="#63b8ff" stroke="#63b8ff" points="1108.91,-75.5 1118.91,-72 1108.91,-68.5 1108.91,-75.5"/>
</a>
</g>
</g>
<!-- Node9 -->
<g id="Node000009" class="node">
<title>Node9</title>
<g id="a_Node000009"><a xlink:href="a00840.html#ae0e482c6a813848a8f5d34957d1b6307" target="_top" xlink:title="获取全局JavaVM对象.">
<polygon fill="white" stroke="#666666" points="1335,-82 1208,-82 1208,-62 1335,-62 1335,-82"/>
<text text-anchor="middle" x="1271.5" y="-68.5" font-family="Helvetica,sans-Serif" font-size="10.00">JNIEnvManager::getGvm</text>
</a>
</g>
</g>
<!-- Node8&#45;&gt;Node9 -->
<g id="edge8_Node000008_Node000009" class="edge">
<title>Node8&#45;&gt;Node9</title>
<g id="a_edge8_Node000008_Node000009"><a xlink:title=" ">
<path fill="none" stroke="#63b8ff" d="M1172.29,-72C1179.47,-72 1187.7,-72 1196.27,-72"/>
<polygon fill="#63b8ff" stroke="#63b8ff" points="1196.16,-75.5 1206.16,-72 1196.16,-68.5 1196.16,-75.5"/>
</a>
</g>
</g>
<!-- Node10&#45;&gt;Node6 -->
<g id="edge10_Node000010_Node000006" class="edge">
<title>Node10&#45;&gt;Node6</title>
<g id="a_edge10_Node000010_Node000006"><a xlink:title=" ">
<path fill="none" stroke="#63b8ff" d="M764.94,-51.5C776.74,-53.96 789.44,-56.61 801.67,-59.16"/>
<polygon fill="#63b8ff" stroke="#63b8ff" points="800.75,-62.54 811.25,-61.15 802.18,-55.69 800.75,-62.54"/>
</a>
</g>
</g>
<!-- Node11 -->
<g id="Node000011" class="node">
<title>Node11</title>
<g id="a_Node000011"><a xlink:href="a00872.html#af50d0545fe7d683e54fcd03453a423e3" target="_top" xlink:title=" ">
<polygon fill="white" stroke="#666666" points="925.5,-32 803,-32 803,0 925.5,0 925.5,-32"/>
<text text-anchor="start" x="811" y="-18.5" font-family="Helvetica,sans-Serif" font-size="10.00">LibLoader::LoaderLogger</text>
<text text-anchor="middle" x="864.25" y="-6.5" font-family="Helvetica,sans-Serif" font-size="10.00">::warning</text>
</a>
</g>
</g>
<!-- Node10&#45;&gt;Node11 -->
<g id="edge11_Node000010_Node000011" class="edge">
<title>Node10&#45;&gt;Node11</title>
<g id="a_edge11_Node000010_Node000011"><a xlink:title=" ">
<path fill="none" stroke="#63b8ff" d="M767.44,-32.12C775.21,-30.81 783.32,-29.44 791.4,-28.09"/>
<polygon fill="#63b8ff" stroke="#63b8ff" points="791.97,-31.54 801.25,-26.43 790.81,-24.64 791.97,-31.54"/>
</a>
</g>
</g>
<!-- Node11&#45;&gt;Node5 -->
<g id="edge12_Node000011_Node000005" class="edge">
<title>Node11&#45;&gt;Node5</title>
<g id="a_edge12_Node000011_Node000005"><a xlink:title=" ">
<path fill="none" stroke="#63b8ff" d="M802.66,-15.18C762.21,-15.27 707.9,-16.63 660.25,-22 652.28,-22.9 643.98,-24.11 635.75,-25.49"/>
<polygon fill="#63b8ff" stroke="#63b8ff" points="635.33,-22.01 626.1,-27.19 636.55,-28.9 635.33,-22.01"/>
</a>
</g>
</g>
</g>
</svg>
