<?xml version="1.0" encoding="UTF-8" standalone="no"?>
<!DOCTYPE svg PUBLIC "-//W3C//DTD SVG 1.1//EN"
 "http://www.w3.org/Graphics/SVG/1.1/DTD/svg11.dtd">
<!-- Generated by graphviz version 9.0.0 (0)
 -->
<!-- Title: MiraiCP::Contact::unpackQuote Pages: 1 -->
<svg width="1824pt" height="220pt"
 viewBox="0.00 0.00 1823.75 220.17" xmlns="http://www.w3.org/2000/svg" xmlns:xlink="http://www.w3.org/1999/xlink">
<g id="graph0" class="graph" transform="scale(1 1) rotate(0) translate(4 216.17)">
<title>MiraiCP::Contact::unpackQuote</title>
<!-- Node1 -->
<g id="Node000001" class="node">
<title>Node1</title>
<g id="a_Node000001"><a xlink:title=" ">
<polygon fill="#999999" stroke="#666666" points="129.25,-124.17 0,-124.17 0,-92.17 129.25,-92.17 129.25,-124.17"/>
<text text-anchor="start" x="8" y="-110.67" font-family="Helvetica,sans-Serif" font-size="10.00">MiraiCP::Contact::unpack</text>
<text text-anchor="middle" x="64.62" y="-98.67" font-family="Helvetica,sans-Serif" font-size="10.00">Quote</text>
</a>
</g>
</g>
<!-- Node2 -->
<g id="Node000002" class="node">
<title>Node2</title>
<g id="a_Node000002"><a xlink:href="a00460.html#aee1b53cae7cec3e1d65daa3d23625223" target="_top" xlink:title=" ">
<polygon fill="white" stroke="#666666" points="304.25,-124.17 165.25,-124.17 165.25,-92.17 304.25,-92.17 304.25,-124.17"/>
<text text-anchor="start" x="173.25" y="-110.67" font-family="Helvetica,sans-Serif" font-size="10.00">MiraiCP::Contact::quoteAnd</text>
<text text-anchor="middle" x="234.75" y="-98.67" font-family="Helvetica,sans-Serif" font-size="10.00">SendImpl</text>
</a>
</g>
</g>
<!-- Node1&#45;&gt;Node2 -->
<g id="edge1_Node000001_Node000002" class="edge">
<title>Node1&#45;&gt;Node2</title>
<g id="a_edge1_Node000001_Node000002"><a xlink:title=" ">
<path fill="none" stroke="#63b8ff" d="M129.67,-108.17C137.49,-108.17 145.55,-108.17 153.57,-108.17"/>
<polygon fill="#63b8ff" stroke="#63b8ff" points="153.33,-111.67 163.33,-108.17 153.33,-104.67 153.33,-111.67"/>
</a>
</g>
</g>
<!-- Node3 -->
<g id="Node000003" class="node">
<title>Node3</title>
<g id="a_Node000003"><a xlink:href="a00656.html#a1f98db6bbdf6b7d178bf92f55fd2e4dc" target="_top" xlink:title="从json字符串反序列化到MessageSource对象">
<polygon fill="white" stroke="#666666" points="468,-199.17 340.25,-199.17 340.25,-167.17 468,-167.17 468,-199.17"/>
<text text-anchor="start" x="348.25" y="-185.67" font-family="Helvetica,sans-Serif" font-size="10.00">MiraiCP::MessageSource</text>
<text text-anchor="middle" x="404.12" y="-173.67" font-family="Helvetica,sans-Serif" font-size="10.00">::deserializeFromString</text>
</a>
</g>
</g>
<!-- Node2&#45;&gt;Node3 -->
<g id="edge2_Node000002_Node000003" class="edge">
<title>Node2&#45;&gt;Node3</title>
<g id="a_edge2_Node000002_Node000003"><a xlink:title=" ">
<path fill="none" stroke="#63b8ff" d="M268.43,-124.51C288.9,-134.57 315.93,-147.53 340.25,-158.17 343.53,-159.6 346.93,-161.05 350.36,-162.49"/>
<polygon fill="#63b8ff" stroke="#63b8ff" points="348.71,-165.6 359.29,-166.17 351.38,-159.12 348.71,-165.6"/>
</a>
</g>
</g>
<!-- Node5 -->
<g id="Node000005" class="node">
<title>Node5</title>
<g id="a_Node000005"><a xlink:href="a00435.html#a309e8d7f316e8b5e947ea3bcddeb84a8" target="_top" xlink:title="调用 Mirai 操作">
<polygon fill="white" stroke="#666666" points="458.62,-149.17 349.62,-149.17 349.62,-117.17 458.62,-117.17 458.62,-149.17"/>
<text text-anchor="start" x="357.62" y="-135.67" font-family="Helvetica,sans-Serif" font-size="10.00">MiraiCP::KtOperation</text>
<text text-anchor="middle" x="404.12" y="-123.67" font-family="Helvetica,sans-Serif" font-size="10.00">::ktOperation</text>
</a>
</g>
</g>
<!-- Node2&#45;&gt;Node5 -->
<g id="edge4_Node000002_Node000005" class="edge">
<title>Node2&#45;&gt;Node5</title>
<g id="a_edge4_Node000002_Node000005"><a xlink:title=" ">
<path fill="none" stroke="#63b8ff" d="M304.31,-118.41C315.43,-120.07 326.92,-121.79 337.96,-123.44"/>
<polygon fill="#63b8ff" stroke="#63b8ff" points="337.36,-126.88 347.77,-124.9 338.4,-119.96 337.36,-126.88"/>
</a>
</g>
</g>
<!-- Node17 -->
<g id="Node000017" class="node">
<title>Node17</title>
<g id="a_Node000017"><a xlink:href="a00656.html#aca51487498128b420019182e1331a282" target="_top" xlink:title=" ">
<polygon fill="white" stroke="#666666" points="468,-99.17 340.25,-99.17 340.25,-67.17 468,-67.17 468,-99.17"/>
<text text-anchor="start" x="348.25" y="-85.67" font-family="Helvetica,sans-Serif" font-size="10.00">MiraiCP::MessageSource</text>
<text text-anchor="middle" x="404.12" y="-73.67" font-family="Helvetica,sans-Serif" font-size="10.00">::serializeToString</text>
</a>
</g>
</g>
<!-- Node2&#45;&gt;Node17 -->
<g id="edge20_Node000002_Node000017" class="edge">
<title>Node2&#45;&gt;Node17</title>
<g id="a_edge20_Node000002_Node000017"><a xlink:title=" ">
<path fill="none" stroke="#63b8ff" d="M304.31,-97.93C312.29,-96.74 320.45,-95.52 328.51,-94.31"/>
<polygon fill="#63b8ff" stroke="#63b8ff" points="328.92,-97.79 338.29,-92.85 327.88,-90.87 328.92,-97.79"/>
</a>
</g>
</g>
<!-- Node18 -->
<g id="Node000018" class="node">
<title>Node18</title>
<g id="a_Node000018"><a xlink:href="a00460.html#a89fb588a12ff2d4de10722788945ea55" target="_top" xlink:title="序列化到json对象">
<polygon fill="white" stroke="#666666" points="467.62,-49.17 340.62,-49.17 340.62,-29.17 467.62,-29.17 467.62,-49.17"/>
<text text-anchor="middle" x="404.12" y="-35.67" font-family="Helvetica,sans-Serif" font-size="10.00">MiraiCP::Contact::toJson</text>
</a>
</g>
</g>
<!-- Node2&#45;&gt;Node18 -->
<g id="edge21_Node000002_Node000018" class="edge">
<title>Node2&#45;&gt;Node18</title>
<g id="a_edge21_Node000002_Node000018"><a xlink:title=" ">
<path fill="none" stroke="#63b8ff" d="M266.75,-91.79C287.26,-81.35 314.93,-67.98 340.25,-58.17 344.86,-56.38 349.71,-54.65 354.59,-53.02"/>
<polygon fill="#63b8ff" stroke="#63b8ff" points="355.35,-56.45 363.8,-50.06 353.2,-49.79 355.35,-56.45"/>
</a>
</g>
</g>
<!-- Node4 -->
<g id="Node000004" class="node">
<title>Node4</title>
<g id="a_Node000004"><a xlink:href="a00628.html#af14d39efa300da183070784bc86d3f23" target="_top" xlink:title="发送错误(error级日志)">
<polygon fill="white" stroke="#666666" points="633.25,-199.17 504,-199.17 504,-167.17 633.25,-167.17 633.25,-199.17"/>
<text text-anchor="start" x="512" y="-185.67" font-family="Helvetica,sans-Serif" font-size="10.00">MiraiCP::Logger_interface</text>
<text text-anchor="middle" x="568.62" y="-173.67" font-family="Helvetica,sans-Serif" font-size="10.00">::error</text>
</a>
</g>
</g>
<!-- Node3&#45;&gt;Node4 -->
<g id="edge3_Node000003_Node000004" class="edge">
<title>Node3&#45;&gt;Node4</title>
<g id="a_edge3_Node000003_Node000004"><a xlink:title=" ">
<path fill="none" stroke="#63b8ff" d="M468.42,-183.17C476.29,-183.17 484.4,-183.17 492.43,-183.17"/>
<polygon fill="#63b8ff" stroke="#63b8ff" points="492.19,-186.67 502.19,-183.17 492.19,-179.67 492.19,-186.67"/>
</a>
</g>
</g>
<!-- Node6 -->
<g id="Node000006" class="node">
<title>Node6</title>
<g id="a_Node000006"><a xlink:href="a00435.html#a1e1e498928eeaa1d7107033ff5fa881a" target="_top" xlink:title="调用 Mirai 操作">
<polygon fill="white" stroke="#666666" points="623.12,-149.17 514.12,-149.17 514.12,-117.17 623.12,-117.17 623.12,-149.17"/>
<text text-anchor="start" x="522.12" y="-135.67" font-family="Helvetica,sans-Serif" font-size="10.00">MiraiCP::KtOperation</text>
<text text-anchor="middle" x="568.62" y="-123.67" font-family="Helvetica,sans-Serif" font-size="10.00">::ktOperationStr</text>
</a>
</g>
</g>
<!-- Node5&#45;&gt;Node6 -->
<g id="edge5_Node000005_Node000006" class="edge">
<title>Node5&#45;&gt;Node6</title>
<g id="a_edge5_Node000005_Node000006"><a xlink:title=" ">
<path fill="none" stroke="#63b8ff" d="M458.78,-133.17C472.72,-133.17 487.88,-133.17 502.34,-133.17"/>
<polygon fill="#63b8ff" stroke="#63b8ff" points="502.23,-136.67 512.23,-133.17 502.23,-129.67 502.23,-136.67"/>
</a>
</g>
</g>
<!-- Node7 -->
<g id="Node000007" class="node">
<title>Node7</title>
<g id="a_Node000007"><a xlink:href="a00426.html#a4c6ac4cf4ba5ff0adb7656708bbb67d0" target="_top" xlink:title="interfaces for plugins">
<polygon fill="white" stroke="#666666" points="776.75,-149.17 669.25,-149.17 669.25,-117.17 776.75,-117.17 776.75,-149.17"/>
<text text-anchor="start" x="677.25" y="-135.67" font-family="Helvetica,sans-Serif" font-size="10.00">LibLoader::LoaderApi</text>
<text text-anchor="middle" x="723" y="-123.67" font-family="Helvetica,sans-Serif" font-size="10.00">::pluginOperation</text>
</a>
</g>
</g>
<!-- Node6&#45;&gt;Node7 -->
<g id="edge6_Node000006_Node000007" class="edge">
<title>Node6&#45;&gt;Node7</title>
<g id="a_edge6_Node000006_Node000007"><a xlink:title=" ">
<path fill="none" stroke="#63b8ff" d="M623.35,-133.17C634.4,-133.17 646.15,-133.17 657.53,-133.17"/>
<polygon fill="#63b8ff" stroke="#63b8ff" points="657.25,-136.67 667.25,-133.17 657.25,-129.67 657.25,-136.67"/>
</a>
</g>
</g>
<!-- Node8 -->
<g id="Node000008" class="node">
<title>Node8</title>
<g id="a_Node000008"><a xlink:href="a00780.html#acc90fdac094544c4ddd9d6fd13baa5da" target="_top" xlink:title=" ">
<polygon fill="white" stroke="#666666" points="951,-212.17 812.75,-212.17 812.75,-180.17 951,-180.17 951,-212.17"/>
<text text-anchor="start" x="820.75" y="-198.67" font-family="Helvetica,sans-Serif" font-size="10.00">MiraiCP::MiraiCPStringview</text>
<text text-anchor="middle" x="881.88" y="-186.67" font-family="Helvetica,sans-Serif" font-size="10.00">::c_str</text>
</a>
</g>
</g>
<!-- Node7&#45;&gt;Node8 -->
<g id="edge7_Node000007_Node000008" class="edge">
<title>Node7&#45;&gt;Node8</title>
<g id="a_edge7_Node000007_Node000008"><a xlink:title=" ">
<path fill="none" stroke="#63b8ff" d="M764.81,-149.56C784.52,-157.47 808.39,-167.06 829.34,-175.47"/>
<polygon fill="#63b8ff" stroke="#63b8ff" points="828.01,-178.71 838.6,-179.19 830.62,-172.21 828.01,-178.71"/>
</a>
</g>
</g>
<!-- Node9 -->
<g id="Node000009" class="node">
<title>Node9</title>
<g id="a_Node000009"><a xlink:href="a00840.html#aea7d58ff9f04d6d4849c25a2506603a5" target="_top" xlink:title="取env,如果不存在重新获取">
<polygon fill="white" stroke="#666666" points="1565.5,-124.17 1442.25,-124.17 1442.25,-104.17 1565.5,-104.17 1565.5,-124.17"/>
<text text-anchor="middle" x="1503.88" y="-110.67" font-family="Helvetica,sans-Serif" font-size="10.00">JNIEnvManager::getEnv</text>
</a>
</g>
</g>
<!-- Node7&#45;&gt;Node9 -->
<g id="edge8_Node000007_Node000009" class="edge">
<title>Node7&#45;&gt;Node9</title>
<g id="a_edge8_Node000007_Node000009"><a xlink:title=" ">
<path fill="none" stroke="#63b8ff" d="M777.14,-138.21C841.15,-143.84 951.96,-152.17 1047.25,-152.17 1047.25,-152.17 1047.25,-152.17 1207.75,-152.17 1289.04,-152.17 1381.9,-137.81 1441.4,-126.75"/>
<polygon fill="#63b8ff" stroke="#63b8ff" points="1441.81,-130.23 1450.99,-124.93 1440.51,-123.35 1441.81,-130.23"/>
</a>
</g>
</g>
<!-- Node12 -->
<g id="Node000012" class="node">
<title>Node12</title>
<g id="a_Node000012"><a xlink:href="a00425.html#aa5f8d0ecd9dd392b491070aace643ae3" target="_top" xlink:title=" ">
<polygon fill="white" stroke="#666666" points="1101.62,-124.17 994.88,-124.17 994.88,-104.17 1101.62,-104.17 1101.62,-124.17"/>
<text text-anchor="middle" x="1048.25" y="-110.67" font-family="Helvetica,sans-Serif" font-size="10.00">LibLoader::jstring2str</text>
</a>
</g>
</g>
<!-- Node7&#45;&gt;Node12 -->
<g id="edge11_Node000007_Node000012" class="edge">
<title>Node7&#45;&gt;Node12</title>
<g id="a_edge11_Node000007_Node000012"><a xlink:title=" ">
<path fill="none" stroke="#63b8ff" d="M777.02,-130.05C833.47,-126.73 922.83,-121.48 983.18,-117.93"/>
<polygon fill="#63b8ff" stroke="#63b8ff" points="983.19,-121.44 992.96,-117.36 982.77,-114.45 983.19,-121.44"/>
</a>
</g>
</g>
<!-- Node14 -->
<g id="Node000014" class="node">
<title>Node14</title>
<g id="a_Node000014"><a xlink:href="a00425.html#a6a6fcd695791253a9b3a053d313b2b93" target="_top" xlink:title=" ">
<polygon fill="white" stroke="#666666" points="935.25,-64.17 828.5,-64.17 828.5,-44.17 935.25,-44.17 935.25,-64.17"/>
<text text-anchor="middle" x="881.88" y="-50.67" font-family="Helvetica,sans-Serif" font-size="10.00">LibLoader::str2jstring</text>
</a>
</g>
</g>
<!-- Node7&#45;&gt;Node14 -->
<g id="edge14_Node000007_Node000014" class="edge">
<title>Node7&#45;&gt;Node14</title>
<g id="a_edge14_Node000007_Node000014"><a xlink:title=" ">
<path fill="none" stroke="#63b8ff" d="M756.5,-116.8C784.08,-102.91 823.34,-83.14 850.34,-69.55"/>
<polygon fill="#63b8ff" stroke="#63b8ff" points="851.67,-72.79 859.03,-65.17 848.52,-66.54 851.67,-72.79"/>
</a>
</g>
</g>
<!-- Node10 -->
<g id="Node000010" class="node">
<title>Node10</title>
<g id="a_Node000010"><a xlink:href="a00260.html#a3d31403b7971274d47d308245206bd24" target="_top" xlink:title="为当前线程创建一个env.">
<polygon fill="white" stroke="#666666" points="1652.75,-124.17 1601.5,-124.17 1601.5,-104.17 1652.75,-104.17 1652.75,-124.17"/>
<text text-anchor="middle" x="1627.12" y="-110.67" font-family="Helvetica,sans-Serif" font-size="10.00">newEnv</text>
</a>
</g>
</g>
<!-- Node9&#45;&gt;Node10 -->
<g id="edge9_Node000009_Node000010" class="edge">
<title>Node9&#45;&gt;Node10</title>
<g id="a_edge9_Node000009_Node000010"><a xlink:title=" ">
<path fill="none" stroke="#63b8ff" d="M1565.86,-114.17C1574.06,-114.17 1582.26,-114.17 1589.84,-114.17"/>
<polygon fill="#63b8ff" stroke="#63b8ff" points="1589.66,-117.67 1599.66,-114.17 1589.66,-110.67 1589.66,-117.67"/>
</a>
</g>
</g>
<!-- Node11 -->
<g id="Node000011" class="node">
<title>Node11</title>
<g id="a_Node000011"><a xlink:href="a00840.html#ae0e482c6a813848a8f5d34957d1b6307" target="_top" xlink:title="获取全局JavaVM对象.">
<polygon fill="white" stroke="#666666" points="1815.75,-124.17 1688.75,-124.17 1688.75,-104.17 1815.75,-104.17 1815.75,-124.17"/>
<text text-anchor="middle" x="1752.25" y="-110.67" font-family="Helvetica,sans-Serif" font-size="10.00">JNIEnvManager::getGvm</text>
</a>
</g>
</g>
<!-- Node10&#45;&gt;Node11 -->
<g id="edge10_Node000010_Node000011" class="edge">
<title>Node10&#45;&gt;Node11</title>
<g id="a_edge10_Node000010_Node000011"><a xlink:title=" ">
<path fill="none" stroke="#63b8ff" d="M1653.04,-114.17C1660.22,-114.17 1668.45,-114.17 1677.02,-114.17"/>
<polygon fill="#63b8ff" stroke="#63b8ff" points="1676.91,-117.67 1686.91,-114.17 1676.91,-110.67 1676.91,-117.67"/>
</a>
</g>
</g>
<!-- Node13 -->
<g id="Node000013" class="node">
<title>Node13</title>
<g id="a_Node000013"><a xlink:href="a00430.html#a076c5f4ff8083c7cfc6523498d0ba30f" target="_top" xlink:title=" ">
<polygon fill="white" stroke="#666666" points="1406.25,-108.17 1304,-108.17 1304,-76.17 1406.25,-76.17 1406.25,-108.17"/>
<text text-anchor="start" x="1312" y="-94.67" font-family="Helvetica,sans-Serif" font-size="10.00">LibLoader::JNIEnvs</text>
<text text-anchor="middle" x="1355.12" y="-82.67" font-family="Helvetica,sans-Serif" font-size="10.00">::getEnv</text>
</a>
</g>
</g>
<!-- Node12&#45;&gt;Node13 -->
<g id="edge12_Node000012_Node000013" class="edge">
<title>Node12&#45;&gt;Node13</title>
<g id="a_edge12_Node000012_Node000013"><a xlink:title=" ">
<path fill="none" stroke="#63b8ff" d="M1102.01,-110.36C1154.94,-106.54 1236.44,-100.66 1292.36,-96.63"/>
<polygon fill="#63b8ff" stroke="#63b8ff" points="1292.3,-100.14 1302.02,-95.93 1291.8,-93.16 1292.3,-100.14"/>
</a>
</g>
</g>
<!-- Node13&#45;&gt;Node9 -->
<g id="edge13_Node000013_Node000009" class="edge">
<title>Node13&#45;&gt;Node9</title>
<g id="a_edge13_Node000013_Node000009"><a xlink:title=" ">
<path fill="none" stroke="#63b8ff" d="M1406.63,-99.74C1414.35,-100.9 1422.44,-102.11 1430.52,-103.32"/>
<polygon fill="#63b8ff" stroke="#63b8ff" points="1429.99,-106.78 1440.4,-104.8 1431.03,-99.86 1429.99,-106.78"/>
</a>
</g>
</g>
<!-- Node14&#45;&gt;Node13 -->
<g id="edge15_Node000014_Node000013" class="edge">
<title>Node14&#45;&gt;Node13</title>
<g id="a_edge15_Node000014_Node000013"><a xlink:title=" ">
<path fill="none" stroke="#63b8ff" d="M935.56,-58.42C1023.29,-65.49 1198.87,-79.65 1292.31,-87.18"/>
<polygon fill="#63b8ff" stroke="#63b8ff" points="1291.8,-90.65 1302.05,-87.97 1292.37,-83.68 1291.8,-90.65"/>
</a>
</g>
</g>
<!-- Node15 -->
<g id="Node000015" class="node">
<title>Node15</title>
<g id="a_Node000015"><a xlink:href="a00872.html#af50d0545fe7d683e54fcd03453a423e3" target="_top" xlink:title=" ">
<polygon fill="white" stroke="#666666" points="1109.5,-48.17 987,-48.17 987,-16.17 1109.5,-16.17 1109.5,-48.17"/>
<text text-anchor="start" x="995" y="-34.67" font-family="Helvetica,sans-Serif" font-size="10.00">LibLoader::LoaderLogger</text>
<text text-anchor="middle" x="1048.25" y="-22.67" font-family="Helvetica,sans-Serif" font-size="10.00">::warning</text>
</a>
</g>
</g>
<!-- Node14&#45;&gt;Node15 -->
<g id="edge16_Node000014_Node000015" class="edge">
<title>Node14&#45;&gt;Node15</title>
<g id="a_edge16_Node000014_Node000015"><a xlink:title=" ">
<path fill="none" stroke="#63b8ff" d="M935.34,-47.15C948.11,-45.44 961.99,-43.58 975.49,-41.77"/>
<polygon fill="#63b8ff" stroke="#63b8ff" points="975.75,-45.27 985.2,-40.47 974.83,-38.33 975.75,-45.27"/>
</a>
</g>
</g>
<!-- Node16 -->
<g id="Node000016" class="node">
<title>Node16</title>
<g id="a_Node000016"><a xlink:href="a00872.html#af4d7d5164450e25f7401d1cc15f15b8d" target="_top" xlink:title="实际暴露的接口">
<polygon fill="white" stroke="#666666" points="1268,-48.17 1145.5,-48.17 1145.5,-16.17 1268,-16.17 1268,-48.17"/>
<text text-anchor="start" x="1153.5" y="-34.67" font-family="Helvetica,sans-Serif" font-size="10.00">LibLoader::LoaderLogger</text>
<text text-anchor="middle" x="1206.75" y="-22.67" font-family="Helvetica,sans-Serif" font-size="10.00">::call_logger</text>
</a>
</g>
</g>
<!-- Node15&#45;&gt;Node16 -->
<g id="edge17_Node000015_Node000016" class="edge">
<title>Node15&#45;&gt;Node16</title>
<g id="a_edge17_Node000015_Node000016"><a xlink:title=" ">
<path fill="none" stroke="#63b8ff" d="M1109.76,-32.17C1117.65,-32.17 1125.8,-32.17 1133.85,-32.17"/>
<polygon fill="#63b8ff" stroke="#63b8ff" points="1133.63,-35.67 1143.63,-32.17 1133.63,-28.67 1133.63,-35.67"/>
</a>
</g>
</g>
<!-- Node16&#45;&gt;Node13 -->
<g id="edge18_Node000016_Node000013" class="edge">
<title>Node16&#45;&gt;Node13</title>
<g id="a_edge18_Node000016_Node000013"><a xlink:title=" ">
<path fill="none" stroke="#63b8ff" d="M1247.75,-48.56C1264.94,-55.61 1285.24,-63.93 1303.47,-71.4"/>
<polygon fill="#63b8ff" stroke="#63b8ff" points="1301.94,-74.56 1312.52,-75.11 1304.6,-68.08 1301.94,-74.56"/>
</a>
</g>
</g>
<!-- Node16&#45;&gt;Node14 -->
<g id="edge19_Node000016_Node000014" class="edge">
<title>Node16&#45;&gt;Node14</title>
<g id="a_edge19_Node000016_Node000014"><a xlink:title=" ">
<path fill="none" stroke="#63b8ff" d="M1152.26,-15.71C1138.46,-12.17 1123.54,-8.96 1109.5,-7.17 1055.49,-0.27 1040.23,4.29 987,-7.17 959.26,-13.14 930.01,-27.11 909.59,-38.28"/>
<polygon fill="#63b8ff" stroke="#63b8ff" points="908.09,-35.11 901.1,-43.07 911.53,-41.21 908.09,-35.11"/>
</a>
</g>
</g>
</g>
</svg>
