<?xml version="1.0" encoding="UTF-8" standalone="no"?>
<!DOCTYPE svg PUBLIC "-//W3C//DTD SVG 1.1//EN"
 "http://www.w3.org/Graphics/SVG/1.1/DTD/svg11.dtd">
<!-- Generated by graphviz version 9.0.0 (0)
 -->
<!-- Title: LibLoader::loader_enablePluginById Pages: 1 -->
<svg width="1346pt" height="109pt"
 viewBox="0.00 0.00 1346.00 109.00" xmlns="http://www.w3.org/2000/svg" xmlns:xlink="http://www.w3.org/1999/xlink">
<g id="graph0" class="graph" transform="scale(1 1) rotate(0) translate(4 105)">
<title>LibLoader::loader_enablePluginById</title>
<!-- Node1 -->
<g id="Node000001" class="node">
<title>Node1</title>
<g id="a_Node000001"><a xlink:title=" ">
<polygon fill="#999999" stroke="#666666" points="124,-48 0,-48 0,-16 124,-16 124,-48"/>
<text text-anchor="start" x="8" y="-34.5" font-family="Helvetica,sans-Serif" font-size="10.00">LibLoader::loader_enable</text>
<text text-anchor="middle" x="62" y="-22.5" font-family="Helvetica,sans-Serif" font-size="10.00">PluginById</text>
</a>
</g>
</g>
<!-- Node2 -->
<g id="Node000002" class="node">
<title>Node2</title>
<g id="a_Node000002"><a xlink:href="a00928.html#ac76501cf70275d201f6749968b3e4033" target="_top" xlink:title=" ">
<polygon fill="white" stroke="#666666" points="299.38,-70 170.88,-70 170.88,-38 299.38,-38 299.38,-70"/>
<text text-anchor="start" x="178.88" y="-56.5" font-family="Helvetica,sans-Serif" font-size="10.00">LibLoader::PluginManager</text>
<text text-anchor="middle" x="235.12" y="-44.5" font-family="Helvetica,sans-Serif" font-size="10.00">::enableById</text>
</a>
</g>
</g>
<!-- Node1&#45;&gt;Node2 -->
<g id="edge1_Node000001_Node000002" class="edge">
<title>Node1&#45;&gt;Node2</title>
<g id="a_edge1_Node000001_Node000002"><a xlink:title=" ">
<path fill="none" stroke="#63b8ff" d="M124.3,-39.88C135.71,-41.35 147.74,-42.89 159.5,-44.41"/>
<polygon fill="#63b8ff" stroke="#63b8ff" points="158.79,-47.84 169.16,-45.65 159.69,-40.9 158.79,-47.84"/>
</a>
</g>
</g>
<!-- Node11 -->
<g id="Node000011" class="node">
<title>Node11</title>
<g id="a_Node000011"><a xlink:href="a00928.html#a39ce5601eee168a69cab158349412c3e" target="_top" xlink:title=" ">
<polygon fill="white" stroke="#666666" points="310.25,-20 160,-20 160,0 310.25,0 310.25,-20"/>
<text text-anchor="middle" x="235.12" y="-6.5" font-family="Helvetica,sans-Serif" font-size="10.00">LibLoader::PluginManager::Get</text>
</a>
</g>
</g>
<!-- Node1&#45;&gt;Node11 -->
<g id="edge12_Node000001_Node000011" class="edge">
<title>Node1&#45;&gt;Node11</title>
<g id="a_edge12_Node000001_Node000011"><a xlink:title=" ">
<path fill="none" stroke="#63b8ff" d="M124.3,-24.12C132.05,-23.12 140.1,-22.09 148.15,-21.05"/>
<polygon fill="#63b8ff" stroke="#63b8ff" points="148.54,-24.53 158.01,-19.79 147.64,-17.59 148.54,-24.53"/>
</a>
</g>
</g>
<!-- Node3 -->
<g id="Node000003" class="node">
<title>Node3</title>
<g id="a_Node000003"><a xlink:href="a00872.html#ae735f16b20f681d29d4e5d28ad248dbe" target="_top" xlink:title=" ">
<polygon fill="white" stroke="#666666" points="468.75,-70 346.25,-70 346.25,-38 468.75,-38 468.75,-70"/>
<text text-anchor="start" x="354.25" y="-56.5" font-family="Helvetica,sans-Serif" font-size="10.00">LibLoader::LoaderLogger</text>
<text text-anchor="middle" x="407.5" y="-44.5" font-family="Helvetica,sans-Serif" font-size="10.00">::error</text>
</a>
</g>
</g>
<!-- Node2&#45;&gt;Node3 -->
<g id="edge2_Node000002_Node000003" class="edge">
<title>Node2&#45;&gt;Node3</title>
<g id="a_edge2_Node000002_Node000003"><a xlink:title=" ">
<path fill="none" stroke="#63b8ff" d="M299.57,-54C310.92,-54 322.82,-54 334.4,-54"/>
<polygon fill="#63b8ff" stroke="#63b8ff" points="334.32,-57.5 344.32,-54 334.32,-50.5 334.32,-57.5"/>
</a>
</g>
</g>
<!-- Node4 -->
<g id="Node000004" class="node">
<title>Node4</title>
<g id="a_Node000004"><a xlink:href="a00872.html#af4d7d5164450e25f7401d1cc15f15b8d" target="_top" xlink:title="实际暴露的接口">
<polygon fill="white" stroke="#666666" points="627.25,-70 504.75,-70 504.75,-38 627.25,-38 627.25,-70"/>
<text text-anchor="start" x="512.75" y="-56.5" font-family="Helvetica,sans-Serif" font-size="10.00">LibLoader::LoaderLogger</text>
<text text-anchor="middle" x="566" y="-44.5" font-family="Helvetica,sans-Serif" font-size="10.00">::call_logger</text>
</a>
</g>
</g>
<!-- Node3&#45;&gt;Node4 -->
<g id="edge3_Node000003_Node000004" class="edge">
<title>Node3&#45;&gt;Node4</title>
<g id="a_edge3_Node000003_Node000004"><a xlink:title=" ">
<path fill="none" stroke="#63b8ff" d="M469.01,-54C476.9,-54 485.05,-54 493.1,-54"/>
<polygon fill="#63b8ff" stroke="#63b8ff" points="492.88,-57.5 502.88,-54 492.88,-50.5 492.88,-57.5"/>
</a>
</g>
</g>
<!-- Node5 -->
<g id="Node000005" class="node">
<title>Node5</title>
<g id="a_Node000005"><a xlink:href="a00430.html#a076c5f4ff8083c7cfc6523498d0ba30f" target="_top" xlink:title=" ">
<polygon fill="white" stroke="#666666" points="918.38,-101 816.12,-101 816.12,-69 918.38,-69 918.38,-101"/>
<text text-anchor="start" x="824.12" y="-87.5" font-family="Helvetica,sans-Serif" font-size="10.00">LibLoader::JNIEnvs</text>
<text text-anchor="middle" x="867.25" y="-75.5" font-family="Helvetica,sans-Serif" font-size="10.00">::getEnv</text>
</a>
</g>
</g>
<!-- Node4&#45;&gt;Node5 -->
<g id="edge4_Node000004_Node000005" class="edge">
<title>Node4&#45;&gt;Node5</title>
<g id="a_edge4_Node000004_Node000005"><a xlink:title=" ">
<path fill="none" stroke="#63b8ff" d="M627.64,-67.27C639.41,-69.48 651.68,-71.52 663.25,-73 710.52,-79.03 764.39,-82.04 804.75,-83.54"/>
<polygon fill="#63b8ff" stroke="#63b8ff" points="804.39,-87.03 814.51,-83.88 804.63,-80.03 804.39,-87.03"/>
</a>
</g>
</g>
<!-- Node9 -->
<g id="Node000009" class="node">
<title>Node9</title>
<g id="a_Node000009"><a xlink:href="a00425.html#a6a6fcd695791253a9b3a053d313b2b93" target="_top" xlink:title=" ">
<polygon fill="white" stroke="#666666" points="770,-64 663.25,-64 663.25,-44 770,-44 770,-64"/>
<text text-anchor="middle" x="716.62" y="-50.5" font-family="Helvetica,sans-Serif" font-size="10.00">LibLoader::str2jstring</text>
</a>
</g>
</g>
<!-- Node4&#45;&gt;Node9 -->
<g id="edge8_Node000004_Node000009" class="edge">
<title>Node4&#45;&gt;Node9</title>
<g id="a_edge8_Node000004_Node000009"><a xlink:title=" ">
<path fill="none" stroke="#63b8ff" d="M627.45,-54C635.33,-54 643.43,-54 651.38,-54"/>
<polygon fill="#63b8ff" stroke="#63b8ff" points="651.35,-57.5 661.35,-54 651.35,-50.5 651.35,-57.5"/>
</a>
</g>
</g>
<!-- Node6 -->
<g id="Node000006" class="node">
<title>Node6</title>
<g id="a_Node000006"><a xlink:href="a00840.html#aea7d58ff9f04d6d4849c25a2506603a5" target="_top" xlink:title="取env,如果不存在重新获取">
<polygon fill="white" stroke="#666666" points="1087.75,-95 964.5,-95 964.5,-75 1087.75,-75 1087.75,-95"/>
<text text-anchor="middle" x="1026.12" y="-81.5" font-family="Helvetica,sans-Serif" font-size="10.00">JNIEnvManager::getEnv</text>
</a>
</g>
</g>
<!-- Node5&#45;&gt;Node6 -->
<g id="edge5_Node000005_Node000006" class="edge">
<title>Node5&#45;&gt;Node6</title>
<g id="a_edge5_Node000005_Node000006"><a xlink:title=" ">
<path fill="none" stroke="#63b8ff" d="M918.75,-85C929.57,-85 941.2,-85 952.66,-85"/>
<polygon fill="#63b8ff" stroke="#63b8ff" points="952.51,-88.5 962.51,-85 952.51,-81.5 952.51,-88.5"/>
</a>
</g>
</g>
<!-- Node7 -->
<g id="Node000007" class="node">
<title>Node7</title>
<g id="a_Node000007"><a xlink:href="a00260.html#a3d31403b7971274d47d308245206bd24" target="_top" xlink:title="为当前线程创建一个env.">
<polygon fill="white" stroke="#666666" points="1175,-95 1123.75,-95 1123.75,-75 1175,-75 1175,-95"/>
<text text-anchor="middle" x="1149.38" y="-81.5" font-family="Helvetica,sans-Serif" font-size="10.00">newEnv</text>
</a>
</g>
</g>
<!-- Node6&#45;&gt;Node7 -->
<g id="edge6_Node000006_Node000007" class="edge">
<title>Node6&#45;&gt;Node7</title>
<g id="a_edge6_Node000006_Node000007"><a xlink:title=" ">
<path fill="none" stroke="#63b8ff" d="M1088.11,-85C1096.31,-85 1104.51,-85 1112.09,-85"/>
<polygon fill="#63b8ff" stroke="#63b8ff" points="1111.91,-88.5 1121.91,-85 1111.91,-81.5 1111.91,-88.5"/>
</a>
</g>
</g>
<!-- Node8 -->
<g id="Node000008" class="node">
<title>Node8</title>
<g id="a_Node000008"><a xlink:href="a00840.html#ae0e482c6a813848a8f5d34957d1b6307" target="_top" xlink:title="获取全局JavaVM对象.">
<polygon fill="white" stroke="#666666" points="1338,-95 1211,-95 1211,-75 1338,-75 1338,-95"/>
<text text-anchor="middle" x="1274.5" y="-81.5" font-family="Helvetica,sans-Serif" font-size="10.00">JNIEnvManager::getGvm</text>
</a>
</g>
</g>
<!-- Node7&#45;&gt;Node8 -->
<g id="edge7_Node000007_Node000008" class="edge">
<title>Node7&#45;&gt;Node8</title>
<g id="a_edge7_Node000007_Node000008"><a xlink:title=" ">
<path fill="none" stroke="#63b8ff" d="M1175.29,-85C1182.47,-85 1190.7,-85 1199.27,-85"/>
<polygon fill="#63b8ff" stroke="#63b8ff" points="1199.16,-88.5 1209.16,-85 1199.16,-81.5 1199.16,-88.5"/>
</a>
</g>
</g>
<!-- Node9&#45;&gt;Node5 -->
<g id="edge9_Node000009_Node000005" class="edge">
<title>Node9&#45;&gt;Node5</title>
<g id="a_edge9_Node000009_Node000005"><a xlink:title=" ">
<path fill="none" stroke="#63b8ff" d="M767.94,-64.5C779.74,-66.96 792.44,-69.61 804.67,-72.16"/>
<polygon fill="#63b8ff" stroke="#63b8ff" points="803.75,-75.54 814.25,-74.15 805.18,-68.69 803.75,-75.54"/>
</a>
</g>
</g>
<!-- Node10 -->
<g id="Node000010" class="node">
<title>Node10</title>
<g id="a_Node000010"><a xlink:href="a00872.html#af50d0545fe7d683e54fcd03453a423e3" target="_top" xlink:title=" ">
<polygon fill="white" stroke="#666666" points="928.5,-45 806,-45 806,-13 928.5,-13 928.5,-45"/>
<text text-anchor="start" x="814" y="-31.5" font-family="Helvetica,sans-Serif" font-size="10.00">LibLoader::LoaderLogger</text>
<text text-anchor="middle" x="867.25" y="-19.5" font-family="Helvetica,sans-Serif" font-size="10.00">::warning</text>
</a>
</g>
</g>
<!-- Node9&#45;&gt;Node10 -->
<g id="edge10_Node000009_Node000010" class="edge">
<title>Node9&#45;&gt;Node10</title>
<g id="a_edge10_Node000009_Node000010"><a xlink:title=" ">
<path fill="none" stroke="#63b8ff" d="M770.44,-45.12C778.21,-43.81 786.32,-42.44 794.4,-41.09"/>
<polygon fill="#63b8ff" stroke="#63b8ff" points="794.97,-44.54 804.25,-39.43 793.81,-37.64 794.97,-44.54"/>
</a>
</g>
</g>
<!-- Node10&#45;&gt;Node4 -->
<g id="edge11_Node000010_Node000004" class="edge">
<title>Node10&#45;&gt;Node4</title>
<g id="a_edge11_Node000010_Node000004"><a xlink:title=" ">
<path fill="none" stroke="#63b8ff" d="M805.66,-28.18C765.21,-28.27 710.9,-29.63 663.25,-35 655.28,-35.9 646.98,-37.11 638.75,-38.49"/>
<polygon fill="#63b8ff" stroke="#63b8ff" points="638.33,-35.01 629.1,-40.19 639.55,-41.9 638.33,-35.01"/>
</a>
</g>
</g>
</g>
</svg>
