<?xml version="1.0" encoding="UTF-8" standalone="no"?>
<!DOCTYPE svg PUBLIC "-//W3C//DTD SVG 1.1//EN"
 "http://www.w3.org/Graphics/SVG/1.1/DTD/svg11.dtd">
<!-- Generated by graphviz version 9.0.0 (0)
 -->
<!-- Title: MiraiCP::CPPPlugin Pages: 1 -->
<svg width="266pt" height="631pt"
 viewBox="0.00 0.00 265.50 631.00" xmlns="http://www.w3.org/2000/svg" xmlns:xlink="http://www.w3.org/1999/xlink">
<g id="graph0" class="graph" transform="scale(1 1) rotate(0) translate(4 627)">
<title>MiraiCP::CPPPlugin</title>
<!-- Node1 -->
<g id="Node000001" class="node">
<title>Node1</title>
<g id="a_Node000001"><a xlink:title="插件父类">
<polygon fill="#999999" stroke="none" points="257.5,-155 65.5,-155 65.5,0 257.5,0 257.5,-155"/>
<text text-anchor="start" x="116.88" y="-141.5" font-family="Helvetica,sans-Serif" font-size="10.00">MiraiCP::CPPPlugin</text>
<text text-anchor="start" x="160" y="-125.5" font-family="Helvetica,sans-Serif" font-size="10.00"> </text>
<text text-anchor="start" x="69.5" y="-109.5" font-family="Helvetica,sans-Serif" font-size="10.00">+</text>
<text text-anchor="start" x="79.5" y="-109.5" font-family="Helvetica,sans-Serif" font-size="10.00">ShouldNotUse(&quot;请改为初始化静态常量</text>
<text text-anchor="start" x="79.5" y="-97.5" font-family="Helvetica,sans-Serif" font-size="10.00"> CPPPlugin::config&quot;) explicit CPPPlugin</text>
<text text-anchor="start" x="79.5" y="-85.5" font-family="Helvetica,sans-Serif" font-size="10.00">(const PluginConfig &amp;)</text>
<text text-anchor="start" x="69.5" y="-66.5" font-family="Helvetica,sans-Serif" font-size="10.00">+</text>
<text text-anchor="start" x="79.5" y="-66.5" font-family="Helvetica,sans-Serif" font-size="10.00">CPPPlugin()=default</text>
<text text-anchor="start" x="69.5" y="-50.5" font-family="Helvetica,sans-Serif" font-size="10.00">+</text>
<text text-anchor="start" x="79.5" y="-50.5" font-family="Helvetica,sans-Serif" font-size="10.00">virtual ~CPPPlugin</text>
<text text-anchor="start" x="79.5" y="-38.5" font-family="Helvetica,sans-Serif" font-size="10.00">()=default</text>
<text text-anchor="start" x="69.5" y="-22.5" font-family="Helvetica,sans-Serif" font-size="10.00">+</text>
<text text-anchor="start" x="79.5" y="-22.5" font-family="Helvetica,sans-Serif" font-size="10.00">virtual void onEnable()</text>
<text text-anchor="start" x="69.5" y="-6.5" font-family="Helvetica,sans-Serif" font-size="10.00">+</text>
<text text-anchor="start" x="79.5" y="-6.5" font-family="Helvetica,sans-Serif" font-size="10.00">virtual void onDisable()</text>
<polygon fill="#666666" stroke="#666666" points="65.5,-137 65.5,-137 257.5,-137 257.5,-137 65.5,-137"/>
<polygon fill="#666666" stroke="#666666" points="65.5,-121 65.5,-121 257.5,-121 257.5,-121 65.5,-121"/>
<polygon fill="none" stroke="#666666" points="65.5,0 65.5,-155 257.5,-155 257.5,0 65.5,0"/>
</a>
</g>
</g>
<!-- Node2 -->
<g id="Node000002" class="node">
<title>Node2</title>
<g id="a_Node000002"><a xlink:href="a00444.html" target="_top" xlink:title=" ">
<polygon fill="white" stroke="none" points="127,-451 0,-451 0,-203 127,-203 127,-451"/>
<text text-anchor="start" x="15.12" y="-437.5" font-family="Helvetica,sans-Serif" font-size="10.00">MiraiCP::PluginConfig</text>
<text text-anchor="start" x="62" y="-421.5" font-family="Helvetica,sans-Serif" font-size="10.00"> </text>
<text text-anchor="start" x="4" y="-405.5" font-family="Helvetica,sans-Serif" font-size="10.00">+</text>
<text text-anchor="start" x="14" y="-405.5" font-family="Helvetica,sans-Serif" font-size="10.00">std::string getId()</text>
<text text-anchor="start" x="14" y="-393.5" font-family="Helvetica,sans-Serif" font-size="10.00"> const</text>
<text text-anchor="start" x="4" y="-377.5" font-family="Helvetica,sans-Serif" font-size="10.00">+</text>
<text text-anchor="start" x="14" y="-377.5" font-family="Helvetica,sans-Serif" font-size="10.00">std::string getName</text>
<text text-anchor="start" x="14" y="-365.5" font-family="Helvetica,sans-Serif" font-size="10.00">() const</text>
<text text-anchor="start" x="4" y="-349.5" font-family="Helvetica,sans-Serif" font-size="10.00">+</text>
<text text-anchor="start" x="14" y="-349.5" font-family="Helvetica,sans-Serif" font-size="10.00">std::string getVersion</text>
<text text-anchor="start" x="14" y="-337.5" font-family="Helvetica,sans-Serif" font-size="10.00">() const</text>
<text text-anchor="start" x="4" y="-321.5" font-family="Helvetica,sans-Serif" font-size="10.00">+</text>
<text text-anchor="start" x="14" y="-321.5" font-family="Helvetica,sans-Serif" font-size="10.00">std::string getAuthor</text>
<text text-anchor="start" x="14" y="-309.5" font-family="Helvetica,sans-Serif" font-size="10.00">() const</text>
<text text-anchor="start" x="4" y="-293.5" font-family="Helvetica,sans-Serif" font-size="10.00">+</text>
<text text-anchor="start" x="14" y="-293.5" font-family="Helvetica,sans-Serif" font-size="10.00">std::string getDescription</text>
<text text-anchor="start" x="14" y="-281.5" font-family="Helvetica,sans-Serif" font-size="10.00">() const</text>
<text text-anchor="start" x="4" y="-265.5" font-family="Helvetica,sans-Serif" font-size="10.00">+</text>
<text text-anchor="start" x="14" y="-265.5" font-family="Helvetica,sans-Serif" font-size="10.00">std::string getTime</text>
<text text-anchor="start" x="14" y="-253.5" font-family="Helvetica,sans-Serif" font-size="10.00">() const</text>
<text text-anchor="start" x="4" y="-237.5" font-family="Helvetica,sans-Serif" font-size="10.00">+</text>
<text text-anchor="start" x="14" y="-237.5" font-family="Helvetica,sans-Serif" font-size="10.00">std::string getMVersion</text>
<text text-anchor="start" x="14" y="-225.5" font-family="Helvetica,sans-Serif" font-size="10.00">() const</text>
<text text-anchor="start" x="4" y="-209.5" font-family="Helvetica,sans-Serif" font-size="10.00">+</text>
<text text-anchor="start" x="14" y="-209.5" font-family="Helvetica,sans-Serif" font-size="10.00">bool isValid() const</text>
<polygon fill="#666666" stroke="#666666" points="0,-433 0,-433 127,-433 127,-433 0,-433"/>
<polygon fill="#666666" stroke="#666666" points="0,-417 0,-417 127,-417 127,-417 0,-417"/>
<polygon fill="none" stroke="#666666" points="0,-203 0,-451 127,-451 127,-203 0,-203"/>
</a>
</g>
</g>
<!-- Node2&#45;&gt;Node1 -->
<g id="edge1_Node000001_Node000002" class="edge">
<title>Node2&#45;&gt;Node1</title>
<g id="a_edge1_Node000001_Node000002"><a xlink:title=" ">
<path fill="none" stroke="#63b8ff" d="M112.07,-203.34C116.93,-191.07 121.79,-178.78 126.47,-166.97"/>
<polygon fill="none" stroke="#63b8ff" points="126.52,-166.84 125.01,-159.79 130.94,-155.68 132.45,-162.74 126.52,-166.84"/>
</a>
</g>
<text text-anchor="middle" x="139.12" y="-175.5" font-family="Helvetica,sans-Serif" font-size="10.00" fill="grey"> +config</text>
</g>
<!-- Node3 -->
<g id="Node000003" class="node">
<title>Node3</title>
<g id="a_Node000003"><a xlink:title=" ">
<polygon fill="white" stroke="none" points="94.5,-623 32.5,-623 32.5,-571 94.5,-571 94.5,-623"/>
<text text-anchor="start" x="37.25" y="-609.5" font-family="Helvetica,sans-Serif" font-size="10.00">const char *</text>
<text text-anchor="start" x="62" y="-593.5" font-family="Helvetica,sans-Serif" font-size="10.00"> </text>
<text text-anchor="start" x="62" y="-577.5" font-family="Helvetica,sans-Serif" font-size="10.00"> </text>
<polygon fill="#666666" stroke="#666666" points="32.5,-605 32.5,-605 94.5,-605 94.5,-605 32.5,-605"/>
<polygon fill="#666666" stroke="#666666" points="32.5,-589 32.5,-589 94.5,-589 94.5,-589 32.5,-589"/>
<polygon fill="none" stroke="#666666" points="32.5,-571 32.5,-623 94.5,-623 94.5,-571 32.5,-571"/>
</a>
</g>
</g>
<!-- Node3&#45;&gt;Node2 -->
<g id="edge2_Node000002_Node000003" class="edge">
<title>Node3&#45;&gt;Node2</title>
<g id="a_edge2_Node000002_Node000003"><a xlink:title=" ">
<path fill="none" stroke="#63b8ff" d="M63.5,-571.27C63.5,-546.08 63.5,-504.95 63.5,-463.62"/>
<polygon fill="none" stroke="#63b8ff" points="63.5,-463.7 59.5,-457.7 63.5,-451.7 67.5,-457.7 63.5,-463.7"/>
</a>
</g>
<text text-anchor="middle" x="90.12" y="-543.5" font-family="Helvetica,sans-Serif" font-size="10.00" fill="grey"> +author</text>
<text text-anchor="middle" x="90.12" y="-531.5" font-family="Helvetica,sans-Serif" font-size="10.00" fill="grey">+description</text>
<text text-anchor="middle" x="90.12" y="-519.5" font-family="Helvetica,sans-Serif" font-size="10.00" fill="grey">+id</text>
<text text-anchor="middle" x="90.12" y="-507.5" font-family="Helvetica,sans-Serif" font-size="10.00" fill="grey">+mversion</text>
<text text-anchor="middle" x="90.12" y="-495.5" font-family="Helvetica,sans-Serif" font-size="10.00" fill="grey">+name</text>
<text text-anchor="middle" x="90.12" y="-483.5" font-family="Helvetica,sans-Serif" font-size="10.00" fill="grey">+time</text>
<text text-anchor="middle" x="90.12" y="-471.5" font-family="Helvetica,sans-Serif" font-size="10.00" fill="grey">+version</text>
</g>
<!-- Node4 -->
<g id="Node000004" class="node">
<title>Node4</title>
<g id="a_Node000004"><a xlink:title=" ">
<polygon fill="white" stroke="none" points="244,-359 145,-359 145,-295 244,-295 244,-359"/>
<text text-anchor="start" x="149.88" y="-345.5" font-family="Helvetica,sans-Serif" font-size="10.00">unique_ptr&lt; MiraiCP</text>
<text text-anchor="start" x="163" y="-333.5" font-family="Helvetica,sans-Serif" font-size="10.00">::CPPPlugin &gt;</text>
<text text-anchor="start" x="193" y="-317.5" font-family="Helvetica,sans-Serif" font-size="10.00"> </text>
<text text-anchor="start" x="193" y="-301.5" font-family="Helvetica,sans-Serif" font-size="10.00"> </text>
<polygon fill="#666666" stroke="#666666" points="145,-329 145,-329 244,-329 244,-329 145,-329"/>
<polygon fill="#666666" stroke="#666666" points="145,-313 145,-313 244,-313 244,-313 145,-313"/>
<polygon fill="none" stroke="#666666" points="145,-295 145,-359 244,-359 244,-295 145,-295"/>
</a>
</g>
</g>
<!-- Node4&#45;&gt;Node1 -->
<g id="edge3_Node000001_Node000004" class="edge">
<title>Node4&#45;&gt;Node1</title>
<g id="a_edge3_Node000001_Node000004"><a xlink:title=" ">
<path fill="none" stroke="#63b8ff" d="M190.39,-295.15C186.14,-263.3 179.31,-212.09 173.36,-167.46"/>
<polygon fill="none" stroke="#63b8ff" points="173.37,-167.55 168.62,-162.13 171.79,-155.66 176.55,-161.08 173.37,-167.55"/>
</a>
</g>
<text text-anchor="middle" x="191.75" y="-175.5" font-family="Helvetica,sans-Serif" font-size="10.00" fill="grey"> +plugin</text>
</g>
</g>
</svg>
