<?xml version="1.0" encoding="UTF-8" standalone="no"?>
<!DOCTYPE svg PUBLIC "-//W3C//DTD SVG 1.1//EN"
 "http://www.w3.org/Graphics/SVG/1.1/DTD/svg11.dtd">
<!-- Generated by graphviz version 9.0.0 (0)
 -->
<!-- Title: LibLoader::CASStrong Pages: 1 -->
<svg width="415pt" height="40pt"
 viewBox="0.00 0.00 414.50 40.00" xmlns="http://www.w3.org/2000/svg" xmlns:xlink="http://www.w3.org/1999/xlink">
<g id="graph0" class="graph" transform="scale(1 1) rotate(0) translate(4 36)">
<title>LibLoader::CASStrong</title>
<!-- Node1 -->
<g id="Node000001" class="node">
<title>Node1</title>
<g id="a_Node000001"><a xlink:title=" ">
<polygon fill="#999999" stroke="#666666" points="406.5,-26 293,-26 293,-6 406.5,-6 406.5,-26"/>
<text text-anchor="middle" x="349.75" y="-12.5" font-family="Helvetica,sans-Serif" font-size="10.00">LibLoader::CASStrong</text>
</a>
</g>
</g>
<!-- Node2 -->
<g id="Node000002" class="node">
<title>Node2</title>
<g id="a_Node000002"><a xlink:href="a00425.html#a404fe153b293b8220f6737f1ab530246" target="_top" xlink:title=" ">
<polygon fill="white" stroke="#666666" points="257,-26 133,-26 133,-6 257,-6 257,-26"/>
<text text-anchor="middle" x="195" y="-12.5" font-family="Helvetica,sans-Serif" font-size="10.00">LibLoader::formatInternal</text>
</a>
</g>
</g>
<!-- Node1&#45;&gt;Node2 -->
<g id="edge1_Node000001_Node000002" class="edge">
<title>Node1&#45;&gt;Node2</title>
<g id="a_edge1_Node000001_Node000002"><a xlink:title=" ">
<path fill="none" stroke="#63b8ff" d="M281.25,-16C273.32,-16 265.26,-16 257.41,-16"/>
<polygon fill="#63b8ff" stroke="#63b8ff" points="281.23,-19.5 291.23,-16 281.23,-12.5 281.23,-19.5"/>
</a>
</g>
</g>
<!-- Node3 -->
<g id="Node000003" class="node">
<title>Node3</title>
<g id="a_Node000003"><a xlink:href="a00916.html#a805e0c15cb3e5d2fbd8809e075c8d104" target="_top" xlink:title=" ">
<polygon fill="white" stroke="#666666" points="97,-32 0,-32 0,0 97,0 97,-32"/>
<text text-anchor="start" x="8" y="-18.5" font-family="Helvetica,sans-Serif" font-size="10.00">LibLoader::Plugin::</text>
<text text-anchor="middle" x="48.5" y="-6.5" font-family="Helvetica,sans-Serif" font-size="10.00">formatTo</text>
</a>
</g>
</g>
<!-- Node2&#45;&gt;Node3 -->
<g id="edge2_Node000002_Node000003" class="edge">
<title>Node2&#45;&gt;Node3</title>
<g id="a_edge2_Node000002_Node000003"><a xlink:title=" ">
<path fill="none" stroke="#63b8ff" d="M121.26,-16C113.12,-16 104.99,-16 97.29,-16"/>
<polygon fill="#63b8ff" stroke="#63b8ff" points="121.21,-19.5 131.21,-16 121.21,-12.5 121.21,-19.5"/>
</a>
</g>
</g>
</g>
</svg>
