<?xml version="1.0" encoding="UTF-8" standalone="no"?>
<!DOCTYPE svg PUBLIC "-//W3C//DTD SVG 1.1//EN"
 "http://www.w3.org/Graphics/SVG/1.1/DTD/svg11.dtd">
<!-- Generated by graphviz version 2.50.0 (20211204.2007)
 -->
<!-- Title: MiraiCP::Contact::unpackQuote Pages: 1 -->
<svg width="1807pt" height="274pt"
 viewBox="0.00 0.00 1807.00 274.00" xmlns="http://www.w3.org/2000/svg" xmlns:xlink="http://www.w3.org/1999/xlink">
<g id="graph0" class="graph" transform="scale(1 1) rotate(0) translate(4 270)">
<title>MiraiCP::Contact::unpackQuote</title>
<polygon fill="white" stroke="transparent" points="-4,4 -4,-270 1803,-270 1803,4 -4,4"/>
<!-- Node1 -->
<g id="node1" class="node">
<title>Node1</title>
<g id="a_node1"><a xlink:title=" ">
<polygon fill="#bfbfbf" stroke="black" points="0,-44.5 0,-74.5 128,-74.5 128,-44.5 0,-44.5"/>
<text text-anchor="start" x="8" y="-62.5" font-family="Helvetica,sans-Serif" font-size="10.00">MiraiCP::Contact::unpack</text>
<text text-anchor="middle" x="64" y="-51.5" font-family="Helvetica,sans-Serif" font-size="10.00">Quote</text>
</a>
</g>
</g>
<!-- Node2 -->
<g id="node2" class="node">
<title>Node2</title>
<g id="a_node2"><a xlink:href="a00445.html#aee1b53cae7cec3e1d65daa3d23625223" target="_top" xlink:title=" ">
<polygon fill="white" stroke="black" points="164,-88.5 164,-118.5 302,-118.5 302,-88.5 164,-88.5"/>
<text text-anchor="start" x="172" y="-106.5" font-family="Helvetica,sans-Serif" font-size="10.00">MiraiCP::Contact::quoteAnd</text>
<text text-anchor="middle" x="233" y="-95.5" font-family="Helvetica,sans-Serif" font-size="10.00">SendImpl</text>
</a>
</g>
</g>
<!-- Node1&#45;&gt;Node2 -->
<g id="edge1" class="edge">
<title>Node1&#45;&gt;Node2</title>
<path fill="none" stroke="midnightblue" d="M122,-74.52C135.9,-78.18 150.89,-82.13 165.2,-85.9"/>
<polygon fill="midnightblue" stroke="midnightblue" points="164.41,-89.31 174.97,-88.47 166.19,-82.54 164.41,-89.31"/>
</g>
<!-- Node21 -->
<g id="node21" class="node">
<title>Node21</title>
<g id="a_node21"><a xlink:href="a00633.html#a281c3d583cd554e89ad2aa2286435bca" target="_top" xlink:title=" ">
<polygon fill="white" stroke="black" points="172,-20.5 172,-50.5 294,-50.5 294,-20.5 172,-20.5"/>
<text text-anchor="start" x="180" y="-38.5" font-family="Helvetica,sans-Serif" font-size="10.00">MiraiCP::MessageChain</text>
<text text-anchor="middle" x="233" y="-27.5" font-family="Helvetica,sans-Serif" font-size="10.00">::toString</text>
</a>
</g>
</g>
<!-- Node1&#45;&gt;Node21 -->
<g id="edge24" class="edge">
<title>Node1&#45;&gt;Node21</title>
<path fill="none" stroke="midnightblue" d="M128.14,-50.43C139.1,-48.85 150.56,-47.2 161.7,-45.6"/>
<polygon fill="midnightblue" stroke="midnightblue" points="162.41,-49.04 171.81,-44.15 161.41,-42.11 162.41,-49.04"/>
</g>
<!-- Node3 -->
<g id="node3" class="node">
<title>Node3</title>
<g id="a_node3"><a xlink:href="a00637.html#a1f98db6bbdf6b7d178bf92f55fd2e4dc" target="_top" xlink:title="从json字符串反序列化到MessageSource对象">
<polygon fill="white" stroke="black" points="338,-186.5 338,-216.5 466,-216.5 466,-186.5 338,-186.5"/>
<text text-anchor="start" x="346" y="-204.5" font-family="Helvetica,sans-Serif" font-size="10.00">MiraiCP::MessageSource</text>
<text text-anchor="middle" x="402" y="-193.5" font-family="Helvetica,sans-Serif" font-size="10.00">::deserializeFromString</text>
</a>
</g>
</g>
<!-- Node2&#45;&gt;Node3 -->
<g id="edge2" class="edge">
<title>Node2&#45;&gt;Node3</title>
<path fill="none" stroke="midnightblue" d="M252.23,-118.66C272.29,-134.81 305.95,-160.36 338,-177.5 341.09,-179.15 344.31,-180.74 347.6,-182.27"/>
<polygon fill="midnightblue" stroke="midnightblue" points="346.41,-185.57 356.98,-186.38 349.23,-179.16 346.41,-185.57"/>
</g>
<!-- Node7 -->
<g id="node7" class="node">
<title>Node7</title>
<g id="a_node7"><a xlink:href="a00412.html#a309e8d7f316e8b5e947ea3bcddeb84a8" target="_top" xlink:title="调用 Mirai 操作">
<polygon fill="white" stroke="black" points="347.5,-137.5 347.5,-167.5 456.5,-167.5 456.5,-137.5 347.5,-137.5"/>
<text text-anchor="start" x="355.5" y="-155.5" font-family="Helvetica,sans-Serif" font-size="10.00">MiraiCP::KtOperation</text>
<text text-anchor="middle" x="402" y="-144.5" font-family="Helvetica,sans-Serif" font-size="10.00">::ktOperation</text>
</a>
</g>
</g>
<!-- Node2&#45;&gt;Node7 -->
<g id="edge6" class="edge">
<title>Node2&#45;&gt;Node7</title>
<path fill="none" stroke="midnightblue" d="M285.47,-118.6C302.69,-123.66 322.06,-129.34 339.94,-134.58"/>
<polygon fill="midnightblue" stroke="midnightblue" points="339.12,-137.99 349.7,-137.45 341.09,-131.27 339.12,-137.99"/>
</g>
<!-- Node19 -->
<g id="node19" class="node">
<title>Node19</title>
<g id="a_node19"><a xlink:href="a00637.html#aca51487498128b420019182e1331a282" target="_top" xlink:title=" ">
<polygon fill="white" stroke="black" points="338,-88.5 338,-118.5 466,-118.5 466,-88.5 338,-88.5"/>
<text text-anchor="start" x="346" y="-106.5" font-family="Helvetica,sans-Serif" font-size="10.00">MiraiCP::MessageSource</text>
<text text-anchor="middle" x="402" y="-95.5" font-family="Helvetica,sans-Serif" font-size="10.00">::serializeToString</text>
</a>
</g>
</g>
<!-- Node2&#45;&gt;Node19 -->
<g id="edge22" class="edge">
<title>Node2&#45;&gt;Node19</title>
<path fill="none" stroke="midnightblue" d="M302.41,-103.5C310.73,-103.5 319.26,-103.5 327.66,-103.5"/>
<polygon fill="midnightblue" stroke="midnightblue" points="327.8,-107 337.8,-103.5 327.8,-100 327.8,-107"/>
</g>
<!-- Node20 -->
<g id="node20" class="node">
<title>Node20</title>
<g id="a_node20"><a xlink:href="a00445.html#a89fb588a12ff2d4de10722788945ea55" target="_top" xlink:title="序列化到json对象">
<polygon fill="white" stroke="black" points="339.5,-50 339.5,-69 464.5,-69 464.5,-50 339.5,-50"/>
<text text-anchor="middle" x="402" y="-57" font-family="Helvetica,sans-Serif" font-size="10.00">MiraiCP::Contact::toJson</text>
</a>
</g>
</g>
<!-- Node2&#45;&gt;Node20 -->
<g id="edge23" class="edge">
<title>Node2&#45;&gt;Node20</title>
<path fill="none" stroke="midnightblue" d="M291,-88.48C311.86,-82.99 335.17,-76.84 354.95,-71.63"/>
<polygon fill="midnightblue" stroke="midnightblue" points="355.87,-75.01 364.65,-69.08 354.08,-68.24 355.87,-75.01"/>
</g>
<!-- Node4 -->
<g id="node4" class="node">
<title>Node4</title>
<g id="a_node4"><a xlink:href="a00609.html#af14d39efa300da183070784bc86d3f23" target="_top" xlink:title="发送错误(error级日志)">
<polygon fill="white" stroke="black" points="502,-186.5 502,-216.5 630,-216.5 630,-186.5 502,-186.5"/>
<text text-anchor="start" x="510" y="-204.5" font-family="Helvetica,sans-Serif" font-size="10.00">MiraiCP::Logger_interface</text>
<text text-anchor="middle" x="566" y="-193.5" font-family="Helvetica,sans-Serif" font-size="10.00">::error</text>
</a>
</g>
</g>
<!-- Node3&#45;&gt;Node4 -->
<g id="edge3" class="edge">
<title>Node3&#45;&gt;Node4</title>
<path fill="none" stroke="midnightblue" d="M466.1,-201.5C474.43,-201.5 483.04,-201.5 491.53,-201.5"/>
<polygon fill="midnightblue" stroke="midnightblue" points="491.81,-205 501.81,-201.5 491.81,-198 491.81,-205"/>
</g>
<!-- Node5 -->
<g id="node5" class="node">
<title>Node5</title>
<g id="a_node5"><a xlink:href="a00609.html#a98af60f864a0446e23a7a27a3419d9b8" target="_top" xlink:title=" ">
<polygon fill="white" stroke="black" points="666,-235.5 666,-265.5 794,-265.5 794,-235.5 666,-235.5"/>
<text text-anchor="start" x="674" y="-253.5" font-family="Helvetica,sans-Serif" font-size="10.00">MiraiCP::Logger_interface</text>
<text text-anchor="middle" x="730" y="-242.5" font-family="Helvetica,sans-Serif" font-size="10.00">::constructString</text>
</a>
</g>
</g>
<!-- Node4&#45;&gt;Node5 -->
<g id="edge4" class="edge">
<title>Node4&#45;&gt;Node5</title>
<path fill="none" stroke="midnightblue" d="M616.93,-216.6C633.48,-221.61 652.07,-227.23 669.29,-232.44"/>
<polygon fill="midnightblue" stroke="midnightblue" points="668.65,-235.9 679.24,-235.45 670.68,-229.2 668.65,-235.9"/>
</g>
<!-- Node6 -->
<g id="node6" class="node">
<title>Node6</title>
<g id="a_node6"><a xlink:href="a00609.html#a86ea9d57475a3004be2a32b2c4c76371" target="_top" xlink:title="日志底层实现封装">
<polygon fill="white" stroke="black" points="666,-186.5 666,-216.5 794,-216.5 794,-186.5 666,-186.5"/>
<text text-anchor="start" x="674" y="-204.5" font-family="Helvetica,sans-Serif" font-size="10.00">MiraiCP::Logger_interface</text>
<text text-anchor="middle" x="730" y="-193.5" font-family="Helvetica,sans-Serif" font-size="10.00">::log_interface</text>
</a>
</g>
</g>
<!-- Node4&#45;&gt;Node6 -->
<g id="edge5" class="edge">
<title>Node4&#45;&gt;Node6</title>
<path fill="none" stroke="midnightblue" d="M630.1,-201.5C638.43,-201.5 647.04,-201.5 655.53,-201.5"/>
<polygon fill="midnightblue" stroke="midnightblue" points="655.81,-205 665.81,-201.5 655.81,-198 655.81,-205"/>
</g>
<!-- Node8 -->
<g id="node8" class="node">
<title>Node8</title>
<g id="a_node8"><a xlink:href="a00412.html#a1e1e498928eeaa1d7107033ff5fa881a" target="_top" xlink:title="调用 Mirai 操作">
<polygon fill="white" stroke="black" points="511.5,-137.5 511.5,-167.5 620.5,-167.5 620.5,-137.5 511.5,-137.5"/>
<text text-anchor="start" x="519.5" y="-155.5" font-family="Helvetica,sans-Serif" font-size="10.00">MiraiCP::KtOperation</text>
<text text-anchor="middle" x="566" y="-144.5" font-family="Helvetica,sans-Serif" font-size="10.00">::ktOperationStr</text>
</a>
</g>
</g>
<!-- Node7&#45;&gt;Node8 -->
<g id="edge7" class="edge">
<title>Node7&#45;&gt;Node8</title>
<path fill="none" stroke="midnightblue" d="M456.94,-152.5C471.15,-152.5 486.62,-152.5 501.29,-152.5"/>
<polygon fill="midnightblue" stroke="midnightblue" points="501.29,-156 511.29,-152.5 501.29,-149 501.29,-156"/>
</g>
<!-- Node9 -->
<g id="node9" class="node">
<title>Node9</title>
<g id="a_node9"><a xlink:href="a00405.html#a89b345ec37278655b8f02d07dbb3c882" target="_top" xlink:title="interfaces for plugins">
<polygon fill="white" stroke="black" points="676,-137.5 676,-167.5 784,-167.5 784,-137.5 676,-137.5"/>
<text text-anchor="start" x="684" y="-155.5" font-family="Helvetica,sans-Serif" font-size="10.00">LibLoader::LoaderApi</text>
<text text-anchor="middle" x="730" y="-144.5" font-family="Helvetica,sans-Serif" font-size="10.00">::pluginOperation</text>
</a>
</g>
</g>
<!-- Node8&#45;&gt;Node9 -->
<g id="edge8" class="edge">
<title>Node8&#45;&gt;Node9</title>
<path fill="none" stroke="midnightblue" d="M620.94,-152.5C635.3,-152.5 650.94,-152.5 665.75,-152.5"/>
<polygon fill="midnightblue" stroke="midnightblue" points="665.84,-156 675.84,-152.5 665.84,-149 665.84,-156"/>
</g>
<!-- Node10 -->
<g id="node10" class="node">
<title>Node10</title>
<g id="a_node10"><a xlink:href="a00737.html#ab263deade385e7b5de856d061c6027e9" target="_top" xlink:title=" ">
<polygon fill="white" stroke="black" points="830,-200.5 830,-230.5 947,-230.5 947,-200.5 830,-200.5"/>
<text text-anchor="start" x="838" y="-218.5" font-family="Helvetica,sans-Serif" font-size="10.00">MiraiCP::MiraiCPString</text>
<text text-anchor="middle" x="888.5" y="-207.5" font-family="Helvetica,sans-Serif" font-size="10.00">::copyToCharPtr</text>
</a>
</g>
</g>
<!-- Node9&#45;&gt;Node10 -->
<g id="edge9" class="edge">
<title>Node9&#45;&gt;Node10</title>
<path fill="none" stroke="midnightblue" d="M769,-167.52C777.25,-170.8 785.92,-174.25 794,-177.5 809.34,-183.66 826.07,-190.44 841.08,-196.55"/>
<polygon fill="midnightblue" stroke="midnightblue" points="840.09,-199.92 850.67,-200.45 842.73,-193.44 840.09,-199.92"/>
</g>
<!-- Node11 -->
<g id="node11" class="node">
<title>Node11</title>
<g id="a_node11"><a xlink:href="a00773.html#aea7d58ff9f04d6d4849c25a2506603a5" target="_top" xlink:title="取env,如果不存在重新获取">
<polygon fill="white" stroke="black" points="1436,-124 1436,-143 1555,-143 1555,-124 1436,-124"/>
<text text-anchor="middle" x="1495.5" y="-131" font-family="Helvetica,sans-Serif" font-size="10.00">JNIEnvManager::getEnv</text>
</a>
</g>
</g>
<!-- Node9&#45;&gt;Node11 -->
<g id="edge10" class="edge">
<title>Node9&#45;&gt;Node11</title>
<path fill="none" stroke="midnightblue" d="M784.02,-157.69C846.14,-163.32 952.19,-171.5 1043.5,-171.5 1043.5,-171.5 1043.5,-171.5 1204.5,-171.5 1286.89,-171.5 1381.34,-156.23 1439.46,-145.05"/>
<polygon fill="midnightblue" stroke="midnightblue" points="1440.39,-148.44 1449.53,-143.09 1439.05,-141.57 1440.39,-148.44"/>
</g>
<!-- Node14 -->
<g id="node14" class="node">
<title>Node14</title>
<g id="a_node14"><a xlink:href="a00404.html#aa5f8d0ecd9dd392b491070aace643ae3" target="_top" xlink:title=" ">
<polygon fill="white" stroke="black" points="991,-124 991,-143 1098,-143 1098,-124 991,-124"/>
<text text-anchor="middle" x="1044.5" y="-131" font-family="Helvetica,sans-Serif" font-size="10.00">LibLoader::jstring2str</text>
</a>
</g>
</g>
<!-- Node9&#45;&gt;Node14 -->
<g id="edge13" class="edge">
<title>Node9&#45;&gt;Node14</title>
<path fill="none" stroke="midnightblue" d="M784.01,-149.28C838.39,-145.97 922.95,-140.83 980.66,-137.32"/>
<polygon fill="midnightblue" stroke="midnightblue" points="980.98,-140.81 990.75,-136.71 980.56,-133.82 980.98,-140.81"/>
</g>
<!-- Node16 -->
<g id="node16" class="node">
<title>Node16</title>
<g id="a_node16"><a xlink:href="a00404.html#a6a6fcd695791253a9b3a053d313b2b93" target="_top" xlink:title=" ">
<polygon fill="white" stroke="black" points="835,-64 835,-83 942,-83 942,-64 835,-64"/>
<text text-anchor="middle" x="888.5" y="-71" font-family="Helvetica,sans-Serif" font-size="10.00">LibLoader::str2jstring</text>
</a>
</g>
</g>
<!-- Node9&#45;&gt;Node16 -->
<g id="edge16" class="edge">
<title>Node9&#45;&gt;Node16</title>
<path fill="none" stroke="midnightblue" d="M760.8,-137.45C789.21,-123.12 831.64,-101.7 859.45,-87.66"/>
<polygon fill="midnightblue" stroke="midnightblue" points="861.28,-90.66 868.63,-83.03 858.12,-84.41 861.28,-90.66"/>
</g>
<!-- Node12 -->
<g id="node12" class="node">
<title>Node12</title>
<g id="a_node12"><a xlink:href="a00203.html#a3d31403b7971274d47d308245206bd24" target="_top" xlink:title="为当前线程创建一个env.">
<polygon fill="white" stroke="black" points="1591,-124 1591,-143 1641,-143 1641,-124 1591,-124"/>
<text text-anchor="middle" x="1616" y="-131" font-family="Helvetica,sans-Serif" font-size="10.00">newEnv</text>
</a>
</g>
</g>
<!-- Node11&#45;&gt;Node12 -->
<g id="edge11" class="edge">
<title>Node11&#45;&gt;Node12</title>
<path fill="none" stroke="midnightblue" d="M1555.06,-133.5C1563.89,-133.5 1572.75,-133.5 1580.85,-133.5"/>
<polygon fill="midnightblue" stroke="midnightblue" points="1580.98,-137 1590.98,-133.5 1580.98,-130 1580.98,-137"/>
</g>
<!-- Node13 -->
<g id="node13" class="node">
<title>Node13</title>
<g id="a_node13"><a xlink:href="a00773.html#ae0e482c6a813848a8f5d34957d1b6307" target="_top" xlink:title="获取全局JavaVM对象.">
<polygon fill="white" stroke="black" points="1677,-124 1677,-143 1799,-143 1799,-124 1677,-124"/>
<text text-anchor="middle" x="1738" y="-131" font-family="Helvetica,sans-Serif" font-size="10.00">JNIEnvManager::getGvm</text>
</a>
</g>
</g>
<!-- Node12&#45;&gt;Node13 -->
<g id="edge12" class="edge">
<title>Node12&#45;&gt;Node13</title>
<path fill="none" stroke="midnightblue" d="M1641.28,-133.5C1648.75,-133.5 1657.37,-133.5 1666.32,-133.5"/>
<polygon fill="midnightblue" stroke="midnightblue" points="1666.52,-137 1676.52,-133.5 1666.52,-130 1666.52,-137"/>
</g>
<!-- Node15 -->
<g id="node15" class="node">
<title>Node15</title>
<g id="a_node15"><a xlink:href="a00409.html#a076c5f4ff8083c7cfc6523498d0ba30f" target="_top" xlink:title=" ">
<polygon fill="white" stroke="black" points="1301,-96.5 1301,-126.5 1400,-126.5 1400,-96.5 1301,-96.5"/>
<text text-anchor="start" x="1309" y="-114.5" font-family="Helvetica,sans-Serif" font-size="10.00">LibLoader::JNIEnvs</text>
<text text-anchor="middle" x="1350.5" y="-103.5" font-family="Helvetica,sans-Serif" font-size="10.00">::getEnv</text>
</a>
</g>
</g>
<!-- Node14&#45;&gt;Node15 -->
<g id="edge14" class="edge">
<title>Node14&#45;&gt;Node15</title>
<path fill="none" stroke="midnightblue" d="M1098.11,-129.69C1151.7,-125.81 1234.65,-119.81 1290.46,-115.77"/>
<polygon fill="midnightblue" stroke="midnightblue" points="1290.83,-119.26 1300.55,-115.04 1290.32,-112.27 1290.83,-119.26"/>
</g>
<!-- Node15&#45;&gt;Node11 -->
<g id="edge15" class="edge">
<title>Node15&#45;&gt;Node11</title>
<path fill="none" stroke="midnightblue" d="M1400.31,-119.01C1408.51,-120.27 1417.16,-121.6 1425.75,-122.92"/>
<polygon fill="midnightblue" stroke="midnightblue" points="1425.36,-126.4 1435.78,-124.47 1426.43,-119.49 1425.36,-126.4"/>
</g>
<!-- Node16&#45;&gt;Node15 -->
<g id="edge17" class="edge">
<title>Node16&#45;&gt;Node15</title>
<path fill="none" stroke="midnightblue" d="M942.27,-77.86C1028.84,-85.01 1200.43,-99.19 1290.75,-106.65"/>
<polygon fill="midnightblue" stroke="midnightblue" points="1290.57,-110.14 1300.82,-107.48 1291.14,-103.17 1290.57,-110.14"/>
</g>
<!-- Node17 -->
<g id="node17" class="node">
<title>Node17</title>
<g id="a_node17"><a xlink:href="a00805.html#af50d0545fe7d683e54fcd03453a423e3" target="_top" xlink:title=" ">
<polygon fill="white" stroke="black" points="983,-36.5 983,-66.5 1106,-66.5 1106,-36.5 983,-36.5"/>
<text text-anchor="start" x="991" y="-54.5" font-family="Helvetica,sans-Serif" font-size="10.00">LibLoader::LoaderLogger</text>
<text text-anchor="middle" x="1044.5" y="-43.5" font-family="Helvetica,sans-Serif" font-size="10.00">::warning</text>
</a>
</g>
</g>
<!-- Node16&#45;&gt;Node17 -->
<g id="edge18" class="edge">
<title>Node16&#45;&gt;Node17</title>
<path fill="none" stroke="midnightblue" d="M942.07,-65.99C952.04,-64.57 962.62,-63.05 973.04,-61.57"/>
<polygon fill="midnightblue" stroke="midnightblue" points="973.55,-65.03 982.95,-60.15 972.56,-58.1 973.55,-65.03"/>
</g>
<!-- Node18 -->
<g id="node18" class="node">
<title>Node18</title>
<g id="a_node18"><a xlink:href="a00805.html#af4d7d5164450e25f7401d1cc15f15b8d" target="_top" xlink:title="实际暴露的接口">
<polygon fill="white" stroke="black" points="1142,-36.5 1142,-66.5 1265,-66.5 1265,-36.5 1142,-36.5"/>
<text text-anchor="start" x="1150" y="-54.5" font-family="Helvetica,sans-Serif" font-size="10.00">LibLoader::LoaderLogger</text>
<text text-anchor="middle" x="1203.5" y="-43.5" font-family="Helvetica,sans-Serif" font-size="10.00">::call_logger</text>
</a>
</g>
</g>
<!-- Node17&#45;&gt;Node18 -->
<g id="edge19" class="edge">
<title>Node17&#45;&gt;Node18</title>
<path fill="none" stroke="midnightblue" d="M1106.2,-51.5C1114.64,-51.5 1123.36,-51.5 1131.95,-51.5"/>
<polygon fill="midnightblue" stroke="midnightblue" points="1131.96,-55 1141.96,-51.5 1131.96,-48 1131.96,-55"/>
</g>
<!-- Node18&#45;&gt;Node15 -->
<g id="edge20" class="edge">
<title>Node18&#45;&gt;Node15</title>
<path fill="none" stroke="midnightblue" d="M1241.09,-66.64C1260.14,-74.52 1283.61,-84.24 1303.84,-92.61"/>
<polygon fill="midnightblue" stroke="midnightblue" points="1302.6,-95.88 1313.17,-96.47 1305.27,-89.41 1302.6,-95.88"/>
</g>
<!-- Node18&#45;&gt;Node16 -->
<g id="edge21" class="edge">
<title>Node18&#45;&gt;Node16</title>
<path fill="none" stroke="midnightblue" d="M1153.97,-36.49C1109.11,-24.84 1040.84,-12.78 983,-26.5 956.99,-32.67 929.99,-47.27 911.73,-58.58"/>
<polygon fill="midnightblue" stroke="midnightblue" points="909.83,-55.64 903.27,-63.97 913.59,-61.55 909.83,-55.64"/>
</g>
<!-- Node22 -->
<g id="node22" class="node">
<title>Node22</title>
<g id="a_node22"><a xlink:href="a00633.html#a49c9f029880bf1948cdf22cee341a09a" target="_top" xlink:title=" ">
<polygon fill="white" stroke="black" points="341,-0.5 341,-30.5 463,-30.5 463,-0.5 341,-0.5"/>
<text text-anchor="start" x="349" y="-18.5" font-family="Helvetica,sans-Serif" font-size="10.00">MiraiCP::MessageChain</text>
<text text-anchor="middle" x="402" y="-7.5" font-family="Helvetica,sans-Serif" font-size="10.00">::toJson</text>
</a>
</g>
</g>
<!-- Node21&#45;&gt;Node22 -->
<g id="edge25" class="edge">
<title>Node21&#45;&gt;Node22</title>
<path fill="none" stroke="midnightblue" d="M294.29,-28.28C306.12,-26.86 318.61,-25.37 330.73,-23.92"/>
<polygon fill="midnightblue" stroke="midnightblue" points="331.28,-27.37 340.8,-22.71 330.45,-20.42 331.28,-27.37"/>
</g>
</g>
</svg>
