<?xml version="1.0" encoding="UTF-8" standalone="no"?>
<!DOCTYPE svg PUBLIC "-//W3C//DTD SVG 1.1//EN"
 "http://www.w3.org/Graphics/SVG/1.1/DTD/svg11.dtd">
<!-- Generated by graphviz version 9.0.0 (0)
 -->
<!-- Title: LibLoader::JNIEnvs::initializeMiraiCPLoader Pages: 1 -->
<svg width="836pt" height="90pt"
 viewBox="0.00 0.00 836.00 90.00" xmlns="http://www.w3.org/2000/svg" xmlns:xlink="http://www.w3.org/1999/xlink">
<g id="graph0" class="graph" transform="scale(1 1) rotate(0) translate(4 86)">
<title>LibLoader::JNIEnvs::initializeMiraiCPLoader</title>
<!-- Node1 -->
<g id="Node000001" class="node">
<title>Node1</title>
<g id="a_Node000001"><a xlink:title=" ">
<polygon fill="#999999" stroke="#666666" points="121.75,-57 0,-57 0,-25 121.75,-25 121.75,-57"/>
<text text-anchor="start" x="8" y="-43.5" font-family="Helvetica,sans-Serif" font-size="10.00">LibLoader::JNIEnvs</text>
<text text-anchor="middle" x="60.88" y="-31.5" font-family="Helvetica,sans-Serif" font-size="10.00">::initializeMiraiCPLoader</text>
</a>
</g>
</g>
<!-- Node2 -->
<g id="Node000002" class="node">
<title>Node2</title>
<g id="a_Node000002"><a xlink:href="a00872.html#a666e05995de50742a39702dacf3dcbd7" target="_top" xlink:title=" ">
<polygon fill="white" stroke="#666666" points="280.25,-82 157.75,-82 157.75,-50 280.25,-50 280.25,-82"/>
<text text-anchor="start" x="165.75" y="-68.5" font-family="Helvetica,sans-Serif" font-size="10.00">LibLoader::LoaderLogger</text>
<text text-anchor="middle" x="219" y="-56.5" font-family="Helvetica,sans-Serif" font-size="10.00">::init</text>
</a>
</g>
</g>
<!-- Node1&#45;&gt;Node2 -->
<g id="edge1_Node000001_Node000002" class="edge">
<title>Node1&#45;&gt;Node2</title>
<g id="a_edge1_Node000001_Node000002"><a xlink:title=" ">
<path fill="none" stroke="#63b8ff" d="M122.24,-50.67C130.05,-51.92 138.12,-53.21 146.1,-54.49"/>
<polygon fill="#63b8ff" stroke="#63b8ff" points="145.36,-57.91 155.79,-56.04 146.47,-51 145.36,-57.91"/>
</a>
</g>
</g>
<!-- Node7 -->
<g id="Node000007" class="node">
<title>Node7</title>
<g id="a_Node000007"><a xlink:href="a00430.html#a82bb86ad9d77529b3a6e03364ab365f2" target="_top" xlink:title=" ">
<polygon fill="white" stroke="#666666" points="270.12,-32 167.88,-32 167.88,0 270.12,0 270.12,-32"/>
<text text-anchor="start" x="175.88" y="-18.5" font-family="Helvetica,sans-Serif" font-size="10.00">LibLoader::JNIEnvs</text>
<text text-anchor="middle" x="219" y="-6.5" font-family="Helvetica,sans-Serif" font-size="10.00">::loadConfigClass</text>
</a>
</g>
</g>
<!-- Node1&#45;&gt;Node7 -->
<g id="edge6_Node000001_Node000007" class="edge">
<title>Node1&#45;&gt;Node7</title>
<g id="a_edge6_Node000001_Node000007"><a xlink:title=" ">
<path fill="none" stroke="#63b8ff" d="M122.24,-31.33C133.43,-29.54 145.15,-27.67 156.38,-25.87"/>
<polygon fill="#63b8ff" stroke="#63b8ff" points="156.6,-29.38 165.93,-24.34 155.5,-22.46 156.6,-29.38"/>
</a>
</g>
</g>
<!-- Node3 -->
<g id="Node000003" class="node">
<title>Node3</title>
<g id="a_Node000003"><a xlink:href="a00430.html#a076c5f4ff8083c7cfc6523498d0ba30f" target="_top" xlink:title=" ">
<polygon fill="white" stroke="#666666" points="418.5,-57 316.25,-57 316.25,-25 418.5,-25 418.5,-57"/>
<text text-anchor="start" x="324.25" y="-43.5" font-family="Helvetica,sans-Serif" font-size="10.00">LibLoader::JNIEnvs</text>
<text text-anchor="middle" x="367.38" y="-31.5" font-family="Helvetica,sans-Serif" font-size="10.00">::getEnv</text>
</a>
</g>
</g>
<!-- Node2&#45;&gt;Node3 -->
<g id="edge2_Node000002_Node000003" class="edge">
<title>Node2&#45;&gt;Node3</title>
<g id="a_edge2_Node000002_Node000003"><a xlink:title=" ">
<path fill="none" stroke="#63b8ff" d="M280.38,-55.69C288.41,-54.32 296.65,-52.91 304.7,-51.53"/>
<polygon fill="#63b8ff" stroke="#63b8ff" points="305.15,-55.01 314.42,-49.87 303.98,-48.11 305.15,-55.01"/>
</a>
</g>
</g>
<!-- Node4 -->
<g id="Node000004" class="node">
<title>Node4</title>
<g id="a_Node000004"><a xlink:href="a00840.html#aea7d58ff9f04d6d4849c25a2506603a5" target="_top" xlink:title="取env,如果不存在重新获取">
<polygon fill="white" stroke="#666666" points="577.75,-51 454.5,-51 454.5,-31 577.75,-31 577.75,-51"/>
<text text-anchor="middle" x="516.12" y="-37.5" font-family="Helvetica,sans-Serif" font-size="10.00">JNIEnvManager::getEnv</text>
</a>
</g>
</g>
<!-- Node3&#45;&gt;Node4 -->
<g id="edge3_Node000003_Node000004" class="edge">
<title>Node3&#45;&gt;Node4</title>
<g id="a_edge3_Node000003_Node000004"><a xlink:title=" ">
<path fill="none" stroke="#63b8ff" d="M418.88,-41C426.6,-41 434.69,-41 442.77,-41"/>
<polygon fill="#63b8ff" stroke="#63b8ff" points="442.63,-44.5 452.63,-41 442.63,-37.5 442.63,-44.5"/>
</a>
</g>
</g>
<!-- Node5 -->
<g id="Node000005" class="node">
<title>Node5</title>
<g id="a_Node000005"><a xlink:href="a00260.html#a3d31403b7971274d47d308245206bd24" target="_top" xlink:title="为当前线程创建一个env.">
<polygon fill="white" stroke="#666666" points="665,-51 613.75,-51 613.75,-31 665,-31 665,-51"/>
<text text-anchor="middle" x="639.38" y="-37.5" font-family="Helvetica,sans-Serif" font-size="10.00">newEnv</text>
</a>
</g>
</g>
<!-- Node4&#45;&gt;Node5 -->
<g id="edge4_Node000004_Node000005" class="edge">
<title>Node4&#45;&gt;Node5</title>
<g id="a_edge4_Node000004_Node000005"><a xlink:title=" ">
<path fill="none" stroke="#63b8ff" d="M578.11,-41C586.31,-41 594.51,-41 602.09,-41"/>
<polygon fill="#63b8ff" stroke="#63b8ff" points="601.91,-44.5 611.91,-41 601.91,-37.5 601.91,-44.5"/>
</a>
</g>
</g>
<!-- Node6 -->
<g id="Node000006" class="node">
<title>Node6</title>
<g id="a_Node000006"><a xlink:href="a00840.html#ae0e482c6a813848a8f5d34957d1b6307" target="_top" xlink:title="获取全局JavaVM对象.">
<polygon fill="white" stroke="#666666" points="828,-51 701,-51 701,-31 828,-31 828,-51"/>
<text text-anchor="middle" x="764.5" y="-37.5" font-family="Helvetica,sans-Serif" font-size="10.00">JNIEnvManager::getGvm</text>
</a>
</g>
</g>
<!-- Node5&#45;&gt;Node6 -->
<g id="edge5_Node000005_Node000006" class="edge">
<title>Node5&#45;&gt;Node6</title>
<g id="a_edge5_Node000005_Node000006"><a xlink:title=" ">
<path fill="none" stroke="#63b8ff" d="M665.29,-41C672.47,-41 680.7,-41 689.27,-41"/>
<polygon fill="#63b8ff" stroke="#63b8ff" points="689.16,-44.5 699.16,-41 689.16,-37.5 689.16,-44.5"/>
</a>
</g>
</g>
<!-- Node7&#45;&gt;Node3 -->
<g id="edge7_Node000007_Node000003" class="edge">
<title>Node7&#45;&gt;Node3</title>
<g id="a_edge7_Node000007_Node000003"><a xlink:title=" ">
<path fill="none" stroke="#63b8ff" d="M270.37,-24.6C281.41,-26.49 293.22,-28.51 304.65,-30.46"/>
<polygon fill="#63b8ff" stroke="#63b8ff" points="303.97,-33.89 314.42,-32.13 305.15,-26.99 303.97,-33.89"/>
</a>
</g>
</g>
</g>
</svg>
