<?xml version="1.0" encoding="UTF-8" standalone="no"?>
<!DOCTYPE svg PUBLIC "-//W3C//DTD SVG 1.1//EN"
 "http://www.w3.org/Graphics/SVG/1.1/DTD/svg11.dtd">
<!-- Generated by graphviz version 2.50.0 (20211204.2007)
 -->
<!-- Title: LibLoader::Plugin::unloadWhenException Pages: 1 -->
<svg width="1310pt" height="197pt"
 viewBox="0.00 0.00 1310.00 196.50" xmlns="http://www.w3.org/2000/svg" xmlns:xlink="http://www.w3.org/1999/xlink">
<g id="graph0" class="graph" transform="scale(1 1) rotate(0) translate(4 192.5)">
<title>LibLoader::Plugin::unloadWhenException</title>
<polygon fill="white" stroke="transparent" points="-4,4 -4,-192.5 1306,-192.5 1306,4 -4,4"/>
<!-- Node1 -->
<g id="node1" class="node">
<title>Node1</title>
<g id="a_node1"><a xlink:title=" ">
<polygon fill="#bfbfbf" stroke="black" points="0,-84 0,-114 114,-114 114,-84 0,-84"/>
<text text-anchor="start" x="8" y="-102" font-family="Helvetica,sans-Serif" font-size="10.00">LibLoader::Plugin::</text>
<text text-anchor="middle" x="57" y="-91" font-family="Helvetica,sans-Serif" font-size="10.00">unloadWhenException</text>
</a>
</g>
</g>
<!-- Node2 -->
<g id="node2" class="node">
<title>Node2</title>
<g id="a_node2"><a xlink:href="a00401.html#a5323911e69fbf08d1cb4fd23318c6ae3" target="_top" xlink:title=" ">
<polygon fill="white" stroke="black" points="150,-84 150,-114 296,-114 296,-84 150,-84"/>
<text text-anchor="start" x="158" y="-102" font-family="Helvetica,sans-Serif" font-size="10.00">LibLoader::Plugin::</text>
<text text-anchor="middle" x="223" y="-91" font-family="Helvetica,sans-Serif" font-size="10.00">unloadWhenExceptionInternal</text>
</a>
</g>
</g>
<!-- Node1&#45;&gt;Node2 -->
<g id="edge1" class="edge">
<title>Node1&#45;&gt;Node2</title>
<path fill="none" stroke="midnightblue" d="M114.44,-99C122.63,-99 131.2,-99 139.77,-99"/>
<polygon fill="midnightblue" stroke="midnightblue" points="139.82,-102.5 149.82,-99 139.82,-95.5 139.82,-102.5"/>
</g>
<!-- Node3 -->
<g id="node3" class="node">
<title>Node3</title>
<g id="a_node3"><a xlink:href="a00409.html#af4e8baa9d706f75b1bf21d95069d3f42" target="_top" xlink:title=" ">
<polygon fill="white" stroke="black" points="337.5,-158 337.5,-188 449.5,-188 449.5,-158 337.5,-158"/>
<text text-anchor="start" x="345.5" y="-176" font-family="Helvetica,sans-Serif" font-size="10.00">LibLoader::PluginData</text>
<text text-anchor="middle" x="393.5" y="-165" font-family="Helvetica,sans-Serif" font-size="10.00">::_disable</text>
</a>
</g>
</g>
<!-- Node2&#45;&gt;Node3 -->
<g id="edge2" class="edge">
<title>Node2&#45;&gt;Node3</title>
<path fill="none" stroke="midnightblue" d="M255.45,-114.13C276.89,-124.3 305.99,-137.83 332,-149 335.91,-150.68 339.99,-152.39 344.08,-154.07"/>
<polygon fill="midnightblue" stroke="midnightblue" points="343.06,-157.43 353.64,-157.96 345.69,-150.95 343.06,-157.43"/>
</g>
<!-- Node4 -->
<g id="node4" class="node">
<title>Node4</title>
<g id="a_node4"><a xlink:href="a00409.html#a06be765d6cf55aa951f7eecb7ba578e8" target="_top" xlink:title=" ">
<polygon fill="white" stroke="black" points="337.5,-109 337.5,-139 449.5,-139 449.5,-109 337.5,-109"/>
<text text-anchor="start" x="345.5" y="-127" font-family="Helvetica,sans-Serif" font-size="10.00">LibLoader::PluginData</text>
<text text-anchor="middle" x="393.5" y="-116" font-family="Helvetica,sans-Serif" font-size="10.00">::_unload</text>
</a>
</g>
</g>
<!-- Node2&#45;&gt;Node4 -->
<g id="edge3" class="edge">
<title>Node2&#45;&gt;Node4</title>
<path fill="none" stroke="midnightblue" d="M296.44,-109.75C306.74,-111.28 317.28,-112.84 327.43,-114.35"/>
<polygon fill="midnightblue" stroke="midnightblue" points="327.02,-117.82 337.43,-115.83 328.05,-110.9 327.02,-117.82"/>
</g>
<!-- Node6 -->
<g id="node6" class="node">
<title>Node6</title>
<g id="a_node6"><a xlink:href="a00306.html#a830b51c74068e1461e1baf677dd10ac2" target="_top" xlink:title=" ">
<polygon fill="white" stroke="black" points="339.5,-60 339.5,-90 447.5,-90 447.5,-60 339.5,-60"/>
<text text-anchor="start" x="347.5" y="-78" font-family="Helvetica,sans-Serif" font-size="10.00">LibLoader::LoaderApi</text>
<text text-anchor="middle" x="393.5" y="-67" font-family="Helvetica,sans-Serif" font-size="10.00">::libClose</text>
</a>
</g>
</g>
<!-- Node2&#45;&gt;Node6 -->
<g id="edge5" class="edge">
<title>Node2&#45;&gt;Node6</title>
<path fill="none" stroke="midnightblue" d="M296.44,-88.68C307.39,-87.12 318.61,-85.52 329.34,-84"/>
<polygon fill="midnightblue" stroke="midnightblue" points="330.05,-87.43 339.46,-82.55 329.07,-80.5 330.05,-87.43"/>
</g>
<!-- Node7 -->
<g id="node7" class="node">
<title>Node7</title>
<g id="a_node7"><a xlink:href="a00393.html#af50d0545fe7d683e54fcd03453a423e3" target="_top" xlink:title=" ">
<polygon fill="white" stroke="black" points="332,-11 332,-41 455,-41 455,-11 332,-11"/>
<text text-anchor="start" x="340" y="-29" font-family="Helvetica,sans-Serif" font-size="10.00">LibLoader::LoaderLogger</text>
<text text-anchor="middle" x="393.5" y="-18" font-family="Helvetica,sans-Serif" font-size="10.00">::warning</text>
</a>
</g>
</g>
<!-- Node2&#45;&gt;Node7 -->
<g id="edge6" class="edge">
<title>Node2&#45;&gt;Node7</title>
<path fill="none" stroke="midnightblue" d="M257.47,-83.85C278.75,-74.29 306.92,-61.75 332,-51 336.65,-49.01 341.51,-46.95 346.36,-44.92"/>
<polygon fill="midnightblue" stroke="midnightblue" points="347.76,-48.13 355.64,-41.05 345.07,-41.67 347.76,-48.13"/>
</g>
<!-- Node5 -->
<g id="node5" class="node">
<title>Node5</title>
<g id="a_node5"><a xlink:href="a00405.html#a81c7f6972e7ed7429f2ce9ba82c9ba31" target="_top" xlink:title=" ">
<polygon fill="white" stroke="black" points="491,-109 491,-139 625,-139 625,-109 491,-109"/>
<text text-anchor="start" x="499" y="-127" font-family="Helvetica,sans-Serif" font-size="10.00">LibLoader::PluginFuncAddr</text>
<text text-anchor="middle" x="558" y="-116" font-family="Helvetica,sans-Serif" font-size="10.00">Data::_resetAddrData</text>
</a>
</g>
</g>
<!-- Node4&#45;&gt;Node5 -->
<g id="edge4" class="edge">
<title>Node4&#45;&gt;Node5</title>
<path fill="none" stroke="midnightblue" d="M449.52,-124C459.56,-124 470.21,-124 480.75,-124"/>
<polygon fill="midnightblue" stroke="midnightblue" points="480.79,-127.5 490.79,-124 480.79,-120.5 480.79,-127.5"/>
</g>
<!-- Node8 -->
<g id="node8" class="node">
<title>Node8</title>
<g id="a_node8"><a xlink:href="a00393.html#af4d7d5164450e25f7401d1cc15f15b8d" target="_top" xlink:title="实际暴露的接口">
<polygon fill="white" stroke="black" points="496.5,-33 496.5,-63 619.5,-63 619.5,-33 496.5,-33"/>
<text text-anchor="start" x="504.5" y="-51" font-family="Helvetica,sans-Serif" font-size="10.00">LibLoader::LoaderLogger</text>
<text text-anchor="middle" x="558" y="-40" font-family="Helvetica,sans-Serif" font-size="10.00">::call_logger</text>
</a>
</g>
</g>
<!-- Node7&#45;&gt;Node8 -->
<g id="edge7" class="edge">
<title>Node7&#45;&gt;Node8</title>
<path fill="none" stroke="midnightblue" d="M455.01,-34.19C465.27,-35.58 476,-37.03 486.48,-38.45"/>
<polygon fill="midnightblue" stroke="midnightblue" points="486.06,-41.93 496.44,-39.8 487,-34.99 486.06,-41.93"/>
</g>
<!-- Node9 -->
<g id="node9" class="node">
<title>Node9</title>
<g id="a_node9"><a xlink:href="a00309.html#a076c5f4ff8083c7cfc6523498d0ba30f" target="_top" xlink:title=" ">
<polygon fill="white" stroke="black" points="804,-14 804,-44 903,-44 903,-14 804,-14"/>
<text text-anchor="start" x="812" y="-32" font-family="Helvetica,sans-Serif" font-size="10.00">LibLoader::JNIEnvs</text>
<text text-anchor="middle" x="853.5" y="-21" font-family="Helvetica,sans-Serif" font-size="10.00">::getEnv</text>
</a>
</g>
</g>
<!-- Node8&#45;&gt;Node9 -->
<g id="edge8" class="edge">
<title>Node8&#45;&gt;Node9</title>
<path fill="none" stroke="midnightblue" d="M619.81,-44.06C670.87,-40.76 743.34,-36.07 793.79,-32.8"/>
<polygon fill="midnightblue" stroke="midnightblue" points="794.14,-36.29 803.89,-32.15 793.69,-29.3 794.14,-36.29"/>
</g>
<!-- Node13 -->
<g id="node13" class="node">
<title>Node13</title>
<g id="a_node13"><a xlink:href="a00304.html#a6a6fcd695791253a9b3a053d313b2b93" target="_top" xlink:title=" ">
<polygon fill="white" stroke="black" points="661,-0.5 661,-19.5 768,-19.5 768,-0.5 661,-0.5"/>
<text text-anchor="middle" x="714.5" y="-7.5" font-family="Helvetica,sans-Serif" font-size="10.00">LibLoader::str2jstring</text>
</a>
</g>
</g>
<!-- Node8&#45;&gt;Node13 -->
<g id="edge12" class="edge">
<title>Node8&#45;&gt;Node13</title>
<path fill="none" stroke="midnightblue" d="M619.62,-33.09C634.59,-29.41 650.43,-25.51 664.75,-21.99"/>
<polygon fill="midnightblue" stroke="midnightblue" points="666,-25.29 674.87,-19.5 664.32,-18.49 666,-25.29"/>
</g>
<!-- Node10 -->
<g id="node10" class="node">
<title>Node10</title>
<g id="a_node10"><a xlink:href="a00361.html#aea7d58ff9f04d6d4849c25a2506603a5" target="_top" xlink:title="取env,如果不存在重新获取">
<polygon fill="white" stroke="black" points="939,-19.5 939,-38.5 1058,-38.5 1058,-19.5 939,-19.5"/>
<text text-anchor="middle" x="998.5" y="-26.5" font-family="Helvetica,sans-Serif" font-size="10.00">JNIEnvManager::getEnv</text>
</a>
</g>
</g>
<!-- Node9&#45;&gt;Node10 -->
<g id="edge9" class="edge">
<title>Node9&#45;&gt;Node10</title>
<path fill="none" stroke="midnightblue" d="M903.31,-29C911.51,-29 920.16,-29 928.75,-29"/>
<polygon fill="midnightblue" stroke="midnightblue" points="928.78,-32.5 938.78,-29 928.78,-25.5 928.78,-32.5"/>
</g>
<!-- Node11 -->
<g id="node11" class="node">
<title>Node11</title>
<g id="a_node11"><a xlink:href="a00197.html#a3d31403b7971274d47d308245206bd24" target="_top" xlink:title="为当前线程创建一个env.">
<polygon fill="white" stroke="black" points="1094,-19.5 1094,-38.5 1144,-38.5 1144,-19.5 1094,-19.5"/>
<text text-anchor="middle" x="1119" y="-26.5" font-family="Helvetica,sans-Serif" font-size="10.00">newEnv</text>
</a>
</g>
</g>
<!-- Node10&#45;&gt;Node11 -->
<g id="edge10" class="edge">
<title>Node10&#45;&gt;Node11</title>
<path fill="none" stroke="midnightblue" d="M1058.06,-29C1066.89,-29 1075.75,-29 1083.85,-29"/>
<polygon fill="midnightblue" stroke="midnightblue" points="1083.98,-32.5 1093.98,-29 1083.98,-25.5 1083.98,-32.5"/>
</g>
<!-- Node12 -->
<g id="node12" class="node">
<title>Node12</title>
<g id="a_node12"><a xlink:href="a00361.html#ae0e482c6a813848a8f5d34957d1b6307" target="_top" xlink:title="获取全局JavaVM对象.">
<polygon fill="white" stroke="black" points="1180,-19.5 1180,-38.5 1302,-38.5 1302,-19.5 1180,-19.5"/>
<text text-anchor="middle" x="1241" y="-26.5" font-family="Helvetica,sans-Serif" font-size="10.00">JNIEnvManager::getGvm</text>
</a>
</g>
</g>
<!-- Node11&#45;&gt;Node12 -->
<g id="edge11" class="edge">
<title>Node11&#45;&gt;Node12</title>
<path fill="none" stroke="midnightblue" d="M1144.28,-29C1151.75,-29 1160.37,-29 1169.32,-29"/>
<polygon fill="midnightblue" stroke="midnightblue" points="1169.52,-32.5 1179.52,-29 1169.52,-25.5 1169.52,-32.5"/>
</g>
<!-- Node13&#45;&gt;Node7 -->
<g id="edge14" class="edge">
<title>Node13&#45;&gt;Node7</title>
<path fill="none" stroke="midnightblue" d="M660.9,-12.64C607.49,-15.32 524.43,-19.48 465.27,-22.45"/>
<polygon fill="midnightblue" stroke="midnightblue" points="465.06,-18.96 455.25,-22.95 465.42,-25.95 465.06,-18.96"/>
</g>
<!-- Node13&#45;&gt;Node9 -->
<g id="edge13" class="edge">
<title>Node13&#45;&gt;Node9</title>
<path fill="none" stroke="midnightblue" d="M768.08,-17.29C776.54,-18.46 785.34,-19.69 793.93,-20.88"/>
<polygon fill="midnightblue" stroke="midnightblue" points="793.5,-24.35 803.89,-22.26 794.46,-17.42 793.5,-24.35"/>
</g>
</g>
</svg>
