<?xml version="1.0" encoding="UTF-8" standalone="no"?>
<!DOCTYPE svg PUBLIC "-//W3C//DTD SVG 1.1//EN"
 "http://www.w3.org/Graphics/SVG/1.1/DTD/svg11.dtd">
<!-- Generated by graphviz version 2.50.0 (20211204.2007)
 -->
<!-- Title: MiraiCP::Contact::botid Pages: 1 -->
<svg width="511pt" height="116pt"
 viewBox="0.00 0.00 511.00 115.50" xmlns="http://www.w3.org/2000/svg" xmlns:xlink="http://www.w3.org/1999/xlink">
<g id="graph0" class="graph" transform="scale(1 1) rotate(0) translate(4 111.5)">
<title>MiraiCP::Contact::botid</title>
<polygon fill="white" stroke="transparent" points="-4,4 -4,-111.5 507,-111.5 507,4 -4,4"/>
<!-- Node1 -->
<g id="node1" class="node">
<title>Node1</title>
<g id="a_node1"><a xlink:title=" ">
<polygon fill="#bfbfbf" stroke="black" points="385,-50 385,-69 503,-69 503,-50 385,-50"/>
<text text-anchor="middle" x="444" y="-57" font-family="Helvetica,sans-Serif" font-size="10.00">MiraiCP::Contact::botid</text>
</a>
</g>
</g>
<!-- Node2 -->
<g id="node2" class="node">
<title>Node2</title>
<g id="a_node2"><a xlink:href="a00661.html#ac0732b23857cec08f18fec0978de718c" target="_top" xlink:title="取群成员">
<polygon fill="white" stroke="black" points="189,-88 189,-107 327,-107 327,-88 189,-88"/>
<text text-anchor="middle" x="258" y="-95" font-family="Helvetica,sans-Serif" font-size="10.00">MiraiCP::Group::getMember</text>
</a>
</g>
</g>
<!-- Node1&#45;&gt;Node2 -->
<g id="edge1" class="edge">
<title>Node1&#45;&gt;Node2</title>
<path fill="none" stroke="midnightblue" d="M386.44,-71.18C360.35,-76.57 329.76,-82.89 305.1,-87.98"/>
<polygon fill="midnightblue" stroke="midnightblue" points="387.48,-74.54 396.57,-69.09 386.07,-67.68 387.48,-74.54"/>
</g>
<!-- Node4 -->
<g id="node4" class="node">
<title>Node4</title>
<g id="a_node4"><a xlink:href="a00661.html#a49e685a85945a1f7b414e230fa2c27e6" target="_top" xlink:title="取群主">
<polygon fill="white" stroke="black" points="192.5,-50 192.5,-69 323.5,-69 323.5,-50 192.5,-50"/>
<text text-anchor="middle" x="258" y="-57" font-family="Helvetica,sans-Serif" font-size="10.00">MiraiCP::Group::getOwner</text>
</a>
</g>
</g>
<!-- Node1&#45;&gt;Node4 -->
<g id="edge3" class="edge">
<title>Node1&#45;&gt;Node4</title>
<path fill="none" stroke="midnightblue" d="M374.55,-59.5C357.86,-59.5 340.05,-59.5 323.55,-59.5"/>
<polygon fill="midnightblue" stroke="midnightblue" points="374.78,-63 384.78,-59.5 374.78,-56 374.78,-63"/>
</g>
<!-- Node5 -->
<g id="node5" class="node">
<title>Node5</title>
<g id="a_node5"><a xlink:href="a00673.html#ac5e2613306079cce18866fa1f2809357" target="_top" xlink:title="发布群公告">
<polygon fill="white" stroke="black" points="167,-0.5 167,-30.5 349,-30.5 349,-0.5 167,-0.5"/>
<text text-anchor="start" x="175" y="-18.5" font-family="Helvetica,sans-Serif" font-size="10.00">MiraiCP::Group::OfflineAnnouncement</text>
<text text-anchor="middle" x="258" y="-7.5" font-family="Helvetica,sans-Serif" font-size="10.00">::publishTo</text>
</a>
</g>
</g>
<!-- Node1&#45;&gt;Node5 -->
<g id="edge4" class="edge">
<title>Node1&#45;&gt;Node5</title>
<path fill="none" stroke="midnightblue" d="M393.3,-47.62C371.35,-42.37 345.3,-36.14 322,-30.57"/>
<polygon fill="midnightblue" stroke="midnightblue" points="392.53,-51.03 403.07,-49.95 394.16,-44.22 392.53,-51.03"/>
</g>
<!-- Node3 -->
<g id="node3" class="node">
<title>Node3</title>
<g id="a_node3"><a xlink:href="a00661.html#a541ba170580c0851bc494b5e038538e4" target="_top" xlink:title=" ">
<polygon fill="white" stroke="black" points="0,-88 0,-107 131,-107 131,-88 0,-88"/>
<text text-anchor="middle" x="65.5" y="-95" font-family="Helvetica,sans-Serif" font-size="10.00">MiraiCP::Group::operator[]</text>
</a>
</g>
</g>
<!-- Node2&#45;&gt;Node3 -->
<g id="edge2" class="edge">
<title>Node2&#45;&gt;Node3</title>
<path fill="none" stroke="midnightblue" d="M178.51,-97.5C162.73,-97.5 146.32,-97.5 131.08,-97.5"/>
<polygon fill="midnightblue" stroke="midnightblue" points="178.76,-101 188.76,-97.5 178.76,-94 178.76,-101"/>
</g>
</g>
</svg>
