<?xml version="1.0" encoding="UTF-8" standalone="no"?>
<!DOCTYPE svg PUBLIC "-//W3C//DTD SVG 1.1//EN"
 "http://www.w3.org/Graphics/SVG/1.1/DTD/svg11.dtd">
<!-- Generated by graphviz version 2.50.0 (20211204.2007)
 -->
<!-- Title: MiraiCP::Contact::unpackQuote Pages: 1 -->
<svg width="1825pt" height="274pt"
 viewBox="0.00 0.00 1825.00 274.00" xmlns="http://www.w3.org/2000/svg" xmlns:xlink="http://www.w3.org/1999/xlink">
<g id="graph0" class="graph" transform="scale(1 1) rotate(0) translate(4 270)">
<title>MiraiCP::Contact::unpackQuote</title>
<polygon fill="white" stroke="transparent" points="-4,4 -4,-270 1821,-270 1821,4 -4,4"/>
<!-- Node1 -->
<g id="node1" class="node">
<title>Node1</title>
<g id="a_node1"><a xlink:title=" ">
<polygon fill="#bfbfbf" stroke="black" points="0,-44.5 0,-74.5 128,-74.5 128,-44.5 0,-44.5"/>
<text text-anchor="start" x="8" y="-62.5" font-family="Helvetica,sans-Serif" font-size="10.00">MiraiCP::Contact::unpack</text>
<text text-anchor="middle" x="64" y="-51.5" font-family="Helvetica,sans-Serif" font-size="10.00">Quote</text>
</a>
</g>
</g>
<!-- Node2 -->
<g id="node2" class="node">
<title>Node2</title>
<g id="a_node2"><a xlink:href="a00448.html#aee1b53cae7cec3e1d65daa3d23625223" target="_top" xlink:title=" ">
<polygon fill="white" stroke="black" points="164,-88.5 164,-118.5 302,-118.5 302,-88.5 164,-88.5"/>
<text text-anchor="start" x="172" y="-106.5" font-family="Helvetica,sans-Serif" font-size="10.00">MiraiCP::Contact::quoteAnd</text>
<text text-anchor="middle" x="233" y="-95.5" font-family="Helvetica,sans-Serif" font-size="10.00">SendImpl</text>
</a>
</g>
</g>
<!-- Node1&#45;&gt;Node2 -->
<g id="edge1" class="edge">
<title>Node1&#45;&gt;Node2</title>
<path fill="none" stroke="midnightblue" d="M122,-74.52C135.9,-78.18 150.89,-82.13 165.2,-85.9"/>
<polygon fill="midnightblue" stroke="midnightblue" points="164.41,-89.31 174.97,-88.47 166.19,-82.54 164.41,-89.31"/>
</g>
<!-- Node21 -->
<g id="node21" class="node">
<title>Node21</title>
<g id="a_node21"><a xlink:href="a00636.html#a281c3d583cd554e89ad2aa2286435bca" target="_top" xlink:title=" ">
<polygon fill="white" stroke="black" points="172,-20.5 172,-50.5 294,-50.5 294,-20.5 172,-20.5"/>
<text text-anchor="start" x="180" y="-38.5" font-family="Helvetica,sans-Serif" font-size="10.00">MiraiCP::MessageChain</text>
<text text-anchor="middle" x="233" y="-27.5" font-family="Helvetica,sans-Serif" font-size="10.00">::toString</text>
</a>
</g>
</g>
<!-- Node1&#45;&gt;Node21 -->
<g id="edge24" class="edge">
<title>Node1&#45;&gt;Node21</title>
<path fill="none" stroke="midnightblue" d="M128.14,-50.43C139.1,-48.85 150.56,-47.2 161.7,-45.6"/>
<polygon fill="midnightblue" stroke="midnightblue" points="162.41,-49.04 171.81,-44.15 161.41,-42.11 162.41,-49.04"/>
</g>
<!-- Node3 -->
<g id="node3" class="node">
<title>Node3</title>
<g id="a_node3"><a xlink:href="a00640.html#a1f98db6bbdf6b7d178bf92f55fd2e4dc" target="_top" xlink:title="从json字符串反序列化到MessageSource对象">
<polygon fill="white" stroke="black" points="338,-186.5 338,-216.5 466,-216.5 466,-186.5 338,-186.5"/>
<text text-anchor="start" x="346" y="-204.5" font-family="Helvetica,sans-Serif" font-size="10.00">MiraiCP::MessageSource</text>
<text text-anchor="middle" x="402" y="-193.5" font-family="Helvetica,sans-Serif" font-size="10.00">::deserializeFromString</text>
</a>
</g>
</g>
<!-- Node2&#45;&gt;Node3 -->
<g id="edge2" class="edge">
<title>Node2&#45;&gt;Node3</title>
<path fill="none" stroke="midnightblue" d="M252.23,-118.66C272.29,-134.81 305.95,-160.36 338,-177.5 341.09,-179.15 344.31,-180.74 347.6,-182.27"/>
<polygon fill="midnightblue" stroke="midnightblue" points="346.41,-185.57 356.98,-186.38 349.23,-179.16 346.41,-185.57"/>
</g>
<!-- Node7 -->
<g id="node7" class="node">
<title>Node7</title>
<g id="a_node7"><a xlink:href="a00415.html#a309e8d7f316e8b5e947ea3bcddeb84a8" target="_top" xlink:title="调用 Mirai 操作">
<polygon fill="white" stroke="black" points="347.5,-137.5 347.5,-167.5 456.5,-167.5 456.5,-137.5 347.5,-137.5"/>
<text text-anchor="start" x="355.5" y="-155.5" font-family="Helvetica,sans-Serif" font-size="10.00">MiraiCP::KtOperation</text>
<text text-anchor="middle" x="402" y="-144.5" font-family="Helvetica,sans-Serif" font-size="10.00">::ktOperation</text>
</a>
</g>
</g>
<!-- Node2&#45;&gt;Node7 -->
<g id="edge6" class="edge">
<title>Node2&#45;&gt;Node7</title>
<path fill="none" stroke="midnightblue" d="M285.47,-118.6C302.69,-123.66 322.06,-129.34 339.94,-134.58"/>
<polygon fill="midnightblue" stroke="midnightblue" points="339.12,-137.99 349.7,-137.45 341.09,-131.27 339.12,-137.99"/>
</g>
<!-- Node19 -->
<g id="node19" class="node">
<title>Node19</title>
<g id="a_node19"><a xlink:href="a00640.html#aca51487498128b420019182e1331a282" target="_top" xlink:title=" ">
<polygon fill="white" stroke="black" points="338,-88.5 338,-118.5 466,-118.5 466,-88.5 338,-88.5"/>
<text text-anchor="start" x="346" y="-106.5" font-family="Helvetica,sans-Serif" font-size="10.00">MiraiCP::MessageSource</text>
<text text-anchor="middle" x="402" y="-95.5" font-family="Helvetica,sans-Serif" font-size="10.00">::serializeToString</text>
</a>
</g>
</g>
<!-- Node2&#45;&gt;Node19 -->
<g id="edge22" class="edge">
<title>Node2&#45;&gt;Node19</title>
<path fill="none" stroke="midnightblue" d="M302.41,-103.5C310.73,-103.5 319.26,-103.5 327.66,-103.5"/>
<polygon fill="midnightblue" stroke="midnightblue" points="327.8,-107 337.8,-103.5 327.8,-100 327.8,-107"/>
</g>
<!-- Node20 -->
<g id="node20" class="node">
<title>Node20</title>
<g id="a_node20"><a xlink:href="a00448.html#a89fb588a12ff2d4de10722788945ea55" target="_top" xlink:title="序列化到json对象">
<polygon fill="white" stroke="black" points="339.5,-50 339.5,-69 464.5,-69 464.5,-50 339.5,-50"/>
<text text-anchor="middle" x="402" y="-57" font-family="Helvetica,sans-Serif" font-size="10.00">MiraiCP::Contact::toJson</text>
</a>
</g>
</g>
<!-- Node2&#45;&gt;Node20 -->
<g id="edge23" class="edge">
<title>Node2&#45;&gt;Node20</title>
<path fill="none" stroke="midnightblue" d="M291,-88.48C311.86,-82.99 335.17,-76.84 354.95,-71.63"/>
<polygon fill="midnightblue" stroke="midnightblue" points="355.87,-75.01 364.65,-69.08 354.08,-68.24 355.87,-75.01"/>
</g>
<!-- Node4 -->
<g id="node4" class="node">
<title>Node4</title>
<g id="a_node4"><a xlink:href="a00612.html#af14d39efa300da183070784bc86d3f23" target="_top" xlink:title="发送错误(error级日志)">
<polygon fill="white" stroke="black" points="502,-186.5 502,-216.5 630,-216.5 630,-186.5 502,-186.5"/>
<text text-anchor="start" x="510" y="-204.5" font-family="Helvetica,sans-Serif" font-size="10.00">MiraiCP::Logger_interface</text>
<text text-anchor="middle" x="566" y="-193.5" font-family="Helvetica,sans-Serif" font-size="10.00">::error</text>
</a>
</g>
</g>
<!-- Node3&#45;&gt;Node4 -->
<g id="edge3" class="edge">
<title>Node3&#45;&gt;Node4</title>
<path fill="none" stroke="midnightblue" d="M466.1,-201.5C474.43,-201.5 483.04,-201.5 491.53,-201.5"/>
<polygon fill="midnightblue" stroke="midnightblue" points="491.81,-205 501.81,-201.5 491.81,-198 491.81,-205"/>
</g>
<!-- Node5 -->
<g id="node5" class="node">
<title>Node5</title>
<g id="a_node5"><a xlink:href="a00612.html#a98af60f864a0446e23a7a27a3419d9b8" target="_top" xlink:title=" ">
<polygon fill="white" stroke="black" points="666,-235.5 666,-265.5 794,-265.5 794,-235.5 666,-235.5"/>
<text text-anchor="start" x="674" y="-253.5" font-family="Helvetica,sans-Serif" font-size="10.00">MiraiCP::Logger_interface</text>
<text text-anchor="middle" x="730" y="-242.5" font-family="Helvetica,sans-Serif" font-size="10.00">::constructString</text>
</a>
</g>
</g>
<!-- Node4&#45;&gt;Node5 -->
<g id="edge4" class="edge">
<title>Node4&#45;&gt;Node5</title>
<path fill="none" stroke="midnightblue" d="M616.93,-216.6C633.48,-221.61 652.07,-227.23 669.29,-232.44"/>
<polygon fill="midnightblue" stroke="midnightblue" points="668.65,-235.9 679.24,-235.45 670.68,-229.2 668.65,-235.9"/>
</g>
<!-- Node6 -->
<g id="node6" class="node">
<title>Node6</title>
<g id="a_node6"><a xlink:href="a00612.html#a86ea9d57475a3004be2a32b2c4c76371" target="_top" xlink:title="日志底层实现封装">
<polygon fill="white" stroke="black" points="666,-186.5 666,-216.5 794,-216.5 794,-186.5 666,-186.5"/>
<text text-anchor="start" x="674" y="-204.5" font-family="Helvetica,sans-Serif" font-size="10.00">MiraiCP::Logger_interface</text>
<text text-anchor="middle" x="730" y="-193.5" font-family="Helvetica,sans-Serif" font-size="10.00">::log_interface</text>
</a>
</g>
</g>
<!-- Node4&#45;&gt;Node6 -->
<g id="edge5" class="edge">
<title>Node4&#45;&gt;Node6</title>
<path fill="none" stroke="midnightblue" d="M630.1,-201.5C638.43,-201.5 647.04,-201.5 655.53,-201.5"/>
<polygon fill="midnightblue" stroke="midnightblue" points="655.81,-205 665.81,-201.5 655.81,-198 655.81,-205"/>
</g>
<!-- Node8 -->
<g id="node8" class="node">
<title>Node8</title>
<g id="a_node8"><a xlink:href="a00415.html#a1e1e498928eeaa1d7107033ff5fa881a" target="_top" xlink:title="调用 Mirai 操作">
<polygon fill="white" stroke="black" points="511.5,-137.5 511.5,-167.5 620.5,-167.5 620.5,-137.5 511.5,-137.5"/>
<text text-anchor="start" x="519.5" y="-155.5" font-family="Helvetica,sans-Serif" font-size="10.00">MiraiCP::KtOperation</text>
<text text-anchor="middle" x="566" y="-144.5" font-family="Helvetica,sans-Serif" font-size="10.00">::ktOperationStr</text>
</a>
</g>
</g>
<!-- Node7&#45;&gt;Node8 -->
<g id="edge7" class="edge">
<title>Node7&#45;&gt;Node8</title>
<path fill="none" stroke="midnightblue" d="M456.94,-152.5C471.15,-152.5 486.62,-152.5 501.29,-152.5"/>
<polygon fill="midnightblue" stroke="midnightblue" points="501.29,-156 511.29,-152.5 501.29,-149 501.29,-156"/>
</g>
<!-- Node9 -->
<g id="node9" class="node">
<title>Node9</title>
<g id="a_node9"><a xlink:href="a00408.html#a4c6ac4cf4ba5ff0adb7656708bbb67d0" target="_top" xlink:title="interfaces for plugins">
<polygon fill="white" stroke="black" points="676,-137.5 676,-167.5 784,-167.5 784,-137.5 676,-137.5"/>
<text text-anchor="start" x="684" y="-155.5" font-family="Helvetica,sans-Serif" font-size="10.00">LibLoader::LoaderApi</text>
<text text-anchor="middle" x="730" y="-144.5" font-family="Helvetica,sans-Serif" font-size="10.00">::pluginOperation</text>
</a>
</g>
</g>
<!-- Node8&#45;&gt;Node9 -->
<g id="edge8" class="edge">
<title>Node8&#45;&gt;Node9</title>
<path fill="none" stroke="midnightblue" d="M620.94,-152.5C635.3,-152.5 650.94,-152.5 665.75,-152.5"/>
<polygon fill="midnightblue" stroke="midnightblue" points="665.84,-156 675.84,-152.5 665.84,-149 665.84,-156"/>
</g>
<!-- Node10 -->
<g id="node10" class="node">
<title>Node10</title>
<g id="a_node10"><a xlink:href="a00740.html#acc90fdac094544c4ddd9d6fd13baa5da" target="_top" xlink:title=" ">
<polygon fill="white" stroke="black" points="830,-200.5 830,-230.5 965,-230.5 965,-200.5 830,-200.5"/>
<text text-anchor="start" x="838" y="-218.5" font-family="Helvetica,sans-Serif" font-size="10.00">MiraiCP::MiraiCPStringview</text>
<text text-anchor="middle" x="897.5" y="-207.5" font-family="Helvetica,sans-Serif" font-size="10.00">::c_str</text>
</a>
</g>
</g>
<!-- Node9&#45;&gt;Node10 -->
<g id="edge9" class="edge">
<title>Node9&#45;&gt;Node10</title>
<path fill="none" stroke="midnightblue" d="M770.64,-167.59C793.69,-176.36 822.93,-187.49 847.42,-196.82"/>
<polygon fill="midnightblue" stroke="midnightblue" points="846.3,-200.14 856.9,-200.42 848.8,-193.6 846.3,-200.14"/>
</g>
<!-- Node11 -->
<g id="node11" class="node">
<title>Node11</title>
<g id="a_node11"><a xlink:href="a00768.html#aea7d58ff9f04d6d4849c25a2506603a5" target="_top" xlink:title="取env,如果不存在重新获取">
<polygon fill="white" stroke="black" points="1454,-124 1454,-143 1573,-143 1573,-124 1454,-124"/>
<text text-anchor="middle" x="1513.5" y="-131" font-family="Helvetica,sans-Serif" font-size="10.00">JNIEnvManager::getEnv</text>
</a>
</g>
</g>
<!-- Node9&#45;&gt;Node11 -->
<g id="edge10" class="edge">
<title>Node9&#45;&gt;Node11</title>
<path fill="none" stroke="midnightblue" d="M784.18,-157.44C849.44,-163.07 963.51,-171.5 1061.5,-171.5 1061.5,-171.5 1061.5,-171.5 1222.5,-171.5 1304.89,-171.5 1399.34,-156.23 1457.46,-145.05"/>
<polygon fill="midnightblue" stroke="midnightblue" points="1458.39,-148.44 1467.53,-143.09 1457.05,-141.57 1458.39,-148.44"/>
</g>
<!-- Node14 -->
<g id="node14" class="node">
<title>Node14</title>
<g id="a_node14"><a xlink:href="a00407.html#aa5f8d0ecd9dd392b491070aace643ae3" target="_top" xlink:title=" ">
<polygon fill="white" stroke="black" points="1009,-124 1009,-143 1116,-143 1116,-124 1009,-124"/>
<text text-anchor="middle" x="1062.5" y="-131" font-family="Helvetica,sans-Serif" font-size="10.00">LibLoader::jstring2str</text>
</a>
</g>
</g>
<!-- Node9&#45;&gt;Node14 -->
<g id="edge13" class="edge">
<title>Node9&#45;&gt;Node14</title>
<path fill="none" stroke="midnightblue" d="M784.1,-149.45C842.61,-146.08 936.63,-140.68 998.74,-137.11"/>
<polygon fill="midnightblue" stroke="midnightblue" points="999.02,-140.6 1008.8,-136.53 998.62,-133.61 999.02,-140.6"/>
</g>
<!-- Node16 -->
<g id="node16" class="node">
<title>Node16</title>
<g id="a_node16"><a xlink:href="a00407.html#a6a6fcd695791253a9b3a053d313b2b93" target="_top" xlink:title=" ">
<polygon fill="white" stroke="black" points="844,-64 844,-83 951,-83 951,-64 844,-64"/>
<text text-anchor="middle" x="897.5" y="-71" font-family="Helvetica,sans-Serif" font-size="10.00">LibLoader::str2jstring</text>
</a>
</g>
</g>
<!-- Node9&#45;&gt;Node16 -->
<g id="edge16" class="edge">
<title>Node9&#45;&gt;Node16</title>
<path fill="none" stroke="midnightblue" d="M762.52,-137.45C792.68,-123.06 837.82,-101.51 867.22,-87.48"/>
<polygon fill="midnightblue" stroke="midnightblue" points="869.02,-90.49 876.54,-83.03 866.01,-84.18 869.02,-90.49"/>
</g>
<!-- Node12 -->
<g id="node12" class="node">
<title>Node12</title>
<g id="a_node12"><a xlink:href="a00200.html#a3d31403b7971274d47d308245206bd24" target="_top" xlink:title="为当前线程创建一个env.">
<polygon fill="white" stroke="black" points="1609,-124 1609,-143 1659,-143 1659,-124 1609,-124"/>
<text text-anchor="middle" x="1634" y="-131" font-family="Helvetica,sans-Serif" font-size="10.00">newEnv</text>
</a>
</g>
</g>
<!-- Node11&#45;&gt;Node12 -->
<g id="edge11" class="edge">
<title>Node11&#45;&gt;Node12</title>
<path fill="none" stroke="midnightblue" d="M1573.06,-133.5C1581.89,-133.5 1590.75,-133.5 1598.85,-133.5"/>
<polygon fill="midnightblue" stroke="midnightblue" points="1598.98,-137 1608.98,-133.5 1598.98,-130 1598.98,-137"/>
</g>
<!-- Node13 -->
<g id="node13" class="node">
<title>Node13</title>
<g id="a_node13"><a xlink:href="a00768.html#ae0e482c6a813848a8f5d34957d1b6307" target="_top" xlink:title="获取全局JavaVM对象.">
<polygon fill="white" stroke="black" points="1695,-124 1695,-143 1817,-143 1817,-124 1695,-124"/>
<text text-anchor="middle" x="1756" y="-131" font-family="Helvetica,sans-Serif" font-size="10.00">JNIEnvManager::getGvm</text>
</a>
</g>
</g>
<!-- Node12&#45;&gt;Node13 -->
<g id="edge12" class="edge">
<title>Node12&#45;&gt;Node13</title>
<path fill="none" stroke="midnightblue" d="M1659.28,-133.5C1666.75,-133.5 1675.37,-133.5 1684.32,-133.5"/>
<polygon fill="midnightblue" stroke="midnightblue" points="1684.52,-137 1694.52,-133.5 1684.52,-130 1684.52,-137"/>
</g>
<!-- Node15 -->
<g id="node15" class="node">
<title>Node15</title>
<g id="a_node15"><a xlink:href="a00411.html#a076c5f4ff8083c7cfc6523498d0ba30f" target="_top" xlink:title=" ">
<polygon fill="white" stroke="black" points="1319,-96.5 1319,-126.5 1418,-126.5 1418,-96.5 1319,-96.5"/>
<text text-anchor="start" x="1327" y="-114.5" font-family="Helvetica,sans-Serif" font-size="10.00">LibLoader::JNIEnvs</text>
<text text-anchor="middle" x="1368.5" y="-103.5" font-family="Helvetica,sans-Serif" font-size="10.00">::getEnv</text>
</a>
</g>
</g>
<!-- Node14&#45;&gt;Node15 -->
<g id="edge14" class="edge">
<title>Node14&#45;&gt;Node15</title>
<path fill="none" stroke="midnightblue" d="M1116.11,-129.69C1169.7,-125.81 1252.65,-119.81 1308.46,-115.77"/>
<polygon fill="midnightblue" stroke="midnightblue" points="1308.83,-119.26 1318.55,-115.04 1308.32,-112.27 1308.83,-119.26"/>
</g>
<!-- Node15&#45;&gt;Node11 -->
<g id="edge15" class="edge">
<title>Node15&#45;&gt;Node11</title>
<path fill="none" stroke="midnightblue" d="M1418.31,-119.01C1426.51,-120.27 1435.16,-121.6 1443.75,-122.92"/>
<polygon fill="midnightblue" stroke="midnightblue" points="1443.36,-126.4 1453.78,-124.47 1444.43,-119.49 1443.36,-126.4"/>
</g>
<!-- Node16&#45;&gt;Node15 -->
<g id="edge17" class="edge">
<title>Node16&#45;&gt;Node15</title>
<path fill="none" stroke="midnightblue" d="M951.39,-77.79C1039.71,-84.94 1216.59,-99.27 1308.7,-106.74"/>
<polygon fill="midnightblue" stroke="midnightblue" points="1308.44,-110.23 1318.69,-107.55 1309.01,-103.25 1308.44,-110.23"/>
</g>
<!-- Node17 -->
<g id="node17" class="node">
<title>Node17</title>
<g id="a_node17"><a xlink:href="a00800.html#af50d0545fe7d683e54fcd03453a423e3" target="_top" xlink:title=" ">
<polygon fill="white" stroke="black" points="1001,-36.5 1001,-66.5 1124,-66.5 1124,-36.5 1001,-36.5"/>
<text text-anchor="start" x="1009" y="-54.5" font-family="Helvetica,sans-Serif" font-size="10.00">LibLoader::LoaderLogger</text>
<text text-anchor="middle" x="1062.5" y="-43.5" font-family="Helvetica,sans-Serif" font-size="10.00">::warning</text>
</a>
</g>
</g>
<!-- Node16&#45;&gt;Node17 -->
<g id="edge18" class="edge">
<title>Node16&#45;&gt;Node17</title>
<path fill="none" stroke="midnightblue" d="M951.42,-66.36C964.01,-64.66 977.65,-62.82 990.89,-61.03"/>
<polygon fill="midnightblue" stroke="midnightblue" points="991.48,-64.48 1000.92,-59.68 990.54,-57.55 991.48,-64.48"/>
</g>
<!-- Node18 -->
<g id="node18" class="node">
<title>Node18</title>
<g id="a_node18"><a xlink:href="a00800.html#af4d7d5164450e25f7401d1cc15f15b8d" target="_top" xlink:title="实际暴露的接口">
<polygon fill="white" stroke="black" points="1160,-36.5 1160,-66.5 1283,-66.5 1283,-36.5 1160,-36.5"/>
<text text-anchor="start" x="1168" y="-54.5" font-family="Helvetica,sans-Serif" font-size="10.00">LibLoader::LoaderLogger</text>
<text text-anchor="middle" x="1221.5" y="-43.5" font-family="Helvetica,sans-Serif" font-size="10.00">::call_logger</text>
</a>
</g>
</g>
<!-- Node17&#45;&gt;Node18 -->
<g id="edge19" class="edge">
<title>Node17&#45;&gt;Node18</title>
<path fill="none" stroke="midnightblue" d="M1124.2,-51.5C1132.64,-51.5 1141.36,-51.5 1149.95,-51.5"/>
<polygon fill="midnightblue" stroke="midnightblue" points="1149.96,-55 1159.96,-51.5 1149.96,-48 1149.96,-55"/>
</g>
<!-- Node18&#45;&gt;Node15 -->
<g id="edge20" class="edge">
<title>Node18&#45;&gt;Node15</title>
<path fill="none" stroke="midnightblue" d="M1259.09,-66.64C1278.14,-74.52 1301.61,-84.24 1321.84,-92.61"/>
<polygon fill="midnightblue" stroke="midnightblue" points="1320.6,-95.88 1331.17,-96.47 1323.27,-89.41 1320.6,-95.88"/>
</g>
<!-- Node18&#45;&gt;Node16 -->
<g id="edge21" class="edge">
<title>Node18&#45;&gt;Node16</title>
<path fill="none" stroke="midnightblue" d="M1172.37,-36.48C1157.07,-32.39 1139.97,-28.53 1124,-26.5 1069.77,-19.59 1054.41,-14.84 1001,-26.5 972.6,-32.7 942.66,-47.52 922.52,-58.87"/>
<polygon fill="midnightblue" stroke="midnightblue" points="920.64,-55.92 913.74,-63.96 924.15,-61.98 920.64,-55.92"/>
</g>
<!-- Node22 -->
<g id="node22" class="node">
<title>Node22</title>
<g id="a_node22"><a xlink:href="a00636.html#a49c9f029880bf1948cdf22cee341a09a" target="_top" xlink:title=" ">
<polygon fill="white" stroke="black" points="341,-0.5 341,-30.5 463,-30.5 463,-0.5 341,-0.5"/>
<text text-anchor="start" x="349" y="-18.5" font-family="Helvetica,sans-Serif" font-size="10.00">MiraiCP::MessageChain</text>
<text text-anchor="middle" x="402" y="-7.5" font-family="Helvetica,sans-Serif" font-size="10.00">::toJson</text>
</a>
</g>
</g>
<!-- Node21&#45;&gt;Node22 -->
<g id="edge25" class="edge">
<title>Node21&#45;&gt;Node22</title>
<path fill="none" stroke="midnightblue" d="M294.29,-28.28C306.12,-26.86 318.61,-25.37 330.73,-23.92"/>
<polygon fill="midnightblue" stroke="midnightblue" points="331.28,-27.37 340.8,-22.71 330.45,-20.42 331.28,-27.37"/>
</g>
</g>
</svg>
