<?xml version="1.0" encoding="UTF-8" standalone="no"?>
<!DOCTYPE svg PUBLIC "-//W3C//DTD SVG 1.1//EN"
 "http://www.w3.org/Graphics/SVG/1.1/DTD/svg11.dtd">
<!-- Generated by graphviz version 2.50.0 (20211204.2007)
 -->
<!-- Title: MiraiCP::GroupInviteEvent::operation0 Pages: 1 -->
<svg width="1615pt" height="292pt"
 viewBox="0.00 0.00 1615.00 292.48" xmlns="http://www.w3.org/2000/svg" xmlns:xlink="http://www.w3.org/1999/xlink">
<g id="graph0" class="graph" transform="scale(1 1) rotate(0) translate(4 288.48)">
<title>MiraiCP::GroupInviteEvent::operation0</title>
<polygon fill="white" stroke="transparent" points="-4,4 -4,-288.48 1611,-288.48 1611,4 -4,4"/>
<!-- Node1 -->
<g id="node1" class="node">
<title>Node1</title>
<g id="a_node1"><a xlink:title=" ">
<polygon fill="#bfbfbf" stroke="black" points="0,-212.48 0,-242.48 129,-242.48 129,-212.48 0,-212.48"/>
<text text-anchor="start" x="8" y="-230.48" font-family="Helvetica,sans-Serif" font-size="10.00">MiraiCP::GroupInviteEvent</text>
<text text-anchor="middle" x="64.5" y="-219.48" font-family="Helvetica,sans-Serif" font-size="10.00">::operation0</text>
</a>
</g>
</g>
<!-- Node2 -->
<g id="node2" class="node">
<title>Node2</title>
<g id="a_node2"><a xlink:href="a00473.html#a3847df3907111c8443c1e1b71ee35d1d" target="_top" xlink:title=" ">
<polygon fill="white" stroke="black" points="165,-237.48 165,-267.48 294,-267.48 294,-237.48 165,-237.48"/>
<text text-anchor="start" x="173" y="-255.48" font-family="Helvetica,sans-Serif" font-size="10.00">MiraiCP::GroupInviteEvent</text>
<text text-anchor="middle" x="229.5" y="-244.48" font-family="Helvetica,sans-Serif" font-size="10.00">::accept</text>
</a>
</g>
</g>
<!-- Node1&#45;&gt;Node2 -->
<g id="edge1" class="edge">
<title>Node1&#45;&gt;Node2</title>
<path fill="none" stroke="midnightblue" d="M129.45,-230.68C140.38,-232.18 151.75,-233.91 162.72,-235.76"/>
<polygon fill="midnightblue" stroke="midnightblue" points="162.21,-239.22 172.66,-237.48 163.4,-232.32 162.21,-239.22"/>
</g>
<!-- Node4 -->
<g id="node4" class="node">
<title>Node4</title>
<g id="a_node4"><a xlink:href="a00673.html#af14d39efa300da183070784bc86d3f23" target="_top" xlink:title="发送错误(error级日志)">
<polygon fill="white" stroke="black" points="165.5,-188.48 165.5,-218.48 293.5,-218.48 293.5,-188.48 165.5,-188.48"/>
<text text-anchor="start" x="173.5" y="-206.48" font-family="Helvetica,sans-Serif" font-size="10.00">MiraiCP::Logger_interface</text>
<text text-anchor="middle" x="229.5" y="-195.48" font-family="Helvetica,sans-Serif" font-size="10.00">::error</text>
</a>
</g>
</g>
<!-- Node1&#45;&gt;Node4 -->
<g id="edge4" class="edge">
<title>Node1&#45;&gt;Node4</title>
<path fill="none" stroke="midnightblue" d="M129.45,-218.07C137.92,-216.82 146.64,-215.54 155.25,-214.27"/>
<polygon fill="midnightblue" stroke="midnightblue" points="155.88,-217.71 165.26,-212.79 154.86,-210.79 155.88,-217.71"/>
</g>
<!-- Node7 -->
<g id="node7" class="node">
<title>Node7</title>
<g id="a_node7"><a xlink:href="a00313.html#a309e8d7f316e8b5e947ea3bcddeb84a8" target="_top" xlink:title="调用 Mirai 操作">
<polygon fill="white" stroke="black" points="175,-139.48 175,-169.48 284,-169.48 284,-139.48 175,-139.48"/>
<text text-anchor="start" x="183" y="-157.48" font-family="Helvetica,sans-Serif" font-size="10.00">MiraiCP::KtOperation</text>
<text text-anchor="middle" x="229.5" y="-146.48" font-family="Helvetica,sans-Serif" font-size="10.00">::ktOperation</text>
</a>
</g>
</g>
<!-- Node1&#45;&gt;Node7 -->
<g id="edge7" class="edge">
<title>Node1&#45;&gt;Node7</title>
<path fill="none" stroke="midnightblue" d="M95.27,-212.4C114.9,-202.64 141.28,-189.86 165,-179.48 169.7,-177.43 174.62,-175.35 179.56,-173.33"/>
<polygon fill="midnightblue" stroke="midnightblue" points="181.06,-176.49 189.02,-169.5 178.44,-170.01 181.06,-176.49"/>
</g>
<!-- Node2&#45;&gt;Node1 -->
<g id="edge3" class="edge">
<title>Node2&#45;&gt;Node1</title>
<path fill="none" stroke="midnightblue" d="M164.74,-249.31C153.84,-247.82 142.49,-246.09 131.53,-244.25"/>
<polygon fill="midnightblue" stroke="midnightblue" points="132.04,-240.79 121.6,-242.54 130.85,-247.69 132.04,-240.79"/>
</g>
<!-- Node3 -->
<g id="node3" class="node">
<title>Node3</title>
<g id="a_node3"><a xlink:href="a00429.html#a1f208ae0f09c367c90c2e079e63048db" target="_top" xlink:title="id 在全部情况存在">
<polygon fill="white" stroke="black" points="342,-264.98 342,-283.98 446,-283.98 446,-264.98 342,-264.98"/>
<text text-anchor="middle" x="394" y="-271.98" font-family="Helvetica,sans-Serif" font-size="10.00">MiraiCP::Contact::id</text>
</a>
</g>
</g>
<!-- Node2&#45;&gt;Node3 -->
<g id="edge2" class="edge">
<title>Node2&#45;&gt;Node3</title>
<path fill="none" stroke="midnightblue" d="M294.26,-261.11C306.62,-262.79 319.56,-264.54 331.83,-266.2"/>
<polygon fill="midnightblue" stroke="midnightblue" points="331.59,-269.7 341.97,-267.57 332.53,-262.76 331.59,-269.7"/>
</g>
<!-- Node5 -->
<g id="node5" class="node">
<title>Node5</title>
<g id="a_node5"><a xlink:href="a00673.html#a98af60f864a0446e23a7a27a3419d9b8" target="_top" xlink:title=" ">
<polygon fill="white" stroke="black" points="330,-215.48 330,-245.48 458,-245.48 458,-215.48 330,-215.48"/>
<text text-anchor="start" x="338" y="-233.48" font-family="Helvetica,sans-Serif" font-size="10.00">MiraiCP::Logger_interface</text>
<text text-anchor="middle" x="394" y="-222.48" font-family="Helvetica,sans-Serif" font-size="10.00">::constructString</text>
</a>
</g>
</g>
<!-- Node4&#45;&gt;Node5 -->
<g id="edge5" class="edge">
<title>Node4&#45;&gt;Node5</title>
<path fill="none" stroke="midnightblue" d="M293.79,-214C302.31,-215.41 311.11,-216.88 319.78,-218.32"/>
<polygon fill="midnightblue" stroke="midnightblue" points="319.44,-221.81 329.88,-220 320.59,-214.9 319.44,-221.81"/>
</g>
<!-- Node6 -->
<g id="node6" class="node">
<title>Node6</title>
<g id="a_node6"><a xlink:href="a00673.html#a86ea9d57475a3004be2a32b2c4c76371" target="_top" xlink:title="日志底层实现封装">
<polygon fill="white" stroke="black" points="330,-166.48 330,-196.48 458,-196.48 458,-166.48 330,-166.48"/>
<text text-anchor="start" x="338" y="-184.48" font-family="Helvetica,sans-Serif" font-size="10.00">MiraiCP::Logger_interface</text>
<text text-anchor="middle" x="394" y="-173.48" font-family="Helvetica,sans-Serif" font-size="10.00">::log_interface</text>
</a>
</g>
</g>
<!-- Node4&#45;&gt;Node6 -->
<g id="edge6" class="edge">
<title>Node4&#45;&gt;Node6</title>
<path fill="none" stroke="midnightblue" d="M293.79,-194.91C302.31,-193.76 311.11,-192.57 319.78,-191.4"/>
<polygon fill="midnightblue" stroke="midnightblue" points="320.44,-194.84 329.88,-190.03 319.5,-187.9 320.44,-194.84"/>
</g>
<!-- Node8 -->
<g id="node8" class="node">
<title>Node8</title>
<g id="a_node8"><a xlink:href="a00313.html#a1e1e498928eeaa1d7107033ff5fa881a" target="_top" xlink:title="调用 Mirai 操作">
<polygon fill="white" stroke="black" points="339.5,-117.48 339.5,-147.48 448.5,-147.48 448.5,-117.48 339.5,-117.48"/>
<text text-anchor="start" x="347.5" y="-135.48" font-family="Helvetica,sans-Serif" font-size="10.00">MiraiCP::KtOperation</text>
<text text-anchor="middle" x="394" y="-124.48" font-family="Helvetica,sans-Serif" font-size="10.00">::ktOperationStr</text>
</a>
</g>
</g>
<!-- Node7&#45;&gt;Node8 -->
<g id="edge8" class="edge">
<title>Node7&#45;&gt;Node8</title>
<path fill="none" stroke="midnightblue" d="M284.16,-147.22C298.58,-145.27 314.32,-143.13 329.23,-141.12"/>
<polygon fill="midnightblue" stroke="midnightblue" points="329.96,-144.55 339.4,-139.74 329.02,-137.61 329.96,-144.55"/>
</g>
<!-- Node9 -->
<g id="node9" class="node">
<title>Node9</title>
<g id="a_node9"><a xlink:href="a00306.html#a89b345ec37278655b8f02d07dbb3c882" target="_top" xlink:title="interfaces for plugins">
<polygon fill="white" stroke="black" points="494,-117.48 494,-147.48 602,-147.48 602,-117.48 494,-117.48"/>
<text text-anchor="start" x="502" y="-135.48" font-family="Helvetica,sans-Serif" font-size="10.00">LibLoader::LoaderApi</text>
<text text-anchor="middle" x="548" y="-124.48" font-family="Helvetica,sans-Serif" font-size="10.00">::pluginOperation</text>
</a>
</g>
</g>
<!-- Node8&#45;&gt;Node9 -->
<g id="edge9" class="edge">
<title>Node8&#45;&gt;Node9</title>
<path fill="none" stroke="midnightblue" d="M448.59,-132.48C459.96,-132.48 472.07,-132.48 483.76,-132.48"/>
<polygon fill="midnightblue" stroke="midnightblue" points="483.89,-135.98 493.89,-132.48 483.89,-128.98 483.89,-135.98"/>
</g>
<!-- Node10 -->
<g id="node10" class="node">
<title>Node10</title>
<g id="a_node10"><a xlink:href="a00341.html#ab263deade385e7b5de856d061c6027e9" target="_top" xlink:title=" ">
<polygon fill="white" stroke="black" points="638,-180.48 638,-210.48 755,-210.48 755,-180.48 638,-180.48"/>
<text text-anchor="start" x="646" y="-198.48" font-family="Helvetica,sans-Serif" font-size="10.00">MiraiCP::MiraiCPString</text>
<text text-anchor="middle" x="696.5" y="-187.48" font-family="Helvetica,sans-Serif" font-size="10.00">::copyToCharPtr</text>
</a>
</g>
</g>
<!-- Node9&#45;&gt;Node10 -->
<g id="edge10" class="edge">
<title>Node9&#45;&gt;Node10</title>
<path fill="none" stroke="midnightblue" d="M584.09,-147.57C604.22,-156.23 629.69,-167.18 651.19,-176.43"/>
<polygon fill="midnightblue" stroke="midnightblue" points="649.87,-179.67 660.44,-180.41 652.64,-173.24 649.87,-179.67"/>
</g>
<!-- Node11 -->
<g id="node11" class="node">
<title>Node11</title>
<g id="a_node11"><a xlink:href="a00349.html#aea7d58ff9f04d6d4849c25a2506603a5" target="_top" xlink:title="取env,如果不存在重新获取">
<polygon fill="white" stroke="black" points="1244,-103.98 1244,-122.98 1363,-122.98 1363,-103.98 1244,-103.98"/>
<text text-anchor="middle" x="1303.5" y="-110.98" font-family="Helvetica,sans-Serif" font-size="10.00">JNIEnvManager::getEnv</text>
</a>
</g>
</g>
<!-- Node9&#45;&gt;Node11 -->
<g id="edge11" class="edge">
<title>Node9&#45;&gt;Node11</title>
<path fill="none" stroke="midnightblue" d="M602.21,-137.85C662.58,-143.47 764.02,-151.48 851.5,-151.48 851.5,-151.48 851.5,-151.48 1012.5,-151.48 1094.89,-151.48 1189.34,-136.22 1247.46,-125.04"/>
<polygon fill="midnightblue" stroke="midnightblue" points="1248.39,-128.42 1257.53,-123.07 1247.05,-121.55 1248.39,-128.42"/>
</g>
<!-- Node14 -->
<g id="node14" class="node">
<title>Node14</title>
<g id="a_node14"><a xlink:href="a00304.html#aa5f8d0ecd9dd392b491070aace643ae3" target="_top" xlink:title=" ">
<polygon fill="white" stroke="black" points="799,-103.98 799,-122.98 906,-122.98 906,-103.98 799,-103.98"/>
<text text-anchor="middle" x="852.5" y="-110.98" font-family="Helvetica,sans-Serif" font-size="10.00">LibLoader::jstring2str</text>
</a>
</g>
</g>
<!-- Node9&#45;&gt;Node14 -->
<g id="edge14" class="edge">
<title>Node9&#45;&gt;Node14</title>
<path fill="none" stroke="midnightblue" d="M602.04,-129.15C654.12,-125.88 733.57,-120.89 788.77,-117.42"/>
<polygon fill="midnightblue" stroke="midnightblue" points="789.02,-120.91 798.78,-116.79 788.58,-113.93 789.02,-120.91"/>
</g>
<!-- Node16 -->
<g id="node16" class="node">
<title>Node16</title>
<g id="a_node16"><a xlink:href="a00304.html#a6a6fcd695791253a9b3a053d313b2b93" target="_top" xlink:title=" ">
<polygon fill="white" stroke="black" points="643,-43.98 643,-62.98 750,-62.98 750,-43.98 643,-43.98"/>
<text text-anchor="middle" x="696.5" y="-50.98" font-family="Helvetica,sans-Serif" font-size="10.00">LibLoader::str2jstring</text>
</a>
</g>
</g>
<!-- Node9&#45;&gt;Node16 -->
<g id="edge17" class="edge">
<title>Node9&#45;&gt;Node16</title>
<path fill="none" stroke="midnightblue" d="M576.9,-117.44C603.37,-103.16 642.87,-81.87 668.9,-67.83"/>
<polygon fill="midnightblue" stroke="midnightblue" points="670.69,-70.84 677.83,-63.01 667.37,-64.68 670.69,-70.84"/>
</g>
<!-- Node12 -->
<g id="node12" class="node">
<title>Node12</title>
<g id="a_node12"><a xlink:href="a00197.html#a3d31403b7971274d47d308245206bd24" target="_top" xlink:title="为当前线程创建一个env.">
<polygon fill="white" stroke="black" points="1399,-103.98 1399,-122.98 1449,-122.98 1449,-103.98 1399,-103.98"/>
<text text-anchor="middle" x="1424" y="-110.98" font-family="Helvetica,sans-Serif" font-size="10.00">newEnv</text>
</a>
</g>
</g>
<!-- Node11&#45;&gt;Node12 -->
<g id="edge12" class="edge">
<title>Node11&#45;&gt;Node12</title>
<path fill="none" stroke="midnightblue" d="M1363.06,-113.48C1371.89,-113.48 1380.75,-113.48 1388.85,-113.48"/>
<polygon fill="midnightblue" stroke="midnightblue" points="1388.98,-116.98 1398.98,-113.48 1388.98,-109.98 1388.98,-116.98"/>
</g>
<!-- Node13 -->
<g id="node13" class="node">
<title>Node13</title>
<g id="a_node13"><a xlink:href="a00349.html#ae0e482c6a813848a8f5d34957d1b6307" target="_top" xlink:title="获取全局JavaVM对象.">
<polygon fill="white" stroke="black" points="1485,-103.98 1485,-122.98 1607,-122.98 1607,-103.98 1485,-103.98"/>
<text text-anchor="middle" x="1546" y="-110.98" font-family="Helvetica,sans-Serif" font-size="10.00">JNIEnvManager::getGvm</text>
</a>
</g>
</g>
<!-- Node12&#45;&gt;Node13 -->
<g id="edge13" class="edge">
<title>Node12&#45;&gt;Node13</title>
<path fill="none" stroke="midnightblue" d="M1449.28,-113.48C1456.75,-113.48 1465.37,-113.48 1474.32,-113.48"/>
<polygon fill="midnightblue" stroke="midnightblue" points="1474.52,-116.98 1484.52,-113.48 1474.52,-109.98 1474.52,-116.98"/>
</g>
<!-- Node15 -->
<g id="node15" class="node">
<title>Node15</title>
<g id="a_node15"><a xlink:href="a00309.html#a076c5f4ff8083c7cfc6523498d0ba30f" target="_top" xlink:title=" ">
<polygon fill="white" stroke="black" points="1109,-76.48 1109,-106.48 1208,-106.48 1208,-76.48 1109,-76.48"/>
<text text-anchor="start" x="1117" y="-94.48" font-family="Helvetica,sans-Serif" font-size="10.00">LibLoader::JNIEnvs</text>
<text text-anchor="middle" x="1158.5" y="-83.48" font-family="Helvetica,sans-Serif" font-size="10.00">::getEnv</text>
</a>
</g>
</g>
<!-- Node14&#45;&gt;Node15 -->
<g id="edge15" class="edge">
<title>Node14&#45;&gt;Node15</title>
<path fill="none" stroke="midnightblue" d="M906.11,-109.68C959.7,-105.8 1042.65,-99.79 1098.46,-95.76"/>
<polygon fill="midnightblue" stroke="midnightblue" points="1098.83,-99.24 1108.55,-95.03 1098.32,-92.26 1098.83,-99.24"/>
</g>
<!-- Node15&#45;&gt;Node11 -->
<g id="edge16" class="edge">
<title>Node15&#45;&gt;Node11</title>
<path fill="none" stroke="midnightblue" d="M1208.31,-98.99C1216.51,-100.25 1225.16,-101.58 1233.75,-102.91"/>
<polygon fill="midnightblue" stroke="midnightblue" points="1233.36,-106.39 1243.78,-104.45 1234.43,-99.47 1233.36,-106.39"/>
</g>
<!-- Node16&#45;&gt;Node15 -->
<g id="edge18" class="edge">
<title>Node16&#45;&gt;Node15</title>
<path fill="none" stroke="midnightblue" d="M750.27,-57.84C836.84,-64.99 1008.43,-79.17 1098.75,-86.63"/>
<polygon fill="midnightblue" stroke="midnightblue" points="1098.57,-90.13 1108.82,-87.46 1099.14,-83.15 1098.57,-90.13"/>
</g>
<!-- Node17 -->
<g id="node17" class="node">
<title>Node17</title>
<g id="a_node17"><a xlink:href="a00381.html#af50d0545fe7d683e54fcd03453a423e3" target="_top" xlink:title=" ">
<polygon fill="white" stroke="black" points="791,-16.48 791,-46.48 914,-46.48 914,-16.48 791,-16.48"/>
<text text-anchor="start" x="799" y="-34.48" font-family="Helvetica,sans-Serif" font-size="10.00">LibLoader::LoaderLogger</text>
<text text-anchor="middle" x="852.5" y="-23.48" font-family="Helvetica,sans-Serif" font-size="10.00">::warning</text>
</a>
</g>
</g>
<!-- Node16&#45;&gt;Node17 -->
<g id="edge19" class="edge">
<title>Node16&#45;&gt;Node17</title>
<path fill="none" stroke="midnightblue" d="M750.07,-45.97C760.04,-44.55 770.62,-43.04 781.04,-41.55"/>
<polygon fill="midnightblue" stroke="midnightblue" points="781.55,-45.01 790.95,-40.13 780.56,-38.08 781.55,-45.01"/>
</g>
<!-- Node18 -->
<g id="node18" class="node">
<title>Node18</title>
<g id="a_node18"><a xlink:href="a00381.html#af4d7d5164450e25f7401d1cc15f15b8d" target="_top" xlink:title="实际暴露的接口">
<polygon fill="white" stroke="black" points="950,-16.48 950,-46.48 1073,-46.48 1073,-16.48 950,-16.48"/>
<text text-anchor="start" x="958" y="-34.48" font-family="Helvetica,sans-Serif" font-size="10.00">LibLoader::LoaderLogger</text>
<text text-anchor="middle" x="1011.5" y="-23.48" font-family="Helvetica,sans-Serif" font-size="10.00">::call_logger</text>
</a>
</g>
</g>
<!-- Node17&#45;&gt;Node18 -->
<g id="edge20" class="edge">
<title>Node17&#45;&gt;Node18</title>
<path fill="none" stroke="midnightblue" d="M914.2,-31.48C922.64,-31.48 931.36,-31.48 939.95,-31.48"/>
<polygon fill="midnightblue" stroke="midnightblue" points="939.96,-34.98 949.96,-31.48 939.96,-27.98 939.96,-34.98"/>
</g>
<!-- Node18&#45;&gt;Node15 -->
<g id="edge21" class="edge">
<title>Node18&#45;&gt;Node15</title>
<path fill="none" stroke="midnightblue" d="M1049.09,-46.62C1068.14,-54.51 1091.61,-64.22 1111.84,-72.59"/>
<polygon fill="midnightblue" stroke="midnightblue" points="1110.6,-75.86 1121.17,-76.45 1113.27,-69.39 1110.6,-75.86"/>
</g>
<!-- Node18&#45;&gt;Node16 -->
<g id="edge22" class="edge">
<title>Node18&#45;&gt;Node16</title>
<path fill="none" stroke="midnightblue" d="M961.97,-16.47C917.11,-4.82 848.84,7.24 791,-6.48 764.99,-12.65 737.99,-27.26 719.73,-38.56"/>
<polygon fill="midnightblue" stroke="midnightblue" points="717.83,-35.63 711.27,-43.95 721.59,-41.53 717.83,-35.63"/>
</g>
</g>
</svg>
