<?xml version="1.0" encoding="UTF-8" standalone="no"?>
<!DOCTYPE svg PUBLIC "-//W3C//DTD SVG 1.1//EN"
 "http://www.w3.org/Graphics/SVG/1.1/DTD/svg11.dtd">
<!-- Generated by graphviz version 9.0.0 (0)
 -->
<!-- Title: MiraiCP::INudgeSupport Pages: 1 -->
<svg width="308pt" height="596pt"
 viewBox="0.00 0.00 308.00 596.00" xmlns="http://www.w3.org/2000/svg" xmlns:xlink="http://www.w3.org/1999/xlink">
<g id="graph0" class="graph" transform="scale(1 1) rotate(0) translate(4 592)">
<title>MiraiCP::INudgeSupport</title>
<!-- Node1 -->
<g id="Node000001" class="node">
<title>Node1</title>
<g id="a_Node000001"><a xlink:title=" ">
<polygon fill="#999999" stroke="none" points="212.5,-588 77.5,-588 77.5,-508 212.5,-508 212.5,-588"/>
<text text-anchor="start" x="91.75" y="-574.5" font-family="Helvetica,sans-Serif" font-size="10.00">MiraiCP::INudgeSupport</text>
<text text-anchor="start" x="143.5" y="-558.5" font-family="Helvetica,sans-Serif" font-size="10.00"> </text>
<text text-anchor="start" x="81.5" y="-542.5" font-family="Helvetica,sans-Serif" font-size="10.00">+</text>
<text text-anchor="start" x="91.5" y="-542.5" font-family="Helvetica,sans-Serif" font-size="10.00">virtual ~INudgeSupport</text>
<text text-anchor="start" x="91.5" y="-530.5" font-family="Helvetica,sans-Serif" font-size="10.00">()=default</text>
<text text-anchor="start" x="81.5" y="-514.5" font-family="Helvetica,sans-Serif" font-size="10.00">+</text>
<text text-anchor="start" x="91.5" y="-514.5" font-family="Helvetica,sans-Serif" font-size="10.00">virtual void sendNudge()=0</text>
<polygon fill="#666666" stroke="#666666" points="77.5,-570 77.5,-570 212.5,-570 212.5,-570 77.5,-570"/>
<polygon fill="#666666" stroke="#666666" points="77.5,-554 77.5,-554 212.5,-554 212.5,-554 77.5,-554"/>
<polygon fill="none" stroke="#666666" points="77.5,-508 77.5,-588 212.5,-588 212.5,-508 77.5,-508"/>
</a>
</g>
</g>
<!-- Node2 -->
<g id="Node000002" class="node">
<title>Node2</title>
<g id="a_Node000002"><a xlink:href="a00604.html" target="_top" xlink:title="好友类声明">
<polygon fill="white" stroke="none" points="132,-320 0,-320 0,-152 132,-152 132,-320"/>
<text text-anchor="start" x="31.88" y="-306.5" font-family="Helvetica,sans-Serif" font-size="10.00">MiraiCP::Friend</text>
<text text-anchor="start" x="64.5" y="-290.5" font-family="Helvetica,sans-Serif" font-size="10.00"> </text>
<text text-anchor="start" x="4" y="-274.5" font-family="Helvetica,sans-Serif" font-size="10.00">+</text>
<text text-anchor="start" x="14" y="-274.5" font-family="Helvetica,sans-Serif" font-size="10.00">Friend(QQID friendid,</text>
<text text-anchor="start" x="14" y="-262.5" font-family="Helvetica,sans-Serif" font-size="10.00"> QQID botid)</text>
<text text-anchor="start" x="4" y="-246.5" font-family="Helvetica,sans-Serif" font-size="10.00">+</text>
<text text-anchor="start" x="14" y="-246.5" font-family="Helvetica,sans-Serif" font-size="10.00">Friend(nlohmann::json</text>
<text text-anchor="start" x="14" y="-234.5" font-family="Helvetica,sans-Serif" font-size="10.00"> in_json)</text>
<text text-anchor="start" x="4" y="-218.5" font-family="Helvetica,sans-Serif" font-size="10.00">+</text>
<text text-anchor="start" x="14" y="-218.5" font-family="Helvetica,sans-Serif" font-size="10.00">Friend(bool)=delete</text>
<text text-anchor="start" x="4" y="-202.5" font-family="Helvetica,sans-Serif" font-size="10.00">+</text>
<text text-anchor="start" x="14" y="-202.5" font-family="Helvetica,sans-Serif" font-size="10.00">~Friend() override</text>
<text text-anchor="start" x="14" y="-190.5" font-family="Helvetica,sans-Serif" font-size="10.00">=default</text>
<text text-anchor="start" x="4" y="-174.5" font-family="Helvetica,sans-Serif" font-size="10.00">+</text>
<text text-anchor="start" x="14" y="-174.5" font-family="Helvetica,sans-Serif" font-size="10.00">void deleteFriend()</text>
<text text-anchor="start" x="4" y="-158.5" font-family="Helvetica,sans-Serif" font-size="10.00">+</text>
<text text-anchor="start" x="14" y="-158.5" font-family="Helvetica,sans-Serif" font-size="10.00">void sendNudge() override</text>
<polygon fill="#666666" stroke="#666666" points="0,-302 0,-302 132,-302 132,-302 0,-302"/>
<polygon fill="#666666" stroke="#666666" points="0,-286 0,-286 132,-286 132,-286 0,-286"/>
<polygon fill="none" stroke="#666666" points="0,-152 0,-320 132,-320 132,-152 0,-152"/>
</a>
</g>
</g>
<!-- Node1&#45;&gt;Node2 -->
<g id="edge1_Node000001_Node000002" class="edge">
<title>Node1&#45;&gt;Node2</title>
<g id="a_edge1_Node000001_Node000002"><a xlink:title=" ">
<path fill="none" stroke="#63b8ff" d="M132.27,-497.06C120.09,-449.24 101.48,-376.23 87.08,-319.72"/>
<polygon fill="none" stroke="#63b8ff" points="128.84,-497.76 134.7,-506.59 135.62,-496.03 128.84,-497.76"/>
</a>
</g>
</g>
<!-- Node3 -->
<g id="Node000003" class="node">
<title>Node3</title>
<g id="a_Node000003"><a xlink:href="a00644.html" target="_top" xlink:title="群成员类声明">
<polygon fill="white" stroke="none" points="300,-472 150,-472 150,0 300,0 300,-472"/>
<text text-anchor="start" x="186.75" y="-458.5" font-family="Helvetica,sans-Serif" font-size="10.00">MiraiCP::Member</text>
<text text-anchor="start" x="223.5" y="-442.5" font-family="Helvetica,sans-Serif" font-size="10.00"> </text>
<text text-anchor="start" x="154" y="-426.5" font-family="Helvetica,sans-Serif" font-size="10.00">+</text>
<text text-anchor="start" x="164" y="-426.5" font-family="Helvetica,sans-Serif" font-size="10.00">Member(nlohmann::json</text>
<text text-anchor="start" x="164" y="-414.5" font-family="Helvetica,sans-Serif" font-size="10.00"> in_json)</text>
<text text-anchor="start" x="154" y="-398.5" font-family="Helvetica,sans-Serif" font-size="10.00">+</text>
<text text-anchor="start" x="164" y="-398.5" font-family="Helvetica,sans-Serif" font-size="10.00">Member(QQID qqid,</text>
<text text-anchor="start" x="164" y="-386.5" font-family="Helvetica,sans-Serif" font-size="10.00"> QQID groupid, QQID</text>
<text text-anchor="start" x="164" y="-374.5" font-family="Helvetica,sans-Serif" font-size="10.00"> botid)</text>
<text text-anchor="start" x="154" y="-358.5" font-family="Helvetica,sans-Serif" font-size="10.00">+</text>
<text text-anchor="start" x="164" y="-358.5" font-family="Helvetica,sans-Serif" font-size="10.00">Member(bool)=delete</text>
<text text-anchor="start" x="154" y="-342.5" font-family="Helvetica,sans-Serif" font-size="10.00">+</text>
<text text-anchor="start" x="164" y="-342.5" font-family="Helvetica,sans-Serif" font-size="10.00">~Member() override</text>
<text text-anchor="start" x="164" y="-330.5" font-family="Helvetica,sans-Serif" font-size="10.00">=default</text>
<text text-anchor="start" x="154" y="-314.5" font-family="Helvetica,sans-Serif" font-size="10.00">+</text>
<text text-anchor="start" x="164" y="-314.5" font-family="Helvetica,sans-Serif" font-size="10.00">DECL_GETTER(bool,</text>
<text text-anchor="start" x="164" y="-302.5" font-family="Helvetica,sans-Serif" font-size="10.00"> anonymous) DECL_GETTER</text>
<text text-anchor="start" x="164" y="-290.5" font-family="Helvetica,sans-Serif" font-size="10.00">(unsigned int</text>
<text text-anchor="start" x="154" y="-274.5" font-family="Helvetica,sans-Serif" font-size="10.00">+</text>
<text text-anchor="start" x="164" y="-274.5" font-family="Helvetica,sans-Serif" font-size="10.00">permission DECL_GETTER</text>
<text text-anchor="start" x="164" y="-262.5" font-family="Helvetica,sans-Serif" font-size="10.00">(std::string, specialTitle)</text>
<text text-anchor="start" x="164" y="-250.5" font-family="Helvetica,sans-Serif" font-size="10.00"> DECL_GETTER(QQID</text>
<text text-anchor="start" x="154" y="-234.5" font-family="Helvetica,sans-Serif" font-size="10.00">+</text>
<text text-anchor="start" x="164" y="-234.5" font-family="Helvetica,sans-Serif" font-size="10.00">void modifyAdmin(bool</text>
<text text-anchor="start" x="164" y="-222.5" font-family="Helvetica,sans-Serif" font-size="10.00"> admin)</text>
<text text-anchor="start" x="154" y="-206.5" font-family="Helvetica,sans-Serif" font-size="10.00">+</text>
<text text-anchor="start" x="164" y="-206.5" font-family="Helvetica,sans-Serif" font-size="10.00">void changeSpecialTitle</text>
<text text-anchor="start" x="164" y="-194.5" font-family="Helvetica,sans-Serif" font-size="10.00">(std::string_view)</text>
<text text-anchor="start" x="154" y="-178.5" font-family="Helvetica,sans-Serif" font-size="10.00">+</text>
<text text-anchor="start" x="164" y="-178.5" font-family="Helvetica,sans-Serif" font-size="10.00">MessageSource sendVoice</text>
<text text-anchor="start" x="164" y="-166.5" font-family="Helvetica,sans-Serif" font-size="10.00">(std::string path)</text>
<text text-anchor="start" x="154" y="-150.5" font-family="Helvetica,sans-Serif" font-size="10.00">+</text>
<text text-anchor="start" x="164" y="-150.5" font-family="Helvetica,sans-Serif" font-size="10.00">void mute(long long</text>
<text text-anchor="start" x="164" y="-138.5" font-family="Helvetica,sans-Serif" font-size="10.00"> sec) const</text>
<text text-anchor="start" x="154" y="-122.5" font-family="Helvetica,sans-Serif" font-size="10.00">+</text>
<text text-anchor="start" x="164" y="-122.5" font-family="Helvetica,sans-Serif" font-size="10.00">void mute(std::chrono</text>
<text text-anchor="start" x="164" y="-110.5" font-family="Helvetica,sans-Serif" font-size="10.00">::seconds time) const</text>
<text text-anchor="start" x="154" y="-94.5" font-family="Helvetica,sans-Serif" font-size="10.00">+</text>
<text text-anchor="start" x="164" y="-94.5" font-family="Helvetica,sans-Serif" font-size="10.00">void unMute() const</text>
<text text-anchor="start" x="154" y="-78.5" font-family="Helvetica,sans-Serif" font-size="10.00">+</text>
<text text-anchor="start" x="164" y="-78.5" font-family="Helvetica,sans-Serif" font-size="10.00">void kick(std::string</text>
<text text-anchor="start" x="164" y="-66.5" font-family="Helvetica,sans-Serif" font-size="10.00"> reason)</text>
<text text-anchor="start" x="154" y="-50.5" font-family="Helvetica,sans-Serif" font-size="10.00">+</text>
<text text-anchor="start" x="164" y="-50.5" font-family="Helvetica,sans-Serif" font-size="10.00">At at()</text>
<text text-anchor="start" x="154" y="-34.5" font-family="Helvetica,sans-Serif" font-size="10.00">+</text>
<text text-anchor="start" x="164" y="-34.5" font-family="Helvetica,sans-Serif" font-size="10.00">void changeNameCard</text>
<text text-anchor="start" x="164" y="-22.5" font-family="Helvetica,sans-Serif" font-size="10.00">(std::string_view newName)</text>
<text text-anchor="start" x="154" y="-6.5" font-family="Helvetica,sans-Serif" font-size="10.00">+</text>
<text text-anchor="start" x="164" y="-6.5" font-family="Helvetica,sans-Serif" font-size="10.00">void sendNudge() override</text>
<polygon fill="#666666" stroke="#666666" points="150,-454 150,-454 300,-454 300,-454 150,-454"/>
<polygon fill="#666666" stroke="#666666" points="150,-438 150,-438 300,-438 300,-438 150,-438"/>
<polygon fill="none" stroke="#666666" points="150,0 150,-472 300,-472 300,0 150,0"/>
</a>
</g>
</g>
<!-- Node1&#45;&gt;Node3 -->
<g id="edge2_Node000001_Node000003" class="edge">
<title>Node1&#45;&gt;Node3</title>
<g id="a_edge2_Node000001_Node000003"><a xlink:title=" ">
<path fill="none" stroke="#63b8ff" d="M157.87,-497.12C159.88,-489.32 162.07,-480.85 164.38,-471.89"/>
<polygon fill="none" stroke="#63b8ff" points="154.54,-496.03 155.43,-506.59 161.32,-497.78 154.54,-496.03"/>
</a>
</g>
</g>
</g>
</svg>
