<?xml version="1.0" encoding="UTF-8" standalone="no"?>
<!DOCTYPE svg PUBLIC "-//W3C//DTD SVG 1.1//EN"
 "http://www.w3.org/Graphics/SVG/1.1/DTD/svg11.dtd">
<!-- Generated by graphviz version 9.0.0 (0)
 -->
<!-- Title: MiraiCP::Redirector::reset Pages: 1 -->
<svg width="1625pt" height="282pt"
 viewBox="0.00 0.00 1624.50 282.00" xmlns="http://www.w3.org/2000/svg" xmlns:xlink="http://www.w3.org/1999/xlink">
<g id="graph0" class="graph" transform="scale(1 1) rotate(0) translate(4 278)">
<title>MiraiCP::Redirector::reset</title>
<!-- Node1 -->
<g id="Node000001" class="node">
<title>Node1</title>
<g id="a_Node000001"><a xlink:title="reset all redirecting">
<polygon fill="#999999" stroke="#666666" points="1616.5,-190 1514.25,-190 1514.25,-158 1616.5,-158 1616.5,-190"/>
<text text-anchor="start" x="1522.25" y="-176.5" font-family="Helvetica,sans-Serif" font-size="10.00">MiraiCP::Redirector</text>
<text text-anchor="middle" x="1565.38" y="-164.5" font-family="Helvetica,sans-Serif" font-size="10.00">::reset</text>
</a>
</g>
</g>
<!-- Node2 -->
<g id="Node000002" class="node">
<title>Node2</title>
<g id="a_Node000002"><a xlink:href="a00880.html#a6d477440277d3907b96261db3a222d96" target="_top" xlink:title=" ">
<polygon fill="white" stroke="#666666" points="1478.25,-190 1364,-190 1364,-158 1478.25,-158 1478.25,-190"/>
<text text-anchor="start" x="1372" y="-176.5" font-family="Helvetica,sans-Serif" font-size="10.00">LibLoader::LoaderMain</text>
<text text-anchor="middle" x="1421.12" y="-164.5" font-family="Helvetica,sans-Serif" font-size="10.00">::shutdownLoader</text>
</a>
</g>
</g>
<!-- Node1&#45;&gt;Node2 -->
<g id="edge1_Node000001_Node000002" class="edge">
<title>Node1&#45;&gt;Node2</title>
<g id="a_edge1_Node000001_Node000002"><a xlink:title=" ">
<path fill="none" stroke="#63b8ff" d="M1502.58,-174C1494.51,-174 1486.29,-174 1478.32,-174"/>
<polygon fill="#63b8ff" stroke="#63b8ff" points="1502.31,-177.5 1512.31,-174 1502.31,-170.5 1502.31,-177.5"/>
</a>
</g>
</g>
<!-- Node3 -->
<g id="Node000003" class="node">
<title>Node3</title>
<g id="a_Node000003"><a xlink:href="a00880.html#a79cbc18aabed7afe2c7ea30f989ffc8c" target="_top" xlink:title="LoaderMain实现开始">
<polygon fill="white" stroke="#666666" points="1328,-190 1213.75,-190 1213.75,-158 1328,-158 1328,-190"/>
<text text-anchor="start" x="1221.75" y="-176.5" font-family="Helvetica,sans-Serif" font-size="10.00">LibLoader::LoaderMain</text>
<text text-anchor="middle" x="1270.88" y="-164.5" font-family="Helvetica,sans-Serif" font-size="10.00">::loaderMain</text>
</a>
</g>
</g>
<!-- Node2&#45;&gt;Node3 -->
<g id="edge2_Node000002_Node000003" class="edge">
<title>Node2&#45;&gt;Node3</title>
<g id="a_edge2_Node000002_Node000003"><a xlink:title=" ">
<path fill="none" stroke="#63b8ff" d="M1352.34,-174C1344.26,-174 1336.08,-174 1328.19,-174"/>
<polygon fill="#63b8ff" stroke="#63b8ff" points="1352.14,-177.5 1362.14,-174 1352.14,-170.5 1352.14,-177.5"/>
</a>
</g>
</g>
<!-- Node4 -->
<g id="Node000004" class="node">
<title>Node4</title>
<g id="a_Node000004"><a xlink:href="a00880.html#a22eacbd6aa585f32d0fccce0a69ab642" target="_top" xlink:title=" ">
<polygon fill="white" stroke="#666666" points="1177.75,-137 1044,-137 1044,-117 1177.75,-117 1177.75,-137"/>
<text text-anchor="middle" x="1110.88" y="-123.5" font-family="Helvetica,sans-Serif" font-size="10.00">LibLoader::LoaderMain::get</text>
</a>
</g>
</g>
<!-- Node3&#45;&gt;Node4 -->
<g id="edge3_Node000003_Node000004" class="edge">
<title>Node3&#45;&gt;Node4</title>
<g id="a_edge3_Node000003_Node000004"><a xlink:title=" ">
<path fill="none" stroke="#63b8ff" d="M1203.66,-154.3C1184.24,-148.53 1163.77,-142.44 1147.1,-137.48"/>
<polygon fill="#63b8ff" stroke="#63b8ff" points="1202.58,-157.63 1213.16,-157.13 1204.58,-150.92 1202.58,-157.63"/>
</a>
</g>
</g>
<!-- Node25 -->
<g id="Node000025" class="node">
<title>Node25</title>
<g id="a_Node000025"><a xlink:href="a00314.html#aafbc26593c69471626589f38c751ef09" target="_top" xlink:title=" ">
<polygon fill="white" stroke="#666666" points="973.12,-70 913.62,-70 913.62,-50 973.12,-50 973.12,-70"/>
<text text-anchor="middle" x="943.38" y="-56.5" font-family="Helvetica,sans-Serif" font-size="10.00">VerifyImpl</text>
</a>
</g>
</g>
<!-- Node3&#45;&gt;Node25 -->
<g id="edge29_Node000003_Node000025" class="edge">
<title>Node3&#45;&gt;Node25</title>
<g id="a_edge29_Node000003_Node000025"><a xlink:title=" ">
<path fill="none" stroke="#63b8ff" d="M1243.39,-150.42C1225.9,-136.07 1201.85,-118.54 1177.75,-108 1108.39,-77.67 1018.94,-66.17 973.56,-62.08"/>
<polygon fill="#63b8ff" stroke="#63b8ff" points="1240.83,-152.84 1250.74,-156.6 1245.34,-147.49 1240.83,-152.84"/>
</a>
</g>
</g>
<!-- Node5 -->
<g id="Node000005" class="node">
<title>Node5</title>
<g id="a_Node000005"><a xlink:href="a00425.html#a46f4ab12479d61956e7dc81cfb19fef5" target="_top" xlink:title=" ">
<polygon fill="white" stroke="#666666" points="1008,-146 878.75,-146 878.75,-126 1008,-126 1008,-146"/>
<text text-anchor="middle" x="943.38" y="-132.5" font-family="Helvetica,sans-Serif" font-size="10.00">LibLoader::loaderWakeCV</text>
</a>
</g>
</g>
<!-- Node4&#45;&gt;Node5 -->
<g id="edge4_Node000004_Node000005" class="edge">
<title>Node4&#45;&gt;Node5</title>
<g id="a_edge4_Node000004_Node000005"><a xlink:title=" ">
<path fill="none" stroke="#63b8ff" d="M1032.26,-131.22C1024.25,-131.66 1016.17,-132.1 1008.33,-132.52"/>
<polygon fill="#63b8ff" stroke="#63b8ff" points="1032.21,-134.73 1042,-130.69 1031.83,-127.74 1032.21,-134.73"/>
</a>
</g>
</g>
<!-- Node13 -->
<g id="Node000013" class="node">
<title>Node13</title>
<g id="a_Node000013"><a xlink:href="a00314.html#a2e0217581c8df7fd1fc867cc3a8317d3" target="_top" xlink:title=" ">
<polygon fill="white" stroke="#666666" points="831.88,-58 737.12,-58 737.12,-38 831.88,-38 831.88,-58"/>
<text text-anchor="middle" x="784.5" y="-44.5" font-family="Helvetica,sans-Serif" font-size="10.00">PluginDisableImpl</text>
</a>
</g>
</g>
<!-- Node4&#45;&gt;Node13 -->
<g id="edge26_Node000004_Node000013" class="edge">
<title>Node4&#45;&gt;Node13</title>
<g id="a_edge26_Node000004_Node000013"><a xlink:title=" ">
<path fill="none" stroke="#63b8ff" d="M1038.99,-114.5C992.99,-105.85 931.94,-93.34 878.75,-79 862.47,-74.61 858.75,-72.32 842.75,-67 834.4,-64.22 825.37,-61.22 817,-58.45"/>
<polygon fill="#63b8ff" stroke="#63b8ff" points="1038.08,-117.9 1048.56,-116.29 1039.37,-111.01 1038.08,-117.9"/>
</a>
</g>
</g>
<!-- Node4&#45;&gt;Node25 -->
<g id="edge27_Node000004_Node000025" class="edge">
<title>Node4&#45;&gt;Node25</title>
<g id="a_edge27_Node000004_Node000025"><a xlink:title=" ">
<path fill="none" stroke="#63b8ff" d="M1075.78,-112.22C1056.05,-103.77 1030.71,-93.07 1008,-84 996.49,-79.4 983.72,-74.54 972.65,-70.4"/>
<polygon fill="#63b8ff" stroke="#63b8ff" points="1074.15,-115.33 1084.71,-116.06 1076.91,-108.9 1074.15,-115.33"/>
</a>
</g>
</g>
<!-- Node6 -->
<g id="Node000006" class="node">
<title>Node6</title>
<g id="a_Node000006"><a xlink:href="a00880.html#a9ca8ba2c9fcbfade9adf4a0a2bb47eaa" target="_top" xlink:title=" ">
<polygon fill="white" stroke="#666666" points="841.62,-246 727.38,-246 727.38,-214 841.62,-214 841.62,-246"/>
<text text-anchor="start" x="735.38" y="-232.5" font-family="Helvetica,sans-Serif" font-size="10.00">LibLoader::LoaderMain</text>
<text text-anchor="middle" x="784.5" y="-220.5" font-family="Helvetica,sans-Serif" font-size="10.00">::mainloop</text>
</a>
</g>
</g>
<!-- Node5&#45;&gt;Node6 -->
<g id="edge5_Node000005_Node000006" class="edge">
<title>Node5&#45;&gt;Node6</title>
<g id="a_edge5_Node000005_Node000006"><a xlink:title=" ">
<path fill="none" stroke="#63b8ff" d="M920.01,-153.37C900.34,-168.18 870.57,-189.48 842.75,-205 837.35,-208.01 831.52,-210.92 825.71,-213.62"/>
<polygon fill="#63b8ff" stroke="#63b8ff" points="922.02,-156.24 927.86,-147.39 917.78,-150.67 922.02,-156.24"/>
</a>
</g>
</g>
<!-- Node7 -->
<g id="Node000007" class="node">
<title>Node7</title>
<g id="a_Node000007"><a xlink:href="a00281.html#a36a04ab86ecc081ee51d32866ef7a332" target="_top" xlink:title=" ">
<polygon fill="white" stroke="#666666" points="834.88,-108 734.12,-108 734.12,-76 834.88,-76 834.88,-108"/>
<text text-anchor="start" x="742.12" y="-94.5" font-family="Helvetica,sans-Serif" font-size="10.00">plugin_raw_API_try</text>
<text text-anchor="middle" x="784.5" y="-82.5" font-family="Helvetica,sans-Serif" font-size="10.00">_wake_loader</text>
</a>
</g>
</g>
<!-- Node5&#45;&gt;Node7 -->
<g id="edge7_Node000005_Node000007" class="edge">
<title>Node5&#45;&gt;Node7</title>
<g id="a_edge7_Node000005_Node000007"><a xlink:title=" ">
<path fill="none" stroke="#63b8ff" d="M894.23,-122.5C875.5,-117.24 854.05,-111.23 835.17,-105.93"/>
<polygon fill="#63b8ff" stroke="#63b8ff" points="893.17,-125.83 903.74,-125.16 895.06,-119.09 893.17,-125.83"/>
</a>
</g>
</g>
<!-- Node5&#45;&gt;Node13 -->
<g id="edge13_Node000005_Node000013" class="edge">
<title>Node5&#45;&gt;Node13</title>
<g id="a_edge13_Node000005_Node000013"><a xlink:title=" ">
<path fill="none" stroke="#63b8ff" d="M894.15,-121.03C888.73,-118.42 883.46,-115.43 878.75,-112 858.03,-96.94 863.77,-81.64 842.75,-67 837.85,-63.59 832.3,-60.76 826.62,-58.41"/>
<polygon fill="#63b8ff" stroke="#63b8ff" points="892.72,-124.22 903.28,-124.97 895.49,-117.79 892.72,-124.22"/>
</a>
</g>
</g>
<!-- Node15 -->
<g id="Node000015" class="node">
<title>Node15</title>
<g id="a_Node000015"><a xlink:href="a00432.html#a746efd674de5c56de789a0c03be7948e" target="_top" xlink:title="新增一个计时器，对接libLoader API">
<polygon fill="white" stroke="#666666" points="838.25,-196 730.75,-196 730.75,-164 838.25,-164 838.25,-196"/>
<text text-anchor="start" x="738.75" y="-182.5" font-family="Helvetica,sans-Serif" font-size="10.00">LibLoader::Scheduler</text>
<text text-anchor="middle" x="784.5" y="-170.5" font-family="Helvetica,sans-Serif" font-size="10.00">::timer</text>
</a>
</g>
</g>
<!-- Node5&#45;&gt;Node15 -->
<g id="edge15_Node000005_Node000015" class="edge">
<title>Node5&#45;&gt;Node15</title>
<g id="a_edge15_Node000005_Node000015"><a xlink:title=" ">
<path fill="none" stroke="#63b8ff" d="M894.57,-149.41C876.93,-154.36 856.83,-159.99 838.74,-165.07"/>
<polygon fill="#63b8ff" stroke="#63b8ff" points="895.06,-152.91 903.74,-146.84 893.17,-146.17 895.06,-152.91"/>
</a>
</g>
</g>
<!-- Node22 -->
<g id="Node000022" class="node">
<title>Node22</title>
<g id="a_Node000022"><a xlink:href="a00425.html#a4bd4ee75c4f2ea14034626c7cbf73bb4" target="_top" xlink:title=" ">
<polygon fill="white" stroke="#666666" points="842.75,-146 726.25,-146 726.25,-126 842.75,-126 842.75,-146"/>
<text text-anchor="middle" x="784.5" y="-132.5" font-family="Helvetica,sans-Serif" font-size="10.00">LibLoader::wakeLoader</text>
</a>
</g>
</g>
<!-- Node5&#45;&gt;Node22 -->
<g id="edge23_Node000005_Node000022" class="edge">
<title>Node5&#45;&gt;Node22</title>
<g id="a_edge23_Node000005_Node000022"><a xlink:title=" ">
<path fill="none" stroke="#63b8ff" d="M867.22,-136C859.14,-136 851.02,-136 843.19,-136"/>
<polygon fill="#63b8ff" stroke="#63b8ff" points="867.05,-139.5 877.05,-136 867.05,-132.5 867.05,-139.5"/>
</a>
</g>
</g>
<!-- Node6&#45;&gt;Node3 -->
<g id="edge6_Node000006_Node000003" class="edge">
<title>Node6&#45;&gt;Node3</title>
<g id="a_edge6_Node000006_Node000003"><a xlink:title=" ">
<path fill="none" stroke="#63b8ff" d="M853.36,-222.15C949.55,-211.03 1123.79,-190.89 1213.36,-180.53"/>
<polygon fill="#63b8ff" stroke="#63b8ff" points="853.06,-218.67 843.53,-223.29 853.87,-225.62 853.06,-218.67"/>
</a>
</g>
</g>
<!-- Node8 -->
<g id="Node000008" class="node">
<title>Node8</title>
<g id="a_Node000008"><a xlink:href="a00916.html#a14895bee64bb1c12e16b97d038b699b7" target="_top" xlink:title="这部分是一些工具函数、对象">
<polygon fill="white" stroke="#666666" points="661,-108 564,-108 564,-76 661,-76 661,-108"/>
<text text-anchor="start" x="572" y="-94.5" font-family="Helvetica,sans-Serif" font-size="10.00">LibLoader::Plugin::</text>
<text text-anchor="middle" x="612.5" y="-82.5" font-family="Helvetica,sans-Serif" font-size="10.00">callEntrance</text>
</a>
</g>
</g>
<!-- Node7&#45;&gt;Node8 -->
<g id="edge8_Node000007_Node000008" class="edge">
<title>Node7&#45;&gt;Node8</title>
<g id="a_edge8_Node000007_Node000008"><a xlink:title=" ">
<path fill="none" stroke="#63b8ff" d="M722.62,-92C702.51,-92 680.43,-92 661.43,-92"/>
<polygon fill="#63b8ff" stroke="#63b8ff" points="722.36,-95.5 732.36,-92 722.36,-88.5 722.36,-95.5"/>
</a>
</g>
</g>
<!-- Node9 -->
<g id="Node000009" class="node">
<title>Node9</title>
<g id="a_Node000009"><a xlink:href="a00916.html#a450c1c6820ab6c5417691359d88d8220" target="_top" xlink:title=" ">
<polygon fill="white" stroke="#666666" points="478.5,-108 381.5,-108 381.5,-76 478.5,-76 478.5,-108"/>
<text text-anchor="start" x="389.5" y="-94.5" font-family="Helvetica,sans-Serif" font-size="10.00">LibLoader::Plugin::</text>
<text text-anchor="middle" x="430" y="-82.5" font-family="Helvetica,sans-Serif" font-size="10.00">enableInternal</text>
</a>
</g>
</g>
<!-- Node8&#45;&gt;Node9 -->
<g id="edge9_Node000008_Node000009" class="edge">
<title>Node8&#45;&gt;Node9</title>
<g id="a_edge9_Node000008_Node000009"><a xlink:title=" ">
<path fill="none" stroke="#63b8ff" d="M552.21,-92C528.4,-92 501.32,-92 478.81,-92"/>
<polygon fill="#63b8ff" stroke="#63b8ff" points="552.09,-95.5 562.09,-92 552.09,-88.5 552.09,-95.5"/>
</a>
</g>
</g>
<!-- Node10 -->
<g id="Node000010" class="node">
<title>Node10</title>
<g id="a_Node000010"><a xlink:href="a00916.html#a549e3729f8aeb27208ef5aecb434eef1" target="_top" xlink:title=" ">
<polygon fill="white" stroke="#666666" points="299.75,-133 202.75,-133 202.75,-101 299.75,-101 299.75,-133"/>
<text text-anchor="start" x="210.75" y="-119.5" font-family="Helvetica,sans-Serif" font-size="10.00">LibLoader::Plugin::</text>
<text text-anchor="middle" x="251.25" y="-107.5" font-family="Helvetica,sans-Serif" font-size="10.00">enablePlugin</text>
</a>
</g>
</g>
<!-- Node9&#45;&gt;Node10 -->
<g id="edge10_Node000009_Node000010" class="edge">
<title>Node9&#45;&gt;Node10</title>
<g id="a_edge10_Node000009_Node000010"><a xlink:title=" ">
<path fill="none" stroke="#63b8ff" d="M369.95,-100.35C347.25,-103.56 321.64,-107.19 300.12,-110.23"/>
<polygon fill="#63b8ff" stroke="#63b8ff" points="370.26,-103.84 379.67,-98.98 369.28,-96.91 370.26,-103.84"/>
</a>
</g>
</g>
<!-- Node11 -->
<g id="Node000011" class="node">
<title>Node11</title>
<g id="a_Node000011"><a xlink:href="a00916.html#a8636d0418d741a19bbd9183316cd5c59" target="_top" xlink:title=" ">
<polygon fill="white" stroke="#666666" points="299.75,-83 202.75,-83 202.75,-51 299.75,-51 299.75,-83"/>
<text text-anchor="start" x="210.75" y="-69.5" font-family="Helvetica,sans-Serif" font-size="10.00">LibLoader::Plugin::</text>
<text text-anchor="middle" x="251.25" y="-57.5" font-family="Helvetica,sans-Serif" font-size="10.00">loadInternal</text>
</a>
</g>
</g>
<!-- Node9&#45;&gt;Node11 -->
<g id="edge11_Node000009_Node000011" class="edge">
<title>Node9&#45;&gt;Node11</title>
<g id="a_edge11_Node000009_Node000011"><a xlink:title=" ">
<path fill="none" stroke="#63b8ff" d="M369.95,-83.65C347.25,-80.44 321.64,-76.81 300.12,-73.77"/>
<polygon fill="#63b8ff" stroke="#63b8ff" points="369.28,-87.09 379.67,-85.02 370.26,-80.16 369.28,-87.09"/>
</a>
</g>
</g>
<!-- Node12 -->
<g id="Node000012" class="node">
<title>Node12</title>
<g id="a_Node000012"><a xlink:href="a00916.html#a891ce42f23fe1312ef6cad2accf4ab92" target="_top" xlink:title=" ">
<polygon fill="white" stroke="#666666" points="119.12,-83 22.12,-83 22.12,-51 119.12,-51 119.12,-83"/>
<text text-anchor="start" x="30.12" y="-69.5" font-family="Helvetica,sans-Serif" font-size="10.00">LibLoader::Plugin::</text>
<text text-anchor="middle" x="70.62" y="-57.5" font-family="Helvetica,sans-Serif" font-size="10.00">loadPlugin</text>
</a>
</g>
</g>
<!-- Node11&#45;&gt;Node12 -->
<g id="edge12_Node000011_Node000012" class="edge">
<title>Node11&#45;&gt;Node12</title>
<g id="a_edge12_Node000011_Node000012"><a xlink:title=" ">
<path fill="none" stroke="#63b8ff" d="M190.89,-67C167.63,-67 141.31,-67 119.32,-67"/>
<polygon fill="#63b8ff" stroke="#63b8ff" points="190.87,-70.5 200.87,-67 190.87,-63.5 190.87,-70.5"/>
</a>
</g>
</g>
<!-- Node14 -->
<g id="Node000014" class="node">
<title>Node14</title>
<g id="a_Node000014"><a xlink:href="a00314.html#a054b75b2be22897678d22ce9a72d91df" target="_top" xlink:title=" ">
<polygon fill="white" stroke="#666666" points="650.5,-58 574.5,-58 574.5,-38 650.5,-38 650.5,-58"/>
<text text-anchor="middle" x="612.5" y="-44.5" font-family="Helvetica,sans-Serif" font-size="10.00">PluginDisable</text>
</a>
</g>
</g>
<!-- Node13&#45;&gt;Node14 -->
<g id="edge14_Node000013_Node000014" class="edge">
<title>Node13&#45;&gt;Node14</title>
<g id="a_edge14_Node000013_Node000014"><a xlink:title=" ">
<path fill="none" stroke="#63b8ff" d="M725.58,-48C700.83,-48 672.66,-48 650.75,-48"/>
<polygon fill="#63b8ff" stroke="#63b8ff" points="725.53,-51.5 735.53,-48 725.53,-44.5 725.53,-51.5"/>
</a>
</g>
</g>
<!-- Node16 -->
<g id="Node000016" class="node">
<title>Node16</title>
<g id="a_Node000016"><a xlink:href="a00426.html#a05f1524120bb7a5a65abbde063d9e557" target="_top" xlink:title=" ">
<polygon fill="white" stroke="#666666" points="666.25,-234 558.75,-234 558.75,-202 666.25,-202 666.25,-234"/>
<text text-anchor="start" x="566.75" y="-220.5" font-family="Helvetica,sans-Serif" font-size="10.00">LibLoader::LoaderApi</text>
<text text-anchor="middle" x="612.5" y="-208.5" font-family="Helvetica,sans-Serif" font-size="10.00">::timer</text>
</a>
</g>
</g>
<!-- Node15&#45;&gt;Node16 -->
<g id="edge16_Node000015_Node000016" class="edge">
<title>Node15&#45;&gt;Node16</title>
<g id="a_edge16_Node000015_Node000016"><a xlink:title=" ">
<path fill="none" stroke="#63b8ff" d="M719.42,-194.32C702.01,-198.22 683.35,-202.39 666.62,-206.13"/>
<polygon fill="#63b8ff" stroke="#63b8ff" points="720.17,-197.74 729.17,-192.15 718.64,-190.91 720.17,-197.74"/>
</a>
</g>
</g>
<!-- Node17 -->
<g id="Node000017" class="node">
<title>Node17</title>
<g id="a_Node000017"><a xlink:href="a00412.html#a0edd1fee858de73bb144b4f7832a573d" target="_top" xlink:title="定时任务, 在一定时间后广播**一次**TimeOutEvent">
<polygon fill="white" stroke="#666666" points="478.12,-246 381.88,-246 381.88,-226 478.12,-226 478.12,-246"/>
<text text-anchor="middle" x="430" y="-232.5" font-family="Helvetica,sans-Serif" font-size="10.00">MiraiCP::schedule</text>
</a>
</g>
</g>
<!-- Node16&#45;&gt;Node17 -->
<g id="edge17_Node000016_Node000017" class="edge">
<title>Node16&#45;&gt;Node17</title>
<g id="a_edge17_Node000016_Node000017"><a xlink:title=" ">
<path fill="none" stroke="#63b8ff" d="M547.1,-224.42C524.5,-226.68 499.55,-229.16 478.58,-231.26"/>
<polygon fill="#63b8ff" stroke="#63b8ff" points="547.21,-227.93 556.81,-223.45 546.52,-220.96 547.21,-227.93"/>
</a>
</g>
</g>
<!-- Node19 -->
<g id="Node000019" class="node">
<title>Node19</title>
<g id="a_Node000019"><a xlink:href="a00431.html#ac6360f8f60a063ca92ee816f65a8a2a1" target="_top" xlink:title=" ">
<polygon fill="white" stroke="#666666" points="498.75,-208 361.25,-208 361.25,-176 498.75,-176 498.75,-208"/>
<text text-anchor="start" x="369.25" y="-194.5" font-family="Helvetica,sans-Serif" font-size="10.00">LibLoader::MessageHandler</text>
<text text-anchor="middle" x="430" y="-182.5" font-family="Helvetica,sans-Serif" font-size="10.00">::timer_message</text>
</a>
</g>
</g>
<!-- Node16&#45;&gt;Node19 -->
<g id="edge19_Node000016_Node000019" class="edge">
<title>Node16&#45;&gt;Node19</title>
<g id="a_edge19_Node000016_Node000019"><a xlink:title=" ">
<path fill="none" stroke="#63b8ff" d="M547.22,-208.74C531.65,-206.5 514.96,-204.09 499.22,-201.83"/>
<polygon fill="#63b8ff" stroke="#63b8ff" points="546.43,-212.16 556.82,-210.12 547.42,-205.23 546.43,-212.16"/>
</a>
</g>
</g>
<!-- Node18 -->
<g id="Node000018" class="node">
<title>Node18</title>
<g id="a_Node000018"><a xlink:href="a00412.html#a9d9b304caa9cf25c6f148b99ee9651f6" target="_top" xlink:title="定时任务, 在一定时间后广播**一次**TimeOutEvent，chrono重载">
<polygon fill="white" stroke="#666666" points="299.38,-246 203.12,-246 203.12,-226 299.38,-226 299.38,-246"/>
<text text-anchor="middle" x="251.25" y="-232.5" font-family="Helvetica,sans-Serif" font-size="10.00">MiraiCP::schedule</text>
</a>
</g>
</g>
<!-- Node17&#45;&gt;Node18 -->
<g id="edge18_Node000017_Node000018" class="edge">
<title>Node17&#45;&gt;Node18</title>
<g id="a_edge18_Node000017_Node000018"><a xlink:title=" ">
<path fill="none" stroke="#63b8ff" d="M370.31,-236C347.39,-236 321.46,-236 299.75,-236"/>
<polygon fill="#63b8ff" stroke="#63b8ff" points="370.12,-239.5 380.12,-236 370.12,-232.5 370.12,-239.5"/>
</a>
</g>
</g>
<!-- Node20 -->
<g id="Node000020" class="node">
<title>Node20</title>
<g id="a_Node000020"><a xlink:href="a00892.html#ac44a2bba9059176d3ccb04ed1eb065a3" target="_top" xlink:title=" ">
<polygon fill="white" stroke="#666666" points="325.25,-208 177.25,-208 177.25,-176 325.25,-176 325.25,-208"/>
<text text-anchor="start" x="185.25" y="-194.5" font-family="Helvetica,sans-Serif" font-size="10.00">LibLoader::MessageProcessor</text>
<text text-anchor="middle" x="251.25" y="-182.5" font-family="Helvetica,sans-Serif" font-size="10.00">::registerDefaultHandlers</text>
</a>
</g>
</g>
<!-- Node19&#45;&gt;Node20 -->
<g id="edge20_Node000019_Node000020" class="edge">
<title>Node19&#45;&gt;Node20</title>
<g id="a_edge20_Node000019_Node000020"><a xlink:title=" ">
<path fill="none" stroke="#63b8ff" d="M349.67,-192C341.65,-192 333.53,-192 325.58,-192"/>
<polygon fill="#63b8ff" stroke="#63b8ff" points="349.4,-195.5 359.4,-192 349.4,-188.5 349.4,-195.5"/>
</a>
</g>
</g>
<!-- Node21 -->
<g id="Node000021" class="node">
<title>Node21</title>
<g id="a_Node000021"><a xlink:href="a00884.html#ac95c9bf6b208cbeab2e9b1cdfcb7c3d6" target="_top" xlink:title=" ">
<polygon fill="white" stroke="#666666" points="141.25,-249 0,-249 0,-217 141.25,-217 141.25,-249"/>
<text text-anchor="start" x="8" y="-235.5" font-family="Helvetica,sans-Serif" font-size="10.00">LibLoader::MessageManager</text>
<text text-anchor="middle" x="70.62" y="-223.5" font-family="Helvetica,sans-Serif" font-size="10.00">::init</text>
</a>
</g>
</g>
<!-- Node20&#45;&gt;Node21 -->
<g id="edge21_Node000020_Node000021" class="edge">
<title>Node20&#45;&gt;Node21</title>
<g id="a_edge21_Node000020_Node000021"><a xlink:title=" ">
<path fill="none" stroke="#63b8ff" d="M167.19,-211.06C158.64,-213.03 150.01,-215.01 141.62,-216.93"/>
<polygon fill="#63b8ff" stroke="#63b8ff" points="167.93,-214.49 176.89,-208.84 166.36,-207.66 167.93,-214.49"/>
</a>
</g>
</g>
<!-- Node21&#45;&gt;Node3 -->
<g id="edge22_Node000021_Node000003" class="edge">
<title>Node21&#45;&gt;Node3</title>
<g id="a_edge22_Node000021_Node000003"><a xlink:title=" ">
<path fill="none" stroke="#63b8ff" d="M152.77,-251.01C161.01,-252.51 169.28,-253.87 177.25,-255 288.35,-270.7 316.79,-274 429,-274 944.38,-274 944.38,-274 944.38,-274 1056.99,-274 1182.25,-218.63 1238.97,-190.29"/>
<polygon fill="#63b8ff" stroke="#63b8ff" points="153.53,-247.59 143.06,-249.18 152.23,-254.47 153.53,-247.59"/>
</a>
</g>
</g>
<!-- Node23 -->
<g id="Node000023" class="node">
<title>Node23</title>
<g id="a_Node000023"><a xlink:href="a00425.html#afbf560680f6b525ee0240f614a0177b6" target="_top" xlink:title=" ">
<polygon fill="white" stroke="#666666" points="690.25,-146 534.75,-146 534.75,-126 690.25,-126 690.25,-146"/>
<text text-anchor="middle" x="612.5" y="-132.5" font-family="Helvetica,sans-Serif" font-size="10.00">LibLoader::sendPluginException</text>
</a>
</g>
</g>
<!-- Node22&#45;&gt;Node23 -->
<g id="edge24_Node000022_Node000023" class="edge">
<title>Node22&#45;&gt;Node23</title>
<g id="a_edge24_Node000022_Node000023"><a xlink:title=" ">
<path fill="none" stroke="#63b8ff" d="M714.55,-136C706.66,-136 698.58,-136 690.59,-136"/>
<polygon fill="#63b8ff" stroke="#63b8ff" points="714.43,-139.5 724.43,-136 714.43,-132.5 714.43,-139.5"/>
</a>
</g>
</g>
<!-- Node24 -->
<g id="Node000024" class="node">
<title>Node24</title>
<g id="a_Node000024"><a xlink:href="a00425.html#a7ee448e1b260709b6a8d73fa41ec5c15" target="_top" xlink:title=" ">
<polygon fill="white" stroke="#666666" points="683.12,-184 541.88,-184 541.88,-164 683.12,-164 683.12,-184"/>
<text text-anchor="middle" x="612.5" y="-170.5" font-family="Helvetica,sans-Serif" font-size="10.00">LibLoader::sendThreadReset</text>
</a>
</g>
</g>
<!-- Node22&#45;&gt;Node24 -->
<g id="edge25_Node000022_Node000024" class="edge">
<title>Node22&#45;&gt;Node24</title>
<g id="a_edge25_Node000022_Node000024"><a xlink:title=" ">
<path fill="none" stroke="#63b8ff" d="M725.41,-148.98C704.15,-153.74 680.39,-159.05 660.25,-163.55"/>
<polygon fill="#63b8ff" stroke="#63b8ff" points="726.12,-152.41 735.12,-146.81 724.6,-145.58 726.12,-152.41"/>
</a>
</g>
</g>
<!-- Node26 -->
<g id="Node000026" class="node">
<title>Node26</title>
<g id="a_Node000026"><a xlink:href="a00314.html#a3712cdeefe60fa2a92efa90cd6200b02" target="_top" xlink:title=" ">
<polygon fill="white" stroke="#666666" points="804.88,-20 764.12,-20 764.12,0 804.88,0 804.88,-20"/>
<text text-anchor="middle" x="784.5" y="-6.5" font-family="Helvetica,sans-Serif" font-size="10.00">Verify</text>
</a>
</g>
</g>
<!-- Node25&#45;&gt;Node26 -->
<g id="edge28_Node000025_Node000026" class="edge">
<title>Node25&#45;&gt;Node26</title>
<g id="a_edge28_Node000025_Node000026"><a xlink:title=" ">
<path fill="none" stroke="#63b8ff" d="M902.3,-47.23C871.14,-37.3 829.28,-23.96 805.06,-16.24"/>
<polygon fill="#63b8ff" stroke="#63b8ff" points="901.2,-50.55 911.79,-50.25 903.33,-43.88 901.2,-50.55"/>
</a>
</g>
</g>
</g>
</svg>
