<?xml version="1.0" encoding="UTF-8" standalone="no"?>
<!DOCTYPE svg PUBLIC "-//W3C//DTD SVG 1.1//EN"
 "http://www.w3.org/Graphics/SVG/1.1/DTD/svg11.dtd">
<!-- Generated by graphviz version 9.0.0 (0)
 -->
<!-- Title: MiraiCP::IRawCommand Pages: 1 -->
<svg width="164pt" height="152pt"
 viewBox="0.00 0.00 164.00 152.00" xmlns="http://www.w3.org/2000/svg" xmlns:xlink="http://www.w3.org/1999/xlink">
<g id="graph0" class="graph" transform="scale(1 1) rotate(0) translate(4 148)">
<title>MiraiCP::IRawCommand</title>
<!-- Node1 -->
<g id="Node000001" class="node">
<title>Node1</title>
<g id="a_Node000001"><a xlink:title="forward declaration">
<polygon fill="#999999" stroke="none" points="156,-144 0,-144 0,0 156,0 156,-144"/>
<text text-anchor="start" x="23.25" y="-130.5" font-family="Helvetica,sans-Serif" font-size="10.00">MiraiCP::IRawCommand</text>
<text text-anchor="start" x="76.5" y="-114.5" font-family="Helvetica,sans-Serif" font-size="10.00"> </text>
<text text-anchor="start" x="4" y="-98.5" font-family="Helvetica,sans-Serif" font-size="10.00">+</text>
<text text-anchor="start" x="14" y="-98.5" font-family="Helvetica,sans-Serif" font-size="10.00">virtual IRawCommand</text>
<text text-anchor="start" x="14" y="-86.5" font-family="Helvetica,sans-Serif" font-size="10.00">::Config config()=0</text>
<text text-anchor="start" x="4" y="-70.5" font-family="Helvetica,sans-Serif" font-size="10.00">+</text>
<text text-anchor="start" x="14" y="-70.5" font-family="Helvetica,sans-Serif" font-size="10.00">virtual void onCommand</text>
<text text-anchor="start" x="14" y="-58.5" font-family="Helvetica,sans-Serif" font-size="10.00">(std::shared_ptr&lt; Contact</text>
<text text-anchor="start" x="14" y="-46.5" font-family="Helvetica,sans-Serif" font-size="10.00"> &gt; contact, const Bot &amp;bot,</text>
<text text-anchor="start" x="14" y="-34.5" font-family="Helvetica,sans-Serif" font-size="10.00"> const MessageChain &amp;msg)=0</text>
<text text-anchor="start" x="4" y="-18.5" font-family="Helvetica,sans-Serif" font-size="10.00">+</text>
<text text-anchor="start" x="14" y="-18.5" font-family="Helvetica,sans-Serif" font-size="10.00">virtual ~IRawCommand</text>
<text text-anchor="start" x="14" y="-6.5" font-family="Helvetica,sans-Serif" font-size="10.00">()=default</text>
<polygon fill="#666666" stroke="#666666" points="0,-126 0,-126 156,-126 156,-126 0,-126"/>
<polygon fill="#666666" stroke="#666666" points="0,-110 0,-110 156,-110 156,-110 0,-110"/>
<polygon fill="none" stroke="#666666" points="0,0 0,-144 156,-144 156,0 0,0"/>
</a>
</g>
</g>
</g>
</svg>
