<?xml version="1.0" encoding="UTF-8" standalone="no"?>
<!DOCTYPE svg PUBLIC "-//W3C//DTD SVG 1.1//EN"
 "http://www.w3.org/Graphics/SVG/1.1/DTD/svg11.dtd">
<!-- Generated by graphviz version 9.0.0 (0)
 -->
<!-- Title: MiraiCP::Bot::OnlineBotsListToString Pages: 1 -->
<svg width="1975pt" height="220pt"
 viewBox="0.00 0.00 1974.75 220.17" xmlns="http://www.w3.org/2000/svg" xmlns:xlink="http://www.w3.org/1999/xlink">
<g id="graph0" class="graph" transform="scale(1 1) rotate(0) translate(4 216.17)">
<title>MiraiCP::Bot::OnlineBotsListToString</title>
<!-- Node1 -->
<g id="Node000001" class="node">
<title>Node1</title>
<g id="a_Node000001"><a xlink:title="在线 Bot 列表string形式返回, 利于保存">
<polygon fill="#999999" stroke="#666666" points="126.25,-83.17 0,-83.17 0,-51.17 126.25,-51.17 126.25,-83.17"/>
<text text-anchor="start" x="8" y="-69.67" font-family="Helvetica,sans-Serif" font-size="10.00">MiraiCP::Bot::OnlineBots</text>
<text text-anchor="middle" x="63.12" y="-57.67" font-family="Helvetica,sans-Serif" font-size="10.00">ListToString</text>
</a>
</g>
</g>
<!-- Node2 -->
<g id="Node000002" class="node">
<title>Node2</title>
<g id="a_Node000002"><a xlink:href="a00448.html#aa3653efd4bf60ccebeb2025defe777a4" target="_top" xlink:title="取在线 Bot 列表">
<polygon fill="white" stroke="#666666" points="317.75,-99.17 162.25,-99.17 162.25,-79.17 317.75,-79.17 317.75,-99.17"/>
<text text-anchor="middle" x="240" y="-85.67" font-family="Helvetica,sans-Serif" font-size="10.00">MiraiCP::Bot::getOnlineBotsList</text>
</a>
</g>
</g>
<!-- Node1&#45;&gt;Node2 -->
<g id="edge1_Node000001_Node000002" class="edge">
<title>Node1&#45;&gt;Node2</title>
<g id="a_edge1_Node000001_Node000002"><a xlink:title=" ">
<path fill="none" stroke="#63b8ff" d="M126.27,-74.99C134.17,-75.98 142.37,-77.01 150.58,-78.04"/>
<polygon fill="#63b8ff" stroke="#63b8ff" points="149.89,-81.49 160.25,-79.26 150.76,-74.54 149.89,-81.49"/>
</a>
</g>
</g>
<!-- Node19 -->
<g id="Node000019" class="node">
<title>Node19</title>
<g id="a_Node000019"><a xlink:href="a00421.html#a913031600a073d2166b905a535e599f2" target="_top" xlink:title="任意类型的vector格式化输出">
<polygon fill="white" stroke="#666666" points="302.38,-61.17 177.62,-61.17 177.62,-29.17 302.38,-29.17 302.38,-61.17"/>
<text text-anchor="start" x="185.62" y="-47.67" font-family="Helvetica,sans-Serif" font-size="10.00">MiraiCP::Tools::VectorTo</text>
<text text-anchor="middle" x="240" y="-35.67" font-family="Helvetica,sans-Serif" font-size="10.00">String</text>
</a>
</g>
</g>
<!-- Node1&#45;&gt;Node19 -->
<g id="edge22_Node000001_Node000019" class="edge">
<title>Node1&#45;&gt;Node19</title>
<g id="a_edge22_Node000001_Node000019"><a xlink:title=" ">
<path fill="none" stroke="#63b8ff" d="M126.27,-59.35C139.23,-57.72 153.01,-55.99 166.31,-54.31"/>
<polygon fill="#63b8ff" stroke="#63b8ff" points="166.36,-57.83 175.85,-53.11 165.49,-50.89 166.36,-57.83"/>
</a>
</g>
</g>
<!-- Node3 -->
<g id="Node000003" class="node">
<title>Node3</title>
<g id="a_Node000003"><a xlink:href="a00412.html#af9ded1af6d3b5b7e3b556d52484d56b8" target="_top" xlink:title=" ">
<polygon fill="white" stroke="#666666" points="465.75,-118.17 368.75,-118.17 368.75,-98.17 465.75,-98.17 465.75,-118.17"/>
<text text-anchor="middle" x="417.25" y="-104.67" font-family="Helvetica,sans-Serif" font-size="10.00">MiraiCP::queryList</text>
</a>
</g>
</g>
<!-- Node2&#45;&gt;Node3 -->
<g id="edge2_Node000002_Node000003" class="edge">
<title>Node2&#45;&gt;Node3</title>
<g id="a_edge2_Node000002_Node000003"><a xlink:title=" ">
<path fill="none" stroke="#63b8ff" d="M318.12,-97.53C331.2,-98.95 344.59,-100.4 357.12,-101.76"/>
<polygon fill="#63b8ff" stroke="#63b8ff" points="356.51,-105.21 366.83,-102.81 357.27,-98.25 356.51,-105.21"/>
</a>
</g>
</g>
<!-- Node18 -->
<g id="Node000018" class="node">
<title>Node18</title>
<g id="a_Node000018"><a xlink:href="a00460.html#a89fb588a12ff2d4de10722788945ea55" target="_top" xlink:title="序列化到json对象">
<polygon fill="white" stroke="#666666" points="480.75,-80.17 353.75,-80.17 353.75,-60.17 480.75,-60.17 480.75,-80.17"/>
<text text-anchor="middle" x="417.25" y="-66.67" font-family="Helvetica,sans-Serif" font-size="10.00">MiraiCP::Contact::toJson</text>
</a>
</g>
</g>
<!-- Node2&#45;&gt;Node18 -->
<g id="edge21_Node000002_Node000018" class="edge">
<title>Node2&#45;&gt;Node18</title>
<g id="a_edge21_Node000002_Node000018"><a xlink:title=" ">
<path fill="none" stroke="#63b8ff" d="M318.12,-80.81C326.02,-79.95 334.03,-79.08 341.9,-78.23"/>
<polygon fill="#63b8ff" stroke="#63b8ff" points="342.22,-81.71 351.79,-77.16 341.47,-74.76 342.22,-81.71"/>
</a>
</g>
</g>
<!-- Node4 -->
<g id="Node000004" class="node">
<title>Node4</title>
<g id="a_Node000004"><a xlink:href="a00435.html#a309e8d7f316e8b5e947ea3bcddeb84a8" target="_top" xlink:title="调用 Mirai 操作">
<polygon fill="white" stroke="#666666" points="632.5,-149.17 523.5,-149.17 523.5,-117.17 632.5,-117.17 632.5,-149.17"/>
<text text-anchor="start" x="531.5" y="-135.67" font-family="Helvetica,sans-Serif" font-size="10.00">MiraiCP::KtOperation</text>
<text text-anchor="middle" x="578" y="-123.67" font-family="Helvetica,sans-Serif" font-size="10.00">::ktOperation</text>
</a>
</g>
</g>
<!-- Node3&#45;&gt;Node4 -->
<g id="edge3_Node000003_Node000004" class="edge">
<title>Node3&#45;&gt;Node4</title>
<g id="a_edge3_Node000003_Node000004"><a xlink:title=" ">
<path fill="none" stroke="#63b8ff" d="M465.88,-115.67C480.36,-117.95 496.52,-120.49 511.94,-122.92"/>
<polygon fill="#63b8ff" stroke="#63b8ff" points="511.09,-126.33 521.51,-124.43 512.17,-119.42 511.09,-126.33"/>
</a>
</g>
</g>
<!-- Node16 -->
<g id="Node000016" class="node">
<title>Node16</title>
<g id="a_Node000016"><a xlink:href="a00421.html#ab67b5a25139033a0e048a23f84b88b4d" target="_top" xlink:title="从string格式化到vector">
<polygon fill="white" stroke="#666666" points="639.25,-99.17 516.75,-99.17 516.75,-67.17 639.25,-67.17 639.25,-99.17"/>
<text text-anchor="start" x="524.75" y="-85.67" font-family="Helvetica,sans-Serif" font-size="10.00">MiraiCP::Tools::StringTo</text>
<text text-anchor="middle" x="578" y="-73.67" font-family="Helvetica,sans-Serif" font-size="10.00">Vector</text>
</a>
</g>
</g>
<!-- Node3&#45;&gt;Node16 -->
<g id="edge19_Node000003_Node000016" class="edge">
<title>Node3&#45;&gt;Node16</title>
<g id="a_edge19_Node000003_Node000016"><a xlink:title=" ">
<path fill="none" stroke="#63b8ff" d="M465.88,-100.67C478.3,-98.71 491.95,-96.56 505.31,-94.46"/>
<polygon fill="#63b8ff" stroke="#63b8ff" points="505.61,-97.95 514.94,-92.94 504.52,-91.04 505.61,-97.95"/>
</a>
</g>
</g>
<!-- Node5 -->
<g id="Node000005" class="node">
<title>Node5</title>
<g id="a_Node000005"><a xlink:href="a00435.html#a1e1e498928eeaa1d7107033ff5fa881a" target="_top" xlink:title="调用 Mirai 操作">
<polygon fill="white" stroke="#666666" points="784.25,-149.17 675.25,-149.17 675.25,-117.17 784.25,-117.17 784.25,-149.17"/>
<text text-anchor="start" x="683.25" y="-135.67" font-family="Helvetica,sans-Serif" font-size="10.00">MiraiCP::KtOperation</text>
<text text-anchor="middle" x="729.75" y="-123.67" font-family="Helvetica,sans-Serif" font-size="10.00">::ktOperationStr</text>
</a>
</g>
</g>
<!-- Node4&#45;&gt;Node5 -->
<g id="edge4_Node000004_Node000005" class="edge">
<title>Node4&#45;&gt;Node5</title>
<g id="a_edge4_Node000004_Node000005"><a xlink:title=" ">
<path fill="none" stroke="#63b8ff" d="M632.64,-133.17C642.64,-133.17 653.19,-133.17 663.5,-133.17"/>
<polygon fill="#63b8ff" stroke="#63b8ff" points="663.47,-136.67 673.47,-133.17 663.47,-129.67 663.47,-136.67"/>
</a>
</g>
</g>
<!-- Node6 -->
<g id="Node000006" class="node">
<title>Node6</title>
<g id="a_Node000006"><a xlink:href="a00426.html#a4c6ac4cf4ba5ff0adb7656708bbb67d0" target="_top" xlink:title="interfaces for plugins">
<polygon fill="white" stroke="#666666" points="927.75,-149.17 820.25,-149.17 820.25,-117.17 927.75,-117.17 927.75,-149.17"/>
<text text-anchor="start" x="828.25" y="-135.67" font-family="Helvetica,sans-Serif" font-size="10.00">LibLoader::LoaderApi</text>
<text text-anchor="middle" x="874" y="-123.67" font-family="Helvetica,sans-Serif" font-size="10.00">::pluginOperation</text>
</a>
</g>
</g>
<!-- Node5&#45;&gt;Node6 -->
<g id="edge5_Node000005_Node000006" class="edge">
<title>Node5&#45;&gt;Node6</title>
<g id="a_edge5_Node000005_Node000006"><a xlink:title=" ">
<path fill="none" stroke="#63b8ff" d="M784.53,-133.17C792.44,-133.17 800.66,-133.17 808.76,-133.17"/>
<polygon fill="#63b8ff" stroke="#63b8ff" points="808.57,-136.67 818.57,-133.17 808.57,-129.67 808.57,-136.67"/>
</a>
</g>
</g>
<!-- Node7 -->
<g id="Node000007" class="node">
<title>Node7</title>
<g id="a_Node000007"><a xlink:href="a00780.html#acc90fdac094544c4ddd9d6fd13baa5da" target="_top" xlink:title=" ">
<polygon fill="white" stroke="#666666" points="1102,-212.17 963.75,-212.17 963.75,-180.17 1102,-180.17 1102,-212.17"/>
<text text-anchor="start" x="971.75" y="-198.67" font-family="Helvetica,sans-Serif" font-size="10.00">MiraiCP::MiraiCPStringview</text>
<text text-anchor="middle" x="1032.88" y="-186.67" font-family="Helvetica,sans-Serif" font-size="10.00">::c_str</text>
</a>
</g>
</g>
<!-- Node6&#45;&gt;Node7 -->
<g id="edge6_Node000006_Node000007" class="edge">
<title>Node6&#45;&gt;Node7</title>
<g id="a_edge6_Node000006_Node000007"><a xlink:title=" ">
<path fill="none" stroke="#63b8ff" d="M915.81,-149.56C935.52,-157.47 959.39,-167.06 980.34,-175.47"/>
<polygon fill="#63b8ff" stroke="#63b8ff" points="979.01,-178.71 989.6,-179.19 981.62,-172.21 979.01,-178.71"/>
</a>
</g>
</g>
<!-- Node8 -->
<g id="Node000008" class="node">
<title>Node8</title>
<g id="a_Node000008"><a xlink:href="a00840.html#aea7d58ff9f04d6d4849c25a2506603a5" target="_top" xlink:title="取env,如果不存在重新获取">
<polygon fill="white" stroke="#666666" points="1716.5,-124.17 1593.25,-124.17 1593.25,-104.17 1716.5,-104.17 1716.5,-124.17"/>
<text text-anchor="middle" x="1654.88" y="-110.67" font-family="Helvetica,sans-Serif" font-size="10.00">JNIEnvManager::getEnv</text>
</a>
</g>
</g>
<!-- Node6&#45;&gt;Node8 -->
<g id="edge7_Node000006_Node000008" class="edge">
<title>Node6&#45;&gt;Node8</title>
<g id="a_edge7_Node000006_Node000008"><a xlink:title=" ">
<path fill="none" stroke="#63b8ff" d="M928.14,-138.21C992.15,-143.84 1102.96,-152.17 1198.25,-152.17 1198.25,-152.17 1198.25,-152.17 1358.75,-152.17 1440.04,-152.17 1532.9,-137.81 1592.4,-126.75"/>
<polygon fill="#63b8ff" stroke="#63b8ff" points="1592.81,-130.23 1601.99,-124.93 1591.51,-123.35 1592.81,-130.23"/>
</a>
</g>
</g>
<!-- Node11 -->
<g id="Node000011" class="node">
<title>Node11</title>
<g id="a_Node000011"><a xlink:href="a00425.html#aa5f8d0ecd9dd392b491070aace643ae3" target="_top" xlink:title=" ">
<polygon fill="white" stroke="#666666" points="1252.62,-124.17 1145.88,-124.17 1145.88,-104.17 1252.62,-104.17 1252.62,-124.17"/>
<text text-anchor="middle" x="1199.25" y="-110.67" font-family="Helvetica,sans-Serif" font-size="10.00">LibLoader::jstring2str</text>
</a>
</g>
</g>
<!-- Node6&#45;&gt;Node11 -->
<g id="edge10_Node000006_Node000011" class="edge">
<title>Node6&#45;&gt;Node11</title>
<g id="a_edge10_Node000006_Node000011"><a xlink:title=" ">
<path fill="none" stroke="#63b8ff" d="M928.02,-130.05C984.47,-126.73 1073.83,-121.48 1134.18,-117.93"/>
<polygon fill="#63b8ff" stroke="#63b8ff" points="1134.19,-121.44 1143.96,-117.36 1133.77,-114.45 1134.19,-121.44"/>
</a>
</g>
</g>
<!-- Node13 -->
<g id="Node000013" class="node">
<title>Node13</title>
<g id="a_Node000013"><a xlink:href="a00425.html#a6a6fcd695791253a9b3a053d313b2b93" target="_top" xlink:title=" ">
<polygon fill="white" stroke="#666666" points="1086.25,-64.17 979.5,-64.17 979.5,-44.17 1086.25,-44.17 1086.25,-64.17"/>
<text text-anchor="middle" x="1032.88" y="-50.67" font-family="Helvetica,sans-Serif" font-size="10.00">LibLoader::str2jstring</text>
</a>
</g>
</g>
<!-- Node6&#45;&gt;Node13 -->
<g id="edge13_Node000006_Node000013" class="edge">
<title>Node6&#45;&gt;Node13</title>
<g id="a_edge13_Node000006_Node000013"><a xlink:title=" ">
<path fill="none" stroke="#63b8ff" d="M907.5,-116.8C935.08,-102.91 974.34,-83.14 1001.34,-69.55"/>
<polygon fill="#63b8ff" stroke="#63b8ff" points="1002.67,-72.79 1010.03,-65.17 999.52,-66.54 1002.67,-72.79"/>
</a>
</g>
</g>
<!-- Node9 -->
<g id="Node000009" class="node">
<title>Node9</title>
<g id="a_Node000009"><a xlink:href="a00260.html#a3d31403b7971274d47d308245206bd24" target="_top" xlink:title="为当前线程创建一个env.">
<polygon fill="white" stroke="#666666" points="1803.75,-124.17 1752.5,-124.17 1752.5,-104.17 1803.75,-104.17 1803.75,-124.17"/>
<text text-anchor="middle" x="1778.12" y="-110.67" font-family="Helvetica,sans-Serif" font-size="10.00">newEnv</text>
</a>
</g>
</g>
<!-- Node8&#45;&gt;Node9 -->
<g id="edge8_Node000008_Node000009" class="edge">
<title>Node8&#45;&gt;Node9</title>
<g id="a_edge8_Node000008_Node000009"><a xlink:title=" ">
<path fill="none" stroke="#63b8ff" d="M1716.86,-114.17C1725.06,-114.17 1733.26,-114.17 1740.84,-114.17"/>
<polygon fill="#63b8ff" stroke="#63b8ff" points="1740.66,-117.67 1750.66,-114.17 1740.66,-110.67 1740.66,-117.67"/>
</a>
</g>
</g>
<!-- Node10 -->
<g id="Node000010" class="node">
<title>Node10</title>
<g id="a_Node000010"><a xlink:href="a00840.html#ae0e482c6a813848a8f5d34957d1b6307" target="_top" xlink:title="获取全局JavaVM对象.">
<polygon fill="white" stroke="#666666" points="1966.75,-124.17 1839.75,-124.17 1839.75,-104.17 1966.75,-104.17 1966.75,-124.17"/>
<text text-anchor="middle" x="1903.25" y="-110.67" font-family="Helvetica,sans-Serif" font-size="10.00">JNIEnvManager::getGvm</text>
</a>
</g>
</g>
<!-- Node9&#45;&gt;Node10 -->
<g id="edge9_Node000009_Node000010" class="edge">
<title>Node9&#45;&gt;Node10</title>
<g id="a_edge9_Node000009_Node000010"><a xlink:title=" ">
<path fill="none" stroke="#63b8ff" d="M1804.04,-114.17C1811.22,-114.17 1819.45,-114.17 1828.02,-114.17"/>
<polygon fill="#63b8ff" stroke="#63b8ff" points="1827.91,-117.67 1837.91,-114.17 1827.91,-110.67 1827.91,-117.67"/>
</a>
</g>
</g>
<!-- Node12 -->
<g id="Node000012" class="node">
<title>Node12</title>
<g id="a_Node000012"><a xlink:href="a00430.html#a076c5f4ff8083c7cfc6523498d0ba30f" target="_top" xlink:title=" ">
<polygon fill="white" stroke="#666666" points="1557.25,-108.17 1455,-108.17 1455,-76.17 1557.25,-76.17 1557.25,-108.17"/>
<text text-anchor="start" x="1463" y="-94.67" font-family="Helvetica,sans-Serif" font-size="10.00">LibLoader::JNIEnvs</text>
<text text-anchor="middle" x="1506.12" y="-82.67" font-family="Helvetica,sans-Serif" font-size="10.00">::getEnv</text>
</a>
</g>
</g>
<!-- Node11&#45;&gt;Node12 -->
<g id="edge11_Node000011_Node000012" class="edge">
<title>Node11&#45;&gt;Node12</title>
<g id="a_edge11_Node000011_Node000012"><a xlink:title=" ">
<path fill="none" stroke="#63b8ff" d="M1253.01,-110.36C1305.94,-106.54 1387.44,-100.66 1443.36,-96.63"/>
<polygon fill="#63b8ff" stroke="#63b8ff" points="1443.3,-100.14 1453.02,-95.93 1442.8,-93.16 1443.3,-100.14"/>
</a>
</g>
</g>
<!-- Node12&#45;&gt;Node8 -->
<g id="edge12_Node000012_Node000008" class="edge">
<title>Node12&#45;&gt;Node8</title>
<g id="a_edge12_Node000012_Node000008"><a xlink:title=" ">
<path fill="none" stroke="#63b8ff" d="M1557.63,-99.74C1565.35,-100.9 1573.44,-102.11 1581.52,-103.32"/>
<polygon fill="#63b8ff" stroke="#63b8ff" points="1580.99,-106.78 1591.4,-104.8 1582.03,-99.86 1580.99,-106.78"/>
</a>
</g>
</g>
<!-- Node13&#45;&gt;Node12 -->
<g id="edge14_Node000013_Node000012" class="edge">
<title>Node13&#45;&gt;Node12</title>
<g id="a_edge14_Node000013_Node000012"><a xlink:title=" ">
<path fill="none" stroke="#63b8ff" d="M1086.56,-58.42C1174.29,-65.49 1349.87,-79.65 1443.31,-87.18"/>
<polygon fill="#63b8ff" stroke="#63b8ff" points="1442.8,-90.65 1453.05,-87.97 1443.37,-83.68 1442.8,-90.65"/>
</a>
</g>
</g>
<!-- Node14 -->
<g id="Node000014" class="node">
<title>Node14</title>
<g id="a_Node000014"><a xlink:href="a00872.html#af50d0545fe7d683e54fcd03453a423e3" target="_top" xlink:title=" ">
<polygon fill="white" stroke="#666666" points="1260.5,-48.17 1138,-48.17 1138,-16.17 1260.5,-16.17 1260.5,-48.17"/>
<text text-anchor="start" x="1146" y="-34.67" font-family="Helvetica,sans-Serif" font-size="10.00">LibLoader::LoaderLogger</text>
<text text-anchor="middle" x="1199.25" y="-22.67" font-family="Helvetica,sans-Serif" font-size="10.00">::warning</text>
</a>
</g>
</g>
<!-- Node13&#45;&gt;Node14 -->
<g id="edge15_Node000013_Node000014" class="edge">
<title>Node13&#45;&gt;Node14</title>
<g id="a_edge15_Node000013_Node000014"><a xlink:title=" ">
<path fill="none" stroke="#63b8ff" d="M1086.34,-47.15C1099.11,-45.44 1112.99,-43.58 1126.49,-41.77"/>
<polygon fill="#63b8ff" stroke="#63b8ff" points="1126.75,-45.27 1136.2,-40.47 1125.83,-38.33 1126.75,-45.27"/>
</a>
</g>
</g>
<!-- Node15 -->
<g id="Node000015" class="node">
<title>Node15</title>
<g id="a_Node000015"><a xlink:href="a00872.html#af4d7d5164450e25f7401d1cc15f15b8d" target="_top" xlink:title="实际暴露的接口">
<polygon fill="white" stroke="#666666" points="1419,-48.17 1296.5,-48.17 1296.5,-16.17 1419,-16.17 1419,-48.17"/>
<text text-anchor="start" x="1304.5" y="-34.67" font-family="Helvetica,sans-Serif" font-size="10.00">LibLoader::LoaderLogger</text>
<text text-anchor="middle" x="1357.75" y="-22.67" font-family="Helvetica,sans-Serif" font-size="10.00">::call_logger</text>
</a>
</g>
</g>
<!-- Node14&#45;&gt;Node15 -->
<g id="edge16_Node000014_Node000015" class="edge">
<title>Node14&#45;&gt;Node15</title>
<g id="a_edge16_Node000014_Node000015"><a xlink:title=" ">
<path fill="none" stroke="#63b8ff" d="M1260.76,-32.17C1268.65,-32.17 1276.8,-32.17 1284.85,-32.17"/>
<polygon fill="#63b8ff" stroke="#63b8ff" points="1284.63,-35.67 1294.63,-32.17 1284.63,-28.67 1284.63,-35.67"/>
</a>
</g>
</g>
<!-- Node15&#45;&gt;Node12 -->
<g id="edge17_Node000015_Node000012" class="edge">
<title>Node15&#45;&gt;Node12</title>
<g id="a_edge17_Node000015_Node000012"><a xlink:title=" ">
<path fill="none" stroke="#63b8ff" d="M1398.75,-48.56C1415.94,-55.61 1436.24,-63.93 1454.47,-71.4"/>
<polygon fill="#63b8ff" stroke="#63b8ff" points="1452.94,-74.56 1463.52,-75.11 1455.6,-68.08 1452.94,-74.56"/>
</a>
</g>
</g>
<!-- Node15&#45;&gt;Node13 -->
<g id="edge18_Node000015_Node000013" class="edge">
<title>Node15&#45;&gt;Node13</title>
<g id="a_edge18_Node000015_Node000013"><a xlink:title=" ">
<path fill="none" stroke="#63b8ff" d="M1303.26,-15.71C1289.46,-12.17 1274.54,-8.96 1260.5,-7.17 1206.49,-0.27 1191.23,4.29 1138,-7.17 1110.26,-13.14 1081.01,-27.11 1060.59,-38.28"/>
<polygon fill="#63b8ff" stroke="#63b8ff" points="1059.09,-35.11 1052.1,-43.07 1062.53,-41.21 1059.09,-35.11"/>
</a>
</g>
</g>
<!-- Node17 -->
<g id="Node000017" class="node">
<title>Node17</title>
<g id="a_Node000017"><a xlink:href="a00421.html#aa9d4bfd5269173c2f6aed44f79bf976e" target="_top" xlink:title="from https://www.zhihu.com/question/36642771, delim is regex(ignore last +)">
<polygon fill="white" stroke="#666666" points="782,-93.17 677.5,-93.17 677.5,-73.17 782,-73.17 782,-93.17"/>
<text text-anchor="middle" x="729.75" y="-79.67" font-family="Helvetica,sans-Serif" font-size="10.00">MiraiCP::Tools::split</text>
</a>
</g>
</g>
<!-- Node16&#45;&gt;Node17 -->
<g id="edge20_Node000016_Node000017" class="edge">
<title>Node16&#45;&gt;Node17</title>
<g id="a_edge20_Node000016_Node000017"><a xlink:title=" ">
<path fill="none" stroke="#63b8ff" d="M639.48,-83.17C648.17,-83.17 657.13,-83.17 665.87,-83.17"/>
<polygon fill="#63b8ff" stroke="#63b8ff" points="665.67,-86.67 675.67,-83.17 665.67,-79.67 665.67,-86.67"/>
</a>
</g>
</g>
</g>
</svg>
