<?xml version="1.0" encoding="UTF-8" standalone="no"?>
<!DOCTYPE svg PUBLIC "-//W3C//DTD SVG 1.1//EN"
 "http://www.w3.org/Graphics/SVG/1.1/DTD/svg11.dtd">
<!-- Generated by graphviz version 9.0.0 (0)
 -->
<!-- Title: LibLoader::loaderWakeCV Pages: 1 -->
<svg width="1579pt" height="272pt"
 viewBox="0.00 0.00 1578.75 272.01" xmlns="http://www.w3.org/2000/svg" xmlns:xlink="http://www.w3.org/1999/xlink">
<g id="graph0" class="graph" transform="scale(1 1) rotate(0) translate(4 268.01)">
<title>LibLoader::loaderWakeCV</title>
<!-- Node1 -->
<g id="Node000001" class="node">
<title>Node1</title>
<g id="a_Node000001"><a xlink:title=" ">
<polygon fill="#999999" stroke="#666666" points="1570.75,-155 1441.5,-155 1441.5,-135 1570.75,-135 1570.75,-155"/>
<text text-anchor="middle" x="1506.12" y="-141.5" font-family="Helvetica,sans-Serif" font-size="10.00">LibLoader::loaderWakeCV</text>
</a>
</g>
</g>
<!-- Node2 -->
<g id="Node000002" class="node">
<title>Node2</title>
<g id="a_Node000002"><a xlink:href="a00880.html#a9ca8ba2c9fcbfade9adf4a0a2bb47eaa" target="_top" xlink:title=" ">
<polygon fill="white" stroke="#666666" points="690.5,-37 576.25,-37 576.25,-5 690.5,-5 690.5,-37"/>
<text text-anchor="start" x="584.25" y="-23.5" font-family="Helvetica,sans-Serif" font-size="10.00">LibLoader::LoaderMain</text>
<text text-anchor="middle" x="633.38" y="-11.5" font-family="Helvetica,sans-Serif" font-size="10.00">::mainloop</text>
</a>
</g>
</g>
<!-- Node1&#45;&gt;Node2 -->
<g id="edge1_Node000001_Node000002" class="edge">
<title>Node1&#45;&gt;Node2</title>
<g id="a_edge1_Node000001_Node000002"><a xlink:title=" ">
<path fill="none" stroke="#63b8ff" d="M1489.01,-126.18C1470.76,-106.06 1439.16,-74.69 1405.5,-57 1312.56,-8.16 1281.24,0 1176.25,0 1176.25,0 1176.25,0 991.75,0 885.32,0 761.36,-9.4 690.95,-15.62"/>
<polygon fill="#63b8ff" stroke="#63b8ff" points="1486.16,-128.24 1495.41,-133.4 1491.4,-123.6 1486.16,-128.24"/>
</a>
</g>
</g>
<!-- Node5 -->
<g id="Node000005" class="node">
<title>Node5</title>
<g id="a_Node000005"><a xlink:href="a00314.html#a2e0217581c8df7fd1fc867cc3a8317d3" target="_top" xlink:title=" ">
<polygon fill="white" stroke="#666666" points="206.75,-236 112,-236 112,-216 206.75,-216 206.75,-236"/>
<text text-anchor="middle" x="159.38" y="-222.5" font-family="Helvetica,sans-Serif" font-size="10.00">PluginDisableImpl</text>
</a>
</g>
</g>
<!-- Node1&#45;&gt;Node5 -->
<g id="edge16_Node000001_Node000005" class="edge">
<title>Node1&#45;&gt;Node5</title>
<g id="a_edge16_Node000001_Node000005"><a xlink:title=" ">
<path fill="none" stroke="#63b8ff" d="M1487.02,-163.4C1468.31,-181.29 1437.41,-207.77 1405.5,-222 1310.9,-264.2 1279.83,-264 1176.25,-264 1176.25,-264 1176.25,-264 468.62,-264 367.8,-264 342.47,-257.88 242.75,-243 230.91,-241.23 218.2,-238.85 206.4,-236.44"/>
<polygon fill="#63b8ff" stroke="#63b8ff" points="1489.41,-165.97 1494.1,-156.47 1484.51,-160.97 1489.41,-165.97"/>
</a>
</g>
</g>
<!-- Node9 -->
<g id="Node000009" class="node">
<title>Node9</title>
<g id="a_Node000009"><a xlink:href="a00281.html#a36a04ab86ecc081ee51d32866ef7a332" target="_top" xlink:title=" ">
<polygon fill="white" stroke="#666666" points="1397.62,-186 1296.88,-186 1296.88,-154 1397.62,-154 1397.62,-186"/>
<text text-anchor="start" x="1304.88" y="-172.5" font-family="Helvetica,sans-Serif" font-size="10.00">plugin_raw_API_try</text>
<text text-anchor="middle" x="1347.25" y="-160.5" font-family="Helvetica,sans-Serif" font-size="10.00">_wake_loader</text>
</a>
</g>
</g>
<!-- Node1&#45;&gt;Node9 -->
<g id="edge10_Node000001_Node000009" class="edge">
<title>Node1&#45;&gt;Node9</title>
<g id="a_edge10_Node000001_Node000009"><a xlink:title=" ">
<path fill="none" stroke="#63b8ff" d="M1430.06,-156.96C1419.2,-158.69 1408.25,-160.44 1398.05,-162.06"/>
<polygon fill="#63b8ff" stroke="#63b8ff" points="1430.5,-160.44 1439.82,-155.41 1429.4,-153.52 1430.5,-160.44"/>
</a>
</g>
</g>
<!-- Node15 -->
<g id="Node000015" class="node">
<title>Node15</title>
<g id="a_Node000015"><a xlink:href="a00432.html#a746efd674de5c56de789a0c03be7948e" target="_top" xlink:title="新增一个计时器，对接libLoader API">
<polygon fill="white" stroke="#666666" points="1401,-136 1293.5,-136 1293.5,-104 1401,-104 1401,-136"/>
<text text-anchor="start" x="1301.5" y="-122.5" font-family="Helvetica,sans-Serif" font-size="10.00">LibLoader::Scheduler</text>
<text text-anchor="middle" x="1347.25" y="-110.5" font-family="Helvetica,sans-Serif" font-size="10.00">::timer</text>
</a>
</g>
</g>
<!-- Node1&#45;&gt;Node15 -->
<g id="edge17_Node000001_Node000015" class="edge">
<title>Node1&#45;&gt;Node15</title>
<g id="a_edge17_Node000001_Node000015"><a xlink:title=" ">
<path fill="none" stroke="#63b8ff" d="M1430.05,-133.04C1420.4,-131.5 1410.67,-129.95 1401.47,-128.48"/>
<polygon fill="#63b8ff" stroke="#63b8ff" points="1429.4,-136.48 1439.82,-134.59 1430.5,-129.56 1429.4,-136.48"/>
</a>
</g>
</g>
<!-- Node22 -->
<g id="Node000022" class="node">
<title>Node22</title>
<g id="a_Node000022"><a xlink:href="a00425.html#a4bd4ee75c4f2ea14034626c7cbf73bb4" target="_top" xlink:title=" ">
<polygon fill="white" stroke="#666666" points="1405.5,-86 1289,-86 1289,-66 1405.5,-66 1405.5,-86"/>
<text text-anchor="middle" x="1347.25" y="-72.5" font-family="Helvetica,sans-Serif" font-size="10.00">LibLoader::wakeLoader</text>
</a>
</g>
</g>
<!-- Node1&#45;&gt;Node22 -->
<g id="edge25_Node000001_Node000022" class="edge">
<title>Node1&#45;&gt;Node22</title>
<g id="a_edge25_Node000001_Node000022"><a xlink:title=" ">
<path fill="none" stroke="#63b8ff" d="M1476.3,-129.14C1456.68,-118.69 1429.94,-105.13 1405.5,-95 1398.15,-91.95 1390.11,-89.04 1382.45,-86.45"/>
<polygon fill="#63b8ff" stroke="#63b8ff" points="1474.61,-132.2 1485.08,-133.86 1477.93,-126.04 1474.61,-132.2"/>
</a>
</g>
</g>
<!-- Node3 -->
<g id="Node000003" class="node">
<title>Node3</title>
<g id="a_Node000003"><a xlink:href="a00880.html#a79cbc18aabed7afe2c7ea30f989ffc8c" target="_top" xlink:title="LoaderMain实现开始">
<polygon fill="white" stroke="#666666" points="526.75,-173 412.5,-173 412.5,-141 526.75,-141 526.75,-173"/>
<text text-anchor="start" x="420.5" y="-159.5" font-family="Helvetica,sans-Serif" font-size="10.00">LibLoader::LoaderMain</text>
<text text-anchor="middle" x="469.62" y="-147.5" font-family="Helvetica,sans-Serif" font-size="10.00">::loaderMain</text>
</a>
</g>
</g>
<!-- Node2&#45;&gt;Node3 -->
<g id="edge2_Node000002_Node000003" class="edge">
<title>Node2&#45;&gt;Node3</title>
<g id="a_edge2_Node000002_Node000003"><a xlink:title=" ">
<path fill="none" stroke="#63b8ff" d="M604.24,-44.66C571.6,-72.1 518.66,-116.61 490.21,-140.54"/>
<polygon fill="#63b8ff" stroke="#63b8ff" points="606.3,-47.49 611.71,-38.38 601.8,-42.14 606.3,-47.49"/>
</a>
</g>
</g>
<!-- Node4 -->
<g id="Node000004" class="node">
<title>Node4</title>
<g id="a_Node000004"><a xlink:href="a00880.html#a22eacbd6aa585f32d0fccce0a69ab642" target="_top" xlink:title=" ">
<polygon fill="white" stroke="#666666" points="376.5,-234 242.75,-234 242.75,-214 376.5,-214 376.5,-234"/>
<text text-anchor="middle" x="309.62" y="-220.5" font-family="Helvetica,sans-Serif" font-size="10.00">LibLoader::LoaderMain::get</text>
</a>
</g>
</g>
<!-- Node3&#45;&gt;Node4 -->
<g id="edge3_Node000003_Node000004" class="edge">
<title>Node3&#45;&gt;Node4</title>
<g id="a_edge3_Node000003_Node000004"><a xlink:title=" ">
<path fill="none" stroke="#63b8ff" d="M422.56,-177.96C407.9,-184.51 391.57,-191.68 376.5,-198 363.92,-203.28 349.86,-208.87 337.97,-213.51"/>
<polygon fill="#63b8ff" stroke="#63b8ff" points="423.83,-181.23 431.52,-173.94 420.97,-174.84 423.83,-181.23"/>
</a>
</g>
</g>
<!-- Node7 -->
<g id="Node000007" class="node">
<title>Node7</title>
<g id="a_Node000007"><a xlink:href="a00314.html#aafbc26593c69471626589f38c751ef09" target="_top" xlink:title=" ">
<polygon fill="white" stroke="#666666" points="189.12,-197 129.62,-197 129.62,-177 189.12,-177 189.12,-197"/>
<text text-anchor="middle" x="159.38" y="-183.5" font-family="Helvetica,sans-Serif" font-size="10.00">VerifyImpl</text>
</a>
</g>
</g>
<!-- Node3&#45;&gt;Node7 -->
<g id="edge9_Node000003_Node000007" class="edge">
<title>Node3&#45;&gt;Node7</title>
<g id="a_edge9_Node000003_Node000007"><a xlink:title=" ">
<path fill="none" stroke="#63b8ff" d="M400.96,-163.59C334.97,-170.01 237.71,-179.47 189.57,-184.16"/>
<polygon fill="#63b8ff" stroke="#63b8ff" points="400.97,-167.1 410.58,-162.65 400.29,-160.13 400.97,-167.1"/>
</a>
</g>
</g>
<!-- Node4&#45;&gt;Node1 -->
<g id="edge4_Node000004_Node000001" class="edge">
<title>Node4&#45;&gt;Node1</title>
<g id="a_edge4_Node000004_Node000001"><a xlink:title=" ">
<path fill="none" stroke="#63b8ff" d="M388.27,-224.75C453.44,-225.32 548.98,-226 632.38,-226 1176.25,-226 1176.25,-226 1176.25,-226 1279.07,-226 1307.27,-225.36 1405.5,-195 1436.38,-185.46 1469.36,-167.09 1488.57,-155.47"/>
<polygon fill="#63b8ff" stroke="#63b8ff" points="388.41,-221.25 378.38,-224.67 388.35,-228.25 388.41,-221.25"/>
</a>
</g>
</g>
<!-- Node4&#45;&gt;Node5 -->
<g id="edge5_Node000004_Node000005" class="edge">
<title>Node4&#45;&gt;Node5</title>
<g id="a_edge5_Node000004_Node000005"><a xlink:title=" ">
<path fill="none" stroke="#63b8ff" d="M230.85,-225.05C222.75,-225.16 214.71,-225.27 207.11,-225.37"/>
<polygon fill="#63b8ff" stroke="#63b8ff" points="230.84,-228.55 240.79,-224.92 230.75,-221.55 230.84,-228.55"/>
</a>
</g>
</g>
<!-- Node4&#45;&gt;Node7 -->
<g id="edge7_Node000004_Node000007" class="edge">
<title>Node4&#45;&gt;Node7</title>
<g id="a_edge7_Node000004_Node000007"><a xlink:title=" ">
<path fill="none" stroke="#63b8ff" d="M255.91,-210.84C233.59,-205.27 208.45,-199 189.55,-194.28"/>
<polygon fill="#63b8ff" stroke="#63b8ff" points="254.92,-214.2 265.47,-213.23 256.61,-207.41 254.92,-214.2"/>
</a>
</g>
</g>
<!-- Node6 -->
<g id="Node000006" class="node">
<title>Node6</title>
<g id="a_Node000006"><a xlink:href="a00314.html#a054b75b2be22897678d22ce9a72d91df" target="_top" xlink:title=" ">
<polygon fill="white" stroke="#666666" points="76,-236 0,-236 0,-216 76,-216 76,-236"/>
<text text-anchor="middle" x="38" y="-222.5" font-family="Helvetica,sans-Serif" font-size="10.00">PluginDisable</text>
</a>
</g>
</g>
<!-- Node5&#45;&gt;Node6 -->
<g id="edge6_Node000005_Node000006" class="edge">
<title>Node5&#45;&gt;Node6</title>
<g id="a_edge6_Node000005_Node000006"><a xlink:title=" ">
<path fill="none" stroke="#63b8ff" d="M100.22,-226C92.15,-226 84.04,-226 76.49,-226"/>
<polygon fill="#63b8ff" stroke="#63b8ff" points="100.02,-229.5 110.02,-226 100.02,-222.5 100.02,-229.5"/>
</a>
</g>
</g>
<!-- Node8 -->
<g id="Node000008" class="node">
<title>Node8</title>
<g id="a_Node000008"><a xlink:href="a00314.html#a3712cdeefe60fa2a92efa90cd6200b02" target="_top" xlink:title=" ">
<polygon fill="white" stroke="#666666" points="58.38,-197 17.62,-197 17.62,-177 58.38,-177 58.38,-197"/>
<text text-anchor="middle" x="38" y="-183.5" font-family="Helvetica,sans-Serif" font-size="10.00">Verify</text>
</a>
</g>
</g>
<!-- Node7&#45;&gt;Node8 -->
<g id="edge8_Node000007_Node000008" class="edge">
<title>Node7&#45;&gt;Node8</title>
<g id="a_edge8_Node000007_Node000008"><a xlink:title=" ">
<path fill="none" stroke="#63b8ff" d="M117.84,-187C97.83,-187 74.61,-187 58.57,-187"/>
<polygon fill="#63b8ff" stroke="#63b8ff" points="117.66,-190.5 127.66,-187 117.66,-183.5 117.66,-190.5"/>
</a>
</g>
</g>
<!-- Node10 -->
<g id="Node000010" class="node">
<title>Node10</title>
<g id="a_Node000010"><a xlink:href="a00916.html#a14895bee64bb1c12e16b97d038b699b7" target="_top" xlink:title="这部分是一些工具函数、对象">
<polygon fill="white" stroke="#666666" points="1223.75,-186 1126.75,-186 1126.75,-154 1223.75,-154 1223.75,-186"/>
<text text-anchor="start" x="1134.75" y="-172.5" font-family="Helvetica,sans-Serif" font-size="10.00">LibLoader::Plugin::</text>
<text text-anchor="middle" x="1175.25" y="-160.5" font-family="Helvetica,sans-Serif" font-size="10.00">callEntrance</text>
</a>
</g>
</g>
<!-- Node9&#45;&gt;Node10 -->
<g id="edge11_Node000009_Node000010" class="edge">
<title>Node9&#45;&gt;Node10</title>
<g id="a_edge11_Node000009_Node000010"><a xlink:title=" ">
<path fill="none" stroke="#63b8ff" d="M1285.37,-170C1265.26,-170 1243.18,-170 1224.18,-170"/>
<polygon fill="#63b8ff" stroke="#63b8ff" points="1285.11,-173.5 1295.11,-170 1285.11,-166.5 1285.11,-173.5"/>
</a>
</g>
</g>
<!-- Node11 -->
<g id="Node000011" class="node">
<title>Node11</title>
<g id="a_Node000011"><a xlink:href="a00916.html#a450c1c6820ab6c5417691359d88d8220" target="_top" xlink:title=" ">
<polygon fill="white" stroke="#666666" points="1041.25,-186 944.25,-186 944.25,-154 1041.25,-154 1041.25,-186"/>
<text text-anchor="start" x="952.25" y="-172.5" font-family="Helvetica,sans-Serif" font-size="10.00">LibLoader::Plugin::</text>
<text text-anchor="middle" x="992.75" y="-160.5" font-family="Helvetica,sans-Serif" font-size="10.00">enableInternal</text>
</a>
</g>
</g>
<!-- Node10&#45;&gt;Node11 -->
<g id="edge12_Node000010_Node000011" class="edge">
<title>Node10&#45;&gt;Node11</title>
<g id="a_edge12_Node000010_Node000011"><a xlink:title=" ">
<path fill="none" stroke="#63b8ff" d="M1114.96,-170C1091.15,-170 1064.07,-170 1041.56,-170"/>
<polygon fill="#63b8ff" stroke="#63b8ff" points="1114.84,-173.5 1124.84,-170 1114.84,-166.5 1114.84,-173.5"/>
</a>
</g>
</g>
<!-- Node12 -->
<g id="Node000012" class="node">
<title>Node12</title>
<g id="a_Node000012"><a xlink:href="a00916.html#a549e3729f8aeb27208ef5aecb434eef1" target="_top" xlink:title=" ">
<polygon fill="white" stroke="#666666" points="862.5,-148 765.5,-148 765.5,-116 862.5,-116 862.5,-148"/>
<text text-anchor="start" x="773.5" y="-134.5" font-family="Helvetica,sans-Serif" font-size="10.00">LibLoader::Plugin::</text>
<text text-anchor="middle" x="814" y="-122.5" font-family="Helvetica,sans-Serif" font-size="10.00">enablePlugin</text>
</a>
</g>
</g>
<!-- Node11&#45;&gt;Node12 -->
<g id="edge13_Node000011_Node000012" class="edge">
<title>Node11&#45;&gt;Node12</title>
<g id="a_edge13_Node000011_Node000012"><a xlink:title=" ">
<path fill="none" stroke="#63b8ff" d="M932.7,-157.3C910,-152.42 884.39,-146.92 862.87,-142.29"/>
<polygon fill="#63b8ff" stroke="#63b8ff" points="931.93,-160.72 942.44,-159.4 933.4,-153.87 931.93,-160.72"/>
</a>
</g>
</g>
<!-- Node13 -->
<g id="Node000013" class="node">
<title>Node13</title>
<g id="a_Node000013"><a xlink:href="a00916.html#a8636d0418d741a19bbd9183316cd5c59" target="_top" xlink:title=" ">
<polygon fill="white" stroke="#666666" points="862.5,-198 765.5,-198 765.5,-166 862.5,-166 862.5,-198"/>
<text text-anchor="start" x="773.5" y="-184.5" font-family="Helvetica,sans-Serif" font-size="10.00">LibLoader::Plugin::</text>
<text text-anchor="middle" x="814" y="-172.5" font-family="Helvetica,sans-Serif" font-size="10.00">loadInternal</text>
</a>
</g>
</g>
<!-- Node11&#45;&gt;Node13 -->
<g id="edge14_Node000011_Node000013" class="edge">
<title>Node11&#45;&gt;Node13</title>
<g id="a_edge14_Node000011_Node000013"><a xlink:title=" ">
<path fill="none" stroke="#63b8ff" d="M932.7,-174.01C910,-175.55 884.39,-177.29 862.87,-178.75"/>
<polygon fill="#63b8ff" stroke="#63b8ff" points="932.67,-177.52 942.41,-173.35 932.19,-170.54 932.67,-177.52"/>
</a>
</g>
</g>
<!-- Node14 -->
<g id="Node000014" class="node">
<title>Node14</title>
<g id="a_Node000014"><a xlink:href="a00916.html#a891ce42f23fe1312ef6cad2accf4ab92" target="_top" xlink:title=" ">
<polygon fill="white" stroke="#666666" points="681.88,-198 584.88,-198 584.88,-166 681.88,-166 681.88,-198"/>
<text text-anchor="start" x="592.88" y="-184.5" font-family="Helvetica,sans-Serif" font-size="10.00">LibLoader::Plugin::</text>
<text text-anchor="middle" x="633.38" y="-172.5" font-family="Helvetica,sans-Serif" font-size="10.00">loadPlugin</text>
</a>
</g>
</g>
<!-- Node13&#45;&gt;Node14 -->
<g id="edge15_Node000013_Node000014" class="edge">
<title>Node13&#45;&gt;Node14</title>
<g id="a_edge15_Node000013_Node000014"><a xlink:title=" ">
<path fill="none" stroke="#63b8ff" d="M753.64,-182C730.38,-182 704.06,-182 682.07,-182"/>
<polygon fill="#63b8ff" stroke="#63b8ff" points="753.62,-185.5 763.62,-182 753.62,-178.5 753.62,-185.5"/>
</a>
</g>
</g>
<!-- Node16 -->
<g id="Node000016" class="node">
<title>Node16</title>
<g id="a_Node000016"><a xlink:href="a00426.html#a05f1524120bb7a5a65abbde063d9e557" target="_top" xlink:title=" ">
<polygon fill="white" stroke="#666666" points="1229,-136 1121.5,-136 1121.5,-104 1229,-104 1229,-136"/>
<text text-anchor="start" x="1129.5" y="-122.5" font-family="Helvetica,sans-Serif" font-size="10.00">LibLoader::LoaderApi</text>
<text text-anchor="middle" x="1175.25" y="-110.5" font-family="Helvetica,sans-Serif" font-size="10.00">::timer</text>
</a>
</g>
</g>
<!-- Node15&#45;&gt;Node16 -->
<g id="edge18_Node000015_Node000016" class="edge">
<title>Node15&#45;&gt;Node16</title>
<g id="a_edge18_Node000015_Node000016"><a xlink:title=" ">
<path fill="none" stroke="#63b8ff" d="M1282.17,-120C1264.76,-120 1246.1,-120 1229.37,-120"/>
<polygon fill="#63b8ff" stroke="#63b8ff" points="1281.88,-123.5 1291.88,-120 1281.88,-116.5 1281.88,-123.5"/>
</a>
</g>
</g>
<!-- Node17 -->
<g id="Node000017" class="node">
<title>Node17</title>
<g id="a_Node000017"><a xlink:href="a00412.html#a0edd1fee858de73bb144b4f7832a573d" target="_top" xlink:title="定时任务, 在一定时间后广播**一次**TimeOutEvent">
<polygon fill="white" stroke="#666666" points="1040.88,-122 944.62,-122 944.62,-102 1040.88,-102 1040.88,-122"/>
<text text-anchor="middle" x="992.75" y="-108.5" font-family="Helvetica,sans-Serif" font-size="10.00">MiraiCP::schedule</text>
</a>
</g>
</g>
<!-- Node16&#45;&gt;Node17 -->
<g id="edge19_Node000016_Node000017" class="edge">
<title>Node16&#45;&gt;Node17</title>
<g id="a_edge19_Node000016_Node000017"><a xlink:title=" ">
<path fill="none" stroke="#63b8ff" d="M1109.85,-117.15C1087.25,-116.14 1062.3,-115.04 1041.33,-114.11"/>
<polygon fill="#63b8ff" stroke="#63b8ff" points="1109.41,-120.63 1119.56,-117.58 1109.72,-113.64 1109.41,-120.63"/>
</a>
</g>
</g>
<!-- Node19 -->
<g id="Node000019" class="node">
<title>Node19</title>
<g id="a_Node000019"><a xlink:href="a00431.html#ac6360f8f60a063ca92ee816f65a8a2a1" target="_top" xlink:title=" ">
<polygon fill="white" stroke="#666666" points="1061.5,-76 924,-76 924,-44 1061.5,-44 1061.5,-76"/>
<text text-anchor="start" x="932" y="-62.5" font-family="Helvetica,sans-Serif" font-size="10.00">LibLoader::MessageHandler</text>
<text text-anchor="middle" x="992.75" y="-50.5" font-family="Helvetica,sans-Serif" font-size="10.00">::timer_message</text>
</a>
</g>
</g>
<!-- Node16&#45;&gt;Node19 -->
<g id="edge21_Node000016_Node000019" class="edge">
<title>Node16&#45;&gt;Node19</title>
<g id="a_edge21_Node000016_Node000019"><a xlink:title=" ">
<path fill="none" stroke="#63b8ff" d="M1112.82,-100.05C1107.64,-98.35 1102.48,-96.65 1097.5,-95 1079.46,-89.02 1059.68,-82.37 1042.27,-76.49"/>
<polygon fill="#63b8ff" stroke="#63b8ff" points="1111.41,-103.28 1122.01,-103.06 1113.59,-96.62 1111.41,-103.28"/>
</a>
</g>
</g>
<!-- Node18 -->
<g id="Node000018" class="node">
<title>Node18</title>
<g id="a_Node000018"><a xlink:href="a00412.html#a9d9b304caa9cf25c6f148b99ee9651f6" target="_top" xlink:title="定时任务, 在一定时间后广播**一次**TimeOutEvent，chrono重载">
<polygon fill="white" stroke="#666666" points="862.12,-98 765.88,-98 765.88,-78 862.12,-78 862.12,-98"/>
<text text-anchor="middle" x="814" y="-84.5" font-family="Helvetica,sans-Serif" font-size="10.00">MiraiCP::schedule</text>
</a>
</g>
</g>
<!-- Node17&#45;&gt;Node18 -->
<g id="edge20_Node000017_Node000018" class="edge">
<title>Node17&#45;&gt;Node18</title>
<g id="a_edge20_Node000017_Node000018"><a xlink:title=" ">
<path fill="none" stroke="#63b8ff" d="M933.06,-104.03C910.14,-100.92 884.21,-97.4 862.5,-94.45"/>
<polygon fill="#63b8ff" stroke="#63b8ff" points="932.5,-107.49 942.88,-105.36 933.45,-100.55 932.5,-107.49"/>
</a>
</g>
</g>
<!-- Node20 -->
<g id="Node000020" class="node">
<title>Node20</title>
<g id="a_Node000020"><a xlink:href="a00892.html#ac44a2bba9059176d3ccb04ed1eb065a3" target="_top" xlink:title=" ">
<polygon fill="white" stroke="#666666" points="888,-60 740,-60 740,-28 888,-28 888,-60"/>
<text text-anchor="start" x="748" y="-46.5" font-family="Helvetica,sans-Serif" font-size="10.00">LibLoader::MessageProcessor</text>
<text text-anchor="middle" x="814" y="-34.5" font-family="Helvetica,sans-Serif" font-size="10.00">::registerDefaultHandlers</text>
</a>
</g>
</g>
<!-- Node19&#45;&gt;Node20 -->
<g id="edge22_Node000019_Node000020" class="edge">
<title>Node19&#45;&gt;Node20</title>
<g id="a_edge22_Node000019_Node000020"><a xlink:title=" ">
<path fill="none" stroke="#63b8ff" d="M912.42,-52.82C904.4,-52.09 896.28,-51.36 888.33,-50.64"/>
<polygon fill="#63b8ff" stroke="#63b8ff" points="911.88,-56.28 922.16,-53.7 912.52,-49.31 911.88,-56.28"/>
</a>
</g>
</g>
<!-- Node21 -->
<g id="Node000021" class="node">
<title>Node21</title>
<g id="a_Node000021"><a xlink:href="a00884.html#ac95c9bf6b208cbeab2e9b1cdfcb7c3d6" target="_top" xlink:title=" ">
<polygon fill="white" stroke="#666666" points="704,-128 562.75,-128 562.75,-96 704,-96 704,-128"/>
<text text-anchor="start" x="570.75" y="-114.5" font-family="Helvetica,sans-Serif" font-size="10.00">LibLoader::MessageManager</text>
<text text-anchor="middle" x="633.38" y="-102.5" font-family="Helvetica,sans-Serif" font-size="10.00">::init</text>
</a>
</g>
</g>
<!-- Node20&#45;&gt;Node21 -->
<g id="edge23_Node000020_Node000021" class="edge">
<title>Node20&#45;&gt;Node21</title>
<g id="a_edge23_Node000020_Node000021"><a xlink:title=" ">
<path fill="none" stroke="#63b8ff" d="M753.27,-64.15C748.77,-65.76 744.3,-67.39 740,-69 717.75,-77.33 693.15,-87.3 673.29,-95.54"/>
<polygon fill="#63b8ff" stroke="#63b8ff" points="754.09,-67.57 762.35,-60.93 751.76,-60.97 754.09,-67.57"/>
</a>
</g>
</g>
<!-- Node21&#45;&gt;Node3 -->
<g id="edge24_Node000021_Node000003" class="edge">
<title>Node21&#45;&gt;Node3</title>
<g id="a_edge24_Node000021_Node000003"><a xlink:title=" ">
<path fill="none" stroke="#63b8ff" d="M562.7,-131.38C550.78,-134.7 538.53,-138.11 527.01,-141.31"/>
<polygon fill="#63b8ff" stroke="#63b8ff" points="563.37,-134.83 572.06,-128.78 561.49,-128.09 563.37,-134.83"/>
</a>
</g>
</g>
<!-- Node23 -->
<g id="Node000023" class="node">
<title>Node23</title>
<g id="a_Node000023"><a xlink:href="a00425.html#afbf560680f6b525ee0240f614a0177b6" target="_top" xlink:title=" ">
<polygon fill="white" stroke="#666666" points="1253,-48 1097.5,-48 1097.5,-28 1253,-28 1253,-48"/>
<text text-anchor="middle" x="1175.25" y="-34.5" font-family="Helvetica,sans-Serif" font-size="10.00">LibLoader::sendPluginException</text>
</a>
</g>
</g>
<!-- Node22&#45;&gt;Node23 -->
<g id="edge26_Node000022_Node000023" class="edge">
<title>Node22&#45;&gt;Node23</title>
<g id="a_edge26_Node000022_Node000023"><a xlink:title=" ">
<path fill="none" stroke="#63b8ff" d="M1288.16,-63.02C1266.9,-58.26 1243.14,-52.95 1223,-48.45"/>
<polygon fill="#63b8ff" stroke="#63b8ff" points="1287.35,-66.42 1297.87,-65.19 1288.87,-59.59 1287.35,-66.42"/>
</a>
</g>
</g>
<!-- Node24 -->
<g id="Node000024" class="node">
<title>Node24</title>
<g id="a_Node000024"><a xlink:href="a00425.html#a7ee448e1b260709b6a8d73fa41ec5c15" target="_top" xlink:title=" ">
<polygon fill="white" stroke="#666666" points="1245.88,-86 1104.62,-86 1104.62,-66 1245.88,-66 1245.88,-86"/>
<text text-anchor="middle" x="1175.25" y="-72.5" font-family="Helvetica,sans-Serif" font-size="10.00">LibLoader::sendThreadReset</text>
</a>
</g>
</g>
<!-- Node22&#45;&gt;Node24 -->
<g id="edge27_Node000022_Node000024" class="edge">
<title>Node22&#45;&gt;Node24</title>
<g id="a_edge27_Node000022_Node000024"><a xlink:title=" ">
<path fill="none" stroke="#63b8ff" d="M1277.27,-76C1267,-76 1256.41,-76 1246.12,-76"/>
<polygon fill="#63b8ff" stroke="#63b8ff" points="1277.18,-79.5 1287.18,-76 1277.18,-72.5 1277.18,-79.5"/>
</a>
</g>
</g>
</g>
</svg>
