<?xml version="1.0" encoding="UTF-8" standalone="no"?>
<!DOCTYPE svg PUBLIC "-//W3C//DTD SVG 1.1//EN"
 "http://www.w3.org/Graphics/SVG/1.1/DTD/svg11.dtd">
<!-- Generated by graphviz version 9.0.0 (0)
 -->
<!-- Title: LibLoader::LoaderApi::libOpen Pages: 1 -->
<svg width="515pt" height="40pt"
 viewBox="0.00 0.00 514.50 40.00" xmlns="http://www.w3.org/2000/svg" xmlns:xlink="http://www.w3.org/1999/xlink">
<g id="graph0" class="graph" transform="scale(1 1) rotate(0) translate(4 36)">
<title>LibLoader::LoaderApi::libOpen</title>
<!-- Node1 -->
<g id="Node000001" class="node">
<title>Node1</title>
<g id="a_Node000001"><a xlink:title=" ">
<polygon fill="#999999" stroke="#666666" points="506.5,-32 399,-32 399,0 506.5,0 506.5,-32"/>
<text text-anchor="start" x="407" y="-18.5" font-family="Helvetica,sans-Serif" font-size="10.00">LibLoader::LoaderApi</text>
<text text-anchor="middle" x="452.75" y="-6.5" font-family="Helvetica,sans-Serif" font-size="10.00">::libOpen</text>
</a>
</g>
</g>
<!-- Node2 -->
<g id="Node000002" class="node">
<title>Node2</title>
<g id="a_Node000002"><a xlink:href="a00916.html#a7062e1d55334d7692b5461049aff475c" target="_top" xlink:title=" ">
<polygon fill="white" stroke="#666666" points="363,-32 266,-32 266,0 363,0 363,-32"/>
<text text-anchor="start" x="274" y="-18.5" font-family="Helvetica,sans-Serif" font-size="10.00">LibLoader::Plugin::</text>
<text text-anchor="middle" x="314.5" y="-6.5" font-family="Helvetica,sans-Serif" font-size="10.00">loadNewPlugin</text>
</a>
</g>
</g>
<!-- Node1&#45;&gt;Node2 -->
<g id="edge1_Node000001_Node000002" class="edge">
<title>Node1&#45;&gt;Node2</title>
<g id="a_edge1_Node000001_Node000002"><a xlink:title=" ">
<path fill="none" stroke="#63b8ff" d="M387.34,-16C379.25,-16 371.09,-16 363.32,-16"/>
<polygon fill="#63b8ff" stroke="#63b8ff" points="387.17,-19.5 397.17,-16 387.17,-12.5 387.17,-19.5"/>
</a>
</g>
</g>
<!-- Node3 -->
<g id="Node000003" class="node">
<title>Node3</title>
<g id="a_Node000003"><a xlink:href="a00916.html#a8636d0418d741a19bbd9183316cd5c59" target="_top" xlink:title=" ">
<polygon fill="white" stroke="#666666" points="230,-32 133,-32 133,0 230,0 230,-32"/>
<text text-anchor="start" x="141" y="-18.5" font-family="Helvetica,sans-Serif" font-size="10.00">LibLoader::Plugin::</text>
<text text-anchor="middle" x="181.5" y="-6.5" font-family="Helvetica,sans-Serif" font-size="10.00">loadInternal</text>
</a>
</g>
</g>
<!-- Node2&#45;&gt;Node3 -->
<g id="edge2_Node000002_Node000003" class="edge">
<title>Node2&#45;&gt;Node3</title>
<g id="a_edge2_Node000002_Node000003"><a xlink:title=" ">
<path fill="none" stroke="#63b8ff" d="M254.53,-16C246.44,-16 238.21,-16 230.35,-16"/>
<polygon fill="#63b8ff" stroke="#63b8ff" points="254.32,-19.5 264.32,-16 254.32,-12.5 254.32,-19.5"/>
</a>
</g>
</g>
<!-- Node4 -->
<g id="Node000004" class="node">
<title>Node4</title>
<g id="a_Node000004"><a xlink:href="a00916.html#a891ce42f23fe1312ef6cad2accf4ab92" target="_top" xlink:title=" ">
<polygon fill="white" stroke="#666666" points="97,-32 0,-32 0,0 97,0 97,-32"/>
<text text-anchor="start" x="8" y="-18.5" font-family="Helvetica,sans-Serif" font-size="10.00">LibLoader::Plugin::</text>
<text text-anchor="middle" x="48.5" y="-6.5" font-family="Helvetica,sans-Serif" font-size="10.00">loadPlugin</text>
</a>
</g>
</g>
<!-- Node3&#45;&gt;Node4 -->
<g id="edge3_Node000003_Node000004" class="edge">
<title>Node3&#45;&gt;Node4</title>
<g id="a_edge3_Node000003_Node000004"><a xlink:title=" ">
<path fill="none" stroke="#63b8ff" d="M121.53,-16C113.44,-16 105.21,-16 97.35,-16"/>
<polygon fill="#63b8ff" stroke="#63b8ff" points="121.32,-19.5 131.32,-16 121.32,-12.5 121.32,-19.5"/>
</a>
</g>
</g>
</g>
</svg>
