<?xml version="1.0" encoding="UTF-8" standalone="no"?>
<!DOCTYPE svg PUBLIC "-//W3C//DTD SVG 1.1//EN"
 "http://www.w3.org/Graphics/SVG/1.1/DTD/svg11.dtd">
<!-- Generated by graphviz version 9.0.0 (0)
 -->
<!-- Title: LibLoader::Scheduler::timer Pages: 1 -->
<svg width="2022pt" height="204pt"
 viewBox="0.00 0.00 2022.00 204.00" xmlns="http://www.w3.org/2000/svg" xmlns:xlink="http://www.w3.org/1999/xlink">
<g id="graph0" class="graph" transform="scale(1 1) rotate(0) translate(4 200)">
<title>LibLoader::Scheduler::timer</title>
<!-- Node1 -->
<g id="Node000001" class="node">
<title>Node1</title>
<g id="a_Node000001"><a xlink:title="新增一个计时器，对接libLoader API">
<polygon fill="#999999" stroke="#666666" points="2014,-72 1906.5,-72 1906.5,-40 2014,-40 2014,-72"/>
<text text-anchor="start" x="1914.5" y="-58.5" font-family="Helvetica,sans-Serif" font-size="10.00">LibLoader::Scheduler</text>
<text text-anchor="middle" x="1960.25" y="-46.5" font-family="Helvetica,sans-Serif" font-size="10.00">::timer</text>
</a>
</g>
</g>
<!-- Node2 -->
<g id="Node000002" class="node">
<title>Node2</title>
<g id="a_Node000002"><a xlink:href="a00426.html#a05f1524120bb7a5a65abbde063d9e557" target="_top" xlink:title=" ">
<polygon fill="white" stroke="#666666" points="1870.5,-129 1763,-129 1763,-97 1870.5,-97 1870.5,-129"/>
<text text-anchor="start" x="1771" y="-115.5" font-family="Helvetica,sans-Serif" font-size="10.00">LibLoader::LoaderApi</text>
<text text-anchor="middle" x="1816.75" y="-103.5" font-family="Helvetica,sans-Serif" font-size="10.00">::timer</text>
</a>
</g>
</g>
<!-- Node1&#45;&gt;Node2 -->
<g id="edge1_Node000001_Node000002" class="edge">
<title>Node1&#45;&gt;Node2</title>
<g id="a_edge1_Node000001_Node000002"><a xlink:title=" ">
<path fill="none" stroke="#63b8ff" d="M1907.91,-76.68C1891.68,-83.22 1873.98,-90.35 1858.59,-96.55"/>
<polygon fill="#63b8ff" stroke="#63b8ff" points="1908.95,-80.04 1916.92,-73.05 1906.33,-73.54 1908.95,-80.04"/>
</a>
</g>
</g>
<!-- Node3 -->
<g id="Node000003" class="node">
<title>Node3</title>
<g id="a_Node000003"><a xlink:href="a00412.html#a0edd1fee858de73bb144b4f7832a573d" target="_top" xlink:title="定时任务, 在一定时间后广播**一次**TimeOutEvent">
<polygon fill="white" stroke="#666666" points="1706.38,-167 1610.12,-167 1610.12,-147 1706.38,-147 1706.38,-167"/>
<text text-anchor="middle" x="1658.25" y="-153.5" font-family="Helvetica,sans-Serif" font-size="10.00">MiraiCP::schedule</text>
</a>
</g>
</g>
<!-- Node2&#45;&gt;Node3 -->
<g id="edge2_Node000002_Node000003" class="edge">
<title>Node2&#45;&gt;Node3</title>
<g id="a_edge2_Node000002_Node000003"><a xlink:title=" ">
<path fill="none" stroke="#63b8ff" d="M1751.84,-131.01C1743.48,-133.37 1735.04,-135.74 1727,-138 1717.12,-140.78 1706.43,-143.78 1696.53,-146.55"/>
<polygon fill="#63b8ff" stroke="#63b8ff" points="1752.59,-134.44 1761.27,-128.36 1750.69,-127.7 1752.59,-134.44"/>
</a>
</g>
</g>
<!-- Node5 -->
<g id="Node000005" class="node">
<title>Node5</title>
<g id="a_Node000005"><a xlink:href="a00431.html#ac6360f8f60a063ca92ee816f65a8a2a1" target="_top" xlink:title=" ">
<polygon fill="white" stroke="#666666" points="1727,-129 1589.5,-129 1589.5,-97 1727,-97 1727,-129"/>
<text text-anchor="start" x="1597.5" y="-115.5" font-family="Helvetica,sans-Serif" font-size="10.00">LibLoader::MessageHandler</text>
<text text-anchor="middle" x="1658.25" y="-103.5" font-family="Helvetica,sans-Serif" font-size="10.00">::timer_message</text>
</a>
</g>
</g>
<!-- Node2&#45;&gt;Node5 -->
<g id="edge4_Node000002_Node000005" class="edge">
<title>Node2&#45;&gt;Node5</title>
<g id="a_edge4_Node000002_Node000005"><a xlink:title=" ">
<path fill="none" stroke="#63b8ff" d="M1751.38,-113C1743.48,-113 1735.39,-113 1727.44,-113"/>
<polygon fill="#63b8ff" stroke="#63b8ff" points="1751.25,-116.5 1761.25,-113 1751.25,-109.5 1751.25,-116.5"/>
</a>
</g>
</g>
<!-- Node4 -->
<g id="Node000004" class="node">
<title>Node4</title>
<g id="a_Node000004"><a xlink:href="a00412.html#a9d9b304caa9cf25c6f148b99ee9651f6" target="_top" xlink:title="定时任务, 在一定时间后广播**一次**TimeOutEvent，chrono重载">
<polygon fill="white" stroke="#666666" points="1527.62,-167 1431.38,-167 1431.38,-147 1527.62,-147 1527.62,-167"/>
<text text-anchor="middle" x="1479.5" y="-153.5" font-family="Helvetica,sans-Serif" font-size="10.00">MiraiCP::schedule</text>
</a>
</g>
</g>
<!-- Node3&#45;&gt;Node4 -->
<g id="edge3_Node000003_Node000004" class="edge">
<title>Node3&#45;&gt;Node4</title>
<g id="a_edge3_Node000003_Node000004"><a xlink:title=" ">
<path fill="none" stroke="#63b8ff" d="M1598.56,-157C1575.64,-157 1549.71,-157 1528,-157"/>
<polygon fill="#63b8ff" stroke="#63b8ff" points="1598.37,-160.5 1608.37,-157 1598.37,-153.5 1598.37,-160.5"/>
</a>
</g>
</g>
<!-- Node6 -->
<g id="Node000006" class="node">
<title>Node6</title>
<g id="a_Node000006"><a xlink:href="a00892.html#ac44a2bba9059176d3ccb04ed1eb065a3" target="_top" xlink:title=" ">
<polygon fill="white" stroke="#666666" points="1553.5,-129 1405.5,-129 1405.5,-97 1553.5,-97 1553.5,-129"/>
<text text-anchor="start" x="1413.5" y="-115.5" font-family="Helvetica,sans-Serif" font-size="10.00">LibLoader::MessageProcessor</text>
<text text-anchor="middle" x="1479.5" y="-103.5" font-family="Helvetica,sans-Serif" font-size="10.00">::registerDefaultHandlers</text>
</a>
</g>
</g>
<!-- Node5&#45;&gt;Node6 -->
<g id="edge5_Node000005_Node000006" class="edge">
<title>Node5&#45;&gt;Node6</title>
<g id="a_edge5_Node000005_Node000006"><a xlink:title=" ">
<path fill="none" stroke="#63b8ff" d="M1577.92,-113C1569.9,-113 1561.78,-113 1553.83,-113"/>
<polygon fill="#63b8ff" stroke="#63b8ff" points="1577.65,-116.5 1587.65,-113 1577.65,-109.5 1577.65,-116.5"/>
</a>
</g>
</g>
<!-- Node7 -->
<g id="Node000007" class="node">
<title>Node7</title>
<g id="a_Node000007"><a xlink:href="a00884.html#ac95c9bf6b208cbeab2e9b1cdfcb7c3d6" target="_top" xlink:title=" ">
<polygon fill="white" stroke="#666666" points="1369.5,-146 1228.25,-146 1228.25,-114 1369.5,-114 1369.5,-146"/>
<text text-anchor="start" x="1236.25" y="-132.5" font-family="Helvetica,sans-Serif" font-size="10.00">LibLoader::MessageManager</text>
<text text-anchor="middle" x="1298.88" y="-120.5" font-family="Helvetica,sans-Serif" font-size="10.00">::init</text>
</a>
</g>
</g>
<!-- Node6&#45;&gt;Node7 -->
<g id="edge6_Node000006_Node000007" class="edge">
<title>Node6&#45;&gt;Node7</title>
<g id="a_edge6_Node000006_Node000007"><a xlink:title=" ">
<path fill="none" stroke="#63b8ff" d="M1393.8,-121.06C1385.78,-121.82 1377.71,-122.59 1369.85,-123.34"/>
<polygon fill="#63b8ff" stroke="#63b8ff" points="1393.94,-124.56 1403.57,-120.13 1393.28,-117.59 1393.94,-124.56"/>
</a>
</g>
</g>
<!-- Node8 -->
<g id="Node000008" class="node">
<title>Node8</title>
<g id="a_Node000008"><a xlink:href="a00880.html#a79cbc18aabed7afe2c7ea30f989ffc8c" target="_top" xlink:title="LoaderMain实现开始">
<polygon fill="white" stroke="#666666" points="1192.25,-155 1078,-155 1078,-123 1192.25,-123 1192.25,-155"/>
<text text-anchor="start" x="1086" y="-141.5" font-family="Helvetica,sans-Serif" font-size="10.00">LibLoader::LoaderMain</text>
<text text-anchor="middle" x="1135.12" y="-129.5" font-family="Helvetica,sans-Serif" font-size="10.00">::loaderMain</text>
</a>
</g>
</g>
<!-- Node7&#45;&gt;Node8 -->
<g id="edge7_Node000007_Node000008" class="edge">
<title>Node7&#45;&gt;Node8</title>
<g id="a_edge7_Node000007_Node000008"><a xlink:title=" ">
<path fill="none" stroke="#63b8ff" d="M1216.48,-134.53C1208.41,-134.98 1200.34,-135.43 1192.61,-135.86"/>
<polygon fill="#63b8ff" stroke="#63b8ff" points="1216.57,-138.03 1226.36,-133.98 1216.18,-131.04 1216.57,-138.03"/>
</a>
</g>
</g>
<!-- Node9 -->
<g id="Node000009" class="node">
<title>Node9</title>
<g id="a_Node000009"><a xlink:href="a00880.html#a22eacbd6aa585f32d0fccce0a69ab642" target="_top" xlink:title=" ">
<polygon fill="white" stroke="#666666" points="1042,-154 908.25,-154 908.25,-134 1042,-134 1042,-154"/>
<text text-anchor="middle" x="975.12" y="-140.5" font-family="Helvetica,sans-Serif" font-size="10.00">LibLoader::LoaderMain::get</text>
</a>
</g>
</g>
<!-- Node8&#45;&gt;Node9 -->
<g id="edge8_Node000008_Node000009" class="edge">
<title>Node8&#45;&gt;Node9</title>
<g id="a_edge8_Node000008_Node000009"><a xlink:title=" ">
<path fill="none" stroke="#63b8ff" d="M1066.1,-141.15C1058.21,-141.4 1050.16,-141.66 1042.29,-141.91"/>
<polygon fill="#63b8ff" stroke="#63b8ff" points="1066.13,-144.65 1076.02,-140.84 1065.91,-137.66 1066.13,-144.65"/>
</a>
</g>
</g>
<!-- Node23 -->
<g id="Node000023" class="node">
<title>Node23</title>
<g id="a_Node000023"><a xlink:href="a00314.html#aafbc26593c69471626589f38c751ef09" target="_top" xlink:title=" ">
<polygon fill="white" stroke="#666666" points="837.38,-196 777.88,-196 777.88,-176 837.38,-176 837.38,-196"/>
<text text-anchor="middle" x="807.62" y="-182.5" font-family="Helvetica,sans-Serif" font-size="10.00">VerifyImpl</text>
</a>
</g>
</g>
<!-- Node8&#45;&gt;Node23 -->
<g id="edge27_Node000008_Node000023" class="edge">
<title>Node8&#45;&gt;Node23</title>
<g id="a_edge27_Node000008_Node000023"><a xlink:title=" ">
<path fill="none" stroke="#63b8ff" d="M1067.01,-157.78C1058.63,-159.74 1050.15,-161.55 1042,-163 969.05,-176.01 881.87,-182.15 837.57,-184.61"/>
<polygon fill="#63b8ff" stroke="#63b8ff" points="1067.56,-161.25 1076.45,-155.49 1065.9,-154.45 1067.56,-161.25"/>
</a>
</g>
</g>
<!-- Node10 -->
<g id="Node000010" class="node">
<title>Node10</title>
<g id="a_Node000010"><a xlink:href="a00425.html#a46f4ab12479d61956e7dc81cfb19fef5" target="_top" xlink:title=" ">
<polygon fill="white" stroke="#666666" points="872.25,-120 743,-120 743,-100 872.25,-100 872.25,-120"/>
<text text-anchor="middle" x="807.62" y="-106.5" font-family="Helvetica,sans-Serif" font-size="10.00">LibLoader::loaderWakeCV</text>
</a>
</g>
</g>
<!-- Node9&#45;&gt;Node10 -->
<g id="edge9_Node000009_Node000010" class="edge">
<title>Node9&#45;&gt;Node10</title>
<g id="a_edge9_Node000009_Node000010"><a xlink:title=" ">
<path fill="none" stroke="#63b8ff" d="M911.96,-131.23C894.64,-127.67 876.04,-123.85 859.46,-120.44"/>
<polygon fill="#63b8ff" stroke="#63b8ff" points="911.14,-134.63 921.64,-133.22 912.55,-127.78 911.14,-134.63"/>
</a>
</g>
</g>
<!-- Node18 -->
<g id="Node000018" class="node">
<title>Node18</title>
<g id="a_Node000018"><a xlink:href="a00314.html#a2e0217581c8df7fd1fc867cc3a8317d3" target="_top" xlink:title=" ">
<polygon fill="white" stroke="#666666" points="696.12,-158 601.38,-158 601.38,-138 696.12,-138 696.12,-158"/>
<text text-anchor="middle" x="648.75" y="-144.5" font-family="Helvetica,sans-Serif" font-size="10.00">PluginDisableImpl</text>
</a>
</g>
</g>
<!-- Node9&#45;&gt;Node18 -->
<g id="edge24_Node000009_Node000018" class="edge">
<title>Node9&#45;&gt;Node18</title>
<g id="a_edge24_Node000009_Node000018"><a xlink:title=" ">
<path fill="none" stroke="#63b8ff" d="M896.72,-144.95C834.31,-145.72 748.6,-146.78 696.3,-147.43"/>
<polygon fill="#63b8ff" stroke="#63b8ff" points="896.62,-148.46 906.58,-144.83 896.54,-141.46 896.62,-148.46"/>
</a>
</g>
</g>
<!-- Node9&#45;&gt;Node23 -->
<g id="edge25_Node000009_Node000023" class="edge">
<title>Node9&#45;&gt;Node23</title>
<g id="a_edge25_Node000009_Node000023"><a xlink:title=" ">
<path fill="none" stroke="#63b8ff" d="M921.66,-157.31C893.92,-164.35 860.91,-172.73 837.75,-178.61"/>
<polygon fill="#63b8ff" stroke="#63b8ff" points="922.49,-160.71 931.32,-154.86 920.77,-153.93 922.49,-160.71"/>
</a>
</g>
</g>
<!-- Node10&#45;&gt;Node1 -->
<g id="edge20_Node000010_Node000001" class="edge">
<title>Node10&#45;&gt;Node1</title>
<g id="a_edge20_Node000010_Node000001"><a xlink:title=" ">
<path fill="none" stroke="#63b8ff" d="M845.46,-95.56C905.11,-73.52 1027,-34 1134.12,-34 1659.25,-34 1659.25,-34 1659.25,-34 1745.94,-34 1846.35,-43.25 1906.23,-49.75"/>
<polygon fill="#63b8ff" stroke="#63b8ff" points="844.27,-92.27 836.14,-99.06 846.73,-98.82 844.27,-92.27"/>
</a>
</g>
</g>
<!-- Node11 -->
<g id="Node000011" class="node">
<title>Node11</title>
<g id="a_Node000011"><a xlink:href="a00880.html#a9ca8ba2c9fcbfade9adf4a0a2bb47eaa" target="_top" xlink:title=" ">
<polygon fill="white" stroke="#666666" points="705.88,-32 591.62,-32 591.62,0 705.88,0 705.88,-32"/>
<text text-anchor="start" x="599.62" y="-18.5" font-family="Helvetica,sans-Serif" font-size="10.00">LibLoader::LoaderMain</text>
<text text-anchor="middle" x="648.75" y="-6.5" font-family="Helvetica,sans-Serif" font-size="10.00">::mainloop</text>
</a>
</g>
</g>
<!-- Node10&#45;&gt;Node11 -->
<g id="edge10_Node000010_Node000011" class="edge">
<title>Node10&#45;&gt;Node11</title>
<g id="a_edge10_Node000010_Node000011"><a xlink:title=" ">
<path fill="none" stroke="#63b8ff" d="M758.4,-95.03C752.98,-92.42 747.71,-89.43 743,-86 722.28,-70.94 727.33,-56.58 707,-41 702.87,-37.83 698.27,-34.98 693.53,-32.42"/>
<polygon fill="#63b8ff" stroke="#63b8ff" points="756.97,-98.22 767.53,-98.97 759.74,-91.79 756.97,-98.22"/>
</a>
</g>
</g>
<!-- Node12 -->
<g id="Node000012" class="node">
<title>Node12</title>
<g id="a_Node000012"><a xlink:href="a00281.html#a36a04ab86ecc081ee51d32866ef7a332" target="_top" xlink:title=" ">
<polygon fill="white" stroke="#666666" points="699.12,-82 598.38,-82 598.38,-50 699.12,-50 699.12,-82"/>
<text text-anchor="start" x="606.38" y="-68.5" font-family="Helvetica,sans-Serif" font-size="10.00">plugin_raw_API_try</text>
<text text-anchor="middle" x="648.75" y="-56.5" font-family="Helvetica,sans-Serif" font-size="10.00">_wake_loader</text>
</a>
</g>
</g>
<!-- Node10&#45;&gt;Node12 -->
<g id="edge12_Node000010_Node000012" class="edge">
<title>Node10&#45;&gt;Node12</title>
<g id="a_edge12_Node000010_Node000012"><a xlink:title=" ">
<path fill="none" stroke="#63b8ff" d="M758.48,-96.5C739.75,-91.24 718.3,-85.23 699.42,-79.93"/>
<polygon fill="#63b8ff" stroke="#63b8ff" points="757.42,-99.83 767.99,-99.16 759.31,-93.09 757.42,-99.83"/>
</a>
</g>
</g>
<!-- Node10&#45;&gt;Node18 -->
<g id="edge18_Node000010_Node000018" class="edge">
<title>Node10&#45;&gt;Node18</title>
<g id="a_edge18_Node000010_Node000018"><a xlink:title=" ">
<path fill="none" stroke="#63b8ff" d="M752.21,-123.18C732.8,-127.88 711.22,-133.11 692.89,-137.55"/>
<polygon fill="#63b8ff" stroke="#63b8ff" points="752.98,-126.6 761.87,-120.84 751.33,-119.79 752.98,-126.6"/>
</a>
</g>
</g>
<!-- Node20 -->
<g id="Node000020" class="node">
<title>Node20</title>
<g id="a_Node000020"><a xlink:href="a00425.html#a4bd4ee75c4f2ea14034626c7cbf73bb4" target="_top" xlink:title=" ">
<polygon fill="white" stroke="#666666" points="707,-120 590.5,-120 590.5,-100 707,-100 707,-120"/>
<text text-anchor="middle" x="648.75" y="-106.5" font-family="Helvetica,sans-Serif" font-size="10.00">LibLoader::wakeLoader</text>
</a>
</g>
</g>
<!-- Node10&#45;&gt;Node20 -->
<g id="edge21_Node000010_Node000020" class="edge">
<title>Node10&#45;&gt;Node20</title>
<g id="a_edge21_Node000010_Node000020"><a xlink:title=" ">
<path fill="none" stroke="#63b8ff" d="M731.47,-110C723.39,-110 715.27,-110 707.44,-110"/>
<polygon fill="#63b8ff" stroke="#63b8ff" points="731.3,-113.5 741.3,-110 731.3,-106.5 731.3,-113.5"/>
</a>
</g>
</g>
<!-- Node11&#45;&gt;Node8 -->
<g id="edge11_Node000011_Node000008" class="edge">
<title>Node11&#45;&gt;Node8</title>
<g id="a_edge11_Node000011_Node000008"><a xlink:title=" ">
<path fill="none" stroke="#63b8ff" d="M717.32,-33.16C813.45,-57.57 987.95,-101.88 1077.61,-124.65"/>
<polygon fill="#63b8ff" stroke="#63b8ff" points="718.3,-29.8 707.74,-30.73 716.57,-36.58 718.3,-29.8"/>
</a>
</g>
</g>
<!-- Node13 -->
<g id="Node000013" class="node">
<title>Node13</title>
<g id="a_Node000013"><a xlink:href="a00916.html#a14895bee64bb1c12e16b97d038b699b7" target="_top" xlink:title="这部分是一些工具函数、对象">
<polygon fill="white" stroke="#666666" points="525.25,-63 428.25,-63 428.25,-31 525.25,-31 525.25,-63"/>
<text text-anchor="start" x="436.25" y="-49.5" font-family="Helvetica,sans-Serif" font-size="10.00">LibLoader::Plugin::</text>
<text text-anchor="middle" x="476.75" y="-37.5" font-family="Helvetica,sans-Serif" font-size="10.00">callEntrance</text>
</a>
</g>
</g>
<!-- Node12&#45;&gt;Node13 -->
<g id="edge13_Node000012_Node000013" class="edge">
<title>Node12&#45;&gt;Node13</title>
<g id="a_edge13_Node000012_Node000013"><a xlink:title=" ">
<path fill="none" stroke="#63b8ff" d="M586.87,-59.2C566.76,-56.95 544.68,-54.48 525.68,-52.36"/>
<polygon fill="#63b8ff" stroke="#63b8ff" points="586.29,-62.65 596.62,-60.29 587.07,-55.7 586.29,-62.65"/>
</a>
</g>
</g>
<!-- Node14 -->
<g id="Node000014" class="node">
<title>Node14</title>
<g id="a_Node000014"><a xlink:href="a00916.html#a450c1c6820ab6c5417691359d88d8220" target="_top" xlink:title=" ">
<polygon fill="white" stroke="#666666" points="363,-63 266,-63 266,-31 363,-31 363,-63"/>
<text text-anchor="start" x="274" y="-49.5" font-family="Helvetica,sans-Serif" font-size="10.00">LibLoader::Plugin::</text>
<text text-anchor="middle" x="314.5" y="-37.5" font-family="Helvetica,sans-Serif" font-size="10.00">enableInternal</text>
</a>
</g>
</g>
<!-- Node13&#45;&gt;Node14 -->
<g id="edge14_Node000013_Node000014" class="edge">
<title>Node13&#45;&gt;Node14</title>
<g id="a_edge14_Node000013_Node000014"><a xlink:title=" ">
<path fill="none" stroke="#63b8ff" d="M416.77,-47C399.15,-47 380.05,-47 363.24,-47"/>
<polygon fill="#63b8ff" stroke="#63b8ff" points="416.59,-50.5 426.59,-47 416.59,-43.5 416.59,-50.5"/>
</a>
</g>
</g>
<!-- Node15 -->
<g id="Node000015" class="node">
<title>Node15</title>
<g id="a_Node000015"><a xlink:href="a00916.html#a549e3729f8aeb27208ef5aecb434eef1" target="_top" xlink:title=" ">
<polygon fill="white" stroke="#666666" points="230,-88 133,-88 133,-56 230,-56 230,-88"/>
<text text-anchor="start" x="141" y="-74.5" font-family="Helvetica,sans-Serif" font-size="10.00">LibLoader::Plugin::</text>
<text text-anchor="middle" x="181.5" y="-62.5" font-family="Helvetica,sans-Serif" font-size="10.00">enablePlugin</text>
</a>
</g>
</g>
<!-- Node14&#45;&gt;Node15 -->
<g id="edge15_Node000014_Node000015" class="edge">
<title>Node14&#45;&gt;Node15</title>
<g id="a_edge15_Node000014_Node000015"><a xlink:title=" ">
<path fill="none" stroke="#63b8ff" d="M254.53,-58.25C246.44,-59.8 238.21,-61.37 230.35,-62.87"/>
<polygon fill="#63b8ff" stroke="#63b8ff" points="255.18,-61.69 264.35,-56.38 253.87,-54.82 255.18,-61.69"/>
</a>
</g>
</g>
<!-- Node16 -->
<g id="Node000016" class="node">
<title>Node16</title>
<g id="a_Node000016"><a xlink:href="a00916.html#a8636d0418d741a19bbd9183316cd5c59" target="_top" xlink:title=" ">
<polygon fill="white" stroke="#666666" points="230,-38 133,-38 133,-6 230,-6 230,-38"/>
<text text-anchor="start" x="141" y="-24.5" font-family="Helvetica,sans-Serif" font-size="10.00">LibLoader::Plugin::</text>
<text text-anchor="middle" x="181.5" y="-12.5" font-family="Helvetica,sans-Serif" font-size="10.00">loadInternal</text>
</a>
</g>
</g>
<!-- Node14&#45;&gt;Node16 -->
<g id="edge16_Node000014_Node000016" class="edge">
<title>Node14&#45;&gt;Node16</title>
<g id="a_edge16_Node000014_Node000016"><a xlink:title=" ">
<path fill="none" stroke="#63b8ff" d="M254.53,-35.75C246.44,-34.2 238.21,-32.63 230.35,-31.13"/>
<polygon fill="#63b8ff" stroke="#63b8ff" points="253.87,-39.18 264.35,-37.62 255.18,-32.31 253.87,-39.18"/>
</a>
</g>
</g>
<!-- Node17 -->
<g id="Node000017" class="node">
<title>Node17</title>
<g id="a_Node000017"><a xlink:href="a00916.html#a891ce42f23fe1312ef6cad2accf4ab92" target="_top" xlink:title=" ">
<polygon fill="white" stroke="#666666" points="97,-38 0,-38 0,-6 97,-6 97,-38"/>
<text text-anchor="start" x="8" y="-24.5" font-family="Helvetica,sans-Serif" font-size="10.00">LibLoader::Plugin::</text>
<text text-anchor="middle" x="48.5" y="-12.5" font-family="Helvetica,sans-Serif" font-size="10.00">loadPlugin</text>
</a>
</g>
</g>
<!-- Node16&#45;&gt;Node17 -->
<g id="edge17_Node000016_Node000017" class="edge">
<title>Node16&#45;&gt;Node17</title>
<g id="a_edge17_Node000016_Node000017"><a xlink:title=" ">
<path fill="none" stroke="#63b8ff" d="M121.53,-22C113.44,-22 105.21,-22 97.35,-22"/>
<polygon fill="#63b8ff" stroke="#63b8ff" points="121.32,-25.5 131.32,-22 121.32,-18.5 121.32,-25.5"/>
</a>
</g>
</g>
<!-- Node19 -->
<g id="Node000019" class="node">
<title>Node19</title>
<g id="a_Node000019"><a xlink:href="a00314.html#a054b75b2be22897678d22ce9a72d91df" target="_top" xlink:title=" ">
<polygon fill="white" stroke="#666666" points="514.75,-177 438.75,-177 438.75,-157 514.75,-157 514.75,-177"/>
<text text-anchor="middle" x="476.75" y="-163.5" font-family="Helvetica,sans-Serif" font-size="10.00">PluginDisable</text>
</a>
</g>
</g>
<!-- Node18&#45;&gt;Node19 -->
<g id="edge19_Node000018_Node000019" class="edge">
<title>Node18&#45;&gt;Node19</title>
<g id="a_edge19_Node000018_Node000019"><a xlink:title=" ">
<path fill="none" stroke="#63b8ff" d="M590.17,-154.44C565.34,-157.21 537.01,-160.38 515,-162.84"/>
<polygon fill="#63b8ff" stroke="#63b8ff" points="590.24,-157.95 599.79,-153.36 589.47,-150.99 590.24,-157.95"/>
</a>
</g>
</g>
<!-- Node21 -->
<g id="Node000021" class="node">
<title>Node21</title>
<g id="a_Node000021"><a xlink:href="a00425.html#afbf560680f6b525ee0240f614a0177b6" target="_top" xlink:title=" ">
<polygon fill="white" stroke="#666666" points="554.5,-101 399,-101 399,-81 554.5,-81 554.5,-101"/>
<text text-anchor="middle" x="476.75" y="-87.5" font-family="Helvetica,sans-Serif" font-size="10.00">LibLoader::sendPluginException</text>
</a>
</g>
</g>
<!-- Node20&#45;&gt;Node21 -->
<g id="edge22_Node000020_Node000021" class="edge">
<title>Node20&#45;&gt;Node21</title>
<g id="a_edge22_Node000020_Node000021"><a xlink:title=" ">
<path fill="none" stroke="#63b8ff" d="M578.8,-102.29C570.91,-101.41 562.83,-100.51 554.84,-99.62"/>
<polygon fill="#63b8ff" stroke="#63b8ff" points="578.36,-105.77 588.69,-103.4 579.14,-98.81 578.36,-105.77"/>
</a>
</g>
</g>
<!-- Node22 -->
<g id="Node000022" class="node">
<title>Node22</title>
<g id="a_Node000022"><a xlink:href="a00425.html#a7ee448e1b260709b6a8d73fa41ec5c15" target="_top" xlink:title=" ">
<polygon fill="white" stroke="#666666" points="547.38,-139 406.12,-139 406.12,-119 547.38,-119 547.38,-139"/>
<text text-anchor="middle" x="476.75" y="-125.5" font-family="Helvetica,sans-Serif" font-size="10.00">LibLoader::sendThreadReset</text>
</a>
</g>
</g>
<!-- Node20&#45;&gt;Node22 -->
<g id="edge23_Node000020_Node000022" class="edge">
<title>Node20&#45;&gt;Node22</title>
<g id="a_edge23_Node000020_Node000022"><a xlink:title=" ">
<path fill="none" stroke="#63b8ff" d="M578.77,-117.71C568.5,-118.86 557.91,-120.04 547.62,-121.19"/>
<polygon fill="#63b8ff" stroke="#63b8ff" points="579.14,-121.19 588.69,-116.6 578.36,-114.23 579.14,-121.19"/>
</a>
</g>
</g>
<!-- Node24 -->
<g id="Node000024" class="node">
<title>Node24</title>
<g id="a_Node000024"><a xlink:href="a00314.html#a3712cdeefe60fa2a92efa90cd6200b02" target="_top" xlink:title=" ">
<polygon fill="white" stroke="#666666" points="669.12,-196 628.38,-196 628.38,-176 669.12,-176 669.12,-196"/>
<text text-anchor="middle" x="648.75" y="-182.5" font-family="Helvetica,sans-Serif" font-size="10.00">Verify</text>
</a>
</g>
</g>
<!-- Node23&#45;&gt;Node24 -->
<g id="edge26_Node000023_Node000024" class="edge">
<title>Node23&#45;&gt;Node24</title>
<g id="a_edge26_Node000023_Node000024"><a xlink:title=" ">
<path fill="none" stroke="#63b8ff" d="M766.14,-186C735.03,-186 693.43,-186 669.31,-186"/>
<polygon fill="#63b8ff" stroke="#63b8ff" points="765.97,-189.5 775.97,-186 765.97,-182.5 765.97,-189.5"/>
</a>
</g>
</g>
</g>
</svg>
