<?xml version="1.0" encoding="UTF-8" standalone="no"?>
<!DOCTYPE svg PUBLIC "-//W3C//DTD SVG 1.1//EN"
 "http://www.w3.org/Graphics/SVG/1.1/DTD/svg11.dtd">
<!-- Generated by graphviz version 9.0.0 (0)
 -->
<!-- Title: LibLoader::loader_enableAllPlugins Pages: 1 -->
<svg width="1326pt" height="100pt"
 viewBox="0.00 0.00 1325.75 100.00" xmlns="http://www.w3.org/2000/svg" xmlns:xlink="http://www.w3.org/1999/xlink">
<g id="graph0" class="graph" transform="scale(1 1) rotate(0) translate(4 96)">
<title>LibLoader::loader_enableAllPlugins</title>
<!-- Node1 -->
<g id="Node000001" class="node">
<title>Node1</title>
<g id="a_Node000001"><a xlink:title=" ">
<polygon fill="#999999" stroke="#666666" points="124,-48 0,-48 0,-16 124,-16 124,-48"/>
<text text-anchor="start" x="8" y="-34.5" font-family="Helvetica,sans-Serif" font-size="10.00">LibLoader::loader_enable</text>
<text text-anchor="middle" x="62" y="-22.5" font-family="Helvetica,sans-Serif" font-size="10.00">AllPlugins</text>
</a>
</g>
</g>
<!-- Node2 -->
<g id="Node000002" class="node">
<title>Node2</title>
<g id="a_Node000002"><a xlink:href="a00928.html#a30717b50a1c2847e4990f2883dd2ba11" target="_top" xlink:title=" ">
<polygon fill="white" stroke="#666666" points="299.38,-70 170.88,-70 170.88,-38 299.38,-38 299.38,-70"/>
<text text-anchor="start" x="178.88" y="-56.5" font-family="Helvetica,sans-Serif" font-size="10.00">LibLoader::PluginManager</text>
<text text-anchor="middle" x="235.12" y="-44.5" font-family="Helvetica,sans-Serif" font-size="10.00">::enableAll</text>
</a>
</g>
</g>
<!-- Node1&#45;&gt;Node2 -->
<g id="edge1_Node000001_Node000002" class="edge">
<title>Node1&#45;&gt;Node2</title>
<g id="a_edge1_Node000001_Node000002"><a xlink:title=" ">
<path fill="none" stroke="#63b8ff" d="M124.3,-39.88C135.71,-41.35 147.74,-42.89 159.5,-44.41"/>
<polygon fill="#63b8ff" stroke="#63b8ff" points="158.79,-47.84 169.16,-45.65 159.69,-40.9 158.79,-47.84"/>
</a>
</g>
</g>
<!-- Node10 -->
<g id="Node000010" class="node">
<title>Node10</title>
<g id="a_Node000010"><a xlink:href="a00928.html#a39ce5601eee168a69cab158349412c3e" target="_top" xlink:title=" ">
<polygon fill="white" stroke="#666666" points="310.25,-20 160,-20 160,0 310.25,0 310.25,-20"/>
<text text-anchor="middle" x="235.12" y="-6.5" font-family="Helvetica,sans-Serif" font-size="10.00">LibLoader::PluginManager::Get</text>
</a>
</g>
</g>
<!-- Node1&#45;&gt;Node10 -->
<g id="edge11_Node000001_Node000010" class="edge">
<title>Node1&#45;&gt;Node10</title>
<g id="a_edge11_Node000001_Node000010"><a xlink:title=" ">
<path fill="none" stroke="#63b8ff" d="M124.3,-24.12C132.05,-23.12 140.1,-22.09 148.15,-21.05"/>
<polygon fill="#63b8ff" stroke="#63b8ff" points="148.54,-24.53 158.01,-19.79 147.64,-17.59 148.54,-24.53"/>
</a>
</g>
</g>
<!-- Node3 -->
<g id="Node000003" class="node">
<title>Node3</title>
<g id="a_Node000003"><a xlink:href="a00872.html#af50d0545fe7d683e54fcd03453a423e3" target="_top" xlink:title=" ">
<polygon fill="white" stroke="#666666" points="468.75,-70 346.25,-70 346.25,-38 468.75,-38 468.75,-70"/>
<text text-anchor="start" x="354.25" y="-56.5" font-family="Helvetica,sans-Serif" font-size="10.00">LibLoader::LoaderLogger</text>
<text text-anchor="middle" x="407.5" y="-44.5" font-family="Helvetica,sans-Serif" font-size="10.00">::warning</text>
</a>
</g>
</g>
<!-- Node2&#45;&gt;Node3 -->
<g id="edge2_Node000002_Node000003" class="edge">
<title>Node2&#45;&gt;Node3</title>
<g id="a_edge2_Node000002_Node000003"><a xlink:title=" ">
<path fill="none" stroke="#63b8ff" d="M299.57,-54C310.92,-54 322.82,-54 334.4,-54"/>
<polygon fill="#63b8ff" stroke="#63b8ff" points="334.32,-57.5 344.32,-54 334.32,-50.5 334.32,-57.5"/>
</a>
</g>
</g>
<!-- Node4 -->
<g id="Node000004" class="node">
<title>Node4</title>
<g id="a_Node000004"><a xlink:href="a00872.html#af4d7d5164450e25f7401d1cc15f15b8d" target="_top" xlink:title="实际暴露的接口">
<polygon fill="white" stroke="#666666" points="627.25,-92 504.75,-92 504.75,-60 627.25,-60 627.25,-92"/>
<text text-anchor="start" x="512.75" y="-78.5" font-family="Helvetica,sans-Serif" font-size="10.00">LibLoader::LoaderLogger</text>
<text text-anchor="middle" x="566" y="-66.5" font-family="Helvetica,sans-Serif" font-size="10.00">::call_logger</text>
</a>
</g>
</g>
<!-- Node3&#45;&gt;Node4 -->
<g id="edge3_Node000003_Node000004" class="edge">
<title>Node3&#45;&gt;Node4</title>
<g id="a_edge3_Node000003_Node000004"><a xlink:title=" ">
<path fill="none" stroke="#63b8ff" d="M469.01,-62.51C476.9,-63.62 485.05,-64.76 493.1,-65.89"/>
<polygon fill="#63b8ff" stroke="#63b8ff" points="492.51,-69.34 502.9,-67.27 493.48,-62.41 492.51,-69.34"/>
</a>
</g>
</g>
<!-- Node5 -->
<g id="Node000005" class="node">
<title>Node5</title>
<g id="a_Node000005"><a xlink:href="a00430.html#a076c5f4ff8083c7cfc6523498d0ba30f" target="_top" xlink:title=" ">
<polygon fill="white" stroke="#666666" points="908.25,-73 806,-73 806,-41 908.25,-41 908.25,-73"/>
<text text-anchor="start" x="814" y="-59.5" font-family="Helvetica,sans-Serif" font-size="10.00">LibLoader::JNIEnvs</text>
<text text-anchor="middle" x="857.12" y="-47.5" font-family="Helvetica,sans-Serif" font-size="10.00">::getEnv</text>
</a>
</g>
</g>
<!-- Node4&#45;&gt;Node5 -->
<g id="edge4_Node000004_Node000005" class="edge">
<title>Node4&#45;&gt;Node5</title>
<g id="a_edge4_Node000004_Node000005"><a xlink:title=" ">
<path fill="none" stroke="#63b8ff" d="M627.61,-72.02C676.51,-68.8 745.03,-64.3 794.26,-61.07"/>
<polygon fill="#63b8ff" stroke="#63b8ff" points="794.45,-64.56 804.2,-60.41 793.99,-57.58 794.45,-64.56"/>
</a>
</g>
</g>
<!-- Node9 -->
<g id="Node000009" class="node">
<title>Node9</title>
<g id="a_Node000009"><a xlink:href="a00425.html#a6a6fcd695791253a9b3a053d313b2b93" target="_top" xlink:title=" ">
<polygon fill="white" stroke="#666666" points="770,-48 663.25,-48 663.25,-28 770,-28 770,-48"/>
<text text-anchor="middle" x="716.62" y="-34.5" font-family="Helvetica,sans-Serif" font-size="10.00">LibLoader::str2jstring</text>
</a>
</g>
</g>
<!-- Node4&#45;&gt;Node9 -->
<g id="edge8_Node000004_Node000009" class="edge">
<title>Node4&#45;&gt;Node9</title>
<g id="a_edge8_Node000004_Node000009"><a xlink:title=" ">
<path fill="none" stroke="#63b8ff" d="M627.45,-60.54C639.51,-57.46 652.07,-54.25 663.81,-51.25"/>
<polygon fill="#63b8ff" stroke="#63b8ff" points="664.48,-54.69 673.3,-48.82 662.75,-47.91 664.48,-54.69"/>
</a>
</g>
</g>
<!-- Node6 -->
<g id="Node000006" class="node">
<title>Node6</title>
<g id="a_Node000006"><a xlink:href="a00840.html#aea7d58ff9f04d6d4849c25a2506603a5" target="_top" xlink:title="取env,如果不存在重新获取">
<polygon fill="white" stroke="#666666" points="1067.5,-67 944.25,-67 944.25,-47 1067.5,-47 1067.5,-67"/>
<text text-anchor="middle" x="1005.88" y="-53.5" font-family="Helvetica,sans-Serif" font-size="10.00">JNIEnvManager::getEnv</text>
</a>
</g>
</g>
<!-- Node5&#45;&gt;Node6 -->
<g id="edge5_Node000005_Node000006" class="edge">
<title>Node5&#45;&gt;Node6</title>
<g id="a_edge5_Node000005_Node000006"><a xlink:title=" ">
<path fill="none" stroke="#63b8ff" d="M908.63,-57C916.35,-57 924.44,-57 932.52,-57"/>
<polygon fill="#63b8ff" stroke="#63b8ff" points="932.38,-60.5 942.38,-57 932.38,-53.5 932.38,-60.5"/>
</a>
</g>
</g>
<!-- Node7 -->
<g id="Node000007" class="node">
<title>Node7</title>
<g id="a_Node000007"><a xlink:href="a00260.html#a3d31403b7971274d47d308245206bd24" target="_top" xlink:title="为当前线程创建一个env.">
<polygon fill="white" stroke="#666666" points="1154.75,-67 1103.5,-67 1103.5,-47 1154.75,-47 1154.75,-67"/>
<text text-anchor="middle" x="1129.12" y="-53.5" font-family="Helvetica,sans-Serif" font-size="10.00">newEnv</text>
</a>
</g>
</g>
<!-- Node6&#45;&gt;Node7 -->
<g id="edge6_Node000006_Node000007" class="edge">
<title>Node6&#45;&gt;Node7</title>
<g id="a_edge6_Node000006_Node000007"><a xlink:title=" ">
<path fill="none" stroke="#63b8ff" d="M1067.86,-57C1076.06,-57 1084.26,-57 1091.84,-57"/>
<polygon fill="#63b8ff" stroke="#63b8ff" points="1091.66,-60.5 1101.66,-57 1091.66,-53.5 1091.66,-60.5"/>
</a>
</g>
</g>
<!-- Node8 -->
<g id="Node000008" class="node">
<title>Node8</title>
<g id="a_Node000008"><a xlink:href="a00840.html#ae0e482c6a813848a8f5d34957d1b6307" target="_top" xlink:title="获取全局JavaVM对象.">
<polygon fill="white" stroke="#666666" points="1317.75,-67 1190.75,-67 1190.75,-47 1317.75,-47 1317.75,-67"/>
<text text-anchor="middle" x="1254.25" y="-53.5" font-family="Helvetica,sans-Serif" font-size="10.00">JNIEnvManager::getGvm</text>
</a>
</g>
</g>
<!-- Node7&#45;&gt;Node8 -->
<g id="edge7_Node000007_Node000008" class="edge">
<title>Node7&#45;&gt;Node8</title>
<g id="a_edge7_Node000007_Node000008"><a xlink:title=" ">
<path fill="none" stroke="#63b8ff" d="M1155.04,-57C1162.22,-57 1170.45,-57 1179.02,-57"/>
<polygon fill="#63b8ff" stroke="#63b8ff" points="1178.91,-60.5 1188.91,-57 1178.91,-53.5 1178.91,-60.5"/>
</a>
</g>
</g>
<!-- Node9&#45;&gt;Node3 -->
<g id="edge10_Node000009_Node000003" class="edge">
<title>Node9&#45;&gt;Node3</title>
<g id="a_edge10_Node000009_Node000003"><a xlink:title=" ">
<path fill="none" stroke="#63b8ff" d="M662.75,-40.75C612.42,-43.38 536.26,-47.34 480.42,-50.25"/>
<polygon fill="#63b8ff" stroke="#63b8ff" points="480.49,-46.74 470.69,-50.76 480.86,-53.74 480.49,-46.74"/>
</a>
</g>
</g>
<!-- Node9&#45;&gt;Node5 -->
<g id="edge9_Node000009_Node000005" class="edge">
<title>Node9&#45;&gt;Node5</title>
<g id="a_edge9_Node000009_Node000005"><a xlink:title=" ">
<path fill="none" stroke="#63b8ff" d="M770.38,-45.24C778.28,-46.32 786.48,-47.45 794.54,-48.55"/>
<polygon fill="#63b8ff" stroke="#63b8ff" points="793.92,-52 804.3,-49.89 794.87,-45.06 793.92,-52"/>
</a>
</g>
</g>
</g>
</svg>
