<?xml version="1.0" encoding="UTF-8" standalone="no"?>
<!DOCTYPE svg PUBLIC "-//W3C//DTD SVG 1.1//EN"
 "http://www.w3.org/Graphics/SVG/1.1/DTD/svg11.dtd">
<!-- Generated by graphviz version 9.0.0 (0)
 -->
<!-- Title: LibLoader::MessageHandler::push_task_with_id_message Pages: 1 -->
<svg width="370pt" height="40pt"
 viewBox="0.00 0.00 370.25 40.00" xmlns="http://www.w3.org/2000/svg" xmlns:xlink="http://www.w3.org/1999/xlink">
<g id="graph0" class="graph" transform="scale(1 1) rotate(0) translate(4 36)">
<title>LibLoader::MessageHandler::push_task_with_id_message</title>
<!-- Node1 -->
<g id="Node000001" class="node">
<title>Node1</title>
<g id="a_Node000001"><a xlink:title=" ">
<polygon fill="#999999" stroke="#666666" points="148,-32 0,-32 0,0 148,0 148,-32"/>
<text text-anchor="start" x="8" y="-18.5" font-family="Helvetica,sans-Serif" font-size="10.00">LibLoader::MessageHandler</text>
<text text-anchor="middle" x="74" y="-6.5" font-family="Helvetica,sans-Serif" font-size="10.00">::push_task_with_id_message</text>
</a>
</g>
</g>
<!-- Node2 -->
<g id="Node000002" class="node">
<title>Node2</title>
<g id="a_Node000002"><a xlink:href="a00426.html#ae86871d4f062f45edee7501e0596cd3d" target="_top" xlink:title=" ">
<polygon fill="white" stroke="#666666" points="291.5,-32 184,-32 184,0 291.5,0 291.5,-32"/>
<text text-anchor="start" x="192" y="-18.5" font-family="Helvetica,sans-Serif" font-size="10.00">LibLoader::LoaderApi</text>
<text text-anchor="middle" x="237.75" y="-6.5" font-family="Helvetica,sans-Serif" font-size="10.00">::pushTaskWithId</text>
</a>
</g>
</g>
<!-- Node1&#45;&gt;Node2 -->
<g id="edge1_Node000001_Node000002" class="edge">
<title>Node1&#45;&gt;Node2</title>
<g id="a_edge1_Node000001_Node000002"><a xlink:title=" ">
<path fill="none" stroke="#63b8ff" d="M148.3,-16C156.28,-16 164.35,-16 172.21,-16"/>
<polygon fill="#63b8ff" stroke="#63b8ff" points="172.02,-19.5 182.02,-16 172.02,-12.5 172.02,-19.5"/>
</a>
</g>
</g>
<!-- Node3 -->
<g id="Node000003" class="node">
<title>Node3</title>
<g id="a_Node000003"><a xlink:href="a00029.html#a9a37a193bc61a8127790f891efc1af05" target="_top" xlink:title=" ">
<polygon fill="white" stroke="#666666" points="362.25,-26 327.5,-26 327.5,-6 362.25,-6 362.25,-26"/>
<text text-anchor="middle" x="344.88" y="-12.5" font-family="Helvetica,sans-Serif" font-size="10.00">func</text>
</a>
</g>
</g>
<!-- Node2&#45;&gt;Node3 -->
<g id="edge2_Node000002_Node000003" class="edge">
<title>Node2&#45;&gt;Node3</title>
<g id="a_edge2_Node000002_Node000003"><a xlink:title=" ">
<path fill="none" stroke="#63b8ff" d="M291.93,-16C300.15,-16 308.35,-16 315.73,-16"/>
<polygon fill="#63b8ff" stroke="#63b8ff" points="315.71,-19.5 325.71,-16 315.71,-12.5 315.71,-19.5"/>
</a>
</g>
</g>
</g>
</svg>
