<?xml version="1.0" encoding="UTF-8" standalone="no"?>
<!DOCTYPE svg PUBLIC "-//W3C//DTD SVG 1.1//EN"
 "http://www.w3.org/Graphics/SVG/1.1/DTD/svg11.dtd">
<!-- Generated by graphviz version 2.50.0 (20211204.2007)
 -->
<!-- Title: LibLoader::loader_enablePluginById Pages: 1 -->
<svg width="1333pt" height="95pt"
 viewBox="0.00 0.00 1333.00 95.00" xmlns="http://www.w3.org/2000/svg" xmlns:xlink="http://www.w3.org/1999/xlink">
<g id="graph0" class="graph" transform="scale(1 1) rotate(0) translate(4 91)">
<title>LibLoader::loader_enablePluginById</title>
<polygon fill="white" stroke="transparent" points="-4,4 -4,-91 1329,-91 1329,4 -4,4"/>
<!-- Node1 -->
<g id="node1" class="node">
<title>Node1</title>
<g id="a_node1"><a xlink:title=" ">
<polygon fill="#bfbfbf" stroke="black" points="0,-25.5 0,-55.5 125,-55.5 125,-25.5 0,-25.5"/>
<text text-anchor="start" x="8" y="-43.5" font-family="Helvetica,sans-Serif" font-size="10.00">LibLoader::loader_enable</text>
<text text-anchor="middle" x="62.5" y="-32.5" font-family="Helvetica,sans-Serif" font-size="10.00">PluginById</text>
</a>
</g>
</g>
<!-- Node2 -->
<g id="node2" class="node">
<title>Node2</title>
<g id="a_node2"><a xlink:href="a00836.html#aae06f3ff9b99ed8b05d3b5ed7dad767b" target="_top" xlink:title=" ">
<polygon fill="white" stroke="black" points="161,-25.5 161,-55.5 306,-55.5 306,-25.5 161,-25.5"/>
<text text-anchor="start" x="169" y="-43.5" font-family="Helvetica,sans-Serif" font-size="10.00">LibLoader::PluginListManager</text>
<text text-anchor="middle" x="233.5" y="-32.5" font-family="Helvetica,sans-Serif" font-size="10.00">::enableById</text>
</a>
</g>
</g>
<!-- Node1&#45;&gt;Node2 -->
<g id="edge1" class="edge">
<title>Node1&#45;&gt;Node2</title>
<path fill="none" stroke="midnightblue" d="M125.47,-40.5C133.64,-40.5 142.11,-40.5 150.55,-40.5"/>
<polygon fill="midnightblue" stroke="midnightblue" points="150.81,-44 160.81,-40.5 150.81,-37 150.81,-44"/>
</g>
<!-- Node3 -->
<g id="node3" class="node">
<title>Node3</title>
<g id="a_node3"><a xlink:href="a00800.html#ae735f16b20f681d29d4e5d28ad248dbe" target="_top" xlink:title=" ">
<polygon fill="white" stroke="black" points="342,-25.5 342,-55.5 465,-55.5 465,-25.5 342,-25.5"/>
<text text-anchor="start" x="350" y="-43.5" font-family="Helvetica,sans-Serif" font-size="10.00">LibLoader::LoaderLogger</text>
<text text-anchor="middle" x="403.5" y="-32.5" font-family="Helvetica,sans-Serif" font-size="10.00">::error</text>
</a>
</g>
</g>
<!-- Node2&#45;&gt;Node3 -->
<g id="edge2" class="edge">
<title>Node2&#45;&gt;Node3</title>
<path fill="none" stroke="midnightblue" d="M306.23,-40.5C314.67,-40.5 323.27,-40.5 331.69,-40.5"/>
<polygon fill="midnightblue" stroke="midnightblue" points="331.85,-44 341.85,-40.5 331.85,-37 331.85,-44"/>
</g>
<!-- Node4 -->
<g id="node4" class="node">
<title>Node4</title>
<g id="a_node4"><a xlink:href="a00800.html#af4d7d5164450e25f7401d1cc15f15b8d" target="_top" xlink:title="实际暴露的接口">
<polygon fill="white" stroke="black" points="501,-25.5 501,-55.5 624,-55.5 624,-25.5 501,-25.5"/>
<text text-anchor="start" x="509" y="-43.5" font-family="Helvetica,sans-Serif" font-size="10.00">LibLoader::LoaderLogger</text>
<text text-anchor="middle" x="562.5" y="-32.5" font-family="Helvetica,sans-Serif" font-size="10.00">::call_logger</text>
</a>
</g>
</g>
<!-- Node3&#45;&gt;Node4 -->
<g id="edge3" class="edge">
<title>Node3&#45;&gt;Node4</title>
<path fill="none" stroke="midnightblue" d="M465.2,-40.5C473.64,-40.5 482.36,-40.5 490.95,-40.5"/>
<polygon fill="midnightblue" stroke="midnightblue" points="490.96,-44 500.96,-40.5 490.96,-37 490.96,-44"/>
</g>
<!-- Node5 -->
<g id="node5" class="node">
<title>Node5</title>
<g id="a_node5"><a xlink:href="a00411.html#a076c5f4ff8083c7cfc6523498d0ba30f" target="_top" xlink:title=" ">
<polygon fill="white" stroke="black" points="815,-56.5 815,-86.5 914,-86.5 914,-56.5 815,-56.5"/>
<text text-anchor="start" x="823" y="-74.5" font-family="Helvetica,sans-Serif" font-size="10.00">LibLoader::JNIEnvs</text>
<text text-anchor="middle" x="864.5" y="-63.5" font-family="Helvetica,sans-Serif" font-size="10.00">::getEnv</text>
</a>
</g>
</g>
<!-- Node4&#45;&gt;Node5 -->
<g id="edge4" class="edge">
<title>Node4&#45;&gt;Node5</title>
<path fill="none" stroke="midnightblue" d="M624.04,-53.72C635.91,-55.95 648.31,-58.01 660,-59.5 708.55,-65.68 764.02,-68.69 804.78,-70.14"/>
<polygon fill="midnightblue" stroke="midnightblue" points="804.7,-73.64 814.81,-70.48 804.93,-66.65 804.7,-73.64"/>
</g>
<!-- Node9 -->
<g id="node9" class="node">
<title>Node9</title>
<g id="a_node9"><a xlink:href="a00407.html#a6a6fcd695791253a9b3a053d313b2b93" target="_top" xlink:title=" ">
<polygon fill="white" stroke="black" points="660,-31 660,-50 767,-50 767,-31 660,-31"/>
<text text-anchor="middle" x="713.5" y="-38" font-family="Helvetica,sans-Serif" font-size="10.00">LibLoader::str2jstring</text>
</a>
</g>
</g>
<!-- Node4&#45;&gt;Node9 -->
<g id="edge8" class="edge">
<title>Node4&#45;&gt;Node9</title>
<path fill="none" stroke="midnightblue" d="M624.1,-40.5C632.47,-40.5 641.07,-40.5 649.48,-40.5"/>
<polygon fill="midnightblue" stroke="midnightblue" points="649.6,-44 659.6,-40.5 649.6,-37 649.6,-44"/>
</g>
<!-- Node6 -->
<g id="node6" class="node">
<title>Node6</title>
<g id="a_node6"><a xlink:href="a00768.html#aea7d58ff9f04d6d4849c25a2506603a5" target="_top" xlink:title="取env,如果不存在重新获取">
<polygon fill="white" stroke="black" points="962,-62 962,-81 1081,-81 1081,-62 962,-62"/>
<text text-anchor="middle" x="1021.5" y="-69" font-family="Helvetica,sans-Serif" font-size="10.00">JNIEnvManager::getEnv</text>
</a>
</g>
</g>
<!-- Node5&#45;&gt;Node6 -->
<g id="edge5" class="edge">
<title>Node5&#45;&gt;Node6</title>
<path fill="none" stroke="midnightblue" d="M914.12,-71.5C926.1,-71.5 939.15,-71.5 951.88,-71.5"/>
<polygon fill="midnightblue" stroke="midnightblue" points="951.99,-75 961.99,-71.5 951.99,-68 951.99,-75"/>
</g>
<!-- Node7 -->
<g id="node7" class="node">
<title>Node7</title>
<g id="a_node7"><a xlink:href="a00200.html#a3d31403b7971274d47d308245206bd24" target="_top" xlink:title="为当前线程创建一个env.">
<polygon fill="white" stroke="black" points="1117,-62 1117,-81 1167,-81 1167,-62 1117,-62"/>
<text text-anchor="middle" x="1142" y="-69" font-family="Helvetica,sans-Serif" font-size="10.00">newEnv</text>
</a>
</g>
</g>
<!-- Node6&#45;&gt;Node7 -->
<g id="edge6" class="edge">
<title>Node6&#45;&gt;Node7</title>
<path fill="none" stroke="midnightblue" d="M1081.06,-71.5C1089.89,-71.5 1098.75,-71.5 1106.85,-71.5"/>
<polygon fill="midnightblue" stroke="midnightblue" points="1106.98,-75 1116.98,-71.5 1106.98,-68 1106.98,-75"/>
</g>
<!-- Node8 -->
<g id="node8" class="node">
<title>Node8</title>
<g id="a_node8"><a xlink:href="a00768.html#ae0e482c6a813848a8f5d34957d1b6307" target="_top" xlink:title="获取全局JavaVM对象.">
<polygon fill="white" stroke="black" points="1203,-62 1203,-81 1325,-81 1325,-62 1203,-62"/>
<text text-anchor="middle" x="1264" y="-69" font-family="Helvetica,sans-Serif" font-size="10.00">JNIEnvManager::getGvm</text>
</a>
</g>
</g>
<!-- Node7&#45;&gt;Node8 -->
<g id="edge7" class="edge">
<title>Node7&#45;&gt;Node8</title>
<path fill="none" stroke="midnightblue" d="M1167.28,-71.5C1174.75,-71.5 1183.37,-71.5 1192.32,-71.5"/>
<polygon fill="midnightblue" stroke="midnightblue" points="1192.52,-75 1202.52,-71.5 1192.52,-68 1192.52,-75"/>
</g>
<!-- Node9&#45;&gt;Node5 -->
<g id="edge9" class="edge">
<title>Node9&#45;&gt;Node5</title>
<path fill="none" stroke="midnightblue" d="M760.42,-50.05C774.45,-52.97 790.08,-56.23 804.84,-59.3"/>
<polygon fill="midnightblue" stroke="midnightblue" points="804.39,-62.78 814.89,-61.39 805.81,-55.92 804.39,-62.78"/>
</g>
<!-- Node10 -->
<g id="node10" class="node">
<title>Node10</title>
<g id="a_node10"><a xlink:href="a00800.html#af50d0545fe7d683e54fcd03453a423e3" target="_top" xlink:title=" ">
<polygon fill="white" stroke="black" points="803,-0.5 803,-30.5 926,-30.5 926,-0.5 803,-0.5"/>
<text text-anchor="start" x="811" y="-18.5" font-family="Helvetica,sans-Serif" font-size="10.00">LibLoader::LoaderLogger</text>
<text text-anchor="middle" x="864.5" y="-7.5" font-family="Helvetica,sans-Serif" font-size="10.00">::warning</text>
</a>
</g>
</g>
<!-- Node9&#45;&gt;Node10 -->
<g id="edge10" class="edge">
<title>Node9&#45;&gt;Node10</title>
<path fill="none" stroke="midnightblue" d="M767.03,-31.69C775.34,-30.29 784.05,-28.83 792.7,-27.38"/>
<polygon fill="midnightblue" stroke="midnightblue" points="793.5,-30.79 802.79,-25.69 792.35,-23.89 793.5,-30.79"/>
</g>
<!-- Node10&#45;&gt;Node4 -->
<g id="edge11" class="edge">
<title>Node10&#45;&gt;Node4</title>
<path fill="none" stroke="midnightblue" d="M802.76,-14.68C762.22,-14.77 707.77,-16.13 660,-21.5 651.58,-22.45 642.81,-23.74 634.13,-25.21"/>
<polygon fill="midnightblue" stroke="midnightblue" points="633.24,-21.81 624.01,-27 634.46,-28.7 633.24,-21.81"/>
</g>
</g>
</svg>
