<?xml version="1.0" encoding="UTF-8" standalone="no"?>
<!DOCTYPE svg PUBLIC "-//W3C//DTD SVG 1.1//EN"
 "http://www.w3.org/Graphics/SVG/1.1/DTD/svg11.dtd">
<!-- Generated by graphviz version 2.50.0 (20211204.2007)
 -->
<!-- Title: LibLoader::PluginData::_getId Pages: 1 -->
<svg width="522pt" height="276pt"
 viewBox="0.00 0.00 522.00 276.00" xmlns="http://www.w3.org/2000/svg" xmlns:xlink="http://www.w3.org/1999/xlink">
<g id="graph0" class="graph" transform="scale(1 1) rotate(0) translate(4 272)">
<title>LibLoader::PluginData::_getId</title>
<polygon fill="white" stroke="transparent" points="-4,4 -4,-272 518,-272 518,4 -4,4"/>
<!-- Node1 -->
<g id="node1" class="node">
<title>Node1</title>
<g id="a_node1"><a xlink:title=" ">
<polygon fill="#bfbfbf" stroke="black" points="402,-93.5 402,-123.5 514,-123.5 514,-93.5 402,-93.5"/>
<text text-anchor="start" x="410" y="-111.5" font-family="Helvetica,sans-Serif" font-size="10.00">LibLoader::PluginData</text>
<text text-anchor="middle" x="458" y="-100.5" font-family="Helvetica,sans-Serif" font-size="10.00">::_getId</text>
</a>
</g>
</g>
<!-- Node2 -->
<g id="node2" class="node">
<title>Node2</title>
<g id="a_node2"><a xlink:href="a00401.html#a26d68bbe21231fba404debd39be46f25" target="_top" xlink:title=" ">
<polygon fill="white" stroke="black" points="268,-188.5 268,-218.5 366,-218.5 366,-188.5 268,-188.5"/>
<text text-anchor="start" x="276" y="-206.5" font-family="Helvetica,sans-Serif" font-size="10.00">LibLoader::Plugin::</text>
<text text-anchor="middle" x="317" y="-195.5" font-family="Helvetica,sans-Serif" font-size="10.00">disableInternal</text>
</a>
</g>
</g>
<!-- Node1&#45;&gt;Node2 -->
<g id="edge1" class="edge">
<title>Node1&#45;&gt;Node2</title>
<path fill="none" stroke="midnightblue" d="M430.61,-130.21C412.85,-144.39 388.63,-162.91 366,-177.5 360.19,-181.25 353.78,-184.97 347.6,-188.38"/>
<polygon fill="midnightblue" stroke="midnightblue" points="433.19,-132.63 438.78,-123.63 428.8,-127.18 433.19,-132.63"/>
</g>
<!-- Node6 -->
<g id="node6" class="node">
<title>Node6</title>
<g id="a_node6"><a xlink:href="a00401.html#a450c1c6820ab6c5417691359d88d8220" target="_top" xlink:title=" ">
<polygon fill="white" stroke="black" points="268,-137.5 268,-167.5 366,-167.5 366,-137.5 268,-137.5"/>
<text text-anchor="start" x="276" y="-155.5" font-family="Helvetica,sans-Serif" font-size="10.00">LibLoader::Plugin::</text>
<text text-anchor="middle" x="317" y="-144.5" font-family="Helvetica,sans-Serif" font-size="10.00">enableInternal</text>
</a>
</g>
</g>
<!-- Node1&#45;&gt;Node6 -->
<g id="edge5" class="edge">
<title>Node1&#45;&gt;Node6</title>
<path fill="none" stroke="midnightblue" d="M399.75,-126.62C388.43,-130.2 376.67,-133.93 365.71,-137.4"/>
<polygon fill="midnightblue" stroke="midnightblue" points="401.08,-129.87 409.55,-123.52 398.96,-123.2 401.08,-129.87"/>
</g>
<!-- Node8 -->
<g id="node8" class="node">
<title>Node8</title>
<g id="a_node8"><a xlink:href="a00401.html#a8636d0418d741a19bbd9183316cd5c59" target="_top" xlink:title=" ">
<polygon fill="white" stroke="black" points="134,-90.5 134,-120.5 232,-120.5 232,-90.5 134,-90.5"/>
<text text-anchor="start" x="142" y="-108.5" font-family="Helvetica,sans-Serif" font-size="10.00">LibLoader::Plugin::</text>
<text text-anchor="middle" x="183" y="-97.5" font-family="Helvetica,sans-Serif" font-size="10.00">loadInternal</text>
</a>
</g>
</g>
<!-- Node1&#45;&gt;Node8 -->
<g id="edge10" class="edge">
<title>Node1&#45;&gt;Node8</title>
<path fill="none" stroke="midnightblue" d="M391.57,-107.78C342.56,-107.24 276.6,-106.52 232.31,-106.03"/>
<polygon fill="midnightblue" stroke="midnightblue" points="391.72,-111.28 401.75,-107.89 391.79,-104.28 391.72,-111.28"/>
</g>
<!-- Node10 -->
<g id="node10" class="node">
<title>Node10</title>
<g id="a_node10"><a xlink:href="a00401.html#aa3969cacef7e9a28baa578a90d01aa23" target="_top" xlink:title="安全、带锁地获取id">
<polygon fill="white" stroke="black" points="268,-49.5 268,-79.5 366,-79.5 366,-49.5 268,-49.5"/>
<text text-anchor="start" x="276" y="-67.5" font-family="Helvetica,sans-Serif" font-size="10.00">LibLoader::Plugin::</text>
<text text-anchor="middle" x="317" y="-56.5" font-family="Helvetica,sans-Serif" font-size="10.00">getIdSafe</text>
</a>
</g>
</g>
<!-- Node1&#45;&gt;Node10 -->
<g id="edge9" class="edge">
<title>Node1&#45;&gt;Node10</title>
<path fill="none" stroke="midnightblue" d="M399.75,-90.38C388.43,-86.8 376.67,-83.07 365.71,-79.6"/>
<polygon fill="midnightblue" stroke="midnightblue" points="398.96,-93.8 409.55,-93.48 401.08,-87.13 398.96,-93.8"/>
</g>
<!-- Node11 -->
<g id="node11" class="node">
<title>Node11</title>
<g id="a_node11"><a xlink:href="a00401.html#a1c759dca151608bfd6d159e3822401c5" target="_top" xlink:title="只应被线程池worker调用">
<polygon fill="white" stroke="black" points="268,-0.5 268,-30.5 366,-30.5 366,-0.5 268,-0.5"/>
<text text-anchor="start" x="276" y="-18.5" font-family="Helvetica,sans-Serif" font-size="10.00">LibLoader::Plugin::</text>
<text text-anchor="middle" x="317" y="-7.5" font-family="Helvetica,sans-Serif" font-size="10.00">pushEvent_worker</text>
</a>
</g>
</g>
<!-- Node1&#45;&gt;Node11 -->
<g id="edge11" class="edge">
<title>Node1&#45;&gt;Node11</title>
<path fill="none" stroke="midnightblue" d="M431.1,-86.82C413.38,-72.5 389.01,-53.8 366,-39.5 361.02,-36.4 355.58,-33.37 350.21,-30.57"/>
<polygon fill="midnightblue" stroke="midnightblue" points="429.28,-89.84 439.24,-93.46 433.71,-84.42 429.28,-89.84"/>
</g>
<!-- Node3 -->
<g id="node3" class="node">
<title>Node3</title>
<g id="a_node3"><a xlink:href="a00401.html#a147550def7f276f07a60b5078d4670b8" target="_top" xlink:title=" ">
<polygon fill="white" stroke="black" points="134,-237.5 134,-267.5 232,-267.5 232,-237.5 134,-237.5"/>
<text text-anchor="start" x="142" y="-255.5" font-family="Helvetica,sans-Serif" font-size="10.00">LibLoader::Plugin::</text>
<text text-anchor="middle" x="183" y="-244.5" font-family="Helvetica,sans-Serif" font-size="10.00">disablePlugin</text>
</a>
</g>
</g>
<!-- Node2&#45;&gt;Node3 -->
<g id="edge2" class="edge">
<title>Node2&#45;&gt;Node3</title>
<path fill="none" stroke="midnightblue" d="M265.67,-222.18C252.15,-227.2 237.7,-232.56 224.77,-237.36"/>
<polygon fill="midnightblue" stroke="midnightblue" points="267.16,-225.36 275.32,-218.6 264.73,-218.8 267.16,-225.36"/>
</g>
<!-- Node4 -->
<g id="node4" class="node">
<title>Node4</title>
<g id="a_node4"><a xlink:href="a00401.html#ac03a32a4b96ba4618fee0628d3998aef" target="_top" xlink:title=" ">
<polygon fill="white" stroke="black" points="134,-188.5 134,-218.5 232,-218.5 232,-188.5 134,-188.5"/>
<text text-anchor="start" x="142" y="-206.5" font-family="Helvetica,sans-Serif" font-size="10.00">LibLoader::Plugin::</text>
<text text-anchor="middle" x="183" y="-195.5" font-family="Helvetica,sans-Serif" font-size="10.00">unloadInternal</text>
</a>
</g>
</g>
<!-- Node2&#45;&gt;Node4 -->
<g id="edge3" class="edge">
<title>Node2&#45;&gt;Node4</title>
<path fill="none" stroke="midnightblue" d="M257.71,-203.5C249.19,-203.5 240.5,-203.5 232.21,-203.5"/>
<polygon fill="midnightblue" stroke="midnightblue" points="257.97,-207 267.97,-203.5 257.97,-200 257.97,-207"/>
</g>
<!-- Node5 -->
<g id="node5" class="node">
<title>Node5</title>
<g id="a_node5"><a xlink:href="a00401.html#abc57e6dfaed7b6445c8ba8d94b09ec13" target="_top" xlink:title=" ">
<polygon fill="white" stroke="black" points="0,-188.5 0,-218.5 98,-218.5 98,-188.5 0,-188.5"/>
<text text-anchor="start" x="8" y="-206.5" font-family="Helvetica,sans-Serif" font-size="10.00">LibLoader::Plugin::</text>
<text text-anchor="middle" x="49" y="-195.5" font-family="Helvetica,sans-Serif" font-size="10.00">unloadPlugin</text>
</a>
</g>
</g>
<!-- Node4&#45;&gt;Node5 -->
<g id="edge4" class="edge">
<title>Node4&#45;&gt;Node5</title>
<path fill="none" stroke="midnightblue" d="M123.71,-203.5C115.19,-203.5 106.5,-203.5 98.21,-203.5"/>
<polygon fill="midnightblue" stroke="midnightblue" points="123.97,-207 133.97,-203.5 123.97,-200 123.97,-207"/>
</g>
<!-- Node7 -->
<g id="node7" class="node">
<title>Node7</title>
<g id="a_node7"><a xlink:href="a00401.html#a549e3729f8aeb27208ef5aecb434eef1" target="_top" xlink:title=" ">
<polygon fill="white" stroke="black" points="134,-139.5 134,-169.5 232,-169.5 232,-139.5 134,-139.5"/>
<text text-anchor="start" x="142" y="-157.5" font-family="Helvetica,sans-Serif" font-size="10.00">LibLoader::Plugin::</text>
<text text-anchor="middle" x="183" y="-146.5" font-family="Helvetica,sans-Serif" font-size="10.00">enablePlugin</text>
</a>
</g>
</g>
<!-- Node6&#45;&gt;Node7 -->
<g id="edge6" class="edge">
<title>Node6&#45;&gt;Node7</title>
<path fill="none" stroke="midnightblue" d="M257.71,-153.38C249.19,-153.51 240.5,-153.64 232.21,-153.77"/>
<polygon fill="midnightblue" stroke="midnightblue" points="258.03,-156.88 267.97,-153.23 257.92,-149.88 258.03,-156.88"/>
</g>
<!-- Node6&#45;&gt;Node8 -->
<g id="edge7" class="edge">
<title>Node6&#45;&gt;Node8</title>
<path fill="none" stroke="midnightblue" d="M264.37,-134.12C251.72,-129.61 238.33,-124.84 226.18,-120.52"/>
<polygon fill="midnightblue" stroke="midnightblue" points="263.28,-137.44 273.87,-137.5 265.62,-130.85 263.28,-137.44"/>
</g>
<!-- Node9 -->
<g id="node9" class="node">
<title>Node9</title>
<g id="a_node9"><a xlink:href="a00401.html#a891ce42f23fe1312ef6cad2accf4ab92" target="_top" xlink:title=" ">
<polygon fill="white" stroke="black" points="0,-90.5 0,-120.5 98,-120.5 98,-90.5 0,-90.5"/>
<text text-anchor="start" x="8" y="-108.5" font-family="Helvetica,sans-Serif" font-size="10.00">LibLoader::Plugin::</text>
<text text-anchor="middle" x="49" y="-97.5" font-family="Helvetica,sans-Serif" font-size="10.00">loadPlugin</text>
</a>
</g>
</g>
<!-- Node8&#45;&gt;Node9 -->
<g id="edge8" class="edge">
<title>Node8&#45;&gt;Node9</title>
<path fill="none" stroke="midnightblue" d="M123.71,-105.5C115.19,-105.5 106.5,-105.5 98.21,-105.5"/>
<polygon fill="midnightblue" stroke="midnightblue" points="123.97,-109 133.97,-105.5 123.97,-102 123.97,-109"/>
</g>
</g>
</svg>
