<?xml version="1.0" encoding="UTF-8" standalone="no"?>
<!DOCTYPE svg PUBLIC "-//W3C//DTD SVG 1.1//EN"
 "http://www.w3.org/Graphics/SVG/1.1/DTD/svg11.dtd">
<!-- Generated by graphviz version 2.50.0 (20211204.2007)
 -->
<!-- Title: MiraiCP::Redirector::start Pages: 1 -->
<svg width="344pt" height="78pt"
 viewBox="0.00 0.00 344.00 77.50" xmlns="http://www.w3.org/2000/svg" xmlns:xlink="http://www.w3.org/1999/xlink">
<g id="graph0" class="graph" transform="scale(1 1) rotate(0) translate(4 73.5)">
<title>MiraiCP::Redirector::start</title>
<polygon fill="white" stroke="transparent" points="-4,4 -4,-73.5 340,-73.5 340,4 -4,4"/>
<!-- Node1 -->
<g id="node1" class="node">
<title>Node1</title>
<g id="a_node1"><a xlink:title="start redirecting cout and cerr">
<polygon fill="#bfbfbf" stroke="black" points="235,-17 235,-47 336,-47 336,-17 235,-17"/>
<text text-anchor="start" x="243" y="-35" font-family="Helvetica,sans-Serif" font-size="10.00">MiraiCP::Redirector</text>
<text text-anchor="middle" x="285.5" y="-24" font-family="Helvetica,sans-Serif" font-size="10.00">::start</text>
</a>
</g>
</g>
<!-- Node2 -->
<g id="node2" class="node">
<title>Node2</title>
<g id="a_node2"><a xlink:href="a00636.html#a93b1ac007012927f762d3f1391595c6a" target="_top" xlink:title="找到miraiCode结尾的]">
<polygon fill="white" stroke="black" points="77,-39 77,-69 199,-69 199,-39 77,-39"/>
<text text-anchor="start" x="85" y="-57" font-family="Helvetica,sans-Serif" font-size="10.00">MiraiCP::MessageChain</text>
<text text-anchor="middle" x="138" y="-46" font-family="Helvetica,sans-Serif" font-size="10.00">::findEnd</text>
</a>
</g>
</g>
<!-- Node1&#45;&gt;Node2 -->
<g id="edge1" class="edge">
<title>Node1&#45;&gt;Node2</title>
<path fill="none" stroke="midnightblue" d="M224.93,-41.01C216.38,-42.3 207.57,-43.63 199,-44.93"/>
<polygon fill="midnightblue" stroke="midnightblue" points="225.47,-44.47 234.83,-39.51 224.42,-37.54 225.47,-44.47"/>
</g>
<!-- Node3 -->
<g id="node3" class="node">
<title>Node3</title>
<g id="a_node3"><a xlink:href="a00212.html#aafbc26593c69471626589f38c751ef09" target="_top" xlink:title=" ">
<polygon fill="white" stroke="black" points="108.5,-0.5 108.5,-19.5 167.5,-19.5 167.5,-0.5 108.5,-0.5"/>
<text text-anchor="middle" x="138" y="-7.5" font-family="Helvetica,sans-Serif" font-size="10.00">VerifyImpl</text>
</a>
</g>
</g>
<!-- Node1&#45;&gt;Node3 -->
<g id="edge2" class="edge">
<title>Node1&#45;&gt;Node3</title>
<path fill="none" stroke="midnightblue" d="M224.68,-22.95C204.97,-19.98 183.96,-16.8 167.67,-14.34"/>
<polygon fill="midnightblue" stroke="midnightblue" points="224.42,-26.46 234.83,-24.49 225.47,-19.53 224.42,-26.46"/>
</g>
<!-- Node4 -->
<g id="node4" class="node">
<title>Node4</title>
<g id="a_node4"><a xlink:href="a00212.html#a3712cdeefe60fa2a92efa90cd6200b02" target="_top" xlink:title=" ">
<polygon fill="white" stroke="black" points="0,-0.5 0,-19.5 41,-19.5 41,-0.5 0,-0.5"/>
<text text-anchor="middle" x="20.5" y="-7.5" font-family="Helvetica,sans-Serif" font-size="10.00">Verify</text>
</a>
</g>
</g>
<!-- Node3&#45;&gt;Node4 -->
<g id="edge3" class="edge">
<title>Node3&#45;&gt;Node4</title>
<path fill="none" stroke="midnightblue" d="M98.44,-10C79.18,-10 56.71,-10 41.04,-10"/>
<polygon fill="midnightblue" stroke="midnightblue" points="98.45,-13.5 108.45,-10 98.45,-6.5 98.45,-13.5"/>
</g>
</g>
</svg>
