<?xml version="1.0" encoding="UTF-8" standalone="no"?>
<!DOCTYPE svg PUBLIC "-//W3C//DTD SVG 1.1//EN"
 "http://www.w3.org/Graphics/SVG/1.1/DTD/svg11.dtd">
<!-- Generated by graphviz version 9.0.0 (0)
 -->
<!-- Title: MiraiCP::ThreadTask::internal::push_task Pages: 1 -->
<svg width="439pt" height="259pt"
 viewBox="0.00 0.00 438.50 259.00" xmlns="http://www.w3.org/2000/svg" xmlns:xlink="http://www.w3.org/1999/xlink">
<g id="graph0" class="graph" transform="scale(1 1) rotate(0) translate(4 255)">
<title>MiraiCP::ThreadTask::internal::push_task</title>
<!-- Node1 -->
<g id="Node000001" class="node">
<title>Node1</title>
<g id="a_Node000001"><a xlink:title=" ">
<polygon fill="#999999" stroke="#666666" points="108.25,-133 0,-133 0,-101 108.25,-101 108.25,-133"/>
<text text-anchor="start" x="8" y="-119.5" font-family="Helvetica,sans-Serif" font-size="10.00">MiraiCP::ThreadTask</text>
<text text-anchor="middle" x="54.12" y="-107.5" font-family="Helvetica,sans-Serif" font-size="10.00">::internal::push_task</text>
</a>
</g>
</g>
<!-- Node2 -->
<g id="Node000002" class="node">
<title>Node2</title>
<g id="a_Node000002"><a xlink:href="a00628.html#af14d39efa300da183070784bc86d3f23" target="_top" xlink:title="发送错误(error级日志)">
<polygon fill="white" stroke="#666666" points="430.5,-251 301.25,-251 301.25,-219 430.5,-219 430.5,-251"/>
<text text-anchor="start" x="309.25" y="-237.5" font-family="Helvetica,sans-Serif" font-size="10.00">MiraiCP::Logger_interface</text>
<text text-anchor="middle" x="365.88" y="-225.5" font-family="Helvetica,sans-Serif" font-size="10.00">::error</text>
</a>
</g>
</g>
<!-- Node1&#45;&gt;Node2 -->
<g id="edge1_Node000001_Node000002" class="edge">
<title>Node1&#45;&gt;Node2</title>
<g id="a_edge1_Node000001_Node000002"><a xlink:title=" ">
<path fill="none" stroke="#63b8ff" d="M63.13,-133.15C76.26,-157.63 104.88,-203.35 144.25,-223 188.93,-245.3 245.21,-248.03 289.75,-245.32"/>
<polygon fill="#63b8ff" stroke="#63b8ff" points="289.86,-248.82 299.59,-244.6 289.36,-241.84 289.86,-248.82"/>
</a>
</g>
</g>
<!-- Node3 -->
<g id="Node000003" class="node">
<title>Node3</title>
<g id="a_Node000003"><a xlink:href="a00029.html#a9a37a193bc61a8127790f891efc1af05" target="_top" xlink:title=" ">
<polygon fill="white" stroke="#666666" points="383.25,-57 348.5,-57 348.5,-37 383.25,-37 383.25,-57"/>
<text text-anchor="middle" x="365.88" y="-43.5" font-family="Helvetica,sans-Serif" font-size="10.00">func</text>
</a>
</g>
</g>
<!-- Node1&#45;&gt;Node3 -->
<g id="edge2_Node000001_Node000003" class="edge">
<title>Node1&#45;&gt;Node3</title>
<g id="a_edge2_Node000001_Node000003"><a xlink:title=" ">
<path fill="none" stroke="#63b8ff" d="M108.73,-104.89C175.09,-89.89 285.64,-64.91 337.03,-53.29"/>
<polygon fill="#63b8ff" stroke="#63b8ff" points="337.73,-56.72 346.72,-51.1 336.19,-49.89 337.73,-56.72"/>
</a>
</g>
</g>
<!-- Node4 -->
<g id="Node000004" class="node">
<title>Node4</title>
<g id="a_Node000004"><a xlink:href="a00420.html#a3830d60f883d192d8d6dc65ae537c5c1" target="_top" xlink:title=" ">
<polygon fill="white" stroke="#666666" points="422.25,-195 309.5,-195 309.5,-151 422.25,-151 422.25,-195"/>
<text text-anchor="start" x="317.5" y="-181.5" font-family="Helvetica,sans-Serif" font-size="10.00">MiraiCP::ThreadTask</text>
<text text-anchor="start" x="317.5" y="-169.5" font-family="Helvetica,sans-Serif" font-size="10.00">::internal::get_function</text>
<text text-anchor="middle" x="365.88" y="-157.5" font-family="Helvetica,sans-Serif" font-size="10.00">_storer</text>
</a>
</g>
</g>
<!-- Node1&#45;&gt;Node4 -->
<g id="edge3_Node000001_Node000004" class="edge">
<title>Node1&#45;&gt;Node4</title>
<g id="a_edge3_Node000001_Node000004"><a xlink:title=" ">
<path fill="none" stroke="#63b8ff" d="M108.73,-126.69C161.24,-136.18 241.42,-150.68 298.06,-160.92"/>
<polygon fill="#63b8ff" stroke="#63b8ff" points="297.11,-164.3 307.57,-162.64 298.35,-157.42 297.11,-164.3"/>
</a>
</g>
</g>
<!-- Node5 -->
<g id="Node000005" class="node">
<title>Node5</title>
<g id="a_Node000005"><a xlink:href="a00420.html#ab64116c47ac8841acfd734f7069eaa10" target="_top" xlink:title=" ">
<polygon fill="white" stroke="#666666" points="420,-126 311.75,-126 311.75,-94 420,-94 420,-126"/>
<text text-anchor="start" x="319.75" y="-112.5" font-family="Helvetica,sans-Serif" font-size="10.00">MiraiCP::ThreadTask</text>
<text text-anchor="middle" x="365.88" y="-100.5" font-family="Helvetica,sans-Serif" font-size="10.00">::internal::get_mutex</text>
</a>
</g>
</g>
<!-- Node1&#45;&gt;Node5 -->
<g id="edge4_Node000001_Node000005" class="edge">
<title>Node1&#45;&gt;Node5</title>
<g id="a_edge4_Node000001_Node000005"><a xlink:title=" ">
<path fill="none" stroke="#63b8ff" d="M108.73,-115.79C161.86,-114.59 243.31,-112.75 300.05,-111.46"/>
<polygon fill="#63b8ff" stroke="#63b8ff" points="299.98,-114.97 309.9,-111.24 299.82,-107.97 299.98,-114.97"/>
</a>
</g>
</g>
<!-- Node6 -->
<g id="Node000006" class="node">
<title>Node6</title>
<g id="a_Node000006"><a xlink:href="a00426.html#ae86871d4f062f45edee7501e0596cd3d" target="_top" xlink:title=" ">
<polygon fill="white" stroke="#666666" points="258.5,-32 151,-32 151,0 258.5,0 258.5,-32"/>
<text text-anchor="start" x="159" y="-18.5" font-family="Helvetica,sans-Serif" font-size="10.00">LibLoader::LoaderApi</text>
<text text-anchor="middle" x="204.75" y="-6.5" font-family="Helvetica,sans-Serif" font-size="10.00">::pushTaskWithId</text>
</a>
</g>
</g>
<!-- Node1&#45;&gt;Node6 -->
<g id="edge5_Node000001_Node000006" class="edge">
<title>Node1&#45;&gt;Node6</title>
<g id="a_edge5_Node000001_Node000006"><a xlink:title=" ">
<path fill="none" stroke="#63b8ff" d="M73.4,-100.58C90.85,-85.37 118.27,-62.65 144.25,-46 148.7,-43.15 153.46,-40.36 158.28,-37.7"/>
<polygon fill="#63b8ff" stroke="#63b8ff" points="159.64,-40.94 166.82,-33.15 156.35,-34.76 159.64,-40.94"/>
</a>
</g>
</g>
<!-- Node7 -->
<g id="Node000007" class="node">
<title>Node7</title>
<g id="a_Node000007"><a xlink:href="a00420.html#a954499687c36452be430af25a7e94750" target="_top" xlink:title=" ">
<polygon fill="white" stroke="#666666" points="265.25,-196 144.25,-196 144.25,-164 265.25,-164 265.25,-196"/>
<text text-anchor="start" x="152.25" y="-182.5" font-family="Helvetica,sans-Serif" font-size="10.00">MiraiCP::ThreadTask</text>
<text text-anchor="middle" x="204.75" y="-170.5" font-family="Helvetica,sans-Serif" font-size="10.00">::internal::task_interface</text>
</a>
</g>
</g>
<!-- Node1&#45;&gt;Node7 -->
<g id="edge7_Node000001_Node000007" class="edge">
<title>Node1&#45;&gt;Node7</title>
<g id="a_edge7_Node000001_Node000007"><a xlink:title=" ">
<path fill="none" stroke="#63b8ff" d="M93.79,-133.39C112.38,-141.27 134.87,-150.8 154.66,-159.19"/>
<polygon fill="#63b8ff" stroke="#63b8ff" points="153.06,-162.31 163.63,-162.99 155.79,-155.87 153.06,-162.31"/>
</a>
</g>
</g>
<!-- Node6&#45;&gt;Node3 -->
<g id="edge6_Node000006_Node000003" class="edge">
<title>Node6&#45;&gt;Node3</title>
<g id="a_edge6_Node000006_Node000003"><a xlink:title=" ">
<path fill="none" stroke="#63b8ff" d="M258.74,-26.32C284.86,-31.41 315.29,-37.34 336.86,-41.54"/>
<polygon fill="#63b8ff" stroke="#63b8ff" points="336.17,-44.97 346.65,-43.45 337.51,-38.1 336.17,-44.97"/>
</a>
</g>
</g>
<!-- Node7&#45;&gt;Node2 -->
<g id="edge8_Node000007_Node000002" class="edge">
<title>Node7&#45;&gt;Node2</title>
<g id="a_edge8_Node000007_Node000002"><a xlink:title=" ">
<path fill="none" stroke="#63b8ff" d="M253.06,-196.35C269.83,-202.15 288.9,-208.74 306.48,-214.81"/>
<polygon fill="#63b8ff" stroke="#63b8ff" points="305.17,-218.07 315.76,-218.03 307.46,-211.45 305.17,-218.07"/>
</a>
</g>
</g>
<!-- Node7&#45;&gt;Node4 -->
<g id="edge9_Node000007_Node000004" class="edge">
<title>Node7&#45;&gt;Node4</title>
<g id="a_edge9_Node000007_Node000004"><a xlink:title=" ">
<path fill="none" stroke="#63b8ff" d="M265.46,-177.37C275.95,-176.91 286.93,-176.43 297.61,-175.96"/>
<polygon fill="#63b8ff" stroke="#63b8ff" points="297.7,-179.46 307.53,-175.52 297.39,-172.47 297.7,-179.46"/>
</a>
</g>
</g>
<!-- Node7&#45;&gt;Node5 -->
<g id="edge10_Node000007_Node000005" class="edge">
<title>Node7&#45;&gt;Node5</title>
<g id="a_edge10_Node000007_Node000005"><a xlink:title=" ">
<path fill="none" stroke="#63b8ff" d="M243.06,-163.59C265.12,-153.88 293.3,-141.49 316.99,-131.06"/>
<polygon fill="#63b8ff" stroke="#63b8ff" points="318.4,-134.27 326.14,-127.04 315.58,-127.86 318.4,-134.27"/>
</a>
</g>
</g>
<!-- Node7&#45;&gt;Node7 -->
<g id="edge11_Node000007_Node000007" class="edge">
<title>Node7&#45;&gt;Node7</title>
<g id="a_edge11_Node000007_Node000007"><a xlink:title=" ">
<path fill="none" stroke="#63b8ff" d="M177.86,-196.44C172.84,-205.58 181.8,-214 204.75,-214 217.3,-214 225.67,-211.48 229.85,-207.71"/>
<polygon fill="#63b8ff" stroke="#63b8ff" points="233.29,-208.36 231.4,-197.94 226.38,-207.26 233.29,-208.36"/>
</a>
</g>
</g>
</g>
</svg>
