<?xml version="1.0" encoding="UTF-8" standalone="no"?>
<!DOCTYPE svg PUBLIC "-//W3C//DTD SVG 1.1//EN"
 "http://www.w3.org/Graphics/SVG/1.1/DTD/svg11.dtd">
<!-- Generated by graphviz version 9.0.0 (0)
 -->
<!-- Title: MiraiCP::Event::incomingEvent Pages: 1 -->
<svg width="737pt" height="296pt"
 viewBox="0.00 0.00 736.50 296.00" xmlns="http://www.w3.org/2000/svg" xmlns:xlink="http://www.w3.org/1999/xlink">
<g id="graph0" class="graph" transform="scale(1 1) rotate(0) translate(4 292)">
<title>MiraiCP::Event::incomingEvent</title>
<!-- Node1 -->
<g id="Node000001" class="node">
<title>Node1</title>
<g id="a_Node000001"><a xlink:title=" ">
<polygon fill="#999999" stroke="#666666" points="127.75,-132 0,-132 0,-100 127.75,-100 127.75,-132"/>
<text text-anchor="start" x="8" y="-118.5" font-family="Helvetica,sans-Serif" font-size="10.00">MiraiCP::Event::incoming</text>
<text text-anchor="middle" x="63.88" y="-106.5" font-family="Helvetica,sans-Serif" font-size="10.00">Event</text>
</a>
</g>
</g>
<!-- Node2 -->
<g id="Node000002" class="node">
<title>Node2</title>
<g id="a_Node000002"><a xlink:href="a00480.html#adbdeabc1c1a6797391ba47201320047c" target="_top" xlink:title="广播一个事件, 必须为MiraiCPEvent的派生类">
<polygon fill="white" stroke="#666666" points="313.25,-251 181.75,-251 181.75,-231 313.25,-231 313.25,-251"/>
<text text-anchor="middle" x="247.5" y="-237.5" font-family="Helvetica,sans-Serif" font-size="10.00">MiraiCP::Event::broadcast</text>
</a>
</g>
</g>
<!-- Node1&#45;&gt;Node2 -->
<g id="edge1_Node000001_Node000002" class="edge">
<title>Node1&#45;&gt;Node2</title>
<g id="a_edge1_Node000001_Node000002"><a xlink:title=" ">
<path fill="none" stroke="#63b8ff" d="M85.24,-132.45C104.91,-148.1 135.76,-172.01 163.75,-191 181.41,-202.98 201.94,-215.4 218.13,-224.86"/>
<polygon fill="#63b8ff" stroke="#63b8ff" points="216.36,-227.87 226.77,-229.86 219.86,-221.82 216.36,-227.87"/>
</a>
</g>
</g>
<!-- Node4 -->
<g id="Node000004" class="node">
<title>Node4</title>
<g id="a_Node000004"><a xlink:href="a00652.html#ad76190cce563a29637e62105e7db52d9" target="_top" xlink:title=" ">
<polygon fill="white" stroke="#666666" points="331.25,-182 163.75,-182 163.75,-150 331.25,-150 331.25,-182"/>
<text text-anchor="start" x="171.75" y="-168.5" font-family="Helvetica,sans-Serif" font-size="10.00">MiraiCP::MessageChain</text>
<text text-anchor="middle" x="247.5" y="-156.5" font-family="Helvetica,sans-Serif" font-size="10.00">::deserializationFromMessageJson</text>
</a>
</g>
</g>
<!-- Node1&#45;&gt;Node4 -->
<g id="edge3_Node000001_Node000004" class="edge">
<title>Node1&#45;&gt;Node4</title>
<g id="a_edge3_Node000001_Node000004"><a xlink:title=" ">
<path fill="none" stroke="#63b8ff" d="M124.6,-132.44C140.97,-136.95 158.87,-141.88 175.79,-146.53"/>
<polygon fill="#63b8ff" stroke="#63b8ff" points="174.71,-149.87 185.28,-149.15 176.57,-143.12 174.71,-149.87"/>
</a>
</g>
</g>
<!-- Node13 -->
<g id="Node000013" class="node">
<title>Node13</title>
<g id="a_Node000013"><a xlink:href="a00460.html#a76bc51237847ebb3cca3d2d8478f527f" target="_top" xlink:title=" ">
<polygon fill="white" stroke="#666666" points="319.62,-132 175.38,-132 175.38,-100 319.62,-100 319.62,-132"/>
<text text-anchor="start" x="183.38" y="-118.5" font-family="Helvetica,sans-Serif" font-size="10.00">MiraiCP::Contact::deserialize</text>
<text text-anchor="middle" x="247.5" y="-106.5" font-family="Helvetica,sans-Serif" font-size="10.00">ToPointer</text>
</a>
</g>
</g>
<!-- Node1&#45;&gt;Node13 -->
<g id="edge14_Node000001_Node000013" class="edge">
<title>Node1&#45;&gt;Node13</title>
<g id="a_edge14_Node000001_Node000013"><a xlink:title=" ">
<path fill="none" stroke="#63b8ff" d="M128.14,-116C139.63,-116 151.76,-116 163.7,-116"/>
<polygon fill="#63b8ff" stroke="#63b8ff" points="163.56,-119.5 173.56,-116 163.56,-112.5 163.56,-119.5"/>
</a>
</g>
</g>
<!-- Node14 -->
<g id="Node000014" class="node">
<title>Node14</title>
<g id="a_Node000014"><a xlink:href="a00412.html#adb669a26688c68d7e8fba360377c2439" target="_top" xlink:title=" ">
<polygon fill="white" stroke="#666666" points="310.25,-82 184.75,-82 184.75,-62 310.25,-62 310.25,-82"/>
<text text-anchor="middle" x="247.5" y="-68.5" font-family="Helvetica,sans-Serif" font-size="10.00">MiraiCP::json_jsonmover</text>
</a>
</g>
</g>
<!-- Node1&#45;&gt;Node14 -->
<g id="edge15_Node000001_Node000014" class="edge">
<title>Node1&#45;&gt;Node14</title>
<g id="a_edge15_Node000001_Node000014"><a xlink:title=" ">
<path fill="none" stroke="#63b8ff" d="M128.12,-99.79C139.95,-96.82 152.22,-93.78 163.75,-91 171.92,-89.03 180.56,-86.99 189.04,-85.02"/>
<polygon fill="#63b8ff" stroke="#63b8ff" points="189.64,-88.48 198.59,-82.81 188.06,-81.66 189.64,-88.48"/>
</a>
</g>
</g>
<!-- Node15 -->
<g id="Node000015" class="node">
<title>Node15</title>
<g id="a_Node000015"><a xlink:href="a00412.html#a4208a634d81d0263c1079debe2ab58fa" target="_top" xlink:title=" ">
<polygon fill="white" stroke="#666666" points="313.25,-44 181.75,-44 181.75,-24 313.25,-24 313.25,-44"/>
<text text-anchor="middle" x="247.5" y="-30.5" font-family="Helvetica,sans-Serif" font-size="10.00">MiraiCP::json_stringmover</text>
</a>
</g>
</g>
<!-- Node1&#45;&gt;Node15 -->
<g id="edge16_Node000001_Node000015" class="edge">
<title>Node1&#45;&gt;Node15</title>
<g id="a_edge16_Node000001_Node000015"><a xlink:title=" ">
<path fill="none" stroke="#63b8ff" d="M85.69,-99.73C104.93,-85.44 134.84,-65.11 163.75,-53 168.39,-51.06 173.26,-49.3 178.22,-47.7"/>
<polygon fill="#63b8ff" stroke="#63b8ff" points="179.11,-51.09 187.71,-44.9 177.13,-44.37 179.11,-51.09"/>
</a>
</g>
</g>
<!-- Node3 -->
<g id="Node000003" class="node">
<title>Node3</title>
<g id="a_Node000003"><a xlink:href="a00480.html#a31d07622f9f3ef06ff6740b3fa06f061" target="_top" xlink:title=" ">
<polygon fill="white" stroke="#666666" points="511.12,-288 390.88,-288 390.88,-256 511.12,-256 511.12,-288"/>
<text text-anchor="start" x="398.88" y="-274.5" font-family="Helvetica,sans-Serif" font-size="10.00">MiraiCP::Event::internal</text>
<text text-anchor="middle" x="451" y="-262.5" font-family="Helvetica,sans-Serif" font-size="10.00">Broadcast</text>
</a>
</g>
</g>
<!-- Node2&#45;&gt;Node3 -->
<g id="edge2_Node000002_Node000003" class="edge">
<title>Node2&#45;&gt;Node3</title>
<g id="a_edge2_Node000002_Node000003"><a xlink:title=" ">
<path fill="none" stroke="#63b8ff" d="M313.64,-251.02C334.6,-254.25 357.91,-257.83 379.25,-261.12"/>
<polygon fill="#63b8ff" stroke="#63b8ff" points="378.63,-264.56 389.04,-262.62 379.69,-257.64 378.63,-264.56"/>
</a>
</g>
</g>
<!-- Node5 -->
<g id="Node000005" class="node">
<title>Node5</title>
<g id="a_Node000005"><a xlink:href="a00652.html#a784cfbcfd8efea6f6c5a2a3b9131bb1f" target="_top" xlink:title="使用emplace_back构造Message添加元素">
<polygon fill="white" stroke="#666666" points="523.12,-238 378.88,-238 378.88,-218 523.12,-218 523.12,-238"/>
<text text-anchor="middle" x="451" y="-224.5" font-family="Helvetica,sans-Serif" font-size="10.00">MiraiCP::MessageChain::add</text>
</a>
</g>
</g>
<!-- Node4&#45;&gt;Node5 -->
<g id="edge4_Node000004_Node000005" class="edge">
<title>Node4&#45;&gt;Node5</title>
<g id="a_edge4_Node000004_Node000005"><a xlink:title=" ">
<path fill="none" stroke="#63b8ff" d="M290.13,-182.48C312.73,-191.07 341.28,-201.35 367.25,-209 374.2,-211.05 381.53,-213.01 388.84,-214.84"/>
<polygon fill="#63b8ff" stroke="#63b8ff" points="387.85,-218.2 398.39,-217.16 389.5,-211.4 387.85,-218.2"/>
</a>
</g>
</g>
<!-- Node6 -->
<g id="Node000006" class="node">
<title>Node6</title>
<g id="a_Node000006"><a xlink:href="a00600.html#ac802edcd83cf04abe4cc602c901a933f" target="_top" xlink:title=" ">
<polygon fill="white" stroke="#666666" points="534.75,-182 367.25,-182 367.25,-150 534.75,-150 534.75,-182"/>
<text text-anchor="start" x="375.25" y="-168.5" font-family="Helvetica,sans-Serif" font-size="10.00">MiraiCP::ForwardedMessage</text>
<text text-anchor="middle" x="451" y="-156.5" font-family="Helvetica,sans-Serif" font-size="10.00">::deserializationFromMessageJson</text>
</a>
</g>
</g>
<!-- Node4&#45;&gt;Node6 -->
<g id="edge5_Node000004_Node000006" class="edge">
<title>Node4&#45;&gt;Node6</title>
<g id="a_edge5_Node000004_Node000006"><a xlink:title=" ">
<path fill="none" stroke="#63b8ff" d="M331.62,-159.34C339.58,-159.26 347.69,-159.23 355.74,-159.26"/>
<polygon fill="#63b8ff" stroke="#63b8ff" points="355.53,-162.76 365.56,-159.33 355.58,-155.76 355.53,-162.76"/>
</a>
</g>
</g>
<!-- Node9 -->
<g id="Node000009" class="node">
<title>Node9</title>
<g id="a_Node000009"><a xlink:href="a00656.html#a1f98db6bbdf6b7d178bf92f55fd2e4dc" target="_top" xlink:title="从json字符串反序列化到MessageSource对象">
<polygon fill="white" stroke="#666666" points="514.88,-132 387.12,-132 387.12,-100 514.88,-100 514.88,-132"/>
<text text-anchor="start" x="395.12" y="-118.5" font-family="Helvetica,sans-Serif" font-size="10.00">MiraiCP::MessageSource</text>
<text text-anchor="middle" x="451" y="-106.5" font-family="Helvetica,sans-Serif" font-size="10.00">::deserializeFromString</text>
</a>
</g>
</g>
<!-- Node4&#45;&gt;Node9 -->
<g id="edge10_Node000004_Node000009" class="edge">
<title>Node4&#45;&gt;Node9</title>
<g id="a_edge10_Node000004_Node000009"><a xlink:title=" ">
<path fill="none" stroke="#63b8ff" d="M314.76,-149.56C334.31,-144.71 355.83,-139.37 375.84,-134.4"/>
<polygon fill="#63b8ff" stroke="#63b8ff" points="376.45,-137.86 385.31,-132.05 374.77,-131.06 376.45,-137.86"/>
</a>
</g>
</g>
<!-- Node11 -->
<g id="Node000011" class="node">
<title>Node11</title>
<g id="a_Node000011"><a xlink:href="a00676.html#a02de0179d4a665d29ca9350be9f1e63e" target="_top" xlink:title="找对应类型的index key">
<polygon fill="white" stroke="#666666" points="513,-82 389,-82 389,-50 513,-50 513,-82"/>
<text text-anchor="start" x="397" y="-68.5" font-family="Helvetica,sans-Serif" font-size="10.00">MiraiCP::SingleMessage</text>
<text text-anchor="middle" x="451" y="-56.5" font-family="Helvetica,sans-Serif" font-size="10.00">::getKey</text>
</a>
</g>
</g>
<!-- Node4&#45;&gt;Node11 -->
<g id="edge12_Node000004_Node000011" class="edge">
<title>Node4&#45;&gt;Node11</title>
<g id="a_edge12_Node000004_Node000011"><a xlink:title=" ">
<path fill="none" stroke="#63b8ff" d="M316.64,-149.5C321.79,-147.04 326.73,-144.23 331.25,-141 353.54,-125.09 344.96,-106.91 367.25,-91 370.69,-88.54 374.37,-86.33 378.2,-84.32"/>
<polygon fill="#63b8ff" stroke="#63b8ff" points="379.65,-87.51 387.26,-80.14 376.71,-81.16 379.65,-87.51"/>
</a>
</g>
</g>
<!-- Node12 -->
<g id="Node000012" class="node">
<title>Node12</title>
<g id="a_Node000012"><a xlink:href="a00628.html#a279a66d53b8b825f4a9ebc8fe30f20d6" target="_top" xlink:title="发送警告(warning级日志)">
<polygon fill="white" stroke="#666666" points="515.62,-32 386.38,-32 386.38,0 515.62,0 515.62,-32"/>
<text text-anchor="start" x="394.38" y="-18.5" font-family="Helvetica,sans-Serif" font-size="10.00">MiraiCP::Logger_interface</text>
<text text-anchor="middle" x="451" y="-6.5" font-family="Helvetica,sans-Serif" font-size="10.00">::warning</text>
</a>
</g>
</g>
<!-- Node4&#45;&gt;Node12 -->
<g id="edge13_Node000004_Node000012" class="edge">
<title>Node4&#45;&gt;Node12</title>
<g id="a_edge13_Node000004_Node000012"><a xlink:title=" ">
<path fill="none" stroke="#63b8ff" d="M319.69,-149.67C323.86,-147.18 327.77,-144.31 331.25,-141 365.51,-108.48 332.99,-73.52 367.25,-41 369.97,-38.42 372.95,-36.1 376.11,-34.02"/>
<polygon fill="#63b8ff" stroke="#63b8ff" points="377.71,-37.14 384.74,-29.21 374.3,-31.03 377.71,-37.14"/>
</a>
</g>
</g>
<!-- Node6&#45;&gt;Node4 -->
<g id="edge8_Node000006_Node000004" class="edge">
<title>Node6&#45;&gt;Node4</title>
<g id="a_edge8_Node000006_Node000004"><a xlink:title=" ">
<path fill="none" stroke="#63b8ff" d="M367.07,-172.66C359.11,-172.74 351.01,-172.77 342.95,-172.74"/>
<polygon fill="#63b8ff" stroke="#63b8ff" points="343.16,-169.24 333.13,-172.67 343.11,-176.24 343.16,-169.24"/>
</a>
</g>
</g>
<!-- Node6&#45;&gt;Node6 -->
<g id="edge7_Node000006_Node000006" class="edge">
<title>Node6&#45;&gt;Node6</title>
<g id="a_edge7_Node000006_Node000006"><a xlink:title=" ">
<path fill="none" stroke="#63b8ff" d="M415.54,-182.44C408.92,-191.58 420.74,-200 451,-200 467.55,-200 478.58,-197.48 484.1,-193.71"/>
<polygon fill="#63b8ff" stroke="#63b8ff" points="487.52,-194.43 486.15,-183.92 480.67,-192.99 487.52,-194.43"/>
</a>
</g>
</g>
<!-- Node7 -->
<g id="Node000007" class="node">
<title>Node7</title>
<g id="a_Node000007"><a xlink:href="a00592.html#ae41f2b998365484dba1ff3f32563dfbb" target="_top" xlink:title=" ">
<polygon fill="white" stroke="#666666" points="728.5,-232 570.75,-232 570.75,-200 728.5,-200 728.5,-232"/>
<text text-anchor="start" x="578.75" y="-218.5" font-family="Helvetica,sans-Serif" font-size="10.00">MiraiCP::ForwardedMessage</text>
<text text-anchor="middle" x="649.62" y="-206.5" font-family="Helvetica,sans-Serif" font-size="10.00">DisplayStrategy::defaultStrategy</text>
</a>
</g>
</g>
<!-- Node6&#45;&gt;Node7 -->
<g id="edge6_Node000006_Node000007" class="edge">
<title>Node6&#45;&gt;Node7</title>
<g id="a_edge6_Node000006_Node000007"><a xlink:title=" ">
<path fill="none" stroke="#63b8ff" d="M516.65,-182.44C534.63,-187.01 554.31,-192.02 572.86,-196.73"/>
<polygon fill="#63b8ff" stroke="#63b8ff" points="571.91,-200.1 582.46,-199.18 573.64,-193.32 571.91,-200.1"/>
</a>
</g>
</g>
<!-- Node8 -->
<g id="Node000008" class="node">
<title>Node8</title>
<g id="a_Node000008"><a xlink:href="a00592.html#ae93025f6346a4d8c257da1f453097d6a" target="_top" xlink:title=" ">
<polygon fill="white" stroke="#666666" points="721,-182 578.25,-182 578.25,-150 721,-150 721,-182"/>
<text text-anchor="start" x="586.25" y="-168.5" font-family="Helvetica,sans-Serif" font-size="10.00">MiraiCP::ForwardedMessage</text>
<text text-anchor="middle" x="649.62" y="-156.5" font-family="Helvetica,sans-Serif" font-size="10.00">DisplayStrategy::fromJson</text>
</a>
</g>
</g>
<!-- Node6&#45;&gt;Node8 -->
<g id="edge9_Node000006_Node000008" class="edge">
<title>Node6&#45;&gt;Node8</title>
<g id="a_edge9_Node000006_Node000008"><a xlink:title=" ">
<path fill="none" stroke="#63b8ff" d="M535.1,-166C545.57,-166 556.27,-166 566.72,-166"/>
<polygon fill="#63b8ff" stroke="#63b8ff" points="566.42,-169.5 576.42,-166 566.42,-162.5 566.42,-169.5"/>
</a>
</g>
</g>
<!-- Node10 -->
<g id="Node000010" class="node">
<title>Node10</title>
<g id="a_Node000010"><a xlink:href="a00628.html#af14d39efa300da183070784bc86d3f23" target="_top" xlink:title="发送错误(error级日志)">
<polygon fill="white" stroke="#666666" points="714.25,-132 585,-132 585,-100 714.25,-100 714.25,-132"/>
<text text-anchor="start" x="593" y="-118.5" font-family="Helvetica,sans-Serif" font-size="10.00">MiraiCP::Logger_interface</text>
<text text-anchor="middle" x="649.62" y="-106.5" font-family="Helvetica,sans-Serif" font-size="10.00">::error</text>
</a>
</g>
</g>
<!-- Node9&#45;&gt;Node10 -->
<g id="edge11_Node000009_Node000010" class="edge">
<title>Node9&#45;&gt;Node10</title>
<g id="a_edge11_Node000009_Node000010"><a xlink:title=" ">
<path fill="none" stroke="#63b8ff" d="M515.3,-116C533.79,-116 554.19,-116 573.35,-116"/>
<polygon fill="#63b8ff" stroke="#63b8ff" points="573.26,-119.5 583.26,-116 573.26,-112.5 573.26,-119.5"/>
</a>
</g>
</g>
</g>
</svg>
