<?xml version="1.0" encoding="UTF-8" standalone="no"?>
<!DOCTYPE svg PUBLIC "-//W3C//DTD SVG 1.1//EN"
 "http://www.w3.org/Graphics/SVG/1.1/DTD/svg11.dtd">
<!-- Generated by graphviz version 9.0.0 (0)
 -->
<!-- Title: MiraiCP::BotOnlineEvent Pages: 1 -->
<svg width="485pt" height="1917pt"
 viewBox="0.00 0.00 485.00 1917.00" xmlns="http://www.w3.org/2000/svg" xmlns:xlink="http://www.w3.org/1999/xlink">
<g id="graph0" class="graph" transform="scale(1 1) rotate(0) translate(4 1913)">
<title>MiraiCP::BotOnlineEvent</title>
<!-- Node1 -->
<g id="Node000001" class="node">
<title>Node1</title>
<g id="a_Node000001"><a xlink:title="机器人上线事件">
<polygon fill="#999999" stroke="none" points="282,-92 162,-92 162,0 282,0 282,-92"/>
<text text-anchor="start" x="167.25" y="-78.5" font-family="Helvetica,sans-Serif" font-size="10.00">MiraiCP::BotOnlineEvent</text>
<text text-anchor="start" x="220.5" y="-62.5" font-family="Helvetica,sans-Serif" font-size="10.00"> </text>
<text text-anchor="start" x="166" y="-46.5" font-family="Helvetica,sans-Serif" font-size="10.00">+</text>
<text text-anchor="start" x="176" y="-46.5" font-family="Helvetica,sans-Serif" font-size="10.00">BotOnlineEvent(QQID</text>
<text text-anchor="start" x="176" y="-34.5" font-family="Helvetica,sans-Serif" font-size="10.00"> botid)</text>
<text text-anchor="start" x="166" y="-18.5" font-family="Helvetica,sans-Serif" font-size="10.00">+</text>
<text text-anchor="start" x="176" y="-18.5" font-family="Helvetica,sans-Serif" font-size="10.00">static eventTypes::</text>
<text text-anchor="start" x="176" y="-6.5" font-family="Helvetica,sans-Serif" font-size="10.00">Types get_event_type()</text>
<polygon fill="#666666" stroke="#666666" points="162,-74 162,-74 282,-74 282,-74 162,-74"/>
<polygon fill="#666666" stroke="#666666" points="162,-58 162,-58 282,-58 282,-58 162,-58"/>
<polygon fill="none" stroke="#666666" points="162,0 162,-92 282,-92 282,0 162,0"/>
</a>
</g>
</g>
<!-- Node2 -->
<g id="Node000002" class="node">
<title>Node2</title>
<g id="a_Node000002"><a xlink:href="a00488.html" target="_top" xlink:title=" ">
<polygon fill="white" stroke="none" points="293,-249 151,-249 151,-129 293,-129 293,-249"/>
<text text-anchor="start" x="178.12" y="-235.5" font-family="Helvetica,sans-Serif" font-size="10.00">MiraiCP::BotEvent&lt;</text>
<text text-anchor="start" x="181.88" y="-223.5" font-family="Helvetica,sans-Serif" font-size="10.00"> BotOnlineEvent &gt;</text>
<text text-anchor="start" x="220.5" y="-207.5" font-family="Helvetica,sans-Serif" font-size="10.00"> </text>
<text text-anchor="start" x="155" y="-191.5" font-family="Helvetica,sans-Serif" font-size="10.00">+</text>
<text text-anchor="start" x="165" y="-191.5" font-family="Helvetica,sans-Serif" font-size="10.00">eventTypes::Types getEvent</text>
<text text-anchor="start" x="165" y="-179.5" font-family="Helvetica,sans-Serif" font-size="10.00">Type() const override</text>
<text text-anchor="start" x="155" y="-163.5" font-family="Helvetica,sans-Serif" font-size="10.00">+</text>
<text text-anchor="start" x="165" y="-163.5" font-family="Helvetica,sans-Serif" font-size="10.00">BotEvent(QQID botid)</text>
<text text-anchor="start" x="155" y="-147.5" font-family="Helvetica,sans-Serif" font-size="10.00">+</text>
<text text-anchor="start" x="165" y="-147.5" font-family="Helvetica,sans-Serif" font-size="10.00">~BotEvent() override</text>
<text text-anchor="start" x="165" y="-135.5" font-family="Helvetica,sans-Serif" font-size="10.00">=default</text>
<polygon fill="#666666" stroke="#666666" points="151,-219 151,-219 293,-219 293,-219 151,-219"/>
<polygon fill="#666666" stroke="#666666" points="151,-203 151,-203 293,-203 293,-203 151,-203"/>
<polygon fill="none" stroke="#666666" points="151,-129 151,-249 293,-249 293,-129 151,-129"/>
</a>
</g>
</g>
<!-- Node2&#45;&gt;Node1 -->
<g id="edge1_Node000001_Node000002" class="edge">
<title>Node2&#45;&gt;Node1</title>
<g id="a_edge1_Node000001_Node000002"><a xlink:title=" ">
<path fill="none" stroke="#63b8ff" d="M222,-117.77C222,-108.86 222,-99.94 222,-91.58"/>
<polygon fill="none" stroke="#63b8ff" points="218.5,-117.51 222,-127.51 225.5,-117.51 218.5,-117.51"/>
</a>
</g>
</g>
<!-- Node3 -->
<g id="Node000003" class="node">
<title>Node3</title>
<g id="a_Node000003"><a xlink:href="a00512.html" target="_top" xlink:title="Event抽象父类">
<polygon fill="white" stroke="none" points="120,-701 0,-701 0,-553 120,-553 120,-701"/>
<text text-anchor="start" x="9" y="-687.5" font-family="Helvetica,sans-Serif" font-size="10.00">MiraiCP::MiraiCPEvent</text>
<text text-anchor="start" x="58.5" y="-671.5" font-family="Helvetica,sans-Serif" font-size="10.00"> </text>
<text text-anchor="start" x="4" y="-655.5" font-family="Helvetica,sans-Serif" font-size="10.00">+</text>
<text text-anchor="start" x="14" y="-655.5" font-family="Helvetica,sans-Serif" font-size="10.00">MiraiCPEvent()=default</text>
<text text-anchor="start" x="4" y="-639.5" font-family="Helvetica,sans-Serif" font-size="10.00">+</text>
<text text-anchor="start" x="14" y="-639.5" font-family="Helvetica,sans-Serif" font-size="10.00">virtual ~MiraiCPEvent</text>
<text text-anchor="start" x="14" y="-627.5" font-family="Helvetica,sans-Serif" font-size="10.00">()=default</text>
<text text-anchor="start" x="4" y="-611.5" font-family="Helvetica,sans-Serif" font-size="10.00">+</text>
<text text-anchor="start" x="14" y="-611.5" font-family="Helvetica,sans-Serif" font-size="10.00">virtual eventTypes</text>
<text text-anchor="start" x="14" y="-599.5" font-family="Helvetica,sans-Serif" font-size="10.00">::Types getEventType</text>
<text text-anchor="start" x="14" y="-587.5" font-family="Helvetica,sans-Serif" font-size="10.00">() const =0</text>
<text text-anchor="start" x="4" y="-571.5" font-family="Helvetica,sans-Serif" font-size="10.00">+</text>
<text text-anchor="start" x="14" y="-571.5" font-family="Helvetica,sans-Serif" font-size="10.00">static eventTypes::</text>
<text text-anchor="start" x="14" y="-559.5" font-family="Helvetica,sans-Serif" font-size="10.00">Types get_event_type()</text>
<polygon fill="#666666" stroke="#666666" points="0,-683 0,-683 120,-683 120,-683 0,-683"/>
<polygon fill="#666666" stroke="#666666" points="0,-667 0,-667 120,-667 120,-667 0,-667"/>
<polygon fill="none" stroke="#666666" points="0,-553 0,-701 120,-701 120,-553 0,-553"/>
</a>
</g>
</g>
<!-- Node3&#45;&gt;Node2 -->
<g id="edge2_Node000002_Node000003" class="edge">
<title>Node3&#45;&gt;Node2</title>
<g id="a_edge2_Node000002_Node000003"><a xlink:title=" ">
<path fill="none" stroke="#63b8ff" d="M49.52,-541.7C44.84,-471.99 47.62,-372.54 88,-297 102.46,-269.96 126.97,-247.35 151.11,-230"/>
<polygon fill="none" stroke="#63b8ff" points="46.02,-541.84 50.26,-551.55 53,-541.32 46.02,-541.84"/>
</a>
</g>
</g>
<!-- Node11 -->
<g id="Node000011" class="node">
<title>Node11</title>
<g id="a_Node000011"><a xlink:href="a00488.html" target="_top" xlink:title="所有事件处理timeoutevent都是机器人事件，指都有机器人实例">
<polygon fill="white" stroke="none" points="239,-405 97,-405 97,-297 239,-297 239,-405"/>
<text text-anchor="start" x="115.5" y="-391.5" font-family="Helvetica,sans-Serif" font-size="10.00">MiraiCP::BotEvent&lt; T &gt;</text>
<text text-anchor="start" x="166.5" y="-375.5" font-family="Helvetica,sans-Serif" font-size="10.00"> </text>
<text text-anchor="start" x="101" y="-359.5" font-family="Helvetica,sans-Serif" font-size="10.00">+</text>
<text text-anchor="start" x="111" y="-359.5" font-family="Helvetica,sans-Serif" font-size="10.00">eventTypes::Types getEvent</text>
<text text-anchor="start" x="111" y="-347.5" font-family="Helvetica,sans-Serif" font-size="10.00">Type() const override</text>
<text text-anchor="start" x="101" y="-331.5" font-family="Helvetica,sans-Serif" font-size="10.00">+</text>
<text text-anchor="start" x="111" y="-331.5" font-family="Helvetica,sans-Serif" font-size="10.00">BotEvent(QQID botid)</text>
<text text-anchor="start" x="101" y="-315.5" font-family="Helvetica,sans-Serif" font-size="10.00">+</text>
<text text-anchor="start" x="111" y="-315.5" font-family="Helvetica,sans-Serif" font-size="10.00">~BotEvent() override</text>
<text text-anchor="start" x="111" y="-303.5" font-family="Helvetica,sans-Serif" font-size="10.00">=default</text>
<polygon fill="#666666" stroke="#666666" points="97,-387 97,-387 239,-387 239,-387 97,-387"/>
<polygon fill="#666666" stroke="#666666" points="97,-371 97,-371 239,-371 239,-371 97,-371"/>
<polygon fill="none" stroke="#666666" points="97,-297 97,-405 239,-405 239,-297 97,-297"/>
</a>
</g>
</g>
<!-- Node3&#45;&gt;Node11 -->
<g id="edge11_Node000011_Node000003" class="edge">
<title>Node3&#45;&gt;Node11</title>
<g id="a_edge11_Node000011_Node000003"><a xlink:title=" ">
<path fill="none" stroke="#63b8ff" d="M92.84,-542.68C110.55,-497.76 131.86,-443.69 147.26,-404.62"/>
<polygon fill="none" stroke="#63b8ff" points="89.62,-541.3 89.21,-551.88 96.14,-543.86 89.62,-541.3"/>
</a>
</g>
</g>
<!-- Node4 -->
<g id="Node000004" class="node">
<title>Node4</title>
<g id="a_Node000004"><a xlink:href="a00448.html" target="_top" xlink:title="forward declaration">
<polygon fill="white" stroke="none" points="434,-801 292,-801 292,-453 434,-453 434,-801"/>
<text text-anchor="start" x="334.88" y="-787.5" font-family="Helvetica,sans-Serif" font-size="10.00">MiraiCP::Bot</text>
<text text-anchor="start" x="361.5" y="-771.5" font-family="Helvetica,sans-Serif" font-size="10.00"> </text>
<text text-anchor="start" x="296" y="-755.5" font-family="Helvetica,sans-Serif" font-size="10.00">+</text>
<text text-anchor="start" x="306" y="-755.5" font-family="Helvetica,sans-Serif" font-size="10.00">Bot(QQID in_id)</text>
<text text-anchor="start" x="296" y="-739.5" font-family="Helvetica,sans-Serif" font-size="10.00">+</text>
<text text-anchor="start" x="306" y="-739.5" font-family="Helvetica,sans-Serif" font-size="10.00">Friend getFriend(QQID</text>
<text text-anchor="start" x="306" y="-727.5" font-family="Helvetica,sans-Serif" font-size="10.00"> i) const</text>
<text text-anchor="start" x="296" y="-711.5" font-family="Helvetica,sans-Serif" font-size="10.00">+</text>
<text text-anchor="start" x="306" y="-711.5" font-family="Helvetica,sans-Serif" font-size="10.00">Group getGroup(QQID</text>
<text text-anchor="start" x="306" y="-699.5" font-family="Helvetica,sans-Serif" font-size="10.00"> groupid) const</text>
<text text-anchor="start" x="296" y="-683.5" font-family="Helvetica,sans-Serif" font-size="10.00">+</text>
<text text-anchor="start" x="306" y="-683.5" font-family="Helvetica,sans-Serif" font-size="10.00">std::string nick()</text>
<text text-anchor="start" x="296" y="-667.5" font-family="Helvetica,sans-Serif" font-size="10.00">+</text>
<text text-anchor="start" x="306" y="-667.5" font-family="Helvetica,sans-Serif" font-size="10.00">std::string avatarUrl()</text>
<text text-anchor="start" x="296" y="-651.5" font-family="Helvetica,sans-Serif" font-size="10.00">+</text>
<text text-anchor="start" x="306" y="-651.5" font-family="Helvetica,sans-Serif" font-size="10.00">std::vector&lt; QQID &gt;</text>
<text text-anchor="start" x="306" y="-639.5" font-family="Helvetica,sans-Serif" font-size="10.00"> getFriendList() const</text>
<text text-anchor="start" x="296" y="-623.5" font-family="Helvetica,sans-Serif" font-size="10.00">+</text>
<text text-anchor="start" x="306" y="-623.5" font-family="Helvetica,sans-Serif" font-size="10.00">std::string FriendListTo</text>
<text text-anchor="start" x="306" y="-611.5" font-family="Helvetica,sans-Serif" font-size="10.00">String() const</text>
<text text-anchor="start" x="296" y="-595.5" font-family="Helvetica,sans-Serif" font-size="10.00">+</text>
<text text-anchor="start" x="306" y="-595.5" font-family="Helvetica,sans-Serif" font-size="10.00">std::vector&lt; QQID &gt;</text>
<text text-anchor="start" x="306" y="-583.5" font-family="Helvetica,sans-Serif" font-size="10.00"> getGroupList() const</text>
<text text-anchor="start" x="296" y="-567.5" font-family="Helvetica,sans-Serif" font-size="10.00">+</text>
<text text-anchor="start" x="306" y="-567.5" font-family="Helvetica,sans-Serif" font-size="10.00">std::string GroupListToString</text>
<text text-anchor="start" x="306" y="-555.5" font-family="Helvetica,sans-Serif" font-size="10.00">() const</text>
<text text-anchor="start" x="296" y="-539.5" font-family="Helvetica,sans-Serif" font-size="10.00">+</text>
<text text-anchor="start" x="306" y="-539.5" font-family="Helvetica,sans-Serif" font-size="10.00">std::vector&lt; QQID &gt;</text>
<text text-anchor="start" x="306" y="-527.5" font-family="Helvetica,sans-Serif" font-size="10.00"> getOnlineBotsList()</text>
<text text-anchor="start" x="306" y="-515.5" font-family="Helvetica,sans-Serif" font-size="10.00"> const</text>
<text text-anchor="start" x="296" y="-499.5" font-family="Helvetica,sans-Serif" font-size="10.00">+</text>
<text text-anchor="start" x="306" y="-499.5" font-family="Helvetica,sans-Serif" font-size="10.00">std::string OnlineBotsList</text>
<text text-anchor="start" x="306" y="-487.5" font-family="Helvetica,sans-Serif" font-size="10.00">ToString() const</text>
<text text-anchor="start" x="296" y="-471.5" font-family="Helvetica,sans-Serif" font-size="10.00">+</text>
<text text-anchor="start" x="306" y="-471.5" font-family="Helvetica,sans-Serif" font-size="10.00">bool operator==(const</text>
<text text-anchor="start" x="306" y="-459.5" font-family="Helvetica,sans-Serif" font-size="10.00"> Bot &amp;b) const</text>
<polygon fill="#666666" stroke="#666666" points="292,-783 292,-783 434,-783 434,-783 292,-783"/>
<polygon fill="#666666" stroke="#666666" points="292,-767 292,-767 434,-767 434,-767 292,-767"/>
<polygon fill="none" stroke="#666666" points="292,-453 292,-801 434,-801 434,-453 292,-453"/>
</a>
</g>
</g>
<!-- Node4&#45;&gt;Node2 -->
<g id="edge3_Node000002_Node000004" class="edge">
<title>Node4&#45;&gt;Node2</title>
<g id="a_edge3_Node000002_Node000004"><a xlink:title=" ">
<path fill="none" stroke="#63b8ff" d="M354.05,-453.11C346.71,-401.21 333.94,-345.28 312,-297 306.02,-283.84 297.95,-271.01 289.09,-259.07"/>
<polygon fill="none" stroke="#63b8ff" points="289.04,-259.01 282.2,-256.73 281.68,-249.54 288.52,-251.82 289.04,-259.01"/>
</a>
</g>
<text text-anchor="middle" x="356.25" y="-347.5" font-family="Helvetica,sans-Serif" font-size="10.00" fill="grey"> +bot</text>
</g>
<!-- Node4&#45;&gt;Node11 -->
<g id="edge12_Node000011_Node000004" class="edge">
<title>Node4&#45;&gt;Node11</title>
<g id="a_edge12_Node000011_Node000004"><a xlink:title=" ">
<path fill="none" stroke="#63b8ff" d="M292.25,-466.13C289.25,-461.63 286.17,-457.24 283,-453 272.63,-439.12 260.09,-425.77 247.15,-413.56"/>
<polygon fill="none" stroke="#63b8ff" points="247.2,-413.61 240.07,-412.5 238.35,-405.5 245.48,-406.6 247.2,-413.61"/>
</a>
</g>
<text text-anchor="middle" x="278.25" y="-425.5" font-family="Helvetica,sans-Serif" font-size="10.00" fill="grey"> +bot</text>
</g>
<!-- Node5 -->
<g id="Node000005" class="node">
<title>Node5</title>
<g id="a_Node000005"><a xlink:href="a00460.html" target="_top" xlink:title="group, friend, member的父类">
<polygon fill="white" stroke="none" points="477,-1785 293,-1785 293,-849 477,-849 477,-1785"/>
<text text-anchor="start" x="347.12" y="-1771.5" font-family="Helvetica,sans-Serif" font-size="10.00">MiraiCP::Contact</text>
<text text-anchor="start" x="383.5" y="-1755.5" font-family="Helvetica,sans-Serif" font-size="10.00"> </text>
<text text-anchor="start" x="297" y="-1739.5" font-family="Helvetica,sans-Serif" font-size="10.00">+</text>
<text text-anchor="start" x="307" y="-1739.5" font-family="Helvetica,sans-Serif" font-size="10.00">Contact()=delete</text>
<text text-anchor="start" x="297" y="-1723.5" font-family="Helvetica,sans-Serif" font-size="10.00">+</text>
<text text-anchor="start" x="307" y="-1723.5" font-family="Helvetica,sans-Serif" font-size="10.00">virtual ~Contact()</text>
<text text-anchor="start" x="307" y="-1711.5" font-family="Helvetica,sans-Serif" font-size="10.00">=default</text>
<text text-anchor="start" x="297" y="-1695.5" font-family="Helvetica,sans-Serif" font-size="10.00">+</text>
<text text-anchor="start" x="307" y="-1695.5" font-family="Helvetica,sans-Serif" font-size="10.00">bool operator==(const</text>
<text text-anchor="start" x="307" y="-1683.5" font-family="Helvetica,sans-Serif" font-size="10.00"> Contact &amp;c) const</text>
<text text-anchor="start" x="297" y="-1667.5" font-family="Helvetica,sans-Serif" font-size="10.00">+</text>
<text text-anchor="start" x="307" y="-1667.5" font-family="Helvetica,sans-Serif" font-size="10.00">void SetInternalData</text>
<text text-anchor="start" x="307" y="-1655.5" font-family="Helvetica,sans-Serif" font-size="10.00">(std::shared_ptr&lt; IContactData</text>
<text text-anchor="start" x="307" y="-1643.5" font-family="Helvetica,sans-Serif" font-size="10.00"> &gt; Data)</text>
<text text-anchor="start" x="297" y="-1627.5" font-family="Helvetica,sans-Serif" font-size="10.00">+</text>
<text text-anchor="start" x="307" y="-1627.5" font-family="Helvetica,sans-Serif" font-size="10.00">void refreshInfo()</text>
<text text-anchor="start" x="297" y="-1611.5" font-family="Helvetica,sans-Serif" font-size="10.00">+</text>
<text text-anchor="start" x="307" y="-1611.5" font-family="Helvetica,sans-Serif" font-size="10.00">void forceRefreshNextTime()</text>
<text text-anchor="start" x="297" y="-1595.5" font-family="Helvetica,sans-Serif" font-size="10.00">+</text>
<text text-anchor="start" x="307" y="-1595.5" font-family="Helvetica,sans-Serif" font-size="10.00">void forceRefreshNow()</text>
<text text-anchor="start" x="297" y="-1579.5" font-family="Helvetica,sans-Serif" font-size="10.00">+</text>
<text text-anchor="start" x="307" y="-1579.5" font-family="Helvetica,sans-Serif" font-size="10.00">ContactType type()</text>
<text text-anchor="start" x="307" y="-1567.5" font-family="Helvetica,sans-Serif" font-size="10.00"> const</text>
<text text-anchor="start" x="297" y="-1551.5" font-family="Helvetica,sans-Serif" font-size="10.00">+</text>
<text text-anchor="start" x="307" y="-1551.5" font-family="Helvetica,sans-Serif" font-size="10.00">QQID id() const</text>
<text text-anchor="start" x="297" y="-1535.5" font-family="Helvetica,sans-Serif" font-size="10.00">+</text>
<text text-anchor="start" x="307" y="-1535.5" font-family="Helvetica,sans-Serif" font-size="10.00">QQID botid() const</text>
<text text-anchor="start" x="297" y="-1519.5" font-family="Helvetica,sans-Serif" font-size="10.00">+</text>
<text text-anchor="start" x="307" y="-1519.5" font-family="Helvetica,sans-Serif" font-size="10.00">MessageSource quoteAndSend</text>
<text text-anchor="start" x="307" y="-1507.5" font-family="Helvetica,sans-Serif" font-size="10.00">Message(const T &amp;s, MessageSource</text>
<text text-anchor="start" x="307" y="-1495.5" font-family="Helvetica,sans-Serif" font-size="10.00"> ms) const</text>
<text text-anchor="start" x="297" y="-1479.5" font-family="Helvetica,sans-Serif" font-size="10.00">+</text>
<text text-anchor="start" x="307" y="-1479.5" font-family="Helvetica,sans-Serif" font-size="10.00">MessageSource quoteAndSend</text>
<text text-anchor="start" x="307" y="-1467.5" font-family="Helvetica,sans-Serif" font-size="10.00">Message(const MessageSource</text>
<text text-anchor="start" x="307" y="-1455.5" font-family="Helvetica,sans-Serif" font-size="10.00"> &amp;ms, T &amp;&amp;...val) const</text>
<text text-anchor="start" x="297" y="-1439.5" font-family="Helvetica,sans-Serif" font-size="10.00">+</text>
<text text-anchor="start" x="307" y="-1439.5" font-family="Helvetica,sans-Serif" font-size="10.00">MessageSource sendMessage</text>
<text text-anchor="start" x="307" y="-1427.5" font-family="Helvetica,sans-Serif" font-size="10.00">(T &amp;&amp;...msg) const</text>
<text text-anchor="start" x="297" y="-1411.5" font-family="Helvetica,sans-Serif" font-size="10.00">+</text>
<text text-anchor="start" x="307" y="-1411.5" font-family="Helvetica,sans-Serif" font-size="10.00">MessageSource sendMessage</text>
<text text-anchor="start" x="307" y="-1399.5" font-family="Helvetica,sans-Serif" font-size="10.00">(T &amp;&amp;msg) const</text>
<text text-anchor="start" x="297" y="-1383.5" font-family="Helvetica,sans-Serif" font-size="10.00">+</text>
<text text-anchor="start" x="307" y="-1383.5" font-family="Helvetica,sans-Serif" font-size="10.00">nlohmann::json toJson</text>
<text text-anchor="start" x="307" y="-1371.5" font-family="Helvetica,sans-Serif" font-size="10.00">() const</text>
<text text-anchor="start" x="297" y="-1355.5" font-family="Helvetica,sans-Serif" font-size="10.00">+</text>
<text text-anchor="start" x="307" y="-1355.5" font-family="Helvetica,sans-Serif" font-size="10.00">void updateJson(nlohmann</text>
<text text-anchor="start" x="307" y="-1343.5" font-family="Helvetica,sans-Serif" font-size="10.00">::json &amp;j) const</text>
<text text-anchor="start" x="297" y="-1327.5" font-family="Helvetica,sans-Serif" font-size="10.00">+</text>
<text text-anchor="start" x="307" y="-1327.5" font-family="Helvetica,sans-Serif" font-size="10.00">std::string toString</text>
<text text-anchor="start" x="307" y="-1315.5" font-family="Helvetica,sans-Serif" font-size="10.00">() const</text>
<text text-anchor="start" x="297" y="-1299.5" font-family="Helvetica,sans-Serif" font-size="10.00">+</text>
<text text-anchor="start" x="307" y="-1299.5" font-family="Helvetica,sans-Serif" font-size="10.00">Image uploadImg(const</text>
<text text-anchor="start" x="307" y="-1287.5" font-family="Helvetica,sans-Serif" font-size="10.00"> std::string &amp;path) const</text>
<text text-anchor="start" x="297" y="-1271.5" font-family="Helvetica,sans-Serif" font-size="10.00">+</text>
<text text-anchor="start" x="307" y="-1271.5" font-family="Helvetica,sans-Serif" font-size="10.00">FlashImage uploadFlashImg</text>
<text text-anchor="start" x="307" y="-1259.5" font-family="Helvetica,sans-Serif" font-size="10.00">(const std::string &amp;path) const</text>
<text text-anchor="start" x="297" y="-1243.5" font-family="Helvetica,sans-Serif" font-size="10.00">+</text>
<text text-anchor="start" x="307" y="-1243.5" font-family="Helvetica,sans-Serif" font-size="10.00">static std::shared</text>
<text text-anchor="start" x="307" y="-1231.5" font-family="Helvetica,sans-Serif" font-size="10.00">_ptr&lt; Contact &gt; deserialize</text>
<text text-anchor="start" x="307" y="-1219.5" font-family="Helvetica,sans-Serif" font-size="10.00">ToPointer(nlohmann::json</text>
<text text-anchor="start" x="307" y="-1207.5" font-family="Helvetica,sans-Serif" font-size="10.00"> source)</text>
<text text-anchor="start" x="297.38" y="-1191.5" font-family="Helvetica,sans-Serif" font-size="10.00">#</text>
<text text-anchor="start" x="307" y="-1191.5" font-family="Helvetica,sans-Serif" font-size="10.00">Contact(std::shared</text>
<text text-anchor="start" x="307" y="-1179.5" font-family="Helvetica,sans-Serif" font-size="10.00">_ptr&lt; IContactData &gt; Data)</text>
<text text-anchor="start" x="297.38" y="-1163.5" font-family="Helvetica,sans-Serif" font-size="10.00">#</text>
<text text-anchor="start" x="307" y="-1163.5" font-family="Helvetica,sans-Serif" font-size="10.00">MessageSource quoteAndSend</text>
<text text-anchor="start" x="307" y="-1151.5" font-family="Helvetica,sans-Serif" font-size="10.00">Impl(std::string msg, const</text>
<text text-anchor="start" x="307" y="-1139.5" font-family="Helvetica,sans-Serif" font-size="10.00"> MessageSource &amp;ms) const</text>
<text text-anchor="start" x="297.38" y="-1123.5" font-family="Helvetica,sans-Serif" font-size="10.00">#</text>
<text text-anchor="start" x="307" y="-1123.5" font-family="Helvetica,sans-Serif" font-size="10.00">MessageSource unpackQuote</text>
<text text-anchor="start" x="307" y="-1111.5" font-family="Helvetica,sans-Serif" font-size="10.00">(const SingleMessage &amp;s,</text>
<text text-anchor="start" x="307" y="-1099.5" font-family="Helvetica,sans-Serif" font-size="10.00"> const MessageSource &amp;ms) const</text>
<text text-anchor="start" x="297.38" y="-1083.5" font-family="Helvetica,sans-Serif" font-size="10.00">#</text>
<text text-anchor="start" x="307" y="-1083.5" font-family="Helvetica,sans-Serif" font-size="10.00">MessageSource unpackQuote</text>
<text text-anchor="start" x="307" y="-1071.5" font-family="Helvetica,sans-Serif" font-size="10.00">(const std::string &amp;s,</text>
<text text-anchor="start" x="307" y="-1059.5" font-family="Helvetica,sans-Serif" font-size="10.00"> const MessageSource &amp;ms) const</text>
<text text-anchor="start" x="297.38" y="-1043.5" font-family="Helvetica,sans-Serif" font-size="10.00">#</text>
<text text-anchor="start" x="307" y="-1043.5" font-family="Helvetica,sans-Serif" font-size="10.00">MessageSource unpackQuote</text>
<text text-anchor="start" x="307" y="-1031.5" font-family="Helvetica,sans-Serif" font-size="10.00">(const MessageChain &amp;mc,</text>
<text text-anchor="start" x="307" y="-1019.5" font-family="Helvetica,sans-Serif" font-size="10.00"> const MessageSource &amp;ms) const</text>
<text text-anchor="start" x="297.38" y="-1003.5" font-family="Helvetica,sans-Serif" font-size="10.00">#</text>
<text text-anchor="start" x="307" y="-1003.5" font-family="Helvetica,sans-Serif" font-size="10.00">MessageSource sendVoiceImpl</text>
<text text-anchor="start" x="307" y="-991.5" font-family="Helvetica,sans-Serif" font-size="10.00">(std::string path) const</text>
<text text-anchor="start" x="297.38" y="-975.5" font-family="Helvetica,sans-Serif" font-size="10.00">#</text>
<text text-anchor="start" x="307" y="-975.5" font-family="Helvetica,sans-Serif" font-size="10.00">MessageSource sendMsgImpl</text>
<text text-anchor="start" x="307" y="-963.5" font-family="Helvetica,sans-Serif" font-size="10.00">(std::string msg) const</text>
<text text-anchor="start" x="297.38" y="-947.5" font-family="Helvetica,sans-Serif" font-size="10.00">#</text>
<text text-anchor="start" x="307" y="-947.5" font-family="Helvetica,sans-Serif" font-size="10.00">MessageSource unpackMsg</text>
<text text-anchor="start" x="307" y="-935.5" font-family="Helvetica,sans-Serif" font-size="10.00">(const MessageChain &amp;msg)</text>
<text text-anchor="start" x="307" y="-923.5" font-family="Helvetica,sans-Serif" font-size="10.00"> const</text>
<text text-anchor="start" x="297.38" y="-907.5" font-family="Helvetica,sans-Serif" font-size="10.00">#</text>
<text text-anchor="start" x="307" y="-907.5" font-family="Helvetica,sans-Serif" font-size="10.00">MessageSource unpackMsg</text>
<text text-anchor="start" x="307" y="-895.5" font-family="Helvetica,sans-Serif" font-size="10.00">(const MiraiCodeable &amp;msg)</text>
<text text-anchor="start" x="307" y="-883.5" font-family="Helvetica,sans-Serif" font-size="10.00"> const</text>
<text text-anchor="start" x="297.38" y="-867.5" font-family="Helvetica,sans-Serif" font-size="10.00">#</text>
<text text-anchor="start" x="307" y="-867.5" font-family="Helvetica,sans-Serif" font-size="10.00">MessageSource unpackMsg</text>
<text text-anchor="start" x="307" y="-855.5" font-family="Helvetica,sans-Serif" font-size="10.00">(std::string msg) const</text>
<polygon fill="#666666" stroke="#666666" points="293,-1767 293,-1767 477,-1767 477,-1767 293,-1767"/>
<polygon fill="#666666" stroke="#666666" points="293,-1751 293,-1751 477,-1751 477,-1751 293,-1751"/>
<polygon fill="none" stroke="#666666" points="293,-849 293,-1785 477,-1785 477,-849 293,-849"/>
</a>
</g>
</g>
<!-- Node5&#45;&gt;Node4 -->
<g id="edge4_Node000004_Node000005" class="edge">
<title>Node5&#45;&gt;Node4</title>
<g id="a_edge4_Node000004_Node000005"><a xlink:title=" ">
<path fill="none" stroke="#63b8ff" d="M369.71,-837.85C369.31,-825.24 368.91,-812.92 368.53,-800.97"/>
<polygon fill="none" stroke="#63b8ff" points="366.2,-837.6 370.02,-847.49 373.2,-837.38 366.2,-837.6"/>
</a>
</g>
</g>
<!-- Node6 -->
<g id="Node000006" class="node">
<title>Node6</title>
<g id="a_Node000006"><a xlink:title=" ">
<polygon fill="white" stroke="none" points="435,-1903 335,-1903 335,-1839 435,-1839 435,-1903"/>
<text text-anchor="start" x="340" y="-1889.5" font-family="Helvetica,sans-Serif" font-size="10.00">shared_ptr&lt; MiraiCP</text>
<text text-anchor="start" x="348.25" y="-1877.5" font-family="Helvetica,sans-Serif" font-size="10.00">::IContactData &gt;</text>
<text text-anchor="start" x="383.5" y="-1861.5" font-family="Helvetica,sans-Serif" font-size="10.00"> </text>
<text text-anchor="start" x="383.5" y="-1845.5" font-family="Helvetica,sans-Serif" font-size="10.00"> </text>
<polygon fill="#666666" stroke="#666666" points="335,-1873 335,-1873 435,-1873 435,-1873 335,-1873"/>
<polygon fill="#666666" stroke="#666666" points="335,-1857 335,-1857 435,-1857 435,-1857 335,-1857"/>
<polygon fill="none" stroke="#666666" points="335,-1839 335,-1903 435,-1903 435,-1839 335,-1839"/>
</a>
</g>
</g>
<!-- Node6&#45;&gt;Node5 -->
<g id="edge5_Node000005_Node000006" class="edge">
<title>Node6&#45;&gt;Node5</title>
<g id="a_edge5_Node000005_Node000006"><a xlink:title=" ">
<path fill="none" stroke="#63b8ff" d="M385,-1839.14C385,-1827.83 385,-1813.79 385,-1797.66"/>
<polygon fill="none" stroke="#63b8ff" points="385,-1797.83 381,-1791.83 385,-1785.83 389,-1791.83 385,-1797.83"/>
</a>
</g>
<text text-anchor="middle" x="415.75" y="-1805.5" font-family="Helvetica,sans-Serif" font-size="10.00" fill="grey"> #InternalData</text>
</g>
<!-- Node7 -->
<g id="Node000007" class="node">
<title>Node7</title>
<g id="a_Node000007"><a xlink:href="a00640.html" target="_top" xlink:title="带id(一般为bot账号)的logger">
<polygon fill="white" stroke="none" points="274,-679 138,-679 138,-575 274,-575 274,-679"/>
<text text-anchor="start" x="166.62" y="-665.5" font-family="Helvetica,sans-Serif" font-size="10.00">MiraiCP::IdLogger</text>
<text text-anchor="start" x="204.5" y="-649.5" font-family="Helvetica,sans-Serif" font-size="10.00"> </text>
<text text-anchor="start" x="142" y="-633.5" font-family="Helvetica,sans-Serif" font-size="10.00">+</text>
<text text-anchor="start" x="152" y="-633.5" font-family="Helvetica,sans-Serif" font-size="10.00">IdLogger(QQID inId,</text>
<text text-anchor="start" x="152" y="-621.5" font-family="Helvetica,sans-Serif" font-size="10.00"> Logger *l)</text>
<text text-anchor="start" x="142.38" y="-605.5" font-family="Helvetica,sans-Serif" font-size="10.00">#</text>
<text text-anchor="start" x="152" y="-605.5" font-family="Helvetica,sans-Serif" font-size="10.00">void log_interface</text>
<text text-anchor="start" x="152" y="-593.5" font-family="Helvetica,sans-Serif" font-size="10.00">(const std::string &amp;content,</text>
<text text-anchor="start" x="152" y="-581.5" font-family="Helvetica,sans-Serif" font-size="10.00"> int level) override</text>
<polygon fill="#666666" stroke="#666666" points="138,-661 138,-661 274,-661 274,-661 138,-661"/>
<polygon fill="#666666" stroke="#666666" points="138,-645 138,-645 274,-645 274,-645 138,-645"/>
<polygon fill="none" stroke="#666666" points="138,-575 138,-679 274,-679 274,-575 138,-575"/>
</a>
</g>
</g>
<!-- Node7&#45;&gt;Node2 -->
<g id="edge6_Node000002_Node000007" class="edge">
<title>Node7&#45;&gt;Node2</title>
<g id="a_edge6_Node000002_Node000007"><a xlink:title=" ">
<path fill="none" stroke="#63b8ff" d="M217.51,-575.2C231.96,-507.91 255.53,-385.3 261,-279 261.27,-273.67 262.24,-272.19 261,-267 260.52,-264.99 259.98,-262.98 259.38,-260.96"/>
<polygon fill="none" stroke="#63b8ff" points="259.34,-260.83 253.6,-256.46 255.42,-249.48 261.16,-253.85 259.34,-260.83"/>
</a>
</g>
<text text-anchor="middle" x="283.38" y="-347.5" font-family="Helvetica,sans-Serif" font-size="10.00" fill="grey"> +botlogger</text>
</g>
<!-- Node7&#45;&gt;Node11 -->
<g id="edge13_Node000011_Node000007" class="edge">
<title>Node7&#45;&gt;Node11</title>
<g id="a_edge13_Node000011_Node000007"><a xlink:title=" ">
<path fill="none" stroke="#63b8ff" d="M198.94,-575.1C192.79,-530.73 183.82,-466.09 177.13,-417.8"/>
<polygon fill="none" stroke="#63b8ff" points="177.12,-417.74 172.33,-412.34 175.47,-405.85 180.25,-411.24 177.12,-417.74"/>
</a>
</g>
<text text-anchor="middle" x="204.38" y="-425.5" font-family="Helvetica,sans-Serif" font-size="10.00" fill="grey"> +botlogger</text>
</g>
<!-- Node8 -->
<g id="Node000008" class="node">
<title>Node8</title>
<g id="a_Node000008"><a xlink:href="a00628.html" target="_top" xlink:title=" ">
<polygon fill="white" stroke="none" points="274.5,-1509 137.5,-1509 137.5,-1125 274.5,-1125 274.5,-1509"/>
<text text-anchor="start" x="149.38" y="-1495.5" font-family="Helvetica,sans-Serif" font-size="10.00">MiraiCP::Logger_interface</text>
<text text-anchor="start" x="204.5" y="-1479.5" font-family="Helvetica,sans-Serif" font-size="10.00"> </text>
<text text-anchor="start" x="141.5" y="-1463.5" font-family="Helvetica,sans-Serif" font-size="10.00">+</text>
<text text-anchor="start" x="151.5" y="-1463.5" font-family="Helvetica,sans-Serif" font-size="10.00">void info(T &amp;&amp;...val)</text>
<text text-anchor="start" x="141.5" y="-1447.5" font-family="Helvetica,sans-Serif" font-size="10.00">+</text>
<text text-anchor="start" x="151.5" y="-1447.5" font-family="Helvetica,sans-Serif" font-size="10.00">void warning(T &amp;&amp;...val)</text>
<text text-anchor="start" x="141.5" y="-1431.5" font-family="Helvetica,sans-Serif" font-size="10.00">+</text>
<text text-anchor="start" x="151.5" y="-1431.5" font-family="Helvetica,sans-Serif" font-size="10.00">void error(T &amp;&amp;...val)</text>
<text text-anchor="start" x="141.5" y="-1415.5" font-family="Helvetica,sans-Serif" font-size="10.00">+</text>
<text text-anchor="start" x="151.5" y="-1415.5" font-family="Helvetica,sans-Serif" font-size="10.00">void registerHandle</text>
<text text-anchor="start" x="151.5" y="-1403.5" font-family="Helvetica,sans-Serif" font-size="10.00">(Action action)</text>
<text text-anchor="start" x="141.5" y="-1387.5" font-family="Helvetica,sans-Serif" font-size="10.00">+</text>
<text text-anchor="start" x="151.5" y="-1387.5" font-family="Helvetica,sans-Serif" font-size="10.00">void setHandleState</text>
<text text-anchor="start" x="151.5" y="-1375.5" font-family="Helvetica,sans-Serif" font-size="10.00">(bool state)</text>
<text text-anchor="start" x="141.88" y="-1359.5" font-family="Helvetica,sans-Serif" font-size="10.00">#</text>
<text text-anchor="start" x="151.5" y="-1359.5" font-family="Helvetica,sans-Serif" font-size="10.00">virtual void log_interface</text>
<text text-anchor="start" x="151.5" y="-1347.5" font-family="Helvetica,sans-Serif" font-size="10.00">(const string &amp;log, int</text>
<text text-anchor="start" x="151.5" y="-1335.5" font-family="Helvetica,sans-Serif" font-size="10.00"> level)=0</text>
<text text-anchor="start" x="141.88" y="-1319.5" font-family="Helvetica,sans-Serif" font-size="10.00">#</text>
<text text-anchor="start" x="151.5" y="-1319.5" font-family="Helvetica,sans-Serif" font-size="10.00">void handler_trigger</text>
<text text-anchor="start" x="151.5" y="-1307.5" font-family="Helvetica,sans-Serif" font-size="10.00">(string log, int level)</text>
<text text-anchor="start" x="143" y="-1291.5" font-family="Helvetica,sans-Serif" font-size="10.00">&#45;</text>
<text text-anchor="start" x="151.5" y="-1291.5" font-family="Helvetica,sans-Serif" font-size="10.00">void create_loggerhandler()</text>
<text text-anchor="start" x="143" y="-1275.5" font-family="Helvetica,sans-Serif" font-size="10.00">&#45;</text>
<text text-anchor="start" x="151.5" y="-1275.5" font-family="Helvetica,sans-Serif" font-size="10.00">static std::string</text>
<text text-anchor="start" x="151.5" y="-1263.5" font-family="Helvetica,sans-Serif" font-size="10.00"> constructString()</text>
<text text-anchor="start" x="143" y="-1247.5" font-family="Helvetica,sans-Serif" font-size="10.00">&#45;</text>
<text text-anchor="start" x="151.5" y="-1247.5" font-family="Helvetica,sans-Serif" font-size="10.00">static std::string</text>
<text text-anchor="start" x="151.5" y="-1235.5" font-family="Helvetica,sans-Serif" font-size="10.00"> constructString(T &amp;&amp;val,</text>
<text text-anchor="start" x="151.5" y="-1223.5" font-family="Helvetica,sans-Serif" font-size="10.00"> T1 &amp;&amp;...val1)</text>
<text text-anchor="start" x="143" y="-1207.5" font-family="Helvetica,sans-Serif" font-size="10.00">&#45;</text>
<text text-anchor="start" x="151.5" y="-1207.5" font-family="Helvetica,sans-Serif" font-size="10.00">static std::string</text>
<text text-anchor="start" x="151.5" y="-1195.5" font-family="Helvetica,sans-Serif" font-size="10.00"> constructString(const</text>
<text text-anchor="start" x="151.5" y="-1183.5" font-family="Helvetica,sans-Serif" font-size="10.00"> std::string &amp;a, T &amp;&amp;...val1)</text>
<text text-anchor="start" x="143" y="-1167.5" font-family="Helvetica,sans-Serif" font-size="10.00">&#45;</text>
<text text-anchor="start" x="151.5" y="-1167.5" font-family="Helvetica,sans-Serif" font-size="10.00">static std::string</text>
<text text-anchor="start" x="151.5" y="-1155.5" font-family="Helvetica,sans-Serif" font-size="10.00"> constructString(const</text>
<text text-anchor="start" x="151.5" y="-1143.5" font-family="Helvetica,sans-Serif" font-size="10.00"> MiraiCodeable &amp;val, T</text>
<text text-anchor="start" x="151.5" y="-1131.5" font-family="Helvetica,sans-Serif" font-size="10.00"> &amp;&amp;...val1)</text>
<polygon fill="#666666" stroke="#666666" points="137.5,-1491 137.5,-1491 274.5,-1491 274.5,-1491 137.5,-1491"/>
<polygon fill="#666666" stroke="#666666" points="137.5,-1475 137.5,-1475 274.5,-1475 274.5,-1475 137.5,-1475"/>
<polygon fill="none" stroke="#666666" points="137.5,-1125 137.5,-1509 274.5,-1509 274.5,-1125 137.5,-1125"/>
</a>
</g>
</g>
<!-- Node8&#45;&gt;Node7 -->
<g id="edge7_Node000007_Node000008" class="edge">
<title>Node8&#45;&gt;Node7</title>
<g id="a_edge7_Node000007_Node000008"><a xlink:title=" ">
<path fill="none" stroke="#63b8ff" d="M206,-1114.07C206,-963.77 206,-769.58 206,-678.88"/>
<polygon fill="none" stroke="#63b8ff" points="202.5,-1113.75 206,-1123.75 209.5,-1113.75 202.5,-1113.75"/>
</a>
</g>
</g>
<!-- Node9 -->
<g id="Node000009" class="node">
<title>Node9</title>
<g id="a_Node000009"><a xlink:title=" ">
<polygon fill="white" stroke="none" points="256,-1909 156,-1909 156,-1833 256,-1833 256,-1909"/>
<text text-anchor="start" x="161" y="-1895.5" font-family="Helvetica,sans-Serif" font-size="10.00">shared_ptr&lt; MiraiCP</text>
<text text-anchor="start" x="161" y="-1883.5" font-family="Helvetica,sans-Serif" font-size="10.00">::Logger_interface::</text>
<text text-anchor="start" x="184.62" y="-1871.5" font-family="Helvetica,sans-Serif" font-size="10.00">Handler &gt;</text>
<text text-anchor="start" x="204.5" y="-1855.5" font-family="Helvetica,sans-Serif" font-size="10.00"> </text>
<text text-anchor="start" x="204.5" y="-1839.5" font-family="Helvetica,sans-Serif" font-size="10.00"> </text>
<polygon fill="#666666" stroke="#666666" points="156,-1867 156,-1867 256,-1867 256,-1867 156,-1867"/>
<polygon fill="#666666" stroke="#666666" points="156,-1851 156,-1851 256,-1851 256,-1851 156,-1851"/>
<polygon fill="none" stroke="#666666" points="156,-1833 156,-1909 256,-1909 256,-1833 156,-1833"/>
</a>
</g>
</g>
<!-- Node9&#45;&gt;Node8 -->
<g id="edge8_Node000008_Node000009" class="edge">
<title>Node9&#45;&gt;Node8</title>
<g id="a_edge8_Node000008_Node000009"><a xlink:title=" ">
<path fill="none" stroke="#63b8ff" d="M206,-1833.35C206,-1770.28 206,-1636.87 206,-1521.59"/>
<polygon fill="none" stroke="#63b8ff" points="206,-1521.6 202,-1515.6 206,-1509.6 210,-1515.6 206,-1521.6"/>
</a>
</g>
<text text-anchor="middle" x="239.38" y="-1805.5" font-family="Helvetica,sans-Serif" font-size="10.00" fill="grey"> +loggerhandler</text>
</g>
<!-- Node10 -->
<g id="Node000010" class="node">
<title>Node10</title>
<g id="a_Node000010"><a xlink:title=" ">
<polygon fill="white" stroke="none" points="119.5,-1343 28.5,-1343 28.5,-1291 119.5,-1291 119.5,-1343"/>
<text text-anchor="start" x="33.5" y="-1329.5" font-family="Helvetica,sans-Serif" font-size="10.00">unsigned long long</text>
<text text-anchor="start" x="72.5" y="-1313.5" font-family="Helvetica,sans-Serif" font-size="10.00"> </text>
<text text-anchor="start" x="72.5" y="-1297.5" font-family="Helvetica,sans-Serif" font-size="10.00"> </text>
<polygon fill="#666666" stroke="#666666" points="28.5,-1325 28.5,-1325 119.5,-1325 119.5,-1325 28.5,-1325"/>
<polygon fill="#666666" stroke="#666666" points="28.5,-1309 28.5,-1309 119.5,-1309 119.5,-1309 28.5,-1309"/>
<polygon fill="none" stroke="#666666" points="28.5,-1291 28.5,-1343 119.5,-1343 119.5,-1291 28.5,-1291"/>
</a>
</g>
</g>
<!-- Node10&#45;&gt;Node7 -->
<g id="edge9_Node000007_Node000010" class="edge">
<title>Node10&#45;&gt;Node7</title>
<g id="a_edge9_Node000007_Node000010"><a xlink:title=" ">
<path fill="none" stroke="#63b8ff" d="M74.92,-1291.11C77.93,-1220.8 89.62,-1015 128,-849 140.65,-794.28 162.33,-734.33 179.63,-690.69"/>
<polygon fill="none" stroke="#63b8ff" points="179.58,-690.8 178.1,-683.75 184.05,-679.66 185.53,-686.72 179.58,-690.8"/>
</a>
</g>
<text text-anchor="middle" x="143.25" y="-821.5" font-family="Helvetica,sans-Serif" font-size="10.00" fill="grey"> +id</text>
</g>
<!-- Node11&#45;&gt;Node2 -->
<g id="edge10_Node000002_Node000011" class="edge">
<title>Node11&#45;&gt;Node2</title>
<g id="a_edge10_Node000002_Node000011"><a xlink:title=" ">
<path fill="none" stroke="orange" d="M167.44,-286.03C168.4,-279.52 169.79,-273.07 171.75,-267 173.71,-260.92 176.28,-254.86 179.23,-248.97"/>
<polygon fill="orange" stroke="orange" points="164.01,-285.17 166.36,-295.5 170.97,-285.96 164.01,-285.17"/>
</a>
</g>
<text text-anchor="middle" x="216.62" y="-269.5" font-family="Helvetica,sans-Serif" font-size="10.00" fill="grey"> &lt; BotOnlineEvent &gt;</text>
</g>
</g>
</svg>
