<?xml version="1.0" encoding="UTF-8" standalone="no"?>
<!DOCTYPE svg PUBLIC "-//W3C//DTD SVG 1.1//EN"
 "http://www.w3.org/Graphics/SVG/1.1/DTD/svg11.dtd">
<!-- Generated by graphviz version 9.0.0 (0)
 -->
<!-- Title: LibLoader::Scheduler::popSchedule Pages: 1 -->
<svg width="1494pt" height="266pt"
 viewBox="0.00 0.00 1494.00 266.00" xmlns="http://www.w3.org/2000/svg" xmlns:xlink="http://www.w3.org/1999/xlink">
<g id="graph0" class="graph" transform="scale(1 1) rotate(0) translate(4 262)">
<title>LibLoader::Scheduler::popSchedule</title>
<!-- Node1 -->
<g id="Node000001" class="node">
<title>Node1</title>
<g id="a_Node000001"><a xlink:title="libLoader线程tick调用，弹出所有计时器">
<polygon fill="#999999" stroke="#666666" points="107.5,-120 0,-120 0,-88 107.5,-88 107.5,-120"/>
<text text-anchor="start" x="8" y="-106.5" font-family="Helvetica,sans-Serif" font-size="10.00">LibLoader::Scheduler</text>
<text text-anchor="middle" x="53.75" y="-94.5" font-family="Helvetica,sans-Serif" font-size="10.00">::popSchedule</text>
</a>
</g>
</g>
<!-- Node2 -->
<g id="Node000002" class="node">
<title>Node2</title>
<g id="a_Node000002"><a xlink:href="a00432.html#a2a051ec6e252e58cfd4d54158c5ef0bb" target="_top" xlink:title=" ">
<polygon fill="white" stroke="#666666" points="263,-170 143.5,-170 143.5,-138 263,-138 263,-170"/>
<text text-anchor="start" x="151.5" y="-156.5" font-family="Helvetica,sans-Serif" font-size="10.00">LibLoader::Scheduler</text>
<text text-anchor="middle" x="203.25" y="-144.5" font-family="Helvetica,sans-Serif" font-size="10.00">::checkValidTimeStamp</text>
</a>
</g>
</g>
<!-- Node1&#45;&gt;Node2 -->
<g id="edge1_Node000001_Node000002" class="edge">
<title>Node1&#45;&gt;Node2</title>
<g id="a_edge1_Node000001_Node000002"><a xlink:title=" ">
<path fill="none" stroke="#63b8ff" d="M103.05,-120.37C115.72,-124.67 129.53,-129.35 142.71,-133.82"/>
<polygon fill="#63b8ff" stroke="#63b8ff" points="141.56,-137.12 152.16,-137.02 143.81,-130.49 141.56,-137.12"/>
</a>
</g>
</g>
<!-- Node5 -->
<g id="Node000005" class="node">
<title>Node5</title>
<g id="a_Node000005"><a xlink:href="a00872.html#ae735f16b20f681d29d4e5d28ad248dbe" target="_top" xlink:title=" ">
<polygon fill="white" stroke="#666666" points="616.75,-120 494.25,-120 494.25,-88 616.75,-88 616.75,-120"/>
<text text-anchor="start" x="502.25" y="-106.5" font-family="Helvetica,sans-Serif" font-size="10.00">LibLoader::LoaderLogger</text>
<text text-anchor="middle" x="555.5" y="-94.5" font-family="Helvetica,sans-Serif" font-size="10.00">::error</text>
</a>
</g>
</g>
<!-- Node1&#45;&gt;Node5 -->
<g id="edge4_Node000001_Node000005" class="edge">
<title>Node1&#45;&gt;Node5</title>
<g id="a_edge4_Node000001_Node000005"><a xlink:title=" ">
<path fill="none" stroke="#63b8ff" d="M104,-87.54C116.72,-84.01 130.5,-80.8 143.5,-79 282.07,-59.86 319.49,-61.27 458.25,-79 468.67,-80.33 479.58,-82.44 490.15,-84.89"/>
<polygon fill="#63b8ff" stroke="#63b8ff" points="489,-88.21 499.54,-87.18 490.66,-81.41 489,-88.21"/>
</a>
</g>
</g>
<!-- Node13 -->
<g id="Node000013" class="node">
<title>Node13</title>
<g id="a_Node000013"><a xlink:href="a00844.html#aa78df717d01813327f31b3cc2b8b0efb" target="_top" xlink:title=" ">
<polygon fill="white" stroke="#666666" points="458.25,-258 299,-258 299,-226 458.25,-226 458.25,-258"/>
<text text-anchor="start" x="307" y="-244.5" font-family="Helvetica,sans-Serif" font-size="10.00">LibLoader::LoaderBaseException</text>
<text text-anchor="middle" x="378.62" y="-232.5" font-family="Helvetica,sans-Serif" font-size="10.00">::raise</text>
</a>
</g>
</g>
<!-- Node1&#45;&gt;Node13 -->
<g id="edge14_Node000001_Node000013" class="edge">
<title>Node1&#45;&gt;Node13</title>
<g id="a_edge14_Node000001_Node000013"><a xlink:title=" ">
<path fill="none" stroke="#63b8ff" d="M69.84,-120.46C86.35,-137.51 114.37,-163.75 143.5,-179 188.19,-202.39 242.35,-217.69 287.32,-227.35"/>
<polygon fill="#63b8ff" stroke="#63b8ff" points="286.55,-230.76 297.06,-229.37 287.98,-223.91 286.55,-230.76"/>
</a>
</g>
</g>
<!-- Node14 -->
<g id="Node000014" class="node">
<title>Node14</title>
<g id="a_Node000014"><a xlink:href="a00432.html#ac881189d7d1fb1cc7c41315fef6f46ad" target="_top" xlink:title=" ">
<polygon fill="white" stroke="#666666" points="257,-120 149.5,-120 149.5,-88 257,-88 257,-120"/>
<text text-anchor="start" x="157.5" y="-106.5" font-family="Helvetica,sans-Serif" font-size="10.00">LibLoader::Scheduler</text>
<text text-anchor="middle" x="203.25" y="-94.5" font-family="Helvetica,sans-Serif" font-size="10.00">::sendTimeoutEvent</text>
</a>
</g>
</g>
<!-- Node1&#45;&gt;Node14 -->
<g id="edge16_Node000001_Node000014" class="edge">
<title>Node1&#45;&gt;Node14</title>
<g id="a_edge16_Node000001_Node000014"><a xlink:title=" ">
<path fill="none" stroke="#63b8ff" d="M107.58,-104C117.43,-104 127.83,-104 137.98,-104"/>
<polygon fill="#63b8ff" stroke="#63b8ff" points="137.78,-107.5 147.78,-104 137.78,-100.5 137.78,-107.5"/>
</a>
</g>
</g>
<!-- Node16 -->
<g id="Node000016" class="node">
<title>Node16</title>
<g id="a_Node000016"><a xlink:href="a00432.html#a2d56b79ef43f183c0fc95d733f81906b" target="_top" xlink:title="获取schduler是否空">
<polygon fill="white" stroke="#666666" points="257,-32 149.5,-32 149.5,0 257,0 257,-32"/>
<text text-anchor="start" x="157.5" y="-18.5" font-family="Helvetica,sans-Serif" font-size="10.00">LibLoader::Scheduler</text>
<text text-anchor="middle" x="203.25" y="-6.5" font-family="Helvetica,sans-Serif" font-size="10.00">::timeup</text>
</a>
</g>
</g>
<!-- Node1&#45;&gt;Node16 -->
<g id="edge20_Node000001_Node000016" class="edge">
<title>Node1&#45;&gt;Node16</title>
<g id="a_edge20_Node000001_Node000016"><a xlink:title=" ">
<path fill="none" stroke="#63b8ff" d="M78.42,-87.54C96.06,-75.52 120.89,-59.11 143.5,-46 148.39,-43.16 153.58,-40.31 158.77,-37.54"/>
<polygon fill="#63b8ff" stroke="#63b8ff" points="160.09,-40.8 167.33,-33.07 156.85,-34.6 160.09,-40.8"/>
</a>
</g>
</g>
<!-- Node3 -->
<g id="Node000003" class="node">
<title>Node3</title>
<g id="a_Node000003"><a xlink:href="a00928.html#a39ce5601eee168a69cab158349412c3e" target="_top" xlink:title=" ">
<polygon fill="white" stroke="#666666" points="453.75,-158 303.5,-158 303.5,-138 453.75,-138 453.75,-158"/>
<text text-anchor="middle" x="378.62" y="-144.5" font-family="Helvetica,sans-Serif" font-size="10.00">LibLoader::PluginManager::Get</text>
</a>
</g>
</g>
<!-- Node2&#45;&gt;Node3 -->
<g id="edge2_Node000002_Node000003" class="edge">
<title>Node2&#45;&gt;Node3</title>
<g id="a_edge2_Node000002_Node000003"><a xlink:title=" ">
<path fill="none" stroke="#63b8ff" d="M263.43,-151.95C272.6,-151.63 282.22,-151.3 291.83,-150.97"/>
<polygon fill="#63b8ff" stroke="#63b8ff" points="291.69,-154.48 301.56,-150.63 291.45,-147.48 291.69,-154.48"/>
</a>
</g>
</g>
<!-- Node4 -->
<g id="Node000004" class="node">
<title>Node4</title>
<g id="a_Node000004"><a xlink:href="a00928.html#aea5e7ea605252c991a93e0bf53f04997" target="_top" xlink:title=" ">
<polygon fill="white" stroke="#666666" points="442.88,-208 314.38,-208 314.38,-176 442.88,-176 442.88,-208"/>
<text text-anchor="start" x="322.38" y="-194.5" font-family="Helvetica,sans-Serif" font-size="10.00">LibLoader::PluginManager</text>
<text text-anchor="middle" x="378.62" y="-182.5" font-family="Helvetica,sans-Serif" font-size="10.00">::getPluginTimeStamp</text>
</a>
</g>
</g>
<!-- Node2&#45;&gt;Node4 -->
<g id="edge3_Node000002_Node000004" class="edge">
<title>Node2&#45;&gt;Node4</title>
<g id="a_edge3_Node000002_Node000004"><a xlink:title=" ">
<path fill="none" stroke="#63b8ff" d="M263.43,-166.97C276.15,-169.76 289.76,-172.74 302.98,-175.64"/>
<polygon fill="#63b8ff" stroke="#63b8ff" points="301.97,-179 312.49,-177.72 303.47,-172.16 301.97,-179"/>
</a>
</g>
</g>
<!-- Node6 -->
<g id="Node000006" class="node">
<title>Node6</title>
<g id="a_Node000006"><a xlink:href="a00872.html#af4d7d5164450e25f7401d1cc15f15b8d" target="_top" xlink:title="实际暴露的接口">
<polygon fill="white" stroke="#666666" points="775.25,-120 652.75,-120 652.75,-88 775.25,-88 775.25,-120"/>
<text text-anchor="start" x="660.75" y="-106.5" font-family="Helvetica,sans-Serif" font-size="10.00">LibLoader::LoaderLogger</text>
<text text-anchor="middle" x="714" y="-94.5" font-family="Helvetica,sans-Serif" font-size="10.00">::call_logger</text>
</a>
</g>
</g>
<!-- Node5&#45;&gt;Node6 -->
<g id="edge5_Node000005_Node000006" class="edge">
<title>Node5&#45;&gt;Node6</title>
<g id="a_edge5_Node000005_Node000006"><a xlink:title=" ">
<path fill="none" stroke="#63b8ff" d="M617.01,-104C624.9,-104 633.05,-104 641.1,-104"/>
<polygon fill="#63b8ff" stroke="#63b8ff" points="640.88,-107.5 650.88,-104 640.88,-100.5 640.88,-107.5"/>
</a>
</g>
</g>
<!-- Node7 -->
<g id="Node000007" class="node">
<title>Node7</title>
<g id="a_Node000007"><a xlink:href="a00430.html#a076c5f4ff8083c7cfc6523498d0ba30f" target="_top" xlink:title=" ">
<polygon fill="white" stroke="#666666" points="1066.38,-151 964.12,-151 964.12,-119 1066.38,-119 1066.38,-151"/>
<text text-anchor="start" x="972.12" y="-137.5" font-family="Helvetica,sans-Serif" font-size="10.00">LibLoader::JNIEnvs</text>
<text text-anchor="middle" x="1015.25" y="-125.5" font-family="Helvetica,sans-Serif" font-size="10.00">::getEnv</text>
</a>
</g>
</g>
<!-- Node6&#45;&gt;Node7 -->
<g id="edge6_Node000006_Node000007" class="edge">
<title>Node6&#45;&gt;Node7</title>
<g id="a_edge6_Node000006_Node000007"><a xlink:title=" ">
<path fill="none" stroke="#63b8ff" d="M775.64,-117.27C787.41,-119.48 799.68,-121.52 811.25,-123 858.52,-129.03 912.39,-132.04 952.75,-133.54"/>
<polygon fill="#63b8ff" stroke="#63b8ff" points="952.39,-137.03 962.51,-133.88 952.63,-130.03 952.39,-137.03"/>
</a>
</g>
</g>
<!-- Node11 -->
<g id="Node000011" class="node">
<title>Node11</title>
<g id="a_Node000011"><a xlink:href="a00425.html#a6a6fcd695791253a9b3a053d313b2b93" target="_top" xlink:title=" ">
<polygon fill="white" stroke="#666666" points="918,-114 811.25,-114 811.25,-94 918,-94 918,-114"/>
<text text-anchor="middle" x="864.62" y="-100.5" font-family="Helvetica,sans-Serif" font-size="10.00">LibLoader::str2jstring</text>
</a>
</g>
</g>
<!-- Node6&#45;&gt;Node11 -->
<g id="edge10_Node000006_Node000011" class="edge">
<title>Node6&#45;&gt;Node11</title>
<g id="a_edge10_Node000006_Node000011"><a xlink:title=" ">
<path fill="none" stroke="#63b8ff" d="M775.45,-104C783.33,-104 791.43,-104 799.38,-104"/>
<polygon fill="#63b8ff" stroke="#63b8ff" points="799.35,-107.5 809.35,-104 799.35,-100.5 799.35,-107.5"/>
</a>
</g>
</g>
<!-- Node8 -->
<g id="Node000008" class="node">
<title>Node8</title>
<g id="a_Node000008"><a xlink:href="a00840.html#aea7d58ff9f04d6d4849c25a2506603a5" target="_top" xlink:title="取env,如果不存在重新获取">
<polygon fill="white" stroke="#666666" points="1235.75,-145 1112.5,-145 1112.5,-125 1235.75,-125 1235.75,-145"/>
<text text-anchor="middle" x="1174.12" y="-131.5" font-family="Helvetica,sans-Serif" font-size="10.00">JNIEnvManager::getEnv</text>
</a>
</g>
</g>
<!-- Node7&#45;&gt;Node8 -->
<g id="edge7_Node000007_Node000008" class="edge">
<title>Node7&#45;&gt;Node8</title>
<g id="a_edge7_Node000007_Node000008"><a xlink:title=" ">
<path fill="none" stroke="#63b8ff" d="M1066.75,-135C1077.57,-135 1089.2,-135 1100.66,-135"/>
<polygon fill="#63b8ff" stroke="#63b8ff" points="1100.51,-138.5 1110.51,-135 1100.51,-131.5 1100.51,-138.5"/>
</a>
</g>
</g>
<!-- Node9 -->
<g id="Node000009" class="node">
<title>Node9</title>
<g id="a_Node000009"><a xlink:href="a00260.html#a3d31403b7971274d47d308245206bd24" target="_top" xlink:title="为当前线程创建一个env.">
<polygon fill="white" stroke="#666666" points="1323,-145 1271.75,-145 1271.75,-125 1323,-125 1323,-145"/>
<text text-anchor="middle" x="1297.38" y="-131.5" font-family="Helvetica,sans-Serif" font-size="10.00">newEnv</text>
</a>
</g>
</g>
<!-- Node8&#45;&gt;Node9 -->
<g id="edge8_Node000008_Node000009" class="edge">
<title>Node8&#45;&gt;Node9</title>
<g id="a_edge8_Node000008_Node000009"><a xlink:title=" ">
<path fill="none" stroke="#63b8ff" d="M1236.11,-135C1244.31,-135 1252.51,-135 1260.09,-135"/>
<polygon fill="#63b8ff" stroke="#63b8ff" points="1259.91,-138.5 1269.91,-135 1259.91,-131.5 1259.91,-138.5"/>
</a>
</g>
</g>
<!-- Node10 -->
<g id="Node000010" class="node">
<title>Node10</title>
<g id="a_Node000010"><a xlink:href="a00840.html#ae0e482c6a813848a8f5d34957d1b6307" target="_top" xlink:title="获取全局JavaVM对象.">
<polygon fill="white" stroke="#666666" points="1486,-145 1359,-145 1359,-125 1486,-125 1486,-145"/>
<text text-anchor="middle" x="1422.5" y="-131.5" font-family="Helvetica,sans-Serif" font-size="10.00">JNIEnvManager::getGvm</text>
</a>
</g>
</g>
<!-- Node9&#45;&gt;Node10 -->
<g id="edge9_Node000009_Node000010" class="edge">
<title>Node9&#45;&gt;Node10</title>
<g id="a_edge9_Node000009_Node000010"><a xlink:title=" ">
<path fill="none" stroke="#63b8ff" d="M1323.29,-135C1330.47,-135 1338.7,-135 1347.27,-135"/>
<polygon fill="#63b8ff" stroke="#63b8ff" points="1347.16,-138.5 1357.16,-135 1347.16,-131.5 1347.16,-138.5"/>
</a>
</g>
</g>
<!-- Node11&#45;&gt;Node7 -->
<g id="edge11_Node000011_Node000007" class="edge">
<title>Node11&#45;&gt;Node7</title>
<g id="a_edge11_Node000011_Node000007"><a xlink:title=" ">
<path fill="none" stroke="#63b8ff" d="M915.94,-114.5C927.74,-116.96 940.44,-119.61 952.67,-122.16"/>
<polygon fill="#63b8ff" stroke="#63b8ff" points="951.75,-125.54 962.25,-124.15 953.18,-118.69 951.75,-125.54"/>
</a>
</g>
</g>
<!-- Node12 -->
<g id="Node000012" class="node">
<title>Node12</title>
<g id="a_Node000012"><a xlink:href="a00872.html#af50d0545fe7d683e54fcd03453a423e3" target="_top" xlink:title=" ">
<polygon fill="white" stroke="#666666" points="1076.5,-95 954,-95 954,-63 1076.5,-63 1076.5,-95"/>
<text text-anchor="start" x="962" y="-81.5" font-family="Helvetica,sans-Serif" font-size="10.00">LibLoader::LoaderLogger</text>
<text text-anchor="middle" x="1015.25" y="-69.5" font-family="Helvetica,sans-Serif" font-size="10.00">::warning</text>
</a>
</g>
</g>
<!-- Node11&#45;&gt;Node12 -->
<g id="edge12_Node000011_Node000012" class="edge">
<title>Node11&#45;&gt;Node12</title>
<g id="a_edge12_Node000011_Node000012"><a xlink:title=" ">
<path fill="none" stroke="#63b8ff" d="M918.44,-95.12C926.21,-93.81 934.32,-92.44 942.4,-91.09"/>
<polygon fill="#63b8ff" stroke="#63b8ff" points="942.97,-94.54 952.25,-89.43 941.81,-87.64 942.97,-94.54"/>
</a>
</g>
</g>
<!-- Node12&#45;&gt;Node6 -->
<g id="edge13_Node000012_Node000006" class="edge">
<title>Node12&#45;&gt;Node6</title>
<g id="a_edge13_Node000012_Node000006"><a xlink:title=" ">
<path fill="none" stroke="#63b8ff" d="M953.66,-78.18C913.21,-78.27 858.9,-79.63 811.25,-85 803.28,-85.9 794.98,-87.11 786.75,-88.49"/>
<polygon fill="#63b8ff" stroke="#63b8ff" points="786.33,-85.01 777.1,-90.19 787.55,-91.9 786.33,-85.01"/>
</a>
</g>
</g>
<!-- Node13&#45;&gt;Node5 -->
<g id="edge15_Node000013_Node000005" class="edge">
<title>Node13&#45;&gt;Node5</title>
<g id="a_edge15_Node000013_Node000005"><a xlink:title=" ">
<path fill="none" stroke="#63b8ff" d="M442.5,-225.6C448.02,-223.1 453.36,-220.25 458.25,-217 492.73,-194.08 521.85,-155.42 538.75,-129.8"/>
<polygon fill="#63b8ff" stroke="#63b8ff" points="541.53,-131.94 544,-121.63 535.65,-128.15 541.53,-131.94"/>
</a>
</g>
</g>
<!-- Node14&#45;&gt;Node3 -->
<g id="edge19_Node000014_Node000003" class="edge">
<title>Node14&#45;&gt;Node3</title>
<g id="a_edge19_Node000014_Node000003"><a xlink:title=" ">
<path fill="none" stroke="#63b8ff" d="M257.32,-118.21C270.89,-121.79 285.47,-125.58 299,-129 306.59,-130.92 314.6,-132.9 322.49,-134.83"/>
<polygon fill="#63b8ff" stroke="#63b8ff" points="321.49,-138.19 332.04,-137.15 323.15,-131.39 321.49,-138.19"/>
</a>
</g>
</g>
<!-- Node15 -->
<g id="Node000015" class="node">
<title>Node15</title>
<g id="a_Node000015"><a xlink:href="a00928.html#abb57ceb14ca7e0dba3f145b23eb3717c" target="_top" xlink:title=" ">
<polygon fill="white" stroke="#666666" points="442.88,-120 314.38,-120 314.38,-88 442.88,-88 442.88,-120"/>
<text text-anchor="start" x="322.38" y="-106.5" font-family="Helvetica,sans-Serif" font-size="10.00">LibLoader::PluginManager</text>
<text text-anchor="middle" x="378.62" y="-94.5" font-family="Helvetica,sans-Serif" font-size="10.00">::broadcastToOnePlugin</text>
</a>
</g>
</g>
<!-- Node14&#45;&gt;Node15 -->
<g id="edge17_Node000014_Node000015" class="edge">
<title>Node14&#45;&gt;Node15</title>
<g id="a_edge17_Node000014_Node000015"><a xlink:title=" ">
<path fill="none" stroke="#63b8ff" d="M257.21,-104C271.63,-104 287.53,-104 302.92,-104"/>
<polygon fill="#63b8ff" stroke="#63b8ff" points="302.49,-107.5 312.49,-104 302.49,-100.5 302.49,-107.5"/>
</a>
</g>
</g>
<!-- Node15&#45;&gt;Node5 -->
<g id="edge18_Node000015_Node000005" class="edge">
<title>Node15&#45;&gt;Node5</title>
<g id="a_edge18_Node000015_Node000005"><a xlink:title=" ">
<path fill="none" stroke="#63b8ff" d="M443.25,-104C456.02,-104 469.52,-104 482.54,-104"/>
<polygon fill="#63b8ff" stroke="#63b8ff" points="482.32,-107.5 492.32,-104 482.32,-100.5 482.32,-107.5"/>
</a>
</g>
</g>
</g>
</svg>
