<?xml version="1.0" encoding="UTF-8" standalone="no"?>
<!DOCTYPE svg PUBLIC "-//W3C//DTD SVG 1.1//EN"
 "http://www.w3.org/Graphics/SVG/1.1/DTD/svg11.dtd">
<!-- Generated by graphviz version 2.50.0 (20211204.2007)
 -->
<!-- Title: MiraiCP::Contact::unpackMsg Pages: 1 -->
<svg width="1979pt" height="467pt"
 viewBox="0.00 0.00 1979.00 466.50" xmlns="http://www.w3.org/2000/svg" xmlns:xlink="http://www.w3.org/1999/xlink">
<g id="graph0" class="graph" transform="scale(1 1) rotate(0) translate(4 462.5)">
<title>MiraiCP::Contact::unpackMsg</title>
<polygon fill="white" stroke="transparent" points="-4,4 -4,-462.5 1975,-462.5 1975,4 -4,4"/>
<!-- Node1 -->
<g id="node1" class="node">
<title>Node1</title>
<g id="a_node1"><a xlink:title=" ">
<polygon fill="#bfbfbf" stroke="black" points="0,-140.5 0,-159.5 147,-159.5 147,-140.5 0,-140.5"/>
<text text-anchor="middle" x="73.5" y="-147.5" font-family="Helvetica,sans-Serif" font-size="10.00">MiraiCP::Contact::unpackMsg</text>
</a>
</g>
</g>
<!-- Node2 -->
<g id="node2" class="node">
<title>Node2</title>
<g id="a_node2"><a xlink:href="a00636.html#a682d6d47c049ff53477d495a8ec3a97c" target="_top" xlink:title="从miraicode string构建MessageChain">
<polygon fill="white" stroke="black" points="185,-233 185,-263 336,-263 336,-233 185,-233"/>
<text text-anchor="start" x="193" y="-251" font-family="Helvetica,sans-Serif" font-size="10.00">MiraiCP::MessageChain</text>
<text text-anchor="middle" x="260.5" y="-240" font-family="Helvetica,sans-Serif" font-size="10.00">::deserializationFromMiraiCode</text>
</a>
</g>
</g>
<!-- Node1&#45;&gt;Node2 -->
<g id="edge1" class="edge">
<title>Node1&#45;&gt;Node2</title>
<path fill="none" stroke="midnightblue" d="M92.58,-159.58C122.46,-175.4 182.75,-207.35 222.11,-228.19"/>
<polygon fill="midnightblue" stroke="midnightblue" points="220.67,-231.39 231.14,-232.98 223.95,-225.2 220.67,-231.39"/>
</g>
<!-- Node28 -->
<g id="node28" class="node">
<title>Node28</title>
<g id="a_node28"><a xlink:href="a00448.html#aa448a5ef12e3572c0cf751a3f37f7519" target="_top" xlink:title=" ">
<polygon fill="white" stroke="black" points="183,-162.5 183,-181.5 338,-181.5 338,-162.5 183,-162.5"/>
<text text-anchor="middle" x="260.5" y="-169.5" font-family="Helvetica,sans-Serif" font-size="10.00">MiraiCP::Contact::sendMsgImpl</text>
</a>
</g>
</g>
<!-- Node1&#45;&gt;Node28 -->
<g id="edge35" class="edge">
<title>Node1&#45;&gt;Node28</title>
<path fill="none" stroke="midnightblue" d="M147.09,-158.63C155.53,-159.64 164.2,-160.67 172.8,-161.69"/>
<polygon fill="midnightblue" stroke="midnightblue" points="172.51,-165.18 182.86,-162.89 173.34,-158.23 172.51,-165.18"/>
</g>
<!-- Node31 -->
<g id="node31" class="node">
<title>Node31</title>
<g id="a_node31"><a xlink:href="a00644.html#a96bdd3af5e564960b2b7f562032b1a15" target="_top" xlink:title="返回MiraiCode">
<polygon fill="white" stroke="black" points="201,-113 201,-143 320,-143 320,-113 201,-113"/>
<text text-anchor="start" x="209" y="-131" font-family="Helvetica,sans-Serif" font-size="10.00">MiraiCP::MiraiCodeable</text>
<text text-anchor="middle" x="260.5" y="-120" font-family="Helvetica,sans-Serif" font-size="10.00">::toMiraiCode</text>
</a>
</g>
</g>
<!-- Node1&#45;&gt;Node31 -->
<g id="edge40" class="edge">
<title>Node1&#45;&gt;Node31</title>
<path fill="none" stroke="midnightblue" d="M147.09,-141.37C161.42,-139.66 176.43,-137.88 190.64,-136.19"/>
<polygon fill="midnightblue" stroke="midnightblue" points="191.31,-139.63 200.82,-134.98 190.48,-132.68 191.31,-139.63"/>
</g>
<!-- Node32 -->
<g id="node32" class="node">
<title>Node32</title>
<g id="a_node32"><a xlink:href="a00636.html#a281c3d583cd554e89ad2aa2286435bca" target="_top" xlink:title=" ">
<polygon fill="white" stroke="black" points="199.5,-64 199.5,-94 321.5,-94 321.5,-64 199.5,-64"/>
<text text-anchor="start" x="207.5" y="-82" font-family="Helvetica,sans-Serif" font-size="10.00">MiraiCP::MessageChain</text>
<text text-anchor="middle" x="260.5" y="-71" font-family="Helvetica,sans-Serif" font-size="10.00">::toString</text>
</a>
</g>
</g>
<!-- Node1&#45;&gt;Node32 -->
<g id="edge41" class="edge">
<title>Node1&#45;&gt;Node32</title>
<path fill="none" stroke="midnightblue" d="M95.04,-140.34C116.66,-130.34 151.83,-114.6 183,-103 188.22,-101.06 193.67,-99.14 199.16,-97.28"/>
<polygon fill="midnightblue" stroke="midnightblue" points="200.65,-100.47 209.04,-94.01 198.45,-93.83 200.65,-100.47"/>
</g>
<!-- Node3 -->
<g id="node3" class="node">
<title>Node3</title>
<g id="a_node3"><a xlink:href="a00636.html#ad76190cce563a29637e62105e7db52d9" target="_top" xlink:title=" ">
<polygon fill="white" stroke="black" points="374,-286 374,-316 541,-316 541,-286 374,-286"/>
<text text-anchor="start" x="382" y="-304" font-family="Helvetica,sans-Serif" font-size="10.00">MiraiCP::MessageChain</text>
<text text-anchor="middle" x="457.5" y="-293" font-family="Helvetica,sans-Serif" font-size="10.00">::deserializationFromMessageJson</text>
</a>
</g>
</g>
<!-- Node2&#45;&gt;Node3 -->
<g id="edge2" class="edge">
<title>Node2&#45;&gt;Node3</title>
<path fill="none" stroke="midnightblue" d="M316.86,-263.05C340.02,-269.34 367.1,-276.7 391.22,-283.26"/>
<polygon fill="midnightblue" stroke="midnightblue" points="390.44,-286.67 401,-285.92 392.27,-279.92 390.44,-286.67"/>
</g>
<!-- Node17 -->
<g id="node17" class="node">
<title>Node17</title>
<g id="a_node17"><a xlink:href="a00415.html#a1e1e498928eeaa1d7107033ff5fa881a" target="_top" xlink:title="调用 Mirai 操作">
<polygon fill="white" stroke="black" points="606,-113 606,-143 715,-143 715,-113 606,-113"/>
<text text-anchor="start" x="614" y="-131" font-family="Helvetica,sans-Serif" font-size="10.00">MiraiCP::KtOperation</text>
<text text-anchor="middle" x="660.5" y="-120" font-family="Helvetica,sans-Serif" font-size="10.00">::ktOperationStr</text>
</a>
</g>
</g>
<!-- Node2&#45;&gt;Node17 -->
<g id="edge20" class="edge">
<title>Node2&#45;&gt;Node17</title>
<path fill="none" stroke="midnightblue" d="M336.05,-238.75C393.28,-230.24 473.65,-215.2 541,-191 571.59,-180.01 604.02,-162.29 627.21,-148.44"/>
<polygon fill="midnightblue" stroke="midnightblue" points="629.19,-151.33 635.93,-143.16 625.56,-145.35 629.19,-151.33"/>
</g>
<!-- Node4 -->
<g id="node4" class="node">
<title>Node4</title>
<g id="a_node4"><a xlink:href="a00636.html#a784cfbcfd8efea6f6c5a2a3b9131bb1f" target="_top" xlink:title="使用emplace_back构造Message添加元素">
<polygon fill="white" stroke="black" points="589,-402.5 589,-421.5 732,-421.5 732,-402.5 589,-402.5"/>
<text text-anchor="middle" x="660.5" y="-409.5" font-family="Helvetica,sans-Serif" font-size="10.00">MiraiCP::MessageChain::add</text>
</a>
</g>
</g>
<!-- Node3&#45;&gt;Node4 -->
<g id="edge3" class="edge">
<title>Node3&#45;&gt;Node4</title>
<path fill="none" stroke="midnightblue" d="M473.49,-316.23C494.65,-336.82 535.36,-373.23 577,-393 582.06,-395.4 587.45,-397.51 592.94,-399.36"/>
<polygon fill="midnightblue" stroke="midnightblue" points="592.33,-402.83 602.92,-402.42 594.38,-396.14 592.33,-402.83"/>
</g>
<!-- Node5 -->
<g id="node5" class="node">
<title>Node5</title>
<g id="a_node5"><a xlink:href="a00584.html#ac802edcd83cf04abe4cc602c901a933f" target="_top" xlink:title=" ">
<polygon fill="white" stroke="black" points="577,-335 577,-365 744,-365 744,-335 577,-335"/>
<text text-anchor="start" x="585" y="-353" font-family="Helvetica,sans-Serif" font-size="10.00">MiraiCP::ForwardedMessage</text>
<text text-anchor="middle" x="660.5" y="-342" font-family="Helvetica,sans-Serif" font-size="10.00">::deserializationFromMessageJson</text>
</a>
</g>
</g>
<!-- Node3&#45;&gt;Node5 -->
<g id="edge4" class="edge">
<title>Node3&#45;&gt;Node5</title>
<path fill="none" stroke="midnightblue" d="M541.12,-314.49C564.67,-319.97 589.56,-326.29 610.41,-332.14"/>
<polygon fill="midnightblue" stroke="midnightblue" points="609.73,-335.58 620.3,-334.96 611.65,-328.85 609.73,-335.58"/>
</g>
<!-- Node9 -->
<g id="node9" class="node">
<title>Node9</title>
<g id="a_node9"><a xlink:href="a00640.html#a1f98db6bbdf6b7d178bf92f55fd2e4dc" target="_top" xlink:title="从json字符串反序列化到MessageSource对象">
<polygon fill="white" stroke="black" points="596.5,-195 596.5,-225 724.5,-225 724.5,-195 596.5,-195"/>
<text text-anchor="start" x="604.5" y="-213" font-family="Helvetica,sans-Serif" font-size="10.00">MiraiCP::MessageSource</text>
<text text-anchor="middle" x="660.5" y="-202" font-family="Helvetica,sans-Serif" font-size="10.00">::deserializeFromString</text>
</a>
</g>
</g>
<!-- Node3&#45;&gt;Node9 -->
<g id="edge10" class="edge">
<title>Node3&#45;&gt;Node9</title>
<path fill="none" stroke="midnightblue" d="M491.18,-285.95C506.4,-278.84 524.7,-270.15 541,-262 557.18,-253.91 560.58,-250.59 577,-243 587.5,-238.14 598.94,-233.3 609.85,-228.88"/>
<polygon fill="midnightblue" stroke="midnightblue" points="611.29,-232.07 619.28,-225.11 608.69,-225.57 611.29,-232.07"/>
</g>
<!-- Node13 -->
<g id="node13" class="node">
<title>Node13</title>
<g id="a_node13"><a xlink:href="a00660.html#a7412c91a4b45c7f1d77cf904af64b6d7" target="_top" xlink:title="找对应类型的index key">
<polygon fill="white" stroke="black" points="598.5,-286 598.5,-316 722.5,-316 722.5,-286 598.5,-286"/>
<text text-anchor="start" x="606.5" y="-304" font-family="Helvetica,sans-Serif" font-size="10.00">MiraiCP::SingleMessage</text>
<text text-anchor="middle" x="660.5" y="-293" font-family="Helvetica,sans-Serif" font-size="10.00">::getKey</text>
</a>
</g>
</g>
<!-- Node3&#45;&gt;Node13 -->
<g id="edge14" class="edge">
<title>Node3&#45;&gt;Node13</title>
<path fill="none" stroke="midnightblue" d="M541.12,-301C556.7,-301 572.86,-301 588.05,-301"/>
<polygon fill="midnightblue" stroke="midnightblue" points="588.4,-304.5 598.4,-301 588.4,-297.5 588.4,-304.5"/>
</g>
<!-- Node16 -->
<g id="node16" class="node">
<title>Node16</title>
<g id="a_node16"><a xlink:href="a00612.html#a279a66d53b8b825f4a9ebc8fe30f20d6" target="_top" xlink:title="发送警告(warning级日志)">
<polygon fill="white" stroke="black" points="794.5,-242 794.5,-272 922.5,-272 922.5,-242 794.5,-242"/>
<text text-anchor="start" x="802.5" y="-260" font-family="Helvetica,sans-Serif" font-size="10.00">MiraiCP::Logger_interface</text>
<text text-anchor="middle" x="858.5" y="-249" font-family="Helvetica,sans-Serif" font-size="10.00">::warning</text>
</a>
</g>
</g>
<!-- Node3&#45;&gt;Node16 -->
<g id="edge17" class="edge">
<title>Node3&#45;&gt;Node16</title>
<path fill="none" stroke="midnightblue" d="M524.99,-285.97C541.88,-282.58 560.05,-279.31 577,-277 646.9,-267.47 727.27,-262.33 784.01,-259.65"/>
<polygon fill="midnightblue" stroke="midnightblue" points="784.49,-263.13 794.32,-259.18 784.17,-256.14 784.49,-263.13"/>
</g>
<!-- Node5&#45;&gt;Node3 -->
<g id="edge7" class="edge">
<title>Node5&#45;&gt;Node3</title>
<path fill="none" stroke="midnightblue" d="M576.71,-336.47C553.22,-331 528.4,-324.69 507.6,-318.86"/>
<polygon fill="midnightblue" stroke="midnightblue" points="508.31,-315.43 497.73,-316.04 506.39,-322.16 508.31,-315.43"/>
</g>
<!-- Node5&#45;&gt;Node5 -->
<g id="edge6" class="edge">
<title>Node5&#45;&gt;Node5</title>
<path fill="none" stroke="midnightblue" d="M625.99,-365.16C617.67,-374.56 629.18,-383.5 660.5,-383.5 679.59,-383.5 691.32,-380.18 695.68,-375.46"/>
<polygon fill="midnightblue" stroke="midnightblue" points="699.15,-374.91 695.01,-365.16 692.17,-375.37 699.15,-374.91"/>
</g>
<!-- Node6 -->
<g id="node6" class="node">
<title>Node6</title>
<g id="a_node6"><a xlink:href="a00576.html#ae41f2b998365484dba1ff3f32563dfbb" target="_top" xlink:title=" ">
<polygon fill="white" stroke="black" points="780,-428 780,-458 937,-458 937,-428 780,-428"/>
<text text-anchor="start" x="788" y="-446" font-family="Helvetica,sans-Serif" font-size="10.00">MiraiCP::ForwardedMessage</text>
<text text-anchor="middle" x="858.5" y="-435" font-family="Helvetica,sans-Serif" font-size="10.00">DisplayStrategy::defaultStrategy</text>
</a>
</g>
</g>
<!-- Node5&#45;&gt;Node6 -->
<g id="edge5" class="edge">
<title>Node5&#45;&gt;Node6</title>
<path fill="none" stroke="midnightblue" d="M693.04,-365.09C708.67,-372.9 727.64,-382.9 744,-393 760.8,-403.37 762.34,-410.19 780,-419 783.76,-420.88 787.69,-422.64 791.71,-424.29"/>
<polygon fill="midnightblue" stroke="midnightblue" points="790.6,-427.62 801.19,-427.95 793.12,-421.09 790.6,-427.62"/>
</g>
<!-- Node7 -->
<g id="node7" class="node">
<title>Node7</title>
<g id="a_node7"><a xlink:href="a00584.html#ae33afe7b370688c3a3e3252e360ae176" target="_top" xlink:title="构建一条聊天记录">
<polygon fill="white" stroke="black" points="787.5,-379 787.5,-409 929.5,-409 929.5,-379 787.5,-379"/>
<text text-anchor="start" x="795.5" y="-397" font-family="Helvetica,sans-Serif" font-size="10.00">MiraiCP::ForwardedMessage</text>
<text text-anchor="middle" x="858.5" y="-386" font-family="Helvetica,sans-Serif" font-size="10.00">::ForwardedMessage</text>
</a>
</g>
</g>
<!-- Node5&#45;&gt;Node7 -->
<g id="edge8" class="edge">
<title>Node5&#45;&gt;Node7</title>
<path fill="none" stroke="midnightblue" d="M728.4,-365.02C745.18,-368.79 763.32,-372.86 780.55,-376.72"/>
<polygon fill="midnightblue" stroke="midnightblue" points="780.04,-380.2 790.57,-378.97 781.57,-373.37 780.04,-380.2"/>
</g>
<!-- Node8 -->
<g id="node8" class="node">
<title>Node8</title>
<g id="a_node8"><a xlink:href="a00576.html#ae93025f6346a4d8c257da1f453097d6a" target="_top" xlink:title=" ">
<polygon fill="white" stroke="black" points="787.5,-330 787.5,-360 929.5,-360 929.5,-330 787.5,-330"/>
<text text-anchor="start" x="795.5" y="-348" font-family="Helvetica,sans-Serif" font-size="10.00">MiraiCP::ForwardedMessage</text>
<text text-anchor="middle" x="858.5" y="-337" font-family="Helvetica,sans-Serif" font-size="10.00">DisplayStrategy::fromJson</text>
</a>
</g>
</g>
<!-- Node5&#45;&gt;Node8 -->
<g id="edge9" class="edge">
<title>Node5&#45;&gt;Node8</title>
<path fill="none" stroke="midnightblue" d="M744.05,-347.89C755.11,-347.61 766.43,-347.32 777.44,-347.04"/>
<polygon fill="midnightblue" stroke="midnightblue" points="777.54,-350.54 787.45,-346.79 777.36,-343.54 777.54,-350.54"/>
</g>
<!-- Node10 -->
<g id="node10" class="node">
<title>Node10</title>
<g id="a_node10"><a xlink:href="a00612.html#af14d39efa300da183070784bc86d3f23" target="_top" xlink:title="发送错误(error级日志)">
<polygon fill="white" stroke="black" points="794.5,-193 794.5,-223 922.5,-223 922.5,-193 794.5,-193"/>
<text text-anchor="start" x="802.5" y="-211" font-family="Helvetica,sans-Serif" font-size="10.00">MiraiCP::Logger_interface</text>
<text text-anchor="middle" x="858.5" y="-200" font-family="Helvetica,sans-Serif" font-size="10.00">::error</text>
</a>
</g>
</g>
<!-- Node9&#45;&gt;Node10 -->
<g id="edge11" class="edge">
<title>Node9&#45;&gt;Node10</title>
<path fill="none" stroke="midnightblue" d="M724.59,-209.36C743.56,-209.16 764.53,-208.95 784.1,-208.75"/>
<polygon fill="midnightblue" stroke="midnightblue" points="784.22,-212.25 794.19,-208.65 784.15,-205.25 784.22,-212.25"/>
</g>
<!-- Node11 -->
<g id="node11" class="node">
<title>Node11</title>
<g id="a_node11"><a xlink:href="a00612.html#a98af60f864a0446e23a7a27a3419d9b8" target="_top" xlink:title=" ">
<polygon fill="white" stroke="black" points="982,-193 982,-223 1110,-223 1110,-193 982,-193"/>
<text text-anchor="start" x="990" y="-211" font-family="Helvetica,sans-Serif" font-size="10.00">MiraiCP::Logger_interface</text>
<text text-anchor="middle" x="1046" y="-200" font-family="Helvetica,sans-Serif" font-size="10.00">::constructString</text>
</a>
</g>
</g>
<!-- Node10&#45;&gt;Node11 -->
<g id="edge12" class="edge">
<title>Node10&#45;&gt;Node11</title>
<path fill="none" stroke="midnightblue" d="M922.56,-208C938.39,-208 955.51,-208 971.79,-208"/>
<polygon fill="midnightblue" stroke="midnightblue" points="971.8,-211.5 981.8,-208 971.8,-204.5 971.8,-211.5"/>
</g>
<!-- Node12 -->
<g id="node12" class="node">
<title>Node12</title>
<g id="a_node12"><a xlink:href="a00612.html#a86ea9d57475a3004be2a32b2c4c76371" target="_top" xlink:title="日志底层实现封装">
<polygon fill="white" stroke="black" points="982,-242 982,-272 1110,-272 1110,-242 982,-242"/>
<text text-anchor="start" x="990" y="-260" font-family="Helvetica,sans-Serif" font-size="10.00">MiraiCP::Logger_interface</text>
<text text-anchor="middle" x="1046" y="-249" font-family="Helvetica,sans-Serif" font-size="10.00">::log_interface</text>
</a>
</g>
</g>
<!-- Node10&#45;&gt;Node12 -->
<g id="edge13" class="edge">
<title>Node10&#45;&gt;Node12</title>
<path fill="none" stroke="midnightblue" d="M916.42,-223.03C936,-228.21 958.11,-234.05 978.4,-239.41"/>
<polygon fill="midnightblue" stroke="midnightblue" points="977.63,-242.82 988.19,-241.99 979.42,-236.06 977.63,-242.82"/>
</g>
<!-- Node14 -->
<g id="node14" class="node">
<title>Node14</title>
<g id="a_node14"><a xlink:href="a00406.html#a0b52c701b3d96bf42b4d67c21f1dab2d" target="_top" xlink:title="case insensitive string compare from https://thispointer.com/c&#45;case&#45;insensitive&#45;string&#45;comparison&#45;usi...">
<polygon fill="white" stroke="black" points="802.5,-291.5 802.5,-310.5 914.5,-310.5 914.5,-291.5 802.5,-291.5"/>
<text text-anchor="middle" x="858.5" y="-298.5" font-family="Helvetica,sans-Serif" font-size="10.00">MiraiCP::Tools::iequal</text>
</a>
</g>
</g>
<!-- Node13&#45;&gt;Node14 -->
<g id="edge15" class="edge">
<title>Node13&#45;&gt;Node14</title>
<path fill="none" stroke="midnightblue" d="M722.71,-301C744.82,-301 769.85,-301 792.29,-301"/>
<polygon fill="midnightblue" stroke="midnightblue" points="792.4,-304.5 802.4,-301 792.4,-297.5 792.4,-304.5"/>
</g>
<!-- Node15 -->
<g id="node15" class="node">
<title>Node15</title>
<g id="a_node15"><a xlink:href="a00406.html#a795aadb1af1cd4b85e9b48b5bb5b246d" target="_top" xlink:title="compare char with case&#45;insensitive">
<polygon fill="white" stroke="black" points="973,-291.5 973,-310.5 1119,-310.5 1119,-291.5 973,-291.5"/>
<text text-anchor="middle" x="1046" y="-298.5" font-family="Helvetica,sans-Serif" font-size="10.00">MiraiCP::Tools::icompareChar</text>
</a>
</g>
</g>
<!-- Node14&#45;&gt;Node15 -->
<g id="edge16" class="edge">
<title>Node14&#45;&gt;Node15</title>
<path fill="none" stroke="midnightblue" d="M914.65,-301C929.78,-301 946.51,-301 962.8,-301"/>
<polygon fill="midnightblue" stroke="midnightblue" points="962.86,-304.5 972.86,-301 962.86,-297.5 962.86,-304.5"/>
</g>
<!-- Node16&#45;&gt;Node11 -->
<g id="edge18" class="edge">
<title>Node16&#45;&gt;Node11</title>
<path fill="none" stroke="midnightblue" d="M916.42,-241.97C936,-236.79 958.11,-230.95 978.4,-225.59"/>
<polygon fill="midnightblue" stroke="midnightblue" points="979.42,-228.94 988.19,-223.01 977.63,-222.18 979.42,-228.94"/>
</g>
<!-- Node16&#45;&gt;Node12 -->
<g id="edge19" class="edge">
<title>Node16&#45;&gt;Node12</title>
<path fill="none" stroke="midnightblue" d="M922.56,-257C938.39,-257 955.51,-257 971.79,-257"/>
<polygon fill="midnightblue" stroke="midnightblue" points="971.8,-260.5 981.8,-257 971.8,-253.5 971.8,-260.5"/>
</g>
<!-- Node18 -->
<g id="node18" class="node">
<title>Node18</title>
<g id="a_node18"><a xlink:href="a00408.html#a4c6ac4cf4ba5ff0adb7656708bbb67d0" target="_top" xlink:title="interfaces for plugins">
<polygon fill="white" stroke="black" points="804.5,-105 804.5,-135 912.5,-135 912.5,-105 804.5,-105"/>
<text text-anchor="start" x="812.5" y="-123" font-family="Helvetica,sans-Serif" font-size="10.00">LibLoader::LoaderApi</text>
<text text-anchor="middle" x="858.5" y="-112" font-family="Helvetica,sans-Serif" font-size="10.00">::pluginOperation</text>
</a>
</g>
</g>
<!-- Node17&#45;&gt;Node18 -->
<g id="edge21" class="edge">
<title>Node17&#45;&gt;Node18</title>
<path fill="none" stroke="midnightblue" d="M715.06,-125.81C739.46,-124.82 768.54,-123.63 794.03,-122.59"/>
<polygon fill="midnightblue" stroke="midnightblue" points="794.5,-126.07 804.35,-122.17 794.21,-119.08 794.5,-126.07"/>
</g>
<!-- Node19 -->
<g id="node19" class="node">
<title>Node19</title>
<g id="a_node19"><a xlink:href="a00740.html#acc90fdac094544c4ddd9d6fd13baa5da" target="_top" xlink:title=" ">
<polygon fill="white" stroke="black" points="978.5,-105 978.5,-135 1113.5,-135 1113.5,-105 978.5,-105"/>
<text text-anchor="start" x="986.5" y="-123" font-family="Helvetica,sans-Serif" font-size="10.00">MiraiCP::MiraiCPStringview</text>
<text text-anchor="middle" x="1046" y="-112" font-family="Helvetica,sans-Serif" font-size="10.00">::c_str</text>
</a>
</g>
</g>
<!-- Node18&#45;&gt;Node19 -->
<g id="edge22" class="edge">
<title>Node18&#45;&gt;Node19</title>
<path fill="none" stroke="midnightblue" d="M912.66,-120C929.91,-120 949.41,-120 968.04,-120"/>
<polygon fill="midnightblue" stroke="midnightblue" points="968.28,-123.5 978.28,-120 968.28,-116.5 968.28,-123.5"/>
</g>
<!-- Node20 -->
<g id="node20" class="node">
<title>Node20</title>
<g id="a_node20"><a xlink:href="a00768.html#aea7d58ff9f04d6d4849c25a2506603a5" target="_top" xlink:title="取env,如果不存在重新获取">
<polygon fill="white" stroke="black" points="1608,-12.5 1608,-31.5 1727,-31.5 1727,-12.5 1608,-12.5"/>
<text text-anchor="middle" x="1667.5" y="-19.5" font-family="Helvetica,sans-Serif" font-size="10.00">JNIEnvManager::getEnv</text>
</a>
</g>
</g>
<!-- Node18&#45;&gt;Node20 -->
<g id="edge23" class="edge">
<title>Node18&#45;&gt;Node20</title>
<path fill="none" stroke="midnightblue" d="M882.49,-104.74C904.78,-90.56 940,-69.76 973,-57 1076.27,-17.09 1104.78,0 1215.5,0 1215.5,0 1215.5,0 1376.5,0 1452.35,0 1539.05,-7.58 1597.74,-13.84"/>
<polygon fill="midnightblue" stroke="midnightblue" points="1597.68,-17.35 1608,-14.95 1598.44,-10.39 1597.68,-17.35"/>
</g>
<!-- Node23 -->
<g id="node23" class="node">
<title>Node23</title>
<g id="a_node23"><a xlink:href="a00407.html#aa5f8d0ecd9dd392b491070aace643ae3" target="_top" xlink:title=" ">
<polygon fill="white" stroke="black" points="1163,-154.5 1163,-173.5 1270,-173.5 1270,-154.5 1163,-154.5"/>
<text text-anchor="middle" x="1216.5" y="-161.5" font-family="Helvetica,sans-Serif" font-size="10.00">LibLoader::jstring2str</text>
</a>
</g>
</g>
<!-- Node18&#45;&gt;Node23 -->
<g id="edge26" class="edge">
<title>Node18&#45;&gt;Node23</title>
<path fill="none" stroke="midnightblue" d="M912.66,-132.69C931.61,-136.83 953.17,-141.1 973,-144 1033.68,-152.88 1103.52,-158.12 1152.62,-160.99"/>
<polygon fill="midnightblue" stroke="midnightblue" points="1152.59,-164.5 1162.77,-161.57 1152.99,-157.51 1152.59,-164.5"/>
</g>
<!-- Node25 -->
<g id="node25" class="node">
<title>Node25</title>
<g id="a_node25"><a xlink:href="a00407.html#a6a6fcd695791253a9b3a053d313b2b93" target="_top" xlink:title=" ">
<polygon fill="white" stroke="black" points="992.5,-66.5 992.5,-85.5 1099.5,-85.5 1099.5,-66.5 992.5,-66.5"/>
<text text-anchor="middle" x="1046" y="-73.5" font-family="Helvetica,sans-Serif" font-size="10.00">LibLoader::str2jstring</text>
</a>
</g>
</g>
<!-- Node18&#45;&gt;Node25 -->
<g id="edge29" class="edge">
<title>Node18&#45;&gt;Node25</title>
<path fill="none" stroke="midnightblue" d="M912.66,-107.39C938.55,-101.25 969.52,-93.9 994.99,-87.86"/>
<polygon fill="midnightblue" stroke="midnightblue" points="995.89,-91.25 1004.81,-85.53 994.27,-84.44 995.89,-91.25"/>
</g>
<!-- Node21 -->
<g id="node21" class="node">
<title>Node21</title>
<g id="a_node21"><a xlink:href="a00200.html#a3d31403b7971274d47d308245206bd24" target="_top" xlink:title="为当前线程创建一个env.">
<polygon fill="white" stroke="black" points="1763,-12.5 1763,-31.5 1813,-31.5 1813,-12.5 1763,-12.5"/>
<text text-anchor="middle" x="1788" y="-19.5" font-family="Helvetica,sans-Serif" font-size="10.00">newEnv</text>
</a>
</g>
</g>
<!-- Node20&#45;&gt;Node21 -->
<g id="edge24" class="edge">
<title>Node20&#45;&gt;Node21</title>
<path fill="none" stroke="midnightblue" d="M1727.06,-22C1735.89,-22 1744.75,-22 1752.85,-22"/>
<polygon fill="midnightblue" stroke="midnightblue" points="1752.98,-25.5 1762.98,-22 1752.98,-18.5 1752.98,-25.5"/>
</g>
<!-- Node22 -->
<g id="node22" class="node">
<title>Node22</title>
<g id="a_node22"><a xlink:href="a00768.html#ae0e482c6a813848a8f5d34957d1b6307" target="_top" xlink:title="获取全局JavaVM对象.">
<polygon fill="white" stroke="black" points="1849,-12.5 1849,-31.5 1971,-31.5 1971,-12.5 1849,-12.5"/>
<text text-anchor="middle" x="1910" y="-19.5" font-family="Helvetica,sans-Serif" font-size="10.00">JNIEnvManager::getGvm</text>
</a>
</g>
</g>
<!-- Node21&#45;&gt;Node22 -->
<g id="edge25" class="edge">
<title>Node21&#45;&gt;Node22</title>
<path fill="none" stroke="midnightblue" d="M1813.28,-22C1820.75,-22 1829.37,-22 1838.32,-22"/>
<polygon fill="midnightblue" stroke="midnightblue" points="1838.52,-25.5 1848.52,-22 1838.52,-18.5 1838.52,-25.5"/>
</g>
<!-- Node24 -->
<g id="node24" class="node">
<title>Node24</title>
<g id="a_node24"><a xlink:href="a00411.html#a076c5f4ff8083c7cfc6523498d0ba30f" target="_top" xlink:title=" ">
<polygon fill="white" stroke="black" points="1473,-48 1473,-78 1572,-78 1572,-48 1473,-48"/>
<text text-anchor="start" x="1481" y="-66" font-family="Helvetica,sans-Serif" font-size="10.00">LibLoader::JNIEnvs</text>
<text text-anchor="middle" x="1522.5" y="-55" font-family="Helvetica,sans-Serif" font-size="10.00">::getEnv</text>
</a>
</g>
</g>
<!-- Node23&#45;&gt;Node24 -->
<g id="edge27" class="edge">
<title>Node23&#45;&gt;Node24</title>
<path fill="none" stroke="midnightblue" d="M1265.08,-154.49C1310.17,-144.77 1379.37,-127.99 1437,-106 1453.81,-99.59 1471.67,-90.81 1486.62,-82.86"/>
<polygon fill="midnightblue" stroke="midnightblue" points="1488.39,-85.88 1495.52,-78.04 1485.06,-79.72 1488.39,-85.88"/>
</g>
<!-- Node24&#45;&gt;Node20 -->
<g id="edge28" class="edge">
<title>Node24&#45;&gt;Node20</title>
<path fill="none" stroke="midnightblue" d="M1572.31,-49C1588.93,-44.24 1607.37,-38.95 1623.5,-34.33"/>
<polygon fill="midnightblue" stroke="midnightblue" points="1624.56,-37.67 1633.2,-31.55 1622.63,-30.94 1624.56,-37.67"/>
</g>
<!-- Node25&#45;&gt;Node24 -->
<g id="edge30" class="edge">
<title>Node25&#45;&gt;Node24</title>
<path fill="none" stroke="midnightblue" d="M1090.91,-66.49C1110.43,-62.72 1133.76,-58.85 1155,-57 1263.16,-47.56 1389.93,-53.37 1462.47,-58.29"/>
<polygon fill="midnightblue" stroke="midnightblue" points="1462.55,-61.81 1472.77,-59.01 1463.04,-54.82 1462.55,-61.81"/>
</g>
<!-- Node26 -->
<g id="node26" class="node">
<title>Node26</title>
<g id="a_node26"><a xlink:href="a00800.html#af50d0545fe7d683e54fcd03453a423e3" target="_top" xlink:title=" ">
<polygon fill="white" stroke="black" points="1155,-67 1155,-97 1278,-97 1278,-67 1155,-67"/>
<text text-anchor="start" x="1163" y="-85" font-family="Helvetica,sans-Serif" font-size="10.00">LibLoader::LoaderLogger</text>
<text text-anchor="middle" x="1216.5" y="-74" font-family="Helvetica,sans-Serif" font-size="10.00">::warning</text>
</a>
</g>
</g>
<!-- Node25&#45;&gt;Node26 -->
<g id="edge31" class="edge">
<title>Node25&#45;&gt;Node26</title>
<path fill="none" stroke="midnightblue" d="M1099.85,-77.88C1114.05,-78.39 1129.63,-78.94 1144.63,-79.48"/>
<polygon fill="midnightblue" stroke="midnightblue" points="1144.78,-82.98 1154.9,-79.84 1145.03,-75.99 1144.78,-82.98"/>
</g>
<!-- Node27 -->
<g id="node27" class="node">
<title>Node27</title>
<g id="a_node27"><a xlink:href="a00800.html#af4d7d5164450e25f7401d1cc15f15b8d" target="_top" xlink:title="实际暴露的接口">
<polygon fill="white" stroke="black" points="1314,-67 1314,-97 1437,-97 1437,-67 1314,-67"/>
<text text-anchor="start" x="1322" y="-85" font-family="Helvetica,sans-Serif" font-size="10.00">LibLoader::LoaderLogger</text>
<text text-anchor="middle" x="1375.5" y="-74" font-family="Helvetica,sans-Serif" font-size="10.00">::call_logger</text>
</a>
</g>
</g>
<!-- Node26&#45;&gt;Node27 -->
<g id="edge32" class="edge">
<title>Node26&#45;&gt;Node27</title>
<path fill="none" stroke="midnightblue" d="M1278.2,-82C1286.64,-82 1295.36,-82 1303.95,-82"/>
<polygon fill="midnightblue" stroke="midnightblue" points="1303.96,-85.5 1313.96,-82 1303.96,-78.5 1303.96,-85.5"/>
</g>
<!-- Node27&#45;&gt;Node24 -->
<g id="edge33" class="edge">
<title>Node27&#45;&gt;Node24</title>
<path fill="none" stroke="midnightblue" d="M1437.15,-74.05C1445.65,-72.94 1454.37,-71.8 1462.83,-70.69"/>
<polygon fill="midnightblue" stroke="midnightblue" points="1463.52,-74.13 1472.98,-69.36 1462.61,-67.19 1463.52,-74.13"/>
</g>
<!-- Node27&#45;&gt;Node25 -->
<g id="edge34" class="edge">
<title>Node27&#45;&gt;Node25</title>
<path fill="none" stroke="midnightblue" d="M1323.85,-97.06C1309.19,-100.74 1293.08,-104.15 1278,-106 1223.74,-112.65 1209.07,-114.08 1155,-106 1138.45,-103.53 1135.09,-99.58 1119,-95 1111.04,-92.74 1102.57,-90.42 1094.33,-88.21"/>
<polygon fill="midnightblue" stroke="midnightblue" points="1095.01,-84.77 1084.44,-85.59 1093.21,-91.54 1095.01,-84.77"/>
</g>
<!-- Node28&#45;&gt;Node9 -->
<g id="edge36" class="edge">
<title>Node28&#45;&gt;Node9</title>
<path fill="none" stroke="midnightblue" d="M311.19,-181.5C330.71,-184.94 353.34,-188.57 374,-191 445.91,-199.44 528.48,-204.43 586.26,-207.16"/>
<polygon fill="midnightblue" stroke="midnightblue" points="586.24,-210.66 596.39,-207.63 586.57,-203.67 586.24,-210.66"/>
</g>
<!-- Node29 -->
<g id="node29" class="node">
<title>Node29</title>
<g id="a_node29"><a xlink:href="a00415.html#a309e8d7f316e8b5e947ea3bcddeb84a8" target="_top" xlink:title="调用 Mirai 操作">
<polygon fill="white" stroke="black" points="403,-113 403,-143 512,-143 512,-113 403,-113"/>
<text text-anchor="start" x="411" y="-131" font-family="Helvetica,sans-Serif" font-size="10.00">MiraiCP::KtOperation</text>
<text text-anchor="middle" x="457.5" y="-120" font-family="Helvetica,sans-Serif" font-size="10.00">::ktOperation</text>
</a>
</g>
</g>
<!-- Node28&#45;&gt;Node29 -->
<g id="edge37" class="edge">
<title>Node28&#45;&gt;Node29</title>
<path fill="none" stroke="midnightblue" d="M303.81,-162.45C329.76,-156.6 363.49,-148.99 392.65,-142.41"/>
<polygon fill="midnightblue" stroke="midnightblue" points="393.77,-145.74 402.75,-140.13 392.22,-138.92 393.77,-145.74"/>
</g>
<!-- Node30 -->
<g id="node30" class="node">
<title>Node30</title>
<g id="a_node30"><a xlink:href="a00448.html#a89fb588a12ff2d4de10722788945ea55" target="_top" xlink:title="序列化到json对象">
<polygon fill="white" stroke="black" points="395,-162.5 395,-181.5 520,-181.5 520,-162.5 395,-162.5"/>
<text text-anchor="middle" x="457.5" y="-169.5" font-family="Helvetica,sans-Serif" font-size="10.00">MiraiCP::Contact::toJson</text>
</a>
</g>
</g>
<!-- Node28&#45;&gt;Node30 -->
<g id="edge39" class="edge">
<title>Node28&#45;&gt;Node30</title>
<path fill="none" stroke="midnightblue" d="M338.01,-172C353.35,-172 369.43,-172 384.61,-172"/>
<polygon fill="midnightblue" stroke="midnightblue" points="384.96,-175.5 394.96,-172 384.96,-168.5 384.96,-175.5"/>
</g>
<!-- Node29&#45;&gt;Node17 -->
<g id="edge38" class="edge">
<title>Node29&#45;&gt;Node17</title>
<path fill="none" stroke="midnightblue" d="M512.1,-128C537.78,-128 568.72,-128 595.61,-128"/>
<polygon fill="midnightblue" stroke="midnightblue" points="595.7,-131.5 605.7,-128 595.7,-124.5 595.7,-131.5"/>
</g>
<!-- Node33 -->
<g id="node33" class="node">
<title>Node33</title>
<g id="a_node33"><a xlink:href="a00636.html#a49c9f029880bf1948cdf22cee341a09a" target="_top" xlink:title=" ">
<polygon fill="white" stroke="black" points="396.5,-64 396.5,-94 518.5,-94 518.5,-64 396.5,-64"/>
<text text-anchor="start" x="404.5" y="-82" font-family="Helvetica,sans-Serif" font-size="10.00">MiraiCP::MessageChain</text>
<text text-anchor="middle" x="457.5" y="-71" font-family="Helvetica,sans-Serif" font-size="10.00">::toJson</text>
</a>
</g>
</g>
<!-- Node32&#45;&gt;Node33 -->
<g id="edge42" class="edge">
<title>Node32&#45;&gt;Node33</title>
<path fill="none" stroke="midnightblue" d="M321.6,-79C341.99,-79 364.94,-79 386.06,-79"/>
<polygon fill="midnightblue" stroke="midnightblue" points="386.27,-82.5 396.27,-79 386.27,-75.5 386.27,-82.5"/>
</g>
</g>
</svg>
