<?xml version="1.0" encoding="UTF-8" standalone="no"?>
<!DOCTYPE svg PUBLIC "-//W3C//DTD SVG 1.1//EN"
 "http://www.w3.org/Graphics/SVG/1.1/DTD/svg11.dtd">
<!-- Generated by graphviz version 9.0.0 (0)
 -->
<!-- Title: LibLoader::LoaderApi::_admin_command Pages: 1 -->
<svg width="413pt" height="78pt"
 viewBox="0.00 0.00 413.00 78.00" xmlns="http://www.w3.org/2000/svg" xmlns:xlink="http://www.w3.org/1999/xlink">
<g id="graph0" class="graph" transform="scale(1 1) rotate(0) translate(4 74)">
<title>LibLoader::LoaderApi::_admin_command</title>
<!-- Node1 -->
<g id="Node000001" class="node">
<title>Node1</title>
<g id="a_Node000001"><a xlink:title=" ">
<polygon fill="#999999" stroke="#666666" points="107.5,-54 0,-54 0,-22 107.5,-22 107.5,-54"/>
<text text-anchor="start" x="8" y="-40.5" font-family="Helvetica,sans-Serif" font-size="10.00">LibLoader::LoaderApi</text>
<text text-anchor="middle" x="53.75" y="-28.5" font-family="Helvetica,sans-Serif" font-size="10.00">::_admin_command</text>
</a>
</g>
</g>
<!-- Node2 -->
<g id="Node000002" class="node">
<title>Node2</title>
<g id="a_Node000002"><a xlink:href="a00426.html#a028b2ad57c23528b17f60d130f8ffe46" target="_top" xlink:title=" ">
<polygon fill="white" stroke="#666666" points="251,-54 143.5,-54 143.5,-22 251,-22 251,-54"/>
<text text-anchor="start" x="151.5" y="-40.5" font-family="Helvetica,sans-Serif" font-size="10.00">LibLoader::LoaderApi</text>
<text text-anchor="middle" x="197.25" y="-28.5" font-family="Helvetica,sans-Serif" font-size="10.00">::send_payload</text>
</a>
</g>
</g>
<!-- Node1&#45;&gt;Node2 -->
<g id="edge1_Node000001_Node000002" class="edge">
<title>Node1&#45;&gt;Node2</title>
<g id="a_edge1_Node000001_Node000002"><a xlink:title=" ">
<path fill="none" stroke="#63b8ff" d="M107.84,-38C115.73,-38 123.93,-38 132.02,-38"/>
<polygon fill="#63b8ff" stroke="#63b8ff" points="131.82,-41.5 141.82,-38 131.82,-34.5 131.82,-41.5"/>
</a>
</g>
</g>
<!-- Node3 -->
<g id="Node000003" class="node">
<title>Node3</title>
<g id="a_Node000003"><a xlink:href="a00412.html#a725fdb8e365cfb2a0c3812bf02473993" target="_top" xlink:title=" ">
<polygon fill="white" stroke="#666666" points="405,-70 287,-70 287,-50 405,-50 405,-70"/>
<text text-anchor="middle" x="346" y="-56.5" font-family="Helvetica,sans-Serif" font-size="10.00">MiraiCP::getMsgQueue</text>
</a>
</g>
</g>
<!-- Node2&#45;&gt;Node3 -->
<g id="edge2_Node000002_Node000003" class="edge">
<title>Node2&#45;&gt;Node3</title>
<g id="a_edge2_Node000002_Node000003"><a xlink:title=" ">
<path fill="none" stroke="#63b8ff" d="M251.23,-45.94C259.04,-47.11 267.19,-48.34 275.28,-49.55"/>
<polygon fill="#63b8ff" stroke="#63b8ff" points="274.73,-53 285.13,-51.03 275.76,-46.08 274.73,-53"/>
</a>
</g>
</g>
<!-- Node4 -->
<g id="Node000004" class="node">
<title>Node4</title>
<g id="a_Node000004"><a xlink:href="a00425.html#a8088891e75cfcac4603100f1d0033458" target="_top" xlink:title=" ">
<polygon fill="white" stroke="#666666" points="397.88,-32 294.12,-32 294.12,0 397.88,0 397.88,-32"/>
<text text-anchor="start" x="302.12" y="-18.5" font-family="Helvetica,sans-Serif" font-size="10.00">LibLoader::try_wake</text>
<text text-anchor="middle" x="346" y="-6.5" font-family="Helvetica,sans-Serif" font-size="10.00">_loader</text>
</a>
</g>
</g>
<!-- Node2&#45;&gt;Node4 -->
<g id="edge3_Node000002_Node000004" class="edge">
<title>Node2&#45;&gt;Node4</title>
<g id="a_edge3_Node000002_Node000004"><a xlink:title=" ">
<path fill="none" stroke="#63b8ff" d="M251.23,-30.06C261.48,-28.52 272.31,-26.9 282.82,-25.32"/>
<polygon fill="#63b8ff" stroke="#63b8ff" points="283.19,-28.81 292.56,-23.86 282.15,-21.88 283.19,-28.81"/>
</a>
</g>
</g>
</g>
</svg>
