<?xml version="1.0" encoding="UTF-8" standalone="no"?>
<!DOCTYPE svg PUBLIC "-//W3C//DTD SVG 1.1//EN"
 "http://www.w3.org/Graphics/SVG/1.1/DTD/svg11.dtd">
<!-- Generated by graphviz version 9.0.0 (0)
 -->
<!-- Title: MiraiCP::Bot::getOnlineBotsList Pages: 1 -->
<svg width="1813pt" height="220pt"
 viewBox="0.00 0.00 1812.50 220.17" xmlns="http://www.w3.org/2000/svg" xmlns:xlink="http://www.w3.org/1999/xlink">
<g id="graph0" class="graph" transform="scale(1 1) rotate(0) translate(4 216.17)">
<title>MiraiCP::Bot::getOnlineBotsList</title>
<!-- Node1 -->
<g id="Node000001" class="node">
<title>Node1</title>
<g id="a_Node000001"><a xlink:title="取在线 Bot 列表">
<polygon fill="#999999" stroke="#666666" points="155.5,-99.17 0,-99.17 0,-79.17 155.5,-79.17 155.5,-99.17"/>
<text text-anchor="middle" x="77.75" y="-85.67" font-family="Helvetica,sans-Serif" font-size="10.00">MiraiCP::Bot::getOnlineBotsList</text>
</a>
</g>
</g>
<!-- Node2 -->
<g id="Node000002" class="node">
<title>Node2</title>
<g id="a_Node000002"><a xlink:href="a00412.html#af9ded1af6d3b5b7e3b556d52484d56b8" target="_top" xlink:title=" ">
<polygon fill="white" stroke="#666666" points="303.5,-118.17 206.5,-118.17 206.5,-98.17 303.5,-98.17 303.5,-118.17"/>
<text text-anchor="middle" x="255" y="-104.67" font-family="Helvetica,sans-Serif" font-size="10.00">MiraiCP::queryList</text>
</a>
</g>
</g>
<!-- Node1&#45;&gt;Node2 -->
<g id="edge1_Node000001_Node000002" class="edge">
<title>Node1&#45;&gt;Node2</title>
<g id="a_edge1_Node000001_Node000002"><a xlink:title=" ">
<path fill="none" stroke="#63b8ff" d="M155.87,-97.53C168.95,-98.95 182.34,-100.4 194.87,-101.76"/>
<polygon fill="#63b8ff" stroke="#63b8ff" points="194.26,-105.21 204.58,-102.81 195.02,-98.25 194.26,-105.21"/>
</a>
</g>
</g>
<!-- Node17 -->
<g id="Node000017" class="node">
<title>Node17</title>
<g id="a_Node000017"><a xlink:href="a00460.html#a89fb588a12ff2d4de10722788945ea55" target="_top" xlink:title="序列化到json对象">
<polygon fill="white" stroke="#666666" points="318.5,-80.17 191.5,-80.17 191.5,-60.17 318.5,-60.17 318.5,-80.17"/>
<text text-anchor="middle" x="255" y="-66.67" font-family="Helvetica,sans-Serif" font-size="10.00">MiraiCP::Contact::toJson</text>
</a>
</g>
</g>
<!-- Node1&#45;&gt;Node17 -->
<g id="edge20_Node000001_Node000017" class="edge">
<title>Node1&#45;&gt;Node17</title>
<g id="a_edge20_Node000001_Node000017"><a xlink:title=" ">
<path fill="none" stroke="#63b8ff" d="M155.87,-80.81C163.77,-79.95 171.78,-79.08 179.65,-78.23"/>
<polygon fill="#63b8ff" stroke="#63b8ff" points="179.97,-81.71 189.54,-77.16 179.22,-74.76 179.97,-81.71"/>
</a>
</g>
</g>
<!-- Node3 -->
<g id="Node000003" class="node">
<title>Node3</title>
<g id="a_Node000003"><a xlink:href="a00435.html#a309e8d7f316e8b5e947ea3bcddeb84a8" target="_top" xlink:title="调用 Mirai 操作">
<polygon fill="white" stroke="#666666" points="470.25,-149.17 361.25,-149.17 361.25,-117.17 470.25,-117.17 470.25,-149.17"/>
<text text-anchor="start" x="369.25" y="-135.67" font-family="Helvetica,sans-Serif" font-size="10.00">MiraiCP::KtOperation</text>
<text text-anchor="middle" x="415.75" y="-123.67" font-family="Helvetica,sans-Serif" font-size="10.00">::ktOperation</text>
</a>
</g>
</g>
<!-- Node2&#45;&gt;Node3 -->
<g id="edge2_Node000002_Node000003" class="edge">
<title>Node2&#45;&gt;Node3</title>
<g id="a_edge2_Node000002_Node000003"><a xlink:title=" ">
<path fill="none" stroke="#63b8ff" d="M303.63,-115.67C318.11,-117.95 334.27,-120.49 349.69,-122.92"/>
<polygon fill="#63b8ff" stroke="#63b8ff" points="348.84,-126.33 359.26,-124.43 349.92,-119.42 348.84,-126.33"/>
</a>
</g>
</g>
<!-- Node15 -->
<g id="Node000015" class="node">
<title>Node15</title>
<g id="a_Node000015"><a xlink:href="a00421.html#ab67b5a25139033a0e048a23f84b88b4d" target="_top" xlink:title="从string格式化到vector">
<polygon fill="white" stroke="#666666" points="477,-99.17 354.5,-99.17 354.5,-67.17 477,-67.17 477,-99.17"/>
<text text-anchor="start" x="362.5" y="-85.67" font-family="Helvetica,sans-Serif" font-size="10.00">MiraiCP::Tools::StringTo</text>
<text text-anchor="middle" x="415.75" y="-73.67" font-family="Helvetica,sans-Serif" font-size="10.00">Vector</text>
</a>
</g>
</g>
<!-- Node2&#45;&gt;Node15 -->
<g id="edge18_Node000002_Node000015" class="edge">
<title>Node2&#45;&gt;Node15</title>
<g id="a_edge18_Node000002_Node000015"><a xlink:title=" ">
<path fill="none" stroke="#63b8ff" d="M303.63,-100.67C316.05,-98.71 329.7,-96.56 343.06,-94.46"/>
<polygon fill="#63b8ff" stroke="#63b8ff" points="343.36,-97.95 352.69,-92.94 342.27,-91.04 343.36,-97.95"/>
</a>
</g>
</g>
<!-- Node4 -->
<g id="Node000004" class="node">
<title>Node4</title>
<g id="a_Node000004"><a xlink:href="a00435.html#a1e1e498928eeaa1d7107033ff5fa881a" target="_top" xlink:title="调用 Mirai 操作">
<polygon fill="white" stroke="#666666" points="622,-149.17 513,-149.17 513,-117.17 622,-117.17 622,-149.17"/>
<text text-anchor="start" x="521" y="-135.67" font-family="Helvetica,sans-Serif" font-size="10.00">MiraiCP::KtOperation</text>
<text text-anchor="middle" x="567.5" y="-123.67" font-family="Helvetica,sans-Serif" font-size="10.00">::ktOperationStr</text>
</a>
</g>
</g>
<!-- Node3&#45;&gt;Node4 -->
<g id="edge3_Node000003_Node000004" class="edge">
<title>Node3&#45;&gt;Node4</title>
<g id="a_edge3_Node000003_Node000004"><a xlink:title=" ">
<path fill="none" stroke="#63b8ff" d="M470.39,-133.17C480.39,-133.17 490.94,-133.17 501.25,-133.17"/>
<polygon fill="#63b8ff" stroke="#63b8ff" points="501.22,-136.67 511.22,-133.17 501.22,-129.67 501.22,-136.67"/>
</a>
</g>
</g>
<!-- Node5 -->
<g id="Node000005" class="node">
<title>Node5</title>
<g id="a_Node000005"><a xlink:href="a00426.html#a4c6ac4cf4ba5ff0adb7656708bbb67d0" target="_top" xlink:title="interfaces for plugins">
<polygon fill="white" stroke="#666666" points="765.5,-149.17 658,-149.17 658,-117.17 765.5,-117.17 765.5,-149.17"/>
<text text-anchor="start" x="666" y="-135.67" font-family="Helvetica,sans-Serif" font-size="10.00">LibLoader::LoaderApi</text>
<text text-anchor="middle" x="711.75" y="-123.67" font-family="Helvetica,sans-Serif" font-size="10.00">::pluginOperation</text>
</a>
</g>
</g>
<!-- Node4&#45;&gt;Node5 -->
<g id="edge4_Node000004_Node000005" class="edge">
<title>Node4&#45;&gt;Node5</title>
<g id="a_edge4_Node000004_Node000005"><a xlink:title=" ">
<path fill="none" stroke="#63b8ff" d="M622.28,-133.17C630.19,-133.17 638.41,-133.17 646.51,-133.17"/>
<polygon fill="#63b8ff" stroke="#63b8ff" points="646.32,-136.67 656.32,-133.17 646.32,-129.67 646.32,-136.67"/>
</a>
</g>
</g>
<!-- Node6 -->
<g id="Node000006" class="node">
<title>Node6</title>
<g id="a_Node000006"><a xlink:href="a00780.html#acc90fdac094544c4ddd9d6fd13baa5da" target="_top" xlink:title=" ">
<polygon fill="white" stroke="#666666" points="939.75,-212.17 801.5,-212.17 801.5,-180.17 939.75,-180.17 939.75,-212.17"/>
<text text-anchor="start" x="809.5" y="-198.67" font-family="Helvetica,sans-Serif" font-size="10.00">MiraiCP::MiraiCPStringview</text>
<text text-anchor="middle" x="870.62" y="-186.67" font-family="Helvetica,sans-Serif" font-size="10.00">::c_str</text>
</a>
</g>
</g>
<!-- Node5&#45;&gt;Node6 -->
<g id="edge5_Node000005_Node000006" class="edge">
<title>Node5&#45;&gt;Node6</title>
<g id="a_edge5_Node000005_Node000006"><a xlink:title=" ">
<path fill="none" stroke="#63b8ff" d="M753.56,-149.56C773.27,-157.47 797.14,-167.06 818.09,-175.47"/>
<polygon fill="#63b8ff" stroke="#63b8ff" points="816.76,-178.71 827.35,-179.19 819.37,-172.21 816.76,-178.71"/>
</a>
</g>
</g>
<!-- Node7 -->
<g id="Node000007" class="node">
<title>Node7</title>
<g id="a_Node000007"><a xlink:href="a00840.html#aea7d58ff9f04d6d4849c25a2506603a5" target="_top" xlink:title="取env,如果不存在重新获取">
<polygon fill="white" stroke="#666666" points="1554.25,-124.17 1431,-124.17 1431,-104.17 1554.25,-104.17 1554.25,-124.17"/>
<text text-anchor="middle" x="1492.62" y="-110.67" font-family="Helvetica,sans-Serif" font-size="10.00">JNIEnvManager::getEnv</text>
</a>
</g>
</g>
<!-- Node5&#45;&gt;Node7 -->
<g id="edge6_Node000005_Node000007" class="edge">
<title>Node5&#45;&gt;Node7</title>
<g id="a_edge6_Node000005_Node000007"><a xlink:title=" ">
<path fill="none" stroke="#63b8ff" d="M765.89,-138.21C829.9,-143.84 940.71,-152.17 1036,-152.17 1036,-152.17 1036,-152.17 1196.5,-152.17 1277.79,-152.17 1370.65,-137.81 1430.15,-126.75"/>
<polygon fill="#63b8ff" stroke="#63b8ff" points="1430.56,-130.23 1439.74,-124.93 1429.26,-123.35 1430.56,-130.23"/>
</a>
</g>
</g>
<!-- Node10 -->
<g id="Node000010" class="node">
<title>Node10</title>
<g id="a_Node000010"><a xlink:href="a00425.html#aa5f8d0ecd9dd392b491070aace643ae3" target="_top" xlink:title=" ">
<polygon fill="white" stroke="#666666" points="1090.38,-124.17 983.62,-124.17 983.62,-104.17 1090.38,-104.17 1090.38,-124.17"/>
<text text-anchor="middle" x="1037" y="-110.67" font-family="Helvetica,sans-Serif" font-size="10.00">LibLoader::jstring2str</text>
</a>
</g>
</g>
<!-- Node5&#45;&gt;Node10 -->
<g id="edge9_Node000005_Node000010" class="edge">
<title>Node5&#45;&gt;Node10</title>
<g id="a_edge9_Node000005_Node000010"><a xlink:title=" ">
<path fill="none" stroke="#63b8ff" d="M765.77,-130.05C822.22,-126.73 911.58,-121.48 971.93,-117.93"/>
<polygon fill="#63b8ff" stroke="#63b8ff" points="971.94,-121.44 981.71,-117.36 971.52,-114.45 971.94,-121.44"/>
</a>
</g>
</g>
<!-- Node12 -->
<g id="Node000012" class="node">
<title>Node12</title>
<g id="a_Node000012"><a xlink:href="a00425.html#a6a6fcd695791253a9b3a053d313b2b93" target="_top" xlink:title=" ">
<polygon fill="white" stroke="#666666" points="924,-64.17 817.25,-64.17 817.25,-44.17 924,-44.17 924,-64.17"/>
<text text-anchor="middle" x="870.62" y="-50.67" font-family="Helvetica,sans-Serif" font-size="10.00">LibLoader::str2jstring</text>
</a>
</g>
</g>
<!-- Node5&#45;&gt;Node12 -->
<g id="edge12_Node000005_Node000012" class="edge">
<title>Node5&#45;&gt;Node12</title>
<g id="a_edge12_Node000005_Node000012"><a xlink:title=" ">
<path fill="none" stroke="#63b8ff" d="M745.25,-116.8C772.83,-102.91 812.09,-83.14 839.09,-69.55"/>
<polygon fill="#63b8ff" stroke="#63b8ff" points="840.42,-72.79 847.78,-65.17 837.27,-66.54 840.42,-72.79"/>
</a>
</g>
</g>
<!-- Node8 -->
<g id="Node000008" class="node">
<title>Node8</title>
<g id="a_Node000008"><a xlink:href="a00260.html#a3d31403b7971274d47d308245206bd24" target="_top" xlink:title="为当前线程创建一个env.">
<polygon fill="white" stroke="#666666" points="1641.5,-124.17 1590.25,-124.17 1590.25,-104.17 1641.5,-104.17 1641.5,-124.17"/>
<text text-anchor="middle" x="1615.88" y="-110.67" font-family="Helvetica,sans-Serif" font-size="10.00">newEnv</text>
</a>
</g>
</g>
<!-- Node7&#45;&gt;Node8 -->
<g id="edge7_Node000007_Node000008" class="edge">
<title>Node7&#45;&gt;Node8</title>
<g id="a_edge7_Node000007_Node000008"><a xlink:title=" ">
<path fill="none" stroke="#63b8ff" d="M1554.61,-114.17C1562.81,-114.17 1571.01,-114.17 1578.59,-114.17"/>
<polygon fill="#63b8ff" stroke="#63b8ff" points="1578.41,-117.67 1588.41,-114.17 1578.41,-110.67 1578.41,-117.67"/>
</a>
</g>
</g>
<!-- Node9 -->
<g id="Node000009" class="node">
<title>Node9</title>
<g id="a_Node000009"><a xlink:href="a00840.html#ae0e482c6a813848a8f5d34957d1b6307" target="_top" xlink:title="获取全局JavaVM对象.">
<polygon fill="white" stroke="#666666" points="1804.5,-124.17 1677.5,-124.17 1677.5,-104.17 1804.5,-104.17 1804.5,-124.17"/>
<text text-anchor="middle" x="1741" y="-110.67" font-family="Helvetica,sans-Serif" font-size="10.00">JNIEnvManager::getGvm</text>
</a>
</g>
</g>
<!-- Node8&#45;&gt;Node9 -->
<g id="edge8_Node000008_Node000009" class="edge">
<title>Node8&#45;&gt;Node9</title>
<g id="a_edge8_Node000008_Node000009"><a xlink:title=" ">
<path fill="none" stroke="#63b8ff" d="M1641.79,-114.17C1648.97,-114.17 1657.2,-114.17 1665.77,-114.17"/>
<polygon fill="#63b8ff" stroke="#63b8ff" points="1665.66,-117.67 1675.66,-114.17 1665.66,-110.67 1665.66,-117.67"/>
</a>
</g>
</g>
<!-- Node11 -->
<g id="Node000011" class="node">
<title>Node11</title>
<g id="a_Node000011"><a xlink:href="a00430.html#a076c5f4ff8083c7cfc6523498d0ba30f" target="_top" xlink:title=" ">
<polygon fill="white" stroke="#666666" points="1395,-108.17 1292.75,-108.17 1292.75,-76.17 1395,-76.17 1395,-108.17"/>
<text text-anchor="start" x="1300.75" y="-94.67" font-family="Helvetica,sans-Serif" font-size="10.00">LibLoader::JNIEnvs</text>
<text text-anchor="middle" x="1343.88" y="-82.67" font-family="Helvetica,sans-Serif" font-size="10.00">::getEnv</text>
</a>
</g>
</g>
<!-- Node10&#45;&gt;Node11 -->
<g id="edge10_Node000010_Node000011" class="edge">
<title>Node10&#45;&gt;Node11</title>
<g id="a_edge10_Node000010_Node000011"><a xlink:title=" ">
<path fill="none" stroke="#63b8ff" d="M1090.76,-110.36C1143.69,-106.54 1225.19,-100.66 1281.11,-96.63"/>
<polygon fill="#63b8ff" stroke="#63b8ff" points="1281.05,-100.14 1290.77,-95.93 1280.55,-93.16 1281.05,-100.14"/>
</a>
</g>
</g>
<!-- Node11&#45;&gt;Node7 -->
<g id="edge11_Node000011_Node000007" class="edge">
<title>Node11&#45;&gt;Node7</title>
<g id="a_edge11_Node000011_Node000007"><a xlink:title=" ">
<path fill="none" stroke="#63b8ff" d="M1395.38,-99.74C1403.1,-100.9 1411.19,-102.11 1419.27,-103.32"/>
<polygon fill="#63b8ff" stroke="#63b8ff" points="1418.74,-106.78 1429.15,-104.8 1419.78,-99.86 1418.74,-106.78"/>
</a>
</g>
</g>
<!-- Node12&#45;&gt;Node11 -->
<g id="edge13_Node000012_Node000011" class="edge">
<title>Node12&#45;&gt;Node11</title>
<g id="a_edge13_Node000012_Node000011"><a xlink:title=" ">
<path fill="none" stroke="#63b8ff" d="M924.31,-58.42C1012.04,-65.49 1187.62,-79.65 1281.06,-87.18"/>
<polygon fill="#63b8ff" stroke="#63b8ff" points="1280.55,-90.65 1290.8,-87.97 1281.12,-83.68 1280.55,-90.65"/>
</a>
</g>
</g>
<!-- Node13 -->
<g id="Node000013" class="node">
<title>Node13</title>
<g id="a_Node000013"><a xlink:href="a00872.html#af50d0545fe7d683e54fcd03453a423e3" target="_top" xlink:title=" ">
<polygon fill="white" stroke="#666666" points="1098.25,-48.17 975.75,-48.17 975.75,-16.17 1098.25,-16.17 1098.25,-48.17"/>
<text text-anchor="start" x="983.75" y="-34.67" font-family="Helvetica,sans-Serif" font-size="10.00">LibLoader::LoaderLogger</text>
<text text-anchor="middle" x="1037" y="-22.67" font-family="Helvetica,sans-Serif" font-size="10.00">::warning</text>
</a>
</g>
</g>
<!-- Node12&#45;&gt;Node13 -->
<g id="edge14_Node000012_Node000013" class="edge">
<title>Node12&#45;&gt;Node13</title>
<g id="a_edge14_Node000012_Node000013"><a xlink:title=" ">
<path fill="none" stroke="#63b8ff" d="M924.09,-47.15C936.86,-45.44 950.74,-43.58 964.24,-41.77"/>
<polygon fill="#63b8ff" stroke="#63b8ff" points="964.5,-45.27 973.95,-40.47 963.58,-38.33 964.5,-45.27"/>
</a>
</g>
</g>
<!-- Node14 -->
<g id="Node000014" class="node">
<title>Node14</title>
<g id="a_Node000014"><a xlink:href="a00872.html#af4d7d5164450e25f7401d1cc15f15b8d" target="_top" xlink:title="实际暴露的接口">
<polygon fill="white" stroke="#666666" points="1256.75,-48.17 1134.25,-48.17 1134.25,-16.17 1256.75,-16.17 1256.75,-48.17"/>
<text text-anchor="start" x="1142.25" y="-34.67" font-family="Helvetica,sans-Serif" font-size="10.00">LibLoader::LoaderLogger</text>
<text text-anchor="middle" x="1195.5" y="-22.67" font-family="Helvetica,sans-Serif" font-size="10.00">::call_logger</text>
</a>
</g>
</g>
<!-- Node13&#45;&gt;Node14 -->
<g id="edge15_Node000013_Node000014" class="edge">
<title>Node13&#45;&gt;Node14</title>
<g id="a_edge15_Node000013_Node000014"><a xlink:title=" ">
<path fill="none" stroke="#63b8ff" d="M1098.51,-32.17C1106.4,-32.17 1114.55,-32.17 1122.6,-32.17"/>
<polygon fill="#63b8ff" stroke="#63b8ff" points="1122.38,-35.67 1132.38,-32.17 1122.38,-28.67 1122.38,-35.67"/>
</a>
</g>
</g>
<!-- Node14&#45;&gt;Node11 -->
<g id="edge16_Node000014_Node000011" class="edge">
<title>Node14&#45;&gt;Node11</title>
<g id="a_edge16_Node000014_Node000011"><a xlink:title=" ">
<path fill="none" stroke="#63b8ff" d="M1236.5,-48.56C1253.69,-55.61 1273.99,-63.93 1292.22,-71.4"/>
<polygon fill="#63b8ff" stroke="#63b8ff" points="1290.69,-74.56 1301.27,-75.11 1293.35,-68.08 1290.69,-74.56"/>
</a>
</g>
</g>
<!-- Node14&#45;&gt;Node12 -->
<g id="edge17_Node000014_Node000012" class="edge">
<title>Node14&#45;&gt;Node12</title>
<g id="a_edge17_Node000014_Node000012"><a xlink:title=" ">
<path fill="none" stroke="#63b8ff" d="M1141.01,-15.71C1127.21,-12.17 1112.29,-8.96 1098.25,-7.17 1044.24,-0.27 1028.98,4.29 975.75,-7.17 948.01,-13.14 918.76,-27.11 898.34,-38.28"/>
<polygon fill="#63b8ff" stroke="#63b8ff" points="896.84,-35.11 889.85,-43.07 900.28,-41.21 896.84,-35.11"/>
</a>
</g>
</g>
<!-- Node16 -->
<g id="Node000016" class="node">
<title>Node16</title>
<g id="a_Node000016"><a xlink:href="a00421.html#aa9d4bfd5269173c2f6aed44f79bf976e" target="_top" xlink:title="from https://www.zhihu.com/question/36642771, delim is regex(ignore last +)">
<polygon fill="white" stroke="#666666" points="619.75,-93.17 515.25,-93.17 515.25,-73.17 619.75,-73.17 619.75,-93.17"/>
<text text-anchor="middle" x="567.5" y="-79.67" font-family="Helvetica,sans-Serif" font-size="10.00">MiraiCP::Tools::split</text>
</a>
</g>
</g>
<!-- Node15&#45;&gt;Node16 -->
<g id="edge19_Node000015_Node000016" class="edge">
<title>Node15&#45;&gt;Node16</title>
<g id="a_edge19_Node000015_Node000016"><a xlink:title=" ">
<path fill="none" stroke="#63b8ff" d="M477.23,-83.17C485.92,-83.17 494.88,-83.17 503.62,-83.17"/>
<polygon fill="#63b8ff" stroke="#63b8ff" points="503.42,-86.67 513.42,-83.17 503.42,-79.67 503.42,-86.67"/>
</a>
</g>
</g>
</g>
</svg>
