<?xml version="1.0" encoding="UTF-8" standalone="no"?>
<!DOCTYPE svg PUBLIC "-//W3C//DTD SVG 1.1//EN"
 "http://www.w3.org/Graphics/SVG/1.1/DTD/svg11.dtd">
<!-- Generated by graphviz version 9.0.0 (0)
 -->
<!-- Title: MiraiCP::ThreadTask::internal::get_mutex Pages: 1 -->
<svg width="418pt" height="158pt"
 viewBox="0.00 0.00 417.50 158.00" xmlns="http://www.w3.org/2000/svg" xmlns:xlink="http://www.w3.org/1999/xlink">
<g id="graph0" class="graph" transform="scale(1 1) rotate(0) translate(4 154)">
<title>MiraiCP::ThreadTask::internal::get_mutex</title>
<!-- Node1 -->
<g id="Node000001" class="node">
<title>Node1</title>
<g id="a_Node000001"><a xlink:title=" ">
<polygon fill="#999999" stroke="#666666" points="409.5,-107 301.25,-107 301.25,-75 409.5,-75 409.5,-107"/>
<text text-anchor="start" x="309.25" y="-93.5" font-family="Helvetica,sans-Serif" font-size="10.00">MiraiCP::ThreadTask</text>
<text text-anchor="middle" x="355.38" y="-81.5" font-family="Helvetica,sans-Serif" font-size="10.00">::internal::get_mutex</text>
</a>
</g>
</g>
<!-- Node2 -->
<g id="Node000002" class="node">
<title>Node2</title>
<g id="a_Node000002"><a xlink:href="a00420.html#ac0e1bc3b94e5ebafbad6fde1a0eb55fc" target="_top" xlink:title=" ">
<polygon fill="white" stroke="#666666" points="108.25,-150 0,-150 0,-118 108.25,-118 108.25,-150"/>
<text text-anchor="start" x="8" y="-136.5" font-family="Helvetica,sans-Serif" font-size="10.00">MiraiCP::ThreadTask</text>
<text text-anchor="middle" x="54.12" y="-124.5" font-family="Helvetica,sans-Serif" font-size="10.00">::internal::push_task</text>
</a>
</g>
</g>
<!-- Node1&#45;&gt;Node2 -->
<g id="edge1_Node000001_Node000002" class="edge">
<title>Node1&#45;&gt;Node2</title>
<g id="a_edge1_Node000001_Node000002"><a xlink:title=" ">
<path fill="none" stroke="#63b8ff" d="M318.42,-112.91C302.69,-121.27 283.66,-129.79 265.25,-134 212.97,-145.95 151.45,-144.18 108.53,-140.5"/>
<polygon fill="#63b8ff" stroke="#63b8ff" points="319.85,-116.12 326.91,-108.23 316.46,-109.99 319.85,-116.12"/>
</a>
</g>
</g>
<!-- Node3 -->
<g id="Node000003" class="node">
<title>Node3</title>
<g id="a_Node000003"><a xlink:href="a00420.html#ab890e46143438cf7d678f6e4f2dcb9d0" target="_top" xlink:title=" ">
<polygon fill="white" stroke="#666666" points="262.62,-57 146.88,-57 146.88,-25 262.62,-25 262.62,-57"/>
<text text-anchor="start" x="154.88" y="-43.5" font-family="Helvetica,sans-Serif" font-size="10.00">MiraiCP::ThreadTask</text>
<text text-anchor="middle" x="204.75" y="-31.5" font-family="Helvetica,sans-Serif" font-size="10.00">::internal::remove_task</text>
</a>
</g>
</g>
<!-- Node1&#45;&gt;Node3 -->
<g id="edge2_Node000001_Node000003" class="edge">
<title>Node1&#45;&gt;Node3</title>
<g id="a_edge2_Node000001_Node000003"><a xlink:title=" ">
<path fill="none" stroke="#63b8ff" d="M295.15,-71.08C281.76,-66.57 267.69,-61.84 254.78,-57.49"/>
<polygon fill="#63b8ff" stroke="#63b8ff" points="293.68,-74.27 304.28,-74.15 295.91,-67.64 293.68,-74.27"/>
</a>
</g>
</g>
<!-- Node6 -->
<g id="Node000006" class="node">
<title>Node6</title>
<g id="a_Node000006"><a xlink:href="a00420.html#a954499687c36452be430af25a7e94750" target="_top" xlink:title=" ">
<polygon fill="white" stroke="#666666" points="265.25,-107 144.25,-107 144.25,-75 265.25,-75 265.25,-107"/>
<text text-anchor="start" x="152.25" y="-93.5" font-family="Helvetica,sans-Serif" font-size="10.00">MiraiCP::ThreadTask</text>
<text text-anchor="middle" x="204.75" y="-81.5" font-family="Helvetica,sans-Serif" font-size="10.00">::internal::task_interface</text>
</a>
</g>
</g>
<!-- Node1&#45;&gt;Node6 -->
<g id="edge5_Node000001_Node000006" class="edge">
<title>Node1&#45;&gt;Node6</title>
<g id="a_edge5_Node000001_Node000006"><a xlink:title=" ">
<path fill="none" stroke="#63b8ff" d="M289.63,-91C281.67,-91 273.57,-91 265.68,-91"/>
<polygon fill="#63b8ff" stroke="#63b8ff" points="289.62,-94.5 299.62,-91 289.62,-87.5 289.62,-94.5"/>
</a>
</g>
</g>
<!-- Node4 -->
<g id="Node000004" class="node">
<title>Node4</title>
<g id="a_Node000004"><a xlink:href="a00419.html#ad89a78a5c9164f1e56e895c48ee1ec22" target="_top" xlink:title="提交一个任务到线程池，参数与构造 std::thread 以及 MiraiCPNewThread 用的参数相同。 任务在线程池可用时会被立刻执行。与 promiseTask 不同，不会给出任务返回值">
<polygon fill="white" stroke="#666666" points="108.25,-82 0,-82 0,-50 108.25,-50 108.25,-82"/>
<text text-anchor="start" x="8" y="-68.5" font-family="Helvetica,sans-Serif" font-size="10.00">MiraiCP::ThreadTask</text>
<text text-anchor="middle" x="54.12" y="-56.5" font-family="Helvetica,sans-Serif" font-size="10.00">::addTask</text>
</a>
</g>
</g>
<!-- Node3&#45;&gt;Node4 -->
<g id="edge3_Node000003_Node000004" class="edge">
<title>Node3&#45;&gt;Node4</title>
<g id="a_edge3_Node000003_Node000004"><a xlink:title=" ">
<path fill="none" stroke="#63b8ff" d="M135.64,-52.46C126.48,-54 117.2,-55.56 108.35,-57.05"/>
<polygon fill="#63b8ff" stroke="#63b8ff" points="135.94,-55.96 145.22,-50.85 134.78,-49.05 135.94,-55.96"/>
</a>
</g>
</g>
<!-- Node5 -->
<g id="Node000005" class="node">
<title>Node5</title>
<g id="a_Node000005"><a xlink:href="a00419.html#ab84de57ea7f15a70da47472adc87061a" target="_top" xlink:title="提交一个任务到线程池，参数与构造 std::thread 以及 MiraiCPNewThread 用的参数相同。 任务在线程池可用时会被立刻执行">
<polygon fill="white" stroke="#666666" points="108.25,-32 0,-32 0,0 108.25,0 108.25,-32"/>
<text text-anchor="start" x="8" y="-18.5" font-family="Helvetica,sans-Serif" font-size="10.00">MiraiCP::ThreadTask</text>
<text text-anchor="middle" x="54.12" y="-6.5" font-family="Helvetica,sans-Serif" font-size="10.00">::promiseTask</text>
</a>
</g>
</g>
<!-- Node3&#45;&gt;Node5 -->
<g id="edge4_Node000003_Node000005" class="edge">
<title>Node3&#45;&gt;Node5</title>
<g id="a_edge4_Node000003_Node000005"><a xlink:title=" ">
<path fill="none" stroke="#63b8ff" d="M135.64,-29.54C126.48,-28 117.2,-26.44 108.35,-24.95"/>
<polygon fill="#63b8ff" stroke="#63b8ff" points="134.78,-32.95 145.22,-31.15 135.94,-26.04 134.78,-32.95"/>
</a>
</g>
</g>
<!-- Node6&#45;&gt;Node2 -->
<g id="edge6_Node000006_Node000002" class="edge">
<title>Node6&#45;&gt;Node2</title>
<g id="a_edge6_Node000006_Node000002"><a xlink:title=" ">
<path fill="none" stroke="#63b8ff" d="M136.34,-110.5C127.06,-113.19 117.63,-115.92 108.64,-118.52"/>
<polygon fill="#63b8ff" stroke="#63b8ff" points="137.05,-113.94 145.68,-107.8 135.1,-107.22 137.05,-113.94"/>
</a>
</g>
</g>
<!-- Node6&#45;&gt;Node6 -->
<g id="edge7_Node000006_Node000006" class="edge">
<title>Node6&#45;&gt;Node6</title>
<g id="a_edge7_Node000006_Node000006"><a xlink:title=" ">
<path fill="none" stroke="#63b8ff" d="M229.85,-118.71C225.67,-122.48 217.3,-125 204.75,-125 181.8,-125 172.84,-116.58 177.86,-107.44"/>
<polygon fill="#63b8ff" stroke="#63b8ff" points="233.29,-119.36 231.4,-108.94 226.38,-118.26 233.29,-119.36"/>
</a>
</g>
</g>
</g>
</svg>
