<?xml version="1.0" encoding="UTF-8" standalone="no"?>
<!DOCTYPE svg PUBLIC "-//W3C//DTD SVG 1.1//EN"
 "http://www.w3.org/Graphics/SVG/1.1/DTD/svg11.dtd">
<!-- Generated by graphviz version 9.0.0 (0)
 -->
<!-- Title: LibLoader::MessageHandler::push_task_with_id_message Pages: 1 -->
<svg width="1786pt" height="282pt"
 viewBox="0.00 0.00 1786.00 282.00" xmlns="http://www.w3.org/2000/svg" xmlns:xlink="http://www.w3.org/1999/xlink">
<g id="graph0" class="graph" transform="scale(1 1) rotate(0) translate(4 278)">
<title>LibLoader::MessageHandler::push_task_with_id_message</title>
<!-- Node1 -->
<g id="Node000001" class="node">
<title>Node1</title>
<g id="a_Node000001"><a xlink:title=" ">
<polygon fill="#999999" stroke="#666666" points="1778,-38 1630,-38 1630,-6 1778,-6 1778,-38"/>
<text text-anchor="start" x="1638" y="-24.5" font-family="Helvetica,sans-Serif" font-size="10.00">LibLoader::MessageHandler</text>
<text text-anchor="middle" x="1704" y="-12.5" font-family="Helvetica,sans-Serif" font-size="10.00">::push_task_with_id_message</text>
</a>
</g>
</g>
<!-- Node2 -->
<g id="Node000002" class="node">
<title>Node2</title>
<g id="a_Node000002"><a xlink:href="a00892.html#ac44a2bba9059176d3ccb04ed1eb065a3" target="_top" xlink:title=" ">
<polygon fill="white" stroke="#666666" points="1594,-38 1446,-38 1446,-6 1594,-6 1594,-38"/>
<text text-anchor="start" x="1454" y="-24.5" font-family="Helvetica,sans-Serif" font-size="10.00">LibLoader::MessageProcessor</text>
<text text-anchor="middle" x="1520" y="-12.5" font-family="Helvetica,sans-Serif" font-size="10.00">::registerDefaultHandlers</text>
</a>
</g>
</g>
<!-- Node1&#45;&gt;Node2 -->
<g id="edge1_Node000001_Node000002" class="edge">
<title>Node1&#45;&gt;Node2</title>
<g id="a_edge1_Node000001_Node000002"><a xlink:title=" ">
<path fill="none" stroke="#63b8ff" d="M1618.46,-22C1610.42,-22 1602.31,-22 1594.39,-22"/>
<polygon fill="#63b8ff" stroke="#63b8ff" points="1618.25,-25.5 1628.25,-22 1618.25,-18.5 1618.25,-25.5"/>
</a>
</g>
</g>
<!-- Node3 -->
<g id="Node000003" class="node">
<title>Node3</title>
<g id="a_Node000003"><a xlink:href="a00884.html#ac95c9bf6b208cbeab2e9b1cdfcb7c3d6" target="_top" xlink:title=" ">
<polygon fill="white" stroke="#666666" points="1410,-85 1268.75,-85 1268.75,-53 1410,-53 1410,-85"/>
<text text-anchor="start" x="1276.75" y="-71.5" font-family="Helvetica,sans-Serif" font-size="10.00">LibLoader::MessageManager</text>
<text text-anchor="middle" x="1339.38" y="-59.5" font-family="Helvetica,sans-Serif" font-size="10.00">::init</text>
</a>
</g>
</g>
<!-- Node2&#45;&gt;Node3 -->
<g id="edge2_Node000002_Node000003" class="edge">
<title>Node2&#45;&gt;Node3</title>
<g id="a_edge2_Node000002_Node000003"><a xlink:title=" ">
<path fill="none" stroke="#63b8ff" d="M1445.76,-41.27C1431.5,-45.02 1416.68,-48.92 1402.81,-52.57"/>
<polygon fill="#63b8ff" stroke="#63b8ff" points="1446.28,-44.75 1455.06,-38.82 1444.5,-37.98 1446.28,-44.75"/>
</a>
</g>
</g>
<!-- Node4 -->
<g id="Node000004" class="node">
<title>Node4</title>
<g id="a_Node000004"><a xlink:href="a00880.html#a79cbc18aabed7afe2c7ea30f989ffc8c" target="_top" xlink:title="LoaderMain实现开始">
<polygon fill="white" stroke="#666666" points="1232.75,-97 1118.5,-97 1118.5,-65 1232.75,-65 1232.75,-97"/>
<text text-anchor="start" x="1126.5" y="-83.5" font-family="Helvetica,sans-Serif" font-size="10.00">LibLoader::LoaderMain</text>
<text text-anchor="middle" x="1175.62" y="-71.5" font-family="Helvetica,sans-Serif" font-size="10.00">::loaderMain</text>
</a>
</g>
</g>
<!-- Node3&#45;&gt;Node4 -->
<g id="edge3_Node000003_Node000004" class="edge">
<title>Node3&#45;&gt;Node4</title>
<g id="a_edge3_Node000003_Node000004"><a xlink:title=" ">
<path fill="none" stroke="#63b8ff" d="M1256.98,-75.04C1248.91,-75.64 1240.84,-76.24 1233.11,-76.81"/>
<polygon fill="#63b8ff" stroke="#63b8ff" points="1257.15,-78.54 1266.86,-74.31 1256.63,-71.56 1257.15,-78.54"/>
</a>
</g>
</g>
<!-- Node5 -->
<g id="Node000005" class="node">
<title>Node5</title>
<g id="a_Node000005"><a xlink:href="a00880.html#a22eacbd6aa585f32d0fccce0a69ab642" target="_top" xlink:title=" ">
<polygon fill="white" stroke="#666666" points="1082.5,-151 948.75,-151 948.75,-131 1082.5,-131 1082.5,-151"/>
<text text-anchor="middle" x="1015.62" y="-137.5" font-family="Helvetica,sans-Serif" font-size="10.00">LibLoader::LoaderMain::get</text>
</a>
</g>
</g>
<!-- Node4&#45;&gt;Node5 -->
<g id="edge4_Node000004_Node000005" class="edge">
<title>Node4&#45;&gt;Node5</title>
<g id="a_edge4_Node000004_Node000005"><a xlink:title=" ">
<path fill="none" stroke="#63b8ff" d="M1120.99,-101.37C1095.05,-111.22 1065.02,-122.62 1043.85,-130.66"/>
<polygon fill="#63b8ff" stroke="#63b8ff" points="1121.93,-104.75 1130.04,-97.93 1119.44,-98.21 1121.93,-104.75"/>
</a>
</g>
</g>
<!-- Node24 -->
<g id="Node000024" class="node">
<title>Node24</title>
<g id="a_Node000024"><a xlink:href="a00314.html#aafbc26593c69471626589f38c751ef09" target="_top" xlink:title=" ">
<polygon fill="white" stroke="#666666" points="877.88,-218 818.38,-218 818.38,-198 877.88,-198 877.88,-218"/>
<text text-anchor="middle" x="848.12" y="-204.5" font-family="Helvetica,sans-Serif" font-size="10.00">VerifyImpl</text>
</a>
</g>
</g>
<!-- Node4&#45;&gt;Node24 -->
<g id="edge28_Node000004_Node000024" class="edge">
<title>Node4&#45;&gt;Node24</title>
<g id="a_edge28_Node000004_Node000024"><a xlink:title=" ">
<path fill="none" stroke="#63b8ff" d="M1152.62,-105.64C1135.31,-123.47 1109.65,-146.69 1082.5,-160 1014.35,-193.41 923.99,-203.59 878.28,-206.67"/>
<polygon fill="#63b8ff" stroke="#63b8ff" points="1155.06,-108.16 1159.38,-98.49 1149.97,-103.36 1155.06,-108.16"/>
</a>
</g>
</g>
<!-- Node6 -->
<g id="Node000006" class="node">
<title>Node6</title>
<g id="a_Node000006"><a xlink:href="a00425.html#a46f4ab12479d61956e7dc81cfb19fef5" target="_top" xlink:title=" ">
<polygon fill="white" stroke="#666666" points="912.75,-142 783.5,-142 783.5,-122 912.75,-122 912.75,-142"/>
<text text-anchor="middle" x="848.12" y="-128.5" font-family="Helvetica,sans-Serif" font-size="10.00">LibLoader::loaderWakeCV</text>
</a>
</g>
</g>
<!-- Node5&#45;&gt;Node6 -->
<g id="edge5_Node000005_Node000006" class="edge">
<title>Node5&#45;&gt;Node6</title>
<g id="a_edge5_Node000005_Node000006"><a xlink:title=" ">
<path fill="none" stroke="#63b8ff" d="M937.01,-136.78C929,-136.34 920.92,-135.9 913.08,-135.48"/>
<polygon fill="#63b8ff" stroke="#63b8ff" points="936.58,-140.26 946.75,-137.31 936.96,-133.27 936.58,-140.26"/>
</a>
</g>
</g>
<!-- Node14 -->
<g id="Node000014" class="node">
<title>Node14</title>
<g id="a_Node000014"><a xlink:href="a00314.html#a2e0217581c8df7fd1fc867cc3a8317d3" target="_top" xlink:title=" ">
<polygon fill="white" stroke="#666666" points="736.62,-236 641.88,-236 641.88,-216 736.62,-216 736.62,-236"/>
<text text-anchor="middle" x="689.25" y="-222.5" font-family="Helvetica,sans-Serif" font-size="10.00">PluginDisableImpl</text>
</a>
</g>
</g>
<!-- Node5&#45;&gt;Node14 -->
<g id="edge25_Node000005_Node000014" class="edge">
<title>Node5&#45;&gt;Node14</title>
<g id="a_edge25_Node000005_Node000014"><a xlink:title=" ">
<path fill="none" stroke="#63b8ff" d="M937.11,-151.95C891.59,-159.64 833.38,-171.68 783.5,-189 766.6,-194.87 764.03,-200.17 747.5,-207 740.14,-210.04 732.11,-212.95 724.45,-215.54"/>
<polygon fill="#63b8ff" stroke="#63b8ff" points="937.61,-155.41 946.91,-150.33 936.47,-148.5 937.61,-155.41"/>
</a>
</g>
</g>
<!-- Node5&#45;&gt;Node24 -->
<g id="edge26_Node000005_Node000024" class="edge">
<title>Node5&#45;&gt;Node24</title>
<g id="a_edge26_Node000005_Node000024"><a xlink:title=" ">
<path fill="none" stroke="#63b8ff" d="M980.53,-155.78C960.8,-164.23 935.46,-174.93 912.75,-184 901.24,-188.6 888.47,-193.46 877.4,-197.6"/>
<polygon fill="#63b8ff" stroke="#63b8ff" points="981.66,-159.1 989.46,-151.94 978.9,-152.67 981.66,-159.1"/>
</a>
</g>
</g>
<!-- Node7 -->
<g id="Node000007" class="node">
<title>Node7</title>
<g id="a_Node000007"><a xlink:href="a00880.html#a9ca8ba2c9fcbfade9adf4a0a2bb47eaa" target="_top" xlink:title=" ">
<polygon fill="white" stroke="#666666" points="746.38,-60 632.12,-60 632.12,-28 746.38,-28 746.38,-60"/>
<text text-anchor="start" x="640.12" y="-46.5" font-family="Helvetica,sans-Serif" font-size="10.00">LibLoader::LoaderMain</text>
<text text-anchor="middle" x="689.25" y="-34.5" font-family="Helvetica,sans-Serif" font-size="10.00">::mainloop</text>
</a>
</g>
</g>
<!-- Node6&#45;&gt;Node7 -->
<g id="edge6_Node000006_Node000007" class="edge">
<title>Node6&#45;&gt;Node7</title>
<g id="a_edge6_Node000006_Node000007"><a xlink:title=" ">
<path fill="none" stroke="#63b8ff" d="M818.2,-115.98C807.19,-109.68 794.62,-102.23 783.5,-95 766.95,-84.25 764.64,-78.78 747.5,-69 742.23,-65.99 736.52,-63.1 730.82,-60.42"/>
<polygon fill="#63b8ff" stroke="#63b8ff" points="816.43,-119 826.86,-120.88 819.88,-112.91 816.43,-119"/>
</a>
</g>
</g>
<!-- Node8 -->
<g id="Node000008" class="node">
<title>Node8</title>
<g id="a_Node000008"><a xlink:href="a00281.html#a36a04ab86ecc081ee51d32866ef7a332" target="_top" xlink:title=" ">
<polygon fill="white" stroke="#666666" points="739.62,-198 638.88,-198 638.88,-166 739.62,-166 739.62,-198"/>
<text text-anchor="start" x="646.88" y="-184.5" font-family="Helvetica,sans-Serif" font-size="10.00">plugin_raw_API_try</text>
<text text-anchor="middle" x="689.25" y="-172.5" font-family="Helvetica,sans-Serif" font-size="10.00">_wake_loader</text>
</a>
</g>
</g>
<!-- Node6&#45;&gt;Node8 -->
<g id="edge8_Node000006_Node000008" class="edge">
<title>Node6&#45;&gt;Node8</title>
<g id="a_edge8_Node000006_Node000008"><a xlink:title=" ">
<path fill="none" stroke="#63b8ff" d="M803.43,-145.93C783.76,-152.19 760.44,-159.63 740.1,-166.11"/>
<polygon fill="#63b8ff" stroke="#63b8ff" points="804.33,-149.31 812.8,-142.94 802.21,-142.64 804.33,-149.31"/>
</a>
</g>
</g>
<!-- Node6&#45;&gt;Node14 -->
<g id="edge14_Node000006_Node000014" class="edge">
<title>Node6&#45;&gt;Node14</title>
<g id="a_edge14_Node000006_Node000014"><a xlink:title=" ">
<path fill="none" stroke="#63b8ff" d="M798.29,-146.9C793.05,-149.5 788,-152.52 783.5,-156 761.55,-172.98 769.78,-190.47 747.5,-207 742.87,-210.43 737.59,-213.27 732.15,-215.6"/>
<polygon fill="#63b8ff" stroke="#63b8ff" points="799.41,-150.23 807.13,-142.98 796.57,-143.83 799.41,-150.23"/>
</a>
</g>
</g>
<!-- Node16 -->
<g id="Node000016" class="node">
<title>Node16</title>
<g id="a_Node000016"><a xlink:href="a00432.html#a746efd674de5c56de789a0c03be7948e" target="_top" xlink:title="新增一个计时器，对接libLoader API">
<polygon fill="white" stroke="#666666" points="743,-148 635.5,-148 635.5,-116 743,-116 743,-148"/>
<text text-anchor="start" x="643.5" y="-134.5" font-family="Helvetica,sans-Serif" font-size="10.00">LibLoader::Scheduler</text>
<text text-anchor="middle" x="689.25" y="-122.5" font-family="Helvetica,sans-Serif" font-size="10.00">::timer</text>
</a>
</g>
</g>
<!-- Node6&#45;&gt;Node16 -->
<g id="edge16_Node000006_Node000016" class="edge">
<title>Node6&#45;&gt;Node16</title>
<g id="a_edge16_Node000006_Node000016"><a xlink:title=" ">
<path fill="none" stroke="#63b8ff" d="M772.05,-132C762.4,-132 752.67,-132 743.47,-132"/>
<polygon fill="#63b8ff" stroke="#63b8ff" points="771.8,-135.5 781.8,-132 771.8,-128.5 771.8,-135.5"/>
</a>
</g>
</g>
<!-- Node21 -->
<g id="Node000021" class="node">
<title>Node21</title>
<g id="a_Node000021"><a xlink:href="a00425.html#a4bd4ee75c4f2ea14034626c7cbf73bb4" target="_top" xlink:title=" ">
<polygon fill="white" stroke="#666666" points="747.5,-98 631,-98 631,-78 747.5,-78 747.5,-98"/>
<text text-anchor="middle" x="689.25" y="-84.5" font-family="Helvetica,sans-Serif" font-size="10.00">LibLoader::wakeLoader</text>
</a>
</g>
</g>
<!-- Node6&#45;&gt;Node21 -->
<g id="edge22_Node000006_Node000021" class="edge">
<title>Node6&#45;&gt;Node21</title>
<g id="a_edge22_Node000006_Node000021"><a xlink:title=" ">
<path fill="none" stroke="#63b8ff" d="M799.02,-118.51C775.99,-112.05 748.85,-104.43 727.43,-98.43"/>
<polygon fill="#63b8ff" stroke="#63b8ff" points="797.92,-121.83 808.49,-121.16 799.81,-115.09 797.92,-121.83"/>
</a>
</g>
</g>
<!-- Node7&#45;&gt;Node4 -->
<g id="edge7_Node000007_Node000004" class="edge">
<title>Node7&#45;&gt;Node4</title>
<g id="a_edge7_Node000007_Node000004"><a xlink:title=" ">
<path fill="none" stroke="#63b8ff" d="M758.11,-49.18C854.3,-56.53 1028.54,-69.84 1118.11,-76.68"/>
<polygon fill="#63b8ff" stroke="#63b8ff" points="758.52,-45.71 748.29,-48.43 757.99,-52.68 758.52,-45.71"/>
</a>
</g>
</g>
<!-- Node9 -->
<g id="Node000009" class="node">
<title>Node9</title>
<g id="a_Node000009"><a xlink:href="a00916.html#a14895bee64bb1c12e16b97d038b699b7" target="_top" xlink:title="这部分是一些工具函数、对象">
<polygon fill="white" stroke="#666666" points="565.75,-198 468.75,-198 468.75,-166 565.75,-166 565.75,-198"/>
<text text-anchor="start" x="476.75" y="-184.5" font-family="Helvetica,sans-Serif" font-size="10.00">LibLoader::Plugin::</text>
<text text-anchor="middle" x="517.25" y="-172.5" font-family="Helvetica,sans-Serif" font-size="10.00">callEntrance</text>
</a>
</g>
</g>
<!-- Node8&#45;&gt;Node9 -->
<g id="edge9_Node000008_Node000009" class="edge">
<title>Node8&#45;&gt;Node9</title>
<g id="a_edge9_Node000008_Node000009"><a xlink:title=" ">
<path fill="none" stroke="#63b8ff" d="M627.37,-182C607.26,-182 585.18,-182 566.18,-182"/>
<polygon fill="#63b8ff" stroke="#63b8ff" points="627.11,-185.5 637.11,-182 627.11,-178.5 627.11,-185.5"/>
</a>
</g>
</g>
<!-- Node10 -->
<g id="Node000010" class="node">
<title>Node10</title>
<g id="a_Node000010"><a xlink:href="a00916.html#a450c1c6820ab6c5417691359d88d8220" target="_top" xlink:title=" ">
<polygon fill="white" stroke="#666666" points="383.25,-198 286.25,-198 286.25,-166 383.25,-166 383.25,-198"/>
<text text-anchor="start" x="294.25" y="-184.5" font-family="Helvetica,sans-Serif" font-size="10.00">LibLoader::Plugin::</text>
<text text-anchor="middle" x="334.75" y="-172.5" font-family="Helvetica,sans-Serif" font-size="10.00">enableInternal</text>
</a>
</g>
</g>
<!-- Node9&#45;&gt;Node10 -->
<g id="edge10_Node000009_Node000010" class="edge">
<title>Node9&#45;&gt;Node10</title>
<g id="a_edge10_Node000009_Node000010"><a xlink:title=" ">
<path fill="none" stroke="#63b8ff" d="M456.96,-182C433.15,-182 406.07,-182 383.56,-182"/>
<polygon fill="#63b8ff" stroke="#63b8ff" points="456.84,-185.5 466.84,-182 456.84,-178.5 456.84,-185.5"/>
</a>
</g>
</g>
<!-- Node11 -->
<g id="Node000011" class="node">
<title>Node11</title>
<g id="a_Node000011"><a xlink:href="a00916.html#a549e3729f8aeb27208ef5aecb434eef1" target="_top" xlink:title=" ">
<polygon fill="white" stroke="#666666" points="230,-195 133,-195 133,-163 230,-163 230,-195"/>
<text text-anchor="start" x="141" y="-181.5" font-family="Helvetica,sans-Serif" font-size="10.00">LibLoader::Plugin::</text>
<text text-anchor="middle" x="181.5" y="-169.5" font-family="Helvetica,sans-Serif" font-size="10.00">enablePlugin</text>
</a>
</g>
</g>
<!-- Node10&#45;&gt;Node11 -->
<g id="edge11_Node000010_Node000011" class="edge">
<title>Node10&#45;&gt;Node11</title>
<g id="a_edge11_Node000010_Node000011"><a xlink:title=" ">
<path fill="none" stroke="#63b8ff" d="M274.39,-180.82C259.77,-180.53 244.3,-180.23 230.3,-179.95"/>
<polygon fill="#63b8ff" stroke="#63b8ff" points="274.31,-184.32 284.38,-181.02 274.45,-177.32 274.31,-184.32"/>
</a>
</g>
</g>
<!-- Node12 -->
<g id="Node000012" class="node">
<title>Node12</title>
<g id="a_Node000012"><a xlink:href="a00916.html#a8636d0418d741a19bbd9183316cd5c59" target="_top" xlink:title=" ">
<polygon fill="white" stroke="#666666" points="230,-245 133,-245 133,-213 230,-213 230,-245"/>
<text text-anchor="start" x="141" y="-231.5" font-family="Helvetica,sans-Serif" font-size="10.00">LibLoader::Plugin::</text>
<text text-anchor="middle" x="181.5" y="-219.5" font-family="Helvetica,sans-Serif" font-size="10.00">loadInternal</text>
</a>
</g>
</g>
<!-- Node10&#45;&gt;Node12 -->
<g id="edge12_Node000010_Node000012" class="edge">
<title>Node10&#45;&gt;Node12</title>
<g id="a_edge12_Node000010_Node000012"><a xlink:title=" ">
<path fill="none" stroke="#63b8ff" d="M275.26,-200.17C260.39,-204.8 244.58,-209.71 230.3,-214.15"/>
<polygon fill="#63b8ff" stroke="#63b8ff" points="275.94,-203.63 284.45,-197.32 273.86,-196.95 275.94,-203.63"/>
</a>
</g>
</g>
<!-- Node13 -->
<g id="Node000013" class="node">
<title>Node13</title>
<g id="a_Node000013"><a xlink:href="a00916.html#a891ce42f23fe1312ef6cad2accf4ab92" target="_top" xlink:title=" ">
<polygon fill="white" stroke="#666666" points="97,-245 0,-245 0,-213 97,-213 97,-245"/>
<text text-anchor="start" x="8" y="-231.5" font-family="Helvetica,sans-Serif" font-size="10.00">LibLoader::Plugin::</text>
<text text-anchor="middle" x="48.5" y="-219.5" font-family="Helvetica,sans-Serif" font-size="10.00">loadPlugin</text>
</a>
</g>
</g>
<!-- Node12&#45;&gt;Node13 -->
<g id="edge13_Node000012_Node000013" class="edge">
<title>Node12&#45;&gt;Node13</title>
<g id="a_edge13_Node000012_Node000013"><a xlink:title=" ">
<path fill="none" stroke="#63b8ff" d="M121.53,-229C113.44,-229 105.21,-229 97.35,-229"/>
<polygon fill="#63b8ff" stroke="#63b8ff" points="121.32,-232.5 131.32,-229 121.32,-225.5 121.32,-232.5"/>
</a>
</g>
</g>
<!-- Node15 -->
<g id="Node000015" class="node">
<title>Node15</title>
<g id="a_Node000015"><a xlink:href="a00314.html#a054b75b2be22897678d22ce9a72d91df" target="_top" xlink:title=" ">
<polygon fill="white" stroke="#666666" points="555.25,-236 479.25,-236 479.25,-216 555.25,-216 555.25,-236"/>
<text text-anchor="middle" x="517.25" y="-222.5" font-family="Helvetica,sans-Serif" font-size="10.00">PluginDisable</text>
</a>
</g>
</g>
<!-- Node14&#45;&gt;Node15 -->
<g id="edge15_Node000014_Node000015" class="edge">
<title>Node14&#45;&gt;Node15</title>
<g id="a_edge15_Node000014_Node000015"><a xlink:title=" ">
<path fill="none" stroke="#63b8ff" d="M630.33,-226C605.58,-226 577.41,-226 555.5,-226"/>
<polygon fill="#63b8ff" stroke="#63b8ff" points="630.28,-229.5 640.28,-226 630.28,-222.5 630.28,-229.5"/>
</a>
</g>
</g>
<!-- Node17 -->
<g id="Node000017" class="node">
<title>Node17</title>
<g id="a_Node000017"><a xlink:href="a00426.html#a05f1524120bb7a5a65abbde063d9e557" target="_top" xlink:title=" ">
<polygon fill="white" stroke="#666666" points="571,-148 463.5,-148 463.5,-116 571,-116 571,-148"/>
<text text-anchor="start" x="471.5" y="-134.5" font-family="Helvetica,sans-Serif" font-size="10.00">LibLoader::LoaderApi</text>
<text text-anchor="middle" x="517.25" y="-122.5" font-family="Helvetica,sans-Serif" font-size="10.00">::timer</text>
</a>
</g>
</g>
<!-- Node16&#45;&gt;Node17 -->
<g id="edge17_Node000016_Node000017" class="edge">
<title>Node16&#45;&gt;Node17</title>
<g id="a_edge17_Node000016_Node000017"><a xlink:title=" ">
<path fill="none" stroke="#63b8ff" d="M624.17,-132C606.76,-132 588.1,-132 571.37,-132"/>
<polygon fill="#63b8ff" stroke="#63b8ff" points="623.88,-135.5 633.88,-132 623.88,-128.5 623.88,-135.5"/>
</a>
</g>
</g>
<!-- Node18 -->
<g id="Node000018" class="node">
<title>Node18</title>
<g id="a_Node000018"><a xlink:href="a00412.html#a0edd1fee858de73bb144b4f7832a573d" target="_top" xlink:title="定时任务, 在一定时间后广播**一次**TimeOutEvent">
<polygon fill="white" stroke="#666666" points="382.88,-142 286.62,-142 286.62,-122 382.88,-122 382.88,-142"/>
<text text-anchor="middle" x="334.75" y="-128.5" font-family="Helvetica,sans-Serif" font-size="10.00">MiraiCP::schedule</text>
</a>
</g>
</g>
<!-- Node17&#45;&gt;Node18 -->
<g id="edge18_Node000017_Node000018" class="edge">
<title>Node17&#45;&gt;Node18</title>
<g id="a_edge18_Node000017_Node000018"><a xlink:title=" ">
<path fill="none" stroke="#63b8ff" d="M451.85,-132C429.25,-132 404.3,-132 383.33,-132"/>
<polygon fill="#63b8ff" stroke="#63b8ff" points="451.56,-135.5 461.56,-132 451.56,-128.5 451.56,-135.5"/>
</a>
</g>
</g>
<!-- Node20 -->
<g id="Node000020" class="node">
<title>Node20</title>
<g id="a_Node000020"><a xlink:href="a00431.html#ac6360f8f60a063ca92ee816f65a8a2a1" target="_top" xlink:title=" ">
<polygon fill="white" stroke="#666666" points="403.5,-60 266,-60 266,-28 403.5,-28 403.5,-60"/>
<text text-anchor="start" x="274" y="-46.5" font-family="Helvetica,sans-Serif" font-size="10.00">LibLoader::MessageHandler</text>
<text text-anchor="middle" x="334.75" y="-34.5" font-family="Helvetica,sans-Serif" font-size="10.00">::timer_message</text>
</a>
</g>
</g>
<!-- Node17&#45;&gt;Node20 -->
<g id="edge20_Node000017_Node000020" class="edge">
<title>Node17&#45;&gt;Node20</title>
<g id="a_edge20_Node000017_Node000020"><a xlink:title=" ">
<path fill="none" stroke="#63b8ff" d="M452.64,-112.56C448.15,-110.8 443.73,-108.94 439.5,-107 410.58,-93.73 379.68,-74.19 359.2,-60.4"/>
<polygon fill="#63b8ff" stroke="#63b8ff" points="451.19,-115.75 461.78,-115.97 453.64,-109.2 451.19,-115.75"/>
</a>
</g>
</g>
<!-- Node19 -->
<g id="Node000019" class="node">
<title>Node19</title>
<g id="a_Node000019"><a xlink:href="a00412.html#a9d9b304caa9cf25c6f148b99ee9651f6" target="_top" xlink:title="定时任务, 在一定时间后广播**一次**TimeOutEvent，chrono重载">
<polygon fill="white" stroke="#666666" points="229.62,-142 133.38,-142 133.38,-122 229.62,-122 229.62,-142"/>
<text text-anchor="middle" x="181.5" y="-128.5" font-family="Helvetica,sans-Serif" font-size="10.00">MiraiCP::schedule</text>
</a>
</g>
</g>
<!-- Node18&#45;&gt;Node19 -->
<g id="edge19_Node000018_Node000019" class="edge">
<title>Node18&#45;&gt;Node19</title>
<g id="a_edge19_Node000018_Node000019"><a xlink:title=" ">
<path fill="none" stroke="#63b8ff" d="M275.12,-132C260.19,-132 244.33,-132 230.03,-132"/>
<polygon fill="#63b8ff" stroke="#63b8ff" points="274.8,-135.5 284.79,-132 274.79,-128.5 274.8,-135.5"/>
</a>
</g>
</g>
<!-- Node20&#45;&gt;Node2 -->
<g id="edge21_Node000020_Node000002" class="edge">
<title>Node20&#45;&gt;Node2</title>
<g id="a_edge21_Node000020_Node000002"><a xlink:title=" ">
<path fill="none" stroke="#63b8ff" d="M414.78,-28.44C485.99,-15.78 593.71,0 688.25,0 1176.62,0 1176.62,0 1176.62,0 1269.54,0 1376.35,-8.17 1445.62,-14.55"/>
<polygon fill="#63b8ff" stroke="#63b8ff" points="414.38,-24.95 405.16,-30.17 415.62,-31.84 414.38,-24.95"/>
</a>
</g>
</g>
<!-- Node22 -->
<g id="Node000022" class="node">
<title>Node22</title>
<g id="a_Node000022"><a xlink:href="a00425.html#afbf560680f6b525ee0240f614a0177b6" target="_top" xlink:title=" ">
<polygon fill="white" stroke="#666666" points="595,-60 439.5,-60 439.5,-40 595,-40 595,-60"/>
<text text-anchor="middle" x="517.25" y="-46.5" font-family="Helvetica,sans-Serif" font-size="10.00">LibLoader::sendPluginException</text>
</a>
</g>
</g>
<!-- Node21&#45;&gt;Node22 -->
<g id="edge23_Node000021_Node000022" class="edge">
<title>Node21&#45;&gt;Node22</title>
<g id="a_edge23_Node000021_Node000022"><a xlink:title=" ">
<path fill="none" stroke="#63b8ff" d="M630.16,-75.02C608.9,-70.26 585.14,-64.95 565,-60.45"/>
<polygon fill="#63b8ff" stroke="#63b8ff" points="629.35,-78.42 639.87,-77.19 630.87,-71.59 629.35,-78.42"/>
</a>
</g>
</g>
<!-- Node23 -->
<g id="Node000023" class="node">
<title>Node23</title>
<g id="a_Node000023"><a xlink:href="a00425.html#a7ee448e1b260709b6a8d73fa41ec5c15" target="_top" xlink:title=" ">
<polygon fill="white" stroke="#666666" points="587.88,-98 446.62,-98 446.62,-78 587.88,-78 587.88,-98"/>
<text text-anchor="middle" x="517.25" y="-84.5" font-family="Helvetica,sans-Serif" font-size="10.00">LibLoader::sendThreadReset</text>
</a>
</g>
</g>
<!-- Node21&#45;&gt;Node23 -->
<g id="edge24_Node000021_Node000023" class="edge">
<title>Node21&#45;&gt;Node23</title>
<g id="a_edge24_Node000021_Node000023"><a xlink:title=" ">
<path fill="none" stroke="#63b8ff" d="M619.27,-88C609,-88 598.41,-88 588.12,-88"/>
<polygon fill="#63b8ff" stroke="#63b8ff" points="619.18,-91.5 629.18,-88 619.18,-84.5 619.18,-91.5"/>
</a>
</g>
</g>
<!-- Node25 -->
<g id="Node000025" class="node">
<title>Node25</title>
<g id="a_Node000025"><a xlink:href="a00314.html#a3712cdeefe60fa2a92efa90cd6200b02" target="_top" xlink:title=" ">
<polygon fill="white" stroke="#666666" points="709.62,-274 668.88,-274 668.88,-254 709.62,-254 709.62,-274"/>
<text text-anchor="middle" x="689.25" y="-260.5" font-family="Helvetica,sans-Serif" font-size="10.00">Verify</text>
</a>
</g>
</g>
<!-- Node24&#45;&gt;Node25 -->
<g id="edge27_Node000024_Node000025" class="edge">
<title>Node24&#45;&gt;Node25</title>
<g id="a_edge27_Node000024_Node000025"><a xlink:title=" ">
<path fill="none" stroke="#63b8ff" d="M809.07,-222.49C790.55,-229.45 767.92,-237.82 747.5,-245 735.05,-249.38 720.99,-254.05 709.92,-257.66"/>
<polygon fill="#63b8ff" stroke="#63b8ff" points="810.2,-225.81 818.32,-219 807.73,-219.26 810.2,-225.81"/>
</a>
</g>
</g>
</g>
</svg>
