<?xml version="1.0" encoding="UTF-8" standalone="no"?>
<!DOCTYPE svg PUBLIC "-//W3C//DTD SVG 1.1//EN"
 "http://www.w3.org/Graphics/SVG/1.1/DTD/svg11.dtd">
<!-- Generated by graphviz version 2.50.0 (20211204.2007)
 -->
<!-- Title: MiraiCP::GroupMessageEvent::senderNextMessage Pages: 1 -->
<svg width="1788pt" height="432pt"
 viewBox="0.00 0.00 1788.00 432.05" xmlns="http://www.w3.org/2000/svg" xmlns:xlink="http://www.w3.org/1999/xlink">
<g id="graph0" class="graph" transform="scale(1 1) rotate(0) translate(4 428.05)">
<title>MiraiCP::GroupMessageEvent::senderNextMessage</title>
<polygon fill="white" stroke="transparent" points="-4,4 -4,-428.05 1784,-428.05 1784,4 -4,4"/>
<!-- Node1 -->
<g id="node1" class="node">
<title>Node1</title>
<g id="a_node1"><a xlink:title="取群聊中同群成员的下一个消息(发送人和群与本事件一样)">
<polygon fill="#bfbfbf" stroke="black" points="0,-116.55 0,-146.55 147,-146.55 147,-116.55 0,-116.55"/>
<text text-anchor="start" x="8" y="-134.55" font-family="Helvetica,sans-Serif" font-size="10.00">MiraiCP::GroupMessageEvent</text>
<text text-anchor="middle" x="73.5" y="-123.55" font-family="Helvetica,sans-Serif" font-size="10.00">::senderNextMessage</text>
</a>
</g>
</g>
<!-- Node2 -->
<g id="node2" class="node">
<title>Node2</title>
<g id="a_node2"><a xlink:href="a00705.html#ad76190cce563a29637e62105e7db52d9" target="_top" xlink:title=" ">
<polygon fill="white" stroke="black" points="183,-251.55 183,-281.55 350,-281.55 350,-251.55 183,-251.55"/>
<text text-anchor="start" x="191" y="-269.55" font-family="Helvetica,sans-Serif" font-size="10.00">MiraiCP::MessageChain</text>
<text text-anchor="middle" x="266.5" y="-258.55" font-family="Helvetica,sans-Serif" font-size="10.00">::deserializationFromMessageJson</text>
</a>
</g>
</g>
<!-- Node1&#45;&gt;Node2 -->
<g id="edge1" class="edge">
<title>Node1&#45;&gt;Node2</title>
<path fill="none" stroke="midnightblue" d="M96.04,-146.78C130.23,-170.94 197.02,-218.15 235.76,-245.53"/>
<polygon fill="midnightblue" stroke="midnightblue" points="233.85,-248.47 244.04,-251.38 237.89,-242.75 233.85,-248.47"/>
</g>
<!-- Node8 -->
<g id="node8" class="node">
<title>Node8</title>
<g id="a_node8"><a xlink:href="a00709.html#a1f98db6bbdf6b7d178bf92f55fd2e4dc" target="_top" xlink:title="从json字符串反序列化到MessageSource对象">
<polygon fill="white" stroke="black" points="405.5,-160.55 405.5,-190.55 533.5,-190.55 533.5,-160.55 405.5,-160.55"/>
<text text-anchor="start" x="413.5" y="-178.55" font-family="Helvetica,sans-Serif" font-size="10.00">MiraiCP::MessageSource</text>
<text text-anchor="middle" x="469.5" y="-167.55" font-family="Helvetica,sans-Serif" font-size="10.00">::deserializeFromString</text>
</a>
</g>
</g>
<!-- Node1&#45;&gt;Node8 -->
<g id="edge19" class="edge">
<title>Node1&#45;&gt;Node8</title>
<path fill="none" stroke="midnightblue" d="M131.89,-146.58C148.3,-150.38 166.27,-154.08 183,-156.55 254.63,-167.12 337.24,-171.81 395.11,-173.89"/>
<polygon fill="midnightblue" stroke="midnightblue" points="395.14,-177.4 405.25,-174.24 395.38,-170.4 395.14,-177.4"/>
</g>
<!-- Node16 -->
<g id="node16" class="node">
<title>Node16</title>
<g id="a_node16"><a xlink:href="a00309.html#a309e8d7f316e8b5e947ea3bcddeb84a8" target="_top" xlink:title="调用 Mirai 操作">
<polygon fill="white" stroke="black" points="212,-116.55 212,-146.55 321,-146.55 321,-116.55 212,-116.55"/>
<text text-anchor="start" x="220" y="-134.55" font-family="Helvetica,sans-Serif" font-size="10.00">MiraiCP::KtOperation</text>
<text text-anchor="middle" x="266.5" y="-123.55" font-family="Helvetica,sans-Serif" font-size="10.00">::ktOperation</text>
</a>
</g>
</g>
<!-- Node1&#45;&gt;Node16 -->
<g id="edge20" class="edge">
<title>Node1&#45;&gt;Node16</title>
<path fill="none" stroke="midnightblue" d="M147.25,-131.55C165.23,-131.55 184.35,-131.55 201.86,-131.55"/>
<polygon fill="midnightblue" stroke="midnightblue" points="201.96,-135.05 211.96,-131.55 201.96,-128.05 201.96,-135.05"/>
</g>
<!-- Node28 -->
<g id="node28" class="node">
<title>Node28</title>
<g id="a_node28"><a xlink:href="a00705.html#ad8ac546bb8db0964113fd85cbbb10dd3" target="_top" xlink:title=" ">
<polygon fill="white" stroke="black" points="205.5,-67.55 205.5,-97.55 327.5,-97.55 327.5,-67.55 205.5,-67.55"/>
<text text-anchor="start" x="213.5" y="-85.55" font-family="Helvetica,sans-Serif" font-size="10.00">MiraiCP::MessageChain</text>
<text text-anchor="middle" x="266.5" y="-74.55" font-family="Helvetica,sans-Serif" font-size="10.00">::plus</text>
</a>
</g>
</g>
<!-- Node1&#45;&gt;Node28 -->
<g id="edge36" class="edge">
<title>Node1&#45;&gt;Node28</title>
<path fill="none" stroke="midnightblue" d="M133.1,-116.52C153.36,-111.32 176.24,-105.45 197.21,-100.07"/>
<polygon fill="midnightblue" stroke="midnightblue" points="198.19,-103.43 207.01,-97.56 196.45,-96.65 198.19,-103.43"/>
</g>
<!-- Node29 -->
<g id="node29" class="node">
<title>Node29</title>
<g id="a_node29"><a xlink:href="a00425.html#a89fb588a12ff2d4de10722788945ea55" target="_top" xlink:title="序列化到json对象">
<polygon fill="white" stroke="black" points="204,-29.05 204,-48.05 329,-48.05 329,-29.05 204,-29.05"/>
<text text-anchor="middle" x="266.5" y="-36.05" font-family="Helvetica,sans-Serif" font-size="10.00">MiraiCP::Contact::toJson</text>
</a>
</g>
</g>
<!-- Node1&#45;&gt;Node29 -->
<g id="edge37" class="edge">
<title>Node1&#45;&gt;Node29</title>
<path fill="none" stroke="midnightblue" d="M92.07,-116.47C112.57,-99.66 148.12,-72.82 183,-57.55 188.74,-55.04 194.86,-52.84 201.08,-50.91"/>
<polygon fill="midnightblue" stroke="midnightblue" points="202.22,-54.22 210.87,-48.1 200.29,-47.49 202.22,-54.22"/>
</g>
<!-- Node3 -->
<g id="node3" class="node">
<title>Node3</title>
<g id="a_node3"><a xlink:href="a00705.html#a4d9d6d0ab0f43a504627f26594d9f784" target="_top" xlink:title="添加元素">
<polygon fill="white" stroke="black" points="398,-368.05 398,-387.05 541,-387.05 541,-368.05 398,-368.05"/>
<text text-anchor="middle" x="469.5" y="-375.05" font-family="Helvetica,sans-Serif" font-size="10.00">MiraiCP::MessageChain::add</text>
</a>
</g>
</g>
<!-- Node2&#45;&gt;Node3 -->
<g id="edge2" class="edge">
<title>Node2&#45;&gt;Node3</title>
<path fill="none" stroke="midnightblue" d="M282.49,-281.78C303.65,-302.37 344.36,-338.78 386,-358.55 391.06,-360.95 396.45,-363.06 401.94,-364.91"/>
<polygon fill="midnightblue" stroke="midnightblue" points="401.33,-368.39 411.92,-367.97 403.38,-361.69 401.33,-368.39"/>
</g>
<!-- Node4 -->
<g id="node4" class="node">
<title>Node4</title>
<g id="a_node4"><a xlink:href="a00629.html#ac802edcd83cf04abe4cc602c901a933f" target="_top" xlink:title=" ">
<polygon fill="white" stroke="black" points="386,-300.55 386,-330.55 553,-330.55 553,-300.55 386,-300.55"/>
<text text-anchor="start" x="394" y="-318.55" font-family="Helvetica,sans-Serif" font-size="10.00">MiraiCP::ForwardedMessage</text>
<text text-anchor="middle" x="469.5" y="-307.55" font-family="Helvetica,sans-Serif" font-size="10.00">::deserializationFromMessageJson</text>
</a>
</g>
</g>
<!-- Node2&#45;&gt;Node4 -->
<g id="edge3" class="edge">
<title>Node2&#45;&gt;Node4</title>
<path fill="none" stroke="midnightblue" d="M350.12,-280.04C373.67,-285.52 398.56,-291.85 419.41,-297.69"/>
<polygon fill="midnightblue" stroke="midnightblue" points="418.73,-301.13 429.3,-300.52 420.65,-294.4 418.73,-301.13"/>
</g>
<!-- Node2&#45;&gt;Node8 -->
<g id="edge9" class="edge">
<title>Node2&#45;&gt;Node8</title>
<path fill="none" stroke="midnightblue" d="M296.92,-251.39C320.72,-239.31 355.23,-222.21 386,-208.55 396.8,-203.76 408.51,-198.88 419.64,-194.4"/>
<polygon fill="midnightblue" stroke="midnightblue" points="421.23,-197.53 429.22,-190.57 418.64,-191.03 421.23,-197.53"/>
</g>
<!-- Node12 -->
<g id="node12" class="node">
<title>Node12</title>
<g id="a_node12"><a xlink:href="a00729.html#a7412c91a4b45c7f1d77cf904af64b6d7" target="_top" xlink:title="找对应类型的index key">
<polygon fill="white" stroke="black" points="407.5,-251.55 407.5,-281.55 531.5,-281.55 531.5,-251.55 407.5,-251.55"/>
<text text-anchor="start" x="415.5" y="-269.55" font-family="Helvetica,sans-Serif" font-size="10.00">MiraiCP::SingleMessage</text>
<text text-anchor="middle" x="469.5" y="-258.55" font-family="Helvetica,sans-Serif" font-size="10.00">::getKey</text>
</a>
</g>
</g>
<!-- Node2&#45;&gt;Node12 -->
<g id="edge13" class="edge">
<title>Node2&#45;&gt;Node12</title>
<path fill="none" stroke="midnightblue" d="M350.12,-266.55C365.7,-266.55 381.86,-266.55 397.05,-266.55"/>
<polygon fill="midnightblue" stroke="midnightblue" points="397.4,-270.05 407.4,-266.55 397.4,-263.05 397.4,-270.05"/>
</g>
<!-- Node15 -->
<g id="node15" class="node">
<title>Node15</title>
<g id="a_node15"><a xlink:href="a00669.html#a279a66d53b8b825f4a9ebc8fe30f20d6" target="_top" xlink:title="发送警告(warning级日志)">
<polygon fill="white" stroke="black" points="603.5,-207.55 603.5,-237.55 731.5,-237.55 731.5,-207.55 603.5,-207.55"/>
<text text-anchor="start" x="611.5" y="-225.55" font-family="Helvetica,sans-Serif" font-size="10.00">MiraiCP::Logger_interface</text>
<text text-anchor="middle" x="667.5" y="-214.55" font-family="Helvetica,sans-Serif" font-size="10.00">::warning</text>
</a>
</g>
</g>
<!-- Node2&#45;&gt;Node15 -->
<g id="edge16" class="edge">
<title>Node2&#45;&gt;Node15</title>
<path fill="none" stroke="midnightblue" d="M333.99,-251.52C350.88,-248.13 369.05,-244.86 386,-242.55 455.9,-233.02 536.27,-227.88 593.01,-225.2"/>
<polygon fill="midnightblue" stroke="midnightblue" points="593.49,-228.69 603.32,-224.73 593.17,-221.69 593.49,-228.69"/>
</g>
<!-- Node4&#45;&gt;Node2 -->
<g id="edge6" class="edge">
<title>Node4&#45;&gt;Node2</title>
<path fill="none" stroke="midnightblue" d="M385.71,-302.02C362.22,-296.55 337.4,-290.25 316.6,-284.41"/>
<polygon fill="midnightblue" stroke="midnightblue" points="317.31,-280.98 306.73,-281.6 315.39,-287.71 317.31,-280.98"/>
</g>
<!-- Node4&#45;&gt;Node4 -->
<g id="edge5" class="edge">
<title>Node4&#45;&gt;Node4</title>
<path fill="none" stroke="midnightblue" d="M434.99,-330.71C426.67,-340.11 438.18,-349.05 469.5,-349.05 488.59,-349.05 500.32,-345.73 504.68,-341.01"/>
<polygon fill="midnightblue" stroke="midnightblue" points="508.15,-340.46 504.01,-330.71 501.17,-340.92 508.15,-340.46"/>
</g>
<!-- Node5 -->
<g id="node5" class="node">
<title>Node5</title>
<g id="a_node5"><a xlink:href="a00621.html#ae41f2b998365484dba1ff3f32563dfbb" target="_top" xlink:title=" ">
<polygon fill="white" stroke="black" points="589,-393.55 589,-423.55 746,-423.55 746,-393.55 589,-393.55"/>
<text text-anchor="start" x="597" y="-411.55" font-family="Helvetica,sans-Serif" font-size="10.00">MiraiCP::ForwardedMessage</text>
<text text-anchor="middle" x="667.5" y="-400.55" font-family="Helvetica,sans-Serif" font-size="10.00">DisplayStrategy::defaultStrategy</text>
</a>
</g>
</g>
<!-- Node4&#45;&gt;Node5 -->
<g id="edge4" class="edge">
<title>Node4&#45;&gt;Node5</title>
<path fill="none" stroke="midnightblue" d="M502.04,-330.64C517.67,-338.46 536.64,-348.46 553,-358.55 569.8,-368.92 571.34,-375.74 589,-384.55 592.76,-386.43 596.69,-388.19 600.71,-389.84"/>
<polygon fill="midnightblue" stroke="midnightblue" points="599.6,-393.17 610.19,-393.5 602.12,-386.64 599.6,-393.17"/>
</g>
<!-- Node6 -->
<g id="node6" class="node">
<title>Node6</title>
<g id="a_node6"><a xlink:href="a00629.html#ae33afe7b370688c3a3e3252e360ae176" target="_top" xlink:title="构建一条聊天记录">
<polygon fill="white" stroke="black" points="596.5,-344.55 596.5,-374.55 738.5,-374.55 738.5,-344.55 596.5,-344.55"/>
<text text-anchor="start" x="604.5" y="-362.55" font-family="Helvetica,sans-Serif" font-size="10.00">MiraiCP::ForwardedMessage</text>
<text text-anchor="middle" x="667.5" y="-351.55" font-family="Helvetica,sans-Serif" font-size="10.00">::ForwardedMessage</text>
</a>
</g>
</g>
<!-- Node4&#45;&gt;Node6 -->
<g id="edge7" class="edge">
<title>Node4&#45;&gt;Node6</title>
<path fill="none" stroke="midnightblue" d="M537.4,-330.57C554.18,-334.34 572.32,-338.41 589.55,-342.28"/>
<polygon fill="midnightblue" stroke="midnightblue" points="589.04,-345.75 599.57,-344.53 590.57,-338.92 589.04,-345.75"/>
</g>
<!-- Node7 -->
<g id="node7" class="node">
<title>Node7</title>
<g id="a_node7"><a xlink:href="a00621.html#ac7a83085f9b152d720a0725b5e770ff2" target="_top" xlink:title=" ">
<polygon fill="white" stroke="black" points="596.5,-295.55 596.5,-325.55 738.5,-325.55 738.5,-295.55 596.5,-295.55"/>
<text text-anchor="start" x="604.5" y="-313.55" font-family="Helvetica,sans-Serif" font-size="10.00">MiraiCP::ForwardedMessage</text>
<text text-anchor="middle" x="667.5" y="-302.55" font-family="Helvetica,sans-Serif" font-size="10.00">DisplayStrategy::fromJson</text>
</a>
</g>
</g>
<!-- Node4&#45;&gt;Node7 -->
<g id="edge8" class="edge">
<title>Node4&#45;&gt;Node7</title>
<path fill="none" stroke="midnightblue" d="M553.05,-313.45C564.11,-313.16 575.43,-312.87 586.44,-312.59"/>
<polygon fill="midnightblue" stroke="midnightblue" points="586.54,-316.09 596.45,-312.34 586.36,-309.1 586.54,-316.09"/>
</g>
<!-- Node9 -->
<g id="node9" class="node">
<title>Node9</title>
<g id="a_node9"><a xlink:href="a00669.html#af14d39efa300da183070784bc86d3f23" target="_top" xlink:title="发送错误(error级日志)">
<polygon fill="white" stroke="black" points="603.5,-158.55 603.5,-188.55 731.5,-188.55 731.5,-158.55 603.5,-158.55"/>
<text text-anchor="start" x="611.5" y="-176.55" font-family="Helvetica,sans-Serif" font-size="10.00">MiraiCP::Logger_interface</text>
<text text-anchor="middle" x="667.5" y="-165.55" font-family="Helvetica,sans-Serif" font-size="10.00">::error</text>
</a>
</g>
</g>
<!-- Node8&#45;&gt;Node9 -->
<g id="edge10" class="edge">
<title>Node8&#45;&gt;Node9</title>
<path fill="none" stroke="midnightblue" d="M533.59,-174.91C552.56,-174.71 573.53,-174.5 593.1,-174.3"/>
<polygon fill="midnightblue" stroke="midnightblue" points="593.22,-177.8 603.19,-174.2 593.15,-170.8 593.22,-177.8"/>
</g>
<!-- Node10 -->
<g id="node10" class="node">
<title>Node10</title>
<g id="a_node10"><a xlink:href="a00669.html#a98af60f864a0446e23a7a27a3419d9b8" target="_top" xlink:title=" ">
<polygon fill="white" stroke="black" points="791,-158.55 791,-188.55 919,-188.55 919,-158.55 791,-158.55"/>
<text text-anchor="start" x="799" y="-176.55" font-family="Helvetica,sans-Serif" font-size="10.00">MiraiCP::Logger_interface</text>
<text text-anchor="middle" x="855" y="-165.55" font-family="Helvetica,sans-Serif" font-size="10.00">::constructString</text>
</a>
</g>
</g>
<!-- Node9&#45;&gt;Node10 -->
<g id="edge11" class="edge">
<title>Node9&#45;&gt;Node10</title>
<path fill="none" stroke="midnightblue" d="M731.56,-173.55C747.39,-173.55 764.51,-173.55 780.79,-173.55"/>
<polygon fill="midnightblue" stroke="midnightblue" points="780.8,-177.05 790.8,-173.55 780.8,-170.05 780.8,-177.05"/>
</g>
<!-- Node11 -->
<g id="node11" class="node">
<title>Node11</title>
<g id="a_node11"><a xlink:href="a00669.html#a86ea9d57475a3004be2a32b2c4c76371" target="_top" xlink:title="日志底层实现封装">
<polygon fill="white" stroke="black" points="791,-207.55 791,-237.55 919,-237.55 919,-207.55 791,-207.55"/>
<text text-anchor="start" x="799" y="-225.55" font-family="Helvetica,sans-Serif" font-size="10.00">MiraiCP::Logger_interface</text>
<text text-anchor="middle" x="855" y="-214.55" font-family="Helvetica,sans-Serif" font-size="10.00">::log_interface</text>
</a>
</g>
</g>
<!-- Node9&#45;&gt;Node11 -->
<g id="edge12" class="edge">
<title>Node9&#45;&gt;Node11</title>
<path fill="none" stroke="midnightblue" d="M725.42,-188.59C745,-193.76 767.11,-199.6 787.4,-204.96"/>
<polygon fill="midnightblue" stroke="midnightblue" points="786.63,-208.38 797.19,-207.55 788.42,-201.61 786.63,-208.38"/>
</g>
<!-- Node13 -->
<g id="node13" class="node">
<title>Node13</title>
<g id="a_node13"><a xlink:href="a00315.html#a0b52c701b3d96bf42b4d67c21f1dab2d" target="_top" xlink:title="case insensitive string compare from https://thispointer.com/c&#45;case&#45;insensitive&#45;string&#45;comparison&#45;usi...">
<polygon fill="white" stroke="black" points="611.5,-257.05 611.5,-276.05 723.5,-276.05 723.5,-257.05 611.5,-257.05"/>
<text text-anchor="middle" x="667.5" y="-264.05" font-family="Helvetica,sans-Serif" font-size="10.00">MiraiCP::Tools::iequal</text>
</a>
</g>
</g>
<!-- Node12&#45;&gt;Node13 -->
<g id="edge14" class="edge">
<title>Node12&#45;&gt;Node13</title>
<path fill="none" stroke="midnightblue" d="M531.71,-266.55C553.82,-266.55 578.85,-266.55 601.29,-266.55"/>
<polygon fill="midnightblue" stroke="midnightblue" points="601.4,-270.05 611.4,-266.55 601.4,-263.05 601.4,-270.05"/>
</g>
<!-- Node14 -->
<g id="node14" class="node">
<title>Node14</title>
<g id="a_node14"><a xlink:href="a00315.html#a795aadb1af1cd4b85e9b48b5bb5b246d" target="_top" xlink:title="compare char with case&#45;insensitive">
<polygon fill="white" stroke="black" points="782,-257.05 782,-276.05 928,-276.05 928,-257.05 782,-257.05"/>
<text text-anchor="middle" x="855" y="-264.05" font-family="Helvetica,sans-Serif" font-size="10.00">MiraiCP::Tools::icompareChar</text>
</a>
</g>
</g>
<!-- Node13&#45;&gt;Node14 -->
<g id="edge15" class="edge">
<title>Node13&#45;&gt;Node14</title>
<path fill="none" stroke="midnightblue" d="M723.65,-266.55C738.78,-266.55 755.51,-266.55 771.8,-266.55"/>
<polygon fill="midnightblue" stroke="midnightblue" points="771.86,-270.05 781.86,-266.55 771.86,-263.05 771.86,-270.05"/>
</g>
<!-- Node15&#45;&gt;Node10 -->
<g id="edge17" class="edge">
<title>Node15&#45;&gt;Node10</title>
<path fill="none" stroke="midnightblue" d="M725.42,-207.52C745,-202.34 767.11,-196.5 787.4,-191.15"/>
<polygon fill="midnightblue" stroke="midnightblue" points="788.42,-194.5 797.19,-188.56 786.63,-187.73 788.42,-194.5"/>
</g>
<!-- Node15&#45;&gt;Node11 -->
<g id="edge18" class="edge">
<title>Node15&#45;&gt;Node11</title>
<path fill="none" stroke="midnightblue" d="M731.56,-222.55C747.39,-222.55 764.51,-222.55 780.79,-222.55"/>
<polygon fill="midnightblue" stroke="midnightblue" points="780.8,-226.05 790.8,-222.55 780.8,-219.05 780.8,-226.05"/>
</g>
<!-- Node17 -->
<g id="node17" class="node">
<title>Node17</title>
<g id="a_node17"><a xlink:href="a00309.html#a1e1e498928eeaa1d7107033ff5fa881a" target="_top" xlink:title="调用 Mirai 操作">
<polygon fill="white" stroke="black" points="415,-95.55 415,-125.55 524,-125.55 524,-95.55 415,-95.55"/>
<text text-anchor="start" x="423" y="-113.55" font-family="Helvetica,sans-Serif" font-size="10.00">MiraiCP::KtOperation</text>
<text text-anchor="middle" x="469.5" y="-102.55" font-family="Helvetica,sans-Serif" font-size="10.00">::ktOperationStr</text>
</a>
</g>
</g>
<!-- Node16&#45;&gt;Node17 -->
<g id="edge21" class="edge">
<title>Node16&#45;&gt;Node17</title>
<path fill="none" stroke="midnightblue" d="M321.1,-125.95C346.78,-123.27 377.72,-120.04 404.61,-117.23"/>
<polygon fill="midnightblue" stroke="midnightblue" points="405.12,-120.69 414.7,-116.17 404.39,-113.73 405.12,-120.69"/>
</g>
<!-- Node18 -->
<g id="node18" class="node">
<title>Node18</title>
<g id="a_node18"><a xlink:href="a00303.html#a89b345ec37278655b8f02d07dbb3c882" target="_top" xlink:title="interfaces for plugins">
<polygon fill="white" stroke="black" points="613.5,-76.55 613.5,-106.55 721.5,-106.55 721.5,-76.55 613.5,-76.55"/>
<text text-anchor="start" x="621.5" y="-94.55" font-family="Helvetica,sans-Serif" font-size="10.00">LibLoader::LoaderApi</text>
<text text-anchor="middle" x="667.5" y="-83.55" font-family="Helvetica,sans-Serif" font-size="10.00">::pluginOperation</text>
</a>
</g>
</g>
<!-- Node17&#45;&gt;Node18 -->
<g id="edge22" class="edge">
<title>Node17&#45;&gt;Node18</title>
<path fill="none" stroke="midnightblue" d="M524.06,-105.36C548.57,-102.98 577.8,-100.15 603.37,-97.67"/>
<polygon fill="midnightblue" stroke="midnightblue" points="603.73,-101.15 613.35,-96.7 603.06,-94.19 603.73,-101.15"/>
</g>
<!-- Node19 -->
<g id="node19" class="node">
<title>Node19</title>
<g id="a_node19"><a xlink:href="a00337.html#ab263deade385e7b5de856d061c6027e9" target="_top" xlink:title=" ">
<polygon fill="white" stroke="black" points="796.5,-32.55 796.5,-62.55 913.5,-62.55 913.5,-32.55 796.5,-32.55"/>
<text text-anchor="start" x="804.5" y="-50.55" font-family="Helvetica,sans-Serif" font-size="10.00">MiraiCP::MiraiCPString</text>
<text text-anchor="middle" x="855" y="-39.55" font-family="Helvetica,sans-Serif" font-size="10.00">::copyToCharPtr</text>
</a>
</g>
</g>
<!-- Node18&#45;&gt;Node19 -->
<g id="edge23" class="edge">
<title>Node18&#45;&gt;Node19</title>
<path fill="none" stroke="midnightblue" d="M721.66,-78.94C741.81,-74.16 765.02,-68.66 786.33,-63.6"/>
<polygon fill="midnightblue" stroke="midnightblue" points="787.37,-66.95 796.29,-61.24 785.75,-60.14 787.37,-66.95"/>
</g>
<!-- Node20 -->
<g id="node20" class="node">
<title>Node20</title>
<g id="a_node20"><a xlink:href="a00345.html#aea7d58ff9f04d6d4849c25a2506603a5" target="_top" xlink:title="取env,如果不存在重新获取">
<polygon fill="white" stroke="black" points="1417,-35.05 1417,-54.05 1536,-54.05 1536,-35.05 1417,-35.05"/>
<text text-anchor="middle" x="1476.5" y="-42.05" font-family="Helvetica,sans-Serif" font-size="10.00">JNIEnvManager::getEnv</text>
</a>
</g>
</g>
<!-- Node18&#45;&gt;Node20 -->
<g id="edge24" class="edge">
<title>Node18&#45;&gt;Node20</title>
<path fill="none" stroke="midnightblue" d="M687.21,-76.32C708.66,-59.83 745.57,-34.31 782,-22.55 884.88,10.66 916.39,-3.55 1024.5,-3.55 1024.5,-3.55 1024.5,-3.55 1185.5,-3.55 1269.92,-3.55 1366.82,-20.8 1424.5,-32.92"/>
<polygon fill="midnightblue" stroke="midnightblue" points="1423.95,-36.38 1434.46,-35.04 1425.41,-29.53 1423.95,-36.38"/>
</g>
<!-- Node23 -->
<g id="node23" class="node">
<title>Node23</title>
<g id="a_node23"><a xlink:href="a00301.html#aa5f8d0ecd9dd392b491070aace643ae3" target="_top" xlink:title=" ">
<polygon fill="white" stroke="black" points="972,-158.05 972,-177.05 1079,-177.05 1079,-158.05 972,-158.05"/>
<text text-anchor="middle" x="1025.5" y="-165.05" font-family="Helvetica,sans-Serif" font-size="10.00">LibLoader::jstring2str</text>
</a>
</g>
</g>
<!-- Node18&#45;&gt;Node23 -->
<g id="edge27" class="edge">
<title>Node18&#45;&gt;Node23</title>
<path fill="none" stroke="midnightblue" d="M721.8,-102.93C788.58,-117.19 902.44,-141.49 969.86,-155.89"/>
<polygon fill="midnightblue" stroke="midnightblue" points="969.35,-159.36 979.86,-158.02 970.81,-152.51 969.35,-159.36"/>
</g>
<!-- Node25 -->
<g id="node25" class="node">
<title>Node25</title>
<g id="a_node25"><a xlink:href="a00301.html#a6a6fcd695791253a9b3a053d313b2b93" target="_top" xlink:title=" ">
<polygon fill="white" stroke="black" points="801.5,-82.05 801.5,-101.05 908.5,-101.05 908.5,-82.05 801.5,-82.05"/>
<text text-anchor="middle" x="855" y="-89.05" font-family="Helvetica,sans-Serif" font-size="10.00">LibLoader::str2jstring</text>
</a>
</g>
</g>
<!-- Node18&#45;&gt;Node25 -->
<g id="edge30" class="edge">
<title>Node18&#45;&gt;Node25</title>
<path fill="none" stroke="midnightblue" d="M721.66,-91.55C743.38,-91.55 768.67,-91.55 791.29,-91.55"/>
<polygon fill="midnightblue" stroke="midnightblue" points="791.48,-95.05 801.48,-91.55 791.48,-88.05 791.48,-95.05"/>
</g>
<!-- Node21 -->
<g id="node21" class="node">
<title>Node21</title>
<g id="a_node21"><a xlink:href="a00194.html#a3d31403b7971274d47d308245206bd24" target="_top" xlink:title="为当前线程创建一个env.">
<polygon fill="white" stroke="black" points="1572,-35.05 1572,-54.05 1622,-54.05 1622,-35.05 1572,-35.05"/>
<text text-anchor="middle" x="1597" y="-42.05" font-family="Helvetica,sans-Serif" font-size="10.00">newEnv</text>
</a>
</g>
</g>
<!-- Node20&#45;&gt;Node21 -->
<g id="edge25" class="edge">
<title>Node20&#45;&gt;Node21</title>
<path fill="none" stroke="midnightblue" d="M1536.06,-44.55C1544.89,-44.55 1553.75,-44.55 1561.85,-44.55"/>
<polygon fill="midnightblue" stroke="midnightblue" points="1561.98,-48.05 1571.98,-44.55 1561.98,-41.05 1561.98,-48.05"/>
</g>
<!-- Node22 -->
<g id="node22" class="node">
<title>Node22</title>
<g id="a_node22"><a xlink:href="a00345.html#ae0e482c6a813848a8f5d34957d1b6307" target="_top" xlink:title="获取全局JavaVM对象.">
<polygon fill="white" stroke="black" points="1658,-35.05 1658,-54.05 1780,-54.05 1780,-35.05 1658,-35.05"/>
<text text-anchor="middle" x="1719" y="-42.05" font-family="Helvetica,sans-Serif" font-size="10.00">JNIEnvManager::getGvm</text>
</a>
</g>
</g>
<!-- Node21&#45;&gt;Node22 -->
<g id="edge26" class="edge">
<title>Node21&#45;&gt;Node22</title>
<path fill="none" stroke="midnightblue" d="M1622.28,-44.55C1629.75,-44.55 1638.37,-44.55 1647.32,-44.55"/>
<polygon fill="midnightblue" stroke="midnightblue" points="1647.52,-48.05 1657.52,-44.55 1647.52,-41.05 1647.52,-48.05"/>
</g>
<!-- Node24 -->
<g id="node24" class="node">
<title>Node24</title>
<g id="a_node24"><a xlink:href="a00305.html#a076c5f4ff8083c7cfc6523498d0ba30f" target="_top" xlink:title=" ">
<polygon fill="white" stroke="black" points="1282,-92.55 1282,-122.55 1381,-122.55 1381,-92.55 1282,-92.55"/>
<text text-anchor="start" x="1290" y="-110.55" font-family="Helvetica,sans-Serif" font-size="10.00">LibLoader::JNIEnvs</text>
<text text-anchor="middle" x="1331.5" y="-99.55" font-family="Helvetica,sans-Serif" font-size="10.00">::getEnv</text>
</a>
</g>
</g>
<!-- Node23&#45;&gt;Node24 -->
<g id="edge28" class="edge">
<title>Node23&#45;&gt;Node24</title>
<path fill="none" stroke="midnightblue" d="M1079.17,-166.12C1124.13,-163.88 1190.18,-158.15 1246,-143.55 1261.42,-139.52 1277.68,-133.15 1291.77,-126.88"/>
<polygon fill="midnightblue" stroke="midnightblue" points="1293.51,-129.93 1301.14,-122.59 1290.59,-123.57 1293.51,-129.93"/>
</g>
<!-- Node24&#45;&gt;Node20 -->
<g id="edge29" class="edge">
<title>Node24&#45;&gt;Node20</title>
<path fill="none" stroke="midnightblue" d="M1366.75,-92.46C1390.32,-82.08 1421.38,-68.39 1444.27,-58.31"/>
<polygon fill="midnightblue" stroke="midnightblue" points="1445.8,-61.46 1453.54,-54.23 1442.97,-55.06 1445.8,-61.46"/>
</g>
<!-- Node25&#45;&gt;Node24 -->
<g id="edge31" class="edge">
<title>Node25&#45;&gt;Node24</title>
<path fill="none" stroke="midnightblue" d="M908.7,-96.81C926.28,-98.47 945.97,-100.21 964,-101.55 1089.05,-110.88 1120.62,-112.78 1246,-110.55 1254.33,-110.4 1263.13,-110.17 1271.77,-109.91"/>
<polygon fill="midnightblue" stroke="midnightblue" points="1271.92,-113.4 1281.8,-109.58 1271.69,-106.41 1271.92,-113.4"/>
</g>
<!-- Node26 -->
<g id="node26" class="node">
<title>Node26</title>
<g id="a_node26"><a xlink:href="a00377.html#af50d0545fe7d683e54fcd03453a423e3" target="_top" xlink:title=" ">
<polygon fill="white" stroke="black" points="964,-32.55 964,-62.55 1087,-62.55 1087,-32.55 964,-32.55"/>
<text text-anchor="start" x="972" y="-50.55" font-family="Helvetica,sans-Serif" font-size="10.00">LibLoader::LoaderLogger</text>
<text text-anchor="middle" x="1025.5" y="-39.55" font-family="Helvetica,sans-Serif" font-size="10.00">::warning</text>
</a>
</g>
</g>
<!-- Node25&#45;&gt;Node26 -->
<g id="edge32" class="edge">
<title>Node25&#45;&gt;Node26</title>
<path fill="none" stroke="midnightblue" d="M892.56,-82C911.36,-77.09 934.89,-70.95 956.85,-65.22"/>
<polygon fill="midnightblue" stroke="midnightblue" points="958.02,-68.53 966.81,-62.62 956.25,-61.76 958.02,-68.53"/>
</g>
<!-- Node27 -->
<g id="node27" class="node">
<title>Node27</title>
<g id="a_node27"><a xlink:href="a00377.html#af4d7d5164450e25f7401d1cc15f15b8d" target="_top" xlink:title="实际暴露的接口">
<polygon fill="white" stroke="black" points="1123,-70.55 1123,-100.55 1246,-100.55 1246,-70.55 1123,-70.55"/>
<text text-anchor="start" x="1131" y="-88.55" font-family="Helvetica,sans-Serif" font-size="10.00">LibLoader::LoaderLogger</text>
<text text-anchor="middle" x="1184.5" y="-77.55" font-family="Helvetica,sans-Serif" font-size="10.00">::call_logger</text>
</a>
</g>
</g>
<!-- Node26&#45;&gt;Node27 -->
<g id="edge33" class="edge">
<title>Node26&#45;&gt;Node27</title>
<path fill="none" stroke="midnightblue" d="M1087.2,-62.24C1095.73,-64.31 1104.55,-66.44 1113.23,-68.54"/>
<polygon fill="midnightblue" stroke="midnightblue" points="1112.42,-71.95 1122.96,-70.9 1114.07,-65.14 1112.42,-71.95"/>
</g>
<!-- Node27&#45;&gt;Node24 -->
<g id="edge34" class="edge">
<title>Node27&#45;&gt;Node24</title>
<path fill="none" stroke="midnightblue" d="M1246.15,-94.75C1254.65,-96.04 1263.37,-97.37 1271.83,-98.65"/>
<polygon fill="midnightblue" stroke="midnightblue" points="1271.57,-102.15 1281.98,-100.19 1272.62,-95.23 1271.57,-102.15"/>
</g>
<!-- Node27&#45;&gt;Node25 -->
<g id="edge35" class="edge">
<title>Node27&#45;&gt;Node25</title>
<path fill="none" stroke="midnightblue" d="M1122.94,-86.66C1064.91,-87.72 977.69,-89.32 918.89,-90.4"/>
<polygon fill="midnightblue" stroke="midnightblue" points="918.55,-86.91 908.62,-90.59 918.68,-93.9 918.55,-86.91"/>
</g>
</g>
</svg>
