<?xml version="1.0" encoding="UTF-8" standalone="no"?>
<!DOCTYPE svg PUBLIC "-//W3C//DTD SVG 1.1//EN"
 "http://www.w3.org/Graphics/SVG/1.1/DTD/svg11.dtd">
<!-- Generated by graphviz version 2.50.0 (20211204.2007)
 -->
<!-- Title: MiraiCP::Contact::quoteAndSendMessage Pages: 1 -->
<svg width="1991pt" height="254pt"
 viewBox="0.00 0.00 1991.00 253.98" xmlns="http://www.w3.org/2000/svg" xmlns:xlink="http://www.w3.org/1999/xlink">
<g id="graph0" class="graph" transform="scale(1 1) rotate(0) translate(4 249.98)">
<title>MiraiCP::Contact::quoteAndSendMessage</title>
<polygon fill="white" stroke="transparent" points="-4,4 -4,-249.98 1987,-249.98 1987,4 -4,4"/>
<!-- Node1 -->
<g id="node1" class="node">
<title>Node1</title>
<g id="a_node1"><a xlink:title="回复并发送">
<polygon fill="#bfbfbf" stroke="black" points="0,-46.48 0,-76.48 138,-76.48 138,-46.48 0,-46.48"/>
<text text-anchor="start" x="8" y="-64.48" font-family="Helvetica,sans-Serif" font-size="10.00">MiraiCP::Contact::quoteAnd</text>
<text text-anchor="middle" x="69" y="-53.48" font-family="Helvetica,sans-Serif" font-size="10.00">SendMessage</text>
</a>
</g>
</g>
<!-- Node2 -->
<g id="node2" class="node">
<title>Node2</title>
<g id="a_node2"><a xlink:href="a00416.html#a9d17ca04eb09cbb049b8779dbacdb866" target="_top" xlink:title=" ">
<polygon fill="white" stroke="black" points="174,-46.48 174,-76.48 312,-76.48 312,-46.48 174,-46.48"/>
<text text-anchor="start" x="182" y="-64.48" font-family="Helvetica,sans-Serif" font-size="10.00">MiraiCP::Contact::quoteAnd</text>
<text text-anchor="middle" x="243" y="-53.48" font-family="Helvetica,sans-Serif" font-size="10.00">Send1</text>
</a>
</g>
</g>
<!-- Node1&#45;&gt;Node2 -->
<g id="edge1" class="edge">
<title>Node1&#45;&gt;Node2</title>
<path fill="none" stroke="midnightblue" d="M138.47,-61.48C146.73,-61.48 155.22,-61.48 163.6,-61.48"/>
<polygon fill="midnightblue" stroke="midnightblue" points="163.76,-64.98 173.76,-61.48 163.76,-57.98 163.76,-64.98"/>
</g>
<!-- Node3 -->
<g id="node3" class="node">
<title>Node3</title>
<g id="a_node3"><a xlink:href="a00416.html#a303e5a666bc44a0a432ae4114a8ebefa" target="_top" xlink:title=" ">
<polygon fill="white" stroke="black" points="348,-68.48 348,-98.48 486,-98.48 486,-68.48 348,-68.48"/>
<text text-anchor="start" x="356" y="-86.48" font-family="Helvetica,sans-Serif" font-size="10.00">MiraiCP::Contact::quoteAnd</text>
<text text-anchor="middle" x="417" y="-75.48" font-family="Helvetica,sans-Serif" font-size="10.00">Send0</text>
</a>
</g>
</g>
<!-- Node2&#45;&gt;Node3 -->
<g id="edge2" class="edge">
<title>Node2&#45;&gt;Node3</title>
<path fill="none" stroke="midnightblue" d="M312.47,-70.24C320.73,-71.3 329.22,-72.38 337.6,-73.46"/>
<polygon fill="midnightblue" stroke="midnightblue" points="337.4,-76.96 347.76,-74.75 338.29,-70.01 337.4,-76.96"/>
</g>
<!-- Node22 -->
<g id="node22" class="node">
<title>Node22</title>
<g id="a_node22"><a xlink:href="a00416.html#afdd2c14fc9c7c6fceaffe4478aed8b68" target="_top" xlink:title=" ">
<polygon fill="white" stroke="black" points="351.5,-29.98 351.5,-48.98 482.5,-48.98 482.5,-29.98 351.5,-29.98"/>
<text text-anchor="middle" x="417" y="-36.98" font-family="Helvetica,sans-Serif" font-size="10.00">MiraiCP::Contact::toString</text>
</a>
</g>
</g>
<!-- Node2&#45;&gt;Node22 -->
<g id="edge25" class="edge">
<title>Node2&#45;&gt;Node22</title>
<path fill="none" stroke="midnightblue" d="M312.47,-52.72C322,-51.51 331.82,-50.25 341.45,-49.02"/>
<polygon fill="midnightblue" stroke="midnightblue" points="341.92,-52.49 351.4,-47.75 341.03,-45.54 341.92,-52.49"/>
</g>
<!-- Node4 -->
<g id="node4" class="node">
<title>Node4</title>
<g id="a_node4"><a xlink:href="a00700.html#a1f98db6bbdf6b7d178bf92f55fd2e4dc" target="_top" xlink:title="从json字符串反序列化到MessageSource对象">
<polygon fill="white" stroke="black" points="522,-166.48 522,-196.48 650,-196.48 650,-166.48 522,-166.48"/>
<text text-anchor="start" x="530" y="-184.48" font-family="Helvetica,sans-Serif" font-size="10.00">MiraiCP::MessageSource</text>
<text text-anchor="middle" x="586" y="-173.48" font-family="Helvetica,sans-Serif" font-size="10.00">::deserializeFromString</text>
</a>
</g>
</g>
<!-- Node3&#45;&gt;Node4 -->
<g id="edge3" class="edge">
<title>Node3&#45;&gt;Node4</title>
<path fill="none" stroke="midnightblue" d="M436.23,-98.64C456.29,-114.79 489.95,-140.34 522,-157.48 525.09,-159.13 528.31,-160.73 531.6,-162.25"/>
<polygon fill="midnightblue" stroke="midnightblue" points="530.41,-165.55 540.98,-166.37 533.23,-159.14 530.41,-165.55"/>
</g>
<!-- Node8 -->
<g id="node8" class="node">
<title>Node8</title>
<g id="a_node8"><a xlink:href="a00309.html#a309e8d7f316e8b5e947ea3bcddeb84a8" target="_top" xlink:title="调用 Mirai 操作">
<polygon fill="white" stroke="black" points="531.5,-117.48 531.5,-147.48 640.5,-147.48 640.5,-117.48 531.5,-117.48"/>
<text text-anchor="start" x="539.5" y="-135.48" font-family="Helvetica,sans-Serif" font-size="10.00">MiraiCP::KtOperation</text>
<text text-anchor="middle" x="586" y="-124.48" font-family="Helvetica,sans-Serif" font-size="10.00">::ktOperation</text>
</a>
</g>
</g>
<!-- Node3&#45;&gt;Node8 -->
<g id="edge7" class="edge">
<title>Node3&#45;&gt;Node8</title>
<path fill="none" stroke="midnightblue" d="M469.47,-98.58C486.69,-103.64 506.06,-109.32 523.94,-114.57"/>
<polygon fill="midnightblue" stroke="midnightblue" points="523.12,-117.97 533.7,-117.43 525.09,-111.26 523.12,-117.97"/>
</g>
<!-- Node20 -->
<g id="node20" class="node">
<title>Node20</title>
<g id="a_node20"><a xlink:href="a00700.html#aca51487498128b420019182e1331a282" target="_top" xlink:title=" ">
<polygon fill="white" stroke="black" points="522,-68.48 522,-98.48 650,-98.48 650,-68.48 522,-68.48"/>
<text text-anchor="start" x="530" y="-86.48" font-family="Helvetica,sans-Serif" font-size="10.00">MiraiCP::MessageSource</text>
<text text-anchor="middle" x="586" y="-75.48" font-family="Helvetica,sans-Serif" font-size="10.00">::serializeToString</text>
</a>
</g>
</g>
<!-- Node3&#45;&gt;Node20 -->
<g id="edge23" class="edge">
<title>Node3&#45;&gt;Node20</title>
<path fill="none" stroke="midnightblue" d="M486.41,-83.48C494.73,-83.48 503.26,-83.48 511.66,-83.48"/>
<polygon fill="midnightblue" stroke="midnightblue" points="511.8,-86.98 521.8,-83.48 511.8,-79.98 511.8,-86.98"/>
</g>
<!-- Node21 -->
<g id="node21" class="node">
<title>Node21</title>
<g id="a_node21"><a xlink:href="a00416.html#a89fb588a12ff2d4de10722788945ea55" target="_top" xlink:title="序列化到json对象">
<polygon fill="white" stroke="black" points="523.5,-29.98 523.5,-48.98 648.5,-48.98 648.5,-29.98 523.5,-29.98"/>
<text text-anchor="middle" x="586" y="-36.98" font-family="Helvetica,sans-Serif" font-size="10.00">MiraiCP::Contact::toJson</text>
</a>
</g>
</g>
<!-- Node3&#45;&gt;Node21 -->
<g id="edge24" class="edge">
<title>Node3&#45;&gt;Node21</title>
<path fill="none" stroke="midnightblue" d="M475,-68.46C495.86,-62.97 519.17,-56.83 538.95,-51.61"/>
<polygon fill="midnightblue" stroke="midnightblue" points="539.87,-54.99 548.65,-49.06 538.08,-48.22 539.87,-54.99"/>
</g>
<!-- Node5 -->
<g id="node5" class="node">
<title>Node5</title>
<g id="a_node5"><a xlink:href="a00660.html#af14d39efa300da183070784bc86d3f23" target="_top" xlink:title="发送错误(error级日志)">
<polygon fill="white" stroke="black" points="686,-166.48 686,-196.48 814,-196.48 814,-166.48 686,-166.48"/>
<text text-anchor="start" x="694" y="-184.48" font-family="Helvetica,sans-Serif" font-size="10.00">MiraiCP::Logger_interface</text>
<text text-anchor="middle" x="750" y="-173.48" font-family="Helvetica,sans-Serif" font-size="10.00">::error</text>
</a>
</g>
</g>
<!-- Node4&#45;&gt;Node5 -->
<g id="edge4" class="edge">
<title>Node4&#45;&gt;Node5</title>
<path fill="none" stroke="midnightblue" d="M650.1,-181.48C658.43,-181.48 667.04,-181.48 675.53,-181.48"/>
<polygon fill="midnightblue" stroke="midnightblue" points="675.81,-184.98 685.81,-181.48 675.81,-177.98 675.81,-184.98"/>
</g>
<!-- Node6 -->
<g id="node6" class="node">
<title>Node6</title>
<g id="a_node6"><a xlink:href="a00660.html#a98af60f864a0446e23a7a27a3419d9b8" target="_top" xlink:title=" ">
<polygon fill="white" stroke="black" points="850,-215.48 850,-245.48 978,-245.48 978,-215.48 850,-215.48"/>
<text text-anchor="start" x="858" y="-233.48" font-family="Helvetica,sans-Serif" font-size="10.00">MiraiCP::Logger_interface</text>
<text text-anchor="middle" x="914" y="-222.48" font-family="Helvetica,sans-Serif" font-size="10.00">::constructString</text>
</a>
</g>
</g>
<!-- Node5&#45;&gt;Node6 -->
<g id="edge5" class="edge">
<title>Node5&#45;&gt;Node6</title>
<path fill="none" stroke="midnightblue" d="M800.93,-196.58C817.48,-201.59 836.07,-207.22 853.29,-212.42"/>
<polygon fill="midnightblue" stroke="midnightblue" points="852.65,-215.89 863.24,-215.43 854.68,-209.19 852.65,-215.89"/>
</g>
<!-- Node7 -->
<g id="node7" class="node">
<title>Node7</title>
<g id="a_node7"><a xlink:href="a00660.html#a86ea9d57475a3004be2a32b2c4c76371" target="_top" xlink:title="日志底层实现封装">
<polygon fill="white" stroke="black" points="850,-166.48 850,-196.48 978,-196.48 978,-166.48 850,-166.48"/>
<text text-anchor="start" x="858" y="-184.48" font-family="Helvetica,sans-Serif" font-size="10.00">MiraiCP::Logger_interface</text>
<text text-anchor="middle" x="914" y="-173.48" font-family="Helvetica,sans-Serif" font-size="10.00">::log_interface</text>
</a>
</g>
</g>
<!-- Node5&#45;&gt;Node7 -->
<g id="edge6" class="edge">
<title>Node5&#45;&gt;Node7</title>
<path fill="none" stroke="midnightblue" d="M814.1,-181.48C822.43,-181.48 831.04,-181.48 839.53,-181.48"/>
<polygon fill="midnightblue" stroke="midnightblue" points="839.81,-184.98 849.81,-181.48 839.81,-177.98 839.81,-184.98"/>
</g>
<!-- Node9 -->
<g id="node9" class="node">
<title>Node9</title>
<g id="a_node9"><a xlink:href="a00309.html#a1e1e498928eeaa1d7107033ff5fa881a" target="_top" xlink:title="调用 Mirai 操作">
<polygon fill="white" stroke="black" points="695.5,-117.48 695.5,-147.48 804.5,-147.48 804.5,-117.48 695.5,-117.48"/>
<text text-anchor="start" x="703.5" y="-135.48" font-family="Helvetica,sans-Serif" font-size="10.00">MiraiCP::KtOperation</text>
<text text-anchor="middle" x="750" y="-124.48" font-family="Helvetica,sans-Serif" font-size="10.00">::ktOperationStr</text>
</a>
</g>
</g>
<!-- Node8&#45;&gt;Node9 -->
<g id="edge8" class="edge">
<title>Node8&#45;&gt;Node9</title>
<path fill="none" stroke="midnightblue" d="M640.94,-132.48C655.15,-132.48 670.62,-132.48 685.29,-132.48"/>
<polygon fill="midnightblue" stroke="midnightblue" points="685.29,-135.98 695.29,-132.48 685.29,-128.98 685.29,-135.98"/>
</g>
<!-- Node10 -->
<g id="node10" class="node">
<title>Node10</title>
<g id="a_node10"><a xlink:href="a00303.html#a89b345ec37278655b8f02d07dbb3c882" target="_top" xlink:title="interfaces for plugins">
<polygon fill="white" stroke="black" points="860,-117.48 860,-147.48 968,-147.48 968,-117.48 860,-117.48"/>
<text text-anchor="start" x="868" y="-135.48" font-family="Helvetica,sans-Serif" font-size="10.00">LibLoader::LoaderApi</text>
<text text-anchor="middle" x="914" y="-124.48" font-family="Helvetica,sans-Serif" font-size="10.00">::pluginOperation</text>
</a>
</g>
</g>
<!-- Node9&#45;&gt;Node10 -->
<g id="edge9" class="edge">
<title>Node9&#45;&gt;Node10</title>
<path fill="none" stroke="midnightblue" d="M804.94,-132.48C819.3,-132.48 834.94,-132.48 849.75,-132.48"/>
<polygon fill="midnightblue" stroke="midnightblue" points="849.84,-135.98 859.84,-132.48 849.84,-128.98 849.84,-135.98"/>
</g>
<!-- Node11 -->
<g id="node11" class="node">
<title>Node11</title>
<g id="a_node11"><a xlink:href="a00328.html#ab263deade385e7b5de856d061c6027e9" target="_top" xlink:title=" ">
<polygon fill="white" stroke="black" points="1014,-180.48 1014,-210.48 1131,-210.48 1131,-180.48 1014,-180.48"/>
<text text-anchor="start" x="1022" y="-198.48" font-family="Helvetica,sans-Serif" font-size="10.00">MiraiCP::MiraiCPString</text>
<text text-anchor="middle" x="1072.5" y="-187.48" font-family="Helvetica,sans-Serif" font-size="10.00">::copyToCharPtr</text>
</a>
</g>
</g>
<!-- Node10&#45;&gt;Node11 -->
<g id="edge10" class="edge">
<title>Node10&#45;&gt;Node11</title>
<path fill="none" stroke="midnightblue" d="M953,-147.5C961.25,-150.78 969.92,-154.24 978,-157.48 993.34,-163.64 1010.07,-170.42 1025.08,-176.53"/>
<polygon fill="midnightblue" stroke="midnightblue" points="1024.09,-179.9 1034.67,-180.43 1026.73,-173.42 1024.09,-179.9"/>
</g>
<!-- Node12 -->
<g id="node12" class="node">
<title>Node12</title>
<g id="a_node12"><a xlink:href="a00336.html#aea7d58ff9f04d6d4849c25a2506603a5" target="_top" xlink:title="取env,如果不存在重新获取">
<polygon fill="white" stroke="black" points="1620,-103.98 1620,-122.98 1739,-122.98 1739,-103.98 1620,-103.98"/>
<text text-anchor="middle" x="1679.5" y="-110.98" font-family="Helvetica,sans-Serif" font-size="10.00">JNIEnvManager::getEnv</text>
</a>
</g>
</g>
<!-- Node10&#45;&gt;Node12 -->
<g id="edge11" class="edge">
<title>Node10&#45;&gt;Node12</title>
<path fill="none" stroke="midnightblue" d="M968.02,-137.67C1030.14,-143.3 1136.19,-151.48 1227.5,-151.48 1227.5,-151.48 1227.5,-151.48 1388.5,-151.48 1470.89,-151.48 1565.34,-136.22 1623.46,-125.04"/>
<polygon fill="midnightblue" stroke="midnightblue" points="1624.39,-128.42 1633.53,-123.07 1623.05,-121.55 1624.39,-128.42"/>
</g>
<!-- Node15 -->
<g id="node15" class="node">
<title>Node15</title>
<g id="a_node15"><a xlink:href="a00301.html#aa5f8d0ecd9dd392b491070aace643ae3" target="_top" xlink:title=" ">
<polygon fill="white" stroke="black" points="1175,-103.98 1175,-122.98 1282,-122.98 1282,-103.98 1175,-103.98"/>
<text text-anchor="middle" x="1228.5" y="-110.98" font-family="Helvetica,sans-Serif" font-size="10.00">LibLoader::jstring2str</text>
</a>
</g>
</g>
<!-- Node10&#45;&gt;Node15 -->
<g id="edge14" class="edge">
<title>Node10&#45;&gt;Node15</title>
<path fill="none" stroke="midnightblue" d="M968.01,-129.26C1022.39,-125.95 1106.95,-120.81 1164.66,-117.3"/>
<polygon fill="midnightblue" stroke="midnightblue" points="1164.98,-120.79 1174.75,-116.69 1164.56,-113.8 1164.98,-120.79"/>
</g>
<!-- Node17 -->
<g id="node17" class="node">
<title>Node17</title>
<g id="a_node17"><a xlink:href="a00301.html#a6a6fcd695791253a9b3a053d313b2b93" target="_top" xlink:title=" ">
<polygon fill="white" stroke="black" points="1019,-43.98 1019,-62.98 1126,-62.98 1126,-43.98 1019,-43.98"/>
<text text-anchor="middle" x="1072.5" y="-50.98" font-family="Helvetica,sans-Serif" font-size="10.00">LibLoader::str2jstring</text>
</a>
</g>
</g>
<!-- Node10&#45;&gt;Node17 -->
<g id="edge17" class="edge">
<title>Node10&#45;&gt;Node17</title>
<path fill="none" stroke="midnightblue" d="M944.8,-117.44C973.21,-103.1 1015.64,-81.68 1043.45,-67.64"/>
<polygon fill="midnightblue" stroke="midnightblue" points="1045.28,-70.64 1052.63,-63.01 1042.12,-64.39 1045.28,-70.64"/>
</g>
<!-- Node13 -->
<g id="node13" class="node">
<title>Node13</title>
<g id="a_node13"><a xlink:href="a00194.html#a3d31403b7971274d47d308245206bd24" target="_top" xlink:title="为当前线程创建一个env.">
<polygon fill="white" stroke="black" points="1775,-103.98 1775,-122.98 1825,-122.98 1825,-103.98 1775,-103.98"/>
<text text-anchor="middle" x="1800" y="-110.98" font-family="Helvetica,sans-Serif" font-size="10.00">newEnv</text>
</a>
</g>
</g>
<!-- Node12&#45;&gt;Node13 -->
<g id="edge12" class="edge">
<title>Node12&#45;&gt;Node13</title>
<path fill="none" stroke="midnightblue" d="M1739.06,-113.48C1747.89,-113.48 1756.75,-113.48 1764.85,-113.48"/>
<polygon fill="midnightblue" stroke="midnightblue" points="1764.98,-116.98 1774.98,-113.48 1764.98,-109.98 1764.98,-116.98"/>
</g>
<!-- Node14 -->
<g id="node14" class="node">
<title>Node14</title>
<g id="a_node14"><a xlink:href="a00336.html#ae0e482c6a813848a8f5d34957d1b6307" target="_top" xlink:title="获取全局JavaVM对象.">
<polygon fill="white" stroke="black" points="1861,-103.98 1861,-122.98 1983,-122.98 1983,-103.98 1861,-103.98"/>
<text text-anchor="middle" x="1922" y="-110.98" font-family="Helvetica,sans-Serif" font-size="10.00">JNIEnvManager::getGvm</text>
</a>
</g>
</g>
<!-- Node13&#45;&gt;Node14 -->
<g id="edge13" class="edge">
<title>Node13&#45;&gt;Node14</title>
<path fill="none" stroke="midnightblue" d="M1825.28,-113.48C1832.75,-113.48 1841.37,-113.48 1850.32,-113.48"/>
<polygon fill="midnightblue" stroke="midnightblue" points="1850.52,-116.98 1860.52,-113.48 1850.52,-109.98 1850.52,-116.98"/>
</g>
<!-- Node16 -->
<g id="node16" class="node">
<title>Node16</title>
<g id="a_node16"><a xlink:href="a00305.html#a076c5f4ff8083c7cfc6523498d0ba30f" target="_top" xlink:title=" ">
<polygon fill="white" stroke="black" points="1485,-76.48 1485,-106.48 1584,-106.48 1584,-76.48 1485,-76.48"/>
<text text-anchor="start" x="1493" y="-94.48" font-family="Helvetica,sans-Serif" font-size="10.00">LibLoader::JNIEnvs</text>
<text text-anchor="middle" x="1534.5" y="-83.48" font-family="Helvetica,sans-Serif" font-size="10.00">::getEnv</text>
</a>
</g>
</g>
<!-- Node15&#45;&gt;Node16 -->
<g id="edge15" class="edge">
<title>Node15&#45;&gt;Node16</title>
<path fill="none" stroke="midnightblue" d="M1282.11,-109.68C1335.7,-105.8 1418.65,-99.79 1474.46,-95.76"/>
<polygon fill="midnightblue" stroke="midnightblue" points="1474.83,-99.24 1484.55,-95.03 1474.32,-92.26 1474.83,-99.24"/>
</g>
<!-- Node16&#45;&gt;Node12 -->
<g id="edge16" class="edge">
<title>Node16&#45;&gt;Node12</title>
<path fill="none" stroke="midnightblue" d="M1584.31,-98.99C1592.51,-100.25 1601.16,-101.58 1609.75,-102.91"/>
<polygon fill="midnightblue" stroke="midnightblue" points="1609.36,-106.39 1619.78,-104.45 1610.43,-99.47 1609.36,-106.39"/>
</g>
<!-- Node17&#45;&gt;Node16 -->
<g id="edge18" class="edge">
<title>Node17&#45;&gt;Node16</title>
<path fill="none" stroke="midnightblue" d="M1126.27,-57.84C1212.84,-64.99 1384.43,-79.17 1474.75,-86.63"/>
<polygon fill="midnightblue" stroke="midnightblue" points="1474.57,-90.13 1484.82,-87.46 1475.14,-83.15 1474.57,-90.13"/>
</g>
<!-- Node18 -->
<g id="node18" class="node">
<title>Node18</title>
<g id="a_node18"><a xlink:href="a00368.html#af50d0545fe7d683e54fcd03453a423e3" target="_top" xlink:title=" ">
<polygon fill="white" stroke="black" points="1167,-16.48 1167,-46.48 1290,-46.48 1290,-16.48 1167,-16.48"/>
<text text-anchor="start" x="1175" y="-34.48" font-family="Helvetica,sans-Serif" font-size="10.00">LibLoader::LoaderLogger</text>
<text text-anchor="middle" x="1228.5" y="-23.48" font-family="Helvetica,sans-Serif" font-size="10.00">::warning</text>
</a>
</g>
</g>
<!-- Node17&#45;&gt;Node18 -->
<g id="edge19" class="edge">
<title>Node17&#45;&gt;Node18</title>
<path fill="none" stroke="midnightblue" d="M1126.07,-45.97C1136.04,-44.55 1146.62,-43.04 1157.04,-41.55"/>
<polygon fill="midnightblue" stroke="midnightblue" points="1157.55,-45.01 1166.95,-40.13 1156.56,-38.08 1157.55,-45.01"/>
</g>
<!-- Node19 -->
<g id="node19" class="node">
<title>Node19</title>
<g id="a_node19"><a xlink:href="a00368.html#af4d7d5164450e25f7401d1cc15f15b8d" target="_top" xlink:title="实际暴露的接口">
<polygon fill="white" stroke="black" points="1326,-16.48 1326,-46.48 1449,-46.48 1449,-16.48 1326,-16.48"/>
<text text-anchor="start" x="1334" y="-34.48" font-family="Helvetica,sans-Serif" font-size="10.00">LibLoader::LoaderLogger</text>
<text text-anchor="middle" x="1387.5" y="-23.48" font-family="Helvetica,sans-Serif" font-size="10.00">::call_logger</text>
</a>
</g>
</g>
<!-- Node18&#45;&gt;Node19 -->
<g id="edge20" class="edge">
<title>Node18&#45;&gt;Node19</title>
<path fill="none" stroke="midnightblue" d="M1290.2,-31.48C1298.64,-31.48 1307.36,-31.48 1315.95,-31.48"/>
<polygon fill="midnightblue" stroke="midnightblue" points="1315.96,-34.98 1325.96,-31.48 1315.96,-27.98 1315.96,-34.98"/>
</g>
<!-- Node19&#45;&gt;Node16 -->
<g id="edge21" class="edge">
<title>Node19&#45;&gt;Node16</title>
<path fill="none" stroke="midnightblue" d="M1425.09,-46.62C1444.14,-54.51 1467.61,-64.22 1487.84,-72.59"/>
<polygon fill="midnightblue" stroke="midnightblue" points="1486.6,-75.86 1497.17,-76.45 1489.27,-69.39 1486.6,-75.86"/>
</g>
<!-- Node19&#45;&gt;Node17 -->
<g id="edge22" class="edge">
<title>Node19&#45;&gt;Node17</title>
<path fill="none" stroke="midnightblue" d="M1337.97,-16.47C1293.11,-4.82 1224.84,7.24 1167,-6.48 1140.99,-12.65 1113.99,-27.26 1095.73,-38.56"/>
<polygon fill="midnightblue" stroke="midnightblue" points="1093.83,-35.63 1087.27,-43.95 1097.59,-41.53 1093.83,-35.63"/>
</g>
<!-- Node22&#45;&gt;Node21 -->
<g id="edge26" class="edge">
<title>Node22&#45;&gt;Node21</title>
<path fill="none" stroke="midnightblue" d="M482.57,-39.48C492.62,-39.48 503.05,-39.48 513.25,-39.48"/>
<polygon fill="midnightblue" stroke="midnightblue" points="513.35,-42.98 523.35,-39.48 513.35,-35.98 513.35,-42.98"/>
</g>
</g>
</svg>
