<?xml version="1.0" encoding="UTF-8" standalone="no"?>
<!DOCTYPE svg PUBLIC "-//W3C//DTD SVG 1.1//EN"
 "http://www.w3.org/Graphics/SVG/1.1/DTD/svg11.dtd">
<!-- Generated by graphviz version 2.50.0 (20211204.2007)
 -->
<!-- Title: MiraiCP::MiraiCPExceptionCRTP&lt; T &gt; Pages: 1 -->
<svg width="220pt" height="475pt"
 viewBox="0.00 0.00 220.00 475.00" xmlns="http://www.w3.org/2000/svg" xmlns:xlink="http://www.w3.org/1999/xlink">
<g id="graph0" class="graph" transform="scale(1 1) rotate(0) translate(4 471)">
<title>MiraiCP::MiraiCPExceptionCRTP&lt; T &gt;</title>
<polygon fill="white" stroke="transparent" points="-4,4 -4,-471 216,-471 216,4 -4,4"/>
<!-- Node1 -->
<g id="node1" class="node">
<title>Node1</title>
<g id="a_node1"><a xlink:title="总异常CRTP抽象类，不要直接抛出该类，不知道抛出什么的时候请抛出 MiraiCPException。 该类是用于继承的基类，需要新的异常类型时，继承该类并以子类作为模板参数。 子类需要实现的方法：">
<polygon fill="#bfbfbf" stroke="black" points="49.5,-0.5 49.5,-112.5 184.5,-112.5 184.5,-0.5 49.5,-0.5"/>
<text text-anchor="start" x="57.5" y="-100.5" font-family="Helvetica,sans-Serif" font-size="10.00">MiraiCP::MiraiCPException</text>
<text text-anchor="middle" x="117" y="-89.5" font-family="Helvetica,sans-Serif" font-size="10.00">CRTP&lt; T &gt;</text>
<polyline fill="none" stroke="black" points="49.5,-82.5 184.5,-82.5 "/>
<text text-anchor="middle" x="117" y="-70.5" font-family="Helvetica,sans-Serif" font-size="10.00"> </text>
<polyline fill="none" stroke="black" points="49.5,-63.5 184.5,-63.5 "/>
<text text-anchor="start" x="57.5" y="-51.5" font-family="Helvetica,sans-Serif" font-size="10.00">+ MiraiCPExceptionCRTP</text>
<text text-anchor="start" x="57.5" y="-40.5" font-family="Helvetica,sans-Serif" font-size="10.00">(string _re, string </text>
<text text-anchor="start" x="57.5" y="-29.5" font-family="Helvetica,sans-Serif" font-size="10.00">_filename, int _lineNum)</text>
<text text-anchor="start" x="57.5" y="-18.5" font-family="Helvetica,sans-Serif" font-size="10.00">+ string getExceptionType</text>
<text text-anchor="start" x="57.5" y="-7.5" font-family="Helvetica,sans-Serif" font-size="10.00">() const override</text>
</a>
</g>
</g>
<!-- Node2 -->
<g id="node2" class="node">
<title>Node2</title>
<g id="a_node2"><a xlink:href="a00561.html" target="_top" xlink:title="总异常抽象类，用于一般捕获，不要直接抛出该类，不知道抛出什么的时候请抛出 MiraiCPException">
<polygon fill="white" stroke="black" points="38,-150.5 38,-350.5 196,-350.5 196,-150.5 38,-150.5"/>
<text text-anchor="middle" x="117" y="-338.5" font-family="Helvetica,sans-Serif" font-size="10.00">MiraiCP::MiraiCPExceptionBase</text>
<polyline fill="none" stroke="black" points="38,-331.5 196,-331.5 "/>
<text text-anchor="middle" x="117" y="-319.5" font-family="Helvetica,sans-Serif" font-size="10.00"> </text>
<polyline fill="none" stroke="black" points="38,-312.5 196,-312.5 "/>
<text text-anchor="start" x="46" y="-300.5" font-family="Helvetica,sans-Serif" font-size="10.00">+ ~MiraiCPExceptionBase</text>
<text text-anchor="start" x="46" y="-289.5" font-family="Helvetica,sans-Serif" font-size="10.00">() override=default</text>
<text text-anchor="start" x="46" y="-278.5" font-family="Helvetica,sans-Serif" font-size="10.00">+ const char * what()</text>
<text text-anchor="start" x="46" y="-267.5" font-family="Helvetica,sans-Serif" font-size="10.00"> const noexcept override</text>
<text text-anchor="start" x="46" y="-256.5" font-family="Helvetica,sans-Serif" font-size="10.00">+ string getError() const</text>
<text text-anchor="start" x="46" y="-245.5" font-family="Helvetica,sans-Serif" font-size="10.00">+ void raise() const</text>
<text text-anchor="start" x="46" y="-234.5" font-family="Helvetica,sans-Serif" font-size="10.00">+ virtual void basicRaise</text>
<text text-anchor="start" x="46" y="-223.5" font-family="Helvetica,sans-Serif" font-size="10.00">() const</text>
<text text-anchor="start" x="46" y="-212.5" font-family="Helvetica,sans-Serif" font-size="10.00">+ virtual string getException</text>
<text text-anchor="start" x="46" y="-201.5" font-family="Helvetica,sans-Serif" font-size="10.00">Type() const =0</text>
<text text-anchor="start" x="46" y="-190.5" font-family="Helvetica,sans-Serif" font-size="10.00">+ static string exceptionType()</text>
<text text-anchor="start" x="46" y="-179.5" font-family="Helvetica,sans-Serif" font-size="10.00"># MiraiCPExceptionBase</text>
<text text-anchor="start" x="46" y="-168.5" font-family="Helvetica,sans-Serif" font-size="10.00">(string info, string</text>
<text text-anchor="start" x="46" y="-157.5" font-family="Helvetica,sans-Serif" font-size="10.00"> _filename, int _lineNum)</text>
</a>
</g>
</g>
<!-- Node2&#45;&gt;Node1 -->
<g id="edge1" class="edge">
<title>Node2&#45;&gt;Node1</title>
<path fill="none" stroke="midnightblue" d="M117,-140.37C117,-130.78 117,-121.37 117,-112.53"/>
<polygon fill="none" stroke="midnightblue" points="113.5,-140.41 117,-150.41 120.5,-140.41 113.5,-140.41"/>
</g>
<!-- Node3 -->
<g id="node3" class="node">
<title>Node3</title>
<g id="a_node3"><a xlink:title=" ">
<polygon fill="white" stroke="#bfbfbf" points="0,-409.5 0,-466.5 78,-466.5 78,-409.5 0,-409.5"/>
<text text-anchor="middle" x="39" y="-454.5" font-family="Helvetica,sans-Serif" font-size="10.00">std::exception</text>
<polyline fill="none" stroke="#bfbfbf" points="0,-447.5 78,-447.5 "/>
<text text-anchor="middle" x="39" y="-435.5" font-family="Helvetica,sans-Serif" font-size="10.00"> </text>
<polyline fill="none" stroke="#bfbfbf" points="0,-428.5 78,-428.5 "/>
<text text-anchor="middle" x="39" y="-416.5" font-family="Helvetica,sans-Serif" font-size="10.00"> </text>
</a>
</g>
</g>
<!-- Node3&#45;&gt;Node2 -->
<g id="edge2" class="edge">
<title>Node3&#45;&gt;Node2</title>
<path fill="none" stroke="midnightblue" d="M54.67,-399.73C60.73,-385.32 67.98,-368.08 75.36,-350.54"/>
<polygon fill="none" stroke="midnightblue" points="51.33,-398.65 50.68,-409.23 57.78,-401.37 51.33,-398.65"/>
</g>
<!-- Node4 -->
<g id="node4" class="node">
<title>Node4</title>
<g id="a_node4"><a xlink:title=" ">
<polygon fill="white" stroke="#bfbfbf" points="96.5,-409.5 96.5,-466.5 137.5,-466.5 137.5,-409.5 96.5,-409.5"/>
<text text-anchor="middle" x="117" y="-454.5" font-family="Helvetica,sans-Serif" font-size="10.00">string</text>
<polyline fill="none" stroke="#bfbfbf" points="96.5,-447.5 137.5,-447.5 "/>
<text text-anchor="middle" x="117" y="-435.5" font-family="Helvetica,sans-Serif" font-size="10.00"> </text>
<polyline fill="none" stroke="#bfbfbf" points="96.5,-428.5 137.5,-428.5 "/>
<text text-anchor="middle" x="117" y="-416.5" font-family="Helvetica,sans-Serif" font-size="10.00"> </text>
</a>
</g>
</g>
<!-- Node4&#45;&gt;Node2 -->
<g id="edge3" class="edge">
<title>Node4&#45;&gt;Node2</title>
<path fill="none" stroke="#404040" d="M117,-409.23C117,-396.25 117,-379.87 117,-362.6"/>
<polygon fill="none" stroke="#404040" points="117,-362.54 113,-356.54 117,-350.54 121,-356.54 117,-362.54"/>
<text text-anchor="middle" x="138.5" y="-383" font-family="Helvetica,sans-Serif" font-size="10.00"> #re</text>
<text text-anchor="middle" x="138.5" y="-372" font-family="Helvetica,sans-Serif" font-size="10.00">+filename</text>
</g>
<!-- Node5 -->
<g id="node5" class="node">
<title>Node5</title>
<g id="a_node5"><a xlink:title=" ">
<polygon fill="white" stroke="#bfbfbf" points="168.5,-409.5 168.5,-466.5 197.5,-466.5 197.5,-409.5 168.5,-409.5"/>
<text text-anchor="middle" x="183" y="-454.5" font-family="Helvetica,sans-Serif" font-size="10.00">int</text>
<polyline fill="none" stroke="#bfbfbf" points="168.5,-447.5 197.5,-447.5 "/>
<text text-anchor="middle" x="183" y="-435.5" font-family="Helvetica,sans-Serif" font-size="10.00"> </text>
<polyline fill="none" stroke="#bfbfbf" points="168.5,-428.5 197.5,-428.5 "/>
<text text-anchor="middle" x="183" y="-416.5" font-family="Helvetica,sans-Serif" font-size="10.00"> </text>
</a>
</g>
</g>
<!-- Node5&#45;&gt;Node2 -->
<g id="edge4" class="edge">
<title>Node5&#45;&gt;Node2</title>
<path fill="none" stroke="#404040" d="M174.4,-409.44C170.45,-397.04 165.62,-382.24 161,-369 160.22,-366.76 159.43,-364.5 158.62,-362.23"/>
<polygon fill="none" stroke="#404040" points="158.56,-362.05 152.78,-357.74 154.53,-350.75 160.31,-355.06 158.56,-362.05"/>
<text text-anchor="middle" x="189.5" y="-377.5" font-family="Helvetica,sans-Serif" font-size="10.00"> +lineNum</text>
</g>
</g>
</svg>
