<?xml version="1.0" encoding="UTF-8" standalone="no"?>
<!DOCTYPE svg PUBLIC "-//W3C//DTD SVG 1.1//EN"
 "http://www.w3.org/Graphics/SVG/1.1/DTD/svg11.dtd">
<!-- Generated by graphviz version 9.0.0 (0)
 -->
<!-- Title: MiraiCP::MiraiCPThreadException Pages: 1 -->
<svg width="259pt" height="955pt"
 viewBox="0.00 0.00 259.25 955.00" xmlns="http://www.w3.org/2000/svg" xmlns:xlink="http://www.w3.org/1999/xlink">
<g id="graph0" class="graph" transform="scale(1 1) rotate(0) translate(4 951)">
<title>MiraiCP::MiraiCPThreadException</title>
<!-- Node1 -->
<g id="Node000001" class="node">
<title>Node1</title>
<g id="a_Node000001"><a xlink:title=" ">
<polygon fill="#999999" stroke="none" points="162.5,-172 0.5,-172 0.5,0 162.5,0 162.5,-172"/>
<text text-anchor="start" x="6.5" y="-158.5" font-family="Helvetica,sans-Serif" font-size="10.00">MiraiCP::MiraiCPThreadException</text>
<text text-anchor="start" x="4.5" y="-142.5" font-family="Helvetica,sans-Serif" font-size="10.00">+</text>
<text text-anchor="start" x="14.5" y="-142.5" font-family="Helvetica,sans-Serif" font-size="10.00">std::thread::id threadId</text>
<text text-anchor="start" x="4.5" y="-126.5" font-family="Helvetica,sans-Serif" font-size="10.00">+</text>
<text text-anchor="start" x="14.5" y="-126.5" font-family="Helvetica,sans-Serif" font-size="10.00">MiraiCPThreadException</text>
<text text-anchor="start" x="14.5" y="-114.5" font-family="Helvetica,sans-Serif" font-size="10.00">(const std::string &amp;exception</text>
<text text-anchor="start" x="14.5" y="-102.5" font-family="Helvetica,sans-Serif" font-size="10.00">_content, std::thread::id threadId,</text>
<text text-anchor="start" x="14.5" y="-90.5" font-family="Helvetica,sans-Serif" font-size="10.00"> string _filename, int _lineNum)</text>
<text text-anchor="start" x="4.5" y="-74.5" font-family="Helvetica,sans-Serif" font-size="10.00">+</text>
<text text-anchor="start" x="14.5" y="-74.5" font-family="Helvetica,sans-Serif" font-size="10.00">std::string getThreadIdStr</text>
<text text-anchor="start" x="14.5" y="-62.5" font-family="Helvetica,sans-Serif" font-size="10.00">() const</text>
<text text-anchor="start" x="4.5" y="-46.5" font-family="Helvetica,sans-Serif" font-size="10.00">+</text>
<text text-anchor="start" x="14.5" y="-46.5" font-family="Helvetica,sans-Serif" font-size="10.00">static string exceptionType()</text>
<text text-anchor="start" x="6" y="-30.5" font-family="Helvetica,sans-Serif" font-size="10.00">&#45;</text>
<text text-anchor="start" x="14.5" y="-30.5" font-family="Helvetica,sans-Serif" font-size="10.00">static MIRAICP_EXPORT</text>
<text text-anchor="start" x="14.5" y="-18.5" font-family="Helvetica,sans-Serif" font-size="10.00"> std::string getThreadIdStr</text>
<text text-anchor="start" x="14.5" y="-6.5" font-family="Helvetica,sans-Serif" font-size="10.00">(const std::thread::id &amp;id)</text>
<polygon fill="#666666" stroke="#666666" points="0.5,-154 0.5,-154 162.5,-154 162.5,-154 0.5,-154"/>
<polygon fill="#666666" stroke="#666666" points="0.5,-138 0.5,-138 12.5,-138 12.5,-138 0.5,-138"/>
<polygon fill="#666666" stroke="#666666" points="12.5,-138 12.5,-138 162.5,-138 162.5,-138 12.5,-138"/>
<polygon fill="none" stroke="#666666" points="0.5,0 0.5,-172 162.5,-172 162.5,0 0.5,0"/>
</a>
</g>
</g>
<!-- Node2 -->
<g id="Node000002" class="node">
<title>Node2</title>
<g id="a_Node000002"><a xlink:href="a00580.html" target="_top" xlink:title=" ">
<polygon fill="white" stroke="none" points="163,-337 0,-337 0,-209 163,-209 163,-337"/>
<text text-anchor="start" x="4.62" y="-323.5" font-family="Helvetica,sans-Serif" font-size="10.00">MiraiCP::MiraiCPException</text>
<text text-anchor="start" x="4.62" y="-311.5" font-family="Helvetica,sans-Serif" font-size="10.00">CRTP&lt; MiraiCPThreadException &gt;</text>
<text text-anchor="start" x="80" y="-295.5" font-family="Helvetica,sans-Serif" font-size="10.00"> </text>
<text text-anchor="start" x="14" y="-279.5" font-family="Helvetica,sans-Serif" font-size="10.00">+</text>
<text text-anchor="start" x="34" y="-279.5" font-family="Helvetica,sans-Serif" font-size="10.00">MiraiCPExceptionCRTP</text>
<text text-anchor="start" x="34" y="-267.5" font-family="Helvetica,sans-Serif" font-size="10.00">(nlohmann::json info,</text>
<text text-anchor="start" x="34" y="-255.5" font-family="Helvetica,sans-Serif" font-size="10.00"> string _filename, int</text>
<text text-anchor="start" x="34" y="-243.5" font-family="Helvetica,sans-Serif" font-size="10.00"> _lineNum)</text>
<text text-anchor="start" x="14" y="-227.5" font-family="Helvetica,sans-Serif" font-size="10.00">+</text>
<text text-anchor="start" x="34" y="-227.5" font-family="Helvetica,sans-Serif" font-size="10.00">string getExceptionType</text>
<text text-anchor="start" x="34" y="-215.5" font-family="Helvetica,sans-Serif" font-size="10.00">() const override</text>
<polygon fill="#666666" stroke="#666666" points="0,-307 0,-307 163,-307 163,-307 0,-307"/>
<polygon fill="#666666" stroke="#666666" points="0,-291 0,-291 163,-291 163,-291 0,-291"/>
<polygon fill="none" stroke="#666666" points="0,-209 0,-337 163,-337 163,-209 0,-209"/>
</a>
</g>
</g>
<!-- Node2&#45;&gt;Node1 -->
<g id="edge1_Node000001_Node000002" class="edge">
<title>Node2&#45;&gt;Node1</title>
<g id="a_edge1_Node000001_Node000002"><a xlink:title=" ">
<path fill="none" stroke="#63b8ff" d="M81.5,-197.73C81.5,-189.26 81.5,-180.59 81.5,-172"/>
<polygon fill="none" stroke="#63b8ff" points="78,-197.6 81.5,-207.6 85,-197.6 78,-197.6"/>
</a>
</g>
</g>
<!-- Node3 -->
<g id="Node000003" class="node">
<title>Node3</title>
<g id="a_Node000003"><a xlink:href="a00576.html" target="_top" xlink:title="总异常抽象类，用于一般捕获，不要直接抛出该类，不知道抛出什么的时候请抛出 MiraiCPException">
<polygon fill="white" stroke="none" points="153.5,-858 1.5,-858 1.5,-550 153.5,-550 153.5,-858"/>
<text text-anchor="start" x="6.25" y="-844.5" font-family="Helvetica,sans-Serif" font-size="10.00">MiraiCP::MiraiCPExceptionBase</text>
<text text-anchor="start" x="8" y="-828.5" font-family="Helvetica,sans-Serif" font-size="10.00">+</text>
<text text-anchor="start" x="20.5" y="-828.5" font-family="Helvetica,sans-Serif" font-size="10.00">string filename</text>
<text text-anchor="start" x="8" y="-812.5" font-family="Helvetica,sans-Serif" font-size="10.00">+</text>
<text text-anchor="start" x="20.5" y="-812.5" font-family="Helvetica,sans-Serif" font-size="10.00">int lineNum</text>
<text text-anchor="start" x="8.38" y="-796.5" font-family="Helvetica,sans-Serif" font-size="10.00">#</text>
<text text-anchor="start" x="20.5" y="-796.5" font-family="Helvetica,sans-Serif" font-size="10.00">string cause</text>
<text text-anchor="start" x="8" y="-780.5" font-family="Helvetica,sans-Serif" font-size="10.00">+</text>
<text text-anchor="start" x="20.5" y="-780.5" font-family="Helvetica,sans-Serif" font-size="10.00">~MiraiCPExceptionBase</text>
<text text-anchor="start" x="20.5" y="-768.5" font-family="Helvetica,sans-Serif" font-size="10.00">() override=default</text>
<text text-anchor="start" x="8" y="-752.5" font-family="Helvetica,sans-Serif" font-size="10.00">+</text>
<text text-anchor="start" x="20.5" y="-752.5" font-family="Helvetica,sans-Serif" font-size="10.00">const char * what()</text>
<text text-anchor="start" x="20.5" y="-740.5" font-family="Helvetica,sans-Serif" font-size="10.00"> const noexcept override</text>
<text text-anchor="start" x="8" y="-724.5" font-family="Helvetica,sans-Serif" font-size="10.00">+</text>
<text text-anchor="start" x="20.5" y="-724.5" font-family="Helvetica,sans-Serif" font-size="10.00">string getError() const</text>
<text text-anchor="start" x="8" y="-708.5" font-family="Helvetica,sans-Serif" font-size="10.00">+</text>
<text text-anchor="start" x="20.5" y="-708.5" font-family="Helvetica,sans-Serif" font-size="10.00">nlohmann::json getCause</text>
<text text-anchor="start" x="20.5" y="-696.5" font-family="Helvetica,sans-Serif" font-size="10.00">() const</text>
<text text-anchor="start" x="8" y="-680.5" font-family="Helvetica,sans-Serif" font-size="10.00">+</text>
<text text-anchor="start" x="20.5" y="-680.5" font-family="Helvetica,sans-Serif" font-size="10.00">void raise() const</text>
<text text-anchor="start" x="8" y="-664.5" font-family="Helvetica,sans-Serif" font-size="10.00">+</text>
<text text-anchor="start" x="20.5" y="-664.5" font-family="Helvetica,sans-Serif" font-size="10.00">virtual void basicRaise</text>
<text text-anchor="start" x="20.5" y="-652.5" font-family="Helvetica,sans-Serif" font-size="10.00">() const</text>
<text text-anchor="start" x="8" y="-636.5" font-family="Helvetica,sans-Serif" font-size="10.00">+</text>
<text text-anchor="start" x="20.5" y="-636.5" font-family="Helvetica,sans-Serif" font-size="10.00">virtual string getException</text>
<text text-anchor="start" x="20.5" y="-624.5" font-family="Helvetica,sans-Serif" font-size="10.00">Type() const =0</text>
<text text-anchor="start" x="8" y="-608.5" font-family="Helvetica,sans-Serif" font-size="10.00">+</text>
<text text-anchor="start" x="20.5" y="-608.5" font-family="Helvetica,sans-Serif" font-size="10.00">static string exceptionType()</text>
<text text-anchor="start" x="8.38" y="-592.5" font-family="Helvetica,sans-Serif" font-size="10.00">#</text>
<text text-anchor="start" x="20.5" y="-592.5" font-family="Helvetica,sans-Serif" font-size="10.00">MiraiCPExceptionBase</text>
<text text-anchor="start" x="20.5" y="-580.5" font-family="Helvetica,sans-Serif" font-size="10.00">(const nlohmann::json</text>
<text text-anchor="start" x="20.5" y="-568.5" font-family="Helvetica,sans-Serif" font-size="10.00"> &amp;info, string _filename,</text>
<text text-anchor="start" x="20.5" y="-556.5" font-family="Helvetica,sans-Serif" font-size="10.00"> int _lineNum)</text>
<polygon fill="#666666" stroke="#666666" points="1.5,-840 1.5,-840 153.5,-840 153.5,-840 1.5,-840"/>
<polygon fill="#666666" stroke="#666666" points="1.5,-792 1.5,-792 18.5,-792 18.5,-792 1.5,-792"/>
<polygon fill="#666666" stroke="#666666" points="18.5,-792 18.5,-792 153.5,-792 153.5,-792 18.5,-792"/>
<polygon fill="none" stroke="#666666" points="1.5,-550 1.5,-858 153.5,-858 153.5,-550 1.5,-550"/>
</a>
</g>
</g>
<!-- Node3&#45;&gt;Node2 -->
<g id="edge2_Node000002_Node000003" class="edge">
<title>Node3&#45;&gt;Node2</title>
<g id="a_edge2_Node000002_Node000003"><a xlink:title=" ">
<path fill="none" stroke="#63b8ff" d="M79.03,-538.98C79.69,-468.36 80.42,-390 80.91,-336.94"/>
<polygon fill="none" stroke="#63b8ff" points="75.53,-538.69 78.94,-548.73 82.53,-538.76 75.53,-538.69"/>
</a>
</g>
</g>
<!-- Node5 -->
<g id="Node000005" class="node">
<title>Node5</title>
<g id="a_Node000005"><a xlink:href="a00580.html" target="_top" xlink:title="总异常CRTP抽象类，不要直接抛出该类，不知道抛出什么的时候请抛出 MiraiCPException。 该类是用于继承的基类，需要新的异常类型时，继承该类并以子类作为模板参数。 子类需要实现的方法：">
<polygon fill="white" stroke="none" points="223.5,-513 93.5,-513 93.5,-385 223.5,-385 223.5,-513"/>
<text text-anchor="start" x="98.5" y="-499.5" font-family="Helvetica,sans-Serif" font-size="10.00">MiraiCP::MiraiCPException</text>
<text text-anchor="start" x="133.38" y="-487.5" font-family="Helvetica,sans-Serif" font-size="10.00">CRTP&lt; T &gt;</text>
<text text-anchor="start" x="157" y="-471.5" font-family="Helvetica,sans-Serif" font-size="10.00"> </text>
<text text-anchor="start" x="99" y="-455.5" font-family="Helvetica,sans-Serif" font-size="10.00">+</text>
<text text-anchor="start" x="110.5" y="-455.5" font-family="Helvetica,sans-Serif" font-size="10.00">MiraiCPExceptionCRTP</text>
<text text-anchor="start" x="110.5" y="-443.5" font-family="Helvetica,sans-Serif" font-size="10.00">(nlohmann::json info,</text>
<text text-anchor="start" x="110.5" y="-431.5" font-family="Helvetica,sans-Serif" font-size="10.00"> string _filename, int</text>
<text text-anchor="start" x="110.5" y="-419.5" font-family="Helvetica,sans-Serif" font-size="10.00"> _lineNum)</text>
<text text-anchor="start" x="99" y="-403.5" font-family="Helvetica,sans-Serif" font-size="10.00">+</text>
<text text-anchor="start" x="110.5" y="-403.5" font-family="Helvetica,sans-Serif" font-size="10.00">string getExceptionType</text>
<text text-anchor="start" x="110.5" y="-391.5" font-family="Helvetica,sans-Serif" font-size="10.00">() const override</text>
<polygon fill="#666666" stroke="#666666" points="93.5,-483 93.5,-483 223.5,-483 223.5,-483 93.5,-483"/>
<polygon fill="#666666" stroke="#666666" points="93.5,-467 93.5,-467 223.5,-467 223.5,-467 93.5,-467"/>
<polygon fill="none" stroke="#666666" points="93.5,-385 93.5,-513 223.5,-513 223.5,-385 93.5,-385"/>
</a>
</g>
</g>
<!-- Node3&#45;&gt;Node5 -->
<g id="edge5_Node000005_Node000003" class="edge">
<title>Node3&#45;&gt;Node5</title>
<g id="a_edge5_Node000005_Node000003"><a xlink:title=" ">
<path fill="none" stroke="#63b8ff" d="M129.86,-539.45C132.8,-530.27 135.65,-521.37 138.34,-512.97"/>
<polygon fill="none" stroke="#63b8ff" points="126.55,-538.32 126.83,-548.91 133.21,-540.46 126.55,-538.32"/>
</a>
</g>
</g>
<!-- Node4 -->
<g id="Node000004" class="node">
<title>Node4</title>
<g id="a_Node000004"><a xlink:title=" ">
<polygon fill="white" stroke="none" points="113,-947 42,-947 42,-895 113,-895 113,-947"/>
<text text-anchor="start" x="46.75" y="-933.5" font-family="Helvetica,sans-Serif" font-size="10.00">std::exception</text>
<text text-anchor="start" x="76" y="-917.5" font-family="Helvetica,sans-Serif" font-size="10.00"> </text>
<text text-anchor="start" x="76" y="-901.5" font-family="Helvetica,sans-Serif" font-size="10.00"> </text>
<polygon fill="#666666" stroke="#666666" points="42,-929 42,-929 113,-929 113,-929 42,-929"/>
<polygon fill="#666666" stroke="#666666" points="42,-913 42,-913 113,-913 113,-913 42,-913"/>
<polygon fill="none" stroke="#666666" points="42,-895 42,-947 113,-947 113,-895 42,-895"/>
</a>
</g>
</g>
<!-- Node4&#45;&gt;Node3 -->
<g id="edge3_Node000003_Node000004" class="edge">
<title>Node4&#45;&gt;Node3</title>
<g id="a_edge3_Node000003_Node000004"><a xlink:title=" ">
<path fill="none" stroke="#63b8ff" d="M77.5,-884.05C77.5,-876.1 77.5,-867.2 77.5,-857.71"/>
<polygon fill="none" stroke="#63b8ff" points="74,-883.82 77.5,-893.82 81,-883.82 74,-883.82"/>
</a>
</g>
</g>
<!-- Node5&#45;&gt;Node2 -->
<g id="edge4_Node000002_Node000005" class="edge">
<title>Node5&#45;&gt;Node2</title>
<g id="a_edge4_Node000002_Node000005"><a xlink:title=" ">
<path fill="none" stroke="orange" d="M126.06,-374.69C120.47,-362.06 114.71,-349.04 109.26,-336.73"/>
<polygon fill="orange" stroke="orange" points="122.84,-376.07 130.09,-383.8 129.24,-373.24 122.84,-376.07"/>
</a>
</g>
<text text-anchor="middle" x="186.38" y="-357.5" font-family="Helvetica,sans-Serif" font-size="10.00" fill="grey"> &lt; MiraiCPThreadException &gt;</text>
</g>
</g>
</svg>
