<?xml version="1.0" encoding="UTF-8" standalone="no"?>
<!DOCTYPE svg PUBLIC "-//W3C//DTD SVG 1.1//EN"
 "http://www.w3.org/Graphics/SVG/1.1/DTD/svg11.dtd">
<!-- Generated by graphviz version 2.50.0 (20211204.2007)
 -->
<!-- Title: MiraiCP::NudgeEvent Pages: 1 -->
<svg width="580pt" height="1648pt"
 viewBox="0.00 0.00 579.50 1648.00" xmlns="http://www.w3.org/2000/svg" xmlns:xlink="http://www.w3.org/1999/xlink">
<g id="graph0" class="graph" transform="scale(1 1) rotate(0) translate(4 1644)">
<title>MiraiCP::NudgeEvent</title>
<polygon fill="white" stroke="transparent" points="-4,4 -4,-1644 575.5,-1644 575.5,4 -4,4"/>
<!-- Node1 -->
<g id="node1" class="node">
<title>Node1</title>
<g id="a_node1"><a xlink:title=" ">
<polygon fill="#bfbfbf" stroke="black" points="327,-0.5 327,-79.5 482,-79.5 482,-0.5 327,-0.5"/>
<text text-anchor="middle" x="404.5" y="-67.5" font-family="Helvetica,sans-Serif" font-size="10.00">MiraiCP::NudgeEvent</text>
<polyline fill="none" stroke="black" points="327,-60.5 482,-60.5 "/>
<text text-anchor="middle" x="404.5" y="-48.5" font-family="Helvetica,sans-Serif" font-size="10.00"> </text>
<polyline fill="none" stroke="black" points="327,-41.5 482,-41.5 "/>
<text text-anchor="start" x="335" y="-29.5" font-family="Helvetica,sans-Serif" font-size="10.00">+ NudgeEvent(BaseEventData j)</text>
<text text-anchor="start" x="335" y="-18.5" font-family="Helvetica,sans-Serif" font-size="10.00">+ static eventTypes::</text>
<text text-anchor="start" x="335" y="-7.5" font-family="Helvetica,sans-Serif" font-size="10.00">Types get_event_type()</text>
</a>
</g>
</g>
<!-- Node2 -->
<g id="node2" class="node">
<title>Node2</title>
<g id="a_node2"><a xlink:href="a00457.html" target="_top" xlink:title=" ">
<polygon fill="white" stroke="black" points="145,-117.5 145,-240.5 292,-240.5 292,-117.5 145,-117.5"/>
<text text-anchor="start" x="153" y="-228.5" font-family="Helvetica,sans-Serif" font-size="10.00">MiraiCP::BotEvent&lt;</text>
<text text-anchor="middle" x="218.5" y="-217.5" font-family="Helvetica,sans-Serif" font-size="10.00"> NudgeEvent &gt;</text>
<polyline fill="none" stroke="black" points="145,-210.5 292,-210.5 "/>
<text text-anchor="start" x="153" y="-198.5" font-family="Helvetica,sans-Serif" font-size="10.00">+ Bot bot</text>
<text text-anchor="start" x="153" y="-187.5" font-family="Helvetica,sans-Serif" font-size="10.00">+ IdLogger botlogger</text>
<polyline fill="none" stroke="black" points="145,-180.5 292,-180.5 "/>
<text text-anchor="start" x="153" y="-168.5" font-family="Helvetica,sans-Serif" font-size="10.00">+ eventTypes::Types getEvent</text>
<text text-anchor="start" x="153" y="-157.5" font-family="Helvetica,sans-Serif" font-size="10.00">Type() const override</text>
<text text-anchor="start" x="153" y="-146.5" font-family="Helvetica,sans-Serif" font-size="10.00">+ BotEvent(QQID botid)</text>
<text text-anchor="start" x="153" y="-135.5" font-family="Helvetica,sans-Serif" font-size="10.00">+ virtual ~BotEvent()</text>
<text text-anchor="start" x="153" y="-124.5" font-family="Helvetica,sans-Serif" font-size="10.00">=default</text>
</a>
</g>
</g>
<!-- Node2&#45;&gt;Node1 -->
<g id="edge1" class="edge">
<title>Node2&#45;&gt;Node1</title>
<path fill="none" stroke="midnightblue" d="M300.08,-117.91C317.75,-104.9 335.97,-91.47 352.15,-79.56"/>
<polygon fill="none" stroke="midnightblue" points="297.99,-115.11 292.01,-123.85 302.14,-120.74 297.99,-115.11"/>
</g>
<!-- Node3 -->
<g id="node3" class="node">
<title>Node3</title>
<g id="a_node3"><a xlink:href="a00453.html" target="_top" xlink:title="Event抽象父类">
<polygon fill="white" stroke="black" points="0,-509 0,-643 125,-643 125,-509 0,-509"/>
<text text-anchor="middle" x="62.5" y="-631" font-family="Helvetica,sans-Serif" font-size="10.00">MiraiCP::MiraiCPEvent</text>
<polyline fill="none" stroke="black" points="0,-624 125,-624 "/>
<text text-anchor="middle" x="62.5" y="-612" font-family="Helvetica,sans-Serif" font-size="10.00"> </text>
<polyline fill="none" stroke="black" points="0,-605 125,-605 "/>
<text text-anchor="start" x="8" y="-593" font-family="Helvetica,sans-Serif" font-size="10.00">+ MiraiCPEvent()=default</text>
<text text-anchor="start" x="8" y="-582" font-family="Helvetica,sans-Serif" font-size="10.00">+ virtual ~MiraiCPEvent</text>
<text text-anchor="start" x="8" y="-571" font-family="Helvetica,sans-Serif" font-size="10.00">()=default</text>
<text text-anchor="start" x="8" y="-560" font-family="Helvetica,sans-Serif" font-size="10.00">+ virtual eventTypes</text>
<text text-anchor="start" x="8" y="-549" font-family="Helvetica,sans-Serif" font-size="10.00">::Types getEventType</text>
<text text-anchor="start" x="8" y="-538" font-family="Helvetica,sans-Serif" font-size="10.00">() const =0</text>
<text text-anchor="start" x="8" y="-527" font-family="Helvetica,sans-Serif" font-size="10.00">+ static eventTypes::</text>
<text text-anchor="start" x="8" y="-516" font-family="Helvetica,sans-Serif" font-size="10.00">Types get_event_type()</text>
</a>
</g>
</g>
<!-- Node3&#45;&gt;Node2 -->
<g id="edge2" class="edge">
<title>Node3&#45;&gt;Node2</title>
<path fill="none" stroke="midnightblue" d="M73.23,-498.74C83.62,-439.16 102.75,-355.43 135.5,-288 143.46,-271.62 154.13,-255.32 165.18,-240.54"/>
<polygon fill="none" stroke="midnightblue" points="69.74,-498.39 71.51,-508.83 76.64,-499.56 69.74,-498.39"/>
</g>
<!-- Node4 -->
<g id="node4" class="node">
<title>Node4</title>
<g id="a_node4"><a xlink:href="a00457.html" target="_top" xlink:title="所有事件处理timeoutevent都是机器人事件，指都有机器人实例">
<polygon fill="white" stroke="black" points="145,-288.5 145,-389.5 292,-389.5 292,-288.5 145,-288.5"/>
<text text-anchor="middle" x="218.5" y="-377.5" font-family="Helvetica,sans-Serif" font-size="10.00">MiraiCP::BotEvent&lt; T &gt;</text>
<polyline fill="none" stroke="black" points="145,-370.5 292,-370.5 "/>
<text text-anchor="middle" x="218.5" y="-358.5" font-family="Helvetica,sans-Serif" font-size="10.00"> </text>
<polyline fill="none" stroke="black" points="145,-351.5 292,-351.5 "/>
<text text-anchor="start" x="153" y="-339.5" font-family="Helvetica,sans-Serif" font-size="10.00">+ eventTypes::Types getEvent</text>
<text text-anchor="start" x="153" y="-328.5" font-family="Helvetica,sans-Serif" font-size="10.00">Type() const override</text>
<text text-anchor="start" x="153" y="-317.5" font-family="Helvetica,sans-Serif" font-size="10.00">+ BotEvent(QQID botid)</text>
<text text-anchor="start" x="153" y="-306.5" font-family="Helvetica,sans-Serif" font-size="10.00">+ virtual ~BotEvent()</text>
<text text-anchor="start" x="153" y="-295.5" font-family="Helvetica,sans-Serif" font-size="10.00">=default</text>
</a>
</g>
</g>
<!-- Node3&#45;&gt;Node4 -->
<g id="edge4" class="edge">
<title>Node3&#45;&gt;Node4</title>
<path fill="none" stroke="midnightblue" d="M107.91,-500.38C116.6,-486.53 125.72,-472.25 134.5,-459 149.79,-435.92 167.37,-410.81 182.48,-389.63"/>
<polygon fill="none" stroke="midnightblue" points="104.9,-498.59 102.57,-508.93 110.84,-502.3 104.9,-498.59"/>
</g>
<!-- Node4&#45;&gt;Node2 -->
<g id="edge3" class="edge">
<title>Node4&#45;&gt;Node2</title>
<path fill="none" stroke="orange" d="M218.5,-278.31C218.5,-266.03 218.5,-253.09 218.5,-240.77"/>
<polygon fill="orange" stroke="orange" points="215,-278.44 218.5,-288.44 222,-278.44 215,-278.44"/>
<text text-anchor="middle" x="255" y="-262" font-family="Helvetica,sans-Serif" font-size="10.00"> &lt; NudgeEvent &gt;</text>
</g>
<!-- Node5 -->
<g id="node5" class="node">
<title>Node5</title>
<g id="a_node5"><a xlink:href="a00405.html" target="_top" xlink:title="当前bot账号信息">
<polygon fill="white" stroke="black" points="143.5,-459.5 143.5,-692.5 293.5,-692.5 293.5,-459.5 143.5,-459.5"/>
<text text-anchor="middle" x="218.5" y="-680.5" font-family="Helvetica,sans-Serif" font-size="10.00">MiraiCP::Bot</text>
<polyline fill="none" stroke="black" points="143.5,-673.5 293.5,-673.5 "/>
<text text-anchor="middle" x="218.5" y="-661.5" font-family="Helvetica,sans-Serif" font-size="10.00"> </text>
<polyline fill="none" stroke="black" points="143.5,-654.5 293.5,-654.5 "/>
<text text-anchor="start" x="151.5" y="-642.5" font-family="Helvetica,sans-Serif" font-size="10.00">+ Bot(QQID in_id)</text>
<text text-anchor="start" x="151.5" y="-631.5" font-family="Helvetica,sans-Serif" font-size="10.00">+ Friend getFriend(QQID</text>
<text text-anchor="start" x="151.5" y="-620.5" font-family="Helvetica,sans-Serif" font-size="10.00"> i) const</text>
<text text-anchor="start" x="151.5" y="-609.5" font-family="Helvetica,sans-Serif" font-size="10.00">+ Group getGroup(QQID</text>
<text text-anchor="start" x="151.5" y="-598.5" font-family="Helvetica,sans-Serif" font-size="10.00"> groupid) const</text>
<text text-anchor="start" x="151.5" y="-587.5" font-family="Helvetica,sans-Serif" font-size="10.00">+ std::string nick()</text>
<text text-anchor="start" x="151.5" y="-576.5" font-family="Helvetica,sans-Serif" font-size="10.00">+ std::string avatarUrl()</text>
<text text-anchor="start" x="151.5" y="-565.5" font-family="Helvetica,sans-Serif" font-size="10.00">+ std::vector&lt; QQID &gt;</text>
<text text-anchor="start" x="151.5" y="-554.5" font-family="Helvetica,sans-Serif" font-size="10.00"> getFriendList() const</text>
<text text-anchor="start" x="151.5" y="-543.5" font-family="Helvetica,sans-Serif" font-size="10.00">+ std::string FriendListTo</text>
<text text-anchor="start" x="151.5" y="-532.5" font-family="Helvetica,sans-Serif" font-size="10.00">String() const</text>
<text text-anchor="start" x="151.5" y="-521.5" font-family="Helvetica,sans-Serif" font-size="10.00">+ std::vector&lt; QQID &gt;</text>
<text text-anchor="start" x="151.5" y="-510.5" font-family="Helvetica,sans-Serif" font-size="10.00"> getGroupList() const</text>
<text text-anchor="start" x="151.5" y="-499.5" font-family="Helvetica,sans-Serif" font-size="10.00">+ std::string GroupListToString</text>
<text text-anchor="start" x="151.5" y="-488.5" font-family="Helvetica,sans-Serif" font-size="10.00">() const</text>
<text text-anchor="start" x="151.5" y="-477.5" font-family="Helvetica,sans-Serif" font-size="10.00">+ bool operator==(const</text>
<text text-anchor="start" x="151.5" y="-466.5" font-family="Helvetica,sans-Serif" font-size="10.00"> Bot &amp;b) const</text>
</a>
</g>
</g>
<!-- Node5&#45;&gt;Node4 -->
<g id="edge5" class="edge">
<title>Node5&#45;&gt;Node4</title>
<path fill="none" stroke="#404040" d="M218.5,-459.22C218.5,-439.36 218.5,-419.44 218.5,-401.71"/>
<polygon fill="none" stroke="#404040" points="218.5,-401.53 214.5,-395.53 218.5,-389.53 222.5,-395.53 218.5,-401.53"/>
<text text-anchor="middle" x="230" y="-422" font-family="Helvetica,sans-Serif" font-size="10.00"> +bot</text>
</g>
<!-- Node6 -->
<g id="node6" class="node">
<title>Node6</title>
<g id="a_node6"><a xlink:href="a00429.html" target="_top" xlink:title="group, friend, member的父类">
<polygon fill="white" stroke="black" points="30,-740.5 30,-1534.5 233,-1534.5 233,-740.5 30,-740.5"/>
<text text-anchor="middle" x="131.5" y="-1522.5" font-family="Helvetica,sans-Serif" font-size="10.00">MiraiCP::Contact</text>
<polyline fill="none" stroke="black" points="30,-1515.5 233,-1515.5 "/>
<text text-anchor="middle" x="131.5" y="-1503.5" font-family="Helvetica,sans-Serif" font-size="10.00"> </text>
<polyline fill="none" stroke="black" points="30,-1496.5 233,-1496.5 "/>
<text text-anchor="start" x="38" y="-1484.5" font-family="Helvetica,sans-Serif" font-size="10.00">+ Contact()=delete</text>
<text text-anchor="start" x="38" y="-1473.5" font-family="Helvetica,sans-Serif" font-size="10.00">+ virtual ~Contact()</text>
<text text-anchor="start" x="38" y="-1462.5" font-family="Helvetica,sans-Serif" font-size="10.00">=default</text>
<text text-anchor="start" x="38" y="-1451.5" font-family="Helvetica,sans-Serif" font-size="10.00">+ bool operator==(const</text>
<text text-anchor="start" x="38" y="-1440.5" font-family="Helvetica,sans-Serif" font-size="10.00"> Contact &amp;c) const</text>
<text text-anchor="start" x="38" y="-1429.5" font-family="Helvetica,sans-Serif" font-size="10.00">+ void SetInternalData</text>
<text text-anchor="start" x="38" y="-1418.5" font-family="Helvetica,sans-Serif" font-size="10.00">(std::shared_ptr&lt; IContactData</text>
<text text-anchor="start" x="38" y="-1407.5" font-family="Helvetica,sans-Serif" font-size="10.00"> &gt; Data)</text>
<text text-anchor="start" x="38" y="-1396.5" font-family="Helvetica,sans-Serif" font-size="10.00">+ void refreshInfo()</text>
<text text-anchor="start" x="38" y="-1385.5" font-family="Helvetica,sans-Serif" font-size="10.00">+ void forceRefreshNextTime()</text>
<text text-anchor="start" x="38" y="-1374.5" font-family="Helvetica,sans-Serif" font-size="10.00">+ void forceRefreshNow()</text>
<text text-anchor="start" x="38" y="-1363.5" font-family="Helvetica,sans-Serif" font-size="10.00">+ ContactType type()</text>
<text text-anchor="start" x="38" y="-1352.5" font-family="Helvetica,sans-Serif" font-size="10.00"> const</text>
<text text-anchor="start" x="38" y="-1341.5" font-family="Helvetica,sans-Serif" font-size="10.00">+ QQID id() const</text>
<text text-anchor="start" x="38" y="-1330.5" font-family="Helvetica,sans-Serif" font-size="10.00">+ QQID botid() const</text>
<text text-anchor="start" x="38" y="-1319.5" font-family="Helvetica,sans-Serif" font-size="10.00">+ MessageSource quoteAndSend</text>
<text text-anchor="start" x="38" y="-1308.5" font-family="Helvetica,sans-Serif" font-size="10.00">Message(const T &amp;s, MessageSource ms)</text>
<text text-anchor="start" x="38" y="-1297.5" font-family="Helvetica,sans-Serif" font-size="10.00">+ MessageSource quoteAndSend</text>
<text text-anchor="start" x="38" y="-1286.5" font-family="Helvetica,sans-Serif" font-size="10.00">Message(const MessageSource</text>
<text text-anchor="start" x="38" y="-1275.5" font-family="Helvetica,sans-Serif" font-size="10.00"> &amp;ms, T &amp;&amp;...val)</text>
<text text-anchor="start" x="38" y="-1264.5" font-family="Helvetica,sans-Serif" font-size="10.00">+ MessageSource sendMessage</text>
<text text-anchor="start" x="38" y="-1253.5" font-family="Helvetica,sans-Serif" font-size="10.00">(T &amp;&amp;...msg)</text>
<text text-anchor="start" x="38" y="-1242.5" font-family="Helvetica,sans-Serif" font-size="10.00">+ MessageSource sendMessage</text>
<text text-anchor="start" x="38" y="-1231.5" font-family="Helvetica,sans-Serif" font-size="10.00">(T &amp;&amp;msg)</text>
<text text-anchor="start" x="38" y="-1220.5" font-family="Helvetica,sans-Serif" font-size="10.00">+ nlohmann::json toJson</text>
<text text-anchor="start" x="38" y="-1209.5" font-family="Helvetica,sans-Serif" font-size="10.00">() const</text>
<text text-anchor="start" x="38" y="-1198.5" font-family="Helvetica,sans-Serif" font-size="10.00">+ void updateJson(nlohmann</text>
<text text-anchor="start" x="38" y="-1187.5" font-family="Helvetica,sans-Serif" font-size="10.00">::json &amp;j) const</text>
<text text-anchor="start" x="38" y="-1176.5" font-family="Helvetica,sans-Serif" font-size="10.00">+ std::string toString</text>
<text text-anchor="start" x="38" y="-1165.5" font-family="Helvetica,sans-Serif" font-size="10.00">() const</text>
<text text-anchor="start" x="38" y="-1154.5" font-family="Helvetica,sans-Serif" font-size="10.00">+ Image uploadImg(const</text>
<text text-anchor="start" x="38" y="-1143.5" font-family="Helvetica,sans-Serif" font-size="10.00"> std::string &amp;path) const</text>
<text text-anchor="start" x="38" y="-1132.5" font-family="Helvetica,sans-Serif" font-size="10.00">+ FlashImage uploadFlashImg</text>
<text text-anchor="start" x="38" y="-1121.5" font-family="Helvetica,sans-Serif" font-size="10.00">(const std::string &amp;path) const</text>
<text text-anchor="start" x="38" y="-1110.5" font-family="Helvetica,sans-Serif" font-size="10.00">+ static std::shared</text>
<text text-anchor="start" x="38" y="-1099.5" font-family="Helvetica,sans-Serif" font-size="10.00">_ptr&lt; Contact &gt; deserialize</text>
<text text-anchor="start" x="38" y="-1088.5" font-family="Helvetica,sans-Serif" font-size="10.00">ToPointer(nlohmann::json</text>
<text text-anchor="start" x="38" y="-1077.5" font-family="Helvetica,sans-Serif" font-size="10.00"> source)</text>
<text text-anchor="start" x="38" y="-1066.5" font-family="Helvetica,sans-Serif" font-size="10.00">+ static T deserialize</text>
<text text-anchor="start" x="38" y="-1055.5" font-family="Helvetica,sans-Serif" font-size="10.00">(nlohmann::json source)</text>
<text text-anchor="start" x="38" y="-1044.5" font-family="Helvetica,sans-Serif" font-size="10.00"># Contact(std::shared</text>
<text text-anchor="start" x="38" y="-1033.5" font-family="Helvetica,sans-Serif" font-size="10.00">_ptr&lt; IContactData &gt; Data)</text>
<text text-anchor="start" x="38" y="-1022.5" font-family="Helvetica,sans-Serif" font-size="10.00"># MessageSource sendVoiceImpl</text>
<text text-anchor="start" x="38" y="-1011.5" font-family="Helvetica,sans-Serif" font-size="10.00">(std::string path) const</text>
<text text-anchor="start" x="38" y="-1000.5" font-family="Helvetica,sans-Serif" font-size="10.00"># MessageSource sendMsgImpl</text>
<text text-anchor="start" x="38" y="-989.5" font-family="Helvetica,sans-Serif" font-size="10.00">(std::string msg) const</text>
<text text-anchor="start" x="38" y="-978.5" font-family="Helvetica,sans-Serif" font-size="10.00"># MessageSource unpackMsg</text>
<text text-anchor="start" x="38" y="-967.5" font-family="Helvetica,sans-Serif" font-size="10.00">(const MessageChain &amp;msg)</text>
<text text-anchor="start" x="38" y="-956.5" font-family="Helvetica,sans-Serif" font-size="10.00"> const</text>
<text text-anchor="start" x="38" y="-945.5" font-family="Helvetica,sans-Serif" font-size="10.00"># MessageSource unpackMsg</text>
<text text-anchor="start" x="38" y="-934.5" font-family="Helvetica,sans-Serif" font-size="10.00">(const MiraiCodeable &amp;msg)</text>
<text text-anchor="start" x="38" y="-923.5" font-family="Helvetica,sans-Serif" font-size="10.00"> const</text>
<text text-anchor="start" x="38" y="-912.5" font-family="Helvetica,sans-Serif" font-size="10.00"># MessageSource unpackMsg</text>
<text text-anchor="start" x="38" y="-901.5" font-family="Helvetica,sans-Serif" font-size="10.00">(std::string msg) const</text>
<text text-anchor="start" x="38" y="-890.5" font-family="Helvetica,sans-Serif" font-size="10.00"># MessageSource unpackMsg</text>
<text text-anchor="start" x="38" y="-879.5" font-family="Helvetica,sans-Serif" font-size="10.00">(const char *msg) const</text>
<text text-anchor="start" x="38" y="-868.5" font-family="Helvetica,sans-Serif" font-size="10.00">&#45; MessageSource quoteAndSend0</text>
<text text-anchor="start" x="38" y="-857.5" font-family="Helvetica,sans-Serif" font-size="10.00">(std::string msg, const</text>
<text text-anchor="start" x="38" y="-846.5" font-family="Helvetica,sans-Serif" font-size="10.00"> MessageSource &amp;ms) const</text>
<text text-anchor="start" x="38" y="-835.5" font-family="Helvetica,sans-Serif" font-size="10.00">&#45; MessageSource quoteAndSend1</text>
<text text-anchor="start" x="38" y="-824.5" font-family="Helvetica,sans-Serif" font-size="10.00">(const SingleMessage &amp;s,</text>
<text text-anchor="start" x="38" y="-813.5" font-family="Helvetica,sans-Serif" font-size="10.00"> const MessageSource &amp;ms)</text>
<text text-anchor="start" x="38" y="-802.5" font-family="Helvetica,sans-Serif" font-size="10.00">&#45; MessageSource quoteAndSend1</text>
<text text-anchor="start" x="38" y="-791.5" font-family="Helvetica,sans-Serif" font-size="10.00">(const std::string &amp;s, const</text>
<text text-anchor="start" x="38" y="-780.5" font-family="Helvetica,sans-Serif" font-size="10.00"> MessageSource &amp;ms)</text>
<text text-anchor="start" x="38" y="-769.5" font-family="Helvetica,sans-Serif" font-size="10.00">&#45; MessageSource quoteAndSend1</text>
<text text-anchor="start" x="38" y="-758.5" font-family="Helvetica,sans-Serif" font-size="10.00">(const MessageChain &amp;mc,</text>
<text text-anchor="start" x="38" y="-747.5" font-family="Helvetica,sans-Serif" font-size="10.00"> const MessageSource &amp;ms)</text>
</a>
</g>
</g>
<!-- Node6&#45;&gt;Node5 -->
<g id="edge6" class="edge">
<title>Node6&#45;&gt;Node5</title>
<path fill="none" stroke="midnightblue" d="M194.67,-730.25C196.7,-717.18 198.66,-704.58 200.52,-692.6"/>
<polygon fill="none" stroke="midnightblue" points="191.18,-729.92 193.1,-740.33 198.1,-730.99 191.18,-729.92"/>
</g>
<!-- Node7 -->
<g id="node7" class="node">
<title>Node7</title>
<g id="a_node7"><a xlink:title=" ">
<polygon fill="white" stroke="#bfbfbf" points="402.5,-1582.5 402.5,-1639.5 470.5,-1639.5 470.5,-1582.5 402.5,-1582.5"/>
<text text-anchor="middle" x="436.5" y="-1627.5" font-family="Helvetica,sans-Serif" font-size="10.00">shared_ptr&lt;</text>
<polyline fill="none" stroke="#bfbfbf" points="402.5,-1620.5 470.5,-1620.5 "/>
<text text-anchor="middle" x="436.5" y="-1608.5" font-family="Helvetica,sans-Serif" font-size="10.00"> </text>
<polyline fill="none" stroke="#bfbfbf" points="402.5,-1601.5 470.5,-1601.5 "/>
<text text-anchor="middle" x="436.5" y="-1589.5" font-family="Helvetica,sans-Serif" font-size="10.00"> </text>
</a>
</g>
</g>
<!-- Node7&#45;&gt;Node1 -->
<g id="edge12" class="edge">
<title>Node7&#45;&gt;Node1</title>
<path fill="none" stroke="#404040" d="M470.69,-1594.84C484,-1587.34 498.25,-1577.06 507.5,-1564 515.16,-1553.18 512.62,-1548.12 514.5,-1535 539.53,-1360.36 533.5,-1314.92 533.5,-1138.5 533.5,-1138.5 533.5,-1138.5 533.5,-178 533.5,-141.16 508.48,-110.2 480.47,-87.08"/>
<polygon fill="none" stroke="#404040" points="480.32,-86.96 473.13,-86.4 470.89,-79.54 478.08,-80.11 480.32,-86.96"/>
<text text-anchor="middle" x="552.5" y="-433" font-family="Helvetica,sans-Serif" font-size="10.00"> +from</text>
<text text-anchor="middle" x="552.5" y="-422" font-family="Helvetica,sans-Serif" font-size="10.00">+subject</text>
<text text-anchor="middle" x="552.5" y="-411" font-family="Helvetica,sans-Serif" font-size="10.00">+target</text>
</g>
<!-- Node7&#45;&gt;Node6 -->
<g id="edge7" class="edge">
<title>Node7&#45;&gt;Node6</title>
<path fill="none" stroke="#404040" d="M402.17,-1606.1C358.76,-1599.34 284.63,-1581.37 242.5,-1535 241.99,-1534.44 241.49,-1533.88 240.99,-1533.32"/>
<polygon fill="none" stroke="#404040" points="240.84,-1533.15 233.9,-1531.19 233.05,-1524.03 239.99,-1525.99 240.84,-1533.15"/>
<text text-anchor="middle" x="308" y="-1556" font-family="Helvetica,sans-Serif" font-size="10.00"> #InternalData</text>
</g>
<!-- Node9 -->
<g id="node9" class="node">
<title>Node9</title>
<g id="a_node9"><a xlink:href="a00673.html" target="_top" xlink:title=" ">
<polygon fill="white" stroke="black" points="367.5,-977 367.5,-1298 505.5,-1298 505.5,-977 367.5,-977"/>
<text text-anchor="middle" x="436.5" y="-1286" font-family="Helvetica,sans-Serif" font-size="10.00">MiraiCP::Logger_interface</text>
<polyline fill="none" stroke="black" points="367.5,-1279 505.5,-1279 "/>
<text text-anchor="middle" x="436.5" y="-1267" font-family="Helvetica,sans-Serif" font-size="10.00"> </text>
<polyline fill="none" stroke="black" points="367.5,-1260 505.5,-1260 "/>
<text text-anchor="start" x="375.5" y="-1248" font-family="Helvetica,sans-Serif" font-size="10.00">+ void info(T &amp;&amp;...val)</text>
<text text-anchor="start" x="375.5" y="-1237" font-family="Helvetica,sans-Serif" font-size="10.00">+ void warning(T &amp;&amp;...val)</text>
<text text-anchor="start" x="375.5" y="-1226" font-family="Helvetica,sans-Serif" font-size="10.00">+ void error(T &amp;&amp;...val)</text>
<text text-anchor="start" x="375.5" y="-1215" font-family="Helvetica,sans-Serif" font-size="10.00">+ void registerHandle</text>
<text text-anchor="start" x="375.5" y="-1204" font-family="Helvetica,sans-Serif" font-size="10.00">(Action action)</text>
<text text-anchor="start" x="375.5" y="-1193" font-family="Helvetica,sans-Serif" font-size="10.00">+ void setHandleState</text>
<text text-anchor="start" x="375.5" y="-1182" font-family="Helvetica,sans-Serif" font-size="10.00">(bool state)</text>
<text text-anchor="start" x="375.5" y="-1171" font-family="Helvetica,sans-Serif" font-size="10.00"># virtual void log_interface</text>
<text text-anchor="start" x="375.5" y="-1160" font-family="Helvetica,sans-Serif" font-size="10.00">(const string &amp;log, int</text>
<text text-anchor="start" x="375.5" y="-1149" font-family="Helvetica,sans-Serif" font-size="10.00"> level)=0</text>
<text text-anchor="start" x="375.5" y="-1138" font-family="Helvetica,sans-Serif" font-size="10.00"># void handler_trigger</text>
<text text-anchor="start" x="375.5" y="-1127" font-family="Helvetica,sans-Serif" font-size="10.00">(string log, int level)</text>
<text text-anchor="start" x="375.5" y="-1116" font-family="Helvetica,sans-Serif" font-size="10.00">&#45; void create_loggerhandler()</text>
<text text-anchor="start" x="375.5" y="-1105" font-family="Helvetica,sans-Serif" font-size="10.00">&#45; static std::string</text>
<text text-anchor="start" x="375.5" y="-1094" font-family="Helvetica,sans-Serif" font-size="10.00"> constructString()</text>
<text text-anchor="start" x="375.5" y="-1083" font-family="Helvetica,sans-Serif" font-size="10.00">&#45; static std::string</text>
<text text-anchor="start" x="375.5" y="-1072" font-family="Helvetica,sans-Serif" font-size="10.00"> constructString(T &amp;&amp;val,</text>
<text text-anchor="start" x="375.5" y="-1061" font-family="Helvetica,sans-Serif" font-size="10.00"> T1 &amp;&amp;...val1)</text>
<text text-anchor="start" x="375.5" y="-1050" font-family="Helvetica,sans-Serif" font-size="10.00">&#45; static std::string</text>
<text text-anchor="start" x="375.5" y="-1039" font-family="Helvetica,sans-Serif" font-size="10.00"> constructString(const</text>
<text text-anchor="start" x="375.5" y="-1028" font-family="Helvetica,sans-Serif" font-size="10.00"> std::string &amp;a, T &amp;&amp;...val1)</text>
<text text-anchor="start" x="375.5" y="-1017" font-family="Helvetica,sans-Serif" font-size="10.00">&#45; static std::string</text>
<text text-anchor="start" x="375.5" y="-1006" font-family="Helvetica,sans-Serif" font-size="10.00"> constructString(const</text>
<text text-anchor="start" x="375.5" y="-995" font-family="Helvetica,sans-Serif" font-size="10.00"> MiraiCodeable &amp;val, T</text>
<text text-anchor="start" x="375.5" y="-984" font-family="Helvetica,sans-Serif" font-size="10.00"> &amp;&amp;...val1)</text>
</a>
</g>
</g>
<!-- Node7&#45;&gt;Node9 -->
<g id="edge10" class="edge">
<title>Node7&#45;&gt;Node9</title>
<path fill="none" stroke="#404040" d="M436.5,-1582.27C436.5,-1529.63 436.5,-1411.45 436.5,-1310.27"/>
<polygon fill="none" stroke="#404040" points="436.5,-1310.02 432.5,-1304.02 436.5,-1298.02 440.5,-1304.02 436.5,-1310.02"/>
<text text-anchor="middle" x="470" y="-1556" font-family="Helvetica,sans-Serif" font-size="10.00"> +loggerhandler</text>
</g>
<!-- Node8 -->
<g id="node8" class="node">
<title>Node8</title>
<g id="a_node8"><a xlink:href="a00685.html" target="_top" xlink:title="带id(一般为bot账号)的logger">
<polygon fill="white" stroke="black" points="312,-525.5 312,-626.5 447,-626.5 447,-525.5 312,-525.5"/>
<text text-anchor="middle" x="379.5" y="-614.5" font-family="Helvetica,sans-Serif" font-size="10.00">MiraiCP::IdLogger</text>
<polyline fill="none" stroke="black" points="312,-607.5 447,-607.5 "/>
<text text-anchor="middle" x="379.5" y="-595.5" font-family="Helvetica,sans-Serif" font-size="10.00"> </text>
<polyline fill="none" stroke="black" points="312,-588.5 447,-588.5 "/>
<text text-anchor="start" x="320" y="-576.5" font-family="Helvetica,sans-Serif" font-size="10.00">+ IdLogger(QQID id,</text>
<text text-anchor="start" x="320" y="-565.5" font-family="Helvetica,sans-Serif" font-size="10.00"> Logger *l)</text>
<text text-anchor="start" x="320" y="-554.5" font-family="Helvetica,sans-Serif" font-size="10.00"># void log_interface</text>
<text text-anchor="start" x="320" y="-543.5" font-family="Helvetica,sans-Serif" font-size="10.00">(const std::string &amp;content,</text>
<text text-anchor="start" x="320" y="-532.5" font-family="Helvetica,sans-Serif" font-size="10.00"> int level) override</text>
</a>
</g>
</g>
<!-- Node8&#45;&gt;Node4 -->
<g id="edge8" class="edge">
<title>Node8&#45;&gt;Node4</title>
<path fill="none" stroke="#404040" d="M347.03,-525.4C333.4,-504.77 317.32,-480.64 302.5,-459 289.18,-439.54 274.42,-418.47 261.03,-399.55"/>
<polygon fill="none" stroke="#404040" points="260.9,-399.36 254.17,-396.78 253.97,-389.57 260.7,-392.15 260.9,-399.36"/>
<text text-anchor="middle" x="314" y="-422" font-family="Helvetica,sans-Serif" font-size="10.00"> +botlogger</text>
</g>
<!-- Node9&#45;&gt;Node8 -->
<g id="edge9" class="edge">
<title>Node9&#45;&gt;Node8</title>
<path fill="none" stroke="midnightblue" d="M419.21,-966.76C407.28,-849.71 392.24,-702.1 384.55,-626.54"/>
<polygon fill="none" stroke="midnightblue" points="415.75,-967.32 420.24,-976.92 422.71,-966.62 415.75,-967.32"/>
</g>
<!-- Node10 -->
<g id="node10" class="node">
<title>Node10</title>
<g id="a_node10"><a xlink:title=" ">
<polygon fill="white" stroke="#bfbfbf" points="251.5,-1109 251.5,-1166 349.5,-1166 349.5,-1109 251.5,-1109"/>
<text text-anchor="middle" x="300.5" y="-1154" font-family="Helvetica,sans-Serif" font-size="10.00">unsigned long long</text>
<polyline fill="none" stroke="#bfbfbf" points="251.5,-1147 349.5,-1147 "/>
<text text-anchor="middle" x="300.5" y="-1135" font-family="Helvetica,sans-Serif" font-size="10.00"> </text>
<polyline fill="none" stroke="#bfbfbf" points="251.5,-1128 349.5,-1128 "/>
<text text-anchor="middle" x="300.5" y="-1116" font-family="Helvetica,sans-Serif" font-size="10.00"> </text>
</a>
</g>
</g>
<!-- Node10&#45;&gt;Node8 -->
<g id="edge11" class="edge">
<title>Node10&#45;&gt;Node8</title>
<path fill="none" stroke="#404040" d="M304.42,-1108.75C316.56,-1022.74 353.79,-759.1 370.82,-638.44"/>
<polygon fill="none" stroke="#404040" points="370.83,-638.41 367.71,-631.91 372.51,-626.53 375.63,-633.03 370.83,-638.41"/>
<text text-anchor="middle" x="368" y="-714" font-family="Helvetica,sans-Serif" font-size="10.00"> +id</text>
</g>
</g>
</svg>
