<?xml version="1.0" encoding="UTF-8" standalone="no"?>
<!DOCTYPE svg PUBLIC "-//W3C//DTD SVG 1.1//EN"
 "http://www.w3.org/Graphics/SVG/1.1/DTD/svg11.dtd">
<!-- Generated by graphviz version 9.0.0 (0)
 -->
<!-- Title: MiraiCP::MemberJoinRequestEvent::accept Pages: 1 -->
<svg width="1811pt" height="220pt"
 viewBox="0.00 0.00 1811.00 220.17" xmlns="http://www.w3.org/2000/svg" xmlns:xlink="http://www.w3.org/1999/xlink">
<g id="graph0" class="graph" transform="scale(1 1) rotate(0) translate(4 216.17)">
<title>MiraiCP::MemberJoinRequestEvent::accept</title>
<!-- Node1 -->
<g id="Node000001" class="node">
<title>Node1</title>
<g id="a_Node000001"><a xlink:title="通过">
<polygon fill="#999999" stroke="#666666" points="147.25,-171.17 0,-171.17 0,-139.17 147.25,-139.17 147.25,-171.17"/>
<text text-anchor="start" x="8" y="-157.67" font-family="Helvetica,sans-Serif" font-size="10.00">MiraiCP::MemberJoinRequest</text>
<text text-anchor="middle" x="73.62" y="-145.67" font-family="Helvetica,sans-Serif" font-size="10.00">Event::accept</text>
</a>
</g>
</g>
<!-- Node2 -->
<g id="Node000002" class="node">
<title>Node2</title>
<g id="a_Node000002"><a xlink:href="a00460.html#a1f208ae0f09c367c90c2e079e63048db" target="_top" xlink:title="id 在全部情况存在">
<polygon fill="white" stroke="#666666" points="309.5,-187.17 204.25,-187.17 204.25,-167.17 309.5,-167.17 309.5,-187.17"/>
<text text-anchor="middle" x="256.88" y="-173.67" font-family="Helvetica,sans-Serif" font-size="10.00">MiraiCP::Contact::id</text>
</a>
</g>
</g>
<!-- Node1&#45;&gt;Node2 -->
<g id="edge1_Node000001_Node000002" class="edge">
<title>Node1&#45;&gt;Node2</title>
<g id="a_edge1_Node000001_Node000002"><a xlink:title=" ">
<path fill="none" stroke="#63b8ff" d="M147.56,-164.02C162.47,-165.83 178.03,-167.72 192.57,-169.48"/>
<polygon fill="#63b8ff" stroke="#63b8ff" points="192.11,-172.95 202.46,-170.68 192.96,-166.01 192.11,-172.95"/>
</a>
</g>
</g>
<!-- Node3 -->
<g id="Node000003" class="node">
<title>Node3</title>
<g id="a_Node000003"><a xlink:href="a00412.html#a007cb939b04fb94a0e76805f64422783" target="_top" xlink:title="底层通过MemberJoinRequest">
<polygon fill="white" stroke="#666666" points="330.5,-149.17 183.25,-149.17 183.25,-117.17 330.5,-117.17 330.5,-149.17"/>
<text text-anchor="start" x="191.25" y="-135.67" font-family="Helvetica,sans-Serif" font-size="10.00">MiraiCP::memberJoinRequest</text>
<text text-anchor="middle" x="256.88" y="-123.67" font-family="Helvetica,sans-Serif" font-size="10.00">Internal</text>
</a>
</g>
</g>
<!-- Node1&#45;&gt;Node3 -->
<g id="edge2_Node000001_Node000003" class="edge">
<title>Node1&#45;&gt;Node3</title>
<g id="a_edge2_Node000001_Node000003"><a xlink:title=" ">
<path fill="none" stroke="#63b8ff" d="M147.56,-146.31C155.45,-145.36 163.53,-144.38 171.54,-143.4"/>
<polygon fill="#63b8ff" stroke="#63b8ff" points="171.78,-146.9 181.29,-142.22 170.94,-139.95 171.78,-146.9"/>
</a>
</g>
</g>
<!-- Node4 -->
<g id="Node000004" class="node">
<title>Node4</title>
<g id="a_Node000004"><a xlink:href="a00435.html#a309e8d7f316e8b5e947ea3bcddeb84a8" target="_top" xlink:title="调用 Mirai 操作">
<polygon fill="white" stroke="#666666" points="475.5,-149.17 366.5,-149.17 366.5,-117.17 475.5,-117.17 475.5,-149.17"/>
<text text-anchor="start" x="374.5" y="-135.67" font-family="Helvetica,sans-Serif" font-size="10.00">MiraiCP::KtOperation</text>
<text text-anchor="middle" x="421" y="-123.67" font-family="Helvetica,sans-Serif" font-size="10.00">::ktOperation</text>
</a>
</g>
</g>
<!-- Node3&#45;&gt;Node4 -->
<g id="edge3_Node000003_Node000004" class="edge">
<title>Node3&#45;&gt;Node4</title>
<g id="a_edge3_Node000003_Node000004"><a xlink:title=" ">
<path fill="none" stroke="#63b8ff" d="M330.87,-133.17C338.89,-133.17 347.02,-133.17 354.93,-133.17"/>
<polygon fill="#63b8ff" stroke="#63b8ff" points="354.82,-136.67 364.82,-133.17 354.82,-129.67 354.82,-136.67"/>
</a>
</g>
</g>
<!-- Node5 -->
<g id="Node000005" class="node">
<title>Node5</title>
<g id="a_Node000005"><a xlink:href="a00435.html#a1e1e498928eeaa1d7107033ff5fa881a" target="_top" xlink:title="调用 Mirai 操作">
<polygon fill="white" stroke="#666666" points="620.5,-149.17 511.5,-149.17 511.5,-117.17 620.5,-117.17 620.5,-149.17"/>
<text text-anchor="start" x="519.5" y="-135.67" font-family="Helvetica,sans-Serif" font-size="10.00">MiraiCP::KtOperation</text>
<text text-anchor="middle" x="566" y="-123.67" font-family="Helvetica,sans-Serif" font-size="10.00">::ktOperationStr</text>
</a>
</g>
</g>
<!-- Node4&#45;&gt;Node5 -->
<g id="edge4_Node000004_Node000005" class="edge">
<title>Node4&#45;&gt;Node5</title>
<g id="a_edge4_Node000004_Node000005"><a xlink:title=" ">
<path fill="none" stroke="#63b8ff" d="M475.65,-133.17C483.52,-133.17 491.69,-133.17 499.76,-133.17"/>
<polygon fill="#63b8ff" stroke="#63b8ff" points="499.53,-136.67 509.53,-133.17 499.53,-129.67 499.53,-136.67"/>
</a>
</g>
</g>
<!-- Node6 -->
<g id="Node000006" class="node">
<title>Node6</title>
<g id="a_Node000006"><a xlink:href="a00426.html#a4c6ac4cf4ba5ff0adb7656708bbb67d0" target="_top" xlink:title="interfaces for plugins">
<polygon fill="white" stroke="#666666" points="764,-149.17 656.5,-149.17 656.5,-117.17 764,-117.17 764,-149.17"/>
<text text-anchor="start" x="664.5" y="-135.67" font-family="Helvetica,sans-Serif" font-size="10.00">LibLoader::LoaderApi</text>
<text text-anchor="middle" x="710.25" y="-123.67" font-family="Helvetica,sans-Serif" font-size="10.00">::pluginOperation</text>
</a>
</g>
</g>
<!-- Node5&#45;&gt;Node6 -->
<g id="edge5_Node000005_Node000006" class="edge">
<title>Node5&#45;&gt;Node6</title>
<g id="a_edge5_Node000005_Node000006"><a xlink:title=" ">
<path fill="none" stroke="#63b8ff" d="M620.78,-133.17C628.69,-133.17 636.91,-133.17 645.01,-133.17"/>
<polygon fill="#63b8ff" stroke="#63b8ff" points="644.82,-136.67 654.82,-133.17 644.82,-129.67 644.82,-136.67"/>
</a>
</g>
</g>
<!-- Node7 -->
<g id="Node000007" class="node">
<title>Node7</title>
<g id="a_Node000007"><a xlink:href="a00780.html#acc90fdac094544c4ddd9d6fd13baa5da" target="_top" xlink:title=" ">
<polygon fill="white" stroke="#666666" points="938.25,-212.17 800,-212.17 800,-180.17 938.25,-180.17 938.25,-212.17"/>
<text text-anchor="start" x="808" y="-198.67" font-family="Helvetica,sans-Serif" font-size="10.00">MiraiCP::MiraiCPStringview</text>
<text text-anchor="middle" x="869.12" y="-186.67" font-family="Helvetica,sans-Serif" font-size="10.00">::c_str</text>
</a>
</g>
</g>
<!-- Node6&#45;&gt;Node7 -->
<g id="edge6_Node000006_Node000007" class="edge">
<title>Node6&#45;&gt;Node7</title>
<g id="a_edge6_Node000006_Node000007"><a xlink:title=" ">
<path fill="none" stroke="#63b8ff" d="M752.06,-149.56C771.77,-157.47 795.64,-167.06 816.59,-175.47"/>
<polygon fill="#63b8ff" stroke="#63b8ff" points="815.26,-178.71 825.85,-179.19 817.87,-172.21 815.26,-178.71"/>
</a>
</g>
</g>
<!-- Node8 -->
<g id="Node000008" class="node">
<title>Node8</title>
<g id="a_Node000008"><a xlink:href="a00840.html#aea7d58ff9f04d6d4849c25a2506603a5" target="_top" xlink:title="取env,如果不存在重新获取">
<polygon fill="white" stroke="#666666" points="1552.75,-124.17 1429.5,-124.17 1429.5,-104.17 1552.75,-104.17 1552.75,-124.17"/>
<text text-anchor="middle" x="1491.12" y="-110.67" font-family="Helvetica,sans-Serif" font-size="10.00">JNIEnvManager::getEnv</text>
</a>
</g>
</g>
<!-- Node6&#45;&gt;Node8 -->
<g id="edge7_Node000006_Node000008" class="edge">
<title>Node6&#45;&gt;Node8</title>
<g id="a_edge7_Node000006_Node000008"><a xlink:title=" ">
<path fill="none" stroke="#63b8ff" d="M764.39,-138.21C828.4,-143.84 939.21,-152.17 1034.5,-152.17 1034.5,-152.17 1034.5,-152.17 1195,-152.17 1276.29,-152.17 1369.15,-137.81 1428.65,-126.75"/>
<polygon fill="#63b8ff" stroke="#63b8ff" points="1429.06,-130.23 1438.24,-124.93 1427.76,-123.35 1429.06,-130.23"/>
</a>
</g>
</g>
<!-- Node11 -->
<g id="Node000011" class="node">
<title>Node11</title>
<g id="a_Node000011"><a xlink:href="a00425.html#aa5f8d0ecd9dd392b491070aace643ae3" target="_top" xlink:title=" ">
<polygon fill="white" stroke="#666666" points="1088.88,-124.17 982.12,-124.17 982.12,-104.17 1088.88,-104.17 1088.88,-124.17"/>
<text text-anchor="middle" x="1035.5" y="-110.67" font-family="Helvetica,sans-Serif" font-size="10.00">LibLoader::jstring2str</text>
</a>
</g>
</g>
<!-- Node6&#45;&gt;Node11 -->
<g id="edge10_Node000006_Node000011" class="edge">
<title>Node6&#45;&gt;Node11</title>
<g id="a_edge10_Node000006_Node000011"><a xlink:title=" ">
<path fill="none" stroke="#63b8ff" d="M764.27,-130.05C820.72,-126.73 910.08,-121.48 970.43,-117.93"/>
<polygon fill="#63b8ff" stroke="#63b8ff" points="970.44,-121.44 980.21,-117.36 970.02,-114.45 970.44,-121.44"/>
</a>
</g>
</g>
<!-- Node13 -->
<g id="Node000013" class="node">
<title>Node13</title>
<g id="a_Node000013"><a xlink:href="a00425.html#a6a6fcd695791253a9b3a053d313b2b93" target="_top" xlink:title=" ">
<polygon fill="white" stroke="#666666" points="922.5,-64.17 815.75,-64.17 815.75,-44.17 922.5,-44.17 922.5,-64.17"/>
<text text-anchor="middle" x="869.12" y="-50.67" font-family="Helvetica,sans-Serif" font-size="10.00">LibLoader::str2jstring</text>
</a>
</g>
</g>
<!-- Node6&#45;&gt;Node13 -->
<g id="edge13_Node000006_Node000013" class="edge">
<title>Node6&#45;&gt;Node13</title>
<g id="a_edge13_Node000006_Node000013"><a xlink:title=" ">
<path fill="none" stroke="#63b8ff" d="M743.75,-116.8C771.33,-102.91 810.59,-83.14 837.59,-69.55"/>
<polygon fill="#63b8ff" stroke="#63b8ff" points="838.92,-72.79 846.28,-65.17 835.77,-66.54 838.92,-72.79"/>
</a>
</g>
</g>
<!-- Node9 -->
<g id="Node000009" class="node">
<title>Node9</title>
<g id="a_Node000009"><a xlink:href="a00260.html#a3d31403b7971274d47d308245206bd24" target="_top" xlink:title="为当前线程创建一个env.">
<polygon fill="white" stroke="#666666" points="1640,-124.17 1588.75,-124.17 1588.75,-104.17 1640,-104.17 1640,-124.17"/>
<text text-anchor="middle" x="1614.38" y="-110.67" font-family="Helvetica,sans-Serif" font-size="10.00">newEnv</text>
</a>
</g>
</g>
<!-- Node8&#45;&gt;Node9 -->
<g id="edge8_Node000008_Node000009" class="edge">
<title>Node8&#45;&gt;Node9</title>
<g id="a_edge8_Node000008_Node000009"><a xlink:title=" ">
<path fill="none" stroke="#63b8ff" d="M1553.11,-114.17C1561.31,-114.17 1569.51,-114.17 1577.09,-114.17"/>
<polygon fill="#63b8ff" stroke="#63b8ff" points="1576.91,-117.67 1586.91,-114.17 1576.91,-110.67 1576.91,-117.67"/>
</a>
</g>
</g>
<!-- Node10 -->
<g id="Node000010" class="node">
<title>Node10</title>
<g id="a_Node000010"><a xlink:href="a00840.html#ae0e482c6a813848a8f5d34957d1b6307" target="_top" xlink:title="获取全局JavaVM对象.">
<polygon fill="white" stroke="#666666" points="1803,-124.17 1676,-124.17 1676,-104.17 1803,-104.17 1803,-124.17"/>
<text text-anchor="middle" x="1739.5" y="-110.67" font-family="Helvetica,sans-Serif" font-size="10.00">JNIEnvManager::getGvm</text>
</a>
</g>
</g>
<!-- Node9&#45;&gt;Node10 -->
<g id="edge9_Node000009_Node000010" class="edge">
<title>Node9&#45;&gt;Node10</title>
<g id="a_edge9_Node000009_Node000010"><a xlink:title=" ">
<path fill="none" stroke="#63b8ff" d="M1640.29,-114.17C1647.47,-114.17 1655.7,-114.17 1664.27,-114.17"/>
<polygon fill="#63b8ff" stroke="#63b8ff" points="1664.16,-117.67 1674.16,-114.17 1664.16,-110.67 1664.16,-117.67"/>
</a>
</g>
</g>
<!-- Node12 -->
<g id="Node000012" class="node">
<title>Node12</title>
<g id="a_Node000012"><a xlink:href="a00430.html#a076c5f4ff8083c7cfc6523498d0ba30f" target="_top" xlink:title=" ">
<polygon fill="white" stroke="#666666" points="1393.5,-108.17 1291.25,-108.17 1291.25,-76.17 1393.5,-76.17 1393.5,-108.17"/>
<text text-anchor="start" x="1299.25" y="-94.67" font-family="Helvetica,sans-Serif" font-size="10.00">LibLoader::JNIEnvs</text>
<text text-anchor="middle" x="1342.38" y="-82.67" font-family="Helvetica,sans-Serif" font-size="10.00">::getEnv</text>
</a>
</g>
</g>
<!-- Node11&#45;&gt;Node12 -->
<g id="edge11_Node000011_Node000012" class="edge">
<title>Node11&#45;&gt;Node12</title>
<g id="a_edge11_Node000011_Node000012"><a xlink:title=" ">
<path fill="none" stroke="#63b8ff" d="M1089.26,-110.36C1142.19,-106.54 1223.69,-100.66 1279.61,-96.63"/>
<polygon fill="#63b8ff" stroke="#63b8ff" points="1279.55,-100.14 1289.27,-95.93 1279.05,-93.16 1279.55,-100.14"/>
</a>
</g>
</g>
<!-- Node12&#45;&gt;Node8 -->
<g id="edge12_Node000012_Node000008" class="edge">
<title>Node12&#45;&gt;Node8</title>
<g id="a_edge12_Node000012_Node000008"><a xlink:title=" ">
<path fill="none" stroke="#63b8ff" d="M1393.88,-99.74C1401.6,-100.9 1409.69,-102.11 1417.77,-103.32"/>
<polygon fill="#63b8ff" stroke="#63b8ff" points="1417.24,-106.78 1427.65,-104.8 1418.28,-99.86 1417.24,-106.78"/>
</a>
</g>
</g>
<!-- Node13&#45;&gt;Node12 -->
<g id="edge14_Node000013_Node000012" class="edge">
<title>Node13&#45;&gt;Node12</title>
<g id="a_edge14_Node000013_Node000012"><a xlink:title=" ">
<path fill="none" stroke="#63b8ff" d="M922.81,-58.42C1010.54,-65.49 1186.12,-79.65 1279.56,-87.18"/>
<polygon fill="#63b8ff" stroke="#63b8ff" points="1279.05,-90.65 1289.3,-87.97 1279.62,-83.68 1279.05,-90.65"/>
</a>
</g>
</g>
<!-- Node14 -->
<g id="Node000014" class="node">
<title>Node14</title>
<g id="a_Node000014"><a xlink:href="a00872.html#af50d0545fe7d683e54fcd03453a423e3" target="_top" xlink:title=" ">
<polygon fill="white" stroke="#666666" points="1096.75,-48.17 974.25,-48.17 974.25,-16.17 1096.75,-16.17 1096.75,-48.17"/>
<text text-anchor="start" x="982.25" y="-34.67" font-family="Helvetica,sans-Serif" font-size="10.00">LibLoader::LoaderLogger</text>
<text text-anchor="middle" x="1035.5" y="-22.67" font-family="Helvetica,sans-Serif" font-size="10.00">::warning</text>
</a>
</g>
</g>
<!-- Node13&#45;&gt;Node14 -->
<g id="edge15_Node000013_Node000014" class="edge">
<title>Node13&#45;&gt;Node14</title>
<g id="a_edge15_Node000013_Node000014"><a xlink:title=" ">
<path fill="none" stroke="#63b8ff" d="M922.59,-47.15C935.36,-45.44 949.24,-43.58 962.74,-41.77"/>
<polygon fill="#63b8ff" stroke="#63b8ff" points="963,-45.27 972.45,-40.47 962.08,-38.33 963,-45.27"/>
</a>
</g>
</g>
<!-- Node15 -->
<g id="Node000015" class="node">
<title>Node15</title>
<g id="a_Node000015"><a xlink:href="a00872.html#af4d7d5164450e25f7401d1cc15f15b8d" target="_top" xlink:title="实际暴露的接口">
<polygon fill="white" stroke="#666666" points="1255.25,-48.17 1132.75,-48.17 1132.75,-16.17 1255.25,-16.17 1255.25,-48.17"/>
<text text-anchor="start" x="1140.75" y="-34.67" font-family="Helvetica,sans-Serif" font-size="10.00">LibLoader::LoaderLogger</text>
<text text-anchor="middle" x="1194" y="-22.67" font-family="Helvetica,sans-Serif" font-size="10.00">::call_logger</text>
</a>
</g>
</g>
<!-- Node14&#45;&gt;Node15 -->
<g id="edge16_Node000014_Node000015" class="edge">
<title>Node14&#45;&gt;Node15</title>
<g id="a_edge16_Node000014_Node000015"><a xlink:title=" ">
<path fill="none" stroke="#63b8ff" d="M1097.01,-32.17C1104.9,-32.17 1113.05,-32.17 1121.1,-32.17"/>
<polygon fill="#63b8ff" stroke="#63b8ff" points="1120.88,-35.67 1130.88,-32.17 1120.88,-28.67 1120.88,-35.67"/>
</a>
</g>
</g>
<!-- Node15&#45;&gt;Node12 -->
<g id="edge17_Node000015_Node000012" class="edge">
<title>Node15&#45;&gt;Node12</title>
<g id="a_edge17_Node000015_Node000012"><a xlink:title=" ">
<path fill="none" stroke="#63b8ff" d="M1235,-48.56C1252.19,-55.61 1272.49,-63.93 1290.72,-71.4"/>
<polygon fill="#63b8ff" stroke="#63b8ff" points="1289.19,-74.56 1299.77,-75.11 1291.85,-68.08 1289.19,-74.56"/>
</a>
</g>
</g>
<!-- Node15&#45;&gt;Node13 -->
<g id="edge18_Node000015_Node000013" class="edge">
<title>Node15&#45;&gt;Node13</title>
<g id="a_edge18_Node000015_Node000013"><a xlink:title=" ">
<path fill="none" stroke="#63b8ff" d="M1139.51,-15.71C1125.71,-12.17 1110.79,-8.96 1096.75,-7.17 1042.74,-0.27 1027.48,4.29 974.25,-7.17 946.51,-13.14 917.26,-27.11 896.84,-38.28"/>
<polygon fill="#63b8ff" stroke="#63b8ff" points="895.34,-35.11 888.35,-43.07 898.78,-41.21 895.34,-35.11"/>
</a>
</g>
</g>
</g>
</svg>
