<?xml version="1.0" encoding="UTF-8" standalone="no"?>
<!DOCTYPE svg PUBLIC "-//W3C//DTD SVG 1.1//EN"
 "http://www.w3.org/Graphics/SVG/1.1/DTD/svg11.dtd">
<!-- Generated by graphviz version 2.50.0 (20211204.2007)
 -->
<!-- Title: MiraiCP::Group::getFile Pages: 1 -->
<svg width="1795pt" height="317pt"
 viewBox="0.00 0.00 1795.00 316.98" xmlns="http://www.w3.org/2000/svg" xmlns:xlink="http://www.w3.org/1999/xlink">
<g id="graph0" class="graph" transform="scale(1 1) rotate(0) translate(4 312.98)">
<title>MiraiCP::Group::getFile</title>
<polygon fill="white" stroke="transparent" points="-4,4 -4,-312.98 1791,-312.98 1791,4 -4,4"/>
<!-- Node1 -->
<g id="node1" class="node">
<title>Node1</title>
<g id="a_node1"><a xlink:title=" ">
<polygon fill="#bfbfbf" stroke="black" points="0,-146.98 0,-165.98 119,-165.98 119,-146.98 0,-146.98"/>
<text text-anchor="middle" x="59.5" y="-153.98" font-family="Helvetica,sans-Serif" font-size="10.00">MiraiCP::Group::getFile</text>
</a>
</g>
</g>
<!-- Node2 -->
<g id="node2" class="node">
<title>Node2</title>
<g id="a_node2"><a xlink:href="a00697.html#a86d0f3d9b2d7ef5aab70d377297528fc" target="_top" xlink:title=" ">
<polygon fill="white" stroke="black" points="333,-198.48 333,-228.48 450,-228.48 450,-198.48 333,-198.48"/>
<text text-anchor="start" x="341" y="-216.48" font-family="Helvetica,sans-Serif" font-size="10.00">MiraiCP::RemoteFile</text>
<text text-anchor="middle" x="391.5" y="-205.48" font-family="Helvetica,sans-Serif" font-size="10.00">::deserializeFromString</text>
</a>
</g>
</g>
<!-- Node1&#45;&gt;Node2 -->
<g id="edge1" class="edge">
<title>Node1&#45;&gt;Node2</title>
<path fill="none" stroke="midnightblue" d="M79.49,-166.11C98.18,-175.1 127.81,-188.07 155,-194.48 210.42,-207.54 274.98,-212.03 322.48,-213.39"/>
<polygon fill="midnightblue" stroke="midnightblue" points="322.56,-216.9 332.64,-213.65 322.73,-209.9 322.56,-216.9"/>
</g>
<!-- Node8 -->
<g id="node8" class="node">
<title>Node8</title>
<g id="a_node8"><a xlink:href="a00589.html#a0f975b9bfbedb9d5d4fee9b95c9dbe65" target="_top" xlink:title="取文件信息(根据id)">
<polygon fill="white" stroke="black" points="155,-165.98 155,-184.98 293,-184.98 293,-165.98 155,-165.98"/>
<text text-anchor="middle" x="224" y="-172.98" font-family="Helvetica,sans-Serif" font-size="10.00">MiraiCP::Group::getFileById</text>
</a>
</g>
</g>
<!-- Node1&#45;&gt;Node8 -->
<g id="edge7" class="edge">
<title>Node1&#45;&gt;Node8</title>
<path fill="none" stroke="midnightblue" d="M119.17,-163.34C127.46,-164.31 136.1,-165.32 144.7,-166.33"/>
<polygon fill="midnightblue" stroke="midnightblue" points="144.41,-169.82 154.75,-167.5 145.22,-162.86 144.41,-169.82"/>
</g>
<!-- Node9 -->
<g id="node9" class="node">
<title>Node9</title>
<g id="a_node9"><a xlink:href="a00412.html#a309e8d7f316e8b5e947ea3bcddeb84a8" target="_top" xlink:title="调用 Mirai 操作">
<polygon fill="white" stroke="black" points="337,-128.48 337,-158.48 446,-158.48 446,-128.48 337,-128.48"/>
<text text-anchor="start" x="345" y="-146.48" font-family="Helvetica,sans-Serif" font-size="10.00">MiraiCP::KtOperation</text>
<text text-anchor="middle" x="391.5" y="-135.48" font-family="Helvetica,sans-Serif" font-size="10.00">::ktOperation</text>
</a>
</g>
</g>
<!-- Node1&#45;&gt;Node9 -->
<g id="edge26" class="edge">
<title>Node1&#45;&gt;Node9</title>
<path fill="none" stroke="midnightblue" d="M119.12,-154.17C177.42,-151.88 266.62,-148.36 326.68,-146"/>
<polygon fill="midnightblue" stroke="midnightblue" points="326.94,-149.49 336.8,-145.6 326.67,-142.49 326.94,-149.49"/>
</g>
<!-- Node21 -->
<g id="node21" class="node">
<title>Node21</title>
<g id="a_node21"><a xlink:href="a00445.html#a89fb588a12ff2d4de10722788945ea55" target="_top" xlink:title="序列化到json对象">
<polygon fill="white" stroke="black" points="329,-89.98 329,-108.98 454,-108.98 454,-89.98 329,-89.98"/>
<text text-anchor="middle" x="391.5" y="-96.98" font-family="Helvetica,sans-Serif" font-size="10.00">MiraiCP::Contact::toJson</text>
</a>
</g>
</g>
<!-- Node1&#45;&gt;Node21 -->
<g id="edge27" class="edge">
<title>Node1&#45;&gt;Node21</title>
<path fill="none" stroke="midnightblue" d="M115.73,-146.94C173.53,-136.96 264.19,-121.3 325.42,-110.72"/>
<polygon fill="midnightblue" stroke="midnightblue" points="326.1,-114.16 335.36,-109.01 324.91,-107.26 326.1,-114.16"/>
</g>
<!-- Node3 -->
<g id="node3" class="node">
<title>Node3</title>
<g id="a_node3"><a xlink:href="a00609.html#af14d39efa300da183070784bc86d3f23" target="_top" xlink:title="发送错误(error级日志)">
<polygon fill="white" stroke="black" points="490,-254.48 490,-284.48 618,-284.48 618,-254.48 490,-254.48"/>
<text text-anchor="start" x="498" y="-272.48" font-family="Helvetica,sans-Serif" font-size="10.00">MiraiCP::Logger_interface</text>
<text text-anchor="middle" x="554" y="-261.48" font-family="Helvetica,sans-Serif" font-size="10.00">::error</text>
</a>
</g>
</g>
<!-- Node2&#45;&gt;Node3 -->
<g id="edge2" class="edge">
<title>Node2&#45;&gt;Node3</title>
<path fill="none" stroke="midnightblue" d="M435.51,-228.49C455.39,-235.43 479.19,-243.73 500.15,-251.04"/>
<polygon fill="midnightblue" stroke="midnightblue" points="499.28,-254.44 509.87,-254.43 501.58,-247.84 499.28,-254.44"/>
</g>
<!-- Node6 -->
<g id="node6" class="node">
<title>Node6</title>
<g id="a_node6"><a xlink:href="a00394.html#adb669a26688c68d7e8fba360377c2439" target="_top" xlink:title=" ">
<polygon fill="white" stroke="black" points="492,-215.98 492,-234.98 616,-234.98 616,-215.98 492,-215.98"/>
<text text-anchor="middle" x="554" y="-222.98" font-family="Helvetica,sans-Serif" font-size="10.00">MiraiCP::json_jsonmover</text>
</a>
</g>
</g>
<!-- Node2&#45;&gt;Node6 -->
<g id="edge5" class="edge">
<title>Node2&#45;&gt;Node6</title>
<path fill="none" stroke="midnightblue" d="M450.44,-217.81C460.65,-218.58 471.38,-219.38 481.9,-220.17"/>
<polygon fill="midnightblue" stroke="midnightblue" points="481.66,-223.66 491.89,-220.91 482.18,-216.68 481.66,-223.66"/>
</g>
<!-- Node7 -->
<g id="node7" class="node">
<title>Node7</title>
<g id="a_node7"><a xlink:href="a00697.html#a42e9c8d14e1da508881201dbd46d54e1" target="_top" xlink:title="构造远程(群)文件">
<polygon fill="white" stroke="black" points="500.5,-166.48 500.5,-196.48 607.5,-196.48 607.5,-166.48 500.5,-166.48"/>
<text text-anchor="start" x="508.5" y="-184.48" font-family="Helvetica,sans-Serif" font-size="10.00">MiraiCP::RemoteFile</text>
<text text-anchor="middle" x="554" y="-173.48" font-family="Helvetica,sans-Serif" font-size="10.00">::RemoteFile</text>
</a>
</g>
</g>
<!-- Node2&#45;&gt;Node7 -->
<g id="edge6" class="edge">
<title>Node2&#45;&gt;Node7</title>
<path fill="none" stroke="midnightblue" d="M450.44,-201.93C463.47,-199.33 477.34,-196.57 490.54,-193.94"/>
<polygon fill="midnightblue" stroke="midnightblue" points="491.35,-197.34 500.47,-191.96 489.98,-190.48 491.35,-197.34"/>
</g>
<!-- Node4 -->
<g id="node4" class="node">
<title>Node4</title>
<g id="a_node4"><a xlink:href="a00609.html#a98af60f864a0446e23a7a27a3419d9b8" target="_top" xlink:title=" ">
<polygon fill="white" stroke="black" points="654,-229.48 654,-259.48 782,-259.48 782,-229.48 654,-229.48"/>
<text text-anchor="start" x="662" y="-247.48" font-family="Helvetica,sans-Serif" font-size="10.00">MiraiCP::Logger_interface</text>
<text text-anchor="middle" x="718" y="-236.48" font-family="Helvetica,sans-Serif" font-size="10.00">::constructString</text>
</a>
</g>
</g>
<!-- Node3&#45;&gt;Node4 -->
<g id="edge3" class="edge">
<title>Node3&#45;&gt;Node4</title>
<path fill="none" stroke="midnightblue" d="M618.1,-259.75C626.53,-258.44 635.23,-257.1 643.81,-255.78"/>
<polygon fill="midnightblue" stroke="midnightblue" points="644.46,-259.22 653.81,-254.23 643.39,-252.3 644.46,-259.22"/>
</g>
<!-- Node5 -->
<g id="node5" class="node">
<title>Node5</title>
<g id="a_node5"><a xlink:href="a00609.html#a86ea9d57475a3004be2a32b2c4c76371" target="_top" xlink:title="日志底层实现封装">
<polygon fill="white" stroke="black" points="654,-278.48 654,-308.48 782,-308.48 782,-278.48 654,-278.48"/>
<text text-anchor="start" x="662" y="-296.48" font-family="Helvetica,sans-Serif" font-size="10.00">MiraiCP::Logger_interface</text>
<text text-anchor="middle" x="718" y="-285.48" font-family="Helvetica,sans-Serif" font-size="10.00">::log_interface</text>
</a>
</g>
</g>
<!-- Node3&#45;&gt;Node5 -->
<g id="edge4" class="edge">
<title>Node3&#45;&gt;Node5</title>
<path fill="none" stroke="midnightblue" d="M618.1,-278.83C626.53,-280.08 635.23,-281.37 643.81,-282.64"/>
<polygon fill="midnightblue" stroke="midnightblue" points="643.4,-286.12 653.81,-284.12 644.43,-279.19 643.4,-286.12"/>
</g>
<!-- Node8&#45;&gt;Node2 -->
<g id="edge8" class="edge">
<title>Node8&#45;&gt;Node2</title>
<path fill="none" stroke="midnightblue" d="M266.76,-185.07C283.81,-188.98 303.95,-193.61 322.98,-197.98"/>
<polygon fill="midnightblue" stroke="midnightblue" points="322.28,-201.41 332.81,-200.24 323.85,-194.59 322.28,-201.41"/>
</g>
<!-- Node8&#45;&gt;Node9 -->
<g id="edge9" class="edge">
<title>Node8&#45;&gt;Node9</title>
<path fill="none" stroke="midnightblue" d="M274.21,-165.97C290.7,-162.78 309.32,-159.18 326.76,-155.81"/>
<polygon fill="midnightblue" stroke="midnightblue" points="327.71,-159.19 336.86,-153.85 326.38,-152.32 327.71,-159.19"/>
</g>
<!-- Node8&#45;&gt;Node21 -->
<g id="edge25" class="edge">
<title>Node8&#45;&gt;Node21</title>
<path fill="none" stroke="midnightblue" d="M240.36,-165.77C260.24,-153.52 296.2,-132.37 329,-118.48 334.34,-116.22 340.04,-114.1 345.74,-112.15"/>
<polygon fill="midnightblue" stroke="midnightblue" points="346.84,-115.47 355.26,-109.03 344.67,-108.81 346.84,-115.47"/>
</g>
<!-- Node10 -->
<g id="node10" class="node">
<title>Node10</title>
<g id="a_node10"><a xlink:href="a00412.html#a1e1e498928eeaa1d7107033ff5fa881a" target="_top" xlink:title="调用 Mirai 操作">
<polygon fill="white" stroke="black" points="499.5,-117.48 499.5,-147.48 608.5,-147.48 608.5,-117.48 499.5,-117.48"/>
<text text-anchor="start" x="507.5" y="-135.48" font-family="Helvetica,sans-Serif" font-size="10.00">MiraiCP::KtOperation</text>
<text text-anchor="middle" x="554" y="-124.48" font-family="Helvetica,sans-Serif" font-size="10.00">::ktOperationStr</text>
</a>
</g>
</g>
<!-- Node9&#45;&gt;Node10 -->
<g id="edge10" class="edge">
<title>Node9&#45;&gt;Node10</title>
<path fill="none" stroke="midnightblue" d="M446.39,-139.79C460.09,-138.85 474.95,-137.83 489.1,-136.86"/>
<polygon fill="midnightblue" stroke="midnightblue" points="489.51,-140.34 499.25,-136.17 489.04,-133.36 489.51,-140.34"/>
</g>
<!-- Node11 -->
<g id="node11" class="node">
<title>Node11</title>
<g id="a_node11"><a xlink:href="a00405.html#a89b345ec37278655b8f02d07dbb3c882" target="_top" xlink:title="interfaces for plugins">
<polygon fill="white" stroke="black" points="664,-117.48 664,-147.48 772,-147.48 772,-117.48 664,-117.48"/>
<text text-anchor="start" x="672" y="-135.48" font-family="Helvetica,sans-Serif" font-size="10.00">LibLoader::LoaderApi</text>
<text text-anchor="middle" x="718" y="-124.48" font-family="Helvetica,sans-Serif" font-size="10.00">::pluginOperation</text>
</a>
</g>
</g>
<!-- Node10&#45;&gt;Node11 -->
<g id="edge11" class="edge">
<title>Node10&#45;&gt;Node11</title>
<path fill="none" stroke="midnightblue" d="M608.94,-132.48C623.3,-132.48 638.94,-132.48 653.75,-132.48"/>
<polygon fill="midnightblue" stroke="midnightblue" points="653.84,-135.98 663.84,-132.48 653.84,-128.98 653.84,-135.98"/>
</g>
<!-- Node12 -->
<g id="node12" class="node">
<title>Node12</title>
<g id="a_node12"><a xlink:href="a00737.html#ab263deade385e7b5de856d061c6027e9" target="_top" xlink:title=" ">
<polygon fill="white" stroke="black" points="818,-180.48 818,-210.48 935,-210.48 935,-180.48 818,-180.48"/>
<text text-anchor="start" x="826" y="-198.48" font-family="Helvetica,sans-Serif" font-size="10.00">MiraiCP::MiraiCPString</text>
<text text-anchor="middle" x="876.5" y="-187.48" font-family="Helvetica,sans-Serif" font-size="10.00">::copyToCharPtr</text>
</a>
</g>
</g>
<!-- Node11&#45;&gt;Node12 -->
<g id="edge12" class="edge">
<title>Node11&#45;&gt;Node12</title>
<path fill="none" stroke="midnightblue" d="M756.49,-147.57C778.09,-156.27 805.44,-167.28 828.47,-176.55"/>
<polygon fill="midnightblue" stroke="midnightblue" points="827.47,-179.92 838.05,-180.41 830.08,-173.43 827.47,-179.92"/>
</g>
<!-- Node13 -->
<g id="node13" class="node">
<title>Node13</title>
<g id="a_node13"><a xlink:href="a00773.html#aea7d58ff9f04d6d4849c25a2506603a5" target="_top" xlink:title="取env,如果不存在重新获取">
<polygon fill="white" stroke="black" points="1424,-103.98 1424,-122.98 1543,-122.98 1543,-103.98 1424,-103.98"/>
<text text-anchor="middle" x="1483.5" y="-110.98" font-family="Helvetica,sans-Serif" font-size="10.00">JNIEnvManager::getEnv</text>
</a>
</g>
</g>
<!-- Node11&#45;&gt;Node13 -->
<g id="edge13" class="edge">
<title>Node11&#45;&gt;Node13</title>
<path fill="none" stroke="midnightblue" d="M772.02,-137.67C834.14,-143.3 940.19,-151.48 1031.5,-151.48 1031.5,-151.48 1031.5,-151.48 1192.5,-151.48 1274.89,-151.48 1369.34,-136.22 1427.46,-125.04"/>
<polygon fill="midnightblue" stroke="midnightblue" points="1428.39,-128.42 1437.53,-123.07 1427.05,-121.55 1428.39,-128.42"/>
</g>
<!-- Node16 -->
<g id="node16" class="node">
<title>Node16</title>
<g id="a_node16"><a xlink:href="a00404.html#aa5f8d0ecd9dd392b491070aace643ae3" target="_top" xlink:title=" ">
<polygon fill="white" stroke="black" points="979,-103.98 979,-122.98 1086,-122.98 1086,-103.98 979,-103.98"/>
<text text-anchor="middle" x="1032.5" y="-110.98" font-family="Helvetica,sans-Serif" font-size="10.00">LibLoader::jstring2str</text>
</a>
</g>
</g>
<!-- Node11&#45;&gt;Node16 -->
<g id="edge16" class="edge">
<title>Node11&#45;&gt;Node16</title>
<path fill="none" stroke="midnightblue" d="M772.01,-129.26C826.39,-125.95 910.95,-120.81 968.66,-117.3"/>
<polygon fill="midnightblue" stroke="midnightblue" points="968.98,-120.79 978.75,-116.69 968.56,-113.8 968.98,-120.79"/>
</g>
<!-- Node18 -->
<g id="node18" class="node">
<title>Node18</title>
<g id="a_node18"><a xlink:href="a00404.html#a6a6fcd695791253a9b3a053d313b2b93" target="_top" xlink:title=" ">
<polygon fill="white" stroke="black" points="823,-43.98 823,-62.98 930,-62.98 930,-43.98 823,-43.98"/>
<text text-anchor="middle" x="876.5" y="-50.98" font-family="Helvetica,sans-Serif" font-size="10.00">LibLoader::str2jstring</text>
</a>
</g>
</g>
<!-- Node11&#45;&gt;Node18 -->
<g id="edge19" class="edge">
<title>Node11&#45;&gt;Node18</title>
<path fill="none" stroke="midnightblue" d="M748.8,-117.44C777.21,-103.1 819.64,-81.68 847.45,-67.64"/>
<polygon fill="midnightblue" stroke="midnightblue" points="849.28,-70.64 856.63,-63.01 846.12,-64.39 849.28,-70.64"/>
</g>
<!-- Node14 -->
<g id="node14" class="node">
<title>Node14</title>
<g id="a_node14"><a xlink:href="a00203.html#a3d31403b7971274d47d308245206bd24" target="_top" xlink:title="为当前线程创建一个env.">
<polygon fill="white" stroke="black" points="1579,-103.98 1579,-122.98 1629,-122.98 1629,-103.98 1579,-103.98"/>
<text text-anchor="middle" x="1604" y="-110.98" font-family="Helvetica,sans-Serif" font-size="10.00">newEnv</text>
</a>
</g>
</g>
<!-- Node13&#45;&gt;Node14 -->
<g id="edge14" class="edge">
<title>Node13&#45;&gt;Node14</title>
<path fill="none" stroke="midnightblue" d="M1543.06,-113.48C1551.89,-113.48 1560.75,-113.48 1568.85,-113.48"/>
<polygon fill="midnightblue" stroke="midnightblue" points="1568.98,-116.98 1578.98,-113.48 1568.98,-109.98 1568.98,-116.98"/>
</g>
<!-- Node15 -->
<g id="node15" class="node">
<title>Node15</title>
<g id="a_node15"><a xlink:href="a00773.html#ae0e482c6a813848a8f5d34957d1b6307" target="_top" xlink:title="获取全局JavaVM对象.">
<polygon fill="white" stroke="black" points="1665,-103.98 1665,-122.98 1787,-122.98 1787,-103.98 1665,-103.98"/>
<text text-anchor="middle" x="1726" y="-110.98" font-family="Helvetica,sans-Serif" font-size="10.00">JNIEnvManager::getGvm</text>
</a>
</g>
</g>
<!-- Node14&#45;&gt;Node15 -->
<g id="edge15" class="edge">
<title>Node14&#45;&gt;Node15</title>
<path fill="none" stroke="midnightblue" d="M1629.28,-113.48C1636.75,-113.48 1645.37,-113.48 1654.32,-113.48"/>
<polygon fill="midnightblue" stroke="midnightblue" points="1654.52,-116.98 1664.52,-113.48 1654.52,-109.98 1654.52,-116.98"/>
</g>
<!-- Node17 -->
<g id="node17" class="node">
<title>Node17</title>
<g id="a_node17"><a xlink:href="a00409.html#a076c5f4ff8083c7cfc6523498d0ba30f" target="_top" xlink:title=" ">
<polygon fill="white" stroke="black" points="1289,-76.48 1289,-106.48 1388,-106.48 1388,-76.48 1289,-76.48"/>
<text text-anchor="start" x="1297" y="-94.48" font-family="Helvetica,sans-Serif" font-size="10.00">LibLoader::JNIEnvs</text>
<text text-anchor="middle" x="1338.5" y="-83.48" font-family="Helvetica,sans-Serif" font-size="10.00">::getEnv</text>
</a>
</g>
</g>
<!-- Node16&#45;&gt;Node17 -->
<g id="edge17" class="edge">
<title>Node16&#45;&gt;Node17</title>
<path fill="none" stroke="midnightblue" d="M1086.11,-109.68C1139.7,-105.8 1222.65,-99.79 1278.46,-95.76"/>
<polygon fill="midnightblue" stroke="midnightblue" points="1278.83,-99.24 1288.55,-95.03 1278.32,-92.26 1278.83,-99.24"/>
</g>
<!-- Node17&#45;&gt;Node13 -->
<g id="edge18" class="edge">
<title>Node17&#45;&gt;Node13</title>
<path fill="none" stroke="midnightblue" d="M1388.31,-98.99C1396.51,-100.25 1405.16,-101.58 1413.75,-102.91"/>
<polygon fill="midnightblue" stroke="midnightblue" points="1413.36,-106.39 1423.78,-104.45 1414.43,-99.47 1413.36,-106.39"/>
</g>
<!-- Node18&#45;&gt;Node17 -->
<g id="edge20" class="edge">
<title>Node18&#45;&gt;Node17</title>
<path fill="none" stroke="midnightblue" d="M930.27,-57.84C1016.84,-64.99 1188.43,-79.17 1278.75,-86.63"/>
<polygon fill="midnightblue" stroke="midnightblue" points="1278.57,-90.13 1288.82,-87.46 1279.14,-83.15 1278.57,-90.13"/>
</g>
<!-- Node19 -->
<g id="node19" class="node">
<title>Node19</title>
<g id="a_node19"><a xlink:href="a00805.html#af50d0545fe7d683e54fcd03453a423e3" target="_top" xlink:title=" ">
<polygon fill="white" stroke="black" points="971,-16.48 971,-46.48 1094,-46.48 1094,-16.48 971,-16.48"/>
<text text-anchor="start" x="979" y="-34.48" font-family="Helvetica,sans-Serif" font-size="10.00">LibLoader::LoaderLogger</text>
<text text-anchor="middle" x="1032.5" y="-23.48" font-family="Helvetica,sans-Serif" font-size="10.00">::warning</text>
</a>
</g>
</g>
<!-- Node18&#45;&gt;Node19 -->
<g id="edge21" class="edge">
<title>Node18&#45;&gt;Node19</title>
<path fill="none" stroke="midnightblue" d="M930.07,-45.97C940.04,-44.55 950.62,-43.04 961.04,-41.55"/>
<polygon fill="midnightblue" stroke="midnightblue" points="961.55,-45.01 970.95,-40.13 960.56,-38.08 961.55,-45.01"/>
</g>
<!-- Node20 -->
<g id="node20" class="node">
<title>Node20</title>
<g id="a_node20"><a xlink:href="a00805.html#af4d7d5164450e25f7401d1cc15f15b8d" target="_top" xlink:title="实际暴露的接口">
<polygon fill="white" stroke="black" points="1130,-16.48 1130,-46.48 1253,-46.48 1253,-16.48 1130,-16.48"/>
<text text-anchor="start" x="1138" y="-34.48" font-family="Helvetica,sans-Serif" font-size="10.00">LibLoader::LoaderLogger</text>
<text text-anchor="middle" x="1191.5" y="-23.48" font-family="Helvetica,sans-Serif" font-size="10.00">::call_logger</text>
</a>
</g>
</g>
<!-- Node19&#45;&gt;Node20 -->
<g id="edge22" class="edge">
<title>Node19&#45;&gt;Node20</title>
<path fill="none" stroke="midnightblue" d="M1094.2,-31.48C1102.64,-31.48 1111.36,-31.48 1119.95,-31.48"/>
<polygon fill="midnightblue" stroke="midnightblue" points="1119.96,-34.98 1129.96,-31.48 1119.96,-27.98 1119.96,-34.98"/>
</g>
<!-- Node20&#45;&gt;Node17 -->
<g id="edge23" class="edge">
<title>Node20&#45;&gt;Node17</title>
<path fill="none" stroke="midnightblue" d="M1229.09,-46.62C1248.14,-54.51 1271.61,-64.22 1291.84,-72.59"/>
<polygon fill="midnightblue" stroke="midnightblue" points="1290.6,-75.86 1301.17,-76.45 1293.27,-69.39 1290.6,-75.86"/>
</g>
<!-- Node20&#45;&gt;Node18 -->
<g id="edge24" class="edge">
<title>Node20&#45;&gt;Node18</title>
<path fill="none" stroke="midnightblue" d="M1141.97,-16.47C1097.11,-4.82 1028.84,7.24 971,-6.48 944.99,-12.65 917.99,-27.26 899.73,-38.56"/>
<polygon fill="midnightblue" stroke="midnightblue" points="897.83,-35.63 891.27,-43.95 901.59,-41.53 897.83,-35.63"/>
</g>
</g>
</svg>
