<?xml version="1.0" encoding="UTF-8" standalone="no"?>
<!DOCTYPE svg PUBLIC "-//W3C//DTD SVG 1.1//EN"
 "http://www.w3.org/Graphics/SVG/1.1/DTD/svg11.dtd">
<!-- Generated by graphviz version 9.0.0 (0)
 -->
<!-- Title: MiraiCP::MiraiCPExceptionBase Pages: 1 -->
<svg width="211pt" height="396pt"
 viewBox="0.00 0.00 210.50 396.00" xmlns="http://www.w3.org/2000/svg" xmlns:xlink="http://www.w3.org/1999/xlink">
<g id="graph0" class="graph" transform="scale(1 1) rotate(0) translate(4 392)">
<title>MiraiCP::MiraiCPExceptionBase</title>
<!-- Node1 -->
<g id="Node000001" class="node">
<title>Node1</title>
<g id="a_Node000001"><a xlink:title="总异常抽象类，用于一般捕获，不要直接抛出该类，不知道抛出什么的时候请抛出 MiraiCPException">
<polygon fill="#999999" stroke="none" points="182.5,-276 30.5,-276 30.5,0 182.5,0 182.5,-276"/>
<text text-anchor="start" x="35.25" y="-262.5" font-family="Helvetica,sans-Serif" font-size="10.00">MiraiCP::MiraiCPExceptionBase</text>
<text text-anchor="start" x="105" y="-246.5" font-family="Helvetica,sans-Serif" font-size="10.00"> </text>
<text text-anchor="start" x="37" y="-230.5" font-family="Helvetica,sans-Serif" font-size="10.00">+</text>
<text text-anchor="start" x="49.5" y="-230.5" font-family="Helvetica,sans-Serif" font-size="10.00">~MiraiCPExceptionBase</text>
<text text-anchor="start" x="49.5" y="-218.5" font-family="Helvetica,sans-Serif" font-size="10.00">() override=default</text>
<text text-anchor="start" x="37" y="-202.5" font-family="Helvetica,sans-Serif" font-size="10.00">+</text>
<text text-anchor="start" x="49.5" y="-202.5" font-family="Helvetica,sans-Serif" font-size="10.00">const char * what()</text>
<text text-anchor="start" x="49.5" y="-190.5" font-family="Helvetica,sans-Serif" font-size="10.00"> const noexcept override</text>
<text text-anchor="start" x="37" y="-174.5" font-family="Helvetica,sans-Serif" font-size="10.00">+</text>
<text text-anchor="start" x="49.5" y="-174.5" font-family="Helvetica,sans-Serif" font-size="10.00">string getError() const</text>
<text text-anchor="start" x="37" y="-158.5" font-family="Helvetica,sans-Serif" font-size="10.00">+</text>
<text text-anchor="start" x="49.5" y="-158.5" font-family="Helvetica,sans-Serif" font-size="10.00">nlohmann::json getCause</text>
<text text-anchor="start" x="49.5" y="-146.5" font-family="Helvetica,sans-Serif" font-size="10.00">() const</text>
<text text-anchor="start" x="37" y="-130.5" font-family="Helvetica,sans-Serif" font-size="10.00">+</text>
<text text-anchor="start" x="49.5" y="-130.5" font-family="Helvetica,sans-Serif" font-size="10.00">void raise() const</text>
<text text-anchor="start" x="37" y="-114.5" font-family="Helvetica,sans-Serif" font-size="10.00">+</text>
<text text-anchor="start" x="49.5" y="-114.5" font-family="Helvetica,sans-Serif" font-size="10.00">virtual void basicRaise</text>
<text text-anchor="start" x="49.5" y="-102.5" font-family="Helvetica,sans-Serif" font-size="10.00">() const</text>
<text text-anchor="start" x="37" y="-86.5" font-family="Helvetica,sans-Serif" font-size="10.00">+</text>
<text text-anchor="start" x="49.5" y="-86.5" font-family="Helvetica,sans-Serif" font-size="10.00">virtual string getException</text>
<text text-anchor="start" x="49.5" y="-74.5" font-family="Helvetica,sans-Serif" font-size="10.00">Type() const =0</text>
<text text-anchor="start" x="37" y="-58.5" font-family="Helvetica,sans-Serif" font-size="10.00">+</text>
<text text-anchor="start" x="49.5" y="-58.5" font-family="Helvetica,sans-Serif" font-size="10.00">static string exceptionType()</text>
<text text-anchor="start" x="37.38" y="-42.5" font-family="Helvetica,sans-Serif" font-size="10.00">#</text>
<text text-anchor="start" x="49.5" y="-42.5" font-family="Helvetica,sans-Serif" font-size="10.00">MiraiCPExceptionBase</text>
<text text-anchor="start" x="49.5" y="-30.5" font-family="Helvetica,sans-Serif" font-size="10.00">(const nlohmann::json</text>
<text text-anchor="start" x="49.5" y="-18.5" font-family="Helvetica,sans-Serif" font-size="10.00"> &amp;info, string _filename,</text>
<text text-anchor="start" x="49.5" y="-6.5" font-family="Helvetica,sans-Serif" font-size="10.00"> int _lineNum)</text>
<polygon fill="#666666" stroke="#666666" points="30.5,-258 30.5,-258 182.5,-258 182.5,-258 30.5,-258"/>
<polygon fill="#666666" stroke="#666666" points="30.5,-242 30.5,-242 182.5,-242 182.5,-242 30.5,-242"/>
<polygon fill="none" stroke="#666666" points="30.5,0 30.5,-276 182.5,-276 182.5,0 30.5,0"/>
</a>
</g>
</g>
<!-- Node2 -->
<g id="Node000002" class="node">
<title>Node2</title>
<g id="a_Node000002"><a xlink:title=" ">
<polygon fill="white" stroke="none" points="71,-388 0,-388 0,-336 71,-336 71,-388"/>
<text text-anchor="start" x="4.75" y="-374.5" font-family="Helvetica,sans-Serif" font-size="10.00">std::exception</text>
<text text-anchor="start" x="34" y="-358.5" font-family="Helvetica,sans-Serif" font-size="10.00"> </text>
<text text-anchor="start" x="34" y="-342.5" font-family="Helvetica,sans-Serif" font-size="10.00"> </text>
<polygon fill="#666666" stroke="#666666" points="0,-370 0,-370 71,-370 71,-370 0,-370"/>
<polygon fill="#666666" stroke="#666666" points="0,-354 0,-354 71,-354 71,-354 0,-354"/>
<polygon fill="none" stroke="#666666" points="0,-336 0,-388 71,-388 71,-336 0,-336"/>
</a>
</g>
</g>
<!-- Node2&#45;&gt;Node1 -->
<g id="edge1_Node000001_Node000002" class="edge">
<title>Node2&#45;&gt;Node1</title>
<g id="a_edge1_Node000001_Node000002"><a xlink:title=" ">
<path fill="none" stroke="#63b8ff" d="M46.78,-325.74C51.31,-311.57 56.85,-294.24 62.71,-275.91"/>
<polygon fill="none" stroke="#63b8ff" points="43.54,-324.36 43.83,-334.95 50.21,-326.49 43.54,-324.36"/>
</a>
</g>
</g>
<!-- Node3 -->
<g id="Node000003" class="node">
<title>Node3</title>
<g id="a_Node000003"><a xlink:title=" ">
<polygon fill="white" stroke="none" points="123.5,-388 89.5,-388 89.5,-336 123.5,-336 123.5,-388"/>
<text text-anchor="start" x="94.5" y="-374.5" font-family="Helvetica,sans-Serif" font-size="10.00">string</text>
<text text-anchor="start" x="105" y="-358.5" font-family="Helvetica,sans-Serif" font-size="10.00"> </text>
<text text-anchor="start" x="105" y="-342.5" font-family="Helvetica,sans-Serif" font-size="10.00"> </text>
<polygon fill="#666666" stroke="#666666" points="89.5,-370 89.5,-370 123.5,-370 123.5,-370 89.5,-370"/>
<polygon fill="#666666" stroke="#666666" points="89.5,-354 89.5,-354 123.5,-354 123.5,-354 89.5,-354"/>
<polygon fill="none" stroke="#666666" points="89.5,-336 89.5,-388 123.5,-388 123.5,-336 89.5,-336"/>
</a>
</g>
</g>
<!-- Node3&#45;&gt;Node1 -->
<g id="edge2_Node000001_Node000003" class="edge">
<title>Node3&#45;&gt;Node1</title>
<g id="a_edge2_Node000001_Node000003"><a xlink:title=" ">
<path fill="none" stroke="#63b8ff" d="M106.5,-336.39C106.5,-323.69 106.5,-307.04 106.5,-288.78"/>
<polygon fill="none" stroke="#63b8ff" points="106.5,-288.82 102.5,-282.82 106.5,-276.82 110.5,-282.82 106.5,-288.82"/>
</a>
</g>
<text text-anchor="middle" x="127.88" y="-308.5" font-family="Helvetica,sans-Serif" font-size="10.00" fill="grey"> #cause</text>
<text text-anchor="middle" x="127.88" y="-296.5" font-family="Helvetica,sans-Serif" font-size="10.00" fill="grey">+filename</text>
</g>
<!-- Node4 -->
<g id="Node000004" class="node">
<title>Node4</title>
<g id="a_Node000004"><a xlink:title=" ">
<polygon fill="white" stroke="none" points="182.5,-388 162.5,-388 162.5,-336 182.5,-336 182.5,-388"/>
<text text-anchor="start" x="167.25" y="-374.5" font-family="Helvetica,sans-Serif" font-size="10.00">int</text>
<text text-anchor="start" x="171" y="-358.5" font-family="Helvetica,sans-Serif" font-size="10.00"> </text>
<text text-anchor="start" x="171" y="-342.5" font-family="Helvetica,sans-Serif" font-size="10.00"> </text>
<polygon fill="#666666" stroke="#666666" points="162.5,-370 162.5,-370 182.5,-370 182.5,-370 162.5,-370"/>
<polygon fill="#666666" stroke="#666666" points="162.5,-354 162.5,-354 182.5,-354 182.5,-354 162.5,-354"/>
<polygon fill="none" stroke="#666666" points="162.5,-336 162.5,-388 182.5,-388 182.5,-336 162.5,-336"/>
</a>
</g>
</g>
<!-- Node4&#45;&gt;Node1 -->
<g id="edge3_Node000001_Node000004" class="edge">
<title>Node4&#45;&gt;Node1</title>
<g id="a_edge3_Node000001_Node000004"><a xlink:title=" ">
<path fill="none" stroke="#63b8ff" d="M165.18,-336.39C161.37,-323.57 156.36,-306.71 150.87,-288.25"/>
<polygon fill="none" stroke="#63b8ff" points="150.88,-288.28 145.34,-283.67 147.46,-276.78 153.01,-281.39 150.88,-288.28"/>
</a>
</g>
<text text-anchor="middle" x="180" y="-302.5" font-family="Helvetica,sans-Serif" font-size="10.00" fill="grey"> +lineNum</text>
</g>
</g>
</svg>
