<?xml version="1.0" encoding="UTF-8" standalone="no"?>
<!DOCTYPE svg PUBLIC "-//W3C//DTD SVG 1.1//EN"
 "http://www.w3.org/Graphics/SVG/1.1/DTD/svg11.dtd">
<!-- Generated by graphviz version 2.50.0 (20211204.2007)
 -->
<!-- Title: MiraiCP::MemberJoinRequestEvent::accept Pages: 1 -->
<svg width="1793pt" height="220pt"
 viewBox="0.00 0.00 1793.00 219.76" xmlns="http://www.w3.org/2000/svg" xmlns:xlink="http://www.w3.org/1999/xlink">
<g id="graph0" class="graph" transform="scale(1 1) rotate(0) translate(4 215.76)">
<title>MiraiCP::MemberJoinRequestEvent::accept</title>
<polygon fill="white" stroke="transparent" points="-4,4 -4,-215.76 1789,-215.76 1789,4 -4,4"/>
<!-- Node1 -->
<g id="node1" class="node">
<title>Node1</title>
<g id="a_node1"><a xlink:title="通过">
<polygon fill="#bfbfbf" stroke="black" points="0,-140.26 0,-170.26 146,-170.26 146,-140.26 0,-140.26"/>
<text text-anchor="start" x="8" y="-158.26" font-family="Helvetica,sans-Serif" font-size="10.00">MiraiCP::MemberJoinRequest</text>
<text text-anchor="middle" x="73" y="-147.26" font-family="Helvetica,sans-Serif" font-size="10.00">Event::accept</text>
</a>
</g>
</g>
<!-- Node2 -->
<g id="node2" class="node">
<title>Node2</title>
<g id="a_node2"><a xlink:href="a00448.html#a1f208ae0f09c367c90c2e079e63048db" target="_top" xlink:title="id 在全部情况存在">
<polygon fill="white" stroke="black" points="203,-167.76 203,-186.76 307,-186.76 307,-167.76 203,-167.76"/>
<text text-anchor="middle" x="255" y="-174.76" font-family="Helvetica,sans-Serif" font-size="10.00">MiraiCP::Contact::id</text>
</a>
</g>
</g>
<!-- Node1&#45;&gt;Node2 -->
<g id="edge1" class="edge">
<title>Node1&#45;&gt;Node2</title>
<path fill="none" stroke="midnightblue" d="M146.18,-164.08C161.59,-165.97 177.74,-167.94 192.7,-169.77"/>
<polygon fill="midnightblue" stroke="midnightblue" points="192.49,-173.27 202.84,-171.01 193.34,-166.32 192.49,-173.27"/>
</g>
<!-- Node3 -->
<g id="node3" class="node">
<title>Node3</title>
<g id="a_node3"><a xlink:href="a00397.html#a007cb939b04fb94a0e76805f64422783" target="_top" xlink:title="底层通过MemberJoinRequest">
<polygon fill="white" stroke="black" points="182,-118.26 182,-148.26 328,-148.26 328,-118.26 182,-118.26"/>
<text text-anchor="start" x="190" y="-136.26" font-family="Helvetica,sans-Serif" font-size="10.00">MiraiCP::memberJoinRequest</text>
<text text-anchor="middle" x="255" y="-125.26" font-family="Helvetica,sans-Serif" font-size="10.00">Internal</text>
</a>
</g>
</g>
<!-- Node1&#45;&gt;Node3 -->
<g id="edge2" class="edge">
<title>Node1&#45;&gt;Node3</title>
<path fill="none" stroke="midnightblue" d="M146.18,-146.44C154.61,-145.41 163.27,-144.35 171.82,-143.3"/>
<polygon fill="midnightblue" stroke="midnightblue" points="172.31,-146.77 181.81,-142.08 171.46,-139.82 172.31,-146.77"/>
</g>
<!-- Node4 -->
<g id="node4" class="node">
<title>Node4</title>
<g id="a_node4"><a xlink:href="a00415.html#a309e8d7f316e8b5e947ea3bcddeb84a8" target="_top" xlink:title="调用 Mirai 操作">
<polygon fill="white" stroke="black" points="364,-118.26 364,-148.26 473,-148.26 473,-118.26 364,-118.26"/>
<text text-anchor="start" x="372" y="-136.26" font-family="Helvetica,sans-Serif" font-size="10.00">MiraiCP::KtOperation</text>
<text text-anchor="middle" x="418.5" y="-125.26" font-family="Helvetica,sans-Serif" font-size="10.00">::ktOperation</text>
</a>
</g>
</g>
<!-- Node3&#45;&gt;Node4 -->
<g id="edge3" class="edge">
<title>Node3&#45;&gt;Node4</title>
<path fill="none" stroke="midnightblue" d="M328.25,-133.26C336.73,-133.26 345.33,-133.26 353.68,-133.26"/>
<polygon fill="midnightblue" stroke="midnightblue" points="353.72,-136.76 363.72,-133.26 353.72,-129.76 353.72,-136.76"/>
</g>
<!-- Node5 -->
<g id="node5" class="node">
<title>Node5</title>
<g id="a_node5"><a xlink:href="a00415.html#a1e1e498928eeaa1d7107033ff5fa881a" target="_top" xlink:title="调用 Mirai 操作">
<polygon fill="white" stroke="black" points="509,-118.26 509,-148.26 618,-148.26 618,-118.26 509,-118.26"/>
<text text-anchor="start" x="517" y="-136.26" font-family="Helvetica,sans-Serif" font-size="10.00">MiraiCP::KtOperation</text>
<text text-anchor="middle" x="563.5" y="-125.26" font-family="Helvetica,sans-Serif" font-size="10.00">::ktOperationStr</text>
</a>
</g>
</g>
<!-- Node4&#45;&gt;Node5 -->
<g id="edge4" class="edge">
<title>Node4&#45;&gt;Node5</title>
<path fill="none" stroke="midnightblue" d="M473.15,-133.26C481.38,-133.26 489.94,-133.26 498.37,-133.26"/>
<polygon fill="midnightblue" stroke="midnightblue" points="498.54,-136.76 508.54,-133.26 498.54,-129.76 498.54,-136.76"/>
</g>
<!-- Node6 -->
<g id="node6" class="node">
<title>Node6</title>
<g id="a_node6"><a xlink:href="a00408.html#a4c6ac4cf4ba5ff0adb7656708bbb67d0" target="_top" xlink:title="interfaces for plugins">
<polygon fill="white" stroke="black" points="654,-118.26 654,-148.26 762,-148.26 762,-118.26 654,-118.26"/>
<text text-anchor="start" x="662" y="-136.26" font-family="Helvetica,sans-Serif" font-size="10.00">LibLoader::LoaderApi</text>
<text text-anchor="middle" x="708" y="-125.26" font-family="Helvetica,sans-Serif" font-size="10.00">::pluginOperation</text>
</a>
</g>
</g>
<!-- Node5&#45;&gt;Node6 -->
<g id="edge5" class="edge">
<title>Node5&#45;&gt;Node6</title>
<path fill="none" stroke="midnightblue" d="M618.37,-133.26C626.67,-133.26 635.29,-133.26 643.77,-133.26"/>
<polygon fill="midnightblue" stroke="midnightblue" points="644,-136.76 654,-133.26 644,-129.76 644,-136.76"/>
</g>
<!-- Node7 -->
<g id="node7" class="node">
<title>Node7</title>
<g id="a_node7"><a xlink:href="a00740.html#acc90fdac094544c4ddd9d6fd13baa5da" target="_top" xlink:title=" ">
<polygon fill="white" stroke="black" points="798,-181.26 798,-211.26 933,-211.26 933,-181.26 798,-181.26"/>
<text text-anchor="start" x="806" y="-199.26" font-family="Helvetica,sans-Serif" font-size="10.00">MiraiCP::MiraiCPStringview</text>
<text text-anchor="middle" x="865.5" y="-188.26" font-family="Helvetica,sans-Serif" font-size="10.00">::c_str</text>
</a>
</g>
</g>
<!-- Node6&#45;&gt;Node7 -->
<g id="edge6" class="edge">
<title>Node6&#45;&gt;Node7</title>
<path fill="none" stroke="midnightblue" d="M746.25,-148.35C767.71,-157.05 794.89,-168.06 817.77,-177.33"/>
<polygon fill="midnightblue" stroke="midnightblue" points="816.71,-180.67 827.29,-181.19 819.33,-174.19 816.71,-180.67"/>
</g>
<!-- Node8 -->
<g id="node8" class="node">
<title>Node8</title>
<g id="a_node8"><a xlink:href="a00768.html#aea7d58ff9f04d6d4849c25a2506603a5" target="_top" xlink:title="取env,如果不存在重新获取">
<polygon fill="white" stroke="black" points="1422,-104.76 1422,-123.76 1541,-123.76 1541,-104.76 1422,-104.76"/>
<text text-anchor="middle" x="1481.5" y="-111.76" font-family="Helvetica,sans-Serif" font-size="10.00">JNIEnvManager::getEnv</text>
</a>
</g>
</g>
<!-- Node6&#45;&gt;Node8 -->
<g id="edge7" class="edge">
<title>Node6&#45;&gt;Node8</title>
<path fill="none" stroke="midnightblue" d="M762.25,-138.35C825.8,-143.98 935.3,-152.26 1029.5,-152.26 1029.5,-152.26 1029.5,-152.26 1190.5,-152.26 1272.89,-152.26 1367.34,-137 1425.46,-125.82"/>
<polygon fill="midnightblue" stroke="midnightblue" points="1426.39,-129.2 1435.53,-123.85 1425.05,-122.33 1426.39,-129.2"/>
</g>
<!-- Node11 -->
<g id="node11" class="node">
<title>Node11</title>
<g id="a_node11"><a xlink:href="a00407.html#aa5f8d0ecd9dd392b491070aace643ae3" target="_top" xlink:title=" ">
<polygon fill="white" stroke="black" points="977,-104.76 977,-123.76 1084,-123.76 1084,-104.76 977,-104.76"/>
<text text-anchor="middle" x="1030.5" y="-111.76" font-family="Helvetica,sans-Serif" font-size="10.00">LibLoader::jstring2str</text>
</a>
</g>
</g>
<!-- Node6&#45;&gt;Node11 -->
<g id="edge10" class="edge">
<title>Node6&#45;&gt;Node11</title>
<path fill="none" stroke="midnightblue" d="M762.28,-130.1C818.57,-126.77 907.25,-121.51 966.85,-117.98"/>
<polygon fill="midnightblue" stroke="midnightblue" points="967.11,-121.47 976.89,-117.38 966.7,-114.48 967.11,-121.47"/>
</g>
<!-- Node13 -->
<g id="node13" class="node">
<title>Node13</title>
<g id="a_node13"><a xlink:href="a00407.html#a6a6fcd695791253a9b3a053d313b2b93" target="_top" xlink:title=" ">
<polygon fill="white" stroke="black" points="812,-44.76 812,-63.76 919,-63.76 919,-44.76 812,-44.76"/>
<text text-anchor="middle" x="865.5" y="-51.76" font-family="Helvetica,sans-Serif" font-size="10.00">LibLoader::str2jstring</text>
</a>
</g>
</g>
<!-- Node6&#45;&gt;Node13 -->
<g id="edge13" class="edge">
<title>Node6&#45;&gt;Node13</title>
<path fill="none" stroke="midnightblue" d="M738.61,-118.22C766.83,-103.88 809,-82.46 836.63,-68.42"/>
<polygon fill="midnightblue" stroke="midnightblue" points="838.42,-71.44 845.75,-63.79 835.25,-65.2 838.42,-71.44"/>
</g>
<!-- Node9 -->
<g id="node9" class="node">
<title>Node9</title>
<g id="a_node9"><a xlink:href="a00200.html#a3d31403b7971274d47d308245206bd24" target="_top" xlink:title="为当前线程创建一个env.">
<polygon fill="white" stroke="black" points="1577,-104.76 1577,-123.76 1627,-123.76 1627,-104.76 1577,-104.76"/>
<text text-anchor="middle" x="1602" y="-111.76" font-family="Helvetica,sans-Serif" font-size="10.00">newEnv</text>
</a>
</g>
</g>
<!-- Node8&#45;&gt;Node9 -->
<g id="edge8" class="edge">
<title>Node8&#45;&gt;Node9</title>
<path fill="none" stroke="midnightblue" d="M1541.06,-114.26C1549.89,-114.26 1558.75,-114.26 1566.85,-114.26"/>
<polygon fill="midnightblue" stroke="midnightblue" points="1566.98,-117.76 1576.98,-114.26 1566.98,-110.76 1566.98,-117.76"/>
</g>
<!-- Node10 -->
<g id="node10" class="node">
<title>Node10</title>
<g id="a_node10"><a xlink:href="a00768.html#ae0e482c6a813848a8f5d34957d1b6307" target="_top" xlink:title="获取全局JavaVM对象.">
<polygon fill="white" stroke="black" points="1663,-104.76 1663,-123.76 1785,-123.76 1785,-104.76 1663,-104.76"/>
<text text-anchor="middle" x="1724" y="-111.76" font-family="Helvetica,sans-Serif" font-size="10.00">JNIEnvManager::getGvm</text>
</a>
</g>
</g>
<!-- Node9&#45;&gt;Node10 -->
<g id="edge9" class="edge">
<title>Node9&#45;&gt;Node10</title>
<path fill="none" stroke="midnightblue" d="M1627.28,-114.26C1634.75,-114.26 1643.37,-114.26 1652.32,-114.26"/>
<polygon fill="midnightblue" stroke="midnightblue" points="1652.52,-117.76 1662.52,-114.26 1652.52,-110.76 1652.52,-117.76"/>
</g>
<!-- Node12 -->
<g id="node12" class="node">
<title>Node12</title>
<g id="a_node12"><a xlink:href="a00411.html#a076c5f4ff8083c7cfc6523498d0ba30f" target="_top" xlink:title=" ">
<polygon fill="white" stroke="black" points="1287,-77.26 1287,-107.26 1386,-107.26 1386,-77.26 1287,-77.26"/>
<text text-anchor="start" x="1295" y="-95.26" font-family="Helvetica,sans-Serif" font-size="10.00">LibLoader::JNIEnvs</text>
<text text-anchor="middle" x="1336.5" y="-84.26" font-family="Helvetica,sans-Serif" font-size="10.00">::getEnv</text>
</a>
</g>
</g>
<!-- Node11&#45;&gt;Node12 -->
<g id="edge11" class="edge">
<title>Node11&#45;&gt;Node12</title>
<path fill="none" stroke="midnightblue" d="M1084.11,-110.45C1137.7,-106.58 1220.65,-100.57 1276.46,-96.53"/>
<polygon fill="midnightblue" stroke="midnightblue" points="1276.83,-100.02 1286.55,-95.8 1276.32,-93.03 1276.83,-100.02"/>
</g>
<!-- Node12&#45;&gt;Node8 -->
<g id="edge12" class="edge">
<title>Node12&#45;&gt;Node8</title>
<path fill="none" stroke="midnightblue" d="M1386.31,-99.77C1394.51,-101.03 1403.16,-102.36 1411.75,-103.68"/>
<polygon fill="midnightblue" stroke="midnightblue" points="1411.36,-107.17 1421.78,-105.23 1412.43,-100.25 1411.36,-107.17"/>
</g>
<!-- Node13&#45;&gt;Node12 -->
<g id="edge14" class="edge">
<title>Node13&#45;&gt;Node12</title>
<path fill="none" stroke="midnightblue" d="M919.39,-58.55C1007.71,-65.7 1184.59,-80.03 1276.7,-87.5"/>
<polygon fill="midnightblue" stroke="midnightblue" points="1276.44,-90.99 1286.69,-88.31 1277.01,-84.01 1276.44,-90.99"/>
</g>
<!-- Node14 -->
<g id="node14" class="node">
<title>Node14</title>
<g id="a_node14"><a xlink:href="a00800.html#af50d0545fe7d683e54fcd03453a423e3" target="_top" xlink:title=" ">
<polygon fill="white" stroke="black" points="969,-17.26 969,-47.26 1092,-47.26 1092,-17.26 969,-17.26"/>
<text text-anchor="start" x="977" y="-35.26" font-family="Helvetica,sans-Serif" font-size="10.00">LibLoader::LoaderLogger</text>
<text text-anchor="middle" x="1030.5" y="-24.26" font-family="Helvetica,sans-Serif" font-size="10.00">::warning</text>
</a>
</g>
</g>
<!-- Node13&#45;&gt;Node14 -->
<g id="edge15" class="edge">
<title>Node13&#45;&gt;Node14</title>
<path fill="none" stroke="midnightblue" d="M919.42,-47.12C932.01,-45.42 945.65,-43.58 958.89,-41.79"/>
<polygon fill="midnightblue" stroke="midnightblue" points="959.48,-45.24 968.92,-40.44 958.54,-38.31 959.48,-45.24"/>
</g>
<!-- Node15 -->
<g id="node15" class="node">
<title>Node15</title>
<g id="a_node15"><a xlink:href="a00800.html#af4d7d5164450e25f7401d1cc15f15b8d" target="_top" xlink:title="实际暴露的接口">
<polygon fill="white" stroke="black" points="1128,-17.26 1128,-47.26 1251,-47.26 1251,-17.26 1128,-17.26"/>
<text text-anchor="start" x="1136" y="-35.26" font-family="Helvetica,sans-Serif" font-size="10.00">LibLoader::LoaderLogger</text>
<text text-anchor="middle" x="1189.5" y="-24.26" font-family="Helvetica,sans-Serif" font-size="10.00">::call_logger</text>
</a>
</g>
</g>
<!-- Node14&#45;&gt;Node15 -->
<g id="edge16" class="edge">
<title>Node14&#45;&gt;Node15</title>
<path fill="none" stroke="midnightblue" d="M1092.2,-32.26C1100.64,-32.26 1109.36,-32.26 1117.95,-32.26"/>
<polygon fill="midnightblue" stroke="midnightblue" points="1117.96,-35.76 1127.96,-32.26 1117.96,-28.76 1117.96,-35.76"/>
</g>
<!-- Node15&#45;&gt;Node12 -->
<g id="edge17" class="edge">
<title>Node15&#45;&gt;Node12</title>
<path fill="none" stroke="midnightblue" d="M1227.09,-47.4C1246.14,-55.28 1269.61,-65 1289.84,-73.37"/>
<polygon fill="midnightblue" stroke="midnightblue" points="1288.6,-76.64 1299.17,-77.23 1291.27,-70.17 1288.6,-76.64"/>
</g>
<!-- Node15&#45;&gt;Node13 -->
<g id="edge18" class="edge">
<title>Node15&#45;&gt;Node13</title>
<path fill="none" stroke="midnightblue" d="M1140.37,-17.24C1125.07,-13.15 1107.97,-9.3 1092,-7.26 1037.77,-0.35 1022.41,4.4 969,-7.26 940.6,-13.46 910.66,-28.28 890.52,-39.64"/>
<polygon fill="midnightblue" stroke="midnightblue" points="888.64,-36.68 881.74,-44.72 892.15,-42.74 888.64,-36.68"/>
</g>
</g>
</svg>
