<?xml version="1.0" encoding="UTF-8" standalone="no"?>
<!DOCTYPE svg PUBLIC "-//W3C//DTD SVG 1.1//EN"
 "http://www.w3.org/Graphics/SVG/1.1/DTD/svg11.dtd">
<!-- Generated by graphviz version 2.50.0 (20211204.2007)
 -->
<!-- Title: MiraiCP::Group::getFileList Pages: 1 -->
<svg width="1785pt" height="220pt"
 viewBox="0.00 0.00 1785.00 219.76" xmlns="http://www.w3.org/2000/svg" xmlns:xlink="http://www.w3.org/1999/xlink">
<g id="graph0" class="graph" transform="scale(1 1) rotate(0) translate(4 215.76)">
<title>MiraiCP::Group::getFileList</title>
<polygon fill="white" stroke="transparent" points="-4,4 -4,-215.76 1781,-215.76 1781,4 -4,4"/>
<!-- Node1 -->
<g id="node1" class="node">
<title>Node1</title>
<g id="a_node1"><a xlink:title=" ">
<polygon fill="#bfbfbf" stroke="black" points="0,-101.76 0,-120.76 134,-120.76 134,-101.76 0,-101.76"/>
<text text-anchor="middle" x="67" y="-108.76" font-family="Helvetica,sans-Serif" font-size="10.00">MiraiCP::Group::getFileList</text>
</a>
</g>
</g>
<!-- Node2 -->
<g id="node2" class="node">
<title>Node2</title>
<g id="a_node2"><a xlink:href="a00592.html#a2e01dc1b39b189302df6bc9ab9bb779d" target="_top" xlink:title=" ">
<polygon fill="white" stroke="black" points="170,-96.26 170,-126.26 304,-126.26 304,-96.26 170,-96.26"/>
<text text-anchor="start" x="178" y="-114.26" font-family="Helvetica,sans-Serif" font-size="10.00">MiraiCP::Group::getFileList</text>
<text text-anchor="middle" x="237" y="-103.26" font-family="Helvetica,sans-Serif" font-size="10.00">String</text>
</a>
</g>
</g>
<!-- Node1&#45;&gt;Node2 -->
<g id="edge1" class="edge">
<title>Node1&#45;&gt;Node2</title>
<path fill="none" stroke="midnightblue" d="M134.4,-111.26C142.68,-111.26 151.2,-111.26 159.62,-111.26"/>
<polygon fill="midnightblue" stroke="midnightblue" points="159.81,-114.76 169.81,-111.26 159.81,-107.76 159.81,-114.76"/>
</g>
<!-- Node3 -->
<g id="node3" class="node">
<title>Node3</title>
<g id="a_node3"><a xlink:href="a00415.html#a309e8d7f316e8b5e947ea3bcddeb84a8" target="_top" xlink:title="调用 Mirai 操作">
<polygon fill="white" stroke="black" points="348,-118.26 348,-148.26 457,-148.26 457,-118.26 348,-118.26"/>
<text text-anchor="start" x="356" y="-136.26" font-family="Helvetica,sans-Serif" font-size="10.00">MiraiCP::KtOperation</text>
<text text-anchor="middle" x="402.5" y="-125.26" font-family="Helvetica,sans-Serif" font-size="10.00">::ktOperation</text>
</a>
</g>
</g>
<!-- Node2&#45;&gt;Node3 -->
<g id="edge2" class="edge">
<title>Node2&#45;&gt;Node3</title>
<path fill="none" stroke="midnightblue" d="M304.03,-120.15C315.16,-121.64 326.69,-123.2 337.76,-124.68"/>
<polygon fill="midnightblue" stroke="midnightblue" points="337.39,-128.17 347.77,-126.03 338.33,-121.23 337.39,-128.17"/>
</g>
<!-- Node15 -->
<g id="node15" class="node">
<title>Node15</title>
<g id="a_node15"><a xlink:href="a00448.html#a89fb588a12ff2d4de10722788945ea55" target="_top" xlink:title="序列化到json对象">
<polygon fill="white" stroke="black" points="340,-79.76 340,-98.76 465,-98.76 465,-79.76 340,-79.76"/>
<text text-anchor="middle" x="402.5" y="-86.76" font-family="Helvetica,sans-Serif" font-size="10.00">MiraiCP::Contact::toJson</text>
</a>
</g>
</g>
<!-- Node2&#45;&gt;Node15 -->
<g id="edge18" class="edge">
<title>Node2&#45;&gt;Node15</title>
<path fill="none" stroke="midnightblue" d="M304.03,-102.38C312.57,-101.23 321.34,-100.05 329.96,-98.89"/>
<polygon fill="midnightblue" stroke="midnightblue" points="330.54,-102.34 339.98,-97.54 329.61,-95.4 330.54,-102.34"/>
</g>
<!-- Node4 -->
<g id="node4" class="node">
<title>Node4</title>
<g id="a_node4"><a xlink:href="a00415.html#a1e1e498928eeaa1d7107033ff5fa881a" target="_top" xlink:title="调用 Mirai 操作">
<polygon fill="white" stroke="black" points="501,-118.26 501,-148.26 610,-148.26 610,-118.26 501,-118.26"/>
<text text-anchor="start" x="509" y="-136.26" font-family="Helvetica,sans-Serif" font-size="10.00">MiraiCP::KtOperation</text>
<text text-anchor="middle" x="555.5" y="-125.26" font-family="Helvetica,sans-Serif" font-size="10.00">::ktOperationStr</text>
</a>
</g>
</g>
<!-- Node3&#45;&gt;Node4 -->
<g id="edge3" class="edge">
<title>Node3&#45;&gt;Node4</title>
<path fill="none" stroke="midnightblue" d="M457.16,-133.26C468,-133.26 479.5,-133.26 490.64,-133.26"/>
<polygon fill="midnightblue" stroke="midnightblue" points="490.76,-136.76 500.76,-133.26 490.76,-129.76 490.76,-136.76"/>
</g>
<!-- Node5 -->
<g id="node5" class="node">
<title>Node5</title>
<g id="a_node5"><a xlink:href="a00408.html#a4c6ac4cf4ba5ff0adb7656708bbb67d0" target="_top" xlink:title="interfaces for plugins">
<polygon fill="white" stroke="black" points="646,-118.26 646,-148.26 754,-148.26 754,-118.26 646,-118.26"/>
<text text-anchor="start" x="654" y="-136.26" font-family="Helvetica,sans-Serif" font-size="10.00">LibLoader::LoaderApi</text>
<text text-anchor="middle" x="700" y="-125.26" font-family="Helvetica,sans-Serif" font-size="10.00">::pluginOperation</text>
</a>
</g>
</g>
<!-- Node4&#45;&gt;Node5 -->
<g id="edge4" class="edge">
<title>Node4&#45;&gt;Node5</title>
<path fill="none" stroke="midnightblue" d="M610.37,-133.26C618.67,-133.26 627.29,-133.26 635.77,-133.26"/>
<polygon fill="midnightblue" stroke="midnightblue" points="636,-136.76 646,-133.26 636,-129.76 636,-136.76"/>
</g>
<!-- Node6 -->
<g id="node6" class="node">
<title>Node6</title>
<g id="a_node6"><a xlink:href="a00740.html#acc90fdac094544c4ddd9d6fd13baa5da" target="_top" xlink:title=" ">
<polygon fill="white" stroke="black" points="790,-181.26 790,-211.26 925,-211.26 925,-181.26 790,-181.26"/>
<text text-anchor="start" x="798" y="-199.26" font-family="Helvetica,sans-Serif" font-size="10.00">MiraiCP::MiraiCPStringview</text>
<text text-anchor="middle" x="857.5" y="-188.26" font-family="Helvetica,sans-Serif" font-size="10.00">::c_str</text>
</a>
</g>
</g>
<!-- Node5&#45;&gt;Node6 -->
<g id="edge5" class="edge">
<title>Node5&#45;&gt;Node6</title>
<path fill="none" stroke="midnightblue" d="M738.25,-148.35C759.71,-157.05 786.89,-168.06 809.77,-177.33"/>
<polygon fill="midnightblue" stroke="midnightblue" points="808.71,-180.67 819.29,-181.19 811.33,-174.19 808.71,-180.67"/>
</g>
<!-- Node7 -->
<g id="node7" class="node">
<title>Node7</title>
<g id="a_node7"><a xlink:href="a00768.html#aea7d58ff9f04d6d4849c25a2506603a5" target="_top" xlink:title="取env,如果不存在重新获取">
<polygon fill="white" stroke="black" points="1414,-104.76 1414,-123.76 1533,-123.76 1533,-104.76 1414,-104.76"/>
<text text-anchor="middle" x="1473.5" y="-111.76" font-family="Helvetica,sans-Serif" font-size="10.00">JNIEnvManager::getEnv</text>
</a>
</g>
</g>
<!-- Node5&#45;&gt;Node7 -->
<g id="edge6" class="edge">
<title>Node5&#45;&gt;Node7</title>
<path fill="none" stroke="midnightblue" d="M754.25,-138.35C817.8,-143.98 927.3,-152.26 1021.5,-152.26 1021.5,-152.26 1021.5,-152.26 1182.5,-152.26 1264.89,-152.26 1359.34,-137 1417.46,-125.82"/>
<polygon fill="midnightblue" stroke="midnightblue" points="1418.39,-129.2 1427.53,-123.85 1417.05,-122.33 1418.39,-129.2"/>
</g>
<!-- Node10 -->
<g id="node10" class="node">
<title>Node10</title>
<g id="a_node10"><a xlink:href="a00407.html#aa5f8d0ecd9dd392b491070aace643ae3" target="_top" xlink:title=" ">
<polygon fill="white" stroke="black" points="969,-104.76 969,-123.76 1076,-123.76 1076,-104.76 969,-104.76"/>
<text text-anchor="middle" x="1022.5" y="-111.76" font-family="Helvetica,sans-Serif" font-size="10.00">LibLoader::jstring2str</text>
</a>
</g>
</g>
<!-- Node5&#45;&gt;Node10 -->
<g id="edge9" class="edge">
<title>Node5&#45;&gt;Node10</title>
<path fill="none" stroke="midnightblue" d="M754.28,-130.1C810.57,-126.77 899.25,-121.51 958.85,-117.98"/>
<polygon fill="midnightblue" stroke="midnightblue" points="959.11,-121.47 968.89,-117.38 958.7,-114.48 959.11,-121.47"/>
</g>
<!-- Node12 -->
<g id="node12" class="node">
<title>Node12</title>
<g id="a_node12"><a xlink:href="a00407.html#a6a6fcd695791253a9b3a053d313b2b93" target="_top" xlink:title=" ">
<polygon fill="white" stroke="black" points="804,-44.76 804,-63.76 911,-63.76 911,-44.76 804,-44.76"/>
<text text-anchor="middle" x="857.5" y="-51.76" font-family="Helvetica,sans-Serif" font-size="10.00">LibLoader::str2jstring</text>
</a>
</g>
</g>
<!-- Node5&#45;&gt;Node12 -->
<g id="edge12" class="edge">
<title>Node5&#45;&gt;Node12</title>
<path fill="none" stroke="midnightblue" d="M730.61,-118.22C758.83,-103.88 801,-82.46 828.63,-68.42"/>
<polygon fill="midnightblue" stroke="midnightblue" points="830.42,-71.44 837.75,-63.79 827.25,-65.2 830.42,-71.44"/>
</g>
<!-- Node8 -->
<g id="node8" class="node">
<title>Node8</title>
<g id="a_node8"><a xlink:href="a00200.html#a3d31403b7971274d47d308245206bd24" target="_top" xlink:title="为当前线程创建一个env.">
<polygon fill="white" stroke="black" points="1569,-104.76 1569,-123.76 1619,-123.76 1619,-104.76 1569,-104.76"/>
<text text-anchor="middle" x="1594" y="-111.76" font-family="Helvetica,sans-Serif" font-size="10.00">newEnv</text>
</a>
</g>
</g>
<!-- Node7&#45;&gt;Node8 -->
<g id="edge7" class="edge">
<title>Node7&#45;&gt;Node8</title>
<path fill="none" stroke="midnightblue" d="M1533.06,-114.26C1541.89,-114.26 1550.75,-114.26 1558.85,-114.26"/>
<polygon fill="midnightblue" stroke="midnightblue" points="1558.98,-117.76 1568.98,-114.26 1558.98,-110.76 1558.98,-117.76"/>
</g>
<!-- Node9 -->
<g id="node9" class="node">
<title>Node9</title>
<g id="a_node9"><a xlink:href="a00768.html#ae0e482c6a813848a8f5d34957d1b6307" target="_top" xlink:title="获取全局JavaVM对象.">
<polygon fill="white" stroke="black" points="1655,-104.76 1655,-123.76 1777,-123.76 1777,-104.76 1655,-104.76"/>
<text text-anchor="middle" x="1716" y="-111.76" font-family="Helvetica,sans-Serif" font-size="10.00">JNIEnvManager::getGvm</text>
</a>
</g>
</g>
<!-- Node8&#45;&gt;Node9 -->
<g id="edge8" class="edge">
<title>Node8&#45;&gt;Node9</title>
<path fill="none" stroke="midnightblue" d="M1619.28,-114.26C1626.75,-114.26 1635.37,-114.26 1644.32,-114.26"/>
<polygon fill="midnightblue" stroke="midnightblue" points="1644.52,-117.76 1654.52,-114.26 1644.52,-110.76 1644.52,-117.76"/>
</g>
<!-- Node11 -->
<g id="node11" class="node">
<title>Node11</title>
<g id="a_node11"><a xlink:href="a00411.html#a076c5f4ff8083c7cfc6523498d0ba30f" target="_top" xlink:title=" ">
<polygon fill="white" stroke="black" points="1279,-77.26 1279,-107.26 1378,-107.26 1378,-77.26 1279,-77.26"/>
<text text-anchor="start" x="1287" y="-95.26" font-family="Helvetica,sans-Serif" font-size="10.00">LibLoader::JNIEnvs</text>
<text text-anchor="middle" x="1328.5" y="-84.26" font-family="Helvetica,sans-Serif" font-size="10.00">::getEnv</text>
</a>
</g>
</g>
<!-- Node10&#45;&gt;Node11 -->
<g id="edge10" class="edge">
<title>Node10&#45;&gt;Node11</title>
<path fill="none" stroke="midnightblue" d="M1076.11,-110.45C1129.7,-106.58 1212.65,-100.57 1268.46,-96.53"/>
<polygon fill="midnightblue" stroke="midnightblue" points="1268.83,-100.02 1278.55,-95.8 1268.32,-93.03 1268.83,-100.02"/>
</g>
<!-- Node11&#45;&gt;Node7 -->
<g id="edge11" class="edge">
<title>Node11&#45;&gt;Node7</title>
<path fill="none" stroke="midnightblue" d="M1378.31,-99.77C1386.51,-101.03 1395.16,-102.36 1403.75,-103.68"/>
<polygon fill="midnightblue" stroke="midnightblue" points="1403.36,-107.17 1413.78,-105.23 1404.43,-100.25 1403.36,-107.17"/>
</g>
<!-- Node12&#45;&gt;Node11 -->
<g id="edge13" class="edge">
<title>Node12&#45;&gt;Node11</title>
<path fill="none" stroke="midnightblue" d="M911.39,-58.55C999.71,-65.7 1176.59,-80.03 1268.7,-87.5"/>
<polygon fill="midnightblue" stroke="midnightblue" points="1268.44,-90.99 1278.69,-88.31 1269.01,-84.01 1268.44,-90.99"/>
</g>
<!-- Node13 -->
<g id="node13" class="node">
<title>Node13</title>
<g id="a_node13"><a xlink:href="a00800.html#af50d0545fe7d683e54fcd03453a423e3" target="_top" xlink:title=" ">
<polygon fill="white" stroke="black" points="961,-17.26 961,-47.26 1084,-47.26 1084,-17.26 961,-17.26"/>
<text text-anchor="start" x="969" y="-35.26" font-family="Helvetica,sans-Serif" font-size="10.00">LibLoader::LoaderLogger</text>
<text text-anchor="middle" x="1022.5" y="-24.26" font-family="Helvetica,sans-Serif" font-size="10.00">::warning</text>
</a>
</g>
</g>
<!-- Node12&#45;&gt;Node13 -->
<g id="edge14" class="edge">
<title>Node12&#45;&gt;Node13</title>
<path fill="none" stroke="midnightblue" d="M911.42,-47.12C924.01,-45.42 937.65,-43.58 950.89,-41.79"/>
<polygon fill="midnightblue" stroke="midnightblue" points="951.48,-45.24 960.92,-40.44 950.54,-38.31 951.48,-45.24"/>
</g>
<!-- Node14 -->
<g id="node14" class="node">
<title>Node14</title>
<g id="a_node14"><a xlink:href="a00800.html#af4d7d5164450e25f7401d1cc15f15b8d" target="_top" xlink:title="实际暴露的接口">
<polygon fill="white" stroke="black" points="1120,-17.26 1120,-47.26 1243,-47.26 1243,-17.26 1120,-17.26"/>
<text text-anchor="start" x="1128" y="-35.26" font-family="Helvetica,sans-Serif" font-size="10.00">LibLoader::LoaderLogger</text>
<text text-anchor="middle" x="1181.5" y="-24.26" font-family="Helvetica,sans-Serif" font-size="10.00">::call_logger</text>
</a>
</g>
</g>
<!-- Node13&#45;&gt;Node14 -->
<g id="edge15" class="edge">
<title>Node13&#45;&gt;Node14</title>
<path fill="none" stroke="midnightblue" d="M1084.2,-32.26C1092.64,-32.26 1101.36,-32.26 1109.95,-32.26"/>
<polygon fill="midnightblue" stroke="midnightblue" points="1109.96,-35.76 1119.96,-32.26 1109.96,-28.76 1109.96,-35.76"/>
</g>
<!-- Node14&#45;&gt;Node11 -->
<g id="edge16" class="edge">
<title>Node14&#45;&gt;Node11</title>
<path fill="none" stroke="midnightblue" d="M1219.09,-47.4C1238.14,-55.28 1261.61,-65 1281.84,-73.37"/>
<polygon fill="midnightblue" stroke="midnightblue" points="1280.6,-76.64 1291.17,-77.23 1283.27,-70.17 1280.6,-76.64"/>
</g>
<!-- Node14&#45;&gt;Node12 -->
<g id="edge17" class="edge">
<title>Node14&#45;&gt;Node12</title>
<path fill="none" stroke="midnightblue" d="M1132.37,-17.24C1117.07,-13.15 1099.97,-9.3 1084,-7.26 1029.77,-0.35 1014.41,4.4 961,-7.26 932.6,-13.46 902.66,-28.28 882.52,-39.64"/>
<polygon fill="midnightblue" stroke="midnightblue" points="880.64,-36.68 873.74,-44.72 884.15,-42.74 880.64,-36.68"/>
</g>
</g>
</svg>
