<?xml version="1.0" encoding="UTF-8" standalone="no"?>
<!DOCTYPE svg PUBLIC "-//W3C//DTD SVG 1.1//EN"
 "http://www.w3.org/Graphics/SVG/1.1/DTD/svg11.dtd">
<!-- Generated by graphviz version 2.50.0 (20211204.2007)
 -->
<!-- Title: MiraiCP::Group::sendFile Pages: 1 -->
<svg width="1646pt" height="318pt"
 viewBox="0.00 0.00 1646.00 317.76" xmlns="http://www.w3.org/2000/svg" xmlns:xlink="http://www.w3.org/1999/xlink">
<g id="graph0" class="graph" transform="scale(1 1) rotate(0) translate(4 313.76)">
<title>MiraiCP::Group::sendFile</title>
<polygon fill="white" stroke="transparent" points="-4,4 -4,-313.76 1642,-313.76 1642,4 -4,4"/>
<!-- Node1 -->
<g id="node1" class="node">
<title>Node1</title>
<g id="a_node1"><a xlink:title="上传并发送远程(群)文件">
<polygon fill="#bfbfbf" stroke="black" points="0,-123.76 0,-142.76 126,-142.76 126,-123.76 0,-123.76"/>
<text text-anchor="middle" x="63" y="-130.76" font-family="Helvetica,sans-Serif" font-size="10.00">MiraiCP::Group::sendFile</text>
</a>
</g>
</g>
<!-- Node2 -->
<g id="node2" class="node">
<title>Node2</title>
<g id="a_node2"><a xlink:href="a00700.html#a86d0f3d9b2d7ef5aab70d377297528fc" target="_top" xlink:title=" ">
<polygon fill="white" stroke="black" points="166,-189.26 166,-219.26 283,-219.26 283,-189.26 166,-189.26"/>
<text text-anchor="start" x="174" y="-207.26" font-family="Helvetica,sans-Serif" font-size="10.00">MiraiCP::RemoteFile</text>
<text text-anchor="middle" x="224.5" y="-196.26" font-family="Helvetica,sans-Serif" font-size="10.00">::deserializeFromString</text>
</a>
</g>
</g>
<!-- Node1&#45;&gt;Node2 -->
<g id="edge1" class="edge">
<title>Node1&#45;&gt;Node2</title>
<path fill="none" stroke="midnightblue" d="M85.51,-142.84C109.71,-153.61 149.63,-171.38 180.33,-185.04"/>
<polygon fill="midnightblue" stroke="midnightblue" points="178.97,-188.27 189.53,-189.14 181.82,-181.88 178.97,-188.27"/>
</g>
<!-- Node8 -->
<g id="node8" class="node">
<title>Node8</title>
<g id="a_node8"><a xlink:href="a00415.html#a309e8d7f316e8b5e947ea3bcddeb84a8" target="_top" xlink:title="调用 Mirai 操作">
<polygon fill="white" stroke="black" points="170,-118.26 170,-148.26 279,-148.26 279,-118.26 170,-118.26"/>
<text text-anchor="start" x="178" y="-136.26" font-family="Helvetica,sans-Serif" font-size="10.00">MiraiCP::KtOperation</text>
<text text-anchor="middle" x="224.5" y="-125.26" font-family="Helvetica,sans-Serif" font-size="10.00">::ktOperation</text>
</a>
</g>
</g>
<!-- Node1&#45;&gt;Node8 -->
<g id="edge7" class="edge">
<title>Node1&#45;&gt;Node8</title>
<path fill="none" stroke="midnightblue" d="M126.12,-133.26C137.17,-133.26 148.7,-133.26 159.79,-133.26"/>
<polygon fill="midnightblue" stroke="midnightblue" points="159.83,-136.76 169.83,-133.26 159.83,-129.76 159.83,-136.76"/>
</g>
<!-- Node20 -->
<g id="node20" class="node">
<title>Node20</title>
<g id="a_node20"><a xlink:href="a00448.html#a89fb588a12ff2d4de10722788945ea55" target="_top" xlink:title="序列化到json对象">
<polygon fill="white" stroke="black" points="162,-79.76 162,-98.76 287,-98.76 287,-79.76 162,-79.76"/>
<text text-anchor="middle" x="224.5" y="-86.76" font-family="Helvetica,sans-Serif" font-size="10.00">MiraiCP::Contact::toJson</text>
</a>
</g>
</g>
<!-- Node1&#45;&gt;Node20 -->
<g id="edge23" class="edge">
<title>Node1&#45;&gt;Node20</title>
<path fill="none" stroke="midnightblue" d="M98.61,-123.71C122.23,-117.2 153.72,-108.51 179.17,-101.49"/>
<polygon fill="midnightblue" stroke="midnightblue" points="180.25,-104.82 188.96,-98.79 178.39,-98.08 180.25,-104.82"/>
</g>
<!-- Node3 -->
<g id="node3" class="node">
<title>Node3</title>
<g id="a_node3"><a xlink:href="a00612.html#af14d39efa300da183070784bc86d3f23" target="_top" xlink:title="发送错误(error级日志)">
<polygon fill="white" stroke="black" points="323,-255.26 323,-285.26 451,-285.26 451,-255.26 323,-255.26"/>
<text text-anchor="start" x="331" y="-273.26" font-family="Helvetica,sans-Serif" font-size="10.00">MiraiCP::Logger_interface</text>
<text text-anchor="middle" x="387" y="-262.26" font-family="Helvetica,sans-Serif" font-size="10.00">::error</text>
</a>
</g>
</g>
<!-- Node2&#45;&gt;Node3 -->
<g id="edge2" class="edge">
<title>Node2&#45;&gt;Node3</title>
<path fill="none" stroke="midnightblue" d="M261.09,-219.43C279.53,-227.24 302.43,-236.86 323,-245.26 327.85,-247.24 332.91,-249.29 337.97,-251.32"/>
<polygon fill="midnightblue" stroke="midnightblue" points="337.05,-254.72 347.64,-255.18 339.65,-248.22 337.05,-254.72"/>
</g>
<!-- Node6 -->
<g id="node6" class="node">
<title>Node6</title>
<g id="a_node6"><a xlink:href="a00397.html#adb669a26688c68d7e8fba360377c2439" target="_top" xlink:title=" ">
<polygon fill="white" stroke="black" points="325,-216.76 325,-235.76 449,-235.76 449,-216.76 325,-216.76"/>
<text text-anchor="middle" x="387" y="-223.76" font-family="Helvetica,sans-Serif" font-size="10.00">MiraiCP::json_jsonmover</text>
</a>
</g>
</g>
<!-- Node2&#45;&gt;Node6 -->
<g id="edge5" class="edge">
<title>Node2&#45;&gt;Node6</title>
<path fill="none" stroke="midnightblue" d="M283.44,-212.2C293.65,-213.6 304.38,-215.07 314.9,-216.52"/>
<polygon fill="midnightblue" stroke="midnightblue" points="314.51,-219.99 324.89,-217.89 315.46,-213.06 314.51,-219.99"/>
</g>
<!-- Node7 -->
<g id="node7" class="node">
<title>Node7</title>
<g id="a_node7"><a xlink:href="a00700.html#a42e9c8d14e1da508881201dbd46d54e1" target="_top" xlink:title="构造远程(群)文件">
<polygon fill="white" stroke="black" points="333.5,-167.26 333.5,-197.26 440.5,-197.26 440.5,-167.26 333.5,-167.26"/>
<text text-anchor="start" x="341.5" y="-185.26" font-family="Helvetica,sans-Serif" font-size="10.00">MiraiCP::RemoteFile</text>
<text text-anchor="middle" x="387" y="-174.26" font-family="Helvetica,sans-Serif" font-size="10.00">::RemoteFile</text>
</a>
</g>
</g>
<!-- Node2&#45;&gt;Node7 -->
<g id="edge6" class="edge">
<title>Node2&#45;&gt;Node7</title>
<path fill="none" stroke="midnightblue" d="M283.44,-196.32C296.47,-194.53 310.34,-192.63 323.54,-190.82"/>
<polygon fill="midnightblue" stroke="midnightblue" points="324.04,-194.29 333.47,-189.46 323.09,-187.35 324.04,-194.29"/>
</g>
<!-- Node4 -->
<g id="node4" class="node">
<title>Node4</title>
<g id="a_node4"><a xlink:href="a00612.html#a98af60f864a0446e23a7a27a3419d9b8" target="_top" xlink:title=" ">
<polygon fill="white" stroke="black" points="487,-279.26 487,-309.26 615,-309.26 615,-279.26 487,-279.26"/>
<text text-anchor="start" x="495" y="-297.26" font-family="Helvetica,sans-Serif" font-size="10.00">MiraiCP::Logger_interface</text>
<text text-anchor="middle" x="551" y="-286.26" font-family="Helvetica,sans-Serif" font-size="10.00">::constructString</text>
</a>
</g>
</g>
<!-- Node3&#45;&gt;Node4 -->
<g id="edge3" class="edge">
<title>Node3&#45;&gt;Node4</title>
<path fill="none" stroke="midnightblue" d="M451.1,-279.61C459.53,-280.86 468.23,-282.15 476.81,-283.42"/>
<polygon fill="midnightblue" stroke="midnightblue" points="476.4,-286.9 486.81,-284.9 477.43,-279.97 476.4,-286.9"/>
</g>
<!-- Node5 -->
<g id="node5" class="node">
<title>Node5</title>
<g id="a_node5"><a xlink:href="a00612.html#a86ea9d57475a3004be2a32b2c4c76371" target="_top" xlink:title="日志底层实现封装">
<polygon fill="white" stroke="black" points="487,-230.26 487,-260.26 615,-260.26 615,-230.26 487,-230.26"/>
<text text-anchor="start" x="495" y="-248.26" font-family="Helvetica,sans-Serif" font-size="10.00">MiraiCP::Logger_interface</text>
<text text-anchor="middle" x="551" y="-237.26" font-family="Helvetica,sans-Serif" font-size="10.00">::log_interface</text>
</a>
</g>
</g>
<!-- Node3&#45;&gt;Node5 -->
<g id="edge4" class="edge">
<title>Node3&#45;&gt;Node5</title>
<path fill="none" stroke="midnightblue" d="M451.1,-260.52C459.53,-259.22 468.23,-257.88 476.81,-256.56"/>
<polygon fill="midnightblue" stroke="midnightblue" points="477.46,-260 486.81,-255.01 476.39,-253.08 477.46,-260"/>
</g>
<!-- Node9 -->
<g id="node9" class="node">
<title>Node9</title>
<g id="a_node9"><a xlink:href="a00415.html#a1e1e498928eeaa1d7107033ff5fa881a" target="_top" xlink:title="调用 Mirai 操作">
<polygon fill="white" stroke="black" points="332.5,-118.26 332.5,-148.26 441.5,-148.26 441.5,-118.26 332.5,-118.26"/>
<text text-anchor="start" x="340.5" y="-136.26" font-family="Helvetica,sans-Serif" font-size="10.00">MiraiCP::KtOperation</text>
<text text-anchor="middle" x="387" y="-125.26" font-family="Helvetica,sans-Serif" font-size="10.00">::ktOperationStr</text>
</a>
</g>
</g>
<!-- Node8&#45;&gt;Node9 -->
<g id="edge8" class="edge">
<title>Node8&#45;&gt;Node9</title>
<path fill="none" stroke="midnightblue" d="M279.39,-133.26C293.09,-133.26 307.95,-133.26 322.1,-133.26"/>
<polygon fill="midnightblue" stroke="midnightblue" points="322.25,-136.76 332.25,-133.26 322.25,-129.76 322.25,-136.76"/>
</g>
<!-- Node10 -->
<g id="node10" class="node">
<title>Node10</title>
<g id="a_node10"><a xlink:href="a00408.html#a4c6ac4cf4ba5ff0adb7656708bbb67d0" target="_top" xlink:title="interfaces for plugins">
<polygon fill="white" stroke="black" points="497,-118.26 497,-148.26 605,-148.26 605,-118.26 497,-118.26"/>
<text text-anchor="start" x="505" y="-136.26" font-family="Helvetica,sans-Serif" font-size="10.00">LibLoader::LoaderApi</text>
<text text-anchor="middle" x="551" y="-125.26" font-family="Helvetica,sans-Serif" font-size="10.00">::pluginOperation</text>
</a>
</g>
</g>
<!-- Node9&#45;&gt;Node10 -->
<g id="edge9" class="edge">
<title>Node9&#45;&gt;Node10</title>
<path fill="none" stroke="midnightblue" d="M441.94,-133.26C456.3,-133.26 471.94,-133.26 486.75,-133.26"/>
<polygon fill="midnightblue" stroke="midnightblue" points="486.84,-136.76 496.84,-133.26 486.84,-129.76 486.84,-136.76"/>
</g>
<!-- Node11 -->
<g id="node11" class="node">
<title>Node11</title>
<g id="a_node11"><a xlink:href="a00740.html#acc90fdac094544c4ddd9d6fd13baa5da" target="_top" xlink:title=" ">
<polygon fill="white" stroke="black" points="651,-181.26 651,-211.26 786,-211.26 786,-181.26 651,-181.26"/>
<text text-anchor="start" x="659" y="-199.26" font-family="Helvetica,sans-Serif" font-size="10.00">MiraiCP::MiraiCPStringview</text>
<text text-anchor="middle" x="718.5" y="-188.26" font-family="Helvetica,sans-Serif" font-size="10.00">::c_str</text>
</a>
</g>
</g>
<!-- Node10&#45;&gt;Node11 -->
<g id="edge10" class="edge">
<title>Node10&#45;&gt;Node11</title>
<path fill="none" stroke="midnightblue" d="M591.64,-148.35C614.69,-157.12 643.93,-168.25 668.42,-177.58"/>
<polygon fill="midnightblue" stroke="midnightblue" points="667.3,-180.9 677.9,-181.19 669.8,-174.36 667.3,-180.9"/>
</g>
<!-- Node12 -->
<g id="node12" class="node">
<title>Node12</title>
<g id="a_node12"><a xlink:href="a00768.html#aea7d58ff9f04d6d4849c25a2506603a5" target="_top" xlink:title="取env,如果不存在重新获取">
<polygon fill="white" stroke="black" points="1275,-104.76 1275,-123.76 1394,-123.76 1394,-104.76 1275,-104.76"/>
<text text-anchor="middle" x="1334.5" y="-111.76" font-family="Helvetica,sans-Serif" font-size="10.00">JNIEnvManager::getEnv</text>
</a>
</g>
</g>
<!-- Node10&#45;&gt;Node12 -->
<g id="edge11" class="edge">
<title>Node10&#45;&gt;Node12</title>
<path fill="none" stroke="midnightblue" d="M605.18,-138.2C670.44,-143.83 784.51,-152.26 882.5,-152.26 882.5,-152.26 882.5,-152.26 1043.5,-152.26 1125.89,-152.26 1220.34,-137 1278.46,-125.82"/>
<polygon fill="midnightblue" stroke="midnightblue" points="1279.39,-129.2 1288.53,-123.85 1278.05,-122.33 1279.39,-129.2"/>
</g>
<!-- Node15 -->
<g id="node15" class="node">
<title>Node15</title>
<g id="a_node15"><a xlink:href="a00407.html#aa5f8d0ecd9dd392b491070aace643ae3" target="_top" xlink:title=" ">
<polygon fill="white" stroke="black" points="830,-104.76 830,-123.76 937,-123.76 937,-104.76 830,-104.76"/>
<text text-anchor="middle" x="883.5" y="-111.76" font-family="Helvetica,sans-Serif" font-size="10.00">LibLoader::jstring2str</text>
</a>
</g>
</g>
<!-- Node10&#45;&gt;Node15 -->
<g id="edge14" class="edge">
<title>Node10&#45;&gt;Node15</title>
<path fill="none" stroke="midnightblue" d="M605.1,-130.21C663.61,-126.84 757.63,-121.44 819.74,-117.87"/>
<polygon fill="midnightblue" stroke="midnightblue" points="820.02,-121.36 829.8,-117.29 819.62,-114.37 820.02,-121.36"/>
</g>
<!-- Node17 -->
<g id="node17" class="node">
<title>Node17</title>
<g id="a_node17"><a xlink:href="a00407.html#a6a6fcd695791253a9b3a053d313b2b93" target="_top" xlink:title=" ">
<polygon fill="white" stroke="black" points="665,-44.76 665,-63.76 772,-63.76 772,-44.76 665,-44.76"/>
<text text-anchor="middle" x="718.5" y="-51.76" font-family="Helvetica,sans-Serif" font-size="10.00">LibLoader::str2jstring</text>
</a>
</g>
</g>
<!-- Node10&#45;&gt;Node17 -->
<g id="edge17" class="edge">
<title>Node10&#45;&gt;Node17</title>
<path fill="none" stroke="midnightblue" d="M583.52,-118.22C613.68,-103.82 658.82,-82.27 688.22,-68.24"/>
<polygon fill="midnightblue" stroke="midnightblue" points="690.02,-71.26 697.54,-63.79 687.01,-64.94 690.02,-71.26"/>
</g>
<!-- Node13 -->
<g id="node13" class="node">
<title>Node13</title>
<g id="a_node13"><a xlink:href="a00200.html#a3d31403b7971274d47d308245206bd24" target="_top" xlink:title="为当前线程创建一个env.">
<polygon fill="white" stroke="black" points="1430,-104.76 1430,-123.76 1480,-123.76 1480,-104.76 1430,-104.76"/>
<text text-anchor="middle" x="1455" y="-111.76" font-family="Helvetica,sans-Serif" font-size="10.00">newEnv</text>
</a>
</g>
</g>
<!-- Node12&#45;&gt;Node13 -->
<g id="edge12" class="edge">
<title>Node12&#45;&gt;Node13</title>
<path fill="none" stroke="midnightblue" d="M1394.06,-114.26C1402.89,-114.26 1411.75,-114.26 1419.85,-114.26"/>
<polygon fill="midnightblue" stroke="midnightblue" points="1419.98,-117.76 1429.98,-114.26 1419.98,-110.76 1419.98,-117.76"/>
</g>
<!-- Node14 -->
<g id="node14" class="node">
<title>Node14</title>
<g id="a_node14"><a xlink:href="a00768.html#ae0e482c6a813848a8f5d34957d1b6307" target="_top" xlink:title="获取全局JavaVM对象.">
<polygon fill="white" stroke="black" points="1516,-104.76 1516,-123.76 1638,-123.76 1638,-104.76 1516,-104.76"/>
<text text-anchor="middle" x="1577" y="-111.76" font-family="Helvetica,sans-Serif" font-size="10.00">JNIEnvManager::getGvm</text>
</a>
</g>
</g>
<!-- Node13&#45;&gt;Node14 -->
<g id="edge13" class="edge">
<title>Node13&#45;&gt;Node14</title>
<path fill="none" stroke="midnightblue" d="M1480.28,-114.26C1487.75,-114.26 1496.37,-114.26 1505.32,-114.26"/>
<polygon fill="midnightblue" stroke="midnightblue" points="1505.52,-117.76 1515.52,-114.26 1505.52,-110.76 1505.52,-117.76"/>
</g>
<!-- Node16 -->
<g id="node16" class="node">
<title>Node16</title>
<g id="a_node16"><a xlink:href="a00411.html#a076c5f4ff8083c7cfc6523498d0ba30f" target="_top" xlink:title=" ">
<polygon fill="white" stroke="black" points="1140,-77.26 1140,-107.26 1239,-107.26 1239,-77.26 1140,-77.26"/>
<text text-anchor="start" x="1148" y="-95.26" font-family="Helvetica,sans-Serif" font-size="10.00">LibLoader::JNIEnvs</text>
<text text-anchor="middle" x="1189.5" y="-84.26" font-family="Helvetica,sans-Serif" font-size="10.00">::getEnv</text>
</a>
</g>
</g>
<!-- Node15&#45;&gt;Node16 -->
<g id="edge15" class="edge">
<title>Node15&#45;&gt;Node16</title>
<path fill="none" stroke="midnightblue" d="M937.11,-110.45C990.7,-106.58 1073.65,-100.57 1129.46,-96.53"/>
<polygon fill="midnightblue" stroke="midnightblue" points="1129.83,-100.02 1139.55,-95.8 1129.32,-93.03 1129.83,-100.02"/>
</g>
<!-- Node16&#45;&gt;Node12 -->
<g id="edge16" class="edge">
<title>Node16&#45;&gt;Node12</title>
<path fill="none" stroke="midnightblue" d="M1239.31,-99.77C1247.51,-101.03 1256.16,-102.36 1264.75,-103.68"/>
<polygon fill="midnightblue" stroke="midnightblue" points="1264.36,-107.17 1274.78,-105.23 1265.43,-100.25 1264.36,-107.17"/>
</g>
<!-- Node17&#45;&gt;Node16 -->
<g id="edge18" class="edge">
<title>Node17&#45;&gt;Node16</title>
<path fill="none" stroke="midnightblue" d="M772.39,-58.55C860.71,-65.7 1037.59,-80.03 1129.7,-87.5"/>
<polygon fill="midnightblue" stroke="midnightblue" points="1129.44,-90.99 1139.69,-88.31 1130.01,-84.01 1129.44,-90.99"/>
</g>
<!-- Node18 -->
<g id="node18" class="node">
<title>Node18</title>
<g id="a_node18"><a xlink:href="a00800.html#af50d0545fe7d683e54fcd03453a423e3" target="_top" xlink:title=" ">
<polygon fill="white" stroke="black" points="822,-17.26 822,-47.26 945,-47.26 945,-17.26 822,-17.26"/>
<text text-anchor="start" x="830" y="-35.26" font-family="Helvetica,sans-Serif" font-size="10.00">LibLoader::LoaderLogger</text>
<text text-anchor="middle" x="883.5" y="-24.26" font-family="Helvetica,sans-Serif" font-size="10.00">::warning</text>
</a>
</g>
</g>
<!-- Node17&#45;&gt;Node18 -->
<g id="edge19" class="edge">
<title>Node17&#45;&gt;Node18</title>
<path fill="none" stroke="midnightblue" d="M772.42,-47.12C785.01,-45.42 798.65,-43.58 811.89,-41.79"/>
<polygon fill="midnightblue" stroke="midnightblue" points="812.48,-45.24 821.92,-40.44 811.54,-38.31 812.48,-45.24"/>
</g>
<!-- Node19 -->
<g id="node19" class="node">
<title>Node19</title>
<g id="a_node19"><a xlink:href="a00800.html#af4d7d5164450e25f7401d1cc15f15b8d" target="_top" xlink:title="实际暴露的接口">
<polygon fill="white" stroke="black" points="981,-17.26 981,-47.26 1104,-47.26 1104,-17.26 981,-17.26"/>
<text text-anchor="start" x="989" y="-35.26" font-family="Helvetica,sans-Serif" font-size="10.00">LibLoader::LoaderLogger</text>
<text text-anchor="middle" x="1042.5" y="-24.26" font-family="Helvetica,sans-Serif" font-size="10.00">::call_logger</text>
</a>
</g>
</g>
<!-- Node18&#45;&gt;Node19 -->
<g id="edge20" class="edge">
<title>Node18&#45;&gt;Node19</title>
<path fill="none" stroke="midnightblue" d="M945.2,-32.26C953.64,-32.26 962.36,-32.26 970.95,-32.26"/>
<polygon fill="midnightblue" stroke="midnightblue" points="970.96,-35.76 980.96,-32.26 970.96,-28.76 970.96,-35.76"/>
</g>
<!-- Node19&#45;&gt;Node16 -->
<g id="edge21" class="edge">
<title>Node19&#45;&gt;Node16</title>
<path fill="none" stroke="midnightblue" d="M1080.09,-47.4C1099.14,-55.28 1122.61,-65 1142.84,-73.37"/>
<polygon fill="midnightblue" stroke="midnightblue" points="1141.6,-76.64 1152.17,-77.23 1144.27,-70.17 1141.6,-76.64"/>
</g>
<!-- Node19&#45;&gt;Node17 -->
<g id="edge22" class="edge">
<title>Node19&#45;&gt;Node17</title>
<path fill="none" stroke="midnightblue" d="M993.37,-17.24C978.07,-13.15 960.97,-9.3 945,-7.26 890.77,-0.35 875.41,4.4 822,-7.26 793.6,-13.46 763.66,-28.28 743.52,-39.64"/>
<polygon fill="midnightblue" stroke="midnightblue" points="741.64,-36.68 734.74,-44.72 745.15,-42.74 741.64,-36.68"/>
</g>
</g>
</svg>
