<?xml version="1.0" encoding="UTF-8" standalone="no"?>
<!DOCTYPE svg PUBLIC "-//W3C//DTD SVG 1.1//EN"
 "http://www.w3.org/Graphics/SVG/1.1/DTD/svg11.dtd">
<!-- Generated by graphviz version 9.0.0 (0)
 -->
<!-- Title: MiraiCP::MiraiCPExceptionBase::basicRaise Pages: 1 -->
<svg width="316pt" height="90pt"
 viewBox="0.00 0.00 316.00 90.00" xmlns="http://www.w3.org/2000/svg" xmlns:xlink="http://www.w3.org/1999/xlink">
<g id="graph0" class="graph" transform="scale(1 1) rotate(0) translate(4 86)">
<title>MiraiCP::MiraiCPExceptionBase::basicRaise</title>
<!-- Node1 -->
<g id="Node000001" class="node">
<title>Node1</title>
<g id="a_Node000001"><a xlink:title="basicRaise 基本抛出方法，子类重写该方法">
<polygon fill="#999999" stroke="#666666" points="136,-57 0,-57 0,-25 136,-25 136,-57"/>
<text text-anchor="start" x="8" y="-43.5" font-family="Helvetica,sans-Serif" font-size="10.00">MiraiCP::MiraiCPException</text>
<text text-anchor="middle" x="68" y="-31.5" font-family="Helvetica,sans-Serif" font-size="10.00">Base::basicRaise</text>
</a>
</g>
</g>
<!-- Node2 -->
<g id="Node000002" class="node">
<title>Node2</title>
<g id="a_Node000002"><a xlink:href="a00628.html#af14d39efa300da183070784bc86d3f23" target="_top" xlink:title="发送错误(error级日志)">
<polygon fill="white" stroke="#666666" points="304.62,-82 175.38,-82 175.38,-50 304.62,-50 304.62,-82"/>
<text text-anchor="start" x="183.38" y="-68.5" font-family="Helvetica,sans-Serif" font-size="10.00">MiraiCP::Logger_interface</text>
<text text-anchor="middle" x="240" y="-56.5" font-family="Helvetica,sans-Serif" font-size="10.00">::error</text>
</a>
</g>
</g>
<!-- Node1&#45;&gt;Node2 -->
<g id="edge1_Node000001_Node000002" class="edge">
<title>Node1&#45;&gt;Node2</title>
<g id="a_edge1_Node000001_Node000002"><a xlink:title=" ">
<path fill="none" stroke="#63b8ff" d="M136.19,-50.88C145.29,-52.22 154.68,-53.6 163.92,-54.96"/>
<polygon fill="#63b8ff" stroke="#63b8ff" points="163.17,-58.39 173.57,-56.38 164.19,-51.46 163.17,-58.39"/>
</a>
</g>
</g>
<!-- Node3 -->
<g id="Node000003" class="node">
<title>Node3</title>
<g id="a_Node000003"><a xlink:href="a00576.html#aaac831e38c70fa529b8894b825dba04c" target="_top" xlink:title="异常信息">
<polygon fill="white" stroke="#666666" points="308,-32 172,-32 172,0 308,0 308,-32"/>
<text text-anchor="start" x="180" y="-18.5" font-family="Helvetica,sans-Serif" font-size="10.00">MiraiCP::MiraiCPException</text>
<text text-anchor="middle" x="240" y="-6.5" font-family="Helvetica,sans-Serif" font-size="10.00">Base::what</text>
</a>
</g>
</g>
<!-- Node1&#45;&gt;Node3 -->
<g id="edge2_Node000001_Node000003" class="edge">
<title>Node1&#45;&gt;Node3</title>
<g id="a_edge2_Node000001_Node000003"><a xlink:title=" ">
<path fill="none" stroke="#63b8ff" d="M136.19,-31.12C144.14,-29.95 152.3,-28.75 160.39,-27.56"/>
<polygon fill="#63b8ff" stroke="#63b8ff" points="160.86,-31.03 170.25,-26.11 159.84,-24.1 160.86,-31.03"/>
</a>
</g>
</g>
</g>
</svg>
