<?xml version="1.0" encoding="UTF-8" standalone="no"?>
<!DOCTYPE svg PUBLIC "-//W3C//DTD SVG 1.1//EN"
 "http://www.w3.org/Graphics/SVG/1.1/DTD/svg11.dtd">
<!-- Generated by graphviz version 9.0.0 (0)
 -->
<!-- Title: MiraiCP::ForwardedMessageDisplayStrategy::fromJson Pages: 1 -->
<svg width="931pt" height="240pt"
 viewBox="0.00 0.00 931.00 240.00" xmlns="http://www.w3.org/2000/svg" xmlns:xlink="http://www.w3.org/1999/xlink">
<g id="graph0" class="graph" transform="scale(1 1) rotate(0) translate(4 236)">
<title>MiraiCP::ForwardedMessageDisplayStrategy::fromJson</title>
<!-- Node1 -->
<g id="Node000001" class="node">
<title>Node1</title>
<g id="a_Node000001"><a xlink:title=" ">
<polygon fill="#999999" stroke="#666666" points="923,-132 780.25,-132 780.25,-100 923,-100 923,-132"/>
<text text-anchor="start" x="788.25" y="-118.5" font-family="Helvetica,sans-Serif" font-size="10.00">MiraiCP::ForwardedMessage</text>
<text text-anchor="middle" x="851.62" y="-106.5" font-family="Helvetica,sans-Serif" font-size="10.00">DisplayStrategy::fromJson</text>
</a>
</g>
</g>
<!-- Node2 -->
<g id="Node000002" class="node">
<title>Node2</title>
<g id="a_Node000002"><a xlink:href="a00600.html#ac802edcd83cf04abe4cc602c901a933f" target="_top" xlink:title=" ">
<polygon fill="white" stroke="#666666" points="744.25,-132 576.75,-132 576.75,-100 744.25,-100 744.25,-132"/>
<text text-anchor="start" x="584.75" y="-118.5" font-family="Helvetica,sans-Serif" font-size="10.00">MiraiCP::ForwardedMessage</text>
<text text-anchor="middle" x="660.5" y="-106.5" font-family="Helvetica,sans-Serif" font-size="10.00">::deserializationFromMessageJson</text>
</a>
</g>
</g>
<!-- Node1&#45;&gt;Node2 -->
<g id="edge1_Node000001_Node000002" class="edge">
<title>Node1&#45;&gt;Node2</title>
<g id="a_edge1_Node000001_Node000002"><a xlink:title=" ">
<path fill="none" stroke="#63b8ff" d="M768.43,-116C760.51,-116 752.47,-116 744.54,-116"/>
<polygon fill="#63b8ff" stroke="#63b8ff" points="768.42,-119.5 778.42,-116 768.42,-112.5 768.42,-119.5"/>
</a>
</g>
</g>
<!-- Node2&#45;&gt;Node2 -->
<g id="edge2_Node000002_Node000002" class="edge">
<title>Node2&#45;&gt;Node2</title>
<g id="a_edge2_Node000002_Node000002"><a xlink:title=" ">
<path fill="none" stroke="#63b8ff" d="M692.35,-143.71C687.04,-147.48 676.42,-150 660.5,-150 631.38,-150 620.01,-141.58 626.38,-132.44"/>
<polygon fill="#63b8ff" stroke="#63b8ff" points="695.78,-144.42 694.32,-133.93 688.91,-143.04 695.78,-144.42"/>
</a>
</g>
</g>
<!-- Node3 -->
<g id="Node000003" class="node">
<title>Node3</title>
<g id="a_Node000003"><a xlink:href="a00652.html#ad76190cce563a29637e62105e7db52d9" target="_top" xlink:title=" ">
<polygon fill="white" stroke="#666666" points="540.75,-132 373.25,-132 373.25,-100 540.75,-100 540.75,-132"/>
<text text-anchor="start" x="381.25" y="-118.5" font-family="Helvetica,sans-Serif" font-size="10.00">MiraiCP::MessageChain</text>
<text text-anchor="middle" x="457" y="-106.5" font-family="Helvetica,sans-Serif" font-size="10.00">::deserializationFromMessageJson</text>
</a>
</g>
</g>
<!-- Node2&#45;&gt;Node3 -->
<g id="edge3_Node000002_Node000003" class="edge">
<title>Node2&#45;&gt;Node3</title>
<g id="a_edge3_Node000002_Node000003"><a xlink:title=" ">
<path fill="none" stroke="#63b8ff" d="M565.05,-109.26C556.99,-109.23 548.89,-109.26 540.93,-109.34"/>
<polygon fill="#63b8ff" stroke="#63b8ff" points="564.84,-112.76 574.87,-109.33 564.89,-105.76 564.84,-112.76"/>
</a>
</g>
</g>
<!-- Node3&#45;&gt;Node2 -->
<g id="edge4_Node000003_Node000002" class="edge">
<title>Node3&#45;&gt;Node2</title>
<g id="a_edge4_Node000003_Node000002"><a xlink:title=" ">
<path fill="none" stroke="#63b8ff" d="M552.26,-122.74C560.31,-122.77 568.42,-122.74 576.38,-122.66"/>
<polygon fill="#63b8ff" stroke="#63b8ff" points="552.47,-119.24 542.44,-122.67 552.42,-126.24 552.47,-119.24"/>
</a>
</g>
</g>
<!-- Node4 -->
<g id="Node000004" class="node">
<title>Node4</title>
<g id="a_Node000004"><a xlink:href="a00652.html#a682d6d47c049ff53477d495a8ec3a97c" target="_top" xlink:title="从miraicode string构建MessageChain">
<polygon fill="white" stroke="#666666" points="336.12,-232 185.12,-232 185.12,-200 336.12,-200 336.12,-232"/>
<text text-anchor="start" x="193.12" y="-218.5" font-family="Helvetica,sans-Serif" font-size="10.00">MiraiCP::MessageChain</text>
<text text-anchor="middle" x="260.62" y="-206.5" font-family="Helvetica,sans-Serif" font-size="10.00">::deserializationFromMiraiCode</text>
</a>
</g>
</g>
<!-- Node3&#45;&gt;Node4 -->
<g id="edge5_Node000003_Node000004" class="edge">
<title>Node3&#45;&gt;Node4</title>
<g id="a_edge5_Node000003_Node000004"><a xlink:title=" ">
<path fill="none" stroke="#63b8ff" d="M424.4,-138.96C401.15,-155.09 368.31,-176.33 337.25,-191 330.75,-194.07 323.77,-196.93 316.77,-199.53"/>
<polygon fill="#63b8ff" stroke="#63b8ff" points="426.34,-141.88 432.5,-133.26 422.31,-136.15 426.34,-141.88"/>
</a>
</g>
</g>
<!-- Node6 -->
<g id="Node000006" class="node">
<title>Node6</title>
<g id="a_Node000006"><a xlink:href="a00480.html#aca8d122b5ac259f28f372f02cdd38930" target="_top" xlink:title=" ">
<polygon fill="white" stroke="#666666" points="324.5,-182 196.75,-182 196.75,-150 324.5,-150 324.5,-182"/>
<text text-anchor="start" x="204.75" y="-168.5" font-family="Helvetica,sans-Serif" font-size="10.00">MiraiCP::Event::incoming</text>
<text text-anchor="middle" x="260.62" y="-156.5" font-family="Helvetica,sans-Serif" font-size="10.00">Event</text>
</a>
</g>
</g>
<!-- Node3&#45;&gt;Node6 -->
<g id="edge7_Node000003_Node000006" class="edge">
<title>Node3&#45;&gt;Node6</title>
<g id="a_edge7_Node000003_Node000006"><a xlink:title=" ">
<path fill="none" stroke="#63b8ff" d="M381.03,-135.29C362.5,-140.05 342.83,-145.11 324.92,-149.72"/>
<polygon fill="#63b8ff" stroke="#63b8ff" points="381.81,-138.7 390.62,-132.82 380.06,-131.92 381.81,-138.7"/>
</a>
</g>
</g>
<!-- Node7 -->
<g id="Node000007" class="node">
<title>Node7</title>
<g id="a_Node000007"><a xlink:href="a00528.html#addb043788194a8bffd2eeddff17080ef" target="_top" xlink:title="取群聊下一个消息(群聊与本事件一样)">
<polygon fill="white" stroke="#666666" points="335,-132 186.25,-132 186.25,-100 335,-100 335,-132"/>
<text text-anchor="start" x="194.25" y="-118.5" font-family="Helvetica,sans-Serif" font-size="10.00">MiraiCP::GroupMessageEvent</text>
<text text-anchor="middle" x="260.62" y="-106.5" font-family="Helvetica,sans-Serif" font-size="10.00">::nextMessage</text>
</a>
</g>
</g>
<!-- Node3&#45;&gt;Node7 -->
<g id="edge8_Node000003_Node000007" class="edge">
<title>Node3&#45;&gt;Node7</title>
<g id="a_edge8_Node000003_Node000007"><a xlink:title=" ">
<path fill="none" stroke="#63b8ff" d="M361.53,-116C352.76,-116 343.97,-116 335.44,-116"/>
<polygon fill="#63b8ff" stroke="#63b8ff" points="361.49,-119.5 371.49,-116 361.49,-112.5 361.49,-119.5"/>
</a>
</g>
</g>
<!-- Node8 -->
<g id="Node000008" class="node">
<title>Node8</title>
<g id="a_Node000008"><a xlink:href="a00568.html#a2fadddd37811d8dcbf7183d98eba3034" target="_top" xlink:title="取下一个消息(发送人和接收人和本事件一样)">
<polygon fill="white" stroke="#666666" points="337.25,-82 184,-82 184,-50 337.25,-50 337.25,-82"/>
<text text-anchor="start" x="192" y="-68.5" font-family="Helvetica,sans-Serif" font-size="10.00">MiraiCP::PrivateMessageEvent</text>
<text text-anchor="middle" x="260.62" y="-56.5" font-family="Helvetica,sans-Serif" font-size="10.00">::nextMessage</text>
</a>
</g>
</g>
<!-- Node3&#45;&gt;Node8 -->
<g id="edge9_Node000003_Node000008" class="edge">
<title>Node3&#45;&gt;Node8</title>
<g id="a_edge9_Node000003_Node000008"><a xlink:title=" ">
<path fill="none" stroke="#63b8ff" d="M381.14,-96.74C362.81,-92.03 343.35,-87.02 325.58,-82.45"/>
<polygon fill="#63b8ff" stroke="#63b8ff" points="380.06,-100.08 390.62,-99.18 381.81,-93.3 380.06,-100.08"/>
</a>
</g>
</g>
<!-- Node9 -->
<g id="Node000009" class="node">
<title>Node9</title>
<g id="a_Node000009"><a xlink:href="a00528.html#a67d98fb7d7214cb2bc916da47e3e5ce3" target="_top" xlink:title="取群聊中同群成员的下一个消息(发送人和群与本事件一样)">
<polygon fill="white" stroke="#666666" points="335,-32 186.25,-32 186.25,0 335,0 335,-32"/>
<text text-anchor="start" x="194.25" y="-18.5" font-family="Helvetica,sans-Serif" font-size="10.00">MiraiCP::GroupMessageEvent</text>
<text text-anchor="middle" x="260.62" y="-6.5" font-family="Helvetica,sans-Serif" font-size="10.00">::senderNextMessage</text>
</a>
</g>
</g>
<!-- Node3&#45;&gt;Node9 -->
<g id="edge10_Node000003_Node000009" class="edge">
<title>Node3&#45;&gt;Node9</title>
<g id="a_edge10_Node000003_Node000009"><a xlink:title=" ">
<path fill="none" stroke="#63b8ff" d="M424.4,-93.04C401.15,-76.91 368.31,-55.67 337.25,-41 330.75,-37.93 323.77,-35.07 316.77,-32.47"/>
<polygon fill="#63b8ff" stroke="#63b8ff" points="422.31,-95.85 432.5,-98.74 426.34,-90.12 422.31,-95.85"/>
</a>
</g>
</g>
<!-- Node5 -->
<g id="Node000005" class="node">
<title>Node5</title>
<g id="a_Node000005"><a xlink:href="a00460.html#a41f4d0ce7bdaaa02e29f59128053b47b" target="_top" xlink:title=" ">
<polygon fill="white" stroke="#666666" points="148,-226 0,-226 0,-206 148,-206 148,-226"/>
<text text-anchor="middle" x="74" y="-212.5" font-family="Helvetica,sans-Serif" font-size="10.00">MiraiCP::Contact::unpackMsg</text>
</a>
</g>
</g>
<!-- Node4&#45;&gt;Node5 -->
<g id="edge6_Node000004_Node000005" class="edge">
<title>Node4&#45;&gt;Node5</title>
<g id="a_edge6_Node000004_Node000005"><a xlink:title=" ">
<path fill="none" stroke="#63b8ff" d="M173.46,-216C165.09,-216 156.66,-216 148.44,-216"/>
<polygon fill="#63b8ff" stroke="#63b8ff" points="173.28,-219.5 183.28,-216 173.28,-212.5 173.28,-219.5"/>
</a>
</g>
</g>
</g>
</svg>
