<?xml version="1.0" encoding="UTF-8" standalone="no"?>
<!DOCTYPE svg PUBLIC "-//W3C//DTD SVG 1.1//EN"
 "http://www.w3.org/Graphics/SVG/1.1/DTD/svg11.dtd">
<!-- Generated by graphviz version 2.50.0 (20211204.2007)
 -->
<!-- Title: MiraiCP::MiraiCPExceptionBase::basicRaise Pages: 1 -->
<svg width="934pt" height="99pt"
 viewBox="0.00 0.00 934.00 98.50" xmlns="http://www.w3.org/2000/svg" xmlns:xlink="http://www.w3.org/1999/xlink">
<g id="graph0" class="graph" transform="scale(1 1) rotate(0) translate(4 94.5)">
<title>MiraiCP::MiraiCPExceptionBase::basicRaise</title>
<polygon fill="white" stroke="transparent" points="-4,4 -4,-94.5 930,-94.5 930,4 -4,4"/>
<!-- Node1 -->
<g id="node1" class="node">
<title>Node1</title>
<g id="a_node1"><a xlink:title="basicRaise 基本抛出方法，子类重写该方法">
<polygon fill="#bfbfbf" stroke="black" points="791,-24.5 791,-54.5 926,-54.5 926,-24.5 791,-24.5"/>
<text text-anchor="start" x="799" y="-42.5" font-family="Helvetica,sans-Serif" font-size="10.00">MiraiCP::MiraiCPException</text>
<text text-anchor="middle" x="858.5" y="-31.5" font-family="Helvetica,sans-Serif" font-size="10.00">Base::basicRaise</text>
</a>
</g>
</g>
<!-- Node2 -->
<g id="node2" class="node">
<title>Node2</title>
<g id="a_node2"><a xlink:href="a00564.html#a27e4eaeb594e067089585f1975b7eb74" target="_top" xlink:title="实际抛出方法">
<polygon fill="white" stroke="black" points="620,-24.5 620,-54.5 755,-54.5 755,-24.5 620,-24.5"/>
<text text-anchor="start" x="628" y="-42.5" font-family="Helvetica,sans-Serif" font-size="10.00">MiraiCP::MiraiCPException</text>
<text text-anchor="middle" x="687.5" y="-31.5" font-family="Helvetica,sans-Serif" font-size="10.00">Base::raise</text>
</a>
</g>
</g>
<!-- Node1&#45;&gt;Node2 -->
<g id="edge1" class="edge">
<title>Node1&#45;&gt;Node2</title>
<path fill="none" stroke="midnightblue" d="M780.45,-39.5C771.98,-39.5 763.41,-39.5 755.08,-39.5"/>
<polygon fill="midnightblue" stroke="midnightblue" points="780.71,-43 790.71,-39.5 780.71,-36 780.71,-43"/>
</g>
<!-- Node3 -->
<g id="node3" class="node">
<title>Node3</title>
<g id="a_node3"><a xlink:href="a00392.html#ada5aac13445cc76c802c817d248d8da8" target="_top" xlink:title="插件开启入口">
<polygon fill="white" stroke="black" points="463.5,-53 463.5,-72 564.5,-72 564.5,-53 463.5,-53"/>
<text text-anchor="middle" x="514" y="-60" font-family="Helvetica,sans-Serif" font-size="10.00">FUNC_ENTRANCE</text>
</a>
</g>
</g>
<!-- Node2&#45;&gt;Node3 -->
<g id="edge2" class="edge">
<title>Node2&#45;&gt;Node3</title>
<path fill="none" stroke="midnightblue" d="M609.72,-49.8C594.41,-51.85 578.72,-53.95 564.62,-55.85"/>
<polygon fill="midnightblue" stroke="midnightblue" points="610.26,-53.26 619.7,-48.46 609.33,-46.32 610.26,-53.26"/>
</g>
<!-- Node7 -->
<g id="node7" class="node">
<title>Node7</title>
<g id="a_node7"><a xlink:href="a00652.html#a0fc8daf263296676e2714fd681c401d2" target="_top" xlink:title=" ">
<polygon fill="white" stroke="black" points="444,-2.5 444,-32.5 584,-32.5 584,-2.5 444,-2.5"/>
<text text-anchor="start" x="452" y="-20.5" font-family="Helvetica,sans-Serif" font-size="10.00">MiraiCP::MiraiCPNewThread</text>
<text text-anchor="middle" x="514" y="-9.5" font-family="Helvetica,sans-Serif" font-size="10.00">::threadExceptionBroadcast</text>
</a>
</g>
</g>
<!-- Node2&#45;&gt;Node7 -->
<g id="edge7" class="edge">
<title>Node2&#45;&gt;Node7</title>
<path fill="none" stroke="midnightblue" d="M609.77,-29.66C601.24,-28.56 592.59,-27.45 584.16,-26.37"/>
<polygon fill="midnightblue" stroke="midnightblue" points="609.34,-33.13 619.7,-30.93 610.23,-26.19 609.34,-33.13"/>
</g>
<!-- Node3&#45;&gt;Node3 -->
<g id="edge3" class="edge">
<title>Node3&#45;&gt;Node3</title>
<path fill="none" stroke="midnightblue" d="M546.19,-80.77C545.27,-86.24 534.54,-90.5 514,-90.5 483.43,-90.5 474.59,-81.07 487.49,-72.26"/>
<polygon fill="midnightblue" stroke="midnightblue" points="548.97,-78.64 540.51,-72.26 543.14,-82.52 548.97,-78.64"/>
</g>
<!-- Node4 -->
<g id="node4" class="node">
<title>Node4</title>
<g id="a_node4"><a xlink:href="a00824.html#a331c05a9c7aeaee822c53df717efb60d" target="_top" xlink:title=" ">
<polygon fill="white" stroke="black" points="283,-49.5 283,-79.5 393,-79.5 393,-49.5 283,-49.5"/>
<text text-anchor="start" x="291" y="-67.5" font-family="Helvetica,sans-Serif" font-size="10.00">LibLoader::Plugin::</text>
<text text-anchor="middle" x="338" y="-56.5" font-family="Helvetica,sans-Serif" font-size="10.00">testSymbolExistance</text>
</a>
</g>
</g>
<!-- Node3&#45;&gt;Node4 -->
<g id="edge4" class="edge">
<title>Node3&#45;&gt;Node4</title>
<path fill="none" stroke="midnightblue" d="M452.89,-63.19C433.48,-63.41 412.09,-63.66 393.13,-63.88"/>
<polygon fill="midnightblue" stroke="midnightblue" points="453.18,-66.69 463.14,-63.07 453.1,-59.69 453.18,-66.69"/>
</g>
<!-- Node5 -->
<g id="node5" class="node">
<title>Node5</title>
<g id="a_node5"><a xlink:href="a00824.html#a8636d0418d741a19bbd9183316cd5c59" target="_top" xlink:title=" ">
<polygon fill="white" stroke="black" points="134,-49.5 134,-79.5 232,-79.5 232,-49.5 134,-49.5"/>
<text text-anchor="start" x="142" y="-67.5" font-family="Helvetica,sans-Serif" font-size="10.00">LibLoader::Plugin::</text>
<text text-anchor="middle" x="183" y="-56.5" font-family="Helvetica,sans-Serif" font-size="10.00">loadInternal</text>
</a>
</g>
</g>
<!-- Node4&#45;&gt;Node5 -->
<g id="edge5" class="edge">
<title>Node4&#45;&gt;Node5</title>
<path fill="none" stroke="midnightblue" d="M272.42,-64.5C258.91,-64.5 244.88,-64.5 232.1,-64.5"/>
<polygon fill="midnightblue" stroke="midnightblue" points="272.63,-68 282.63,-64.5 272.63,-61 272.63,-68"/>
</g>
<!-- Node6 -->
<g id="node6" class="node">
<title>Node6</title>
<g id="a_node6"><a xlink:href="a00824.html#a891ce42f23fe1312ef6cad2accf4ab92" target="_top" xlink:title=" ">
<polygon fill="white" stroke="black" points="0,-49.5 0,-79.5 98,-79.5 98,-49.5 0,-49.5"/>
<text text-anchor="start" x="8" y="-67.5" font-family="Helvetica,sans-Serif" font-size="10.00">LibLoader::Plugin::</text>
<text text-anchor="middle" x="49" y="-56.5" font-family="Helvetica,sans-Serif" font-size="10.00">loadPlugin</text>
</a>
</g>
</g>
<!-- Node5&#45;&gt;Node6 -->
<g id="edge6" class="edge">
<title>Node5&#45;&gt;Node6</title>
<path fill="none" stroke="midnightblue" d="M123.71,-64.5C115.19,-64.5 106.5,-64.5 98.21,-64.5"/>
<polygon fill="midnightblue" stroke="midnightblue" points="123.97,-68 133.97,-64.5 123.97,-61 123.97,-68"/>
</g>
<!-- Node8 -->
<g id="node8" class="node">
<title>Node8</title>
<g id="a_node8"><a xlink:href="a00652.html#ae04a775fb43599b61f29e831f98bfee0" target="_top" xlink:title=" ">
<polygon fill="white" stroke="black" points="268,-0.5 268,-30.5 408,-30.5 408,-0.5 268,-0.5"/>
<text text-anchor="start" x="276" y="-18.5" font-family="Helvetica,sans-Serif" font-size="10.00">MiraiCP::MiraiCPNewThread</text>
<text text-anchor="middle" x="338" y="-7.5" font-family="Helvetica,sans-Serif" font-size="10.00">::MiraiCPNewThread</text>
</a>
</g>
</g>
<!-- Node7&#45;&gt;Node8 -->
<g id="edge8" class="edge">
<title>Node7&#45;&gt;Node8</title>
<path fill="none" stroke="midnightblue" d="M433.97,-16.59C425.38,-16.49 416.68,-16.39 408.22,-16.3"/>
<polygon fill="midnightblue" stroke="midnightblue" points="433.94,-20.09 443.98,-16.71 434.02,-13.09 433.94,-20.09"/>
</g>
</g>
</svg>
