<?xml version="1.0" encoding="UTF-8" standalone="no"?>
<!DOCTYPE svg PUBLIC "-//W3C//DTD SVG 1.1//EN"
 "http://www.w3.org/Graphics/SVG/1.1/DTD/svg11.dtd">
<!-- Generated by graphviz version 2.50.0 (20211204.2007)
 -->
<!-- Title: MiraiCP::NewFriendRequestEvent::reject Pages: 1 -->
<svg width="1815pt" height="255pt"
 viewBox="0.00 0.00 1815.00 254.76" xmlns="http://www.w3.org/2000/svg" xmlns:xlink="http://www.w3.org/1999/xlink">
<g id="graph0" class="graph" transform="scale(1 1) rotate(0) translate(4 250.76)">
<title>MiraiCP::NewFriendRequestEvent::reject</title>
<polygon fill="white" stroke="transparent" points="-4,4 -4,-250.76 1811,-250.76 1811,4 -4,4"/>
<!-- Node1 -->
<g id="node1" class="node">
<title>Node1</title>
<g id="a_node1"><a xlink:title="拒绝好友申请">
<polygon fill="#bfbfbf" stroke="black" points="0,-164.26 0,-194.26 139,-194.26 139,-164.26 0,-164.26"/>
<text text-anchor="start" x="8" y="-182.26" font-family="Helvetica,sans-Serif" font-size="10.00">MiraiCP::NewFriendRequest</text>
<text text-anchor="middle" x="69.5" y="-171.26" font-family="Helvetica,sans-Serif" font-size="10.00">Event::reject</text>
</a>
</g>
</g>
<!-- Node2 -->
<g id="node2" class="node">
<title>Node2</title>
<g id="a_node2"><a xlink:href="a00448.html#a1f208ae0f09c367c90c2e079e63048db" target="_top" xlink:title="id 在全部情况存在">
<polygon fill="white" stroke="black" points="191.5,-191.76 191.5,-210.76 295.5,-210.76 295.5,-191.76 191.5,-191.76"/>
<text text-anchor="middle" x="243.5" y="-198.76" font-family="Helvetica,sans-Serif" font-size="10.00">MiraiCP::Contact::id</text>
</a>
</g>
</g>
<!-- Node1&#45;&gt;Node2 -->
<g id="edge1" class="edge">
<title>Node1&#45;&gt;Node2</title>
<path fill="none" stroke="midnightblue" d="M139.47,-188.08C153.25,-189.85 167.63,-191.69 181.13,-193.41"/>
<polygon fill="midnightblue" stroke="midnightblue" points="180.9,-196.91 191.26,-194.71 181.78,-189.97 180.9,-196.91"/>
</g>
<!-- Node3 -->
<g id="node3" class="node">
<title>Node3</title>
<g id="a_node3"><a xlink:href="a00397.html#a94480131f138aabc9aba228b9d17023f" target="_top" xlink:title=" ">
<polygon fill="white" stroke="black" points="175,-142.26 175,-172.26 312,-172.26 312,-142.26 175,-142.26"/>
<text text-anchor="start" x="183" y="-160.26" font-family="Helvetica,sans-Serif" font-size="10.00">MiraiCP::newFriendRequest</text>
<text text-anchor="middle" x="243.5" y="-149.26" font-family="Helvetica,sans-Serif" font-size="10.00">Internal</text>
</a>
</g>
</g>
<!-- Node1&#45;&gt;Node3 -->
<g id="edge2" class="edge">
<title>Node1&#45;&gt;Node3</title>
<path fill="none" stroke="midnightblue" d="M139.47,-170.44C147.77,-169.38 156.3,-168.29 164.72,-167.21"/>
<polygon fill="midnightblue" stroke="midnightblue" points="165.44,-170.65 174.92,-165.91 164.55,-163.7 165.44,-170.65"/>
</g>
<!-- Node4 -->
<g id="node4" class="node">
<title>Node4</title>
<g id="a_node4"><a xlink:href="a00612.html#af14d39efa300da183070784bc86d3f23" target="_top" xlink:title="发送错误(error级日志)">
<polygon fill="white" stroke="black" points="348,-167.26 348,-197.26 476,-197.26 476,-167.26 348,-167.26"/>
<text text-anchor="start" x="356" y="-185.26" font-family="Helvetica,sans-Serif" font-size="10.00">MiraiCP::Logger_interface</text>
<text text-anchor="middle" x="412" y="-174.26" font-family="Helvetica,sans-Serif" font-size="10.00">::error</text>
</a>
</g>
</g>
<!-- Node3&#45;&gt;Node4 -->
<g id="edge3" class="edge">
<title>Node3&#45;&gt;Node4</title>
<path fill="none" stroke="midnightblue" d="M312.22,-167.43C320.7,-168.7 329.4,-170.01 337.95,-171.29"/>
<polygon fill="midnightblue" stroke="midnightblue" points="337.5,-174.76 347.91,-172.79 338.54,-167.84 337.5,-174.76"/>
</g>
<!-- Node7 -->
<g id="node7" class="node">
<title>Node7</title>
<g id="a_node7"><a xlink:href="a00415.html#a309e8d7f316e8b5e947ea3bcddeb84a8" target="_top" xlink:title="调用 Mirai 操作">
<polygon fill="white" stroke="black" points="357.5,-118.26 357.5,-148.26 466.5,-148.26 466.5,-118.26 357.5,-118.26"/>
<text text-anchor="start" x="365.5" y="-136.26" font-family="Helvetica,sans-Serif" font-size="10.00">MiraiCP::KtOperation</text>
<text text-anchor="middle" x="412" y="-125.26" font-family="Helvetica,sans-Serif" font-size="10.00">::ktOperation</text>
</a>
</g>
</g>
<!-- Node3&#45;&gt;Node7 -->
<g id="edge6" class="edge">
<title>Node3&#45;&gt;Node7</title>
<path fill="none" stroke="midnightblue" d="M312.22,-147.5C323.85,-145.82 335.9,-144.09 347.41,-142.43"/>
<polygon fill="midnightblue" stroke="midnightblue" points="347.97,-145.88 357.37,-140.99 346.98,-138.95 347.97,-145.88"/>
</g>
<!-- Node5 -->
<g id="node5" class="node">
<title>Node5</title>
<g id="a_node5"><a xlink:href="a00612.html#a98af60f864a0446e23a7a27a3419d9b8" target="_top" xlink:title=" ">
<polygon fill="white" stroke="black" points="512,-216.26 512,-246.26 640,-246.26 640,-216.26 512,-216.26"/>
<text text-anchor="start" x="520" y="-234.26" font-family="Helvetica,sans-Serif" font-size="10.00">MiraiCP::Logger_interface</text>
<text text-anchor="middle" x="576" y="-223.26" font-family="Helvetica,sans-Serif" font-size="10.00">::constructString</text>
</a>
</g>
</g>
<!-- Node4&#45;&gt;Node5 -->
<g id="edge4" class="edge">
<title>Node4&#45;&gt;Node5</title>
<path fill="none" stroke="midnightblue" d="M462.93,-197.36C479.48,-202.37 498.07,-207.99 515.29,-213.2"/>
<polygon fill="midnightblue" stroke="midnightblue" points="514.65,-216.66 525.24,-216.21 516.68,-209.96 514.65,-216.66"/>
</g>
<!-- Node6 -->
<g id="node6" class="node">
<title>Node6</title>
<g id="a_node6"><a xlink:href="a00612.html#a86ea9d57475a3004be2a32b2c4c76371" target="_top" xlink:title="日志底层实现封装">
<polygon fill="white" stroke="black" points="512,-167.26 512,-197.26 640,-197.26 640,-167.26 512,-167.26"/>
<text text-anchor="start" x="520" y="-185.26" font-family="Helvetica,sans-Serif" font-size="10.00">MiraiCP::Logger_interface</text>
<text text-anchor="middle" x="576" y="-174.26" font-family="Helvetica,sans-Serif" font-size="10.00">::log_interface</text>
</a>
</g>
</g>
<!-- Node4&#45;&gt;Node6 -->
<g id="edge5" class="edge">
<title>Node4&#45;&gt;Node6</title>
<path fill="none" stroke="midnightblue" d="M476.1,-182.26C484.43,-182.26 493.04,-182.26 501.53,-182.26"/>
<polygon fill="midnightblue" stroke="midnightblue" points="501.81,-185.76 511.81,-182.26 501.81,-178.76 501.81,-185.76"/>
</g>
<!-- Node8 -->
<g id="node8" class="node">
<title>Node8</title>
<g id="a_node8"><a xlink:href="a00415.html#a1e1e498928eeaa1d7107033ff5fa881a" target="_top" xlink:title="调用 Mirai 操作">
<polygon fill="white" stroke="black" points="521.5,-118.26 521.5,-148.26 630.5,-148.26 630.5,-118.26 521.5,-118.26"/>
<text text-anchor="start" x="529.5" y="-136.26" font-family="Helvetica,sans-Serif" font-size="10.00">MiraiCP::KtOperation</text>
<text text-anchor="middle" x="576" y="-125.26" font-family="Helvetica,sans-Serif" font-size="10.00">::ktOperationStr</text>
</a>
</g>
</g>
<!-- Node7&#45;&gt;Node8 -->
<g id="edge7" class="edge">
<title>Node7&#45;&gt;Node8</title>
<path fill="none" stroke="midnightblue" d="M466.94,-133.26C481.15,-133.26 496.62,-133.26 511.29,-133.26"/>
<polygon fill="midnightblue" stroke="midnightblue" points="511.29,-136.76 521.29,-133.26 511.29,-129.76 511.29,-136.76"/>
</g>
<!-- Node9 -->
<g id="node9" class="node">
<title>Node9</title>
<g id="a_node9"><a xlink:href="a00408.html#a4c6ac4cf4ba5ff0adb7656708bbb67d0" target="_top" xlink:title="interfaces for plugins">
<polygon fill="white" stroke="black" points="676,-118.26 676,-148.26 784,-148.26 784,-118.26 676,-118.26"/>
<text text-anchor="start" x="684" y="-136.26" font-family="Helvetica,sans-Serif" font-size="10.00">LibLoader::LoaderApi</text>
<text text-anchor="middle" x="730" y="-125.26" font-family="Helvetica,sans-Serif" font-size="10.00">::pluginOperation</text>
</a>
</g>
</g>
<!-- Node8&#45;&gt;Node9 -->
<g id="edge8" class="edge">
<title>Node8&#45;&gt;Node9</title>
<path fill="none" stroke="midnightblue" d="M630.59,-133.26C641.96,-133.26 654.07,-133.26 665.76,-133.26"/>
<polygon fill="midnightblue" stroke="midnightblue" points="665.89,-136.76 675.89,-133.26 665.89,-129.76 665.89,-136.76"/>
</g>
<!-- Node10 -->
<g id="node10" class="node">
<title>Node10</title>
<g id="a_node10"><a xlink:href="a00740.html#acc90fdac094544c4ddd9d6fd13baa5da" target="_top" xlink:title=" ">
<polygon fill="white" stroke="black" points="820,-181.26 820,-211.26 955,-211.26 955,-181.26 820,-181.26"/>
<text text-anchor="start" x="828" y="-199.26" font-family="Helvetica,sans-Serif" font-size="10.00">MiraiCP::MiraiCPStringview</text>
<text text-anchor="middle" x="887.5" y="-188.26" font-family="Helvetica,sans-Serif" font-size="10.00">::c_str</text>
</a>
</g>
</g>
<!-- Node9&#45;&gt;Node10 -->
<g id="edge9" class="edge">
<title>Node9&#45;&gt;Node10</title>
<path fill="none" stroke="midnightblue" d="M768.25,-148.35C789.71,-157.05 816.89,-168.06 839.77,-177.33"/>
<polygon fill="midnightblue" stroke="midnightblue" points="838.71,-180.67 849.29,-181.19 841.33,-174.19 838.71,-180.67"/>
</g>
<!-- Node11 -->
<g id="node11" class="node">
<title>Node11</title>
<g id="a_node11"><a xlink:href="a00768.html#aea7d58ff9f04d6d4849c25a2506603a5" target="_top" xlink:title="取env,如果不存在重新获取">
<polygon fill="white" stroke="black" points="1444,-104.76 1444,-123.76 1563,-123.76 1563,-104.76 1444,-104.76"/>
<text text-anchor="middle" x="1503.5" y="-111.76" font-family="Helvetica,sans-Serif" font-size="10.00">JNIEnvManager::getEnv</text>
</a>
</g>
</g>
<!-- Node9&#45;&gt;Node11 -->
<g id="edge10" class="edge">
<title>Node9&#45;&gt;Node11</title>
<path fill="none" stroke="midnightblue" d="M784.25,-138.35C847.8,-143.98 957.3,-152.26 1051.5,-152.26 1051.5,-152.26 1051.5,-152.26 1212.5,-152.26 1294.89,-152.26 1389.34,-137 1447.46,-125.82"/>
<polygon fill="midnightblue" stroke="midnightblue" points="1448.39,-129.2 1457.53,-123.85 1447.05,-122.33 1448.39,-129.2"/>
</g>
<!-- Node14 -->
<g id="node14" class="node">
<title>Node14</title>
<g id="a_node14"><a xlink:href="a00407.html#aa5f8d0ecd9dd392b491070aace643ae3" target="_top" xlink:title=" ">
<polygon fill="white" stroke="black" points="999,-104.76 999,-123.76 1106,-123.76 1106,-104.76 999,-104.76"/>
<text text-anchor="middle" x="1052.5" y="-111.76" font-family="Helvetica,sans-Serif" font-size="10.00">LibLoader::jstring2str</text>
</a>
</g>
</g>
<!-- Node9&#45;&gt;Node14 -->
<g id="edge13" class="edge">
<title>Node9&#45;&gt;Node14</title>
<path fill="none" stroke="midnightblue" d="M784.28,-130.1C840.57,-126.77 929.25,-121.51 988.85,-117.98"/>
<polygon fill="midnightblue" stroke="midnightblue" points="989.11,-121.47 998.89,-117.38 988.7,-114.48 989.11,-121.47"/>
</g>
<!-- Node16 -->
<g id="node16" class="node">
<title>Node16</title>
<g id="a_node16"><a xlink:href="a00407.html#a6a6fcd695791253a9b3a053d313b2b93" target="_top" xlink:title=" ">
<polygon fill="white" stroke="black" points="834,-44.76 834,-63.76 941,-63.76 941,-44.76 834,-44.76"/>
<text text-anchor="middle" x="887.5" y="-51.76" font-family="Helvetica,sans-Serif" font-size="10.00">LibLoader::str2jstring</text>
</a>
</g>
</g>
<!-- Node9&#45;&gt;Node16 -->
<g id="edge16" class="edge">
<title>Node9&#45;&gt;Node16</title>
<path fill="none" stroke="midnightblue" d="M760.61,-118.22C788.83,-103.88 831,-82.46 858.63,-68.42"/>
<polygon fill="midnightblue" stroke="midnightblue" points="860.42,-71.44 867.75,-63.79 857.25,-65.2 860.42,-71.44"/>
</g>
<!-- Node12 -->
<g id="node12" class="node">
<title>Node12</title>
<g id="a_node12"><a xlink:href="a00200.html#a3d31403b7971274d47d308245206bd24" target="_top" xlink:title="为当前线程创建一个env.">
<polygon fill="white" stroke="black" points="1599,-104.76 1599,-123.76 1649,-123.76 1649,-104.76 1599,-104.76"/>
<text text-anchor="middle" x="1624" y="-111.76" font-family="Helvetica,sans-Serif" font-size="10.00">newEnv</text>
</a>
</g>
</g>
<!-- Node11&#45;&gt;Node12 -->
<g id="edge11" class="edge">
<title>Node11&#45;&gt;Node12</title>
<path fill="none" stroke="midnightblue" d="M1563.06,-114.26C1571.89,-114.26 1580.75,-114.26 1588.85,-114.26"/>
<polygon fill="midnightblue" stroke="midnightblue" points="1588.98,-117.76 1598.98,-114.26 1588.98,-110.76 1588.98,-117.76"/>
</g>
<!-- Node13 -->
<g id="node13" class="node">
<title>Node13</title>
<g id="a_node13"><a xlink:href="a00768.html#ae0e482c6a813848a8f5d34957d1b6307" target="_top" xlink:title="获取全局JavaVM对象.">
<polygon fill="white" stroke="black" points="1685,-104.76 1685,-123.76 1807,-123.76 1807,-104.76 1685,-104.76"/>
<text text-anchor="middle" x="1746" y="-111.76" font-family="Helvetica,sans-Serif" font-size="10.00">JNIEnvManager::getGvm</text>
</a>
</g>
</g>
<!-- Node12&#45;&gt;Node13 -->
<g id="edge12" class="edge">
<title>Node12&#45;&gt;Node13</title>
<path fill="none" stroke="midnightblue" d="M1649.28,-114.26C1656.75,-114.26 1665.37,-114.26 1674.32,-114.26"/>
<polygon fill="midnightblue" stroke="midnightblue" points="1674.52,-117.76 1684.52,-114.26 1674.52,-110.76 1674.52,-117.76"/>
</g>
<!-- Node15 -->
<g id="node15" class="node">
<title>Node15</title>
<g id="a_node15"><a xlink:href="a00411.html#a076c5f4ff8083c7cfc6523498d0ba30f" target="_top" xlink:title=" ">
<polygon fill="white" stroke="black" points="1309,-77.26 1309,-107.26 1408,-107.26 1408,-77.26 1309,-77.26"/>
<text text-anchor="start" x="1317" y="-95.26" font-family="Helvetica,sans-Serif" font-size="10.00">LibLoader::JNIEnvs</text>
<text text-anchor="middle" x="1358.5" y="-84.26" font-family="Helvetica,sans-Serif" font-size="10.00">::getEnv</text>
</a>
</g>
</g>
<!-- Node14&#45;&gt;Node15 -->
<g id="edge14" class="edge">
<title>Node14&#45;&gt;Node15</title>
<path fill="none" stroke="midnightblue" d="M1106.11,-110.45C1159.7,-106.58 1242.65,-100.57 1298.46,-96.53"/>
<polygon fill="midnightblue" stroke="midnightblue" points="1298.83,-100.02 1308.55,-95.8 1298.32,-93.03 1298.83,-100.02"/>
</g>
<!-- Node15&#45;&gt;Node11 -->
<g id="edge15" class="edge">
<title>Node15&#45;&gt;Node11</title>
<path fill="none" stroke="midnightblue" d="M1408.31,-99.77C1416.51,-101.03 1425.16,-102.36 1433.75,-103.68"/>
<polygon fill="midnightblue" stroke="midnightblue" points="1433.36,-107.17 1443.78,-105.23 1434.43,-100.25 1433.36,-107.17"/>
</g>
<!-- Node16&#45;&gt;Node15 -->
<g id="edge17" class="edge">
<title>Node16&#45;&gt;Node15</title>
<path fill="none" stroke="midnightblue" d="M941.39,-58.55C1029.71,-65.7 1206.59,-80.03 1298.7,-87.5"/>
<polygon fill="midnightblue" stroke="midnightblue" points="1298.44,-90.99 1308.69,-88.31 1299.01,-84.01 1298.44,-90.99"/>
</g>
<!-- Node17 -->
<g id="node17" class="node">
<title>Node17</title>
<g id="a_node17"><a xlink:href="a00800.html#af50d0545fe7d683e54fcd03453a423e3" target="_top" xlink:title=" ">
<polygon fill="white" stroke="black" points="991,-17.26 991,-47.26 1114,-47.26 1114,-17.26 991,-17.26"/>
<text text-anchor="start" x="999" y="-35.26" font-family="Helvetica,sans-Serif" font-size="10.00">LibLoader::LoaderLogger</text>
<text text-anchor="middle" x="1052.5" y="-24.26" font-family="Helvetica,sans-Serif" font-size="10.00">::warning</text>
</a>
</g>
</g>
<!-- Node16&#45;&gt;Node17 -->
<g id="edge18" class="edge">
<title>Node16&#45;&gt;Node17</title>
<path fill="none" stroke="midnightblue" d="M941.42,-47.12C954.01,-45.42 967.65,-43.58 980.89,-41.79"/>
<polygon fill="midnightblue" stroke="midnightblue" points="981.48,-45.24 990.92,-40.44 980.54,-38.31 981.48,-45.24"/>
</g>
<!-- Node18 -->
<g id="node18" class="node">
<title>Node18</title>
<g id="a_node18"><a xlink:href="a00800.html#af4d7d5164450e25f7401d1cc15f15b8d" target="_top" xlink:title="实际暴露的接口">
<polygon fill="white" stroke="black" points="1150,-17.26 1150,-47.26 1273,-47.26 1273,-17.26 1150,-17.26"/>
<text text-anchor="start" x="1158" y="-35.26" font-family="Helvetica,sans-Serif" font-size="10.00">LibLoader::LoaderLogger</text>
<text text-anchor="middle" x="1211.5" y="-24.26" font-family="Helvetica,sans-Serif" font-size="10.00">::call_logger</text>
</a>
</g>
</g>
<!-- Node17&#45;&gt;Node18 -->
<g id="edge19" class="edge">
<title>Node17&#45;&gt;Node18</title>
<path fill="none" stroke="midnightblue" d="M1114.2,-32.26C1122.64,-32.26 1131.36,-32.26 1139.95,-32.26"/>
<polygon fill="midnightblue" stroke="midnightblue" points="1139.96,-35.76 1149.96,-32.26 1139.96,-28.76 1139.96,-35.76"/>
</g>
<!-- Node18&#45;&gt;Node15 -->
<g id="edge20" class="edge">
<title>Node18&#45;&gt;Node15</title>
<path fill="none" stroke="midnightblue" d="M1249.09,-47.4C1268.14,-55.28 1291.61,-65 1311.84,-73.37"/>
<polygon fill="midnightblue" stroke="midnightblue" points="1310.6,-76.64 1321.17,-77.23 1313.27,-70.17 1310.6,-76.64"/>
</g>
<!-- Node18&#45;&gt;Node16 -->
<g id="edge21" class="edge">
<title>Node18&#45;&gt;Node16</title>
<path fill="none" stroke="midnightblue" d="M1162.37,-17.24C1147.07,-13.15 1129.97,-9.3 1114,-7.26 1059.77,-0.35 1044.41,4.4 991,-7.26 962.6,-13.46 932.66,-28.28 912.52,-39.64"/>
<polygon fill="midnightblue" stroke="midnightblue" points="910.64,-36.68 903.74,-44.72 914.15,-42.74 910.64,-36.68"/>
</g>
</g>
</svg>
