<?xml version="1.0" encoding="UTF-8" standalone="no"?>
<!DOCTYPE svg PUBLIC "-//W3C//DTD SVG 1.1//EN"
 "http://www.w3.org/Graphics/SVG/1.1/DTD/svg11.dtd">
<!-- Generated by graphviz version 2.50.0 (20211204.2007)
 -->
<!-- Title: MiraiCP::Group::getOwner Pages: 1 -->
<svg width="1612pt" height="220pt"
 viewBox="0.00 0.00 1612.00 219.76" xmlns="http://www.w3.org/2000/svg" xmlns:xlink="http://www.w3.org/1999/xlink">
<g id="graph0" class="graph" transform="scale(1 1) rotate(0) translate(4 215.76)">
<title>MiraiCP::Group::getOwner</title>
<polygon fill="white" stroke="transparent" points="-4,4 -4,-215.76 1608,-215.76 1608,4 -4,4"/>
<!-- Node1 -->
<g id="node1" class="node">
<title>Node1</title>
<g id="a_node1"><a xlink:title="取群主">
<polygon fill="#bfbfbf" stroke="black" points="0,-123.76 0,-142.76 131,-142.76 131,-123.76 0,-123.76"/>
<text text-anchor="middle" x="65.5" y="-130.76" font-family="Helvetica,sans-Serif" font-size="10.00">MiraiCP::Group::getOwner</text>
</a>
</g>
</g>
<!-- Node2 -->
<g id="node2" class="node">
<title>Node2</title>
<g id="a_node2"><a xlink:href="a00448.html#ac257ebdd1591ea5acf6e045abf28ecba" target="_top" xlink:title=" ">
<polygon fill="white" stroke="black" points="170.5,-167.76 170.5,-186.76 288.5,-186.76 288.5,-167.76 170.5,-167.76"/>
<text text-anchor="middle" x="229.5" y="-174.76" font-family="Helvetica,sans-Serif" font-size="10.00">MiraiCP::Contact::botid</text>
</a>
</g>
</g>
<!-- Node1&#45;&gt;Node2 -->
<g id="edge1" class="edge">
<title>Node1&#45;&gt;Node2</title>
<path fill="none" stroke="midnightblue" d="M101.65,-142.81C125.64,-149.32 157.63,-158.01 183.48,-165.03"/>
<polygon fill="midnightblue" stroke="midnightblue" points="182.85,-168.49 193.42,-167.73 184.68,-161.73 182.85,-168.49"/>
</g>
<!-- Node3 -->
<g id="node3" class="node">
<title>Node3</title>
<g id="a_node3"><a xlink:href="a00415.html#a309e8d7f316e8b5e947ea3bcddeb84a8" target="_top" xlink:title="调用 Mirai 操作">
<polygon fill="white" stroke="black" points="175,-118.26 175,-148.26 284,-148.26 284,-118.26 175,-118.26"/>
<text text-anchor="start" x="183" y="-136.26" font-family="Helvetica,sans-Serif" font-size="10.00">MiraiCP::KtOperation</text>
<text text-anchor="middle" x="229.5" y="-125.26" font-family="Helvetica,sans-Serif" font-size="10.00">::ktOperation</text>
</a>
</g>
</g>
<!-- Node1&#45;&gt;Node3 -->
<g id="edge2" class="edge">
<title>Node1&#45;&gt;Node3</title>
<path fill="none" stroke="midnightblue" d="M131.46,-133.26C142.4,-133.26 153.74,-133.26 164.66,-133.26"/>
<polygon fill="midnightblue" stroke="midnightblue" points="164.96,-136.76 174.96,-133.26 164.96,-129.76 164.96,-136.76"/>
</g>
<!-- Node15 -->
<g id="node15" class="node">
<title>Node15</title>
<g id="a_node15"><a xlink:href="a00448.html#a89fb588a12ff2d4de10722788945ea55" target="_top" xlink:title="序列化到json对象">
<polygon fill="white" stroke="black" points="167,-79.76 167,-98.76 292,-98.76 292,-79.76 167,-79.76"/>
<text text-anchor="middle" x="229.5" y="-86.76" font-family="Helvetica,sans-Serif" font-size="10.00">MiraiCP::Contact::toJson</text>
</a>
</g>
</g>
<!-- Node1&#45;&gt;Node15 -->
<g id="edge18" class="edge">
<title>Node1&#45;&gt;Node15</title>
<path fill="none" stroke="midnightblue" d="M101.65,-123.71C125.64,-117.2 157.63,-108.51 183.48,-101.49"/>
<polygon fill="midnightblue" stroke="midnightblue" points="184.68,-104.79 193.42,-98.79 182.85,-98.03 184.68,-104.79"/>
</g>
<!-- Node4 -->
<g id="node4" class="node">
<title>Node4</title>
<g id="a_node4"><a xlink:href="a00415.html#a1e1e498928eeaa1d7107033ff5fa881a" target="_top" xlink:title="调用 Mirai 操作">
<polygon fill="white" stroke="black" points="328,-118.26 328,-148.26 437,-148.26 437,-118.26 328,-118.26"/>
<text text-anchor="start" x="336" y="-136.26" font-family="Helvetica,sans-Serif" font-size="10.00">MiraiCP::KtOperation</text>
<text text-anchor="middle" x="382.5" y="-125.26" font-family="Helvetica,sans-Serif" font-size="10.00">::ktOperationStr</text>
</a>
</g>
</g>
<!-- Node3&#45;&gt;Node4 -->
<g id="edge3" class="edge">
<title>Node3&#45;&gt;Node4</title>
<path fill="none" stroke="midnightblue" d="M284.16,-133.26C295,-133.26 306.5,-133.26 317.64,-133.26"/>
<polygon fill="midnightblue" stroke="midnightblue" points="317.76,-136.76 327.76,-133.26 317.76,-129.76 317.76,-136.76"/>
</g>
<!-- Node5 -->
<g id="node5" class="node">
<title>Node5</title>
<g id="a_node5"><a xlink:href="a00408.html#a4c6ac4cf4ba5ff0adb7656708bbb67d0" target="_top" xlink:title="interfaces for plugins">
<polygon fill="white" stroke="black" points="473,-118.26 473,-148.26 581,-148.26 581,-118.26 473,-118.26"/>
<text text-anchor="start" x="481" y="-136.26" font-family="Helvetica,sans-Serif" font-size="10.00">LibLoader::LoaderApi</text>
<text text-anchor="middle" x="527" y="-125.26" font-family="Helvetica,sans-Serif" font-size="10.00">::pluginOperation</text>
</a>
</g>
</g>
<!-- Node4&#45;&gt;Node5 -->
<g id="edge4" class="edge">
<title>Node4&#45;&gt;Node5</title>
<path fill="none" stroke="midnightblue" d="M437.37,-133.26C445.67,-133.26 454.29,-133.26 462.77,-133.26"/>
<polygon fill="midnightblue" stroke="midnightblue" points="463,-136.76 473,-133.26 463,-129.76 463,-136.76"/>
</g>
<!-- Node6 -->
<g id="node6" class="node">
<title>Node6</title>
<g id="a_node6"><a xlink:href="a00740.html#acc90fdac094544c4ddd9d6fd13baa5da" target="_top" xlink:title=" ">
<polygon fill="white" stroke="black" points="617,-181.26 617,-211.26 752,-211.26 752,-181.26 617,-181.26"/>
<text text-anchor="start" x="625" y="-199.26" font-family="Helvetica,sans-Serif" font-size="10.00">MiraiCP::MiraiCPStringview</text>
<text text-anchor="middle" x="684.5" y="-188.26" font-family="Helvetica,sans-Serif" font-size="10.00">::c_str</text>
</a>
</g>
</g>
<!-- Node5&#45;&gt;Node6 -->
<g id="edge5" class="edge">
<title>Node5&#45;&gt;Node6</title>
<path fill="none" stroke="midnightblue" d="M565.25,-148.35C586.71,-157.05 613.89,-168.06 636.77,-177.33"/>
<polygon fill="midnightblue" stroke="midnightblue" points="635.71,-180.67 646.29,-181.19 638.33,-174.19 635.71,-180.67"/>
</g>
<!-- Node7 -->
<g id="node7" class="node">
<title>Node7</title>
<g id="a_node7"><a xlink:href="a00768.html#aea7d58ff9f04d6d4849c25a2506603a5" target="_top" xlink:title="取env,如果不存在重新获取">
<polygon fill="white" stroke="black" points="1241,-104.76 1241,-123.76 1360,-123.76 1360,-104.76 1241,-104.76"/>
<text text-anchor="middle" x="1300.5" y="-111.76" font-family="Helvetica,sans-Serif" font-size="10.00">JNIEnvManager::getEnv</text>
</a>
</g>
</g>
<!-- Node5&#45;&gt;Node7 -->
<g id="edge6" class="edge">
<title>Node5&#45;&gt;Node7</title>
<path fill="none" stroke="midnightblue" d="M581.25,-138.35C644.8,-143.98 754.3,-152.26 848.5,-152.26 848.5,-152.26 848.5,-152.26 1009.5,-152.26 1091.89,-152.26 1186.34,-137 1244.46,-125.82"/>
<polygon fill="midnightblue" stroke="midnightblue" points="1245.39,-129.2 1254.53,-123.85 1244.05,-122.33 1245.39,-129.2"/>
</g>
<!-- Node10 -->
<g id="node10" class="node">
<title>Node10</title>
<g id="a_node10"><a xlink:href="a00407.html#aa5f8d0ecd9dd392b491070aace643ae3" target="_top" xlink:title=" ">
<polygon fill="white" stroke="black" points="796,-104.76 796,-123.76 903,-123.76 903,-104.76 796,-104.76"/>
<text text-anchor="middle" x="849.5" y="-111.76" font-family="Helvetica,sans-Serif" font-size="10.00">LibLoader::jstring2str</text>
</a>
</g>
</g>
<!-- Node5&#45;&gt;Node10 -->
<g id="edge9" class="edge">
<title>Node5&#45;&gt;Node10</title>
<path fill="none" stroke="midnightblue" d="M581.28,-130.1C637.57,-126.77 726.25,-121.51 785.85,-117.98"/>
<polygon fill="midnightblue" stroke="midnightblue" points="786.11,-121.47 795.89,-117.38 785.7,-114.48 786.11,-121.47"/>
</g>
<!-- Node12 -->
<g id="node12" class="node">
<title>Node12</title>
<g id="a_node12"><a xlink:href="a00407.html#a6a6fcd695791253a9b3a053d313b2b93" target="_top" xlink:title=" ">
<polygon fill="white" stroke="black" points="631,-44.76 631,-63.76 738,-63.76 738,-44.76 631,-44.76"/>
<text text-anchor="middle" x="684.5" y="-51.76" font-family="Helvetica,sans-Serif" font-size="10.00">LibLoader::str2jstring</text>
</a>
</g>
</g>
<!-- Node5&#45;&gt;Node12 -->
<g id="edge12" class="edge">
<title>Node5&#45;&gt;Node12</title>
<path fill="none" stroke="midnightblue" d="M557.61,-118.22C585.83,-103.88 628,-82.46 655.63,-68.42"/>
<polygon fill="midnightblue" stroke="midnightblue" points="657.42,-71.44 664.75,-63.79 654.25,-65.2 657.42,-71.44"/>
</g>
<!-- Node8 -->
<g id="node8" class="node">
<title>Node8</title>
<g id="a_node8"><a xlink:href="a00200.html#a3d31403b7971274d47d308245206bd24" target="_top" xlink:title="为当前线程创建一个env.">
<polygon fill="white" stroke="black" points="1396,-104.76 1396,-123.76 1446,-123.76 1446,-104.76 1396,-104.76"/>
<text text-anchor="middle" x="1421" y="-111.76" font-family="Helvetica,sans-Serif" font-size="10.00">newEnv</text>
</a>
</g>
</g>
<!-- Node7&#45;&gt;Node8 -->
<g id="edge7" class="edge">
<title>Node7&#45;&gt;Node8</title>
<path fill="none" stroke="midnightblue" d="M1360.06,-114.26C1368.89,-114.26 1377.75,-114.26 1385.85,-114.26"/>
<polygon fill="midnightblue" stroke="midnightblue" points="1385.98,-117.76 1395.98,-114.26 1385.98,-110.76 1385.98,-117.76"/>
</g>
<!-- Node9 -->
<g id="node9" class="node">
<title>Node9</title>
<g id="a_node9"><a xlink:href="a00768.html#ae0e482c6a813848a8f5d34957d1b6307" target="_top" xlink:title="获取全局JavaVM对象.">
<polygon fill="white" stroke="black" points="1482,-104.76 1482,-123.76 1604,-123.76 1604,-104.76 1482,-104.76"/>
<text text-anchor="middle" x="1543" y="-111.76" font-family="Helvetica,sans-Serif" font-size="10.00">JNIEnvManager::getGvm</text>
</a>
</g>
</g>
<!-- Node8&#45;&gt;Node9 -->
<g id="edge8" class="edge">
<title>Node8&#45;&gt;Node9</title>
<path fill="none" stroke="midnightblue" d="M1446.28,-114.26C1453.75,-114.26 1462.37,-114.26 1471.32,-114.26"/>
<polygon fill="midnightblue" stroke="midnightblue" points="1471.52,-117.76 1481.52,-114.26 1471.52,-110.76 1471.52,-117.76"/>
</g>
<!-- Node11 -->
<g id="node11" class="node">
<title>Node11</title>
<g id="a_node11"><a xlink:href="a00411.html#a076c5f4ff8083c7cfc6523498d0ba30f" target="_top" xlink:title=" ">
<polygon fill="white" stroke="black" points="1106,-77.26 1106,-107.26 1205,-107.26 1205,-77.26 1106,-77.26"/>
<text text-anchor="start" x="1114" y="-95.26" font-family="Helvetica,sans-Serif" font-size="10.00">LibLoader::JNIEnvs</text>
<text text-anchor="middle" x="1155.5" y="-84.26" font-family="Helvetica,sans-Serif" font-size="10.00">::getEnv</text>
</a>
</g>
</g>
<!-- Node10&#45;&gt;Node11 -->
<g id="edge10" class="edge">
<title>Node10&#45;&gt;Node11</title>
<path fill="none" stroke="midnightblue" d="M903.11,-110.45C956.7,-106.58 1039.65,-100.57 1095.46,-96.53"/>
<polygon fill="midnightblue" stroke="midnightblue" points="1095.83,-100.02 1105.55,-95.8 1095.32,-93.03 1095.83,-100.02"/>
</g>
<!-- Node11&#45;&gt;Node7 -->
<g id="edge11" class="edge">
<title>Node11&#45;&gt;Node7</title>
<path fill="none" stroke="midnightblue" d="M1205.31,-99.77C1213.51,-101.03 1222.16,-102.36 1230.75,-103.68"/>
<polygon fill="midnightblue" stroke="midnightblue" points="1230.36,-107.17 1240.78,-105.23 1231.43,-100.25 1230.36,-107.17"/>
</g>
<!-- Node12&#45;&gt;Node11 -->
<g id="edge13" class="edge">
<title>Node12&#45;&gt;Node11</title>
<path fill="none" stroke="midnightblue" d="M738.39,-58.55C826.71,-65.7 1003.59,-80.03 1095.7,-87.5"/>
<polygon fill="midnightblue" stroke="midnightblue" points="1095.44,-90.99 1105.69,-88.31 1096.01,-84.01 1095.44,-90.99"/>
</g>
<!-- Node13 -->
<g id="node13" class="node">
<title>Node13</title>
<g id="a_node13"><a xlink:href="a00800.html#af50d0545fe7d683e54fcd03453a423e3" target="_top" xlink:title=" ">
<polygon fill="white" stroke="black" points="788,-17.26 788,-47.26 911,-47.26 911,-17.26 788,-17.26"/>
<text text-anchor="start" x="796" y="-35.26" font-family="Helvetica,sans-Serif" font-size="10.00">LibLoader::LoaderLogger</text>
<text text-anchor="middle" x="849.5" y="-24.26" font-family="Helvetica,sans-Serif" font-size="10.00">::warning</text>
</a>
</g>
</g>
<!-- Node12&#45;&gt;Node13 -->
<g id="edge14" class="edge">
<title>Node12&#45;&gt;Node13</title>
<path fill="none" stroke="midnightblue" d="M738.42,-47.12C751.01,-45.42 764.65,-43.58 777.89,-41.79"/>
<polygon fill="midnightblue" stroke="midnightblue" points="778.48,-45.24 787.92,-40.44 777.54,-38.31 778.48,-45.24"/>
</g>
<!-- Node14 -->
<g id="node14" class="node">
<title>Node14</title>
<g id="a_node14"><a xlink:href="a00800.html#af4d7d5164450e25f7401d1cc15f15b8d" target="_top" xlink:title="实际暴露的接口">
<polygon fill="white" stroke="black" points="947,-17.26 947,-47.26 1070,-47.26 1070,-17.26 947,-17.26"/>
<text text-anchor="start" x="955" y="-35.26" font-family="Helvetica,sans-Serif" font-size="10.00">LibLoader::LoaderLogger</text>
<text text-anchor="middle" x="1008.5" y="-24.26" font-family="Helvetica,sans-Serif" font-size="10.00">::call_logger</text>
</a>
</g>
</g>
<!-- Node13&#45;&gt;Node14 -->
<g id="edge15" class="edge">
<title>Node13&#45;&gt;Node14</title>
<path fill="none" stroke="midnightblue" d="M911.2,-32.26C919.64,-32.26 928.36,-32.26 936.95,-32.26"/>
<polygon fill="midnightblue" stroke="midnightblue" points="936.96,-35.76 946.96,-32.26 936.96,-28.76 936.96,-35.76"/>
</g>
<!-- Node14&#45;&gt;Node11 -->
<g id="edge16" class="edge">
<title>Node14&#45;&gt;Node11</title>
<path fill="none" stroke="midnightblue" d="M1046.09,-47.4C1065.14,-55.28 1088.61,-65 1108.84,-73.37"/>
<polygon fill="midnightblue" stroke="midnightblue" points="1107.6,-76.64 1118.17,-77.23 1110.27,-70.17 1107.6,-76.64"/>
</g>
<!-- Node14&#45;&gt;Node12 -->
<g id="edge17" class="edge">
<title>Node14&#45;&gt;Node12</title>
<path fill="none" stroke="midnightblue" d="M959.37,-17.24C944.07,-13.15 926.97,-9.3 911,-7.26 856.77,-0.35 841.41,4.4 788,-7.26 759.6,-13.46 729.66,-28.28 709.52,-39.64"/>
<polygon fill="midnightblue" stroke="midnightblue" points="707.64,-36.68 700.74,-44.72 711.15,-42.74 707.64,-36.68"/>
</g>
</g>
</svg>
