<?xml version="1.0" encoding="UTF-8" standalone="no"?>
<!DOCTYPE svg PUBLIC "-//W3C//DTD SVG 1.1//EN"
 "http://www.w3.org/Graphics/SVG/1.1/DTD/svg11.dtd">
<!-- Generated by graphviz version 2.50.0 (20211204.2007)
 -->
<!-- Title: MiraiCP::GroupMessageEvent::nextMessage Pages: 1 -->
<svg width="1788pt" height="442pt"
 viewBox="0.00 0.00 1788.00 441.50" xmlns="http://www.w3.org/2000/svg" xmlns:xlink="http://www.w3.org/1999/xlink">
<g id="graph0" class="graph" transform="scale(1 1) rotate(0) translate(4 437.5)">
<title>MiraiCP::GroupMessageEvent::nextMessage</title>
<polygon fill="white" stroke="transparent" points="-4,4 -4,-437.5 1784,-437.5 1784,4 -4,4"/>
<!-- Node1 -->
<g id="node1" class="node">
<title>Node1</title>
<g id="a_node1"><a xlink:title="取群聊下一个消息(群聊与本事件一样)">
<polygon fill="#bfbfbf" stroke="black" points="0,-110 0,-140 147,-140 147,-110 0,-110"/>
<text text-anchor="start" x="8" y="-128" font-family="Helvetica,sans-Serif" font-size="10.00">MiraiCP::GroupMessageEvent</text>
<text text-anchor="middle" x="73.5" y="-117" font-family="Helvetica,sans-Serif" font-size="10.00">::nextMessage</text>
</a>
</g>
</g>
<!-- Node2 -->
<g id="node2" class="node">
<title>Node2</title>
<g id="a_node2"><a xlink:href="a00636.html#ad76190cce563a29637e62105e7db52d9" target="_top" xlink:title=" ">
<polygon fill="white" stroke="black" points="183,-261 183,-291 350,-291 350,-261 183,-261"/>
<text text-anchor="start" x="191" y="-279" font-family="Helvetica,sans-Serif" font-size="10.00">MiraiCP::MessageChain</text>
<text text-anchor="middle" x="266.5" y="-268" font-family="Helvetica,sans-Serif" font-size="10.00">::deserializationFromMessageJson</text>
</a>
</g>
</g>
<!-- Node1&#45;&gt;Node2 -->
<g id="edge1" class="edge">
<title>Node1&#45;&gt;Node2</title>
<path fill="none" stroke="midnightblue" d="M93.51,-140.03C127.6,-166.98 199.22,-223.6 238.43,-254.6"/>
<polygon fill="midnightblue" stroke="midnightblue" points="236.27,-257.35 246.28,-260.81 240.61,-251.86 236.27,-257.35"/>
</g>
<!-- Node8 -->
<g id="node8" class="node">
<title>Node8</title>
<g id="a_node8"><a xlink:href="a00640.html#a1f98db6bbdf6b7d178bf92f55fd2e4dc" target="_top" xlink:title="从json字符串反序列化到MessageSource对象">
<polygon fill="white" stroke="black" points="405.5,-170 405.5,-200 533.5,-200 533.5,-170 405.5,-170"/>
<text text-anchor="start" x="413.5" y="-188" font-family="Helvetica,sans-Serif" font-size="10.00">MiraiCP::MessageSource</text>
<text text-anchor="middle" x="469.5" y="-177" font-family="Helvetica,sans-Serif" font-size="10.00">::deserializeFromString</text>
</a>
</g>
</g>
<!-- Node1&#45;&gt;Node8 -->
<g id="edge19" class="edge">
<title>Node1&#45;&gt;Node8</title>
<path fill="none" stroke="midnightblue" d="M106.97,-140.16C128.14,-149.31 156.63,-160.27 183,-166 253.98,-181.42 337.02,-185.42 395.18,-186.02"/>
<polygon fill="midnightblue" stroke="midnightblue" points="395.36,-189.52 405.38,-186.09 395.41,-182.52 395.36,-189.52"/>
</g>
<!-- Node16 -->
<g id="node16" class="node">
<title>Node16</title>
<g id="a_node16"><a xlink:href="a00397.html#a4208a634d81d0263c1079debe2ab58fa" target="_top" xlink:title=" ">
<polygon fill="white" stroke="black" points="201.5,-137.5 201.5,-156.5 331.5,-156.5 331.5,-137.5 201.5,-137.5"/>
<text text-anchor="middle" x="266.5" y="-144.5" font-family="Helvetica,sans-Serif" font-size="10.00">MiraiCP::json_stringmover</text>
</a>
</g>
</g>
<!-- Node1&#45;&gt;Node16 -->
<g id="edge20" class="edge">
<title>Node1&#45;&gt;Node16</title>
<path fill="none" stroke="midnightblue" d="M147.25,-133.38C161.59,-135.03 176.65,-136.77 191.05,-138.42"/>
<polygon fill="midnightblue" stroke="midnightblue" points="191.05,-141.95 201.39,-139.62 191.85,-134.99 191.05,-141.95"/>
</g>
<!-- Node17 -->
<g id="node17" class="node">
<title>Node17</title>
<g id="a_node17"><a xlink:href="a00415.html#a309e8d7f316e8b5e947ea3bcddeb84a8" target="_top" xlink:title="调用 Mirai 操作">
<polygon fill="white" stroke="black" points="212,-88 212,-118 321,-118 321,-88 212,-88"/>
<text text-anchor="start" x="220" y="-106" font-family="Helvetica,sans-Serif" font-size="10.00">MiraiCP::KtOperation</text>
<text text-anchor="middle" x="266.5" y="-95" font-family="Helvetica,sans-Serif" font-size="10.00">::ktOperation</text>
</a>
</g>
</g>
<!-- Node1&#45;&gt;Node17 -->
<g id="edge21" class="edge">
<title>Node1&#45;&gt;Node17</title>
<path fill="none" stroke="midnightblue" d="M147.25,-116.62C165.23,-114.55 184.35,-112.35 201.86,-110.33"/>
<polygon fill="midnightblue" stroke="midnightblue" points="202.42,-113.79 211.96,-109.17 201.62,-106.83 202.42,-113.79"/>
</g>
<!-- Node29 -->
<g id="node29" class="node">
<title>Node29</title>
<g id="a_node29"><a xlink:href="a00636.html#ad8ac546bb8db0964113fd85cbbb10dd3" target="_top" xlink:title=" ">
<polygon fill="white" stroke="black" points="205.5,-39 205.5,-69 327.5,-69 327.5,-39 205.5,-39"/>
<text text-anchor="start" x="213.5" y="-57" font-family="Helvetica,sans-Serif" font-size="10.00">MiraiCP::MessageChain</text>
<text text-anchor="middle" x="266.5" y="-46" font-family="Helvetica,sans-Serif" font-size="10.00">::plus</text>
</a>
</g>
</g>
<!-- Node1&#45;&gt;Node29 -->
<g id="edge37" class="edge">
<title>Node1&#45;&gt;Node29</title>
<path fill="none" stroke="midnightblue" d="M106.36,-109.94C127.76,-100.14 156.74,-87.47 183,-78 188.57,-75.99 194.4,-74.03 200.28,-72.14"/>
<polygon fill="midnightblue" stroke="midnightblue" points="201.66,-75.38 210.16,-69.06 199.57,-68.7 201.66,-75.38"/>
</g>
<!-- Node30 -->
<g id="node30" class="node">
<title>Node30</title>
<g id="a_node30"><a xlink:href="a00448.html#a89fb588a12ff2d4de10722788945ea55" target="_top" xlink:title="序列化到json对象">
<polygon fill="white" stroke="black" points="204,-0.5 204,-19.5 329,-19.5 329,-0.5 204,-0.5"/>
<text text-anchor="middle" x="266.5" y="-7.5" font-family="Helvetica,sans-Serif" font-size="10.00">MiraiCP::Contact::toJson</text>
</a>
</g>
</g>
<!-- Node1&#45;&gt;Node30 -->
<g id="edge38" class="edge">
<title>Node1&#45;&gt;Node30</title>
<path fill="none" stroke="midnightblue" d="M87.18,-109.76C105.87,-88.33 142.97,-49.6 183,-29 187.62,-26.62 192.53,-24.54 197.58,-22.71"/>
<polygon fill="midnightblue" stroke="midnightblue" points="198.97,-25.94 207.39,-19.51 196.8,-19.29 198.97,-25.94"/>
</g>
<!-- Node3 -->
<g id="node3" class="node">
<title>Node3</title>
<g id="a_node3"><a xlink:href="a00636.html#a784cfbcfd8efea6f6c5a2a3b9131bb1f" target="_top" xlink:title="使用emplace_back构造Message添加元素">
<polygon fill="white" stroke="black" points="398,-377.5 398,-396.5 541,-396.5 541,-377.5 398,-377.5"/>
<text text-anchor="middle" x="469.5" y="-384.5" font-family="Helvetica,sans-Serif" font-size="10.00">MiraiCP::MessageChain::add</text>
</a>
</g>
</g>
<!-- Node2&#45;&gt;Node3 -->
<g id="edge2" class="edge">
<title>Node2&#45;&gt;Node3</title>
<path fill="none" stroke="midnightblue" d="M282.49,-291.23C303.65,-311.82 344.36,-348.23 386,-368 391.06,-370.4 396.45,-372.51 401.94,-374.36"/>
<polygon fill="midnightblue" stroke="midnightblue" points="401.33,-377.83 411.92,-377.42 403.38,-371.14 401.33,-377.83"/>
</g>
<!-- Node4 -->
<g id="node4" class="node">
<title>Node4</title>
<g id="a_node4"><a xlink:href="a00584.html#ac802edcd83cf04abe4cc602c901a933f" target="_top" xlink:title=" ">
<polygon fill="white" stroke="black" points="386,-310 386,-340 553,-340 553,-310 386,-310"/>
<text text-anchor="start" x="394" y="-328" font-family="Helvetica,sans-Serif" font-size="10.00">MiraiCP::ForwardedMessage</text>
<text text-anchor="middle" x="469.5" y="-317" font-family="Helvetica,sans-Serif" font-size="10.00">::deserializationFromMessageJson</text>
</a>
</g>
</g>
<!-- Node2&#45;&gt;Node4 -->
<g id="edge3" class="edge">
<title>Node2&#45;&gt;Node4</title>
<path fill="none" stroke="midnightblue" d="M350.12,-289.49C373.67,-294.97 398.56,-301.29 419.41,-307.14"/>
<polygon fill="midnightblue" stroke="midnightblue" points="418.73,-310.58 429.3,-309.96 420.65,-303.85 418.73,-310.58"/>
</g>
<!-- Node2&#45;&gt;Node8 -->
<g id="edge9" class="edge">
<title>Node2&#45;&gt;Node8</title>
<path fill="none" stroke="midnightblue" d="M296.92,-260.84C320.72,-248.76 355.23,-231.66 386,-218 396.8,-213.21 408.51,-208.33 419.64,-203.85"/>
<polygon fill="midnightblue" stroke="midnightblue" points="421.23,-206.98 429.22,-200.02 418.64,-200.48 421.23,-206.98"/>
</g>
<!-- Node12 -->
<g id="node12" class="node">
<title>Node12</title>
<g id="a_node12"><a xlink:href="a00660.html#a7412c91a4b45c7f1d77cf904af64b6d7" target="_top" xlink:title="找对应类型的index key">
<polygon fill="white" stroke="black" points="407.5,-261 407.5,-291 531.5,-291 531.5,-261 407.5,-261"/>
<text text-anchor="start" x="415.5" y="-279" font-family="Helvetica,sans-Serif" font-size="10.00">MiraiCP::SingleMessage</text>
<text text-anchor="middle" x="469.5" y="-268" font-family="Helvetica,sans-Serif" font-size="10.00">::getKey</text>
</a>
</g>
</g>
<!-- Node2&#45;&gt;Node12 -->
<g id="edge13" class="edge">
<title>Node2&#45;&gt;Node12</title>
<path fill="none" stroke="midnightblue" d="M350.12,-276C365.7,-276 381.86,-276 397.05,-276"/>
<polygon fill="midnightblue" stroke="midnightblue" points="397.4,-279.5 407.4,-276 397.4,-272.5 397.4,-279.5"/>
</g>
<!-- Node15 -->
<g id="node15" class="node">
<title>Node15</title>
<g id="a_node15"><a xlink:href="a00612.html#a279a66d53b8b825f4a9ebc8fe30f20d6" target="_top" xlink:title="发送警告(warning级日志)">
<polygon fill="white" stroke="black" points="603.5,-217 603.5,-247 731.5,-247 731.5,-217 603.5,-217"/>
<text text-anchor="start" x="611.5" y="-235" font-family="Helvetica,sans-Serif" font-size="10.00">MiraiCP::Logger_interface</text>
<text text-anchor="middle" x="667.5" y="-224" font-family="Helvetica,sans-Serif" font-size="10.00">::warning</text>
</a>
</g>
</g>
<!-- Node2&#45;&gt;Node15 -->
<g id="edge16" class="edge">
<title>Node2&#45;&gt;Node15</title>
<path fill="none" stroke="midnightblue" d="M333.99,-260.97C350.88,-257.58 369.05,-254.31 386,-252 455.9,-242.47 536.27,-237.33 593.01,-234.65"/>
<polygon fill="midnightblue" stroke="midnightblue" points="593.49,-238.13 603.32,-234.18 593.17,-231.14 593.49,-238.13"/>
</g>
<!-- Node4&#45;&gt;Node2 -->
<g id="edge6" class="edge">
<title>Node4&#45;&gt;Node2</title>
<path fill="none" stroke="midnightblue" d="M385.71,-311.47C362.22,-306 337.4,-299.69 316.6,-293.86"/>
<polygon fill="midnightblue" stroke="midnightblue" points="317.31,-290.43 306.73,-291.04 315.39,-297.16 317.31,-290.43"/>
</g>
<!-- Node4&#45;&gt;Node4 -->
<g id="edge5" class="edge">
<title>Node4&#45;&gt;Node4</title>
<path fill="none" stroke="midnightblue" d="M434.99,-340.16C426.67,-349.56 438.18,-358.5 469.5,-358.5 488.59,-358.5 500.32,-355.18 504.68,-350.46"/>
<polygon fill="midnightblue" stroke="midnightblue" points="508.15,-349.91 504.01,-340.16 501.17,-350.37 508.15,-349.91"/>
</g>
<!-- Node5 -->
<g id="node5" class="node">
<title>Node5</title>
<g id="a_node5"><a xlink:href="a00576.html#ae41f2b998365484dba1ff3f32563dfbb" target="_top" xlink:title=" ">
<polygon fill="white" stroke="black" points="589,-403 589,-433 746,-433 746,-403 589,-403"/>
<text text-anchor="start" x="597" y="-421" font-family="Helvetica,sans-Serif" font-size="10.00">MiraiCP::ForwardedMessage</text>
<text text-anchor="middle" x="667.5" y="-410" font-family="Helvetica,sans-Serif" font-size="10.00">DisplayStrategy::defaultStrategy</text>
</a>
</g>
</g>
<!-- Node4&#45;&gt;Node5 -->
<g id="edge4" class="edge">
<title>Node4&#45;&gt;Node5</title>
<path fill="none" stroke="midnightblue" d="M502.04,-340.09C517.67,-347.9 536.64,-357.9 553,-368 569.8,-378.37 571.34,-385.19 589,-394 592.76,-395.88 596.69,-397.64 600.71,-399.29"/>
<polygon fill="midnightblue" stroke="midnightblue" points="599.6,-402.62 610.19,-402.95 602.12,-396.09 599.6,-402.62"/>
</g>
<!-- Node6 -->
<g id="node6" class="node">
<title>Node6</title>
<g id="a_node6"><a xlink:href="a00584.html#ae33afe7b370688c3a3e3252e360ae176" target="_top" xlink:title="构建一条聊天记录">
<polygon fill="white" stroke="black" points="596.5,-354 596.5,-384 738.5,-384 738.5,-354 596.5,-354"/>
<text text-anchor="start" x="604.5" y="-372" font-family="Helvetica,sans-Serif" font-size="10.00">MiraiCP::ForwardedMessage</text>
<text text-anchor="middle" x="667.5" y="-361" font-family="Helvetica,sans-Serif" font-size="10.00">::ForwardedMessage</text>
</a>
</g>
</g>
<!-- Node4&#45;&gt;Node6 -->
<g id="edge7" class="edge">
<title>Node4&#45;&gt;Node6</title>
<path fill="none" stroke="midnightblue" d="M537.4,-340.02C554.18,-343.79 572.32,-347.86 589.55,-351.72"/>
<polygon fill="midnightblue" stroke="midnightblue" points="589.04,-355.2 599.57,-353.97 590.57,-348.37 589.04,-355.2"/>
</g>
<!-- Node7 -->
<g id="node7" class="node">
<title>Node7</title>
<g id="a_node7"><a xlink:href="a00576.html#ae93025f6346a4d8c257da1f453097d6a" target="_top" xlink:title=" ">
<polygon fill="white" stroke="black" points="596.5,-305 596.5,-335 738.5,-335 738.5,-305 596.5,-305"/>
<text text-anchor="start" x="604.5" y="-323" font-family="Helvetica,sans-Serif" font-size="10.00">MiraiCP::ForwardedMessage</text>
<text text-anchor="middle" x="667.5" y="-312" font-family="Helvetica,sans-Serif" font-size="10.00">DisplayStrategy::fromJson</text>
</a>
</g>
</g>
<!-- Node4&#45;&gt;Node7 -->
<g id="edge8" class="edge">
<title>Node4&#45;&gt;Node7</title>
<path fill="none" stroke="midnightblue" d="M553.05,-322.89C564.11,-322.61 575.43,-322.32 586.44,-322.04"/>
<polygon fill="midnightblue" stroke="midnightblue" points="586.54,-325.54 596.45,-321.79 586.36,-318.54 586.54,-325.54"/>
</g>
<!-- Node9 -->
<g id="node9" class="node">
<title>Node9</title>
<g id="a_node9"><a xlink:href="a00612.html#af14d39efa300da183070784bc86d3f23" target="_top" xlink:title="发送错误(error级日志)">
<polygon fill="white" stroke="black" points="603.5,-168 603.5,-198 731.5,-198 731.5,-168 603.5,-168"/>
<text text-anchor="start" x="611.5" y="-186" font-family="Helvetica,sans-Serif" font-size="10.00">MiraiCP::Logger_interface</text>
<text text-anchor="middle" x="667.5" y="-175" font-family="Helvetica,sans-Serif" font-size="10.00">::error</text>
</a>
</g>
</g>
<!-- Node8&#45;&gt;Node9 -->
<g id="edge10" class="edge">
<title>Node8&#45;&gt;Node9</title>
<path fill="none" stroke="midnightblue" d="M533.59,-184.36C552.56,-184.16 573.53,-183.95 593.1,-183.75"/>
<polygon fill="midnightblue" stroke="midnightblue" points="593.22,-187.25 603.19,-183.65 593.15,-180.25 593.22,-187.25"/>
</g>
<!-- Node10 -->
<g id="node10" class="node">
<title>Node10</title>
<g id="a_node10"><a xlink:href="a00612.html#a98af60f864a0446e23a7a27a3419d9b8" target="_top" xlink:title=" ">
<polygon fill="white" stroke="black" points="791,-168 791,-198 919,-198 919,-168 791,-168"/>
<text text-anchor="start" x="799" y="-186" font-family="Helvetica,sans-Serif" font-size="10.00">MiraiCP::Logger_interface</text>
<text text-anchor="middle" x="855" y="-175" font-family="Helvetica,sans-Serif" font-size="10.00">::constructString</text>
</a>
</g>
</g>
<!-- Node9&#45;&gt;Node10 -->
<g id="edge11" class="edge">
<title>Node9&#45;&gt;Node10</title>
<path fill="none" stroke="midnightblue" d="M731.56,-183C747.39,-183 764.51,-183 780.79,-183"/>
<polygon fill="midnightblue" stroke="midnightblue" points="780.8,-186.5 790.8,-183 780.8,-179.5 780.8,-186.5"/>
</g>
<!-- Node11 -->
<g id="node11" class="node">
<title>Node11</title>
<g id="a_node11"><a xlink:href="a00612.html#a86ea9d57475a3004be2a32b2c4c76371" target="_top" xlink:title="日志底层实现封装">
<polygon fill="white" stroke="black" points="791,-217 791,-247 919,-247 919,-217 791,-217"/>
<text text-anchor="start" x="799" y="-235" font-family="Helvetica,sans-Serif" font-size="10.00">MiraiCP::Logger_interface</text>
<text text-anchor="middle" x="855" y="-224" font-family="Helvetica,sans-Serif" font-size="10.00">::log_interface</text>
</a>
</g>
</g>
<!-- Node9&#45;&gt;Node11 -->
<g id="edge12" class="edge">
<title>Node9&#45;&gt;Node11</title>
<path fill="none" stroke="midnightblue" d="M725.42,-198.03C745,-203.21 767.11,-209.05 787.4,-214.41"/>
<polygon fill="midnightblue" stroke="midnightblue" points="786.63,-217.82 797.19,-216.99 788.42,-211.06 786.63,-217.82"/>
</g>
<!-- Node13 -->
<g id="node13" class="node">
<title>Node13</title>
<g id="a_node13"><a xlink:href="a00406.html#a0b52c701b3d96bf42b4d67c21f1dab2d" target="_top" xlink:title="case insensitive string compare from https://thispointer.com/c&#45;case&#45;insensitive&#45;string&#45;comparison&#45;usi...">
<polygon fill="white" stroke="black" points="611.5,-266.5 611.5,-285.5 723.5,-285.5 723.5,-266.5 611.5,-266.5"/>
<text text-anchor="middle" x="667.5" y="-273.5" font-family="Helvetica,sans-Serif" font-size="10.00">MiraiCP::Tools::iequal</text>
</a>
</g>
</g>
<!-- Node12&#45;&gt;Node13 -->
<g id="edge14" class="edge">
<title>Node12&#45;&gt;Node13</title>
<path fill="none" stroke="midnightblue" d="M531.71,-276C553.82,-276 578.85,-276 601.29,-276"/>
<polygon fill="midnightblue" stroke="midnightblue" points="601.4,-279.5 611.4,-276 601.4,-272.5 601.4,-279.5"/>
</g>
<!-- Node14 -->
<g id="node14" class="node">
<title>Node14</title>
<g id="a_node14"><a xlink:href="a00406.html#a795aadb1af1cd4b85e9b48b5bb5b246d" target="_top" xlink:title="compare char with case&#45;insensitive">
<polygon fill="white" stroke="black" points="782,-266.5 782,-285.5 928,-285.5 928,-266.5 782,-266.5"/>
<text text-anchor="middle" x="855" y="-273.5" font-family="Helvetica,sans-Serif" font-size="10.00">MiraiCP::Tools::icompareChar</text>
</a>
</g>
</g>
<!-- Node13&#45;&gt;Node14 -->
<g id="edge15" class="edge">
<title>Node13&#45;&gt;Node14</title>
<path fill="none" stroke="midnightblue" d="M723.65,-276C738.78,-276 755.51,-276 771.8,-276"/>
<polygon fill="midnightblue" stroke="midnightblue" points="771.86,-279.5 781.86,-276 771.86,-272.5 771.86,-279.5"/>
</g>
<!-- Node15&#45;&gt;Node10 -->
<g id="edge17" class="edge">
<title>Node15&#45;&gt;Node10</title>
<path fill="none" stroke="midnightblue" d="M725.42,-216.97C745,-211.79 767.11,-205.95 787.4,-200.59"/>
<polygon fill="midnightblue" stroke="midnightblue" points="788.42,-203.94 797.19,-198.01 786.63,-197.18 788.42,-203.94"/>
</g>
<!-- Node15&#45;&gt;Node11 -->
<g id="edge18" class="edge">
<title>Node15&#45;&gt;Node11</title>
<path fill="none" stroke="midnightblue" d="M731.56,-232C747.39,-232 764.51,-232 780.79,-232"/>
<polygon fill="midnightblue" stroke="midnightblue" points="780.8,-235.5 790.8,-232 780.8,-228.5 780.8,-235.5"/>
</g>
<!-- Node18 -->
<g id="node18" class="node">
<title>Node18</title>
<g id="a_node18"><a xlink:href="a00415.html#a1e1e498928eeaa1d7107033ff5fa881a" target="_top" xlink:title="调用 Mirai 操作">
<polygon fill="white" stroke="black" points="415,-88 415,-118 524,-118 524,-88 415,-88"/>
<text text-anchor="start" x="423" y="-106" font-family="Helvetica,sans-Serif" font-size="10.00">MiraiCP::KtOperation</text>
<text text-anchor="middle" x="469.5" y="-95" font-family="Helvetica,sans-Serif" font-size="10.00">::ktOperationStr</text>
</a>
</g>
</g>
<!-- Node17&#45;&gt;Node18 -->
<g id="edge22" class="edge">
<title>Node17&#45;&gt;Node18</title>
<path fill="none" stroke="midnightblue" d="M321.1,-103C346.78,-103 377.72,-103 404.61,-103"/>
<polygon fill="midnightblue" stroke="midnightblue" points="404.7,-106.5 414.7,-103 404.7,-99.5 404.7,-106.5"/>
</g>
<!-- Node19 -->
<g id="node19" class="node">
<title>Node19</title>
<g id="a_node19"><a xlink:href="a00408.html#a4c6ac4cf4ba5ff0adb7656708bbb67d0" target="_top" xlink:title="interfaces for plugins">
<polygon fill="white" stroke="black" points="613.5,-86 613.5,-116 721.5,-116 721.5,-86 613.5,-86"/>
<text text-anchor="start" x="621.5" y="-104" font-family="Helvetica,sans-Serif" font-size="10.00">LibLoader::LoaderApi</text>
<text text-anchor="middle" x="667.5" y="-93" font-family="Helvetica,sans-Serif" font-size="10.00">::pluginOperation</text>
</a>
</g>
</g>
<!-- Node18&#45;&gt;Node19 -->
<g id="edge23" class="edge">
<title>Node18&#45;&gt;Node19</title>
<path fill="none" stroke="midnightblue" d="M524.06,-102.45C548.46,-102.2 577.54,-101.91 603.03,-101.65"/>
<polygon fill="midnightblue" stroke="midnightblue" points="603.38,-105.14 613.35,-101.54 603.31,-98.14 603.38,-105.14"/>
</g>
<!-- Node20 -->
<g id="node20" class="node">
<title>Node20</title>
<g id="a_node20"><a xlink:href="a00740.html#acc90fdac094544c4ddd9d6fd13baa5da" target="_top" xlink:title=" ">
<polygon fill="white" stroke="black" points="787.5,-42 787.5,-72 922.5,-72 922.5,-42 787.5,-42"/>
<text text-anchor="start" x="795.5" y="-60" font-family="Helvetica,sans-Serif" font-size="10.00">MiraiCP::MiraiCPStringview</text>
<text text-anchor="middle" x="855" y="-49" font-family="Helvetica,sans-Serif" font-size="10.00">::c_str</text>
</a>
</g>
</g>
<!-- Node19&#45;&gt;Node20 -->
<g id="edge24" class="edge">
<title>Node19&#45;&gt;Node20</title>
<path fill="none" stroke="midnightblue" d="M721.66,-88.39C740.07,-84.02 761.04,-79.05 780.77,-74.37"/>
<polygon fill="midnightblue" stroke="midnightblue" points="781.73,-77.74 790.65,-72.03 780.11,-70.93 781.73,-77.74"/>
</g>
<!-- Node21 -->
<g id="node21" class="node">
<title>Node21</title>
<g id="a_node21"><a xlink:href="a00768.html#aea7d58ff9f04d6d4849c25a2506603a5" target="_top" xlink:title="取env,如果不存在重新获取">
<polygon fill="white" stroke="black" points="1417,-44.5 1417,-63.5 1536,-63.5 1536,-44.5 1417,-44.5"/>
<text text-anchor="middle" x="1476.5" y="-51.5" font-family="Helvetica,sans-Serif" font-size="10.00">JNIEnvManager::getEnv</text>
</a>
</g>
</g>
<!-- Node19&#45;&gt;Node21 -->
<g id="edge25" class="edge">
<title>Node19&#45;&gt;Node21</title>
<path fill="none" stroke="midnightblue" d="M687.21,-85.77C708.66,-69.28 745.57,-43.76 782,-32 884.88,1.21 916.39,-13 1024.5,-13 1024.5,-13 1024.5,-13 1185.5,-13 1269.92,-13 1366.82,-30.25 1424.5,-42.37"/>
<polygon fill="midnightblue" stroke="midnightblue" points="1423.95,-45.83 1434.46,-44.49 1425.41,-38.98 1423.95,-45.83"/>
</g>
<!-- Node24 -->
<g id="node24" class="node">
<title>Node24</title>
<g id="a_node24"><a xlink:href="a00407.html#aa5f8d0ecd9dd392b491070aace643ae3" target="_top" xlink:title=" ">
<polygon fill="white" stroke="black" points="972,-167.5 972,-186.5 1079,-186.5 1079,-167.5 972,-167.5"/>
<text text-anchor="middle" x="1025.5" y="-174.5" font-family="Helvetica,sans-Serif" font-size="10.00">LibLoader::jstring2str</text>
</a>
</g>
</g>
<!-- Node19&#45;&gt;Node24 -->
<g id="edge28" class="edge">
<title>Node19&#45;&gt;Node24</title>
<path fill="none" stroke="midnightblue" d="M721.8,-112.38C788.58,-126.64 902.44,-150.94 969.86,-165.33"/>
<polygon fill="midnightblue" stroke="midnightblue" points="969.35,-168.81 979.86,-167.47 970.81,-161.96 969.35,-168.81"/>
</g>
<!-- Node26 -->
<g id="node26" class="node">
<title>Node26</title>
<g id="a_node26"><a xlink:href="a00407.html#a6a6fcd695791253a9b3a053d313b2b93" target="_top" xlink:title=" ">
<polygon fill="white" stroke="black" points="801.5,-91.5 801.5,-110.5 908.5,-110.5 908.5,-91.5 801.5,-91.5"/>
<text text-anchor="middle" x="855" y="-98.5" font-family="Helvetica,sans-Serif" font-size="10.00">LibLoader::str2jstring</text>
</a>
</g>
</g>
<!-- Node19&#45;&gt;Node26 -->
<g id="edge31" class="edge">
<title>Node19&#45;&gt;Node26</title>
<path fill="none" stroke="midnightblue" d="M721.66,-101C743.38,-101 768.67,-101 791.29,-101"/>
<polygon fill="midnightblue" stroke="midnightblue" points="791.48,-104.5 801.48,-101 791.48,-97.5 791.48,-104.5"/>
</g>
<!-- Node22 -->
<g id="node22" class="node">
<title>Node22</title>
<g id="a_node22"><a xlink:href="a00200.html#a3d31403b7971274d47d308245206bd24" target="_top" xlink:title="为当前线程创建一个env.">
<polygon fill="white" stroke="black" points="1572,-44.5 1572,-63.5 1622,-63.5 1622,-44.5 1572,-44.5"/>
<text text-anchor="middle" x="1597" y="-51.5" font-family="Helvetica,sans-Serif" font-size="10.00">newEnv</text>
</a>
</g>
</g>
<!-- Node21&#45;&gt;Node22 -->
<g id="edge26" class="edge">
<title>Node21&#45;&gt;Node22</title>
<path fill="none" stroke="midnightblue" d="M1536.06,-54C1544.89,-54 1553.75,-54 1561.85,-54"/>
<polygon fill="midnightblue" stroke="midnightblue" points="1561.98,-57.5 1571.98,-54 1561.98,-50.5 1561.98,-57.5"/>
</g>
<!-- Node23 -->
<g id="node23" class="node">
<title>Node23</title>
<g id="a_node23"><a xlink:href="a00768.html#ae0e482c6a813848a8f5d34957d1b6307" target="_top" xlink:title="获取全局JavaVM对象.">
<polygon fill="white" stroke="black" points="1658,-44.5 1658,-63.5 1780,-63.5 1780,-44.5 1658,-44.5"/>
<text text-anchor="middle" x="1719" y="-51.5" font-family="Helvetica,sans-Serif" font-size="10.00">JNIEnvManager::getGvm</text>
</a>
</g>
</g>
<!-- Node22&#45;&gt;Node23 -->
<g id="edge27" class="edge">
<title>Node22&#45;&gt;Node23</title>
<path fill="none" stroke="midnightblue" d="M1622.28,-54C1629.75,-54 1638.37,-54 1647.32,-54"/>
<polygon fill="midnightblue" stroke="midnightblue" points="1647.52,-57.5 1657.52,-54 1647.52,-50.5 1647.52,-57.5"/>
</g>
<!-- Node25 -->
<g id="node25" class="node">
<title>Node25</title>
<g id="a_node25"><a xlink:href="a00411.html#a076c5f4ff8083c7cfc6523498d0ba30f" target="_top" xlink:title=" ">
<polygon fill="white" stroke="black" points="1282,-102 1282,-132 1381,-132 1381,-102 1282,-102"/>
<text text-anchor="start" x="1290" y="-120" font-family="Helvetica,sans-Serif" font-size="10.00">LibLoader::JNIEnvs</text>
<text text-anchor="middle" x="1331.5" y="-109" font-family="Helvetica,sans-Serif" font-size="10.00">::getEnv</text>
</a>
</g>
</g>
<!-- Node24&#45;&gt;Node25 -->
<g id="edge29" class="edge">
<title>Node24&#45;&gt;Node25</title>
<path fill="none" stroke="midnightblue" d="M1079.17,-175.57C1124.13,-173.33 1190.18,-167.6 1246,-153 1261.42,-148.97 1277.68,-142.6 1291.77,-136.33"/>
<polygon fill="midnightblue" stroke="midnightblue" points="1293.51,-139.38 1301.14,-132.04 1290.59,-133.02 1293.51,-139.38"/>
</g>
<!-- Node25&#45;&gt;Node21 -->
<g id="edge30" class="edge">
<title>Node25&#45;&gt;Node21</title>
<path fill="none" stroke="midnightblue" d="M1366.75,-101.91C1390.32,-91.53 1421.38,-77.84 1444.27,-67.76"/>
<polygon fill="midnightblue" stroke="midnightblue" points="1445.8,-70.91 1453.54,-63.68 1442.97,-64.5 1445.8,-70.91"/>
</g>
<!-- Node26&#45;&gt;Node25 -->
<g id="edge32" class="edge">
<title>Node26&#45;&gt;Node25</title>
<path fill="none" stroke="midnightblue" d="M908.7,-106.26C926.28,-107.91 945.97,-109.66 964,-111 1089.05,-120.33 1120.62,-122.22 1246,-120 1254.33,-119.85 1263.13,-119.62 1271.77,-119.35"/>
<polygon fill="midnightblue" stroke="midnightblue" points="1271.92,-122.85 1281.8,-119.02 1271.69,-115.85 1271.92,-122.85"/>
</g>
<!-- Node27 -->
<g id="node27" class="node">
<title>Node27</title>
<g id="a_node27"><a xlink:href="a00800.html#af50d0545fe7d683e54fcd03453a423e3" target="_top" xlink:title=" ">
<polygon fill="white" stroke="black" points="964,-42 964,-72 1087,-72 1087,-42 964,-42"/>
<text text-anchor="start" x="972" y="-60" font-family="Helvetica,sans-Serif" font-size="10.00">LibLoader::LoaderLogger</text>
<text text-anchor="middle" x="1025.5" y="-49" font-family="Helvetica,sans-Serif" font-size="10.00">::warning</text>
</a>
</g>
</g>
<!-- Node26&#45;&gt;Node27 -->
<g id="edge33" class="edge">
<title>Node26&#45;&gt;Node27</title>
<path fill="none" stroke="midnightblue" d="M892.56,-91.45C911.36,-86.54 934.89,-80.4 956.85,-74.67"/>
<polygon fill="midnightblue" stroke="midnightblue" points="958.02,-77.98 966.81,-72.07 956.25,-71.21 958.02,-77.98"/>
</g>
<!-- Node28 -->
<g id="node28" class="node">
<title>Node28</title>
<g id="a_node28"><a xlink:href="a00800.html#af4d7d5164450e25f7401d1cc15f15b8d" target="_top" xlink:title="实际暴露的接口">
<polygon fill="white" stroke="black" points="1123,-80 1123,-110 1246,-110 1246,-80 1123,-80"/>
<text text-anchor="start" x="1131" y="-98" font-family="Helvetica,sans-Serif" font-size="10.00">LibLoader::LoaderLogger</text>
<text text-anchor="middle" x="1184.5" y="-87" font-family="Helvetica,sans-Serif" font-size="10.00">::call_logger</text>
</a>
</g>
</g>
<!-- Node27&#45;&gt;Node28 -->
<g id="edge34" class="edge">
<title>Node27&#45;&gt;Node28</title>
<path fill="none" stroke="midnightblue" d="M1087.2,-71.69C1095.73,-73.76 1104.55,-75.89 1113.23,-77.99"/>
<polygon fill="midnightblue" stroke="midnightblue" points="1112.42,-81.4 1122.96,-80.35 1114.07,-74.59 1112.42,-81.4"/>
</g>
<!-- Node28&#45;&gt;Node25 -->
<g id="edge35" class="edge">
<title>Node28&#45;&gt;Node25</title>
<path fill="none" stroke="midnightblue" d="M1246.15,-104.2C1254.65,-105.49 1263.37,-106.81 1271.83,-108.1"/>
<polygon fill="midnightblue" stroke="midnightblue" points="1271.57,-111.6 1281.98,-109.64 1272.62,-104.68 1271.57,-111.6"/>
</g>
<!-- Node28&#45;&gt;Node26 -->
<g id="edge36" class="edge">
<title>Node28&#45;&gt;Node26</title>
<path fill="none" stroke="midnightblue" d="M1122.94,-96.11C1064.91,-97.17 977.69,-98.77 918.89,-99.85"/>
<polygon fill="midnightblue" stroke="midnightblue" points="918.55,-96.35 908.62,-100.04 918.68,-103.35 918.55,-96.35"/>
</g>
</g>
</svg>
