<?xml version="1.0" encoding="UTF-8" standalone="no"?>
<!DOCTYPE svg PUBLIC "-//W3C//DTD SVG 1.1//EN"
 "http://www.w3.org/Graphics/SVG/1.1/DTD/svg11.dtd">
<!-- Generated by graphviz version 2.50.0 (20211204.2007)
 -->
<!-- Title: MiraiCP::Friend::sendNudge Pages: 1 -->
<svg width="1620pt" height="220pt"
 viewBox="0.00 0.00 1620.00 219.76" xmlns="http://www.w3.org/2000/svg" xmlns:xlink="http://www.w3.org/1999/xlink">
<g id="graph0" class="graph" transform="scale(1 1) rotate(0) translate(4 215.76)">
<title>MiraiCP::Friend::sendNudge</title>
<polygon fill="white" stroke="transparent" points="-4,4 -4,-215.76 1616,-215.76 1616,4 -4,4"/>
<!-- Node1 -->
<g id="node1" class="node">
<title>Node1</title>
<g id="a_node1"><a xlink:title="发送戳一戳">
<polygon fill="#bfbfbf" stroke="black" points="0,-101.76 0,-120.76 139,-120.76 139,-101.76 0,-101.76"/>
<text text-anchor="middle" x="69.5" y="-108.76" font-family="Helvetica,sans-Serif" font-size="10.00">MiraiCP::Friend::sendNudge</text>
</a>
</g>
</g>
<!-- Node2 -->
<g id="node2" class="node">
<title>Node2</title>
<g id="a_node2"><a xlink:href="a00415.html#a309e8d7f316e8b5e947ea3bcddeb84a8" target="_top" xlink:title="调用 Mirai 操作">
<polygon fill="white" stroke="black" points="183,-118.26 183,-148.26 292,-148.26 292,-118.26 183,-118.26"/>
<text text-anchor="start" x="191" y="-136.26" font-family="Helvetica,sans-Serif" font-size="10.00">MiraiCP::KtOperation</text>
<text text-anchor="middle" x="237.5" y="-125.26" font-family="Helvetica,sans-Serif" font-size="10.00">::ktOperation</text>
</a>
</g>
</g>
<!-- Node1&#45;&gt;Node2 -->
<g id="edge1" class="edge">
<title>Node1&#45;&gt;Node2</title>
<path fill="none" stroke="midnightblue" d="M139.46,-120.4C150.57,-121.87 162.04,-123.39 173.02,-124.85"/>
<polygon fill="midnightblue" stroke="midnightblue" points="172.57,-128.32 182.94,-126.16 173.49,-121.38 172.57,-128.32"/>
</g>
<!-- Node14 -->
<g id="node14" class="node">
<title>Node14</title>
<g id="a_node14"><a xlink:href="a00448.html#a89fb588a12ff2d4de10722788945ea55" target="_top" xlink:title="序列化到json对象">
<polygon fill="white" stroke="black" points="175,-79.76 175,-98.76 300,-98.76 300,-79.76 175,-79.76"/>
<text text-anchor="middle" x="237.5" y="-86.76" font-family="Helvetica,sans-Serif" font-size="10.00">MiraiCP::Contact::toJson</text>
</a>
</g>
</g>
<!-- Node1&#45;&gt;Node14 -->
<g id="edge17" class="edge">
<title>Node1&#45;&gt;Node14</title>
<path fill="none" stroke="midnightblue" d="M139.46,-102.12C147.82,-101.01 156.37,-99.88 164.77,-98.77"/>
<polygon fill="midnightblue" stroke="midnightblue" points="165.46,-102.21 174.91,-97.42 164.54,-95.27 165.46,-102.21"/>
</g>
<!-- Node3 -->
<g id="node3" class="node">
<title>Node3</title>
<g id="a_node3"><a xlink:href="a00415.html#a1e1e498928eeaa1d7107033ff5fa881a" target="_top" xlink:title="调用 Mirai 操作">
<polygon fill="white" stroke="black" points="336,-118.26 336,-148.26 445,-148.26 445,-118.26 336,-118.26"/>
<text text-anchor="start" x="344" y="-136.26" font-family="Helvetica,sans-Serif" font-size="10.00">MiraiCP::KtOperation</text>
<text text-anchor="middle" x="390.5" y="-125.26" font-family="Helvetica,sans-Serif" font-size="10.00">::ktOperationStr</text>
</a>
</g>
</g>
<!-- Node2&#45;&gt;Node3 -->
<g id="edge2" class="edge">
<title>Node2&#45;&gt;Node3</title>
<path fill="none" stroke="midnightblue" d="M292.16,-133.26C303,-133.26 314.5,-133.26 325.64,-133.26"/>
<polygon fill="midnightblue" stroke="midnightblue" points="325.76,-136.76 335.76,-133.26 325.76,-129.76 325.76,-136.76"/>
</g>
<!-- Node4 -->
<g id="node4" class="node">
<title>Node4</title>
<g id="a_node4"><a xlink:href="a00408.html#a4c6ac4cf4ba5ff0adb7656708bbb67d0" target="_top" xlink:title="interfaces for plugins">
<polygon fill="white" stroke="black" points="481,-118.26 481,-148.26 589,-148.26 589,-118.26 481,-118.26"/>
<text text-anchor="start" x="489" y="-136.26" font-family="Helvetica,sans-Serif" font-size="10.00">LibLoader::LoaderApi</text>
<text text-anchor="middle" x="535" y="-125.26" font-family="Helvetica,sans-Serif" font-size="10.00">::pluginOperation</text>
</a>
</g>
</g>
<!-- Node3&#45;&gt;Node4 -->
<g id="edge3" class="edge">
<title>Node3&#45;&gt;Node4</title>
<path fill="none" stroke="midnightblue" d="M445.37,-133.26C453.67,-133.26 462.29,-133.26 470.77,-133.26"/>
<polygon fill="midnightblue" stroke="midnightblue" points="471,-136.76 481,-133.26 471,-129.76 471,-136.76"/>
</g>
<!-- Node5 -->
<g id="node5" class="node">
<title>Node5</title>
<g id="a_node5"><a xlink:href="a00740.html#acc90fdac094544c4ddd9d6fd13baa5da" target="_top" xlink:title=" ">
<polygon fill="white" stroke="black" points="625,-181.26 625,-211.26 760,-211.26 760,-181.26 625,-181.26"/>
<text text-anchor="start" x="633" y="-199.26" font-family="Helvetica,sans-Serif" font-size="10.00">MiraiCP::MiraiCPStringview</text>
<text text-anchor="middle" x="692.5" y="-188.26" font-family="Helvetica,sans-Serif" font-size="10.00">::c_str</text>
</a>
</g>
</g>
<!-- Node4&#45;&gt;Node5 -->
<g id="edge4" class="edge">
<title>Node4&#45;&gt;Node5</title>
<path fill="none" stroke="midnightblue" d="M573.25,-148.35C594.71,-157.05 621.89,-168.06 644.77,-177.33"/>
<polygon fill="midnightblue" stroke="midnightblue" points="643.71,-180.67 654.29,-181.19 646.33,-174.19 643.71,-180.67"/>
</g>
<!-- Node6 -->
<g id="node6" class="node">
<title>Node6</title>
<g id="a_node6"><a xlink:href="a00768.html#aea7d58ff9f04d6d4849c25a2506603a5" target="_top" xlink:title="取env,如果不存在重新获取">
<polygon fill="white" stroke="black" points="1249,-104.76 1249,-123.76 1368,-123.76 1368,-104.76 1249,-104.76"/>
<text text-anchor="middle" x="1308.5" y="-111.76" font-family="Helvetica,sans-Serif" font-size="10.00">JNIEnvManager::getEnv</text>
</a>
</g>
</g>
<!-- Node4&#45;&gt;Node6 -->
<g id="edge5" class="edge">
<title>Node4&#45;&gt;Node6</title>
<path fill="none" stroke="midnightblue" d="M589.25,-138.35C652.8,-143.98 762.3,-152.26 856.5,-152.26 856.5,-152.26 856.5,-152.26 1017.5,-152.26 1099.89,-152.26 1194.34,-137 1252.46,-125.82"/>
<polygon fill="midnightblue" stroke="midnightblue" points="1253.39,-129.2 1262.53,-123.85 1252.05,-122.33 1253.39,-129.2"/>
</g>
<!-- Node9 -->
<g id="node9" class="node">
<title>Node9</title>
<g id="a_node9"><a xlink:href="a00407.html#aa5f8d0ecd9dd392b491070aace643ae3" target="_top" xlink:title=" ">
<polygon fill="white" stroke="black" points="804,-104.76 804,-123.76 911,-123.76 911,-104.76 804,-104.76"/>
<text text-anchor="middle" x="857.5" y="-111.76" font-family="Helvetica,sans-Serif" font-size="10.00">LibLoader::jstring2str</text>
</a>
</g>
</g>
<!-- Node4&#45;&gt;Node9 -->
<g id="edge8" class="edge">
<title>Node4&#45;&gt;Node9</title>
<path fill="none" stroke="midnightblue" d="M589.28,-130.1C645.57,-126.77 734.25,-121.51 793.85,-117.98"/>
<polygon fill="midnightblue" stroke="midnightblue" points="794.11,-121.47 803.89,-117.38 793.7,-114.48 794.11,-121.47"/>
</g>
<!-- Node11 -->
<g id="node11" class="node">
<title>Node11</title>
<g id="a_node11"><a xlink:href="a00407.html#a6a6fcd695791253a9b3a053d313b2b93" target="_top" xlink:title=" ">
<polygon fill="white" stroke="black" points="639,-44.76 639,-63.76 746,-63.76 746,-44.76 639,-44.76"/>
<text text-anchor="middle" x="692.5" y="-51.76" font-family="Helvetica,sans-Serif" font-size="10.00">LibLoader::str2jstring</text>
</a>
</g>
</g>
<!-- Node4&#45;&gt;Node11 -->
<g id="edge11" class="edge">
<title>Node4&#45;&gt;Node11</title>
<path fill="none" stroke="midnightblue" d="M565.61,-118.22C593.83,-103.88 636,-82.46 663.63,-68.42"/>
<polygon fill="midnightblue" stroke="midnightblue" points="665.42,-71.44 672.75,-63.79 662.25,-65.2 665.42,-71.44"/>
</g>
<!-- Node7 -->
<g id="node7" class="node">
<title>Node7</title>
<g id="a_node7"><a xlink:href="a00200.html#a3d31403b7971274d47d308245206bd24" target="_top" xlink:title="为当前线程创建一个env.">
<polygon fill="white" stroke="black" points="1404,-104.76 1404,-123.76 1454,-123.76 1454,-104.76 1404,-104.76"/>
<text text-anchor="middle" x="1429" y="-111.76" font-family="Helvetica,sans-Serif" font-size="10.00">newEnv</text>
</a>
</g>
</g>
<!-- Node6&#45;&gt;Node7 -->
<g id="edge6" class="edge">
<title>Node6&#45;&gt;Node7</title>
<path fill="none" stroke="midnightblue" d="M1368.06,-114.26C1376.89,-114.26 1385.75,-114.26 1393.85,-114.26"/>
<polygon fill="midnightblue" stroke="midnightblue" points="1393.98,-117.76 1403.98,-114.26 1393.98,-110.76 1393.98,-117.76"/>
</g>
<!-- Node8 -->
<g id="node8" class="node">
<title>Node8</title>
<g id="a_node8"><a xlink:href="a00768.html#ae0e482c6a813848a8f5d34957d1b6307" target="_top" xlink:title="获取全局JavaVM对象.">
<polygon fill="white" stroke="black" points="1490,-104.76 1490,-123.76 1612,-123.76 1612,-104.76 1490,-104.76"/>
<text text-anchor="middle" x="1551" y="-111.76" font-family="Helvetica,sans-Serif" font-size="10.00">JNIEnvManager::getGvm</text>
</a>
</g>
</g>
<!-- Node7&#45;&gt;Node8 -->
<g id="edge7" class="edge">
<title>Node7&#45;&gt;Node8</title>
<path fill="none" stroke="midnightblue" d="M1454.28,-114.26C1461.75,-114.26 1470.37,-114.26 1479.32,-114.26"/>
<polygon fill="midnightblue" stroke="midnightblue" points="1479.52,-117.76 1489.52,-114.26 1479.52,-110.76 1479.52,-117.76"/>
</g>
<!-- Node10 -->
<g id="node10" class="node">
<title>Node10</title>
<g id="a_node10"><a xlink:href="a00411.html#a076c5f4ff8083c7cfc6523498d0ba30f" target="_top" xlink:title=" ">
<polygon fill="white" stroke="black" points="1114,-77.26 1114,-107.26 1213,-107.26 1213,-77.26 1114,-77.26"/>
<text text-anchor="start" x="1122" y="-95.26" font-family="Helvetica,sans-Serif" font-size="10.00">LibLoader::JNIEnvs</text>
<text text-anchor="middle" x="1163.5" y="-84.26" font-family="Helvetica,sans-Serif" font-size="10.00">::getEnv</text>
</a>
</g>
</g>
<!-- Node9&#45;&gt;Node10 -->
<g id="edge9" class="edge">
<title>Node9&#45;&gt;Node10</title>
<path fill="none" stroke="midnightblue" d="M911.11,-110.45C964.7,-106.58 1047.65,-100.57 1103.46,-96.53"/>
<polygon fill="midnightblue" stroke="midnightblue" points="1103.83,-100.02 1113.55,-95.8 1103.32,-93.03 1103.83,-100.02"/>
</g>
<!-- Node10&#45;&gt;Node6 -->
<g id="edge10" class="edge">
<title>Node10&#45;&gt;Node6</title>
<path fill="none" stroke="midnightblue" d="M1213.31,-99.77C1221.51,-101.03 1230.16,-102.36 1238.75,-103.68"/>
<polygon fill="midnightblue" stroke="midnightblue" points="1238.36,-107.17 1248.78,-105.23 1239.43,-100.25 1238.36,-107.17"/>
</g>
<!-- Node11&#45;&gt;Node10 -->
<g id="edge12" class="edge">
<title>Node11&#45;&gt;Node10</title>
<path fill="none" stroke="midnightblue" d="M746.39,-58.55C834.71,-65.7 1011.59,-80.03 1103.7,-87.5"/>
<polygon fill="midnightblue" stroke="midnightblue" points="1103.44,-90.99 1113.69,-88.31 1104.01,-84.01 1103.44,-90.99"/>
</g>
<!-- Node12 -->
<g id="node12" class="node">
<title>Node12</title>
<g id="a_node12"><a xlink:href="a00800.html#af50d0545fe7d683e54fcd03453a423e3" target="_top" xlink:title=" ">
<polygon fill="white" stroke="black" points="796,-17.26 796,-47.26 919,-47.26 919,-17.26 796,-17.26"/>
<text text-anchor="start" x="804" y="-35.26" font-family="Helvetica,sans-Serif" font-size="10.00">LibLoader::LoaderLogger</text>
<text text-anchor="middle" x="857.5" y="-24.26" font-family="Helvetica,sans-Serif" font-size="10.00">::warning</text>
</a>
</g>
</g>
<!-- Node11&#45;&gt;Node12 -->
<g id="edge13" class="edge">
<title>Node11&#45;&gt;Node12</title>
<path fill="none" stroke="midnightblue" d="M746.42,-47.12C759.01,-45.42 772.65,-43.58 785.89,-41.79"/>
<polygon fill="midnightblue" stroke="midnightblue" points="786.48,-45.24 795.92,-40.44 785.54,-38.31 786.48,-45.24"/>
</g>
<!-- Node13 -->
<g id="node13" class="node">
<title>Node13</title>
<g id="a_node13"><a xlink:href="a00800.html#af4d7d5164450e25f7401d1cc15f15b8d" target="_top" xlink:title="实际暴露的接口">
<polygon fill="white" stroke="black" points="955,-17.26 955,-47.26 1078,-47.26 1078,-17.26 955,-17.26"/>
<text text-anchor="start" x="963" y="-35.26" font-family="Helvetica,sans-Serif" font-size="10.00">LibLoader::LoaderLogger</text>
<text text-anchor="middle" x="1016.5" y="-24.26" font-family="Helvetica,sans-Serif" font-size="10.00">::call_logger</text>
</a>
</g>
</g>
<!-- Node12&#45;&gt;Node13 -->
<g id="edge14" class="edge">
<title>Node12&#45;&gt;Node13</title>
<path fill="none" stroke="midnightblue" d="M919.2,-32.26C927.64,-32.26 936.36,-32.26 944.95,-32.26"/>
<polygon fill="midnightblue" stroke="midnightblue" points="944.96,-35.76 954.96,-32.26 944.96,-28.76 944.96,-35.76"/>
</g>
<!-- Node13&#45;&gt;Node10 -->
<g id="edge15" class="edge">
<title>Node13&#45;&gt;Node10</title>
<path fill="none" stroke="midnightblue" d="M1054.09,-47.4C1073.14,-55.28 1096.61,-65 1116.84,-73.37"/>
<polygon fill="midnightblue" stroke="midnightblue" points="1115.6,-76.64 1126.17,-77.23 1118.27,-70.17 1115.6,-76.64"/>
</g>
<!-- Node13&#45;&gt;Node11 -->
<g id="edge16" class="edge">
<title>Node13&#45;&gt;Node11</title>
<path fill="none" stroke="midnightblue" d="M967.37,-17.24C952.07,-13.15 934.97,-9.3 919,-7.26 864.77,-0.35 849.41,4.4 796,-7.26 767.6,-13.46 737.66,-28.28 717.52,-39.64"/>
<polygon fill="midnightblue" stroke="midnightblue" points="715.64,-36.68 708.74,-44.72 719.15,-42.74 715.64,-36.68"/>
</g>
</g>
</svg>
