<?xml version="1.0" encoding="UTF-8" standalone="no"?>
<!DOCTYPE svg PUBLIC "-//W3C//DTD SVG 1.1//EN"
 "http://www.w3.org/Graphics/SVG/1.1/DTD/svg11.dtd">
<!-- Generated by graphviz version 2.50.0 (20211204.2007)
 -->
<!-- Title: MiraiCP::BotLeaveEvent Pages: 1 -->
<svg width="241pt" height="614pt"
 viewBox="0.00 0.00 241.00 614.00" xmlns="http://www.w3.org/2000/svg" xmlns:xlink="http://www.w3.org/1999/xlink">
<g id="graph0" class="graph" transform="scale(1 1) rotate(0) translate(4 610)">
<title>MiraiCP::BotLeaveEvent</title>
<polygon fill="white" stroke="transparent" points="-4,4 -4,-610 237,-610 237,4 -4,4"/>
<!-- Node1 -->
<g id="node1" class="node">
<title>Node1</title>
<g id="a_node1"><a xlink:title=" ">
<polygon fill="#bfbfbf" stroke="black" points="4,-0.5 4,-112.5 143,-112.5 143,-0.5 4,-0.5"/>
<text text-anchor="middle" x="73.5" y="-100.5" font-family="Helvetica,sans-Serif" font-size="10.00">MiraiCP::BotLeaveEvent</text>
<polyline fill="none" stroke="black" points="4,-93.5 143,-93.5 "/>
<text text-anchor="start" x="12" y="-81.5" font-family="Helvetica,sans-Serif" font-size="10.00">+ Group group</text>
<text text-anchor="start" x="12" y="-70.5" font-family="Helvetica,sans-Serif" font-size="10.00">+ EventType type</text>
<text text-anchor="start" x="12" y="-59.5" font-family="Helvetica,sans-Serif" font-size="10.00">+ Member operater</text>
<polyline fill="none" stroke="black" points="4,-52.5 143,-52.5 "/>
<text text-anchor="start" x="12" y="-40.5" font-family="Helvetica,sans-Serif" font-size="10.00">+ BotLeaveEvent(BaseEvent</text>
<text text-anchor="start" x="12" y="-29.5" font-family="Helvetica,sans-Serif" font-size="10.00">Data j)</text>
<text text-anchor="start" x="12" y="-18.5" font-family="Helvetica,sans-Serif" font-size="10.00">+ static eventTypes::</text>
<text text-anchor="start" x="12" y="-7.5" font-family="Helvetica,sans-Serif" font-size="10.00">Types get_event_type()</text>
</a>
</g>
</g>
<!-- Node2 -->
<g id="node2" class="node">
<title>Node2</title>
<g id="a_node2"><a xlink:href="a00457.html" target="_top" xlink:title=" ">
<polygon fill="white" stroke="black" points="0,-150.5 0,-273.5 147,-273.5 147,-150.5 0,-150.5"/>
<text text-anchor="start" x="8" y="-261.5" font-family="Helvetica,sans-Serif" font-size="10.00">MiraiCP::BotEvent&lt;</text>
<text text-anchor="middle" x="73.5" y="-250.5" font-family="Helvetica,sans-Serif" font-size="10.00"> BotLeaveEvent &gt;</text>
<polyline fill="none" stroke="black" points="0,-243.5 147,-243.5 "/>
<text text-anchor="start" x="8" y="-231.5" font-family="Helvetica,sans-Serif" font-size="10.00">+ Bot bot</text>
<text text-anchor="start" x="8" y="-220.5" font-family="Helvetica,sans-Serif" font-size="10.00">+ IdLogger botlogger</text>
<polyline fill="none" stroke="black" points="0,-213.5 147,-213.5 "/>
<text text-anchor="start" x="8" y="-201.5" font-family="Helvetica,sans-Serif" font-size="10.00">+ eventTypes::Types getEvent</text>
<text text-anchor="start" x="8" y="-190.5" font-family="Helvetica,sans-Serif" font-size="10.00">Type() const override</text>
<text text-anchor="start" x="8" y="-179.5" font-family="Helvetica,sans-Serif" font-size="10.00">+ BotEvent(QQID botid)</text>
<text text-anchor="start" x="8" y="-168.5" font-family="Helvetica,sans-Serif" font-size="10.00">+ virtual ~BotEvent()</text>
<text text-anchor="start" x="8" y="-157.5" font-family="Helvetica,sans-Serif" font-size="10.00">=default</text>
</a>
</g>
</g>
<!-- Node2&#45;&gt;Node1 -->
<g id="edge1" class="edge">
<title>Node2&#45;&gt;Node1</title>
<path fill="none" stroke="midnightblue" d="M73.5,-140.06C73.5,-130.89 73.5,-121.61 73.5,-112.74"/>
<polygon fill="none" stroke="midnightblue" points="70,-140.33 73.5,-150.33 77,-140.33 70,-140.33"/>
</g>
<!-- Node3 -->
<g id="node3" class="node">
<title>Node3</title>
<g id="a_node3"><a xlink:href="a00453.html" target="_top" xlink:title="Event抽象父类">
<polygon fill="white" stroke="black" points="7,-471.5 7,-605.5 132,-605.5 132,-471.5 7,-471.5"/>
<text text-anchor="middle" x="69.5" y="-593.5" font-family="Helvetica,sans-Serif" font-size="10.00">MiraiCP::MiraiCPEvent</text>
<polyline fill="none" stroke="black" points="7,-586.5 132,-586.5 "/>
<text text-anchor="middle" x="69.5" y="-574.5" font-family="Helvetica,sans-Serif" font-size="10.00"> </text>
<polyline fill="none" stroke="black" points="7,-567.5 132,-567.5 "/>
<text text-anchor="start" x="15" y="-555.5" font-family="Helvetica,sans-Serif" font-size="10.00">+ MiraiCPEvent()=default</text>
<text text-anchor="start" x="15" y="-544.5" font-family="Helvetica,sans-Serif" font-size="10.00">+ virtual ~MiraiCPEvent</text>
<text text-anchor="start" x="15" y="-533.5" font-family="Helvetica,sans-Serif" font-size="10.00">()=default</text>
<text text-anchor="start" x="15" y="-522.5" font-family="Helvetica,sans-Serif" font-size="10.00">+ virtual eventTypes</text>
<text text-anchor="start" x="15" y="-511.5" font-family="Helvetica,sans-Serif" font-size="10.00">::Types getEventType</text>
<text text-anchor="start" x="15" y="-500.5" font-family="Helvetica,sans-Serif" font-size="10.00">() const =0</text>
<text text-anchor="start" x="15" y="-489.5" font-family="Helvetica,sans-Serif" font-size="10.00">+ static eventTypes::</text>
<text text-anchor="start" x="15" y="-478.5" font-family="Helvetica,sans-Serif" font-size="10.00">Types get_event_type()</text>
</a>
</g>
</g>
<!-- Node3&#45;&gt;Node2 -->
<g id="edge2" class="edge">
<title>Node3&#45;&gt;Node2</title>
<path fill="none" stroke="midnightblue" d="M70.44,-461.36C71.14,-404.16 72.1,-326.85 72.75,-273.76"/>
<polygon fill="none" stroke="midnightblue" points="66.94,-461.4 70.31,-471.44 73.94,-461.49 66.94,-461.4"/>
</g>
<!-- Node4 -->
<g id="node4" class="node">
<title>Node4</title>
<g id="a_node4"><a xlink:href="a00457.html" target="_top" xlink:title="所有事件处理timeoutevent都是机器人事件，指都有机器人实例">
<polygon fill="white" stroke="black" points="86,-321.5 86,-433.5 233,-433.5 233,-321.5 86,-321.5"/>
<text text-anchor="middle" x="159.5" y="-421.5" font-family="Helvetica,sans-Serif" font-size="10.00">MiraiCP::BotEvent&lt; T &gt;</text>
<polyline fill="none" stroke="black" points="86,-414.5 233,-414.5 "/>
<text text-anchor="start" x="94" y="-402.5" font-family="Helvetica,sans-Serif" font-size="10.00">+ Bot bot</text>
<text text-anchor="start" x="94" y="-391.5" font-family="Helvetica,sans-Serif" font-size="10.00">+ IdLogger botlogger</text>
<polyline fill="none" stroke="black" points="86,-384.5 233,-384.5 "/>
<text text-anchor="start" x="94" y="-372.5" font-family="Helvetica,sans-Serif" font-size="10.00">+ eventTypes::Types getEvent</text>
<text text-anchor="start" x="94" y="-361.5" font-family="Helvetica,sans-Serif" font-size="10.00">Type() const override</text>
<text text-anchor="start" x="94" y="-350.5" font-family="Helvetica,sans-Serif" font-size="10.00">+ BotEvent(QQID botid)</text>
<text text-anchor="start" x="94" y="-339.5" font-family="Helvetica,sans-Serif" font-size="10.00">+ virtual ~BotEvent()</text>
<text text-anchor="start" x="94" y="-328.5" font-family="Helvetica,sans-Serif" font-size="10.00">=default</text>
</a>
</g>
</g>
<!-- Node3&#45;&gt;Node4 -->
<g id="edge4" class="edge">
<title>Node3&#45;&gt;Node4</title>
<path fill="none" stroke="midnightblue" d="M111.88,-462.63C117.34,-452.99 122.85,-443.25 128.09,-433.99"/>
<polygon fill="none" stroke="midnightblue" points="108.77,-461.02 106.89,-471.45 114.86,-464.47 108.77,-461.02"/>
</g>
<!-- Node4&#45;&gt;Node2 -->
<g id="edge3" class="edge">
<title>Node4&#45;&gt;Node2</title>
<path fill="none" stroke="orange" d="M125.6,-312.05C118.94,-299.39 111.98,-286.15 105.39,-273.63"/>
<polygon fill="orange" stroke="orange" points="122.63,-313.93 130.38,-321.15 128.83,-310.67 122.63,-313.93"/>
<text text-anchor="middle" x="161" y="-295" font-family="Helvetica,sans-Serif" font-size="10.00"> &lt; BotLeaveEvent &gt;</text>
</g>
</g>
</svg>
