<?xml version="1.0" encoding="UTF-8" standalone="no"?>
<!DOCTYPE svg PUBLIC "-//W3C//DTD SVG 1.1//EN"
 "http://www.w3.org/Graphics/SVG/1.1/DTD/svg11.dtd">
<!-- Generated by graphviz version 9.0.0 (0)
 -->
<!-- Title: MiraiCP::MiraiCPException Pages: 1 -->
<svg width="250pt" height="835pt"
 viewBox="0.00 0.00 250.25 835.00" xmlns="http://www.w3.org/2000/svg" xmlns:xlink="http://www.w3.org/1999/xlink">
<g id="graph0" class="graph" transform="scale(1 1) rotate(0) translate(4 831)">
<title>MiraiCP::MiraiCPException</title>
<!-- Node1 -->
<g id="Node000001" class="node">
<title>Node1</title>
<g id="a_Node000001"><a xlink:title="通用MiraiCP异常">
<polygon fill="#999999" stroke="none" points="145,-52 15,-52 15,0 145,0 145,-52"/>
<text text-anchor="start" x="20" y="-38.5" font-family="Helvetica,sans-Serif" font-size="10.00">MiraiCP::MiraiCPException</text>
<text text-anchor="start" x="78.5" y="-22.5" font-family="Helvetica,sans-Serif" font-size="10.00"> </text>
<text text-anchor="start" x="78.5" y="-6.5" font-family="Helvetica,sans-Serif" font-size="10.00"> </text>
<polygon fill="#666666" stroke="#666666" points="15,-34 15,-34 145,-34 145,-34 15,-34"/>
<polygon fill="#666666" stroke="#666666" points="15,-18 15,-18 145,-18 145,-18 15,-18"/>
<polygon fill="none" stroke="#666666" points="15,0 15,-52 145,-52 145,0 15,0"/>
</a>
</g>
</g>
<!-- Node2 -->
<g id="Node000002" class="node">
<title>Node2</title>
<g id="a_Node000002"><a xlink:href="a00580.html" target="_top" xlink:title=" ">
<polygon fill="white" stroke="none" points="158,-217 2,-217 2,-89 158,-89 158,-217"/>
<text text-anchor="start" x="6.88" y="-203.5" font-family="Helvetica,sans-Serif" font-size="10.00">MiraiCP::MiraiCPException</text>
<text text-anchor="start" x="6.88" y="-191.5" font-family="Helvetica,sans-Serif" font-size="10.00">CRTP&lt; MiraiCPExceptionBase &gt;</text>
<text text-anchor="start" x="78.5" y="-175.5" font-family="Helvetica,sans-Serif" font-size="10.00"> </text>
<text text-anchor="start" x="14" y="-159.5" font-family="Helvetica,sans-Serif" font-size="10.00">+</text>
<text text-anchor="start" x="32" y="-159.5" font-family="Helvetica,sans-Serif" font-size="10.00">MiraiCPExceptionCRTP</text>
<text text-anchor="start" x="32" y="-147.5" font-family="Helvetica,sans-Serif" font-size="10.00">(nlohmann::json info,</text>
<text text-anchor="start" x="32" y="-135.5" font-family="Helvetica,sans-Serif" font-size="10.00"> string _filename, int</text>
<text text-anchor="start" x="32" y="-123.5" font-family="Helvetica,sans-Serif" font-size="10.00"> _lineNum)</text>
<text text-anchor="start" x="14" y="-107.5" font-family="Helvetica,sans-Serif" font-size="10.00">+</text>
<text text-anchor="start" x="32" y="-107.5" font-family="Helvetica,sans-Serif" font-size="10.00">string getExceptionType</text>
<text text-anchor="start" x="32" y="-95.5" font-family="Helvetica,sans-Serif" font-size="10.00">() const override</text>
<polygon fill="#666666" stroke="#666666" points="2,-187 2,-187 158,-187 158,-187 2,-187"/>
<polygon fill="#666666" stroke="#666666" points="2,-171 2,-171 158,-171 158,-171 2,-171"/>
<polygon fill="none" stroke="#666666" points="2,-89 2,-217 158,-217 158,-89 2,-89"/>
</a>
</g>
</g>
<!-- Node2&#45;&gt;Node1 -->
<g id="edge1_Node000001_Node000002" class="edge">
<title>Node2&#45;&gt;Node1</title>
<g id="a_edge1_Node000001_Node000002"><a xlink:title=" ">
<path fill="none" stroke="#63b8ff" d="M80,-77.7C80,-68.43 80,-59.52 80,-51.82"/>
<polygon fill="none" stroke="#63b8ff" points="76.5,-77.62 80,-87.62 83.5,-77.62 76.5,-77.62"/>
</a>
</g>
</g>
<!-- Node3 -->
<g id="Node000003" class="node">
<title>Node3</title>
<g id="a_Node000003"><a xlink:href="a00576.html" target="_top" xlink:title="总异常抽象类，用于一般捕获，不要直接抛出该类，不知道抛出什么的时候请抛出 MiraiCPException">
<polygon fill="white" stroke="none" points="152,-738 0,-738 0,-430 152,-430 152,-738"/>
<text text-anchor="start" x="4.75" y="-724.5" font-family="Helvetica,sans-Serif" font-size="10.00">MiraiCP::MiraiCPExceptionBase</text>
<text text-anchor="start" x="6.5" y="-708.5" font-family="Helvetica,sans-Serif" font-size="10.00">+</text>
<text text-anchor="start" x="19" y="-708.5" font-family="Helvetica,sans-Serif" font-size="10.00">string filename</text>
<text text-anchor="start" x="6.5" y="-692.5" font-family="Helvetica,sans-Serif" font-size="10.00">+</text>
<text text-anchor="start" x="19" y="-692.5" font-family="Helvetica,sans-Serif" font-size="10.00">int lineNum</text>
<text text-anchor="start" x="6.88" y="-676.5" font-family="Helvetica,sans-Serif" font-size="10.00">#</text>
<text text-anchor="start" x="19" y="-676.5" font-family="Helvetica,sans-Serif" font-size="10.00">string cause</text>
<text text-anchor="start" x="6.5" y="-660.5" font-family="Helvetica,sans-Serif" font-size="10.00">+</text>
<text text-anchor="start" x="19" y="-660.5" font-family="Helvetica,sans-Serif" font-size="10.00">~MiraiCPExceptionBase</text>
<text text-anchor="start" x="19" y="-648.5" font-family="Helvetica,sans-Serif" font-size="10.00">() override=default</text>
<text text-anchor="start" x="6.5" y="-632.5" font-family="Helvetica,sans-Serif" font-size="10.00">+</text>
<text text-anchor="start" x="19" y="-632.5" font-family="Helvetica,sans-Serif" font-size="10.00">const char * what()</text>
<text text-anchor="start" x="19" y="-620.5" font-family="Helvetica,sans-Serif" font-size="10.00"> const noexcept override</text>
<text text-anchor="start" x="6.5" y="-604.5" font-family="Helvetica,sans-Serif" font-size="10.00">+</text>
<text text-anchor="start" x="19" y="-604.5" font-family="Helvetica,sans-Serif" font-size="10.00">string getError() const</text>
<text text-anchor="start" x="6.5" y="-588.5" font-family="Helvetica,sans-Serif" font-size="10.00">+</text>
<text text-anchor="start" x="19" y="-588.5" font-family="Helvetica,sans-Serif" font-size="10.00">nlohmann::json getCause</text>
<text text-anchor="start" x="19" y="-576.5" font-family="Helvetica,sans-Serif" font-size="10.00">() const</text>
<text text-anchor="start" x="6.5" y="-560.5" font-family="Helvetica,sans-Serif" font-size="10.00">+</text>
<text text-anchor="start" x="19" y="-560.5" font-family="Helvetica,sans-Serif" font-size="10.00">void raise() const</text>
<text text-anchor="start" x="6.5" y="-544.5" font-family="Helvetica,sans-Serif" font-size="10.00">+</text>
<text text-anchor="start" x="19" y="-544.5" font-family="Helvetica,sans-Serif" font-size="10.00">virtual void basicRaise</text>
<text text-anchor="start" x="19" y="-532.5" font-family="Helvetica,sans-Serif" font-size="10.00">() const</text>
<text text-anchor="start" x="6.5" y="-516.5" font-family="Helvetica,sans-Serif" font-size="10.00">+</text>
<text text-anchor="start" x="19" y="-516.5" font-family="Helvetica,sans-Serif" font-size="10.00">virtual string getException</text>
<text text-anchor="start" x="19" y="-504.5" font-family="Helvetica,sans-Serif" font-size="10.00">Type() const =0</text>
<text text-anchor="start" x="6.5" y="-488.5" font-family="Helvetica,sans-Serif" font-size="10.00">+</text>
<text text-anchor="start" x="19" y="-488.5" font-family="Helvetica,sans-Serif" font-size="10.00">static string exceptionType()</text>
<text text-anchor="start" x="6.88" y="-472.5" font-family="Helvetica,sans-Serif" font-size="10.00">#</text>
<text text-anchor="start" x="19" y="-472.5" font-family="Helvetica,sans-Serif" font-size="10.00">MiraiCPExceptionBase</text>
<text text-anchor="start" x="19" y="-460.5" font-family="Helvetica,sans-Serif" font-size="10.00">(const nlohmann::json</text>
<text text-anchor="start" x="19" y="-448.5" font-family="Helvetica,sans-Serif" font-size="10.00"> &amp;info, string _filename,</text>
<text text-anchor="start" x="19" y="-436.5" font-family="Helvetica,sans-Serif" font-size="10.00"> int _lineNum)</text>
<polygon fill="#666666" stroke="#666666" points="0,-720 0,-720 152,-720 152,-720 0,-720"/>
<polygon fill="#666666" stroke="#666666" points="0,-672 0,-672 17,-672 17,-672 0,-672"/>
<polygon fill="#666666" stroke="#666666" points="17,-672 17,-672 152,-672 152,-672 17,-672"/>
<polygon fill="none" stroke="#666666" points="0,-430 0,-738 152,-738 152,-430 0,-430"/>
</a>
</g>
</g>
<!-- Node3&#45;&gt;Node2 -->
<g id="edge2_Node000002_Node000003" class="edge">
<title>Node3&#45;&gt;Node2</title>
<g id="a_edge2_Node000002_Node000003"><a xlink:title=" ">
<path fill="none" stroke="#63b8ff" d="M77.53,-418.98C78.19,-348.36 78.92,-270 79.41,-216.94"/>
<polygon fill="none" stroke="#63b8ff" points="74.03,-418.69 77.44,-428.73 81.03,-418.76 74.03,-418.69"/>
</a>
</g>
</g>
<!-- Node5 -->
<g id="Node000005" class="node">
<title>Node5</title>
<g id="a_Node000005"><a xlink:href="a00580.html" target="_top" xlink:title="总异常CRTP抽象类，不要直接抛出该类，不知道抛出什么的时候请抛出 MiraiCPException。 该类是用于继承的基类，需要新的异常类型时，继承该类并以子类作为模板参数。 子类需要实现的方法：">
<polygon fill="white" stroke="none" points="222,-393 92,-393 92,-265 222,-265 222,-393"/>
<text text-anchor="start" x="97" y="-379.5" font-family="Helvetica,sans-Serif" font-size="10.00">MiraiCP::MiraiCPException</text>
<text text-anchor="start" x="131.88" y="-367.5" font-family="Helvetica,sans-Serif" font-size="10.00">CRTP&lt; T &gt;</text>
<text text-anchor="start" x="155.5" y="-351.5" font-family="Helvetica,sans-Serif" font-size="10.00"> </text>
<text text-anchor="start" x="97.5" y="-335.5" font-family="Helvetica,sans-Serif" font-size="10.00">+</text>
<text text-anchor="start" x="109" y="-335.5" font-family="Helvetica,sans-Serif" font-size="10.00">MiraiCPExceptionCRTP</text>
<text text-anchor="start" x="109" y="-323.5" font-family="Helvetica,sans-Serif" font-size="10.00">(nlohmann::json info,</text>
<text text-anchor="start" x="109" y="-311.5" font-family="Helvetica,sans-Serif" font-size="10.00"> string _filename, int</text>
<text text-anchor="start" x="109" y="-299.5" font-family="Helvetica,sans-Serif" font-size="10.00"> _lineNum)</text>
<text text-anchor="start" x="97.5" y="-283.5" font-family="Helvetica,sans-Serif" font-size="10.00">+</text>
<text text-anchor="start" x="109" y="-283.5" font-family="Helvetica,sans-Serif" font-size="10.00">string getExceptionType</text>
<text text-anchor="start" x="109" y="-271.5" font-family="Helvetica,sans-Serif" font-size="10.00">() const override</text>
<polygon fill="#666666" stroke="#666666" points="92,-363 92,-363 222,-363 222,-363 92,-363"/>
<polygon fill="#666666" stroke="#666666" points="92,-347 92,-347 222,-347 222,-347 92,-347"/>
<polygon fill="none" stroke="#666666" points="92,-265 92,-393 222,-393 222,-265 92,-265"/>
</a>
</g>
</g>
<!-- Node3&#45;&gt;Node5 -->
<g id="edge5_Node000005_Node000003" class="edge">
<title>Node3&#45;&gt;Node5</title>
<g id="a_edge5_Node000005_Node000003"><a xlink:title=" ">
<path fill="none" stroke="#63b8ff" d="M128.36,-419.45C131.3,-410.27 134.15,-401.37 136.84,-392.97"/>
<polygon fill="none" stroke="#63b8ff" points="125.05,-418.32 125.33,-428.91 131.71,-420.46 125.05,-418.32"/>
</a>
</g>
</g>
<!-- Node4 -->
<g id="Node000004" class="node">
<title>Node4</title>
<g id="a_Node000004"><a xlink:title=" ">
<polygon fill="white" stroke="none" points="111.5,-827 40.5,-827 40.5,-775 111.5,-775 111.5,-827"/>
<text text-anchor="start" x="45.25" y="-813.5" font-family="Helvetica,sans-Serif" font-size="10.00">std::exception</text>
<text text-anchor="start" x="74.5" y="-797.5" font-family="Helvetica,sans-Serif" font-size="10.00"> </text>
<text text-anchor="start" x="74.5" y="-781.5" font-family="Helvetica,sans-Serif" font-size="10.00"> </text>
<polygon fill="#666666" stroke="#666666" points="40.5,-809 40.5,-809 111.5,-809 111.5,-809 40.5,-809"/>
<polygon fill="#666666" stroke="#666666" points="40.5,-793 40.5,-793 111.5,-793 111.5,-793 40.5,-793"/>
<polygon fill="none" stroke="#666666" points="40.5,-775 40.5,-827 111.5,-827 111.5,-775 40.5,-775"/>
</a>
</g>
</g>
<!-- Node4&#45;&gt;Node3 -->
<g id="edge3_Node000003_Node000004" class="edge">
<title>Node4&#45;&gt;Node3</title>
<g id="a_edge3_Node000003_Node000004"><a xlink:title=" ">
<path fill="none" stroke="#63b8ff" d="M76,-764.05C76,-756.1 76,-747.2 76,-737.71"/>
<polygon fill="none" stroke="#63b8ff" points="72.5,-763.82 76,-773.82 79.5,-763.82 72.5,-763.82"/>
</a>
</g>
</g>
<!-- Node5&#45;&gt;Node2 -->
<g id="edge4_Node000002_Node000005" class="edge">
<title>Node5&#45;&gt;Node2</title>
<g id="a_edge4_Node000002_Node000005"><a xlink:title=" ">
<path fill="none" stroke="orange" d="M124.56,-254.69C118.97,-242.06 113.21,-229.04 107.76,-216.73"/>
<polygon fill="orange" stroke="orange" points="121.34,-256.07 128.59,-263.8 127.74,-253.24 121.34,-256.07"/>
</a>
</g>
<text text-anchor="middle" x="181.12" y="-237.5" font-family="Helvetica,sans-Serif" font-size="10.00" fill="grey"> &lt; MiraiCPExceptionBase &gt;</text>
</g>
</g>
</svg>
