<?xml version="1.0" encoding="UTF-8" standalone="no"?>
<!DOCTYPE svg PUBLIC "-//W3C//DTD SVG 1.1//EN"
 "http://www.w3.org/Graphics/SVG/1.1/DTD/svg11.dtd">
<!-- Generated by graphviz version 2.50.0 (20211204.2007)
 -->
<!-- Title: MiraiCP::MemberJoinRequestEvent Pages: 1 -->
<svg width="261pt" height="746pt"
 viewBox="0.00 0.00 260.50 746.00" xmlns="http://www.w3.org/2000/svg" xmlns:xlink="http://www.w3.org/1999/xlink">
<g id="graph0" class="graph" transform="scale(1 1) rotate(0) translate(4 742)">
<title>MiraiCP::MemberJoinRequestEvent</title>
<polygon fill="white" stroke="transparent" points="-4,4 -4,-742 256.5,-742 256.5,4 -4,4"/>
<!-- Node1 -->
<g id="node1" class="node">
<title>Node1</title>
<g id="a_node1"><a xlink:title="申请加群事件, bot需为管理员或者群主">
<polygon fill="#bfbfbf" stroke="black" points="0.5,-0.5 0.5,-244.5 146.5,-244.5 146.5,-0.5 0.5,-0.5"/>
<text text-anchor="start" x="8.5" y="-232.5" font-family="Helvetica,sans-Serif" font-size="10.00">MiraiCP::MemberJoinRequest</text>
<text text-anchor="middle" x="73.5" y="-221.5" font-family="Helvetica,sans-Serif" font-size="10.00">Event</text>
<polyline fill="none" stroke="black" points="0.5,-214.5 146.5,-214.5 "/>
<text text-anchor="start" x="8.5" y="-202.5" font-family="Helvetica,sans-Serif" font-size="10.00">+ Group group</text>
<text text-anchor="start" x="8.5" y="-191.5" font-family="Helvetica,sans-Serif" font-size="10.00">+ std::optional&lt; Member</text>
<text text-anchor="start" x="8.5" y="-180.5" font-family="Helvetica,sans-Serif" font-size="10.00"> &gt; inviter</text>
<text text-anchor="start" x="8.5" y="-169.5" font-family="Helvetica,sans-Serif" font-size="10.00">+ Member from</text>
<text text-anchor="start" x="8.5" y="-158.5" font-family="Helvetica,sans-Serif" font-size="10.00">+ std::string fromNick</text>
<text text-anchor="start" x="8.5" y="-147.5" font-family="Helvetica,sans-Serif" font-size="10.00">+ std::string message</text>
<text text-anchor="start" x="8.5" y="-136.5" font-family="Helvetica,sans-Serif" font-size="10.00">&#45; std::string source</text>
<polyline fill="none" stroke="black" points="0.5,-129.5 146.5,-129.5 "/>
<text text-anchor="start" x="8.5" y="-117.5" font-family="Helvetica,sans-Serif" font-size="10.00">+ MemberJoinRequestEvent</text>
<text text-anchor="start" x="8.5" y="-106.5" font-family="Helvetica,sans-Serif" font-size="10.00">(BaseEventData j)</text>
<text text-anchor="start" x="8.5" y="-95.5" font-family="Helvetica,sans-Serif" font-size="10.00">+ void accept()</text>
<text text-anchor="start" x="8.5" y="-84.5" font-family="Helvetica,sans-Serif" font-size="10.00">+ void reject(const std</text>
<text text-anchor="start" x="8.5" y="-73.5" font-family="Helvetica,sans-Serif" font-size="10.00">::string &amp;msg)</text>
<text text-anchor="start" x="8.5" y="-62.5" font-family="Helvetica,sans-Serif" font-size="10.00">+ static void operate</text>
<text text-anchor="start" x="8.5" y="-51.5" font-family="Helvetica,sans-Serif" font-size="10.00">(std::string_view s,</text>
<text text-anchor="start" x="8.5" y="-40.5" font-family="Helvetica,sans-Serif" font-size="10.00"> QQID botid, bool sign,</text>
<text text-anchor="start" x="8.5" y="-29.5" font-family="Helvetica,sans-Serif" font-size="10.00"> const std::string &amp;msg=&quot;&quot;)</text>
<text text-anchor="start" x="8.5" y="-18.5" font-family="Helvetica,sans-Serif" font-size="10.00">+ static eventTypes::</text>
<text text-anchor="start" x="8.5" y="-7.5" font-family="Helvetica,sans-Serif" font-size="10.00">Types get_event_type()</text>
</a>
</g>
</g>
<!-- Node2 -->
<g id="node2" class="node">
<title>Node2</title>
<g id="a_node2"><a xlink:href="a00469.html" target="_top" xlink:title=" ">
<polygon fill="white" stroke="black" points="0,-282.5 0,-405.5 147,-405.5 147,-282.5 0,-282.5"/>
<text text-anchor="start" x="8" y="-393.5" font-family="Helvetica,sans-Serif" font-size="10.00">MiraiCP::BotEvent&lt;</text>
<text text-anchor="middle" x="73.5" y="-382.5" font-family="Helvetica,sans-Serif" font-size="10.00"> MemberJoinRequestEvent &gt;</text>
<polyline fill="none" stroke="black" points="0,-375.5 147,-375.5 "/>
<text text-anchor="start" x="8" y="-363.5" font-family="Helvetica,sans-Serif" font-size="10.00">+ Bot bot</text>
<text text-anchor="start" x="8" y="-352.5" font-family="Helvetica,sans-Serif" font-size="10.00">+ IdLogger botlogger</text>
<polyline fill="none" stroke="black" points="0,-345.5 147,-345.5 "/>
<text text-anchor="start" x="8" y="-333.5" font-family="Helvetica,sans-Serif" font-size="10.00">+ eventTypes::Types getEvent</text>
<text text-anchor="start" x="8" y="-322.5" font-family="Helvetica,sans-Serif" font-size="10.00">Type() const override</text>
<text text-anchor="start" x="8" y="-311.5" font-family="Helvetica,sans-Serif" font-size="10.00">+ BotEvent(QQID botid)</text>
<text text-anchor="start" x="8" y="-300.5" font-family="Helvetica,sans-Serif" font-size="10.00">+ virtual ~BotEvent()</text>
<text text-anchor="start" x="8" y="-289.5" font-family="Helvetica,sans-Serif" font-size="10.00">=default</text>
</a>
</g>
</g>
<!-- Node2&#45;&gt;Node1 -->
<g id="edge1" class="edge">
<title>Node2&#45;&gt;Node1</title>
<path fill="none" stroke="midnightblue" d="M73.5,-272.27C73.5,-263.44 73.5,-254.23 73.5,-244.9"/>
<polygon fill="none" stroke="midnightblue" points="70,-272.44 73.5,-282.44 77,-272.44 70,-272.44"/>
</g>
<!-- Node3 -->
<g id="node3" class="node">
<title>Node3</title>
<g id="a_node3"><a xlink:href="a00465.html" target="_top" xlink:title="Event抽象父类">
<polygon fill="white" stroke="black" points="7,-603.5 7,-737.5 132,-737.5 132,-603.5 7,-603.5"/>
<text text-anchor="middle" x="69.5" y="-725.5" font-family="Helvetica,sans-Serif" font-size="10.00">MiraiCP::MiraiCPEvent</text>
<polyline fill="none" stroke="black" points="7,-718.5 132,-718.5 "/>
<text text-anchor="middle" x="69.5" y="-706.5" font-family="Helvetica,sans-Serif" font-size="10.00"> </text>
<polyline fill="none" stroke="black" points="7,-699.5 132,-699.5 "/>
<text text-anchor="start" x="15" y="-687.5" font-family="Helvetica,sans-Serif" font-size="10.00">+ MiraiCPEvent()=default</text>
<text text-anchor="start" x="15" y="-676.5" font-family="Helvetica,sans-Serif" font-size="10.00">+ virtual ~MiraiCPEvent</text>
<text text-anchor="start" x="15" y="-665.5" font-family="Helvetica,sans-Serif" font-size="10.00">()=default</text>
<text text-anchor="start" x="15" y="-654.5" font-family="Helvetica,sans-Serif" font-size="10.00">+ virtual eventTypes</text>
<text text-anchor="start" x="15" y="-643.5" font-family="Helvetica,sans-Serif" font-size="10.00">::Types getEventType</text>
<text text-anchor="start" x="15" y="-632.5" font-family="Helvetica,sans-Serif" font-size="10.00">() const =0</text>
<text text-anchor="start" x="15" y="-621.5" font-family="Helvetica,sans-Serif" font-size="10.00">+ static eventTypes::</text>
<text text-anchor="start" x="15" y="-610.5" font-family="Helvetica,sans-Serif" font-size="10.00">Types get_event_type()</text>
</a>
</g>
</g>
<!-- Node3&#45;&gt;Node2 -->
<g id="edge2" class="edge">
<title>Node3&#45;&gt;Node2</title>
<path fill="none" stroke="midnightblue" d="M70.44,-593.36C71.14,-536.16 72.1,-458.85 72.75,-405.76"/>
<polygon fill="none" stroke="midnightblue" points="66.94,-593.4 70.31,-603.44 73.94,-593.49 66.94,-593.4"/>
</g>
<!-- Node4 -->
<g id="node4" class="node">
<title>Node4</title>
<g id="a_node4"><a xlink:href="a00469.html" target="_top" xlink:title="所有事件处理timeoutevent都是机器人事件，指都有机器人实例">
<polygon fill="white" stroke="black" points="86,-453.5 86,-565.5 233,-565.5 233,-453.5 86,-453.5"/>
<text text-anchor="middle" x="159.5" y="-553.5" font-family="Helvetica,sans-Serif" font-size="10.00">MiraiCP::BotEvent&lt; T &gt;</text>
<polyline fill="none" stroke="black" points="86,-546.5 233,-546.5 "/>
<text text-anchor="start" x="94" y="-534.5" font-family="Helvetica,sans-Serif" font-size="10.00">+ Bot bot</text>
<text text-anchor="start" x="94" y="-523.5" font-family="Helvetica,sans-Serif" font-size="10.00">+ IdLogger botlogger</text>
<polyline fill="none" stroke="black" points="86,-516.5 233,-516.5 "/>
<text text-anchor="start" x="94" y="-504.5" font-family="Helvetica,sans-Serif" font-size="10.00">+ eventTypes::Types getEvent</text>
<text text-anchor="start" x="94" y="-493.5" font-family="Helvetica,sans-Serif" font-size="10.00">Type() const override</text>
<text text-anchor="start" x="94" y="-482.5" font-family="Helvetica,sans-Serif" font-size="10.00">+ BotEvent(QQID botid)</text>
<text text-anchor="start" x="94" y="-471.5" font-family="Helvetica,sans-Serif" font-size="10.00">+ virtual ~BotEvent()</text>
<text text-anchor="start" x="94" y="-460.5" font-family="Helvetica,sans-Serif" font-size="10.00">=default</text>
</a>
</g>
</g>
<!-- Node3&#45;&gt;Node4 -->
<g id="edge4" class="edge">
<title>Node3&#45;&gt;Node4</title>
<path fill="none" stroke="midnightblue" d="M111.88,-594.63C117.34,-584.99 122.85,-575.25 128.09,-565.99"/>
<polygon fill="none" stroke="midnightblue" points="108.77,-593.02 106.89,-603.45 114.86,-596.47 108.77,-593.02"/>
</g>
<!-- Node4&#45;&gt;Node2 -->
<g id="edge3" class="edge">
<title>Node4&#45;&gt;Node2</title>
<path fill="none" stroke="orange" d="M125.6,-444.05C118.94,-431.39 111.98,-418.15 105.39,-405.63"/>
<polygon fill="orange" stroke="orange" points="122.63,-445.93 130.38,-453.15 128.83,-442.67 122.63,-445.93"/>
<text text-anchor="middle" x="185.5" y="-427" font-family="Helvetica,sans-Serif" font-size="10.00"> &lt; MemberJoinRequestEvent &gt;</text>
</g>
</g>
</svg>
