<?xml version="1.0" encoding="UTF-8" standalone="no"?>
<!DOCTYPE svg PUBLIC "-//W3C//DTD SVG 1.1//EN"
 "http://www.w3.org/Graphics/SVG/1.1/DTD/svg11.dtd">
<!-- Generated by graphviz version 2.50.0 (20211204.2007)
 -->
<!-- Title: MiraiCP::NodeHandle Pages: 1 -->
<svg width="125pt" height="248pt"
 viewBox="0.00 0.00 125.00 248.00" xmlns="http://www.w3.org/2000/svg" xmlns:xlink="http://www.w3.org/1999/xlink">
<g id="graph0" class="graph" transform="scale(1 1) rotate(0) translate(4 244)">
<title>MiraiCP::NodeHandle</title>
<polygon fill="white" stroke="transparent" points="-4,4 -4,-244 121,-244 121,4 -4,4"/>
<!-- Node1 -->
<g id="node1" class="node">
<title>Node1</title>
<g id="a_node1"><a xlink:title="事件监听操控, 可用于stop停止监听和resume继续监听">
<polygon fill="#bfbfbf" stroke="black" points="0,-0.5 0,-134.5 117,-134.5 117,-0.5 0,-0.5"/>
<text text-anchor="middle" x="58.5" y="-122.5" font-family="Helvetica,sans-Serif" font-size="10.00">MiraiCP::NodeHandle</text>
<polyline fill="none" stroke="black" points="0,-115.5 117,-115.5 "/>
<text text-anchor="middle" x="58.5" y="-103.5" font-family="Helvetica,sans-Serif" font-size="10.00"> </text>
<polyline fill="none" stroke="black" points="0,-96.5 117,-96.5 "/>
<text text-anchor="start" x="8" y="-84.5" font-family="Helvetica,sans-Serif" font-size="10.00">+ NodeHandle(bool a)</text>
<text text-anchor="start" x="8" y="-73.5" font-family="Helvetica,sans-Serif" font-size="10.00">+ bool isEnable() const</text>
<text text-anchor="start" x="8" y="-62.5" font-family="Helvetica,sans-Serif" font-size="10.00">+ void stop()</text>
<text text-anchor="start" x="8" y="-51.5" font-family="Helvetica,sans-Serif" font-size="10.00">+ void resume()</text>
<text text-anchor="start" x="8" y="-40.5" font-family="Helvetica,sans-Serif" font-size="10.00">+ NodeHandle(bool a)</text>
<text text-anchor="start" x="8" y="-29.5" font-family="Helvetica,sans-Serif" font-size="10.00">+ bool isEnable() const</text>
<text text-anchor="start" x="8" y="-18.5" font-family="Helvetica,sans-Serif" font-size="10.00">+ void stop()</text>
<text text-anchor="start" x="8" y="-7.5" font-family="Helvetica,sans-Serif" font-size="10.00">+ void resume()</text>
</a>
</g>
</g>
<!-- Node2 -->
<g id="node2" class="node">
<title>Node2</title>
<g id="a_node2"><a xlink:title=" ">
<polygon fill="white" stroke="#bfbfbf" points="41,-182.5 41,-239.5 76,-239.5 76,-182.5 41,-182.5"/>
<text text-anchor="middle" x="58.5" y="-227.5" font-family="Helvetica,sans-Serif" font-size="10.00">bool</text>
<polyline fill="none" stroke="#bfbfbf" points="41,-220.5 76,-220.5 "/>
<text text-anchor="middle" x="58.5" y="-208.5" font-family="Helvetica,sans-Serif" font-size="10.00"> </text>
<polyline fill="none" stroke="#bfbfbf" points="41,-201.5 76,-201.5 "/>
<text text-anchor="middle" x="58.5" y="-189.5" font-family="Helvetica,sans-Serif" font-size="10.00"> </text>
</a>
</g>
</g>
<!-- Node2&#45;&gt;Node1 -->
<g id="edge1" class="edge">
<title>Node2&#45;&gt;Node1</title>
<path fill="none" stroke="#404040" d="M58.5,-182.38C58.5,-172.02 58.5,-159.66 58.5,-146.97"/>
<polygon fill="none" stroke="#404040" points="58.5,-146.75 54.5,-140.75 58.5,-134.75 62.5,-140.75 58.5,-146.75"/>
<text text-anchor="middle" x="78.5" y="-156" font-family="Helvetica,sans-Serif" font-size="10.00"> &#45;_enable</text>
</g>
</g>
</svg>
