<?xml version="1.0" encoding="UTF-8" standalone="no"?>
<!DOCTYPE svg PUBLIC "-//W3C//DTD SVG 1.1//EN"
 "http://www.w3.org/Graphics/SVG/1.1/DTD/svg11.dtd">
<!-- Generated by graphviz version 9.0.0 (0)
 -->
<!-- Title: MiraiCP::NudgeEvent Pages: 1 -->
<svg width="238pt" height="686pt"
 viewBox="0.00 0.00 238.00 686.00" xmlns="http://www.w3.org/2000/svg" xmlns:xlink="http://www.w3.org/1999/xlink">
<g id="graph0" class="graph" transform="scale(1 1) rotate(0) translate(4 682)">
<title>MiraiCP::NudgeEvent</title>
<!-- Node1 -->
<g id="Node000001" class="node">
<title>Node1</title>
<g id="a_Node000001"><a xlink:title=" ">
<polygon fill="#999999" stroke="none" points="152,-148 0,-148 0,0 152,0 152,-148"/>
<text text-anchor="start" x="28.38" y="-134.5" font-family="Helvetica,sans-Serif" font-size="10.00">MiraiCP::NudgeEvent</text>
<text text-anchor="start" x="4" y="-118.5" font-family="Helvetica,sans-Serif" font-size="10.00">+</text>
<text text-anchor="start" x="14" y="-118.5" font-family="Helvetica,sans-Serif" font-size="10.00">std::shared_ptr&lt; Contact</text>
<text text-anchor="start" x="14" y="-106.5" font-family="Helvetica,sans-Serif" font-size="10.00"> &gt; from</text>
<text text-anchor="start" x="4" y="-90.5" font-family="Helvetica,sans-Serif" font-size="10.00">+</text>
<text text-anchor="start" x="14" y="-90.5" font-family="Helvetica,sans-Serif" font-size="10.00">std::shared_ptr&lt; Contact</text>
<text text-anchor="start" x="14" y="-78.5" font-family="Helvetica,sans-Serif" font-size="10.00"> &gt; target</text>
<text text-anchor="start" x="4" y="-62.5" font-family="Helvetica,sans-Serif" font-size="10.00">+</text>
<text text-anchor="start" x="14" y="-62.5" font-family="Helvetica,sans-Serif" font-size="10.00">std::shared_ptr&lt; Contact</text>
<text text-anchor="start" x="14" y="-50.5" font-family="Helvetica,sans-Serif" font-size="10.00"> &gt; subject</text>
<text text-anchor="start" x="4" y="-34.5" font-family="Helvetica,sans-Serif" font-size="10.00">+</text>
<text text-anchor="start" x="14" y="-34.5" font-family="Helvetica,sans-Serif" font-size="10.00">NudgeEvent(BaseEventData j)</text>
<text text-anchor="start" x="4" y="-18.5" font-family="Helvetica,sans-Serif" font-size="10.00">+</text>
<text text-anchor="start" x="14" y="-18.5" font-family="Helvetica,sans-Serif" font-size="10.00">static eventTypes::</text>
<text text-anchor="start" x="14" y="-6.5" font-family="Helvetica,sans-Serif" font-size="10.00">Types get_event_type()</text>
<polygon fill="#666666" stroke="#666666" points="0,-130 0,-130 152,-130 152,-130 0,-130"/>
<polygon fill="#666666" stroke="#666666" points="0,-46 0,-46 12,-46 12,-46 0,-46"/>
<polygon fill="#666666" stroke="#666666" points="12,-46 12,-46 152,-46 152,-46 12,-46"/>
<polygon fill="none" stroke="#666666" points="0,0 0,-148 152,-148 152,0 0,0"/>
</a>
</g>
</g>
<!-- Node2 -->
<g id="Node000002" class="node">
<title>Node2</title>
<g id="a_Node000002"><a xlink:href="a00488.html" target="_top" xlink:title=" ">
<polygon fill="white" stroke="none" points="147,-321 5,-321 5,-185 147,-185 147,-321"/>
<text text-anchor="start" x="32.12" y="-307.5" font-family="Helvetica,sans-Serif" font-size="10.00">MiraiCP::BotEvent&lt;</text>
<text text-anchor="start" x="43" y="-295.5" font-family="Helvetica,sans-Serif" font-size="10.00"> NudgeEvent &gt;</text>
<text text-anchor="start" x="9" y="-279.5" font-family="Helvetica,sans-Serif" font-size="10.00">+</text>
<text text-anchor="start" x="19" y="-279.5" font-family="Helvetica,sans-Serif" font-size="10.00">Bot bot</text>
<text text-anchor="start" x="9" y="-263.5" font-family="Helvetica,sans-Serif" font-size="10.00">+</text>
<text text-anchor="start" x="19" y="-263.5" font-family="Helvetica,sans-Serif" font-size="10.00">IdLogger botlogger</text>
<text text-anchor="start" x="9" y="-247.5" font-family="Helvetica,sans-Serif" font-size="10.00">+</text>
<text text-anchor="start" x="19" y="-247.5" font-family="Helvetica,sans-Serif" font-size="10.00">eventTypes::Types getEvent</text>
<text text-anchor="start" x="19" y="-235.5" font-family="Helvetica,sans-Serif" font-size="10.00">Type() const override</text>
<text text-anchor="start" x="9" y="-219.5" font-family="Helvetica,sans-Serif" font-size="10.00">+</text>
<text text-anchor="start" x="19" y="-219.5" font-family="Helvetica,sans-Serif" font-size="10.00">BotEvent(QQID botid)</text>
<text text-anchor="start" x="9" y="-203.5" font-family="Helvetica,sans-Serif" font-size="10.00">+</text>
<text text-anchor="start" x="19" y="-203.5" font-family="Helvetica,sans-Serif" font-size="10.00">~BotEvent() override</text>
<text text-anchor="start" x="19" y="-191.5" font-family="Helvetica,sans-Serif" font-size="10.00">=default</text>
<polygon fill="#666666" stroke="#666666" points="5,-291 5,-291 147,-291 147,-291 5,-291"/>
<polygon fill="#666666" stroke="#666666" points="5,-259 5,-259 17,-259 17,-259 5,-259"/>
<polygon fill="#666666" stroke="#666666" points="17,-259 17,-259 147,-259 147,-259 17,-259"/>
<polygon fill="none" stroke="#666666" points="5,-185 5,-321 147,-321 147,-185 5,-185"/>
</a>
</g>
</g>
<!-- Node2&#45;&gt;Node1 -->
<g id="edge1_Node000001_Node000002" class="edge">
<title>Node2&#45;&gt;Node1</title>
<g id="a_edge1_Node000001_Node000002"><a xlink:title=" ">
<path fill="none" stroke="#63b8ff" d="M76,-173.86C76,-165.23 76,-156.48 76,-147.93"/>
<polygon fill="none" stroke="#63b8ff" points="72.5,-173.57 76,-183.57 79.5,-173.57 72.5,-173.57"/>
</a>
</g>
</g>
<!-- Node3 -->
<g id="Node000003" class="node">
<title>Node3</title>
<g id="a_Node000003"><a xlink:href="a00512.html" target="_top" xlink:title="Event抽象父类">
<polygon fill="white" stroke="none" points="132,-678 12,-678 12,-530 132,-530 132,-678"/>
<text text-anchor="start" x="21" y="-664.5" font-family="Helvetica,sans-Serif" font-size="10.00">MiraiCP::MiraiCPEvent</text>
<text text-anchor="start" x="70.5" y="-648.5" font-family="Helvetica,sans-Serif" font-size="10.00"> </text>
<text text-anchor="start" x="16" y="-632.5" font-family="Helvetica,sans-Serif" font-size="10.00">+</text>
<text text-anchor="start" x="26" y="-632.5" font-family="Helvetica,sans-Serif" font-size="10.00">MiraiCPEvent()=default</text>
<text text-anchor="start" x="16" y="-616.5" font-family="Helvetica,sans-Serif" font-size="10.00">+</text>
<text text-anchor="start" x="26" y="-616.5" font-family="Helvetica,sans-Serif" font-size="10.00">virtual ~MiraiCPEvent</text>
<text text-anchor="start" x="26" y="-604.5" font-family="Helvetica,sans-Serif" font-size="10.00">()=default</text>
<text text-anchor="start" x="16" y="-588.5" font-family="Helvetica,sans-Serif" font-size="10.00">+</text>
<text text-anchor="start" x="26" y="-588.5" font-family="Helvetica,sans-Serif" font-size="10.00">virtual eventTypes</text>
<text text-anchor="start" x="26" y="-576.5" font-family="Helvetica,sans-Serif" font-size="10.00">::Types getEventType</text>
<text text-anchor="start" x="26" y="-564.5" font-family="Helvetica,sans-Serif" font-size="10.00">() const =0</text>
<text text-anchor="start" x="16" y="-548.5" font-family="Helvetica,sans-Serif" font-size="10.00">+</text>
<text text-anchor="start" x="26" y="-548.5" font-family="Helvetica,sans-Serif" font-size="10.00">static eventTypes::</text>
<text text-anchor="start" x="26" y="-536.5" font-family="Helvetica,sans-Serif" font-size="10.00">Types get_event_type()</text>
<polygon fill="#666666" stroke="#666666" points="12,-660 12,-660 132,-660 132,-660 12,-660"/>
<polygon fill="#666666" stroke="#666666" points="12,-644 12,-644 132,-644 132,-644 12,-644"/>
<polygon fill="none" stroke="#666666" points="12,-530 12,-678 132,-678 132,-530 12,-530"/>
</a>
</g>
</g>
<!-- Node3&#45;&gt;Node2 -->
<g id="edge2_Node000002_Node000003" class="edge">
<title>Node3&#45;&gt;Node2</title>
<g id="a_edge2_Node000002_Node000003"><a xlink:title=" ">
<path fill="none" stroke="#63b8ff" d="M72.97,-518.78C73.66,-458 74.59,-377.06 75.24,-320.74"/>
<polygon fill="none" stroke="#63b8ff" points="69.47,-518.71 72.85,-528.75 76.47,-518.79 69.47,-518.71"/>
</a>
</g>
</g>
<!-- Node4 -->
<g id="Node000004" class="node">
<title>Node4</title>
<g id="a_Node000004"><a xlink:href="a00488.html" target="_top" xlink:title="所有事件处理timeoutevent都是机器人事件，指都有机器人实例">
<polygon fill="white" stroke="none" points="230,-493 88,-493 88,-369 230,-369 230,-493"/>
<text text-anchor="start" x="106.5" y="-479.5" font-family="Helvetica,sans-Serif" font-size="10.00">MiraiCP::BotEvent&lt; T &gt;</text>
<text text-anchor="start" x="92" y="-463.5" font-family="Helvetica,sans-Serif" font-size="10.00">+</text>
<text text-anchor="start" x="102" y="-463.5" font-family="Helvetica,sans-Serif" font-size="10.00">Bot bot</text>
<text text-anchor="start" x="92" y="-447.5" font-family="Helvetica,sans-Serif" font-size="10.00">+</text>
<text text-anchor="start" x="102" y="-447.5" font-family="Helvetica,sans-Serif" font-size="10.00">IdLogger botlogger</text>
<text text-anchor="start" x="92" y="-431.5" font-family="Helvetica,sans-Serif" font-size="10.00">+</text>
<text text-anchor="start" x="102" y="-431.5" font-family="Helvetica,sans-Serif" font-size="10.00">eventTypes::Types getEvent</text>
<text text-anchor="start" x="102" y="-419.5" font-family="Helvetica,sans-Serif" font-size="10.00">Type() const override</text>
<text text-anchor="start" x="92" y="-403.5" font-family="Helvetica,sans-Serif" font-size="10.00">+</text>
<text text-anchor="start" x="102" y="-403.5" font-family="Helvetica,sans-Serif" font-size="10.00">BotEvent(QQID botid)</text>
<text text-anchor="start" x="92" y="-387.5" font-family="Helvetica,sans-Serif" font-size="10.00">+</text>
<text text-anchor="start" x="102" y="-387.5" font-family="Helvetica,sans-Serif" font-size="10.00">~BotEvent() override</text>
<text text-anchor="start" x="102" y="-375.5" font-family="Helvetica,sans-Serif" font-size="10.00">=default</text>
<polygon fill="#666666" stroke="#666666" points="88,-475 88,-475 230,-475 230,-475 88,-475"/>
<polygon fill="#666666" stroke="#666666" points="88,-443 88,-443 100,-443 100,-443 88,-443"/>
<polygon fill="#666666" stroke="#666666" points="100,-443 100,-443 230,-443 230,-443 100,-443"/>
<polygon fill="none" stroke="#666666" points="88,-369 88,-493 230,-493 230,-369 88,-369"/>
</a>
</g>
</g>
<!-- Node3&#45;&gt;Node4 -->
<g id="edge4_Node000004_Node000003" class="edge">
<title>Node3&#45;&gt;Node4</title>
<g id="a_edge4_Node000004_Node000003"><a xlink:title=" ">
<path fill="none" stroke="#63b8ff" d="M114.02,-520.41C118.76,-511.09 123.52,-501.73 128.08,-492.77"/>
<polygon fill="none" stroke="#63b8ff" points="111,-518.63 109.58,-529.13 117.24,-521.81 111,-518.63"/>
</a>
</g>
</g>
<!-- Node4&#45;&gt;Node2 -->
<g id="edge3_Node000002_Node000004" class="edge">
<title>Node4&#45;&gt;Node2</title>
<g id="a_edge3_Node000002_Node000004"><a xlink:title=" ">
<path fill="none" stroke="orange" d="M125.68,-359.34C119.66,-346.59 113.41,-333.34 107.46,-320.71"/>
<polygon fill="orange" stroke="orange" points="122.36,-360.51 129.79,-368.06 128.69,-357.52 122.36,-360.51"/>
</a>
</g>
<text text-anchor="middle" x="156.5" y="-341.5" font-family="Helvetica,sans-Serif" font-size="10.00" fill="grey"> &lt; NudgeEvent &gt;</text>
</g>
</g>
</svg>
