<?xml version="1.0" encoding="UTF-8" standalone="no"?>
<!DOCTYPE svg PUBLIC "-//W3C//DTD SVG 1.1//EN"
 "http://www.w3.org/Graphics/SVG/1.1/DTD/svg11.dtd">
<!-- Generated by graphviz version 2.50.0 (20211204.2007)
 -->
<!-- Title: MiraiCP::Group::queryCurrentHonorMember Pages: 1 -->
<svg width="1608pt" height="219pt"
 viewBox="0.00 0.00 1608.00 218.98" xmlns="http://www.w3.org/2000/svg" xmlns:xlink="http://www.w3.org/1999/xlink">
<g id="graph0" class="graph" transform="scale(1 1) rotate(0) translate(4 214.98)">
<title>MiraiCP::Group::queryCurrentHonorMember</title>
<polygon fill="white" stroke="transparent" points="-4,4 -4,-214.98 1604,-214.98 1604,4 -4,4"/>
<!-- Node1 -->
<g id="node1" class="node">
<title>Node1</title>
<g id="a_node1"><a xlink:title="查询目前拥有对应群荣耀的成员">
<polygon fill="#bfbfbf" stroke="black" points="0,-73.48 0,-103.48 145,-103.48 145,-73.48 0,-73.48"/>
<text text-anchor="start" x="8" y="-91.48" font-family="Helvetica,sans-Serif" font-size="10.00">MiraiCP::Group::queryCurrent</text>
<text text-anchor="middle" x="72.5" y="-80.48" font-family="Helvetica,sans-Serif" font-size="10.00">HonorMember</text>
</a>
</g>
</g>
<!-- Node2 -->
<g id="node2" class="node">
<title>Node2</title>
<g id="a_node2"><a xlink:href="a00412.html#a309e8d7f316e8b5e947ea3bcddeb84a8" target="_top" xlink:title="调用 Mirai 操作">
<polygon fill="white" stroke="black" points="189,-117.48 189,-147.48 298,-147.48 298,-117.48 189,-117.48"/>
<text text-anchor="start" x="197" y="-135.48" font-family="Helvetica,sans-Serif" font-size="10.00">MiraiCP::KtOperation</text>
<text text-anchor="middle" x="243.5" y="-124.48" font-family="Helvetica,sans-Serif" font-size="10.00">::ktOperation</text>
</a>
</g>
</g>
<!-- Node1&#45;&gt;Node2 -->
<g id="edge1" class="edge">
<title>Node1&#45;&gt;Node2</title>
<path fill="none" stroke="midnightblue" d="M131.19,-103.5C146.48,-107.48 163.09,-111.81 178.69,-115.87"/>
<polygon fill="midnightblue" stroke="midnightblue" points="178.21,-119.36 188.77,-118.49 179.98,-112.59 178.21,-119.36"/>
</g>
<!-- Node14 -->
<g id="node14" class="node">
<title>Node14</title>
<g id="a_node14"><a xlink:href="a00445.html#a89fb588a12ff2d4de10722788945ea55" target="_top" xlink:title="序列化到json对象">
<polygon fill="white" stroke="black" points="181,-78.98 181,-97.98 306,-97.98 306,-78.98 181,-78.98"/>
<text text-anchor="middle" x="243.5" y="-85.98" font-family="Helvetica,sans-Serif" font-size="10.00">MiraiCP::Contact::toJson</text>
</a>
</g>
</g>
<!-- Node1&#45;&gt;Node14 -->
<g id="edge17" class="edge">
<title>Node1&#45;&gt;Node14</title>
<path fill="none" stroke="midnightblue" d="M145.17,-88.48C153.61,-88.48 162.23,-88.48 170.68,-88.48"/>
<polygon fill="midnightblue" stroke="midnightblue" points="170.87,-91.98 180.87,-88.48 170.87,-84.98 170.87,-91.98"/>
</g>
<!-- Node15 -->
<g id="node15" class="node">
<title>Node15</title>
<g id="a_node15"><a xlink:href="a00445.html#af7283fc360f07ae30df29005e51817d4" target="_top" xlink:title="当前对象类型">
<polygon fill="white" stroke="black" points="185.5,-40.98 185.5,-59.98 301.5,-59.98 301.5,-40.98 185.5,-40.98"/>
<text text-anchor="middle" x="243.5" y="-47.98" font-family="Helvetica,sans-Serif" font-size="10.00">MiraiCP::Contact::type</text>
</a>
</g>
</g>
<!-- Node1&#45;&gt;Node15 -->
<g id="edge18" class="edge">
<title>Node1&#45;&gt;Node15</title>
<path fill="none" stroke="midnightblue" d="M140.29,-73.46C156.79,-69.75 174.23,-65.83 189.95,-62.3"/>
<polygon fill="midnightblue" stroke="midnightblue" points="191.01,-65.65 200,-60.04 189.47,-58.82 191.01,-65.65"/>
</g>
<!-- Node3 -->
<g id="node3" class="node">
<title>Node3</title>
<g id="a_node3"><a xlink:href="a00412.html#a1e1e498928eeaa1d7107033ff5fa881a" target="_top" xlink:title="调用 Mirai 操作">
<polygon fill="white" stroke="black" points="342,-117.48 342,-147.48 451,-147.48 451,-117.48 342,-117.48"/>
<text text-anchor="start" x="350" y="-135.48" font-family="Helvetica,sans-Serif" font-size="10.00">MiraiCP::KtOperation</text>
<text text-anchor="middle" x="396.5" y="-124.48" font-family="Helvetica,sans-Serif" font-size="10.00">::ktOperationStr</text>
</a>
</g>
</g>
<!-- Node2&#45;&gt;Node3 -->
<g id="edge2" class="edge">
<title>Node2&#45;&gt;Node3</title>
<path fill="none" stroke="midnightblue" d="M298.16,-132.48C309,-132.48 320.5,-132.48 331.64,-132.48"/>
<polygon fill="midnightblue" stroke="midnightblue" points="331.76,-135.98 341.76,-132.48 331.76,-128.98 331.76,-135.98"/>
</g>
<!-- Node4 -->
<g id="node4" class="node">
<title>Node4</title>
<g id="a_node4"><a xlink:href="a00405.html#a89b345ec37278655b8f02d07dbb3c882" target="_top" xlink:title="interfaces for plugins">
<polygon fill="white" stroke="black" points="487,-117.48 487,-147.48 595,-147.48 595,-117.48 487,-117.48"/>
<text text-anchor="start" x="495" y="-135.48" font-family="Helvetica,sans-Serif" font-size="10.00">LibLoader::LoaderApi</text>
<text text-anchor="middle" x="541" y="-124.48" font-family="Helvetica,sans-Serif" font-size="10.00">::pluginOperation</text>
</a>
</g>
</g>
<!-- Node3&#45;&gt;Node4 -->
<g id="edge3" class="edge">
<title>Node3&#45;&gt;Node4</title>
<path fill="none" stroke="midnightblue" d="M451.37,-132.48C459.67,-132.48 468.29,-132.48 476.77,-132.48"/>
<polygon fill="midnightblue" stroke="midnightblue" points="477,-135.98 487,-132.48 477,-128.98 477,-135.98"/>
</g>
<!-- Node5 -->
<g id="node5" class="node">
<title>Node5</title>
<g id="a_node5"><a xlink:href="a00737.html#ab263deade385e7b5de856d061c6027e9" target="_top" xlink:title=" ">
<polygon fill="white" stroke="black" points="631,-180.48 631,-210.48 748,-210.48 748,-180.48 631,-180.48"/>
<text text-anchor="start" x="639" y="-198.48" font-family="Helvetica,sans-Serif" font-size="10.00">MiraiCP::MiraiCPString</text>
<text text-anchor="middle" x="689.5" y="-187.48" font-family="Helvetica,sans-Serif" font-size="10.00">::copyToCharPtr</text>
</a>
</g>
</g>
<!-- Node4&#45;&gt;Node5 -->
<g id="edge4" class="edge">
<title>Node4&#45;&gt;Node5</title>
<path fill="none" stroke="midnightblue" d="M577.09,-147.57C597.22,-156.23 622.69,-167.18 644.19,-176.43"/>
<polygon fill="midnightblue" stroke="midnightblue" points="642.87,-179.67 653.44,-180.41 645.64,-173.24 642.87,-179.67"/>
</g>
<!-- Node6 -->
<g id="node6" class="node">
<title>Node6</title>
<g id="a_node6"><a xlink:href="a00773.html#aea7d58ff9f04d6d4849c25a2506603a5" target="_top" xlink:title="取env,如果不存在重新获取">
<polygon fill="white" stroke="black" points="1237,-103.98 1237,-122.98 1356,-122.98 1356,-103.98 1237,-103.98"/>
<text text-anchor="middle" x="1296.5" y="-110.98" font-family="Helvetica,sans-Serif" font-size="10.00">JNIEnvManager::getEnv</text>
</a>
</g>
</g>
<!-- Node4&#45;&gt;Node6 -->
<g id="edge5" class="edge">
<title>Node4&#45;&gt;Node6</title>
<path fill="none" stroke="midnightblue" d="M595.21,-137.85C655.58,-143.47 757.02,-151.48 844.5,-151.48 844.5,-151.48 844.5,-151.48 1005.5,-151.48 1087.89,-151.48 1182.34,-136.22 1240.46,-125.04"/>
<polygon fill="midnightblue" stroke="midnightblue" points="1241.39,-128.42 1250.53,-123.07 1240.05,-121.55 1241.39,-128.42"/>
</g>
<!-- Node9 -->
<g id="node9" class="node">
<title>Node9</title>
<g id="a_node9"><a xlink:href="a00404.html#aa5f8d0ecd9dd392b491070aace643ae3" target="_top" xlink:title=" ">
<polygon fill="white" stroke="black" points="792,-103.98 792,-122.98 899,-122.98 899,-103.98 792,-103.98"/>
<text text-anchor="middle" x="845.5" y="-110.98" font-family="Helvetica,sans-Serif" font-size="10.00">LibLoader::jstring2str</text>
</a>
</g>
</g>
<!-- Node4&#45;&gt;Node9 -->
<g id="edge8" class="edge">
<title>Node4&#45;&gt;Node9</title>
<path fill="none" stroke="midnightblue" d="M595.04,-129.15C647.12,-125.88 726.57,-120.89 781.77,-117.42"/>
<polygon fill="midnightblue" stroke="midnightblue" points="782.02,-120.91 791.78,-116.79 781.58,-113.93 782.02,-120.91"/>
</g>
<!-- Node11 -->
<g id="node11" class="node">
<title>Node11</title>
<g id="a_node11"><a xlink:href="a00404.html#a6a6fcd695791253a9b3a053d313b2b93" target="_top" xlink:title=" ">
<polygon fill="white" stroke="black" points="636,-43.98 636,-62.98 743,-62.98 743,-43.98 636,-43.98"/>
<text text-anchor="middle" x="689.5" y="-50.98" font-family="Helvetica,sans-Serif" font-size="10.00">LibLoader::str2jstring</text>
</a>
</g>
</g>
<!-- Node4&#45;&gt;Node11 -->
<g id="edge11" class="edge">
<title>Node4&#45;&gt;Node11</title>
<path fill="none" stroke="midnightblue" d="M569.9,-117.44C596.37,-103.16 635.87,-81.87 661.9,-67.83"/>
<polygon fill="midnightblue" stroke="midnightblue" points="663.69,-70.84 670.83,-63.01 660.37,-64.68 663.69,-70.84"/>
</g>
<!-- Node7 -->
<g id="node7" class="node">
<title>Node7</title>
<g id="a_node7"><a xlink:href="a00203.html#a3d31403b7971274d47d308245206bd24" target="_top" xlink:title="为当前线程创建一个env.">
<polygon fill="white" stroke="black" points="1392,-103.98 1392,-122.98 1442,-122.98 1442,-103.98 1392,-103.98"/>
<text text-anchor="middle" x="1417" y="-110.98" font-family="Helvetica,sans-Serif" font-size="10.00">newEnv</text>
</a>
</g>
</g>
<!-- Node6&#45;&gt;Node7 -->
<g id="edge6" class="edge">
<title>Node6&#45;&gt;Node7</title>
<path fill="none" stroke="midnightblue" d="M1356.06,-113.48C1364.89,-113.48 1373.75,-113.48 1381.85,-113.48"/>
<polygon fill="midnightblue" stroke="midnightblue" points="1381.98,-116.98 1391.98,-113.48 1381.98,-109.98 1381.98,-116.98"/>
</g>
<!-- Node8 -->
<g id="node8" class="node">
<title>Node8</title>
<g id="a_node8"><a xlink:href="a00773.html#ae0e482c6a813848a8f5d34957d1b6307" target="_top" xlink:title="获取全局JavaVM对象.">
<polygon fill="white" stroke="black" points="1478,-103.98 1478,-122.98 1600,-122.98 1600,-103.98 1478,-103.98"/>
<text text-anchor="middle" x="1539" y="-110.98" font-family="Helvetica,sans-Serif" font-size="10.00">JNIEnvManager::getGvm</text>
</a>
</g>
</g>
<!-- Node7&#45;&gt;Node8 -->
<g id="edge7" class="edge">
<title>Node7&#45;&gt;Node8</title>
<path fill="none" stroke="midnightblue" d="M1442.28,-113.48C1449.75,-113.48 1458.37,-113.48 1467.32,-113.48"/>
<polygon fill="midnightblue" stroke="midnightblue" points="1467.52,-116.98 1477.52,-113.48 1467.52,-109.98 1467.52,-116.98"/>
</g>
<!-- Node10 -->
<g id="node10" class="node">
<title>Node10</title>
<g id="a_node10"><a xlink:href="a00409.html#a076c5f4ff8083c7cfc6523498d0ba30f" target="_top" xlink:title=" ">
<polygon fill="white" stroke="black" points="1102,-76.48 1102,-106.48 1201,-106.48 1201,-76.48 1102,-76.48"/>
<text text-anchor="start" x="1110" y="-94.48" font-family="Helvetica,sans-Serif" font-size="10.00">LibLoader::JNIEnvs</text>
<text text-anchor="middle" x="1151.5" y="-83.48" font-family="Helvetica,sans-Serif" font-size="10.00">::getEnv</text>
</a>
</g>
</g>
<!-- Node9&#45;&gt;Node10 -->
<g id="edge9" class="edge">
<title>Node9&#45;&gt;Node10</title>
<path fill="none" stroke="midnightblue" d="M899.11,-109.68C952.7,-105.8 1035.65,-99.79 1091.46,-95.76"/>
<polygon fill="midnightblue" stroke="midnightblue" points="1091.83,-99.24 1101.55,-95.03 1091.32,-92.26 1091.83,-99.24"/>
</g>
<!-- Node10&#45;&gt;Node6 -->
<g id="edge10" class="edge">
<title>Node10&#45;&gt;Node6</title>
<path fill="none" stroke="midnightblue" d="M1201.31,-98.99C1209.51,-100.25 1218.16,-101.58 1226.75,-102.91"/>
<polygon fill="midnightblue" stroke="midnightblue" points="1226.36,-106.39 1236.78,-104.45 1227.43,-99.47 1226.36,-106.39"/>
</g>
<!-- Node11&#45;&gt;Node10 -->
<g id="edge12" class="edge">
<title>Node11&#45;&gt;Node10</title>
<path fill="none" stroke="midnightblue" d="M743.27,-57.84C829.84,-64.99 1001.43,-79.17 1091.75,-86.63"/>
<polygon fill="midnightblue" stroke="midnightblue" points="1091.57,-90.13 1101.82,-87.46 1092.14,-83.15 1091.57,-90.13"/>
</g>
<!-- Node12 -->
<g id="node12" class="node">
<title>Node12</title>
<g id="a_node12"><a xlink:href="a00805.html#af50d0545fe7d683e54fcd03453a423e3" target="_top" xlink:title=" ">
<polygon fill="white" stroke="black" points="784,-16.48 784,-46.48 907,-46.48 907,-16.48 784,-16.48"/>
<text text-anchor="start" x="792" y="-34.48" font-family="Helvetica,sans-Serif" font-size="10.00">LibLoader::LoaderLogger</text>
<text text-anchor="middle" x="845.5" y="-23.48" font-family="Helvetica,sans-Serif" font-size="10.00">::warning</text>
</a>
</g>
</g>
<!-- Node11&#45;&gt;Node12 -->
<g id="edge13" class="edge">
<title>Node11&#45;&gt;Node12</title>
<path fill="none" stroke="midnightblue" d="M743.07,-45.97C753.04,-44.55 763.62,-43.04 774.04,-41.55"/>
<polygon fill="midnightblue" stroke="midnightblue" points="774.55,-45.01 783.95,-40.13 773.56,-38.08 774.55,-45.01"/>
</g>
<!-- Node13 -->
<g id="node13" class="node">
<title>Node13</title>
<g id="a_node13"><a xlink:href="a00805.html#af4d7d5164450e25f7401d1cc15f15b8d" target="_top" xlink:title="实际暴露的接口">
<polygon fill="white" stroke="black" points="943,-16.48 943,-46.48 1066,-46.48 1066,-16.48 943,-16.48"/>
<text text-anchor="start" x="951" y="-34.48" font-family="Helvetica,sans-Serif" font-size="10.00">LibLoader::LoaderLogger</text>
<text text-anchor="middle" x="1004.5" y="-23.48" font-family="Helvetica,sans-Serif" font-size="10.00">::call_logger</text>
</a>
</g>
</g>
<!-- Node12&#45;&gt;Node13 -->
<g id="edge14" class="edge">
<title>Node12&#45;&gt;Node13</title>
<path fill="none" stroke="midnightblue" d="M907.2,-31.48C915.64,-31.48 924.36,-31.48 932.95,-31.48"/>
<polygon fill="midnightblue" stroke="midnightblue" points="932.96,-34.98 942.96,-31.48 932.96,-27.98 932.96,-34.98"/>
</g>
<!-- Node13&#45;&gt;Node10 -->
<g id="edge15" class="edge">
<title>Node13&#45;&gt;Node10</title>
<path fill="none" stroke="midnightblue" d="M1042.09,-46.62C1061.14,-54.51 1084.61,-64.22 1104.84,-72.59"/>
<polygon fill="midnightblue" stroke="midnightblue" points="1103.6,-75.86 1114.17,-76.45 1106.27,-69.39 1103.6,-75.86"/>
</g>
<!-- Node13&#45;&gt;Node11 -->
<g id="edge16" class="edge">
<title>Node13&#45;&gt;Node11</title>
<path fill="none" stroke="midnightblue" d="M954.97,-16.47C910.11,-4.82 841.84,7.24 784,-6.48 757.99,-12.65 730.99,-27.26 712.73,-38.56"/>
<polygon fill="midnightblue" stroke="midnightblue" points="710.83,-35.63 704.27,-43.95 714.59,-41.53 710.83,-35.63"/>
</g>
</g>
</svg>
