<?xml version="1.0" encoding="UTF-8" standalone="no"?>
<!DOCTYPE svg PUBLIC "-//W3C//DTD SVG 1.1//EN"
 "http://www.w3.org/Graphics/SVG/1.1/DTD/svg11.dtd">
<!-- Generated by graphviz version 2.50.0 (20211204.2007)
 -->
<!-- Title: MiraiCP::ForwardedMessage Pages: 1 -->
<svg width="532pt" height="903pt"
 viewBox="0.00 0.00 531.85 903.00" xmlns="http://www.w3.org/2000/svg" xmlns:xlink="http://www.w3.org/1999/xlink">
<g id="graph0" class="graph" transform="scale(1 1) rotate(0) translate(4 899)">
<title>MiraiCP::ForwardedMessage</title>
<polygon fill="white" stroke="transparent" points="-4,4 -4,-899 527.85,-899 527.85,4 -4,4"/>
<!-- Node1 -->
<g id="node1" class="node">
<title>Node1</title>
<g id="a_node1"><a xlink:title=" ">
<polygon fill="#bfbfbf" stroke="black" points="19.35,-0.5 19.35,-420.5 266.35,-420.5 266.35,-0.5 19.35,-0.5"/>
<text text-anchor="middle" x="142.85" y="-408.5" font-family="Helvetica,sans-Serif" font-size="10.00">MiraiCP::ForwardedMessage</text>
<polyline fill="none" stroke="black" points="19.35,-401.5 266.35,-401.5 "/>
<text text-anchor="middle" x="142.85" y="-389.5" font-family="Helvetica,sans-Serif" font-size="10.00"> </text>
<polyline fill="none" stroke="black" points="19.35,-382.5 266.35,-382.5 "/>
<text text-anchor="start" x="27.35" y="-370.5" font-family="Helvetica,sans-Serif" font-size="10.00">+ ForwardedNode &amp; operator</text>
<text text-anchor="start" x="27.35" y="-359.5" font-family="Helvetica,sans-Serif" font-size="10.00">[](size_t i)</text>
<text text-anchor="start" x="27.35" y="-348.5" font-family="Helvetica,sans-Serif" font-size="10.00">+ const ForwardedNode</text>
<text text-anchor="start" x="27.35" y="-337.5" font-family="Helvetica,sans-Serif" font-size="10.00"> &amp; operator[](size_t</text>
<text text-anchor="start" x="27.35" y="-326.5" font-family="Helvetica,sans-Serif" font-size="10.00"> i) const</text>
<text text-anchor="start" x="27.35" y="-315.5" font-family="Helvetica,sans-Serif" font-size="10.00">+ void add(ForwardedNode a)</text>
<text text-anchor="start" x="27.35" y="-304.5" font-family="Helvetica,sans-Serif" font-size="10.00">+ auto &amp; operator+=(Forwarded</text>
<text text-anchor="start" x="27.35" y="-293.5" font-family="Helvetica,sans-Serif" font-size="10.00">Node a)</text>
<text text-anchor="start" x="27.35" y="-282.5" font-family="Helvetica,sans-Serif" font-size="10.00">+ bool operator==(const</text>
<text text-anchor="start" x="27.35" y="-271.5" font-family="Helvetica,sans-Serif" font-size="10.00"> ForwardedMessage &amp;m)</text>
<text text-anchor="start" x="27.35" y="-260.5" font-family="Helvetica,sans-Serif" font-size="10.00"> const</text>
<text text-anchor="start" x="27.35" y="-249.5" font-family="Helvetica,sans-Serif" font-size="10.00">+ ForwardedMessage(std</text>
<text text-anchor="start" x="27.35" y="-238.5" font-family="Helvetica,sans-Serif" font-size="10.00">::initializer_list&lt; Forwarded</text>
<text text-anchor="start" x="27.35" y="-227.5" font-family="Helvetica,sans-Serif" font-size="10.00">Node &gt; nodes, ForwardedMessageDisplay</text>
<text text-anchor="start" x="27.35" y="-216.5" font-family="Helvetica,sans-Serif" font-size="10.00">Strategy display=ForwardedMessageDisplayStrategy</text>
<text text-anchor="start" x="27.35" y="-205.5" font-family="Helvetica,sans-Serif" font-size="10.00">::defaultStrategy())</text>
<text text-anchor="start" x="27.35" y="-194.5" font-family="Helvetica,sans-Serif" font-size="10.00">+ ForwardedMessage(std</text>
<text text-anchor="start" x="27.35" y="-183.5" font-family="Helvetica,sans-Serif" font-size="10.00">::vector&lt; ForwardedNode</text>
<text text-anchor="start" x="27.35" y="-172.5" font-family="Helvetica,sans-Serif" font-size="10.00"> &gt; inNodes, ForwardedMessageDisplay</text>
<text text-anchor="start" x="27.35" y="-161.5" font-family="Helvetica,sans-Serif" font-size="10.00">Strategy display=ForwardedMessageDisplay</text>
<text text-anchor="start" x="27.35" y="-150.5" font-family="Helvetica,sans-Serif" font-size="10.00">Strategy::defaultStrategy())</text>
<text text-anchor="start" x="27.35" y="-139.5" font-family="Helvetica,sans-Serif" font-size="10.00">+ ForwardedMessage(const</text>
<text text-anchor="start" x="27.35" y="-128.5" font-family="Helvetica,sans-Serif" font-size="10.00"> ForwardedMessage &amp;)=default</text>
<text text-anchor="start" x="27.35" y="-117.5" font-family="Helvetica,sans-Serif" font-size="10.00">+ ForwardedMessage(Forwarded</text>
<text text-anchor="start" x="27.35" y="-106.5" font-family="Helvetica,sans-Serif" font-size="10.00">Message &amp;&amp;)=default</text>
<text text-anchor="start" x="27.35" y="-95.5" font-family="Helvetica,sans-Serif" font-size="10.00">+ nlohmann::json toJson</text>
<text text-anchor="start" x="27.35" y="-84.5" font-family="Helvetica,sans-Serif" font-size="10.00">() const override</text>
<text text-anchor="start" x="27.35" y="-73.5" font-family="Helvetica,sans-Serif" font-size="10.00">+ MessageSource sendTo</text>
<text text-anchor="start" x="27.35" y="-62.5" font-family="Helvetica,sans-Serif" font-size="10.00">(Contact *c) const</text>
<text text-anchor="start" x="27.35" y="-51.5" font-family="Helvetica,sans-Serif" font-size="10.00">+ nlohmann::json nodesToJson</text>
<text text-anchor="start" x="27.35" y="-40.5" font-family="Helvetica,sans-Serif" font-size="10.00">() const</text>
<text text-anchor="start" x="27.35" y="-29.5" font-family="Helvetica,sans-Serif" font-size="10.00">+ static ForwardedMessage</text>
<text text-anchor="start" x="27.35" y="-18.5" font-family="Helvetica,sans-Serif" font-size="10.00"> deserializationFromMessageJson</text>
<text text-anchor="start" x="27.35" y="-7.5" font-family="Helvetica,sans-Serif" font-size="10.00">(const nlohmann::json &amp;j)</text>
</a>
</g>
</g>
<!-- Node2 -->
<g id="node2" class="node">
<title>Node2</title>
<g id="a_node2"><a xlink:href="a00657.html" target="_top" xlink:title="MessageChain的组成部分">
<polygon fill="white" stroke="black" points="247.35,-468.5 247.35,-723.5 394.35,-723.5 394.35,-468.5 247.35,-468.5"/>
<text text-anchor="middle" x="320.85" y="-711.5" font-family="Helvetica,sans-Serif" font-size="10.00">MiraiCP::SingleMessage</text>
<polyline fill="none" stroke="black" points="247.35,-704.5 394.35,-704.5 "/>
<text text-anchor="middle" x="320.85" y="-692.5" font-family="Helvetica,sans-Serif" font-size="10.00"> </text>
<polyline fill="none" stroke="black" points="247.35,-685.5 394.35,-685.5 "/>
<text text-anchor="start" x="255.35" y="-673.5" font-family="Helvetica,sans-Serif" font-size="10.00">+ SingleMessage(int</text>
<text text-anchor="start" x="255.35" y="-662.5" font-family="Helvetica,sans-Serif" font-size="10.00"> inType, std::string</text>
<text text-anchor="start" x="255.35" y="-651.5" font-family="Helvetica,sans-Serif" font-size="10.00"> content, std::string</text>
<text text-anchor="start" x="255.35" y="-640.5" font-family="Helvetica,sans-Serif" font-size="10.00"> prefix=&quot;:&quot;) noexcept</text>
<text text-anchor="start" x="255.35" y="-629.5" font-family="Helvetica,sans-Serif" font-size="10.00">+ ~SingleMessage() noexcept</text>
<text text-anchor="start" x="255.35" y="-618.5" font-family="Helvetica,sans-Serif" font-size="10.00"> override=default</text>
<text text-anchor="start" x="255.35" y="-607.5" font-family="Helvetica,sans-Serif" font-size="10.00">+ virtual nlohmann::json</text>
<text text-anchor="start" x="255.35" y="-596.5" font-family="Helvetica,sans-Serif" font-size="10.00"> toJson() const</text>
<text text-anchor="start" x="255.35" y="-585.5" font-family="Helvetica,sans-Serif" font-size="10.00">+ std::string toMiraiCode</text>
<text text-anchor="start" x="255.35" y="-574.5" font-family="Helvetica,sans-Serif" font-size="10.00">() const override</text>
<text text-anchor="start" x="255.35" y="-563.5" font-family="Helvetica,sans-Serif" font-size="10.00">+ bool operator==(const</text>
<text text-anchor="start" x="255.35" y="-552.5" font-family="Helvetica,sans-Serif" font-size="10.00"> SingleMessage &amp;m) const</text>
<text text-anchor="start" x="255.35" y="-541.5" font-family="Helvetica,sans-Serif" font-size="10.00">+ static std::string</text>
<text text-anchor="start" x="255.35" y="-530.5" font-family="Helvetica,sans-Serif" font-size="10.00"> getTypeString(int type)</text>
<text text-anchor="start" x="255.35" y="-519.5" font-family="Helvetica,sans-Serif" font-size="10.00">+ static int getKey(const</text>
<text text-anchor="start" x="255.35" y="-508.5" font-family="Helvetica,sans-Serif" font-size="10.00"> std::string &amp;value)</text>
<text text-anchor="start" x="255.35" y="-497.5" font-family="Helvetica,sans-Serif" font-size="10.00">+ static int getMiraiCodeKey</text>
<text text-anchor="start" x="255.35" y="-486.5" font-family="Helvetica,sans-Serif" font-size="10.00">(const std::string &amp;value)</text>
<text text-anchor="start" x="255.35" y="-475.5" font-family="Helvetica,sans-Serif" font-size="10.00"># SingleMessage()=default</text>
</a>
</g>
</g>
<!-- Node2&#45;&gt;Node1 -->
<g id="edge1" class="edge">
<title>Node2&#45;&gt;Node1</title>
<path fill="none" stroke="midnightblue" d="M257.85,-459.28C252.02,-446.72 246.03,-433.81 239.98,-420.78"/>
<polygon fill="none" stroke="midnightblue" points="254.68,-460.77 262.07,-468.36 261.03,-457.82 254.68,-460.77"/>
</g>
<!-- Node3 -->
<g id="node3" class="node">
<title>Node3</title>
<g id="a_node3"><a xlink:href="a00641.html" target="_top" xlink:title="MiraiCode父类, 指可以被转换成miraicode的类型">
<polygon fill="white" stroke="black" points="347.35,-804.5 347.35,-894.5 468.35,-894.5 468.35,-804.5 347.35,-804.5"/>
<text text-anchor="middle" x="407.85" y="-882.5" font-family="Helvetica,sans-Serif" font-size="10.00">MiraiCP::MiraiCodeable</text>
<polyline fill="none" stroke="black" points="347.35,-875.5 468.35,-875.5 "/>
<text text-anchor="middle" x="407.85" y="-863.5" font-family="Helvetica,sans-Serif" font-size="10.00"> </text>
<polyline fill="none" stroke="black" points="347.35,-856.5 468.35,-856.5 "/>
<text text-anchor="start" x="355.35" y="-844.5" font-family="Helvetica,sans-Serif" font-size="10.00">+ virtual std::string</text>
<text text-anchor="start" x="355.35" y="-833.5" font-family="Helvetica,sans-Serif" font-size="10.00"> toMiraiCode() const =0</text>
<text text-anchor="start" x="355.35" y="-822.5" font-family="Helvetica,sans-Serif" font-size="10.00">+ virtual ~MiraiCodeable</text>
<text text-anchor="start" x="355.35" y="-811.5" font-family="Helvetica,sans-Serif" font-size="10.00">()=default</text>
</a>
</g>
</g>
<!-- Node3&#45;&gt;Node2 -->
<g id="edge2" class="edge">
<title>Node3&#45;&gt;Node2</title>
<path fill="none" stroke="midnightblue" d="M389.25,-794.74C381.97,-773.71 373.3,-748.64 364.61,-723.53"/>
<polygon fill="none" stroke="midnightblue" points="386.01,-796.1 392.59,-804.4 392.63,-793.81 386.01,-796.1"/>
</g>
<!-- Node4 -->
<g id="node4" class="node">
<title>Node4</title>
<g id="a_node4"><a xlink:title=" ">
<polygon fill="white" stroke="#bfbfbf" points="131.35,-821 131.35,-878 172.35,-878 172.35,-821 131.35,-821"/>
<text text-anchor="middle" x="151.85" y="-866" font-family="Helvetica,sans-Serif" font-size="10.00">string</text>
<polyline fill="none" stroke="#bfbfbf" points="131.35,-859 172.35,-859 "/>
<text text-anchor="middle" x="151.85" y="-847" font-family="Helvetica,sans-Serif" font-size="10.00"> </text>
<polyline fill="none" stroke="#bfbfbf" points="131.35,-840 172.35,-840 "/>
<text text-anchor="middle" x="151.85" y="-828" font-family="Helvetica,sans-Serif" font-size="10.00"> </text>
</a>
</g>
</g>
<!-- Node4&#45;&gt;Node2 -->
<g id="edge3" class="edge">
<title>Node4&#45;&gt;Node2</title>
<path fill="none" stroke="#404040" d="M171.18,-820.95C188.74,-795.81 215.28,-757.58 237.85,-724 238.71,-722.71 239.58,-721.41 240.46,-720.1"/>
<polygon fill="none" stroke="#404040" points="240.56,-719.95 240.57,-712.74 247.23,-709.97 247.22,-717.18 240.56,-719.95"/>
<text text-anchor="middle" x="245.85" y="-767" font-family="Helvetica,sans-Serif" font-size="10.00"> +content</text>
<text text-anchor="middle" x="245.85" y="-756" font-family="Helvetica,sans-Serif" font-size="10.00">+prefix</text>
</g>
<!-- Node8 -->
<g id="node8" class="node">
<title>Node8</title>
<g id="a_node8"><a xlink:href="a00573.html" target="_top" xlink:title="转发信息显示策略, 目前好像只在转发信息内的转发信息生效">
<polygon fill="white" stroke="black" points="56.35,-468.5 56.35,-723.5 229.35,-723.5 229.35,-468.5 56.35,-468.5"/>
<text text-anchor="start" x="64.35" y="-711.5" font-family="Helvetica,sans-Serif" font-size="10.00">MiraiCP::ForwardedMessage</text>
<text text-anchor="middle" x="142.85" y="-700.5" font-family="Helvetica,sans-Serif" font-size="10.00">DisplayStrategy</text>
<polyline fill="none" stroke="black" points="56.35,-693.5 229.35,-693.5 "/>
<text text-anchor="middle" x="142.85" y="-681.5" font-family="Helvetica,sans-Serif" font-size="10.00"> </text>
<polyline fill="none" stroke="black" points="56.35,-674.5 229.35,-674.5 "/>
<text text-anchor="start" x="64.35" y="-662.5" font-family="Helvetica,sans-Serif" font-size="10.00">+ bool operator==(const</text>
<text text-anchor="start" x="64.35" y="-651.5" font-family="Helvetica,sans-Serif" font-size="10.00"> ForwardedMessageDisplayStrategy</text>
<text text-anchor="start" x="64.35" y="-640.5" font-family="Helvetica,sans-Serif" font-size="10.00"> &amp;other) const</text>
<text text-anchor="start" x="64.35" y="-629.5" font-family="Helvetica,sans-Serif" font-size="10.00">+ ForwardedMessageDisplay</text>
<text text-anchor="start" x="64.35" y="-618.5" font-family="Helvetica,sans-Serif" font-size="10.00">Strategy()=default</text>
<text text-anchor="start" x="64.35" y="-607.5" font-family="Helvetica,sans-Serif" font-size="10.00">+ ForwardedMessageDisplay</text>
<text text-anchor="start" x="64.35" y="-596.5" font-family="Helvetica,sans-Serif" font-size="10.00">Strategy(std::string title,</text>
<text text-anchor="start" x="64.35" y="-585.5" font-family="Helvetica,sans-Serif" font-size="10.00"> std::string brief, std::</text>
<text text-anchor="start" x="64.35" y="-574.5" font-family="Helvetica,sans-Serif" font-size="10.00">string source, std::string</text>
<text text-anchor="start" x="64.35" y="-563.5" font-family="Helvetica,sans-Serif" font-size="10.00"> summary, std::vector&lt; std</text>
<text text-anchor="start" x="64.35" y="-552.5" font-family="Helvetica,sans-Serif" font-size="10.00">::string &gt; preview)</text>
<text text-anchor="start" x="64.35" y="-541.5" font-family="Helvetica,sans-Serif" font-size="10.00">+ nlohmann::json toJson</text>
<text text-anchor="start" x="64.35" y="-530.5" font-family="Helvetica,sans-Serif" font-size="10.00">() const</text>
<text text-anchor="start" x="64.35" y="-519.5" font-family="Helvetica,sans-Serif" font-size="10.00">+ static ForwardedMessageDisplay</text>
<text text-anchor="start" x="64.35" y="-508.5" font-family="Helvetica,sans-Serif" font-size="10.00">Strategy defaultStrategy()</text>
<text text-anchor="start" x="64.35" y="-497.5" font-family="Helvetica,sans-Serif" font-size="10.00">+ static ForwardedMessageDisplay</text>
<text text-anchor="start" x="64.35" y="-486.5" font-family="Helvetica,sans-Serif" font-size="10.00">Strategy fromJson(const nlohmann</text>
<text text-anchor="start" x="64.35" y="-475.5" font-family="Helvetica,sans-Serif" font-size="10.00">::json &amp;j)</text>
</a>
</g>
</g>
<!-- Node4&#45;&gt;Node8 -->
<g id="edge8" class="edge">
<title>Node4&#45;&gt;Node8</title>
<path fill="none" stroke="#404040" d="M147.57,-820.88C146.09,-810.03 144.61,-797.46 143.85,-786 142.77,-769.8 142.07,-752.8 141.65,-735.91"/>
<polygon fill="none" stroke="#404040" points="141.64,-735.65 137.51,-729.73 141.38,-723.65 145.51,-729.56 141.64,-735.65"/>
<text text-anchor="middle" x="167.35" y="-778" font-family="Helvetica,sans-Serif" font-size="10.00"> +brief</text>
<text text-anchor="middle" x="167.35" y="-767" font-family="Helvetica,sans-Serif" font-size="10.00">+source</text>
<text text-anchor="middle" x="167.35" y="-756" font-family="Helvetica,sans-Serif" font-size="10.00">+summary</text>
<text text-anchor="middle" x="167.35" y="-745" font-family="Helvetica,sans-Serif" font-size="10.00">+title</text>
</g>
<!-- Node5 -->
<g id="node5" class="node">
<title>Node5</title>
<g id="a_node5"><a xlink:title=" ">
<polygon fill="white" stroke="#bfbfbf" points="486.35,-821 486.35,-878 515.35,-878 515.35,-821 486.35,-821"/>
<text text-anchor="middle" x="500.85" y="-866" font-family="Helvetica,sans-Serif" font-size="10.00">int</text>
<polyline fill="none" stroke="#bfbfbf" points="486.35,-859 515.35,-859 "/>
<text text-anchor="middle" x="500.85" y="-847" font-family="Helvetica,sans-Serif" font-size="10.00"> </text>
<polyline fill="none" stroke="#bfbfbf" points="486.35,-840 515.35,-840 "/>
<text text-anchor="middle" x="500.85" y="-828" font-family="Helvetica,sans-Serif" font-size="10.00"> </text>
</a>
</g>
</g>
<!-- Node5&#45;&gt;Node2 -->
<g id="edge4" class="edge">
<title>Node5&#45;&gt;Node2</title>
<path fill="none" stroke="#404040" d="M487.46,-820.79C484.47,-815.13 481.19,-809.3 477.85,-804 455,-767.81 427.53,-730.01 401.99,-696.76"/>
<polygon fill="none" stroke="#404040" points="401.83,-696.55 394.99,-694.25 394.49,-687.06 401.32,-689.36 401.83,-696.55"/>
<text text-anchor="middle" x="492.85" y="-761.5" font-family="Helvetica,sans-Serif" font-size="10.00"> +internalType</text>
</g>
<!-- Node6 -->
<g id="node6" class="node">
<title>Node6</title>
<g id="a_node6"><a xlink:title=" ">
<polygon fill="white" stroke="#bfbfbf" points="208.85,-815.5 208.85,-883.5 328.85,-883.5 328.85,-815.5 208.85,-815.5"/>
<text text-anchor="start" x="216.85" y="-871.5" font-family="Helvetica,sans-Serif" font-size="10.00">static const char *const</text>
<text text-anchor="middle" x="268.85" y="-860.5" font-family="Helvetica,sans-Serif" font-size="10.00"> *const</text>
<polyline fill="none" stroke="#bfbfbf" points="208.85,-853.5 328.85,-853.5 "/>
<text text-anchor="middle" x="268.85" y="-841.5" font-family="Helvetica,sans-Serif" font-size="10.00"> </text>
<polyline fill="none" stroke="#bfbfbf" points="208.85,-834.5 328.85,-834.5 "/>
<text text-anchor="middle" x="268.85" y="-822.5" font-family="Helvetica,sans-Serif" font-size="10.00"> </text>
</a>
</g>
</g>
<!-- Node6&#45;&gt;Node2 -->
<g id="edge5" class="edge">
<title>Node6&#45;&gt;Node2</title>
<path fill="none" stroke="#404040" d="M275.7,-815.36C280.06,-794.28 286.02,-765.42 292.19,-735.58"/>
<polygon fill="none" stroke="#404040" points="292.23,-735.41 289.53,-728.72 294.66,-723.66 297.36,-730.34 292.23,-735.41"/>
<text text-anchor="middle" x="328.85" y="-767" font-family="Helvetica,sans-Serif" font-size="10.00"> +messageType</text>
<text text-anchor="middle" x="328.85" y="-756" font-family="Helvetica,sans-Serif" font-size="10.00">+miraiCodeName</text>
</g>
<!-- Node7 -->
<g id="node7" class="node">
<title>Node7</title>
<g id="a_node7"><a xlink:title=" ">
<polygon fill="white" stroke="#bfbfbf" points="7.85,-821 7.85,-878 55.85,-878 55.85,-821 7.85,-821"/>
<text text-anchor="middle" x="31.85" y="-866" font-family="Helvetica,sans-Serif" font-size="10.00">vector&lt;</text>
<polyline fill="none" stroke="#bfbfbf" points="7.85,-859 55.85,-859 "/>
<text text-anchor="middle" x="31.85" y="-847" font-family="Helvetica,sans-Serif" font-size="10.00"> </text>
<polyline fill="none" stroke="#bfbfbf" points="7.85,-840 55.85,-840 "/>
<text text-anchor="middle" x="31.85" y="-828" font-family="Helvetica,sans-Serif" font-size="10.00"> </text>
</a>
</g>
</g>
<!-- Node7&#45;&gt;Node1 -->
<g id="edge6" class="edge">
<title>Node7&#45;&gt;Node1</title>
<path fill="none" stroke="#404040" d="M25.36,-820.79C11.61,-757.34 -16.77,-597.01 13.85,-468 16.68,-456.06 20.16,-444.03 24.14,-432.06"/>
<polygon fill="none" stroke="#404040" points="24.18,-431.95 22.37,-424.97 28.11,-420.61 29.93,-427.58 24.18,-431.95"/>
<text text-anchor="middle" x="30.35" y="-593.5" font-family="Helvetica,sans-Serif" font-size="10.00"> &#45;nodes</text>
</g>
<!-- Node7&#45;&gt;Node8 -->
<g id="edge9" class="edge">
<title>Node7&#45;&gt;Node8</title>
<path fill="none" stroke="#404040" d="M44.15,-820.62C53.66,-799.08 67.59,-767.5 82.01,-734.83"/>
<polygon fill="none" stroke="#404040" points="82.07,-734.7 80.83,-727.6 86.92,-723.72 88.15,-730.83 82.07,-734.7"/>
<text text-anchor="middle" x="98.35" y="-761.5" font-family="Helvetica,sans-Serif" font-size="10.00"> +preview</text>
</g>
<!-- Node8&#45;&gt;Node1 -->
<g id="edge7" class="edge">
<title>Node8&#45;&gt;Node1</title>
<path fill="none" stroke="#404040" d="M142.85,-468.36C142.85,-456.83 142.85,-444.94 142.85,-432.88"/>
<polygon fill="none" stroke="#404040" points="142.85,-432.78 138.85,-426.78 142.85,-420.78 146.85,-426.78 142.85,-432.78"/>
<text text-anchor="middle" x="161.35" y="-442" font-family="Helvetica,sans-Serif" font-size="10.00"> &#45;display</text>
</g>
</g>
</svg>
