<?xml version="1.0" encoding="UTF-8" standalone="no"?>
<!DOCTYPE svg PUBLIC "-//W3C//DTD SVG 1.1//EN"
 "http://www.w3.org/Graphics/SVG/1.1/DTD/svg11.dtd">
<!-- Generated by graphviz version 2.50.0 (20211204.2007)
 -->
<!-- Title: MiraiCP::Friend::deleteFriend Pages: 1 -->
<svg width="1624pt" height="220pt"
 viewBox="0.00 0.00 1624.00 219.76" xmlns="http://www.w3.org/2000/svg" xmlns:xlink="http://www.w3.org/1999/xlink">
<g id="graph0" class="graph" transform="scale(1 1) rotate(0) translate(4 215.76)">
<title>MiraiCP::Friend::deleteFriend</title>
<polygon fill="white" stroke="transparent" points="-4,4 -4,-215.76 1620,-215.76 1620,4 -4,4"/>
<!-- Node1 -->
<g id="node1" class="node">
<title>Node1</title>
<g id="a_node1"><a xlink:title="删除好友">
<polygon fill="#bfbfbf" stroke="black" points="0,-101.76 0,-120.76 143,-120.76 143,-101.76 0,-101.76"/>
<text text-anchor="middle" x="71.5" y="-108.76" font-family="Helvetica,sans-Serif" font-size="10.00">MiraiCP::Friend::deleteFriend</text>
</a>
</g>
</g>
<!-- Node2 -->
<g id="node2" class="node">
<title>Node2</title>
<g id="a_node2"><a xlink:href="a00415.html#a309e8d7f316e8b5e947ea3bcddeb84a8" target="_top" xlink:title="调用 Mirai 操作">
<polygon fill="white" stroke="black" points="187,-118.26 187,-148.26 296,-148.26 296,-118.26 187,-118.26"/>
<text text-anchor="start" x="195" y="-136.26" font-family="Helvetica,sans-Serif" font-size="10.00">MiraiCP::KtOperation</text>
<text text-anchor="middle" x="241.5" y="-125.26" font-family="Helvetica,sans-Serif" font-size="10.00">::ktOperation</text>
</a>
</g>
</g>
<!-- Node1&#45;&gt;Node2 -->
<g id="edge1" class="edge">
<title>Node1&#45;&gt;Node2</title>
<path fill="none" stroke="midnightblue" d="M143.26,-120.53C154.45,-121.99 165.96,-123.5 176.98,-124.94"/>
<polygon fill="midnightblue" stroke="midnightblue" points="176.56,-128.42 186.93,-126.25 177.47,-121.48 176.56,-128.42"/>
</g>
<!-- Node14 -->
<g id="node14" class="node">
<title>Node14</title>
<g id="a_node14"><a xlink:href="a00448.html#a89fb588a12ff2d4de10722788945ea55" target="_top" xlink:title="序列化到json对象">
<polygon fill="white" stroke="black" points="179,-79.76 179,-98.76 304,-98.76 304,-79.76 179,-79.76"/>
<text text-anchor="middle" x="241.5" y="-86.76" font-family="Helvetica,sans-Serif" font-size="10.00">MiraiCP::Contact::toJson</text>
</a>
</g>
</g>
<!-- Node1&#45;&gt;Node14 -->
<g id="edge17" class="edge">
<title>Node1&#45;&gt;Node14</title>
<path fill="none" stroke="midnightblue" d="M143.26,-101.99C151.68,-100.89 160.27,-99.77 168.7,-98.66"/>
<polygon fill="midnightblue" stroke="midnightblue" points="169.42,-102.1 178.88,-97.33 168.51,-95.16 169.42,-102.1"/>
</g>
<!-- Node3 -->
<g id="node3" class="node">
<title>Node3</title>
<g id="a_node3"><a xlink:href="a00415.html#a1e1e498928eeaa1d7107033ff5fa881a" target="_top" xlink:title="调用 Mirai 操作">
<polygon fill="white" stroke="black" points="340,-118.26 340,-148.26 449,-148.26 449,-118.26 340,-118.26"/>
<text text-anchor="start" x="348" y="-136.26" font-family="Helvetica,sans-Serif" font-size="10.00">MiraiCP::KtOperation</text>
<text text-anchor="middle" x="394.5" y="-125.26" font-family="Helvetica,sans-Serif" font-size="10.00">::ktOperationStr</text>
</a>
</g>
</g>
<!-- Node2&#45;&gt;Node3 -->
<g id="edge2" class="edge">
<title>Node2&#45;&gt;Node3</title>
<path fill="none" stroke="midnightblue" d="M296.16,-133.26C307,-133.26 318.5,-133.26 329.64,-133.26"/>
<polygon fill="midnightblue" stroke="midnightblue" points="329.76,-136.76 339.76,-133.26 329.76,-129.76 329.76,-136.76"/>
</g>
<!-- Node4 -->
<g id="node4" class="node">
<title>Node4</title>
<g id="a_node4"><a xlink:href="a00408.html#a4c6ac4cf4ba5ff0adb7656708bbb67d0" target="_top" xlink:title="interfaces for plugins">
<polygon fill="white" stroke="black" points="485,-118.26 485,-148.26 593,-148.26 593,-118.26 485,-118.26"/>
<text text-anchor="start" x="493" y="-136.26" font-family="Helvetica,sans-Serif" font-size="10.00">LibLoader::LoaderApi</text>
<text text-anchor="middle" x="539" y="-125.26" font-family="Helvetica,sans-Serif" font-size="10.00">::pluginOperation</text>
</a>
</g>
</g>
<!-- Node3&#45;&gt;Node4 -->
<g id="edge3" class="edge">
<title>Node3&#45;&gt;Node4</title>
<path fill="none" stroke="midnightblue" d="M449.37,-133.26C457.67,-133.26 466.29,-133.26 474.77,-133.26"/>
<polygon fill="midnightblue" stroke="midnightblue" points="475,-136.76 485,-133.26 475,-129.76 475,-136.76"/>
</g>
<!-- Node5 -->
<g id="node5" class="node">
<title>Node5</title>
<g id="a_node5"><a xlink:href="a00740.html#acc90fdac094544c4ddd9d6fd13baa5da" target="_top" xlink:title=" ">
<polygon fill="white" stroke="black" points="629,-181.26 629,-211.26 764,-211.26 764,-181.26 629,-181.26"/>
<text text-anchor="start" x="637" y="-199.26" font-family="Helvetica,sans-Serif" font-size="10.00">MiraiCP::MiraiCPStringview</text>
<text text-anchor="middle" x="696.5" y="-188.26" font-family="Helvetica,sans-Serif" font-size="10.00">::c_str</text>
</a>
</g>
</g>
<!-- Node4&#45;&gt;Node5 -->
<g id="edge4" class="edge">
<title>Node4&#45;&gt;Node5</title>
<path fill="none" stroke="midnightblue" d="M577.25,-148.35C598.71,-157.05 625.89,-168.06 648.77,-177.33"/>
<polygon fill="midnightblue" stroke="midnightblue" points="647.71,-180.67 658.29,-181.19 650.33,-174.19 647.71,-180.67"/>
</g>
<!-- Node6 -->
<g id="node6" class="node">
<title>Node6</title>
<g id="a_node6"><a xlink:href="a00768.html#aea7d58ff9f04d6d4849c25a2506603a5" target="_top" xlink:title="取env,如果不存在重新获取">
<polygon fill="white" stroke="black" points="1253,-104.76 1253,-123.76 1372,-123.76 1372,-104.76 1253,-104.76"/>
<text text-anchor="middle" x="1312.5" y="-111.76" font-family="Helvetica,sans-Serif" font-size="10.00">JNIEnvManager::getEnv</text>
</a>
</g>
</g>
<!-- Node4&#45;&gt;Node6 -->
<g id="edge5" class="edge">
<title>Node4&#45;&gt;Node6</title>
<path fill="none" stroke="midnightblue" d="M593.25,-138.35C656.8,-143.98 766.3,-152.26 860.5,-152.26 860.5,-152.26 860.5,-152.26 1021.5,-152.26 1103.89,-152.26 1198.34,-137 1256.46,-125.82"/>
<polygon fill="midnightblue" stroke="midnightblue" points="1257.39,-129.2 1266.53,-123.85 1256.05,-122.33 1257.39,-129.2"/>
</g>
<!-- Node9 -->
<g id="node9" class="node">
<title>Node9</title>
<g id="a_node9"><a xlink:href="a00407.html#aa5f8d0ecd9dd392b491070aace643ae3" target="_top" xlink:title=" ">
<polygon fill="white" stroke="black" points="808,-104.76 808,-123.76 915,-123.76 915,-104.76 808,-104.76"/>
<text text-anchor="middle" x="861.5" y="-111.76" font-family="Helvetica,sans-Serif" font-size="10.00">LibLoader::jstring2str</text>
</a>
</g>
</g>
<!-- Node4&#45;&gt;Node9 -->
<g id="edge8" class="edge">
<title>Node4&#45;&gt;Node9</title>
<path fill="none" stroke="midnightblue" d="M593.28,-130.1C649.57,-126.77 738.25,-121.51 797.85,-117.98"/>
<polygon fill="midnightblue" stroke="midnightblue" points="798.11,-121.47 807.89,-117.38 797.7,-114.48 798.11,-121.47"/>
</g>
<!-- Node11 -->
<g id="node11" class="node">
<title>Node11</title>
<g id="a_node11"><a xlink:href="a00407.html#a6a6fcd695791253a9b3a053d313b2b93" target="_top" xlink:title=" ">
<polygon fill="white" stroke="black" points="643,-44.76 643,-63.76 750,-63.76 750,-44.76 643,-44.76"/>
<text text-anchor="middle" x="696.5" y="-51.76" font-family="Helvetica,sans-Serif" font-size="10.00">LibLoader::str2jstring</text>
</a>
</g>
</g>
<!-- Node4&#45;&gt;Node11 -->
<g id="edge11" class="edge">
<title>Node4&#45;&gt;Node11</title>
<path fill="none" stroke="midnightblue" d="M569.61,-118.22C597.83,-103.88 640,-82.46 667.63,-68.42"/>
<polygon fill="midnightblue" stroke="midnightblue" points="669.42,-71.44 676.75,-63.79 666.25,-65.2 669.42,-71.44"/>
</g>
<!-- Node7 -->
<g id="node7" class="node">
<title>Node7</title>
<g id="a_node7"><a xlink:href="a00200.html#a3d31403b7971274d47d308245206bd24" target="_top" xlink:title="为当前线程创建一个env.">
<polygon fill="white" stroke="black" points="1408,-104.76 1408,-123.76 1458,-123.76 1458,-104.76 1408,-104.76"/>
<text text-anchor="middle" x="1433" y="-111.76" font-family="Helvetica,sans-Serif" font-size="10.00">newEnv</text>
</a>
</g>
</g>
<!-- Node6&#45;&gt;Node7 -->
<g id="edge6" class="edge">
<title>Node6&#45;&gt;Node7</title>
<path fill="none" stroke="midnightblue" d="M1372.06,-114.26C1380.89,-114.26 1389.75,-114.26 1397.85,-114.26"/>
<polygon fill="midnightblue" stroke="midnightblue" points="1397.98,-117.76 1407.98,-114.26 1397.98,-110.76 1397.98,-117.76"/>
</g>
<!-- Node8 -->
<g id="node8" class="node">
<title>Node8</title>
<g id="a_node8"><a xlink:href="a00768.html#ae0e482c6a813848a8f5d34957d1b6307" target="_top" xlink:title="获取全局JavaVM对象.">
<polygon fill="white" stroke="black" points="1494,-104.76 1494,-123.76 1616,-123.76 1616,-104.76 1494,-104.76"/>
<text text-anchor="middle" x="1555" y="-111.76" font-family="Helvetica,sans-Serif" font-size="10.00">JNIEnvManager::getGvm</text>
</a>
</g>
</g>
<!-- Node7&#45;&gt;Node8 -->
<g id="edge7" class="edge">
<title>Node7&#45;&gt;Node8</title>
<path fill="none" stroke="midnightblue" d="M1458.28,-114.26C1465.75,-114.26 1474.37,-114.26 1483.32,-114.26"/>
<polygon fill="midnightblue" stroke="midnightblue" points="1483.52,-117.76 1493.52,-114.26 1483.52,-110.76 1483.52,-117.76"/>
</g>
<!-- Node10 -->
<g id="node10" class="node">
<title>Node10</title>
<g id="a_node10"><a xlink:href="a00411.html#a076c5f4ff8083c7cfc6523498d0ba30f" target="_top" xlink:title=" ">
<polygon fill="white" stroke="black" points="1118,-77.26 1118,-107.26 1217,-107.26 1217,-77.26 1118,-77.26"/>
<text text-anchor="start" x="1126" y="-95.26" font-family="Helvetica,sans-Serif" font-size="10.00">LibLoader::JNIEnvs</text>
<text text-anchor="middle" x="1167.5" y="-84.26" font-family="Helvetica,sans-Serif" font-size="10.00">::getEnv</text>
</a>
</g>
</g>
<!-- Node9&#45;&gt;Node10 -->
<g id="edge9" class="edge">
<title>Node9&#45;&gt;Node10</title>
<path fill="none" stroke="midnightblue" d="M915.11,-110.45C968.7,-106.58 1051.65,-100.57 1107.46,-96.53"/>
<polygon fill="midnightblue" stroke="midnightblue" points="1107.83,-100.02 1117.55,-95.8 1107.32,-93.03 1107.83,-100.02"/>
</g>
<!-- Node10&#45;&gt;Node6 -->
<g id="edge10" class="edge">
<title>Node10&#45;&gt;Node6</title>
<path fill="none" stroke="midnightblue" d="M1217.31,-99.77C1225.51,-101.03 1234.16,-102.36 1242.75,-103.68"/>
<polygon fill="midnightblue" stroke="midnightblue" points="1242.36,-107.17 1252.78,-105.23 1243.43,-100.25 1242.36,-107.17"/>
</g>
<!-- Node11&#45;&gt;Node10 -->
<g id="edge12" class="edge">
<title>Node11&#45;&gt;Node10</title>
<path fill="none" stroke="midnightblue" d="M750.39,-58.55C838.71,-65.7 1015.59,-80.03 1107.7,-87.5"/>
<polygon fill="midnightblue" stroke="midnightblue" points="1107.44,-90.99 1117.69,-88.31 1108.01,-84.01 1107.44,-90.99"/>
</g>
<!-- Node12 -->
<g id="node12" class="node">
<title>Node12</title>
<g id="a_node12"><a xlink:href="a00800.html#af50d0545fe7d683e54fcd03453a423e3" target="_top" xlink:title=" ">
<polygon fill="white" stroke="black" points="800,-17.26 800,-47.26 923,-47.26 923,-17.26 800,-17.26"/>
<text text-anchor="start" x="808" y="-35.26" font-family="Helvetica,sans-Serif" font-size="10.00">LibLoader::LoaderLogger</text>
<text text-anchor="middle" x="861.5" y="-24.26" font-family="Helvetica,sans-Serif" font-size="10.00">::warning</text>
</a>
</g>
</g>
<!-- Node11&#45;&gt;Node12 -->
<g id="edge13" class="edge">
<title>Node11&#45;&gt;Node12</title>
<path fill="none" stroke="midnightblue" d="M750.42,-47.12C763.01,-45.42 776.65,-43.58 789.89,-41.79"/>
<polygon fill="midnightblue" stroke="midnightblue" points="790.48,-45.24 799.92,-40.44 789.54,-38.31 790.48,-45.24"/>
</g>
<!-- Node13 -->
<g id="node13" class="node">
<title>Node13</title>
<g id="a_node13"><a xlink:href="a00800.html#af4d7d5164450e25f7401d1cc15f15b8d" target="_top" xlink:title="实际暴露的接口">
<polygon fill="white" stroke="black" points="959,-17.26 959,-47.26 1082,-47.26 1082,-17.26 959,-17.26"/>
<text text-anchor="start" x="967" y="-35.26" font-family="Helvetica,sans-Serif" font-size="10.00">LibLoader::LoaderLogger</text>
<text text-anchor="middle" x="1020.5" y="-24.26" font-family="Helvetica,sans-Serif" font-size="10.00">::call_logger</text>
</a>
</g>
</g>
<!-- Node12&#45;&gt;Node13 -->
<g id="edge14" class="edge">
<title>Node12&#45;&gt;Node13</title>
<path fill="none" stroke="midnightblue" d="M923.2,-32.26C931.64,-32.26 940.36,-32.26 948.95,-32.26"/>
<polygon fill="midnightblue" stroke="midnightblue" points="948.96,-35.76 958.96,-32.26 948.96,-28.76 948.96,-35.76"/>
</g>
<!-- Node13&#45;&gt;Node10 -->
<g id="edge15" class="edge">
<title>Node13&#45;&gt;Node10</title>
<path fill="none" stroke="midnightblue" d="M1058.09,-47.4C1077.14,-55.28 1100.61,-65 1120.84,-73.37"/>
<polygon fill="midnightblue" stroke="midnightblue" points="1119.6,-76.64 1130.17,-77.23 1122.27,-70.17 1119.6,-76.64"/>
</g>
<!-- Node13&#45;&gt;Node11 -->
<g id="edge16" class="edge">
<title>Node13&#45;&gt;Node11</title>
<path fill="none" stroke="midnightblue" d="M971.37,-17.24C956.07,-13.15 938.97,-9.3 923,-7.26 868.77,-0.35 853.41,4.4 800,-7.26 771.6,-13.46 741.66,-28.28 721.52,-39.64"/>
<polygon fill="midnightblue" stroke="midnightblue" points="719.64,-36.68 712.74,-44.72 723.15,-42.74 719.64,-36.68"/>
</g>
</g>
</svg>
