<?xml version="1.0" encoding="UTF-8" standalone="no"?>
<!DOCTYPE svg PUBLIC "-//W3C//DTD SVG 1.1//EN"
 "http://www.w3.org/Graphics/SVG/1.1/DTD/svg11.dtd">
<!-- Generated by graphviz version 2.50.0 (20211204.2007)
 -->
<!-- Title: MiraiCP::Group::getFileByFile Pages: 1 -->
<svg width="1840pt" height="318pt"
 viewBox="0.00 0.00 1840.00 317.76" xmlns="http://www.w3.org/2000/svg" xmlns:xlink="http://www.w3.org/1999/xlink">
<g id="graph0" class="graph" transform="scale(1 1) rotate(0) translate(4 313.76)">
<title>MiraiCP::Group::getFileByFile</title>
<polygon fill="white" stroke="transparent" points="-4,4 -4,-313.76 1836,-313.76 1836,4 -4,4"/>
<!-- Node1 -->
<g id="node1" class="node">
<title>Node1</title>
<g id="a_node1"><a xlink:title=" ">
<polygon fill="#bfbfbf" stroke="black" points="0,-123.76 0,-142.76 146,-142.76 146,-123.76 0,-123.76"/>
<text text-anchor="middle" x="73" y="-130.76" font-family="Helvetica,sans-Serif" font-size="10.00">MiraiCP::Group::getFileByFile</text>
</a>
</g>
</g>
<!-- Node2 -->
<g id="node2" class="node">
<title>Node2</title>
<g id="a_node2"><a xlink:href="a00592.html#a0f975b9bfbedb9d5d4fee9b95c9dbe65" target="_top" xlink:title="取文件信息(根据id)">
<polygon fill="white" stroke="black" points="182,-123.76 182,-142.76 320,-142.76 320,-123.76 182,-123.76"/>
<text text-anchor="middle" x="251" y="-130.76" font-family="Helvetica,sans-Serif" font-size="10.00">MiraiCP::Group::getFileById</text>
</a>
</g>
</g>
<!-- Node1&#45;&gt;Node2 -->
<g id="edge1" class="edge">
<title>Node1&#45;&gt;Node2</title>
<path fill="none" stroke="midnightblue" d="M146.09,-133.26C154.62,-133.26 163.36,-133.26 171.96,-133.26"/>
<polygon fill="midnightblue" stroke="midnightblue" points="171.99,-136.76 181.99,-133.26 171.99,-129.76 171.99,-136.76"/>
</g>
<!-- Node3 -->
<g id="node3" class="node">
<title>Node3</title>
<g id="a_node3"><a xlink:href="a00700.html#a86d0f3d9b2d7ef5aab70d377297528fc" target="_top" xlink:title=" ">
<polygon fill="white" stroke="black" points="360,-189.26 360,-219.26 477,-219.26 477,-189.26 360,-189.26"/>
<text text-anchor="start" x="368" y="-207.26" font-family="Helvetica,sans-Serif" font-size="10.00">MiraiCP::RemoteFile</text>
<text text-anchor="middle" x="418.5" y="-196.26" font-family="Helvetica,sans-Serif" font-size="10.00">::deserializeFromString</text>
</a>
</g>
</g>
<!-- Node2&#45;&gt;Node3 -->
<g id="edge2" class="edge">
<title>Node2&#45;&gt;Node3</title>
<path fill="none" stroke="midnightblue" d="M274.32,-142.84C299.43,-153.61 340.85,-171.38 372.7,-185.04"/>
<polygon fill="midnightblue" stroke="midnightblue" points="371.68,-188.41 382.25,-189.14 374.44,-181.98 371.68,-188.41"/>
</g>
<!-- Node9 -->
<g id="node9" class="node">
<title>Node9</title>
<g id="a_node9"><a xlink:href="a00415.html#a309e8d7f316e8b5e947ea3bcddeb84a8" target="_top" xlink:title="调用 Mirai 操作">
<polygon fill="white" stroke="black" points="364,-118.26 364,-148.26 473,-148.26 473,-118.26 364,-118.26"/>
<text text-anchor="start" x="372" y="-136.26" font-family="Helvetica,sans-Serif" font-size="10.00">MiraiCP::KtOperation</text>
<text text-anchor="middle" x="418.5" y="-125.26" font-family="Helvetica,sans-Serif" font-size="10.00">::ktOperation</text>
</a>
</g>
</g>
<!-- Node2&#45;&gt;Node9 -->
<g id="edge8" class="edge">
<title>Node2&#45;&gt;Node9</title>
<path fill="none" stroke="midnightblue" d="M320.27,-133.26C331.27,-133.26 342.62,-133.26 353.51,-133.26"/>
<polygon fill="midnightblue" stroke="midnightblue" points="353.79,-136.76 363.79,-133.26 353.79,-129.76 353.79,-136.76"/>
</g>
<!-- Node21 -->
<g id="node21" class="node">
<title>Node21</title>
<g id="a_node21"><a xlink:href="a00448.html#a89fb588a12ff2d4de10722788945ea55" target="_top" xlink:title="序列化到json对象">
<polygon fill="white" stroke="black" points="356,-79.76 356,-98.76 481,-98.76 481,-79.76 356,-79.76"/>
<text text-anchor="middle" x="418.5" y="-86.76" font-family="Helvetica,sans-Serif" font-size="10.00">MiraiCP::Contact::toJson</text>
</a>
</g>
</g>
<!-- Node2&#45;&gt;Node21 -->
<g id="edge24" class="edge">
<title>Node2&#45;&gt;Node21</title>
<path fill="none" stroke="midnightblue" d="M287.91,-123.71C312.53,-117.17 345.39,-108.43 371.86,-101.4"/>
<polygon fill="midnightblue" stroke="midnightblue" points="372.89,-104.74 381.66,-98.79 371.1,-97.98 372.89,-104.74"/>
</g>
<!-- Node4 -->
<g id="node4" class="node">
<title>Node4</title>
<g id="a_node4"><a xlink:href="a00612.html#af14d39efa300da183070784bc86d3f23" target="_top" xlink:title="发送错误(error级日志)">
<polygon fill="white" stroke="black" points="517,-255.26 517,-285.26 645,-285.26 645,-255.26 517,-255.26"/>
<text text-anchor="start" x="525" y="-273.26" font-family="Helvetica,sans-Serif" font-size="10.00">MiraiCP::Logger_interface</text>
<text text-anchor="middle" x="581" y="-262.26" font-family="Helvetica,sans-Serif" font-size="10.00">::error</text>
</a>
</g>
</g>
<!-- Node3&#45;&gt;Node4 -->
<g id="edge3" class="edge">
<title>Node3&#45;&gt;Node4</title>
<path fill="none" stroke="midnightblue" d="M455.09,-219.43C473.53,-227.24 496.43,-236.86 517,-245.26 521.85,-247.24 526.91,-249.29 531.97,-251.32"/>
<polygon fill="midnightblue" stroke="midnightblue" points="531.05,-254.72 541.64,-255.18 533.65,-248.22 531.05,-254.72"/>
</g>
<!-- Node7 -->
<g id="node7" class="node">
<title>Node7</title>
<g id="a_node7"><a xlink:href="a00397.html#adb669a26688c68d7e8fba360377c2439" target="_top" xlink:title=" ">
<polygon fill="white" stroke="black" points="519,-216.76 519,-235.76 643,-235.76 643,-216.76 519,-216.76"/>
<text text-anchor="middle" x="581" y="-223.76" font-family="Helvetica,sans-Serif" font-size="10.00">MiraiCP::json_jsonmover</text>
</a>
</g>
</g>
<!-- Node3&#45;&gt;Node7 -->
<g id="edge6" class="edge">
<title>Node3&#45;&gt;Node7</title>
<path fill="none" stroke="midnightblue" d="M477.44,-212.2C487.65,-213.6 498.38,-215.07 508.9,-216.52"/>
<polygon fill="midnightblue" stroke="midnightblue" points="508.51,-219.99 518.89,-217.89 509.46,-213.06 508.51,-219.99"/>
</g>
<!-- Node8 -->
<g id="node8" class="node">
<title>Node8</title>
<g id="a_node8"><a xlink:href="a00700.html#a42e9c8d14e1da508881201dbd46d54e1" target="_top" xlink:title="构造远程(群)文件">
<polygon fill="white" stroke="black" points="527.5,-167.26 527.5,-197.26 634.5,-197.26 634.5,-167.26 527.5,-167.26"/>
<text text-anchor="start" x="535.5" y="-185.26" font-family="Helvetica,sans-Serif" font-size="10.00">MiraiCP::RemoteFile</text>
<text text-anchor="middle" x="581" y="-174.26" font-family="Helvetica,sans-Serif" font-size="10.00">::RemoteFile</text>
</a>
</g>
</g>
<!-- Node3&#45;&gt;Node8 -->
<g id="edge7" class="edge">
<title>Node3&#45;&gt;Node8</title>
<path fill="none" stroke="midnightblue" d="M477.44,-196.32C490.47,-194.53 504.34,-192.63 517.54,-190.82"/>
<polygon fill="midnightblue" stroke="midnightblue" points="518.04,-194.29 527.47,-189.46 517.09,-187.35 518.04,-194.29"/>
</g>
<!-- Node5 -->
<g id="node5" class="node">
<title>Node5</title>
<g id="a_node5"><a xlink:href="a00612.html#a98af60f864a0446e23a7a27a3419d9b8" target="_top" xlink:title=" ">
<polygon fill="white" stroke="black" points="681,-279.26 681,-309.26 809,-309.26 809,-279.26 681,-279.26"/>
<text text-anchor="start" x="689" y="-297.26" font-family="Helvetica,sans-Serif" font-size="10.00">MiraiCP::Logger_interface</text>
<text text-anchor="middle" x="745" y="-286.26" font-family="Helvetica,sans-Serif" font-size="10.00">::constructString</text>
</a>
</g>
</g>
<!-- Node4&#45;&gt;Node5 -->
<g id="edge4" class="edge">
<title>Node4&#45;&gt;Node5</title>
<path fill="none" stroke="midnightblue" d="M645.1,-279.61C653.53,-280.86 662.23,-282.15 670.81,-283.42"/>
<polygon fill="midnightblue" stroke="midnightblue" points="670.4,-286.9 680.81,-284.9 671.43,-279.97 670.4,-286.9"/>
</g>
<!-- Node6 -->
<g id="node6" class="node">
<title>Node6</title>
<g id="a_node6"><a xlink:href="a00612.html#a86ea9d57475a3004be2a32b2c4c76371" target="_top" xlink:title="日志底层实现封装">
<polygon fill="white" stroke="black" points="681,-230.26 681,-260.26 809,-260.26 809,-230.26 681,-230.26"/>
<text text-anchor="start" x="689" y="-248.26" font-family="Helvetica,sans-Serif" font-size="10.00">MiraiCP::Logger_interface</text>
<text text-anchor="middle" x="745" y="-237.26" font-family="Helvetica,sans-Serif" font-size="10.00">::log_interface</text>
</a>
</g>
</g>
<!-- Node4&#45;&gt;Node6 -->
<g id="edge5" class="edge">
<title>Node4&#45;&gt;Node6</title>
<path fill="none" stroke="midnightblue" d="M645.1,-260.52C653.53,-259.22 662.23,-257.88 670.81,-256.56"/>
<polygon fill="midnightblue" stroke="midnightblue" points="671.46,-260 680.81,-255.01 670.39,-253.08 671.46,-260"/>
</g>
<!-- Node10 -->
<g id="node10" class="node">
<title>Node10</title>
<g id="a_node10"><a xlink:href="a00415.html#a1e1e498928eeaa1d7107033ff5fa881a" target="_top" xlink:title="调用 Mirai 操作">
<polygon fill="white" stroke="black" points="526.5,-118.26 526.5,-148.26 635.5,-148.26 635.5,-118.26 526.5,-118.26"/>
<text text-anchor="start" x="534.5" y="-136.26" font-family="Helvetica,sans-Serif" font-size="10.00">MiraiCP::KtOperation</text>
<text text-anchor="middle" x="581" y="-125.26" font-family="Helvetica,sans-Serif" font-size="10.00">::ktOperationStr</text>
</a>
</g>
</g>
<!-- Node9&#45;&gt;Node10 -->
<g id="edge9" class="edge">
<title>Node9&#45;&gt;Node10</title>
<path fill="none" stroke="midnightblue" d="M473.39,-133.26C487.09,-133.26 501.95,-133.26 516.1,-133.26"/>
<polygon fill="midnightblue" stroke="midnightblue" points="516.25,-136.76 526.25,-133.26 516.25,-129.76 516.25,-136.76"/>
</g>
<!-- Node11 -->
<g id="node11" class="node">
<title>Node11</title>
<g id="a_node11"><a xlink:href="a00408.html#a4c6ac4cf4ba5ff0adb7656708bbb67d0" target="_top" xlink:title="interfaces for plugins">
<polygon fill="white" stroke="black" points="691,-118.26 691,-148.26 799,-148.26 799,-118.26 691,-118.26"/>
<text text-anchor="start" x="699" y="-136.26" font-family="Helvetica,sans-Serif" font-size="10.00">LibLoader::LoaderApi</text>
<text text-anchor="middle" x="745" y="-125.26" font-family="Helvetica,sans-Serif" font-size="10.00">::pluginOperation</text>
</a>
</g>
</g>
<!-- Node10&#45;&gt;Node11 -->
<g id="edge10" class="edge">
<title>Node10&#45;&gt;Node11</title>
<path fill="none" stroke="midnightblue" d="M635.94,-133.26C650.3,-133.26 665.94,-133.26 680.75,-133.26"/>
<polygon fill="midnightblue" stroke="midnightblue" points="680.84,-136.76 690.84,-133.26 680.84,-129.76 680.84,-136.76"/>
</g>
<!-- Node12 -->
<g id="node12" class="node">
<title>Node12</title>
<g id="a_node12"><a xlink:href="a00740.html#acc90fdac094544c4ddd9d6fd13baa5da" target="_top" xlink:title=" ">
<polygon fill="white" stroke="black" points="845,-181.26 845,-211.26 980,-211.26 980,-181.26 845,-181.26"/>
<text text-anchor="start" x="853" y="-199.26" font-family="Helvetica,sans-Serif" font-size="10.00">MiraiCP::MiraiCPStringview</text>
<text text-anchor="middle" x="912.5" y="-188.26" font-family="Helvetica,sans-Serif" font-size="10.00">::c_str</text>
</a>
</g>
</g>
<!-- Node11&#45;&gt;Node12 -->
<g id="edge11" class="edge">
<title>Node11&#45;&gt;Node12</title>
<path fill="none" stroke="midnightblue" d="M785.64,-148.35C808.69,-157.12 837.93,-168.25 862.42,-177.58"/>
<polygon fill="midnightblue" stroke="midnightblue" points="861.3,-180.9 871.9,-181.19 863.8,-174.36 861.3,-180.9"/>
</g>
<!-- Node13 -->
<g id="node13" class="node">
<title>Node13</title>
<g id="a_node13"><a xlink:href="a00768.html#aea7d58ff9f04d6d4849c25a2506603a5" target="_top" xlink:title="取env,如果不存在重新获取">
<polygon fill="white" stroke="black" points="1469,-104.76 1469,-123.76 1588,-123.76 1588,-104.76 1469,-104.76"/>
<text text-anchor="middle" x="1528.5" y="-111.76" font-family="Helvetica,sans-Serif" font-size="10.00">JNIEnvManager::getEnv</text>
</a>
</g>
</g>
<!-- Node11&#45;&gt;Node13 -->
<g id="edge12" class="edge">
<title>Node11&#45;&gt;Node13</title>
<path fill="none" stroke="midnightblue" d="M799.18,-138.2C864.44,-143.83 978.51,-152.26 1076.5,-152.26 1076.5,-152.26 1076.5,-152.26 1237.5,-152.26 1319.89,-152.26 1414.34,-137 1472.46,-125.82"/>
<polygon fill="midnightblue" stroke="midnightblue" points="1473.39,-129.2 1482.53,-123.85 1472.05,-122.33 1473.39,-129.2"/>
</g>
<!-- Node16 -->
<g id="node16" class="node">
<title>Node16</title>
<g id="a_node16"><a xlink:href="a00407.html#aa5f8d0ecd9dd392b491070aace643ae3" target="_top" xlink:title=" ">
<polygon fill="white" stroke="black" points="1024,-104.76 1024,-123.76 1131,-123.76 1131,-104.76 1024,-104.76"/>
<text text-anchor="middle" x="1077.5" y="-111.76" font-family="Helvetica,sans-Serif" font-size="10.00">LibLoader::jstring2str</text>
</a>
</g>
</g>
<!-- Node11&#45;&gt;Node16 -->
<g id="edge15" class="edge">
<title>Node11&#45;&gt;Node16</title>
<path fill="none" stroke="midnightblue" d="M799.1,-130.21C857.61,-126.84 951.63,-121.44 1013.74,-117.87"/>
<polygon fill="midnightblue" stroke="midnightblue" points="1014.02,-121.36 1023.8,-117.29 1013.62,-114.37 1014.02,-121.36"/>
</g>
<!-- Node18 -->
<g id="node18" class="node">
<title>Node18</title>
<g id="a_node18"><a xlink:href="a00407.html#a6a6fcd695791253a9b3a053d313b2b93" target="_top" xlink:title=" ">
<polygon fill="white" stroke="black" points="859,-44.76 859,-63.76 966,-63.76 966,-44.76 859,-44.76"/>
<text text-anchor="middle" x="912.5" y="-51.76" font-family="Helvetica,sans-Serif" font-size="10.00">LibLoader::str2jstring</text>
</a>
</g>
</g>
<!-- Node11&#45;&gt;Node18 -->
<g id="edge18" class="edge">
<title>Node11&#45;&gt;Node18</title>
<path fill="none" stroke="midnightblue" d="M777.52,-118.22C807.68,-103.82 852.82,-82.27 882.22,-68.24"/>
<polygon fill="midnightblue" stroke="midnightblue" points="884.02,-71.26 891.54,-63.79 881.01,-64.94 884.02,-71.26"/>
</g>
<!-- Node14 -->
<g id="node14" class="node">
<title>Node14</title>
<g id="a_node14"><a xlink:href="a00200.html#a3d31403b7971274d47d308245206bd24" target="_top" xlink:title="为当前线程创建一个env.">
<polygon fill="white" stroke="black" points="1624,-104.76 1624,-123.76 1674,-123.76 1674,-104.76 1624,-104.76"/>
<text text-anchor="middle" x="1649" y="-111.76" font-family="Helvetica,sans-Serif" font-size="10.00">newEnv</text>
</a>
</g>
</g>
<!-- Node13&#45;&gt;Node14 -->
<g id="edge13" class="edge">
<title>Node13&#45;&gt;Node14</title>
<path fill="none" stroke="midnightblue" d="M1588.06,-114.26C1596.89,-114.26 1605.75,-114.26 1613.85,-114.26"/>
<polygon fill="midnightblue" stroke="midnightblue" points="1613.98,-117.76 1623.98,-114.26 1613.98,-110.76 1613.98,-117.76"/>
</g>
<!-- Node15 -->
<g id="node15" class="node">
<title>Node15</title>
<g id="a_node15"><a xlink:href="a00768.html#ae0e482c6a813848a8f5d34957d1b6307" target="_top" xlink:title="获取全局JavaVM对象.">
<polygon fill="white" stroke="black" points="1710,-104.76 1710,-123.76 1832,-123.76 1832,-104.76 1710,-104.76"/>
<text text-anchor="middle" x="1771" y="-111.76" font-family="Helvetica,sans-Serif" font-size="10.00">JNIEnvManager::getGvm</text>
</a>
</g>
</g>
<!-- Node14&#45;&gt;Node15 -->
<g id="edge14" class="edge">
<title>Node14&#45;&gt;Node15</title>
<path fill="none" stroke="midnightblue" d="M1674.28,-114.26C1681.75,-114.26 1690.37,-114.26 1699.32,-114.26"/>
<polygon fill="midnightblue" stroke="midnightblue" points="1699.52,-117.76 1709.52,-114.26 1699.52,-110.76 1699.52,-117.76"/>
</g>
<!-- Node17 -->
<g id="node17" class="node">
<title>Node17</title>
<g id="a_node17"><a xlink:href="a00411.html#a076c5f4ff8083c7cfc6523498d0ba30f" target="_top" xlink:title=" ">
<polygon fill="white" stroke="black" points="1334,-77.26 1334,-107.26 1433,-107.26 1433,-77.26 1334,-77.26"/>
<text text-anchor="start" x="1342" y="-95.26" font-family="Helvetica,sans-Serif" font-size="10.00">LibLoader::JNIEnvs</text>
<text text-anchor="middle" x="1383.5" y="-84.26" font-family="Helvetica,sans-Serif" font-size="10.00">::getEnv</text>
</a>
</g>
</g>
<!-- Node16&#45;&gt;Node17 -->
<g id="edge16" class="edge">
<title>Node16&#45;&gt;Node17</title>
<path fill="none" stroke="midnightblue" d="M1131.11,-110.45C1184.7,-106.58 1267.65,-100.57 1323.46,-96.53"/>
<polygon fill="midnightblue" stroke="midnightblue" points="1323.83,-100.02 1333.55,-95.8 1323.32,-93.03 1323.83,-100.02"/>
</g>
<!-- Node17&#45;&gt;Node13 -->
<g id="edge17" class="edge">
<title>Node17&#45;&gt;Node13</title>
<path fill="none" stroke="midnightblue" d="M1433.31,-99.77C1441.51,-101.03 1450.16,-102.36 1458.75,-103.68"/>
<polygon fill="midnightblue" stroke="midnightblue" points="1458.36,-107.17 1468.78,-105.23 1459.43,-100.25 1458.36,-107.17"/>
</g>
<!-- Node18&#45;&gt;Node17 -->
<g id="edge19" class="edge">
<title>Node18&#45;&gt;Node17</title>
<path fill="none" stroke="midnightblue" d="M966.39,-58.55C1054.71,-65.7 1231.59,-80.03 1323.7,-87.5"/>
<polygon fill="midnightblue" stroke="midnightblue" points="1323.44,-90.99 1333.69,-88.31 1324.01,-84.01 1323.44,-90.99"/>
</g>
<!-- Node19 -->
<g id="node19" class="node">
<title>Node19</title>
<g id="a_node19"><a xlink:href="a00800.html#af50d0545fe7d683e54fcd03453a423e3" target="_top" xlink:title=" ">
<polygon fill="white" stroke="black" points="1016,-17.26 1016,-47.26 1139,-47.26 1139,-17.26 1016,-17.26"/>
<text text-anchor="start" x="1024" y="-35.26" font-family="Helvetica,sans-Serif" font-size="10.00">LibLoader::LoaderLogger</text>
<text text-anchor="middle" x="1077.5" y="-24.26" font-family="Helvetica,sans-Serif" font-size="10.00">::warning</text>
</a>
</g>
</g>
<!-- Node18&#45;&gt;Node19 -->
<g id="edge20" class="edge">
<title>Node18&#45;&gt;Node19</title>
<path fill="none" stroke="midnightblue" d="M966.42,-47.12C979.01,-45.42 992.65,-43.58 1005.89,-41.79"/>
<polygon fill="midnightblue" stroke="midnightblue" points="1006.48,-45.24 1015.92,-40.44 1005.54,-38.31 1006.48,-45.24"/>
</g>
<!-- Node20 -->
<g id="node20" class="node">
<title>Node20</title>
<g id="a_node20"><a xlink:href="a00800.html#af4d7d5164450e25f7401d1cc15f15b8d" target="_top" xlink:title="实际暴露的接口">
<polygon fill="white" stroke="black" points="1175,-17.26 1175,-47.26 1298,-47.26 1298,-17.26 1175,-17.26"/>
<text text-anchor="start" x="1183" y="-35.26" font-family="Helvetica,sans-Serif" font-size="10.00">LibLoader::LoaderLogger</text>
<text text-anchor="middle" x="1236.5" y="-24.26" font-family="Helvetica,sans-Serif" font-size="10.00">::call_logger</text>
</a>
</g>
</g>
<!-- Node19&#45;&gt;Node20 -->
<g id="edge21" class="edge">
<title>Node19&#45;&gt;Node20</title>
<path fill="none" stroke="midnightblue" d="M1139.2,-32.26C1147.64,-32.26 1156.36,-32.26 1164.95,-32.26"/>
<polygon fill="midnightblue" stroke="midnightblue" points="1164.96,-35.76 1174.96,-32.26 1164.96,-28.76 1164.96,-35.76"/>
</g>
<!-- Node20&#45;&gt;Node17 -->
<g id="edge22" class="edge">
<title>Node20&#45;&gt;Node17</title>
<path fill="none" stroke="midnightblue" d="M1274.09,-47.4C1293.14,-55.28 1316.61,-65 1336.84,-73.37"/>
<polygon fill="midnightblue" stroke="midnightblue" points="1335.6,-76.64 1346.17,-77.23 1338.27,-70.17 1335.6,-76.64"/>
</g>
<!-- Node20&#45;&gt;Node18 -->
<g id="edge23" class="edge">
<title>Node20&#45;&gt;Node18</title>
<path fill="none" stroke="midnightblue" d="M1187.37,-17.24C1172.07,-13.15 1154.97,-9.3 1139,-7.26 1084.77,-0.35 1069.41,4.4 1016,-7.26 987.6,-13.46 957.66,-28.28 937.52,-39.64"/>
<polygon fill="midnightblue" stroke="midnightblue" points="935.64,-36.68 928.74,-44.72 939.15,-42.74 935.64,-36.68"/>
</g>
</g>
</svg>
