<?xml version="1.0" encoding="UTF-8" standalone="no"?>
<!DOCTYPE svg PUBLIC "-//W3C//DTD SVG 1.1//EN"
 "http://www.w3.org/Graphics/SVG/1.1/DTD/svg11.dtd">
<!-- Generated by graphviz version 2.50.0 (20211204.2007)
 -->
<!-- Title: MiraiCP::FriendRecallEvent Pages: 1 -->
<svg width="829pt" height="1757pt"
 viewBox="0.00 0.00 828.50 1757.00" xmlns="http://www.w3.org/2000/svg" xmlns:xlink="http://www.w3.org/1999/xlink">
<g id="graph0" class="graph" transform="scale(1 1) rotate(0) translate(4 1753)">
<title>MiraiCP::FriendRecallEvent</title>
<polygon fill="white" stroke="transparent" points="-4,4 -4,-1753 824.5,-1753 824.5,4 -4,4"/>
<!-- Node1 -->
<g id="node1" class="node">
<title>Node1</title>
<g id="a_node1"><a xlink:title=" ">
<polygon fill="#bfbfbf" stroke="black" points="328,-0.5 328,-90.5 463,-90.5 463,-0.5 328,-0.5"/>
<text text-anchor="middle" x="395.5" y="-78.5" font-family="Helvetica,sans-Serif" font-size="10.00">MiraiCP::FriendRecallEvent</text>
<polyline fill="none" stroke="black" points="328,-71.5 463,-71.5 "/>
<text text-anchor="middle" x="395.5" y="-59.5" font-family="Helvetica,sans-Serif" font-size="10.00"> </text>
<polyline fill="none" stroke="black" points="328,-52.5 463,-52.5 "/>
<text text-anchor="start" x="336" y="-40.5" font-family="Helvetica,sans-Serif" font-size="10.00">+ FriendRecallEvent</text>
<text text-anchor="start" x="336" y="-29.5" font-family="Helvetica,sans-Serif" font-size="10.00">(BaseEventData j)</text>
<text text-anchor="start" x="336" y="-18.5" font-family="Helvetica,sans-Serif" font-size="10.00">+ static eventTypes::</text>
<text text-anchor="start" x="336" y="-7.5" font-family="Helvetica,sans-Serif" font-size="10.00">Types get_event_type()</text>
</a>
</g>
</g>
<!-- Node2 -->
<g id="node2" class="node">
<title>Node2</title>
<g id="a_node2"><a xlink:href="a00473.html" target="_top" xlink:title=" ">
<polygon fill="white" stroke="black" points="137,-149.5 137,-272.5 284,-272.5 284,-149.5 137,-149.5"/>
<text text-anchor="start" x="145" y="-260.5" font-family="Helvetica,sans-Serif" font-size="10.00">MiraiCP::BotEvent&lt;</text>
<text text-anchor="middle" x="210.5" y="-249.5" font-family="Helvetica,sans-Serif" font-size="10.00"> FriendRecallEvent &gt;</text>
<polyline fill="none" stroke="black" points="137,-242.5 284,-242.5 "/>
<text text-anchor="start" x="145" y="-230.5" font-family="Helvetica,sans-Serif" font-size="10.00">+ Bot bot</text>
<text text-anchor="start" x="145" y="-219.5" font-family="Helvetica,sans-Serif" font-size="10.00">+ IdLogger botlogger</text>
<polyline fill="none" stroke="black" points="137,-212.5 284,-212.5 "/>
<text text-anchor="start" x="145" y="-200.5" font-family="Helvetica,sans-Serif" font-size="10.00">+ eventTypes::Types getEvent</text>
<text text-anchor="start" x="145" y="-189.5" font-family="Helvetica,sans-Serif" font-size="10.00">Type() const override</text>
<text text-anchor="start" x="145" y="-178.5" font-family="Helvetica,sans-Serif" font-size="10.00">+ BotEvent(QQID botid)</text>
<text text-anchor="start" x="145" y="-167.5" font-family="Helvetica,sans-Serif" font-size="10.00">+ ~BotEvent() override</text>
<text text-anchor="start" x="145" y="-156.5" font-family="Helvetica,sans-Serif" font-size="10.00">=default</text>
</a>
</g>
</g>
<!-- Node2&#45;&gt;Node1 -->
<g id="edge1" class="edge">
<title>Node2&#45;&gt;Node1</title>
<path fill="none" stroke="midnightblue" d="M286.67,-142.68C306.51,-125.15 327.38,-106.7 345.48,-90.7"/>
<polygon fill="none" stroke="midnightblue" points="284.3,-140.11 279.12,-149.35 288.94,-145.35 284.3,-140.11"/>
</g>
<!-- Node3 -->
<g id="node3" class="node">
<title>Node3</title>
<g id="a_node3"><a xlink:href="a00497.html" target="_top" xlink:title="Event抽象父类">
<polygon fill="white" stroke="black" points="0,-557.5 0,-691.5 125,-691.5 125,-557.5 0,-557.5"/>
<text text-anchor="middle" x="62.5" y="-679.5" font-family="Helvetica,sans-Serif" font-size="10.00">MiraiCP::MiraiCPEvent</text>
<polyline fill="none" stroke="black" points="0,-672.5 125,-672.5 "/>
<text text-anchor="middle" x="62.5" y="-660.5" font-family="Helvetica,sans-Serif" font-size="10.00"> </text>
<polyline fill="none" stroke="black" points="0,-653.5 125,-653.5 "/>
<text text-anchor="start" x="8" y="-641.5" font-family="Helvetica,sans-Serif" font-size="10.00">+ MiraiCPEvent()=default</text>
<text text-anchor="start" x="8" y="-630.5" font-family="Helvetica,sans-Serif" font-size="10.00">+ virtual ~MiraiCPEvent</text>
<text text-anchor="start" x="8" y="-619.5" font-family="Helvetica,sans-Serif" font-size="10.00">()=default</text>
<text text-anchor="start" x="8" y="-608.5" font-family="Helvetica,sans-Serif" font-size="10.00">+ virtual eventTypes</text>
<text text-anchor="start" x="8" y="-597.5" font-family="Helvetica,sans-Serif" font-size="10.00">::Types getEventType</text>
<text text-anchor="start" x="8" y="-586.5" font-family="Helvetica,sans-Serif" font-size="10.00">() const =0</text>
<text text-anchor="start" x="8" y="-575.5" font-family="Helvetica,sans-Serif" font-size="10.00">+ static eventTypes::</text>
<text text-anchor="start" x="8" y="-564.5" font-family="Helvetica,sans-Serif" font-size="10.00">Types get_event_type()</text>
</a>
</g>
</g>
<!-- Node3&#45;&gt;Node2 -->
<g id="edge2" class="edge">
<title>Node3&#45;&gt;Node2</title>
<path fill="none" stroke="midnightblue" d="M71.18,-547.06C79.99,-486.51 96.85,-400.79 127.5,-331 136.36,-310.82 148.86,-290.53 161.48,-272.57"/>
<polygon fill="none" stroke="midnightblue" points="67.66,-546.92 69.73,-557.31 74.59,-547.9 67.66,-546.92"/>
</g>
<!-- Node4 -->
<g id="node4" class="node">
<title>Node4</title>
<g id="a_node4"><a xlink:href="a00473.html" target="_top" xlink:title="所有事件处理timeoutevent都是机器人事件，指都有机器人实例">
<polygon fill="white" stroke="black" points="137,-331.5 137,-432.5 284,-432.5 284,-331.5 137,-331.5"/>
<text text-anchor="middle" x="210.5" y="-420.5" font-family="Helvetica,sans-Serif" font-size="10.00">MiraiCP::BotEvent&lt; T &gt;</text>
<polyline fill="none" stroke="black" points="137,-413.5 284,-413.5 "/>
<text text-anchor="middle" x="210.5" y="-401.5" font-family="Helvetica,sans-Serif" font-size="10.00"> </text>
<polyline fill="none" stroke="black" points="137,-394.5 284,-394.5 "/>
<text text-anchor="start" x="145" y="-382.5" font-family="Helvetica,sans-Serif" font-size="10.00">+ eventTypes::Types getEvent</text>
<text text-anchor="start" x="145" y="-371.5" font-family="Helvetica,sans-Serif" font-size="10.00">Type() const override</text>
<text text-anchor="start" x="145" y="-360.5" font-family="Helvetica,sans-Serif" font-size="10.00">+ BotEvent(QQID botid)</text>
<text text-anchor="start" x="145" y="-349.5" font-family="Helvetica,sans-Serif" font-size="10.00">+ ~BotEvent() override</text>
<text text-anchor="start" x="145" y="-338.5" font-family="Helvetica,sans-Serif" font-size="10.00">=default</text>
</a>
</g>
</g>
<!-- Node3&#45;&gt;Node4 -->
<g id="edge4" class="edge">
<title>Node3&#45;&gt;Node4</title>
<path fill="none" stroke="midnightblue" d="M96.09,-548.1C107.07,-525.65 119.96,-501.35 133.5,-480 143.63,-464.02 155.9,-447.57 167.63,-432.85"/>
<polygon fill="none" stroke="midnightblue" points="92.86,-546.74 91.66,-557.27 99.17,-549.78 92.86,-546.74"/>
</g>
<!-- Node4&#45;&gt;Node2 -->
<g id="edge3" class="edge">
<title>Node4&#45;&gt;Node2</title>
<path fill="none" stroke="orange" d="M210.5,-321.11C210.5,-305.44 210.5,-288.53 210.5,-272.8"/>
<polygon fill="orange" stroke="orange" points="207,-321.21 210.5,-331.21 214,-321.21 207,-321.21"/>
<text text-anchor="middle" x="260.5" y="-299.5" font-family="Helvetica,sans-Serif" font-size="10.00"> &lt; FriendRecallEvent &gt;</text>
</g>
<!-- Node5 -->
<g id="node5" class="node">
<title>Node5</title>
<g id="a_node5"><a xlink:href="a00433.html" target="_top" xlink:title="forward declaration">
<polygon fill="white" stroke="black" points="296.5,-480.5 296.5,-768.5 446.5,-768.5 446.5,-480.5 296.5,-480.5"/>
<text text-anchor="middle" x="371.5" y="-756.5" font-family="Helvetica,sans-Serif" font-size="10.00">MiraiCP::Bot</text>
<polyline fill="none" stroke="black" points="296.5,-749.5 446.5,-749.5 "/>
<text text-anchor="middle" x="371.5" y="-737.5" font-family="Helvetica,sans-Serif" font-size="10.00"> </text>
<polyline fill="none" stroke="black" points="296.5,-730.5 446.5,-730.5 "/>
<text text-anchor="start" x="304.5" y="-718.5" font-family="Helvetica,sans-Serif" font-size="10.00">+ Bot(QQID in_id)</text>
<text text-anchor="start" x="304.5" y="-707.5" font-family="Helvetica,sans-Serif" font-size="10.00">+ Friend getFriend(QQID</text>
<text text-anchor="start" x="304.5" y="-696.5" font-family="Helvetica,sans-Serif" font-size="10.00"> i) const</text>
<text text-anchor="start" x="304.5" y="-685.5" font-family="Helvetica,sans-Serif" font-size="10.00">+ Group getGroup(QQID</text>
<text text-anchor="start" x="304.5" y="-674.5" font-family="Helvetica,sans-Serif" font-size="10.00"> groupid) const</text>
<text text-anchor="start" x="304.5" y="-663.5" font-family="Helvetica,sans-Serif" font-size="10.00">+ std::string nick()</text>
<text text-anchor="start" x="304.5" y="-652.5" font-family="Helvetica,sans-Serif" font-size="10.00">+ std::string avatarUrl()</text>
<text text-anchor="start" x="304.5" y="-641.5" font-family="Helvetica,sans-Serif" font-size="10.00">+ std::vector&lt; QQID &gt;</text>
<text text-anchor="start" x="304.5" y="-630.5" font-family="Helvetica,sans-Serif" font-size="10.00"> getFriendList() const</text>
<text text-anchor="start" x="304.5" y="-619.5" font-family="Helvetica,sans-Serif" font-size="10.00">+ std::string FriendListTo</text>
<text text-anchor="start" x="304.5" y="-608.5" font-family="Helvetica,sans-Serif" font-size="10.00">String() const</text>
<text text-anchor="start" x="304.5" y="-597.5" font-family="Helvetica,sans-Serif" font-size="10.00">+ std::vector&lt; QQID &gt;</text>
<text text-anchor="start" x="304.5" y="-586.5" font-family="Helvetica,sans-Serif" font-size="10.00"> getGroupList() const</text>
<text text-anchor="start" x="304.5" y="-575.5" font-family="Helvetica,sans-Serif" font-size="10.00">+ std::string GroupListToString</text>
<text text-anchor="start" x="304.5" y="-564.5" font-family="Helvetica,sans-Serif" font-size="10.00">() const</text>
<text text-anchor="start" x="304.5" y="-553.5" font-family="Helvetica,sans-Serif" font-size="10.00">+ std::vector&lt; QQID &gt;</text>
<text text-anchor="start" x="304.5" y="-542.5" font-family="Helvetica,sans-Serif" font-size="10.00"> getOnlineBotsList()</text>
<text text-anchor="start" x="304.5" y="-531.5" font-family="Helvetica,sans-Serif" font-size="10.00"> const</text>
<text text-anchor="start" x="304.5" y="-520.5" font-family="Helvetica,sans-Serif" font-size="10.00">+ std::string OnlineBotsList</text>
<text text-anchor="start" x="304.5" y="-509.5" font-family="Helvetica,sans-Serif" font-size="10.00">ToString() const</text>
<text text-anchor="start" x="304.5" y="-498.5" font-family="Helvetica,sans-Serif" font-size="10.00">+ bool operator==(const</text>
<text text-anchor="start" x="304.5" y="-487.5" font-family="Helvetica,sans-Serif" font-size="10.00"> Bot &amp;b) const</text>
</a>
</g>
</g>
<!-- Node5&#45;&gt;Node4 -->
<g id="edge5" class="edge">
<title>Node5&#45;&gt;Node4</title>
<path fill="none" stroke="#404040" d="M296.31,-494.68C293.04,-489.69 289.77,-484.78 286.5,-480 277.97,-467.53 268.37,-454.56 258.93,-442.31"/>
<polygon fill="none" stroke="#404040" points="258.79,-442.13 251.95,-439.85 251.41,-432.66 258.26,-434.94 258.79,-442.13"/>
<text text-anchor="middle" x="285" y="-454" font-family="Helvetica,sans-Serif" font-size="10.00"> +bot</text>
</g>
<!-- Node6 -->
<g id="node6" class="node">
<title>Node6</title>
<g id="a_node6"><a xlink:href="a00445.html" target="_top" xlink:title="group, friend, member的父类">
<polygon fill="white" stroke="black" points="278,-816.5 278,-1577.5 461,-1577.5 461,-816.5 278,-816.5"/>
<text text-anchor="middle" x="369.5" y="-1565.5" font-family="Helvetica,sans-Serif" font-size="10.00">MiraiCP::Contact</text>
<polyline fill="none" stroke="black" points="278,-1558.5 461,-1558.5 "/>
<text text-anchor="middle" x="369.5" y="-1546.5" font-family="Helvetica,sans-Serif" font-size="10.00"> </text>
<polyline fill="none" stroke="black" points="278,-1539.5 461,-1539.5 "/>
<text text-anchor="start" x="286" y="-1527.5" font-family="Helvetica,sans-Serif" font-size="10.00">+ Contact()=delete</text>
<text text-anchor="start" x="286" y="-1516.5" font-family="Helvetica,sans-Serif" font-size="10.00">+ virtual ~Contact()</text>
<text text-anchor="start" x="286" y="-1505.5" font-family="Helvetica,sans-Serif" font-size="10.00">=default</text>
<text text-anchor="start" x="286" y="-1494.5" font-family="Helvetica,sans-Serif" font-size="10.00">+ bool operator==(const</text>
<text text-anchor="start" x="286" y="-1483.5" font-family="Helvetica,sans-Serif" font-size="10.00"> Contact &amp;c) const</text>
<text text-anchor="start" x="286" y="-1472.5" font-family="Helvetica,sans-Serif" font-size="10.00">+ void SetInternalData</text>
<text text-anchor="start" x="286" y="-1461.5" font-family="Helvetica,sans-Serif" font-size="10.00">(std::shared_ptr&lt; IContactData</text>
<text text-anchor="start" x="286" y="-1450.5" font-family="Helvetica,sans-Serif" font-size="10.00"> &gt; Data)</text>
<text text-anchor="start" x="286" y="-1439.5" font-family="Helvetica,sans-Serif" font-size="10.00">+ void refreshInfo()</text>
<text text-anchor="start" x="286" y="-1428.5" font-family="Helvetica,sans-Serif" font-size="10.00">+ void forceRefreshNextTime()</text>
<text text-anchor="start" x="286" y="-1417.5" font-family="Helvetica,sans-Serif" font-size="10.00">+ void forceRefreshNow()</text>
<text text-anchor="start" x="286" y="-1406.5" font-family="Helvetica,sans-Serif" font-size="10.00">+ ContactType type()</text>
<text text-anchor="start" x="286" y="-1395.5" font-family="Helvetica,sans-Serif" font-size="10.00"> const</text>
<text text-anchor="start" x="286" y="-1384.5" font-family="Helvetica,sans-Serif" font-size="10.00">+ QQID id() const</text>
<text text-anchor="start" x="286" y="-1373.5" font-family="Helvetica,sans-Serif" font-size="10.00">+ QQID botid() const</text>
<text text-anchor="start" x="286" y="-1362.5" font-family="Helvetica,sans-Serif" font-size="10.00">+ MessageSource quoteAndSend</text>
<text text-anchor="start" x="286" y="-1351.5" font-family="Helvetica,sans-Serif" font-size="10.00">Message(const T &amp;s, MessageSource</text>
<text text-anchor="start" x="286" y="-1340.5" font-family="Helvetica,sans-Serif" font-size="10.00"> ms) const</text>
<text text-anchor="start" x="286" y="-1329.5" font-family="Helvetica,sans-Serif" font-size="10.00">+ MessageSource quoteAndSend</text>
<text text-anchor="start" x="286" y="-1318.5" font-family="Helvetica,sans-Serif" font-size="10.00">Message(const MessageSource</text>
<text text-anchor="start" x="286" y="-1307.5" font-family="Helvetica,sans-Serif" font-size="10.00"> &amp;ms, T &amp;&amp;...val) const</text>
<text text-anchor="start" x="286" y="-1296.5" font-family="Helvetica,sans-Serif" font-size="10.00">+ MessageSource sendMessage</text>
<text text-anchor="start" x="286" y="-1285.5" font-family="Helvetica,sans-Serif" font-size="10.00">(T &amp;&amp;...msg) const</text>
<text text-anchor="start" x="286" y="-1274.5" font-family="Helvetica,sans-Serif" font-size="10.00">+ MessageSource sendMessage</text>
<text text-anchor="start" x="286" y="-1263.5" font-family="Helvetica,sans-Serif" font-size="10.00">(T &amp;&amp;msg) const</text>
<text text-anchor="start" x="286" y="-1252.5" font-family="Helvetica,sans-Serif" font-size="10.00">+ nlohmann::json toJson</text>
<text text-anchor="start" x="286" y="-1241.5" font-family="Helvetica,sans-Serif" font-size="10.00">() const</text>
<text text-anchor="start" x="286" y="-1230.5" font-family="Helvetica,sans-Serif" font-size="10.00">+ void updateJson(nlohmann</text>
<text text-anchor="start" x="286" y="-1219.5" font-family="Helvetica,sans-Serif" font-size="10.00">::json &amp;j) const</text>
<text text-anchor="start" x="286" y="-1208.5" font-family="Helvetica,sans-Serif" font-size="10.00">+ std::string toString</text>
<text text-anchor="start" x="286" y="-1197.5" font-family="Helvetica,sans-Serif" font-size="10.00">() const</text>
<text text-anchor="start" x="286" y="-1186.5" font-family="Helvetica,sans-Serif" font-size="10.00">+ Image uploadImg(const</text>
<text text-anchor="start" x="286" y="-1175.5" font-family="Helvetica,sans-Serif" font-size="10.00"> std::string &amp;path) const</text>
<text text-anchor="start" x="286" y="-1164.5" font-family="Helvetica,sans-Serif" font-size="10.00">+ FlashImage uploadFlashImg</text>
<text text-anchor="start" x="286" y="-1153.5" font-family="Helvetica,sans-Serif" font-size="10.00">(const std::string &amp;path) const</text>
<text text-anchor="start" x="286" y="-1142.5" font-family="Helvetica,sans-Serif" font-size="10.00">+ static std::shared</text>
<text text-anchor="start" x="286" y="-1131.5" font-family="Helvetica,sans-Serif" font-size="10.00">_ptr&lt; Contact &gt; deserialize</text>
<text text-anchor="start" x="286" y="-1120.5" font-family="Helvetica,sans-Serif" font-size="10.00">ToPointer(nlohmann::json</text>
<text text-anchor="start" x="286" y="-1109.5" font-family="Helvetica,sans-Serif" font-size="10.00"> source)</text>
<text text-anchor="start" x="286" y="-1098.5" font-family="Helvetica,sans-Serif" font-size="10.00"># Contact(std::shared</text>
<text text-anchor="start" x="286" y="-1087.5" font-family="Helvetica,sans-Serif" font-size="10.00">_ptr&lt; IContactData &gt; Data)</text>
<text text-anchor="start" x="286" y="-1076.5" font-family="Helvetica,sans-Serif" font-size="10.00"># MessageSource quoteAndSend</text>
<text text-anchor="start" x="286" y="-1065.5" font-family="Helvetica,sans-Serif" font-size="10.00">Impl(std::string msg, const</text>
<text text-anchor="start" x="286" y="-1054.5" font-family="Helvetica,sans-Serif" font-size="10.00"> MessageSource &amp;ms) const</text>
<text text-anchor="start" x="286" y="-1043.5" font-family="Helvetica,sans-Serif" font-size="10.00"># MessageSource unpackQuote</text>
<text text-anchor="start" x="286" y="-1032.5" font-family="Helvetica,sans-Serif" font-size="10.00">(const SingleMessage &amp;s,</text>
<text text-anchor="start" x="286" y="-1021.5" font-family="Helvetica,sans-Serif" font-size="10.00"> const MessageSource &amp;ms) const</text>
<text text-anchor="start" x="286" y="-1010.5" font-family="Helvetica,sans-Serif" font-size="10.00"># MessageSource unpackQuote</text>
<text text-anchor="start" x="286" y="-999.5" font-family="Helvetica,sans-Serif" font-size="10.00">(const std::string &amp;s,</text>
<text text-anchor="start" x="286" y="-988.5" font-family="Helvetica,sans-Serif" font-size="10.00"> const MessageSource &amp;ms) const</text>
<text text-anchor="start" x="286" y="-977.5" font-family="Helvetica,sans-Serif" font-size="10.00"># MessageSource unpackQuote</text>
<text text-anchor="start" x="286" y="-966.5" font-family="Helvetica,sans-Serif" font-size="10.00">(const MessageChain &amp;mc,</text>
<text text-anchor="start" x="286" y="-955.5" font-family="Helvetica,sans-Serif" font-size="10.00"> const MessageSource &amp;ms) const</text>
<text text-anchor="start" x="286" y="-944.5" font-family="Helvetica,sans-Serif" font-size="10.00"># MessageSource sendVoiceImpl</text>
<text text-anchor="start" x="286" y="-933.5" font-family="Helvetica,sans-Serif" font-size="10.00">(std::string path) const</text>
<text text-anchor="start" x="286" y="-922.5" font-family="Helvetica,sans-Serif" font-size="10.00"># MessageSource sendMsgImpl</text>
<text text-anchor="start" x="286" y="-911.5" font-family="Helvetica,sans-Serif" font-size="10.00">(std::string msg) const</text>
<text text-anchor="start" x="286" y="-900.5" font-family="Helvetica,sans-Serif" font-size="10.00"># MessageSource unpackMsg</text>
<text text-anchor="start" x="286" y="-889.5" font-family="Helvetica,sans-Serif" font-size="10.00">(const MessageChain &amp;msg)</text>
<text text-anchor="start" x="286" y="-878.5" font-family="Helvetica,sans-Serif" font-size="10.00"> const</text>
<text text-anchor="start" x="286" y="-867.5" font-family="Helvetica,sans-Serif" font-size="10.00"># MessageSource unpackMsg</text>
<text text-anchor="start" x="286" y="-856.5" font-family="Helvetica,sans-Serif" font-size="10.00">(const MiraiCodeable &amp;msg)</text>
<text text-anchor="start" x="286" y="-845.5" font-family="Helvetica,sans-Serif" font-size="10.00"> const</text>
<text text-anchor="start" x="286" y="-834.5" font-family="Helvetica,sans-Serif" font-size="10.00"># MessageSource unpackMsg</text>
<text text-anchor="start" x="286" y="-823.5" font-family="Helvetica,sans-Serif" font-size="10.00">(std::string msg) const</text>
</a>
</g>
</g>
<!-- Node6&#45;&gt;Node5 -->
<g id="edge6" class="edge">
<title>Node6&#45;&gt;Node5</title>
<path fill="none" stroke="midnightblue" d="M370.87,-805.94C370.91,-793.16 370.96,-780.71 371,-768.7"/>
<polygon fill="none" stroke="midnightblue" points="367.37,-806.25 370.83,-816.26 374.37,-806.27 367.37,-806.25"/>
</g>
<!-- Node12 -->
<g id="node12" class="node">
<title>Node12</title>
<g id="a_node12"><a xlink:href="a00585.html" target="_top" xlink:title="好友类声明">
<polygon fill="white" stroke="black" points="472.5,-552 472.5,-697 608.5,-697 608.5,-552 472.5,-552"/>
<text text-anchor="middle" x="540.5" y="-685" font-family="Helvetica,sans-Serif" font-size="10.00">MiraiCP::Friend</text>
<polyline fill="none" stroke="black" points="472.5,-678 608.5,-678 "/>
<text text-anchor="middle" x="540.5" y="-666" font-family="Helvetica,sans-Serif" font-size="10.00"> </text>
<polyline fill="none" stroke="black" points="472.5,-659 608.5,-659 "/>
<text text-anchor="start" x="480.5" y="-647" font-family="Helvetica,sans-Serif" font-size="10.00">+ Friend(QQID friendid,</text>
<text text-anchor="start" x="480.5" y="-636" font-family="Helvetica,sans-Serif" font-size="10.00"> QQID botid)</text>
<text text-anchor="start" x="480.5" y="-625" font-family="Helvetica,sans-Serif" font-size="10.00">+ Friend(nlohmann::json</text>
<text text-anchor="start" x="480.5" y="-614" font-family="Helvetica,sans-Serif" font-size="10.00"> in_json)</text>
<text text-anchor="start" x="480.5" y="-603" font-family="Helvetica,sans-Serif" font-size="10.00">+ Friend(bool)=delete</text>
<text text-anchor="start" x="480.5" y="-592" font-family="Helvetica,sans-Serif" font-size="10.00">+ ~Friend() override</text>
<text text-anchor="start" x="480.5" y="-581" font-family="Helvetica,sans-Serif" font-size="10.00">=default</text>
<text text-anchor="start" x="480.5" y="-570" font-family="Helvetica,sans-Serif" font-size="10.00">+ void deleteFriend()</text>
<text text-anchor="start" x="480.5" y="-559" font-family="Helvetica,sans-Serif" font-size="10.00">+ void sendNudge() override</text>
</a>
</g>
</g>
<!-- Node6&#45;&gt;Node12 -->
<g id="edge14" class="edge">
<title>Node6&#45;&gt;Node12</title>
<path fill="none" stroke="midnightblue" d="M464,-836.86C466.16,-829.84 468.33,-822.88 470.5,-816 483.02,-776.35 498.87,-732.78 512.32,-697.33"/>
<polygon fill="none" stroke="midnightblue" points="460.64,-835.89 461.07,-846.47 467.34,-837.93 460.64,-835.89"/>
</g>
<!-- Node7 -->
<g id="node7" class="node">
<title>Node7</title>
<g id="a_node7"><a xlink:title=" ">
<polygon fill="white" stroke="#bfbfbf" points="163.5,-1658.5 163.5,-1715.5 231.5,-1715.5 231.5,-1658.5 163.5,-1658.5"/>
<text text-anchor="middle" x="197.5" y="-1703.5" font-family="Helvetica,sans-Serif" font-size="10.00">shared_ptr&lt;</text>
<polyline fill="none" stroke="#bfbfbf" points="163.5,-1696.5 231.5,-1696.5 "/>
<text text-anchor="middle" x="197.5" y="-1684.5" font-family="Helvetica,sans-Serif" font-size="10.00"> </text>
<polyline fill="none" stroke="#bfbfbf" points="163.5,-1677.5 231.5,-1677.5 "/>
<text text-anchor="middle" x="197.5" y="-1665.5" font-family="Helvetica,sans-Serif" font-size="10.00"> </text>
</a>
</g>
</g>
<!-- Node7&#45;&gt;Node6 -->
<g id="edge7" class="edge">
<title>Node7&#45;&gt;Node6</title>
<path fill="none" stroke="#404040" d="M219.46,-1658.13C235.07,-1637.13 255.49,-1607.09 268.5,-1578 270.05,-1574.53 271.59,-1571.03 273.1,-1567.5"/>
<polygon fill="none" stroke="#404040" points="273.22,-1567.22 271.85,-1560.14 277.87,-1556.16 279.23,-1563.24 273.22,-1567.22"/>
<text text-anchor="middle" x="290" y="-1599" font-family="Helvetica,sans-Serif" font-size="10.00"> #InternalData</text>
</g>
<!-- Node9 -->
<g id="node9" class="node">
<title>Node9</title>
<g id="a_node9"><a xlink:href="a00609.html" target="_top" xlink:title=" ">
<polygon fill="white" stroke="black" points="5.5,-1036.5 5.5,-1357.5 143.5,-1357.5 143.5,-1036.5 5.5,-1036.5"/>
<text text-anchor="middle" x="74.5" y="-1345.5" font-family="Helvetica,sans-Serif" font-size="10.00">MiraiCP::Logger_interface</text>
<polyline fill="none" stroke="black" points="5.5,-1338.5 143.5,-1338.5 "/>
<text text-anchor="middle" x="74.5" y="-1326.5" font-family="Helvetica,sans-Serif" font-size="10.00"> </text>
<polyline fill="none" stroke="black" points="5.5,-1319.5 143.5,-1319.5 "/>
<text text-anchor="start" x="13.5" y="-1307.5" font-family="Helvetica,sans-Serif" font-size="10.00">+ void info(T &amp;&amp;...val)</text>
<text text-anchor="start" x="13.5" y="-1296.5" font-family="Helvetica,sans-Serif" font-size="10.00">+ void warning(T &amp;&amp;...val)</text>
<text text-anchor="start" x="13.5" y="-1285.5" font-family="Helvetica,sans-Serif" font-size="10.00">+ void error(T &amp;&amp;...val)</text>
<text text-anchor="start" x="13.5" y="-1274.5" font-family="Helvetica,sans-Serif" font-size="10.00">+ void registerHandle</text>
<text text-anchor="start" x="13.5" y="-1263.5" font-family="Helvetica,sans-Serif" font-size="10.00">(Action action)</text>
<text text-anchor="start" x="13.5" y="-1252.5" font-family="Helvetica,sans-Serif" font-size="10.00">+ void setHandleState</text>
<text text-anchor="start" x="13.5" y="-1241.5" font-family="Helvetica,sans-Serif" font-size="10.00">(bool state)</text>
<text text-anchor="start" x="13.5" y="-1230.5" font-family="Helvetica,sans-Serif" font-size="10.00"># virtual void log_interface</text>
<text text-anchor="start" x="13.5" y="-1219.5" font-family="Helvetica,sans-Serif" font-size="10.00">(const string &amp;log, int</text>
<text text-anchor="start" x="13.5" y="-1208.5" font-family="Helvetica,sans-Serif" font-size="10.00"> level)=0</text>
<text text-anchor="start" x="13.5" y="-1197.5" font-family="Helvetica,sans-Serif" font-size="10.00"># void handler_trigger</text>
<text text-anchor="start" x="13.5" y="-1186.5" font-family="Helvetica,sans-Serif" font-size="10.00">(string log, int level)</text>
<text text-anchor="start" x="13.5" y="-1175.5" font-family="Helvetica,sans-Serif" font-size="10.00">&#45; void create_loggerhandler()</text>
<text text-anchor="start" x="13.5" y="-1164.5" font-family="Helvetica,sans-Serif" font-size="10.00">&#45; static std::string</text>
<text text-anchor="start" x="13.5" y="-1153.5" font-family="Helvetica,sans-Serif" font-size="10.00"> constructString()</text>
<text text-anchor="start" x="13.5" y="-1142.5" font-family="Helvetica,sans-Serif" font-size="10.00">&#45; static std::string</text>
<text text-anchor="start" x="13.5" y="-1131.5" font-family="Helvetica,sans-Serif" font-size="10.00"> constructString(T &amp;&amp;val,</text>
<text text-anchor="start" x="13.5" y="-1120.5" font-family="Helvetica,sans-Serif" font-size="10.00"> T1 &amp;&amp;...val1)</text>
<text text-anchor="start" x="13.5" y="-1109.5" font-family="Helvetica,sans-Serif" font-size="10.00">&#45; static std::string</text>
<text text-anchor="start" x="13.5" y="-1098.5" font-family="Helvetica,sans-Serif" font-size="10.00"> constructString(const</text>
<text text-anchor="start" x="13.5" y="-1087.5" font-family="Helvetica,sans-Serif" font-size="10.00"> std::string &amp;a, T &amp;&amp;...val1)</text>
<text text-anchor="start" x="13.5" y="-1076.5" font-family="Helvetica,sans-Serif" font-size="10.00">&#45; static std::string</text>
<text text-anchor="start" x="13.5" y="-1065.5" font-family="Helvetica,sans-Serif" font-size="10.00"> constructString(const</text>
<text text-anchor="start" x="13.5" y="-1054.5" font-family="Helvetica,sans-Serif" font-size="10.00"> MiraiCodeable &amp;val, T</text>
<text text-anchor="start" x="13.5" y="-1043.5" font-family="Helvetica,sans-Serif" font-size="10.00"> &amp;&amp;...val1)</text>
</a>
</g>
</g>
<!-- Node7&#45;&gt;Node9 -->
<g id="edge10" class="edge">
<title>Node7&#45;&gt;Node9</title>
<path fill="none" stroke="#404040" d="M184.14,-1658.12C174.27,-1636.63 161.11,-1605.96 152.5,-1578 131.89,-1511.04 115.15,-1435.76 102.54,-1369.96"/>
<polygon fill="none" stroke="#404040" points="102.47,-1369.58 97.42,-1364.43 100.23,-1357.79 105.28,-1362.94 102.47,-1369.58"/>
<text text-anchor="middle" x="196" y="-1599" font-family="Helvetica,sans-Serif" font-size="10.00"> +loggerhandler</text>
</g>
<!-- Node8 -->
<g id="node8" class="node">
<title>Node8</title>
<g id="a_node8"><a xlink:href="a00621.html" target="_top" xlink:title="带id(一般为bot账号)的logger">
<polygon fill="white" stroke="black" points="143,-574 143,-675 278,-675 278,-574 143,-574"/>
<text text-anchor="middle" x="210.5" y="-663" font-family="Helvetica,sans-Serif" font-size="10.00">MiraiCP::IdLogger</text>
<polyline fill="none" stroke="black" points="143,-656 278,-656 "/>
<text text-anchor="middle" x="210.5" y="-644" font-family="Helvetica,sans-Serif" font-size="10.00"> </text>
<polyline fill="none" stroke="black" points="143,-637 278,-637 "/>
<text text-anchor="start" x="151" y="-625" font-family="Helvetica,sans-Serif" font-size="10.00">+ IdLogger(QQID inId,</text>
<text text-anchor="start" x="151" y="-614" font-family="Helvetica,sans-Serif" font-size="10.00"> Logger *l)</text>
<text text-anchor="start" x="151" y="-603" font-family="Helvetica,sans-Serif" font-size="10.00"># void log_interface</text>
<text text-anchor="start" x="151" y="-592" font-family="Helvetica,sans-Serif" font-size="10.00">(const std::string &amp;content,</text>
<text text-anchor="start" x="151" y="-581" font-family="Helvetica,sans-Serif" font-size="10.00"> int level) override</text>
</a>
</g>
</g>
<!-- Node8&#45;&gt;Node4 -->
<g id="edge8" class="edge">
<title>Node8&#45;&gt;Node4</title>
<path fill="none" stroke="#404040" d="M210.5,-573.96C210.5,-536.58 210.5,-485.05 210.5,-444.94"/>
<polygon fill="none" stroke="#404040" points="210.5,-444.89 206.5,-438.89 210.5,-432.89 214.5,-438.89 210.5,-444.89"/>
<text text-anchor="middle" x="235" y="-454" font-family="Helvetica,sans-Serif" font-size="10.00"> +botlogger</text>
</g>
<!-- Node9&#45;&gt;Node8 -->
<g id="edge9" class="edge">
<title>Node9&#45;&gt;Node8</title>
<path fill="none" stroke="midnightblue" d="M105.85,-1026.17C118.94,-960.24 135.14,-884.29 152.5,-816 164.77,-767.75 181.59,-713.51 193.95,-675.28"/>
<polygon fill="none" stroke="midnightblue" points="102.36,-1025.76 103.86,-1036.24 109.23,-1027.11 102.36,-1025.76"/>
</g>
<!-- Node10 -->
<g id="node10" class="node">
<title>Node10</title>
<g id="a_node10"><a xlink:title=" ">
<polygon fill="white" stroke="#bfbfbf" points="161.5,-1168.5 161.5,-1225.5 259.5,-1225.5 259.5,-1168.5 161.5,-1168.5"/>
<text text-anchor="middle" x="210.5" y="-1213.5" font-family="Helvetica,sans-Serif" font-size="10.00">unsigned long long</text>
<polyline fill="none" stroke="#bfbfbf" points="161.5,-1206.5 259.5,-1206.5 "/>
<text text-anchor="middle" x="210.5" y="-1194.5" font-family="Helvetica,sans-Serif" font-size="10.00"> </text>
<polyline fill="none" stroke="#bfbfbf" points="161.5,-1187.5 259.5,-1187.5 "/>
<text text-anchor="middle" x="210.5" y="-1175.5" font-family="Helvetica,sans-Serif" font-size="10.00"> </text>
</a>
</g>
</g>
<!-- Node10&#45;&gt;Node8 -->
<g id="edge11" class="edge">
<title>Node10&#45;&gt;Node8</title>
<path fill="none" stroke="#404040" d="M210.5,-1168.48C210.5,-1081.44 210.5,-810.59 210.5,-687.5"/>
<polygon fill="none" stroke="#404040" points="210.5,-687.35 206.5,-681.35 210.5,-675.35 214.5,-681.35 210.5,-687.35"/>
<text text-anchor="middle" x="219" y="-790" font-family="Helvetica,sans-Serif" font-size="10.00"> +id</text>
</g>
<!-- Node11 -->
<g id="node11" class="node">
<title>Node11</title>
<g id="a_node11"><a xlink:title=" ">
<polygon fill="white" stroke="#bfbfbf" points="403,-182.5 403,-239.5 432,-239.5 432,-182.5 403,-182.5"/>
<text text-anchor="middle" x="417.5" y="-227.5" font-family="Helvetica,sans-Serif" font-size="10.00">int</text>
<polyline fill="none" stroke="#bfbfbf" points="403,-220.5 432,-220.5 "/>
<text text-anchor="middle" x="417.5" y="-208.5" font-family="Helvetica,sans-Serif" font-size="10.00"> </text>
<polyline fill="none" stroke="#bfbfbf" points="403,-201.5 432,-201.5 "/>
<text text-anchor="middle" x="417.5" y="-189.5" font-family="Helvetica,sans-Serif" font-size="10.00"> </text>
</a>
</g>
</g>
<!-- Node11&#45;&gt;Node1 -->
<g id="edge12" class="edge">
<title>Node11&#45;&gt;Node1</title>
<path fill="none" stroke="#404040" d="M413.77,-182.26C410.84,-160.54 406.68,-129.6 403.07,-102.74"/>
<polygon fill="none" stroke="#404040" points="403.05,-102.63 398.29,-97.21 401.45,-90.73 406.22,-96.15 403.05,-102.63"/>
<text text-anchor="middle" x="420.5" y="-117.5" font-family="Helvetica,sans-Serif" font-size="10.00"> +time</text>
</g>
<!-- Node12&#45;&gt;Node1 -->
<g id="edge13" class="edge">
<title>Node12&#45;&gt;Node1</title>
<path fill="none" stroke="#404040" d="M500.82,-551.99C464.95,-482.97 414.76,-374.32 394.5,-273 383.09,-215.96 385.2,-149.2 389.02,-103.01"/>
<polygon fill="none" stroke="#404040" points="389.04,-102.8 385.59,-96.47 390.1,-90.85 393.55,-97.18 389.04,-102.8"/>
<text text-anchor="middle" x="423.5" y="-305" font-family="Helvetica,sans-Serif" font-size="10.00"> +author</text>
<text text-anchor="middle" x="423.5" y="-294" font-family="Helvetica,sans-Serif" font-size="10.00">+operater</text>
</g>
<!-- Node13 -->
<g id="node13" class="node">
<title>Node13</title>
<g id="a_node13"><a xlink:href="a00453.html" target="_top" xlink:title=" ">
<polygon fill="white" stroke="black" points="479,-1157.5 479,-1236.5 618,-1236.5 618,-1157.5 479,-1157.5"/>
<text text-anchor="middle" x="548.5" y="-1224.5" font-family="Helvetica,sans-Serif" font-size="10.00">MiraiCP::INudgeSupport</text>
<polyline fill="none" stroke="black" points="479,-1217.5 618,-1217.5 "/>
<text text-anchor="middle" x="548.5" y="-1205.5" font-family="Helvetica,sans-Serif" font-size="10.00"> </text>
<polyline fill="none" stroke="black" points="479,-1198.5 618,-1198.5 "/>
<text text-anchor="start" x="487" y="-1186.5" font-family="Helvetica,sans-Serif" font-size="10.00">+ virtual ~INudgeSupport</text>
<text text-anchor="start" x="487" y="-1175.5" font-family="Helvetica,sans-Serif" font-size="10.00">()=default</text>
<text text-anchor="start" x="487" y="-1164.5" font-family="Helvetica,sans-Serif" font-size="10.00">+ virtual void sendNudge()=0</text>
</a>
</g>
</g>
<!-- Node13&#45;&gt;Node12 -->
<g id="edge15" class="edge">
<title>Node13&#45;&gt;Node12</title>
<path fill="none" stroke="midnightblue" d="M547.81,-1147.03C546.4,-1046.18 543.16,-814.91 541.51,-697.19"/>
<polygon fill="none" stroke="midnightblue" points="544.32,-1147.29 547.96,-1157.24 551.32,-1147.19 544.32,-1147.29"/>
</g>
<!-- Node14 -->
<g id="node14" class="node">
<title>Node14</title>
<g id="a_node14"><a xlink:href="a00449.html" target="_top" xlink:title=" ">
<polygon fill="white" stroke="black" points="636.5,-1135.5 636.5,-1258.5 782.5,-1258.5 782.5,-1135.5 636.5,-1135.5"/>
<text text-anchor="start" x="644.5" y="-1246.5" font-family="Helvetica,sans-Serif" font-size="10.00">MiraiCP::ContactDataHelper</text>
<text text-anchor="middle" x="709.5" y="-1235.5" font-family="Helvetica,sans-Serif" font-size="10.00">&lt; Friend, IContactData &gt;</text>
<polyline fill="none" stroke="black" points="636.5,-1228.5 782.5,-1228.5 "/>
<text text-anchor="middle" x="709.5" y="-1216.5" font-family="Helvetica,sans-Serif" font-size="10.00"> </text>
<polyline fill="none" stroke="black" points="636.5,-1209.5 782.5,-1209.5 "/>
<text text-anchor="start" x="644.5" y="-1197.5" font-family="Helvetica,sans-Serif" font-size="10.00">+ std::string nickOrNameCard</text>
<text text-anchor="start" x="644.5" y="-1186.5" font-family="Helvetica,sans-Serif" font-size="10.00">() const</text>
<text text-anchor="start" x="644.5" y="-1175.5" font-family="Helvetica,sans-Serif" font-size="10.00">+ std::string avatarUrl</text>
<text text-anchor="start" x="644.5" y="-1164.5" font-family="Helvetica,sans-Serif" font-size="10.00">() const</text>
<text text-anchor="start" x="644.5" y="-1153.5" font-family="Helvetica,sans-Serif" font-size="10.00"># DataType * GetDataInternal</text>
<text text-anchor="start" x="644.5" y="-1142.5" font-family="Helvetica,sans-Serif" font-size="10.00">() const</text>
</a>
</g>
</g>
<!-- Node14&#45;&gt;Node12 -->
<g id="edge16" class="edge">
<title>Node14&#45;&gt;Node12</title>
<path fill="none" stroke="midnightblue" d="M698.94,-1125.27C686.32,-1048.03 662.45,-921.29 627.5,-816 614.1,-775.63 594.78,-732.37 577.74,-697.29"/>
<polygon fill="none" stroke="midnightblue" points="695.52,-1126.05 700.57,-1135.36 702.43,-1124.93 695.52,-1126.05"/>
</g>
<!-- Node15 -->
<g id="node15" class="node">
<title>Node15</title>
<g id="a_node15"><a xlink:href="a00449.html" target="_top" xlink:title="Contact类型的数据接口模板类">
<polygon fill="white" stroke="black" points="630,-1625.5 630,-1748.5 789,-1748.5 789,-1625.5 630,-1625.5"/>
<text text-anchor="start" x="638" y="-1736.5" font-family="Helvetica,sans-Serif" font-size="10.00">MiraiCP::ContactDataHelper</text>
<text text-anchor="middle" x="709.5" y="-1725.5" font-family="Helvetica,sans-Serif" font-size="10.00">&lt; ClassType, InternalDataType &gt;</text>
<polyline fill="none" stroke="black" points="630,-1718.5 789,-1718.5 "/>
<text text-anchor="middle" x="709.5" y="-1706.5" font-family="Helvetica,sans-Serif" font-size="10.00"> </text>
<polyline fill="none" stroke="black" points="630,-1699.5 789,-1699.5 "/>
<text text-anchor="start" x="638" y="-1687.5" font-family="Helvetica,sans-Serif" font-size="10.00">+ std::string nickOrNameCard</text>
<text text-anchor="start" x="638" y="-1676.5" font-family="Helvetica,sans-Serif" font-size="10.00">() const</text>
<text text-anchor="start" x="638" y="-1665.5" font-family="Helvetica,sans-Serif" font-size="10.00">+ std::string avatarUrl</text>
<text text-anchor="start" x="638" y="-1654.5" font-family="Helvetica,sans-Serif" font-size="10.00">() const</text>
<text text-anchor="start" x="638" y="-1643.5" font-family="Helvetica,sans-Serif" font-size="10.00"># DataType * GetDataInternal</text>
<text text-anchor="start" x="638" y="-1632.5" font-family="Helvetica,sans-Serif" font-size="10.00">() const</text>
</a>
</g>
</g>
<!-- Node15&#45;&gt;Node14 -->
<g id="edge17" class="edge">
<title>Node15&#45;&gt;Node14</title>
<path fill="none" stroke="orange" d="M709.5,-1614.98C709.5,-1518.94 709.5,-1349.29 709.5,-1258.82"/>
<polygon fill="orange" stroke="orange" points="706,-1615.18 709.5,-1625.18 713,-1615.18 706,-1615.18"/>
<text text-anchor="middle" x="765" y="-1599" font-family="Helvetica,sans-Serif" font-size="10.00"> &lt; Friend, IContactData &gt;</text>
</g>
<!-- Node16 -->
<g id="node16" class="node">
<title>Node16</title>
<g id="a_node16"><a xlink:title=" ">
<polygon fill="white" stroke="#bfbfbf" points="450,-182.5 450,-239.5 491,-239.5 491,-182.5 450,-182.5"/>
<text text-anchor="middle" x="470.5" y="-227.5" font-family="Helvetica,sans-Serif" font-size="10.00">string</text>
<polyline fill="none" stroke="#bfbfbf" points="450,-220.5 491,-220.5 "/>
<text text-anchor="middle" x="470.5" y="-208.5" font-family="Helvetica,sans-Serif" font-size="10.00"> </text>
<polyline fill="none" stroke="#bfbfbf" points="450,-201.5 491,-201.5 "/>
<text text-anchor="middle" x="470.5" y="-189.5" font-family="Helvetica,sans-Serif" font-size="10.00"> </text>
</a>
</g>
</g>
<!-- Node16&#45;&gt;Node1 -->
<g id="edge18" class="edge">
<title>Node16&#45;&gt;Node1</title>
<path fill="none" stroke="#404040" d="M464.05,-182.15C458.68,-161.38 450.05,-132.63 438.5,-109 437.23,-106.4 435.86,-103.79 434.42,-101.19"/>
<polygon fill="none" stroke="#404040" points="434.27,-100.92 427.77,-97.79 428.17,-90.59 434.66,-93.72 434.27,-100.92"/>
<text text-anchor="middle" x="473" y="-123" font-family="Helvetica,sans-Serif" font-size="10.00"> +ids</text>
<text text-anchor="middle" x="473" y="-112" font-family="Helvetica,sans-Serif" font-size="10.00">+internalIds</text>
</g>
</g>
</svg>
