<?xml version="1.0" encoding="UTF-8" standalone="no"?>
<!DOCTYPE svg PUBLIC "-//W3C//DTD SVG 1.1//EN"
 "http://www.w3.org/Graphics/SVG/1.1/DTD/svg11.dtd">
<!-- Generated by graphviz version 2.50.0 (20211204.2007)
 -->
<!-- Title: MiraiCP::GroupInviteEvent::accept Pages: 1 -->
<svg width="1802pt" height="255pt"
 viewBox="0.00 0.00 1802.00 254.76" xmlns="http://www.w3.org/2000/svg" xmlns:xlink="http://www.w3.org/1999/xlink">
<g id="graph0" class="graph" transform="scale(1 1) rotate(0) translate(4 250.76)">
<title>MiraiCP::GroupInviteEvent::accept</title>
<polygon fill="white" stroke="transparent" points="-4,4 -4,-250.76 1798,-250.76 1798,4 -4,4"/>
<!-- Node1 -->
<g id="node1" class="node">
<title>Node1</title>
<g id="a_node1"><a xlink:title=" ">
<polygon fill="#bfbfbf" stroke="black" points="0,-124.26 0,-154.26 129,-154.26 129,-124.26 0,-124.26"/>
<text text-anchor="start" x="8" y="-142.26" font-family="Helvetica,sans-Serif" font-size="10.00">MiraiCP::GroupInviteEvent</text>
<text text-anchor="middle" x="64.5" y="-131.26" font-family="Helvetica,sans-Serif" font-size="10.00">::accept</text>
</a>
</g>
</g>
<!-- Node2 -->
<g id="node2" class="node">
<title>Node2</title>
<g id="a_node2"><a xlink:href="a00397.html#ade37f70b66a7da09197985fe2d874348" target="_top" xlink:title=" ">
<polygon fill="white" stroke="black" points="165,-148.76 165,-167.76 299,-167.76 299,-148.76 165,-148.76"/>
<text text-anchor="middle" x="232" y="-155.76" font-family="Helvetica,sans-Serif" font-size="10.00">MiraiCP::groupInviteInternal</text>
</a>
</g>
</g>
<!-- Node1&#45;&gt;Node2 -->
<g id="edge1" class="edge">
<title>Node1&#45;&gt;Node2</title>
<path fill="none" stroke="midnightblue" d="M129.01,-146.55C137.47,-147.52 146.2,-148.53 154.84,-149.52"/>
<polygon fill="midnightblue" stroke="midnightblue" points="154.58,-153.01 164.91,-150.67 155.38,-146.06 154.58,-153.01"/>
</g>
<!-- Node18 -->
<g id="node18" class="node">
<title>Node18</title>
<g id="a_node18"><a xlink:href="a00448.html#a1f208ae0f09c367c90c2e079e63048db" target="_top" xlink:title="id 在全部情况存在">
<polygon fill="white" stroke="black" points="180,-110.76 180,-129.76 284,-129.76 284,-110.76 180,-110.76"/>
<text text-anchor="middle" x="232" y="-117.76" font-family="Helvetica,sans-Serif" font-size="10.00">MiraiCP::Contact::id</text>
</a>
</g>
</g>
<!-- Node1&#45;&gt;Node18 -->
<g id="edge21" class="edge">
<title>Node1&#45;&gt;Node18</title>
<path fill="none" stroke="midnightblue" d="M129.01,-131.97C142.45,-130.43 156.61,-128.8 169.95,-127.27"/>
<polygon fill="midnightblue" stroke="midnightblue" points="170.44,-130.74 179.97,-126.12 169.64,-123.78 170.44,-130.74"/>
</g>
<!-- Node3 -->
<g id="node3" class="node">
<title>Node3</title>
<g id="a_node3"><a xlink:href="a00612.html#af14d39efa300da183070784bc86d3f23" target="_top" xlink:title="发送错误(error级日志)">
<polygon fill="white" stroke="black" points="335,-167.26 335,-197.26 463,-197.26 463,-167.26 335,-167.26"/>
<text text-anchor="start" x="343" y="-185.26" font-family="Helvetica,sans-Serif" font-size="10.00">MiraiCP::Logger_interface</text>
<text text-anchor="middle" x="399" y="-174.26" font-family="Helvetica,sans-Serif" font-size="10.00">::error</text>
</a>
</g>
</g>
<!-- Node2&#45;&gt;Node3 -->
<g id="edge2" class="edge">
<title>Node2&#45;&gt;Node3</title>
<path fill="none" stroke="midnightblue" d="M298.69,-167.82C307.28,-169.07 316.12,-170.35 324.83,-171.62"/>
<polygon fill="midnightblue" stroke="midnightblue" points="324.56,-175.12 334.96,-173.09 325.57,-168.19 324.56,-175.12"/>
</g>
<!-- Node6 -->
<g id="node6" class="node">
<title>Node6</title>
<g id="a_node6"><a xlink:href="a00415.html#a309e8d7f316e8b5e947ea3bcddeb84a8" target="_top" xlink:title="调用 Mirai 操作">
<polygon fill="white" stroke="black" points="344.5,-118.26 344.5,-148.26 453.5,-148.26 453.5,-118.26 344.5,-118.26"/>
<text text-anchor="start" x="352.5" y="-136.26" font-family="Helvetica,sans-Serif" font-size="10.00">MiraiCP::KtOperation</text>
<text text-anchor="middle" x="399" y="-125.26" font-family="Helvetica,sans-Serif" font-size="10.00">::ktOperation</text>
</a>
</g>
</g>
<!-- Node2&#45;&gt;Node6 -->
<g id="edge5" class="edge">
<title>Node2&#45;&gt;Node6</title>
<path fill="none" stroke="midnightblue" d="M295.85,-148.74C308.5,-146.82 321.8,-144.81 334.47,-142.89"/>
<polygon fill="midnightblue" stroke="midnightblue" points="335.11,-146.33 344.47,-141.37 334.06,-139.41 335.11,-146.33"/>
</g>
<!-- Node4 -->
<g id="node4" class="node">
<title>Node4</title>
<g id="a_node4"><a xlink:href="a00612.html#a98af60f864a0446e23a7a27a3419d9b8" target="_top" xlink:title=" ">
<polygon fill="white" stroke="black" points="499,-216.26 499,-246.26 627,-246.26 627,-216.26 499,-216.26"/>
<text text-anchor="start" x="507" y="-234.26" font-family="Helvetica,sans-Serif" font-size="10.00">MiraiCP::Logger_interface</text>
<text text-anchor="middle" x="563" y="-223.26" font-family="Helvetica,sans-Serif" font-size="10.00">::constructString</text>
</a>
</g>
</g>
<!-- Node3&#45;&gt;Node4 -->
<g id="edge3" class="edge">
<title>Node3&#45;&gt;Node4</title>
<path fill="none" stroke="midnightblue" d="M449.93,-197.36C466.48,-202.37 485.07,-207.99 502.29,-213.2"/>
<polygon fill="midnightblue" stroke="midnightblue" points="501.65,-216.66 512.24,-216.21 503.68,-209.96 501.65,-216.66"/>
</g>
<!-- Node5 -->
<g id="node5" class="node">
<title>Node5</title>
<g id="a_node5"><a xlink:href="a00612.html#a86ea9d57475a3004be2a32b2c4c76371" target="_top" xlink:title="日志底层实现封装">
<polygon fill="white" stroke="black" points="499,-167.26 499,-197.26 627,-197.26 627,-167.26 499,-167.26"/>
<text text-anchor="start" x="507" y="-185.26" font-family="Helvetica,sans-Serif" font-size="10.00">MiraiCP::Logger_interface</text>
<text text-anchor="middle" x="563" y="-174.26" font-family="Helvetica,sans-Serif" font-size="10.00">::log_interface</text>
</a>
</g>
</g>
<!-- Node3&#45;&gt;Node5 -->
<g id="edge4" class="edge">
<title>Node3&#45;&gt;Node5</title>
<path fill="none" stroke="midnightblue" d="M463.1,-182.26C471.43,-182.26 480.04,-182.26 488.53,-182.26"/>
<polygon fill="midnightblue" stroke="midnightblue" points="488.81,-185.76 498.81,-182.26 488.81,-178.76 488.81,-185.76"/>
</g>
<!-- Node7 -->
<g id="node7" class="node">
<title>Node7</title>
<g id="a_node7"><a xlink:href="a00415.html#a1e1e498928eeaa1d7107033ff5fa881a" target="_top" xlink:title="调用 Mirai 操作">
<polygon fill="white" stroke="black" points="508.5,-118.26 508.5,-148.26 617.5,-148.26 617.5,-118.26 508.5,-118.26"/>
<text text-anchor="start" x="516.5" y="-136.26" font-family="Helvetica,sans-Serif" font-size="10.00">MiraiCP::KtOperation</text>
<text text-anchor="middle" x="563" y="-125.26" font-family="Helvetica,sans-Serif" font-size="10.00">::ktOperationStr</text>
</a>
</g>
</g>
<!-- Node6&#45;&gt;Node7 -->
<g id="edge6" class="edge">
<title>Node6&#45;&gt;Node7</title>
<path fill="none" stroke="midnightblue" d="M453.94,-133.26C468.15,-133.26 483.62,-133.26 498.29,-133.26"/>
<polygon fill="midnightblue" stroke="midnightblue" points="498.29,-136.76 508.29,-133.26 498.29,-129.76 498.29,-136.76"/>
</g>
<!-- Node8 -->
<g id="node8" class="node">
<title>Node8</title>
<g id="a_node8"><a xlink:href="a00408.html#a4c6ac4cf4ba5ff0adb7656708bbb67d0" target="_top" xlink:title="interfaces for plugins">
<polygon fill="white" stroke="black" points="663,-118.26 663,-148.26 771,-148.26 771,-118.26 663,-118.26"/>
<text text-anchor="start" x="671" y="-136.26" font-family="Helvetica,sans-Serif" font-size="10.00">LibLoader::LoaderApi</text>
<text text-anchor="middle" x="717" y="-125.26" font-family="Helvetica,sans-Serif" font-size="10.00">::pluginOperation</text>
</a>
</g>
</g>
<!-- Node7&#45;&gt;Node8 -->
<g id="edge7" class="edge">
<title>Node7&#45;&gt;Node8</title>
<path fill="none" stroke="midnightblue" d="M617.59,-133.26C628.96,-133.26 641.07,-133.26 652.76,-133.26"/>
<polygon fill="midnightblue" stroke="midnightblue" points="652.89,-136.76 662.89,-133.26 652.89,-129.76 652.89,-136.76"/>
</g>
<!-- Node9 -->
<g id="node9" class="node">
<title>Node9</title>
<g id="a_node9"><a xlink:href="a00740.html#acc90fdac094544c4ddd9d6fd13baa5da" target="_top" xlink:title=" ">
<polygon fill="white" stroke="black" points="807,-181.26 807,-211.26 942,-211.26 942,-181.26 807,-181.26"/>
<text text-anchor="start" x="815" y="-199.26" font-family="Helvetica,sans-Serif" font-size="10.00">MiraiCP::MiraiCPStringview</text>
<text text-anchor="middle" x="874.5" y="-188.26" font-family="Helvetica,sans-Serif" font-size="10.00">::c_str</text>
</a>
</g>
</g>
<!-- Node8&#45;&gt;Node9 -->
<g id="edge8" class="edge">
<title>Node8&#45;&gt;Node9</title>
<path fill="none" stroke="midnightblue" d="M755.25,-148.35C776.71,-157.05 803.89,-168.06 826.77,-177.33"/>
<polygon fill="midnightblue" stroke="midnightblue" points="825.71,-180.67 836.29,-181.19 828.33,-174.19 825.71,-180.67"/>
</g>
<!-- Node10 -->
<g id="node10" class="node">
<title>Node10</title>
<g id="a_node10"><a xlink:href="a00768.html#aea7d58ff9f04d6d4849c25a2506603a5" target="_top" xlink:title="取env,如果不存在重新获取">
<polygon fill="white" stroke="black" points="1431,-104.76 1431,-123.76 1550,-123.76 1550,-104.76 1431,-104.76"/>
<text text-anchor="middle" x="1490.5" y="-111.76" font-family="Helvetica,sans-Serif" font-size="10.00">JNIEnvManager::getEnv</text>
</a>
</g>
</g>
<!-- Node8&#45;&gt;Node10 -->
<g id="edge9" class="edge">
<title>Node8&#45;&gt;Node10</title>
<path fill="none" stroke="midnightblue" d="M771.25,-138.35C834.8,-143.98 944.3,-152.26 1038.5,-152.26 1038.5,-152.26 1038.5,-152.26 1199.5,-152.26 1281.89,-152.26 1376.34,-137 1434.46,-125.82"/>
<polygon fill="midnightblue" stroke="midnightblue" points="1435.39,-129.2 1444.53,-123.85 1434.05,-122.33 1435.39,-129.2"/>
</g>
<!-- Node13 -->
<g id="node13" class="node">
<title>Node13</title>
<g id="a_node13"><a xlink:href="a00407.html#aa5f8d0ecd9dd392b491070aace643ae3" target="_top" xlink:title=" ">
<polygon fill="white" stroke="black" points="986,-104.76 986,-123.76 1093,-123.76 1093,-104.76 986,-104.76"/>
<text text-anchor="middle" x="1039.5" y="-111.76" font-family="Helvetica,sans-Serif" font-size="10.00">LibLoader::jstring2str</text>
</a>
</g>
</g>
<!-- Node8&#45;&gt;Node13 -->
<g id="edge12" class="edge">
<title>Node8&#45;&gt;Node13</title>
<path fill="none" stroke="midnightblue" d="M771.28,-130.1C827.57,-126.77 916.25,-121.51 975.85,-117.98"/>
<polygon fill="midnightblue" stroke="midnightblue" points="976.11,-121.47 985.89,-117.38 975.7,-114.48 976.11,-121.47"/>
</g>
<!-- Node15 -->
<g id="node15" class="node">
<title>Node15</title>
<g id="a_node15"><a xlink:href="a00407.html#a6a6fcd695791253a9b3a053d313b2b93" target="_top" xlink:title=" ">
<polygon fill="white" stroke="black" points="821,-44.76 821,-63.76 928,-63.76 928,-44.76 821,-44.76"/>
<text text-anchor="middle" x="874.5" y="-51.76" font-family="Helvetica,sans-Serif" font-size="10.00">LibLoader::str2jstring</text>
</a>
</g>
</g>
<!-- Node8&#45;&gt;Node15 -->
<g id="edge15" class="edge">
<title>Node8&#45;&gt;Node15</title>
<path fill="none" stroke="midnightblue" d="M747.61,-118.22C775.83,-103.88 818,-82.46 845.63,-68.42"/>
<polygon fill="midnightblue" stroke="midnightblue" points="847.42,-71.44 854.75,-63.79 844.25,-65.2 847.42,-71.44"/>
</g>
<!-- Node11 -->
<g id="node11" class="node">
<title>Node11</title>
<g id="a_node11"><a xlink:href="a00200.html#a3d31403b7971274d47d308245206bd24" target="_top" xlink:title="为当前线程创建一个env.">
<polygon fill="white" stroke="black" points="1586,-104.76 1586,-123.76 1636,-123.76 1636,-104.76 1586,-104.76"/>
<text text-anchor="middle" x="1611" y="-111.76" font-family="Helvetica,sans-Serif" font-size="10.00">newEnv</text>
</a>
</g>
</g>
<!-- Node10&#45;&gt;Node11 -->
<g id="edge10" class="edge">
<title>Node10&#45;&gt;Node11</title>
<path fill="none" stroke="midnightblue" d="M1550.06,-114.26C1558.89,-114.26 1567.75,-114.26 1575.85,-114.26"/>
<polygon fill="midnightblue" stroke="midnightblue" points="1575.98,-117.76 1585.98,-114.26 1575.98,-110.76 1575.98,-117.76"/>
</g>
<!-- Node12 -->
<g id="node12" class="node">
<title>Node12</title>
<g id="a_node12"><a xlink:href="a00768.html#ae0e482c6a813848a8f5d34957d1b6307" target="_top" xlink:title="获取全局JavaVM对象.">
<polygon fill="white" stroke="black" points="1672,-104.76 1672,-123.76 1794,-123.76 1794,-104.76 1672,-104.76"/>
<text text-anchor="middle" x="1733" y="-111.76" font-family="Helvetica,sans-Serif" font-size="10.00">JNIEnvManager::getGvm</text>
</a>
</g>
</g>
<!-- Node11&#45;&gt;Node12 -->
<g id="edge11" class="edge">
<title>Node11&#45;&gt;Node12</title>
<path fill="none" stroke="midnightblue" d="M1636.28,-114.26C1643.75,-114.26 1652.37,-114.26 1661.32,-114.26"/>
<polygon fill="midnightblue" stroke="midnightblue" points="1661.52,-117.76 1671.52,-114.26 1661.52,-110.76 1661.52,-117.76"/>
</g>
<!-- Node14 -->
<g id="node14" class="node">
<title>Node14</title>
<g id="a_node14"><a xlink:href="a00411.html#a076c5f4ff8083c7cfc6523498d0ba30f" target="_top" xlink:title=" ">
<polygon fill="white" stroke="black" points="1296,-77.26 1296,-107.26 1395,-107.26 1395,-77.26 1296,-77.26"/>
<text text-anchor="start" x="1304" y="-95.26" font-family="Helvetica,sans-Serif" font-size="10.00">LibLoader::JNIEnvs</text>
<text text-anchor="middle" x="1345.5" y="-84.26" font-family="Helvetica,sans-Serif" font-size="10.00">::getEnv</text>
</a>
</g>
</g>
<!-- Node13&#45;&gt;Node14 -->
<g id="edge13" class="edge">
<title>Node13&#45;&gt;Node14</title>
<path fill="none" stroke="midnightblue" d="M1093.11,-110.45C1146.7,-106.58 1229.65,-100.57 1285.46,-96.53"/>
<polygon fill="midnightblue" stroke="midnightblue" points="1285.83,-100.02 1295.55,-95.8 1285.32,-93.03 1285.83,-100.02"/>
</g>
<!-- Node14&#45;&gt;Node10 -->
<g id="edge14" class="edge">
<title>Node14&#45;&gt;Node10</title>
<path fill="none" stroke="midnightblue" d="M1395.31,-99.77C1403.51,-101.03 1412.16,-102.36 1420.75,-103.68"/>
<polygon fill="midnightblue" stroke="midnightblue" points="1420.36,-107.17 1430.78,-105.23 1421.43,-100.25 1420.36,-107.17"/>
</g>
<!-- Node15&#45;&gt;Node14 -->
<g id="edge16" class="edge">
<title>Node15&#45;&gt;Node14</title>
<path fill="none" stroke="midnightblue" d="M928.39,-58.55C1016.71,-65.7 1193.59,-80.03 1285.7,-87.5"/>
<polygon fill="midnightblue" stroke="midnightblue" points="1285.44,-90.99 1295.69,-88.31 1286.01,-84.01 1285.44,-90.99"/>
</g>
<!-- Node16 -->
<g id="node16" class="node">
<title>Node16</title>
<g id="a_node16"><a xlink:href="a00800.html#af50d0545fe7d683e54fcd03453a423e3" target="_top" xlink:title=" ">
<polygon fill="white" stroke="black" points="978,-17.26 978,-47.26 1101,-47.26 1101,-17.26 978,-17.26"/>
<text text-anchor="start" x="986" y="-35.26" font-family="Helvetica,sans-Serif" font-size="10.00">LibLoader::LoaderLogger</text>
<text text-anchor="middle" x="1039.5" y="-24.26" font-family="Helvetica,sans-Serif" font-size="10.00">::warning</text>
</a>
</g>
</g>
<!-- Node15&#45;&gt;Node16 -->
<g id="edge17" class="edge">
<title>Node15&#45;&gt;Node16</title>
<path fill="none" stroke="midnightblue" d="M928.42,-47.12C941.01,-45.42 954.65,-43.58 967.89,-41.79"/>
<polygon fill="midnightblue" stroke="midnightblue" points="968.48,-45.24 977.92,-40.44 967.54,-38.31 968.48,-45.24"/>
</g>
<!-- Node17 -->
<g id="node17" class="node">
<title>Node17</title>
<g id="a_node17"><a xlink:href="a00800.html#af4d7d5164450e25f7401d1cc15f15b8d" target="_top" xlink:title="实际暴露的接口">
<polygon fill="white" stroke="black" points="1137,-17.26 1137,-47.26 1260,-47.26 1260,-17.26 1137,-17.26"/>
<text text-anchor="start" x="1145" y="-35.26" font-family="Helvetica,sans-Serif" font-size="10.00">LibLoader::LoaderLogger</text>
<text text-anchor="middle" x="1198.5" y="-24.26" font-family="Helvetica,sans-Serif" font-size="10.00">::call_logger</text>
</a>
</g>
</g>
<!-- Node16&#45;&gt;Node17 -->
<g id="edge18" class="edge">
<title>Node16&#45;&gt;Node17</title>
<path fill="none" stroke="midnightblue" d="M1101.2,-32.26C1109.64,-32.26 1118.36,-32.26 1126.95,-32.26"/>
<polygon fill="midnightblue" stroke="midnightblue" points="1126.96,-35.76 1136.96,-32.26 1126.96,-28.76 1126.96,-35.76"/>
</g>
<!-- Node17&#45;&gt;Node14 -->
<g id="edge19" class="edge">
<title>Node17&#45;&gt;Node14</title>
<path fill="none" stroke="midnightblue" d="M1236.09,-47.4C1255.14,-55.28 1278.61,-65 1298.84,-73.37"/>
<polygon fill="midnightblue" stroke="midnightblue" points="1297.6,-76.64 1308.17,-77.23 1300.27,-70.17 1297.6,-76.64"/>
</g>
<!-- Node17&#45;&gt;Node15 -->
<g id="edge20" class="edge">
<title>Node17&#45;&gt;Node15</title>
<path fill="none" stroke="midnightblue" d="M1149.37,-17.24C1134.07,-13.15 1116.97,-9.3 1101,-7.26 1046.77,-0.35 1031.41,4.4 978,-7.26 949.6,-13.46 919.66,-28.28 899.52,-39.64"/>
<polygon fill="midnightblue" stroke="midnightblue" points="897.64,-36.68 890.74,-44.72 901.15,-42.74 897.64,-36.68"/>
</g>
</g>
</svg>
