<?xml version="1.0" encoding="UTF-8" standalone="no"?>
<!DOCTYPE svg PUBLIC "-//W3C//DTD SVG 1.1//EN"
 "http://www.w3.org/Graphics/SVG/1.1/DTD/svg11.dtd">
<!-- Generated by graphviz version 2.50.0 (20211204.2007)
 -->
<!-- Title: MiraiCP::MiraiCPExceptionBase Pages: 1 -->
<svg width="220pt" height="325pt"
 viewBox="0.00 0.00 220.00 325.00" xmlns="http://www.w3.org/2000/svg" xmlns:xlink="http://www.w3.org/1999/xlink">
<g id="graph0" class="graph" transform="scale(1 1) rotate(0) translate(4 321)">
<title>MiraiCP::MiraiCPExceptionBase</title>
<polygon fill="white" stroke="transparent" points="-4,4 -4,-321 216,-321 216,4 -4,4"/>
<!-- Node1 -->
<g id="node1" class="node">
<title>Node1</title>
<g id="a_node1"><a xlink:title="总异常抽象类，用于一般捕获，不要直接抛出该类，不知道抛出什么的时候请抛出 MiraiCPException">
<polygon fill="#bfbfbf" stroke="black" points="38,-0.5 38,-200.5 196,-200.5 196,-0.5 38,-0.5"/>
<text text-anchor="middle" x="117" y="-188.5" font-family="Helvetica,sans-Serif" font-size="10.00">MiraiCP::MiraiCPExceptionBase</text>
<polyline fill="none" stroke="black" points="38,-181.5 196,-181.5 "/>
<text text-anchor="middle" x="117" y="-169.5" font-family="Helvetica,sans-Serif" font-size="10.00"> </text>
<polyline fill="none" stroke="black" points="38,-162.5 196,-162.5 "/>
<text text-anchor="start" x="46" y="-150.5" font-family="Helvetica,sans-Serif" font-size="10.00">+ ~MiraiCPExceptionBase</text>
<text text-anchor="start" x="46" y="-139.5" font-family="Helvetica,sans-Serif" font-size="10.00">() override=default</text>
<text text-anchor="start" x="46" y="-128.5" font-family="Helvetica,sans-Serif" font-size="10.00">+ const char * what()</text>
<text text-anchor="start" x="46" y="-117.5" font-family="Helvetica,sans-Serif" font-size="10.00"> const noexcept override</text>
<text text-anchor="start" x="46" y="-106.5" font-family="Helvetica,sans-Serif" font-size="10.00">+ string getError() const</text>
<text text-anchor="start" x="46" y="-95.5" font-family="Helvetica,sans-Serif" font-size="10.00">+ void raise() const</text>
<text text-anchor="start" x="46" y="-84.5" font-family="Helvetica,sans-Serif" font-size="10.00">+ virtual void basicRaise</text>
<text text-anchor="start" x="46" y="-73.5" font-family="Helvetica,sans-Serif" font-size="10.00">() const</text>
<text text-anchor="start" x="46" y="-62.5" font-family="Helvetica,sans-Serif" font-size="10.00">+ virtual string getException</text>
<text text-anchor="start" x="46" y="-51.5" font-family="Helvetica,sans-Serif" font-size="10.00">Type() const =0</text>
<text text-anchor="start" x="46" y="-40.5" font-family="Helvetica,sans-Serif" font-size="10.00">+ static string exceptionType()</text>
<text text-anchor="start" x="46" y="-29.5" font-family="Helvetica,sans-Serif" font-size="10.00"># MiraiCPExceptionBase</text>
<text text-anchor="start" x="46" y="-18.5" font-family="Helvetica,sans-Serif" font-size="10.00">(string info, string</text>
<text text-anchor="start" x="46" y="-7.5" font-family="Helvetica,sans-Serif" font-size="10.00"> _filename, int _lineNum)</text>
</a>
</g>
</g>
<!-- Node2 -->
<g id="node2" class="node">
<title>Node2</title>
<g id="a_node2"><a xlink:title=" ">
<polygon fill="white" stroke="#bfbfbf" points="0,-259.5 0,-316.5 78,-316.5 78,-259.5 0,-259.5"/>
<text text-anchor="middle" x="39" y="-304.5" font-family="Helvetica,sans-Serif" font-size="10.00">std::exception</text>
<polyline fill="none" stroke="#bfbfbf" points="0,-297.5 78,-297.5 "/>
<text text-anchor="middle" x="39" y="-285.5" font-family="Helvetica,sans-Serif" font-size="10.00"> </text>
<polyline fill="none" stroke="#bfbfbf" points="0,-278.5 78,-278.5 "/>
<text text-anchor="middle" x="39" y="-266.5" font-family="Helvetica,sans-Serif" font-size="10.00"> </text>
</a>
</g>
</g>
<!-- Node2&#45;&gt;Node1 -->
<g id="edge1" class="edge">
<title>Node2&#45;&gt;Node1</title>
<path fill="none" stroke="midnightblue" d="M54.67,-249.73C60.73,-235.32 67.98,-218.08 75.36,-200.54"/>
<polygon fill="none" stroke="midnightblue" points="51.33,-248.65 50.68,-259.23 57.78,-251.37 51.33,-248.65"/>
</g>
<!-- Node3 -->
<g id="node3" class="node">
<title>Node3</title>
<g id="a_node3"><a xlink:title=" ">
<polygon fill="white" stroke="#bfbfbf" points="96.5,-259.5 96.5,-316.5 137.5,-316.5 137.5,-259.5 96.5,-259.5"/>
<text text-anchor="middle" x="117" y="-304.5" font-family="Helvetica,sans-Serif" font-size="10.00">string</text>
<polyline fill="none" stroke="#bfbfbf" points="96.5,-297.5 137.5,-297.5 "/>
<text text-anchor="middle" x="117" y="-285.5" font-family="Helvetica,sans-Serif" font-size="10.00"> </text>
<polyline fill="none" stroke="#bfbfbf" points="96.5,-278.5 137.5,-278.5 "/>
<text text-anchor="middle" x="117" y="-266.5" font-family="Helvetica,sans-Serif" font-size="10.00"> </text>
</a>
</g>
</g>
<!-- Node3&#45;&gt;Node1 -->
<g id="edge2" class="edge">
<title>Node3&#45;&gt;Node1</title>
<path fill="none" stroke="#404040" d="M117,-259.23C117,-246.25 117,-229.87 117,-212.6"/>
<polygon fill="none" stroke="#404040" points="117,-212.54 113,-206.54 117,-200.54 121,-206.54 117,-212.54"/>
<text text-anchor="middle" x="138.5" y="-233" font-family="Helvetica,sans-Serif" font-size="10.00"> #re</text>
<text text-anchor="middle" x="138.5" y="-222" font-family="Helvetica,sans-Serif" font-size="10.00">+filename</text>
</g>
<!-- Node4 -->
<g id="node4" class="node">
<title>Node4</title>
<g id="a_node4"><a xlink:title=" ">
<polygon fill="white" stroke="#bfbfbf" points="168.5,-259.5 168.5,-316.5 197.5,-316.5 197.5,-259.5 168.5,-259.5"/>
<text text-anchor="middle" x="183" y="-304.5" font-family="Helvetica,sans-Serif" font-size="10.00">int</text>
<polyline fill="none" stroke="#bfbfbf" points="168.5,-297.5 197.5,-297.5 "/>
<text text-anchor="middle" x="183" y="-285.5" font-family="Helvetica,sans-Serif" font-size="10.00"> </text>
<polyline fill="none" stroke="#bfbfbf" points="168.5,-278.5 197.5,-278.5 "/>
<text text-anchor="middle" x="183" y="-266.5" font-family="Helvetica,sans-Serif" font-size="10.00"> </text>
</a>
</g>
</g>
<!-- Node4&#45;&gt;Node1 -->
<g id="edge3" class="edge">
<title>Node4&#45;&gt;Node1</title>
<path fill="none" stroke="#404040" d="M174.4,-259.44C170.45,-247.04 165.62,-232.24 161,-219 160.22,-216.76 159.43,-214.5 158.62,-212.23"/>
<polygon fill="none" stroke="#404040" points="158.56,-212.05 152.78,-207.74 154.53,-200.75 160.31,-205.06 158.56,-212.05"/>
<text text-anchor="middle" x="189.5" y="-227.5" font-family="Helvetica,sans-Serif" font-size="10.00"> +lineNum</text>
</g>
</g>
</svg>
