<?xml version="1.0" encoding="UTF-8" standalone="no"?>
<!DOCTYPE svg PUBLIC "-//W3C//DTD SVG 1.1//EN"
 "http://www.w3.org/Graphics/SVG/1.1/DTD/svg11.dtd">
<!-- Generated by graphviz version 2.50.0 (20211204.2007)
 -->
<!-- Title: MiraiCP::GroupInviteEvent Pages: 1 -->
<svg width="241pt" height="669pt"
 viewBox="0.00 0.00 241.00 669.00" xmlns="http://www.w3.org/2000/svg" xmlns:xlink="http://www.w3.org/1999/xlink">
<g id="graph0" class="graph" transform="scale(1 1) rotate(0) translate(4 665)">
<title>MiraiCP::GroupInviteEvent</title>
<polygon fill="white" stroke="transparent" points="-4,4 -4,-665 237,-665 237,4 -4,4"/>
<!-- Node1 -->
<g id="node1" class="node">
<title>Node1</title>
<g id="a_node1"><a xlink:title="群聊邀请事件类声明">
<polygon fill="#bfbfbf" stroke="black" points="0,-0.5 0,-167.5 147,-167.5 147,-0.5 0,-0.5"/>
<text text-anchor="middle" x="73.5" y="-155.5" font-family="Helvetica,sans-Serif" font-size="10.00">MiraiCP::GroupInviteEvent</text>
<polyline fill="none" stroke="black" points="0,-148.5 147,-148.5 "/>
<text text-anchor="start" x="8" y="-136.5" font-family="Helvetica,sans-Serif" font-size="10.00">+ std::string source</text>
<text text-anchor="start" x="8" y="-125.5" font-family="Helvetica,sans-Serif" font-size="10.00">+ std::string inviterNick</text>
<text text-anchor="start" x="8" y="-114.5" font-family="Helvetica,sans-Serif" font-size="10.00">+ std::string groupName</text>
<text text-anchor="start" x="8" y="-103.5" font-family="Helvetica,sans-Serif" font-size="10.00">+ Group group</text>
<text text-anchor="start" x="8" y="-92.5" font-family="Helvetica,sans-Serif" font-size="10.00">+ Friend inviter</text>
<text text-anchor="start" x="8" y="-81.5" font-family="Helvetica,sans-Serif" font-size="10.00">+ size_t requestEventId</text>
<polyline fill="none" stroke="black" points="0,-74.5 147,-74.5 "/>
<text text-anchor="start" x="8" y="-62.5" font-family="Helvetica,sans-Serif" font-size="10.00">+ void reject()</text>
<text text-anchor="start" x="8" y="-51.5" font-family="Helvetica,sans-Serif" font-size="10.00">+ void accept()</text>
<text text-anchor="start" x="8" y="-40.5" font-family="Helvetica,sans-Serif" font-size="10.00">+ GroupInviteEvent(BaseEvent</text>
<text text-anchor="start" x="8" y="-29.5" font-family="Helvetica,sans-Serif" font-size="10.00">Data j)</text>
<text text-anchor="start" x="8" y="-18.5" font-family="Helvetica,sans-Serif" font-size="10.00">+ static eventTypes::</text>
<text text-anchor="start" x="8" y="-7.5" font-family="Helvetica,sans-Serif" font-size="10.00">Types get_event_type()</text>
</a>
</g>
</g>
<!-- Node2 -->
<g id="node2" class="node">
<title>Node2</title>
<g id="a_node2"><a xlink:href="a00473.html" target="_top" xlink:title=" ">
<polygon fill="white" stroke="black" points="0,-205.5 0,-328.5 147,-328.5 147,-205.5 0,-205.5"/>
<text text-anchor="start" x="8" y="-316.5" font-family="Helvetica,sans-Serif" font-size="10.00">MiraiCP::BotEvent&lt;</text>
<text text-anchor="middle" x="73.5" y="-305.5" font-family="Helvetica,sans-Serif" font-size="10.00"> GroupInviteEvent &gt;</text>
<polyline fill="none" stroke="black" points="0,-298.5 147,-298.5 "/>
<text text-anchor="start" x="8" y="-286.5" font-family="Helvetica,sans-Serif" font-size="10.00">+ Bot bot</text>
<text text-anchor="start" x="8" y="-275.5" font-family="Helvetica,sans-Serif" font-size="10.00">+ IdLogger botlogger</text>
<polyline fill="none" stroke="black" points="0,-268.5 147,-268.5 "/>
<text text-anchor="start" x="8" y="-256.5" font-family="Helvetica,sans-Serif" font-size="10.00">+ eventTypes::Types getEvent</text>
<text text-anchor="start" x="8" y="-245.5" font-family="Helvetica,sans-Serif" font-size="10.00">Type() const override</text>
<text text-anchor="start" x="8" y="-234.5" font-family="Helvetica,sans-Serif" font-size="10.00">+ BotEvent(QQID botid)</text>
<text text-anchor="start" x="8" y="-223.5" font-family="Helvetica,sans-Serif" font-size="10.00">+ ~BotEvent() override</text>
<text text-anchor="start" x="8" y="-212.5" font-family="Helvetica,sans-Serif" font-size="10.00">=default</text>
</a>
</g>
</g>
<!-- Node2&#45;&gt;Node1 -->
<g id="edge1" class="edge">
<title>Node2&#45;&gt;Node1</title>
<path fill="none" stroke="midnightblue" d="M73.5,-195.37C73.5,-186.29 73.5,-176.93 73.5,-167.69"/>
<polygon fill="none" stroke="midnightblue" points="70,-195.48 73.5,-205.48 77,-195.48 70,-195.48"/>
</g>
<!-- Node3 -->
<g id="node3" class="node">
<title>Node3</title>
<g id="a_node3"><a xlink:href="a00497.html" target="_top" xlink:title="Event抽象父类">
<polygon fill="white" stroke="black" points="7,-526.5 7,-660.5 132,-660.5 132,-526.5 7,-526.5"/>
<text text-anchor="middle" x="69.5" y="-648.5" font-family="Helvetica,sans-Serif" font-size="10.00">MiraiCP::MiraiCPEvent</text>
<polyline fill="none" stroke="black" points="7,-641.5 132,-641.5 "/>
<text text-anchor="middle" x="69.5" y="-629.5" font-family="Helvetica,sans-Serif" font-size="10.00"> </text>
<polyline fill="none" stroke="black" points="7,-622.5 132,-622.5 "/>
<text text-anchor="start" x="15" y="-610.5" font-family="Helvetica,sans-Serif" font-size="10.00">+ MiraiCPEvent()=default</text>
<text text-anchor="start" x="15" y="-599.5" font-family="Helvetica,sans-Serif" font-size="10.00">+ virtual ~MiraiCPEvent</text>
<text text-anchor="start" x="15" y="-588.5" font-family="Helvetica,sans-Serif" font-size="10.00">()=default</text>
<text text-anchor="start" x="15" y="-577.5" font-family="Helvetica,sans-Serif" font-size="10.00">+ virtual eventTypes</text>
<text text-anchor="start" x="15" y="-566.5" font-family="Helvetica,sans-Serif" font-size="10.00">::Types getEventType</text>
<text text-anchor="start" x="15" y="-555.5" font-family="Helvetica,sans-Serif" font-size="10.00">() const =0</text>
<text text-anchor="start" x="15" y="-544.5" font-family="Helvetica,sans-Serif" font-size="10.00">+ static eventTypes::</text>
<text text-anchor="start" x="15" y="-533.5" font-family="Helvetica,sans-Serif" font-size="10.00">Types get_event_type()</text>
</a>
</g>
</g>
<!-- Node3&#45;&gt;Node2 -->
<g id="edge2" class="edge">
<title>Node3&#45;&gt;Node2</title>
<path fill="none" stroke="midnightblue" d="M70.44,-516.36C71.14,-459.16 72.1,-381.85 72.75,-328.76"/>
<polygon fill="none" stroke="midnightblue" points="66.94,-516.4 70.31,-526.44 73.94,-516.49 66.94,-516.4"/>
</g>
<!-- Node4 -->
<g id="node4" class="node">
<title>Node4</title>
<g id="a_node4"><a xlink:href="a00473.html" target="_top" xlink:title="所有事件处理timeoutevent都是机器人事件，指都有机器人实例">
<polygon fill="white" stroke="black" points="86,-376.5 86,-488.5 233,-488.5 233,-376.5 86,-376.5"/>
<text text-anchor="middle" x="159.5" y="-476.5" font-family="Helvetica,sans-Serif" font-size="10.00">MiraiCP::BotEvent&lt; T &gt;</text>
<polyline fill="none" stroke="black" points="86,-469.5 233,-469.5 "/>
<text text-anchor="start" x="94" y="-457.5" font-family="Helvetica,sans-Serif" font-size="10.00">+ Bot bot</text>
<text text-anchor="start" x="94" y="-446.5" font-family="Helvetica,sans-Serif" font-size="10.00">+ IdLogger botlogger</text>
<polyline fill="none" stroke="black" points="86,-439.5 233,-439.5 "/>
<text text-anchor="start" x="94" y="-427.5" font-family="Helvetica,sans-Serif" font-size="10.00">+ eventTypes::Types getEvent</text>
<text text-anchor="start" x="94" y="-416.5" font-family="Helvetica,sans-Serif" font-size="10.00">Type() const override</text>
<text text-anchor="start" x="94" y="-405.5" font-family="Helvetica,sans-Serif" font-size="10.00">+ BotEvent(QQID botid)</text>
<text text-anchor="start" x="94" y="-394.5" font-family="Helvetica,sans-Serif" font-size="10.00">+ ~BotEvent() override</text>
<text text-anchor="start" x="94" y="-383.5" font-family="Helvetica,sans-Serif" font-size="10.00">=default</text>
</a>
</g>
</g>
<!-- Node3&#45;&gt;Node4 -->
<g id="edge4" class="edge">
<title>Node3&#45;&gt;Node4</title>
<path fill="none" stroke="midnightblue" d="M111.88,-517.63C117.34,-507.99 122.85,-498.25 128.09,-488.99"/>
<polygon fill="none" stroke="midnightblue" points="108.77,-516.02 106.89,-526.45 114.86,-519.47 108.77,-516.02"/>
</g>
<!-- Node4&#45;&gt;Node2 -->
<g id="edge3" class="edge">
<title>Node4&#45;&gt;Node2</title>
<path fill="none" stroke="orange" d="M125.6,-367.05C118.94,-354.39 111.98,-341.15 105.39,-328.63"/>
<polygon fill="orange" stroke="orange" points="122.63,-368.93 130.38,-376.15 128.83,-365.67 122.63,-368.93"/>
<text text-anchor="middle" x="165.5" y="-350" font-family="Helvetica,sans-Serif" font-size="10.00"> &lt; GroupInviteEvent &gt;</text>
</g>
</g>
</svg>
