<?xml version="1.0" encoding="UTF-8" standalone="no"?>
<!DOCTYPE svg PUBLIC "-//W3C//DTD SVG 1.1//EN"
 "http://www.w3.org/Graphics/SVG/1.1/DTD/svg11.dtd">
<!-- Generated by graphviz version 2.50.0 (20211204.2007)
 -->
<!-- Title: MiraiCP::PlainText Pages: 1 -->
<svg width="386pt" height="662pt"
 viewBox="0.00 0.00 385.50 662.00" xmlns="http://www.w3.org/2000/svg" xmlns:xlink="http://www.w3.org/1999/xlink">
<g id="graph0" class="graph" transform="scale(1 1) rotate(0) translate(4 658)">
<title>MiraiCP::PlainText</title>
<polygon fill="white" stroke="transparent" points="-4,4 -4,-658 381.5,-658 381.5,4 -4,4"/>
<!-- Node1 -->
<g id="node1" class="node">
<title>Node1</title>
<g id="a_node1"><a xlink:title="纯文本信息">
<polygon fill="#bfbfbf" stroke="black" points="98.5,-0.5 98.5,-211.5 284.5,-211.5 284.5,-0.5 98.5,-0.5"/>
<text text-anchor="middle" x="191.5" y="-199.5" font-family="Helvetica,sans-Serif" font-size="10.00">MiraiCP::PlainText</text>
<polyline fill="none" stroke="black" points="98.5,-192.5 284.5,-192.5 "/>
<text text-anchor="middle" x="191.5" y="-180.5" font-family="Helvetica,sans-Serif" font-size="10.00"> </text>
<polyline fill="none" stroke="black" points="98.5,-173.5 284.5,-173.5 "/>
<text text-anchor="start" x="106.5" y="-161.5" font-family="Helvetica,sans-Serif" font-size="10.00">+ PlainText(const SingleMessage &amp;sg)</text>
<text text-anchor="start" x="106.5" y="-150.5" font-family="Helvetica,sans-Serif" font-size="10.00">+ PlainText(PlainText</text>
<text text-anchor="start" x="106.5" y="-139.5" font-family="Helvetica,sans-Serif" font-size="10.00"> &amp;&amp;_o) noexcept=default</text>
<text text-anchor="start" x="106.5" y="-128.5" font-family="Helvetica,sans-Serif" font-size="10.00">+ PlainText(const PlainText</text>
<text text-anchor="start" x="106.5" y="-117.5" font-family="Helvetica,sans-Serif" font-size="10.00"> &amp;_o)=default</text>
<text text-anchor="start" x="106.5" y="-106.5" font-family="Helvetica,sans-Serif" font-size="10.00">+ PlainText(std::string</text>
<text text-anchor="start" x="106.5" y="-95.5" font-family="Helvetica,sans-Serif" font-size="10.00"> inStr) noexcept</text>
<text text-anchor="start" x="106.5" y="-84.5" font-family="Helvetica,sans-Serif" font-size="10.00">+ PlainText(Stringable val)</text>
<text text-anchor="start" x="106.5" y="-73.5" font-family="Helvetica,sans-Serif" font-size="10.00">+ std::string toMiraiCode</text>
<text text-anchor="start" x="106.5" y="-62.5" font-family="Helvetica,sans-Serif" font-size="10.00">() const override</text>
<text text-anchor="start" x="106.5" y="-51.5" font-family="Helvetica,sans-Serif" font-size="10.00">+ nlohmann::json toJson</text>
<text text-anchor="start" x="106.5" y="-40.5" font-family="Helvetica,sans-Serif" font-size="10.00">() const override</text>
<text text-anchor="start" x="106.5" y="-29.5" font-family="Helvetica,sans-Serif" font-size="10.00">+ bool operator==(const</text>
<text text-anchor="start" x="106.5" y="-18.5" font-family="Helvetica,sans-Serif" font-size="10.00"> PlainText &amp;p) const</text>
<text text-anchor="start" x="106.5" y="-7.5" font-family="Helvetica,sans-Serif" font-size="10.00">+ static int type()</text>
</a>
</g>
</g>
<!-- Node2 -->
<g id="node2" class="node">
<title>Node2</title>
<g id="a_node2"><a xlink:href="a00660.html" target="_top" xlink:title="MessageChain的组成部分">
<polygon fill="white" stroke="black" points="118,-249.5 118,-504.5 265,-504.5 265,-249.5 118,-249.5"/>
<text text-anchor="middle" x="191.5" y="-492.5" font-family="Helvetica,sans-Serif" font-size="10.00">MiraiCP::SingleMessage</text>
<polyline fill="none" stroke="black" points="118,-485.5 265,-485.5 "/>
<text text-anchor="middle" x="191.5" y="-473.5" font-family="Helvetica,sans-Serif" font-size="10.00"> </text>
<polyline fill="none" stroke="black" points="118,-466.5 265,-466.5 "/>
<text text-anchor="start" x="126" y="-454.5" font-family="Helvetica,sans-Serif" font-size="10.00">+ SingleMessage(int</text>
<text text-anchor="start" x="126" y="-443.5" font-family="Helvetica,sans-Serif" font-size="10.00"> inType, std::string</text>
<text text-anchor="start" x="126" y="-432.5" font-family="Helvetica,sans-Serif" font-size="10.00"> content, std::string</text>
<text text-anchor="start" x="126" y="-421.5" font-family="Helvetica,sans-Serif" font-size="10.00"> prefix=&quot;:&quot;) noexcept</text>
<text text-anchor="start" x="126" y="-410.5" font-family="Helvetica,sans-Serif" font-size="10.00">+ ~SingleMessage() noexcept</text>
<text text-anchor="start" x="126" y="-399.5" font-family="Helvetica,sans-Serif" font-size="10.00"> override=default</text>
<text text-anchor="start" x="126" y="-388.5" font-family="Helvetica,sans-Serif" font-size="10.00">+ virtual nlohmann::json</text>
<text text-anchor="start" x="126" y="-377.5" font-family="Helvetica,sans-Serif" font-size="10.00"> toJson() const</text>
<text text-anchor="start" x="126" y="-366.5" font-family="Helvetica,sans-Serif" font-size="10.00">+ std::string toMiraiCode</text>
<text text-anchor="start" x="126" y="-355.5" font-family="Helvetica,sans-Serif" font-size="10.00">() const override</text>
<text text-anchor="start" x="126" y="-344.5" font-family="Helvetica,sans-Serif" font-size="10.00">+ bool operator==(const</text>
<text text-anchor="start" x="126" y="-333.5" font-family="Helvetica,sans-Serif" font-size="10.00"> SingleMessage &amp;m) const</text>
<text text-anchor="start" x="126" y="-322.5" font-family="Helvetica,sans-Serif" font-size="10.00">+ static std::string</text>
<text text-anchor="start" x="126" y="-311.5" font-family="Helvetica,sans-Serif" font-size="10.00"> getTypeString(int type)</text>
<text text-anchor="start" x="126" y="-300.5" font-family="Helvetica,sans-Serif" font-size="10.00">+ static int getKey(const</text>
<text text-anchor="start" x="126" y="-289.5" font-family="Helvetica,sans-Serif" font-size="10.00"> std::string &amp;value)</text>
<text text-anchor="start" x="126" y="-278.5" font-family="Helvetica,sans-Serif" font-size="10.00">+ static int getMiraiCodeKey</text>
<text text-anchor="start" x="126" y="-267.5" font-family="Helvetica,sans-Serif" font-size="10.00">(const std::string &amp;value)</text>
<text text-anchor="start" x="126" y="-256.5" font-family="Helvetica,sans-Serif" font-size="10.00"># SingleMessage()=default</text>
</a>
</g>
</g>
<!-- Node2&#45;&gt;Node1 -->
<g id="edge1" class="edge">
<title>Node2&#45;&gt;Node1</title>
<path fill="none" stroke="midnightblue" d="M191.5,-239.27C191.5,-229.95 191.5,-220.64 191.5,-211.53"/>
<polygon fill="none" stroke="midnightblue" points="188,-239.38 191.5,-249.38 195,-239.38 188,-239.38"/>
</g>
<!-- Node3 -->
<g id="node3" class="node">
<title>Node3</title>
<g id="a_node3"><a xlink:href="a00644.html" target="_top" xlink:title="MiraiCode父类, 指可以被转换成miraicode的类型">
<polygon fill="white" stroke="black" points="0,-563.5 0,-653.5 121,-653.5 121,-563.5 0,-563.5"/>
<text text-anchor="middle" x="60.5" y="-641.5" font-family="Helvetica,sans-Serif" font-size="10.00">MiraiCP::MiraiCodeable</text>
<polyline fill="none" stroke="black" points="0,-634.5 121,-634.5 "/>
<text text-anchor="middle" x="60.5" y="-622.5" font-family="Helvetica,sans-Serif" font-size="10.00"> </text>
<polyline fill="none" stroke="black" points="0,-615.5 121,-615.5 "/>
<text text-anchor="start" x="8" y="-603.5" font-family="Helvetica,sans-Serif" font-size="10.00">+ virtual std::string</text>
<text text-anchor="start" x="8" y="-592.5" font-family="Helvetica,sans-Serif" font-size="10.00"> toMiraiCode() const =0</text>
<text text-anchor="start" x="8" y="-581.5" font-family="Helvetica,sans-Serif" font-size="10.00">+ virtual ~MiraiCodeable</text>
<text text-anchor="start" x="8" y="-570.5" font-family="Helvetica,sans-Serif" font-size="10.00">()=default</text>
</a>
</g>
</g>
<!-- Node3&#45;&gt;Node2 -->
<g id="edge2" class="edge">
<title>Node3&#45;&gt;Node2</title>
<path fill="none" stroke="midnightblue" d="M90.94,-554.17C99.52,-539.14 109.24,-522.12 119.16,-504.73"/>
<polygon fill="none" stroke="midnightblue" points="87.68,-552.83 85.76,-563.25 93.76,-556.3 87.68,-552.83"/>
</g>
<!-- Node4 -->
<g id="node4" class="node">
<title>Node4</title>
<g id="a_node4"><a xlink:title=" ">
<polygon fill="white" stroke="#bfbfbf" points="139,-580 139,-637 180,-637 180,-580 139,-580"/>
<text text-anchor="middle" x="159.5" y="-625" font-family="Helvetica,sans-Serif" font-size="10.00">string</text>
<polyline fill="none" stroke="#bfbfbf" points="139,-618 180,-618 "/>
<text text-anchor="middle" x="159.5" y="-606" font-family="Helvetica,sans-Serif" font-size="10.00"> </text>
<polyline fill="none" stroke="#bfbfbf" points="139,-599 180,-599 "/>
<text text-anchor="middle" x="159.5" y="-587" font-family="Helvetica,sans-Serif" font-size="10.00"> </text>
</a>
</g>
</g>
<!-- Node4&#45;&gt;Node2 -->
<g id="edge3" class="edge">
<title>Node4&#45;&gt;Node2</title>
<path fill="none" stroke="#404040" d="M158.44,-579.63C158.16,-563.12 158.4,-541.81 160.5,-523 160.73,-520.93 160.98,-518.85 161.24,-516.76"/>
<polygon fill="none" stroke="#404040" points="161.27,-516.57 158.12,-510.08 162.9,-504.68 166.04,-511.17 161.27,-516.57"/>
<text text-anchor="middle" x="181.5" y="-537" font-family="Helvetica,sans-Serif" font-size="10.00"> +content</text>
<text text-anchor="middle" x="181.5" y="-526" font-family="Helvetica,sans-Serif" font-size="10.00">+prefix</text>
</g>
<!-- Node5 -->
<g id="node5" class="node">
<title>Node5</title>
<g id="a_node5"><a xlink:title=" ">
<polygon fill="white" stroke="#bfbfbf" points="210,-580 210,-637 239,-637 239,-580 210,-580"/>
<text text-anchor="middle" x="224.5" y="-625" font-family="Helvetica,sans-Serif" font-size="10.00">int</text>
<polyline fill="none" stroke="#bfbfbf" points="210,-618 239,-618 "/>
<text text-anchor="middle" x="224.5" y="-606" font-family="Helvetica,sans-Serif" font-size="10.00"> </text>
<polyline fill="none" stroke="#bfbfbf" points="210,-599 239,-599 "/>
<text text-anchor="middle" x="224.5" y="-587" font-family="Helvetica,sans-Serif" font-size="10.00"> </text>
</a>
</g>
</g>
<!-- Node5&#45;&gt;Node2 -->
<g id="edge4" class="edge">
<title>Node5&#45;&gt;Node2</title>
<path fill="none" stroke="#404040" d="M220.52,-579.82C218.13,-563.17 214.88,-540.59 211.42,-516.55"/>
<polygon fill="none" stroke="#404040" points="211.42,-516.53 206.61,-511.16 209.71,-504.65 214.52,-510.02 211.42,-516.53"/>
<text text-anchor="middle" x="245.5" y="-531.5" font-family="Helvetica,sans-Serif" font-size="10.00"> +internalType</text>
</g>
<!-- Node6 -->
<g id="node6" class="node">
<title>Node6</title>
<g id="a_node6"><a xlink:title=" ">
<polygon fill="white" stroke="#bfbfbf" points="257.5,-574.5 257.5,-642.5 377.5,-642.5 377.5,-574.5 257.5,-574.5"/>
<text text-anchor="start" x="265.5" y="-630.5" font-family="Helvetica,sans-Serif" font-size="10.00">static const char *const</text>
<text text-anchor="middle" x="317.5" y="-619.5" font-family="Helvetica,sans-Serif" font-size="10.00"> *const</text>
<polyline fill="none" stroke="#bfbfbf" points="257.5,-612.5 377.5,-612.5 "/>
<text text-anchor="middle" x="317.5" y="-600.5" font-family="Helvetica,sans-Serif" font-size="10.00"> </text>
<polyline fill="none" stroke="#bfbfbf" points="257.5,-593.5 377.5,-593.5 "/>
<text text-anchor="middle" x="317.5" y="-581.5" font-family="Helvetica,sans-Serif" font-size="10.00"> </text>
</a>
</g>
</g>
<!-- Node6&#45;&gt;Node2 -->
<g id="edge5" class="edge">
<title>Node6&#45;&gt;Node2</title>
<path fill="none" stroke="#404040" d="M304.13,-574.1C297.51,-558.36 289.11,-539.46 280.5,-523 277.46,-517.19 274.29,-511.3 271.01,-505.39"/>
<polygon fill="none" stroke="#404040" points="270.9,-505.19 264.48,-501.92 265.03,-494.73 271.45,-498 270.9,-505.19"/>
<text text-anchor="middle" x="328.5" y="-537" font-family="Helvetica,sans-Serif" font-size="10.00"> +messageType</text>
<text text-anchor="middle" x="328.5" y="-526" font-family="Helvetica,sans-Serif" font-size="10.00">+miraiCodeName</text>
</g>
</g>
</svg>
