<?xml version="1.0" encoding="UTF-8" standalone="no"?>
<!DOCTYPE svg PUBLIC "-//W3C//DTD SVG 1.1//EN"
 "http://www.w3.org/Graphics/SVG/1.1/DTD/svg11.dtd">
<!-- Generated by graphviz version 9.0.0 (0)
 -->
<!-- Title: MiraiCP::MessageSource Pages: 1 -->
<svg width="223pt" height="436pt"
 viewBox="0.00 0.00 223.00 436.00" xmlns="http://www.w3.org/2000/svg" xmlns:xlink="http://www.w3.org/1999/xlink">
<g id="graph0" class="graph" transform="scale(1 1) rotate(0) translate(4 432)">
<title>MiraiCP::MessageSource</title>
<!-- Node1 -->
<g id="Node000001" class="node">
<title>Node1</title>
<g id="a_Node000001"><a xlink:title=" ">
<polygon fill="#999999" stroke="none" points="215,-304 0,-304 0,0 215,0 215,-304"/>
<text text-anchor="start" x="51.62" y="-290.5" font-family="Helvetica,sans-Serif" font-size="10.00">MiraiCP::MessageSource</text>
<text text-anchor="start" x="106" y="-274.5" font-family="Helvetica,sans-Serif" font-size="10.00"> </text>
<text text-anchor="start" x="4" y="-258.5" font-family="Helvetica,sans-Serif" font-size="10.00">+</text>
<text text-anchor="start" x="14" y="-258.5" font-family="Helvetica,sans-Serif" font-size="10.00">MessageSource()=default</text>
<text text-anchor="start" x="4" y="-242.5" font-family="Helvetica,sans-Serif" font-size="10.00">+</text>
<text text-anchor="start" x="14" y="-242.5" font-family="Helvetica,sans-Serif" font-size="10.00">ShouldNotUse(&quot;Use</text>
<text text-anchor="start" x="14" y="-230.5" font-family="Helvetica,sans-Serif" font-size="10.00"> Contact.quoteAndSendMessage&quot;)</text>
<text text-anchor="start" x="14" y="-218.5" font-family="Helvetica,sans-Serif" font-size="10.00"> MessageSource quoteAndSendMiraiCode</text>
<text text-anchor="start" x="14" y="-206.5" font-family="Helvetica,sans-Serif" font-size="10.00">(MiraiCodeable *msg</text>
<text text-anchor="start" x="4" y="-190.5" font-family="Helvetica,sans-Serif" font-size="10.00">+</text>
<text text-anchor="start" x="14" y="-190.5" font-family="Helvetica,sans-Serif" font-size="10.00">ShouldNotUse(&quot;Use Contact.quote</text>
<text text-anchor="start" x="14" y="-178.5" font-family="Helvetica,sans-Serif" font-size="10.00">AndSendMessage&quot;) MessageSource</text>
<text text-anchor="start" x="14" y="-166.5" font-family="Helvetica,sans-Serif" font-size="10.00"> quoteAndSendMsg(const std ShouldNotUse</text>
<text text-anchor="start" x="14" y="-154.5" font-family="Helvetica,sans-Serif" font-size="10.00">(&quot;Use Contact.quoteAndSendMessage&quot;)</text>
<text text-anchor="start" x="14" y="-142.5" font-family="Helvetica,sans-Serif" font-size="10.00"> MessageSource quoteAndSendMiraiCode</text>
<text text-anchor="start" x="14" y="-130.5" font-family="Helvetica,sans-Serif" font-size="10.00">(const std MessageSource(std::string</text>
<text text-anchor="start" x="14" y="-118.5" font-family="Helvetica,sans-Serif" font-size="10.00"> ids, std::string internalids, std::string source)</text>
<text text-anchor="start" x="4" y="-102.5" font-family="Helvetica,sans-Serif" font-size="10.00">+</text>
<text text-anchor="start" x="14" y="-102.5" font-family="Helvetica,sans-Serif" font-size="10.00">std::string serializeToString</text>
<text text-anchor="start" x="14" y="-90.5" font-family="Helvetica,sans-Serif" font-size="10.00">() const</text>
<text text-anchor="start" x="4" y="-74.5" font-family="Helvetica,sans-Serif" font-size="10.00">+</text>
<text text-anchor="start" x="14" y="-74.5" font-family="Helvetica,sans-Serif" font-size="10.00">void recall() const</text>
<text text-anchor="start" x="4" y="-58.5" font-family="Helvetica,sans-Serif" font-size="10.00">+</text>
<text text-anchor="start" x="14" y="-58.5" font-family="Helvetica,sans-Serif" font-size="10.00">bool operator==(const</text>
<text text-anchor="start" x="14" y="-46.5" font-family="Helvetica,sans-Serif" font-size="10.00"> MessageSource &amp;ms) const</text>
<text text-anchor="start" x="4" y="-30.5" font-family="Helvetica,sans-Serif" font-size="10.00">+</text>
<text text-anchor="start" x="14" y="-30.5" font-family="Helvetica,sans-Serif" font-size="10.00">static MessageSource</text>
<text text-anchor="start" x="14" y="-18.5" font-family="Helvetica,sans-Serif" font-size="10.00"> deserializeFromString</text>
<text text-anchor="start" x="14" y="-6.5" font-family="Helvetica,sans-Serif" font-size="10.00">(const std::string &amp;source)</text>
<polygon fill="#666666" stroke="#666666" points="0,-286 0,-286 215,-286 215,-286 0,-286"/>
<polygon fill="#666666" stroke="#666666" points="0,-270 0,-270 215,-270 215,-270 0,-270"/>
<polygon fill="none" stroke="#666666" points="0,0 0,-304 215,-304 215,0 0,0"/>
</a>
</g>
</g>
<!-- Node2 -->
<g id="Node000002" class="node">
<title>Node2</title>
<g id="a_Node000002"><a xlink:title=" ">
<polygon fill="white" stroke="none" points="84.5,-428 50.5,-428 50.5,-376 84.5,-376 84.5,-428"/>
<text text-anchor="start" x="55.5" y="-414.5" font-family="Helvetica,sans-Serif" font-size="10.00">string</text>
<text text-anchor="start" x="66" y="-398.5" font-family="Helvetica,sans-Serif" font-size="10.00"> </text>
<text text-anchor="start" x="66" y="-382.5" font-family="Helvetica,sans-Serif" font-size="10.00"> </text>
<polygon fill="#666666" stroke="#666666" points="50.5,-410 50.5,-410 84.5,-410 84.5,-410 50.5,-410"/>
<polygon fill="#666666" stroke="#666666" points="50.5,-394 50.5,-394 84.5,-394 84.5,-394 50.5,-394"/>
<polygon fill="none" stroke="#666666" points="50.5,-376 50.5,-428 84.5,-428 84.5,-376 50.5,-376"/>
</a>
</g>
</g>
<!-- Node2&#45;&gt;Node1 -->
<g id="edge1_Node000001_Node000002" class="edge">
<title>Node2&#45;&gt;Node1</title>
<g id="a_edge1_Node000001_Node000002"><a xlink:title=" ">
<path fill="none" stroke="#63b8ff" d="M69.8,-376.03C71.35,-360.46 73.59,-340.02 76.25,-322 76.53,-320.11 76.81,-318.21 77.1,-316.3"/>
<polygon fill="none" stroke="#63b8ff" points="77.1,-316.31 74.07,-309.76 78.95,-304.45 81.98,-310.99 77.1,-316.31"/>
</a>
</g>
<text text-anchor="middle" x="100.62" y="-348.5" font-family="Helvetica,sans-Serif" font-size="10.00" fill="grey"> +ids</text>
<text text-anchor="middle" x="100.62" y="-336.5" font-family="Helvetica,sans-Serif" font-size="10.00" fill="grey">+internalids</text>
<text text-anchor="middle" x="100.62" y="-324.5" font-family="Helvetica,sans-Serif" font-size="10.00" fill="grey">+source</text>
</g>
<!-- Node3 -->
<g id="Node000003" class="node">
<title>Node3</title>
<g id="a_Node000003"><a xlink:title=" ">
<polygon fill="white" stroke="none" points="194,-428 103,-428 103,-376 194,-376 194,-428"/>
<text text-anchor="start" x="108" y="-414.5" font-family="Helvetica,sans-Serif" font-size="10.00">unsigned long long</text>
<text text-anchor="start" x="147" y="-398.5" font-family="Helvetica,sans-Serif" font-size="10.00"> </text>
<text text-anchor="start" x="147" y="-382.5" font-family="Helvetica,sans-Serif" font-size="10.00"> </text>
<polygon fill="#666666" stroke="#666666" points="103,-410 103,-410 194,-410 194,-410 103,-410"/>
<polygon fill="#666666" stroke="#666666" points="103,-394 103,-394 194,-394 194,-394 103,-394"/>
<polygon fill="none" stroke="#666666" points="103,-376 103,-428 194,-428 194,-376 103,-376"/>
</a>
</g>
</g>
<!-- Node3&#45;&gt;Node1 -->
<g id="edge2_Node000001_Node000003" class="edge">
<title>Node3&#45;&gt;Node1</title>
<g id="a_edge2_Node000001_Node000003"><a xlink:title=" ">
<path fill="none" stroke="#63b8ff" d="M144.42,-376.31C141.89,-361 138.39,-339.84 134.55,-316.62"/>
<polygon fill="none" stroke="#63b8ff" points="134.55,-316.64 129.63,-311.38 132.6,-304.8 137.52,-310.07 134.55,-316.64"/>
</a>
</g>
<text text-anchor="middle" x="159.25" y="-342.5" font-family="Helvetica,sans-Serif" font-size="10.00" fill="grey"> +env</text>
<text text-anchor="middle" x="159.25" y="-330.5" font-family="Helvetica,sans-Serif" font-size="10.00" fill="grey">+groupid</text>
</g>
</g>
</svg>
