<?xml version="1.0" encoding="UTF-8" standalone="no"?>
<!DOCTYPE svg PUBLIC "-//W3C//DTD SVG 1.1//EN"
 "http://www.w3.org/Graphics/SVG/1.1/DTD/svg11.dtd">
<!-- Generated by graphviz version 9.0.0 (0)
 -->
<!-- Title: MiraiCP::internal::OfflineAnnouncement::publishTo Pages: 1 -->
<svg width="1599pt" height="295pt"
 viewBox="0.00 0.00 1599.25 295.17" xmlns="http://www.w3.org/2000/svg" xmlns:xlink="http://www.w3.org/1999/xlink">
<g id="graph0" class="graph" transform="scale(1 1) rotate(0) translate(4 291.17)">
<title>MiraiCP::internal::OfflineAnnouncement::publishTo</title>
<!-- Node1 -->
<g id="Node000001" class="node">
<title>Node1</title>
<g id="a_Node000001"><a xlink:title="发布群公告">
<polygon fill="#999999" stroke="#666666" points="109,-224.17 0,-224.17 0,-180.17 109,-180.17 109,-224.17"/>
<text text-anchor="start" x="8" y="-210.67" font-family="Helvetica,sans-Serif" font-size="10.00">MiraiCP::internal::</text>
<text text-anchor="start" x="8" y="-198.67" font-family="Helvetica,sans-Serif" font-size="10.00">OfflineAnnouncement</text>
<text text-anchor="middle" x="54.5" y="-186.67" font-family="Helvetica,sans-Serif" font-size="10.00">::publishTo</text>
</a>
</g>
</g>
<!-- Node2 -->
<g id="Node000002" class="node">
<title>Node2</title>
<g id="a_Node000002"><a xlink:href="a00460.html#ac257ebdd1591ea5acf6e045abf28ecba" target="_top" xlink:title=" ">
<polygon fill="white" stroke="#666666" points="263.75,-287.17 145,-287.17 145,-267.17 263.75,-267.17 263.75,-287.17"/>
<text text-anchor="middle" x="204.38" y="-273.67" font-family="Helvetica,sans-Serif" font-size="10.00">MiraiCP::Contact::botid</text>
</a>
</g>
</g>
<!-- Node1&#45;&gt;Node2 -->
<g id="edge1_Node000001_Node000002" class="edge">
<title>Node1&#45;&gt;Node2</title>
<g id="a_edge1_Node000001_Node000002"><a xlink:title=" ">
<path fill="none" stroke="#63b8ff" d="M87.15,-224.63C103.81,-235.76 124.9,-248.78 145,-258.17 148.54,-259.82 152.25,-261.39 156.03,-262.86"/>
<polygon fill="#63b8ff" stroke="#63b8ff" points="154.71,-266.1 165.3,-266.24 157.1,-259.53 154.71,-266.1"/>
</a>
</g>
</g>
<!-- Node3 -->
<g id="Node000003" class="node">
<title>Node3</title>
<g id="a_Node000003"><a xlink:href="a00616.html#a720239cba555515909088bc5404c483f" target="_top" xlink:title="反序列化">
<polygon fill="white" stroke="#666666" points="261.88,-249.17 146.88,-249.17 146.88,-205.17 261.88,-205.17 261.88,-249.17"/>
<text text-anchor="start" x="154.88" y="-235.67" font-family="Helvetica,sans-Serif" font-size="10.00">MiraiCP::internal::</text>
<text text-anchor="start" x="154.88" y="-223.67" font-family="Helvetica,sans-Serif" font-size="10.00">OnlineAnnouncement::</text>
<text text-anchor="middle" x="204.38" y="-211.67" font-family="Helvetica,sans-Serif" font-size="10.00">deserializeFromJson</text>
</a>
</g>
</g>
<!-- Node1&#45;&gt;Node3 -->
<g id="edge2_Node000001_Node000003" class="edge">
<title>Node1&#45;&gt;Node3</title>
<g id="a_edge2_Node000001_Node000003"><a xlink:title=" ">
<path fill="none" stroke="#63b8ff" d="M109.3,-211.26C117.75,-212.69 126.56,-214.18 135.28,-215.65"/>
<polygon fill="#63b8ff" stroke="#63b8ff" points="134.69,-219.11 145.13,-217.32 135.85,-212.2 134.69,-219.11"/>
</a>
</g>
</g>
<!-- Node4 -->
<g id="Node000004" class="node">
<title>Node4</title>
<g id="a_Node000004"><a xlink:href="a00460.html#a1f208ae0f09c367c90c2e079e63048db" target="_top" xlink:title="id 在全部情况存在">
<polygon fill="white" stroke="#666666" points="257,-187.17 151.75,-187.17 151.75,-167.17 257,-167.17 257,-187.17"/>
<text text-anchor="middle" x="204.38" y="-173.67" font-family="Helvetica,sans-Serif" font-size="10.00">MiraiCP::Contact::id</text>
</a>
</g>
</g>
<!-- Node1&#45;&gt;Node4 -->
<g id="edge3_Node000001_Node000004" class="edge">
<title>Node1&#45;&gt;Node4</title>
<g id="a_edge3_Node000001_Node000004"><a xlink:title=" ">
<path fill="none" stroke="#63b8ff" d="M109.3,-193.07C119.37,-191.37 129.98,-189.58 140.3,-187.83"/>
<polygon fill="#63b8ff" stroke="#63b8ff" points="140.57,-191.34 149.85,-186.22 139.4,-184.43 140.57,-191.34"/>
</a>
</g>
</g>
<!-- Node5 -->
<g id="Node000005" class="node">
<title>Node5</title>
<g id="a_Node000005"><a xlink:href="a00435.html#a309e8d7f316e8b5e947ea3bcddeb84a8" target="_top" xlink:title="调用 Mirai 操作">
<polygon fill="white" stroke="#666666" points="258.88,-149.17 149.88,-149.17 149.88,-117.17 258.88,-117.17 258.88,-149.17"/>
<text text-anchor="start" x="157.88" y="-135.67" font-family="Helvetica,sans-Serif" font-size="10.00">MiraiCP::KtOperation</text>
<text text-anchor="middle" x="204.38" y="-123.67" font-family="Helvetica,sans-Serif" font-size="10.00">::ktOperation</text>
</a>
</g>
</g>
<!-- Node1&#45;&gt;Node5 -->
<g id="edge4_Node000001_Node000005" class="edge">
<title>Node1&#45;&gt;Node5</title>
<g id="a_edge4_Node000001_Node000005"><a xlink:title=" ">
<path fill="none" stroke="#63b8ff" d="M99.89,-179.77C114.22,-172.7 130.21,-164.96 145,-158.17 147.91,-156.83 150.91,-155.47 153.95,-154.12"/>
<polygon fill="#63b8ff" stroke="#63b8ff" points="155.18,-157.4 162.93,-150.17 152.37,-150.99 155.18,-157.4"/>
</a>
</g>
</g>
<!-- Node6 -->
<g id="Node000006" class="node">
<title>Node6</title>
<g id="a_Node000006"><a xlink:href="a00435.html#a1e1e498928eeaa1d7107033ff5fa881a" target="_top" xlink:title="调用 Mirai 操作">
<polygon fill="white" stroke="#666666" points="408.75,-149.17 299.75,-149.17 299.75,-117.17 408.75,-117.17 408.75,-149.17"/>
<text text-anchor="start" x="307.75" y="-135.67" font-family="Helvetica,sans-Serif" font-size="10.00">MiraiCP::KtOperation</text>
<text text-anchor="middle" x="354.25" y="-123.67" font-family="Helvetica,sans-Serif" font-size="10.00">::ktOperationStr</text>
</a>
</g>
</g>
<!-- Node5&#45;&gt;Node6 -->
<g id="edge5_Node000005_Node000006" class="edge">
<title>Node5&#45;&gt;Node6</title>
<g id="a_edge5_Node000005_Node000006"><a xlink:title=" ">
<path fill="none" stroke="#63b8ff" d="M259.18,-133.17C268.68,-133.17 278.65,-133.17 288.41,-133.17"/>
<polygon fill="#63b8ff" stroke="#63b8ff" points="288.22,-136.67 298.22,-133.17 288.22,-129.67 288.22,-136.67"/>
</a>
</g>
</g>
<!-- Node7 -->
<g id="Node000007" class="node">
<title>Node7</title>
<g id="a_Node000007"><a xlink:href="a00426.html#a4c6ac4cf4ba5ff0adb7656708bbb67d0" target="_top" xlink:title="interfaces for plugins">
<polygon fill="white" stroke="#666666" points="552.25,-149.17 444.75,-149.17 444.75,-117.17 552.25,-117.17 552.25,-149.17"/>
<text text-anchor="start" x="452.75" y="-135.67" font-family="Helvetica,sans-Serif" font-size="10.00">LibLoader::LoaderApi</text>
<text text-anchor="middle" x="498.5" y="-123.67" font-family="Helvetica,sans-Serif" font-size="10.00">::pluginOperation</text>
</a>
</g>
</g>
<!-- Node6&#45;&gt;Node7 -->
<g id="edge6_Node000006_Node000007" class="edge">
<title>Node6&#45;&gt;Node7</title>
<g id="a_edge6_Node000006_Node000007"><a xlink:title=" ">
<path fill="none" stroke="#63b8ff" d="M409.03,-133.17C416.94,-133.17 425.16,-133.17 433.26,-133.17"/>
<polygon fill="#63b8ff" stroke="#63b8ff" points="433.07,-136.67 443.07,-133.17 433.07,-129.67 433.07,-136.67"/>
</a>
</g>
</g>
<!-- Node8 -->
<g id="Node000008" class="node">
<title>Node8</title>
<g id="a_Node000008"><a xlink:href="a00780.html#acc90fdac094544c4ddd9d6fd13baa5da" target="_top" xlink:title=" ">
<polygon fill="white" stroke="#666666" points="726.5,-212.17 588.25,-212.17 588.25,-180.17 726.5,-180.17 726.5,-212.17"/>
<text text-anchor="start" x="596.25" y="-198.67" font-family="Helvetica,sans-Serif" font-size="10.00">MiraiCP::MiraiCPStringview</text>
<text text-anchor="middle" x="657.38" y="-186.67" font-family="Helvetica,sans-Serif" font-size="10.00">::c_str</text>
</a>
</g>
</g>
<!-- Node7&#45;&gt;Node8 -->
<g id="edge7_Node000007_Node000008" class="edge">
<title>Node7&#45;&gt;Node8</title>
<g id="a_edge7_Node000007_Node000008"><a xlink:title=" ">
<path fill="none" stroke="#63b8ff" d="M540.31,-149.56C560.02,-157.47 583.89,-167.06 604.84,-175.47"/>
<polygon fill="#63b8ff" stroke="#63b8ff" points="603.51,-178.71 614.1,-179.19 606.12,-172.21 603.51,-178.71"/>
</a>
</g>
</g>
<!-- Node9 -->
<g id="Node000009" class="node">
<title>Node9</title>
<g id="a_Node000009"><a xlink:href="a00840.html#aea7d58ff9f04d6d4849c25a2506603a5" target="_top" xlink:title="取env,如果不存在重新获取">
<polygon fill="white" stroke="#666666" points="1341,-124.17 1217.75,-124.17 1217.75,-104.17 1341,-104.17 1341,-124.17"/>
<text text-anchor="middle" x="1279.38" y="-110.67" font-family="Helvetica,sans-Serif" font-size="10.00">JNIEnvManager::getEnv</text>
</a>
</g>
</g>
<!-- Node7&#45;&gt;Node9 -->
<g id="edge8_Node000007_Node000009" class="edge">
<title>Node7&#45;&gt;Node9</title>
<g id="a_edge8_Node000007_Node000009"><a xlink:title=" ">
<path fill="none" stroke="#63b8ff" d="M552.64,-138.21C616.65,-143.84 727.46,-152.17 822.75,-152.17 822.75,-152.17 822.75,-152.17 983.25,-152.17 1064.54,-152.17 1157.4,-137.81 1216.9,-126.75"/>
<polygon fill="#63b8ff" stroke="#63b8ff" points="1217.31,-130.23 1226.49,-124.93 1216.01,-123.35 1217.31,-130.23"/>
</a>
</g>
</g>
<!-- Node12 -->
<g id="Node000012" class="node">
<title>Node12</title>
<g id="a_Node000012"><a xlink:href="a00425.html#aa5f8d0ecd9dd392b491070aace643ae3" target="_top" xlink:title=" ">
<polygon fill="white" stroke="#666666" points="877.12,-124.17 770.38,-124.17 770.38,-104.17 877.12,-104.17 877.12,-124.17"/>
<text text-anchor="middle" x="823.75" y="-110.67" font-family="Helvetica,sans-Serif" font-size="10.00">LibLoader::jstring2str</text>
</a>
</g>
</g>
<!-- Node7&#45;&gt;Node12 -->
<g id="edge11_Node000007_Node000012" class="edge">
<title>Node7&#45;&gt;Node12</title>
<g id="a_edge11_Node000007_Node000012"><a xlink:title=" ">
<path fill="none" stroke="#63b8ff" d="M552.52,-130.05C608.97,-126.73 698.33,-121.48 758.68,-117.93"/>
<polygon fill="#63b8ff" stroke="#63b8ff" points="758.69,-121.44 768.46,-117.36 758.27,-114.45 758.69,-121.44"/>
</a>
</g>
</g>
<!-- Node14 -->
<g id="Node000014" class="node">
<title>Node14</title>
<g id="a_Node000014"><a xlink:href="a00425.html#a6a6fcd695791253a9b3a053d313b2b93" target="_top" xlink:title=" ">
<polygon fill="white" stroke="#666666" points="710.75,-64.17 604,-64.17 604,-44.17 710.75,-44.17 710.75,-64.17"/>
<text text-anchor="middle" x="657.38" y="-50.67" font-family="Helvetica,sans-Serif" font-size="10.00">LibLoader::str2jstring</text>
</a>
</g>
</g>
<!-- Node7&#45;&gt;Node14 -->
<g id="edge14_Node000007_Node000014" class="edge">
<title>Node7&#45;&gt;Node14</title>
<g id="a_edge14_Node000007_Node000014"><a xlink:title=" ">
<path fill="none" stroke="#63b8ff" d="M532,-116.8C559.58,-102.91 598.84,-83.14 625.84,-69.55"/>
<polygon fill="#63b8ff" stroke="#63b8ff" points="627.17,-72.79 634.53,-65.17 624.02,-66.54 627.17,-72.79"/>
</a>
</g>
</g>
<!-- Node10 -->
<g id="Node000010" class="node">
<title>Node10</title>
<g id="a_Node000010"><a xlink:href="a00260.html#a3d31403b7971274d47d308245206bd24" target="_top" xlink:title="为当前线程创建一个env.">
<polygon fill="white" stroke="#666666" points="1428.25,-124.17 1377,-124.17 1377,-104.17 1428.25,-104.17 1428.25,-124.17"/>
<text text-anchor="middle" x="1402.62" y="-110.67" font-family="Helvetica,sans-Serif" font-size="10.00">newEnv</text>
</a>
</g>
</g>
<!-- Node9&#45;&gt;Node10 -->
<g id="edge9_Node000009_Node000010" class="edge">
<title>Node9&#45;&gt;Node10</title>
<g id="a_edge9_Node000009_Node000010"><a xlink:title=" ">
<path fill="none" stroke="#63b8ff" d="M1341.36,-114.17C1349.56,-114.17 1357.76,-114.17 1365.34,-114.17"/>
<polygon fill="#63b8ff" stroke="#63b8ff" points="1365.16,-117.67 1375.16,-114.17 1365.16,-110.67 1365.16,-117.67"/>
</a>
</g>
</g>
<!-- Node11 -->
<g id="Node000011" class="node">
<title>Node11</title>
<g id="a_Node000011"><a xlink:href="a00840.html#ae0e482c6a813848a8f5d34957d1b6307" target="_top" xlink:title="获取全局JavaVM对象.">
<polygon fill="white" stroke="#666666" points="1591.25,-124.17 1464.25,-124.17 1464.25,-104.17 1591.25,-104.17 1591.25,-124.17"/>
<text text-anchor="middle" x="1527.75" y="-110.67" font-family="Helvetica,sans-Serif" font-size="10.00">JNIEnvManager::getGvm</text>
</a>
</g>
</g>
<!-- Node10&#45;&gt;Node11 -->
<g id="edge10_Node000010_Node000011" class="edge">
<title>Node10&#45;&gt;Node11</title>
<g id="a_edge10_Node000010_Node000011"><a xlink:title=" ">
<path fill="none" stroke="#63b8ff" d="M1428.54,-114.17C1435.72,-114.17 1443.95,-114.17 1452.52,-114.17"/>
<polygon fill="#63b8ff" stroke="#63b8ff" points="1452.41,-117.67 1462.41,-114.17 1452.41,-110.67 1452.41,-117.67"/>
</a>
</g>
</g>
<!-- Node13 -->
<g id="Node000013" class="node">
<title>Node13</title>
<g id="a_Node000013"><a xlink:href="a00430.html#a076c5f4ff8083c7cfc6523498d0ba30f" target="_top" xlink:title=" ">
<polygon fill="white" stroke="#666666" points="1181.75,-108.17 1079.5,-108.17 1079.5,-76.17 1181.75,-76.17 1181.75,-108.17"/>
<text text-anchor="start" x="1087.5" y="-94.67" font-family="Helvetica,sans-Serif" font-size="10.00">LibLoader::JNIEnvs</text>
<text text-anchor="middle" x="1130.62" y="-82.67" font-family="Helvetica,sans-Serif" font-size="10.00">::getEnv</text>
</a>
</g>
</g>
<!-- Node12&#45;&gt;Node13 -->
<g id="edge12_Node000012_Node000013" class="edge">
<title>Node12&#45;&gt;Node13</title>
<g id="a_edge12_Node000012_Node000013"><a xlink:title=" ">
<path fill="none" stroke="#63b8ff" d="M877.51,-110.36C930.44,-106.54 1011.94,-100.66 1067.86,-96.63"/>
<polygon fill="#63b8ff" stroke="#63b8ff" points="1067.8,-100.14 1077.52,-95.93 1067.3,-93.16 1067.8,-100.14"/>
</a>
</g>
</g>
<!-- Node13&#45;&gt;Node9 -->
<g id="edge13_Node000013_Node000009" class="edge">
<title>Node13&#45;&gt;Node9</title>
<g id="a_edge13_Node000013_Node000009"><a xlink:title=" ">
<path fill="none" stroke="#63b8ff" d="M1182.13,-99.74C1189.85,-100.9 1197.94,-102.11 1206.02,-103.32"/>
<polygon fill="#63b8ff" stroke="#63b8ff" points="1205.49,-106.78 1215.9,-104.8 1206.53,-99.86 1205.49,-106.78"/>
</a>
</g>
</g>
<!-- Node14&#45;&gt;Node13 -->
<g id="edge15_Node000014_Node000013" class="edge">
<title>Node14&#45;&gt;Node13</title>
<g id="a_edge15_Node000014_Node000013"><a xlink:title=" ">
<path fill="none" stroke="#63b8ff" d="M711.06,-58.42C798.79,-65.49 974.37,-79.65 1067.81,-87.18"/>
<polygon fill="#63b8ff" stroke="#63b8ff" points="1067.3,-90.65 1077.55,-87.97 1067.87,-83.68 1067.3,-90.65"/>
</a>
</g>
</g>
<!-- Node15 -->
<g id="Node000015" class="node">
<title>Node15</title>
<g id="a_Node000015"><a xlink:href="a00872.html#af50d0545fe7d683e54fcd03453a423e3" target="_top" xlink:title=" ">
<polygon fill="white" stroke="#666666" points="885,-48.17 762.5,-48.17 762.5,-16.17 885,-16.17 885,-48.17"/>
<text text-anchor="start" x="770.5" y="-34.67" font-family="Helvetica,sans-Serif" font-size="10.00">LibLoader::LoaderLogger</text>
<text text-anchor="middle" x="823.75" y="-22.67" font-family="Helvetica,sans-Serif" font-size="10.00">::warning</text>
</a>
</g>
</g>
<!-- Node14&#45;&gt;Node15 -->
<g id="edge16_Node000014_Node000015" class="edge">
<title>Node14&#45;&gt;Node15</title>
<g id="a_edge16_Node000014_Node000015"><a xlink:title=" ">
<path fill="none" stroke="#63b8ff" d="M710.84,-47.15C723.61,-45.44 737.49,-43.58 750.99,-41.77"/>
<polygon fill="#63b8ff" stroke="#63b8ff" points="751.25,-45.27 760.7,-40.47 750.33,-38.33 751.25,-45.27"/>
</a>
</g>
</g>
<!-- Node16 -->
<g id="Node000016" class="node">
<title>Node16</title>
<g id="a_Node000016"><a xlink:href="a00872.html#af4d7d5164450e25f7401d1cc15f15b8d" target="_top" xlink:title="实际暴露的接口">
<polygon fill="white" stroke="#666666" points="1043.5,-48.17 921,-48.17 921,-16.17 1043.5,-16.17 1043.5,-48.17"/>
<text text-anchor="start" x="929" y="-34.67" font-family="Helvetica,sans-Serif" font-size="10.00">LibLoader::LoaderLogger</text>
<text text-anchor="middle" x="982.25" y="-22.67" font-family="Helvetica,sans-Serif" font-size="10.00">::call_logger</text>
</a>
</g>
</g>
<!-- Node15&#45;&gt;Node16 -->
<g id="edge17_Node000015_Node000016" class="edge">
<title>Node15&#45;&gt;Node16</title>
<g id="a_edge17_Node000015_Node000016"><a xlink:title=" ">
<path fill="none" stroke="#63b8ff" d="M885.26,-32.17C893.15,-32.17 901.3,-32.17 909.35,-32.17"/>
<polygon fill="#63b8ff" stroke="#63b8ff" points="909.13,-35.67 919.13,-32.17 909.13,-28.67 909.13,-35.67"/>
</a>
</g>
</g>
<!-- Node16&#45;&gt;Node13 -->
<g id="edge18_Node000016_Node000013" class="edge">
<title>Node16&#45;&gt;Node13</title>
<g id="a_edge18_Node000016_Node000013"><a xlink:title=" ">
<path fill="none" stroke="#63b8ff" d="M1023.25,-48.56C1040.44,-55.61 1060.74,-63.93 1078.97,-71.4"/>
<polygon fill="#63b8ff" stroke="#63b8ff" points="1077.44,-74.56 1088.02,-75.11 1080.1,-68.08 1077.44,-74.56"/>
</a>
</g>
</g>
<!-- Node16&#45;&gt;Node14 -->
<g id="edge19_Node000016_Node000014" class="edge">
<title>Node16&#45;&gt;Node14</title>
<g id="a_edge19_Node000016_Node000014"><a xlink:title=" ">
<path fill="none" stroke="#63b8ff" d="M927.76,-15.71C913.96,-12.17 899.04,-8.96 885,-7.17 830.99,-0.27 815.73,4.29 762.5,-7.17 734.76,-13.14 705.51,-27.11 685.09,-38.28"/>
<polygon fill="#63b8ff" stroke="#63b8ff" points="683.59,-35.11 676.6,-43.07 687.03,-41.21 683.59,-35.11"/>
</a>
</g>
</g>
</g>
</svg>
