<?xml version="1.0" encoding="UTF-8" standalone="no"?>
<!DOCTYPE svg PUBLIC "-//W3C//DTD SVG 1.1//EN"
 "http://www.w3.org/Graphics/SVG/1.1/DTD/svg11.dtd">
<!-- Generated by graphviz version 2.50.0 (20211204.2007)
 -->
<!-- Title: MiraiCP::GroupData Pages: 1 -->
<svg width="562pt" height="1363pt"
 viewBox="0.00 0.00 561.50 1363.00" xmlns="http://www.w3.org/2000/svg" xmlns:xlink="http://www.w3.org/1999/xlink">
<g id="graph0" class="graph" transform="scale(1 1) rotate(0) translate(4 1359)">
<title>MiraiCP::GroupData</title>
<polygon fill="white" stroke="transparent" points="-4,4 -4,-1359 557.5,-1359 557.5,4 -4,4"/>
<!-- Node1 -->
<g id="node1" class="node">
<title>Node1</title>
<g id="a_node1"><a xlink:title=" ">
<polygon fill="#bfbfbf" stroke="black" points="317,-0.5 317,-178.5 454,-178.5 454,-0.5 317,-0.5"/>
<text text-anchor="middle" x="385.5" y="-166.5" font-family="Helvetica,sans-Serif" font-size="10.00">MiraiCP::GroupData</text>
<polyline fill="none" stroke="black" points="317,-159.5 454,-159.5 "/>
<text text-anchor="middle" x="385.5" y="-147.5" font-family="Helvetica,sans-Serif" font-size="10.00"> </text>
<polyline fill="none" stroke="black" points="317,-140.5 454,-140.5 "/>
<text text-anchor="start" x="325" y="-128.5" font-family="Helvetica,sans-Serif" font-size="10.00">+ GroupData(QQID in</text>
<text text-anchor="start" x="325" y="-117.5" font-family="Helvetica,sans-Serif" font-size="10.00">_groupid)</text>
<text text-anchor="start" x="325" y="-106.5" font-family="Helvetica,sans-Serif" font-size="10.00">+ void deserialize(nlohmann</text>
<text text-anchor="start" x="325" y="-95.5" font-family="Helvetica,sans-Serif" font-size="10.00">::json in_json) override</text>
<text text-anchor="start" x="325" y="-84.5" font-family="Helvetica,sans-Serif" font-size="10.00">+ void refreshInfo()</text>
<text text-anchor="start" x="325" y="-73.5" font-family="Helvetica,sans-Serif" font-size="10.00"> override</text>
<text text-anchor="start" x="325" y="-62.5" font-family="Helvetica,sans-Serif" font-size="10.00">+ GroupData(QQID in</text>
<text text-anchor="start" x="325" y="-51.5" font-family="Helvetica,sans-Serif" font-size="10.00">_groupid)</text>
<text text-anchor="start" x="325" y="-40.5" font-family="Helvetica,sans-Serif" font-size="10.00">+ void deserialize(nlohmann</text>
<text text-anchor="start" x="325" y="-29.5" font-family="Helvetica,sans-Serif" font-size="10.00">::json in_json) override</text>
<text text-anchor="start" x="325" y="-18.5" font-family="Helvetica,sans-Serif" font-size="10.00">+ void refreshInfo()</text>
<text text-anchor="start" x="325" y="-7.5" font-family="Helvetica,sans-Serif" font-size="10.00"> override</text>
</a>
</g>
</g>
<!-- Node2 -->
<g id="node2" class="node">
<title>Node2</title>
<g id="a_node2"><a xlink:href="a00440.html" target="_top" xlink:title=" ">
<polygon fill="white" stroke="black" points="317,-216.5 317,-350.5 454,-350.5 454,-216.5 317,-216.5"/>
<text text-anchor="middle" x="385.5" y="-338.5" font-family="Helvetica,sans-Serif" font-size="10.00">MiraiCP::GroupRelatedData</text>
<polyline fill="none" stroke="black" points="317,-331.5 454,-331.5 "/>
<text text-anchor="middle" x="385.5" y="-319.5" font-family="Helvetica,sans-Serif" font-size="10.00"> </text>
<polyline fill="none" stroke="black" points="317,-312.5 454,-312.5 "/>
<text text-anchor="start" x="325" y="-300.5" font-family="Helvetica,sans-Serif" font-size="10.00">+ nlohmann::json internalTo</text>
<text text-anchor="start" x="325" y="-289.5" font-family="Helvetica,sans-Serif" font-size="10.00">Json() const override</text>
<text text-anchor="start" x="325" y="-278.5" font-family="Helvetica,sans-Serif" font-size="10.00">+ GroupRelatedData(QQID</text>
<text text-anchor="start" x="325" y="-267.5" font-family="Helvetica,sans-Serif" font-size="10.00"> in_groupid)</text>
<text text-anchor="start" x="325" y="-256.5" font-family="Helvetica,sans-Serif" font-size="10.00">+ nlohmann::json internalTo</text>
<text text-anchor="start" x="325" y="-245.5" font-family="Helvetica,sans-Serif" font-size="10.00">Json() const override</text>
<text text-anchor="start" x="325" y="-234.5" font-family="Helvetica,sans-Serif" font-size="10.00">+ GroupRelatedData(QQID</text>
<text text-anchor="start" x="325" y="-223.5" font-family="Helvetica,sans-Serif" font-size="10.00"> in_groupid)</text>
</a>
</g>
</g>
<!-- Node2&#45;&gt;Node1 -->
<g id="edge1" class="edge">
<title>Node2&#45;&gt;Node1</title>
<path fill="none" stroke="midnightblue" d="M378.88,-206.32C378.76,-197.26 378.72,-187.95 378.77,-178.74"/>
<polygon fill="none" stroke="midnightblue" points="375.38,-206.49 379.05,-216.42 382.38,-206.37 375.38,-206.49"/>
</g>
<!-- Node2&#45;&gt;Node1 -->
<g id="edge13" class="edge">
<title>Node2&#45;&gt;Node1</title>
<path fill="none" stroke="midnightblue" d="M392.12,-206.32C392.24,-197.26 392.28,-187.95 392.23,-178.74"/>
<polygon fill="none" stroke="midnightblue" points="388.62,-206.37 391.95,-216.42 395.62,-206.49 388.62,-206.37"/>
</g>
<!-- Node3 -->
<g id="node3" class="node">
<title>Node3</title>
<g id="a_node3"><a xlink:href="a00436.html" target="_top" xlink:title="Contact 内部储存数据抽象类">
<polygon fill="white" stroke="black" points="315.5,-388.5 315.5,-610.5 455.5,-610.5 455.5,-388.5 315.5,-388.5"/>
<text text-anchor="middle" x="385.5" y="-598.5" font-family="Helvetica,sans-Serif" font-size="10.00">MiraiCP::IContactData</text>
<polyline fill="none" stroke="black" points="315.5,-591.5 455.5,-591.5 "/>
<text text-anchor="middle" x="385.5" y="-579.5" font-family="Helvetica,sans-Serif" font-size="10.00"> </text>
<polyline fill="none" stroke="black" points="315.5,-572.5 455.5,-572.5 "/>
<text text-anchor="start" x="323.5" y="-560.5" font-family="Helvetica,sans-Serif" font-size="10.00">+ void deserialize(nlohmann</text>
<text text-anchor="start" x="323.5" y="-549.5" font-family="Helvetica,sans-Serif" font-size="10.00">::json inJson) override</text>
<text text-anchor="start" x="323.5" y="-538.5" font-family="Helvetica,sans-Serif" font-size="10.00">+ nlohmann::json internalTo</text>
<text text-anchor="start" x="323.5" y="-527.5" font-family="Helvetica,sans-Serif" font-size="10.00">Json() const override</text>
<text text-anchor="start" x="323.5" y="-516.5" font-family="Helvetica,sans-Serif" font-size="10.00">+ void refreshInfo()</text>
<text text-anchor="start" x="323.5" y="-505.5" font-family="Helvetica,sans-Serif" font-size="10.00"> override</text>
<text text-anchor="start" x="323.5" y="-494.5" font-family="Helvetica,sans-Serif" font-size="10.00">+ void updateJson(nlohmann</text>
<text text-anchor="start" x="323.5" y="-483.5" font-family="Helvetica,sans-Serif" font-size="10.00">::json &amp;jsonToUpdate) const</text>
<text text-anchor="start" x="323.5" y="-472.5" font-family="Helvetica,sans-Serif" font-size="10.00">+ void deserialize(nlohmann</text>
<text text-anchor="start" x="323.5" y="-461.5" font-family="Helvetica,sans-Serif" font-size="10.00">::json inJson) override</text>
<text text-anchor="start" x="323.5" y="-450.5" font-family="Helvetica,sans-Serif" font-size="10.00">+ nlohmann::json internalTo</text>
<text text-anchor="start" x="323.5" y="-439.5" font-family="Helvetica,sans-Serif" font-size="10.00">Json() const override</text>
<text text-anchor="start" x="323.5" y="-428.5" font-family="Helvetica,sans-Serif" font-size="10.00">+ void refreshInfo()</text>
<text text-anchor="start" x="323.5" y="-417.5" font-family="Helvetica,sans-Serif" font-size="10.00"> override</text>
<text text-anchor="start" x="323.5" y="-406.5" font-family="Helvetica,sans-Serif" font-size="10.00">+ void updateJson(nlohmann</text>
<text text-anchor="start" x="323.5" y="-395.5" font-family="Helvetica,sans-Serif" font-size="10.00">::json &amp;jsonToUpdate) const</text>
</a>
</g>
</g>
<!-- Node3&#45;&gt;Node2 -->
<g id="edge2" class="edge">
<title>Node3&#45;&gt;Node2</title>
<path fill="none" stroke="midnightblue" d="M378.8,-378.11C378.86,-368.7 379,-359.42 379.21,-350.59"/>
<polygon fill="none" stroke="midnightblue" points="375.3,-378.35 378.75,-388.37 382.3,-378.38 375.3,-378.35"/>
</g>
<!-- Node3&#45;&gt;Node2 -->
<g id="edge11" class="edge">
<title>Node3&#45;&gt;Node2</title>
<path fill="none" stroke="midnightblue" d="M392.2,-378.11C392.14,-368.7 392,-359.42 391.79,-350.59"/>
<polygon fill="none" stroke="midnightblue" points="388.7,-378.38 392.25,-388.37 395.7,-378.35 388.7,-378.38"/>
</g>
<!-- Node4 -->
<g id="node4" class="node">
<title>Node4</title>
<g id="a_node4"><a xlink:href="a00680.html" target="_top" xlink:title="声明 Contact 类数据安全锁接口以及部分实现的抽象类">
<polygon fill="white" stroke="black" points="312.5,-691.5 312.5,-1133.5 458.5,-1133.5 458.5,-691.5 312.5,-691.5"/>
<text text-anchor="middle" x="385.5" y="-1121.5" font-family="Helvetica,sans-Serif" font-size="10.00">MiraiCP::IMiraiData</text>
<polyline fill="none" stroke="black" points="312.5,-1114.5 458.5,-1114.5 "/>
<text text-anchor="middle" x="385.5" y="-1102.5" font-family="Helvetica,sans-Serif" font-size="10.00"> </text>
<polyline fill="none" stroke="black" points="312.5,-1095.5 458.5,-1095.5 "/>
<text text-anchor="start" x="320.5" y="-1083.5" font-family="Helvetica,sans-Serif" font-size="10.00">+ IMiraiData()=default</text>
<text text-anchor="start" x="320.5" y="-1072.5" font-family="Helvetica,sans-Serif" font-size="10.00">+ virtual ~IMiraiData</text>
<text text-anchor="start" x="320.5" y="-1061.5" font-family="Helvetica,sans-Serif" font-size="10.00">()=default</text>
<text text-anchor="start" x="320.5" y="-1050.5" font-family="Helvetica,sans-Serif" font-size="10.00">+ nlohmann::json toJson</text>
<text text-anchor="start" x="320.5" y="-1039.5" font-family="Helvetica,sans-Serif" font-size="10.00">() const</text>
<text text-anchor="start" x="320.5" y="-1028.5" font-family="Helvetica,sans-Serif" font-size="10.00">+ void requestRefresh()</text>
<text text-anchor="start" x="320.5" y="-1017.5" font-family="Helvetica,sans-Serif" font-size="10.00">+ void forceRefreshNextTime()</text>
<text text-anchor="start" x="320.5" y="-1006.5" font-family="Helvetica,sans-Serif" font-size="10.00">+ std::string toString</text>
<text text-anchor="start" x="320.5" y="-995.5" font-family="Helvetica,sans-Serif" font-size="10.00">() const</text>
<text text-anchor="start" x="320.5" y="-984.5" font-family="Helvetica,sans-Serif" font-size="10.00">+ std::shared_mutex &amp;</text>
<text text-anchor="start" x="320.5" y="-973.5" font-family="Helvetica,sans-Serif" font-size="10.00"> getMutex()</text>
<text text-anchor="start" x="320.5" y="-962.5" font-family="Helvetica,sans-Serif" font-size="10.00">+ IMiraiData()=default</text>
<text text-anchor="start" x="320.5" y="-951.5" font-family="Helvetica,sans-Serif" font-size="10.00">+ virtual ~IMiraiData</text>
<text text-anchor="start" x="320.5" y="-940.5" font-family="Helvetica,sans-Serif" font-size="10.00">()=default</text>
<text text-anchor="start" x="320.5" y="-929.5" font-family="Helvetica,sans-Serif" font-size="10.00">+ nlohmann::json toJson</text>
<text text-anchor="start" x="320.5" y="-918.5" font-family="Helvetica,sans-Serif" font-size="10.00">() const</text>
<text text-anchor="start" x="320.5" y="-907.5" font-family="Helvetica,sans-Serif" font-size="10.00">+ void requestRefresh()</text>
<text text-anchor="start" x="320.5" y="-896.5" font-family="Helvetica,sans-Serif" font-size="10.00">+ void forceRefreshNextTime()</text>
<text text-anchor="start" x="320.5" y="-885.5" font-family="Helvetica,sans-Serif" font-size="10.00">+ std::string toString</text>
<text text-anchor="start" x="320.5" y="-874.5" font-family="Helvetica,sans-Serif" font-size="10.00">() const</text>
<text text-anchor="start" x="320.5" y="-863.5" font-family="Helvetica,sans-Serif" font-size="10.00">+ std::shared_mutex &amp;</text>
<text text-anchor="start" x="320.5" y="-852.5" font-family="Helvetica,sans-Serif" font-size="10.00"> getMutex()</text>
<text text-anchor="start" x="320.5" y="-841.5" font-family="Helvetica,sans-Serif" font-size="10.00"># virtual void deserialize</text>
<text text-anchor="start" x="320.5" y="-830.5" font-family="Helvetica,sans-Serif" font-size="10.00">(nlohmann::json in_json)=0</text>
<text text-anchor="start" x="320.5" y="-819.5" font-family="Helvetica,sans-Serif" font-size="10.00"># virtual nlohmann::json</text>
<text text-anchor="start" x="320.5" y="-808.5" font-family="Helvetica,sans-Serif" font-size="10.00"> internalToJson() const =0</text>
<text text-anchor="start" x="320.5" y="-797.5" font-family="Helvetica,sans-Serif" font-size="10.00"># nlohmann::json internalTo</text>
<text text-anchor="start" x="320.5" y="-786.5" font-family="Helvetica,sans-Serif" font-size="10.00">String() const</text>
<text text-anchor="start" x="320.5" y="-775.5" font-family="Helvetica,sans-Serif" font-size="10.00"># virtual void deserialize</text>
<text text-anchor="start" x="320.5" y="-764.5" font-family="Helvetica,sans-Serif" font-size="10.00">(nlohmann::json in_json)=0</text>
<text text-anchor="start" x="320.5" y="-753.5" font-family="Helvetica,sans-Serif" font-size="10.00"># virtual nlohmann::json</text>
<text text-anchor="start" x="320.5" y="-742.5" font-family="Helvetica,sans-Serif" font-size="10.00"> internalToJson() const =0</text>
<text text-anchor="start" x="320.5" y="-731.5" font-family="Helvetica,sans-Serif" font-size="10.00"># nlohmann::json internalTo</text>
<text text-anchor="start" x="320.5" y="-720.5" font-family="Helvetica,sans-Serif" font-size="10.00">String() const</text>
<text text-anchor="start" x="320.5" y="-709.5" font-family="Helvetica,sans-Serif" font-size="10.00">&#45; virtual void refreshInfo()=0</text>
<text text-anchor="start" x="320.5" y="-698.5" font-family="Helvetica,sans-Serif" font-size="10.00">&#45; virtual void refreshInfo()=0</text>
</a>
</g>
</g>
<!-- Node4&#45;&gt;Node3 -->
<g id="edge3" class="edge">
<title>Node4&#45;&gt;Node3</title>
<path fill="none" stroke="midnightblue" d="M378.79,-681.13C378.88,-656.69 379.1,-632.73 379.44,-610.65"/>
<polygon fill="none" stroke="midnightblue" points="375.29,-681.25 378.77,-691.26 382.29,-681.27 375.29,-681.25"/>
</g>
<!-- Node4&#45;&gt;Node3 -->
<g id="edge7" class="edge">
<title>Node4&#45;&gt;Node3</title>
<path fill="none" stroke="midnightblue" d="M392.21,-681.13C392.12,-656.69 391.9,-632.73 391.56,-610.65"/>
<polygon fill="none" stroke="midnightblue" points="388.71,-681.27 392.23,-691.26 395.71,-681.25 388.71,-681.27"/>
</g>
<!-- Node5 -->
<g id="node5" class="node">
<title>Node5</title>
<g id="a_node5"><a xlink:href="a00684.html" target="_top" xlink:title="锁">
<polygon fill="white" stroke="black" points="335,-1181.5 335,-1249.5 436,-1249.5 436,-1181.5 335,-1181.5"/>
<text text-anchor="start" x="343" y="-1237.5" font-family="Helvetica,sans-Serif" font-size="10.00">MiraiCP::IMiraiData</text>
<text text-anchor="middle" x="385.5" y="-1226.5" font-family="Helvetica,sans-Serif" font-size="10.00">::MiraiDataLocker</text>
<polyline fill="none" stroke="black" points="335,-1219.5 436,-1219.5 "/>
<text text-anchor="middle" x="385.5" y="-1207.5" font-family="Helvetica,sans-Serif" font-size="10.00"> </text>
<polyline fill="none" stroke="black" points="335,-1200.5 436,-1200.5 "/>
<text text-anchor="middle" x="385.5" y="-1188.5" font-family="Helvetica,sans-Serif" font-size="10.00"> </text>
</a>
</g>
</g>
<!-- Node5&#45;&gt;Node4 -->
<g id="edge4" class="edge">
<title>Node5&#45;&gt;Node4</title>
<path fill="none" stroke="#404040" d="M385.5,-1181.43C385.5,-1171.21 385.5,-1159.09 385.5,-1145.73"/>
<polygon fill="none" stroke="#404040" points="385.5,-1145.7 381.5,-1139.7 385.5,-1133.7 389.5,-1139.7 385.5,-1145.7"/>
<text text-anchor="middle" x="404.5" y="-1155" font-family="Helvetica,sans-Serif" font-size="10.00"> #Locker</text>
</g>
<!-- Node6 -->
<g id="node6" class="node">
<title>Node6</title>
<g id="a_node6"><a xlink:title=" ">
<polygon fill="white" stroke="#bfbfbf" points="305.5,-1297.5 305.5,-1354.5 383.5,-1354.5 383.5,-1297.5 305.5,-1297.5"/>
<text text-anchor="middle" x="344.5" y="-1342.5" font-family="Helvetica,sans-Serif" font-size="10.00">shared_mutex</text>
<polyline fill="none" stroke="#bfbfbf" points="305.5,-1335.5 383.5,-1335.5 "/>
<text text-anchor="middle" x="344.5" y="-1323.5" font-family="Helvetica,sans-Serif" font-size="10.00"> </text>
<polyline fill="none" stroke="#bfbfbf" points="305.5,-1316.5 383.5,-1316.5 "/>
<text text-anchor="middle" x="344.5" y="-1304.5" font-family="Helvetica,sans-Serif" font-size="10.00"> </text>
</a>
</g>
</g>
<!-- Node6&#45;&gt;Node5 -->
<g id="edge5" class="edge">
<title>Node6&#45;&gt;Node5</title>
<path fill="none" stroke="#404040" d="M354.95,-1297.34C359.12,-1286.3 364.03,-1273.31 368.68,-1261.01"/>
<polygon fill="none" stroke="#404040" points="368.78,-1260.74 367.16,-1253.72 373.02,-1249.52 374.64,-1256.55 368.78,-1260.74"/>
<text text-anchor="middle" x="380" y="-1271" font-family="Helvetica,sans-Serif" font-size="10.00"> +_mtx</text>
</g>
<!-- Node7 -->
<g id="node7" class="node">
<title>Node7</title>
<g id="a_node7"><a xlink:title=" ">
<polygon fill="white" stroke="#bfbfbf" points="401.5,-1297.5 401.5,-1354.5 453.5,-1354.5 453.5,-1297.5 401.5,-1297.5"/>
<text text-anchor="middle" x="427.5" y="-1342.5" font-family="Helvetica,sans-Serif" font-size="10.00">atomic&lt;</text>
<polyline fill="none" stroke="#bfbfbf" points="401.5,-1335.5 453.5,-1335.5 "/>
<text text-anchor="middle" x="427.5" y="-1323.5" font-family="Helvetica,sans-Serif" font-size="10.00"> </text>
<polyline fill="none" stroke="#bfbfbf" points="401.5,-1316.5 453.5,-1316.5 "/>
<text text-anchor="middle" x="427.5" y="-1304.5" font-family="Helvetica,sans-Serif" font-size="10.00"> </text>
</a>
</g>
</g>
<!-- Node7&#45;&gt;Node5 -->
<g id="edge6" class="edge">
<title>Node7&#45;&gt;Node5</title>
<path fill="none" stroke="#404040" d="M416.79,-1297.34C412.52,-1286.3 407.49,-1273.31 402.73,-1261.01"/>
<polygon fill="none" stroke="#404040" points="402.61,-1260.71 396.72,-1256.56 398.28,-1249.52 404.18,-1253.67 402.61,-1260.71"/>
<text text-anchor="middle" x="427.5" y="-1271" font-family="Helvetica,sans-Serif" font-size="10.00"> +_inited</text>
</g>
<!-- Node8 -->
<g id="node8" class="node">
<title>Node8</title>
<g id="a_node8"><a xlink:title=" ">
<polygon fill="white" stroke="#bfbfbf" points="152,-884 152,-941 193,-941 193,-884 152,-884"/>
<text text-anchor="middle" x="172.5" y="-929" font-family="Helvetica,sans-Serif" font-size="10.00">string</text>
<polyline fill="none" stroke="#bfbfbf" points="152,-922 193,-922 "/>
<text text-anchor="middle" x="172.5" y="-910" font-family="Helvetica,sans-Serif" font-size="10.00"> </text>
<polyline fill="none" stroke="#bfbfbf" points="152,-903 193,-903 "/>
<text text-anchor="middle" x="172.5" y="-891" font-family="Helvetica,sans-Serif" font-size="10.00"> </text>
</a>
</g>
</g>
<!-- Node8&#45;&gt;Node3 -->
<g id="edge8" class="edge">
<title>Node8&#45;&gt;Node3</title>
<path fill="none" stroke="#404040" d="M170.86,-883.98C168.96,-830.74 171.11,-711.63 220.5,-629 240.92,-594.83 274.11,-566.36 305.39,-544.98"/>
<polygon fill="none" stroke="#404040" points="305.47,-544.92 308.25,-538.27 315.46,-538.28 312.68,-544.94 305.47,-544.92"/>
<text text-anchor="middle" x="263.5" y="-654" font-family="Helvetica,sans-Serif" font-size="10.00"> +_avatarUrl</text>
<text text-anchor="middle" x="263.5" y="-643" font-family="Helvetica,sans-Serif" font-size="10.00">+_nickOrNameCard</text>
</g>
<!-- Node11 -->
<g id="node11" class="node">
<title>Node11</title>
<g id="a_node11"><a xlink:href="a00660.html" target="_top" xlink:title=" ">
<polygon fill="white" stroke="black" points="109.5,-465.5 109.5,-533.5 213.5,-533.5 213.5,-465.5 109.5,-465.5"/>
<text text-anchor="start" x="117.5" y="-521.5" font-family="Helvetica,sans-Serif" font-size="10.00">MiraiCP::GroupData</text>
<text text-anchor="middle" x="161.5" y="-510.5" font-family="Helvetica,sans-Serif" font-size="10.00">::GroupSetting</text>
<polyline fill="none" stroke="black" points="109.5,-503.5 213.5,-503.5 "/>
<text text-anchor="middle" x="161.5" y="-491.5" font-family="Helvetica,sans-Serif" font-size="10.00"> </text>
<polyline fill="none" stroke="black" points="109.5,-484.5 213.5,-484.5 "/>
<text text-anchor="middle" x="161.5" y="-472.5" font-family="Helvetica,sans-Serif" font-size="10.00"> </text>
</a>
</g>
</g>
<!-- Node8&#45;&gt;Node11 -->
<g id="edge15" class="edge">
<title>Node8&#45;&gt;Node11</title>
<path fill="none" stroke="#404040" d="M171.02,-883.97C168.71,-839.58 164.32,-749.44 162.5,-673 161.47,-629.8 161.28,-580.5 161.32,-545.7"/>
<polygon fill="none" stroke="#404040" points="161.32,-545.57 157.33,-539.57 161.34,-533.57 165.33,-539.58 161.32,-545.57"/>
<text text-anchor="middle" x="179.5" y="-648.5" font-family="Helvetica,sans-Serif" font-size="10.00"> +name</text>
</g>
<!-- Node9 -->
<g id="node9" class="node">
<title>Node9</title>
<g id="a_node9"><a xlink:title=" ">
<polygon fill="white" stroke="#bfbfbf" points="477,-884 477,-941 512,-941 512,-884 477,-884"/>
<text text-anchor="middle" x="494.5" y="-929" font-family="Helvetica,sans-Serif" font-size="10.00">long</text>
<polyline fill="none" stroke="#bfbfbf" points="477,-922 512,-922 "/>
<text text-anchor="middle" x="494.5" y="-910" font-family="Helvetica,sans-Serif" font-size="10.00"> </text>
<polyline fill="none" stroke="#bfbfbf" points="477,-903 512,-903 "/>
<text text-anchor="middle" x="494.5" y="-891" font-family="Helvetica,sans-Serif" font-size="10.00"> </text>
</a>
</g>
</g>
<!-- Node9&#45;&gt;Node2 -->
<g id="edge12" class="edge">
<title>Node9&#45;&gt;Node2</title>
<path fill="none" stroke="#404040" d="M498.45,-883.93C508.75,-804.07 531.24,-566.9 464.5,-388 461.07,-378.82 456.54,-369.77 451.38,-361.09"/>
<polygon fill="none" stroke="#404040" points="451.21,-360.82 444.62,-357.89 444.79,-350.68 451.38,-353.61 451.21,-360.82"/>
<text text-anchor="middle" x="530.5" y="-497" font-family="Helvetica,sans-Serif" font-size="10.00"> +_groupId</text>
</g>
<!-- Node9&#45;&gt;Node3 -->
<g id="edge9" class="edge">
<title>Node9&#45;&gt;Node3</title>
<path fill="none" stroke="#404040" d="M497.7,-883.92C501.43,-839.93 503.14,-752.59 467.5,-691 460.82,-679.46 451.31,-683.81 443.5,-673 432.39,-657.63 423.3,-639.97 415.89,-621.96"/>
<polygon fill="none" stroke="#404040" points="415.87,-621.89 409.96,-617.76 411.5,-610.71 417.41,-614.85 415.87,-621.89"/>
<text text-anchor="middle" x="461.5" y="-654" font-family="Helvetica,sans-Serif" font-size="10.00"> +_botId</text>
<text text-anchor="middle" x="461.5" y="-643" font-family="Helvetica,sans-Serif" font-size="10.00">+_id</text>
</g>
<!-- Node10 -->
<g id="node10" class="node">
<title>Node10</title>
<g id="a_node10"><a xlink:title=" ">
<polygon fill="white" stroke="#bfbfbf" points="223,-884 223,-941 294,-941 294,-884 223,-884"/>
<text text-anchor="middle" x="258.5" y="-929" font-family="Helvetica,sans-Serif" font-size="10.00">ContactType</text>
<polyline fill="none" stroke="#bfbfbf" points="223,-922 294,-922 "/>
<text text-anchor="middle" x="258.5" y="-910" font-family="Helvetica,sans-Serif" font-size="10.00"> </text>
<polyline fill="none" stroke="#bfbfbf" points="223,-903 294,-903 "/>
<text text-anchor="middle" x="258.5" y="-891" font-family="Helvetica,sans-Serif" font-size="10.00"> </text>
</a>
</g>
</g>
<!-- Node10&#45;&gt;Node3 -->
<g id="edge10" class="edge">
<title>Node10&#45;&gt;Node3</title>
<path fill="none" stroke="#404040" d="M262.27,-883.89C268.45,-841.67 282.22,-758.85 303.5,-691 310.62,-668.3 319.53,-644.62 328.83,-621.98"/>
<polygon fill="none" stroke="#404040" points="328.95,-621.69 327.57,-614.61 333.57,-610.61 334.95,-617.69 328.95,-621.69"/>
<text text-anchor="middle" x="341.5" y="-648.5" font-family="Helvetica,sans-Serif" font-size="10.00"> +_type</text>
</g>
<!-- Node11&#45;&gt;Node1 -->
<g id="edge14" class="edge">
<title>Node11&#45;&gt;Node1</title>
<path fill="none" stroke="#404040" d="M168.85,-465.16C181.99,-410.17 213.06,-298.35 264.5,-216 276.72,-196.44 292.39,-177.4 308.37,-160.31"/>
<polygon fill="none" stroke="#404040" points="308.45,-160.23 309.7,-153.13 316.74,-151.55 315.48,-158.65 308.45,-160.23"/>
<text text-anchor="middle" x="286.5" y="-281" font-family="Helvetica,sans-Serif" font-size="10.00"> +_setting</text>
</g>
<!-- Node12 -->
<g id="node12" class="node">
<title>Node12</title>
<g id="a_node12"><a xlink:title=" ">
<polygon fill="white" stroke="#bfbfbf" points="0,-884 0,-941 35,-941 35,-884 0,-884"/>
<text text-anchor="middle" x="17.5" y="-929" font-family="Helvetica,sans-Serif" font-size="10.00">bool</text>
<polyline fill="none" stroke="#bfbfbf" points="0,-922 35,-922 "/>
<text text-anchor="middle" x="17.5" y="-910" font-family="Helvetica,sans-Serif" font-size="10.00"> </text>
<polyline fill="none" stroke="#bfbfbf" points="0,-903 35,-903 "/>
<text text-anchor="middle" x="17.5" y="-891" font-family="Helvetica,sans-Serif" font-size="10.00"> </text>
</a>
</g>
</g>
<!-- Node12&#45;&gt;Node11 -->
<g id="edge16" class="edge">
<title>Node12&#45;&gt;Node11</title>
<path fill="none" stroke="#404040" d="M13.47,-883.94C7.08,-831.63 -1.02,-715.46 37.5,-629 52.73,-594.82 81.15,-564.31 106.95,-541.61"/>
<polygon fill="none" stroke="#404040" points="107.19,-541.41 109.15,-534.47 116.31,-533.6 114.35,-540.54 107.19,-541.41"/>
<text text-anchor="middle" x="98" y="-665" font-family="Helvetica,sans-Serif" font-size="10.00"> +isAllowMemberInvite</text>
<text text-anchor="middle" x="98" y="-654" font-family="Helvetica,sans-Serif" font-size="10.00">+isAnonymousChatEnabled</text>
<text text-anchor="middle" x="98" y="-643" font-family="Helvetica,sans-Serif" font-size="10.00">+isAutoApproveEnabled</text>
<text text-anchor="middle" x="98" y="-632" font-family="Helvetica,sans-Serif" font-size="10.00">+isMuteAll</text>
</g>
</g>
</svg>
