<?xml version="1.0" encoding="UTF-8" standalone="no"?>
<!DOCTYPE svg PUBLIC "-//W3C//DTD SVG 1.1//EN"
 "http://www.w3.org/Graphics/SVG/1.1/DTD/svg11.dtd">
<!-- Generated by graphviz version 2.50.0 (20211204.2007)
 -->
<!-- Title: MiraiCP::MessageChain::deserializationFromMessageJson Pages: 1 -->
<svg width="561pt" height="302pt"
 viewBox="0.00 0.00 561.00 302.00" xmlns="http://www.w3.org/2000/svg" xmlns:xlink="http://www.w3.org/1999/xlink">
<g id="graph0" class="graph" transform="scale(1 1) rotate(0) translate(4 298)">
<title>MiraiCP::MessageChain::deserializationFromMessageJson</title>
<polygon fill="white" stroke="transparent" points="-4,4 -4,-298 557,-298 557,4 -4,4"/>
<!-- Node1 -->
<g id="node1" class="node">
<title>Node1</title>
<g id="a_node1"><a xlink:title=" ">
<polygon fill="#bfbfbf" stroke="black" points="386,-147.5 386,-177.5 553,-177.5 553,-147.5 386,-147.5"/>
<text text-anchor="start" x="394" y="-165.5" font-family="Helvetica,sans-Serif" font-size="10.00">MiraiCP::MessageChain</text>
<text text-anchor="middle" x="469.5" y="-154.5" font-family="Helvetica,sans-Serif" font-size="10.00">::deserializationFromMessageJson</text>
</a>
</g>
</g>
<!-- Node2 -->
<g id="node2" class="node">
<title>Node2</title>
<g id="a_node2"><a xlink:href="a00584.html#ac802edcd83cf04abe4cc602c901a933f" target="_top" xlink:title=" ">
<polygon fill="white" stroke="black" points="183,-245.5 183,-275.5 350,-275.5 350,-245.5 183,-245.5"/>
<text text-anchor="start" x="191" y="-263.5" font-family="Helvetica,sans-Serif" font-size="10.00">MiraiCP::ForwardedMessage</text>
<text text-anchor="middle" x="266.5" y="-252.5" font-family="Helvetica,sans-Serif" font-size="10.00">::deserializationFromMessageJson</text>
</a>
</g>
</g>
<!-- Node1&#45;&gt;Node2 -->
<g id="edge1" class="edge">
<title>Node1&#45;&gt;Node2</title>
<path fill="none" stroke="midnightblue" d="M429.1,-183C406.74,-197.08 377.75,-215.08 350,-227.5 333.66,-234.81 314.51,-240.54 298.78,-245.49"/>
<polygon fill="midnightblue" stroke="midnightblue" points="431.04,-185.92 437.64,-177.62 427.31,-179.99 431.04,-185.92"/>
</g>
<!-- Node3 -->
<g id="node3" class="node">
<title>Node3</title>
<g id="a_node3"><a xlink:href="a00636.html#a682d6d47c049ff53477d495a8ec3a97c" target="_top" xlink:title="从miraicode string构建MessageChain">
<polygon fill="white" stroke="black" points="191,-196.5 191,-226.5 342,-226.5 342,-196.5 191,-196.5"/>
<text text-anchor="start" x="199" y="-214.5" font-family="Helvetica,sans-Serif" font-size="10.00">MiraiCP::MessageChain</text>
<text text-anchor="middle" x="266.5" y="-203.5" font-family="Helvetica,sans-Serif" font-size="10.00">::deserializationFromMiraiCode</text>
</a>
</g>
</g>
<!-- Node1&#45;&gt;Node3 -->
<g id="edge4" class="edge">
<title>Node1&#45;&gt;Node3</title>
<path fill="none" stroke="midnightblue" d="M397.11,-179.9C374.87,-185.32 350.56,-191.25 329.06,-196.49"/>
<polygon fill="midnightblue" stroke="midnightblue" points="397.94,-183.3 406.83,-177.53 396.28,-176.5 397.94,-183.3"/>
</g>
<!-- Node6 -->
<g id="node6" class="node">
<title>Node6</title>
<g id="a_node6"><a xlink:href="a00468.html#aca8d122b5ac259f28f372f02cdd38930" target="_top" xlink:title=" ">
<polygon fill="white" stroke="black" points="203.5,-147.5 203.5,-177.5 329.5,-177.5 329.5,-147.5 203.5,-147.5"/>
<text text-anchor="start" x="211.5" y="-165.5" font-family="Helvetica,sans-Serif" font-size="10.00">MiraiCP::Event::incoming</text>
<text text-anchor="middle" x="266.5" y="-154.5" font-family="Helvetica,sans-Serif" font-size="10.00">Event</text>
</a>
</g>
</g>
<!-- Node1&#45;&gt;Node6 -->
<g id="edge7" class="edge">
<title>Node1&#45;&gt;Node6</title>
<path fill="none" stroke="midnightblue" d="M375.65,-162.5C360.01,-162.5 344.13,-162.5 329.52,-162.5"/>
<polygon fill="midnightblue" stroke="midnightblue" points="375.88,-166 385.88,-162.5 375.88,-159 375.88,-166"/>
</g>
<!-- Node7 -->
<g id="node7" class="node">
<title>Node7</title>
<g id="a_node7"><a xlink:href="a00516.html#addb043788194a8bffd2eeddff17080ef" target="_top" xlink:title="取群聊下一个消息(群聊与本事件一样)">
<polygon fill="white" stroke="black" points="193,-98.5 193,-128.5 340,-128.5 340,-98.5 193,-98.5"/>
<text text-anchor="start" x="201" y="-116.5" font-family="Helvetica,sans-Serif" font-size="10.00">MiraiCP::GroupMessageEvent</text>
<text text-anchor="middle" x="266.5" y="-105.5" font-family="Helvetica,sans-Serif" font-size="10.00">::nextMessage</text>
</a>
</g>
</g>
<!-- Node1&#45;&gt;Node7 -->
<g id="edge8" class="edge">
<title>Node1&#45;&gt;Node7</title>
<path fill="none" stroke="midnightblue" d="M397.11,-145.1C374.87,-139.68 350.56,-133.75 329.06,-128.51"/>
<polygon fill="midnightblue" stroke="midnightblue" points="396.28,-148.5 406.83,-147.47 397.94,-141.7 396.28,-148.5"/>
</g>
<!-- Node8 -->
<g id="node8" class="node">
<title>Node8</title>
<g id="a_node8"><a xlink:href="a00556.html#a2fadddd37811d8dcbf7183d98eba3034" target="_top" xlink:title="取下一个消息(发送人和接收人和本事件一样)">
<polygon fill="white" stroke="black" points="191.5,-49.5 191.5,-79.5 341.5,-79.5 341.5,-49.5 191.5,-49.5"/>
<text text-anchor="start" x="199.5" y="-67.5" font-family="Helvetica,sans-Serif" font-size="10.00">MiraiCP::PrivateMessageEvent</text>
<text text-anchor="middle" x="266.5" y="-56.5" font-family="Helvetica,sans-Serif" font-size="10.00">::nextMessage</text>
</a>
</g>
</g>
<!-- Node1&#45;&gt;Node8 -->
<g id="edge9" class="edge">
<title>Node1&#45;&gt;Node8</title>
<path fill="none" stroke="midnightblue" d="M439.72,-141.37C416.47,-125.09 382.39,-102.99 350,-88.5 342.65,-85.21 334.73,-82.24 326.8,-79.6"/>
<polygon fill="midnightblue" stroke="midnightblue" points="437.89,-144.36 448.07,-147.29 441.94,-138.65 437.89,-144.36"/>
</g>
<!-- Node9 -->
<g id="node9" class="node">
<title>Node9</title>
<g id="a_node9"><a xlink:href="a00516.html#a67d98fb7d7214cb2bc916da47e3e5ce3" target="_top" xlink:title="取群聊中同群成员的下一个消息(发送人和群与本事件一样)">
<polygon fill="white" stroke="black" points="193,-0.5 193,-30.5 340,-30.5 340,-0.5 193,-0.5"/>
<text text-anchor="start" x="201" y="-18.5" font-family="Helvetica,sans-Serif" font-size="10.00">MiraiCP::GroupMessageEvent</text>
<text text-anchor="middle" x="266.5" y="-7.5" font-family="Helvetica,sans-Serif" font-size="10.00">::senderNextMessage</text>
</a>
</g>
</g>
<!-- Node1&#45;&gt;Node9 -->
<g id="edge10" class="edge">
<title>Node1&#45;&gt;Node9</title>
<path fill="none" stroke="midnightblue" d="M451.84,-138.83C431.08,-111.06 393.05,-65.52 350,-39.5 344.38,-36.11 338.26,-33.17 331.97,-30.63"/>
<polygon fill="midnightblue" stroke="midnightblue" points="449.22,-141.18 457.96,-147.18 454.87,-137.04 449.22,-141.18"/>
</g>
<!-- Node2&#45;&gt;Node1 -->
<g id="edge3" class="edge">
<title>Node2&#45;&gt;Node1</title>
<path fill="none" stroke="midnightblue" d="M359.6,-241.01C397.62,-222.5 436.24,-195.22 455.66,-177.79"/>
<polygon fill="midnightblue" stroke="midnightblue" points="358.05,-237.87 350.48,-245.28 361.02,-244.21 358.05,-237.87"/>
</g>
<!-- Node2&#45;&gt;Node2 -->
<g id="edge2" class="edge">
<title>Node2&#45;&gt;Node2</title>
<path fill="none" stroke="midnightblue" d="M300.62,-285.96C296.38,-290.68 285.01,-294 266.5,-294 236.12,-294 224.97,-285.06 233.04,-275.66"/>
<polygon fill="midnightblue" stroke="midnightblue" points="304.09,-285.42 299.96,-275.66 297.1,-285.86 304.09,-285.42"/>
</g>
<!-- Node4 -->
<g id="node4" class="node">
<title>Node4</title>
<g id="a_node4"><a xlink:href="a00636.html#ae6f7253c754243afaa831cf42034c1bd" target="_top" xlink:title=" ">
<polygon fill="white" stroke="black" points="12.5,-218.5 12.5,-248.5 134.5,-248.5 134.5,-218.5 12.5,-218.5"/>
<text text-anchor="start" x="20.5" y="-236.5" font-family="Helvetica,sans-Serif" font-size="10.00">MiraiCP::MessageChain</text>
<text text-anchor="middle" x="73.5" y="-225.5" font-family="Helvetica,sans-Serif" font-size="10.00">::constructMessages</text>
</a>
</g>
</g>
<!-- Node3&#45;&gt;Node4 -->
<g id="edge5" class="edge">
<title>Node3&#45;&gt;Node4</title>
<path fill="none" stroke="midnightblue" d="M180.7,-221.27C165.18,-223.06 149.27,-224.89 134.65,-226.57"/>
<polygon fill="midnightblue" stroke="midnightblue" points="181.3,-224.72 190.83,-220.1 180.5,-217.77 181.3,-224.72"/>
</g>
<!-- Node5 -->
<g id="node5" class="node">
<title>Node5</title>
<g id="a_node5"><a xlink:href="a00448.html#a41f4d0ce7bdaaa02e29f59128053b47b" target="_top" xlink:title=" ">
<polygon fill="white" stroke="black" points="0,-180 0,-199 147,-199 147,-180 0,-180"/>
<text text-anchor="middle" x="73.5" y="-187" font-family="Helvetica,sans-Serif" font-size="10.00">MiraiCP::Contact::unpackMsg</text>
</a>
</g>
</g>
<!-- Node3&#45;&gt;Node5 -->
<g id="edge6" class="edge">
<title>Node3&#45;&gt;Node5</title>
<path fill="none" stroke="midnightblue" d="M180.66,-201.73C169.51,-200.44 158.16,-199.14 147.24,-197.88"/>
<polygon fill="midnightblue" stroke="midnightblue" points="180.5,-205.23 190.83,-202.9 181.3,-198.28 180.5,-205.23"/>
</g>
</g>
</svg>
