<?xml version="1.0" encoding="UTF-8" standalone="no"?>
<!DOCTYPE svg PUBLIC "-//W3C//DTD SVG 1.1//EN"
 "http://www.w3.org/Graphics/SVG/1.1/DTD/svg11.dtd">
<!-- Generated by graphviz version 2.50.0 (20211204.2007)
 -->
<!-- Title: MiraiCP::Member::modifyAdmin Pages: 1 -->
<svg width="1662pt" height="220pt"
 viewBox="0.00 0.00 1662.00 219.76" xmlns="http://www.w3.org/2000/svg" xmlns:xlink="http://www.w3.org/1999/xlink">
<g id="graph0" class="graph" transform="scale(1 1) rotate(0) translate(4 215.76)">
<title>MiraiCP::Member::modifyAdmin</title>
<polygon fill="white" stroke="transparent" points="-4,4 -4,-215.76 1658,-215.76 1658,4 -4,4"/>
<!-- Node1 -->
<g id="node1" class="node">
<title>Node1</title>
<g id="a_node1"><a xlink:title="更改群成员权限">
<polygon fill="#bfbfbf" stroke="black" points="0,-123.76 0,-142.76 155,-142.76 155,-123.76 0,-123.76"/>
<text text-anchor="middle" x="77.5" y="-130.76" font-family="Helvetica,sans-Serif" font-size="10.00">MiraiCP::Member::modifyAdmin</text>
</a>
</g>
</g>
<!-- Node2 -->
<g id="node2" class="node">
<title>Node2</title>
<g id="a_node2"><a xlink:href="a00448.html#aa6f2fbe2c5897a59431fe891e3ed1072" target="_top" xlink:title="强制下次 refreshInfo() 调用时刷新数据">
<polygon fill="white" stroke="black" points="191,-167.26 191,-197.26 342,-197.26 342,-167.26 191,-167.26"/>
<text text-anchor="start" x="199" y="-185.26" font-family="Helvetica,sans-Serif" font-size="10.00">MiraiCP::Contact::forceRefresh</text>
<text text-anchor="middle" x="266.5" y="-174.26" font-family="Helvetica,sans-Serif" font-size="10.00">NextTime</text>
</a>
</g>
</g>
<!-- Node1&#45;&gt;Node2 -->
<g id="edge1" class="edge">
<title>Node1&#45;&gt;Node2</title>
<path fill="none" stroke="midnightblue" d="M115,-142.83C138.67,-149.03 170.23,-157.3 198.34,-164.66"/>
<polygon fill="midnightblue" stroke="midnightblue" points="197.55,-168.08 208.11,-167.22 199.33,-161.3 197.55,-168.08"/>
</g>
<!-- Node3 -->
<g id="node3" class="node">
<title>Node3</title>
<g id="a_node3"><a xlink:href="a00415.html#a309e8d7f316e8b5e947ea3bcddeb84a8" target="_top" xlink:title="调用 Mirai 操作">
<polygon fill="white" stroke="black" points="212,-118.26 212,-148.26 321,-148.26 321,-118.26 212,-118.26"/>
<text text-anchor="start" x="220" y="-136.26" font-family="Helvetica,sans-Serif" font-size="10.00">MiraiCP::KtOperation</text>
<text text-anchor="middle" x="266.5" y="-125.26" font-family="Helvetica,sans-Serif" font-size="10.00">::ktOperation</text>
</a>
</g>
</g>
<!-- Node1&#45;&gt;Node3 -->
<g id="edge2" class="edge">
<title>Node1&#45;&gt;Node3</title>
<path fill="none" stroke="midnightblue" d="M155.1,-133.26C170.59,-133.26 186.72,-133.26 201.71,-133.26"/>
<polygon fill="midnightblue" stroke="midnightblue" points="201.88,-136.76 211.88,-133.26 201.88,-129.76 201.88,-136.76"/>
</g>
<!-- Node15 -->
<g id="node15" class="node">
<title>Node15</title>
<g id="a_node15"><a xlink:href="a00448.html#a89fb588a12ff2d4de10722788945ea55" target="_top" xlink:title="序列化到json对象">
<polygon fill="white" stroke="black" points="204,-79.76 204,-98.76 329,-98.76 329,-79.76 204,-79.76"/>
<text text-anchor="middle" x="266.5" y="-86.76" font-family="Helvetica,sans-Serif" font-size="10.00">MiraiCP::Contact::toJson</text>
</a>
</g>
</g>
<!-- Node1&#45;&gt;Node15 -->
<g id="edge18" class="edge">
<title>Node1&#45;&gt;Node15</title>
<path fill="none" stroke="midnightblue" d="M119.08,-123.71C147.26,-117.08 185,-108.2 215.11,-101.12"/>
<polygon fill="midnightblue" stroke="midnightblue" points="216.07,-104.49 225,-98.79 214.47,-97.67 216.07,-104.49"/>
</g>
<!-- Node4 -->
<g id="node4" class="node">
<title>Node4</title>
<g id="a_node4"><a xlink:href="a00415.html#a1e1e498928eeaa1d7107033ff5fa881a" target="_top" xlink:title="调用 Mirai 操作">
<polygon fill="white" stroke="black" points="378,-118.26 378,-148.26 487,-148.26 487,-118.26 378,-118.26"/>
<text text-anchor="start" x="386" y="-136.26" font-family="Helvetica,sans-Serif" font-size="10.00">MiraiCP::KtOperation</text>
<text text-anchor="middle" x="432.5" y="-125.26" font-family="Helvetica,sans-Serif" font-size="10.00">::ktOperationStr</text>
</a>
</g>
</g>
<!-- Node3&#45;&gt;Node4 -->
<g id="edge3" class="edge">
<title>Node3&#45;&gt;Node4</title>
<path fill="none" stroke="midnightblue" d="M321.2,-133.26C336,-133.26 352.2,-133.26 367.52,-133.26"/>
<polygon fill="midnightblue" stroke="midnightblue" points="367.96,-136.76 377.96,-133.26 367.96,-129.76 367.96,-136.76"/>
</g>
<!-- Node5 -->
<g id="node5" class="node">
<title>Node5</title>
<g id="a_node5"><a xlink:href="a00408.html#a4c6ac4cf4ba5ff0adb7656708bbb67d0" target="_top" xlink:title="interfaces for plugins">
<polygon fill="white" stroke="black" points="523,-118.26 523,-148.26 631,-148.26 631,-118.26 523,-118.26"/>
<text text-anchor="start" x="531" y="-136.26" font-family="Helvetica,sans-Serif" font-size="10.00">LibLoader::LoaderApi</text>
<text text-anchor="middle" x="577" y="-125.26" font-family="Helvetica,sans-Serif" font-size="10.00">::pluginOperation</text>
</a>
</g>
</g>
<!-- Node4&#45;&gt;Node5 -->
<g id="edge4" class="edge">
<title>Node4&#45;&gt;Node5</title>
<path fill="none" stroke="midnightblue" d="M487.37,-133.26C495.67,-133.26 504.29,-133.26 512.77,-133.26"/>
<polygon fill="midnightblue" stroke="midnightblue" points="513,-136.76 523,-133.26 513,-129.76 513,-136.76"/>
</g>
<!-- Node6 -->
<g id="node6" class="node">
<title>Node6</title>
<g id="a_node6"><a xlink:href="a00740.html#acc90fdac094544c4ddd9d6fd13baa5da" target="_top" xlink:title=" ">
<polygon fill="white" stroke="black" points="667,-181.26 667,-211.26 802,-211.26 802,-181.26 667,-181.26"/>
<text text-anchor="start" x="675" y="-199.26" font-family="Helvetica,sans-Serif" font-size="10.00">MiraiCP::MiraiCPStringview</text>
<text text-anchor="middle" x="734.5" y="-188.26" font-family="Helvetica,sans-Serif" font-size="10.00">::c_str</text>
</a>
</g>
</g>
<!-- Node5&#45;&gt;Node6 -->
<g id="edge5" class="edge">
<title>Node5&#45;&gt;Node6</title>
<path fill="none" stroke="midnightblue" d="M615.25,-148.35C636.71,-157.05 663.89,-168.06 686.77,-177.33"/>
<polygon fill="midnightblue" stroke="midnightblue" points="685.71,-180.67 696.29,-181.19 688.33,-174.19 685.71,-180.67"/>
</g>
<!-- Node7 -->
<g id="node7" class="node">
<title>Node7</title>
<g id="a_node7"><a xlink:href="a00768.html#aea7d58ff9f04d6d4849c25a2506603a5" target="_top" xlink:title="取env,如果不存在重新获取">
<polygon fill="white" stroke="black" points="1291,-104.76 1291,-123.76 1410,-123.76 1410,-104.76 1291,-104.76"/>
<text text-anchor="middle" x="1350.5" y="-111.76" font-family="Helvetica,sans-Serif" font-size="10.00">JNIEnvManager::getEnv</text>
</a>
</g>
</g>
<!-- Node5&#45;&gt;Node7 -->
<g id="edge6" class="edge">
<title>Node5&#45;&gt;Node7</title>
<path fill="none" stroke="midnightblue" d="M631.25,-138.35C694.8,-143.98 804.3,-152.26 898.5,-152.26 898.5,-152.26 898.5,-152.26 1059.5,-152.26 1141.89,-152.26 1236.34,-137 1294.46,-125.82"/>
<polygon fill="midnightblue" stroke="midnightblue" points="1295.39,-129.2 1304.53,-123.85 1294.05,-122.33 1295.39,-129.2"/>
</g>
<!-- Node10 -->
<g id="node10" class="node">
<title>Node10</title>
<g id="a_node10"><a xlink:href="a00407.html#aa5f8d0ecd9dd392b491070aace643ae3" target="_top" xlink:title=" ">
<polygon fill="white" stroke="black" points="846,-104.76 846,-123.76 953,-123.76 953,-104.76 846,-104.76"/>
<text text-anchor="middle" x="899.5" y="-111.76" font-family="Helvetica,sans-Serif" font-size="10.00">LibLoader::jstring2str</text>
</a>
</g>
</g>
<!-- Node5&#45;&gt;Node10 -->
<g id="edge9" class="edge">
<title>Node5&#45;&gt;Node10</title>
<path fill="none" stroke="midnightblue" d="M631.28,-130.1C687.57,-126.77 776.25,-121.51 835.85,-117.98"/>
<polygon fill="midnightblue" stroke="midnightblue" points="836.11,-121.47 845.89,-117.38 835.7,-114.48 836.11,-121.47"/>
</g>
<!-- Node12 -->
<g id="node12" class="node">
<title>Node12</title>
<g id="a_node12"><a xlink:href="a00407.html#a6a6fcd695791253a9b3a053d313b2b93" target="_top" xlink:title=" ">
<polygon fill="white" stroke="black" points="681,-44.76 681,-63.76 788,-63.76 788,-44.76 681,-44.76"/>
<text text-anchor="middle" x="734.5" y="-51.76" font-family="Helvetica,sans-Serif" font-size="10.00">LibLoader::str2jstring</text>
</a>
</g>
</g>
<!-- Node5&#45;&gt;Node12 -->
<g id="edge12" class="edge">
<title>Node5&#45;&gt;Node12</title>
<path fill="none" stroke="midnightblue" d="M607.61,-118.22C635.83,-103.88 678,-82.46 705.63,-68.42"/>
<polygon fill="midnightblue" stroke="midnightblue" points="707.42,-71.44 714.75,-63.79 704.25,-65.2 707.42,-71.44"/>
</g>
<!-- Node8 -->
<g id="node8" class="node">
<title>Node8</title>
<g id="a_node8"><a xlink:href="a00200.html#a3d31403b7971274d47d308245206bd24" target="_top" xlink:title="为当前线程创建一个env.">
<polygon fill="white" stroke="black" points="1446,-104.76 1446,-123.76 1496,-123.76 1496,-104.76 1446,-104.76"/>
<text text-anchor="middle" x="1471" y="-111.76" font-family="Helvetica,sans-Serif" font-size="10.00">newEnv</text>
</a>
</g>
</g>
<!-- Node7&#45;&gt;Node8 -->
<g id="edge7" class="edge">
<title>Node7&#45;&gt;Node8</title>
<path fill="none" stroke="midnightblue" d="M1410.06,-114.26C1418.89,-114.26 1427.75,-114.26 1435.85,-114.26"/>
<polygon fill="midnightblue" stroke="midnightblue" points="1435.98,-117.76 1445.98,-114.26 1435.98,-110.76 1435.98,-117.76"/>
</g>
<!-- Node9 -->
<g id="node9" class="node">
<title>Node9</title>
<g id="a_node9"><a xlink:href="a00768.html#ae0e482c6a813848a8f5d34957d1b6307" target="_top" xlink:title="获取全局JavaVM对象.">
<polygon fill="white" stroke="black" points="1532,-104.76 1532,-123.76 1654,-123.76 1654,-104.76 1532,-104.76"/>
<text text-anchor="middle" x="1593" y="-111.76" font-family="Helvetica,sans-Serif" font-size="10.00">JNIEnvManager::getGvm</text>
</a>
</g>
</g>
<!-- Node8&#45;&gt;Node9 -->
<g id="edge8" class="edge">
<title>Node8&#45;&gt;Node9</title>
<path fill="none" stroke="midnightblue" d="M1496.28,-114.26C1503.75,-114.26 1512.37,-114.26 1521.32,-114.26"/>
<polygon fill="midnightblue" stroke="midnightblue" points="1521.52,-117.76 1531.52,-114.26 1521.52,-110.76 1521.52,-117.76"/>
</g>
<!-- Node11 -->
<g id="node11" class="node">
<title>Node11</title>
<g id="a_node11"><a xlink:href="a00411.html#a076c5f4ff8083c7cfc6523498d0ba30f" target="_top" xlink:title=" ">
<polygon fill="white" stroke="black" points="1156,-77.26 1156,-107.26 1255,-107.26 1255,-77.26 1156,-77.26"/>
<text text-anchor="start" x="1164" y="-95.26" font-family="Helvetica,sans-Serif" font-size="10.00">LibLoader::JNIEnvs</text>
<text text-anchor="middle" x="1205.5" y="-84.26" font-family="Helvetica,sans-Serif" font-size="10.00">::getEnv</text>
</a>
</g>
</g>
<!-- Node10&#45;&gt;Node11 -->
<g id="edge10" class="edge">
<title>Node10&#45;&gt;Node11</title>
<path fill="none" stroke="midnightblue" d="M953.11,-110.45C1006.7,-106.58 1089.65,-100.57 1145.46,-96.53"/>
<polygon fill="midnightblue" stroke="midnightblue" points="1145.83,-100.02 1155.55,-95.8 1145.32,-93.03 1145.83,-100.02"/>
</g>
<!-- Node11&#45;&gt;Node7 -->
<g id="edge11" class="edge">
<title>Node11&#45;&gt;Node7</title>
<path fill="none" stroke="midnightblue" d="M1255.31,-99.77C1263.51,-101.03 1272.16,-102.36 1280.75,-103.68"/>
<polygon fill="midnightblue" stroke="midnightblue" points="1280.36,-107.17 1290.78,-105.23 1281.43,-100.25 1280.36,-107.17"/>
</g>
<!-- Node12&#45;&gt;Node11 -->
<g id="edge13" class="edge">
<title>Node12&#45;&gt;Node11</title>
<path fill="none" stroke="midnightblue" d="M788.39,-58.55C876.71,-65.7 1053.59,-80.03 1145.7,-87.5"/>
<polygon fill="midnightblue" stroke="midnightblue" points="1145.44,-90.99 1155.69,-88.31 1146.01,-84.01 1145.44,-90.99"/>
</g>
<!-- Node13 -->
<g id="node13" class="node">
<title>Node13</title>
<g id="a_node13"><a xlink:href="a00800.html#af50d0545fe7d683e54fcd03453a423e3" target="_top" xlink:title=" ">
<polygon fill="white" stroke="black" points="838,-17.26 838,-47.26 961,-47.26 961,-17.26 838,-17.26"/>
<text text-anchor="start" x="846" y="-35.26" font-family="Helvetica,sans-Serif" font-size="10.00">LibLoader::LoaderLogger</text>
<text text-anchor="middle" x="899.5" y="-24.26" font-family="Helvetica,sans-Serif" font-size="10.00">::warning</text>
</a>
</g>
</g>
<!-- Node12&#45;&gt;Node13 -->
<g id="edge14" class="edge">
<title>Node12&#45;&gt;Node13</title>
<path fill="none" stroke="midnightblue" d="M788.42,-47.12C801.01,-45.42 814.65,-43.58 827.89,-41.79"/>
<polygon fill="midnightblue" stroke="midnightblue" points="828.48,-45.24 837.92,-40.44 827.54,-38.31 828.48,-45.24"/>
</g>
<!-- Node14 -->
<g id="node14" class="node">
<title>Node14</title>
<g id="a_node14"><a xlink:href="a00800.html#af4d7d5164450e25f7401d1cc15f15b8d" target="_top" xlink:title="实际暴露的接口">
<polygon fill="white" stroke="black" points="997,-17.26 997,-47.26 1120,-47.26 1120,-17.26 997,-17.26"/>
<text text-anchor="start" x="1005" y="-35.26" font-family="Helvetica,sans-Serif" font-size="10.00">LibLoader::LoaderLogger</text>
<text text-anchor="middle" x="1058.5" y="-24.26" font-family="Helvetica,sans-Serif" font-size="10.00">::call_logger</text>
</a>
</g>
</g>
<!-- Node13&#45;&gt;Node14 -->
<g id="edge15" class="edge">
<title>Node13&#45;&gt;Node14</title>
<path fill="none" stroke="midnightblue" d="M961.2,-32.26C969.64,-32.26 978.36,-32.26 986.95,-32.26"/>
<polygon fill="midnightblue" stroke="midnightblue" points="986.96,-35.76 996.96,-32.26 986.96,-28.76 986.96,-35.76"/>
</g>
<!-- Node14&#45;&gt;Node11 -->
<g id="edge16" class="edge">
<title>Node14&#45;&gt;Node11</title>
<path fill="none" stroke="midnightblue" d="M1096.09,-47.4C1115.14,-55.28 1138.61,-65 1158.84,-73.37"/>
<polygon fill="midnightblue" stroke="midnightblue" points="1157.6,-76.64 1168.17,-77.23 1160.27,-70.17 1157.6,-76.64"/>
</g>
<!-- Node14&#45;&gt;Node12 -->
<g id="edge17" class="edge">
<title>Node14&#45;&gt;Node12</title>
<path fill="none" stroke="midnightblue" d="M1009.37,-17.24C994.07,-13.15 976.97,-9.3 961,-7.26 906.77,-0.35 891.41,4.4 838,-7.26 809.6,-13.46 779.66,-28.28 759.52,-39.64"/>
<polygon fill="midnightblue" stroke="midnightblue" points="757.64,-36.68 750.74,-44.72 761.15,-42.74 757.64,-36.68"/>
</g>
</g>
</svg>
