<?xml version="1.0" encoding="UTF-8" standalone="no"?>
<!DOCTYPE svg PUBLIC "-//W3C//DTD SVG 1.1//EN"
 "http://www.w3.org/Graphics/SVG/1.1/DTD/svg11.dtd">
<!-- Generated by graphviz version 2.50.0 (20211204.2007)
 -->
<!-- Title: MiraiCP::Member::mute Pages: 1 -->
<svg width="1601pt" height="220pt"
 viewBox="0.00 0.00 1601.00 219.76" xmlns="http://www.w3.org/2000/svg" xmlns:xlink="http://www.w3.org/1999/xlink">
<g id="graph0" class="graph" transform="scale(1 1) rotate(0) translate(4 215.76)">
<title>MiraiCP::Member::mute</title>
<polygon fill="white" stroke="transparent" points="-4,4 -4,-215.76 1597,-215.76 1597,4 -4,4"/>
<!-- Node1 -->
<g id="node1" class="node">
<title>Node1</title>
<g id="a_node1"><a xlink:title=" ">
<polygon fill="#bfbfbf" stroke="black" points="0,-101.76 0,-120.76 120,-120.76 120,-101.76 0,-101.76"/>
<text text-anchor="middle" x="60" y="-108.76" font-family="Helvetica,sans-Serif" font-size="10.00">MiraiCP::Member::mute</text>
</a>
</g>
</g>
<!-- Node2 -->
<g id="node2" class="node">
<title>Node2</title>
<g id="a_node2"><a xlink:href="a00415.html#a309e8d7f316e8b5e947ea3bcddeb84a8" target="_top" xlink:title="调用 Mirai 操作">
<polygon fill="white" stroke="black" points="164,-118.26 164,-148.26 273,-148.26 273,-118.26 164,-118.26"/>
<text text-anchor="start" x="172" y="-136.26" font-family="Helvetica,sans-Serif" font-size="10.00">MiraiCP::KtOperation</text>
<text text-anchor="middle" x="218.5" y="-125.26" font-family="Helvetica,sans-Serif" font-size="10.00">::ktOperation</text>
</a>
</g>
</g>
<!-- Node1&#45;&gt;Node2 -->
<g id="edge1" class="edge">
<title>Node1&#45;&gt;Node2</title>
<path fill="none" stroke="midnightblue" d="M120.17,-119.58C131.17,-121.12 142.7,-122.75 153.83,-124.31"/>
<polygon fill="midnightblue" stroke="midnightblue" points="153.52,-127.8 163.91,-125.73 154.5,-120.87 153.52,-127.8"/>
</g>
<!-- Node14 -->
<g id="node14" class="node">
<title>Node14</title>
<g id="a_node14"><a xlink:href="a00448.html#a89fb588a12ff2d4de10722788945ea55" target="_top" xlink:title="序列化到json对象">
<polygon fill="white" stroke="black" points="156,-79.76 156,-98.76 281,-98.76 281,-79.76 156,-79.76"/>
<text text-anchor="middle" x="218.5" y="-86.76" font-family="Helvetica,sans-Serif" font-size="10.00">MiraiCP::Contact::toJson</text>
</a>
</g>
</g>
<!-- Node1&#45;&gt;Node14 -->
<g id="edge17" class="edge">
<title>Node1&#45;&gt;Node14</title>
<path fill="none" stroke="midnightblue" d="M120.17,-102.94C128.56,-101.76 137.28,-100.54 145.88,-99.33"/>
<polygon fill="midnightblue" stroke="midnightblue" points="146.49,-102.78 155.91,-97.92 145.52,-95.85 146.49,-102.78"/>
</g>
<!-- Node3 -->
<g id="node3" class="node">
<title>Node3</title>
<g id="a_node3"><a xlink:href="a00415.html#a1e1e498928eeaa1d7107033ff5fa881a" target="_top" xlink:title="调用 Mirai 操作">
<polygon fill="white" stroke="black" points="317,-118.26 317,-148.26 426,-148.26 426,-118.26 317,-118.26"/>
<text text-anchor="start" x="325" y="-136.26" font-family="Helvetica,sans-Serif" font-size="10.00">MiraiCP::KtOperation</text>
<text text-anchor="middle" x="371.5" y="-125.26" font-family="Helvetica,sans-Serif" font-size="10.00">::ktOperationStr</text>
</a>
</g>
</g>
<!-- Node2&#45;&gt;Node3 -->
<g id="edge2" class="edge">
<title>Node2&#45;&gt;Node3</title>
<path fill="none" stroke="midnightblue" d="M273.16,-133.26C284,-133.26 295.5,-133.26 306.64,-133.26"/>
<polygon fill="midnightblue" stroke="midnightblue" points="306.76,-136.76 316.76,-133.26 306.76,-129.76 306.76,-136.76"/>
</g>
<!-- Node4 -->
<g id="node4" class="node">
<title>Node4</title>
<g id="a_node4"><a xlink:href="a00408.html#a4c6ac4cf4ba5ff0adb7656708bbb67d0" target="_top" xlink:title="interfaces for plugins">
<polygon fill="white" stroke="black" points="462,-118.26 462,-148.26 570,-148.26 570,-118.26 462,-118.26"/>
<text text-anchor="start" x="470" y="-136.26" font-family="Helvetica,sans-Serif" font-size="10.00">LibLoader::LoaderApi</text>
<text text-anchor="middle" x="516" y="-125.26" font-family="Helvetica,sans-Serif" font-size="10.00">::pluginOperation</text>
</a>
</g>
</g>
<!-- Node3&#45;&gt;Node4 -->
<g id="edge3" class="edge">
<title>Node3&#45;&gt;Node4</title>
<path fill="none" stroke="midnightblue" d="M426.37,-133.26C434.67,-133.26 443.29,-133.26 451.77,-133.26"/>
<polygon fill="midnightblue" stroke="midnightblue" points="452,-136.76 462,-133.26 452,-129.76 452,-136.76"/>
</g>
<!-- Node5 -->
<g id="node5" class="node">
<title>Node5</title>
<g id="a_node5"><a xlink:href="a00740.html#acc90fdac094544c4ddd9d6fd13baa5da" target="_top" xlink:title=" ">
<polygon fill="white" stroke="black" points="606,-181.26 606,-211.26 741,-211.26 741,-181.26 606,-181.26"/>
<text text-anchor="start" x="614" y="-199.26" font-family="Helvetica,sans-Serif" font-size="10.00">MiraiCP::MiraiCPStringview</text>
<text text-anchor="middle" x="673.5" y="-188.26" font-family="Helvetica,sans-Serif" font-size="10.00">::c_str</text>
</a>
</g>
</g>
<!-- Node4&#45;&gt;Node5 -->
<g id="edge4" class="edge">
<title>Node4&#45;&gt;Node5</title>
<path fill="none" stroke="midnightblue" d="M554.25,-148.35C575.71,-157.05 602.89,-168.06 625.77,-177.33"/>
<polygon fill="midnightblue" stroke="midnightblue" points="624.71,-180.67 635.29,-181.19 627.33,-174.19 624.71,-180.67"/>
</g>
<!-- Node6 -->
<g id="node6" class="node">
<title>Node6</title>
<g id="a_node6"><a xlink:href="a00768.html#aea7d58ff9f04d6d4849c25a2506603a5" target="_top" xlink:title="取env,如果不存在重新获取">
<polygon fill="white" stroke="black" points="1230,-104.76 1230,-123.76 1349,-123.76 1349,-104.76 1230,-104.76"/>
<text text-anchor="middle" x="1289.5" y="-111.76" font-family="Helvetica,sans-Serif" font-size="10.00">JNIEnvManager::getEnv</text>
</a>
</g>
</g>
<!-- Node4&#45;&gt;Node6 -->
<g id="edge5" class="edge">
<title>Node4&#45;&gt;Node6</title>
<path fill="none" stroke="midnightblue" d="M570.25,-138.35C633.8,-143.98 743.3,-152.26 837.5,-152.26 837.5,-152.26 837.5,-152.26 998.5,-152.26 1080.89,-152.26 1175.34,-137 1233.46,-125.82"/>
<polygon fill="midnightblue" stroke="midnightblue" points="1234.39,-129.2 1243.53,-123.85 1233.05,-122.33 1234.39,-129.2"/>
</g>
<!-- Node9 -->
<g id="node9" class="node">
<title>Node9</title>
<g id="a_node9"><a xlink:href="a00407.html#aa5f8d0ecd9dd392b491070aace643ae3" target="_top" xlink:title=" ">
<polygon fill="white" stroke="black" points="785,-104.76 785,-123.76 892,-123.76 892,-104.76 785,-104.76"/>
<text text-anchor="middle" x="838.5" y="-111.76" font-family="Helvetica,sans-Serif" font-size="10.00">LibLoader::jstring2str</text>
</a>
</g>
</g>
<!-- Node4&#45;&gt;Node9 -->
<g id="edge8" class="edge">
<title>Node4&#45;&gt;Node9</title>
<path fill="none" stroke="midnightblue" d="M570.28,-130.1C626.57,-126.77 715.25,-121.51 774.85,-117.98"/>
<polygon fill="midnightblue" stroke="midnightblue" points="775.11,-121.47 784.89,-117.38 774.7,-114.48 775.11,-121.47"/>
</g>
<!-- Node11 -->
<g id="node11" class="node">
<title>Node11</title>
<g id="a_node11"><a xlink:href="a00407.html#a6a6fcd695791253a9b3a053d313b2b93" target="_top" xlink:title=" ">
<polygon fill="white" stroke="black" points="620,-44.76 620,-63.76 727,-63.76 727,-44.76 620,-44.76"/>
<text text-anchor="middle" x="673.5" y="-51.76" font-family="Helvetica,sans-Serif" font-size="10.00">LibLoader::str2jstring</text>
</a>
</g>
</g>
<!-- Node4&#45;&gt;Node11 -->
<g id="edge11" class="edge">
<title>Node4&#45;&gt;Node11</title>
<path fill="none" stroke="midnightblue" d="M546.61,-118.22C574.83,-103.88 617,-82.46 644.63,-68.42"/>
<polygon fill="midnightblue" stroke="midnightblue" points="646.42,-71.44 653.75,-63.79 643.25,-65.2 646.42,-71.44"/>
</g>
<!-- Node7 -->
<g id="node7" class="node">
<title>Node7</title>
<g id="a_node7"><a xlink:href="a00200.html#a3d31403b7971274d47d308245206bd24" target="_top" xlink:title="为当前线程创建一个env.">
<polygon fill="white" stroke="black" points="1385,-104.76 1385,-123.76 1435,-123.76 1435,-104.76 1385,-104.76"/>
<text text-anchor="middle" x="1410" y="-111.76" font-family="Helvetica,sans-Serif" font-size="10.00">newEnv</text>
</a>
</g>
</g>
<!-- Node6&#45;&gt;Node7 -->
<g id="edge6" class="edge">
<title>Node6&#45;&gt;Node7</title>
<path fill="none" stroke="midnightblue" d="M1349.06,-114.26C1357.89,-114.26 1366.75,-114.26 1374.85,-114.26"/>
<polygon fill="midnightblue" stroke="midnightblue" points="1374.98,-117.76 1384.98,-114.26 1374.98,-110.76 1374.98,-117.76"/>
</g>
<!-- Node8 -->
<g id="node8" class="node">
<title>Node8</title>
<g id="a_node8"><a xlink:href="a00768.html#ae0e482c6a813848a8f5d34957d1b6307" target="_top" xlink:title="获取全局JavaVM对象.">
<polygon fill="white" stroke="black" points="1471,-104.76 1471,-123.76 1593,-123.76 1593,-104.76 1471,-104.76"/>
<text text-anchor="middle" x="1532" y="-111.76" font-family="Helvetica,sans-Serif" font-size="10.00">JNIEnvManager::getGvm</text>
</a>
</g>
</g>
<!-- Node7&#45;&gt;Node8 -->
<g id="edge7" class="edge">
<title>Node7&#45;&gt;Node8</title>
<path fill="none" stroke="midnightblue" d="M1435.28,-114.26C1442.75,-114.26 1451.37,-114.26 1460.32,-114.26"/>
<polygon fill="midnightblue" stroke="midnightblue" points="1460.52,-117.76 1470.52,-114.26 1460.52,-110.76 1460.52,-117.76"/>
</g>
<!-- Node10 -->
<g id="node10" class="node">
<title>Node10</title>
<g id="a_node10"><a xlink:href="a00411.html#a076c5f4ff8083c7cfc6523498d0ba30f" target="_top" xlink:title=" ">
<polygon fill="white" stroke="black" points="1095,-77.26 1095,-107.26 1194,-107.26 1194,-77.26 1095,-77.26"/>
<text text-anchor="start" x="1103" y="-95.26" font-family="Helvetica,sans-Serif" font-size="10.00">LibLoader::JNIEnvs</text>
<text text-anchor="middle" x="1144.5" y="-84.26" font-family="Helvetica,sans-Serif" font-size="10.00">::getEnv</text>
</a>
</g>
</g>
<!-- Node9&#45;&gt;Node10 -->
<g id="edge9" class="edge">
<title>Node9&#45;&gt;Node10</title>
<path fill="none" stroke="midnightblue" d="M892.11,-110.45C945.7,-106.58 1028.65,-100.57 1084.46,-96.53"/>
<polygon fill="midnightblue" stroke="midnightblue" points="1084.83,-100.02 1094.55,-95.8 1084.32,-93.03 1084.83,-100.02"/>
</g>
<!-- Node10&#45;&gt;Node6 -->
<g id="edge10" class="edge">
<title>Node10&#45;&gt;Node6</title>
<path fill="none" stroke="midnightblue" d="M1194.31,-99.77C1202.51,-101.03 1211.16,-102.36 1219.75,-103.68"/>
<polygon fill="midnightblue" stroke="midnightblue" points="1219.36,-107.17 1229.78,-105.23 1220.43,-100.25 1219.36,-107.17"/>
</g>
<!-- Node11&#45;&gt;Node10 -->
<g id="edge12" class="edge">
<title>Node11&#45;&gt;Node10</title>
<path fill="none" stroke="midnightblue" d="M727.39,-58.55C815.71,-65.7 992.59,-80.03 1084.7,-87.5"/>
<polygon fill="midnightblue" stroke="midnightblue" points="1084.44,-90.99 1094.69,-88.31 1085.01,-84.01 1084.44,-90.99"/>
</g>
<!-- Node12 -->
<g id="node12" class="node">
<title>Node12</title>
<g id="a_node12"><a xlink:href="a00800.html#af50d0545fe7d683e54fcd03453a423e3" target="_top" xlink:title=" ">
<polygon fill="white" stroke="black" points="777,-17.26 777,-47.26 900,-47.26 900,-17.26 777,-17.26"/>
<text text-anchor="start" x="785" y="-35.26" font-family="Helvetica,sans-Serif" font-size="10.00">LibLoader::LoaderLogger</text>
<text text-anchor="middle" x="838.5" y="-24.26" font-family="Helvetica,sans-Serif" font-size="10.00">::warning</text>
</a>
</g>
</g>
<!-- Node11&#45;&gt;Node12 -->
<g id="edge13" class="edge">
<title>Node11&#45;&gt;Node12</title>
<path fill="none" stroke="midnightblue" d="M727.42,-47.12C740.01,-45.42 753.65,-43.58 766.89,-41.79"/>
<polygon fill="midnightblue" stroke="midnightblue" points="767.48,-45.24 776.92,-40.44 766.54,-38.31 767.48,-45.24"/>
</g>
<!-- Node13 -->
<g id="node13" class="node">
<title>Node13</title>
<g id="a_node13"><a xlink:href="a00800.html#af4d7d5164450e25f7401d1cc15f15b8d" target="_top" xlink:title="实际暴露的接口">
<polygon fill="white" stroke="black" points="936,-17.26 936,-47.26 1059,-47.26 1059,-17.26 936,-17.26"/>
<text text-anchor="start" x="944" y="-35.26" font-family="Helvetica,sans-Serif" font-size="10.00">LibLoader::LoaderLogger</text>
<text text-anchor="middle" x="997.5" y="-24.26" font-family="Helvetica,sans-Serif" font-size="10.00">::call_logger</text>
</a>
</g>
</g>
<!-- Node12&#45;&gt;Node13 -->
<g id="edge14" class="edge">
<title>Node12&#45;&gt;Node13</title>
<path fill="none" stroke="midnightblue" d="M900.2,-32.26C908.64,-32.26 917.36,-32.26 925.95,-32.26"/>
<polygon fill="midnightblue" stroke="midnightblue" points="925.96,-35.76 935.96,-32.26 925.96,-28.76 925.96,-35.76"/>
</g>
<!-- Node13&#45;&gt;Node10 -->
<g id="edge15" class="edge">
<title>Node13&#45;&gt;Node10</title>
<path fill="none" stroke="midnightblue" d="M1035.09,-47.4C1054.14,-55.28 1077.61,-65 1097.84,-73.37"/>
<polygon fill="midnightblue" stroke="midnightblue" points="1096.6,-76.64 1107.17,-77.23 1099.27,-70.17 1096.6,-76.64"/>
</g>
<!-- Node13&#45;&gt;Node11 -->
<g id="edge16" class="edge">
<title>Node13&#45;&gt;Node11</title>
<path fill="none" stroke="midnightblue" d="M948.37,-17.24C933.07,-13.15 915.97,-9.3 900,-7.26 845.77,-0.35 830.41,4.4 777,-7.26 748.6,-13.46 718.66,-28.28 698.52,-39.64"/>
<polygon fill="midnightblue" stroke="midnightblue" points="696.64,-36.68 689.74,-44.72 700.15,-42.74 696.64,-36.68"/>
</g>
</g>
</svg>
