<?xml version="1.0" encoding="UTF-8" standalone="no"?>
<!DOCTYPE svg PUBLIC "-//W3C//DTD SVG 1.1//EN"
 "http://www.w3.org/Graphics/SVG/1.1/DTD/svg11.dtd">
<!-- Generated by graphviz version 2.50.0 (20211204.2007)
 -->
<!-- Title: MiraiCP::Group::OfflineAnnouncement::publishTo Pages: 1 -->
<svg width="1702pt" height="282pt"
 viewBox="0.00 0.00 1702.00 282.48" xmlns="http://www.w3.org/2000/svg" xmlns:xlink="http://www.w3.org/1999/xlink">
<g id="graph0" class="graph" transform="scale(1 1) rotate(0) translate(4 278.48)">
<title>MiraiCP::Group::OfflineAnnouncement::publishTo</title>
<polygon fill="white" stroke="transparent" points="-4,4 -4,-278.48 1698,-278.48 1698,4 -4,4"/>
<!-- Node1 -->
<g id="node1" class="node">
<title>Node1</title>
<g id="a_node1"><a xlink:title="发布群公告">
<polygon fill="#bfbfbf" stroke="black" points="0,-183.48 0,-213.48 182,-213.48 182,-183.48 0,-183.48"/>
<text text-anchor="start" x="8" y="-201.48" font-family="Helvetica,sans-Serif" font-size="10.00">MiraiCP::Group::OfflineAnnouncement</text>
<text text-anchor="middle" x="91" y="-190.48" font-family="Helvetica,sans-Serif" font-size="10.00">::publishTo</text>
</a>
</g>
</g>
<!-- Node2 -->
<g id="node2" class="node">
<title>Node2</title>
<g id="a_node2"><a xlink:href="a00445.html#ac257ebdd1591ea5acf6e045abf28ecba" target="_top" xlink:title=" ">
<polygon fill="white" stroke="black" points="250,-254.98 250,-273.98 368,-273.98 368,-254.98 250,-254.98"/>
<text text-anchor="middle" x="309" y="-261.98" font-family="Helvetica,sans-Serif" font-size="10.00">MiraiCP::Contact::botid</text>
</a>
</g>
</g>
<!-- Node1&#45;&gt;Node2 -->
<g id="edge1" class="edge">
<title>Node1&#45;&gt;Node2</title>
<path fill="none" stroke="midnightblue" d="M127.91,-213.51C152.86,-223.54 187.06,-236.5 218,-245.48 227.11,-248.13 236.83,-250.57 246.39,-252.75"/>
<polygon fill="midnightblue" stroke="midnightblue" points="245.75,-256.2 256.27,-254.94 247.26,-249.36 245.75,-256.2"/>
</g>
<!-- Node3 -->
<g id="node3" class="node">
<title>Node3</title>
<g id="a_node3"><a xlink:href="a00601.html#a720239cba555515909088bc5404c483f" target="_top" xlink:title="反序列化">
<polygon fill="white" stroke="black" points="218,-205.48 218,-235.48 400,-235.48 400,-205.48 218,-205.48"/>
<text text-anchor="start" x="226" y="-223.48" font-family="Helvetica,sans-Serif" font-size="10.00">MiraiCP::Group::OnlineAnnouncement</text>
<text text-anchor="middle" x="309" y="-212.48" font-family="Helvetica,sans-Serif" font-size="10.00">::deserializeFromJson</text>
</a>
</g>
</g>
<!-- Node1&#45;&gt;Node3 -->
<g id="edge2" class="edge">
<title>Node1&#45;&gt;Node3</title>
<path fill="none" stroke="midnightblue" d="M182.04,-207.65C190.53,-208.52 199.16,-209.4 207.74,-210.27"/>
<polygon fill="midnightblue" stroke="midnightblue" points="207.46,-213.76 217.76,-211.29 208.17,-206.8 207.46,-213.76"/>
</g>
<!-- Node4 -->
<g id="node4" class="node">
<title>Node4</title>
<g id="a_node4"><a xlink:href="a00445.html#a1f208ae0f09c367c90c2e079e63048db" target="_top" xlink:title="id 在全部情况存在">
<polygon fill="white" stroke="black" points="257,-166.98 257,-185.98 361,-185.98 361,-166.98 257,-166.98"/>
<text text-anchor="middle" x="309" y="-173.98" font-family="Helvetica,sans-Serif" font-size="10.00">MiraiCP::Contact::id</text>
</a>
</g>
</g>
<!-- Node1&#45;&gt;Node4 -->
<g id="edge3" class="edge">
<title>Node1&#45;&gt;Node4</title>
<path fill="none" stroke="midnightblue" d="M182.04,-189.31C203.92,-187.08 226.82,-184.75 247,-182.7"/>
<polygon fill="midnightblue" stroke="midnightblue" points="247.38,-186.17 256.98,-181.68 246.67,-179.21 247.38,-186.17"/>
</g>
<!-- Node5 -->
<g id="node5" class="node">
<title>Node5</title>
<g id="a_node5"><a xlink:href="a00412.html#a309e8d7f316e8b5e947ea3bcddeb84a8" target="_top" xlink:title="调用 Mirai 操作">
<polygon fill="white" stroke="black" points="254.5,-117.48 254.5,-147.48 363.5,-147.48 363.5,-117.48 254.5,-117.48"/>
<text text-anchor="start" x="262.5" y="-135.48" font-family="Helvetica,sans-Serif" font-size="10.00">MiraiCP::KtOperation</text>
<text text-anchor="middle" x="309" y="-124.48" font-family="Helvetica,sans-Serif" font-size="10.00">::ktOperation</text>
</a>
</g>
</g>
<!-- Node1&#45;&gt;Node5 -->
<g id="edge4" class="edge">
<title>Node1&#45;&gt;Node5</title>
<path fill="none" stroke="midnightblue" d="M136.75,-183.39C160.76,-175.43 190.91,-165.65 218,-157.48 226.46,-154.93 235.4,-152.33 244.22,-149.83"/>
<polygon fill="midnightblue" stroke="midnightblue" points="245.44,-153.12 254.11,-147.04 243.54,-146.38 245.44,-153.12"/>
</g>
<!-- Node6 -->
<g id="node6" class="node">
<title>Node6</title>
<g id="a_node6"><a xlink:href="a00412.html#a1e1e498928eeaa1d7107033ff5fa881a" target="_top" xlink:title="调用 Mirai 操作">
<polygon fill="white" stroke="black" points="436,-117.48 436,-147.48 545,-147.48 545,-117.48 436,-117.48"/>
<text text-anchor="start" x="444" y="-135.48" font-family="Helvetica,sans-Serif" font-size="10.00">MiraiCP::KtOperation</text>
<text text-anchor="middle" x="490.5" y="-124.48" font-family="Helvetica,sans-Serif" font-size="10.00">::ktOperationStr</text>
</a>
</g>
</g>
<!-- Node5&#45;&gt;Node6 -->
<g id="edge5" class="edge">
<title>Node5&#45;&gt;Node6</title>
<path fill="none" stroke="midnightblue" d="M363.86,-132.48C383.38,-132.48 405.62,-132.48 425.9,-132.48"/>
<polygon fill="midnightblue" stroke="midnightblue" points="425.99,-135.98 435.99,-132.48 425.99,-128.98 425.99,-135.98"/>
</g>
<!-- Node7 -->
<g id="node7" class="node">
<title>Node7</title>
<g id="a_node7"><a xlink:href="a00405.html#a89b345ec37278655b8f02d07dbb3c882" target="_top" xlink:title="interfaces for plugins">
<polygon fill="white" stroke="black" points="581,-117.48 581,-147.48 689,-147.48 689,-117.48 581,-117.48"/>
<text text-anchor="start" x="589" y="-135.48" font-family="Helvetica,sans-Serif" font-size="10.00">LibLoader::LoaderApi</text>
<text text-anchor="middle" x="635" y="-124.48" font-family="Helvetica,sans-Serif" font-size="10.00">::pluginOperation</text>
</a>
</g>
</g>
<!-- Node6&#45;&gt;Node7 -->
<g id="edge6" class="edge">
<title>Node6&#45;&gt;Node7</title>
<path fill="none" stroke="midnightblue" d="M545.37,-132.48C553.67,-132.48 562.29,-132.48 570.77,-132.48"/>
<polygon fill="midnightblue" stroke="midnightblue" points="571,-135.98 581,-132.48 571,-128.98 571,-135.98"/>
</g>
<!-- Node8 -->
<g id="node8" class="node">
<title>Node8</title>
<g id="a_node8"><a xlink:href="a00737.html#ab263deade385e7b5de856d061c6027e9" target="_top" xlink:title=" ">
<polygon fill="white" stroke="black" points="725,-180.48 725,-210.48 842,-210.48 842,-180.48 725,-180.48"/>
<text text-anchor="start" x="733" y="-198.48" font-family="Helvetica,sans-Serif" font-size="10.00">MiraiCP::MiraiCPString</text>
<text text-anchor="middle" x="783.5" y="-187.48" font-family="Helvetica,sans-Serif" font-size="10.00">::copyToCharPtr</text>
</a>
</g>
</g>
<!-- Node7&#45;&gt;Node8 -->
<g id="edge7" class="edge">
<title>Node7&#45;&gt;Node8</title>
<path fill="none" stroke="midnightblue" d="M671.09,-147.57C691.22,-156.23 716.69,-167.18 738.19,-176.43"/>
<polygon fill="midnightblue" stroke="midnightblue" points="736.87,-179.67 747.44,-180.41 739.64,-173.24 736.87,-179.67"/>
</g>
<!-- Node9 -->
<g id="node9" class="node">
<title>Node9</title>
<g id="a_node9"><a xlink:href="a00773.html#aea7d58ff9f04d6d4849c25a2506603a5" target="_top" xlink:title="取env,如果不存在重新获取">
<polygon fill="white" stroke="black" points="1331,-103.98 1331,-122.98 1450,-122.98 1450,-103.98 1331,-103.98"/>
<text text-anchor="middle" x="1390.5" y="-110.98" font-family="Helvetica,sans-Serif" font-size="10.00">JNIEnvManager::getEnv</text>
</a>
</g>
</g>
<!-- Node7&#45;&gt;Node9 -->
<g id="edge8" class="edge">
<title>Node7&#45;&gt;Node9</title>
<path fill="none" stroke="midnightblue" d="M689.21,-137.85C749.58,-143.47 851.02,-151.48 938.5,-151.48 938.5,-151.48 938.5,-151.48 1099.5,-151.48 1181.89,-151.48 1276.34,-136.22 1334.46,-125.04"/>
<polygon fill="midnightblue" stroke="midnightblue" points="1335.39,-128.42 1344.53,-123.07 1334.05,-121.55 1335.39,-128.42"/>
</g>
<!-- Node12 -->
<g id="node12" class="node">
<title>Node12</title>
<g id="a_node12"><a xlink:href="a00404.html#aa5f8d0ecd9dd392b491070aace643ae3" target="_top" xlink:title=" ">
<polygon fill="white" stroke="black" points="886,-103.98 886,-122.98 993,-122.98 993,-103.98 886,-103.98"/>
<text text-anchor="middle" x="939.5" y="-110.98" font-family="Helvetica,sans-Serif" font-size="10.00">LibLoader::jstring2str</text>
</a>
</g>
</g>
<!-- Node7&#45;&gt;Node12 -->
<g id="edge11" class="edge">
<title>Node7&#45;&gt;Node12</title>
<path fill="none" stroke="midnightblue" d="M689.04,-129.15C741.12,-125.88 820.57,-120.89 875.77,-117.42"/>
<polygon fill="midnightblue" stroke="midnightblue" points="876.02,-120.91 885.78,-116.79 875.58,-113.93 876.02,-120.91"/>
</g>
<!-- Node14 -->
<g id="node14" class="node">
<title>Node14</title>
<g id="a_node14"><a xlink:href="a00404.html#a6a6fcd695791253a9b3a053d313b2b93" target="_top" xlink:title=" ">
<polygon fill="white" stroke="black" points="730,-43.98 730,-62.98 837,-62.98 837,-43.98 730,-43.98"/>
<text text-anchor="middle" x="783.5" y="-50.98" font-family="Helvetica,sans-Serif" font-size="10.00">LibLoader::str2jstring</text>
</a>
</g>
</g>
<!-- Node7&#45;&gt;Node14 -->
<g id="edge14" class="edge">
<title>Node7&#45;&gt;Node14</title>
<path fill="none" stroke="midnightblue" d="M663.9,-117.44C690.37,-103.16 729.87,-81.87 755.9,-67.83"/>
<polygon fill="midnightblue" stroke="midnightblue" points="757.69,-70.84 764.83,-63.01 754.37,-64.68 757.69,-70.84"/>
</g>
<!-- Node10 -->
<g id="node10" class="node">
<title>Node10</title>
<g id="a_node10"><a xlink:href="a00203.html#a3d31403b7971274d47d308245206bd24" target="_top" xlink:title="为当前线程创建一个env.">
<polygon fill="white" stroke="black" points="1486,-103.98 1486,-122.98 1536,-122.98 1536,-103.98 1486,-103.98"/>
<text text-anchor="middle" x="1511" y="-110.98" font-family="Helvetica,sans-Serif" font-size="10.00">newEnv</text>
</a>
</g>
</g>
<!-- Node9&#45;&gt;Node10 -->
<g id="edge9" class="edge">
<title>Node9&#45;&gt;Node10</title>
<path fill="none" stroke="midnightblue" d="M1450.06,-113.48C1458.89,-113.48 1467.75,-113.48 1475.85,-113.48"/>
<polygon fill="midnightblue" stroke="midnightblue" points="1475.98,-116.98 1485.98,-113.48 1475.98,-109.98 1475.98,-116.98"/>
</g>
<!-- Node11 -->
<g id="node11" class="node">
<title>Node11</title>
<g id="a_node11"><a xlink:href="a00773.html#ae0e482c6a813848a8f5d34957d1b6307" target="_top" xlink:title="获取全局JavaVM对象.">
<polygon fill="white" stroke="black" points="1572,-103.98 1572,-122.98 1694,-122.98 1694,-103.98 1572,-103.98"/>
<text text-anchor="middle" x="1633" y="-110.98" font-family="Helvetica,sans-Serif" font-size="10.00">JNIEnvManager::getGvm</text>
</a>
</g>
</g>
<!-- Node10&#45;&gt;Node11 -->
<g id="edge10" class="edge">
<title>Node10&#45;&gt;Node11</title>
<path fill="none" stroke="midnightblue" d="M1536.28,-113.48C1543.75,-113.48 1552.37,-113.48 1561.32,-113.48"/>
<polygon fill="midnightblue" stroke="midnightblue" points="1561.52,-116.98 1571.52,-113.48 1561.52,-109.98 1561.52,-116.98"/>
</g>
<!-- Node13 -->
<g id="node13" class="node">
<title>Node13</title>
<g id="a_node13"><a xlink:href="a00409.html#a076c5f4ff8083c7cfc6523498d0ba30f" target="_top" xlink:title=" ">
<polygon fill="white" stroke="black" points="1196,-76.48 1196,-106.48 1295,-106.48 1295,-76.48 1196,-76.48"/>
<text text-anchor="start" x="1204" y="-94.48" font-family="Helvetica,sans-Serif" font-size="10.00">LibLoader::JNIEnvs</text>
<text text-anchor="middle" x="1245.5" y="-83.48" font-family="Helvetica,sans-Serif" font-size="10.00">::getEnv</text>
</a>
</g>
</g>
<!-- Node12&#45;&gt;Node13 -->
<g id="edge12" class="edge">
<title>Node12&#45;&gt;Node13</title>
<path fill="none" stroke="midnightblue" d="M993.11,-109.68C1046.7,-105.8 1129.65,-99.79 1185.46,-95.76"/>
<polygon fill="midnightblue" stroke="midnightblue" points="1185.83,-99.24 1195.55,-95.03 1185.32,-92.26 1185.83,-99.24"/>
</g>
<!-- Node13&#45;&gt;Node9 -->
<g id="edge13" class="edge">
<title>Node13&#45;&gt;Node9</title>
<path fill="none" stroke="midnightblue" d="M1295.31,-98.99C1303.51,-100.25 1312.16,-101.58 1320.75,-102.91"/>
<polygon fill="midnightblue" stroke="midnightblue" points="1320.36,-106.39 1330.78,-104.45 1321.43,-99.47 1320.36,-106.39"/>
</g>
<!-- Node14&#45;&gt;Node13 -->
<g id="edge15" class="edge">
<title>Node14&#45;&gt;Node13</title>
<path fill="none" stroke="midnightblue" d="M837.27,-57.84C923.84,-64.99 1095.43,-79.17 1185.75,-86.63"/>
<polygon fill="midnightblue" stroke="midnightblue" points="1185.57,-90.13 1195.82,-87.46 1186.14,-83.15 1185.57,-90.13"/>
</g>
<!-- Node15 -->
<g id="node15" class="node">
<title>Node15</title>
<g id="a_node15"><a xlink:href="a00805.html#af50d0545fe7d683e54fcd03453a423e3" target="_top" xlink:title=" ">
<polygon fill="white" stroke="black" points="878,-16.48 878,-46.48 1001,-46.48 1001,-16.48 878,-16.48"/>
<text text-anchor="start" x="886" y="-34.48" font-family="Helvetica,sans-Serif" font-size="10.00">LibLoader::LoaderLogger</text>
<text text-anchor="middle" x="939.5" y="-23.48" font-family="Helvetica,sans-Serif" font-size="10.00">::warning</text>
</a>
</g>
</g>
<!-- Node14&#45;&gt;Node15 -->
<g id="edge16" class="edge">
<title>Node14&#45;&gt;Node15</title>
<path fill="none" stroke="midnightblue" d="M837.07,-45.97C847.04,-44.55 857.62,-43.04 868.04,-41.55"/>
<polygon fill="midnightblue" stroke="midnightblue" points="868.55,-45.01 877.95,-40.13 867.56,-38.08 868.55,-45.01"/>
</g>
<!-- Node16 -->
<g id="node16" class="node">
<title>Node16</title>
<g id="a_node16"><a xlink:href="a00805.html#af4d7d5164450e25f7401d1cc15f15b8d" target="_top" xlink:title="实际暴露的接口">
<polygon fill="white" stroke="black" points="1037,-16.48 1037,-46.48 1160,-46.48 1160,-16.48 1037,-16.48"/>
<text text-anchor="start" x="1045" y="-34.48" font-family="Helvetica,sans-Serif" font-size="10.00">LibLoader::LoaderLogger</text>
<text text-anchor="middle" x="1098.5" y="-23.48" font-family="Helvetica,sans-Serif" font-size="10.00">::call_logger</text>
</a>
</g>
</g>
<!-- Node15&#45;&gt;Node16 -->
<g id="edge17" class="edge">
<title>Node15&#45;&gt;Node16</title>
<path fill="none" stroke="midnightblue" d="M1001.2,-31.48C1009.64,-31.48 1018.36,-31.48 1026.95,-31.48"/>
<polygon fill="midnightblue" stroke="midnightblue" points="1026.96,-34.98 1036.96,-31.48 1026.96,-27.98 1026.96,-34.98"/>
</g>
<!-- Node16&#45;&gt;Node13 -->
<g id="edge18" class="edge">
<title>Node16&#45;&gt;Node13</title>
<path fill="none" stroke="midnightblue" d="M1136.09,-46.62C1155.14,-54.51 1178.61,-64.22 1198.84,-72.59"/>
<polygon fill="midnightblue" stroke="midnightblue" points="1197.6,-75.86 1208.17,-76.45 1200.27,-69.39 1197.6,-75.86"/>
</g>
<!-- Node16&#45;&gt;Node14 -->
<g id="edge19" class="edge">
<title>Node16&#45;&gt;Node14</title>
<path fill="none" stroke="midnightblue" d="M1048.97,-16.47C1004.11,-4.82 935.84,7.24 878,-6.48 851.99,-12.65 824.99,-27.26 806.73,-38.56"/>
<polygon fill="midnightblue" stroke="midnightblue" points="804.83,-35.63 798.27,-43.95 808.59,-41.53 804.83,-35.63"/>
</g>
</g>
</svg>
