<?xml version="1.0" encoding="UTF-8" standalone="no"?>
<!DOCTYPE svg PUBLIC "-//W3C//DTD SVG 1.1//EN"
 "http://www.w3.org/Graphics/SVG/1.1/DTD/svg11.dtd">
<!-- Generated by graphviz version 2.50.0 (20211204.2007)
 -->
<!-- Title: MiraiCP::EventCancelledException Pages: 1 -->
<svg width="303pt" height="763pt"
 viewBox="0.00 0.00 303.00 763.00" xmlns="http://www.w3.org/2000/svg" xmlns:xlink="http://www.w3.org/1999/xlink">
<g id="graph0" class="graph" transform="scale(1 1) rotate(0) translate(4 759)">
<title>MiraiCP::EventCancelledException</title>
<polygon fill="white" stroke="transparent" points="-4,4 -4,-759 299,-759 299,4 -4,4"/>
<!-- Node1 -->
<g id="node1" class="node">
<title>Node1</title>
<g id="a_node1"><a xlink:title=" ">
<polygon fill="#bfbfbf" stroke="black" points="37.5,-0.5 37.5,-90.5 204.5,-90.5 204.5,-0.5 37.5,-0.5"/>
<text text-anchor="middle" x="121" y="-78.5" font-family="Helvetica,sans-Serif" font-size="10.00">MiraiCP::EventCancelledException</text>
<polyline fill="none" stroke="black" points="37.5,-71.5 204.5,-71.5 "/>
<text text-anchor="middle" x="121" y="-59.5" font-family="Helvetica,sans-Serif" font-size="10.00"> </text>
<polyline fill="none" stroke="black" points="37.5,-52.5 204.5,-52.5 "/>
<text text-anchor="start" x="45.5" y="-40.5" font-family="Helvetica,sans-Serif" font-size="10.00">+ EventCancelledException</text>
<text text-anchor="start" x="45.5" y="-29.5" font-family="Helvetica,sans-Serif" font-size="10.00">(const string &amp;msg, string</text>
<text text-anchor="start" x="45.5" y="-18.5" font-family="Helvetica,sans-Serif" font-size="10.00"> _filename, int _lineNum)</text>
<text text-anchor="start" x="45.5" y="-7.5" font-family="Helvetica,sans-Serif" font-size="10.00">+ static string exceptionType()</text>
</a>
</g>
</g>
<!-- Node2 -->
<g id="node2" class="node">
<title>Node2</title>
<g id="a_node2"><a xlink:href="a00545.html" target="_top" xlink:title=" ">
<polygon fill="white" stroke="black" points="36,-128.5 36,-240.5 206,-240.5 206,-128.5 36,-128.5"/>
<text text-anchor="start" x="44" y="-228.5" font-family="Helvetica,sans-Serif" font-size="10.00">MiraiCP::MiraiCPException</text>
<text text-anchor="middle" x="121" y="-217.5" font-family="Helvetica,sans-Serif" font-size="10.00">CRTP&lt; EventCancelledException &gt;</text>
<polyline fill="none" stroke="black" points="36,-210.5 206,-210.5 "/>
<text text-anchor="middle" x="121" y="-198.5" font-family="Helvetica,sans-Serif" font-size="10.00"> </text>
<polyline fill="none" stroke="black" points="36,-191.5 206,-191.5 "/>
<text text-anchor="start" x="44" y="-179.5" font-family="Helvetica,sans-Serif" font-size="10.00">+ MiraiCPExceptionCRTP</text>
<text text-anchor="start" x="44" y="-168.5" font-family="Helvetica,sans-Serif" font-size="10.00">(string _re, string </text>
<text text-anchor="start" x="44" y="-157.5" font-family="Helvetica,sans-Serif" font-size="10.00">_filename, int _lineNum)</text>
<text text-anchor="start" x="44" y="-146.5" font-family="Helvetica,sans-Serif" font-size="10.00">+ string getExceptionType</text>
<text text-anchor="start" x="44" y="-135.5" font-family="Helvetica,sans-Serif" font-size="10.00">() const override</text>
</a>
</g>
</g>
<!-- Node2&#45;&gt;Node1 -->
<g id="edge1" class="edge">
<title>Node2&#45;&gt;Node1</title>
<path fill="none" stroke="midnightblue" d="M121,-118.13C121,-108.83 121,-99.44 121,-90.67"/>
<polygon fill="none" stroke="midnightblue" points="117.5,-118.17 121,-128.17 124.5,-118.17 117.5,-118.17"/>
</g>
<!-- Node3 -->
<g id="node3" class="node">
<title>Node3</title>
<g id="a_node3"><a xlink:href="a00541.html" target="_top" xlink:title="总异常抽象类，用于一般捕获，不要直接抛出该类，不知道抛出什么的时候请抛出 MiraiCPException">
<polygon fill="white" stroke="black" points="38,-438.5 38,-638.5 196,-638.5 196,-438.5 38,-438.5"/>
<text text-anchor="middle" x="117" y="-626.5" font-family="Helvetica,sans-Serif" font-size="10.00">MiraiCP::MiraiCPExceptionBase</text>
<polyline fill="none" stroke="black" points="38,-619.5 196,-619.5 "/>
<text text-anchor="middle" x="117" y="-607.5" font-family="Helvetica,sans-Serif" font-size="10.00"> </text>
<polyline fill="none" stroke="black" points="38,-600.5 196,-600.5 "/>
<text text-anchor="start" x="46" y="-588.5" font-family="Helvetica,sans-Serif" font-size="10.00">+ ~MiraiCPExceptionBase</text>
<text text-anchor="start" x="46" y="-577.5" font-family="Helvetica,sans-Serif" font-size="10.00">() override=default</text>
<text text-anchor="start" x="46" y="-566.5" font-family="Helvetica,sans-Serif" font-size="10.00">+ const char * what()</text>
<text text-anchor="start" x="46" y="-555.5" font-family="Helvetica,sans-Serif" font-size="10.00"> const noexcept override</text>
<text text-anchor="start" x="46" y="-544.5" font-family="Helvetica,sans-Serif" font-size="10.00">+ string getError() const</text>
<text text-anchor="start" x="46" y="-533.5" font-family="Helvetica,sans-Serif" font-size="10.00">+ void raise() const</text>
<text text-anchor="start" x="46" y="-522.5" font-family="Helvetica,sans-Serif" font-size="10.00">+ virtual void basicRaise</text>
<text text-anchor="start" x="46" y="-511.5" font-family="Helvetica,sans-Serif" font-size="10.00">() const</text>
<text text-anchor="start" x="46" y="-500.5" font-family="Helvetica,sans-Serif" font-size="10.00">+ virtual string getException</text>
<text text-anchor="start" x="46" y="-489.5" font-family="Helvetica,sans-Serif" font-size="10.00">Type() const =0</text>
<text text-anchor="start" x="46" y="-478.5" font-family="Helvetica,sans-Serif" font-size="10.00">+ static string exceptionType()</text>
<text text-anchor="start" x="46" y="-467.5" font-family="Helvetica,sans-Serif" font-size="10.00"># MiraiCPExceptionBase</text>
<text text-anchor="start" x="46" y="-456.5" font-family="Helvetica,sans-Serif" font-size="10.00">(string info, string</text>
<text text-anchor="start" x="46" y="-445.5" font-family="Helvetica,sans-Serif" font-size="10.00"> _filename, int _lineNum)</text>
</a>
</g>
</g>
<!-- Node3&#45;&gt;Node2 -->
<g id="edge2" class="edge">
<title>Node3&#45;&gt;Node2</title>
<path fill="none" stroke="midnightblue" d="M118.25,-427.79C118.95,-365.67 119.81,-290.65 120.37,-240.7"/>
<polygon fill="none" stroke="midnightblue" points="114.74,-428 118.13,-438.04 121.74,-428.08 114.74,-428"/>
</g>
<!-- Node7 -->
<g id="node7" class="node">
<title>Node7</title>
<g id="a_node7"><a xlink:href="a00545.html" target="_top" xlink:title="总异常CRTP抽象类，不要直接抛出该类，不知道抛出什么的时候请抛出 MiraiCPException。 该类是用于继承的基类，需要新的异常类型时，继承该类并以子类作为模板参数。 子类需要实现的方法：">
<polygon fill="white" stroke="black" points="133.5,-288.5 133.5,-400.5 268.5,-400.5 268.5,-288.5 133.5,-288.5"/>
<text text-anchor="start" x="141.5" y="-388.5" font-family="Helvetica,sans-Serif" font-size="10.00">MiraiCP::MiraiCPException</text>
<text text-anchor="middle" x="201" y="-377.5" font-family="Helvetica,sans-Serif" font-size="10.00">CRTP&lt; T &gt;</text>
<polyline fill="none" stroke="black" points="133.5,-370.5 268.5,-370.5 "/>
<text text-anchor="middle" x="201" y="-358.5" font-family="Helvetica,sans-Serif" font-size="10.00"> </text>
<polyline fill="none" stroke="black" points="133.5,-351.5 268.5,-351.5 "/>
<text text-anchor="start" x="141.5" y="-339.5" font-family="Helvetica,sans-Serif" font-size="10.00">+ MiraiCPExceptionCRTP</text>
<text text-anchor="start" x="141.5" y="-328.5" font-family="Helvetica,sans-Serif" font-size="10.00">(string _re, string </text>
<text text-anchor="start" x="141.5" y="-317.5" font-family="Helvetica,sans-Serif" font-size="10.00">_filename, int _lineNum)</text>
<text text-anchor="start" x="141.5" y="-306.5" font-family="Helvetica,sans-Serif" font-size="10.00">+ string getExceptionType</text>
<text text-anchor="start" x="141.5" y="-295.5" font-family="Helvetica,sans-Serif" font-size="10.00">() const override</text>
</a>
</g>
</g>
<!-- Node3&#45;&gt;Node7 -->
<g id="edge7" class="edge">
<title>Node3&#45;&gt;Node7</title>
<path fill="none" stroke="midnightblue" d="M164.48,-428.97C168.77,-419.18 172.97,-409.56 176.92,-400.53"/>
<polygon fill="none" stroke="midnightblue" points="161.16,-427.84 160.35,-438.41 167.57,-430.65 161.16,-427.84"/>
</g>
<!-- Node4 -->
<g id="node4" class="node">
<title>Node4</title>
<g id="a_node4"><a xlink:title=" ">
<polygon fill="white" stroke="#bfbfbf" points="0,-697.5 0,-754.5 78,-754.5 78,-697.5 0,-697.5"/>
<text text-anchor="middle" x="39" y="-742.5" font-family="Helvetica,sans-Serif" font-size="10.00">std::exception</text>
<polyline fill="none" stroke="#bfbfbf" points="0,-735.5 78,-735.5 "/>
<text text-anchor="middle" x="39" y="-723.5" font-family="Helvetica,sans-Serif" font-size="10.00"> </text>
<polyline fill="none" stroke="#bfbfbf" points="0,-716.5 78,-716.5 "/>
<text text-anchor="middle" x="39" y="-704.5" font-family="Helvetica,sans-Serif" font-size="10.00"> </text>
</a>
</g>
</g>
<!-- Node4&#45;&gt;Node3 -->
<g id="edge3" class="edge">
<title>Node4&#45;&gt;Node3</title>
<path fill="none" stroke="midnightblue" d="M54.67,-687.73C60.73,-673.32 67.98,-656.08 75.36,-638.54"/>
<polygon fill="none" stroke="midnightblue" points="51.33,-686.65 50.68,-697.23 57.78,-689.37 51.33,-686.65"/>
</g>
<!-- Node5 -->
<g id="node5" class="node">
<title>Node5</title>
<g id="a_node5"><a xlink:title=" ">
<polygon fill="white" stroke="#bfbfbf" points="96.5,-697.5 96.5,-754.5 137.5,-754.5 137.5,-697.5 96.5,-697.5"/>
<text text-anchor="middle" x="117" y="-742.5" font-family="Helvetica,sans-Serif" font-size="10.00">string</text>
<polyline fill="none" stroke="#bfbfbf" points="96.5,-735.5 137.5,-735.5 "/>
<text text-anchor="middle" x="117" y="-723.5" font-family="Helvetica,sans-Serif" font-size="10.00"> </text>
<polyline fill="none" stroke="#bfbfbf" points="96.5,-716.5 137.5,-716.5 "/>
<text text-anchor="middle" x="117" y="-704.5" font-family="Helvetica,sans-Serif" font-size="10.00"> </text>
</a>
</g>
</g>
<!-- Node5&#45;&gt;Node3 -->
<g id="edge4" class="edge">
<title>Node5&#45;&gt;Node3</title>
<path fill="none" stroke="#404040" d="M117,-697.23C117,-684.25 117,-667.87 117,-650.6"/>
<polygon fill="none" stroke="#404040" points="117,-650.54 113,-644.54 117,-638.54 121,-644.54 117,-650.54"/>
<text text-anchor="middle" x="138.5" y="-671" font-family="Helvetica,sans-Serif" font-size="10.00"> #re</text>
<text text-anchor="middle" x="138.5" y="-660" font-family="Helvetica,sans-Serif" font-size="10.00">+filename</text>
</g>
<!-- Node6 -->
<g id="node6" class="node">
<title>Node6</title>
<g id="a_node6"><a xlink:title=" ">
<polygon fill="white" stroke="#bfbfbf" points="168.5,-697.5 168.5,-754.5 197.5,-754.5 197.5,-697.5 168.5,-697.5"/>
<text text-anchor="middle" x="183" y="-742.5" font-family="Helvetica,sans-Serif" font-size="10.00">int</text>
<polyline fill="none" stroke="#bfbfbf" points="168.5,-735.5 197.5,-735.5 "/>
<text text-anchor="middle" x="183" y="-723.5" font-family="Helvetica,sans-Serif" font-size="10.00"> </text>
<polyline fill="none" stroke="#bfbfbf" points="168.5,-716.5 197.5,-716.5 "/>
<text text-anchor="middle" x="183" y="-704.5" font-family="Helvetica,sans-Serif" font-size="10.00"> </text>
</a>
</g>
</g>
<!-- Node6&#45;&gt;Node3 -->
<g id="edge5" class="edge">
<title>Node6&#45;&gt;Node3</title>
<path fill="none" stroke="#404040" d="M174.4,-697.44C170.45,-685.04 165.62,-670.24 161,-657 160.22,-654.76 159.43,-652.5 158.62,-650.23"/>
<polygon fill="none" stroke="#404040" points="158.56,-650.05 152.78,-645.74 154.53,-638.75 160.31,-643.06 158.56,-650.05"/>
<text text-anchor="middle" x="189.5" y="-665.5" font-family="Helvetica,sans-Serif" font-size="10.00"> +lineNum</text>
</g>
<!-- Node7&#45;&gt;Node2 -->
<g id="edge6" class="edge">
<title>Node7&#45;&gt;Node2</title>
<path fill="none" stroke="orange" d="M168.39,-279.09C161.94,-266.36 155.24,-253.12 148.96,-240.73"/>
<polygon fill="orange" stroke="orange" points="165.38,-280.9 173.02,-288.24 171.63,-277.74 165.38,-280.9"/>
<text text-anchor="middle" x="229" y="-262" font-family="Helvetica,sans-Serif" font-size="10.00"> &lt; EventCancelledException &gt;</text>
</g>
</g>
</svg>
