<?xml version="1.0" encoding="UTF-8" standalone="no"?>
<!DOCTYPE svg PUBLIC "-//W3C//DTD SVG 1.1//EN"
 "http://www.w3.org/Graphics/SVG/1.1/DTD/svg11.dtd">
<!-- Generated by graphviz version 2.50.0 (20211204.2007)
 -->
<!-- Title: MiraiCP::IMiraiData::toString Pages: 1 -->
<svg width="383pt" height="39pt"
 viewBox="0.00 0.00 383.00 39.00" xmlns="http://www.w3.org/2000/svg" xmlns:xlink="http://www.w3.org/1999/xlink">
<g id="graph0" class="graph" transform="scale(1 1) rotate(0) translate(4 35)">
<title>MiraiCP::IMiraiData::toString</title>
<polygon fill="white" stroke="transparent" points="-4,4 -4,-35 379,-35 379,4 -4,4"/>
<!-- Node1 -->
<g id="node1" class="node">
<title>Node1</title>
<g id="a_node1"><a xlink:title="序列化为string, 带锁">
<polygon fill="#bfbfbf" stroke="black" points="0,-0.5 0,-30.5 101,-30.5 101,-0.5 0,-0.5"/>
<text text-anchor="start" x="8" y="-18.5" font-family="Helvetica,sans-Serif" font-size="10.00">MiraiCP::IMiraiData</text>
<text text-anchor="middle" x="50.5" y="-7.5" font-family="Helvetica,sans-Serif" font-size="10.00">::toString</text>
</a>
</g>
</g>
<!-- Node2 -->
<g id="node2" class="node">
<title>Node2</title>
<g id="a_node2"><a xlink:href="a00677.html#a17445e67d1cf31c184cf144f874e82f9" target="_top" xlink:title="转为json, 由子类实现, 多线程安全(带锁)">
<polygon fill="white" stroke="black" points="137,-0.5 137,-30.5 238,-30.5 238,-0.5 137,-0.5"/>
<text text-anchor="start" x="145" y="-18.5" font-family="Helvetica,sans-Serif" font-size="10.00">MiraiCP::IMiraiData</text>
<text text-anchor="middle" x="187.5" y="-7.5" font-family="Helvetica,sans-Serif" font-size="10.00">::toJson</text>
</a>
</g>
</g>
<!-- Node1&#45;&gt;Node2 -->
<g id="edge1" class="edge">
<title>Node1&#45;&gt;Node2</title>
<path fill="none" stroke="midnightblue" d="M101,-15.5C109.24,-15.5 117.87,-15.5 126.34,-15.5"/>
<polygon fill="midnightblue" stroke="midnightblue" points="126.55,-19 136.55,-15.5 126.55,-12 126.55,-19"/>
</g>
<!-- Node3 -->
<g id="node3" class="node">
<title>Node3</title>
<g id="a_node3"><a xlink:href="a00677.html#ae9f9f272fbb0b68b07dd4750745fae1d" target="_top" xlink:title="转为json, 由子类实现, 无锁">
<polygon fill="white" stroke="black" points="274,-0.5 274,-30.5 375,-30.5 375,-0.5 274,-0.5"/>
<text text-anchor="start" x="282" y="-18.5" font-family="Helvetica,sans-Serif" font-size="10.00">MiraiCP::IMiraiData</text>
<text text-anchor="middle" x="324.5" y="-7.5" font-family="Helvetica,sans-Serif" font-size="10.00">::internalToJson</text>
</a>
</g>
</g>
<!-- Node2&#45;&gt;Node3 -->
<g id="edge2" class="edge">
<title>Node2&#45;&gt;Node3</title>
<path fill="none" stroke="midnightblue" d="M238,-15.5C246.24,-15.5 254.87,-15.5 263.34,-15.5"/>
<polygon fill="midnightblue" stroke="midnightblue" points="263.55,-19 273.55,-15.5 263.55,-12 263.55,-19"/>
</g>
</g>
</svg>
