<?xml version="1.0" encoding="UTF-8" standalone="no"?>
<!DOCTYPE svg PUBLIC "-//W3C//DTD SVG 1.1//EN"
 "http://www.w3.org/Graphics/SVG/1.1/DTD/svg11.dtd">
<!-- Generated by graphviz version 9.0.0 (0)
 -->
<!-- Title: MiraiCP::SingleMessage Pages: 1 -->
<svg width="369pt" height="460pt"
 viewBox="0.00 0.00 368.50 460.00" xmlns="http://www.w3.org/2000/svg" xmlns:xlink="http://www.w3.org/1999/xlink">
<g id="graph0" class="graph" transform="scale(1 1) rotate(0) translate(4 456)">
<title>MiraiCP::SingleMessage</title>
<!-- Node1 -->
<g id="Node000001" class="node">
<title>Node1</title>
<g id="a_Node000001"><a xlink:title="MessageChain的组成部分">
<polygon fill="#999999" stroke="none" points="256.5,-300 117.5,-300 117.5,0 256.5,0 256.5,-300"/>
<text text-anchor="start" x="133" y="-286.5" font-family="Helvetica,sans-Serif" font-size="10.00">MiraiCP::SingleMessage</text>
<text text-anchor="start" x="185.5" y="-270.5" font-family="Helvetica,sans-Serif" font-size="10.00"> </text>
<text text-anchor="start" x="121.5" y="-254.5" font-family="Helvetica,sans-Serif" font-size="10.00">+</text>
<text text-anchor="start" x="131.5" y="-254.5" font-family="Helvetica,sans-Serif" font-size="10.00">SingleMessage(int</text>
<text text-anchor="start" x="131.5" y="-242.5" font-family="Helvetica,sans-Serif" font-size="10.00"> inType, std::string</text>
<text text-anchor="start" x="131.5" y="-230.5" font-family="Helvetica,sans-Serif" font-size="10.00"> content, std::string</text>
<text text-anchor="start" x="131.5" y="-218.5" font-family="Helvetica,sans-Serif" font-size="10.00"> prefix=&quot;:&quot;) noexcept</text>
<text text-anchor="start" x="121.5" y="-202.5" font-family="Helvetica,sans-Serif" font-size="10.00">+</text>
<text text-anchor="start" x="131.5" y="-202.5" font-family="Helvetica,sans-Serif" font-size="10.00">~SingleMessage() noexcept</text>
<text text-anchor="start" x="131.5" y="-190.5" font-family="Helvetica,sans-Serif" font-size="10.00"> override=default</text>
<text text-anchor="start" x="121.5" y="-174.5" font-family="Helvetica,sans-Serif" font-size="10.00">+</text>
<text text-anchor="start" x="131.5" y="-174.5" font-family="Helvetica,sans-Serif" font-size="10.00">virtual nlohmann::json</text>
<text text-anchor="start" x="131.5" y="-162.5" font-family="Helvetica,sans-Serif" font-size="10.00"> toJson() const</text>
<text text-anchor="start" x="121.5" y="-146.5" font-family="Helvetica,sans-Serif" font-size="10.00">+</text>
<text text-anchor="start" x="131.5" y="-146.5" font-family="Helvetica,sans-Serif" font-size="10.00">std::string toMiraiCode</text>
<text text-anchor="start" x="131.5" y="-134.5" font-family="Helvetica,sans-Serif" font-size="10.00">() const override</text>
<text text-anchor="start" x="121.5" y="-118.5" font-family="Helvetica,sans-Serif" font-size="10.00">+</text>
<text text-anchor="start" x="131.5" y="-118.5" font-family="Helvetica,sans-Serif" font-size="10.00">bool operator==(const</text>
<text text-anchor="start" x="131.5" y="-106.5" font-family="Helvetica,sans-Serif" font-size="10.00"> SingleMessage &amp;m) const</text>
<text text-anchor="start" x="121.5" y="-90.5" font-family="Helvetica,sans-Serif" font-size="10.00">+</text>
<text text-anchor="start" x="131.5" y="-90.5" font-family="Helvetica,sans-Serif" font-size="10.00">static std::string</text>
<text text-anchor="start" x="131.5" y="-78.5" font-family="Helvetica,sans-Serif" font-size="10.00"> getTypeString(int type)</text>
<text text-anchor="start" x="121.5" y="-62.5" font-family="Helvetica,sans-Serif" font-size="10.00">+</text>
<text text-anchor="start" x="131.5" y="-62.5" font-family="Helvetica,sans-Serif" font-size="10.00">static int getKey(const</text>
<text text-anchor="start" x="131.5" y="-50.5" font-family="Helvetica,sans-Serif" font-size="10.00"> std::string &amp;value)</text>
<text text-anchor="start" x="121.5" y="-34.5" font-family="Helvetica,sans-Serif" font-size="10.00">+</text>
<text text-anchor="start" x="131.5" y="-34.5" font-family="Helvetica,sans-Serif" font-size="10.00">static int getMiraiCodeKey</text>
<text text-anchor="start" x="131.5" y="-22.5" font-family="Helvetica,sans-Serif" font-size="10.00">(const std::string &amp;value)</text>
<text text-anchor="start" x="121.88" y="-6.5" font-family="Helvetica,sans-Serif" font-size="10.00">#</text>
<text text-anchor="start" x="131.5" y="-6.5" font-family="Helvetica,sans-Serif" font-size="10.00">SingleMessage()=default</text>
<polygon fill="#666666" stroke="#666666" points="117.5,-282 117.5,-282 256.5,-282 256.5,-282 117.5,-282"/>
<polygon fill="#666666" stroke="#666666" points="117.5,-266 117.5,-266 256.5,-266 256.5,-266 117.5,-266"/>
<polygon fill="none" stroke="#666666" points="117.5,0 117.5,-300 256.5,-300 256.5,0 117.5,0"/>
</a>
</g>
</g>
<!-- Node2 -->
<g id="Node000002" class="node">
<title>Node2</title>
<g id="a_Node000002"><a xlink:href="a00660.html" target="_top" xlink:title="MiraiCode父类, 指可以被转换成miraicode的类型">
<polygon fill="white" stroke="none" points="120,-452 0,-452 0,-360 120,-360 120,-452"/>
<text text-anchor="start" x="8.25" y="-438.5" font-family="Helvetica,sans-Serif" font-size="10.00">MiraiCP::MiraiCodeable</text>
<text text-anchor="start" x="58.5" y="-422.5" font-family="Helvetica,sans-Serif" font-size="10.00"> </text>
<text text-anchor="start" x="4" y="-406.5" font-family="Helvetica,sans-Serif" font-size="10.00">+</text>
<text text-anchor="start" x="14" y="-406.5" font-family="Helvetica,sans-Serif" font-size="10.00">virtual std::string</text>
<text text-anchor="start" x="14" y="-394.5" font-family="Helvetica,sans-Serif" font-size="10.00"> toMiraiCode() const =0</text>
<text text-anchor="start" x="4" y="-378.5" font-family="Helvetica,sans-Serif" font-size="10.00">+</text>
<text text-anchor="start" x="14" y="-378.5" font-family="Helvetica,sans-Serif" font-size="10.00">virtual ~MiraiCodeable</text>
<text text-anchor="start" x="14" y="-366.5" font-family="Helvetica,sans-Serif" font-size="10.00">()=default</text>
<polygon fill="#666666" stroke="#666666" points="0,-434 0,-434 120,-434 120,-434 0,-434"/>
<polygon fill="#666666" stroke="#666666" points="0,-418 0,-418 120,-418 120,-418 0,-418"/>
<polygon fill="none" stroke="#666666" points="0,-360 0,-452 120,-452 120,-360 0,-360"/>
</a>
</g>
</g>
<!-- Node2&#45;&gt;Node1 -->
<g id="edge1_Node000001_Node000002" class="edge">
<title>Node2&#45;&gt;Node1</title>
<g id="a_edge1_Node000001_Node000002"><a xlink:title=" ">
<path fill="none" stroke="#63b8ff" d="M87.52,-349.96C96.49,-332.02 106.89,-311.21 117.52,-289.96"/>
<polygon fill="none" stroke="#63b8ff" points="84.43,-348.31 83.09,-358.82 90.69,-351.44 84.43,-348.31"/>
</a>
</g>
</g>
<!-- Node3 -->
<g id="Node000003" class="node">
<title>Node3</title>
<g id="a_Node000003"><a xlink:title=" ">
<polygon fill="white" stroke="none" points="172,-432 138,-432 138,-380 172,-380 172,-432"/>
<text text-anchor="start" x="143" y="-418.5" font-family="Helvetica,sans-Serif" font-size="10.00">string</text>
<text text-anchor="start" x="153.5" y="-402.5" font-family="Helvetica,sans-Serif" font-size="10.00"> </text>
<text text-anchor="start" x="153.5" y="-386.5" font-family="Helvetica,sans-Serif" font-size="10.00"> </text>
<polygon fill="#666666" stroke="#666666" points="138,-414 138,-414 172,-414 172,-414 138,-414"/>
<polygon fill="#666666" stroke="#666666" points="138,-398 138,-398 172,-398 172,-398 138,-398"/>
<polygon fill="none" stroke="#666666" points="138,-380 138,-432 172,-432 172,-380 138,-380"/>
</a>
</g>
</g>
<!-- Node3&#45;&gt;Node1 -->
<g id="edge2_Node000001_Node000003" class="edge">
<title>Node3&#45;&gt;Node1</title>
<g id="a_edge2_Node000001_Node000003"><a xlink:title=" ">
<path fill="none" stroke="#63b8ff" d="M154.06,-380.19C153.67,-362.75 153.72,-338.9 155.75,-318 155.92,-316.21 156.11,-314.42 156.3,-312.61"/>
<polygon fill="none" stroke="#63b8ff" points="156.31,-312.49 153.03,-306.07 157.7,-300.57 160.98,-307 156.31,-312.49"/>
</a>
</g>
<text text-anchor="middle" x="175.62" y="-332.5" font-family="Helvetica,sans-Serif" font-size="10.00" fill="grey"> +content</text>
<text text-anchor="middle" x="175.62" y="-320.5" font-family="Helvetica,sans-Serif" font-size="10.00" fill="grey">+prefix</text>
</g>
<!-- Node4 -->
<g id="Node000004" class="node">
<title>Node4</title>
<g id="a_Node000004"><a xlink:title=" ">
<polygon fill="white" stroke="none" points="229,-432 209,-432 209,-380 229,-380 229,-432"/>
<text text-anchor="start" x="213.75" y="-418.5" font-family="Helvetica,sans-Serif" font-size="10.00">int</text>
<text text-anchor="start" x="217.5" y="-402.5" font-family="Helvetica,sans-Serif" font-size="10.00"> </text>
<text text-anchor="start" x="217.5" y="-386.5" font-family="Helvetica,sans-Serif" font-size="10.00"> </text>
<polygon fill="#666666" stroke="#666666" points="209,-414 209,-414 229,-414 229,-414 209,-414"/>
<polygon fill="#666666" stroke="#666666" points="209,-398 209,-398 229,-398 229,-398 209,-398"/>
<polygon fill="none" stroke="#666666" points="209,-380 209,-432 229,-432 229,-380 209,-380"/>
</a>
</g>
</g>
<!-- Node4&#45;&gt;Node1 -->
<g id="edge3_Node000001_Node000004" class="edge">
<title>Node4&#45;&gt;Node1</title>
<g id="a_edge3_Node000001_Node000004"><a xlink:title=" ">
<path fill="none" stroke="#63b8ff" d="M215.87,-380.18C213.73,-363.16 210.68,-338.94 207.35,-312.56"/>
<polygon fill="none" stroke="#63b8ff" points="207.37,-312.69 202.65,-307.24 205.87,-300.79 210.59,-306.24 207.37,-312.69"/>
</a>
</g>
<text text-anchor="middle" x="240.75" y="-326.5" font-family="Helvetica,sans-Serif" font-size="10.00" fill="grey"> +internalType</text>
</g>
<!-- Node5 -->
<g id="Node000005" class="node">
<title>Node5</title>
<g id="a_Node000005"><a xlink:title=" ">
<polygon fill="white" stroke="none" points="360.5,-438 247.5,-438 247.5,-374 360.5,-374 360.5,-438"/>
<text text-anchor="start" x="252.25" y="-424.5" font-family="Helvetica,sans-Serif" font-size="10.00">static const char *const</text>
<text text-anchor="start" x="288.62" y="-412.5" font-family="Helvetica,sans-Serif" font-size="10.00"> *const</text>
<text text-anchor="start" x="302.5" y="-396.5" font-family="Helvetica,sans-Serif" font-size="10.00"> </text>
<text text-anchor="start" x="302.5" y="-380.5" font-family="Helvetica,sans-Serif" font-size="10.00"> </text>
<polygon fill="#666666" stroke="#666666" points="247.5,-408 247.5,-408 360.5,-408 360.5,-408 247.5,-408"/>
<polygon fill="#666666" stroke="#666666" points="247.5,-392 247.5,-392 360.5,-392 360.5,-392 247.5,-392"/>
<polygon fill="none" stroke="#666666" points="247.5,-374 247.5,-438 360.5,-438 360.5,-374 247.5,-374"/>
</a>
</g>
</g>
<!-- Node5&#45;&gt;Node1 -->
<g id="edge4_Node000001_Node000005" class="edge">
<title>Node5&#45;&gt;Node1</title>
<g id="a_edge4_Node000001_Node000005"><a xlink:title=" ">
<path fill="none" stroke="#63b8ff" d="M295.58,-374.32C290.59,-357.43 283.73,-336.26 276,-318 271.67,-307.78 266.94,-297.35 261.98,-286.94"/>
<polygon fill="none" stroke="#63b8ff" points="261.92,-286.82 255.7,-283.16 256.68,-276.02 262.9,-279.67 261.92,-286.82"/>
</a>
</g>
<text text-anchor="middle" x="322.25" y="-332.5" font-family="Helvetica,sans-Serif" font-size="10.00" fill="grey"> +messageType</text>
<text text-anchor="middle" x="322.25" y="-320.5" font-family="Helvetica,sans-Serif" font-size="10.00" fill="grey">+miraiCodeName</text>
</g>
</g>
</svg>
