<?xml version="1.0" encoding="UTF-8" standalone="no"?>
<!DOCTYPE svg PUBLIC "-//W3C//DTD SVG 1.1//EN"
 "http://www.w3.org/Graphics/SVG/1.1/DTD/svg11.dtd">
<!-- Generated by graphviz version 2.50.0 (20211204.2007)
 -->
<!-- Title: MiraiCP::ForwardedMessage::ForwardedMessage Pages: 1 -->
<svg width="742pt" height="186pt"
 viewBox="0.00 0.00 742.00 186.00" xmlns="http://www.w3.org/2000/svg" xmlns:xlink="http://www.w3.org/1999/xlink">
<g id="graph0" class="graph" transform="scale(1 1) rotate(0) translate(4 182)">
<title>MiraiCP::ForwardedMessage::ForwardedMessage</title>
<polygon fill="white" stroke="transparent" points="-4,4 -4,-182 738,-182 738,4 -4,4"/>
<!-- Node1 -->
<g id="node1" class="node">
<title>Node1</title>
<g id="a_node1"><a xlink:title="构建一条聊天记录">
<polygon fill="#bfbfbf" stroke="black" points="592,-73.5 592,-103.5 734,-103.5 734,-73.5 592,-73.5"/>
<text text-anchor="start" x="600" y="-91.5" font-family="Helvetica,sans-Serif" font-size="10.00">MiraiCP::ForwardedMessage</text>
<text text-anchor="middle" x="663" y="-80.5" font-family="Helvetica,sans-Serif" font-size="10.00">::ForwardedMessage</text>
</a>
</g>
</g>
<!-- Node2 -->
<g id="node2" class="node">
<title>Node2</title>
<g id="a_node2"><a xlink:href="a00645.html#ac802edcd83cf04abe4cc602c901a933f" target="_top" xlink:title=" ">
<polygon fill="white" stroke="black" points="389,-73.5 389,-103.5 556,-103.5 556,-73.5 389,-73.5"/>
<text text-anchor="start" x="397" y="-91.5" font-family="Helvetica,sans-Serif" font-size="10.00">MiraiCP::ForwardedMessage</text>
<text text-anchor="middle" x="472.5" y="-80.5" font-family="Helvetica,sans-Serif" font-size="10.00">::deserializationFromMessageJson</text>
</a>
</g>
</g>
<!-- Node1&#45;&gt;Node2 -->
<g id="edge1" class="edge">
<title>Node1&#45;&gt;Node2</title>
<path fill="none" stroke="midnightblue" d="M581.62,-88.5C573.19,-88.5 564.61,-88.5 556.16,-88.5"/>
<polygon fill="midnightblue" stroke="midnightblue" points="581.81,-92 591.81,-88.5 581.81,-85 581.81,-92"/>
</g>
<!-- Node2&#45;&gt;Node2 -->
<g id="edge2" class="edge">
<title>Node2&#45;&gt;Node2</title>
<path fill="none" stroke="midnightblue" d="M506.26,-113.96C502.07,-118.68 490.82,-122 472.5,-122 442.44,-122 431.4,-113.06 439.39,-103.66"/>
<polygon fill="midnightblue" stroke="midnightblue" points="509.73,-113.42 505.61,-103.66 502.75,-113.86 509.73,-113.42"/>
</g>
<!-- Node3 -->
<g id="node3" class="node">
<title>Node3</title>
<g id="a_node3"><a xlink:href="a00721.html#ad76190cce563a29637e62105e7db52d9" target="_top" xlink:title=" ">
<polygon fill="white" stroke="black" points="186,-73.5 186,-103.5 353,-103.5 353,-73.5 186,-73.5"/>
<text text-anchor="start" x="194" y="-91.5" font-family="Helvetica,sans-Serif" font-size="10.00">MiraiCP::MessageChain</text>
<text text-anchor="middle" x="269.5" y="-80.5" font-family="Helvetica,sans-Serif" font-size="10.00">::deserializationFromMessageJson</text>
</a>
</g>
</g>
<!-- Node2&#45;&gt;Node3 -->
<g id="edge3" class="edge">
<title>Node2&#45;&gt;Node3</title>
<path fill="none" stroke="midnightblue" d="M378.85,-81.77C370.27,-81.73 361.61,-81.75 353.13,-81.85"/>
<polygon fill="midnightblue" stroke="midnightblue" points="378.85,-85.27 388.88,-81.85 378.9,-78.27 378.85,-85.27"/>
</g>
<!-- Node3&#45;&gt;Node2 -->
<g id="edge4" class="edge">
<title>Node3&#45;&gt;Node2</title>
<path fill="none" stroke="midnightblue" d="M363.15,-95.23C371.73,-95.27 380.39,-95.25 388.88,-95.15"/>
<polygon fill="midnightblue" stroke="midnightblue" points="363.16,-91.73 353.13,-95.15 363.1,-98.73 363.16,-91.73"/>
</g>
<!-- Node4 -->
<g id="node4" class="node">
<title>Node4</title>
<g id="a_node4"><a xlink:href="a00549.html#aca8d122b5ac259f28f372f02cdd38930" target="_top" xlink:title=" ">
<polygon fill="white" stroke="black" points="12,-147.5 12,-177.5 138,-177.5 138,-147.5 12,-147.5"/>
<text text-anchor="start" x="20" y="-165.5" font-family="Helvetica,sans-Serif" font-size="10.00">MiraiCP::Event::incoming</text>
<text text-anchor="middle" x="75" y="-154.5" font-family="Helvetica,sans-Serif" font-size="10.00">Event</text>
</a>
</g>
</g>
<!-- Node3&#45;&gt;Node4 -->
<g id="edge5" class="edge">
<title>Node3&#45;&gt;Node4</title>
<path fill="none" stroke="midnightblue" d="M225.62,-107.64C203.26,-117.35 175.36,-129.06 150,-138.5 141.77,-141.56 132.95,-144.62 124.37,-147.47"/>
<polygon fill="midnightblue" stroke="midnightblue" points="227.08,-110.82 234.84,-103.61 224.28,-104.41 227.08,-110.82"/>
</g>
<!-- Node5 -->
<g id="node5" class="node">
<title>Node5</title>
<g id="a_node5"><a xlink:href="a00477.html#addb043788194a8bffd2eeddff17080ef" target="_top" xlink:title="取群聊下一个消息(群聊与本事件一样)">
<polygon fill="white" stroke="black" points="1.5,-98.5 1.5,-128.5 148.5,-128.5 148.5,-98.5 1.5,-98.5"/>
<text text-anchor="start" x="9.5" y="-116.5" font-family="Helvetica,sans-Serif" font-size="10.00">MiraiCP::GroupMessageEvent</text>
<text text-anchor="middle" x="75" y="-105.5" font-family="Helvetica,sans-Serif" font-size="10.00">::nextMessage</text>
</a>
</g>
</g>
<!-- Node3&#45;&gt;Node5 -->
<g id="edge6" class="edge">
<title>Node3&#45;&gt;Node5</title>
<path fill="none" stroke="midnightblue" d="M175.58,-100.57C166.55,-101.74 157.47,-102.92 148.68,-104.06"/>
<polygon fill="midnightblue" stroke="midnightblue" points="176.28,-104.01 185.75,-99.25 175.38,-97.06 176.28,-104.01"/>
</g>
<!-- Node6 -->
<g id="node6" class="node">
<title>Node6</title>
<g id="a_node6"><a xlink:href="a00481.html#a2fadddd37811d8dcbf7183d98eba3034" target="_top" xlink:title="取下一个消息(发送人和接收人和本事件一样)">
<polygon fill="white" stroke="black" points="0,-49.5 0,-79.5 150,-79.5 150,-49.5 0,-49.5"/>
<text text-anchor="start" x="8" y="-67.5" font-family="Helvetica,sans-Serif" font-size="10.00">MiraiCP::PrivateMessageEvent</text>
<text text-anchor="middle" x="75" y="-56.5" font-family="Helvetica,sans-Serif" font-size="10.00">::nextMessage</text>
</a>
</g>
</g>
<!-- Node3&#45;&gt;Node6 -->
<g id="edge7" class="edge">
<title>Node3&#45;&gt;Node6</title>
<path fill="none" stroke="midnightblue" d="M175.72,-76.93C167.16,-75.86 158.55,-74.79 150.18,-73.75"/>
<polygon fill="midnightblue" stroke="midnightblue" points="175.39,-80.42 185.75,-78.18 176.26,-73.47 175.39,-80.42"/>
</g>
<!-- Node7 -->
<g id="node7" class="node">
<title>Node7</title>
<g id="a_node7"><a xlink:href="a00477.html#a67d98fb7d7214cb2bc916da47e3e5ce3" target="_top" xlink:title="取群聊中同群成员的下一个消息(发送人和群与本事件一样)">
<polygon fill="white" stroke="black" points="1.5,-0.5 1.5,-30.5 148.5,-30.5 148.5,-0.5 1.5,-0.5"/>
<text text-anchor="start" x="9.5" y="-18.5" font-family="Helvetica,sans-Serif" font-size="10.00">MiraiCP::GroupMessageEvent</text>
<text text-anchor="middle" x="75" y="-7.5" font-family="Helvetica,sans-Serif" font-size="10.00">::senderNextMessage</text>
</a>
</g>
</g>
<!-- Node3&#45;&gt;Node7 -->
<g id="edge8" class="edge">
<title>Node3&#45;&gt;Node7</title>
<path fill="none" stroke="midnightblue" d="M223.5,-69.54C201.47,-60.45 174.47,-49.58 150,-40.5 140.97,-37.15 131.26,-33.74 121.94,-30.55"/>
<polygon fill="midnightblue" stroke="midnightblue" points="222.36,-72.86 232.93,-73.45 225.04,-66.39 222.36,-72.86"/>
</g>
</g>
</svg>
