<?xml version="1.0" encoding="UTF-8" standalone="no"?>
<!DOCTYPE svg PUBLIC "-//W3C//DTD SVG 1.1//EN"
 "http://www.w3.org/Graphics/SVG/1.1/DTD/svg11.dtd">
<!-- Generated by graphviz version 2.50.0 (20211204.2007)
 -->
<!-- Title: MiraiCP::EventCancelledException Pages: 1 -->
<svg width="277pt" height="1071pt"
 viewBox="0.00 0.00 277.00 1071.00" xmlns="http://www.w3.org/2000/svg" xmlns:xlink="http://www.w3.org/1999/xlink">
<g id="graph0" class="graph" transform="scale(1 1) rotate(0) translate(4 1067)">
<title>MiraiCP::EventCancelledException</title>
<polygon fill="white" stroke="transparent" points="-4,4 -4,-1067 273,-1067 273,4 -4,4"/>
<!-- Node1 -->
<g id="node1" class="node">
<title>Node1</title>
<g id="a_node1"><a xlink:title=" ">
<polygon fill="#bfbfbf" stroke="black" points="1.5,-0.5 1.5,-134.5 168.5,-134.5 168.5,-0.5 1.5,-0.5"/>
<text text-anchor="middle" x="85" y="-122.5" font-family="Helvetica,sans-Serif" font-size="10.00">MiraiCP::EventCancelledException</text>
<polyline fill="none" stroke="black" points="1.5,-115.5 168.5,-115.5 "/>
<text text-anchor="middle" x="85" y="-103.5" font-family="Helvetica,sans-Serif" font-size="10.00"> </text>
<polyline fill="none" stroke="black" points="1.5,-96.5 168.5,-96.5 "/>
<text text-anchor="start" x="9.5" y="-84.5" font-family="Helvetica,sans-Serif" font-size="10.00">+ EventCancelledException</text>
<text text-anchor="start" x="9.5" y="-73.5" font-family="Helvetica,sans-Serif" font-size="10.00">(const string &amp;msg, string</text>
<text text-anchor="start" x="9.5" y="-62.5" font-family="Helvetica,sans-Serif" font-size="10.00"> _filename, int _lineNum)</text>
<text text-anchor="start" x="9.5" y="-51.5" font-family="Helvetica,sans-Serif" font-size="10.00">+ EventCancelledException</text>
<text text-anchor="start" x="9.5" y="-40.5" font-family="Helvetica,sans-Serif" font-size="10.00">(const string &amp;msg, string</text>
<text text-anchor="start" x="9.5" y="-29.5" font-family="Helvetica,sans-Serif" font-size="10.00"> _filename, int _lineNum)</text>
<text text-anchor="start" x="9.5" y="-18.5" font-family="Helvetica,sans-Serif" font-size="10.00">+ static string exceptionType()</text>
<text text-anchor="start" x="9.5" y="-7.5" font-family="Helvetica,sans-Serif" font-size="10.00">+ static string exceptionType()</text>
</a>
</g>
</g>
<!-- Node2 -->
<g id="node2" class="node">
<title>Node2</title>
<g id="a_node2"><a xlink:href="a00564.html" target="_top" xlink:title=" ">
<polygon fill="white" stroke="black" points="0,-172.5 0,-339.5 170,-339.5 170,-172.5 0,-172.5"/>
<text text-anchor="start" x="8" y="-327.5" font-family="Helvetica,sans-Serif" font-size="10.00">MiraiCP::MiraiCPException</text>
<text text-anchor="middle" x="85" y="-316.5" font-family="Helvetica,sans-Serif" font-size="10.00">CRTP&lt; EventCancelledException &gt;</text>
<polyline fill="none" stroke="black" points="0,-309.5 170,-309.5 "/>
<text text-anchor="middle" x="85" y="-297.5" font-family="Helvetica,sans-Serif" font-size="10.00"> </text>
<polyline fill="none" stroke="black" points="0,-290.5 170,-290.5 "/>
<text text-anchor="start" x="8" y="-278.5" font-family="Helvetica,sans-Serif" font-size="10.00">+ MiraiCPExceptionCRTP</text>
<text text-anchor="start" x="8" y="-267.5" font-family="Helvetica,sans-Serif" font-size="10.00">(string _re, string </text>
<text text-anchor="start" x="8" y="-256.5" font-family="Helvetica,sans-Serif" font-size="10.00">_filename, int _lineNum)</text>
<text text-anchor="start" x="8" y="-245.5" font-family="Helvetica,sans-Serif" font-size="10.00">+ MiraiCPExceptionCRTP</text>
<text text-anchor="start" x="8" y="-234.5" font-family="Helvetica,sans-Serif" font-size="10.00">(string _re, string </text>
<text text-anchor="start" x="8" y="-223.5" font-family="Helvetica,sans-Serif" font-size="10.00">_filename, int _lineNum)</text>
<text text-anchor="start" x="8" y="-212.5" font-family="Helvetica,sans-Serif" font-size="10.00">+ string getExceptionType</text>
<text text-anchor="start" x="8" y="-201.5" font-family="Helvetica,sans-Serif" font-size="10.00">() const override</text>
<text text-anchor="start" x="8" y="-190.5" font-family="Helvetica,sans-Serif" font-size="10.00">+ string getExceptionType</text>
<text text-anchor="start" x="8" y="-179.5" font-family="Helvetica,sans-Serif" font-size="10.00">() const override</text>
</a>
</g>
</g>
<!-- Node2&#45;&gt;Node1 -->
<g id="edge1" class="edge">
<title>Node2&#45;&gt;Node1</title>
<path fill="none" stroke="midnightblue" d="M78.25,-162.25C78.25,-152.9 78.33,-143.53 78.51,-134.54"/>
<polygon fill="none" stroke="midnightblue" points="74.75,-162.4 78.29,-172.38 81.75,-162.37 74.75,-162.4"/>
</g>
<!-- Node2&#45;&gt;Node1 -->
<g id="edge11" class="edge">
<title>Node2&#45;&gt;Node1</title>
<path fill="none" stroke="midnightblue" d="M91.75,-162.25C91.75,-152.9 91.67,-143.53 91.49,-134.54"/>
<polygon fill="none" stroke="midnightblue" points="88.25,-162.37 91.71,-172.38 95.25,-162.4 88.25,-162.37"/>
</g>
<!-- Node3 -->
<g id="node3" class="node">
<title>Node3</title>
<g id="a_node3"><a xlink:href="a00560.html" target="_top" xlink:title="总异常抽象类，用于一般捕获，不要直接抛出该类，不知道抛出什么的时候请抛出 MiraiCPException">
<polygon fill="white" stroke="black" points="27,-592.5 27,-946.5 185,-946.5 185,-592.5 27,-592.5"/>
<text text-anchor="middle" x="106" y="-934.5" font-family="Helvetica,sans-Serif" font-size="10.00">MiraiCP::MiraiCPExceptionBase</text>
<polyline fill="none" stroke="black" points="27,-927.5 185,-927.5 "/>
<text text-anchor="middle" x="106" y="-915.5" font-family="Helvetica,sans-Serif" font-size="10.00"> </text>
<polyline fill="none" stroke="black" points="27,-908.5 185,-908.5 "/>
<text text-anchor="start" x="35" y="-896.5" font-family="Helvetica,sans-Serif" font-size="10.00">+ ~MiraiCPExceptionBase</text>
<text text-anchor="start" x="35" y="-885.5" font-family="Helvetica,sans-Serif" font-size="10.00">() override=default</text>
<text text-anchor="start" x="35" y="-874.5" font-family="Helvetica,sans-Serif" font-size="10.00">+ const char * what()</text>
<text text-anchor="start" x="35" y="-863.5" font-family="Helvetica,sans-Serif" font-size="10.00"> const noexcept override</text>
<text text-anchor="start" x="35" y="-852.5" font-family="Helvetica,sans-Serif" font-size="10.00">+ string getError() const</text>
<text text-anchor="start" x="35" y="-841.5" font-family="Helvetica,sans-Serif" font-size="10.00">+ void raise() const</text>
<text text-anchor="start" x="35" y="-830.5" font-family="Helvetica,sans-Serif" font-size="10.00">+ virtual void basicRaise</text>
<text text-anchor="start" x="35" y="-819.5" font-family="Helvetica,sans-Serif" font-size="10.00">() const</text>
<text text-anchor="start" x="35" y="-808.5" font-family="Helvetica,sans-Serif" font-size="10.00">+ virtual string getException</text>
<text text-anchor="start" x="35" y="-797.5" font-family="Helvetica,sans-Serif" font-size="10.00">Type() const =0</text>
<text text-anchor="start" x="35" y="-786.5" font-family="Helvetica,sans-Serif" font-size="10.00">+ ~MiraiCPExceptionBase</text>
<text text-anchor="start" x="35" y="-775.5" font-family="Helvetica,sans-Serif" font-size="10.00">() override=default</text>
<text text-anchor="start" x="35" y="-764.5" font-family="Helvetica,sans-Serif" font-size="10.00">+ const char * what()</text>
<text text-anchor="start" x="35" y="-753.5" font-family="Helvetica,sans-Serif" font-size="10.00"> const noexcept override</text>
<text text-anchor="start" x="35" y="-742.5" font-family="Helvetica,sans-Serif" font-size="10.00">+ string getError() const</text>
<text text-anchor="start" x="35" y="-731.5" font-family="Helvetica,sans-Serif" font-size="10.00">+ void raise() const</text>
<text text-anchor="start" x="35" y="-720.5" font-family="Helvetica,sans-Serif" font-size="10.00">+ virtual void basicRaise</text>
<text text-anchor="start" x="35" y="-709.5" font-family="Helvetica,sans-Serif" font-size="10.00">() const</text>
<text text-anchor="start" x="35" y="-698.5" font-family="Helvetica,sans-Serif" font-size="10.00">+ virtual string getException</text>
<text text-anchor="start" x="35" y="-687.5" font-family="Helvetica,sans-Serif" font-size="10.00">Type() const =0</text>
<text text-anchor="start" x="35" y="-676.5" font-family="Helvetica,sans-Serif" font-size="10.00">+ static string exceptionType()</text>
<text text-anchor="start" x="35" y="-665.5" font-family="Helvetica,sans-Serif" font-size="10.00">+ static string exceptionType()</text>
<text text-anchor="start" x="35" y="-654.5" font-family="Helvetica,sans-Serif" font-size="10.00"># MiraiCPExceptionBase</text>
<text text-anchor="start" x="35" y="-643.5" font-family="Helvetica,sans-Serif" font-size="10.00">(string info, string</text>
<text text-anchor="start" x="35" y="-632.5" font-family="Helvetica,sans-Serif" font-size="10.00"> _filename, int _lineNum)</text>
<text text-anchor="start" x="35" y="-621.5" font-family="Helvetica,sans-Serif" font-size="10.00"># MiraiCPExceptionBase</text>
<text text-anchor="start" x="35" y="-610.5" font-family="Helvetica,sans-Serif" font-size="10.00">(string info, string</text>
<text text-anchor="start" x="35" y="-599.5" font-family="Helvetica,sans-Serif" font-size="10.00"> _filename, int _lineNum)</text>
</a>
</g>
</g>
<!-- Node3&#45;&gt;Node2 -->
<g id="edge2" class="edge">
<title>Node3&#45;&gt;Node2</title>
<path fill="none" stroke="midnightblue" d="M91.84,-582.37C87.86,-499.1 84.47,-405.18 83.27,-339.73"/>
<polygon fill="none" stroke="midnightblue" points="88.35,-582.65 92.32,-592.47 95.34,-582.31 88.35,-582.65"/>
</g>
<!-- Node3&#45;&gt;Node2 -->
<g id="edge7" class="edge">
<title>Node3&#45;&gt;Node2</title>
<path fill="none" stroke="midnightblue" d="M104.88,-582.37C102.02,-499.1 97.7,-405.18 93.52,-339.73"/>
<polygon fill="none" stroke="midnightblue" points="101.39,-582.59 105.22,-592.47 108.38,-582.36 101.39,-582.59"/>
</g>
<!-- Node7 -->
<g id="node7" class="node">
<title>Node7</title>
<g id="a_node7"><a xlink:href="a00564.html" target="_top" xlink:title="总异常CRTP抽象类，不要直接抛出该类，不知道抛出什么的时候请抛出 MiraiCPException。 该类是用于继承的基类，需要新的异常类型时，继承该类并以子类作为模板参数。 子类需要实现的方法：">
<polygon fill="white" stroke="black" points="122.5,-387.5 122.5,-554.5 257.5,-554.5 257.5,-387.5 122.5,-387.5"/>
<text text-anchor="start" x="130.5" y="-542.5" font-family="Helvetica,sans-Serif" font-size="10.00">MiraiCP::MiraiCPException</text>
<text text-anchor="middle" x="190" y="-531.5" font-family="Helvetica,sans-Serif" font-size="10.00">CRTP&lt; T &gt;</text>
<polyline fill="none" stroke="black" points="122.5,-524.5 257.5,-524.5 "/>
<text text-anchor="middle" x="190" y="-512.5" font-family="Helvetica,sans-Serif" font-size="10.00"> </text>
<polyline fill="none" stroke="black" points="122.5,-505.5 257.5,-505.5 "/>
<text text-anchor="start" x="130.5" y="-493.5" font-family="Helvetica,sans-Serif" font-size="10.00">+ MiraiCPExceptionCRTP</text>
<text text-anchor="start" x="130.5" y="-482.5" font-family="Helvetica,sans-Serif" font-size="10.00">(string _re, string </text>
<text text-anchor="start" x="130.5" y="-471.5" font-family="Helvetica,sans-Serif" font-size="10.00">_filename, int _lineNum)</text>
<text text-anchor="start" x="130.5" y="-460.5" font-family="Helvetica,sans-Serif" font-size="10.00">+ string getExceptionType</text>
<text text-anchor="start" x="130.5" y="-449.5" font-family="Helvetica,sans-Serif" font-size="10.00">() const override</text>
<text text-anchor="start" x="130.5" y="-438.5" font-family="Helvetica,sans-Serif" font-size="10.00">+ MiraiCPExceptionCRTP</text>
<text text-anchor="start" x="130.5" y="-427.5" font-family="Helvetica,sans-Serif" font-size="10.00">(string _re, string </text>
<text text-anchor="start" x="130.5" y="-416.5" font-family="Helvetica,sans-Serif" font-size="10.00">_filename, int _lineNum)</text>
<text text-anchor="start" x="130.5" y="-405.5" font-family="Helvetica,sans-Serif" font-size="10.00">+ string getExceptionType</text>
<text text-anchor="start" x="130.5" y="-394.5" font-family="Helvetica,sans-Serif" font-size="10.00">() const override</text>
</a>
</g>
</g>
<!-- Node3&#45;&gt;Node7 -->
<g id="edge9" class="edge">
<title>Node3&#45;&gt;Node7</title>
<path fill="none" stroke="midnightblue" d="M152.13,-582.53C154.95,-572.96 157.74,-563.62 160.45,-554.67"/>
<polygon fill="none" stroke="midnightblue" points="148.76,-581.59 149.31,-592.17 155.48,-583.56 148.76,-581.59"/>
</g>
<!-- Node3&#45;&gt;Node7 -->
<g id="edge10" class="edge">
<title>Node3&#45;&gt;Node7</title>
<path fill="none" stroke="midnightblue" d="M165.32,-582.23C167.9,-572.77 170.38,-563.52 172.7,-554.67"/>
<polygon fill="none" stroke="midnightblue" points="161.86,-581.6 162.6,-592.17 168.61,-583.45 161.86,-581.6"/>
</g>
<!-- Node4 -->
<g id="node4" class="node">
<title>Node4</title>
<g id="a_node4"><a xlink:title=" ">
<polygon fill="white" stroke="#bfbfbf" points="31,-1005.5 31,-1062.5 109,-1062.5 109,-1005.5 31,-1005.5"/>
<text text-anchor="middle" x="70" y="-1050.5" font-family="Helvetica,sans-Serif" font-size="10.00">std::exception</text>
<polyline fill="none" stroke="#bfbfbf" points="31,-1043.5 109,-1043.5 "/>
<text text-anchor="middle" x="70" y="-1031.5" font-family="Helvetica,sans-Serif" font-size="10.00"> </text>
<polyline fill="none" stroke="#bfbfbf" points="31,-1024.5 109,-1024.5 "/>
<text text-anchor="middle" x="70" y="-1012.5" font-family="Helvetica,sans-Serif" font-size="10.00"> </text>
</a>
</g>
</g>
<!-- Node4&#45;&gt;Node3 -->
<g id="edge3" class="edge">
<title>Node4&#45;&gt;Node3</title>
<path fill="none" stroke="midnightblue" d="M70.26,-995.4C71.47,-981.54 73.28,-964.77 75.45,-946.71"/>
<polygon fill="none" stroke="midnightblue" points="66.77,-995.15 69.45,-1005.4 73.74,-995.72 66.77,-995.15"/>
</g>
<!-- Node4&#45;&gt;Node3 -->
<g id="edge4" class="edge">
<title>Node4&#45;&gt;Node3</title>
<path fill="none" stroke="midnightblue" d="M80.06,-995.4C82.64,-981.54 85.44,-964.77 88.22,-946.71"/>
<polygon fill="none" stroke="midnightblue" points="76.58,-994.92 78.12,-1005.4 83.46,-996.25 76.58,-994.92"/>
</g>
<!-- Node5 -->
<g id="node5" class="node">
<title>Node5</title>
<g id="a_node5"><a xlink:title=" ">
<polygon fill="white" stroke="#bfbfbf" points="127.5,-1005.5 127.5,-1062.5 168.5,-1062.5 168.5,-1005.5 127.5,-1005.5"/>
<text text-anchor="middle" x="148" y="-1050.5" font-family="Helvetica,sans-Serif" font-size="10.00">string</text>
<polyline fill="none" stroke="#bfbfbf" points="127.5,-1043.5 168.5,-1043.5 "/>
<text text-anchor="middle" x="148" y="-1031.5" font-family="Helvetica,sans-Serif" font-size="10.00"> </text>
<polyline fill="none" stroke="#bfbfbf" points="127.5,-1024.5 168.5,-1024.5 "/>
<text text-anchor="middle" x="148" y="-1012.5" font-family="Helvetica,sans-Serif" font-size="10.00"> </text>
</a>
</g>
</g>
<!-- Node5&#45;&gt;Node3 -->
<g id="edge5" class="edge">
<title>Node5&#45;&gt;Node3</title>
<path fill="none" stroke="#404040" d="M143.58,-1005.4C141.56,-992.77 138.98,-976.62 136.11,-958.71"/>
<polygon fill="none" stroke="#404040" points="136.09,-958.56 131.19,-953.27 134.19,-946.71 139.09,-952 136.09,-958.56"/>
<text text-anchor="middle" x="160.5" y="-979" font-family="Helvetica,sans-Serif" font-size="10.00"> #re</text>
<text text-anchor="middle" x="160.5" y="-968" font-family="Helvetica,sans-Serif" font-size="10.00">+filename</text>
</g>
<!-- Node6 -->
<g id="node6" class="node">
<title>Node6</title>
<g id="a_node6"><a xlink:title=" ">
<polygon fill="white" stroke="#bfbfbf" points="192.5,-1005.5 192.5,-1062.5 221.5,-1062.5 221.5,-1005.5 192.5,-1005.5"/>
<text text-anchor="middle" x="207" y="-1050.5" font-family="Helvetica,sans-Serif" font-size="10.00">int</text>
<polyline fill="none" stroke="#bfbfbf" points="192.5,-1043.5 221.5,-1043.5 "/>
<text text-anchor="middle" x="207" y="-1031.5" font-family="Helvetica,sans-Serif" font-size="10.00"> </text>
<polyline fill="none" stroke="#bfbfbf" points="192.5,-1024.5 221.5,-1024.5 "/>
<text text-anchor="middle" x="207" y="-1012.5" font-family="Helvetica,sans-Serif" font-size="10.00"> </text>
</a>
</g>
</g>
<!-- Node6&#45;&gt;Node3 -->
<g id="edge6" class="edge">
<title>Node6&#45;&gt;Node3</title>
<path fill="none" stroke="#404040" d="M198.57,-1005.38C194.65,-992.97 189.8,-978.17 185,-965 184.14,-962.63 183.26,-960.24 182.37,-957.84"/>
<polygon fill="none" stroke="#404040" points="182.35,-957.77 176.51,-953.55 178.16,-946.53 184,-950.76 182.35,-957.77"/>
<text text-anchor="middle" x="214.5" y="-973.5" font-family="Helvetica,sans-Serif" font-size="10.00"> +lineNum</text>
</g>
<!-- Node7&#45;&gt;Node2 -->
<g id="edge8" class="edge">
<title>Node7&#45;&gt;Node2</title>
<path fill="none" stroke="orange" d="M144.69,-378.09C138.39,-365.3 131.94,-352.22 125.72,-339.61"/>
<polygon fill="orange" stroke="orange" points="141.69,-379.92 149.25,-387.34 147.97,-376.83 141.69,-379.92"/>
<text text-anchor="middle" x="203" y="-361" font-family="Helvetica,sans-Serif" font-size="10.00"> &lt; EventCancelledException &gt;</text>
</g>
</g>
</svg>
