<?xml version="1.0" encoding="UTF-8" standalone="no"?>
<!DOCTYPE svg PUBLIC "-//W3C//DTD SVG 1.1//EN"
 "http://www.w3.org/Graphics/SVG/1.1/DTD/svg11.dtd">
<!-- Generated by graphviz version 2.50.0 (20211204.2007)
 -->
<!-- Title: MiraiCP::Group::AnnouncementParams Pages: 1 -->
<svg width="163pt" height="259pt"
 viewBox="0.00 0.00 163.00 259.00" xmlns="http://www.w3.org/2000/svg" xmlns:xlink="http://www.w3.org/1999/xlink">
<g id="graph0" class="graph" transform="scale(1 1) rotate(0) translate(4 255)">
<title>MiraiCP::Group::AnnouncementParams</title>
<polygon fill="white" stroke="transparent" points="-4,4 -4,-255 159,-255 159,4 -4,4"/>
<!-- Node1 -->
<g id="node1" class="node">
<title>Node1</title>
<g id="a_node1"><a xlink:title="群公告参数">
<polygon fill="#bfbfbf" stroke="black" points="0,-0.5 0,-101.5 155,-101.5 155,-0.5 0,-0.5"/>
<text text-anchor="start" x="8" y="-89.5" font-family="Helvetica,sans-Serif" font-size="10.00">MiraiCP::Group::Announcement</text>
<text text-anchor="middle" x="77.5" y="-78.5" font-family="Helvetica,sans-Serif" font-size="10.00">Params</text>
<polyline fill="none" stroke="black" points="0,-71.5 155,-71.5 "/>
<text text-anchor="middle" x="77.5" y="-59.5" font-family="Helvetica,sans-Serif" font-size="10.00"> </text>
<polyline fill="none" stroke="black" points="0,-52.5 155,-52.5 "/>
<text text-anchor="start" x="8" y="-40.5" font-family="Helvetica,sans-Serif" font-size="10.00">+ nlohmann::json serialize</text>
<text text-anchor="start" x="8" y="-29.5" font-family="Helvetica,sans-Serif" font-size="10.00">ToJson()</text>
<text text-anchor="start" x="8" y="-18.5" font-family="Helvetica,sans-Serif" font-size="10.00">+ nlohmann::json serialize</text>
<text text-anchor="start" x="8" y="-7.5" font-family="Helvetica,sans-Serif" font-size="10.00">ToJson()</text>
</a>
</g>
</g>
<!-- Node2 -->
<g id="node2" class="node">
<title>Node2</title>
<g id="a_node2"><a xlink:title=" ">
<polygon fill="white" stroke="#bfbfbf" points="60,-193.5 60,-250.5 95,-250.5 95,-193.5 60,-193.5"/>
<text text-anchor="middle" x="77.5" y="-238.5" font-family="Helvetica,sans-Serif" font-size="10.00">bool</text>
<polyline fill="none" stroke="#bfbfbf" points="60,-231.5 95,-231.5 "/>
<text text-anchor="middle" x="77.5" y="-219.5" font-family="Helvetica,sans-Serif" font-size="10.00"> </text>
<polyline fill="none" stroke="#bfbfbf" points="60,-212.5 95,-212.5 "/>
<text text-anchor="middle" x="77.5" y="-200.5" font-family="Helvetica,sans-Serif" font-size="10.00"> </text>
</a>
</g>
</g>
<!-- Node2&#45;&gt;Node1 -->
<g id="edge1" class="edge">
<title>Node2&#45;&gt;Node1</title>
<path fill="none" stroke="#404040" d="M77.5,-193.47C77.5,-171.98 77.5,-141.28 77.5,-113.97"/>
<polygon fill="none" stroke="#404040" points="77.5,-113.7 73.5,-107.7 77.5,-101.7 81.5,-107.7 77.5,-113.7"/>
<text text-anchor="middle" x="112" y="-167" font-family="Helvetica,sans-Serif" font-size="10.00"> +pinned</text>
<text text-anchor="middle" x="112" y="-156" font-family="Helvetica,sans-Serif" font-size="10.00">+requireConfirm</text>
<text text-anchor="middle" x="112" y="-145" font-family="Helvetica,sans-Serif" font-size="10.00">+send2new</text>
<text text-anchor="middle" x="112" y="-134" font-family="Helvetica,sans-Serif" font-size="10.00">+showEditCard</text>
<text text-anchor="middle" x="112" y="-123" font-family="Helvetica,sans-Serif" font-size="10.00">+showPopup</text>
</g>
</g>
</svg>
