<?xml version="1.0" encoding="UTF-8" standalone="no"?>
<!DOCTYPE svg PUBLIC "-//W3C//DTD SVG 1.1//EN"
 "http://www.w3.org/Graphics/SVG/1.1/DTD/svg11.dtd">
<!-- Generated by graphviz version 2.50.0 (20211204.2007)
 -->
<!-- Title: MiraiCP::Group::OnlineAnnouncement Pages: 1 -->
<svg width="484pt" height="397pt"
 viewBox="0.00 0.00 484.00 397.00" xmlns="http://www.w3.org/2000/svg" xmlns:xlink="http://www.w3.org/1999/xlink">
<g id="graph0" class="graph" transform="scale(1 1) rotate(0) translate(4 393)">
<title>MiraiCP::Group::OnlineAnnouncement</title>
<polygon fill="white" stroke="transparent" points="-4,4 -4,-393 480,-393 480,4 -4,4"/>
<!-- Node1 -->
<g id="node1" class="node">
<title>Node1</title>
<g id="a_node1"><a xlink:title="在线群公告">
<polygon fill="#bfbfbf" stroke="black" points="97.5,-0.5 97.5,-90.5 279.5,-90.5 279.5,-0.5 97.5,-0.5"/>
<text text-anchor="middle" x="188.5" y="-78.5" font-family="Helvetica,sans-Serif" font-size="10.00">MiraiCP::Group::OnlineAnnouncement</text>
<polyline fill="none" stroke="black" points="97.5,-71.5 279.5,-71.5 "/>
<text text-anchor="middle" x="188.5" y="-59.5" font-family="Helvetica,sans-Serif" font-size="10.00"> </text>
<polyline fill="none" stroke="black" points="97.5,-52.5 279.5,-52.5 "/>
<text text-anchor="start" x="105.5" y="-40.5" font-family="Helvetica,sans-Serif" font-size="10.00">+ void deleteThis()</text>
<text text-anchor="start" x="105.5" y="-29.5" font-family="Helvetica,sans-Serif" font-size="10.00">+ static OnlineAnnouncement</text>
<text text-anchor="start" x="105.5" y="-18.5" font-family="Helvetica,sans-Serif" font-size="10.00"> deserializeFromJson(const</text>
<text text-anchor="start" x="105.5" y="-7.5" font-family="Helvetica,sans-Serif" font-size="10.00"> nlohmann::json &amp;)</text>
</a>
</g>
</g>
<!-- Node2 -->
<g id="node2" class="node">
<title>Node2</title>
<g id="a_node2"><a xlink:title=" ">
<polygon fill="white" stroke="#bfbfbf" points="0,-171.5 0,-228.5 41,-228.5 41,-171.5 0,-171.5"/>
<text text-anchor="middle" x="20.5" y="-216.5" font-family="Helvetica,sans-Serif" font-size="10.00">string</text>
<polyline fill="none" stroke="#bfbfbf" points="0,-209.5 41,-209.5 "/>
<text text-anchor="middle" x="20.5" y="-197.5" font-family="Helvetica,sans-Serif" font-size="10.00"> </text>
<polyline fill="none" stroke="#bfbfbf" points="0,-190.5 41,-190.5 "/>
<text text-anchor="middle" x="20.5" y="-178.5" font-family="Helvetica,sans-Serif" font-size="10.00"> </text>
</a>
</g>
</g>
<!-- Node2&#45;&gt;Node1 -->
<g id="edge1" class="edge">
<title>Node2&#45;&gt;Node1</title>
<path fill="none" stroke="#404040" d="M34.49,-171.39C45.18,-152.22 61.33,-126.99 80.5,-109 84.52,-105.23 88.8,-101.59 93.26,-98.09"/>
<polygon fill="none" stroke="#404040" points="93.63,-97.82 96.07,-91.03 103.27,-90.68 100.84,-97.46 93.63,-97.82"/>
<text text-anchor="middle" x="101.5" y="-134" font-family="Helvetica,sans-Serif" font-size="10.00"> +content</text>
<text text-anchor="middle" x="101.5" y="-123" font-family="Helvetica,sans-Serif" font-size="10.00">+fid</text>
<text text-anchor="middle" x="101.5" y="-112" font-family="Helvetica,sans-Serif" font-size="10.00">+imageId</text>
</g>
<!-- Node3 -->
<g id="node3" class="node">
<title>Node3</title>
<g id="a_node3"><a xlink:title=" ">
<polygon fill="white" stroke="#bfbfbf" points="59.5,-171.5 59.5,-228.5 157.5,-228.5 157.5,-171.5 59.5,-171.5"/>
<text text-anchor="middle" x="108.5" y="-216.5" font-family="Helvetica,sans-Serif" font-size="10.00">unsigned long long</text>
<polyline fill="none" stroke="#bfbfbf" points="59.5,-209.5 157.5,-209.5 "/>
<text text-anchor="middle" x="108.5" y="-197.5" font-family="Helvetica,sans-Serif" font-size="10.00"> </text>
<polyline fill="none" stroke="#bfbfbf" points="59.5,-190.5 157.5,-190.5 "/>
<text text-anchor="middle" x="108.5" y="-178.5" font-family="Helvetica,sans-Serif" font-size="10.00"> </text>
</a>
</g>
</g>
<!-- Node3&#45;&gt;Node1 -->
<g id="edge2" class="edge">
<title>Node3&#45;&gt;Node1</title>
<path fill="none" stroke="#404040" d="M115.9,-171.27C121.36,-152.97 129.72,-128.81 140.5,-109 141.96,-106.32 143.53,-103.63 145.18,-100.96"/>
<polygon fill="none" stroke="#404040" points="145.29,-100.79 145.23,-93.58 151.87,-90.76 151.92,-97.97 145.29,-100.79"/>
<text text-anchor="middle" x="162" y="-134" font-family="Helvetica,sans-Serif" font-size="10.00"> +botId</text>
<text text-anchor="middle" x="162" y="-123" font-family="Helvetica,sans-Serif" font-size="10.00">+groupId</text>
<text text-anchor="middle" x="162" y="-112" font-family="Helvetica,sans-Serif" font-size="10.00">+senderId</text>
</g>
<!-- Node4 -->
<g id="node4" class="node">
<title>Node4</title>
<g id="a_node4"><a xlink:title=" ">
<polygon fill="white" stroke="#bfbfbf" points="175.5,-171.5 175.5,-228.5 231.5,-228.5 231.5,-171.5 175.5,-171.5"/>
<text text-anchor="middle" x="203.5" y="-216.5" font-family="Helvetica,sans-Serif" font-size="10.00">long long</text>
<polyline fill="none" stroke="#bfbfbf" points="175.5,-209.5 231.5,-209.5 "/>
<text text-anchor="middle" x="203.5" y="-197.5" font-family="Helvetica,sans-Serif" font-size="10.00"> </text>
<polyline fill="none" stroke="#bfbfbf" points="175.5,-190.5 231.5,-190.5 "/>
<text text-anchor="middle" x="203.5" y="-178.5" font-family="Helvetica,sans-Serif" font-size="10.00"> </text>
</a>
</g>
</g>
<!-- Node4&#45;&gt;Node1 -->
<g id="edge3" class="edge">
<title>Node4&#45;&gt;Node1</title>
<path fill="none" stroke="#404040" d="M195.37,-171.41C193,-162.15 190.73,-151.71 189.5,-142 187.91,-129.41 187.18,-115.81 186.94,-102.93"/>
<polygon fill="none" stroke="#404040" points="186.94,-102.86 182.89,-96.89 186.85,-90.86 190.89,-96.83 186.94,-102.86"/>
<text text-anchor="middle" x="228" y="-123" font-family="Helvetica,sans-Serif" font-size="10.00"> +publicationTime</text>
</g>
<!-- Node5 -->
<g id="node5" class="node">
<title>Node5</title>
<g id="a_node5"><a xlink:title=" ">
<polygon fill="white" stroke="#bfbfbf" points="274,-171.5 274,-228.5 303,-228.5 303,-171.5 274,-171.5"/>
<text text-anchor="middle" x="288.5" y="-216.5" font-family="Helvetica,sans-Serif" font-size="10.00">int</text>
<polyline fill="none" stroke="#bfbfbf" points="274,-209.5 303,-209.5 "/>
<text text-anchor="middle" x="288.5" y="-197.5" font-family="Helvetica,sans-Serif" font-size="10.00"> </text>
<polyline fill="none" stroke="#bfbfbf" points="274,-190.5 303,-190.5 "/>
<text text-anchor="middle" x="288.5" y="-178.5" font-family="Helvetica,sans-Serif" font-size="10.00"> </text>
</a>
</g>
</g>
<!-- Node5&#45;&gt;Node1 -->
<g id="edge4" class="edge">
<title>Node5&#45;&gt;Node1</title>
<path fill="none" stroke="#404040" d="M286.39,-171.19C283.89,-152.41 278.43,-127.72 266.5,-109 264.51,-105.88 262.31,-102.85 259.96,-99.91"/>
<polygon fill="none" stroke="#404040" points="259.89,-99.83 252.92,-97.99 251.94,-90.85 258.91,-92.69 259.89,-99.83"/>
<text text-anchor="middle" x="311" y="-123" font-family="Helvetica,sans-Serif" font-size="10.00"> +confirmNum</text>
</g>
<!-- Node6 -->
<g id="node6" class="node">
<title>Node6</title>
<g id="a_node6"><a xlink:href="a00640.html" target="_top" xlink:title="群公告参数">
<polygon fill="white" stroke="black" points="321,-160.5 321,-239.5 476,-239.5 476,-160.5 321,-160.5"/>
<text text-anchor="start" x="329" y="-227.5" font-family="Helvetica,sans-Serif" font-size="10.00">MiraiCP::Group::Announcement</text>
<text text-anchor="middle" x="398.5" y="-216.5" font-family="Helvetica,sans-Serif" font-size="10.00">Params</text>
<polyline fill="none" stroke="black" points="321,-209.5 476,-209.5 "/>
<text text-anchor="middle" x="398.5" y="-197.5" font-family="Helvetica,sans-Serif" font-size="10.00"> </text>
<polyline fill="none" stroke="black" points="321,-190.5 476,-190.5 "/>
<text text-anchor="start" x="329" y="-178.5" font-family="Helvetica,sans-Serif" font-size="10.00">+ nlohmann::json serialize</text>
<text text-anchor="start" x="329" y="-167.5" font-family="Helvetica,sans-Serif" font-size="10.00">ToJson()</text>
</a>
</g>
</g>
<!-- Node6&#45;&gt;Node1 -->
<g id="edge5" class="edge">
<title>Node6&#45;&gt;Node1</title>
<path fill="none" stroke="#404040" d="M382.84,-160.43C374.06,-142.79 361.61,-122.81 345.5,-109 329.6,-95.37 310.36,-84.48 290.88,-75.86"/>
<polygon fill="none" stroke="#404040" points="290.79,-75.83 283.71,-77.19 279.73,-71.18 286.81,-69.82 290.79,-75.83"/>
<text text-anchor="middle" x="392.5" y="-123" font-family="Helvetica,sans-Serif" font-size="10.00"> +params</text>
</g>
<!-- Node7 -->
<g id="node7" class="node">
<title>Node7</title>
<g id="a_node7"><a xlink:title=" ">
<polygon fill="white" stroke="#bfbfbf" points="381,-331.5 381,-388.5 416,-388.5 416,-331.5 381,-331.5"/>
<text text-anchor="middle" x="398.5" y="-376.5" font-family="Helvetica,sans-Serif" font-size="10.00">bool</text>
<polyline fill="none" stroke="#bfbfbf" points="381,-369.5 416,-369.5 "/>
<text text-anchor="middle" x="398.5" y="-357.5" font-family="Helvetica,sans-Serif" font-size="10.00"> </text>
<polyline fill="none" stroke="#bfbfbf" points="381,-350.5 416,-350.5 "/>
<text text-anchor="middle" x="398.5" y="-338.5" font-family="Helvetica,sans-Serif" font-size="10.00"> </text>
</a>
</g>
</g>
<!-- Node7&#45;&gt;Node6 -->
<g id="edge6" class="edge">
<title>Node7&#45;&gt;Node6</title>
<path fill="none" stroke="#404040" d="M398.5,-331.48C398.5,-309.57 398.5,-278.31 398.5,-251.88"/>
<polygon fill="none" stroke="#404040" points="398.5,-251.75 394.5,-245.75 398.5,-239.75 402.5,-245.75 398.5,-251.75"/>
<text text-anchor="middle" x="433" y="-305" font-family="Helvetica,sans-Serif" font-size="10.00"> +pinned</text>
<text text-anchor="middle" x="433" y="-294" font-family="Helvetica,sans-Serif" font-size="10.00">+requireConfirm</text>
<text text-anchor="middle" x="433" y="-283" font-family="Helvetica,sans-Serif" font-size="10.00">+send2new</text>
<text text-anchor="middle" x="433" y="-272" font-family="Helvetica,sans-Serif" font-size="10.00">+showEditCard</text>
<text text-anchor="middle" x="433" y="-261" font-family="Helvetica,sans-Serif" font-size="10.00">+showPopup</text>
</g>
</g>
</svg>
