<?xml version="1.0" encoding="UTF-8" standalone="no"?>
<!DOCTYPE svg PUBLIC "-//W3C//DTD SVG 1.1//EN"
 "http://www.w3.org/Graphics/SVG/1.1/DTD/svg11.dtd">
<!-- Generated by graphviz version 2.50.0 (20211204.2007)
 -->
<!-- Title: MiraiCP::IMiraiData::MiraiDataLocker Pages: 1 -->
<svg width="156pt" height="182pt"
 viewBox="0.00 0.00 156.00 182.00" xmlns="http://www.w3.org/2000/svg" xmlns:xlink="http://www.w3.org/1999/xlink">
<g id="graph0" class="graph" transform="scale(1 1) rotate(0) translate(4 178)">
<title>MiraiCP::IMiraiData::MiraiDataLocker</title>
<polygon fill="white" stroke="transparent" points="-4,4 -4,-178 152,-178 152,4 -4,4"/>
<!-- Node1 -->
<g id="node1" class="node">
<title>Node1</title>
<g id="a_node1"><a xlink:title="é”">
<polygon fill="#bfbfbf" stroke="black" points="29.5,-0.5 29.5,-68.5 130.5,-68.5 130.5,-0.5 29.5,-0.5"/>
<text text-anchor="start" x="37.5" y="-56.5" font-family="Helvetica,sans-Serif" font-size="10.00">MiraiCP::IMiraiData</text>
<text text-anchor="middle" x="80" y="-45.5" font-family="Helvetica,sans-Serif" font-size="10.00">::MiraiDataLocker</text>
<polyline fill="none" stroke="black" points="29.5,-38.5 130.5,-38.5 "/>
<text text-anchor="middle" x="80" y="-26.5" font-family="Helvetica,sans-Serif" font-size="10.00"> </text>
<polyline fill="none" stroke="black" points="29.5,-19.5 130.5,-19.5 "/>
<text text-anchor="middle" x="80" y="-7.5" font-family="Helvetica,sans-Serif" font-size="10.00"> </text>
</a>
</g>
</g>
<!-- Node2 -->
<g id="node2" class="node">
<title>Node2</title>
<g id="a_node2"><a xlink:title=" ">
<polygon fill="white" stroke="#bfbfbf" points="0,-116.5 0,-173.5 78,-173.5 78,-116.5 0,-116.5"/>
<text text-anchor="middle" x="39" y="-161.5" font-family="Helvetica,sans-Serif" font-size="10.00">shared_mutex</text>
<polyline fill="none" stroke="#bfbfbf" points="0,-154.5 78,-154.5 "/>
<text text-anchor="middle" x="39" y="-142.5" font-family="Helvetica,sans-Serif" font-size="10.00"> </text>
<polyline fill="none" stroke="#bfbfbf" points="0,-135.5 78,-135.5 "/>
<text text-anchor="middle" x="39" y="-123.5" font-family="Helvetica,sans-Serif" font-size="10.00"> </text>
</a>
</g>
</g>
<!-- Node2&#45;&gt;Node1 -->
<g id="edge1" class="edge">
<title>Node2&#45;&gt;Node1</title>
<path fill="none" stroke="#404040" d="M49.45,-116.34C53.62,-105.3 58.53,-92.31 63.18,-80.01"/>
<polygon fill="none" stroke="#404040" points="63.28,-79.74 61.66,-72.72 67.52,-68.52 69.14,-75.55 63.28,-79.74"/>
<text text-anchor="middle" x="75.5" y="-90" font-family="Helvetica,sans-Serif" font-size="10.00"> +_mtx</text>
</g>
<!-- Node3 -->
<g id="node3" class="node">
<title>Node3</title>
<g id="a_node3"><a xlink:title=" ">
<polygon fill="white" stroke="#bfbfbf" points="96,-116.5 96,-173.5 148,-173.5 148,-116.5 96,-116.5"/>
<text text-anchor="middle" x="122" y="-161.5" font-family="Helvetica,sans-Serif" font-size="10.00">atomic&lt;</text>
<polyline fill="none" stroke="#bfbfbf" points="96,-154.5 148,-154.5 "/>
<text text-anchor="middle" x="122" y="-142.5" font-family="Helvetica,sans-Serif" font-size="10.00"> </text>
<polyline fill="none" stroke="#bfbfbf" points="96,-135.5 148,-135.5 "/>
<text text-anchor="middle" x="122" y="-123.5" font-family="Helvetica,sans-Serif" font-size="10.00"> </text>
</a>
</g>
</g>
<!-- Node3&#45;&gt;Node1 -->
<g id="edge2" class="edge">
<title>Node3&#45;&gt;Node1</title>
<path fill="none" stroke="#404040" d="M111.29,-116.34C107.02,-105.3 101.99,-92.31 97.23,-80.01"/>
<polygon fill="none" stroke="#404040" points="97.11,-79.71 91.22,-75.56 92.78,-68.52 98.68,-72.67 97.11,-79.71"/>
<text text-anchor="middle" x="122" y="-90" font-family="Helvetica,sans-Serif" font-size="10.00"> +_inited</text>
</g>
</g>
</svg>
