<?xml version="1.0" encoding="UTF-8" standalone="no"?>
<!DOCTYPE svg PUBLIC "-//W3C//DTD SVG 1.1//EN"
 "http://www.w3.org/Graphics/SVG/1.1/DTD/svg11.dtd">
<!-- Generated by graphviz version 2.50.0 (20211204.2007)
 -->
<!-- Title: MiraiCP::Logger::log_interface Pages: 1 -->
<svg width="1142pt" height="113pt"
 viewBox="0.00 0.00 1142.00 113.00" xmlns="http://www.w3.org/2000/svg" xmlns:xlink="http://www.w3.org/1999/xlink">
<g id="graph0" class="graph" transform="scale(1 1) rotate(0) translate(4 109)">
<title>MiraiCP::Logger::log_interface</title>
<polygon fill="white" stroke="transparent" points="-4,4 -4,-109 1138,-109 1138,4 -4,4"/>
<!-- Node1 -->
<g id="node1" class="node">
<title>Node1</title>
<g id="a_node1"><a xlink:title="日志底层实现封装">
<polygon fill="#bfbfbf" stroke="black" points="0,-49.5 0,-79.5 105,-79.5 105,-49.5 0,-49.5"/>
<text text-anchor="start" x="8" y="-67.5" font-family="Helvetica,sans-Serif" font-size="10.00">MiraiCP::Logger::log</text>
<text text-anchor="middle" x="52.5" y="-56.5" font-family="Helvetica,sans-Serif" font-size="10.00">_interface</text>
</a>
</g>
</g>
<!-- Node2 -->
<g id="node2" class="node">
<title>Node2</title>
<g id="a_node2"><a xlink:href="a00685.html#a38fe440d115714de3600d804eed00d99" target="_top" xlink:title=" ">
<polygon fill="white" stroke="black" points="141,-74.5 141,-104.5 269,-104.5 269,-74.5 141,-74.5"/>
<text text-anchor="start" x="149" y="-92.5" font-family="Helvetica,sans-Serif" font-size="10.00">MiraiCP::Logger_interface</text>
<text text-anchor="middle" x="205" y="-81.5" font-family="Helvetica,sans-Serif" font-size="10.00">::handler_trigger</text>
</a>
</g>
</g>
<!-- Node1&#45;&gt;Node2 -->
<g id="edge1" class="edge">
<title>Node1&#45;&gt;Node2</title>
<path fill="none" stroke="midnightblue" d="M105.29,-73.1C113.54,-74.47 122.21,-75.91 130.84,-77.35"/>
<polygon fill="midnightblue" stroke="midnightblue" points="130.49,-80.84 140.93,-79.02 131.64,-73.93 130.49,-80.84"/>
</g>
<!-- Node4 -->
<g id="node4" class="node">
<title>Node4</title>
<g id="a_node4"><a xlink:href="a00306.html#a4def9f25b87d48d142d6752184aadc92" target="_top" xlink:title=" ">
<polygon fill="white" stroke="black" points="151,-25.5 151,-55.5 259,-55.5 259,-25.5 151,-25.5"/>
<text text-anchor="start" x="159" y="-43.5" font-family="Helvetica,sans-Serif" font-size="10.00">LibLoader::LoaderApi</text>
<text text-anchor="middle" x="205" y="-32.5" font-family="Helvetica,sans-Serif" font-size="10.00">::loggerInterface</text>
</a>
</g>
</g>
<!-- Node1&#45;&gt;Node4 -->
<g id="edge3" class="edge">
<title>Node1&#45;&gt;Node4</title>
<path fill="none" stroke="midnightblue" d="M105.29,-56.24C116.67,-54.43 128.84,-52.49 140.62,-50.61"/>
<polygon fill="midnightblue" stroke="midnightblue" points="141.51,-54.01 150.83,-48.98 140.41,-47.1 141.51,-54.01"/>
</g>
<!-- Node3 -->
<g id="node3" class="node">
<title>Node3</title>
<g id="a_node3"><a xlink:href="a00685.html#a441ed3ac3e378e79b62361e083bf3685" target="_top" xlink:title=" ">
<polygon fill="white" stroke="black" points="305,-74.5 305,-104.5 433,-104.5 433,-74.5 305,-74.5"/>
<text text-anchor="start" x="313" y="-92.5" font-family="Helvetica,sans-Serif" font-size="10.00">MiraiCP::Logger_interface</text>
<text text-anchor="middle" x="369" y="-81.5" font-family="Helvetica,sans-Serif" font-size="10.00">::create_loggerhandler</text>
</a>
</g>
</g>
<!-- Node2&#45;&gt;Node3 -->
<g id="edge2" class="edge">
<title>Node2&#45;&gt;Node3</title>
<path fill="none" stroke="midnightblue" d="M269.1,-89.5C277.43,-89.5 286.04,-89.5 294.53,-89.5"/>
<polygon fill="midnightblue" stroke="midnightblue" points="294.81,-93 304.81,-89.5 294.81,-86 294.81,-93"/>
</g>
<!-- Node5 -->
<g id="node5" class="node">
<title>Node5</title>
<g id="a_node5"><a xlink:href="a00393.html#af4d7d5164450e25f7401d1cc15f15b8d" target="_top" xlink:title="实际暴露的接口">
<polygon fill="white" stroke="black" points="307.5,-25.5 307.5,-55.5 430.5,-55.5 430.5,-25.5 307.5,-25.5"/>
<text text-anchor="start" x="315.5" y="-43.5" font-family="Helvetica,sans-Serif" font-size="10.00">LibLoader::LoaderLogger</text>
<text text-anchor="middle" x="369" y="-32.5" font-family="Helvetica,sans-Serif" font-size="10.00">::call_logger</text>
</a>
</g>
</g>
<!-- Node4&#45;&gt;Node5 -->
<g id="edge4" class="edge">
<title>Node4&#45;&gt;Node5</title>
<path fill="none" stroke="midnightblue" d="M259.04,-40.5C271.2,-40.5 284.32,-40.5 297.1,-40.5"/>
<polygon fill="midnightblue" stroke="midnightblue" points="297.25,-44 307.25,-40.5 297.25,-37 297.25,-44"/>
</g>
<!-- Node6 -->
<g id="node6" class="node">
<title>Node6</title>
<g id="a_node6"><a xlink:href="a00309.html#a076c5f4ff8083c7cfc6523498d0ba30f" target="_top" xlink:title=" ">
<polygon fill="white" stroke="black" points="624,-56.5 624,-86.5 723,-86.5 723,-56.5 624,-56.5"/>
<text text-anchor="start" x="632" y="-74.5" font-family="Helvetica,sans-Serif" font-size="10.00">LibLoader::JNIEnvs</text>
<text text-anchor="middle" x="673.5" y="-63.5" font-family="Helvetica,sans-Serif" font-size="10.00">::getEnv</text>
</a>
</g>
</g>
<!-- Node5&#45;&gt;Node6 -->
<g id="edge5" class="edge">
<title>Node5&#45;&gt;Node6</title>
<path fill="none" stroke="midnightblue" d="M430.53,-53.42C443.19,-55.75 456.5,-57.94 469,-59.5 517.56,-65.57 573.04,-68.58 613.79,-70.07"/>
<polygon fill="midnightblue" stroke="midnightblue" points="613.7,-73.57 623.82,-70.42 613.95,-66.57 613.7,-73.57"/>
</g>
<!-- Node10 -->
<g id="node10" class="node">
<title>Node10</title>
<g id="a_node10"><a xlink:href="a00304.html#a6a6fcd695791253a9b3a053d313b2b93" target="_top" xlink:title=" ">
<polygon fill="white" stroke="black" points="469,-31 469,-50 576,-50 576,-31 469,-31"/>
<text text-anchor="middle" x="522.5" y="-38" font-family="Helvetica,sans-Serif" font-size="10.00">LibLoader::str2jstring</text>
</a>
</g>
</g>
<!-- Node5&#45;&gt;Node10 -->
<g id="edge9" class="edge">
<title>Node5&#45;&gt;Node10</title>
<path fill="none" stroke="midnightblue" d="M430.75,-40.5C439.84,-40.5 449.23,-40.5 458.37,-40.5"/>
<polygon fill="midnightblue" stroke="midnightblue" points="458.55,-44 468.55,-40.5 458.55,-37 458.55,-44"/>
</g>
<!-- Node7 -->
<g id="node7" class="node">
<title>Node7</title>
<g id="a_node7"><a xlink:href="a00361.html#aea7d58ff9f04d6d4849c25a2506603a5" target="_top" xlink:title="取env,如果不存在重新获取">
<polygon fill="white" stroke="black" points="771,-62 771,-81 890,-81 890,-62 771,-62"/>
<text text-anchor="middle" x="830.5" y="-69" font-family="Helvetica,sans-Serif" font-size="10.00">JNIEnvManager::getEnv</text>
</a>
</g>
</g>
<!-- Node6&#45;&gt;Node7 -->
<g id="edge6" class="edge">
<title>Node6&#45;&gt;Node7</title>
<path fill="none" stroke="midnightblue" d="M723.12,-71.5C735.1,-71.5 748.15,-71.5 760.88,-71.5"/>
<polygon fill="midnightblue" stroke="midnightblue" points="760.99,-75 770.99,-71.5 760.99,-68 760.99,-75"/>
</g>
<!-- Node8 -->
<g id="node8" class="node">
<title>Node8</title>
<g id="a_node8"><a xlink:href="a00197.html#a3d31403b7971274d47d308245206bd24" target="_top" xlink:title="为当前线程创建一个env.">
<polygon fill="white" stroke="black" points="926,-62 926,-81 976,-81 976,-62 926,-62"/>
<text text-anchor="middle" x="951" y="-69" font-family="Helvetica,sans-Serif" font-size="10.00">newEnv</text>
</a>
</g>
</g>
<!-- Node7&#45;&gt;Node8 -->
<g id="edge7" class="edge">
<title>Node7&#45;&gt;Node8</title>
<path fill="none" stroke="midnightblue" d="M890.06,-71.5C898.89,-71.5 907.75,-71.5 915.85,-71.5"/>
<polygon fill="midnightblue" stroke="midnightblue" points="915.98,-75 925.98,-71.5 915.98,-68 915.98,-75"/>
</g>
<!-- Node9 -->
<g id="node9" class="node">
<title>Node9</title>
<g id="a_node9"><a xlink:href="a00361.html#ae0e482c6a813848a8f5d34957d1b6307" target="_top" xlink:title="获取全局JavaVM对象.">
<polygon fill="white" stroke="black" points="1012,-62 1012,-81 1134,-81 1134,-62 1012,-62"/>
<text text-anchor="middle" x="1073" y="-69" font-family="Helvetica,sans-Serif" font-size="10.00">JNIEnvManager::getGvm</text>
</a>
</g>
</g>
<!-- Node8&#45;&gt;Node9 -->
<g id="edge8" class="edge">
<title>Node8&#45;&gt;Node9</title>
<path fill="none" stroke="midnightblue" d="M976.28,-71.5C983.75,-71.5 992.37,-71.5 1001.32,-71.5"/>
<polygon fill="midnightblue" stroke="midnightblue" points="1001.52,-75 1011.52,-71.5 1001.52,-68 1001.52,-75"/>
</g>
<!-- Node10&#45;&gt;Node6 -->
<g id="edge10" class="edge">
<title>Node10&#45;&gt;Node6</title>
<path fill="none" stroke="midnightblue" d="M569.42,-50.05C583.45,-52.97 599.08,-56.23 613.84,-59.3"/>
<polygon fill="midnightblue" stroke="midnightblue" points="613.39,-62.78 623.89,-61.39 614.81,-55.92 613.39,-62.78"/>
</g>
<!-- Node11 -->
<g id="node11" class="node">
<title>Node11</title>
<g id="a_node11"><a xlink:href="a00393.html#af50d0545fe7d683e54fcd03453a423e3" target="_top" xlink:title=" ">
<polygon fill="white" stroke="black" points="612,-0.5 612,-30.5 735,-30.5 735,-0.5 612,-0.5"/>
<text text-anchor="start" x="620" y="-18.5" font-family="Helvetica,sans-Serif" font-size="10.00">LibLoader::LoaderLogger</text>
<text text-anchor="middle" x="673.5" y="-7.5" font-family="Helvetica,sans-Serif" font-size="10.00">::warning</text>
</a>
</g>
</g>
<!-- Node10&#45;&gt;Node11 -->
<g id="edge11" class="edge">
<title>Node10&#45;&gt;Node11</title>
<path fill="none" stroke="midnightblue" d="M576.03,-31.69C584.34,-30.29 593.05,-28.83 601.7,-27.38"/>
<polygon fill="midnightblue" stroke="midnightblue" points="602.5,-30.79 611.79,-25.69 601.35,-23.89 602.5,-30.79"/>
</g>
<!-- Node11&#45;&gt;Node5 -->
<g id="edge12" class="edge">
<title>Node11&#45;&gt;Node5</title>
<path fill="none" stroke="midnightblue" d="M611.77,-14.75C571.23,-14.88 516.78,-16.24 469,-21.5 459.7,-22.52 449.98,-23.95 440.4,-25.56"/>
<polygon fill="midnightblue" stroke="midnightblue" points="439.74,-22.12 430.5,-27.3 440.95,-29.01 439.74,-22.12"/>
</g>
</g>
</svg>
