<?xml version="1.0" encoding="UTF-8" standalone="no"?>
<!DOCTYPE svg PUBLIC "-//W3C//DTD SVG 1.1//EN"
 "http://www.w3.org/Graphics/SVG/1.1/DTD/svg11.dtd">
<!-- Generated by graphviz version 2.50.0 (20211204.2007)
 -->
<!-- Title: MiraiCP::Member::mute Pages: 1 -->
<svg width="1739pt" height="219pt"
 viewBox="0.00 0.00 1739.00 218.98" xmlns="http://www.w3.org/2000/svg" xmlns:xlink="http://www.w3.org/1999/xlink">
<g id="graph0" class="graph" transform="scale(1 1) rotate(0) translate(4 214.98)">
<title>MiraiCP::Member::mute</title>
<polygon fill="white" stroke="transparent" points="-4,4 -4,-214.98 1735,-214.98 1735,4 -4,4"/>
<!-- Node1 -->
<g id="node1" class="node">
<title>Node1</title>
<g id="a_node1"><a xlink:title=" ">
<polygon fill="#bfbfbf" stroke="black" points="0,-100.98 0,-119.98 120,-119.98 120,-100.98 0,-100.98"/>
<text text-anchor="middle" x="60" y="-107.98" font-family="Helvetica,sans-Serif" font-size="10.00">MiraiCP::Member::mute</text>
</a>
</g>
</g>
<!-- Node2 -->
<g id="node2" class="node">
<title>Node2</title>
<g id="a_node2"><a xlink:href="a00697.html#ab26f7832af43cee20fcdc76d0f876219" target="_top" xlink:title=" ">
<polygon fill="white" stroke="black" points="156,-100.98 156,-119.98 276,-119.98 276,-100.98 156,-100.98"/>
<text text-anchor="middle" x="216" y="-107.98" font-family="Helvetica,sans-Serif" font-size="10.00">MiraiCP::Member::mute</text>
</a>
</g>
</g>
<!-- Node1&#45;&gt;Node2 -->
<g id="edge1" class="edge">
<title>Node1&#45;&gt;Node2</title>
<path fill="none" stroke="midnightblue" d="M120.1,-110.48C128.42,-110.48 137.04,-110.48 145.53,-110.48"/>
<polygon fill="midnightblue" stroke="midnightblue" points="145.8,-113.98 155.8,-110.48 145.8,-106.98 145.8,-113.98"/>
</g>
<!-- Node3 -->
<g id="node3" class="node">
<title>Node3</title>
<g id="a_node3"><a xlink:href="a00309.html#a309e8d7f316e8b5e947ea3bcddeb84a8" target="_top" xlink:title="调用 Mirai 操作">
<polygon fill="white" stroke="black" points="320,-117.48 320,-147.48 429,-147.48 429,-117.48 320,-117.48"/>
<text text-anchor="start" x="328" y="-135.48" font-family="Helvetica,sans-Serif" font-size="10.00">MiraiCP::KtOperation</text>
<text text-anchor="middle" x="374.5" y="-124.48" font-family="Helvetica,sans-Serif" font-size="10.00">::ktOperation</text>
</a>
</g>
</g>
<!-- Node2&#45;&gt;Node3 -->
<g id="edge2" class="edge">
<title>Node2&#45;&gt;Node3</title>
<path fill="none" stroke="midnightblue" d="M276.17,-118.8C287.17,-120.35 298.7,-121.97 309.83,-123.53"/>
<polygon fill="midnightblue" stroke="midnightblue" points="309.52,-127.02 319.91,-124.95 310.5,-120.09 309.52,-127.02"/>
</g>
<!-- Node15 -->
<g id="node15" class="node">
<title>Node15</title>
<g id="a_node15"><a xlink:href="a00425.html#a89fb588a12ff2d4de10722788945ea55" target="_top" xlink:title="序列化到json对象">
<polygon fill="white" stroke="black" points="312,-78.98 312,-97.98 437,-97.98 437,-78.98 312,-78.98"/>
<text text-anchor="middle" x="374.5" y="-85.98" font-family="Helvetica,sans-Serif" font-size="10.00">MiraiCP::Contact::toJson</text>
</a>
</g>
</g>
<!-- Node2&#45;&gt;Node15 -->
<g id="edge18" class="edge">
<title>Node2&#45;&gt;Node15</title>
<path fill="none" stroke="midnightblue" d="M276.17,-102.17C284.56,-100.98 293.28,-99.76 301.88,-98.55"/>
<polygon fill="midnightblue" stroke="midnightblue" points="302.49,-102 311.91,-97.14 301.52,-95.07 302.49,-102"/>
</g>
<!-- Node4 -->
<g id="node4" class="node">
<title>Node4</title>
<g id="a_node4"><a xlink:href="a00309.html#a1e1e498928eeaa1d7107033ff5fa881a" target="_top" xlink:title="调用 Mirai 操作">
<polygon fill="white" stroke="black" points="473,-117.48 473,-147.48 582,-147.48 582,-117.48 473,-117.48"/>
<text text-anchor="start" x="481" y="-135.48" font-family="Helvetica,sans-Serif" font-size="10.00">MiraiCP::KtOperation</text>
<text text-anchor="middle" x="527.5" y="-124.48" font-family="Helvetica,sans-Serif" font-size="10.00">::ktOperationStr</text>
</a>
</g>
</g>
<!-- Node3&#45;&gt;Node4 -->
<g id="edge3" class="edge">
<title>Node3&#45;&gt;Node4</title>
<path fill="none" stroke="midnightblue" d="M429.16,-132.48C440,-132.48 451.5,-132.48 462.64,-132.48"/>
<polygon fill="midnightblue" stroke="midnightblue" points="462.76,-135.98 472.76,-132.48 462.76,-128.98 462.76,-135.98"/>
</g>
<!-- Node5 -->
<g id="node5" class="node">
<title>Node5</title>
<g id="a_node5"><a xlink:href="a00303.html#a89b345ec37278655b8f02d07dbb3c882" target="_top" xlink:title="interfaces for plugins">
<polygon fill="white" stroke="black" points="618,-117.48 618,-147.48 726,-147.48 726,-117.48 618,-117.48"/>
<text text-anchor="start" x="626" y="-135.48" font-family="Helvetica,sans-Serif" font-size="10.00">LibLoader::LoaderApi</text>
<text text-anchor="middle" x="672" y="-124.48" font-family="Helvetica,sans-Serif" font-size="10.00">::pluginOperation</text>
</a>
</g>
</g>
<!-- Node4&#45;&gt;Node5 -->
<g id="edge4" class="edge">
<title>Node4&#45;&gt;Node5</title>
<path fill="none" stroke="midnightblue" d="M582.37,-132.48C590.67,-132.48 599.29,-132.48 607.77,-132.48"/>
<polygon fill="midnightblue" stroke="midnightblue" points="608,-135.98 618,-132.48 608,-128.98 608,-135.98"/>
</g>
<!-- Node6 -->
<g id="node6" class="node">
<title>Node6</title>
<g id="a_node6"><a xlink:href="a00337.html#ab263deade385e7b5de856d061c6027e9" target="_top" xlink:title=" ">
<polygon fill="white" stroke="black" points="762,-180.48 762,-210.48 879,-210.48 879,-180.48 762,-180.48"/>
<text text-anchor="start" x="770" y="-198.48" font-family="Helvetica,sans-Serif" font-size="10.00">MiraiCP::MiraiCPString</text>
<text text-anchor="middle" x="820.5" y="-187.48" font-family="Helvetica,sans-Serif" font-size="10.00">::copyToCharPtr</text>
</a>
</g>
</g>
<!-- Node5&#45;&gt;Node6 -->
<g id="edge5" class="edge">
<title>Node5&#45;&gt;Node6</title>
<path fill="none" stroke="midnightblue" d="M708.09,-147.57C728.22,-156.23 753.69,-167.18 775.19,-176.43"/>
<polygon fill="midnightblue" stroke="midnightblue" points="773.87,-179.67 784.44,-180.41 776.64,-173.24 773.87,-179.67"/>
</g>
<!-- Node7 -->
<g id="node7" class="node">
<title>Node7</title>
<g id="a_node7"><a xlink:href="a00345.html#aea7d58ff9f04d6d4849c25a2506603a5" target="_top" xlink:title="取env,如果不存在重新获取">
<polygon fill="white" stroke="black" points="1368,-103.98 1368,-122.98 1487,-122.98 1487,-103.98 1368,-103.98"/>
<text text-anchor="middle" x="1427.5" y="-110.98" font-family="Helvetica,sans-Serif" font-size="10.00">JNIEnvManager::getEnv</text>
</a>
</g>
</g>
<!-- Node5&#45;&gt;Node7 -->
<g id="edge6" class="edge">
<title>Node5&#45;&gt;Node7</title>
<path fill="none" stroke="midnightblue" d="M726.21,-137.85C786.58,-143.47 888.02,-151.48 975.5,-151.48 975.5,-151.48 975.5,-151.48 1136.5,-151.48 1218.89,-151.48 1313.34,-136.22 1371.46,-125.04"/>
<polygon fill="midnightblue" stroke="midnightblue" points="1372.39,-128.42 1381.53,-123.07 1371.05,-121.55 1372.39,-128.42"/>
</g>
<!-- Node10 -->
<g id="node10" class="node">
<title>Node10</title>
<g id="a_node10"><a xlink:href="a00301.html#aa5f8d0ecd9dd392b491070aace643ae3" target="_top" xlink:title=" ">
<polygon fill="white" stroke="black" points="923,-103.98 923,-122.98 1030,-122.98 1030,-103.98 923,-103.98"/>
<text text-anchor="middle" x="976.5" y="-110.98" font-family="Helvetica,sans-Serif" font-size="10.00">LibLoader::jstring2str</text>
</a>
</g>
</g>
<!-- Node5&#45;&gt;Node10 -->
<g id="edge9" class="edge">
<title>Node5&#45;&gt;Node10</title>
<path fill="none" stroke="midnightblue" d="M726.04,-129.15C778.12,-125.88 857.57,-120.89 912.77,-117.42"/>
<polygon fill="midnightblue" stroke="midnightblue" points="913.02,-120.91 922.78,-116.79 912.58,-113.93 913.02,-120.91"/>
</g>
<!-- Node12 -->
<g id="node12" class="node">
<title>Node12</title>
<g id="a_node12"><a xlink:href="a00301.html#a6a6fcd695791253a9b3a053d313b2b93" target="_top" xlink:title=" ">
<polygon fill="white" stroke="black" points="767,-43.98 767,-62.98 874,-62.98 874,-43.98 767,-43.98"/>
<text text-anchor="middle" x="820.5" y="-50.98" font-family="Helvetica,sans-Serif" font-size="10.00">LibLoader::str2jstring</text>
</a>
</g>
</g>
<!-- Node5&#45;&gt;Node12 -->
<g id="edge12" class="edge">
<title>Node5&#45;&gt;Node12</title>
<path fill="none" stroke="midnightblue" d="M700.9,-117.44C727.37,-103.16 766.87,-81.87 792.9,-67.83"/>
<polygon fill="midnightblue" stroke="midnightblue" points="794.69,-70.84 801.83,-63.01 791.37,-64.68 794.69,-70.84"/>
</g>
<!-- Node8 -->
<g id="node8" class="node">
<title>Node8</title>
<g id="a_node8"><a xlink:href="a00194.html#a3d31403b7971274d47d308245206bd24" target="_top" xlink:title="为当前线程创建一个env.">
<polygon fill="white" stroke="black" points="1523,-103.98 1523,-122.98 1573,-122.98 1573,-103.98 1523,-103.98"/>
<text text-anchor="middle" x="1548" y="-110.98" font-family="Helvetica,sans-Serif" font-size="10.00">newEnv</text>
</a>
</g>
</g>
<!-- Node7&#45;&gt;Node8 -->
<g id="edge7" class="edge">
<title>Node7&#45;&gt;Node8</title>
<path fill="none" stroke="midnightblue" d="M1487.06,-113.48C1495.89,-113.48 1504.75,-113.48 1512.85,-113.48"/>
<polygon fill="midnightblue" stroke="midnightblue" points="1512.98,-116.98 1522.98,-113.48 1512.98,-109.98 1512.98,-116.98"/>
</g>
<!-- Node9 -->
<g id="node9" class="node">
<title>Node9</title>
<g id="a_node9"><a xlink:href="a00345.html#ae0e482c6a813848a8f5d34957d1b6307" target="_top" xlink:title="获取全局JavaVM对象.">
<polygon fill="white" stroke="black" points="1609,-103.98 1609,-122.98 1731,-122.98 1731,-103.98 1609,-103.98"/>
<text text-anchor="middle" x="1670" y="-110.98" font-family="Helvetica,sans-Serif" font-size="10.00">JNIEnvManager::getGvm</text>
</a>
</g>
</g>
<!-- Node8&#45;&gt;Node9 -->
<g id="edge8" class="edge">
<title>Node8&#45;&gt;Node9</title>
<path fill="none" stroke="midnightblue" d="M1573.28,-113.48C1580.75,-113.48 1589.37,-113.48 1598.32,-113.48"/>
<polygon fill="midnightblue" stroke="midnightblue" points="1598.52,-116.98 1608.52,-113.48 1598.52,-109.98 1598.52,-116.98"/>
</g>
<!-- Node11 -->
<g id="node11" class="node">
<title>Node11</title>
<g id="a_node11"><a xlink:href="a00305.html#a076c5f4ff8083c7cfc6523498d0ba30f" target="_top" xlink:title=" ">
<polygon fill="white" stroke="black" points="1233,-76.48 1233,-106.48 1332,-106.48 1332,-76.48 1233,-76.48"/>
<text text-anchor="start" x="1241" y="-94.48" font-family="Helvetica,sans-Serif" font-size="10.00">LibLoader::JNIEnvs</text>
<text text-anchor="middle" x="1282.5" y="-83.48" font-family="Helvetica,sans-Serif" font-size="10.00">::getEnv</text>
</a>
</g>
</g>
<!-- Node10&#45;&gt;Node11 -->
<g id="edge10" class="edge">
<title>Node10&#45;&gt;Node11</title>
<path fill="none" stroke="midnightblue" d="M1030.11,-109.68C1083.7,-105.8 1166.65,-99.79 1222.46,-95.76"/>
<polygon fill="midnightblue" stroke="midnightblue" points="1222.83,-99.24 1232.55,-95.03 1222.32,-92.26 1222.83,-99.24"/>
</g>
<!-- Node11&#45;&gt;Node7 -->
<g id="edge11" class="edge">
<title>Node11&#45;&gt;Node7</title>
<path fill="none" stroke="midnightblue" d="M1332.31,-98.99C1340.51,-100.25 1349.16,-101.58 1357.75,-102.91"/>
<polygon fill="midnightblue" stroke="midnightblue" points="1357.36,-106.39 1367.78,-104.45 1358.43,-99.47 1357.36,-106.39"/>
</g>
<!-- Node12&#45;&gt;Node11 -->
<g id="edge13" class="edge">
<title>Node12&#45;&gt;Node11</title>
<path fill="none" stroke="midnightblue" d="M874.27,-57.84C960.84,-64.99 1132.43,-79.17 1222.75,-86.63"/>
<polygon fill="midnightblue" stroke="midnightblue" points="1222.57,-90.13 1232.82,-87.46 1223.14,-83.15 1222.57,-90.13"/>
</g>
<!-- Node13 -->
<g id="node13" class="node">
<title>Node13</title>
<g id="a_node13"><a xlink:href="a00377.html#af50d0545fe7d683e54fcd03453a423e3" target="_top" xlink:title=" ">
<polygon fill="white" stroke="black" points="915,-16.48 915,-46.48 1038,-46.48 1038,-16.48 915,-16.48"/>
<text text-anchor="start" x="923" y="-34.48" font-family="Helvetica,sans-Serif" font-size="10.00">LibLoader::LoaderLogger</text>
<text text-anchor="middle" x="976.5" y="-23.48" font-family="Helvetica,sans-Serif" font-size="10.00">::warning</text>
</a>
</g>
</g>
<!-- Node12&#45;&gt;Node13 -->
<g id="edge14" class="edge">
<title>Node12&#45;&gt;Node13</title>
<path fill="none" stroke="midnightblue" d="M874.07,-45.97C884.04,-44.55 894.62,-43.04 905.04,-41.55"/>
<polygon fill="midnightblue" stroke="midnightblue" points="905.55,-45.01 914.95,-40.13 904.56,-38.08 905.55,-45.01"/>
</g>
<!-- Node14 -->
<g id="node14" class="node">
<title>Node14</title>
<g id="a_node14"><a xlink:href="a00377.html#af4d7d5164450e25f7401d1cc15f15b8d" target="_top" xlink:title="实际暴露的接口">
<polygon fill="white" stroke="black" points="1074,-16.48 1074,-46.48 1197,-46.48 1197,-16.48 1074,-16.48"/>
<text text-anchor="start" x="1082" y="-34.48" font-family="Helvetica,sans-Serif" font-size="10.00">LibLoader::LoaderLogger</text>
<text text-anchor="middle" x="1135.5" y="-23.48" font-family="Helvetica,sans-Serif" font-size="10.00">::call_logger</text>
</a>
</g>
</g>
<!-- Node13&#45;&gt;Node14 -->
<g id="edge15" class="edge">
<title>Node13&#45;&gt;Node14</title>
<path fill="none" stroke="midnightblue" d="M1038.2,-31.48C1046.64,-31.48 1055.36,-31.48 1063.95,-31.48"/>
<polygon fill="midnightblue" stroke="midnightblue" points="1063.96,-34.98 1073.96,-31.48 1063.96,-27.98 1063.96,-34.98"/>
</g>
<!-- Node14&#45;&gt;Node11 -->
<g id="edge16" class="edge">
<title>Node14&#45;&gt;Node11</title>
<path fill="none" stroke="midnightblue" d="M1173.09,-46.62C1192.14,-54.51 1215.61,-64.22 1235.84,-72.59"/>
<polygon fill="midnightblue" stroke="midnightblue" points="1234.6,-75.86 1245.17,-76.45 1237.27,-69.39 1234.6,-75.86"/>
</g>
<!-- Node14&#45;&gt;Node12 -->
<g id="edge17" class="edge">
<title>Node14&#45;&gt;Node12</title>
<path fill="none" stroke="midnightblue" d="M1085.97,-16.47C1041.11,-4.82 972.84,7.24 915,-6.48 888.99,-12.65 861.99,-27.26 843.73,-38.56"/>
<polygon fill="midnightblue" stroke="midnightblue" points="841.83,-35.63 835.27,-43.95 845.59,-41.53 841.83,-35.63"/>
</g>
</g>
</svg>
