<?xml version="1.0" encoding="UTF-8" standalone="no"?>
<!DOCTYPE svg PUBLIC "-//W3C//DTD SVG 1.1//EN"
 "http://www.w3.org/Graphics/SVG/1.1/DTD/svg11.dtd">
<!-- Generated by graphviz version 2.50.0 (20211204.2007)
 -->
<!-- Title: MiraiCP::IMiraiData Pages: 1 -->
<svg width="161pt" height="672pt"
 viewBox="0.00 0.00 161.00 672.00" xmlns="http://www.w3.org/2000/svg" xmlns:xlink="http://www.w3.org/1999/xlink">
<g id="graph0" class="graph" transform="scale(1 1) rotate(0) translate(4 668)">
<title>MiraiCP::IMiraiData</title>
<polygon fill="white" stroke="transparent" points="-4,4 -4,-668 157,-668 157,4 -4,4"/>
<!-- Node1 -->
<g id="node1" class="node">
<title>Node1</title>
<g id="a_node1"><a xlink:title="声明 Contact 类数据安全锁接口以及部分实现的抽象类">
<polygon fill="#bfbfbf" stroke="black" points="7,-0.5 7,-442.5 153,-442.5 153,-0.5 7,-0.5"/>
<text text-anchor="middle" x="80" y="-430.5" font-family="Helvetica,sans-Serif" font-size="10.00">MiraiCP::IMiraiData</text>
<polyline fill="none" stroke="black" points="7,-423.5 153,-423.5 "/>
<text text-anchor="middle" x="80" y="-411.5" font-family="Helvetica,sans-Serif" font-size="10.00"> </text>
<polyline fill="none" stroke="black" points="7,-404.5 153,-404.5 "/>
<text text-anchor="start" x="15" y="-392.5" font-family="Helvetica,sans-Serif" font-size="10.00">+ IMiraiData()=default</text>
<text text-anchor="start" x="15" y="-381.5" font-family="Helvetica,sans-Serif" font-size="10.00">+ virtual ~IMiraiData</text>
<text text-anchor="start" x="15" y="-370.5" font-family="Helvetica,sans-Serif" font-size="10.00">()=default</text>
<text text-anchor="start" x="15" y="-359.5" font-family="Helvetica,sans-Serif" font-size="10.00">+ nlohmann::json toJson</text>
<text text-anchor="start" x="15" y="-348.5" font-family="Helvetica,sans-Serif" font-size="10.00">() const</text>
<text text-anchor="start" x="15" y="-337.5" font-family="Helvetica,sans-Serif" font-size="10.00">+ void requestRefresh()</text>
<text text-anchor="start" x="15" y="-326.5" font-family="Helvetica,sans-Serif" font-size="10.00">+ void forceRefreshNextTime()</text>
<text text-anchor="start" x="15" y="-315.5" font-family="Helvetica,sans-Serif" font-size="10.00">+ std::string toString</text>
<text text-anchor="start" x="15" y="-304.5" font-family="Helvetica,sans-Serif" font-size="10.00">() const</text>
<text text-anchor="start" x="15" y="-293.5" font-family="Helvetica,sans-Serif" font-size="10.00">+ std::shared_mutex &amp;</text>
<text text-anchor="start" x="15" y="-282.5" font-family="Helvetica,sans-Serif" font-size="10.00"> getMutex()</text>
<text text-anchor="start" x="15" y="-271.5" font-family="Helvetica,sans-Serif" font-size="10.00">+ IMiraiData()=default</text>
<text text-anchor="start" x="15" y="-260.5" font-family="Helvetica,sans-Serif" font-size="10.00">+ virtual ~IMiraiData</text>
<text text-anchor="start" x="15" y="-249.5" font-family="Helvetica,sans-Serif" font-size="10.00">()=default</text>
<text text-anchor="start" x="15" y="-238.5" font-family="Helvetica,sans-Serif" font-size="10.00">+ nlohmann::json toJson</text>
<text text-anchor="start" x="15" y="-227.5" font-family="Helvetica,sans-Serif" font-size="10.00">() const</text>
<text text-anchor="start" x="15" y="-216.5" font-family="Helvetica,sans-Serif" font-size="10.00">+ void requestRefresh()</text>
<text text-anchor="start" x="15" y="-205.5" font-family="Helvetica,sans-Serif" font-size="10.00">+ void forceRefreshNextTime()</text>
<text text-anchor="start" x="15" y="-194.5" font-family="Helvetica,sans-Serif" font-size="10.00">+ std::string toString</text>
<text text-anchor="start" x="15" y="-183.5" font-family="Helvetica,sans-Serif" font-size="10.00">() const</text>
<text text-anchor="start" x="15" y="-172.5" font-family="Helvetica,sans-Serif" font-size="10.00">+ std::shared_mutex &amp;</text>
<text text-anchor="start" x="15" y="-161.5" font-family="Helvetica,sans-Serif" font-size="10.00"> getMutex()</text>
<text text-anchor="start" x="15" y="-150.5" font-family="Helvetica,sans-Serif" font-size="10.00"># virtual void deserialize</text>
<text text-anchor="start" x="15" y="-139.5" font-family="Helvetica,sans-Serif" font-size="10.00">(nlohmann::json in_json)=0</text>
<text text-anchor="start" x="15" y="-128.5" font-family="Helvetica,sans-Serif" font-size="10.00"># virtual nlohmann::json</text>
<text text-anchor="start" x="15" y="-117.5" font-family="Helvetica,sans-Serif" font-size="10.00"> internalToJson() const =0</text>
<text text-anchor="start" x="15" y="-106.5" font-family="Helvetica,sans-Serif" font-size="10.00"># nlohmann::json internalTo</text>
<text text-anchor="start" x="15" y="-95.5" font-family="Helvetica,sans-Serif" font-size="10.00">String() const</text>
<text text-anchor="start" x="15" y="-84.5" font-family="Helvetica,sans-Serif" font-size="10.00"># virtual void deserialize</text>
<text text-anchor="start" x="15" y="-73.5" font-family="Helvetica,sans-Serif" font-size="10.00">(nlohmann::json in_json)=0</text>
<text text-anchor="start" x="15" y="-62.5" font-family="Helvetica,sans-Serif" font-size="10.00"># virtual nlohmann::json</text>
<text text-anchor="start" x="15" y="-51.5" font-family="Helvetica,sans-Serif" font-size="10.00"> internalToJson() const =0</text>
<text text-anchor="start" x="15" y="-40.5" font-family="Helvetica,sans-Serif" font-size="10.00"># nlohmann::json internalTo</text>
<text text-anchor="start" x="15" y="-29.5" font-family="Helvetica,sans-Serif" font-size="10.00">String() const</text>
<text text-anchor="start" x="15" y="-18.5" font-family="Helvetica,sans-Serif" font-size="10.00">&#45; virtual void refreshInfo()=0</text>
<text text-anchor="start" x="15" y="-7.5" font-family="Helvetica,sans-Serif" font-size="10.00">&#45; virtual void refreshInfo()=0</text>
</a>
</g>
</g>
<!-- Node2 -->
<g id="node2" class="node">
<title>Node2</title>
<g id="a_node2"><a xlink:href="a00684.html" target="_top" xlink:title="锁">
<polygon fill="white" stroke="black" points="29.5,-490.5 29.5,-558.5 130.5,-558.5 130.5,-490.5 29.5,-490.5"/>
<text text-anchor="start" x="37.5" y="-546.5" font-family="Helvetica,sans-Serif" font-size="10.00">MiraiCP::IMiraiData</text>
<text text-anchor="middle" x="80" y="-535.5" font-family="Helvetica,sans-Serif" font-size="10.00">::MiraiDataLocker</text>
<polyline fill="none" stroke="black" points="29.5,-528.5 130.5,-528.5 "/>
<text text-anchor="middle" x="80" y="-516.5" font-family="Helvetica,sans-Serif" font-size="10.00"> </text>
<polyline fill="none" stroke="black" points="29.5,-509.5 130.5,-509.5 "/>
<text text-anchor="middle" x="80" y="-497.5" font-family="Helvetica,sans-Serif" font-size="10.00"> </text>
</a>
</g>
</g>
<!-- Node2&#45;&gt;Node1 -->
<g id="edge1" class="edge">
<title>Node2&#45;&gt;Node1</title>
<path fill="none" stroke="#404040" d="M80,-490.43C80,-480.21 80,-468.09 80,-454.73"/>
<polygon fill="none" stroke="#404040" points="80,-454.7 76,-448.7 80,-442.7 84,-448.7 80,-454.7"/>
<text text-anchor="middle" x="99" y="-464" font-family="Helvetica,sans-Serif" font-size="10.00"> #Locker</text>
</g>
<!-- Node3 -->
<g id="node3" class="node">
<title>Node3</title>
<g id="a_node3"><a xlink:title=" ">
<polygon fill="white" stroke="#bfbfbf" points="0,-606.5 0,-663.5 78,-663.5 78,-606.5 0,-606.5"/>
<text text-anchor="middle" x="39" y="-651.5" font-family="Helvetica,sans-Serif" font-size="10.00">shared_mutex</text>
<polyline fill="none" stroke="#bfbfbf" points="0,-644.5 78,-644.5 "/>
<text text-anchor="middle" x="39" y="-632.5" font-family="Helvetica,sans-Serif" font-size="10.00"> </text>
<polyline fill="none" stroke="#bfbfbf" points="0,-625.5 78,-625.5 "/>
<text text-anchor="middle" x="39" y="-613.5" font-family="Helvetica,sans-Serif" font-size="10.00"> </text>
</a>
</g>
</g>
<!-- Node3&#45;&gt;Node2 -->
<g id="edge2" class="edge">
<title>Node3&#45;&gt;Node2</title>
<path fill="none" stroke="#404040" d="M49.45,-606.34C53.62,-595.3 58.53,-582.31 63.18,-570.01"/>
<polygon fill="none" stroke="#404040" points="63.28,-569.74 61.66,-562.72 67.52,-558.52 69.14,-565.55 63.28,-569.74"/>
<text text-anchor="middle" x="75.5" y="-580" font-family="Helvetica,sans-Serif" font-size="10.00"> +_mtx</text>
</g>
<!-- Node4 -->
<g id="node4" class="node">
<title>Node4</title>
<g id="a_node4"><a xlink:title=" ">
<polygon fill="white" stroke="#bfbfbf" points="96,-606.5 96,-663.5 148,-663.5 148,-606.5 96,-606.5"/>
<text text-anchor="middle" x="122" y="-651.5" font-family="Helvetica,sans-Serif" font-size="10.00">atomic&lt;</text>
<polyline fill="none" stroke="#bfbfbf" points="96,-644.5 148,-644.5 "/>
<text text-anchor="middle" x="122" y="-632.5" font-family="Helvetica,sans-Serif" font-size="10.00"> </text>
<polyline fill="none" stroke="#bfbfbf" points="96,-625.5 148,-625.5 "/>
<text text-anchor="middle" x="122" y="-613.5" font-family="Helvetica,sans-Serif" font-size="10.00"> </text>
</a>
</g>
</g>
<!-- Node4&#45;&gt;Node2 -->
<g id="edge3" class="edge">
<title>Node4&#45;&gt;Node2</title>
<path fill="none" stroke="#404040" d="M111.29,-606.34C107.02,-595.3 101.99,-582.31 97.23,-570.01"/>
<polygon fill="none" stroke="#404040" points="97.11,-569.71 91.22,-565.56 92.78,-558.52 98.68,-562.67 97.11,-569.71"/>
<text text-anchor="middle" x="122" y="-580" font-family="Helvetica,sans-Serif" font-size="10.00"> +_inited</text>
</g>
</g>
</svg>
