<?xml version="1.0" encoding="UTF-8" standalone="no"?>
<!DOCTYPE svg PUBLIC "-//W3C//DTD SVG 1.1//EN"
 "http://www.w3.org/Graphics/SVG/1.1/DTD/svg11.dtd">
<!-- Generated by graphviz version 9.0.0 (0)
 -->
<!-- Title: MiraiCP::Logger Pages: 1 -->
<svg width="145pt" height="532pt"
 viewBox="0.00 0.00 145.00 532.00" xmlns="http://www.w3.org/2000/svg" xmlns:xlink="http://www.w3.org/1999/xlink">
<g id="graph0" class="graph" transform="scale(1 1) rotate(0) translate(4 528)">
<title>MiraiCP::Logger</title>
<!-- Node1 -->
<g id="Node000001" class="node">
<title>Node1</title>
<g id="a_Node000001"><a xlink:title="以MiraiCP的名义发送日志, 日志表现格式是: 2021&#45;06&#45;28 09:37:22 [log level]/MiraiCP: [log content], 为最底层的logger 发送消息级日志">
<polygon fill="#999999" stroke="none" points="136.5,-92 0.5,-92 0.5,0 136.5,0 136.5,-92"/>
<text text-anchor="start" x="33.25" y="-78.5" font-family="Helvetica,sans-Serif" font-size="10.00">MiraiCP::Logger</text>
<text text-anchor="start" x="4.5" y="-62.5" font-family="Helvetica,sans-Serif" font-size="10.00">+</text>
<text text-anchor="start" x="14.5" y="-62.5" font-family="Helvetica,sans-Serif" font-size="10.00">static Logger logger</text>
<text text-anchor="start" x="4.88" y="-46.5" font-family="Helvetica,sans-Serif" font-size="10.00">#</text>
<text text-anchor="start" x="14.5" y="-46.5" font-family="Helvetica,sans-Serif" font-size="10.00">void log_interface</text>
<text text-anchor="start" x="14.5" y="-34.5" font-family="Helvetica,sans-Serif" font-size="10.00">(const std::string &amp;content,</text>
<text text-anchor="start" x="14.5" y="-22.5" font-family="Helvetica,sans-Serif" font-size="10.00"> int level) override</text>
<text text-anchor="start" x="6" y="-6.5" font-family="Helvetica,sans-Serif" font-size="10.00">&#45;</text>
<text text-anchor="start" x="14.5" y="-6.5" font-family="Helvetica,sans-Serif" font-size="10.00">Logger()=default</text>
<polygon fill="#666666" stroke="#666666" points="0.5,-74 0.5,-74 136.5,-74 136.5,-74 0.5,-74"/>
<polygon fill="#666666" stroke="#666666" points="0.5,-58 0.5,-58 12.5,-58 12.5,-58 0.5,-58"/>
<polygon fill="#666666" stroke="#666666" points="12.5,-58 12.5,-58 136.5,-58 136.5,-58 12.5,-58"/>
<polygon fill="none" stroke="#666666" points="0.5,0 0.5,-92 136.5,-92 136.5,0 0.5,0"/>
</a>
</g>
</g>
<!-- Node2 -->
<g id="Node000002" class="node">
<title>Node2</title>
<g id="a_Node000002"><a xlink:href="a00628.html" target="_top" xlink:title=" ">
<polygon fill="white" stroke="none" points="137,-524 0,-524 0,-128 137,-128 137,-524"/>
<text text-anchor="start" x="11.88" y="-510.5" font-family="Helvetica,sans-Serif" font-size="10.00">MiraiCP::Logger_interface</text>
<text text-anchor="start" x="4" y="-494.5" font-family="Helvetica,sans-Serif" font-size="10.00">+</text>
<text text-anchor="start" x="14" y="-494.5" font-family="Helvetica,sans-Serif" font-size="10.00">std::shared_ptr&lt; Handler</text>
<text text-anchor="start" x="14" y="-482.5" font-family="Helvetica,sans-Serif" font-size="10.00"> &gt; loggerhandler</text>
<text text-anchor="start" x="4" y="-466.5" font-family="Helvetica,sans-Serif" font-size="10.00">+</text>
<text text-anchor="start" x="14" y="-466.5" font-family="Helvetica,sans-Serif" font-size="10.00">void info(T &amp;&amp;...val)</text>
<text text-anchor="start" x="4" y="-450.5" font-family="Helvetica,sans-Serif" font-size="10.00">+</text>
<text text-anchor="start" x="14" y="-450.5" font-family="Helvetica,sans-Serif" font-size="10.00">void warning(T &amp;&amp;...val)</text>
<text text-anchor="start" x="4" y="-434.5" font-family="Helvetica,sans-Serif" font-size="10.00">+</text>
<text text-anchor="start" x="14" y="-434.5" font-family="Helvetica,sans-Serif" font-size="10.00">void error(T &amp;&amp;...val)</text>
<text text-anchor="start" x="4" y="-418.5" font-family="Helvetica,sans-Serif" font-size="10.00">+</text>
<text text-anchor="start" x="14" y="-418.5" font-family="Helvetica,sans-Serif" font-size="10.00">void registerHandle</text>
<text text-anchor="start" x="14" y="-406.5" font-family="Helvetica,sans-Serif" font-size="10.00">(Action action)</text>
<text text-anchor="start" x="4" y="-390.5" font-family="Helvetica,sans-Serif" font-size="10.00">+</text>
<text text-anchor="start" x="14" y="-390.5" font-family="Helvetica,sans-Serif" font-size="10.00">void setHandleState</text>
<text text-anchor="start" x="14" y="-378.5" font-family="Helvetica,sans-Serif" font-size="10.00">(bool state)</text>
<text text-anchor="start" x="4.38" y="-362.5" font-family="Helvetica,sans-Serif" font-size="10.00">#</text>
<text text-anchor="start" x="14" y="-362.5" font-family="Helvetica,sans-Serif" font-size="10.00">virtual void log_interface</text>
<text text-anchor="start" x="14" y="-350.5" font-family="Helvetica,sans-Serif" font-size="10.00">(const string &amp;log, int</text>
<text text-anchor="start" x="14" y="-338.5" font-family="Helvetica,sans-Serif" font-size="10.00"> level)=0</text>
<text text-anchor="start" x="4.38" y="-322.5" font-family="Helvetica,sans-Serif" font-size="10.00">#</text>
<text text-anchor="start" x="14" y="-322.5" font-family="Helvetica,sans-Serif" font-size="10.00">void handler_trigger</text>
<text text-anchor="start" x="14" y="-310.5" font-family="Helvetica,sans-Serif" font-size="10.00">(string log, int level)</text>
<text text-anchor="start" x="5.5" y="-294.5" font-family="Helvetica,sans-Serif" font-size="10.00">&#45;</text>
<text text-anchor="start" x="14" y="-294.5" font-family="Helvetica,sans-Serif" font-size="10.00">void create_loggerhandler()</text>
<text text-anchor="start" x="5.5" y="-278.5" font-family="Helvetica,sans-Serif" font-size="10.00">&#45;</text>
<text text-anchor="start" x="14" y="-278.5" font-family="Helvetica,sans-Serif" font-size="10.00">static std::string</text>
<text text-anchor="start" x="14" y="-266.5" font-family="Helvetica,sans-Serif" font-size="10.00"> constructString()</text>
<text text-anchor="start" x="5.5" y="-250.5" font-family="Helvetica,sans-Serif" font-size="10.00">&#45;</text>
<text text-anchor="start" x="14" y="-250.5" font-family="Helvetica,sans-Serif" font-size="10.00">static std::string</text>
<text text-anchor="start" x="14" y="-238.5" font-family="Helvetica,sans-Serif" font-size="10.00"> constructString(T &amp;&amp;val,</text>
<text text-anchor="start" x="14" y="-226.5" font-family="Helvetica,sans-Serif" font-size="10.00"> T1 &amp;&amp;...val1)</text>
<text text-anchor="start" x="5.5" y="-210.5" font-family="Helvetica,sans-Serif" font-size="10.00">&#45;</text>
<text text-anchor="start" x="14" y="-210.5" font-family="Helvetica,sans-Serif" font-size="10.00">static std::string</text>
<text text-anchor="start" x="14" y="-198.5" font-family="Helvetica,sans-Serif" font-size="10.00"> constructString(const</text>
<text text-anchor="start" x="14" y="-186.5" font-family="Helvetica,sans-Serif" font-size="10.00"> std::string &amp;a, T &amp;&amp;...val1)</text>
<text text-anchor="start" x="5.5" y="-170.5" font-family="Helvetica,sans-Serif" font-size="10.00">&#45;</text>
<text text-anchor="start" x="14" y="-170.5" font-family="Helvetica,sans-Serif" font-size="10.00">static std::string</text>
<text text-anchor="start" x="14" y="-158.5" font-family="Helvetica,sans-Serif" font-size="10.00"> constructString(const</text>
<text text-anchor="start" x="14" y="-146.5" font-family="Helvetica,sans-Serif" font-size="10.00"> MiraiCodeable &amp;val, T</text>
<text text-anchor="start" x="14" y="-134.5" font-family="Helvetica,sans-Serif" font-size="10.00"> &amp;&amp;...val1)</text>
<polygon fill="#666666" stroke="#666666" points="0,-506 0,-506 137,-506 137,-506 0,-506"/>
<polygon fill="#666666" stroke="#666666" points="0,-478 0,-478 12,-478 12,-478 0,-478"/>
<polygon fill="#666666" stroke="#666666" points="12,-478 12,-478 137,-478 137,-478 12,-478"/>
<polygon fill="none" stroke="#666666" points="0,-128 0,-524 137,-524 137,-128 0,-128"/>
</a>
</g>
</g>
<!-- Node2&#45;&gt;Node1 -->
<g id="edge1_Node000001_Node000002" class="edge">
<title>Node2&#45;&gt;Node1</title>
<g id="a_edge1_Node000001_Node000002"><a xlink:title=" ">
<path fill="none" stroke="#63b8ff" d="M68.5,-116.65C68.5,-107.76 68.5,-99.38 68.5,-91.73"/>
<polygon fill="none" stroke="#63b8ff" points="65,-116.64 68.5,-126.64 72,-116.64 65,-116.64"/>
</a>
</g>
</g>
</g>
</svg>
