<?xml version="1.0" encoding="UTF-8" standalone="no"?>
<!DOCTYPE svg PUBLIC "-//W3C//DTD SVG 1.1//EN"
 "http://www.w3.org/Graphics/SVG/1.1/DTD/svg11.dtd">
<!-- Generated by graphviz version 2.50.0 (20211204.2007)
 -->
<!-- Title: MiraiCP::Member::kick Pages: 1 -->
<svg width="1623pt" height="220pt"
 viewBox="0.00 0.00 1623.00 219.76" xmlns="http://www.w3.org/2000/svg" xmlns:xlink="http://www.w3.org/1999/xlink">
<g id="graph0" class="graph" transform="scale(1 1) rotate(0) translate(4 215.76)">
<title>MiraiCP::Member::kick</title>
<polygon fill="white" stroke="transparent" points="-4,4 -4,-215.76 1619,-215.76 1619,4 -4,4"/>
<!-- Node1 -->
<g id="node1" class="node">
<title>Node1</title>
<g id="a_node1"><a xlink:title=" ">
<polygon fill="#bfbfbf" stroke="black" points="0,-123.76 0,-142.76 116,-142.76 116,-123.76 0,-123.76"/>
<text text-anchor="middle" x="58" y="-130.76" font-family="Helvetica,sans-Serif" font-size="10.00">MiraiCP::Member::kick</text>
</a>
</g>
</g>
<!-- Node2 -->
<g id="node2" class="node">
<title>Node2</title>
<g id="a_node2"><a xlink:href="a00448.html#aa6f2fbe2c5897a59431fe891e3ed1072" target="_top" xlink:title="强制下次 refreshInfo() 调用时刷新数据">
<polygon fill="white" stroke="black" points="152,-167.26 152,-197.26 303,-197.26 303,-167.26 152,-167.26"/>
<text text-anchor="start" x="160" y="-185.26" font-family="Helvetica,sans-Serif" font-size="10.00">MiraiCP::Contact::forceRefresh</text>
<text text-anchor="middle" x="227.5" y="-174.26" font-family="Helvetica,sans-Serif" font-size="10.00">NextTime</text>
</a>
</g>
</g>
<!-- Node1&#45;&gt;Node2 -->
<g id="edge1" class="edge">
<title>Node1&#45;&gt;Node2</title>
<path fill="none" stroke="midnightblue" d="M91.69,-142.83C112.62,-148.95 140.43,-157.08 165.35,-164.37"/>
<polygon fill="midnightblue" stroke="midnightblue" points="164.52,-167.78 175.1,-167.22 166.48,-161.06 164.52,-167.78"/>
</g>
<!-- Node3 -->
<g id="node3" class="node">
<title>Node3</title>
<g id="a_node3"><a xlink:href="a00415.html#a309e8d7f316e8b5e947ea3bcddeb84a8" target="_top" xlink:title="调用 Mirai 操作">
<polygon fill="white" stroke="black" points="173,-118.26 173,-148.26 282,-148.26 282,-118.26 173,-118.26"/>
<text text-anchor="start" x="181" y="-136.26" font-family="Helvetica,sans-Serif" font-size="10.00">MiraiCP::KtOperation</text>
<text text-anchor="middle" x="227.5" y="-125.26" font-family="Helvetica,sans-Serif" font-size="10.00">::ktOperation</text>
</a>
</g>
</g>
<!-- Node1&#45;&gt;Node3 -->
<g id="edge2" class="edge">
<title>Node1&#45;&gt;Node3</title>
<path fill="none" stroke="midnightblue" d="M116.18,-133.26C131.11,-133.26 147.31,-133.26 162.58,-133.26"/>
<polygon fill="midnightblue" stroke="midnightblue" points="162.97,-136.76 172.97,-133.26 162.97,-129.76 162.97,-136.76"/>
</g>
<!-- Node15 -->
<g id="node15" class="node">
<title>Node15</title>
<g id="a_node15"><a xlink:href="a00448.html#a89fb588a12ff2d4de10722788945ea55" target="_top" xlink:title="序列化到json对象">
<polygon fill="white" stroke="black" points="165,-79.76 165,-98.76 290,-98.76 290,-79.76 165,-79.76"/>
<text text-anchor="middle" x="227.5" y="-86.76" font-family="Helvetica,sans-Serif" font-size="10.00">MiraiCP::Contact::toJson</text>
</a>
</g>
</g>
<!-- Node1&#45;&gt;Node15 -->
<g id="edge18" class="edge">
<title>Node1&#45;&gt;Node15</title>
<path fill="none" stroke="midnightblue" d="M95.35,-123.71C120.26,-117.17 153.51,-108.43 180.31,-101.4"/>
<polygon fill="midnightblue" stroke="midnightblue" points="181.44,-104.72 190.23,-98.79 179.66,-97.95 181.44,-104.72"/>
</g>
<!-- Node4 -->
<g id="node4" class="node">
<title>Node4</title>
<g id="a_node4"><a xlink:href="a00415.html#a1e1e498928eeaa1d7107033ff5fa881a" target="_top" xlink:title="调用 Mirai 操作">
<polygon fill="white" stroke="black" points="339,-118.26 339,-148.26 448,-148.26 448,-118.26 339,-118.26"/>
<text text-anchor="start" x="347" y="-136.26" font-family="Helvetica,sans-Serif" font-size="10.00">MiraiCP::KtOperation</text>
<text text-anchor="middle" x="393.5" y="-125.26" font-family="Helvetica,sans-Serif" font-size="10.00">::ktOperationStr</text>
</a>
</g>
</g>
<!-- Node3&#45;&gt;Node4 -->
<g id="edge3" class="edge">
<title>Node3&#45;&gt;Node4</title>
<path fill="none" stroke="midnightblue" d="M282.2,-133.26C297,-133.26 313.2,-133.26 328.52,-133.26"/>
<polygon fill="midnightblue" stroke="midnightblue" points="328.96,-136.76 338.96,-133.26 328.96,-129.76 328.96,-136.76"/>
</g>
<!-- Node5 -->
<g id="node5" class="node">
<title>Node5</title>
<g id="a_node5"><a xlink:href="a00408.html#a4c6ac4cf4ba5ff0adb7656708bbb67d0" target="_top" xlink:title="interfaces for plugins">
<polygon fill="white" stroke="black" points="484,-118.26 484,-148.26 592,-148.26 592,-118.26 484,-118.26"/>
<text text-anchor="start" x="492" y="-136.26" font-family="Helvetica,sans-Serif" font-size="10.00">LibLoader::LoaderApi</text>
<text text-anchor="middle" x="538" y="-125.26" font-family="Helvetica,sans-Serif" font-size="10.00">::pluginOperation</text>
</a>
</g>
</g>
<!-- Node4&#45;&gt;Node5 -->
<g id="edge4" class="edge">
<title>Node4&#45;&gt;Node5</title>
<path fill="none" stroke="midnightblue" d="M448.37,-133.26C456.67,-133.26 465.29,-133.26 473.77,-133.26"/>
<polygon fill="midnightblue" stroke="midnightblue" points="474,-136.76 484,-133.26 474,-129.76 474,-136.76"/>
</g>
<!-- Node6 -->
<g id="node6" class="node">
<title>Node6</title>
<g id="a_node6"><a xlink:href="a00740.html#acc90fdac094544c4ddd9d6fd13baa5da" target="_top" xlink:title=" ">
<polygon fill="white" stroke="black" points="628,-181.26 628,-211.26 763,-211.26 763,-181.26 628,-181.26"/>
<text text-anchor="start" x="636" y="-199.26" font-family="Helvetica,sans-Serif" font-size="10.00">MiraiCP::MiraiCPStringview</text>
<text text-anchor="middle" x="695.5" y="-188.26" font-family="Helvetica,sans-Serif" font-size="10.00">::c_str</text>
</a>
</g>
</g>
<!-- Node5&#45;&gt;Node6 -->
<g id="edge5" class="edge">
<title>Node5&#45;&gt;Node6</title>
<path fill="none" stroke="midnightblue" d="M576.25,-148.35C597.71,-157.05 624.89,-168.06 647.77,-177.33"/>
<polygon fill="midnightblue" stroke="midnightblue" points="646.71,-180.67 657.29,-181.19 649.33,-174.19 646.71,-180.67"/>
</g>
<!-- Node7 -->
<g id="node7" class="node">
<title>Node7</title>
<g id="a_node7"><a xlink:href="a00768.html#aea7d58ff9f04d6d4849c25a2506603a5" target="_top" xlink:title="取env,如果不存在重新获取">
<polygon fill="white" stroke="black" points="1252,-104.76 1252,-123.76 1371,-123.76 1371,-104.76 1252,-104.76"/>
<text text-anchor="middle" x="1311.5" y="-111.76" font-family="Helvetica,sans-Serif" font-size="10.00">JNIEnvManager::getEnv</text>
</a>
</g>
</g>
<!-- Node5&#45;&gt;Node7 -->
<g id="edge6" class="edge">
<title>Node5&#45;&gt;Node7</title>
<path fill="none" stroke="midnightblue" d="M592.25,-138.35C655.8,-143.98 765.3,-152.26 859.5,-152.26 859.5,-152.26 859.5,-152.26 1020.5,-152.26 1102.89,-152.26 1197.34,-137 1255.46,-125.82"/>
<polygon fill="midnightblue" stroke="midnightblue" points="1256.39,-129.2 1265.53,-123.85 1255.05,-122.33 1256.39,-129.2"/>
</g>
<!-- Node10 -->
<g id="node10" class="node">
<title>Node10</title>
<g id="a_node10"><a xlink:href="a00407.html#aa5f8d0ecd9dd392b491070aace643ae3" target="_top" xlink:title=" ">
<polygon fill="white" stroke="black" points="807,-104.76 807,-123.76 914,-123.76 914,-104.76 807,-104.76"/>
<text text-anchor="middle" x="860.5" y="-111.76" font-family="Helvetica,sans-Serif" font-size="10.00">LibLoader::jstring2str</text>
</a>
</g>
</g>
<!-- Node5&#45;&gt;Node10 -->
<g id="edge9" class="edge">
<title>Node5&#45;&gt;Node10</title>
<path fill="none" stroke="midnightblue" d="M592.28,-130.1C648.57,-126.77 737.25,-121.51 796.85,-117.98"/>
<polygon fill="midnightblue" stroke="midnightblue" points="797.11,-121.47 806.89,-117.38 796.7,-114.48 797.11,-121.47"/>
</g>
<!-- Node12 -->
<g id="node12" class="node">
<title>Node12</title>
<g id="a_node12"><a xlink:href="a00407.html#a6a6fcd695791253a9b3a053d313b2b93" target="_top" xlink:title=" ">
<polygon fill="white" stroke="black" points="642,-44.76 642,-63.76 749,-63.76 749,-44.76 642,-44.76"/>
<text text-anchor="middle" x="695.5" y="-51.76" font-family="Helvetica,sans-Serif" font-size="10.00">LibLoader::str2jstring</text>
</a>
</g>
</g>
<!-- Node5&#45;&gt;Node12 -->
<g id="edge12" class="edge">
<title>Node5&#45;&gt;Node12</title>
<path fill="none" stroke="midnightblue" d="M568.61,-118.22C596.83,-103.88 639,-82.46 666.63,-68.42"/>
<polygon fill="midnightblue" stroke="midnightblue" points="668.42,-71.44 675.75,-63.79 665.25,-65.2 668.42,-71.44"/>
</g>
<!-- Node8 -->
<g id="node8" class="node">
<title>Node8</title>
<g id="a_node8"><a xlink:href="a00200.html#a3d31403b7971274d47d308245206bd24" target="_top" xlink:title="为当前线程创建一个env.">
<polygon fill="white" stroke="black" points="1407,-104.76 1407,-123.76 1457,-123.76 1457,-104.76 1407,-104.76"/>
<text text-anchor="middle" x="1432" y="-111.76" font-family="Helvetica,sans-Serif" font-size="10.00">newEnv</text>
</a>
</g>
</g>
<!-- Node7&#45;&gt;Node8 -->
<g id="edge7" class="edge">
<title>Node7&#45;&gt;Node8</title>
<path fill="none" stroke="midnightblue" d="M1371.06,-114.26C1379.89,-114.26 1388.75,-114.26 1396.85,-114.26"/>
<polygon fill="midnightblue" stroke="midnightblue" points="1396.98,-117.76 1406.98,-114.26 1396.98,-110.76 1396.98,-117.76"/>
</g>
<!-- Node9 -->
<g id="node9" class="node">
<title>Node9</title>
<g id="a_node9"><a xlink:href="a00768.html#ae0e482c6a813848a8f5d34957d1b6307" target="_top" xlink:title="获取全局JavaVM对象.">
<polygon fill="white" stroke="black" points="1493,-104.76 1493,-123.76 1615,-123.76 1615,-104.76 1493,-104.76"/>
<text text-anchor="middle" x="1554" y="-111.76" font-family="Helvetica,sans-Serif" font-size="10.00">JNIEnvManager::getGvm</text>
</a>
</g>
</g>
<!-- Node8&#45;&gt;Node9 -->
<g id="edge8" class="edge">
<title>Node8&#45;&gt;Node9</title>
<path fill="none" stroke="midnightblue" d="M1457.28,-114.26C1464.75,-114.26 1473.37,-114.26 1482.32,-114.26"/>
<polygon fill="midnightblue" stroke="midnightblue" points="1482.52,-117.76 1492.52,-114.26 1482.52,-110.76 1482.52,-117.76"/>
</g>
<!-- Node11 -->
<g id="node11" class="node">
<title>Node11</title>
<g id="a_node11"><a xlink:href="a00411.html#a076c5f4ff8083c7cfc6523498d0ba30f" target="_top" xlink:title=" ">
<polygon fill="white" stroke="black" points="1117,-77.26 1117,-107.26 1216,-107.26 1216,-77.26 1117,-77.26"/>
<text text-anchor="start" x="1125" y="-95.26" font-family="Helvetica,sans-Serif" font-size="10.00">LibLoader::JNIEnvs</text>
<text text-anchor="middle" x="1166.5" y="-84.26" font-family="Helvetica,sans-Serif" font-size="10.00">::getEnv</text>
</a>
</g>
</g>
<!-- Node10&#45;&gt;Node11 -->
<g id="edge10" class="edge">
<title>Node10&#45;&gt;Node11</title>
<path fill="none" stroke="midnightblue" d="M914.11,-110.45C967.7,-106.58 1050.65,-100.57 1106.46,-96.53"/>
<polygon fill="midnightblue" stroke="midnightblue" points="1106.83,-100.02 1116.55,-95.8 1106.32,-93.03 1106.83,-100.02"/>
</g>
<!-- Node11&#45;&gt;Node7 -->
<g id="edge11" class="edge">
<title>Node11&#45;&gt;Node7</title>
<path fill="none" stroke="midnightblue" d="M1216.31,-99.77C1224.51,-101.03 1233.16,-102.36 1241.75,-103.68"/>
<polygon fill="midnightblue" stroke="midnightblue" points="1241.36,-107.17 1251.78,-105.23 1242.43,-100.25 1241.36,-107.17"/>
</g>
<!-- Node12&#45;&gt;Node11 -->
<g id="edge13" class="edge">
<title>Node12&#45;&gt;Node11</title>
<path fill="none" stroke="midnightblue" d="M749.39,-58.55C837.71,-65.7 1014.59,-80.03 1106.7,-87.5"/>
<polygon fill="midnightblue" stroke="midnightblue" points="1106.44,-90.99 1116.69,-88.31 1107.01,-84.01 1106.44,-90.99"/>
</g>
<!-- Node13 -->
<g id="node13" class="node">
<title>Node13</title>
<g id="a_node13"><a xlink:href="a00800.html#af50d0545fe7d683e54fcd03453a423e3" target="_top" xlink:title=" ">
<polygon fill="white" stroke="black" points="799,-17.26 799,-47.26 922,-47.26 922,-17.26 799,-17.26"/>
<text text-anchor="start" x="807" y="-35.26" font-family="Helvetica,sans-Serif" font-size="10.00">LibLoader::LoaderLogger</text>
<text text-anchor="middle" x="860.5" y="-24.26" font-family="Helvetica,sans-Serif" font-size="10.00">::warning</text>
</a>
</g>
</g>
<!-- Node12&#45;&gt;Node13 -->
<g id="edge14" class="edge">
<title>Node12&#45;&gt;Node13</title>
<path fill="none" stroke="midnightblue" d="M749.42,-47.12C762.01,-45.42 775.65,-43.58 788.89,-41.79"/>
<polygon fill="midnightblue" stroke="midnightblue" points="789.48,-45.24 798.92,-40.44 788.54,-38.31 789.48,-45.24"/>
</g>
<!-- Node14 -->
<g id="node14" class="node">
<title>Node14</title>
<g id="a_node14"><a xlink:href="a00800.html#af4d7d5164450e25f7401d1cc15f15b8d" target="_top" xlink:title="实际暴露的接口">
<polygon fill="white" stroke="black" points="958,-17.26 958,-47.26 1081,-47.26 1081,-17.26 958,-17.26"/>
<text text-anchor="start" x="966" y="-35.26" font-family="Helvetica,sans-Serif" font-size="10.00">LibLoader::LoaderLogger</text>
<text text-anchor="middle" x="1019.5" y="-24.26" font-family="Helvetica,sans-Serif" font-size="10.00">::call_logger</text>
</a>
</g>
</g>
<!-- Node13&#45;&gt;Node14 -->
<g id="edge15" class="edge">
<title>Node13&#45;&gt;Node14</title>
<path fill="none" stroke="midnightblue" d="M922.2,-32.26C930.64,-32.26 939.36,-32.26 947.95,-32.26"/>
<polygon fill="midnightblue" stroke="midnightblue" points="947.96,-35.76 957.96,-32.26 947.96,-28.76 947.96,-35.76"/>
</g>
<!-- Node14&#45;&gt;Node11 -->
<g id="edge16" class="edge">
<title>Node14&#45;&gt;Node11</title>
<path fill="none" stroke="midnightblue" d="M1057.09,-47.4C1076.14,-55.28 1099.61,-65 1119.84,-73.37"/>
<polygon fill="midnightblue" stroke="midnightblue" points="1118.6,-76.64 1129.17,-77.23 1121.27,-70.17 1118.6,-76.64"/>
</g>
<!-- Node14&#45;&gt;Node12 -->
<g id="edge17" class="edge">
<title>Node14&#45;&gt;Node12</title>
<path fill="none" stroke="midnightblue" d="M970.37,-17.24C955.07,-13.15 937.97,-9.3 922,-7.26 867.77,-0.35 852.41,4.4 799,-7.26 770.6,-13.46 740.66,-28.28 720.52,-39.64"/>
<polygon fill="midnightblue" stroke="midnightblue" points="718.64,-36.68 711.74,-44.72 722.15,-42.74 718.64,-36.68"/>
</g>
</g>
</svg>
