<?xml version="1.0" encoding="UTF-8" standalone="no"?>
<!DOCTYPE svg PUBLIC "-//W3C//DTD SVG 1.1//EN"
 "http://www.w3.org/Graphics/SVG/1.1/DTD/svg11.dtd">
<!-- Generated by graphviz version 2.50.0 (20211204.2007)
 -->
<!-- Title: MiraiCP::MiraiCPNewThread::MiraiCPNewThread Pages: 1 -->
<svg width="1001pt" height="123pt"
 viewBox="0.00 0.00 1001.00 123.00" xmlns="http://www.w3.org/2000/svg" xmlns:xlink="http://www.w3.org/1999/xlink">
<g id="graph0" class="graph" transform="scale(1 1) rotate(0) translate(4 119)">
<title>MiraiCP::MiraiCPNewThread::MiraiCPNewThread</title>
<polygon fill="white" stroke="transparent" points="-4,4 -4,-119 997,-119 997,4 -4,4"/>
<!-- Node1 -->
<g id="node1" class="node">
<title>Node1</title>
<g id="a_node1"><a xlink:title=" ">
<polygon fill="#bfbfbf" stroke="black" points="0,-25.5 0,-55.5 140,-55.5 140,-25.5 0,-25.5"/>
<text text-anchor="start" x="8" y="-43.5" font-family="Helvetica,sans-Serif" font-size="10.00">MiraiCP::MiraiCPNewThread</text>
<text text-anchor="middle" x="70" y="-32.5" font-family="Helvetica,sans-Serif" font-size="10.00">::MiraiCPNewThread</text>
</a>
</g>
</g>
<!-- Node2 -->
<g id="node2" class="node">
<title>Node2</title>
<g id="a_node2"><a xlink:href="a00652.html#a0fc8daf263296676e2714fd681c401d2" target="_top" xlink:title=" ">
<polygon fill="white" stroke="black" points="176,-25.5 176,-55.5 316,-55.5 316,-25.5 176,-25.5"/>
<text text-anchor="start" x="184" y="-43.5" font-family="Helvetica,sans-Serif" font-size="10.00">MiraiCP::MiraiCPNewThread</text>
<text text-anchor="middle" x="246" y="-32.5" font-family="Helvetica,sans-Serif" font-size="10.00">::threadExceptionBroadcast</text>
</a>
</g>
</g>
<!-- Node1&#45;&gt;Node2 -->
<g id="edge1" class="edge">
<title>Node1&#45;&gt;Node2</title>
<path fill="none" stroke="midnightblue" d="M140.02,-40.5C148.48,-40.5 157.17,-40.5 165.76,-40.5"/>
<polygon fill="midnightblue" stroke="midnightblue" points="165.78,-44 175.78,-40.5 165.78,-37 165.78,-44"/>
</g>
<!-- Node9 -->
<g id="node9" class="node">
<title>Node9</title>
<g id="a_node9"><a xlink:href="a00564.html#aaac831e38c70fa529b8894b825dba04c" target="_top" xlink:title="异常信息">
<polygon fill="white" stroke="black" points="694,-0.5 694,-30.5 829,-30.5 829,-0.5 694,-0.5"/>
<text text-anchor="start" x="702" y="-18.5" font-family="Helvetica,sans-Serif" font-size="10.00">MiraiCP::MiraiCPException</text>
<text text-anchor="middle" x="761.5" y="-7.5" font-family="Helvetica,sans-Serif" font-size="10.00">Base::what</text>
</a>
</g>
</g>
<!-- Node1&#45;&gt;Node9 -->
<g id="edge12" class="edge">
<title>Node1&#45;&gt;Node9</title>
<path fill="none" stroke="midnightblue" d="M123.45,-25.47C140.1,-21.39 158.69,-17.53 176,-15.5 356.8,5.73 571.24,-2.8 683.39,-9.8"/>
<polygon fill="midnightblue" stroke="midnightblue" points="683.38,-13.31 693.58,-10.45 683.83,-6.32 683.38,-13.31"/>
</g>
<!-- Node10 -->
<g id="node10" class="node">
<title>Node10</title>
<g id="a_node10"><a xlink:href="a00652.html#a18227b40882a2c115f0303ad61cd652a" target="_top" xlink:title=" ">
<polygon fill="white" stroke="black" points="176,-74.5 176,-104.5 316,-104.5 316,-74.5 176,-74.5"/>
<text text-anchor="start" x="184" y="-92.5" font-family="Helvetica,sans-Serif" font-size="10.00">MiraiCP::MiraiCPNewThread</text>
<text text-anchor="middle" x="246" y="-81.5" font-family="Helvetica,sans-Serif" font-size="10.00">::threadThrows</text>
</a>
</g>
</g>
<!-- Node1&#45;&gt;Node10 -->
<g id="edge10" class="edge">
<title>Node1&#45;&gt;Node10</title>
<path fill="none" stroke="midnightblue" d="M124.63,-55.6C142.74,-60.7 163.12,-66.44 181.9,-71.73"/>
<polygon fill="midnightblue" stroke="midnightblue" points="180.98,-75.11 191.55,-74.45 182.87,-68.37 180.98,-75.11"/>
</g>
<!-- Node3 -->
<g id="node3" class="node">
<title>Node3</title>
<g id="a_node3"><a xlink:href="a00468.html#adbdeabc1c1a6797391ba47201320047c" target="_top" xlink:title="广播一个事件, 必须为MiraiCPEvent的派生类">
<polygon fill="white" stroke="black" points="354.5,-77 354.5,-96 484.5,-96 484.5,-77 354.5,-77"/>
<text text-anchor="middle" x="419.5" y="-84" font-family="Helvetica,sans-Serif" font-size="10.00">MiraiCP::Event::broadcast</text>
</a>
</g>
</g>
<!-- Node2&#45;&gt;Node3 -->
<g id="edge2" class="edge">
<title>Node2&#45;&gt;Node3</title>
<path fill="none" stroke="midnightblue" d="M303.16,-55.56C325.84,-61.65 351.68,-68.58 373.14,-74.33"/>
<polygon fill="midnightblue" stroke="midnightblue" points="372.41,-77.76 382.97,-76.97 374.22,-71 372.41,-77.76"/>
</g>
<!-- Node4 -->
<g id="node4" class="node">
<title>Node4</title>
<g id="a_node4"><a xlink:href="a00564.html#a27e4eaeb594e067089585f1975b7eb74" target="_top" xlink:title="实际抛出方法">
<polygon fill="white" stroke="black" points="352,-25.5 352,-55.5 487,-55.5 487,-25.5 352,-25.5"/>
<text text-anchor="start" x="360" y="-43.5" font-family="Helvetica,sans-Serif" font-size="10.00">MiraiCP::MiraiCPException</text>
<text text-anchor="middle" x="419.5" y="-32.5" font-family="Helvetica,sans-Serif" font-size="10.00">Base::raise</text>
</a>
</g>
</g>
<!-- Node2&#45;&gt;Node4 -->
<g id="edge3" class="edge">
<title>Node2&#45;&gt;Node4</title>
<path fill="none" stroke="midnightblue" d="M316.26,-40.5C324.59,-40.5 333.13,-40.5 341.56,-40.5"/>
<polygon fill="midnightblue" stroke="midnightblue" points="341.76,-44 351.76,-40.5 341.76,-37 341.76,-44"/>
</g>
<!-- Node5 -->
<g id="node5" class="node">
<title>Node5</title>
<g id="a_node5"><a xlink:href="a00564.html#aec8e8e400265242bd3a9998af6b55880" target="_top" xlink:title="basicRaise 基本抛出方法，子类重写该方法">
<polygon fill="white" stroke="black" points="523,-25.5 523,-55.5 658,-55.5 658,-25.5 523,-25.5"/>
<text text-anchor="start" x="531" y="-43.5" font-family="Helvetica,sans-Serif" font-size="10.00">MiraiCP::MiraiCPException</text>
<text text-anchor="middle" x="590.5" y="-32.5" font-family="Helvetica,sans-Serif" font-size="10.00">Base::basicRaise</text>
</a>
</g>
</g>
<!-- Node4&#45;&gt;Node5 -->
<g id="edge4" class="edge">
<title>Node4&#45;&gt;Node5</title>
<path fill="none" stroke="midnightblue" d="M487.29,-40.5C495.62,-40.5 504.19,-40.5 512.66,-40.5"/>
<polygon fill="midnightblue" stroke="midnightblue" points="512.92,-44 522.92,-40.5 512.92,-37 512.92,-44"/>
</g>
<!-- Node6 -->
<g id="node6" class="node">
<title>Node6</title>
<g id="a_node6"><a xlink:href="a00612.html#af14d39efa300da183070784bc86d3f23" target="_top" xlink:title="发送错误(error级日志)">
<polygon fill="white" stroke="black" points="697.5,-59.5 697.5,-89.5 825.5,-89.5 825.5,-59.5 697.5,-59.5"/>
<text text-anchor="start" x="705.5" y="-77.5" font-family="Helvetica,sans-Serif" font-size="10.00">MiraiCP::Logger_interface</text>
<text text-anchor="middle" x="761.5" y="-66.5" font-family="Helvetica,sans-Serif" font-size="10.00">::error</text>
</a>
</g>
</g>
<!-- Node4&#45;&gt;Node6 -->
<g id="edge9" class="edge">
<title>Node4&#45;&gt;Node6</title>
<path fill="none" stroke="midnightblue" d="M473.31,-55.53C489.16,-59.46 506.67,-63.22 523,-65.5 577.73,-73.13 640.19,-75.24 687.32,-75.52"/>
<polygon fill="midnightblue" stroke="midnightblue" points="687.43,-79.02 697.44,-75.55 687.45,-72.02 687.43,-79.02"/>
</g>
<!-- Node5&#45;&gt;Node6 -->
<g id="edge5" class="edge">
<title>Node5&#45;&gt;Node6</title>
<path fill="none" stroke="midnightblue" d="M658.29,-53.94C667.88,-55.87 677.78,-57.86 687.48,-59.81"/>
<polygon fill="midnightblue" stroke="midnightblue" points="687,-63.28 697.5,-61.82 688.38,-56.42 687,-63.28"/>
</g>
<!-- Node5&#45;&gt;Node9 -->
<g id="edge8" class="edge">
<title>Node5&#45;&gt;Node9</title>
<path fill="none" stroke="midnightblue" d="M658.29,-30.62C666.72,-29.37 675.38,-28.09 683.94,-26.83"/>
<polygon fill="midnightblue" stroke="midnightblue" points="684.54,-30.28 693.92,-25.35 683.51,-23.35 684.54,-30.28"/>
</g>
<!-- Node7 -->
<g id="node7" class="node">
<title>Node7</title>
<g id="a_node7"><a xlink:href="a00612.html#a98af60f864a0446e23a7a27a3419d9b8" target="_top" xlink:title=" ">
<polygon fill="white" stroke="black" points="865,-84.5 865,-114.5 993,-114.5 993,-84.5 865,-84.5"/>
<text text-anchor="start" x="873" y="-102.5" font-family="Helvetica,sans-Serif" font-size="10.00">MiraiCP::Logger_interface</text>
<text text-anchor="middle" x="929" y="-91.5" font-family="Helvetica,sans-Serif" font-size="10.00">::constructString</text>
</a>
</g>
</g>
<!-- Node6&#45;&gt;Node7 -->
<g id="edge6" class="edge">
<title>Node6&#45;&gt;Node7</title>
<path fill="none" stroke="midnightblue" d="M825.54,-84.02C835.1,-85.47 845.03,-86.97 854.79,-88.44"/>
<polygon fill="midnightblue" stroke="midnightblue" points="854.45,-91.93 864.86,-89.96 855.5,-85.01 854.45,-91.93"/>
</g>
<!-- Node8 -->
<g id="node8" class="node">
<title>Node8</title>
<g id="a_node8"><a xlink:href="a00612.html#a86ea9d57475a3004be2a32b2c4c76371" target="_top" xlink:title="日志底层实现封装">
<polygon fill="white" stroke="black" points="865,-35.5 865,-65.5 993,-65.5 993,-35.5 865,-35.5"/>
<text text-anchor="start" x="873" y="-53.5" font-family="Helvetica,sans-Serif" font-size="10.00">MiraiCP::Logger_interface</text>
<text text-anchor="middle" x="929" y="-42.5" font-family="Helvetica,sans-Serif" font-size="10.00">::log_interface</text>
</a>
</g>
</g>
<!-- Node6&#45;&gt;Node8 -->
<g id="edge7" class="edge">
<title>Node6&#45;&gt;Node8</title>
<path fill="none" stroke="midnightblue" d="M825.54,-65.36C835.1,-63.97 845.03,-62.53 854.79,-61.12"/>
<polygon fill="midnightblue" stroke="midnightblue" points="855.47,-64.56 864.86,-59.66 854.46,-57.63 855.47,-64.56"/>
</g>
<!-- Node10&#45;&gt;Node3 -->
<g id="edge11" class="edge">
<title>Node10&#45;&gt;Node3</title>
<path fill="none" stroke="midnightblue" d="M316.26,-88.29C325.38,-88.13 334.76,-87.96 343.96,-87.8"/>
<polygon fill="midnightblue" stroke="midnightblue" points="344.31,-91.3 354.25,-87.62 344.19,-84.3 344.31,-91.3"/>
</g>
</g>
</svg>
