<?xml version="1.0" encoding="UTF-8" standalone="no"?>
<!DOCTYPE svg PUBLIC "-//W3C//DTD SVG 1.1//EN"
 "http://www.w3.org/Graphics/SVG/1.1/DTD/svg11.dtd">
<!-- Generated by graphviz version 9.0.0 (0)
 -->
<!-- Title: MiraiCP::internal::OfflineAnnouncement Pages: 1 -->
<svg width="208pt" height="356pt"
 viewBox="0.00 0.00 208.25 356.00" xmlns="http://www.w3.org/2000/svg" xmlns:xlink="http://www.w3.org/1999/xlink">
<g id="graph0" class="graph" transform="scale(1 1) rotate(0) translate(4 352)">
<title>MiraiCP::internal::OfflineAnnouncement</title>
<!-- Node1 -->
<g id="Node000001" class="node">
<title>Node1</title>
<g id="a_Node000001"><a xlink:title=" ">
<polygon fill="#999999" stroke="none" points="131,-76 0,-76 0,0 131,0 131,-76"/>
<text text-anchor="start" x="19" y="-62.5" font-family="Helvetica,sans-Serif" font-size="10.00">MiraiCP::internal::</text>
<text text-anchor="start" x="19" y="-50.5" font-family="Helvetica,sans-Serif" font-size="10.00">OfflineAnnouncement</text>
<text text-anchor="start" x="64" y="-34.5" font-family="Helvetica,sans-Serif" font-size="10.00"> </text>
<text text-anchor="start" x="4" y="-18.5" font-family="Helvetica,sans-Serif" font-size="10.00">+</text>
<text text-anchor="start" x="14" y="-18.5" font-family="Helvetica,sans-Serif" font-size="10.00">OnlineAnnouncement</text>
<text text-anchor="start" x="14" y="-6.5" font-family="Helvetica,sans-Serif" font-size="10.00"> publishTo(const Group &amp;)</text>
<polygon fill="#666666" stroke="#666666" points="0,-46 0,-46 131,-46 131,-46 0,-46"/>
<polygon fill="#666666" stroke="#666666" points="0,-30 0,-30 131,-30 131,-30 0,-30"/>
<polygon fill="none" stroke="#666666" points="0,0 0,-76 131,-76 131,0 0,0"/>
</a>
</g>
</g>
<!-- Node2 -->
<g id="Node000002" class="node">
<title>Node2</title>
<g id="a_Node000002"><a xlink:title=" ">
<polygon fill="white" stroke="none" points="50.5,-188 16.5,-188 16.5,-136 50.5,-136 50.5,-188"/>
<text text-anchor="start" x="21.5" y="-174.5" font-family="Helvetica,sans-Serif" font-size="10.00">string</text>
<text text-anchor="start" x="32" y="-158.5" font-family="Helvetica,sans-Serif" font-size="10.00"> </text>
<text text-anchor="start" x="32" y="-142.5" font-family="Helvetica,sans-Serif" font-size="10.00"> </text>
<polygon fill="#666666" stroke="#666666" points="16.5,-170 16.5,-170 50.5,-170 50.5,-170 16.5,-170"/>
<polygon fill="#666666" stroke="#666666" points="16.5,-154 16.5,-154 50.5,-154 50.5,-154 16.5,-154"/>
<polygon fill="none" stroke="#666666" points="16.5,-136 16.5,-188 50.5,-188 50.5,-136 16.5,-136"/>
</a>
</g>
</g>
<!-- Node2&#45;&gt;Node1 -->
<g id="edge1_Node000001_Node000002" class="edge">
<title>Node2&#45;&gt;Node1</title>
<g id="a_edge1_Node000001_Node000002"><a xlink:title=" ">
<path fill="none" stroke="#63b8ff" d="M39.55,-136.14C42.67,-123.5 46.58,-107.91 50.25,-94 50.73,-92.17 51.23,-90.31 51.73,-88.44"/>
<polygon fill="none" stroke="#63b8ff" points="51.74,-88.4 49.45,-81.56 54.88,-76.82 57.17,-83.65 51.74,-88.4"/>
</a>
</g>
<text text-anchor="middle" x="71.12" y="-96.5" font-family="Helvetica,sans-Serif" font-size="10.00" fill="grey"> +content</text>
</g>
<!-- Node3 -->
<g id="Node000003" class="node">
<title>Node3</title>
<g id="a_Node000003"><a xlink:href="a00612.html" target="_top" xlink:title=" ">
<polygon fill="white" stroke="none" points="192,-200 69,-200 69,-124 192,-124 192,-200"/>
<text text-anchor="start" x="81" y="-186.5" font-family="Helvetica,sans-Serif" font-size="10.00">MiraiCP::internal::</text>
<text text-anchor="start" x="81" y="-174.5" font-family="Helvetica,sans-Serif" font-size="10.00">AnnouncementParams</text>
<text text-anchor="start" x="129" y="-158.5" font-family="Helvetica,sans-Serif" font-size="10.00"> </text>
<text text-anchor="start" x="73" y="-142.5" font-family="Helvetica,sans-Serif" font-size="10.00">+</text>
<text text-anchor="start" x="83" y="-142.5" font-family="Helvetica,sans-Serif" font-size="10.00">nlohmann::json serialize</text>
<text text-anchor="start" x="83" y="-130.5" font-family="Helvetica,sans-Serif" font-size="10.00">ToJson()</text>
<polygon fill="#666666" stroke="#666666" points="69,-170 69,-170 192,-170 192,-170 69,-170"/>
<polygon fill="#666666" stroke="#666666" points="69,-154 69,-154 192,-154 192,-154 69,-154"/>
<polygon fill="none" stroke="#666666" points="69,-124 69,-200 192,-200 192,-124 69,-124"/>
</a>
</g>
</g>
<!-- Node3&#45;&gt;Node1 -->
<g id="edge2_Node000001_Node000003" class="edge">
<title>Node3&#45;&gt;Node1</title>
<g id="a_edge2_Node000001_Node000003"><a xlink:title=" ">
<path fill="none" stroke="#63b8ff" d="M110.82,-124.06C104.65,-112.48 97.74,-99.51 91.21,-87.26"/>
<polygon fill="none" stroke="#63b8ff" points="91.18,-87.2 84.83,-83.78 85.54,-76.61 91.89,-80.02 91.18,-87.2"/>
</a>
</g>
<text text-anchor="middle" x="120.12" y="-96.5" font-family="Helvetica,sans-Serif" font-size="10.00" fill="grey"> +params</text>
</g>
<!-- Node4 -->
<g id="Node000004" class="node">
<title>Node4</title>
<g id="a_Node000004"><a xlink:title=" ">
<polygon fill="white" stroke="none" points="144.5,-348 116.5,-348 116.5,-296 144.5,-296 144.5,-348"/>
<text text-anchor="start" x="121.5" y="-334.5" font-family="Helvetica,sans-Serif" font-size="10.00">bool</text>
<text text-anchor="start" x="129" y="-318.5" font-family="Helvetica,sans-Serif" font-size="10.00"> </text>
<text text-anchor="start" x="129" y="-302.5" font-family="Helvetica,sans-Serif" font-size="10.00"> </text>
<polygon fill="#666666" stroke="#666666" points="116.5,-330 116.5,-330 144.5,-330 144.5,-330 116.5,-330"/>
<polygon fill="#666666" stroke="#666666" points="116.5,-314 116.5,-314 144.5,-314 144.5,-314 116.5,-314"/>
<polygon fill="none" stroke="#666666" points="116.5,-296 116.5,-348 144.5,-348 144.5,-296 116.5,-296"/>
</a>
</g>
</g>
<!-- Node4&#45;&gt;Node3 -->
<g id="edge3_Node000003_Node000004" class="edge">
<title>Node4&#45;&gt;Node3</title>
<g id="a_edge3_Node000003_Node000004"><a xlink:title=" ">
<path fill="none" stroke="#63b8ff" d="M130.5,-296.31C130.5,-273.98 130.5,-240.44 130.5,-212.58"/>
<polygon fill="none" stroke="#63b8ff" points="130.5,-212.75 126.5,-206.75 130.5,-200.75 134.5,-206.75 130.5,-212.75"/>
</a>
</g>
<text text-anchor="middle" x="165.38" y="-268.5" font-family="Helvetica,sans-Serif" font-size="10.00" fill="grey"> +pinned</text>
<text text-anchor="middle" x="165.38" y="-256.5" font-family="Helvetica,sans-Serif" font-size="10.00" fill="grey">+requireConfirm</text>
<text text-anchor="middle" x="165.38" y="-244.5" font-family="Helvetica,sans-Serif" font-size="10.00" fill="grey">+send2new</text>
<text text-anchor="middle" x="165.38" y="-232.5" font-family="Helvetica,sans-Serif" font-size="10.00" fill="grey">+showEditCard</text>
<text text-anchor="middle" x="165.38" y="-220.5" font-family="Helvetica,sans-Serif" font-size="10.00" fill="grey">+showPopup</text>
</g>
</g>
</svg>
