<?xml version="1.0" encoding="UTF-8" standalone="no"?>
<!DOCTYPE svg PUBLIC "-//W3C//DTD SVG 1.1//EN"
 "http://www.w3.org/Graphics/SVG/1.1/DTD/svg11.dtd">
<!-- Generated by graphviz version 2.50.0 (20211204.2007)
 -->
<!-- Title: MiraiCP::Member::Member Pages: 1 -->
<svg width="329pt" height="138pt"
 viewBox="0.00 0.00 329.00 137.50" xmlns="http://www.w3.org/2000/svg" xmlns:xlink="http://www.w3.org/1999/xlink">
<g id="graph0" class="graph" transform="scale(1 1) rotate(0) translate(4 133.5)">
<title>MiraiCP::Member::Member</title>
<polygon fill="white" stroke="transparent" points="-4,4 -4,-133.5 325,-133.5 325,4 -4,4"/>
<!-- Node1 -->
<g id="node1" class="node">
<title>Node1</title>
<g id="a_node1"><a xlink:title="构建群成员对象，一般为内部调用">
<polygon fill="#bfbfbf" stroke="black" points="0,-49.5 0,-68.5 134,-68.5 134,-49.5 0,-49.5"/>
<text text-anchor="middle" x="67" y="-56.5" font-family="Helvetica,sans-Serif" font-size="10.00">MiraiCP::Member::Member</text>
</a>
</g>
</g>
<!-- Node2 -->
<g id="node2" class="node">
<title>Node2</title>
<g id="a_node2"><a xlink:href="a00445.html#aa6f2fbe2c5897a59431fe891e3ed1072" target="_top" xlink:title="强制下次 refreshInfo() 调用时刷新数据">
<polygon fill="white" stroke="black" points="170,-99 170,-129 321,-129 321,-99 170,-99"/>
<text text-anchor="start" x="178" y="-117" font-family="Helvetica,sans-Serif" font-size="10.00">MiraiCP::Contact::forceRefresh</text>
<text text-anchor="middle" x="245.5" y="-106" font-family="Helvetica,sans-Serif" font-size="10.00">NextTime</text>
</a>
</g>
</g>
<!-- Node1&#45;&gt;Node2 -->
<g id="edge1" class="edge">
<title>Node1&#45;&gt;Node2</title>
<path fill="none" stroke="midnightblue" d="M98.74,-68.58C122.88,-76.1 157.18,-86.79 186.44,-95.91"/>
<polygon fill="midnightblue" stroke="midnightblue" points="185.57,-99.3 196.15,-98.93 187.65,-92.62 185.57,-99.3"/>
</g>
<!-- Node3 -->
<g id="node3" class="node">
<title>Node3</title>
<g id="a_node3"><a xlink:href="a00449.html#ace946a4a220bd1573f1e42c9628a3a08" target="_top" xlink:title="获取指向的数据的裸指针，实际取内容时必须通过该函数，否则可能会取不到。">
<polygon fill="white" stroke="black" points="176,-38.5 176,-79.5 315,-79.5 315,-38.5 176,-38.5"/>
<text text-anchor="start" x="184" y="-67.5" font-family="Helvetica,sans-Serif" font-size="10.00">MiraiCP::ContactDataHelper</text>
<text text-anchor="start" x="184" y="-56.5" font-family="Helvetica,sans-Serif" font-size="10.00">&lt; Member, MemberData &gt;::</text>
<text text-anchor="middle" x="245.5" y="-45.5" font-family="Helvetica,sans-Serif" font-size="10.00">GetDataInternal</text>
</a>
</g>
</g>
<!-- Node1&#45;&gt;Node3 -->
<g id="edge2" class="edge">
<title>Node1&#45;&gt;Node3</title>
<path fill="none" stroke="midnightblue" d="M134.22,-59C144.53,-59 155.26,-59 165.81,-59"/>
<polygon fill="midnightblue" stroke="midnightblue" points="165.84,-62.5 175.84,-59 165.84,-55.5 165.84,-62.5"/>
</g>
<!-- Node4 -->
<g id="node4" class="node">
<title>Node4</title>
<g id="a_node4"><a xlink:href="a00394.html#a4208a634d81d0263c1079debe2ab58fa" target="_top" xlink:title=" ">
<polygon fill="white" stroke="black" points="180.5,-0.5 180.5,-19.5 310.5,-19.5 310.5,-0.5 180.5,-0.5"/>
<text text-anchor="middle" x="245.5" y="-7.5" font-family="Helvetica,sans-Serif" font-size="10.00">MiraiCP::json_stringmover</text>
</a>
</g>
</g>
<!-- Node1&#45;&gt;Node4 -->
<g id="edge3" class="edge">
<title>Node1&#45;&gt;Node4</title>
<path fill="none" stroke="midnightblue" d="M99.62,-49.38C119.72,-43.34 146.33,-35.5 170,-29 178.33,-26.71 187.2,-24.37 195.82,-22.14"/>
<polygon fill="midnightblue" stroke="midnightblue" points="196.94,-25.47 205.76,-19.6 195.21,-18.69 196.94,-25.47"/>
</g>
</g>
</svg>
