<?xml version="1.0" encoding="UTF-8" standalone="no"?>
<!DOCTYPE svg PUBLIC "-//W3C//DTD SVG 1.1//EN"
 "http://www.w3.org/Graphics/SVG/1.1/DTD/svg11.dtd">
<!-- Generated by graphviz version 2.50.0 (20211204.2007)
 -->
<!-- Title: MiraiCP::Group::getFileById Pages: 1 -->
<svg width="328pt" height="66pt"
 viewBox="0.00 0.00 328.00 66.00" xmlns="http://www.w3.org/2000/svg" xmlns:xlink="http://www.w3.org/1999/xlink">
<g id="graph0" class="graph" transform="scale(1 1) rotate(0) translate(4 62)">
<title>MiraiCP::Group::getFileById</title>
<polygon fill="white" stroke="transparent" points="-4,4 -4,-62 324,-62 324,4 -4,4"/>
<!-- Node1 -->
<g id="node1" class="node">
<title>Node1</title>
<g id="a_node1"><a xlink:title="取文件信息(根据id)">
<polygon fill="#bfbfbf" stroke="black" points="182,-19.5 182,-38.5 320,-38.5 320,-19.5 182,-19.5"/>
<text text-anchor="middle" x="251" y="-26.5" font-family="Helvetica,sans-Serif" font-size="10.00">MiraiCP::Group::getFileById</text>
</a>
</g>
</g>
<!-- Node2 -->
<g id="node2" class="node">
<title>Node2</title>
<g id="a_node2"><a xlink:href="a00645.html#a65f239346553568ddc1d75099dbedb6a" target="_top" xlink:title=" ">
<polygon fill="white" stroke="black" points="13.5,-38.5 13.5,-57.5 132.5,-57.5 132.5,-38.5 13.5,-38.5"/>
<text text-anchor="middle" x="73" y="-45.5" font-family="Helvetica,sans-Serif" font-size="10.00">MiraiCP::Group::getFile</text>
</a>
</g>
</g>
<!-- Node1&#45;&gt;Node2 -->
<g id="edge1" class="edge">
<title>Node1&#45;&gt;Node2</title>
<path fill="none" stroke="midnightblue" d="M171.95,-37.43C158.77,-38.85 145.29,-40.3 132.7,-41.66"/>
<polygon fill="midnightblue" stroke="midnightblue" points="172.39,-40.9 181.95,-36.35 171.64,-33.94 172.39,-40.9"/>
</g>
<!-- Node3 -->
<g id="node3" class="node">
<title>Node3</title>
<g id="a_node3"><a xlink:href="a00645.html#a2a2d2d51902d818f7e52a72229446a57" target="_top" xlink:title=" ">
<polygon fill="white" stroke="black" points="0,-0.5 0,-19.5 146,-19.5 146,-0.5 0,-0.5"/>
<text text-anchor="middle" x="73" y="-7.5" font-family="Helvetica,sans-Serif" font-size="10.00">MiraiCP::Group::getFileByFile</text>
</a>
</g>
</g>
<!-- Node1&#45;&gt;Node3 -->
<g id="edge2" class="edge">
<title>Node1&#45;&gt;Node3</title>
<path fill="none" stroke="midnightblue" d="M171.98,-20.58C163.42,-19.65 154.73,-18.71 146.24,-17.8"/>
<polygon fill="midnightblue" stroke="midnightblue" points="171.64,-24.06 181.95,-21.65 172.39,-17.1 171.64,-24.06"/>
</g>
</g>
</svg>
