<?xml version="1.0" encoding="UTF-8" standalone="no"?>
<!DOCTYPE svg PUBLIC "-//W3C//DTD SVG 1.1//EN"
 "http://www.w3.org/Graphics/SVG/1.1/DTD/svg11.dtd">
<!-- Generated by graphviz version 2.50.0 (20211204.2007)
 -->
<!-- Title: MiraiCP::MessageChain::deserializationFromMiraiCode Pages: 1 -->
<svg width="342pt" height="78pt"
 viewBox="0.00 0.00 342.00 77.50" xmlns="http://www.w3.org/2000/svg" xmlns:xlink="http://www.w3.org/1999/xlink">
<g id="graph0" class="graph" transform="scale(1 1) rotate(0) translate(4 73.5)">
<title>MiraiCP::MessageChain::deserializationFromMiraiCode</title>
<polygon fill="white" stroke="transparent" points="-4,4 -4,-73.5 338,-73.5 338,4 -4,4"/>
<!-- Node1 -->
<g id="node1" class="node">
<title>Node1</title>
<g id="a_node1"><a xlink:title="从miraicode string构建MessageChain">
<polygon fill="#bfbfbf" stroke="black" points="183,-17 183,-47 334,-47 334,-17 183,-17"/>
<text text-anchor="start" x="191" y="-35" font-family="Helvetica,sans-Serif" font-size="10.00">MiraiCP::MessageChain</text>
<text text-anchor="middle" x="258.5" y="-24" font-family="Helvetica,sans-Serif" font-size="10.00">::deserializationFromMiraiCode</text>
</a>
</g>
</g>
<!-- Node2 -->
<g id="node2" class="node">
<title>Node2</title>
<g id="a_node2"><a xlink:href="a00636.html#ae6f7253c754243afaa831cf42034c1bd" target="_top" xlink:title=" ">
<polygon fill="white" stroke="black" points="12.5,-39 12.5,-69 134.5,-69 134.5,-39 12.5,-39"/>
<text text-anchor="start" x="20.5" y="-57" font-family="Helvetica,sans-Serif" font-size="10.00">MiraiCP::MessageChain</text>
<text text-anchor="middle" x="73.5" y="-46" font-family="Helvetica,sans-Serif" font-size="10.00">::constructMessages</text>
</a>
</g>
</g>
<!-- Node1&#45;&gt;Node2 -->
<g id="edge1" class="edge">
<title>Node1&#45;&gt;Node2</title>
<path fill="none" stroke="midnightblue" d="M172.6,-42.21C159.8,-43.75 146.83,-45.3 134.69,-46.76"/>
<polygon fill="midnightblue" stroke="midnightblue" points="173.29,-45.65 182.8,-40.98 172.46,-38.7 173.29,-45.65"/>
</g>
<!-- Node3 -->
<g id="node3" class="node">
<title>Node3</title>
<g id="a_node3"><a xlink:href="a00448.html#a41f4d0ce7bdaaa02e29f59128053b47b" target="_top" xlink:title=" ">
<polygon fill="white" stroke="black" points="0,-0.5 0,-19.5 147,-19.5 147,-0.5 0,-0.5"/>
<text text-anchor="middle" x="73.5" y="-7.5" font-family="Helvetica,sans-Serif" font-size="10.00">MiraiCP::Contact::unpackMsg</text>
</a>
</g>
</g>
<!-- Node1&#45;&gt;Node3 -->
<g id="edge2" class="edge">
<title>Node1&#45;&gt;Node3</title>
<path fill="none" stroke="midnightblue" d="M172.81,-21.82C164.24,-20.79 155.6,-19.75 147.18,-18.74"/>
<polygon fill="midnightblue" stroke="midnightblue" points="172.46,-25.3 182.8,-23.02 173.29,-18.35 172.46,-25.3"/>
</g>
</g>
</svg>
