<?xml version="1.0" encoding="UTF-8" standalone="no"?>
<!DOCTYPE svg PUBLIC "-//W3C//DTD SVG 1.1//EN"
 "http://www.w3.org/Graphics/SVG/1.1/DTD/svg11.dtd">
<!-- Generated by graphviz version 2.50.0 (20211204.2007)
 -->
<!-- Title: MiraiCP::ForwardedMessage::deserializationFromMessageJson Pages: 1 -->
<svg width="903pt" height="192pt"
 viewBox="0.00 0.00 903.00 191.50" xmlns="http://www.w3.org/2000/svg" xmlns:xlink="http://www.w3.org/1999/xlink">
<g id="graph0" class="graph" transform="scale(1 1) rotate(0) translate(4 187.5)">
<title>MiraiCP::ForwardedMessage::deserializationFromMessageJson</title>
<polygon fill="white" stroke="transparent" points="-4,4 -4,-187.5 899,-187.5 899,4 -4,4"/>
<!-- Node1 -->
<g id="node1" class="node">
<title>Node1</title>
<g id="a_node1"><a xlink:title=" ">
<polygon fill="#bfbfbf" stroke="black" points="0,-98.5 0,-128.5 167,-128.5 167,-98.5 0,-98.5"/>
<text text-anchor="start" x="8" y="-116.5" font-family="Helvetica,sans-Serif" font-size="10.00">MiraiCP::ForwardedMessage</text>
<text text-anchor="middle" x="83.5" y="-105.5" font-family="Helvetica,sans-Serif" font-size="10.00">::deserializationFromMessageJson</text>
</a>
</g>
</g>
<!-- Node1&#45;&gt;Node1 -->
<g id="edge2" class="edge">
<title>Node1&#45;&gt;Node1</title>
<path fill="none" stroke="midnightblue" d="M48.3,-128.66C39.81,-138.06 51.54,-147 83.5,-147 102.97,-147 114.94,-143.68 119.39,-138.96"/>
<polygon fill="midnightblue" stroke="midnightblue" points="122.86,-138.4 118.7,-128.66 115.88,-138.87 122.86,-138.4"/>
</g>
<!-- Node2 -->
<g id="node2" class="node">
<title>Node2</title>
<g id="a_node2"><a xlink:href="a00625.html#ae41f2b998365484dba1ff3f32563dfbb" target="_top" xlink:title=" ">
<polygon fill="white" stroke="black" points="208,-147.5 208,-177.5 365,-177.5 365,-147.5 208,-147.5"/>
<text text-anchor="start" x="216" y="-165.5" font-family="Helvetica,sans-Serif" font-size="10.00">MiraiCP::ForwardedMessage</text>
<text text-anchor="middle" x="286.5" y="-154.5" font-family="Helvetica,sans-Serif" font-size="10.00">DisplayStrategy::defaultStrategy</text>
</a>
</g>
</g>
<!-- Node1&#45;&gt;Node2 -->
<g id="edge1" class="edge">
<title>Node1&#45;&gt;Node2</title>
<path fill="none" stroke="midnightblue" d="M146.17,-128.53C167.59,-133.76 191.78,-139.65 213.93,-145.05"/>
<polygon fill="midnightblue" stroke="midnightblue" points="213.4,-148.53 223.94,-147.49 215.06,-141.72 213.4,-148.53"/>
</g>
<!-- Node3 -->
<g id="node3" class="node">
<title>Node3</title>
<g id="a_node3"><a xlink:href="a00709.html#ad76190cce563a29637e62105e7db52d9" target="_top" xlink:title=" ">
<polygon fill="white" stroke="black" points="203,-98.5 203,-128.5 370,-128.5 370,-98.5 203,-98.5"/>
<text text-anchor="start" x="211" y="-116.5" font-family="Helvetica,sans-Serif" font-size="10.00">MiraiCP::MessageChain</text>
<text text-anchor="middle" x="286.5" y="-105.5" font-family="Helvetica,sans-Serif" font-size="10.00">::deserializationFromMessageJson</text>
</a>
</g>
</g>
<!-- Node1&#45;&gt;Node3 -->
<g id="edge3" class="edge">
<title>Node1&#45;&gt;Node3</title>
<path fill="none" stroke="midnightblue" d="M167.12,-106.85C175.61,-106.75 184.27,-106.73 192.85,-106.77"/>
<polygon fill="midnightblue" stroke="midnightblue" points="192.84,-110.27 202.87,-106.85 192.9,-103.27 192.84,-110.27"/>
</g>
<!-- Node13 -->
<g id="node13" class="node">
<title>Node13</title>
<g id="a_node13"><a xlink:href="a00633.html#ae33afe7b370688c3a3e3252e360ae176" target="_top" xlink:title="构建一条聊天记录">
<polygon fill="white" stroke="black" points="215.5,-49.5 215.5,-79.5 357.5,-79.5 357.5,-49.5 215.5,-49.5"/>
<text text-anchor="start" x="223.5" y="-67.5" font-family="Helvetica,sans-Serif" font-size="10.00">MiraiCP::ForwardedMessage</text>
<text text-anchor="middle" x="286.5" y="-56.5" font-family="Helvetica,sans-Serif" font-size="10.00">::ForwardedMessage</text>
</a>
</g>
</g>
<!-- Node1&#45;&gt;Node13 -->
<g id="edge16" class="edge">
<title>Node1&#45;&gt;Node13</title>
<path fill="none" stroke="midnightblue" d="M146.17,-98.47C167.59,-93.24 191.78,-87.35 213.93,-81.95"/>
<polygon fill="midnightblue" stroke="midnightblue" points="215.06,-85.28 223.94,-79.51 213.4,-78.47 215.06,-85.28"/>
</g>
<!-- Node14 -->
<g id="node14" class="node">
<title>Node14</title>
<g id="a_node14"><a xlink:href="a00625.html#ac7a83085f9b152d720a0725b5e770ff2" target="_top" xlink:title=" ">
<polygon fill="white" stroke="black" points="215.5,-0.5 215.5,-30.5 357.5,-30.5 357.5,-0.5 215.5,-0.5"/>
<text text-anchor="start" x="223.5" y="-18.5" font-family="Helvetica,sans-Serif" font-size="10.00">MiraiCP::ForwardedMessage</text>
<text text-anchor="middle" x="286.5" y="-7.5" font-family="Helvetica,sans-Serif" font-size="10.00">DisplayStrategy::fromJson</text>
</a>
</g>
</g>
<!-- Node1&#45;&gt;Node14 -->
<g id="edge17" class="edge">
<title>Node1&#45;&gt;Node14</title>
<path fill="none" stroke="midnightblue" d="M104.93,-98.29C127.8,-81.86 166.47,-55.84 203,-39.5 207.37,-37.55 211.93,-35.71 216.58,-33.98"/>
<polygon fill="midnightblue" stroke="midnightblue" points="217.92,-37.22 226.2,-30.6 215.6,-30.62 217.92,-37.22"/>
</g>
<!-- Node3&#45;&gt;Node1 -->
<g id="edge5" class="edge">
<title>Node3&#45;&gt;Node1</title>
<path fill="none" stroke="midnightblue" d="M202.87,-120.15C194.39,-120.25 185.73,-120.27 177.15,-120.23"/>
<polygon fill="midnightblue" stroke="midnightblue" points="177.15,-116.73 167.12,-120.15 177.1,-123.73 177.15,-116.73"/>
</g>
<!-- Node4 -->
<g id="node4" class="node">
<title>Node4</title>
<g id="a_node4"><a xlink:href="a00709.html#a784cfbcfd8efea6f6c5a2a3b9131bb1f" target="_top" xlink:title="使用emplace_back构造Message添加元素">
<polygon fill="white" stroke="black" points="406,-164 406,-183 549,-183 549,-164 406,-164"/>
<text text-anchor="middle" x="477.5" y="-171" font-family="Helvetica,sans-Serif" font-size="10.00">MiraiCP::MessageChain::add</text>
</a>
</g>
</g>
<!-- Node3&#45;&gt;Node4 -->
<g id="edge4" class="edge">
<title>Node3&#45;&gt;Node4</title>
<path fill="none" stroke="midnightblue" d="M337.73,-128.52C348.4,-131.76 359.58,-135.21 370,-138.5 392.81,-145.7 418.26,-154.06 438.56,-160.79"/>
<polygon fill="midnightblue" stroke="midnightblue" points="437.49,-164.13 448.08,-163.96 439.7,-157.48 437.49,-164.13"/>
</g>
<!-- Node5 -->
<g id="node5" class="node">
<title>Node5</title>
<g id="a_node5"><a xlink:href="a00713.html#a1f98db6bbdf6b7d178bf92f55fd2e4dc" target="_top" xlink:title="从json字符串反序列化到MessageSource对象">
<polygon fill="white" stroke="black" points="413.5,-76.5 413.5,-106.5 541.5,-106.5 541.5,-76.5 413.5,-76.5"/>
<text text-anchor="start" x="421.5" y="-94.5" font-family="Helvetica,sans-Serif" font-size="10.00">MiraiCP::MessageSource</text>
<text text-anchor="middle" x="477.5" y="-83.5" font-family="Helvetica,sans-Serif" font-size="10.00">::deserializeFromString</text>
</a>
</g>
</g>
<!-- Node3&#45;&gt;Node5 -->
<g id="edge6" class="edge">
<title>Node3&#45;&gt;Node5</title>
<path fill="none" stroke="midnightblue" d="M370.12,-103.88C381.11,-102.6 392.32,-101.3 403.14,-100.04"/>
<polygon fill="midnightblue" stroke="midnightblue" points="403.84,-103.48 413.37,-98.85 403.03,-96.53 403.84,-103.48"/>
</g>
<!-- Node9 -->
<g id="node9" class="node">
<title>Node9</title>
<g id="a_node9"><a xlink:href="a00733.html#a7412c91a4b45c7f1d77cf904af64b6d7" target="_top" xlink:title="找对应类型的index key">
<polygon fill="white" stroke="black" points="415.5,-27.5 415.5,-57.5 539.5,-57.5 539.5,-27.5 415.5,-27.5"/>
<text text-anchor="start" x="423.5" y="-45.5" font-family="Helvetica,sans-Serif" font-size="10.00">MiraiCP::SingleMessage</text>
<text text-anchor="middle" x="477.5" y="-34.5" font-family="Helvetica,sans-Serif" font-size="10.00">::getKey</text>
</a>
</g>
</g>
<!-- Node3&#45;&gt;Node9 -->
<g id="edge10" class="edge">
<title>Node3&#45;&gt;Node9</title>
<path fill="none" stroke="midnightblue" d="M344.12,-98.44C352.92,-95.5 361.81,-92.17 370,-88.5 387.11,-80.83 389.02,-74.46 406,-66.5 409.99,-64.63 414.17,-62.83 418.42,-61.12"/>
<polygon fill="midnightblue" stroke="midnightblue" points="419.71,-64.37 427.78,-57.51 417.19,-57.84 419.71,-64.37"/>
</g>
<!-- Node12 -->
<g id="node12" class="node">
<title>Node12</title>
<g id="a_node12"><a xlink:href="a00673.html#a279a66d53b8b825f4a9ebc8fe30f20d6" target="_top" xlink:title="发送警告(warning级日志)">
<polygon fill="white" stroke="black" points="585,-122.5 585,-152.5 713,-152.5 713,-122.5 585,-122.5"/>
<text text-anchor="start" x="593" y="-140.5" font-family="Helvetica,sans-Serif" font-size="10.00">MiraiCP::Logger_interface</text>
<text text-anchor="middle" x="649" y="-129.5" font-family="Helvetica,sans-Serif" font-size="10.00">::warning</text>
</a>
</g>
</g>
<!-- Node3&#45;&gt;Node12 -->
<g id="edge13" class="edge">
<title>Node3&#45;&gt;Node12</title>
<path fill="none" stroke="midnightblue" d="M370.21,-119.01C431.91,-123.11 515.44,-128.67 574.74,-132.62"/>
<polygon fill="midnightblue" stroke="midnightblue" points="574.57,-136.12 584.78,-133.29 575.04,-129.13 574.57,-136.12"/>
</g>
<!-- Node6 -->
<g id="node6" class="node">
<title>Node6</title>
<g id="a_node6"><a xlink:href="a00673.html#af14d39efa300da183070784bc86d3f23" target="_top" xlink:title="发送错误(error级日志)">
<polygon fill="white" stroke="black" points="585,-73.5 585,-103.5 713,-103.5 713,-73.5 585,-73.5"/>
<text text-anchor="start" x="593" y="-91.5" font-family="Helvetica,sans-Serif" font-size="10.00">MiraiCP::Logger_interface</text>
<text text-anchor="middle" x="649" y="-80.5" font-family="Helvetica,sans-Serif" font-size="10.00">::error</text>
</a>
</g>
</g>
<!-- Node5&#45;&gt;Node6 -->
<g id="edge7" class="edge">
<title>Node5&#45;&gt;Node6</title>
<path fill="none" stroke="midnightblue" d="M541.62,-90.38C552.43,-90.19 563.74,-89.99 574.78,-89.8"/>
<polygon fill="midnightblue" stroke="midnightblue" points="574.9,-93.29 584.83,-89.62 574.77,-86.3 574.9,-93.29"/>
</g>
<!-- Node7 -->
<g id="node7" class="node">
<title>Node7</title>
<g id="a_node7"><a xlink:href="a00673.html#a98af60f864a0446e23a7a27a3419d9b8" target="_top" xlink:title=" ">
<polygon fill="white" stroke="black" points="758,-73.5 758,-103.5 886,-103.5 886,-73.5 758,-73.5"/>
<text text-anchor="start" x="766" y="-91.5" font-family="Helvetica,sans-Serif" font-size="10.00">MiraiCP::Logger_interface</text>
<text text-anchor="middle" x="822" y="-80.5" font-family="Helvetica,sans-Serif" font-size="10.00">::constructString</text>
</a>
</g>
</g>
<!-- Node6&#45;&gt;Node7 -->
<g id="edge8" class="edge">
<title>Node6&#45;&gt;Node7</title>
<path fill="none" stroke="midnightblue" d="M713.19,-88.5C724.45,-88.5 736.26,-88.5 747.77,-88.5"/>
<polygon fill="midnightblue" stroke="midnightblue" points="747.79,-92 757.79,-88.5 747.79,-85 747.79,-92"/>
</g>
<!-- Node8 -->
<g id="node8" class="node">
<title>Node8</title>
<g id="a_node8"><a xlink:href="a00673.html#a86ea9d57475a3004be2a32b2c4c76371" target="_top" xlink:title="日志底层实现封装">
<polygon fill="white" stroke="black" points="758,-122.5 758,-152.5 886,-152.5 886,-122.5 758,-122.5"/>
<text text-anchor="start" x="766" y="-140.5" font-family="Helvetica,sans-Serif" font-size="10.00">MiraiCP::Logger_interface</text>
<text text-anchor="middle" x="822" y="-129.5" font-family="Helvetica,sans-Serif" font-size="10.00">::log_interface</text>
</a>
</g>
</g>
<!-- Node6&#45;&gt;Node8 -->
<g id="edge9" class="edge">
<title>Node6&#45;&gt;Node8</title>
<path fill="none" stroke="midnightblue" d="M702.7,-103.6C720.42,-108.68 740.35,-114.39 758.73,-119.66"/>
<polygon fill="midnightblue" stroke="midnightblue" points="757.9,-123.06 768.47,-122.45 759.82,-116.33 757.9,-123.06"/>
</g>
<!-- Node10 -->
<g id="node10" class="node">
<title>Node10</title>
<g id="a_node10"><a xlink:href="a00319.html#a0b52c701b3d96bf42b4d67c21f1dab2d" target="_top" xlink:title="case insensitive string compare from https://thispointer.com/c&#45;case&#45;insensitive&#45;string&#45;comparison&#45;usi...">
<polygon fill="white" stroke="black" points="593,-33 593,-52 705,-52 705,-33 593,-33"/>
<text text-anchor="middle" x="649" y="-40" font-family="Helvetica,sans-Serif" font-size="10.00">MiraiCP::Tools::iequal</text>
</a>
</g>
</g>
<!-- Node9&#45;&gt;Node10 -->
<g id="edge11" class="edge">
<title>Node9&#45;&gt;Node10</title>
<path fill="none" stroke="midnightblue" d="M539.69,-42.5C553.66,-42.5 568.55,-42.5 582.68,-42.5"/>
<polygon fill="midnightblue" stroke="midnightblue" points="582.81,-46 592.81,-42.5 582.81,-39 582.81,-46"/>
</g>
<!-- Node11 -->
<g id="node11" class="node">
<title>Node11</title>
<g id="a_node11"><a xlink:href="a00319.html#a795aadb1af1cd4b85e9b48b5bb5b246d" target="_top" xlink:title="compare char with case&#45;insensitive">
<polygon fill="white" stroke="black" points="749,-33 749,-52 895,-52 895,-33 749,-33"/>
<text text-anchor="middle" x="822" y="-40" font-family="Helvetica,sans-Serif" font-size="10.00">MiraiCP::Tools::icompareChar</text>
</a>
</g>
</g>
<!-- Node10&#45;&gt;Node11 -->
<g id="edge12" class="edge">
<title>Node10&#45;&gt;Node11</title>
<path fill="none" stroke="midnightblue" d="M705.05,-42.5C715.85,-42.5 727.39,-42.5 738.85,-42.5"/>
<polygon fill="midnightblue" stroke="midnightblue" points="738.89,-46 748.89,-42.5 738.89,-39 738.89,-46"/>
</g>
<!-- Node12&#45;&gt;Node7 -->
<g id="edge14" class="edge">
<title>Node12&#45;&gt;Node7</title>
<path fill="none" stroke="midnightblue" d="M702.7,-122.4C720.42,-117.32 740.35,-111.61 758.73,-106.34"/>
<polygon fill="midnightblue" stroke="midnightblue" points="759.82,-109.67 768.47,-103.55 757.9,-102.94 759.82,-109.67"/>
</g>
<!-- Node12&#45;&gt;Node8 -->
<g id="edge15" class="edge">
<title>Node12&#45;&gt;Node8</title>
<path fill="none" stroke="midnightblue" d="M713.19,-137.5C724.45,-137.5 736.26,-137.5 747.77,-137.5"/>
<polygon fill="midnightblue" stroke="midnightblue" points="747.79,-141 757.79,-137.5 747.79,-134 747.79,-141"/>
</g>
</g>
</svg>
