<?xml version="1.0" encoding="UTF-8" standalone="no"?>
<!DOCTYPE svg PUBLIC "-//W3C//DTD SVG 1.1//EN"
 "http://www.w3.org/Graphics/SVG/1.1/DTD/svg11.dtd">
<!-- Generated by graphviz version 2.50.0 (20211204.2007)
 -->
<!-- Title: MiraiCP::RemoteAssetException Pages: 1 -->
<svg width="266pt" height="1071pt"
 viewBox="0.00 0.00 265.50 1071.00" xmlns="http://www.w3.org/2000/svg" xmlns:xlink="http://www.w3.org/1999/xlink">
<g id="graph0" class="graph" transform="scale(1 1) rotate(0) translate(4 1067)">
<title>MiraiCP::RemoteAssetException</title>
<polygon fill="white" stroke="transparent" points="-4,4 -4,-1067 261.5,-1067 261.5,4 -4,4"/>
<!-- Node1 -->
<g id="node1" class="node">
<title>Node1</title>
<g id="a_node1"><a xlink:title=" ">
<polygon fill="#bfbfbf" stroke="black" points="1.5,-0.5 1.5,-134.5 161.5,-134.5 161.5,-0.5 1.5,-0.5"/>
<text text-anchor="middle" x="81.5" y="-122.5" font-family="Helvetica,sans-Serif" font-size="10.00">MiraiCP::RemoteAssetException</text>
<polyline fill="none" stroke="black" points="1.5,-115.5 161.5,-115.5 "/>
<text text-anchor="middle" x="81.5" y="-103.5" font-family="Helvetica,sans-Serif" font-size="10.00"> </text>
<polyline fill="none" stroke="black" points="1.5,-96.5 161.5,-96.5 "/>
<text text-anchor="start" x="9.5" y="-84.5" font-family="Helvetica,sans-Serif" font-size="10.00">+ RemoteAssetException</text>
<text text-anchor="start" x="9.5" y="-73.5" font-family="Helvetica,sans-Serif" font-size="10.00">(const string &amp;e, string</text>
<text text-anchor="start" x="9.5" y="-62.5" font-family="Helvetica,sans-Serif" font-size="10.00"> _filename, int _lineNum)</text>
<text text-anchor="start" x="9.5" y="-51.5" font-family="Helvetica,sans-Serif" font-size="10.00">+ RemoteAssetException</text>
<text text-anchor="start" x="9.5" y="-40.5" font-family="Helvetica,sans-Serif" font-size="10.00">(const string &amp;e, string</text>
<text text-anchor="start" x="9.5" y="-29.5" font-family="Helvetica,sans-Serif" font-size="10.00"> _filename, int _lineNum)</text>
<text text-anchor="start" x="9.5" y="-18.5" font-family="Helvetica,sans-Serif" font-size="10.00">+ static string exceptionType()</text>
<text text-anchor="start" x="9.5" y="-7.5" font-family="Helvetica,sans-Serif" font-size="10.00">+ static string exceptionType()</text>
</a>
</g>
</g>
<!-- Node2 -->
<g id="node2" class="node">
<title>Node2</title>
<g id="a_node2"><a xlink:href="a00564.html" target="_top" xlink:title=" ">
<polygon fill="white" stroke="black" points="0,-172.5 0,-339.5 163,-339.5 163,-172.5 0,-172.5"/>
<text text-anchor="start" x="8" y="-327.5" font-family="Helvetica,sans-Serif" font-size="10.00">MiraiCP::MiraiCPException</text>
<text text-anchor="middle" x="81.5" y="-316.5" font-family="Helvetica,sans-Serif" font-size="10.00">CRTP&lt; RemoteAssetException &gt;</text>
<polyline fill="none" stroke="black" points="0,-309.5 163,-309.5 "/>
<text text-anchor="middle" x="81.5" y="-297.5" font-family="Helvetica,sans-Serif" font-size="10.00"> </text>
<polyline fill="none" stroke="black" points="0,-290.5 163,-290.5 "/>
<text text-anchor="start" x="8" y="-278.5" font-family="Helvetica,sans-Serif" font-size="10.00">+ MiraiCPExceptionCRTP</text>
<text text-anchor="start" x="8" y="-267.5" font-family="Helvetica,sans-Serif" font-size="10.00">(string _re, string </text>
<text text-anchor="start" x="8" y="-256.5" font-family="Helvetica,sans-Serif" font-size="10.00">_filename, int _lineNum)</text>
<text text-anchor="start" x="8" y="-245.5" font-family="Helvetica,sans-Serif" font-size="10.00">+ MiraiCPExceptionCRTP</text>
<text text-anchor="start" x="8" y="-234.5" font-family="Helvetica,sans-Serif" font-size="10.00">(string _re, string </text>
<text text-anchor="start" x="8" y="-223.5" font-family="Helvetica,sans-Serif" font-size="10.00">_filename, int _lineNum)</text>
<text text-anchor="start" x="8" y="-212.5" font-family="Helvetica,sans-Serif" font-size="10.00">+ string getExceptionType</text>
<text text-anchor="start" x="8" y="-201.5" font-family="Helvetica,sans-Serif" font-size="10.00">() const override</text>
<text text-anchor="start" x="8" y="-190.5" font-family="Helvetica,sans-Serif" font-size="10.00">+ string getExceptionType</text>
<text text-anchor="start" x="8" y="-179.5" font-family="Helvetica,sans-Serif" font-size="10.00">() const override</text>
</a>
</g>
</g>
<!-- Node2&#45;&gt;Node1 -->
<g id="edge1" class="edge">
<title>Node2&#45;&gt;Node1</title>
<path fill="none" stroke="midnightblue" d="M74.75,-162.25C74.75,-152.9 74.83,-143.53 75.01,-134.54"/>
<polygon fill="none" stroke="midnightblue" points="71.25,-162.4 74.79,-172.38 78.25,-162.37 71.25,-162.4"/>
</g>
<!-- Node2&#45;&gt;Node1 -->
<g id="edge11" class="edge">
<title>Node2&#45;&gt;Node1</title>
<path fill="none" stroke="midnightblue" d="M88.25,-162.25C88.25,-152.9 88.17,-143.53 87.99,-134.54"/>
<polygon fill="none" stroke="midnightblue" points="84.75,-162.37 88.21,-172.38 91.75,-162.4 84.75,-162.37"/>
</g>
<!-- Node3 -->
<g id="node3" class="node">
<title>Node3</title>
<g id="a_node3"><a xlink:href="a00560.html" target="_top" xlink:title="总异常抽象类，用于一般捕获，不要直接抛出该类，不知道抛出什么的时候请抛出 MiraiCPException">
<polygon fill="white" stroke="black" points="23.5,-592.5 23.5,-946.5 181.5,-946.5 181.5,-592.5 23.5,-592.5"/>
<text text-anchor="middle" x="102.5" y="-934.5" font-family="Helvetica,sans-Serif" font-size="10.00">MiraiCP::MiraiCPExceptionBase</text>
<polyline fill="none" stroke="black" points="23.5,-927.5 181.5,-927.5 "/>
<text text-anchor="middle" x="102.5" y="-915.5" font-family="Helvetica,sans-Serif" font-size="10.00"> </text>
<polyline fill="none" stroke="black" points="23.5,-908.5 181.5,-908.5 "/>
<text text-anchor="start" x="31.5" y="-896.5" font-family="Helvetica,sans-Serif" font-size="10.00">+ ~MiraiCPExceptionBase</text>
<text text-anchor="start" x="31.5" y="-885.5" font-family="Helvetica,sans-Serif" font-size="10.00">() override=default</text>
<text text-anchor="start" x="31.5" y="-874.5" font-family="Helvetica,sans-Serif" font-size="10.00">+ const char * what()</text>
<text text-anchor="start" x="31.5" y="-863.5" font-family="Helvetica,sans-Serif" font-size="10.00"> const noexcept override</text>
<text text-anchor="start" x="31.5" y="-852.5" font-family="Helvetica,sans-Serif" font-size="10.00">+ string getError() const</text>
<text text-anchor="start" x="31.5" y="-841.5" font-family="Helvetica,sans-Serif" font-size="10.00">+ void raise() const</text>
<text text-anchor="start" x="31.5" y="-830.5" font-family="Helvetica,sans-Serif" font-size="10.00">+ virtual void basicRaise</text>
<text text-anchor="start" x="31.5" y="-819.5" font-family="Helvetica,sans-Serif" font-size="10.00">() const</text>
<text text-anchor="start" x="31.5" y="-808.5" font-family="Helvetica,sans-Serif" font-size="10.00">+ virtual string getException</text>
<text text-anchor="start" x="31.5" y="-797.5" font-family="Helvetica,sans-Serif" font-size="10.00">Type() const =0</text>
<text text-anchor="start" x="31.5" y="-786.5" font-family="Helvetica,sans-Serif" font-size="10.00">+ ~MiraiCPExceptionBase</text>
<text text-anchor="start" x="31.5" y="-775.5" font-family="Helvetica,sans-Serif" font-size="10.00">() override=default</text>
<text text-anchor="start" x="31.5" y="-764.5" font-family="Helvetica,sans-Serif" font-size="10.00">+ const char * what()</text>
<text text-anchor="start" x="31.5" y="-753.5" font-family="Helvetica,sans-Serif" font-size="10.00"> const noexcept override</text>
<text text-anchor="start" x="31.5" y="-742.5" font-family="Helvetica,sans-Serif" font-size="10.00">+ string getError() const</text>
<text text-anchor="start" x="31.5" y="-731.5" font-family="Helvetica,sans-Serif" font-size="10.00">+ void raise() const</text>
<text text-anchor="start" x="31.5" y="-720.5" font-family="Helvetica,sans-Serif" font-size="10.00">+ virtual void basicRaise</text>
<text text-anchor="start" x="31.5" y="-709.5" font-family="Helvetica,sans-Serif" font-size="10.00">() const</text>
<text text-anchor="start" x="31.5" y="-698.5" font-family="Helvetica,sans-Serif" font-size="10.00">+ virtual string getException</text>
<text text-anchor="start" x="31.5" y="-687.5" font-family="Helvetica,sans-Serif" font-size="10.00">Type() const =0</text>
<text text-anchor="start" x="31.5" y="-676.5" font-family="Helvetica,sans-Serif" font-size="10.00">+ static string exceptionType()</text>
<text text-anchor="start" x="31.5" y="-665.5" font-family="Helvetica,sans-Serif" font-size="10.00">+ static string exceptionType()</text>
<text text-anchor="start" x="31.5" y="-654.5" font-family="Helvetica,sans-Serif" font-size="10.00"># MiraiCPExceptionBase</text>
<text text-anchor="start" x="31.5" y="-643.5" font-family="Helvetica,sans-Serif" font-size="10.00">(string info, string</text>
<text text-anchor="start" x="31.5" y="-632.5" font-family="Helvetica,sans-Serif" font-size="10.00"> _filename, int _lineNum)</text>
<text text-anchor="start" x="31.5" y="-621.5" font-family="Helvetica,sans-Serif" font-size="10.00"># MiraiCPExceptionBase</text>
<text text-anchor="start" x="31.5" y="-610.5" font-family="Helvetica,sans-Serif" font-size="10.00">(string info, string</text>
<text text-anchor="start" x="31.5" y="-599.5" font-family="Helvetica,sans-Serif" font-size="10.00"> _filename, int _lineNum)</text>
</a>
</g>
</g>
<!-- Node3&#45;&gt;Node2 -->
<g id="edge2" class="edge">
<title>Node3&#45;&gt;Node2</title>
<path fill="none" stroke="midnightblue" d="M88.34,-582.37C84.36,-499.1 80.97,-405.18 79.77,-339.73"/>
<polygon fill="none" stroke="midnightblue" points="84.85,-582.65 88.82,-592.47 91.84,-582.31 84.85,-582.65"/>
</g>
<!-- Node3&#45;&gt;Node2 -->
<g id="edge7" class="edge">
<title>Node3&#45;&gt;Node2</title>
<path fill="none" stroke="midnightblue" d="M101.38,-582.37C98.52,-499.1 94.2,-405.18 90.02,-339.73"/>
<polygon fill="none" stroke="midnightblue" points="97.89,-582.59 101.72,-592.47 104.88,-582.36 97.89,-582.59"/>
</g>
<!-- Node7 -->
<g id="node7" class="node">
<title>Node7</title>
<g id="a_node7"><a xlink:href="a00564.html" target="_top" xlink:title="总异常CRTP抽象类，不要直接抛出该类，不知道抛出什么的时候请抛出 MiraiCPException。 该类是用于继承的基类，需要新的异常类型时，继承该类并以子类作为模板参数。 子类需要实现的方法：">
<polygon fill="white" stroke="black" points="119,-387.5 119,-554.5 254,-554.5 254,-387.5 119,-387.5"/>
<text text-anchor="start" x="127" y="-542.5" font-family="Helvetica,sans-Serif" font-size="10.00">MiraiCP::MiraiCPException</text>
<text text-anchor="middle" x="186.5" y="-531.5" font-family="Helvetica,sans-Serif" font-size="10.00">CRTP&lt; T &gt;</text>
<polyline fill="none" stroke="black" points="119,-524.5 254,-524.5 "/>
<text text-anchor="middle" x="186.5" y="-512.5" font-family="Helvetica,sans-Serif" font-size="10.00"> </text>
<polyline fill="none" stroke="black" points="119,-505.5 254,-505.5 "/>
<text text-anchor="start" x="127" y="-493.5" font-family="Helvetica,sans-Serif" font-size="10.00">+ MiraiCPExceptionCRTP</text>
<text text-anchor="start" x="127" y="-482.5" font-family="Helvetica,sans-Serif" font-size="10.00">(string _re, string </text>
<text text-anchor="start" x="127" y="-471.5" font-family="Helvetica,sans-Serif" font-size="10.00">_filename, int _lineNum)</text>
<text text-anchor="start" x="127" y="-460.5" font-family="Helvetica,sans-Serif" font-size="10.00">+ string getExceptionType</text>
<text text-anchor="start" x="127" y="-449.5" font-family="Helvetica,sans-Serif" font-size="10.00">() const override</text>
<text text-anchor="start" x="127" y="-438.5" font-family="Helvetica,sans-Serif" font-size="10.00">+ MiraiCPExceptionCRTP</text>
<text text-anchor="start" x="127" y="-427.5" font-family="Helvetica,sans-Serif" font-size="10.00">(string _re, string </text>
<text text-anchor="start" x="127" y="-416.5" font-family="Helvetica,sans-Serif" font-size="10.00">_filename, int _lineNum)</text>
<text text-anchor="start" x="127" y="-405.5" font-family="Helvetica,sans-Serif" font-size="10.00">+ string getExceptionType</text>
<text text-anchor="start" x="127" y="-394.5" font-family="Helvetica,sans-Serif" font-size="10.00">() const override</text>
</a>
</g>
</g>
<!-- Node3&#45;&gt;Node7 -->
<g id="edge9" class="edge">
<title>Node3&#45;&gt;Node7</title>
<path fill="none" stroke="midnightblue" d="M148.63,-582.53C151.45,-572.96 154.24,-563.62 156.95,-554.67"/>
<polygon fill="none" stroke="midnightblue" points="145.26,-581.59 145.81,-592.17 151.98,-583.56 145.26,-581.59"/>
</g>
<!-- Node3&#45;&gt;Node7 -->
<g id="edge10" class="edge">
<title>Node3&#45;&gt;Node7</title>
<path fill="none" stroke="midnightblue" d="M161.82,-582.23C164.4,-572.77 166.88,-563.52 169.2,-554.67"/>
<polygon fill="none" stroke="midnightblue" points="158.36,-581.6 159.1,-592.17 165.11,-583.45 158.36,-581.6"/>
</g>
<!-- Node4 -->
<g id="node4" class="node">
<title>Node4</title>
<g id="a_node4"><a xlink:title=" ">
<polygon fill="white" stroke="#bfbfbf" points="27.5,-1005.5 27.5,-1062.5 105.5,-1062.5 105.5,-1005.5 27.5,-1005.5"/>
<text text-anchor="middle" x="66.5" y="-1050.5" font-family="Helvetica,sans-Serif" font-size="10.00">std::exception</text>
<polyline fill="none" stroke="#bfbfbf" points="27.5,-1043.5 105.5,-1043.5 "/>
<text text-anchor="middle" x="66.5" y="-1031.5" font-family="Helvetica,sans-Serif" font-size="10.00"> </text>
<polyline fill="none" stroke="#bfbfbf" points="27.5,-1024.5 105.5,-1024.5 "/>
<text text-anchor="middle" x="66.5" y="-1012.5" font-family="Helvetica,sans-Serif" font-size="10.00"> </text>
</a>
</g>
</g>
<!-- Node4&#45;&gt;Node3 -->
<g id="edge3" class="edge">
<title>Node4&#45;&gt;Node3</title>
<path fill="none" stroke="midnightblue" d="M66.76,-995.4C67.97,-981.54 69.78,-964.77 71.95,-946.71"/>
<polygon fill="none" stroke="midnightblue" points="63.27,-995.15 65.95,-1005.4 70.24,-995.72 63.27,-995.15"/>
</g>
<!-- Node4&#45;&gt;Node3 -->
<g id="edge4" class="edge">
<title>Node4&#45;&gt;Node3</title>
<path fill="none" stroke="midnightblue" d="M76.56,-995.4C79.14,-981.54 81.94,-964.77 84.72,-946.71"/>
<polygon fill="none" stroke="midnightblue" points="73.08,-994.92 74.62,-1005.4 79.96,-996.25 73.08,-994.92"/>
</g>
<!-- Node5 -->
<g id="node5" class="node">
<title>Node5</title>
<g id="a_node5"><a xlink:title=" ">
<polygon fill="white" stroke="#bfbfbf" points="124,-1005.5 124,-1062.5 165,-1062.5 165,-1005.5 124,-1005.5"/>
<text text-anchor="middle" x="144.5" y="-1050.5" font-family="Helvetica,sans-Serif" font-size="10.00">string</text>
<polyline fill="none" stroke="#bfbfbf" points="124,-1043.5 165,-1043.5 "/>
<text text-anchor="middle" x="144.5" y="-1031.5" font-family="Helvetica,sans-Serif" font-size="10.00"> </text>
<polyline fill="none" stroke="#bfbfbf" points="124,-1024.5 165,-1024.5 "/>
<text text-anchor="middle" x="144.5" y="-1012.5" font-family="Helvetica,sans-Serif" font-size="10.00"> </text>
</a>
</g>
</g>
<!-- Node5&#45;&gt;Node3 -->
<g id="edge5" class="edge">
<title>Node5&#45;&gt;Node3</title>
<path fill="none" stroke="#404040" d="M140.08,-1005.4C138.06,-992.77 135.48,-976.62 132.61,-958.71"/>
<polygon fill="none" stroke="#404040" points="132.59,-958.56 127.69,-953.27 130.69,-946.71 135.59,-952 132.59,-958.56"/>
<text text-anchor="middle" x="157" y="-979" font-family="Helvetica,sans-Serif" font-size="10.00"> #re</text>
<text text-anchor="middle" x="157" y="-968" font-family="Helvetica,sans-Serif" font-size="10.00">+filename</text>
</g>
<!-- Node6 -->
<g id="node6" class="node">
<title>Node6</title>
<g id="a_node6"><a xlink:title=" ">
<polygon fill="white" stroke="#bfbfbf" points="189,-1005.5 189,-1062.5 218,-1062.5 218,-1005.5 189,-1005.5"/>
<text text-anchor="middle" x="203.5" y="-1050.5" font-family="Helvetica,sans-Serif" font-size="10.00">int</text>
<polyline fill="none" stroke="#bfbfbf" points="189,-1043.5 218,-1043.5 "/>
<text text-anchor="middle" x="203.5" y="-1031.5" font-family="Helvetica,sans-Serif" font-size="10.00"> </text>
<polyline fill="none" stroke="#bfbfbf" points="189,-1024.5 218,-1024.5 "/>
<text text-anchor="middle" x="203.5" y="-1012.5" font-family="Helvetica,sans-Serif" font-size="10.00"> </text>
</a>
</g>
</g>
<!-- Node6&#45;&gt;Node3 -->
<g id="edge6" class="edge">
<title>Node6&#45;&gt;Node3</title>
<path fill="none" stroke="#404040" d="M195.07,-1005.38C191.15,-992.97 186.3,-978.17 181.5,-965 180.64,-962.63 179.76,-960.24 178.87,-957.84"/>
<polygon fill="none" stroke="#404040" points="178.85,-957.77 173.01,-953.55 174.66,-946.53 180.5,-950.76 178.85,-957.77"/>
<text text-anchor="middle" x="211" y="-973.5" font-family="Helvetica,sans-Serif" font-size="10.00"> +lineNum</text>
</g>
<!-- Node7&#45;&gt;Node2 -->
<g id="edge8" class="edge">
<title>Node7&#45;&gt;Node2</title>
<path fill="none" stroke="orange" d="M141.19,-378.09C134.89,-365.3 128.44,-352.22 122.22,-339.61"/>
<polygon fill="orange" stroke="orange" points="138.19,-379.92 145.75,-387.34 144.47,-376.83 138.19,-379.92"/>
<text text-anchor="middle" x="195.5" y="-361" font-family="Helvetica,sans-Serif" font-size="10.00"> &lt; RemoteAssetException &gt;</text>
</g>
</g>
</svg>
