<?xml version="1.0" encoding="UTF-8" standalone="no"?>
<!DOCTYPE svg PUBLIC "-//W3C//DTD SVG 1.1//EN"
 "http://www.w3.org/Graphics/SVG/1.1/DTD/svg11.dtd">
<!-- Generated by graphviz version 2.50.0 (20211204.2007)
 -->
<!-- Title: MiraiCP::Image::refreshInfo Pages: 1 -->
<svg width="1602pt" height="219pt"
 viewBox="0.00 0.00 1602.00 218.98" xmlns="http://www.w3.org/2000/svg" xmlns:xlink="http://www.w3.org/1999/xlink">
<g id="graph0" class="graph" transform="scale(1 1) rotate(0) translate(4 214.98)">
<title>MiraiCP::Image::refreshInfo</title>
<polygon fill="white" stroke="transparent" points="-4,4 -4,-214.98 1598,-214.98 1598,4 -4,4"/>
<!-- Node1 -->
<g id="node1" class="node">
<title>Node1</title>
<g id="a_node1"><a xlink:title="刷新信息(获取图片下载Url,md5, size)">
<polygon fill="#bfbfbf" stroke="black" points="0,-122.98 0,-141.98 134,-141.98 134,-122.98 0,-122.98"/>
<text text-anchor="middle" x="67" y="-129.98" font-family="Helvetica,sans-Serif" font-size="10.00">MiraiCP::Image::refreshInfo</text>
</a>
</g>
</g>
<!-- Node2 -->
<g id="node2" class="node">
<title>Node2</title>
<g id="a_node2"><a xlink:href="a00394.html#a4208a634d81d0263c1079debe2ab58fa" target="_top" xlink:title=" ">
<polygon fill="white" stroke="black" points="170,-166.98 170,-185.98 300,-185.98 300,-166.98 170,-166.98"/>
<text text-anchor="middle" x="235" y="-173.98" font-family="Helvetica,sans-Serif" font-size="10.00">MiraiCP::json_stringmover</text>
</a>
</g>
</g>
<!-- Node1&#45;&gt;Node2 -->
<g id="edge1" class="edge">
<title>Node1&#45;&gt;Node2</title>
<path fill="none" stroke="midnightblue" d="M104.02,-142.03C128.71,-148.57 161.67,-157.31 188.22,-164.35"/>
<polygon fill="midnightblue" stroke="midnightblue" points="187.49,-167.77 198.05,-166.95 189.28,-161.01 187.49,-167.77"/>
</g>
<!-- Node3 -->
<g id="node3" class="node">
<title>Node3</title>
<g id="a_node3"><a xlink:href="a00412.html#a309e8d7f316e8b5e947ea3bcddeb84a8" target="_top" xlink:title="调用 Mirai 操作">
<polygon fill="white" stroke="black" points="180.5,-117.48 180.5,-147.48 289.5,-147.48 289.5,-117.48 180.5,-117.48"/>
<text text-anchor="start" x="188.5" y="-135.48" font-family="Helvetica,sans-Serif" font-size="10.00">MiraiCP::KtOperation</text>
<text text-anchor="middle" x="235" y="-124.48" font-family="Helvetica,sans-Serif" font-size="10.00">::ktOperation</text>
</a>
</g>
</g>
<!-- Node1&#45;&gt;Node3 -->
<g id="edge2" class="edge">
<title>Node1&#45;&gt;Node3</title>
<path fill="none" stroke="midnightblue" d="M134.08,-132.48C145.97,-132.48 158.34,-132.48 170.17,-132.48"/>
<polygon fill="midnightblue" stroke="midnightblue" points="170.39,-135.98 180.39,-132.48 170.39,-128.98 170.39,-135.98"/>
</g>
<!-- Node15 -->
<g id="node15" class="node">
<title>Node15</title>
<g id="a_node15"><a xlink:href="a00673.html#a34553da30d7a3753b72247654bc36e89" target="_top" xlink:title=" ">
<polygon fill="white" stroke="black" points="176,-78.98 176,-97.98 294,-97.98 294,-78.98 176,-78.98"/>
<text text-anchor="middle" x="235" y="-85.98" font-family="Helvetica,sans-Serif" font-size="10.00">MiraiCP::Image::toJson</text>
</a>
</g>
</g>
<!-- Node1&#45;&gt;Node15 -->
<g id="edge18" class="edge">
<title>Node1&#45;&gt;Node15</title>
<path fill="none" stroke="midnightblue" d="M104.02,-122.94C128.71,-116.39 161.67,-107.65 188.22,-100.62"/>
<polygon fill="midnightblue" stroke="midnightblue" points="189.28,-103.96 198.05,-98.01 187.49,-97.19 189.28,-103.96"/>
</g>
<!-- Node4 -->
<g id="node4" class="node">
<title>Node4</title>
<g id="a_node4"><a xlink:href="a00412.html#a1e1e498928eeaa1d7107033ff5fa881a" target="_top" xlink:title="调用 Mirai 操作">
<polygon fill="white" stroke="black" points="336,-117.48 336,-147.48 445,-147.48 445,-117.48 336,-117.48"/>
<text text-anchor="start" x="344" y="-135.48" font-family="Helvetica,sans-Serif" font-size="10.00">MiraiCP::KtOperation</text>
<text text-anchor="middle" x="390.5" y="-124.48" font-family="Helvetica,sans-Serif" font-size="10.00">::ktOperationStr</text>
</a>
</g>
</g>
<!-- Node3&#45;&gt;Node4 -->
<g id="edge3" class="edge">
<title>Node3&#45;&gt;Node4</title>
<path fill="none" stroke="midnightblue" d="M289.69,-132.48C301.25,-132.48 313.59,-132.48 325.51,-132.48"/>
<polygon fill="midnightblue" stroke="midnightblue" points="325.84,-135.98 335.84,-132.48 325.84,-128.98 325.84,-135.98"/>
</g>
<!-- Node5 -->
<g id="node5" class="node">
<title>Node5</title>
<g id="a_node5"><a xlink:href="a00405.html#a89b345ec37278655b8f02d07dbb3c882" target="_top" xlink:title="interfaces for plugins">
<polygon fill="white" stroke="black" points="481,-117.48 481,-147.48 589,-147.48 589,-117.48 481,-117.48"/>
<text text-anchor="start" x="489" y="-135.48" font-family="Helvetica,sans-Serif" font-size="10.00">LibLoader::LoaderApi</text>
<text text-anchor="middle" x="535" y="-124.48" font-family="Helvetica,sans-Serif" font-size="10.00">::pluginOperation</text>
</a>
</g>
</g>
<!-- Node4&#45;&gt;Node5 -->
<g id="edge4" class="edge">
<title>Node4&#45;&gt;Node5</title>
<path fill="none" stroke="midnightblue" d="M445.37,-132.48C453.67,-132.48 462.29,-132.48 470.77,-132.48"/>
<polygon fill="midnightblue" stroke="midnightblue" points="471,-135.98 481,-132.48 471,-128.98 471,-135.98"/>
</g>
<!-- Node6 -->
<g id="node6" class="node">
<title>Node6</title>
<g id="a_node6"><a xlink:href="a00737.html#ab263deade385e7b5de856d061c6027e9" target="_top" xlink:title=" ">
<polygon fill="white" stroke="black" points="625,-180.48 625,-210.48 742,-210.48 742,-180.48 625,-180.48"/>
<text text-anchor="start" x="633" y="-198.48" font-family="Helvetica,sans-Serif" font-size="10.00">MiraiCP::MiraiCPString</text>
<text text-anchor="middle" x="683.5" y="-187.48" font-family="Helvetica,sans-Serif" font-size="10.00">::copyToCharPtr</text>
</a>
</g>
</g>
<!-- Node5&#45;&gt;Node6 -->
<g id="edge5" class="edge">
<title>Node5&#45;&gt;Node6</title>
<path fill="none" stroke="midnightblue" d="M571.09,-147.57C591.22,-156.23 616.69,-167.18 638.19,-176.43"/>
<polygon fill="midnightblue" stroke="midnightblue" points="636.87,-179.67 647.44,-180.41 639.64,-173.24 636.87,-179.67"/>
</g>
<!-- Node7 -->
<g id="node7" class="node">
<title>Node7</title>
<g id="a_node7"><a xlink:href="a00773.html#aea7d58ff9f04d6d4849c25a2506603a5" target="_top" xlink:title="取env,如果不存在重新获取">
<polygon fill="white" stroke="black" points="1231,-103.98 1231,-122.98 1350,-122.98 1350,-103.98 1231,-103.98"/>
<text text-anchor="middle" x="1290.5" y="-110.98" font-family="Helvetica,sans-Serif" font-size="10.00">JNIEnvManager::getEnv</text>
</a>
</g>
</g>
<!-- Node5&#45;&gt;Node7 -->
<g id="edge6" class="edge">
<title>Node5&#45;&gt;Node7</title>
<path fill="none" stroke="midnightblue" d="M589.21,-137.85C649.58,-143.47 751.02,-151.48 838.5,-151.48 838.5,-151.48 838.5,-151.48 999.5,-151.48 1081.89,-151.48 1176.34,-136.22 1234.46,-125.04"/>
<polygon fill="midnightblue" stroke="midnightblue" points="1235.39,-128.42 1244.53,-123.07 1234.05,-121.55 1235.39,-128.42"/>
</g>
<!-- Node10 -->
<g id="node10" class="node">
<title>Node10</title>
<g id="a_node10"><a xlink:href="a00404.html#aa5f8d0ecd9dd392b491070aace643ae3" target="_top" xlink:title=" ">
<polygon fill="white" stroke="black" points="786,-103.98 786,-122.98 893,-122.98 893,-103.98 786,-103.98"/>
<text text-anchor="middle" x="839.5" y="-110.98" font-family="Helvetica,sans-Serif" font-size="10.00">LibLoader::jstring2str</text>
</a>
</g>
</g>
<!-- Node5&#45;&gt;Node10 -->
<g id="edge9" class="edge">
<title>Node5&#45;&gt;Node10</title>
<path fill="none" stroke="midnightblue" d="M589.04,-129.15C641.12,-125.88 720.57,-120.89 775.77,-117.42"/>
<polygon fill="midnightblue" stroke="midnightblue" points="776.02,-120.91 785.78,-116.79 775.58,-113.93 776.02,-120.91"/>
</g>
<!-- Node12 -->
<g id="node12" class="node">
<title>Node12</title>
<g id="a_node12"><a xlink:href="a00404.html#a6a6fcd695791253a9b3a053d313b2b93" target="_top" xlink:title=" ">
<polygon fill="white" stroke="black" points="630,-43.98 630,-62.98 737,-62.98 737,-43.98 630,-43.98"/>
<text text-anchor="middle" x="683.5" y="-50.98" font-family="Helvetica,sans-Serif" font-size="10.00">LibLoader::str2jstring</text>
</a>
</g>
</g>
<!-- Node5&#45;&gt;Node12 -->
<g id="edge12" class="edge">
<title>Node5&#45;&gt;Node12</title>
<path fill="none" stroke="midnightblue" d="M563.9,-117.44C590.37,-103.16 629.87,-81.87 655.9,-67.83"/>
<polygon fill="midnightblue" stroke="midnightblue" points="657.69,-70.84 664.83,-63.01 654.37,-64.68 657.69,-70.84"/>
</g>
<!-- Node8 -->
<g id="node8" class="node">
<title>Node8</title>
<g id="a_node8"><a xlink:href="a00203.html#a3d31403b7971274d47d308245206bd24" target="_top" xlink:title="为当前线程创建一个env.">
<polygon fill="white" stroke="black" points="1386,-103.98 1386,-122.98 1436,-122.98 1436,-103.98 1386,-103.98"/>
<text text-anchor="middle" x="1411" y="-110.98" font-family="Helvetica,sans-Serif" font-size="10.00">newEnv</text>
</a>
</g>
</g>
<!-- Node7&#45;&gt;Node8 -->
<g id="edge7" class="edge">
<title>Node7&#45;&gt;Node8</title>
<path fill="none" stroke="midnightblue" d="M1350.06,-113.48C1358.89,-113.48 1367.75,-113.48 1375.85,-113.48"/>
<polygon fill="midnightblue" stroke="midnightblue" points="1375.98,-116.98 1385.98,-113.48 1375.98,-109.98 1375.98,-116.98"/>
</g>
<!-- Node9 -->
<g id="node9" class="node">
<title>Node9</title>
<g id="a_node9"><a xlink:href="a00773.html#ae0e482c6a813848a8f5d34957d1b6307" target="_top" xlink:title="获取全局JavaVM对象.">
<polygon fill="white" stroke="black" points="1472,-103.98 1472,-122.98 1594,-122.98 1594,-103.98 1472,-103.98"/>
<text text-anchor="middle" x="1533" y="-110.98" font-family="Helvetica,sans-Serif" font-size="10.00">JNIEnvManager::getGvm</text>
</a>
</g>
</g>
<!-- Node8&#45;&gt;Node9 -->
<g id="edge8" class="edge">
<title>Node8&#45;&gt;Node9</title>
<path fill="none" stroke="midnightblue" d="M1436.28,-113.48C1443.75,-113.48 1452.37,-113.48 1461.32,-113.48"/>
<polygon fill="midnightblue" stroke="midnightblue" points="1461.52,-116.98 1471.52,-113.48 1461.52,-109.98 1461.52,-116.98"/>
</g>
<!-- Node11 -->
<g id="node11" class="node">
<title>Node11</title>
<g id="a_node11"><a xlink:href="a00409.html#a076c5f4ff8083c7cfc6523498d0ba30f" target="_top" xlink:title=" ">
<polygon fill="white" stroke="black" points="1096,-76.48 1096,-106.48 1195,-106.48 1195,-76.48 1096,-76.48"/>
<text text-anchor="start" x="1104" y="-94.48" font-family="Helvetica,sans-Serif" font-size="10.00">LibLoader::JNIEnvs</text>
<text text-anchor="middle" x="1145.5" y="-83.48" font-family="Helvetica,sans-Serif" font-size="10.00">::getEnv</text>
</a>
</g>
</g>
<!-- Node10&#45;&gt;Node11 -->
<g id="edge10" class="edge">
<title>Node10&#45;&gt;Node11</title>
<path fill="none" stroke="midnightblue" d="M893.11,-109.68C946.7,-105.8 1029.65,-99.79 1085.46,-95.76"/>
<polygon fill="midnightblue" stroke="midnightblue" points="1085.83,-99.24 1095.55,-95.03 1085.32,-92.26 1085.83,-99.24"/>
</g>
<!-- Node11&#45;&gt;Node7 -->
<g id="edge11" class="edge">
<title>Node11&#45;&gt;Node7</title>
<path fill="none" stroke="midnightblue" d="M1195.31,-98.99C1203.51,-100.25 1212.16,-101.58 1220.75,-102.91"/>
<polygon fill="midnightblue" stroke="midnightblue" points="1220.36,-106.39 1230.78,-104.45 1221.43,-99.47 1220.36,-106.39"/>
</g>
<!-- Node12&#45;&gt;Node11 -->
<g id="edge13" class="edge">
<title>Node12&#45;&gt;Node11</title>
<path fill="none" stroke="midnightblue" d="M737.27,-57.84C823.84,-64.99 995.43,-79.17 1085.75,-86.63"/>
<polygon fill="midnightblue" stroke="midnightblue" points="1085.57,-90.13 1095.82,-87.46 1086.14,-83.15 1085.57,-90.13"/>
</g>
<!-- Node13 -->
<g id="node13" class="node">
<title>Node13</title>
<g id="a_node13"><a xlink:href="a00805.html#af50d0545fe7d683e54fcd03453a423e3" target="_top" xlink:title=" ">
<polygon fill="white" stroke="black" points="778,-16.48 778,-46.48 901,-46.48 901,-16.48 778,-16.48"/>
<text text-anchor="start" x="786" y="-34.48" font-family="Helvetica,sans-Serif" font-size="10.00">LibLoader::LoaderLogger</text>
<text text-anchor="middle" x="839.5" y="-23.48" font-family="Helvetica,sans-Serif" font-size="10.00">::warning</text>
</a>
</g>
</g>
<!-- Node12&#45;&gt;Node13 -->
<g id="edge14" class="edge">
<title>Node12&#45;&gt;Node13</title>
<path fill="none" stroke="midnightblue" d="M737.07,-45.97C747.04,-44.55 757.62,-43.04 768.04,-41.55"/>
<polygon fill="midnightblue" stroke="midnightblue" points="768.55,-45.01 777.95,-40.13 767.56,-38.08 768.55,-45.01"/>
</g>
<!-- Node14 -->
<g id="node14" class="node">
<title>Node14</title>
<g id="a_node14"><a xlink:href="a00805.html#af4d7d5164450e25f7401d1cc15f15b8d" target="_top" xlink:title="实际暴露的接口">
<polygon fill="white" stroke="black" points="937,-16.48 937,-46.48 1060,-46.48 1060,-16.48 937,-16.48"/>
<text text-anchor="start" x="945" y="-34.48" font-family="Helvetica,sans-Serif" font-size="10.00">LibLoader::LoaderLogger</text>
<text text-anchor="middle" x="998.5" y="-23.48" font-family="Helvetica,sans-Serif" font-size="10.00">::call_logger</text>
</a>
</g>
</g>
<!-- Node13&#45;&gt;Node14 -->
<g id="edge15" class="edge">
<title>Node13&#45;&gt;Node14</title>
<path fill="none" stroke="midnightblue" d="M901.2,-31.48C909.64,-31.48 918.36,-31.48 926.95,-31.48"/>
<polygon fill="midnightblue" stroke="midnightblue" points="926.96,-34.98 936.96,-31.48 926.96,-27.98 926.96,-34.98"/>
</g>
<!-- Node14&#45;&gt;Node11 -->
<g id="edge16" class="edge">
<title>Node14&#45;&gt;Node11</title>
<path fill="none" stroke="midnightblue" d="M1036.09,-46.62C1055.14,-54.51 1078.61,-64.22 1098.84,-72.59"/>
<polygon fill="midnightblue" stroke="midnightblue" points="1097.6,-75.86 1108.17,-76.45 1100.27,-69.39 1097.6,-75.86"/>
</g>
<!-- Node14&#45;&gt;Node12 -->
<g id="edge17" class="edge">
<title>Node14&#45;&gt;Node12</title>
<path fill="none" stroke="midnightblue" d="M948.97,-16.47C904.11,-4.82 835.84,7.24 778,-6.48 751.99,-12.65 724.99,-27.26 706.73,-38.56"/>
<polygon fill="midnightblue" stroke="midnightblue" points="704.83,-35.63 698.27,-43.95 708.59,-41.53 704.83,-35.63"/>
</g>
</g>
</svg>
