<?xml version="1.0" encoding="UTF-8" standalone="no"?>
<!DOCTYPE svg PUBLIC "-//W3C//DTD SVG 1.1//EN"
 "http://www.w3.org/Graphics/SVG/1.1/DTD/svg11.dtd">
<!-- Generated by graphviz version 2.50.0 (20211204.2007)
 -->
<!-- Title: MiraiCP::Member::changeNameCard Pages: 1 -->
<svg width="1683pt" height="220pt"
 viewBox="0.00 0.00 1683.00 219.76" xmlns="http://www.w3.org/2000/svg" xmlns:xlink="http://www.w3.org/1999/xlink">
<g id="graph0" class="graph" transform="scale(1 1) rotate(0) translate(4 215.76)">
<title>MiraiCP::Member::changeNameCard</title>
<polygon fill="white" stroke="transparent" points="-4,4 -4,-215.76 1679,-215.76 1679,4 -4,4"/>
<!-- Node1 -->
<g id="node1" class="node">
<title>Node1</title>
<g id="a_node1"><a xlink:title=" ">
<polygon fill="#bfbfbf" stroke="black" points="0,-123.76 0,-142.76 176,-142.76 176,-123.76 0,-123.76"/>
<text text-anchor="middle" x="88" y="-130.76" font-family="Helvetica,sans-Serif" font-size="10.00">MiraiCP::Member::changeNameCard</text>
</a>
</g>
</g>
<!-- Node2 -->
<g id="node2" class="node">
<title>Node2</title>
<g id="a_node2"><a xlink:href="a00448.html#aa6f2fbe2c5897a59431fe891e3ed1072" target="_top" xlink:title="强制下次 refreshInfo() 调用时刷新数据">
<polygon fill="white" stroke="black" points="212,-167.26 212,-197.26 363,-197.26 363,-167.26 212,-167.26"/>
<text text-anchor="start" x="220" y="-185.26" font-family="Helvetica,sans-Serif" font-size="10.00">MiraiCP::Contact::forceRefresh</text>
<text text-anchor="middle" x="287.5" y="-174.26" font-family="Helvetica,sans-Serif" font-size="10.00">NextTime</text>
</a>
</g>
</g>
<!-- Node1&#45;&gt;Node2 -->
<g id="edge1" class="edge">
<title>Node1&#45;&gt;Node2</title>
<path fill="none" stroke="midnightblue" d="M127.55,-142.83C152.66,-149.06 186.18,-157.37 215.95,-164.76"/>
<polygon fill="midnightblue" stroke="midnightblue" points="215.34,-168.21 225.89,-167.22 217.03,-161.42 215.34,-168.21"/>
</g>
<!-- Node3 -->
<g id="node3" class="node">
<title>Node3</title>
<g id="a_node3"><a xlink:href="a00415.html#a309e8d7f316e8b5e947ea3bcddeb84a8" target="_top" xlink:title="调用 Mirai 操作">
<polygon fill="white" stroke="black" points="233,-118.26 233,-148.26 342,-148.26 342,-118.26 233,-118.26"/>
<text text-anchor="start" x="241" y="-136.26" font-family="Helvetica,sans-Serif" font-size="10.00">MiraiCP::KtOperation</text>
<text text-anchor="middle" x="287.5" y="-125.26" font-family="Helvetica,sans-Serif" font-size="10.00">::ktOperation</text>
</a>
</g>
</g>
<!-- Node1&#45;&gt;Node3 -->
<g id="edge2" class="edge">
<title>Node1&#45;&gt;Node3</title>
<path fill="none" stroke="midnightblue" d="M176.2,-133.26C191.9,-133.26 208,-133.26 222.87,-133.26"/>
<polygon fill="midnightblue" stroke="midnightblue" points="222.95,-136.76 232.95,-133.26 222.95,-129.76 222.95,-136.76"/>
</g>
<!-- Node15 -->
<g id="node15" class="node">
<title>Node15</title>
<g id="a_node15"><a xlink:href="a00448.html#a89fb588a12ff2d4de10722788945ea55" target="_top" xlink:title="序列化到json对象">
<polygon fill="white" stroke="black" points="225,-79.76 225,-98.76 350,-98.76 350,-79.76 225,-79.76"/>
<text text-anchor="middle" x="287.5" y="-86.76" font-family="Helvetica,sans-Serif" font-size="10.00">MiraiCP::Contact::toJson</text>
</a>
</g>
</g>
<!-- Node1&#45;&gt;Node15 -->
<g id="edge18" class="edge">
<title>Node1&#45;&gt;Node15</title>
<path fill="none" stroke="midnightblue" d="M131.85,-123.71C161.75,-117.05 201.83,-108.12 233.69,-101.03"/>
<polygon fill="midnightblue" stroke="midnightblue" points="234.73,-104.38 243.73,-98.79 233.21,-97.55 234.73,-104.38"/>
</g>
<!-- Node4 -->
<g id="node4" class="node">
<title>Node4</title>
<g id="a_node4"><a xlink:href="a00415.html#a1e1e498928eeaa1d7107033ff5fa881a" target="_top" xlink:title="调用 Mirai 操作">
<polygon fill="white" stroke="black" points="399,-118.26 399,-148.26 508,-148.26 508,-118.26 399,-118.26"/>
<text text-anchor="start" x="407" y="-136.26" font-family="Helvetica,sans-Serif" font-size="10.00">MiraiCP::KtOperation</text>
<text text-anchor="middle" x="453.5" y="-125.26" font-family="Helvetica,sans-Serif" font-size="10.00">::ktOperationStr</text>
</a>
</g>
</g>
<!-- Node3&#45;&gt;Node4 -->
<g id="edge3" class="edge">
<title>Node3&#45;&gt;Node4</title>
<path fill="none" stroke="midnightblue" d="M342.2,-133.26C357,-133.26 373.2,-133.26 388.52,-133.26"/>
<polygon fill="midnightblue" stroke="midnightblue" points="388.96,-136.76 398.96,-133.26 388.96,-129.76 388.96,-136.76"/>
</g>
<!-- Node5 -->
<g id="node5" class="node">
<title>Node5</title>
<g id="a_node5"><a xlink:href="a00408.html#a4c6ac4cf4ba5ff0adb7656708bbb67d0" target="_top" xlink:title="interfaces for plugins">
<polygon fill="white" stroke="black" points="544,-118.26 544,-148.26 652,-148.26 652,-118.26 544,-118.26"/>
<text text-anchor="start" x="552" y="-136.26" font-family="Helvetica,sans-Serif" font-size="10.00">LibLoader::LoaderApi</text>
<text text-anchor="middle" x="598" y="-125.26" font-family="Helvetica,sans-Serif" font-size="10.00">::pluginOperation</text>
</a>
</g>
</g>
<!-- Node4&#45;&gt;Node5 -->
<g id="edge4" class="edge">
<title>Node4&#45;&gt;Node5</title>
<path fill="none" stroke="midnightblue" d="M508.37,-133.26C516.67,-133.26 525.29,-133.26 533.77,-133.26"/>
<polygon fill="midnightblue" stroke="midnightblue" points="534,-136.76 544,-133.26 534,-129.76 534,-136.76"/>
</g>
<!-- Node6 -->
<g id="node6" class="node">
<title>Node6</title>
<g id="a_node6"><a xlink:href="a00740.html#acc90fdac094544c4ddd9d6fd13baa5da" target="_top" xlink:title=" ">
<polygon fill="white" stroke="black" points="688,-181.26 688,-211.26 823,-211.26 823,-181.26 688,-181.26"/>
<text text-anchor="start" x="696" y="-199.26" font-family="Helvetica,sans-Serif" font-size="10.00">MiraiCP::MiraiCPStringview</text>
<text text-anchor="middle" x="755.5" y="-188.26" font-family="Helvetica,sans-Serif" font-size="10.00">::c_str</text>
</a>
</g>
</g>
<!-- Node5&#45;&gt;Node6 -->
<g id="edge5" class="edge">
<title>Node5&#45;&gt;Node6</title>
<path fill="none" stroke="midnightblue" d="M636.25,-148.35C657.71,-157.05 684.89,-168.06 707.77,-177.33"/>
<polygon fill="midnightblue" stroke="midnightblue" points="706.71,-180.67 717.29,-181.19 709.33,-174.19 706.71,-180.67"/>
</g>
<!-- Node7 -->
<g id="node7" class="node">
<title>Node7</title>
<g id="a_node7"><a xlink:href="a00768.html#aea7d58ff9f04d6d4849c25a2506603a5" target="_top" xlink:title="取env,如果不存在重新获取">
<polygon fill="white" stroke="black" points="1312,-104.76 1312,-123.76 1431,-123.76 1431,-104.76 1312,-104.76"/>
<text text-anchor="middle" x="1371.5" y="-111.76" font-family="Helvetica,sans-Serif" font-size="10.00">JNIEnvManager::getEnv</text>
</a>
</g>
</g>
<!-- Node5&#45;&gt;Node7 -->
<g id="edge6" class="edge">
<title>Node5&#45;&gt;Node7</title>
<path fill="none" stroke="midnightblue" d="M652.25,-138.35C715.8,-143.98 825.3,-152.26 919.5,-152.26 919.5,-152.26 919.5,-152.26 1080.5,-152.26 1162.89,-152.26 1257.34,-137 1315.46,-125.82"/>
<polygon fill="midnightblue" stroke="midnightblue" points="1316.39,-129.2 1325.53,-123.85 1315.05,-122.33 1316.39,-129.2"/>
</g>
<!-- Node10 -->
<g id="node10" class="node">
<title>Node10</title>
<g id="a_node10"><a xlink:href="a00407.html#aa5f8d0ecd9dd392b491070aace643ae3" target="_top" xlink:title=" ">
<polygon fill="white" stroke="black" points="867,-104.76 867,-123.76 974,-123.76 974,-104.76 867,-104.76"/>
<text text-anchor="middle" x="920.5" y="-111.76" font-family="Helvetica,sans-Serif" font-size="10.00">LibLoader::jstring2str</text>
</a>
</g>
</g>
<!-- Node5&#45;&gt;Node10 -->
<g id="edge9" class="edge">
<title>Node5&#45;&gt;Node10</title>
<path fill="none" stroke="midnightblue" d="M652.28,-130.1C708.57,-126.77 797.25,-121.51 856.85,-117.98"/>
<polygon fill="midnightblue" stroke="midnightblue" points="857.11,-121.47 866.89,-117.38 856.7,-114.48 857.11,-121.47"/>
</g>
<!-- Node12 -->
<g id="node12" class="node">
<title>Node12</title>
<g id="a_node12"><a xlink:href="a00407.html#a6a6fcd695791253a9b3a053d313b2b93" target="_top" xlink:title=" ">
<polygon fill="white" stroke="black" points="702,-44.76 702,-63.76 809,-63.76 809,-44.76 702,-44.76"/>
<text text-anchor="middle" x="755.5" y="-51.76" font-family="Helvetica,sans-Serif" font-size="10.00">LibLoader::str2jstring</text>
</a>
</g>
</g>
<!-- Node5&#45;&gt;Node12 -->
<g id="edge12" class="edge">
<title>Node5&#45;&gt;Node12</title>
<path fill="none" stroke="midnightblue" d="M628.61,-118.22C656.83,-103.88 699,-82.46 726.63,-68.42"/>
<polygon fill="midnightblue" stroke="midnightblue" points="728.42,-71.44 735.75,-63.79 725.25,-65.2 728.42,-71.44"/>
</g>
<!-- Node8 -->
<g id="node8" class="node">
<title>Node8</title>
<g id="a_node8"><a xlink:href="a00200.html#a3d31403b7971274d47d308245206bd24" target="_top" xlink:title="为当前线程创建一个env.">
<polygon fill="white" stroke="black" points="1467,-104.76 1467,-123.76 1517,-123.76 1517,-104.76 1467,-104.76"/>
<text text-anchor="middle" x="1492" y="-111.76" font-family="Helvetica,sans-Serif" font-size="10.00">newEnv</text>
</a>
</g>
</g>
<!-- Node7&#45;&gt;Node8 -->
<g id="edge7" class="edge">
<title>Node7&#45;&gt;Node8</title>
<path fill="none" stroke="midnightblue" d="M1431.06,-114.26C1439.89,-114.26 1448.75,-114.26 1456.85,-114.26"/>
<polygon fill="midnightblue" stroke="midnightblue" points="1456.98,-117.76 1466.98,-114.26 1456.98,-110.76 1456.98,-117.76"/>
</g>
<!-- Node9 -->
<g id="node9" class="node">
<title>Node9</title>
<g id="a_node9"><a xlink:href="a00768.html#ae0e482c6a813848a8f5d34957d1b6307" target="_top" xlink:title="获取全局JavaVM对象.">
<polygon fill="white" stroke="black" points="1553,-104.76 1553,-123.76 1675,-123.76 1675,-104.76 1553,-104.76"/>
<text text-anchor="middle" x="1614" y="-111.76" font-family="Helvetica,sans-Serif" font-size="10.00">JNIEnvManager::getGvm</text>
</a>
</g>
</g>
<!-- Node8&#45;&gt;Node9 -->
<g id="edge8" class="edge">
<title>Node8&#45;&gt;Node9</title>
<path fill="none" stroke="midnightblue" d="M1517.28,-114.26C1524.75,-114.26 1533.37,-114.26 1542.32,-114.26"/>
<polygon fill="midnightblue" stroke="midnightblue" points="1542.52,-117.76 1552.52,-114.26 1542.52,-110.76 1542.52,-117.76"/>
</g>
<!-- Node11 -->
<g id="node11" class="node">
<title>Node11</title>
<g id="a_node11"><a xlink:href="a00411.html#a076c5f4ff8083c7cfc6523498d0ba30f" target="_top" xlink:title=" ">
<polygon fill="white" stroke="black" points="1177,-77.26 1177,-107.26 1276,-107.26 1276,-77.26 1177,-77.26"/>
<text text-anchor="start" x="1185" y="-95.26" font-family="Helvetica,sans-Serif" font-size="10.00">LibLoader::JNIEnvs</text>
<text text-anchor="middle" x="1226.5" y="-84.26" font-family="Helvetica,sans-Serif" font-size="10.00">::getEnv</text>
</a>
</g>
</g>
<!-- Node10&#45;&gt;Node11 -->
<g id="edge10" class="edge">
<title>Node10&#45;&gt;Node11</title>
<path fill="none" stroke="midnightblue" d="M974.11,-110.45C1027.7,-106.58 1110.65,-100.57 1166.46,-96.53"/>
<polygon fill="midnightblue" stroke="midnightblue" points="1166.83,-100.02 1176.55,-95.8 1166.32,-93.03 1166.83,-100.02"/>
</g>
<!-- Node11&#45;&gt;Node7 -->
<g id="edge11" class="edge">
<title>Node11&#45;&gt;Node7</title>
<path fill="none" stroke="midnightblue" d="M1276.31,-99.77C1284.51,-101.03 1293.16,-102.36 1301.75,-103.68"/>
<polygon fill="midnightblue" stroke="midnightblue" points="1301.36,-107.17 1311.78,-105.23 1302.43,-100.25 1301.36,-107.17"/>
</g>
<!-- Node12&#45;&gt;Node11 -->
<g id="edge13" class="edge">
<title>Node12&#45;&gt;Node11</title>
<path fill="none" stroke="midnightblue" d="M809.39,-58.55C897.71,-65.7 1074.59,-80.03 1166.7,-87.5"/>
<polygon fill="midnightblue" stroke="midnightblue" points="1166.44,-90.99 1176.69,-88.31 1167.01,-84.01 1166.44,-90.99"/>
</g>
<!-- Node13 -->
<g id="node13" class="node">
<title>Node13</title>
<g id="a_node13"><a xlink:href="a00800.html#af50d0545fe7d683e54fcd03453a423e3" target="_top" xlink:title=" ">
<polygon fill="white" stroke="black" points="859,-17.26 859,-47.26 982,-47.26 982,-17.26 859,-17.26"/>
<text text-anchor="start" x="867" y="-35.26" font-family="Helvetica,sans-Serif" font-size="10.00">LibLoader::LoaderLogger</text>
<text text-anchor="middle" x="920.5" y="-24.26" font-family="Helvetica,sans-Serif" font-size="10.00">::warning</text>
</a>
</g>
</g>
<!-- Node12&#45;&gt;Node13 -->
<g id="edge14" class="edge">
<title>Node12&#45;&gt;Node13</title>
<path fill="none" stroke="midnightblue" d="M809.42,-47.12C822.01,-45.42 835.65,-43.58 848.89,-41.79"/>
<polygon fill="midnightblue" stroke="midnightblue" points="849.48,-45.24 858.92,-40.44 848.54,-38.31 849.48,-45.24"/>
</g>
<!-- Node14 -->
<g id="node14" class="node">
<title>Node14</title>
<g id="a_node14"><a xlink:href="a00800.html#af4d7d5164450e25f7401d1cc15f15b8d" target="_top" xlink:title="实际暴露的接口">
<polygon fill="white" stroke="black" points="1018,-17.26 1018,-47.26 1141,-47.26 1141,-17.26 1018,-17.26"/>
<text text-anchor="start" x="1026" y="-35.26" font-family="Helvetica,sans-Serif" font-size="10.00">LibLoader::LoaderLogger</text>
<text text-anchor="middle" x="1079.5" y="-24.26" font-family="Helvetica,sans-Serif" font-size="10.00">::call_logger</text>
</a>
</g>
</g>
<!-- Node13&#45;&gt;Node14 -->
<g id="edge15" class="edge">
<title>Node13&#45;&gt;Node14</title>
<path fill="none" stroke="midnightblue" d="M982.2,-32.26C990.64,-32.26 999.36,-32.26 1007.95,-32.26"/>
<polygon fill="midnightblue" stroke="midnightblue" points="1007.96,-35.76 1017.96,-32.26 1007.96,-28.76 1007.96,-35.76"/>
</g>
<!-- Node14&#45;&gt;Node11 -->
<g id="edge16" class="edge">
<title>Node14&#45;&gt;Node11</title>
<path fill="none" stroke="midnightblue" d="M1117.09,-47.4C1136.14,-55.28 1159.61,-65 1179.84,-73.37"/>
<polygon fill="midnightblue" stroke="midnightblue" points="1178.6,-76.64 1189.17,-77.23 1181.27,-70.17 1178.6,-76.64"/>
</g>
<!-- Node14&#45;&gt;Node12 -->
<g id="edge17" class="edge">
<title>Node14&#45;&gt;Node12</title>
<path fill="none" stroke="midnightblue" d="M1030.37,-17.24C1015.07,-13.15 997.97,-9.3 982,-7.26 927.77,-0.35 912.41,4.4 859,-7.26 830.6,-13.46 800.66,-28.28 780.52,-39.64"/>
<polygon fill="midnightblue" stroke="midnightblue" points="778.64,-36.68 771.74,-44.72 782.15,-42.74 778.64,-36.68"/>
</g>
</g>
</svg>
