<?xml version="1.0" encoding="UTF-8" standalone="no"?>
<!DOCTYPE svg PUBLIC "-//W3C//DTD SVG 1.1//EN"
 "http://www.w3.org/Graphics/SVG/1.1/DTD/svg11.dtd">
<!-- Generated by graphviz version 9.0.0 (0)
 -->
<!-- Title: MiraiCP::MessageChain::deserializationFromMiraiCode Pages: 1 -->
<svg width="1625pt" height="413pt"
 viewBox="0.00 0.00 1624.50 412.79" xmlns="http://www.w3.org/2000/svg" xmlns:xlink="http://www.w3.org/1999/xlink">
<g id="graph0" class="graph" transform="scale(1 1) rotate(0) translate(4 408.79)">
<title>MiraiCP::MessageChain::deserializationFromMiraiCode</title>
<!-- Node1 -->
<g id="Node000001" class="node">
<title>Node1</title>
<g id="a_Node000001"><a xlink:title="从miraicode string构建MessageChain">
<polygon fill="#999999" stroke="#666666" points="151,-223.79 0,-223.79 0,-191.79 151,-191.79 151,-223.79"/>
<text text-anchor="start" x="8" y="-210.29" font-family="Helvetica,sans-Serif" font-size="10.00">MiraiCP::MessageChain</text>
<text text-anchor="middle" x="75.5" y="-198.29" font-family="Helvetica,sans-Serif" font-size="10.00">::deserializationFromMiraiCode</text>
</a>
</g>
</g>
<!-- Node2 -->
<g id="Node000002" class="node">
<title>Node2</title>
<g id="a_Node000002"><a xlink:href="a00652.html#ad76190cce563a29637e62105e7db52d9" target="_top" xlink:title=" ">
<polygon fill="white" stroke="#666666" points="354.5,-298.79 187,-298.79 187,-266.79 354.5,-266.79 354.5,-298.79"/>
<text text-anchor="start" x="195" y="-285.29" font-family="Helvetica,sans-Serif" font-size="10.00">MiraiCP::MessageChain</text>
<text text-anchor="middle" x="270.75" y="-273.29" font-family="Helvetica,sans-Serif" font-size="10.00">::deserializationFromMessageJson</text>
</a>
</g>
</g>
<!-- Node1&#45;&gt;Node2 -->
<g id="edge1_Node000001_Node000002" class="edge">
<title>Node1&#45;&gt;Node2</title>
<g id="a_edge1_Node000001_Node000002"><a xlink:title=" ">
<path fill="none" stroke="#63b8ff" d="M118.91,-224.25C147.73,-235.43 186.07,-250.31 216.88,-262.27"/>
<polygon fill="#63b8ff" stroke="#63b8ff" points="215.44,-265.46 226.03,-265.82 217.97,-258.94 215.44,-265.46"/>
</a>
</g>
</g>
<!-- Node11 -->
<g id="Node000011" class="node">
<title>Node11</title>
<g id="a_Node000011"><a xlink:href="a00435.html#a1e1e498928eeaa1d7107033ff5fa881a" target="_top" xlink:title="调用 Mirai 操作">
<polygon fill="white" stroke="#666666" points="325.25,-198.79 216.25,-198.79 216.25,-166.79 325.25,-166.79 325.25,-198.79"/>
<text text-anchor="start" x="224.25" y="-185.29" font-family="Helvetica,sans-Serif" font-size="10.00">MiraiCP::KtOperation</text>
<text text-anchor="middle" x="270.75" y="-173.29" font-family="Helvetica,sans-Serif" font-size="10.00">::ktOperationStr</text>
</a>
</g>
</g>
<!-- Node1&#45;&gt;Node11 -->
<g id="edge12_Node000001_Node000011" class="edge">
<title>Node1&#45;&gt;Node11</title>
<g id="a_edge12_Node000001_Node000011"><a xlink:title=" ">
<path fill="none" stroke="#63b8ff" d="M151.49,-198.09C169.07,-195.81 187.66,-193.41 204.76,-191.2"/>
<polygon fill="#63b8ff" stroke="#63b8ff" points="204.79,-194.72 214.26,-189.97 203.89,-187.78 204.79,-194.72"/>
</a>
</g>
</g>
<!-- Node3 -->
<g id="Node000003" class="node">
<title>Node3</title>
<g id="a_Node000003"><a xlink:href="a00652.html#a784cfbcfd8efea6f6c5a2a3b9131bb1f" target="_top" xlink:title="使用emplace_back构造Message添加元素">
<polygon fill="white" stroke="#666666" points="546.38,-404.79 402.12,-404.79 402.12,-384.79 546.38,-384.79 546.38,-404.79"/>
<text text-anchor="middle" x="474.25" y="-391.29" font-family="Helvetica,sans-Serif" font-size="10.00">MiraiCP::MessageChain::add</text>
</a>
</g>
</g>
<!-- Node2&#45;&gt;Node3 -->
<g id="edge2_Node000002_Node000003" class="edge">
<title>Node2&#45;&gt;Node3</title>
<g id="a_edge2_Node000002_Node000003"><a xlink:title=" ">
<path fill="none" stroke="#63b8ff" d="M287.84,-299.26C309.29,-320.26 349.37,-356.17 390.5,-375.79 394.43,-377.66 398.55,-379.36 402.77,-380.89"/>
<polygon fill="#63b8ff" stroke="#63b8ff" points="401.38,-384.11 411.97,-383.9 403.56,-377.46 401.38,-384.11"/>
</a>
</g>
</g>
<!-- Node4 -->
<g id="Node000004" class="node">
<title>Node4</title>
<g id="a_Node000004"><a xlink:href="a00600.html#ac802edcd83cf04abe4cc602c901a933f" target="_top" xlink:title=" ">
<polygon fill="white" stroke="#666666" points="558,-348.79 390.5,-348.79 390.5,-316.79 558,-316.79 558,-348.79"/>
<text text-anchor="start" x="398.5" y="-335.29" font-family="Helvetica,sans-Serif" font-size="10.00">MiraiCP::ForwardedMessage</text>
<text text-anchor="middle" x="474.25" y="-323.29" font-family="Helvetica,sans-Serif" font-size="10.00">::deserializationFromMessageJson</text>
</a>
</g>
</g>
<!-- Node2&#45;&gt;Node4 -->
<g id="edge3_Node000002_Node000004" class="edge">
<title>Node2&#45;&gt;Node4</title>
<g id="a_edge3_Node000002_Node000004"><a xlink:title=" ">
<path fill="none" stroke="#63b8ff" d="M354.87,-296.76C376.45,-301.88 399.14,-307.71 418.82,-313.21"/>
<polygon fill="#63b8ff" stroke="#63b8ff" points="417.69,-316.53 428.26,-315.9 419.61,-309.8 417.69,-316.53"/>
</a>
</g>
</g>
<!-- Node7 -->
<g id="Node000007" class="node">
<title>Node7</title>
<g id="a_Node000007"><a xlink:href="a00656.html#a1f98db6bbdf6b7d178bf92f55fd2e4dc" target="_top" xlink:title="从json字符串反序列化到MessageSource对象">
<polygon fill="white" stroke="#666666" points="538.12,-298.79 410.38,-298.79 410.38,-266.79 538.12,-266.79 538.12,-298.79"/>
<text text-anchor="start" x="418.38" y="-285.29" font-family="Helvetica,sans-Serif" font-size="10.00">MiraiCP::MessageSource</text>
<text text-anchor="middle" x="474.25" y="-273.29" font-family="Helvetica,sans-Serif" font-size="10.00">::deserializeFromString</text>
</a>
</g>
</g>
<!-- Node2&#45;&gt;Node7 -->
<g id="edge8_Node000002_Node000007" class="edge">
<title>Node2&#45;&gt;Node7</title>
<g id="a_edge8_Node000002_Node000007"><a xlink:title=" ">
<path fill="none" stroke="#63b8ff" d="M354.87,-282.79C369.41,-282.79 384.46,-282.79 398.75,-282.79"/>
<polygon fill="#63b8ff" stroke="#63b8ff" points="398.51,-286.29 408.51,-282.79 398.51,-279.29 398.51,-286.29"/>
</a>
</g>
</g>
<!-- Node9 -->
<g id="Node000009" class="node">
<title>Node9</title>
<g id="a_Node000009"><a xlink:href="a00676.html#a02de0179d4a665d29ca9350be9f1e63e" target="_top" xlink:title="找对应类型的index key">
<polygon fill="white" stroke="#666666" points="536.25,-248.79 412.25,-248.79 412.25,-216.79 536.25,-216.79 536.25,-248.79"/>
<text text-anchor="start" x="420.25" y="-235.29" font-family="Helvetica,sans-Serif" font-size="10.00">MiraiCP::SingleMessage</text>
<text text-anchor="middle" x="474.25" y="-223.29" font-family="Helvetica,sans-Serif" font-size="10.00">::getKey</text>
</a>
</g>
</g>
<!-- Node2&#45;&gt;Node9 -->
<g id="edge10_Node000002_Node000009" class="edge">
<title>Node2&#45;&gt;Node9</title>
<g id="a_edge10_Node000002_Node000009"><a xlink:title=" ">
<path fill="none" stroke="#63b8ff" d="M338.01,-266.35C358.23,-261.33 380.56,-255.79 401.16,-250.68"/>
<polygon fill="#63b8ff" stroke="#63b8ff" points="401.74,-254.14 410.6,-248.33 400.05,-247.35 401.74,-254.14"/>
</a>
</g>
</g>
<!-- Node10 -->
<g id="Node000010" class="node">
<title>Node10</title>
<g id="a_Node000010"><a xlink:href="a00628.html#a279a66d53b8b825f4a9ebc8fe30f20d6" target="_top" xlink:title="发送警告(warning级日志)">
<polygon fill="white" stroke="#666666" points="538.88,-198.79 409.62,-198.79 409.62,-166.79 538.88,-166.79 538.88,-198.79"/>
<text text-anchor="start" x="417.62" y="-185.29" font-family="Helvetica,sans-Serif" font-size="10.00">MiraiCP::Logger_interface</text>
<text text-anchor="middle" x="474.25" y="-173.29" font-family="Helvetica,sans-Serif" font-size="10.00">::warning</text>
</a>
</g>
</g>
<!-- Node2&#45;&gt;Node10 -->
<g id="edge11_Node000002_Node000010" class="edge">
<title>Node2&#45;&gt;Node10</title>
<g id="a_edge11_Node000002_Node000010"><a xlink:title=" ">
<path fill="none" stroke="#63b8ff" d="M293.49,-266.51C316.56,-249.87 354.57,-224.2 390.5,-207.79 394.02,-206.18 397.67,-204.64 401.39,-203.18"/>
<polygon fill="#63b8ff" stroke="#63b8ff" points="402.42,-206.53 410.58,-199.77 399.98,-199.97 402.42,-206.53"/>
</a>
</g>
</g>
<!-- Node4&#45;&gt;Node2 -->
<g id="edge6_Node000004_Node000002" class="edge">
<title>Node4&#45;&gt;Node2</title>
<g id="a_edge6_Node000004_Node000002"><a xlink:title=" ">
<path fill="none" stroke="#63b8ff" d="M390.26,-318.85C368.55,-313.7 345.7,-307.83 325.93,-302.29"/>
<polygon fill="#63b8ff" stroke="#63b8ff" points="327.01,-298.96 316.43,-299.59 325.09,-305.7 327.01,-298.96"/>
</a>
</g>
</g>
<!-- Node4&#45;&gt;Node4 -->
<g id="edge5_Node000004_Node000004" class="edge">
<title>Node4&#45;&gt;Node4</title>
<g id="a_edge5_Node000004_Node000004"><a xlink:title=" ">
<path fill="none" stroke="#63b8ff" d="M438.79,-349.23C432.17,-358.37 443.99,-366.79 474.25,-366.79 490.8,-366.79 501.83,-364.27 507.35,-360.49"/>
<polygon fill="#63b8ff" stroke="#63b8ff" points="510.77,-361.22 509.4,-350.71 503.92,-359.78 510.77,-361.22"/>
</a>
</g>
</g>
<!-- Node5 -->
<g id="Node000005" class="node">
<title>Node5</title>
<g id="a_Node000005"><a xlink:href="a00592.html#ae41f2b998365484dba1ff3f32563dfbb" target="_top" xlink:title=" ">
<polygon fill="white" stroke="#666666" points="751.75,-398.79 594,-398.79 594,-366.79 751.75,-366.79 751.75,-398.79"/>
<text text-anchor="start" x="602" y="-385.29" font-family="Helvetica,sans-Serif" font-size="10.00">MiraiCP::ForwardedMessage</text>
<text text-anchor="middle" x="672.88" y="-373.29" font-family="Helvetica,sans-Serif" font-size="10.00">DisplayStrategy::defaultStrategy</text>
</a>
</g>
</g>
<!-- Node4&#45;&gt;Node5 -->
<g id="edge4_Node000004_Node000005" class="edge">
<title>Node4&#45;&gt;Node5</title>
<g id="a_edge4_Node000004_Node000005"><a xlink:title=" ">
<path fill="none" stroke="#63b8ff" d="M539.9,-349.23C557.88,-353.8 577.56,-358.8 596.11,-363.52"/>
<polygon fill="#63b8ff" stroke="#63b8ff" points="595.16,-366.89 605.71,-365.96 596.89,-360.11 595.16,-366.89"/>
</a>
</g>
</g>
<!-- Node6 -->
<g id="Node000006" class="node">
<title>Node6</title>
<g id="a_Node000006"><a xlink:href="a00592.html#ae93025f6346a4d8c257da1f453097d6a" target="_top" xlink:title=" ">
<polygon fill="white" stroke="#666666" points="744.25,-348.79 601.5,-348.79 601.5,-316.79 744.25,-316.79 744.25,-348.79"/>
<text text-anchor="start" x="609.5" y="-335.29" font-family="Helvetica,sans-Serif" font-size="10.00">MiraiCP::ForwardedMessage</text>
<text text-anchor="middle" x="672.88" y="-323.29" font-family="Helvetica,sans-Serif" font-size="10.00">DisplayStrategy::fromJson</text>
</a>
</g>
</g>
<!-- Node4&#45;&gt;Node6 -->
<g id="edge7_Node000004_Node000006" class="edge">
<title>Node4&#45;&gt;Node6</title>
<g id="a_edge7_Node000004_Node000006"><a xlink:title=" ">
<path fill="none" stroke="#63b8ff" d="M558.35,-332.79C568.82,-332.79 579.52,-332.79 589.97,-332.79"/>
<polygon fill="#63b8ff" stroke="#63b8ff" points="589.67,-336.29 599.67,-332.79 589.67,-329.29 589.67,-336.29"/>
</a>
</g>
</g>
<!-- Node8 -->
<g id="Node000008" class="node">
<title>Node8</title>
<g id="a_Node000008"><a xlink:href="a00628.html#af14d39efa300da183070784bc86d3f23" target="_top" xlink:title="发送错误(error级日志)">
<polygon fill="white" stroke="#666666" points="737.5,-298.79 608.25,-298.79 608.25,-266.79 737.5,-266.79 737.5,-298.79"/>
<text text-anchor="start" x="616.25" y="-285.29" font-family="Helvetica,sans-Serif" font-size="10.00">MiraiCP::Logger_interface</text>
<text text-anchor="middle" x="672.88" y="-273.29" font-family="Helvetica,sans-Serif" font-size="10.00">::error</text>
</a>
</g>
</g>
<!-- Node7&#45;&gt;Node8 -->
<g id="edge9_Node000007_Node000008" class="edge">
<title>Node7&#45;&gt;Node8</title>
<g id="a_edge9_Node000007_Node000008"><a xlink:title=" ">
<path fill="none" stroke="#63b8ff" d="M538.55,-282.79C557.04,-282.79 577.44,-282.79 596.6,-282.79"/>
<polygon fill="#63b8ff" stroke="#63b8ff" points="596.51,-286.29 606.51,-282.79 596.51,-279.29 596.51,-286.29"/>
</a>
</g>
</g>
<!-- Node12 -->
<g id="Node000012" class="node">
<title>Node12</title>
<g id="a_Node000012"><a xlink:href="a00426.html#a4c6ac4cf4ba5ff0adb7656708bbb67d0" target="_top" xlink:title="interfaces for plugins">
<polygon fill="white" stroke="#666666" points="528,-148.79 420.5,-148.79 420.5,-116.79 528,-116.79 528,-148.79"/>
<text text-anchor="start" x="428.5" y="-135.29" font-family="Helvetica,sans-Serif" font-size="10.00">LibLoader::LoaderApi</text>
<text text-anchor="middle" x="474.25" y="-123.29" font-family="Helvetica,sans-Serif" font-size="10.00">::pluginOperation</text>
</a>
</g>
</g>
<!-- Node11&#45;&gt;Node12 -->
<g id="edge13_Node000011_Node000012" class="edge">
<title>Node11&#45;&gt;Node12</title>
<g id="a_edge13_Node000011_Node000012"><a xlink:title=" ">
<path fill="none" stroke="#63b8ff" d="M325.75,-169.39C351.47,-163.01 382.4,-155.33 409.29,-148.66"/>
<polygon fill="#63b8ff" stroke="#63b8ff" points="409.82,-152.13 418.68,-146.33 408.13,-145.34 409.82,-152.13"/>
</a>
</g>
</g>
<!-- Node13 -->
<g id="Node000013" class="node">
<title>Node13</title>
<g id="a_Node000013"><a xlink:href="a00780.html#acc90fdac094544c4ddd9d6fd13baa5da" target="_top" xlink:title=" ">
<polygon fill="white" stroke="#666666" points="742,-211.79 603.75,-211.79 603.75,-179.79 742,-179.79 742,-211.79"/>
<text text-anchor="start" x="611.75" y="-198.29" font-family="Helvetica,sans-Serif" font-size="10.00">MiraiCP::MiraiCPStringview</text>
<text text-anchor="middle" x="672.88" y="-186.29" font-family="Helvetica,sans-Serif" font-size="10.00">::c_str</text>
</a>
</g>
</g>
<!-- Node12&#45;&gt;Node13 -->
<g id="edge14_Node000012_Node000013" class="edge">
<title>Node12&#45;&gt;Node13</title>
<g id="a_edge14_Node000012_Node000013"><a xlink:title=" ">
<path fill="none" stroke="#63b8ff" d="M528.29,-148.57C538.18,-151.58 548.42,-154.74 558,-157.79 575.85,-163.46 595.19,-169.83 612.79,-175.71"/>
<polygon fill="#63b8ff" stroke="#63b8ff" points="611.46,-178.96 622.06,-178.82 613.69,-172.32 611.46,-178.96"/>
</a>
</g>
</g>
<!-- Node14 -->
<g id="Node000014" class="node">
<title>Node14</title>
<g id="a_Node000014"><a xlink:href="a00840.html#aea7d58ff9f04d6d4849c25a2506603a5" target="_top" xlink:title="取env,如果不存在重新获取">
<polygon fill="white" stroke="#666666" points="1366.25,-123.79 1243,-123.79 1243,-103.79 1366.25,-103.79 1366.25,-123.79"/>
<text text-anchor="middle" x="1304.62" y="-110.29" font-family="Helvetica,sans-Serif" font-size="10.00">JNIEnvManager::getEnv</text>
</a>
</g>
</g>
<!-- Node12&#45;&gt;Node14 -->
<g id="edge15_Node000012_Node000014" class="edge">
<title>Node12&#45;&gt;Node14</title>
<g id="a_edge15_Node000012_Node000014"><a xlink:title=" ">
<path fill="none" stroke="#63b8ff" d="M528.29,-137.19C600.54,-142.81 733.96,-151.79 848,-151.79 848,-151.79 848,-151.79 1008.5,-151.79 1089.79,-151.79 1182.65,-137.43 1242.15,-126.37"/>
<polygon fill="#63b8ff" stroke="#63b8ff" points="1242.56,-129.85 1251.74,-124.55 1241.26,-122.97 1242.56,-129.85"/>
</a>
</g>
</g>
<!-- Node17 -->
<g id="Node000017" class="node">
<title>Node17</title>
<g id="a_Node000017"><a xlink:href="a00425.html#aa5f8d0ecd9dd392b491070aace643ae3" target="_top" xlink:title=" ">
<polygon fill="white" stroke="#666666" points="902.38,-123.79 795.62,-123.79 795.62,-103.79 902.38,-103.79 902.38,-123.79"/>
<text text-anchor="middle" x="849" y="-110.29" font-family="Helvetica,sans-Serif" font-size="10.00">LibLoader::jstring2str</text>
</a>
</g>
</g>
<!-- Node12&#45;&gt;Node17 -->
<g id="edge18_Node000012_Node000017" class="edge">
<title>Node12&#45;&gt;Node17</title>
<g id="a_edge18_Node000012_Node000017"><a xlink:title=" ">
<path fill="none" stroke="#63b8ff" d="M528.26,-130.09C595.61,-126.65 711.75,-120.73 783.97,-117.05"/>
<polygon fill="#63b8ff" stroke="#63b8ff" points="783.85,-120.56 793.66,-116.56 783.5,-113.57 783.85,-120.56"/>
</a>
</g>
</g>
<!-- Node19 -->
<g id="Node000019" class="node">
<title>Node19</title>
<g id="a_Node000019"><a xlink:href="a00425.html#a6a6fcd695791253a9b3a053d313b2b93" target="_top" xlink:title=" ">
<polygon fill="white" stroke="#666666" points="726.25,-63.79 619.5,-63.79 619.5,-43.79 726.25,-43.79 726.25,-63.79"/>
<text text-anchor="middle" x="672.88" y="-50.29" font-family="Helvetica,sans-Serif" font-size="10.00">LibLoader::str2jstring</text>
</a>
</g>
</g>
<!-- Node12&#45;&gt;Node19 -->
<g id="edge21_Node000012_Node000019" class="edge">
<title>Node12&#45;&gt;Node19</title>
<g id="a_edge21_Node000012_Node000019"><a xlink:title=" ">
<path fill="none" stroke="#63b8ff" d="M515.99,-116.42C551.21,-102.27 601.65,-82 635.53,-68.39"/>
<polygon fill="#63b8ff" stroke="#63b8ff" points="636.52,-71.76 644.5,-64.79 633.91,-65.27 636.52,-71.76"/>
</a>
</g>
</g>
<!-- Node15 -->
<g id="Node000015" class="node">
<title>Node15</title>
<g id="a_Node000015"><a xlink:href="a00260.html#a3d31403b7971274d47d308245206bd24" target="_top" xlink:title="为当前线程创建一个env.">
<polygon fill="white" stroke="#666666" points="1453.5,-123.79 1402.25,-123.79 1402.25,-103.79 1453.5,-103.79 1453.5,-123.79"/>
<text text-anchor="middle" x="1427.88" y="-110.29" font-family="Helvetica,sans-Serif" font-size="10.00">newEnv</text>
</a>
</g>
</g>
<!-- Node14&#45;&gt;Node15 -->
<g id="edge16_Node000014_Node000015" class="edge">
<title>Node14&#45;&gt;Node15</title>
<g id="a_edge16_Node000014_Node000015"><a xlink:title=" ">
<path fill="none" stroke="#63b8ff" d="M1366.61,-113.79C1374.81,-113.79 1383.01,-113.79 1390.59,-113.79"/>
<polygon fill="#63b8ff" stroke="#63b8ff" points="1390.41,-117.29 1400.41,-113.79 1390.41,-110.29 1390.41,-117.29"/>
</a>
</g>
</g>
<!-- Node16 -->
<g id="Node000016" class="node">
<title>Node16</title>
<g id="a_Node000016"><a xlink:href="a00840.html#ae0e482c6a813848a8f5d34957d1b6307" target="_top" xlink:title="获取全局JavaVM对象.">
<polygon fill="white" stroke="#666666" points="1616.5,-123.79 1489.5,-123.79 1489.5,-103.79 1616.5,-103.79 1616.5,-123.79"/>
<text text-anchor="middle" x="1553" y="-110.29" font-family="Helvetica,sans-Serif" font-size="10.00">JNIEnvManager::getGvm</text>
</a>
</g>
</g>
<!-- Node15&#45;&gt;Node16 -->
<g id="edge17_Node000015_Node000016" class="edge">
<title>Node15&#45;&gt;Node16</title>
<g id="a_edge17_Node000015_Node000016"><a xlink:title=" ">
<path fill="none" stroke="#63b8ff" d="M1453.79,-113.79C1460.97,-113.79 1469.2,-113.79 1477.77,-113.79"/>
<polygon fill="#63b8ff" stroke="#63b8ff" points="1477.66,-117.29 1487.66,-113.79 1477.66,-110.29 1477.66,-117.29"/>
</a>
</g>
</g>
<!-- Node18 -->
<g id="Node000018" class="node">
<title>Node18</title>
<g id="a_Node000018"><a xlink:href="a00430.html#a076c5f4ff8083c7cfc6523498d0ba30f" target="_top" xlink:title=" ">
<polygon fill="white" stroke="#666666" points="1207,-107.79 1104.75,-107.79 1104.75,-75.79 1207,-75.79 1207,-107.79"/>
<text text-anchor="start" x="1112.75" y="-94.29" font-family="Helvetica,sans-Serif" font-size="10.00">LibLoader::JNIEnvs</text>
<text text-anchor="middle" x="1155.88" y="-82.29" font-family="Helvetica,sans-Serif" font-size="10.00">::getEnv</text>
</a>
</g>
</g>
<!-- Node17&#45;&gt;Node18 -->
<g id="edge19_Node000017_Node000018" class="edge">
<title>Node17&#45;&gt;Node18</title>
<g id="a_edge19_Node000017_Node000018"><a xlink:title=" ">
<path fill="none" stroke="#63b8ff" d="M902.76,-109.98C955.69,-106.16 1037.19,-100.28 1093.11,-96.25"/>
<polygon fill="#63b8ff" stroke="#63b8ff" points="1093.05,-99.76 1102.77,-95.55 1092.55,-92.78 1093.05,-99.76"/>
</a>
</g>
</g>
<!-- Node18&#45;&gt;Node14 -->
<g id="edge20_Node000018_Node000014" class="edge">
<title>Node18&#45;&gt;Node14</title>
<g id="a_edge20_Node000018_Node000014"><a xlink:title=" ">
<path fill="none" stroke="#63b8ff" d="M1207.38,-99.36C1215.1,-100.52 1223.19,-101.73 1231.27,-102.94"/>
<polygon fill="#63b8ff" stroke="#63b8ff" points="1230.74,-106.4 1241.15,-104.42 1231.78,-99.48 1230.74,-106.4"/>
</a>
</g>
</g>
<!-- Node19&#45;&gt;Node18 -->
<g id="edge22_Node000019_Node000018" class="edge">
<title>Node19&#45;&gt;Node18</title>
<g id="a_edge22_Node000019_Node000018"><a xlink:title=" ">
<path fill="none" stroke="#63b8ff" d="M726.73,-57.96C816.34,-65.04 997.62,-79.36 1093,-86.9"/>
<polygon fill="#63b8ff" stroke="#63b8ff" points="1092.72,-90.39 1102.97,-87.69 1093.27,-83.41 1092.72,-90.39"/>
</a>
</g>
</g>
<!-- Node20 -->
<g id="Node000020" class="node">
<title>Node20</title>
<g id="a_Node000020"><a xlink:href="a00872.html#af50d0545fe7d683e54fcd03453a423e3" target="_top" xlink:title=" ">
<polygon fill="white" stroke="#666666" points="910.25,-47.79 787.75,-47.79 787.75,-15.79 910.25,-15.79 910.25,-47.79"/>
<text text-anchor="start" x="795.75" y="-34.29" font-family="Helvetica,sans-Serif" font-size="10.00">LibLoader::LoaderLogger</text>
<text text-anchor="middle" x="849" y="-22.29" font-family="Helvetica,sans-Serif" font-size="10.00">::warning</text>
</a>
</g>
</g>
<!-- Node19&#45;&gt;Node20 -->
<g id="edge23_Node000019_Node000020" class="edge">
<title>Node19&#45;&gt;Node20</title>
<g id="a_edge23_Node000019_Node000020"><a xlink:title=" ">
<path fill="none" stroke="#63b8ff" d="M726.59,-47.13C742.21,-45.15 759.58,-42.96 776.18,-40.86"/>
<polygon fill="#63b8ff" stroke="#63b8ff" points="776.54,-44.34 786.03,-39.62 775.67,-37.4 776.54,-44.34"/>
</a>
</g>
</g>
<!-- Node21 -->
<g id="Node000021" class="node">
<title>Node21</title>
<g id="a_Node000021"><a xlink:href="a00872.html#af4d7d5164450e25f7401d1cc15f15b8d" target="_top" xlink:title="实际暴露的接口">
<polygon fill="white" stroke="#666666" points="1068.75,-47.79 946.25,-47.79 946.25,-15.79 1068.75,-15.79 1068.75,-47.79"/>
<text text-anchor="start" x="954.25" y="-34.29" font-family="Helvetica,sans-Serif" font-size="10.00">LibLoader::LoaderLogger</text>
<text text-anchor="middle" x="1007.5" y="-22.29" font-family="Helvetica,sans-Serif" font-size="10.00">::call_logger</text>
</a>
</g>
</g>
<!-- Node20&#45;&gt;Node21 -->
<g id="edge24_Node000020_Node000021" class="edge">
<title>Node20&#45;&gt;Node21</title>
<g id="a_edge24_Node000020_Node000021"><a xlink:title=" ">
<path fill="none" stroke="#63b8ff" d="M910.51,-31.79C918.4,-31.79 926.55,-31.79 934.6,-31.79"/>
<polygon fill="#63b8ff" stroke="#63b8ff" points="934.38,-35.29 944.38,-31.79 934.38,-28.29 934.38,-35.29"/>
</a>
</g>
</g>
<!-- Node21&#45;&gt;Node18 -->
<g id="edge25_Node000021_Node000018" class="edge">
<title>Node21&#45;&gt;Node18</title>
<g id="a_edge25_Node000021_Node000018"><a xlink:title=" ">
<path fill="none" stroke="#63b8ff" d="M1048.5,-48.18C1065.69,-55.23 1085.99,-63.55 1104.22,-71.02"/>
<polygon fill="#63b8ff" stroke="#63b8ff" points="1102.69,-74.18 1113.27,-74.73 1105.35,-67.7 1102.69,-74.18"/>
</a>
</g>
</g>
<!-- Node21&#45;&gt;Node19 -->
<g id="edge26_Node000021_Node000019" class="edge">
<title>Node21&#45;&gt;Node19</title>
<g id="a_edge26_Node000021_Node000019"><a xlink:title=" ">
<path fill="none" stroke="#63b8ff" d="M953.01,-15.33C939.21,-11.79 924.29,-8.58 910.25,-6.79 856.24,0.11 841.16,3.8 787.75,-6.79 757.46,-12.79 725.12,-26.97 702.67,-38.2"/>
<polygon fill="#63b8ff" stroke="#63b8ff" points="701.14,-35.05 693.84,-42.73 704.34,-41.28 701.14,-35.05"/>
</a>
</g>
</g>
</g>
</svg>
