<?xml version="1.0" encoding="UTF-8" standalone="no"?>
<!DOCTYPE svg PUBLIC "-//W3C//DTD SVG 1.1//EN"
 "http://www.w3.org/Graphics/SVG/1.1/DTD/svg11.dtd">
<!-- Generated by graphviz version 2.50.0 (20211204.2007)
 -->
<!-- Title: MiraiCP::Logger_interface::constructString Pages: 1 -->
<svg width="1062pt" height="1076pt"
 viewBox="0.00 0.00 1062.00 1075.50" xmlns="http://www.w3.org/2000/svg" xmlns:xlink="http://www.w3.org/1999/xlink">
<g id="graph0" class="graph" transform="scale(1 1) rotate(0) translate(4 1071.5)">
<title>MiraiCP::Logger_interface::constructString</title>
<polygon fill="white" stroke="transparent" points="-4,4 -4,-1071.5 1058,-1071.5 1058,4 -4,4"/>
<!-- Node1 -->
<g id="node1" class="node">
<title>Node1</title>
<g id="a_node1"><a xlink:title=" ">
<polygon fill="#bfbfbf" stroke="black" points="926,-347.5 926,-377.5 1054,-377.5 1054,-347.5 926,-347.5"/>
<text text-anchor="start" x="934" y="-365.5" font-family="Helvetica,sans-Serif" font-size="10.00">MiraiCP::Logger_interface</text>
<text text-anchor="middle" x="990" y="-354.5" font-family="Helvetica,sans-Serif" font-size="10.00">::constructString</text>
</a>
</g>
</g>
<!-- Node2 -->
<g id="node2" class="node">
<title>Node2</title>
<g id="a_node2"><a xlink:href="a00609.html#a10c521c602773c530f954f89c5a902e5" target="_top" xlink:title=" ">
<polygon fill="white" stroke="black" points="762,-413.5 762,-443.5 890,-443.5 890,-413.5 762,-413.5"/>
<text text-anchor="start" x="770" y="-431.5" font-family="Helvetica,sans-Serif" font-size="10.00">MiraiCP::Logger_interface</text>
<text text-anchor="middle" x="826" y="-420.5" font-family="Helvetica,sans-Serif" font-size="10.00">::constructString</text>
</a>
</g>
</g>
<!-- Node1&#45;&gt;Node2 -->
<g id="edge1" class="edge">
<title>Node1&#45;&gt;Node2</title>
<path fill="none" stroke="midnightblue" d="M942.57,-381.42C917.63,-391.58 887.32,-403.93 863.99,-413.43"/>
<polygon fill="midnightblue" stroke="midnightblue" points="943.89,-384.66 951.83,-377.64 941.25,-378.17 943.89,-384.66"/>
</g>
<!-- Node3 -->
<g id="node3" class="node">
<title>Node3</title>
<g id="a_node3"><a xlink:href="a00609.html#af14d39efa300da183070784bc86d3f23" target="_top" xlink:title="发送错误(error级日志)">
<polygon fill="white" stroke="black" points="762,-325.5 762,-355.5 890,-355.5 890,-325.5 762,-325.5"/>
<text text-anchor="start" x="770" y="-343.5" font-family="Helvetica,sans-Serif" font-size="10.00">MiraiCP::Logger_interface</text>
<text text-anchor="middle" x="826" y="-332.5" font-family="Helvetica,sans-Serif" font-size="10.00">::error</text>
</a>
</g>
</g>
<!-- Node1&#45;&gt;Node3 -->
<g id="edge2" class="edge">
<title>Node1&#45;&gt;Node3</title>
<path fill="none" stroke="midnightblue" d="M915.91,-352.57C907.32,-351.41 898.62,-350.23 890.19,-349.08"/>
<polygon fill="midnightblue" stroke="midnightblue" points="915.52,-356.05 925.9,-353.93 916.46,-349.12 915.52,-356.05"/>
</g>
<!-- Node51 -->
<g id="node49" class="node">
<title>Node51</title>
<g id="a_node49"><a xlink:href="a00609.html#ade15a5c23198ffcb4454a28356e78759" target="_top" xlink:title="发送普通(info级日志)">
<polygon fill="white" stroke="black" points="762,-276.5 762,-306.5 890,-306.5 890,-276.5 762,-276.5"/>
<text text-anchor="start" x="770" y="-294.5" font-family="Helvetica,sans-Serif" font-size="10.00">MiraiCP::Logger_interface</text>
<text text-anchor="middle" x="826" y="-283.5" font-family="Helvetica,sans-Serif" font-size="10.00">::info</text>
</a>
</g>
</g>
<!-- Node1&#45;&gt;Node51 -->
<g id="edge60" class="edge">
<title>Node1&#45;&gt;Node51</title>
<path fill="none" stroke="midnightblue" d="M948.07,-342.84C930.32,-334.49 909.24,-324.78 890,-316.5 882.33,-313.2 874.06,-309.8 866.13,-306.62"/>
<polygon fill="midnightblue" stroke="midnightblue" points="947.02,-346.22 957.55,-347.33 950.01,-339.89 947.02,-346.22"/>
</g>
<!-- Node52 -->
<g id="node50" class="node">
<title>Node52</title>
<g id="a_node50"><a xlink:href="a00609.html#a279a66d53b8b825f4a9ebc8fe30f20d6" target="_top" xlink:title="发送警告(warning级日志)">
<polygon fill="white" stroke="black" points="593.5,-802.5 593.5,-832.5 721.5,-832.5 721.5,-802.5 593.5,-802.5"/>
<text text-anchor="start" x="601.5" y="-820.5" font-family="Helvetica,sans-Serif" font-size="10.00">MiraiCP::Logger_interface</text>
<text text-anchor="middle" x="657.5" y="-809.5" font-family="Helvetica,sans-Serif" font-size="10.00">::warning</text>
</a>
</g>
</g>
<!-- Node1&#45;&gt;Node52 -->
<g id="edge61" class="edge">
<title>Node1&#45;&gt;Node52</title>
<path fill="none" stroke="midnightblue" d="M915.67,-366.89C857.55,-371.98 782.78,-382.65 762,-404.5 720.43,-448.2 743,-615.63 726,-673.5 711.53,-722.77 682.45,-776.46 667.63,-802.14"/>
<polygon fill="midnightblue" stroke="midnightblue" points="916.27,-370.35 925.94,-366.03 915.69,-363.38 916.27,-370.35"/>
</g>
<!-- Node4 -->
<g id="node4" class="node">
<title>Node4</title>
<g id="a_node4"><a xlink:href="a00561.html#aec8e8e400265242bd3a9998af6b55880" target="_top" xlink:title="basicRaise 基本抛出方法，子类重写该方法">
<polygon fill="white" stroke="black" points="590,-925.5 590,-955.5 725,-955.5 725,-925.5 590,-925.5"/>
<text text-anchor="start" x="598" y="-943.5" font-family="Helvetica,sans-Serif" font-size="10.00">MiraiCP::MiraiCPException</text>
<text text-anchor="middle" x="657.5" y="-932.5" font-family="Helvetica,sans-Serif" font-size="10.00">Base::basicRaise</text>
</a>
</g>
</g>
<!-- Node3&#45;&gt;Node4 -->
<g id="edge3" class="edge">
<title>Node3&#45;&gt;Node4</title>
<path fill="none" stroke="midnightblue" d="M796.02,-361.98C783.26,-373.14 769.5,-387.91 762,-404.5 715.76,-506.82 789.37,-815.81 726,-908.5 721.17,-915.57 714.34,-921.12 706.87,-925.46"/>
<polygon fill="midnightblue" stroke="midnightblue" points="798.33,-364.61 803.76,-355.51 793.84,-359.23 798.33,-364.61"/>
</g>
<!-- Node5 -->
<g id="node5" class="node">
<title>Node5</title>
<g id="a_node5"><a xlink:href="a00561.html#a27e4eaeb594e067089585f1975b7eb74" target="_top" xlink:title="实际抛出方法">
<polygon fill="white" stroke="black" points="402,-976.5 402,-1006.5 537,-1006.5 537,-976.5 402,-976.5"/>
<text text-anchor="start" x="410" y="-994.5" font-family="Helvetica,sans-Serif" font-size="10.00">MiraiCP::MiraiCPException</text>
<text text-anchor="middle" x="469.5" y="-983.5" font-family="Helvetica,sans-Serif" font-size="10.00">Base::raise</text>
</a>
</g>
</g>
<!-- Node3&#45;&gt;Node5 -->
<g id="edge53" class="edge">
<title>Node3&#45;&gt;Node5</title>
<path fill="none" stroke="midnightblue" d="M795.69,-362.19C783,-373.32 769.38,-388 762,-404.5 736.48,-461.51 769.33,-920.52 726,-965.5 678.36,-1014.95 595.58,-1014.31 537.17,-1005.96"/>
<polygon fill="midnightblue" stroke="midnightblue" points="797.98,-364.84 803.41,-355.74 793.49,-359.47 797.98,-364.84"/>
</g>
<!-- Node12 -->
<g id="node10" class="node">
<title>Node12</title>
<g id="a_node10"><a xlink:href="a00395.html#a9c4f605303f4ffc836c1978d9b1e89c5" target="_top" xlink:title=" ">
<polygon fill="white" stroke="black" points="610,-868.5 610,-898.5 705,-898.5 705,-868.5 610,-868.5"/>
<text text-anchor="start" x="618" y="-886.5" font-family="Helvetica,sans-Serif" font-size="10.00">MiraiCP::internal::</text>
<text text-anchor="middle" x="657.5" y="-875.5" font-family="Helvetica,sans-Serif" font-size="10.00">commandRegister</text>
</a>
</g>
</g>
<!-- Node3&#45;&gt;Node12 -->
<g id="edge10" class="edge">
<title>Node3&#45;&gt;Node12</title>
<path fill="none" stroke="midnightblue" d="M796.1,-362.02C783.36,-373.18 769.59,-387.95 762,-404.5 721.31,-493.28 777.34,-759.42 726,-842.5 719.15,-853.58 708.09,-862.08 696.89,-868.4"/>
<polygon fill="midnightblue" stroke="midnightblue" points="798.41,-364.65 803.83,-355.54 793.91,-359.28 798.41,-364.65"/>
</g>
<!-- Node14 -->
<g id="node12" class="node">
<title>Node14</title>
<g id="a_node12"><a xlink:href="a00637.html#a1f98db6bbdf6b7d178bf92f55fd2e4dc" target="_top" xlink:title="从json字符串反序列化到MessageSource对象">
<polygon fill="white" stroke="black" points="593.5,-633.5 593.5,-663.5 721.5,-663.5 721.5,-633.5 593.5,-633.5"/>
<text text-anchor="start" x="601.5" y="-651.5" font-family="Helvetica,sans-Serif" font-size="10.00">MiraiCP::MessageSource</text>
<text text-anchor="middle" x="657.5" y="-640.5" font-family="Helvetica,sans-Serif" font-size="10.00">::deserializeFromString</text>
</a>
</g>
</g>
<!-- Node3&#45;&gt;Node14 -->
<g id="edge12" class="edge">
<title>Node3&#45;&gt;Node14</title>
<path fill="none" stroke="midnightblue" d="M773.06,-360.95C769.02,-363.77 765.25,-366.95 762,-370.5 688.62,-450.64 665.89,-587.53 660.17,-633.18"/>
<polygon fill="midnightblue" stroke="midnightblue" points="774.99,-363.86 781.65,-355.62 771.31,-357.91 774.99,-363.86"/>
</g>
<!-- Node34 -->
<g id="node32" class="node">
<title>Node34</title>
<g id="a_node32"><a xlink:href="a00697.html#a86d0f3d9b2d7ef5aab70d377297528fc" target="_top" xlink:title=" ">
<polygon fill="white" stroke="black" points="599,-357.5 599,-387.5 716,-387.5 716,-357.5 599,-357.5"/>
<text text-anchor="start" x="607" y="-375.5" font-family="Helvetica,sans-Serif" font-size="10.00">MiraiCP::RemoteFile</text>
<text text-anchor="middle" x="657.5" y="-364.5" font-family="Helvetica,sans-Serif" font-size="10.00">::deserializeFromString</text>
</a>
</g>
</g>
<!-- Node3&#45;&gt;Node34 -->
<g id="edge37" class="edge">
<title>Node3&#45;&gt;Node34</title>
<path fill="none" stroke="midnightblue" d="M751.64,-354.6C739.7,-356.89 727.49,-359.24 716.01,-361.45"/>
<polygon fill="midnightblue" stroke="midnightblue" points="752.42,-358.01 761.58,-352.69 751.1,-351.14 752.42,-358.01"/>
</g>
<!-- Node39 -->
<g id="node37" class="node">
<title>Node39</title>
<g id="a_node37"><a xlink:href="a00394.html#ade37f70b66a7da09197985fe2d874348" target="_top" xlink:title=" ">
<polygon fill="white" stroke="black" points="590.5,-300 590.5,-319 724.5,-319 724.5,-300 590.5,-300"/>
<text text-anchor="middle" x="657.5" y="-307" font-family="Helvetica,sans-Serif" font-size="10.00">MiraiCP::groupInviteInternal</text>
</a>
</g>
</g>
<!-- Node3&#45;&gt;Node39 -->
<g id="edge43" class="edge">
<title>Node3&#45;&gt;Node39</title>
<path fill="none" stroke="midnightblue" d="M751.4,-326.8C737.29,-324.17 722.81,-321.47 709.6,-319.01"/>
<polygon fill="midnightblue" stroke="midnightblue" points="751.11,-330.3 761.58,-328.69 752.39,-323.42 751.11,-330.3"/>
</g>
<!-- Node42 -->
<g id="node40" class="node">
<title>Node42</title>
<g id="a_node40"><a xlink:href="a00402.html#a7f4d8fec23835e77a75b92b054b54ebb" target="_top" xlink:title=" ">
<polygon fill="white" stroke="black" points="604,-225.5 604,-255.5 711,-255.5 711,-225.5 604,-225.5"/>
<text text-anchor="start" x="612" y="-243.5" font-family="Helvetica,sans-Serif" font-size="10.00">MiraiCP::ThreadTask</text>
<text text-anchor="middle" x="657.5" y="-232.5" font-family="Helvetica,sans-Serif" font-size="10.00">::internal::logerror</text>
</a>
</g>
</g>
<!-- Node3&#45;&gt;Node42 -->
<g id="edge46" class="edge">
<title>Node3&#45;&gt;Node42</title>
<path fill="none" stroke="midnightblue" d="M771.57,-321.32C768.29,-319.78 765.07,-318.17 762,-316.5 759.77,-315.29 708.4,-277.39 678.89,-255.58"/>
<polygon fill="midnightblue" stroke="midnightblue" points="770.37,-324.62 780.94,-325.46 773.21,-318.22 770.37,-324.62"/>
</g>
<!-- Node45 -->
<g id="node43" class="node">
<title>Node45</title>
<g id="a_node43"><a xlink:href="a00394.html#a94480131f138aabc9aba228b9d17023f" target="_top" xlink:title=" ">
<polygon fill="white" stroke="black" points="589,-106.5 589,-136.5 726,-136.5 726,-106.5 589,-106.5"/>
<text text-anchor="start" x="597" y="-124.5" font-family="Helvetica,sans-Serif" font-size="10.00">MiraiCP::newFriendRequest</text>
<text text-anchor="middle" x="657.5" y="-113.5" font-family="Helvetica,sans-Serif" font-size="10.00">Internal</text>
</a>
</g>
</g>
<!-- Node3&#45;&gt;Node45 -->
<g id="edge49" class="edge">
<title>Node3&#45;&gt;Node45</title>
<path fill="none" stroke="midnightblue" d="M764.36,-318.98C763.54,-318.18 762.75,-317.36 762,-316.5 716.98,-265.37 764.74,-223.54 726,-167.5 717.05,-154.55 703.17,-144.18 690.32,-136.59"/>
<polygon fill="midnightblue" stroke="midnightblue" points="762.43,-321.92 772.44,-325.39 766.78,-316.43 762.43,-321.92"/>
</g>
<!-- Node48 -->
<g id="node46" class="node">
<title>Node48</title>
<g id="a_node46"><a xlink:href="a00402.html#ac0e1bc3b94e5ebafbad6fde1a0eb55fc" target="_top" xlink:title=" ">
<polygon fill="white" stroke="black" points="416,-0.5 416,-30.5 523,-30.5 523,-0.5 416,-0.5"/>
<text text-anchor="start" x="424" y="-18.5" font-family="Helvetica,sans-Serif" font-size="10.00">MiraiCP::ThreadTask</text>
<text text-anchor="middle" x="469.5" y="-7.5" font-family="Helvetica,sans-Serif" font-size="10.00">::internal::push_task</text>
</a>
</g>
</g>
<!-- Node3&#45;&gt;Node48 -->
<g id="edge52" class="edge">
<title>Node3&#45;&gt;Node48</title>
<path fill="none" stroke="midnightblue" d="M764.21,-318.99C763.44,-318.19 762.7,-317.36 762,-316.5 699.6,-240.1 791.4,-171.34 726,-97.5 683.94,-50.01 648.05,-80.67 589,-57.5 572.35,-50.97 569.66,-46.02 553,-39.5 543.56,-35.8 533.31,-32.37 523.35,-29.33"/>
<polygon fill="midnightblue" stroke="midnightblue" points="761.96,-321.68 771.87,-325.42 766.46,-316.31 761.96,-321.68"/>
</g>
<!-- Node49 -->
<g id="node47" class="node">
<title>Node49</title>
<g id="a_node47"><a xlink:href="a00402.html#ab890e46143438cf7d678f6e4f2dcb9d0" target="_top" xlink:title=" ">
<polygon fill="white" stroke="black" points="600,-176.5 600,-206.5 715,-206.5 715,-176.5 600,-176.5"/>
<text text-anchor="start" x="608" y="-194.5" font-family="Helvetica,sans-Serif" font-size="10.00">MiraiCP::ThreadTask</text>
<text text-anchor="middle" x="657.5" y="-183.5" font-family="Helvetica,sans-Serif" font-size="10.00">::internal::remove_task</text>
</a>
</g>
</g>
<!-- Node3&#45;&gt;Node49 -->
<g id="edge54" class="edge">
<title>Node3&#45;&gt;Node49</title>
<path fill="none" stroke="midnightblue" d="M765.3,-319.57C764.15,-318.59 763.05,-317.57 762,-316.5 728.91,-282.79 759.25,-250.05 726,-216.5 722.13,-212.59 717.6,-209.29 712.74,-206.5"/>
<polygon fill="midnightblue" stroke="midnightblue" points="763.27,-322.42 773.44,-325.4 767.35,-316.73 763.27,-322.42"/>
</g>
<!-- Node50 -->
<g id="node48" class="node">
<title>Node50</title>
<g id="a_node48"><a xlink:href="a00402.html#a954499687c36452be430af25a7e94750" target="_top" xlink:title=" ">
<polygon fill="white" stroke="black" points="597,-0.5 597,-30.5 718,-30.5 718,-0.5 597,-0.5"/>
<text text-anchor="start" x="605" y="-18.5" font-family="Helvetica,sans-Serif" font-size="10.00">MiraiCP::ThreadTask</text>
<text text-anchor="middle" x="657.5" y="-7.5" font-family="Helvetica,sans-Serif" font-size="10.00">::internal::task_interface</text>
</a>
</g>
</g>
<!-- Node3&#45;&gt;Node50 -->
<g id="edge57" class="edge">
<title>Node3&#45;&gt;Node50</title>
<path fill="none" stroke="midnightblue" d="M763.9,-318.71C763.24,-318 762.61,-317.26 762,-316.5 691.11,-227.76 785.07,-160.51 726,-63.5 717.55,-49.62 703.41,-38.64 690.24,-30.71"/>
<polygon fill="midnightblue" stroke="midnightblue" points="761.93,-321.63 771.79,-325.49 766.49,-316.32 761.93,-321.63"/>
</g>
<!-- Node4&#45;&gt;Node5 -->
<g id="edge4" class="edge">
<title>Node4&#45;&gt;Node5</title>
<path fill="none" stroke="midnightblue" d="M591.89,-958.21C570.16,-964.17 546.13,-970.76 525.23,-976.49"/>
<polygon fill="midnightblue" stroke="midnightblue" points="592.98,-961.55 601.7,-955.53 591.13,-954.79 592.98,-961.55"/>
</g>
<!-- Node6 -->
<g id="node6" class="node">
<title>Node6</title>
<g id="a_node6"><a xlink:href="a00389.html#ada5aac13445cc76c802c817d248d8da8" target="_top" xlink:title="插件开启入口">
<polygon fill="white" stroke="black" points="216,-1030 216,-1049 317,-1049 317,-1030 216,-1030"/>
<text text-anchor="middle" x="266.5" y="-1037" font-family="Helvetica,sans-Serif" font-size="10.00">FUNC_ENTRANCE</text>
</a>
</g>
</g>
<!-- Node5&#45;&gt;Node6 -->
<g id="edge5" class="edge">
<title>Node5&#45;&gt;Node6</title>
<path fill="none" stroke="midnightblue" d="M395.54,-1008.92C365.85,-1016.01 332.69,-1023.93 307.55,-1029.94"/>
<polygon fill="midnightblue" stroke="midnightblue" points="396.54,-1012.28 405.45,-1006.56 394.91,-1005.47 396.54,-1012.28"/>
</g>
<!-- Node10 -->
<g id="node8" class="node">
<title>Node10</title>
<g id="a_node8"><a xlink:href="a00649.html#a0fc8daf263296676e2714fd681c401d2" target="_top" xlink:title=" ">
<polygon fill="white" stroke="black" points="196.5,-978.5 196.5,-1008.5 336.5,-1008.5 336.5,-978.5 196.5,-978.5"/>
<text text-anchor="start" x="204.5" y="-996.5" font-family="Helvetica,sans-Serif" font-size="10.00">MiraiCP::MiraiCPNewThread</text>
<text text-anchor="middle" x="266.5" y="-985.5" font-family="Helvetica,sans-Serif" font-size="10.00">::threadExceptionBroadcast</text>
</a>
</g>
</g>
<!-- Node5&#45;&gt;Node10 -->
<g id="edge8" class="edge">
<title>Node5&#45;&gt;Node10</title>
<path fill="none" stroke="midnightblue" d="M391.65,-992.26C373.58,-992.44 354.43,-992.63 336.72,-992.81"/>
<polygon fill="midnightblue" stroke="midnightblue" points="391.88,-995.76 401.85,-992.16 391.81,-988.76 391.88,-995.76"/>
</g>
<!-- Node6&#45;&gt;Node6 -->
<g id="edge6" class="edge">
<title>Node6&#45;&gt;Node6</title>
<path fill="none" stroke="midnightblue" d="M302.5,-1057C302.49,-1062.84 290.49,-1067.5 266.5,-1067.5 232.38,-1067.5 222.51,-1058.07 236.91,-1049.26"/>
<polygon fill="midnightblue" stroke="midnightblue" points="305.16,-1054.73 296.09,-1049.26 299.77,-1059.19 305.16,-1054.73"/>
</g>
<!-- Node7 -->
<g id="node7" class="node">
<title>Node7</title>
<g id="a_node7"><a xlink:href="a00829.html#a331c05a9c7aeaee822c53df717efb60d" target="_top" xlink:title=" ">
<polygon fill="white" stroke="red" points="18.5,-1025.5 18.5,-1055.5 128.5,-1055.5 128.5,-1025.5 18.5,-1025.5"/>
<text text-anchor="start" x="26.5" y="-1043.5" font-family="Helvetica,sans-Serif" font-size="10.00">LibLoader::Plugin::</text>
<text text-anchor="middle" x="73.5" y="-1032.5" font-family="Helvetica,sans-Serif" font-size="10.00">testSymbolExistance</text>
</a>
</g>
</g>
<!-- Node6&#45;&gt;Node7 -->
<g id="edge7" class="edge">
<title>Node6&#45;&gt;Node7</title>
<path fill="none" stroke="midnightblue" d="M205.51,-1039.81C180.9,-1039.94 152.61,-1040.09 128.63,-1040.22"/>
<polygon fill="midnightblue" stroke="midnightblue" points="205.83,-1043.31 215.82,-1039.76 205.8,-1036.31 205.83,-1043.31"/>
</g>
<!-- Node11 -->
<g id="node9" class="node">
<title>Node11</title>
<g id="a_node9"><a xlink:href="a00649.html#ae04a775fb43599b61f29e831f98bfee0" target="_top" xlink:title=" ">
<polygon fill="white" stroke="black" points="3.5,-976.5 3.5,-1006.5 143.5,-1006.5 143.5,-976.5 3.5,-976.5"/>
<text text-anchor="start" x="11.5" y="-994.5" font-family="Helvetica,sans-Serif" font-size="10.00">MiraiCP::MiraiCPNewThread</text>
<text text-anchor="middle" x="73.5" y="-983.5" font-family="Helvetica,sans-Serif" font-size="10.00">::MiraiCPNewThread</text>
</a>
</g>
</g>
<!-- Node10&#45;&gt;Node11 -->
<g id="edge9" class="edge">
<title>Node10&#45;&gt;Node11</title>
<path fill="none" stroke="midnightblue" d="M186.14,-992.67C172.09,-992.52 157.56,-992.37 143.81,-992.23"/>
<polygon fill="midnightblue" stroke="midnightblue" points="186.24,-996.17 196.27,-992.78 186.31,-989.17 186.24,-996.17"/>
</g>
<!-- Node13 -->
<g id="node11" class="node">
<title>Node13</title>
<g id="a_node11"><a xlink:href="a00396.html#ade2058acff33a4c43d5c7820a1828faa" target="_top" xlink:title="注册一条指令">
<polygon fill="white" stroke="black" points="400,-906.5 400,-936.5 539,-936.5 539,-906.5 400,-906.5"/>
<text text-anchor="start" x="408" y="-924.5" font-family="Helvetica,sans-Serif" font-size="10.00">MiraiCP::CommandManager</text>
<text text-anchor="middle" x="469.5" y="-913.5" font-family="Helvetica,sans-Serif" font-size="10.00">::registerCommand</text>
</a>
</g>
</g>
<!-- Node12&#45;&gt;Node13 -->
<g id="edge11" class="edge">
<title>Node12&#45;&gt;Node13</title>
<path fill="none" stroke="midnightblue" d="M599.55,-895.14C580.5,-899.03 559.06,-903.41 539.21,-907.46"/>
<polygon fill="midnightblue" stroke="midnightblue" points="600.47,-898.52 609.56,-893.09 599.07,-891.66 600.47,-898.52"/>
</g>
<!-- Node15 -->
<g id="node13" class="node">
<title>Node15</title>
<g id="a_node13"><a xlink:href="a00633.html#ad76190cce563a29637e62105e7db52d9" target="_top" xlink:title=" ">
<polygon fill="white" stroke="black" points="386,-857.5 386,-887.5 553,-887.5 553,-857.5 386,-857.5"/>
<text text-anchor="start" x="394" y="-875.5" font-family="Helvetica,sans-Serif" font-size="10.00">MiraiCP::MessageChain</text>
<text text-anchor="middle" x="469.5" y="-864.5" font-family="Helvetica,sans-Serif" font-size="10.00">::deserializationFromMessageJson</text>
</a>
</g>
</g>
<!-- Node14&#45;&gt;Node15 -->
<g id="edge13" class="edge">
<title>Node14&#45;&gt;Node15</title>
<path fill="none" stroke="midnightblue" d="M645.19,-672.76C621.53,-723.09 567.82,-835.2 553,-847.5 548.39,-851.32 543.21,-854.56 537.75,-857.31"/>
<polygon fill="midnightblue" stroke="midnightblue" points="648.42,-674.11 649.5,-663.57 642.08,-671.14 648.42,-674.11"/>
</g>
<!-- Node21 -->
<g id="node19" class="node">
<title>Node21</title>
<g id="a_node19"><a xlink:href="a00513.html#addb043788194a8bffd2eeddff17080ef" target="_top" xlink:title="取群聊下一个消息(群聊与本事件一样)">
<polygon fill="white" stroke="black" points="193,-764.5 193,-794.5 340,-794.5 340,-764.5 193,-764.5"/>
<text text-anchor="start" x="201" y="-782.5" font-family="Helvetica,sans-Serif" font-size="10.00">MiraiCP::GroupMessageEvent</text>
<text text-anchor="middle" x="266.5" y="-771.5" font-family="Helvetica,sans-Serif" font-size="10.00">::nextMessage</text>
</a>
</g>
</g>
<!-- Node14&#45;&gt;Node21 -->
<g id="edge25" class="edge">
<title>Node14&#45;&gt;Node21</title>
<path fill="none" stroke="midnightblue" d="M631.55,-670.22C611.59,-686.46 582.21,-707.95 553,-720.5 484.06,-750.12 399.22,-765.22 340.02,-772.68"/>
<polygon fill="midnightblue" stroke="midnightblue" points="634.04,-672.7 639.5,-663.62 629.57,-667.32 634.04,-672.7"/>
</g>
<!-- Node22 -->
<g id="node20" class="node">
<title>Node22</title>
<g id="a_node20"><a xlink:href="a00553.html#a2fadddd37811d8dcbf7183d98eba3034" target="_top" xlink:title="取下一个消息(发送人和接收人和本事件一样)">
<polygon fill="white" stroke="black" points="191.5,-715.5 191.5,-745.5 341.5,-745.5 341.5,-715.5 191.5,-715.5"/>
<text text-anchor="start" x="199.5" y="-733.5" font-family="Helvetica,sans-Serif" font-size="10.00">MiraiCP::PrivateMessageEvent</text>
<text text-anchor="middle" x="266.5" y="-722.5" font-family="Helvetica,sans-Serif" font-size="10.00">::nextMessage</text>
</a>
</g>
</g>
<!-- Node14&#45;&gt;Node22 -->
<g id="edge26" class="edge">
<title>Node14&#45;&gt;Node22</title>
<path fill="none" stroke="midnightblue" d="M617.68,-667.95C598.63,-676.73 575.07,-686.46 553,-692.5 482.71,-711.74 399.91,-721.39 341.63,-726.13"/>
<polygon fill="midnightblue" stroke="midnightblue" points="619.36,-671.03 626.92,-663.61 616.38,-664.69 619.36,-671.03"/>
</g>
<!-- Node23 -->
<g id="node21" class="node">
<title>Node23</title>
<g id="a_node21"><a xlink:href="a00513.html#a67d98fb7d7214cb2bc916da47e3e5ce3" target="_top" xlink:title="取群聊中同群成员的下一个消息(发送人和群与本事件一样)">
<polygon fill="white" stroke="black" points="193,-666.5 193,-696.5 340,-696.5 340,-666.5 193,-666.5"/>
<text text-anchor="start" x="201" y="-684.5" font-family="Helvetica,sans-Serif" font-size="10.00">MiraiCP::GroupMessageEvent</text>
<text text-anchor="middle" x="266.5" y="-673.5" font-family="Helvetica,sans-Serif" font-size="10.00">::senderNextMessage</text>
</a>
</g>
</g>
<!-- Node14&#45;&gt;Node23 -->
<g id="edge30" class="edge">
<title>Node14&#45;&gt;Node23</title>
<path fill="none" stroke="midnightblue" d="M593.47,-665.94C580.2,-668.99 566.21,-671.74 553,-673.5 481.12,-683.08 398.19,-684.33 340.29,-683.63"/>
<polygon fill="midnightblue" stroke="midnightblue" points="594.53,-669.28 603.45,-663.56 592.91,-662.47 594.53,-669.28"/>
</g>
<!-- Node24 -->
<g id="node22" class="node">
<title>Node24</title>
<g id="a_node22"><a xlink:href="a00633.html#a20a3500f67e6e79c7499399e4ac84df1" target="_top" xlink:title=" ">
<polygon fill="white" stroke="black" points="396,-797 396,-838 543,-838 543,-797 396,-797"/>
<text text-anchor="start" x="404" y="-826" font-family="Helvetica,sans-Serif" font-size="10.00">MiraiCP::MessageChain</text>
<text text-anchor="start" x="404" y="-815" font-family="Helvetica,sans-Serif" font-size="10.00">::deserializationFromMessage</text>
<text text-anchor="middle" x="469.5" y="-804" font-family="Helvetica,sans-Serif" font-size="10.00">SourceJson</text>
</a>
</g>
</g>
<!-- Node14&#45;&gt;Node24 -->
<g id="edge24" class="edge">
<title>Node14&#45;&gt;Node24</title>
<path fill="none" stroke="midnightblue" d="M643.14,-672.62C625.78,-702.06 592.9,-751.71 553,-782.5 545.86,-788.01 537.71,-792.82 529.39,-796.97"/>
<polygon fill="midnightblue" stroke="midnightblue" points="646.26,-674.23 648.23,-663.82 640.19,-670.73 646.26,-674.23"/>
</g>
<!-- Node25 -->
<g id="node23" class="node">
<title>Node25</title>
<g id="a_node23"><a xlink:href="a00445.html#aee1b53cae7cec3e1d65daa3d23625223" target="_top" xlink:title=" ">
<polygon fill="white" stroke="black" points="400.5,-633.5 400.5,-663.5 538.5,-663.5 538.5,-633.5 400.5,-633.5"/>
<text text-anchor="start" x="408.5" y="-651.5" font-family="Helvetica,sans-Serif" font-size="10.00">MiraiCP::Contact::quoteAnd</text>
<text text-anchor="middle" x="469.5" y="-640.5" font-family="Helvetica,sans-Serif" font-size="10.00">SendImpl</text>
</a>
</g>
</g>
<!-- Node14&#45;&gt;Node25 -->
<g id="edge27" class="edge">
<title>Node14&#45;&gt;Node25</title>
<path fill="none" stroke="midnightblue" d="M583.23,-648.5C568.54,-648.5 553.16,-648.5 538.65,-648.5"/>
<polygon fill="midnightblue" stroke="midnightblue" points="583.27,-652 593.27,-648.5 583.27,-645 583.27,-652"/>
</g>
<!-- Node27 -->
<g id="node25" class="node">
<title>Node27</title>
<g id="a_node25"><a xlink:href="a00689.html#a48b93dbd55eb6dabeb0ae0d8d3191dfb" target="_top" xlink:title=" ">
<polygon fill="white" stroke="black" points="415.5,-584.5 415.5,-614.5 523.5,-614.5 523.5,-584.5 415.5,-584.5"/>
<text text-anchor="start" x="423.5" y="-602.5" font-family="Helvetica,sans-Serif" font-size="10.00">MiraiCP::QuoteReply</text>
<text text-anchor="middle" x="469.5" y="-591.5" font-family="Helvetica,sans-Serif" font-size="10.00">::QuoteReply</text>
</a>
</g>
</g>
<!-- Node14&#45;&gt;Node27 -->
<g id="edge29" class="edge">
<title>Node14&#45;&gt;Node27</title>
<path fill="none" stroke="midnightblue" d="M589.63,-630.88C567.95,-625.17 544.2,-618.92 523.65,-613.5"/>
<polygon fill="midnightblue" stroke="midnightblue" points="588.87,-634.3 599.43,-633.47 590.65,-627.53 588.87,-634.3"/>
</g>
<!-- Node28 -->
<g id="node26" class="node">
<title>Node28</title>
<g id="a_node26"><a xlink:href="a00445.html#aa448a5ef12e3572c0cf751a3f37f7519" target="_top" xlink:title=" ">
<polygon fill="white" stroke="black" points="392,-546 392,-565 547,-565 547,-546 392,-546"/>
<text text-anchor="middle" x="469.5" y="-553" font-family="Helvetica,sans-Serif" font-size="10.00">MiraiCP::Contact::sendMsgImpl</text>
</a>
</g>
</g>
<!-- Node14&#45;&gt;Node28 -->
<g id="edge31" class="edge">
<title>Node14&#45;&gt;Node28</title>
<path fill="none" stroke="midnightblue" d="M631.74,-626.96C611.75,-610.62 582.21,-588.76 553,-575.5 543.61,-571.24 533.18,-567.81 522.99,-565.08"/>
<polygon fill="midnightblue" stroke="midnightblue" points="629.52,-629.66 639.44,-633.37 633.99,-624.28 629.52,-629.66"/>
</g>
<!-- Node30 -->
<g id="node28" class="node">
<title>Node30</title>
<g id="a_node28"><a xlink:href="a00581.html#ac80faf9f28a0031b30f30728dae3e39b" target="_top" xlink:title="发送给群或好友或群成员">
<polygon fill="white" stroke="black" points="398.5,-496.5 398.5,-526.5 540.5,-526.5 540.5,-496.5 398.5,-496.5"/>
<text text-anchor="start" x="406.5" y="-514.5" font-family="Helvetica,sans-Serif" font-size="10.00">MiraiCP::ForwardedMessage</text>
<text text-anchor="middle" x="469.5" y="-503.5" font-family="Helvetica,sans-Serif" font-size="10.00">::sendTo</text>
</a>
</g>
</g>
<!-- Node14&#45;&gt;Node30 -->
<g id="edge33" class="edge">
<title>Node14&#45;&gt;Node30</title>
<path fill="none" stroke="midnightblue" d="M640.76,-625.12C622.51,-599.75 590.13,-559.76 553,-536.5 546.91,-532.69 540.21,-529.42 533.33,-526.64"/>
<polygon fill="midnightblue" stroke="midnightblue" points="637.99,-627.27 646.61,-633.43 643.72,-623.24 637.99,-627.27"/>
</g>
<!-- Node31 -->
<g id="node29" class="node">
<title>Node31</title>
<g id="a_node29"><a xlink:href="a00445.html#a1a09f38d4bf01b99f04ffdbc9168727a" target="_top" xlink:title="发送语音">
<polygon fill="white" stroke="black" points="389,-458 389,-477 550,-477 550,-458 389,-458"/>
<text text-anchor="middle" x="469.5" y="-465" font-family="Helvetica,sans-Serif" font-size="10.00">MiraiCP::Contact::sendVoiceImpl</text>
</a>
</g>
</g>
<!-- Node14&#45;&gt;Node31 -->
<g id="edge34" class="edge">
<title>Node14&#45;&gt;Node31</title>
<path fill="none" stroke="midnightblue" d="M647.48,-623.65C633.17,-587.84 601.78,-522.23 553,-487.5 546.88,-483.14 539.92,-479.73 532.7,-477.05"/>
<polygon fill="midnightblue" stroke="midnightblue" points="644.35,-625.26 651.22,-633.33 650.88,-622.74 644.35,-625.26"/>
</g>
<!-- Node16 -->
<g id="node14" class="node">
<title>Node16</title>
<g id="a_node14"><a xlink:href="a00581.html#ac802edcd83cf04abe4cc602c901a933f" target="_top" xlink:title=" ">
<polygon fill="white" stroke="black" points="183,-911.5 183,-941.5 350,-941.5 350,-911.5 183,-911.5"/>
<text text-anchor="start" x="191" y="-929.5" font-family="Helvetica,sans-Serif" font-size="10.00">MiraiCP::ForwardedMessage</text>
<text text-anchor="middle" x="266.5" y="-918.5" font-family="Helvetica,sans-Serif" font-size="10.00">::deserializationFromMessageJson</text>
</a>
</g>
</g>
<!-- Node15&#45;&gt;Node16 -->
<g id="edge14" class="edge">
<title>Node15&#45;&gt;Node16</title>
<path fill="none" stroke="midnightblue" d="M377.88,-890.12C351.57,-897.04 324.36,-904.82 303.53,-911.5"/>
<polygon fill="midnightblue" stroke="midnightblue" points="379.1,-893.42 387.9,-887.52 377.35,-886.65 379.1,-893.42"/>
</g>
<!-- Node17 -->
<g id="node15" class="node">
<title>Node17</title>
<g id="a_node15"><a xlink:href="a00633.html#a682d6d47c049ff53477d495a8ec3a97c" target="_top" xlink:title="从miraicode string构建MessageChain">
<polygon fill="white" stroke="black" points="191,-862.5 191,-892.5 342,-892.5 342,-862.5 191,-862.5"/>
<text text-anchor="start" x="199" y="-880.5" font-family="Helvetica,sans-Serif" font-size="10.00">MiraiCP::MessageChain</text>
<text text-anchor="middle" x="266.5" y="-869.5" font-family="Helvetica,sans-Serif" font-size="10.00">::deserializationFromMiraiCode</text>
</a>
</g>
</g>
<!-- Node15&#45;&gt;Node17 -->
<g id="edge17" class="edge">
<title>Node15&#45;&gt;Node17</title>
<path fill="none" stroke="midnightblue" d="M375.61,-874.81C364.37,-875.09 353,-875.37 342.07,-875.65"/>
<polygon fill="midnightblue" stroke="midnightblue" points="375.97,-878.3 385.88,-874.56 375.79,-871.31 375.97,-878.3"/>
</g>
<!-- Node20 -->
<g id="node18" class="node">
<title>Node20</title>
<g id="a_node18"><a xlink:href="a00465.html#aca8d122b5ac259f28f372f02cdd38930" target="_top" xlink:title=" ">
<polygon fill="white" stroke="black" points="203.5,-813.5 203.5,-843.5 329.5,-843.5 329.5,-813.5 203.5,-813.5"/>
<text text-anchor="start" x="211.5" y="-831.5" font-family="Helvetica,sans-Serif" font-size="10.00">MiraiCP::Event::incoming</text>
<text text-anchor="middle" x="266.5" y="-820.5" font-family="Helvetica,sans-Serif" font-size="10.00">Event</text>
</a>
</g>
</g>
<!-- Node15&#45;&gt;Node20 -->
<g id="edge20" class="edge">
<title>Node15&#45;&gt;Node20</title>
<path fill="none" stroke="midnightblue" d="M389.89,-855.29C369.93,-850.92 348.75,-846.29 329.73,-842.12"/>
<polygon fill="midnightblue" stroke="midnightblue" points="389.37,-858.76 399.89,-857.48 390.87,-851.92 389.37,-858.76"/>
</g>
<!-- Node15&#45;&gt;Node21 -->
<g id="edge21" class="edge">
<title>Node15&#45;&gt;Node21</title>
<path fill="none" stroke="midnightblue" d="M395.82,-853.2C392.41,-851.46 389.12,-849.56 386,-847.5 365.21,-833.76 370.79,-818.24 350,-804.5 344.13,-800.62 337.64,-797.32 330.94,-794.53"/>
<polygon fill="midnightblue" stroke="midnightblue" points="394.51,-856.45 405.06,-857.47 397.45,-850.1 394.51,-856.45"/>
</g>
<!-- Node15&#45;&gt;Node22 -->
<g id="edge22" class="edge">
<title>Node15&#45;&gt;Node22</title>
<path fill="none" stroke="midnightblue" d="M391.36,-851.92C389.49,-850.54 387.7,-849.07 386,-847.5 353.75,-817.7 382.25,-785.3 350,-755.5 345.82,-751.64 341.07,-748.38 336,-745.61"/>
<polygon fill="midnightblue" stroke="midnightblue" points="389.68,-854.99 400,-857.39 393.42,-849.08 389.68,-854.99"/>
</g>
<!-- Node15&#45;&gt;Node23 -->
<g id="edge23" class="edge">
<title>Node15&#45;&gt;Node23</title>
<path fill="none" stroke="midnightblue" d="M390.42,-851.63C388.88,-850.34 387.4,-848.96 386,-847.5 341.29,-800.77 394.71,-753.23 350,-706.5 346.28,-702.61 341.97,-699.31 337.31,-696.53"/>
<polygon fill="midnightblue" stroke="midnightblue" points="388.5,-854.56 398.69,-857.47 392.54,-848.84 388.5,-854.56"/>
</g>
<!-- Node16&#45;&gt;Node15 -->
<g id="edge16" class="edge">
<title>Node16&#45;&gt;Node15</title>
<path fill="none" stroke="midnightblue" d="M358.17,-908.86C384.3,-901.99 411.34,-894.27 432.1,-887.62"/>
<polygon fill="midnightblue" stroke="midnightblue" points="357.01,-905.55 348.21,-911.45 358.77,-912.32 357.01,-905.55"/>
</g>
<!-- Node16&#45;&gt;Node16 -->
<g id="edge15" class="edge">
<title>Node16&#45;&gt;Node16</title>
<path fill="none" stroke="midnightblue" d="M300.62,-951.96C296.38,-956.68 285.01,-960 266.5,-960 236.12,-960 224.97,-951.06 233.04,-941.66"/>
<polygon fill="midnightblue" stroke="midnightblue" points="304.09,-951.42 299.96,-941.66 297.1,-951.86 304.09,-951.42"/>
</g>
<!-- Node18 -->
<g id="node16" class="node">
<title>Node18</title>
<g id="a_node16"><a xlink:href="a00633.html#ae6f7253c754243afaa831cf42034c1bd" target="_top" xlink:title=" ">
<polygon fill="white" stroke="black" points="12.5,-884.5 12.5,-914.5 134.5,-914.5 134.5,-884.5 12.5,-884.5"/>
<text text-anchor="start" x="20.5" y="-902.5" font-family="Helvetica,sans-Serif" font-size="10.00">MiraiCP::MessageChain</text>
<text text-anchor="middle" x="73.5" y="-891.5" font-family="Helvetica,sans-Serif" font-size="10.00">::constructMessages</text>
</a>
</g>
</g>
<!-- Node17&#45;&gt;Node18 -->
<g id="edge18" class="edge">
<title>Node17&#45;&gt;Node18</title>
<path fill="none" stroke="midnightblue" d="M180.7,-887.27C165.18,-889.06 149.27,-890.89 134.65,-892.57"/>
<polygon fill="midnightblue" stroke="midnightblue" points="181.3,-890.72 190.83,-886.1 180.5,-883.77 181.3,-890.72"/>
</g>
<!-- Node19 -->
<g id="node17" class="node">
<title>Node19</title>
<g id="a_node17"><a xlink:href="a00445.html#a41f4d0ce7bdaaa02e29f59128053b47b" target="_top" xlink:title=" ">
<polygon fill="white" stroke="black" points="0,-846 0,-865 147,-865 147,-846 0,-846"/>
<text text-anchor="middle" x="73.5" y="-853" font-family="Helvetica,sans-Serif" font-size="10.00">MiraiCP::Contact::unpackMsg</text>
</a>
</g>
</g>
<!-- Node17&#45;&gt;Node19 -->
<g id="edge19" class="edge">
<title>Node17&#45;&gt;Node19</title>
<path fill="none" stroke="midnightblue" d="M180.66,-867.73C169.51,-866.44 158.16,-865.14 147.24,-863.88"/>
<polygon fill="midnightblue" stroke="midnightblue" points="180.5,-871.23 190.83,-868.9 181.3,-864.28 180.5,-871.23"/>
</g>
<!-- Node26 -->
<g id="node24" class="node">
<title>Node26</title>
<g id="a_node24"><a xlink:href="a00445.html#a953a301e675c7fc368d1d9694b12763a" target="_top" xlink:title=" ">
<polygon fill="white" stroke="black" points="202.5,-617.5 202.5,-647.5 330.5,-647.5 330.5,-617.5 202.5,-617.5"/>
<text text-anchor="start" x="210.5" y="-635.5" font-family="Helvetica,sans-Serif" font-size="10.00">MiraiCP::Contact::unpack</text>
<text text-anchor="middle" x="266.5" y="-624.5" font-family="Helvetica,sans-Serif" font-size="10.00">Quote</text>
</a>
</g>
</g>
<!-- Node25&#45;&gt;Node26 -->
<g id="edge28" class="edge">
<title>Node25&#45;&gt;Node26</title>
<path fill="none" stroke="midnightblue" d="M390.26,-642.27C370.54,-640.7 349.62,-639.04 330.74,-637.53"/>
<polygon fill="midnightblue" stroke="midnightblue" points="390.2,-645.78 400.45,-643.08 390.76,-638.8 390.2,-645.78"/>
</g>
<!-- Node29 -->
<g id="node27" class="node">
<title>Node29</title>
<g id="a_node27"><a xlink:href="a00445.html#a78985ac5a99e904025c0b884437a512e" target="_top" xlink:title=" ">
<polygon fill="white" stroke="black" points="193,-546 193,-565 340,-565 340,-546 193,-546"/>
<text text-anchor="middle" x="266.5" y="-553" font-family="Helvetica,sans-Serif" font-size="10.00">MiraiCP::Contact::unpackMsg</text>
</a>
</g>
</g>
<!-- Node28&#45;&gt;Node29 -->
<g id="edge32" class="edge">
<title>Node28&#45;&gt;Node29</title>
<path fill="none" stroke="midnightblue" d="M381.9,-555.5C368,-555.5 353.74,-555.5 340.21,-555.5"/>
<polygon fill="midnightblue" stroke="midnightblue" points="381.94,-559 391.94,-555.5 381.94,-552 381.94,-559"/>
</g>
<!-- Node32 -->
<g id="node30" class="node">
<title>Node32</title>
<g id="a_node30"><a xlink:href="a00589.html#aeee3b1999006e12a1ba98fc28448b68b" target="_top" xlink:title="发送语音">
<polygon fill="white" stroke="black" points="199,-496 199,-515 334,-515 334,-496 199,-496"/>
<text text-anchor="middle" x="266.5" y="-503" font-family="Helvetica,sans-Serif" font-size="10.00">MiraiCP::Group::sendVoice</text>
</a>
</g>
</g>
<!-- Node31&#45;&gt;Node32 -->
<g id="edge35" class="edge">
<title>Node31&#45;&gt;Node32</title>
<path fill="none" stroke="midnightblue" d="M408.1,-478.92C379.34,-484.36 345.34,-490.78 317.98,-495.96"/>
<polygon fill="midnightblue" stroke="midnightblue" points="408.86,-482.34 418.04,-477.04 407.56,-475.46 408.86,-482.34"/>
</g>
<!-- Node33 -->
<g id="node31" class="node">
<title>Node33</title>
<g id="a_node31"><a xlink:href="a00625.html#a855bd4e1c3e457d1b906c22f560190bf" target="_top" xlink:title="发送语音">
<polygon fill="white" stroke="black" points="194.5,-458 194.5,-477 338.5,-477 338.5,-458 194.5,-458"/>
<text text-anchor="middle" x="266.5" y="-465" font-family="Helvetica,sans-Serif" font-size="10.00">MiraiCP::Member::sendVoice</text>
</a>
</g>
</g>
<!-- Node31&#45;&gt;Node33 -->
<g id="edge36" class="edge">
<title>Node31&#45;&gt;Node33</title>
<path fill="none" stroke="midnightblue" d="M378.6,-467.5C365.22,-467.5 351.59,-467.5 338.67,-467.5"/>
<polygon fill="midnightblue" stroke="midnightblue" points="378.77,-471 388.77,-467.5 378.77,-464 378.77,-471"/>
</g>
<!-- Node35 -->
<g id="node33" class="node">
<title>Node35</title>
<g id="a_node33"><a xlink:href="a00589.html#a8ebc1c344a0b0fd9de68aa0bb597d2a5" target="_top" xlink:title=" ">
<polygon fill="white" stroke="black" points="207,-420 207,-439 326,-439 326,-420 207,-420"/>
<text text-anchor="middle" x="266.5" y="-427" font-family="Helvetica,sans-Serif" font-size="10.00">MiraiCP::Group::getFile</text>
</a>
</g>
</g>
<!-- Node34&#45;&gt;Node35 -->
<g id="edge38" class="edge">
<title>Node34&#45;&gt;Node35</title>
<path fill="none" stroke="midnightblue" d="M613.25,-391.51C595,-398.7 573.32,-406.19 553,-410.5 475.74,-426.9 384.32,-430.26 326.13,-430.45"/>
<polygon fill="midnightblue" stroke="midnightblue" points="614.76,-394.68 622.73,-387.68 612.14,-388.19 614.76,-394.68"/>
</g>
<!-- Node36 -->
<g id="node34" class="node">
<title>Node36</title>
<g id="a_node34"><a xlink:href="a00589.html#a0f975b9bfbedb9d5d4fee9b95c9dbe65" target="_top" xlink:title="取文件信息(根据id)">
<polygon fill="white" stroke="black" points="400.5,-382 400.5,-401 538.5,-401 538.5,-382 400.5,-382"/>
<text text-anchor="middle" x="469.5" y="-389" font-family="Helvetica,sans-Serif" font-size="10.00">MiraiCP::Group::getFileById</text>
</a>
</g>
</g>
<!-- Node34&#45;&gt;Node36 -->
<g id="edge39" class="edge">
<title>Node34&#45;&gt;Node36</title>
<path fill="none" stroke="midnightblue" d="M588.89,-379.41C572.5,-381.08 554.98,-382.87 538.57,-384.55"/>
<polygon fill="midnightblue" stroke="midnightblue" points="589.33,-382.88 598.92,-378.38 588.62,-375.92 589.33,-382.88"/>
</g>
<!-- Node38 -->
<g id="node36" class="node">
<title>Node38</title>
<g id="a_node36"><a xlink:href="a00589.html#aed703d0ece4a7a9e8a1fe8e5f80eadbc" target="_top" xlink:title="上传并发送远程(群)文件">
<polygon fill="white" stroke="black" points="406.5,-344 406.5,-363 532.5,-363 532.5,-344 406.5,-344"/>
<text text-anchor="middle" x="469.5" y="-351" font-family="Helvetica,sans-Serif" font-size="10.00">MiraiCP::Group::sendFile</text>
</a>
</g>
</g>
<!-- Node34&#45;&gt;Node38 -->
<g id="edge42" class="edge">
<title>Node34&#45;&gt;Node38</title>
<path fill="none" stroke="midnightblue" d="M588.88,-365.59C570.51,-363.72 550.7,-361.69 532.65,-359.85"/>
<polygon fill="midnightblue" stroke="midnightblue" points="588.62,-369.08 598.92,-366.62 589.33,-362.12 588.62,-369.08"/>
</g>
<!-- Node36&#45;&gt;Node35 -->
<g id="edge40" class="edge">
<title>Node36&#45;&gt;Node35</title>
<path fill="none" stroke="midnightblue" d="M408.1,-402.92C379.34,-408.36 345.34,-414.78 317.98,-419.96"/>
<polygon fill="midnightblue" stroke="midnightblue" points="408.86,-406.34 418.04,-401.04 407.56,-399.46 408.86,-406.34"/>
</g>
<!-- Node37 -->
<g id="node35" class="node">
<title>Node37</title>
<g id="a_node35"><a xlink:href="a00589.html#a2a2d2d51902d818f7e52a72229446a57" target="_top" xlink:title=" ">
<polygon fill="white" stroke="black" points="193.5,-382 193.5,-401 339.5,-401 339.5,-382 193.5,-382"/>
<text text-anchor="middle" x="266.5" y="-389" font-family="Helvetica,sans-Serif" font-size="10.00">MiraiCP::Group::getFileByFile</text>
</a>
</g>
</g>
<!-- Node36&#45;&gt;Node37 -->
<g id="edge41" class="edge">
<title>Node36&#45;&gt;Node37</title>
<path fill="none" stroke="midnightblue" d="M390.2,-391.5C373.54,-391.5 356.02,-391.5 339.6,-391.5"/>
<polygon fill="midnightblue" stroke="midnightblue" points="390.45,-395 400.45,-391.5 390.45,-388 390.45,-395"/>
</g>
<!-- Node40 -->
<g id="node38" class="node">
<title>Node40</title>
<g id="a_node38"><a xlink:href="a00509.html#a3847df3907111c8443c1e1b71ee35d1d" target="_top" xlink:title=" ">
<polygon fill="white" stroke="black" points="405,-294.5 405,-324.5 534,-324.5 534,-294.5 405,-294.5"/>
<text text-anchor="start" x="413" y="-312.5" font-family="Helvetica,sans-Serif" font-size="10.00">MiraiCP::GroupInviteEvent</text>
<text text-anchor="middle" x="469.5" y="-301.5" font-family="Helvetica,sans-Serif" font-size="10.00">::accept</text>
</a>
</g>
</g>
<!-- Node39&#45;&gt;Node40 -->
<g id="edge44" class="edge">
<title>Node39&#45;&gt;Node40</title>
<path fill="none" stroke="midnightblue" d="M579.98,-309.5C564.76,-309.5 548.94,-309.5 534.2,-309.5"/>
<polygon fill="midnightblue" stroke="midnightblue" points="580.4,-313 590.4,-309.5 580.4,-306 580.4,-313"/>
</g>
<!-- Node41 -->
<g id="node39" class="node">
<title>Node41</title>
<g id="a_node39"><a xlink:href="a00509.html#a749d773136fff280e951e66e21959a6c" target="_top" xlink:title=" ">
<polygon fill="white" stroke="black" points="405,-245.5 405,-275.5 534,-275.5 534,-245.5 405,-245.5"/>
<text text-anchor="start" x="413" y="-263.5" font-family="Helvetica,sans-Serif" font-size="10.00">MiraiCP::GroupInviteEvent</text>
<text text-anchor="middle" x="469.5" y="-252.5" font-family="Helvetica,sans-Serif" font-size="10.00">::reject</text>
</a>
</g>
</g>
<!-- Node39&#45;&gt;Node41 -->
<g id="edge45" class="edge">
<title>Node39&#45;&gt;Node41</title>
<path fill="none" stroke="midnightblue" d="M610.23,-297.31C585.21,-290.72 554.09,-282.52 527.58,-275.54"/>
<polygon fill="midnightblue" stroke="midnightblue" points="609.63,-300.77 620.2,-299.94 611.42,-294 609.63,-300.77"/>
</g>
<!-- Node43 -->
<g id="node41" class="node">
<title>Node43</title>
<g id="a_node41"><a xlink:href="a00401.html#ad89a78a5c9164f1e56e895c48ee1ec22" target="_top" xlink:title="提交一个任务到线程池，参数与构造 std::thread 以及 MiraiCPNewThread 用的参数相同。 任务在线程池可用时会被立刻执行。与 promiseTask 不同，不会给出任务返回值">
<polygon fill="white" stroke="black" points="416,-196.5 416,-226.5 523,-226.5 523,-196.5 416,-196.5"/>
<text text-anchor="start" x="424" y="-214.5" font-family="Helvetica,sans-Serif" font-size="10.00">MiraiCP::ThreadTask</text>
<text text-anchor="middle" x="469.5" y="-203.5" font-family="Helvetica,sans-Serif" font-size="10.00">::addTask</text>
</a>
</g>
</g>
<!-- Node42&#45;&gt;Node43 -->
<g id="edge47" class="edge">
<title>Node42&#45;&gt;Node43</title>
<path fill="none" stroke="midnightblue" d="M593.71,-230.71C570.77,-227.13 545.08,-223.13 523.11,-219.7"/>
<polygon fill="midnightblue" stroke="midnightblue" points="593.28,-234.18 603.7,-232.27 594.36,-227.27 593.28,-234.18"/>
</g>
<!-- Node44 -->
<g id="node42" class="node">
<title>Node44</title>
<g id="a_node42"><a xlink:href="a00401.html#ab84de57ea7f15a70da47472adc87061a" target="_top" xlink:title="提交一个任务到线程池，参数与构造 std::thread 以及 MiraiCPNewThread 用的参数相同。 任务在线程池可用时会被立刻执行">
<polygon fill="white" stroke="black" points="416,-147.5 416,-177.5 523,-177.5 523,-147.5 416,-147.5"/>
<text text-anchor="start" x="424" y="-165.5" font-family="Helvetica,sans-Serif" font-size="10.00">MiraiCP::ThreadTask</text>
<text text-anchor="middle" x="469.5" y="-154.5" font-family="Helvetica,sans-Serif" font-size="10.00">::promiseTask</text>
</a>
</g>
</g>
<!-- Node42&#45;&gt;Node44 -->
<g id="edge48" class="edge">
<title>Node42&#45;&gt;Node44</title>
<path fill="none" stroke="midnightblue" d="M598.42,-221.32C595.19,-219.8 592.02,-218.19 589,-216.5 571.07,-206.47 571.16,-197.1 553,-187.5 543.74,-182.6 533.37,-178.52 523.2,-175.16"/>
<polygon fill="midnightblue" stroke="midnightblue" points="597.13,-224.57 607.69,-225.38 599.94,-218.16 597.13,-224.57"/>
</g>
<!-- Node46 -->
<g id="node44" class="node">
<title>Node46</title>
<g id="a_node44"><a xlink:href="a00545.html#a460bb7fc7e69cf313e3902ae0101b459" target="_top" xlink:title="接受好友申请">
<polygon fill="white" stroke="black" points="400,-98.5 400,-128.5 539,-128.5 539,-98.5 400,-98.5"/>
<text text-anchor="start" x="408" y="-116.5" font-family="Helvetica,sans-Serif" font-size="10.00">MiraiCP::NewFriendRequest</text>
<text text-anchor="middle" x="469.5" y="-105.5" font-family="Helvetica,sans-Serif" font-size="10.00">Event::accept</text>
</a>
</g>
</g>
<!-- Node45&#45;&gt;Node46 -->
<g id="edge50" class="edge">
<title>Node45&#45;&gt;Node46</title>
<path fill="none" stroke="midnightblue" d="M578.83,-118.16C565.63,-117.59 552.01,-117.01 539.06,-116.45"/>
<polygon fill="midnightblue" stroke="midnightblue" points="578.68,-121.66 588.82,-118.59 578.98,-114.66 578.68,-121.66"/>
</g>
<!-- Node47 -->
<g id="node45" class="node">
<title>Node47</title>
<g id="a_node45"><a xlink:href="a00545.html#a887c0777813d171d8fd4241e5d6c7357" target="_top" xlink:title="拒绝好友申请">
<polygon fill="white" stroke="black" points="400,-49.5 400,-79.5 539,-79.5 539,-49.5 400,-49.5"/>
<text text-anchor="start" x="408" y="-67.5" font-family="Helvetica,sans-Serif" font-size="10.00">MiraiCP::NewFriendRequest</text>
<text text-anchor="middle" x="469.5" y="-56.5" font-family="Helvetica,sans-Serif" font-size="10.00">Event::reject</text>
</a>
</g>
</g>
<!-- Node45&#45;&gt;Node47 -->
<g id="edge51" class="edge">
<title>Node45&#45;&gt;Node47</title>
<path fill="none" stroke="midnightblue" d="M598.51,-103.51C583.68,-98.92 567.75,-94.02 553,-89.5 542.41,-86.26 531.05,-82.8 520.25,-79.53"/>
<polygon fill="midnightblue" stroke="midnightblue" points="597.49,-106.86 608.08,-106.47 599.56,-100.17 597.49,-106.86"/>
</g>
<!-- Node49&#45;&gt;Node43 -->
<g id="edge55" class="edge">
<title>Node49&#45;&gt;Node43</title>
<path fill="none" stroke="midnightblue" d="M589.74,-198.68C567.9,-201.03 543.96,-203.6 523.3,-205.82"/>
<polygon fill="midnightblue" stroke="midnightblue" points="590.37,-202.13 599.94,-197.58 589.62,-195.17 590.37,-202.13"/>
</g>
<!-- Node49&#45;&gt;Node44 -->
<g id="edge56" class="edge">
<title>Node49&#45;&gt;Node44</title>
<path fill="none" stroke="midnightblue" d="M590.04,-181.14C568.12,-177.72 544.06,-173.97 523.3,-170.73"/>
<polygon fill="midnightblue" stroke="midnightblue" points="589.52,-184.6 599.94,-182.68 590.59,-177.68 589.52,-184.6"/>
</g>
<!-- Node50&#45;&gt;Node48 -->
<g id="edge58" class="edge">
<title>Node50&#45;&gt;Node48</title>
<path fill="none" stroke="midnightblue" d="M586.71,-15.5C565.66,-15.5 542.93,-15.5 523.19,-15.5"/>
<polygon fill="midnightblue" stroke="midnightblue" points="586.88,-19 596.88,-15.5 586.88,-12 586.88,-19"/>
</g>
<!-- Node50&#45;&gt;Node50 -->
<g id="edge59" class="edge">
<title>Node50&#45;&gt;Node50</title>
<path fill="none" stroke="midnightblue" d="M687.35,-40.96C683.65,-45.68 673.7,-49 657.5,-49 630.92,-49 621.16,-40.06 628.22,-30.66"/>
<polygon fill="midnightblue" stroke="midnightblue" points="690.83,-40.45 686.78,-30.66 683.84,-40.84 690.83,-40.45"/>
</g>
<!-- Node52&#45;&gt;Node15 -->
<g id="edge62" class="edge">
<title>Node52&#45;&gt;Node15</title>
<path fill="none" stroke="midnightblue" d="M595.91,-835.42C571.78,-842.55 544.32,-850.67 521.26,-857.49"/>
<polygon fill="midnightblue" stroke="midnightblue" points="597.08,-838.72 605.67,-832.53 595.09,-832.01 597.08,-838.72"/>
</g>
<!-- Node52&#45;&gt;Node24 -->
<g id="edge63" class="edge">
<title>Node52&#45;&gt;Node24</title>
<path fill="none" stroke="midnightblue" d="M582.92,-817.5C569.84,-817.5 556.22,-817.5 543.17,-817.5"/>
<polygon fill="midnightblue" stroke="midnightblue" points="583.27,-821 593.27,-817.5 583.27,-814 583.27,-821"/>
</g>
</g>
</svg>
