<?xml version="1.0" encoding="UTF-8" standalone="no"?>
<!DOCTYPE svg PUBLIC "-//W3C//DTD SVG 1.1//EN"
 "http://www.w3.org/Graphics/SVG/1.1/DTD/svg11.dtd">
<!-- Generated by graphviz version 2.50.0 (20211204.2007)
 -->
<!-- Title: MiraiCP::MemberData::refreshInfo Pages: 1 -->
<svg width="1737pt" height="245pt"
 viewBox="0.00 0.00 1737.00 245.00" xmlns="http://www.w3.org/2000/svg" xmlns:xlink="http://www.w3.org/1999/xlink">
<g id="graph0" class="graph" transform="scale(1 1) rotate(0) translate(4 241)">
<title>MiraiCP::MemberData::refreshInfo</title>
<polygon fill="white" stroke="transparent" points="-4,4 -4,-241 1733,-241 1733,4 -4,4"/>
<!-- Node1 -->
<g id="node1" class="node">
<title>Node1</title>
<g id="a_node1"><a xlink:title="刷新数据">
<polygon fill="#bfbfbf" stroke="black" points="0,-88.5 0,-118.5 113,-118.5 113,-88.5 0,-88.5"/>
<text text-anchor="start" x="8" y="-106.5" font-family="Helvetica,sans-Serif" font-size="10.00">MiraiCP::MemberData</text>
<text text-anchor="middle" x="56.5" y="-95.5" font-family="Helvetica,sans-Serif" font-size="10.00">::refreshInfo</text>
</a>
</g>
</g>
<!-- Node2 -->
<g id="node2" class="node">
<title>Node2</title>
<g id="a_node2"><a xlink:href="a00689.html#ad104b6f94628a14cf351ae7da993c770" target="_top" xlink:title="取该联系人的一些信息">
<polygon fill="white" stroke="black" points="161.5,-176.5 161.5,-206.5 273.5,-206.5 273.5,-176.5 161.5,-176.5"/>
<text text-anchor="start" x="169.5" y="-194.5" font-family="Helvetica,sans-Serif" font-size="10.00">MiraiCP::LowLevelAPI</text>
<text text-anchor="middle" x="217.5" y="-183.5" font-family="Helvetica,sans-Serif" font-size="10.00">::getInfoSource</text>
</a>
</g>
</g>
<!-- Node1&#45;&gt;Node2 -->
<g id="edge1" class="edge">
<title>Node1&#45;&gt;Node2</title>
<path fill="none" stroke="midnightblue" d="M79.51,-118.74C97.71,-131.03 124.46,-148.36 149,-161.5 155.92,-165.2 163.38,-168.85 170.74,-172.25"/>
<polygon fill="midnightblue" stroke="midnightblue" points="169.39,-175.49 179.95,-176.42 172.28,-169.11 169.39,-175.49"/>
</g>
<!-- Node3 -->
<g id="node3" class="node">
<title>Node3</title>
<g id="a_node3"><a xlink:href="a00313.html#a309e8d7f316e8b5e947ea3bcddeb84a8" target="_top" xlink:title="调用 Mirai 操作">
<polygon fill="white" stroke="black" points="324,-143.5 324,-173.5 433,-173.5 433,-143.5 324,-143.5"/>
<text text-anchor="start" x="332" y="-161.5" font-family="Helvetica,sans-Serif" font-size="10.00">MiraiCP::KtOperation</text>
<text text-anchor="middle" x="378.5" y="-150.5" font-family="Helvetica,sans-Serif" font-size="10.00">::ktOperation</text>
</a>
</g>
</g>
<!-- Node1&#45;&gt;Node3 -->
<g id="edge23" class="edge">
<title>Node1&#45;&gt;Node3</title>
<path fill="none" stroke="midnightblue" d="M108.02,-118.63C121.27,-122.23 135.6,-125.8 149,-128.5 204.06,-139.58 267.45,-147.53 313.47,-152.45"/>
<polygon fill="midnightblue" stroke="midnightblue" points="313.29,-155.95 323.6,-153.52 314.02,-148.99 313.29,-155.95"/>
</g>
<!-- Node15 -->
<g id="node15" class="node">
<title>Node15</title>
<g id="a_node15"><a xlink:href="a00689.html#a39064f9c2b148b3a3061f818bf237215" target="_top" xlink:title=" ">
<polygon fill="white" stroke="black" points="161.5,-88.5 161.5,-118.5 273.5,-118.5 273.5,-88.5 161.5,-88.5"/>
<text text-anchor="start" x="169.5" y="-106.5" font-family="Helvetica,sans-Serif" font-size="10.00">MiraiCP::LowLevelAPI</text>
<text text-anchor="middle" x="217.5" y="-95.5" font-family="Helvetica,sans-Serif" font-size="10.00">::info0</text>
</a>
</g>
</g>
<!-- Node1&#45;&gt;Node15 -->
<g id="edge18" class="edge">
<title>Node1&#45;&gt;Node15</title>
<path fill="none" stroke="midnightblue" d="M113.11,-103.5C125.48,-103.5 138.69,-103.5 151.4,-103.5"/>
<polygon fill="midnightblue" stroke="midnightblue" points="151.46,-107 161.46,-103.5 151.46,-100 151.46,-107"/>
</g>
<!-- Node16 -->
<g id="node16" class="node">
<title>Node16</title>
<g id="a_node16"><a xlink:href="a00319.html#a8e909c2c589f8bff34472d442909c9d7" target="_top" xlink:title=" ">
<polygon fill="white" stroke="black" points="326.5,-77.5 326.5,-107.5 430.5,-107.5 430.5,-77.5 326.5,-77.5"/>
<text text-anchor="start" x="334.5" y="-95.5" font-family="Helvetica,sans-Serif" font-size="10.00">MiraiCP::Tools::json</text>
<text text-anchor="middle" x="378.5" y="-84.5" font-family="Helvetica,sans-Serif" font-size="10.00">_stringmover</text>
</a>
</g>
</g>
<!-- Node1&#45;&gt;Node16 -->
<g id="edge22" class="edge">
<title>Node1&#45;&gt;Node16</title>
<path fill="none" stroke="midnightblue" d="M105.48,-88.45C119.38,-84.76 134.67,-81.35 149,-79.5 209.39,-71.71 225.26,-75.21 286,-79.5 295.84,-80.2 306.24,-81.31 316.35,-82.6"/>
<polygon fill="midnightblue" stroke="midnightblue" points="315.96,-86.07 326.34,-83.93 316.89,-79.14 315.96,-86.07"/>
</g>
<!-- Node17 -->
<g id="node17" class="node">
<title>Node17</title>
<g id="a_node17"><a xlink:href="a00425.html#a1b7b6643de0b824f1306b3dad3232122" target="_top" xlink:title="转为json, 由子类实现, 无锁">
<polygon fill="white" stroke="black" points="149,-0.5 149,-30.5 286,-30.5 286,-0.5 149,-0.5"/>
<text text-anchor="start" x="157" y="-18.5" font-family="Helvetica,sans-Serif" font-size="10.00">MiraiCP::GroupRelatedData</text>
<text text-anchor="middle" x="217.5" y="-7.5" font-family="Helvetica,sans-Serif" font-size="10.00">::internalToJson</text>
</a>
</g>
</g>
<!-- Node1&#45;&gt;Node17 -->
<g id="edge20" class="edge">
<title>Node1&#45;&gt;Node17</title>
<path fill="none" stroke="midnightblue" d="M79.51,-88.26C97.71,-75.97 124.46,-58.64 149,-45.5 155.92,-41.8 163.38,-38.15 170.74,-34.75"/>
<polygon fill="midnightblue" stroke="midnightblue" points="172.28,-37.89 179.95,-30.58 169.39,-31.51 172.28,-37.89"/>
</g>
<!-- Node2&#45;&gt;Node3 -->
<g id="edge2" class="edge">
<title>Node2&#45;&gt;Node3</title>
<path fill="none" stroke="midnightblue" d="M273.66,-180.05C286.6,-177.37 300.49,-174.48 313.77,-171.73"/>
<polygon fill="midnightblue" stroke="midnightblue" points="314.69,-175.11 323.77,-169.65 313.27,-168.26 314.69,-175.11"/>
</g>
<!-- Node4 -->
<g id="node4" class="node">
<title>Node4</title>
<g id="a_node4"><a xlink:href="a00313.html#a1e1e498928eeaa1d7107033ff5fa881a" target="_top" xlink:title="调用 Mirai 操作">
<polygon fill="white" stroke="black" points="471,-143.5 471,-173.5 580,-173.5 580,-143.5 471,-143.5"/>
<text text-anchor="start" x="479" y="-161.5" font-family="Helvetica,sans-Serif" font-size="10.00">MiraiCP::KtOperation</text>
<text text-anchor="middle" x="525.5" y="-150.5" font-family="Helvetica,sans-Serif" font-size="10.00">::ktOperationStr</text>
</a>
</g>
</g>
<!-- Node3&#45;&gt;Node4 -->
<g id="edge3" class="edge">
<title>Node3&#45;&gt;Node4</title>
<path fill="none" stroke="midnightblue" d="M433.08,-158.5C441.99,-158.5 451.31,-158.5 460.45,-158.5"/>
<polygon fill="midnightblue" stroke="midnightblue" points="460.66,-162 470.66,-158.5 460.66,-155 460.66,-162"/>
</g>
<!-- Node5 -->
<g id="node5" class="node">
<title>Node5</title>
<g id="a_node5"><a xlink:href="a00306.html#a89b345ec37278655b8f02d07dbb3c882" target="_top" xlink:title="interfaces for plugins">
<polygon fill="white" stroke="black" points="616,-143.5 616,-173.5 724,-173.5 724,-143.5 616,-143.5"/>
<text text-anchor="start" x="624" y="-161.5" font-family="Helvetica,sans-Serif" font-size="10.00">LibLoader::LoaderApi</text>
<text text-anchor="middle" x="670" y="-150.5" font-family="Helvetica,sans-Serif" font-size="10.00">::pluginOperation</text>
</a>
</g>
</g>
<!-- Node4&#45;&gt;Node5 -->
<g id="edge4" class="edge">
<title>Node4&#45;&gt;Node5</title>
<path fill="none" stroke="midnightblue" d="M580.37,-158.5C588.67,-158.5 597.29,-158.5 605.77,-158.5"/>
<polygon fill="midnightblue" stroke="midnightblue" points="606,-162 616,-158.5 606,-155 606,-162"/>
</g>
<!-- Node6 -->
<g id="node6" class="node">
<title>Node6</title>
<g id="a_node6"><a xlink:href="a00341.html#ab263deade385e7b5de856d061c6027e9" target="_top" xlink:title=" ">
<polygon fill="white" stroke="black" points="760,-206.5 760,-236.5 877,-236.5 877,-206.5 760,-206.5"/>
<text text-anchor="start" x="768" y="-224.5" font-family="Helvetica,sans-Serif" font-size="10.00">MiraiCP::MiraiCPString</text>
<text text-anchor="middle" x="818.5" y="-213.5" font-family="Helvetica,sans-Serif" font-size="10.00">::copyToCharPtr</text>
</a>
</g>
</g>
<!-- Node5&#45;&gt;Node6 -->
<g id="edge5" class="edge">
<title>Node5&#45;&gt;Node6</title>
<path fill="none" stroke="midnightblue" d="M706.09,-173.59C726.22,-182.25 751.69,-193.2 773.19,-202.44"/>
<polygon fill="midnightblue" stroke="midnightblue" points="771.87,-205.69 782.44,-206.42 774.64,-199.26 771.87,-205.69"/>
</g>
<!-- Node7 -->
<g id="node7" class="node">
<title>Node7</title>
<g id="a_node7"><a xlink:href="a00349.html#aea7d58ff9f04d6d4849c25a2506603a5" target="_top" xlink:title="取env,如果不存在重新获取">
<polygon fill="white" stroke="black" points="1366,-130 1366,-149 1485,-149 1485,-130 1366,-130"/>
<text text-anchor="middle" x="1425.5" y="-137" font-family="Helvetica,sans-Serif" font-size="10.00">JNIEnvManager::getEnv</text>
</a>
</g>
</g>
<!-- Node5&#45;&gt;Node7 -->
<g id="edge6" class="edge">
<title>Node5&#45;&gt;Node7</title>
<path fill="none" stroke="midnightblue" d="M724.21,-163.87C784.58,-169.49 886.02,-177.5 973.5,-177.5 973.5,-177.5 973.5,-177.5 1134.5,-177.5 1216.89,-177.5 1311.34,-162.23 1369.46,-151.05"/>
<polygon fill="midnightblue" stroke="midnightblue" points="1370.39,-154.44 1379.53,-149.09 1369.05,-147.57 1370.39,-154.44"/>
</g>
<!-- Node10 -->
<g id="node10" class="node">
<title>Node10</title>
<g id="a_node10"><a xlink:href="a00304.html#aa5f8d0ecd9dd392b491070aace643ae3" target="_top" xlink:title=" ">
<polygon fill="white" stroke="black" points="921,-130 921,-149 1028,-149 1028,-130 921,-130"/>
<text text-anchor="middle" x="974.5" y="-137" font-family="Helvetica,sans-Serif" font-size="10.00">LibLoader::jstring2str</text>
</a>
</g>
</g>
<!-- Node5&#45;&gt;Node10 -->
<g id="edge9" class="edge">
<title>Node5&#45;&gt;Node10</title>
<path fill="none" stroke="midnightblue" d="M724.04,-155.17C776.12,-151.9 855.57,-146.91 910.77,-143.44"/>
<polygon fill="midnightblue" stroke="midnightblue" points="911.02,-146.93 920.78,-142.81 910.58,-139.95 911.02,-146.93"/>
</g>
<!-- Node12 -->
<g id="node12" class="node">
<title>Node12</title>
<g id="a_node12"><a xlink:href="a00304.html#a6a6fcd695791253a9b3a053d313b2b93" target="_top" xlink:title=" ">
<polygon fill="white" stroke="black" points="765,-70 765,-89 872,-89 872,-70 765,-70"/>
<text text-anchor="middle" x="818.5" y="-77" font-family="Helvetica,sans-Serif" font-size="10.00">LibLoader::str2jstring</text>
</a>
</g>
</g>
<!-- Node5&#45;&gt;Node12 -->
<g id="edge12" class="edge">
<title>Node5&#45;&gt;Node12</title>
<path fill="none" stroke="midnightblue" d="M698.9,-143.45C725.37,-129.18 764.87,-107.88 790.9,-93.84"/>
<polygon fill="midnightblue" stroke="midnightblue" points="792.69,-96.85 799.83,-89.03 789.37,-90.69 792.69,-96.85"/>
</g>
<!-- Node8 -->
<g id="node8" class="node">
<title>Node8</title>
<g id="a_node8"><a xlink:href="a00197.html#a3d31403b7971274d47d308245206bd24" target="_top" xlink:title="为当前线程创建一个env.">
<polygon fill="white" stroke="black" points="1521,-130 1521,-149 1571,-149 1571,-130 1521,-130"/>
<text text-anchor="middle" x="1546" y="-137" font-family="Helvetica,sans-Serif" font-size="10.00">newEnv</text>
</a>
</g>
</g>
<!-- Node7&#45;&gt;Node8 -->
<g id="edge7" class="edge">
<title>Node7&#45;&gt;Node8</title>
<path fill="none" stroke="midnightblue" d="M1485.06,-139.5C1493.89,-139.5 1502.75,-139.5 1510.85,-139.5"/>
<polygon fill="midnightblue" stroke="midnightblue" points="1510.98,-143 1520.98,-139.5 1510.98,-136 1510.98,-143"/>
</g>
<!-- Node9 -->
<g id="node9" class="node">
<title>Node9</title>
<g id="a_node9"><a xlink:href="a00349.html#ae0e482c6a813848a8f5d34957d1b6307" target="_top" xlink:title="获取全局JavaVM对象.">
<polygon fill="white" stroke="black" points="1607,-130 1607,-149 1729,-149 1729,-130 1607,-130"/>
<text text-anchor="middle" x="1668" y="-137" font-family="Helvetica,sans-Serif" font-size="10.00">JNIEnvManager::getGvm</text>
</a>
</g>
</g>
<!-- Node8&#45;&gt;Node9 -->
<g id="edge8" class="edge">
<title>Node8&#45;&gt;Node9</title>
<path fill="none" stroke="midnightblue" d="M1571.28,-139.5C1578.75,-139.5 1587.37,-139.5 1596.32,-139.5"/>
<polygon fill="midnightblue" stroke="midnightblue" points="1596.52,-143 1606.52,-139.5 1596.52,-136 1596.52,-143"/>
</g>
<!-- Node11 -->
<g id="node11" class="node">
<title>Node11</title>
<g id="a_node11"><a xlink:href="a00309.html#a076c5f4ff8083c7cfc6523498d0ba30f" target="_top" xlink:title=" ">
<polygon fill="white" stroke="black" points="1231,-102.5 1231,-132.5 1330,-132.5 1330,-102.5 1231,-102.5"/>
<text text-anchor="start" x="1239" y="-120.5" font-family="Helvetica,sans-Serif" font-size="10.00">LibLoader::JNIEnvs</text>
<text text-anchor="middle" x="1280.5" y="-109.5" font-family="Helvetica,sans-Serif" font-size="10.00">::getEnv</text>
</a>
</g>
</g>
<!-- Node10&#45;&gt;Node11 -->
<g id="edge10" class="edge">
<title>Node10&#45;&gt;Node11</title>
<path fill="none" stroke="midnightblue" d="M1028.11,-135.69C1081.7,-131.81 1164.65,-125.81 1220.46,-121.77"/>
<polygon fill="midnightblue" stroke="midnightblue" points="1220.83,-125.26 1230.55,-121.04 1220.32,-118.27 1220.83,-125.26"/>
</g>
<!-- Node11&#45;&gt;Node7 -->
<g id="edge11" class="edge">
<title>Node11&#45;&gt;Node7</title>
<path fill="none" stroke="midnightblue" d="M1330.31,-125.01C1338.51,-126.27 1347.16,-127.6 1355.75,-128.92"/>
<polygon fill="midnightblue" stroke="midnightblue" points="1355.36,-132.4 1365.78,-130.47 1356.43,-125.49 1355.36,-132.4"/>
</g>
<!-- Node12&#45;&gt;Node11 -->
<g id="edge13" class="edge">
<title>Node12&#45;&gt;Node11</title>
<path fill="none" stroke="midnightblue" d="M872.27,-83.86C958.84,-91.01 1130.43,-105.19 1220.75,-112.65"/>
<polygon fill="midnightblue" stroke="midnightblue" points="1220.57,-116.14 1230.82,-113.48 1221.14,-109.17 1220.57,-116.14"/>
</g>
<!-- Node13 -->
<g id="node13" class="node">
<title>Node13</title>
<g id="a_node13"><a xlink:href="a00381.html#af50d0545fe7d683e54fcd03453a423e3" target="_top" xlink:title=" ">
<polygon fill="white" stroke="black" points="913,-42.5 913,-72.5 1036,-72.5 1036,-42.5 913,-42.5"/>
<text text-anchor="start" x="921" y="-60.5" font-family="Helvetica,sans-Serif" font-size="10.00">LibLoader::LoaderLogger</text>
<text text-anchor="middle" x="974.5" y="-49.5" font-family="Helvetica,sans-Serif" font-size="10.00">::warning</text>
</a>
</g>
</g>
<!-- Node12&#45;&gt;Node13 -->
<g id="edge14" class="edge">
<title>Node12&#45;&gt;Node13</title>
<path fill="none" stroke="midnightblue" d="M872.07,-71.99C882.04,-70.57 892.62,-69.05 903.04,-67.57"/>
<polygon fill="midnightblue" stroke="midnightblue" points="903.55,-71.03 912.95,-66.15 902.56,-64.1 903.55,-71.03"/>
</g>
<!-- Node14 -->
<g id="node14" class="node">
<title>Node14</title>
<g id="a_node14"><a xlink:href="a00381.html#af4d7d5164450e25f7401d1cc15f15b8d" target="_top" xlink:title="实际暴露的接口">
<polygon fill="white" stroke="black" points="1072,-42.5 1072,-72.5 1195,-72.5 1195,-42.5 1072,-42.5"/>
<text text-anchor="start" x="1080" y="-60.5" font-family="Helvetica,sans-Serif" font-size="10.00">LibLoader::LoaderLogger</text>
<text text-anchor="middle" x="1133.5" y="-49.5" font-family="Helvetica,sans-Serif" font-size="10.00">::call_logger</text>
</a>
</g>
</g>
<!-- Node13&#45;&gt;Node14 -->
<g id="edge15" class="edge">
<title>Node13&#45;&gt;Node14</title>
<path fill="none" stroke="midnightblue" d="M1036.2,-57.5C1044.64,-57.5 1053.36,-57.5 1061.95,-57.5"/>
<polygon fill="midnightblue" stroke="midnightblue" points="1061.96,-61 1071.96,-57.5 1061.96,-54 1061.96,-61"/>
</g>
<!-- Node14&#45;&gt;Node11 -->
<g id="edge16" class="edge">
<title>Node14&#45;&gt;Node11</title>
<path fill="none" stroke="midnightblue" d="M1171.09,-72.64C1190.14,-80.52 1213.61,-90.24 1233.84,-98.61"/>
<polygon fill="midnightblue" stroke="midnightblue" points="1232.6,-101.88 1243.17,-102.47 1235.27,-95.41 1232.6,-101.88"/>
</g>
<!-- Node14&#45;&gt;Node12 -->
<g id="edge17" class="edge">
<title>Node14&#45;&gt;Node12</title>
<path fill="none" stroke="midnightblue" d="M1083.97,-42.49C1039.11,-30.84 970.84,-18.78 913,-32.5 886.99,-38.67 859.99,-53.27 841.73,-64.58"/>
<polygon fill="midnightblue" stroke="midnightblue" points="839.83,-61.64 833.27,-69.97 843.59,-67.55 839.83,-61.64"/>
</g>
<!-- Node15&#45;&gt;Node16 -->
<g id="edge19" class="edge">
<title>Node15&#45;&gt;Node16</title>
<path fill="none" stroke="midnightblue" d="M273.66,-99.68C287.45,-98.73 302.32,-97.7 316.37,-96.73"/>
<polygon fill="midnightblue" stroke="midnightblue" points="316.7,-100.21 326.44,-96.03 316.22,-93.23 316.7,-100.21"/>
</g>
<!-- Node18 -->
<g id="node18" class="node">
<title>Node18</title>
<g id="a_node18"><a xlink:href="a00421.html#af673a2e404372cc90719f38b9cced144" target="_top" xlink:title="转为json, 由子类实现, 无锁">
<polygon fill="white" stroke="black" points="322,-0.5 322,-30.5 435,-30.5 435,-0.5 322,-0.5"/>
<text text-anchor="start" x="330" y="-18.5" font-family="Helvetica,sans-Serif" font-size="10.00">MiraiCP::IContactData</text>
<text text-anchor="middle" x="378.5" y="-7.5" font-family="Helvetica,sans-Serif" font-size="10.00">::internalToJson</text>
</a>
</g>
</g>
<!-- Node17&#45;&gt;Node18 -->
<g id="edge21" class="edge">
<title>Node17&#45;&gt;Node18</title>
<path fill="none" stroke="midnightblue" d="M286.39,-15.5C294.79,-15.5 303.37,-15.5 311.74,-15.5"/>
<polygon fill="midnightblue" stroke="midnightblue" points="311.82,-19 321.82,-15.5 311.82,-12 311.82,-19"/>
</g>
</g>
</svg>
