<?xml version="1.0" encoding="UTF-8" standalone="no"?>
<!DOCTYPE svg PUBLIC "-//W3C//DTD SVG 1.1//EN"
 "http://www.w3.org/Graphics/SVG/1.1/DTD/svg11.dtd">
<!-- Generated by graphviz version 2.50.0 (20211204.2007)
 -->
<!-- Title: MiraiCP::MemberData Pages: 1 -->
<svg width="459pt" height="965pt"
 viewBox="0.00 0.00 458.50 965.00" xmlns="http://www.w3.org/2000/svg" xmlns:xlink="http://www.w3.org/1999/xlink">
<g id="graph0" class="graph" transform="scale(1 1) rotate(0) translate(4 961)">
<title>MiraiCP::MemberData</title>
<polygon fill="white" stroke="transparent" points="-4,4 -4,-961 454.5,-961 454.5,4 -4,4"/>
<!-- Node1 -->
<g id="node1" class="node">
<title>Node1</title>
<g id="a_node1"><a xlink:title="Member数据声明">
<polygon fill="#bfbfbf" stroke="black" points="223,-0.5 223,-112.5 360,-112.5 360,-0.5 223,-0.5"/>
<text text-anchor="middle" x="291.5" y="-100.5" font-family="Helvetica,sans-Serif" font-size="10.00">MiraiCP::MemberData</text>
<polyline fill="none" stroke="black" points="223,-93.5 360,-93.5 "/>
<text text-anchor="middle" x="291.5" y="-81.5" font-family="Helvetica,sans-Serif" font-size="10.00"> </text>
<polyline fill="none" stroke="black" points="223,-74.5 360,-74.5 "/>
<text text-anchor="start" x="231" y="-62.5" font-family="Helvetica,sans-Serif" font-size="10.00">+ MemberData(QQID in</text>
<text text-anchor="start" x="231" y="-51.5" font-family="Helvetica,sans-Serif" font-size="10.00">_groupid)</text>
<text text-anchor="start" x="231" y="-40.5" font-family="Helvetica,sans-Serif" font-size="10.00">+ void deserialize(nlohmann</text>
<text text-anchor="start" x="231" y="-29.5" font-family="Helvetica,sans-Serif" font-size="10.00">::json in_json) override</text>
<text text-anchor="start" x="231" y="-18.5" font-family="Helvetica,sans-Serif" font-size="10.00">+ void refreshInfo()</text>
<text text-anchor="start" x="231" y="-7.5" font-family="Helvetica,sans-Serif" font-size="10.00"> override</text>
</a>
</g>
</g>
<!-- Node2 -->
<g id="node2" class="node">
<title>Node2</title>
<g id="a_node2"><a xlink:href="a00425.html" target="_top" xlink:title=" ">
<polygon fill="white" stroke="black" points="165,-160.5 165,-250.5 302,-250.5 302,-160.5 165,-160.5"/>
<text text-anchor="middle" x="233.5" y="-238.5" font-family="Helvetica,sans-Serif" font-size="10.00">MiraiCP::GroupRelatedData</text>
<polyline fill="none" stroke="black" points="165,-231.5 302,-231.5 "/>
<text text-anchor="middle" x="233.5" y="-219.5" font-family="Helvetica,sans-Serif" font-size="10.00"> </text>
<polyline fill="none" stroke="black" points="165,-212.5 302,-212.5 "/>
<text text-anchor="start" x="173" y="-200.5" font-family="Helvetica,sans-Serif" font-size="10.00">+ nlohmann::json internalTo</text>
<text text-anchor="start" x="173" y="-189.5" font-family="Helvetica,sans-Serif" font-size="10.00">Json() const override</text>
<text text-anchor="start" x="173" y="-178.5" font-family="Helvetica,sans-Serif" font-size="10.00">+ GroupRelatedData(QQID</text>
<text text-anchor="start" x="173" y="-167.5" font-family="Helvetica,sans-Serif" font-size="10.00"> in_groupid)</text>
</a>
</g>
</g>
<!-- Node2&#45;&gt;Node1 -->
<g id="edge1" class="edge">
<title>Node2&#45;&gt;Node1</title>
<path fill="none" stroke="midnightblue" d="M254.61,-151C259.55,-138.48 264.82,-125.11 269.79,-112.52"/>
<polygon fill="none" stroke="midnightblue" points="251.32,-149.81 250.9,-160.4 257.83,-152.38 251.32,-149.81"/>
</g>
<!-- Node3 -->
<g id="node3" class="node">
<title>Node3</title>
<g id="a_node3"><a xlink:href="a00421.html" target="_top" xlink:title="Contact 内部储存数据抽象类">
<polygon fill="white" stroke="black" points="163.5,-298.5 163.5,-432.5 303.5,-432.5 303.5,-298.5 163.5,-298.5"/>
<text text-anchor="middle" x="233.5" y="-420.5" font-family="Helvetica,sans-Serif" font-size="10.00">MiraiCP::IContactData</text>
<polyline fill="none" stroke="black" points="163.5,-413.5 303.5,-413.5 "/>
<text text-anchor="middle" x="233.5" y="-401.5" font-family="Helvetica,sans-Serif" font-size="10.00"> </text>
<polyline fill="none" stroke="black" points="163.5,-394.5 303.5,-394.5 "/>
<text text-anchor="start" x="171.5" y="-382.5" font-family="Helvetica,sans-Serif" font-size="10.00">+ void deserialize(nlohmann</text>
<text text-anchor="start" x="171.5" y="-371.5" font-family="Helvetica,sans-Serif" font-size="10.00">::json inJson) override</text>
<text text-anchor="start" x="171.5" y="-360.5" font-family="Helvetica,sans-Serif" font-size="10.00">+ nlohmann::json internalTo</text>
<text text-anchor="start" x="171.5" y="-349.5" font-family="Helvetica,sans-Serif" font-size="10.00">Json() const override</text>
<text text-anchor="start" x="171.5" y="-338.5" font-family="Helvetica,sans-Serif" font-size="10.00">+ void refreshInfo()</text>
<text text-anchor="start" x="171.5" y="-327.5" font-family="Helvetica,sans-Serif" font-size="10.00"> override</text>
<text text-anchor="start" x="171.5" y="-316.5" font-family="Helvetica,sans-Serif" font-size="10.00">+ void updateJson(nlohmann</text>
<text text-anchor="start" x="171.5" y="-305.5" font-family="Helvetica,sans-Serif" font-size="10.00">::json &amp;jsonToUpdate) const</text>
</a>
</g>
</g>
<!-- Node3&#45;&gt;Node2 -->
<g id="edge2" class="edge">
<title>Node3&#45;&gt;Node2</title>
<path fill="none" stroke="midnightblue" d="M233.5,-288.17C233.5,-275.35 233.5,-262.43 233.5,-250.77"/>
<polygon fill="none" stroke="midnightblue" points="230,-288.41 233.5,-298.41 237,-288.41 230,-288.41"/>
</g>
<!-- Node4 -->
<g id="node4" class="node">
<title>Node4</title>
<g id="a_node4"><a xlink:href="a00665.html" target="_top" xlink:title="声明 Contact 类数据安全锁接口以及部分实现的抽象类">
<polygon fill="white" stroke="black" points="59.5,-491.5 59.5,-735.5 205.5,-735.5 205.5,-491.5 59.5,-491.5"/>
<text text-anchor="middle" x="132.5" y="-723.5" font-family="Helvetica,sans-Serif" font-size="10.00">MiraiCP::IMiraiData</text>
<polyline fill="none" stroke="black" points="59.5,-716.5 205.5,-716.5 "/>
<text text-anchor="middle" x="132.5" y="-704.5" font-family="Helvetica,sans-Serif" font-size="10.00"> </text>
<polyline fill="none" stroke="black" points="59.5,-697.5 205.5,-697.5 "/>
<text text-anchor="start" x="67.5" y="-685.5" font-family="Helvetica,sans-Serif" font-size="10.00">+ IMiraiData()=default</text>
<text text-anchor="start" x="67.5" y="-674.5" font-family="Helvetica,sans-Serif" font-size="10.00">+ virtual ~IMiraiData</text>
<text text-anchor="start" x="67.5" y="-663.5" font-family="Helvetica,sans-Serif" font-size="10.00">()=default</text>
<text text-anchor="start" x="67.5" y="-652.5" font-family="Helvetica,sans-Serif" font-size="10.00">+ nlohmann::json toJson</text>
<text text-anchor="start" x="67.5" y="-641.5" font-family="Helvetica,sans-Serif" font-size="10.00">() const</text>
<text text-anchor="start" x="67.5" y="-630.5" font-family="Helvetica,sans-Serif" font-size="10.00">+ void requestRefresh()</text>
<text text-anchor="start" x="67.5" y="-619.5" font-family="Helvetica,sans-Serif" font-size="10.00">+ void forceRefreshNextTime()</text>
<text text-anchor="start" x="67.5" y="-608.5" font-family="Helvetica,sans-Serif" font-size="10.00">+ std::string toString</text>
<text text-anchor="start" x="67.5" y="-597.5" font-family="Helvetica,sans-Serif" font-size="10.00">() const</text>
<text text-anchor="start" x="67.5" y="-586.5" font-family="Helvetica,sans-Serif" font-size="10.00">+ std::shared_mutex &amp;</text>
<text text-anchor="start" x="67.5" y="-575.5" font-family="Helvetica,sans-Serif" font-size="10.00"> getMutex()</text>
<text text-anchor="start" x="67.5" y="-564.5" font-family="Helvetica,sans-Serif" font-size="10.00"># virtual void deserialize</text>
<text text-anchor="start" x="67.5" y="-553.5" font-family="Helvetica,sans-Serif" font-size="10.00">(nlohmann::json in_json)=0</text>
<text text-anchor="start" x="67.5" y="-542.5" font-family="Helvetica,sans-Serif" font-size="10.00"># virtual nlohmann::json</text>
<text text-anchor="start" x="67.5" y="-531.5" font-family="Helvetica,sans-Serif" font-size="10.00"> internalToJson() const =0</text>
<text text-anchor="start" x="67.5" y="-520.5" font-family="Helvetica,sans-Serif" font-size="10.00"># nlohmann::json internalTo</text>
<text text-anchor="start" x="67.5" y="-509.5" font-family="Helvetica,sans-Serif" font-size="10.00">String() const</text>
<text text-anchor="start" x="67.5" y="-498.5" font-family="Helvetica,sans-Serif" font-size="10.00">&#45; virtual void refreshInfo()=0</text>
</a>
</g>
</g>
<!-- Node4&#45;&gt;Node3 -->
<g id="edge3" class="edge">
<title>Node4&#45;&gt;Node3</title>
<path fill="none" stroke="midnightblue" d="M186.16,-481.81C193.16,-464.75 200.08,-447.89 206.38,-432.54"/>
<polygon fill="none" stroke="midnightblue" points="182.82,-480.72 182.26,-491.3 189.3,-483.38 182.82,-480.72"/>
</g>
<!-- Node5 -->
<g id="node5" class="node">
<title>Node5</title>
<g id="a_node5"><a xlink:href="a00669.html" target="_top" xlink:title="锁">
<polygon fill="white" stroke="black" points="82,-783.5 82,-851.5 183,-851.5 183,-783.5 82,-783.5"/>
<text text-anchor="start" x="90" y="-839.5" font-family="Helvetica,sans-Serif" font-size="10.00">MiraiCP::IMiraiData</text>
<text text-anchor="middle" x="132.5" y="-828.5" font-family="Helvetica,sans-Serif" font-size="10.00">::MiraiDataLocker</text>
<polyline fill="none" stroke="black" points="82,-821.5 183,-821.5 "/>
<text text-anchor="middle" x="132.5" y="-809.5" font-family="Helvetica,sans-Serif" font-size="10.00"> </text>
<polyline fill="none" stroke="black" points="82,-802.5 183,-802.5 "/>
<text text-anchor="middle" x="132.5" y="-790.5" font-family="Helvetica,sans-Serif" font-size="10.00"> </text>
</a>
</g>
</g>
<!-- Node5&#45;&gt;Node4 -->
<g id="edge4" class="edge">
<title>Node5&#45;&gt;Node4</title>
<path fill="none" stroke="#404040" d="M132.5,-783.14C132.5,-772.76 132.5,-760.62 132.5,-747.69"/>
<polygon fill="none" stroke="#404040" points="132.5,-747.62 128.5,-741.62 132.5,-735.62 136.5,-741.62 132.5,-747.62"/>
<text text-anchor="middle" x="151.5" y="-757" font-family="Helvetica,sans-Serif" font-size="10.00"> #Locker</text>
</g>
<!-- Node6 -->
<g id="node6" class="node">
<title>Node6</title>
<g id="a_node6"><a xlink:title=" ">
<polygon fill="white" stroke="#bfbfbf" points="52.5,-899.5 52.5,-956.5 130.5,-956.5 130.5,-899.5 52.5,-899.5"/>
<text text-anchor="middle" x="91.5" y="-944.5" font-family="Helvetica,sans-Serif" font-size="10.00">shared_mutex</text>
<polyline fill="none" stroke="#bfbfbf" points="52.5,-937.5 130.5,-937.5 "/>
<text text-anchor="middle" x="91.5" y="-925.5" font-family="Helvetica,sans-Serif" font-size="10.00"> </text>
<polyline fill="none" stroke="#bfbfbf" points="52.5,-918.5 130.5,-918.5 "/>
<text text-anchor="middle" x="91.5" y="-906.5" font-family="Helvetica,sans-Serif" font-size="10.00"> </text>
</a>
</g>
</g>
<!-- Node6&#45;&gt;Node5 -->
<g id="edge5" class="edge">
<title>Node6&#45;&gt;Node5</title>
<path fill="none" stroke="#404040" d="M101.95,-899.34C106.12,-888.3 111.03,-875.31 115.68,-863.01"/>
<polygon fill="none" stroke="#404040" points="115.78,-862.74 114.16,-855.72 120.02,-851.52 121.64,-858.55 115.78,-862.74"/>
<text text-anchor="middle" x="128" y="-873" font-family="Helvetica,sans-Serif" font-size="10.00"> +_mtx</text>
</g>
<!-- Node7 -->
<g id="node7" class="node">
<title>Node7</title>
<g id="a_node7"><a xlink:title=" ">
<polygon fill="white" stroke="#bfbfbf" points="148.5,-899.5 148.5,-956.5 200.5,-956.5 200.5,-899.5 148.5,-899.5"/>
<text text-anchor="middle" x="174.5" y="-944.5" font-family="Helvetica,sans-Serif" font-size="10.00">atomic&lt;</text>
<polyline fill="none" stroke="#bfbfbf" points="148.5,-937.5 200.5,-937.5 "/>
<text text-anchor="middle" x="174.5" y="-925.5" font-family="Helvetica,sans-Serif" font-size="10.00"> </text>
<polyline fill="none" stroke="#bfbfbf" points="148.5,-918.5 200.5,-918.5 "/>
<text text-anchor="middle" x="174.5" y="-906.5" font-family="Helvetica,sans-Serif" font-size="10.00"> </text>
</a>
</g>
</g>
<!-- Node7&#45;&gt;Node5 -->
<g id="edge6" class="edge">
<title>Node7&#45;&gt;Node5</title>
<path fill="none" stroke="#404040" d="M163.79,-899.34C159.52,-888.3 154.49,-875.31 149.73,-863.01"/>
<polygon fill="none" stroke="#404040" points="149.61,-862.71 143.72,-858.56 145.28,-851.52 151.18,-855.67 149.61,-862.71"/>
<text text-anchor="middle" x="175.5" y="-873" font-family="Helvetica,sans-Serif" font-size="10.00"> +_inited</text>
</g>
<!-- Node8 -->
<g id="node8" class="node">
<title>Node8</title>
<g id="a_node8"><a xlink:title=" ">
<polygon fill="white" stroke="#bfbfbf" points="0,-585 0,-642 41,-642 41,-585 0,-585"/>
<text text-anchor="middle" x="20.5" y="-630" font-family="Helvetica,sans-Serif" font-size="10.00">string</text>
<polyline fill="none" stroke="#bfbfbf" points="0,-623 41,-623 "/>
<text text-anchor="middle" x="20.5" y="-611" font-family="Helvetica,sans-Serif" font-size="10.00"> </text>
<polyline fill="none" stroke="#bfbfbf" points="0,-604 41,-604 "/>
<text text-anchor="middle" x="20.5" y="-592" font-family="Helvetica,sans-Serif" font-size="10.00"> </text>
</a>
</g>
</g>
<!-- Node8&#45;&gt;Node1 -->
<g id="edge12" class="edge">
<title>Node8&#45;&gt;Node1</title>
<path fill="none" stroke="#404040" d="M22.58,-584.85C29.42,-509.79 56.84,-298.58 155.5,-160 170.75,-138.58 191.81,-119.68 212.81,-104.12"/>
<polygon fill="none" stroke="#404040" points="213.01,-103.98 215.55,-97.24 222.76,-96.99 220.21,-103.74 213.01,-103.98"/>
<text text-anchor="middle" x="127.5" y="-272" font-family="Helvetica,sans-Serif" font-size="10.00"> +_specialTitle</text>
</g>
<!-- Node8&#45;&gt;Node3 -->
<g id="edge7" class="edge">
<title>Node8&#45;&gt;Node3</title>
<path fill="none" stroke="#404040" d="M22.12,-584.86C24.79,-558.79 31.85,-519.56 50.5,-491 75.17,-453.23 115.71,-423.91 152.36,-403.25"/>
<polygon fill="none" stroke="#404040" points="152.56,-403.14 155.9,-396.75 163.09,-397.38 159.74,-403.77 152.56,-403.14"/>
<text text-anchor="middle" x="124.5" y="-465" font-family="Helvetica,sans-Serif" font-size="10.00"> +_avatarUrl</text>
<text text-anchor="middle" x="124.5" y="-454" font-family="Helvetica,sans-Serif" font-size="10.00">+_nickOrNameCard</text>
</g>
<!-- Node9 -->
<g id="node9" class="node">
<title>Node9</title>
<g id="a_node9"><a xlink:title=" ">
<polygon fill="white" stroke="#bfbfbf" points="313.5,-585 313.5,-642 411.5,-642 411.5,-585 313.5,-585"/>
<text text-anchor="middle" x="362.5" y="-630" font-family="Helvetica,sans-Serif" font-size="10.00">unsigned long long</text>
<polyline fill="none" stroke="#bfbfbf" points="313.5,-623 411.5,-623 "/>
<text text-anchor="middle" x="362.5" y="-611" font-family="Helvetica,sans-Serif" font-size="10.00"> </text>
<polyline fill="none" stroke="#bfbfbf" points="313.5,-604 411.5,-604 "/>
<text text-anchor="middle" x="362.5" y="-592" font-family="Helvetica,sans-Serif" font-size="10.00"> </text>
</a>
</g>
</g>
<!-- Node9&#45;&gt;Node2 -->
<g id="edge10" class="edge">
<title>Node9&#45;&gt;Node2</title>
<path fill="none" stroke="#404040" d="M363.07,-584.96C363.21,-528.42 358.16,-396.27 312.5,-298 306.35,-284.77 297.71,-271.97 288.4,-260.35"/>
<polygon fill="none" stroke="#404040" points="288.16,-260.08 281.24,-258.05 280.45,-250.89 287.37,-252.91 288.16,-260.08"/>
<text text-anchor="middle" x="373.5" y="-363" font-family="Helvetica,sans-Serif" font-size="10.00"> +_groupId</text>
</g>
<!-- Node9&#45;&gt;Node3 -->
<g id="edge8" class="edge">
<title>Node9&#45;&gt;Node3</title>
<path fill="none" stroke="#404040" d="M349.82,-584.77C338.36,-560 320.83,-522.82 304.5,-491 295.24,-472.95 292.48,-468.67 282.5,-451 281.09,-448.51 279.66,-445.98 278.21,-443.42"/>
<polygon fill="none" stroke="#404040" points="278.11,-443.26 271.66,-440.04 272.16,-432.84 278.61,-436.07 278.11,-443.26"/>
<text text-anchor="middle" x="312.5" y="-465" font-family="Helvetica,sans-Serif" font-size="10.00"> +_botId</text>
<text text-anchor="middle" x="312.5" y="-454" font-family="Helvetica,sans-Serif" font-size="10.00">+_id</text>
</g>
<!-- Node10 -->
<g id="node10" class="node">
<title>Node10</title>
<g id="a_node10"><a xlink:title=" ">
<polygon fill="white" stroke="#bfbfbf" points="224,-585 224,-642 295,-642 295,-585 224,-585"/>
<text text-anchor="middle" x="259.5" y="-630" font-family="Helvetica,sans-Serif" font-size="10.00">ContactType</text>
<polyline fill="none" stroke="#bfbfbf" points="224,-623 295,-623 "/>
<text text-anchor="middle" x="259.5" y="-611" font-family="Helvetica,sans-Serif" font-size="10.00"> </text>
<polyline fill="none" stroke="#bfbfbf" points="224,-604 295,-604 "/>
<text text-anchor="middle" x="259.5" y="-592" font-family="Helvetica,sans-Serif" font-size="10.00"> </text>
</a>
</g>
</g>
<!-- Node10&#45;&gt;Node3 -->
<g id="edge9" class="edge">
<title>Node10&#45;&gt;Node3</title>
<path fill="none" stroke="#404040" d="M256.57,-584.76C253,-550.99 246.82,-492.55 241.76,-444.63"/>
<polygon fill="none" stroke="#404040" points="241.76,-444.63 237.15,-439.08 240.5,-432.69 245.1,-438.24 241.76,-444.63"/>
<text text-anchor="middle" x="261.5" y="-459.5" font-family="Helvetica,sans-Serif" font-size="10.00"> +_type</text>
</g>
<!-- Node11 -->
<g id="node11" class="node">
<title>Node11</title>
<g id="a_node11"><a xlink:title=" ">
<polygon fill="white" stroke="#bfbfbf" points="320,-177 320,-234 349,-234 349,-177 320,-177"/>
<text text-anchor="middle" x="334.5" y="-222" font-family="Helvetica,sans-Serif" font-size="10.00">int</text>
<polyline fill="none" stroke="#bfbfbf" points="320,-215 349,-215 "/>
<text text-anchor="middle" x="334.5" y="-203" font-family="Helvetica,sans-Serif" font-size="10.00"> </text>
<polyline fill="none" stroke="#bfbfbf" points="320,-196 349,-196 "/>
<text text-anchor="middle" x="334.5" y="-184" font-family="Helvetica,sans-Serif" font-size="10.00"> </text>
</a>
</g>
</g>
<!-- Node11&#45;&gt;Node1 -->
<g id="edge11" class="edge">
<title>Node11&#45;&gt;Node1</title>
<path fill="none" stroke="#404040" d="M326.41,-176.85C322.06,-161.98 316.49,-142.93 311.08,-124.44"/>
<polygon fill="none" stroke="#404040" points="311.03,-124.25 305.5,-119.61 307.66,-112.73 313.18,-117.37 311.03,-124.25"/>
<text text-anchor="middle" x="346.5" y="-134" font-family="Helvetica,sans-Serif" font-size="10.00"> +_permission</text>
</g>
<!-- Node12 -->
<g id="node12" class="node">
<title>Node12</title>
<g id="a_node12"><a xlink:title=" ">
<polygon fill="white" stroke="#bfbfbf" points="384,-177 384,-234 419,-234 419,-177 384,-177"/>
<text text-anchor="middle" x="401.5" y="-222" font-family="Helvetica,sans-Serif" font-size="10.00">bool</text>
<polyline fill="none" stroke="#bfbfbf" points="384,-215 419,-215 "/>
<text text-anchor="middle" x="401.5" y="-203" font-family="Helvetica,sans-Serif" font-size="10.00"> </text>
<polyline fill="none" stroke="#bfbfbf" points="384,-196 419,-196 "/>
<text text-anchor="middle" x="401.5" y="-184" font-family="Helvetica,sans-Serif" font-size="10.00"> </text>
</a>
</g>
</g>
<!-- Node12&#45;&gt;Node1 -->
<g id="edge13" class="edge">
<title>Node12&#45;&gt;Node1</title>
<path fill="none" stroke="#404040" d="M397.16,-176.67C393.95,-162.18 388.52,-144.68 379.5,-131 376.16,-125.94 372.37,-121.04 368.28,-116.33"/>
<polygon fill="none" stroke="#404040" points="368.28,-116.33 361.26,-114.66 360.1,-107.54 367.11,-109.21 368.28,-116.33"/>
<text text-anchor="middle" x="418" y="-134" font-family="Helvetica,sans-Serif" font-size="10.00"> +_anonymous</text>
</g>
</g>
</svg>
