<?xml version="1.0" encoding="UTF-8" standalone="no"?>
<!DOCTYPE svg PUBLIC "-//W3C//DTD SVG 1.1//EN"
 "http://www.w3.org/Graphics/SVG/1.1/DTD/svg11.dtd">
<!-- Generated by graphviz version 9.0.0 (0)
 -->
<!-- Title: MiraiCP::OperationMessage Pages: 1 -->
<svg width="171pt" height="489pt"
 viewBox="0.00 0.00 171.25 489.00" xmlns="http://www.w3.org/2000/svg" xmlns:xlink="http://www.w3.org/1999/xlink">
<g id="graph0" class="graph" transform="scale(1 1) rotate(0) translate(4 485)">
<title>MiraiCP::OperationMessage</title>
<!-- Node1 -->
<g id="Node000001" class="node">
<title>Node1</title>
<g id="a_Node000001"><a xlink:title=" ">
<polygon fill="#999999" stroke="none" points="133,-64 0,-64 0,0 133,0 133,-64"/>
<text text-anchor="start" x="5" y="-50.5" font-family="Helvetica,sans-Serif" font-size="10.00">MiraiCP::OperationMessage</text>
<text text-anchor="start" x="7" y="-34.5" font-family="Helvetica,sans-Serif" font-size="10.00">+</text>
<text text-anchor="start" x="20" y="-34.5" font-family="Helvetica,sans-Serif" font-size="10.00">MiraiCPStringview msg</text>
<text text-anchor="start" x="20" y="-22.5" font-family="Helvetica,sans-Serif" font-size="10.00">_string</text>
<text text-anchor="start" x="65" y="-6.5" font-family="Helvetica,sans-Serif" font-size="10.00"> </text>
<polygon fill="#666666" stroke="#666666" points="0,-46 0,-46 133,-46 133,-46 0,-46"/>
<polygon fill="#666666" stroke="#666666" points="0,-18 0,-18 18,-18 18,-18 0,-18"/>
<polygon fill="#666666" stroke="#666666" points="18,-18 18,-18 133,-18 133,-18 18,-18"/>
<polygon fill="none" stroke="#666666" points="0,0 0,-64 133,-64 133,0 0,0"/>
</a>
</g>
</g>
<!-- Node2 -->
<g id="Node000002" class="node">
<title>Node2</title>
<g id="a_Node000002"><a xlink:href="a00788.html" target="_top" xlink:title=" ">
<polygon fill="white" stroke="none" points="132.5,-261 0.5,-261 0.5,-101 132.5,-101 132.5,-261"/>
<text text-anchor="start" x="5.38" y="-247.5" font-family="Helvetica,sans-Serif" font-size="10.00">MiraiCP::MessageTraits</text>
<text text-anchor="start" x="5.38" y="-235.5" font-family="Helvetica,sans-Serif" font-size="10.00">&lt; OperationMessage, true &gt;</text>
<text text-anchor="start" x="4.5" y="-219.5" font-family="Helvetica,sans-Serif" font-size="10.00">+</text>
<text text-anchor="start" x="14.5" y="-219.5" font-family="Helvetica,sans-Serif" font-size="10.00">PolyM::MsgUID uid</text>
<text text-anchor="start" x="4.5" y="-203.5" font-family="Helvetica,sans-Serif" font-size="10.00">+</text>
<text text-anchor="start" x="14.5" y="-203.5" font-family="Helvetica,sans-Serif" font-size="10.00">static constexpr bool</text>
<text text-anchor="start" x="14.5" y="-191.5" font-family="Helvetica,sans-Serif" font-size="10.00"> blocking</text>
<text text-anchor="start" x="4.5" y="-175.5" font-family="Helvetica,sans-Serif" font-size="10.00">+</text>
<text text-anchor="start" x="14.5" y="-175.5" font-family="Helvetica,sans-Serif" font-size="10.00">virtual int get_payload</text>
<text text-anchor="start" x="14.5" y="-163.5" font-family="Helvetica,sans-Serif" font-size="10.00">_class_id()</text>
<text text-anchor="start" x="4.5" y="-147.5" font-family="Helvetica,sans-Serif" font-size="10.00">+</text>
<text text-anchor="start" x="14.5" y="-147.5" font-family="Helvetica,sans-Serif" font-size="10.00">virtual ~MessageTraits</text>
<text text-anchor="start" x="14.5" y="-135.5" font-family="Helvetica,sans-Serif" font-size="10.00">()=default</text>
<text text-anchor="start" x="4.5" y="-119.5" font-family="Helvetica,sans-Serif" font-size="10.00">+</text>
<text text-anchor="start" x="14.5" y="-119.5" font-family="Helvetica,sans-Serif" font-size="10.00">static constexpr int</text>
<text text-anchor="start" x="14.5" y="-107.5" font-family="Helvetica,sans-Serif" font-size="10.00"> static_payload_class_id()</text>
<polygon fill="#666666" stroke="#666666" points="0.5,-231 0.5,-231 132.5,-231 132.5,-231 0.5,-231"/>
<polygon fill="#666666" stroke="#666666" points="0.5,-187 0.5,-187 12.5,-187 12.5,-187 0.5,-187"/>
<polygon fill="#666666" stroke="#666666" points="12.5,-187 12.5,-187 132.5,-187 132.5,-187 12.5,-187"/>
<polygon fill="none" stroke="#666666" points="0.5,-101 0.5,-261 132.5,-261 132.5,-101 0.5,-101"/>
</a>
</g>
</g>
<!-- Node2&#45;&gt;Node1 -->
<g id="edge1_Node000001_Node000002" class="edge">
<title>Node2&#45;&gt;Node1</title>
<g id="a_edge1_Node000001_Node000002"><a xlink:title=" ">
<path fill="none" stroke="#63b8ff" d="M66.5,-89.83C66.5,-80.52 66.5,-71.59 66.5,-63.67"/>
<polygon fill="none" stroke="#63b8ff" points="63,-89.82 66.5,-99.82 70,-89.82 63,-89.82"/>
</a>
</g>
</g>
<!-- Node3 -->
<g id="Node000003" class="node">
<title>Node3</title>
<g id="a_Node000003"><a xlink:href="a00788.html" target="_top" xlink:title=" ">
<polygon fill="white" stroke="none" points="132,-481 1,-481 1,-321 132,-321 132,-481"/>
<text text-anchor="start" x="13.62" y="-467.5" font-family="Helvetica,sans-Serif" font-size="10.00">MiraiCP::MessageTraits</text>
<text text-anchor="start" x="30.12" y="-455.5" font-family="Helvetica,sans-Serif" font-size="10.00">&lt; T, t_blocking &gt;</text>
<text text-anchor="start" x="5" y="-439.5" font-family="Helvetica,sans-Serif" font-size="10.00">+</text>
<text text-anchor="start" x="15" y="-439.5" font-family="Helvetica,sans-Serif" font-size="10.00">PolyM::MsgUID uid</text>
<text text-anchor="start" x="5" y="-423.5" font-family="Helvetica,sans-Serif" font-size="10.00">+</text>
<text text-anchor="start" x="15" y="-423.5" font-family="Helvetica,sans-Serif" font-size="10.00">static constexpr bool</text>
<text text-anchor="start" x="15" y="-411.5" font-family="Helvetica,sans-Serif" font-size="10.00"> blocking</text>
<text text-anchor="start" x="5" y="-395.5" font-family="Helvetica,sans-Serif" font-size="10.00">+</text>
<text text-anchor="start" x="15" y="-395.5" font-family="Helvetica,sans-Serif" font-size="10.00">virtual int get_payload</text>
<text text-anchor="start" x="15" y="-383.5" font-family="Helvetica,sans-Serif" font-size="10.00">_class_id()</text>
<text text-anchor="start" x="5" y="-367.5" font-family="Helvetica,sans-Serif" font-size="10.00">+</text>
<text text-anchor="start" x="15" y="-367.5" font-family="Helvetica,sans-Serif" font-size="10.00">virtual ~MessageTraits</text>
<text text-anchor="start" x="15" y="-355.5" font-family="Helvetica,sans-Serif" font-size="10.00">()=default</text>
<text text-anchor="start" x="5" y="-339.5" font-family="Helvetica,sans-Serif" font-size="10.00">+</text>
<text text-anchor="start" x="15" y="-339.5" font-family="Helvetica,sans-Serif" font-size="10.00">static constexpr int</text>
<text text-anchor="start" x="15" y="-327.5" font-family="Helvetica,sans-Serif" font-size="10.00"> static_payload_class_id()</text>
<polygon fill="#666666" stroke="#666666" points="1,-451 1,-451 132,-451 132,-451 1,-451"/>
<polygon fill="#666666" stroke="#666666" points="1,-407 1,-407 13,-407 13,-407 1,-407"/>
<polygon fill="#666666" stroke="#666666" points="13,-407 13,-407 132,-407 132,-407 13,-407"/>
<polygon fill="none" stroke="#666666" points="1,-321 1,-481 132,-481 132,-321 1,-321"/>
</a>
</g>
</g>
<!-- Node3&#45;&gt;Node2 -->
<g id="edge2_Node000002_Node000003" class="edge">
<title>Node3&#45;&gt;Node2</title>
<g id="a_edge2_Node000002_Node000003"><a xlink:title=" ">
<path fill="none" stroke="orange" d="M66.5,-310.12C66.5,-293.81 66.5,-276.92 66.5,-260.95"/>
<polygon fill="orange" stroke="orange" points="63,-309.78 66.5,-319.78 70,-309.78 63,-309.78"/>
</a>
</g>
<text text-anchor="start" x="66.5" y="-293.5" font-family="Helvetica,sans-Serif" font-size="10.00" fill="grey"> &lt; OperationMessage,</text>
<text text-anchor="middle" x="114.88" y="-281.5" font-family="Helvetica,sans-Serif" font-size="10.00" fill="grey"> true &gt;</text>
</g>
</g>
</svg>
