<?xml version="1.0" encoding="UTF-8" standalone="no"?>
<!DOCTYPE svg PUBLIC "-//W3C//DTD SVG 1.1//EN"
 "http://www.w3.org/Graphics/SVG/1.1/DTD/svg11.dtd">
<!-- Generated by graphviz version 2.50.0 (20211204.2007)
 -->
<!-- Title: MiraiCP::SingleMessage Pages: 1 -->
<svg width="380pt" height="710pt"
 viewBox="0.00 0.00 379.50 710.00" xmlns="http://www.w3.org/2000/svg" xmlns:xlink="http://www.w3.org/1999/xlink">
<g id="graph0" class="graph" transform="scale(1 1) rotate(0) translate(4 706)">
<title>MiraiCP::SingleMessage</title>
<polygon fill="white" stroke="transparent" points="-4,4 -4,-706 375.5,-706 375.5,4 -4,4"/>
<!-- Node1 -->
<g id="node1" class="node">
<title>Node1</title>
<g id="a_node1"><a xlink:title="MessageChain的组成部分">
<polygon fill="#bfbfbf" stroke="black" points="71.5,-0.5 71.5,-508.5 235.5,-508.5 235.5,-0.5 71.5,-0.5"/>
<text text-anchor="middle" x="153.5" y="-496.5" font-family="Helvetica,sans-Serif" font-size="10.00">MiraiCP::SingleMessage</text>
<polyline fill="none" stroke="black" points="71.5,-489.5 235.5,-489.5 "/>
<text text-anchor="middle" x="153.5" y="-477.5" font-family="Helvetica,sans-Serif" font-size="10.00"> </text>
<polyline fill="none" stroke="black" points="71.5,-470.5 235.5,-470.5 "/>
<text text-anchor="start" x="79.5" y="-458.5" font-family="Helvetica,sans-Serif" font-size="10.00">+ SingleMessage(int</text>
<text text-anchor="start" x="79.5" y="-447.5" font-family="Helvetica,sans-Serif" font-size="10.00"> inType, std::string</text>
<text text-anchor="start" x="79.5" y="-436.5" font-family="Helvetica,sans-Serif" font-size="10.00"> content, std::string</text>
<text text-anchor="start" x="79.5" y="-425.5" font-family="Helvetica,sans-Serif" font-size="10.00"> prefix=&quot;:&quot;) noexcept</text>
<text text-anchor="start" x="79.5" y="-414.5" font-family="Helvetica,sans-Serif" font-size="10.00">+ virtual ~SingleMessage</text>
<text text-anchor="start" x="79.5" y="-403.5" font-family="Helvetica,sans-Serif" font-size="10.00">() noexcept=default</text>
<text text-anchor="start" x="79.5" y="-392.5" font-family="Helvetica,sans-Serif" font-size="10.00">+ virtual nlohmann::json</text>
<text text-anchor="start" x="79.5" y="-381.5" font-family="Helvetica,sans-Serif" font-size="10.00"> toJson() const</text>
<text text-anchor="start" x="79.5" y="-370.5" font-family="Helvetica,sans-Serif" font-size="10.00">+ std::string toMiraiCode</text>
<text text-anchor="start" x="79.5" y="-359.5" font-family="Helvetica,sans-Serif" font-size="10.00">() const override</text>
<text text-anchor="start" x="79.5" y="-348.5" font-family="Helvetica,sans-Serif" font-size="10.00">+ bool operator==(const</text>
<text text-anchor="start" x="79.5" y="-337.5" font-family="Helvetica,sans-Serif" font-size="10.00"> SingleMessage &amp;m) const</text>
<text text-anchor="start" x="79.5" y="-326.5" font-family="Helvetica,sans-Serif" font-size="10.00">+ bool operator==(SingleMessage</text>
<text text-anchor="start" x="79.5" y="-315.5" font-family="Helvetica,sans-Serif" font-size="10.00"> *m) const</text>
<text text-anchor="start" x="79.5" y="-304.5" font-family="Helvetica,sans-Serif" font-size="10.00">+ SingleMessage(int</text>
<text text-anchor="start" x="79.5" y="-293.5" font-family="Helvetica,sans-Serif" font-size="10.00"> inType, std::string</text>
<text text-anchor="start" x="79.5" y="-282.5" font-family="Helvetica,sans-Serif" font-size="10.00"> content, std::string</text>
<text text-anchor="start" x="79.5" y="-271.5" font-family="Helvetica,sans-Serif" font-size="10.00"> prefix=&quot;:&quot;) noexcept</text>
<text text-anchor="start" x="79.5" y="-260.5" font-family="Helvetica,sans-Serif" font-size="10.00">+ virtual ~SingleMessage</text>
<text text-anchor="start" x="79.5" y="-249.5" font-family="Helvetica,sans-Serif" font-size="10.00">() noexcept=default</text>
<text text-anchor="start" x="79.5" y="-238.5" font-family="Helvetica,sans-Serif" font-size="10.00">+ virtual nlohmann::json</text>
<text text-anchor="start" x="79.5" y="-227.5" font-family="Helvetica,sans-Serif" font-size="10.00"> toJson() const</text>
<text text-anchor="start" x="79.5" y="-216.5" font-family="Helvetica,sans-Serif" font-size="10.00">+ std::string toMiraiCode</text>
<text text-anchor="start" x="79.5" y="-205.5" font-family="Helvetica,sans-Serif" font-size="10.00">() const override</text>
<text text-anchor="start" x="79.5" y="-194.5" font-family="Helvetica,sans-Serif" font-size="10.00">+ bool operator==(const</text>
<text text-anchor="start" x="79.5" y="-183.5" font-family="Helvetica,sans-Serif" font-size="10.00"> SingleMessage &amp;m) const</text>
<text text-anchor="start" x="79.5" y="-172.5" font-family="Helvetica,sans-Serif" font-size="10.00">+ bool operator==(SingleMessage</text>
<text text-anchor="start" x="79.5" y="-161.5" font-family="Helvetica,sans-Serif" font-size="10.00"> *m) const</text>
<text text-anchor="start" x="79.5" y="-150.5" font-family="Helvetica,sans-Serif" font-size="10.00">+ static std::string</text>
<text text-anchor="start" x="79.5" y="-139.5" font-family="Helvetica,sans-Serif" font-size="10.00"> getTypeString(int type)</text>
<text text-anchor="start" x="79.5" y="-128.5" font-family="Helvetica,sans-Serif" font-size="10.00">+ static int getKey(const</text>
<text text-anchor="start" x="79.5" y="-117.5" font-family="Helvetica,sans-Serif" font-size="10.00"> std::string &amp;value)</text>
<text text-anchor="start" x="79.5" y="-106.5" font-family="Helvetica,sans-Serif" font-size="10.00">+ static int getMiraiCodeKey</text>
<text text-anchor="start" x="79.5" y="-95.5" font-family="Helvetica,sans-Serif" font-size="10.00">(const std::string &amp;value)</text>
<text text-anchor="start" x="79.5" y="-84.5" font-family="Helvetica,sans-Serif" font-size="10.00">+ static std::string</text>
<text text-anchor="start" x="79.5" y="-73.5" font-family="Helvetica,sans-Serif" font-size="10.00"> getTypeString(int type)</text>
<text text-anchor="start" x="79.5" y="-62.5" font-family="Helvetica,sans-Serif" font-size="10.00">+ static int getKey(const</text>
<text text-anchor="start" x="79.5" y="-51.5" font-family="Helvetica,sans-Serif" font-size="10.00"> std::string &amp;value)</text>
<text text-anchor="start" x="79.5" y="-40.5" font-family="Helvetica,sans-Serif" font-size="10.00">+ static int getMiraiCodeKey</text>
<text text-anchor="start" x="79.5" y="-29.5" font-family="Helvetica,sans-Serif" font-size="10.00">(const std::string &amp;value)</text>
<text text-anchor="start" x="79.5" y="-18.5" font-family="Helvetica,sans-Serif" font-size="10.00"># SingleMessage()=default</text>
<text text-anchor="start" x="79.5" y="-7.5" font-family="Helvetica,sans-Serif" font-size="10.00"># SingleMessage()=default</text>
</a>
</g>
</g>
<!-- Node2 -->
<g id="node2" class="node">
<title>Node2</title>
<g id="a_node2"><a xlink:href="a00732.html" target="_top" xlink:title="MiraiCode父类, 指可以被转换成miraicode的类型">
<polygon fill="white" stroke="black" points="0,-567.5 0,-701.5 121,-701.5 121,-567.5 0,-567.5"/>
<text text-anchor="middle" x="60.5" y="-689.5" font-family="Helvetica,sans-Serif" font-size="10.00">MiraiCP::MiraiCodeable</text>
<polyline fill="none" stroke="black" points="0,-682.5 121,-682.5 "/>
<text text-anchor="middle" x="60.5" y="-670.5" font-family="Helvetica,sans-Serif" font-size="10.00"> </text>
<polyline fill="none" stroke="black" points="0,-663.5 121,-663.5 "/>
<text text-anchor="start" x="8" y="-651.5" font-family="Helvetica,sans-Serif" font-size="10.00">+ virtual std::string</text>
<text text-anchor="start" x="8" y="-640.5" font-family="Helvetica,sans-Serif" font-size="10.00"> toMiraiCode() const =0</text>
<text text-anchor="start" x="8" y="-629.5" font-family="Helvetica,sans-Serif" font-size="10.00">+ virtual ~MiraiCodeable</text>
<text text-anchor="start" x="8" y="-618.5" font-family="Helvetica,sans-Serif" font-size="10.00">()=default</text>
<text text-anchor="start" x="8" y="-607.5" font-family="Helvetica,sans-Serif" font-size="10.00">+ virtual std::string</text>
<text text-anchor="start" x="8" y="-596.5" font-family="Helvetica,sans-Serif" font-size="10.00"> toMiraiCode() const =0</text>
<text text-anchor="start" x="8" y="-585.5" font-family="Helvetica,sans-Serif" font-size="10.00">+ virtual ~MiraiCodeable</text>
<text text-anchor="start" x="8" y="-574.5" font-family="Helvetica,sans-Serif" font-size="10.00">()=default</text>
</a>
</g>
</g>
<!-- Node2&#45;&gt;Node1 -->
<g id="edge1" class="edge">
<title>Node2&#45;&gt;Node1</title>
<path fill="none" stroke="midnightblue" d="M73.74,-557.15C77.04,-542.24 80.79,-525.86 84.82,-508.68"/>
<polygon fill="none" stroke="midnightblue" points="70.25,-556.71 71.53,-567.22 77.09,-558.21 70.25,-556.71"/>
</g>
<!-- Node2&#45;&gt;Node1 -->
<g id="edge2" class="edge">
<title>Node2&#45;&gt;Node1</title>
<path fill="none" stroke="midnightblue" d="M84.83,-557.15C88.86,-542.24 93.18,-525.86 97.6,-508.68"/>
<polygon fill="none" stroke="midnightblue" points="81.34,-556.66 82.08,-567.22 88.09,-558.5 81.34,-556.66"/>
</g>
<!-- Node3 -->
<g id="node3" class="node">
<title>Node3</title>
<g id="a_node3"><a xlink:title=" ">
<polygon fill="white" stroke="#bfbfbf" points="139,-606 139,-663 180,-663 180,-606 139,-606"/>
<text text-anchor="middle" x="159.5" y="-651" font-family="Helvetica,sans-Serif" font-size="10.00">string</text>
<polyline fill="none" stroke="#bfbfbf" points="139,-644 180,-644 "/>
<text text-anchor="middle" x="159.5" y="-632" font-family="Helvetica,sans-Serif" font-size="10.00"> </text>
<polyline fill="none" stroke="#bfbfbf" points="139,-625 180,-625 "/>
<text text-anchor="middle" x="159.5" y="-613" font-family="Helvetica,sans-Serif" font-size="10.00"> </text>
</a>
</g>
</g>
<!-- Node3&#45;&gt;Node1 -->
<g id="edge3" class="edge">
<title>Node3&#45;&gt;Node1</title>
<path fill="none" stroke="#404040" d="M157.47,-605.74C156.36,-589.26 155.09,-567.95 154.5,-549 154.21,-539.78 153.96,-530.39 153.74,-520.91"/>
<polygon fill="none" stroke="#404040" points="153.74,-520.86 149.61,-514.95 153.48,-508.86 157.61,-514.77 153.74,-520.86"/>
<text text-anchor="middle" x="175.5" y="-541" font-family="Helvetica,sans-Serif" font-size="10.00"> +content</text>
<text text-anchor="middle" x="175.5" y="-530" font-family="Helvetica,sans-Serif" font-size="10.00">+prefix</text>
</g>
<!-- Node4 -->
<g id="node4" class="node">
<title>Node4</title>
<g id="a_node4"><a xlink:title=" ">
<polygon fill="white" stroke="#bfbfbf" points="204,-606 204,-663 233,-663 233,-606 204,-606"/>
<text text-anchor="middle" x="218.5" y="-651" font-family="Helvetica,sans-Serif" font-size="10.00">int</text>
<polyline fill="none" stroke="#bfbfbf" points="204,-644 233,-644 "/>
<text text-anchor="middle" x="218.5" y="-632" font-family="Helvetica,sans-Serif" font-size="10.00"> </text>
<polyline fill="none" stroke="#bfbfbf" points="204,-625 233,-625 "/>
<text text-anchor="middle" x="218.5" y="-613" font-family="Helvetica,sans-Serif" font-size="10.00"> </text>
</a>
</g>
</g>
<!-- Node4&#45;&gt;Node1 -->
<g id="edge4" class="edge">
<title>Node4&#45;&gt;Node1</title>
<path fill="none" stroke="#404040" d="M213.72,-605.7C210.19,-585.19 205,-554.98 199.11,-520.76"/>
<polygon fill="none" stroke="#404040" points="199.04,-520.33 194.08,-515.09 197.01,-508.5 201.96,-513.74 199.04,-520.33"/>
<text text-anchor="middle" x="233.5" y="-535.5" font-family="Helvetica,sans-Serif" font-size="10.00"> +internalType</text>
</g>
<!-- Node5 -->
<g id="node5" class="node">
<title>Node5</title>
<g id="a_node5"><a xlink:title=" ">
<polygon fill="white" stroke="#bfbfbf" points="251.5,-600.5 251.5,-668.5 371.5,-668.5 371.5,-600.5 251.5,-600.5"/>
<text text-anchor="start" x="259.5" y="-656.5" font-family="Helvetica,sans-Serif" font-size="10.00">static const char *const</text>
<text text-anchor="middle" x="311.5" y="-645.5" font-family="Helvetica,sans-Serif" font-size="10.00"> *const</text>
<polyline fill="none" stroke="#bfbfbf" points="251.5,-638.5 371.5,-638.5 "/>
<text text-anchor="middle" x="311.5" y="-626.5" font-family="Helvetica,sans-Serif" font-size="10.00"> </text>
<polyline fill="none" stroke="#bfbfbf" points="251.5,-619.5 371.5,-619.5 "/>
<text text-anchor="middle" x="311.5" y="-607.5" font-family="Helvetica,sans-Serif" font-size="10.00"> </text>
</a>
</g>
</g>
<!-- Node5&#45;&gt;Node1 -->
<g id="edge5" class="edge">
<title>Node5&#45;&gt;Node1</title>
<path fill="none" stroke="#404040" d="M298.28,-600.34C289.85,-579.29 278.64,-551.51 268.5,-527 259.42,-505.05 249.85,-482.13 240.27,-459.33"/>
<polygon fill="none" stroke="#404040" points="240.22,-459.21 234.21,-455.23 235.57,-448.14 241.59,-452.12 240.22,-459.21"/>
<text text-anchor="middle" x="314.5" y="-541" font-family="Helvetica,sans-Serif" font-size="10.00"> +messageType</text>
<text text-anchor="middle" x="314.5" y="-530" font-family="Helvetica,sans-Serif" font-size="10.00">+miraiCodeName</text>
</g>
</g>
</svg>
