<?xml version="1.0" encoding="UTF-8" standalone="no"?>
<!DOCTYPE svg PUBLIC "-//W3C//DTD SVG 1.1//EN"
 "http://www.w3.org/Graphics/SVG/1.1/DTD/svg11.dtd">
<!-- Generated by graphviz version 2.50.0 (20211204.2007)
 -->
<!-- Title: MiraiCP::At Pages: 1 -->
<svg width="380pt" height="1002pt"
 viewBox="0.00 0.00 379.50 1002.00" xmlns="http://www.w3.org/2000/svg" xmlns:xlink="http://www.w3.org/1999/xlink">
<g id="graph0" class="graph" transform="scale(1 1) rotate(0) translate(4 998)">
<title>MiraiCP::At</title>
<polygon fill="white" stroke="transparent" points="-4,4 -4,-998 375.5,-998 375.5,4 -4,4"/>
<!-- Node1 -->
<g id="node1" class="node">
<title>Node1</title>
<g id="a_node1"><a xlink:title="@">
<polygon fill="#bfbfbf" stroke="black" points="76,-0.5 76,-244.5 231,-244.5 231,-0.5 76,-0.5"/>
<text text-anchor="middle" x="153.5" y="-232.5" font-family="Helvetica,sans-Serif" font-size="10.00">MiraiCP::At</text>
<polyline fill="none" stroke="black" points="76,-225.5 231,-225.5 "/>
<text text-anchor="middle" x="153.5" y="-213.5" font-family="Helvetica,sans-Serif" font-size="10.00"> </text>
<polyline fill="none" stroke="black" points="76,-206.5 231,-206.5 "/>
<text text-anchor="start" x="84" y="-194.5" font-family="Helvetica,sans-Serif" font-size="10.00">+ nlohmann::json toJson</text>
<text text-anchor="start" x="84" y="-183.5" font-family="Helvetica,sans-Serif" font-size="10.00">() const override</text>
<text text-anchor="start" x="84" y="-172.5" font-family="Helvetica,sans-Serif" font-size="10.00">+ At(const SingleMessage &amp;sg)</text>
<text text-anchor="start" x="84" y="-161.5" font-family="Helvetica,sans-Serif" font-size="10.00">+ At(QQID a)</text>
<text text-anchor="start" x="84" y="-150.5" font-family="Helvetica,sans-Serif" font-size="10.00">+ std::string toMiraiCode</text>
<text text-anchor="start" x="84" y="-139.5" font-family="Helvetica,sans-Serif" font-size="10.00">() const override</text>
<text text-anchor="start" x="84" y="-128.5" font-family="Helvetica,sans-Serif" font-size="10.00">+ bool operator==(const</text>
<text text-anchor="start" x="84" y="-117.5" font-family="Helvetica,sans-Serif" font-size="10.00"> At &amp;a) const</text>
<text text-anchor="start" x="84" y="-106.5" font-family="Helvetica,sans-Serif" font-size="10.00">+ nlohmann::json toJson</text>
<text text-anchor="start" x="84" y="-95.5" font-family="Helvetica,sans-Serif" font-size="10.00">() const override</text>
<text text-anchor="start" x="84" y="-84.5" font-family="Helvetica,sans-Serif" font-size="10.00">+ At(const SingleMessage &amp;sg)</text>
<text text-anchor="start" x="84" y="-73.5" font-family="Helvetica,sans-Serif" font-size="10.00">+ At(QQID a)</text>
<text text-anchor="start" x="84" y="-62.5" font-family="Helvetica,sans-Serif" font-size="10.00">+ std::string toMiraiCode</text>
<text text-anchor="start" x="84" y="-51.5" font-family="Helvetica,sans-Serif" font-size="10.00">() const override</text>
<text text-anchor="start" x="84" y="-40.5" font-family="Helvetica,sans-Serif" font-size="10.00">+ bool operator==(const</text>
<text text-anchor="start" x="84" y="-29.5" font-family="Helvetica,sans-Serif" font-size="10.00"> At &amp;a) const</text>
<text text-anchor="start" x="84" y="-18.5" font-family="Helvetica,sans-Serif" font-size="10.00">+ static int type()</text>
<text text-anchor="start" x="84" y="-7.5" font-family="Helvetica,sans-Serif" font-size="10.00">+ static int type()</text>
</a>
</g>
</g>
<!-- Node2 -->
<g id="node2" class="node">
<title>Node2</title>
<g id="a_node2"><a xlink:href="a00748.html" target="_top" xlink:title="MessageChain的组成部分">
<polygon fill="white" stroke="black" points="71.5,-292.5 71.5,-800.5 235.5,-800.5 235.5,-292.5 71.5,-292.5"/>
<text text-anchor="middle" x="153.5" y="-788.5" font-family="Helvetica,sans-Serif" font-size="10.00">MiraiCP::SingleMessage</text>
<polyline fill="none" stroke="black" points="71.5,-781.5 235.5,-781.5 "/>
<text text-anchor="middle" x="153.5" y="-769.5" font-family="Helvetica,sans-Serif" font-size="10.00"> </text>
<polyline fill="none" stroke="black" points="71.5,-762.5 235.5,-762.5 "/>
<text text-anchor="start" x="79.5" y="-750.5" font-family="Helvetica,sans-Serif" font-size="10.00">+ SingleMessage(int</text>
<text text-anchor="start" x="79.5" y="-739.5" font-family="Helvetica,sans-Serif" font-size="10.00"> inType, std::string</text>
<text text-anchor="start" x="79.5" y="-728.5" font-family="Helvetica,sans-Serif" font-size="10.00"> content, std::string</text>
<text text-anchor="start" x="79.5" y="-717.5" font-family="Helvetica,sans-Serif" font-size="10.00"> prefix=&quot;:&quot;) noexcept</text>
<text text-anchor="start" x="79.5" y="-706.5" font-family="Helvetica,sans-Serif" font-size="10.00">+ virtual ~SingleMessage</text>
<text text-anchor="start" x="79.5" y="-695.5" font-family="Helvetica,sans-Serif" font-size="10.00">() noexcept=default</text>
<text text-anchor="start" x="79.5" y="-684.5" font-family="Helvetica,sans-Serif" font-size="10.00">+ virtual nlohmann::json</text>
<text text-anchor="start" x="79.5" y="-673.5" font-family="Helvetica,sans-Serif" font-size="10.00"> toJson() const</text>
<text text-anchor="start" x="79.5" y="-662.5" font-family="Helvetica,sans-Serif" font-size="10.00">+ std::string toMiraiCode</text>
<text text-anchor="start" x="79.5" y="-651.5" font-family="Helvetica,sans-Serif" font-size="10.00">() const override</text>
<text text-anchor="start" x="79.5" y="-640.5" font-family="Helvetica,sans-Serif" font-size="10.00">+ bool operator==(const</text>
<text text-anchor="start" x="79.5" y="-629.5" font-family="Helvetica,sans-Serif" font-size="10.00"> SingleMessage &amp;m) const</text>
<text text-anchor="start" x="79.5" y="-618.5" font-family="Helvetica,sans-Serif" font-size="10.00">+ bool operator==(SingleMessage</text>
<text text-anchor="start" x="79.5" y="-607.5" font-family="Helvetica,sans-Serif" font-size="10.00"> *m) const</text>
<text text-anchor="start" x="79.5" y="-596.5" font-family="Helvetica,sans-Serif" font-size="10.00">+ SingleMessage(int</text>
<text text-anchor="start" x="79.5" y="-585.5" font-family="Helvetica,sans-Serif" font-size="10.00"> inType, std::string</text>
<text text-anchor="start" x="79.5" y="-574.5" font-family="Helvetica,sans-Serif" font-size="10.00"> content, std::string</text>
<text text-anchor="start" x="79.5" y="-563.5" font-family="Helvetica,sans-Serif" font-size="10.00"> prefix=&quot;:&quot;) noexcept</text>
<text text-anchor="start" x="79.5" y="-552.5" font-family="Helvetica,sans-Serif" font-size="10.00">+ virtual ~SingleMessage</text>
<text text-anchor="start" x="79.5" y="-541.5" font-family="Helvetica,sans-Serif" font-size="10.00">() noexcept=default</text>
<text text-anchor="start" x="79.5" y="-530.5" font-family="Helvetica,sans-Serif" font-size="10.00">+ virtual nlohmann::json</text>
<text text-anchor="start" x="79.5" y="-519.5" font-family="Helvetica,sans-Serif" font-size="10.00"> toJson() const</text>
<text text-anchor="start" x="79.5" y="-508.5" font-family="Helvetica,sans-Serif" font-size="10.00">+ std::string toMiraiCode</text>
<text text-anchor="start" x="79.5" y="-497.5" font-family="Helvetica,sans-Serif" font-size="10.00">() const override</text>
<text text-anchor="start" x="79.5" y="-486.5" font-family="Helvetica,sans-Serif" font-size="10.00">+ bool operator==(const</text>
<text text-anchor="start" x="79.5" y="-475.5" font-family="Helvetica,sans-Serif" font-size="10.00"> SingleMessage &amp;m) const</text>
<text text-anchor="start" x="79.5" y="-464.5" font-family="Helvetica,sans-Serif" font-size="10.00">+ bool operator==(SingleMessage</text>
<text text-anchor="start" x="79.5" y="-453.5" font-family="Helvetica,sans-Serif" font-size="10.00"> *m) const</text>
<text text-anchor="start" x="79.5" y="-442.5" font-family="Helvetica,sans-Serif" font-size="10.00">+ static std::string</text>
<text text-anchor="start" x="79.5" y="-431.5" font-family="Helvetica,sans-Serif" font-size="10.00"> getTypeString(int type)</text>
<text text-anchor="start" x="79.5" y="-420.5" font-family="Helvetica,sans-Serif" font-size="10.00">+ static int getKey(const</text>
<text text-anchor="start" x="79.5" y="-409.5" font-family="Helvetica,sans-Serif" font-size="10.00"> std::string &amp;value)</text>
<text text-anchor="start" x="79.5" y="-398.5" font-family="Helvetica,sans-Serif" font-size="10.00">+ static int getMiraiCodeKey</text>
<text text-anchor="start" x="79.5" y="-387.5" font-family="Helvetica,sans-Serif" font-size="10.00">(const std::string &amp;value)</text>
<text text-anchor="start" x="79.5" y="-376.5" font-family="Helvetica,sans-Serif" font-size="10.00">+ static std::string</text>
<text text-anchor="start" x="79.5" y="-365.5" font-family="Helvetica,sans-Serif" font-size="10.00"> getTypeString(int type)</text>
<text text-anchor="start" x="79.5" y="-354.5" font-family="Helvetica,sans-Serif" font-size="10.00">+ static int getKey(const</text>
<text text-anchor="start" x="79.5" y="-343.5" font-family="Helvetica,sans-Serif" font-size="10.00"> std::string &amp;value)</text>
<text text-anchor="start" x="79.5" y="-332.5" font-family="Helvetica,sans-Serif" font-size="10.00">+ static int getMiraiCodeKey</text>
<text text-anchor="start" x="79.5" y="-321.5" font-family="Helvetica,sans-Serif" font-size="10.00">(const std::string &amp;value)</text>
<text text-anchor="start" x="79.5" y="-310.5" font-family="Helvetica,sans-Serif" font-size="10.00"># SingleMessage()=default</text>
<text text-anchor="start" x="79.5" y="-299.5" font-family="Helvetica,sans-Serif" font-size="10.00"># SingleMessage()=default</text>
</a>
</g>
</g>
<!-- Node2&#45;&gt;Node1 -->
<g id="edge1" class="edge">
<title>Node2&#45;&gt;Node1</title>
<path fill="none" stroke="midnightblue" d="M146.94,-282.14C147.03,-269.41 147.16,-256.95 147.32,-244.96"/>
<polygon fill="none" stroke="midnightblue" points="143.44,-282.39 146.87,-292.41 150.44,-282.43 143.44,-282.39"/>
</g>
<!-- Node2&#45;&gt;Node1 -->
<g id="edge7" class="edge">
<title>Node2&#45;&gt;Node1</title>
<path fill="none" stroke="midnightblue" d="M160.06,-282.14C159.97,-269.41 159.84,-256.95 159.68,-244.96"/>
<polygon fill="none" stroke="midnightblue" points="156.56,-282.43 160.13,-292.41 163.56,-282.39 156.56,-282.43"/>
</g>
<!-- Node3 -->
<g id="node3" class="node">
<title>Node3</title>
<g id="a_node3"><a xlink:href="a00732.html" target="_top" xlink:title="MiraiCode父类, 指可以被转换成miraicode的类型">
<polygon fill="white" stroke="black" points="0,-859.5 0,-993.5 121,-993.5 121,-859.5 0,-859.5"/>
<text text-anchor="middle" x="60.5" y="-981.5" font-family="Helvetica,sans-Serif" font-size="10.00">MiraiCP::MiraiCodeable</text>
<polyline fill="none" stroke="black" points="0,-974.5 121,-974.5 "/>
<text text-anchor="middle" x="60.5" y="-962.5" font-family="Helvetica,sans-Serif" font-size="10.00"> </text>
<polyline fill="none" stroke="black" points="0,-955.5 121,-955.5 "/>
<text text-anchor="start" x="8" y="-943.5" font-family="Helvetica,sans-Serif" font-size="10.00">+ virtual std::string</text>
<text text-anchor="start" x="8" y="-932.5" font-family="Helvetica,sans-Serif" font-size="10.00"> toMiraiCode() const =0</text>
<text text-anchor="start" x="8" y="-921.5" font-family="Helvetica,sans-Serif" font-size="10.00">+ virtual ~MiraiCodeable</text>
<text text-anchor="start" x="8" y="-910.5" font-family="Helvetica,sans-Serif" font-size="10.00">()=default</text>
<text text-anchor="start" x="8" y="-899.5" font-family="Helvetica,sans-Serif" font-size="10.00">+ virtual std::string</text>
<text text-anchor="start" x="8" y="-888.5" font-family="Helvetica,sans-Serif" font-size="10.00"> toMiraiCode() const =0</text>
<text text-anchor="start" x="8" y="-877.5" font-family="Helvetica,sans-Serif" font-size="10.00">+ virtual ~MiraiCodeable</text>
<text text-anchor="start" x="8" y="-866.5" font-family="Helvetica,sans-Serif" font-size="10.00">()=default</text>
</a>
</g>
</g>
<!-- Node3&#45;&gt;Node2 -->
<g id="edge2" class="edge">
<title>Node3&#45;&gt;Node2</title>
<path fill="none" stroke="midnightblue" d="M73.74,-849.15C77.04,-834.24 80.79,-817.86 84.82,-800.68"/>
<polygon fill="none" stroke="midnightblue" points="70.25,-848.71 71.53,-859.22 77.09,-850.21 70.25,-848.71"/>
</g>
<!-- Node3&#45;&gt;Node2 -->
<g id="edge3" class="edge">
<title>Node3&#45;&gt;Node2</title>
<path fill="none" stroke="midnightblue" d="M84.83,-849.15C88.86,-834.24 93.18,-817.86 97.6,-800.68"/>
<polygon fill="none" stroke="midnightblue" points="81.34,-848.66 82.08,-859.22 88.09,-850.5 81.34,-848.66"/>
</g>
<!-- Node4 -->
<g id="node4" class="node">
<title>Node4</title>
<g id="a_node4"><a xlink:title=" ">
<polygon fill="white" stroke="#bfbfbf" points="139,-898 139,-955 180,-955 180,-898 139,-898"/>
<text text-anchor="middle" x="159.5" y="-943" font-family="Helvetica,sans-Serif" font-size="10.00">string</text>
<polyline fill="none" stroke="#bfbfbf" points="139,-936 180,-936 "/>
<text text-anchor="middle" x="159.5" y="-924" font-family="Helvetica,sans-Serif" font-size="10.00"> </text>
<polyline fill="none" stroke="#bfbfbf" points="139,-917 180,-917 "/>
<text text-anchor="middle" x="159.5" y="-905" font-family="Helvetica,sans-Serif" font-size="10.00"> </text>
</a>
</g>
</g>
<!-- Node4&#45;&gt;Node2 -->
<g id="edge4" class="edge">
<title>Node4&#45;&gt;Node2</title>
<path fill="none" stroke="#404040" d="M157.47,-897.74C156.36,-881.26 155.09,-859.95 154.5,-841 154.21,-831.78 153.96,-822.39 153.74,-812.91"/>
<polygon fill="none" stroke="#404040" points="153.74,-812.86 149.61,-806.95 153.48,-800.86 157.61,-806.77 153.74,-812.86"/>
<text text-anchor="middle" x="175.5" y="-833" font-family="Helvetica,sans-Serif" font-size="10.00"> +content</text>
<text text-anchor="middle" x="175.5" y="-822" font-family="Helvetica,sans-Serif" font-size="10.00">+prefix</text>
</g>
<!-- Node5 -->
<g id="node5" class="node">
<title>Node5</title>
<g id="a_node5"><a xlink:title=" ">
<polygon fill="white" stroke="#bfbfbf" points="204,-898 204,-955 233,-955 233,-898 204,-898"/>
<text text-anchor="middle" x="218.5" y="-943" font-family="Helvetica,sans-Serif" font-size="10.00">int</text>
<polyline fill="none" stroke="#bfbfbf" points="204,-936 233,-936 "/>
<text text-anchor="middle" x="218.5" y="-924" font-family="Helvetica,sans-Serif" font-size="10.00"> </text>
<polyline fill="none" stroke="#bfbfbf" points="204,-917 233,-917 "/>
<text text-anchor="middle" x="218.5" y="-905" font-family="Helvetica,sans-Serif" font-size="10.00"> </text>
</a>
</g>
</g>
<!-- Node5&#45;&gt;Node2 -->
<g id="edge5" class="edge">
<title>Node5&#45;&gt;Node2</title>
<path fill="none" stroke="#404040" d="M213.72,-897.7C210.19,-877.19 205,-846.98 199.11,-812.76"/>
<polygon fill="none" stroke="#404040" points="199.04,-812.33 194.08,-807.09 197.01,-800.5 201.96,-805.74 199.04,-812.33"/>
<text text-anchor="middle" x="234.5" y="-827.5" font-family="Helvetica,sans-Serif" font-size="10.00"> +internalType</text>
</g>
<!-- Node6 -->
<g id="node6" class="node">
<title>Node6</title>
<g id="a_node6"><a xlink:title=" ">
<polygon fill="white" stroke="#bfbfbf" points="251.5,-892.5 251.5,-960.5 371.5,-960.5 371.5,-892.5 251.5,-892.5"/>
<text text-anchor="start" x="259.5" y="-948.5" font-family="Helvetica,sans-Serif" font-size="10.00">static const char *const</text>
<text text-anchor="middle" x="311.5" y="-937.5" font-family="Helvetica,sans-Serif" font-size="10.00"> *const</text>
<polyline fill="none" stroke="#bfbfbf" points="251.5,-930.5 371.5,-930.5 "/>
<text text-anchor="middle" x="311.5" y="-918.5" font-family="Helvetica,sans-Serif" font-size="10.00"> </text>
<polyline fill="none" stroke="#bfbfbf" points="251.5,-911.5 371.5,-911.5 "/>
<text text-anchor="middle" x="311.5" y="-899.5" font-family="Helvetica,sans-Serif" font-size="10.00"> </text>
</a>
</g>
</g>
<!-- Node6&#45;&gt;Node2 -->
<g id="edge6" class="edge">
<title>Node6&#45;&gt;Node2</title>
<path fill="none" stroke="#404040" d="M303.69,-892.28C297.23,-869.9 286.34,-840.65 269.5,-819 261.09,-808.19 252.74,-811.94 244.5,-801 243.82,-800.1 243.15,-799.2 242.48,-798.29"/>
<polygon fill="none" stroke="#404040" points="242.4,-798.17 235.68,-795.56 235.51,-788.35 242.23,-790.96 242.4,-798.17"/>
<text text-anchor="middle" x="320.5" y="-833" font-family="Helvetica,sans-Serif" font-size="10.00"> +messageType</text>
<text text-anchor="middle" x="320.5" y="-822" font-family="Helvetica,sans-Serif" font-size="10.00">+miraiCodeName</text>
</g>
<!-- Node7 -->
<g id="node7" class="node">
<title>Node7</title>
<g id="a_node7"><a xlink:title=" ">
<polygon fill="white" stroke="#bfbfbf" points="253.5,-518 253.5,-575 351.5,-575 351.5,-518 253.5,-518"/>
<text text-anchor="middle" x="302.5" y="-563" font-family="Helvetica,sans-Serif" font-size="10.00">unsigned long long</text>
<polyline fill="none" stroke="#bfbfbf" points="253.5,-556 351.5,-556 "/>
<text text-anchor="middle" x="302.5" y="-544" font-family="Helvetica,sans-Serif" font-size="10.00"> </text>
<polyline fill="none" stroke="#bfbfbf" points="253.5,-537 351.5,-537 "/>
<text text-anchor="middle" x="302.5" y="-525" font-family="Helvetica,sans-Serif" font-size="10.00"> </text>
</a>
</g>
</g>
<!-- Node7&#45;&gt;Node1 -->
<g id="edge8" class="edge">
<title>Node7&#45;&gt;Node1</title>
<path fill="none" stroke="#404040" d="M298.67,-517.78C291.57,-470.39 274.32,-371.22 244.5,-292 239.97,-279.97 234.73,-267.73 229.11,-255.62"/>
<polygon fill="none" stroke="#404040" points="228.99,-255.38 222.8,-251.68 223.84,-244.54 230.03,-248.24 228.99,-255.38"/>
<text text-anchor="middle" x="254.5" y="-266" font-family="Helvetica,sans-Serif" font-size="10.00"> +target</text>
</g>
</g>
</svg>
