<?xml version="1.0" encoding="UTF-8" standalone="no"?>
<!DOCTYPE svg PUBLIC "-//W3C//DTD SVG 1.1//EN"
 "http://www.w3.org/Graphics/SVG/1.1/DTD/svg11.dtd">
<!-- Generated by graphviz version 2.50.0 (20211204.2007)
 -->
<!-- Title: MiraiCP::Face Pages: 1 -->
<svg width="423pt" height="607pt"
 viewBox="0.00 0.00 422.50 607.00" xmlns="http://www.w3.org/2000/svg" xmlns:xlink="http://www.w3.org/1999/xlink">
<g id="graph0" class="graph" transform="scale(1 1) rotate(0) translate(4 603)">
<title>MiraiCP::Face</title>
<polygon fill="white" stroke="transparent" points="-4,4 -4,-603 418.5,-603 418.5,4 -4,4"/>
<!-- Node1 -->
<g id="node1" class="node">
<title>Node1</title>
<g id="a_node1"><a xlink:title="自带表情">
<polygon fill="#bfbfbf" stroke="black" points="263.5,-0.5 263.5,-134.5 387.5,-134.5 387.5,-0.5 263.5,-0.5"/>
<text text-anchor="middle" x="325.5" y="-122.5" font-family="Helvetica,sans-Serif" font-size="10.00">MiraiCP::Face</text>
<polyline fill="none" stroke="black" points="263.5,-115.5 387.5,-115.5 "/>
<text text-anchor="middle" x="325.5" y="-103.5" font-family="Helvetica,sans-Serif" font-size="10.00"> </text>
<polyline fill="none" stroke="black" points="263.5,-96.5 387.5,-96.5 "/>
<text text-anchor="start" x="271.5" y="-84.5" font-family="Helvetica,sans-Serif" font-size="10.00">+ nlohmann::json toJson</text>
<text text-anchor="start" x="271.5" y="-73.5" font-family="Helvetica,sans-Serif" font-size="10.00">() const override</text>
<text text-anchor="start" x="271.5" y="-62.5" font-family="Helvetica,sans-Serif" font-size="10.00">+ std::string toMiraiCode</text>
<text text-anchor="start" x="271.5" y="-51.5" font-family="Helvetica,sans-Serif" font-size="10.00">() const override</text>
<text text-anchor="start" x="271.5" y="-40.5" font-family="Helvetica,sans-Serif" font-size="10.00">+ Face(int id)</text>
<text text-anchor="start" x="271.5" y="-29.5" font-family="Helvetica,sans-Serif" font-size="10.00">+ bool operator==(const</text>
<text text-anchor="start" x="271.5" y="-18.5" font-family="Helvetica,sans-Serif" font-size="10.00"> Face &amp;f) const</text>
<text text-anchor="start" x="271.5" y="-7.5" font-family="Helvetica,sans-Serif" font-size="10.00">+ static int type()</text>
</a>
</g>
</g>
<!-- Node2 -->
<g id="node2" class="node">
<title>Node2</title>
<g id="a_node2"><a xlink:href="a00720.html" target="_top" xlink:title="MessageChain的组成部分">
<polygon fill="white" stroke="black" points="155.5,-172.5 155.5,-449.5 319.5,-449.5 319.5,-172.5 155.5,-172.5"/>
<text text-anchor="middle" x="237.5" y="-437.5" font-family="Helvetica,sans-Serif" font-size="10.00">MiraiCP::SingleMessage</text>
<polyline fill="none" stroke="black" points="155.5,-430.5 319.5,-430.5 "/>
<text text-anchor="middle" x="237.5" y="-418.5" font-family="Helvetica,sans-Serif" font-size="10.00"> </text>
<polyline fill="none" stroke="black" points="155.5,-411.5 319.5,-411.5 "/>
<text text-anchor="start" x="163.5" y="-399.5" font-family="Helvetica,sans-Serif" font-size="10.00">+ SingleMessage(int</text>
<text text-anchor="start" x="163.5" y="-388.5" font-family="Helvetica,sans-Serif" font-size="10.00"> inType, std::string</text>
<text text-anchor="start" x="163.5" y="-377.5" font-family="Helvetica,sans-Serif" font-size="10.00"> content, std::string</text>
<text text-anchor="start" x="163.5" y="-366.5" font-family="Helvetica,sans-Serif" font-size="10.00"> prefix=&quot;:&quot;) noexcept</text>
<text text-anchor="start" x="163.5" y="-355.5" font-family="Helvetica,sans-Serif" font-size="10.00">+ virtual ~SingleMessage</text>
<text text-anchor="start" x="163.5" y="-344.5" font-family="Helvetica,sans-Serif" font-size="10.00">() noexcept=default</text>
<text text-anchor="start" x="163.5" y="-333.5" font-family="Helvetica,sans-Serif" font-size="10.00">+ virtual nlohmann::json</text>
<text text-anchor="start" x="163.5" y="-322.5" font-family="Helvetica,sans-Serif" font-size="10.00"> toJson() const</text>
<text text-anchor="start" x="163.5" y="-311.5" font-family="Helvetica,sans-Serif" font-size="10.00">+ std::string toMiraiCode</text>
<text text-anchor="start" x="163.5" y="-300.5" font-family="Helvetica,sans-Serif" font-size="10.00">() const override</text>
<text text-anchor="start" x="163.5" y="-289.5" font-family="Helvetica,sans-Serif" font-size="10.00">+ bool operator==(const</text>
<text text-anchor="start" x="163.5" y="-278.5" font-family="Helvetica,sans-Serif" font-size="10.00"> SingleMessage &amp;m) const</text>
<text text-anchor="start" x="163.5" y="-267.5" font-family="Helvetica,sans-Serif" font-size="10.00">+ bool operator==(SingleMessage</text>
<text text-anchor="start" x="163.5" y="-256.5" font-family="Helvetica,sans-Serif" font-size="10.00"> *m) const</text>
<text text-anchor="start" x="163.5" y="-245.5" font-family="Helvetica,sans-Serif" font-size="10.00">+ static std::string</text>
<text text-anchor="start" x="163.5" y="-234.5" font-family="Helvetica,sans-Serif" font-size="10.00"> getTypeString(int type)</text>
<text text-anchor="start" x="163.5" y="-223.5" font-family="Helvetica,sans-Serif" font-size="10.00">+ static int getKey(const</text>
<text text-anchor="start" x="163.5" y="-212.5" font-family="Helvetica,sans-Serif" font-size="10.00"> std::string &amp;value)</text>
<text text-anchor="start" x="163.5" y="-201.5" font-family="Helvetica,sans-Serif" font-size="10.00">+ static int getMiraiCodeKey</text>
<text text-anchor="start" x="163.5" y="-190.5" font-family="Helvetica,sans-Serif" font-size="10.00">(const std::string &amp;value)</text>
<text text-anchor="start" x="163.5" y="-179.5" font-family="Helvetica,sans-Serif" font-size="10.00"># SingleMessage()=default</text>
</a>
</g>
</g>
<!-- Node2&#45;&gt;Node1 -->
<g id="edge1" class="edge">
<title>Node2&#45;&gt;Node1</title>
<path fill="none" stroke="midnightblue" d="M291.1,-162.91C294.65,-153.16 298.11,-143.66 301.39,-134.66"/>
<polygon fill="none" stroke="midnightblue" points="287.8,-161.73 287.67,-172.32 294.38,-164.12 287.8,-161.73"/>
</g>
<!-- Node3 -->
<g id="node3" class="node">
<title>Node3</title>
<g id="a_node3"><a xlink:href="a00704.html" target="_top" xlink:title="MiraiCode父类, 指可以被转换成miraicode的类型">
<polygon fill="white" stroke="black" points="59,-508.5 59,-598.5 180,-598.5 180,-508.5 59,-508.5"/>
<text text-anchor="middle" x="119.5" y="-586.5" font-family="Helvetica,sans-Serif" font-size="10.00">MiraiCP::MiraiCodeable</text>
<polyline fill="none" stroke="black" points="59,-579.5 180,-579.5 "/>
<text text-anchor="middle" x="119.5" y="-567.5" font-family="Helvetica,sans-Serif" font-size="10.00"> </text>
<polyline fill="none" stroke="black" points="59,-560.5 180,-560.5 "/>
<text text-anchor="start" x="67" y="-548.5" font-family="Helvetica,sans-Serif" font-size="10.00">+ virtual std::string</text>
<text text-anchor="start" x="67" y="-537.5" font-family="Helvetica,sans-Serif" font-size="10.00"> toMiraiCode() const =0</text>
<text text-anchor="start" x="67" y="-526.5" font-family="Helvetica,sans-Serif" font-size="10.00">+ virtual ~MiraiCodeable</text>
<text text-anchor="start" x="67" y="-515.5" font-family="Helvetica,sans-Serif" font-size="10.00">()=default</text>
</a>
</g>
</g>
<!-- Node3&#45;&gt;Node2 -->
<g id="edge2" class="edge">
<title>Node3&#45;&gt;Node2</title>
<path fill="none" stroke="midnightblue" d="M145.59,-499.32C152.96,-484.31 161.33,-467.25 169.95,-449.68"/>
<polygon fill="none" stroke="midnightblue" points="142.41,-497.87 141.14,-508.39 148.69,-500.95 142.41,-497.87"/>
</g>
<!-- Node4 -->
<g id="node4" class="node">
<title>Node4</title>
<g id="a_node4"><a xlink:title=" ">
<polygon fill="white" stroke="#bfbfbf" points="0,-525 0,-582 41,-582 41,-525 0,-525"/>
<text text-anchor="middle" x="20.5" y="-570" font-family="Helvetica,sans-Serif" font-size="10.00">string</text>
<polyline fill="none" stroke="#bfbfbf" points="0,-563 41,-563 "/>
<text text-anchor="middle" x="20.5" y="-551" font-family="Helvetica,sans-Serif" font-size="10.00"> </text>
<polyline fill="none" stroke="#bfbfbf" points="0,-544 41,-544 "/>
<text text-anchor="middle" x="20.5" y="-532" font-family="Helvetica,sans-Serif" font-size="10.00"> </text>
</a>
</g>
</g>
<!-- Node4&#45;&gt;Node2 -->
<g id="edge3" class="edge">
<title>Node4&#45;&gt;Node2</title>
<path fill="none" stroke="#404040" d="M37.51,-524.64C41.27,-518.99 45.37,-513.2 49.5,-508 79.11,-470.71 114.61,-432.35 146.74,-399.55"/>
<polygon fill="none" stroke="#404040" points="146.85,-399.45 148.21,-392.37 155.27,-390.9 153.91,-397.98 146.85,-399.45"/>
<text text-anchor="middle" x="104.5" y="-482" font-family="Helvetica,sans-Serif" font-size="10.00"> +content</text>
<text text-anchor="middle" x="104.5" y="-471" font-family="Helvetica,sans-Serif" font-size="10.00">+prefix</text>
</g>
<!-- Node5 -->
<g id="node5" class="node">
<title>Node5</title>
<g id="a_node5"><a xlink:title=" ">
<polygon fill="white" stroke="#bfbfbf" points="378,-525 378,-582 407,-582 407,-525 378,-525"/>
<text text-anchor="middle" x="392.5" y="-570" font-family="Helvetica,sans-Serif" font-size="10.00">int</text>
<polyline fill="none" stroke="#bfbfbf" points="378,-563 407,-563 "/>
<text text-anchor="middle" x="392.5" y="-551" font-family="Helvetica,sans-Serif" font-size="10.00"> </text>
<polyline fill="none" stroke="#bfbfbf" points="378,-544 407,-544 "/>
<text text-anchor="middle" x="392.5" y="-532" font-family="Helvetica,sans-Serif" font-size="10.00"> </text>
</a>
</g>
</g>
<!-- Node5&#45;&gt;Node1 -->
<g id="edge6" class="edge">
<title>Node5&#45;&gt;Node1</title>
<path fill="none" stroke="#404040" d="M397.24,-524.71C399.45,-508.22 401.24,-486.91 399.5,-468 389.15,-355.25 362.68,-226.84 344.39,-146.73"/>
<polygon fill="none" stroke="#404040" points="344.33,-146.47 339.08,-141.52 341.63,-134.78 346.88,-139.73 344.33,-146.47"/>
<text text-anchor="middle" x="406" y="-308.5" font-family="Helvetica,sans-Serif" font-size="10.00"> +id</text>
</g>
<!-- Node5&#45;&gt;Node2 -->
<g id="edge4" class="edge">
<title>Node5&#45;&gt;Node2</title>
<path fill="none" stroke="#404040" d="M378,-537.83C366.32,-525.61 349.87,-507.45 337.5,-490 330.73,-480.46 324.05,-470.42 317.54,-460.17"/>
<polygon fill="none" stroke="#404040" points="317.46,-460.03 310.88,-457.07 311.09,-449.86 317.67,-452.82 317.46,-460.03"/>
<text text-anchor="middle" x="368.5" y="-476.5" font-family="Helvetica,sans-Serif" font-size="10.00"> +internalType</text>
</g>
<!-- Node6 -->
<g id="node6" class="node">
<title>Node6</title>
<g id="a_node6"><a xlink:title=" ">
<polygon fill="white" stroke="#bfbfbf" points="198.5,-519.5 198.5,-587.5 318.5,-587.5 318.5,-519.5 198.5,-519.5"/>
<text text-anchor="start" x="206.5" y="-575.5" font-family="Helvetica,sans-Serif" font-size="10.00">static const char *const</text>
<text text-anchor="middle" x="258.5" y="-564.5" font-family="Helvetica,sans-Serif" font-size="10.00"> *const</text>
<polyline fill="none" stroke="#bfbfbf" points="198.5,-557.5 318.5,-557.5 "/>
<text text-anchor="middle" x="258.5" y="-545.5" font-family="Helvetica,sans-Serif" font-size="10.00"> </text>
<polyline fill="none" stroke="#bfbfbf" points="198.5,-538.5 318.5,-538.5 "/>
<text text-anchor="middle" x="258.5" y="-526.5" font-family="Helvetica,sans-Serif" font-size="10.00"> </text>
</a>
</g>
</g>
<!-- Node6&#45;&gt;Node2 -->
<g id="edge5" class="edge">
<title>Node6&#45;&gt;Node2</title>
<path fill="none" stroke="#404040" d="M245.79,-519.22C242.8,-509.9 240.04,-499.68 238.5,-490 237.05,-480.88 235.93,-471.46 235.07,-461.94"/>
<polygon fill="none" stroke="#404040" points="235.06,-461.81 230.6,-456.14 234.12,-449.85 238.58,-455.52 235.06,-461.81"/>
<text text-anchor="middle" x="276.5" y="-482" font-family="Helvetica,sans-Serif" font-size="10.00"> +messageType</text>
<text text-anchor="middle" x="276.5" y="-471" font-family="Helvetica,sans-Serif" font-size="10.00">+miraiCodeName</text>
</g>
</g>
</svg>
