<?xml version="1.0" encoding="UTF-8" standalone="no"?>
<!DOCTYPE svg PUBLIC "-//W3C//DTD SVG 1.1//EN"
 "http://www.w3.org/Graphics/SVG/1.1/DTD/svg11.dtd">
<!-- Generated by graphviz version 2.50.0 (20211204.2007)
 -->
<!-- Title: LibLoader::PluginIdDuplicateException Pages: 1 -->
<svg width="280pt" height="797pt"
 viewBox="0.00 0.00 280.00 797.00" xmlns="http://www.w3.org/2000/svg" xmlns:xlink="http://www.w3.org/1999/xlink">
<g id="graph0" class="graph" transform="scale(1 1) rotate(0) translate(4 793)">
<title>LibLoader::PluginIdDuplicateException</title>
<polygon fill="white" stroke="transparent" points="-4,4 -4,-793 276,-793 276,4 -4,4"/>
<!-- Node1 -->
<g id="node1" class="node">
<title>Node1</title>
<g id="a_node1"><a xlink:title=" ">
<polygon fill="#bfbfbf" stroke="black" points="0,-0.5 0,-123.5 180,-123.5 180,-0.5 0,-0.5"/>
<text text-anchor="start" x="8" y="-111.5" font-family="Helvetica,sans-Serif" font-size="10.00">LibLoader::PluginIdDuplicate</text>
<text text-anchor="middle" x="90" y="-100.5" font-family="Helvetica,sans-Serif" font-size="10.00">Exception</text>
<polyline fill="none" stroke="black" points="0,-93.5 180,-93.5 "/>
<text text-anchor="middle" x="90" y="-81.5" font-family="Helvetica,sans-Serif" font-size="10.00"> </text>
<polyline fill="none" stroke="black" points="0,-74.5 180,-74.5 "/>
<text text-anchor="start" x="8" y="-62.5" font-family="Helvetica,sans-Serif" font-size="10.00">+ PluginIdDuplicateException</text>
<text text-anchor="start" x="8" y="-51.5" font-family="Helvetica,sans-Serif" font-size="10.00">(const string &amp;id, const</text>
<text text-anchor="start" x="8" y="-40.5" font-family="Helvetica,sans-Serif" font-size="10.00"> string &amp;conflictPluginPathOld,</text>
<text text-anchor="start" x="8" y="-29.5" font-family="Helvetica,sans-Serif" font-size="10.00"> const string &amp;conflictPluginPathNew,</text>
<text text-anchor="start" x="8" y="-18.5" font-family="Helvetica,sans-Serif" font-size="10.00"> string _filename, int _lineNum)</text>
<text text-anchor="start" x="8" y="-7.5" font-family="Helvetica,sans-Serif" font-size="10.00">+ static string exceptionType()</text>
</a>
</g>
</g>
<!-- Node2 -->
<g id="node2" class="node">
<title>Node2</title>
<g id="a_node2"><a xlink:href="a00776.html" target="_top" xlink:title=" ">
<polygon fill="white" stroke="black" points="0.5,-161.5 0.5,-273.5 179.5,-273.5 179.5,-161.5 0.5,-161.5"/>
<text text-anchor="start" x="8.5" y="-261.5" font-family="Helvetica,sans-Serif" font-size="10.00">LibLoader::LoaderException</text>
<text text-anchor="middle" x="90" y="-250.5" font-family="Helvetica,sans-Serif" font-size="10.00">CRTP&lt; PluginIdDuplicateException &gt;</text>
<polyline fill="none" stroke="black" points="0.5,-243.5 179.5,-243.5 "/>
<text text-anchor="middle" x="90" y="-231.5" font-family="Helvetica,sans-Serif" font-size="10.00"> </text>
<polyline fill="none" stroke="black" points="0.5,-224.5 179.5,-224.5 "/>
<text text-anchor="start" x="8.5" y="-212.5" font-family="Helvetica,sans-Serif" font-size="10.00">+ LoaderExceptionCRTP</text>
<text text-anchor="start" x="8.5" y="-201.5" font-family="Helvetica,sans-Serif" font-size="10.00">(std::string _re, string</text>
<text text-anchor="start" x="8.5" y="-190.5" font-family="Helvetica,sans-Serif" font-size="10.00"> _filename, int _lineNum)</text>
<text text-anchor="start" x="8.5" y="-179.5" font-family="Helvetica,sans-Serif" font-size="10.00">+ string getExceptionType</text>
<text text-anchor="start" x="8.5" y="-168.5" font-family="Helvetica,sans-Serif" font-size="10.00">() const override</text>
</a>
</g>
</g>
<!-- Node2&#45;&gt;Node1 -->
<g id="edge1" class="edge">
<title>Node2&#45;&gt;Node1</title>
<path fill="none" stroke="midnightblue" d="M90,-150.93C90,-141.84 90,-132.53 90,-123.53"/>
<polygon fill="none" stroke="midnightblue" points="86.5,-151.08 90,-161.08 93.5,-151.08 86.5,-151.08"/>
</g>
<!-- Node3 -->
<g id="node3" class="node">
<title>Node3</title>
<g id="a_node3"><a xlink:href="a00772.html" target="_top" xlink:title=" ">
<polygon fill="white" stroke="black" points="6,-471.5 6,-693.5 166,-693.5 166,-471.5 6,-471.5"/>
<text text-anchor="middle" x="86" y="-681.5" font-family="Helvetica,sans-Serif" font-size="10.00">LibLoader::LoaderBaseException</text>
<polyline fill="none" stroke="black" points="6,-674.5 166,-674.5 "/>
<text text-anchor="start" x="14" y="-662.5" font-family="Helvetica,sans-Serif" font-size="10.00">+ string filename</text>
<text text-anchor="start" x="14" y="-651.5" font-family="Helvetica,sans-Serif" font-size="10.00">+ int lineNum</text>
<text text-anchor="start" x="14" y="-640.5" font-family="Helvetica,sans-Serif" font-size="10.00"># string errorMessage</text>
<polyline fill="none" stroke="black" points="6,-633.5 166,-633.5 "/>
<text text-anchor="start" x="14" y="-621.5" font-family="Helvetica,sans-Serif" font-size="10.00">+ ~LoaderBaseException</text>
<text text-anchor="start" x="14" y="-610.5" font-family="Helvetica,sans-Serif" font-size="10.00">() override=default</text>
<text text-anchor="start" x="14" y="-599.5" font-family="Helvetica,sans-Serif" font-size="10.00">+ const char * what()</text>
<text text-anchor="start" x="14" y="-588.5" font-family="Helvetica,sans-Serif" font-size="10.00"> const noexcept override</text>
<text text-anchor="start" x="14" y="-577.5" font-family="Helvetica,sans-Serif" font-size="10.00">+ virtual void raise</text>
<text text-anchor="start" x="14" y="-566.5" font-family="Helvetica,sans-Serif" font-size="10.00">() const noexcept</text>
<text text-anchor="start" x="14" y="-555.5" font-family="Helvetica,sans-Serif" font-size="10.00">+ virtual string getException</text>
<text text-anchor="start" x="14" y="-544.5" font-family="Helvetica,sans-Serif" font-size="10.00">Type() const =0</text>
<text text-anchor="start" x="14" y="-533.5" font-family="Helvetica,sans-Serif" font-size="10.00">+ static string exceptionType()</text>
<text text-anchor="start" x="14" y="-522.5" font-family="Helvetica,sans-Serif" font-size="10.00"># LoaderBaseException</text>
<text text-anchor="start" x="14" y="-511.5" font-family="Helvetica,sans-Serif" font-size="10.00">(string info, string</text>
<text text-anchor="start" x="14" y="-500.5" font-family="Helvetica,sans-Serif" font-size="10.00"> _filename, int _lineNum)</text>
<text text-anchor="start" x="14" y="-489.5" font-family="Helvetica,sans-Serif" font-size="10.00"># void warningRaise()</text>
<text text-anchor="start" x="14" y="-478.5" font-family="Helvetica,sans-Serif" font-size="10.00"> const noexcept</text>
</a>
</g>
</g>
<!-- Node3&#45;&gt;Node2 -->
<g id="edge2" class="edge">
<title>Node3&#45;&gt;Node2</title>
<path fill="none" stroke="midnightblue" d="M87.33,-461.06C88.02,-397.78 88.85,-323.3 89.39,-273.73"/>
<polygon fill="none" stroke="midnightblue" points="83.83,-461.07 87.22,-471.11 90.83,-461.15 83.83,-461.07"/>
</g>
<!-- Node5 -->
<g id="node5" class="node">
<title>Node5</title>
<g id="a_node5"><a xlink:href="a00776.html" target="_top" xlink:title="总异常CRTP抽象类，不要直接抛出该类，不知道抛出什么的时候请抛出 LoaderException。 该类是用于继承的基类，需要新的异常类型时，继承该类并以子类作为模板参数。 子类需要实现的方法：">
<polygon fill="white" stroke="black" points="102.5,-321.5 102.5,-433.5 239.5,-433.5 239.5,-321.5 102.5,-321.5"/>
<text text-anchor="start" x="110.5" y="-421.5" font-family="Helvetica,sans-Serif" font-size="10.00">LibLoader::LoaderException</text>
<text text-anchor="middle" x="171" y="-410.5" font-family="Helvetica,sans-Serif" font-size="10.00">CRTP&lt; T &gt;</text>
<polyline fill="none" stroke="black" points="102.5,-403.5 239.5,-403.5 "/>
<text text-anchor="middle" x="171" y="-391.5" font-family="Helvetica,sans-Serif" font-size="10.00"> </text>
<polyline fill="none" stroke="black" points="102.5,-384.5 239.5,-384.5 "/>
<text text-anchor="start" x="110.5" y="-372.5" font-family="Helvetica,sans-Serif" font-size="10.00">+ LoaderExceptionCRTP</text>
<text text-anchor="start" x="110.5" y="-361.5" font-family="Helvetica,sans-Serif" font-size="10.00">(std::string _re, string</text>
<text text-anchor="start" x="110.5" y="-350.5" font-family="Helvetica,sans-Serif" font-size="10.00"> _filename, int _lineNum)</text>
<text text-anchor="start" x="110.5" y="-339.5" font-family="Helvetica,sans-Serif" font-size="10.00">+ string getExceptionType</text>
<text text-anchor="start" x="110.5" y="-328.5" font-family="Helvetica,sans-Serif" font-size="10.00">() const override</text>
</a>
</g>
</g>
<!-- Node3&#45;&gt;Node5 -->
<g id="edge5" class="edge">
<title>Node3&#45;&gt;Node5</title>
<path fill="none" stroke="midnightblue" d="M136.06,-461.95C140.15,-452.17 144.15,-442.62 147.89,-433.68"/>
<polygon fill="none" stroke="midnightblue" points="132.74,-460.81 132.11,-471.39 139.2,-463.51 132.74,-460.81"/>
</g>
<!-- Node4 -->
<g id="node4" class="node">
<title>Node4</title>
<g id="a_node4"><a xlink:title=" ">
<polygon fill="white" stroke="#bfbfbf" points="47,-731.5 47,-788.5 125,-788.5 125,-731.5 47,-731.5"/>
<text text-anchor="middle" x="86" y="-776.5" font-family="Helvetica,sans-Serif" font-size="10.00">std::exception</text>
<polyline fill="none" stroke="#bfbfbf" points="47,-769.5 125,-769.5 "/>
<text text-anchor="middle" x="86" y="-757.5" font-family="Helvetica,sans-Serif" font-size="10.00"> </text>
<polyline fill="none" stroke="#bfbfbf" points="47,-750.5 125,-750.5 "/>
<text text-anchor="middle" x="86" y="-738.5" font-family="Helvetica,sans-Serif" font-size="10.00"> </text>
</a>
</g>
</g>
<!-- Node4&#45;&gt;Node3 -->
<g id="edge3" class="edge">
<title>Node4&#45;&gt;Node3</title>
<path fill="none" stroke="midnightblue" d="M86,-721.07C86,-712.66 86,-703.34 86,-693.63"/>
<polygon fill="none" stroke="midnightblue" points="82.5,-721.19 86,-731.19 89.5,-721.19 82.5,-721.19"/>
</g>
<!-- Node5&#45;&gt;Node2 -->
<g id="edge4" class="edge">
<title>Node5&#45;&gt;Node2</title>
<path fill="none" stroke="orange" d="M137.98,-312.09C131.46,-299.36 124.66,-286.12 118.31,-273.73"/>
<polygon fill="orange" stroke="orange" points="134.99,-313.94 142.67,-321.24 141.22,-310.74 134.99,-313.94"/>
<text text-anchor="middle" x="202" y="-295" font-family="Helvetica,sans-Serif" font-size="10.00"> &lt; PluginIdDuplicateException &gt;</text>
</g>
</g>
</svg>
