<?xml version="1.0" encoding="UTF-8" standalone="no"?>
<!DOCTYPE svg PUBLIC "-//W3C//DTD SVG 1.1//EN"
 "http://www.w3.org/Graphics/SVG/1.1/DTD/svg11.dtd">
<!-- Generated by graphviz version 9.0.0 (0)
 -->
<!-- Title: MiraiCP::MiraiCPString Pages: 1 -->
<svg width="234pt" height="656pt"
 viewBox="0.00 0.00 234.00 656.00" xmlns="http://www.w3.org/2000/svg" xmlns:xlink="http://www.w3.org/1999/xlink">
<g id="graph0" class="graph" transform="scale(1 1) rotate(0) translate(4 652)">
<title>MiraiCP::MiraiCPString</title>
<!-- Node1 -->
<g id="Node000001" class="node">
<title>Node1</title>
<g id="a_Node000001"><a xlink:title="MiraiCP内部传递string数据用">
<polygon fill="#999999" stroke="none" points="199.5,-548 37.5,-548 37.5,0 199.5,0 199.5,-548"/>
<text text-anchor="start" x="67.5" y="-534.5" font-family="Helvetica,sans-Serif" font-size="10.00">MiraiCP::MiraiCPString</text>
<text text-anchor="start" x="117" y="-518.5" font-family="Helvetica,sans-Serif" font-size="10.00"> </text>
<text text-anchor="start" x="41.5" y="-502.5" font-family="Helvetica,sans-Serif" font-size="10.00">+</text>
<text text-anchor="start" x="51.5" y="-502.5" font-family="Helvetica,sans-Serif" font-size="10.00">MiraiCPString()=default</text>
<text text-anchor="start" x="41.5" y="-486.5" font-family="Helvetica,sans-Serif" font-size="10.00">+</text>
<text text-anchor="start" x="51.5" y="-486.5" font-family="Helvetica,sans-Serif" font-size="10.00">MiraiCPString(const</text>
<text text-anchor="start" x="51.5" y="-474.5" font-family="Helvetica,sans-Serif" font-size="10.00"> MiraiCPString &amp;other)</text>
<text text-anchor="start" x="41.5" y="-458.5" font-family="Helvetica,sans-Serif" font-size="10.00">+</text>
<text text-anchor="start" x="51.5" y="-458.5" font-family="Helvetica,sans-Serif" font-size="10.00">MiraiCPString(MiraiCPString</text>
<text text-anchor="start" x="51.5" y="-446.5" font-family="Helvetica,sans-Serif" font-size="10.00"> &amp;&amp;temp) noexcept</text>
<text text-anchor="start" x="41.5" y="-430.5" font-family="Helvetica,sans-Serif" font-size="10.00">+</text>
<text text-anchor="start" x="51.5" y="-430.5" font-family="Helvetica,sans-Serif" font-size="10.00">MiraiCPString(const</text>
<text text-anchor="start" x="51.5" y="-418.5" font-family="Helvetica,sans-Serif" font-size="10.00"> char *char_str)</text>
<text text-anchor="start" x="41.5" y="-402.5" font-family="Helvetica,sans-Serif" font-size="10.00">+</text>
<text text-anchor="start" x="51.5" y="-402.5" font-family="Helvetica,sans-Serif" font-size="10.00">MiraiCPString(MiraiCPStringview</text>
<text text-anchor="start" x="51.5" y="-390.5" font-family="Helvetica,sans-Serif" font-size="10.00"> str_view)</text>
<text text-anchor="start" x="41.5" y="-374.5" font-family="Helvetica,sans-Serif" font-size="10.00">+</text>
<text text-anchor="start" x="51.5" y="-374.5" font-family="Helvetica,sans-Serif" font-size="10.00">MiraiCPString(const</text>
<text text-anchor="start" x="51.5" y="-362.5" font-family="Helvetica,sans-Serif" font-size="10.00"> std::string &amp;string_str)</text>
<text text-anchor="start" x="41.5" y="-346.5" font-family="Helvetica,sans-Serif" font-size="10.00">+</text>
<text text-anchor="start" x="51.5" y="-346.5" font-family="Helvetica,sans-Serif" font-size="10.00">~MiraiCPString()</text>
<text text-anchor="start" x="41.5" y="-330.5" font-family="Helvetica,sans-Serif" font-size="10.00">+</text>
<text text-anchor="start" x="51.5" y="-330.5" font-family="Helvetica,sans-Serif" font-size="10.00">bool isEmpty() const</text>
<text text-anchor="start" x="41.5" y="-314.5" font-family="Helvetica,sans-Serif" font-size="10.00">+</text>
<text text-anchor="start" x="51.5" y="-314.5" font-family="Helvetica,sans-Serif" font-size="10.00">std::string toString</text>
<text text-anchor="start" x="51.5" y="-302.5" font-family="Helvetica,sans-Serif" font-size="10.00">() const</text>
<text text-anchor="start" x="41.5" y="-286.5" font-family="Helvetica,sans-Serif" font-size="10.00">+</text>
<text text-anchor="start" x="51.5" y="-286.5" font-family="Helvetica,sans-Serif" font-size="10.00">operator std::string</text>
<text text-anchor="start" x="51.5" y="-274.5" font-family="Helvetica,sans-Serif" font-size="10.00">() const</text>
<text text-anchor="start" x="41.5" y="-258.5" font-family="Helvetica,sans-Serif" font-size="10.00">+</text>
<text text-anchor="start" x="51.5" y="-258.5" font-family="Helvetica,sans-Serif" font-size="10.00">const char * copyToCharPtr</text>
<text text-anchor="start" x="51.5" y="-246.5" font-family="Helvetica,sans-Serif" font-size="10.00">() const</text>
<text text-anchor="start" x="41.5" y="-230.5" font-family="Helvetica,sans-Serif" font-size="10.00">+</text>
<text text-anchor="start" x="51.5" y="-230.5" font-family="Helvetica,sans-Serif" font-size="10.00">const char * c_str</text>
<text text-anchor="start" x="51.5" y="-218.5" font-family="Helvetica,sans-Serif" font-size="10.00">() const</text>
<text text-anchor="start" x="41.5" y="-202.5" font-family="Helvetica,sans-Serif" font-size="10.00">+</text>
<text text-anchor="start" x="51.5" y="-202.5" font-family="Helvetica,sans-Serif" font-size="10.00">size_t size() const</text>
<text text-anchor="start" x="41.5" y="-186.5" font-family="Helvetica,sans-Serif" font-size="10.00">+</text>
<text text-anchor="start" x="51.5" y="-186.5" font-family="Helvetica,sans-Serif" font-size="10.00">void reserve(size_t</text>
<text text-anchor="start" x="51.5" y="-174.5" font-family="Helvetica,sans-Serif" font-size="10.00"> inSize)</text>
<text text-anchor="start" x="41.5" y="-158.5" font-family="Helvetica,sans-Serif" font-size="10.00">+</text>
<text text-anchor="start" x="51.5" y="-158.5" font-family="Helvetica,sans-Serif" font-size="10.00">char * data()</text>
<text text-anchor="start" x="41.5" y="-142.5" font-family="Helvetica,sans-Serif" font-size="10.00">+</text>
<text text-anchor="start" x="51.5" y="-142.5" font-family="Helvetica,sans-Serif" font-size="10.00">bool operator==(const</text>
<text text-anchor="start" x="51.5" y="-130.5" font-family="Helvetica,sans-Serif" font-size="10.00"> MiraiCPString &amp;another)</text>
<text text-anchor="start" x="51.5" y="-118.5" font-family="Helvetica,sans-Serif" font-size="10.00"> const</text>
<text text-anchor="start" x="41.5" y="-102.5" font-family="Helvetica,sans-Serif" font-size="10.00">+</text>
<text text-anchor="start" x="51.5" y="-102.5" font-family="Helvetica,sans-Serif" font-size="10.00">MiraiCPString &amp; operator</text>
<text text-anchor="start" x="51.5" y="-90.5" font-family="Helvetica,sans-Serif" font-size="10.00">=(const MiraiCPString &amp;another)</text>
<text text-anchor="start" x="41.5" y="-74.5" font-family="Helvetica,sans-Serif" font-size="10.00">+</text>
<text text-anchor="start" x="51.5" y="-74.5" font-family="Helvetica,sans-Serif" font-size="10.00">MiraiCPString &amp; operator</text>
<text text-anchor="start" x="51.5" y="-62.5" font-family="Helvetica,sans-Serif" font-size="10.00">=(MiraiCPString &amp;&amp;another)</text>
<text text-anchor="start" x="51.5" y="-50.5" font-family="Helvetica,sans-Serif" font-size="10.00"> noexcept</text>
<text text-anchor="start" x="43" y="-34.5" font-family="Helvetica,sans-Serif" font-size="10.00">&#45;</text>
<text text-anchor="start" x="51.5" y="-34.5" font-family="Helvetica,sans-Serif" font-size="10.00">void construction()</text>
<text text-anchor="start" x="43" y="-18.5" font-family="Helvetica,sans-Serif" font-size="10.00">&#45;</text>
<text text-anchor="start" x="51.5" y="-18.5" font-family="Helvetica,sans-Serif" font-size="10.00">void swap(MiraiCPString</text>
<text text-anchor="start" x="51.5" y="-6.5" font-family="Helvetica,sans-Serif" font-size="10.00"> &amp;other) noexcept</text>
<polygon fill="#666666" stroke="#666666" points="37.5,-530 37.5,-530 199.5,-530 199.5,-530 37.5,-530"/>
<polygon fill="#666666" stroke="#666666" points="37.5,-514 37.5,-514 199.5,-514 199.5,-514 37.5,-514"/>
<polygon fill="none" stroke="#666666" points="37.5,0 37.5,-548 199.5,-548 199.5,0 37.5,0"/>
</a>
</g>
</g>
<!-- Node2 -->
<g id="Node000002" class="node">
<title>Node2</title>
<g id="a_Node000002"><a xlink:title=" ">
<polygon fill="white" stroke="none" points="29,-648 0,-648 0,-596 29,-596 29,-648"/>
<text text-anchor="start" x="4.75" y="-634.5" font-family="Helvetica,sans-Serif" font-size="10.00">free)</text>
<text text-anchor="start" x="13" y="-618.5" font-family="Helvetica,sans-Serif" font-size="10.00"> </text>
<text text-anchor="start" x="13" y="-602.5" font-family="Helvetica,sans-Serif" font-size="10.00"> </text>
<polygon fill="#666666" stroke="#666666" points="0,-630 0,-630 29,-630 29,-630 0,-630"/>
<polygon fill="#666666" stroke="#666666" points="0,-614 0,-614 29,-614 29,-614 0,-614"/>
<polygon fill="none" stroke="#666666" points="0,-596 0,-648 29,-648 29,-596 0,-596"/>
</a>
</g>
</g>
<!-- Node2&#45;&gt;Node1 -->
<g id="edge1_Node000001_Node000002" class="edge">
<title>Node2&#45;&gt;Node1</title>
<g id="a_edge1_Node000001_Node000002"><a xlink:title=" ">
<path fill="none" stroke="#63b8ff" d="M21.83,-596.08C24.61,-586.65 27.82,-575.83 30.75,-566 31.76,-562.62 32.77,-559.22 33.8,-555.8"/>
<polygon fill="none" stroke="#63b8ff" points="33.83,-555.7 31.71,-548.81 37.26,-544.21 39.38,-551.1 33.83,-555.7"/>
</a>
</g>
<text text-anchor="middle" x="60.38" y="-568.5" font-family="Helvetica,sans-Serif" font-size="10.00" fill="grey"> &#45;std_free_ptr</text>
</g>
<!-- Node3 -->
<g id="Node000003" class="node">
<title>Node3</title>
<g id="a_Node000003"><a xlink:title=" ">
<polygon fill="white" stroke="none" points="106,-648 71,-648 71,-596 106,-596 106,-648"/>
<text text-anchor="start" x="75.75" y="-634.5" font-family="Helvetica,sans-Serif" font-size="10.00">char *</text>
<text text-anchor="start" x="87" y="-618.5" font-family="Helvetica,sans-Serif" font-size="10.00"> </text>
<text text-anchor="start" x="87" y="-602.5" font-family="Helvetica,sans-Serif" font-size="10.00"> </text>
<polygon fill="#666666" stroke="#666666" points="71,-630 71,-630 106,-630 106,-630 71,-630"/>
<polygon fill="#666666" stroke="#666666" points="71,-614 71,-614 106,-614 106,-614 71,-614"/>
<polygon fill="none" stroke="#666666" points="71,-596 71,-648 106,-648 106,-596 71,-596"/>
</a>
</g>
</g>
<!-- Node3&#45;&gt;Node1 -->
<g id="edge2_Node000001_Node000003" class="edge">
<title>Node3&#45;&gt;Node1</title>
<g id="a_edge2_Node000001_Node000003"><a xlink:title=" ">
<path fill="none" stroke="#63b8ff" d="M90.66,-596.12C91.49,-586.51 92.53,-574.51 93.71,-560.86"/>
<polygon fill="none" stroke="#63b8ff" points="93.73,-560.72 90.26,-554.4 94.76,-548.76 98.23,-555.09 93.73,-560.72"/>
</a>
</g>
<text text-anchor="middle" x="101.12" y="-568.5" font-family="Helvetica,sans-Serif" font-size="10.00" fill="grey"> &#45;str</text>
</g>
<!-- Node4 -->
<g id="Node000004" class="node">
<title>Node4</title>
<g id="a_Node000004"><a xlink:title=" ">
<polygon fill="white" stroke="none" points="160.5,-648 124.5,-648 124.5,-596 160.5,-596 160.5,-648"/>
<text text-anchor="start" x="129.38" y="-634.5" font-family="Helvetica,sans-Serif" font-size="10.00">size_t</text>
<text text-anchor="start" x="141" y="-618.5" font-family="Helvetica,sans-Serif" font-size="10.00"> </text>
<text text-anchor="start" x="141" y="-602.5" font-family="Helvetica,sans-Serif" font-size="10.00"> </text>
<polygon fill="#666666" stroke="#666666" points="124.5,-630 124.5,-630 160.5,-630 160.5,-630 124.5,-630"/>
<polygon fill="#666666" stroke="#666666" points="124.5,-614 124.5,-614 160.5,-614 160.5,-614 124.5,-614"/>
<polygon fill="none" stroke="#666666" points="124.5,-596 124.5,-648 160.5,-648 160.5,-596 124.5,-596"/>
</a>
</g>
</g>
<!-- Node4&#45;&gt;Node1 -->
<g id="edge3_Node000001_Node000004" class="edge">
<title>Node4&#45;&gt;Node1</title>
<g id="a_edge3_Node000001_Node000004"><a xlink:title=" ">
<path fill="none" stroke="#63b8ff" d="M140.77,-596.12C140.11,-586.51 139.28,-574.51 138.33,-560.86"/>
<polygon fill="none" stroke="#63b8ff" points="138.32,-560.74 133.91,-555.03 137.49,-548.77 141.9,-554.47 138.32,-560.74"/>
</a>
</g>
<text text-anchor="middle" x="153.12" y="-568.5" font-family="Helvetica,sans-Serif" font-size="10.00" fill="grey"> &#45;_size</text>
</g>
<!-- Node5 -->
<g id="Node000005" class="node">
<title>Node5</title>
<g id="a_Node000005"><a xlink:title=" ">
<polygon fill="white" stroke="none" points="209,-648 180,-648 180,-596 209,-596 209,-648"/>
<text text-anchor="start" x="184.75" y="-634.5" font-family="Helvetica,sans-Serif" font-size="10.00">free)</text>
<text text-anchor="start" x="193" y="-618.5" font-family="Helvetica,sans-Serif" font-size="10.00"> </text>
<text text-anchor="start" x="193" y="-602.5" font-family="Helvetica,sans-Serif" font-size="10.00"> </text>
<polygon fill="#666666" stroke="#666666" points="180,-630 180,-630 209,-630 209,-630 180,-630"/>
<polygon fill="#666666" stroke="#666666" points="180,-614 180,-614 209,-614 209,-614 180,-614"/>
<polygon fill="none" stroke="#666666" points="180,-596 180,-648 209,-648 209,-596 180,-596"/>
</a>
</g>
</g>
<!-- Node5&#45;&gt;Node1 -->
<g id="edge4_Node000001_Node000005" class="edge">
<title>Node5&#45;&gt;Node1</title>
<g id="a_edge4_Node000001_Node000005"><a xlink:title=" ">
<path fill="none" stroke="#63b8ff" d="M189.03,-596.12C186.9,-586.41 184.24,-574.27 181.2,-560.44"/>
<polygon fill="none" stroke="#63b8ff" points="181.2,-560.47 176.01,-555.47 178.63,-548.75 183.82,-553.75 181.2,-560.47"/>
</a>
</g>
<text text-anchor="middle" x="204.25" y="-568.5" font-family="Helvetica,sans-Serif" font-size="10.00" fill="grey"> &#45;free_this</text>
</g>
</g>
</svg>
