<?xml version="1.0" encoding="UTF-8" standalone="no"?>
<!DOCTYPE svg PUBLIC "-//W3C//DTD SVG 1.1//EN"
 "http://www.w3.org/Graphics/SVG/1.1/DTD/svg11.dtd">
<!-- Generated by graphviz version 2.50.0 (20211204.2007)
 -->
<!-- Title: BS::thread_pool Pages: 1 -->
<svg width="558pt" height="886pt"
 viewBox="0.00 0.00 558.00 886.00" xmlns="http://www.w3.org/2000/svg" xmlns:xlink="http://www.w3.org/1999/xlink">
<g id="graph0" class="graph" transform="scale(1 1) rotate(0) translate(4 882)">
<title>BS::thread_pool</title>
<polygon fill="white" stroke="transparent" points="-4,4 -4,-882 554,-882 554,4 -4,4"/>
<!-- Node1 -->
<g id="node1" class="node">
<title>Node1</title>
<g id="a_node1"><a xlink:title="A fast, lightweight, and easy&#45;to&#45;use C++17 thread pool class.">
<polygon fill="#bfbfbf" stroke="black" points="188.5,-0.5 188.5,-706.5 349.5,-706.5 349.5,-0.5 188.5,-0.5"/>
<text text-anchor="middle" x="269" y="-694.5" font-family="Helvetica,sans-Serif" font-size="10.00">BS::thread_pool</text>
<polyline fill="none" stroke="black" points="188.5,-687.5 349.5,-687.5 "/>
<text text-anchor="middle" x="269" y="-675.5" font-family="Helvetica,sans-Serif" font-size="10.00"> </text>
<polyline fill="none" stroke="black" points="188.5,-668.5 349.5,-668.5 "/>
<text text-anchor="start" x="196.5" y="-656.5" font-family="Helvetica,sans-Serif" font-size="10.00">+ thread_pool(const</text>
<text text-anchor="start" x="196.5" y="-645.5" font-family="Helvetica,sans-Serif" font-size="10.00"> concurrency_t thread</text>
<text text-anchor="start" x="196.5" y="-634.5" font-family="Helvetica,sans-Serif" font-size="10.00">_count_=0)</text>
<text text-anchor="start" x="196.5" y="-623.5" font-family="Helvetica,sans-Serif" font-size="10.00">+ ~thread_pool()</text>
<text text-anchor="start" x="196.5" y="-612.5" font-family="Helvetica,sans-Serif" font-size="10.00">+ size_t get_tasks_queued</text>
<text text-anchor="start" x="196.5" y="-601.5" font-family="Helvetica,sans-Serif" font-size="10.00">() const</text>
<text text-anchor="start" x="196.5" y="-590.5" font-family="Helvetica,sans-Serif" font-size="10.00">+ size_t get_tasks_running</text>
<text text-anchor="start" x="196.5" y="-579.5" font-family="Helvetica,sans-Serif" font-size="10.00">() const</text>
<text text-anchor="start" x="196.5" y="-568.5" font-family="Helvetica,sans-Serif" font-size="10.00">+ size_t get_tasks_total</text>
<text text-anchor="start" x="196.5" y="-557.5" font-family="Helvetica,sans-Serif" font-size="10.00">() const</text>
<text text-anchor="start" x="196.5" y="-546.5" font-family="Helvetica,sans-Serif" font-size="10.00">+ concurrency_t get_thread</text>
<text text-anchor="start" x="196.5" y="-535.5" font-family="Helvetica,sans-Serif" font-size="10.00">_count() const</text>
<text text-anchor="start" x="196.5" y="-524.5" font-family="Helvetica,sans-Serif" font-size="10.00">+ bool is_paused() const</text>
<text text-anchor="start" x="196.5" y="-513.5" font-family="Helvetica,sans-Serif" font-size="10.00">+ multi_future&lt; R &gt; run</text>
<text text-anchor="start" x="196.5" y="-502.5" font-family="Helvetica,sans-Serif" font-size="10.00">_over(It &amp;&amp;begin, It</text>
<text text-anchor="start" x="196.5" y="-491.5" font-family="Helvetica,sans-Serif" font-size="10.00"> &amp;&amp;end, size_t inSize)</text>
<text text-anchor="start" x="196.5" y="-480.5" font-family="Helvetica,sans-Serif" font-size="10.00">+ multi_future&lt; R &gt; parallelize</text>
<text text-anchor="start" x="196.5" y="-469.5" font-family="Helvetica,sans-Serif" font-size="10.00">_loop(const T1 first_index,</text>
<text text-anchor="start" x="196.5" y="-458.5" font-family="Helvetica,sans-Serif" font-size="10.00"> const T2 index_after_last,</text>
<text text-anchor="start" x="196.5" y="-447.5" font-family="Helvetica,sans-Serif" font-size="10.00"> F &amp;&amp;loop, const size_t num</text>
<text text-anchor="start" x="196.5" y="-436.5" font-family="Helvetica,sans-Serif" font-size="10.00">_blocks=0)</text>
<text text-anchor="start" x="196.5" y="-425.5" font-family="Helvetica,sans-Serif" font-size="10.00">+ multi_future&lt; R &gt; parallelize</text>
<text text-anchor="start" x="196.5" y="-414.5" font-family="Helvetica,sans-Serif" font-size="10.00">_loop(const T index_after</text>
<text text-anchor="start" x="196.5" y="-403.5" font-family="Helvetica,sans-Serif" font-size="10.00">_last, F &amp;&amp;loop, const size</text>
<text text-anchor="start" x="196.5" y="-392.5" font-family="Helvetica,sans-Serif" font-size="10.00">_t num_blocks=0)</text>
<text text-anchor="start" x="196.5" y="-381.5" font-family="Helvetica,sans-Serif" font-size="10.00">+ void pause()</text>
<text text-anchor="start" x="196.5" y="-370.5" font-family="Helvetica,sans-Serif" font-size="10.00">+ void push_loop(const</text>
<text text-anchor="start" x="196.5" y="-359.5" font-family="Helvetica,sans-Serif" font-size="10.00"> T1 first_index, const</text>
<text text-anchor="start" x="196.5" y="-348.5" font-family="Helvetica,sans-Serif" font-size="10.00"> T2 index_after_last, F</text>
<text text-anchor="start" x="196.5" y="-337.5" font-family="Helvetica,sans-Serif" font-size="10.00"> &amp;&amp;loop, const size_t num</text>
<text text-anchor="start" x="196.5" y="-326.5" font-family="Helvetica,sans-Serif" font-size="10.00">_blocks=0)</text>
<text text-anchor="start" x="196.5" y="-315.5" font-family="Helvetica,sans-Serif" font-size="10.00">+ void push_loop(const</text>
<text text-anchor="start" x="196.5" y="-304.5" font-family="Helvetica,sans-Serif" font-size="10.00"> T index_after_last,</text>
<text text-anchor="start" x="196.5" y="-293.5" font-family="Helvetica,sans-Serif" font-size="10.00"> F &amp;&amp;loop, const size</text>
<text text-anchor="start" x="196.5" y="-282.5" font-family="Helvetica,sans-Serif" font-size="10.00">_t num_blocks=0)</text>
<text text-anchor="start" x="196.5" y="-271.5" font-family="Helvetica,sans-Serif" font-size="10.00">+ void push_task(F &amp;&amp;task,</text>
<text text-anchor="start" x="196.5" y="-260.5" font-family="Helvetica,sans-Serif" font-size="10.00"> A &amp;&amp;...args)</text>
<text text-anchor="start" x="196.5" y="-249.5" font-family="Helvetica,sans-Serif" font-size="10.00">+ void push_task_nolock</text>
<text text-anchor="start" x="196.5" y="-238.5" font-family="Helvetica,sans-Serif" font-size="10.00">(F &amp;&amp;task, A &amp;&amp;...args)</text>
<text text-anchor="start" x="196.5" y="-227.5" font-family="Helvetica,sans-Serif" font-size="10.00">+ void reset(const concurrency</text>
<text text-anchor="start" x="196.5" y="-216.5" font-family="Helvetica,sans-Serif" font-size="10.00">_t thread_count_=0)</text>
<text text-anchor="start" x="196.5" y="-205.5" font-family="Helvetica,sans-Serif" font-size="10.00">+ std::future&lt; R &gt; submit</text>
<text text-anchor="start" x="196.5" y="-194.5" font-family="Helvetica,sans-Serif" font-size="10.00">(F &amp;&amp;task, A &amp;&amp;...args)</text>
<text text-anchor="start" x="196.5" y="-183.5" font-family="Helvetica,sans-Serif" font-size="10.00">+ std::future&lt; R &gt; submit</text>
<text text-anchor="start" x="196.5" y="-172.5" font-family="Helvetica,sans-Serif" font-size="10.00">_nolock(F &amp;&amp;task, A &amp;&amp;...args)</text>
<text text-anchor="start" x="196.5" y="-161.5" font-family="Helvetica,sans-Serif" font-size="10.00">+ void unpause()</text>
<text text-anchor="start" x="196.5" y="-150.5" font-family="Helvetica,sans-Serif" font-size="10.00">+ void wait_for_tasks()</text>
<text text-anchor="start" x="196.5" y="-139.5" font-family="Helvetica,sans-Serif" font-size="10.00">+ void resetThreadByIndex</text>
<text text-anchor="start" x="196.5" y="-128.5" font-family="Helvetica,sans-Serif" font-size="10.00">(size_t index)</text>
<text text-anchor="start" x="196.5" y="-117.5" font-family="Helvetica,sans-Serif" font-size="10.00">+ static size_t getCurrent</text>
<text text-anchor="start" x="196.5" y="-106.5" font-family="Helvetica,sans-Serif" font-size="10.00">ThreadIndexView()</text>
<text text-anchor="start" x="196.5" y="-95.5" font-family="Helvetica,sans-Serif" font-size="10.00">&#45; void create_threads()</text>
<text text-anchor="start" x="196.5" y="-84.5" font-family="Helvetica,sans-Serif" font-size="10.00">&#45; void destroy_threads()</text>
<text text-anchor="start" x="196.5" y="-73.5" font-family="Helvetica,sans-Serif" font-size="10.00">&#45; concurrency_t determine</text>
<text text-anchor="start" x="196.5" y="-62.5" font-family="Helvetica,sans-Serif" font-size="10.00">_thread_count(const concurrency</text>
<text text-anchor="start" x="196.5" y="-51.5" font-family="Helvetica,sans-Serif" font-size="10.00">_t thread_count_)</text>
<text text-anchor="start" x="196.5" y="-40.5" font-family="Helvetica,sans-Serif" font-size="10.00">&#45; void setThreadIndex()</text>
<text text-anchor="start" x="196.5" y="-29.5" font-family="Helvetica,sans-Serif" font-size="10.00">&#45; void worker()</text>
<text text-anchor="start" x="196.5" y="-18.5" font-family="Helvetica,sans-Serif" font-size="10.00">&#45; static size_t &amp; getThread</text>
<text text-anchor="start" x="196.5" y="-7.5" font-family="Helvetica,sans-Serif" font-size="10.00">Index()</text>
</a>
</g>
</g>
<!-- Node2 -->
<g id="node2" class="node">
<title>Node2</title>
<g id="a_node2"><a xlink:title=" ">
<polygon fill="white" stroke="#bfbfbf" points="0,-809.5 0,-866.5 52,-866.5 52,-809.5 0,-809.5"/>
<text text-anchor="middle" x="26" y="-854.5" font-family="Helvetica,sans-Serif" font-size="10.00">atomic&lt;</text>
<polyline fill="none" stroke="#bfbfbf" points="0,-847.5 52,-847.5 "/>
<text text-anchor="middle" x="26" y="-835.5" font-family="Helvetica,sans-Serif" font-size="10.00"> </text>
<polyline fill="none" stroke="#bfbfbf" points="0,-828.5 52,-828.5 "/>
<text text-anchor="middle" x="26" y="-816.5" font-family="Helvetica,sans-Serif" font-size="10.00"> </text>
</a>
</g>
</g>
<!-- Node2&#45;&gt;Node1 -->
<g id="edge1" class="edge">
<title>Node2&#45;&gt;Node1</title>
<path fill="none" stroke="#404040" d="M28.78,-809.11C31.72,-785.99 37.44,-752.57 48,-725 81.65,-637.17 135.46,-546.36 181.56,-476.63"/>
<polygon fill="none" stroke="#404040" points="181.66,-476.48 181.65,-469.27 188.3,-466.49 188.31,-473.7 181.66,-476.48"/>
<text text-anchor="middle" x="92" y="-772" font-family="Helvetica,sans-Serif" font-size="10.00"> &#45;paused</text>
<text text-anchor="middle" x="92" y="-761" font-family="Helvetica,sans-Serif" font-size="10.00">&#45;running</text>
<text text-anchor="middle" x="92" y="-750" font-family="Helvetica,sans-Serif" font-size="10.00">&#45;tasks_total</text>
<text text-anchor="middle" x="92" y="-739" font-family="Helvetica,sans-Serif" font-size="10.00">&#45;threadIndexCounter</text>
<text text-anchor="middle" x="92" y="-728" font-family="Helvetica,sans-Serif" font-size="10.00">&#45;waiting</text>
</g>
<!-- Node3 -->
<g id="node3" class="node">
<title>Node3</title>
<g id="a_node3"><a xlink:title=" ">
<polygon fill="white" stroke="#bfbfbf" points="90.5,-809.5 90.5,-866.5 183.5,-866.5 183.5,-809.5 90.5,-809.5"/>
<text text-anchor="middle" x="137" y="-854.5" font-family="Helvetica,sans-Serif" font-size="10.00">condition_variable</text>
<polyline fill="none" stroke="#bfbfbf" points="90.5,-847.5 183.5,-847.5 "/>
<text text-anchor="middle" x="137" y="-835.5" font-family="Helvetica,sans-Serif" font-size="10.00"> </text>
<polyline fill="none" stroke="#bfbfbf" points="90.5,-828.5 183.5,-828.5 "/>
<text text-anchor="middle" x="137" y="-816.5" font-family="Helvetica,sans-Serif" font-size="10.00"> </text>
</a>
</g>
</g>
<!-- Node3&#45;&gt;Node1 -->
<g id="edge2" class="edge">
<title>Node3&#45;&gt;Node1</title>
<path fill="none" stroke="#404040" d="M138.38,-809.13C139.9,-786.32 142.97,-753.31 149,-725 158.46,-680.59 171.22,-633.99 184.89,-589.4"/>
<polygon fill="none" stroke="#404040" points="184.93,-589.26 182.88,-582.35 188.48,-577.8 190.53,-584.71 184.93,-589.26"/>
<text text-anchor="middle" x="190" y="-755.5" font-family="Helvetica,sans-Serif" font-size="10.00"> &#45;task_available_cv</text>
<text text-anchor="middle" x="190" y="-744.5" font-family="Helvetica,sans-Serif" font-size="10.00">&#45;task_done_cv</text>
</g>
<!-- Node4 -->
<g id="node4" class="node">
<title>Node4</title>
<g id="a_node4"><a xlink:title=" ">
<polygon fill="white" stroke="#bfbfbf" points="206.5,-809.5 206.5,-866.5 255.5,-866.5 255.5,-809.5 206.5,-809.5"/>
<text text-anchor="middle" x="231" y="-854.5" font-family="Helvetica,sans-Serif" font-size="10.00">queue&lt;</text>
<polyline fill="none" stroke="#bfbfbf" points="206.5,-847.5 255.5,-847.5 "/>
<text text-anchor="middle" x="231" y="-835.5" font-family="Helvetica,sans-Serif" font-size="10.00"> </text>
<polyline fill="none" stroke="#bfbfbf" points="206.5,-828.5 255.5,-828.5 "/>
<text text-anchor="middle" x="231" y="-816.5" font-family="Helvetica,sans-Serif" font-size="10.00"> </text>
</a>
</g>
</g>
<!-- Node4&#45;&gt;Node1 -->
<g id="edge3" class="edge">
<title>Node4&#45;&gt;Node1</title>
<path fill="none" stroke="#404040" d="M233.18,-809.33C234.85,-788.09 237.37,-756.15 240.31,-718.85"/>
<polygon fill="none" stroke="#404040" points="240.33,-718.52 236.81,-712.22 241.27,-706.55 244.79,-712.85 240.33,-718.52"/>
<text text-anchor="middle" x="254.5" y="-750" font-family="Helvetica,sans-Serif" font-size="10.00"> &#45;tasks</text>
</g>
<!-- Node5 -->
<g id="node5" class="node">
<title>Node5</title>
<g id="a_node5"><a xlink:title=" ">
<polygon fill="white" stroke="#bfbfbf" points="274,-809.5 274,-866.5 318,-866.5 318,-809.5 274,-809.5"/>
<text text-anchor="middle" x="296" y="-854.5" font-family="Helvetica,sans-Serif" font-size="10.00">mutex</text>
<polyline fill="none" stroke="#bfbfbf" points="274,-847.5 318,-847.5 "/>
<text text-anchor="middle" x="296" y="-835.5" font-family="Helvetica,sans-Serif" font-size="10.00"> </text>
<polyline fill="none" stroke="#bfbfbf" points="274,-828.5 318,-828.5 "/>
<text text-anchor="middle" x="296" y="-816.5" font-family="Helvetica,sans-Serif" font-size="10.00"> </text>
</a>
</g>
</g>
<!-- Node5&#45;&gt;Node1 -->
<g id="edge4" class="edge">
<title>Node5&#45;&gt;Node1</title>
<path fill="none" stroke="#404040" d="M294.45,-809.33C293.26,-788.09 291.48,-756.15 289.39,-718.85"/>
<polygon fill="none" stroke="#404040" points="289.37,-718.53 285.04,-712.77 288.7,-706.55 293.03,-712.32 289.37,-718.53"/>
<text text-anchor="middle" x="323.5" y="-750" font-family="Helvetica,sans-Serif" font-size="10.00"> &#45;tasks_mutex</text>
</g>
<!-- Node6 -->
<g id="node6" class="node">
<title>Node6</title>
<g id="a_node6"><a xlink:title=" ">
<polygon fill="white" stroke="#bfbfbf" points="336.5,-798.5 336.5,-877.5 463.5,-877.5 463.5,-798.5 336.5,-798.5"/>
<text text-anchor="start" x="344.5" y="-865.5" font-family="Helvetica,sans-Serif" font-size="10.00">invoke_result_t&lt; decltype</text>
<text text-anchor="start" x="344.5" y="-854.5" font-family="Helvetica,sans-Serif" font-size="10.00">(std::thread::hardware</text>
<text text-anchor="middle" x="400" y="-843.5" font-family="Helvetica,sans-Serif" font-size="10.00">_concurrency)&gt;</text>
<polyline fill="none" stroke="#bfbfbf" points="336.5,-836.5 463.5,-836.5 "/>
<text text-anchor="middle" x="400" y="-824.5" font-family="Helvetica,sans-Serif" font-size="10.00"> </text>
<polyline fill="none" stroke="#bfbfbf" points="336.5,-817.5 463.5,-817.5 "/>
<text text-anchor="middle" x="400" y="-805.5" font-family="Helvetica,sans-Serif" font-size="10.00"> </text>
</a>
</g>
</g>
<!-- Node6&#45;&gt;Node1 -->
<g id="edge5" class="edge">
<title>Node6&#45;&gt;Node1</title>
<path fill="none" stroke="#404040" d="M389.5,-798.33C380.76,-766.13 367.4,-716.93 352.72,-662.84"/>
<polygon fill="none" stroke="#404040" points="352.71,-662.81 347.27,-658.07 349.56,-651.23 355,-655.97 352.71,-662.81"/>
<text text-anchor="middle" x="414.5" y="-750" font-family="Helvetica,sans-Serif" font-size="10.00"> &#45;thread_count</text>
</g>
<!-- Node7 -->
<g id="node7" class="node">
<title>Node7</title>
<g id="a_node7"><a xlink:title=" ">
<polygon fill="white" stroke="#bfbfbf" points="482,-809.5 482,-866.5 550,-866.5 550,-809.5 482,-809.5"/>
<text text-anchor="middle" x="516" y="-854.5" font-family="Helvetica,sans-Serif" font-size="10.00">unique_ptr&lt;</text>
<polyline fill="none" stroke="#bfbfbf" points="482,-847.5 550,-847.5 "/>
<text text-anchor="middle" x="516" y="-835.5" font-family="Helvetica,sans-Serif" font-size="10.00"> </text>
<polyline fill="none" stroke="#bfbfbf" points="482,-828.5 550,-828.5 "/>
<text text-anchor="middle" x="516" y="-816.5" font-family="Helvetica,sans-Serif" font-size="10.00"> </text>
</a>
</g>
</g>
<!-- Node7&#45;&gt;Node1 -->
<g id="edge6" class="edge">
<title>Node7&#45;&gt;Node1</title>
<path fill="none" stroke="#404040" d="M501.83,-809.33C473.76,-754.49 409.11,-628.2 355.04,-522.58"/>
<polygon fill="none" stroke="#404040" points="354.98,-522.46 348.68,-518.94 349.51,-511.77 355.81,-515.29 354.98,-522.46"/>
<text text-anchor="middle" x="504.5" y="-750" font-family="Helvetica,sans-Serif" font-size="10.00"> &#45;threads</text>
</g>
</g>
</svg>
