<?xml version="1.0" encoding="UTF-8" standalone="no"?>
<!DOCTYPE svg PUBLIC "-//W3C//DTD SVG 1.1//EN"
 "http://www.w3.org/Graphics/SVG/1.1/DTD/svg11.dtd">
<!-- Generated by graphviz version 9.0.0 (0)
 -->
<!-- Title: MiraiCP::RemoteFile::deserializeFromString Pages: 1 -->
<svg width="300pt" height="104pt"
 viewBox="0.00 0.00 299.50 104.00" xmlns="http://www.w3.org/2000/svg" xmlns:xlink="http://www.w3.org/1999/xlink">
<g id="graph0" class="graph" transform="scale(1 1) rotate(0) translate(4 100)">
<title>MiraiCP::RemoteFile::deserializeFromString</title>
<!-- Node1 -->
<g id="Node000001" class="node">
<title>Node1</title>
<g id="a_Node000001"><a xlink:title=" ">
<polygon fill="#999999" stroke="#666666" points="291.5,-64 175,-64 175,-32 291.5,-32 291.5,-64"/>
<text text-anchor="start" x="183" y="-50.5" font-family="Helvetica,sans-Serif" font-size="10.00">MiraiCP::RemoteFile</text>
<text text-anchor="middle" x="233.25" y="-38.5" font-family="Helvetica,sans-Serif" font-size="10.00">::deserializeFromString</text>
</a>
</g>
</g>
<!-- Node2 -->
<g id="Node000002" class="node">
<title>Node2</title>
<g id="a_Node000002"><a xlink:href="a00624.html#a8ebc1c344a0b0fd9de68aa0bb597d2a5" target="_top" xlink:title=" ">
<polygon fill="white" stroke="#666666" points="128.88,-96 10.12,-96 10.12,-76 128.88,-76 128.88,-96"/>
<text text-anchor="middle" x="69.5" y="-82.5" font-family="Helvetica,sans-Serif" font-size="10.00">MiraiCP::Group::getFile</text>
</a>
</g>
</g>
<!-- Node1&#45;&gt;Node2 -->
<g id="edge1_Node000001_Node000002" class="edge">
<title>Node1&#45;&gt;Node2</title>
<g id="a_edge1_Node000001_Node000002"><a xlink:title=" ">
<path fill="none" stroke="#63b8ff" d="M164.03,-64.03C147.49,-67.91 130.22,-71.97 115.09,-75.53"/>
<polygon fill="#63b8ff" stroke="#63b8ff" points="164.36,-67.54 173.29,-61.85 162.76,-60.73 164.36,-67.54"/>
</a>
</g>
</g>
<!-- Node3 -->
<g id="Node000003" class="node">
<title>Node3</title>
<g id="a_Node000003"><a xlink:href="a00624.html#a0f975b9bfbedb9d5d4fee9b95c9dbe65" target="_top" xlink:title="取文件信息(根据id)">
<polygon fill="white" stroke="#666666" points="139,-58 0,-58 0,-38 139,-38 139,-58"/>
<text text-anchor="middle" x="69.5" y="-44.5" font-family="Helvetica,sans-Serif" font-size="10.00">MiraiCP::Group::getFileById</text>
</a>
</g>
</g>
<!-- Node1&#45;&gt;Node3 -->
<g id="edge2_Node000001_Node000003" class="edge">
<title>Node1&#45;&gt;Node3</title>
<g id="a_edge2_Node000001_Node000003"><a xlink:title=" ">
<path fill="none" stroke="#63b8ff" d="M163.32,-48C155.41,-48 147.34,-48 139.42,-48"/>
<polygon fill="#63b8ff" stroke="#63b8ff" points="163.25,-51.5 173.25,-48 163.25,-44.5 163.25,-51.5"/>
</a>
</g>
</g>
<!-- Node4 -->
<g id="Node000004" class="node">
<title>Node4</title>
<g id="a_Node000004"><a xlink:href="a00624.html#aed703d0ece4a7a9e8a1fe8e5f80eadbc" target="_top" xlink:title="上传并发送远程(群)文件">
<polygon fill="white" stroke="#666666" points="132.62,-20 6.38,-20 6.38,0 132.62,0 132.62,-20"/>
<text text-anchor="middle" x="69.5" y="-6.5" font-family="Helvetica,sans-Serif" font-size="10.00">MiraiCP::Group::sendFile</text>
</a>
</g>
</g>
<!-- Node1&#45;&gt;Node4 -->
<g id="edge3_Node000001_Node000004" class="edge">
<title>Node1&#45;&gt;Node4</title>
<g id="a_edge3_Node000001_Node000004"><a xlink:title=" ">
<path fill="none" stroke="#63b8ff" d="M164.03,-31.97C147.49,-28.09 130.22,-24.03 115.09,-20.47"/>
<polygon fill="#63b8ff" stroke="#63b8ff" points="162.76,-35.27 173.29,-34.15 164.36,-28.46 162.76,-35.27"/>
</a>
</g>
</g>
</g>
</svg>
