<?xml version="1.0" encoding="UTF-8" standalone="no"?>
<!DOCTYPE svg PUBLIC "-//W3C//DTD SVG 1.1//EN"
 "http://www.w3.org/Graphics/SVG/1.1/DTD/svg11.dtd">
<!-- Generated by graphviz version 9.0.0 (0)
 -->
<!-- Title: MiraiCP::RemoteFile::Finfo Pages: 1 -->
<svg width="189pt" height="196pt"
 viewBox="0.00 0.00 189.25 196.00" xmlns="http://www.w3.org/2000/svg" xmlns:xlink="http://www.w3.org/1999/xlink">
<g id="graph0" class="graph" transform="scale(1 1) rotate(0) translate(4 192)">
<title>MiraiCP::RemoteFile::Finfo</title>
<!-- Node1 -->
<g id="Node000001" class="node">
<title>Node1</title>
<g id="a_Node000001"><a xlink:title="文件信息">
<polygon fill="#999999" stroke="none" points="135,-64 34,-64 34,0 135,0 135,-64"/>
<text text-anchor="start" x="38.75" y="-50.5" font-family="Helvetica,sans-Serif" font-size="10.00">MiraiCP::RemoteFile</text>
<text text-anchor="start" x="70.62" y="-38.5" font-family="Helvetica,sans-Serif" font-size="10.00">::Finfo</text>
<text text-anchor="start" x="83" y="-22.5" font-family="Helvetica,sans-Serif" font-size="10.00"> </text>
<text text-anchor="start" x="83" y="-6.5" font-family="Helvetica,sans-Serif" font-size="10.00"> </text>
<polygon fill="#666666" stroke="#666666" points="34,-34 34,-34 135,-34 135,-34 34,-34"/>
<polygon fill="#666666" stroke="#666666" points="34,-18 34,-18 135,-18 135,-18 34,-18"/>
<polygon fill="none" stroke="#666666" points="34,0 34,-64 135,-64 135,0 34,0"/>
</a>
</g>
</g>
<!-- Node2 -->
<g id="Node000002" class="node">
<title>Node2</title>
<g id="a_Node000002"><a xlink:title=" ">
<polygon fill="white" stroke="none" points="91,-188 0,-188 0,-136 91,-136 91,-188"/>
<text text-anchor="start" x="5" y="-174.5" font-family="Helvetica,sans-Serif" font-size="10.00">unsigned long long</text>
<text text-anchor="start" x="44" y="-158.5" font-family="Helvetica,sans-Serif" font-size="10.00"> </text>
<text text-anchor="start" x="44" y="-142.5" font-family="Helvetica,sans-Serif" font-size="10.00"> </text>
<polygon fill="#666666" stroke="#666666" points="0,-170 0,-170 91,-170 91,-170 0,-170"/>
<polygon fill="#666666" stroke="#666666" points="0,-154 0,-154 91,-154 91,-154 0,-154"/>
<polygon fill="none" stroke="#666666" points="0,-136 0,-188 91,-188 91,-136 0,-136"/>
</a>
</g>
</g>
<!-- Node2&#45;&gt;Node1 -->
<g id="edge1_Node000001_Node000002" class="edge">
<title>Node2&#45;&gt;Node1</title>
<g id="a_edge1_Node000001_Node000002"><a xlink:title=" ">
<path fill="none" stroke="#63b8ff" d="M44.05,-136.13C43.91,-120.24 45.2,-99.41 51.25,-82 52.03,-79.77 52.93,-77.54 53.94,-75.33"/>
<polygon fill="none" stroke="#63b8ff" points="53.99,-75.23 53.3,-68.05 59.66,-64.65 60.35,-71.83 53.99,-75.23"/>
</a>
</g>
<text text-anchor="middle" x="75.62" y="-102.5" font-family="Helvetica,sans-Serif" font-size="10.00" fill="grey"> +size</text>
<text text-anchor="middle" x="75.62" y="-90.5" font-family="Helvetica,sans-Serif" font-size="10.00" fill="grey">+uploaderid</text>
</g>
<!-- Node3 -->
<g id="Node000003" class="node">
<title>Node3</title>
<g id="a_Node000003"><a xlink:title=" ">
<polygon fill="white" stroke="none" points="137.5,-188 109.5,-188 109.5,-136 137.5,-136 137.5,-188"/>
<text text-anchor="start" x="114.5" y="-174.5" font-family="Helvetica,sans-Serif" font-size="10.00">long</text>
<text text-anchor="start" x="122" y="-158.5" font-family="Helvetica,sans-Serif" font-size="10.00"> </text>
<text text-anchor="start" x="122" y="-142.5" font-family="Helvetica,sans-Serif" font-size="10.00"> </text>
<polygon fill="#666666" stroke="#666666" points="109.5,-170 109.5,-170 137.5,-170 137.5,-170 109.5,-170"/>
<polygon fill="#666666" stroke="#666666" points="109.5,-154 109.5,-154 137.5,-154 137.5,-154 109.5,-154"/>
<polygon fill="none" stroke="#666666" points="109.5,-136 109.5,-188 137.5,-188 137.5,-136 109.5,-136"/>
</a>
</g>
</g>
<!-- Node3&#45;&gt;Node1 -->
<g id="edge2_Node000001_Node000003" class="edge">
<title>Node3&#45;&gt;Node1</title>
<g id="a_edge2_Node000001_Node000003"><a xlink:title=" ">
<path fill="none" stroke="#63b8ff" d="M117.05,-136.33C112.86,-120.69 107.15,-100.07 101.5,-82 100.89,-80.05 100.26,-78.07 99.61,-76.07"/>
<polygon fill="none" stroke="#63b8ff" points="99.58,-75.98 93.89,-71.56 95.78,-64.6 101.48,-69.03 99.58,-75.98"/>
</a>
</g>
<text text-anchor="middle" x="146.38" y="-108.5" font-family="Helvetica,sans-Serif" font-size="10.00" fill="grey"> +expirytime</text>
<text text-anchor="middle" x="146.38" y="-96.5" font-family="Helvetica,sans-Serif" font-size="10.00" fill="grey">+lastmodifytime</text>
<text text-anchor="middle" x="146.38" y="-84.5" font-family="Helvetica,sans-Serif" font-size="10.00" fill="grey">+uploadtime</text>
</g>
</g>
</svg>
