<?xml version="1.0" encoding="UTF-8" standalone="no"?>
<!DOCTYPE svg PUBLIC "-//W3C//DTD SVG 1.1//EN"
 "http://www.w3.org/Graphics/SVG/1.1/DTD/svg11.dtd">
<!-- Generated by graphviz version 2.50.0 (20211204.2007)
 -->
<!-- Title: LibLoader::LoaderBaseException::raise Pages: 1 -->
<svg width="1187pt" height="95pt"
 viewBox="0.00 0.00 1187.00 95.00" xmlns="http://www.w3.org/2000/svg" xmlns:xlink="http://www.w3.org/1999/xlink">
<g id="graph0" class="graph" transform="scale(1 1) rotate(0) translate(4 91)">
<title>LibLoader::LoaderBaseException::raise</title>
<polygon fill="white" stroke="transparent" points="-4,4 -4,-91 1183,-91 1183,4 -4,4"/>
<!-- Node1 -->
<g id="node1" class="node">
<title>Node1</title>
<g id="a_node1"><a xlink:title=" ">
<polygon fill="#bfbfbf" stroke="black" points="0,-25.5 0,-55.5 160,-55.5 160,-25.5 0,-25.5"/>
<text text-anchor="start" x="8" y="-43.5" font-family="Helvetica,sans-Serif" font-size="10.00">LibLoader::LoaderBaseException</text>
<text text-anchor="middle" x="80" y="-32.5" font-family="Helvetica,sans-Serif" font-size="10.00">::raise</text>
</a>
</g>
</g>
<!-- Node2 -->
<g id="node2" class="node">
<title>Node2</title>
<g id="a_node2"><a xlink:href="a00805.html#ae735f16b20f681d29d4e5d28ad248dbe" target="_top" xlink:title=" ">
<polygon fill="white" stroke="black" points="196,-25.5 196,-55.5 319,-55.5 319,-25.5 196,-25.5"/>
<text text-anchor="start" x="204" y="-43.5" font-family="Helvetica,sans-Serif" font-size="10.00">LibLoader::LoaderLogger</text>
<text text-anchor="middle" x="257.5" y="-32.5" font-family="Helvetica,sans-Serif" font-size="10.00">::error</text>
</a>
</g>
</g>
<!-- Node1&#45;&gt;Node2 -->
<g id="edge1" class="edge">
<title>Node1&#45;&gt;Node2</title>
<path fill="none" stroke="midnightblue" d="M160.02,-40.5C168.56,-40.5 177.21,-40.5 185.64,-40.5"/>
<polygon fill="midnightblue" stroke="midnightblue" points="185.8,-44 195.8,-40.5 185.8,-37 185.8,-44"/>
</g>
<!-- Node3 -->
<g id="node3" class="node">
<title>Node3</title>
<g id="a_node3"><a xlink:href="a00805.html#af4d7d5164450e25f7401d1cc15f15b8d" target="_top" xlink:title="实际暴露的接口">
<polygon fill="white" stroke="black" points="355,-25.5 355,-55.5 478,-55.5 478,-25.5 355,-25.5"/>
<text text-anchor="start" x="363" y="-43.5" font-family="Helvetica,sans-Serif" font-size="10.00">LibLoader::LoaderLogger</text>
<text text-anchor="middle" x="416.5" y="-32.5" font-family="Helvetica,sans-Serif" font-size="10.00">::call_logger</text>
</a>
</g>
</g>
<!-- Node2&#45;&gt;Node3 -->
<g id="edge2" class="edge">
<title>Node2&#45;&gt;Node3</title>
<path fill="none" stroke="midnightblue" d="M319.2,-40.5C327.64,-40.5 336.36,-40.5 344.95,-40.5"/>
<polygon fill="midnightblue" stroke="midnightblue" points="344.96,-44 354.96,-40.5 344.96,-37 344.96,-44"/>
</g>
<!-- Node4 -->
<g id="node4" class="node">
<title>Node4</title>
<g id="a_node4"><a xlink:href="a00409.html#a076c5f4ff8083c7cfc6523498d0ba30f" target="_top" xlink:title=" ">
<polygon fill="white" stroke="black" points="669,-56.5 669,-86.5 768,-86.5 768,-56.5 669,-56.5"/>
<text text-anchor="start" x="677" y="-74.5" font-family="Helvetica,sans-Serif" font-size="10.00">LibLoader::JNIEnvs</text>
<text text-anchor="middle" x="718.5" y="-63.5" font-family="Helvetica,sans-Serif" font-size="10.00">::getEnv</text>
</a>
</g>
</g>
<!-- Node3&#45;&gt;Node4 -->
<g id="edge3" class="edge">
<title>Node3&#45;&gt;Node4</title>
<path fill="none" stroke="midnightblue" d="M478.04,-53.72C489.91,-55.95 502.31,-58.01 514,-59.5 562.55,-65.68 618.02,-68.69 658.78,-70.14"/>
<polygon fill="midnightblue" stroke="midnightblue" points="658.7,-73.64 668.81,-70.48 658.93,-66.65 658.7,-73.64"/>
</g>
<!-- Node8 -->
<g id="node8" class="node">
<title>Node8</title>
<g id="a_node8"><a xlink:href="a00404.html#a6a6fcd695791253a9b3a053d313b2b93" target="_top" xlink:title=" ">
<polygon fill="white" stroke="black" points="514,-31 514,-50 621,-50 621,-31 514,-31"/>
<text text-anchor="middle" x="567.5" y="-38" font-family="Helvetica,sans-Serif" font-size="10.00">LibLoader::str2jstring</text>
</a>
</g>
</g>
<!-- Node3&#45;&gt;Node8 -->
<g id="edge7" class="edge">
<title>Node3&#45;&gt;Node8</title>
<path fill="none" stroke="midnightblue" d="M478.1,-40.5C486.47,-40.5 495.07,-40.5 503.48,-40.5"/>
<polygon fill="midnightblue" stroke="midnightblue" points="503.6,-44 513.6,-40.5 503.6,-37 503.6,-44"/>
</g>
<!-- Node5 -->
<g id="node5" class="node">
<title>Node5</title>
<g id="a_node5"><a xlink:href="a00773.html#aea7d58ff9f04d6d4849c25a2506603a5" target="_top" xlink:title="取env,如果不存在重新获取">
<polygon fill="white" stroke="black" points="816,-62 816,-81 935,-81 935,-62 816,-62"/>
<text text-anchor="middle" x="875.5" y="-69" font-family="Helvetica,sans-Serif" font-size="10.00">JNIEnvManager::getEnv</text>
</a>
</g>
</g>
<!-- Node4&#45;&gt;Node5 -->
<g id="edge4" class="edge">
<title>Node4&#45;&gt;Node5</title>
<path fill="none" stroke="midnightblue" d="M768.12,-71.5C780.1,-71.5 793.15,-71.5 805.88,-71.5"/>
<polygon fill="midnightblue" stroke="midnightblue" points="805.99,-75 815.99,-71.5 805.99,-68 805.99,-75"/>
</g>
<!-- Node6 -->
<g id="node6" class="node">
<title>Node6</title>
<g id="a_node6"><a xlink:href="a00203.html#a3d31403b7971274d47d308245206bd24" target="_top" xlink:title="为当前线程创建一个env.">
<polygon fill="white" stroke="black" points="971,-62 971,-81 1021,-81 1021,-62 971,-62"/>
<text text-anchor="middle" x="996" y="-69" font-family="Helvetica,sans-Serif" font-size="10.00">newEnv</text>
</a>
</g>
</g>
<!-- Node5&#45;&gt;Node6 -->
<g id="edge5" class="edge">
<title>Node5&#45;&gt;Node6</title>
<path fill="none" stroke="midnightblue" d="M935.06,-71.5C943.89,-71.5 952.75,-71.5 960.85,-71.5"/>
<polygon fill="midnightblue" stroke="midnightblue" points="960.98,-75 970.98,-71.5 960.98,-68 960.98,-75"/>
</g>
<!-- Node7 -->
<g id="node7" class="node">
<title>Node7</title>
<g id="a_node7"><a xlink:href="a00773.html#ae0e482c6a813848a8f5d34957d1b6307" target="_top" xlink:title="获取全局JavaVM对象.">
<polygon fill="white" stroke="black" points="1057,-62 1057,-81 1179,-81 1179,-62 1057,-62"/>
<text text-anchor="middle" x="1118" y="-69" font-family="Helvetica,sans-Serif" font-size="10.00">JNIEnvManager::getGvm</text>
</a>
</g>
</g>
<!-- Node6&#45;&gt;Node7 -->
<g id="edge6" class="edge">
<title>Node6&#45;&gt;Node7</title>
<path fill="none" stroke="midnightblue" d="M1021.28,-71.5C1028.75,-71.5 1037.37,-71.5 1046.32,-71.5"/>
<polygon fill="midnightblue" stroke="midnightblue" points="1046.52,-75 1056.52,-71.5 1046.52,-68 1046.52,-75"/>
</g>
<!-- Node8&#45;&gt;Node4 -->
<g id="edge8" class="edge">
<title>Node8&#45;&gt;Node4</title>
<path fill="none" stroke="midnightblue" d="M614.42,-50.05C628.45,-52.97 644.08,-56.23 658.84,-59.3"/>
<polygon fill="midnightblue" stroke="midnightblue" points="658.39,-62.78 668.89,-61.39 659.81,-55.92 658.39,-62.78"/>
</g>
<!-- Node9 -->
<g id="node9" class="node">
<title>Node9</title>
<g id="a_node9"><a xlink:href="a00805.html#af50d0545fe7d683e54fcd03453a423e3" target="_top" xlink:title=" ">
<polygon fill="white" stroke="black" points="657,-0.5 657,-30.5 780,-30.5 780,-0.5 657,-0.5"/>
<text text-anchor="start" x="665" y="-18.5" font-family="Helvetica,sans-Serif" font-size="10.00">LibLoader::LoaderLogger</text>
<text text-anchor="middle" x="718.5" y="-7.5" font-family="Helvetica,sans-Serif" font-size="10.00">::warning</text>
</a>
</g>
</g>
<!-- Node8&#45;&gt;Node9 -->
<g id="edge9" class="edge">
<title>Node8&#45;&gt;Node9</title>
<path fill="none" stroke="midnightblue" d="M621.03,-31.69C629.34,-30.29 638.05,-28.83 646.7,-27.38"/>
<polygon fill="midnightblue" stroke="midnightblue" points="647.5,-30.79 656.79,-25.69 646.35,-23.89 647.5,-30.79"/>
</g>
<!-- Node9&#45;&gt;Node3 -->
<g id="edge10" class="edge">
<title>Node9&#45;&gt;Node3</title>
<path fill="none" stroke="midnightblue" d="M656.76,-14.68C616.22,-14.77 561.77,-16.13 514,-21.5 505.58,-22.45 496.81,-23.74 488.13,-25.21"/>
<polygon fill="midnightblue" stroke="midnightblue" points="487.24,-21.81 478.01,-27 488.46,-28.7 487.24,-21.81"/>
</g>
</g>
</svg>
