<?xml version="1.0" encoding="UTF-8" standalone="no"?>
<!DOCTYPE svg PUBLIC "-//W3C//DTD SVG 1.1//EN"
 "http://www.w3.org/Graphics/SVG/1.1/DTD/svg11.dtd">
<!-- Generated by graphviz version 9.0.0 (0)
 -->
<!-- Title: MiraiCP::MarketFace Pages: 1 -->
<svg width="195pt" height="667pt"
 viewBox="0.00 0.00 195.00 667.00" xmlns="http://www.w3.org/2000/svg" xmlns:xlink="http://www.w3.org/1999/xlink">
<g id="graph0" class="graph" transform="scale(1 1) rotate(0) translate(4 663)">
<title>MiraiCP::MarketFace</title>
<!-- Node1 -->
<g id="Node000001" class="node">
<title>Node1</title>
<g id="a_Node000001"><a xlink:title=" ">
<polygon fill="#999999" stroke="none" points="187,-107 0,-107 0,0 187,0 187,-107"/>
<text text-anchor="start" x="47" y="-93.5" font-family="Helvetica,sans-Serif" font-size="10.00">MiraiCP::MarketFace</text>
<text text-anchor="start" x="4" y="-77.5" font-family="Helvetica,sans-Serif" font-size="10.00">+</text>
<text text-anchor="start" x="14" y="-77.5" font-family="Helvetica,sans-Serif" font-size="10.00">std::array&lt; uint8_t,</text>
<text text-anchor="start" x="14" y="-65.5" font-family="Helvetica,sans-Serif" font-size="10.00"> 16 &gt; faceId</text>
<text text-anchor="start" x="4" y="-49.5" font-family="Helvetica,sans-Serif" font-size="10.00">+</text>
<text text-anchor="start" x="14" y="-49.5" font-family="Helvetica,sans-Serif" font-size="10.00">ShouldNotUse(&quot;暂不支持直接发送&quot;)</text>
<text text-anchor="start" x="14" y="-37.5" font-family="Helvetica,sans-Serif" font-size="10.00"> std bool operator==(const MarketFace</text>
<text text-anchor="start" x="14" y="-25.5" font-family="Helvetica,sans-Serif" font-size="10.00"> &amp;mf) const</text>
<text text-anchor="start" x="4" y="-6.5" font-family="Helvetica,sans-Serif" font-size="10.00">+</text>
<text text-anchor="start" x="14" y="-6.5" font-family="Helvetica,sans-Serif" font-size="10.00">static int type()</text>
<polygon fill="#666666" stroke="#666666" points="0,-89 0,-89 187,-89 187,-89 0,-89"/>
<polygon fill="#666666" stroke="#666666" points="0,-61 0,-61 12,-61 12,-61 0,-61"/>
<polygon fill="#666666" stroke="#666666" points="12,-61 12,-61 187,-61 187,-61 12,-61"/>
<polygon fill="none" stroke="#666666" points="0,0 0,-107 187,-107 187,0 0,0"/>
</a>
</g>
</g>
<!-- Node2 -->
<g id="Node000002" class="node">
<title>Node2</title>
<g id="a_Node000002"><a xlink:href="a00676.html" target="_top" xlink:title="MessageChain的组成部分">
<polygon fill="white" stroke="none" points="163,-531 24,-531 24,-143 163,-143 163,-531"/>
<text text-anchor="start" x="39.5" y="-517.5" font-family="Helvetica,sans-Serif" font-size="10.00">MiraiCP::SingleMessage</text>
<text text-anchor="start" x="28" y="-501.5" font-family="Helvetica,sans-Serif" font-size="10.00">+</text>
<text text-anchor="start" x="38" y="-501.5" font-family="Helvetica,sans-Serif" font-size="10.00">std::string content</text>
<text text-anchor="start" x="28" y="-485.5" font-family="Helvetica,sans-Serif" font-size="10.00">+</text>
<text text-anchor="start" x="38" y="-485.5" font-family="Helvetica,sans-Serif" font-size="10.00">std::string prefix</text>
<text text-anchor="start" x="28" y="-469.5" font-family="Helvetica,sans-Serif" font-size="10.00">+</text>
<text text-anchor="start" x="38" y="-469.5" font-family="Helvetica,sans-Serif" font-size="10.00">int internalType</text>
<text text-anchor="start" x="28" y="-453.5" font-family="Helvetica,sans-Serif" font-size="10.00">+</text>
<text text-anchor="start" x="38" y="-453.5" font-family="Helvetica,sans-Serif" font-size="10.00">static const char *const</text>
<text text-anchor="start" x="38" y="-441.5" font-family="Helvetica,sans-Serif" font-size="10.00"> &#160;*const messageType</text>
<text text-anchor="start" x="28" y="-425.5" font-family="Helvetica,sans-Serif" font-size="10.00">+</text>
<text text-anchor="start" x="38" y="-425.5" font-family="Helvetica,sans-Serif" font-size="10.00">static const char *const</text>
<text text-anchor="start" x="38" y="-413.5" font-family="Helvetica,sans-Serif" font-size="10.00"> &#160;*const miraiCodeName</text>
<text text-anchor="start" x="28" y="-397.5" font-family="Helvetica,sans-Serif" font-size="10.00">+</text>
<text text-anchor="start" x="38" y="-397.5" font-family="Helvetica,sans-Serif" font-size="10.00">SingleMessage(int</text>
<text text-anchor="start" x="38" y="-385.5" font-family="Helvetica,sans-Serif" font-size="10.00"> inType, std::string</text>
<text text-anchor="start" x="38" y="-373.5" font-family="Helvetica,sans-Serif" font-size="10.00"> content, std::string</text>
<text text-anchor="start" x="38" y="-361.5" font-family="Helvetica,sans-Serif" font-size="10.00"> prefix=&quot;:&quot;) noexcept</text>
<text text-anchor="start" x="28" y="-345.5" font-family="Helvetica,sans-Serif" font-size="10.00">+</text>
<text text-anchor="start" x="38" y="-345.5" font-family="Helvetica,sans-Serif" font-size="10.00">~SingleMessage() noexcept</text>
<text text-anchor="start" x="38" y="-333.5" font-family="Helvetica,sans-Serif" font-size="10.00"> override=default</text>
<text text-anchor="start" x="28" y="-317.5" font-family="Helvetica,sans-Serif" font-size="10.00">+</text>
<text text-anchor="start" x="38" y="-317.5" font-family="Helvetica,sans-Serif" font-size="10.00">virtual nlohmann::json</text>
<text text-anchor="start" x="38" y="-305.5" font-family="Helvetica,sans-Serif" font-size="10.00"> toJson() const</text>
<text text-anchor="start" x="28" y="-289.5" font-family="Helvetica,sans-Serif" font-size="10.00">+</text>
<text text-anchor="start" x="38" y="-289.5" font-family="Helvetica,sans-Serif" font-size="10.00">std::string toMiraiCode</text>
<text text-anchor="start" x="38" y="-277.5" font-family="Helvetica,sans-Serif" font-size="10.00">() const override</text>
<text text-anchor="start" x="28" y="-261.5" font-family="Helvetica,sans-Serif" font-size="10.00">+</text>
<text text-anchor="start" x="38" y="-261.5" font-family="Helvetica,sans-Serif" font-size="10.00">bool operator==(const</text>
<text text-anchor="start" x="38" y="-249.5" font-family="Helvetica,sans-Serif" font-size="10.00"> SingleMessage &amp;m) const</text>
<text text-anchor="start" x="28" y="-233.5" font-family="Helvetica,sans-Serif" font-size="10.00">+</text>
<text text-anchor="start" x="38" y="-233.5" font-family="Helvetica,sans-Serif" font-size="10.00">static std::string</text>
<text text-anchor="start" x="38" y="-221.5" font-family="Helvetica,sans-Serif" font-size="10.00"> getTypeString(int type)</text>
<text text-anchor="start" x="28" y="-205.5" font-family="Helvetica,sans-Serif" font-size="10.00">+</text>
<text text-anchor="start" x="38" y="-205.5" font-family="Helvetica,sans-Serif" font-size="10.00">static int getKey(const</text>
<text text-anchor="start" x="38" y="-193.5" font-family="Helvetica,sans-Serif" font-size="10.00"> std::string &amp;value)</text>
<text text-anchor="start" x="28" y="-177.5" font-family="Helvetica,sans-Serif" font-size="10.00">+</text>
<text text-anchor="start" x="38" y="-177.5" font-family="Helvetica,sans-Serif" font-size="10.00">static int getMiraiCodeKey</text>
<text text-anchor="start" x="38" y="-165.5" font-family="Helvetica,sans-Serif" font-size="10.00">(const std::string &amp;value)</text>
<text text-anchor="start" x="28.38" y="-149.5" font-family="Helvetica,sans-Serif" font-size="10.00">#</text>
<text text-anchor="start" x="38" y="-149.5" font-family="Helvetica,sans-Serif" font-size="10.00">SingleMessage()=default</text>
<polygon fill="#666666" stroke="#666666" points="24,-513 24,-513 163,-513 163,-513 24,-513"/>
<polygon fill="#666666" stroke="#666666" points="24,-409 24,-409 36,-409 36,-409 24,-409"/>
<polygon fill="#666666" stroke="#666666" points="36,-409 36,-409 163,-409 163,-409 36,-409"/>
<polygon fill="none" stroke="#666666" points="24,-143 24,-531 163,-531 163,-143 24,-143"/>
</a>
</g>
</g>
<!-- Node2&#45;&gt;Node1 -->
<g id="edge1_Node000001_Node000002" class="edge">
<title>Node2&#45;&gt;Node1</title>
<g id="a_edge1_Node000001_Node000002"><a xlink:title=" ">
<path fill="none" stroke="#63b8ff" d="M93.5,-131.72C93.5,-122.84 93.5,-114.38 93.5,-106.55"/>
<polygon fill="none" stroke="#63b8ff" points="90,-131.67 93.5,-141.67 97,-131.67 90,-131.67"/>
</a>
</g>
</g>
<!-- Node3 -->
<g id="Node000003" class="node">
<title>Node3</title>
<g id="a_Node000003"><a xlink:href="a00660.html" target="_top" xlink:title="MiraiCode父类, 指可以被转换成miraicode的类型">
<polygon fill="white" stroke="none" points="153.5,-659 33.5,-659 33.5,-567 153.5,-567 153.5,-659"/>
<text text-anchor="start" x="41.75" y="-645.5" font-family="Helvetica,sans-Serif" font-size="10.00">MiraiCP::MiraiCodeable</text>
<text text-anchor="start" x="92" y="-629.5" font-family="Helvetica,sans-Serif" font-size="10.00"> </text>
<text text-anchor="start" x="37.5" y="-613.5" font-family="Helvetica,sans-Serif" font-size="10.00">+</text>
<text text-anchor="start" x="47.5" y="-613.5" font-family="Helvetica,sans-Serif" font-size="10.00">virtual std::string</text>
<text text-anchor="start" x="47.5" y="-601.5" font-family="Helvetica,sans-Serif" font-size="10.00"> toMiraiCode() const =0</text>
<text text-anchor="start" x="37.5" y="-585.5" font-family="Helvetica,sans-Serif" font-size="10.00">+</text>
<text text-anchor="start" x="47.5" y="-585.5" font-family="Helvetica,sans-Serif" font-size="10.00">virtual ~MiraiCodeable</text>
<text text-anchor="start" x="47.5" y="-573.5" font-family="Helvetica,sans-Serif" font-size="10.00">()=default</text>
<polygon fill="#666666" stroke="#666666" points="33.5,-641 33.5,-641 153.5,-641 153.5,-641 33.5,-641"/>
<polygon fill="#666666" stroke="#666666" points="33.5,-625 33.5,-625 153.5,-625 153.5,-625 33.5,-625"/>
<polygon fill="none" stroke="#666666" points="33.5,-567 33.5,-659 153.5,-659 153.5,-567 33.5,-567"/>
</a>
</g>
</g>
<!-- Node3&#45;&gt;Node2 -->
<g id="edge2_Node000002_Node000003" class="edge">
<title>Node3&#45;&gt;Node2</title>
<g id="a_edge2_Node000002_Node000003"><a xlink:title=" ">
<path fill="none" stroke="#63b8ff" d="M93.5,-555.66C93.5,-547.86 93.5,-539.51 93.5,-530.8"/>
<polygon fill="none" stroke="#63b8ff" points="90,-555.55 93.5,-565.55 97,-555.55 90,-555.55"/>
</a>
</g>
</g>
</g>
</svg>
