<?xml version="1.0" encoding="UTF-8" standalone="no"?>
<!DOCTYPE svg PUBLIC "-//W3C//DTD SVG 1.1//EN"
 "http://www.w3.org/Graphics/SVG/1.1/DTD/svg11.dtd">
<!-- Generated by graphviz version 2.50.0 (20211204.2007)
 -->
<!-- Title: MiraiCP::MusicShare Pages: 1 -->
<svg width="416pt" height="618pt"
 viewBox="0.00 0.00 416.00 618.00" xmlns="http://www.w3.org/2000/svg" xmlns:xlink="http://www.w3.org/1999/xlink">
<g id="graph0" class="graph" transform="scale(1 1) rotate(0) translate(4 614)">
<title>MiraiCP::MusicShare</title>
<polygon fill="white" stroke="transparent" points="-4,4 -4,-614 412,-614 412,4 -4,4"/>
<!-- Node1 -->
<g id="node1" class="node">
<title>Node1</title>
<g id="a_node1"><a xlink:title="一些可以被mirai识别的音乐卡片, 如果不能被mirai识别, 那应该被表现成lightApp类型(可能收费/vip歌曲用lightApp, 免费用MusicShare)">
<polygon fill="#bfbfbf" stroke="black" points="0,-0.5 0,-145.5 131,-145.5 131,-0.5 0,-0.5"/>
<text text-anchor="middle" x="65.5" y="-133.5" font-family="Helvetica,sans-Serif" font-size="10.00">MiraiCP::MusicShare</text>
<polyline fill="none" stroke="black" points="0,-126.5 131,-126.5 "/>
<text text-anchor="middle" x="65.5" y="-114.5" font-family="Helvetica,sans-Serif" font-size="10.00"> </text>
<polyline fill="none" stroke="black" points="0,-107.5 131,-107.5 "/>
<text text-anchor="start" x="8" y="-95.5" font-family="Helvetica,sans-Serif" font-size="10.00">+ std::string toMiraiCode</text>
<text text-anchor="start" x="8" y="-84.5" font-family="Helvetica,sans-Serif" font-size="10.00">() const override</text>
<text text-anchor="start" x="8" y="-73.5" font-family="Helvetica,sans-Serif" font-size="10.00">+ MusicShare(std::string</text>
<text text-anchor="start" x="8" y="-62.5" font-family="Helvetica,sans-Serif" font-size="10.00"> appName, std::string</text>
<text text-anchor="start" x="8" y="-51.5" font-family="Helvetica,sans-Serif" font-size="10.00"> title, std::string summary,</text>
<text text-anchor="start" x="8" y="-40.5" font-family="Helvetica,sans-Serif" font-size="10.00"> std::string jumpUrl, std</text>
<text text-anchor="start" x="8" y="-29.5" font-family="Helvetica,sans-Serif" font-size="10.00">::string picUrl, std::string</text>
<text text-anchor="start" x="8" y="-18.5" font-family="Helvetica,sans-Serif" font-size="10.00"> musicUrl, std::string brief)</text>
<text text-anchor="start" x="8" y="-7.5" font-family="Helvetica,sans-Serif" font-size="10.00">+ static int type()</text>
</a>
</g>
</g>
<!-- Node2 -->
<g id="node2" class="node">
<title>Node2</title>
<g id="a_node2"><a xlink:href="a00729.html" target="_top" xlink:title="MessageChain的组成部分">
<polygon fill="white" stroke="black" points="90.5,-183.5 90.5,-460.5 254.5,-460.5 254.5,-183.5 90.5,-183.5"/>
<text text-anchor="middle" x="172.5" y="-448.5" font-family="Helvetica,sans-Serif" font-size="10.00">MiraiCP::SingleMessage</text>
<polyline fill="none" stroke="black" points="90.5,-441.5 254.5,-441.5 "/>
<text text-anchor="middle" x="172.5" y="-429.5" font-family="Helvetica,sans-Serif" font-size="10.00"> </text>
<polyline fill="none" stroke="black" points="90.5,-422.5 254.5,-422.5 "/>
<text text-anchor="start" x="98.5" y="-410.5" font-family="Helvetica,sans-Serif" font-size="10.00">+ SingleMessage(int</text>
<text text-anchor="start" x="98.5" y="-399.5" font-family="Helvetica,sans-Serif" font-size="10.00"> inType, std::string</text>
<text text-anchor="start" x="98.5" y="-388.5" font-family="Helvetica,sans-Serif" font-size="10.00"> content, std::string</text>
<text text-anchor="start" x="98.5" y="-377.5" font-family="Helvetica,sans-Serif" font-size="10.00"> prefix=&quot;:&quot;) noexcept</text>
<text text-anchor="start" x="98.5" y="-366.5" font-family="Helvetica,sans-Serif" font-size="10.00">+ virtual ~SingleMessage</text>
<text text-anchor="start" x="98.5" y="-355.5" font-family="Helvetica,sans-Serif" font-size="10.00">() noexcept=default</text>
<text text-anchor="start" x="98.5" y="-344.5" font-family="Helvetica,sans-Serif" font-size="10.00">+ virtual nlohmann::json</text>
<text text-anchor="start" x="98.5" y="-333.5" font-family="Helvetica,sans-Serif" font-size="10.00"> toJson() const</text>
<text text-anchor="start" x="98.5" y="-322.5" font-family="Helvetica,sans-Serif" font-size="10.00">+ std::string toMiraiCode</text>
<text text-anchor="start" x="98.5" y="-311.5" font-family="Helvetica,sans-Serif" font-size="10.00">() const override</text>
<text text-anchor="start" x="98.5" y="-300.5" font-family="Helvetica,sans-Serif" font-size="10.00">+ bool operator==(const</text>
<text text-anchor="start" x="98.5" y="-289.5" font-family="Helvetica,sans-Serif" font-size="10.00"> SingleMessage &amp;m) const</text>
<text text-anchor="start" x="98.5" y="-278.5" font-family="Helvetica,sans-Serif" font-size="10.00">+ bool operator==(SingleMessage</text>
<text text-anchor="start" x="98.5" y="-267.5" font-family="Helvetica,sans-Serif" font-size="10.00"> *m) const</text>
<text text-anchor="start" x="98.5" y="-256.5" font-family="Helvetica,sans-Serif" font-size="10.00">+ static std::string</text>
<text text-anchor="start" x="98.5" y="-245.5" font-family="Helvetica,sans-Serif" font-size="10.00"> getTypeString(int type)</text>
<text text-anchor="start" x="98.5" y="-234.5" font-family="Helvetica,sans-Serif" font-size="10.00">+ static int getKey(const</text>
<text text-anchor="start" x="98.5" y="-223.5" font-family="Helvetica,sans-Serif" font-size="10.00"> std::string &amp;value)</text>
<text text-anchor="start" x="98.5" y="-212.5" font-family="Helvetica,sans-Serif" font-size="10.00">+ static int getMiraiCodeKey</text>
<text text-anchor="start" x="98.5" y="-201.5" font-family="Helvetica,sans-Serif" font-size="10.00">(const std::string &amp;value)</text>
<text text-anchor="start" x="98.5" y="-190.5" font-family="Helvetica,sans-Serif" font-size="10.00"># SingleMessage()=default</text>
</a>
</g>
</g>
<!-- Node2&#45;&gt;Node1 -->
<g id="edge1" class="edge">
<title>Node2&#45;&gt;Node1</title>
<path fill="none" stroke="midnightblue" d="M108.84,-174.05C104.63,-164.33 100.51,-154.81 96.58,-145.75"/>
<polygon fill="none" stroke="midnightblue" points="105.71,-175.63 112.9,-183.42 112.14,-172.85 105.71,-175.63"/>
</g>
<!-- Node3 -->
<g id="node3" class="node">
<title>Node3</title>
<g id="a_node3"><a xlink:href="a00713.html" target="_top" xlink:title="MiraiCode父类, 指可以被转换成miraicode的类型">
<polygon fill="white" stroke="black" points="287,-519.5 287,-609.5 408,-609.5 408,-519.5 287,-519.5"/>
<text text-anchor="middle" x="347.5" y="-597.5" font-family="Helvetica,sans-Serif" font-size="10.00">MiraiCP::MiraiCodeable</text>
<polyline fill="none" stroke="black" points="287,-590.5 408,-590.5 "/>
<text text-anchor="middle" x="347.5" y="-578.5" font-family="Helvetica,sans-Serif" font-size="10.00"> </text>
<polyline fill="none" stroke="black" points="287,-571.5 408,-571.5 "/>
<text text-anchor="start" x="295" y="-559.5" font-family="Helvetica,sans-Serif" font-size="10.00">+ virtual std::string</text>
<text text-anchor="start" x="295" y="-548.5" font-family="Helvetica,sans-Serif" font-size="10.00"> toMiraiCode() const =0</text>
<text text-anchor="start" x="295" y="-537.5" font-family="Helvetica,sans-Serif" font-size="10.00">+ virtual ~MiraiCodeable</text>
<text text-anchor="start" x="295" y="-526.5" font-family="Helvetica,sans-Serif" font-size="10.00">()=default</text>
</a>
</g>
</g>
<!-- Node3&#45;&gt;Node2 -->
<g id="edge2" class="edge">
<title>Node3&#45;&gt;Node2</title>
<path fill="none" stroke="midnightblue" d="M309.39,-511.12C293.25,-488.95 273.79,-462.2 254.66,-435.91"/>
<polygon fill="none" stroke="midnightblue" points="306.69,-513.36 315.4,-519.39 312.35,-509.24 306.69,-513.36"/>
</g>
<!-- Node4 -->
<g id="node4" class="node">
<title>Node4</title>
<g id="a_node4"><a xlink:title=" ">
<polygon fill="white" stroke="#bfbfbf" points="18,-536 18,-593 59,-593 59,-536 18,-536"/>
<text text-anchor="middle" x="38.5" y="-581" font-family="Helvetica,sans-Serif" font-size="10.00">string</text>
<polyline fill="none" stroke="#bfbfbf" points="18,-574 59,-574 "/>
<text text-anchor="middle" x="38.5" y="-562" font-family="Helvetica,sans-Serif" font-size="10.00"> </text>
<polyline fill="none" stroke="#bfbfbf" points="18,-555 59,-555 "/>
<text text-anchor="middle" x="38.5" y="-543" font-family="Helvetica,sans-Serif" font-size="10.00"> </text>
</a>
</g>
</g>
<!-- Node4&#45;&gt;Node1 -->
<g id="edge6" class="edge">
<title>Node4&#45;&gt;Node1</title>
<path fill="none" stroke="#404040" d="M34.58,-535.59C26.44,-472.36 10.05,-313.56 30.5,-183 31.82,-174.56 33.69,-165.89 35.87,-157.29"/>
<polygon fill="none" stroke="#404040" points="35.89,-157.23 33.6,-150.39 39.03,-145.65 41.32,-152.49 35.89,-157.23"/>
<text text-anchor="middle" x="56" y="-352.5" font-family="Helvetica,sans-Serif" font-size="10.00"> +appName</text>
<text text-anchor="middle" x="56" y="-341.5" font-family="Helvetica,sans-Serif" font-size="10.00">+brief</text>
<text text-anchor="middle" x="56" y="-330.5" font-family="Helvetica,sans-Serif" font-size="10.00">+jumpUrl</text>
<text text-anchor="middle" x="56" y="-319.5" font-family="Helvetica,sans-Serif" font-size="10.00">+musicUrl</text>
<text text-anchor="middle" x="56" y="-308.5" font-family="Helvetica,sans-Serif" font-size="10.00">+picUrl</text>
<text text-anchor="middle" x="56" y="-297.5" font-family="Helvetica,sans-Serif" font-size="10.00">+summary</text>
<text text-anchor="middle" x="56" y="-286.5" font-family="Helvetica,sans-Serif" font-size="10.00">+title</text>
</g>
<!-- Node4&#45;&gt;Node2 -->
<g id="edge3" class="edge">
<title>Node4&#45;&gt;Node2</title>
<path fill="none" stroke="#404040" d="M52.05,-535.89C60.32,-519.28 71.25,-497.79 81.5,-479 82.89,-476.45 84.31,-473.87 85.73,-471.28"/>
<polygon fill="none" stroke="#404040" points="85.86,-471.06 85.27,-463.87 91.68,-460.56 92.27,-467.75 85.86,-471.06"/>
<text text-anchor="middle" x="102.5" y="-493" font-family="Helvetica,sans-Serif" font-size="10.00"> +content</text>
<text text-anchor="middle" x="102.5" y="-482" font-family="Helvetica,sans-Serif" font-size="10.00">+prefix</text>
</g>
<!-- Node5 -->
<g id="node5" class="node">
<title>Node5</title>
<g id="a_node5"><a xlink:title=" ">
<polygon fill="white" stroke="#bfbfbf" points="101,-536 101,-593 130,-593 130,-536 101,-536"/>
<text text-anchor="middle" x="115.5" y="-581" font-family="Helvetica,sans-Serif" font-size="10.00">int</text>
<polyline fill="none" stroke="#bfbfbf" points="101,-574 130,-574 "/>
<text text-anchor="middle" x="115.5" y="-562" font-family="Helvetica,sans-Serif" font-size="10.00"> </text>
<polyline fill="none" stroke="#bfbfbf" points="101,-555 130,-555 "/>
<text text-anchor="middle" x="115.5" y="-543" font-family="Helvetica,sans-Serif" font-size="10.00"> </text>
</a>
</g>
</g>
<!-- Node5&#45;&gt;Node2 -->
<g id="edge4" class="edge">
<title>Node5&#45;&gt;Node2</title>
<path fill="none" stroke="#404040" d="M120.21,-536C123.17,-519.43 127.22,-497.93 131.5,-479 131.99,-476.84 132.48,-474.67 132.99,-472.48"/>
<polygon fill="none" stroke="#404040" points="133.02,-472.36 130.49,-465.61 135.76,-460.68 138.28,-467.43 133.02,-472.36"/>
<text text-anchor="middle" x="162.5" y="-487.5" font-family="Helvetica,sans-Serif" font-size="10.00"> +internalType</text>
</g>
<!-- Node6 -->
<g id="node6" class="node">
<title>Node6</title>
<g id="a_node6"><a xlink:title=" ">
<polygon fill="white" stroke="#bfbfbf" points="148.5,-530.5 148.5,-598.5 268.5,-598.5 268.5,-530.5 148.5,-530.5"/>
<text text-anchor="start" x="156.5" y="-586.5" font-family="Helvetica,sans-Serif" font-size="10.00">static const char *const</text>
<text text-anchor="middle" x="208.5" y="-575.5" font-family="Helvetica,sans-Serif" font-size="10.00"> *const</text>
<polyline fill="none" stroke="#bfbfbf" points="148.5,-568.5 268.5,-568.5 "/>
<text text-anchor="middle" x="208.5" y="-556.5" font-family="Helvetica,sans-Serif" font-size="10.00"> </text>
<polyline fill="none" stroke="#bfbfbf" points="148.5,-549.5 268.5,-549.5 "/>
<text text-anchor="middle" x="208.5" y="-537.5" font-family="Helvetica,sans-Serif" font-size="10.00"> </text>
</a>
</g>
</g>
<!-- Node6&#45;&gt;Node2 -->
<g id="edge5" class="edge">
<title>Node6&#45;&gt;Node2</title>
<path fill="none" stroke="#404040" d="M203.53,-530.31C201.16,-514.44 198.13,-494.2 194.9,-472.62"/>
<polygon fill="none" stroke="#404040" points="194.86,-472.38 190.02,-467.04 193.08,-460.51 197.93,-465.85 194.86,-472.38"/>
<text text-anchor="middle" x="237.5" y="-493" font-family="Helvetica,sans-Serif" font-size="10.00"> +messageType</text>
<text text-anchor="middle" x="237.5" y="-482" font-family="Helvetica,sans-Serif" font-size="10.00">+miraiCodeName</text>
</g>
</g>
</svg>
