<?xml version="1.0" encoding="UTF-8" standalone="no"?>
<!DOCTYPE svg PUBLIC "-//W3C//DTD SVG 1.1//EN"
 "http://www.w3.org/Graphics/SVG/1.1/DTD/svg11.dtd">
<!-- Generated by graphviz version 9.0.0 (0)
 -->
<!-- Title: MiraiCP::MusicShare Pages: 1 -->
<svg width="411pt" height="709pt"
 viewBox="0.00 0.00 411.00 709.00" xmlns="http://www.w3.org/2000/svg" xmlns:xlink="http://www.w3.org/1999/xlink">
<g id="graph0" class="graph" transform="scale(1 1) rotate(0) translate(4 705)">
<title>MiraiCP::MusicShare</title>
<!-- Node1 -->
<g id="Node000001" class="node">
<title>Node1</title>
<g id="a_Node000001"><a xlink:title="一些可以被mirai识别的音乐卡片, 如果不能被mirai识别, 那应该被表现成lightApp类型(可能收费/vip歌曲用lightApp, 免费用MusicShare)">
<polygon fill="#999999" stroke="none" points="134,-212 0,-212 0,0 134,0 134,-212"/>
<text text-anchor="start" x="20.5" y="-198.5" font-family="Helvetica,sans-Serif" font-size="10.00">MiraiCP::MusicShare</text>
<text text-anchor="start" x="65.5" y="-182.5" font-family="Helvetica,sans-Serif" font-size="10.00"> </text>
<text text-anchor="start" x="4" y="-166.5" font-family="Helvetica,sans-Serif" font-size="10.00">+</text>
<text text-anchor="start" x="14" y="-166.5" font-family="Helvetica,sans-Serif" font-size="10.00">MusicShare(std::string</text>
<text text-anchor="start" x="14" y="-154.5" font-family="Helvetica,sans-Serif" font-size="10.00"> appName, std::string</text>
<text text-anchor="start" x="14" y="-142.5" font-family="Helvetica,sans-Serif" font-size="10.00"> title, std::string summary,</text>
<text text-anchor="start" x="14" y="-130.5" font-family="Helvetica,sans-Serif" font-size="10.00"> std::string jumpUrl, std</text>
<text text-anchor="start" x="14" y="-118.5" font-family="Helvetica,sans-Serif" font-size="10.00">::string picUrl, std::string</text>
<text text-anchor="start" x="14" y="-106.5" font-family="Helvetica,sans-Serif" font-size="10.00"> musicUrl, std::string brief)</text>
<text text-anchor="start" x="4" y="-90.5" font-family="Helvetica,sans-Serif" font-size="10.00">+</text>
<text text-anchor="start" x="14" y="-90.5" font-family="Helvetica,sans-Serif" font-size="10.00">std::string toMiraiCode</text>
<text text-anchor="start" x="14" y="-78.5" font-family="Helvetica,sans-Serif" font-size="10.00">() const override</text>
<text text-anchor="start" x="4" y="-62.5" font-family="Helvetica,sans-Serif" font-size="10.00">+</text>
<text text-anchor="start" x="14" y="-62.5" font-family="Helvetica,sans-Serif" font-size="10.00">nlohmann::json toJson</text>
<text text-anchor="start" x="14" y="-50.5" font-family="Helvetica,sans-Serif" font-size="10.00">() const override</text>
<text text-anchor="start" x="4" y="-34.5" font-family="Helvetica,sans-Serif" font-size="10.00">+</text>
<text text-anchor="start" x="14" y="-34.5" font-family="Helvetica,sans-Serif" font-size="10.00">std::string toString</text>
<text text-anchor="start" x="14" y="-22.5" font-family="Helvetica,sans-Serif" font-size="10.00">() const</text>
<text text-anchor="start" x="4" y="-6.5" font-family="Helvetica,sans-Serif" font-size="10.00">+</text>
<text text-anchor="start" x="14" y="-6.5" font-family="Helvetica,sans-Serif" font-size="10.00">static int type()</text>
<polygon fill="#666666" stroke="#666666" points="0,-194 0,-194 134,-194 134,-194 0,-194"/>
<polygon fill="#666666" stroke="#666666" points="0,-178 0,-178 134,-178 134,-178 0,-178"/>
<polygon fill="none" stroke="#666666" points="0,0 0,-212 134,-212 134,0 0,0"/>
</a>
</g>
</g>
<!-- Node2 -->
<g id="Node000002" class="node">
<title>Node2</title>
<g id="a_Node000002"><a xlink:href="a00676.html" target="_top" xlink:title="MessageChain的组成部分">
<polygon fill="white" stroke="none" points="234.5,-549 95.5,-549 95.5,-249 234.5,-249 234.5,-549"/>
<text text-anchor="start" x="111" y="-535.5" font-family="Helvetica,sans-Serif" font-size="10.00">MiraiCP::SingleMessage</text>
<text text-anchor="start" x="163.5" y="-519.5" font-family="Helvetica,sans-Serif" font-size="10.00"> </text>
<text text-anchor="start" x="99.5" y="-503.5" font-family="Helvetica,sans-Serif" font-size="10.00">+</text>
<text text-anchor="start" x="109.5" y="-503.5" font-family="Helvetica,sans-Serif" font-size="10.00">SingleMessage(int</text>
<text text-anchor="start" x="109.5" y="-491.5" font-family="Helvetica,sans-Serif" font-size="10.00"> inType, std::string</text>
<text text-anchor="start" x="109.5" y="-479.5" font-family="Helvetica,sans-Serif" font-size="10.00"> content, std::string</text>
<text text-anchor="start" x="109.5" y="-467.5" font-family="Helvetica,sans-Serif" font-size="10.00"> prefix=&quot;:&quot;) noexcept</text>
<text text-anchor="start" x="99.5" y="-451.5" font-family="Helvetica,sans-Serif" font-size="10.00">+</text>
<text text-anchor="start" x="109.5" y="-451.5" font-family="Helvetica,sans-Serif" font-size="10.00">~SingleMessage() noexcept</text>
<text text-anchor="start" x="109.5" y="-439.5" font-family="Helvetica,sans-Serif" font-size="10.00"> override=default</text>
<text text-anchor="start" x="99.5" y="-423.5" font-family="Helvetica,sans-Serif" font-size="10.00">+</text>
<text text-anchor="start" x="109.5" y="-423.5" font-family="Helvetica,sans-Serif" font-size="10.00">virtual nlohmann::json</text>
<text text-anchor="start" x="109.5" y="-411.5" font-family="Helvetica,sans-Serif" font-size="10.00"> toJson() const</text>
<text text-anchor="start" x="99.5" y="-395.5" font-family="Helvetica,sans-Serif" font-size="10.00">+</text>
<text text-anchor="start" x="109.5" y="-395.5" font-family="Helvetica,sans-Serif" font-size="10.00">std::string toMiraiCode</text>
<text text-anchor="start" x="109.5" y="-383.5" font-family="Helvetica,sans-Serif" font-size="10.00">() const override</text>
<text text-anchor="start" x="99.5" y="-367.5" font-family="Helvetica,sans-Serif" font-size="10.00">+</text>
<text text-anchor="start" x="109.5" y="-367.5" font-family="Helvetica,sans-Serif" font-size="10.00">bool operator==(const</text>
<text text-anchor="start" x="109.5" y="-355.5" font-family="Helvetica,sans-Serif" font-size="10.00"> SingleMessage &amp;m) const</text>
<text text-anchor="start" x="99.5" y="-339.5" font-family="Helvetica,sans-Serif" font-size="10.00">+</text>
<text text-anchor="start" x="109.5" y="-339.5" font-family="Helvetica,sans-Serif" font-size="10.00">static std::string</text>
<text text-anchor="start" x="109.5" y="-327.5" font-family="Helvetica,sans-Serif" font-size="10.00"> getTypeString(int type)</text>
<text text-anchor="start" x="99.5" y="-311.5" font-family="Helvetica,sans-Serif" font-size="10.00">+</text>
<text text-anchor="start" x="109.5" y="-311.5" font-family="Helvetica,sans-Serif" font-size="10.00">static int getKey(const</text>
<text text-anchor="start" x="109.5" y="-299.5" font-family="Helvetica,sans-Serif" font-size="10.00"> std::string &amp;value)</text>
<text text-anchor="start" x="99.5" y="-283.5" font-family="Helvetica,sans-Serif" font-size="10.00">+</text>
<text text-anchor="start" x="109.5" y="-283.5" font-family="Helvetica,sans-Serif" font-size="10.00">static int getMiraiCodeKey</text>
<text text-anchor="start" x="109.5" y="-271.5" font-family="Helvetica,sans-Serif" font-size="10.00">(const std::string &amp;value)</text>
<text text-anchor="start" x="99.88" y="-255.5" font-family="Helvetica,sans-Serif" font-size="10.00">#</text>
<text text-anchor="start" x="109.5" y="-255.5" font-family="Helvetica,sans-Serif" font-size="10.00">SingleMessage()=default</text>
<polygon fill="#666666" stroke="#666666" points="95.5,-531 95.5,-531 234.5,-531 234.5,-531 95.5,-531"/>
<polygon fill="#666666" stroke="#666666" points="95.5,-515 95.5,-515 234.5,-515 234.5,-515 95.5,-515"/>
<polygon fill="none" stroke="#666666" points="95.5,-249 95.5,-549 234.5,-549 234.5,-249 95.5,-249"/>
</a>
</g>
</g>
<!-- Node2&#45;&gt;Node1 -->
<g id="edge1_Node000001_Node000002" class="edge">
<title>Node2&#45;&gt;Node1</title>
<g id="a_edge1_Node000001_Node000002"><a xlink:title=" ">
<path fill="none" stroke="#63b8ff" d="M111.18,-238.19C108.18,-229.28 105.2,-220.44 102.3,-211.81"/>
<polygon fill="none" stroke="#63b8ff" points="107.86,-239.3 114.37,-247.66 114.49,-237.06 107.86,-239.3"/>
</a>
</g>
</g>
<!-- Node3 -->
<g id="Node000003" class="node">
<title>Node3</title>
<g id="a_Node000003"><a xlink:href="a00660.html" target="_top" xlink:title="MiraiCode父类, 指可以被转换成miraicode的类型">
<polygon fill="white" stroke="none" points="403,-701 283,-701 283,-609 403,-609 403,-701"/>
<text text-anchor="start" x="291.25" y="-687.5" font-family="Helvetica,sans-Serif" font-size="10.00">MiraiCP::MiraiCodeable</text>
<text text-anchor="start" x="341.5" y="-671.5" font-family="Helvetica,sans-Serif" font-size="10.00"> </text>
<text text-anchor="start" x="287" y="-655.5" font-family="Helvetica,sans-Serif" font-size="10.00">+</text>
<text text-anchor="start" x="297" y="-655.5" font-family="Helvetica,sans-Serif" font-size="10.00">virtual std::string</text>
<text text-anchor="start" x="297" y="-643.5" font-family="Helvetica,sans-Serif" font-size="10.00"> toMiraiCode() const =0</text>
<text text-anchor="start" x="287" y="-627.5" font-family="Helvetica,sans-Serif" font-size="10.00">+</text>
<text text-anchor="start" x="297" y="-627.5" font-family="Helvetica,sans-Serif" font-size="10.00">virtual ~MiraiCodeable</text>
<text text-anchor="start" x="297" y="-615.5" font-family="Helvetica,sans-Serif" font-size="10.00">()=default</text>
<polygon fill="#666666" stroke="#666666" points="283,-683 283,-683 403,-683 403,-683 283,-683"/>
<polygon fill="#666666" stroke="#666666" points="283,-667 283,-667 403,-667 403,-667 283,-667"/>
<polygon fill="none" stroke="#666666" points="283,-609 283,-701 403,-701 403,-609 283,-609"/>
</a>
</g>
</g>
<!-- Node3&#45;&gt;Node2 -->
<g id="edge2_Node000002_Node000003" class="edge">
<title>Node3&#45;&gt;Node2</title>
<g id="a_edge2_Node000002_Node000003"><a xlink:title=" ">
<path fill="none" stroke="#63b8ff" d="M305.12,-599.94C284.57,-570.62 258.51,-533.44 234.46,-499.12"/>
<polygon fill="none" stroke="#63b8ff" points="302.11,-601.75 310.72,-607.94 307.85,-597.74 302.11,-601.75"/>
</a>
</g>
</g>
<!-- Node4 -->
<g id="Node000004" class="node">
<title>Node4</title>
<g id="a_Node000004"><a xlink:title=" ">
<polygon fill="white" stroke="none" points="60,-681 26,-681 26,-629 60,-629 60,-681"/>
<text text-anchor="start" x="31" y="-667.5" font-family="Helvetica,sans-Serif" font-size="10.00">string</text>
<text text-anchor="start" x="41.5" y="-651.5" font-family="Helvetica,sans-Serif" font-size="10.00"> </text>
<text text-anchor="start" x="41.5" y="-635.5" font-family="Helvetica,sans-Serif" font-size="10.00"> </text>
<polygon fill="#666666" stroke="#666666" points="26,-663 26,-663 60,-663 60,-663 26,-663"/>
<polygon fill="#666666" stroke="#666666" points="26,-647 26,-647 60,-647 60,-647 26,-647"/>
<polygon fill="none" stroke="#666666" points="26,-629 26,-681 60,-681 60,-629 26,-629"/>
</a>
</g>
</g>
<!-- Node4&#45;&gt;Node1 -->
<g id="edge6_Node000001_Node000004" class="edge">
<title>Node4&#45;&gt;Node1</title>
<g id="a_edge6_Node000001_Node000004"><a xlink:title=" ">
<path fill="none" stroke="#63b8ff" d="M40.28,-629.24C33.78,-565.8 19.06,-392.28 35,-249 35.9,-240.91 37.08,-232.61 38.46,-224.28"/>
<polygon fill="none" stroke="#63b8ff" points="38.45,-224.34 35.55,-217.74 40.53,-212.52 43.42,-219.12 38.45,-224.34"/>
</a>
</g>
<text text-anchor="middle" x="60.5" y="-431.5" font-family="Helvetica,sans-Serif" font-size="10.00" fill="grey"> +appName</text>
<text text-anchor="middle" x="60.5" y="-419.5" font-family="Helvetica,sans-Serif" font-size="10.00" fill="grey">+brief</text>
<text text-anchor="middle" x="60.5" y="-407.5" font-family="Helvetica,sans-Serif" font-size="10.00" fill="grey">+jumpUrl</text>
<text text-anchor="middle" x="60.5" y="-395.5" font-family="Helvetica,sans-Serif" font-size="10.00" fill="grey">+musicUrl</text>
<text text-anchor="middle" x="60.5" y="-383.5" font-family="Helvetica,sans-Serif" font-size="10.00" fill="grey">+picUrl</text>
<text text-anchor="middle" x="60.5" y="-371.5" font-family="Helvetica,sans-Serif" font-size="10.00" fill="grey">+summary</text>
<text text-anchor="middle" x="60.5" y="-359.5" font-family="Helvetica,sans-Serif" font-size="10.00" fill="grey">+title</text>
</g>
<!-- Node4&#45;&gt;Node2 -->
<g id="edge3_Node000002_Node000004" class="edge">
<title>Node4&#45;&gt;Node2</title>
<g id="a_edge3_Node000002_Node000004"><a xlink:title=" ">
<path fill="none" stroke="#63b8ff" d="M52.08,-629.34C58.74,-611.77 68.24,-587.69 77.75,-567 81.64,-558.53 85.75,-549.87 89.98,-541.17"/>
<polygon fill="none" stroke="#63b8ff" points="89.91,-541.31 88.96,-534.17 95.2,-530.54 96.15,-537.69 89.91,-541.31"/>
</a>
</g>
<text text-anchor="middle" x="98.62" y="-581.5" font-family="Helvetica,sans-Serif" font-size="10.00" fill="grey"> +content</text>
<text text-anchor="middle" x="98.62" y="-569.5" font-family="Helvetica,sans-Serif" font-size="10.00" fill="grey">+prefix</text>
</g>
<!-- Node5 -->
<g id="Node000005" class="node">
<title>Node5</title>
<g id="a_Node000005"><a xlink:title=" ">
<polygon fill="white" stroke="none" points="133,-681 113,-681 113,-629 133,-629 133,-681"/>
<text text-anchor="start" x="117.75" y="-667.5" font-family="Helvetica,sans-Serif" font-size="10.00">int</text>
<text text-anchor="start" x="121.5" y="-651.5" font-family="Helvetica,sans-Serif" font-size="10.00"> </text>
<text text-anchor="start" x="121.5" y="-635.5" font-family="Helvetica,sans-Serif" font-size="10.00"> </text>
<polygon fill="#666666" stroke="#666666" points="113,-663 113,-663 133,-663 133,-663 113,-663"/>
<polygon fill="#666666" stroke="#666666" points="113,-647 113,-647 133,-647 133,-647 113,-647"/>
<polygon fill="none" stroke="#666666" points="113,-629 113,-681 133,-681 133,-629 113,-629"/>
</a>
</g>
</g>
<!-- Node5&#45;&gt;Node2 -->
<g id="edge4_Node000002_Node000005" class="edge">
<title>Node5&#45;&gt;Node2</title>
<g id="a_edge4_Node000002_Node000005"><a xlink:title=" ">
<path fill="none" stroke="#63b8ff" d="M121.98,-629.14C121.62,-611.69 121.83,-587.83 124.5,-567 124.74,-565.1 125,-563.2 125.27,-561.29"/>
<polygon fill="none" stroke="#63b8ff" points="125.26,-561.31 122.22,-554.78 127.08,-549.45 130.12,-555.98 125.26,-561.31"/>
</a>
</g>
<text text-anchor="middle" x="155.75" y="-575.5" font-family="Helvetica,sans-Serif" font-size="10.00" fill="grey"> +internalType</text>
</g>
<!-- Node6 -->
<g id="Node000006" class="node">
<title>Node6</title>
<g id="a_Node000006"><a xlink:title=" ">
<polygon fill="white" stroke="none" points="264.5,-687 151.5,-687 151.5,-623 264.5,-623 264.5,-687"/>
<text text-anchor="start" x="156.25" y="-673.5" font-family="Helvetica,sans-Serif" font-size="10.00">static const char *const</text>
<text text-anchor="start" x="192.62" y="-661.5" font-family="Helvetica,sans-Serif" font-size="10.00"> *const</text>
<text text-anchor="start" x="206.5" y="-645.5" font-family="Helvetica,sans-Serif" font-size="10.00"> </text>
<text text-anchor="start" x="206.5" y="-629.5" font-family="Helvetica,sans-Serif" font-size="10.00"> </text>
<polygon fill="#666666" stroke="#666666" points="151.5,-657 151.5,-657 264.5,-657 264.5,-657 151.5,-657"/>
<polygon fill="#666666" stroke="#666666" points="151.5,-641 151.5,-641 264.5,-641 264.5,-641 151.5,-641"/>
<polygon fill="none" stroke="#666666" points="151.5,-623 151.5,-687 264.5,-687 264.5,-623 151.5,-623"/>
</a>
</g>
</g>
<!-- Node6&#45;&gt;Node2 -->
<g id="edge5_Node000002_Node000006" class="edge">
<title>Node6&#45;&gt;Node2</title>
<g id="a_edge5_Node000002_Node000006"><a xlink:title=" ">
<path fill="none" stroke="#63b8ff" d="M202.77,-623.11C199.98,-606.63 196.31,-584.96 192.36,-561.6"/>
<polygon fill="none" stroke="#63b8ff" points="192.35,-561.58 187.41,-556.34 190.35,-549.75 195.3,-555 192.35,-561.58"/>
</a>
</g>
<text text-anchor="middle" x="235.25" y="-581.5" font-family="Helvetica,sans-Serif" font-size="10.00" fill="grey"> +messageType</text>
<text text-anchor="middle" x="235.25" y="-569.5" font-family="Helvetica,sans-Serif" font-size="10.00" fill="grey">+miraiCodeName</text>
</g>
</g>
</svg>
