<?xml version="1.0" encoding="UTF-8" standalone="no"?>
<!DOCTYPE svg PUBLIC "-//W3C//DTD SVG 1.1//EN"
 "http://www.w3.org/Graphics/SVG/1.1/DTD/svg11.dtd">
<!-- Generated by graphviz version 2.50.0 (20211204.2007)
 -->
<!-- Title: MiraiCP::RemoteFile Pages: 1 -->
<svg width="557pt" height="738pt"
 viewBox="0.00 0.00 556.50 738.00" xmlns="http://www.w3.org/2000/svg" xmlns:xlink="http://www.w3.org/1999/xlink">
<g id="graph0" class="graph" transform="scale(1 1) rotate(0) translate(4 734)">
<title>MiraiCP::RemoteFile</title>
<polygon fill="white" stroke="transparent" points="-4,4 -4,-734 552.5,-734 552.5,4 -4,4"/>
<!-- Node1 -->
<g id="node1" class="node">
<title>Node1</title>
<g id="a_node1"><a xlink:title="远程(群)文件类型">
<polygon fill="#bfbfbf" stroke="black" points="275.5,-0.5 275.5,-233.5 427.5,-233.5 427.5,-0.5 275.5,-0.5"/>
<text text-anchor="middle" x="351.5" y="-221.5" font-family="Helvetica,sans-Serif" font-size="10.00">MiraiCP::RemoteFile</text>
<polyline fill="none" stroke="black" points="275.5,-214.5 427.5,-214.5 "/>
<text text-anchor="middle" x="351.5" y="-202.5" font-family="Helvetica,sans-Serif" font-size="10.00"> </text>
<polyline fill="none" stroke="black" points="275.5,-195.5 427.5,-195.5 "/>
<text text-anchor="start" x="283.5" y="-183.5" font-family="Helvetica,sans-Serif" font-size="10.00">+ std::string serializeToString()</text>
<text text-anchor="start" x="283.5" y="-172.5" font-family="Helvetica,sans-Serif" font-size="10.00">+ RemoteFile plus(unsigned</text>
<text text-anchor="start" x="283.5" y="-161.5" font-family="Helvetica,sans-Serif" font-size="10.00"> int ii)</text>
<text text-anchor="start" x="283.5" y="-150.5" font-family="Helvetica,sans-Serif" font-size="10.00">+ RemoteFile(const std</text>
<text text-anchor="start" x="283.5" y="-139.5" font-family="Helvetica,sans-Serif" font-size="10.00">::string &amp;i, unsigned</text>
<text text-anchor="start" x="283.5" y="-128.5" font-family="Helvetica,sans-Serif" font-size="10.00"> int ii, std::string n,</text>
<text text-anchor="start" x="283.5" y="-117.5" font-family="Helvetica,sans-Serif" font-size="10.00"> long long s, std::string</text>
<text text-anchor="start" x="283.5" y="-106.5" font-family="Helvetica,sans-Serif" font-size="10.00"> p, struct Dinfo d, struct</text>
<text text-anchor="start" x="283.5" y="-95.5" font-family="Helvetica,sans-Serif" font-size="10.00"> Finfo f)</text>
<text text-anchor="start" x="283.5" y="-84.5" font-family="Helvetica,sans-Serif" font-size="10.00">+ RemoteFile(const std</text>
<text text-anchor="start" x="283.5" y="-73.5" font-family="Helvetica,sans-Serif" font-size="10.00">::string &amp;i, unsigned</text>
<text text-anchor="start" x="283.5" y="-62.5" font-family="Helvetica,sans-Serif" font-size="10.00"> int ii, std::string n,</text>
<text text-anchor="start" x="283.5" y="-51.5" font-family="Helvetica,sans-Serif" font-size="10.00"> long long s)</text>
<text text-anchor="start" x="283.5" y="-40.5" font-family="Helvetica,sans-Serif" font-size="10.00">+ static int type()</text>
<text text-anchor="start" x="283.5" y="-29.5" font-family="Helvetica,sans-Serif" font-size="10.00">+ static RemoteFile deserialize</text>
<text text-anchor="start" x="283.5" y="-18.5" font-family="Helvetica,sans-Serif" font-size="10.00">FromString(const std::string</text>
<text text-anchor="start" x="283.5" y="-7.5" font-family="Helvetica,sans-Serif" font-size="10.00"> &amp;source)</text>
</a>
</g>
</g>
<!-- Node2 -->
<g id="node2" class="node">
<title>Node2</title>
<g id="a_node2"><a xlink:href="a00720.html" target="_top" xlink:title="MessageChain的组成部分">
<polygon fill="white" stroke="black" points="93.5,-303.5 93.5,-580.5 257.5,-580.5 257.5,-303.5 93.5,-303.5"/>
<text text-anchor="middle" x="175.5" y="-568.5" font-family="Helvetica,sans-Serif" font-size="10.00">MiraiCP::SingleMessage</text>
<polyline fill="none" stroke="black" points="93.5,-561.5 257.5,-561.5 "/>
<text text-anchor="middle" x="175.5" y="-549.5" font-family="Helvetica,sans-Serif" font-size="10.00"> </text>
<polyline fill="none" stroke="black" points="93.5,-542.5 257.5,-542.5 "/>
<text text-anchor="start" x="101.5" y="-530.5" font-family="Helvetica,sans-Serif" font-size="10.00">+ SingleMessage(int</text>
<text text-anchor="start" x="101.5" y="-519.5" font-family="Helvetica,sans-Serif" font-size="10.00"> inType, std::string</text>
<text text-anchor="start" x="101.5" y="-508.5" font-family="Helvetica,sans-Serif" font-size="10.00"> content, std::string</text>
<text text-anchor="start" x="101.5" y="-497.5" font-family="Helvetica,sans-Serif" font-size="10.00"> prefix=&quot;:&quot;) noexcept</text>
<text text-anchor="start" x="101.5" y="-486.5" font-family="Helvetica,sans-Serif" font-size="10.00">+ virtual ~SingleMessage</text>
<text text-anchor="start" x="101.5" y="-475.5" font-family="Helvetica,sans-Serif" font-size="10.00">() noexcept=default</text>
<text text-anchor="start" x="101.5" y="-464.5" font-family="Helvetica,sans-Serif" font-size="10.00">+ virtual nlohmann::json</text>
<text text-anchor="start" x="101.5" y="-453.5" font-family="Helvetica,sans-Serif" font-size="10.00"> toJson() const</text>
<text text-anchor="start" x="101.5" y="-442.5" font-family="Helvetica,sans-Serif" font-size="10.00">+ std::string toMiraiCode</text>
<text text-anchor="start" x="101.5" y="-431.5" font-family="Helvetica,sans-Serif" font-size="10.00">() const override</text>
<text text-anchor="start" x="101.5" y="-420.5" font-family="Helvetica,sans-Serif" font-size="10.00">+ bool operator==(const</text>
<text text-anchor="start" x="101.5" y="-409.5" font-family="Helvetica,sans-Serif" font-size="10.00"> SingleMessage &amp;m) const</text>
<text text-anchor="start" x="101.5" y="-398.5" font-family="Helvetica,sans-Serif" font-size="10.00">+ bool operator==(SingleMessage</text>
<text text-anchor="start" x="101.5" y="-387.5" font-family="Helvetica,sans-Serif" font-size="10.00"> *m) const</text>
<text text-anchor="start" x="101.5" y="-376.5" font-family="Helvetica,sans-Serif" font-size="10.00">+ static std::string</text>
<text text-anchor="start" x="101.5" y="-365.5" font-family="Helvetica,sans-Serif" font-size="10.00"> getTypeString(int type)</text>
<text text-anchor="start" x="101.5" y="-354.5" font-family="Helvetica,sans-Serif" font-size="10.00">+ static int getKey(const</text>
<text text-anchor="start" x="101.5" y="-343.5" font-family="Helvetica,sans-Serif" font-size="10.00"> std::string &amp;value)</text>
<text text-anchor="start" x="101.5" y="-332.5" font-family="Helvetica,sans-Serif" font-size="10.00">+ static int getMiraiCodeKey</text>
<text text-anchor="start" x="101.5" y="-321.5" font-family="Helvetica,sans-Serif" font-size="10.00">(const std::string &amp;value)</text>
<text text-anchor="start" x="101.5" y="-310.5" font-family="Helvetica,sans-Serif" font-size="10.00"># SingleMessage()=default</text>
</a>
</g>
</g>
<!-- Node2&#45;&gt;Node1 -->
<g id="edge1" class="edge">
<title>Node2&#45;&gt;Node1</title>
<path fill="none" stroke="midnightblue" d="M255.54,-294.1C266.6,-273.82 277.82,-253.22 288.5,-233.61"/>
<polygon fill="none" stroke="midnightblue" points="252.36,-292.63 250.65,-303.08 258.51,-295.98 252.36,-292.63"/>
</g>
<!-- Node3 -->
<g id="node3" class="node">
<title>Node3</title>
<g id="a_node3"><a xlink:href="a00704.html" target="_top" xlink:title="MiraiCode父类, 指可以被转换成miraicode的类型">
<polygon fill="white" stroke="black" points="59,-639.5 59,-729.5 180,-729.5 180,-639.5 59,-639.5"/>
<text text-anchor="middle" x="119.5" y="-717.5" font-family="Helvetica,sans-Serif" font-size="10.00">MiraiCP::MiraiCodeable</text>
<polyline fill="none" stroke="black" points="59,-710.5 180,-710.5 "/>
<text text-anchor="middle" x="119.5" y="-698.5" font-family="Helvetica,sans-Serif" font-size="10.00"> </text>
<polyline fill="none" stroke="black" points="59,-691.5 180,-691.5 "/>
<text text-anchor="start" x="67" y="-679.5" font-family="Helvetica,sans-Serif" font-size="10.00">+ virtual std::string</text>
<text text-anchor="start" x="67" y="-668.5" font-family="Helvetica,sans-Serif" font-size="10.00"> toMiraiCode() const =0</text>
<text text-anchor="start" x="67" y="-657.5" font-family="Helvetica,sans-Serif" font-size="10.00">+ virtual ~MiraiCodeable</text>
<text text-anchor="start" x="67" y="-646.5" font-family="Helvetica,sans-Serif" font-size="10.00">()=default</text>
</a>
</g>
</g>
<!-- Node3&#45;&gt;Node2 -->
<g id="edge2" class="edge">
<title>Node3&#45;&gt;Node2</title>
<path fill="none" stroke="midnightblue" d="M132.08,-629.47C135.53,-614.67 139.43,-597.92 143.44,-580.68"/>
<polygon fill="none" stroke="midnightblue" points="128.63,-628.86 129.77,-639.39 135.45,-630.44 128.63,-628.86"/>
</g>
<!-- Node4 -->
<g id="node4" class="node">
<title>Node4</title>
<g id="a_node4"><a xlink:title=" ">
<polygon fill="white" stroke="#bfbfbf" points="0,-656 0,-713 41,-713 41,-656 0,-656"/>
<text text-anchor="middle" x="20.5" y="-701" font-family="Helvetica,sans-Serif" font-size="10.00">string</text>
<polyline fill="none" stroke="#bfbfbf" points="0,-694 41,-694 "/>
<text text-anchor="middle" x="20.5" y="-682" font-family="Helvetica,sans-Serif" font-size="10.00"> </text>
<polyline fill="none" stroke="#bfbfbf" points="0,-675 41,-675 "/>
<text text-anchor="middle" x="20.5" y="-663" font-family="Helvetica,sans-Serif" font-size="10.00"> </text>
</a>
</g>
</g>
<!-- Node4&#45;&gt;Node1 -->
<g id="edge6" class="edge">
<title>Node4&#45;&gt;Node1</title>
<path fill="none" stroke="#404040" d="M15.01,-655.58C3.48,-588.9 -16.78,-417.41 53.5,-303 101.05,-225.59 194.39,-175.57 264,-147.31"/>
<polygon fill="none" stroke="#404040" points="264.24,-147.22 268.34,-141.29 275.39,-142.79 271.29,-148.72 264.24,-147.22"/>
<text text-anchor="middle" x="69" y="-445" font-family="Helvetica,sans-Serif" font-size="10.00"> +id</text>
<text text-anchor="middle" x="69" y="-434" font-family="Helvetica,sans-Serif" font-size="10.00">+name</text>
</g>
<!-- Node4&#45;&gt;Node2 -->
<g id="edge3" class="edge">
<title>Node4&#45;&gt;Node2</title>
<path fill="none" stroke="#404040" d="M38.28,-655.91C50.69,-636.65 68.29,-609.35 86.76,-580.69"/>
<polygon fill="none" stroke="#404040" points="86.82,-580.6 86.71,-573.39 93.32,-570.51 93.43,-577.72 86.82,-580.6"/>
<text text-anchor="middle" x="92.5" y="-613" font-family="Helvetica,sans-Serif" font-size="10.00"> +content</text>
<text text-anchor="middle" x="92.5" y="-602" font-family="Helvetica,sans-Serif" font-size="10.00">+prefix</text>
</g>
<!-- Node5 -->
<g id="node5" class="node">
<title>Node5</title>
<g id="a_node5"><a xlink:title=" ">
<polygon fill="white" stroke="#bfbfbf" points="337,-656 337,-713 366,-713 366,-656 337,-656"/>
<text text-anchor="middle" x="351.5" y="-701" font-family="Helvetica,sans-Serif" font-size="10.00">int</text>
<polyline fill="none" stroke="#bfbfbf" points="337,-694 366,-694 "/>
<text text-anchor="middle" x="351.5" y="-682" font-family="Helvetica,sans-Serif" font-size="10.00"> </text>
<polyline fill="none" stroke="#bfbfbf" points="337,-675 366,-675 "/>
<text text-anchor="middle" x="351.5" y="-663" font-family="Helvetica,sans-Serif" font-size="10.00"> </text>
</a>
</g>
</g>
<!-- Node5&#45;&gt;Node1 -->
<g id="edge7" class="edge">
<title>Node5&#45;&gt;Node1</title>
<path fill="none" stroke="#404040" d="M351.5,-655.84C351.5,-582.73 351.5,-380.75 351.5,-246.19"/>
<polygon fill="none" stroke="#404040" points="351.5,-245.79 347.5,-239.79 351.5,-233.79 355.5,-239.79 351.5,-245.79"/>
<text text-anchor="middle" x="376" y="-439.5" font-family="Helvetica,sans-Serif" font-size="10.00"> +internalid</text>
</g>
<!-- Node5&#45;&gt;Node2 -->
<g id="edge4" class="edge">
<title>Node5&#45;&gt;Node2</title>
<path fill="none" stroke="#404040" d="M340.65,-655.77C337.2,-649.6 332.85,-643.55 327.5,-639 308.87,-623.16 294.27,-636.68 275.5,-621 264.77,-612.03 254.97,-601.6 246.07,-590.37"/>
<polygon fill="none" stroke="#404040" points="246.05,-590.34 239.24,-587.96 238.81,-580.76 245.62,-583.14 246.05,-590.34"/>
<text text-anchor="middle" x="306.5" y="-607.5" font-family="Helvetica,sans-Serif" font-size="10.00"> +internalType</text>
</g>
<!-- Node6 -->
<g id="node6" class="node">
<title>Node6</title>
<g id="a_node6"><a xlink:title=" ">
<polygon fill="white" stroke="#bfbfbf" points="198.5,-650.5 198.5,-718.5 318.5,-718.5 318.5,-650.5 198.5,-650.5"/>
<text text-anchor="start" x="206.5" y="-706.5" font-family="Helvetica,sans-Serif" font-size="10.00">static const char *const</text>
<text text-anchor="middle" x="258.5" y="-695.5" font-family="Helvetica,sans-Serif" font-size="10.00"> *const</text>
<polyline fill="none" stroke="#bfbfbf" points="198.5,-688.5 318.5,-688.5 "/>
<text text-anchor="middle" x="258.5" y="-676.5" font-family="Helvetica,sans-Serif" font-size="10.00"> </text>
<polyline fill="none" stroke="#bfbfbf" points="198.5,-669.5 318.5,-669.5 "/>
<text text-anchor="middle" x="258.5" y="-657.5" font-family="Helvetica,sans-Serif" font-size="10.00"> </text>
</a>
</g>
</g>
<!-- Node6&#45;&gt;Node2 -->
<g id="edge5" class="edge">
<title>Node6&#45;&gt;Node2</title>
<path fill="none" stroke="#404040" d="M200.4,-650.22C190.76,-641.97 182.09,-632.21 176.5,-621 171.99,-611.96 168.62,-602.32 166.16,-592.38"/>
<polygon fill="none" stroke="#404040" points="166.15,-592.35 161.01,-587.3 163.69,-580.61 168.84,-585.66 166.15,-592.35"/>
<text text-anchor="middle" x="214.5" y="-613" font-family="Helvetica,sans-Serif" font-size="10.00"> +messageType</text>
<text text-anchor="middle" x="214.5" y="-602" font-family="Helvetica,sans-Serif" font-size="10.00">+miraiCodeName</text>
</g>
<!-- Node7 -->
<g id="node7" class="node">
<title>Node7</title>
<g id="a_node7"><a xlink:title=" ">
<polygon fill="white" stroke="#bfbfbf" points="418.5,-413.5 418.5,-470.5 474.5,-470.5 474.5,-413.5 418.5,-413.5"/>
<text text-anchor="middle" x="446.5" y="-458.5" font-family="Helvetica,sans-Serif" font-size="10.00">long long</text>
<polyline fill="none" stroke="#bfbfbf" points="418.5,-451.5 474.5,-451.5 "/>
<text text-anchor="middle" x="446.5" y="-439.5" font-family="Helvetica,sans-Serif" font-size="10.00"> </text>
<polyline fill="none" stroke="#bfbfbf" points="418.5,-432.5 474.5,-432.5 "/>
<text text-anchor="middle" x="446.5" y="-420.5" font-family="Helvetica,sans-Serif" font-size="10.00"> </text>
</a>
</g>
</g>
<!-- Node7&#45;&gt;Node1 -->
<g id="edge8" class="edge">
<title>Node7&#45;&gt;Node1</title>
<path fill="none" stroke="#404040" d="M438.4,-413.46C427.46,-376.27 407.24,-307.51 389.05,-245.67"/>
<polygon fill="none" stroke="#404040" points="388.95,-245.33 383.42,-240.7 385.56,-233.82 391.09,-238.44 388.95,-245.33"/>
<text text-anchor="middle" x="412.5" y="-266" font-family="Helvetica,sans-Serif" font-size="10.00"> +size</text>
</g>
<!-- Node8 -->
<g id="node8" class="node">
<title>Node8</title>
<g id="a_node8"><a xlink:title=" ">
<polygon fill="white" stroke="#bfbfbf" points="492.5,-413.5 492.5,-470.5 548.5,-470.5 548.5,-413.5 492.5,-413.5"/>
<text text-anchor="middle" x="520.5" y="-458.5" font-family="Helvetica,sans-Serif" font-size="10.00">optional&lt;</text>
<polyline fill="none" stroke="#bfbfbf" points="492.5,-451.5 548.5,-451.5 "/>
<text text-anchor="middle" x="520.5" y="-439.5" font-family="Helvetica,sans-Serif" font-size="10.00"> </text>
<polyline fill="none" stroke="#bfbfbf" points="492.5,-432.5 548.5,-432.5 "/>
<text text-anchor="middle" x="520.5" y="-420.5" font-family="Helvetica,sans-Serif" font-size="10.00"> </text>
</a>
</g>
</g>
<!-- Node8&#45;&gt;Node1 -->
<g id="edge9" class="edge">
<title>Node8&#45;&gt;Node1</title>
<path fill="none" stroke="#404040" d="M516.08,-413.28C510.85,-384.67 500.59,-339.23 483.5,-303 470.27,-274.96 452.73,-246.71 434.77,-221.01"/>
<polygon fill="none" stroke="#404040" points="434.55,-220.71 427.81,-218.13 427.6,-210.92 434.34,-213.5 434.55,-220.71"/>
<text text-anchor="middle" x="486.5" y="-277" font-family="Helvetica,sans-Serif" font-size="10.00"> +dinfo</text>
<text text-anchor="middle" x="486.5" y="-266" font-family="Helvetica,sans-Serif" font-size="10.00">+finfo</text>
<text text-anchor="middle" x="486.5" y="-255" font-family="Helvetica,sans-Serif" font-size="10.00">+path</text>
</g>
</g>
</svg>
