<?xml version="1.0" encoding="UTF-8" standalone="no"?>
<!DOCTYPE svg PUBLIC "-//W3C//DTD SVG 1.1//EN"
 "http://www.w3.org/Graphics/SVG/1.1/DTD/svg11.dtd">
<!-- Generated by graphviz version 9.0.0 (0)
 -->
<!-- Title: MiraiCP::MiraiCPStringview Pages: 1 -->
<svg width="181pt" height="516pt"
 viewBox="0.00 0.00 181.00 516.00" xmlns="http://www.w3.org/2000/svg" xmlns:xlink="http://www.w3.org/1999/xlink">
<g id="graph0" class="graph" transform="scale(1 1) rotate(0) translate(4 512)">
<title>MiraiCP::MiraiCPStringview</title>
<!-- Node1 -->
<g id="Node000001" class="node">
<title>Node1</title>
<g id="a_Node000001"><a xlink:title="stringview的类似实现">
<polygon fill="#999999" stroke="none" points="173,-408 0,-408 0,0 173,0 173,-408"/>
<text text-anchor="start" x="25.38" y="-394.5" font-family="Helvetica,sans-Serif" font-size="10.00">MiraiCP::MiraiCPStringview</text>
<text text-anchor="start" x="85" y="-378.5" font-family="Helvetica,sans-Serif" font-size="10.00"> </text>
<text text-anchor="start" x="4" y="-362.5" font-family="Helvetica,sans-Serif" font-size="10.00">+</text>
<text text-anchor="start" x="14" y="-362.5" font-family="Helvetica,sans-Serif" font-size="10.00">MiraiCPStringview</text>
<text text-anchor="start" x="14" y="-350.5" font-family="Helvetica,sans-Serif" font-size="10.00">()=default</text>
<text text-anchor="start" x="4" y="-334.5" font-family="Helvetica,sans-Serif" font-size="10.00">+</text>
<text text-anchor="start" x="14" y="-334.5" font-family="Helvetica,sans-Serif" font-size="10.00">MiraiCPStringview</text>
<text text-anchor="start" x="14" y="-322.5" font-family="Helvetica,sans-Serif" font-size="10.00">(const MiraiCPStringview</text>
<text text-anchor="start" x="14" y="-310.5" font-family="Helvetica,sans-Serif" font-size="10.00"> &amp;other)=default</text>
<text text-anchor="start" x="4" y="-294.5" font-family="Helvetica,sans-Serif" font-size="10.00">+</text>
<text text-anchor="start" x="14" y="-294.5" font-family="Helvetica,sans-Serif" font-size="10.00">MiraiCPStringview &amp;</text>
<text text-anchor="start" x="14" y="-282.5" font-family="Helvetica,sans-Serif" font-size="10.00"> operator=(const MiraiCPStringview</text>
<text text-anchor="start" x="14" y="-270.5" font-family="Helvetica,sans-Serif" font-size="10.00"> &amp;other)=default</text>
<text text-anchor="start" x="4" y="-254.5" font-family="Helvetica,sans-Serif" font-size="10.00">+</text>
<text text-anchor="start" x="14" y="-254.5" font-family="Helvetica,sans-Serif" font-size="10.00">MiraiCPStringview</text>
<text text-anchor="start" x="14" y="-242.5" font-family="Helvetica,sans-Serif" font-size="10.00">(MiraiCPStringview &amp;&amp;temp)</text>
<text text-anchor="start" x="14" y="-230.5" font-family="Helvetica,sans-Serif" font-size="10.00"> noexcept=default</text>
<text text-anchor="start" x="4" y="-214.5" font-family="Helvetica,sans-Serif" font-size="10.00">+</text>
<text text-anchor="start" x="14" y="-214.5" font-family="Helvetica,sans-Serif" font-size="10.00">MiraiCPStringview &amp;</text>
<text text-anchor="start" x="14" y="-202.5" font-family="Helvetica,sans-Serif" font-size="10.00"> operator=(MiraiCPStringview</text>
<text text-anchor="start" x="14" y="-190.5" font-family="Helvetica,sans-Serif" font-size="10.00"> &amp;&amp;temp) noexcept=default</text>
<text text-anchor="start" x="4" y="-174.5" font-family="Helvetica,sans-Serif" font-size="10.00">+</text>
<text text-anchor="start" x="14" y="-174.5" font-family="Helvetica,sans-Serif" font-size="10.00">MiraiCPStringview</text>
<text text-anchor="start" x="14" y="-162.5" font-family="Helvetica,sans-Serif" font-size="10.00">(const char *char_str)</text>
<text text-anchor="start" x="4" y="-146.5" font-family="Helvetica,sans-Serif" font-size="10.00">+</text>
<text text-anchor="start" x="14" y="-146.5" font-family="Helvetica,sans-Serif" font-size="10.00">MiraiCPStringview</text>
<text text-anchor="start" x="14" y="-134.5" font-family="Helvetica,sans-Serif" font-size="10.00">(const std::string &amp;string_str)</text>
<text text-anchor="start" x="4" y="-118.5" font-family="Helvetica,sans-Serif" font-size="10.00">+</text>
<text text-anchor="start" x="14" y="-118.5" font-family="Helvetica,sans-Serif" font-size="10.00">MiraiCPStringview</text>
<text text-anchor="start" x="14" y="-106.5" font-family="Helvetica,sans-Serif" font-size="10.00">(const MiraiCPString</text>
<text text-anchor="start" x="14" y="-94.5" font-family="Helvetica,sans-Serif" font-size="10.00"> &amp;miraiCPString)</text>
<text text-anchor="start" x="4" y="-78.5" font-family="Helvetica,sans-Serif" font-size="10.00">+</text>
<text text-anchor="start" x="14" y="-78.5" font-family="Helvetica,sans-Serif" font-size="10.00">~MiraiCPStringview</text>
<text text-anchor="start" x="14" y="-66.5" font-family="Helvetica,sans-Serif" font-size="10.00">()=default</text>
<text text-anchor="start" x="4" y="-50.5" font-family="Helvetica,sans-Serif" font-size="10.00">+</text>
<text text-anchor="start" x="14" y="-50.5" font-family="Helvetica,sans-Serif" font-size="10.00">bool isEmpty() const</text>
<text text-anchor="start" x="4" y="-34.5" font-family="Helvetica,sans-Serif" font-size="10.00">+</text>
<text text-anchor="start" x="14" y="-34.5" font-family="Helvetica,sans-Serif" font-size="10.00">const char * c_str</text>
<text text-anchor="start" x="14" y="-22.5" font-family="Helvetica,sans-Serif" font-size="10.00">() const</text>
<text text-anchor="start" x="4" y="-6.5" font-family="Helvetica,sans-Serif" font-size="10.00">+</text>
<text text-anchor="start" x="14" y="-6.5" font-family="Helvetica,sans-Serif" font-size="10.00">size_t size() const</text>
<polygon fill="#666666" stroke="#666666" points="0,-390 0,-390 173,-390 173,-390 0,-390"/>
<polygon fill="#666666" stroke="#666666" points="0,-374 0,-374 173,-374 173,-374 0,-374"/>
<polygon fill="none" stroke="#666666" points="0,0 0,-408 173,-408 173,0 0,0"/>
</a>
</g>
</g>
<!-- Node2 -->
<g id="Node000002" class="node">
<title>Node2</title>
<g id="a_Node000002"><a xlink:title=" ">
<polygon fill="white" stroke="none" points="84.5,-508 22.5,-508 22.5,-456 84.5,-456 84.5,-508"/>
<text text-anchor="start" x="27.25" y="-494.5" font-family="Helvetica,sans-Serif" font-size="10.00">const char *</text>
<text text-anchor="start" x="52" y="-478.5" font-family="Helvetica,sans-Serif" font-size="10.00"> </text>
<text text-anchor="start" x="52" y="-462.5" font-family="Helvetica,sans-Serif" font-size="10.00"> </text>
<polygon fill="#666666" stroke="#666666" points="22.5,-490 22.5,-490 84.5,-490 84.5,-490 22.5,-490"/>
<polygon fill="#666666" stroke="#666666" points="22.5,-474 22.5,-474 84.5,-474 84.5,-474 22.5,-474"/>
<polygon fill="none" stroke="#666666" points="22.5,-456 22.5,-508 84.5,-508 84.5,-456 22.5,-456"/>
</a>
</g>
</g>
<!-- Node2&#45;&gt;Node1 -->
<g id="edge1_Node000001_Node000002" class="edge">
<title>Node2&#45;&gt;Node1</title>
<g id="a_edge1_Node000001_Node000002"><a xlink:title=" ">
<path fill="none" stroke="#63b8ff" d="M56.49,-456.02C57.65,-446.32 59.09,-434.27 60.71,-420.74"/>
<polygon fill="none" stroke="#63b8ff" points="60.71,-420.73 57.45,-414.3 62.13,-408.82 65.39,-415.25 60.71,-420.73"/>
</a>
</g>
<text text-anchor="middle" x="69.12" y="-428.5" font-family="Helvetica,sans-Serif" font-size="10.00" fill="grey"> &#45;str</text>
</g>
<!-- Node3 -->
<g id="Node000003" class="node">
<title>Node3</title>
<g id="a_Node000003"><a xlink:title=" ">
<polygon fill="white" stroke="none" points="138.5,-508 102.5,-508 102.5,-456 138.5,-456 138.5,-508"/>
<text text-anchor="start" x="107.38" y="-494.5" font-family="Helvetica,sans-Serif" font-size="10.00">size_t</text>
<text text-anchor="start" x="119" y="-478.5" font-family="Helvetica,sans-Serif" font-size="10.00"> </text>
<text text-anchor="start" x="119" y="-462.5" font-family="Helvetica,sans-Serif" font-size="10.00"> </text>
<polygon fill="#666666" stroke="#666666" points="102.5,-490 102.5,-490 138.5,-490 138.5,-490 102.5,-490"/>
<polygon fill="#666666" stroke="#666666" points="102.5,-474 102.5,-474 138.5,-474 138.5,-474 102.5,-474"/>
<polygon fill="none" stroke="#666666" points="102.5,-456 102.5,-508 138.5,-508 138.5,-456 102.5,-456"/>
</a>
</g>
</g>
<!-- Node3&#45;&gt;Node1 -->
<g id="edge2_Node000001_Node000003" class="edge">
<title>Node3&#45;&gt;Node1</title>
<g id="a_edge2_Node000001_Node000003"><a xlink:title=" ">
<path fill="none" stroke="#63b8ff" d="M117.42,-456.02C116.23,-446.32 114.74,-434.27 113.08,-420.74"/>
<polygon fill="none" stroke="#63b8ff" points="113.07,-420.73 108.37,-415.26 111.61,-408.82 116.31,-414.28 113.07,-420.73"/>
</a>
</g>
<text text-anchor="middle" x="129.12" y="-428.5" font-family="Helvetica,sans-Serif" font-size="10.00" fill="grey"> &#45;_size</text>
</g>
</g>
</svg>
