<?xml version="1.0" encoding="UTF-8" standalone="no"?>
<!DOCTYPE svg PUBLIC "-//W3C//DTD SVG 1.1//EN"
 "http://www.w3.org/Graphics/SVG/1.1/DTD/svg11.dtd">
<!-- Generated by graphviz version 2.50.0 (20211204.2007)
 -->
<!-- Title: MiraiCP::ServiceMessage Pages: 1 -->
<svg width="374pt" height="1080pt"
 viewBox="0.00 0.00 374.00 1080.00" xmlns="http://www.w3.org/2000/svg" xmlns:xlink="http://www.w3.org/1999/xlink">
<g id="graph0" class="graph" transform="scale(1 1) rotate(0) translate(4 1076)">
<title>MiraiCP::ServiceMessage</title>
<polygon fill="white" stroke="transparent" points="-4,4 -4,-1076 370,-1076 370,4 -4,4"/>
<!-- Node1 -->
<g id="node1" class="node">
<title>Node1</title>
<g id="a_node1"><a xlink:title=" ">
<polygon fill="#bfbfbf" stroke="black" points="79.5,-0.5 79.5,-332.5 215.5,-332.5 215.5,-0.5 79.5,-0.5"/>
<text text-anchor="middle" x="147.5" y="-320.5" font-family="Helvetica,sans-Serif" font-size="10.00">MiraiCP::ServiceMessage</text>
<polyline fill="none" stroke="black" points="79.5,-313.5 215.5,-313.5 "/>
<text text-anchor="middle" x="147.5" y="-301.5" font-family="Helvetica,sans-Serif" font-size="10.00"> </text>
<polyline fill="none" stroke="black" points="79.5,-294.5 215.5,-294.5 "/>
<text text-anchor="start" x="87.5" y="-282.5" font-family="Helvetica,sans-Serif" font-size="10.00">+ nlohmann::json toJson</text>
<text text-anchor="start" x="87.5" y="-271.5" font-family="Helvetica,sans-Serif" font-size="10.00">() const override</text>
<text text-anchor="start" x="87.5" y="-260.5" font-family="Helvetica,sans-Serif" font-size="10.00">+ std::string toMiraiCode</text>
<text text-anchor="start" x="87.5" y="-249.5" font-family="Helvetica,sans-Serif" font-size="10.00">() const override</text>
<text text-anchor="start" x="87.5" y="-238.5" font-family="Helvetica,sans-Serif" font-size="10.00">+ ServiceMessage(int</text>
<text text-anchor="start" x="87.5" y="-227.5" font-family="Helvetica,sans-Serif" font-size="10.00"> id, std::string a)</text>
<text text-anchor="start" x="87.5" y="-216.5" font-family="Helvetica,sans-Serif" font-size="10.00">+ ServiceMessage(const</text>
<text text-anchor="start" x="87.5" y="-205.5" font-family="Helvetica,sans-Serif" font-size="10.00"> SingleMessage &amp;sg)</text>
<text text-anchor="start" x="87.5" y="-194.5" font-family="Helvetica,sans-Serif" font-size="10.00">+ ServiceMessage(const</text>
<text text-anchor="start" x="87.5" y="-183.5" font-family="Helvetica,sans-Serif" font-size="10.00"> URLSharer &amp;a)</text>
<text text-anchor="start" x="87.5" y="-172.5" font-family="Helvetica,sans-Serif" font-size="10.00">+ bool operator==(const</text>
<text text-anchor="start" x="87.5" y="-161.5" font-family="Helvetica,sans-Serif" font-size="10.00"> ServiceMessage &amp;s) const</text>
<text text-anchor="start" x="87.5" y="-150.5" font-family="Helvetica,sans-Serif" font-size="10.00">+ nlohmann::json toJson</text>
<text text-anchor="start" x="87.5" y="-139.5" font-family="Helvetica,sans-Serif" font-size="10.00">() const override</text>
<text text-anchor="start" x="87.5" y="-128.5" font-family="Helvetica,sans-Serif" font-size="10.00">+ std::string toMiraiCode</text>
<text text-anchor="start" x="87.5" y="-117.5" font-family="Helvetica,sans-Serif" font-size="10.00">() const override</text>
<text text-anchor="start" x="87.5" y="-106.5" font-family="Helvetica,sans-Serif" font-size="10.00">+ ServiceMessage(int</text>
<text text-anchor="start" x="87.5" y="-95.5" font-family="Helvetica,sans-Serif" font-size="10.00"> id, std::string a)</text>
<text text-anchor="start" x="87.5" y="-84.5" font-family="Helvetica,sans-Serif" font-size="10.00">+ ServiceMessage(const</text>
<text text-anchor="start" x="87.5" y="-73.5" font-family="Helvetica,sans-Serif" font-size="10.00"> SingleMessage &amp;sg)</text>
<text text-anchor="start" x="87.5" y="-62.5" font-family="Helvetica,sans-Serif" font-size="10.00">+ ServiceMessage(const</text>
<text text-anchor="start" x="87.5" y="-51.5" font-family="Helvetica,sans-Serif" font-size="10.00"> URLSharer &amp;a)</text>
<text text-anchor="start" x="87.5" y="-40.5" font-family="Helvetica,sans-Serif" font-size="10.00">+ bool operator==(const</text>
<text text-anchor="start" x="87.5" y="-29.5" font-family="Helvetica,sans-Serif" font-size="10.00"> ServiceMessage &amp;s) const</text>
<text text-anchor="start" x="87.5" y="-18.5" font-family="Helvetica,sans-Serif" font-size="10.00">+ static int type()</text>
<text text-anchor="start" x="87.5" y="-7.5" font-family="Helvetica,sans-Serif" font-size="10.00">+ static int type()</text>
</a>
</g>
</g>
<!-- Node2 -->
<g id="node2" class="node">
<title>Node2</title>
<g id="a_node2"><a xlink:href="a00748.html" target="_top" xlink:title="MessageChain的组成部分">
<polygon fill="white" stroke="black" points="65.5,-370.5 65.5,-878.5 229.5,-878.5 229.5,-370.5 65.5,-370.5"/>
<text text-anchor="middle" x="147.5" y="-866.5" font-family="Helvetica,sans-Serif" font-size="10.00">MiraiCP::SingleMessage</text>
<polyline fill="none" stroke="black" points="65.5,-859.5 229.5,-859.5 "/>
<text text-anchor="middle" x="147.5" y="-847.5" font-family="Helvetica,sans-Serif" font-size="10.00"> </text>
<polyline fill="none" stroke="black" points="65.5,-840.5 229.5,-840.5 "/>
<text text-anchor="start" x="73.5" y="-828.5" font-family="Helvetica,sans-Serif" font-size="10.00">+ SingleMessage(int</text>
<text text-anchor="start" x="73.5" y="-817.5" font-family="Helvetica,sans-Serif" font-size="10.00"> inType, std::string</text>
<text text-anchor="start" x="73.5" y="-806.5" font-family="Helvetica,sans-Serif" font-size="10.00"> content, std::string</text>
<text text-anchor="start" x="73.5" y="-795.5" font-family="Helvetica,sans-Serif" font-size="10.00"> prefix=&quot;:&quot;) noexcept</text>
<text text-anchor="start" x="73.5" y="-784.5" font-family="Helvetica,sans-Serif" font-size="10.00">+ virtual ~SingleMessage</text>
<text text-anchor="start" x="73.5" y="-773.5" font-family="Helvetica,sans-Serif" font-size="10.00">() noexcept=default</text>
<text text-anchor="start" x="73.5" y="-762.5" font-family="Helvetica,sans-Serif" font-size="10.00">+ virtual nlohmann::json</text>
<text text-anchor="start" x="73.5" y="-751.5" font-family="Helvetica,sans-Serif" font-size="10.00"> toJson() const</text>
<text text-anchor="start" x="73.5" y="-740.5" font-family="Helvetica,sans-Serif" font-size="10.00">+ std::string toMiraiCode</text>
<text text-anchor="start" x="73.5" y="-729.5" font-family="Helvetica,sans-Serif" font-size="10.00">() const override</text>
<text text-anchor="start" x="73.5" y="-718.5" font-family="Helvetica,sans-Serif" font-size="10.00">+ bool operator==(const</text>
<text text-anchor="start" x="73.5" y="-707.5" font-family="Helvetica,sans-Serif" font-size="10.00"> SingleMessage &amp;m) const</text>
<text text-anchor="start" x="73.5" y="-696.5" font-family="Helvetica,sans-Serif" font-size="10.00">+ bool operator==(SingleMessage</text>
<text text-anchor="start" x="73.5" y="-685.5" font-family="Helvetica,sans-Serif" font-size="10.00"> *m) const</text>
<text text-anchor="start" x="73.5" y="-674.5" font-family="Helvetica,sans-Serif" font-size="10.00">+ SingleMessage(int</text>
<text text-anchor="start" x="73.5" y="-663.5" font-family="Helvetica,sans-Serif" font-size="10.00"> inType, std::string</text>
<text text-anchor="start" x="73.5" y="-652.5" font-family="Helvetica,sans-Serif" font-size="10.00"> content, std::string</text>
<text text-anchor="start" x="73.5" y="-641.5" font-family="Helvetica,sans-Serif" font-size="10.00"> prefix=&quot;:&quot;) noexcept</text>
<text text-anchor="start" x="73.5" y="-630.5" font-family="Helvetica,sans-Serif" font-size="10.00">+ virtual ~SingleMessage</text>
<text text-anchor="start" x="73.5" y="-619.5" font-family="Helvetica,sans-Serif" font-size="10.00">() noexcept=default</text>
<text text-anchor="start" x="73.5" y="-608.5" font-family="Helvetica,sans-Serif" font-size="10.00">+ virtual nlohmann::json</text>
<text text-anchor="start" x="73.5" y="-597.5" font-family="Helvetica,sans-Serif" font-size="10.00"> toJson() const</text>
<text text-anchor="start" x="73.5" y="-586.5" font-family="Helvetica,sans-Serif" font-size="10.00">+ std::string toMiraiCode</text>
<text text-anchor="start" x="73.5" y="-575.5" font-family="Helvetica,sans-Serif" font-size="10.00">() const override</text>
<text text-anchor="start" x="73.5" y="-564.5" font-family="Helvetica,sans-Serif" font-size="10.00">+ bool operator==(const</text>
<text text-anchor="start" x="73.5" y="-553.5" font-family="Helvetica,sans-Serif" font-size="10.00"> SingleMessage &amp;m) const</text>
<text text-anchor="start" x="73.5" y="-542.5" font-family="Helvetica,sans-Serif" font-size="10.00">+ bool operator==(SingleMessage</text>
<text text-anchor="start" x="73.5" y="-531.5" font-family="Helvetica,sans-Serif" font-size="10.00"> *m) const</text>
<text text-anchor="start" x="73.5" y="-520.5" font-family="Helvetica,sans-Serif" font-size="10.00">+ static std::string</text>
<text text-anchor="start" x="73.5" y="-509.5" font-family="Helvetica,sans-Serif" font-size="10.00"> getTypeString(int type)</text>
<text text-anchor="start" x="73.5" y="-498.5" font-family="Helvetica,sans-Serif" font-size="10.00">+ static int getKey(const</text>
<text text-anchor="start" x="73.5" y="-487.5" font-family="Helvetica,sans-Serif" font-size="10.00"> std::string &amp;value)</text>
<text text-anchor="start" x="73.5" y="-476.5" font-family="Helvetica,sans-Serif" font-size="10.00">+ static int getMiraiCodeKey</text>
<text text-anchor="start" x="73.5" y="-465.5" font-family="Helvetica,sans-Serif" font-size="10.00">(const std::string &amp;value)</text>
<text text-anchor="start" x="73.5" y="-454.5" font-family="Helvetica,sans-Serif" font-size="10.00">+ static std::string</text>
<text text-anchor="start" x="73.5" y="-443.5" font-family="Helvetica,sans-Serif" font-size="10.00"> getTypeString(int type)</text>
<text text-anchor="start" x="73.5" y="-432.5" font-family="Helvetica,sans-Serif" font-size="10.00">+ static int getKey(const</text>
<text text-anchor="start" x="73.5" y="-421.5" font-family="Helvetica,sans-Serif" font-size="10.00"> std::string &amp;value)</text>
<text text-anchor="start" x="73.5" y="-410.5" font-family="Helvetica,sans-Serif" font-size="10.00">+ static int getMiraiCodeKey</text>
<text text-anchor="start" x="73.5" y="-399.5" font-family="Helvetica,sans-Serif" font-size="10.00">(const std::string &amp;value)</text>
<text text-anchor="start" x="73.5" y="-388.5" font-family="Helvetica,sans-Serif" font-size="10.00"># SingleMessage()=default</text>
<text text-anchor="start" x="73.5" y="-377.5" font-family="Helvetica,sans-Serif" font-size="10.00"># SingleMessage()=default</text>
</a>
</g>
</g>
<!-- Node2&#45;&gt;Node1 -->
<g id="edge1" class="edge">
<title>Node2&#45;&gt;Node1</title>
<path fill="none" stroke="midnightblue" d="M140.82,-360.38C140.86,-351.09 140.91,-341.87 140.98,-332.8"/>
<polygon fill="none" stroke="midnightblue" points="137.32,-360.48 140.79,-370.5 144.32,-360.51 137.32,-360.48"/>
</g>
<!-- Node2&#45;&gt;Node1 -->
<g id="edge7" class="edge">
<title>Node2&#45;&gt;Node1</title>
<path fill="none" stroke="midnightblue" d="M154.18,-360.38C154.14,-351.09 154.09,-341.87 154.02,-332.8"/>
<polygon fill="none" stroke="midnightblue" points="150.68,-360.51 154.21,-370.5 157.68,-360.48 150.68,-360.51"/>
</g>
<!-- Node3 -->
<g id="node3" class="node">
<title>Node3</title>
<g id="a_node3"><a xlink:href="a00732.html" target="_top" xlink:title="MiraiCode父类, 指可以被转换成miraicode的类型">
<polygon fill="white" stroke="black" points="59,-937.5 59,-1071.5 180,-1071.5 180,-937.5 59,-937.5"/>
<text text-anchor="middle" x="119.5" y="-1059.5" font-family="Helvetica,sans-Serif" font-size="10.00">MiraiCP::MiraiCodeable</text>
<polyline fill="none" stroke="black" points="59,-1052.5 180,-1052.5 "/>
<text text-anchor="middle" x="119.5" y="-1040.5" font-family="Helvetica,sans-Serif" font-size="10.00"> </text>
<polyline fill="none" stroke="black" points="59,-1033.5 180,-1033.5 "/>
<text text-anchor="start" x="67" y="-1021.5" font-family="Helvetica,sans-Serif" font-size="10.00">+ virtual std::string</text>
<text text-anchor="start" x="67" y="-1010.5" font-family="Helvetica,sans-Serif" font-size="10.00"> toMiraiCode() const =0</text>
<text text-anchor="start" x="67" y="-999.5" font-family="Helvetica,sans-Serif" font-size="10.00">+ virtual ~MiraiCodeable</text>
<text text-anchor="start" x="67" y="-988.5" font-family="Helvetica,sans-Serif" font-size="10.00">()=default</text>
<text text-anchor="start" x="67" y="-977.5" font-family="Helvetica,sans-Serif" font-size="10.00">+ virtual std::string</text>
<text text-anchor="start" x="67" y="-966.5" font-family="Helvetica,sans-Serif" font-size="10.00"> toMiraiCode() const =0</text>
<text text-anchor="start" x="67" y="-955.5" font-family="Helvetica,sans-Serif" font-size="10.00">+ virtual ~MiraiCodeable</text>
<text text-anchor="start" x="67" y="-944.5" font-family="Helvetica,sans-Serif" font-size="10.00">()=default</text>
</a>
</g>
</g>
<!-- Node3&#45;&gt;Node2 -->
<g id="edge2" class="edge">
<title>Node3&#45;&gt;Node2</title>
<path fill="none" stroke="midnightblue" d="M119.61,-927.15C120.35,-912.24 121.28,-895.86 122.35,-878.68"/>
<polygon fill="none" stroke="midnightblue" points="116.11,-927.07 119.13,-937.22 123.1,-927.4 116.11,-927.07"/>
</g>
<!-- Node3&#45;&gt;Node2 -->
<g id="edge3" class="edge">
<title>Node3&#45;&gt;Node2</title>
<path fill="none" stroke="midnightblue" d="M130.7,-927.15C132.17,-912.24 133.67,-895.86 135.14,-878.68"/>
<polygon fill="none" stroke="midnightblue" points="127.21,-926.93 129.69,-937.22 134.17,-927.62 127.21,-926.93"/>
</g>
<!-- Node4 -->
<g id="node4" class="node">
<title>Node4</title>
<g id="a_node4"><a xlink:title=" ">
<polygon fill="white" stroke="#bfbfbf" points="0,-976 0,-1033 41,-1033 41,-976 0,-976"/>
<text text-anchor="middle" x="20.5" y="-1021" font-family="Helvetica,sans-Serif" font-size="10.00">string</text>
<polyline fill="none" stroke="#bfbfbf" points="0,-1014 41,-1014 "/>
<text text-anchor="middle" x="20.5" y="-1002" font-family="Helvetica,sans-Serif" font-size="10.00"> </text>
<polyline fill="none" stroke="#bfbfbf" points="0,-995 41,-995 "/>
<text text-anchor="middle" x="20.5" y="-983" font-family="Helvetica,sans-Serif" font-size="10.00"> </text>
</a>
</g>
</g>
<!-- Node4&#45;&gt;Node2 -->
<g id="edge4" class="edge">
<title>Node4&#45;&gt;Node2</title>
<path fill="none" stroke="#404040" d="M29.84,-975.7C37.37,-953.28 48.8,-919.27 61.62,-881.1"/>
<polygon fill="none" stroke="#404040" points="61.64,-881.06 59.76,-874.1 65.46,-869.69 67.34,-876.65 61.64,-881.06"/>
<text text-anchor="middle" x="76.5" y="-911" font-family="Helvetica,sans-Serif" font-size="10.00"> +content</text>
<text text-anchor="middle" x="76.5" y="-900" font-family="Helvetica,sans-Serif" font-size="10.00">+prefix</text>
</g>
<!-- Node5 -->
<g id="node5" class="node">
<title>Node5</title>
<g id="a_node5"><a xlink:title=" ">
<polygon fill="white" stroke="#bfbfbf" points="337,-976 337,-1033 366,-1033 366,-976 337,-976"/>
<text text-anchor="middle" x="351.5" y="-1021" font-family="Helvetica,sans-Serif" font-size="10.00">int</text>
<polyline fill="none" stroke="#bfbfbf" points="337,-1014 366,-1014 "/>
<text text-anchor="middle" x="351.5" y="-1002" font-family="Helvetica,sans-Serif" font-size="10.00"> </text>
<polyline fill="none" stroke="#bfbfbf" points="337,-995 366,-995 "/>
<text text-anchor="middle" x="351.5" y="-983" font-family="Helvetica,sans-Serif" font-size="10.00"> </text>
</a>
</g>
</g>
<!-- Node5&#45;&gt;Node1 -->
<g id="edge8" class="edge">
<title>Node5&#45;&gt;Node1</title>
<path fill="none" stroke="#404040" d="M349.09,-975.73C340.8,-886.18 309.9,-597.58 238.5,-370 233.2,-353.11 226.87,-335.76 220.05,-318.65"/>
<polygon fill="none" stroke="#404040" points="220.02,-318.58 214.06,-314.52 215.51,-307.46 221.47,-311.52 220.02,-318.58"/>
<text text-anchor="middle" x="346" y="-622" font-family="Helvetica,sans-Serif" font-size="10.00"> +id</text>
</g>
<!-- Node5&#45;&gt;Node2 -->
<g id="edge5" class="edge">
<title>Node5&#45;&gt;Node2</title>
<path fill="none" stroke="#404040" d="M347.25,-975.9C343.91,-962.6 337.98,-947.35 327.5,-937 310.09,-919.82 293.45,-935.61 275.5,-919 261.05,-905.64 248.15,-890.36 236.65,-873.95"/>
<polygon fill="none" stroke="#404040" points="236.37,-873.54 229.7,-870.8 229.67,-863.59 236.34,-866.33 236.37,-873.54"/>
<text text-anchor="middle" x="306.5" y="-905.5" font-family="Helvetica,sans-Serif" font-size="10.00"> +internalType</text>
</g>
<!-- Node6 -->
<g id="node6" class="node">
<title>Node6</title>
<g id="a_node6"><a xlink:title=" ">
<polygon fill="white" stroke="#bfbfbf" points="198.5,-970.5 198.5,-1038.5 318.5,-1038.5 318.5,-970.5 198.5,-970.5"/>
<text text-anchor="start" x="206.5" y="-1026.5" font-family="Helvetica,sans-Serif" font-size="10.00">static const char *const</text>
<text text-anchor="middle" x="258.5" y="-1015.5" font-family="Helvetica,sans-Serif" font-size="10.00"> *const</text>
<polyline fill="none" stroke="#bfbfbf" points="198.5,-1008.5 318.5,-1008.5 "/>
<text text-anchor="middle" x="258.5" y="-996.5" font-family="Helvetica,sans-Serif" font-size="10.00"> </text>
<polyline fill="none" stroke="#bfbfbf" points="198.5,-989.5 318.5,-989.5 "/>
<text text-anchor="middle" x="258.5" y="-977.5" font-family="Helvetica,sans-Serif" font-size="10.00"> </text>
</a>
</g>
</g>
<!-- Node6&#45;&gt;Node2 -->
<g id="edge6" class="edge">
<title>Node6&#45;&gt;Node2</title>
<path fill="none" stroke="#404040" d="M224.19,-970.27C203.06,-949.45 179.47,-925.4 176.5,-919 172.2,-909.74 168.4,-900.13 165.04,-890.3"/>
<polygon fill="none" stroke="#404040" points="164.97,-890.09 159.32,-885.6 161.29,-878.66 166.93,-883.15 164.97,-890.09"/>
<text text-anchor="middle" x="214.5" y="-911" font-family="Helvetica,sans-Serif" font-size="10.00"> +messageType</text>
<text text-anchor="middle" x="214.5" y="-900" font-family="Helvetica,sans-Serif" font-size="10.00">+miraiCodeName</text>
</g>
</g>
</svg>
