<?xml version="1.0" encoding="UTF-8" standalone="no"?>
<!DOCTYPE svg PUBLIC "-//W3C//DTD SVG 1.1//EN"
 "http://www.w3.org/Graphics/SVG/1.1/DTD/svg11.dtd">
<!-- Generated by graphviz version 2.50.0 (20211204.2007)
 -->
<!-- Title: MiraiCP::MiraiCPNewThread::MiraiCPNewThread Pages: 1 -->
<svg width="825pt" height="284pt"
 viewBox="0.00 0.00 825.00 283.50" xmlns="http://www.w3.org/2000/svg" xmlns:xlink="http://www.w3.org/1999/xlink">
<g id="graph0" class="graph" transform="scale(1 1) rotate(0) translate(4 279.5)">
<title>MiraiCP::MiraiCPNewThread::MiraiCPNewThread</title>
<polygon fill="white" stroke="transparent" points="-4,4 -4,-279.5 821,-279.5 821,4 -4,4"/>
<!-- Node1 -->
<g id="node1" class="node">
<title>Node1</title>
<g id="a_node1"><a xlink:title=" ">
<polygon fill="#bfbfbf" stroke="black" points="0,-136.5 0,-166.5 140,-166.5 140,-136.5 0,-136.5"/>
<text text-anchor="start" x="8" y="-154.5" font-family="Helvetica,sans-Serif" font-size="10.00">MiraiCP::MiraiCPNewThread</text>
<text text-anchor="middle" x="70" y="-143.5" font-family="Helvetica,sans-Serif" font-size="10.00">::MiraiCPNewThread</text>
</a>
</g>
</g>
<!-- Node2 -->
<g id="node2" class="node">
<title>Node2</title>
<g id="a_node2"><a xlink:href="a00524.html#adbdeabc1c1a6797391ba47201320047c" target="_top" xlink:title="广播一个事件, 必须为MiraiCPEvent的派生类">
<polygon fill="white" stroke="black" points="178.5,-256 178.5,-275 308.5,-275 308.5,-256 178.5,-256"/>
<text text-anchor="middle" x="243.5" y="-263" font-family="Helvetica,sans-Serif" font-size="10.00">MiraiCP::Event::broadcast</text>
</a>
</g>
</g>
<!-- Node1&#45;&gt;Node2 -->
<g id="edge1" class="edge">
<title>Node1&#45;&gt;Node2</title>
<path fill="none" stroke="midnightblue" d="M83.65,-166.67C101.92,-187.63 137.74,-225.26 176,-246.5 180.01,-248.72 184.29,-250.71 188.69,-252.47"/>
<polygon fill="midnightblue" stroke="midnightblue" points="187.84,-255.88 198.43,-255.99 190.22,-249.3 187.84,-255.88"/>
</g>
<!-- Node3 -->
<g id="node3" class="node">
<title>Node3</title>
<g id="a_node3"><a xlink:href="a00053.html#a950b21be09363bd9b3cda80780d6f53f" target="_top" xlink:title=" ">
<polygon fill="white" stroke="black" points="368.5,-199 368.5,-218 460.5,-218 460.5,-199 368.5,-199"/>
<text text-anchor="middle" x="414.5" y="-206" font-family="Helvetica,sans-Serif" font-size="10.00">checkPthreadLen</text>
</a>
</g>
</g>
<!-- Node1&#45;&gt;Node3 -->
<g id="edge2" class="edge">
<title>Node1&#45;&gt;Node3</title>
<path fill="none" stroke="midnightblue" d="M140.15,-164.22C152.1,-166.36 164.4,-168.52 176,-170.5 238.45,-181.14 310.29,-192.52 358.46,-200.02"/>
<polygon fill="midnightblue" stroke="midnightblue" points="357.95,-203.48 368.37,-201.56 359.02,-196.56 357.95,-203.48"/>
</g>
<!-- Node4 -->
<g id="node4" class="node">
<title>Node4</title>
<g id="a_node4"><a xlink:href="a00053.html#a9f67720001db7976ed33085c42d81fb0" target="_top" xlink:title=" ">
<polygon fill="white" stroke="black" points="178,-218 178,-237 309,-237 309,-218 178,-218"/>
<text text-anchor="middle" x="243.5" y="-225" font-family="Helvetica,sans-Serif" font-size="10.00">platform_set_thread_name</text>
</a>
</g>
</g>
<!-- Node1&#45;&gt;Node4 -->
<g id="edge3" class="edge">
<title>Node1&#45;&gt;Node4</title>
<path fill="none" stroke="midnightblue" d="M99.11,-166.51C120.03,-177.41 149.43,-192.17 176,-203.5 185.05,-207.36 194.95,-211.15 204.29,-214.55"/>
<polygon fill="midnightblue" stroke="midnightblue" points="203.15,-217.86 213.75,-217.92 205.5,-211.27 203.15,-217.86"/>
</g>
<!-- Node5 -->
<g id="node5" class="node">
<title>Node5</title>
<g id="a_node5"><a xlink:href="a00053.html#a355ba908e1bbef8ea09eeed979a16520" target="_top" xlink:title=" ">
<polygon fill="white" stroke="black" points="191.5,-142 191.5,-161 295.5,-161 295.5,-142 191.5,-142"/>
<text text-anchor="middle" x="243.5" y="-149" font-family="Helvetica,sans-Serif" font-size="10.00">platform_thread_self</text>
</a>
</g>
</g>
<!-- Node1&#45;&gt;Node5 -->
<g id="edge5" class="edge">
<title>Node1&#45;&gt;Node5</title>
<path fill="none" stroke="midnightblue" d="M140.26,-151.5C153.89,-151.5 168.1,-151.5 181.44,-151.5"/>
<polygon fill="midnightblue" stroke="midnightblue" points="181.44,-155 191.44,-151.5 181.44,-148 181.44,-155"/>
</g>
<!-- Node6 -->
<g id="node6" class="node">
<title>Node6</title>
<g id="a_node6"><a xlink:href="a00532.html#a27e4eaeb594e067089585f1975b7eb74" target="_top" xlink:title="实际抛出方法">
<polygon fill="white" stroke="black" points="176,-16.5 176,-46.5 311,-46.5 311,-16.5 176,-16.5"/>
<text text-anchor="start" x="184" y="-34.5" font-family="Helvetica,sans-Serif" font-size="10.00">MiraiCP::MiraiCPException</text>
<text text-anchor="middle" x="243.5" y="-23.5" font-family="Helvetica,sans-Serif" font-size="10.00">Base::raise</text>
</a>
</g>
</g>
<!-- Node1&#45;&gt;Node6 -->
<g id="edge6" class="edge">
<title>Node1&#45;&gt;Node6</title>
<path fill="none" stroke="midnightblue" d="M85.9,-136.28C105.32,-117.05 140.95,-83.78 176,-61.5 181.89,-57.76 188.32,-54.24 194.8,-51.01"/>
<polygon fill="midnightblue" stroke="midnightblue" points="196.72,-53.97 204.25,-46.52 193.71,-47.65 196.72,-53.97"/>
</g>
<!-- Node11 -->
<g id="node11" class="node">
<title>Node11</title>
<g id="a_node11"><a xlink:href="a00532.html#aaac831e38c70fa529b8894b825dba04c" target="_top" xlink:title="异常信息">
<polygon fill="white" stroke="black" points="518,-49.5 518,-79.5 653,-79.5 653,-49.5 518,-49.5"/>
<text text-anchor="start" x="526" y="-67.5" font-family="Helvetica,sans-Serif" font-size="10.00">MiraiCP::MiraiCPException</text>
<text text-anchor="middle" x="585.5" y="-56.5" font-family="Helvetica,sans-Serif" font-size="10.00">Base::what</text>
</a>
</g>
</g>
<!-- Node1&#45;&gt;Node11 -->
<g id="edge16" class="edge">
<title>Node1&#45;&gt;Node11</title>
<path fill="none" stroke="midnightblue" d="M111.4,-136.49C130.72,-129.81 154.31,-122.37 176,-117.5 290.03,-91.87 424.96,-77.36 507.62,-70.22"/>
<polygon fill="midnightblue" stroke="midnightblue" points="508.02,-73.7 517.69,-69.37 507.43,-66.73 508.02,-73.7"/>
</g>
<!-- Node12 -->
<g id="node12" class="node">
<title>Node12</title>
<g id="a_node12"><a xlink:href="a00660.html#a279a66d53b8b825f4a9ebc8fe30f20d6" target="_top" xlink:title="发送警告(warning级日志)">
<polygon fill="white" stroke="black" points="521.5,-98.5 521.5,-128.5 649.5,-128.5 649.5,-98.5 521.5,-98.5"/>
<text text-anchor="start" x="529.5" y="-116.5" font-family="Helvetica,sans-Serif" font-size="10.00">MiraiCP::Logger_interface</text>
<text text-anchor="middle" x="585.5" y="-105.5" font-family="Helvetica,sans-Serif" font-size="10.00">::warning</text>
</a>
</g>
</g>
<!-- Node1&#45;&gt;Node12 -->
<g id="edge13" class="edge">
<title>Node1&#45;&gt;Node12</title>
<path fill="none" stroke="midnightblue" d="M140.28,-137.62C152.16,-135.63 164.4,-133.81 176,-132.5 292.7,-119.29 429.15,-115.22 511.1,-113.99"/>
<polygon fill="midnightblue" stroke="midnightblue" points="511.36,-117.49 521.31,-113.85 511.26,-110.49 511.36,-117.49"/>
</g>
<!-- Node4&#45;&gt;Node3 -->
<g id="edge4" class="edge">
<title>Node4&#45;&gt;Node3</title>
<path fill="none" stroke="midnightblue" d="M309.36,-220.21C325.54,-218.39 342.75,-216.45 358.42,-214.69"/>
<polygon fill="midnightblue" stroke="midnightblue" points="358.91,-218.16 368.46,-213.56 358.13,-211.2 358.91,-218.16"/>
</g>
<!-- Node7 -->
<g id="node7" class="node">
<title>Node7</title>
<g id="a_node7"><a xlink:href="a00532.html#aec8e8e400265242bd3a9998af6b55880" target="_top" xlink:title="basicRaise 基本抛出方法，子类重写该方法">
<polygon fill="white" stroke="black" points="347,-16.5 347,-46.5 482,-46.5 482,-16.5 347,-16.5"/>
<text text-anchor="start" x="355" y="-34.5" font-family="Helvetica,sans-Serif" font-size="10.00">MiraiCP::MiraiCPException</text>
<text text-anchor="middle" x="414.5" y="-23.5" font-family="Helvetica,sans-Serif" font-size="10.00">Base::basicRaise</text>
</a>
</g>
</g>
<!-- Node6&#45;&gt;Node7 -->
<g id="edge7" class="edge">
<title>Node6&#45;&gt;Node7</title>
<path fill="none" stroke="midnightblue" d="M311.29,-31.5C319.62,-31.5 328.19,-31.5 336.66,-31.5"/>
<polygon fill="midnightblue" stroke="midnightblue" points="336.92,-35 346.92,-31.5 336.92,-28 336.92,-35"/>
</g>
<!-- Node8 -->
<g id="node8" class="node">
<title>Node8</title>
<g id="a_node8"><a xlink:href="a00660.html#af14d39efa300da183070784bc86d3f23" target="_top" xlink:title="发送错误(error级日志)">
<polygon fill="white" stroke="black" points="521.5,-0.5 521.5,-30.5 649.5,-30.5 649.5,-0.5 521.5,-0.5"/>
<text text-anchor="start" x="529.5" y="-18.5" font-family="Helvetica,sans-Serif" font-size="10.00">MiraiCP::Logger_interface</text>
<text text-anchor="middle" x="585.5" y="-7.5" font-family="Helvetica,sans-Serif" font-size="10.00">::error</text>
</a>
</g>
</g>
<!-- Node6&#45;&gt;Node8 -->
<g id="edge12" class="edge">
<title>Node6&#45;&gt;Node8</title>
<path fill="none" stroke="midnightblue" d="M295.68,-16.47C311.94,-12.39 330.09,-8.53 347,-6.5 401.77,0.08 464.11,-2.66 511.17,-6.79"/>
<polygon fill="midnightblue" stroke="midnightblue" points="511,-10.29 521.27,-7.72 511.64,-3.32 511,-10.29"/>
</g>
<!-- Node7&#45;&gt;Node8 -->
<g id="edge8" class="edge">
<title>Node7&#45;&gt;Node8</title>
<path fill="none" stroke="midnightblue" d="M482.29,-25.18C491.88,-24.27 501.78,-23.33 511.48,-22.41"/>
<polygon fill="midnightblue" stroke="midnightblue" points="511.87,-25.89 521.5,-21.46 511.21,-18.92 511.87,-25.89"/>
</g>
<!-- Node7&#45;&gt;Node11 -->
<g id="edge11" class="edge">
<title>Node7&#45;&gt;Node11</title>
<path fill="none" stroke="midnightblue" d="M482.29,-44.54C490.72,-46.19 499.38,-47.88 507.94,-49.55"/>
<polygon fill="midnightblue" stroke="midnightblue" points="507.43,-53.02 517.92,-51.5 508.77,-46.15 507.43,-53.02"/>
</g>
<!-- Node9 -->
<g id="node9" class="node">
<title>Node9</title>
<g id="a_node9"><a xlink:href="a00660.html#a98af60f864a0446e23a7a27a3419d9b8" target="_top" xlink:title=" ">
<polygon fill="white" stroke="black" points="689,-85.5 689,-115.5 817,-115.5 817,-85.5 689,-85.5"/>
<text text-anchor="start" x="697" y="-103.5" font-family="Helvetica,sans-Serif" font-size="10.00">MiraiCP::Logger_interface</text>
<text text-anchor="middle" x="753" y="-92.5" font-family="Helvetica,sans-Serif" font-size="10.00">::constructString</text>
</a>
</g>
</g>
<!-- Node8&#45;&gt;Node9 -->
<g id="edge9" class="edge">
<title>Node8&#45;&gt;Node9</title>
<path fill="none" stroke="midnightblue" d="M632.9,-30.61C639.75,-33.31 646.64,-36.29 653,-39.5 670.17,-48.16 672.7,-53.29 689,-63.5 697.87,-69.05 707.56,-74.87 716.63,-80.2"/>
<polygon fill="midnightblue" stroke="midnightblue" points="715.04,-83.33 725.44,-85.35 718.57,-77.28 715.04,-83.33"/>
</g>
<!-- Node10 -->
<g id="node10" class="node">
<title>Node10</title>
<g id="a_node10"><a xlink:href="a00660.html#a86ea9d57475a3004be2a32b2c4c76371" target="_top" xlink:title="日志底层实现封装">
<polygon fill="white" stroke="black" points="689,-24.5 689,-54.5 817,-54.5 817,-24.5 689,-24.5"/>
<text text-anchor="start" x="697" y="-42.5" font-family="Helvetica,sans-Serif" font-size="10.00">MiraiCP::Logger_interface</text>
<text text-anchor="middle" x="753" y="-31.5" font-family="Helvetica,sans-Serif" font-size="10.00">::log_interface</text>
</a>
</g>
</g>
<!-- Node8&#45;&gt;Node10 -->
<g id="edge10" class="edge">
<title>Node8&#45;&gt;Node10</title>
<path fill="none" stroke="midnightblue" d="M649.54,-24.64C659.1,-26.03 669.03,-27.47 678.79,-28.88"/>
<polygon fill="midnightblue" stroke="midnightblue" points="678.46,-32.37 688.86,-30.34 679.47,-25.44 678.46,-32.37"/>
</g>
<!-- Node12&#45;&gt;Node9 -->
<g id="edge14" class="edge">
<title>Node12&#45;&gt;Node9</title>
<path fill="none" stroke="midnightblue" d="M649.54,-108.55C659.1,-107.8 669.03,-107.02 678.79,-106.25"/>
<polygon fill="midnightblue" stroke="midnightblue" points="679.17,-109.73 688.86,-105.46 678.62,-102.75 679.17,-109.73"/>
</g>
<!-- Node12&#45;&gt;Node10 -->
<g id="edge15" class="edge">
<title>Node12&#45;&gt;Node10</title>
<path fill="none" stroke="midnightblue" d="M630.44,-98.5C638.02,-95.66 645.79,-92.61 653,-89.5 674.03,-80.44 696.88,-69 715.32,-59.36"/>
<polygon fill="midnightblue" stroke="midnightblue" points="717.05,-62.41 724.27,-54.65 713.79,-56.21 717.05,-62.41"/>
</g>
</g>
</svg>
