<?xml version="1.0" encoding="UTF-8" standalone="no"?>
<!DOCTYPE svg PUBLIC "-//W3C//DTD SVG 1.1//EN"
 "http://www.w3.org/Graphics/SVG/1.1/DTD/svg11.dtd">
<!-- Generated by graphviz version 2.50.0 (20211204.2007)
 -->
<!-- Title: Antares::ThreadPoolBase::is_paused Pages: 1 -->
<svg width="586pt" height="159pt"
 viewBox="0.00 0.00 586.00 159.00" xmlns="http://www.w3.org/2000/svg" xmlns:xlink="http://www.w3.org/1999/xlink">
<g id="graph0" class="graph" transform="scale(1 1) rotate(0) translate(4 155)">
<title>Antares::ThreadPoolBase::is_paused</title>
<polygon fill="white" stroke="transparent" points="-4,4 -4,-155 582,-155 582,4 -4,4"/>
<!-- Node1 -->
<g id="node1" class="node">
<title>Node1</title>
<g id="a_node1"><a xlink:title=" ">
<polygon fill="#bfbfbf" stroke="black" points="450,-73.5 450,-103.5 578,-103.5 578,-73.5 450,-73.5"/>
<text text-anchor="start" x="458" y="-91.5" font-family="Helvetica,sans-Serif" font-size="10.00">Antares::ThreadPoolBase</text>
<text text-anchor="middle" x="514" y="-80.5" font-family="Helvetica,sans-Serif" font-size="10.00">::is_paused</text>
</a>
</g>
</g>
<!-- Node2 -->
<g id="node2" class="node">
<title>Node2</title>
<g id="a_node2"><a xlink:href="a00852.html#a1c7e29f3fb47ae19a02ffd48961fce5f" target="_top" xlink:title="a bad design, should avoid calling this">
<polygon fill="white" stroke="black" points="286,-98.5 286,-128.5 414,-128.5 414,-98.5 286,-98.5"/>
<text text-anchor="start" x="294" y="-116.5" font-family="Helvetica,sans-Serif" font-size="10.00">Antares::ThreadPoolBase</text>
<text text-anchor="middle" x="350" y="-105.5" font-family="Helvetica,sans-Serif" font-size="10.00">::wait_for_tasks</text>
</a>
</g>
</g>
<!-- Node1&#45;&gt;Node2 -->
<g id="edge1" class="edge">
<title>Node1&#45;&gt;Node2</title>
<path fill="none" stroke="midnightblue" d="M439.91,-99.78C431.32,-101.1 422.62,-102.45 414.19,-103.75"/>
<polygon fill="midnightblue" stroke="midnightblue" points="440.55,-103.22 449.9,-98.24 439.49,-96.3 440.55,-103.22"/>
</g>
<!-- Node5 -->
<g id="node5" class="node">
<title>Node5</title>
<g id="a_node5"><a xlink:href="a00852.html#a90f9311eac6c03fb4cb36cb8ce9c7d31" target="_top" xlink:title=" ">
<polygon fill="white" stroke="black" points="286,-49.5 286,-79.5 414,-79.5 414,-49.5 286,-49.5"/>
<text text-anchor="start" x="294" y="-67.5" font-family="Helvetica,sans-Serif" font-size="10.00">Antares::ThreadPoolBase</text>
<text text-anchor="middle" x="350" y="-56.5" font-family="Helvetica,sans-Serif" font-size="10.00">::worker</text>
</a>
</g>
</g>
<!-- Node1&#45;&gt;Node5 -->
<g id="edge4" class="edge">
<title>Node1&#45;&gt;Node5</title>
<path fill="none" stroke="midnightblue" d="M439.91,-77.67C431.32,-76.4 422.62,-75.11 414.19,-73.86"/>
<polygon fill="midnightblue" stroke="midnightblue" points="439.5,-81.15 449.9,-79.15 440.52,-74.22 439.5,-81.15"/>
</g>
<!-- Node3 -->
<g id="node3" class="node">
<title>Node3</title>
<g id="a_node3"><a xlink:href="a00860.html#a1600af46c9181828ed152503010d1c37" target="_top" xlink:title=" ">
<polygon fill="white" stroke="black" points="0,-120.5 0,-150.5 105,-150.5 105,-120.5 0,-120.5"/>
<text text-anchor="start" x="8" y="-138.5" font-family="Helvetica,sans-Serif" font-size="10.00">Antares::ThreadPool</text>
<text text-anchor="middle" x="52.5" y="-127.5" font-family="Helvetica,sans-Serif" font-size="10.00">::reset</text>
</a>
</g>
</g>
<!-- Node2&#45;&gt;Node3 -->
<g id="edge2" class="edge">
<title>Node2&#45;&gt;Node3</title>
<path fill="none" stroke="midnightblue" d="M289.83,-130.97C276.82,-134.1 263.04,-136.88 250,-138.5 201.93,-144.48 189.44,-139.33 141,-138.5 129.45,-138.3 117.05,-137.96 105.31,-137.57"/>
<polygon fill="midnightblue" stroke="midnightblue" points="290.75,-134.35 299.6,-128.53 289.05,-127.56 290.75,-134.35"/>
</g>
<!-- Node4 -->
<g id="node4" class="node">
<title>Node4</title>
<g id="a_node4"><a xlink:href="a00860.html#aba09f31311db63c4cea60cddb58c7ca1" target="_top" xlink:title=" ">
<polygon fill="white" stroke="black" points="143,-98.5 143,-128.5 248,-128.5 248,-98.5 143,-98.5"/>
<text text-anchor="start" x="151" y="-116.5" font-family="Helvetica,sans-Serif" font-size="10.00">Antares::ThreadPool</text>
<text text-anchor="middle" x="195.5" y="-105.5" font-family="Helvetica,sans-Serif" font-size="10.00">::~ThreadPool</text>
</a>
</g>
</g>
<!-- Node2&#45;&gt;Node4 -->
<g id="edge3" class="edge">
<title>Node2&#45;&gt;Node4</title>
<path fill="none" stroke="midnightblue" d="M275.37,-113.5C266.22,-113.5 257.02,-113.5 248.3,-113.5"/>
<polygon fill="midnightblue" stroke="midnightblue" points="275.65,-117 285.65,-113.5 275.65,-110 275.65,-117"/>
</g>
<!-- Node6 -->
<g id="node6" class="node">
<title>Node6</title>
<g id="a_node6"><a xlink:href="a00860.html#a3e10871340681ff859f142e5ccfc900f" target="_top" xlink:title=" ">
<polygon fill="white" stroke="black" points="143,-49.5 143,-79.5 248,-79.5 248,-49.5 143,-49.5"/>
<text text-anchor="start" x="151" y="-67.5" font-family="Helvetica,sans-Serif" font-size="10.00">Antares::ThreadPool</text>
<text text-anchor="middle" x="195.5" y="-56.5" font-family="Helvetica,sans-Serif" font-size="10.00">::create_threads</text>
</a>
</g>
</g>
<!-- Node5&#45;&gt;Node6 -->
<g id="edge5" class="edge">
<title>Node5&#45;&gt;Node6</title>
<path fill="none" stroke="midnightblue" d="M275.37,-64.5C266.22,-64.5 257.02,-64.5 248.3,-64.5"/>
<polygon fill="midnightblue" stroke="midnightblue" points="275.65,-68 285.65,-64.5 275.65,-61 275.65,-68"/>
</g>
<!-- Node8 -->
<g id="node8" class="node">
<title>Node8</title>
<g id="a_node8"><a xlink:href="a00860.html#a77c2c86af4a1d52ac11f7a4822dd8303" target="_top" xlink:title="force reset a thread, only should be called when a deadly problem happen">
<polygon fill="white" stroke="black" points="141,-0.5 141,-30.5 250,-30.5 250,-0.5 141,-0.5"/>
<text text-anchor="start" x="149" y="-18.5" font-family="Helvetica,sans-Serif" font-size="10.00">Antares::ThreadPool</text>
<text text-anchor="middle" x="195.5" y="-7.5" font-family="Helvetica,sans-Serif" font-size="10.00">::resetThreadByIndex</text>
</a>
</g>
</g>
<!-- Node5&#45;&gt;Node8 -->
<g id="edge8" class="edge">
<title>Node5&#45;&gt;Node8</title>
<path fill="none" stroke="midnightblue" d="M292.17,-46.24C276.09,-41.07 258.77,-35.51 243.34,-30.55"/>
<polygon fill="midnightblue" stroke="midnightblue" points="291.41,-49.67 302,-49.4 293.55,-43.01 291.41,-49.67"/>
</g>
<!-- Node6&#45;&gt;Node3 -->
<g id="edge6" class="edge">
<title>Node6&#45;&gt;Node3</title>
<path fill="none" stroke="midnightblue" d="M152.5,-83.9C148.6,-85.77 144.72,-87.65 141,-89.5 120.86,-99.49 98.42,-111.3 81.31,-120.46"/>
<polygon fill="midnightblue" stroke="midnightblue" points="154.03,-87.05 161.56,-79.6 151.03,-80.72 154.03,-87.05"/>
</g>
<!-- Node7 -->
<g id="node7" class="node">
<title>Node7</title>
<g id="a_node7"><a xlink:href="a00860.html#acccef0055dea586f9f82e94e10578475" target="_top" xlink:title=" ">
<polygon fill="white" stroke="black" points="0,-49.5 0,-79.5 105,-79.5 105,-49.5 0,-49.5"/>
<text text-anchor="start" x="8" y="-67.5" font-family="Helvetica,sans-Serif" font-size="10.00">Antares::ThreadPool</text>
<text text-anchor="middle" x="52.5" y="-56.5" font-family="Helvetica,sans-Serif" font-size="10.00">::ThreadPool</text>
</a>
</g>
</g>
<!-- Node6&#45;&gt;Node7 -->
<g id="edge7" class="edge">
<title>Node6&#45;&gt;Node7</title>
<path fill="none" stroke="midnightblue" d="M132.59,-64.5C123.44,-64.5 114.1,-64.5 105.2,-64.5"/>
<polygon fill="midnightblue" stroke="midnightblue" points="132.8,-68 142.8,-64.5 132.8,-61 132.8,-68"/>
</g>
</g>
</svg>
