<?xml version="1.0" encoding="UTF-8" standalone="no"?>
<!DOCTYPE svg PUBLIC "-//W3C//DTD SVG 1.1//EN"
 "http://www.w3.org/Graphics/SVG/1.1/DTD/svg11.dtd">
<!-- Generated by graphviz version 2.50.0 (20211204.2007)
 -->
<!-- Title: Antares::ThreadPoolBase::get_tasks_total Pages: 1 -->
<svg width="441pt" height="112pt"
 viewBox="0.00 0.00 441.00 112.00" xmlns="http://www.w3.org/2000/svg" xmlns:xlink="http://www.w3.org/1999/xlink">
<g id="graph0" class="graph" transform="scale(1 1) rotate(0) translate(4 108)">
<title>Antares::ThreadPoolBase::get_tasks_total</title>
<polygon fill="white" stroke="transparent" points="-4,4 -4,-108 437,-108 437,4 -4,4"/>
<!-- Node1 -->
<g id="node1" class="node">
<title>Node1</title>
<g id="a_node1"><a xlink:title=" ">
<polygon fill="#bfbfbf" stroke="black" points="305,-48.5 305,-78.5 433,-78.5 433,-48.5 305,-48.5"/>
<text text-anchor="start" x="313" y="-66.5" font-family="Helvetica,sans-Serif" font-size="10.00">Antares::ThreadPoolBase</text>
<text text-anchor="middle" x="369" y="-55.5" font-family="Helvetica,sans-Serif" font-size="10.00">::get_tasks_total</text>
</a>
</g>
</g>
<!-- Node2 -->
<g id="node2" class="node">
<title>Node2</title>
<g id="a_node2"><a xlink:href="a00852.html#a86adf0479c1c3f88e6a92195681bfd39" target="_top" xlink:title="may not be accurate!">
<polygon fill="white" stroke="black" points="141,-73.5 141,-103.5 269,-103.5 269,-73.5 141,-73.5"/>
<text text-anchor="start" x="149" y="-91.5" font-family="Helvetica,sans-Serif" font-size="10.00">Antares::ThreadPoolBase</text>
<text text-anchor="middle" x="205" y="-80.5" font-family="Helvetica,sans-Serif" font-size="10.00">::get_tasks_running</text>
</a>
</g>
</g>
<!-- Node1&#45;&gt;Node2 -->
<g id="edge1" class="edge">
<title>Node1&#45;&gt;Node2</title>
<path fill="none" stroke="midnightblue" d="M294.91,-74.78C286.32,-76.1 277.62,-77.45 269.19,-78.75"/>
<polygon fill="midnightblue" stroke="midnightblue" points="295.55,-78.22 304.9,-73.24 294.49,-71.3 295.55,-78.22"/>
</g>
<!-- Node3 -->
<g id="node3" class="node">
<title>Node3</title>
<g id="a_node3"><a xlink:href="a00852.html#a1c7e29f3fb47ae19a02ffd48961fce5f" target="_top" xlink:title="a bad design, should avoid calling this">
<polygon fill="white" stroke="black" points="141,-24.5 141,-54.5 269,-54.5 269,-24.5 141,-24.5"/>
<text text-anchor="start" x="149" y="-42.5" font-family="Helvetica,sans-Serif" font-size="10.00">Antares::ThreadPoolBase</text>
<text text-anchor="middle" x="205" y="-31.5" font-family="Helvetica,sans-Serif" font-size="10.00">::wait_for_tasks</text>
</a>
</g>
</g>
<!-- Node1&#45;&gt;Node3 -->
<g id="edge2" class="edge">
<title>Node1&#45;&gt;Node3</title>
<path fill="none" stroke="midnightblue" d="M294.91,-52.67C286.32,-51.4 277.62,-50.11 269.19,-48.86"/>
<polygon fill="midnightblue" stroke="midnightblue" points="294.5,-56.15 304.9,-54.15 295.52,-49.22 294.5,-56.15"/>
</g>
<!-- Node4 -->
<g id="node4" class="node">
<title>Node4</title>
<g id="a_node4"><a xlink:href="a00860.html#a1600af46c9181828ed152503010d1c37" target="_top" xlink:title=" ">
<polygon fill="white" stroke="black" points="0,-49.5 0,-79.5 105,-79.5 105,-49.5 0,-49.5"/>
<text text-anchor="start" x="8" y="-67.5" font-family="Helvetica,sans-Serif" font-size="10.00">Antares::ThreadPool</text>
<text text-anchor="middle" x="52.5" y="-56.5" font-family="Helvetica,sans-Serif" font-size="10.00">::reset</text>
</a>
</g>
</g>
<!-- Node3&#45;&gt;Node4 -->
<g id="edge3" class="edge">
<title>Node3&#45;&gt;Node4</title>
<path fill="none" stroke="midnightblue" d="M130.65,-51.68C122.12,-53.1 113.57,-54.52 105.42,-55.88"/>
<polygon fill="midnightblue" stroke="midnightblue" points="131.32,-55.12 140.61,-50.03 130.17,-48.22 131.32,-55.12"/>
</g>
<!-- Node5 -->
<g id="node5" class="node">
<title>Node5</title>
<g id="a_node5"><a xlink:href="a00860.html#aba09f31311db63c4cea60cddb58c7ca1" target="_top" xlink:title=" ">
<polygon fill="white" stroke="black" points="0,-0.5 0,-30.5 105,-30.5 105,-0.5 0,-0.5"/>
<text text-anchor="start" x="8" y="-18.5" font-family="Helvetica,sans-Serif" font-size="10.00">Antares::ThreadPool</text>
<text text-anchor="middle" x="52.5" y="-7.5" font-family="Helvetica,sans-Serif" font-size="10.00">::~ThreadPool</text>
</a>
</g>
</g>
<!-- Node3&#45;&gt;Node5 -->
<g id="edge4" class="edge">
<title>Node3&#45;&gt;Node5</title>
<path fill="none" stroke="midnightblue" d="M130.65,-27.8C122.12,-26.44 113.57,-25.08 105.42,-23.78"/>
<polygon fill="midnightblue" stroke="midnightblue" points="130.18,-31.27 140.61,-29.39 131.29,-24.36 130.18,-31.27"/>
</g>
</g>
</svg>
