<?xml version="1.0" encoding="UTF-8" standalone="no"?>
<!DOCTYPE svg PUBLIC "-//W3C//DTD SVG 1.1//EN"
 "http://www.w3.org/Graphics/SVG/1.1/DTD/svg11.dtd">
<!-- Generated by graphviz version 9.0.0 (0)
 -->
<!-- Title: LibLoader::LoaderLogger Pages: 1 -->
<svg width="132pt" height="432pt"
 viewBox="0.00 0.00 132.00 432.00" xmlns="http://www.w3.org/2000/svg" xmlns:xlink="http://www.w3.org/1999/xlink">
<g id="graph0" class="graph" transform="scale(1 1) rotate(0) translate(4 428)">
<title>LibLoader::LoaderLogger</title>
<!-- Node1 -->
<g id="Node000001" class="node">
<title>Node1</title>
<g id="a_Node000001"><a xlink:title=" ">
<polygon fill="#999999" stroke="none" points="124,-324 0,-324 0,0 124,0 124,-324"/>
<text text-anchor="start" x="8.75" y="-310.5" font-family="Helvetica,sans-Serif" font-size="10.00">LibLoader::LoaderLogger</text>
<text text-anchor="start" x="60.5" y="-294.5" font-family="Helvetica,sans-Serif" font-size="10.00"> </text>
<text text-anchor="start" x="4" y="-278.5" font-family="Helvetica,sans-Serif" font-size="10.00">+</text>
<text text-anchor="start" x="14" y="-278.5" font-family="Helvetica,sans-Serif" font-size="10.00">void init()</text>
<text text-anchor="start" x="4" y="-262.5" font-family="Helvetica,sans-Serif" font-size="10.00">+</text>
<text text-anchor="start" x="14" y="-262.5" font-family="Helvetica,sans-Serif" font-size="10.00">void info(const string</text>
<text text-anchor="start" x="14" y="-250.5" font-family="Helvetica,sans-Serif" font-size="10.00"> &amp;) const</text>
<text text-anchor="start" x="4" y="-234.5" font-family="Helvetica,sans-Serif" font-size="10.00">+</text>
<text text-anchor="start" x="14" y="-234.5" font-family="Helvetica,sans-Serif" font-size="10.00">void warning(const</text>
<text text-anchor="start" x="14" y="-222.5" font-family="Helvetica,sans-Serif" font-size="10.00"> string &amp;) const</text>
<text text-anchor="start" x="4" y="-206.5" font-family="Helvetica,sans-Serif" font-size="10.00">+</text>
<text text-anchor="start" x="14" y="-206.5" font-family="Helvetica,sans-Serif" font-size="10.00">void error(const string</text>
<text text-anchor="start" x="14" y="-194.5" font-family="Helvetica,sans-Serif" font-size="10.00"> &amp;) const</text>
<text text-anchor="start" x="4" y="-178.5" font-family="Helvetica,sans-Serif" font-size="10.00">+</text>
<text text-anchor="start" x="14" y="-178.5" font-family="Helvetica,sans-Serif" font-size="10.00">void info(const wstring</text>
<text text-anchor="start" x="14" y="-166.5" font-family="Helvetica,sans-Serif" font-size="10.00"> &amp;) const</text>
<text text-anchor="start" x="4" y="-150.5" font-family="Helvetica,sans-Serif" font-size="10.00">+</text>
<text text-anchor="start" x="14" y="-150.5" font-family="Helvetica,sans-Serif" font-size="10.00">void warning(const</text>
<text text-anchor="start" x="14" y="-138.5" font-family="Helvetica,sans-Serif" font-size="10.00"> wstring &amp;) const</text>
<text text-anchor="start" x="4" y="-122.5" font-family="Helvetica,sans-Serif" font-size="10.00">+</text>
<text text-anchor="start" x="14" y="-122.5" font-family="Helvetica,sans-Serif" font-size="10.00">void error(const wstring</text>
<text text-anchor="start" x="14" y="-110.5" font-family="Helvetica,sans-Serif" font-size="10.00"> &amp;) const</text>
<text text-anchor="start" x="4" y="-94.5" font-family="Helvetica,sans-Serif" font-size="10.00">+</text>
<text text-anchor="start" x="14" y="-94.5" font-family="Helvetica,sans-Serif" font-size="10.00">void call_logger(const</text>
<text text-anchor="start" x="14" y="-82.5" font-family="Helvetica,sans-Serif" font-size="10.00"> string &amp;content, string</text>
<text text-anchor="start" x="14" y="-70.5" font-family="Helvetica,sans-Serif" font-size="10.00"> name, long long id, int</text>
<text text-anchor="start" x="14" y="-58.5" font-family="Helvetica,sans-Serif" font-size="10.00"> level) const</text>
<text text-anchor="start" x="4" y="-42.5" font-family="Helvetica,sans-Serif" font-size="10.00">+</text>
<text text-anchor="start" x="14" y="-42.5" font-family="Helvetica,sans-Serif" font-size="10.00">void call_logger(const</text>
<text text-anchor="start" x="14" y="-30.5" font-family="Helvetica,sans-Serif" font-size="10.00"> wstring &amp;content, string</text>
<text text-anchor="start" x="14" y="-18.5" font-family="Helvetica,sans-Serif" font-size="10.00"> name, long long id, int</text>
<text text-anchor="start" x="14" y="-6.5" font-family="Helvetica,sans-Serif" font-size="10.00"> level) const</text>
<polygon fill="#666666" stroke="#666666" points="0,-306 0,-306 124,-306 124,-306 0,-306"/>
<polygon fill="#666666" stroke="#666666" points="0,-290 0,-290 124,-290 124,-290 0,-290"/>
<polygon fill="none" stroke="#666666" points="0,0 0,-324 124,-324 124,0 0,0"/>
</a>
</g>
</g>
<!-- Node2 -->
<g id="Node000002" class="node">
<title>Node2</title>
<g id="a_Node000002"><a xlink:title=" ">
<polygon fill="white" stroke="none" points="95.5,-424 28.5,-424 28.5,-372 95.5,-372 95.5,-424"/>
<text text-anchor="start" x="33.5" y="-410.5" font-family="Helvetica,sans-Serif" font-size="10.00">_jmethodID *</text>
<text text-anchor="start" x="60.5" y="-394.5" font-family="Helvetica,sans-Serif" font-size="10.00"> </text>
<text text-anchor="start" x="60.5" y="-378.5" font-family="Helvetica,sans-Serif" font-size="10.00"> </text>
<polygon fill="#666666" stroke="#666666" points="28.5,-406 28.5,-406 95.5,-406 95.5,-406 28.5,-406"/>
<polygon fill="#666666" stroke="#666666" points="28.5,-390 28.5,-390 95.5,-390 95.5,-390 28.5,-390"/>
<polygon fill="none" stroke="#666666" points="28.5,-372 28.5,-424 95.5,-424 95.5,-372 28.5,-372"/>
</a>
</g>
</g>
<!-- Node2&#45;&gt;Node1 -->
<g id="edge1_Node000001_Node000002" class="edge">
<title>Node2&#45;&gt;Node1</title>
<g id="a_edge1_Node000001_Node000002"><a xlink:title=" ">
<path fill="none" stroke="#63b8ff" d="M62,-372.4C62,-362.56 62,-350.33 62,-336.76"/>
<polygon fill="none" stroke="#63b8ff" points="62,-336.84 58,-330.84 62,-324.84 66,-330.84 62,-336.84"/>
</a>
</g>
<text text-anchor="middle" x="89" y="-344.5" font-family="Helvetica,sans-Serif" font-size="10.00" fill="grey"> +logMethod</text>
</g>
</g>
</svg>
