<?xml version="1.0" encoding="UTF-8" standalone="no"?>
<!DOCTYPE svg PUBLIC "-//W3C//DTD SVG 1.1//EN"
 "http://www.w3.org/Graphics/SVG/1.1/DTD/svg11.dtd">
<!-- Generated by graphviz version 9.0.0 (0)
 -->
<!-- Title: LibLoader::LoaderMain::readConfig Pages: 1 -->
<svg width="1306pt" height="96pt"
 viewBox="0.00 0.00 1305.50 96.00" xmlns="http://www.w3.org/2000/svg" xmlns:xlink="http://www.w3.org/1999/xlink">
<g id="graph0" class="graph" transform="scale(1 1) rotate(0) translate(4 92)">
<title>LibLoader::LoaderMain::readConfig</title>
<!-- Node1 -->
<g id="Node000001" class="node">
<title>Node1</title>
<g id="a_Node000001"><a xlink:title=" ">
<polygon fill="#999999" stroke="#666666" points="114.25,-57 0,-57 0,-25 114.25,-25 114.25,-57"/>
<text text-anchor="start" x="8" y="-43.5" font-family="Helvetica,sans-Serif" font-size="10.00">LibLoader::LoaderMain</text>
<text text-anchor="middle" x="57.12" y="-31.5" font-family="Helvetica,sans-Serif" font-size="10.00">::readConfig</text>
</a>
</g>
</g>
<!-- Node2 -->
<g id="Node000002" class="node">
<title>Node2</title>
<g id="a_Node000002"><a xlink:href="a00425.html#abfdb74b9db3801a388ab185bbc550550" target="_top" xlink:title=" ">
<polygon fill="white" stroke="#666666" points="269.75,-51 150.25,-51 150.25,-31 269.75,-31 269.75,-51"/>
<text text-anchor="middle" x="210" y="-37.5" font-family="Helvetica,sans-Serif" font-size="10.00">LibLoader::readJsonFile</text>
</a>
</g>
</g>
<!-- Node1&#45;&gt;Node2 -->
<g id="edge1_Node000001_Node000002" class="edge">
<title>Node1&#45;&gt;Node2</title>
<g id="a_edge1_Node000001_Node000002"><a xlink:title=" ">
<path fill="none" stroke="#63b8ff" d="M114.73,-41C122.43,-41 130.41,-41 138.31,-41"/>
<polygon fill="#63b8ff" stroke="#63b8ff" points="138.29,-44.5 148.29,-41 138.29,-37.5 138.29,-44.5"/>
</a>
</g>
</g>
<!-- Node3 -->
<g id="Node000003" class="node">
<title>Node3</title>
<g id="a_Node000003"><a xlink:href="a00872.html#ae735f16b20f681d29d4e5d28ad248dbe" target="_top" xlink:title=" ">
<polygon fill="white" stroke="#666666" points="428.25,-57 305.75,-57 305.75,-25 428.25,-25 428.25,-57"/>
<text text-anchor="start" x="313.75" y="-43.5" font-family="Helvetica,sans-Serif" font-size="10.00">LibLoader::LoaderLogger</text>
<text text-anchor="middle" x="367" y="-31.5" font-family="Helvetica,sans-Serif" font-size="10.00">::error</text>
</a>
</g>
</g>
<!-- Node2&#45;&gt;Node3 -->
<g id="edge2_Node000002_Node000003" class="edge">
<title>Node2&#45;&gt;Node3</title>
<g id="a_edge2_Node000002_Node000003"><a xlink:title=" ">
<path fill="none" stroke="#63b8ff" d="M270.04,-41C277.89,-41 286.01,-41 294.05,-41"/>
<polygon fill="#63b8ff" stroke="#63b8ff" points="293.81,-44.5 303.81,-41 293.81,-37.5 293.81,-44.5"/>
</a>
</g>
</g>
<!-- Node4 -->
<g id="Node000004" class="node">
<title>Node4</title>
<g id="a_Node000004"><a xlink:href="a00872.html#af4d7d5164450e25f7401d1cc15f15b8d" target="_top" xlink:title="实际暴露的接口">
<polygon fill="white" stroke="#666666" points="586.75,-57 464.25,-57 464.25,-25 586.75,-25 586.75,-57"/>
<text text-anchor="start" x="472.25" y="-43.5" font-family="Helvetica,sans-Serif" font-size="10.00">LibLoader::LoaderLogger</text>
<text text-anchor="middle" x="525.5" y="-31.5" font-family="Helvetica,sans-Serif" font-size="10.00">::call_logger</text>
</a>
</g>
</g>
<!-- Node3&#45;&gt;Node4 -->
<g id="edge3_Node000003_Node000004" class="edge">
<title>Node3&#45;&gt;Node4</title>
<g id="a_edge3_Node000003_Node000004"><a xlink:title=" ">
<path fill="none" stroke="#63b8ff" d="M428.51,-41C436.4,-41 444.55,-41 452.6,-41"/>
<polygon fill="#63b8ff" stroke="#63b8ff" points="452.38,-44.5 462.38,-41 452.38,-37.5 452.38,-44.5"/>
</a>
</g>
</g>
<!-- Node5 -->
<g id="Node000005" class="node">
<title>Node5</title>
<g id="a_Node000005"><a xlink:href="a00430.html#a076c5f4ff8083c7cfc6523498d0ba30f" target="_top" xlink:title=" ">
<polygon fill="white" stroke="#666666" points="877.88,-88 775.62,-88 775.62,-56 877.88,-56 877.88,-88"/>
<text text-anchor="start" x="783.62" y="-74.5" font-family="Helvetica,sans-Serif" font-size="10.00">LibLoader::JNIEnvs</text>
<text text-anchor="middle" x="826.75" y="-62.5" font-family="Helvetica,sans-Serif" font-size="10.00">::getEnv</text>
</a>
</g>
</g>
<!-- Node4&#45;&gt;Node5 -->
<g id="edge4_Node000004_Node000005" class="edge">
<title>Node4&#45;&gt;Node5</title>
<g id="a_edge4_Node000004_Node000005"><a xlink:title=" ">
<path fill="none" stroke="#63b8ff" d="M587.14,-54.27C598.91,-56.48 611.18,-58.52 622.75,-60 670.02,-66.03 723.89,-69.04 764.25,-70.54"/>
<polygon fill="#63b8ff" stroke="#63b8ff" points="763.89,-74.03 774.01,-70.88 764.13,-67.03 763.89,-74.03"/>
</a>
</g>
</g>
<!-- Node9 -->
<g id="Node000009" class="node">
<title>Node9</title>
<g id="a_Node000009"><a xlink:href="a00425.html#a6a6fcd695791253a9b3a053d313b2b93" target="_top" xlink:title=" ">
<polygon fill="white" stroke="#666666" points="729.5,-51 622.75,-51 622.75,-31 729.5,-31 729.5,-51"/>
<text text-anchor="middle" x="676.12" y="-37.5" font-family="Helvetica,sans-Serif" font-size="10.00">LibLoader::str2jstring</text>
</a>
</g>
</g>
<!-- Node4&#45;&gt;Node9 -->
<g id="edge8_Node000004_Node000009" class="edge">
<title>Node4&#45;&gt;Node9</title>
<g id="a_edge8_Node000004_Node000009"><a xlink:title=" ">
<path fill="none" stroke="#63b8ff" d="M586.95,-41C594.83,-41 602.93,-41 610.88,-41"/>
<polygon fill="#63b8ff" stroke="#63b8ff" points="610.85,-44.5 620.85,-41 610.85,-37.5 610.85,-44.5"/>
</a>
</g>
</g>
<!-- Node6 -->
<g id="Node000006" class="node">
<title>Node6</title>
<g id="a_Node000006"><a xlink:href="a00840.html#aea7d58ff9f04d6d4849c25a2506603a5" target="_top" xlink:title="取env,如果不存在重新获取">
<polygon fill="white" stroke="#666666" points="1047.25,-82 924,-82 924,-62 1047.25,-62 1047.25,-82"/>
<text text-anchor="middle" x="985.62" y="-68.5" font-family="Helvetica,sans-Serif" font-size="10.00">JNIEnvManager::getEnv</text>
</a>
</g>
</g>
<!-- Node5&#45;&gt;Node6 -->
<g id="edge5_Node000005_Node000006" class="edge">
<title>Node5&#45;&gt;Node6</title>
<g id="a_edge5_Node000005_Node000006"><a xlink:title=" ">
<path fill="none" stroke="#63b8ff" d="M878.25,-72C889.07,-72 900.7,-72 912.16,-72"/>
<polygon fill="#63b8ff" stroke="#63b8ff" points="912.01,-75.5 922.01,-72 912.01,-68.5 912.01,-75.5"/>
</a>
</g>
</g>
<!-- Node7 -->
<g id="Node000007" class="node">
<title>Node7</title>
<g id="a_Node000007"><a xlink:href="a00260.html#a3d31403b7971274d47d308245206bd24" target="_top" xlink:title="为当前线程创建一个env.">
<polygon fill="white" stroke="#666666" points="1134.5,-82 1083.25,-82 1083.25,-62 1134.5,-62 1134.5,-82"/>
<text text-anchor="middle" x="1108.88" y="-68.5" font-family="Helvetica,sans-Serif" font-size="10.00">newEnv</text>
</a>
</g>
</g>
<!-- Node6&#45;&gt;Node7 -->
<g id="edge6_Node000006_Node000007" class="edge">
<title>Node6&#45;&gt;Node7</title>
<g id="a_edge6_Node000006_Node000007"><a xlink:title=" ">
<path fill="none" stroke="#63b8ff" d="M1047.61,-72C1055.81,-72 1064.01,-72 1071.59,-72"/>
<polygon fill="#63b8ff" stroke="#63b8ff" points="1071.41,-75.5 1081.41,-72 1071.41,-68.5 1071.41,-75.5"/>
</a>
</g>
</g>
<!-- Node8 -->
<g id="Node000008" class="node">
<title>Node8</title>
<g id="a_Node000008"><a xlink:href="a00840.html#ae0e482c6a813848a8f5d34957d1b6307" target="_top" xlink:title="获取全局JavaVM对象.">
<polygon fill="white" stroke="#666666" points="1297.5,-82 1170.5,-82 1170.5,-62 1297.5,-62 1297.5,-82"/>
<text text-anchor="middle" x="1234" y="-68.5" font-family="Helvetica,sans-Serif" font-size="10.00">JNIEnvManager::getGvm</text>
</a>
</g>
</g>
<!-- Node7&#45;&gt;Node8 -->
<g id="edge7_Node000007_Node000008" class="edge">
<title>Node7&#45;&gt;Node8</title>
<g id="a_edge7_Node000007_Node000008"><a xlink:title=" ">
<path fill="none" stroke="#63b8ff" d="M1134.79,-72C1141.97,-72 1150.2,-72 1158.77,-72"/>
<polygon fill="#63b8ff" stroke="#63b8ff" points="1158.66,-75.5 1168.66,-72 1158.66,-68.5 1158.66,-75.5"/>
</a>
</g>
</g>
<!-- Node9&#45;&gt;Node5 -->
<g id="edge9_Node000009_Node000005" class="edge">
<title>Node9&#45;&gt;Node5</title>
<g id="a_edge9_Node000009_Node000005"><a xlink:title=" ">
<path fill="none" stroke="#63b8ff" d="M727.44,-51.5C739.24,-53.96 751.94,-56.61 764.17,-59.16"/>
<polygon fill="#63b8ff" stroke="#63b8ff" points="763.25,-62.54 773.75,-61.15 764.68,-55.69 763.25,-62.54"/>
</a>
</g>
</g>
<!-- Node10 -->
<g id="Node000010" class="node">
<title>Node10</title>
<g id="a_Node000010"><a xlink:href="a00872.html#af50d0545fe7d683e54fcd03453a423e3" target="_top" xlink:title=" ">
<polygon fill="white" stroke="#666666" points="888,-32 765.5,-32 765.5,0 888,0 888,-32"/>
<text text-anchor="start" x="773.5" y="-18.5" font-family="Helvetica,sans-Serif" font-size="10.00">LibLoader::LoaderLogger</text>
<text text-anchor="middle" x="826.75" y="-6.5" font-family="Helvetica,sans-Serif" font-size="10.00">::warning</text>
</a>
</g>
</g>
<!-- Node9&#45;&gt;Node10 -->
<g id="edge10_Node000009_Node000010" class="edge">
<title>Node9&#45;&gt;Node10</title>
<g id="a_edge10_Node000009_Node000010"><a xlink:title=" ">
<path fill="none" stroke="#63b8ff" d="M729.94,-32.12C737.71,-30.81 745.82,-29.44 753.9,-28.09"/>
<polygon fill="#63b8ff" stroke="#63b8ff" points="754.47,-31.54 763.75,-26.43 753.31,-24.64 754.47,-31.54"/>
</a>
</g>
</g>
<!-- Node10&#45;&gt;Node4 -->
<g id="edge11_Node000010_Node000004" class="edge">
<title>Node10&#45;&gt;Node4</title>
<g id="a_edge11_Node000010_Node000004"><a xlink:title=" ">
<path fill="none" stroke="#63b8ff" d="M765.16,-15.18C724.71,-15.27 670.4,-16.63 622.75,-22 614.78,-22.9 606.48,-24.11 598.25,-25.49"/>
<polygon fill="#63b8ff" stroke="#63b8ff" points="597.83,-22.01 588.6,-27.19 599.05,-28.9 597.83,-22.01"/>
</a>
</g>
</g>
</g>
</svg>
