<?xml version="1.0" encoding="UTF-8" standalone="no"?>
<!DOCTYPE svg PUBLIC "-//W3C//DTD SVG 1.1//EN"
 "http://www.w3.org/Graphics/SVG/1.1/DTD/svg11.dtd">
<!-- Generated by graphviz version 9.0.0 (0)
 -->
<!-- Title: LibLoader::MessageManager::get Pages: 1 -->
<svg width="1533pt" height="354pt"
 viewBox="0.00 0.00 1532.75 354.00" xmlns="http://www.w3.org/2000/svg" xmlns:xlink="http://www.w3.org/1999/xlink">
<g id="graph0" class="graph" transform="scale(1 1) rotate(0) translate(4 350)">
<title>LibLoader::MessageManager::get</title>
<!-- Node1 -->
<g id="Node000001" class="node">
<title>Node1</title>
<g id="a_Node000001"><a xlink:title=" ">
<polygon fill="#999999" stroke="#666666" points="1524.75,-274 1364,-274 1364,-254 1524.75,-254 1524.75,-274"/>
<text text-anchor="middle" x="1444.38" y="-260.5" font-family="Helvetica,sans-Serif" font-size="10.00">LibLoader::MessageManager::get</text>
</a>
</g>
</g>
<!-- Node2 -->
<g id="Node000002" class="node">
<title>Node2</title>
<g id="a_Node000002"><a xlink:href="a00880.html#a79cbc18aabed7afe2c7ea30f989ffc8c" target="_top" xlink:title="LoaderMain实现开始">
<polygon fill="white" stroke="#666666" points="1328,-258 1213.75,-258 1213.75,-226 1328,-226 1328,-258"/>
<text text-anchor="start" x="1221.75" y="-244.5" font-family="Helvetica,sans-Serif" font-size="10.00">LibLoader::LoaderMain</text>
<text text-anchor="middle" x="1270.88" y="-232.5" font-family="Helvetica,sans-Serif" font-size="10.00">::loaderMain</text>
</a>
</g>
</g>
<!-- Node1&#45;&gt;Node2 -->
<g id="edge1_Node000001_Node000002" class="edge">
<title>Node1&#45;&gt;Node2</title>
<g id="a_edge1_Node000001_Node000002"><a xlink:title=" ">
<path fill="none" stroke="#63b8ff" d="M1352.48,-252.34C1344.3,-251.29 1336.18,-250.25 1328.42,-249.25"/>
<polygon fill="#63b8ff" stroke="#63b8ff" points="1351.78,-255.78 1362.15,-253.58 1352.68,-248.84 1351.78,-255.78"/>
</a>
</g>
</g>
<!-- Node26 -->
<g id="Node000026" class="node">
<title>Node26</title>
<g id="a_Node000026"><a xlink:href="a00880.html#aa2dac3324ec614040340dcb2a5c76110" target="_top" xlink:title=" ">
<polygon fill="white" stroke="#666666" points="1168,-346 1053.75,-346 1053.75,-314 1168,-314 1168,-346"/>
<text text-anchor="start" x="1061.75" y="-332.5" font-family="Helvetica,sans-Serif" font-size="10.00">LibLoader::LoaderMain</text>
<text text-anchor="middle" x="1110.88" y="-320.5" font-family="Helvetica,sans-Serif" font-size="10.00">::tick</text>
</a>
</g>
</g>
<!-- Node1&#45;&gt;Node26 -->
<g id="edge29_Node000001_Node000026" class="edge">
<title>Node1&#45;&gt;Node26</title>
<g id="a_edge29_Node000001_Node000026"><a xlink:title=" ">
<path fill="none" stroke="#63b8ff" d="M1379.79,-276.66C1318.61,-288.84 1226.98,-307.08 1168.32,-318.76"/>
<polygon fill="#63b8ff" stroke="#63b8ff" points="1380.24,-280.14 1389.36,-274.75 1378.87,-273.27 1380.24,-280.14"/>
</a>
</g>
</g>
<!-- Node3 -->
<g id="Node000003" class="node">
<title>Node3</title>
<g id="a_Node000003"><a xlink:href="a00880.html#a22eacbd6aa585f32d0fccce0a69ab642" target="_top" xlink:title=" ">
<polygon fill="white" stroke="#666666" points="1177.75,-170 1044,-170 1044,-150 1177.75,-150 1177.75,-170"/>
<text text-anchor="middle" x="1110.88" y="-156.5" font-family="Helvetica,sans-Serif" font-size="10.00">LibLoader::LoaderMain::get</text>
</a>
</g>
</g>
<!-- Node2&#45;&gt;Node3 -->
<g id="edge2_Node000002_Node000003" class="edge">
<title>Node2&#45;&gt;Node3</title>
<g id="a_edge2_Node000002_Node000003"><a xlink:title=" ">
<path fill="none" stroke="#63b8ff" d="M1235.14,-219.59C1218.17,-209.08 1197.25,-196.75 1177.75,-187 1165.59,-180.92 1151.72,-175.08 1139.85,-170.4"/>
<polygon fill="#63b8ff" stroke="#63b8ff" points="1233.02,-222.39 1243.36,-224.74 1236.74,-216.46 1233.02,-222.39"/>
</a>
</g>
</g>
<!-- Node24 -->
<g id="Node000024" class="node">
<title>Node24</title>
<g id="a_Node000024"><a xlink:href="a00314.html#aafbc26593c69471626589f38c751ef09" target="_top" xlink:title=" ">
<polygon fill="white" stroke="#666666" points="973.12,-208 913.62,-208 913.62,-188 973.12,-188 973.12,-208"/>
<text text-anchor="middle" x="943.38" y="-194.5" font-family="Helvetica,sans-Serif" font-size="10.00">VerifyImpl</text>
</a>
</g>
</g>
<!-- Node2&#45;&gt;Node24 -->
<g id="edge28_Node000002_Node000024" class="edge">
<title>Node2&#45;&gt;Node24</title>
<g id="a_edge28_Node000002_Node000024"><a xlink:title=" ">
<path fill="none" stroke="#63b8ff" d="M1202.23,-231.54C1193.99,-230.32 1185.68,-229.11 1177.75,-228 1104.33,-217.7 1017.71,-206.93 973.51,-201.53"/>
<polygon fill="#63b8ff" stroke="#63b8ff" points="1201.49,-234.97 1211.89,-232.98 1202.52,-228.04 1201.49,-234.97"/>
</a>
</g>
</g>
<!-- Node4 -->
<g id="Node000004" class="node">
<title>Node4</title>
<g id="a_Node000004"><a xlink:href="a00425.html#a46f4ab12479d61956e7dc81cfb19fef5" target="_top" xlink:title=" ">
<polygon fill="white" stroke="#666666" points="1008,-148 878.75,-148 878.75,-128 1008,-128 1008,-148"/>
<text text-anchor="middle" x="943.38" y="-134.5" font-family="Helvetica,sans-Serif" font-size="10.00">LibLoader::loaderWakeCV</text>
</a>
</g>
</g>
<!-- Node3&#45;&gt;Node4 -->
<g id="edge3_Node000003_Node000004" class="edge">
<title>Node3&#45;&gt;Node4</title>
<g id="a_edge3_Node000003_Node000004"><a xlink:title=" ">
<path fill="none" stroke="#63b8ff" d="M1032.26,-149.68C1024.25,-148.62 1016.17,-147.54 1008.33,-146.5"/>
<polygon fill="#63b8ff" stroke="#63b8ff" points="1031.64,-153.13 1042.01,-150.98 1032.56,-146.19 1031.64,-153.13"/>
</a>
</g>
</g>
<!-- Node12 -->
<g id="Node000012" class="node">
<title>Node12</title>
<g id="a_Node000012"><a xlink:href="a00314.html#a2e0217581c8df7fd1fc867cc3a8317d3" target="_top" xlink:title=" ">
<polygon fill="white" stroke="#666666" points="831.88,-32 737.12,-32 737.12,-12 831.88,-12 831.88,-32"/>
<text text-anchor="middle" x="784.5" y="-18.5" font-family="Helvetica,sans-Serif" font-size="10.00">PluginDisableImpl</text>
</a>
</g>
</g>
<!-- Node3&#45;&gt;Node12 -->
<g id="edge25_Node000003_Node000012" class="edge">
<title>Node3&#45;&gt;Node12</title>
<g id="a_edge25_Node000003_Node000012"><a xlink:title=" ">
<path fill="none" stroke="#63b8ff" d="M1078.29,-144.71C1028.73,-120.99 929.41,-74.59 842.75,-41 835.04,-38.01 826.63,-35.06 818.7,-32.4"/>
<polygon fill="#63b8ff" stroke="#63b8ff" points="1076.47,-147.72 1087,-148.89 1079.5,-141.41 1076.47,-147.72"/>
</a>
</g>
</g>
<!-- Node3&#45;&gt;Node24 -->
<g id="edge26_Node000003_Node000024" class="edge">
<title>Node3&#45;&gt;Node24</title>
<g id="a_edge26_Node000003_Node000024"><a xlink:title=" ">
<path fill="none" stroke="#63b8ff" d="M1053.34,-172.98C1026.39,-179.17 995.29,-186.31 973.24,-191.37"/>
<polygon fill="#63b8ff" stroke="#63b8ff" points="1053.78,-176.47 1062.74,-170.82 1052.21,-169.65 1053.78,-176.47"/>
</a>
</g>
</g>
<!-- Node5 -->
<g id="Node000005" class="node">
<title>Node5</title>
<g id="a_Node000005"><a xlink:href="a00880.html#a9ca8ba2c9fcbfade9adf4a0a2bb47eaa" target="_top" xlink:title=" ">
<polygon fill="white" stroke="#666666" points="841.62,-258 727.38,-258 727.38,-226 841.62,-226 841.62,-258"/>
<text text-anchor="start" x="735.38" y="-244.5" font-family="Helvetica,sans-Serif" font-size="10.00">LibLoader::LoaderMain</text>
<text text-anchor="middle" x="784.5" y="-232.5" font-family="Helvetica,sans-Serif" font-size="10.00">::mainloop</text>
</a>
</g>
</g>
<!-- Node4&#45;&gt;Node5 -->
<g id="edge4_Node000004_Node000005" class="edge">
<title>Node4&#45;&gt;Node5</title>
<g id="a_edge4_Node000004_Node000005"><a xlink:title=" ">
<path fill="none" stroke="#63b8ff" d="M914.21,-154.13C902.77,-161.18 889.7,-169.92 878.75,-179 860.84,-193.85 861.79,-203.63 842.75,-217 838.31,-220.12 833.42,-222.97 828.43,-225.54"/>
<polygon fill="#63b8ff" stroke="#63b8ff" points="915.68,-157.32 922.45,-149.17 912.07,-151.33 915.68,-157.32"/>
</a>
</g>
</g>
<!-- Node6 -->
<g id="Node000006" class="node">
<title>Node6</title>
<g id="a_Node000006"><a xlink:href="a00281.html#a36a04ab86ecc081ee51d32866ef7a332" target="_top" xlink:title=" ">
<polygon fill="white" stroke="#666666" points="834.88,-82 734.12,-82 734.12,-50 834.88,-50 834.88,-82"/>
<text text-anchor="start" x="742.12" y="-68.5" font-family="Helvetica,sans-Serif" font-size="10.00">plugin_raw_API_try</text>
<text text-anchor="middle" x="784.5" y="-56.5" font-family="Helvetica,sans-Serif" font-size="10.00">_wake_loader</text>
</a>
</g>
</g>
<!-- Node4&#45;&gt;Node6 -->
<g id="edge6_Node000004_Node000006" class="edge">
<title>Node4&#45;&gt;Node6</title>
<g id="a_edge6_Node000004_Node000006"><a xlink:title=" ">
<path fill="none" stroke="#63b8ff" d="M910.53,-122.69C891.03,-113.38 865.52,-101.34 842.75,-91 836.53,-88.17 829.9,-85.23 823.45,-82.39"/>
<polygon fill="#63b8ff" stroke="#63b8ff" points="908.8,-125.74 919.33,-126.9 911.82,-119.42 908.8,-125.74"/>
</a>
</g>
</g>
<!-- Node4&#45;&gt;Node12 -->
<g id="edge12_Node000004_Node000012" class="edge">
<title>Node4&#45;&gt;Node12</title>
<g id="a_edge12_Node000004_Node000012"><a xlink:title=" ">
<path fill="none" stroke="#63b8ff" d="M927.23,-118.72C909.24,-96.99 877.27,-61.99 842.75,-41 837.2,-37.63 830.98,-34.77 824.74,-32.39"/>
<polygon fill="#63b8ff" stroke="#63b8ff" points="924.51,-120.92 933.52,-126.49 929.95,-116.51 924.51,-120.92"/>
</a>
</g>
</g>
<!-- Node14 -->
<g id="Node000014" class="node">
<title>Node14</title>
<g id="a_Node000014"><a xlink:href="a00432.html#a746efd674de5c56de789a0c03be7948e" target="_top" xlink:title="新增一个计时器，对接libLoader API">
<polygon fill="white" stroke="#666666" points="838.25,-132 730.75,-132 730.75,-100 838.25,-100 838.25,-132"/>
<text text-anchor="start" x="738.75" y="-118.5" font-family="Helvetica,sans-Serif" font-size="10.00">LibLoader::Scheduler</text>
<text text-anchor="middle" x="784.5" y="-106.5" font-family="Helvetica,sans-Serif" font-size="10.00">::timer</text>
</a>
</g>
</g>
<!-- Node4&#45;&gt;Node14 -->
<g id="edge14_Node000004_Node000014" class="edge">
<title>Node4&#45;&gt;Node14</title>
<g id="a_edge14_Node000004_Node000014"><a xlink:title=" ">
<path fill="none" stroke="#63b8ff" d="M867.3,-127.47C857.65,-126.12 847.92,-124.75 838.72,-123.46"/>
<polygon fill="#63b8ff" stroke="#63b8ff" points="866.68,-130.92 877.07,-128.84 867.65,-123.99 866.68,-130.92"/>
</a>
</g>
</g>
<!-- Node21 -->
<g id="Node000021" class="node">
<title>Node21</title>
<g id="a_Node000021"><a xlink:href="a00425.html#a4bd4ee75c4f2ea14034626c7cbf73bb4" target="_top" xlink:title=" ">
<polygon fill="white" stroke="#666666" points="842.75,-170 726.25,-170 726.25,-150 842.75,-150 842.75,-170"/>
<text text-anchor="middle" x="784.5" y="-156.5" font-family="Helvetica,sans-Serif" font-size="10.00">LibLoader::wakeLoader</text>
</a>
</g>
</g>
<!-- Node4&#45;&gt;Node21 -->
<g id="edge22_Node000004_Node000021" class="edge">
<title>Node4&#45;&gt;Node21</title>
<g id="a_edge22_Node000004_Node000021"><a xlink:title=" ">
<path fill="none" stroke="#63b8ff" d="M867.22,-148.54C859.14,-149.67 851.02,-150.81 843.19,-151.91"/>
<polygon fill="#63b8ff" stroke="#63b8ff" points="867.65,-152.01 877.07,-147.16 866.68,-145.08 867.65,-152.01"/>
</a>
</g>
</g>
<!-- Node5&#45;&gt;Node2 -->
<g id="edge5_Node000005_Node000002" class="edge">
<title>Node5&#45;&gt;Node2</title>
<g id="a_edge5_Node000005_Node000002"><a xlink:title=" ">
<path fill="none" stroke="#63b8ff" d="M853.36,-242C949.55,-242 1123.79,-242 1213.36,-242"/>
<polygon fill="#63b8ff" stroke="#63b8ff" points="853.54,-238.5 843.54,-242 853.54,-245.5 853.54,-238.5"/>
</a>
</g>
</g>
<!-- Node7 -->
<g id="Node000007" class="node">
<title>Node7</title>
<g id="a_Node000007"><a xlink:href="a00916.html#a14895bee64bb1c12e16b97d038b699b7" target="_top" xlink:title="这部分是一些工具函数、对象">
<polygon fill="white" stroke="#666666" points="661,-82 564,-82 564,-50 661,-50 661,-82"/>
<text text-anchor="start" x="572" y="-68.5" font-family="Helvetica,sans-Serif" font-size="10.00">LibLoader::Plugin::</text>
<text text-anchor="middle" x="612.5" y="-56.5" font-family="Helvetica,sans-Serif" font-size="10.00">callEntrance</text>
</a>
</g>
</g>
<!-- Node6&#45;&gt;Node7 -->
<g id="edge7_Node000006_Node000007" class="edge">
<title>Node6&#45;&gt;Node7</title>
<g id="a_edge7_Node000006_Node000007"><a xlink:title=" ">
<path fill="none" stroke="#63b8ff" d="M722.62,-66C702.51,-66 680.43,-66 661.43,-66"/>
<polygon fill="#63b8ff" stroke="#63b8ff" points="722.36,-69.5 732.36,-66 722.36,-62.5 722.36,-69.5"/>
</a>
</g>
</g>
<!-- Node8 -->
<g id="Node000008" class="node">
<title>Node8</title>
<g id="a_Node000008"><a xlink:href="a00916.html#a450c1c6820ab6c5417691359d88d8220" target="_top" xlink:title=" ">
<polygon fill="white" stroke="#666666" points="478.5,-82 381.5,-82 381.5,-50 478.5,-50 478.5,-82"/>
<text text-anchor="start" x="389.5" y="-68.5" font-family="Helvetica,sans-Serif" font-size="10.00">LibLoader::Plugin::</text>
<text text-anchor="middle" x="430" y="-56.5" font-family="Helvetica,sans-Serif" font-size="10.00">enableInternal</text>
</a>
</g>
</g>
<!-- Node7&#45;&gt;Node8 -->
<g id="edge8_Node000007_Node000008" class="edge">
<title>Node7&#45;&gt;Node8</title>
<g id="a_edge8_Node000007_Node000008"><a xlink:title=" ">
<path fill="none" stroke="#63b8ff" d="M552.21,-66C528.4,-66 501.32,-66 478.81,-66"/>
<polygon fill="#63b8ff" stroke="#63b8ff" points="552.09,-69.5 562.09,-66 552.09,-62.5 552.09,-69.5"/>
</a>
</g>
</g>
<!-- Node9 -->
<g id="Node000009" class="node">
<title>Node9</title>
<g id="a_Node000009"><a xlink:href="a00916.html#a549e3729f8aeb27208ef5aecb434eef1" target="_top" xlink:title=" ">
<polygon fill="white" stroke="#666666" points="299.75,-32 202.75,-32 202.75,0 299.75,0 299.75,-32"/>
<text text-anchor="start" x="210.75" y="-18.5" font-family="Helvetica,sans-Serif" font-size="10.00">LibLoader::Plugin::</text>
<text text-anchor="middle" x="251.25" y="-6.5" font-family="Helvetica,sans-Serif" font-size="10.00">enablePlugin</text>
</a>
</g>
</g>
<!-- Node8&#45;&gt;Node9 -->
<g id="edge9_Node000008_Node000009" class="edge">
<title>Node8&#45;&gt;Node9</title>
<g id="a_edge9_Node000008_Node000009"><a xlink:title=" ">
<path fill="none" stroke="#63b8ff" d="M370.26,-49.38C347.48,-42.94 321.74,-35.66 300.12,-29.54"/>
<polygon fill="#63b8ff" stroke="#63b8ff" points="369.14,-52.7 379.71,-52.06 371.04,-45.97 369.14,-52.7"/>
</a>
</g>
</g>
<!-- Node10 -->
<g id="Node000010" class="node">
<title>Node10</title>
<g id="a_Node000010"><a xlink:href="a00916.html#a8636d0418d741a19bbd9183316cd5c59" target="_top" xlink:title=" ">
<polygon fill="white" stroke="#666666" points="299.75,-82 202.75,-82 202.75,-50 299.75,-50 299.75,-82"/>
<text text-anchor="start" x="210.75" y="-68.5" font-family="Helvetica,sans-Serif" font-size="10.00">LibLoader::Plugin::</text>
<text text-anchor="middle" x="251.25" y="-56.5" font-family="Helvetica,sans-Serif" font-size="10.00">loadInternal</text>
</a>
</g>
</g>
<!-- Node8&#45;&gt;Node10 -->
<g id="edge10_Node000008_Node000010" class="edge">
<title>Node8&#45;&gt;Node10</title>
<g id="a_edge10_Node000008_Node000010"><a xlink:title=" ">
<path fill="none" stroke="#63b8ff" d="M369.95,-66C347.25,-66 321.64,-66 300.12,-66"/>
<polygon fill="#63b8ff" stroke="#63b8ff" points="369.66,-69.5 379.66,-66 369.66,-62.5 369.66,-69.5"/>
</a>
</g>
</g>
<!-- Node11 -->
<g id="Node000011" class="node">
<title>Node11</title>
<g id="a_Node000011"><a xlink:href="a00916.html#a891ce42f23fe1312ef6cad2accf4ab92" target="_top" xlink:title=" ">
<polygon fill="white" stroke="#666666" points="119.12,-82 22.12,-82 22.12,-50 119.12,-50 119.12,-82"/>
<text text-anchor="start" x="30.12" y="-68.5" font-family="Helvetica,sans-Serif" font-size="10.00">LibLoader::Plugin::</text>
<text text-anchor="middle" x="70.62" y="-56.5" font-family="Helvetica,sans-Serif" font-size="10.00">loadPlugin</text>
</a>
</g>
</g>
<!-- Node10&#45;&gt;Node11 -->
<g id="edge11_Node000010_Node000011" class="edge">
<title>Node10&#45;&gt;Node11</title>
<g id="a_edge11_Node000010_Node000011"><a xlink:title=" ">
<path fill="none" stroke="#63b8ff" d="M190.89,-66C167.63,-66 141.31,-66 119.32,-66"/>
<polygon fill="#63b8ff" stroke="#63b8ff" points="190.87,-69.5 200.87,-66 190.87,-62.5 190.87,-69.5"/>
</a>
</g>
</g>
<!-- Node13 -->
<g id="Node000013" class="node">
<title>Node13</title>
<g id="a_Node000013"><a xlink:href="a00314.html#a054b75b2be22897678d22ce9a72d91df" target="_top" xlink:title=" ">
<polygon fill="white" stroke="#666666" points="650.5,-32 574.5,-32 574.5,-12 650.5,-12 650.5,-32"/>
<text text-anchor="middle" x="612.5" y="-18.5" font-family="Helvetica,sans-Serif" font-size="10.00">PluginDisable</text>
</a>
</g>
</g>
<!-- Node12&#45;&gt;Node13 -->
<g id="edge13_Node000012_Node000013" class="edge">
<title>Node12&#45;&gt;Node13</title>
<g id="a_edge13_Node000012_Node000013"><a xlink:title=" ">
<path fill="none" stroke="#63b8ff" d="M725.58,-22C700.83,-22 672.66,-22 650.75,-22"/>
<polygon fill="#63b8ff" stroke="#63b8ff" points="725.53,-25.5 735.53,-22 725.53,-18.5 725.53,-25.5"/>
</a>
</g>
</g>
<!-- Node15 -->
<g id="Node000015" class="node">
<title>Node15</title>
<g id="a_Node000015"><a xlink:href="a00426.html#a05f1524120bb7a5a65abbde063d9e557" target="_top" xlink:title=" ">
<polygon fill="white" stroke="#666666" points="666.25,-132 558.75,-132 558.75,-100 666.25,-100 666.25,-132"/>
<text text-anchor="start" x="566.75" y="-118.5" font-family="Helvetica,sans-Serif" font-size="10.00">LibLoader::LoaderApi</text>
<text text-anchor="middle" x="612.5" y="-106.5" font-family="Helvetica,sans-Serif" font-size="10.00">::timer</text>
</a>
</g>
</g>
<!-- Node14&#45;&gt;Node15 -->
<g id="edge15_Node000014_Node000015" class="edge">
<title>Node14&#45;&gt;Node15</title>
<g id="a_edge15_Node000014_Node000015"><a xlink:title=" ">
<path fill="none" stroke="#63b8ff" d="M719.42,-116C702.01,-116 683.35,-116 666.62,-116"/>
<polygon fill="#63b8ff" stroke="#63b8ff" points="719.13,-119.5 729.13,-116 719.13,-112.5 719.13,-119.5"/>
</a>
</g>
</g>
<!-- Node16 -->
<g id="Node000016" class="node">
<title>Node16</title>
<g id="a_Node000016"><a xlink:href="a00412.html#a0edd1fee858de73bb144b4f7832a573d" target="_top" xlink:title="定时任务, 在一定时间后广播**一次**TimeOutEvent">
<polygon fill="white" stroke="#666666" points="478.12,-170 381.88,-170 381.88,-150 478.12,-150 478.12,-170"/>
<text text-anchor="middle" x="430" y="-156.5" font-family="Helvetica,sans-Serif" font-size="10.00">MiraiCP::schedule</text>
</a>
</g>
</g>
<!-- Node15&#45;&gt;Node16 -->
<g id="edge16_Node000015_Node000016" class="edge">
<title>Node15&#45;&gt;Node16</title>
<g id="a_edge16_Node000015_Node000016"><a xlink:title=" ">
<path fill="none" stroke="#63b8ff" d="M547.34,-131.64C522.94,-137.59 495.76,-144.21 473.81,-149.56"/>
<polygon fill="#63b8ff" stroke="#63b8ff" points="547.96,-135.09 556.85,-129.32 546.31,-128.29 547.96,-135.09"/>
</a>
</g>
</g>
<!-- Node18 -->
<g id="Node000018" class="node">
<title>Node18</title>
<g id="a_Node000018"><a xlink:href="a00431.html#ac6360f8f60a063ca92ee816f65a8a2a1" target="_top" xlink:title=" ">
<polygon fill="white" stroke="#666666" points="498.75,-132 361.25,-132 361.25,-100 498.75,-100 498.75,-132"/>
<text text-anchor="start" x="369.25" y="-118.5" font-family="Helvetica,sans-Serif" font-size="10.00">LibLoader::MessageHandler</text>
<text text-anchor="middle" x="430" y="-106.5" font-family="Helvetica,sans-Serif" font-size="10.00">::timer_message</text>
</a>
</g>
</g>
<!-- Node15&#45;&gt;Node18 -->
<g id="edge18_Node000015_Node000018" class="edge">
<title>Node15&#45;&gt;Node18</title>
<g id="a_edge18_Node000015_Node000018"><a xlink:title=" ">
<path fill="none" stroke="#63b8ff" d="M547.22,-116C531.65,-116 514.96,-116 499.22,-116"/>
<polygon fill="#63b8ff" stroke="#63b8ff" points="546.81,-119.5 556.81,-116 546.81,-112.5 546.81,-119.5"/>
</a>
</g>
</g>
<!-- Node17 -->
<g id="Node000017" class="node">
<title>Node17</title>
<g id="a_Node000017"><a xlink:href="a00412.html#a9d9b304caa9cf25c6f148b99ee9651f6" target="_top" xlink:title="定时任务, 在一定时间后广播**一次**TimeOutEvent，chrono重载">
<polygon fill="white" stroke="#666666" points="299.38,-170 203.12,-170 203.12,-150 299.38,-150 299.38,-170"/>
<text text-anchor="middle" x="251.25" y="-156.5" font-family="Helvetica,sans-Serif" font-size="10.00">MiraiCP::schedule</text>
</a>
</g>
</g>
<!-- Node16&#45;&gt;Node17 -->
<g id="edge17_Node000016_Node000017" class="edge">
<title>Node16&#45;&gt;Node17</title>
<g id="a_edge17_Node000016_Node000017"><a xlink:title=" ">
<path fill="none" stroke="#63b8ff" d="M370.31,-160C347.39,-160 321.46,-160 299.75,-160"/>
<polygon fill="#63b8ff" stroke="#63b8ff" points="370.12,-163.5 380.12,-160 370.12,-156.5 370.12,-163.5"/>
</a>
</g>
</g>
<!-- Node19 -->
<g id="Node000019" class="node">
<title>Node19</title>
<g id="a_Node000019"><a xlink:href="a00892.html#ac44a2bba9059176d3ccb04ed1eb065a3" target="_top" xlink:title=" ">
<polygon fill="white" stroke="#666666" points="325.25,-132 177.25,-132 177.25,-100 325.25,-100 325.25,-132"/>
<text text-anchor="start" x="185.25" y="-118.5" font-family="Helvetica,sans-Serif" font-size="10.00">LibLoader::MessageProcessor</text>
<text text-anchor="middle" x="251.25" y="-106.5" font-family="Helvetica,sans-Serif" font-size="10.00">::registerDefaultHandlers</text>
</a>
</g>
</g>
<!-- Node18&#45;&gt;Node19 -->
<g id="edge19_Node000018_Node000019" class="edge">
<title>Node18&#45;&gt;Node19</title>
<g id="a_edge19_Node000018_Node000019"><a xlink:title=" ">
<path fill="none" stroke="#63b8ff" d="M349.67,-116C341.65,-116 333.53,-116 325.58,-116"/>
<polygon fill="#63b8ff" stroke="#63b8ff" points="349.4,-119.5 359.4,-116 349.4,-112.5 349.4,-119.5"/>
</a>
</g>
</g>
<!-- Node20 -->
<g id="Node000020" class="node">
<title>Node20</title>
<g id="a_Node000020"><a xlink:href="a00884.html#ac95c9bf6b208cbeab2e9b1cdfcb7c3d6" target="_top" xlink:title=" ">
<polygon fill="white" stroke="#666666" points="141.25,-217 0,-217 0,-185 141.25,-185 141.25,-217"/>
<text text-anchor="start" x="8" y="-203.5" font-family="Helvetica,sans-Serif" font-size="10.00">LibLoader::MessageManager</text>
<text text-anchor="middle" x="70.62" y="-191.5" font-family="Helvetica,sans-Serif" font-size="10.00">::init</text>
</a>
</g>
</g>
<!-- Node19&#45;&gt;Node20 -->
<g id="edge20_Node000019_Node000020" class="edge">
<title>Node19&#45;&gt;Node20</title>
<g id="a_edge20_Node000019_Node000020"><a xlink:title=" ">
<path fill="none" stroke="#63b8ff" d="M187.62,-136.58C184.09,-138.01 180.61,-139.49 177.25,-141 148.98,-153.73 118.35,-171.63 97.39,-184.56"/>
<polygon fill="#63b8ff" stroke="#63b8ff" points="188.86,-139.86 196.92,-132.98 186.33,-133.33 188.86,-139.86"/>
</a>
</g>
</g>
<!-- Node20&#45;&gt;Node2 -->
<g id="edge21_Node000020_Node000002" class="edge">
<title>Node20&#45;&gt;Node2</title>
<g id="a_edge21_Node000020_Node000002"><a xlink:title=" ">
<path fill="none" stroke="#63b8ff" d="M123.48,-221.39C192.21,-246.54 317.76,-286 429,-286 944.38,-286 944.38,-286 944.38,-286 1039.46,-286 1148.78,-267.33 1213.44,-254.31"/>
<polygon fill="#63b8ff" stroke="#63b8ff" points="124.96,-218.21 114.37,-218.02 122.53,-224.77 124.96,-218.21"/>
</a>
</g>
</g>
<!-- Node22 -->
<g id="Node000022" class="node">
<title>Node22</title>
<g id="a_Node000022"><a xlink:href="a00425.html#afbf560680f6b525ee0240f614a0177b6" target="_top" xlink:title=" ">
<polygon fill="white" stroke="#666666" points="690.25,-170 534.75,-170 534.75,-150 690.25,-150 690.25,-170"/>
<text text-anchor="middle" x="612.5" y="-156.5" font-family="Helvetica,sans-Serif" font-size="10.00">LibLoader::sendPluginException</text>
</a>
</g>
</g>
<!-- Node21&#45;&gt;Node22 -->
<g id="edge23_Node000021_Node000022" class="edge">
<title>Node21&#45;&gt;Node22</title>
<g id="a_edge23_Node000021_Node000022"><a xlink:title=" ">
<path fill="none" stroke="#63b8ff" d="M714.55,-160C706.66,-160 698.58,-160 690.59,-160"/>
<polygon fill="#63b8ff" stroke="#63b8ff" points="714.43,-163.5 724.43,-160 714.43,-156.5 714.43,-163.5"/>
</a>
</g>
</g>
<!-- Node23 -->
<g id="Node000023" class="node">
<title>Node23</title>
<g id="a_Node000023"><a xlink:href="a00425.html#a7ee448e1b260709b6a8d73fa41ec5c15" target="_top" xlink:title=" ">
<polygon fill="white" stroke="#666666" points="683.12,-208 541.88,-208 541.88,-188 683.12,-188 683.12,-208"/>
<text text-anchor="middle" x="612.5" y="-194.5" font-family="Helvetica,sans-Serif" font-size="10.00">LibLoader::sendThreadReset</text>
</a>
</g>
</g>
<!-- Node21&#45;&gt;Node23 -->
<g id="edge24_Node000021_Node000023" class="edge">
<title>Node21&#45;&gt;Node23</title>
<g id="a_edge24_Node000021_Node000023"><a xlink:title=" ">
<path fill="none" stroke="#63b8ff" d="M725.41,-172.98C704.15,-177.74 680.39,-183.05 660.25,-187.55"/>
<polygon fill="#63b8ff" stroke="#63b8ff" points="726.12,-176.41 735.12,-170.81 724.6,-169.58 726.12,-176.41"/>
</a>
</g>
</g>
<!-- Node25 -->
<g id="Node000025" class="node">
<title>Node25</title>
<g id="a_Node000025"><a xlink:href="a00314.html#a3712cdeefe60fa2a92efa90cd6200b02" target="_top" xlink:title=" ">
<polygon fill="white" stroke="#666666" points="804.88,-208 764.12,-208 764.12,-188 804.88,-188 804.88,-208"/>
<text text-anchor="middle" x="784.5" y="-194.5" font-family="Helvetica,sans-Serif" font-size="10.00">Verify</text>
</a>
</g>
</g>
<!-- Node24&#45;&gt;Node25 -->
<g id="edge27_Node000024_Node000025" class="edge">
<title>Node24&#45;&gt;Node25</title>
<g id="a_edge27_Node000024_Node000025"><a xlink:title=" ">
<path fill="none" stroke="#63b8ff" d="M901.89,-198C870.78,-198 829.18,-198 805.06,-198"/>
<polygon fill="#63b8ff" stroke="#63b8ff" points="901.72,-201.5 911.72,-198 901.72,-194.5 901.72,-201.5"/>
</a>
</g>
</g>
<!-- Node26&#45;&gt;Node5 -->
<g id="edge30_Node000026_Node000005" class="edge">
<title>Node26&#45;&gt;Node5</title>
<g id="a_edge30_Node000026_Node000005"><a xlink:title=" ">
<path fill="none" stroke="#63b8ff" d="M1042.61,-311.75C983.26,-295.65 897.74,-272.45 841.9,-257.3"/>
<polygon fill="#63b8ff" stroke="#63b8ff" points="1041.34,-315.03 1051.91,-314.28 1043.18,-308.28 1041.34,-315.03"/>
</a>
</g>
</g>
</g>
</svg>
