<?xml version="1.0" encoding="UTF-8" standalone="no"?>
<!DOCTYPE svg PUBLIC "-//W3C//DTD SVG 1.1//EN"
 "http://www.w3.org/Graphics/SVG/1.1/DTD/svg11.dtd">
<!-- Generated by graphviz version 2.50.0 (20211204.2007)
 -->
<!-- Title: LibLoader::Plugin::unloadPlugin Pages: 1 -->
<svg width="1123pt" height="112pt"
 viewBox="0.00 0.00 1123.00 112.00" xmlns="http://www.w3.org/2000/svg" xmlns:xlink="http://www.w3.org/1999/xlink">
<g id="graph0" class="graph" transform="scale(1 1) rotate(0) translate(4 108)">
<title>LibLoader::Plugin::unloadPlugin</title>
<polygon fill="white" stroke="transparent" points="-4,4 -4,-108 1119,-108 1119,4 -4,4"/>
<!-- Node1 -->
<g id="node1" class="node">
<title>Node1</title>
<g id="a_node1"><a xlink:title=" ">
<polygon fill="#bfbfbf" stroke="black" points="1017,-24.5 1017,-54.5 1115,-54.5 1115,-24.5 1017,-24.5"/>
<text text-anchor="start" x="1025" y="-42.5" font-family="Helvetica,sans-Serif" font-size="10.00">LibLoader::Plugin::</text>
<text text-anchor="middle" x="1066" y="-31.5" font-family="Helvetica,sans-Serif" font-size="10.00">unloadPlugin</text>
</a>
</g>
</g>
<!-- Node2 -->
<g id="node2" class="node">
<title>Node2</title>
<g id="a_node2"><a xlink:href="a00836.html#a9f575adc3e4404ac758db99eb49ce9bb" target="_top" xlink:title=" ">
<polygon fill="white" stroke="black" points="836,-24.5 836,-54.5 981,-54.5 981,-24.5 836,-24.5"/>
<text text-anchor="start" x="844" y="-42.5" font-family="Helvetica,sans-Serif" font-size="10.00">LibLoader::PluginListManager</text>
<text text-anchor="middle" x="908.5" y="-31.5" font-family="Helvetica,sans-Serif" font-size="10.00">::addNewPlugin</text>
</a>
</g>
</g>
<!-- Node1&#45;&gt;Node2 -->
<g id="edge1" class="edge">
<title>Node1&#45;&gt;Node2</title>
<path fill="none" stroke="midnightblue" d="M1006.42,-39.5C998.19,-39.5 989.66,-39.5 981.22,-39.5"/>
<polygon fill="midnightblue" stroke="midnightblue" points="1006.65,-43 1016.65,-39.5 1006.65,-36 1006.65,-43"/>
</g>
<!-- Node3 -->
<g id="node3" class="node">
<title>Node3</title>
<g id="a_node3"><a xlink:href="a00836.html#a5ed72227269472f7a225be5177805dbb" target="_top" xlink:title=" ">
<polygon fill="white" stroke="black" points="655,-49.5 655,-79.5 800,-79.5 800,-49.5 655,-49.5"/>
<text text-anchor="start" x="663" y="-67.5" font-family="Helvetica,sans-Serif" font-size="10.00">LibLoader::PluginListManager</text>
<text text-anchor="middle" x="727.5" y="-56.5" font-family="Helvetica,sans-Serif" font-size="10.00">::loadNewPluginByPath</text>
</a>
</g>
</g>
<!-- Node2&#45;&gt;Node3 -->
<g id="edge2" class="edge">
<title>Node2&#45;&gt;Node3</title>
<path fill="none" stroke="midnightblue" d="M825.96,-50.89C817.36,-52.09 808.67,-53.3 800.2,-54.49"/>
<polygon fill="midnightblue" stroke="midnightblue" points="826.56,-54.34 835.98,-49.49 825.59,-47.41 826.56,-54.34"/>
</g>
<!-- Node10 -->
<g id="node10" class="node">
<title>Node10</title>
<g id="a_node10"><a xlink:href="a00824.html#a6db0416218955157f2c4091fc29aa17e" target="_top" xlink:title=" ">
<polygon fill="white" stroke="black" points="678.5,-0.5 678.5,-30.5 776.5,-30.5 776.5,-0.5 678.5,-0.5"/>
<text text-anchor="start" x="686.5" y="-18.5" font-family="Helvetica,sans-Serif" font-size="10.00">LibLoader::Plugin::</text>
<text text-anchor="middle" x="727.5" y="-7.5" font-family="Helvetica,sans-Serif" font-size="10.00">loadsAll</text>
</a>
</g>
</g>
<!-- Node2&#45;&gt;Node10 -->
<g id="edge9" class="edge">
<title>Node2&#45;&gt;Node10</title>
<path fill="none" stroke="midnightblue" d="M825.6,-28.52C808.82,-26.27 791.67,-23.97 776.56,-21.94"/>
<polygon fill="midnightblue" stroke="midnightblue" points="825.61,-32.05 835.98,-29.91 826.54,-25.11 825.61,-32.05"/>
</g>
<!-- Node4 -->
<g id="node4" class="node">
<title>Node4</title>
<g id="a_node4"><a xlink:href="a00407.html#a8eada9f54700edf5a2aa262e5d006691" target="_top" xlink:title=" ">
<polygon fill="white" stroke="black" points="480,-73.5 480,-103.5 613,-103.5 613,-73.5 480,-73.5"/>
<text text-anchor="start" x="488" y="-91.5" font-family="Helvetica,sans-Serif" font-size="10.00">LibLoader::loader_loadNew</text>
<text text-anchor="middle" x="546.5" y="-80.5" font-family="Helvetica,sans-Serif" font-size="10.00">Plugin</text>
</a>
</g>
</g>
<!-- Node3&#45;&gt;Node4 -->
<g id="edge3" class="edge">
<title>Node3&#45;&gt;Node4</title>
<path fill="none" stroke="midnightblue" d="M644.85,-75.45C634.21,-76.87 623.43,-78.32 613.1,-79.7"/>
<polygon fill="midnightblue" stroke="midnightblue" points="645.54,-78.89 654.98,-74.09 644.61,-71.95 645.54,-78.89"/>
</g>
<!-- Node9 -->
<g id="node9" class="node">
<title>Node9</title>
<g id="a_node9"><a xlink:href="a00836.html#a5bf805b4eb2e1f55fb77f79c52e0f75d" target="_top" xlink:title=" ">
<polygon fill="white" stroke="black" points="474,-24.5 474,-54.5 619,-54.5 619,-24.5 474,-24.5"/>
<text text-anchor="start" x="482" y="-42.5" font-family="Helvetica,sans-Serif" font-size="10.00">LibLoader::PluginListManager</text>
<text text-anchor="middle" x="546.5" y="-31.5" font-family="Helvetica,sans-Serif" font-size="10.00">::reloadAllPlugin</text>
</a>
</g>
</g>
<!-- Node3&#45;&gt;Node9 -->
<g id="edge8" class="edge">
<title>Node3&#45;&gt;Node9</title>
<path fill="none" stroke="midnightblue" d="M644.96,-53.11C636.36,-51.91 627.67,-50.7 619.2,-49.51"/>
<polygon fill="midnightblue" stroke="midnightblue" points="644.59,-56.59 654.98,-54.51 645.56,-49.66 644.59,-56.59"/>
</g>
<!-- Node5 -->
<g id="node5" class="node">
<title>Node5</title>
<g id="a_node5"><a xlink:href="a00804.html#a0fbfe44fb362bf323c41e3ae73717edd" target="_top" xlink:title=" ">
<polygon fill="white" stroke="black" points="323,-73.5 323,-103.5 438,-103.5 438,-73.5 323,-73.5"/>
<text text-anchor="start" x="331" y="-91.5" font-family="Helvetica,sans-Serif" font-size="10.00">LibLoader::LoaderMain</text>
<text text-anchor="middle" x="380.5" y="-80.5" font-family="Helvetica,sans-Serif" font-size="10.00">::mainloop</text>
</a>
</g>
</g>
<!-- Node4&#45;&gt;Node5 -->
<g id="edge4" class="edge">
<title>Node4&#45;&gt;Node5</title>
<path fill="none" stroke="midnightblue" d="M469.61,-88.5C458.99,-88.5 448.22,-88.5 438.03,-88.5"/>
<polygon fill="midnightblue" stroke="midnightblue" points="469.74,-92 479.74,-88.5 469.74,-85 469.74,-92"/>
</g>
<!-- Node6 -->
<g id="node6" class="node">
<title>Node6</title>
<g id="a_node6"><a xlink:href="a00804.html#a79cbc18aabed7afe2c7ea30f989ffc8c" target="_top" xlink:title="LoaderMain实现开始">
<polygon fill="white" stroke="black" points="172,-73.5 172,-103.5 287,-103.5 287,-73.5 172,-73.5"/>
<text text-anchor="start" x="180" y="-91.5" font-family="Helvetica,sans-Serif" font-size="10.00">LibLoader::LoaderMain</text>
<text text-anchor="middle" x="229.5" y="-80.5" font-family="Helvetica,sans-Serif" font-size="10.00">::loaderMain</text>
</a>
</g>
</g>
<!-- Node5&#45;&gt;Node6 -->
<g id="edge5" class="edge">
<title>Node5&#45;&gt;Node6</title>
<path fill="none" stroke="midnightblue" d="M312.49,-88.5C304.01,-88.5 295.4,-88.5 287.1,-88.5"/>
<polygon fill="midnightblue" stroke="midnightblue" points="312.74,-92 322.74,-88.5 312.74,-85 312.74,-92"/>
</g>
<!-- Node7 -->
<g id="node7" class="node">
<title>Node7</title>
<g id="a_node7"><a xlink:href="a00212.html#aafbc26593c69471626589f38c751ef09" target="_top" xlink:title=" ">
<polygon fill="white" stroke="black" points="77,-79 77,-98 136,-98 136,-79 77,-79"/>
<text text-anchor="middle" x="106.5" y="-86" font-family="Helvetica,sans-Serif" font-size="10.00">VerifyImpl</text>
</a>
</g>
</g>
<!-- Node6&#45;&gt;Node7 -->
<g id="edge6" class="edge">
<title>Node6&#45;&gt;Node7</title>
<path fill="none" stroke="midnightblue" d="M161.7,-88.5C152.7,-88.5 143.89,-88.5 136.07,-88.5"/>
<polygon fill="midnightblue" stroke="midnightblue" points="161.9,-92 171.9,-88.5 161.9,-85 161.9,-92"/>
</g>
<!-- Node8 -->
<g id="node8" class="node">
<title>Node8</title>
<g id="a_node8"><a xlink:href="a00212.html#a3712cdeefe60fa2a92efa90cd6200b02" target="_top" xlink:title=" ">
<polygon fill="white" stroke="black" points="0,-79 0,-98 41,-98 41,-79 0,-79"/>
<text text-anchor="middle" x="20.5" y="-86" font-family="Helvetica,sans-Serif" font-size="10.00">Verify</text>
</a>
</g>
</g>
<!-- Node7&#45;&gt;Node8 -->
<g id="edge7" class="edge">
<title>Node7&#45;&gt;Node8</title>
<path fill="none" stroke="midnightblue" d="M66.48,-88.5C57.72,-88.5 48.78,-88.5 41.21,-88.5"/>
<polygon fill="midnightblue" stroke="midnightblue" points="66.59,-92 76.59,-88.5 66.59,-85 66.59,-92"/>
</g>
</g>
</svg>
