<?xml version="1.0" encoding="UTF-8" standalone="no"?>
<!DOCTYPE svg PUBLIC "-//W3C//DTD SVG 1.1//EN"
 "http://www.w3.org/Graphics/SVG/1.1/DTD/svg11.dtd">
<!-- Generated by graphviz version 2.50.0 (20211204.2007)
 -->
<!-- Title: Antares::ThreadPoolBase Pages: 1 -->
<svg width="373pt" height="435pt"
 viewBox="0.00 0.00 373.00 435.00" xmlns="http://www.w3.org/2000/svg" xmlns:xlink="http://www.w3.org/1999/xlink">
<g id="graph0" class="graph" transform="scale(1 1) rotate(0) translate(4 431)">
<title>Antares::ThreadPoolBase</title>
<polygon fill="white" stroke="transparent" points="-4,4 -4,-431 369,-431 369,4 -4,4"/>
<!-- Node1 -->
<g id="node1" class="node">
<title>Node1</title>
<g id="a_node1"><a xlink:title=" ">
<polygon fill="#bfbfbf" stroke="black" points="70,-0.5 70,-277.5 204,-277.5 204,-0.5 70,-0.5"/>
<text text-anchor="middle" x="137" y="-265.5" font-family="Helvetica,sans-Serif" font-size="10.00">Antares::ThreadPoolBase</text>
<polyline fill="none" stroke="black" points="70,-258.5 204,-258.5 "/>
<text text-anchor="middle" x="137" y="-246.5" font-family="Helvetica,sans-Serif" font-size="10.00"> </text>
<polyline fill="none" stroke="black" points="70,-239.5 204,-239.5 "/>
<text text-anchor="start" x="78" y="-227.5" font-family="Helvetica,sans-Serif" font-size="10.00">+ ThreadPoolBase()</text>
<text text-anchor="start" x="78" y="-216.5" font-family="Helvetica,sans-Serif" font-size="10.00">+ ~ThreadPoolBase()</text>
<text text-anchor="start" x="78" y="-205.5" font-family="Helvetica,sans-Serif" font-size="10.00">=default</text>
<text text-anchor="start" x="78" y="-194.5" font-family="Helvetica,sans-Serif" font-size="10.00">+ void wait_for_tasks()</text>
<text text-anchor="start" x="78" y="-183.5" font-family="Helvetica,sans-Serif" font-size="10.00">+ void pause()</text>
<text text-anchor="start" x="78" y="-172.5" font-family="Helvetica,sans-Serif" font-size="10.00">+ size_t get_tasks_total</text>
<text text-anchor="start" x="78" y="-161.5" font-family="Helvetica,sans-Serif" font-size="10.00">() const</text>
<text text-anchor="start" x="78" y="-150.5" font-family="Helvetica,sans-Serif" font-size="10.00">+ size_t get_tasks_queued</text>
<text text-anchor="start" x="78" y="-139.5" font-family="Helvetica,sans-Serif" font-size="10.00">() const</text>
<text text-anchor="start" x="78" y="-128.5" font-family="Helvetica,sans-Serif" font-size="10.00">+ size_t get_tasks_running</text>
<text text-anchor="start" x="78" y="-117.5" font-family="Helvetica,sans-Serif" font-size="10.00">() const</text>
<text text-anchor="start" x="78" y="-106.5" font-family="Helvetica,sans-Serif" font-size="10.00">+ bool is_paused() const</text>
<text text-anchor="start" x="78" y="-95.5" font-family="Helvetica,sans-Serif" font-size="10.00">+ void unpause()</text>
<text text-anchor="start" x="78" y="-84.5" font-family="Helvetica,sans-Serif" font-size="10.00">+ void setThreadIndex()</text>
<text text-anchor="start" x="78" y="-73.5" font-family="Helvetica,sans-Serif" font-size="10.00">+ static size_t &amp; getThread</text>
<text text-anchor="start" x="78" y="-62.5" font-family="Helvetica,sans-Serif" font-size="10.00">Index()</text>
<text text-anchor="start" x="78" y="-51.5" font-family="Helvetica,sans-Serif" font-size="10.00"># void worker()</text>
<text text-anchor="start" x="78" y="-40.5" font-family="Helvetica,sans-Serif" font-size="10.00"># static concurrency</text>
<text text-anchor="start" x="78" y="-29.5" font-family="Helvetica,sans-Serif" font-size="10.00">_t determine_thread</text>
<text text-anchor="start" x="78" y="-18.5" font-family="Helvetica,sans-Serif" font-size="10.00">_count(concurrency_t</text>
<text text-anchor="start" x="78" y="-7.5" font-family="Helvetica,sans-Serif" font-size="10.00"> thread_count_)</text>
</a>
</g>
</g>
<!-- Node2 -->
<g id="node2" class="node">
<title>Node2</title>
<g id="a_node2"><a xlink:title=" ">
<polygon fill="white" stroke="#bfbfbf" points="0,-369.5 0,-426.5 44,-426.5 44,-369.5 0,-369.5"/>
<text text-anchor="middle" x="22" y="-414.5" font-family="Helvetica,sans-Serif" font-size="10.00">mutex</text>
<polyline fill="none" stroke="#bfbfbf" points="0,-407.5 44,-407.5 "/>
<text text-anchor="middle" x="22" y="-395.5" font-family="Helvetica,sans-Serif" font-size="10.00"> </text>
<polyline fill="none" stroke="#bfbfbf" points="0,-388.5 44,-388.5 "/>
<text text-anchor="middle" x="22" y="-376.5" font-family="Helvetica,sans-Serif" font-size="10.00"> </text>
</a>
</g>
</g>
<!-- Node2&#45;&gt;Node1 -->
<g id="edge1" class="edge">
<title>Node2&#45;&gt;Node1</title>
<path fill="none" stroke="#404040" d="M24.83,-369.26C27.57,-348.54 32.73,-319.82 42,-296 48.12,-280.27 55.8,-264.34 64.13,-248.98"/>
<polygon fill="none" stroke="#404040" points="64.16,-248.92 63.58,-241.74 69.99,-238.44 70.57,-245.62 64.16,-248.92"/>
<text text-anchor="middle" x="69.5" y="-321" font-family="Helvetica,sans-Serif" font-size="10.00"> #tasks_mtx</text>
</g>
<!-- Node3 -->
<g id="node3" class="node">
<title>Node3</title>
<g id="a_node3"><a xlink:title=" ">
<polygon fill="white" stroke="#bfbfbf" points="68.5,-369.5 68.5,-426.5 117.5,-426.5 117.5,-369.5 68.5,-369.5"/>
<text text-anchor="middle" x="93" y="-414.5" font-family="Helvetica,sans-Serif" font-size="10.00">queue&lt;</text>
<polyline fill="none" stroke="#bfbfbf" points="68.5,-407.5 117.5,-407.5 "/>
<text text-anchor="middle" x="93" y="-395.5" font-family="Helvetica,sans-Serif" font-size="10.00"> </text>
<polyline fill="none" stroke="#bfbfbf" points="68.5,-388.5 117.5,-388.5 "/>
<text text-anchor="middle" x="93" y="-376.5" font-family="Helvetica,sans-Serif" font-size="10.00"> </text>
</a>
</g>
</g>
<!-- Node3&#45;&gt;Node1 -->
<g id="edge2" class="edge">
<title>Node3&#45;&gt;Node1</title>
<path fill="none" stroke="#404040" d="M97.71,-369.5C101.16,-349.35 106.14,-320.24 111.41,-289.49"/>
<polygon fill="none" stroke="#404040" points="111.41,-289.47 108.48,-282.88 113.44,-277.64 116.37,-284.23 111.41,-289.47"/>
<text text-anchor="middle" x="125.5" y="-321" font-family="Helvetica,sans-Serif" font-size="10.00"> #tasks</text>
</g>
<!-- Node4 -->
<g id="node4" class="node">
<title>Node4</title>
<g id="a_node4"><a xlink:title=" ">
<polygon fill="white" stroke="#bfbfbf" points="135.5,-369.5 135.5,-426.5 228.5,-426.5 228.5,-369.5 135.5,-369.5"/>
<text text-anchor="middle" x="182" y="-414.5" font-family="Helvetica,sans-Serif" font-size="10.00">condition_variable</text>
<polyline fill="none" stroke="#bfbfbf" points="135.5,-407.5 228.5,-407.5 "/>
<text text-anchor="middle" x="182" y="-395.5" font-family="Helvetica,sans-Serif" font-size="10.00"> </text>
<polyline fill="none" stroke="#bfbfbf" points="135.5,-388.5 228.5,-388.5 "/>
<text text-anchor="middle" x="182" y="-376.5" font-family="Helvetica,sans-Serif" font-size="10.00"> </text>
</a>
</g>
</g>
<!-- Node4&#45;&gt;Node1 -->
<g id="edge3" class="edge">
<title>Node4&#45;&gt;Node1</title>
<path fill="none" stroke="#404040" d="M177.18,-369.5C173.66,-349.35 168.56,-320.24 163.18,-289.49"/>
<polygon fill="none" stroke="#404040" points="163.17,-289.46 158.2,-284.24 161.1,-277.64 166.08,-282.86 163.17,-289.46"/>
<text text-anchor="middle" x="215" y="-326.5" font-family="Helvetica,sans-Serif" font-size="10.00"> #task_available_cv</text>
<text text-anchor="middle" x="215" y="-315.5" font-family="Helvetica,sans-Serif" font-size="10.00">#task_done_cv</text>
</g>
<!-- Node5 -->
<g id="node5" class="node">
<title>Node5</title>
<g id="a_node5"><a xlink:title=" ">
<polygon fill="white" stroke="#bfbfbf" points="255,-369.5 255,-426.5 307,-426.5 307,-369.5 255,-369.5"/>
<text text-anchor="middle" x="281" y="-414.5" font-family="Helvetica,sans-Serif" font-size="10.00">atomic&lt;</text>
<polyline fill="none" stroke="#bfbfbf" points="255,-407.5 307,-407.5 "/>
<text text-anchor="middle" x="281" y="-395.5" font-family="Helvetica,sans-Serif" font-size="10.00"> </text>
<polyline fill="none" stroke="#bfbfbf" points="255,-388.5 307,-388.5 "/>
<text text-anchor="middle" x="281" y="-376.5" font-family="Helvetica,sans-Serif" font-size="10.00"> </text>
</a>
</g>
</g>
<!-- Node5&#45;&gt;Node1 -->
<g id="edge4" class="edge">
<title>Node5&#45;&gt;Node1</title>
<path fill="none" stroke="#404040" d="M278.36,-369.35C275.57,-348.42 269.99,-319.39 259,-296 246.79,-269.99 229.55,-244.35 211.87,-221.59"/>
<polygon fill="none" stroke="#404040" points="211.73,-221.42 204.87,-219.21 204.27,-212.02 211.14,-214.24 211.73,-221.42"/>
<text text-anchor="middle" x="320" y="-343" font-family="Helvetica,sans-Serif" font-size="10.00"> #paused</text>
<text text-anchor="middle" x="320" y="-332" font-family="Helvetica,sans-Serif" font-size="10.00">#running</text>
<text text-anchor="middle" x="320" y="-321" font-family="Helvetica,sans-Serif" font-size="10.00">#tasks_total</text>
<text text-anchor="middle" x="320" y="-310" font-family="Helvetica,sans-Serif" font-size="10.00">#threadIndexCounter</text>
<text text-anchor="middle" x="320" y="-299" font-family="Helvetica,sans-Serif" font-size="10.00">#waiting</text>
</g>
</g>
</svg>
