<?xml version="1.0" encoding="UTF-8" standalone="no"?>
<!DOCTYPE svg PUBLIC "-//W3C//DTD SVG 1.1//EN"
 "http://www.w3.org/Graphics/SVG/1.1/DTD/svg11.dtd">
<!-- Generated by graphviz version 9.0.0 (0)
 -->
<!-- Title: LibLoader::MessageProxy Pages: 1 -->
<svg width="276pt" height="456pt"
 viewBox="0.00 0.00 275.50 456.00" xmlns="http://www.w3.org/2000/svg" xmlns:xlink="http://www.w3.org/1999/xlink">
<g id="graph0" class="graph" transform="scale(1 1) rotate(0) translate(4 452)">
<title>LibLoader::MessageProxy</title>
<!-- Node1 -->
<g id="Node000001" class="node">
<title>Node1</title>
<g id="a_Node000001"><a xlink:title=" ">
<polygon fill="#999999" stroke="none" points="204.5,-236 53.5,-236 53.5,0 204.5,0 204.5,-236"/>
<text text-anchor="start" x="72.38" y="-222.5" font-family="Helvetica,sans-Serif" font-size="10.00">LibLoader::MessageProxy</text>
<text text-anchor="start" x="127.5" y="-206.5" font-family="Helvetica,sans-Serif" font-size="10.00"> </text>
<text text-anchor="start" x="57.5" y="-190.5" font-family="Helvetica,sans-Serif" font-size="10.00">+</text>
<text text-anchor="start" x="67.5" y="-190.5" font-family="Helvetica,sans-Serif" font-size="10.00">MessageProxy()=delete</text>
<text text-anchor="start" x="57.5" y="-174.5" font-family="Helvetica,sans-Serif" font-size="10.00">+</text>
<text text-anchor="start" x="67.5" y="-174.5" font-family="Helvetica,sans-Serif" font-size="10.00">MessageProxy(const</text>
<text text-anchor="start" x="67.5" y="-162.5" font-family="Helvetica,sans-Serif" font-size="10.00"> MessageProxy &amp;)=delete</text>
<text text-anchor="start" x="57.5" y="-146.5" font-family="Helvetica,sans-Serif" font-size="10.00">+</text>
<text text-anchor="start" x="67.5" y="-146.5" font-family="Helvetica,sans-Serif" font-size="10.00">MessageProxy(MessageProxy</text>
<text text-anchor="start" x="67.5" y="-134.5" font-family="Helvetica,sans-Serif" font-size="10.00"> &amp;&amp;)=default</text>
<text text-anchor="start" x="57.5" y="-118.5" font-family="Helvetica,sans-Serif" font-size="10.00">+</text>
<text text-anchor="start" x="67.5" y="-118.5" font-family="Helvetica,sans-Serif" font-size="10.00">MessageProxy(MiraiCP</text>
<text text-anchor="start" x="67.5" y="-106.5" font-family="Helvetica,sans-Serif" font-size="10.00">::PluginInterface::PayLoadInfo</text>
<text text-anchor="start" x="67.5" y="-94.5" font-family="Helvetica,sans-Serif" font-size="10.00"> payload, std::shared_ptr&lt;</text>
<text text-anchor="start" x="67.5" y="-82.5" font-family="Helvetica,sans-Serif" font-size="10.00"> const Plugin &gt; plugin)</text>
<text text-anchor="start" x="57.5" y="-66.5" font-family="Helvetica,sans-Serif" font-size="10.00">+</text>
<text text-anchor="start" x="67.5" y="-66.5" font-family="Helvetica,sans-Serif" font-size="10.00">~MessageProxy()</text>
<text text-anchor="start" x="57.5" y="-50.5" font-family="Helvetica,sans-Serif" font-size="10.00">+</text>
<text text-anchor="start" x="67.5" y="-50.5" font-family="Helvetica,sans-Serif" font-size="10.00">auto getPayload() const</text>
<text text-anchor="start" x="57.5" y="-34.5" font-family="Helvetica,sans-Serif" font-size="10.00">+</text>
<text text-anchor="start" x="67.5" y="-34.5" font-family="Helvetica,sans-Serif" font-size="10.00">std::shared_ptr&lt; const</text>
<text text-anchor="start" x="67.5" y="-22.5" font-family="Helvetica,sans-Serif" font-size="10.00"> Plugin &gt; getPlugin() const</text>
<text text-anchor="start" x="57.5" y="-6.5" font-family="Helvetica,sans-Serif" font-size="10.00">+</text>
<text text-anchor="start" x="67.5" y="-6.5" font-family="Helvetica,sans-Serif" font-size="10.00">operator bool() const</text>
<polygon fill="#666666" stroke="#666666" points="53.5,-218 53.5,-218 204.5,-218 204.5,-218 53.5,-218"/>
<polygon fill="#666666" stroke="#666666" points="53.5,-202 53.5,-202 204.5,-202 204.5,-202 53.5,-202"/>
<polygon fill="none" stroke="#666666" points="53.5,0 53.5,-236 204.5,-236 204.5,0 53.5,0"/>
</a>
</g>
</g>
<!-- Node2 -->
<g id="Node000002" class="node">
<title>Node2</title>
<g id="a_Node000002"><a xlink:href="a00768.html" target="_top" xlink:title=" ">
<polygon fill="white" stroke="none" points="116,-348 0,-348 0,-284 116,-284 116,-348"/>
<text text-anchor="start" x="4.75" y="-334.5" font-family="Helvetica,sans-Serif" font-size="10.00">MiraiCP::PluginInterface</text>
<text text-anchor="start" x="27.62" y="-322.5" font-family="Helvetica,sans-Serif" font-size="10.00">::PayLoadInfo</text>
<text text-anchor="start" x="56.5" y="-306.5" font-family="Helvetica,sans-Serif" font-size="10.00"> </text>
<text text-anchor="start" x="56.5" y="-290.5" font-family="Helvetica,sans-Serif" font-size="10.00"> </text>
<polygon fill="#666666" stroke="#666666" points="0,-318 0,-318 116,-318 116,-318 0,-318"/>
<polygon fill="#666666" stroke="#666666" points="0,-302 0,-302 116,-302 116,-302 0,-302"/>
<polygon fill="none" stroke="#666666" points="0,-284 0,-348 116,-348 116,-284 0,-284"/>
</a>
</g>
</g>
<!-- Node2&#45;&gt;Node1 -->
<g id="edge1_Node000001_Node000002" class="edge">
<title>Node2&#45;&gt;Node1</title>
<g id="a_edge1_Node000001_Node000002"><a xlink:title=" ">
<path fill="none" stroke="#63b8ff" d="M69.09,-284.38C72.92,-273.8 77.49,-261.19 82.37,-247.73"/>
<polygon fill="none" stroke="#63b8ff" points="82.33,-247.83 80.61,-240.83 86.42,-236.55 88.14,-243.55 82.33,-247.83"/>
</a>
</g>
<text text-anchor="middle" x="98.88" y="-256.5" font-family="Helvetica,sans-Serif" font-size="10.00" fill="grey"> &#45;payload</text>
</g>
<!-- Node3 -->
<g id="Node000003" class="node">
<title>Node3</title>
<g id="a_Node000003"><a xlink:title=" ">
<polygon fill="white" stroke="none" points="42,-448 8,-448 8,-396 42,-396 42,-448"/>
<text text-anchor="start" x="12.62" y="-434.5" font-family="Helvetica,sans-Serif" font-size="10.00">void *</text>
<text text-anchor="start" x="23.5" y="-418.5" font-family="Helvetica,sans-Serif" font-size="10.00"> </text>
<text text-anchor="start" x="23.5" y="-402.5" font-family="Helvetica,sans-Serif" font-size="10.00"> </text>
<polygon fill="#666666" stroke="#666666" points="8,-430 8,-430 42,-430 42,-430 8,-430"/>
<polygon fill="#666666" stroke="#666666" points="8,-414 8,-414 42,-414 42,-414 8,-414"/>
<polygon fill="none" stroke="#666666" points="8,-396 8,-448 42,-448 42,-396 8,-396"/>
</a>
</g>
</g>
<!-- Node3&#45;&gt;Node2 -->
<g id="edge2_Node000002_Node000003" class="edge">
<title>Node3&#45;&gt;Node2</title>
<g id="a_edge2_Node000002_Node000003"><a xlink:title=" ">
<path fill="none" stroke="#63b8ff" d="M22.71,-396.17C22.56,-386.56 23.3,-375.58 26.25,-366 26.94,-363.77 27.76,-361.55 28.68,-359.35"/>
<polygon fill="none" stroke="#63b8ff" points="28.65,-359.41 27.76,-352.25 34.03,-348.69 34.91,-355.84 28.65,-359.41"/>
</a>
</g>
<text text-anchor="middle" x="48.38" y="-368.5" font-family="Helvetica,sans-Serif" font-size="10.00" fill="grey"> +payload</text>
</g>
<!-- Node4 -->
<g id="Node000004" class="node">
<title>Node4</title>
<g id="a_Node000004"><a xlink:title=" ">
<polygon fill="white" stroke="none" points="101,-448 81,-448 81,-396 101,-396 101,-448"/>
<text text-anchor="start" x="85.75" y="-434.5" font-family="Helvetica,sans-Serif" font-size="10.00">int</text>
<text text-anchor="start" x="89.5" y="-418.5" font-family="Helvetica,sans-Serif" font-size="10.00"> </text>
<text text-anchor="start" x="89.5" y="-402.5" font-family="Helvetica,sans-Serif" font-size="10.00"> </text>
<polygon fill="#666666" stroke="#666666" points="81,-430 81,-430 101,-430 101,-430 81,-430"/>
<polygon fill="#666666" stroke="#666666" points="81,-414 81,-414 101,-414 101,-414 81,-414"/>
<polygon fill="none" stroke="#666666" points="81,-396 81,-448 101,-448 101,-396 81,-396"/>
</a>
</g>
</g>
<!-- Node4&#45;&gt;Node2 -->
<g id="edge3_Node000002_Node000004" class="edge">
<title>Node4&#45;&gt;Node2</title>
<g id="a_edge3_Node000002_Node000004"><a xlink:title=" ">
<path fill="none" stroke="#63b8ff" d="M83.1,-396.09C79.67,-385.3 75.56,-372.34 71.67,-360.07"/>
<polygon fill="none" stroke="#63b8ff" points="71.63,-359.95 66,-355.44 68,-348.51 73.63,-353.02 71.63,-359.95"/>
</a>
</g>
<text text-anchor="middle" x="104.75" y="-368.5" font-family="Helvetica,sans-Serif" font-size="10.00" fill="grey"> +payload_id</text>
</g>
<!-- Node5 -->
<g id="Node000005" class="node">
<title>Node5</title>
<g id="a_Node000005"><a xlink:title=" ">
<polygon fill="white" stroke="none" points="267.5,-348 134.5,-348 134.5,-284 267.5,-284 267.5,-348"/>
<text text-anchor="start" x="139.12" y="-334.5" font-family="Helvetica,sans-Serif" font-size="10.00">shared_ptr&lt; const LibLoader</text>
<text text-anchor="start" x="180" y="-322.5" font-family="Helvetica,sans-Serif" font-size="10.00">::Plugin &gt;</text>
<text text-anchor="start" x="199.5" y="-306.5" font-family="Helvetica,sans-Serif" font-size="10.00"> </text>
<text text-anchor="start" x="199.5" y="-290.5" font-family="Helvetica,sans-Serif" font-size="10.00"> </text>
<polygon fill="#666666" stroke="#666666" points="134.5,-318 134.5,-318 267.5,-318 267.5,-318 134.5,-318"/>
<polygon fill="#666666" stroke="#666666" points="134.5,-302 134.5,-302 267.5,-302 267.5,-302 134.5,-302"/>
<polygon fill="none" stroke="#666666" points="134.5,-284 134.5,-348 267.5,-348 267.5,-284 134.5,-284"/>
</a>
</g>
</g>
<!-- Node5&#45;&gt;Node1 -->
<g id="edge4_Node000001_Node000005" class="edge">
<title>Node5&#45;&gt;Node1</title>
<g id="a_edge4_Node000001_Node000005"><a xlink:title=" ">
<path fill="none" stroke="#63b8ff" d="M189.75,-284.38C185.87,-273.8 181.23,-261.19 176.29,-247.73"/>
<polygon fill="none" stroke="#63b8ff" points="176.32,-247.81 170.5,-243.56 172.18,-236.55 178,-240.8 176.32,-247.81"/>
</a>
</g>
<text text-anchor="middle" x="196.75" y="-256.5" font-family="Helvetica,sans-Serif" font-size="10.00" fill="grey"> &#45;plugin</text>
</g>
</g>
</svg>
