<?xml version="1.0" encoding="UTF-8" standalone="no"?>
<!DOCTYPE svg PUBLIC "-//W3C//DTD SVG 1.1//EN"
 "http://www.w3.org/Graphics/SVG/1.1/DTD/svg11.dtd">
<!-- Generated by graphviz version 2.50.0 (20211204.2007)
 -->
<!-- Title: MiraiCP::Tools::idpair Pages: 1 -->
<svg width="129pt" height="193pt"
 viewBox="0.00 0.00 129.00 193.00" xmlns="http://www.w3.org/2000/svg" xmlns:xlink="http://www.w3.org/1999/xlink">
<g id="graph0" class="graph" transform="scale(1 1) rotate(0) translate(4 189)">
<title>MiraiCP::Tools::idpair</title>
<polygon fill="white" stroke="transparent" points="-4,4 -4,-189 125,-189 125,4 -4,4"/>
<!-- Node1 -->
<g id="node1" class="node">
<title>Node1</title>
<g id="a_node1"><a xlink:title="id pair工具结构体声明，仅内部使用">
<polygon fill="#bfbfbf" stroke="black" points="0,-0.5 0,-68.5 121,-68.5 121,-0.5 0,-0.5"/>
<text text-anchor="middle" x="60.5" y="-56.5" font-family="Helvetica,sans-Serif" font-size="10.00">MiraiCP::Tools::idpair</text>
<polyline fill="none" stroke="black" points="0,-49.5 121,-49.5 "/>
<text text-anchor="middle" x="60.5" y="-37.5" font-family="Helvetica,sans-Serif" font-size="10.00"> </text>
<polyline fill="none" stroke="black" points="0,-30.5 121,-30.5 "/>
<text text-anchor="start" x="8" y="-18.5" font-family="Helvetica,sans-Serif" font-size="10.00">+ bool operator==(const</text>
<text text-anchor="start" x="8" y="-7.5" font-family="Helvetica,sans-Serif" font-size="10.00"> idpair &amp;other) const</text>
</a>
</g>
</g>
<!-- Node2 -->
<g id="node2" class="node">
<title>Node2</title>
<g id="a_node2"><a xlink:title=" ">
<polygon fill="white" stroke="#bfbfbf" points="43,-127.5 43,-184.5 78,-184.5 78,-127.5 43,-127.5"/>
<text text-anchor="middle" x="60.5" y="-172.5" font-family="Helvetica,sans-Serif" font-size="10.00">long</text>
<polyline fill="none" stroke="#bfbfbf" points="43,-165.5 78,-165.5 "/>
<text text-anchor="middle" x="60.5" y="-153.5" font-family="Helvetica,sans-Serif" font-size="10.00"> </text>
<polyline fill="none" stroke="#bfbfbf" points="43,-146.5 78,-146.5 "/>
<text text-anchor="middle" x="60.5" y="-134.5" font-family="Helvetica,sans-Serif" font-size="10.00"> </text>
</a>
</g>
</g>
<!-- Node2&#45;&gt;Node1 -->
<g id="edge1" class="edge">
<title>Node2&#45;&gt;Node1</title>
<path fill="none" stroke="#404040" d="M60.5,-127.28C60.5,-113.47 60.5,-96.4 60.5,-80.75"/>
<polygon fill="none" stroke="#404040" points="60.5,-80.59 56.5,-74.59 60.5,-68.59 64.5,-74.59 60.5,-80.59"/>
<text text-anchor="middle" x="71.5" y="-101" font-family="Helvetica,sans-Serif" font-size="10.00"> +id1</text>
<text text-anchor="middle" x="71.5" y="-90" font-family="Helvetica,sans-Serif" font-size="10.00">+id2</text>
</g>
</g>
</svg>
