<?xml version="1.0" encoding="UTF-8" standalone="no"?>
<!DOCTYPE svg PUBLIC "-//W3C//DTD SVG 1.1//EN"
 "http://www.w3.org/Graphics/SVG/1.1/DTD/svg11.dtd">
<!-- Generated by graphviz version 9.0.0 (0)
 -->
<!-- Title: LibLoader::LoaderBaseException::raise Pages: 1 -->
<svg width="1982pt" height="280pt"
 viewBox="0.00 0.00 1982.00 280.00" xmlns="http://www.w3.org/2000/svg" xmlns:xlink="http://www.w3.org/1999/xlink">
<g id="graph0" class="graph" transform="scale(1 1) rotate(0) translate(4 276)">
<title>LibLoader::LoaderBaseException::raise</title>
<!-- Node1 -->
<g id="Node000001" class="node">
<title>Node1</title>
<g id="a_Node000001"><a xlink:title=" ">
<polygon fill="#999999" stroke="#666666" points="1974,-118 1814.75,-118 1814.75,-86 1974,-86 1974,-118"/>
<text text-anchor="start" x="1822.75" y="-104.5" font-family="Helvetica,sans-Serif" font-size="10.00">LibLoader::LoaderBaseException</text>
<text text-anchor="middle" x="1894.38" y="-92.5" font-family="Helvetica,sans-Serif" font-size="10.00">::raise</text>
</a>
</g>
</g>
<!-- Node2 -->
<g id="Node000002" class="node">
<title>Node2</title>
<g id="a_Node000002"><a xlink:href="a00916.html#a6db0416218955157f2c4091fc29aa17e" target="_top" xlink:title=" ">
<polygon fill="white" stroke="#666666" points="1770.12,-168 1673.12,-168 1673.12,-136 1770.12,-136 1770.12,-168"/>
<text text-anchor="start" x="1681.12" y="-154.5" font-family="Helvetica,sans-Serif" font-size="10.00">LibLoader::Plugin::</text>
<text text-anchor="middle" x="1721.62" y="-142.5" font-family="Helvetica,sans-Serif" font-size="10.00">loadsAll</text>
</a>
</g>
</g>
<!-- Node1&#45;&gt;Node2 -->
<g id="edge1_Node000001_Node000002" class="edge">
<title>Node1&#45;&gt;Node2</title>
<g id="a_edge1_Node000001_Node000002"><a xlink:title=" ">
<path fill="none" stroke="#63b8ff" d="M1826.59,-121.56C1807.81,-127.06 1787.78,-132.92 1770.36,-138.02"/>
<polygon fill="#63b8ff" stroke="#63b8ff" points="1827.4,-124.97 1836.01,-118.8 1825.43,-118.25 1827.4,-124.97"/>
</a>
</g>
</g>
<!-- Node3 -->
<g id="Node000003" class="node">
<title>Node3</title>
<g id="a_Node000003"><a xlink:href="a00432.html#a60264799b74fbe2b0466d1de609cf95b" target="_top" xlink:title="libLoader线程tick调用，弹出所有计时器">
<polygon fill="white" stroke="#666666" points="1775.38,-68 1667.88,-68 1667.88,-36 1775.38,-36 1775.38,-68"/>
<text text-anchor="start" x="1675.88" y="-54.5" font-family="Helvetica,sans-Serif" font-size="10.00">LibLoader::Scheduler</text>
<text text-anchor="middle" x="1721.62" y="-42.5" font-family="Helvetica,sans-Serif" font-size="10.00">::popSchedule</text>
</a>
</g>
</g>
<!-- Node1&#45;&gt;Node3 -->
<g id="edge2_Node000001_Node000003" class="edge">
<title>Node1&#45;&gt;Node3</title>
<g id="a_edge2_Node000001_Node000003"><a xlink:title=" ">
<path fill="none" stroke="#63b8ff" d="M1826.56,-82.44C1809.71,-77.5 1791.84,-72.27 1775.76,-67.56"/>
<polygon fill="#63b8ff" stroke="#63b8ff" points="1825.43,-85.75 1836.01,-85.2 1827.4,-79.03 1825.43,-85.75"/>
</a>
</g>
</g>
<!-- Node29 -->
<g id="Node000029" class="node">
<title>Node29</title>
<g id="a_Node000029"><a xlink:href="a00880.html#adb67a1dbb48fb151a7f581fcd2afa2e5" target="_top" xlink:title=" ">
<polygon fill="white" stroke="#666666" points="1778.75,-118 1664.5,-118 1664.5,-86 1778.75,-86 1778.75,-118"/>
<text text-anchor="start" x="1672.5" y="-104.5" font-family="Helvetica,sans-Serif" font-size="10.00">LibLoader::LoaderMain</text>
<text text-anchor="middle" x="1721.62" y="-92.5" font-family="Helvetica,sans-Serif" font-size="10.00">::process_task_queue</text>
</a>
</g>
</g>
<!-- Node1&#45;&gt;Node29 -->
<g id="edge32_Node000001_Node000029" class="edge">
<title>Node1&#45;&gt;Node29</title>
<g id="a_edge32_Node000001_Node000029"><a xlink:title=" ">
<path fill="none" stroke="#63b8ff" d="M1803.17,-102C1794.87,-102 1786.63,-102 1778.77,-102"/>
<polygon fill="#63b8ff" stroke="#63b8ff" points="1802.98,-105.5 1812.98,-102 1802.98,-98.5 1802.98,-105.5"/>
</a>
</g>
</g>
<!-- Node4 -->
<g id="Node000004" class="node">
<title>Node4</title>
<g id="a_Node000004"><a xlink:href="a00880.html#aa2dac3324ec614040340dcb2a5c76110" target="_top" xlink:title=" ">
<polygon fill="white" stroke="#666666" points="1628.5,-93 1514.25,-93 1514.25,-61 1628.5,-61 1628.5,-93"/>
<text text-anchor="start" x="1522.25" y="-79.5" font-family="Helvetica,sans-Serif" font-size="10.00">LibLoader::LoaderMain</text>
<text text-anchor="middle" x="1571.38" y="-67.5" font-family="Helvetica,sans-Serif" font-size="10.00">::tick</text>
</a>
</g>
</g>
<!-- Node3&#45;&gt;Node4 -->
<g id="edge3_Node000003_Node000004" class="edge">
<title>Node3&#45;&gt;Node4</title>
<g id="a_edge3_Node000003_Node000004"><a xlink:title=" ">
<path fill="none" stroke="#63b8ff" d="M1656.46,-62.82C1647.28,-64.37 1637.89,-65.95 1628.87,-67.47"/>
<polygon fill="#63b8ff" stroke="#63b8ff" points="1656.75,-66.32 1666.03,-61.21 1655.59,-59.42 1656.75,-66.32"/>
</a>
</g>
</g>
<!-- Node5 -->
<g id="Node000005" class="node">
<title>Node5</title>
<g id="a_Node000005"><a xlink:href="a00880.html#a9ca8ba2c9fcbfade9adf4a0a2bb47eaa" target="_top" xlink:title=" ">
<polygon fill="white" stroke="#666666" points="1478.25,-93 1364,-93 1364,-61 1478.25,-61 1478.25,-93"/>
<text text-anchor="start" x="1372" y="-79.5" font-family="Helvetica,sans-Serif" font-size="10.00">LibLoader::LoaderMain</text>
<text text-anchor="middle" x="1421.12" y="-67.5" font-family="Helvetica,sans-Serif" font-size="10.00">::mainloop</text>
</a>
</g>
</g>
<!-- Node4&#45;&gt;Node5 -->
<g id="edge4_Node000004_Node000005" class="edge">
<title>Node4&#45;&gt;Node5</title>
<g id="a_edge4_Node000004_Node000005"><a xlink:title=" ">
<path fill="none" stroke="#63b8ff" d="M1502.59,-77C1494.51,-77 1486.33,-77 1478.44,-77"/>
<polygon fill="#63b8ff" stroke="#63b8ff" points="1502.39,-80.5 1512.39,-77 1502.39,-73.5 1502.39,-80.5"/>
</a>
</g>
</g>
<!-- Node6 -->
<g id="Node000006" class="node">
<title>Node6</title>
<g id="a_Node000006"><a xlink:href="a00880.html#a79cbc18aabed7afe2c7ea30f989ffc8c" target="_top" xlink:title="LoaderMain实现开始">
<polygon fill="white" stroke="#666666" points="1328,-71 1213.75,-71 1213.75,-39 1328,-39 1328,-71"/>
<text text-anchor="start" x="1221.75" y="-57.5" font-family="Helvetica,sans-Serif" font-size="10.00">LibLoader::LoaderMain</text>
<text text-anchor="middle" x="1270.88" y="-45.5" font-family="Helvetica,sans-Serif" font-size="10.00">::loaderMain</text>
</a>
</g>
</g>
<!-- Node5&#45;&gt;Node6 -->
<g id="edge5_Node000005_Node000006" class="edge">
<title>Node5&#45;&gt;Node6</title>
<g id="a_edge5_Node000005_Node000006"><a xlink:title=" ">
<path fill="none" stroke="#63b8ff" d="M1352.34,-66.94C1344.26,-65.74 1336.08,-64.53 1328.19,-63.36"/>
<polygon fill="#63b8ff" stroke="#63b8ff" points="1351.75,-70.39 1362.16,-68.4 1352.78,-63.47 1351.75,-70.39"/>
</a>
</g>
</g>
<!-- Node7 -->
<g id="Node000007" class="node">
<title>Node7</title>
<g id="a_Node000007"><a xlink:href="a00880.html#a22eacbd6aa585f32d0fccce0a69ab642" target="_top" xlink:title=" ">
<polygon fill="white" stroke="#666666" points="1177.75,-87 1044,-87 1044,-67 1177.75,-67 1177.75,-87"/>
<text text-anchor="middle" x="1110.88" y="-73.5" font-family="Helvetica,sans-Serif" font-size="10.00">LibLoader::LoaderMain::get</text>
</a>
</g>
</g>
<!-- Node6&#45;&gt;Node7 -->
<g id="edge6_Node000006_Node000007" class="edge">
<title>Node6&#45;&gt;Node7</title>
<g id="a_edge6_Node000006_Node000007"><a xlink:title=" ">
<path fill="none" stroke="#63b8ff" d="M1202.13,-64.43C1194.14,-65.55 1186,-66.68 1178.04,-67.79"/>
<polygon fill="#63b8ff" stroke="#63b8ff" points="1202.36,-67.93 1211.78,-63.09 1201.39,-61 1202.36,-67.93"/>
</a>
</g>
</g>
<!-- Node27 -->
<g id="Node000027" class="node">
<title>Node27</title>
<g id="a_Node000027"><a xlink:href="a00314.html#aafbc26593c69471626589f38c751ef09" target="_top" xlink:title=" ">
<polygon fill="white" stroke="#666666" points="973.12,-49 913.62,-49 913.62,-29 973.12,-29 973.12,-49"/>
<text text-anchor="middle" x="943.38" y="-35.5" font-family="Helvetica,sans-Serif" font-size="10.00">VerifyImpl</text>
</a>
</g>
</g>
<!-- Node6&#45;&gt;Node27 -->
<g id="edge31_Node000006_Node000027" class="edge">
<title>Node6&#45;&gt;Node27</title>
<g id="a_edge31_Node000006_Node000027"><a xlink:title=" ">
<path fill="none" stroke="#63b8ff" d="M1202.12,-51.67C1131.57,-48.2 1024.36,-42.93 973.33,-40.42"/>
<polygon fill="#63b8ff" stroke="#63b8ff" points="1201.88,-55.16 1212.04,-52.16 1202.22,-48.17 1201.88,-55.16"/>
</a>
</g>
</g>
<!-- Node8 -->
<g id="Node000008" class="node">
<title>Node8</title>
<g id="a_Node000008"><a xlink:href="a00425.html#a46f4ab12479d61956e7dc81cfb19fef5" target="_top" xlink:title=" ">
<polygon fill="white" stroke="#666666" points="1008,-125 878.75,-125 878.75,-105 1008,-105 1008,-125"/>
<text text-anchor="middle" x="943.38" y="-111.5" font-family="Helvetica,sans-Serif" font-size="10.00">LibLoader::loaderWakeCV</text>
</a>
</g>
</g>
<!-- Node7&#45;&gt;Node8 -->
<g id="edge7_Node000007_Node000008" class="edge">
<title>Node7&#45;&gt;Node8</title>
<g id="a_edge7_Node000007_Node000008"><a xlink:title=" ">
<path fill="none" stroke="#63b8ff" d="M1053.04,-90.05C1032.42,-94.78 1009.41,-100.07 989.89,-104.55"/>
<polygon fill="#63b8ff" stroke="#63b8ff" points="1053.78,-93.47 1062.74,-87.82 1052.21,-86.65 1053.78,-93.47"/>
</a>
</g>
</g>
<!-- Node15 -->
<g id="Node000015" class="node">
<title>Node15</title>
<g id="a_Node000015"><a xlink:href="a00314.html#a2e0217581c8df7fd1fc867cc3a8317d3" target="_top" xlink:title=" ">
<polygon fill="white" stroke="#666666" points="831.88,-87 737.12,-87 737.12,-67 831.88,-67 831.88,-87"/>
<text text-anchor="middle" x="784.5" y="-73.5" font-family="Helvetica,sans-Serif" font-size="10.00">PluginDisableImpl</text>
</a>
</g>
</g>
<!-- Node7&#45;&gt;Node15 -->
<g id="edge28_Node000007_Node000015" class="edge">
<title>Node7&#45;&gt;Node15</title>
<g id="a_edge28_Node000007_Node000015"><a xlink:title=" ">
<path fill="none" stroke="#63b8ff" d="M1032.47,-77C970.06,-77 884.35,-77 832.05,-77"/>
<polygon fill="#63b8ff" stroke="#63b8ff" points="1032.33,-80.5 1042.33,-77 1032.33,-73.5 1032.33,-80.5"/>
</a>
</g>
</g>
<!-- Node7&#45;&gt;Node27 -->
<g id="edge29_Node000007_Node000027" class="edge">
<title>Node7&#45;&gt;Node27</title>
<g id="a_edge29_Node000007_Node000027"><a xlink:title=" ">
<path fill="none" stroke="#63b8ff" d="M1053.34,-64.02C1026.39,-57.83 995.29,-50.69 973.24,-45.63"/>
<polygon fill="#63b8ff" stroke="#63b8ff" points="1052.21,-67.35 1062.74,-66.18 1053.78,-60.53 1052.21,-67.35"/>
</a>
</g>
</g>
<!-- Node8&#45;&gt;Node5 -->
<g id="edge8_Node000008_Node000005" class="edge">
<title>Node8&#45;&gt;Node5</title>
<g id="a_edge8_Node000008_Node000005"><a xlink:title=" ">
<path fill="none" stroke="#63b8ff" d="M1019.63,-108.99C1115.23,-101.35 1278.06,-88.35 1363.68,-81.51"/>
<polygon fill="#63b8ff" stroke="#63b8ff" points="1019.51,-105.49 1009.82,-109.77 1020.07,-112.47 1019.51,-105.49"/>
</a>
</g>
</g>
<!-- Node9 -->
<g id="Node000009" class="node">
<title>Node9</title>
<g id="a_Node000009"><a xlink:href="a00281.html#a36a04ab86ecc081ee51d32866ef7a332" target="_top" xlink:title=" ">
<polygon fill="white" stroke="#666666" points="834.88,-225 734.12,-225 734.12,-193 834.88,-193 834.88,-225"/>
<text text-anchor="start" x="742.12" y="-211.5" font-family="Helvetica,sans-Serif" font-size="10.00">plugin_raw_API_try</text>
<text text-anchor="middle" x="784.5" y="-199.5" font-family="Helvetica,sans-Serif" font-size="10.00">_wake_loader</text>
</a>
</g>
</g>
<!-- Node8&#45;&gt;Node9 -->
<g id="edge9_Node000008_Node000009" class="edge">
<title>Node8&#45;&gt;Node9</title>
<g id="a_edge9_Node000008_Node000009"><a xlink:title=" ">
<path fill="none" stroke="#63b8ff" d="M920.01,-132.37C900.34,-147.18 870.57,-168.48 842.75,-184 837.35,-187.01 831.52,-189.92 825.71,-192.62"/>
<polygon fill="#63b8ff" stroke="#63b8ff" points="922.02,-135.24 927.86,-126.39 917.78,-129.67 922.02,-135.24"/>
</a>
</g>
</g>
<!-- Node8&#45;&gt;Node15 -->
<g id="edge15_Node000008_Node000015" class="edge">
<title>Node8&#45;&gt;Node15</title>
<g id="a_edge15_Node000008_Node000015"><a xlink:title=" ">
<path fill="none" stroke="#63b8ff" d="M887.96,-101.82C868.55,-97.12 846.97,-91.89 828.64,-87.45"/>
<polygon fill="#63b8ff" stroke="#63b8ff" points="887.08,-105.21 897.62,-104.16 888.73,-98.4 887.08,-105.21"/>
</a>
</g>
</g>
<!-- Node17 -->
<g id="Node000017" class="node">
<title>Node17</title>
<g id="a_Node000017"><a xlink:href="a00432.html#a746efd674de5c56de789a0c03be7948e" target="_top" xlink:title="新增一个计时器，对接libLoader API">
<polygon fill="white" stroke="#666666" points="838.25,-175 730.75,-175 730.75,-143 838.25,-143 838.25,-175"/>
<text text-anchor="start" x="738.75" y="-161.5" font-family="Helvetica,sans-Serif" font-size="10.00">LibLoader::Scheduler</text>
<text text-anchor="middle" x="784.5" y="-149.5" font-family="Helvetica,sans-Serif" font-size="10.00">::timer</text>
</a>
</g>
</g>
<!-- Node8&#45;&gt;Node17 -->
<g id="edge17_Node000008_Node000017" class="edge">
<title>Node8&#45;&gt;Node17</title>
<g id="a_edge17_Node000008_Node000017"><a xlink:title=" ">
<path fill="none" stroke="#63b8ff" d="M894.57,-128.41C876.93,-133.36 856.83,-138.99 838.74,-144.07"/>
<polygon fill="#63b8ff" stroke="#63b8ff" points="895.06,-131.91 903.74,-125.84 893.17,-125.17 895.06,-131.91"/>
</a>
</g>
</g>
<!-- Node24 -->
<g id="Node000024" class="node">
<title>Node24</title>
<g id="a_Node000024"><a xlink:href="a00425.html#a4bd4ee75c4f2ea14034626c7cbf73bb4" target="_top" xlink:title=" ">
<polygon fill="white" stroke="#666666" points="842.75,-125 726.25,-125 726.25,-105 842.75,-105 842.75,-125"/>
<text text-anchor="middle" x="784.5" y="-111.5" font-family="Helvetica,sans-Serif" font-size="10.00">LibLoader::wakeLoader</text>
</a>
</g>
</g>
<!-- Node8&#45;&gt;Node24 -->
<g id="edge25_Node000008_Node000024" class="edge">
<title>Node8&#45;&gt;Node24</title>
<g id="a_edge25_Node000008_Node000024"><a xlink:title=" ">
<path fill="none" stroke="#63b8ff" d="M867.22,-115C859.14,-115 851.02,-115 843.19,-115"/>
<polygon fill="#63b8ff" stroke="#63b8ff" points="867.05,-118.5 877.05,-115 867.05,-111.5 867.05,-118.5"/>
</a>
</g>
</g>
<!-- Node10 -->
<g id="Node000010" class="node">
<title>Node10</title>
<g id="a_Node000010"><a xlink:href="a00916.html#a14895bee64bb1c12e16b97d038b699b7" target="_top" xlink:title="这部分是一些工具函数、对象">
<polygon fill="white" stroke="#666666" points="661,-225 564,-225 564,-193 661,-193 661,-225"/>
<text text-anchor="start" x="572" y="-211.5" font-family="Helvetica,sans-Serif" font-size="10.00">LibLoader::Plugin::</text>
<text text-anchor="middle" x="612.5" y="-199.5" font-family="Helvetica,sans-Serif" font-size="10.00">callEntrance</text>
</a>
</g>
</g>
<!-- Node9&#45;&gt;Node10 -->
<g id="edge10_Node000009_Node000010" class="edge">
<title>Node9&#45;&gt;Node10</title>
<g id="a_edge10_Node000009_Node000010"><a xlink:title=" ">
<path fill="none" stroke="#63b8ff" d="M722.62,-209C702.51,-209 680.43,-209 661.43,-209"/>
<polygon fill="#63b8ff" stroke="#63b8ff" points="722.36,-212.5 732.36,-209 722.36,-205.5 722.36,-212.5"/>
</a>
</g>
</g>
<!-- Node11 -->
<g id="Node000011" class="node">
<title>Node11</title>
<g id="a_Node000011"><a xlink:href="a00916.html#a450c1c6820ab6c5417691359d88d8220" target="_top" xlink:title=" ">
<polygon fill="white" stroke="#666666" points="478.5,-225 381.5,-225 381.5,-193 478.5,-193 478.5,-225"/>
<text text-anchor="start" x="389.5" y="-211.5" font-family="Helvetica,sans-Serif" font-size="10.00">LibLoader::Plugin::</text>
<text text-anchor="middle" x="430" y="-199.5" font-family="Helvetica,sans-Serif" font-size="10.00">enableInternal</text>
</a>
</g>
</g>
<!-- Node10&#45;&gt;Node11 -->
<g id="edge11_Node000010_Node000011" class="edge">
<title>Node10&#45;&gt;Node11</title>
<g id="a_edge11_Node000010_Node000011"><a xlink:title=" ">
<path fill="none" stroke="#63b8ff" d="M552.21,-209C528.4,-209 501.32,-209 478.81,-209"/>
<polygon fill="#63b8ff" stroke="#63b8ff" points="552.09,-212.5 562.09,-209 552.09,-205.5 552.09,-212.5"/>
</a>
</g>
</g>
<!-- Node12 -->
<g id="Node000012" class="node">
<title>Node12</title>
<g id="a_Node000012"><a xlink:href="a00916.html#a549e3729f8aeb27208ef5aecb434eef1" target="_top" xlink:title=" ">
<polygon fill="white" stroke="#666666" points="299.75,-222 202.75,-222 202.75,-190 299.75,-190 299.75,-222"/>
<text text-anchor="start" x="210.75" y="-208.5" font-family="Helvetica,sans-Serif" font-size="10.00">LibLoader::Plugin::</text>
<text text-anchor="middle" x="251.25" y="-196.5" font-family="Helvetica,sans-Serif" font-size="10.00">enablePlugin</text>
</a>
</g>
</g>
<!-- Node11&#45;&gt;Node12 -->
<g id="edge12_Node000011_Node000012" class="edge">
<title>Node11&#45;&gt;Node12</title>
<g id="a_edge12_Node000011_Node000012"><a xlink:title=" ">
<path fill="none" stroke="#63b8ff" d="M369.95,-208C347.25,-207.61 321.64,-207.18 300.12,-206.81"/>
<polygon fill="#63b8ff" stroke="#63b8ff" points="369.6,-211.49 379.66,-208.16 369.72,-204.49 369.6,-211.49"/>
</a>
</g>
</g>
<!-- Node13 -->
<g id="Node000013" class="node">
<title>Node13</title>
<g id="a_Node000013"><a xlink:href="a00916.html#a8636d0418d741a19bbd9183316cd5c59" target="_top" xlink:title=" ">
<polygon fill="white" stroke="#666666" points="299.75,-272 202.75,-272 202.75,-240 299.75,-240 299.75,-272"/>
<text text-anchor="start" x="210.75" y="-258.5" font-family="Helvetica,sans-Serif" font-size="10.00">LibLoader::Plugin::</text>
<text text-anchor="middle" x="251.25" y="-246.5" font-family="Helvetica,sans-Serif" font-size="10.00">loadInternal</text>
</a>
</g>
</g>
<!-- Node11&#45;&gt;Node13 -->
<g id="edge13_Node000011_Node000013" class="edge">
<title>Node11&#45;&gt;Node13</title>
<g id="a_edge13_Node000011_Node000013"><a xlink:title=" ">
<path fill="none" stroke="#63b8ff" d="M370.26,-224.62C347.48,-230.68 321.74,-237.52 300.12,-243.27"/>
<polygon fill="#63b8ff" stroke="#63b8ff" points="370.94,-228.06 379.71,-222.11 369.14,-221.3 370.94,-228.06"/>
</a>
</g>
</g>
<!-- Node14 -->
<g id="Node000014" class="node">
<title>Node14</title>
<g id="a_Node000014"><a xlink:href="a00916.html#a891ce42f23fe1312ef6cad2accf4ab92" target="_top" xlink:title=" ">
<polygon fill="white" stroke="#666666" points="119.12,-272 22.12,-272 22.12,-240 119.12,-240 119.12,-272"/>
<text text-anchor="start" x="30.12" y="-258.5" font-family="Helvetica,sans-Serif" font-size="10.00">LibLoader::Plugin::</text>
<text text-anchor="middle" x="70.62" y="-246.5" font-family="Helvetica,sans-Serif" font-size="10.00">loadPlugin</text>
</a>
</g>
</g>
<!-- Node13&#45;&gt;Node14 -->
<g id="edge14_Node000013_Node000014" class="edge">
<title>Node13&#45;&gt;Node14</title>
<g id="a_edge14_Node000013_Node000014"><a xlink:title=" ">
<path fill="none" stroke="#63b8ff" d="M190.89,-256C167.63,-256 141.31,-256 119.32,-256"/>
<polygon fill="#63b8ff" stroke="#63b8ff" points="190.87,-259.5 200.87,-256 190.87,-252.5 190.87,-259.5"/>
</a>
</g>
</g>
<!-- Node16 -->
<g id="Node000016" class="node">
<title>Node16</title>
<g id="a_Node000016"><a xlink:href="a00314.html#a054b75b2be22897678d22ce9a72d91df" target="_top" xlink:title=" ">
<polygon fill="white" stroke="#666666" points="650.5,-49 574.5,-49 574.5,-29 650.5,-29 650.5,-49"/>
<text text-anchor="middle" x="612.5" y="-35.5" font-family="Helvetica,sans-Serif" font-size="10.00">PluginDisable</text>
</a>
</g>
</g>
<!-- Node15&#45;&gt;Node16 -->
<g id="edge16_Node000015_Node000016" class="edge">
<title>Node15&#45;&gt;Node16</title>
<g id="a_edge16_Node000015_Node000016"><a xlink:title=" ">
<path fill="none" stroke="#63b8ff" d="M725.92,-64.13C701.09,-58.58 672.76,-52.25 650.75,-47.33"/>
<polygon fill="#63b8ff" stroke="#63b8ff" points="725.05,-67.52 735.57,-66.29 726.57,-60.69 725.05,-67.52"/>
</a>
</g>
</g>
<!-- Node18 -->
<g id="Node000018" class="node">
<title>Node18</title>
<g id="a_Node000018"><a xlink:href="a00426.html#a05f1524120bb7a5a65abbde063d9e557" target="_top" xlink:title=" ">
<polygon fill="white" stroke="#666666" points="666.25,-175 558.75,-175 558.75,-143 666.25,-143 666.25,-175"/>
<text text-anchor="start" x="566.75" y="-161.5" font-family="Helvetica,sans-Serif" font-size="10.00">LibLoader::LoaderApi</text>
<text text-anchor="middle" x="612.5" y="-149.5" font-family="Helvetica,sans-Serif" font-size="10.00">::timer</text>
</a>
</g>
</g>
<!-- Node17&#45;&gt;Node18 -->
<g id="edge18_Node000017_Node000018" class="edge">
<title>Node17&#45;&gt;Node18</title>
<g id="a_edge18_Node000017_Node000018"><a xlink:title=" ">
<path fill="none" stroke="#63b8ff" d="M719.42,-159C702.01,-159 683.35,-159 666.62,-159"/>
<polygon fill="#63b8ff" stroke="#63b8ff" points="719.13,-162.5 729.13,-159 719.13,-155.5 719.13,-162.5"/>
</a>
</g>
</g>
<!-- Node19 -->
<g id="Node000019" class="node">
<title>Node19</title>
<g id="a_Node000019"><a xlink:href="a00412.html#a0edd1fee858de73bb144b4f7832a573d" target="_top" xlink:title="定时任务, 在一定时间后广播**一次**TimeOutEvent">
<polygon fill="white" stroke="#666666" points="478.12,-169 381.88,-169 381.88,-149 478.12,-149 478.12,-169"/>
<text text-anchor="middle" x="430" y="-155.5" font-family="Helvetica,sans-Serif" font-size="10.00">MiraiCP::schedule</text>
</a>
</g>
</g>
<!-- Node18&#45;&gt;Node19 -->
<g id="edge19_Node000018_Node000019" class="edge">
<title>Node18&#45;&gt;Node19</title>
<g id="a_edge19_Node000018_Node000019"><a xlink:title=" ">
<path fill="none" stroke="#63b8ff" d="M547.1,-159C524.5,-159 499.55,-159 478.58,-159"/>
<polygon fill="#63b8ff" stroke="#63b8ff" points="546.81,-162.5 556.81,-159 546.81,-155.5 546.81,-162.5"/>
</a>
</g>
</g>
<!-- Node21 -->
<g id="Node000021" class="node">
<title>Node21</title>
<g id="a_Node000021"><a xlink:href="a00431.html#ac6360f8f60a063ca92ee816f65a8a2a1" target="_top" xlink:title=" ">
<polygon fill="white" stroke="#666666" points="498.75,-117 361.25,-117 361.25,-85 498.75,-85 498.75,-117"/>
<text text-anchor="start" x="369.25" y="-103.5" font-family="Helvetica,sans-Serif" font-size="10.00">LibLoader::MessageHandler</text>
<text text-anchor="middle" x="430" y="-91.5" font-family="Helvetica,sans-Serif" font-size="10.00">::timer_message</text>
</a>
</g>
</g>
<!-- Node18&#45;&gt;Node21 -->
<g id="edge21_Node000018_Node000021" class="edge">
<title>Node18&#45;&gt;Node21</title>
<g id="a_edge21_Node000018_Node000021"><a xlink:title=" ">
<path fill="none" stroke="#63b8ff" d="M549.37,-139.04C527.41,-131.98 502.99,-124.13 482.06,-117.41"/>
<polygon fill="#63b8ff" stroke="#63b8ff" points="548.23,-142.34 558.82,-142.07 550.37,-135.68 548.23,-142.34"/>
</a>
</g>
</g>
<!-- Node20 -->
<g id="Node000020" class="node">
<title>Node20</title>
<g id="a_Node000020"><a xlink:href="a00412.html#a9d9b304caa9cf25c6f148b99ee9651f6" target="_top" xlink:title="定时任务, 在一定时间后广播**一次**TimeOutEvent，chrono重载">
<polygon fill="white" stroke="#666666" points="299.38,-169 203.12,-169 203.12,-149 299.38,-149 299.38,-169"/>
<text text-anchor="middle" x="251.25" y="-155.5" font-family="Helvetica,sans-Serif" font-size="10.00">MiraiCP::schedule</text>
</a>
</g>
</g>
<!-- Node19&#45;&gt;Node20 -->
<g id="edge20_Node000019_Node000020" class="edge">
<title>Node19&#45;&gt;Node20</title>
<g id="a_edge20_Node000019_Node000020"><a xlink:title=" ">
<path fill="none" stroke="#63b8ff" d="M370.31,-159C347.39,-159 321.46,-159 299.75,-159"/>
<polygon fill="#63b8ff" stroke="#63b8ff" points="370.12,-162.5 380.12,-159 370.12,-155.5 370.12,-162.5"/>
</a>
</g>
</g>
<!-- Node22 -->
<g id="Node000022" class="node">
<title>Node22</title>
<g id="a_Node000022"><a xlink:href="a00892.html#ac44a2bba9059176d3ccb04ed1eb065a3" target="_top" xlink:title=" ">
<polygon fill="white" stroke="#666666" points="325.25,-89 177.25,-89 177.25,-57 325.25,-57 325.25,-89"/>
<text text-anchor="start" x="185.25" y="-75.5" font-family="Helvetica,sans-Serif" font-size="10.00">LibLoader::MessageProcessor</text>
<text text-anchor="middle" x="251.25" y="-63.5" font-family="Helvetica,sans-Serif" font-size="10.00">::registerDefaultHandlers</text>
</a>
</g>
</g>
<!-- Node21&#45;&gt;Node22 -->
<g id="edge22_Node000021_Node000022" class="edge">
<title>Node21&#45;&gt;Node22</title>
<g id="a_edge22_Node000021_Node000022"><a xlink:title=" ">
<path fill="none" stroke="#63b8ff" d="M349.67,-88.43C341.65,-87.16 333.53,-85.88 325.58,-84.62"/>
<polygon fill="#63b8ff" stroke="#63b8ff" points="349,-91.87 359.42,-89.98 350.09,-84.96 349,-91.87"/>
</a>
</g>
</g>
<!-- Node23 -->
<g id="Node000023" class="node">
<title>Node23</title>
<g id="a_Node000023"><a xlink:href="a00884.html#ac95c9bf6b208cbeab2e9b1cdfcb7c3d6" target="_top" xlink:title=" ">
<polygon fill="white" stroke="#666666" points="141.25,-32 0,-32 0,0 141.25,0 141.25,-32"/>
<text text-anchor="start" x="8" y="-18.5" font-family="Helvetica,sans-Serif" font-size="10.00">LibLoader::MessageManager</text>
<text text-anchor="middle" x="70.62" y="-6.5" font-family="Helvetica,sans-Serif" font-size="10.00">::init</text>
</a>
</g>
</g>
<!-- Node22&#45;&gt;Node23 -->
<g id="edge23_Node000022_Node000023" class="edge">
<title>Node22&#45;&gt;Node23</title>
<g id="a_edge23_Node000022_Node000023"><a xlink:title=" ">
<path fill="none" stroke="#63b8ff" d="M187.77,-53.06C166.66,-46.33 143.34,-38.89 123.17,-32.45"/>
<polygon fill="#63b8ff" stroke="#63b8ff" points="186.55,-56.35 197.14,-56.05 188.68,-49.68 186.55,-56.35"/>
</a>
</g>
</g>
<!-- Node23&#45;&gt;Node6 -->
<g id="edge24_Node000023_Node000006" class="edge">
<title>Node23&#45;&gt;Node6</title>
<g id="a_edge24_Node000023_Node000006"><a xlink:title=" ">
<path fill="none" stroke="#63b8ff" d="M152.74,-10.65C225.14,-6.35 334.1,-1 429,-1 944.38,-1 944.38,-1 944.38,-1 1039.75,-1 1148.75,-23.84 1213.31,-39.81"/>
<polygon fill="#63b8ff" stroke="#63b8ff" points="152.72,-7.15 142.95,-11.24 153.14,-14.14 152.72,-7.15"/>
</a>
</g>
</g>
<!-- Node25 -->
<g id="Node000025" class="node">
<title>Node25</title>
<g id="a_Node000025"><a xlink:href="a00425.html#afbf560680f6b525ee0240f614a0177b6" target="_top" xlink:title=" ">
<polygon fill="white" stroke="#666666" points="690.25,-125 534.75,-125 534.75,-105 690.25,-105 690.25,-125"/>
<text text-anchor="middle" x="612.5" y="-111.5" font-family="Helvetica,sans-Serif" font-size="10.00">LibLoader::sendPluginException</text>
</a>
</g>
</g>
<!-- Node24&#45;&gt;Node25 -->
<g id="edge26_Node000024_Node000025" class="edge">
<title>Node24&#45;&gt;Node25</title>
<g id="a_edge26_Node000024_Node000025"><a xlink:title=" ">
<path fill="none" stroke="#63b8ff" d="M714.55,-115C706.66,-115 698.58,-115 690.59,-115"/>
<polygon fill="#63b8ff" stroke="#63b8ff" points="714.43,-118.5 724.43,-115 714.43,-111.5 714.43,-118.5"/>
</a>
</g>
</g>
<!-- Node26 -->
<g id="Node000026" class="node">
<title>Node26</title>
<g id="a_Node000026"><a xlink:href="a00425.html#a7ee448e1b260709b6a8d73fa41ec5c15" target="_top" xlink:title=" ">
<polygon fill="white" stroke="#666666" points="683.12,-87 541.88,-87 541.88,-67 683.12,-67 683.12,-87"/>
<text text-anchor="middle" x="612.5" y="-73.5" font-family="Helvetica,sans-Serif" font-size="10.00">LibLoader::sendThreadReset</text>
</a>
</g>
</g>
<!-- Node24&#45;&gt;Node26 -->
<g id="edge27_Node000024_Node000026" class="edge">
<title>Node24&#45;&gt;Node26</title>
<g id="a_edge27_Node000024_Node000026"><a xlink:title=" ">
<path fill="none" stroke="#63b8ff" d="M725.41,-102.02C704.15,-97.26 680.39,-91.95 660.25,-87.45"/>
<polygon fill="#63b8ff" stroke="#63b8ff" points="724.6,-105.42 735.12,-104.19 726.12,-98.59 724.6,-105.42"/>
</a>
</g>
</g>
<!-- Node28 -->
<g id="Node000028" class="node">
<title>Node28</title>
<g id="a_Node000028"><a xlink:href="a00314.html#a3712cdeefe60fa2a92efa90cd6200b02" target="_top" xlink:title=" ">
<polygon fill="white" stroke="#666666" points="804.88,-49 764.12,-49 764.12,-29 804.88,-29 804.88,-49"/>
<text text-anchor="middle" x="784.5" y="-35.5" font-family="Helvetica,sans-Serif" font-size="10.00">Verify</text>
</a>
</g>
</g>
<!-- Node27&#45;&gt;Node28 -->
<g id="edge30_Node000027_Node000028" class="edge">
<title>Node27&#45;&gt;Node28</title>
<g id="a_edge30_Node000027_Node000028"><a xlink:title=" ">
<path fill="none" stroke="#63b8ff" d="M901.89,-39C870.78,-39 829.18,-39 805.06,-39"/>
<polygon fill="#63b8ff" stroke="#63b8ff" points="901.72,-42.5 911.72,-39 901.72,-35.5 901.72,-42.5"/>
</a>
</g>
</g>
<!-- Node29&#45;&gt;Node4 -->
<g id="edge33_Node000029_Node000004" class="edge">
<title>Node29&#45;&gt;Node4</title>
<g id="a_edge33_Node000029_Node000004"><a xlink:title=" ">
<path fill="none" stroke="#63b8ff" d="M1652.84,-90.57C1644.76,-89.21 1636.58,-87.83 1628.69,-86.5"/>
<polygon fill="#63b8ff" stroke="#63b8ff" points="1652.22,-94.01 1662.66,-92.23 1653.38,-87.11 1652.22,-94.01"/>
</a>
</g>
</g>
</g>
</svg>
