<?xml version="1.0" encoding="UTF-8" standalone="no"?>
<!DOCTYPE svg PUBLIC "-//W3C//DTD SVG 1.1//EN"
 "http://www.w3.org/Graphics/SVG/1.1/DTD/svg11.dtd">
<!-- Generated by graphviz version 9.0.0 (0)
 -->
<!-- Title: LibLoader::PluginAlreadyLoadedException::raise Pages: 1 -->
<svg width="1335pt" height="72pt"
 viewBox="0.00 0.00 1334.75 72.00" xmlns="http://www.w3.org/2000/svg" xmlns:xlink="http://www.w3.org/1999/xlink">
<g id="graph0" class="graph" transform="scale(1 1) rotate(0) translate(4 68)">
<title>LibLoader::PluginAlreadyLoadedException::raise</title>
<!-- Node1 -->
<g id="Node000001" class="node">
<title>Node1</title>
<g id="a_Node000001"><a xlink:title=" ">
<polygon fill="#999999" stroke="#666666" points="124,-42 0,-42 0,-10 124,-10 124,-42"/>
<text text-anchor="start" x="8" y="-28.5" font-family="Helvetica,sans-Serif" font-size="10.00">LibLoader::PluginAlready</text>
<text text-anchor="middle" x="62" y="-16.5" font-family="Helvetica,sans-Serif" font-size="10.00">LoadedException::raise</text>
</a>
</g>
</g>
<!-- Node2 -->
<g id="Node000002" class="node">
<title>Node2</title>
<g id="a_Node000002"><a xlink:href="a00844.html#aefe83b46523df9d571e0f25b9283f793" target="_top" xlink:title=" ">
<polygon fill="white" stroke="#666666" points="319.25,-42 160,-42 160,-10 319.25,-10 319.25,-42"/>
<text text-anchor="start" x="168" y="-28.5" font-family="Helvetica,sans-Serif" font-size="10.00">LibLoader::LoaderBaseException</text>
<text text-anchor="middle" x="239.62" y="-16.5" font-family="Helvetica,sans-Serif" font-size="10.00">::warningRaise</text>
</a>
</g>
</g>
<!-- Node1&#45;&gt;Node2 -->
<g id="edge1_Node000001_Node000002" class="edge">
<title>Node1&#45;&gt;Node2</title>
<g id="a_edge1_Node000001_Node000002"><a xlink:title=" ">
<path fill="none" stroke="#63b8ff" d="M124.43,-26C132.16,-26 140.19,-26 148.25,-26"/>
<polygon fill="#63b8ff" stroke="#63b8ff" points="148.13,-29.5 158.13,-26 148.13,-22.5 148.13,-29.5"/>
</a>
</g>
</g>
<!-- Node3 -->
<g id="Node000003" class="node">
<title>Node3</title>
<g id="a_Node000003"><a xlink:href="a00872.html#af50d0545fe7d683e54fcd03453a423e3" target="_top" xlink:title=" ">
<polygon fill="white" stroke="#666666" points="477.75,-42 355.25,-42 355.25,-10 477.75,-10 477.75,-42"/>
<text text-anchor="start" x="363.25" y="-28.5" font-family="Helvetica,sans-Serif" font-size="10.00">LibLoader::LoaderLogger</text>
<text text-anchor="middle" x="416.5" y="-16.5" font-family="Helvetica,sans-Serif" font-size="10.00">::warning</text>
</a>
</g>
</g>
<!-- Node2&#45;&gt;Node3 -->
<g id="edge2_Node000002_Node000003" class="edge">
<title>Node2&#45;&gt;Node3</title>
<g id="a_edge2_Node000002_Node000003"><a xlink:title=" ">
<path fill="none" stroke="#63b8ff" d="M319.62,-26C327.59,-26 335.65,-26 343.54,-26"/>
<polygon fill="#63b8ff" stroke="#63b8ff" points="343.42,-29.5 353.42,-26 343.42,-22.5 343.42,-29.5"/>
</a>
</g>
</g>
<!-- Node4 -->
<g id="Node000004" class="node">
<title>Node4</title>
<g id="a_Node000004"><a xlink:href="a00872.html#af4d7d5164450e25f7401d1cc15f15b8d" target="_top" xlink:title="实际暴露的接口">
<polygon fill="white" stroke="#666666" points="636.25,-64 513.75,-64 513.75,-32 636.25,-32 636.25,-64"/>
<text text-anchor="start" x="521.75" y="-50.5" font-family="Helvetica,sans-Serif" font-size="10.00">LibLoader::LoaderLogger</text>
<text text-anchor="middle" x="575" y="-38.5" font-family="Helvetica,sans-Serif" font-size="10.00">::call_logger</text>
</a>
</g>
</g>
<!-- Node3&#45;&gt;Node4 -->
<g id="edge3_Node000003_Node000004" class="edge">
<title>Node3&#45;&gt;Node4</title>
<g id="a_edge3_Node000003_Node000004"><a xlink:title=" ">
<path fill="none" stroke="#63b8ff" d="M478.01,-34.51C485.9,-35.62 494.05,-36.76 502.1,-37.89"/>
<polygon fill="#63b8ff" stroke="#63b8ff" points="501.51,-41.34 511.9,-39.27 502.48,-34.41 501.51,-41.34"/>
</a>
</g>
</g>
<!-- Node5 -->
<g id="Node000005" class="node">
<title>Node5</title>
<g id="a_Node000005"><a xlink:href="a00430.html#a076c5f4ff8083c7cfc6523498d0ba30f" target="_top" xlink:title=" ">
<polygon fill="white" stroke="#666666" points="917.25,-45 815,-45 815,-13 917.25,-13 917.25,-45"/>
<text text-anchor="start" x="823" y="-31.5" font-family="Helvetica,sans-Serif" font-size="10.00">LibLoader::JNIEnvs</text>
<text text-anchor="middle" x="866.12" y="-19.5" font-family="Helvetica,sans-Serif" font-size="10.00">::getEnv</text>
</a>
</g>
</g>
<!-- Node4&#45;&gt;Node5 -->
<g id="edge4_Node000004_Node000005" class="edge">
<title>Node4&#45;&gt;Node5</title>
<g id="a_edge4_Node000004_Node000005"><a xlink:title=" ">
<path fill="none" stroke="#63b8ff" d="M636.61,-44.02C685.51,-40.8 754.03,-36.3 803.26,-33.07"/>
<polygon fill="#63b8ff" stroke="#63b8ff" points="803.45,-36.56 813.2,-32.41 802.99,-29.58 803.45,-36.56"/>
</a>
</g>
</g>
<!-- Node9 -->
<g id="Node000009" class="node">
<title>Node9</title>
<g id="a_Node000009"><a xlink:href="a00425.html#a6a6fcd695791253a9b3a053d313b2b93" target="_top" xlink:title=" ">
<polygon fill="white" stroke="#666666" points="779,-20 672.25,-20 672.25,0 779,0 779,-20"/>
<text text-anchor="middle" x="725.62" y="-6.5" font-family="Helvetica,sans-Serif" font-size="10.00">LibLoader::str2jstring</text>
</a>
</g>
</g>
<!-- Node4&#45;&gt;Node9 -->
<g id="edge8_Node000004_Node000009" class="edge">
<title>Node4&#45;&gt;Node9</title>
<g id="a_edge8_Node000004_Node000009"><a xlink:title=" ">
<path fill="none" stroke="#63b8ff" d="M636.45,-32.54C648.51,-29.46 661.07,-26.25 672.81,-23.25"/>
<polygon fill="#63b8ff" stroke="#63b8ff" points="673.48,-26.69 682.3,-20.82 671.75,-19.91 673.48,-26.69"/>
</a>
</g>
</g>
<!-- Node6 -->
<g id="Node000006" class="node">
<title>Node6</title>
<g id="a_Node000006"><a xlink:href="a00840.html#aea7d58ff9f04d6d4849c25a2506603a5" target="_top" xlink:title="取env,如果不存在重新获取">
<polygon fill="white" stroke="#666666" points="1076.5,-39 953.25,-39 953.25,-19 1076.5,-19 1076.5,-39"/>
<text text-anchor="middle" x="1014.88" y="-25.5" font-family="Helvetica,sans-Serif" font-size="10.00">JNIEnvManager::getEnv</text>
</a>
</g>
</g>
<!-- Node5&#45;&gt;Node6 -->
<g id="edge5_Node000005_Node000006" class="edge">
<title>Node5&#45;&gt;Node6</title>
<g id="a_edge5_Node000005_Node000006"><a xlink:title=" ">
<path fill="none" stroke="#63b8ff" d="M917.63,-29C925.35,-29 933.44,-29 941.52,-29"/>
<polygon fill="#63b8ff" stroke="#63b8ff" points="941.38,-32.5 951.38,-29 941.38,-25.5 941.38,-32.5"/>
</a>
</g>
</g>
<!-- Node7 -->
<g id="Node000007" class="node">
<title>Node7</title>
<g id="a_Node000007"><a xlink:href="a00260.html#a3d31403b7971274d47d308245206bd24" target="_top" xlink:title="为当前线程创建一个env.">
<polygon fill="white" stroke="#666666" points="1163.75,-39 1112.5,-39 1112.5,-19 1163.75,-19 1163.75,-39"/>
<text text-anchor="middle" x="1138.12" y="-25.5" font-family="Helvetica,sans-Serif" font-size="10.00">newEnv</text>
</a>
</g>
</g>
<!-- Node6&#45;&gt;Node7 -->
<g id="edge6_Node000006_Node000007" class="edge">
<title>Node6&#45;&gt;Node7</title>
<g id="a_edge6_Node000006_Node000007"><a xlink:title=" ">
<path fill="none" stroke="#63b8ff" d="M1076.86,-29C1085.06,-29 1093.26,-29 1100.84,-29"/>
<polygon fill="#63b8ff" stroke="#63b8ff" points="1100.66,-32.5 1110.66,-29 1100.66,-25.5 1100.66,-32.5"/>
</a>
</g>
</g>
<!-- Node8 -->
<g id="Node000008" class="node">
<title>Node8</title>
<g id="a_Node000008"><a xlink:href="a00840.html#ae0e482c6a813848a8f5d34957d1b6307" target="_top" xlink:title="获取全局JavaVM对象.">
<polygon fill="white" stroke="#666666" points="1326.75,-39 1199.75,-39 1199.75,-19 1326.75,-19 1326.75,-39"/>
<text text-anchor="middle" x="1263.25" y="-25.5" font-family="Helvetica,sans-Serif" font-size="10.00">JNIEnvManager::getGvm</text>
</a>
</g>
</g>
<!-- Node7&#45;&gt;Node8 -->
<g id="edge7_Node000007_Node000008" class="edge">
<title>Node7&#45;&gt;Node8</title>
<g id="a_edge7_Node000007_Node000008"><a xlink:title=" ">
<path fill="none" stroke="#63b8ff" d="M1164.04,-29C1171.22,-29 1179.45,-29 1188.02,-29"/>
<polygon fill="#63b8ff" stroke="#63b8ff" points="1187.91,-32.5 1197.91,-29 1187.91,-25.5 1187.91,-32.5"/>
</a>
</g>
</g>
<!-- Node9&#45;&gt;Node3 -->
<g id="edge10_Node000009_Node000003" class="edge">
<title>Node9&#45;&gt;Node3</title>
<g id="a_edge10_Node000009_Node000003"><a xlink:title=" ">
<path fill="none" stroke="#63b8ff" d="M671.75,-12.75C621.42,-15.38 545.26,-19.34 489.42,-22.25"/>
<polygon fill="#63b8ff" stroke="#63b8ff" points="489.49,-18.74 479.69,-22.76 489.86,-25.74 489.49,-18.74"/>
</a>
</g>
</g>
<!-- Node9&#45;&gt;Node5 -->
<g id="edge9_Node000009_Node000005" class="edge">
<title>Node9&#45;&gt;Node5</title>
<g id="a_edge9_Node000009_Node000005"><a xlink:title=" ">
<path fill="none" stroke="#63b8ff" d="M779.38,-17.24C787.28,-18.32 795.48,-19.45 803.54,-20.55"/>
<polygon fill="#63b8ff" stroke="#63b8ff" points="802.92,-24 813.3,-21.89 803.87,-17.06 802.92,-24"/>
</a>
</g>
</g>
</g>
</svg>
