<?xml version="1.0" encoding="UTF-8" standalone="no"?>
<!DOCTYPE svg PUBLIC "-//W3C//DTD SVG 1.1//EN"
 "http://www.w3.org/Graphics/SVG/1.1/DTD/svg11.dtd">
<!-- Generated by graphviz version 9.0.0 (0)
 -->
<!-- Title: LibLoader::PluginAlreadyEnabledException Pages: 1 -->
<svg width="304pt" height="847pt"
 viewBox="0.00 0.00 304.25 847.00" xmlns="http://www.w3.org/2000/svg" xmlns:xlink="http://www.w3.org/1999/xlink">
<g id="graph0" class="graph" transform="scale(1 1) rotate(0) translate(4 843)">
<title>LibLoader::PluginAlreadyEnabledException</title>
<!-- Node1 -->
<g id="Node000001" class="node">
<title>Node1</title>
<g id="a_Node000001"><a xlink:title=" ">
<polygon fill="#999999" stroke="none" points="174.5,-132 18.5,-132 18.5,0 174.5,0 174.5,-132"/>
<text text-anchor="start" x="42.5" y="-118.5" font-family="Helvetica,sans-Serif" font-size="10.00">LibLoader::PluginAlready</text>
<text text-anchor="start" x="57.12" y="-106.5" font-family="Helvetica,sans-Serif" font-size="10.00">EnabledException</text>
<text text-anchor="start" x="95" y="-90.5" font-family="Helvetica,sans-Serif" font-size="10.00"> </text>
<text text-anchor="start" x="22.5" y="-74.5" font-family="Helvetica,sans-Serif" font-size="10.00">+</text>
<text text-anchor="start" x="32.5" y="-74.5" font-family="Helvetica,sans-Serif" font-size="10.00">PluginAlreadyEnabledException</text>
<text text-anchor="start" x="32.5" y="-62.5" font-family="Helvetica,sans-Serif" font-size="10.00">(const string &amp;id, string</text>
<text text-anchor="start" x="32.5" y="-50.5" font-family="Helvetica,sans-Serif" font-size="10.00"> _filename, int _lineNum)</text>
<text text-anchor="start" x="22.5" y="-34.5" font-family="Helvetica,sans-Serif" font-size="10.00">+</text>
<text text-anchor="start" x="32.5" y="-34.5" font-family="Helvetica,sans-Serif" font-size="10.00">void raise() const</text>
<text text-anchor="start" x="32.5" y="-22.5" font-family="Helvetica,sans-Serif" font-size="10.00"> noexcept override</text>
<text text-anchor="start" x="22.5" y="-6.5" font-family="Helvetica,sans-Serif" font-size="10.00">+</text>
<text text-anchor="start" x="32.5" y="-6.5" font-family="Helvetica,sans-Serif" font-size="10.00">static string exceptionType()</text>
<polygon fill="#666666" stroke="#666666" points="18.5,-102 18.5,-102 174.5,-102 174.5,-102 18.5,-102"/>
<polygon fill="#666666" stroke="#666666" points="18.5,-86 18.5,-86 174.5,-86 174.5,-86 18.5,-86"/>
<polygon fill="none" stroke="#666666" points="18.5,0 18.5,-132 174.5,-132 174.5,0 18.5,0"/>
</a>
</g>
</g>
<!-- Node2 -->
<g id="Node000002" class="node">
<title>Node2</title>
<g id="a_Node000002"><a xlink:href="a00848.html" target="_top" xlink:title=" ">
<polygon fill="white" stroke="none" points="193,-285 0,-285 0,-169 193,-169 193,-285"/>
<text text-anchor="start" x="4.62" y="-271.5" font-family="Helvetica,sans-Serif" font-size="10.00">LibLoader::LoaderException</text>
<text text-anchor="start" x="4.62" y="-259.5" font-family="Helvetica,sans-Serif" font-size="10.00">CRTP&lt; PluginAlreadyEnabledException &gt;</text>
<text text-anchor="start" x="95" y="-243.5" font-family="Helvetica,sans-Serif" font-size="10.00"> </text>
<text text-anchor="start" x="20.5" y="-227.5" font-family="Helvetica,sans-Serif" font-size="10.00">+</text>
<text text-anchor="start" x="47" y="-227.5" font-family="Helvetica,sans-Serif" font-size="10.00">LoaderExceptionCRTP</text>
<text text-anchor="start" x="47" y="-215.5" font-family="Helvetica,sans-Serif" font-size="10.00">(std::string _re, string</text>
<text text-anchor="start" x="47" y="-203.5" font-family="Helvetica,sans-Serif" font-size="10.00"> _filename, int _lineNum)</text>
<text text-anchor="start" x="20.5" y="-187.5" font-family="Helvetica,sans-Serif" font-size="10.00">+</text>
<text text-anchor="start" x="47" y="-187.5" font-family="Helvetica,sans-Serif" font-size="10.00">string getExceptionType</text>
<text text-anchor="start" x="47" y="-175.5" font-family="Helvetica,sans-Serif" font-size="10.00">() const override</text>
<polygon fill="#666666" stroke="#666666" points="0,-255 0,-255 193,-255 193,-255 0,-255"/>
<polygon fill="#666666" stroke="#666666" points="0,-239 0,-239 193,-239 193,-239 0,-239"/>
<polygon fill="none" stroke="#666666" points="0,-169 0,-285 193,-285 193,-169 0,-169"/>
</a>
</g>
</g>
<!-- Node2&#45;&gt;Node1 -->
<g id="edge1_Node000001_Node000002" class="edge">
<title>Node2&#45;&gt;Node1</title>
<g id="a_edge1_Node000001_Node000002"><a xlink:title=" ">
<path fill="none" stroke="#63b8ff" d="M96.5,-157.59C96.5,-149.08 96.5,-140.39 96.5,-131.94"/>
<polygon fill="none" stroke="#63b8ff" points="93,-157.53 96.5,-167.53 100,-157.53 93,-157.53"/>
</a>
</g>
</g>
<!-- Node3 -->
<g id="Node000003" class="node">
<title>Node3</title>
<g id="a_Node000003"><a xlink:href="a00844.html" target="_top" xlink:title=" ">
<polygon fill="white" stroke="none" points="169,-750 16,-750 16,-486 169,-486 169,-750"/>
<text text-anchor="start" x="20.88" y="-736.5" font-family="Helvetica,sans-Serif" font-size="10.00">LibLoader::LoaderBaseException</text>
<text text-anchor="start" x="23" y="-720.5" font-family="Helvetica,sans-Serif" font-size="10.00">+</text>
<text text-anchor="start" x="36" y="-720.5" font-family="Helvetica,sans-Serif" font-size="10.00">string filename</text>
<text text-anchor="start" x="23" y="-704.5" font-family="Helvetica,sans-Serif" font-size="10.00">+</text>
<text text-anchor="start" x="36" y="-704.5" font-family="Helvetica,sans-Serif" font-size="10.00">int lineNum</text>
<text text-anchor="start" x="23.38" y="-688.5" font-family="Helvetica,sans-Serif" font-size="10.00">#</text>
<text text-anchor="start" x="36" y="-688.5" font-family="Helvetica,sans-Serif" font-size="10.00">string errorMessage</text>
<text text-anchor="start" x="23" y="-672.5" font-family="Helvetica,sans-Serif" font-size="10.00">+</text>
<text text-anchor="start" x="36" y="-672.5" font-family="Helvetica,sans-Serif" font-size="10.00">~LoaderBaseException</text>
<text text-anchor="start" x="36" y="-660.5" font-family="Helvetica,sans-Serif" font-size="10.00">() override=default</text>
<text text-anchor="start" x="23" y="-644.5" font-family="Helvetica,sans-Serif" font-size="10.00">+</text>
<text text-anchor="start" x="36" y="-644.5" font-family="Helvetica,sans-Serif" font-size="10.00">const char * what()</text>
<text text-anchor="start" x="36" y="-632.5" font-family="Helvetica,sans-Serif" font-size="10.00"> const noexcept override</text>
<text text-anchor="start" x="23" y="-616.5" font-family="Helvetica,sans-Serif" font-size="10.00">+</text>
<text text-anchor="start" x="36" y="-616.5" font-family="Helvetica,sans-Serif" font-size="10.00">virtual void raise</text>
<text text-anchor="start" x="36" y="-604.5" font-family="Helvetica,sans-Serif" font-size="10.00">() const noexcept</text>
<text text-anchor="start" x="23" y="-588.5" font-family="Helvetica,sans-Serif" font-size="10.00">+</text>
<text text-anchor="start" x="36" y="-588.5" font-family="Helvetica,sans-Serif" font-size="10.00">virtual string getException</text>
<text text-anchor="start" x="36" y="-576.5" font-family="Helvetica,sans-Serif" font-size="10.00">Type() const =0</text>
<text text-anchor="start" x="23" y="-560.5" font-family="Helvetica,sans-Serif" font-size="10.00">+</text>
<text text-anchor="start" x="36" y="-560.5" font-family="Helvetica,sans-Serif" font-size="10.00">static string exceptionType()</text>
<text text-anchor="start" x="23.38" y="-544.5" font-family="Helvetica,sans-Serif" font-size="10.00">#</text>
<text text-anchor="start" x="36" y="-544.5" font-family="Helvetica,sans-Serif" font-size="10.00">LoaderBaseException</text>
<text text-anchor="start" x="36" y="-532.5" font-family="Helvetica,sans-Serif" font-size="10.00">(string info, string</text>
<text text-anchor="start" x="36" y="-520.5" font-family="Helvetica,sans-Serif" font-size="10.00"> _filename, int _lineNum)</text>
<text text-anchor="start" x="23.38" y="-504.5" font-family="Helvetica,sans-Serif" font-size="10.00">#</text>
<text text-anchor="start" x="36" y="-504.5" font-family="Helvetica,sans-Serif" font-size="10.00">void warningRaise()</text>
<text text-anchor="start" x="36" y="-492.5" font-family="Helvetica,sans-Serif" font-size="10.00"> const noexcept</text>
<polygon fill="#666666" stroke="#666666" points="16,-732 16,-732 169,-732 169,-732 16,-732"/>
<polygon fill="#666666" stroke="#666666" points="16,-684 16,-684 34,-684 34,-684 16,-684"/>
<polygon fill="#666666" stroke="#666666" points="34,-684 34,-684 169,-684 169,-684 34,-684"/>
<polygon fill="none" stroke="#666666" points="16,-486 16,-750 169,-750 169,-486 16,-486"/>
</a>
</g>
</g>
<!-- Node3&#45;&gt;Node2 -->
<g id="edge2_Node000002_Node000003" class="edge">
<title>Node3&#45;&gt;Node2</title>
<g id="a_edge2_Node000002_Node000003"><a xlink:title=" ">
<path fill="none" stroke="#63b8ff" d="M93.96,-474.79C94.64,-409.03 95.4,-334.64 95.92,-284.89"/>
<polygon fill="none" stroke="#63b8ff" points="90.46,-474.57 93.86,-484.6 97.46,-474.64 90.46,-474.57"/>
</a>
</g>
</g>
<!-- Node5 -->
<g id="Node000005" class="node">
<title>Node5</title>
<g id="a_Node000005"><a xlink:href="a00848.html" target="_top" xlink:title="总异常CRTP抽象类，不要直接抛出该类，不知道抛出什么的时候请抛出 LoaderException。 该类是用于继承的基类，需要新的异常类型时，继承该类并以子类作为模板参数。 子类需要实现的方法：">
<polygon fill="white" stroke="none" points="238.5,-449 108.5,-449 108.5,-333 238.5,-333 238.5,-449"/>
<text text-anchor="start" x="113.12" y="-435.5" font-family="Helvetica,sans-Serif" font-size="10.00">LibLoader::LoaderException</text>
<text text-anchor="start" x="148.38" y="-423.5" font-family="Helvetica,sans-Serif" font-size="10.00">CRTP&lt; T &gt;</text>
<text text-anchor="start" x="172" y="-407.5" font-family="Helvetica,sans-Serif" font-size="10.00"> </text>
<text text-anchor="start" x="113.5" y="-391.5" font-family="Helvetica,sans-Serif" font-size="10.00">+</text>
<text text-anchor="start" x="124.5" y="-391.5" font-family="Helvetica,sans-Serif" font-size="10.00">LoaderExceptionCRTP</text>
<text text-anchor="start" x="124.5" y="-379.5" font-family="Helvetica,sans-Serif" font-size="10.00">(std::string _re, string</text>
<text text-anchor="start" x="124.5" y="-367.5" font-family="Helvetica,sans-Serif" font-size="10.00"> _filename, int _lineNum)</text>
<text text-anchor="start" x="113.5" y="-351.5" font-family="Helvetica,sans-Serif" font-size="10.00">+</text>
<text text-anchor="start" x="124.5" y="-351.5" font-family="Helvetica,sans-Serif" font-size="10.00">string getExceptionType</text>
<text text-anchor="start" x="124.5" y="-339.5" font-family="Helvetica,sans-Serif" font-size="10.00">() const override</text>
<polygon fill="#666666" stroke="#666666" points="108.5,-419 108.5,-419 238.5,-419 238.5,-419 108.5,-419"/>
<polygon fill="#666666" stroke="#666666" points="108.5,-403 108.5,-403 238.5,-403 238.5,-403 108.5,-403"/>
<polygon fill="none" stroke="#666666" points="108.5,-333 108.5,-449 238.5,-449 238.5,-333 108.5,-333"/>
</a>
</g>
</g>
<!-- Node3&#45;&gt;Node5 -->
<g id="edge5_Node000005_Node000003" class="edge">
<title>Node3&#45;&gt;Node5</title>
<g id="a_edge5_Node000005_Node000003"><a xlink:title=" ">
<path fill="none" stroke="#63b8ff" d="M143.41,-475.58C146.74,-466.34 149.96,-457.38 152.99,-448.97"/>
<polygon fill="none" stroke="#63b8ff" points="140.22,-474.1 140.13,-484.69 146.81,-476.47 140.22,-474.1"/>
</a>
</g>
</g>
<!-- Node4 -->
<g id="Node000004" class="node">
<title>Node4</title>
<g id="a_Node000004"><a xlink:title=" ">
<polygon fill="white" stroke="none" points="128,-839 57,-839 57,-787 128,-787 128,-839"/>
<text text-anchor="start" x="61.75" y="-825.5" font-family="Helvetica,sans-Serif" font-size="10.00">std::exception</text>
<text text-anchor="start" x="91" y="-809.5" font-family="Helvetica,sans-Serif" font-size="10.00"> </text>
<text text-anchor="start" x="91" y="-793.5" font-family="Helvetica,sans-Serif" font-size="10.00"> </text>
<polygon fill="#666666" stroke="#666666" points="57,-821 57,-821 128,-821 128,-821 57,-821"/>
<polygon fill="#666666" stroke="#666666" points="57,-805 57,-805 128,-805 128,-805 57,-805"/>
<polygon fill="none" stroke="#666666" points="57,-787 57,-839 128,-839 128,-787 57,-787"/>
</a>
</g>
</g>
<!-- Node4&#45;&gt;Node3 -->
<g id="edge3_Node000003_Node000004" class="edge">
<title>Node4&#45;&gt;Node3</title>
<g id="a_edge3_Node000003_Node000004"><a xlink:title=" ">
<path fill="none" stroke="#63b8ff" d="M92.5,-775.89C92.5,-767.97 92.5,-759.14 92.5,-749.82"/>
<polygon fill="none" stroke="#63b8ff" points="89,-775.65 92.5,-785.65 96,-775.65 89,-775.65"/>
</a>
</g>
</g>
<!-- Node5&#45;&gt;Node2 -->
<g id="edge4_Node000002_Node000005" class="edge">
<title>Node5&#45;&gt;Node2</title>
<g id="a_edge4_Node000002_Node000005"><a xlink:title=" ">
<path fill="none" stroke="orange" d="M141.78,-323.25C135.72,-310.52 129.44,-297.3 123.55,-284.9"/>
<polygon fill="orange" stroke="orange" points="138.47,-324.44 145.92,-331.97 144.79,-321.44 138.47,-324.44"/>
</a>
</g>
<text text-anchor="middle" x="216.38" y="-305.5" font-family="Helvetica,sans-Serif" font-size="10.00" fill="grey"> &lt; PluginAlreadyEnabledException &gt;</text>
</g>
</g>
</svg>
