<?xml version="1.0" encoding="UTF-8" standalone="no"?>
<!DOCTYPE svg PUBLIC "-//W3C//DTD SVG 1.1//EN"
 "http://www.w3.org/Graphics/SVG/1.1/DTD/svg11.dtd">
<!-- Generated by graphviz version 2.50.0 (20211204.2007)
 -->
<!-- Title: Antares::ThreadPoolBase::worker Pages: 1 -->
<svg width="485pt" height="127pt"
 viewBox="0.00 0.00 485.00 126.50" xmlns="http://www.w3.org/2000/svg" xmlns:xlink="http://www.w3.org/1999/xlink">
<g id="graph0" class="graph" transform="scale(1 1) rotate(0) translate(4 122.5)">
<title>Antares::ThreadPoolBase::worker</title>
<polygon fill="white" stroke="transparent" points="-4,4 -4,-122.5 481,-122.5 481,4 -4,4"/>
<!-- Node1 -->
<g id="node1" class="node">
<title>Node1</title>
<g id="a_node1"><a xlink:title=" ">
<polygon fill="#bfbfbf" stroke="black" points="0,-49.5 0,-79.5 128,-79.5 128,-49.5 0,-49.5"/>
<text text-anchor="start" x="8" y="-67.5" font-family="Helvetica,sans-Serif" font-size="10.00">Antares::ThreadPoolBase</text>
<text text-anchor="middle" x="64" y="-56.5" font-family="Helvetica,sans-Serif" font-size="10.00">::worker</text>
</a>
</g>
</g>
<!-- Node2 -->
<g id="node2" class="node">
<title>Node2</title>
<g id="a_node2"><a xlink:href="a00413.html#ada5de831f5a14655f1dd31e6323f7831" target="_top" xlink:title=" ">
<polygon fill="white" stroke="black" points="164,-99 164,-118 313,-118 313,-99 164,-99"/>
<text text-anchor="middle" x="238.5" y="-106" font-family="Helvetica,sans-Serif" font-size="10.00">ThreadIdentify::IAmPoolThread</text>
</a>
</g>
</g>
<!-- Node1&#45;&gt;Node2 -->
<g id="edge1" class="edge">
<title>Node1&#45;&gt;Node2</title>
<path fill="none" stroke="midnightblue" d="M123.88,-79.52C145.61,-85.06 169.91,-91.26 190.45,-96.5"/>
<polygon fill="midnightblue" stroke="midnightblue" points="189.65,-99.91 200.21,-98.99 191.38,-93.12 189.65,-99.91"/>
</g>
<!-- Node3 -->
<g id="node3" class="node">
<title>Node3</title>
<g id="a_node3"><a xlink:href="a00852.html#af339bef805e095f0fe01cc3e41d14c23" target="_top" xlink:title=" ">
<polygon fill="white" stroke="black" points="174.5,-49.5 174.5,-79.5 302.5,-79.5 302.5,-49.5 174.5,-49.5"/>
<text text-anchor="start" x="182.5" y="-67.5" font-family="Helvetica,sans-Serif" font-size="10.00">Antares::ThreadPoolBase</text>
<text text-anchor="middle" x="238.5" y="-56.5" font-family="Helvetica,sans-Serif" font-size="10.00">::is_paused</text>
</a>
</g>
</g>
<!-- Node1&#45;&gt;Node3 -->
<g id="edge2" class="edge">
<title>Node1&#45;&gt;Node3</title>
<path fill="none" stroke="midnightblue" d="M128.25,-64.5C139.85,-64.5 152.06,-64.5 163.93,-64.5"/>
<polygon fill="midnightblue" stroke="midnightblue" points="164.25,-68 174.25,-64.5 164.25,-61 164.25,-68"/>
</g>
<!-- Node4 -->
<g id="node4" class="node">
<title>Node4</title>
<g id="a_node4"><a xlink:href="a00852.html#a9a6bf1d55c081cc77cca35adaeb3780d" target="_top" xlink:title=" ">
<polygon fill="white" stroke="black" points="174.5,-0.5 174.5,-30.5 302.5,-30.5 302.5,-0.5 174.5,-0.5"/>
<text text-anchor="start" x="182.5" y="-18.5" font-family="Helvetica,sans-Serif" font-size="10.00">Antares::ThreadPoolBase</text>
<text text-anchor="middle" x="238.5" y="-7.5" font-family="Helvetica,sans-Serif" font-size="10.00">::setThreadIndex</text>
</a>
</g>
</g>
<!-- Node1&#45;&gt;Node4 -->
<g id="edge3" class="edge">
<title>Node1&#45;&gt;Node4</title>
<path fill="none" stroke="midnightblue" d="M118.16,-49.4C136.04,-44.32 156.14,-38.61 174.69,-33.34"/>
<polygon fill="midnightblue" stroke="midnightblue" points="175.85,-36.65 184.51,-30.55 173.94,-29.92 175.85,-36.65"/>
</g>
<!-- Node5 -->
<g id="node5" class="node">
<title>Node5</title>
<g id="a_node5"><a xlink:href="a00852.html#ae109966b4dce505bdc1bebcdf2bd4cd0" target="_top" xlink:title=" ">
<polygon fill="white" stroke="black" points="349,-0.5 349,-30.5 477,-30.5 477,-0.5 349,-0.5"/>
<text text-anchor="start" x="357" y="-18.5" font-family="Helvetica,sans-Serif" font-size="10.00">Antares::ThreadPoolBase</text>
<text text-anchor="middle" x="413" y="-7.5" font-family="Helvetica,sans-Serif" font-size="10.00">::getThreadIndex</text>
</a>
</g>
</g>
<!-- Node4&#45;&gt;Node5 -->
<g id="edge4" class="edge">
<title>Node4&#45;&gt;Node5</title>
<path fill="none" stroke="midnightblue" d="M302.75,-15.5C314.35,-15.5 326.56,-15.5 338.43,-15.5"/>
<polygon fill="midnightblue" stroke="midnightblue" points="338.75,-19 348.75,-15.5 338.75,-12 338.75,-19"/>
</g>
</g>
</svg>
