<?xml version="1.0" encoding="UTF-8" standalone="no"?>
<!DOCTYPE svg PUBLIC "-//W3C//DTD SVG 1.1//EN"
 "http://www.w3.org/Graphics/SVG/1.1/DTD/svg11.dtd">
<!-- Generated by graphviz version 2.50.0 (20211204.2007)
 -->
<!-- Title: MiraiCP::IContactData::refreshInfo Pages: 1 -->
<svg width="1748pt" height="220pt"
 viewBox="0.00 0.00 1748.00 219.76" xmlns="http://www.w3.org/2000/svg" xmlns:xlink="http://www.w3.org/1999/xlink">
<g id="graph0" class="graph" transform="scale(1 1) rotate(0) translate(4 215.76)">
<title>MiraiCP::IContactData::refreshInfo</title>
<polygon fill="white" stroke="transparent" points="-4,4 -4,-215.76 1744,-215.76 1744,4 -4,4"/>
<!-- Node1 -->
<g id="node1" class="node">
<title>Node1</title>
<g id="a_node1"><a xlink:title="刷新数据">
<polygon fill="#bfbfbf" stroke="black" points="0,-69.26 0,-99.26 113,-99.26 113,-69.26 0,-69.26"/>
<text text-anchor="start" x="8" y="-87.26" font-family="Helvetica,sans-Serif" font-size="10.00">MiraiCP::IContactData</text>
<text text-anchor="middle" x="56.5" y="-76.26" font-family="Helvetica,sans-Serif" font-size="10.00">::refreshInfo</text>
</a>
</g>
</g>
<!-- Node2 -->
<g id="node2" class="node">
<title>Node2</title>
<g id="a_node2"><a xlink:href="a00944.html#ad104b6f94628a14cf351ae7da993c770" target="_top" xlink:title="取该联系人的一些信息">
<polygon fill="white" stroke="black" points="149.5,-118.26 149.5,-148.26 261.5,-148.26 261.5,-118.26 149.5,-118.26"/>
<text text-anchor="start" x="157.5" y="-136.26" font-family="Helvetica,sans-Serif" font-size="10.00">MiraiCP::LowLevelAPI</text>
<text text-anchor="middle" x="205.5" y="-125.26" font-family="Helvetica,sans-Serif" font-size="10.00">::getInfoSource</text>
</a>
</g>
</g>
<!-- Node1&#45;&gt;Node2 -->
<g id="edge1" class="edge">
<title>Node1&#45;&gt;Node2</title>
<path fill="none" stroke="midnightblue" d="M102.8,-99.36C117.54,-104.28 134.07,-109.78 149.44,-114.91"/>
<polygon fill="midnightblue" stroke="midnightblue" points="148.75,-118.37 159.35,-118.21 150.97,-111.73 148.75,-118.37"/>
</g>
<!-- Node15 -->
<g id="node15" class="node">
<title>Node15</title>
<g id="a_node15"><a xlink:href="a00944.html#a39064f9c2b148b3a3061f818bf237215" target="_top" xlink:title=" ">
<polygon fill="white" stroke="black" points="149.5,-69.26 149.5,-99.26 261.5,-99.26 261.5,-69.26 149.5,-69.26"/>
<text text-anchor="start" x="157.5" y="-87.26" font-family="Helvetica,sans-Serif" font-size="10.00">MiraiCP::LowLevelAPI</text>
<text text-anchor="middle" x="205.5" y="-76.26" font-family="Helvetica,sans-Serif" font-size="10.00">::info0</text>
</a>
</g>
</g>
<!-- Node1&#45;&gt;Node15 -->
<g id="edge18" class="edge">
<title>Node1&#45;&gt;Node15</title>
<path fill="none" stroke="midnightblue" d="M113.07,-84.26C121.61,-84.26 130.48,-84.26 139.2,-84.26"/>
<polygon fill="midnightblue" stroke="midnightblue" points="139.33,-87.76 149.33,-84.26 139.33,-80.76 139.33,-87.76"/>
</g>
<!-- Node17 -->
<g id="node17" class="node">
<title>Node17</title>
<g id="a_node17"><a xlink:href="a00868.html#af673a2e404372cc90719f38b9cced144" target="_top" xlink:title="转为json, 由子类实现, 无锁">
<polygon fill="white" stroke="black" points="149,-20.26 149,-50.26 262,-50.26 262,-20.26 149,-20.26"/>
<text text-anchor="start" x="157" y="-38.26" font-family="Helvetica,sans-Serif" font-size="10.00">MiraiCP::IContactData</text>
<text text-anchor="middle" x="205.5" y="-27.26" font-family="Helvetica,sans-Serif" font-size="10.00">::internalToJson</text>
</a>
</g>
</g>
<!-- Node1&#45;&gt;Node17 -->
<g id="edge20" class="edge">
<title>Node1&#45;&gt;Node17</title>
<path fill="none" stroke="midnightblue" d="M102.8,-69.16C117.54,-64.25 134.07,-58.74 149.44,-53.61"/>
<polygon fill="midnightblue" stroke="midnightblue" points="150.97,-56.8 159.35,-50.31 148.75,-50.15 150.97,-56.8"/>
</g>
<!-- Node3 -->
<g id="node3" class="node">
<title>Node3</title>
<g id="a_node3"><a xlink:href="a00415.html#a309e8d7f316e8b5e947ea3bcddeb84a8" target="_top" xlink:title="调用 Mirai 操作">
<polygon fill="white" stroke="black" points="308.5,-118.26 308.5,-148.26 417.5,-148.26 417.5,-118.26 308.5,-118.26"/>
<text text-anchor="start" x="316.5" y="-136.26" font-family="Helvetica,sans-Serif" font-size="10.00">MiraiCP::KtOperation</text>
<text text-anchor="middle" x="363" y="-125.26" font-family="Helvetica,sans-Serif" font-size="10.00">::ktOperation</text>
</a>
</g>
</g>
<!-- Node2&#45;&gt;Node3 -->
<g id="edge2" class="edge">
<title>Node2&#45;&gt;Node3</title>
<path fill="none" stroke="midnightblue" d="M261.76,-133.26C273.63,-133.26 286.26,-133.26 298.41,-133.26"/>
<polygon fill="midnightblue" stroke="midnightblue" points="298.48,-136.76 308.48,-133.26 298.48,-129.76 298.48,-136.76"/>
</g>
<!-- Node4 -->
<g id="node4" class="node">
<title>Node4</title>
<g id="a_node4"><a xlink:href="a00415.html#a1e1e498928eeaa1d7107033ff5fa881a" target="_top" xlink:title="调用 Mirai 操作">
<polygon fill="white" stroke="black" points="464,-118.26 464,-148.26 573,-148.26 573,-118.26 464,-118.26"/>
<text text-anchor="start" x="472" y="-136.26" font-family="Helvetica,sans-Serif" font-size="10.00">MiraiCP::KtOperation</text>
<text text-anchor="middle" x="518.5" y="-125.26" font-family="Helvetica,sans-Serif" font-size="10.00">::ktOperationStr</text>
</a>
</g>
</g>
<!-- Node3&#45;&gt;Node4 -->
<g id="edge3" class="edge">
<title>Node3&#45;&gt;Node4</title>
<path fill="none" stroke="midnightblue" d="M417.69,-133.26C429.25,-133.26 441.59,-133.26 453.51,-133.26"/>
<polygon fill="midnightblue" stroke="midnightblue" points="453.84,-136.76 463.84,-133.26 453.84,-129.76 453.84,-136.76"/>
</g>
<!-- Node5 -->
<g id="node5" class="node">
<title>Node5</title>
<g id="a_node5"><a xlink:href="a00408.html#a4c6ac4cf4ba5ff0adb7656708bbb67d0" target="_top" xlink:title="interfaces for plugins">
<polygon fill="white" stroke="black" points="609,-118.26 609,-148.26 717,-148.26 717,-118.26 609,-118.26"/>
<text text-anchor="start" x="617" y="-136.26" font-family="Helvetica,sans-Serif" font-size="10.00">LibLoader::LoaderApi</text>
<text text-anchor="middle" x="663" y="-125.26" font-family="Helvetica,sans-Serif" font-size="10.00">::pluginOperation</text>
</a>
</g>
</g>
<!-- Node4&#45;&gt;Node5 -->
<g id="edge4" class="edge">
<title>Node4&#45;&gt;Node5</title>
<path fill="none" stroke="midnightblue" d="M573.37,-133.26C581.67,-133.26 590.29,-133.26 598.77,-133.26"/>
<polygon fill="midnightblue" stroke="midnightblue" points="599,-136.76 609,-133.26 599,-129.76 599,-136.76"/>
</g>
<!-- Node6 -->
<g id="node6" class="node">
<title>Node6</title>
<g id="a_node6"><a xlink:href="a00740.html#acc90fdac094544c4ddd9d6fd13baa5da" target="_top" xlink:title=" ">
<polygon fill="white" stroke="black" points="753,-181.26 753,-211.26 888,-211.26 888,-181.26 753,-181.26"/>
<text text-anchor="start" x="761" y="-199.26" font-family="Helvetica,sans-Serif" font-size="10.00">MiraiCP::MiraiCPStringview</text>
<text text-anchor="middle" x="820.5" y="-188.26" font-family="Helvetica,sans-Serif" font-size="10.00">::c_str</text>
</a>
</g>
</g>
<!-- Node5&#45;&gt;Node6 -->
<g id="edge5" class="edge">
<title>Node5&#45;&gt;Node6</title>
<path fill="none" stroke="midnightblue" d="M701.25,-148.35C722.71,-157.05 749.89,-168.06 772.77,-177.33"/>
<polygon fill="midnightblue" stroke="midnightblue" points="771.71,-180.67 782.29,-181.19 774.33,-174.19 771.71,-180.67"/>
</g>
<!-- Node7 -->
<g id="node7" class="node">
<title>Node7</title>
<g id="a_node7"><a xlink:href="a00768.html#aea7d58ff9f04d6d4849c25a2506603a5" target="_top" xlink:title="取env,如果不存在重新获取">
<polygon fill="white" stroke="black" points="1377,-104.76 1377,-123.76 1496,-123.76 1496,-104.76 1377,-104.76"/>
<text text-anchor="middle" x="1436.5" y="-111.76" font-family="Helvetica,sans-Serif" font-size="10.00">JNIEnvManager::getEnv</text>
</a>
</g>
</g>
<!-- Node5&#45;&gt;Node7 -->
<g id="edge6" class="edge">
<title>Node5&#45;&gt;Node7</title>
<path fill="none" stroke="midnightblue" d="M717.25,-138.35C780.8,-143.98 890.3,-152.26 984.5,-152.26 984.5,-152.26 984.5,-152.26 1145.5,-152.26 1227.89,-152.26 1322.34,-137 1380.46,-125.82"/>
<polygon fill="midnightblue" stroke="midnightblue" points="1381.39,-129.2 1390.53,-123.85 1380.05,-122.33 1381.39,-129.2"/>
</g>
<!-- Node10 -->
<g id="node10" class="node">
<title>Node10</title>
<g id="a_node10"><a xlink:href="a00407.html#aa5f8d0ecd9dd392b491070aace643ae3" target="_top" xlink:title=" ">
<polygon fill="white" stroke="black" points="932,-104.76 932,-123.76 1039,-123.76 1039,-104.76 932,-104.76"/>
<text text-anchor="middle" x="985.5" y="-111.76" font-family="Helvetica,sans-Serif" font-size="10.00">LibLoader::jstring2str</text>
</a>
</g>
</g>
<!-- Node5&#45;&gt;Node10 -->
<g id="edge9" class="edge">
<title>Node5&#45;&gt;Node10</title>
<path fill="none" stroke="midnightblue" d="M717.28,-130.1C773.57,-126.77 862.25,-121.51 921.85,-117.98"/>
<polygon fill="midnightblue" stroke="midnightblue" points="922.11,-121.47 931.89,-117.38 921.7,-114.48 922.11,-121.47"/>
</g>
<!-- Node12 -->
<g id="node12" class="node">
<title>Node12</title>
<g id="a_node12"><a xlink:href="a00407.html#a6a6fcd695791253a9b3a053d313b2b93" target="_top" xlink:title=" ">
<polygon fill="white" stroke="black" points="767,-44.76 767,-63.76 874,-63.76 874,-44.76 767,-44.76"/>
<text text-anchor="middle" x="820.5" y="-51.76" font-family="Helvetica,sans-Serif" font-size="10.00">LibLoader::str2jstring</text>
</a>
</g>
</g>
<!-- Node5&#45;&gt;Node12 -->
<g id="edge12" class="edge">
<title>Node5&#45;&gt;Node12</title>
<path fill="none" stroke="midnightblue" d="M693.61,-118.22C721.83,-103.88 764,-82.46 791.63,-68.42"/>
<polygon fill="midnightblue" stroke="midnightblue" points="793.42,-71.44 800.75,-63.79 790.25,-65.2 793.42,-71.44"/>
</g>
<!-- Node8 -->
<g id="node8" class="node">
<title>Node8</title>
<g id="a_node8"><a xlink:href="a00200.html#a3d31403b7971274d47d308245206bd24" target="_top" xlink:title="为当前线程创建一个env.">
<polygon fill="white" stroke="black" points="1532,-104.76 1532,-123.76 1582,-123.76 1582,-104.76 1532,-104.76"/>
<text text-anchor="middle" x="1557" y="-111.76" font-family="Helvetica,sans-Serif" font-size="10.00">newEnv</text>
</a>
</g>
</g>
<!-- Node7&#45;&gt;Node8 -->
<g id="edge7" class="edge">
<title>Node7&#45;&gt;Node8</title>
<path fill="none" stroke="midnightblue" d="M1496.06,-114.26C1504.89,-114.26 1513.75,-114.26 1521.85,-114.26"/>
<polygon fill="midnightblue" stroke="midnightblue" points="1521.98,-117.76 1531.98,-114.26 1521.98,-110.76 1521.98,-117.76"/>
</g>
<!-- Node9 -->
<g id="node9" class="node">
<title>Node9</title>
<g id="a_node9"><a xlink:href="a00768.html#ae0e482c6a813848a8f5d34957d1b6307" target="_top" xlink:title="获取全局JavaVM对象.">
<polygon fill="white" stroke="black" points="1618,-104.76 1618,-123.76 1740,-123.76 1740,-104.76 1618,-104.76"/>
<text text-anchor="middle" x="1679" y="-111.76" font-family="Helvetica,sans-Serif" font-size="10.00">JNIEnvManager::getGvm</text>
</a>
</g>
</g>
<!-- Node8&#45;&gt;Node9 -->
<g id="edge8" class="edge">
<title>Node8&#45;&gt;Node9</title>
<path fill="none" stroke="midnightblue" d="M1582.28,-114.26C1589.75,-114.26 1598.37,-114.26 1607.32,-114.26"/>
<polygon fill="midnightblue" stroke="midnightblue" points="1607.52,-117.76 1617.52,-114.26 1607.52,-110.76 1607.52,-117.76"/>
</g>
<!-- Node11 -->
<g id="node11" class="node">
<title>Node11</title>
<g id="a_node11"><a xlink:href="a00411.html#a076c5f4ff8083c7cfc6523498d0ba30f" target="_top" xlink:title=" ">
<polygon fill="white" stroke="black" points="1242,-77.26 1242,-107.26 1341,-107.26 1341,-77.26 1242,-77.26"/>
<text text-anchor="start" x="1250" y="-95.26" font-family="Helvetica,sans-Serif" font-size="10.00">LibLoader::JNIEnvs</text>
<text text-anchor="middle" x="1291.5" y="-84.26" font-family="Helvetica,sans-Serif" font-size="10.00">::getEnv</text>
</a>
</g>
</g>
<!-- Node10&#45;&gt;Node11 -->
<g id="edge10" class="edge">
<title>Node10&#45;&gt;Node11</title>
<path fill="none" stroke="midnightblue" d="M1039.11,-110.45C1092.7,-106.58 1175.65,-100.57 1231.46,-96.53"/>
<polygon fill="midnightblue" stroke="midnightblue" points="1231.83,-100.02 1241.55,-95.8 1231.32,-93.03 1231.83,-100.02"/>
</g>
<!-- Node11&#45;&gt;Node7 -->
<g id="edge11" class="edge">
<title>Node11&#45;&gt;Node7</title>
<path fill="none" stroke="midnightblue" d="M1341.31,-99.77C1349.51,-101.03 1358.16,-102.36 1366.75,-103.68"/>
<polygon fill="midnightblue" stroke="midnightblue" points="1366.36,-107.17 1376.78,-105.23 1367.43,-100.25 1366.36,-107.17"/>
</g>
<!-- Node12&#45;&gt;Node11 -->
<g id="edge13" class="edge">
<title>Node12&#45;&gt;Node11</title>
<path fill="none" stroke="midnightblue" d="M874.39,-58.55C962.71,-65.7 1139.59,-80.03 1231.7,-87.5"/>
<polygon fill="midnightblue" stroke="midnightblue" points="1231.44,-90.99 1241.69,-88.31 1232.01,-84.01 1231.44,-90.99"/>
</g>
<!-- Node13 -->
<g id="node13" class="node">
<title>Node13</title>
<g id="a_node13"><a xlink:href="a00800.html#af50d0545fe7d683e54fcd03453a423e3" target="_top" xlink:title=" ">
<polygon fill="white" stroke="black" points="924,-17.26 924,-47.26 1047,-47.26 1047,-17.26 924,-17.26"/>
<text text-anchor="start" x="932" y="-35.26" font-family="Helvetica,sans-Serif" font-size="10.00">LibLoader::LoaderLogger</text>
<text text-anchor="middle" x="985.5" y="-24.26" font-family="Helvetica,sans-Serif" font-size="10.00">::warning</text>
</a>
</g>
</g>
<!-- Node12&#45;&gt;Node13 -->
<g id="edge14" class="edge">
<title>Node12&#45;&gt;Node13</title>
<path fill="none" stroke="midnightblue" d="M874.42,-47.12C887.01,-45.42 900.65,-43.58 913.89,-41.79"/>
<polygon fill="midnightblue" stroke="midnightblue" points="914.48,-45.24 923.92,-40.44 913.54,-38.31 914.48,-45.24"/>
</g>
<!-- Node14 -->
<g id="node14" class="node">
<title>Node14</title>
<g id="a_node14"><a xlink:href="a00800.html#af4d7d5164450e25f7401d1cc15f15b8d" target="_top" xlink:title="实际暴露的接口">
<polygon fill="white" stroke="black" points="1083,-17.26 1083,-47.26 1206,-47.26 1206,-17.26 1083,-17.26"/>
<text text-anchor="start" x="1091" y="-35.26" font-family="Helvetica,sans-Serif" font-size="10.00">LibLoader::LoaderLogger</text>
<text text-anchor="middle" x="1144.5" y="-24.26" font-family="Helvetica,sans-Serif" font-size="10.00">::call_logger</text>
</a>
</g>
</g>
<!-- Node13&#45;&gt;Node14 -->
<g id="edge15" class="edge">
<title>Node13&#45;&gt;Node14</title>
<path fill="none" stroke="midnightblue" d="M1047.2,-32.26C1055.64,-32.26 1064.36,-32.26 1072.95,-32.26"/>
<polygon fill="midnightblue" stroke="midnightblue" points="1072.96,-35.76 1082.96,-32.26 1072.96,-28.76 1072.96,-35.76"/>
</g>
<!-- Node14&#45;&gt;Node11 -->
<g id="edge16" class="edge">
<title>Node14&#45;&gt;Node11</title>
<path fill="none" stroke="midnightblue" d="M1182.09,-47.4C1201.14,-55.28 1224.61,-65 1244.84,-73.37"/>
<polygon fill="midnightblue" stroke="midnightblue" points="1243.6,-76.64 1254.17,-77.23 1246.27,-70.17 1243.6,-76.64"/>
</g>
<!-- Node14&#45;&gt;Node12 -->
<g id="edge17" class="edge">
<title>Node14&#45;&gt;Node12</title>
<path fill="none" stroke="midnightblue" d="M1095.37,-17.24C1080.07,-13.15 1062.97,-9.3 1047,-7.26 992.77,-0.35 977.41,4.4 924,-7.26 895.6,-13.46 865.66,-28.28 845.52,-39.64"/>
<polygon fill="midnightblue" stroke="midnightblue" points="843.64,-36.68 836.74,-44.72 847.15,-42.74 843.64,-36.68"/>
</g>
<!-- Node16 -->
<g id="node16" class="node">
<title>Node16</title>
<g id="a_node16"><a xlink:href="a00397.html#a4208a634d81d0263c1079debe2ab58fa" target="_top" xlink:title=" ">
<polygon fill="white" stroke="black" points="298,-74.76 298,-93.76 428,-93.76 428,-74.76 298,-74.76"/>
<text text-anchor="middle" x="363" y="-81.76" font-family="Helvetica,sans-Serif" font-size="10.00">MiraiCP::json_stringmover</text>
</a>
</g>
</g>
<!-- Node15&#45;&gt;Node16 -->
<g id="edge19" class="edge">
<title>Node15&#45;&gt;Node16</title>
<path fill="none" stroke="midnightblue" d="M261.76,-84.26C270.17,-84.26 278.96,-84.26 287.69,-84.26"/>
<polygon fill="midnightblue" stroke="midnightblue" points="287.89,-87.76 297.89,-84.26 287.89,-80.76 287.89,-87.76"/>
</g>
</g>
</svg>
