<?xml version="1.0" encoding="UTF-8" standalone="no"?>
<!DOCTYPE svg PUBLIC "-//W3C//DTD SVG 1.1//EN"
 "http://www.w3.org/Graphics/SVG/1.1/DTD/svg11.dtd">
<!-- Generated by graphviz version 9.0.0 (0)
 -->
<!-- Title: Antares::ThreadPool&lt; Traits &gt; Pages: 1 -->
<svg width="482pt" height="856pt"
 viewBox="0.00 0.00 482.00 856.00" xmlns="http://www.w3.org/2000/svg" xmlns:xlink="http://www.w3.org/1999/xlink">
<g id="graph0" class="graph" transform="scale(1 1) rotate(0) translate(4 852)">
<title>Antares::ThreadPool&lt; Traits &gt;</title>
<!-- Node1 -->
<g id="Node000001" class="node">
<title>Node1</title>
<g id="a_Node000001"><a xlink:title=" ">
<polygon fill="#999999" stroke="none" points="345,-324 214,-324 214,0 345,0 345,-324"/>
<text text-anchor="start" x="234.88" y="-310.5" font-family="Helvetica,sans-Serif" font-size="10.00">Antares::ThreadPool</text>
<text text-anchor="start" x="258.5" y="-298.5" font-family="Helvetica,sans-Serif" font-size="10.00">&lt; Traits &gt;</text>
<text text-anchor="start" x="278" y="-282.5" font-family="Helvetica,sans-Serif" font-size="10.00"> </text>
<text text-anchor="start" x="218" y="-266.5" font-family="Helvetica,sans-Serif" font-size="10.00">+</text>
<text text-anchor="start" x="228" y="-266.5" font-family="Helvetica,sans-Serif" font-size="10.00">ThreadPool(concurrency</text>
<text text-anchor="start" x="228" y="-254.5" font-family="Helvetica,sans-Serif" font-size="10.00">_t thread_count_=0)</text>
<text text-anchor="start" x="218" y="-238.5" font-family="Helvetica,sans-Serif" font-size="10.00">+</text>
<text text-anchor="start" x="228" y="-238.5" font-family="Helvetica,sans-Serif" font-size="10.00">~ThreadPool()</text>
<text text-anchor="start" x="218" y="-222.5" font-family="Helvetica,sans-Serif" font-size="10.00">+</text>
<text text-anchor="start" x="228" y="-222.5" font-family="Helvetica,sans-Serif" font-size="10.00">void push_task(F &amp;&amp;task,</text>
<text text-anchor="start" x="228" y="-210.5" font-family="Helvetica,sans-Serif" font-size="10.00"> A &amp;&amp;...args)</text>
<text text-anchor="start" x="218" y="-194.5" font-family="Helvetica,sans-Serif" font-size="10.00">+</text>
<text text-anchor="start" x="228" y="-194.5" font-family="Helvetica,sans-Serif" font-size="10.00">std::future&lt; R &gt; submit</text>
<text text-anchor="start" x="228" y="-182.5" font-family="Helvetica,sans-Serif" font-size="10.00">(F &amp;&amp;task, A &amp;&amp;...args)</text>
<text text-anchor="start" x="218" y="-166.5" font-family="Helvetica,sans-Serif" font-size="10.00">+</text>
<text text-anchor="start" x="228" y="-166.5" font-family="Helvetica,sans-Serif" font-size="10.00">size_t get_thread_count()</text>
<text text-anchor="start" x="218" y="-150.5" font-family="Helvetica,sans-Serif" font-size="10.00">+</text>
<text text-anchor="start" x="228" y="-150.5" font-family="Helvetica,sans-Serif" font-size="10.00">void reset(concurrency</text>
<text text-anchor="start" x="228" y="-138.5" font-family="Helvetica,sans-Serif" font-size="10.00">_t thread_count_=0)</text>
<text text-anchor="start" x="218" y="-122.5" font-family="Helvetica,sans-Serif" font-size="10.00">+</text>
<text text-anchor="start" x="228" y="-122.5" font-family="Helvetica,sans-Serif" font-size="10.00">void resetThreadByIndex</text>
<text text-anchor="start" x="228" y="-110.5" font-family="Helvetica,sans-Serif" font-size="10.00">(size_t index)</text>
<text text-anchor="start" x="218" y="-94.5" font-family="Helvetica,sans-Serif" font-size="10.00">+</text>
<text text-anchor="start" x="228" y="-94.5" font-family="Helvetica,sans-Serif" font-size="10.00">static T * Create()</text>
<text text-anchor="start" x="218" y="-78.5" font-family="Helvetica,sans-Serif" font-size="10.00">+</text>
<text text-anchor="start" x="228" y="-78.5" font-family="Helvetica,sans-Serif" font-size="10.00">static void Destroy</text>
<text text-anchor="start" x="228" y="-66.5" font-family="Helvetica,sans-Serif" font-size="10.00">(T *promise)</text>
<text text-anchor="start" x="218" y="-50.5" font-family="Helvetica,sans-Serif" font-size="10.00">+</text>
<text text-anchor="start" x="228" y="-50.5" font-family="Helvetica,sans-Serif" font-size="10.00">static size_t getCurrent</text>
<text text-anchor="start" x="228" y="-38.5" font-family="Helvetica,sans-Serif" font-size="10.00">ThreadIndexView()</text>
<text text-anchor="start" x="219.5" y="-22.5" font-family="Helvetica,sans-Serif" font-size="10.00">&#45;</text>
<text text-anchor="start" x="228" y="-22.5" font-family="Helvetica,sans-Serif" font-size="10.00">void create_threads()</text>
<text text-anchor="start" x="219.5" y="-6.5" font-family="Helvetica,sans-Serif" font-size="10.00">&#45;</text>
<text text-anchor="start" x="228" y="-6.5" font-family="Helvetica,sans-Serif" font-size="10.00">void destroy_threads()</text>
<polygon fill="#666666" stroke="#666666" points="214,-294 214,-294 345,-294 345,-294 214,-294"/>
<polygon fill="#666666" stroke="#666666" points="214,-278 214,-278 345,-278 345,-278 214,-278"/>
<polygon fill="none" stroke="#666666" points="214,0 214,-324 345,-324 345,0 214,0"/>
</a>
</g>
</g>
<!-- Node2 -->
<g id="Node000002" class="node">
<title>Node2</title>
<g id="a_Node000002"><a xlink:href="a00944.html" target="_top" xlink:title=" ">
<polygon fill="white" stroke="none" points="277,-712 150,-712 150,-372 277,-372 277,-712"/>
<text text-anchor="start" x="157.62" y="-698.5" font-family="Helvetica,sans-Serif" font-size="10.00">Antares::ThreadPoolBase</text>
<text text-anchor="start" x="212" y="-682.5" font-family="Helvetica,sans-Serif" font-size="10.00"> </text>
<text text-anchor="start" x="154" y="-666.5" font-family="Helvetica,sans-Serif" font-size="10.00">+</text>
<text text-anchor="start" x="164" y="-666.5" font-family="Helvetica,sans-Serif" font-size="10.00">ThreadPoolBase()</text>
<text text-anchor="start" x="154" y="-650.5" font-family="Helvetica,sans-Serif" font-size="10.00">+</text>
<text text-anchor="start" x="164" y="-650.5" font-family="Helvetica,sans-Serif" font-size="10.00">~ThreadPoolBase()</text>
<text text-anchor="start" x="164" y="-638.5" font-family="Helvetica,sans-Serif" font-size="10.00">=default</text>
<text text-anchor="start" x="154" y="-622.5" font-family="Helvetica,sans-Serif" font-size="10.00">+</text>
<text text-anchor="start" x="164" y="-622.5" font-family="Helvetica,sans-Serif" font-size="10.00">void wait_for_tasks()</text>
<text text-anchor="start" x="154" y="-606.5" font-family="Helvetica,sans-Serif" font-size="10.00">+</text>
<text text-anchor="start" x="164" y="-606.5" font-family="Helvetica,sans-Serif" font-size="10.00">void pause()</text>
<text text-anchor="start" x="154" y="-590.5" font-family="Helvetica,sans-Serif" font-size="10.00">+</text>
<text text-anchor="start" x="164" y="-590.5" font-family="Helvetica,sans-Serif" font-size="10.00">size_t get_tasks_total</text>
<text text-anchor="start" x="164" y="-578.5" font-family="Helvetica,sans-Serif" font-size="10.00">() const</text>
<text text-anchor="start" x="154" y="-562.5" font-family="Helvetica,sans-Serif" font-size="10.00">+</text>
<text text-anchor="start" x="164" y="-562.5" font-family="Helvetica,sans-Serif" font-size="10.00">size_t get_tasks_queued</text>
<text text-anchor="start" x="164" y="-550.5" font-family="Helvetica,sans-Serif" font-size="10.00">() const</text>
<text text-anchor="start" x="154" y="-534.5" font-family="Helvetica,sans-Serif" font-size="10.00">+</text>
<text text-anchor="start" x="164" y="-534.5" font-family="Helvetica,sans-Serif" font-size="10.00">size_t get_tasks_running</text>
<text text-anchor="start" x="164" y="-522.5" font-family="Helvetica,sans-Serif" font-size="10.00">() const</text>
<text text-anchor="start" x="154" y="-506.5" font-family="Helvetica,sans-Serif" font-size="10.00">+</text>
<text text-anchor="start" x="164" y="-506.5" font-family="Helvetica,sans-Serif" font-size="10.00">bool is_paused() const</text>
<text text-anchor="start" x="154" y="-490.5" font-family="Helvetica,sans-Serif" font-size="10.00">+</text>
<text text-anchor="start" x="164" y="-490.5" font-family="Helvetica,sans-Serif" font-size="10.00">void unpause()</text>
<text text-anchor="start" x="154" y="-474.5" font-family="Helvetica,sans-Serif" font-size="10.00">+</text>
<text text-anchor="start" x="164" y="-474.5" font-family="Helvetica,sans-Serif" font-size="10.00">void setThreadIndex()</text>
<text text-anchor="start" x="154" y="-458.5" font-family="Helvetica,sans-Serif" font-size="10.00">+</text>
<text text-anchor="start" x="164" y="-458.5" font-family="Helvetica,sans-Serif" font-size="10.00">static size_t &amp; getThread</text>
<text text-anchor="start" x="164" y="-446.5" font-family="Helvetica,sans-Serif" font-size="10.00">Index()</text>
<text text-anchor="start" x="154.38" y="-430.5" font-family="Helvetica,sans-Serif" font-size="10.00">#</text>
<text text-anchor="start" x="164" y="-430.5" font-family="Helvetica,sans-Serif" font-size="10.00">void worker()</text>
<text text-anchor="start" x="154.38" y="-414.5" font-family="Helvetica,sans-Serif" font-size="10.00">#</text>
<text text-anchor="start" x="164" y="-414.5" font-family="Helvetica,sans-Serif" font-size="10.00">static concurrency</text>
<text text-anchor="start" x="164" y="-402.5" font-family="Helvetica,sans-Serif" font-size="10.00">_t determine_thread</text>
<text text-anchor="start" x="164" y="-390.5" font-family="Helvetica,sans-Serif" font-size="10.00">_count(concurrency_t</text>
<text text-anchor="start" x="164" y="-378.5" font-family="Helvetica,sans-Serif" font-size="10.00"> thread_count_)</text>
<polygon fill="#666666" stroke="#666666" points="150,-694 150,-694 277,-694 277,-694 150,-694"/>
<polygon fill="#666666" stroke="#666666" points="150,-678 150,-678 277,-678 277,-678 150,-678"/>
<polygon fill="none" stroke="#666666" points="150,-372 150,-712 277,-712 277,-372 150,-372"/>
</a>
</g>
</g>
<!-- Node2&#45;&gt;Node1 -->
<g id="edge1_Node000001_Node000002" class="edge">
<title>Node2&#45;&gt;Node1</title>
<g id="a_edge1_Node000001_Node000002"><a xlink:title=" ">
<path fill="none" stroke="#63b8ff" d="M244.95,-360.88C247.1,-348.55 249.26,-336.17 251.4,-323.96"/>
<polygon fill="none" stroke="#63b8ff" points="241.51,-360.23 243.24,-370.69 248.41,-361.44 241.51,-360.23"/>
</a>
</g>
</g>
<!-- Node3 -->
<g id="Node000003" class="node">
<title>Node3</title>
<g id="a_Node000003"><a xlink:title=" ">
<polygon fill="white" stroke="none" points="37,-842 0,-842 0,-790 37,-790 37,-842"/>
<text text-anchor="start" x="5" y="-828.5" font-family="Helvetica,sans-Serif" font-size="10.00">mutex</text>
<text text-anchor="start" x="17" y="-812.5" font-family="Helvetica,sans-Serif" font-size="10.00"> </text>
<text text-anchor="start" x="17" y="-796.5" font-family="Helvetica,sans-Serif" font-size="10.00"> </text>
<polygon fill="#666666" stroke="#666666" points="0,-824 0,-824 37,-824 37,-824 0,-824"/>
<polygon fill="#666666" stroke="#666666" points="0,-808 0,-808 37,-808 37,-808 0,-808"/>
<polygon fill="none" stroke="#666666" points="0,-790 0,-842 37,-842 37,-790 0,-790"/>
</a>
</g>
</g>
<!-- Node3&#45;&gt;Node2 -->
<g id="edge2_Node000002_Node000003" class="edge">
<title>Node3&#45;&gt;Node2</title>
<g id="a_edge2_Node000002_Node000003"><a xlink:title=" ">
<path fill="none" stroke="#63b8ff" d="M31.56,-790.27C40.96,-773.01 54.27,-749.64 67.5,-730 90.45,-695.94 117.67,-660.05 142.35,-628.91"/>
<polygon fill="none" stroke="#63b8ff" points="142.23,-629.07 142.84,-621.88 149.71,-619.68 149.1,-626.87 142.23,-629.07"/>
</a>
</g>
<text text-anchor="middle" x="94.5" y="-744.5" font-family="Helvetica,sans-Serif" font-size="10.00" fill="grey"> #tasks_mtx</text>
</g>
<!-- Node4 -->
<g id="Node000004" class="node">
<title>Node4</title>
<g id="a_Node000004"><a xlink:title=" ">
<polygon fill="white" stroke="none" points="154,-848 55,-848 55,-784 154,-784 154,-848"/>
<text text-anchor="start" x="59.88" y="-834.5" font-family="Helvetica,sans-Serif" font-size="10.00">queue&lt; std::function</text>
<text text-anchor="start" x="80.5" y="-822.5" font-family="Helvetica,sans-Serif" font-size="10.00">&lt; void()&gt; &gt;</text>
<text text-anchor="start" x="103" y="-806.5" font-family="Helvetica,sans-Serif" font-size="10.00"> </text>
<text text-anchor="start" x="103" y="-790.5" font-family="Helvetica,sans-Serif" font-size="10.00"> </text>
<polygon fill="#666666" stroke="#666666" points="55,-818 55,-818 154,-818 154,-818 55,-818"/>
<polygon fill="#666666" stroke="#666666" points="55,-802 55,-802 154,-802 154,-802 55,-802"/>
<polygon fill="none" stroke="#666666" points="55,-784 55,-848 154,-848 154,-784 55,-784"/>
</a>
</g>
</g>
<!-- Node4&#45;&gt;Node2 -->
<g id="edge3_Node000002_Node000004" class="edge">
<title>Node4&#45;&gt;Node2</title>
<g id="a_edge3_Node000002_Node000004"><a xlink:title=" ">
<path fill="none" stroke="#63b8ff" d="M116.9,-784.06C124.34,-765.48 134.47,-740.21 145.37,-713"/>
<polygon fill="none" stroke="#63b8ff" points="145.29,-713.21 143.81,-706.16 149.75,-702.08 151.23,-709.13 145.29,-713.21"/>
</a>
</g>
<text text-anchor="middle" x="153.62" y="-744.5" font-family="Helvetica,sans-Serif" font-size="10.00" fill="grey"> #tasks</text>
</g>
<!-- Node5 -->
<g id="Node000005" class="node">
<title>Node5</title>
<g id="a_Node000005"><a xlink:title=" ">
<polygon fill="white" stroke="none" points="260.5,-842 172.5,-842 172.5,-790 260.5,-790 260.5,-842"/>
<text text-anchor="start" x="177.5" y="-828.5" font-family="Helvetica,sans-Serif" font-size="10.00">condition_variable</text>
<text text-anchor="start" x="215" y="-812.5" font-family="Helvetica,sans-Serif" font-size="10.00"> </text>
<text text-anchor="start" x="215" y="-796.5" font-family="Helvetica,sans-Serif" font-size="10.00"> </text>
<polygon fill="#666666" stroke="#666666" points="172.5,-824 172.5,-824 260.5,-824 260.5,-824 172.5,-824"/>
<polygon fill="#666666" stroke="#666666" points="172.5,-808 172.5,-808 260.5,-808 260.5,-808 172.5,-808"/>
<polygon fill="none" stroke="#666666" points="172.5,-790 172.5,-842 260.5,-842 260.5,-790 172.5,-790"/>
</a>
</g>
</g>
<!-- Node5&#45;&gt;Node2 -->
<g id="edge4_Node000002_Node000005" class="edge">
<title>Node5&#45;&gt;Node2</title>
<g id="a_edge4_Node000002_Node000005"><a xlink:title=" ">
<path fill="none" stroke="#63b8ff" d="M215.15,-790.08C214.79,-782.36 214.44,-773.83 214.25,-766 213.92,-752.59 213.67,-738.73 213.47,-724.78"/>
<polygon fill="none" stroke="#63b8ff" points="213.47,-724.85 209.4,-718.9 213.32,-712.85 217.4,-718.8 213.47,-724.85"/>
</a>
</g>
<text text-anchor="middle" x="257.62" y="-750.5" font-family="Helvetica,sans-Serif" font-size="10.00" fill="grey"> #task_available_cv</text>
<text text-anchor="middle" x="257.62" y="-738.5" font-family="Helvetica,sans-Serif" font-size="10.00" fill="grey">#task_done_cv</text>
</g>
<!-- Node6 -->
<g id="Node000006" class="node">
<title>Node6</title>
<g id="a_Node000006"><a xlink:title=" ">
<polygon fill="white" stroke="none" points="364,-842 281,-842 281,-790 364,-790 364,-842"/>
<text text-anchor="start" x="285.75" y="-828.5" font-family="Helvetica,sans-Serif" font-size="10.00">atomic&lt; size_t &gt;</text>
<text text-anchor="start" x="321" y="-812.5" font-family="Helvetica,sans-Serif" font-size="10.00"> </text>
<text text-anchor="start" x="321" y="-796.5" font-family="Helvetica,sans-Serif" font-size="10.00"> </text>
<polygon fill="#666666" stroke="#666666" points="281,-824 281,-824 364,-824 364,-824 281,-824"/>
<polygon fill="#666666" stroke="#666666" points="281,-808 281,-808 364,-808 364,-808 281,-808"/>
<polygon fill="none" stroke="#666666" points="281,-790 281,-842 364,-842 364,-790 281,-790"/>
</a>
</g>
</g>
<!-- Node6&#45;&gt;Node2 -->
<g id="edge5_Node000002_Node000006" class="edge">
<title>Node6&#45;&gt;Node2</title>
<g id="a_edge5_Node000002_Node000006"><a xlink:title=" ">
<path fill="none" stroke="#63b8ff" d="M319.04,-790.15C315.91,-772.63 310.24,-748.99 300.5,-730 295.75,-720.73 290.93,-720.88 285.5,-712 284.77,-710.81 284.05,-709.61 283.33,-708.4"/>
<polygon fill="none" stroke="#63b8ff" points="283.4,-708.52 276.93,-705.32 277.41,-698.12 283.87,-701.32 283.4,-708.52"/>
</a>
</g>
<text text-anchor="middle" x="358.88" y="-750.5" font-family="Helvetica,sans-Serif" font-size="10.00" fill="grey"> #tasks_total</text>
<text text-anchor="middle" x="358.88" y="-738.5" font-family="Helvetica,sans-Serif" font-size="10.00" fill="grey">#threadIndexCounter</text>
</g>
<!-- Node7 -->
<g id="Node000007" class="node">
<title>Node7</title>
<g id="a_Node000007"><a xlink:title=" ">
<polygon fill="white" stroke="none" points="474,-842 399,-842 399,-790 474,-790 474,-842"/>
<text text-anchor="start" x="403.88" y="-828.5" font-family="Helvetica,sans-Serif" font-size="10.00">atomic&lt; bool &gt;</text>
<text text-anchor="start" x="435" y="-812.5" font-family="Helvetica,sans-Serif" font-size="10.00"> </text>
<text text-anchor="start" x="435" y="-796.5" font-family="Helvetica,sans-Serif" font-size="10.00"> </text>
<polygon fill="#666666" stroke="#666666" points="399,-824 399,-824 474,-824 474,-824 399,-824"/>
<polygon fill="#666666" stroke="#666666" points="399,-808 399,-808 474,-808 474,-808 399,-808"/>
<polygon fill="none" stroke="#666666" points="399,-790 399,-842 474,-842 474,-790 399,-790"/>
</a>
</g>
</g>
<!-- Node7&#45;&gt;Node2 -->
<g id="edge6_Node000002_Node000007" class="edge">
<title>Node7&#45;&gt;Node2</title>
<g id="a_edge6_Node000002_Node000007"><a xlink:title=" ">
<path fill="none" stroke="#63b8ff" d="M435.15,-790.28C432.71,-770.89 426.1,-744.8 408.5,-730 369.1,-696.88 334.33,-739.12 287.33,-711.76"/>
<polygon fill="none" stroke="#63b8ff" points="287.43,-711.83 280.22,-711.75 277.52,-705.06 284.73,-705.14 287.43,-711.83"/>
</a>
</g>
<text text-anchor="middle" x="449.38" y="-756.5" font-family="Helvetica,sans-Serif" font-size="10.00" fill="grey"> #paused</text>
<text text-anchor="middle" x="449.38" y="-744.5" font-family="Helvetica,sans-Serif" font-size="10.00" fill="grey">#running</text>
<text text-anchor="middle" x="449.38" y="-732.5" font-family="Helvetica,sans-Serif" font-size="10.00" fill="grey">#waiting</text>
</g>
<!-- Node8 -->
<g id="Node000008" class="node">
<title>Node8</title>
<g id="a_Node000008"><a xlink:title=" ">
<polygon fill="white" stroke="none" points="396,-568 295,-568 295,-516 396,-516 396,-568"/>
<text text-anchor="start" x="299.75" y="-554.5" font-family="Helvetica,sans-Serif" font-size="10.00">vector&lt; std::thread &gt;</text>
<text text-anchor="start" x="344" y="-538.5" font-family="Helvetica,sans-Serif" font-size="10.00"> </text>
<text text-anchor="start" x="344" y="-522.5" font-family="Helvetica,sans-Serif" font-size="10.00"> </text>
<polygon fill="#666666" stroke="#666666" points="295,-550 295,-550 396,-550 396,-550 295,-550"/>
<polygon fill="#666666" stroke="#666666" points="295,-534 295,-534 396,-534 396,-534 295,-534"/>
<polygon fill="none" stroke="#666666" points="295,-516 295,-568 396,-568 396,-516 295,-516"/>
</a>
</g>
</g>
<!-- Node8&#45;&gt;Node1 -->
<g id="edge7_Node000001_Node000008" class="edge">
<title>Node8&#45;&gt;Node1</title>
<g id="a_edge7_Node000001_Node000008"><a xlink:title=" ">
<path fill="none" stroke="#63b8ff" d="M341.17,-516.2C334.7,-479.17 321.97,-406.26 309.75,-336.25"/>
<polygon fill="none" stroke="#63b8ff" points="309.77,-336.39 304.8,-331.17 307.71,-324.57 312.68,-329.79 309.77,-336.39"/>
</a>
</g>
<text text-anchor="middle" x="332.75" y="-344.5" font-family="Helvetica,sans-Serif" font-size="10.00" fill="grey"> #threads</text>
</g>
</g>
</svg>
