<?xml version="1.0" encoding="UTF-8" standalone="no"?>
<!DOCTYPE svg PUBLIC "-//W3C//DTD SVG 1.1//EN"
 "http://www.w3.org/Graphics/SVG/1.1/DTD/svg11.dtd">
<!-- Generated by graphviz version 9.0.0 (0)
 -->
<!-- Title: LibLoader::PluginManager::reloadAllPlugin Pages: 1 -->
<svg width="1952pt" height="468pt"
 viewBox="0.00 0.00 1951.50 468.00" xmlns="http://www.w3.org/2000/svg" xmlns:xlink="http://www.w3.org/1999/xlink">
<g id="graph0" class="graph" transform="scale(1 1) rotate(0) translate(4 464)">
<title>LibLoader::PluginManager::reloadAllPlugin</title>
<!-- Node1 -->
<g id="Node000001" class="node">
<title>Node1</title>
<g id="a_Node000001"><a xlink:title=" ">
<polygon fill="#999999" stroke="#666666" points="128.5,-378 0,-378 0,-346 128.5,-346 128.5,-378"/>
<text text-anchor="start" x="8" y="-364.5" font-family="Helvetica,sans-Serif" font-size="10.00">LibLoader::PluginManager</text>
<text text-anchor="middle" x="64.25" y="-352.5" font-family="Helvetica,sans-Serif" font-size="10.00">::reloadAllPlugin</text>
</a>
</g>
</g>
<!-- Node2 -->
<g id="Node000002" class="node">
<title>Node2</title>
<g id="a_Node000002"><a xlink:href="a00872.html#ae735f16b20f681d29d4e5d28ad248dbe" target="_top" xlink:title=" ">
<polygon fill="white" stroke="#666666" points="1059.62,-460 937.12,-460 937.12,-428 1059.62,-428 1059.62,-460"/>
<text text-anchor="start" x="945.12" y="-446.5" font-family="Helvetica,sans-Serif" font-size="10.00">LibLoader::LoaderLogger</text>
<text text-anchor="middle" x="998.38" y="-434.5" font-family="Helvetica,sans-Serif" font-size="10.00">::error</text>
</a>
</g>
</g>
<!-- Node1&#45;&gt;Node2 -->
<g id="edge1_Node000001_Node000002" class="edge">
<title>Node1&#45;&gt;Node2</title>
<g id="a_edge1_Node000001_Node000002"><a xlink:title=" ">
<path fill="none" stroke="#63b8ff" d="M109.77,-378.47C172.06,-400 289.15,-435 392.25,-435 392.25,-435 392.25,-435 691,-435 771.28,-435 863.34,-438.13 925.41,-440.69"/>
<polygon fill="#63b8ff" stroke="#63b8ff" points="924.99,-444.18 935.13,-441.1 925.29,-437.18 924.99,-444.18"/>
</a>
</g>
</g>
<!-- Node10 -->
<g id="Node000010" class="node">
<title>Node10</title>
<g id="a_Node000010"><a xlink:href="a00928.html#a7908686a60d87cd6c670cbc581331024" target="_top" xlink:title=" ">
<polygon fill="white" stroke="#666666" points="293,-378 164.5,-378 164.5,-346 293,-346 293,-378"/>
<text text-anchor="start" x="172.5" y="-364.5" font-family="Helvetica,sans-Serif" font-size="10.00">LibLoader::PluginManager</text>
<text text-anchor="middle" x="228.75" y="-352.5" font-family="Helvetica,sans-Serif" font-size="10.00">::loadNewPluginByPath</text>
</a>
</g>
</g>
<!-- Node1&#45;&gt;Node10 -->
<g id="edge11_Node000001_Node000010" class="edge">
<title>Node1&#45;&gt;Node10</title>
<g id="a_edge11_Node000001_Node000010"><a xlink:title=" ">
<path fill="none" stroke="#63b8ff" d="M128.54,-362C136.48,-362 144.65,-362 152.74,-362"/>
<polygon fill="#63b8ff" stroke="#63b8ff" points="152.58,-365.5 162.58,-362 152.58,-358.5 152.58,-365.5"/>
</a>
</g>
</g>
<!-- Node28 -->
<g id="Node000028" class="node">
<title>Node28</title>
<g id="a_Node000028"><a xlink:href="a00928.html#aa3bbd30b114b1ea8c883ec7f844cf372" target="_top" xlink:title="unload全部插件，但不会修改任何key">
<polygon fill="white" stroke="#666666" points="293,-328 164.5,-328 164.5,-296 293,-296 293,-328"/>
<text text-anchor="start" x="172.5" y="-314.5" font-family="Helvetica,sans-Serif" font-size="10.00">LibLoader::PluginManager</text>
<text text-anchor="middle" x="228.75" y="-302.5" font-family="Helvetica,sans-Serif" font-size="10.00">::unloadAll</text>
</a>
</g>
</g>
<!-- Node1&#45;&gt;Node28 -->
<g id="edge35_Node000001_Node000028" class="edge">
<title>Node1&#45;&gt;Node28</title>
<g id="a_edge35_Node000001_Node000028"><a xlink:title=" ">
<path fill="none" stroke="#63b8ff" d="M118.46,-345.63C132.83,-341.2 148.54,-336.37 163.46,-331.78"/>
<polygon fill="#63b8ff" stroke="#63b8ff" points="164.17,-335.23 172.7,-328.94 162.11,-328.54 164.17,-335.23"/>
</a>
</g>
</g>
<!-- Node3 -->
<g id="Node000003" class="node">
<title>Node3</title>
<g id="a_Node000003"><a xlink:href="a00872.html#af4d7d5164450e25f7401d1cc15f15b8d" target="_top" xlink:title="实际暴露的接口">
<polygon fill="white" stroke="#666666" points="1232.75,-372 1110.25,-372 1110.25,-340 1232.75,-340 1232.75,-372"/>
<text text-anchor="start" x="1118.25" y="-358.5" font-family="Helvetica,sans-Serif" font-size="10.00">LibLoader::LoaderLogger</text>
<text text-anchor="middle" x="1171.5" y="-346.5" font-family="Helvetica,sans-Serif" font-size="10.00">::call_logger</text>
</a>
</g>
</g>
<!-- Node2&#45;&gt;Node3 -->
<g id="edge2_Node000002_Node000003" class="edge">
<title>Node2&#45;&gt;Node3</title>
<g id="a_edge2_Node000002_Node000003"><a xlink:title=" ">
<path fill="none" stroke="#63b8ff" d="M1054.02,-427.59C1060.94,-424.98 1067.84,-422.11 1074.25,-419 1097.26,-407.86 1121.32,-392.11 1139.63,-379.15"/>
<polygon fill="#63b8ff" stroke="#63b8ff" points="1141.61,-382.04 1147.68,-373.35 1137.52,-376.36 1141.61,-382.04"/>
</a>
</g>
</g>
<!-- Node4 -->
<g id="Node000004" class="node">
<title>Node4</title>
<g id="a_Node000004"><a xlink:href="a00430.html#a076c5f4ff8083c7cfc6523498d0ba30f" target="_top" xlink:title=" ">
<polygon fill="white" stroke="#666666" points="1523.88,-378 1421.62,-378 1421.62,-346 1523.88,-346 1523.88,-378"/>
<text text-anchor="start" x="1429.62" y="-364.5" font-family="Helvetica,sans-Serif" font-size="10.00">LibLoader::JNIEnvs</text>
<text text-anchor="middle" x="1472.75" y="-352.5" font-family="Helvetica,sans-Serif" font-size="10.00">::getEnv</text>
</a>
</g>
</g>
<!-- Node3&#45;&gt;Node4 -->
<g id="edge3_Node000003_Node000004" class="edge">
<title>Node3&#45;&gt;Node4</title>
<g id="a_edge3_Node000003_Node000004"><a xlink:title=" ">
<path fill="none" stroke="#63b8ff" d="M1233.06,-357.21C1284.5,-358.25 1358.03,-359.72 1409.85,-360.76"/>
<polygon fill="#63b8ff" stroke="#63b8ff" points="1409.64,-364.26 1419.71,-360.96 1409.78,-357.26 1409.64,-364.26"/>
</a>
</g>
</g>
<!-- Node8 -->
<g id="Node000008" class="node">
<title>Node8</title>
<g id="a_Node000008"><a xlink:href="a00425.html#a6a6fcd695791253a9b3a053d313b2b93" target="_top" xlink:title=" ">
<polygon fill="white" stroke="#666666" points="1375.5,-347 1268.75,-347 1268.75,-327 1375.5,-327 1375.5,-347"/>
<text text-anchor="middle" x="1322.12" y="-333.5" font-family="Helvetica,sans-Serif" font-size="10.00">LibLoader::str2jstring</text>
</a>
</g>
</g>
<!-- Node3&#45;&gt;Node8 -->
<g id="edge7_Node000003_Node000008" class="edge">
<title>Node3&#45;&gt;Node8</title>
<g id="a_edge7_Node000003_Node000008"><a xlink:title=" ">
<path fill="none" stroke="#63b8ff" d="M1232.95,-348.27C1240.93,-347.25 1249.12,-346.2 1257.15,-345.18"/>
<polygon fill="#63b8ff" stroke="#63b8ff" points="1257.38,-348.68 1266.86,-343.94 1256.49,-341.73 1257.38,-348.68"/>
</a>
</g>
</g>
<!-- Node5 -->
<g id="Node000005" class="node">
<title>Node5</title>
<g id="a_Node000005"><a xlink:href="a00840.html#aea7d58ff9f04d6d4849c25a2506603a5" target="_top" xlink:title="取env,如果不存在重新获取">
<polygon fill="white" stroke="#666666" points="1693.25,-372 1570,-372 1570,-352 1693.25,-352 1693.25,-372"/>
<text text-anchor="middle" x="1631.62" y="-358.5" font-family="Helvetica,sans-Serif" font-size="10.00">JNIEnvManager::getEnv</text>
</a>
</g>
</g>
<!-- Node4&#45;&gt;Node5 -->
<g id="edge4_Node000004_Node000005" class="edge">
<title>Node4&#45;&gt;Node5</title>
<g id="a_edge4_Node000004_Node000005"><a xlink:title=" ">
<path fill="none" stroke="#63b8ff" d="M1524.25,-362C1535.07,-362 1546.7,-362 1558.16,-362"/>
<polygon fill="#63b8ff" stroke="#63b8ff" points="1558.01,-365.5 1568.01,-362 1558.01,-358.5 1558.01,-365.5"/>
</a>
</g>
</g>
<!-- Node6 -->
<g id="Node000006" class="node">
<title>Node6</title>
<g id="a_Node000006"><a xlink:href="a00260.html#a3d31403b7971274d47d308245206bd24" target="_top" xlink:title="为当前线程创建一个env.">
<polygon fill="white" stroke="#666666" points="1780.5,-372 1729.25,-372 1729.25,-352 1780.5,-352 1780.5,-372"/>
<text text-anchor="middle" x="1754.88" y="-358.5" font-family="Helvetica,sans-Serif" font-size="10.00">newEnv</text>
</a>
</g>
</g>
<!-- Node5&#45;&gt;Node6 -->
<g id="edge5_Node000005_Node000006" class="edge">
<title>Node5&#45;&gt;Node6</title>
<g id="a_edge5_Node000005_Node000006"><a xlink:title=" ">
<path fill="none" stroke="#63b8ff" d="M1693.61,-362C1701.81,-362 1710.01,-362 1717.59,-362"/>
<polygon fill="#63b8ff" stroke="#63b8ff" points="1717.41,-365.5 1727.41,-362 1717.41,-358.5 1717.41,-365.5"/>
</a>
</g>
</g>
<!-- Node7 -->
<g id="Node000007" class="node">
<title>Node7</title>
<g id="a_Node000007"><a xlink:href="a00840.html#ae0e482c6a813848a8f5d34957d1b6307" target="_top" xlink:title="获取全局JavaVM对象.">
<polygon fill="white" stroke="#666666" points="1943.5,-372 1816.5,-372 1816.5,-352 1943.5,-352 1943.5,-372"/>
<text text-anchor="middle" x="1880" y="-358.5" font-family="Helvetica,sans-Serif" font-size="10.00">JNIEnvManager::getGvm</text>
</a>
</g>
</g>
<!-- Node6&#45;&gt;Node7 -->
<g id="edge6_Node000006_Node000007" class="edge">
<title>Node6&#45;&gt;Node7</title>
<g id="a_edge6_Node000006_Node000007"><a xlink:title=" ">
<path fill="none" stroke="#63b8ff" d="M1780.79,-362C1787.97,-362 1796.2,-362 1804.77,-362"/>
<polygon fill="#63b8ff" stroke="#63b8ff" points="1804.66,-365.5 1814.66,-362 1804.66,-358.5 1804.66,-365.5"/>
</a>
</g>
</g>
<!-- Node8&#45;&gt;Node4 -->
<g id="edge8_Node000008_Node000004" class="edge">
<title>Node8&#45;&gt;Node4</title>
<g id="a_edge8_Node000008_Node000004"><a xlink:title=" ">
<path fill="none" stroke="#63b8ff" d="M1375.94,-345.88C1387.08,-347.76 1398.93,-349.75 1410.35,-351.67"/>
<polygon fill="#63b8ff" stroke="#63b8ff" points="1409.66,-355.1 1420.1,-353.31 1410.82,-348.2 1409.66,-355.1"/>
</a>
</g>
</g>
<!-- Node9 -->
<g id="Node000009" class="node">
<title>Node9</title>
<g id="a_Node000009"><a xlink:href="a00872.html#af50d0545fe7d683e54fcd03453a423e3" target="_top" xlink:title=" ">
<polygon fill="white" stroke="#666666" points="1534,-315 1411.5,-315 1411.5,-283 1534,-283 1534,-315"/>
<text text-anchor="start" x="1419.5" y="-301.5" font-family="Helvetica,sans-Serif" font-size="10.00">LibLoader::LoaderLogger</text>
<text text-anchor="middle" x="1472.75" y="-289.5" font-family="Helvetica,sans-Serif" font-size="10.00">::warning</text>
</a>
</g>
</g>
<!-- Node8&#45;&gt;Node9 -->
<g id="edge9_Node000008_Node000009" class="edge">
<title>Node8&#45;&gt;Node9</title>
<g id="a_edge9_Node000008_Node000009"><a xlink:title=" ">
<path fill="none" stroke="#63b8ff" d="M1364.13,-326.52C1375.36,-323.64 1387.87,-320.45 1400.28,-317.27"/>
<polygon fill="#63b8ff" stroke="#63b8ff" points="1400.83,-320.75 1409.65,-314.88 1399.1,-313.96 1400.83,-320.75"/>
</a>
</g>
</g>
<!-- Node9&#45;&gt;Node3 -->
<g id="edge10_Node000009_Node000003" class="edge">
<title>Node9&#45;&gt;Node3</title>
<g id="a_edge10_Node000009_Node000003"><a xlink:title=" ">
<path fill="none" stroke="#63b8ff" d="M1411.06,-300.21C1370.34,-302.11 1315.74,-306.77 1268.75,-318 1251.57,-322.11 1233.39,-328.66 1217.51,-335.18"/>
<polygon fill="#63b8ff" stroke="#63b8ff" points="1216.17,-331.95 1208.32,-339.07 1218.9,-338.4 1216.17,-331.95"/>
</a>
</g>
</g>
<!-- Node11 -->
<g id="Node000011" class="node">
<title>Node11</title>
<g id="a_Node000011"><a xlink:href="a00928.html#ad25e53978364d19bf050d66799e579af" target="_top" xlink:title=" ">
<polygon fill="white" stroke="#666666" points="457.5,-348 329,-348 329,-316 457.5,-316 457.5,-348"/>
<text text-anchor="start" x="337" y="-334.5" font-family="Helvetica,sans-Serif" font-size="10.00">LibLoader::PluginManager</text>
<text text-anchor="middle" x="393.25" y="-322.5" font-family="Helvetica,sans-Serif" font-size="10.00">::addNewPlugin</text>
</a>
</g>
</g>
<!-- Node10&#45;&gt;Node11 -->
<g id="edge12_Node000010_Node000011" class="edge">
<title>Node10&#45;&gt;Node11</title>
<g id="a_edge12_Node000010_Node000011"><a xlink:title=" ">
<path fill="none" stroke="#63b8ff" d="M293.04,-350.32C301.07,-348.83 309.34,-347.31 317.52,-345.8"/>
<polygon fill="#63b8ff" stroke="#63b8ff" points="317.91,-349.28 327.11,-344.03 316.64,-342.4 317.91,-349.28"/>
</a>
</g>
</g>
<!-- Node11&#45;&gt;Node2 -->
<g id="edge13_Node000011_Node000002" class="edge">
<title>Node11&#45;&gt;Node2</title>
<g id="a_edge13_Node000011_Node000002"><a xlink:title=" ">
<path fill="none" stroke="#63b8ff" d="M456.27,-348.49C468.56,-351.51 481.41,-354.5 493.5,-357 666.79,-392.87 712.49,-388.8 886.5,-421 899.13,-423.34 912.54,-425.98 925.51,-428.62"/>
<polygon fill="#63b8ff" stroke="#63b8ff" points="924.78,-432.04 935.28,-430.63 926.18,-425.19 924.78,-432.04"/>
</a>
</g>
</g>
<!-- Node12 -->
<g id="Node000012" class="node">
<title>Node12</title>
<g id="a_Node000012"><a xlink:href="a00916.html#aa3969cacef7e9a28baa578a90d01aa23" target="_top" xlink:title="安全、带锁地获取id">
<polygon fill="white" stroke="#666666" points="879,-110 782,-110 782,-78 879,-78 879,-110"/>
<text text-anchor="start" x="790" y="-96.5" font-family="Helvetica,sans-Serif" font-size="10.00">LibLoader::Plugin::</text>
<text text-anchor="middle" x="830.5" y="-84.5" font-family="Helvetica,sans-Serif" font-size="10.00">getIdSafe</text>
</a>
</g>
</g>
<!-- Node11&#45;&gt;Node12 -->
<g id="edge14_Node000011_Node000012" class="edge">
<title>Node11&#45;&gt;Node12</title>
<g id="a_edge14_Node000011_Node000012"><a xlink:title=" ">
<path fill="none" stroke="#63b8ff" d="M406.79,-315.82C424.22,-294.22 457.71,-255.93 493.5,-232 582.44,-172.52 701.09,-131.26 770.99,-110.2"/>
<polygon fill="#63b8ff" stroke="#63b8ff" points="771.74,-113.63 780.32,-107.43 769.74,-106.92 771.74,-113.63"/>
</a>
</g>
</g>
<!-- Node15 -->
<g id="Node000015" class="node">
<title>Node15</title>
<g id="a_Node000015"><a xlink:href="a00924.html#a5907aa03cd2b359eb901423314467338" target="_top" xlink:title=" ">
<polygon fill="white" stroke="#666666" points="605.5,-348 493.5,-348 493.5,-316 605.5,-316 605.5,-348"/>
<text text-anchor="start" x="501.5" y="-334.5" font-family="Helvetica,sans-Serif" font-size="10.00">LibLoader::PluginData</text>
<text text-anchor="middle" x="549.5" y="-322.5" font-family="Helvetica,sans-Serif" font-size="10.00">::isLoaded</text>
</a>
</g>
</g>
<!-- Node11&#45;&gt;Node15 -->
<g id="edge17_Node000011_Node000015" class="edge">
<title>Node11&#45;&gt;Node15</title>
<g id="a_edge17_Node000011_Node000015"><a xlink:title=" ">
<path fill="none" stroke="#63b8ff" d="M457.88,-332C465.89,-332 474.1,-332 482.15,-332"/>
<polygon fill="#63b8ff" stroke="#63b8ff" points="481.87,-335.5 491.87,-332 481.87,-328.5 481.87,-335.5"/>
</a>
</g>
</g>
<!-- Node16 -->
<g id="Node000016" class="node">
<title>Node16</title>
<g id="a_Node000016"><a xlink:href="a00916.html#abc57e6dfaed7b6445c8ba8d94b09ec13" target="_top" xlink:title=" ">
<polygon fill="white" stroke="#666666" points="598,-273 501,-273 501,-241 598,-241 598,-273"/>
<text text-anchor="start" x="509" y="-259.5" font-family="Helvetica,sans-Serif" font-size="10.00">LibLoader::Plugin::</text>
<text text-anchor="middle" x="549.5" y="-247.5" font-family="Helvetica,sans-Serif" font-size="10.00">unloadPlugin</text>
</a>
</g>
</g>
<!-- Node11&#45;&gt;Node16 -->
<g id="edge18_Node000011_Node000016" class="edge">
<title>Node11&#45;&gt;Node16</title>
<g id="a_edge18_Node000011_Node000016"><a xlink:title=" ">
<path fill="none" stroke="#63b8ff" d="M428.1,-315.54C450.6,-304.6 480.38,-290.12 504.68,-278.31"/>
<polygon fill="#63b8ff" stroke="#63b8ff" points="505.9,-281.6 513.37,-274.08 502.84,-275.31 505.9,-281.6"/>
</a>
</g>
</g>
<!-- Node13 -->
<g id="Node000013" class="node">
<title>Node13</title>
<g id="a_Node000013"><a xlink:href="a00924.html#a0c7449a3e94c1e4659337e62fc513fd8" target="_top" xlink:title=" ">
<polygon fill="white" stroke="#666666" points="1054.38,-60 942.38,-60 942.38,-28 1054.38,-28 1054.38,-60"/>
<text text-anchor="start" x="950.38" y="-46.5" font-family="Helvetica,sans-Serif" font-size="10.00">LibLoader::PluginData</text>
<text text-anchor="middle" x="998.38" y="-34.5" font-family="Helvetica,sans-Serif" font-size="10.00">::_getId</text>
</a>
</g>
</g>
<!-- Node12&#45;&gt;Node13 -->
<g id="edge15_Node000012_Node000013" class="edge">
<title>Node12&#45;&gt;Node13</title>
<g id="a_edge15_Node000012_Node000013"><a xlink:title=" ">
<path fill="none" stroke="#63b8ff" d="M879.48,-79.54C895.88,-74.59 914.51,-68.98 932.05,-63.69"/>
<polygon fill="#63b8ff" stroke="#63b8ff" points="932.78,-67.13 941.34,-60.89 930.76,-60.42 932.78,-67.13"/>
</a>
</g>
</g>
<!-- Node14 -->
<g id="Node000014" class="node">
<title>Node14</title>
<g id="a_Node000014"><a xlink:href="a00916.html#ae42c2fb572d9814de8f0a10ca2c0d2f3" target="_top" xlink:title=" ">
<polygon fill="white" stroke="#666666" points="1046.88,-110 949.88,-110 949.88,-78 1046.88,-78 1046.88,-110"/>
<text text-anchor="start" x="957.88" y="-96.5" font-family="Helvetica,sans-Serif" font-size="10.00">LibLoader::Plugin::</text>
<text text-anchor="middle" x="998.38" y="-84.5" font-family="Helvetica,sans-Serif" font-size="10.00">checkValid</text>
</a>
</g>
</g>
<!-- Node12&#45;&gt;Node14 -->
<g id="edge16_Node000012_Node000014" class="edge">
<title>Node12&#45;&gt;Node14</title>
<g id="a_edge16_Node000012_Node000014"><a xlink:title=" ">
<path fill="none" stroke="#63b8ff" d="M879.48,-94C897.79,-94 918.88,-94 938.12,-94"/>
<polygon fill="#63b8ff" stroke="#63b8ff" points="937.99,-97.5 947.99,-94 937.99,-90.5 937.99,-97.5"/>
</a>
</g>
</g>
<!-- Node17 -->
<g id="Node000017" class="node">
<title>Node17</title>
<g id="a_Node000017"><a xlink:href="a00916.html#ac03a32a4b96ba4618fee0628d3998aef" target="_top" xlink:title=" ">
<polygon fill="white" stroke="#666666" points="738.5,-260 641.5,-260 641.5,-228 738.5,-228 738.5,-260"/>
<text text-anchor="start" x="649.5" y="-246.5" font-family="Helvetica,sans-Serif" font-size="10.00">LibLoader::Plugin::</text>
<text text-anchor="middle" x="690" y="-234.5" font-family="Helvetica,sans-Serif" font-size="10.00">unloadInternal</text>
</a>
</g>
</g>
<!-- Node16&#45;&gt;Node17 -->
<g id="edge19_Node000016_Node000017" class="edge">
<title>Node16&#45;&gt;Node17</title>
<g id="a_edge19_Node000016_Node000017"><a xlink:title=" ">
<path fill="none" stroke="#63b8ff" d="M598.16,-252.53C608.39,-251.57 619.32,-250.54 629.92,-249.55"/>
<polygon fill="#63b8ff" stroke="#63b8ff" points="630.11,-253.04 639.74,-248.62 629.46,-246.07 630.11,-253.04"/>
</a>
</g>
</g>
<!-- Node17&#45;&gt;Node9 -->
<g id="edge34_Node000017_Node000009" class="edge">
<title>Node17&#45;&gt;Node9</title>
<g id="a_edge34_Node000017_Node000009"><a xlink:title=" ">
<path fill="none" stroke="#63b8ff" d="M694.3,-227.67C702.07,-193.32 724.77,-113.12 774.5,-69 852.07,-0.18 893.68,0 997.38,0 997.38,0 997.38,0 1172.5,0 1326.18,0 1428.57,-199.78 1460.83,-272.74"/>
<polygon fill="#63b8ff" stroke="#63b8ff" points="1457.46,-273.75 1464.65,-281.54 1463.88,-270.97 1457.46,-273.75"/>
</a>
</g>
</g>
<!-- Node18 -->
<g id="Node000018" class="node">
<title>Node18</title>
<g id="a_Node000018"><a xlink:href="a00924.html#a06be765d6cf55aa951f7eecb7ba578e8" target="_top" xlink:title=" ">
<polygon fill="white" stroke="#666666" points="886.5,-344 774.5,-344 774.5,-312 886.5,-312 886.5,-344"/>
<text text-anchor="start" x="782.5" y="-330.5" font-family="Helvetica,sans-Serif" font-size="10.00">LibLoader::PluginData</text>
<text text-anchor="middle" x="830.5" y="-318.5" font-family="Helvetica,sans-Serif" font-size="10.00">::_unload</text>
</a>
</g>
</g>
<!-- Node17&#45;&gt;Node18 -->
<g id="edge20_Node000017_Node000018" class="edge">
<title>Node17&#45;&gt;Node18</title>
<g id="a_edge20_Node000017_Node000018"><a xlink:title=" ">
<path fill="none" stroke="#63b8ff" d="M718.03,-260.4C739.39,-273.35 769.4,-291.55 792.9,-305.8"/>
<polygon fill="#63b8ff" stroke="#63b8ff" points="790.88,-308.67 801.24,-310.86 794.51,-302.68 790.88,-308.67"/>
</a>
</g>
</g>
<!-- Node20 -->
<g id="Node000020" class="node">
<title>Node20</title>
<g id="a_Node000020"><a xlink:href="a00916.html#a006c0eaa142f9aa1760ec307cd3c0cee" target="_top" xlink:title=" ">
<polygon fill="white" stroke="#666666" points="879,-260 782,-260 782,-228 879,-228 879,-260"/>
<text text-anchor="start" x="790" y="-246.5" font-family="Helvetica,sans-Serif" font-size="10.00">LibLoader::Plugin::</text>
<text text-anchor="middle" x="830.5" y="-234.5" font-family="Helvetica,sans-Serif" font-size="10.00">disableInternal</text>
</a>
</g>
</g>
<!-- Node17&#45;&gt;Node20 -->
<g id="edge22_Node000017_Node000020" class="edge">
<title>Node17&#45;&gt;Node20</title>
<g id="a_edge22_Node000017_Node000020"><a xlink:title=" ">
<path fill="none" stroke="#63b8ff" d="M738.66,-244C748.89,-244 759.82,-244 770.42,-244"/>
<polygon fill="#63b8ff" stroke="#63b8ff" points="770.23,-247.5 780.23,-244 770.23,-240.5 770.23,-247.5"/>
</a>
</g>
</g>
<!-- Node27 -->
<g id="Node000027" class="node">
<title>Node27</title>
<g id="a_Node000027"><a xlink:href="a00426.html#a830b51c74068e1461e1baf677dd10ac2" target="_top" xlink:title=" ">
<polygon fill="white" stroke="#666666" points="884.25,-210 776.75,-210 776.75,-178 884.25,-178 884.25,-210"/>
<text text-anchor="start" x="784.75" y="-196.5" font-family="Helvetica,sans-Serif" font-size="10.00">LibLoader::LoaderApi</text>
<text text-anchor="middle" x="830.5" y="-184.5" font-family="Helvetica,sans-Serif" font-size="10.00">::libClose</text>
</a>
</g>
</g>
<!-- Node17&#45;&gt;Node27 -->
<g id="edge33_Node000017_Node000027" class="edge">
<title>Node17&#45;&gt;Node27</title>
<g id="a_edge33_Node000017_Node000027"><a xlink:title=" ">
<path fill="none" stroke="#63b8ff" d="M736.35,-227.63C748.19,-223.35 761.09,-218.7 773.41,-214.25"/>
<polygon fill="#63b8ff" stroke="#63b8ff" points="774.41,-217.61 782.62,-210.92 772.03,-211.03 774.41,-217.61"/>
</a>
</g>
</g>
<!-- Node19 -->
<g id="Node000019" class="node">
<title>Node19</title>
<g id="a_Node000019"><a xlink:href="a00920.html#a81c7f6972e7ed7429f2ce9ba82c9ba31" target="_top" xlink:title=" ">
<polygon fill="white" stroke="#666666" points="1064.88,-410 931.88,-410 931.88,-378 1064.88,-378 1064.88,-410"/>
<text text-anchor="start" x="939.88" y="-396.5" font-family="Helvetica,sans-Serif" font-size="10.00">LibLoader::PluginFuncAddr</text>
<text text-anchor="middle" x="998.38" y="-384.5" font-family="Helvetica,sans-Serif" font-size="10.00">Data::_resetAddrData</text>
</a>
</g>
</g>
<!-- Node18&#45;&gt;Node19 -->
<g id="edge21_Node000018_Node000019" class="edge">
<title>Node18&#45;&gt;Node19</title>
<g id="a_edge21_Node000018_Node000019"><a xlink:title=" ">
<path fill="none" stroke="#63b8ff" d="M865.72,-344.41C882.64,-352.26 903.46,-361.55 922.5,-369 926.62,-370.61 930.89,-372.21 935.2,-373.78"/>
<polygon fill="#63b8ff" stroke="#63b8ff" points="933.95,-377.05 944.55,-377.1 936.3,-370.45 933.95,-377.05"/>
</a>
</g>
</g>
<!-- Node20&#45;&gt;Node2 -->
<g id="edge27_Node000020_Node000002" class="edge">
<title>Node20&#45;&gt;Node2</title>
<g id="a_edge27_Node000020_Node000002"><a xlink:title=" ">
<path fill="none" stroke="#63b8ff" d="M850.65,-260.37C862.46,-271.36 877.08,-286.77 886.5,-303 913.59,-349.69 884.74,-380.42 922.5,-419 924.05,-420.58 925.69,-422.06 927.43,-423.44"/>
<polygon fill="#63b8ff" stroke="#63b8ff" points="925.17,-426.15 935.43,-428.78 929.05,-420.32 925.17,-426.15"/>
</a>
</g>
</g>
<!-- Node20&#45;&gt;Node13 -->
<g id="edge24_Node000020_Node000013" class="edge">
<title>Node20&#45;&gt;Node13</title>
<g id="a_edge24_Node000020_Node000013"><a xlink:title=" ">
<path fill="none" stroke="#63b8ff" d="M877.19,-227.55C880.65,-225.07 883.83,-222.24 886.5,-219 930.13,-166.12 876.17,-119.53 922.5,-69 925.35,-65.89 928.61,-63.16 932.12,-60.78"/>
<polygon fill="#63b8ff" stroke="#63b8ff" points="933.64,-63.94 940.61,-55.96 930.19,-57.85 933.64,-63.94"/>
</a>
</g>
</g>
<!-- Node20&#45;&gt;Node14 -->
<g id="edge25_Node000020_Node000014" class="edge">
<title>Node20&#45;&gt;Node14</title>
<g id="a_edge25_Node000020_Node000014"><a xlink:title=" ">
<path fill="none" stroke="#63b8ff" d="M876.28,-227.59C880.03,-225.09 883.51,-222.24 886.5,-219 918.52,-184.27 888.71,-152.01 922.5,-119 927.27,-114.34 932.94,-110.54 938.98,-107.46"/>
<polygon fill="#63b8ff" stroke="#63b8ff" points="940.27,-110.71 948.04,-103.51 937.48,-104.3 940.27,-110.71"/>
</a>
</g>
</g>
<!-- Node21 -->
<g id="Node000021" class="node">
<title>Node21</title>
<g id="a_Node000021"><a xlink:href="a00924.html#af4e8baa9d706f75b1bf21d95069d3f42" target="_top" xlink:title=" ">
<polygon fill="white" stroke="#666666" points="1054.38,-360 942.38,-360 942.38,-328 1054.38,-328 1054.38,-360"/>
<text text-anchor="start" x="950.38" y="-346.5" font-family="Helvetica,sans-Serif" font-size="10.00">LibLoader::PluginData</text>
<text text-anchor="middle" x="998.38" y="-334.5" font-family="Helvetica,sans-Serif" font-size="10.00">::_disable</text>
</a>
</g>
</g>
<!-- Node20&#45;&gt;Node21 -->
<g id="edge23_Node000020_Node000021" class="edge">
<title>Node20&#45;&gt;Node21</title>
<g id="a_edge23_Node000020_Node000021"><a xlink:title=" ">
<path fill="none" stroke="#63b8ff" d="M847.56,-260.41C864.75,-277.17 893.49,-302.93 922.5,-319 925.46,-320.64 928.55,-322.2 931.71,-323.67"/>
<polygon fill="#63b8ff" stroke="#63b8ff" points="930.03,-326.76 940.6,-327.5 932.8,-320.33 930.03,-326.76"/>
</a>
</g>
</g>
<!-- Node22 -->
<g id="Node000022" class="node">
<title>Node22</title>
<g id="a_Node000022"><a xlink:href="a00772.html#a62b91390b919ca8df0b6036c7e07f326" target="_top" xlink:title=" ">
<polygon fill="white" stroke="#666666" points="1074.25,-310 922.5,-310 922.5,-278 1074.25,-278 1074.25,-310"/>
<text text-anchor="start" x="930.5" y="-296.5" font-family="Helvetica,sans-Serif" font-size="10.00">MiraiCP::PluginInterface</text>
<text text-anchor="middle" x="998.38" y="-284.5" font-family="Helvetica,sans-Serif" font-size="10.00">::PluginMessageHandles::clear</text>
</a>
</g>
</g>
<!-- Node20&#45;&gt;Node22 -->
<g id="edge26_Node000020_Node000022" class="edge">
<title>Node20&#45;&gt;Node22</title>
<g id="a_edge26_Node000020_Node000022"><a xlink:title=" ">
<path fill="none" stroke="#63b8ff" d="M879.48,-258.46C895.88,-263.41 914.51,-269.02 932.05,-274.31"/>
<polygon fill="#63b8ff" stroke="#63b8ff" points="930.76,-277.58 941.34,-277.11 932.78,-270.87 930.76,-277.58"/>
</a>
</g>
</g>
<!-- Node23 -->
<g id="Node000023" class="node">
<title>Node23</title>
<g id="a_Node000023"><a xlink:href="a00433.html#aae621af986af1d6d3203f63858d3ac26" target="_top" xlink:title=" ">
<polygon fill="white" stroke="#666666" points="1062.25,-260 934.5,-260 934.5,-228 1062.25,-228 1062.25,-260"/>
<text text-anchor="start" x="942.5" y="-246.5" font-family="Helvetica,sans-Serif" font-size="10.00">ThreadIdentify::setThread</text>
<text text-anchor="middle" x="998.38" y="-234.5" font-family="Helvetica,sans-Serif" font-size="10.00">WorkingName</text>
</a>
</g>
</g>
<!-- Node20&#45;&gt;Node23 -->
<g id="edge28_Node000020_Node000023" class="edge">
<title>Node20&#45;&gt;Node23</title>
<g id="a_edge28_Node000020_Node000023"><a xlink:title=" ">
<path fill="none" stroke="#63b8ff" d="M879.48,-244C893.05,-244 908.15,-244 922.89,-244"/>
<polygon fill="#63b8ff" stroke="#63b8ff" points="922.55,-247.5 932.55,-244 922.55,-240.5 922.55,-247.5"/>
</a>
</g>
</g>
<!-- Node25 -->
<g id="Node000025" class="node">
<title>Node25</title>
<g id="a_Node000025"><a xlink:href="a00433.html#a2db790edad6d2f47d59c98f494d89b17" target="_top" xlink:title=" ">
<polygon fill="white" stroke="#666666" points="1067.5,-210 929.25,-210 929.25,-178 1067.5,-178 1067.5,-210"/>
<text text-anchor="start" x="937.25" y="-196.5" font-family="Helvetica,sans-Serif" font-size="10.00">ThreadIdentify::unsetThread</text>
<text text-anchor="middle" x="998.38" y="-184.5" font-family="Helvetica,sans-Serif" font-size="10.00">WorkingName</text>
</a>
</g>
</g>
<!-- Node20&#45;&gt;Node25 -->
<g id="edge30_Node000020_Node000025" class="edge">
<title>Node20&#45;&gt;Node25</title>
<g id="a_edge30_Node000020_Node000025"><a xlink:title=" ">
<path fill="none" stroke="#63b8ff" d="M879.48,-229.54C895.88,-224.59 914.51,-218.98 932.05,-213.69"/>
<polygon fill="#63b8ff" stroke="#63b8ff" points="932.78,-217.13 941.34,-210.89 930.76,-210.42 932.78,-217.13"/>
</a>
</g>
</g>
<!-- Node26 -->
<g id="Node000026" class="node">
<title>Node26</title>
<g id="a_Node000026"><a xlink:href="a00916.html#a6ef15df69e979357df7bd10031bf2328" target="_top" xlink:title=" ">
<polygon fill="white" stroke="#666666" points="1046.88,-160 949.88,-160 949.88,-128 1046.88,-128 1046.88,-160"/>
<text text-anchor="start" x="957.88" y="-146.5" font-family="Helvetica,sans-Serif" font-size="10.00">LibLoader::Plugin::</text>
<text text-anchor="middle" x="998.38" y="-134.5" font-family="Helvetica,sans-Serif" font-size="10.00">updateTimeStamp</text>
</a>
</g>
</g>
<!-- Node20&#45;&gt;Node26 -->
<g id="edge32_Node000020_Node000026" class="edge">
<title>Node20&#45;&gt;Node26</title>
<g id="a_edge32_Node000020_Node000026"><a xlink:title=" ">
<path fill="none" stroke="#63b8ff" d="M873.71,-227.63C878.24,-225.07 882.61,-222.19 886.5,-219 907.68,-201.64 900.45,-185.23 922.5,-169 927.66,-165.2 933.44,-161.96 939.43,-159.19"/>
<polygon fill="#63b8ff" stroke="#63b8ff" points="940.34,-162.6 948.25,-155.55 937.67,-156.13 940.34,-162.6"/>
</a>
</g>
</g>
<!-- Node24 -->
<g id="Node000024" class="node">
<title>Node24</title>
<g id="a_Node000024"><a xlink:href="a00433.html#a3faddb4b1d901c39b71cd3559fbd5e3b" target="_top" xlink:title=" ">
<polygon fill="white" stroke="#666666" points="1232.75,-235 1110.25,-235 1110.25,-203 1232.75,-203 1232.75,-235"/>
<text text-anchor="start" x="1118.25" y="-221.5" font-family="Helvetica,sans-Serif" font-size="10.00">ThreadIdentify::internal</text>
<text text-anchor="middle" x="1171.5" y="-209.5" font-family="Helvetica,sans-Serif" font-size="10.00">SetThreadWorkingName</text>
</a>
</g>
</g>
<!-- Node23&#45;&gt;Node24 -->
<g id="edge29_Node000023_Node000024" class="edge">
<title>Node23&#45;&gt;Node24</title>
<g id="a_edge29_Node000023_Node000024"><a xlink:title=" ">
<path fill="none" stroke="#63b8ff" d="M1062.61,-234.76C1074.3,-233.05 1086.58,-231.26 1098.51,-229.52"/>
<polygon fill="#63b8ff" stroke="#63b8ff" points="1098.91,-233 1108.3,-228.09 1097.9,-226.07 1098.91,-233"/>
</a>
</g>
</g>
<!-- Node25&#45;&gt;Node24 -->
<g id="edge31_Node000025_Node000024" class="edge">
<title>Node25&#45;&gt;Node24</title>
<g id="a_edge31_Node000025_Node000024"><a xlink:title=" ">
<path fill="none" stroke="#63b8ff" d="M1067.99,-204.02C1078.06,-205.5 1088.45,-207.01 1098.58,-208.49"/>
<polygon fill="#63b8ff" stroke="#63b8ff" points="1097.98,-211.94 1108.38,-209.92 1098.99,-205.02 1097.98,-211.94"/>
</a>
</g>
</g>
</g>
</svg>
