<?xml version="1.0" encoding="UTF-8" standalone="no"?>
<!DOCTYPE svg PUBLIC "-//W3C//DTD SVG 1.1//EN"
 "http://www.w3.org/Graphics/SVG/1.1/DTD/svg11.dtd">
<!-- Generated by graphviz version 9.0.0 (0)
 -->
<!-- Title: MiraiCP::IMiraiData::requestRefresh Pages: 1 -->
<svg width="467pt" height="115pt"
 viewBox="0.00 0.00 467.00 115.00" xmlns="http://www.w3.org/2000/svg" xmlns:xlink="http://www.w3.org/1999/xlink">
<g id="graph0" class="graph" transform="scale(1 1) rotate(0) translate(4 111)">
<title>MiraiCP::IMiraiData::requestRefresh</title>
<!-- Node1 -->
<g id="Node000001" class="node">
<title>Node1</title>
<g id="a_Node000001"><a xlink:title="请求一次刷新数据, 但不保证会进行">
<polygon fill="#999999" stroke="#666666" points="459,-82 356.75,-82 356.75,-50 459,-50 459,-82"/>
<text text-anchor="start" x="364.75" y="-68.5" font-family="Helvetica,sans-Serif" font-size="10.00">MiraiCP::IMiraiData</text>
<text text-anchor="middle" x="407.88" y="-56.5" font-family="Helvetica,sans-Serif" font-size="10.00">::requestRefresh</text>
</a>
</g>
</g>
<!-- Node2 -->
<g id="Node000002" class="node">
<title>Node2</title>
<g id="a_Node000002"><a xlink:href="a00413.html#a32c15135d3fd840e84e246e5fea49fcb" target="_top" xlink:title=" ">
<polygon fill="white" stroke="#666666" points="320.75,-107 177.25,-107 177.25,-75 320.75,-75 320.75,-107"/>
<text text-anchor="start" x="185.25" y="-93.5" font-family="Helvetica,sans-Serif" font-size="10.00">MiraiCP::internal::</text>
<text text-anchor="middle" x="249" y="-81.5" font-family="Helvetica,sans-Serif" font-size="10.00">getAvatarUrlFromIContactPtr</text>
</a>
</g>
</g>
<!-- Node1&#45;&gt;Node2 -->
<g id="edge1_Node000001_Node000002" class="edge">
<title>Node1&#45;&gt;Node2</title>
<g id="a_edge1_Node000001_Node000002"><a xlink:title=" ">
<path fill="none" stroke="#63b8ff" d="M345.02,-75.86C337.13,-77.12 329,-78.41 320.98,-79.69"/>
<polygon fill="#63b8ff" stroke="#63b8ff" points="345.56,-79.32 354.88,-74.29 344.45,-72.4 345.56,-79.32"/>
</a>
</g>
</g>
<!-- Node3 -->
<g id="Node000003" class="node">
<title>Node3</title>
<g id="a_Node000003"><a xlink:href="a00413.html#a57589d1f65b956985a6b26c9842e2861" target="_top" xlink:title=" ">
<polygon fill="white" stroke="#666666" points="310.25,-57 187.75,-57 187.75,-25 310.25,-25 310.25,-57"/>
<text text-anchor="start" x="195.75" y="-43.5" font-family="Helvetica,sans-Serif" font-size="10.00">MiraiCP::internal::</text>
<text text-anchor="middle" x="249" y="-31.5" font-family="Helvetica,sans-Serif" font-size="10.00">getNickFromIContactPtr</text>
</a>
</g>
</g>
<!-- Node1&#45;&gt;Node3 -->
<g id="edge2_Node000001_Node000003" class="edge">
<title>Node1&#45;&gt;Node3</title>
<g id="a_edge2_Node000001_Node000003"><a xlink:title=" ">
<path fill="none" stroke="#63b8ff" d="M345.18,-56.17C333.79,-54.35 321.9,-52.46 310.55,-50.65"/>
<polygon fill="#63b8ff" stroke="#63b8ff" points="344.45,-59.6 354.88,-57.71 345.56,-52.68 344.45,-59.6"/>
</a>
</g>
</g>
<!-- Node4 -->
<g id="Node000004" class="node">
<title>Node4</title>
<g id="a_Node000004"><a xlink:href="a00464.html#ac3f8a47de4224ae6fa769171cf657d40" target="_top" xlink:title="头像url地址">
<polygon fill="white" stroke="#666666" points="141.25,-82 0,-82 0,-50 141.25,-50 141.25,-82"/>
<text text-anchor="start" x="8" y="-68.5" font-family="Helvetica,sans-Serif" font-size="10.00">MiraiCP::ContactDataHelper</text>
<text text-anchor="middle" x="70.62" y="-56.5" font-family="Helvetica,sans-Serif" font-size="10.00">::avatarUrl</text>
</a>
</g>
</g>
<!-- Node3&#45;&gt;Node4 -->
<g id="edge3_Node000003_Node000004" class="edge">
<title>Node3&#45;&gt;Node4</title>
<g id="a_edge3_Node000003_Node000004"><a xlink:title=" ">
<path fill="none" stroke="#63b8ff" d="M176.06,-51.2C164.66,-52.81 152.88,-54.48 141.53,-56.09"/>
<polygon fill="#63b8ff" stroke="#63b8ff" points="176.39,-54.68 185.8,-49.82 175.41,-47.75 176.39,-54.68"/>
</a>
</g>
</g>
<!-- Node5 -->
<g id="Node000005" class="node">
<title>Node5</title>
<g id="a_Node000005"><a xlink:href="a00464.html#a8b43a586164fafff5f807494d997ad5d" target="_top" xlink:title="群名称，群成员群名片，或好友昵称">
<polygon fill="white" stroke="#666666" points="141.25,-32 0,-32 0,0 141.25,0 141.25,-32"/>
<text text-anchor="start" x="8" y="-18.5" font-family="Helvetica,sans-Serif" font-size="10.00">MiraiCP::ContactDataHelper</text>
<text text-anchor="middle" x="70.62" y="-6.5" font-family="Helvetica,sans-Serif" font-size="10.00">::nickOrNameCard</text>
</a>
</g>
</g>
<!-- Node3&#45;&gt;Node5 -->
<g id="edge4_Node000003_Node000005" class="edge">
<title>Node3&#45;&gt;Node5</title>
<g id="a_edge4_Node000003_Node000005"><a xlink:title=" ">
<path fill="none" stroke="#63b8ff" d="M176.06,-30.8C164.66,-29.19 152.88,-27.52 141.53,-25.91"/>
<polygon fill="#63b8ff" stroke="#63b8ff" points="175.41,-34.25 185.8,-32.18 176.39,-27.32 175.41,-34.25"/>
</a>
</g>
</g>
</g>
</svg>
