<?xml version="1.0" encoding="UTF-8" standalone="no"?>
<!DOCTYPE svg PUBLIC "-//W3C//DTD SVG 1.1//EN"
 "http://www.w3.org/Graphics/SVG/1.1/DTD/svg11.dtd">
<!-- Generated by graphviz version 9.0.0 (0)
 -->
<!-- Title: MiraiCP::IMiraiData Pages: 1 -->
<svg width="172pt" height="516pt"
 viewBox="0.00 0.00 172.00 516.00" xmlns="http://www.w3.org/2000/svg" xmlns:xlink="http://www.w3.org/1999/xlink">
<g id="graph0" class="graph" transform="scale(1 1) rotate(0) translate(4 512)">
<title>MiraiCP::IMiraiData</title>
<!-- Node1 -->
<g id="Node000001" class="node">
<title>Node1</title>
<g id="a_Node000001"><a xlink:title="声明 Contact 类数据安全锁接口以及部分实现的抽象类">
<polygon fill="#999999" stroke="none" points="152.5,-296 8.5,-296 8.5,0 152.5,0 152.5,-296"/>
<text text-anchor="start" x="37.38" y="-282.5" font-family="Helvetica,sans-Serif" font-size="10.00">MiraiCP::IMiraiData</text>
<text text-anchor="start" x="79" y="-266.5" font-family="Helvetica,sans-Serif" font-size="10.00"> </text>
<text text-anchor="start" x="12.5" y="-250.5" font-family="Helvetica,sans-Serif" font-size="10.00">+</text>
<text text-anchor="start" x="22.5" y="-250.5" font-family="Helvetica,sans-Serif" font-size="10.00">IMiraiData()=default</text>
<text text-anchor="start" x="12.5" y="-234.5" font-family="Helvetica,sans-Serif" font-size="10.00">+</text>
<text text-anchor="start" x="22.5" y="-234.5" font-family="Helvetica,sans-Serif" font-size="10.00">virtual ~IMiraiData</text>
<text text-anchor="start" x="22.5" y="-222.5" font-family="Helvetica,sans-Serif" font-size="10.00">()=default</text>
<text text-anchor="start" x="12.5" y="-206.5" font-family="Helvetica,sans-Serif" font-size="10.00">+</text>
<text text-anchor="start" x="22.5" y="-206.5" font-family="Helvetica,sans-Serif" font-size="10.00">nlohmann::json toJson</text>
<text text-anchor="start" x="22.5" y="-194.5" font-family="Helvetica,sans-Serif" font-size="10.00">() const</text>
<text text-anchor="start" x="12.5" y="-178.5" font-family="Helvetica,sans-Serif" font-size="10.00">+</text>
<text text-anchor="start" x="22.5" y="-178.5" font-family="Helvetica,sans-Serif" font-size="10.00">void requestRefresh()</text>
<text text-anchor="start" x="12.5" y="-162.5" font-family="Helvetica,sans-Serif" font-size="10.00">+</text>
<text text-anchor="start" x="22.5" y="-162.5" font-family="Helvetica,sans-Serif" font-size="10.00">void forceRefreshNextTime()</text>
<text text-anchor="start" x="12.5" y="-146.5" font-family="Helvetica,sans-Serif" font-size="10.00">+</text>
<text text-anchor="start" x="22.5" y="-146.5" font-family="Helvetica,sans-Serif" font-size="10.00">std::string toString</text>
<text text-anchor="start" x="22.5" y="-134.5" font-family="Helvetica,sans-Serif" font-size="10.00">() const</text>
<text text-anchor="start" x="12.5" y="-118.5" font-family="Helvetica,sans-Serif" font-size="10.00">+</text>
<text text-anchor="start" x="22.5" y="-118.5" font-family="Helvetica,sans-Serif" font-size="10.00">std::shared_mutex &amp;</text>
<text text-anchor="start" x="22.5" y="-106.5" font-family="Helvetica,sans-Serif" font-size="10.00"> getMutex()</text>
<text text-anchor="start" x="12.88" y="-90.5" font-family="Helvetica,sans-Serif" font-size="10.00">#</text>
<text text-anchor="start" x="22.5" y="-90.5" font-family="Helvetica,sans-Serif" font-size="10.00">virtual void deserialize</text>
<text text-anchor="start" x="22.5" y="-78.5" font-family="Helvetica,sans-Serif" font-size="10.00">(nlohmann::json in_json)=0</text>
<text text-anchor="start" x="12.88" y="-62.5" font-family="Helvetica,sans-Serif" font-size="10.00">#</text>
<text text-anchor="start" x="22.5" y="-62.5" font-family="Helvetica,sans-Serif" font-size="10.00">virtual nlohmann::json</text>
<text text-anchor="start" x="22.5" y="-50.5" font-family="Helvetica,sans-Serif" font-size="10.00"> internalToJson() const =0</text>
<text text-anchor="start" x="12.88" y="-34.5" font-family="Helvetica,sans-Serif" font-size="10.00">#</text>
<text text-anchor="start" x="22.5" y="-34.5" font-family="Helvetica,sans-Serif" font-size="10.00">nlohmann::json internalTo</text>
<text text-anchor="start" x="22.5" y="-22.5" font-family="Helvetica,sans-Serif" font-size="10.00">String() const</text>
<text text-anchor="start" x="14" y="-6.5" font-family="Helvetica,sans-Serif" font-size="10.00">&#45;</text>
<text text-anchor="start" x="22.5" y="-6.5" font-family="Helvetica,sans-Serif" font-size="10.00">virtual void refreshInfo()=0</text>
<polygon fill="#666666" stroke="#666666" points="8.5,-278 8.5,-278 152.5,-278 152.5,-278 8.5,-278"/>
<polygon fill="#666666" stroke="#666666" points="8.5,-262 8.5,-262 152.5,-262 152.5,-262 8.5,-262"/>
<polygon fill="none" stroke="#666666" points="8.5,0 8.5,-296 152.5,-296 152.5,0 8.5,0"/>
</a>
</g>
</g>
<!-- Node2 -->
<g id="Node000002" class="node">
<title>Node2</title>
<g id="a_Node000002"><a xlink:href="a00968.html" target="_top" xlink:title="锁">
<polygon fill="white" stroke="none" points="128.5,-408 32.5,-408 32.5,-344 128.5,-344 128.5,-408"/>
<text text-anchor="start" x="37.38" y="-394.5" font-family="Helvetica,sans-Serif" font-size="10.00">MiraiCP::IMiraiData</text>
<text text-anchor="start" x="41.88" y="-382.5" font-family="Helvetica,sans-Serif" font-size="10.00">::MiraiDataLocker</text>
<text text-anchor="start" x="79" y="-366.5" font-family="Helvetica,sans-Serif" font-size="10.00"> </text>
<text text-anchor="start" x="79" y="-350.5" font-family="Helvetica,sans-Serif" font-size="10.00"> </text>
<polygon fill="#666666" stroke="#666666" points="32.5,-378 32.5,-378 128.5,-378 128.5,-378 32.5,-378"/>
<polygon fill="#666666" stroke="#666666" points="32.5,-362 32.5,-362 128.5,-362 128.5,-362 32.5,-362"/>
<polygon fill="none" stroke="#666666" points="32.5,-344 32.5,-408 128.5,-408 128.5,-344 32.5,-344"/>
</a>
</g>
</g>
<!-- Node2&#45;&gt;Node1 -->
<g id="edge1_Node000001_Node000002" class="edge">
<title>Node2&#45;&gt;Node1</title>
<g id="a_edge1_Node000001_Node000002"><a xlink:title=" ">
<path fill="none" stroke="#63b8ff" d="M80.5,-344.05C80.5,-333.88 80.5,-321.79 80.5,-308.68"/>
<polygon fill="none" stroke="#63b8ff" points="80.5,-308.73 76.5,-302.73 80.5,-296.73 84.5,-302.73 80.5,-308.73"/>
</a>
</g>
<text text-anchor="middle" x="99.25" y="-316.5" font-family="Helvetica,sans-Serif" font-size="10.00" fill="grey"> #Locker</text>
</g>
<!-- Node3 -->
<g id="Node000003" class="node">
<title>Node3</title>
<g id="a_Node000003"><a xlink:title=" ">
<polygon fill="white" stroke="none" points="71,-508 0,-508 0,-456 71,-456 71,-508"/>
<text text-anchor="start" x="4.75" y="-494.5" font-family="Helvetica,sans-Serif" font-size="10.00">shared_mutex</text>
<text text-anchor="start" x="34" y="-478.5" font-family="Helvetica,sans-Serif" font-size="10.00"> </text>
<text text-anchor="start" x="34" y="-462.5" font-family="Helvetica,sans-Serif" font-size="10.00"> </text>
<polygon fill="#666666" stroke="#666666" points="0,-490 0,-490 71,-490 71,-490 0,-490"/>
<polygon fill="#666666" stroke="#666666" points="0,-474 0,-474 71,-474 71,-474 0,-474"/>
<polygon fill="none" stroke="#666666" points="0,-456 0,-508 71,-508 71,-456 0,-456"/>
</a>
</g>
</g>
<!-- Node3&#45;&gt;Node2 -->
<g id="edge2_Node000002_Node000003" class="edge">
<title>Node3&#45;&gt;Node2</title>
<g id="a_edge2_Node000002_Node000003"><a xlink:title=" ">
<path fill="none" stroke="#63b8ff" d="M46.28,-456.09C51.05,-445.07 56.79,-431.8 62.2,-419.3"/>
<polygon fill="none" stroke="#63b8ff" points="62.11,-419.49 60.82,-412.4 66.88,-408.48 68.17,-415.58 62.11,-419.49"/>
</a>
</g>
<text text-anchor="middle" x="73.88" y="-428.5" font-family="Helvetica,sans-Serif" font-size="10.00" fill="grey"> +_mtx</text>
</g>
<!-- Node4 -->
<g id="Node000004" class="node">
<title>Node4</title>
<g id="a_Node000004"><a xlink:title=" ">
<polygon fill="white" stroke="none" points="164,-508 89,-508 89,-456 164,-456 164,-508"/>
<text text-anchor="start" x="93.88" y="-494.5" font-family="Helvetica,sans-Serif" font-size="10.00">atomic&lt; bool &gt;</text>
<text text-anchor="start" x="125" y="-478.5" font-family="Helvetica,sans-Serif" font-size="10.00"> </text>
<text text-anchor="start" x="125" y="-462.5" font-family="Helvetica,sans-Serif" font-size="10.00"> </text>
<polygon fill="#666666" stroke="#666666" points="89,-490 89,-490 164,-490 164,-490 89,-490"/>
<polygon fill="#666666" stroke="#666666" points="89,-474 89,-474 164,-474 164,-474 89,-474"/>
<polygon fill="none" stroke="#666666" points="89,-456 89,-508 164,-508 164,-456 89,-456"/>
</a>
</g>
</g>
<!-- Node4&#45;&gt;Node2 -->
<g id="edge3_Node000002_Node000004" class="edge">
<title>Node4&#45;&gt;Node2</title>
<g id="a_edge3_Node000002_Node000004"><a xlink:title=" ">
<path fill="none" stroke="#63b8ff" d="M115.48,-456.09C110.61,-445.07 104.74,-431.8 99.21,-419.3"/>
<polygon fill="none" stroke="#63b8ff" points="99.28,-419.45 93.19,-415.58 94.42,-408.48 100.51,-412.35 99.28,-419.45"/>
</a>
</g>
<text text-anchor="middle" x="124.25" y="-428.5" font-family="Helvetica,sans-Serif" font-size="10.00" fill="grey"> +_inited</text>
</g>
</g>
</svg>
