<?xml version="1.0" encoding="UTF-8" standalone="no"?>
<!DOCTYPE svg PUBLIC "-//W3C//DTD SVG 1.1//EN"
 "http://www.w3.org/Graphics/SVG/1.1/DTD/svg11.dtd">
<!-- Generated by graphviz version 9.0.0 (0)
 -->
<!-- Title: MiraiCP::LowLevelAPI::info Pages: 1 -->
<svg width="144pt" height="184pt"
 viewBox="0.00 0.00 144.25 184.00" xmlns="http://www.w3.org/2000/svg" xmlns:xlink="http://www.w3.org/1999/xlink">
<g id="graph0" class="graph" transform="scale(1 1) rotate(0) translate(4 180)">
<title>MiraiCP::LowLevelAPI::info</title>
<!-- Node1 -->
<g id="Node000001" class="node">
<title>Node1</title>
<g id="a_Node000001"><a xlink:title="每个对象的必有信息">
<polygon fill="#999999" stroke="none" points="109,-64 0,-64 0,0 109,0 109,-64"/>
<text text-anchor="start" x="5" y="-50.5" font-family="Helvetica,sans-Serif" font-size="10.00">MiraiCP::LowLevelAPI</text>
<text text-anchor="start" x="43.62" y="-38.5" font-family="Helvetica,sans-Serif" font-size="10.00">::info</text>
<text text-anchor="start" x="53" y="-22.5" font-family="Helvetica,sans-Serif" font-size="10.00"> </text>
<text text-anchor="start" x="53" y="-6.5" font-family="Helvetica,sans-Serif" font-size="10.00"> </text>
<polygon fill="#666666" stroke="#666666" points="0,-34 0,-34 109,-34 109,-34 0,-34"/>
<polygon fill="#666666" stroke="#666666" points="0,-18 0,-18 109,-18 109,-18 0,-18"/>
<polygon fill="none" stroke="#666666" points="0,0 0,-64 109,-64 109,0 0,0"/>
</a>
</g>
</g>
<!-- Node2 -->
<g id="Node000002" class="node">
<title>Node2</title>
<g id="a_Node000002"><a xlink:title=" ">
<polygon fill="white" stroke="none" points="71.5,-176 37.5,-176 37.5,-124 71.5,-124 71.5,-176"/>
<text text-anchor="start" x="42.5" y="-162.5" font-family="Helvetica,sans-Serif" font-size="10.00">string</text>
<text text-anchor="start" x="53" y="-146.5" font-family="Helvetica,sans-Serif" font-size="10.00"> </text>
<text text-anchor="start" x="53" y="-130.5" font-family="Helvetica,sans-Serif" font-size="10.00"> </text>
<polygon fill="#666666" stroke="#666666" points="37.5,-158 37.5,-158 71.5,-158 71.5,-158 37.5,-158"/>
<polygon fill="#666666" stroke="#666666" points="37.5,-142 37.5,-142 71.5,-142 71.5,-142 37.5,-142"/>
<polygon fill="none" stroke="#666666" points="37.5,-124 37.5,-176 71.5,-176 71.5,-124 37.5,-124"/>
</a>
</g>
</g>
<!-- Node2&#45;&gt;Node1 -->
<g id="edge1_Node000001_Node000002" class="edge">
<title>Node2&#45;&gt;Node1</title>
<g id="a_edge1_Node000001_Node000002"><a xlink:title=" ">
<path fill="none" stroke="#63b8ff" d="M54.5,-124.12C54.5,-110.28 54.5,-92.67 54.5,-76.62"/>
<polygon fill="none" stroke="#63b8ff" points="54.5,-76.53 50.5,-70.53 54.5,-64.53 58.5,-70.53 54.5,-76.53"/>
</a>
</g>
<text text-anchor="middle" x="95.38" y="-96.5" font-family="Helvetica,sans-Serif" font-size="10.00" fill="grey"> +avatarUrl</text>
<text text-anchor="middle" x="95.38" y="-84.5" font-family="Helvetica,sans-Serif" font-size="10.00" fill="grey">+nickOrNameCard</text>
</g>
</g>
</svg>
