<?xml version="1.0" encoding="UTF-8" standalone="no"?>
<!DOCTYPE svg PUBLIC "-//W3C//DTD SVG 1.1//EN"
 "http://www.w3.org/Graphics/SVG/1.1/DTD/svg11.dtd">
<!-- Generated by graphviz version 9.0.0 (0)
 -->
<!-- Title: LibLoader::Plugin::unloadPlugin Pages: 1 -->
<svg width="1443pt" height="528pt"
 viewBox="0.00 0.00 1443.00 528.00" xmlns="http://www.w3.org/2000/svg" xmlns:xlink="http://www.w3.org/1999/xlink">
<g id="graph0" class="graph" transform="scale(1 1) rotate(0) translate(4 524)">
<title>LibLoader::Plugin::unloadPlugin</title>
<!-- Node1 -->
<g id="Node000001" class="node">
<title>Node1</title>
<g id="a_Node000001"><a xlink:title=" ">
<polygon fill="#999999" stroke="#666666" points="97,-173 0,-173 0,-141 97,-141 97,-173"/>
<text text-anchor="start" x="8" y="-159.5" font-family="Helvetica,sans-Serif" font-size="10.00">LibLoader::Plugin::</text>
<text text-anchor="middle" x="48.5" y="-147.5" font-family="Helvetica,sans-Serif" font-size="10.00">unloadPlugin</text>
</a>
</g>
</g>
<!-- Node2 -->
<g id="Node000002" class="node">
<title>Node2</title>
<g id="a_Node000002"><a xlink:href="a00916.html#ac03a32a4b96ba4618fee0628d3998aef" target="_top" xlink:title=" ">
<polygon fill="white" stroke="#666666" points="230,-173 133,-173 133,-141 230,-141 230,-173"/>
<text text-anchor="start" x="141" y="-159.5" font-family="Helvetica,sans-Serif" font-size="10.00">LibLoader::Plugin::</text>
<text text-anchor="middle" x="181.5" y="-147.5" font-family="Helvetica,sans-Serif" font-size="10.00">unloadInternal</text>
</a>
</g>
</g>
<!-- Node1&#45;&gt;Node2 -->
<g id="edge1_Node000001_Node000002" class="edge">
<title>Node1&#45;&gt;Node2</title>
<g id="a_edge1_Node000001_Node000002"><a xlink:title=" ">
<path fill="none" stroke="#63b8ff" d="M97.16,-157C105.02,-157 113.25,-157 121.34,-157"/>
<polygon fill="#63b8ff" stroke="#63b8ff" points="121.14,-160.5 131.14,-157 121.14,-153.5 121.14,-160.5"/>
</a>
</g>
</g>
<!-- Node3 -->
<g id="Node000003" class="node">
<title>Node3</title>
<g id="a_Node000003"><a xlink:href="a00924.html#a06be765d6cf55aa951f7eecb7ba578e8" target="_top" xlink:title=" ">
<polygon fill="white" stroke="#666666" points="378,-420 266,-420 266,-388 378,-388 378,-420"/>
<text text-anchor="start" x="274" y="-406.5" font-family="Helvetica,sans-Serif" font-size="10.00">LibLoader::PluginData</text>
<text text-anchor="middle" x="322" y="-394.5" font-family="Helvetica,sans-Serif" font-size="10.00">::_unload</text>
</a>
</g>
</g>
<!-- Node2&#45;&gt;Node3 -->
<g id="edge2_Node000002_Node000003" class="edge">
<title>Node2&#45;&gt;Node3</title>
<g id="a_edge2_Node000002_Node000003"><a xlink:title=" ">
<path fill="none" stroke="#63b8ff" d="M191.59,-173.21C215.02,-214.99 277.64,-326.67 306.3,-377.79"/>
<polygon fill="#63b8ff" stroke="#63b8ff" points="303.2,-379.4 311.14,-386.41 309.3,-375.98 303.2,-379.4"/>
</a>
</g>
</g>
<!-- Node5 -->
<g id="Node000005" class="node">
<title>Node5</title>
<g id="a_Node000005"><a xlink:href="a00916.html#a006c0eaa142f9aa1760ec307cd3c0cee" target="_top" xlink:title=" ">
<polygon fill="white" stroke="#666666" points="370.5,-270 273.5,-270 273.5,-238 370.5,-238 370.5,-270"/>
<text text-anchor="start" x="281.5" y="-256.5" font-family="Helvetica,sans-Serif" font-size="10.00">LibLoader::Plugin::</text>
<text text-anchor="middle" x="322" y="-244.5" font-family="Helvetica,sans-Serif" font-size="10.00">disableInternal</text>
</a>
</g>
</g>
<!-- Node2&#45;&gt;Node5 -->
<g id="edge4_Node000002_Node000005" class="edge">
<title>Node2&#45;&gt;Node5</title>
<g id="a_edge4_Node000002_Node000005"><a xlink:title=" ">
<path fill="none" stroke="#63b8ff" d="M205.99,-173.45C228.71,-189.37 263.33,-213.61 288.65,-231.34"/>
<polygon fill="#63b8ff" stroke="#63b8ff" points="286.41,-234.05 296.61,-236.92 290.43,-228.32 286.41,-234.05"/>
</a>
</g>
</g>
<!-- Node17 -->
<g id="Node000017" class="node">
<title>Node17</title>
<g id="a_Node000017"><a xlink:href="a00872.html#af50d0545fe7d683e54fcd03453a423e3" target="_top" xlink:title=" ">
<polygon fill="white" stroke="#666666" points="1025.5,-200 903,-200 903,-168 1025.5,-168 1025.5,-200"/>
<text text-anchor="start" x="911" y="-186.5" font-family="Helvetica,sans-Serif" font-size="10.00">LibLoader::LoaderLogger</text>
<text text-anchor="middle" x="964.25" y="-174.5" font-family="Helvetica,sans-Serif" font-size="10.00">::warning</text>
</a>
</g>
</g>
<!-- Node2&#45;&gt;Node17 -->
<g id="edge25_Node000002_Node000017" class="edge">
<title>Node2&#45;&gt;Node17</title>
<g id="a_edge25_Node000002_Node000017"><a xlink:title=" ">
<path fill="none" stroke="#63b8ff" d="M212.8,-140.55C266.69,-112.87 383.43,-60 488.88,-60 488.88,-60 488.88,-60 664,-60 768.56,-60 879.09,-125.41 931.76,-161.21"/>
<polygon fill="#63b8ff" stroke="#63b8ff" points="929.45,-163.87 939.67,-166.67 933.43,-158.11 929.45,-163.87"/>
</a>
</g>
</g>
<!-- Node22 -->
<g id="Node000022" class="node">
<title>Node22</title>
<g id="a_Node000022"><a xlink:href="a00426.html#a830b51c74068e1461e1baf677dd10ac2" target="_top" xlink:title=" ">
<polygon fill="white" stroke="#666666" points="375.75,-32 268.25,-32 268.25,0 375.75,0 375.75,-32"/>
<text text-anchor="start" x="276.25" y="-18.5" font-family="Helvetica,sans-Serif" font-size="10.00">LibLoader::LoaderApi</text>
<text text-anchor="middle" x="322" y="-6.5" font-family="Helvetica,sans-Serif" font-size="10.00">::libClose</text>
</a>
</g>
</g>
<!-- Node2&#45;&gt;Node22 -->
<g id="edge24_Node000002_Node000022" class="edge">
<title>Node2&#45;&gt;Node22</title>
<g id="a_edge24_Node000002_Node000022"><a xlink:title=" ">
<path fill="none" stroke="#63b8ff" d="M191.75,-140.57C205.53,-117.25 233.34,-74.22 266,-46 269.1,-43.32 272.49,-40.77 276,-38.39"/>
<polygon fill="#63b8ff" stroke="#63b8ff" points="277.59,-41.52 284.22,-33.25 273.88,-35.58 277.59,-41.52"/>
</a>
</g>
</g>
<!-- Node4 -->
<g id="Node000004" class="node">
<title>Node4</title>
<g id="a_Node000004"><a xlink:href="a00920.html#a81c7f6972e7ed7429f2ce9ba82c9ba31" target="_top" xlink:title=" ">
<polygon fill="white" stroke="#666666" points="556.38,-520 423.38,-520 423.38,-488 556.38,-488 556.38,-520"/>
<text text-anchor="start" x="431.38" y="-506.5" font-family="Helvetica,sans-Serif" font-size="10.00">LibLoader::PluginFuncAddr</text>
<text text-anchor="middle" x="489.88" y="-494.5" font-family="Helvetica,sans-Serif" font-size="10.00">Data::_resetAddrData</text>
</a>
</g>
</g>
<!-- Node3&#45;&gt;Node4 -->
<g id="edge3_Node000003_Node000004" class="edge">
<title>Node3&#45;&gt;Node4</title>
<g id="a_edge3_Node000003_Node000004"><a xlink:title=" ">
<path fill="none" stroke="#63b8ff" d="M339.06,-420.41C356.25,-437.17 384.99,-462.93 414,-479 416.52,-480.39 419.13,-481.73 421.79,-483"/>
<polygon fill="#63b8ff" stroke="#63b8ff" points="420.36,-486.19 430.92,-487.01 423.17,-479.78 420.36,-486.19"/>
</a>
</g>
</g>
<!-- Node6 -->
<g id="Node000006" class="node">
<title>Node6</title>
<g id="a_Node000006"><a xlink:href="a00924.html#af4e8baa9d706f75b1bf21d95069d3f42" target="_top" xlink:title=" ">
<polygon fill="white" stroke="#666666" points="545.88,-470 433.88,-470 433.88,-438 545.88,-438 545.88,-470"/>
<text text-anchor="start" x="441.88" y="-456.5" font-family="Helvetica,sans-Serif" font-size="10.00">LibLoader::PluginData</text>
<text text-anchor="middle" x="489.88" y="-444.5" font-family="Helvetica,sans-Serif" font-size="10.00">::_disable</text>
</a>
</g>
</g>
<!-- Node5&#45;&gt;Node6 -->
<g id="edge5_Node000005_Node000006" class="edge">
<title>Node5&#45;&gt;Node6</title>
<g id="a_edge5_Node000005_Node000006"><a xlink:title=" ">
<path fill="none" stroke="#63b8ff" d="M329.69,-270.49C345.83,-309.61 387.57,-406.43 414,-429 416.96,-431.52 420.18,-433.8 423.56,-435.84"/>
<polygon fill="#63b8ff" stroke="#63b8ff" points="421.66,-438.79 432.14,-440.32 424.9,-432.59 421.66,-438.79"/>
</a>
</g>
</g>
<!-- Node7 -->
<g id="Node000007" class="node">
<title>Node7</title>
<g id="a_Node000007"><a xlink:href="a00924.html#a0c7449a3e94c1e4659337e62fc513fd8" target="_top" xlink:title=" ">
<polygon fill="white" stroke="#666666" points="545.88,-420 433.88,-420 433.88,-388 545.88,-388 545.88,-420"/>
<text text-anchor="start" x="441.88" y="-406.5" font-family="Helvetica,sans-Serif" font-size="10.00">LibLoader::PluginData</text>
<text text-anchor="middle" x="489.88" y="-394.5" font-family="Helvetica,sans-Serif" font-size="10.00">::_getId</text>
</a>
</g>
</g>
<!-- Node5&#45;&gt;Node7 -->
<g id="edge6_Node000005_Node000007" class="edge">
<title>Node5&#45;&gt;Node7</title>
<g id="a_edge6_Node000005_Node000007"><a xlink:title=" ">
<path fill="none" stroke="#63b8ff" d="M330.65,-270.31C343.93,-296.89 373.71,-349.51 414,-379 416.99,-381.19 420.17,-383.19 423.49,-385.02"/>
<polygon fill="#63b8ff" stroke="#63b8ff" points="421.86,-388.12 432.38,-389.37 424.94,-381.83 421.86,-388.12"/>
</a>
</g>
</g>
<!-- Node8 -->
<g id="Node000008" class="node">
<title>Node8</title>
<g id="a_Node000008"><a xlink:href="a00916.html#ae42c2fb572d9814de8f0a10ca2c0d2f3" target="_top" xlink:title=" ">
<polygon fill="white" stroke="#666666" points="538.38,-370 441.38,-370 441.38,-338 538.38,-338 538.38,-370"/>
<text text-anchor="start" x="449.38" y="-356.5" font-family="Helvetica,sans-Serif" font-size="10.00">LibLoader::Plugin::</text>
<text text-anchor="middle" x="489.88" y="-344.5" font-family="Helvetica,sans-Serif" font-size="10.00">checkValid</text>
</a>
</g>
</g>
<!-- Node5&#45;&gt;Node8 -->
<g id="edge7_Node000005_Node000008" class="edge">
<title>Node5&#45;&gt;Node8</title>
<g id="a_edge7_Node000005_Node000008"><a xlink:title=" ">
<path fill="none" stroke="#63b8ff" d="M339.06,-270.41C356.25,-287.17 384.99,-312.93 414,-329 419.25,-331.9 424.88,-334.55 430.63,-336.93"/>
<polygon fill="#63b8ff" stroke="#63b8ff" points="429.02,-340.06 439.61,-340.4 431.54,-333.53 429.02,-340.06"/>
</a>
</g>
</g>
<!-- Node9 -->
<g id="Node000009" class="node">
<title>Node9</title>
<g id="a_Node000009"><a xlink:href="a00772.html#a62b91390b919ca8df0b6036c7e07f326" target="_top" xlink:title=" ">
<polygon fill="white" stroke="#666666" points="565.75,-320 414,-320 414,-288 565.75,-288 565.75,-320"/>
<text text-anchor="start" x="422" y="-306.5" font-family="Helvetica,sans-Serif" font-size="10.00">MiraiCP::PluginInterface</text>
<text text-anchor="middle" x="489.88" y="-294.5" font-family="Helvetica,sans-Serif" font-size="10.00">::PluginMessageHandles::clear</text>
</a>
</g>
</g>
<!-- Node5&#45;&gt;Node9 -->
<g id="edge8_Node000005_Node000009" class="edge">
<title>Node5&#45;&gt;Node9</title>
<g id="a_edge8_Node000005_Node000009"><a xlink:title=" ">
<path fill="none" stroke="#63b8ff" d="M370.98,-268.46C387.38,-273.41 406.01,-279.02 423.55,-284.31"/>
<polygon fill="#63b8ff" stroke="#63b8ff" points="422.26,-287.58 432.84,-287.11 424.28,-280.87 422.26,-287.58"/>
</a>
</g>
</g>
<!-- Node10 -->
<g id="Node000010" class="node">
<title>Node10</title>
<g id="a_Node000010"><a xlink:href="a00872.html#ae735f16b20f681d29d4e5d28ad248dbe" target="_top" xlink:title=" ">
<polygon fill="white" stroke="#666666" points="551.12,-270 428.62,-270 428.62,-238 551.12,-238 551.12,-270"/>
<text text-anchor="start" x="436.62" y="-256.5" font-family="Helvetica,sans-Serif" font-size="10.00">LibLoader::LoaderLogger</text>
<text text-anchor="middle" x="489.88" y="-244.5" font-family="Helvetica,sans-Serif" font-size="10.00">::error</text>
</a>
</g>
</g>
<!-- Node5&#45;&gt;Node10 -->
<g id="edge9_Node000005_Node000010" class="edge">
<title>Node5&#45;&gt;Node10</title>
<g id="a_edge9_Node000005_Node000010"><a xlink:title=" ">
<path fill="none" stroke="#63b8ff" d="M370.98,-254C385.38,-254 401.49,-254 417.08,-254"/>
<polygon fill="#63b8ff" stroke="#63b8ff" points="416.79,-257.5 426.79,-254 416.79,-250.5 416.79,-257.5"/>
</a>
</g>
</g>
<!-- Node18 -->
<g id="Node000018" class="node">
<title>Node18</title>
<g id="a_Node000018"><a xlink:href="a00433.html#aae621af986af1d6d3203f63858d3ac26" target="_top" xlink:title=" ">
<polygon fill="white" stroke="#666666" points="553.75,-220 426,-220 426,-188 553.75,-188 553.75,-220"/>
<text text-anchor="start" x="434" y="-206.5" font-family="Helvetica,sans-Serif" font-size="10.00">ThreadIdentify::setThread</text>
<text text-anchor="middle" x="489.88" y="-194.5" font-family="Helvetica,sans-Serif" font-size="10.00">WorkingName</text>
</a>
</g>
</g>
<!-- Node5&#45;&gt;Node18 -->
<g id="edge19_Node000005_Node000018" class="edge">
<title>Node5&#45;&gt;Node18</title>
<g id="a_edge19_Node000005_Node000018"><a xlink:title=" ">
<path fill="none" stroke="#63b8ff" d="M370.98,-239.54C387.38,-234.59 406.01,-228.98 423.55,-223.69"/>
<polygon fill="#63b8ff" stroke="#63b8ff" points="424.28,-227.13 432.84,-220.89 422.26,-220.42 424.28,-227.13"/>
</a>
</g>
</g>
<!-- Node20 -->
<g id="Node000020" class="node">
<title>Node20</title>
<g id="a_Node000020"><a xlink:href="a00433.html#a2db790edad6d2f47d59c98f494d89b17" target="_top" xlink:title=" ">
<polygon fill="white" stroke="#666666" points="559,-170 420.75,-170 420.75,-138 559,-138 559,-170"/>
<text text-anchor="start" x="428.75" y="-156.5" font-family="Helvetica,sans-Serif" font-size="10.00">ThreadIdentify::unsetThread</text>
<text text-anchor="middle" x="489.88" y="-144.5" font-family="Helvetica,sans-Serif" font-size="10.00">WorkingName</text>
</a>
</g>
</g>
<!-- Node5&#45;&gt;Node20 -->
<g id="edge21_Node000005_Node000020" class="edge">
<title>Node5&#45;&gt;Node20</title>
<g id="a_edge21_Node000005_Node000020"><a xlink:title=" ">
<path fill="none" stroke="#63b8ff" d="M339.06,-237.59C356.25,-220.83 384.99,-195.07 414,-179 416.52,-177.61 419.13,-176.27 421.79,-175"/>
<polygon fill="#63b8ff" stroke="#63b8ff" points="423.17,-178.22 430.92,-170.99 420.36,-171.81 423.17,-178.22"/>
</a>
</g>
</g>
<!-- Node21 -->
<g id="Node000021" class="node">
<title>Node21</title>
<g id="a_Node000021"><a xlink:href="a00916.html#a6ef15df69e979357df7bd10031bf2328" target="_top" xlink:title=" ">
<polygon fill="white" stroke="#666666" points="538.38,-120 441.38,-120 441.38,-88 538.38,-88 538.38,-120"/>
<text text-anchor="start" x="449.38" y="-106.5" font-family="Helvetica,sans-Serif" font-size="10.00">LibLoader::Plugin::</text>
<text text-anchor="middle" x="489.88" y="-94.5" font-family="Helvetica,sans-Serif" font-size="10.00">updateTimeStamp</text>
</a>
</g>
</g>
<!-- Node5&#45;&gt;Node21 -->
<g id="edge23_Node000005_Node000021" class="edge">
<title>Node5&#45;&gt;Node21</title>
<g id="a_edge23_Node000005_Node000021"><a xlink:title=" ">
<path fill="none" stroke="#63b8ff" d="M330.65,-237.69C343.93,-211.11 373.71,-158.49 414,-129 419.17,-125.21 424.95,-121.98 430.95,-119.22"/>
<polygon fill="#63b8ff" stroke="#63b8ff" points="431.86,-122.63 439.77,-115.58 429.19,-116.15 431.86,-122.63"/>
</a>
</g>
</g>
<!-- Node11 -->
<g id="Node000011" class="node">
<title>Node11</title>
<g id="a_Node000011"><a xlink:href="a00872.html#af4d7d5164450e25f7401d1cc15f15b8d" target="_top" xlink:title="实际暴露的接口">
<polygon fill="white" stroke="#666666" points="724.25,-257 601.75,-257 601.75,-225 724.25,-225 724.25,-257"/>
<text text-anchor="start" x="609.75" y="-243.5" font-family="Helvetica,sans-Serif" font-size="10.00">LibLoader::LoaderLogger</text>
<text text-anchor="middle" x="663" y="-231.5" font-family="Helvetica,sans-Serif" font-size="10.00">::call_logger</text>
</a>
</g>
</g>
<!-- Node10&#45;&gt;Node11 -->
<g id="edge10_Node000010_Node000011" class="edge">
<title>Node10&#45;&gt;Node11</title>
<g id="a_edge10_Node000010_Node000011"><a xlink:title=" ">
<path fill="none" stroke="#63b8ff" d="M551.21,-249.42C563.79,-248.46 577.16,-247.44 590.11,-246.46"/>
<polygon fill="#63b8ff" stroke="#63b8ff" points="590.13,-249.97 599.84,-245.72 589.6,-242.99 590.13,-249.97"/>
</a>
</g>
</g>
<!-- Node12 -->
<g id="Node000012" class="node">
<title>Node12</title>
<g id="a_Node000012"><a xlink:href="a00430.html#a076c5f4ff8083c7cfc6523498d0ba30f" target="_top" xlink:title=" ">
<polygon fill="white" stroke="#666666" points="1015.38,-263 913.12,-263 913.12,-231 1015.38,-231 1015.38,-263"/>
<text text-anchor="start" x="921.12" y="-249.5" font-family="Helvetica,sans-Serif" font-size="10.00">LibLoader::JNIEnvs</text>
<text text-anchor="middle" x="964.25" y="-237.5" font-family="Helvetica,sans-Serif" font-size="10.00">::getEnv</text>
</a>
</g>
</g>
<!-- Node11&#45;&gt;Node12 -->
<g id="edge11_Node000011_Node000012" class="edge">
<title>Node11&#45;&gt;Node12</title>
<g id="a_edge11_Node000011_Node000012"><a xlink:title=" ">
<path fill="none" stroke="#63b8ff" d="M724.56,-242.21C776,-243.25 849.53,-244.72 901.35,-245.76"/>
<polygon fill="#63b8ff" stroke="#63b8ff" points="901.14,-249.26 911.21,-245.96 901.28,-242.26 901.14,-249.26"/>
</a>
</g>
</g>
<!-- Node16 -->
<g id="Node000016" class="node">
<title>Node16</title>
<g id="a_Node000016"><a xlink:href="a00425.html#a6a6fcd695791253a9b3a053d313b2b93" target="_top" xlink:title=" ">
<polygon fill="white" stroke="#666666" points="867,-232 760.25,-232 760.25,-212 867,-212 867,-232"/>
<text text-anchor="middle" x="813.62" y="-218.5" font-family="Helvetica,sans-Serif" font-size="10.00">LibLoader::str2jstring</text>
</a>
</g>
</g>
<!-- Node11&#45;&gt;Node16 -->
<g id="edge15_Node000011_Node000016" class="edge">
<title>Node11&#45;&gt;Node16</title>
<g id="a_edge15_Node000011_Node000016"><a xlink:title=" ">
<path fill="none" stroke="#63b8ff" d="M724.45,-233.27C732.43,-232.25 740.62,-231.2 748.65,-230.18"/>
<polygon fill="#63b8ff" stroke="#63b8ff" points="748.88,-233.68 758.36,-228.94 747.99,-226.73 748.88,-233.68"/>
</a>
</g>
</g>
<!-- Node13 -->
<g id="Node000013" class="node">
<title>Node13</title>
<g id="a_Node000013"><a xlink:href="a00840.html#aea7d58ff9f04d6d4849c25a2506603a5" target="_top" xlink:title="取env,如果不存在重新获取">
<polygon fill="white" stroke="#666666" points="1184.75,-257 1061.5,-257 1061.5,-237 1184.75,-237 1184.75,-257"/>
<text text-anchor="middle" x="1123.12" y="-243.5" font-family="Helvetica,sans-Serif" font-size="10.00">JNIEnvManager::getEnv</text>
</a>
</g>
</g>
<!-- Node12&#45;&gt;Node13 -->
<g id="edge12_Node000012_Node000013" class="edge">
<title>Node12&#45;&gt;Node13</title>
<g id="a_edge12_Node000012_Node000013"><a xlink:title=" ">
<path fill="none" stroke="#63b8ff" d="M1015.75,-247C1026.57,-247 1038.2,-247 1049.66,-247"/>
<polygon fill="#63b8ff" stroke="#63b8ff" points="1049.51,-250.5 1059.51,-247 1049.51,-243.5 1049.51,-250.5"/>
</a>
</g>
</g>
<!-- Node14 -->
<g id="Node000014" class="node">
<title>Node14</title>
<g id="a_Node000014"><a xlink:href="a00260.html#a3d31403b7971274d47d308245206bd24" target="_top" xlink:title="为当前线程创建一个env.">
<polygon fill="white" stroke="#666666" points="1272,-257 1220.75,-257 1220.75,-237 1272,-237 1272,-257"/>
<text text-anchor="middle" x="1246.38" y="-243.5" font-family="Helvetica,sans-Serif" font-size="10.00">newEnv</text>
</a>
</g>
</g>
<!-- Node13&#45;&gt;Node14 -->
<g id="edge13_Node000013_Node000014" class="edge">
<title>Node13&#45;&gt;Node14</title>
<g id="a_edge13_Node000013_Node000014"><a xlink:title=" ">
<path fill="none" stroke="#63b8ff" d="M1185.11,-247C1193.31,-247 1201.51,-247 1209.09,-247"/>
<polygon fill="#63b8ff" stroke="#63b8ff" points="1208.91,-250.5 1218.91,-247 1208.91,-243.5 1208.91,-250.5"/>
</a>
</g>
</g>
<!-- Node15 -->
<g id="Node000015" class="node">
<title>Node15</title>
<g id="a_Node000015"><a xlink:href="a00840.html#ae0e482c6a813848a8f5d34957d1b6307" target="_top" xlink:title="获取全局JavaVM对象.">
<polygon fill="white" stroke="#666666" points="1435,-257 1308,-257 1308,-237 1435,-237 1435,-257"/>
<text text-anchor="middle" x="1371.5" y="-243.5" font-family="Helvetica,sans-Serif" font-size="10.00">JNIEnvManager::getGvm</text>
</a>
</g>
</g>
<!-- Node14&#45;&gt;Node15 -->
<g id="edge14_Node000014_Node000015" class="edge">
<title>Node14&#45;&gt;Node15</title>
<g id="a_edge14_Node000014_Node000015"><a xlink:title=" ">
<path fill="none" stroke="#63b8ff" d="M1272.29,-247C1279.47,-247 1287.7,-247 1296.27,-247"/>
<polygon fill="#63b8ff" stroke="#63b8ff" points="1296.16,-250.5 1306.16,-247 1296.16,-243.5 1296.16,-250.5"/>
</a>
</g>
</g>
<!-- Node16&#45;&gt;Node12 -->
<g id="edge16_Node000016_Node000012" class="edge">
<title>Node16&#45;&gt;Node12</title>
<g id="a_edge16_Node000016_Node000012"><a xlink:title=" ">
<path fill="none" stroke="#63b8ff" d="M867.44,-230.88C878.58,-232.76 890.43,-234.75 901.85,-236.67"/>
<polygon fill="#63b8ff" stroke="#63b8ff" points="901.16,-240.1 911.6,-238.31 902.32,-233.2 901.16,-240.1"/>
</a>
</g>
</g>
<!-- Node16&#45;&gt;Node17 -->
<g id="edge17_Node000016_Node000017" class="edge">
<title>Node16&#45;&gt;Node17</title>
<g id="a_edge17_Node000016_Node000017"><a xlink:title=" ">
<path fill="none" stroke="#63b8ff" d="M855.63,-211.52C866.86,-208.64 879.37,-205.45 891.78,-202.27"/>
<polygon fill="#63b8ff" stroke="#63b8ff" points="892.33,-205.75 901.15,-199.88 890.6,-198.96 892.33,-205.75"/>
</a>
</g>
</g>
<!-- Node17&#45;&gt;Node11 -->
<g id="edge18_Node000017_Node000011" class="edge">
<title>Node17&#45;&gt;Node11</title>
<g id="a_edge18_Node000017_Node000011"><a xlink:title=" ">
<path fill="none" stroke="#63b8ff" d="M902.56,-185.21C861.84,-187.11 807.24,-191.77 760.25,-203 743.07,-207.11 724.89,-213.66 709.01,-220.18"/>
<polygon fill="#63b8ff" stroke="#63b8ff" points="707.67,-216.95 699.82,-224.07 710.4,-223.4 707.67,-216.95"/>
</a>
</g>
</g>
<!-- Node19 -->
<g id="Node000019" class="node">
<title>Node19</title>
<g id="a_Node000019"><a xlink:href="a00433.html#a3faddb4b1d901c39b71cd3559fbd5e3b" target="_top" xlink:title=" ">
<polygon fill="white" stroke="#666666" points="724.25,-195 601.75,-195 601.75,-163 724.25,-163 724.25,-195"/>
<text text-anchor="start" x="609.75" y="-181.5" font-family="Helvetica,sans-Serif" font-size="10.00">ThreadIdentify::internal</text>
<text text-anchor="middle" x="663" y="-169.5" font-family="Helvetica,sans-Serif" font-size="10.00">SetThreadWorkingName</text>
</a>
</g>
</g>
<!-- Node18&#45;&gt;Node19 -->
<g id="edge20_Node000018_Node000019" class="edge">
<title>Node18&#45;&gt;Node19</title>
<g id="a_edge20_Node000018_Node000019"><a xlink:title=" ">
<path fill="none" stroke="#63b8ff" d="M554.11,-194.76C565.8,-193.05 578.08,-191.26 590.01,-189.52"/>
<polygon fill="#63b8ff" stroke="#63b8ff" points="590.41,-193 599.8,-188.09 589.4,-186.07 590.41,-193"/>
</a>
</g>
</g>
<!-- Node20&#45;&gt;Node19 -->
<g id="edge22_Node000020_Node000019" class="edge">
<title>Node20&#45;&gt;Node19</title>
<g id="a_edge22_Node000020_Node000019"><a xlink:title=" ">
<path fill="none" stroke="#63b8ff" d="M559.49,-164.02C569.56,-165.5 579.95,-167.01 590.08,-168.49"/>
<polygon fill="#63b8ff" stroke="#63b8ff" points="589.48,-171.94 599.88,-169.92 590.49,-165.02 589.48,-171.94"/>
</a>
</g>
</g>
</g>
</svg>
