<?xml version="1.0" encoding="UTF-8" standalone="no"?>
<!DOCTYPE svg PUBLIC "-//W3C//DTD SVG 1.1//EN"
 "http://www.w3.org/Graphics/SVG/1.1/DTD/svg11.dtd">
<!-- Generated by graphviz version 9.0.0 (0)
 -->
<!-- Title: Antares::ThreadPool::destroy_threads Pages: 1 -->
<svg width="255pt" height="90pt"
 viewBox="0.00 0.00 254.50 90.00" xmlns="http://www.w3.org/2000/svg" xmlns:xlink="http://www.w3.org/1999/xlink">
<g id="graph0" class="graph" transform="scale(1 1) rotate(0) translate(4 86)">
<title>Antares::ThreadPool::destroy_threads</title>
<!-- Node1 -->
<g id="Node000001" class="node">
<title>Node1</title>
<g id="a_Node000001"><a xlink:title=" ">
<polygon fill="#999999" stroke="#666666" points="246.5,-57 141.25,-57 141.25,-25 246.5,-25 246.5,-57"/>
<text text-anchor="start" x="149.25" y="-43.5" font-family="Helvetica,sans-Serif" font-size="10.00">Antares::ThreadPool</text>
<text text-anchor="middle" x="193.88" y="-31.5" font-family="Helvetica,sans-Serif" font-size="10.00">::destroy_threads</text>
</a>
</g>
</g>
<!-- Node2 -->
<g id="Node000002" class="node">
<title>Node2</title>
<g id="a_Node000002"><a xlink:href="a00952.html#a1600af46c9181828ed152503010d1c37" target="_top" xlink:title=" ">
<polygon fill="white" stroke="#666666" points="105.25,-82 0,-82 0,-50 105.25,-50 105.25,-82"/>
<text text-anchor="start" x="8" y="-68.5" font-family="Helvetica,sans-Serif" font-size="10.00">Antares::ThreadPool</text>
<text text-anchor="middle" x="52.62" y="-56.5" font-family="Helvetica,sans-Serif" font-size="10.00">::reset</text>
</a>
</g>
</g>
<!-- Node1&#45;&gt;Node2 -->
<g id="edge1_Node000001_Node000002" class="edge">
<title>Node1&#45;&gt;Node2</title>
<g id="a_edge1_Node000001_Node000002"><a xlink:title=" ">
<path fill="none" stroke="#63b8ff" d="M129.71,-52.34C121.61,-53.79 113.4,-55.27 105.52,-56.68"/>
<polygon fill="#63b8ff" stroke="#63b8ff" points="130.31,-55.79 139.53,-50.58 129.07,-48.9 130.31,-55.79"/>
</a>
</g>
</g>
<!-- Node3 -->
<g id="Node000003" class="node">
<title>Node3</title>
<g id="a_Node000003"><a xlink:href="a00952.html#aba09f31311db63c4cea60cddb58c7ca1" target="_top" xlink:title=" ">
<polygon fill="white" stroke="#666666" points="105.25,-32 0,-32 0,0 105.25,0 105.25,-32"/>
<text text-anchor="start" x="8" y="-18.5" font-family="Helvetica,sans-Serif" font-size="10.00">Antares::ThreadPool</text>
<text text-anchor="middle" x="52.62" y="-6.5" font-family="Helvetica,sans-Serif" font-size="10.00">::~ThreadPool</text>
</a>
</g>
</g>
<!-- Node1&#45;&gt;Node3 -->
<g id="edge2_Node000001_Node000003" class="edge">
<title>Node1&#45;&gt;Node3</title>
<g id="a_edge2_Node000001_Node000003"><a xlink:title=" ">
<path fill="none" stroke="#63b8ff" d="M129.71,-29.66C121.61,-28.21 113.4,-26.73 105.52,-25.32"/>
<polygon fill="#63b8ff" stroke="#63b8ff" points="129.07,-33.1 139.53,-31.42 130.31,-26.21 129.07,-33.1"/>
</a>
</g>
</g>
</g>
</svg>
