<?xml version="1.0" encoding="UTF-8" standalone="no"?>
<!DOCTYPE svg PUBLIC "-//W3C//DTD SVG 1.1//EN"
 "http://www.w3.org/Graphics/SVG/1.1/DTD/svg11.dtd">
<!-- Generated by graphviz version 9.0.0 (0)
 -->
<!-- Title: LibLoader::Plugin::~Plugin Pages: 1 -->
<svg width="1576pt" height="528pt"
 viewBox="0.00 0.00 1576.00 528.00" xmlns="http://www.w3.org/2000/svg" xmlns:xlink="http://www.w3.org/1999/xlink">
<g id="graph0" class="graph" transform="scale(1 1) rotate(0) translate(4 524)">
<title>LibLoader::Plugin::~Plugin</title>
<!-- Node1 -->
<g id="Node000001" class="node">
<title>Node1</title>
<g id="a_Node000001"><a xlink:title=" ">
<polygon fill="#999999" stroke="#666666" points="97,-173 0,-173 0,-141 97,-141 97,-173"/>
<text text-anchor="start" x="8" y="-159.5" font-family="Helvetica,sans-Serif" font-size="10.00">LibLoader::Plugin::</text>
<text text-anchor="middle" x="48.5" y="-147.5" font-family="Helvetica,sans-Serif" font-size="10.00">~Plugin</text>
</a>
</g>
</g>
<!-- Node2 -->
<g id="Node000002" class="node">
<title>Node2</title>
<g id="a_Node000002"><a xlink:href="a00916.html#abc57e6dfaed7b6445c8ba8d94b09ec13" target="_top" xlink:title=" ">
<polygon fill="white" stroke="#666666" points="230,-173 133,-173 133,-141 230,-141 230,-173"/>
<text text-anchor="start" x="141" y="-159.5" font-family="Helvetica,sans-Serif" font-size="10.00">LibLoader::Plugin::</text>
<text text-anchor="middle" x="181.5" y="-147.5" font-family="Helvetica,sans-Serif" font-size="10.00">unloadPlugin</text>
</a>
</g>
</g>
<!-- Node1&#45;&gt;Node2 -->
<g id="edge1_Node000001_Node000002" class="edge">
<title>Node1&#45;&gt;Node2</title>
<g id="a_edge1_Node000001_Node000002"><a xlink:title=" ">
<path fill="none" stroke="#63b8ff" d="M97.16,-157C105.02,-157 113.25,-157 121.34,-157"/>
<polygon fill="#63b8ff" stroke="#63b8ff" points="121.14,-160.5 131.14,-157 121.14,-153.5 121.14,-160.5"/>
</a>
</g>
</g>
<!-- Node3 -->
<g id="Node000003" class="node">
<title>Node3</title>
<g id="a_Node000003"><a xlink:href="a00916.html#ac03a32a4b96ba4618fee0628d3998aef" target="_top" xlink:title=" ">
<polygon fill="white" stroke="#666666" points="363,-173 266,-173 266,-141 363,-141 363,-173"/>
<text text-anchor="start" x="274" y="-159.5" font-family="Helvetica,sans-Serif" font-size="10.00">LibLoader::Plugin::</text>
<text text-anchor="middle" x="314.5" y="-147.5" font-family="Helvetica,sans-Serif" font-size="10.00">unloadInternal</text>
</a>
</g>
</g>
<!-- Node2&#45;&gt;Node3 -->
<g id="edge2_Node000002_Node000003" class="edge">
<title>Node2&#45;&gt;Node3</title>
<g id="a_edge2_Node000002_Node000003"><a xlink:title=" ">
<path fill="none" stroke="#63b8ff" d="M230.16,-157C238.02,-157 246.25,-157 254.34,-157"/>
<polygon fill="#63b8ff" stroke="#63b8ff" points="254.14,-160.5 264.14,-157 254.14,-153.5 254.14,-160.5"/>
</a>
</g>
</g>
<!-- Node4 -->
<g id="Node000004" class="node">
<title>Node4</title>
<g id="a_Node000004"><a xlink:href="a00924.html#a06be765d6cf55aa951f7eecb7ba578e8" target="_top" xlink:title=" ">
<polygon fill="white" stroke="#666666" points="511,-420 399,-420 399,-388 511,-388 511,-420"/>
<text text-anchor="start" x="407" y="-406.5" font-family="Helvetica,sans-Serif" font-size="10.00">LibLoader::PluginData</text>
<text text-anchor="middle" x="455" y="-394.5" font-family="Helvetica,sans-Serif" font-size="10.00">::_unload</text>
</a>
</g>
</g>
<!-- Node3&#45;&gt;Node4 -->
<g id="edge3_Node000003_Node000004" class="edge">
<title>Node3&#45;&gt;Node4</title>
<g id="a_edge3_Node000003_Node000004"><a xlink:title=" ">
<path fill="none" stroke="#63b8ff" d="M324.59,-173.21C348.02,-214.99 410.64,-326.67 439.3,-377.79"/>
<polygon fill="#63b8ff" stroke="#63b8ff" points="436.2,-379.4 444.14,-386.41 442.3,-375.98 436.2,-379.4"/>
</a>
</g>
</g>
<!-- Node6 -->
<g id="Node000006" class="node">
<title>Node6</title>
<g id="a_Node000006"><a xlink:href="a00916.html#a006c0eaa142f9aa1760ec307cd3c0cee" target="_top" xlink:title=" ">
<polygon fill="white" stroke="#666666" points="503.5,-270 406.5,-270 406.5,-238 503.5,-238 503.5,-270"/>
<text text-anchor="start" x="414.5" y="-256.5" font-family="Helvetica,sans-Serif" font-size="10.00">LibLoader::Plugin::</text>
<text text-anchor="middle" x="455" y="-244.5" font-family="Helvetica,sans-Serif" font-size="10.00">disableInternal</text>
</a>
</g>
</g>
<!-- Node3&#45;&gt;Node6 -->
<g id="edge5_Node000003_Node000006" class="edge">
<title>Node3&#45;&gt;Node6</title>
<g id="a_edge5_Node000003_Node000006"><a xlink:title=" ">
<path fill="none" stroke="#63b8ff" d="M338.99,-173.45C361.71,-189.37 396.33,-213.61 421.65,-231.34"/>
<polygon fill="#63b8ff" stroke="#63b8ff" points="419.41,-234.05 429.61,-236.92 423.43,-228.32 419.41,-234.05"/>
</a>
</g>
</g>
<!-- Node18 -->
<g id="Node000018" class="node">
<title>Node18</title>
<g id="a_Node000018"><a xlink:href="a00872.html#af50d0545fe7d683e54fcd03453a423e3" target="_top" xlink:title=" ">
<polygon fill="white" stroke="#666666" points="1158.5,-200 1036,-200 1036,-168 1158.5,-168 1158.5,-200"/>
<text text-anchor="start" x="1044" y="-186.5" font-family="Helvetica,sans-Serif" font-size="10.00">LibLoader::LoaderLogger</text>
<text text-anchor="middle" x="1097.25" y="-174.5" font-family="Helvetica,sans-Serif" font-size="10.00">::warning</text>
</a>
</g>
</g>
<!-- Node3&#45;&gt;Node18 -->
<g id="edge26_Node000003_Node000018" class="edge">
<title>Node3&#45;&gt;Node18</title>
<g id="a_edge26_Node000003_Node000018"><a xlink:title=" ">
<path fill="none" stroke="#63b8ff" d="M345.8,-140.55C399.69,-112.87 516.43,-60 621.88,-60 621.88,-60 621.88,-60 797,-60 901.56,-60 1012.09,-125.41 1064.76,-161.21"/>
<polygon fill="#63b8ff" stroke="#63b8ff" points="1062.45,-163.87 1072.67,-166.67 1066.43,-158.11 1062.45,-163.87"/>
</a>
</g>
</g>
<!-- Node23 -->
<g id="Node000023" class="node">
<title>Node23</title>
<g id="a_Node000023"><a xlink:href="a00426.html#a830b51c74068e1461e1baf677dd10ac2" target="_top" xlink:title=" ">
<polygon fill="white" stroke="#666666" points="508.75,-32 401.25,-32 401.25,0 508.75,0 508.75,-32"/>
<text text-anchor="start" x="409.25" y="-18.5" font-family="Helvetica,sans-Serif" font-size="10.00">LibLoader::LoaderApi</text>
<text text-anchor="middle" x="455" y="-6.5" font-family="Helvetica,sans-Serif" font-size="10.00">::libClose</text>
</a>
</g>
</g>
<!-- Node3&#45;&gt;Node23 -->
<g id="edge25_Node000003_Node000023" class="edge">
<title>Node3&#45;&gt;Node23</title>
<g id="a_edge25_Node000003_Node000023"><a xlink:title=" ">
<path fill="none" stroke="#63b8ff" d="M324.75,-140.57C338.53,-117.25 366.34,-74.22 399,-46 402.1,-43.32 405.49,-40.77 409,-38.39"/>
<polygon fill="#63b8ff" stroke="#63b8ff" points="410.59,-41.52 417.22,-33.25 406.88,-35.58 410.59,-41.52"/>
</a>
</g>
</g>
<!-- Node5 -->
<g id="Node000005" class="node">
<title>Node5</title>
<g id="a_Node000005"><a xlink:href="a00920.html#a81c7f6972e7ed7429f2ce9ba82c9ba31" target="_top" xlink:title=" ">
<polygon fill="white" stroke="#666666" points="689.38,-520 556.38,-520 556.38,-488 689.38,-488 689.38,-520"/>
<text text-anchor="start" x="564.38" y="-506.5" font-family="Helvetica,sans-Serif" font-size="10.00">LibLoader::PluginFuncAddr</text>
<text text-anchor="middle" x="622.88" y="-494.5" font-family="Helvetica,sans-Serif" font-size="10.00">Data::_resetAddrData</text>
</a>
</g>
</g>
<!-- Node4&#45;&gt;Node5 -->
<g id="edge4_Node000004_Node000005" class="edge">
<title>Node4&#45;&gt;Node5</title>
<g id="a_edge4_Node000004_Node000005"><a xlink:title=" ">
<path fill="none" stroke="#63b8ff" d="M472.06,-420.41C489.25,-437.17 517.99,-462.93 547,-479 549.52,-480.39 552.13,-481.73 554.79,-483"/>
<polygon fill="#63b8ff" stroke="#63b8ff" points="553.36,-486.19 563.92,-487.01 556.17,-479.78 553.36,-486.19"/>
</a>
</g>
</g>
<!-- Node7 -->
<g id="Node000007" class="node">
<title>Node7</title>
<g id="a_Node000007"><a xlink:href="a00924.html#af4e8baa9d706f75b1bf21d95069d3f42" target="_top" xlink:title=" ">
<polygon fill="white" stroke="#666666" points="678.88,-470 566.88,-470 566.88,-438 678.88,-438 678.88,-470"/>
<text text-anchor="start" x="574.88" y="-456.5" font-family="Helvetica,sans-Serif" font-size="10.00">LibLoader::PluginData</text>
<text text-anchor="middle" x="622.88" y="-444.5" font-family="Helvetica,sans-Serif" font-size="10.00">::_disable</text>
</a>
</g>
</g>
<!-- Node6&#45;&gt;Node7 -->
<g id="edge6_Node000006_Node000007" class="edge">
<title>Node6&#45;&gt;Node7</title>
<g id="a_edge6_Node000006_Node000007"><a xlink:title=" ">
<path fill="none" stroke="#63b8ff" d="M462.69,-270.49C478.83,-309.61 520.57,-406.43 547,-429 549.96,-431.52 553.18,-433.8 556.56,-435.84"/>
<polygon fill="#63b8ff" stroke="#63b8ff" points="554.66,-438.79 565.14,-440.32 557.9,-432.59 554.66,-438.79"/>
</a>
</g>
</g>
<!-- Node8 -->
<g id="Node000008" class="node">
<title>Node8</title>
<g id="a_Node000008"><a xlink:href="a00924.html#a0c7449a3e94c1e4659337e62fc513fd8" target="_top" xlink:title=" ">
<polygon fill="white" stroke="#666666" points="678.88,-420 566.88,-420 566.88,-388 678.88,-388 678.88,-420"/>
<text text-anchor="start" x="574.88" y="-406.5" font-family="Helvetica,sans-Serif" font-size="10.00">LibLoader::PluginData</text>
<text text-anchor="middle" x="622.88" y="-394.5" font-family="Helvetica,sans-Serif" font-size="10.00">::_getId</text>
</a>
</g>
</g>
<!-- Node6&#45;&gt;Node8 -->
<g id="edge7_Node000006_Node000008" class="edge">
<title>Node6&#45;&gt;Node8</title>
<g id="a_edge7_Node000006_Node000008"><a xlink:title=" ">
<path fill="none" stroke="#63b8ff" d="M463.65,-270.31C476.93,-296.89 506.71,-349.51 547,-379 549.99,-381.19 553.17,-383.19 556.49,-385.02"/>
<polygon fill="#63b8ff" stroke="#63b8ff" points="554.86,-388.12 565.38,-389.37 557.94,-381.83 554.86,-388.12"/>
</a>
</g>
</g>
<!-- Node9 -->
<g id="Node000009" class="node">
<title>Node9</title>
<g id="a_Node000009"><a xlink:href="a00916.html#ae42c2fb572d9814de8f0a10ca2c0d2f3" target="_top" xlink:title=" ">
<polygon fill="white" stroke="#666666" points="671.38,-370 574.38,-370 574.38,-338 671.38,-338 671.38,-370"/>
<text text-anchor="start" x="582.38" y="-356.5" font-family="Helvetica,sans-Serif" font-size="10.00">LibLoader::Plugin::</text>
<text text-anchor="middle" x="622.88" y="-344.5" font-family="Helvetica,sans-Serif" font-size="10.00">checkValid</text>
</a>
</g>
</g>
<!-- Node6&#45;&gt;Node9 -->
<g id="edge8_Node000006_Node000009" class="edge">
<title>Node6&#45;&gt;Node9</title>
<g id="a_edge8_Node000006_Node000009"><a xlink:title=" ">
<path fill="none" stroke="#63b8ff" d="M472.06,-270.41C489.25,-287.17 517.99,-312.93 547,-329 552.25,-331.9 557.88,-334.55 563.63,-336.93"/>
<polygon fill="#63b8ff" stroke="#63b8ff" points="562.02,-340.06 572.61,-340.4 564.54,-333.53 562.02,-340.06"/>
</a>
</g>
</g>
<!-- Node10 -->
<g id="Node000010" class="node">
<title>Node10</title>
<g id="a_Node000010"><a xlink:href="a00772.html#a62b91390b919ca8df0b6036c7e07f326" target="_top" xlink:title=" ">
<polygon fill="white" stroke="#666666" points="698.75,-320 547,-320 547,-288 698.75,-288 698.75,-320"/>
<text text-anchor="start" x="555" y="-306.5" font-family="Helvetica,sans-Serif" font-size="10.00">MiraiCP::PluginInterface</text>
<text text-anchor="middle" x="622.88" y="-294.5" font-family="Helvetica,sans-Serif" font-size="10.00">::PluginMessageHandles::clear</text>
</a>
</g>
</g>
<!-- Node6&#45;&gt;Node10 -->
<g id="edge9_Node000006_Node000010" class="edge">
<title>Node6&#45;&gt;Node10</title>
<g id="a_edge9_Node000006_Node000010"><a xlink:title=" ">
<path fill="none" stroke="#63b8ff" d="M503.98,-268.46C520.38,-273.41 539.01,-279.02 556.55,-284.31"/>
<polygon fill="#63b8ff" stroke="#63b8ff" points="555.26,-287.58 565.84,-287.11 557.28,-280.87 555.26,-287.58"/>
</a>
</g>
</g>
<!-- Node11 -->
<g id="Node000011" class="node">
<title>Node11</title>
<g id="a_Node000011"><a xlink:href="a00872.html#ae735f16b20f681d29d4e5d28ad248dbe" target="_top" xlink:title=" ">
<polygon fill="white" stroke="#666666" points="684.12,-270 561.62,-270 561.62,-238 684.12,-238 684.12,-270"/>
<text text-anchor="start" x="569.62" y="-256.5" font-family="Helvetica,sans-Serif" font-size="10.00">LibLoader::LoaderLogger</text>
<text text-anchor="middle" x="622.88" y="-244.5" font-family="Helvetica,sans-Serif" font-size="10.00">::error</text>
</a>
</g>
</g>
<!-- Node6&#45;&gt;Node11 -->
<g id="edge10_Node000006_Node000011" class="edge">
<title>Node6&#45;&gt;Node11</title>
<g id="a_edge10_Node000006_Node000011"><a xlink:title=" ">
<path fill="none" stroke="#63b8ff" d="M503.98,-254C518.38,-254 534.49,-254 550.08,-254"/>
<polygon fill="#63b8ff" stroke="#63b8ff" points="549.79,-257.5 559.79,-254 549.79,-250.5 549.79,-257.5"/>
</a>
</g>
</g>
<!-- Node19 -->
<g id="Node000019" class="node">
<title>Node19</title>
<g id="a_Node000019"><a xlink:href="a00433.html#aae621af986af1d6d3203f63858d3ac26" target="_top" xlink:title=" ">
<polygon fill="white" stroke="#666666" points="686.75,-220 559,-220 559,-188 686.75,-188 686.75,-220"/>
<text text-anchor="start" x="567" y="-206.5" font-family="Helvetica,sans-Serif" font-size="10.00">ThreadIdentify::setThread</text>
<text text-anchor="middle" x="622.88" y="-194.5" font-family="Helvetica,sans-Serif" font-size="10.00">WorkingName</text>
</a>
</g>
</g>
<!-- Node6&#45;&gt;Node19 -->
<g id="edge20_Node000006_Node000019" class="edge">
<title>Node6&#45;&gt;Node19</title>
<g id="a_edge20_Node000006_Node000019"><a xlink:title=" ">
<path fill="none" stroke="#63b8ff" d="M503.98,-239.54C520.38,-234.59 539.01,-228.98 556.55,-223.69"/>
<polygon fill="#63b8ff" stroke="#63b8ff" points="557.28,-227.13 565.84,-220.89 555.26,-220.42 557.28,-227.13"/>
</a>
</g>
</g>
<!-- Node21 -->
<g id="Node000021" class="node">
<title>Node21</title>
<g id="a_Node000021"><a xlink:href="a00433.html#a2db790edad6d2f47d59c98f494d89b17" target="_top" xlink:title=" ">
<polygon fill="white" stroke="#666666" points="692,-170 553.75,-170 553.75,-138 692,-138 692,-170"/>
<text text-anchor="start" x="561.75" y="-156.5" font-family="Helvetica,sans-Serif" font-size="10.00">ThreadIdentify::unsetThread</text>
<text text-anchor="middle" x="622.88" y="-144.5" font-family="Helvetica,sans-Serif" font-size="10.00">WorkingName</text>
</a>
</g>
</g>
<!-- Node6&#45;&gt;Node21 -->
<g id="edge22_Node000006_Node000021" class="edge">
<title>Node6&#45;&gt;Node21</title>
<g id="a_edge22_Node000006_Node000021"><a xlink:title=" ">
<path fill="none" stroke="#63b8ff" d="M472.06,-237.59C489.25,-220.83 517.99,-195.07 547,-179 549.52,-177.61 552.13,-176.27 554.79,-175"/>
<polygon fill="#63b8ff" stroke="#63b8ff" points="556.17,-178.22 563.92,-170.99 553.36,-171.81 556.17,-178.22"/>
</a>
</g>
</g>
<!-- Node22 -->
<g id="Node000022" class="node">
<title>Node22</title>
<g id="a_Node000022"><a xlink:href="a00916.html#a6ef15df69e979357df7bd10031bf2328" target="_top" xlink:title=" ">
<polygon fill="white" stroke="#666666" points="671.38,-120 574.38,-120 574.38,-88 671.38,-88 671.38,-120"/>
<text text-anchor="start" x="582.38" y="-106.5" font-family="Helvetica,sans-Serif" font-size="10.00">LibLoader::Plugin::</text>
<text text-anchor="middle" x="622.88" y="-94.5" font-family="Helvetica,sans-Serif" font-size="10.00">updateTimeStamp</text>
</a>
</g>
</g>
<!-- Node6&#45;&gt;Node22 -->
<g id="edge24_Node000006_Node000022" class="edge">
<title>Node6&#45;&gt;Node22</title>
<g id="a_edge24_Node000006_Node000022"><a xlink:title=" ">
<path fill="none" stroke="#63b8ff" d="M463.65,-237.69C476.93,-211.11 506.71,-158.49 547,-129 552.17,-125.21 557.95,-121.98 563.95,-119.22"/>
<polygon fill="#63b8ff" stroke="#63b8ff" points="564.86,-122.63 572.77,-115.58 562.19,-116.15 564.86,-122.63"/>
</a>
</g>
</g>
<!-- Node12 -->
<g id="Node000012" class="node">
<title>Node12</title>
<g id="a_Node000012"><a xlink:href="a00872.html#af4d7d5164450e25f7401d1cc15f15b8d" target="_top" xlink:title="实际暴露的接口">
<polygon fill="white" stroke="#666666" points="857.25,-257 734.75,-257 734.75,-225 857.25,-225 857.25,-257"/>
<text text-anchor="start" x="742.75" y="-243.5" font-family="Helvetica,sans-Serif" font-size="10.00">LibLoader::LoaderLogger</text>
<text text-anchor="middle" x="796" y="-231.5" font-family="Helvetica,sans-Serif" font-size="10.00">::call_logger</text>
</a>
</g>
</g>
<!-- Node11&#45;&gt;Node12 -->
<g id="edge11_Node000011_Node000012" class="edge">
<title>Node11&#45;&gt;Node12</title>
<g id="a_edge11_Node000011_Node000012"><a xlink:title=" ">
<path fill="none" stroke="#63b8ff" d="M684.21,-249.42C696.79,-248.46 710.16,-247.44 723.11,-246.46"/>
<polygon fill="#63b8ff" stroke="#63b8ff" points="723.13,-249.97 732.84,-245.72 722.6,-242.99 723.13,-249.97"/>
</a>
</g>
</g>
<!-- Node13 -->
<g id="Node000013" class="node">
<title>Node13</title>
<g id="a_Node000013"><a xlink:href="a00430.html#a076c5f4ff8083c7cfc6523498d0ba30f" target="_top" xlink:title=" ">
<polygon fill="white" stroke="#666666" points="1148.38,-263 1046.12,-263 1046.12,-231 1148.38,-231 1148.38,-263"/>
<text text-anchor="start" x="1054.12" y="-249.5" font-family="Helvetica,sans-Serif" font-size="10.00">LibLoader::JNIEnvs</text>
<text text-anchor="middle" x="1097.25" y="-237.5" font-family="Helvetica,sans-Serif" font-size="10.00">::getEnv</text>
</a>
</g>
</g>
<!-- Node12&#45;&gt;Node13 -->
<g id="edge12_Node000012_Node000013" class="edge">
<title>Node12&#45;&gt;Node13</title>
<g id="a_edge12_Node000012_Node000013"><a xlink:title=" ">
<path fill="none" stroke="#63b8ff" d="M857.56,-242.21C909,-243.25 982.53,-244.72 1034.35,-245.76"/>
<polygon fill="#63b8ff" stroke="#63b8ff" points="1034.14,-249.26 1044.21,-245.96 1034.28,-242.26 1034.14,-249.26"/>
</a>
</g>
</g>
<!-- Node17 -->
<g id="Node000017" class="node">
<title>Node17</title>
<g id="a_Node000017"><a xlink:href="a00425.html#a6a6fcd695791253a9b3a053d313b2b93" target="_top" xlink:title=" ">
<polygon fill="white" stroke="#666666" points="1000,-232 893.25,-232 893.25,-212 1000,-212 1000,-232"/>
<text text-anchor="middle" x="946.62" y="-218.5" font-family="Helvetica,sans-Serif" font-size="10.00">LibLoader::str2jstring</text>
</a>
</g>
</g>
<!-- Node12&#45;&gt;Node17 -->
<g id="edge16_Node000012_Node000017" class="edge">
<title>Node12&#45;&gt;Node17</title>
<g id="a_edge16_Node000012_Node000017"><a xlink:title=" ">
<path fill="none" stroke="#63b8ff" d="M857.45,-233.27C865.43,-232.25 873.62,-231.2 881.65,-230.18"/>
<polygon fill="#63b8ff" stroke="#63b8ff" points="881.88,-233.68 891.36,-228.94 880.99,-226.73 881.88,-233.68"/>
</a>
</g>
</g>
<!-- Node14 -->
<g id="Node000014" class="node">
<title>Node14</title>
<g id="a_Node000014"><a xlink:href="a00840.html#aea7d58ff9f04d6d4849c25a2506603a5" target="_top" xlink:title="取env,如果不存在重新获取">
<polygon fill="white" stroke="#666666" points="1317.75,-257 1194.5,-257 1194.5,-237 1317.75,-237 1317.75,-257"/>
<text text-anchor="middle" x="1256.12" y="-243.5" font-family="Helvetica,sans-Serif" font-size="10.00">JNIEnvManager::getEnv</text>
</a>
</g>
</g>
<!-- Node13&#45;&gt;Node14 -->
<g id="edge13_Node000013_Node000014" class="edge">
<title>Node13&#45;&gt;Node14</title>
<g id="a_edge13_Node000013_Node000014"><a xlink:title=" ">
<path fill="none" stroke="#63b8ff" d="M1148.75,-247C1159.57,-247 1171.2,-247 1182.66,-247"/>
<polygon fill="#63b8ff" stroke="#63b8ff" points="1182.51,-250.5 1192.51,-247 1182.51,-243.5 1182.51,-250.5"/>
</a>
</g>
</g>
<!-- Node15 -->
<g id="Node000015" class="node">
<title>Node15</title>
<g id="a_Node000015"><a xlink:href="a00260.html#a3d31403b7971274d47d308245206bd24" target="_top" xlink:title="为当前线程创建一个env.">
<polygon fill="white" stroke="#666666" points="1405,-257 1353.75,-257 1353.75,-237 1405,-237 1405,-257"/>
<text text-anchor="middle" x="1379.38" y="-243.5" font-family="Helvetica,sans-Serif" font-size="10.00">newEnv</text>
</a>
</g>
</g>
<!-- Node14&#45;&gt;Node15 -->
<g id="edge14_Node000014_Node000015" class="edge">
<title>Node14&#45;&gt;Node15</title>
<g id="a_edge14_Node000014_Node000015"><a xlink:title=" ">
<path fill="none" stroke="#63b8ff" d="M1318.11,-247C1326.31,-247 1334.51,-247 1342.09,-247"/>
<polygon fill="#63b8ff" stroke="#63b8ff" points="1341.91,-250.5 1351.91,-247 1341.91,-243.5 1341.91,-250.5"/>
</a>
</g>
</g>
<!-- Node16 -->
<g id="Node000016" class="node">
<title>Node16</title>
<g id="a_Node000016"><a xlink:href="a00840.html#ae0e482c6a813848a8f5d34957d1b6307" target="_top" xlink:title="获取全局JavaVM对象.">
<polygon fill="white" stroke="#666666" points="1568,-257 1441,-257 1441,-237 1568,-237 1568,-257"/>
<text text-anchor="middle" x="1504.5" y="-243.5" font-family="Helvetica,sans-Serif" font-size="10.00">JNIEnvManager::getGvm</text>
</a>
</g>
</g>
<!-- Node15&#45;&gt;Node16 -->
<g id="edge15_Node000015_Node000016" class="edge">
<title>Node15&#45;&gt;Node16</title>
<g id="a_edge15_Node000015_Node000016"><a xlink:title=" ">
<path fill="none" stroke="#63b8ff" d="M1405.29,-247C1412.47,-247 1420.7,-247 1429.27,-247"/>
<polygon fill="#63b8ff" stroke="#63b8ff" points="1429.16,-250.5 1439.16,-247 1429.16,-243.5 1429.16,-250.5"/>
</a>
</g>
</g>
<!-- Node17&#45;&gt;Node13 -->
<g id="edge17_Node000017_Node000013" class="edge">
<title>Node17&#45;&gt;Node13</title>
<g id="a_edge17_Node000017_Node000013"><a xlink:title=" ">
<path fill="none" stroke="#63b8ff" d="M1000.44,-230.88C1011.58,-232.76 1023.43,-234.75 1034.85,-236.67"/>
<polygon fill="#63b8ff" stroke="#63b8ff" points="1034.16,-240.1 1044.6,-238.31 1035.32,-233.2 1034.16,-240.1"/>
</a>
</g>
</g>
<!-- Node17&#45;&gt;Node18 -->
<g id="edge18_Node000017_Node000018" class="edge">
<title>Node17&#45;&gt;Node18</title>
<g id="a_edge18_Node000017_Node000018"><a xlink:title=" ">
<path fill="none" stroke="#63b8ff" d="M988.63,-211.52C999.86,-208.64 1012.37,-205.45 1024.78,-202.27"/>
<polygon fill="#63b8ff" stroke="#63b8ff" points="1025.33,-205.75 1034.15,-199.88 1023.6,-198.96 1025.33,-205.75"/>
</a>
</g>
</g>
<!-- Node18&#45;&gt;Node12 -->
<g id="edge19_Node000018_Node000012" class="edge">
<title>Node18&#45;&gt;Node12</title>
<g id="a_edge19_Node000018_Node000012"><a xlink:title=" ">
<path fill="none" stroke="#63b8ff" d="M1035.56,-185.21C994.84,-187.11 940.24,-191.77 893.25,-203 876.07,-207.11 857.89,-213.66 842.01,-220.18"/>
<polygon fill="#63b8ff" stroke="#63b8ff" points="840.67,-216.95 832.82,-224.07 843.4,-223.4 840.67,-216.95"/>
</a>
</g>
</g>
<!-- Node20 -->
<g id="Node000020" class="node">
<title>Node20</title>
<g id="a_Node000020"><a xlink:href="a00433.html#a3faddb4b1d901c39b71cd3559fbd5e3b" target="_top" xlink:title=" ">
<polygon fill="white" stroke="#666666" points="857.25,-195 734.75,-195 734.75,-163 857.25,-163 857.25,-195"/>
<text text-anchor="start" x="742.75" y="-181.5" font-family="Helvetica,sans-Serif" font-size="10.00">ThreadIdentify::internal</text>
<text text-anchor="middle" x="796" y="-169.5" font-family="Helvetica,sans-Serif" font-size="10.00">SetThreadWorkingName</text>
</a>
</g>
</g>
<!-- Node19&#45;&gt;Node20 -->
<g id="edge21_Node000019_Node000020" class="edge">
<title>Node19&#45;&gt;Node20</title>
<g id="a_edge21_Node000019_Node000020"><a xlink:title=" ">
<path fill="none" stroke="#63b8ff" d="M687.11,-194.76C698.8,-193.05 711.08,-191.26 723.01,-189.52"/>
<polygon fill="#63b8ff" stroke="#63b8ff" points="723.41,-193 732.8,-188.09 722.4,-186.07 723.41,-193"/>
</a>
</g>
</g>
<!-- Node21&#45;&gt;Node20 -->
<g id="edge23_Node000021_Node000020" class="edge">
<title>Node21&#45;&gt;Node20</title>
<g id="a_edge23_Node000021_Node000020"><a xlink:title=" ">
<path fill="none" stroke="#63b8ff" d="M692.49,-164.02C702.56,-165.5 712.95,-167.01 723.08,-168.49"/>
<polygon fill="#63b8ff" stroke="#63b8ff" points="722.48,-171.94 732.88,-169.92 723.49,-165.02 722.48,-171.94"/>
</a>
</g>
</g>
</g>
</svg>
