<?xml version="1.0" encoding="UTF-8" standalone="no"?>
<!DOCTYPE svg PUBLIC "-//W3C//DTD SVG 1.1//EN"
 "http://www.w3.org/Graphics/SVG/1.1/DTD/svg11.dtd">
<!-- Generated by graphviz version 9.0.0 (0)
 -->
<!-- Title: LibLoader::PluginManager::addNewPlugin Pages: 1 -->
<svg width="1623pt" height="478pt"
 viewBox="0.00 0.00 1622.50 478.00" xmlns="http://www.w3.org/2000/svg" xmlns:xlink="http://www.w3.org/1999/xlink">
<g id="graph0" class="graph" transform="scale(1 1) rotate(0) translate(4 474)">
<title>LibLoader::PluginManager::addNewPlugin</title>
<!-- Node1 -->
<g id="Node000001" class="node">
<title>Node1</title>
<g id="a_Node000001"><a xlink:title=" ">
<polygon fill="#999999" stroke="#666666" points="128.5,-148 0,-148 0,-116 128.5,-116 128.5,-148"/>
<text text-anchor="start" x="8" y="-134.5" font-family="Helvetica,sans-Serif" font-size="10.00">LibLoader::PluginManager</text>
<text text-anchor="middle" x="64.25" y="-122.5" font-family="Helvetica,sans-Serif" font-size="10.00">::addNewPlugin</text>
</a>
</g>
</g>
<!-- Node2 -->
<g id="Node000002" class="node">
<title>Node2</title>
<g id="a_Node000002"><a xlink:href="a00872.html#ae735f16b20f681d29d4e5d28ad248dbe" target="_top" xlink:title=" ">
<polygon fill="white" stroke="#666666" points="730.62,-470 608.12,-470 608.12,-438 730.62,-438 730.62,-470"/>
<text text-anchor="start" x="616.12" y="-456.5" font-family="Helvetica,sans-Serif" font-size="10.00">LibLoader::LoaderLogger</text>
<text text-anchor="middle" x="669.38" y="-444.5" font-family="Helvetica,sans-Serif" font-size="10.00">::error</text>
</a>
</g>
</g>
<!-- Node1&#45;&gt;Node2 -->
<g id="edge1_Node000001_Node000002" class="edge">
<title>Node1&#45;&gt;Node2</title>
<g id="a_edge1_Node000001_Node000002"><a xlink:title=" ">
<path fill="none" stroke="#63b8ff" d="M90.46,-148.48C164.91,-196.63 391.27,-339.36 593.5,-429 597.05,-430.57 600.74,-432.11 604.48,-433.59"/>
<polygon fill="#63b8ff" stroke="#63b8ff" points="603.12,-436.82 613.71,-437.08 605.6,-430.27 603.12,-436.82"/>
</a>
</g>
</g>
<!-- Node10 -->
<g id="Node000010" class="node">
<title>Node10</title>
<g id="a_Node000010"><a xlink:href="a00916.html#aa3969cacef7e9a28baa578a90d01aa23" target="_top" xlink:title="安全、带锁地获取id">
<polygon fill="white" stroke="#666666" points="550,-170 453,-170 453,-138 550,-138 550,-170"/>
<text text-anchor="start" x="461" y="-156.5" font-family="Helvetica,sans-Serif" font-size="10.00">LibLoader::Plugin::</text>
<text text-anchor="middle" x="501.5" y="-144.5" font-family="Helvetica,sans-Serif" font-size="10.00">getIdSafe</text>
</a>
</g>
</g>
<!-- Node1&#45;&gt;Node10 -->
<g id="edge11_Node000001_Node000010" class="edge">
<title>Node1&#45;&gt;Node10</title>
<g id="a_edge11_Node000001_Node000010"><a xlink:title=" ">
<path fill="none" stroke="#63b8ff" d="M128.54,-135.2C212.45,-139.44 359.42,-146.87 441.24,-151"/>
<polygon fill="#63b8ff" stroke="#63b8ff" points="440.91,-154.49 451.07,-151.5 441.26,-147.5 440.91,-154.49"/>
</a>
</g>
</g>
<!-- Node13 -->
<g id="Node000013" class="node">
<title>Node13</title>
<g id="a_Node000013"><a xlink:href="a00924.html#a5907aa03cd2b359eb901423314467338" target="_top" xlink:title=" ">
<polygon fill="white" stroke="#666666" points="276.5,-76 164.5,-76 164.5,-44 276.5,-44 276.5,-76"/>
<text text-anchor="start" x="172.5" y="-62.5" font-family="Helvetica,sans-Serif" font-size="10.00">LibLoader::PluginData</text>
<text text-anchor="middle" x="220.5" y="-50.5" font-family="Helvetica,sans-Serif" font-size="10.00">::isLoaded</text>
</a>
</g>
</g>
<!-- Node1&#45;&gt;Node13 -->
<g id="edge14_Node000001_Node000013" class="edge">
<title>Node1&#45;&gt;Node13</title>
<g id="a_edge14_Node000001_Node000013"><a xlink:title=" ">
<path fill="none" stroke="#63b8ff" d="M99.64,-115.55C118.71,-106.47 142.88,-95.03 164.5,-85 167.22,-83.74 170.01,-82.45 172.83,-81.15"/>
<polygon fill="#63b8ff" stroke="#63b8ff" points="174.06,-84.44 181.7,-77.09 171.15,-78.07 174.06,-84.44"/>
</a>
</g>
</g>
<!-- Node14 -->
<g id="Node000014" class="node">
<title>Node14</title>
<g id="a_Node000014"><a xlink:href="a00916.html#abc57e6dfaed7b6445c8ba8d94b09ec13" target="_top" xlink:title=" ">
<polygon fill="white" stroke="#666666" points="269,-126 172,-126 172,-94 269,-94 269,-126"/>
<text text-anchor="start" x="180" y="-112.5" font-family="Helvetica,sans-Serif" font-size="10.00">LibLoader::Plugin::</text>
<text text-anchor="middle" x="220.5" y="-100.5" font-family="Helvetica,sans-Serif" font-size="10.00">unloadPlugin</text>
</a>
</g>
</g>
<!-- Node1&#45;&gt;Node14 -->
<g id="edge15_Node000001_Node000014" class="edge">
<title>Node1&#45;&gt;Node14</title>
<g id="a_edge15_Node000001_Node000014"><a xlink:title=" ">
<path fill="none" stroke="#63b8ff" d="M128.88,-122.92C139.25,-121.45 149.96,-119.92 160.22,-118.46"/>
<polygon fill="#63b8ff" stroke="#63b8ff" points="160.67,-121.93 170.07,-117.05 159.68,-115 160.67,-121.93"/>
</a>
</g>
</g>
<!-- Node3 -->
<g id="Node000003" class="node">
<title>Node3</title>
<g id="a_Node000003"><a xlink:href="a00872.html#af4d7d5164450e25f7401d1cc15f15b8d" target="_top" xlink:title="实际暴露的接口">
<polygon fill="white" stroke="#666666" points="903.75,-407 781.25,-407 781.25,-375 903.75,-375 903.75,-407"/>
<text text-anchor="start" x="789.25" y="-393.5" font-family="Helvetica,sans-Serif" font-size="10.00">LibLoader::LoaderLogger</text>
<text text-anchor="middle" x="842.5" y="-381.5" font-family="Helvetica,sans-Serif" font-size="10.00">::call_logger</text>
</a>
</g>
</g>
<!-- Node2&#45;&gt;Node3 -->
<g id="edge2_Node000002_Node000003" class="edge">
<title>Node2&#45;&gt;Node3</title>
<g id="a_edge2_Node000002_Node000003"><a xlink:title=" ">
<path fill="none" stroke="#63b8ff" d="M720.85,-437.56C729.03,-434.78 737.39,-431.86 745.25,-429 760.19,-423.56 776.31,-417.34 791,-411.53"/>
<polygon fill="#63b8ff" stroke="#63b8ff" points="792.01,-414.89 800,-407.94 789.42,-408.39 792.01,-414.89"/>
</a>
</g>
</g>
<!-- Node4 -->
<g id="Node000004" class="node">
<title>Node4</title>
<g id="a_Node000004"><a xlink:href="a00430.html#a076c5f4ff8083c7cfc6523498d0ba30f" target="_top" xlink:title=" ">
<polygon fill="white" stroke="#666666" points="1194.88,-413 1092.62,-413 1092.62,-381 1194.88,-381 1194.88,-413"/>
<text text-anchor="start" x="1100.62" y="-399.5" font-family="Helvetica,sans-Serif" font-size="10.00">LibLoader::JNIEnvs</text>
<text text-anchor="middle" x="1143.75" y="-387.5" font-family="Helvetica,sans-Serif" font-size="10.00">::getEnv</text>
</a>
</g>
</g>
<!-- Node3&#45;&gt;Node4 -->
<g id="edge3_Node000003_Node000004" class="edge">
<title>Node3&#45;&gt;Node4</title>
<g id="a_edge3_Node000003_Node000004"><a xlink:title=" ">
<path fill="none" stroke="#63b8ff" d="M904.06,-392.21C955.5,-393.25 1029.03,-394.72 1080.85,-395.76"/>
<polygon fill="#63b8ff" stroke="#63b8ff" points="1080.64,-399.26 1090.71,-395.96 1080.78,-392.26 1080.64,-399.26"/>
</a>
</g>
</g>
<!-- Node8 -->
<g id="Node000008" class="node">
<title>Node8</title>
<g id="a_Node000008"><a xlink:href="a00425.html#a6a6fcd695791253a9b3a053d313b2b93" target="_top" xlink:title=" ">
<polygon fill="white" stroke="#666666" points="1046.5,-382 939.75,-382 939.75,-362 1046.5,-362 1046.5,-382"/>
<text text-anchor="middle" x="993.12" y="-368.5" font-family="Helvetica,sans-Serif" font-size="10.00">LibLoader::str2jstring</text>
</a>
</g>
</g>
<!-- Node3&#45;&gt;Node8 -->
<g id="edge7_Node000003_Node000008" class="edge">
<title>Node3&#45;&gt;Node8</title>
<g id="a_edge7_Node000003_Node000008"><a xlink:title=" ">
<path fill="none" stroke="#63b8ff" d="M903.95,-383.27C911.93,-382.25 920.12,-381.2 928.15,-380.18"/>
<polygon fill="#63b8ff" stroke="#63b8ff" points="928.38,-383.68 937.86,-378.94 927.49,-376.73 928.38,-383.68"/>
</a>
</g>
</g>
<!-- Node5 -->
<g id="Node000005" class="node">
<title>Node5</title>
<g id="a_Node000005"><a xlink:href="a00840.html#aea7d58ff9f04d6d4849c25a2506603a5" target="_top" xlink:title="取env,如果不存在重新获取">
<polygon fill="white" stroke="#666666" points="1364.25,-407 1241,-407 1241,-387 1364.25,-387 1364.25,-407"/>
<text text-anchor="middle" x="1302.62" y="-393.5" font-family="Helvetica,sans-Serif" font-size="10.00">JNIEnvManager::getEnv</text>
</a>
</g>
</g>
<!-- Node4&#45;&gt;Node5 -->
<g id="edge4_Node000004_Node000005" class="edge">
<title>Node4&#45;&gt;Node5</title>
<g id="a_edge4_Node000004_Node000005"><a xlink:title=" ">
<path fill="none" stroke="#63b8ff" d="M1195.25,-397C1206.07,-397 1217.7,-397 1229.16,-397"/>
<polygon fill="#63b8ff" stroke="#63b8ff" points="1229.01,-400.5 1239.01,-397 1229.01,-393.5 1229.01,-400.5"/>
</a>
</g>
</g>
<!-- Node6 -->
<g id="Node000006" class="node">
<title>Node6</title>
<g id="a_Node000006"><a xlink:href="a00260.html#a3d31403b7971274d47d308245206bd24" target="_top" xlink:title="为当前线程创建一个env.">
<polygon fill="white" stroke="#666666" points="1451.5,-407 1400.25,-407 1400.25,-387 1451.5,-387 1451.5,-407"/>
<text text-anchor="middle" x="1425.88" y="-393.5" font-family="Helvetica,sans-Serif" font-size="10.00">newEnv</text>
</a>
</g>
</g>
<!-- Node5&#45;&gt;Node6 -->
<g id="edge5_Node000005_Node000006" class="edge">
<title>Node5&#45;&gt;Node6</title>
<g id="a_edge5_Node000005_Node000006"><a xlink:title=" ">
<path fill="none" stroke="#63b8ff" d="M1364.61,-397C1372.81,-397 1381.01,-397 1388.59,-397"/>
<polygon fill="#63b8ff" stroke="#63b8ff" points="1388.41,-400.5 1398.41,-397 1388.41,-393.5 1388.41,-400.5"/>
</a>
</g>
</g>
<!-- Node7 -->
<g id="Node000007" class="node">
<title>Node7</title>
<g id="a_Node000007"><a xlink:href="a00840.html#ae0e482c6a813848a8f5d34957d1b6307" target="_top" xlink:title="获取全局JavaVM对象.">
<polygon fill="white" stroke="#666666" points="1614.5,-407 1487.5,-407 1487.5,-387 1614.5,-387 1614.5,-407"/>
<text text-anchor="middle" x="1551" y="-393.5" font-family="Helvetica,sans-Serif" font-size="10.00">JNIEnvManager::getGvm</text>
</a>
</g>
</g>
<!-- Node6&#45;&gt;Node7 -->
<g id="edge6_Node000006_Node000007" class="edge">
<title>Node6&#45;&gt;Node7</title>
<g id="a_edge6_Node000006_Node000007"><a xlink:title=" ">
<path fill="none" stroke="#63b8ff" d="M1451.79,-397C1458.97,-397 1467.2,-397 1475.77,-397"/>
<polygon fill="#63b8ff" stroke="#63b8ff" points="1475.66,-400.5 1485.66,-397 1475.66,-393.5 1475.66,-400.5"/>
</a>
</g>
</g>
<!-- Node8&#45;&gt;Node4 -->
<g id="edge8_Node000008_Node000004" class="edge">
<title>Node8&#45;&gt;Node4</title>
<g id="a_edge8_Node000008_Node000004"><a xlink:title=" ">
<path fill="none" stroke="#63b8ff" d="M1046.94,-380.88C1058.08,-382.76 1069.93,-384.75 1081.35,-386.67"/>
<polygon fill="#63b8ff" stroke="#63b8ff" points="1080.66,-390.1 1091.1,-388.31 1081.82,-383.2 1080.66,-390.1"/>
</a>
</g>
</g>
<!-- Node9 -->
<g id="Node000009" class="node">
<title>Node9</title>
<g id="a_Node000009"><a xlink:href="a00872.html#af50d0545fe7d683e54fcd03453a423e3" target="_top" xlink:title=" ">
<polygon fill="white" stroke="#666666" points="1205,-350 1082.5,-350 1082.5,-318 1205,-318 1205,-350"/>
<text text-anchor="start" x="1090.5" y="-336.5" font-family="Helvetica,sans-Serif" font-size="10.00">LibLoader::LoaderLogger</text>
<text text-anchor="middle" x="1143.75" y="-324.5" font-family="Helvetica,sans-Serif" font-size="10.00">::warning</text>
</a>
</g>
</g>
<!-- Node8&#45;&gt;Node9 -->
<g id="edge9_Node000008_Node000009" class="edge">
<title>Node8&#45;&gt;Node9</title>
<g id="a_edge9_Node000008_Node000009"><a xlink:title=" ">
<path fill="none" stroke="#63b8ff" d="M1035.13,-361.52C1046.36,-358.64 1058.87,-355.45 1071.28,-352.27"/>
<polygon fill="#63b8ff" stroke="#63b8ff" points="1071.83,-355.75 1080.65,-349.88 1070.1,-348.96 1071.83,-355.75"/>
</a>
</g>
</g>
<!-- Node9&#45;&gt;Node3 -->
<g id="edge10_Node000009_Node000003" class="edge">
<title>Node9&#45;&gt;Node3</title>
<g id="a_edge10_Node000009_Node000003"><a xlink:title=" ">
<path fill="none" stroke="#63b8ff" d="M1082.06,-335.21C1041.34,-337.11 986.74,-341.77 939.75,-353 922.57,-357.11 904.39,-363.66 888.51,-370.18"/>
<polygon fill="#63b8ff" stroke="#63b8ff" points="887.17,-366.95 879.32,-374.07 889.9,-373.4 887.17,-366.95"/>
</a>
</g>
</g>
<!-- Node11 -->
<g id="Node000011" class="node">
<title>Node11</title>
<g id="a_Node000011"><a xlink:href="a00924.html#a0c7449a3e94c1e4659337e62fc513fd8" target="_top" xlink:title=" ">
<polygon fill="white" stroke="#666666" points="725.38,-120 613.38,-120 613.38,-88 725.38,-88 725.38,-120"/>
<text text-anchor="start" x="621.38" y="-106.5" font-family="Helvetica,sans-Serif" font-size="10.00">LibLoader::PluginData</text>
<text text-anchor="middle" x="669.38" y="-94.5" font-family="Helvetica,sans-Serif" font-size="10.00">::_getId</text>
</a>
</g>
</g>
<!-- Node10&#45;&gt;Node11 -->
<g id="edge12_Node000010_Node000011" class="edge">
<title>Node10&#45;&gt;Node11</title>
<g id="a_edge12_Node000010_Node000011"><a xlink:title=" ">
<path fill="none" stroke="#63b8ff" d="M550.48,-139.54C566.88,-134.59 585.51,-128.98 603.05,-123.69"/>
<polygon fill="#63b8ff" stroke="#63b8ff" points="603.78,-127.13 612.34,-120.89 601.76,-120.42 603.78,-127.13"/>
</a>
</g>
</g>
<!-- Node12 -->
<g id="Node000012" class="node">
<title>Node12</title>
<g id="a_Node000012"><a xlink:href="a00916.html#ae42c2fb572d9814de8f0a10ca2c0d2f3" target="_top" xlink:title=" ">
<polygon fill="white" stroke="#666666" points="717.88,-170 620.88,-170 620.88,-138 717.88,-138 717.88,-170"/>
<text text-anchor="start" x="628.88" y="-156.5" font-family="Helvetica,sans-Serif" font-size="10.00">LibLoader::Plugin::</text>
<text text-anchor="middle" x="669.38" y="-144.5" font-family="Helvetica,sans-Serif" font-size="10.00">checkValid</text>
</a>
</g>
</g>
<!-- Node10&#45;&gt;Node12 -->
<g id="edge13_Node000010_Node000012" class="edge">
<title>Node10&#45;&gt;Node12</title>
<g id="a_edge13_Node000010_Node000012"><a xlink:title=" ">
<path fill="none" stroke="#63b8ff" d="M550.48,-154C568.79,-154 589.88,-154 609.12,-154"/>
<polygon fill="#63b8ff" stroke="#63b8ff" points="608.99,-157.5 618.99,-154 608.99,-150.5 608.99,-157.5"/>
</a>
</g>
</g>
<!-- Node15 -->
<g id="Node000015" class="node">
<title>Node15</title>
<g id="a_Node000015"><a xlink:href="a00916.html#ac03a32a4b96ba4618fee0628d3998aef" target="_top" xlink:title=" ">
<polygon fill="white" stroke="#666666" points="409.5,-120 312.5,-120 312.5,-88 409.5,-88 409.5,-120"/>
<text text-anchor="start" x="320.5" y="-106.5" font-family="Helvetica,sans-Serif" font-size="10.00">LibLoader::Plugin::</text>
<text text-anchor="middle" x="361" y="-94.5" font-family="Helvetica,sans-Serif" font-size="10.00">unloadInternal</text>
</a>
</g>
</g>
<!-- Node14&#45;&gt;Node15 -->
<g id="edge16_Node000014_Node000015" class="edge">
<title>Node14&#45;&gt;Node15</title>
<g id="a_edge16_Node000014_Node000015"><a xlink:title=" ">
<path fill="none" stroke="#63b8ff" d="M269.16,-107.94C279.39,-107.49 290.32,-107.02 300.92,-106.56"/>
<polygon fill="#63b8ff" stroke="#63b8ff" points="300.9,-110.06 310.74,-106.13 300.59,-103.07 300.9,-110.06"/>
</a>
</g>
</g>
<!-- Node15&#45;&gt;Node9 -->
<g id="edge31_Node000015_Node000009" class="edge">
<title>Node15&#45;&gt;Node9</title>
<g id="a_edge31_Node000015_Node000009"><a xlink:title=" ">
<path fill="none" stroke="#63b8ff" d="M409.71,-87.88C421.31,-84.47 433.76,-81.23 445.5,-79 543.16,-60.42 568.96,-60 668.38,-60 668.38,-60 668.38,-60 843.5,-60 989.26,-60 1094.9,-239.03 1130.05,-307.66"/>
<polygon fill="#63b8ff" stroke="#63b8ff" points="1126.78,-308.96 1134.4,-316.33 1133.04,-305.82 1126.78,-308.96"/>
</a>
</g>
</g>
<!-- Node16 -->
<g id="Node000016" class="node">
<title>Node16</title>
<g id="a_Node000016"><a xlink:href="a00924.html#a06be765d6cf55aa951f7eecb7ba578e8" target="_top" xlink:title=" ">
<polygon fill="white" stroke="#666666" points="557.5,-32 445.5,-32 445.5,0 557.5,0 557.5,-32"/>
<text text-anchor="start" x="453.5" y="-18.5" font-family="Helvetica,sans-Serif" font-size="10.00">LibLoader::PluginData</text>
<text text-anchor="middle" x="501.5" y="-6.5" font-family="Helvetica,sans-Serif" font-size="10.00">::_unload</text>
</a>
</g>
</g>
<!-- Node15&#45;&gt;Node16 -->
<g id="edge17_Node000015_Node000016" class="edge">
<title>Node15&#45;&gt;Node16</title>
<g id="a_edge17_Node000015_Node000016"><a xlink:title=" ">
<path fill="none" stroke="#63b8ff" d="M384.24,-87.57C400.82,-75.57 424.17,-59.17 445.5,-46 449.83,-43.32 454.42,-40.62 459.03,-38"/>
<polygon fill="#63b8ff" stroke="#63b8ff" points="460.7,-41.07 467.72,-33.14 457.28,-34.96 460.7,-41.07"/>
</a>
</g>
</g>
<!-- Node18 -->
<g id="Node000018" class="node">
<title>Node18</title>
<g id="a_Node000018"><a xlink:href="a00916.html#a006c0eaa142f9aa1760ec307cd3c0cee" target="_top" xlink:title=" ">
<polygon fill="white" stroke="#666666" points="550,-270 453,-270 453,-238 550,-238 550,-270"/>
<text text-anchor="start" x="461" y="-256.5" font-family="Helvetica,sans-Serif" font-size="10.00">LibLoader::Plugin::</text>
<text text-anchor="middle" x="501.5" y="-244.5" font-family="Helvetica,sans-Serif" font-size="10.00">disableInternal</text>
</a>
</g>
</g>
<!-- Node15&#45;&gt;Node18 -->
<g id="edge19_Node000015_Node000018" class="edge">
<title>Node15&#45;&gt;Node18</title>
<g id="a_edge19_Node000015_Node000018"><a xlink:title=" ">
<path fill="none" stroke="#63b8ff" d="M377.09,-120.34C401.44,-146.71 449.55,-198.82 477.97,-229.6"/>
<polygon fill="#63b8ff" stroke="#63b8ff" points="475.05,-231.6 484.41,-236.57 480.19,-226.85 475.05,-231.6"/>
</a>
</g>
</g>
<!-- Node25 -->
<g id="Node000025" class="node">
<title>Node25</title>
<g id="a_Node000025"><a xlink:href="a00426.html#a830b51c74068e1461e1baf677dd10ac2" target="_top" xlink:title=" ">
<polygon fill="white" stroke="#666666" points="555.25,-120 447.75,-120 447.75,-88 555.25,-88 555.25,-120"/>
<text text-anchor="start" x="455.75" y="-106.5" font-family="Helvetica,sans-Serif" font-size="10.00">LibLoader::LoaderApi</text>
<text text-anchor="middle" x="501.5" y="-94.5" font-family="Helvetica,sans-Serif" font-size="10.00">::libClose</text>
</a>
</g>
</g>
<!-- Node15&#45;&gt;Node25 -->
<g id="edge30_Node000015_Node000025" class="edge">
<title>Node15&#45;&gt;Node25</title>
<g id="a_edge30_Node000015_Node000025"><a xlink:title=" ">
<path fill="none" stroke="#63b8ff" d="M409.66,-104C418.25,-104 427.32,-104 436.28,-104"/>
<polygon fill="#63b8ff" stroke="#63b8ff" points="436.01,-107.5 446.01,-104 436.01,-100.5 436.01,-107.5"/>
</a>
</g>
</g>
<!-- Node17 -->
<g id="Node000017" class="node">
<title>Node17</title>
<g id="a_Node000017"><a xlink:href="a00920.html#a81c7f6972e7ed7429f2ce9ba82c9ba31" target="_top" xlink:title=" ">
<polygon fill="white" stroke="#666666" points="735.88,-32 602.88,-32 602.88,0 735.88,0 735.88,-32"/>
<text text-anchor="start" x="610.88" y="-18.5" font-family="Helvetica,sans-Serif" font-size="10.00">LibLoader::PluginFuncAddr</text>
<text text-anchor="middle" x="669.38" y="-6.5" font-family="Helvetica,sans-Serif" font-size="10.00">Data::_resetAddrData</text>
</a>
</g>
</g>
<!-- Node16&#45;&gt;Node17 -->
<g id="edge18_Node000016_Node000017" class="edge">
<title>Node16&#45;&gt;Node17</title>
<g id="a_edge18_Node000016_Node000017"><a xlink:title=" ">
<path fill="none" stroke="#63b8ff" d="M557.73,-16C568.48,-16 579.92,-16 591.22,-16"/>
<polygon fill="#63b8ff" stroke="#63b8ff" points="590.93,-19.5 600.93,-16 590.93,-12.5 590.93,-19.5"/>
</a>
</g>
</g>
<!-- Node18&#45;&gt;Node2 -->
<g id="edge24_Node000018_Node000002" class="edge">
<title>Node18&#45;&gt;Node2</title>
<g id="a_edge24_Node000018_Node000002"><a xlink:title=" ">
<path fill="none" stroke="#63b8ff" d="M510.86,-270.46C532.71,-313.48 590.13,-426.12 593.5,-429 594.97,-430.25 596.5,-431.45 598.09,-432.58"/>
<polygon fill="#63b8ff" stroke="#63b8ff" points="596.04,-435.43 606.4,-437.65 599.69,-429.45 596.04,-435.43"/>
</a>
</g>
</g>
<!-- Node18&#45;&gt;Node11 -->
<g id="edge21_Node000018_Node000011" class="edge">
<title>Node18&#45;&gt;Node11</title>
<g id="a_edge21_Node000018_Node000011"><a xlink:title=" ">
<path fill="none" stroke="#63b8ff" d="M514.56,-237.64C525.73,-222.47 542.79,-199.25 557.5,-179 573.6,-156.85 571.45,-145.23 593.5,-129 596.48,-126.81 599.66,-124.8 602.98,-122.96"/>
<polygon fill="#63b8ff" stroke="#63b8ff" points="604.42,-126.15 611.86,-118.6 601.34,-119.86 604.42,-126.15"/>
</a>
</g>
</g>
<!-- Node18&#45;&gt;Node12 -->
<g id="edge22_Node000018_Node000012" class="edge">
<title>Node18&#45;&gt;Node12</title>
<g id="a_edge22_Node000018_Node000012"><a xlink:title=" ">
<path fill="none" stroke="#63b8ff" d="M518.56,-237.59C535.75,-220.83 564.49,-195.07 593.5,-179 598.75,-176.1 604.38,-173.45 610.13,-171.07"/>
<polygon fill="#63b8ff" stroke="#63b8ff" points="611.04,-174.47 619.11,-167.6 608.52,-167.94 611.04,-174.47"/>
</a>
</g>
</g>
<!-- Node19 -->
<g id="Node000019" class="node">
<title>Node19</title>
<g id="a_Node000019"><a xlink:href="a00924.html#af4e8baa9d706f75b1bf21d95069d3f42" target="_top" xlink:title=" ">
<polygon fill="white" stroke="#666666" points="725.38,-420 613.38,-420 613.38,-388 725.38,-388 725.38,-420"/>
<text text-anchor="start" x="621.38" y="-406.5" font-family="Helvetica,sans-Serif" font-size="10.00">LibLoader::PluginData</text>
<text text-anchor="middle" x="669.38" y="-394.5" font-family="Helvetica,sans-Serif" font-size="10.00">::_disable</text>
</a>
</g>
</g>
<!-- Node18&#45;&gt;Node19 -->
<g id="edge20_Node000018_Node000019" class="edge">
<title>Node18&#45;&gt;Node19</title>
<g id="a_edge20_Node000018_Node000019"><a xlink:title=" ">
<path fill="none" stroke="#63b8ff" d="M510.15,-270.31C523.43,-296.89 553.21,-349.51 593.5,-379 596.49,-381.19 599.67,-383.19 602.99,-385.02"/>
<polygon fill="#63b8ff" stroke="#63b8ff" points="601.36,-388.12 611.88,-389.37 604.44,-381.83 601.36,-388.12"/>
</a>
</g>
</g>
<!-- Node20 -->
<g id="Node000020" class="node">
<title>Node20</title>
<g id="a_Node000020"><a xlink:href="a00772.html#a62b91390b919ca8df0b6036c7e07f326" target="_top" xlink:title=" ">
<polygon fill="white" stroke="#666666" points="745.25,-370 593.5,-370 593.5,-338 745.25,-338 745.25,-370"/>
<text text-anchor="start" x="601.5" y="-356.5" font-family="Helvetica,sans-Serif" font-size="10.00">MiraiCP::PluginInterface</text>
<text text-anchor="middle" x="669.38" y="-344.5" font-family="Helvetica,sans-Serif" font-size="10.00">::PluginMessageHandles::clear</text>
</a>
</g>
</g>
<!-- Node18&#45;&gt;Node20 -->
<g id="edge23_Node000018_Node000020" class="edge">
<title>Node18&#45;&gt;Node20</title>
<g id="a_edge23_Node000018_Node000020"><a xlink:title=" ">
<path fill="none" stroke="#63b8ff" d="M518.56,-270.41C535.75,-287.17 564.49,-312.93 593.5,-329 596.02,-330.39 598.63,-331.73 601.29,-333"/>
<polygon fill="#63b8ff" stroke="#63b8ff" points="599.86,-336.19 610.42,-337.01 602.67,-329.78 599.86,-336.19"/>
</a>
</g>
</g>
<!-- Node21 -->
<g id="Node000021" class="node">
<title>Node21</title>
<g id="a_Node000021"><a xlink:href="a00433.html#aae621af986af1d6d3203f63858d3ac26" target="_top" xlink:title=" ">
<polygon fill="white" stroke="#666666" points="733.25,-320 605.5,-320 605.5,-288 733.25,-288 733.25,-320"/>
<text text-anchor="start" x="613.5" y="-306.5" font-family="Helvetica,sans-Serif" font-size="10.00">ThreadIdentify::setThread</text>
<text text-anchor="middle" x="669.38" y="-294.5" font-family="Helvetica,sans-Serif" font-size="10.00">WorkingName</text>
</a>
</g>
</g>
<!-- Node18&#45;&gt;Node21 -->
<g id="edge25_Node000018_Node000021" class="edge">
<title>Node18&#45;&gt;Node21</title>
<g id="a_edge25_Node000018_Node000021"><a xlink:title=" ">
<path fill="none" stroke="#63b8ff" d="M550.48,-268.46C566.88,-273.41 585.51,-279.02 603.05,-284.31"/>
<polygon fill="#63b8ff" stroke="#63b8ff" points="601.76,-287.58 612.34,-287.11 603.78,-280.87 601.76,-287.58"/>
</a>
</g>
</g>
<!-- Node23 -->
<g id="Node000023" class="node">
<title>Node23</title>
<g id="a_Node000023"><a xlink:href="a00433.html#a2db790edad6d2f47d59c98f494d89b17" target="_top" xlink:title=" ">
<polygon fill="white" stroke="#666666" points="738.5,-270 600.25,-270 600.25,-238 738.5,-238 738.5,-270"/>
<text text-anchor="start" x="608.25" y="-256.5" font-family="Helvetica,sans-Serif" font-size="10.00">ThreadIdentify::unsetThread</text>
<text text-anchor="middle" x="669.38" y="-244.5" font-family="Helvetica,sans-Serif" font-size="10.00">WorkingName</text>
</a>
</g>
</g>
<!-- Node18&#45;&gt;Node23 -->
<g id="edge27_Node000018_Node000023" class="edge">
<title>Node18&#45;&gt;Node23</title>
<g id="a_edge27_Node000018_Node000023"><a xlink:title=" ">
<path fill="none" stroke="#63b8ff" d="M550.48,-254C562.39,-254 575.49,-254 588.48,-254"/>
<polygon fill="#63b8ff" stroke="#63b8ff" points="588.33,-257.5 598.33,-254 588.33,-250.5 588.33,-257.5"/>
</a>
</g>
</g>
<!-- Node24 -->
<g id="Node000024" class="node">
<title>Node24</title>
<g id="a_Node000024"><a xlink:href="a00916.html#a6ef15df69e979357df7bd10031bf2328" target="_top" xlink:title=" ">
<polygon fill="white" stroke="#666666" points="717.88,-220 620.88,-220 620.88,-188 717.88,-188 717.88,-220"/>
<text text-anchor="start" x="628.88" y="-206.5" font-family="Helvetica,sans-Serif" font-size="10.00">LibLoader::Plugin::</text>
<text text-anchor="middle" x="669.38" y="-194.5" font-family="Helvetica,sans-Serif" font-size="10.00">updateTimeStamp</text>
</a>
</g>
</g>
<!-- Node18&#45;&gt;Node24 -->
<g id="edge29_Node000018_Node000024" class="edge">
<title>Node18&#45;&gt;Node24</title>
<g id="a_edge29_Node000018_Node000024"><a xlink:title=" ">
<path fill="none" stroke="#63b8ff" d="M550.48,-239.54C568.96,-233.97 590.28,-227.54 609.66,-221.7"/>
<polygon fill="#63b8ff" stroke="#63b8ff" points="610.49,-225.1 619.06,-218.87 608.47,-218.4 610.49,-225.1"/>
</a>
</g>
</g>
<!-- Node22 -->
<g id="Node000022" class="node">
<title>Node22</title>
<g id="a_Node000022"><a xlink:href="a00433.html#a3faddb4b1d901c39b71cd3559fbd5e3b" target="_top" xlink:title=" ">
<polygon fill="white" stroke="#666666" points="903.75,-295 781.25,-295 781.25,-263 903.75,-263 903.75,-295"/>
<text text-anchor="start" x="789.25" y="-281.5" font-family="Helvetica,sans-Serif" font-size="10.00">ThreadIdentify::internal</text>
<text text-anchor="middle" x="842.5" y="-269.5" font-family="Helvetica,sans-Serif" font-size="10.00">SetThreadWorkingName</text>
</a>
</g>
</g>
<!-- Node21&#45;&gt;Node22 -->
<g id="edge26_Node000021_Node000022" class="edge">
<title>Node21&#45;&gt;Node22</title>
<g id="a_edge26_Node000021_Node000022"><a xlink:title=" ">
<path fill="none" stroke="#63b8ff" d="M733.61,-294.76C745.3,-293.05 757.58,-291.26 769.51,-289.52"/>
<polygon fill="#63b8ff" stroke="#63b8ff" points="769.91,-293 779.3,-288.09 768.9,-286.07 769.91,-293"/>
</a>
</g>
</g>
<!-- Node23&#45;&gt;Node22 -->
<g id="edge28_Node000023_Node000022" class="edge">
<title>Node23&#45;&gt;Node22</title>
<g id="a_edge28_Node000023_Node000022"><a xlink:title=" ">
<path fill="none" stroke="#63b8ff" d="M738.99,-264.02C749.06,-265.5 759.45,-267.01 769.58,-268.49"/>
<polygon fill="#63b8ff" stroke="#63b8ff" points="768.98,-271.94 779.38,-269.92 769.99,-265.02 768.98,-271.94"/>
</a>
</g>
</g>
</g>
</svg>
