<?xml version="1.0" encoding="UTF-8" standalone="no"?>
<!DOCTYPE svg PUBLIC "-//W3C//DTD SVG 1.1//EN"
 "http://www.w3.org/Graphics/SVG/1.1/DTD/svg11.dtd">
<!-- Generated by graphviz version 9.0.0 (0)
 -->
<!-- Title: Antares::ThreadPoolBase::getThreadIndex Pages: 1 -->
<svg width="766pt" height="115pt"
 viewBox="0.00 0.00 766.00 115.00" xmlns="http://www.w3.org/2000/svg" xmlns:xlink="http://www.w3.org/1999/xlink">
<g id="graph0" class="graph" transform="scale(1 1) rotate(0) translate(4 111)">
<title>Antares::ThreadPoolBase::getThreadIndex</title>
<!-- Node1 -->
<g id="Node000001" class="node">
<title>Node1</title>
<g id="a_Node000001"><a xlink:title=" ">
<polygon fill="#999999" stroke="#666666" points="758,-82 630.25,-82 630.25,-50 758,-50 758,-82"/>
<text text-anchor="start" x="638.25" y="-68.5" font-family="Helvetica,sans-Serif" font-size="10.00">Antares::ThreadPoolBase</text>
<text text-anchor="middle" x="694.12" y="-56.5" font-family="Helvetica,sans-Serif" font-size="10.00">::getThreadIndex</text>
</a>
</g>
</g>
<!-- Node2 -->
<g id="Node000002" class="node">
<title>Node2</title>
<g id="a_Node000002"><a xlink:href="a00952.html#a7989a4ac5c4c31370703efae2e23524e" target="_top" xlink:title=" ">
<polygon fill="white" stroke="#666666" points="594.25,-107 450.75,-107 450.75,-75 594.25,-75 594.25,-107"/>
<text text-anchor="start" x="458.75" y="-93.5" font-family="Helvetica,sans-Serif" font-size="10.00">Antares::ThreadPool</text>
<text text-anchor="middle" x="522.5" y="-81.5" font-family="Helvetica,sans-Serif" font-size="10.00">::getCurrentThreadIndexView</text>
</a>
</g>
</g>
<!-- Node1&#45;&gt;Node2 -->
<g id="edge1_Node000001_Node000002" class="edge">
<title>Node1&#45;&gt;Node2</title>
<g id="a_edge1_Node000001_Node000002"><a xlink:title=" ">
<path fill="none" stroke="#63b8ff" d="M618.78,-76.96C610.78,-78.14 602.66,-79.33 594.71,-80.51"/>
<polygon fill="#63b8ff" stroke="#63b8ff" points="619.08,-80.45 628.47,-75.53 618.06,-73.53 619.08,-80.45"/>
</a>
</g>
</g>
<!-- Node3 -->
<g id="Node000003" class="node">
<title>Node3</title>
<g id="a_Node000003"><a xlink:href="a00944.html#a9a6bf1d55c081cc77cca35adaeb3780d" target="_top" xlink:title=" ">
<polygon fill="white" stroke="#666666" points="586.38,-57 458.62,-57 458.62,-25 586.38,-25 586.38,-57"/>
<text text-anchor="start" x="466.62" y="-43.5" font-family="Helvetica,sans-Serif" font-size="10.00">Antares::ThreadPoolBase</text>
<text text-anchor="middle" x="522.5" y="-31.5" font-family="Helvetica,sans-Serif" font-size="10.00">::setThreadIndex</text>
</a>
</g>
</g>
<!-- Node1&#45;&gt;Node3 -->
<g id="edge2_Node000001_Node000003" class="edge">
<title>Node1&#45;&gt;Node3</title>
<g id="a_edge2_Node000001_Node000003"><a xlink:title=" ">
<path fill="none" stroke="#63b8ff" d="M618.89,-55.06C608.16,-53.48 597.2,-51.86 586.71,-50.32"/>
<polygon fill="#63b8ff" stroke="#63b8ff" points="618.06,-58.47 628.47,-56.47 619.08,-51.55 618.06,-58.47"/>
</a>
</g>
</g>
<!-- Node4 -->
<g id="Node000004" class="node">
<title>Node4</title>
<g id="a_Node000004"><a xlink:href="a00944.html#a90f9311eac6c03fb4cb36cb8ce9c7d31" target="_top" xlink:title=" ">
<polygon fill="white" stroke="#666666" points="414.75,-57 287,-57 287,-25 414.75,-25 414.75,-57"/>
<text text-anchor="start" x="295" y="-43.5" font-family="Helvetica,sans-Serif" font-size="10.00">Antares::ThreadPoolBase</text>
<text text-anchor="middle" x="350.88" y="-31.5" font-family="Helvetica,sans-Serif" font-size="10.00">::worker</text>
</a>
</g>
</g>
<!-- Node3&#45;&gt;Node4 -->
<g id="edge3_Node000003_Node000004" class="edge">
<title>Node3&#45;&gt;Node4</title>
<g id="a_edge3_Node000003_Node000004"><a xlink:title=" ">
<path fill="none" stroke="#63b8ff" d="M446.93,-41C436.31,-41 425.47,-41 415.09,-41"/>
<polygon fill="#63b8ff" stroke="#63b8ff" points="446.82,-44.5 456.82,-41 446.82,-37.5 446.82,-44.5"/>
</a>
</g>
</g>
<!-- Node5 -->
<g id="Node000005" class="node">
<title>Node5</title>
<g id="a_Node000005"><a xlink:href="a00952.html#a3e10871340681ff859f142e5ccfc900f" target="_top" xlink:title=" ">
<polygon fill="white" stroke="#666666" points="248.75,-82 143.5,-82 143.5,-50 248.75,-50 248.75,-82"/>
<text text-anchor="start" x="151.5" y="-68.5" font-family="Helvetica,sans-Serif" font-size="10.00">Antares::ThreadPool</text>
<text text-anchor="middle" x="196.12" y="-56.5" font-family="Helvetica,sans-Serif" font-size="10.00">::create_threads</text>
</a>
</g>
</g>
<!-- Node4&#45;&gt;Node5 -->
<g id="edge4_Node000004_Node000005" class="edge">
<title>Node4&#45;&gt;Node5</title>
<g id="a_edge4_Node000004_Node000005"><a xlink:title=" ">
<path fill="none" stroke="#63b8ff" d="M275.8,-53.12C266.68,-54.62 257.52,-56.12 248.83,-57.54"/>
<polygon fill="#63b8ff" stroke="#63b8ff" points="276.07,-56.63 285.37,-51.56 274.94,-49.72 276.07,-56.63"/>
</a>
</g>
</g>
<!-- Node8 -->
<g id="Node000008" class="node">
<title>Node8</title>
<g id="a_Node000008"><a xlink:href="a00952.html#a77c2c86af4a1d52ac11f7a4822dd8303" target="_top" xlink:title="force reset a thread, only should be called when a deadly problem happen">
<polygon fill="white" stroke="#666666" points="251,-32 141.25,-32 141.25,0 251,0 251,-32"/>
<text text-anchor="start" x="149.25" y="-18.5" font-family="Helvetica,sans-Serif" font-size="10.00">Antares::ThreadPool</text>
<text text-anchor="middle" x="196.12" y="-6.5" font-family="Helvetica,sans-Serif" font-size="10.00">::resetThreadByIndex</text>
</a>
</g>
</g>
<!-- Node4&#45;&gt;Node8 -->
<g id="edge7_Node000004_Node000008" class="edge">
<title>Node4&#45;&gt;Node8</title>
<g id="a_edge7_Node000004_Node000008"><a xlink:title=" ">
<path fill="none" stroke="#63b8ff" d="M275.68,-28.86C267.43,-27.51 259.15,-26.15 251.22,-24.85"/>
<polygon fill="#63b8ff" stroke="#63b8ff" points="274.94,-32.28 285.37,-30.44 276.07,-25.37 274.94,-32.28"/>
</a>
</g>
</g>
<!-- Node6 -->
<g id="Node000006" class="node">
<title>Node6</title>
<g id="a_Node000006"><a xlink:href="a00952.html#a1600af46c9181828ed152503010d1c37" target="_top" xlink:title=" ">
<polygon fill="white" stroke="#666666" points="105.25,-107 0,-107 0,-75 105.25,-75 105.25,-107"/>
<text text-anchor="start" x="8" y="-93.5" font-family="Helvetica,sans-Serif" font-size="10.00">Antares::ThreadPool</text>
<text text-anchor="middle" x="52.62" y="-81.5" font-family="Helvetica,sans-Serif" font-size="10.00">::reset</text>
</a>
</g>
</g>
<!-- Node5&#45;&gt;Node6 -->
<g id="edge5_Node000005_Node000006" class="edge">
<title>Node5&#45;&gt;Node6</title>
<g id="a_edge5_Node000005_Node000006"><a xlink:title=" ">
<path fill="none" stroke="#63b8ff" d="M132.11,-77.13C123.21,-78.71 114.16,-80.31 105.5,-81.83"/>
<polygon fill="#63b8ff" stroke="#63b8ff" points="132.51,-80.62 141.75,-75.43 131.29,-73.72 132.51,-80.62"/>
</a>
</g>
</g>
<!-- Node7 -->
<g id="Node000007" class="node">
<title>Node7</title>
<g id="a_Node000007"><a xlink:href="a00952.html#acccef0055dea586f9f82e94e10578475" target="_top" xlink:title=" ">
<polygon fill="white" stroke="#666666" points="105.25,-57 0,-57 0,-25 105.25,-25 105.25,-57"/>
<text text-anchor="start" x="8" y="-43.5" font-family="Helvetica,sans-Serif" font-size="10.00">Antares::ThreadPool</text>
<text text-anchor="middle" x="52.62" y="-31.5" font-family="Helvetica,sans-Serif" font-size="10.00">::ThreadPool</text>
</a>
</g>
</g>
<!-- Node5&#45;&gt;Node7 -->
<g id="edge6_Node000005_Node000007" class="edge">
<title>Node5&#45;&gt;Node7</title>
<g id="a_edge6_Node000005_Node000007"><a xlink:title=" ">
<path fill="none" stroke="#63b8ff" d="M132.11,-54.87C123.21,-53.29 114.16,-51.69 105.5,-50.17"/>
<polygon fill="#63b8ff" stroke="#63b8ff" points="131.29,-58.28 141.75,-56.57 132.51,-51.38 131.29,-58.28"/>
</a>
</g>
</g>
</g>
</svg>
