<?xml version="1.0" encoding="UTF-8" standalone="no"?>
<!DOCTYPE svg PUBLIC "-//W3C//DTD SVG 1.1//EN"
 "http://www.w3.org/Graphics/SVG/1.1/DTD/svg11.dtd">
<!-- Generated by graphviz version 9.0.0 (0)
 -->
<!-- Title: LibLoader::Plugin::unloadWhenExceptionInternal Pages: 1 -->
<svg width="1172pt" height="200pt"
 viewBox="0.00 0.00 1171.75 200.00" xmlns="http://www.w3.org/2000/svg" xmlns:xlink="http://www.w3.org/1999/xlink">
<g id="graph0" class="graph" transform="scale(1 1) rotate(0) translate(4 196)">
<title>LibLoader::Plugin::unloadWhenExceptionInternal</title>
<!-- Node1 -->
<g id="Node000001" class="node">
<title>Node1</title>
<g id="a_Node000001"><a xlink:title=" ">
<polygon fill="#999999" stroke="#666666" points="145.75,-117 0,-117 0,-85 145.75,-85 145.75,-117"/>
<text text-anchor="start" x="8" y="-103.5" font-family="Helvetica,sans-Serif" font-size="10.00">LibLoader::Plugin::</text>
<text text-anchor="middle" x="72.88" y="-91.5" font-family="Helvetica,sans-Serif" font-size="10.00">unloadWhenExceptionInternal</text>
</a>
</g>
</g>
<!-- Node2 -->
<g id="Node000002" class="node">
<title>Node2</title>
<g id="a_Node000002"><a xlink:href="a00924.html#af4e8baa9d706f75b1bf21d95069d3f42" target="_top" xlink:title=" ">
<polygon fill="white" stroke="#666666" points="299,-192 187,-192 187,-160 299,-160 299,-192"/>
<text text-anchor="start" x="195" y="-178.5" font-family="Helvetica,sans-Serif" font-size="10.00">LibLoader::PluginData</text>
<text text-anchor="middle" x="243" y="-166.5" font-family="Helvetica,sans-Serif" font-size="10.00">::_disable</text>
</a>
</g>
</g>
<!-- Node1&#45;&gt;Node2 -->
<g id="edge1_Node000001_Node000002" class="edge">
<title>Node1&#45;&gt;Node2</title>
<g id="a_edge1_Node000001_Node000002"><a xlink:title=" ">
<path fill="none" stroke="#63b8ff" d="M108.21,-117.35C129.32,-127.29 156.99,-140.13 181.75,-151 184.86,-152.37 188.08,-153.76 191.32,-155.15"/>
<polygon fill="#63b8ff" stroke="#63b8ff" points="189.75,-158.28 200.32,-158.96 192.48,-151.84 189.75,-158.28"/>
</a>
</g>
</g>
<!-- Node3 -->
<g id="Node000003" class="node">
<title>Node3</title>
<g id="a_Node000003"><a xlink:href="a00924.html#a06be765d6cf55aa951f7eecb7ba578e8" target="_top" xlink:title=" ">
<polygon fill="white" stroke="#666666" points="299,-142 187,-142 187,-110 299,-110 299,-142"/>
<text text-anchor="start" x="195" y="-128.5" font-family="Helvetica,sans-Serif" font-size="10.00">LibLoader::PluginData</text>
<text text-anchor="middle" x="243" y="-116.5" font-family="Helvetica,sans-Serif" font-size="10.00">::_unload</text>
</a>
</g>
</g>
<!-- Node1&#45;&gt;Node3 -->
<g id="edge2_Node000001_Node000003" class="edge">
<title>Node1&#45;&gt;Node3</title>
<g id="a_edge2_Node000001_Node000003"><a xlink:title=" ">
<path fill="none" stroke="#63b8ff" d="M146.15,-111.75C155.87,-113.19 165.81,-114.67 175.43,-116.1"/>
<polygon fill="#63b8ff" stroke="#63b8ff" points="174.64,-119.52 185.04,-117.53 175.67,-112.6 174.64,-119.52"/>
</a>
</g>
</g>
<!-- Node5 -->
<g id="Node000005" class="node">
<title>Node5</title>
<g id="a_Node000005"><a xlink:href="a00426.html#a830b51c74068e1461e1baf677dd10ac2" target="_top" xlink:title=" ">
<polygon fill="white" stroke="#666666" points="296.75,-92 189.25,-92 189.25,-60 296.75,-60 296.75,-92"/>
<text text-anchor="start" x="197.25" y="-78.5" font-family="Helvetica,sans-Serif" font-size="10.00">LibLoader::LoaderApi</text>
<text text-anchor="middle" x="243" y="-66.5" font-family="Helvetica,sans-Serif" font-size="10.00">::libClose</text>
</a>
</g>
</g>
<!-- Node1&#45;&gt;Node5 -->
<g id="edge4_Node000001_Node000005" class="edge">
<title>Node1&#45;&gt;Node5</title>
<g id="a_edge4_Node000001_Node000005"><a xlink:title=" ">
<path fill="none" stroke="#63b8ff" d="M146.15,-90.25C156.56,-88.7 167.22,-87.12 177.47,-85.6"/>
<polygon fill="#63b8ff" stroke="#63b8ff" points="177.95,-89.06 187.33,-84.13 176.92,-82.14 177.95,-89.06"/>
</a>
</g>
</g>
<!-- Node6 -->
<g id="Node000006" class="node">
<title>Node6</title>
<g id="a_Node000006"><a xlink:href="a00872.html#af50d0545fe7d683e54fcd03453a423e3" target="_top" xlink:title=" ">
<polygon fill="white" stroke="#666666" points="304.25,-42 181.75,-42 181.75,-10 304.25,-10 304.25,-42"/>
<text text-anchor="start" x="189.75" y="-28.5" font-family="Helvetica,sans-Serif" font-size="10.00">LibLoader::LoaderLogger</text>
<text text-anchor="middle" x="243" y="-16.5" font-family="Helvetica,sans-Serif" font-size="10.00">::warning</text>
</a>
</g>
</g>
<!-- Node1&#45;&gt;Node6 -->
<g id="edge5_Node000001_Node000006" class="edge">
<title>Node1&#45;&gt;Node6</title>
<g id="a_edge5_Node000001_Node000006"><a xlink:title=" ">
<path fill="none" stroke="#63b8ff" d="M108.21,-84.65C129.32,-74.71 156.99,-61.87 181.75,-51 184.86,-49.63 188.08,-48.24 191.32,-46.85"/>
<polygon fill="#63b8ff" stroke="#63b8ff" points="192.48,-50.16 200.32,-43.04 189.75,-43.72 192.48,-50.16"/>
</a>
</g>
</g>
<!-- Node4 -->
<g id="Node000004" class="node">
<title>Node4</title>
<g id="a_Node000004"><a xlink:href="a00920.html#a81c7f6972e7ed7429f2ce9ba82c9ba31" target="_top" xlink:title=" ">
<polygon fill="white" stroke="#666666" points="473.25,-142 340.25,-142 340.25,-110 473.25,-110 473.25,-142"/>
<text text-anchor="start" x="348.25" y="-128.5" font-family="Helvetica,sans-Serif" font-size="10.00">LibLoader::PluginFuncAddr</text>
<text text-anchor="middle" x="406.75" y="-116.5" font-family="Helvetica,sans-Serif" font-size="10.00">Data::_resetAddrData</text>
</a>
</g>
</g>
<!-- Node3&#45;&gt;Node4 -->
<g id="edge3_Node000003_Node000004" class="edge">
<title>Node3&#45;&gt;Node4</title>
<g id="a_edge3_Node000003_Node000004"><a xlink:title=" ">
<path fill="none" stroke="#63b8ff" d="M299.21,-126C308.62,-126 318.54,-126 328.4,-126"/>
<polygon fill="#63b8ff" stroke="#63b8ff" points="328.38,-129.5 338.38,-126 328.38,-122.5 328.38,-129.5"/>
</a>
</g>
</g>
<!-- Node7 -->
<g id="Node000007" class="node">
<title>Node7</title>
<g id="a_Node000007"><a xlink:href="a00872.html#af4d7d5164450e25f7401d1cc15f15b8d" target="_top" xlink:title="实际暴露的接口">
<polygon fill="white" stroke="#666666" points="468,-64 345.5,-64 345.5,-32 468,-32 468,-64"/>
<text text-anchor="start" x="353.5" y="-50.5" font-family="Helvetica,sans-Serif" font-size="10.00">LibLoader::LoaderLogger</text>
<text text-anchor="middle" x="406.75" y="-38.5" font-family="Helvetica,sans-Serif" font-size="10.00">::call_logger</text>
</a>
</g>
</g>
<!-- Node6&#45;&gt;Node7 -->
<g id="edge6_Node000006_Node000007" class="edge">
<title>Node6&#45;&gt;Node7</title>
<g id="a_edge6_Node000006_Node000007"><a xlink:title=" ">
<path fill="none" stroke="#63b8ff" d="M304.69,-34.25C314.23,-35.55 324.16,-36.9 333.92,-38.23"/>
<polygon fill="#63b8ff" stroke="#63b8ff" points="333.38,-41.69 343.76,-39.57 334.32,-34.75 333.38,-41.69"/>
</a>
</g>
</g>
<!-- Node8 -->
<g id="Node000008" class="node">
<title>Node8</title>
<g id="a_Node000008"><a xlink:href="a00430.html#a076c5f4ff8083c7cfc6523498d0ba30f" target="_top" xlink:title=" ">
<polygon fill="white" stroke="#666666" points="754.25,-45 652,-45 652,-13 754.25,-13 754.25,-45"/>
<text text-anchor="start" x="660" y="-31.5" font-family="Helvetica,sans-Serif" font-size="10.00">LibLoader::JNIEnvs</text>
<text text-anchor="middle" x="703.12" y="-19.5" font-family="Helvetica,sans-Serif" font-size="10.00">::getEnv</text>
</a>
</g>
</g>
<!-- Node7&#45;&gt;Node8 -->
<g id="edge7_Node000007_Node000008" class="edge">
<title>Node7&#45;&gt;Node8</title>
<g id="a_edge7_Node000007_Node000008"><a xlink:title=" ">
<path fill="none" stroke="#63b8ff" d="M468.39,-44.09C518.67,-40.84 589.84,-36.25 640.42,-32.98"/>
<polygon fill="#63b8ff" stroke="#63b8ff" points="640.58,-36.48 650.33,-32.34 640.13,-29.49 640.58,-36.48"/>
</a>
</g>
</g>
<!-- Node12 -->
<g id="Node000012" class="node">
<title>Node12</title>
<g id="a_Node000012"><a xlink:href="a00425.html#a6a6fcd695791253a9b3a053d313b2b93" target="_top" xlink:title=" ">
<polygon fill="white" stroke="#666666" points="616,-20 509.25,-20 509.25,0 616,0 616,-20"/>
<text text-anchor="middle" x="562.62" y="-6.5" font-family="Helvetica,sans-Serif" font-size="10.00">LibLoader::str2jstring</text>
</a>
</g>
</g>
<!-- Node7&#45;&gt;Node12 -->
<g id="edge11_Node000007_Node000012" class="edge">
<title>Node7&#45;&gt;Node12</title>
<g id="a_edge11_Node000007_Node000012"><a xlink:title=" ">
<path fill="none" stroke="#63b8ff" d="M468.12,-33.09C481.41,-29.81 495.38,-26.36 508.37,-23.15"/>
<polygon fill="#63b8ff" stroke="#63b8ff" points="509.13,-26.57 518,-20.77 507.46,-19.77 509.13,-26.57"/>
</a>
</g>
</g>
<!-- Node9 -->
<g id="Node000009" class="node">
<title>Node9</title>
<g id="a_Node000009"><a xlink:href="a00840.html#aea7d58ff9f04d6d4849c25a2506603a5" target="_top" xlink:title="取env,如果不存在重新获取">
<polygon fill="white" stroke="#666666" points="913.5,-39 790.25,-39 790.25,-19 913.5,-19 913.5,-39"/>
<text text-anchor="middle" x="851.88" y="-25.5" font-family="Helvetica,sans-Serif" font-size="10.00">JNIEnvManager::getEnv</text>
</a>
</g>
</g>
<!-- Node8&#45;&gt;Node9 -->
<g id="edge8_Node000008_Node000009" class="edge">
<title>Node8&#45;&gt;Node9</title>
<g id="a_edge8_Node000008_Node000009"><a xlink:title=" ">
<path fill="none" stroke="#63b8ff" d="M754.63,-29C762.35,-29 770.44,-29 778.52,-29"/>
<polygon fill="#63b8ff" stroke="#63b8ff" points="778.38,-32.5 788.38,-29 778.38,-25.5 778.38,-32.5"/>
</a>
</g>
</g>
<!-- Node10 -->
<g id="Node000010" class="node">
<title>Node10</title>
<g id="a_Node000010"><a xlink:href="a00260.html#a3d31403b7971274d47d308245206bd24" target="_top" xlink:title="为当前线程创建一个env.">
<polygon fill="white" stroke="#666666" points="1000.75,-39 949.5,-39 949.5,-19 1000.75,-19 1000.75,-39"/>
<text text-anchor="middle" x="975.12" y="-25.5" font-family="Helvetica,sans-Serif" font-size="10.00">newEnv</text>
</a>
</g>
</g>
<!-- Node9&#45;&gt;Node10 -->
<g id="edge9_Node000009_Node000010" class="edge">
<title>Node9&#45;&gt;Node10</title>
<g id="a_edge9_Node000009_Node000010"><a xlink:title=" ">
<path fill="none" stroke="#63b8ff" d="M913.86,-29C922.06,-29 930.26,-29 937.84,-29"/>
<polygon fill="#63b8ff" stroke="#63b8ff" points="937.66,-32.5 947.66,-29 937.66,-25.5 937.66,-32.5"/>
</a>
</g>
</g>
<!-- Node11 -->
<g id="Node000011" class="node">
<title>Node11</title>
<g id="a_Node000011"><a xlink:href="a00840.html#ae0e482c6a813848a8f5d34957d1b6307" target="_top" xlink:title="获取全局JavaVM对象.">
<polygon fill="white" stroke="#666666" points="1163.75,-39 1036.75,-39 1036.75,-19 1163.75,-19 1163.75,-39"/>
<text text-anchor="middle" x="1100.25" y="-25.5" font-family="Helvetica,sans-Serif" font-size="10.00">JNIEnvManager::getGvm</text>
</a>
</g>
</g>
<!-- Node10&#45;&gt;Node11 -->
<g id="edge10_Node000010_Node000011" class="edge">
<title>Node10&#45;&gt;Node11</title>
<g id="a_edge10_Node000010_Node000011"><a xlink:title=" ">
<path fill="none" stroke="#63b8ff" d="M1001.04,-29C1008.22,-29 1016.45,-29 1025.02,-29"/>
<polygon fill="#63b8ff" stroke="#63b8ff" points="1024.91,-32.5 1034.91,-29 1024.91,-25.5 1024.91,-32.5"/>
</a>
</g>
</g>
<!-- Node12&#45;&gt;Node6 -->
<g id="edge13_Node000012_Node000006" class="edge">
<title>Node12&#45;&gt;Node6</title>
<g id="a_edge13_Node000012_Node000006"><a xlink:title=" ">
<path fill="none" stroke="#63b8ff" d="M509,-12.65C456.24,-15.31 374.63,-19.42 315.91,-22.38"/>
<polygon fill="#63b8ff" stroke="#63b8ff" points="315.81,-18.88 306,-22.88 316.17,-25.87 315.81,-18.88"/>
</a>
</g>
</g>
<!-- Node12&#45;&gt;Node8 -->
<g id="edge12_Node000012_Node000008" class="edge">
<title>Node12&#45;&gt;Node8</title>
<g id="a_edge12_Node000012_Node000008"><a xlink:title=" ">
<path fill="none" stroke="#63b8ff" d="M616.38,-17.24C624.28,-18.32 632.48,-19.45 640.54,-20.55"/>
<polygon fill="#63b8ff" stroke="#63b8ff" points="639.92,-24 650.3,-21.89 640.87,-17.06 639.92,-24"/>
</a>
</g>
</g>
</g>
</svg>
