<?xml version="1.0" encoding="UTF-8" standalone="no"?>
<!DOCTYPE svg PUBLIC "-//W3C//DTD SVG 1.1//EN"
 "http://www.w3.org/Graphics/SVG/1.1/DTD/svg11.dtd">
<!-- Generated by graphviz version 9.0.0 (0)
 -->
<!-- Title: MiraiCP::IContactData::refreshInfo Pages: 1 -->
<svg width="1771pt" height="220pt"
 viewBox="0.00 0.00 1770.50 220.17" xmlns="http://www.w3.org/2000/svg" xmlns:xlink="http://www.w3.org/1999/xlink">
<g id="graph0" class="graph" transform="scale(1 1) rotate(0) translate(4 216.17)">
<title>MiraiCP::IContactData::refreshInfo</title>
<!-- Node1 -->
<g id="Node000001" class="node">
<title>Node1</title>
<g id="a_Node000001"><a xlink:title="刷新数据">
<polygon fill="#999999" stroke="#666666" points="115.75,-99.17 0,-99.17 0,-67.17 115.75,-67.17 115.75,-99.17"/>
<text text-anchor="start" x="8" y="-85.67" font-family="Helvetica,sans-Serif" font-size="10.00">MiraiCP::IContactData</text>
<text text-anchor="middle" x="57.88" y="-73.67" font-family="Helvetica,sans-Serif" font-size="10.00">::refreshInfo</text>
</a>
</g>
</g>
<!-- Node2 -->
<g id="Node000002" class="node">
<title>Node2</title>
<g id="a_Node000002"><a xlink:href="a00980.html#ad104b6f94628a14cf351ae7da993c770" target="_top" xlink:title="取该联系人的一些信息">
<polygon fill="white" stroke="#666666" points="267.12,-149.17 152.12,-149.17 152.12,-117.17 267.12,-117.17 267.12,-149.17"/>
<text text-anchor="start" x="160.12" y="-135.67" font-family="Helvetica,sans-Serif" font-size="10.00">MiraiCP::LowLevelAPI</text>
<text text-anchor="middle" x="209.62" y="-123.67" font-family="Helvetica,sans-Serif" font-size="10.00">::getInfoSource</text>
</a>
</g>
</g>
<!-- Node1&#45;&gt;Node2 -->
<g id="edge1_Node000001_Node000002" class="edge">
<title>Node1&#45;&gt;Node2</title>
<g id="a_edge1_Node000001_Node000002"><a xlink:title=" ">
<path fill="none" stroke="#63b8ff" d="M107.91,-99.54C120.9,-103.88 135.07,-108.61 148.57,-113.12"/>
<polygon fill="#63b8ff" stroke="#63b8ff" points="147.2,-116.35 157.79,-116.19 149.41,-109.71 147.2,-116.35"/>
</a>
</g>
</g>
<!-- Node15 -->
<g id="Node000015" class="node">
<title>Node15</title>
<g id="a_Node000015"><a xlink:href="a00980.html#a39064f9c2b148b3a3061f818bf237215" target="_top" xlink:title=" ">
<polygon fill="white" stroke="#666666" points="267.12,-99.17 152.12,-99.17 152.12,-67.17 267.12,-67.17 267.12,-99.17"/>
<text text-anchor="start" x="160.12" y="-85.67" font-family="Helvetica,sans-Serif" font-size="10.00">MiraiCP::LowLevelAPI</text>
<text text-anchor="middle" x="209.62" y="-73.67" font-family="Helvetica,sans-Serif" font-size="10.00">::info0</text>
</a>
</g>
</g>
<!-- Node1&#45;&gt;Node15 -->
<g id="edge18_Node000001_Node000015" class="edge">
<title>Node1&#45;&gt;Node15</title>
<g id="a_edge18_Node000001_Node000015"><a xlink:title=" ">
<path fill="none" stroke="#63b8ff" d="M115.92,-83.17C123.89,-83.17 132.16,-83.17 140.32,-83.17"/>
<polygon fill="#63b8ff" stroke="#63b8ff" points="140.23,-86.67 150.23,-83.17 140.23,-79.67 140.23,-86.67"/>
</a>
</g>
</g>
<!-- Node17 -->
<g id="Node000017" class="node">
<title>Node17</title>
<g id="a_Node000017"><a xlink:href="a00960.html#af673a2e404372cc90719f38b9cced144" target="_top" xlink:title="转为json, 由子类实现, 无锁">
<polygon fill="white" stroke="#666666" points="267.5,-49.17 151.75,-49.17 151.75,-17.17 267.5,-17.17 267.5,-49.17"/>
<text text-anchor="start" x="159.75" y="-35.67" font-family="Helvetica,sans-Serif" font-size="10.00">MiraiCP::IContactData</text>
<text text-anchor="middle" x="209.62" y="-23.67" font-family="Helvetica,sans-Serif" font-size="10.00">::internalToJson</text>
</a>
</g>
</g>
<!-- Node1&#45;&gt;Node17 -->
<g id="edge20_Node000001_Node000017" class="edge">
<title>Node1&#45;&gt;Node17</title>
<g id="a_edge20_Node000001_Node000017"><a xlink:title=" ">
<path fill="none" stroke="#63b8ff" d="M107.91,-66.8C120.9,-62.46 135.07,-57.73 148.57,-53.22"/>
<polygon fill="#63b8ff" stroke="#63b8ff" points="149.41,-56.63 157.79,-50.14 147.2,-49.99 149.41,-56.63"/>
</a>
</g>
</g>
<!-- Node3 -->
<g id="Node000003" class="node">
<title>Node3</title>
<g id="a_Node000003"><a xlink:href="a00435.html#a309e8d7f316e8b5e947ea3bcddeb84a8" target="_top" xlink:title="调用 Mirai 操作">
<polygon fill="white" stroke="#666666" points="423.75,-149.17 314.75,-149.17 314.75,-117.17 423.75,-117.17 423.75,-149.17"/>
<text text-anchor="start" x="322.75" y="-135.67" font-family="Helvetica,sans-Serif" font-size="10.00">MiraiCP::KtOperation</text>
<text text-anchor="middle" x="369.25" y="-123.67" font-family="Helvetica,sans-Serif" font-size="10.00">::ktOperation</text>
</a>
</g>
</g>
<!-- Node2&#45;&gt;Node3 -->
<g id="edge2_Node000002_Node000003" class="edge">
<title>Node2&#45;&gt;Node3</title>
<g id="a_edge2_Node000002_Node000003"><a xlink:title=" ">
<path fill="none" stroke="#63b8ff" d="M267.53,-133.17C279.09,-133.17 291.34,-133.17 303.16,-133.17"/>
<polygon fill="#63b8ff" stroke="#63b8ff" points="302.81,-136.67 312.81,-133.17 302.81,-129.67 302.81,-136.67"/>
</a>
</g>
</g>
<!-- Node4 -->
<g id="Node000004" class="node">
<title>Node4</title>
<g id="a_Node000004"><a xlink:href="a00435.html#a1e1e498928eeaa1d7107033ff5fa881a" target="_top" xlink:title="调用 Mirai 操作">
<polygon fill="white" stroke="#666666" points="580,-149.17 471,-149.17 471,-117.17 580,-117.17 580,-149.17"/>
<text text-anchor="start" x="479" y="-135.67" font-family="Helvetica,sans-Serif" font-size="10.00">MiraiCP::KtOperation</text>
<text text-anchor="middle" x="525.5" y="-123.67" font-family="Helvetica,sans-Serif" font-size="10.00">::ktOperationStr</text>
</a>
</g>
</g>
<!-- Node3&#45;&gt;Node4 -->
<g id="edge3_Node000003_Node000004" class="edge">
<title>Node3&#45;&gt;Node4</title>
<g id="a_edge3_Node000003_Node000004"><a xlink:title=" ">
<path fill="none" stroke="#63b8ff" d="M424.2,-133.17C435.47,-133.17 447.47,-133.17 459.11,-133.17"/>
<polygon fill="#63b8ff" stroke="#63b8ff" points="459.07,-136.67 469.07,-133.17 459.07,-129.67 459.07,-136.67"/>
</a>
</g>
</g>
<!-- Node5 -->
<g id="Node000005" class="node">
<title>Node5</title>
<g id="a_Node000005"><a xlink:href="a00426.html#a4c6ac4cf4ba5ff0adb7656708bbb67d0" target="_top" xlink:title="interfaces for plugins">
<polygon fill="white" stroke="#666666" points="723.5,-149.17 616,-149.17 616,-117.17 723.5,-117.17 723.5,-149.17"/>
<text text-anchor="start" x="624" y="-135.67" font-family="Helvetica,sans-Serif" font-size="10.00">LibLoader::LoaderApi</text>
<text text-anchor="middle" x="669.75" y="-123.67" font-family="Helvetica,sans-Serif" font-size="10.00">::pluginOperation</text>
</a>
</g>
</g>
<!-- Node4&#45;&gt;Node5 -->
<g id="edge4_Node000004_Node000005" class="edge">
<title>Node4&#45;&gt;Node5</title>
<g id="a_edge4_Node000004_Node000005"><a xlink:title=" ">
<path fill="none" stroke="#63b8ff" d="M580.28,-133.17C588.19,-133.17 596.41,-133.17 604.51,-133.17"/>
<polygon fill="#63b8ff" stroke="#63b8ff" points="604.32,-136.67 614.32,-133.17 604.32,-129.67 604.32,-136.67"/>
</a>
</g>
</g>
<!-- Node6 -->
<g id="Node000006" class="node">
<title>Node6</title>
<g id="a_Node000006"><a xlink:href="a00780.html#acc90fdac094544c4ddd9d6fd13baa5da" target="_top" xlink:title=" ">
<polygon fill="white" stroke="#666666" points="897.75,-212.17 759.5,-212.17 759.5,-180.17 897.75,-180.17 897.75,-212.17"/>
<text text-anchor="start" x="767.5" y="-198.67" font-family="Helvetica,sans-Serif" font-size="10.00">MiraiCP::MiraiCPStringview</text>
<text text-anchor="middle" x="828.62" y="-186.67" font-family="Helvetica,sans-Serif" font-size="10.00">::c_str</text>
</a>
</g>
</g>
<!-- Node5&#45;&gt;Node6 -->
<g id="edge5_Node000005_Node000006" class="edge">
<title>Node5&#45;&gt;Node6</title>
<g id="a_edge5_Node000005_Node000006"><a xlink:title=" ">
<path fill="none" stroke="#63b8ff" d="M711.56,-149.56C731.27,-157.47 755.14,-167.06 776.09,-175.47"/>
<polygon fill="#63b8ff" stroke="#63b8ff" points="774.76,-178.71 785.35,-179.19 777.37,-172.21 774.76,-178.71"/>
</a>
</g>
</g>
<!-- Node7 -->
<g id="Node000007" class="node">
<title>Node7</title>
<g id="a_Node000007"><a xlink:href="a00840.html#aea7d58ff9f04d6d4849c25a2506603a5" target="_top" xlink:title="取env,如果不存在重新获取">
<polygon fill="white" stroke="#666666" points="1512.25,-124.17 1389,-124.17 1389,-104.17 1512.25,-104.17 1512.25,-124.17"/>
<text text-anchor="middle" x="1450.62" y="-110.67" font-family="Helvetica,sans-Serif" font-size="10.00">JNIEnvManager::getEnv</text>
</a>
</g>
</g>
<!-- Node5&#45;&gt;Node7 -->
<g id="edge6_Node000005_Node000007" class="edge">
<title>Node5&#45;&gt;Node7</title>
<g id="a_edge6_Node000005_Node000007"><a xlink:title=" ">
<path fill="none" stroke="#63b8ff" d="M723.89,-138.21C787.9,-143.84 898.71,-152.17 994,-152.17 994,-152.17 994,-152.17 1154.5,-152.17 1235.79,-152.17 1328.65,-137.81 1388.15,-126.75"/>
<polygon fill="#63b8ff" stroke="#63b8ff" points="1388.56,-130.23 1397.74,-124.93 1387.26,-123.35 1388.56,-130.23"/>
</a>
</g>
</g>
<!-- Node10 -->
<g id="Node000010" class="node">
<title>Node10</title>
<g id="a_Node000010"><a xlink:href="a00425.html#aa5f8d0ecd9dd392b491070aace643ae3" target="_top" xlink:title=" ">
<polygon fill="white" stroke="#666666" points="1048.38,-124.17 941.62,-124.17 941.62,-104.17 1048.38,-104.17 1048.38,-124.17"/>
<text text-anchor="middle" x="995" y="-110.67" font-family="Helvetica,sans-Serif" font-size="10.00">LibLoader::jstring2str</text>
</a>
</g>
</g>
<!-- Node5&#45;&gt;Node10 -->
<g id="edge9_Node000005_Node000010" class="edge">
<title>Node5&#45;&gt;Node10</title>
<g id="a_edge9_Node000005_Node000010"><a xlink:title=" ">
<path fill="none" stroke="#63b8ff" d="M723.77,-130.05C780.22,-126.73 869.58,-121.48 929.93,-117.93"/>
<polygon fill="#63b8ff" stroke="#63b8ff" points="929.94,-121.44 939.71,-117.36 929.52,-114.45 929.94,-121.44"/>
</a>
</g>
</g>
<!-- Node12 -->
<g id="Node000012" class="node">
<title>Node12</title>
<g id="a_Node000012"><a xlink:href="a00425.html#a6a6fcd695791253a9b3a053d313b2b93" target="_top" xlink:title=" ">
<polygon fill="white" stroke="#666666" points="882,-64.17 775.25,-64.17 775.25,-44.17 882,-44.17 882,-64.17"/>
<text text-anchor="middle" x="828.62" y="-50.67" font-family="Helvetica,sans-Serif" font-size="10.00">LibLoader::str2jstring</text>
</a>
</g>
</g>
<!-- Node5&#45;&gt;Node12 -->
<g id="edge12_Node000005_Node000012" class="edge">
<title>Node5&#45;&gt;Node12</title>
<g id="a_edge12_Node000005_Node000012"><a xlink:title=" ">
<path fill="none" stroke="#63b8ff" d="M703.25,-116.8C730.83,-102.91 770.09,-83.14 797.09,-69.55"/>
<polygon fill="#63b8ff" stroke="#63b8ff" points="798.42,-72.79 805.78,-65.17 795.27,-66.54 798.42,-72.79"/>
</a>
</g>
</g>
<!-- Node8 -->
<g id="Node000008" class="node">
<title>Node8</title>
<g id="a_Node000008"><a xlink:href="a00260.html#a3d31403b7971274d47d308245206bd24" target="_top" xlink:title="为当前线程创建一个env.">
<polygon fill="white" stroke="#666666" points="1599.5,-124.17 1548.25,-124.17 1548.25,-104.17 1599.5,-104.17 1599.5,-124.17"/>
<text text-anchor="middle" x="1573.88" y="-110.67" font-family="Helvetica,sans-Serif" font-size="10.00">newEnv</text>
</a>
</g>
</g>
<!-- Node7&#45;&gt;Node8 -->
<g id="edge7_Node000007_Node000008" class="edge">
<title>Node7&#45;&gt;Node8</title>
<g id="a_edge7_Node000007_Node000008"><a xlink:title=" ">
<path fill="none" stroke="#63b8ff" d="M1512.61,-114.17C1520.81,-114.17 1529.01,-114.17 1536.59,-114.17"/>
<polygon fill="#63b8ff" stroke="#63b8ff" points="1536.41,-117.67 1546.41,-114.17 1536.41,-110.67 1536.41,-117.67"/>
</a>
</g>
</g>
<!-- Node9 -->
<g id="Node000009" class="node">
<title>Node9</title>
<g id="a_Node000009"><a xlink:href="a00840.html#ae0e482c6a813848a8f5d34957d1b6307" target="_top" xlink:title="获取全局JavaVM对象.">
<polygon fill="white" stroke="#666666" points="1762.5,-124.17 1635.5,-124.17 1635.5,-104.17 1762.5,-104.17 1762.5,-124.17"/>
<text text-anchor="middle" x="1699" y="-110.67" font-family="Helvetica,sans-Serif" font-size="10.00">JNIEnvManager::getGvm</text>
</a>
</g>
</g>
<!-- Node8&#45;&gt;Node9 -->
<g id="edge8_Node000008_Node000009" class="edge">
<title>Node8&#45;&gt;Node9</title>
<g id="a_edge8_Node000008_Node000009"><a xlink:title=" ">
<path fill="none" stroke="#63b8ff" d="M1599.79,-114.17C1606.97,-114.17 1615.2,-114.17 1623.77,-114.17"/>
<polygon fill="#63b8ff" stroke="#63b8ff" points="1623.66,-117.67 1633.66,-114.17 1623.66,-110.67 1623.66,-117.67"/>
</a>
</g>
</g>
<!-- Node11 -->
<g id="Node000011" class="node">
<title>Node11</title>
<g id="a_Node000011"><a xlink:href="a00430.html#a076c5f4ff8083c7cfc6523498d0ba30f" target="_top" xlink:title=" ">
<polygon fill="white" stroke="#666666" points="1353,-108.17 1250.75,-108.17 1250.75,-76.17 1353,-76.17 1353,-108.17"/>
<text text-anchor="start" x="1258.75" y="-94.67" font-family="Helvetica,sans-Serif" font-size="10.00">LibLoader::JNIEnvs</text>
<text text-anchor="middle" x="1301.88" y="-82.67" font-family="Helvetica,sans-Serif" font-size="10.00">::getEnv</text>
</a>
</g>
</g>
<!-- Node10&#45;&gt;Node11 -->
<g id="edge10_Node000010_Node000011" class="edge">
<title>Node10&#45;&gt;Node11</title>
<g id="a_edge10_Node000010_Node000011"><a xlink:title=" ">
<path fill="none" stroke="#63b8ff" d="M1048.76,-110.36C1101.69,-106.54 1183.19,-100.66 1239.11,-96.63"/>
<polygon fill="#63b8ff" stroke="#63b8ff" points="1239.05,-100.14 1248.77,-95.93 1238.55,-93.16 1239.05,-100.14"/>
</a>
</g>
</g>
<!-- Node11&#45;&gt;Node7 -->
<g id="edge11_Node000011_Node000007" class="edge">
<title>Node11&#45;&gt;Node7</title>
<g id="a_edge11_Node000011_Node000007"><a xlink:title=" ">
<path fill="none" stroke="#63b8ff" d="M1353.38,-99.74C1361.1,-100.9 1369.19,-102.11 1377.27,-103.32"/>
<polygon fill="#63b8ff" stroke="#63b8ff" points="1376.74,-106.78 1387.15,-104.8 1377.78,-99.86 1376.74,-106.78"/>
</a>
</g>
</g>
<!-- Node12&#45;&gt;Node11 -->
<g id="edge13_Node000012_Node000011" class="edge">
<title>Node12&#45;&gt;Node11</title>
<g id="a_edge13_Node000012_Node000011"><a xlink:title=" ">
<path fill="none" stroke="#63b8ff" d="M882.31,-58.42C970.04,-65.49 1145.62,-79.65 1239.06,-87.18"/>
<polygon fill="#63b8ff" stroke="#63b8ff" points="1238.55,-90.65 1248.8,-87.97 1239.12,-83.68 1238.55,-90.65"/>
</a>
</g>
</g>
<!-- Node13 -->
<g id="Node000013" class="node">
<title>Node13</title>
<g id="a_Node000013"><a xlink:href="a00872.html#af50d0545fe7d683e54fcd03453a423e3" target="_top" xlink:title=" ">
<polygon fill="white" stroke="#666666" points="1056.25,-48.17 933.75,-48.17 933.75,-16.17 1056.25,-16.17 1056.25,-48.17"/>
<text text-anchor="start" x="941.75" y="-34.67" font-family="Helvetica,sans-Serif" font-size="10.00">LibLoader::LoaderLogger</text>
<text text-anchor="middle" x="995" y="-22.67" font-family="Helvetica,sans-Serif" font-size="10.00">::warning</text>
</a>
</g>
</g>
<!-- Node12&#45;&gt;Node13 -->
<g id="edge14_Node000012_Node000013" class="edge">
<title>Node12&#45;&gt;Node13</title>
<g id="a_edge14_Node000012_Node000013"><a xlink:title=" ">
<path fill="none" stroke="#63b8ff" d="M882.09,-47.15C894.86,-45.44 908.74,-43.58 922.24,-41.77"/>
<polygon fill="#63b8ff" stroke="#63b8ff" points="922.5,-45.27 931.95,-40.47 921.58,-38.33 922.5,-45.27"/>
</a>
</g>
</g>
<!-- Node14 -->
<g id="Node000014" class="node">
<title>Node14</title>
<g id="a_Node000014"><a xlink:href="a00872.html#af4d7d5164450e25f7401d1cc15f15b8d" target="_top" xlink:title="实际暴露的接口">
<polygon fill="white" stroke="#666666" points="1214.75,-48.17 1092.25,-48.17 1092.25,-16.17 1214.75,-16.17 1214.75,-48.17"/>
<text text-anchor="start" x="1100.25" y="-34.67" font-family="Helvetica,sans-Serif" font-size="10.00">LibLoader::LoaderLogger</text>
<text text-anchor="middle" x="1153.5" y="-22.67" font-family="Helvetica,sans-Serif" font-size="10.00">::call_logger</text>
</a>
</g>
</g>
<!-- Node13&#45;&gt;Node14 -->
<g id="edge15_Node000013_Node000014" class="edge">
<title>Node13&#45;&gt;Node14</title>
<g id="a_edge15_Node000013_Node000014"><a xlink:title=" ">
<path fill="none" stroke="#63b8ff" d="M1056.51,-32.17C1064.4,-32.17 1072.55,-32.17 1080.6,-32.17"/>
<polygon fill="#63b8ff" stroke="#63b8ff" points="1080.38,-35.67 1090.38,-32.17 1080.38,-28.67 1080.38,-35.67"/>
</a>
</g>
</g>
<!-- Node14&#45;&gt;Node11 -->
<g id="edge16_Node000014_Node000011" class="edge">
<title>Node14&#45;&gt;Node11</title>
<g id="a_edge16_Node000014_Node000011"><a xlink:title=" ">
<path fill="none" stroke="#63b8ff" d="M1194.5,-48.56C1211.69,-55.61 1231.99,-63.93 1250.22,-71.4"/>
<polygon fill="#63b8ff" stroke="#63b8ff" points="1248.69,-74.56 1259.27,-75.11 1251.35,-68.08 1248.69,-74.56"/>
</a>
</g>
</g>
<!-- Node14&#45;&gt;Node12 -->
<g id="edge17_Node000014_Node000012" class="edge">
<title>Node14&#45;&gt;Node12</title>
<g id="a_edge17_Node000014_Node000012"><a xlink:title=" ">
<path fill="none" stroke="#63b8ff" d="M1099.01,-15.71C1085.21,-12.17 1070.29,-8.96 1056.25,-7.17 1002.24,-0.27 986.98,4.29 933.75,-7.17 906.01,-13.14 876.76,-27.11 856.34,-38.28"/>
<polygon fill="#63b8ff" stroke="#63b8ff" points="854.84,-35.11 847.85,-43.07 858.28,-41.21 854.84,-35.11"/>
</a>
</g>
</g>
<!-- Node16 -->
<g id="Node000016" class="node">
<title>Node16</title>
<g id="a_Node000016"><a xlink:href="a00412.html#a4208a634d81d0263c1079debe2ab58fa" target="_top" xlink:title=" ">
<polygon fill="white" stroke="#666666" points="435,-93.17 303.5,-93.17 303.5,-73.17 435,-73.17 435,-93.17"/>
<text text-anchor="middle" x="369.25" y="-79.67" font-family="Helvetica,sans-Serif" font-size="10.00">MiraiCP::json_stringmover</text>
</a>
</g>
</g>
<!-- Node15&#45;&gt;Node16 -->
<g id="edge19_Node000015_Node000016" class="edge">
<title>Node15&#45;&gt;Node16</title>
<g id="a_edge19_Node000015_Node000016"><a xlink:title=" ">
<path fill="none" stroke="#63b8ff" d="M267.53,-83.17C275.38,-83.17 283.55,-83.17 291.68,-83.17"/>
<polygon fill="#63b8ff" stroke="#63b8ff" points="291.61,-86.67 301.61,-83.17 291.61,-79.67 291.61,-86.67"/>
</a>
</g>
</g>
</g>
</svg>
