<?xml version="1.0" encoding="UTF-8" standalone="no"?>
<!DOCTYPE svg PUBLIC "-//W3C//DTD SVG 1.1//EN"
 "http://www.w3.org/Graphics/SVG/1.1/DTD/svg11.dtd">
<!-- Generated by graphviz version 9.0.0 (0)
 -->
<!-- Title: MiraiCP::IContactData::internalToJson Pages: 1 -->
<svg width="298pt" height="90pt"
 viewBox="0.00 0.00 298.00 90.00" xmlns="http://www.w3.org/2000/svg" xmlns:xlink="http://www.w3.org/1999/xlink">
<g id="graph0" class="graph" transform="scale(1 1) rotate(0) translate(4 86)">
<title>MiraiCP::IContactData::internalToJson</title>
<!-- Node1 -->
<g id="Node000001" class="node">
<title>Node1</title>
<g id="a_Node000001"><a xlink:title="转为json, 由子类实现, 无锁">
<polygon fill="#999999" stroke="#666666" points="290,-57 174.25,-57 174.25,-25 290,-25 290,-57"/>
<text text-anchor="start" x="182.25" y="-43.5" font-family="Helvetica,sans-Serif" font-size="10.00">MiraiCP::IContactData</text>
<text text-anchor="middle" x="232.12" y="-31.5" font-family="Helvetica,sans-Serif" font-size="10.00">::internalToJson</text>
</a>
</g>
</g>
<!-- Node2 -->
<g id="Node000002" class="node">
<title>Node2</title>
<g id="a_Node000002"><a xlink:href="a00956.html#a1b7b6643de0b824f1306b3dad3232122" target="_top" xlink:title="转为json, 由子类实现, 无锁">
<polygon fill="white" stroke="#666666" points="138.25,-82 0,-82 0,-50 138.25,-50 138.25,-82"/>
<text text-anchor="start" x="8" y="-68.5" font-family="Helvetica,sans-Serif" font-size="10.00">MiraiCP::GroupRelatedData</text>
<text text-anchor="middle" x="69.12" y="-56.5" font-family="Helvetica,sans-Serif" font-size="10.00">::internalToJson</text>
</a>
</g>
</g>
<!-- Node1&#45;&gt;Node2 -->
<g id="edge1_Node000001_Node000002" class="edge">
<title>Node1&#45;&gt;Node2</title>
<g id="a_edge1_Node000001_Node000002"><a xlink:title=" ">
<path fill="none" stroke="#63b8ff" d="M162.79,-51.61C154.82,-52.85 146.7,-54.11 138.73,-55.35"/>
<polygon fill="#63b8ff" stroke="#63b8ff" points="163.07,-55.11 172.41,-50.12 161.99,-48.19 163.07,-55.11"/>
</a>
</g>
</g>
<!-- Node3 -->
<g id="Node000003" class="node">
<title>Node3</title>
<g id="a_Node000003"><a xlink:href="a00960.html#a1632df966247f52553c17e25e5d47280" target="_top" xlink:title="刷新数据">
<polygon fill="white" stroke="#666666" points="127,-32 11.25,-32 11.25,0 127,0 127,-32"/>
<text text-anchor="start" x="19.25" y="-18.5" font-family="Helvetica,sans-Serif" font-size="10.00">MiraiCP::IContactData</text>
<text text-anchor="middle" x="69.12" y="-6.5" font-family="Helvetica,sans-Serif" font-size="10.00">::refreshInfo</text>
</a>
</g>
</g>
<!-- Node1&#45;&gt;Node3 -->
<g id="edge2_Node000001_Node000003" class="edge">
<title>Node1&#45;&gt;Node3</title>
<g id="a_edge2_Node000001_Node000003"><a xlink:title=" ">
<path fill="none" stroke="#63b8ff" d="M162.77,-30.39C151,-28.56 138.87,-26.67 127.43,-24.9"/>
<polygon fill="#63b8ff" stroke="#63b8ff" points="161.99,-33.81 172.41,-31.88 163.07,-26.89 161.99,-33.81"/>
</a>
</g>
</g>
</g>
</svg>
