<?xml version="1.0" encoding="UTF-8" standalone="no"?>
<!DOCTYPE svg PUBLIC "-//W3C//DTD SVG 1.1//EN"
 "http://www.w3.org/Graphics/SVG/1.1/DTD/svg11.dtd">
<!-- Generated by graphviz version 9.0.0 (0)
 -->
<!-- Title: LibLoader::Plugin::checkValid Pages: 1 -->
<svg width="2957pt" height="282pt"
 viewBox="0.00 0.00 2956.50 282.00" xmlns="http://www.w3.org/2000/svg" xmlns:xlink="http://www.w3.org/1999/xlink">
<g id="graph0" class="graph" transform="scale(1 1) rotate(0) translate(4 278)">
<title>LibLoader::Plugin::checkValid</title>
<!-- Node1 -->
<g id="Node000001" class="node">
<title>Node1</title>
<g id="a_Node000001"><a xlink:title=" ">
<polygon fill="#999999" stroke="#666666" points="2948.5,-147 2851.5,-147 2851.5,-115 2948.5,-115 2948.5,-147"/>
<text text-anchor="start" x="2859.5" y="-133.5" font-family="Helvetica,sans-Serif" font-size="10.00">LibLoader::Plugin::</text>
<text text-anchor="middle" x="2900" y="-121.5" font-family="Helvetica,sans-Serif" font-size="10.00">checkValid</text>
</a>
</g>
</g>
<!-- Node2 -->
<g id="Node000002" class="node">
<title>Node2</title>
<g id="a_Node000002"><a xlink:href="a00916.html#aed16647ce226a7e8ca04c61690ebe756" target="_top" xlink:title=" ">
<polygon fill="white" stroke="#666666" points="2815.5,-211 2718.5,-211 2718.5,-179 2815.5,-179 2815.5,-211"/>
<text text-anchor="start" x="2726.5" y="-197.5" font-family="Helvetica,sans-Serif" font-size="10.00">LibLoader::Plugin::</text>
<text text-anchor="middle" x="2767" y="-185.5" font-family="Helvetica,sans-Serif" font-size="10.00">checkLoaded</text>
</a>
</g>
</g>
<!-- Node1&#45;&gt;Node2 -->
<g id="edge1_Node000001_Node000002" class="edge">
<title>Node1&#45;&gt;Node2</title>
<g id="a_edge1_Node000001_Node000002"><a xlink:title=" ">
<path fill="none" stroke="#63b8ff" d="M2855.28,-152.36C2837.79,-160.91 2817.96,-170.59 2801.62,-178.57"/>
<polygon fill="#63b8ff" stroke="#63b8ff" points="2856.46,-155.68 2863.9,-148.15 2853.38,-149.39 2856.46,-155.68"/>
</a>
</g>
</g>
<!-- Node4 -->
<g id="Node000004" class="node">
<title>Node4</title>
<g id="a_Node000004"><a xlink:href="a00916.html#a006c0eaa142f9aa1760ec307cd3c0cee" target="_top" xlink:title=" ">
<polygon fill="white" stroke="#666666" points="2815.5,-147 2718.5,-147 2718.5,-115 2815.5,-115 2815.5,-147"/>
<text text-anchor="start" x="2726.5" y="-133.5" font-family="Helvetica,sans-Serif" font-size="10.00">LibLoader::Plugin::</text>
<text text-anchor="middle" x="2767" y="-121.5" font-family="Helvetica,sans-Serif" font-size="10.00">disableInternal</text>
</a>
</g>
</g>
<!-- Node1&#45;&gt;Node4 -->
<g id="edge3_Node000001_Node000004" class="edge">
<title>Node1&#45;&gt;Node4</title>
<g id="a_edge3_Node000001_Node000004"><a xlink:title=" ">
<path fill="none" stroke="#63b8ff" d="M2840.03,-131C2831.94,-131 2823.71,-131 2815.85,-131"/>
<polygon fill="#63b8ff" stroke="#63b8ff" points="2839.82,-134.5 2849.82,-131 2839.82,-127.5 2839.82,-134.5"/>
</a>
</g>
</g>
<!-- Node43 -->
<g id="Node000043" class="node">
<title>Node43</title>
<g id="a_Node000043"><a xlink:href="a00916.html#aa3969cacef7e9a28baa578a90d01aa23" target="_top" xlink:title="安全、带锁地获取id">
<polygon fill="white" stroke="#666666" points="2549.5,-77 2452.5,-77 2452.5,-45 2549.5,-45 2549.5,-77"/>
<text text-anchor="start" x="2460.5" y="-63.5" font-family="Helvetica,sans-Serif" font-size="10.00">LibLoader::Plugin::</text>
<text text-anchor="middle" x="2501" y="-51.5" font-family="Helvetica,sans-Serif" font-size="10.00">getIdSafe</text>
</a>
</g>
</g>
<!-- Node1&#45;&gt;Node43 -->
<g id="edge47_Node000001_Node000043" class="edge">
<title>Node1&#45;&gt;Node43</title>
<g id="a_edge47_Node000001_Node000043"><a xlink:title=" ">
<path fill="none" stroke="#63b8ff" d="M2840.09,-112.35C2831.88,-110.05 2823.51,-107.85 2815.5,-106 2722.56,-84.49 2611.6,-71.47 2549.73,-65.31"/>
<polygon fill="#63b8ff" stroke="#63b8ff" points="2839.12,-115.71 2849.7,-115.12 2841.06,-108.98 2839.12,-115.71"/>
</a>
</g>
</g>
<!-- Node3 -->
<g id="Node000003" class="node">
<title>Node3</title>
<g id="a_Node000003"><a xlink:href="a00916.html#a805e0c15cb3e5d2fbd8809e075c8d104" target="_top" xlink:title=" ">
<polygon fill="white" stroke="#666666" points="2682.5,-225 2585.5,-225 2585.5,-193 2682.5,-193 2682.5,-225"/>
<text text-anchor="start" x="2593.5" y="-211.5" font-family="Helvetica,sans-Serif" font-size="10.00">LibLoader::Plugin::</text>
<text text-anchor="middle" x="2634" y="-199.5" font-family="Helvetica,sans-Serif" font-size="10.00">formatTo</text>
</a>
</g>
</g>
<!-- Node2&#45;&gt;Node3 -->
<g id="edge2_Node000002_Node000003" class="edge">
<title>Node2&#45;&gt;Node3</title>
<g id="a_edge2_Node000002_Node000003"><a xlink:title=" ">
<path fill="none" stroke="#63b8ff" d="M2707.03,-201.3C2698.94,-202.17 2690.71,-203.05 2682.85,-203.89"/>
<polygon fill="#63b8ff" stroke="#63b8ff" points="2707.26,-204.8 2716.83,-200.25 2706.52,-197.84 2707.26,-204.8"/>
</a>
</g>
</g>
<!-- Node5 -->
<g id="Node000005" class="node">
<title>Node5</title>
<g id="a_Node000005"><a xlink:href="a00916.html#a147550def7f276f07a60b5078d4670b8" target="_top" xlink:title=" ">
<polygon fill="white" stroke="#666666" points="2682.5,-175 2585.5,-175 2585.5,-143 2682.5,-143 2682.5,-175"/>
<text text-anchor="start" x="2593.5" y="-161.5" font-family="Helvetica,sans-Serif" font-size="10.00">LibLoader::Plugin::</text>
<text text-anchor="middle" x="2634" y="-149.5" font-family="Helvetica,sans-Serif" font-size="10.00">disablePlugin</text>
</a>
</g>
</g>
<!-- Node4&#45;&gt;Node5 -->
<g id="edge4_Node000004_Node000005" class="edge">
<title>Node4&#45;&gt;Node5</title>
<g id="a_edge4_Node000004_Node000005"><a xlink:title=" ">
<path fill="none" stroke="#63b8ff" d="M2707.31,-143.54C2699.13,-145.29 2690.8,-147.07 2682.85,-148.77"/>
<polygon fill="#63b8ff" stroke="#63b8ff" points="2707.81,-147.02 2716.86,-141.5 2706.34,-140.17 2707.81,-147.02"/>
</a>
</g>
</g>
<!-- Node6 -->
<g id="Node000006" class="node">
<title>Node6</title>
<g id="a_Node000006"><a xlink:href="a00916.html#ac03a32a4b96ba4618fee0628d3998aef" target="_top" xlink:title=" ">
<polygon fill="white" stroke="#666666" points="2682.5,-125 2585.5,-125 2585.5,-93 2682.5,-93 2682.5,-125"/>
<text text-anchor="start" x="2593.5" y="-111.5" font-family="Helvetica,sans-Serif" font-size="10.00">LibLoader::Plugin::</text>
<text text-anchor="middle" x="2634" y="-99.5" font-family="Helvetica,sans-Serif" font-size="10.00">unloadInternal</text>
</a>
</g>
</g>
<!-- Node4&#45;&gt;Node6 -->
<g id="edge5_Node000004_Node000006" class="edge">
<title>Node4&#45;&gt;Node6</title>
<g id="a_edge5_Node000004_Node000006"><a xlink:title=" ">
<path fill="none" stroke="#63b8ff" d="M2707.03,-121.1C2698.94,-119.74 2690.71,-118.36 2682.85,-117.04"/>
<polygon fill="#63b8ff" stroke="#63b8ff" points="2706.4,-124.54 2716.84,-122.74 2707.56,-117.64 2706.4,-124.54"/>
</a>
</g>
</g>
<!-- Node7 -->
<g id="Node000007" class="node">
<title>Node7</title>
<g id="a_Node000007"><a xlink:href="a00916.html#abc57e6dfaed7b6445c8ba8d94b09ec13" target="_top" xlink:title=" ">
<polygon fill="white" stroke="#666666" points="2549.5,-127 2452.5,-127 2452.5,-95 2549.5,-95 2549.5,-127"/>
<text text-anchor="start" x="2460.5" y="-113.5" font-family="Helvetica,sans-Serif" font-size="10.00">LibLoader::Plugin::</text>
<text text-anchor="middle" x="2501" y="-101.5" font-family="Helvetica,sans-Serif" font-size="10.00">unloadPlugin</text>
</a>
</g>
</g>
<!-- Node6&#45;&gt;Node7 -->
<g id="edge6_Node000006_Node000007" class="edge">
<title>Node6&#45;&gt;Node7</title>
<g id="a_edge6_Node000006_Node000007"><a xlink:title=" ">
<path fill="none" stroke="#63b8ff" d="M2574.03,-109.9C2565.94,-110.02 2557.71,-110.15 2549.85,-110.27"/>
<polygon fill="#63b8ff" stroke="#63b8ff" points="2573.88,-113.4 2583.82,-109.75 2573.77,-106.4 2573.88,-113.4"/>
</a>
</g>
</g>
<!-- Node8 -->
<g id="Node000008" class="node">
<title>Node8</title>
<g id="a_Node000008"><a xlink:href="a00928.html#ad25e53978364d19bf050d66799e579af" target="_top" xlink:title=" ">
<polygon fill="white" stroke="#666666" points="2416.5,-77 2288,-77 2288,-45 2416.5,-45 2416.5,-77"/>
<text text-anchor="start" x="2296" y="-63.5" font-family="Helvetica,sans-Serif" font-size="10.00">LibLoader::PluginManager</text>
<text text-anchor="middle" x="2352.25" y="-51.5" font-family="Helvetica,sans-Serif" font-size="10.00">::addNewPlugin</text>
</a>
</g>
</g>
<!-- Node7&#45;&gt;Node8 -->
<g id="edge7_Node000007_Node000008" class="edge">
<title>Node7&#45;&gt;Node8</title>
<g id="a_edge7_Node000007_Node000008"><a xlink:title=" ">
<path fill="none" stroke="#63b8ff" d="M2441.46,-91.06C2428.26,-86.56 2414.39,-81.83 2401.66,-77.49"/>
<polygon fill="#63b8ff" stroke="#63b8ff" points="2440.33,-94.37 2450.92,-94.28 2442.58,-87.74 2440.33,-94.37"/>
</a>
</g>
</g>
<!-- Node42 -->
<g id="Node000042" class="node">
<title>Node42</title>
<g id="a_Node000042"><a xlink:href="a00916.html#a1c3116fa19213eba6451fb1602a31bbf" target="_top" xlink:title=" ">
<polygon fill="white" stroke="#666666" points="2400.75,-127 2303.75,-127 2303.75,-95 2400.75,-95 2400.75,-127"/>
<text text-anchor="start" x="2311.75" y="-113.5" font-family="Helvetica,sans-Serif" font-size="10.00">LibLoader::Plugin::</text>
<text text-anchor="middle" x="2352.25" y="-101.5" font-family="Helvetica,sans-Serif" font-size="10.00">~Plugin</text>
</a>
</g>
</g>
<!-- Node7&#45;&gt;Node42 -->
<g id="edge46_Node000007_Node000042" class="edge">
<title>Node7&#45;&gt;Node42</title>
<g id="a_edge46_Node000007_Node000042"><a xlink:title=" ">
<path fill="none" stroke="#63b8ff" d="M2440.95,-111C2427.73,-111 2413.86,-111 2401.16,-111"/>
<polygon fill="#63b8ff" stroke="#63b8ff" points="2440.84,-114.5 2450.84,-111 2440.84,-107.5 2440.84,-114.5"/>
</a>
</g>
</g>
<!-- Node9 -->
<g id="Node000009" class="node">
<title>Node9</title>
<g id="a_Node000009"><a xlink:href="a00928.html#a7908686a60d87cd6c670cbc581331024" target="_top" xlink:title=" ">
<polygon fill="white" stroke="#666666" points="2252,-102 2123.5,-102 2123.5,-70 2252,-70 2252,-102"/>
<text text-anchor="start" x="2131.5" y="-88.5" font-family="Helvetica,sans-Serif" font-size="10.00">LibLoader::PluginManager</text>
<text text-anchor="middle" x="2187.75" y="-76.5" font-family="Helvetica,sans-Serif" font-size="10.00">::loadNewPluginByPath</text>
</a>
</g>
</g>
<!-- Node8&#45;&gt;Node9 -->
<g id="edge8_Node000008_Node000009" class="edge">
<title>Node8&#45;&gt;Node9</title>
<g id="a_edge8_Node000008_Node000009"><a xlink:title=" ">
<path fill="none" stroke="#63b8ff" d="M2276.61,-72.48C2268.52,-73.73 2260.35,-74.99 2252.4,-76.21"/>
<polygon fill="#63b8ff" stroke="#63b8ff" points="2277.11,-75.95 2286.46,-70.97 2276.05,-69.03 2277.11,-75.95"/>
</a>
</g>
</g>
<!-- Node41 -->
<g id="Node000041" class="node">
<title>Node41</title>
<g id="a_Node000041"><a xlink:href="a00916.html#a6db0416218955157f2c4091fc29aa17e" target="_top" xlink:title=" ">
<polygon fill="white" stroke="#666666" points="2236.25,-52 2139.25,-52 2139.25,-20 2236.25,-20 2236.25,-52"/>
<text text-anchor="start" x="2147.25" y="-38.5" font-family="Helvetica,sans-Serif" font-size="10.00">LibLoader::Plugin::</text>
<text text-anchor="middle" x="2187.75" y="-26.5" font-family="Helvetica,sans-Serif" font-size="10.00">loadsAll</text>
</a>
</g>
</g>
<!-- Node8&#45;&gt;Node41 -->
<g id="edge45_Node000008_Node000041" class="edge">
<title>Node8&#45;&gt;Node41</title>
<g id="a_edge45_Node000008_Node000041"><a xlink:title=" ">
<path fill="none" stroke="#63b8ff" d="M2276.6,-49.52C2262.97,-47.42 2249.1,-45.28 2236.52,-43.35"/>
<polygon fill="#63b8ff" stroke="#63b8ff" points="2276.05,-52.97 2286.46,-51.03 2277.11,-46.05 2276.05,-52.97"/>
</a>
</g>
</g>
<!-- Node10 -->
<g id="Node000010" class="node">
<title>Node10</title>
<g id="a_Node000010"><a xlink:href="a00425.html#a8eada9f54700edf5a2aa262e5d006691" target="_top" xlink:title=" ">
<polygon fill="white" stroke="#666666" points="2087.5,-127 1953.75,-127 1953.75,-95 2087.5,-95 2087.5,-127"/>
<text text-anchor="start" x="1961.75" y="-113.5" font-family="Helvetica,sans-Serif" font-size="10.00">LibLoader::loader_loadNew</text>
<text text-anchor="middle" x="2020.62" y="-101.5" font-family="Helvetica,sans-Serif" font-size="10.00">Plugin</text>
</a>
</g>
</g>
<!-- Node9&#45;&gt;Node10 -->
<g id="edge9_Node000009_Node000010" class="edge">
<title>Node9&#45;&gt;Node10</title>
<g id="a_edge9_Node000009_Node000010"><a xlink:title=" ">
<path fill="none" stroke="#63b8ff" d="M2112.06,-97.31C2103.98,-98.53 2095.8,-99.77 2087.84,-100.98"/>
<polygon fill="#63b8ff" stroke="#63b8ff" points="2112.52,-100.78 2121.88,-95.82 2111.47,-93.86 2112.52,-100.78"/>
</a>
</g>
</g>
<!-- Node40 -->
<g id="Node000040" class="node">
<title>Node40</title>
<g id="a_Node000040"><a xlink:href="a00928.html#a829ac187511de83d8c78431d071e4864" target="_top" xlink:title=" ">
<polygon fill="white" stroke="#666666" points="2084.88,-77 1956.38,-77 1956.38,-45 2084.88,-45 2084.88,-77"/>
<text text-anchor="start" x="1964.38" y="-63.5" font-family="Helvetica,sans-Serif" font-size="10.00">LibLoader::PluginManager</text>
<text text-anchor="middle" x="2020.62" y="-51.5" font-family="Helvetica,sans-Serif" font-size="10.00">::reloadAllPlugin</text>
</a>
</g>
</g>
<!-- Node9&#45;&gt;Node40 -->
<g id="edge44_Node000009_Node000040" class="edge">
<title>Node9&#45;&gt;Node40</title>
<g id="a_edge44_Node000009_Node000040"><a xlink:title=" ">
<path fill="none" stroke="#63b8ff" d="M2112.15,-74.71C2103.21,-73.35 2094.14,-71.98 2085.37,-70.65"/>
<polygon fill="#63b8ff" stroke="#63b8ff" points="2111.47,-78.14 2121.88,-76.18 2112.52,-71.22 2111.47,-78.14"/>
</a>
</g>
</g>
<!-- Node11 -->
<g id="Node000011" class="node">
<title>Node11</title>
<g id="a_Node000011"><a xlink:href="a00426.html#aff28b2ad21b60cabc3c735a4b9562df9" target="_top" xlink:title=" ">
<polygon fill="white" stroke="#666666" points="1914.38,-152 1806.88,-152 1806.88,-120 1914.38,-120 1914.38,-152"/>
<text text-anchor="start" x="1814.88" y="-138.5" font-family="Helvetica,sans-Serif" font-size="10.00">LibLoader::LoaderApi</text>
<text text-anchor="middle" x="1860.62" y="-126.5" font-family="Helvetica,sans-Serif" font-size="10.00">::loadNewPlugin</text>
</a>
</g>
</g>
<!-- Node10&#45;&gt;Node11 -->
<g id="edge10_Node000010_Node000011" class="edge">
<title>Node10&#45;&gt;Node11</title>
<g id="a_edge10_Node000010_Node000011"><a xlink:title=" ">
<path fill="none" stroke="#63b8ff" d="M1942.46,-123.21C1932.99,-124.71 1923.49,-126.21 1914.49,-127.64"/>
<polygon fill="#63b8ff" stroke="#63b8ff" points="1942.71,-126.71 1952.04,-121.69 1941.62,-119.8 1942.71,-126.71"/>
</a>
</g>
</g>
<!-- Node38 -->
<g id="Node000038" class="node">
<title>Node38</title>
<g id="a_Node000038"><a xlink:href="a00880.html#adb67a1dbb48fb151a7f581fcd2afa2e5" target="_top" xlink:title=" ">
<polygon fill="white" stroke="#666666" points="1917.75,-102 1803.5,-102 1803.5,-70 1917.75,-70 1917.75,-102"/>
<text text-anchor="start" x="1811.5" y="-88.5" font-family="Helvetica,sans-Serif" font-size="10.00">LibLoader::LoaderMain</text>
<text text-anchor="middle" x="1860.62" y="-76.5" font-family="Helvetica,sans-Serif" font-size="10.00">::process_task_queue</text>
</a>
</g>
</g>
<!-- Node10&#45;&gt;Node38 -->
<g id="edge41_Node000010_Node000038" class="edge">
<title>Node10&#45;&gt;Node38</title>
<g id="a_edge41_Node000010_Node000038"><a xlink:title=" ">
<path fill="none" stroke="#63b8ff" d="M1942.35,-98.77C1934.12,-97.47 1925.86,-96.16 1917.93,-94.91"/>
<polygon fill="#63b8ff" stroke="#63b8ff" points="1941.62,-102.2 1952.04,-100.31 1942.71,-95.29 1941.62,-102.2"/>
</a>
</g>
</g>
<!-- Node12 -->
<g id="Node000012" class="node">
<title>Node12</title>
<g id="a_Node000012"><a xlink:href="a00431.html#a23c30511bf483a1559577dcb67c05e55" target="_top" xlink:title=" ">
<polygon fill="white" stroke="#666666" points="1767.5,-152 1630,-152 1630,-120 1767.5,-120 1767.5,-152"/>
<text text-anchor="start" x="1638" y="-138.5" font-family="Helvetica,sans-Serif" font-size="10.00">LibLoader::MessageHandler</text>
<text text-anchor="middle" x="1698.75" y="-126.5" font-family="Helvetica,sans-Serif" font-size="10.00">::admin_message</text>
</a>
</g>
</g>
<!-- Node11&#45;&gt;Node12 -->
<g id="edge11_Node000011_Node000012" class="edge">
<title>Node11&#45;&gt;Node12</title>
<g id="a_edge11_Node000011_Node000012"><a xlink:title=" ">
<path fill="none" stroke="#63b8ff" d="M1795.17,-136C1786.17,-136 1776.89,-136 1767.83,-136"/>
<polygon fill="#63b8ff" stroke="#63b8ff" points="1794.88,-139.5 1804.88,-136 1794.88,-132.5 1794.88,-139.5"/>
</a>
</g>
</g>
<!-- Node37 -->
<g id="Node000037" class="node">
<title>Node37</title>
<g id="a_Node000037"><a xlink:href="a00417.html#a5f62240a571dd6678c453ae47f79bed8" target="_top" xlink:title="加载新的插件，仅限有管理权限的插件使用，否则没有任何效果">
<polygon fill="white" stroke="#666666" points="1749.12,-202 1648.38,-202 1648.38,-170 1749.12,-170 1749.12,-202"/>
<text text-anchor="start" x="1656.38" y="-188.5" font-family="Helvetica,sans-Serif" font-size="10.00">MiraiCP::LoaderApi</text>
<text text-anchor="middle" x="1698.75" y="-176.5" font-family="Helvetica,sans-Serif" font-size="10.00">::loadNewPlugin</text>
</a>
</g>
</g>
<!-- Node11&#45;&gt;Node37 -->
<g id="edge40_Node000011_Node000037" class="edge">
<title>Node11&#45;&gt;Node37</title>
<g id="a_edge40_Node000011_Node000037"><a xlink:title=" ">
<path fill="none" stroke="#63b8ff" d="M1796.62,-155.7C1780.97,-160.6 1764.41,-165.78 1749.5,-170.44"/>
<polygon fill="#63b8ff" stroke="#63b8ff" points="1797.33,-159.15 1805.83,-152.82 1795.24,-152.47 1797.33,-159.15"/>
</a>
</g>
</g>
<!-- Node13 -->
<g id="Node000013" class="node">
<title>Node13</title>
<g id="a_Node000013"><a xlink:href="a00892.html#ac44a2bba9059176d3ccb04ed1eb065a3" target="_top" xlink:title=" ">
<polygon fill="white" stroke="#666666" points="1594,-214 1446,-214 1446,-182 1594,-182 1594,-214"/>
<text text-anchor="start" x="1454" y="-200.5" font-family="Helvetica,sans-Serif" font-size="10.00">LibLoader::MessageProcessor</text>
<text text-anchor="middle" x="1520" y="-188.5" font-family="Helvetica,sans-Serif" font-size="10.00">::registerDefaultHandlers</text>
</a>
</g>
</g>
<!-- Node12&#45;&gt;Node13 -->
<g id="edge12_Node000012_Node000013" class="edge">
<title>Node12&#45;&gt;Node13</title>
<g id="a_edge12_Node000012_Node000013"><a xlink:title=" ">
<path fill="none" stroke="#63b8ff" d="M1640.01,-156.25C1616.62,-164.46 1589.96,-173.81 1567.81,-181.58"/>
<polygon fill="#63b8ff" stroke="#63b8ff" points="1641.14,-159.57 1649.42,-152.95 1638.83,-152.96 1641.14,-159.57"/>
</a>
</g>
</g>
<!-- Node14 -->
<g id="Node000014" class="node">
<title>Node14</title>
<g id="a_Node000014"><a xlink:href="a00884.html#ac95c9bf6b208cbeab2e9b1cdfcb7c3d6" target="_top" xlink:title=" ">
<polygon fill="white" stroke="#666666" points="1410,-214 1268.75,-214 1268.75,-182 1410,-182 1410,-214"/>
<text text-anchor="start" x="1276.75" y="-200.5" font-family="Helvetica,sans-Serif" font-size="10.00">LibLoader::MessageManager</text>
<text text-anchor="middle" x="1339.38" y="-188.5" font-family="Helvetica,sans-Serif" font-size="10.00">::init</text>
</a>
</g>
</g>
<!-- Node13&#45;&gt;Node14 -->
<g id="edge13_Node000013_Node000014" class="edge">
<title>Node13&#45;&gt;Node14</title>
<g id="a_edge13_Node000013_Node000014"><a xlink:title=" ">
<path fill="none" stroke="#63b8ff" d="M1434.3,-198C1426.28,-198 1418.21,-198 1410.35,-198"/>
<polygon fill="#63b8ff" stroke="#63b8ff" points="1434.06,-201.5 1444.06,-198 1434.06,-194.5 1434.06,-201.5"/>
</a>
</g>
</g>
<!-- Node15 -->
<g id="Node000015" class="node">
<title>Node15</title>
<g id="a_Node000015"><a xlink:href="a00880.html#a79cbc18aabed7afe2c7ea30f989ffc8c" target="_top" xlink:title="LoaderMain实现开始">
<polygon fill="white" stroke="#666666" points="1232.75,-214 1118.5,-214 1118.5,-182 1232.75,-182 1232.75,-214"/>
<text text-anchor="start" x="1126.5" y="-200.5" font-family="Helvetica,sans-Serif" font-size="10.00">LibLoader::LoaderMain</text>
<text text-anchor="middle" x="1175.62" y="-188.5" font-family="Helvetica,sans-Serif" font-size="10.00">::loaderMain</text>
</a>
</g>
</g>
<!-- Node14&#45;&gt;Node15 -->
<g id="edge14_Node000014_Node000015" class="edge">
<title>Node14&#45;&gt;Node15</title>
<g id="a_edge14_Node000014_Node000015"><a xlink:title=" ">
<path fill="none" stroke="#63b8ff" d="M1256.98,-198C1248.91,-198 1240.84,-198 1233.11,-198"/>
<polygon fill="#63b8ff" stroke="#63b8ff" points="1256.86,-201.5 1266.86,-198 1256.86,-194.5 1256.86,-201.5"/>
</a>
</g>
</g>
<!-- Node16 -->
<g id="Node000016" class="node">
<title>Node16</title>
<g id="a_Node000016"><a xlink:href="a00880.html#a22eacbd6aa585f32d0fccce0a69ab642" target="_top" xlink:title=" ">
<polygon fill="white" stroke="#666666" points="1082.5,-208 948.75,-208 948.75,-188 1082.5,-188 1082.5,-208"/>
<text text-anchor="middle" x="1015.62" y="-194.5" font-family="Helvetica,sans-Serif" font-size="10.00">LibLoader::LoaderMain::get</text>
</a>
</g>
</g>
<!-- Node15&#45;&gt;Node16 -->
<g id="edge15_Node000015_Node000016" class="edge">
<title>Node15&#45;&gt;Node16</title>
<g id="a_edge15_Node000015_Node000016"><a xlink:title=" ">
<path fill="none" stroke="#63b8ff" d="M1106.6,-198C1098.71,-198 1090.66,-198 1082.79,-198"/>
<polygon fill="#63b8ff" stroke="#63b8ff" points="1106.52,-201.5 1116.52,-198 1106.52,-194.5 1106.52,-201.5"/>
</a>
</g>
</g>
<!-- Node35 -->
<g id="Node000035" class="node">
<title>Node35</title>
<g id="a_Node000035"><a xlink:href="a00314.html#aafbc26593c69471626589f38c751ef09" target="_top" xlink:title=" ">
<polygon fill="white" stroke="#666666" points="877.88,-246 818.38,-246 818.38,-226 877.88,-226 877.88,-246"/>
<text text-anchor="middle" x="848.12" y="-232.5" font-family="Helvetica,sans-Serif" font-size="10.00">VerifyImpl</text>
</a>
</g>
</g>
<!-- Node15&#45;&gt;Node35 -->
<g id="edge39_Node000015_Node000035" class="edge">
<title>Node15&#45;&gt;Node35</title>
<g id="a_edge39_Node000015_Node000035"><a xlink:title=" ">
<path fill="none" stroke="#63b8ff" d="M1107.12,-212.91C1098.85,-214.44 1090.5,-215.85 1082.5,-217 1009.47,-227.46 922.68,-232.64 878.36,-234.77"/>
<polygon fill="#63b8ff" stroke="#63b8ff" points="1107.66,-216.37 1116.81,-211.04 1106.33,-209.49 1107.66,-216.37"/>
</a>
</g>
</g>
<!-- Node17 -->
<g id="Node000017" class="node">
<title>Node17</title>
<g id="a_Node000017"><a xlink:href="a00425.html#a46f4ab12479d61956e7dc81cfb19fef5" target="_top" xlink:title=" ">
<polygon fill="white" stroke="#666666" points="912.75,-156 783.5,-156 783.5,-136 912.75,-136 912.75,-156"/>
<text text-anchor="middle" x="848.12" y="-142.5" font-family="Helvetica,sans-Serif" font-size="10.00">LibLoader::loaderWakeCV</text>
</a>
</g>
</g>
<!-- Node16&#45;&gt;Node17 -->
<g id="edge16_Node000016_Node000017" class="edge">
<title>Node16&#45;&gt;Node17</title>
<g id="a_edge16_Node000016_Node000017"><a xlink:title=" ">
<path fill="none" stroke="#63b8ff" d="M970.57,-184.16C942.9,-175.46 907.79,-164.43 882.44,-156.47"/>
<polygon fill="#63b8ff" stroke="#63b8ff" points="969.5,-187.49 980.09,-187.15 971.6,-180.81 969.5,-187.49"/>
</a>
</g>
</g>
<!-- Node25 -->
<g id="Node000025" class="node">
<title>Node25</title>
<g id="a_Node000025"><a xlink:href="a00314.html#a2e0217581c8df7fd1fc867cc3a8317d3" target="_top" xlink:title=" ">
<polygon fill="white" stroke="#666666" points="736.62,-208 641.88,-208 641.88,-188 736.62,-188 736.62,-208"/>
<text text-anchor="middle" x="689.25" y="-194.5" font-family="Helvetica,sans-Serif" font-size="10.00">PluginDisableImpl</text>
</a>
</g>
</g>
<!-- Node16&#45;&gt;Node25 -->
<g id="edge36_Node000016_Node000025" class="edge">
<title>Node16&#45;&gt;Node25</title>
<g id="a_edge36_Node000016_Node000025"><a xlink:title=" ">
<path fill="none" stroke="#63b8ff" d="M937.22,-198C874.81,-198 789.1,-198 736.8,-198"/>
<polygon fill="#63b8ff" stroke="#63b8ff" points="937.08,-201.5 947.08,-198 937.08,-194.5 937.08,-201.5"/>
</a>
</g>
</g>
<!-- Node16&#45;&gt;Node35 -->
<g id="edge37_Node000016_Node000035" class="edge">
<title>Node16&#45;&gt;Node35</title>
<g id="a_edge37_Node000016_Node000035"><a xlink:title=" ">
<path fill="none" stroke="#63b8ff" d="M958.09,-210.98C931.14,-217.17 900.04,-224.31 877.99,-229.37"/>
<polygon fill="#63b8ff" stroke="#63b8ff" points="958.53,-214.47 967.49,-208.82 956.96,-207.65 958.53,-214.47"/>
</a>
</g>
</g>
<!-- Node18 -->
<g id="Node000018" class="node">
<title>Node18</title>
<g id="a_Node000018"><a xlink:href="a00880.html#a9ca8ba2c9fcbfade9adf4a0a2bb47eaa" target="_top" xlink:title=" ">
<polygon fill="white" stroke="#666666" points="746.38,-32 632.12,-32 632.12,0 746.38,0 746.38,-32"/>
<text text-anchor="start" x="640.12" y="-18.5" font-family="Helvetica,sans-Serif" font-size="10.00">LibLoader::LoaderMain</text>
<text text-anchor="middle" x="689.25" y="-6.5" font-family="Helvetica,sans-Serif" font-size="10.00">::mainloop</text>
</a>
</g>
</g>
<!-- Node17&#45;&gt;Node18 -->
<g id="edge17_Node000017_Node000018" class="edge">
<title>Node17&#45;&gt;Node18</title>
<g id="a_edge17_Node000017_Node000018"><a xlink:title=" ">
<path fill="none" stroke="#63b8ff" d="M814,-130.1C803.39,-123.91 792.16,-116.11 783.5,-107 760.48,-82.78 772.14,-63.57 747.5,-41 743.98,-37.78 739.98,-34.92 735.77,-32.41"/>
<polygon fill="#63b8ff" stroke="#63b8ff" points="812.1,-133.05 822.56,-134.79 815.47,-126.91 812.1,-133.05"/>
</a>
</g>
</g>
<!-- Node19 -->
<g id="Node000019" class="node">
<title>Node19</title>
<g id="a_Node000019"><a xlink:href="a00281.html#a36a04ab86ecc081ee51d32866ef7a332" target="_top" xlink:title=" ">
<polygon fill="white" stroke="#666666" points="739.62,-120 638.88,-120 638.88,-88 739.62,-88 739.62,-120"/>
<text text-anchor="start" x="646.88" y="-106.5" font-family="Helvetica,sans-Serif" font-size="10.00">plugin_raw_API_try</text>
<text text-anchor="middle" x="689.25" y="-94.5" font-family="Helvetica,sans-Serif" font-size="10.00">_wake_loader</text>
</a>
</g>
</g>
<!-- Node17&#45;&gt;Node19 -->
<g id="edge19_Node000017_Node000019" class="edge">
<title>Node17&#45;&gt;Node19</title>
<g id="a_edge19_Node000017_Node000019"><a xlink:title=" ">
<path fill="none" stroke="#63b8ff" d="M796.93,-132.56C778.69,-127.68 758.1,-122.16 739.9,-117.29"/>
<polygon fill="#63b8ff" stroke="#63b8ff" points="795.92,-135.91 806.48,-135.12 797.73,-129.15 795.92,-135.91"/>
</a>
</g>
</g>
<!-- Node17&#45;&gt;Node25 -->
<g id="edge25_Node000017_Node000025" class="edge">
<title>Node17&#45;&gt;Node25</title>
<g id="a_edge25_Node000017_Node000025"><a xlink:title=" ">
<path fill="none" stroke="#63b8ff" d="M805.01,-159.96C778.84,-168.63 745.75,-179.6 721.83,-187.53"/>
<polygon fill="#63b8ff" stroke="#63b8ff" points="805.93,-163.34 814.32,-156.87 803.73,-156.7 805.93,-163.34"/>
</a>
</g>
</g>
<!-- Node27 -->
<g id="Node000027" class="node">
<title>Node27</title>
<g id="a_Node000027"><a xlink:href="a00432.html#a746efd674de5c56de789a0c03be7948e" target="_top" xlink:title="新增一个计时器，对接libLoader API">
<polygon fill="white" stroke="#666666" points="743,-170 635.5,-170 635.5,-138 743,-138 743,-170"/>
<text text-anchor="start" x="643.5" y="-156.5" font-family="Helvetica,sans-Serif" font-size="10.00">LibLoader::Scheduler</text>
<text text-anchor="middle" x="689.25" y="-144.5" font-family="Helvetica,sans-Serif" font-size="10.00">::timer</text>
</a>
</g>
</g>
<!-- Node17&#45;&gt;Node27 -->
<g id="edge27_Node000017_Node000027" class="edge">
<title>Node17&#45;&gt;Node27</title>
<g id="a_edge27_Node000017_Node000027"><a xlink:title=" ">
<path fill="none" stroke="#63b8ff" d="M772.05,-149.83C762.4,-150.32 752.67,-150.82 743.47,-151.29"/>
<polygon fill="#63b8ff" stroke="#63b8ff" points="772,-153.34 781.81,-149.33 771.64,-146.34 772,-153.34"/>
</a>
</g>
</g>
<!-- Node32 -->
<g id="Node000032" class="node">
<title>Node32</title>
<g id="a_Node000032"><a xlink:href="a00425.html#a4bd4ee75c4f2ea14034626c7cbf73bb4" target="_top" xlink:title=" ">
<polygon fill="white" stroke="#666666" points="747.5,-70 631,-70 631,-50 747.5,-50 747.5,-70"/>
<text text-anchor="middle" x="689.25" y="-56.5" font-family="Helvetica,sans-Serif" font-size="10.00">LibLoader::wakeLoader</text>
</a>
</g>
</g>
<!-- Node17&#45;&gt;Node32 -->
<g id="edge33_Node000017_Node000032" class="edge">
<title>Node17&#45;&gt;Node32</title>
<g id="a_edge33_Node000017_Node000032"><a xlink:title=" ">
<path fill="none" stroke="#63b8ff" d="M819.2,-129.8C807.93,-123.03 794.92,-114.9 783.5,-107 766.83,-95.46 765.38,-88.55 747.5,-79 741.4,-75.74 734.65,-72.9 727.97,-70.48"/>
<polygon fill="#63b8ff" stroke="#63b8ff" points="817.27,-132.73 827.66,-134.82 820.85,-126.71 817.27,-132.73"/>
</a>
</g>
</g>
<!-- Node18&#45;&gt;Node15 -->
<g id="edge18_Node000018_Node000015" class="edge">
<title>Node18&#45;&gt;Node15</title>
<g id="a_edge18_Node000018_Node000015"><a xlink:title=" ">
<path fill="none" stroke="#63b8ff" d="M744.72,-36.47C841.62,-72.88 1042.1,-148.2 1130.79,-181.53"/>
<polygon fill="#63b8ff" stroke="#63b8ff" points="746,-33.21 735.41,-32.97 743.54,-39.76 746,-33.21"/>
</a>
</g>
</g>
<!-- Node20 -->
<g id="Node000020" class="node">
<title>Node20</title>
<g id="a_Node000020"><a xlink:href="a00916.html#a14895bee64bb1c12e16b97d038b699b7" target="_top" xlink:title="这部分是一些工具函数、对象">
<polygon fill="white" stroke="#666666" points="565.75,-120 468.75,-120 468.75,-88 565.75,-88 565.75,-120"/>
<text text-anchor="start" x="476.75" y="-106.5" font-family="Helvetica,sans-Serif" font-size="10.00">LibLoader::Plugin::</text>
<text text-anchor="middle" x="517.25" y="-94.5" font-family="Helvetica,sans-Serif" font-size="10.00">callEntrance</text>
</a>
</g>
</g>
<!-- Node19&#45;&gt;Node20 -->
<g id="edge20_Node000019_Node000020" class="edge">
<title>Node19&#45;&gt;Node20</title>
<g id="a_edge20_Node000019_Node000020"><a xlink:title=" ">
<path fill="none" stroke="#63b8ff" d="M627.37,-104C607.26,-104 585.18,-104 566.18,-104"/>
<polygon fill="#63b8ff" stroke="#63b8ff" points="627.11,-107.5 637.11,-104 627.11,-100.5 627.11,-107.5"/>
</a>
</g>
</g>
<!-- Node21 -->
<g id="Node000021" class="node">
<title>Node21</title>
<g id="a_Node000021"><a xlink:href="a00916.html#a450c1c6820ab6c5417691359d88d8220" target="_top" xlink:title=" ">
<polygon fill="white" stroke="#666666" points="383.25,-120 286.25,-120 286.25,-88 383.25,-88 383.25,-120"/>
<text text-anchor="start" x="294.25" y="-106.5" font-family="Helvetica,sans-Serif" font-size="10.00">LibLoader::Plugin::</text>
<text text-anchor="middle" x="334.75" y="-94.5" font-family="Helvetica,sans-Serif" font-size="10.00">enableInternal</text>
</a>
</g>
</g>
<!-- Node20&#45;&gt;Node21 -->
<g id="edge21_Node000020_Node000021" class="edge">
<title>Node20&#45;&gt;Node21</title>
<g id="a_edge21_Node000020_Node000021"><a xlink:title=" ">
<path fill="none" stroke="#63b8ff" d="M456.96,-104C433.15,-104 406.07,-104 383.56,-104"/>
<polygon fill="#63b8ff" stroke="#63b8ff" points="456.84,-107.5 466.84,-104 456.84,-100.5 456.84,-107.5"/>
</a>
</g>
</g>
<!-- Node22 -->
<g id="Node000022" class="node">
<title>Node22</title>
<g id="a_Node000022"><a xlink:href="a00916.html#a549e3729f8aeb27208ef5aecb434eef1" target="_top" xlink:title=" ">
<polygon fill="white" stroke="#666666" points="230,-73 133,-73 133,-41 230,-41 230,-73"/>
<text text-anchor="start" x="141" y="-59.5" font-family="Helvetica,sans-Serif" font-size="10.00">LibLoader::Plugin::</text>
<text text-anchor="middle" x="181.5" y="-47.5" font-family="Helvetica,sans-Serif" font-size="10.00">enablePlugin</text>
</a>
</g>
</g>
<!-- Node21&#45;&gt;Node22 -->
<g id="edge22_Node000021_Node000022" class="edge">
<title>Node21&#45;&gt;Node22</title>
<g id="a_edge22_Node000021_Node000022"><a xlink:title=" ">
<path fill="none" stroke="#63b8ff" d="M275.26,-85.83C260.39,-81.2 244.58,-76.29 230.3,-71.85"/>
<polygon fill="#63b8ff" stroke="#63b8ff" points="273.86,-89.05 284.45,-88.68 275.94,-82.37 273.86,-89.05"/>
</a>
</g>
</g>
<!-- Node23 -->
<g id="Node000023" class="node">
<title>Node23</title>
<g id="a_Node000023"><a xlink:href="a00916.html#a8636d0418d741a19bbd9183316cd5c59" target="_top" xlink:title=" ">
<polygon fill="white" stroke="#666666" points="230,-123 133,-123 133,-91 230,-91 230,-123"/>
<text text-anchor="start" x="141" y="-109.5" font-family="Helvetica,sans-Serif" font-size="10.00">LibLoader::Plugin::</text>
<text text-anchor="middle" x="181.5" y="-97.5" font-family="Helvetica,sans-Serif" font-size="10.00">loadInternal</text>
</a>
</g>
</g>
<!-- Node21&#45;&gt;Node23 -->
<g id="edge23_Node000021_Node000023" class="edge">
<title>Node21&#45;&gt;Node23</title>
<g id="a_edge23_Node000021_Node000023"><a xlink:title=" ">
<path fill="none" stroke="#63b8ff" d="M274.39,-105.18C259.77,-105.47 244.3,-105.77 230.3,-106.05"/>
<polygon fill="#63b8ff" stroke="#63b8ff" points="274.45,-108.68 284.38,-104.98 274.31,-101.68 274.45,-108.68"/>
</a>
</g>
</g>
<!-- Node24 -->
<g id="Node000024" class="node">
<title>Node24</title>
<g id="a_Node000024"><a xlink:href="a00916.html#a891ce42f23fe1312ef6cad2accf4ab92" target="_top" xlink:title=" ">
<polygon fill="white" stroke="#666666" points="97,-123 0,-123 0,-91 97,-91 97,-123"/>
<text text-anchor="start" x="8" y="-109.5" font-family="Helvetica,sans-Serif" font-size="10.00">LibLoader::Plugin::</text>
<text text-anchor="middle" x="48.5" y="-97.5" font-family="Helvetica,sans-Serif" font-size="10.00">loadPlugin</text>
</a>
</g>
</g>
<!-- Node23&#45;&gt;Node24 -->
<g id="edge24_Node000023_Node000024" class="edge">
<title>Node23&#45;&gt;Node24</title>
<g id="a_edge24_Node000023_Node000024"><a xlink:title=" ">
<path fill="none" stroke="#63b8ff" d="M121.53,-107C113.44,-107 105.21,-107 97.35,-107"/>
<polygon fill="#63b8ff" stroke="#63b8ff" points="121.32,-110.5 131.32,-107 121.32,-103.5 121.32,-110.5"/>
</a>
</g>
</g>
<!-- Node26 -->
<g id="Node000026" class="node">
<title>Node26</title>
<g id="a_Node000026"><a xlink:href="a00314.html#a054b75b2be22897678d22ce9a72d91df" target="_top" xlink:title=" ">
<polygon fill="white" stroke="#666666" points="555.25,-208 479.25,-208 479.25,-188 555.25,-188 555.25,-208"/>
<text text-anchor="middle" x="517.25" y="-194.5" font-family="Helvetica,sans-Serif" font-size="10.00">PluginDisable</text>
</a>
</g>
</g>
<!-- Node25&#45;&gt;Node26 -->
<g id="edge26_Node000025_Node000026" class="edge">
<title>Node25&#45;&gt;Node26</title>
<g id="a_edge26_Node000025_Node000026"><a xlink:title=" ">
<path fill="none" stroke="#63b8ff" d="M630.33,-198C605.58,-198 577.41,-198 555.5,-198"/>
<polygon fill="#63b8ff" stroke="#63b8ff" points="630.28,-201.5 640.28,-198 630.28,-194.5 630.28,-201.5"/>
</a>
</g>
</g>
<!-- Node28 -->
<g id="Node000028" class="node">
<title>Node28</title>
<g id="a_Node000028"><a xlink:href="a00426.html#a05f1524120bb7a5a65abbde063d9e557" target="_top" xlink:title=" ">
<polygon fill="white" stroke="#666666" points="571,-170 463.5,-170 463.5,-138 571,-138 571,-170"/>
<text text-anchor="start" x="471.5" y="-156.5" font-family="Helvetica,sans-Serif" font-size="10.00">LibLoader::LoaderApi</text>
<text text-anchor="middle" x="517.25" y="-144.5" font-family="Helvetica,sans-Serif" font-size="10.00">::timer</text>
</a>
</g>
</g>
<!-- Node27&#45;&gt;Node28 -->
<g id="edge28_Node000027_Node000028" class="edge">
<title>Node27&#45;&gt;Node28</title>
<g id="a_edge28_Node000027_Node000028"><a xlink:title=" ">
<path fill="none" stroke="#63b8ff" d="M624.17,-154C606.76,-154 588.1,-154 571.37,-154"/>
<polygon fill="#63b8ff" stroke="#63b8ff" points="623.88,-157.5 633.88,-154 623.88,-150.5 623.88,-157.5"/>
</a>
</g>
</g>
<!-- Node29 -->
<g id="Node000029" class="node">
<title>Node29</title>
<g id="a_Node000029"><a xlink:href="a00412.html#a0edd1fee858de73bb144b4f7832a573d" target="_top" xlink:title="定时任务, 在一定时间后广播**一次**TimeOutEvent">
<polygon fill="white" stroke="#666666" points="382.88,-164 286.62,-164 286.62,-144 382.88,-144 382.88,-164"/>
<text text-anchor="middle" x="334.75" y="-150.5" font-family="Helvetica,sans-Serif" font-size="10.00">MiraiCP::schedule</text>
</a>
</g>
</g>
<!-- Node28&#45;&gt;Node29 -->
<g id="edge29_Node000028_Node000029" class="edge">
<title>Node28&#45;&gt;Node29</title>
<g id="a_edge29_Node000028_Node000029"><a xlink:title=" ">
<path fill="none" stroke="#63b8ff" d="M451.85,-154C429.25,-154 404.3,-154 383.33,-154"/>
<polygon fill="#63b8ff" stroke="#63b8ff" points="451.56,-157.5 461.56,-154 451.56,-150.5 451.56,-157.5"/>
</a>
</g>
</g>
<!-- Node31 -->
<g id="Node000031" class="node">
<title>Node31</title>
<g id="a_Node000031"><a xlink:href="a00431.html#ac6360f8f60a063ca92ee816f65a8a2a1" target="_top" xlink:title=" ">
<polygon fill="white" stroke="#666666" points="403.5,-252 266,-252 266,-220 403.5,-220 403.5,-252"/>
<text text-anchor="start" x="274" y="-238.5" font-family="Helvetica,sans-Serif" font-size="10.00">LibLoader::MessageHandler</text>
<text text-anchor="middle" x="334.75" y="-226.5" font-family="Helvetica,sans-Serif" font-size="10.00">::timer_message</text>
</a>
</g>
</g>
<!-- Node28&#45;&gt;Node31 -->
<g id="edge31_Node000028_Node000031" class="edge">
<title>Node28&#45;&gt;Node31</title>
<g id="a_edge31_Node000028_Node000031"><a xlink:title=" ">
<path fill="none" stroke="#63b8ff" d="M452.73,-173.65C448.22,-175.36 443.77,-177.15 439.5,-179 412.34,-190.76 382.91,-207.32 362.35,-219.57"/>
<polygon fill="#63b8ff" stroke="#63b8ff" points="453.71,-177.02 461.91,-170.31 451.31,-170.44 453.71,-177.02"/>
</a>
</g>
</g>
<!-- Node30 -->
<g id="Node000030" class="node">
<title>Node30</title>
<g id="a_Node000030"><a xlink:href="a00412.html#a9d9b304caa9cf25c6f148b99ee9651f6" target="_top" xlink:title="定时任务, 在一定时间后广播**一次**TimeOutEvent，chrono重载">
<polygon fill="white" stroke="#666666" points="229.62,-164 133.38,-164 133.38,-144 229.62,-144 229.62,-164"/>
<text text-anchor="middle" x="181.5" y="-150.5" font-family="Helvetica,sans-Serif" font-size="10.00">MiraiCP::schedule</text>
</a>
</g>
</g>
<!-- Node29&#45;&gt;Node30 -->
<g id="edge30_Node000029_Node000030" class="edge">
<title>Node29&#45;&gt;Node30</title>
<g id="a_edge30_Node000029_Node000030"><a xlink:title=" ">
<path fill="none" stroke="#63b8ff" d="M275.12,-154C260.19,-154 244.33,-154 230.03,-154"/>
<polygon fill="#63b8ff" stroke="#63b8ff" points="274.8,-157.5 284.79,-154 274.79,-150.5 274.8,-157.5"/>
</a>
</g>
</g>
<!-- Node31&#45;&gt;Node13 -->
<g id="edge32_Node000031_Node000013" class="edge">
<title>Node31&#45;&gt;Node13</title>
<g id="a_edge32_Node000031_Node000013"><a xlink:title=" ">
<path fill="none" stroke="#63b8ff" d="M414.87,-249.44C486.14,-260.37 593.89,-274 688.25,-274 1176.62,-274 1176.62,-274 1176.62,-274 1285.61,-274 1409.58,-236.84 1474.29,-214.49"/>
<polygon fill="#63b8ff" stroke="#63b8ff" points="415.67,-246.02 405.25,-247.94 414.59,-252.94 415.67,-246.02"/>
</a>
</g>
</g>
<!-- Node33 -->
<g id="Node000033" class="node">
<title>Node33</title>
<g id="a_Node000033"><a xlink:href="a00425.html#afbf560680f6b525ee0240f614a0177b6" target="_top" xlink:title=" ">
<polygon fill="white" stroke="#666666" points="595,-70 439.5,-70 439.5,-50 595,-50 595,-70"/>
<text text-anchor="middle" x="517.25" y="-56.5" font-family="Helvetica,sans-Serif" font-size="10.00">LibLoader::sendPluginException</text>
</a>
</g>
</g>
<!-- Node32&#45;&gt;Node33 -->
<g id="edge34_Node000032_Node000033" class="edge">
<title>Node32&#45;&gt;Node33</title>
<g id="a_edge34_Node000032_Node000033"><a xlink:title=" ">
<path fill="none" stroke="#63b8ff" d="M619.3,-60C611.41,-60 603.33,-60 595.34,-60"/>
<polygon fill="#63b8ff" stroke="#63b8ff" points="619.18,-63.5 629.18,-60 619.18,-56.5 619.18,-63.5"/>
</a>
</g>
</g>
<!-- Node34 -->
<g id="Node000034" class="node">
<title>Node34</title>
<g id="a_Node000034"><a xlink:href="a00425.html#a7ee448e1b260709b6a8d73fa41ec5c15" target="_top" xlink:title=" ">
<polygon fill="white" stroke="#666666" points="587.88,-32 446.62,-32 446.62,-12 587.88,-12 587.88,-32"/>
<text text-anchor="middle" x="517.25" y="-18.5" font-family="Helvetica,sans-Serif" font-size="10.00">LibLoader::sendThreadReset</text>
</a>
</g>
</g>
<!-- Node32&#45;&gt;Node34 -->
<g id="edge35_Node000032_Node000034" class="edge">
<title>Node32&#45;&gt;Node34</title>
<g id="a_edge35_Node000032_Node000034"><a xlink:title=" ">
<path fill="none" stroke="#63b8ff" d="M630.16,-47.02C608.9,-42.26 585.14,-36.95 565,-32.45"/>
<polygon fill="#63b8ff" stroke="#63b8ff" points="629.35,-50.42 639.87,-49.19 630.87,-43.59 629.35,-50.42"/>
</a>
</g>
</g>
<!-- Node36 -->
<g id="Node000036" class="node">
<title>Node36</title>
<g id="a_Node000036"><a xlink:href="a00314.html#a3712cdeefe60fa2a92efa90cd6200b02" target="_top" xlink:title=" ">
<polygon fill="white" stroke="#666666" points="709.62,-246 668.88,-246 668.88,-226 709.62,-226 709.62,-246"/>
<text text-anchor="middle" x="689.25" y="-232.5" font-family="Helvetica,sans-Serif" font-size="10.00">Verify</text>
</a>
</g>
</g>
<!-- Node35&#45;&gt;Node36 -->
<g id="edge38_Node000035_Node000036" class="edge">
<title>Node35&#45;&gt;Node36</title>
<g id="a_edge38_Node000035_Node000036"><a xlink:title=" ">
<path fill="none" stroke="#63b8ff" d="M806.64,-236C775.53,-236 733.93,-236 709.81,-236"/>
<polygon fill="#63b8ff" stroke="#63b8ff" points="806.47,-239.5 816.47,-236 806.47,-232.5 806.47,-239.5"/>
</a>
</g>
</g>
<!-- Node39 -->
<g id="Node000039" class="node">
<title>Node39</title>
<g id="a_Node000039"><a xlink:href="a00880.html#aa2dac3324ec614040340dcb2a5c76110" target="_top" xlink:title=" ">
<polygon fill="white" stroke="#666666" points="1577.12,-102 1462.88,-102 1462.88,-70 1577.12,-70 1577.12,-102"/>
<text text-anchor="start" x="1470.88" y="-88.5" font-family="Helvetica,sans-Serif" font-size="10.00">LibLoader::LoaderMain</text>
<text text-anchor="middle" x="1520" y="-76.5" font-family="Helvetica,sans-Serif" font-size="10.00">::tick</text>
</a>
</g>
</g>
<!-- Node38&#45;&gt;Node39 -->
<g id="edge42_Node000038_Node000039" class="edge">
<title>Node38&#45;&gt;Node39</title>
<g id="a_edge42_Node000038_Node000039"><a xlink:title=" ">
<path fill="none" stroke="#63b8ff" d="M1791.94,-86C1729.04,-86 1636.44,-86 1577.43,-86"/>
<polygon fill="#63b8ff" stroke="#63b8ff" points="1791.81,-89.5 1801.81,-86 1791.81,-82.5 1791.81,-89.5"/>
</a>
</g>
</g>
<!-- Node39&#45;&gt;Node18 -->
<g id="edge43_Node000039_Node000018" class="edge">
<title>Node39&#45;&gt;Node18</title>
<g id="a_edge43_Node000039_Node000018"><a xlink:title=" ">
<path fill="none" stroke="#63b8ff" d="M1452.17,-66.57C1383.62,-48.39 1273.62,-24 1176.62,-24 1176.62,-24 1176.62,-24 1014.62,-24 920.69,-24 811.5,-20.61 746.79,-18.24"/>
<polygon fill="#63b8ff" stroke="#63b8ff" points="1451.19,-69.94 1461.76,-69.15 1453.01,-63.18 1451.19,-69.94"/>
</a>
</g>
</g>
<!-- Node43&#45;&gt;Node8 -->
<g id="edge48_Node000043_Node000008" class="edge">
<title>Node43&#45;&gt;Node8</title>
<g id="a_edge48_Node000043_Node000008"><a xlink:title=" ">
<path fill="none" stroke="#63b8ff" d="M2440.98,-61C2433.07,-61 2424.93,-61 2416.94,-61"/>
<polygon fill="#63b8ff" stroke="#63b8ff" points="2440.84,-64.5 2450.84,-61 2440.84,-57.5 2440.84,-64.5"/>
</a>
</g>
</g>
</g>
</svg>
