<?xml version="1.0" encoding="UTF-8" standalone="no"?>
<!DOCTYPE svg PUBLIC "-//W3C//DTD SVG 1.1//EN"
 "http://www.w3.org/Graphics/SVG/1.1/DTD/svg11.dtd">
<!-- Generated by graphviz version 9.0.0 (0)
 -->
<!-- Title: Antares::ThreadPoolBase::wait_for_tasks Pages: 1 -->
<svg width="300pt" height="90pt"
 viewBox="0.00 0.00 299.50 90.00" xmlns="http://www.w3.org/2000/svg" xmlns:xlink="http://www.w3.org/1999/xlink">
<g id="graph0" class="graph" transform="scale(1 1) rotate(0) translate(4 86)">
<title>Antares::ThreadPoolBase::wait_for_tasks</title>
<!-- Node1 -->
<g id="Node000001" class="node">
<title>Node1</title>
<g id="a_Node000001"><a xlink:title="a bad design, should avoid calling this">
<polygon fill="#999999" stroke="#666666" points="127.75,-57 0,-57 0,-25 127.75,-25 127.75,-57"/>
<text text-anchor="start" x="8" y="-43.5" font-family="Helvetica,sans-Serif" font-size="10.00">Antares::ThreadPoolBase</text>
<text text-anchor="middle" x="63.88" y="-31.5" font-family="Helvetica,sans-Serif" font-size="10.00">::wait_for_tasks</text>
</a>
</g>
</g>
<!-- Node2 -->
<g id="Node000002" class="node">
<title>Node2</title>
<g id="a_Node000002"><a xlink:href="a00944.html#a1423f5d4a8e8e063908b58a47787d5ce" target="_top" xlink:title=" ">
<polygon fill="white" stroke="#666666" points="291.5,-82 163.75,-82 163.75,-50 291.5,-50 291.5,-82"/>
<text text-anchor="start" x="171.75" y="-68.5" font-family="Helvetica,sans-Serif" font-size="10.00">Antares::ThreadPoolBase</text>
<text text-anchor="middle" x="227.62" y="-56.5" font-family="Helvetica,sans-Serif" font-size="10.00">::get_tasks_total</text>
</a>
</g>
</g>
<!-- Node1&#45;&gt;Node2 -->
<g id="edge1_Node000001_Node000002" class="edge">
<title>Node1&#45;&gt;Node2</title>
<g id="a_edge1_Node000001_Node000002"><a xlink:title=" ">
<path fill="none" stroke="#63b8ff" d="M127.87,-50.74C135.77,-51.96 143.91,-53.22 151.97,-54.46"/>
<polygon fill="#63b8ff" stroke="#63b8ff" points="151.35,-57.91 161.77,-55.98 152.42,-50.99 151.35,-57.91"/>
</a>
</g>
</g>
<!-- Node3 -->
<g id="Node000003" class="node">
<title>Node3</title>
<g id="a_Node000003"><a xlink:href="a00944.html#af339bef805e095f0fe01cc3e41d14c23" target="_top" xlink:title=" ">
<polygon fill="white" stroke="#666666" points="291.5,-32 163.75,-32 163.75,0 291.5,0 291.5,-32"/>
<text text-anchor="start" x="171.75" y="-18.5" font-family="Helvetica,sans-Serif" font-size="10.00">Antares::ThreadPoolBase</text>
<text text-anchor="middle" x="227.62" y="-6.5" font-family="Helvetica,sans-Serif" font-size="10.00">::is_paused</text>
</a>
</g>
</g>
<!-- Node1&#45;&gt;Node3 -->
<g id="edge2_Node000001_Node000003" class="edge">
<title>Node1&#45;&gt;Node3</title>
<g id="a_edge2_Node000001_Node000003"><a xlink:title=" ">
<path fill="none" stroke="#63b8ff" d="M127.87,-31.26C135.77,-30.04 143.91,-28.78 151.97,-27.54"/>
<polygon fill="#63b8ff" stroke="#63b8ff" points="152.42,-31.01 161.77,-26.02 151.35,-24.09 152.42,-31.01"/>
</a>
</g>
</g>
</g>
</svg>
