<?xml version="1.0" encoding="UTF-8" standalone="no"?>
<!DOCTYPE svg PUBLIC "-//W3C//DTD SVG 1.1//EN"
 "http://www.w3.org/Graphics/SVG/1.1/DTD/svg11.dtd">
<!-- Generated by graphviz version 9.0.0 (0)
 -->
<!-- Title: Antares::ThreadPoolBase Pages: 1 -->
<svg width="482pt" height="484pt"
 viewBox="0.00 0.00 482.00 484.00" xmlns="http://www.w3.org/2000/svg" xmlns:xlink="http://www.w3.org/1999/xlink">
<g id="graph0" class="graph" transform="scale(1 1) rotate(0) translate(4 480)">
<title>Antares::ThreadPoolBase</title>
<!-- Node1 -->
<g id="Node000001" class="node">
<title>Node1</title>
<g id="a_Node000001"><a xlink:title=" ">
<polygon fill="#999999" stroke="none" points="277,-340 150,-340 150,0 277,0 277,-340"/>
<text text-anchor="start" x="157.62" y="-326.5" font-family="Helvetica,sans-Serif" font-size="10.00">Antares::ThreadPoolBase</text>
<text text-anchor="start" x="212" y="-310.5" font-family="Helvetica,sans-Serif" font-size="10.00"> </text>
<text text-anchor="start" x="154" y="-294.5" font-family="Helvetica,sans-Serif" font-size="10.00">+</text>
<text text-anchor="start" x="164" y="-294.5" font-family="Helvetica,sans-Serif" font-size="10.00">ThreadPoolBase()</text>
<text text-anchor="start" x="154" y="-278.5" font-family="Helvetica,sans-Serif" font-size="10.00">+</text>
<text text-anchor="start" x="164" y="-278.5" font-family="Helvetica,sans-Serif" font-size="10.00">~ThreadPoolBase()</text>
<text text-anchor="start" x="164" y="-266.5" font-family="Helvetica,sans-Serif" font-size="10.00">=default</text>
<text text-anchor="start" x="154" y="-250.5" font-family="Helvetica,sans-Serif" font-size="10.00">+</text>
<text text-anchor="start" x="164" y="-250.5" font-family="Helvetica,sans-Serif" font-size="10.00">void wait_for_tasks()</text>
<text text-anchor="start" x="154" y="-234.5" font-family="Helvetica,sans-Serif" font-size="10.00">+</text>
<text text-anchor="start" x="164" y="-234.5" font-family="Helvetica,sans-Serif" font-size="10.00">void pause()</text>
<text text-anchor="start" x="154" y="-218.5" font-family="Helvetica,sans-Serif" font-size="10.00">+</text>
<text text-anchor="start" x="164" y="-218.5" font-family="Helvetica,sans-Serif" font-size="10.00">size_t get_tasks_total</text>
<text text-anchor="start" x="164" y="-206.5" font-family="Helvetica,sans-Serif" font-size="10.00">() const</text>
<text text-anchor="start" x="154" y="-190.5" font-family="Helvetica,sans-Serif" font-size="10.00">+</text>
<text text-anchor="start" x="164" y="-190.5" font-family="Helvetica,sans-Serif" font-size="10.00">size_t get_tasks_queued</text>
<text text-anchor="start" x="164" y="-178.5" font-family="Helvetica,sans-Serif" font-size="10.00">() const</text>
<text text-anchor="start" x="154" y="-162.5" font-family="Helvetica,sans-Serif" font-size="10.00">+</text>
<text text-anchor="start" x="164" y="-162.5" font-family="Helvetica,sans-Serif" font-size="10.00">size_t get_tasks_running</text>
<text text-anchor="start" x="164" y="-150.5" font-family="Helvetica,sans-Serif" font-size="10.00">() const</text>
<text text-anchor="start" x="154" y="-134.5" font-family="Helvetica,sans-Serif" font-size="10.00">+</text>
<text text-anchor="start" x="164" y="-134.5" font-family="Helvetica,sans-Serif" font-size="10.00">bool is_paused() const</text>
<text text-anchor="start" x="154" y="-118.5" font-family="Helvetica,sans-Serif" font-size="10.00">+</text>
<text text-anchor="start" x="164" y="-118.5" font-family="Helvetica,sans-Serif" font-size="10.00">void unpause()</text>
<text text-anchor="start" x="154" y="-102.5" font-family="Helvetica,sans-Serif" font-size="10.00">+</text>
<text text-anchor="start" x="164" y="-102.5" font-family="Helvetica,sans-Serif" font-size="10.00">void setThreadIndex()</text>
<text text-anchor="start" x="154" y="-86.5" font-family="Helvetica,sans-Serif" font-size="10.00">+</text>
<text text-anchor="start" x="164" y="-86.5" font-family="Helvetica,sans-Serif" font-size="10.00">static size_t &amp; getThread</text>
<text text-anchor="start" x="164" y="-74.5" font-family="Helvetica,sans-Serif" font-size="10.00">Index()</text>
<text text-anchor="start" x="154.38" y="-58.5" font-family="Helvetica,sans-Serif" font-size="10.00">#</text>
<text text-anchor="start" x="164" y="-58.5" font-family="Helvetica,sans-Serif" font-size="10.00">void worker()</text>
<text text-anchor="start" x="154.38" y="-42.5" font-family="Helvetica,sans-Serif" font-size="10.00">#</text>
<text text-anchor="start" x="164" y="-42.5" font-family="Helvetica,sans-Serif" font-size="10.00">static concurrency</text>
<text text-anchor="start" x="164" y="-30.5" font-family="Helvetica,sans-Serif" font-size="10.00">_t determine_thread</text>
<text text-anchor="start" x="164" y="-18.5" font-family="Helvetica,sans-Serif" font-size="10.00">_count(concurrency_t</text>
<text text-anchor="start" x="164" y="-6.5" font-family="Helvetica,sans-Serif" font-size="10.00"> thread_count_)</text>
<polygon fill="#666666" stroke="#666666" points="150,-322 150,-322 277,-322 277,-322 150,-322"/>
<polygon fill="#666666" stroke="#666666" points="150,-306 150,-306 277,-306 277,-306 150,-306"/>
<polygon fill="none" stroke="#666666" points="150,0 150,-340 277,-340 277,0 150,0"/>
</a>
</g>
</g>
<!-- Node2 -->
<g id="Node000002" class="node">
<title>Node2</title>
<g id="a_Node000002"><a xlink:title=" ">
<polygon fill="white" stroke="none" points="37,-470 0,-470 0,-418 37,-418 37,-470"/>
<text text-anchor="start" x="5" y="-456.5" font-family="Helvetica,sans-Serif" font-size="10.00">mutex</text>
<text text-anchor="start" x="17" y="-440.5" font-family="Helvetica,sans-Serif" font-size="10.00"> </text>
<text text-anchor="start" x="17" y="-424.5" font-family="Helvetica,sans-Serif" font-size="10.00"> </text>
<polygon fill="#666666" stroke="#666666" points="0,-452 0,-452 37,-452 37,-452 0,-452"/>
<polygon fill="#666666" stroke="#666666" points="0,-436 0,-436 37,-436 37,-436 0,-436"/>
<polygon fill="none" stroke="#666666" points="0,-418 0,-470 37,-470 37,-418 0,-418"/>
</a>
</g>
</g>
<!-- Node2&#45;&gt;Node1 -->
<g id="edge1_Node000001_Node000002" class="edge">
<title>Node2&#45;&gt;Node1</title>
<g id="a_edge1_Node000001_Node000002"><a xlink:title=" ">
<path fill="none" stroke="#63b8ff" d="M31.2,-418.23C40.37,-400.95 53.39,-377.57 66.5,-358 89.62,-323.48 117.27,-287.21 142.32,-255.9"/>
<polygon fill="none" stroke="#63b8ff" points="142.27,-255.96 142.91,-248.78 149.79,-246.61 149.15,-253.8 142.27,-255.96"/>
</a>
</g>
<text text-anchor="middle" x="93.5" y="-372.5" font-family="Helvetica,sans-Serif" font-size="10.00" fill="grey"> #tasks_mtx</text>
</g>
<!-- Node3 -->
<g id="Node000003" class="node">
<title>Node3</title>
<g id="a_Node000003"><a xlink:title=" ">
<polygon fill="white" stroke="none" points="154,-476 55,-476 55,-412 154,-412 154,-476"/>
<text text-anchor="start" x="59.88" y="-462.5" font-family="Helvetica,sans-Serif" font-size="10.00">queue&lt; std::function</text>
<text text-anchor="start" x="80.5" y="-450.5" font-family="Helvetica,sans-Serif" font-size="10.00">&lt; void()&gt; &gt;</text>
<text text-anchor="start" x="103" y="-434.5" font-family="Helvetica,sans-Serif" font-size="10.00"> </text>
<text text-anchor="start" x="103" y="-418.5" font-family="Helvetica,sans-Serif" font-size="10.00"> </text>
<polygon fill="#666666" stroke="#666666" points="55,-446 55,-446 154,-446 154,-446 55,-446"/>
<polygon fill="#666666" stroke="#666666" points="55,-430 55,-430 154,-430 154,-430 55,-430"/>
<polygon fill="none" stroke="#666666" points="55,-412 55,-476 154,-476 154,-412 55,-412"/>
</a>
</g>
</g>
<!-- Node3&#45;&gt;Node1 -->
<g id="edge2_Node000001_Node000003" class="edge">
<title>Node3&#45;&gt;Node1</title>
<g id="a_edge2_Node000001_Node000003"><a xlink:title=" ">
<path fill="none" stroke="#63b8ff" d="M116.9,-412.06C124.34,-393.48 134.47,-368.21 145.37,-341"/>
<polygon fill="none" stroke="#63b8ff" points="145.29,-341.21 143.81,-334.16 149.75,-330.08 151.23,-337.13 145.29,-341.21"/>
</a>
</g>
<text text-anchor="middle" x="152.62" y="-372.5" font-family="Helvetica,sans-Serif" font-size="10.00" fill="grey"> #tasks</text>
</g>
<!-- Node4 -->
<g id="Node000004" class="node">
<title>Node4</title>
<g id="a_Node000004"><a xlink:title=" ">
<polygon fill="white" stroke="none" points="260.5,-470 172.5,-470 172.5,-418 260.5,-418 260.5,-470"/>
<text text-anchor="start" x="177.5" y="-456.5" font-family="Helvetica,sans-Serif" font-size="10.00">condition_variable</text>
<text text-anchor="start" x="215" y="-440.5" font-family="Helvetica,sans-Serif" font-size="10.00"> </text>
<text text-anchor="start" x="215" y="-424.5" font-family="Helvetica,sans-Serif" font-size="10.00"> </text>
<polygon fill="#666666" stroke="#666666" points="172.5,-452 172.5,-452 260.5,-452 260.5,-452 172.5,-452"/>
<polygon fill="#666666" stroke="#666666" points="172.5,-436 172.5,-436 260.5,-436 260.5,-436 172.5,-436"/>
<polygon fill="none" stroke="#666666" points="172.5,-418 172.5,-470 260.5,-470 260.5,-418 172.5,-418"/>
</a>
</g>
</g>
<!-- Node4&#45;&gt;Node1 -->
<g id="edge3_Node000001_Node000004" class="edge">
<title>Node4&#45;&gt;Node1</title>
<g id="a_edge3_Node000001_Node000004"><a xlink:title=" ">
<path fill="none" stroke="#63b8ff" d="M215.15,-418.08C214.79,-410.36 214.44,-401.83 214.25,-394 213.92,-380.59 213.67,-366.73 213.47,-352.78"/>
<polygon fill="none" stroke="#63b8ff" points="213.47,-352.85 209.4,-346.9 213.32,-340.85 217.4,-346.8 213.47,-352.85"/>
</a>
</g>
<text text-anchor="middle" x="256.62" y="-378.5" font-family="Helvetica,sans-Serif" font-size="10.00" fill="grey"> #task_available_cv</text>
<text text-anchor="middle" x="256.62" y="-366.5" font-family="Helvetica,sans-Serif" font-size="10.00" fill="grey">#task_done_cv</text>
</g>
<!-- Node5 -->
<g id="Node000005" class="node">
<title>Node5</title>
<g id="a_Node000005"><a xlink:title=" ">
<polygon fill="white" stroke="none" points="364,-470 281,-470 281,-418 364,-418 364,-470"/>
<text text-anchor="start" x="285.75" y="-456.5" font-family="Helvetica,sans-Serif" font-size="10.00">atomic&lt; size_t &gt;</text>
<text text-anchor="start" x="321" y="-440.5" font-family="Helvetica,sans-Serif" font-size="10.00"> </text>
<text text-anchor="start" x="321" y="-424.5" font-family="Helvetica,sans-Serif" font-size="10.00"> </text>
<polygon fill="#666666" stroke="#666666" points="281,-452 281,-452 364,-452 364,-452 281,-452"/>
<polygon fill="#666666" stroke="#666666" points="281,-436 281,-436 364,-436 364,-436 281,-436"/>
<polygon fill="none" stroke="#666666" points="281,-418 281,-470 364,-470 364,-418 281,-418"/>
</a>
</g>
</g>
<!-- Node5&#45;&gt;Node1 -->
<g id="edge4_Node000001_Node000005" class="edge">
<title>Node5&#45;&gt;Node1</title>
<g id="a_edge4_Node000001_Node000005"><a xlink:title=" ">
<path fill="none" stroke="#63b8ff" d="M317.31,-418.09C313.44,-400.95 307.6,-377.8 300.5,-358 295.01,-342.69 288.73,-326.93 282.11,-311.35"/>
<polygon fill="none" stroke="#63b8ff" points="282.1,-311.34 276.05,-307.41 277.35,-300.32 283.4,-304.24 282.1,-311.34"/>
</a>
</g>
<text text-anchor="middle" x="355.88" y="-378.5" font-family="Helvetica,sans-Serif" font-size="10.00" fill="grey"> #tasks_total</text>
<text text-anchor="middle" x="355.88" y="-366.5" font-family="Helvetica,sans-Serif" font-size="10.00" fill="grey">#threadIndexCounter</text>
</g>
<!-- Node6 -->
<g id="Node000006" class="node">
<title>Node6</title>
<g id="a_Node000006"><a xlink:title=" ">
<polygon fill="white" stroke="none" points="474,-470 399,-470 399,-418 474,-418 474,-470"/>
<text text-anchor="start" x="403.88" y="-456.5" font-family="Helvetica,sans-Serif" font-size="10.00">atomic&lt; bool &gt;</text>
<text text-anchor="start" x="435" y="-440.5" font-family="Helvetica,sans-Serif" font-size="10.00"> </text>
<text text-anchor="start" x="435" y="-424.5" font-family="Helvetica,sans-Serif" font-size="10.00"> </text>
<polygon fill="#666666" stroke="#666666" points="399,-452 399,-452 474,-452 474,-452 399,-452"/>
<polygon fill="#666666" stroke="#666666" points="399,-436 399,-436 474,-436 474,-436 399,-436"/>
<polygon fill="none" stroke="#666666" points="399,-418 399,-470 474,-470 474,-418 399,-418"/>
</a>
</g>
</g>
<!-- Node6&#45;&gt;Node1 -->
<g id="edge5_Node000001_Node000006" class="edge">
<title>Node6&#45;&gt;Node1</title>
<g id="a_edge5_Node000001_Node000006"><a xlink:title=" ">
<path fill="none" stroke="#63b8ff" d="M430.64,-418.21C425.71,-400.49 417.53,-376.6 405.5,-358 373.58,-308.66 326.43,-262.49 286.84,-228.37"/>
<polygon fill="none" stroke="#63b8ff" points="286.78,-228.32 279.61,-227.48 277.63,-220.54 284.8,-221.38 286.78,-228.32"/>
</a>
</g>
<text text-anchor="middle" x="442.38" y="-384.5" font-family="Helvetica,sans-Serif" font-size="10.00" fill="grey"> #paused</text>
<text text-anchor="middle" x="442.38" y="-372.5" font-family="Helvetica,sans-Serif" font-size="10.00" fill="grey">#running</text>
<text text-anchor="middle" x="442.38" y="-360.5" font-family="Helvetica,sans-Serif" font-size="10.00" fill="grey">#waiting</text>
</g>
</g>
</svg>
