<?xml version="1.0" encoding="UTF-8" standalone="no"?>
<!DOCTYPE svg PUBLIC "-//W3C//DTD SVG 1.1//EN"
 "http://www.w3.org/Graphics/SVG/1.1/DTD/svg11.dtd">
<!-- Generated by graphviz version 9.0.0 (0)
 -->
<!-- Title: Antares::ThreadPoolDefaultTraits Pages: 1 -->
<svg width="138pt" height="112pt"
 viewBox="0.00 0.00 138.00 112.00" xmlns="http://www.w3.org/2000/svg" xmlns:xlink="http://www.w3.org/1999/xlink">
<g id="graph0" class="graph" transform="scale(1 1) rotate(0) translate(4 108)">
<title>Antares::ThreadPoolDefaultTraits</title>
<!-- Node1 -->
<g id="Node000001" class="node">
<title>Node1</title>
<g id="a_Node000001"><a xlink:title=" ">
<polygon fill="#999999" stroke="none" points="130,-104 0,-104 0,0 130,0 130,-104"/>
<text text-anchor="start" x="4.62" y="-90.5" font-family="Helvetica,sans-Serif" font-size="10.00">Antares::ThreadPoolDefault</text>
<text text-anchor="start" x="52.62" y="-78.5" font-family="Helvetica,sans-Serif" font-size="10.00">Traits</text>
<text text-anchor="start" x="63.5" y="-62.5" font-family="Helvetica,sans-Serif" font-size="10.00"> </text>
<text text-anchor="start" x="10.5" y="-46.5" font-family="Helvetica,sans-Serif" font-size="10.00">+</text>
<text text-anchor="start" x="27" y="-46.5" font-family="Helvetica,sans-Serif" font-size="10.00">static void * malloc</text>
<text text-anchor="start" x="27" y="-34.5" font-family="Helvetica,sans-Serif" font-size="10.00">(size_t size)</text>
<text text-anchor="start" x="10.5" y="-18.5" font-family="Helvetica,sans-Serif" font-size="10.00">+</text>
<text text-anchor="start" x="27" y="-18.5" font-family="Helvetica,sans-Serif" font-size="10.00">static void free(void</text>
<text text-anchor="start" x="27" y="-6.5" font-family="Helvetica,sans-Serif" font-size="10.00"> *ptr)</text>
<polygon fill="#666666" stroke="#666666" points="0,-74 0,-74 130,-74 130,-74 0,-74"/>
<polygon fill="#666666" stroke="#666666" points="0,-58 0,-58 130,-58 130,-58 0,-58"/>
<polygon fill="none" stroke="#666666" points="0,0 0,-104 130,-104 130,0 0,0"/>
</a>
</g>
</g>
</g>
</svg>
