<?xml version="1.0" encoding="UTF-8" standalone="no"?>
<!DOCTYPE svg PUBLIC "-//W3C//DTD SVG 1.1//EN"
 "http://www.w3.org/Graphics/SVG/1.1/DTD/svg11.dtd">
<!-- Generated by graphviz version 9.0.0 (0)
 -->
<!-- Title: LibLoader::Plugin::loadNewPlugin Pages: 1 -->
<svg width="1133pt" height="121pt"
 viewBox="0.00 0.00 1132.75 121.00" xmlns="http://www.w3.org/2000/svg" xmlns:xlink="http://www.w3.org/1999/xlink">
<g id="graph0" class="graph" transform="scale(1 1) rotate(0) translate(4 117)">
<title>LibLoader::Plugin::loadNewPlugin</title>
<!-- Node1 -->
<g id="Node000001" class="node">
<title>Node1</title>
<g id="a_Node000001"><a xlink:title=" ">
<polygon fill="#999999" stroke="#666666" points="97,-57 0,-57 0,-25 97,-25 97,-57"/>
<text text-anchor="start" x="8" y="-43.5" font-family="Helvetica,sans-Serif" font-size="10.00">LibLoader::Plugin::</text>
<text text-anchor="middle" x="48.5" y="-31.5" font-family="Helvetica,sans-Serif" font-size="10.00">loadNewPlugin</text>
</a>
</g>
</g>
<!-- Node2 -->
<g id="Node000002" class="node">
<title>Node2</title>
<g id="a_Node000002"><a xlink:href="a00872.html#ae735f16b20f681d29d4e5d28ad248dbe" target="_top" xlink:title=" ">
<polygon fill="white" stroke="#666666" points="255.5,-82 133,-82 133,-50 255.5,-50 255.5,-82"/>
<text text-anchor="start" x="141" y="-68.5" font-family="Helvetica,sans-Serif" font-size="10.00">LibLoader::LoaderLogger</text>
<text text-anchor="middle" x="194.25" y="-56.5" font-family="Helvetica,sans-Serif" font-size="10.00">::error</text>
</a>
</g>
</g>
<!-- Node1&#45;&gt;Node2 -->
<g id="edge1_Node000001_Node000002" class="edge">
<title>Node1&#45;&gt;Node2</title>
<g id="a_edge1_Node000001_Node000002"><a xlink:title=" ">
<path fill="none" stroke="#63b8ff" d="M97.37,-49.32C105.12,-50.67 113.28,-52.09 121.45,-53.51"/>
<polygon fill="#63b8ff" stroke="#63b8ff" points="120.61,-56.92 131.06,-55.18 121.81,-50.02 120.61,-56.92"/>
</a>
</g>
</g>
<!-- Node10 -->
<g id="Node000010" class="node">
<title>Node10</title>
<g id="a_Node000010"><a xlink:href="a00426.html#a7765f4c313a98cf08466f0a6ed291aac" target="_top" xlink:title=" ">
<polygon fill="white" stroke="#666666" points="248,-32 140.5,-32 140.5,0 248,0 248,-32"/>
<text text-anchor="start" x="148.5" y="-18.5" font-family="Helvetica,sans-Serif" font-size="10.00">LibLoader::LoaderApi</text>
<text text-anchor="middle" x="194.25" y="-6.5" font-family="Helvetica,sans-Serif" font-size="10.00">::libOpen</text>
</a>
</g>
</g>
<!-- Node1&#45;&gt;Node10 -->
<g id="edge11_Node000001_Node000010" class="edge">
<title>Node1&#45;&gt;Node10</title>
<g id="a_edge11_Node000001_Node000010"><a xlink:title=" ">
<path fill="none" stroke="#63b8ff" d="M97.37,-32.68C107.44,-30.92 118.23,-29.05 128.8,-27.21"/>
<polygon fill="#63b8ff" stroke="#63b8ff" points="129.4,-30.66 138.65,-25.5 128.2,-23.76 129.4,-30.66"/>
</a>
</g>
</g>
<!-- Node3 -->
<g id="Node000003" class="node">
<title>Node3</title>
<g id="a_Node000003"><a xlink:href="a00872.html#af4d7d5164450e25f7401d1cc15f15b8d" target="_top" xlink:title="实际暴露的接口">
<polygon fill="white" stroke="#666666" points="414,-82 291.5,-82 291.5,-50 414,-50 414,-82"/>
<text text-anchor="start" x="299.5" y="-68.5" font-family="Helvetica,sans-Serif" font-size="10.00">LibLoader::LoaderLogger</text>
<text text-anchor="middle" x="352.75" y="-56.5" font-family="Helvetica,sans-Serif" font-size="10.00">::call_logger</text>
</a>
</g>
</g>
<!-- Node2&#45;&gt;Node3 -->
<g id="edge2_Node000002_Node000003" class="edge">
<title>Node2&#45;&gt;Node3</title>
<g id="a_edge2_Node000002_Node000003"><a xlink:title=" ">
<path fill="none" stroke="#63b8ff" d="M255.76,-66C263.65,-66 271.8,-66 279.85,-66"/>
<polygon fill="#63b8ff" stroke="#63b8ff" points="279.63,-69.5 289.63,-66 279.63,-62.5 279.63,-69.5"/>
</a>
</g>
</g>
<!-- Node4 -->
<g id="Node000004" class="node">
<title>Node4</title>
<g id="a_Node000004"><a xlink:href="a00430.html#a076c5f4ff8083c7cfc6523498d0ba30f" target="_top" xlink:title=" ">
<polygon fill="white" stroke="#666666" points="705.12,-113 602.88,-113 602.88,-81 705.12,-81 705.12,-113"/>
<text text-anchor="start" x="610.88" y="-99.5" font-family="Helvetica,sans-Serif" font-size="10.00">LibLoader::JNIEnvs</text>
<text text-anchor="middle" x="654" y="-87.5" font-family="Helvetica,sans-Serif" font-size="10.00">::getEnv</text>
</a>
</g>
</g>
<!-- Node3&#45;&gt;Node4 -->
<g id="edge3_Node000003_Node000004" class="edge">
<title>Node3&#45;&gt;Node4</title>
<g id="a_edge3_Node000003_Node000004"><a xlink:title=" ">
<path fill="none" stroke="#63b8ff" d="M414.39,-79.27C426.16,-81.48 438.43,-83.52 450,-85 497.27,-91.03 551.14,-94.04 591.5,-95.54"/>
<polygon fill="#63b8ff" stroke="#63b8ff" points="591.14,-99.03 601.26,-95.88 591.38,-92.03 591.14,-99.03"/>
</a>
</g>
</g>
<!-- Node8 -->
<g id="Node000008" class="node">
<title>Node8</title>
<g id="a_Node000008"><a xlink:href="a00425.html#a6a6fcd695791253a9b3a053d313b2b93" target="_top" xlink:title=" ">
<polygon fill="white" stroke="#666666" points="556.75,-76 450,-76 450,-56 556.75,-56 556.75,-76"/>
<text text-anchor="middle" x="503.38" y="-62.5" font-family="Helvetica,sans-Serif" font-size="10.00">LibLoader::str2jstring</text>
</a>
</g>
</g>
<!-- Node3&#45;&gt;Node8 -->
<g id="edge7_Node000003_Node000008" class="edge">
<title>Node3&#45;&gt;Node8</title>
<g id="a_edge7_Node000003_Node000008"><a xlink:title=" ">
<path fill="none" stroke="#63b8ff" d="M414.2,-66C422.08,-66 430.18,-66 438.13,-66"/>
<polygon fill="#63b8ff" stroke="#63b8ff" points="438.1,-69.5 448.1,-66 438.1,-62.5 438.1,-69.5"/>
</a>
</g>
</g>
<!-- Node5 -->
<g id="Node000005" class="node">
<title>Node5</title>
<g id="a_Node000005"><a xlink:href="a00840.html#aea7d58ff9f04d6d4849c25a2506603a5" target="_top" xlink:title="取env,如果不存在重新获取">
<polygon fill="white" stroke="#666666" points="874.5,-107 751.25,-107 751.25,-87 874.5,-87 874.5,-107"/>
<text text-anchor="middle" x="812.88" y="-93.5" font-family="Helvetica,sans-Serif" font-size="10.00">JNIEnvManager::getEnv</text>
</a>
</g>
</g>
<!-- Node4&#45;&gt;Node5 -->
<g id="edge4_Node000004_Node000005" class="edge">
<title>Node4&#45;&gt;Node5</title>
<g id="a_edge4_Node000004_Node000005"><a xlink:title=" ">
<path fill="none" stroke="#63b8ff" d="M705.5,-97C716.32,-97 727.95,-97 739.41,-97"/>
<polygon fill="#63b8ff" stroke="#63b8ff" points="739.26,-100.5 749.26,-97 739.26,-93.5 739.26,-100.5"/>
</a>
</g>
</g>
<!-- Node6 -->
<g id="Node000006" class="node">
<title>Node6</title>
<g id="a_Node000006"><a xlink:href="a00260.html#a3d31403b7971274d47d308245206bd24" target="_top" xlink:title="为当前线程创建一个env.">
<polygon fill="white" stroke="#666666" points="961.75,-107 910.5,-107 910.5,-87 961.75,-87 961.75,-107"/>
<text text-anchor="middle" x="936.12" y="-93.5" font-family="Helvetica,sans-Serif" font-size="10.00">newEnv</text>
</a>
</g>
</g>
<!-- Node5&#45;&gt;Node6 -->
<g id="edge5_Node000005_Node000006" class="edge">
<title>Node5&#45;&gt;Node6</title>
<g id="a_edge5_Node000005_Node000006"><a xlink:title=" ">
<path fill="none" stroke="#63b8ff" d="M874.86,-97C883.06,-97 891.26,-97 898.84,-97"/>
<polygon fill="#63b8ff" stroke="#63b8ff" points="898.66,-100.5 908.66,-97 898.66,-93.5 898.66,-100.5"/>
</a>
</g>
</g>
<!-- Node7 -->
<g id="Node000007" class="node">
<title>Node7</title>
<g id="a_Node000007"><a xlink:href="a00840.html#ae0e482c6a813848a8f5d34957d1b6307" target="_top" xlink:title="获取全局JavaVM对象.">
<polygon fill="white" stroke="#666666" points="1124.75,-107 997.75,-107 997.75,-87 1124.75,-87 1124.75,-107"/>
<text text-anchor="middle" x="1061.25" y="-93.5" font-family="Helvetica,sans-Serif" font-size="10.00">JNIEnvManager::getGvm</text>
</a>
</g>
</g>
<!-- Node6&#45;&gt;Node7 -->
<g id="edge6_Node000006_Node000007" class="edge">
<title>Node6&#45;&gt;Node7</title>
<g id="a_edge6_Node000006_Node000007"><a xlink:title=" ">
<path fill="none" stroke="#63b8ff" d="M962.04,-97C969.22,-97 977.45,-97 986.02,-97"/>
<polygon fill="#63b8ff" stroke="#63b8ff" points="985.91,-100.5 995.91,-97 985.91,-93.5 985.91,-100.5"/>
</a>
</g>
</g>
<!-- Node8&#45;&gt;Node4 -->
<g id="edge8_Node000008_Node000004" class="edge">
<title>Node8&#45;&gt;Node4</title>
<g id="a_edge8_Node000008_Node000004"><a xlink:title=" ">
<path fill="none" stroke="#63b8ff" d="M554.69,-76.5C566.49,-78.96 579.19,-81.61 591.42,-84.16"/>
<polygon fill="#63b8ff" stroke="#63b8ff" points="590.5,-87.54 601,-86.15 591.93,-80.69 590.5,-87.54"/>
</a>
</g>
</g>
<!-- Node9 -->
<g id="Node000009" class="node">
<title>Node9</title>
<g id="a_Node000009"><a xlink:href="a00872.html#af50d0545fe7d683e54fcd03453a423e3" target="_top" xlink:title=" ">
<polygon fill="white" stroke="#666666" points="715.25,-57 592.75,-57 592.75,-25 715.25,-25 715.25,-57"/>
<text text-anchor="start" x="600.75" y="-43.5" font-family="Helvetica,sans-Serif" font-size="10.00">LibLoader::LoaderLogger</text>
<text text-anchor="middle" x="654" y="-31.5" font-family="Helvetica,sans-Serif" font-size="10.00">::warning</text>
</a>
</g>
</g>
<!-- Node8&#45;&gt;Node9 -->
<g id="edge9_Node000008_Node000009" class="edge">
<title>Node8&#45;&gt;Node9</title>
<g id="a_edge9_Node000008_Node000009"><a xlink:title=" ">
<path fill="none" stroke="#63b8ff" d="M557.19,-57.12C564.96,-55.81 573.07,-54.44 581.15,-53.09"/>
<polygon fill="#63b8ff" stroke="#63b8ff" points="581.72,-56.54 591,-51.43 580.56,-49.64 581.72,-56.54"/>
</a>
</g>
</g>
<!-- Node9&#45;&gt;Node3 -->
<g id="edge10_Node000009_Node000003" class="edge">
<title>Node9&#45;&gt;Node3</title>
<g id="a_edge10_Node000009_Node000003"><a xlink:title=" ">
<path fill="none" stroke="#63b8ff" d="M592.41,-40.18C551.96,-40.27 497.65,-41.63 450,-47 442.03,-47.9 433.73,-49.11 425.5,-50.49"/>
<polygon fill="#63b8ff" stroke="#63b8ff" points="425.08,-47.01 415.85,-52.19 426.3,-53.9 425.08,-47.01"/>
</a>
</g>
</g>
</g>
</svg>
