<?xml version="1.0" encoding="UTF-8" standalone="no"?>
<!DOCTYPE svg PUBLIC "-//W3C//DTD SVG 1.1//EN"
 "http://www.w3.org/Graphics/SVG/1.1/DTD/svg11.dtd">
<!-- Generated by graphviz version 2.50.0 (20211204.2007)
 -->
<!-- Title: Group.cpp Pages: 1 -->
<svg width="1155pt" height="644pt"
 viewBox="0.00 0.00 1155.00 644.00" xmlns="http://www.w3.org/2000/svg" xmlns:xlink="http://www.w3.org/1999/xlink">
<g id="graph0" class="graph" transform="scale(1 1) rotate(0) translate(4 640)">
<title>Group.cpp</title>
<polygon fill="white" stroke="transparent" points="-4,4 -4,-640 1151,-640 1151,4 -4,4"/>
<!-- Node1 -->
<g id="node1" class="node">
<title>Node1</title>
<g id="a_node1"><a xlink:title=" ">
<polygon fill="#bfbfbf" stroke="black" points="850,-616.5 850,-635.5 912,-635.5 912,-616.5 850,-616.5"/>
<text text-anchor="middle" x="881" y="-623.5" font-family="Helvetica,sans-Serif" font-size="10.00">Group.cpp</text>
</a>
</g>
</g>
<!-- Node2 -->
<g id="node2" class="node">
<title>Node2</title>
<g id="a_node2"><a xlink:href="a00095.html" target="_top" xlink:title=" ">
<polygon fill="white" stroke="black" points="892.5,-560.5 892.5,-579.5 943.5,-579.5 943.5,-560.5 892.5,-560.5"/>
<text text-anchor="middle" x="918" y="-567.5" font-family="Helvetica,sans-Serif" font-size="10.00">Group.h</text>
</a>
</g>
</g>
<!-- Node1&#45;&gt;Node2 -->
<g id="edge1" class="edge">
<title>Node1&#45;&gt;Node2</title>
<path fill="none" stroke="midnightblue" d="M887.11,-616.08C892.28,-608.53 899.85,-597.49 906.19,-588.23"/>
<polygon fill="midnightblue" stroke="midnightblue" points="909.24,-589.98 912,-579.75 903.46,-586.02 909.24,-589.98"/>
</g>
<!-- Node8 -->
<g id="node8" class="node">
<title>Node8</title>
<g id="a_node8"><a xlink:href="a00101.html" target="_top" xlink:title=" ">
<polygon fill="white" stroke="black" points="1041.5,-448.5 1041.5,-467.5 1118.5,-467.5 1118.5,-448.5 1041.5,-448.5"/>
<text text-anchor="middle" x="1080" y="-455.5" font-family="Helvetica,sans-Serif" font-size="10.00">KtOperation.h</text>
</a>
</g>
</g>
<!-- Node1&#45;&gt;Node8 -->
<g id="edge58" class="edge">
<title>Node1&#45;&gt;Node8</title>
<path fill="none" stroke="midnightblue" d="M904.07,-616.48C923.34,-608.71 950.96,-596.01 972,-580 1012.71,-549.01 1050.03,-501.06 1068.27,-475.83"/>
<polygon fill="midnightblue" stroke="midnightblue" points="1071.16,-477.82 1074.1,-467.64 1065.45,-473.76 1071.16,-477.82"/>
</g>
<!-- Node9 -->
<g id="node9" class="node">
<title>Node9</title>
<g id="a_node9"><a xlink:href="a00110.html" target="_top" xlink:title=" ">
<polygon fill="white" stroke="black" points="943,-448.5 943,-467.5 1023,-467.5 1023,-448.5 943,-448.5"/>
<text text-anchor="middle" x="983" y="-455.5" font-family="Helvetica,sans-Serif" font-size="10.00">LowLevelAPI.h</text>
</a>
</g>
</g>
<!-- Node1&#45;&gt;Node9 -->
<g id="edge59" class="edge">
<title>Node1&#45;&gt;Node9</title>
<path fill="none" stroke="midnightblue" d="M903.47,-616.41C919.61,-609.1 940.62,-597.06 953,-580 975.48,-549.01 981.22,-503.07 982.62,-477.64"/>
<polygon fill="midnightblue" stroke="midnightblue" points="986.12,-477.65 983,-467.53 979.12,-477.39 986.12,-477.65"/>
</g>
<!-- Node13 -->
<g id="node13" class="node">
<title>Node13</title>
<g id="a_node13"><a xlink:href="a00086.html" target="_top" xlink:title=" ">
<polygon fill="white" stroke="black" points="162,-392.5 162,-411.5 230,-411.5 230,-392.5 162,-392.5"/>
<text text-anchor="middle" x="196" y="-399.5" font-family="Helvetica,sans-Serif" font-size="10.00">Exception.h</text>
</a>
</g>
</g>
<!-- Node1&#45;&gt;Node13 -->
<g id="edge57" class="edge">
<title>Node1&#45;&gt;Node13</title>
<path fill="none" stroke="midnightblue" d="M854.57,-616.43C748.5,-582.06 353.68,-454.1 231.96,-414.65"/>
<polygon fill="midnightblue" stroke="midnightblue" points="232.95,-411.29 222.35,-411.54 230.79,-417.95 232.95,-411.29"/>
</g>
<!-- Node34 -->
<g id="node34" class="node">
<title>Node34</title>
<g id="a_node34"><a xlink:href="a00113.html" target="_top" xlink:title=" ">
<polygon fill="white" stroke="black" points="814,-560.5 814,-579.5 874,-579.5 874,-560.5 814,-560.5"/>
<text text-anchor="middle" x="844" y="-567.5" font-family="Helvetica,sans-Serif" font-size="10.00">Member.h</text>
</a>
</g>
</g>
<!-- Node1&#45;&gt;Node34 -->
<g id="edge60" class="edge">
<title>Node1&#45;&gt;Node34</title>
<path fill="none" stroke="midnightblue" d="M874.89,-616.08C869.72,-608.53 862.15,-597.49 855.81,-588.23"/>
<polygon fill="midnightblue" stroke="midnightblue" points="858.54,-586.02 850,-579.75 852.76,-589.98 858.54,-586.02"/>
</g>
<!-- Node35 -->
<g id="node35" class="node">
<title>Node35</title>
<g id="a_node35"><a xlink:href="a00140.html" target="_top" xlink:title=" ">
<polygon fill="white" stroke="black" points="153,-280.5 153,-299.5 201,-299.5 201,-280.5 153,-280.5"/>
<text text-anchor="middle" x="177" y="-287.5" font-family="Helvetica,sans-Serif" font-size="10.00">Tools.h</text>
</a>
</g>
</g>
<!-- Node1&#45;&gt;Node35 -->
<g id="edge62" class="edge">
<title>Node1&#45;&gt;Node35</title>
<path fill="none" stroke="midnightblue" d="M850,-624.28C697.91,-620.37 38,-598.58 38,-515 38,-515 38,-515 38,-401 38,-347.55 101.98,-316 143.12,-301.23"/>
<polygon fill="midnightblue" stroke="midnightblue" points="144.46,-304.47 152.79,-297.91 142.19,-297.85 144.46,-304.47"/>
</g>
<!-- Node3 -->
<g id="node3" class="node">
<title>Node3</title>
<g id="a_node3"><a xlink:href="a00077.html" target="_top" xlink:title=" ">
<polygon fill="white" stroke="black" points="820.5,-504.5 820.5,-523.5 879.5,-523.5 879.5,-504.5 820.5,-504.5"/>
<text text-anchor="middle" x="850" y="-511.5" font-family="Helvetica,sans-Serif" font-size="10.00">Contact.h</text>
</a>
</g>
</g>
<!-- Node2&#45;&gt;Node3 -->
<g id="edge2" class="edge">
<title>Node2&#45;&gt;Node3</title>
<path fill="none" stroke="midnightblue" d="M907.07,-560.32C896.83,-552.18 881.28,-539.84 869,-530.09"/>
<polygon fill="midnightblue" stroke="midnightblue" points="871.13,-527.31 861.12,-523.83 866.78,-532.79 871.13,-527.31"/>
</g>
<!-- Node5 -->
<g id="node5" class="node">
<title>Node5</title>
<g id="a_node5"><a xlink:title=" ">
<polygon fill="white" stroke="#bfbfbf" points="883.5,-336.5 883.5,-355.5 956.5,-355.5 956.5,-336.5 883.5,-336.5"/>
<text text-anchor="middle" x="920" y="-343.5" font-family="Helvetica,sans-Serif" font-size="10.00">json_fwd.hpp</text>
</a>
</g>
</g>
<!-- Node2&#45;&gt;Node5 -->
<g id="edge55" class="edge">
<title>Node2&#45;&gt;Node5</title>
<path fill="none" stroke="midnightblue" d="M918.08,-560.3C918.37,-527.63 919.42,-411.87 919.83,-365.96"/>
<polygon fill="midnightblue" stroke="midnightblue" points="923.33,-365.91 919.92,-355.88 916.33,-365.85 923.33,-365.91"/>
</g>
<!-- Node25 -->
<g id="node25" class="node">
<title>Node25</title>
<g id="a_node25"><a xlink:title=" ">
<polygon fill="white" stroke="#bfbfbf" points="797,-280.5 797,-299.5 837,-299.5 837,-280.5 797,-280.5"/>
<text text-anchor="middle" x="817" y="-287.5" font-family="Helvetica,sans-Serif" font-size="10.00">utility</text>
</a>
</g>
</g>
<!-- Node2&#45;&gt;Node25 -->
<g id="edge56" class="edge">
<title>Node2&#45;&gt;Node25</title>
<path fill="none" stroke="midnightblue" d="M943.82,-568.3C1003.71,-565.16 1147,-548.31 1147,-459 1147,-459 1147,-459 1147,-401 1147,-338.15 928.83,-304.78 847.27,-294.5"/>
<polygon fill="midnightblue" stroke="midnightblue" points="847.5,-291.01 837.15,-293.26 846.64,-297.95 847.5,-291.01"/>
</g>
<!-- Node4 -->
<g id="node4" class="node">
<title>Node4</title>
<g id="a_node4"><a xlink:href="a00098.html" target="_top" xlink:title=" ">
<polygon fill="white" stroke="black" points="768,-448.5 768,-467.5 836,-467.5 836,-448.5 768,-448.5"/>
<text text-anchor="middle" x="802" y="-455.5" font-family="Helvetica,sans-Serif" font-size="10.00">IMiraiData.h</text>
</a>
</g>
</g>
<!-- Node3&#45;&gt;Node4 -->
<g id="edge3" class="edge">
<title>Node3&#45;&gt;Node4</title>
<path fill="none" stroke="midnightblue" d="M842.07,-504.08C835.15,-496.3 824.93,-484.8 816.55,-475.37"/>
<polygon fill="midnightblue" stroke="midnightblue" points="819.04,-472.9 809.78,-467.75 813.81,-477.55 819.04,-472.9"/>
</g>
<!-- Node3&#45;&gt;Node5 -->
<g id="edge53" class="edge">
<title>Node3&#45;&gt;Node5</title>
<path fill="none" stroke="midnightblue" d="M853.76,-504.08C864.83,-477.83 897.42,-400.55 912.36,-365.12"/>
<polygon fill="midnightblue" stroke="midnightblue" points="915.73,-366.14 916.39,-355.57 909.28,-363.42 915.73,-366.14"/>
</g>
<!-- Node3&#45;&gt;Node8 -->
<g id="edge7" class="edge">
<title>Node3&#45;&gt;Node8</title>
<path fill="none" stroke="midnightblue" d="M879.6,-506.05C918.63,-496.89 987.72,-480.67 1033.69,-469.87"/>
<polygon fill="midnightblue" stroke="midnightblue" points="1034.77,-473.22 1043.7,-467.52 1033.17,-466.4 1034.77,-473.22"/>
</g>
<!-- Node3&#45;&gt;Node9 -->
<g id="edge9" class="edge">
<title>Node3&#45;&gt;Node9</title>
<path fill="none" stroke="midnightblue" d="M871.07,-504.44C893.06,-495.52 927.73,-481.44 952.66,-471.32"/>
<polygon fill="midnightblue" stroke="midnightblue" points="954.08,-474.52 962.02,-467.52 951.44,-468.04 954.08,-474.52"/>
</g>
<!-- Node10 -->
<g id="node10" class="node">
<title>Node10</title>
<g id="a_node10"><a xlink:href="a00116.html" target="_top" xlink:title=" ">
<polygon fill="white" stroke="black" points="529.5,-448.5 529.5,-467.5 618.5,-467.5 618.5,-448.5 529.5,-448.5"/>
<text text-anchor="middle" x="574" y="-455.5" font-family="Helvetica,sans-Serif" font-size="10.00">MessageChain.h</text>
</a>
</g>
</g>
<!-- Node3&#45;&gt;Node10 -->
<g id="edge11" class="edge">
<title>Node3&#45;&gt;Node10</title>
<path fill="none" stroke="midnightblue" d="M820.46,-507.22C774.55,-498.24 685.36,-480.79 627.8,-469.53"/>
<polygon fill="midnightblue" stroke="midnightblue" points="628.28,-466.05 617.79,-467.57 626.93,-472.92 628.28,-466.05"/>
</g>
<!-- Node17 -->
<g id="node17" class="node">
<title>Node17</title>
<g id="a_node17"><a xlink:title=" ">
<polygon fill="white" stroke="#bfbfbf" points="110.5,-56.5 110.5,-75.5 151.5,-75.5 151.5,-56.5 110.5,-56.5"/>
<text text-anchor="middle" x="131" y="-63.5" font-family="Helvetica,sans-Serif" font-size="10.00">string</text>
</a>
</g>
</g>
<!-- Node3&#45;&gt;Node17 -->
<g id="edge54" class="edge">
<title>Node3&#45;&gt;Node17</title>
<path fill="none" stroke="midnightblue" d="M820.25,-511.79C669.8,-504.86 0,-464.3 0,-291 0,-291 0,-291 0,-177 0,-124.79 61.77,-92.42 100.48,-77.25"/>
<polygon fill="midnightblue" stroke="midnightblue" points="102.1,-80.38 110.24,-73.6 99.65,-73.83 102.1,-80.38"/>
</g>
<!-- Node4&#45;&gt;Node5 -->
<g id="edge4" class="edge">
<title>Node4&#45;&gt;Node5</title>
<path fill="none" stroke="midnightblue" d="M811.16,-448.08C824.14,-435.47 848.69,-411.77 870,-392 880.73,-382.05 892.93,-371.06 902.6,-362.43"/>
<polygon fill="midnightblue" stroke="midnightblue" points="905.19,-364.81 910.34,-355.54 900.54,-359.58 905.19,-364.81"/>
</g>
<!-- Node6 -->
<g id="node6" class="node">
<title>Node6</title>
<g id="a_node6"><a xlink:title=" ">
<polygon fill="white" stroke="#bfbfbf" points="772,-392.5 772,-411.5 818,-411.5 818,-392.5 772,-392.5"/>
<text text-anchor="middle" x="795" y="-399.5" font-family="Helvetica,sans-Serif" font-size="10.00">atomic</text>
</a>
</g>
</g>
<!-- Node4&#45;&gt;Node6 -->
<g id="edge5" class="edge">
<title>Node4&#45;&gt;Node6</title>
<path fill="none" stroke="midnightblue" d="M800.84,-448.08C799.92,-440.93 798.58,-430.64 797.42,-421.69"/>
<polygon fill="midnightblue" stroke="midnightblue" points="800.89,-421.22 796.13,-411.75 793.95,-422.12 800.89,-421.22"/>
</g>
<!-- Node7 -->
<g id="node7" class="node">
<title>Node7</title>
<g id="a_node7"><a xlink:title=" ">
<polygon fill="white" stroke="#bfbfbf" points="676,-392.5 676,-411.5 754,-411.5 754,-392.5 676,-392.5"/>
<text text-anchor="middle" x="715" y="-399.5" font-family="Helvetica,sans-Serif" font-size="10.00">shared_mutex</text>
</a>
</g>
</g>
<!-- Node4&#45;&gt;Node7 -->
<g id="edge6" class="edge">
<title>Node4&#45;&gt;Node7</title>
<path fill="none" stroke="midnightblue" d="M788.02,-448.32C774.45,-439.9 753.62,-426.97 737.68,-417.07"/>
<polygon fill="midnightblue" stroke="midnightblue" points="739.29,-413.95 728.94,-411.65 735.59,-419.9 739.29,-413.95"/>
</g>
<!-- Node8&#45;&gt;Node5 -->
<g id="edge8" class="edge">
<title>Node8&#45;&gt;Node5</title>
<path fill="none" stroke="midnightblue" d="M1067.45,-448.37C1040.11,-429.57 974.94,-384.77 941.14,-361.53"/>
<polygon fill="midnightblue" stroke="midnightblue" points="942.72,-358.37 932.5,-355.59 938.75,-364.14 942.72,-358.37"/>
</g>
<!-- Node9&#45;&gt;Node5 -->
<g id="edge10" class="edge">
<title>Node9&#45;&gt;Node5</title>
<path fill="none" stroke="midnightblue" d="M978.06,-448.37C967.71,-430.3 943.58,-388.18 929.91,-364.31"/>
<polygon fill="midnightblue" stroke="midnightblue" points="932.93,-362.53 924.92,-355.59 926.85,-366.01 932.93,-362.53"/>
</g>
<!-- Node11 -->
<g id="node11" class="node">
<title>Node11</title>
<g id="a_node11"><a xlink:href="a00011.html" target="_top" xlink:title=" ">
<polygon fill="white" stroke="black" points="533,-56.5 533,-75.5 625,-75.5 625,-56.5 533,-56.5"/>
<text text-anchor="middle" x="579" y="-63.5" font-family="Helvetica,sans-Serif" font-size="10.00">MiraiCPMacros.h</text>
</a>
</g>
</g>
<!-- Node10&#45;&gt;Node11 -->
<g id="edge12" class="edge">
<title>Node10&#45;&gt;Node11</title>
<path fill="none" stroke="midnightblue" d="M583.86,-448.3C600.08,-434.42 633.91,-407.28 667,-392 724.55,-365.43 752.58,-391.63 805,-356 854.64,-322.26 865,-295.03 865,-235 865,-235 865,-235 865,-177 865,-128.24 718.38,-92.91 635.1,-76.78"/>
<polygon fill="midnightblue" stroke="midnightblue" points="635.75,-73.34 625.27,-74.91 634.44,-80.22 635.75,-73.34"/>
</g>
<!-- Node10&#45;&gt;Node13 -->
<g id="edge14" class="edge">
<title>Node10&#45;&gt;Node13</title>
<path fill="none" stroke="midnightblue" d="M529.15,-450.59C456.27,-440.18 312.98,-419.71 240.39,-409.34"/>
<polygon fill="midnightblue" stroke="midnightblue" points="240.61,-405.84 230.21,-407.89 239.62,-412.77 240.61,-405.84"/>
</g>
<!-- Node28 -->
<g id="node28" class="node">
<title>Node28</title>
<g id="a_node28"><a xlink:href="a00134.html" target="_top" xlink:title=" ">
<polygon fill="white" stroke="black" points="528,-392.5 528,-411.5 620,-411.5 620,-392.5 528,-392.5"/>
<text text-anchor="middle" x="574" y="-399.5" font-family="Helvetica,sans-Serif" font-size="10.00">SingleMessage.h</text>
</a>
</g>
</g>
<!-- Node10&#45;&gt;Node28 -->
<g id="edge37" class="edge">
<title>Node10&#45;&gt;Node28</title>
<path fill="none" stroke="midnightblue" d="M574,-448.08C574,-441.01 574,-430.86 574,-421.99"/>
<polygon fill="midnightblue" stroke="midnightblue" points="577.5,-421.75 574,-411.75 570.5,-421.75 577.5,-421.75"/>
</g>
<!-- Node33 -->
<g id="node33" class="node">
<title>Node33</title>
<g id="a_node33"><a xlink:href="a00002.html" target="_top" xlink:title=" ">
<polygon fill="white" stroke="black" points="593,-280.5 593,-299.5 679,-299.5 679,-280.5 593,-280.5"/>
<text text-anchor="middle" x="636" y="-287.5" font-family="Helvetica,sans-Serif" font-size="10.00">commonTools.h</text>
</a>
</g>
</g>
<!-- Node10&#45;&gt;Node33 -->
<g id="edge50" class="edge">
<title>Node10&#45;&gt;Node33</title>
<path fill="none" stroke="midnightblue" d="M556.8,-448.39C543.75,-440.79 526.77,-428.39 519,-412 511.62,-396.42 510.71,-353.9 524,-336 538.03,-317.11 561.31,-306.13 583.01,-299.76"/>
<polygon fill="midnightblue" stroke="midnightblue" points="584.07,-303.1 592.84,-297.15 582.27,-296.34 584.07,-303.1"/>
</g>
<!-- Node12 -->
<g id="node12" class="node">
<title>Node12</title>
<g id="a_node12"><a xlink:title=" ">
<polygon fill="white" stroke="#bfbfbf" points="476.5,-0.5 476.5,-19.5 525.5,-19.5 525.5,-0.5 476.5,-0.5"/>
<text text-anchor="middle" x="501" y="-7.5" font-family="Helvetica,sans-Serif" font-size="10.00">cassert</text>
</a>
</g>
</g>
<!-- Node11&#45;&gt;Node12 -->
<g id="edge13" class="edge">
<title>Node11&#45;&gt;Node12</title>
<path fill="none" stroke="midnightblue" d="M566.47,-56.32C554.41,-47.98 535.97,-35.21 521.73,-25.35"/>
<polygon fill="midnightblue" stroke="midnightblue" points="523.72,-22.47 513.5,-19.65 519.73,-28.22 523.72,-22.47"/>
</g>
<!-- Node13&#45;&gt;Node11 -->
<g id="edge15" class="edge">
<title>Node13&#45;&gt;Node11</title>
<path fill="none" stroke="midnightblue" d="M230.3,-394.25C341.36,-372.36 684.23,-304.46 688,-300 743.98,-233.81 693.85,-176.57 636,-112 625.64,-100.44 612.07,-89.59 600.76,-81.45"/>
<polygon fill="midnightblue" stroke="midnightblue" points="602.49,-78.38 592.29,-75.53 598.48,-84.12 602.49,-78.38"/>
</g>
<!-- Node14 -->
<g id="node14" class="node">
<title>Node14</title>
<g id="a_node14"><a xlink:href="a00080.html" target="_top" xlink:title=" ">
<polygon fill="white" stroke="black" points="326,-336.5 326,-355.5 398,-355.5 398,-336.5 326,-336.5"/>
<text text-anchor="middle" x="362" y="-343.5" font-family="Helvetica,sans-Serif" font-size="10.00">CPPPlugin.h</text>
</a>
</g>
</g>
<!-- Node13&#45;&gt;Node14 -->
<g id="edge16" class="edge">
<title>Node13&#45;&gt;Node14</title>
<path fill="none" stroke="midnightblue" d="M222.3,-392.44C250.35,-383.32 294.94,-368.81 326.18,-358.65"/>
<polygon fill="midnightblue" stroke="midnightblue" points="327.39,-361.94 335.82,-355.52 325.23,-355.28 327.39,-361.94"/>
</g>
<!-- Node13&#45;&gt;Node17 -->
<g id="edge35" class="edge">
<title>Node13&#45;&gt;Node17</title>
<path fill="none" stroke="midnightblue" d="M161.59,-395.54C138.47,-389.89 109.63,-378.54 95,-356 37.93,-268.09 96.89,-133.06 121.39,-84.86"/>
<polygon fill="midnightblue" stroke="midnightblue" points="124.64,-86.19 126.16,-75.7 118.44,-82.95 124.64,-86.19"/>
</g>
<!-- Node26 -->
<g id="node26" class="node">
<title>Node26</title>
<g id="a_node26"><a xlink:title=" ">
<polygon fill="white" stroke="#bfbfbf" points="166.5,-336.5 166.5,-355.5 225.5,-355.5 225.5,-336.5 166.5,-336.5"/>
<text text-anchor="middle" x="196" y="-343.5" font-family="Helvetica,sans-Serif" font-size="10.00">exception</text>
</a>
</g>
</g>
<!-- Node13&#45;&gt;Node26 -->
<g id="edge34" class="edge">
<title>Node13&#45;&gt;Node26</title>
<path fill="none" stroke="midnightblue" d="M196,-392.08C196,-385.01 196,-374.86 196,-365.99"/>
<polygon fill="midnightblue" stroke="midnightblue" points="199.5,-365.75 196,-355.75 192.5,-365.75 199.5,-365.75"/>
</g>
<!-- Node27 -->
<g id="node27" class="node">
<title>Node27</title>
<g id="a_node27"><a xlink:title=" ">
<polygon fill="white" stroke="#bfbfbf" points="104,-336.5 104,-355.5 148,-355.5 148,-336.5 104,-336.5"/>
<text text-anchor="middle" x="126" y="-343.5" font-family="Helvetica,sans-Serif" font-size="10.00">thread</text>
</a>
</g>
</g>
<!-- Node13&#45;&gt;Node27 -->
<g id="edge36" class="edge">
<title>Node13&#45;&gt;Node27</title>
<path fill="none" stroke="midnightblue" d="M184.75,-392.32C174.2,-384.18 158.2,-371.84 145.56,-362.09"/>
<polygon fill="midnightblue" stroke="midnightblue" points="147.51,-359.17 137.45,-355.83 143.23,-364.71 147.51,-359.17"/>
</g>
<!-- Node15 -->
<g id="node15" class="node">
<title>Node15</title>
<g id="a_node15"><a xlink:href="a00107.html" target="_top" xlink:title=" ">
<polygon fill="white" stroke="black" points="320,-280.5 320,-299.5 374,-299.5 374,-280.5 320,-280.5"/>
<text text-anchor="middle" x="347" y="-287.5" font-family="Helvetica,sans-Serif" font-size="10.00">Logger.h</text>
</a>
</g>
</g>
<!-- Node14&#45;&gt;Node15 -->
<g id="edge17" class="edge">
<title>Node14&#45;&gt;Node15</title>
<path fill="none" stroke="midnightblue" d="M359.52,-336.08C357.51,-328.85 354.61,-318.41 352.11,-309.4"/>
<polygon fill="midnightblue" stroke="midnightblue" points="355.48,-308.45 349.43,-299.75 348.74,-310.32 355.48,-308.45"/>
</g>
<!-- Node19 -->
<g id="node19" class="node">
<title>Node19</title>
<g id="a_node19"><a xlink:href="a00020.html" target="_top" xlink:title=" ">
<polygon fill="white" stroke="black" points="395.5,-168.5 395.5,-187.5 474.5,-187.5 474.5,-168.5 395.5,-168.5"/>
<text text-anchor="middle" x="435" y="-175.5" font-family="Helvetica,sans-Serif" font-size="10.00">PluginConfig.h</text>
</a>
</g>
</g>
<!-- Node14&#45;&gt;Node19 -->
<g id="edge32" class="edge">
<title>Node14&#45;&gt;Node19</title>
<path fill="none" stroke="midnightblue" d="M398.05,-343.9C429.64,-340.8 473.86,-330.78 496,-300 507.17,-284.47 495.76,-246.13 483,-224 476.29,-212.37 465.62,-201.93 456.05,-194.04"/>
<polygon fill="midnightblue" stroke="midnightblue" points="458.08,-191.18 448.04,-187.8 453.77,-196.71 458.08,-191.18"/>
</g>
<!-- Node14&#45;&gt;Node25 -->
<g id="edge33" class="edge">
<title>Node14&#45;&gt;Node25</title>
<path fill="none" stroke="midnightblue" d="M398.08,-340.72C485.18,-330.38 705.71,-304.21 786.63,-294.6"/>
<polygon fill="midnightblue" stroke="midnightblue" points="787.14,-298.07 796.66,-293.41 786.32,-291.12 787.14,-298.07"/>
</g>
<!-- Node16 -->
<g id="node16" class="node">
<title>Node16</title>
<g id="a_node16"><a xlink:href="a00122.html" target="_top" xlink:title=" ">
<polygon fill="white" stroke="black" points="261,-224.5 261,-243.5 329,-243.5 329,-224.5 261,-224.5"/>
<text text-anchor="middle" x="295" y="-231.5" font-family="Helvetica,sans-Serif" font-size="10.00">MiraiCode.h</text>
</a>
</g>
</g>
<!-- Node15&#45;&gt;Node16 -->
<g id="edge18" class="edge">
<title>Node15&#45;&gt;Node16</title>
<path fill="none" stroke="midnightblue" d="M338.41,-280.08C330.84,-272.22 319.62,-260.57 310.49,-251.08"/>
<polygon fill="midnightblue" stroke="midnightblue" points="312.88,-248.53 303.43,-243.75 307.84,-253.38 312.88,-248.53"/>
</g>
<!-- Node18 -->
<g id="node18" class="node">
<title>Node18</title>
<g id="a_node18"><a xlink:href="a00005.html" target="_top" xlink:title=" ">
<polygon fill="white" stroke="black" points="385.5,-224.5 385.5,-243.5 474.5,-243.5 474.5,-224.5 385.5,-224.5"/>
<text text-anchor="middle" x="430" y="-231.5" font-family="Helvetica,sans-Serif" font-size="10.00">commonTypes.h</text>
</a>
</g>
</g>
<!-- Node15&#45;&gt;Node18 -->
<g id="edge20" class="edge">
<title>Node15&#45;&gt;Node18</title>
<path fill="none" stroke="midnightblue" d="M360.34,-280.32C373.16,-271.98 392.78,-259.21 407.94,-249.35"/>
<polygon fill="midnightblue" stroke="midnightblue" points="410.22,-252.04 416.7,-243.65 406.41,-246.17 410.22,-252.04"/>
</g>
<!-- Node23 -->
<g id="node23" class="node">
<title>Node23</title>
<g id="a_node23"><a xlink:title=" ">
<polygon fill="white" stroke="#bfbfbf" points="607,-224.5 607,-243.5 665,-243.5 665,-224.5 607,-224.5"/>
<text text-anchor="middle" x="636" y="-231.5" font-family="Helvetica,sans-Serif" font-size="10.00">functional</text>
</a>
</g>
</g>
<!-- Node15&#45;&gt;Node23 -->
<g id="edge30" class="edge">
<title>Node15&#45;&gt;Node23</title>
<path fill="none" stroke="midnightblue" d="M374.08,-282.02C377.08,-281.31 380.1,-280.62 383,-280 458.15,-263.94 546.71,-249.12 596.61,-241.14"/>
<polygon fill="midnightblue" stroke="midnightblue" points="597.33,-244.57 606.65,-239.55 596.23,-237.66 597.33,-244.57"/>
</g>
<!-- Node24 -->
<g id="node24" class="node">
<title>Node24</title>
<g id="a_node24"><a xlink:title=" ">
<polygon fill="white" stroke="#bfbfbf" points="191,-224.5 191,-243.5 243,-243.5 243,-224.5 191,-224.5"/>
<text text-anchor="middle" x="217" y="-231.5" font-family="Helvetica,sans-Serif" font-size="10.00">sstream</text>
</a>
</g>
</g>
<!-- Node15&#45;&gt;Node24 -->
<g id="edge31" class="edge">
<title>Node15&#45;&gt;Node24</title>
<path fill="none" stroke="midnightblue" d="M326.4,-280.44C305.01,-271.56 271.32,-257.56 246.98,-247.45"/>
<polygon fill="midnightblue" stroke="midnightblue" points="248.08,-244.12 237.5,-243.52 245.39,-250.58 248.08,-244.12"/>
</g>
<!-- Node16&#45;&gt;Node17 -->
<g id="edge19" class="edge">
<title>Node16&#45;&gt;Node17</title>
<path fill="none" stroke="midnightblue" d="M282.7,-224.28C270.79,-215.62 252.47,-201.69 238,-188 201.35,-153.34 163.37,-107.63 144.03,-83.53"/>
<polygon fill="midnightblue" stroke="midnightblue" points="146.75,-81.33 137.78,-75.68 141.27,-85.69 146.75,-81.33"/>
</g>
<!-- Node18&#45;&gt;Node11 -->
<g id="edge21" class="edge">
<title>Node18&#45;&gt;Node11</title>
<path fill="none" stroke="midnightblue" d="M442.42,-224.38C453.89,-216 470.93,-202.45 483,-188 508.02,-158.04 502.12,-142.07 527,-112 536.27,-100.79 548.5,-90.05 558.77,-81.88"/>
<polygon fill="midnightblue" stroke="midnightblue" points="561.05,-84.55 566.83,-75.67 556.77,-79 561.05,-84.55"/>
</g>
<!-- Node18&#45;&gt;Node19 -->
<g id="edge22" class="edge">
<title>Node18&#45;&gt;Node19</title>
<path fill="none" stroke="midnightblue" d="M430.83,-224.08C431.48,-217.01 432.42,-206.86 433.24,-197.99"/>
<polygon fill="midnightblue" stroke="midnightblue" points="436.75,-198.03 434.19,-187.75 429.78,-197.39 436.75,-198.03"/>
</g>
<!-- Node22 -->
<g id="node22" class="node">
<title>Node22</title>
<g id="a_node22"><a xlink:href="a00008.html" target="_top" xlink:title=" ">
<polygon fill="white" stroke="black" points="280.5,-168.5 280.5,-187.5 377.5,-187.5 377.5,-168.5 280.5,-168.5"/>
<text text-anchor="middle" x="329" y="-175.5" font-family="Helvetica,sans-Serif" font-size="10.00">loaderApiInternal.h</text>
</a>
</g>
</g>
<!-- Node18&#45;&gt;Node22 -->
<g id="edge28" class="edge">
<title>Node18&#45;&gt;Node22</title>
<path fill="none" stroke="midnightblue" d="M413.77,-224.32C397.65,-215.7 372.7,-202.36 354.04,-192.39"/>
<polygon fill="midnightblue" stroke="midnightblue" points="355.66,-189.28 345.19,-187.65 352.36,-195.46 355.66,-189.28"/>
</g>
<!-- Node20 -->
<g id="node20" class="node">
<title>Node20</title>
<g id="a_node20"><a xlink:href="a00014.html" target="_top" xlink:title=" ">
<polygon fill="white" stroke="black" points="283,-112.5 283,-131.5 399,-131.5 399,-112.5 283,-112.5"/>
<text text-anchor="middle" x="341" y="-119.5" font-family="Helvetica,sans-Serif" font-size="10.00">MiraiCPStringInternal.h</text>
</a>
</g>
</g>
<!-- Node19&#45;&gt;Node20 -->
<g id="edge23" class="edge">
<title>Node19&#45;&gt;Node20</title>
<path fill="none" stroke="midnightblue" d="M419.9,-168.32C405.1,-159.82 382.31,-146.73 365.02,-136.8"/>
<polygon fill="midnightblue" stroke="midnightblue" points="366.48,-133.6 356.07,-131.65 362.99,-139.67 366.48,-133.6"/>
</g>
<!-- Node21 -->
<g id="node21" class="node">
<title>Node21</title>
<g id="a_node21"><a xlink:title=" ">
<polygon fill="white" stroke="#bfbfbf" points="417.5,-112.5 417.5,-131.5 470.5,-131.5 470.5,-112.5 417.5,-112.5"/>
<text text-anchor="middle" x="444" y="-119.5" font-family="Helvetica,sans-Serif" font-size="10.00">json.hpp</text>
</a>
</g>
</g>
<!-- Node19&#45;&gt;Node21 -->
<g id="edge27" class="edge">
<title>Node19&#45;&gt;Node21</title>
<path fill="none" stroke="midnightblue" d="M436.49,-168.08C437.68,-160.93 439.39,-150.64 440.88,-141.69"/>
<polygon fill="midnightblue" stroke="midnightblue" points="444.35,-142.19 442.54,-131.75 437.45,-141.04 444.35,-142.19"/>
</g>
<!-- Node20&#45;&gt;Node11 -->
<g id="edge24" class="edge">
<title>Node20&#45;&gt;Node11</title>
<path fill="none" stroke="midnightblue" d="M378.71,-112.44C420.14,-103.04 486.76,-87.93 531.67,-77.74"/>
<polygon fill="midnightblue" stroke="midnightblue" points="532.49,-81.14 541.46,-75.52 530.94,-74.32 532.49,-81.14"/>
</g>
<!-- Node20&#45;&gt;Node12 -->
<g id="edge25" class="edge">
<title>Node20&#45;&gt;Node12</title>
<path fill="none" stroke="midnightblue" d="M353.55,-112.37C380.89,-93.57 446.06,-48.77 479.86,-25.53"/>
<polygon fill="midnightblue" stroke="midnightblue" points="482.25,-28.14 488.5,-19.59 478.28,-22.37 482.25,-28.14"/>
</g>
<!-- Node20&#45;&gt;Node17 -->
<g id="edge26" class="edge">
<title>Node20&#45;&gt;Node17</title>
<path fill="none" stroke="midnightblue" d="M307.72,-112.44C267.49,-102.1 200.33,-84.83 161.42,-74.82"/>
<polygon fill="midnightblue" stroke="midnightblue" points="162.26,-71.43 151.71,-72.32 160.52,-78.2 162.26,-71.43"/>
</g>
<!-- Node22&#45;&gt;Node20 -->
<g id="edge29" class="edge">
<title>Node22&#45;&gt;Node20</title>
<path fill="none" stroke="midnightblue" d="M330.98,-168.08C332.57,-160.93 334.86,-150.64 336.85,-141.69"/>
<polygon fill="midnightblue" stroke="midnightblue" points="340.3,-142.27 339.06,-131.75 333.47,-140.75 340.3,-142.27"/>
</g>
<!-- Node28&#45;&gt;Node5 -->
<g id="edge45" class="edge">
<title>Node28&#45;&gt;Node5</title>
<path fill="none" stroke="midnightblue" d="M620.3,-393.77C686.38,-383.46 807.03,-364.63 873.31,-354.29"/>
<polygon fill="midnightblue" stroke="midnightblue" points="874.12,-357.7 883.46,-352.7 873.04,-350.79 874.12,-357.7"/>
</g>
<!-- Node28&#45;&gt;Node11 -->
<g id="edge38" class="edge">
<title>Node28&#45;&gt;Node11</title>
<path fill="none" stroke="midnightblue" d="M616.55,-392.42C665.47,-382.2 740.33,-365.34 750,-356 771.64,-335.08 769,-321.1 769,-291 769,-291 769,-291 769,-177 769,-146.2 767.72,-132.79 745,-112 715.32,-84.85 670.92,-73.81 635.5,-69.45"/>
<polygon fill="midnightblue" stroke="midnightblue" points="635.61,-65.94 625.29,-68.34 634.86,-72.9 635.61,-65.94"/>
</g>
<!-- Node28&#45;&gt;Node16 -->
<g id="edge43" class="edge">
<title>Node28&#45;&gt;Node16</title>
<path fill="none" stroke="midnightblue" d="M527.96,-399.1C462.19,-395.4 346.04,-384.85 317,-356 289.83,-329.01 289.93,-280.44 292.43,-253.78"/>
<polygon fill="midnightblue" stroke="midnightblue" points="295.91,-254.15 293.57,-243.82 288.96,-253.36 295.91,-254.15"/>
</g>
<!-- Node28&#45;&gt;Node24 -->
<g id="edge47" class="edge">
<title>Node28&#45;&gt;Node24</title>
<path fill="none" stroke="midnightblue" d="M527.83,-397.79C459.89,-392.35 337.02,-379.53 300,-356 260.9,-331.15 235.47,-280.54 224.01,-253.32"/>
<polygon fill="midnightblue" stroke="midnightblue" points="227.17,-251.79 220.19,-243.82 220.68,-254.41 227.17,-251.79"/>
</g>
<!-- Node28&#45;&gt;Node25 -->
<g id="edge49" class="edge">
<title>Node28&#45;&gt;Node25</title>
<path fill="none" stroke="midnightblue" d="M620.14,-393.2C677.69,-383.15 770.11,-365.81 783,-356 798.17,-344.46 807.22,-324.19 812.13,-309.35"/>
<polygon fill="midnightblue" stroke="midnightblue" points="815.5,-310.29 814.99,-299.7 808.79,-308.29 815.5,-310.29"/>
</g>
<!-- Node29 -->
<g id="node29" class="node">
<title>Node29</title>
<g id="a_node29"><a xlink:href="a00119.html" target="_top" xlink:title=" ">
<polygon fill="white" stroke="black" points="392.5,-280.5 392.5,-299.5 487.5,-299.5 487.5,-280.5 392.5,-280.5"/>
<text text-anchor="middle" x="440" y="-287.5" font-family="Helvetica,sans-Serif" font-size="10.00">MessageSource.h</text>
</a>
</g>
</g>
<!-- Node28&#45;&gt;Node29 -->
<g id="edge39" class="edge">
<title>Node28&#45;&gt;Node29</title>
<path fill="none" stroke="midnightblue" d="M563.49,-392.37C540.78,-373.73 486.94,-329.53 458.44,-306.13"/>
<polygon fill="midnightblue" stroke="midnightblue" points="460.42,-303.23 450.47,-299.59 455.97,-308.64 460.42,-303.23"/>
</g>
<!-- Node30 -->
<g id="node30" class="node">
<title>Node30</title>
<g id="a_node30"><a xlink:title=" ">
<polygon fill="white" stroke="#bfbfbf" points="635,-336.5 635,-355.5 673,-355.5 673,-336.5 635,-336.5"/>
<text text-anchor="middle" x="654" y="-343.5" font-family="Helvetica,sans-Serif" font-size="10.00">array</text>
</a>
</g>
</g>
<!-- Node28&#45;&gt;Node30 -->
<g id="edge44" class="edge">
<title>Node28&#45;&gt;Node30</title>
<path fill="none" stroke="midnightblue" d="M586.85,-392.32C599.22,-383.98 618.13,-371.21 632.74,-361.35"/>
<polygon fill="midnightblue" stroke="midnightblue" points="634.85,-364.15 641.18,-355.65 630.93,-358.35 634.85,-364.15"/>
</g>
<!-- Node31 -->
<g id="node31" class="node">
<title>Node31</title>
<g id="a_node31"><a xlink:title=" ">
<polygon fill="white" stroke="#bfbfbf" points="691,-336.5 691,-355.5 741,-355.5 741,-336.5 691,-336.5"/>
<text text-anchor="middle" x="716" y="-343.5" font-family="Helvetica,sans-Serif" font-size="10.00">optional</text>
</a>
</g>
</g>
<!-- Node28&#45;&gt;Node31 -->
<g id="edge46" class="edge">
<title>Node28&#45;&gt;Node31</title>
<path fill="none" stroke="midnightblue" d="M596.5,-392.44C620.08,-383.48 657.32,-369.31 683.96,-359.18"/>
<polygon fill="midnightblue" stroke="midnightblue" points="685.5,-362.34 693.6,-355.52 683.01,-355.8 685.5,-362.34"/>
</g>
<!-- Node32 -->
<g id="node32" class="node">
<title>Node32</title>
<g id="a_node32"><a xlink:title=" ">
<polygon fill="white" stroke="#bfbfbf" points="533.5,-336.5 533.5,-355.5 616.5,-355.5 616.5,-336.5 533.5,-336.5"/>
<text text-anchor="middle" x="575" y="-343.5" font-family="Helvetica,sans-Serif" font-size="10.00">unordered_map</text>
</a>
</g>
</g>
<!-- Node28&#45;&gt;Node32 -->
<g id="edge48" class="edge">
<title>Node28&#45;&gt;Node32</title>
<path fill="none" stroke="midnightblue" d="M574.17,-392.08C574.3,-385.01 574.48,-374.86 574.65,-365.99"/>
<polygon fill="midnightblue" stroke="midnightblue" points="578.15,-365.81 574.84,-355.75 571.15,-365.68 578.15,-365.81"/>
</g>
<!-- Node29&#45;&gt;Node11 -->
<g id="edge40" class="edge">
<title>Node29&#45;&gt;Node11</title>
<path fill="none" stroke="midnightblue" d="M487.67,-281.97C511.52,-275.93 538.7,-264.73 555,-244 591.85,-197.13 586.89,-120.82 582.13,-85.73"/>
<polygon fill="midnightblue" stroke="midnightblue" points="585.54,-84.88 580.59,-75.52 578.62,-85.93 585.54,-84.88"/>
</g>
<!-- Node29&#45;&gt;Node17 -->
<g id="edge42" class="edge">
<title>Node29&#45;&gt;Node17</title>
<path fill="none" stroke="midnightblue" d="M427.31,-280.48C408.2,-267.76 370.79,-243.22 338,-224 308.84,-206.9 298.39,-207.82 271,-188 231.27,-159.25 228.46,-143.66 191,-112 178.32,-101.28 163.39,-90.08 151.59,-81.53"/>
<polygon fill="midnightblue" stroke="midnightblue" points="153.44,-78.55 143.27,-75.57 149.36,-84.24 153.44,-78.55"/>
</g>
<!-- Node29&#45;&gt;Node18 -->
<g id="edge41" class="edge">
<title>Node29&#45;&gt;Node18</title>
<path fill="none" stroke="midnightblue" d="M438.35,-280.08C437.02,-272.93 435.12,-262.64 433.46,-253.69"/>
<polygon fill="midnightblue" stroke="midnightblue" points="436.88,-252.95 431.62,-243.75 430,-254.22 436.88,-252.95"/>
</g>
<!-- Node33&#45;&gt;Node11 -->
<g id="edge51" class="edge">
<title>Node33&#45;&gt;Node11</title>
<path fill="none" stroke="midnightblue" d="M646.71,-280.3C655.94,-272.07 668.59,-258.79 674,-244 677.05,-235.65 676.39,-232.56 674,-224 658.16,-167.24 615.61,-110.53 593.22,-83.44"/>
<polygon fill="midnightblue" stroke="midnightblue" points="595.84,-81.11 586.72,-75.72 590.48,-85.62 595.84,-81.11"/>
</g>
<!-- Node33&#45;&gt;Node23 -->
<g id="edge52" class="edge">
<title>Node33&#45;&gt;Node23</title>
<path fill="none" stroke="midnightblue" d="M636,-280.08C636,-273.01 636,-262.86 636,-253.99"/>
<polygon fill="midnightblue" stroke="midnightblue" points="639.5,-253.75 636,-243.75 632.5,-253.75 639.5,-253.75"/>
</g>
<!-- Node34&#45;&gt;Node3 -->
<g id="edge61" class="edge">
<title>Node34&#45;&gt;Node3</title>
<path fill="none" stroke="midnightblue" d="M844.99,-560.08C845.79,-552.93 846.93,-542.64 847.92,-533.69"/>
<polygon fill="midnightblue" stroke="midnightblue" points="851.4,-534.08 849.03,-523.75 844.44,-533.3 851.4,-534.08"/>
</g>
<!-- Node35&#45;&gt;Node11 -->
<g id="edge63" class="edge">
<title>Node35&#45;&gt;Node11</title>
<path fill="none" stroke="midnightblue" d="M201.34,-286.68C269.69,-279.99 459.95,-260.11 483,-244 538.83,-204.98 565.29,-122.83 574.74,-85.8"/>
<polygon fill="midnightblue" stroke="midnightblue" points="578.2,-86.4 577.14,-75.85 571.39,-84.75 578.2,-86.4"/>
</g>
<!-- Node35&#45;&gt;Node17 -->
<g id="edge66" class="edge">
<title>Node35&#45;&gt;Node17</title>
<path fill="none" stroke="midnightblue" d="M159.8,-280.39C146.75,-272.79 129.77,-260.39 122,-244 96.9,-191.04 114.13,-118.91 124.6,-85.45"/>
<polygon fill="midnightblue" stroke="midnightblue" points="128.02,-86.26 127.82,-75.66 121.37,-84.07 128.02,-86.26"/>
</g>
<!-- Node35&#45;&gt;Node18 -->
<g id="edge64" class="edge">
<title>Node35&#45;&gt;Node18</title>
<path fill="none" stroke="midnightblue" d="M201.26,-283.82C242.27,-275.07 326.12,-257.17 380.11,-245.65"/>
<polygon fill="midnightblue" stroke="midnightblue" points="381.1,-249.02 390.15,-243.5 379.64,-242.17 381.1,-249.02"/>
</g>
<!-- Node35&#45;&gt;Node24 -->
<g id="edge65" class="edge">
<title>Node35&#45;&gt;Node24</title>
<path fill="none" stroke="midnightblue" d="M183.61,-280.08C189.26,-272.46 197.54,-261.26 204.45,-251.94"/>
<polygon fill="midnightblue" stroke="midnightblue" points="207.38,-253.87 210.52,-243.75 201.75,-249.7 207.38,-253.87"/>
</g>
<!-- Node36 -->
<g id="node36" class="node">
<title>Node36</title>
<g id="a_node36"><a xlink:title=" ">
<polygon fill="white" stroke="#bfbfbf" points="131,-224.5 131,-243.5 173,-243.5 173,-224.5 131,-224.5"/>
<text text-anchor="middle" x="152" y="-231.5" font-family="Helvetica,sans-Serif" font-size="10.00">vector</text>
</a>
</g>
</g>
<!-- Node35&#45;&gt;Node36 -->
<g id="edge67" class="edge">
<title>Node35&#45;&gt;Node36</title>
<path fill="none" stroke="midnightblue" d="M172.87,-280.08C169.49,-272.77 164.58,-262.18 160.38,-253.1"/>
<polygon fill="midnightblue" stroke="midnightblue" points="163.43,-251.36 156.05,-243.75 157.08,-254.3 163.43,-251.36"/>
</g>
</g>
</svg>
