<?xml version="1.0" encoding="UTF-8" standalone="no"?>
<!DOCTYPE svg PUBLIC "-//W3C//DTD SVG 1.1//EN"
 "http://www.w3.org/Graphics/SVG/1.1/DTD/svg11.dtd">
<!-- Generated by graphviz version 2.50.0 (20211204.2007)
 -->
<!-- Title: loaderApi.cpp Pages: 1 -->
<svg width="741pt" height="252pt"
 viewBox="0.00 0.00 741.00 252.00" xmlns="http://www.w3.org/2000/svg" xmlns:xlink="http://www.w3.org/1999/xlink">
<g id="graph0" class="graph" transform="scale(1 1) rotate(0) translate(4 248)">
<title>loaderApi.cpp</title>
<polygon fill="white" stroke="transparent" points="-4,4 -4,-248 737,-248 737,4 -4,4"/>
<!-- Node1 -->
<g id="node1" class="node">
<title>Node1</title>
<g id="a_node1"><a xlink:title=" ">
<polygon fill="#bfbfbf" stroke="black" points="304,-224.5 304,-243.5 380,-243.5 380,-224.5 304,-224.5"/>
<text text-anchor="middle" x="342" y="-231.5" font-family="Helvetica,sans-Serif" font-size="10.00">loaderApi.cpp</text>
</a>
</g>
</g>
<!-- Node2 -->
<g id="node2" class="node">
<title>Node2</title>
<g id="a_node2"><a xlink:href="a00134.html" target="_top" xlink:title=" ">
<polygon fill="white" stroke="black" points="37.5,-168.5 37.5,-187.5 102.5,-187.5 102.5,-168.5 37.5,-168.5"/>
<text text-anchor="middle" x="70" y="-175.5" font-family="Helvetica,sans-Serif" font-size="10.00">loaderApi.h</text>
</a>
</g>
</g>
<!-- Node1&#45;&gt;Node2 -->
<g id="edge1" class="edge">
<title>Node1&#45;&gt;Node2</title>
<path fill="none" stroke="midnightblue" d="M303.89,-225.43C253.59,-215.45 165.27,-197.91 112.75,-187.49"/>
<polygon fill="midnightblue" stroke="midnightblue" points="113.23,-184.01 102.74,-185.5 111.87,-190.88 113.23,-184.01"/>
</g>
<!-- Node3 -->
<g id="node3" class="node">
<title>Node3</title>
<g id="a_node3"><a xlink:title=" ">
<polygon fill="white" stroke="#bfbfbf" points="172.5,-56.5 172.5,-75.5 213.5,-75.5 213.5,-56.5 172.5,-56.5"/>
<text text-anchor="middle" x="193" y="-63.5" font-family="Helvetica,sans-Serif" font-size="10.00">string</text>
</a>
</g>
</g>
<!-- Node1&#45;&gt;Node3 -->
<g id="edge25" class="edge">
<title>Node1&#45;&gt;Node3</title>
<path fill="none" stroke="midnightblue" d="M303.64,-225.89C256.58,-214.89 178.77,-188.76 144,-132 132.77,-113.67 152.19,-94.17 169.79,-81.37"/>
<polygon fill="midnightblue" stroke="midnightblue" points="171.87,-84.19 178.15,-75.66 167.92,-78.41 171.87,-84.19"/>
</g>
<!-- Node4 -->
<g id="node4" class="node">
<title>Node4</title>
<g id="a_node4"><a xlink:title=" ">
<polygon fill="white" stroke="#bfbfbf" points="0,-112.5 0,-131.5 42,-131.5 42,-112.5 0,-112.5"/>
<text text-anchor="middle" x="21" y="-119.5" font-family="Helvetica,sans-Serif" font-size="10.00">vector</text>
</a>
</g>
</g>
<!-- Node1&#45;&gt;Node4 -->
<g id="edge26" class="edge">
<title>Node1&#45;&gt;Node4</title>
<path fill="none" stroke="midnightblue" d="M303.94,-233.14C228.8,-232.55 65.39,-226.73 28,-188 16.31,-175.9 15.81,-156.02 17.46,-141.43"/>
<polygon fill="midnightblue" stroke="midnightblue" points="20.93,-141.93 18.99,-131.52 14.01,-140.86 20.93,-141.93"/>
</g>
<!-- Node5 -->
<g id="node5" class="node">
<title>Node5</title>
<g id="a_node5"><a xlink:href="a00059.html" target="_top" xlink:title=" ">
<polygon fill="white" stroke="black" points="455,-168.5 455,-187.5 527,-187.5 527,-168.5 455,-168.5"/>
<text text-anchor="middle" x="491" y="-175.5" font-family="Helvetica,sans-Serif" font-size="10.00">CPPPlugin.h</text>
</a>
</g>
</g>
<!-- Node1&#45;&gt;Node5 -->
<g id="edge4" class="edge">
<title>Node1&#45;&gt;Node5</title>
<path fill="none" stroke="midnightblue" d="M365.61,-224.44C390.46,-215.44 429.77,-201.19 457.75,-191.05"/>
<polygon fill="midnightblue" stroke="midnightblue" points="459.29,-194.21 467.5,-187.52 456.91,-187.63 459.29,-194.21"/>
</g>
<!-- Node11 -->
<g id="node11" class="node">
<title>Node11</title>
<g id="a_node11"><a xlink:href="a00122.html" target="_top" xlink:title=" ">
<polygon fill="white" stroke="black" points="251,-112.5 251,-131.5 319,-131.5 319,-112.5 251,-112.5"/>
<text text-anchor="middle" x="285" y="-119.5" font-family="Helvetica,sans-Serif" font-size="10.00">Exception.h</text>
</a>
</g>
</g>
<!-- Node1&#45;&gt;Node11 -->
<g id="edge11" class="edge">
<title>Node1&#45;&gt;Node11</title>
<path fill="none" stroke="midnightblue" d="M337.08,-224.44C331.94,-215.44 323.72,-200.83 317,-188 308.81,-172.35 299.97,-154.31 293.66,-141.21"/>
<polygon fill="midnightblue" stroke="midnightblue" points="296.68,-139.41 289.21,-131.9 290.37,-142.43 296.68,-139.41"/>
</g>
<!-- Node14 -->
<g id="node14" class="node">
<title>Node14</title>
<g id="a_node14"><a xlink:href="a00038.html" target="_top" xlink:title=" ">
<polygon fill="white" stroke="black" points="574,-168.5 574,-187.5 660,-187.5 660,-168.5 574,-168.5"/>
<text text-anchor="middle" x="617" y="-175.5" font-family="Helvetica,sans-Serif" font-size="10.00">commonTools.h</text>
</a>
</g>
</g>
<!-- Node1&#45;&gt;Node14 -->
<g id="edge16" class="edge">
<title>Node1&#45;&gt;Node14</title>
<path fill="none" stroke="midnightblue" d="M380.24,-225.49C427.93,-216.13 509.75,-200.06 563.6,-189.48"/>
<polygon fill="midnightblue" stroke="midnightblue" points="564.51,-192.87 573.65,-187.51 563.17,-186 564.51,-192.87"/>
</g>
<!-- Node16 -->
<g id="node16" class="node">
<title>Node16</title>
<g id="a_node16"><a xlink:href="a00176.html" target="_top" xlink:title=" ">
<polygon fill="white" stroke="black" points="326.5,-168.5 326.5,-187.5 423.5,-187.5 423.5,-168.5 326.5,-168.5"/>
<text text-anchor="middle" x="375" y="-175.5" font-family="Helvetica,sans-Serif" font-size="10.00">loaderApiInternal.h</text>
</a>
</g>
</g>
<!-- Node1&#45;&gt;Node16 -->
<g id="edge19" class="edge">
<title>Node1&#45;&gt;Node16</title>
<path fill="none" stroke="midnightblue" d="M347.45,-224.08C352.01,-216.61 358.67,-205.72 364.29,-196.52"/>
<polygon fill="midnightblue" stroke="midnightblue" points="367.42,-198.11 369.65,-187.75 361.45,-194.46 367.42,-198.11"/>
</g>
<!-- Node18 -->
<g id="node18" class="node">
<title>Node18</title>
<g id="a_node18"><a xlink:title=" ">
<polygon fill="white" stroke="#bfbfbf" points="678.5,-168.5 678.5,-187.5 731.5,-187.5 731.5,-168.5 678.5,-168.5"/>
<text text-anchor="middle" x="705" y="-175.5" font-family="Helvetica,sans-Serif" font-size="10.00">json.hpp</text>
</a>
</g>
</g>
<!-- Node1&#45;&gt;Node18 -->
<g id="edge24" class="edge">
<title>Node1&#45;&gt;Node18</title>
<path fill="none" stroke="midnightblue" d="M380.48,-229.07C440.04,-222.69 558.28,-208.85 668.39,-187.92"/>
<polygon fill="midnightblue" stroke="midnightblue" points="669.18,-191.33 678.34,-186.01 667.85,-184.46 669.18,-191.33"/>
</g>
<!-- Node2&#45;&gt;Node3 -->
<g id="edge2" class="edge">
<title>Node2&#45;&gt;Node3</title>
<path fill="none" stroke="midnightblue" d="M73.66,-168.46C79.76,-155.04 93.12,-128.82 111,-112 126.03,-97.86 146.34,-86.67 162.99,-78.99"/>
<polygon fill="midnightblue" stroke="midnightblue" points="164.56,-82.12 172.3,-74.87 161.74,-75.71 164.56,-82.12"/>
</g>
<!-- Node2&#45;&gt;Node4 -->
<g id="edge3" class="edge">
<title>Node2&#45;&gt;Node4</title>
<path fill="none" stroke="midnightblue" d="M61.91,-168.08C54.84,-160.3 44.41,-148.8 35.85,-139.37"/>
<polygon fill="midnightblue" stroke="midnightblue" points="38.25,-136.8 28.94,-131.75 33.07,-141.51 38.25,-136.8"/>
</g>
<!-- Node6 -->
<g id="node6" class="node">
<title>Node6</title>
<g id="a_node6"><a xlink:href="a00044.html" target="_top" xlink:title=" ">
<polygon fill="white" stroke="black" points="423,-56.5 423,-75.5 515,-75.5 515,-56.5 423,-56.5"/>
<text text-anchor="middle" x="469" y="-63.5" font-family="Helvetica,sans-Serif" font-size="10.00">MiraiCPMacros.h</text>
</a>
</g>
</g>
<!-- Node5&#45;&gt;Node6 -->
<g id="edge5" class="edge">
<title>Node5&#45;&gt;Node6</title>
<path fill="none" stroke="midnightblue" d="M527.3,-168.67C562.92,-158.69 609.3,-139.77 590,-112 575.22,-90.73 549.12,-79.49 524.94,-73.57"/>
<polygon fill="midnightblue" stroke="midnightblue" points="525.6,-70.13 515.08,-71.41 524.1,-76.97 525.6,-70.13"/>
</g>
<!-- Node8 -->
<g id="node8" class="node">
<title>Node8</title>
<g id="a_node8"><a xlink:href="a00047.html" target="_top" xlink:title=" ">
<polygon fill="white" stroke="black" points="153.5,-112.5 153.5,-131.5 232.5,-131.5 232.5,-112.5 153.5,-112.5"/>
<text text-anchor="middle" x="193" y="-119.5" font-family="Helvetica,sans-Serif" font-size="10.00">PluginConfig.h</text>
</a>
</g>
</g>
<!-- Node5&#45;&gt;Node8 -->
<g id="edge7" class="edge">
<title>Node5&#45;&gt;Node8</title>
<path fill="none" stroke="midnightblue" d="M454.71,-170.47C408.11,-162.09 324.49,-147.02 242.56,-132.1"/>
<polygon fill="midnightblue" stroke="midnightblue" points="243.04,-128.63 232.58,-130.28 241.79,-135.52 243.04,-128.63"/>
</g>
<!-- Node9 -->
<g id="node9" class="node">
<title>Node9</title>
<g id="a_node9"><a xlink:title=" ">
<polygon fill="white" stroke="#bfbfbf" points="529,-112.5 529,-131.5 581,-131.5 581,-112.5 529,-112.5"/>
<text text-anchor="middle" x="555" y="-119.5" font-family="Helvetica,sans-Serif" font-size="10.00">memory</text>
</a>
</g>
</g>
<!-- Node5&#45;&gt;Node9 -->
<g id="edge9" class="edge">
<title>Node5&#45;&gt;Node9</title>
<path fill="none" stroke="midnightblue" d="M501.28,-168.32C510.84,-160.26 525.28,-148.08 536.78,-138.37"/>
<polygon fill="midnightblue" stroke="midnightblue" points="539.14,-140.96 544.53,-131.83 534.63,-135.61 539.14,-140.96"/>
</g>
<!-- Node10 -->
<g id="node10" class="node">
<title>Node10</title>
<g id="a_node10"><a xlink:title=" ">
<polygon fill="white" stroke="#bfbfbf" points="471,-112.5 471,-131.5 511,-131.5 511,-112.5 471,-112.5"/>
<text text-anchor="middle" x="491" y="-119.5" font-family="Helvetica,sans-Serif" font-size="10.00">utility</text>
</a>
</g>
</g>
<!-- Node5&#45;&gt;Node10 -->
<g id="edge10" class="edge">
<title>Node5&#45;&gt;Node10</title>
<path fill="none" stroke="midnightblue" d="M491,-168.08C491,-161.01 491,-150.86 491,-141.99"/>
<polygon fill="midnightblue" stroke="midnightblue" points="494.5,-141.75 491,-131.75 487.5,-141.75 494.5,-141.75"/>
</g>
<!-- Node7 -->
<g id="node7" class="node">
<title>Node7</title>
<g id="a_node7"><a xlink:title=" ">
<polygon fill="white" stroke="#bfbfbf" points="407.5,-0.5 407.5,-19.5 456.5,-19.5 456.5,-0.5 407.5,-0.5"/>
<text text-anchor="middle" x="432" y="-7.5" font-family="Helvetica,sans-Serif" font-size="10.00">cassert</text>
</a>
</g>
</g>
<!-- Node6&#45;&gt;Node7 -->
<g id="edge6" class="edge">
<title>Node6&#45;&gt;Node7</title>
<path fill="none" stroke="midnightblue" d="M462.89,-56.08C457.72,-48.53 450.15,-37.49 443.81,-28.23"/>
<polygon fill="midnightblue" stroke="midnightblue" points="446.54,-26.02 438,-19.75 440.76,-29.98 446.54,-26.02"/>
</g>
<!-- Node8&#45;&gt;Node3 -->
<g id="edge8" class="edge">
<title>Node8&#45;&gt;Node3</title>
<path fill="none" stroke="midnightblue" d="M193,-112.08C193,-105.01 193,-94.86 193,-85.99"/>
<polygon fill="midnightblue" stroke="midnightblue" points="196.5,-85.75 193,-75.75 189.5,-85.75 196.5,-85.75"/>
</g>
<!-- Node11&#45;&gt;Node3 -->
<g id="edge14" class="edge">
<title>Node11&#45;&gt;Node3</title>
<path fill="none" stroke="midnightblue" d="M270.22,-112.32C255.73,-103.82 233.43,-90.73 216.51,-80.8"/>
<polygon fill="midnightblue" stroke="midnightblue" points="218.14,-77.7 207.74,-75.65 214.6,-83.74 218.14,-77.7"/>
</g>
<!-- Node11&#45;&gt;Node6 -->
<g id="edge12" class="edge">
<title>Node11&#45;&gt;Node6</title>
<path fill="none" stroke="midnightblue" d="M314.16,-112.44C345.51,-103.24 395.53,-88.56 430.2,-78.39"/>
<polygon fill="midnightblue" stroke="midnightblue" points="431.37,-81.69 439.98,-75.52 429.4,-74.97 431.37,-81.69"/>
</g>
<!-- Node12 -->
<g id="node12" class="node">
<title>Node12</title>
<g id="a_node12"><a xlink:title=" ">
<polygon fill="white" stroke="#bfbfbf" points="301.5,-56.5 301.5,-75.5 360.5,-75.5 360.5,-56.5 301.5,-56.5"/>
<text text-anchor="middle" x="331" y="-63.5" font-family="Helvetica,sans-Serif" font-size="10.00">exception</text>
</a>
</g>
</g>
<!-- Node11&#45;&gt;Node12 -->
<g id="edge13" class="edge">
<title>Node11&#45;&gt;Node12</title>
<path fill="none" stroke="midnightblue" d="M292.6,-112.08C299.23,-104.3 309.02,-92.8 317.06,-83.37"/>
<polygon fill="midnightblue" stroke="midnightblue" points="319.73,-85.63 323.55,-75.75 314.4,-81.09 319.73,-85.63"/>
</g>
<!-- Node13 -->
<g id="node13" class="node">
<title>Node13</title>
<g id="a_node13"><a xlink:title=" ">
<polygon fill="white" stroke="#bfbfbf" points="239,-56.5 239,-75.5 283,-75.5 283,-56.5 239,-56.5"/>
<text text-anchor="middle" x="261" y="-63.5" font-family="Helvetica,sans-Serif" font-size="10.00">thread</text>
</a>
</g>
</g>
<!-- Node11&#45;&gt;Node13 -->
<g id="edge15" class="edge">
<title>Node11&#45;&gt;Node13</title>
<path fill="none" stroke="midnightblue" d="M281.04,-112.08C277.79,-104.77 273.08,-94.18 269.05,-85.1"/>
<polygon fill="midnightblue" stroke="midnightblue" points="272.15,-83.47 264.89,-75.75 265.75,-86.31 272.15,-83.47"/>
</g>
<!-- Node14&#45;&gt;Node6 -->
<g id="edge17" class="edge">
<title>Node14&#45;&gt;Node6</title>
<path fill="none" stroke="midnightblue" d="M618.14,-168.26C619.41,-154.56 619.74,-127.96 606,-112 585.93,-88.68 553.55,-77.38 525.31,-71.93"/>
<polygon fill="midnightblue" stroke="midnightblue" points="525.57,-68.42 515.13,-70.18 524.39,-75.32 525.57,-68.42"/>
</g>
<!-- Node15 -->
<g id="node15" class="node">
<title>Node15</title>
<g id="a_node15"><a xlink:title=" ">
<polygon fill="white" stroke="#bfbfbf" points="675,-112.5 675,-131.5 733,-131.5 733,-112.5 675,-112.5"/>
<text text-anchor="middle" x="704" y="-119.5" font-family="Helvetica,sans-Serif" font-size="10.00">functional</text>
</a>
</g>
</g>
<!-- Node14&#45;&gt;Node15 -->
<g id="edge18" class="edge">
<title>Node14&#45;&gt;Node15</title>
<path fill="none" stroke="midnightblue" d="M630.98,-168.32C644.55,-159.9 665.38,-146.97 681.32,-137.07"/>
<polygon fill="midnightblue" stroke="midnightblue" points="683.41,-139.9 690.06,-131.65 679.71,-133.95 683.41,-139.9"/>
</g>
<!-- Node17 -->
<g id="node17" class="node">
<title>Node17</title>
<g id="a_node17"><a xlink:href="a00182.html" target="_top" xlink:title=" ">
<polygon fill="white" stroke="black" points="337,-112.5 337,-131.5 453,-131.5 453,-112.5 337,-112.5"/>
<text text-anchor="middle" x="395" y="-119.5" font-family="Helvetica,sans-Serif" font-size="10.00">MiraiCPStringInternal.h</text>
</a>
</g>
</g>
<!-- Node16&#45;&gt;Node17 -->
<g id="edge20" class="edge">
<title>Node16&#45;&gt;Node17</title>
<path fill="none" stroke="midnightblue" d="M378.3,-168.08C380.98,-160.85 384.85,-150.41 388.19,-141.4"/>
<polygon fill="midnightblue" stroke="midnightblue" points="391.57,-142.34 391.76,-131.75 385,-139.91 391.57,-142.34"/>
</g>
<!-- Node17&#45;&gt;Node3 -->
<g id="edge23" class="edge">
<title>Node17&#45;&gt;Node3</title>
<path fill="none" stroke="midnightblue" d="M362.99,-112.44C324.76,-102.22 261.26,-85.25 223.64,-75.19"/>
<polygon fill="midnightblue" stroke="midnightblue" points="224.32,-71.75 213.76,-72.55 222.51,-78.51 224.32,-71.75"/>
</g>
<!-- Node17&#45;&gt;Node6 -->
<g id="edge21" class="edge">
<title>Node17&#45;&gt;Node6</title>
<path fill="none" stroke="midnightblue" d="M406.89,-112.32C418.15,-104.11 435.29,-91.6 448.71,-81.81"/>
<polygon fill="midnightblue" stroke="midnightblue" points="450.88,-84.56 456.89,-75.83 446.75,-78.9 450.88,-84.56"/>
</g>
<!-- Node17&#45;&gt;Node7 -->
<g id="edge22" class="edge">
<title>Node17&#45;&gt;Node7</title>
<path fill="none" stroke="midnightblue" d="M397.31,-112.08C400.65,-99.48 407.17,-75.78 414,-56 417.13,-46.94 421.04,-37.03 424.41,-28.83"/>
<polygon fill="midnightblue" stroke="midnightblue" points="427.67,-30.11 428.3,-19.53 421.21,-27.41 427.67,-30.11"/>
</g>
</g>
</svg>
