<?xml version="1.0" encoding="UTF-8" standalone="no"?>
<!DOCTYPE svg PUBLIC "-//W3C//DTD SVG 1.1//EN"
 "http://www.w3.org/Graphics/SVG/1.1/DTD/svg11.dtd">
<!-- Generated by graphviz version 9.0.0 (0)
 -->
<!-- Title: loaderApi.cpp Pages: 1 -->
<svg width="1572pt" height="420pt"
 viewBox="0.00 0.00 1572.38 420.00" xmlns="http://www.w3.org/2000/svg" xmlns:xlink="http://www.w3.org/1999/xlink">
<g id="graph0" class="graph" transform="scale(1 1) rotate(0) translate(4 416)">
<title>loaderApi.cpp</title>
<!-- Node1 -->
<g id="Node000001" class="node">
<title>Node1</title>
<g id="a_Node000001"><a xlink:title=" ">
<polygon fill="#999999" stroke="#666666" points="1014,-412 938.75,-412 938.75,-392 1014,-392 1014,-412"/>
<text text-anchor="middle" x="976.38" y="-398.5" font-family="Helvetica,sans-Serif" font-size="10.00">loaderApi.cpp</text>
</a>
</g>
</g>
<!-- Node2 -->
<g id="Node000002" class="node">
<title>Node2</title>
<g id="a_Node000002"><a xlink:href="a00041.html" target="_top" xlink:title=" ">
<polygon fill="white" stroke="#666666" points="774.25,-76 682.5,-76 682.5,-56 774.25,-56 774.25,-76"/>
<text text-anchor="middle" x="728.38" y="-62.5" font-family="Helvetica,sans-Serif" font-size="10.00">MiraiCPMacros.h</text>
</a>
</g>
</g>
<!-- Node1&#45;&gt;Node2 -->
<g id="edge1_Node000001_Node000002" class="edge">
<title>Node1&#45;&gt;Node2</title>
<g id="a_edge1_Node000001_Node000002"><a xlink:title=" ">
<path fill="none" stroke="#63b8ff" d="M938.44,-399.09C792.49,-391.26 275.38,-358.72 275.38,-291 275.38,-291 275.38,-291 275.38,-177 275.38,-131.87 311.94,-129.87 353.38,-112 409.11,-87.97 580.36,-75.16 670.89,-69.91"/>
<polygon fill="#63b8ff" stroke="#63b8ff" points="671.02,-73.41 680.8,-69.35 670.62,-66.42 671.02,-73.41"/>
</a>
</g>
</g>
<!-- Node4 -->
<g id="Node000004" class="node">
<title>Node4</title>
<g id="a_Node000004"><a xlink:href="a00209.html" target="_top" xlink:title=" ">
<polygon fill="white" stroke="#666666" points="940.62,-356 878.12,-356 878.12,-336 940.62,-336 940.62,-356"/>
<text text-anchor="middle" x="909.38" y="-342.5" font-family="Helvetica,sans-Serif" font-size="10.00">JNIEnvs.h</text>
</a>
</g>
</g>
<!-- Node1&#45;&gt;Node4 -->
<g id="edge3_Node000001_Node000004" class="edge">
<title>Node1&#45;&gt;Node4</title>
<g id="a_edge3_Node000001_Node000004"><a xlink:title=" ">
<path fill="none" stroke="#63b8ff" d="M964.7,-391.59C955.1,-383.85 941.25,-372.69 929.81,-363.47"/>
<polygon fill="#63b8ff" stroke="#63b8ff" points="932.07,-360.8 922.09,-357.25 927.68,-366.25 932.07,-360.8"/>
</a>
</g>
</g>
<!-- Node8 -->
<g id="Node000008" class="node">
<title>Node8</title>
<g id="a_Node000008"><a xlink:title=" ">
<polygon fill="#e0e0e0" stroke="#999999" points="1085.88,-244 1042.88,-244 1042.88,-224 1085.88,-224 1085.88,-244"/>
<text text-anchor="middle" x="1064.38" y="-230.5" font-family="Helvetica,sans-Serif" font-size="10.00">mutex</text>
</a>
</g>
</g>
<!-- Node1&#45;&gt;Node8 -->
<g id="edge60_Node000001_Node000008" class="edge">
<title>Node1&#45;&gt;Node8</title>
<g id="a_edge60_Node000001_Node000008"><a xlink:title=" ">
<path fill="none" stroke="#63b8ff" d="M981.36,-391.6C995.33,-365.23 1035.12,-290.19 1054.08,-254.42"/>
<polygon fill="#63b8ff" stroke="#63b8ff" points="1057.15,-256.11 1058.74,-245.63 1050.96,-252.83 1057.15,-256.11"/>
</a>
</g>
</g>
<!-- Node10 -->
<g id="Node000010" class="node">
<title>Node10</title>
<g id="a_Node000010"><a xlink:href="a00251.html" target="_top" xlink:title=" ">
<polygon fill="white" stroke="#666666" points="1336.75,-244 1254,-244 1254,-224 1336.75,-224 1336.75,-244"/>
<text text-anchor="middle" x="1295.38" y="-230.5" font-family="Helvetica,sans-Serif" font-size="10.00">LoaderLogger.h</text>
</a>
</g>
</g>
<!-- Node1&#45;&gt;Node10 -->
<g id="edge10_Node000001_Node000010" class="edge">
<title>Node1&#45;&gt;Node10</title>
<g id="a_edge10_Node000001_Node000010"><a xlink:title=" ">
<path fill="none" stroke="#63b8ff" d="M1004.02,-391.51C1027.81,-383.06 1062.87,-369.9 1092.38,-356 1160.57,-323.87 1235.44,-275.54 1272.28,-250.81"/>
<polygon fill="#63b8ff" stroke="#63b8ff" points="1274.04,-253.84 1280.37,-245.34 1270.12,-248.04 1274.04,-253.84"/>
</a>
</g>
</g>
<!-- Node13 -->
<g id="Node000013" class="node">
<title>Node13</title>
<g id="a_Node000013"><a xlink:href="a00245.html" target="_top" xlink:title=" ">
<polygon fill="white" stroke="#666666" points="835.62,-300 755.12,-300 755.12,-280 835.62,-280 835.62,-300"/>
<text text-anchor="middle" x="795.38" y="-286.5" font-family="Helvetica,sans-Serif" font-size="10.00">LoaderMacro.h</text>
</a>
</g>
</g>
<!-- Node1&#45;&gt;Node13 -->
<g id="edge14_Node000001_Node000013" class="edge">
<title>Node1&#45;&gt;Node13</title>
<g id="a_edge14_Node000001_Node000013"><a xlink:title=" ">
<path fill="none" stroke="#63b8ff" d="M946.98,-391.54C924.75,-383.71 893.97,-371.4 869.38,-356 847.77,-342.47 826.24,-322.66 812.02,-308.47"/>
<polygon fill="#63b8ff" stroke="#63b8ff" points="814.73,-306.24 805.23,-301.55 809.73,-311.14 814.73,-306.24"/>
</a>
</g>
</g>
<!-- Node14 -->
<g id="Node000014" class="node">
<title>Node14</title>
<g id="a_Node000014"><a xlink:href="a00239.html" target="_top" xlink:title=" ">
<polygon fill="white" stroke="#666666" points="1183.88,-300 1080.88,-300 1080.88,-280 1183.88,-280 1183.88,-300"/>
<text text-anchor="middle" x="1132.38" y="-286.5" font-family="Helvetica,sans-Serif" font-size="10.00">LoaderTaskQueue.h</text>
</a>
</g>
</g>
<!-- Node1&#45;&gt;Node14 -->
<g id="edge17_Node000001_Node000014" class="edge">
<title>Node1&#45;&gt;Node14</title>
<g id="a_edge17_Node000001_Node000014"><a xlink:title=" ">
<path fill="none" stroke="#63b8ff" d="M1000.07,-391.6C1018.91,-383.56 1045.49,-370.94 1066.38,-356 1085.69,-342.19 1104.68,-322.69 1117.3,-308.65"/>
<polygon fill="#63b8ff" stroke="#63b8ff" points="1119.63,-311.29 1123.61,-301.47 1114.38,-306.67 1119.63,-311.29"/>
</a>
</g>
</g>
<!-- Node17 -->
<g id="Node000017" class="node">
<title>Node17</title>
<g id="a_Node000017"><a xlink:href="a00284.html" target="_top" xlink:title=" ">
<polygon fill="white" stroke="#666666" points="247.75,-300 159,-300 159,-280 247.75,-280 247.75,-300"/>
<text text-anchor="middle" x="203.38" y="-286.5" font-family="Helvetica,sans-Serif" font-size="10.00">PluginManager.h</text>
</a>
</g>
</g>
<!-- Node1&#45;&gt;Node17 -->
<g id="edge22_Node000001_Node000017" class="edge">
<title>Node1&#45;&gt;Node17</title>
<g id="a_edge22_Node000001_Node000017"><a xlink:title=" ">
<path fill="none" stroke="#63b8ff" d="M938.3,-400.29C799.05,-397.46 322.41,-385.67 261.38,-356 240.82,-346.01 224.32,-325.16 214.25,-309.76"/>
<polygon fill="#63b8ff" stroke="#63b8ff" points="217.36,-308.13 209.13,-301.45 211.4,-311.8 217.36,-308.13"/>
</a>
</g>
</g>
<!-- Node20 -->
<g id="Node000020" class="node">
<title>Node20</title>
<g id="a_Node000020"><a xlink:href="a00179.html" target="_top" xlink:title=" ">
<polygon fill="white" stroke="#666666" points="929.88,-188 832.88,-188 832.88,-168 929.88,-168 929.88,-188"/>
<text text-anchor="middle" x="881.38" y="-174.5" font-family="Helvetica,sans-Serif" font-size="10.00">loaderApiInternal.h</text>
</a>
</g>
</g>
<!-- Node1&#45;&gt;Node20 -->
<g id="edge46_Node000001_Node000020" class="edge">
<title>Node1&#45;&gt;Node20</title>
<g id="a_edge46_Node000001_Node000020"><a xlink:title=" ">
<path fill="none" stroke="#63b8ff" d="M976.43,-391.79C976.22,-370.99 973.95,-319.16 957.38,-280 943.48,-247.18 916.62,-215.35 898.85,-196.46"/>
<polygon fill="#63b8ff" stroke="#63b8ff" points="901.46,-194.13 892,-189.37 896.43,-199 901.46,-194.13"/>
</a>
</g>
</g>
<!-- Node26 -->
<g id="Node000026" class="node">
<title>Node26</title>
<g id="a_Node000026"><a xlink:href="a00275.html" target="_top" xlink:title=" ">
<polygon fill="white" stroke="#666666" points="1505.25,-356 1437.5,-356 1437.5,-336 1505.25,-336 1505.25,-356"/>
<text text-anchor="middle" x="1471.38" y="-342.5" font-family="Helvetica,sans-Serif" font-size="10.00">Scheduler.h</text>
</a>
</g>
</g>
<!-- Node1&#45;&gt;Node26 -->
<g id="edge37_Node000001_Node000026" class="edge">
<title>Node1&#45;&gt;Node26</title>
<g id="a_edge37_Node000001_Node000026"><a xlink:title=" ">
<path fill="none" stroke="#63b8ff" d="M1014.39,-396.85C1104.15,-387.06 1328.91,-362.54 1425.78,-351.97"/>
<polygon fill="#63b8ff" stroke="#63b8ff" points="1426.15,-355.45 1435.71,-350.89 1425.39,-348.5 1426.15,-355.45"/>
</a>
</g>
</g>
<!-- Node28 -->
<g id="Node000028" class="node">
<title>Node28</title>
<g id="a_Node000028"><a xlink:href="a00212.html" target="_top" xlink:title=" ">
<polygon fill="white" stroke="#666666" points="1389.25,-300 1315.5,-300 1315.5,-280 1389.25,-280 1389.25,-300"/>
<text text-anchor="middle" x="1352.38" y="-286.5" font-family="Helvetica,sans-Serif" font-size="10.00">ThreadPool.h</text>
</a>
</g>
</g>
<!-- Node1&#45;&gt;Node28 -->
<g id="edge40_Node000001_Node000028" class="edge">
<title>Node1&#45;&gt;Node28</title>
<g id="a_edge40_Node000001_Node000028"><a xlink:title=" ">
<path fill="none" stroke="#63b8ff" d="M1014.41,-401.97C1073.47,-402.05 1189.53,-396.42 1277.38,-356 1301.23,-345.03 1323.26,-324.09 1337.18,-308.93"/>
<polygon fill="#63b8ff" stroke="#63b8ff" points="1339.74,-311.33 1343.75,-301.52 1334.5,-306.69 1339.74,-311.33"/>
</a>
</g>
</g>
<!-- Node31 -->
<g id="Node000031" class="node">
<title>Node31</title>
<g id="a_Node000031"><a xlink:href="a00305.html" target="_top" xlink:title=" ">
<polygon fill="white" stroke="#666666" points="700.25,-356 626.5,-356 626.5,-336 700.25,-336 700.25,-356"/>
<text text-anchor="middle" x="663.38" y="-342.5" font-family="Helvetica,sans-Serif" font-size="10.00">loaderTools.h</text>
</a>
</g>
</g>
<!-- Node1&#45;&gt;Node31 -->
<g id="edge47_Node000001_Node000031" class="edge">
<title>Node1&#45;&gt;Node31</title>
<g id="a_edge47_Node000001_Node000031"><a xlink:title=" ">
<path fill="none" stroke="#63b8ff" d="M938.31,-394.43C881.41,-384.62 774.2,-366.12 711.8,-355.35"/>
<polygon fill="#63b8ff" stroke="#63b8ff" points="712.63,-351.95 702.18,-353.7 711.44,-358.84 712.63,-351.95"/>
</a>
</g>
</g>
<!-- Node3 -->
<g id="Node000003" class="node">
<title>Node3</title>
<g id="a_Node000003"><a xlink:title=" ">
<polygon fill="#e0e0e0" stroke="#999999" points="833.5,-20 785.25,-20 785.25,0 833.5,0 833.5,-20"/>
<text text-anchor="middle" x="809.38" y="-6.5" font-family="Helvetica,sans-Serif" font-size="10.00">cassert</text>
</a>
</g>
</g>
<!-- Node2&#45;&gt;Node3 -->
<g id="edge2_Node000002_Node000003" class="edge">
<title>Node2&#45;&gt;Node3</title>
<g id="a_edge2_Node000002_Node000003"><a xlink:title=" ">
<path fill="none" stroke="#63b8ff" d="M742.48,-55.59C754.37,-47.67 771.64,-36.16 785.65,-26.82"/>
<polygon fill="#63b8ff" stroke="#63b8ff" points="787.52,-29.78 793.9,-21.32 783.63,-23.95 787.52,-29.78"/>
</a>
</g>
</g>
<!-- Node5 -->
<g id="Node000005" class="node">
<title>Node5</title>
<g id="a_Node000005"><a xlink:href="a00233.html" target="_top" xlink:title=" ">
<polygon fill="white" stroke="#666666" points="948.75,-300 854,-300 854,-280 948.75,-280 948.75,-300"/>
<text text-anchor="middle" x="901.38" y="-286.5" font-family="Helvetica,sans-Serif" font-size="10.00">JNIEnvManager.h</text>
</a>
</g>
</g>
<!-- Node4&#45;&gt;Node5 -->
<g id="edge4_Node000004_Node000005" class="edge">
<title>Node4&#45;&gt;Node5</title>
<g id="a_edge4_Node000004_Node000005"><a xlink:title=" ">
<path fill="none" stroke="#63b8ff" d="M907.98,-335.59C906.99,-328.93 905.63,-319.75 904.4,-311.44"/>
<polygon fill="#63b8ff" stroke="#63b8ff" points="907.9,-311.17 902.97,-301.8 900.98,-312.2 907.9,-311.17"/>
</a>
</g>
</g>
<!-- Node5&#45;&gt;Node2 -->
<g id="edge5_Node000005_Node000002" class="edge">
<title>Node5&#45;&gt;Node2</title>
<g id="a_edge5_Node000005_Node000002"><a xlink:title=" ">
<path fill="none" stroke="#63b8ff" d="M894.16,-279.74C868,-246.18 777.82,-130.45 742.61,-85.27"/>
<polygon fill="#63b8ff" stroke="#63b8ff" points="745.46,-83.23 736.55,-77.49 739.94,-87.53 745.46,-83.23"/>
</a>
</g>
</g>
<!-- Node6 -->
<g id="Node000006" class="node">
<title>Node6</title>
<g id="a_Node000006"><a xlink:title=" ">
<polygon fill="#e0e0e0" stroke="#999999" points="660.38,-244 602.38,-244 602.38,-224 660.38,-224 660.38,-244"/>
<text text-anchor="middle" x="631.38" y="-230.5" font-family="Helvetica,sans-Serif" font-size="10.00">functional</text>
</a>
</g>
</g>
<!-- Node5&#45;&gt;Node6 -->
<g id="edge6_Node000005_Node000006" class="edge">
<title>Node5&#45;&gt;Node6</title>
<g id="a_edge6_Node000005_Node000006"><a xlink:title=" ">
<path fill="none" stroke="#63b8ff" d="M853.72,-280.35C809.12,-272.12 740.37,-259.09 671.81,-244.46"/>
<polygon fill="#63b8ff" stroke="#63b8ff" points="672.8,-241.09 662.29,-242.41 671.33,-247.94 672.8,-241.09"/>
</a>
</g>
</g>
<!-- Node7 -->
<g id="Node000007" class="node">
<title>Node7</title>
<g id="a_Node000007"><a xlink:title=" ">
<polygon fill="#e0e0e0" stroke="#999999" points="812.38,-244 778.38,-244 778.38,-224 812.38,-224 812.38,-244"/>
<text text-anchor="middle" x="795.38" y="-230.5" font-family="Helvetica,sans-Serif" font-size="10.00">jni.h</text>
</a>
</g>
</g>
<!-- Node5&#45;&gt;Node7 -->
<g id="edge7_Node000005_Node000007" class="edge">
<title>Node5&#45;&gt;Node7</title>
<g id="a_edge7_Node000005_Node000007"><a xlink:title=" ">
<path fill="none" stroke="#63b8ff" d="M882.91,-279.59C866.27,-271.12 841.59,-258.54 822.67,-248.91"/>
<polygon fill="#63b8ff" stroke="#63b8ff" points="824.42,-245.87 813.92,-244.45 821.25,-252.11 824.42,-245.87"/>
</a>
</g>
</g>
<!-- Node5&#45;&gt;Node8 -->
<g id="edge8_Node000005_Node000008" class="edge">
<title>Node5&#45;&gt;Node8</title>
<g id="a_edge8_Node000005_Node000008"><a xlink:title=" ">
<path fill="none" stroke="#63b8ff" d="M929.77,-279.59C958.24,-270.16 1002.02,-255.66 1031.87,-245.77"/>
<polygon fill="#63b8ff" stroke="#63b8ff" points="1032.73,-249.17 1041.12,-242.7 1030.53,-242.53 1032.73,-249.17"/>
</a>
</g>
</g>
<!-- Node9 -->
<g id="Node000009" class="node">
<title>Node9</title>
<g id="a_Node000009"><a xlink:title=" ">
<polygon fill="#e0e0e0" stroke="#999999" points="721.88,-244 678.88,-244 678.88,-224 721.88,-224 721.88,-244"/>
<text text-anchor="middle" x="700.38" y="-230.5" font-family="Helvetica,sans-Serif" font-size="10.00">thread</text>
</a>
</g>
</g>
<!-- Node5&#45;&gt;Node9 -->
<g id="edge9_Node000005_Node000009" class="edge">
<title>Node5&#45;&gt;Node9</title>
<g id="a_edge9_Node000005_Node000009"><a xlink:title=" ">
<path fill="none" stroke="#63b8ff" d="M866.36,-279.59C828.91,-269.53 769.97,-253.7 733.33,-243.85"/>
<polygon fill="#63b8ff" stroke="#63b8ff" points="734.3,-240.49 723.74,-241.28 732.49,-247.25 734.3,-240.49"/>
</a>
</g>
</g>
<!-- Node10&#45;&gt;Node2 -->
<g id="edge11_Node000010_Node000002" class="edge">
<title>Node10&#45;&gt;Node2</title>
<g id="a_edge11_Node000010_Node000002"><a xlink:title=" ">
<path fill="none" stroke="#63b8ff" d="M1253.72,-225.05C1145.86,-204.32 863.13,-149.06 823.38,-132 794.89,-119.77 766.04,-98.5 747.73,-83.63"/>
<polygon fill="#63b8ff" stroke="#63b8ff" points="750.04,-80.99 740.11,-77.29 745.56,-86.38 750.04,-80.99"/>
</a>
</g>
</g>
<!-- Node11 -->
<g id="Node000011" class="node">
<title>Node11</title>
<g id="a_Node000011"><a xlink:title=" ">
<polygon fill="#e0e0e0" stroke="#999999" points="1115.38,-76 1075.38,-76 1075.38,-56 1115.38,-56 1115.38,-76"/>
<text text-anchor="middle" x="1095.38" y="-62.5" font-family="Helvetica,sans-Serif" font-size="10.00">string</text>
</a>
</g>
</g>
<!-- Node10&#45;&gt;Node11 -->
<g id="edge12_Node000010_Node000011" class="edge">
<title>Node10&#45;&gt;Node11</title>
<g id="a_edge12_Node000010_Node000011"><a xlink:title=" ">
<path fill="none" stroke="#63b8ff" d="M1294.66,-223.59C1293.19,-209.95 1288.72,-184.54 1275.38,-168 1236.07,-119.29 1166.6,-90.03 1126.43,-76.36"/>
<polygon fill="#63b8ff" stroke="#63b8ff" points="1127.72,-73.1 1117.13,-73.31 1125.54,-79.75 1127.72,-73.1"/>
</a>
</g>
</g>
<!-- Node12 -->
<g id="Node000012" class="node">
<title>Node12</title>
<g id="a_Node000012"><a xlink:title=" ">
<polygon fill="#e0e0e0" stroke="#999999" points="1266.88,-188 1223.88,-188 1223.88,-168 1266.88,-168 1266.88,-188"/>
<text text-anchor="middle" x="1245.38" y="-174.5" font-family="Helvetica,sans-Serif" font-size="10.00">vector</text>
</a>
</g>
</g>
<!-- Node10&#45;&gt;Node12 -->
<g id="edge13_Node000010_Node000012" class="edge">
<title>Node10&#45;&gt;Node12</title>
<g id="a_edge13_Node000010_Node000012"><a xlink:title=" ">
<path fill="none" stroke="#63b8ff" d="M1286.67,-223.59C1279.78,-216.16 1269.98,-205.58 1261.66,-196.58"/>
<polygon fill="#63b8ff" stroke="#63b8ff" points="1264.38,-194.37 1255.01,-189.41 1259.24,-199.12 1264.38,-194.37"/>
</a>
</g>
</g>
<!-- Node13&#45;&gt;Node2 -->
<g id="edge15_Node000013_Node000002" class="edge">
<title>Node13&#45;&gt;Node2</title>
<g id="a_edge15_Node000013_Node000002"><a xlink:title=" ">
<path fill="none" stroke="#63b8ff" d="M788.94,-279.76C783.07,-270.94 774.54,-257.09 769.38,-244 747.82,-189.36 735.93,-120.56 731.05,-87.11"/>
<polygon fill="#63b8ff" stroke="#63b8ff" points="734.57,-87.04 729.73,-77.62 727.64,-88.01 734.57,-87.04"/>
</a>
</g>
</g>
<!-- Node13&#45;&gt;Node7 -->
<g id="edge16_Node000013_Node000007" class="edge">
<title>Node13&#45;&gt;Node7</title>
<g id="a_edge16_Node000013_Node000007"><a xlink:title=" ">
<path fill="none" stroke="#63b8ff" d="M795.38,-279.59C795.38,-273.01 795.38,-263.96 795.38,-255.73"/>
<polygon fill="#63b8ff" stroke="#63b8ff" points="798.88,-255.81 795.38,-245.81 791.88,-255.81 798.88,-255.81"/>
</a>
</g>
</g>
<!-- Node14&#45;&gt;Node8 -->
<g id="edge19_Node000014_Node000008" class="edge">
<title>Node14&#45;&gt;Node8</title>
<g id="a_edge19_Node000014_Node000008"><a xlink:title=" ">
<path fill="none" stroke="#63b8ff" d="M1120.53,-279.59C1110.68,-271.77 1096.44,-260.46 1084.77,-251.19"/>
<polygon fill="#63b8ff" stroke="#63b8ff" points="1087.28,-248.72 1077.27,-245.24 1082.92,-254.2 1087.28,-248.72"/>
</a>
</g>
</g>
<!-- Node14&#45;&gt;Node11 -->
<g id="edge21_Node000014_Node000011" class="edge">
<title>Node14&#45;&gt;Node11</title>
<g id="a_edge21_Node000014_Node000011"><a xlink:title=" ">
<path fill="none" stroke="#63b8ff" d="M1130.83,-279.74C1125.33,-246.74 1106.59,-134.31 1098.81,-87.61"/>
<polygon fill="#63b8ff" stroke="#63b8ff" points="1102.27,-87.08 1097.17,-77.79 1095.36,-88.23 1102.27,-87.08"/>
</a>
</g>
</g>
<!-- Node15 -->
<g id="Node000015" class="node">
<title>Node15</title>
<g id="a_Node000015"><a xlink:title=" ">
<polygon fill="#e0e0e0" stroke="#999999" points="1236.38,-244 1142.38,-244 1142.38,-224 1236.38,-224 1236.38,-244"/>
<text text-anchor="middle" x="1189.38" y="-230.5" font-family="Helvetica,sans-Serif" font-size="10.00">condition_variable</text>
</a>
</g>
</g>
<!-- Node14&#45;&gt;Node15 -->
<g id="edge18_Node000014_Node000015" class="edge">
<title>Node14&#45;&gt;Node15</title>
<g id="a_edge18_Node000014_Node000015"><a xlink:title=" ">
<path fill="none" stroke="#63b8ff" d="M1142.3,-279.59C1150.31,-272.01 1161.79,-261.13 1171.41,-252.02"/>
<polygon fill="#63b8ff" stroke="#63b8ff" points="1173.61,-254.76 1178.46,-245.34 1168.79,-249.68 1173.61,-254.76"/>
</a>
</g>
</g>
<!-- Node16 -->
<g id="Node000016" class="node">
<title>Node16</title>
<g id="a_Node000016"><a xlink:title=" ">
<polygon fill="#e0e0e0" stroke="#999999" points="1397.5,-244 1355.25,-244 1355.25,-224 1397.5,-224 1397.5,-244"/>
<text text-anchor="middle" x="1376.38" y="-230.5" font-family="Helvetica,sans-Serif" font-size="10.00">queue</text>
</a>
</g>
</g>
<!-- Node14&#45;&gt;Node16 -->
<g id="edge20_Node000014_Node000016" class="edge">
<title>Node14&#45;&gt;Node16</title>
<g id="a_edge20_Node000014_Node000016"><a xlink:title=" ">
<path fill="none" stroke="#63b8ff" d="M1182.11,-279.58C1222.98,-271.6 1282.6,-259.39 1343.73,-244.26"/>
<polygon fill="#63b8ff" stroke="#63b8ff" points="1344.43,-247.69 1353.28,-241.87 1342.73,-240.9 1344.43,-247.69"/>
</a>
</g>
</g>
<!-- Node17&#45;&gt;Node6 -->
<g id="edge33_Node000017_Node000006" class="edge">
<title>Node17&#45;&gt;Node6</title>
<g id="a_edge33_Node000017_Node000006"><a xlink:title=" ">
<path fill="none" stroke="#63b8ff" d="M248.07,-285.57C318.76,-279.76 460.84,-266.57 590.67,-244.29"/>
<polygon fill="#63b8ff" stroke="#63b8ff" points="591.25,-247.74 600.5,-242.58 590.04,-240.85 591.25,-247.74"/>
</a>
</g>
</g>
<!-- Node18 -->
<g id="Node000018" class="node">
<title>Node18</title>
<g id="a_Node000018"><a xlink:href="a00182.html" target="_top" xlink:title=" ">
<polygon fill="white" stroke="#666666" points="584.38,-244 496.38,-244 496.38,-224 584.38,-224 584.38,-244"/>
<text text-anchor="middle" x="540.38" y="-230.5" font-family="Helvetica,sans-Serif" font-size="10.00">commonTypes.h</text>
</a>
</g>
</g>
<!-- Node17&#45;&gt;Node18 -->
<g id="edge23_Node000017_Node000018" class="edge">
<title>Node17&#45;&gt;Node18</title>
<g id="a_edge23_Node000017_Node000018"><a xlink:title=" ">
<path fill="none" stroke="#63b8ff" d="M248.13,-281.83C309.23,-272.04 418.71,-254.5 484.93,-243.88"/>
<polygon fill="#63b8ff" stroke="#63b8ff" points="485.16,-247.39 494.48,-242.35 484.05,-240.48 485.16,-247.39"/>
</a>
</g>
</g>
<!-- Node23 -->
<g id="Node000023" class="node">
<title>Node23</title>
<g id="a_Node000023"><a xlink:title=" ">
<polygon fill="#e0e0e0" stroke="#999999" points="152,-244 100.75,-244 100.75,-224 152,-224 152,-244"/>
<text text-anchor="middle" x="126.38" y="-230.5" font-family="Helvetica,sans-Serif" font-size="10.00">memory</text>
</a>
</g>
</g>
<!-- Node17&#45;&gt;Node23 -->
<g id="edge34_Node000017_Node000023" class="edge">
<title>Node17&#45;&gt;Node23</title>
<g id="a_edge34_Node000017_Node000023"><a xlink:title=" ">
<path fill="none" stroke="#63b8ff" d="M189.96,-279.59C178.77,-271.74 162.56,-260.38 149.32,-251.09"/>
<polygon fill="#63b8ff" stroke="#63b8ff" points="151.33,-248.22 141.13,-245.35 147.31,-253.96 151.33,-248.22"/>
</a>
</g>
</g>
<!-- Node24 -->
<g id="Node000024" class="node">
<title>Node24</title>
<g id="a_Node000024"><a xlink:title=" ">
<polygon fill="#e0e0e0" stroke="#999999" points="247.12,-244 169.62,-244 169.62,-224 247.12,-224 247.12,-244"/>
<text text-anchor="middle" x="208.38" y="-230.5" font-family="Helvetica,sans-Serif" font-size="10.00">shared_mutex</text>
</a>
</g>
</g>
<!-- Node17&#45;&gt;Node24 -->
<g id="edge35_Node000017_Node000024" class="edge">
<title>Node17&#45;&gt;Node24</title>
<g id="a_edge35_Node000017_Node000024"><a xlink:title=" ">
<path fill="none" stroke="#63b8ff" d="M204.25,-279.59C204.86,-273.01 205.69,-263.96 206.46,-255.73"/>
<polygon fill="#63b8ff" stroke="#63b8ff" points="209.94,-256.09 207.37,-245.81 202.97,-255.44 209.94,-256.09"/>
</a>
</g>
</g>
<!-- Node25 -->
<g id="Node000025" class="node">
<title>Node25</title>
<g id="a_Node000025"><a xlink:title=" ">
<polygon fill="#e0e0e0" stroke="#999999" points="82.75,-244 0,-244 0,-224 82.75,-224 82.75,-244"/>
<text text-anchor="middle" x="41.38" y="-230.5" font-family="Helvetica,sans-Serif" font-size="10.00">unordered_map</text>
</a>
</g>
</g>
<!-- Node17&#45;&gt;Node25 -->
<g id="edge36_Node000017_Node000025" class="edge">
<title>Node17&#45;&gt;Node25</title>
<g id="a_edge36_Node000017_Node000025"><a xlink:title=" ">
<path fill="none" stroke="#63b8ff" d="M175.16,-279.59C148.95,-270.86 109.69,-257.77 80.47,-248.03"/>
<polygon fill="#63b8ff" stroke="#63b8ff" points="81.84,-244.8 71.25,-244.96 79.63,-251.44 81.84,-244.8"/>
</a>
</g>
</g>
<!-- Node18&#45;&gt;Node2 -->
<g id="edge24_Node000018_Node000002" class="edge">
<title>Node18&#45;&gt;Node2</title>
<g id="a_edge24_Node000018_Node000002"><a xlink:title=" ">
<path fill="none" stroke="#63b8ff" d="M551.02,-223.6C581.66,-196.55 670.33,-118.26 709.45,-83.71"/>
<polygon fill="#63b8ff" stroke="#63b8ff" points="711.53,-86.54 716.71,-77.3 706.9,-81.29 711.53,-86.54"/>
</a>
</g>
</g>
<!-- Node19 -->
<g id="Node000019" class="node">
<title>Node19</title>
<g id="a_Node000019"><a xlink:href="a00044.html" target="_top" xlink:title=" ">
<polygon fill="white" stroke="#666666" points="1048.25,-132 968.5,-132 968.5,-112 1048.25,-112 1048.25,-132"/>
<text text-anchor="middle" x="1008.38" y="-118.5" font-family="Helvetica,sans-Serif" font-size="10.00">PluginConfig.h</text>
</a>
</g>
</g>
<!-- Node18&#45;&gt;Node19 -->
<g id="edge25_Node000018_Node000019" class="edge">
<title>Node18&#45;&gt;Node19</title>
<g id="a_edge25_Node000018_Node000019"><a xlink:title=" ">
<path fill="none" stroke="#63b8ff" d="M580.68,-223.53C665.71,-203.54 863.32,-157.09 957.15,-135.04"/>
<polygon fill="#63b8ff" stroke="#63b8ff" points="957.92,-138.45 966.86,-132.76 956.32,-131.64 957.92,-138.45"/>
</a>
</g>
</g>
<!-- Node18&#45;&gt;Node20 -->
<g id="edge27_Node000018_Node000020" class="edge">
<title>Node18&#45;&gt;Node20</title>
<g id="a_edge27_Node000018_Node000020"><a xlink:title=" ">
<path fill="none" stroke="#63b8ff" d="M584.61,-225.44C587.58,-224.95 590.52,-224.47 593.38,-224 672.04,-211.18 762.92,-197.1 821.21,-188.16"/>
<polygon fill="#63b8ff" stroke="#63b8ff" points="821.57,-191.65 830.93,-186.68 820.51,-184.73 821.57,-191.65"/>
</a>
</g>
</g>
<!-- Node22 -->
<g id="Node000022" class="node">
<title>Node22</title>
<g id="a_Node000022"><a xlink:title=" ">
<polygon fill="#e0e0e0" stroke="#999999" points="581.75,-188 499,-188 499,-168 581.75,-168 581.75,-188"/>
<text text-anchor="middle" x="540.38" y="-174.5" font-family="Helvetica,sans-Serif" font-size="10.00">polym/Msg.hpp</text>
</a>
</g>
</g>
<!-- Node18&#45;&gt;Node22 -->
<g id="edge32_Node000018_Node000022" class="edge">
<title>Node18&#45;&gt;Node22</title>
<g id="a_edge32_Node000018_Node000022"><a xlink:title=" ">
<path fill="none" stroke="#63b8ff" d="M540.38,-223.59C540.38,-217.01 540.38,-207.96 540.38,-199.73"/>
<polygon fill="#63b8ff" stroke="#63b8ff" points="543.88,-199.81 540.38,-189.81 536.88,-199.81 543.88,-199.81"/>
</a>
</g>
</g>
<!-- Node19&#45;&gt;Node11 -->
<g id="edge26_Node000019_Node000011" class="edge">
<title>Node19&#45;&gt;Node11</title>
<g id="a_edge26_Node000019_Node000011"><a xlink:title=" ">
<path fill="none" stroke="#63b8ff" d="M1023.53,-111.59C1036.42,-103.59 1055.21,-91.93 1070.33,-82.54"/>
<polygon fill="#63b8ff" stroke="#63b8ff" points="1072.17,-85.53 1078.82,-77.28 1068.47,-79.58 1072.17,-85.53"/>
</a>
</g>
</g>
<!-- Node21 -->
<g id="Node000021" class="node">
<title>Node21</title>
<g id="a_Node000021"><a xlink:href="a00191.html" target="_top" xlink:title=" ">
<polygon fill="white" stroke="#666666" points="950,-132 832.75,-132 832.75,-112 950,-112 950,-132"/>
<text text-anchor="middle" x="891.38" y="-118.5" font-family="Helvetica,sans-Serif" font-size="10.00">MiraiCPStringInternal.h</text>
</a>
</g>
</g>
<!-- Node20&#45;&gt;Node21 -->
<g id="edge28_Node000020_Node000021" class="edge">
<title>Node20&#45;&gt;Node21</title>
<g id="a_edge28_Node000020_Node000021"><a xlink:title=" ">
<path fill="none" stroke="#63b8ff" d="M883.12,-167.59C884.35,-160.93 886.05,-151.75 887.59,-143.44"/>
<polygon fill="#63b8ff" stroke="#63b8ff" points="891,-144.26 889.38,-133.79 884.12,-142.98 891,-144.26"/>
</a>
</g>
</g>
<!-- Node21&#45;&gt;Node2 -->
<g id="edge29_Node000021_Node000002" class="edge">
<title>Node21&#45;&gt;Node2</title>
<g id="a_edge29_Node000021_Node000002"><a xlink:title=" ">
<path fill="none" stroke="#63b8ff" d="M862.98,-111.59C836.62,-102.86 797.11,-89.77 767.71,-80.03"/>
<polygon fill="#63b8ff" stroke="#63b8ff" points="769.02,-76.78 758.43,-76.96 766.82,-83.42 769.02,-76.78"/>
</a>
</g>
</g>
<!-- Node21&#45;&gt;Node3 -->
<g id="edge30_Node000021_Node000003" class="edge">
<title>Node21&#45;&gt;Node3</title>
<g id="a_edge30_Node000021_Node000003"><a xlink:title=" ">
<path fill="none" stroke="#63b8ff" d="M884.38,-111.62C870.83,-93.44 840.75,-53.09 823.08,-29.38"/>
<polygon fill="#63b8ff" stroke="#63b8ff" points="826.04,-27.49 817.25,-21.57 820.42,-31.68 826.04,-27.49"/>
</a>
</g>
</g>
<!-- Node21&#45;&gt;Node11 -->
<g id="edge31_Node000021_Node000011" class="edge">
<title>Node21&#45;&gt;Node11</title>
<g id="a_edge31_Node000021_Node000011"><a xlink:title=" ">
<path fill="none" stroke="#63b8ff" d="M926.91,-111.59C965.64,-101.34 1027.02,-85.09 1064.02,-75.3"/>
<polygon fill="#63b8ff" stroke="#63b8ff" points="1064.88,-78.69 1073.65,-72.75 1063.09,-71.93 1064.88,-78.69"/>
</a>
</g>
</g>
<!-- Node26&#45;&gt;Node11 -->
<g id="edge39_Node000026_Node000011" class="edge">
<title>Node26&#45;&gt;Node11</title>
<g id="a_edge39_Node000026_Node000011"><a xlink:title=" ">
<path fill="none" stroke="#63b8ff" d="M1488,-335.53C1514.75,-318.9 1564.38,-281.76 1564.38,-235 1564.38,-235 1564.38,-235 1564.38,-177 1564.38,-87 1232.87,-70.58 1127.27,-67.63"/>
<polygon fill="#63b8ff" stroke="#63b8ff" points="1127.43,-64.14 1117.34,-67.38 1127.25,-71.13 1127.43,-64.14"/>
</a>
</g>
</g>
<!-- Node27 -->
<g id="Node000027" class="node">
<title>Node27</title>
<g id="a_Node000027"><a xlink:title=" ">
<polygon fill="#e0e0e0" stroke="#999999" points="1494,-300 1448.75,-300 1448.75,-280 1494,-280 1494,-300"/>
<text text-anchor="middle" x="1471.38" y="-286.5" font-family="Helvetica,sans-Serif" font-size="10.00">chrono</text>
</a>
</g>
</g>
<!-- Node26&#45;&gt;Node27 -->
<g id="edge38_Node000026_Node000027" class="edge">
<title>Node26&#45;&gt;Node27</title>
<g id="a_edge38_Node000026_Node000027"><a xlink:title=" ">
<path fill="none" stroke="#63b8ff" d="M1471.38,-335.59C1471.38,-329.01 1471.38,-319.96 1471.38,-311.73"/>
<polygon fill="#63b8ff" stroke="#63b8ff" points="1474.88,-311.81 1471.38,-301.81 1467.88,-311.81 1474.88,-311.81"/>
</a>
</g>
</g>
<!-- Node28&#45;&gt;Node6 -->
<g id="edge42_Node000028_Node000006" class="edge">
<title>Node28&#45;&gt;Node6</title>
<g id="a_edge42_Node000028_Node000006"><a xlink:title=" ">
<path fill="none" stroke="#63b8ff" d="M1315.01,-286.9C1187.34,-279.69 771.22,-255.78 672.12,-243.98"/>
<polygon fill="#63b8ff" stroke="#63b8ff" points="672.61,-240.52 662.24,-242.67 671.69,-247.45 672.61,-240.52"/>
</a>
</g>
</g>
<!-- Node28&#45;&gt;Node10 -->
<g id="edge41_Node000028_Node000010" class="edge">
<title>Node28&#45;&gt;Node10</title>
<g id="a_edge41_Node000028_Node000010"><a xlink:title=" ">
<path fill="none" stroke="#63b8ff" d="M1342.45,-279.59C1334.44,-272.01 1322.96,-261.13 1313.34,-252.02"/>
<polygon fill="#63b8ff" stroke="#63b8ff" points="1315.96,-249.68 1306.29,-245.34 1311.14,-254.76 1315.96,-249.68"/>
</a>
</g>
</g>
<!-- Node28&#45;&gt;Node16 -->
<g id="edge44_Node000028_Node000016" class="edge">
<title>Node28&#45;&gt;Node16</title>
<g id="a_edge44_Node000028_Node000016"><a xlink:title=" ">
<path fill="none" stroke="#63b8ff" d="M1356.56,-279.59C1359.62,-272.7 1363.89,-263.1 1367.68,-254.57"/>
<polygon fill="#63b8ff" stroke="#63b8ff" points="1370.76,-256.24 1371.63,-245.68 1364.37,-253.4 1370.76,-256.24"/>
</a>
</g>
</g>
<!-- Node29 -->
<g id="Node000029" class="node">
<title>Node29</title>
<g id="a_Node000029"><a xlink:title=" ">
<polygon fill="#e0e0e0" stroke="#999999" points="1456.75,-244 1416,-244 1416,-224 1456.75,-224 1456.75,-244"/>
<text text-anchor="middle" x="1436.38" y="-230.5" font-family="Helvetica,sans-Serif" font-size="10.00">future</text>
</a>
</g>
</g>
<!-- Node28&#45;&gt;Node29 -->
<g id="edge43_Node000028_Node000029" class="edge">
<title>Node28&#45;&gt;Node29</title>
<g id="a_edge43_Node000028_Node000029"><a xlink:title=" ">
<path fill="none" stroke="#63b8ff" d="M1367.01,-279.59C1379.46,-271.59 1397.59,-259.93 1412.2,-250.54"/>
<polygon fill="#63b8ff" stroke="#63b8ff" points="1413.84,-253.65 1420.36,-245.3 1410.05,-247.76 1413.84,-253.65"/>
</a>
</g>
</g>
<!-- Node30 -->
<g id="Node000030" class="node">
<title>Node30</title>
<g id="a_Node000030"><a xlink:title=" ">
<polygon fill="#e0e0e0" stroke="#999999" points="1536.25,-244 1474.5,-244 1474.5,-224 1536.25,-224 1536.25,-244"/>
<text text-anchor="middle" x="1505.38" y="-230.5" font-family="Helvetica,sans-Serif" font-size="10.00">type_traits</text>
</a>
</g>
</g>
<!-- Node28&#45;&gt;Node30 -->
<g id="edge45_Node000028_Node000030" class="edge">
<title>Node28&#45;&gt;Node30</title>
<g id="a_edge45_Node000028_Node000030"><a xlink:title=" ">
<path fill="none" stroke="#63b8ff" d="M1379.03,-279.59C1403.56,-270.94 1440.2,-258 1467.72,-248.29"/>
<polygon fill="#63b8ff" stroke="#63b8ff" points="1468.82,-251.61 1477.09,-244.98 1466.49,-245.01 1468.82,-251.61"/>
</a>
</g>
</g>
<!-- Node31&#45;&gt;Node2 -->
<g id="edge48_Node000031_Node000002" class="edge">
<title>Node31&#45;&gt;Node2</title>
<g id="a_edge48_Node000031_Node000002"><a xlink:title=" ">
<path fill="none" stroke="#63b8ff" d="M626.22,-344.88C549.22,-343.86 375.78,-337.36 332.38,-300 309.57,-280.36 313.38,-265.1 313.38,-235 313.38,-235 313.38,-235 313.38,-177 313.38,-103.86 557.29,-78.21 671.12,-70.23"/>
<polygon fill="#63b8ff" stroke="#63b8ff" points="671.13,-73.73 680.87,-69.57 670.65,-66.75 671.13,-73.73"/>
</a>
</g>
</g>
<!-- Node31&#45;&gt;Node9 -->
<g id="edge59_Node000031_Node000009" class="edge">
<title>Node31&#45;&gt;Node9</title>
<g id="a_edge59_Node000031_Node000009"><a xlink:title=" ">
<path fill="none" stroke="#63b8ff" d="M677.3,-335.8C688.05,-327.79 702.12,-315.11 708.38,-300 714.3,-285.68 711.65,-268.19 707.88,-254.96"/>
<polygon fill="#63b8ff" stroke="#63b8ff" points="711.26,-254.04 704.78,-245.65 704.62,-256.25 711.26,-254.04"/>
</a>
</g>
</g>
<!-- Node31&#45;&gt;Node11 -->
<g id="edge58_Node000031_Node000011" class="edge">
<title>Node31&#45;&gt;Node11</title>
<g id="a_edge58_Node000031_Node000011"><a xlink:title=" ">
<path fill="none" stroke="#63b8ff" d="M700.52,-343.22C769.93,-339.28 916.05,-327.84 957.38,-300 1035.77,-247.18 1076.15,-133.6 1089.87,-87.29"/>
<polygon fill="#63b8ff" stroke="#63b8ff" points="1093.2,-88.37 1092.56,-77.8 1086.46,-86.46 1093.2,-88.37"/>
</a>
</g>
</g>
<!-- Node31&#45;&gt;Node13 -->
<g id="edge49_Node000031_Node000013" class="edge">
<title>Node31&#45;&gt;Node13</title>
<g id="a_edge49_Node000031_Node000013"><a xlink:title=" ">
<path fill="none" stroke="#63b8ff" d="M686.37,-335.59C707.16,-327.09 738.03,-314.46 761.61,-304.81"/>
<polygon fill="#63b8ff" stroke="#63b8ff" points="762.87,-308.08 770.8,-301.05 760.22,-301.6 762.87,-308.08"/>
</a>
</g>
</g>
<!-- Node32 -->
<g id="Node000032" class="node">
<title>Node32</title>
<g id="a_Node000032"><a xlink:href="a00293.html" target="_top" xlink:title=" ">
<polygon fill="white" stroke="#666666" points="699.5,-300 627.25,-300 627.25,-280 699.5,-280 699.5,-300"/>
<text text-anchor="middle" x="663.38" y="-286.5" font-family="Helvetica,sans-Serif" font-size="10.00">PluginData.h</text>
</a>
</g>
</g>
<!-- Node31&#45;&gt;Node32 -->
<g id="edge50_Node000031_Node000032" class="edge">
<title>Node31&#45;&gt;Node32</title>
<g id="a_edge50_Node000031_Node000032"><a xlink:title=" ">
<path fill="none" stroke="#63b8ff" d="M663.38,-335.59C663.38,-329.01 663.38,-319.96 663.38,-311.73"/>
<polygon fill="#63b8ff" stroke="#63b8ff" points="666.88,-311.81 663.38,-301.81 659.88,-311.81 666.88,-311.81"/>
</a>
</g>
</g>
<!-- Node33 -->
<g id="Node000033" class="node">
<title>Node33</title>
<g id="a_Node000033"><a xlink:href="a00047.html" target="_top" xlink:title=" ">
<polygon fill="white" stroke="#666666" points="426.88,-300 341.88,-300 341.88,-280 426.88,-280 426.88,-300"/>
<text text-anchor="middle" x="384.38" y="-286.5" font-family="Helvetica,sans-Serif" font-size="10.00">commonTools.h</text>
</a>
</g>
</g>
<!-- Node31&#45;&gt;Node33 -->
<g id="edge53_Node000031_Node000033" class="edge">
<title>Node31&#45;&gt;Node33</title>
<g id="a_edge53_Node000031_Node000033"><a xlink:title=" ">
<path fill="none" stroke="#63b8ff" d="M626.04,-337.77C577.69,-328.42 493.12,-312.05 437.93,-301.37"/>
<polygon fill="#63b8ff" stroke="#63b8ff" points="438.94,-298 428.46,-299.53 437.61,-304.87 438.94,-298"/>
</a>
</g>
</g>
<!-- Node34 -->
<g id="Node000034" class="node">
<title>Node34</title>
<g id="a_Node000034"><a xlink:title=" ">
<polygon fill="#e0e0e0" stroke="#999999" points="542.25,-300 444.5,-300 444.5,-280 542.25,-280 542.25,-300"/>
<text text-anchor="middle" x="493.38" y="-286.5" font-family="Helvetica,sans-Serif" font-size="10.00">nlohmann/json.hpp</text>
</a>
</g>
</g>
<!-- Node31&#45;&gt;Node34 -->
<g id="edge56_Node000031_Node000034" class="edge">
<title>Node31&#45;&gt;Node34</title>
<g id="a_edge56_Node000031_Node000034"><a xlink:title=" ">
<path fill="none" stroke="#63b8ff" d="M633.76,-335.59C606.14,-326.82 564.7,-313.66 534,-303.9"/>
<polygon fill="#63b8ff" stroke="#63b8ff" points="535.25,-300.63 524.66,-300.94 533.13,-307.3 535.25,-300.63"/>
</a>
</g>
</g>
<!-- Node35 -->
<g id="Node000035" class="node">
<title>Node35</title>
<g id="a_Node000035"><a xlink:title=" ">
<polygon fill="#e0e0e0" stroke="#999999" points="608.88,-300 559.88,-300 559.88,-280 608.88,-280 608.88,-300"/>
<text text-anchor="middle" x="584.38" y="-286.5" font-family="Helvetica,sans-Serif" font-size="10.00">fstream</text>
</a>
</g>
</g>
<!-- Node31&#45;&gt;Node35 -->
<g id="edge57_Node000031_Node000035" class="edge">
<title>Node31&#45;&gt;Node35</title>
<g id="a_edge57_Node000031_Node000035"><a xlink:title=" ">
<path fill="none" stroke="#63b8ff" d="M649.61,-335.59C638.02,-327.67 621.18,-316.16 607.51,-306.82"/>
<polygon fill="#63b8ff" stroke="#63b8ff" points="609.72,-304.09 599.49,-301.33 605.77,-309.87 609.72,-304.09"/>
</a>
</g>
</g>
<!-- Node32&#45;&gt;Node10 -->
<g id="edge51_Node000032_Node000010" class="edge">
<title>Node32&#45;&gt;Node10</title>
<g id="a_edge51_Node000032_Node000010"><a xlink:title=" ">
<path fill="none" stroke="#63b8ff" d="M699.71,-284.77C714.21,-283.16 731.07,-281.38 746.38,-280 964.15,-260.34 1022.82,-271.35 1242.42,-244.25"/>
<polygon fill="#63b8ff" stroke="#63b8ff" points="1242.69,-247.74 1252.18,-243.03 1241.83,-240.8 1242.69,-247.74"/>
</a>
</g>
</g>
<!-- Node32&#45;&gt;Node18 -->
<g id="edge52_Node000032_Node000018" class="edge">
<title>Node32&#45;&gt;Node18</title>
<g id="a_edge52_Node000032_Node000018"><a xlink:title=" ">
<path fill="none" stroke="#63b8ff" d="M641.95,-279.59C622.75,-271.17 594.33,-258.69 572.43,-249.07"/>
<polygon fill="#63b8ff" stroke="#63b8ff" points="573.92,-245.9 563.35,-245.09 571.1,-252.31 573.92,-245.9"/>
</a>
</g>
</g>
<!-- Node33&#45;&gt;Node2 -->
<g id="edge54_Node000033_Node000002" class="edge">
<title>Node33&#45;&gt;Node2</title>
<g id="a_edge54_Node000033_Node000002"><a xlink:title=" ">
<path fill="none" stroke="#63b8ff" d="M390.43,-279.53C405.1,-257.29 444.67,-201.07 490.38,-168 550.38,-124.58 631.92,-95.17 682.3,-79.75"/>
<polygon fill="#63b8ff" stroke="#63b8ff" points="683.15,-83.15 691.72,-76.93 681.14,-76.44 683.15,-83.15"/>
</a>
</g>
</g>
<!-- Node33&#45;&gt;Node6 -->
<g id="edge55_Node000033_Node000006" class="edge">
<title>Node33&#45;&gt;Node6</title>
<g id="a_edge55_Node000033_Node000006"><a xlink:title=" ">
<path fill="none" stroke="#63b8ff" d="M427.26,-280.03C467.15,-271.63 528.54,-258.56 590.73,-244.57"/>
<polygon fill="#63b8ff" stroke="#63b8ff" points="591.47,-247.99 600.45,-242.37 589.93,-241.16 591.47,-247.99"/>
</a>
</g>
</g>
</g>
</svg>
