<?xml version="1.0" encoding="UTF-8" standalone="no"?>
<!DOCTYPE svg PUBLIC "-//W3C//DTD SVG 1.1//EN"
 "http://www.w3.org/Graphics/SVG/1.1/DTD/svg11.dtd">
<!-- Generated by graphviz version 9.0.0 (0)
 -->
<!-- Title: Group.cpp Pages: 1 -->
<svg width="1580pt" height="432pt"
 viewBox="0.00 0.00 1580.39 432.00" xmlns="http://www.w3.org/2000/svg" xmlns:xlink="http://www.w3.org/1999/xlink">
<g id="graph0" class="graph" transform="scale(1 1) rotate(0) translate(4 428)">
<title>Group.cpp</title>
<!-- Node1 -->
<g id="Node000001" class="node">
<title>Node1</title>
<g id="a_Node000001"><a xlink:title=" ">
<polygon fill="#999999" stroke="#666666" points="840.64,-424 779.64,-424 779.64,-404 840.64,-404 840.64,-424"/>
<text text-anchor="middle" x="810.14" y="-410.5" font-family="Helvetica,sans-Serif" font-size="10.00">Group.cpp</text>
</a>
</g>
</g>
<!-- Node2 -->
<g id="Node000002" class="node">
<title>Node2</title>
<g id="a_Node000002"><a xlink:href="a00056.html" target="_top" xlink:title=" ">
<polygon fill="white" stroke="#666666" points="835.39,-362 784.89,-362 784.89,-342 835.39,-342 835.39,-362"/>
<text text-anchor="middle" x="810.14" y="-348.5" font-family="Helvetica,sans-Serif" font-size="10.00">Group.h</text>
</a>
</g>
</g>
<!-- Node1&#45;&gt;Node2 -->
<g id="edge1_Node000001_Node000002" class="edge">
<title>Node1&#45;&gt;Node2</title>
<g id="a_edge1_Node000001_Node000002"><a xlink:title=" ">
<path fill="none" stroke="#63b8ff" d="M810.14,-403.62C810.14,-395.56 810.14,-383.65 810.14,-373.41"/>
<polygon fill="#63b8ff" stroke="#63b8ff" points="813.64,-373.63 810.14,-363.63 806.64,-373.63 813.64,-373.63"/>
</a>
</g>
</g>
<!-- Node20 -->
<g id="Node000020" class="node">
<title>Node20</title>
<g id="a_Node000020"><a xlink:href="a00329.html" target="_top" xlink:title=" ">
<polygon fill="white" stroke="#666666" points="316.89,-368 161.39,-368 161.39,-336 316.89,-336 316.89,-368"/>
<text text-anchor="start" x="169.39" y="-354.5" font-family="Helvetica,sans-Serif" font-size="10.00">ContactDataType/GroupRelated</text>
<text text-anchor="middle" x="239.14" y="-342.5" font-family="Helvetica,sans-Serif" font-size="10.00">Data.h</text>
</a>
</g>
</g>
<!-- Node1&#45;&gt;Node20 -->
<g id="edge27_Node000001_Node000020" class="edge">
<title>Node1&#45;&gt;Node20</title>
<g id="a_edge27_Node000001_Node000020"><a xlink:title=" ">
<path fill="none" stroke="#63b8ff" d="M779.44,-409.77C695.37,-400.94 459.02,-376.1 328.5,-362.39"/>
<polygon fill="#63b8ff" stroke="#63b8ff" points="329.19,-358.94 318.87,-361.38 328.45,-365.9 329.19,-358.94"/>
</a>
</g>
</g>
<!-- Node25 -->
<g id="Node000025" class="node">
<title>Node25</title>
<g id="a_Node000025"><a xlink:href="a00059.html" target="_top" xlink:title=" ">
<polygon fill="white" stroke="#666666" points="472.02,-244 404.27,-244 404.27,-224 472.02,-224 472.02,-244"/>
<text text-anchor="middle" x="438.14" y="-230.5" font-family="Helvetica,sans-Serif" font-size="10.00">Exception.h</text>
</a>
</g>
</g>
<!-- Node1&#45;&gt;Node25 -->
<g id="edge34_Node000001_Node000025" class="edge">
<title>Node1&#45;&gt;Node25</title>
<g id="a_edge34_Node000001_Node000025"><a xlink:title=" ">
<path fill="none" stroke="#63b8ff" d="M779.33,-410.26C738.85,-405.74 666.34,-394.44 610.14,-368 546.38,-338 484.14,-281.02 455.12,-252.37"/>
<polygon fill="#63b8ff" stroke="#63b8ff" points="457.82,-250.13 448.28,-245.52 452.87,-255.07 457.82,-250.13"/>
</a>
</g>
</g>
<!-- Node31 -->
<g id="Node000031" class="node">
<title>Node31</title>
<g id="a_Node000031"><a xlink:href="a00389.html" target="_top" xlink:title=" ">
<polygon fill="white" stroke="#666666" points="1572.39,-132 1473.89,-132 1473.89,-112 1572.39,-112 1572.39,-132"/>
<text text-anchor="middle" x="1523.14" y="-118.5" font-family="Helvetica,sans-Serif" font-size="10.00">ExceptionHandle.h</text>
</a>
</g>
</g>
<!-- Node1&#45;&gt;Node31 -->
<g id="edge47_Node000001_Node000031" class="edge">
<title>Node1&#45;&gt;Node31</title>
<g id="a_edge47_Node000001_Node000031"><a xlink:title=" ">
<path fill="none" stroke="#63b8ff" d="M841.06,-410.52C970.23,-399.77 1460.14,-354.8 1460.14,-291 1460.14,-291 1460.14,-291 1460.14,-233 1460.14,-196.36 1486.79,-160.85 1505.43,-140.5"/>
<polygon fill="#63b8ff" stroke="#63b8ff" points="1507.87,-143 1512.25,-133.36 1502.81,-138.17 1507.87,-143"/>
</a>
</g>
</g>
<!-- Node32 -->
<g id="Node000032" class="node">
<title>Node32</title>
<g id="a_Node000032"><a xlink:href="a00050.html" target="_top" xlink:title=" ">
<polygon fill="white" stroke="#666666" points="687.39,-362 618.89,-362 618.89,-342 687.39,-342 687.39,-362"/>
<text text-anchor="middle" x="653.14" y="-348.5" font-family="Helvetica,sans-Serif" font-size="10.00">JsonTools.h</text>
</a>
</g>
</g>
<!-- Node1&#45;&gt;Node32 -->
<g id="edge50_Node000001_Node000032" class="edge">
<title>Node1&#45;&gt;Node32</title>
<g id="a_edge50_Node000001_Node000032"><a xlink:title=" ">
<path fill="none" stroke="#63b8ff" d="M785.61,-403.62C759.53,-393.66 718.06,-377.81 688.46,-366.5"/>
<polygon fill="#63b8ff" stroke="#63b8ff" points="689.77,-363.25 679.17,-362.95 687.27,-369.79 689.77,-363.25"/>
</a>
</g>
</g>
<!-- Node33 -->
<g id="Node000033" class="node">
<title>Node33</title>
<g id="a_Node000033"><a xlink:href="a00362.html" target="_top" xlink:title=" ">
<polygon fill="white" stroke="#666666" points="1299.14,-300 1223.14,-300 1223.14,-280 1299.14,-280 1299.14,-300"/>
<text text-anchor="middle" x="1261.14" y="-286.5" font-family="Helvetica,sans-Serif" font-size="10.00">KtOperation.h</text>
</a>
</g>
</g>
<!-- Node1&#45;&gt;Node33 -->
<g id="edge52_Node000001_Node000033" class="edge">
<title>Node1&#45;&gt;Node33</title>
<g id="a_edge52_Node000001_Node000033"><a xlink:title=" ">
<path fill="none" stroke="#63b8ff" d="M841.04,-406.28C878.92,-397.92 945.01,-382.91 1001.14,-368 1079.19,-347.27 1169.37,-319.75 1220.39,-303.85"/>
<polygon fill="#63b8ff" stroke="#63b8ff" points="1221.33,-307.22 1229.83,-300.9 1219.24,-300.54 1221.33,-307.22"/>
</a>
</g>
</g>
<!-- Node34 -->
<g id="Node000034" class="node">
<title>Node34</title>
<g id="a_Node000034"><a xlink:href="a00374.html" target="_top" xlink:title=" ">
<polygon fill="white" stroke="#666666" points="1205.14,-300 1123.14,-300 1123.14,-280 1205.14,-280 1205.14,-300"/>
<text text-anchor="middle" x="1164.14" y="-286.5" font-family="Helvetica,sans-Serif" font-size="10.00">LowLevelAPI.h</text>
</a>
</g>
</g>
<!-- Node1&#45;&gt;Node34 -->
<g id="edge54_Node000001_Node000034" class="edge">
<title>Node1&#45;&gt;Node34</title>
<g id="a_edge54_Node000001_Node000034"><a xlink:title=" ">
<path fill="none" stroke="#63b8ff" d="M837.63,-403.53C900.39,-381.9 1054.34,-328.84 1126.13,-304.1"/>
<polygon fill="#63b8ff" stroke="#63b8ff" points="1127.18,-307.44 1135.49,-300.87 1124.89,-300.82 1127.18,-307.44"/>
</a>
</g>
</g>
<!-- Node35 -->
<g id="Node000035" class="node">
<title>Node35</title>
<g id="a_Node000035"><a xlink:href="a00065.html" target="_top" xlink:title=" ">
<polygon fill="white" stroke="#666666" points="766.89,-362 707.39,-362 707.39,-342 766.89,-342 766.89,-362"/>
<text text-anchor="middle" x="737.14" y="-348.5" font-family="Helvetica,sans-Serif" font-size="10.00">Member.h</text>
</a>
</g>
</g>
<!-- Node1&#45;&gt;Node35 -->
<g id="edge56_Node000001_Node000035" class="edge">
<title>Node1&#45;&gt;Node35</title>
<g id="a_edge56_Node000001_Node000035"><a xlink:title=" ">
<path fill="none" stroke="#63b8ff" d="M798.74,-403.62C787.53,-394.41 770.2,-380.17 756.78,-369.14"/>
<polygon fill="#63b8ff" stroke="#63b8ff" points="759.35,-366.72 749.4,-363.07 754.9,-372.13 759.35,-366.72"/>
</a>
</g>
</g>
<!-- Node36 -->
<g id="Node000036" class="node">
<title>Node36</title>
<g id="a_Node000036"><a xlink:href="a00083.html" target="_top" xlink:title=" ">
<polygon fill="white" stroke="#666666" points="1350.89,-188 1303.39,-188 1303.39,-168 1350.89,-168 1350.89,-188"/>
<text text-anchor="middle" x="1327.14" y="-174.5" font-family="Helvetica,sans-Serif" font-size="10.00">Tools.h</text>
</a>
</g>
</g>
<!-- Node1&#45;&gt;Node36 -->
<g id="edge58_Node000001_Node000036" class="edge">
<title>Node1&#45;&gt;Node36</title>
<g id="a_edge58_Node000001_Node000036"><a xlink:title=" ">
<path fill="none" stroke="#63b8ff" d="M840.88,-410.61C939.5,-402.26 1245.22,-370.99 1308.14,-300 1332.75,-272.24 1332.64,-226.12 1330.08,-199.56"/>
<polygon fill="#63b8ff" stroke="#63b8ff" points="1333.57,-199.27 1328.9,-189.76 1326.62,-200.11 1333.57,-199.27"/>
</a>
</g>
</g>
<!-- Node3 -->
<g id="Node000003" class="node">
<title>Node3</title>
<g id="a_Node000003"><a xlink:href="a00095.html" target="_top" xlink:title=" ">
<polygon fill="white" stroke="#666666" points="766.52,-300 707.77,-300 707.77,-280 766.52,-280 766.52,-300"/>
<text text-anchor="middle" x="737.14" y="-286.5" font-family="Helvetica,sans-Serif" font-size="10.00">Contact.h</text>
</a>
</g>
</g>
<!-- Node2&#45;&gt;Node3 -->
<g id="edge2_Node000002_Node000003" class="edge">
<title>Node2&#45;&gt;Node3</title>
<g id="a_edge2_Node000002_Node000003"><a xlink:title=" ">
<path fill="none" stroke="#63b8ff" d="M798.74,-341.62C787.53,-332.41 770.2,-318.17 756.78,-307.14"/>
<polygon fill="#63b8ff" stroke="#63b8ff" points="759.35,-304.72 749.4,-301.07 754.9,-310.13 759.35,-304.72"/>
</a>
</g>
</g>
<!-- Node13 -->
<g id="Node000013" class="node">
<title>Node13</title>
<g id="a_Node000013"><a xlink:title=" ">
<polygon fill="#e0e0e0" stroke="#999999" points="1280.52,-132 1161.77,-132 1161.77,-112 1280.52,-112 1280.52,-132"/>
<text text-anchor="middle" x="1221.14" y="-118.5" font-family="Helvetica,sans-Serif" font-size="10.00">nlohmann/json_fwd.hpp</text>
</a>
</g>
</g>
<!-- Node2&#45;&gt;Node13 -->
<g id="edge25_Node000002_Node000013" class="edge">
<title>Node2&#45;&gt;Node13</title>
<g id="a_edge25_Node000002_Node000013"><a xlink:title=" ">
<path fill="none" stroke="#63b8ff" d="M827.02,-341.64C890.64,-306.34 1116.3,-181.16 1194.35,-137.86"/>
<polygon fill="#63b8ff" stroke="#63b8ff" points="1195.98,-140.96 1203.03,-133.05 1192.59,-134.84 1195.98,-140.96"/>
</a>
</g>
</g>
<!-- Node17 -->
<g id="Node000017" class="node">
<title>Node17</title>
<g id="a_Node000017"><a xlink:title=" ">
<polygon fill="#e0e0e0" stroke="#999999" points="537.77,-132 498.52,-132 498.52,-112 537.77,-112 537.77,-132"/>
<text text-anchor="middle" x="518.14" y="-118.5" font-family="Helvetica,sans-Serif" font-size="10.00">utility</text>
</a>
</g>
</g>
<!-- Node2&#45;&gt;Node17 -->
<g id="edge26_Node000002_Node000017" class="edge">
<title>Node2&#45;&gt;Node17</title>
<g id="a_edge26_Node000002_Node000017"><a xlink:title=" ">
<path fill="none" stroke="#63b8ff" d="M811.23,-341.62C814.18,-311.26 818.92,-214.87 767.14,-168 759.08,-160.7 614.29,-137.74 549.29,-127.73"/>
<polygon fill="#63b8ff" stroke="#63b8ff" points="550.04,-124.31 539.63,-126.25 548.98,-131.23 550.04,-124.31"/>
</a>
</g>
</g>
<!-- Node4 -->
<g id="Node000004" class="node">
<title>Node4</title>
<g id="a_Node000004"><a xlink:href="a00092.html" target="_top" xlink:title=" ">
<polygon fill="white" stroke="#666666" points="773.89,-244 684.39,-244 684.39,-224 773.89,-224 773.89,-244"/>
<text text-anchor="middle" x="729.14" y="-230.5" font-family="Helvetica,sans-Serif" font-size="10.00">MessageChain.h</text>
</a>
</g>
</g>
<!-- Node3&#45;&gt;Node4 -->
<g id="edge3_Node000003_Node000004" class="edge">
<title>Node3&#45;&gt;Node4</title>
<g id="a_edge3_Node000003_Node000004"><a xlink:title=" ">
<path fill="none" stroke="#63b8ff" d="M735.75,-279.59C734.76,-272.93 733.4,-263.75 732.17,-255.44"/>
<polygon fill="#63b8ff" stroke="#63b8ff" points="735.67,-255.17 730.74,-245.8 728.75,-256.2 735.67,-255.17"/>
</a>
</g>
</g>
<!-- Node10 -->
<g id="Node000010" class="node">
<title>Node10</title>
<g id="a_Node000010"><a xlink:title=" ">
<polygon fill="#e0e0e0" stroke="#999999" points="1092.14,-76 1052.14,-76 1052.14,-56 1092.14,-56 1092.14,-76"/>
<text text-anchor="middle" x="1072.14" y="-62.5" font-family="Helvetica,sans-Serif" font-size="10.00">string</text>
</a>
</g>
</g>
<!-- Node3&#45;&gt;Node10 -->
<g id="edge24_Node000003_Node000010" class="edge">
<title>Node3&#45;&gt;Node10</title>
<g id="a_edge24_Node000003_Node000010"><a xlink:title=" ">
<path fill="none" stroke="#63b8ff" d="M766.81,-287.19C841,-280.88 1034.37,-253.01 1115.14,-132 1126.13,-115.54 1110.52,-96.66 1095.12,-83.51"/>
<polygon fill="#63b8ff" stroke="#63b8ff" points="1097.47,-80.91 1087.47,-77.43 1093.12,-86.39 1097.47,-80.91"/>
</a>
</g>
</g>
<!-- Node19 -->
<g id="Node000019" class="node">
<title>Node19</title>
<g id="a_Node000019"><a xlink:title=" ">
<polygon fill="#e0e0e0" stroke="#999999" points="634.02,-188 536.27,-188 536.27,-168 634.02,-168 634.02,-188"/>
<text text-anchor="middle" x="585.14" y="-174.5" font-family="Helvetica,sans-Serif" font-size="10.00">nlohmann/json.hpp</text>
</a>
</g>
</g>
<!-- Node3&#45;&gt;Node19 -->
<g id="edge23_Node000003_Node000019" class="edge">
<title>Node3&#45;&gt;Node19</title>
<g id="a_edge23_Node000003_Node000019"><a xlink:title=" ">
<path fill="none" stroke="#63b8ff" d="M724.18,-279.62C698.16,-260.79 639.29,-218.18 607.13,-194.91"/>
<polygon fill="#63b8ff" stroke="#63b8ff" points="609.45,-192.27 599.3,-189.24 605.35,-197.94 609.45,-192.27"/>
</a>
</g>
</g>
<!-- Node5 -->
<g id="Node000005" class="node">
<title>Node5</title>
<g id="a_Node000005"><a xlink:href="a00041.html" target="_top" xlink:title=" ">
<polygon fill="white" stroke="#666666" points="895.02,-76 803.27,-76 803.27,-56 895.02,-56 895.02,-76"/>
<text text-anchor="middle" x="849.14" y="-62.5" font-family="Helvetica,sans-Serif" font-size="10.00">MiraiCPMacros.h</text>
</a>
</g>
</g>
<!-- Node4&#45;&gt;Node5 -->
<g id="edge4_Node000004_Node000005" class="edge">
<title>Node4&#45;&gt;Node5</title>
<g id="a_edge4_Node000004_Node000005"><a xlink:title=" ">
<path fill="none" stroke="#63b8ff" d="M720.13,-223.54C705.52,-208.86 675.05,-180.94 643.14,-168 521.5,-118.66 264.61,-208.92 353.14,-112 367.76,-96 663.7,-77.46 791.36,-70.17"/>
<polygon fill="#63b8ff" stroke="#63b8ff" points="791.51,-73.67 801.3,-69.61 791.11,-66.68 791.51,-73.67"/>
</a>
</g>
</g>
<!-- Node7 -->
<g id="Node000007" class="node">
<title>Node7</title>
<g id="a_Node000007"><a xlink:href="a00089.html" target="_top" xlink:title=" ">
<polygon fill="white" stroke="#666666" points="921.64,-188 830.64,-188 830.64,-168 921.64,-168 921.64,-188"/>
<text text-anchor="middle" x="876.14" y="-174.5" font-family="Helvetica,sans-Serif" font-size="10.00">SingleMessage.h</text>
</a>
</g>
</g>
<!-- Node4&#45;&gt;Node7 -->
<g id="edge6_Node000004_Node000007" class="edge">
<title>Node4&#45;&gt;Node7</title>
<g id="a_edge6_Node000004_Node000007"><a xlink:title=" ">
<path fill="none" stroke="#63b8ff" d="M754.75,-223.59C778.21,-214.97 813.21,-202.12 839.61,-192.42"/>
<polygon fill="#63b8ff" stroke="#63b8ff" points="840.74,-195.73 848.92,-189 838.32,-189.16 840.74,-195.73"/>
</a>
</g>
</g>
<!-- Node18 -->
<g id="Node000018" class="node">
<title>Node18</title>
<g id="a_Node000018"><a xlink:title=" ">
<polygon fill="#e0e0e0" stroke="#999999" points="758.14,-188 700.14,-188 700.14,-168 758.14,-168 758.14,-188"/>
<text text-anchor="middle" x="729.14" y="-174.5" font-family="Helvetica,sans-Serif" font-size="10.00">functional</text>
</a>
</g>
</g>
<!-- Node4&#45;&gt;Node18 -->
<g id="edge22_Node000004_Node000018" class="edge">
<title>Node4&#45;&gt;Node18</title>
<g id="a_edge22_Node000004_Node000018"><a xlink:title=" ">
<path fill="none" stroke="#63b8ff" d="M729.14,-223.59C729.14,-217.01 729.14,-207.96 729.14,-199.73"/>
<polygon fill="#63b8ff" stroke="#63b8ff" points="732.64,-199.81 729.14,-189.81 725.64,-199.81 732.64,-199.81"/>
</a>
</g>
</g>
<!-- Node6 -->
<g id="Node000006" class="node">
<title>Node6</title>
<g id="a_Node000006"><a xlink:title=" ">
<polygon fill="#e0e0e0" stroke="#999999" points="873.27,-20 825.02,-20 825.02,0 873.27,0 873.27,-20"/>
<text text-anchor="middle" x="849.14" y="-6.5" font-family="Helvetica,sans-Serif" font-size="10.00">cassert</text>
</a>
</g>
</g>
<!-- Node5&#45;&gt;Node6 -->
<g id="edge5_Node000005_Node000006" class="edge">
<title>Node5&#45;&gt;Node6</title>
<g id="a_edge5_Node000005_Node000006"><a xlink:title=" ">
<path fill="none" stroke="#63b8ff" d="M849.14,-55.59C849.14,-49.01 849.14,-39.96 849.14,-31.73"/>
<polygon fill="#63b8ff" stroke="#63b8ff" points="852.64,-31.81 849.14,-21.81 845.64,-31.81 852.64,-31.81"/>
</a>
</g>
</g>
<!-- Node7&#45;&gt;Node5 -->
<g id="edge7_Node000007_Node000005" class="edge">
<title>Node7&#45;&gt;Node5</title>
<g id="a_edge7_Node000007_Node000005"><a xlink:title=" ">
<path fill="none" stroke="#63b8ff" d="M875.56,-167.6C874.61,-154.84 872.28,-131.38 867.14,-112 864.91,-103.57 861.54,-94.6 858.31,-86.9"/>
<polygon fill="#63b8ff" stroke="#63b8ff" points="861.54,-85.55 854.31,-77.81 855.14,-88.37 861.54,-85.55"/>
</a>
</g>
</g>
<!-- Node8 -->
<g id="Node000008" class="node">
<title>Node8</title>
<g id="a_Node000008"><a xlink:href="a00086.html" target="_top" xlink:title=" ">
<polygon fill="white" stroke="#666666" points="858.52,-132 763.77,-132 763.77,-112 858.52,-112 858.52,-132"/>
<text text-anchor="middle" x="811.14" y="-118.5" font-family="Helvetica,sans-Serif" font-size="10.00">MessageSource.h</text>
</a>
</g>
</g>
<!-- Node7&#45;&gt;Node8 -->
<g id="edge8_Node000007_Node000008" class="edge">
<title>Node7&#45;&gt;Node8</title>
<g id="a_edge8_Node000007_Node000008"><a xlink:title=" ">
<path fill="none" stroke="#63b8ff" d="M864.82,-167.59C855.5,-159.85 842.06,-148.69 830.97,-139.47"/>
<polygon fill="#63b8ff" stroke="#63b8ff" points="833.43,-136.96 823.5,-133.27 828.96,-142.35 833.43,-136.96"/>
</a>
</g>
</g>
<!-- Node9 -->
<g id="Node000009" class="node">
<title>Node9</title>
<g id="a_Node000009"><a xlink:href="a00062.html" target="_top" xlink:title=" ">
<polygon fill="white" stroke="#666666" points="673.39,-76 610.89,-76 610.89,-56 673.39,-56 673.39,-76"/>
<text text-anchor="middle" x="642.14" y="-62.5" font-family="Helvetica,sans-Serif" font-size="10.00">SdkType.h</text>
</a>
</g>
</g>
<!-- Node7&#45;&gt;Node9 -->
<g id="edge15_Node000007_Node000009" class="edge">
<title>Node7&#45;&gt;Node9</title>
<g id="a_edge15_Node000007_Node000009"><a xlink:title=" ">
<path fill="none" stroke="#63b8ff" d="M830.22,-170.09C748.48,-157.77 586.14,-133.16 585.14,-132 570.39,-114.78 592.9,-95.25 613.83,-82.13"/>
<polygon fill="#63b8ff" stroke="#63b8ff" points="615.37,-85.29 622.2,-77.18 611.81,-79.26 615.37,-85.29"/>
</a>
</g>
</g>
<!-- Node11 -->
<g id="Node000011" class="node">
<title>Node11</title>
<g id="a_Node000011"><a xlink:href="a00068.html" target="_top" xlink:title=" ">
<polygon fill="white" stroke="#666666" points="1106.39,-132 1037.89,-132 1037.89,-112 1106.39,-112 1106.39,-132"/>
<text text-anchor="middle" x="1072.14" y="-118.5" font-family="Helvetica,sans-Serif" font-size="10.00">MiraiCode.h</text>
</a>
</g>
</g>
<!-- Node7&#45;&gt;Node11 -->
<g id="edge12_Node000007_Node000011" class="edge">
<title>Node7&#45;&gt;Node11</title>
<g id="a_edge12_Node000007_Node000011"><a xlink:title=" ">
<path fill="none" stroke="#63b8ff" d="M910.28,-167.59C942.55,-158.71 991.17,-145.31 1026.7,-135.52"/>
<polygon fill="#63b8ff" stroke="#63b8ff" points="1027.57,-138.91 1036.28,-132.88 1025.71,-132.16 1027.57,-138.91"/>
</a>
</g>
</g>
<!-- Node12 -->
<g id="Node000012" class="node">
<title>Node12</title>
<g id="a_Node000012"><a xlink:title=" ">
<polygon fill="#e0e0e0" stroke="#999999" points="952.02,-132 914.27,-132 914.27,-112 952.02,-112 952.02,-132"/>
<text text-anchor="middle" x="933.14" y="-118.5" font-family="Helvetica,sans-Serif" font-size="10.00">array</text>
</a>
</g>
</g>
<!-- Node7&#45;&gt;Node12 -->
<g id="edge16_Node000007_Node000012" class="edge">
<title>Node7&#45;&gt;Node12</title>
<g id="a_edge16_Node000007_Node000012"><a xlink:title=" ">
<path fill="none" stroke="#63b8ff" d="M886.07,-167.59C894.08,-160.01 905.56,-149.13 915.17,-140.02"/>
<polygon fill="#63b8ff" stroke="#63b8ff" points="917.38,-142.76 922.23,-133.34 912.56,-137.68 917.38,-142.76"/>
</a>
</g>
</g>
<!-- Node7&#45;&gt;Node13 -->
<g id="edge17_Node000007_Node000013" class="edge">
<title>Node7&#45;&gt;Node13</title>
<g id="a_edge17_Node000007_Node000013"><a xlink:title=" ">
<path fill="none" stroke="#63b8ff" d="M921.96,-169.83C980.38,-160.68 1082.02,-144.78 1150.42,-134.07"/>
<polygon fill="#63b8ff" stroke="#63b8ff" points="1150.69,-137.57 1160.03,-132.57 1149.61,-130.65 1150.69,-137.57"/>
</a>
</g>
</g>
<!-- Node14 -->
<g id="Node000014" class="node">
<title>Node14</title>
<g id="a_Node000014"><a xlink:title=" ">
<polygon fill="#e0e0e0" stroke="#999999" points="1020.02,-132 970.27,-132 970.27,-112 1020.02,-112 1020.02,-132"/>
<text text-anchor="middle" x="995.14" y="-118.5" font-family="Helvetica,sans-Serif" font-size="10.00">optional</text>
</a>
</g>
</g>
<!-- Node7&#45;&gt;Node14 -->
<g id="edge18_Node000007_Node000014" class="edge">
<title>Node7&#45;&gt;Node14</title>
<g id="a_edge18_Node000007_Node000014"><a xlink:title=" ">
<path fill="none" stroke="#63b8ff" d="M896.87,-167.59C915.36,-159.21 942.69,-146.8 963.84,-137.21"/>
<polygon fill="#63b8ff" stroke="#63b8ff" points="965.22,-140.42 972.87,-133.1 962.32,-134.05 965.22,-140.42"/>
</a>
</g>
</g>
<!-- Node15 -->
<g id="Node000015" class="node">
<title>Node15</title>
<g id="a_Node000015"><a xlink:title=" ">
<polygon fill="#e0e0e0" stroke="#999999" points="745.77,-132 694.52,-132 694.52,-112 745.77,-112 745.77,-132"/>
<text text-anchor="middle" x="720.14" y="-118.5" font-family="Helvetica,sans-Serif" font-size="10.00">sstream</text>
</a>
</g>
</g>
<!-- Node7&#45;&gt;Node15 -->
<g id="edge19_Node000007_Node000015" class="edge">
<title>Node7&#45;&gt;Node15</title>
<g id="a_edge19_Node000007_Node000015"><a xlink:title=" ">
<path fill="none" stroke="#63b8ff" d="M848.97,-167.59C823.46,-158.76 785.11,-145.49 756.88,-135.72"/>
<polygon fill="#63b8ff" stroke="#63b8ff" points="758.25,-132.49 747.66,-132.52 755.96,-139.1 758.25,-132.49"/>
</a>
</g>
</g>
<!-- Node16 -->
<g id="Node000016" class="node">
<title>Node16</title>
<g id="a_Node000016"><a xlink:title=" ">
<polygon fill="#e0e0e0" stroke="#999999" points="676.52,-132 593.77,-132 593.77,-112 676.52,-112 676.52,-132"/>
<text text-anchor="middle" x="635.14" y="-118.5" font-family="Helvetica,sans-Serif" font-size="10.00">unordered_map</text>
</a>
</g>
</g>
<!-- Node7&#45;&gt;Node16 -->
<g id="edge20_Node000007_Node000016" class="edge">
<title>Node7&#45;&gt;Node16</title>
<g id="a_edge20_Node000007_Node000016"><a xlink:title=" ">
<path fill="none" stroke="#63b8ff" d="M833.89,-167.53C793.28,-158.43 731.78,-144.65 687.96,-134.83"/>
<polygon fill="#63b8ff" stroke="#63b8ff" points="688.95,-131.47 678.42,-132.7 687.42,-138.3 688.95,-131.47"/>
</a>
</g>
</g>
<!-- Node7&#45;&gt;Node17 -->
<g id="edge21_Node000007_Node000017" class="edge">
<title>Node7&#45;&gt;Node17</title>
<g id="a_edge21_Node000007_Node000017"><a xlink:title=" ">
<path fill="none" stroke="#63b8ff" d="M830.29,-170.06C825.51,-169.35 820.73,-168.66 816.14,-168 698.92,-151.22 668.27,-155.2 552.14,-132 551.15,-131.8 550.14,-131.59 549.12,-131.37"/>
<polygon fill="#63b8ff" stroke="#63b8ff" points="550.2,-128.03 539.65,-129.1 548.56,-134.83 550.2,-128.03"/>
</a>
</g>
</g>
<!-- Node8&#45;&gt;Node5 -->
<g id="edge9_Node000008_Node000005" class="edge">
<title>Node8&#45;&gt;Node5</title>
<g id="a_edge9_Node000008_Node000005"><a xlink:title=" ">
<path fill="none" stroke="#63b8ff" d="M817.76,-111.59C822.83,-104.39 829.98,-94.23 836.17,-85.43"/>
<polygon fill="#63b8ff" stroke="#63b8ff" points="838.84,-87.73 841.73,-77.54 833.11,-83.7 838.84,-87.73"/>
</a>
</g>
</g>
<!-- Node8&#45;&gt;Node9 -->
<g id="edge10_Node000008_Node000009" class="edge">
<title>Node8&#45;&gt;Node9</title>
<g id="a_edge10_Node000008_Node000009"><a xlink:title=" ">
<path fill="none" stroke="#63b8ff" d="M781.71,-111.59C754.25,-102.82 713.05,-89.66 682.53,-79.9"/>
<polygon fill="#63b8ff" stroke="#63b8ff" points="683.84,-76.65 673.25,-76.94 681.71,-83.32 683.84,-76.65"/>
</a>
</g>
</g>
<!-- Node8&#45;&gt;Node10 -->
<g id="edge11_Node000008_Node000010" class="edge">
<title>Node8&#45;&gt;Node10</title>
<g id="a_edge11_Node000008_Node000010"><a xlink:title=" ">
<path fill="none" stroke="#63b8ff" d="M856.9,-111.53C909.63,-100.62 994.85,-82.99 1040.65,-73.52"/>
<polygon fill="#63b8ff" stroke="#63b8ff" points="1041.09,-77 1050.18,-71.54 1039.68,-70.14 1041.09,-77"/>
</a>
</g>
</g>
<!-- Node11&#45;&gt;Node5 -->
<g id="edge14_Node000011_Node000005" class="edge">
<title>Node11&#45;&gt;Node5</title>
<g id="a_edge14_Node000011_Node000005"><a xlink:title=" ">
<path fill="none" stroke="#63b8ff" d="M1037.79,-112.68C1000.74,-103.71 941.42,-89.34 899.19,-79.12"/>
<polygon fill="#63b8ff" stroke="#63b8ff" points="900.05,-75.73 889.51,-76.78 898.41,-82.53 900.05,-75.73"/>
</a>
</g>
</g>
<!-- Node11&#45;&gt;Node10 -->
<g id="edge13_Node000011_Node000010" class="edge">
<title>Node11&#45;&gt;Node10</title>
<g id="a_edge13_Node000011_Node000010"><a xlink:title=" ">
<path fill="none" stroke="#63b8ff" d="M1072.14,-111.59C1072.14,-105.01 1072.14,-95.96 1072.14,-87.73"/>
<polygon fill="#63b8ff" stroke="#63b8ff" points="1075.64,-87.81 1072.14,-77.81 1068.64,-87.81 1075.64,-87.81"/>
</a>
</g>
</g>
<!-- Node21 -->
<g id="Node000021" class="node">
<title>Node21</title>
<g id="a_Node000021"><a xlink:href="a00332.html" target="_top" xlink:title=" ">
<polygon fill="white" stroke="#666666" points="166.52,-244 83.77,-244 83.77,-224 166.52,-224 166.52,-244"/>
<text text-anchor="middle" x="125.14" y="-230.5" font-family="Helvetica,sans-Serif" font-size="10.00">IContactData.h</text>
</a>
</g>
</g>
<!-- Node20&#45;&gt;Node21 -->
<g id="edge28_Node000020_Node000021" class="edge">
<title>Node20&#45;&gt;Node21</title>
<g id="a_edge28_Node000020_Node000021"><a xlink:title=" ">
<path fill="none" stroke="#63b8ff" d="M224.24,-335.84C203.14,-314.37 164.65,-275.2 142.36,-252.52"/>
<polygon fill="#63b8ff" stroke="#63b8ff" points="144.98,-250.2 135.48,-245.52 139.99,-255.1 144.98,-250.2"/>
</a>
</g>
</g>
<!-- Node21&#45;&gt;Node9 -->
<g id="edge33_Node000021_Node000009" class="edge">
<title>Node21&#45;&gt;Node9</title>
<g id="a_edge33_Node000021_Node000009"><a xlink:title=" ">
<path fill="none" stroke="#63b8ff" d="M104.09,-223.65C61.22,-203.41 -28.96,-153.99 10.14,-112 50.21,-68.98 464.05,-66.43 599.49,-66.76"/>
<polygon fill="#63b8ff" stroke="#63b8ff" points="599.09,-70.26 609.1,-66.79 599.11,-63.26 599.09,-70.26"/>
</a>
</g>
</g>
<!-- Node22 -->
<g id="Node000022" class="node">
<title>Node22</title>
<g id="a_Node000022"><a xlink:href="a00335.html" target="_top" xlink:title=" ">
<polygon fill="white" stroke="#666666" points="159.77,-188 90.52,-188 90.52,-168 159.77,-168 159.77,-188"/>
<text text-anchor="middle" x="125.14" y="-174.5" font-family="Helvetica,sans-Serif" font-size="10.00">IMiraiData.h</text>
</a>
</g>
</g>
<!-- Node21&#45;&gt;Node22 -->
<g id="edge29_Node000021_Node000022" class="edge">
<title>Node21&#45;&gt;Node22</title>
<g id="a_edge29_Node000021_Node000022"><a xlink:title=" ">
<path fill="none" stroke="#63b8ff" d="M125.14,-223.59C125.14,-217.01 125.14,-207.96 125.14,-199.73"/>
<polygon fill="#63b8ff" stroke="#63b8ff" points="128.64,-199.81 125.14,-189.81 121.64,-199.81 128.64,-199.81"/>
</a>
</g>
</g>
<!-- Node22&#45;&gt;Node13 -->
<g id="edge30_Node000022_Node000013" class="edge">
<title>Node22&#45;&gt;Node13</title>
<g id="a_edge30_Node000022_Node000013"><a xlink:title=" ">
<path fill="none" stroke="#63b8ff" d="M160.03,-173.36C178.73,-171.52 202.17,-169.39 223.14,-168 619.05,-141.85 719.15,-156.79 1115.14,-132 1126.53,-131.29 1138.59,-130.39 1150.34,-129.45"/>
<polygon fill="#63b8ff" stroke="#63b8ff" points="1150.29,-132.97 1159.96,-128.66 1149.71,-125.99 1150.29,-132.97"/>
</a>
</g>
</g>
<!-- Node23 -->
<g id="Node000023" class="node">
<title>Node23</title>
<g id="a_Node000023"><a xlink:title=" ">
<polygon fill="#e0e0e0" stroke="#999999" points="159.77,-132 114.52,-132 114.52,-112 159.77,-112 159.77,-132"/>
<text text-anchor="middle" x="137.14" y="-118.5" font-family="Helvetica,sans-Serif" font-size="10.00">atomic</text>
</a>
</g>
</g>
<!-- Node22&#45;&gt;Node23 -->
<g id="edge31_Node000022_Node000023" class="edge">
<title>Node22&#45;&gt;Node23</title>
<g id="a_edge31_Node000022_Node000023"><a xlink:title=" ">
<path fill="none" stroke="#63b8ff" d="M127.23,-167.59C128.71,-160.93 130.76,-151.75 132.6,-143.44"/>
<polygon fill="#63b8ff" stroke="#63b8ff" points="136,-144.3 134.75,-133.78 129.16,-142.78 136,-144.3"/>
</a>
</g>
</g>
<!-- Node24 -->
<g id="Node000024" class="node">
<title>Node24</title>
<g id="a_Node000024"><a xlink:title=" ">
<polygon fill="#e0e0e0" stroke="#999999" points="96.89,-132 19.39,-132 19.39,-112 96.89,-112 96.89,-132"/>
<text text-anchor="middle" x="58.14" y="-118.5" font-family="Helvetica,sans-Serif" font-size="10.00">shared_mutex</text>
</a>
</g>
</g>
<!-- Node22&#45;&gt;Node24 -->
<g id="edge32_Node000022_Node000024" class="edge">
<title>Node22&#45;&gt;Node24</title>
<g id="a_edge32_Node000022_Node000024"><a xlink:title=" ">
<path fill="none" stroke="#63b8ff" d="M113.47,-167.59C103.87,-159.85 90.02,-148.69 78.58,-139.47"/>
<polygon fill="#63b8ff" stroke="#63b8ff" points="80.84,-136.8 70.86,-133.25 76.45,-142.25 80.84,-136.8"/>
</a>
</g>
</g>
<!-- Node25&#45;&gt;Node5 -->
<g id="edge35_Node000025_Node000005" class="edge">
<title>Node25&#45;&gt;Node5</title>
<g id="a_edge35_Node000025_Node000005"><a xlink:title=" ">
<path fill="none" stroke="#63b8ff" d="M404.1,-230.12C350.29,-224.9 249.04,-212.09 223.14,-188 197.87,-164.49 183.6,-137.25 207.14,-112 212.11,-106.67 634.97,-80.17 791.62,-70.52"/>
<polygon fill="#63b8ff" stroke="#63b8ff" points="791.59,-74.03 801.36,-69.92 791.16,-67.04 791.59,-74.03"/>
</a>
</g>
</g>
<!-- Node25&#45;&gt;Node10 -->
<g id="edge45_Node000025_Node000010" class="edge">
<title>Node25&#45;&gt;Node10</title>
<g id="a_edge45_Node000025_Node000010"><a xlink:title=" ">
<path fill="none" stroke="#63b8ff" d="M440.71,-223.67C448.05,-197.76 469.82,-125.93 489.14,-112 500.44,-103.86 920.83,-76.6 1040.6,-68.99"/>
<polygon fill="#63b8ff" stroke="#63b8ff" points="1040.57,-72.5 1050.33,-68.37 1040.13,-65.51 1040.57,-72.5"/>
</a>
</g>
</g>
<!-- Node25&#45;&gt;Node15 -->
<g id="edge44_Node000025_Node000015" class="edge">
<title>Node25&#45;&gt;Node15</title>
<g id="a_edge44_Node000025_Node000015"><a xlink:title=" ">
<path fill="none" stroke="#63b8ff" d="M447.95,-223.7C463.49,-209.49 495.28,-182.51 527.14,-168 589.49,-139.6 612.85,-148.01 682.99,-132.37"/>
<polygon fill="#63b8ff" stroke="#63b8ff" points="683.75,-135.79 692.7,-130.11 682.16,-128.97 683.75,-135.79"/>
</a>
</g>
</g>
<!-- Node25&#45;&gt;Node19 -->
<g id="edge42_Node000025_Node000019" class="edge">
<title>Node25&#45;&gt;Node19</title>
<g id="a_edge42_Node000025_Node000019"><a xlink:title=" ">
<path fill="none" stroke="#63b8ff" d="M463.75,-223.59C487.21,-214.97 522.21,-202.12 548.61,-192.42"/>
<polygon fill="#63b8ff" stroke="#63b8ff" points="549.74,-195.73 557.92,-189 547.32,-189.16 549.74,-195.73"/>
</a>
</g>
</g>
<!-- Node26 -->
<g id="Node000026" class="node">
<title>Node26</title>
<g id="a_Node000026"><a xlink:href="a00101.html" target="_top" xlink:title=" ">
<polygon fill="white" stroke="#666666" points="442.27,-188 370.02,-188 370.02,-168 442.27,-168 442.27,-188"/>
<text text-anchor="middle" x="406.14" y="-174.5" font-family="Helvetica,sans-Serif" font-size="10.00">CPPPlugin.h</text>
</a>
</g>
</g>
<!-- Node25&#45;&gt;Node26 -->
<g id="edge36_Node000025_Node000026" class="edge">
<title>Node25&#45;&gt;Node26</title>
<g id="a_edge36_Node000025_Node000026"><a xlink:title=" ">
<path fill="none" stroke="#63b8ff" d="M432.57,-223.59C428.39,-216.55 422.54,-206.67 417.4,-198"/>
<polygon fill="#63b8ff" stroke="#63b8ff" points="420.53,-196.42 412.42,-189.6 414.51,-199.99 420.53,-196.42"/>
</a>
</g>
</g>
<!-- Node29 -->
<g id="Node000029" class="node">
<title>Node29</title>
<g id="a_Node000029"><a xlink:title=" ">
<polygon fill="#e0e0e0" stroke="#999999" points="290.14,-188 232.14,-188 232.14,-168 290.14,-168 290.14,-188"/>
<text text-anchor="middle" x="261.14" y="-174.5" font-family="Helvetica,sans-Serif" font-size="10.00">exception</text>
</a>
</g>
</g>
<!-- Node25&#45;&gt;Node29 -->
<g id="edge43_Node000025_Node000029" class="edge">
<title>Node25&#45;&gt;Node29</title>
<g id="a_edge43_Node000025_Node000029"><a xlink:title=" ">
<path fill="none" stroke="#63b8ff" d="M407.31,-223.59C377.9,-214.62 333.43,-201.05 301.26,-191.24"/>
<polygon fill="#63b8ff" stroke="#63b8ff" points="302.48,-187.95 291.89,-188.38 300.44,-194.65 302.48,-187.95"/>
</a>
</g>
</g>
<!-- Node30 -->
<g id="Node000030" class="node">
<title>Node30</title>
<g id="a_Node000030"><a xlink:title=" ">
<polygon fill="#e0e0e0" stroke="#999999" points="351.64,-188 308.64,-188 308.64,-168 351.64,-168 351.64,-188"/>
<text text-anchor="middle" x="330.14" y="-174.5" font-family="Helvetica,sans-Serif" font-size="10.00">thread</text>
</a>
</g>
</g>
<!-- Node25&#45;&gt;Node30 -->
<g id="edge46_Node000025_Node000030" class="edge">
<title>Node25&#45;&gt;Node30</title>
<g id="a_edge46_Node000025_Node000030"><a xlink:title=" ">
<path fill="none" stroke="#63b8ff" d="M419.33,-223.59C402.78,-215.32 378.43,-203.14 359.35,-193.6"/>
<polygon fill="#63b8ff" stroke="#63b8ff" points="360.97,-190.5 350.46,-189.16 357.83,-196.76 360.97,-190.5"/>
</a>
</g>
</g>
<!-- Node26&#45;&gt;Node5 -->
<g id="edge37_Node000026_Node000005" class="edge">
<title>Node26&#45;&gt;Node5</title>
<g id="a_edge37_Node000026_Node000005"><a xlink:title=" ">
<path fill="none" stroke="#63b8ff" d="M375.39,-167.55C342.82,-156.04 298.81,-135.22 320.14,-112 328.06,-103.38 656.32,-80.12 791.69,-70.87"/>
<polygon fill="#63b8ff" stroke="#63b8ff" points="791.77,-74.37 801.51,-70.2 791.3,-67.39 791.77,-74.37"/>
</a>
</g>
</g>
<!-- Node26&#45;&gt;Node17 -->
<g id="edge41_Node000026_Node000017" class="edge">
<title>Node26&#45;&gt;Node17</title>
<g id="a_edge41_Node000026_Node000017"><a xlink:title=" ">
<path fill="none" stroke="#63b8ff" d="M425.65,-167.59C442.89,-159.28 468.3,-147.03 488.13,-137.47"/>
<polygon fill="#63b8ff" stroke="#63b8ff" points="489.63,-140.63 497.12,-133.14 486.59,-134.33 489.63,-140.63"/>
</a>
</g>
</g>
<!-- Node27 -->
<g id="Node000027" class="node">
<title>Node27</title>
<g id="a_Node000027"><a xlink:href="a00044.html" target="_top" xlink:title=" ">
<polygon fill="white" stroke="#666666" points="442.02,-132 362.27,-132 362.27,-112 442.02,-112 442.02,-132"/>
<text text-anchor="middle" x="402.14" y="-118.5" font-family="Helvetica,sans-Serif" font-size="10.00">PluginConfig.h</text>
</a>
</g>
</g>
<!-- Node26&#45;&gt;Node27 -->
<g id="edge38_Node000026_Node000027" class="edge">
<title>Node26&#45;&gt;Node27</title>
<g id="a_edge38_Node000026_Node000027"><a xlink:title=" ">
<path fill="none" stroke="#63b8ff" d="M405.45,-167.59C404.96,-161.01 404.29,-151.96 403.68,-143.73"/>
<polygon fill="#63b8ff" stroke="#63b8ff" points="407.17,-143.52 402.94,-133.81 400.19,-144.04 407.17,-143.52"/>
</a>
</g>
</g>
<!-- Node28 -->
<g id="Node000028" class="node">
<title>Node28</title>
<g id="a_Node000028"><a xlink:title=" ">
<polygon fill="#e0e0e0" stroke="#999999" points="267.77,-132 216.52,-132 216.52,-112 267.77,-112 267.77,-132"/>
<text text-anchor="middle" x="242.14" y="-118.5" font-family="Helvetica,sans-Serif" font-size="10.00">memory</text>
</a>
</g>
</g>
<!-- Node26&#45;&gt;Node28 -->
<g id="edge40_Node000026_Node000028" class="edge">
<title>Node26&#45;&gt;Node28</title>
<g id="a_edge40_Node000026_Node000028"><a xlink:title=" ">
<path fill="none" stroke="#63b8ff" d="M377.58,-167.59C350.23,-158.59 308.85,-144.97 279.03,-135.15"/>
<polygon fill="#63b8ff" stroke="#63b8ff" points="280.25,-131.86 269.66,-132.06 278.06,-138.51 280.25,-131.86"/>
</a>
</g>
</g>
<!-- Node27&#45;&gt;Node10 -->
<g id="edge39_Node000027_Node000010" class="edge">
<title>Node27&#45;&gt;Node10</title>
<g id="a_edge39_Node000027_Node000010"><a xlink:title=" ">
<path fill="none" stroke="#63b8ff" d="M442.48,-113.86C447.08,-113.17 451.71,-112.53 456.14,-112 571.22,-98.24 931.18,-75.63 1040.4,-68.93"/>
<polygon fill="#63b8ff" stroke="#63b8ff" points="1040.61,-72.42 1050.38,-68.32 1040.18,-65.44 1040.61,-72.42"/>
</a>
</g>
</g>
<!-- Node31&#45;&gt;Node5 -->
<g id="edge48_Node000031_Node000005" class="edge">
<title>Node31&#45;&gt;Node5</title>
<g id="a_edge48_Node000031_Node000005"><a xlink:title=" ">
<path fill="none" stroke="#63b8ff" d="M1473.83,-116.23C1458.84,-114.82 1442.32,-113.3 1427.14,-112 1236.68,-95.66 1010.68,-78.8 906.71,-71.18"/>
<polygon fill="#63b8ff" stroke="#63b8ff" points="906.98,-67.69 896.75,-70.45 906.47,-74.67 906.98,-67.69"/>
</a>
</g>
</g>
<!-- Node31&#45;&gt;Node10 -->
<g id="edge49_Node000031_Node000010" class="edge">
<title>Node31&#45;&gt;Node10</title>
<g id="a_edge49_Node000031_Node000010"><a xlink:title=" ">
<path fill="none" stroke="#63b8ff" d="M1473.64,-113.8C1469.08,-113.18 1464.53,-112.57 1460.14,-112 1327.82,-94.88 1169.71,-77.49 1103.61,-70.36"/>
<polygon fill="#63b8ff" stroke="#63b8ff" points="1104.18,-66.91 1093.87,-69.32 1103.44,-73.87 1104.18,-66.91"/>
</a>
</g>
</g>
<!-- Node32&#45;&gt;Node19 -->
<g id="edge51_Node000032_Node000019" class="edge">
<title>Node32&#45;&gt;Node19</title>
<g id="a_edge51_Node000032_Node000019"><a xlink:title=" ">
<path fill="none" stroke="#63b8ff" d="M649.39,-341.51C638.64,-314.31 607.55,-235.68 592.93,-198.68"/>
<polygon fill="#63b8ff" stroke="#63b8ff" points="596.29,-197.67 589.36,-189.66 589.78,-200.25 596.29,-197.67"/>
</a>
</g>
</g>
<!-- Node33&#45;&gt;Node13 -->
<g id="edge53_Node000033_Node000013" class="edge">
<title>Node33&#45;&gt;Node13</title>
<g id="a_edge53_Node000033_Node000013"><a xlink:title=" ">
<path fill="none" stroke="#63b8ff" d="M1258.88,-279.6C1252.58,-253.46 1234.75,-179.48 1226.05,-143.36"/>
<polygon fill="#63b8ff" stroke="#63b8ff" points="1229.48,-142.67 1223.74,-133.77 1222.68,-144.31 1229.48,-142.67"/>
</a>
</g>
</g>
<!-- Node34&#45;&gt;Node13 -->
<g id="edge55_Node000034_Node000013" class="edge">
<title>Node34&#45;&gt;Node13</title>
<g id="a_edge55_Node000034_Node000013"><a xlink:title=" ">
<path fill="none" stroke="#63b8ff" d="M1167.37,-279.6C1176.38,-253.35 1201.97,-178.84 1214.31,-142.89"/>
<polygon fill="#63b8ff" stroke="#63b8ff" points="1217.52,-144.32 1217.46,-133.73 1210.9,-142.05 1217.52,-144.32"/>
</a>
</g>
</g>
<!-- Node35&#45;&gt;Node3 -->
<g id="edge57_Node000035_Node000003" class="edge">
<title>Node35&#45;&gt;Node3</title>
<g id="a_edge57_Node000035_Node000003"><a xlink:title=" ">
<path fill="none" stroke="#63b8ff" d="M737.14,-341.62C737.14,-333.56 737.14,-321.65 737.14,-311.41"/>
<polygon fill="#63b8ff" stroke="#63b8ff" points="740.64,-311.63 737.14,-301.63 733.64,-311.63 740.64,-311.63"/>
</a>
</g>
</g>
<!-- Node36&#45;&gt;Node5 -->
<g id="edge59_Node000036_Node000005" class="edge">
<title>Node36&#45;&gt;Node5</title>
<g id="a_edge59_Node000036_Node000005"><a xlink:title=" ">
<path fill="none" stroke="#63b8ff" d="M1329.75,-167.53C1333.01,-153.35 1336.58,-126.7 1322.14,-112 1307.76,-97.35 1029.71,-78.27 906.77,-70.51"/>
<polygon fill="#63b8ff" stroke="#63b8ff" points="907.08,-67.03 896.88,-69.89 906.64,-74.01 907.08,-67.03"/>
</a>
</g>
</g>
<!-- Node36&#45;&gt;Node9 -->
<g id="edge60_Node000036_Node000009" class="edge">
<title>Node36&#45;&gt;Node9</title>
<g id="a_edge60_Node000036_Node000009"><a xlink:title=" ">
<path fill="none" stroke="#63b8ff" d="M1324.81,-167.95C1320.5,-153.33 1309.8,-124.82 1289.14,-112 1282.7,-108 828.87,-78.86 685.23,-69.73"/>
<polygon fill="#63b8ff" stroke="#63b8ff" points="685.58,-66.24 675.38,-69.1 685.14,-73.23 685.58,-66.24"/>
</a>
</g>
</g>
<!-- Node36&#45;&gt;Node10 -->
<g id="edge63_Node000036_Node000010" class="edge">
<title>Node36&#45;&gt;Node10</title>
<g id="a_edge63_Node000036_Node000010"><a xlink:title=" ">
<path fill="none" stroke="#63b8ff" d="M1351.2,-171.56C1388.28,-162.12 1452.61,-140.9 1427.14,-112 1405.88,-87.87 1186.7,-73.33 1103.73,-68.66"/>
<polygon fill="#63b8ff" stroke="#63b8ff" points="1103.99,-65.17 1093.81,-68.11 1103.6,-72.16 1103.99,-65.17"/>
</a>
</g>
</g>
<!-- Node36&#45;&gt;Node13 -->
<g id="edge61_Node000036_Node000013" class="edge">
<title>Node36&#45;&gt;Node13</title>
<g id="a_edge61_Node000036_Node000013"><a xlink:title=" ">
<path fill="none" stroke="#63b8ff" d="M1308.68,-167.59C1292.44,-159.32 1268.54,-147.14 1249.81,-137.6"/>
<polygon fill="#63b8ff" stroke="#63b8ff" points="1251.6,-134.59 1241.1,-133.17 1248.42,-140.82 1251.6,-134.59"/>
</a>
</g>
</g>
<!-- Node36&#45;&gt;Node15 -->
<g id="edge62_Node000036_Node000015" class="edge">
<title>Node36&#45;&gt;Node15</title>
<g id="a_edge62_Node000036_Node000015"><a xlink:title=" ">
<path fill="none" stroke="#63b8ff" d="M1302.99,-176.59C1225.2,-174.97 974.2,-167.3 757.31,-132.05"/>
<polygon fill="#63b8ff" stroke="#63b8ff" points="757.96,-128.61 747.52,-130.44 756.82,-135.52 757.96,-128.61"/>
</a>
</g>
</g>
<!-- Node37 -->
<g id="Node000037" class="node">
<title>Node37</title>
<g id="a_Node000037"><a xlink:title=" ">
<polygon fill="#e0e0e0" stroke="#999999" points="1417.64,-132 1374.64,-132 1374.64,-112 1417.64,-112 1417.64,-132"/>
<text text-anchor="middle" x="1396.14" y="-118.5" font-family="Helvetica,sans-Serif" font-size="10.00">vector</text>
</a>
</g>
</g>
<!-- Node36&#45;&gt;Node37 -->
<g id="edge64_Node000036_Node000037" class="edge">
<title>Node36&#45;&gt;Node37</title>
<g id="a_edge64_Node000036_Node000037"><a xlink:title=" ">
<path fill="none" stroke="#63b8ff" d="M1339.16,-167.59C1349.16,-159.77 1363.61,-148.46 1375.45,-139.19"/>
<polygon fill="#63b8ff" stroke="#63b8ff" points="1377.35,-142.15 1383.07,-133.23 1373.04,-136.64 1377.35,-142.15"/>
</a>
</g>
</g>
</g>
</svg>
