<?xml version="1.0" encoding="UTF-8" standalone="no"?>
<!DOCTYPE svg PUBLIC "-//W3C//DTD SVG 1.1//EN"
 "http://www.w3.org/Graphics/SVG/1.1/DTD/svg11.dtd">
<!-- Generated by graphviz version 9.0.0 (0)
 -->
<!-- Title: sdk Pages: 1 -->
<svg width="214pt" height="184pt"
 viewBox="0.00 0.00 214.43 184.00" xmlns="http://www.w3.org/2000/svg" xmlns:xlink="http://www.w3.org/1999/xlink">
<g id="graph0" class="graph" transform="scale(1 1) rotate(0) translate(4 180)">
<title>sdk</title>
<g id="clust1" class="cluster">
<title>clusterdir_68267d1309a1af8e8297ef4c3efbcdba</title>
<g id="a_clust1"><a xlink:href="dir_68267d1309a1af8e8297ef4c3efbcdba.html" target="_top" xlink:title="src">
<polygon fill="#daedff" stroke="#404040" stroke-dasharray="5,2" points="8,-40 8,-168 196,-168 196,-40 8,-40"/>
<text text-anchor="middle" x="102" y="-154.5" font-family="Helvetica,sans-Serif" font-size="10.00">src</text>
</a>
</g>
</g>
<g id="clust2" class="cluster">
<title>clusterdir_fef842b25f8adae1261920890dd101a4</title>
<g id="a_clust2"><a xlink:href="dir_fef842b25f8adae1261920890dd101a4.html" target="_top">
<polygon fill="#daedff" stroke="#404040" stroke-width="2" points="16,-48 16,-140 124,-140 124,-48 16,-48"/>
</a>
</g>
</g>
<!-- dir_fdedb0aba14d44ce9d99bc100e026e6a -->
<g id="node1" class="node">
<title>dir_fdedb0aba14d44ce9d99bc100e026e6a</title>
<g id="a_node1"><a xlink:href="dir_fdedb0aba14d44ce9d99bc100e026e6a.html" target="_top" xlink:title="common">
<polygon fill="#4ea9ff" stroke="red" points="187.75,-76 134.25,-76 134.25,-56 187.75,-56 187.75,-76"/>
<text text-anchor="middle" x="161" y="-62.5" font-family="Helvetica,sans-Serif" font-size="10.00">common</text>
</a>
</g>
</g>
<!-- dir_fef842b25f8adae1261920890dd101a4 -->
<g id="node2" class="node">
<title>dir_fef842b25f8adae1261920890dd101a4</title>
<text text-anchor="middle" x="100" y="-118.5" font-family="Helvetica,sans-Serif" font-size="10.00">sdk</text>
</g>
<!-- dir_fef842b25f8adae1261920890dd101a4&#45;&gt;dir_fdedb0aba14d44ce9d99bc100e026e6a -->
<g id="edge3" class="edge">
<title>dir_fef842b25f8adae1261920890dd101a4&#45;&gt;dir_fdedb0aba14d44ce9d99bc100e026e6a</title>
<g id="a_edge3"><a xlink:href="dir_000009_000002.html" target="_top">
<path fill="none" stroke="#63b8ff" d="M110.07,-112.08C118.66,-104.48 131.24,-93.35 141.75,-84.04"/>
<polygon fill="#63b8ff" stroke="#63b8ff" points="144,-86.73 149.16,-77.48 139.36,-81.49 144,-86.73"/>
</a>
</g>
<g id="a_edge3&#45;headlabel"><a xlink:href="dir_000009_000002.html" target="_top" xlink:title="10">
<text text-anchor="middle" x="144.32" y="-86.73" font-family="Helvetica,sans-Serif" font-size="10.00" fill="#63b8ff">10</text>
</a>
</g>
</g>
<!-- dir_25e265a018ac31d162d05c1bba66e27b -->
<g id="node3" class="node">
<title>dir_25e265a018ac31d162d05c1bba66e27b</title>
<g id="a_node3"><a xlink:href="dir_25e265a018ac31d162d05c1bba66e27b.html" target="_top" xlink:title="ContactDataType">
<polygon fill="#4ea9ff" stroke="#404040" points="116.25,-76 23.75,-76 23.75,-56 116.25,-56 116.25,-76"/>
<text text-anchor="middle" x="70" y="-62.5" font-family="Helvetica,sans-Serif" font-size="10.00">ContactDataType</text>
</a>
</g>
</g>
<!-- dir_fef842b25f8adae1261920890dd101a4&#45;&gt;dir_25e265a018ac31d162d05c1bba66e27b -->
<g id="edge1" class="edge">
<title>dir_fef842b25f8adae1261920890dd101a4&#45;&gt;dir_25e265a018ac31d162d05c1bba66e27b</title>
<g id="a_edge1"><a xlink:href="dir_000009_000003.html" target="_top">
<path fill="none" stroke="#63b8ff" d="M95.05,-112.08C91.17,-105.1 85.62,-95.12 80.74,-86.33"/>
<polygon fill="#63b8ff" stroke="#63b8ff" points="83.92,-84.84 76,-77.8 77.8,-88.24 83.92,-84.84"/>
</a>
</g>
<g id="a_edge1&#45;headlabel"><a xlink:href="dir_000009_000003.html" target="_top" xlink:title="6">
<text text-anchor="middle" x="87.41" y="-81.78" font-family="Helvetica,sans-Serif" font-size="10.00" fill="#63b8ff">6</text>
</a>
</g>
</g>
<!-- dir_d44c64559bbebec7f509842c48db8b23 -->
<g id="node4" class="node">
<title>dir_d44c64559bbebec7f509842c48db8b23</title>
<g id="a_node4"><a xlink:href="dir_d44c64559bbebec7f509842c48db8b23.html" target="_top" xlink:title="include">
<polygon fill="#daedff" stroke="red" points="166.38,-20 119.62,-20 119.62,0 166.38,0 166.38,-20"/>
<text text-anchor="middle" x="143" y="-6.5" font-family="Helvetica,sans-Serif" font-size="10.00">include</text>
</a>
</g>
</g>
<!-- dir_fef842b25f8adae1261920890dd101a4&#45;&gt;dir_d44c64559bbebec7f509842c48db8b23 -->
<g id="edge2" class="edge">
<title>dir_fef842b25f8adae1261920890dd101a4&#45;&gt;dir_d44c64559bbebec7f509842c48db8b23</title>
<g id="a_edge2"><a xlink:href="dir_000009_000006.html" target="_top">
<path fill="none" stroke="#63b8ff" d="M115.52,-119.19C138.58,-115.57 181.19,-105.1 200,-76 208.69,-62.56 208.36,-53.64 200,-40 194.79,-31.5 186.21,-25.39 177.28,-21.04"/>
<polygon fill="#63b8ff" stroke="#63b8ff" points="178.78,-17.88 168.2,-17.29 176.11,-24.35 178.78,-17.88"/>
</a>
</g>
<g id="a_edge2&#45;headlabel"><a xlink:href="dir_000009_000006.html" target="_top" xlink:title="93">
<text text-anchor="middle" x="181.79" y="-12.55" font-family="Helvetica,sans-Serif" font-size="10.00" fill="#63b8ff">93</text>
</a>
</g>
</g>
<!-- dir_25e265a018ac31d162d05c1bba66e27b&#45;&gt;dir_d44c64559bbebec7f509842c48db8b23 -->
<g id="edge4" class="edge">
<title>dir_25e265a018ac31d162d05c1bba66e27b&#45;&gt;dir_d44c64559bbebec7f509842c48db8b23</title>
<g id="a_edge4"><a xlink:href="dir_000003_000006.html" target="_top">
<path fill="none" stroke="#63b8ff" d="M82.72,-55.59C93.39,-47.7 108.88,-36.24 121.48,-26.92"/>
<polygon fill="#63b8ff" stroke="#63b8ff" points="123.26,-29.96 129.21,-21.2 119.09,-24.33 123.26,-29.96"/>
</a>
</g>
<g id="a_edge4&#45;headlabel"><a xlink:href="dir_000003_000006.html" target="_top" xlink:title="1">
<text text-anchor="middle" x="123.27" y="-29.98" font-family="Helvetica,sans-Serif" font-size="10.00" fill="#63b8ff">1</text>
</a>
</g>
</g>
</g>
</svg>
