<?xml version="1.0" encoding="UTF-8" standalone="no"?>
<!DOCTYPE svg PUBLIC "-//W3C//DTD SVG 1.1//EN"
 "http://www.w3.org/Graphics/SVG/1.1/DTD/svg11.dtd">
<!-- Generated by graphviz version 9.0.0 (0)
 -->
<!-- Title: 类继承关系图 Pages: 1 -->
<svg width="437pt" height="78pt"
 viewBox="0.00 0.00 437.00 78.00" xmlns="http://www.w3.org/2000/svg" xmlns:xlink="http://www.w3.org/1999/xlink">
<g id="graph0" class="graph" transform="scale(1 1) rotate(0) translate(4 74)">
<title>类继承关系图</title>
<!-- Node0 -->
<g id="Node000000" class="node">
<title>Node0</title>
<g id="a_Node000000"><a xlink:title=" ">
<polygon fill="#e0e0e0" stroke="#999999" points="295.25,-70 196.75,-70 196.75,-38 295.25,-38 295.25,-70"/>
<text text-anchor="start" x="204.75" y="-56.5" font-family="Helvetica,sans-Serif" font-size="10.00">std::enable_shared</text>
<text text-anchor="middle" x="246" y="-44.5" font-family="Helvetica,sans-Serif" font-size="10.00">_from_this</text>
</a>
</g>
</g>
<!-- Node1 -->
<g id="Node000001" class="node">
<title>Node1</title>
<g id="a_Node000001"><a xlink:href="a00916.html" target="_top" xlink:title=" ">
<polygon fill="white" stroke="#666666" points="429,-42 338,-42 338,-22 429,-22 429,-42"/>
<text text-anchor="middle" x="383.5" y="-28.5" font-family="Helvetica,sans-Serif" font-size="10.00">LibLoader::Plugin</text>
</a>
</g>
</g>
<!-- Node0&#45;&gt;Node1 -->
<g id="edge77_Node000000_Node000001" class="edge">
<title>Node0&#45;&gt;Node1</title>
<g id="a_edge77_Node000000_Node000001"><a xlink:title=" ">
<path fill="none" stroke="#63b8ff" d="M306.75,-44.3C317.22,-42.6 327.95,-40.86 337.91,-39.24"/>
<polygon fill="#63b8ff" stroke="#63b8ff" points="306.34,-40.82 297.03,-45.88 307.46,-47.73 306.34,-40.82"/>
</a>
</g>
</g>
<!-- Node3 -->
<g id="Node000003" class="node">
<title>Node3</title>
<g id="a_Node000003"><a xlink:href="a00920.html" target="_top" xlink:title=" ">
<polygon fill="white" stroke="#666666" points="154,-20 0,-20 0,0 154,0 154,-20"/>
<text text-anchor="middle" x="77" y="-6.5" font-family="Helvetica,sans-Serif" font-size="10.00">LibLoader::PluginFuncAddrData</text>
</a>
</g>
</g>
<!-- Node2 -->
<g id="Node000002" class="node">
<title>Node2</title>
<g id="a_Node000002"><a xlink:href="a00924.html" target="_top" xlink:title=" ">
<polygon fill="white" stroke="#666666" points="302,-20 190,-20 190,0 302,0 302,-20"/>
<text text-anchor="middle" x="246" y="-6.5" font-family="Helvetica,sans-Serif" font-size="10.00">LibLoader::PluginData</text>
</a>
</g>
</g>
<!-- Node3&#45;&gt;Node2 -->
<g id="edge78_Node000003_Node000002" class="edge">
<title>Node3&#45;&gt;Node2</title>
<g id="a_edge78_Node000003_Node000002"><a xlink:title=" ">
<path fill="none" stroke="darkgreen" d="M165.49,-10C173.79,-10 182.04,-10 189.9,-10"/>
<polygon fill="darkgreen" stroke="darkgreen" points="165.68,-6.5 155.68,-10 165.68,-13.5 165.68,-6.5"/>
</a>
</g>
</g>
<!-- Node2&#45;&gt;Node1 -->
<g id="edge79_Node000002_Node000001" class="edge">
<title>Node2&#45;&gt;Node1</title>
<g id="a_edge79_Node000002_Node000001"><a xlink:title=" ">
<path fill="none" stroke="#63b8ff" d="M313.35,-20.77C321.64,-22.12 329.96,-23.47 337.8,-24.74"/>
<polygon fill="#63b8ff" stroke="#63b8ff" points="314.04,-17.34 303.61,-19.19 312.92,-24.25 314.04,-17.34"/>
</a>
</g>
</g>
</g>
</svg>
