<?xml version="1.0" encoding="UTF-8" standalone="no"?>
<!DOCTYPE svg PUBLIC "-//W3C//DTD SVG 1.1//EN"
 "http://www.w3.org/Graphics/SVG/1.1/DTD/svg11.dtd">
<!-- Generated by graphviz version 2.50.0 (20211204.2007)
 -->
<!-- Title: 类继承关系图 Pages: 1 -->
<svg width="431pt" height="28pt"
 viewBox="0.00 0.00 431.00 28.00" xmlns="http://www.w3.org/2000/svg" xmlns:xlink="http://www.w3.org/1999/xlink">
<g id="graph0" class="graph" transform="scale(1 1) rotate(0) translate(4 24)">
<title>类继承关系图</title>
<polygon fill="white" stroke="transparent" points="-4,4 -4,-24 427,-24 427,4 -4,4"/>
<!-- Node0 -->
<g id="node1" class="node">
<title>Node0</title>
<g id="a_node1"><a xlink:href="a00861.html" target="_top" xlink:title="声明 Contact 类数据安全锁接口以及部分实现的抽象类">
<polygon fill="white" stroke="black" points="0,-0.5 0,-19.5 101,-19.5 101,-0.5 0,-0.5"/>
<text text-anchor="middle" x="50.5" y="-7.5" font-family="Helvetica,sans-Serif" font-size="10.00">MiraiCP::IMiraiData</text>
</a>
</g>
</g>
<!-- Node1 -->
<g id="node2" class="node">
<title>Node1</title>
<g id="a_node2"><a xlink:href="a00857.html" target="_top" xlink:title="Contact 内部储存数据抽象类">
<polygon fill="white" stroke="black" points="137,-0.5 137,-19.5 250,-19.5 250,-0.5 137,-0.5"/>
<text text-anchor="middle" x="193.5" y="-7.5" font-family="Helvetica,sans-Serif" font-size="10.00">MiraiCP::IContactData</text>
</a>
</g>
</g>
<!-- Node0&#45;&gt;Node1 -->
<g id="edge1" class="edge">
<title>Node0&#45;&gt;Node1</title>
<path fill="none" stroke="midnightblue" d="M111.42,-10C119.91,-10 128.6,-10 136.99,-10"/>
<polygon fill="midnightblue" stroke="midnightblue" points="111.21,-6.5 101.21,-10 111.21,-13.5 111.21,-6.5"/>
</g>
<!-- Node2 -->
<g id="node3" class="node">
<title>Node2</title>
<g id="a_node3"><a xlink:href="a00853.html" target="_top" xlink:title=" ">
<polygon fill="white" stroke="black" points="286,-0.5 286,-19.5 423,-19.5 423,-0.5 286,-0.5"/>
<text text-anchor="middle" x="354.5" y="-7.5" font-family="Helvetica,sans-Serif" font-size="10.00">MiraiCP::GroupRelatedData</text>
</a>
</g>
</g>
<!-- Node1&#45;&gt;Node2 -->
<g id="edge2" class="edge">
<title>Node1&#45;&gt;Node2</title>
<path fill="none" stroke="midnightblue" d="M260.29,-10C268.74,-10 277.41,-10 285.89,-10"/>
<polygon fill="midnightblue" stroke="midnightblue" points="260.11,-6.5 250.11,-10 260.11,-13.5 260.11,-6.5"/>
</g>
</g>
</svg>
