<?xml version="1.0" encoding="UTF-8" standalone="no"?>
<!DOCTYPE svg PUBLIC "-//W3C//DTD SVG 1.1//EN"
 "http://www.w3.org/Graphics/SVG/1.1/DTD/svg11.dtd">
<!-- Generated by graphviz version 2.50.0 (20211204.2007)
 -->
<!-- Title: 类继承关系图 Pages: 1 -->
<svg width="580pt" height="66pt"
 viewBox="0.00 0.00 580.00 66.00" xmlns="http://www.w3.org/2000/svg" xmlns:xlink="http://www.w3.org/1999/xlink">
<g id="graph0" class="graph" transform="scale(1 1) rotate(0) translate(4 62)">
<title>类继承关系图</title>
<polygon fill="white" stroke="transparent" points="-4,4 -4,-62 576,-62 576,4 -4,4"/>
<!-- Node0 -->
<g id="node1" class="node">
<title>Node0</title>
<g id="a_node1"><a xlink:href="a00665.html" target="_top" xlink:title="声明 Contact 类数据安全锁接口以及部分实现的抽象类">
<polygon fill="white" stroke="black" points="0,-19.5 0,-38.5 101,-38.5 101,-19.5 0,-19.5"/>
<text text-anchor="middle" x="50.5" y="-26.5" font-family="Helvetica,sans-Serif" font-size="10.00">MiraiCP::IMiraiData</text>
</a>
</g>
</g>
<!-- Node1 -->
<g id="node2" class="node">
<title>Node1</title>
<g id="a_node2"><a xlink:href="a00421.html" target="_top" xlink:title="Contact 内部储存数据抽象类">
<polygon fill="white" stroke="black" points="137,-19.5 137,-38.5 250,-38.5 250,-19.5 137,-19.5"/>
<text text-anchor="middle" x="193.5" y="-26.5" font-family="Helvetica,sans-Serif" font-size="10.00">MiraiCP::IContactData</text>
</a>
</g>
</g>
<!-- Node0&#45;&gt;Node1 -->
<g id="edge1" class="edge">
<title>Node0&#45;&gt;Node1</title>
<path fill="none" stroke="midnightblue" d="M111.42,-29C119.91,-29 128.6,-29 136.99,-29"/>
<polygon fill="midnightblue" stroke="midnightblue" points="111.21,-25.5 101.21,-29 111.21,-32.5 111.21,-25.5"/>
</g>
<!-- Node2 -->
<g id="node3" class="node">
<title>Node2</title>
<g id="a_node3"><a xlink:href="a00425.html" target="_top" xlink:title=" ">
<polygon fill="white" stroke="black" points="286,-19.5 286,-38.5 423,-38.5 423,-19.5 286,-19.5"/>
<text text-anchor="middle" x="354.5" y="-26.5" font-family="Helvetica,sans-Serif" font-size="10.00">MiraiCP::GroupRelatedData</text>
</a>
</g>
</g>
<!-- Node1&#45;&gt;Node2 -->
<g id="edge2" class="edge">
<title>Node1&#45;&gt;Node2</title>
<path fill="none" stroke="midnightblue" d="M260.29,-29C268.74,-29 277.41,-29 285.89,-29"/>
<polygon fill="midnightblue" stroke="midnightblue" points="260.11,-25.5 250.11,-29 260.11,-32.5 260.11,-25.5"/>
</g>
<!-- Node3 -->
<g id="node4" class="node">
<title>Node3</title>
<g id="a_node4"><a xlink:href="a00641.html" target="_top" xlink:title=" ">
<polygon fill="white" stroke="black" points="463.5,-38.5 463.5,-57.5 567.5,-57.5 567.5,-38.5 463.5,-38.5"/>
<text text-anchor="middle" x="515.5" y="-45.5" font-family="Helvetica,sans-Serif" font-size="10.00">MiraiCP::GroupData</text>
</a>
</g>
</g>
<!-- Node2&#45;&gt;Node3 -->
<g id="edge3" class="edge">
<title>Node2&#45;&gt;Node3</title>
<path fill="none" stroke="midnightblue" d="M433.45,-38.32C443.55,-39.52 453.68,-40.73 463.19,-41.87"/>
<polygon fill="midnightblue" stroke="midnightblue" points="433.74,-34.82 423.39,-37.11 432.91,-41.77 433.74,-34.82"/>
</g>
<!-- Node4 -->
<g id="node5" class="node">
<title>Node4</title>
<g id="a_node5"><a xlink:href="a00697.html" target="_top" xlink:title="Member数据声明">
<polygon fill="white" stroke="black" points="459,-0.5 459,-19.5 572,-19.5 572,-0.5 459,-0.5"/>
<text text-anchor="middle" x="515.5" y="-7.5" font-family="Helvetica,sans-Serif" font-size="10.00">MiraiCP::MemberData</text>
</a>
</g>
</g>
<!-- Node2&#45;&gt;Node4 -->
<g id="edge4" class="edge">
<title>Node2&#45;&gt;Node4</title>
<path fill="none" stroke="midnightblue" d="M433.42,-19.69C441.99,-18.66 450.59,-17.64 458.82,-16.65"/>
<polygon fill="midnightblue" stroke="midnightblue" points="432.91,-16.23 423.39,-20.89 433.74,-23.18 432.91,-16.23"/>
</g>
</g>
</svg>
