<?xml version="1.0" encoding="UTF-8" standalone="no"?>
<!DOCTYPE svg PUBLIC "-//W3C//DTD SVG 1.1//EN"
 "http://www.w3.org/Graphics/SVG/1.1/DTD/svg11.dtd">
<!-- Generated by graphviz version 2.50.0 (20211204.2007)
 -->
<!-- Title: 类继承关系图 Pages: 1 -->
<svg width="438pt" height="28pt"
 viewBox="0.00 0.00 438.00 28.00" xmlns="http://www.w3.org/2000/svg" xmlns:xlink="http://www.w3.org/1999/xlink">
<g id="graph0" class="graph" transform="scale(1 1) rotate(0) translate(4 24)">
<title>类继承关系图</title>
<polygon fill="white" stroke="transparent" points="-4,4 -4,-24 434,-24 434,4 -4,4"/>
<!-- Node0 -->
<g id="node1" class="node">
<title>Node0</title>
<g id="a_node1"><a xlink:href="a00393.html" target="_top" xlink:title=" ">
<polygon fill="white" stroke="black" points="0,-0.5 0,-19.5 154,-19.5 154,-0.5 0,-0.5"/>
<text text-anchor="middle" x="77" y="-7.5" font-family="Helvetica,sans-Serif" font-size="10.00">LibLoader::PluginFuncAddrData</text>
</a>
</g>
</g>
<!-- Node1 -->
<g id="node2" class="node">
<title>Node1</title>
<g id="a_node2"><a xlink:href="a00397.html" target="_top" xlink:title=" ">
<polygon fill="white" stroke="black" points="190,-0.5 190,-19.5 302,-19.5 302,-0.5 190,-0.5"/>
<text text-anchor="middle" x="246" y="-7.5" font-family="Helvetica,sans-Serif" font-size="10.00">LibLoader::PluginData</text>
</a>
</g>
</g>
<!-- Node0&#45;&gt;Node1 -->
<g id="edge1" class="edge">
<title>Node0&#45;&gt;Node1</title>
<path fill="none" stroke="darkgreen" d="M164.36,-10C173.04,-10 181.68,-10 189.9,-10"/>
<polygon fill="darkgreen" stroke="darkgreen" points="164.17,-6.5 154.17,-10 164.17,-13.5 164.17,-6.5"/>
</g>
<!-- Node2 -->
<g id="node3" class="node">
<title>Node2</title>
<g id="a_node3"><a xlink:href="a00389.html" target="_top" xlink:title=" ">
<polygon fill="white" stroke="black" points="338,-0.5 338,-19.5 430,-19.5 430,-0.5 338,-0.5"/>
<text text-anchor="middle" x="384" y="-7.5" font-family="Helvetica,sans-Serif" font-size="10.00">LibLoader::Plugin</text>
</a>
</g>
</g>
<!-- Node1&#45;&gt;Node2 -->
<g id="edge2" class="edge">
<title>Node1&#45;&gt;Node2</title>
<path fill="none" stroke="midnightblue" d="M312.34,-10C320.92,-10 329.56,-10 337.71,-10"/>
<polygon fill="midnightblue" stroke="midnightblue" points="312.32,-6.5 302.32,-10 312.32,-13.5 312.32,-6.5"/>
</g>
</g>
</svg>
